<?xml version="1.0" encoding="UTF-8" standalone="no"?><svg xmlns="http://www.w3.org/2000/svg" xmlns:xlink="http://www.w3.org/1999/xlink" clip-rule="evenodd" stroke-miterlimit="4.00" viewBox="0 0 220 42"><desc>SVG generated by Keynote</desc><defs></defs><g transform="matrix(1.00, 0.00, -0.00, -1.00, 0.0, 42.0)"><g><clipPath id="clip-75"><path d="M 0.4 16.5 L 220.0 16.5 L 220.0 25.5 L 0.4 25.5 Z M 0.4 16.5 "></path></clipPath><g clip-path="url(#clip-75)"><path d="M 0.0 0.0 L 217.5 0.0 " fill="none" stroke="#FEFFFE" stroke-width="7.00" stroke-dasharray="7.0, 7.0" transform="matrix(1.00, 0.00, 0.00, -1.00, 1.4, 21.0)"></path></g></g><g><clipPath id="clip-76"><path d="M 59.7 41.9 L 160.7 41.9 L 160.7 0.1 L 59.7 0.1 Z M 59.7 41.9 "></path></clipPath><g clip-path="url(#clip-76)"><path d="M 62.2 39.4 L 158.2 39.4 L 158.2 2.6 L 62.2 2.6 Z M 62.2 39.4 " fill="#212327"></path><path d="M 0.0 0.0 L 96.0 0.0 L 96.0 36.9 L 0.0 36.9 Z M 0.0 0.0 " fill="none" stroke="#FEFFFE" stroke-width="3.00" transform="matrix(1.00, 0.00, 0.00, -1.00, 62.2, 39.4)"></path></g></g><image xlink:href="../../956FEF66-F126-4898-9939-EAE9E9BE3BA5/assets/921F85B8F3581124C8C26C8F2278F2B7.png" width="90.00" height="22.00" transform="matrix(1.00, 0.00, -0.00, -1.00, 67.0, 30.0)"></image><g><clipPath id="clip-77"><path d="M 60.9 37.4 L 162.4 37.4 L 162.4 1.3 L 60.9 1.3 Z M 60.9 37.4 "></path></clipPath><g clip-path="url(#clip-77)"><text xml:space="preserve" font-family="Courier" font-size="15.0" fill="#FEFFFE" transform="matrix(1.00, 0.00, -0.00, -1.00, 69.7, 15.1)">1</text><text xml:space="preserve" font-family="Courier" font-size="15.0" fill="#FEFFFE" transform="matrix(1.00, 0.00, -0.00, -1.00, 78.7, 15.1)"> </text><text xml:space="preserve" font-family="Courier" font-size="15.0" fill="#FEFFFE" transform="matrix(1.00, 0.00, -0.00, -1.00, 87.7, 15.1)">G</text><text xml:space="preserve" font-family="Courier" font-size="15.0" fill="#FEFFFE" transform="matrix(1.00, 0.00, -0.00, -1.00, 96.7, 15.1)">B</text><text xml:space="preserve" font-family="Courier" font-size="15.0" fill="#FEFFFE" transform="matrix(1.00, 0.00, -0.00, -1.00, 105.7, 15.1)"> </text><text xml:space="preserve" font-family="Courier" font-size="15.0" fill="#FEFFFE" transform="matrix(1.00, 0.00, -0.00, -1.00, 114.7, 15.1)">l</text><text xml:space="preserve" font-family="Courier" font-size="15.0" fill="#FEFFFE" transform="matrix(1.00, 0.00, -0.00, -1.00, 123.7, 15.1)">i</text><text xml:space="preserve" font-family="Courier" font-size="15.0" fill="#FEFFFE" transform="matrix(1.00, 0.00, -0.00, -1.00, 132.7, 15.1)">n</text><text xml:space="preserve" font-family="Courier" font-size="15.0" fill="#FEFFFE" transform="matrix(1.00, 0.00, -0.00, -1.00, 141.7, 15.1)">k</text></g></g></g></svg>