<?xml version="1.0" encoding="UTF-8" standalone="no"?><svg xmlns="http://www.w3.org/2000/svg" xmlns:xlink="http://www.w3.org/1999/xlink" clip-rule="evenodd" stroke-miterlimit="4.00" viewBox="0 0 209 30"><desc>SVG generated by Keynote</desc><defs></defs><g transform="matrix(1.00, 0.00, -0.00, -1.00, 0.0, 30.0)"><text xml:space="preserve" font-family="AmericanTypewriter" font-size="30.0" fill="#FEFFFE" transform="matrix(1.00, 0.00, -0.00, -1.00, 1.0, 7.0)">C</text><text xml:space="preserve" font-family="AmericanTypewriter" font-size="30.0" fill="#FEFFFE" transform="matrix(1.00, 0.00, -0.00, -1.00, 20.1, 7.0)">o</text><text xml:space="preserve" font-family="AmericanTypewriter" font-size="30.0" fill="#FEFFFE" transform="matrix(1.00, 0.00, -0.00, -1.00, 36.5, 7.0)">m</text><text xml:space="preserve" font-family="AmericanTypewriter" font-size="30.0" fill="#FEFFFE" transform="matrix(1.00, 0.00, -0.00, -1.00, 63.5, 7.0)">p</text><text xml:space="preserve" font-family="AmericanTypewriter" font-size="30.0" fill="#FEFFFE" transform="matrix(1.00, 0.00, -0.00, -1.00, 81.5, 7.0)">u</text><text xml:space="preserve" font-family="AmericanTypewriter" font-size="30.0" fill="#FEFFFE" transform="matrix(1.00, 0.00, -0.00, -1.00, 100.1, 7.0)">t</text><text xml:space="preserve" font-family="AmericanTypewriter" font-size="30.0" fill="#FEFFFE" transform="matrix(1.00, 0.00, -0.00, -1.00, 112.1, 7.0)">e</text><text xml:space="preserve" font-family="AmericanTypewriter" font-size="30.0" fill="#FEFFFE" transform="matrix(1.00, 0.00, -0.00, -1.00, 128.0, 7.0)"> </text><text xml:space="preserve" font-family="AmericanTypewriter" font-size="30.0" fill="#FEFFFE" transform="matrix(1.00, 0.00, -0.00, -1.00, 135.5, 7.0)">N</text><text xml:space="preserve" font-family="AmericanTypewriter" font-size="30.0" fill="#FEFFFE" transform="matrix(1.00, 0.00, -0.00, -1.00, 157.4, 7.0)">o</text><text xml:space="preserve" font-family="AmericanTypewriter" font-size="30.0" fill="#FEFFFE" transform="matrix(1.00, 0.00, -0.00, -1.00, 173.8, 7.0)">d</text><text xml:space="preserve" font-family="AmericanTypewriter" font-size="30.0" fill="#FEFFFE" transform="matrix(1.00, 0.00, -0.00, -1.00, 191.8, 7.0)">e</text></g></svg>