<?xml version="1.0" encoding="UTF-8" standalone="no"?><svg xmlns="http://www.w3.org/2000/svg" xmlns:xlink="http://www.w3.org/1999/xlink" clip-rule="evenodd" stroke-miterlimit="4.00" viewBox="0 0 132 92"><desc>SVG generated by Keynote</desc><defs></defs><g transform="matrix(1.00, 0.00, -0.00, -1.00, 0.0, 92.0)"><image xlink:href="../../956FEF66-F126-4898-9939-EAE9E9BE3BA5/assets/6BE460064B40692868CC0984B1AA00D9.png" width="130.00" height="90.00" transform="matrix(1.00, 0.00, -0.00, -1.00, 1.3, 90.9)" opacity="0.50"></image><path d="M 37.2 83.1 L 95.1 83.1 C 103.2 83.1 107.3 83.1 111.6 81.7 C 116.3 80.0 120.1 76.3 121.8 71.5 C 123.2 67.2 123.2 63.1 123.2 55.0 L 123.2 36.9 C 123.2 28.9 123.2 24.8 121.8 20.4 C 120.1 15.7 116.3 12.0 111.6 10.2 C 107.3 8.9 103.2 8.9 95.0 8.9 L 37.2 8.9 C 29.2 8.9 25.1 8.9 20.7 10.2 C 16.0 12.0 12.3 15.7 10.5 20.4 C 9.2 24.8 9.2 28.9 9.2 37.0 L 9.2 55.1 C 9.2 63.1 9.2 67.2 10.5 71.5 C 12.3 76.3 16.0 80.0 20.7 81.7 C 25.1 83.1 29.2 83.1 37.3 83.1 Z M 37.2 83.1 " fill="#DDF3D0"></path><path d="M 37.8 81.2 C 36.9 81.2 35.7 81.3 35.6 82.7 C 35.4 84.0 36.4 85.1 37.8 85.1 C 39.1 85.1 38.7 84.3 41.9 84.3 C 43.1 84.3 43.2 81.9 42.0 81.9 C 39.1 81.9 39.5 81.2 37.8 81.2 C 37.8 81.2 37.8 81.2 37.8 81.2 Z M 36.1 85.1 C 36.6 85.1 37.0 85.0 37.3 85.0 L 37.3 81.2 C 36.3 81.4 35.8 82.0 35.8 83.1 C 35.7 84.2 36.3 84.8 37.3 85.0 L 37.3 81.2 C 37.0 81.2 36.6 81.2 36.1 81.2 C 34.1 81.2 34.1 81.9 31.4 81.8 C 29.9 81.8 30.1 84.3 31.3 84.3 C 34.2 84.3 33.8 85.1 36.1 85.1 C 36.1 85.1 36.1 85.1 36.1 85.1 Z M 42.1 81.9 C 40.9 81.9 40.9 84.3 42.2 84.3 C 43.7 84.3 46.8 83.9 47.7 83.9 C 48.5 84.0 50.8 84.5 51.5 84.5 C 52.2 84.5 55.7 83.7 57.2 83.9 C 58.7 84.1 59.2 84.0 60.2 84.0 C 61.2 84.0 62.9 83.9 63.8 83.8 C 64.8 83.8 65.7 84.4 67.0 84.3 C 68.3 84.1 69.0 84.3 69.9 84.3 C 71.3 84.3 71.2 81.9 69.9 81.9 C 68.6 81.9 67.7 81.7 66.6 81.8 C 65.6 81.8 64.6 82.1 63.6 81.8 C 62.6 81.6 60.6 81.8 59.3 82.0 C 58.1 82.2 56.7 82.1 55.7 82.0 C 53.8 81.8 49.1 82.2 48.4 82.0 C 47.7 81.8 45.6 82.0 44.8 82.0 C 44.0 82.0 43.6 81.9 42.1 81.9 C 42.1 81.9 42.1 81.9 42.1 81.9 Z M 98.7 84.3 C 100.3 84.3 100.5 81.9 98.6 81.9 C 96.7 81.9 93.4 82.1 92.6 82.1 C 91.8 82.0 88.3 81.9 87.6 81.9 C 86.9 81.9 84.3 82.2 82.8 82.0 C 81.3 81.8 79.8 82.2 78.8 82.1 C 77.5 82.0 76.8 82.1 75.8 82.2 C 74.9 82.2 73.4 81.7 72.5 81.9 C 71.7 82.1 71.2 81.9 70.1 81.9 C 68.9 81.9 68.9 84.3 70.0 84.3 C 71.1 84.3 72.0 84.3 73.1 84.2 C 74.2 84.2 75.5 84.1 76.7 84.1 C 77.8 84.1 79.4 84.4 80.6 84.3 C 81.8 84.1 83.6 84.1 84.4 84.0 C 85.3 84.0 87.2 84.1 88.0 83.9 C 89.1 83.8 90.9 84.0 91.6 84.2 C 92.3 84.4 92.7 84.1 94.2 84.2 C 95.1 84.2 97.0 84.3 98.7 84.3 C 98.7 84.3 98.7 84.3 98.7 84.3 Z M 99.1 84.3 C 101.0 84.3 103.5 83.9 104.1 83.9 C 104.7 83.8 106.5 83.9 107.3 83.7 C 108.1 83.6 108.4 83.3 109.7 83.0 C 111.3 82.6 112.5 82.3 112.6 82.3 C 113.0 82.3 114.0 82.1 115.2 81.3 C 116.8 80.2 117.3 80.0 117.9 79.4 C 118.8 78.2 119.1 78.3 119.7 77.4 C 120.4 76.5 120.9 76.0 121.2 75.2 C 121.6 74.3 122.2 73.8 122.6 72.9 C 123.1 71.6 120.7 70.9 120.3 72.0 C 120.0 72.7 119.9 73.3 119.6 74.0 C 119.2 74.6 118.8 75.1 118.2 75.6 C 117.7 76.2 116.8 77.4 115.8 78.1 C 114.8 78.8 113.1 79.7 111.8 80.3 C 110.5 80.9 110.2 81.6 107.7 81.6 C 106.9 81.6 105.2 81.9 104.5 81.9 C 103.2 82.0 100.4 81.9 99.0 81.9 C 97.3 81.9 97.3 84.3 99.1 84.3 C 99.1 84.3 99.1 84.3 99.1 84.3 Z M 124.4 44.7 C 124.4 43.4 121.9 43.2 121.9 44.7 C 121.9 46.3 122.2 49.1 122.1 49.9 C 122.1 50.7 121.9 54.2 121.9 54.9 C 121.9 55.6 122.3 59.3 122.0 61.0 C 121.8 62.6 122.1 64.0 122.0 64.9 C 121.8 66.1 121.8 66.6 121.8 67.4 C 121.7 68.2 121.0 69.2 121.0 69.9 C 121.1 70.6 120.8 70.7 120.4 71.8 C 120.0 72.8 122.2 73.8 122.6 72.8 C 123.1 71.7 123.2 70.9 123.4 70.0 C 123.5 69.1 123.7 68.0 123.8 67.0 C 123.9 66.0 124.3 64.6 124.2 63.3 C 124.1 62.1 124.1 60.1 124.1 59.2 C 124.1 58.1 124.1 55.3 124.0 54.4 C 123.8 53.4 124.1 51.6 124.3 50.9 C 124.5 50.2 124.2 49.7 124.3 48.3 C 124.3 47.4 124.4 46.0 124.4 44.7 C 124.4 44.7 124.4 44.7 124.4 44.7 Z M 124.4 44.3 C 124.4 42.8 124.1 40.4 124.1 39.8 C 124.1 39.2 124.2 37.3 124.2 36.0 C 124.1 34.7 124.0 34.2 123.9 32.3 C 123.8 29.9 124.0 28.7 124.0 28.6 C 124.1 28.3 124.3 27.3 124.1 26.1 C 123.9 24.5 124.0 24.0 123.8 23.4 C 123.3 22.3 123.5 22.1 123.2 21.3 C 123.0 20.4 122.9 19.8 122.4 19.0 C 121.8 18.2 121.8 17.4 121.3 16.6 C 120.5 15.4 118.6 17.0 119.2 18.0 C 119.6 18.6 120.1 19.0 120.4 19.7 C 120.8 20.4 120.9 21.0 121.0 21.6 C 121.0 22.2 121.5 23.4 121.6 24.4 C 121.7 25.4 121.7 27.2 121.8 28.7 C 121.9 30.1 122.5 30.8 122.1 34.9 C 122.0 36.2 122.1 38.4 122.1 39.2 C 122.1 40.6 122.0 43.3 122.0 44.5 C 122.0 45.9 124.4 45.8 124.4 44.3 C 124.4 44.3 124.4 44.3 124.4 44.3 Z M 95.3 7.6 C 94.4 7.6 94.2 8.3 94.2 8.9 C 94.2 9.5 94.2 10.1 95.3 10.1 C 97.5 10.1 100.9 9.9 101.7 10.0 C 102.6 10.0 105.8 10.4 106.4 10.4 C 107.0 10.5 109.1 10.5 110.1 11.0 C 111.2 11.4 112.6 11.6 113.4 12.1 C 114.4 12.8 115.0 13.1 115.7 13.6 C 116.5 14.1 117.1 15.5 117.8 15.9 C 118.4 16.3 118.5 16.8 119.1 17.7 C 119.7 18.6 121.8 17.5 121.2 16.5 C 120.6 15.5 119.9 14.7 119.1 13.9 C 118.3 13.1 117.2 12.2 116.2 11.5 C 115.3 10.9 113.9 9.7 112.6 9.4 C 111.3 9.0 109.9 8.8 109.3 8.7 C 108.6 8.6 107.0 8.3 106.2 8.3 C 105.3 8.4 103.5 8.1 102.8 7.8 C 102.2 7.6 101.7 7.9 100.0 7.8 C 98.9 7.8 97.2 7.6 95.3 7.6 C 95.3 7.6 95.3 7.6 95.3 7.6 Z M 95.1 10.1 C 96.8 10.1 96.2 7.6 94.9 7.6 C 93.4 7.6 90.3 8.1 89.4 8.0 C 88.6 8.0 86.3 7.5 85.6 7.5 C 84.9 7.5 81.4 8.2 79.9 8.0 C 78.4 7.8 78.0 7.9 76.9 7.9 C 75.9 7.9 74.2 8.1 73.3 8.1 C 72.3 8.2 71.4 7.5 70.1 7.7 C 68.8 7.9 68.1 7.6 67.2 7.6 C 65.8 7.6 65.9 10.1 67.2 10.1 C 68.5 10.1 69.4 10.2 70.5 10.2 C 71.6 10.1 72.5 9.9 73.5 10.1 C 74.6 10.4 76.6 10.1 77.8 10.0 C 79.0 9.8 80.4 9.9 81.4 10.0 C 83.3 10.2 88.0 9.7 88.7 9.9 C 89.4 10.1 91.5 9.9 92.3 9.9 C 93.1 9.9 92.8 10.1 95.1 10.1 C 95.1 10.1 95.1 10.1 95.1 10.1 Z M 66.9 7.6 C 65.4 7.6 63.0 8.0 62.4 8.0 C 61.8 8.0 59.8 7.8 58.8 7.8 C 57.9 7.9 57.6 8.1 56.0 8.1 C 54.0 8.2 52.7 8.0 52.6 7.9 C 52.3 7.8 51.3 7.6 50.0 7.7 C 48.2 7.8 47.7 7.5 46.9 7.6 C 45.5 7.9 45.4 7.7 44.3 7.7 C 43.3 7.8 42.6 7.7 41.8 7.8 C 40.9 7.9 40.2 7.6 39.4 7.6 C 38.0 7.6 38.2 10.1 39.4 10.1 C 40.2 10.1 40.8 9.8 41.6 9.8 C 42.4 9.8 43.1 9.9 43.9 10.0 C 44.7 10.1 46.3 9.9 47.6 10.0 C 48.9 10.0 51.1 10.2 52.6 10.1 C 54.1 10.1 55.0 9.5 58.0 9.9 C 59.0 10.0 61.0 9.9 61.8 9.9 C 63.2 9.9 65.9 10.1 67.0 10.1 C 68.4 10.1 68.4 7.6 66.9 7.6 C 66.9 7.6 66.9 7.6 66.9 7.6 Z M 12.4 14.7 C 11.6 15.7 13.4 17.3 14.3 16.2 C 15.2 15.1 17.1 13.3 17.7 12.9 C 18.4 12.5 21.3 11.4 21.9 11.2 C 22.4 11.1 24.3 10.3 25.5 10.3 C 26.8 10.4 28.0 9.9 29.1 10.0 C 30.3 10.0 31.1 9.9 32.2 9.8 C 33.3 9.8 35.3 10.3 36.4 10.1 C 37.6 9.9 38.0 10.1 39.1 10.1 C 40.3 10.1 40.3 7.7 39.2 7.7 C 38.1 7.7 37.1 7.7 35.6 7.7 C 34.1 7.8 32.5 7.8 31.2 7.9 C 30.0 7.9 28.3 7.6 27.2 7.9 C 26.0 8.1 24.5 8.4 23.9 8.5 C 23.2 8.7 21.6 9.0 20.9 9.3 C 20.1 9.7 18.2 10.4 17.4 10.5 C 16.7 10.7 16.4 11.2 15.2 12.1 C 14.5 12.7 13.3 13.6 12.4 14.7 C 12.4 14.7 12.4 14.7 12.4 14.7 Z M 12.2 15.0 C 11.2 16.3 10.3 18.7 10.0 19.3 C 9.8 19.9 9.1 21.5 9.0 22.3 C 8.9 23.1 9.0 23.4 8.8 24.8 C 8.7 26.5 8.4 27.7 8.4 27.8 C 8.3 28.1 8.0 29.0 8.0 30.5 C 8.1 32.4 7.8 33.1 7.9 34.2 C 8.2 36.0 8.0 36.5 8.0 37.5 C 8.1 38.6 8.0 39.2 8.1 40.0 C 8.2 41.0 7.9 41.6 7.9 42.5 C 7.9 43.8 10.4 43.7 10.4 42.4 C 10.4 41.7 10.1 41.0 10.1 40.2 C 10.1 39.4 10.2 38.7 10.3 37.9 C 10.4 37.1 10.2 34.8 10.3 33.2 C 10.4 31.6 10.5 29.3 10.6 27.9 C 10.6 26.5 10.0 25.6 10.8 23.4 C 11.1 22.6 11.3 21.3 11.6 20.6 C 12.1 19.3 13.5 17.2 14.2 16.4 C 15.0 15.4 13.1 13.8 12.2 15.0 C 12.2 15.0 12.2 15.0 12.2 15.0 Z M 9.1 70.8 C 9.3 71.9 11.7 71.3 11.4 70.2 C 11.1 69.1 10.5 66.9 10.5 66.2 C 10.5 65.5 10.5 62.3 10.5 61.5 C 10.4 60.8 10.1 57.7 10.3 55.6 C 10.5 53.5 10.1 52.5 10.2 51.4 C 10.3 50.2 10.2 49.5 10.1 48.5 C 10.1 47.5 10.6 46.0 10.4 45.2 C 10.1 44.3 10.4 43.9 10.4 42.7 C 10.4 41.6 8.0 41.6 8.0 42.7 C 8.0 43.8 8.0 44.7 8.0 45.8 C 8.1 46.9 8.1 48.2 8.1 49.4 C 8.1 50.4 7.8 52.0 8.0 53.3 C 8.1 54.5 8.2 56.8 8.2 57.7 C 8.3 58.9 8.2 61.2 8.4 62.0 C 8.6 63.2 8.4 64.9 8.3 65.6 C 8.1 66.2 8.4 66.6 8.6 67.9 C 8.7 68.6 8.8 69.8 9.1 70.8 C 9.1 70.8 9.1 70.8 9.1 70.8 Z M 9.2 71.2 C 9.5 72.4 11.1 74.8 11.4 75.3 C 11.7 75.8 12.9 77.6 13.6 78.3 C 14.3 79.0 14.7 79.1 16.0 80.0 C 17.7 81.2 18.9 81.9 19.0 82.0 C 19.2 82.2 20.2 82.9 21.3 83.1 C 22.8 83.4 23.2 83.7 23.8 83.7 C 25.0 83.6 25.1 83.9 26.1 84.0 C 27.0 84.0 27.6 84.2 28.4 84.1 C 29.3 84.0 30.0 84.3 31.0 84.3 C 32.4 84.3 32.3 81.9 31.0 81.8 C 30.1 81.8 29.4 82.1 28.7 82.0 C 27.9 82.0 27.3 81.9 26.6 81.7 C 25.9 81.6 24.6 81.6 23.6 81.3 C 22.7 81.1 21.2 80.6 19.9 80.0 C 18.6 79.5 17.4 79.6 15.6 77.4 C 15.0 76.7 13.7 75.3 13.3 74.7 C 12.6 73.6 11.7 71.3 11.5 70.4 C 11.2 69.4 8.8 70.0 9.2 71.2 C 9.2 71.2 9.2 71.2 9.2 71.2 Z M 37.3 85.0 C 37.3 85.0 37.3 84.9 37.3 83.6 C 37.3 82.2 37.3 81.2 37.3 81.2 C 37.3 81.2 37.3 81.9 37.3 81.9 C 37.2 81.9 37.2 84.3 37.3 84.3 C 37.3 84.3 37.3 85.0 37.3 85.0 C 37.3 85.0 37.3 85.0 37.3 85.0 Z M 37.2 81.2 C 37.2 81.2 37.2 81.8 37.2 83.1 C 37.2 84.4 37.2 85.1 37.2 85.1 C 37.2 85.1 37.2 84.3 37.2 84.4 C 37.3 84.4 37.3 81.9 37.2 81.9 C 37.2 81.9 37.2 81.2 37.2 81.2 C 37.2 81.2 37.2 81.2 37.2 81.2 Z M 37.2 81.2 " fill="#FF7777"></path><g><clipPath id="clip-74"><path d="M 9.2 8.9 L 123.2 8.9 L 123.2 83.1 L 9.2 83.1 Z M 9.2 8.9 "></path></clipPath><g clip-path="url(#clip-74)"><text xml:space="preserve" font-family="AmericanTypewriter" font-size="20.0" fill="#000000" transform="matrix(1.00, 0.00, -0.00, -1.00, 49.0, 39.0)">V</text><text xml:space="preserve" font-family="AmericanTypewriter" font-size="20.0" fill="#000000" transform="matrix(1.00, 0.00, -0.00, -1.00, 63.6, 39.0)">M</text></g></g></g></svg>