<?xml version="1.0" encoding="UTF-8" standalone="no"?><svg xmlns="http://www.w3.org/2000/svg" xmlns:xlink="http://www.w3.org/1999/xlink" clip-rule="evenodd" stroke-miterlimit="4.00" viewBox="0 0 132 93"><desc>SVG generated by Keynote</desc><defs></defs><g transform="matrix(1.00, 0.00, -0.00, -1.00, 0.0, 93.0)"><image xlink:href="../../956FEF66-F126-4898-9939-EAE9E9BE3BA5/assets/6BE460064B40692868CC0984B1AA00D9.png" width="130.00" height="90.00" transform="matrix(1.00, 0.00, -0.00, -1.00, 1.3, 91.1)" opacity="0.50"></image><path d="M 37.2 83.3 L 95.1 83.3 C 103.2 83.3 107.3 83.3 111.6 81.9 C 116.3 80.2 120.1 76.4 121.8 71.7 C 123.2 67.4 123.2 63.3 123.2 55.1 L 123.2 37.1 C 123.2 29.0 123.2 24.9 121.8 20.6 C 120.1 15.9 116.3 12.1 111.6 10.4 C 107.3 9.0 103.2 9.0 95.0 9.0 L 37.2 9.0 C 29.2 9.0 25.1 9.0 20.7 10.4 C 16.0 12.1 12.3 15.9 10.5 20.6 C 9.2 24.9 9.2 29.0 9.2 37.2 L 9.2 55.2 C 9.2 63.3 9.2 67.4 10.5 71.7 C 12.3 76.4 16.0 80.2 20.7 81.9 C 25.1 83.3 29.2 83.3 37.3 83.3 Z M 37.2 83.3 " fill="#DDF3D0"></path><path d="M 37.8 81.3 C 36.9 81.3 35.7 81.5 35.6 82.8 C 35.4 84.2 36.4 85.2 37.8 85.2 C 39.1 85.2 38.7 84.5 41.9 84.5 C 43.1 84.5 43.2 82.0 42.0 82.0 C 39.1 82.0 39.5 81.3 37.8 81.3 C 37.8 81.3 37.8 81.3 37.8 81.3 Z M 36.1 85.2 C 36.6 85.2 37.0 85.2 37.3 85.2 L 37.3 81.4 C 36.3 81.6 35.8 82.2 35.8 83.3 C 35.7 84.3 36.3 85.0 37.3 85.2 L 37.3 81.4 C 37.0 81.3 36.6 81.3 36.1 81.3 C 34.1 81.3 34.1 82.1 31.4 82.0 C 29.9 82.0 30.1 84.4 31.3 84.5 C 34.2 84.5 33.8 85.2 36.1 85.2 C 36.1 85.2 36.1 85.2 36.1 85.2 Z M 42.1 82.0 C 40.9 82.0 40.9 84.5 42.2 84.5 C 43.7 84.5 46.8 84.1 47.7 84.1 C 48.5 84.2 50.8 84.6 51.5 84.6 C 52.2 84.6 55.7 83.9 57.2 84.1 C 58.7 84.3 59.2 84.2 60.2 84.2 C 61.2 84.2 62.9 84.1 63.8 84.0 C 64.8 83.9 65.7 84.6 67.0 84.4 C 68.3 84.2 69.0 84.5 69.9 84.5 C 71.3 84.5 71.2 82.1 69.9 82.1 C 68.6 82.1 67.7 81.9 66.6 81.9 C 65.6 82.0 64.6 82.3 63.6 82.0 C 62.6 81.7 60.6 82.0 59.3 82.2 C 58.1 82.3 56.7 82.3 55.7 82.2 C 53.8 82.0 49.1 82.4 48.4 82.2 C 47.7 82.0 45.6 82.2 44.8 82.2 C 44.0 82.2 43.6 82.0 42.1 82.0 C 42.1 82.0 42.1 82.0 42.1 82.0 Z M 98.7 84.5 C 100.3 84.5 100.5 82.0 98.6 82.0 C 96.7 82.1 93.4 82.3 92.6 82.2 C 91.8 82.2 88.3 82.0 87.6 82.0 C 86.9 82.0 84.3 82.4 82.8 82.2 C 81.3 82.0 79.8 82.4 78.8 82.3 C 77.5 82.1 76.8 82.3 75.8 82.3 C 74.9 82.4 73.4 81.9 72.5 82.1 C 71.7 82.3 71.2 82.1 70.1 82.1 C 68.9 82.1 68.9 84.5 70.0 84.5 C 71.1 84.5 72.0 84.5 73.1 84.4 C 74.2 84.3 75.5 84.3 76.7 84.3 C 77.8 84.3 79.4 84.6 80.6 84.4 C 81.8 84.3 83.6 84.2 84.4 84.2 C 85.3 84.2 87.2 84.2 88.0 84.1 C 89.1 83.9 90.9 84.2 91.6 84.4 C 92.3 84.6 92.7 84.3 94.2 84.4 C 95.1 84.4 97.0 84.5 98.7 84.5 C 98.7 84.5 98.7 84.5 98.7 84.5 Z M 99.1 84.5 C 101.0 84.5 103.5 84.1 104.1 84.0 C 104.7 84.0 106.5 84.0 107.3 83.9 C 108.1 83.7 108.4 83.5 109.7 83.2 C 111.3 82.8 112.5 82.5 112.6 82.5 C 113.0 82.5 114.0 82.3 115.2 81.5 C 116.8 80.4 117.3 80.2 117.9 79.5 C 118.8 78.4 119.1 78.4 119.7 77.6 C 120.4 76.7 120.9 76.2 121.2 75.3 C 121.6 74.4 122.2 73.9 122.6 73.1 C 123.1 71.8 120.7 71.1 120.3 72.2 C 120.0 72.8 119.9 73.5 119.6 74.1 C 119.2 74.8 118.8 75.3 118.2 75.8 C 117.7 76.3 116.8 77.5 115.8 78.2 C 114.8 79.0 113.1 79.9 111.8 80.5 C 110.5 81.0 110.2 81.8 107.7 81.8 C 106.9 81.8 105.2 82.0 104.5 82.1 C 103.2 82.2 100.4 82.0 99.0 82.0 C 97.3 82.1 97.3 84.5 99.1 84.5 C 99.1 84.5 99.1 84.5 99.1 84.5 Z M 124.4 44.9 C 124.4 43.6 121.9 43.4 121.9 44.9 C 121.9 46.4 122.2 49.2 122.1 50.1 C 122.1 50.9 121.9 54.3 121.9 55.1 C 121.9 55.8 122.3 59.5 122.0 61.2 C 121.8 62.8 122.1 64.2 122.0 65.1 C 121.8 66.2 121.8 66.8 121.8 67.6 C 121.7 68.4 121.0 69.4 121.0 70.1 C 121.1 70.7 120.8 70.9 120.4 71.9 C 120.0 72.9 122.2 74.0 122.6 72.9 C 123.1 71.8 123.2 71.0 123.4 70.2 C 123.5 69.3 123.7 68.2 123.8 67.1 C 123.9 66.2 124.3 64.8 124.2 63.5 C 124.1 62.3 124.1 60.2 124.1 59.3 C 124.1 58.2 124.1 55.4 124.0 54.6 C 123.8 53.6 124.1 51.7 124.3 51.1 C 124.5 50.4 124.2 49.9 124.3 48.4 C 124.3 47.6 124.4 46.2 124.4 44.9 C 124.4 44.9 124.4 44.9 124.4 44.9 Z M 124.4 44.5 C 124.4 43.0 124.1 40.6 124.1 40.0 C 124.1 39.4 124.2 37.5 124.2 36.1 C 124.1 34.8 124.0 34.4 123.9 32.5 C 123.8 30.1 124.0 28.9 124.0 28.8 C 124.1 28.5 124.3 27.5 124.1 26.3 C 123.9 24.7 124.0 24.2 123.8 23.5 C 123.3 22.4 123.5 22.3 123.2 21.5 C 123.0 20.6 122.9 19.9 122.4 19.2 C 121.8 18.3 121.8 17.6 121.3 16.8 C 120.5 15.6 118.6 17.1 119.2 18.1 C 119.6 18.7 120.1 19.2 120.4 19.9 C 120.8 20.5 120.9 21.1 121.0 21.7 C 121.0 22.4 121.5 23.5 121.6 24.6 C 121.7 25.6 121.7 27.4 121.8 28.8 C 121.9 30.3 122.5 31.0 122.1 35.1 C 122.0 36.4 122.1 38.6 122.1 39.4 C 122.1 40.8 122.0 43.5 122.0 44.6 C 122.0 46.0 124.4 46.0 124.4 44.5 C 124.4 44.5 124.4 44.5 124.4 44.5 Z M 95.3 7.8 C 94.4 7.8 94.2 8.4 94.2 9.0 C 94.2 9.6 94.2 10.3 95.3 10.3 C 97.5 10.3 100.9 10.1 101.7 10.1 C 102.6 10.2 105.8 10.5 106.4 10.6 C 107.0 10.7 109.1 10.6 110.1 11.1 C 111.2 11.6 112.6 11.7 113.4 12.3 C 114.4 13.0 115.0 13.2 115.7 13.8 C 116.5 14.3 117.1 15.6 117.8 16.1 C 118.4 16.5 118.5 17.0 119.1 17.9 C 119.7 18.8 121.8 17.6 121.2 16.6 C 120.6 15.7 119.9 14.9 119.1 14.1 C 118.3 13.3 117.2 12.4 116.2 11.7 C 115.3 11.0 113.9 9.9 112.6 9.6 C 111.3 9.2 109.9 9.0 109.3 8.9 C 108.6 8.7 107.0 8.4 106.2 8.5 C 105.3 8.6 103.5 8.2 102.8 8.0 C 102.2 7.8 101.7 8.0 100.0 8.0 C 98.9 7.9 97.2 7.8 95.3 7.8 C 95.3 7.8 95.3 7.8 95.3 7.8 Z M 95.1 10.3 C 96.8 10.3 96.2 7.8 94.9 7.8 C 93.4 7.8 90.3 8.3 89.4 8.2 C 88.6 8.1 86.3 7.7 85.6 7.7 C 84.9 7.7 81.4 8.4 79.9 8.2 C 78.4 8.0 78.0 8.1 76.9 8.1 C 75.9 8.1 74.2 8.3 73.3 8.3 C 72.3 8.4 71.4 7.7 70.1 7.9 C 68.8 8.1 68.1 7.8 67.2 7.8 C 65.8 7.8 65.9 10.3 67.2 10.3 C 68.5 10.3 69.4 10.4 70.5 10.4 C 71.6 10.3 72.5 10.1 73.5 10.3 C 74.6 10.6 76.6 10.3 77.8 10.1 C 79.0 10.0 80.4 10.0 81.4 10.2 C 83.3 10.4 88.0 9.9 88.7 10.1 C 89.4 10.3 91.5 10.1 92.3 10.1 C 93.1 10.1 92.8 10.3 95.1 10.3 C 95.1 10.3 95.1 10.3 95.1 10.3 Z M 66.9 7.8 C 65.4 7.8 63.0 8.1 62.4 8.1 C 61.8 8.1 59.8 8.0 58.8 8.0 C 57.9 8.1 57.6 8.3 56.0 8.3 C 54.0 8.4 52.7 8.1 52.6 8.1 C 52.3 8.0 51.3 7.8 50.0 7.8 C 48.2 7.9 47.7 7.7 46.9 7.8 C 45.5 8.1 45.4 7.8 44.3 7.9 C 43.3 7.9 42.6 7.8 41.8 8.0 C 40.9 8.1 40.2 7.8 39.4 7.8 C 38.0 7.8 38.2 10.3 39.4 10.3 C 40.2 10.3 40.8 10.0 41.6 10.0 C 42.4 10.0 43.1 10.1 43.9 10.2 C 44.7 10.3 46.3 10.1 47.6 10.2 C 48.9 10.2 51.1 10.4 52.6 10.3 C 54.1 10.3 55.0 9.7 58.0 10.1 C 59.0 10.2 61.0 10.1 61.8 10.1 C 63.2 10.1 65.9 10.3 67.0 10.3 C 68.4 10.3 68.4 7.8 66.9 7.8 C 66.9 7.8 66.9 7.8 66.9 7.8 Z M 12.4 14.8 C 11.6 15.9 13.4 17.5 14.3 16.4 C 15.2 15.3 17.1 13.5 17.7 13.1 C 18.4 12.7 21.3 11.5 21.9 11.4 C 22.4 11.2 24.3 10.4 25.5 10.5 C 26.8 10.5 28.0 10.1 29.1 10.1 C 30.3 10.2 31.1 10.1 32.2 10.0 C 33.3 9.9 35.3 10.4 36.4 10.2 C 37.6 10.0 38.0 10.3 39.1 10.3 C 40.3 10.3 40.3 7.8 39.2 7.8 C 38.1 7.8 37.1 7.9 35.6 7.9 C 34.1 8.0 32.5 8.0 31.2 8.0 C 30.0 8.1 28.3 7.8 27.2 8.1 C 26.0 8.3 24.5 8.6 23.9 8.7 C 23.2 8.8 21.6 9.1 20.9 9.5 C 20.1 9.9 18.2 10.5 17.4 10.7 C 16.7 10.9 16.4 11.4 15.2 12.3 C 14.5 12.9 13.3 13.8 12.4 14.8 C 12.4 14.8 12.4 14.8 12.4 14.8 Z M 12.2 15.2 C 11.2 16.4 10.3 18.9 10.0 19.5 C 9.8 20.1 9.1 21.7 9.0 22.5 C 8.9 23.3 9.0 23.6 8.8 24.9 C 8.7 26.6 8.4 27.9 8.4 28.0 C 8.3 28.2 8.0 29.1 8.0 30.6 C 8.1 32.6 7.8 33.3 7.9 34.4 C 8.2 36.1 8.0 36.6 8.0 37.7 C 8.1 38.7 8.0 39.4 8.1 40.2 C 8.2 41.1 7.9 41.8 7.9 42.6 C 7.9 44.0 10.4 43.8 10.4 42.6 C 10.4 41.8 10.1 41.1 10.1 40.4 C 10.1 39.6 10.2 38.9 10.3 38.1 C 10.4 37.3 10.2 35.0 10.3 33.4 C 10.4 31.8 10.5 29.5 10.6 28.1 C 10.6 26.7 10.0 25.8 10.8 23.5 C 11.1 22.8 11.3 21.4 11.6 20.7 C 12.1 19.5 13.5 17.4 14.2 16.6 C 15.0 15.6 13.1 13.9 12.2 15.2 C 12.2 15.2 12.2 15.2 12.2 15.2 Z M 9.1 71.0 C 9.3 72.1 11.7 71.5 11.4 70.4 C 11.1 69.2 10.5 67.1 10.5 66.4 C 10.5 65.7 10.5 62.5 10.5 61.7 C 10.4 60.9 10.1 57.9 10.3 55.8 C 10.5 53.6 10.1 52.6 10.2 51.6 C 10.3 50.3 10.2 49.6 10.1 48.7 C 10.1 47.7 10.6 46.2 10.4 45.3 C 10.1 44.5 10.4 44.0 10.4 42.9 C 10.4 41.7 8.0 41.7 8.0 42.8 C 8.0 43.9 8.0 44.9 8.0 45.9 C 8.1 47.0 8.1 48.3 8.1 49.5 C 8.1 50.6 7.8 52.2 8.0 53.4 C 8.1 54.7 8.2 57.0 8.2 57.9 C 8.3 59.1 8.2 61.3 8.4 62.2 C 8.6 63.3 8.4 65.1 8.3 65.7 C 8.1 66.4 8.4 66.8 8.6 68.0 C 8.7 68.8 8.8 69.9 9.1 71.0 C 9.1 71.0 9.1 71.0 9.1 71.0 Z M 9.2 71.3 C 9.5 72.6 11.1 74.9 11.4 75.5 C 11.7 76.0 12.9 77.8 13.6 78.5 C 14.3 79.1 14.7 79.3 16.0 80.2 C 17.7 81.4 18.9 82.1 19.0 82.2 C 19.2 82.4 20.2 83.1 21.3 83.3 C 22.8 83.6 23.2 83.9 23.8 83.9 C 25.0 83.8 25.1 84.1 26.1 84.1 C 27.0 84.2 27.6 84.3 28.4 84.2 C 29.3 84.1 30.0 84.5 31.0 84.5 C 32.4 84.5 32.3 82.0 31.0 82.0 C 30.1 82.0 29.4 82.2 28.7 82.2 C 27.9 82.2 27.3 82.1 26.6 81.9 C 25.9 81.7 24.6 81.7 23.6 81.5 C 22.7 81.2 21.2 80.7 19.9 80.2 C 18.6 79.6 17.4 79.8 15.6 77.5 C 15.0 76.8 13.7 75.5 13.3 74.9 C 12.6 73.8 11.7 71.4 11.5 70.6 C 11.2 69.5 8.8 70.1 9.2 71.3 C 9.2 71.3 9.2 71.3 9.2 71.3 Z M 37.3 85.2 C 37.3 85.2 37.3 85.1 37.3 83.7 C 37.3 82.4 37.3 81.3 37.3 81.3 C 37.3 81.3 37.3 82.1 37.3 82.1 C 37.2 82.1 37.2 84.5 37.3 84.5 C 37.3 84.5 37.3 85.2 37.3 85.2 C 37.3 85.2 37.3 85.2 37.3 85.2 Z M 37.2 81.3 C 37.2 81.3 37.2 82.0 37.2 83.3 C 37.2 84.6 37.2 85.2 37.2 85.2 C 37.2 85.2 37.2 84.5 37.2 84.5 C 37.3 84.5 37.3 82.1 37.2 82.1 C 37.2 82.1 37.2 81.3 37.2 81.3 C 37.2 81.3 37.2 81.3 37.2 81.3 Z M 37.2 81.3 " fill="#FF7777"></path><g><clipPath id="clip-72"><path d="M 9.2 9.0 L 123.2 9.0 L 123.2 83.3 L 9.2 83.3 Z M 9.2 9.0 "></path></clipPath><g clip-path="url(#clip-72)"><text xml:space="preserve" font-family="AmericanTypewriter" font-size="20.0" fill="#000000" transform="matrix(1.00, 0.00, -0.00, -1.00, 49.0, 39.0)">V</text><text xml:space="preserve" font-family="AmericanTypewriter" font-size="20.0" fill="#000000" transform="matrix(1.00, 0.00, -0.00, -1.00, 63.6, 39.0)">M</text></g></g></g></svg>