<?xml version="1.0" encoding="UTF-8" standalone="no"?><svg xmlns="http://www.w3.org/2000/svg" xmlns:xlink="http://www.w3.org/1999/xlink" clip-rule="evenodd" stroke-miterlimit="4.00" viewBox="0 0 124 83"><desc>SVG generated by Keynote</desc><defs></defs><g transform="matrix(1.00, 0.00, -0.00, -1.00, 0.0, 83.0)"><path d="M 32.6 78.9 L 90.6 78.9 C 98.6 78.9 102.7 78.9 107.0 77.5 C 111.7 75.8 115.5 72.0 117.2 67.3 C 118.6 62.9 118.6 58.9 118.6 50.7 L 118.6 32.6 C 118.6 24.6 118.6 20.5 117.2 16.2 C 115.5 11.4 111.7 7.7 107.0 6.0 C 102.7 4.6 98.6 4.6 90.4 4.6 L 32.6 4.6 C 24.6 4.6 20.5 4.6 16.1 6.0 C 11.4 7.7 7.7 11.4 5.9 16.2 C 4.6 20.5 4.6 24.6 4.6 32.8 L 4.6 50.8 C 4.6 58.9 4.6 62.9 5.9 67.3 C 7.7 72.0 11.4 75.8 16.1 77.5 C 20.5 78.9 24.6 78.9 32.7 78.9 Z M 32.6 78.9 " fill="#DDF3D0"></path><path d="M 33.3 76.9 C 32.4 76.9 31.1 77.1 31.0 78.4 C 30.8 79.8 31.8 80.8 33.2 80.8 C 34.5 80.8 34.1 80.1 37.3 80.1 C 38.5 80.1 38.6 77.6 37.4 77.6 C 34.5 77.6 34.9 76.9 33.3 76.9 C 33.3 76.9 33.3 76.9 33.3 76.9 Z M 31.6 80.8 C 32.0 80.8 32.4 80.8 32.7 80.7 L 32.7 77.0 C 31.7 77.2 31.2 77.8 31.2 78.8 C 31.2 79.9 31.7 80.5 32.7 80.7 L 32.7 77.0 C 32.4 76.9 32.0 76.9 31.6 76.9 C 29.5 76.9 29.5 77.7 26.8 77.6 C 25.3 77.5 25.5 80.0 26.7 80.0 C 29.6 80.1 29.3 80.8 31.6 80.8 C 31.6 80.8 31.6 80.8 31.6 80.8 Z M 37.5 77.6 C 36.3 77.6 36.3 80.1 37.6 80.1 C 39.1 80.1 42.2 79.6 43.1 79.7 C 43.9 79.7 46.2 80.2 46.9 80.2 C 47.6 80.2 51.1 79.5 52.6 79.7 C 54.1 79.9 54.6 79.8 55.6 79.8 C 56.6 79.8 58.3 79.6 59.3 79.6 C 60.2 79.5 61.1 80.2 62.4 80.0 C 63.7 79.8 64.4 80.1 65.3 80.1 C 66.7 80.1 66.6 77.6 65.3 77.6 C 64.0 77.6 63.1 77.5 62.0 77.5 C 61.0 77.6 60.0 77.8 59.0 77.6 C 58.0 77.3 56.0 77.6 54.7 77.8 C 53.5 77.9 52.1 77.8 51.1 77.7 C 49.2 77.5 44.5 78.0 43.8 77.8 C 43.1 77.6 41.0 77.8 40.2 77.8 C 39.5 77.8 39.0 77.6 37.5 77.6 C 37.5 77.6 37.5 77.6 37.5 77.6 Z M 94.1 80.1 C 95.7 80.1 95.9 77.6 94.0 77.6 C 92.2 77.6 88.8 77.9 88.0 77.8 C 87.2 77.8 83.7 77.6 83.0 77.6 C 82.3 77.6 79.7 78.0 78.2 77.8 C 76.7 77.6 75.2 78.0 74.2 77.9 C 72.9 77.7 72.2 77.9 71.3 77.9 C 70.3 78.0 68.8 77.5 67.9 77.7 C 67.1 77.9 66.6 77.6 65.5 77.6 C 64.3 77.6 64.3 80.1 65.4 80.1 C 66.5 80.1 67.4 80.0 68.5 80.0 C 69.6 79.9 70.9 79.9 72.1 79.9 C 73.2 79.9 74.8 80.2 76.0 80.0 C 77.3 79.9 79.1 79.8 79.8 79.8 C 80.7 79.8 82.6 79.8 83.4 79.7 C 84.5 79.5 86.3 79.8 87.0 80.0 C 87.7 80.2 88.1 79.9 89.6 79.9 C 90.5 80.0 92.4 80.1 94.1 80.1 C 94.1 80.1 94.1 80.1 94.1 80.1 Z M 94.6 80.1 C 96.4 80.1 98.9 79.7 99.5 79.6 C 100.1 79.6 101.9 79.6 102.7 79.5 C 103.6 79.3 103.8 79.1 105.1 78.8 C 106.7 78.3 107.9 78.1 108.1 78.1 C 108.4 78.0 109.4 77.9 110.6 77.1 C 112.2 76.0 112.7 75.8 113.3 75.1 C 114.2 73.9 114.5 74.0 115.1 73.1 C 115.8 72.3 116.3 71.7 116.6 70.9 C 117.0 70.0 117.6 69.5 118.0 68.7 C 118.5 67.4 116.2 66.7 115.7 67.8 C 115.4 68.4 115.4 69.1 115.0 69.7 C 114.6 70.4 114.2 70.9 113.6 71.4 C 113.1 71.9 112.2 73.1 111.2 73.8 C 110.2 74.5 108.5 75.5 107.2 76.0 C 105.9 76.6 105.6 77.3 103.1 77.3 C 102.3 77.3 100.7 77.6 99.9 77.7 C 98.6 77.7 95.8 77.6 94.4 77.6 C 92.7 77.6 92.7 80.1 94.6 80.1 C 94.6 80.1 94.6 80.1 94.6 80.1 Z M 119.8 40.5 C 119.8 39.2 117.4 39.0 117.4 40.5 C 117.4 42.0 117.6 44.8 117.5 45.6 C 117.5 46.5 117.3 49.9 117.3 50.6 C 117.3 51.4 117.7 55.1 117.5 56.7 C 117.2 58.4 117.6 59.8 117.4 60.7 C 117.2 61.8 117.2 62.4 117.2 63.2 C 117.1 64.0 116.4 65.0 116.4 65.6 C 116.5 66.3 116.2 66.5 115.8 67.5 C 115.4 68.5 117.6 69.6 118.0 68.5 C 118.5 67.4 118.6 66.6 118.8 65.7 C 119.0 64.8 119.1 63.7 119.2 62.7 C 119.3 61.8 119.8 60.3 119.7 59.1 C 119.6 57.8 119.5 55.8 119.5 54.9 C 119.5 53.8 119.5 51.0 119.4 50.2 C 119.2 49.1 119.5 47.3 119.7 46.6 C 119.9 46.0 119.6 45.5 119.7 44.0 C 119.7 43.2 119.8 41.8 119.8 40.5 C 119.8 40.5 119.8 40.5 119.8 40.5 Z M 119.8 40.1 C 119.8 38.6 119.5 36.1 119.5 35.5 C 119.5 34.9 119.7 33.1 119.6 31.7 C 119.6 30.4 119.4 29.9 119.3 28.0 C 119.2 25.7 119.4 24.4 119.4 24.3 C 119.5 24.1 119.7 23.1 119.5 21.9 C 119.3 20.2 119.4 19.8 119.2 19.1 C 118.7 18.0 118.9 17.9 118.6 17.0 C 118.4 16.2 118.3 15.5 117.8 14.7 C 117.3 13.9 117.2 13.1 116.7 12.4 C 116.0 11.2 114.0 12.7 114.6 13.7 C 115.0 14.3 115.5 14.8 115.9 15.4 C 116.2 16.1 116.3 16.7 116.4 17.3 C 116.4 17.9 116.9 19.1 117.0 20.1 C 117.1 21.2 117.1 23.0 117.2 24.4 C 117.3 25.9 117.9 26.6 117.6 30.7 C 117.4 32.0 117.5 34.2 117.5 35.0 C 117.5 36.4 117.4 39.1 117.4 40.2 C 117.4 41.6 119.8 41.6 119.8 40.1 C 119.8 40.1 119.8 40.1 119.8 40.1 Z M 90.7 3.4 C 89.8 3.4 89.6 4.0 89.6 4.6 C 89.6 5.2 89.6 5.8 90.7 5.8 C 93.0 5.8 96.3 5.6 97.2 5.7 C 98.0 5.8 101.2 6.1 101.8 6.2 C 102.4 6.2 104.5 6.2 105.5 6.7 C 106.6 7.2 108.0 7.3 108.8 7.9 C 109.8 8.6 110.4 8.8 111.1 9.4 C 111.9 9.9 112.5 11.2 113.2 11.6 C 113.8 12.1 113.9 12.6 114.5 13.5 C 115.1 14.4 117.2 13.2 116.6 12.2 C 116.0 11.2 115.3 10.5 114.5 9.7 C 113.7 8.9 112.6 8.0 111.6 7.3 C 110.7 6.6 109.3 5.5 108.0 5.1 C 106.7 4.8 105.4 4.5 104.8 4.4 C 104.0 4.3 102.4 4.0 101.6 4.1 C 100.7 4.2 98.9 3.8 98.3 3.6 C 97.6 3.3 97.1 3.6 95.4 3.5 C 94.4 3.5 92.6 3.4 90.7 3.4 C 90.7 3.4 90.7 3.4 90.7 3.4 Z M 90.5 5.9 C 92.2 5.9 91.7 3.4 90.3 3.4 C 88.8 3.4 85.7 3.8 84.9 3.8 C 84.0 3.7 81.7 3.3 81.0 3.3 C 80.3 3.3 76.8 4.0 75.3 3.8 C 73.8 3.6 73.4 3.7 72.3 3.7 C 71.3 3.7 69.7 3.8 68.7 3.9 C 67.7 3.9 66.8 3.3 65.5 3.5 C 64.2 3.6 63.5 3.4 62.7 3.4 C 61.2 3.4 61.3 5.8 62.6 5.8 C 63.9 5.8 64.8 6.0 65.9 5.9 C 67.0 5.9 67.9 5.6 68.9 5.9 C 70.0 6.1 72.0 5.9 73.2 5.7 C 74.4 5.6 75.8 5.6 76.8 5.7 C 78.8 5.9 83.5 5.5 84.1 5.7 C 84.8 5.9 87.0 5.7 87.7 5.7 C 88.5 5.7 88.2 5.9 90.5 5.9 C 90.5 5.9 90.5 5.9 90.5 5.9 Z M 62.3 3.4 C 60.8 3.4 58.4 3.7 57.8 3.7 C 57.2 3.7 55.2 3.5 54.2 3.6 C 53.3 3.6 53.0 3.8 51.4 3.9 C 49.4 3.9 48.1 3.7 48.0 3.7 C 47.7 3.6 46.7 3.3 45.4 3.4 C 43.6 3.5 43.1 3.3 42.3 3.4 C 40.9 3.7 40.8 3.4 39.7 3.5 C 38.7 3.5 38.0 3.4 37.2 3.5 C 36.3 3.7 35.6 3.4 34.8 3.4 C 33.4 3.4 33.6 5.8 34.8 5.8 C 35.6 5.8 36.3 5.6 37.0 5.6 C 37.8 5.6 38.5 5.6 39.3 5.7 C 40.1 5.8 41.8 5.7 43.0 5.7 C 44.3 5.8 46.5 5.9 48.0 5.9 C 49.5 5.8 50.4 5.3 53.5 5.6 C 54.4 5.8 56.4 5.7 57.2 5.7 C 58.6 5.7 61.3 5.8 62.5 5.8 C 63.8 5.8 63.8 3.4 62.3 3.4 C 62.3 3.4 62.3 3.4 62.3 3.4 Z M 7.8 10.4 C 7.0 11.5 8.8 13.1 9.7 12.0 C 10.6 10.9 12.5 9.0 13.2 8.7 C 13.8 8.3 16.7 7.1 17.3 7.0 C 17.8 6.8 19.7 6.0 20.9 6.1 C 22.2 6.1 23.5 5.6 24.5 5.7 C 25.7 5.8 26.5 5.7 27.6 5.6 C 28.7 5.5 30.7 6.0 31.8 5.8 C 33.0 5.6 33.4 5.8 34.5 5.8 C 35.7 5.8 35.7 3.4 34.6 3.4 C 33.5 3.4 32.5 3.4 31.0 3.5 C 29.5 3.5 27.9 3.6 26.6 3.6 C 25.4 3.6 23.8 3.4 22.6 3.6 C 21.5 3.9 19.9 4.1 19.3 4.3 C 18.6 4.4 17.0 4.7 16.3 5.1 C 15.5 5.5 13.6 6.1 12.9 6.3 C 12.1 6.5 11.8 7.0 10.6 7.9 C 9.9 8.4 8.7 9.4 7.8 10.4 C 7.8 10.4 7.8 10.4 7.8 10.4 Z M 7.6 10.8 C 6.6 12.0 5.7 14.5 5.4 15.1 C 5.2 15.6 4.5 17.3 4.4 18.1 C 4.3 18.9 4.4 19.1 4.3 20.5 C 4.1 22.2 3.8 23.5 3.8 23.5 C 3.7 23.8 3.4 24.7 3.4 26.2 C 3.5 28.2 3.3 28.9 3.4 29.9 C 3.6 31.7 3.4 32.2 3.4 33.3 C 3.5 34.3 3.4 35.0 3.5 35.8 C 3.7 36.7 3.3 37.4 3.4 38.2 C 3.4 39.5 5.8 39.4 5.8 38.2 C 5.8 37.4 5.5 36.7 5.5 35.9 C 5.5 35.1 5.6 34.4 5.7 33.7 C 5.8 32.9 5.6 30.6 5.7 29.0 C 5.8 27.4 6.0 25.1 6.0 23.7 C 6.0 22.3 5.4 21.4 6.3 19.1 C 6.5 18.4 6.7 17.0 7.0 16.3 C 7.5 15.1 8.9 13.0 9.6 12.2 C 10.4 11.2 8.6 9.5 7.6 10.8 C 7.6 10.8 7.6 10.8 7.6 10.8 Z M 4.5 66.6 C 4.8 67.7 7.1 67.1 6.8 66.0 C 6.5 64.8 6.0 62.7 5.9 62.0 C 5.9 61.3 5.9 58.0 5.9 57.3 C 5.8 56.5 5.5 53.5 5.7 51.3 C 5.9 49.2 5.5 48.2 5.6 47.2 C 5.7 45.9 5.6 45.2 5.5 44.2 C 5.5 43.3 6.0 41.8 5.8 40.9 C 5.6 40.1 5.8 39.6 5.8 38.5 C 5.8 37.3 3.4 37.3 3.4 38.4 C 3.4 39.5 3.4 40.4 3.5 41.5 C 3.5 42.6 3.5 43.9 3.5 45.1 C 3.5 46.2 3.2 47.8 3.4 49.0 C 3.6 50.2 3.6 52.6 3.6 53.5 C 3.7 54.7 3.6 56.9 3.8 57.8 C 4.0 58.9 3.8 60.7 3.7 61.3 C 3.5 62.0 3.8 62.4 4.0 63.6 C 4.1 64.4 4.2 65.5 4.5 66.6 C 4.5 66.6 4.5 66.6 4.5 66.6 Z M 4.6 66.9 C 4.9 68.2 6.5 70.5 6.8 71.0 C 7.1 71.6 8.3 73.4 9.0 74.0 C 9.7 74.7 10.1 74.8 11.4 75.8 C 13.1 76.9 14.3 77.7 14.4 77.8 C 14.6 78.0 15.6 78.7 16.7 78.9 C 18.2 79.2 18.6 79.5 19.3 79.5 C 20.5 79.4 20.5 79.7 21.5 79.7 C 22.4 79.8 23.0 79.9 23.8 79.8 C 24.8 79.7 25.4 80.0 26.4 80.0 C 27.8 80.1 27.7 77.6 26.4 77.6 C 25.5 77.6 24.8 77.8 24.1 77.8 C 23.3 77.7 22.7 77.6 22.0 77.5 C 21.4 77.3 20.0 77.3 19.1 77.1 C 18.1 76.8 16.6 76.3 15.3 75.8 C 14.0 75.2 12.8 75.3 11.0 73.1 C 10.4 72.4 9.2 71.1 8.7 70.5 C 8.0 69.4 7.1 67.0 6.9 66.1 C 6.6 65.1 4.2 65.7 4.6 66.9 C 4.6 66.9 4.6 66.9 4.6 66.9 Z M 32.7 80.8 C 32.7 80.8 32.7 80.6 32.7 79.3 C 32.7 78.0 32.7 76.9 32.7 76.9 C 32.7 76.9 32.7 77.6 32.7 77.6 C 32.6 77.6 32.6 80.1 32.7 80.1 C 32.7 80.1 32.7 80.8 32.7 80.8 C 32.7 80.8 32.7 80.8 32.7 80.8 Z M 32.6 76.9 C 32.6 76.9 32.6 77.5 32.6 78.8 C 32.6 80.2 32.6 80.8 32.6 80.8 C 32.6 80.8 32.6 80.1 32.7 80.1 C 32.7 80.1 32.7 77.7 32.7 77.7 C 32.6 77.7 32.6 76.9 32.6 76.9 C 32.6 76.9 32.6 76.9 32.6 76.9 Z M 32.6 76.9 " fill="#FF7777"></path><g><clipPath id="clip-89"><path d="M 4.6 4.6 L 118.6 4.6 L 118.6 78.9 L 4.6 78.9 Z M 4.6 4.6 "></path></clipPath><g clip-path="url(#clip-89)"><text xml:space="preserve" font-family="AmericanTypewriter" font-size="20.0" fill="#000000" transform="matrix(1.00, 0.00, -0.00, -1.00, 45.0, 35.0)">V</text><text xml:space="preserve" font-family="AmericanTypewriter" font-size="20.0" fill="#000000" transform="matrix(1.00, 0.00, -0.00, -1.00, 59.6, 35.0)">M</text></g></g></g></svg>