<?xml version="1.0" encoding="UTF-8" standalone="no"?><svg xmlns="http://www.w3.org/2000/svg" xmlns:xlink="http://www.w3.org/1999/xlink" clip-rule="evenodd" stroke-miterlimit="4.00" viewBox="0 0 603 192"><desc>SVG generated by Keynote</desc><defs><pattern id="6BB65113-3871-46BF-AFC1-61CA3F5DDB12" patternUnits="userSpaceOnUse" width="400" height="400" viewBox="0 0 400 400" patternTransform="matrix(1.000000, 0.000000, 0.000000, -1.000000, 2.000000, 104.000000)"><image xlink:href="../../DBD367A3-D10B-4655-877C-4BCDAAFCFA3E/assets/FF12AB0386DEC36020066F1246429BA7.jpeg" width="400.00" height="400.00"></image></pattern><pattern id="5A14B827-3DD0-4074-8216-7A61AB4F9D37" patternUnits="userSpaceOnUse" width="400" height="400" viewBox="0 0 400 400" patternTransform="matrix(1.000000, 0.000000, 0.000000, -1.000000, 2.000000, 31.000000)"><image xlink:href="../../DBD367A3-D10B-4655-877C-4BCDAAFCFA3E/assets/FF12AB0386DEC36020066F1246429BA7.jpeg" width="400.00" height="400.00"></image></pattern></defs><g transform="matrix(1.00, 0.00, -0.00, -1.00, 0.0, 192.0)"><g><clipPath id="clip-1226"><path d="M 2.0 177.0 L 232.0 177.0 L 232.0 161.0 L 2.0 161.0 Z M 2.0 177.0 "></path></clipPath><g clip-path="url(#clip-1226)"><g><clipPath id="clip-1227"><path d="M 1.7 -259.6 L 652.1 -259.6 L 652.1 180.9 L 1.7 180.9 Z M 1.7 -259.6 "></path></clipPath><g clip-path="url(#clip-1227)"><image xlink:href="../../DBD367A3-D10B-4655-877C-4BCDAAFCFA3E/assets/FF12AB0386DEC36020066F1246429BA7.jpeg" width="400.00" height="400.00" transform="matrix(1.00, 0.00, -0.00, -1.00, 2.0, 177.0)"></image></g></g></g></g><g><clipPath id="clip-1228"><path d="M 2.0 104.0 L 530.0 104.0 L 530.0 88.0 L 2.0 88.0 Z M 2.0 104.0 "></path></clipPath><g clip-path="url(#clip-1228)"><g><clipPath id="clip-1229"><path d="M 1.7 -259.6 L 652.1 -259.6 L 652.1 180.9 L 1.7 180.9 Z M 1.7 -259.6 "></path></clipPath><g clip-path="url(#clip-1229)"><path d="M 2.0 88.0 L 530.0 88.0 L 530.0 104.0 L 2.0 104.0 Z M 2.0 88.0 " fill="url(#6BB65113-3871-46BF-AFC1-61CA3F5DDB12)"></path></g></g></g></g><g><clipPath id="clip-1230"><path d="M 2.0 31.0 L 535.0 31.0 L 535.0 15.0 L 2.0 15.0 Z M 2.0 31.0 "></path></clipPath><g clip-path="url(#clip-1230)"><g><clipPath id="clip-1231"><path d="M 1.7 -259.6 L 652.1 -259.6 L 652.1 180.9 L 1.7 180.9 Z M 1.7 -259.6 "></path></clipPath><g clip-path="url(#clip-1231)"><path d="M 2.0 15.0 L 535.0 15.0 L 535.0 31.0 L 2.0 31.0 Z M 2.0 15.0 " fill="url(#5A14B827-3DD0-4074-8216-7A61AB4F9D37)"></path></g></g></g></g><g><g><clipPath id="clip-1232"><path d="M 537.0 1.0 L 601.0 1.0 L 601.0 45.0 L 537.0 45.0 Z M 537.0 1.0 "></path></clipPath><g clip-path="url(#clip-1232)"><text xml:space="preserve" font-family="Chalkduster" font-size="30.0" fill="#FEFFFE" transform="matrix(1.00, 0.00, -0.00, -1.00, 538.0, 10.0)">4</text><text xml:space="preserve" font-family="Chalkduster" font-size="30.0" fill="#FEFFFE" transform="matrix(1.00, 0.00, -0.00, -1.00, 565.5, 10.0)">9</text><text xml:space="preserve" font-family="Chalkduster" font-size="30.0" fill="#FEFFFE" transform="matrix(1.00, 0.00, -0.00, -1.00, 583.6, 10.0)">2</text></g></g></g><g><g><clipPath id="clip-1233"><path d="M 531.0 74.0 L 602.0 74.0 L 602.0 118.0 L 531.0 118.0 Z M 531.0 74.0 "></path></clipPath><g clip-path="url(#clip-1233)"><text xml:space="preserve" font-family="Chalkduster" font-size="30.0" fill="#FEFFFE" transform="matrix(1.00, 0.00, -0.00, -1.00, 532.0, 83.0)">4</text><text xml:space="preserve" font-family="Chalkduster" font-size="30.0" fill="#FEFFFE" transform="matrix(1.00, 0.00, -0.00, -1.00, 559.5, 83.0)">8</text><text xml:space="preserve" font-family="Chalkduster" font-size="30.0" fill="#FEFFFE" transform="matrix(1.00, 0.00, -0.00, -1.00, 583.6, 83.0)">7</text></g></g></g><g><g><clipPath id="clip-1234"><path d="M 233.0 147.0 L 286.0 147.0 L 286.0 191.0 L 233.0 191.0 Z M 233.0 147.0 "></path></clipPath><g clip-path="url(#clip-1234)"><text xml:space="preserve" font-family="Chalkduster" font-size="30.0" fill="#FEFFFE" transform="matrix(1.00, 0.00, -0.00, -1.00, 234.0, 156.0)">2</text><text xml:space="preserve" font-family="Chalkduster" font-size="30.0" fill="#FEFFFE" transform="matrix(1.00, 0.00, -0.00, -1.00, 250.9, 156.0)">1</text><text xml:space="preserve" font-family="Chalkduster" font-size="30.0" fill="#FEFFFE" transform="matrix(1.00, 0.00, -0.00, -1.00, 268.4, 156.0)">2</text></g></g></g></g></svg>