<?xml version="1.0" encoding="UTF-8" standalone="no"?><svg xmlns="http://www.w3.org/2000/svg" xmlns:xlink="http://www.w3.org/1999/xlink" clip-rule="evenodd" stroke-miterlimit="4.00" viewBox="0 0 113 193"><desc>SVG generated by Keynote</desc><defs></defs><g transform="matrix(1.00, 0.00, -0.00, -1.00, 0.0, 193.0)"><g><g><clipPath id="clip-1262"><path d="M 47.0 1.0 L 110.0 1.0 L 110.0 46.0 L 47.0 46.0 Z M 47.0 1.0 "></path></clipPath><g clip-path="url(#clip-1262)"><text xml:space="preserve" font-family="Chalkduster" font-size="30.0" fill="#FEFFFE" transform="matrix(1.00, 0.00, -0.00, -1.00, 48.0, 10.0)">2</text><text xml:space="preserve" font-family="Chalkduster" font-size="30.0" fill="#FEFFFE" transform="matrix(1.00, 0.00, -0.00, -1.00, 64.9, 10.0)">0</text><text xml:space="preserve" font-family="Chalkduster" font-size="30.0" fill="#FEFFFE" transform="matrix(1.00, 0.00, -0.00, -1.00, 85.5, 10.0)">8</text></g></g></g><g><g><clipPath id="clip-1263"><path d="M 59.0 74.0 L 112.0 74.0 L 112.0 119.0 L 59.0 119.0 Z M 59.0 74.0 "></path></clipPath><g clip-path="url(#clip-1263)"><text xml:space="preserve" font-family="Chalkduster" font-size="30.0" fill="#FEFFFE" transform="matrix(1.00, 0.00, -0.00, -1.00, 60.0, 83.0)">2</text><text xml:space="preserve" font-family="Chalkduster" font-size="30.0" fill="#FEFFFE" transform="matrix(1.00, 0.00, -0.00, -1.00, 76.9, 83.0)">1</text><text xml:space="preserve" font-family="Chalkduster" font-size="30.0" fill="#FEFFFE" transform="matrix(1.00, 0.00, -0.00, -1.00, 93.4, 83.0)">9</text></g></g></g><g><g><clipPath id="clip-1264"><path d="M 1.0 147.0 L 60.0 147.0 L 60.0 192.0 L 1.0 192.0 Z M 1.0 147.0 "></path></clipPath><g clip-path="url(#clip-1264)"><text xml:space="preserve" font-family="Chalkduster" font-size="30.0" fill="#FEFFFE" transform="matrix(1.00, 0.00, -0.00, -1.00, 2.0, 156.0)">1</text><text xml:space="preserve" font-family="Chalkduster" font-size="30.0" fill="#FEFFFE" transform="matrix(1.00, 0.00, -0.00, -1.00, 18.6, 156.0)">6</text><text xml:space="preserve" font-family="Chalkduster" font-size="30.0" fill="#FEFFFE" transform="matrix(1.00, 0.00, -0.00, -1.00, 38.6, 156.0)">6</text></g></g></g></g></svg>