<?xml version="1.0" encoding="UTF-8" standalone="no"?><svg xmlns="http://www.w3.org/2000/svg" xmlns:xlink="http://www.w3.org/1999/xlink" clip-rule="evenodd" stroke-miterlimit="4.00" viewBox="0 0 833 523"><desc>SVG generated by Keynote</desc><defs><pattern id="49BCD2B7-23E3-490B-AD28-349A807DFDF9" patternUnits="userSpaceOnUse" width="400" height="400" viewBox="0 0 400 400" patternTransform="matrix(1.000000, 0.000000, 0.000000, -1.000000, 157.000000, 247.000000)"><image xlink:href="../../7BF7A3F1-4E92-4353-840D-A5596D217DCE/assets/CFA53D52FE8B7C3E70EDC25518D34A22.jpeg" width="400.00" height="400.00"></image></pattern><pattern id="CF1A5C33-5A82-4AFE-BDF0-286838764BF6" patternUnits="userSpaceOnUse" width="400" height="400" viewBox="0 0 400 400" patternTransform="matrix(1.000000, 0.000000, 0.000000, -1.000000, 157.000000, 174.000000)"><image xlink:href="../../7BF7A3F1-4E92-4353-840D-A5596D217DCE/assets/CFA53D52FE8B7C3E70EDC25518D34A22.jpeg" width="400.00" height="400.00"></image></pattern><pattern id="86590574-60D4-4095-B6A7-C609E761D4AD" patternUnits="userSpaceOnUse" width="400" height="400" viewBox="0 0 400 400" patternTransform="matrix(1.000000, 0.000000, 0.000000, -1.000000, 157.000000, 411.000000)"><image xlink:href="../../DBD367A3-D10B-4655-877C-4BCDAAFCFA3E/assets/FF12AB0386DEC36020066F1246429BA7.jpeg" width="400.00" height="400.00"></image></pattern><pattern id="78C743A2-75C1-43A8-9A6A-5BD79A952DD0" patternUnits="userSpaceOnUse" width="400" height="400" viewBox="0 0 400 400" patternTransform="matrix(1.000000, 0.000000, 0.000000, -1.000000, 157.000000, 338.000000)"><image xlink:href="../../DBD367A3-D10B-4655-877C-4BCDAAFCFA3E/assets/FF12AB0386DEC36020066F1246429BA7.jpeg" width="400.00" height="400.00"></image></pattern></defs><g transform="matrix(1.00, 0.00, -0.00, -1.00, 0.0, 523.0)"><path d="M 317.8 33.6 L 317.8 474.6 " fill="none" stroke="#FEFFFE" stroke-width="1.00" transform="matrix(1.00, 0.00, 0.00, -1.00, 1.7, 521.6)"></path><path d="M 479.8 33.6 L 479.8 474.6 " fill="none" stroke="#FEFFFE" stroke-width="1.00" transform="matrix(1.00, 0.00, 0.00, -1.00, 1.7, 521.6)"></path><path d="M 642.8 33.6 L 642.8 474.6 " fill="none" stroke="#FEFFFE" stroke-width="1.00" transform="matrix(1.00, 0.00, 0.00, -1.00, 1.7, 521.6)"></path><path d="M 805.8 33.6 L 805.8 474.6 " fill="none" stroke="#FEFFFE" stroke-width="1.00" transform="matrix(1.00, 0.00, 0.00, -1.00, 1.7, 521.6)"></path><path d="M 154.8 474.1 L 154.8 34.1 " fill="none" stroke="#FEFFFE" stroke-width="1.00" stroke-linecap="square" transform="matrix(1.00, 0.00, 0.00, -1.00, 1.7, 521.6)"></path><g><clipPath id="clip-1314"><path d="M 2.6 433.3 L 138.3 433.3 L 138.3 469.0 L 2.6 469.0 Z M 2.6 433.3 "></path></clipPath><g clip-path="url(#clip-1314)"><text xml:space="preserve" font-family="Chalkduster" font-size="22.0" fill="#FEFFFE" transform="matrix(1.00, 0.00, -0.00, -1.00, 4.0, 441.0)">C</text><text xml:space="preserve" font-family="Chalkduster" font-size="22.0" fill="#FEFFFE" transform="matrix(1.00, 0.00, -0.00, -1.00, 21.8, 441.0)">o</text><text xml:space="preserve" font-family="Chalkduster" font-size="22.0" fill="#FEFFFE" transform="matrix(1.00, 0.00, -0.00, -1.00, 38.3, 441.0)">m</text><text xml:space="preserve" font-family="Chalkduster" font-size="22.0" fill="#FEFFFE" transform="matrix(1.00, 0.00, -0.00, -1.00, 60.6, 441.0)">p</text><text xml:space="preserve" font-family="Chalkduster" font-size="22.0" fill="#FEFFFE" transform="matrix(1.00, 0.00, -0.00, -1.00, 74.2, 441.0)">u</text><text xml:space="preserve" font-family="Chalkduster" font-size="22.0" fill="#FEFFFE" transform="matrix(1.00, 0.00, -0.00, -1.00, 89.1, 441.0)">t</text><text xml:space="preserve" font-family="Chalkduster" font-size="22.0" fill="#FEFFFE" transform="matrix(1.00, 0.00, -0.00, -1.00, 98.9, 441.0)">e</text><text xml:space="preserve" font-family="Chalkduster" font-size="22.0" fill="#FEFFFE" transform="matrix(1.00, 0.00, -0.00, -1.00, 112.6, 441.0)"> </text><text xml:space="preserve" font-family="Chalkduster" font-size="22.0" fill="#FEFFFE" transform="matrix(1.00, 0.00, -0.00, -1.00, 123.5, 441.0)">1</text></g></g><g><clipPath id="clip-1315"><path d="M 3.5 359.9 L 138.3 359.9 L 138.3 395.6 L 3.5 395.6 Z M 3.5 359.9 "></path></clipPath><g clip-path="url(#clip-1315)"><text xml:space="preserve" font-family="Chalkduster" font-size="22.0" fill="#FEFFFE" transform="matrix(1.00, 0.00, -0.00, -1.00, 5.0, 367.0)">C</text><text xml:space="preserve" font-family="Chalkduster" font-size="22.0" fill="#FEFFFE" transform="matrix(1.00, 0.00, -0.00, -1.00, 22.8, 367.0)">o</text><text xml:space="preserve" font-family="Chalkduster" font-size="22.0" fill="#FEFFFE" transform="matrix(1.00, 0.00, -0.00, -1.00, 39.3, 367.0)">m</text><text xml:space="preserve" font-family="Chalkduster" font-size="22.0" fill="#FEFFFE" transform="matrix(1.00, 0.00, -0.00, -1.00, 61.6, 367.0)">p</text><text xml:space="preserve" font-family="Chalkduster" font-size="22.0" fill="#FEFFFE" transform="matrix(1.00, 0.00, -0.00, -1.00, 75.2, 367.0)">u</text><text xml:space="preserve" font-family="Chalkduster" font-size="22.0" fill="#FEFFFE" transform="matrix(1.00, 0.00, -0.00, -1.00, 90.1, 367.0)">t</text><text xml:space="preserve" font-family="Chalkduster" font-size="22.0" fill="#FEFFFE" transform="matrix(1.00, 0.00, -0.00, -1.00, 99.9, 367.0)">e</text><text xml:space="preserve" font-family="Chalkduster" font-size="22.0" fill="#FEFFFE" transform="matrix(1.00, 0.00, -0.00, -1.00, 113.6, 367.0)"> </text><text xml:space="preserve" font-family="Chalkduster" font-size="22.0" fill="#FEFFFE" transform="matrix(1.00, 0.00, -0.00, -1.00, 124.5, 367.0)">2</text></g></g><g><clipPath id="clip-1316"><path d="M 0.7 286.5 L 138.3 286.5 L 138.3 322.2 L 0.7 322.2 Z M 0.7 286.5 "></path></clipPath><g clip-path="url(#clip-1316)"><text xml:space="preserve" font-family="Chalkduster" font-size="22.0" fill="#FEFFFE" transform="matrix(1.00, 0.00, -0.00, -1.00, 2.0, 294.0)">C</text><text xml:space="preserve" font-family="Chalkduster" font-size="22.0" fill="#FEFFFE" transform="matrix(1.00, 0.00, -0.00, -1.00, 19.8, 294.0)">o</text><text xml:space="preserve" font-family="Chalkduster" font-size="22.0" fill="#FEFFFE" transform="matrix(1.00, 0.00, -0.00, -1.00, 36.3, 294.0)">m</text><text xml:space="preserve" font-family="Chalkduster" font-size="22.0" fill="#FEFFFE" transform="matrix(1.00, 0.00, -0.00, -1.00, 58.6, 294.0)">p</text><text xml:space="preserve" font-family="Chalkduster" font-size="22.0" fill="#FEFFFE" transform="matrix(1.00, 0.00, -0.00, -1.00, 72.2, 294.0)">u</text><text xml:space="preserve" font-family="Chalkduster" font-size="22.0" fill="#FEFFFE" transform="matrix(1.00, 0.00, -0.00, -1.00, 87.1, 294.0)">t</text><text xml:space="preserve" font-family="Chalkduster" font-size="22.0" fill="#FEFFFE" transform="matrix(1.00, 0.00, -0.00, -1.00, 96.9, 294.0)">e</text><text xml:space="preserve" font-family="Chalkduster" font-size="22.0" fill="#FEFFFE" transform="matrix(1.00, 0.00, -0.00, -1.00, 110.6, 294.0)"> </text><text xml:space="preserve" font-family="Chalkduster" font-size="22.0" fill="#FEFFFE" transform="matrix(1.00, 0.00, -0.00, -1.00, 121.5, 294.0)">3</text></g></g><g><clipPath id="clip-1317"><path d="M 24.6 213.1 L 138.3 213.1 L 138.3 248.8 L 24.6 248.8 Z M 24.6 213.1 "></path></clipPath><g clip-path="url(#clip-1317)"><text xml:space="preserve" font-family="Chalkduster" font-size="22.0" fill="#FEFFFE" transform="matrix(1.00, 0.00, -0.00, -1.00, 26.0, 220.0)">E</text><text xml:space="preserve" font-family="Chalkduster" font-size="22.0" fill="#FEFFFE" transform="matrix(1.00, 0.00, -0.00, -1.00, 42.3, 220.0)">p</text><text xml:space="preserve" font-family="Chalkduster" font-size="22.0" fill="#FEFFFE" transform="matrix(1.00, 0.00, -0.00, -1.00, 56.1, 220.0)">o</text><text xml:space="preserve" font-family="Chalkduster" font-size="22.0" fill="#FEFFFE" transform="matrix(1.00, 0.00, -0.00, -1.00, 72.6, 220.0)">u</text><text xml:space="preserve" font-family="Chalkduster" font-size="22.0" fill="#FEFFFE" transform="matrix(1.00, 0.00, -0.00, -1.00, 87.5, 220.0)">t</text><text xml:space="preserve" font-family="Chalkduster" font-size="22.0" fill="#FEFFFE" transform="matrix(1.00, 0.00, -0.00, -1.00, 97.3, 220.0)">a</text><text xml:space="preserve" font-family="Chalkduster" font-size="22.0" fill="#FEFFFE" transform="matrix(1.00, 0.00, -0.00, -1.00, 112.5, 220.0)"> </text><text xml:space="preserve" font-family="Chalkduster" font-size="22.0" fill="#FEFFFE" transform="matrix(1.00, 0.00, -0.00, -1.00, 123.4, 220.0)">1</text></g></g><g><clipPath id="clip-1318"><path d="M 25.5 139.7 L 138.3 139.7 L 138.3 175.4 L 25.5 175.4 Z M 25.5 139.7 "></path></clipPath><g clip-path="url(#clip-1318)"><text xml:space="preserve" font-family="Chalkduster" font-size="22.0" fill="#FEFFFE" transform="matrix(1.00, 0.00, -0.00, -1.00, 27.0, 147.0)">E</text><text xml:space="preserve" font-family="Chalkduster" font-size="22.0" fill="#FEFFFE" transform="matrix(1.00, 0.00, -0.00, -1.00, 43.3, 147.0)">p</text><text xml:space="preserve" font-family="Chalkduster" font-size="22.0" fill="#FEFFFE" transform="matrix(1.00, 0.00, -0.00, -1.00, 57.1, 147.0)">o</text><text xml:space="preserve" font-family="Chalkduster" font-size="22.0" fill="#FEFFFE" transform="matrix(1.00, 0.00, -0.00, -1.00, 73.6, 147.0)">u</text><text xml:space="preserve" font-family="Chalkduster" font-size="22.0" fill="#FEFFFE" transform="matrix(1.00, 0.00, -0.00, -1.00, 88.5, 147.0)">t</text><text xml:space="preserve" font-family="Chalkduster" font-size="22.0" fill="#FEFFFE" transform="matrix(1.00, 0.00, -0.00, -1.00, 98.3, 147.0)">a</text><text xml:space="preserve" font-family="Chalkduster" font-size="22.0" fill="#FEFFFE" transform="matrix(1.00, 0.00, -0.00, -1.00, 113.5, 147.0)"> </text><text xml:space="preserve" font-family="Chalkduster" font-size="22.0" fill="#FEFFFE" transform="matrix(1.00, 0.00, -0.00, -1.00, 124.4, 147.0)">2</text></g></g><g><clipPath id="clip-1319"><path d="M 22.8 66.3 L 138.3 66.3 L 138.3 102.0 L 22.8 102.0 Z M 22.8 66.3 "></path></clipPath><g clip-path="url(#clip-1319)"><text xml:space="preserve" font-family="Chalkduster" font-size="22.0" fill="#FEFFFE" transform="matrix(1.00, 0.00, -0.00, -1.00, 24.0, 74.0)">E</text><text xml:space="preserve" font-family="Chalkduster" font-size="22.0" fill="#FEFFFE" transform="matrix(1.00, 0.00, -0.00, -1.00, 40.3, 74.0)">p</text><text xml:space="preserve" font-family="Chalkduster" font-size="22.0" fill="#FEFFFE" transform="matrix(1.00, 0.00, -0.00, -1.00, 54.1, 74.0)">o</text><text xml:space="preserve" font-family="Chalkduster" font-size="22.0" fill="#FEFFFE" transform="matrix(1.00, 0.00, -0.00, -1.00, 70.6, 74.0)">u</text><text xml:space="preserve" font-family="Chalkduster" font-size="22.0" fill="#FEFFFE" transform="matrix(1.00, 0.00, -0.00, -1.00, 85.5, 74.0)">t</text><text xml:space="preserve" font-family="Chalkduster" font-size="22.0" fill="#FEFFFE" transform="matrix(1.00, 0.00, -0.00, -1.00, 95.3, 74.0)">a</text><text xml:space="preserve" font-family="Chalkduster" font-size="22.0" fill="#FEFFFE" transform="matrix(1.00, 0.00, -0.00, -1.00, 110.5, 74.0)"> </text><text xml:space="preserve" font-family="Chalkduster" font-size="22.0" fill="#FEFFFE" transform="matrix(1.00, 0.00, -0.00, -1.00, 121.4, 74.0)">3</text></g></g><g><clipPath id="clip-1320"><path d="M 147.7 0.8 L 165.8 0.8 L 165.8 36.6 L 147.7 36.6 Z M 147.7 0.8 "></path></clipPath><g clip-path="url(#clip-1320)"><text xml:space="preserve" font-family="Chalkduster" font-size="22.0" fill="#FEFFFE" transform="matrix(1.00, 0.00, -0.00, -1.00, 149.0, 8.0)">0</text></g></g><g><clipPath id="clip-1321"><path d="M 296.6 0.8 L 342.1 0.8 L 342.1 36.6 L 296.6 36.6 Z M 296.6 0.8 "></path></clipPath><g clip-path="url(#clip-1321)"><text xml:space="preserve" font-family="Chalkduster" font-size="22.0" fill="#FEFFFE" transform="matrix(1.00, 0.00, -0.00, -1.00, 298.0, 8.0)">1</text><text xml:space="preserve" font-family="Chalkduster" font-size="22.0" fill="#FEFFFE" transform="matrix(1.00, 0.00, -0.00, -1.00, 311.3, 8.0)">5</text><text xml:space="preserve" font-family="Chalkduster" font-size="22.0" fill="#FEFFFE" transform="matrix(1.00, 0.00, -0.00, -1.00, 325.4, 8.0)">0</text></g></g><g><clipPath id="clip-1322"><path d="M 457.5 0.8 L 506.3 0.8 L 506.3 36.6 L 457.5 36.6 Z M 457.5 0.8 "></path></clipPath><g clip-path="url(#clip-1322)"><text xml:space="preserve" font-family="Chalkduster" font-size="22.0" fill="#FEFFFE" transform="matrix(1.00, 0.00, -0.00, -1.00, 459.0, 8.0)">3</text><text xml:space="preserve" font-family="Chalkduster" font-size="22.0" fill="#FEFFFE" transform="matrix(1.00, 0.00, -0.00, -1.00, 474.1, 8.0)">0</text><text xml:space="preserve" font-family="Chalkduster" font-size="22.0" fill="#FEFFFE" transform="matrix(1.00, 0.00, -0.00, -1.00, 489.6, 8.0)">0</text></g></g><g><clipPath id="clip-1323"><path d="M 618.8 0.8 L 670.2 0.8 L 670.2 36.6 L 618.8 36.6 Z M 618.8 0.8 "></path></clipPath><g clip-path="url(#clip-1323)"><text xml:space="preserve" font-family="Chalkduster" font-size="22.0" fill="#FEFFFE" transform="matrix(1.00, 0.00, -0.00, -1.00, 620.0, 8.0)">4</text><text xml:space="preserve" font-family="Chalkduster" font-size="22.0" fill="#FEFFFE" transform="matrix(1.00, 0.00, -0.00, -1.00, 639.2, 8.0)">5</text><text xml:space="preserve" font-family="Chalkduster" font-size="22.0" fill="#FEFFFE" transform="matrix(1.00, 0.00, -0.00, -1.00, 653.3, 8.0)">0</text></g></g><g><clipPath id="clip-1324"><path d="M 783.0 0.8 L 831.3 0.8 L 831.3 36.6 L 783.0 36.6 Z M 783.0 0.8 "></path></clipPath><g clip-path="url(#clip-1324)"><text xml:space="preserve" font-family="Chalkduster" font-size="22.0" fill="#FEFFFE" transform="matrix(1.00, 0.00, -0.00, -1.00, 784.0, 8.0)">6</text><text xml:space="preserve" font-family="Chalkduster" font-size="22.0" fill="#FEFFFE" transform="matrix(1.00, 0.00, -0.00, -1.00, 798.7, 8.0)">0</text><text xml:space="preserve" font-family="Chalkduster" font-size="22.0" fill="#FEFFFE" transform="matrix(1.00, 0.00, -0.00, -1.00, 814.2, 8.0)">0</text></g></g><g><clipPath id="clip-1325"><path d="M 157.0 213.0 L 392.0 213.0 L 392.0 198.0 L 157.0 198.0 Z M 157.0 213.0 "></path></clipPath><g clip-path="url(#clip-1325)"><g><clipPath id="clip-1326"><path d="M 156.7 47.4 L 807.1 47.4 L 807.1 487.9 L 156.7 487.9 Z M 156.7 47.4 "></path></clipPath><g clip-path="url(#clip-1326)"><image xlink:href="../../DBD367A3-D10B-4655-877C-4BCDAAFCFA3E/assets/034D055AC5651F18447C7C4B60092DFC.jpeg" width="400.00" height="400.00" transform="matrix(1.00, 0.00, -0.00, -1.00, 157.0, 213.0)"></image></g></g></g></g><g><clipPath id="clip-1327"><path d="M 157.0 140.0 L 482.0 140.0 L 482.0 125.0 L 157.0 125.0 Z M 157.0 140.0 "></path></clipPath><g clip-path="url(#clip-1327)"><g><clipPath id="clip-1328"><path d="M 156.7 47.4 L 807.1 47.4 L 807.1 487.9 L 156.7 487.9 Z M 156.7 47.4 "></path></clipPath><g clip-path="url(#clip-1328)"><image xlink:href="../../DBD367A3-D10B-4655-877C-4BCDAAFCFA3E/assets/034D055AC5651F18447C7C4B60092DFC.jpeg" width="400.00" height="400.00" transform="matrix(1.00, 0.00, -0.00, -1.00, 157.0, 140.0)"></image></g></g></g></g><g><clipPath id="clip-1329"><path d="M 157.0 67.0 L 468.0 67.0 L 468.0 52.0 L 157.0 52.0 Z M 157.0 67.0 "></path></clipPath><g clip-path="url(#clip-1329)"><g><clipPath id="clip-1330"><path d="M 156.7 47.4 L 807.1 47.4 L 807.1 487.9 L 156.7 487.9 Z M 156.7 47.4 "></path></clipPath><g clip-path="url(#clip-1330)"><image xlink:href="../../DBD367A3-D10B-4655-877C-4BCDAAFCFA3E/assets/034D055AC5651F18447C7C4B60092DFC.jpeg" width="400.00" height="400.00" transform="matrix(1.00, 0.00, -0.00, -1.00, 157.0, 67.0)"></image></g></g></g></g><g><clipPath id="clip-1331"><path d="M 157.0 450.0 L 337.0 450.0 L 337.0 434.0 L 157.0 434.0 Z M 157.0 450.0 "></path></clipPath><g clip-path="url(#clip-1331)"><g><clipPath id="clip-1332"><path d="M 156.7 47.4 L 807.1 47.4 L 807.1 487.9 L 156.7 487.9 Z M 156.7 47.4 "></path></clipPath><g clip-path="url(#clip-1332)"><image xlink:href="../../BC2DD8B9-9C8E-42E8-94E5-5E98029C9F49/assets/EB1D23D851EEB35D21A1FEFF7AD28E55.jpeg" width="400.00" height="400.00" transform="matrix(1.00, 0.00, -0.00, -1.00, 157.0, 450.0)"></image></g></g></g></g><g><clipPath id="clip-1333"><path d="M 157.0 376.0 L 394.0 376.0 L 394.0 361.0 L 157.0 361.0 Z M 157.0 376.0 "></path></clipPath><g clip-path="url(#clip-1333)"><g><clipPath id="clip-1334"><path d="M 156.7 47.4 L 807.1 47.4 L 807.1 487.9 L 156.7 487.9 Z M 156.7 47.4 "></path></clipPath><g clip-path="url(#clip-1334)"><image xlink:href="../../BC2DD8B9-9C8E-42E8-94E5-5E98029C9F49/assets/EB1D23D851EEB35D21A1FEFF7AD28E55.jpeg" width="400.00" height="400.00" transform="matrix(1.00, 0.00, -0.00, -1.00, 157.0, 376.0)"></image></g></g></g></g><g><clipPath id="clip-1335"><path d="M 157.0 303.0 L 382.0 303.0 L 382.0 288.0 L 157.0 288.0 Z M 157.0 303.0 "></path></clipPath><g clip-path="url(#clip-1335)"><g><clipPath id="clip-1336"><path d="M 156.7 47.4 L 807.1 47.4 L 807.1 487.9 L 156.7 487.9 Z M 156.7 47.4 "></path></clipPath><g clip-path="url(#clip-1336)"><image xlink:href="../../BC2DD8B9-9C8E-42E8-94E5-5E98029C9F49/assets/EB1D23D851EEB35D21A1FEFF7AD28E55.jpeg" width="400.00" height="400.00" transform="matrix(1.00, 0.00, -0.00, -1.00, 157.0, 303.0)"></image></g></g></g></g><g><clipPath id="clip-1337"><path d="M 157.0 247.0 L 728.0 247.0 L 728.0 232.0 L 157.0 232.0 Z M 157.0 247.0 "></path></clipPath><g clip-path="url(#clip-1337)"><g><clipPath id="clip-1338"><path d="M 156.7 47.4 L 807.1 47.4 L 807.1 487.9 L 156.7 487.9 Z M 156.7 47.4 "></path></clipPath><g clip-path="url(#clip-1338)"><path d="M 157.0 232.0 L 728.0 232.0 L 728.0 247.0 L 157.0 247.0 Z M 157.0 232.0 " fill="url(#49BCD2B7-23E3-490B-AD28-349A807DFDF9)"></path></g></g></g></g><g><clipPath id="clip-1339"><path d="M 157.0 174.0 L 589.0 174.0 L 589.0 159.0 L 157.0 159.0 Z M 157.0 174.0 "></path></clipPath><g clip-path="url(#clip-1339)"><g><clipPath id="clip-1340"><path d="M 156.7 47.4 L 807.1 47.4 L 807.1 487.9 L 156.7 487.9 Z M 156.7 47.4 "></path></clipPath><g clip-path="url(#clip-1340)"><path d="M 157.0 159.0 L 589.0 159.0 L 589.0 174.0 L 157.0 174.0 Z M 157.0 159.0 " fill="url(#CF1A5C33-5A82-4AFE-BDF0-286838764BF6)"></path></g></g></g></g><g><clipPath id="clip-1341"><path d="M 157.0 101.0 L 550.0 101.0 L 550.0 86.0 L 157.0 86.0 Z M 157.0 101.0 "></path></clipPath><g clip-path="url(#clip-1341)"><g><clipPath id="clip-1342"><path d="M 156.7 47.4 L 807.1 47.4 L 807.1 487.9 L 156.7 487.9 Z M 156.7 47.4 "></path></clipPath><g clip-path="url(#clip-1342)"><image xlink:href="../../7BF7A3F1-4E92-4353-840D-A5596D217DCE/assets/CFA53D52FE8B7C3E70EDC25518D34A22.jpeg" width="400.00" height="400.00" transform="matrix(1.00, 0.00, -0.00, -1.00, 157.0, 101.0)"></image></g></g></g></g><g><clipPath id="clip-1343"><path d="M 157.0 484.0 L 387.0 484.0 L 387.0 468.0 L 157.0 468.0 Z M 157.0 484.0 "></path></clipPath><g clip-path="url(#clip-1343)"><g><clipPath id="clip-1344"><path d="M 156.7 47.4 L 807.1 47.4 L 807.1 487.9 L 156.7 487.9 Z M 156.7 47.4 "></path></clipPath><g clip-path="url(#clip-1344)"><image xlink:href="../../DBD367A3-D10B-4655-877C-4BCDAAFCFA3E/assets/FF12AB0386DEC36020066F1246429BA7.jpeg" width="400.00" height="400.00" transform="matrix(1.00, 0.00, -0.00, -1.00, 157.0, 484.0)"></image></g></g></g></g><g><clipPath id="clip-1345"><path d="M 157.0 411.0 L 685.0 411.0 L 685.0 395.0 L 157.0 395.0 Z M 157.0 411.0 "></path></clipPath><g clip-path="url(#clip-1345)"><g><clipPath id="clip-1346"><path d="M 156.7 47.4 L 807.1 47.4 L 807.1 487.9 L 156.7 487.9 Z M 156.7 47.4 "></path></clipPath><g clip-path="url(#clip-1346)"><path d="M 157.0 395.0 L 685.0 395.0 L 685.0 411.0 L 157.0 411.0 Z M 157.0 395.0 " fill="url(#86590574-60D4-4095-B6A7-C609E761D4AD)"></path></g></g></g></g><g><clipPath id="clip-1347"><path d="M 157.0 338.0 L 690.0 338.0 L 690.0 322.0 L 157.0 322.0 Z M 157.0 338.0 "></path></clipPath><g clip-path="url(#clip-1347)"><g><clipPath id="clip-1348"><path d="M 156.7 47.4 L 807.1 47.4 L 807.1 487.9 L 156.7 487.9 Z M 156.7 47.4 "></path></clipPath><g clip-path="url(#clip-1348)"><path d="M 157.0 322.0 L 690.0 322.0 L 690.0 338.0 L 157.0 338.0 Z M 157.0 322.0 " fill="url(#78C743A2-75C1-43A8-9A6A-5BD79A952DD0)"></path></g></g></g></g><g><g><clipPath id="clip-1349"><path d="M 469.0 37.0 L 530.0 37.0 L 530.0 82.0 L 469.0 82.0 Z M 469.0 37.0 "></path></clipPath><g clip-path="url(#clip-1349)"><text xml:space="preserve" font-family="Chalkduster" font-size="30.0" fill="#FEFFFE" transform="matrix(1.00, 0.00, -0.00, -1.00, 470.0, 46.0)">2</text><text xml:space="preserve" font-family="Chalkduster" font-size="30.0" fill="#FEFFFE" transform="matrix(1.00, 0.00, -0.00, -1.00, 486.9, 46.0)">8</text><text xml:space="preserve" font-family="Chalkduster" font-size="30.0" fill="#FEFFFE" transform="matrix(1.00, 0.00, -0.00, -1.00, 511.0, 46.0)">7</text></g></g></g><g><g><clipPath id="clip-1350"><path d="M 483.0 110.0 L 548.0 110.0 L 548.0 155.0 L 483.0 155.0 Z M 483.0 110.0 "></path></clipPath><g clip-path="url(#clip-1350)"><text xml:space="preserve" font-family="Chalkduster" font-size="30.0" fill="#FEFFFE" transform="matrix(1.00, 0.00, -0.00, -1.00, 484.0, 119.0)">3</text><text xml:space="preserve" font-family="Chalkduster" font-size="30.0" fill="#FEFFFE" transform="matrix(1.00, 0.00, -0.00, -1.00, 504.6, 119.0)">0</text><text xml:space="preserve" font-family="Chalkduster" font-size="30.0" fill="#FEFFFE" transform="matrix(1.00, 0.00, -0.00, -1.00, 525.8, 119.0)">0</text></g></g></g><g><g><clipPath id="clip-1351"><path d="M 393.0 183.0 L 448.0 183.0 L 448.0 228.0 L 393.0 228.0 Z M 393.0 183.0 "></path></clipPath><g clip-path="url(#clip-1351)"><text xml:space="preserve" font-family="Chalkduster" font-size="30.0" fill="#FEFFFE" transform="matrix(1.00, 0.00, -0.00, -1.00, 394.0, 192.0)">2</text><text xml:space="preserve" font-family="Chalkduster" font-size="30.0" fill="#FEFFFE" transform="matrix(1.00, 0.00, -0.00, -1.00, 410.9, 192.0)">1</text><text xml:space="preserve" font-family="Chalkduster" font-size="30.0" fill="#FEFFFE" transform="matrix(1.00, 0.00, -0.00, -1.00, 429.0, 192.0)">7</text></g></g></g><g><g><clipPath id="clip-1352"><path d="M 384.0 273.0 L 447.0 273.0 L 447.0 318.0 L 384.0 318.0 Z M 384.0 273.0 "></path></clipPath><g clip-path="url(#clip-1352)"><text xml:space="preserve" font-family="Chalkduster" font-size="30.0" fill="#FEFFFE" transform="matrix(1.00, 0.00, -0.00, -1.00, 385.0, 282.0)">2</text><text xml:space="preserve" font-family="Chalkduster" font-size="30.0" fill="#FEFFFE" transform="matrix(1.00, 0.00, -0.00, -1.00, 401.9, 282.0)">0</text><text xml:space="preserve" font-family="Chalkduster" font-size="30.0" fill="#FEFFFE" transform="matrix(1.00, 0.00, -0.00, -1.00, 422.5, 282.0)">8</text></g></g></g><g><g><clipPath id="clip-1353"><path d="M 396.0 346.0 L 449.0 346.0 L 449.0 391.0 L 396.0 391.0 Z M 396.0 346.0 "></path></clipPath><g clip-path="url(#clip-1353)"><text xml:space="preserve" font-family="Chalkduster" font-size="30.0" fill="#FEFFFE" transform="matrix(1.00, 0.00, -0.00, -1.00, 397.0, 355.0)">2</text><text xml:space="preserve" font-family="Chalkduster" font-size="30.0" fill="#FEFFFE" transform="matrix(1.00, 0.00, -0.00, -1.00, 413.9, 355.0)">1</text><text xml:space="preserve" font-family="Chalkduster" font-size="30.0" fill="#FEFFFE" transform="matrix(1.00, 0.00, -0.00, -1.00, 430.4, 355.0)">9</text></g></g></g><g><g><clipPath id="clip-1354"><path d="M 338.0 419.0 L 397.0 419.0 L 397.0 464.0 L 338.0 464.0 Z M 338.0 419.0 "></path></clipPath><g clip-path="url(#clip-1354)"><text xml:space="preserve" font-family="Chalkduster" font-size="30.0" fill="#FEFFFE" transform="matrix(1.00, 0.00, -0.00, -1.00, 339.0, 428.0)">1</text><text xml:space="preserve" font-family="Chalkduster" font-size="30.0" fill="#FEFFFE" transform="matrix(1.00, 0.00, -0.00, -1.00, 355.6, 428.0)">6</text><text xml:space="preserve" font-family="Chalkduster" font-size="30.0" fill="#FEFFFE" transform="matrix(1.00, 0.00, -0.00, -1.00, 375.6, 428.0)">6</text></g></g></g><g><g><clipPath id="clip-1355"><path d="M 552.0 71.0 L 615.0 71.0 L 615.0 116.0 L 552.0 116.0 Z M 552.0 71.0 "></path></clipPath><g clip-path="url(#clip-1355)"><text xml:space="preserve" font-family="Chalkduster" font-size="30.0" fill="#FEFFFE" transform="matrix(1.00, 0.00, -0.00, -1.00, 553.0, 80.0)">3</text><text xml:space="preserve" font-family="Chalkduster" font-size="30.0" fill="#FEFFFE" transform="matrix(1.00, 0.00, -0.00, -1.00, 573.6, 80.0)">6</text><text xml:space="preserve" font-family="Chalkduster" font-size="30.0" fill="#FEFFFE" transform="matrix(1.00, 0.00, -0.00, -1.00, 593.6, 80.0)">3</text></g></g></g><g><g><clipPath id="clip-1356"><path d="M 591.0 144.0 L 650.0 144.0 L 650.0 189.0 L 591.0 189.0 Z M 591.0 144.0 "></path></clipPath><g clip-path="url(#clip-1356)"><text xml:space="preserve" font-family="Chalkduster" font-size="30.0" fill="#FEFFFE" transform="matrix(1.00, 0.00, -0.00, -1.00, 592.0, 153.0)">3</text><text xml:space="preserve" font-family="Chalkduster" font-size="30.0" fill="#FEFFFE" transform="matrix(1.00, 0.00, -0.00, -1.00, 612.6, 153.0)">9</text><text xml:space="preserve" font-family="Chalkduster" font-size="30.0" fill="#FEFFFE" transform="matrix(1.00, 0.00, -0.00, -1.00, 630.7, 153.0)">9</text></g></g></g><g><g><clipPath id="clip-1357"><path d="M 729.0 217.0 L 785.0 217.0 L 785.0 262.0 L 729.0 262.0 Z M 729.0 217.0 "></path></clipPath><g clip-path="url(#clip-1357)"><text xml:space="preserve" font-family="Chalkduster" font-size="30.0" fill="#FEFFFE" transform="matrix(1.00, 0.00, -0.00, -1.00, 730.0, 226.0)">5</text><text xml:space="preserve" font-family="Chalkduster" font-size="30.0" fill="#FEFFFE" transform="matrix(1.00, 0.00, -0.00, -1.00, 749.2, 226.0)">2</text><text xml:space="preserve" font-family="Chalkduster" font-size="30.0" fill="#FEFFFE" transform="matrix(1.00, 0.00, -0.00, -1.00, 766.1, 226.0)">7</text></g></g></g><g><g><clipPath id="clip-1358"><path d="M 692.0 308.0 L 756.0 308.0 L 756.0 352.0 L 692.0 352.0 Z M 692.0 308.0 "></path></clipPath><g clip-path="url(#clip-1358)"><text xml:space="preserve" font-family="Chalkduster" font-size="30.0" fill="#FEFFFE" transform="matrix(1.00, 0.00, -0.00, -1.00, 693.0, 317.0)">4</text><text xml:space="preserve" font-family="Chalkduster" font-size="30.0" fill="#FEFFFE" transform="matrix(1.00, 0.00, -0.00, -1.00, 720.5, 317.0)">9</text><text xml:space="preserve" font-family="Chalkduster" font-size="30.0" fill="#FEFFFE" transform="matrix(1.00, 0.00, -0.00, -1.00, 738.6, 317.0)">2</text></g></g></g><g><g><clipPath id="clip-1359"><path d="M 686.0 381.0 L 757.0 381.0 L 757.0 425.0 L 686.0 425.0 Z M 686.0 381.0 "></path></clipPath><g clip-path="url(#clip-1359)"><text xml:space="preserve" font-family="Chalkduster" font-size="30.0" fill="#FEFFFE" transform="matrix(1.00, 0.00, -0.00, -1.00, 687.0, 390.0)">4</text><text xml:space="preserve" font-family="Chalkduster" font-size="30.0" fill="#FEFFFE" transform="matrix(1.00, 0.00, -0.00, -1.00, 714.5, 390.0)">8</text><text xml:space="preserve" font-family="Chalkduster" font-size="30.0" fill="#FEFFFE" transform="matrix(1.00, 0.00, -0.00, -1.00, 738.6, 390.0)">7</text></g></g></g><g><g><clipPath id="clip-1360"><path d="M 388.0 454.0 L 441.0 454.0 L 441.0 498.0 L 388.0 498.0 Z M 388.0 454.0 "></path></clipPath><g clip-path="url(#clip-1360)"><text xml:space="preserve" font-family="Chalkduster" font-size="30.0" fill="#FEFFFE" transform="matrix(1.00, 0.00, -0.00, -1.00, 389.0, 463.0)">2</text><text xml:space="preserve" font-family="Chalkduster" font-size="30.0" fill="#FEFFFE" transform="matrix(1.00, 0.00, -0.00, -1.00, 405.9, 463.0)">1</text><text xml:space="preserve" font-family="Chalkduster" font-size="30.0" fill="#FEFFFE" transform="matrix(1.00, 0.00, -0.00, -1.00, 423.4, 463.0)">2</text></g></g></g></g></svg>