<?xml version="1.0" encoding="UTF-8" standalone="no"?><svg xmlns="http://www.w3.org/2000/svg" xmlns:xlink="http://www.w3.org/1999/xlink" clip-rule="evenodd" stroke-miterlimit="4.00" viewBox="0 0 631 429"><desc>SVG generated by Keynote</desc><defs><pattern id="588FA7E7-4256-4021-996E-8722442AE077" patternUnits="userSpaceOnUse" width="400" height="400" viewBox="0 0 400 400" patternTransform="matrix(1.000000, 0.000000, 0.000000, -1.000000, 2.000000, 177.000000)"><image xlink:href="../../7BF7A3F1-4E92-4353-840D-A5596D217DCE/assets/CFA53D52FE8B7C3E70EDC25518D34A22.jpeg" width="400.00" height="400.00"></image></pattern><pattern id="29CB31E6-E745-46AB-911A-BFA1FAE27725" patternUnits="userSpaceOnUse" width="400" height="400" viewBox="0 0 400 400" patternTransform="matrix(1.000000, 0.000000, 0.000000, -1.000000, 2.000000, 104.000000)"><image xlink:href="../../7BF7A3F1-4E92-4353-840D-A5596D217DCE/assets/CFA53D52FE8B7C3E70EDC25518D34A22.jpeg" width="400.00" height="400.00"></image></pattern><pattern id="4BDEC061-A1A2-48FE-90ED-BBBB2D577493" patternUnits="userSpaceOnUse" width="400" height="400" viewBox="0 0 400 400" patternTransform="matrix(1.000000, 0.000000, 0.000000, -1.000000, 2.000000, 341.000000)"><image xlink:href="../../DBD367A3-D10B-4655-877C-4BCDAAFCFA3E/assets/FF12AB0386DEC36020066F1246429BA7.jpeg" width="400.00" height="400.00"></image></pattern><pattern id="B9321DB8-06EE-4C6A-814E-8D1C389F48C7" patternUnits="userSpaceOnUse" width="400" height="400" viewBox="0 0 400 400" patternTransform="matrix(1.000000, 0.000000, 0.000000, -1.000000, 2.000000, 268.000000)"><image xlink:href="../../DBD367A3-D10B-4655-877C-4BCDAAFCFA3E/assets/FF12AB0386DEC36020066F1246429BA7.jpeg" width="400.00" height="400.00"></image></pattern></defs><g transform="matrix(1.00, 0.00, -0.00, -1.00, 0.0, 429.0)"><g><clipPath id="clip-1271"><path d="M 2.0 380.0 L 182.0 380.0 L 182.0 364.0 L 2.0 364.0 Z M 2.0 380.0 "></path></clipPath><g clip-path="url(#clip-1271)"><g><clipPath id="clip-1272"><path d="M 1.7 -22.6 L 652.1 -22.6 L 652.1 417.9 L 1.7 417.9 Z M 1.7 -22.6 "></path></clipPath><g clip-path="url(#clip-1272)"><image xlink:href="../../BC2DD8B9-9C8E-42E8-94E5-5E98029C9F49/assets/EB1D23D851EEB35D21A1FEFF7AD28E55.jpeg" width="400.00" height="400.00" transform="matrix(1.00, 0.00, -0.00, -1.00, 2.0, 380.0)"></image></g></g></g></g><g><clipPath id="clip-1273"><path d="M 2.0 306.0 L 239.0 306.0 L 239.0 291.0 L 2.0 291.0 Z M 2.0 306.0 "></path></clipPath><g clip-path="url(#clip-1273)"><g><clipPath id="clip-1274"><path d="M 1.7 -22.6 L 652.1 -22.6 L 652.1 417.9 L 1.7 417.9 Z M 1.7 -22.6 "></path></clipPath><g clip-path="url(#clip-1274)"><image xlink:href="../../BC2DD8B9-9C8E-42E8-94E5-5E98029C9F49/assets/EB1D23D851EEB35D21A1FEFF7AD28E55.jpeg" width="400.00" height="400.00" transform="matrix(1.00, 0.00, -0.00, -1.00, 2.0, 306.0)"></image></g></g></g></g><g><clipPath id="clip-1275"><path d="M 2.0 233.0 L 227.0 233.0 L 227.0 218.0 L 2.0 218.0 Z M 2.0 233.0 "></path></clipPath><g clip-path="url(#clip-1275)"><g><clipPath id="clip-1276"><path d="M 1.7 -22.6 L 652.1 -22.6 L 652.1 417.9 L 1.7 417.9 Z M 1.7 -22.6 "></path></clipPath><g clip-path="url(#clip-1276)"><image xlink:href="../../BC2DD8B9-9C8E-42E8-94E5-5E98029C9F49/assets/EB1D23D851EEB35D21A1FEFF7AD28E55.jpeg" width="400.00" height="400.00" transform="matrix(1.00, 0.00, -0.00, -1.00, 2.0, 233.0)"></image></g></g></g></g><g><clipPath id="clip-1277"><path d="M 2.0 177.0 L 573.0 177.0 L 573.0 162.0 L 2.0 162.0 Z M 2.0 177.0 "></path></clipPath><g clip-path="url(#clip-1277)"><g><clipPath id="clip-1278"><path d="M 1.7 -22.6 L 652.1 -22.6 L 652.1 417.9 L 1.7 417.9 Z M 1.7 -22.6 "></path></clipPath><g clip-path="url(#clip-1278)"><path d="M 2.0 162.0 L 573.0 162.0 L 573.0 177.0 L 2.0 177.0 Z M 2.0 162.0 " fill="url(#588FA7E7-4256-4021-996E-8722442AE077)"></path></g></g></g></g><g><clipPath id="clip-1279"><path d="M 2.0 104.0 L 434.0 104.0 L 434.0 89.0 L 2.0 89.0 Z M 2.0 104.0 "></path></clipPath><g clip-path="url(#clip-1279)"><g><clipPath id="clip-1280"><path d="M 1.7 -22.6 L 652.1 -22.6 L 652.1 417.9 L 1.7 417.9 Z M 1.7 -22.6 "></path></clipPath><g clip-path="url(#clip-1280)"><path d="M 2.0 89.0 L 434.0 89.0 L 434.0 104.0 L 2.0 104.0 Z M 2.0 89.0 " fill="url(#29CB31E6-E745-46AB-911A-BFA1FAE27725)"></path></g></g></g></g><g><clipPath id="clip-1281"><path d="M 2.0 31.0 L 395.0 31.0 L 395.0 16.0 L 2.0 16.0 Z M 2.0 31.0 "></path></clipPath><g clip-path="url(#clip-1281)"><g><clipPath id="clip-1282"><path d="M 1.7 -22.6 L 652.1 -22.6 L 652.1 417.9 L 1.7 417.9 Z M 1.7 -22.6 "></path></clipPath><g clip-path="url(#clip-1282)"><image xlink:href="../../7BF7A3F1-4E92-4353-840D-A5596D217DCE/assets/CFA53D52FE8B7C3E70EDC25518D34A22.jpeg" width="400.00" height="400.00" transform="matrix(1.00, 0.00, -0.00, -1.00, 2.0, 31.0)"></image></g></g></g></g><g><clipPath id="clip-1283"><path d="M 2.0 414.0 L 232.0 414.0 L 232.0 398.0 L 2.0 398.0 Z M 2.0 414.0 "></path></clipPath><g clip-path="url(#clip-1283)"><g><clipPath id="clip-1284"><path d="M 1.7 -22.6 L 652.1 -22.6 L 652.1 417.9 L 1.7 417.9 Z M 1.7 -22.6 "></path></clipPath><g clip-path="url(#clip-1284)"><image xlink:href="../../DBD367A3-D10B-4655-877C-4BCDAAFCFA3E/assets/FF12AB0386DEC36020066F1246429BA7.jpeg" width="400.00" height="400.00" transform="matrix(1.00, 0.00, -0.00, -1.00, 2.0, 414.0)"></image></g></g></g></g><g><clipPath id="clip-1285"><path d="M 2.0 341.0 L 530.0 341.0 L 530.0 325.0 L 2.0 325.0 Z M 2.0 341.0 "></path></clipPath><g clip-path="url(#clip-1285)"><g><clipPath id="clip-1286"><path d="M 1.7 -22.6 L 652.1 -22.6 L 652.1 417.9 L 1.7 417.9 Z M 1.7 -22.6 "></path></clipPath><g clip-path="url(#clip-1286)"><path d="M 2.0 325.0 L 530.0 325.0 L 530.0 341.0 L 2.0 341.0 Z M 2.0 325.0 " fill="url(#4BDEC061-A1A2-48FE-90ED-BBBB2D577493)"></path></g></g></g></g><g><clipPath id="clip-1287"><path d="M 2.0 268.0 L 535.0 268.0 L 535.0 252.0 L 2.0 252.0 Z M 2.0 268.0 "></path></clipPath><g clip-path="url(#clip-1287)"><g><clipPath id="clip-1288"><path d="M 1.7 -22.6 L 652.1 -22.6 L 652.1 417.9 L 1.7 417.9 Z M 1.7 -22.6 "></path></clipPath><g clip-path="url(#clip-1288)"><path d="M 2.0 252.0 L 535.0 252.0 L 535.0 268.0 L 2.0 268.0 Z M 2.0 252.0 " fill="url(#B9321DB8-06EE-4C6A-814E-8D1C389F48C7)"></path></g></g></g></g><g><g><clipPath id="clip-1289"><path d="M 229.0 203.0 L 292.0 203.0 L 292.0 248.0 L 229.0 248.0 Z M 229.0 203.0 "></path></clipPath><g clip-path="url(#clip-1289)"><text xml:space="preserve" font-family="Chalkduster" font-size="30.0" fill="#FEFFFE" transform="matrix(1.00, 0.00, -0.00, -1.00, 230.0, 212.0)">2</text><text xml:space="preserve" font-family="Chalkduster" font-size="30.0" fill="#FEFFFE" transform="matrix(1.00, 0.00, -0.00, -1.00, 246.9, 212.0)">0</text><text xml:space="preserve" font-family="Chalkduster" font-size="30.0" fill="#FEFFFE" transform="matrix(1.00, 0.00, -0.00, -1.00, 267.5, 212.0)">8</text></g></g></g><g><g><clipPath id="clip-1290"><path d="M 241.0 276.0 L 294.0 276.0 L 294.0 321.0 L 241.0 321.0 Z M 241.0 276.0 "></path></clipPath><g clip-path="url(#clip-1290)"><text xml:space="preserve" font-family="Chalkduster" font-size="30.0" fill="#FEFFFE" transform="matrix(1.00, 0.00, -0.00, -1.00, 242.0, 285.0)">2</text><text xml:space="preserve" font-family="Chalkduster" font-size="30.0" fill="#FEFFFE" transform="matrix(1.00, 0.00, -0.00, -1.00, 258.9, 285.0)">1</text><text xml:space="preserve" font-family="Chalkduster" font-size="30.0" fill="#FEFFFE" transform="matrix(1.00, 0.00, -0.00, -1.00, 275.4, 285.0)">9</text></g></g></g><g><g><clipPath id="clip-1291"><path d="M 183.0 349.0 L 242.0 349.0 L 242.0 394.0 L 183.0 394.0 Z M 183.0 349.0 "></path></clipPath><g clip-path="url(#clip-1291)"><text xml:space="preserve" font-family="Chalkduster" font-size="30.0" fill="#FEFFFE" transform="matrix(1.00, 0.00, -0.00, -1.00, 184.0, 358.0)">1</text><text xml:space="preserve" font-family="Chalkduster" font-size="30.0" fill="#FEFFFE" transform="matrix(1.00, 0.00, -0.00, -1.00, 200.6, 358.0)">6</text><text xml:space="preserve" font-family="Chalkduster" font-size="30.0" fill="#FEFFFE" transform="matrix(1.00, 0.00, -0.00, -1.00, 220.6, 358.0)">6</text></g></g></g><g><g><clipPath id="clip-1292"><path d="M 397.0 1.0 L 460.0 1.0 L 460.0 46.0 L 397.0 46.0 Z M 397.0 1.0 "></path></clipPath><g clip-path="url(#clip-1292)"><text xml:space="preserve" font-family="Chalkduster" font-size="30.0" fill="#FEFFFE" transform="matrix(1.00, 0.00, -0.00, -1.00, 398.0, 10.0)">3</text><text xml:space="preserve" font-family="Chalkduster" font-size="30.0" fill="#FEFFFE" transform="matrix(1.00, 0.00, -0.00, -1.00, 418.6, 10.0)">6</text><text xml:space="preserve" font-family="Chalkduster" font-size="30.0" fill="#FEFFFE" transform="matrix(1.00, 0.00, -0.00, -1.00, 438.6, 10.0)">3</text></g></g></g><g><g><clipPath id="clip-1293"><path d="M 436.0 74.0 L 495.0 74.0 L 495.0 119.0 L 436.0 119.0 Z M 436.0 74.0 "></path></clipPath><g clip-path="url(#clip-1293)"><text xml:space="preserve" font-family="Chalkduster" font-size="30.0" fill="#FEFFFE" transform="matrix(1.00, 0.00, -0.00, -1.00, 437.0, 83.0)">3</text><text xml:space="preserve" font-family="Chalkduster" font-size="30.0" fill="#FEFFFE" transform="matrix(1.00, 0.00, -0.00, -1.00, 457.6, 83.0)">9</text><text xml:space="preserve" font-family="Chalkduster" font-size="30.0" fill="#FEFFFE" transform="matrix(1.00, 0.00, -0.00, -1.00, 475.7, 83.0)">9</text></g></g></g><g><g><clipPath id="clip-1294"><path d="M 574.0 147.0 L 630.0 147.0 L 630.0 192.0 L 574.0 192.0 Z M 574.0 147.0 "></path></clipPath><g clip-path="url(#clip-1294)"><text xml:space="preserve" font-family="Chalkduster" font-size="30.0" fill="#FEFFFE" transform="matrix(1.00, 0.00, -0.00, -1.00, 575.0, 156.0)">5</text><text xml:space="preserve" font-family="Chalkduster" font-size="30.0" fill="#FEFFFE" transform="matrix(1.00, 0.00, -0.00, -1.00, 594.2, 156.0)">2</text><text xml:space="preserve" font-family="Chalkduster" font-size="30.0" fill="#FEFFFE" transform="matrix(1.00, 0.00, -0.00, -1.00, 611.1, 156.0)">7</text></g></g></g><g><g><clipPath id="clip-1295"><path d="M 537.0 238.0 L 601.0 238.0 L 601.0 282.0 L 537.0 282.0 Z M 537.0 238.0 "></path></clipPath><g clip-path="url(#clip-1295)"><text xml:space="preserve" font-family="Chalkduster" font-size="30.0" fill="#FEFFFE" transform="matrix(1.00, 0.00, -0.00, -1.00, 538.0, 247.0)">4</text><text xml:space="preserve" font-family="Chalkduster" font-size="30.0" fill="#FEFFFE" transform="matrix(1.00, 0.00, -0.00, -1.00, 565.5, 247.0)">9</text><text xml:space="preserve" font-family="Chalkduster" font-size="30.0" fill="#FEFFFE" transform="matrix(1.00, 0.00, -0.00, -1.00, 583.6, 247.0)">2</text></g></g></g><g><g><clipPath id="clip-1296"><path d="M 531.0 311.0 L 602.0 311.0 L 602.0 355.0 L 531.0 355.0 Z M 531.0 311.0 "></path></clipPath><g clip-path="url(#clip-1296)"><text xml:space="preserve" font-family="Chalkduster" font-size="30.0" fill="#FEFFFE" transform="matrix(1.00, 0.00, -0.00, -1.00, 532.0, 320.0)">4</text><text xml:space="preserve" font-family="Chalkduster" font-size="30.0" fill="#FEFFFE" transform="matrix(1.00, 0.00, -0.00, -1.00, 559.5, 320.0)">8</text><text xml:space="preserve" font-family="Chalkduster" font-size="30.0" fill="#FEFFFE" transform="matrix(1.00, 0.00, -0.00, -1.00, 583.6, 320.0)">7</text></g></g></g><g><g><clipPath id="clip-1297"><path d="M 233.0 384.0 L 286.0 384.0 L 286.0 428.0 L 233.0 428.0 Z M 233.0 384.0 "></path></clipPath><g clip-path="url(#clip-1297)"><text xml:space="preserve" font-family="Chalkduster" font-size="30.0" fill="#FEFFFE" transform="matrix(1.00, 0.00, -0.00, -1.00, 234.0, 393.0)">2</text><text xml:space="preserve" font-family="Chalkduster" font-size="30.0" fill="#FEFFFE" transform="matrix(1.00, 0.00, -0.00, -1.00, 250.9, 393.0)">1</text><text xml:space="preserve" font-family="Chalkduster" font-size="30.0" fill="#FEFFFE" transform="matrix(1.00, 0.00, -0.00, -1.00, 268.4, 393.0)">2</text></g></g></g></g></svg>