<?xml version="1.0" encoding="UTF-8" standalone="no"?><svg xmlns="http://www.w3.org/2000/svg" xmlns:xlink="http://www.w3.org/1999/xlink" clip-rule="evenodd" stroke-miterlimit="4.00" viewBox="0 0 309 112"><desc>SVG generated by Keynote</desc><defs></defs><g transform="matrix(1.00, 0.00, -0.00, -1.00, 0.0, 112.0)"><g><clipPath id="clip-1386"><path d="M 260.1 91.7 C 318.3 72.2 318.3 40.6 260.1 21.0 C 201.9 1.5 107.5 1.5 49.2 21.0 C -9.0 40.6 -9.0 72.2 49.2 91.7 C 107.5 111.3 201.9 111.3 260.1 91.7 Z M 260.1 91.7 "></path></clipPath><g clip-path="url(#clip-1386)"><image xlink:href="../../1BE7A03E-C66D-4413-94C1-F85C6D2757AE/assets/59DBD66EA15A3D40E065F836EF2595FD.jpeg" width="400.00" height="400.00" transform="matrix(1.00, 0.00, -0.00, -1.00, 5.6, 106.4)"></image></g></g><path d="M 76.5 9.8 C 76.0 10.0 75.5 10.1 74.7 10.3 C 75.1 10.3 75.4 10.3 75.4 10.4 C 76.0 10.2 76.9 10.0 78.3 9.7 C 78.2 9.7 77.5 9.8 77.1 9.9 C 76.5 10.0 76.6 9.9 76.5 9.8 C 76.5 9.8 76.5 9.8 76.5 9.8 Z M 68.0 100.5 C 66.8 100.2 68.0 100.7 68.5 100.9 C 68.5 100.8 68.6 100.8 69.0 100.9 C 69.1 101.1 68.1 100.9 67.3 100.8 C 64.2 100.0 66.6 100.1 68.0 100.5 C 68.0 100.5 68.0 100.5 68.0 100.5 Z M 236.1 101.5 C 238.7 101.0 235.9 101.3 235.5 101.3 C 236.7 101.0 235.6 100.8 237.1 100.5 C 237.4 100.5 238.0 100.5 238.3 100.5 C 237.7 100.7 236.7 100.9 236.6 101.0 C 237.5 100.8 238.7 100.5 238.9 100.6 C 237.0 101.1 238.6 100.9 239.0 100.9 C 237.3 101.3 236.7 101.6 236.1 101.5 C 236.1 101.5 236.1 101.5 236.1 101.5 Z M 276.6 24.6 C 277.5 25.1 278.3 25.5 278.0 25.5 C 277.0 25.0 276.4 24.7 275.8 24.4 C 275.6 24.4 275.9 24.7 275.0 24.3 C 274.0 23.6 274.7 23.6 275.2 23.7 C 275.2 23.9 278.6 25.4 276.6 24.6 C 276.6 24.6 276.6 24.6 276.6 24.6 Z M 207.2 7.3 C 204.8 6.9 207.0 7.6 204.7 7.2 C 204.7 7.0 204.4 6.7 206.0 6.9 C 206.1 7.0 207.0 7.2 207.2 7.3 C 207.2 7.3 207.2 7.3 207.2 7.3 Z M 165.4 107.6 C 165.4 107.7 167.2 107.6 166.7 107.9 C 165.8 107.9 165.0 107.9 164.1 107.9 C 163.9 107.7 164.2 107.6 165.4 107.6 C 165.4 107.6 165.4 107.6 165.4 107.6 Z M 252.1 95.1 C 254.6 94.7 257.0 93.5 256.3 94.0 C 257.3 93.9 254.9 95.2 254.9 94.9 C 254.6 94.7 250.2 95.7 252.1 95.1 C 252.1 95.1 252.1 95.1 252.1 95.1 Z M 82.0 99.2 C 84.8 99.9 84.3 99.1 86.1 99.8 C 85.5 99.7 85.2 99.7 85.0 99.7 C 85.4 99.8 86.1 99.9 86.1 100.0 C 84.8 99.8 83.1 99.6 82.0 99.2 C 82.0 99.2 82.0 99.2 82.0 99.2 Z M 118.4 4.6 C 118.9 4.5 119.2 4.4 119.1 4.3 C 121.1 4.2 121.1 4.0 122.3 4.1 C 122.4 4.4 120.7 4.4 119.1 4.5 C 119.1 4.6 118.6 4.6 118.4 4.6 C 118.4 4.6 118.4 4.6 118.4 4.6 Z M 175.9 4.5 C 175.9 4.3 174.7 4.2 176.6 4.2 C 178.7 4.6 176.8 4.7 174.6 4.7 C 174.6 4.8 174.6 4.9 174.6 5.0 C 175.5 5.1 176.0 5.1 176.5 5.2 C 176.9 4.9 178.4 5.6 181.7 5.6 C 180.1 5.6 181.8 6.0 179.7 5.8 C 180.3 6.0 178.8 5.9 179.1 6.1 C 180.0 6.1 182.2 6.2 181.7 5.9 C 182.8 6.0 183.7 6.0 184.3 6.1 C 185.1 6.5 182.2 6.1 183.0 6.4 C 183.6 6.4 183.7 6.5 184.2 6.5 C 184.4 6.5 184.1 6.3 184.9 6.3 C 186.9 6.6 184.5 6.6 187.4 6.8 C 187.6 6.7 186.7 6.6 186.8 6.5 C 188.1 6.4 188.1 6.6 189.4 6.6 C 189.6 6.8 188.4 6.7 189.4 6.8 C 190.2 6.5 192.0 7.3 193.9 7.1 C 192.7 6.5 194.2 7.3 195.8 6.9 C 196.2 7.1 195.0 7.3 196.4 7.5 C 195.9 6.8 201.6 7.5 197.1 6.6 C 199.5 6.8 200.4 6.4 198.4 6.1 C 202.6 6.7 201.3 6.2 202.9 6.4 C 204.5 6.6 202.0 6.4 202.9 6.7 C 201.2 6.5 201.6 6.7 200.3 6.4 C 200.3 6.5 200.0 6.6 199.6 6.6 C 201.4 6.6 203.4 7.2 202.1 7.3 C 201.3 7.2 202.1 7.0 200.9 6.9 C 201.3 7.3 199.7 6.7 199.6 6.9 C 200.4 7.3 197.9 7.3 200.2 7.6 C 200.2 7.5 200.2 7.3 200.3 7.2 C 200.9 7.3 201.5 7.4 202.1 7.4 C 202.6 7.7 202.2 7.8 202.7 8.0 C 203.8 8.1 204.3 8.1 204.6 8.0 C 203.4 7.8 201.9 7.4 204.0 7.6 C 203.1 8.0 207.0 8.1 205.2 8.2 C 207.5 8.6 208.7 8.4 208.9 8.7 C 210.1 8.9 209.4 8.5 210.8 8.7 C 213.1 9.3 212.7 8.9 215.7 9.5 C 216.1 9.2 216.0 9.6 216.9 9.8 C 216.9 9.7 217.0 9.5 217.0 9.4 C 218.0 9.8 220.4 10.3 223.0 10.4 C 223.6 10.6 223.1 10.8 224.7 11.0 C 226.5 11.0 228.5 11.7 230.6 11.8 C 230.8 12.0 232.2 12.3 232.9 12.3 C 233.2 12.5 232.2 12.6 233.5 12.8 C 234.4 12.8 232.9 12.4 234.7 12.7 C 234.5 12.9 236.4 12.8 236.4 13.1 C 235.8 13.1 235.2 13.0 234.6 13.0 C 235.4 13.2 235.1 13.3 235.7 13.4 C 235.7 13.1 237.0 13.6 237.5 13.8 C 237.4 13.6 237.6 13.6 238.1 13.6 C 239.1 13.8 239.8 14.0 240.3 14.0 C 241.6 14.4 239.6 14.1 240.8 14.4 C 241.6 13.9 242.7 14.9 245.3 15.2 C 245.9 15.5 246.9 15.9 248.5 16.4 C 248.7 16.2 247.0 15.8 247.0 15.7 C 249.3 16.4 246.6 15.4 248.1 15.8 C 251.5 16.9 253.6 17.5 257.0 18.7 C 257.0 18.5 259.6 19.2 259.6 19.3 C 259.2 19.2 259.6 19.4 260.1 19.7 C 260.7 19.9 262.2 20.5 263.1 20.9 C 263.8 20.7 266.7 21.4 267.0 21.3 C 267.6 21.7 267.4 21.6 267.6 22.1 C 270.6 23.4 272.3 23.7 273.9 24.8 C 273.8 24.6 275.1 25.1 276.2 25.6 C 275.9 25.6 275.2 25.4 274.5 25.3 C 276.0 25.9 276.2 26.1 277.4 26.7 C 278.9 26.7 280.5 28.5 281.7 28.4 C 283.6 29.4 283.2 29.4 284.8 30.4 C 284.8 30.2 285.0 30.2 285.5 30.4 C 284.4 29.9 283.5 29.6 283.1 29.0 C 285.6 30.3 278.6 25.8 282.9 27.8 C 283.0 28.0 282.5 27.9 283.4 28.4 C 285.7 29.6 284.5 28.7 283.5 28.2 C 285.1 28.9 286.7 29.9 285.6 29.0 C 289.1 30.9 286.8 29.8 287.9 30.6 C 293.8 34.1 299.8 39.0 303.1 45.0 C 303.5 45.0 304.9 48.3 305.1 49.4 C 305.9 51.0 306.3 52.9 306.1 53.5 C 306.4 53.7 306.1 55.6 306.4 55.8 C 306.4 55.0 306.4 54.5 306.5 55.3 C 306.5 57.8 305.7 61.5 305.4 63.0 C 304.8 63.8 304.3 65.4 303.8 66.5 C 303.6 66.6 304.0 65.8 303.6 66.4 C 303.6 66.7 302.4 69.0 301.9 69.5 C 302.4 68.8 302.6 67.9 302.0 68.9 C 302.1 69.0 301.2 70.1 301.6 69.9 C 300.5 71.2 299.9 72.1 298.8 73.2 C 299.6 72.2 300.0 71.6 300.0 71.3 C 299.4 72.2 299.0 72.9 298.2 73.3 C 298.6 73.4 297.3 74.5 296.0 75.9 C 295.5 76.2 295.1 76.3 293.9 77.3 C 293.5 78.0 296.0 76.0 294.6 77.2 C 294.6 77.1 293.2 78.0 293.7 78.0 C 291.9 79.2 291.1 80.0 289.4 80.9 C 291.4 79.6 289.7 80.3 289.2 80.6 C 288.8 80.9 288.1 81.3 288.2 81.4 C 288.2 81.5 289.2 80.8 289.4 80.8 C 287.9 81.6 287.8 82.2 287.1 82.3 C 287.7 81.9 287.8 81.8 287.0 82.2 C 287.1 82.6 282.5 85.0 283.9 83.9 C 284.0 84.0 285.7 83.0 285.8 82.8 C 285.3 83.0 282.8 84.6 283.2 84.1 C 284.7 83.2 284.7 83.4 286.3 82.4 C 286.4 82.1 287.4 81.5 287.9 81.0 C 285.4 82.6 284.8 83.2 284.3 83.2 C 283.1 83.9 284.0 83.7 281.9 84.8 C 278.8 86.3 281.2 84.8 280.4 85.1 C 277.7 86.7 278.6 86.5 280.0 86.1 C 277.7 87.2 277.1 87.7 274.2 88.9 C 274.3 88.7 274.6 88.5 275.6 88.0 C 275.7 88.0 278.1 87.1 277.8 87.0 C 277.5 86.8 275.6 87.6 272.4 88.9 C 273.3 88.9 273.3 88.6 270.1 90.0 C 270.7 90.1 268.4 90.6 268.4 90.8 C 268.6 90.8 269.8 90.3 270.9 89.9 C 270.9 90.1 270.6 90.3 269.5 90.8 C 268.7 91.0 268.2 91.4 266.1 92.0 C 265.9 91.9 267.3 91.3 267.6 91.0 C 266.5 91.5 266.3 91.7 265.1 92.1 C 264.0 92.3 264.0 92.0 264.0 91.6 C 265.3 91.1 267.3 90.3 265.6 90.8 C 270.6 88.9 265.5 91.2 267.4 90.5 C 269.3 89.4 268.4 90.3 271.4 89.0 C 272.4 88.6 272.6 88.4 273.0 88.2 C 272.7 88.2 270.9 88.7 272.8 87.9 C 273.4 87.8 274.4 87.5 276.0 86.8 C 275.9 86.7 272.8 88.0 275.9 86.6 C 277.3 85.9 276.2 86.9 278.1 85.9 C 278.1 85.8 278.6 85.5 278.8 85.4 C 275.9 86.8 279.2 85.0 277.2 85.8 C 279.7 84.5 277.8 85.8 279.4 85.0 C 279.4 84.8 282.0 83.8 282.0 83.5 C 281.1 84.1 279.1 85.1 279.2 84.7 C 281.1 83.9 288.3 79.3 285.7 81.4 C 286.7 80.6 291.2 77.1 291.0 77.5 C 289.6 78.5 289.8 78.6 289.7 78.8 C 292.1 76.8 293.5 76.0 295.4 73.7 C 293.0 75.9 294.6 73.9 292.9 75.1 C 292.2 75.7 291.2 76.4 291.1 76.6 C 291.5 76.6 292.6 75.6 293.0 75.1 C 293.1 75.3 293.2 75.5 293.4 75.6 C 290.3 77.9 288.4 79.3 286.7 80.4 C 288.1 79.4 283.6 81.8 285.3 80.7 C 286.1 80.4 287.9 79.3 289.3 78.4 C 289.3 78.3 289.2 78.3 289.2 78.2 C 289.8 77.8 290.6 77.2 290.6 77.1 C 288.9 78.4 287.7 78.9 286.4 80.0 C 286.4 79.9 286.3 79.9 286.3 79.8 C 286.0 80.0 285.6 80.2 285.7 80.1 C 286.4 79.7 287.3 79.1 287.4 79.0 C 285.9 79.8 285.5 79.8 283.7 80.8 C 284.0 80.3 281.6 81.4 284.0 79.8 C 284.5 79.8 285.9 79.1 285.9 79.2 C 286.7 78.8 288.0 77.9 288.6 77.3 C 287.9 77.7 286.5 78.5 286.2 78.4 C 287.3 77.6 288.1 76.9 288.9 76.7 C 286.8 78.3 290.1 76.0 291.1 75.6 C 290.8 75.7 290.3 76.0 289.9 76.1 C 291.5 74.9 292.3 74.5 292.1 74.2 C 293.8 72.6 293.6 73.1 294.7 72.1 C 293.7 72.5 295.3 71.3 294.3 71.8 C 296.1 70.0 295.1 71.5 295.7 70.9 C 296.2 70.3 296.1 70.2 296.6 69.7 C 297.4 69.0 298.6 67.4 299.0 67.4 C 299.5 66.7 299.6 66.6 300.0 65.9 C 300.1 65.7 300.1 65.4 300.2 65.1 C 300.4 65.0 300.7 64.6 300.7 64.4 C 299.4 66.1 299.7 65.6 298.1 67.4 C 298.1 67.6 297.9 67.9 298.3 67.5 C 297.4 68.9 296.9 69.2 295.8 70.4 C 295.6 70.4 295.1 70.4 294.2 71.6 C 294.3 71.2 293.9 71.4 294.3 70.9 C 294.9 70.5 295.8 69.8 296.5 69.0 C 296.5 68.9 296.3 68.9 296.6 68.5 C 297.0 68.2 297.6 67.6 297.8 67.1 C 297.9 67.2 297.8 67.4 297.7 67.6 C 299.1 65.9 298.4 66.3 299.3 65.0 C 299.1 65.2 298.6 66.0 298.9 65.2 C 299.5 64.0 299.8 63.8 300.1 63.2 C 300.1 63.1 300.0 63.1 300.1 62.8 C 300.7 62.0 299.7 64.9 300.7 63.5 C 300.5 63.3 301.2 61.8 301.4 61.6 C 301.5 62.2 300.8 63.0 301.0 63.1 C 302.2 60.3 301.6 63.2 302.4 60.3 C 302.3 60.3 302.2 60.3 302.1 60.2 C 301.9 61.4 301.6 61.4 301.4 61.2 C 301.1 62.2 300.6 62.5 300.4 63.3 C 300.1 62.8 300.8 62.5 301.1 61.5 C 300.9 61.5 300.5 62.4 300.3 62.4 C 301.4 60.3 301.2 59.7 301.7 57.6 C 301.4 58.1 301.7 56.4 301.5 56.6 C 301.6 58.4 300.8 57.6 300.7 57.9 C 300.6 59.0 301.1 58.6 301.2 59.3 C 300.8 59.6 300.8 59.4 300.5 59.2 C 300.7 58.2 300.7 58.3 300.6 57.5 C 300.9 56.9 301.3 56.3 301.4 57.2 C 301.4 57.0 301.3 55.7 301.4 55.6 C 301.5 56.9 301.6 55.4 301.7 56.2 C 301.8 55.2 301.3 53.4 301.1 52.0 C 301.0 52.2 300.8 51.7 300.7 51.8 C 301.4 53.0 300.9 53.4 301.0 54.6 C 300.9 54.0 300.8 54.4 300.8 54.6 C 300.8 53.4 300.4 52.8 300.3 51.9 C 300.3 51.9 300.2 51.9 300.1 52.0 C 299.8 50.5 299.8 50.7 299.1 49.7 C 299.0 49.2 299.7 49.6 300.0 49.6 C 299.6 49.1 298.6 47.1 299.0 48.4 C 298.3 47.2 298.8 47.4 298.0 46.1 C 297.7 46.3 298.5 47.4 297.9 47.1 C 297.2 46.1 297.9 46.5 297.0 45.7 C 297.2 45.5 297.3 45.4 296.5 44.4 C 297.0 45.2 296.4 44.4 296.0 44.2 C 296.4 44.7 296.6 45.1 296.8 45.4 C 295.5 43.6 295.1 43.2 293.6 41.9 C 294.3 42.2 293.6 41.3 294.6 42.2 C 293.6 41.4 292.6 40.1 291.9 39.7 C 292.5 40.3 293.5 41.3 293.8 41.7 C 290.8 38.9 288.6 37.7 285.1 35.0 C 285.7 35.4 286.6 36.0 286.8 36.0 C 286.4 35.7 285.7 35.3 285.7 35.2 C 287.0 36.1 288.2 36.9 288.8 37.3 C 289.8 38.1 288.1 37.0 289.2 37.8 C 289.4 37.8 291.2 39.4 290.7 38.6 C 288.9 37.5 287.2 36.0 286.5 35.1 C 284.4 34.3 286.3 35.4 283.9 34.5 C 284.0 34.4 283.5 34.0 282.9 33.6 C 283.4 34.3 280.7 32.6 280.4 32.4 C 281.6 32.8 285.5 35.0 283.7 33.5 C 284.3 34.6 279.1 30.8 279.9 31.8 C 277.2 30.4 278.3 30.6 276.6 30.1 C 276.6 30.0 276.9 29.9 276.1 29.5 C 275.2 29.2 274.9 29.1 274.6 29.0 C 278.7 31.1 277.3 30.8 279.7 32.1 C 279.3 31.9 278.9 31.7 279.0 31.8 C 279.0 31.9 278.9 31.9 278.4 31.6 C 278.3 31.2 276.3 30.6 275.8 30.1 C 276.6 30.5 277.4 30.9 277.2 30.6 C 273.8 29.0 274.7 29.0 269.5 26.7 C 271.0 27.5 268.9 26.7 267.0 26.0 C 264.4 24.9 265.6 24.9 262.1 23.7 C 262.2 24.1 261.3 23.8 259.8 23.2 C 258.4 22.7 257.7 22.4 256.4 22.2 C 256.8 21.9 253.6 20.9 252.9 20.9 C 252.8 20.8 251.7 20.5 250.9 20.2 C 250.7 20.0 251.7 20.3 250.9 20.0 C 250.2 19.9 250.8 20.3 249.8 20.0 C 248.7 19.6 249.0 19.4 247.3 19.0 C 247.2 19.2 248.1 19.4 247.2 19.3 C 245.7 18.8 244.3 18.5 245.5 19.0 C 243.3 18.5 244.5 18.3 242.3 17.8 C 243.0 18.1 242.9 18.2 241.8 17.9 C 241.0 17.5 241.0 17.4 240.7 17.3 C 240.0 17.3 240.2 17.4 238.5 16.9 C 238.5 17.0 238.4 17.1 238.4 17.2 C 237.6 17.0 236.4 16.8 236.2 16.6 C 237.7 17.0 237.3 16.7 237.9 16.8 C 236.4 16.4 233.5 15.5 235.7 16.3 C 233.5 15.9 234.6 15.8 232.9 15.5 C 233.9 16.0 233.0 15.6 231.2 15.2 C 231.3 15.6 230.0 15.0 228.8 14.9 C 229.0 15.1 228.7 15.1 227.7 15.0 C 227.7 14.8 227.1 14.7 225.9 14.5 C 225.9 14.6 228.3 15.2 225.9 14.7 C 224.8 14.4 224.8 14.1 223.0 13.8 C 222.6 13.5 224.7 13.9 224.3 13.6 C 222.7 13.6 222.3 13.3 220.1 12.9 C 220.9 13.5 215.6 12.8 218.2 13.4 C 217.4 13.3 216.3 13.4 215.8 13.1 C 216.6 13.2 215.2 12.7 215.2 12.7 C 214.2 12.6 211.7 12.1 211.6 12.2 C 213.9 12.5 213.9 12.7 214.6 13.0 C 211.2 12.6 208.2 12.1 208.5 11.9 C 208.5 12.0 208.0 11.9 207.9 12.0 C 209.1 12.1 209.8 12.6 208.4 12.5 C 208.8 12.2 207.8 12.0 206.7 11.8 C 206.6 12.1 202.1 11.2 202.9 11.6 C 204.8 11.6 206.2 12.2 204.7 12.2 C 203.6 11.8 201.2 11.4 201.7 11.3 C 201.1 11.3 200.4 11.3 199.8 11.3 C 199.3 11.4 200.7 11.6 200.4 11.7 C 199.5 11.6 198.1 11.5 197.9 11.4 C 200.4 11.6 196.6 11.1 199.2 11.2 C 197.6 11.1 197.3 10.9 196.1 10.7 C 196.1 10.8 195.6 10.8 195.4 10.8 C 196.6 10.8 197.6 11.0 197.3 11.3 C 195.0 11.1 195.4 10.8 193.5 10.7 C 193.0 10.8 190.4 10.9 189.1 10.6 C 191.6 10.8 188.9 10.5 190.4 10.5 C 192.7 10.8 193.3 10.6 194.2 10.5 C 193.2 10.3 191.3 10.0 191.0 10.3 C 192.3 10.4 192.3 10.3 192.9 10.3 C 192.9 10.4 192.5 10.5 191.6 10.5 C 190.6 10.2 188.2 10.2 189.8 10.0 C 188.2 10.0 186.4 9.6 184.7 9.7 C 186.6 9.9 187.9 10.1 188.5 10.3 C 186.9 10.3 185.4 9.9 185.3 10.1 C 185.5 10.3 188.0 10.4 188.4 10.6 C 186.4 10.7 183.5 9.8 185.9 10.5 C 184.8 10.4 183.2 10.3 182.7 10.1 C 184.1 10.2 182.6 9.8 182.1 9.7 C 180.9 9.6 180.0 9.6 179.5 9.7 C 181.3 9.7 182.7 10.1 181.4 10.1 C 181.1 9.9 180.7 10.1 180.2 10.1 C 180.1 9.9 178.0 9.9 177.6 9.8 C 177.7 9.9 178.7 10.0 178.9 10.1 C 177.7 10.1 175.9 10.3 175.0 10.0 C 175.8 10.0 176.9 10.1 176.9 10.0 C 173.6 9.4 172.6 9.1 168.6 8.8 C 169.1 8.8 169.4 8.8 169.2 8.7 C 166.7 8.6 165.1 8.4 165.4 8.3 C 163.8 8.3 163.0 8.4 162.2 8.5 C 163.8 8.7 164.4 8.5 165.4 8.7 C 164.8 8.7 166.6 9.2 167.3 9.3 C 170.1 9.2 170.3 9.6 173.1 9.5 C 172.3 9.8 175.2 9.7 174.4 9.9 C 171.7 9.4 169.2 9.6 165.4 9.4 C 165.9 9.2 166.3 9.0 164.7 8.9 C 162.3 8.7 163.5 9.1 161.5 9.0 C 160.6 8.8 161.8 8.7 160.8 8.6 C 160.1 8.7 158.2 8.7 157.6 8.5 C 160.3 8.5 157.1 8.2 158.9 8.1 C 158.0 8.1 157.5 8.1 156.9 8.1 C 159.5 8.4 154.3 8.4 156.3 8.6 C 152.7 8.7 156.0 8.0 153.0 8.0 C 154.5 8.2 152.6 8.3 150.5 8.3 C 149.9 8.1 147.7 8.0 145.9 8.0 C 146.8 8.1 147.5 8.1 145.9 8.3 C 146.8 8.4 148.3 8.4 149.1 8.2 C 149.1 8.3 149.4 8.4 149.8 8.5 C 147.7 8.5 148.6 8.7 147.9 8.7 C 147.2 8.6 145.6 8.7 145.3 8.5 C 145.3 8.6 144.7 8.7 144.6 8.7 C 147.4 8.7 144.2 9.1 145.9 9.1 C 147.1 9.1 146.3 8.8 147.9 8.8 C 149.3 9.1 146.7 9.2 145.9 9.4 C 147.2 9.6 148.7 9.2 149.1 9.5 C 147.5 9.8 144.8 9.7 142.7 9.6 C 142.8 10.0 139.1 9.7 138.8 10.1 C 138.5 10.0 138.1 9.9 137.5 9.9 C 136.9 10.2 136.2 9.9 135.6 9.9 C 135.5 10.0 135.7 10.1 136.2 10.2 C 133.6 10.2 133.0 10.2 129.9 10.5 C 129.3 10.4 128.8 10.3 128.5 10.1 C 129.3 10.0 129.9 9.9 130.4 9.8 C 126.2 10.0 129.0 10.5 126.0 10.3 C 126.1 10.5 128.2 10.6 126.6 10.8 C 123.9 10.6 120.2 11.2 120.2 10.5 C 117.9 10.5 116.3 11.1 115.2 10.9 C 114.5 11.0 114.2 11.1 113.9 11.2 C 114.7 11.2 115.6 11.3 116.5 11.3 C 117.9 11.1 118.5 11.3 117.1 11.0 C 119.2 10.8 119.8 10.9 120.9 11.0 C 118.0 11.4 115.4 11.4 115.3 11.8 C 114.3 11.7 113.5 11.6 112.7 11.5 C 112.4 11.7 109.2 12.1 109.0 11.9 C 111.1 11.7 113.4 11.2 111.4 11.2 C 106.1 12.0 103.1 11.9 98.5 12.8 C 98.3 12.7 98.7 12.5 97.8 12.6 C 97.8 12.7 97.7 12.8 97.2 13.0 C 95.8 13.1 95.0 13.2 93.0 13.5 C 93.1 13.2 92.8 13.1 91.7 13.2 C 91.2 13.5 89.3 14.3 88.2 14.4 C 89.4 14.2 87.8 14.2 87.0 14.3 C 87.8 14.5 81.7 15.0 83.5 15.0 C 81.1 15.5 80.1 15.5 80.0 15.4 C 79.2 15.6 78.6 15.8 77.7 16.1 C 77.2 15.8 73.2 16.9 72.6 16.9 C 74.0 16.7 74.2 16.3 73.1 16.5 C 72.4 16.9 68.9 17.9 68.2 18.0 C 68.4 17.9 68.6 17.6 70.3 17.1 C 67.4 17.7 67.5 18.1 66.6 18.6 C 66.6 18.2 65.4 18.8 65.0 19.0 C 64.0 19.1 65.0 18.9 64.9 18.7 C 63.9 18.9 63.5 18.9 62.2 19.2 C 62.6 19.4 61.1 19.6 60.6 19.7 C 60.4 20.0 59.7 20.3 58.6 20.6 C 60.0 19.8 52.0 22.2 53.9 21.8 C 52.4 22.6 52.3 22.1 50.3 22.7 C 50.0 23.0 48.9 23.3 49.9 23.1 C 49.2 23.4 48.3 23.7 47.9 23.7 C 47.5 23.8 47.1 23.9 45.5 24.5 C 47.0 24.3 42.4 25.6 43.2 25.7 C 41.7 25.8 39.5 27.3 37.0 28.0 C 37.0 28.1 36.3 28.4 36.2 28.5 C 35.9 28.8 39.2 27.4 37.1 28.4 C 34.5 29.3 35.9 28.7 35.5 28.7 C 28.9 31.8 22.4 35.5 18.1 38.9 C 18.7 38.6 18.7 38.7 17.8 39.4 C 16.3 40.1 12.5 44.3 12.2 45.1 C 11.6 45.3 10.5 47.5 10.1 47.8 C 10.4 47.4 10.6 46.5 10.1 47.3 C 10.0 48.1 9.4 48.7 9.3 49.6 C 8.8 49.9 8.2 52.5 8.1 51.2 C 7.9 51.7 7.8 52.0 7.7 52.3 C 8.0 52.4 7.8 52.9 8.2 52.0 C 7.3 54.3 7.6 54.8 7.4 56.6 C 7.5 56.9 7.6 55.5 7.7 56.6 C 7.6 56.6 7.6 56.6 7.5 56.6 C 7.5 56.9 7.7 57.1 7.6 57.3 C 7.4 57.2 7.4 56.6 7.1 56.6 C 7.3 57.4 7.0 58.1 7.3 58.4 C 7.1 57.1 7.7 57.9 7.6 58.7 C 7.3 58.0 8.2 61.5 8.8 62.5 C 8.8 63.2 8.3 61.3 8.2 61.5 C 8.9 63.6 8.9 63.5 9.3 63.6 C 9.7 64.7 9.8 65.2 10.9 66.5 C 11.3 67.3 10.4 66.1 10.9 67.0 C 11.3 67.4 11.6 67.5 12.2 68.3 C 13.3 70.5 18.8 74.4 21.5 77.2 C 20.4 76.2 22.1 77.2 23.8 78.4 C 23.9 78.5 23.6 78.5 24.2 78.9 C 24.2 78.7 24.9 79.0 26.1 79.7 C 26.2 79.9 25.9 79.9 26.6 80.3 C 27.2 80.3 28.7 81.5 29.8 81.9 C 30.1 82.3 27.4 80.7 27.1 80.8 C 30.2 82.7 31.0 82.8 33.7 84.1 C 32.2 83.5 34.6 84.9 35.0 85.1 C 34.5 84.6 36.8 85.5 35.2 84.6 C 36.3 85.1 38.0 85.8 38.1 86.0 C 37.5 85.7 36.6 85.3 36.6 85.4 C 38.0 85.9 39.7 87.0 40.4 87.0 C 39.5 86.6 38.9 86.3 38.9 86.1 C 39.4 86.2 39.8 86.3 40.6 86.6 C 38.2 86.2 44.9 88.6 45.4 88.6 C 45.9 89.2 46.3 89.3 46.0 89.4 C 49.0 90.5 49.1 90.2 50.2 90.5 C 49.8 90.7 49.4 90.8 51.0 91.4 C 50.7 91.0 52.7 91.7 52.2 91.1 C 56.4 92.4 57.2 93.0 59.9 93.7 C 59.9 93.6 59.1 93.4 59.9 93.5 C 61.1 94.0 62.2 94.3 63.0 94.7 C 63.7 94.7 62.8 94.4 63.6 94.5 C 65.5 95.3 65.0 95.4 66.7 96.1 C 68.9 96.4 68.1 96.4 69.5 96.4 C 68.9 96.3 68.2 96.0 69.0 96.1 C 70.3 96.7 70.8 97.1 71.1 97.2 C 70.1 97.0 69.4 96.8 68.9 96.6 C 68.5 96.7 67.2 96.3 68.3 96.8 C 66.9 96.4 65.4 96.0 63.3 95.5 C 64.0 95.9 61.6 95.1 62.2 95.5 C 64.4 96.0 64.9 96.3 67.1 96.8 C 66.7 96.4 68.9 97.1 69.3 97.3 C 69.3 97.1 70.9 97.5 70.5 97.2 C 72.2 97.6 72.1 97.7 73.9 98.0 C 74.0 98.2 73.7 98.2 74.4 98.4 C 75.0 98.3 75.5 98.7 76.1 98.8 C 75.7 98.5 78.2 99.2 78.4 99.0 C 77.8 98.9 76.8 98.7 76.7 98.6 C 79.5 99.2 77.3 98.5 76.8 98.2 C 76.9 98.3 75.8 98.4 75.6 98.2 C 78.0 98.5 72.4 97.1 74.5 97.6 C 76.3 98.1 76.2 97.8 78.0 98.3 C 80.0 99.1 77.5 98.9 79.5 99.6 C 80.9 99.7 81.8 99.9 82.0 99.7 C 82.2 99.8 82.5 100.0 83.0 100.1 C 83.6 100.1 81.4 99.6 83.1 99.8 C 84.0 100.0 82.9 100.2 84.8 100.5 C 85.7 100.4 82.6 99.8 84.3 100.0 C 86.1 100.7 83.9 99.9 86.1 100.2 C 86.2 100.3 86.6 100.4 87.3 100.5 C 87.4 100.6 87.0 100.7 87.8 100.9 C 88.3 100.5 88.6 101.2 90.2 101.4 C 91.1 101.2 88.6 100.9 89.1 100.8 C 90.8 101.4 91.9 101.2 92.6 101.3 C 91.1 101.3 94.9 101.9 95.0 102.1 C 94.6 101.8 95.4 102.0 97.6 102.1 C 97.6 102.5 100.1 102.5 100.5 103.0 C 100.9 102.9 101.5 102.9 101.8 102.8 C 101.1 102.7 100.4 102.6 100.6 102.5 C 101.2 102.6 101.8 102.6 102.5 102.7 C 103.5 103.0 100.7 103.2 104.9 103.6 C 104.4 103.3 106.2 103.4 107.4 103.5 C 107.3 103.2 105.7 103.3 105.6 103.1 C 107.0 103.1 108.4 103.4 109.3 103.7 C 111.7 103.8 114.6 104.2 118.1 104.4 C 118.9 104.7 115.1 104.4 117.5 104.7 C 118.5 104.8 118.0 104.5 119.4 104.7 C 118.0 105.6 129.0 105.6 129.6 106.0 C 130.1 105.9 133.2 106.1 132.9 105.8 C 130.8 105.9 129.3 105.5 128.3 105.3 C 126.4 105.3 130.1 105.7 128.3 105.6 C 128.2 105.5 125.5 105.4 125.8 105.2 C 128.5 105.4 124.3 104.9 126.4 104.8 C 129.0 105.0 134.1 105.0 132.9 105.3 C 132.9 105.2 131.8 105.1 131.6 105.2 C 134.5 105.5 136.2 105.3 137.4 105.2 C 138.8 105.5 144.0 105.3 142.6 105.4 C 143.1 105.6 139.5 105.2 140.0 105.5 C 145.4 105.7 145.5 105.5 149.1 105.7 C 148.0 105.4 152.8 105.4 152.4 105.5 C 152.4 105.7 153.5 105.9 155.6 105.6 C 155.3 105.9 156.5 106.0 157.6 106.0 C 158.1 105.8 156.7 105.8 156.9 105.6 C 158.0 105.6 159.1 105.6 160.2 105.6 C 160.3 105.7 160.1 105.8 160.8 105.8 C 162.0 105.7 166.4 105.3 166.0 105.5 C 164.2 105.8 169.0 105.7 166.1 106.0 C 166.9 105.9 166.9 106.0 168.0 106.0 C 168.0 105.9 168.0 105.8 168.0 105.7 C 170.4 105.6 169.2 106.0 171.3 106.0 C 171.4 105.8 172.3 105.8 172.6 105.7 C 171.7 105.7 171.7 105.8 170.6 105.8 C 171.8 105.4 168.5 105.7 168.6 105.4 C 170.9 105.3 170.9 105.5 171.9 105.6 C 174.7 105.3 173.4 105.5 176.4 105.4 C 176.4 105.3 175.6 105.3 175.8 105.2 C 179.4 105.1 179.1 105.6 181.6 105.3 C 181.0 105.3 178.8 105.7 180.3 105.6 C 182.0 105.4 182.5 105.1 184.8 104.9 C 184.9 105.0 184.7 105.1 185.5 105.1 C 186.4 104.9 186.4 104.7 187.3 104.6 C 187.5 104.7 188.7 104.5 189.2 104.4 C 190.1 104.6 188.9 104.7 189.9 104.7 C 191.8 104.5 192.7 103.9 194.3 103.8 C 194.3 104.2 196.0 103.9 197.5 103.7 C 197.8 104.0 201.0 103.6 203.2 103.4 C 202.6 103.2 204.8 103.0 204.3 102.9 C 203.3 103.0 202.7 103.0 202.5 102.9 C 204.9 102.6 205.7 103.0 207.5 102.4 C 208.4 102.4 209.5 102.4 211.2 102.3 C 211.3 102.1 208.3 102.4 209.9 102.1 C 210.1 102.2 210.6 102.1 211.1 102.0 C 210.9 102.3 212.2 102.2 213.0 102.2 C 214.4 101.8 217.4 101.7 216.0 101.6 C 218.3 101.2 216.9 101.9 218.6 101.6 C 217.6 101.4 220.6 100.9 219.1 101.0 C 221.3 100.5 221.2 101.0 220.3 101.2 C 222.4 101.0 222.8 100.7 223.9 100.6 C 222.9 100.6 226.0 99.9 224.4 100.3 C 224.0 100.6 226.4 100.1 226.8 100.1 C 226.1 100.1 227.2 99.9 225.6 100.0 C 227.2 99.7 229.4 99.2 230.9 99.2 C 232.8 98.6 234.6 98.2 233.8 98.7 C 235.5 98.2 234.9 98.4 236.7 98.0 C 236.6 98.0 236.1 98.0 236.0 98.0 C 238.4 97.5 238.0 97.7 241.1 97.0 C 240.8 97.4 242.8 96.9 243.4 96.9 C 242.2 97.2 241.1 97.4 240.1 97.6 C 239.9 97.8 240.9 97.6 240.1 97.8 C 240.0 97.8 239.5 97.8 239.0 97.9 C 241.1 97.7 236.4 98.9 237.9 98.3 C 237.9 98.4 238.0 98.4 238.4 98.3 C 238.0 98.1 238.0 98.2 238.4 97.9 C 237.3 98.2 236.4 98.1 236.1 98.4 C 236.2 98.5 237.2 98.2 237.3 98.3 C 234.7 99.0 236.5 98.2 234.4 98.7 C 234.0 99.0 235.1 98.9 235.6 98.9 C 233.7 99.3 232.1 99.7 231.6 99.6 C 229.8 100.0 231.7 99.8 230.5 100.1 C 229.9 100.2 229.9 100.0 228.7 100.2 C 227.4 100.5 229.5 100.2 228.2 100.5 C 226.7 100.6 229.1 100.0 226.9 100.3 C 227.5 100.6 224.9 100.6 225.1 100.8 C 226.4 100.6 226.5 100.9 225.8 100.8 C 222.8 101.0 221.0 102.2 218.0 102.1 C 218.0 102.2 217.5 102.3 217.4 102.4 C 219.6 102.2 222.8 101.7 223.5 101.9 C 225.2 101.6 224.9 101.4 225.2 101.2 C 227.3 101.2 227.1 101.2 226.0 101.8 C 222.6 102.5 221.1 102.5 218.8 102.8 C 217.5 103.2 218.9 102.9 219.4 102.9 C 212.2 103.8 217.8 103.7 215.2 104.0 C 215.2 103.9 214.7 103.9 214.0 103.9 C 214.0 104.0 212.9 104.2 212.7 104.3 C 213.2 104.2 213.5 104.2 213.3 104.3 C 211.6 104.7 212.2 104.3 212.1 104.2 C 213.5 104.0 214.4 103.9 214.5 103.7 C 212.8 104.1 211.3 104.0 210.2 104.5 C 208.5 104.3 211.0 103.6 210.1 103.5 C 210.4 103.3 209.0 104.3 207.7 104.5 C 205.5 104.8 205.5 105.1 203.4 105.3 C 202.8 105.1 205.4 105.0 205.2 104.8 C 204.6 104.8 204.5 104.8 203.9 104.8 C 202.5 105.0 202.6 105.2 201.5 105.4 C 200.8 105.3 200.5 105.4 199.6 105.6 C 198.2 105.7 200.4 105.4 198.9 105.5 C 197.4 105.6 196.3 106.0 195.8 106.0 C 195.7 105.9 195.9 105.8 195.2 105.8 C 193.4 106.2 193.0 106.2 195.2 106.2 C 193.2 106.3 192.4 106.5 192.7 106.7 C 195.7 106.5 196.4 106.4 197.8 106.6 C 198.3 106.2 199.2 106.3 200.3 106.3 C 199.6 105.9 201.6 106.1 202.2 105.8 C 201.5 105.9 200.7 105.9 200.3 105.9 C 203.4 105.6 203.4 105.6 205.9 104.9 C 205.9 105.0 206.2 105.1 206.5 105.1 C 205.7 105.3 203.5 105.5 203.4 105.7 C 205.2 105.8 205.8 105.3 207.8 105.3 C 208.7 105.0 206.2 105.2 207.8 105.0 C 208.6 105.1 209.6 105.1 210.9 105.0 C 212.2 104.8 212.9 104.6 214.0 104.3 C 214.1 104.4 214.2 104.5 215.2 104.3 C 215.2 104.2 214.1 104.3 215.2 104.1 C 218.5 103.9 220.6 103.8 223.7 103.1 C 222.6 103.2 220.1 103.4 221.3 103.2 C 222.7 103.1 224.6 102.5 226.1 102.4 C 226.6 102.4 224.3 102.7 224.9 103.0 C 226.3 102.7 227.2 102.6 227.9 102.5 C 227.9 102.4 229.5 102.1 229.0 102.0 C 227.9 102.2 227.6 102.5 227.3 102.5 C 228.1 101.6 231.6 101.9 233.8 101.4 C 235.2 101.0 232.7 101.4 234.3 101.0 C 235.3 100.7 235.9 101.1 234.4 101.6 C 233.3 101.7 232.9 102.1 232.6 101.8 C 232.2 102.0 231.5 102.1 231.5 102.1 C 232.3 102.0 232.2 102.2 232.7 102.2 C 231.5 102.3 231.5 102.8 230.4 102.8 C 231.1 102.6 231.3 102.5 231.5 102.4 C 228.4 103.1 227.4 103.1 225.6 103.3 C 226.6 103.2 225.5 103.4 225.6 103.6 C 227.0 103.3 229.6 102.9 228.0 103.3 C 226.9 103.2 226.2 104.1 225.1 104.0 C 225.9 103.8 225.8 103.7 226.2 103.6 C 225.0 103.8 225.0 103.6 223.8 103.7 C 219.9 104.8 216.9 104.6 210.5 106.0 C 208.2 106.3 212.5 105.7 212.3 105.5 C 211.6 105.6 211.5 105.5 211.0 105.6 C 211.0 105.9 209.9 105.7 209.2 106.0 C 209.2 105.8 206.2 106.4 204.7 106.4 C 204.7 106.5 204.9 106.6 204.2 106.7 C 199.5 106.9 191.1 108.1 187.6 108.1 C 187.7 108.3 186.1 108.4 185.7 108.5 C 183.4 108.7 184.4 108.4 181.2 108.8 C 179.5 109.0 181.5 108.6 181.8 108.6 C 176.9 109.0 172.5 108.9 169.4 109.3 C 167.8 109.4 169.4 109.1 166.1 109.2 C 166.1 109.5 161.0 109.1 160.3 109.5 C 158.3 109.6 154.7 109.1 156.3 109.5 C 153.6 109.5 155.4 109.2 154.3 109.2 C 152.4 109.2 154.9 109.8 153.0 109.8 C 153.2 109.5 151.6 109.6 150.4 109.4 C 151.9 109.4 152.8 109.4 153.0 109.2 C 151.7 109.4 151.8 109.2 149.8 109.2 C 148.2 109.3 143.8 109.5 142.5 109.1 C 142.5 109.2 142.8 109.3 143.2 109.3 C 141.9 109.3 140.4 109.0 140.5 109.3 C 137.6 109.2 136.3 108.9 134.7 109.1 C 133.4 109.1 135.1 108.9 131.4 108.7 C 131.3 108.9 124.7 108.5 123.0 108.2 C 122.9 108.5 122.5 108.2 121.7 108.1 C 121.6 108.2 121.8 108.3 121.0 108.3 C 120.9 108.2 120.3 108.2 119.8 108.2 C 120.2 107.8 117.4 108.1 117.2 107.8 C 117.8 107.8 117.8 107.6 117.2 107.6 C 117.0 107.8 114.4 107.2 114.7 107.4 C 115.2 107.6 117.0 107.7 116.5 107.8 C 114.0 107.7 115.0 107.5 113.4 107.3 C 113.5 107.4 114.5 107.6 113.3 107.5 C 111.6 107.3 113.2 107.5 112.1 107.2 C 111.2 107.1 109.5 107.1 108.9 107.1 C 109.1 107.1 108.5 106.9 108.3 106.9 C 105.0 106.4 97.7 105.8 94.6 105.0 C 94.4 105.0 93.7 105.0 93.9 105.2 C 92.1 104.8 92.2 104.9 90.3 104.5 C 90.3 104.6 90.3 104.7 90.3 104.8 C 87.8 104.5 90.1 104.4 88.5 104.2 C 88.2 104.7 87.6 103.8 86.1 103.6 C 85.9 103.7 85.2 103.6 85.4 103.8 C 83.2 103.4 83.3 103.1 81.4 102.8 C 81.8 102.9 82.0 103.8 81.7 104.0 C 81.4 103.8 80.9 103.6 80.0 103.4 C 81.1 103.3 80.7 102.3 77.8 102.1 C 79.4 102.3 79.9 102.5 79.5 102.6 C 77.4 102.3 76.7 101.9 74.9 101.5 C 74.6 101.7 75.9 102.0 75.4 102.2 C 74.9 102.1 74.7 102.1 74.8 102.3 C 72.9 101.8 72.8 101.6 70.8 101.3 C 70.8 101.2 71.2 101.2 71.9 101.5 C 71.9 101.3 71.9 101.1 73.1 101.3 C 73.3 101.5 72.5 101.6 74.3 101.9 C 74.3 101.8 74.3 101.6 74.3 101.5 C 73.1 101.2 70.1 100.4 69.8 100.4 C 70.4 100.7 71.4 100.9 70.8 101.1 C 68.7 100.5 68.1 100.1 66.4 99.5 C 63.4 98.9 58.1 97.4 58.7 97.9 C 56.9 97.3 57.5 97.5 56.0 97.0 C 56.4 97.4 54.2 96.6 54.3 96.8 C 56.2 97.3 55.7 97.2 57.5 97.7 C 57.5 97.8 57.1 97.9 56.4 97.7 C 56.3 97.5 55.5 97.3 54.3 96.9 C 54.5 97.0 55.5 97.6 54.2 97.2 C 54.1 97.1 53.8 97.0 53.2 96.8 C 53.2 96.7 53.3 96.6 53.3 96.4 C 54.1 96.6 54.9 96.8 55.5 96.9 C 55.0 96.7 54.9 96.6 54.4 96.5 C 54.1 96.5 52.0 95.7 51.8 95.8 C 52.7 96.1 53.2 96.4 52.3 96.1 C 52.1 96.0 50.7 95.5 50.2 95.5 C 51.9 96.2 51.2 96.0 52.1 96.5 C 51.1 96.2 50.7 96.0 50.2 95.8 C 50.0 95.7 49.7 95.6 49.4 95.5 C 49.1 95.3 49.1 95.3 48.0 95.0 C 48.0 94.8 48.1 94.6 48.8 94.7 C 48.1 94.3 45.7 93.5 43.7 92.8 C 41.6 92.1 39.7 91.4 38.8 91.0 C 40.1 91.6 41.6 91.8 39.7 91.0 C 39.7 91.1 38.3 90.5 38.0 90.5 C 37.2 90.7 38.8 91.6 40.1 92.4 C 38.6 91.8 38.2 91.8 36.8 91.2 C 36.4 90.8 38.0 91.1 36.3 90.3 C 35.8 90.5 33.1 88.9 32.4 88.9 C 33.5 89.5 34.3 89.9 33.0 89.4 C 33.3 89.3 30.9 88.3 30.9 88.2 C 32.9 89.0 33.5 89.0 34.7 89.6 C 33.2 88.9 36.0 89.9 33.4 88.7 C 32.1 88.3 31.4 88.3 28.8 87.0 C 27.9 86.4 28.9 86.6 27.6 86.0 C 27.9 86.4 25.2 85.0 26.9 85.7 C 26.0 85.2 25.5 84.9 25.0 84.6 C 26.2 85.5 20.1 82.3 20.9 83.0 C 21.1 82.7 21.0 82.2 20.7 82.0 C 19.5 81.5 18.4 80.6 15.8 78.6 C 15.7 78.9 15.4 78.3 14.3 77.5 C 14.1 77.5 14.9 78.3 14.2 77.7 C 13.1 76.7 13.1 76.6 13.0 76.3 C 12.2 75.6 11.6 75.1 11.3 74.7 C 11.2 74.7 11.4 75.0 11.5 75.2 C 8.9 72.3 7.5 71.0 6.0 68.5 C 6.5 69.6 7.0 69.6 6.5 68.8 C 6.1 68.3 5.8 67.9 5.5 67.6 C 5.7 68.3 5.6 68.0 5.0 66.7 C 4.3 65.7 4.8 67.4 4.4 66.5 C 4.0 65.5 4.4 66.0 4.2 65.4 C 4.0 65.0 3.8 64.5 3.6 64.1 C 3.8 65.0 3.4 64.1 3.0 63.3 C 3.5 63.8 3.4 63.4 2.8 61.8 C 2.9 61.6 3.2 62.4 3.1 61.7 C 3.0 61.4 2.3 60.1 2.4 59.0 C 2.5 59.3 2.6 59.5 2.7 59.4 C 2.3 58.2 2.6 57.2 2.7 56.1 C 2.5 57.2 2.3 56.6 2.1 57.1 C 2.3 56.0 2.1 54.6 2.5 53.8 C 2.2 55.4 3.0 53.9 3.1 52.9 C 2.9 52.7 2.7 54.3 2.5 53.8 C 2.4 53.2 3.0 52.1 2.9 51.5 C 2.7 51.5 2.7 52.2 2.6 52.4 C 2.7 51.5 2.4 52.6 2.5 51.9 C 2.9 51.5 2.7 50.9 2.8 50.4 C 3.1 49.9 3.8 48.8 3.8 48.2 C 3.8 48.2 3.5 49.0 3.4 49.1 C 4.1 46.5 4.9 45.9 6.0 43.6 C 6.3 43.4 6.6 43.1 7.1 42.5 C 7.0 42.4 7.2 42.0 7.6 41.5 C 8.4 40.6 9.2 39.8 10.4 38.7 C 10.3 39.1 9.9 39.7 11.4 38.2 C 11.4 38.0 10.7 38.6 11.3 38.1 C 11.3 38.1 11.7 37.8 11.7 37.6 C 11.7 37.6 11.6 37.6 11.6 37.5 C 11.1 37.9 10.7 38.3 10.4 38.7 C 10.3 38.6 10.1 38.7 9.7 38.9 C 11.4 37.0 11.6 37.5 12.8 36.2 C 13.2 36.3 13.7 36.0 12.8 37.1 C 13.9 36.1 14.6 35.3 14.8 34.9 C 13.4 36.1 13.7 35.5 13.2 35.7 C 14.1 35.0 14.0 34.9 14.5 34.4 C 15.7 33.7 13.6 35.7 15.8 34.0 C 13.9 35.1 17.0 32.8 18.3 32.0 C 18.0 32.0 17.6 32.3 18.1 31.8 C 21.3 29.4 21.6 30.3 23.5 28.6 C 23.4 28.9 24.5 28.3 25.0 28.1 C 23.1 29.2 22.7 29.5 22.0 30.0 C 22.1 30.0 22.7 29.8 23.2 29.5 C 23.1 29.3 23.6 29.0 24.5 28.7 C 24.9 28.2 24.5 28.0 26.0 27.0 C 26.2 27.0 26.0 27.2 26.8 26.8 C 27.4 26.2 26.3 27.5 29.7 25.7 C 29.1 25.9 28.7 26.0 28.9 25.7 C 30.4 24.7 30.1 25.0 32.4 23.9 C 33.4 23.8 31.0 25.0 30.5 25.6 C 32.0 24.8 33.2 23.9 34.9 23.3 C 33.6 23.8 34.7 23.0 36.3 22.3 C 37.7 21.8 36.3 22.7 38.0 22.0 C 39.3 21.4 40.0 20.9 38.7 21.3 C 41.7 20.2 40.9 20.2 43.6 19.3 C 43.7 19.4 43.0 19.7 42.0 20.0 C 42.2 20.0 41.9 20.2 42.9 19.9 C 43.7 19.4 45.1 18.9 46.6 18.3 C 48.1 17.7 49.0 17.4 49.6 17.1 C 52.0 16.8 54.5 15.5 57.0 14.9 C 56.0 15.5 60.1 14.1 61.4 14.1 C 62.1 13.8 64.3 12.7 63.5 13.1 C 63.8 13.4 65.2 12.9 66.4 12.7 C 66.3 12.6 66.3 12.6 66.3 12.5 C 68.8 11.8 69.4 11.9 70.3 11.9 C 73.4 11.1 76.9 10.7 80.7 9.7 C 81.8 9.8 82.6 9.6 85.0 9.3 C 84.9 9.1 86.7 8.8 88.5 8.5 C 88.1 8.3 89.7 8.1 89.7 8.0 C 88.1 8.2 88.6 7.8 87.8 7.9 C 90.0 7.8 90.9 7.1 92.7 7.1 C 90.6 7.5 90.0 7.9 89.8 8.4 C 92.2 7.9 93.6 7.8 94.1 7.9 C 94.2 7.7 93.9 7.6 93.4 7.6 C 94.2 7.5 95.0 7.4 95.8 7.3 C 96.1 7.4 94.9 7.6 95.8 7.5 C 96.4 7.3 97.1 7.2 97.7 7.0 C 98.4 7.2 96.7 7.3 96.5 7.5 C 99.8 7.1 98.3 6.8 100.1 6.5 C 100.6 6.6 100.5 6.9 102.1 6.8 C 102.7 6.5 102.8 6.3 104.5 6.1 C 105.6 6.0 104.5 6.4 105.8 6.3 C 106.0 6.2 106.5 6.2 107.1 6.2 C 107.0 6.0 107.6 5.9 108.3 5.8 C 108.5 5.9 109.7 5.7 110.2 5.6 C 110.3 5.7 112.3 5.8 112.8 5.6 C 112.8 5.5 111.6 5.6 111.5 5.5 C 112.9 5.4 113.9 5.3 114.7 5.1 C 115.2 5.7 117.5 5.0 120.4 5.1 C 122.2 4.7 120.0 4.7 122.3 4.4 C 123.7 4.4 122.1 4.6 122.4 4.8 C 122.8 4.8 124.9 4.9 125.0 4.6 C 125.0 4.5 123.8 4.7 123.7 4.6 C 125.4 4.2 125.3 4.5 126.3 4.6 C 126.1 4.4 127.3 4.2 127.5 4.1 C 132.2 3.6 132.2 4.1 134.1 4.2 C 134.1 4.1 135.2 4.1 135.3 4.0 C 134.0 4.1 132.2 4.0 134.1 3.9 C 133.8 4.0 136.5 3.8 136.7 3.7 C 136.3 3.6 134.6 3.7 135.3 3.4 C 137.8 3.2 136.8 3.8 138.6 3.5 C 138.8 3.6 137.8 3.7 137.3 3.8 C 138.1 3.7 139.2 3.7 139.3 3.8 C 138.3 3.9 138.3 4.1 138.0 4.2 C 139.2 4.0 141.5 4.1 139.9 3.8 C 142.5 3.8 145.0 3.6 143.2 3.4 C 145.3 3.3 144.1 3.7 145.9 3.4 C 145.6 3.7 145.1 3.9 146.5 4.1 C 146.8 3.9 147.9 3.8 147.8 3.6 C 150.9 3.6 151.8 3.9 153.1 4.1 C 151.9 3.7 153.5 4.0 155.0 3.7 C 156.0 3.8 155.1 4.2 157.6 4.1 C 154.9 3.7 160.8 4.0 159.6 3.6 C 162.9 3.8 162.8 3.8 166.2 4.0 C 165.9 4.1 165.0 4.2 163.6 4.2 C 164.6 4.0 160.7 4.0 161.0 4.1 C 161.0 4.2 161.0 4.2 161.0 4.3 C 163.4 4.3 165.1 4.4 166.2 4.5 C 166.7 4.4 167.9 4.3 167.5 4.0 C 169.8 4.4 172.3 4.1 173.4 4.4 C 172.6 4.4 171.8 4.3 172.1 4.5 C 173.0 4.4 174.2 4.4 174.0 4.2 C 172.1 4.1 171.8 4.0 170.8 4.2 C 171.6 4.0 168.9 3.8 170.8 3.8 C 170.7 4.2 174.7 3.8 173.4 4.0 C 171.3 4.0 175.8 4.3 175.9 4.5 C 175.9 4.5 175.9 4.5 175.9 4.5 Z M 224.4 103.6 C 226.2 103.2 223.9 103.4 222.6 103.6 C 223.0 103.6 223.2 103.7 223.2 103.8 C 223.7 103.7 224.2 103.6 224.4 103.6 C 224.4 103.6 224.4 103.6 224.4 103.6 Z M 204.3 103.0 C 203.8 103.4 206.8 102.8 208.1 102.7 C 207.7 102.7 207.3 102.7 208.1 102.6 C 206.7 102.5 206.3 103.0 204.3 103.0 C 204.3 103.0 204.3 103.0 204.3 103.0 Z M 132.8 106.2 C 133.4 106.2 134.6 106.2 134.7 106.3 C 135.5 106.3 135.3 106.2 135.4 106.1 C 137.0 106.1 135.1 106.4 137.4 106.4 C 138.3 106.0 133.4 105.7 132.8 106.2 C 132.8 106.2 132.8 106.2 132.8 106.2 Z M 151.1 7.6 C 152.0 7.7 149.8 7.9 150.5 8.1 C 154.1 7.9 151.3 7.6 156.3 7.7 C 156.0 7.7 155.6 7.6 155.6 7.5 C 153.3 7.6 153.1 7.8 153.7 7.3 C 152.6 7.3 152.3 7.8 151.1 7.6 C 151.1 7.6 151.1 7.6 151.1 7.6 Z M 197.4 10.7 C 197.0 10.6 196.7 10.5 196.7 10.4 C 195.2 10.4 195.5 10.4 193.6 10.2 C 193.8 10.6 195.7 10.7 197.4 10.7 C 197.4 10.7 197.4 10.7 197.4 10.7 Z M 299.9 50.9 C 300.0 51.1 300.1 51.4 300.2 51.6 C 300.2 51.4 300.8 51.9 300.3 50.8 C 300.2 50.7 300.3 50.9 300.3 51.1 C 300.2 51.0 300.0 50.4 299.9 50.5 C 300.0 50.8 300.0 50.9 299.9 50.9 C 299.9 50.9 299.9 50.9 299.9 50.9 Z M 285.0 80.1 C 287.1 78.5 281.2 81.4 285.0 80.1 C 285.0 80.1 285.0 80.1 285.0 80.1 C 285.0 80.1 285.0 80.1 285.0 80.1 Z M 291.0 79.5 C 291.1 79.5 291.5 79.2 291.5 79.1 C 293.2 77.9 291.6 79.2 292.7 78.6 C 293.9 77.5 291.8 78.8 293.3 77.4 C 292.9 77.6 292.0 78.8 291.0 79.5 C 291.0 79.5 291.0 79.5 291.0 79.5 Z M 21.2 30.2 C 19.6 31.3 19.3 31.8 19.2 32.2 C 20.2 31.5 21.2 31.0 21.6 30.8 C 23.5 29.4 20.1 31.6 19.8 31.7 C 19.9 31.4 21.3 30.4 21.2 30.2 C 21.2 30.2 21.2 30.2 21.2 30.2 Z M 16.3 33.7 C 15.8 34.2 15.0 35.0 15.1 35.2 C 15.9 34.5 16.1 34.5 16.2 34.5 C 16.9 33.8 15.8 34.4 16.3 33.7 C 16.3 33.7 16.3 33.7 16.3 33.7 Z M 26.3 27.6 C 25.5 28.1 25.9 28.0 25.8 28.2 C 27.0 27.5 27.3 27.5 28.5 26.9 C 28.5 26.8 28.5 26.7 28.4 26.7 C 27.4 27.2 27.3 27.3 26.4 27.8 C 26.4 27.7 26.4 27.7 26.3 27.6 C 26.3 27.6 26.3 27.6 26.3 27.6 Z M 12.3 37.5 C 10.1 39.5 9.6 40.8 8.8 42.4 C 9.9 40.8 10.9 39.1 12.1 38.1 C 13.4 36.7 11.6 38.4 11.5 38.3 C 11.5 38.2 12.0 37.8 12.3 37.5 C 12.3 37.5 12.3 37.5 12.3 37.5 Z M 2.8 57.5 C 2.6 58.0 3.1 58.9 3.3 60.3 C 3.3 60.0 3.3 59.8 3.4 59.7 C 3.2 57.8 2.9 59.0 2.8 57.5 C 2.8 57.5 2.8 57.5 2.8 57.5 Z M 6.8 68.6 C 7.5 69.7 6.5 67.9 7.1 68.4 C 6.3 67.2 5.6 65.8 5.4 66.0 C 6.2 67.3 6.4 67.5 6.8 68.6 C 6.8 68.6 6.8 68.6 6.8 68.6 Z M 13.3 76.0 C 14.6 77.0 12.9 75.2 13.7 75.6 C 13.1 75.1 13.2 75.3 13.1 75.4 C 12.7 75.0 12.4 74.6 11.9 74.1 C 12.1 74.6 13.6 75.9 13.3 76.0 C 13.3 76.0 13.3 76.0 13.3 76.0 Z M 68.2 13.1 C 67.2 13.4 67.5 13.6 65.5 14.0 C 68.6 13.2 67.0 14.3 71.2 13.3 C 70.5 13.3 70.9 13.1 71.2 13.2 C 72.7 12.7 69.6 13.4 71.1 12.8 C 69.9 13.1 70.6 13.2 69.5 13.5 C 68.2 13.5 67.5 13.6 68.2 13.1 C 68.2 13.1 68.2 13.1 68.2 13.1 Z M 71.2 13.5 C 72.4 13.3 72.3 12.9 72.9 13.0 C 73.5 12.9 73.3 12.8 73.4 12.7 C 73.0 12.8 72.9 12.8 72.9 12.7 C 71.9 13.0 70.9 13.3 71.2 13.5 C 71.2 13.5 71.2 13.5 71.2 13.5 Z M 60.7 16.1 C 62.5 15.5 63.1 15.5 64.0 15.1 C 64.7 15.3 65.2 14.6 66.2 14.7 C 68.0 14.2 66.6 14.4 66.1 14.4 C 67.9 13.9 66.6 14.5 68.4 14.0 C 68.7 13.7 66.4 14.3 66.6 13.9 C 65.2 14.3 65.3 14.5 64.4 14.7 C 63.8 14.9 64.0 14.7 63.8 14.6 C 62.3 15.1 62.4 14.9 61.1 15.3 C 60.9 15.6 61.4 15.5 62.8 15.1 C 61.4 15.6 60.8 15.9 59.1 16.2 C 60.2 15.7 54.8 17.1 55.4 17.4 C 56.8 17.0 56.3 16.9 56.9 16.7 C 58.8 16.4 60.0 16.0 60.7 16.1 C 60.7 16.1 60.7 16.1 60.7 16.1 Z M 27.4 27.9 C 26.8 28.2 26.3 28.4 25.4 28.9 C 25.2 28.8 26.4 28.2 25.3 28.6 C 23.9 29.4 23.6 29.6 22.8 30.2 C 23.4 30.0 26.3 28.6 24.9 29.5 C 25.3 29.4 26.3 28.9 27.5 28.2 C 25.9 28.7 29.5 27.2 31.0 26.5 C 30.7 26.2 33.5 25.3 34.5 24.6 C 33.5 24.8 30.7 26.4 29.5 27.0 C 30.0 26.7 25.9 28.3 27.4 27.9 C 27.4 27.9 27.4 27.9 27.4 27.9 Z M 75.8 12.4 C 76.1 12.2 77.4 11.9 76.3 12.1 C 76.8 11.9 77.9 11.8 77.4 11.5 C 78.0 11.4 78.6 11.3 79.2 11.2 C 79.0 11.4 77.4 11.6 78.0 11.7 C 79.2 11.4 78.8 11.6 80.4 11.3 C 79.6 11.7 80.5 11.5 79.9 11.9 C 80.3 11.7 81.8 11.5 81.6 11.3 C 83.9 10.9 81.0 11.7 84.0 11.2 C 84.0 11.4 81.9 11.8 81.1 11.8 C 80.8 12.1 84.8 11.2 87.0 10.9 C 85.0 11.0 86.6 10.5 87.5 10.2 C 88.2 10.1 87.5 10.3 88.8 10.3 C 89.8 10.1 90.3 9.9 90.6 10.0 C 91.4 9.8 91.1 9.7 91.2 9.6 C 92.6 9.4 91.6 9.9 93.6 9.5 C 92.0 9.4 93.8 9.1 96.6 8.8 C 96.4 8.7 95.5 8.8 95.4 8.7 C 95.8 8.5 97.5 8.5 97.9 8.6 C 98.9 8.4 98.2 8.3 97.3 8.5 C 97.9 8.3 98.4 8.2 99.1 8.0 C 96.0 8.4 91.2 9.1 85.6 9.8 C 86.7 9.8 85.5 10.0 83.9 10.2 C 83.6 10.1 84.3 10.0 85.1 9.9 C 83.1 9.9 83.3 10.5 80.4 10.9 C 78.7 11.1 82.1 10.4 80.3 10.6 C 79.2 10.8 78.5 11.2 78.0 11.0 C 76.1 11.5 75.6 11.9 72.8 12.5 C 74.4 12.3 75.3 12.7 77.0 12.2 C 76.9 12.1 76.2 12.3 75.8 12.4 C 75.8 12.4 75.8 12.4 75.8 12.4 Z M 16.3 34.6 C 15.4 35.3 15.1 35.8 14.8 35.8 C 13.5 37.0 15.2 35.9 15.5 35.7 C 16.1 35.1 16.3 34.8 16.3 34.6 C 16.3 34.6 16.3 34.6 16.3 34.6 Z M 141.2 108.6 C 143.7 108.8 143.2 108.4 145.2 108.5 C 143.6 108.4 143.2 108.2 140.6 108.1 C 140.4 108.3 140.4 108.5 141.2 108.6 C 141.2 108.6 141.2 108.6 141.2 108.6 Z M 21.7 31.0 C 23.0 29.9 20.2 32.4 20.1 32.2 C 18.6 33.4 21.6 31.3 20.3 32.5 C 21.6 31.5 22.5 31.1 24.3 29.9 C 24.1 29.8 22.7 30.7 21.3 31.6 C 21.0 31.6 21.8 31.1 21.7 31.0 C 21.7 31.0 21.7 31.0 21.7 31.0 Z M 116.0 106.5 C 114.3 106.5 117.5 107.1 118.5 107.3 C 118.6 106.9 118.1 107.0 116.0 106.5 C 116.0 106.5 116.0 106.5 116.0 106.5 Z M 158.3 108.4 C 159.2 108.1 155.3 108.4 156.3 108.1 C 155.1 108.1 155.0 108.2 154.9 108.3 C 154.4 108.2 152.5 108.2 153.0 108.0 C 152.7 107.8 156.0 108.1 154.9 107.8 C 156.0 107.8 156.1 107.9 156.9 107.9 C 155.0 107.9 155.9 108.1 158.3 108.2 C 158.3 108.0 157.2 108.0 158.3 107.8 C 158.4 108.0 159.6 108.1 159.5 108.5 C 161.6 108.4 160.4 108.0 162.8 108.0 C 162.6 107.9 161.1 107.9 160.2 107.8 C 160.4 107.6 162.7 108.0 162.1 107.6 C 162.7 107.8 164.1 107.9 164.1 108.2 C 162.3 108.3 161.1 108.5 159.5 108.6 C 160.9 108.8 163.0 108.2 165.4 108.4 C 165.2 108.2 166.6 108.2 166.1 108.0 C 168.0 108.0 167.1 108.3 166.8 108.3 C 167.3 108.5 171.0 108.2 170.7 108.1 C 171.0 108.2 175.4 108.0 175.2 107.7 C 176.5 107.8 178.5 107.4 179.1 107.7 C 179.9 107.5 181.4 107.5 183.0 107.4 C 183.5 107.1 180.6 107.4 180.4 107.2 C 179.9 107.0 183.5 107.1 183.0 106.9 C 183.0 106.8 183.0 106.8 183.0 106.7 C 181.7 106.9 180.4 107.0 179.1 107.2 C 178.2 107.2 179.3 107.1 179.1 107.0 C 178.2 107.1 174.0 107.7 173.9 107.2 C 171.1 107.5 169.1 107.4 168.0 107.7 C 166.4 107.7 169.0 107.5 168.0 107.3 C 163.1 107.8 157.1 107.5 153.0 107.9 C 152.1 107.8 152.4 107.7 152.3 107.5 C 146.7 107.7 151.5 108.1 147.1 107.9 C 147.1 107.7 149.2 107.7 149.1 107.5 C 147.5 107.5 147.2 107.6 145.1 107.5 C 145.1 107.6 145.1 107.7 145.1 107.8 C 143.5 107.8 144.1 107.5 143.2 107.4 C 141.1 107.4 141.6 107.6 140.6 107.2 C 138.6 107.3 136.7 107.3 134.7 107.1 C 133.4 107.2 135.9 107.7 138.0 107.8 C 137.9 107.9 137.3 107.8 137.3 107.9 C 134.9 107.6 134.5 107.2 130.8 106.9 C 133.6 107.3 129.4 106.9 128.9 106.7 C 127.4 106.6 128.5 107.0 129.5 107.1 C 129.3 107.2 128.4 107.0 128.3 106.9 C 128.0 107.3 131.6 107.7 135.3 107.7 C 133.6 108.0 138.0 107.8 136.0 108.2 C 139.0 108.2 136.4 107.8 139.9 108.0 C 139.6 107.9 138.9 107.8 138.6 107.7 C 141.2 107.7 140.5 108.0 143.2 108.0 C 143.6 107.8 141.9 107.8 141.9 107.7 C 144.9 108.0 145.8 108.1 147.8 108.4 C 148.2 108.2 147.7 108.0 151.0 108.2 C 151.0 108.2 151.0 108.3 151.0 108.3 C 149.4 108.3 149.1 108.7 153.0 108.7 C 153.3 108.6 152.1 108.6 151.0 108.6 C 151.5 108.4 152.8 108.4 154.3 108.3 C 155.1 108.4 156.0 108.5 154.9 108.5 C 155.6 108.7 156.2 108.3 158.3 108.4 C 158.3 108.4 158.3 108.4 158.3 108.4 Z M 3.3 55.3 C 3.4 55.6 3.4 56.0 3.4 56.6 C 3.6 56.9 3.6 55.7 3.7 55.7 C 3.8 54.8 3.4 55.5 3.3 55.3 C 3.3 55.3 3.3 55.3 3.3 55.3 Z M 8.1 43.3 C 7.9 43.2 7.7 44.0 7.0 44.9 C 7.0 45.3 7.7 44.1 7.8 44.2 C 8.6 43.1 7.3 44.3 8.1 43.3 C 8.1 43.3 8.1 43.3 8.1 43.3 Z M 5.2 48.3 C 4.8 48.7 5.1 48.8 5.5 47.9 C 5.6 48.0 5.6 48.3 5.4 48.9 C 5.9 48.3 5.7 47.8 6.3 46.7 C 6.0 47.0 5.6 47.6 5.2 48.3 C 5.2 48.3 5.2 48.3 5.2 48.3 Z M 4.5 50.0 C 4.5 50.7 4.1 51.1 4.0 52.2 C 4.2 52.0 4.9 49.6 4.9 49.2 C 4.9 48.7 4.0 51.3 4.5 50.0 C 4.5 50.0 4.5 50.0 4.5 50.0 Z M 91.2 103.1 C 91.7 103.2 91.6 103.1 91.8 103.1 C 93.6 103.7 96.2 104.0 94.1 104.1 C 96.1 104.1 97.9 104.7 99.6 105.0 C 101.0 105.2 100.4 104.9 101.5 105.0 C 103.3 105.3 100.5 105.0 100.9 105.2 C 101.2 105.4 101.8 105.1 104.0 105.5 C 103.4 105.0 105.9 105.7 105.2 105.2 C 106.4 105.5 106.8 105.4 108.4 105.6 C 108.3 105.4 106.7 105.2 106.6 105.1 C 105.8 104.7 105.7 105.2 107.2 105.3 C 106.3 105.4 104.1 104.8 103.4 104.9 C 102.7 104.6 105.4 105.1 104.7 104.8 C 104.1 104.7 103.6 104.7 103.4 104.8 C 102.5 104.6 101.9 104.5 101.6 104.3 C 102.1 104.4 102.2 104.4 102.2 104.5 C 103.3 104.6 101.1 103.9 103.5 104.2 C 103.1 104.1 102.1 103.9 102.3 103.8 C 101.6 103.6 102.2 104.5 99.8 103.9 C 98.1 103.9 103.6 104.6 102.1 104.9 C 98.7 104.4 100.7 104.3 97.9 103.9 C 97.9 104.0 97.9 104.1 97.2 104.0 C 97.3 104.1 98.4 104.3 99.1 104.4 C 98.9 104.4 97.9 104.3 97.2 104.2 C 97.3 104.3 97.9 104.4 97.8 104.4 C 95.5 104.0 95.8 103.6 97.9 103.7 C 97.9 103.5 95.0 103.1 94.2 103.1 C 95.0 103.4 94.2 103.3 94.8 103.6 C 95.4 103.7 95.3 103.6 95.5 103.5 C 96.5 103.8 95.5 103.7 95.4 103.8 C 94.2 103.6 94.3 103.4 93.0 103.3 C 93.3 103.3 93.6 103.3 93.6 103.2 C 93.0 103.1 92.4 103.0 91.8 102.9 C 91.8 103.1 91.1 103.0 91.2 103.1 C 91.2 103.1 91.2 103.1 91.2 103.1 Z M 123.7 107.4 C 125.8 107.6 124.7 107.3 123.7 107.3 C 124.1 107.2 124.9 107.2 125.6 107.2 C 125.0 107.1 124.4 107.1 122.4 106.9 C 124.2 106.7 122.4 106.2 119.3 106.0 C 118.3 106.4 121.0 106.6 119.9 106.8 C 122.2 106.8 123.4 107.1 123.7 107.4 C 123.7 107.4 123.7 107.4 123.7 107.4 Z M 15.5 35.7 C 14.6 36.5 13.7 37.3 12.9 38.0 C 13.1 38.1 16.0 35.9 15.5 35.7 C 15.5 35.7 15.5 35.7 15.5 35.7 Z M 101.6 8.0 C 102.1 7.9 102.2 8.0 102.2 8.0 C 104.0 7.7 101.4 7.9 102.2 7.6 C 101.5 7.7 100.9 7.8 100.3 7.9 C 100.2 8.0 102.9 7.8 100.9 8.1 C 101.1 8.2 101.6 8.1 101.6 8.0 C 101.6 8.0 101.6 8.0 101.6 8.0 Z M 3.7 54.4 C 3.7 55.2 4.0 54.7 3.9 56.6 C 4.1 55.9 4.0 55.5 4.1 54.4 C 4.0 54.4 3.9 54.4 3.7 54.4 C 3.7 54.4 3.7 54.4 3.7 54.4 Z M 82.1 102.0 C 83.6 102.5 84.1 102.0 86.9 102.7 C 85.5 102.1 83.8 102.2 82.1 102.0 C 82.1 102.0 82.1 102.0 82.1 102.0 Z M 188.2 106.6 C 187.2 106.6 188.4 106.5 186.8 106.5 C 186.0 106.6 185.6 106.8 184.3 106.9 C 186.1 107.0 189.3 106.5 190.7 106.8 C 192.2 106.6 192.1 106.4 192.6 106.2 C 191.8 106.2 191.5 106.2 191.3 106.2 C 190.4 106.6 189.2 106.1 188.2 106.6 C 188.2 106.6 188.2 106.6 188.2 106.6 Z M 115.4 106.4 C 114.2 106.1 116.2 106.2 116.7 106.1 C 117.5 106.2 117.2 106.3 117.3 106.5 C 118.5 106.5 118.8 106.4 118.6 106.2 C 116.5 106.0 113.9 105.7 115.5 105.6 C 113.4 105.3 114.5 105.7 113.5 105.7 C 112.4 105.4 113.5 105.5 113.6 105.2 C 113.1 105.2 111.5 105.4 111.7 105.0 C 108.6 105.1 109.9 105.6 112.2 106.2 C 114.2 106.2 111.9 105.8 115.4 106.4 C 115.4 106.4 115.4 106.4 115.4 106.4 Z M 38.5 89.3 C 38.7 89.5 40.1 90.1 40.1 90.1 C 41.9 90.6 43.6 91.0 45.3 91.4 C 45.1 91.0 42.7 90.4 43.6 90.9 C 42.9 90.5 41.3 89.8 40.4 89.3 C 38.8 88.6 38.1 88.8 38.0 88.4 C 36.4 87.9 37.3 88.2 34.9 87.1 C 38.6 89.0 33.6 86.7 33.3 86.8 C 35.4 87.8 37.4 88.6 37.2 88.3 C 38.8 89.1 40.7 89.9 41.0 90.2 C 40.8 90.3 39.4 89.7 38.5 89.3 C 38.5 89.3 38.5 89.3 38.5 89.3 Z M 48.9 92.4 C 48.2 92.2 47.5 92.0 46.3 91.6 C 46.9 91.9 47.2 92.1 47.0 92.2 C 49.3 93.0 49.4 92.9 49.8 93.2 C 51.0 93.7 49.6 92.8 51.4 93.5 C 51.3 93.4 50.4 93.1 50.4 93.0 C 50.2 93.1 49.9 93.1 48.9 92.4 C 48.9 92.4 48.9 92.4 48.9 92.4 Z M 65.1 97.6 C 66.6 98.0 64.4 97.3 65.2 97.3 C 64.8 97.3 62.1 96.5 62.5 96.4 C 61.8 95.9 58.9 95.8 59.3 95.4 C 58.7 95.3 58.9 95.5 58.7 95.5 C 60.6 96.0 60.6 96.2 59.2 95.8 C 59.4 96.0 60.5 96.3 61.3 96.5 C 61.5 96.4 60.7 96.2 60.9 96.0 C 62.5 96.6 63.6 97.1 65.1 97.6 C 65.1 97.6 65.1 97.6 65.1 97.6 Z M 171.9 5.6 C 170.4 5.5 169.5 5.5 168.7 5.5 C 169.1 5.7 169.9 5.6 170.7 5.6 C 170.9 5.8 170.2 5.7 169.3 5.7 C 170.1 6.0 172.8 5.9 171.9 5.6 C 171.9 5.6 171.9 5.6 171.9 5.6 Z M 158.9 5.3 C 157.4 5.2 156.5 5.3 156.3 5.4 C 156.9 5.6 156.7 5.3 157.6 5.3 C 158.2 5.4 158.6 5.5 158.9 5.6 C 159.5 5.6 159.4 5.5 159.6 5.4 C 160.1 5.4 160.2 5.5 160.2 5.5 C 162.0 5.3 158.1 5.5 158.9 5.3 C 158.9 5.3 158.9 5.3 158.9 5.3 Z M 56.0 95.0 C 55.6 94.8 55.3 94.5 54.0 94.2 C 54.2 94.4 53.2 94.1 52.4 93.8 C 53.6 94.4 54.2 94.5 56.0 95.0 C 56.0 95.0 56.0 95.0 56.0 95.0 Z M 79.9 12.1 C 78.1 12.2 78.4 12.6 75.9 12.9 C 75.9 13.0 75.9 13.1 75.9 13.2 C 77.4 12.6 78.1 12.6 79.9 12.1 C 79.9 12.1 79.9 12.1 79.9 12.1 Z M 302.5 65.3 C 302.4 65.1 301.8 66.4 301.6 66.4 C 301.8 66.8 301.0 67.1 299.4 69.4 C 299.3 69.4 299.3 69.2 299.5 68.9 C 298.1 70.7 300.2 68.6 300.5 68.4 C 301.5 66.9 301.8 66.8 302.5 65.3 C 302.5 65.3 302.5 65.3 302.5 65.3 Z M 168.7 106.9 C 168.6 107.0 168.9 107.0 169.3 107.0 C 169.8 107.0 170.2 107.0 170.6 106.9 C 170.5 106.6 168.3 106.6 169.9 106.2 C 169.4 106.2 169.3 106.2 169.3 106.3 C 166.2 107.1 163.6 106.0 159.5 106.5 C 158.9 106.5 159.0 106.6 158.9 106.6 C 159.4 106.6 159.5 106.7 159.5 106.7 C 160.0 106.4 163.8 106.7 162.1 106.8 C 162.3 106.9 162.8 106.9 162.8 106.8 C 163.2 106.8 163.7 106.8 164.1 106.8 C 163.8 106.7 163.0 106.7 162.8 106.6 C 164.9 106.6 167.4 106.7 166.1 107.0 C 167.3 106.9 167.8 106.8 168.7 106.7 C 169.5 106.7 169.5 106.9 168.7 106.9 C 168.7 106.9 168.7 106.9 168.7 106.9 Z M 185.5 106.0 C 187.5 105.9 186.7 105.7 188.7 105.6 C 187.4 105.5 185.9 105.9 184.2 105.8 C 184.5 105.9 185.3 105.9 185.5 106.0 C 185.5 106.0 185.5 106.0 185.5 106.0 Z M 147.8 106.7 C 148.2 106.4 146.4 106.4 144.5 106.3 C 144.1 106.6 145.8 106.7 147.8 106.7 C 147.8 106.7 147.8 106.7 147.8 106.7 Z M 156.3 106.7 C 158.2 106.6 153.9 106.7 154.9 106.4 C 154.0 106.4 153.1 106.4 153.0 106.3 C 152.3 106.4 152.3 106.5 151.1 106.5 C 151.1 106.6 153.2 106.6 153.0 106.7 C 154.5 106.6 154.7 106.6 156.3 106.7 C 156.3 106.7 156.3 106.7 156.3 106.7 Z M 157.5 106.7 C 158.8 106.6 157.2 106.3 155.6 106.3 C 156.2 106.4 156.6 106.6 157.5 106.7 C 157.5 106.7 157.5 106.7 157.5 106.7 Z M 14.1 73.4 C 14.6 73.9 14.3 73.4 15.0 74.0 C 15.1 73.9 12.7 71.7 14.7 73.5 C 14.2 72.6 13.5 72.6 12.7 71.7 C 12.9 72.0 13.1 72.3 12.6 71.8 C 12.2 71.7 14.5 73.5 14.1 73.4 C 14.1 73.4 14.1 73.4 14.1 73.4 Z M 16.6 75.7 C 17.2 76.1 16.9 75.8 16.7 75.6 C 16.8 75.6 17.6 76.2 18.1 76.7 C 18.1 76.8 17.4 75.6 17.5 75.5 C 15.1 73.8 16.7 75.4 16.6 75.7 C 16.6 75.7 16.6 75.7 16.6 75.7 Z M 19.1 77.4 C 20.6 78.8 23.2 80.4 24.6 80.9 C 23.4 79.8 20.1 77.7 19.1 77.4 C 19.1 77.4 19.1 77.4 19.1 77.4 Z M 7.7 64.8 C 8.6 67.3 12.1 71.6 9.5 67.4 C 9.5 67.6 7.7 65.0 7.3 63.6 C 7.1 63.6 6.4 62.2 6.5 62.1 C 6.0 61.1 7.7 65.5 7.7 64.8 C 7.7 64.8 7.7 64.8 7.7 64.8 Z M 27.3 81.9 C 26.2 81.4 27.3 82.5 25.8 81.5 C 24.9 81.1 26.0 81.8 25.7 81.7 C 27.6 82.8 32.0 84.8 32.3 85.2 C 33.5 85.6 33.9 85.7 36.0 86.6 C 36.2 86.6 28.5 83.3 27.2 82.0 C 27.4 82.0 29.9 83.3 27.3 81.9 C 27.3 81.9 27.3 81.9 27.3 81.9 Z M 80.2 13.5 C 80.3 13.3 77.9 13.9 78.4 13.5 C 77.2 14.1 75.9 14.2 74.5 14.7 C 74.0 14.7 74.1 14.3 72.1 14.7 C 72.1 14.9 73.1 14.7 72.2 15.0 C 70.4 15.5 70.8 15.1 68.8 15.6 C 69.2 16.0 64.5 16.8 65.0 17.1 C 66.1 16.8 66.0 16.6 67.8 16.2 C 68.4 16.1 68.1 16.3 68.9 16.1 C 68.4 16.5 67.4 16.3 66.7 16.7 C 66.9 16.8 68.2 16.5 68.4 16.6 C 69.2 16.4 68.2 16.6 68.4 16.4 C 70.5 15.8 68.3 17.0 70.7 16.3 C 70.2 16.2 70.2 16.2 70.6 15.9 C 71.6 15.8 74.4 15.0 72.9 15.6 C 73.1 15.7 74.8 15.1 74.6 15.0 C 75.5 14.8 75.6 14.8 75.7 14.9 C 78.1 14.3 78.4 14.0 77.9 13.9 C 78.3 13.6 78.8 13.9 80.2 13.5 C 80.2 13.5 80.2 13.5 80.2 13.5 Z M 6.1 52.3 C 6.2 51.3 5.9 53.3 5.8 54.2 C 5.9 53.1 6.2 53.5 6.5 52.4 C 6.3 52.8 6.3 52.7 6.5 51.9 C 6.4 51.7 5.9 53.4 6.1 52.3 C 6.1 52.3 6.1 52.3 6.1 52.3 Z M 40.7 88.6 C 41.5 89.1 45.9 90.6 48.3 91.4 C 47.9 90.9 42.1 89.4 41.6 88.8 C 40.3 88.3 42.2 89.2 40.7 88.6 C 40.7 88.6 40.7 88.6 40.7 88.6 Z M 59.0 18.2 C 58.4 18.3 58.8 18.3 59.0 18.2 C 58.9 18.4 57.7 18.7 56.9 18.9 C 58.2 18.7 56.7 19.2 57.1 19.4 C 56.5 19.6 56.2 19.7 56.1 19.8 C 55.9 19.3 52.9 21.0 56.2 20.1 C 55.5 20.0 55.7 20.0 57.1 19.5 C 58.6 19.2 59.7 18.7 60.3 18.8 C 61.3 18.5 61.6 18.3 62.9 17.9 C 63.3 18.0 64.5 17.8 63.6 18.4 C 66.0 17.8 64.3 17.6 66.2 17.1 C 68.1 16.8 65.3 17.6 65.8 17.7 C 66.3 17.6 66.2 17.7 66.4 17.7 C 67.1 17.5 67.0 17.3 66.3 17.5 C 66.5 17.3 68.4 16.7 67.9 17.1 C 69.0 16.7 66.0 16.8 64.6 17.4 C 63.7 17.7 63.6 17.2 64.5 17.0 C 64.1 16.9 62.4 17.9 62.8 17.3 C 62.0 17.5 61.4 17.7 60.6 17.9 C 60.8 17.9 61.2 17.8 61.2 17.9 C 60.5 18.1 59.8 18.3 59.1 18.5 C 59.7 18.2 59.6 18.1 59.0 18.2 C 59.0 18.2 59.0 18.2 59.0 18.2 Z M 31.0 84.2 C 32.8 85.1 33.3 85.2 34.7 85.8 C 34.2 85.3 30.4 83.6 31.0 84.2 C 31.0 84.2 31.0 84.2 31.0 84.2 Z M 90.4 12.4 C 90.2 12.4 89.2 12.6 89.2 12.5 C 91.0 12.1 88.9 12.3 90.3 11.7 C 87.9 12.2 87.2 12.9 90.4 12.6 C 92.8 12.2 88.0 12.9 90.4 12.4 C 90.4 12.4 90.4 12.4 90.4 12.4 Z M 83.2 13.5 C 81.8 13.9 85.4 13.4 86.3 13.3 C 86.3 13.4 86.3 13.5 86.3 13.5 C 88.3 12.8 85.5 13.2 87.3 12.4 C 85.0 12.7 84.0 12.8 82.0 13.3 C 82.1 13.3 82.6 13.2 82.6 13.2 C 84.1 12.9 83.1 13.4 81.5 13.6 C 81.9 13.6 83.4 13.4 84.4 13.2 C 84.1 13.2 83.8 13.2 83.8 13.1 C 85.0 12.8 84.6 13.1 85.5 12.9 C 85.6 13.0 83.3 13.7 83.2 13.5 C 83.2 13.5 83.2 13.5 83.2 13.5 Z M 208.1 10.3 C 206.8 10.2 209.4 10.8 209.2 11.2 C 210.5 11.4 210.8 11.3 211.7 11.4 C 211.3 11.2 209.8 11.0 209.3 10.8 C 209.5 10.5 211.2 11.1 211.7 11.0 C 212.5 10.7 208.6 10.7 208.1 10.3 C 208.1 10.3 208.1 10.3 208.1 10.3 Z M 28.0 30.6 C 27.3 31.0 27.7 30.9 28.0 30.7 C 27.9 30.8 26.8 31.4 26.8 31.4 C 25.8 31.9 27.4 31.2 26.3 31.8 C 26.1 32.1 28.0 30.8 28.0 30.8 C 29.5 30.0 28.5 30.8 28.9 30.7 C 30.2 30.1 29.6 30.1 31.5 29.2 C 30.3 29.7 29.3 30.0 28.0 30.6 C 28.0 30.6 28.0 30.6 28.0 30.6 Z M 94.5 11.3 C 94.7 11.2 93.1 11.9 91.5 11.9 C 89.4 12.3 92.9 12.0 91.0 12.3 C 92.6 12.1 94.5 11.6 97.0 11.2 C 97.5 11.0 93.5 11.7 95.8 11.2 C 95.6 11.1 95.1 11.3 95.1 11.3 C 94.6 11.4 94.6 11.4 94.5 11.3 C 94.5 11.3 94.5 11.3 94.5 11.3 Z M 92.2 12.2 C 92.3 12.3 92.8 12.2 92.8 12.1 C 93.6 12.0 93.6 12.3 92.9 12.4 C 93.9 12.5 93.8 12.0 95.9 11.9 C 94.9 11.8 94.5 11.7 96.4 11.6 C 97.9 11.2 92.9 12.0 92.2 12.2 C 92.2 12.2 92.2 12.2 92.2 12.2 Z M 188.0 8.4 C 188.2 8.5 189.5 8.6 190.5 8.7 C 189.3 8.8 184.1 8.3 183.5 8.1 C 182.9 8.1 182.4 8.1 182.2 8.0 C 182.2 8.1 180.8 8.1 181.5 8.2 C 181.4 8.3 180.3 8.2 180.3 8.3 C 178.3 8.1 180.9 8.2 180.3 8.0 C 178.0 8.1 178.5 7.9 175.8 7.7 C 176.2 8.0 179.2 8.1 179.0 8.4 C 181.1 8.2 183.4 8.6 184.7 8.9 C 182.7 8.4 190.2 8.8 193.7 9.1 C 193.5 9.3 194.8 9.4 196.2 9.6 C 197.1 10.0 196.9 9.4 195.0 9.3 C 195.0 9.2 197.6 9.6 198.7 9.6 C 197.4 9.4 198.2 9.3 197.5 9.2 C 195.1 8.9 197.3 9.2 196.8 9.4 C 196.2 9.3 195.6 9.2 194.9 9.2 C 198.3 9.1 190.1 8.7 193.1 8.9 C 190.5 8.7 190.4 8.5 188.0 8.4 C 188.0 8.4 188.0 8.4 188.0 8.4 Z M 127.1 7.9 C 126.7 8.0 124.6 8.3 124.6 8.1 C 122.0 8.5 124.3 8.5 121.4 8.7 C 121.6 8.8 122.7 8.7 122.7 8.8 C 123.8 8.6 124.9 8.5 124.6 8.3 C 125.9 8.2 126.3 8.1 127.1 8.0 C 126.8 8.1 126.3 8.2 125.2 8.3 C 125.0 8.5 125.5 8.6 127.2 8.5 C 127.9 8.2 127.4 8.1 127.1 7.9 C 127.1 7.9 127.1 7.9 127.1 7.9 Z M 120.7 8.7 C 120.4 8.7 120.0 8.6 120.1 8.5 C 119.1 8.3 119.7 8.9 118.8 8.9 C 118.1 9.0 118.3 8.8 118.2 8.8 C 117.1 8.9 116.2 9.0 115.6 9.0 C 113.9 9.3 117.6 9.0 118.2 9.1 C 119.4 9.0 119.0 8.8 120.7 8.7 C 120.7 8.7 120.7 8.7 120.7 8.7 Z M 101.9 10.4 C 101.5 10.2 100.9 10.6 100.1 10.7 C 100.7 10.9 102.5 10.5 101.3 10.9 C 103.1 10.8 103.2 10.8 105.0 10.5 C 106.2 10.6 105.1 10.3 103.2 10.6 C 103.4 10.5 104.2 10.4 104.3 10.2 C 105.6 10.6 108.7 9.5 106.8 10.0 C 106.3 10.0 105.9 10.0 105.6 9.9 C 105.2 10.2 101.0 10.6 101.9 10.4 C 101.9 10.4 101.9 10.4 101.9 10.4 Z M 43.5 24.1 C 45.2 23.5 46.0 23.2 46.9 22.9 C 47.8 22.6 49.0 22.1 50.0 21.8 C 50.1 21.9 50.0 22.0 49.6 22.1 C 50.1 22.1 50.7 21.8 51.6 21.5 C 51.5 21.4 51.1 21.6 51.1 21.7 C 49.4 22.0 50.8 21.6 50.9 21.3 C 48.9 21.7 45.8 23.3 44.2 23.5 C 43.0 24.1 44.5 23.6 43.5 24.1 C 43.5 24.1 43.5 24.1 43.5 24.1 Z M 301.4 62.9 C 301.4 63.1 301.1 63.7 301.3 63.7 C 301.5 63.1 301.6 62.7 301.8 62.1 C 301.3 63.2 301.1 62.9 300.4 64.2 C 300.8 63.8 301.0 64.1 301.4 62.9 C 301.4 62.9 301.4 62.9 301.4 62.9 Z M 108.1 9.7 C 108.2 9.8 108.2 9.9 107.5 10.0 C 107.3 10.3 109.3 9.9 109.4 10.1 C 110.0 10.0 109.8 9.9 110.6 9.8 C 110.3 9.7 108.7 9.9 109.3 9.6 C 109.9 9.5 109.9 9.6 110.0 9.6 C 111.3 9.4 109.3 9.5 108.1 9.7 C 108.1 9.7 108.1 9.7 108.1 9.7 Z M 214.1 11.4 C 213.3 11.3 214.1 11.5 214.8 11.6 C 213.0 11.6 215.8 12.2 215.9 12.5 C 215.1 12.1 212.7 11.9 212.3 11.8 C 211.6 11.7 212.4 12.0 210.4 11.8 C 210.6 12.1 212.8 12.2 212.3 11.9 C 212.7 12.3 214.9 12.2 214.6 12.5 C 217.3 13.0 218.0 12.9 218.3 12.7 C 215.6 12.4 217.0 12.1 214.7 11.9 C 214.7 11.8 215.5 11.9 215.9 12.0 C 215.8 11.8 214.8 11.6 214.1 11.4 C 214.1 11.4 214.1 11.4 214.1 11.4 Z M 147.8 7.3 C 146.4 7.3 146.4 7.5 146.5 7.7 C 147.1 7.6 148.0 7.6 149.1 7.6 C 148.9 7.5 147.1 7.6 147.8 7.3 C 147.8 7.3 147.8 7.3 147.8 7.3 Z M 204.3 10.4 C 204.2 10.3 203.7 10.3 203.7 10.3 C 202.1 10.2 201.8 10.0 201.2 9.8 C 200.4 9.7 200.6 10.0 200.6 10.1 C 202.1 10.0 201.7 10.3 203.7 10.5 C 203.6 10.4 203.8 10.4 204.3 10.4 C 204.3 10.4 204.3 10.4 204.3 10.4 Z M 161.5 7.5 C 160.7 7.5 161.1 7.5 161.5 7.5 C 160.6 7.8 157.9 7.5 156.9 7.6 C 156.8 7.8 160.1 7.8 156.3 7.9 C 157.0 8.1 160.4 7.9 162.1 8.0 C 161.7 8.2 159.4 8.2 159.5 8.5 C 161.5 8.3 163.8 8.3 164.1 7.9 C 161.2 7.8 162.2 7.6 161.5 7.5 C 161.5 7.5 161.5 7.5 161.5 7.5 Z M 164.7 7.7 C 164.5 7.5 163.9 7.7 162.8 7.6 C 164.4 8.0 165.3 7.9 168.6 8.0 C 168.6 8.0 168.6 7.9 168.6 7.9 C 169.3 7.9 170.0 7.9 170.6 7.9 C 167.8 7.6 167.1 7.7 164.1 7.7 C 164.0 7.7 164.3 7.7 164.7 7.7 C 164.7 7.7 164.7 7.7 164.7 7.7 Z M 80.4 14.2 C 81.2 14.2 81.9 14.2 83.3 14.0 C 83.2 13.8 82.3 13.8 80.4 14.2 C 80.4 14.2 80.4 14.2 80.4 14.2 Z M 206.7 10.9 C 208.4 10.9 205.1 10.7 206.1 11.0 C 207.4 11.3 208.8 11.6 209.1 11.8 C 211.6 11.8 206.4 11.1 206.7 10.9 C 206.7 10.9 206.7 10.9 206.7 10.9 Z M 195.5 10.2 C 194.8 10.1 194.8 9.7 195.5 10.0 C 197.3 10.2 194.0 9.7 196.8 10.0 C 195.6 9.8 193.0 9.4 191.7 9.5 C 191.8 9.7 194.2 9.8 194.2 10.0 C 194.3 10.1 194.0 10.0 193.6 10.0 C 193.8 10.2 194.4 10.1 195.5 10.2 C 195.5 10.2 195.5 10.2 195.5 10.2 Z M 186.0 9.0 C 187.1 9.2 188.3 9.4 190.5 9.6 C 189.1 9.3 188.3 9.0 186.0 9.0 C 186.0 9.0 186.0 9.0 186.0 9.0 Z M 296.6 43.7 C 295.8 42.9 296.3 43.8 296.3 43.9 C 297.1 44.8 297.1 44.7 297.8 45.7 C 297.8 45.2 296.9 44.5 296.6 43.7 C 296.6 43.7 296.6 43.7 296.6 43.7 Z M 298.8 47.1 C 298.8 47.2 299.6 48.4 299.5 48.6 C 300.3 49.1 300.0 50.5 300.4 50.3 C 300.4 50.6 300.5 50.9 300.7 51.4 C 300.8 50.3 299.5 48.1 298.8 47.1 C 298.8 47.1 298.8 47.1 298.8 47.1 Z M 175.0 8.8 C 173.3 8.7 175.5 9.2 173.8 9.1 C 173.6 9.2 177.0 9.4 175.0 9.4 C 177.6 9.7 174.8 8.9 175.0 8.8 C 175.0 8.8 175.0 8.8 175.0 8.8 Z M 143.3 8.7 C 143.4 8.6 141.0 8.8 140.1 8.8 C 140.1 8.8 140.8 8.8 141.4 8.8 C 141.1 8.9 140.8 9.0 140.1 9.0 C 140.6 9.2 142.4 8.8 143.3 8.7 C 143.3 8.7 143.3 8.7 143.3 8.7 Z M 178.5 4.8 C 179.6 5.1 181.0 5.4 181.7 5.1 C 182.9 5.4 181.0 5.3 182.3 5.5 C 184.2 5.5 183.3 5.7 186.2 5.8 C 185.7 6.1 187.8 6.2 188.1 6.4 C 187.0 6.4 185.5 6.0 184.9 6.2 C 185.9 6.3 185.3 6.5 184.9 6.3 C 183.0 6.0 187.3 6.1 184.9 5.8 C 184.2 6.1 180.8 5.3 178.5 5.2 C 179.4 5.0 176.8 4.8 178.5 4.8 C 178.5 4.8 178.5 4.8 178.5 4.8 Z M 190.1 6.1 C 191.6 6.2 192.4 6.8 191.9 6.7 C 192.0 6.6 190.2 6.5 190.0 6.6 C 190.5 6.6 190.8 6.7 190.7 6.7 C 187.8 6.4 188.8 6.3 188.2 6.1 C 189.7 6.1 190.2 6.3 190.7 6.2 C 190.4 6.2 190.0 6.2 190.1 6.1 C 190.1 6.1 190.1 6.1 190.1 6.1 Z M 222.3 14.1 C 222.1 14.0 221.7 14.1 221.1 14.0 C 221.0 13.6 218.0 13.6 217.6 13.4 C 218.3 13.4 219.9 13.6 220.6 13.6 C 219.8 13.4 219.6 13.3 218.8 13.3 C 219.0 13.1 220.7 13.4 221.2 13.3 C 221.4 13.5 222.2 13.4 222.4 13.6 C 220.1 13.3 223.6 14.4 222.3 14.1 C 222.3 14.1 222.3 14.1 222.3 14.1 Z M 160.2 8.7 C 159.9 9.0 162.7 9.6 160.2 9.8 C 159.6 9.6 159.3 9.4 159.5 9.1 C 157.9 9.2 157.2 9.0 156.3 9.2 C 153.3 8.5 158.5 9.3 160.2 8.7 C 160.2 8.7 160.2 8.7 160.2 8.7 Z M 149.8 8.9 C 150.3 8.7 148.9 8.8 149.1 8.6 C 150.4 8.7 154.4 8.5 153.0 8.6 C 151.7 8.7 151.7 8.9 149.8 8.9 C 149.8 8.9 149.8 8.9 149.8 8.9 Z M 75.6 98.4 C 73.7 98.2 72.9 97.6 73.9 97.7 C 73.4 97.8 76.3 98.3 75.6 98.4 C 75.6 98.4 75.6 98.4 75.6 98.4 Z M 7.0 70.3 C 7.8 71.7 8.5 72.3 8.5 72.6 C 7.4 71.4 7.7 71.5 6.9 70.4 C 6.8 70.4 6.2 69.8 6.2 69.6 C 6.6 70.2 6.7 70.0 7.0 70.3 C 7.0 70.3 7.0 70.3 7.0 70.3 Z M 110.2 5.5 C 110.0 5.4 109.2 5.4 109.5 5.2 C 111.5 5.1 113.6 4.7 115.2 4.4 C 115.2 4.5 115.2 4.6 115.3 4.8 C 112.2 4.9 111.4 5.2 110.2 5.5 C 110.2 5.5 110.2 5.5 110.2 5.5 Z M 106.3 5.4 C 106.0 5.6 107.1 5.8 105.7 5.9 C 105.8 5.7 103.4 5.7 104.5 5.6 C 104.9 5.7 105.5 5.6 106.3 5.4 C 106.3 5.4 106.3 5.4 106.3 5.4 Z M 214.6 8.2 C 216.1 8.4 214.0 7.9 214.1 7.8 C 215.1 8.0 216.6 8.2 217.1 8.4 C 216.0 8.2 215.2 8.5 214.6 8.2 C 214.6 8.2 214.6 8.2 214.6 8.2 Z M 191.4 6.1 C 188.1 5.9 189.5 5.6 186.3 5.2 C 187.6 5.2 190.6 5.5 191.4 5.3 C 191.3 5.5 192.1 5.6 192.0 5.7 C 190.9 5.6 190.7 5.5 189.5 5.4 C 189.9 5.7 189.9 5.6 189.5 5.8 C 190.3 5.9 190.9 5.9 191.4 5.9 C 191.1 6.0 192.3 6.2 191.4 6.1 C 191.4 6.1 191.4 6.1 191.4 6.1 Z M 213.9 8.8 C 215.2 8.9 216.2 9.4 215.1 9.2 C 215.0 9.0 214.1 9.1 213.9 8.9 C 215.7 9.1 212.5 8.6 213.3 8.5 C 214.4 8.7 214.8 8.7 214.6 8.5 C 215.3 8.6 216.4 8.7 216.4 8.8 C 215.9 8.8 215.2 8.6 215.2 8.7 C 215.6 8.8 215.9 8.8 215.8 8.9 C 214.7 8.7 214.2 8.7 213.9 8.8 C 213.9 8.8 213.9 8.8 213.9 8.8 Z M 205.3 7.6 C 207.0 7.9 207.1 8.1 207.7 8.3 C 205.4 8.0 205.1 7.6 203.4 7.2 C 205.3 7.5 207.2 7.5 207.8 7.7 C 207.0 7.7 205.4 7.5 205.3 7.6 C 205.3 7.6 205.3 7.6 205.3 7.6 Z M 238.0 99.1 C 236.6 99.3 235.5 99.4 234.0 99.6 C 233.5 100.0 236.4 99.8 235.2 99.9 C 233.6 100.3 234.6 99.7 233.4 100.0 C 234.7 100.0 228.0 101.4 227.6 101.1 C 228.7 100.9 229.0 100.8 228.7 100.6 C 231.5 100.2 232.5 99.7 234.5 99.2 C 236.0 99.2 240.2 98.4 242.3 97.5 C 243.9 97.6 246.4 96.5 248.4 96.3 C 248.9 96.0 246.7 96.5 248.4 96.0 C 249.5 96.0 248.7 96.3 250.1 96.0 C 250.2 95.9 249.8 95.8 250.5 95.6 C 250.5 95.7 251.4 95.5 251.7 95.5 C 248.8 96.3 251.9 95.8 249.7 96.5 C 248.7 96.6 250.6 95.8 247.9 96.5 C 247.0 96.8 246.1 97.1 246.4 97.3 C 245.6 97.5 245.2 97.7 244.8 97.8 C 245.7 97.3 241.0 98.9 243.1 98.0 C 243.2 98.0 244.8 97.6 245.8 97.2 C 244.8 97.2 243.6 97.7 241.9 98.2 C 241.2 98.2 242.2 97.9 241.3 98.0 C 240.0 98.5 241.9 98.3 240.9 98.6 C 241.3 98.5 242.0 98.4 242.0 98.4 C 239.6 98.8 238.7 99.2 237.5 99.5 C 238.3 99.2 236.1 99.6 238.0 99.1 C 238.0 99.1 238.0 99.1 238.0 99.1 Z M 257.4 93.6 C 257.9 93.4 258.4 93.3 258.9 93.1 C 259.1 93.3 257.1 94.0 258.5 93.7 C 256.3 94.4 258.5 93.4 257.4 93.6 C 257.4 93.6 257.4 93.6 257.4 93.6 Z M 246.6 95.8 C 245.8 95.7 246.3 96.2 245.6 96.4 C 246.9 96.0 248.1 95.6 248.3 95.8 C 246.8 96.2 246.1 96.3 244.5 96.8 C 246.0 96.1 242.7 97.0 242.2 96.8 C 243.4 96.5 244.3 96.1 246.0 95.7 C 245.7 95.9 248.1 95.3 246.6 95.8 C 246.6 95.8 246.6 95.8 246.6 95.8 Z M 250.8 94.3 C 251.1 94.4 253.4 93.6 253.0 94.0 C 251.6 94.4 251.1 94.6 251.5 94.7 C 250.4 95.0 250.3 95.0 249.3 95.2 C 248.7 95.1 250.3 94.7 250.8 94.4 C 250.5 94.5 250.2 94.5 250.8 94.3 C 250.8 94.3 250.8 94.3 250.8 94.3 Z M 294.9 70.9 C 295.4 70.7 293.8 72.1 293.5 72.3 C 294.1 72.1 293.9 72.4 293.0 73.3 C 293.1 72.7 291.7 74.2 290.4 74.7 C 290.3 75.1 291.7 74.1 290.2 75.4 C 288.9 76.3 287.8 77.2 285.6 78.6 C 285.0 78.7 286.0 78.1 286.5 77.6 C 285.1 78.6 285.4 78.2 284.2 78.9 C 284.5 78.8 283.6 79.5 283.1 79.6 C 285.1 78.3 280.2 80.9 282.3 79.6 C 282.5 79.6 283.0 79.3 283.5 78.9 C 283.1 79.6 285.8 77.8 286.4 77.5 C 287.2 76.4 289.9 74.8 292.5 72.8 C 292.7 72.8 292.0 73.5 292.6 73.0 C 292.6 72.8 293.4 72.1 293.7 71.8 C 293.8 71.9 294.1 71.7 294.6 71.3 C 294.6 71.2 294.6 71.1 294.9 70.9 C 294.9 70.9 294.9 70.9 294.9 70.9 Z M 134.8 104.5 C 135.0 104.1 130.8 104.2 129.7 104.2 C 129.9 103.8 137.2 104.2 134.8 104.5 C 134.8 104.5 134.8 104.5 134.8 104.5 Z M 160.1 104.6 C 159.1 104.6 159.8 104.9 158.9 104.9 C 158.8 104.6 156.3 105.2 156.3 104.9 C 157.5 104.7 158.2 104.7 160.1 104.6 C 160.1 104.6 160.1 104.6 160.1 104.6 Z M 183.4 103.8 C 181.6 104.0 184.4 103.9 184.1 104.0 C 182.5 104.1 180.8 104.2 180.9 104.0 C 182.3 104.0 183.2 103.6 183.4 103.8 C 183.4 103.8 183.4 103.8 183.4 103.8 Z M 148.5 104.4 C 146.9 104.3 149.5 104.0 149.7 104.2 C 148.0 104.2 150.9 104.4 152.3 104.3 C 152.3 104.6 151.6 104.6 152.3 104.8 C 150.1 104.9 152.0 104.5 150.4 104.6 C 149.3 104.7 150.4 104.7 150.4 104.9 C 149.7 104.9 149.1 104.9 148.5 104.9 C 148.5 104.7 148.5 104.6 148.5 104.5 C 149.2 104.5 150.0 104.5 149.7 104.3 C 149.1 104.3 149.0 104.4 148.5 104.4 C 148.5 104.4 148.5 104.4 148.5 104.4 Z M 263.7 88.0 C 262.4 88.5 263.6 88.2 264.6 87.9 C 264.8 87.7 265.4 87.0 266.9 86.7 C 263.9 88.1 268.0 86.6 266.3 87.4 C 265.5 87.5 263.7 88.5 262.1 89.0 C 261.4 89.0 262.9 88.1 263.7 88.0 C 263.7 88.0 263.7 88.0 263.7 88.0 Z M 269.4 86.0 C 269.2 86.0 268.7 86.2 267.8 86.6 C 268.7 86.0 267.3 86.5 268.5 86.0 C 268.4 86.1 272.5 84.5 270.1 85.6 C 268.0 86.3 270.8 85.4 271.7 85.1 C 270.7 85.5 268.9 86.5 268.6 86.4 C 269.1 86.2 269.6 86.0 269.4 86.0 C 269.4 86.0 269.4 86.0 269.4 86.0 Z M 299.6 63.4 C 299.5 63.2 299.2 63.8 299.0 63.9 C 300.0 62.2 300.5 60.7 300.7 59.9 C 300.5 60.7 300.7 60.7 300.9 60.3 C 300.6 61.2 300.6 61.4 300.4 61.7 C 300.5 60.9 300.1 62.3 299.6 63.4 C 299.6 63.4 299.6 63.4 299.6 63.4 Z M 299.6 63.4 " fill="#000000"></path><image xlink:href="../../1BE7A03E-C66D-4413-94C1-F85C6D2757AE/assets/B8C5E90422A339E8CC6D71927AC6083F.png" width="70.00" height="38.00" transform="matrix(1.00, 0.00, -0.00, -1.00, 120.0, 71.0)"></image><g><clipPath id="clip-1387"><path d="M 5.6 6.4 L 303.7 6.4 L 303.7 106.4 L 5.6 106.4 Z M 5.6 6.4 "></path></clipPath><g clip-path="url(#clip-1387)"><text xml:space="preserve" font-family="Chalkduster" font-size="32.0" fill="#000000" transform="matrix(1.00, 0.00, -0.00, -1.00, 124.0, 42.0)">S</text><text xml:space="preserve" font-family="Chalkduster" font-size="32.0" fill="#000000" transform="matrix(1.00, 0.00, -0.00, -1.00, 139.9, 42.0)">O</text><text xml:space="preserve" font-family="Chalkduster" font-size="32.0" fill="#000000" transform="matrix(1.00, 0.00, -0.00, -1.00, 163.5, 42.0)">B</text></g></g></g></svg>