<?xml version="1.0" encoding="UTF-8" standalone="no"?><svg xmlns="http://www.w3.org/2000/svg" xmlns:xlink="http://www.w3.org/1999/xlink" clip-rule="evenodd" stroke-miterlimit="4.00" viewBox="0 0 574 165"><desc>SVG generated by Keynote</desc><defs><pattern id="60CA33B3-B5D3-43F3-822E-07119279C94E" patternUnits="userSpaceOnUse" width="400" height="400" viewBox="0 0 400 400" patternTransform="matrix(1.000000, 0.000000, 0.000000, -1.000000, 2.000000, 163.000000)"><image xlink:href="../../7BF7A3F1-4E92-4353-840D-A5596D217DCE/assets/CFA53D52FE8B7C3E70EDC25518D34A22.jpeg" width="400.00" height="400.00"></image></pattern><pattern id="3A80BACE-10B3-4400-B9BF-D558A285C8A7" patternUnits="userSpaceOnUse" width="400" height="400" viewBox="0 0 400 400" patternTransform="matrix(1.000000, 0.000000, 0.000000, -1.000000, 2.000000, 90.000000)"><image xlink:href="../../7BF7A3F1-4E92-4353-840D-A5596D217DCE/assets/CFA53D52FE8B7C3E70EDC25518D34A22.jpeg" width="400.00" height="400.00"></image></pattern></defs><g transform="matrix(1.00, 0.00, -0.00, -1.00, 0.0, 165.0)"><g><clipPath id="clip-1220"><path d="M 2.0 163.0 L 573.0 163.0 L 573.0 148.0 L 2.0 148.0 Z M 2.0 163.0 "></path></clipPath><g clip-path="url(#clip-1220)"><g><clipPath id="clip-1221"><path d="M 1.7 -36.6 L 652.1 -36.6 L 652.1 403.9 L 1.7 403.9 Z M 1.7 -36.6 "></path></clipPath><g clip-path="url(#clip-1221)"><path d="M 2.0 148.0 L 573.0 148.0 L 573.0 163.0 L 2.0 163.0 Z M 2.0 148.0 " fill="url(#60CA33B3-B5D3-43F3-822E-07119279C94E)"></path></g></g></g></g><g><clipPath id="clip-1222"><path d="M 2.0 90.0 L 434.0 90.0 L 434.0 75.0 L 2.0 75.0 Z M 2.0 90.0 "></path></clipPath><g clip-path="url(#clip-1222)"><g><clipPath id="clip-1223"><path d="M 1.7 -36.6 L 652.1 -36.6 L 652.1 403.9 L 1.7 403.9 Z M 1.7 -36.6 "></path></clipPath><g clip-path="url(#clip-1223)"><path d="M 2.0 75.0 L 434.0 75.0 L 434.0 90.0 L 2.0 90.0 Z M 2.0 75.0 " fill="url(#3A80BACE-10B3-4400-B9BF-D558A285C8A7)"></path></g></g></g></g><g><clipPath id="clip-1224"><path d="M 2.0 17.0 L 395.0 17.0 L 395.0 2.0 L 2.0 2.0 Z M 2.0 17.0 "></path></clipPath><g clip-path="url(#clip-1224)"><g><clipPath id="clip-1225"><path d="M 1.7 -36.6 L 652.1 -36.6 L 652.1 403.9 L 1.7 403.9 Z M 1.7 -36.6 "></path></clipPath><g clip-path="url(#clip-1225)"><image xlink:href="../../7BF7A3F1-4E92-4353-840D-A5596D217DCE/assets/CFA53D52FE8B7C3E70EDC25518D34A22.jpeg" width="400.00" height="400.00" transform="matrix(1.00, 0.00, -0.00, -1.00, 2.0, 17.0)"></image></g></g></g></g></g></svg>