<?xml version="1.0" encoding="UTF-8" standalone="no"?><svg xmlns="http://www.w3.org/2000/svg" xmlns:xlink="http://www.w3.org/1999/xlink" clip-rule="evenodd" stroke-miterlimit="4.00" viewBox="0 0 284 139"><desc>SVG generated by Keynote</desc><defs></defs><g transform="matrix(1.00, 0.00, -0.00, -1.00, 0.0, 139.0)"><g><clipPath id="clip-878"><path d="M 238.4 115.0 C 291.6 89.9 291.6 49.3 238.4 24.2 C 185.1 -0.9 98.9 -0.9 45.6 24.2 C -7.6 49.3 -7.6 89.9 45.6 115.0 C 98.9 140.1 185.1 140.1 238.4 115.0 Z M 238.4 115.0 "></path></clipPath><g clip-path="url(#clip-878)"><image xlink:href="../../CEFA4209-80C9-472B-8D2B-058B96531B72/assets/59DBD66EA15A3D40E065F836EF2595FD.jpeg" width="400.00" height="400.00" transform="matrix(1.00, 0.00, -0.00, -1.00, 5.7, 133.8)"></image></g></g><path d="M 71.8 10.5 C 71.3 10.7 70.8 10.9 70.1 11.1 C 70.4 11.1 70.7 11.0 70.7 11.2 C 71.3 10.9 72.2 10.6 73.6 10.3 C 73.5 10.2 72.8 10.4 72.4 10.5 C 71.8 10.7 71.9 10.6 71.8 10.5 C 71.8 10.5 71.8 10.5 71.8 10.5 Z M 53.4 121.9 C 52.3 121.5 53.4 122.2 53.8 122.4 C 53.9 122.3 54.0 122.3 54.4 122.5 C 54.4 122.7 53.5 122.4 52.7 122.2 C 49.9 120.9 52.1 121.4 53.4 121.9 C 53.4 121.9 53.4 121.9 53.4 121.9 Z M 215.4 127.0 C 217.9 126.3 215.2 126.8 214.8 126.8 C 215.9 126.4 214.9 126.4 216.3 125.9 C 216.6 125.9 217.2 125.8 217.5 125.9 C 216.8 126.1 215.9 126.3 215.8 126.4 C 216.7 126.2 217.9 125.8 218.1 125.8 C 216.2 126.5 217.8 126.2 218.2 126.2 C 216.5 126.7 216.0 127.1 215.4 127.0 C 215.4 127.0 215.4 127.0 215.4 127.0 Z M 263.4 36.8 C 264.0 37.3 264.5 37.8 264.3 37.8 C 263.6 37.2 263.2 36.8 262.8 36.4 C 262.7 36.4 262.8 36.7 262.2 36.2 C 261.6 35.4 262.1 35.5 262.6 35.7 C 262.5 35.9 264.8 37.7 263.4 36.8 C 263.4 36.8 263.4 36.8 263.4 36.8 Z M 198.4 8.8 C 196.2 8.2 198.2 9.1 196.0 8.5 C 196.1 8.3 195.8 8.0 197.3 8.3 C 197.4 8.5 198.2 8.7 198.4 8.8 C 198.4 8.8 198.4 8.8 198.4 8.8 Z M 146.4 135.1 C 146.4 135.2 148.2 135.1 147.7 135.4 C 146.9 135.4 146.1 135.4 145.2 135.4 C 145.0 135.2 145.3 135.1 146.4 135.1 C 146.4 135.1 146.4 135.1 146.4 135.1 Z M 230.8 119.2 C 233.2 118.5 235.5 117.1 234.8 117.6 C 235.8 117.5 233.5 119.0 233.5 118.7 C 233.1 118.5 228.9 120.0 230.8 119.2 C 230.8 119.2 230.8 119.2 230.8 119.2 Z M 67.0 122.3 C 69.6 123.3 69.3 122.5 70.9 123.3 C 70.3 123.2 70.0 123.2 69.8 123.2 C 70.2 123.3 70.8 123.5 70.8 123.6 C 69.6 123.2 68.0 122.9 67.0 122.3 C 67.0 122.3 67.0 122.3 67.0 122.3 Z M 112.8 3.5 C 113.3 3.5 113.5 3.4 113.4 3.3 C 115.4 3.2 115.3 3.0 116.6 3.0 C 116.7 3.3 115.0 3.4 113.5 3.5 C 113.4 3.5 112.9 3.6 112.8 3.5 C 112.8 3.5 112.8 3.5 112.8 3.5 Z M 168.5 4.2 C 168.5 4.0 167.3 3.8 169.2 3.9 C 171.2 4.4 169.4 4.4 167.2 4.4 C 167.2 4.5 167.2 4.6 167.2 4.7 C 168.0 4.8 168.6 4.8 169.1 4.9 C 169.5 4.6 170.8 5.4 174.0 5.5 C 172.5 5.5 174.1 6.0 172.1 5.6 C 172.6 5.9 171.3 5.8 171.5 6.0 C 172.3 5.9 174.4 6.2 174.0 5.8 C 175.1 6.0 175.9 6.1 176.5 6.2 C 177.2 6.6 174.5 6.0 175.2 6.4 C 175.8 6.5 175.9 6.5 176.4 6.6 C 176.5 6.5 176.3 6.4 177.0 6.4 C 179.0 6.8 176.6 6.7 179.5 7.1 C 179.7 7.0 178.8 6.8 178.9 6.7 C 180.2 6.7 180.1 6.9 181.4 6.9 C 181.6 7.1 180.4 7.0 181.3 7.2 C 182.1 6.9 183.8 7.8 185.6 7.7 C 184.5 7.0 185.9 7.9 187.5 7.6 C 187.8 7.8 186.7 8.0 188.0 8.2 C 187.6 7.5 193.0 8.6 188.8 7.4 C 191.1 7.8 191.9 7.4 190.1 7.0 C 194.1 7.9 192.8 7.3 194.4 7.6 C 195.9 7.9 193.5 7.6 194.3 7.9 C 192.7 7.6 193.0 7.8 191.9 7.4 C 191.9 7.5 191.6 7.6 191.2 7.6 C 192.9 7.7 194.7 8.4 193.5 8.5 C 192.7 8.3 193.5 8.2 192.4 7.9 C 192.8 8.4 191.3 7.7 191.2 7.9 C 191.9 8.3 189.5 8.2 191.7 8.6 C 191.7 8.5 191.7 8.4 191.8 8.2 C 192.3 8.3 192.9 8.4 193.5 8.6 C 194.0 8.9 193.5 9.0 194.1 9.1 C 195.0 9.3 195.6 9.4 195.9 9.3 C 194.7 9.0 193.3 8.6 195.3 8.9 C 194.5 9.2 198.1 9.6 196.4 9.5 C 198.6 10.1 199.8 10.0 199.9 10.4 C 201.1 10.6 200.4 10.2 201.7 10.5 C 203.8 11.2 203.5 10.8 206.3 11.7 C 206.8 11.4 206.6 11.8 207.5 12.1 C 207.5 11.9 207.6 11.8 207.6 11.7 C 208.5 12.2 210.8 12.9 213.2 13.3 C 213.8 13.5 213.3 13.6 214.8 14.0 C 216.5 14.2 218.4 15.1 220.4 15.4 C 220.5 15.6 221.8 16.1 222.5 16.2 C 222.8 16.4 221.8 16.4 223.0 16.8 C 223.8 16.8 222.4 16.3 224.1 16.8 C 223.9 17.0 225.8 17.1 225.7 17.4 C 225.2 17.3 224.6 17.2 224.0 17.1 C 224.8 17.3 224.5 17.4 225.1 17.6 C 225.1 17.3 226.3 18.0 226.7 18.2 C 226.7 18.1 226.8 18.0 227.3 18.1 C 228.2 18.5 228.9 18.7 229.4 18.8 C 230.5 19.4 228.7 18.7 229.8 19.2 C 230.6 18.9 231.5 20.0 234.0 20.6 C 234.5 21.0 235.4 21.5 236.9 22.2 C 237.1 22.1 235.5 21.5 235.5 21.4 C 237.6 22.4 235.2 21.0 236.6 21.7 C 239.6 23.2 243.0 24.8 247.4 27.5 C 247.4 27.3 250.9 29.1 250.8 29.2 C 249.9 28.7 252.4 30.5 253.7 31.4 C 254.2 31.3 256.4 32.3 256.6 32.2 C 257.0 32.7 256.8 32.6 256.8 33.1 C 258.9 34.7 260.1 35.2 261.1 36.5 C 261.1 36.3 262.0 37.0 262.8 37.5 C 262.5 37.5 261.9 37.3 261.5 37.0 C 262.5 37.8 262.5 38.1 263.4 38.8 C 264.7 39.0 265.4 40.9 266.4 41.0 C 267.7 42.3 267.3 42.2 268.4 43.4 C 268.4 43.3 268.6 43.3 269.0 43.6 C 268.2 42.9 267.6 42.5 267.3 41.8 C 269.0 43.5 264.6 38.1 267.6 40.7 C 267.6 40.9 267.2 40.8 267.8 41.4 C 269.4 42.9 268.7 41.8 268.0 41.2 C 269.2 42.2 270.1 43.4 269.5 42.3 C 271.9 44.8 270.3 43.3 270.9 44.3 C 274.9 48.7 278.7 54.7 280.1 61.5 C 280.4 61.7 280.8 65.4 280.7 66.6 C 281.2 68.5 281.2 70.5 280.8 71.1 C 281.1 71.4 280.5 73.4 280.7 73.6 C 280.8 72.8 281.0 72.2 280.9 73.1 C 280.5 75.9 279.3 79.9 278.9 81.6 C 278.3 82.4 277.6 84.2 277.2 85.4 C 277.0 85.6 277.4 84.6 277.0 85.3 C 277.0 85.6 275.8 88.2 275.3 88.7 C 275.8 88.0 276.0 87.0 275.3 88.1 C 275.4 88.2 274.6 89.4 275.0 89.2 C 273.9 90.7 273.4 91.7 272.3 92.9 C 273.1 91.9 273.4 91.2 273.4 90.9 C 272.9 91.9 272.4 92.6 271.7 93.2 C 272.1 93.2 270.9 94.5 269.7 96.1 C 269.3 96.4 268.9 96.6 267.8 97.8 C 267.4 98.5 269.7 96.1 268.5 97.5 C 268.4 97.4 267.2 98.5 267.6 98.4 C 266.1 99.8 265.3 100.8 263.8 101.8 C 265.6 100.3 264.1 101.2 263.6 101.6 C 263.2 101.9 262.6 102.4 262.7 102.5 C 262.8 102.5 263.6 101.8 263.8 101.7 C 262.5 102.7 262.4 103.3 261.8 103.5 C 262.4 103.1 262.4 102.9 261.7 103.4 C 261.8 103.8 257.8 106.6 259.0 105.4 C 259.1 105.5 260.5 104.3 260.6 104.1 C 260.1 104.4 258.0 106.2 258.3 105.6 C 259.6 104.6 259.6 104.8 261.0 103.6 C 261.1 103.4 261.9 102.6 262.4 102.1 C 260.1 104.0 259.7 104.6 259.2 104.6 C 258.2 105.5 259.0 105.2 257.2 106.5 C 254.5 108.3 256.5 106.5 255.8 106.9 C 253.5 108.7 254.4 108.5 255.6 108.0 C 253.7 109.2 253.2 109.8 250.7 111.2 C 250.7 111.0 251.0 110.7 251.8 110.1 C 251.9 110.1 254.0 109.0 253.7 109.0 C 253.4 108.8 251.7 109.7 249.0 111.3 C 249.8 111.2 249.8 111.0 247.0 112.6 C 247.7 112.6 245.7 113.2 245.7 113.5 C 245.9 113.5 246.9 112.9 247.8 112.4 C 247.8 112.6 247.6 112.9 246.6 113.4 C 246.0 113.6 245.6 114.0 243.8 114.8 C 243.6 114.7 244.8 114.0 245.0 113.8 C 244.0 114.3 243.9 114.5 242.9 115.0 C 242.0 115.3 241.9 114.9 241.8 114.6 C 242.9 114.0 244.6 113.1 243.2 113.6 C 247.3 111.5 243.1 114.1 244.7 113.3 C 246.3 112.1 245.6 113.0 248.1 111.5 C 248.9 111.0 249.1 110.8 249.4 110.5 C 249.2 110.6 247.6 111.2 249.2 110.3 C 249.7 110.2 250.7 109.8 251.9 109.0 C 251.9 108.9 249.2 110.4 251.8 108.8 C 253.1 108.0 252.2 109.0 253.8 107.9 C 253.8 107.8 254.2 107.5 254.3 107.3 C 251.9 109.0 254.7 106.9 253.0 107.9 C 255.0 106.4 253.5 107.9 254.9 106.9 C 254.8 106.7 257.2 105.4 257.1 105.2 C 256.3 105.8 254.6 107.0 254.7 106.6 C 256.2 105.6 262.6 100.4 260.3 102.7 C 261.1 101.9 265.1 97.9 264.9 98.3 C 263.7 99.4 263.9 99.5 263.8 99.8 C 265.9 97.5 267.2 96.5 268.9 93.9 C 266.7 96.5 268.1 94.3 266.5 95.6 C 265.9 96.3 265.0 97.2 264.9 97.4 C 265.3 97.3 266.3 96.2 266.6 95.7 C 266.8 95.8 266.9 96.0 267.1 96.1 C 264.2 98.8 262.6 100.4 261.1 101.6 C 262.4 100.5 258.3 103.4 259.8 102.1 C 260.6 101.7 262.1 100.4 263.4 99.4 C 263.4 99.3 263.3 99.3 263.2 99.2 C 263.8 98.7 264.5 98.0 264.5 97.9 C 263.0 99.5 261.9 100.1 260.8 101.2 C 260.7 101.2 260.7 101.2 260.7 101.1 C 260.4 101.4 260.1 101.6 260.1 101.5 C 260.7 101.0 261.5 100.3 261.6 100.2 C 260.3 101.2 259.9 101.2 258.3 102.4 C 258.5 101.9 256.3 103.2 258.4 101.4 C 259.0 101.3 260.2 100.4 260.2 100.6 C 260.9 100.1 262.0 99.0 262.5 98.4 C 261.9 98.8 260.6 99.8 260.4 99.7 C 261.3 98.8 262.0 98.1 262.7 97.7 C 260.9 99.6 263.9 96.9 264.8 96.4 C 264.5 96.5 264.0 96.9 263.7 97.0 C 265.1 95.6 265.8 95.1 265.7 94.8 C 267.2 93.1 267.0 93.6 268.0 92.4 C 267.1 93.0 268.6 91.5 267.6 92.1 C 269.2 90.1 268.4 91.7 268.9 91.0 C 269.4 90.4 269.4 90.2 269.8 89.6 C 270.6 88.8 271.8 86.9 272.2 86.9 C 272.7 86.0 272.8 86.0 273.3 85.1 C 273.3 84.9 273.4 84.6 273.5 84.2 C 273.7 84.1 274.1 83.5 274.0 83.3 C 272.6 85.4 273.0 84.8 271.3 86.9 C 271.3 87.2 271.1 87.5 271.5 87.1 C 270.6 88.7 270.1 89.1 269.1 90.4 C 268.8 90.5 268.3 90.6 267.5 91.9 C 267.5 91.5 267.2 91.8 267.5 91.2 C 268.2 90.7 268.9 89.8 269.7 88.9 C 269.7 88.8 269.4 88.9 269.8 88.4 C 270.2 88.0 270.7 87.3 271.0 86.7 C 271.1 86.7 271.0 87.0 270.9 87.3 C 272.3 85.2 271.6 85.8 272.6 84.2 C 272.3 84.4 271.8 85.4 272.1 84.5 C 272.8 83.0 273.1 82.7 273.5 82.0 C 273.5 81.9 273.4 81.9 273.5 81.5 C 274.1 80.5 272.9 84.0 274.1 82.3 C 273.9 82.1 274.7 80.3 275.0 80.1 C 274.9 80.7 274.2 81.7 274.3 81.9 C 275.8 78.5 274.9 81.9 276.1 78.5 C 276.0 78.5 275.9 78.4 275.8 78.4 C 275.4 79.8 275.2 79.8 275.0 79.6 C 274.5 80.8 274.0 81.1 273.8 82.2 C 273.5 81.6 274.2 81.2 274.7 80.0 C 274.4 79.9 274.0 81.0 273.7 81.1 C 275.0 78.4 274.9 77.8 275.8 75.2 C 275.4 75.8 276.0 73.7 275.7 73.8 C 275.4 76.1 274.9 75.1 274.7 75.4 C 274.5 76.9 275.0 76.3 274.9 77.2 C 274.6 77.6 274.5 77.3 274.3 77.1 C 274.7 75.8 274.6 76.0 274.7 74.9 C 275.0 74.1 275.6 73.4 275.5 74.7 C 275.5 74.4 275.6 72.7 275.8 72.5 C 275.6 74.2 276.0 72.4 276.0 73.4 C 276.3 72.1 276.1 69.8 276.3 68.3 C 276.1 68.4 276.1 67.8 275.9 67.9 C 276.3 69.4 275.7 69.7 275.6 71.2 C 275.6 70.6 275.5 70.9 275.4 71.2 C 275.6 69.8 275.4 69.0 275.5 67.9 C 275.5 67.9 275.4 67.9 275.3 67.9 C 275.4 66.1 275.3 66.3 274.9 65.0 C 274.9 64.4 275.5 65.1 275.7 65.3 C 275.5 64.6 275.1 62.2 275.1 63.6 C 274.8 62.2 275.2 62.5 274.8 61.0 C 274.5 61.0 274.9 62.4 274.5 62.0 C 274.0 60.7 274.6 61.3 274.0 60.3 C 274.2 60.2 274.4 60.1 274.0 58.9 C 274.1 59.8 273.8 58.8 273.6 58.6 C 273.7 59.1 273.9 59.6 273.9 59.9 C 273.2 57.8 273.0 57.4 272.1 55.7 C 272.6 56.2 272.2 55.2 272.9 56.3 C 272.2 55.3 271.8 53.8 271.3 53.3 C 271.6 54.0 272.2 55.1 272.3 55.6 C 270.5 52.3 269.0 50.7 267.0 47.6 C 267.4 48.1 267.9 48.8 268.0 48.8 C 267.8 48.5 267.3 48.0 267.4 47.9 C 268.2 49.0 269.0 49.9 269.4 50.4 C 270.0 51.4 268.9 50.0 269.5 51.0 C 269.7 51.0 270.8 52.9 270.6 52.1 C 269.4 50.6 268.4 48.9 268.2 48.0 C 266.6 46.8 267.8 48.2 266.1 46.9 C 266.2 46.8 266.0 46.4 265.6 45.9 C 265.7 46.6 264.1 44.6 263.9 44.4 C 264.7 45.0 267.3 47.6 266.3 46.0 C 266.4 47.1 263.3 42.7 263.7 43.8 C 261.9 42.0 262.8 42.4 261.6 41.7 C 261.6 41.6 261.8 41.6 261.3 41.1 C 260.7 40.7 260.5 40.6 260.2 40.4 C 262.9 42.9 261.9 42.4 263.4 44.0 C 263.2 43.8 262.9 43.5 263.0 43.7 C 262.9 43.7 262.8 43.7 262.5 43.3 C 262.6 43.0 261.1 42.1 260.9 41.6 C 261.4 42.1 261.9 42.5 261.8 42.3 C 259.6 40.3 260.3 40.4 256.9 37.6 C 257.8 38.5 256.4 37.5 255.1 36.6 C 253.4 35.3 254.3 35.4 252.0 33.9 C 251.9 34.6 249.6 32.2 246.3 30.8 C 246.8 30.7 242.7 28.3 241.7 28.1 C 241.6 27.9 240.0 27.2 238.9 26.6 C 238.7 26.4 240.1 27.0 239.0 26.4 C 238.0 26.0 238.3 26.4 237.5 26.0 C 236.5 25.5 236.8 25.3 235.2 24.7 C 235.1 24.8 235.9 25.2 235.1 24.9 C 233.8 24.2 232.5 23.7 233.6 24.4 C 231.5 23.6 232.7 23.6 230.7 22.8 C 231.3 23.2 231.2 23.2 230.1 22.8 C 229.5 22.4 229.5 22.3 229.3 22.1 C 228.6 22.0 228.8 22.1 227.2 21.4 C 227.1 21.5 227.1 21.6 227.1 21.7 C 226.3 21.4 225.2 21.0 225.0 20.9 C 226.4 21.4 226.1 21.1 226.7 21.2 C 225.3 20.6 222.6 19.4 224.6 20.5 C 222.6 19.8 223.7 19.9 222.1 19.4 C 223.0 20.0 222.1 19.4 220.4 18.9 C 220.5 19.3 219.3 18.6 218.3 18.3 C 218.4 18.5 218.1 18.5 217.1 18.2 C 217.2 18.1 216.6 17.9 215.6 17.6 C 215.5 17.7 217.8 18.5 215.5 17.8 C 214.5 17.4 214.5 17.1 212.8 16.6 C 212.5 16.3 214.4 16.9 214.1 16.6 C 212.6 16.4 212.2 16.1 210.2 15.4 C 210.9 16.1 205.9 14.9 208.3 15.8 C 207.6 15.6 206.5 15.6 206.0 15.3 C 206.8 15.4 205.5 14.9 205.6 14.8 C 204.6 14.6 202.3 13.9 202.2 14.1 C 204.3 14.5 204.3 14.8 204.9 15.1 C 201.7 14.4 198.9 13.7 199.2 13.5 C 199.2 13.6 198.8 13.5 198.6 13.5 C 199.8 13.7 200.4 14.3 199.1 14.0 C 199.4 13.8 198.5 13.6 197.5 13.3 C 197.4 13.5 193.2 12.3 193.9 12.8 C 195.7 12.9 197.0 13.6 195.6 13.5 C 194.6 13.0 192.3 12.4 192.8 12.3 C 192.2 12.3 191.6 12.3 191.0 12.2 C 190.5 12.4 191.8 12.6 191.5 12.7 C 190.7 12.6 189.3 12.4 189.2 12.2 C 191.5 12.6 188.0 11.9 190.4 12.1 C 188.9 11.9 188.6 11.7 187.5 11.5 C 187.5 11.5 187.0 11.5 186.9 11.5 C 187.9 11.5 188.9 11.9 188.6 12.1 C 186.5 11.7 186.9 11.5 185.1 11.2 C 184.5 11.3 182.0 11.3 180.8 10.9 C 183.2 11.3 180.6 10.8 182.1 10.9 C 184.2 11.3 184.8 11.2 185.7 11.1 C 184.8 10.8 183.0 10.4 182.7 10.7 C 183.9 10.9 183.9 10.8 184.5 10.8 C 184.4 11.0 184.1 11.0 183.2 10.9 C 182.3 10.6 180.0 10.5 181.5 10.4 C 180.0 10.3 178.3 9.8 176.7 9.8 C 178.5 10.1 179.7 10.3 180.2 10.6 C 178.8 10.5 177.3 10.0 177.2 10.2 C 177.4 10.4 179.8 10.7 180.2 10.9 C 178.3 10.9 175.5 9.8 177.8 10.7 C 176.7 10.5 175.2 10.3 174.8 10.1 C 176.1 10.3 174.7 9.8 174.2 9.7 C 173.0 9.5 172.1 9.5 171.7 9.5 C 173.5 9.6 174.7 10.1 173.5 10.0 C 173.2 9.8 172.9 10.0 172.3 9.9 C 172.2 9.8 170.2 9.7 169.9 9.5 C 170.0 9.7 170.9 9.8 171.1 9.9 C 169.9 9.8 168.2 10.0 167.4 9.6 C 168.1 9.7 169.2 9.8 169.2 9.7 C 166.1 9.0 165.1 8.7 161.3 8.2 C 161.8 8.3 162.0 8.2 161.9 8.1 C 159.5 7.9 157.9 7.7 158.2 7.6 C 156.7 7.5 155.9 7.6 155.1 7.7 C 156.7 7.9 157.2 7.7 158.2 8.0 C 157.6 8.0 159.4 8.5 160.0 8.7 C 162.7 8.7 162.9 9.1 165.6 9.1 C 164.8 9.3 167.6 9.4 166.8 9.6 C 164.3 9.0 161.8 9.1 158.2 8.7 C 158.7 8.5 159.1 8.4 157.6 8.2 C 155.2 7.9 156.4 8.3 154.4 8.2 C 153.6 7.9 154.8 8.0 153.8 7.8 C 153.2 7.9 151.3 7.8 150.7 7.6 C 153.3 7.7 150.3 7.3 152.0 7.3 C 151.1 7.3 150.6 7.2 150.1 7.2 C 152.6 7.5 147.6 7.4 149.4 7.7 C 146.0 7.7 149.2 7.1 146.3 7.1 C 147.8 7.3 145.9 7.3 143.8 7.3 C 143.3 7.0 141.2 7.0 139.4 6.9 C 140.4 7.1 141.0 7.1 139.4 7.2 C 140.3 7.3 141.8 7.3 142.6 7.2 C 142.6 7.3 142.9 7.4 143.2 7.4 C 141.2 7.5 142.0 7.6 141.3 7.7 C 140.7 7.6 139.2 7.6 138.8 7.5 C 138.8 7.5 138.3 7.6 138.2 7.6 C 140.9 7.6 137.8 8.0 139.5 8.0 C 140.6 8.0 139.9 7.7 141.3 7.8 C 142.7 8.1 140.2 8.1 139.5 8.3 C 140.7 8.5 142.1 8.2 142.6 8.5 C 141.0 8.8 138.4 8.6 136.4 8.5 C 136.5 8.9 132.9 8.5 132.6 9.0 C 132.3 8.9 131.9 8.8 131.4 8.8 C 130.8 9.0 130.1 8.7 129.5 8.7 C 129.4 8.9 129.6 9.0 130.1 9.0 C 127.6 9.0 127.0 9.1 124.0 9.4 C 123.5 9.2 122.9 9.1 122.7 9.0 C 123.4 8.9 124.0 8.8 124.5 8.7 C 120.4 8.9 123.1 9.4 120.2 9.2 C 120.3 9.4 122.3 9.5 120.8 9.7 C 118.2 9.6 114.6 10.2 114.7 9.5 C 112.4 9.5 110.9 10.1 109.8 9.9 C 109.1 10.0 108.8 10.1 108.5 10.2 C 109.3 10.3 110.2 10.3 111.0 10.3 C 112.4 10.1 113.0 10.2 111.6 10.0 C 113.7 9.8 114.2 9.9 115.3 9.9 C 112.5 10.3 109.9 10.4 109.9 10.8 C 108.9 10.8 108.2 10.7 107.4 10.6 C 107.1 10.8 104.0 11.3 103.7 11.1 C 105.9 10.9 108.0 10.3 106.1 10.4 C 100.9 11.2 98.0 11.2 93.6 12.3 C 93.4 12.2 93.7 12.0 92.9 12.1 C 92.9 12.2 92.8 12.4 92.3 12.5 C 91.0 12.8 90.1 12.8 88.3 13.2 C 88.3 13.0 88.0 12.9 87.0 13.0 C 86.5 13.4 84.7 14.2 83.6 14.4 C 84.8 14.1 83.2 14.2 82.5 14.3 C 83.2 14.5 77.3 15.3 79.0 15.2 C 76.7 15.8 75.7 16.0 75.6 15.9 C 74.8 16.1 74.3 16.4 73.5 16.6 C 72.9 16.4 69.1 17.8 68.5 17.8 C 69.8 17.5 70.0 17.1 68.9 17.4 C 68.2 17.8 64.9 19.1 64.2 19.3 C 64.4 19.1 64.6 18.8 66.2 18.2 C 63.4 19.1 63.5 19.4 62.7 20.0 C 62.7 19.6 61.5 20.3 61.1 20.5 C 60.2 20.7 61.1 20.4 61.0 20.2 C 60.0 20.5 59.6 20.5 58.3 21.0 C 58.8 21.1 57.3 21.5 56.8 21.7 C 56.7 21.9 56.0 22.3 54.9 22.7 C 56.3 21.8 48.5 25.0 50.4 24.5 C 49.0 25.3 48.8 24.9 46.9 25.8 C 46.6 26.1 45.5 26.5 46.6 26.2 C 45.9 26.6 45.2 26.8 44.9 26.9 C 44.6 27.0 44.2 27.1 42.9 27.8 C 44.2 27.5 40.2 29.1 41.0 29.2 C 39.7 29.4 37.9 31.0 35.7 31.9 C 35.7 32.0 35.2 32.3 35.1 32.4 C 34.9 32.7 37.6 31.1 35.9 32.2 C 33.7 33.3 34.8 32.6 34.4 32.7 C 28.9 36.2 23.2 40.5 19.3 44.5 C 19.9 44.1 19.9 44.2 19.1 45.1 C 17.6 45.9 14.1 50.9 13.7 51.7 C 13.1 52.0 11.9 54.6 11.6 55.0 C 11.8 54.5 12.1 53.5 11.6 54.5 C 11.5 55.3 10.8 56.1 10.6 57.2 C 10.1 57.6 9.2 60.8 9.3 59.2 C 9.0 59.8 8.9 60.1 8.7 60.4 C 9.0 60.6 8.8 61.2 9.3 60.1 C 8.1 62.9 8.3 63.6 7.8 65.7 C 7.9 66.1 8.2 64.5 8.1 65.8 C 8.1 65.8 8.0 65.8 7.9 65.8 C 7.9 66.2 8.0 66.4 7.8 66.6 C 7.7 66.5 7.8 65.8 7.6 65.7 C 7.5 66.8 7.1 67.5 7.3 67.9 C 7.5 66.4 7.8 67.4 7.6 68.3 C 7.5 67.5 7.6 71.7 7.9 73.1 C 7.7 73.8 7.7 71.6 7.5 71.8 C 7.8 74.3 7.7 74.1 8.1 74.4 C 8.2 75.7 8.2 76.3 8.8 77.8 C 9.0 78.8 8.4 77.3 8.7 78.3 C 9.0 78.9 9.2 79.1 9.5 80.0 C 9.9 82.5 13.6 87.5 14.9 90.5 C 14.3 89.4 15.4 90.6 16.5 92.0 C 16.5 92.2 16.2 92.1 16.7 92.6 C 16.7 92.4 17.2 92.8 18.0 93.7 C 18.0 93.8 17.7 93.8 18.1 94.3 C 18.7 94.4 19.6 95.7 20.3 96.3 C 20.4 96.7 18.7 94.8 18.5 94.8 C 20.4 97.1 21.0 97.3 22.7 98.9 C 21.8 98.1 23.3 99.7 23.5 100.0 C 23.3 99.4 24.8 100.6 23.9 99.6 C 24.6 100.2 25.7 101.1 25.8 101.3 C 25.4 101.0 24.8 100.4 24.7 100.5 C 25.7 101.2 26.7 102.4 27.3 102.5 C 26.7 102.0 26.3 101.6 26.4 101.5 C 26.7 101.6 27.0 101.8 27.6 102.1 C 25.7 101.5 30.4 104.6 30.8 104.6 C 31.0 105.2 31.3 105.4 31.0 105.4 C 33.0 106.8 32.9 106.4 34.2 107.1 C 33.7 107.1 33.1 107.1 35.1 108.4 C 34.8 107.9 37.3 109.4 36.7 108.6 C 39.4 110.1 41.1 111.1 42.5 111.9 C 44.0 112.7 45.5 113.6 46.7 114.1 C 46.8 114.0 46.1 113.7 46.8 114.0 C 47.9 114.6 48.8 115.1 49.5 115.6 C 50.2 115.6 49.4 115.2 50.1 115.5 C 51.8 116.5 51.3 116.6 52.9 117.4 C 54.9 118.0 54.1 117.9 55.5 118.1 C 54.9 117.9 54.3 117.5 55.1 117.8 C 56.2 118.5 56.6 118.9 56.9 119.1 C 56.0 118.7 55.3 118.5 54.9 118.2 C 54.5 118.3 53.3 117.8 54.3 118.3 C 53.0 117.7 51.6 117.1 49.7 116.4 C 50.3 116.9 48.1 115.7 48.7 116.2 C 50.7 117.1 51.1 117.4 53.1 118.2 C 52.8 117.8 54.8 118.7 55.2 118.9 C 55.2 118.8 56.6 119.4 56.3 119.0 C 57.9 119.6 57.8 119.8 59.4 120.3 C 59.5 120.4 59.2 120.4 59.8 120.7 C 60.5 120.6 60.9 121.1 61.4 121.3 C 61.1 120.9 63.4 121.9 63.6 121.7 C 63.0 121.5 62.1 121.2 62.1 121.1 C 64.6 122.0 62.6 121.1 62.2 120.7 C 62.2 120.9 61.2 120.9 61.1 120.6 C 63.3 121.2 58.2 119.1 60.1 119.9 C 61.7 120.6 61.7 120.3 63.3 121.0 C 65.2 122.0 62.7 121.5 64.6 122.5 C 65.9 122.7 66.7 123.0 66.9 122.8 C 67.1 123.0 67.4 123.2 67.9 123.4 C 68.5 123.4 66.4 122.6 68.0 123.1 C 68.8 123.4 67.8 123.4 69.6 123.9 C 70.4 123.9 67.5 123.0 69.1 123.4 C 70.7 124.3 68.8 123.2 70.8 123.7 C 70.9 123.8 71.2 123.9 71.9 124.1 C 72.0 124.3 71.6 124.4 72.3 124.6 C 72.8 124.3 73.1 125.0 74.6 125.3 C 75.5 125.2 73.1 124.7 73.6 124.6 C 75.2 125.3 76.3 125.3 76.9 125.5 C 75.5 125.3 79.0 126.2 79.1 126.4 C 78.8 126.1 79.5 126.4 81.5 126.6 C 81.6 127.1 83.9 127.3 84.3 127.7 C 84.6 127.7 85.2 127.7 85.5 127.7 C 84.8 127.5 84.2 127.3 84.4 127.3 C 85.0 127.4 85.6 127.5 86.2 127.6 C 87.1 128.0 84.5 128.0 88.4 128.8 C 88.0 128.3 89.7 128.6 90.8 128.7 C 90.7 128.4 89.2 128.4 89.1 128.2 C 90.5 128.3 91.8 128.8 92.6 129.1 C 94.9 129.4 97.7 130.0 101.0 130.4 C 101.8 130.7 98.2 130.1 100.4 130.6 C 101.3 130.7 100.9 130.5 102.2 130.7 C 100.9 131.6 111.4 132.1 112.0 132.6 C 112.4 132.4 115.4 132.8 115.1 132.5 C 113.1 132.5 111.7 132.1 110.8 131.8 C 108.9 131.7 112.4 132.2 110.7 132.1 C 110.6 131.9 108.0 131.8 108.3 131.6 C 111.0 131.9 107.0 131.2 109.0 131.2 C 111.4 131.5 116.3 131.7 115.2 131.9 C 115.2 131.8 114.1 131.7 113.9 131.8 C 116.7 132.2 118.4 132.1 119.5 132.1 C 120.8 132.4 125.8 132.3 124.5 132.4 C 124.9 132.7 121.5 132.2 122.0 132.4 C 127.2 132.9 127.3 132.6 130.7 133.0 C 129.6 132.6 134.3 132.7 133.9 132.7 C 133.9 133.0 134.9 133.2 137.0 133.0 C 136.7 133.2 137.8 133.3 138.9 133.4 C 139.4 133.2 138.0 133.2 138.2 133.0 C 139.3 133.0 140.4 133.0 141.4 133.0 C 141.5 133.1 141.3 133.2 142.0 133.3 C 143.2 133.1 147.4 132.8 147.1 133.0 C 145.3 133.3 150.0 133.2 147.1 133.5 C 147.9 133.4 147.9 133.5 149.0 133.5 C 149.0 133.4 149.0 133.3 149.0 133.2 C 151.3 133.1 150.2 133.5 152.1 133.5 C 152.3 133.4 153.2 133.3 153.4 133.2 C 152.6 133.2 152.5 133.3 151.5 133.3 C 152.6 132.9 149.4 133.2 149.6 132.9 C 151.8 132.8 151.8 133.1 152.7 133.1 C 155.5 132.9 154.2 133.0 157.1 132.9 C 157.1 132.8 156.3 132.9 156.5 132.7 C 160.0 132.6 159.7 133.1 162.1 132.8 C 161.6 132.9 159.4 133.2 160.9 133.1 C 162.6 132.9 163.0 132.6 165.2 132.4 C 165.3 132.5 165.2 132.6 165.9 132.6 C 166.8 132.4 166.8 132.2 167.7 132.0 C 167.9 132.1 169.1 132.0 169.5 131.9 C 170.4 132.0 169.3 132.1 170.2 132.1 C 172.1 131.9 173.0 131.3 174.5 131.2 C 174.4 131.5 176.1 131.2 177.6 131.0 C 177.9 131.2 181.0 130.8 183.1 130.5 C 182.6 130.4 184.7 130.1 184.2 129.9 C 183.2 130.1 182.7 130.1 182.4 130.1 C 184.8 129.7 185.6 130.1 187.2 129.4 C 188.1 129.4 189.3 129.4 190.9 129.2 C 191.0 129.0 188.0 129.4 189.6 129.1 C 189.8 129.1 190.3 129.0 190.8 128.8 C 190.6 129.2 191.9 129.0 192.7 129.0 C 194.0 128.5 197.0 128.3 195.6 128.3 C 197.8 127.8 196.4 128.5 198.1 128.1 C 197.2 128.0 200.0 127.4 198.5 127.5 C 200.7 126.9 200.7 127.4 199.8 127.7 C 201.8 127.3 202.2 127.0 203.3 126.9 C 202.3 126.9 205.3 126.0 203.8 126.5 C 203.3 126.9 205.6 126.2 206.1 126.2 C 205.4 126.2 206.4 126.0 204.9 126.2 C 206.4 125.7 208.6 125.1 210.1 125.0 C 211.9 124.4 213.6 123.8 212.9 124.3 C 214.6 123.8 213.9 124.0 215.7 123.5 C 215.6 123.4 215.1 123.5 215.0 123.5 C 217.4 122.8 217.0 123.1 220.0 122.1 C 219.7 122.5 221.7 121.9 222.3 121.8 C 221.0 122.3 220.0 122.5 219.0 122.8 C 218.8 123.0 219.8 122.7 219.1 123.0 C 218.9 123.0 218.4 123.1 218.0 123.2 C 220.0 122.8 215.5 124.4 216.9 123.7 C 216.9 123.7 217.0 123.8 217.4 123.6 C 217.0 123.5 217.0 123.6 217.3 123.2 C 216.3 123.6 215.4 123.6 215.1 123.9 C 215.2 124.0 216.2 123.7 216.3 123.7 C 213.8 124.6 215.5 123.6 213.5 124.3 C 213.1 124.7 214.2 124.4 214.7 124.4 C 212.9 125.0 211.3 125.4 210.7 125.4 C 209.1 126.0 210.9 125.6 209.7 126.0 C 209.1 126.1 209.1 125.9 207.9 126.2 C 206.7 126.6 208.7 126.2 207.4 126.5 C 206.0 126.7 208.3 126.0 206.2 126.4 C 206.8 126.7 204.3 126.9 204.5 127.0 C 205.7 126.7 205.8 127.0 205.1 127.0 C 202.2 127.3 200.5 128.6 197.5 128.7 C 197.5 128.8 197.1 128.9 197.0 129.0 C 199.2 128.7 202.3 128.0 202.9 128.2 C 204.6 127.7 204.3 127.6 204.6 127.4 C 206.6 127.2 206.5 127.3 205.4 128.0 C 202.1 128.8 200.6 129.0 198.3 129.3 C 197.2 129.8 198.5 129.4 199.0 129.4 C 192.0 130.7 197.4 130.3 194.9 130.7 C 194.9 130.5 194.4 130.6 193.7 130.7 C 193.7 130.8 192.6 131.0 192.5 131.1 C 192.9 131.0 193.2 131.0 193.1 131.1 C 191.4 131.5 192.0 131.1 191.9 131.0 C 193.2 130.8 194.1 130.6 194.2 130.4 C 192.5 130.9 191.1 130.9 190.0 131.3 C 188.3 131.3 190.8 130.5 189.9 130.4 C 190.1 130.2 188.9 131.2 187.6 131.5 C 185.4 131.9 185.4 132.1 183.4 132.4 C 182.8 132.3 185.4 132.0 185.2 131.8 C 184.6 131.9 184.4 131.9 183.9 131.9 C 182.5 132.2 182.6 132.4 181.5 132.6 C 180.9 132.5 180.5 132.7 179.7 132.9 C 178.3 132.9 180.5 132.6 179.0 132.7 C 177.5 132.9 176.5 133.3 176.0 133.3 C 175.9 133.3 176.1 133.1 175.4 133.2 C 173.6 133.6 173.2 133.6 175.4 133.5 C 173.5 133.7 172.6 133.9 173.0 134.1 C 175.9 133.8 176.6 133.7 177.9 133.8 C 178.5 133.5 179.3 133.6 180.4 133.5 C 179.7 133.2 181.7 133.3 182.2 133.0 C 181.5 133.1 180.8 133.1 180.4 133.1 C 183.4 132.7 183.4 132.8 185.8 132.0 C 185.8 132.1 186.1 132.1 186.4 132.1 C 185.7 132.4 183.5 132.6 183.4 132.8 C 185.2 132.9 185.7 132.3 187.7 132.3 C 188.5 132.0 186.1 132.3 187.7 132.0 C 188.5 132.0 189.5 132.0 190.7 131.9 C 192.0 131.6 192.7 131.4 193.7 131.1 C 193.8 131.2 194.0 131.2 194.9 131.0 C 194.9 130.9 193.9 131.0 194.9 130.8 C 198.1 130.5 200.2 130.2 203.3 129.4 C 202.2 129.6 199.6 129.8 200.8 129.6 C 202.3 129.4 204.1 128.7 205.5 128.6 C 206.0 128.6 203.8 128.9 204.4 129.2 C 205.8 128.8 206.6 128.7 207.3 128.6 C 207.3 128.4 208.8 128.0 208.4 127.9 C 207.3 128.2 207.0 128.6 206.7 128.5 C 207.5 127.6 211.0 127.7 213.1 127.1 C 214.4 126.6 211.9 127.2 213.5 126.6 C 214.5 126.2 215.2 126.6 213.7 127.2 C 212.6 127.3 212.2 127.8 211.9 127.6 C 211.5 127.7 210.8 127.9 210.9 128.0 C 211.6 127.8 211.5 128.0 212.0 127.9 C 210.9 128.1 210.9 128.7 209.8 128.7 C 210.5 128.5 210.7 128.3 210.9 128.2 C 207.9 129.1 206.9 129.1 205.1 129.4 C 206.1 129.4 205.0 129.6 205.1 129.7 C 206.5 129.4 209.1 128.9 207.5 129.3 C 206.4 129.3 205.7 130.3 204.7 130.2 C 205.4 130.0 205.3 129.9 205.7 129.7 C 204.5 130.0 204.5 129.8 203.3 130.0 C 199.6 131.3 196.6 131.3 190.3 132.9 C 188.1 133.3 192.3 132.5 192.1 132.3 C 191.4 132.4 191.3 132.4 190.8 132.4 C 190.8 132.7 189.7 132.6 189.1 133.0 C 189.1 132.7 186.2 133.4 184.7 133.4 C 184.7 133.5 184.9 133.6 184.2 133.8 C 179.6 134.1 171.4 135.5 168.0 135.5 C 168.1 135.7 166.6 135.9 166.2 136.0 C 164.0 136.2 164.9 135.9 161.8 136.4 C 160.2 136.5 162.1 136.2 162.4 136.1 C 157.6 136.5 153.3 136.5 150.3 136.8 C 148.8 137.0 150.3 136.7 147.1 136.7 C 147.1 137.0 142.1 136.5 141.4 136.9 C 139.5 137.0 136.0 136.5 137.6 136.8 C 135.0 136.8 136.7 136.5 135.7 136.5 C 133.9 136.5 136.2 137.1 134.4 137.1 C 134.6 136.8 133.0 136.9 131.9 136.6 C 133.3 136.7 134.2 136.7 134.4 136.5 C 133.2 136.6 133.2 136.5 131.3 136.4 C 129.8 136.5 125.5 136.5 124.3 136.1 C 124.2 136.2 124.6 136.3 124.9 136.4 C 123.6 136.3 122.2 136.0 122.3 136.3 C 119.5 136.1 118.3 135.7 116.7 135.9 C 115.5 135.8 117.1 135.7 113.5 135.3 C 113.5 135.5 107.1 134.8 105.5 134.4 C 105.4 134.7 105.0 134.4 104.3 134.2 C 104.1 134.3 104.3 134.5 103.6 134.4 C 103.5 134.3 102.9 134.2 102.4 134.2 C 102.8 133.9 100.1 134.0 99.9 133.7 C 100.5 133.8 100.5 133.6 100.0 133.5 C 99.7 133.7 97.2 132.9 97.5 133.2 C 98.0 133.3 99.8 133.5 99.3 133.7 C 96.9 133.4 97.9 133.2 96.3 133.0 C 96.4 133.1 97.3 133.3 96.2 133.2 C 94.6 132.9 96.1 133.1 95.1 132.8 C 94.2 132.7 92.6 132.6 92.0 132.5 C 92.1 132.5 91.6 132.2 91.4 132.2 C 88.3 131.5 81.3 130.3 78.5 129.2 C 78.2 129.3 77.6 129.2 77.8 129.4 C 76.1 128.8 76.1 128.9 74.4 128.4 C 74.4 128.5 74.3 128.6 74.3 128.7 C 72.0 128.2 74.2 128.3 72.7 127.9 C 72.3 128.4 71.8 127.5 70.4 127.1 C 70.2 127.2 69.6 127.0 69.7 127.2 C 67.6 126.6 67.8 126.3 66.0 125.8 C 66.4 126.0 66.5 126.8 66.2 127.0 C 65.9 126.8 65.4 126.6 64.6 126.3 C 65.6 126.3 65.4 125.3 62.7 124.7 C 64.1 125.1 64.6 125.4 64.2 125.5 C 62.2 124.9 61.6 124.5 59.9 123.9 C 59.6 124.0 60.8 124.5 60.3 124.6 C 59.8 124.4 59.6 124.4 59.7 124.5 C 57.9 123.9 57.9 123.7 56.0 123.1 C 56.0 123.0 56.4 123.1 57.1 123.4 C 57.0 123.2 57.1 123.0 58.3 123.4 C 58.4 123.6 57.6 123.6 59.2 124.1 C 59.3 124.0 59.3 123.9 59.4 123.8 C 58.2 123.3 55.5 122.1 55.2 122.1 C 55.7 122.4 56.6 122.8 56.0 122.9 C 54.1 122.1 53.6 121.6 52.0 120.8 C 49.2 119.7 44.4 117.5 44.8 118.1 C 43.3 117.2 43.5 117.4 41.4 116.3 C 41.9 116.8 39.0 115.1 39.1 115.4 C 41.7 116.7 40.9 116.4 43.6 117.6 C 43.4 117.7 42.9 117.6 41.9 117.1 C 41.8 116.9 40.7 116.4 39.0 115.5 C 39.3 115.7 40.7 116.7 38.9 115.8 C 38.8 115.6 38.4 115.4 37.5 115.0 C 37.6 114.9 37.7 114.7 37.7 114.6 C 38.7 115.1 39.9 115.6 40.7 115.9 C 40.0 115.5 39.9 115.4 39.3 115.1 C 38.8 115.0 36.0 113.3 35.7 113.3 C 36.9 113.9 37.5 114.5 36.3 113.8 C 36.1 113.7 34.3 112.6 33.6 112.3 C 35.9 113.8 35.0 113.3 36.1 114.2 C 33.3 112.7 33.9 112.7 30.9 110.9 C 30.9 110.7 31.0 110.6 31.8 110.9 C 30.2 109.4 25.9 107.0 24.7 106.0 C 25.6 106.7 26.7 107.1 25.4 106.1 C 25.4 106.2 24.4 105.5 24.2 105.4 C 23.5 105.5 24.5 106.5 25.3 107.4 C 24.3 106.7 24.0 106.6 23.0 105.8 C 22.8 105.4 24.0 105.9 22.9 105.0 C 22.4 105.1 20.6 103.2 20.1 103.1 C 20.9 103.7 21.3 104.3 20.5 103.6 C 20.7 103.6 19.0 102.3 19.1 102.1 C 20.5 103.2 21.0 103.3 21.8 104.0 C 20.8 103.1 22.7 104.5 21.0 103.0 C 20.1 102.5 19.5 102.3 17.8 100.7 C 17.1 100.0 17.9 100.4 17.1 99.6 C 17.1 100.0 15.3 98.2 16.5 99.2 C 15.9 98.5 15.6 98.2 15.3 97.8 C 16.0 98.8 11.9 94.7 12.3 95.5 C 12.6 95.3 12.6 94.9 12.5 94.6 C 11.6 93.9 10.9 92.8 9.3 90.4 C 9.1 90.7 9.0 90.0 8.4 89.0 C 8.1 88.9 8.6 89.9 8.2 89.2 C 7.5 87.9 7.5 87.9 7.5 87.6 C 7.0 86.7 6.7 86.1 6.6 85.6 C 6.4 85.6 6.5 85.9 6.6 86.2 C 5.1 82.8 4.2 81.2 3.5 78.3 C 3.7 79.5 4.2 79.7 3.9 78.7 C 3.7 78.1 3.5 77.6 3.4 77.3 C 3.3 78.0 3.3 77.7 3.1 76.2 C 2.7 75.0 2.8 76.8 2.6 75.8 C 2.5 74.7 2.7 75.3 2.7 74.7 C 2.6 74.2 2.6 73.7 2.5 73.2 C 2.5 74.1 2.3 73.1 2.1 72.2 C 2.4 72.8 2.4 72.4 2.3 70.6 C 2.4 70.4 2.5 71.4 2.5 70.6 C 2.5 70.2 2.2 68.8 2.5 67.6 C 2.5 68.0 2.5 68.2 2.6 68.1 C 2.5 66.7 2.9 65.7 3.2 64.6 C 2.8 65.7 2.7 65.0 2.5 65.5 C 2.9 64.4 2.9 62.9 3.4 62.0 C 2.9 63.7 3.8 62.2 4.1 61.1 C 3.9 60.8 3.5 62.6 3.4 62.0 C 3.3 61.4 4.0 60.1 3.9 59.5 C 3.8 59.5 3.8 60.3 3.6 60.4 C 3.8 59.5 3.4 60.7 3.6 59.9 C 4.0 59.5 3.8 58.8 4.0 58.4 C 4.2 57.7 5.1 56.6 5.1 55.9 C 5.0 55.9 4.7 56.8 4.6 56.9 C 5.5 54.1 6.2 53.4 7.3 50.9 C 7.6 50.7 8.0 50.2 8.4 49.6 C 8.3 49.5 8.5 49.1 8.8 48.5 C 9.6 47.5 10.4 46.6 11.5 45.4 C 11.5 45.7 11.0 46.4 12.4 44.7 C 12.4 44.5 11.8 45.2 12.3 44.6 C 12.4 44.6 12.7 44.2 12.7 44.1 C 12.7 44.0 12.6 44.0 12.6 44.0 C 12.2 44.5 11.8 44.9 11.5 45.4 C 11.4 45.2 11.2 45.3 10.9 45.6 C 12.4 43.5 12.7 44.0 13.6 42.5 C 14.1 42.5 14.6 42.2 13.8 43.4 C 14.8 42.2 15.4 41.4 15.6 40.9 C 14.3 42.3 14.5 41.7 14.0 42.0 C 14.9 41.1 14.8 41.0 15.2 40.5 C 16.3 39.6 14.4 41.9 16.4 39.9 C 14.7 41.2 17.5 38.5 18.6 37.6 C 18.3 37.7 17.9 38.0 18.4 37.4 C 21.2 34.7 21.6 35.6 23.2 33.7 C 23.1 34.0 24.1 33.3 24.5 33.1 C 22.9 34.4 22.5 34.7 21.9 35.3 C 22.1 35.3 22.5 34.9 23.0 34.6 C 22.9 34.5 23.3 34.1 24.1 33.7 C 24.5 33.2 24.1 33.0 25.3 31.9 C 25.5 31.9 25.4 32.1 26.1 31.6 C 26.6 31.0 25.7 32.3 28.6 30.2 C 28.0 30.5 27.7 30.6 27.8 30.3 C 29.1 29.3 28.9 29.6 30.8 28.2 C 31.8 28.1 29.7 29.5 29.3 30.1 C 30.6 29.1 31.6 28.2 33.1 27.5 C 31.9 28.1 32.9 27.2 34.1 26.4 C 35.3 25.8 34.3 26.8 35.7 26.0 C 36.8 25.3 37.3 24.7 36.2 25.2 C 38.8 23.9 38.0 24.0 40.3 22.8 C 40.5 22.9 39.8 23.3 39.0 23.6 C 39.1 23.7 38.9 23.9 39.8 23.5 C 41.2 22.5 44.4 21.0 45.5 20.2 C 47.9 19.7 50.3 18.0 52.7 17.3 C 51.9 17.9 55.8 16.1 57.1 15.9 C 57.8 15.6 59.8 14.3 59.1 14.8 C 59.4 15.1 60.8 14.4 61.9 14.2 C 61.9 14.1 61.9 14.0 61.8 13.9 C 64.3 13.1 64.9 13.1 65.8 13.1 C 68.7 12.0 72.2 11.3 76.0 10.1 C 77.0 10.1 77.8 9.8 80.1 9.5 C 80.0 9.2 81.8 8.8 83.6 8.4 C 83.1 8.3 84.7 8.0 84.7 7.9 C 83.1 8.2 83.7 7.8 82.8 7.9 C 85.0 7.6 85.9 6.9 87.6 6.9 C 85.6 7.4 85.0 7.8 84.8 8.3 C 87.2 7.7 88.5 7.5 89.0 7.6 C 89.2 7.4 88.8 7.4 88.3 7.4 C 89.1 7.2 89.9 7.0 90.7 6.9 C 91.0 7.0 89.9 7.3 90.7 7.1 C 91.3 6.9 91.9 6.7 92.5 6.6 C 93.3 6.7 91.6 6.9 91.4 7.1 C 94.6 6.6 93.1 6.4 94.9 6.0 C 95.4 6.1 95.3 6.3 96.8 6.1 C 97.4 5.9 97.5 5.6 99.2 5.4 C 100.3 5.3 99.2 5.7 100.5 5.6 C 100.6 5.5 101.2 5.4 101.7 5.4 C 101.6 5.3 102.2 5.1 102.9 5.0 C 103.1 5.1 104.3 4.9 104.7 4.7 C 104.9 4.8 106.9 4.9 107.3 4.7 C 107.2 4.6 106.2 4.7 106.0 4.7 C 107.4 4.5 108.4 4.3 109.1 4.2 C 109.6 4.7 111.9 4.0 114.7 4.0 C 116.5 3.7 114.3 3.6 116.6 3.3 C 118.0 3.3 116.3 3.5 116.6 3.8 C 117.0 3.7 119.1 3.8 119.1 3.5 C 119.1 3.4 118.0 3.6 117.9 3.5 C 119.5 3.1 119.5 3.4 120.4 3.4 C 120.3 3.3 121.4 3.1 121.6 3.0 C 126.2 2.5 126.2 3.0 128.0 3.1 C 128.0 3.0 129.1 2.9 129.2 2.9 C 128.0 3.0 126.2 2.9 128.0 2.7 C 127.7 2.9 130.4 2.6 130.5 2.6 C 130.2 2.4 128.6 2.6 129.2 2.3 C 131.6 2.1 130.7 2.6 132.5 2.3 C 132.6 2.5 131.6 2.5 131.2 2.6 C 131.9 2.6 133.0 2.5 133.1 2.6 C 132.2 2.7 132.2 2.9 131.8 3.1 C 133.0 2.8 135.3 3.0 133.7 2.7 C 136.2 2.7 138.7 2.5 136.9 2.3 C 139.0 2.2 137.8 2.6 139.5 2.3 C 139.2 2.6 138.7 2.8 140.1 3.0 C 140.3 2.8 141.5 2.8 141.3 2.6 C 144.4 2.6 145.2 2.9 146.5 3.1 C 145.4 2.7 146.8 3.0 148.3 2.8 C 149.3 2.9 148.4 3.2 150.9 3.2 C 148.2 2.8 154.0 3.2 152.8 2.8 C 155.9 3.1 155.9 3.1 159.1 3.3 C 158.8 3.5 158.0 3.5 156.6 3.5 C 157.6 3.3 153.8 3.2 154.1 3.3 C 154.1 3.4 154.1 3.4 154.1 3.5 C 156.5 3.5 158.1 3.7 159.1 3.9 C 159.6 3.7 160.7 3.7 160.4 3.4 C 162.6 3.9 165.1 3.6 166.1 4.0 C 165.3 3.9 164.5 3.9 164.8 4.0 C 165.7 4.0 166.8 4.1 166.7 3.9 C 164.9 3.6 164.5 3.6 163.6 3.7 C 164.4 3.6 161.8 3.2 163.6 3.3 C 163.5 3.7 167.4 3.4 166.1 3.6 C 164.1 3.6 168.4 4.0 168.5 4.2 C 168.5 4.2 168.5 4.2 168.5 4.2 Z M 203.9 129.9 C 205.7 129.3 203.4 129.6 202.1 130.0 C 202.5 129.9 202.7 130.0 202.8 130.1 C 203.3 130.0 203.8 129.8 203.9 129.9 C 203.9 129.9 203.9 129.9 203.9 129.9 Z M 184.2 130.1 C 183.7 130.5 186.7 129.8 187.9 129.7 C 187.5 129.7 187.1 129.7 187.9 129.5 C 186.5 129.5 186.1 130.0 184.2 130.1 C 184.2 130.1 184.2 130.1 184.2 130.1 Z M 115.1 132.9 C 115.5 132.9 116.8 132.9 116.9 133.0 C 117.6 133.1 117.4 133.0 117.6 132.9 C 119.0 133.0 117.2 133.2 119.4 133.3 C 120.3 132.9 115.6 132.4 115.1 132.9 C 115.1 132.9 115.1 132.9 115.1 132.9 Z M 144.5 6.6 C 145.4 6.7 143.2 6.9 143.8 7.1 C 147.3 7.0 144.6 6.6 149.5 6.8 C 149.2 6.7 148.8 6.7 148.9 6.6 C 146.6 6.6 146.4 6.8 147.0 6.4 C 145.9 6.3 145.7 6.9 144.5 6.6 C 144.5 6.6 144.5 6.6 144.5 6.6 Z M 188.7 11.5 C 188.4 11.4 188.1 11.3 188.1 11.2 C 186.7 11.0 187.0 11.1 185.1 10.7 C 185.3 11.1 187.1 11.4 188.7 11.5 C 188.7 11.5 188.7 11.5 188.7 11.5 Z M 275.4 66.6 C 275.4 66.9 275.4 67.2 275.4 67.5 C 275.6 67.3 276.0 68.0 275.7 66.6 C 275.7 66.5 275.7 66.7 275.7 67.0 C 275.6 66.8 275.5 66.1 275.4 66.2 C 275.4 66.6 275.4 66.6 275.4 66.6 C 275.4 66.6 275.4 66.6 275.4 66.6 Z M 259.4 101.6 C 261.2 99.8 256.0 103.2 259.4 101.6 C 259.4 101.6 259.4 101.6 259.4 101.6 C 259.4 101.6 259.4 101.6 259.4 101.6 Z M 265.2 100.3 C 265.3 100.3 265.6 99.9 265.6 99.8 C 267.2 98.5 265.8 99.9 266.7 99.2 C 267.8 97.9 265.8 99.5 267.2 97.9 C 266.8 98.1 266.1 99.4 265.2 100.3 C 265.2 100.3 265.2 100.3 265.2 100.3 Z M 21.2 35.6 C 19.8 36.8 19.6 37.3 19.5 37.7 C 20.5 36.9 21.3 36.3 21.6 36.1 C 23.3 34.5 20.3 37.0 20.0 37.2 C 20.1 36.9 21.3 35.8 21.2 35.6 C 21.2 35.6 21.2 35.6 21.2 35.6 Z M 16.9 39.6 C 16.4 40.2 15.7 41.0 15.8 41.2 C 16.6 40.4 16.7 40.4 16.8 40.4 C 17.4 39.6 16.5 40.4 16.9 39.6 C 16.9 39.6 16.9 39.6 16.9 39.6 Z M 25.7 32.4 C 25.0 33.0 25.4 32.9 25.4 33.1 C 26.4 32.3 26.6 32.3 27.7 31.5 C 27.6 31.5 27.6 31.4 27.6 31.3 C 26.6 31.9 26.6 32.1 25.9 32.6 C 25.8 32.6 25.8 32.5 25.7 32.4 C 25.7 32.4 25.7 32.4 25.7 32.4 Z M 13.3 43.8 C 11.3 46.2 10.9 47.6 10.1 49.3 C 11.2 47.5 12.0 45.7 13.2 44.5 C 14.4 43.0 12.7 44.9 12.6 44.8 C 12.6 44.7 13.1 44.2 13.3 43.8 C 13.3 43.8 13.3 43.8 13.3 43.8 Z M 3.1 66.1 C 2.8 66.6 3.1 67.6 3.0 69.1 C 3.1 68.8 3.2 68.6 3.3 68.6 C 3.4 66.5 2.9 67.7 3.1 66.1 C 3.1 66.1 3.1 66.1 3.1 66.1 Z M 4.3 78.6 C 4.7 79.9 4.2 77.9 4.6 78.5 C 4.2 77.1 3.9 75.5 3.7 75.6 C 4.1 77.1 4.2 77.5 4.3 78.6 C 4.3 78.6 4.3 78.6 4.3 78.6 Z M 7.9 87.4 C 8.8 88.7 7.9 86.6 8.4 87.1 C 8.1 86.5 8.1 86.7 7.9 86.7 C 7.8 86.3 7.6 85.9 7.3 85.3 C 7.4 85.8 8.3 87.4 7.9 87.4 C 7.9 87.4 7.9 87.4 7.9 87.4 Z M 63.8 14.4 C 62.8 14.7 63.2 14.9 61.1 15.5 C 64.2 14.5 62.7 15.7 66.8 14.3 C 66.1 14.4 66.5 14.2 66.7 14.3 C 68.2 13.6 65.2 14.6 66.6 13.9 C 65.5 14.2 66.2 14.3 65.1 14.7 C 63.9 14.8 63.1 14.9 63.8 14.4 C 63.8 14.4 63.8 14.4 63.8 14.4 Z M 66.8 14.6 C 68.0 14.3 67.8 13.8 68.5 13.9 C 69.0 13.7 68.9 13.7 69.0 13.6 C 68.5 13.7 68.5 13.7 68.4 13.7 C 67.4 14.0 66.5 14.4 66.8 14.6 C 66.8 14.6 66.8 14.6 66.8 14.6 Z M 56.6 18.1 C 58.4 17.3 58.9 17.3 59.8 16.7 C 60.5 16.9 60.9 16.2 61.9 16.1 C 63.7 15.5 62.4 15.8 61.8 15.8 C 63.5 15.2 62.3 15.9 64.1 15.3 C 64.3 14.9 62.1 15.7 62.3 15.4 C 60.9 15.8 61.0 16.0 60.2 16.3 C 59.6 16.5 59.7 16.3 59.6 16.3 C 58.1 16.9 58.1 16.7 56.9 17.2 C 56.7 17.5 57.2 17.4 58.6 16.8 C 57.2 17.4 56.6 17.8 55.0 18.3 C 56.0 17.7 50.8 19.6 51.4 19.9 C 52.8 19.3 52.3 19.3 52.8 19.0 C 54.7 18.5 55.8 18.0 56.6 18.1 C 56.6 18.1 56.6 18.1 56.6 18.1 Z M 26.8 32.7 C 26.3 33.0 25.8 33.3 25.1 33.8 C 24.9 33.7 25.9 33.0 24.9 33.6 C 23.7 34.4 23.5 34.7 22.8 35.3 C 23.2 35.1 25.8 33.4 24.6 34.5 C 25.0 34.3 25.9 33.7 26.9 33.0 C 25.5 33.5 28.7 31.7 29.9 30.9 C 29.6 30.7 32.1 29.6 32.9 28.8 C 32.0 29.1 29.6 30.9 28.6 31.6 C 29.1 31.2 25.4 33.2 26.8 32.7 C 26.8 32.7 26.8 32.7 26.8 32.7 Z M 71.2 13.1 C 71.5 12.9 72.8 12.5 71.8 12.8 C 72.3 12.5 73.3 12.4 72.8 12.1 C 73.4 12.0 74.0 11.8 74.5 11.7 C 74.3 11.9 72.8 12.2 73.4 12.3 C 74.6 11.9 74.2 12.1 75.7 11.7 C 74.9 12.1 75.8 11.9 75.3 12.4 C 75.7 12.1 77.1 11.8 77.0 11.6 C 79.1 11.1 76.4 12.1 79.3 11.4 C 79.3 11.6 77.2 12.1 76.5 12.2 C 76.2 12.5 80.1 11.3 82.3 10.9 C 80.3 11.2 81.8 10.6 82.7 10.2 C 83.4 10.1 82.7 10.3 84.0 10.2 C 84.9 10.0 85.4 9.8 85.7 9.8 C 86.5 9.6 86.1 9.5 86.2 9.4 C 87.6 9.1 86.7 9.7 88.7 9.2 C 87.1 9.2 88.8 8.8 91.6 8.3 C 91.4 8.3 90.5 8.4 90.4 8.3 C 90.7 8.1 92.4 8.1 92.8 8.1 C 93.8 7.9 93.1 7.9 92.2 8.1 C 92.8 7.9 93.3 7.7 94.0 7.5 C 91.0 8.0 86.2 9.0 80.8 9.9 C 81.9 9.8 80.7 10.1 79.1 10.4 C 78.8 10.4 79.5 10.2 80.3 10.0 C 78.3 10.2 78.6 10.7 75.7 11.3 C 74.1 11.6 77.4 10.7 75.6 11.0 C 74.5 11.3 73.9 11.7 73.3 11.6 C 71.5 12.2 71.1 12.6 68.3 13.4 C 69.9 13.1 70.8 13.4 72.4 12.8 C 72.4 12.8 71.7 13.0 71.2 13.1 C 71.2 13.1 71.2 13.1 71.2 13.1 Z M 17.0 40.5 C 16.2 41.3 15.9 41.8 15.7 41.8 C 14.4 43.2 16.0 41.9 16.3 41.6 C 16.8 41.0 17.0 40.7 17.0 40.5 C 17.0 40.5 17.0 40.5 17.0 40.5 Z M 123.0 135.6 C 125.4 135.8 124.9 135.5 126.8 135.6 C 125.3 135.4 125.0 135.2 122.4 135.1 C 122.3 135.3 122.3 135.5 123.0 135.6 C 123.0 135.6 123.0 135.6 123.0 135.6 Z M 21.8 36.3 C 22.9 35.1 20.5 37.8 20.4 37.6 C 19.1 39.0 21.8 36.6 20.7 37.9 C 21.7 36.8 22.6 36.3 24.1 34.9 C 24.0 34.8 22.7 35.9 21.5 36.9 C 21.2 36.9 21.9 36.4 21.8 36.3 C 21.8 36.3 21.8 36.3 21.8 36.3 Z M 98.9 132.3 C 97.2 132.3 100.3 133.0 101.2 133.2 C 101.3 132.9 100.8 132.9 98.9 132.3 C 98.9 132.3 98.9 132.3 98.9 132.3 Z M 139.5 135.8 C 140.4 135.5 136.7 135.8 137.6 135.5 C 136.5 135.4 136.4 135.5 136.3 135.6 C 135.7 135.5 134.0 135.5 134.5 135.3 C 134.1 135.1 137.3 135.4 136.3 135.1 C 137.4 135.1 137.4 135.2 138.2 135.2 C 136.4 135.2 137.2 135.5 139.5 135.6 C 139.5 135.4 138.5 135.4 139.5 135.3 C 139.6 135.4 140.8 135.6 140.7 135.9 C 142.7 135.9 141.6 135.5 143.9 135.5 C 143.7 135.3 142.2 135.3 141.4 135.3 C 141.6 135.0 143.8 135.5 143.3 135.1 C 143.8 135.3 145.1 135.4 145.2 135.6 C 143.4 135.8 142.2 135.9 140.7 136.1 C 142.1 136.2 144.1 135.7 146.4 135.9 C 146.2 135.7 147.6 135.7 147.1 135.5 C 149.0 135.5 148.1 135.8 147.7 135.8 C 148.2 136.0 151.8 135.8 151.6 135.6 C 151.8 135.8 156.1 135.5 155.9 135.2 C 157.2 135.4 159.2 134.9 159.8 135.2 C 160.5 135.1 162.0 135.0 163.6 134.9 C 164.0 134.6 161.2 134.9 161.0 134.7 C 160.5 134.5 164.0 134.6 163.5 134.4 C 163.5 134.3 163.5 134.3 163.5 134.2 C 162.2 134.4 161.0 134.6 159.7 134.7 C 158.8 134.7 160.0 134.6 159.7 134.5 C 158.9 134.7 154.8 135.2 154.7 134.7 C 152.0 135.0 150.1 135.0 149.0 135.2 C 147.4 135.2 149.9 135.0 149.0 134.9 C 144.2 135.3 138.4 134.9 134.5 135.2 C 133.6 135.1 133.9 134.9 133.8 134.8 C 128.4 134.8 133.0 135.3 128.7 135.0 C 128.7 134.8 130.8 134.9 130.6 134.7 C 129.2 134.7 128.8 134.8 126.8 134.6 C 126.8 134.7 126.8 134.8 126.8 134.9 C 125.2 134.8 125.8 134.6 125.0 134.4 C 123.0 134.4 123.4 134.6 122.5 134.2 C 120.6 134.2 118.7 134.1 116.8 133.8 C 115.5 133.9 117.9 134.5 119.9 134.7 C 119.8 134.7 119.3 134.7 119.3 134.8 C 116.9 134.4 116.6 133.9 113.1 133.5 C 115.7 134.0 111.7 133.5 111.2 133.2 C 109.8 133.1 110.8 133.5 111.8 133.6 C 111.6 133.7 110.7 133.5 110.6 133.4 C 110.4 133.7 113.8 134.3 117.4 134.5 C 115.7 134.7 119.9 134.6 118.0 135.0 C 120.9 135.2 118.5 134.7 121.8 135.0 C 121.5 134.8 120.9 134.7 120.6 134.5 C 123.1 134.7 122.3 135.0 125.0 135.1 C 125.4 134.9 123.7 134.8 123.7 134.7 C 126.6 135.1 127.5 135.2 129.4 135.5 C 129.8 135.4 129.3 135.2 132.5 135.4 C 132.5 135.5 132.5 135.5 132.5 135.6 C 131.0 135.5 130.6 136.0 134.4 136.0 C 134.7 135.9 133.5 135.9 132.5 135.8 C 133.0 135.7 134.2 135.7 135.7 135.7 C 136.4 135.7 137.3 135.8 136.3 135.8 C 136.9 136.1 137.5 135.7 139.5 135.8 C 139.5 135.8 139.5 135.8 139.5 135.8 Z M 4.0 63.7 C 4.0 64.1 3.9 64.5 3.8 65.2 C 4.0 65.6 4.1 64.2 4.3 64.2 C 4.5 63.2 4.0 64.0 4.0 63.7 C 4.0 63.7 4.0 63.7 4.0 63.7 Z M 9.5 50.3 C 9.2 50.3 9.1 51.1 8.4 52.2 C 8.4 52.6 9.1 51.3 9.2 51.4 C 10.0 50.1 8.7 51.5 9.5 50.3 C 9.5 50.3 9.5 50.3 9.5 50.3 Z M 6.5 56.0 C 6.1 56.4 6.4 56.5 6.8 55.5 C 6.9 55.6 6.9 55.9 6.7 56.6 C 7.2 56.0 7.0 55.4 7.7 54.2 C 7.3 54.5 6.9 55.2 6.5 56.0 C 6.5 56.0 6.5 56.0 6.5 56.0 Z M 5.7 57.9 C 5.6 58.7 5.2 59.1 5.0 60.3 C 5.3 60.1 6.1 57.4 6.2 56.9 C 6.2 56.4 5.1 59.3 5.7 57.9 C 5.7 57.9 5.7 57.9 5.7 57.9 Z M 75.3 127.1 C 75.9 127.3 75.8 127.1 75.9 127.1 C 77.6 127.9 80.1 128.5 78.0 128.3 C 80.0 128.6 81.6 129.3 83.2 129.7 C 84.6 130.0 84.0 129.6 85.1 129.8 C 86.8 130.3 84.1 129.8 84.4 130.0 C 84.7 130.2 85.3 129.9 87.4 130.5 C 86.9 130.0 89.2 130.9 88.6 130.3 C 89.8 130.7 90.1 130.7 91.6 130.9 C 91.5 130.7 90.0 130.5 89.9 130.3 C 89.2 129.9 89.0 130.3 90.5 130.5 C 89.6 130.6 87.6 129.9 86.9 129.9 C 86.2 129.5 88.8 130.2 88.1 129.8 C 87.6 129.8 87.1 129.7 86.9 129.8 C 86.1 129.5 85.5 129.3 85.2 129.1 C 85.7 129.2 85.8 129.3 85.8 129.3 C 86.9 129.6 84.8 128.7 87.1 129.2 C 86.7 129.0 85.7 128.8 85.9 128.7 C 85.2 128.4 85.7 129.4 83.5 128.6 C 81.9 128.5 87.1 129.6 85.7 129.8 C 82.4 129.1 84.3 129.1 81.7 128.5 C 81.7 128.6 81.7 128.7 81.0 128.5 C 81.1 128.7 82.1 128.9 82.8 129.0 C 82.6 129.1 81.7 128.8 81.0 128.7 C 81.1 128.8 81.6 128.9 81.6 129.0 C 79.4 128.4 79.7 128.0 81.7 128.3 C 81.7 128.1 79.0 127.5 78.3 127.4 C 79.0 127.7 78.2 127.5 78.7 127.9 C 79.3 128.0 79.2 127.9 79.4 127.9 C 80.4 128.2 79.4 128.1 79.3 128.1 C 78.2 127.8 78.3 127.6 77.1 127.5 C 77.4 127.5 77.6 127.5 77.7 127.4 C 77.1 127.3 76.5 127.1 75.9 127.0 C 76.0 127.1 75.2 126.9 75.3 127.1 C 75.3 127.1 75.3 127.1 75.3 127.1 Z M 106.2 133.7 C 108.2 134.0 107.2 133.6 106.2 133.5 C 106.6 133.5 107.3 133.5 108.1 133.6 C 107.5 133.4 106.9 133.4 105.0 133.1 C 106.7 133.0 105.1 132.4 102.0 132.0 C 101.1 132.3 103.6 132.7 102.6 132.9 C 104.8 133.0 106.0 133.3 106.2 133.7 C 106.2 133.7 106.2 133.7 106.2 133.7 Z M 16.4 41.7 C 15.5 42.5 14.7 43.5 14.0 44.3 C 14.2 44.4 16.8 41.7 16.4 41.7 C 16.4 41.7 16.4 41.7 16.4 41.7 Z M 96.4 7.4 C 96.9 7.3 97.0 7.4 97.0 7.4 C 98.8 7.0 96.2 7.3 97.0 7.0 C 96.3 7.1 95.7 7.2 95.1 7.3 C 95.0 7.4 97.6 7.1 95.8 7.5 C 95.9 7.6 96.4 7.5 96.4 7.4 C 96.4 7.4 96.4 7.4 96.4 7.4 Z M 4.5 62.8 C 4.4 63.7 4.8 63.2 4.4 65.3 C 4.7 64.5 4.7 64.1 4.9 62.8 C 4.7 62.8 4.6 62.8 4.5 62.8 C 4.5 62.8 4.5 62.8 4.5 62.8 Z M 66.8 125.1 C 68.1 125.8 68.6 125.4 71.3 126.3 C 70.0 125.6 68.4 125.5 66.8 125.1 C 66.8 125.1 66.8 125.1 66.8 125.1 Z M 168.5 134.0 C 167.6 134.1 168.8 133.9 167.2 133.9 C 166.4 134.1 166.0 134.2 164.8 134.4 C 166.5 134.5 169.7 133.9 171.0 134.2 C 172.5 134.0 172.4 133.8 172.8 133.5 C 172.1 133.6 171.7 133.6 171.6 133.6 C 170.7 134.0 169.6 133.6 168.5 134.0 C 168.5 134.0 168.5 134.0 168.5 134.0 Z M 98.3 132.1 C 97.2 131.8 99.1 132.0 99.5 131.9 C 100.4 132.1 100.0 132.2 100.1 132.4 C 101.2 132.5 101.5 132.4 101.4 132.2 C 99.4 131.8 96.9 131.4 98.4 131.4 C 96.5 131.0 97.5 131.5 96.5 131.4 C 95.5 131.0 96.5 131.1 96.6 130.9 C 96.1 130.9 94.6 130.9 94.8 130.6 C 91.9 130.4 93.1 131.0 95.2 131.8 C 97.2 131.9 94.9 131.4 98.3 132.1 C 98.3 132.1 98.3 132.1 98.3 132.1 Z M 25.0 104.4 C 25.1 104.6 26.1 105.3 26.0 105.4 C 27.3 106.1 28.5 106.6 29.8 107.2 C 29.7 106.8 28.0 105.9 28.6 106.5 C 28.2 106.0 27.1 105.2 26.6 104.6 C 25.5 103.7 24.8 103.9 24.9 103.4 C 23.8 102.7 24.4 103.2 22.8 101.8 C 25.2 104.1 21.8 101.2 21.5 101.3 C 22.9 102.5 24.3 103.6 24.2 103.2 C 25.3 104.2 26.6 105.2 26.7 105.6 C 26.5 105.6 25.6 104.9 25.0 104.4 C 25.0 104.4 25.0 104.4 25.0 104.4 Z M 32.3 108.6 C 31.8 108.3 31.3 108.1 30.5 107.5 C 30.9 107.9 31.1 108.1 30.9 108.2 C 32.5 109.2 32.9 109.3 33.4 109.8 C 34.8 110.8 33.1 109.3 35.4 110.8 C 35.3 110.6 34.1 109.9 34.2 109.8 C 33.9 109.9 33.0 109.4 32.3 108.6 C 32.3 108.6 32.3 108.6 32.3 108.6 Z M 51.1 118.8 C 52.4 119.3 50.4 118.3 51.2 118.5 C 50.8 118.3 48.4 117.2 48.8 117.2 C 48.2 116.6 45.5 116.0 45.9 115.8 C 45.3 115.5 45.4 115.7 45.3 115.8 C 47.0 116.5 47.0 116.7 45.7 116.1 C 45.9 116.3 46.9 116.8 47.6 117.1 C 47.8 117.0 47.1 116.7 47.3 116.6 C 48.7 117.4 49.8 118.0 51.1 118.8 C 51.1 118.8 51.1 118.8 51.1 118.8 Z M 164.6 5.1 C 163.2 5.0 162.2 5.0 161.5 5.0 C 161.9 5.1 162.7 5.1 163.4 5.1 C 163.6 5.3 162.9 5.2 162.1 5.2 C 162.8 5.4 165.5 5.4 164.6 5.1 C 164.6 5.1 164.6 5.1 164.6 5.1 Z M 152.1 4.4 C 150.6 4.3 149.7 4.4 149.5 4.5 C 150.1 4.7 149.9 4.4 150.8 4.5 C 151.4 4.5 151.7 4.6 152.0 4.7 C 152.7 4.7 152.5 4.6 152.7 4.6 C 153.2 4.6 153.3 4.6 153.3 4.7 C 155.1 4.5 151.3 4.7 152.1 4.4 C 152.1 4.4 152.1 4.4 152.1 4.4 Z M 41.6 114.2 C 41.0 113.8 40.6 113.4 38.9 112.5 C 39.1 112.8 37.8 112.1 36.7 111.5 C 38.2 112.6 39.0 112.9 41.6 114.2 C 41.6 114.2 41.6 114.2 41.6 114.2 Z M 75.3 12.5 C 73.6 12.8 73.8 13.1 71.4 13.6 C 71.4 13.7 71.4 13.8 71.5 13.9 C 72.9 13.3 73.6 13.2 75.3 12.5 C 75.3 12.5 75.3 12.5 75.3 12.5 Z M 275.8 84.2 C 275.7 84.0 275.1 85.4 274.9 85.5 C 275.1 85.9 274.3 86.3 272.6 89.0 C 272.5 89.0 272.6 88.8 272.8 88.4 C 271.4 90.5 273.4 88.0 273.8 87.8 C 274.8 86.1 275.1 85.9 275.8 84.2 C 275.8 84.2 275.8 84.2 275.8 84.2 Z M 149.6 134.4 C 149.5 134.5 149.9 134.5 150.2 134.5 C 150.7 134.5 151.1 134.5 151.5 134.5 C 151.3 134.1 149.2 134.1 150.8 133.7 C 150.3 133.7 150.2 133.7 150.2 133.8 C 147.2 134.6 144.8 133.4 140.8 133.9 C 140.1 133.9 140.3 134.0 140.1 134.1 C 140.6 134.0 140.7 134.1 140.8 134.1 C 141.3 133.8 144.9 134.2 143.3 134.3 C 143.4 134.4 143.9 134.3 143.9 134.3 C 144.3 134.3 144.8 134.3 145.2 134.3 C 144.9 134.2 144.1 134.2 143.9 134.1 C 145.9 134.1 148.4 134.2 147.1 134.5 C 148.3 134.5 148.8 134.3 149.6 134.2 C 150.4 134.2 150.4 134.4 149.6 134.4 C 149.6 134.4 149.6 134.4 149.6 134.4 Z M 165.9 133.5 C 167.9 133.4 167.1 133.2 169.1 133.0 C 167.8 132.9 166.3 133.4 164.7 133.3 C 164.9 133.4 165.8 133.4 165.9 133.5 C 165.9 133.5 165.9 133.5 165.9 133.5 Z M 129.5 133.9 C 129.8 133.6 128.1 133.5 126.3 133.4 C 125.9 133.7 127.6 133.8 129.5 133.9 C 129.5 133.9 129.5 133.9 129.5 133.9 Z M 137.6 134.1 C 139.5 134.0 135.3 134.0 136.3 133.8 C 135.5 133.8 134.6 133.7 134.5 133.6 C 133.8 133.7 133.8 133.8 132.6 133.8 C 132.6 133.9 134.7 133.9 134.5 134.0 C 135.9 133.9 136.1 133.9 137.6 134.1 C 137.6 134.1 137.6 134.1 137.6 134.1 Z M 138.9 134.1 C 140.1 134.1 138.5 133.6 137.0 133.6 C 137.6 133.8 137.9 134.0 138.9 134.1 C 138.9 134.1 138.9 134.1 138.9 134.1 Z M 9.5 85.3 C 9.9 85.9 9.8 85.3 10.2 86.1 C 10.3 86.0 8.9 83.3 10.1 85.6 C 9.9 84.6 9.3 84.3 8.9 83.3 C 9.0 83.6 9.0 83.9 8.8 83.4 C 8.4 83.2 9.9 85.5 9.5 85.3 C 9.5 85.3 9.5 85.3 9.5 85.3 Z M 11.1 88.0 C 11.4 88.5 11.3 88.2 11.2 87.9 C 11.3 88.0 11.7 88.7 12.1 89.2 C 12.0 89.4 11.8 88.1 12.0 88.0 C 10.4 85.9 11.3 87.8 11.1 88.0 C 11.1 88.0 11.1 88.0 11.1 88.0 Z M 12.7 90.1 C 13.6 91.7 15.3 93.7 16.3 94.5 C 15.6 93.2 13.4 90.6 12.7 90.1 C 12.7 90.1 12.7 90.1 12.7 90.1 Z M 6.2 75.1 C 6.4 77.9 8.5 83.2 7.3 78.3 C 7.2 78.5 6.2 75.3 6.1 73.7 C 6.0 73.7 5.6 72.0 5.8 71.9 C 5.5 70.7 6.1 75.8 6.2 75.1 C 6.2 75.1 6.2 75.1 6.2 75.1 Z M 18.2 95.8 C 17.4 95.2 18.0 96.4 17.1 95.2 C 16.5 94.6 17.2 95.5 16.9 95.4 C 18.2 96.7 21.2 99.2 21.3 99.7 C 22.1 100.3 22.4 100.3 23.8 101.6 C 24.0 101.5 18.7 97.3 18.1 95.9 C 18.3 96.0 19.9 97.6 18.2 95.8 C 18.2 95.8 18.2 95.8 18.2 95.8 Z M 75.7 13.9 C 75.8 13.7 73.5 14.5 73.9 14.1 C 72.7 14.7 71.5 14.9 70.2 15.5 C 69.7 15.5 69.8 15.1 67.8 15.7 C 67.8 15.9 68.8 15.6 67.9 16.0 C 66.2 16.6 66.6 16.1 64.6 16.9 C 65.0 17.1 60.4 18.4 61.0 18.6 C 62.0 18.2 61.9 18.0 63.6 17.5 C 64.2 17.4 64.0 17.6 64.7 17.3 C 64.3 17.7 63.3 17.7 62.6 18.1 C 62.8 18.2 64.1 17.8 64.3 17.9 C 65.1 17.6 64.1 17.9 64.3 17.7 C 66.3 16.9 64.3 18.2 66.6 17.4 C 66.0 17.3 66.0 17.3 66.4 17.0 C 67.3 16.8 70.1 15.8 68.7 16.5 C 68.9 16.6 70.5 15.9 70.2 15.8 C 71.2 15.5 71.3 15.6 71.4 15.6 C 73.7 14.8 74.0 14.6 73.4 14.5 C 73.9 14.1 74.3 14.4 75.7 13.9 C 75.7 13.9 75.7 13.9 75.7 13.9 Z M 7.1 60.5 C 7.3 59.3 6.9 61.7 6.5 62.7 C 6.9 61.4 7.1 61.9 7.5 60.6 C 7.3 61.0 7.2 60.9 7.5 60.0 C 7.5 59.8 6.8 61.8 7.1 60.5 C 7.1 60.5 7.1 60.5 7.1 60.5 Z M 27.0 104.0 C 27.5 104.6 30.5 106.5 32.1 107.6 C 32.0 107.1 27.9 105.0 27.6 104.3 C 26.8 103.7 28.0 104.7 27.0 104.0 C 27.0 104.0 27.0 104.0 27.0 104.0 Z M 55.1 20.3 C 54.5 20.5 54.9 20.4 55.1 20.3 C 55.0 20.5 53.9 20.9 53.1 21.2 C 54.3 20.9 53.0 21.5 53.3 21.7 C 52.7 21.9 52.4 22.1 52.3 22.1 C 52.1 21.8 49.3 23.7 52.5 22.4 C 51.8 22.5 52.0 22.4 53.3 21.7 C 54.8 21.3 55.9 20.7 56.5 20.8 C 57.4 20.4 57.7 20.1 59.0 19.6 C 59.4 19.7 60.6 19.4 59.7 20.1 C 62.0 19.2 60.3 19.2 62.2 18.5 C 64.0 18.0 61.3 19.1 61.8 19.2 C 62.3 19.0 62.2 19.1 62.4 19.1 C 63.0 18.9 63.0 18.7 62.3 18.9 C 62.5 18.7 64.3 17.9 63.9 18.4 C 64.9 17.9 61.9 18.2 60.6 19.0 C 59.7 19.3 59.5 18.9 60.4 18.6 C 60.0 18.5 58.5 19.7 58.8 19.0 C 58.1 19.3 57.4 19.6 56.7 19.8 C 56.8 19.8 57.2 19.7 57.3 19.8 C 56.6 20.0 55.9 20.3 55.2 20.6 C 55.8 20.2 55.7 20.1 55.1 20.3 C 55.1 20.3 55.1 20.3 55.1 20.3 Z M 20.5 98.6 C 21.7 99.6 22.1 99.8 23.0 100.6 C 22.8 100.1 20.2 97.9 20.5 98.6 C 20.5 98.6 20.5 98.6 20.5 98.6 Z M 85.7 12.3 C 85.5 12.3 84.5 12.5 84.4 12.4 C 86.2 11.9 84.2 12.3 85.5 11.5 C 83.2 12.2 82.5 13.0 85.7 12.5 C 88.0 11.9 83.3 12.8 85.7 12.3 C 85.7 12.3 85.7 12.3 85.7 12.3 Z M 78.7 13.8 C 77.3 14.2 80.8 13.5 81.6 13.4 C 81.7 13.4 81.7 13.5 81.7 13.6 C 83.6 12.8 80.9 13.3 82.6 12.4 C 80.3 12.8 79.4 13.0 77.4 13.6 C 77.6 13.6 78.0 13.5 78.0 13.4 C 79.4 13.1 78.5 13.7 77.0 13.9 C 77.4 13.9 78.8 13.6 79.8 13.4 C 79.5 13.4 79.2 13.4 79.2 13.3 C 80.4 13.0 80.0 13.3 80.9 13.1 C 80.9 13.2 78.8 13.9 78.7 13.8 C 78.7 13.8 78.7 13.8 78.7 13.8 Z M 199.0 11.9 C 197.8 11.7 200.2 12.5 200.0 12.8 C 201.2 13.1 201.5 13.1 202.3 13.3 C 201.9 13.0 200.6 12.7 200.1 12.4 C 200.3 12.2 201.8 12.9 202.4 12.8 C 203.2 12.6 199.4 12.3 199.0 11.9 C 199.0 11.9 199.0 11.9 199.0 11.9 Z M 27.7 35.2 C 27.2 35.7 27.5 35.5 27.8 35.3 C 27.7 35.4 26.8 36.1 26.7 36.1 C 25.9 36.7 27.3 35.8 26.3 36.6 C 26.2 36.9 27.8 35.4 27.8 35.4 C 29.1 34.5 28.3 35.4 28.7 35.3 C 29.7 34.5 29.2 34.6 30.8 33.6 C 29.8 34.1 28.9 34.5 27.7 35.2 C 27.7 35.2 27.7 35.2 27.7 35.2 Z M 89.6 11.0 C 89.8 10.9 88.3 11.6 86.7 11.7 C 84.7 12.2 88.0 11.7 86.2 12.1 C 87.8 11.8 89.6 11.3 92.0 10.8 C 92.6 10.5 88.7 11.4 90.8 10.8 C 90.7 10.8 90.2 10.9 90.2 11.0 C 89.7 11.1 89.7 11.0 89.6 11.0 C 89.6 11.0 89.6 11.0 89.6 11.0 Z M 87.4 12.0 C 87.5 12.1 88.0 11.9 88.0 11.9 C 88.8 11.8 88.8 12.0 88.1 12.1 C 89.1 12.2 88.9 11.7 91.0 11.5 C 90.1 11.4 89.6 11.4 91.5 11.2 C 93.0 10.7 88.0 11.7 87.4 12.0 C 87.4 12.0 87.4 12.0 87.4 12.0 Z M 179.9 8.7 C 180.1 8.8 181.4 9.0 182.3 9.1 C 181.1 9.1 176.2 8.4 175.6 8.1 C 175.1 8.1 174.5 8.1 174.4 8.0 C 174.4 8.1 173.0 8.0 173.7 8.2 C 173.6 8.2 172.5 8.1 172.5 8.2 C 170.7 7.9 173.1 8.1 172.6 7.9 C 170.3 7.9 170.8 7.7 168.2 7.4 C 168.6 7.7 171.5 7.9 171.2 8.2 C 173.3 8.2 175.5 8.6 176.7 9.0 C 174.9 8.4 182.0 9.1 185.3 9.7 C 185.2 9.9 186.3 10.0 187.7 10.4 C 188.5 10.7 188.3 10.2 186.5 10.0 C 186.6 9.8 189.0 10.4 190.1 10.5 C 188.9 10.2 189.6 10.2 189.0 10.0 C 186.6 9.6 188.7 10.0 188.3 10.1 C 187.7 10.0 187.1 9.9 186.5 9.8 C 189.7 10.0 181.9 9.1 184.7 9.5 C 182.3 9.1 182.2 8.8 179.9 8.7 C 179.9 8.7 179.9 8.7 179.9 8.7 Z M 121.3 6.8 C 120.9 6.9 118.9 7.2 118.8 7.0 C 116.3 7.4 118.5 7.4 115.7 7.7 C 115.9 7.8 117.0 7.6 117.0 7.7 C 118.1 7.6 119.1 7.4 118.8 7.2 C 120.1 7.1 120.5 7.0 121.3 6.9 C 121.0 7.0 120.5 7.1 119.4 7.2 C 119.3 7.4 119.7 7.5 121.3 7.4 C 122.0 7.1 121.6 7.0 121.3 6.8 C 121.3 6.8 121.3 6.8 121.3 6.8 Z M 115.1 7.7 C 114.8 7.6 114.4 7.6 114.5 7.5 C 113.5 7.3 114.1 7.8 113.2 7.9 C 112.5 8.0 112.7 7.8 112.6 7.7 C 111.5 7.9 110.7 8.0 110.2 8.0 C 108.5 8.3 112.1 8.0 112.6 8.1 C 113.8 7.9 113.4 7.8 115.1 7.7 C 115.1 7.7 115.1 7.7 115.1 7.7 Z M 96.8 9.8 C 96.4 9.6 95.8 10.1 95.0 10.2 C 95.6 10.3 97.4 9.9 96.3 10.4 C 98.0 10.1 98.1 10.1 99.9 9.8 C 101.0 9.8 99.9 9.6 98.1 10.0 C 98.3 9.8 99.1 9.7 99.2 9.6 C 100.4 9.9 103.4 8.7 101.6 9.3 C 101.1 9.3 100.7 9.3 100.4 9.2 C 100.0 9.5 95.9 10.0 96.8 9.8 C 96.8 9.8 96.8 9.8 96.8 9.8 Z M 41.0 27.6 C 43.8 26.1 44.6 25.7 46.5 24.9 C 46.6 24.9 46.5 25.1 46.1 25.3 C 46.6 25.1 47.2 24.8 48.0 24.4 C 47.9 24.3 47.5 24.6 47.5 24.6 C 45.9 25.1 47.2 24.5 47.4 24.2 C 45.4 24.9 42.9 26.6 41.6 27.0 C 40.6 27.6 41.8 27.0 41.0 27.6 C 41.0 27.6 41.0 27.6 41.0 27.6 Z M 274.8 81.5 C 274.8 81.8 274.5 82.6 274.7 82.5 C 274.9 81.8 275.0 81.3 275.3 80.7 C 274.7 81.9 274.5 81.6 273.7 83.2 C 274.1 82.7 274.3 82.9 274.8 81.5 C 274.8 81.5 274.8 81.5 274.8 81.5 Z M 102.8 8.9 C 102.9 9.0 103.0 9.1 102.3 9.3 C 102.1 9.5 104.0 9.1 104.1 9.3 C 104.7 9.1 104.5 9.0 105.3 8.9 C 105.0 8.8 103.4 9.1 104.0 8.8 C 104.5 8.7 104.6 8.7 104.7 8.8 C 105.9 8.5 104.0 8.7 102.8 8.9 C 102.8 8.9 102.8 8.9 102.8 8.9 Z M 204.7 13.4 C 203.9 13.3 204.6 13.6 205.2 13.7 C 203.5 13.6 206.1 14.4 206.2 14.6 C 205.5 14.3 203.2 13.8 202.8 13.6 C 202.2 13.5 202.9 13.9 201.0 13.6 C 201.2 13.8 203.3 14.1 202.8 13.8 C 203.2 14.2 205.3 14.3 205.0 14.6 C 207.6 15.3 208.2 15.3 208.5 15.1 C 206.0 14.5 207.4 14.4 205.2 14.0 C 205.2 13.9 205.9 14.1 206.3 14.2 C 206.2 14.0 205.3 13.7 204.7 13.4 C 204.7 13.4 204.7 13.4 204.7 13.4 Z M 141.3 6.2 C 139.9 6.2 140.0 6.4 140.1 6.6 C 140.6 6.6 141.5 6.5 142.6 6.6 C 142.3 6.4 140.6 6.5 141.3 6.2 C 141.3 6.2 141.3 6.2 141.3 6.2 Z M 195.3 11.7 C 195.2 11.6 194.8 11.5 194.8 11.6 C 193.3 11.3 193.0 11.1 192.5 10.9 C 191.7 10.8 191.9 11.0 191.8 11.1 C 193.2 11.1 192.9 11.4 194.7 11.7 C 194.6 11.6 194.9 11.6 195.3 11.7 C 195.3 11.7 195.3 11.7 195.3 11.7 Z M 154.5 6.7 C 153.8 6.6 154.1 6.7 154.5 6.7 C 153.6 7.0 151.1 6.7 150.1 6.7 C 150.0 6.9 153.1 7.0 149.5 7.0 C 150.1 7.2 153.4 7.1 155.1 7.3 C 154.7 7.5 152.4 7.3 152.6 7.6 C 154.5 7.6 156.6 7.5 157.0 7.2 C 154.2 7.0 155.2 6.9 154.5 6.7 C 154.5 6.7 154.5 6.7 154.5 6.7 Z M 157.6 7.0 C 157.4 6.8 156.8 7.0 155.8 6.9 C 157.3 7.2 158.2 7.2 161.3 7.4 C 161.3 7.4 161.4 7.3 161.4 7.3 C 162.0 7.3 162.6 7.4 163.2 7.4 C 160.5 6.9 159.8 7.1 157.0 7.0 C 156.9 7.0 157.2 7.0 157.6 7.0 C 157.6 7.0 157.6 7.0 157.6 7.0 Z M 75.9 14.6 C 76.7 14.6 77.4 14.5 78.8 14.2 C 78.6 14.0 77.8 14.1 75.9 14.6 C 75.9 14.6 75.9 14.6 75.9 14.6 Z M 197.6 12.3 C 199.3 12.5 196.1 12.0 197.0 12.4 C 198.3 12.8 199.6 13.2 199.8 13.4 C 202.2 13.6 197.3 12.6 197.6 12.3 C 197.6 12.3 197.6 12.3 197.6 12.3 Z M 187.0 10.9 C 186.3 10.7 186.3 10.4 187.0 10.7 C 188.7 11.0 185.6 10.3 188.2 10.8 C 187.1 10.5 184.6 9.9 183.4 9.9 C 183.4 10.1 185.7 10.4 185.8 10.6 C 185.9 10.7 185.5 10.6 185.2 10.6 C 185.4 10.7 185.9 10.7 187.0 10.9 C 187.0 10.9 187.0 10.9 187.0 10.9 Z M 178.0 9.2 C 179.0 9.4 180.1 9.7 182.2 10.0 C 180.9 9.6 180.1 9.3 178.0 9.2 C 178.0 9.2 178.0 9.2 178.0 9.2 Z M 274.2 58.3 C 273.8 57.2 273.9 58.3 273.9 58.4 C 274.3 59.5 274.5 59.3 274.8 60.6 C 274.9 60.1 274.2 59.1 274.2 58.3 C 274.2 58.3 274.2 58.3 274.2 58.3 Z M 275.3 62.2 C 275.2 62.4 275.7 63.9 275.5 64.0 C 276.2 64.8 275.6 66.2 275.9 66.1 C 275.9 66.5 275.9 66.8 276.0 67.4 C 276.3 66.2 275.7 63.5 275.3 62.2 C 275.3 62.2 275.3 62.2 275.3 62.2 Z M 167.5 8.5 C 165.8 8.3 167.9 8.9 166.2 8.7 C 166.1 8.8 169.3 9.1 167.4 9.0 C 169.9 9.4 167.3 8.6 167.5 8.5 C 167.5 8.5 167.5 8.5 167.5 8.5 Z M 137.0 7.6 C 137.1 7.5 134.8 7.6 133.8 7.6 C 133.8 7.7 134.6 7.7 135.1 7.7 C 134.8 7.8 134.5 7.8 133.8 7.9 C 134.3 8.0 136.0 7.7 137.0 7.6 C 137.0 7.6 137.0 7.6 137.0 7.6 Z M 171.0 4.6 C 172.0 5.0 173.3 5.3 174.1 5.1 C 175.2 5.4 173.3 5.2 174.6 5.5 C 176.4 5.6 175.5 5.7 178.4 6.0 C 177.8 6.2 179.8 6.5 180.2 6.7 C 179.0 6.6 177.6 6.1 177.1 6.3 C 178.0 6.4 177.5 6.6 177.0 6.4 C 175.2 6.0 179.4 6.3 177.1 5.9 C 176.4 6.1 173.2 5.2 171.0 5.0 C 171.8 4.9 169.4 4.5 171.0 4.6 C 171.0 4.6 171.0 4.6 171.0 4.6 Z M 182.0 6.5 C 183.5 6.7 184.2 7.3 183.8 7.2 C 183.8 7.1 182.2 6.9 182.0 6.9 C 182.4 7.0 182.7 7.1 182.6 7.1 C 179.9 6.7 180.9 6.6 180.2 6.4 C 181.7 6.5 182.1 6.7 182.7 6.7 C 182.3 6.6 182.0 6.5 182.0 6.5 C 182.0 6.5 182.0 6.5 182.0 6.5 Z M 212.2 16.9 C 211.9 16.7 211.6 16.8 211.0 16.7 C 211.0 16.3 208.1 16.0 207.7 15.7 C 208.4 15.8 209.9 16.1 210.6 16.2 C 209.8 16.0 209.7 15.9 208.9 15.8 C 209.1 15.6 210.7 16.0 211.2 16.0 C 211.3 16.2 212.1 16.2 212.3 16.4 C 210.1 15.9 213.4 17.3 212.2 16.9 C 212.2 16.9 212.2 16.9 212.2 16.9 Z M 153.2 7.9 C 153.0 8.1 155.6 8.8 153.2 9.0 C 152.6 8.8 152.3 8.6 152.5 8.3 C 151.0 8.4 150.4 8.1 149.4 8.3 C 146.6 7.5 151.6 8.5 153.2 7.9 C 153.2 7.9 153.2 7.9 153.2 7.9 Z M 143.2 7.9 C 143.7 7.7 142.3 7.7 142.6 7.5 C 143.8 7.7 147.7 7.5 146.3 7.6 C 145.1 7.7 145.1 7.9 143.2 7.9 C 143.2 7.9 143.2 7.9 143.2 7.9 Z M 61.0 120.8 C 59.2 120.4 58.5 119.7 59.5 119.9 C 59.0 120.0 61.7 120.8 61.0 120.8 C 61.0 120.8 61.0 120.8 61.0 120.8 Z M 4.0 80.3 C 4.3 81.8 4.8 82.6 4.6 82.9 C 4.0 81.5 4.2 81.6 3.8 80.4 C 3.7 80.3 3.4 79.6 3.4 79.4 C 3.6 80.1 3.8 79.9 4.0 80.3 C 4.0 80.3 4.0 80.3 4.0 80.3 Z M 104.7 4.6 C 104.5 4.6 103.8 4.6 104.1 4.4 C 106.0 4.3 108.1 3.8 109.6 3.5 C 109.6 3.6 109.7 3.7 109.7 3.8 C 106.7 4.0 105.9 4.3 104.7 4.6 C 104.7 4.6 104.7 4.6 104.7 4.6 Z M 100.9 4.7 C 100.7 4.8 101.7 5.0 100.4 5.2 C 100.4 5.0 98.1 5.1 99.1 4.9 C 99.5 5.0 100.1 4.9 100.9 4.7 C 100.9 4.7 100.9 4.7 100.9 4.7 Z M 205.4 10.3 C 206.8 10.6 204.9 10.0 204.9 9.9 C 206.0 10.2 207.4 10.5 207.8 10.7 C 206.8 10.5 205.9 10.7 205.4 10.3 C 205.4 10.3 205.4 10.3 205.4 10.3 Z M 183.3 6.6 C 180.1 6.1 181.6 5.9 178.5 5.4 C 179.7 5.4 182.5 5.9 183.4 5.8 C 183.3 5.9 184.0 6.1 184.0 6.2 C 182.8 6.0 182.7 5.9 181.5 5.8 C 181.9 6.1 181.9 6.0 181.5 6.2 C 182.3 6.3 182.8 6.3 183.3 6.3 C 183.1 6.4 184.2 6.7 183.3 6.6 C 183.3 6.6 183.3 6.6 183.3 6.6 Z M 204.7 10.8 C 205.9 11.0 206.8 11.6 205.8 11.3 C 205.7 11.1 204.9 11.1 204.7 11.0 C 206.4 11.3 203.4 10.5 204.2 10.5 C 205.2 10.8 205.6 10.8 205.4 10.6 C 206.0 10.7 207.1 11.0 207.1 11.1 C 206.6 11.0 206.0 10.8 206.0 10.9 C 206.3 10.9 206.6 11.0 206.5 11.1 C 205.5 10.8 205.0 10.8 204.7 10.8 C 204.7 10.8 204.7 10.8 204.7 10.8 Z M 196.6 9.0 C 198.2 9.3 198.3 9.6 198.8 9.9 C 196.7 9.3 196.4 8.9 194.8 8.5 C 196.6 8.9 198.4 9.0 199.0 9.2 C 198.1 9.2 196.7 8.8 196.6 9.0 C 196.6 9.0 196.6 9.0 196.6 9.0 Z M 217.1 124.5 C 215.7 124.8 214.6 124.9 213.1 125.2 C 212.7 125.6 215.5 125.3 214.4 125.5 C 212.8 125.9 213.8 125.3 212.6 125.6 C 213.9 125.6 207.3 127.4 207.0 127.2 C 208.0 126.9 208.3 126.7 208.0 126.6 C 210.7 126.0 211.7 125.5 213.6 124.9 C 215.1 124.7 219.2 123.6 221.2 122.5 C 222.8 122.5 225.2 121.1 227.2 120.8 C 227.7 120.4 225.5 121.1 227.1 120.5 C 228.2 120.3 227.4 120.7 228.8 120.3 C 228.9 120.2 228.5 120.1 229.2 119.8 C 229.2 120.0 230.0 119.7 230.4 119.6 C 227.5 120.7 230.6 119.9 228.4 120.8 C 227.5 121.0 229.3 120.1 226.7 121.0 C 225.8 121.4 225.0 121.8 225.3 122.0 C 224.5 122.3 224.1 122.4 223.7 122.6 C 224.6 122.0 220.0 124.0 222.0 123.0 C 222.2 122.9 223.7 122.4 224.7 122.0 C 223.6 122.0 222.6 122.6 220.9 123.2 C 220.1 123.3 221.1 122.9 220.3 123.1 C 219.0 123.7 220.9 123.3 219.9 123.8 C 220.3 123.6 221.0 123.4 221.0 123.5 C 218.6 124.0 217.8 124.5 216.6 124.9 C 217.4 124.5 215.2 125.1 217.1 124.5 C 217.1 124.5 217.1 124.5 217.1 124.5 Z M 235.8 117.1 C 236.3 116.9 236.8 116.7 237.3 116.5 C 237.5 116.6 235.6 117.5 237.0 117.2 C 234.8 118.1 237.0 116.8 235.8 117.1 C 235.8 117.1 235.8 117.1 235.8 117.1 Z M 225.3 120.4 C 224.5 120.5 225.1 120.9 224.4 121.1 C 225.6 120.6 226.8 120.1 227.0 120.3 C 225.5 120.8 224.9 121.0 223.3 121.7 C 224.7 120.8 221.6 122.0 221.0 121.9 C 222.2 121.4 223.1 121.0 224.7 120.4 C 224.5 120.6 226.8 119.9 225.3 120.4 C 225.3 120.4 225.3 120.4 225.3 120.4 Z M 229.4 118.6 C 229.7 118.6 231.9 117.6 231.5 118.0 C 230.2 118.5 229.7 118.8 230.1 118.9 C 229.1 119.3 228.9 119.3 228.0 119.6 C 227.3 119.6 228.9 119.0 229.4 118.6 C 229.1 118.8 228.8 118.8 229.4 118.6 C 229.4 118.6 229.4 118.6 229.4 118.6 Z M 268.2 91.1 C 268.7 90.9 267.2 92.5 266.8 92.8 C 267.4 92.5 267.3 92.8 266.4 93.9 C 266.5 93.3 265.2 94.9 264.0 95.6 C 264.0 96.0 265.2 94.8 263.9 96.3 C 262.7 97.3 261.8 98.4 259.8 100.0 C 259.3 100.2 260.1 99.5 260.5 98.9 C 259.3 100.1 259.5 99.6 258.5 100.4 C 258.8 100.4 258.0 101.1 257.5 101.3 C 259.3 99.8 255.0 102.9 256.8 101.3 C 257.0 101.3 257.4 101.0 257.8 100.6 C 257.5 101.2 259.8 99.2 260.5 98.9 C 261.0 97.7 263.5 95.7 265.9 93.4 C 266.1 93.3 265.5 94.2 266.0 93.6 C 266.0 93.4 266.8 92.6 267.0 92.2 C 267.1 92.3 267.4 92.0 267.9 91.5 C 267.9 91.5 267.9 91.4 268.2 91.1 C 268.2 91.1 268.2 91.1 268.2 91.1 Z M 117.0 131.3 C 117.2 130.9 113.2 130.7 112.1 130.7 C 112.3 130.3 119.3 131.1 117.0 131.3 C 117.0 131.3 117.0 131.3 117.0 131.3 Z M 141.4 132.1 C 140.3 132.1 141.1 132.3 140.2 132.3 C 140.1 132.1 137.7 132.5 137.6 132.3 C 138.8 132.1 139.5 132.1 141.4 132.1 C 141.4 132.1 141.4 132.1 141.4 132.1 Z M 163.9 131.3 C 162.1 131.5 164.9 131.4 164.5 131.5 C 163.0 131.6 161.3 131.7 161.4 131.5 C 162.8 131.5 163.7 131.1 163.9 131.3 C 163.9 131.3 163.9 131.3 163.9 131.3 Z M 130.2 131.6 C 128.6 131.4 131.1 131.2 131.4 131.4 C 129.7 131.4 132.5 131.6 133.9 131.6 C 133.8 131.9 133.2 131.8 133.9 132.1 C 131.7 132.2 133.5 131.8 132.0 131.8 C 130.9 131.9 132.0 131.9 132.0 132.1 C 131.4 132.1 130.7 132.1 130.1 132.1 C 130.1 131.9 130.2 131.8 130.2 131.7 C 130.9 131.7 131.6 131.7 131.4 131.5 C 130.8 131.5 130.6 131.6 130.2 131.6 C 130.2 131.6 130.2 131.6 130.2 131.6 Z M 241.0 111.1 C 239.9 111.7 240.9 111.3 241.8 110.9 C 241.9 110.7 242.4 110.0 243.7 109.6 C 241.2 111.1 244.6 109.5 243.3 110.3 C 242.5 110.4 241.1 111.5 239.7 112.2 C 239.1 112.3 240.3 111.3 241.0 111.1 C 241.0 111.1 241.0 111.1 241.0 111.1 Z M 245.8 108.7 C 245.7 108.8 245.2 109.0 244.4 109.4 C 245.2 108.8 244.0 109.4 245.0 108.7 C 244.9 108.9 248.3 107.0 246.4 108.2 C 244.6 109.1 247.0 108.1 247.8 107.6 C 246.9 108.1 245.5 109.3 245.2 109.2 C 245.6 108.9 246.0 108.7 245.8 108.7 C 245.8 108.7 245.8 108.7 245.8 108.7 Z M 272.9 82.3 C 272.9 82.0 272.5 82.8 272.3 83.0 C 273.4 80.9 274.0 79.0 274.4 78.0 C 274.1 79.0 274.3 79.0 274.6 78.5 C 274.1 79.5 274.2 79.8 273.9 80.2 C 274.1 79.2 273.5 81.0 272.9 82.3 C 272.9 82.3 272.9 82.3 272.9 82.3 Z M 272.9 82.3 " fill="#000000"></path><image xlink:href="../../CEFA4209-80C9-472B-8D2B-058B96531B72/assets/53DE529C9B23CC4742AB8E7F7EB62785.png" width="153.00" height="39.00" transform="matrix(1.00, 0.00, -0.00, -1.00, 66.0, 85.0)"></image><g><clipPath id="clip-879"><path d="M 5.7 5.4 L 278.3 5.4 L 278.3 133.8 L 5.7 133.8 Z M 5.7 5.4 "></path></clipPath><g clip-path="url(#clip-879)"><text xml:space="preserve" font-family="Chalkduster" font-size="32.0" fill="#000000" transform="matrix(1.00, 0.00, -0.00, -1.00, 69.0, 55.0)">N</text><text xml:space="preserve" font-family="Chalkduster" font-size="32.0" fill="#000000" transform="matrix(1.00, 0.00, -0.00, -1.00, 91.8, 55.0)">F</text><text xml:space="preserve" font-family="Chalkduster" font-size="32.0" fill="#000000" transform="matrix(1.00, 0.00, -0.00, -1.00, 115.6, 55.0)">S</text><text xml:space="preserve" font-family="Chalkduster" font-size="32.0" fill="#000000" transform="matrix(1.00, 0.00, -0.00, -1.00, 131.5, 55.0)"> </text><text xml:space="preserve" font-family="Chalkduster" font-size="32.0" fill="#000000" transform="matrix(1.00, 0.00, -0.00, -1.00, 147.4, 55.0)">t</text><text xml:space="preserve" font-family="Chalkduster" font-size="32.0" fill="#000000" transform="matrix(1.00, 0.00, -0.00, -1.00, 161.7, 55.0)">e</text><text xml:space="preserve" font-family="Chalkduster" font-size="32.0" fill="#000000" transform="matrix(1.00, 0.00, -0.00, -1.00, 182.3, 55.0)">s</text><text xml:space="preserve" font-family="Chalkduster" font-size="32.0" fill="#000000" transform="matrix(1.00, 0.00, -0.00, -1.00, 199.4, 55.0)">t</text></g></g></g></svg>