<?xml version="1.0" encoding="UTF-8" standalone="no"?><svg xmlns="http://www.w3.org/2000/svg" xmlns:xlink="http://www.w3.org/1999/xlink" clip-rule="evenodd" stroke-miterlimit="4.00" viewBox="0 0 330 139"><desc>SVG generated by Keynote</desc><defs></defs><g transform="matrix(1.00, 0.00, -0.00, -1.00, 0.0, 139.0)"><g><clipPath id="clip-876"><path d="M 277.9 114.8 C 340.1 89.7 340.1 49.0 277.9 24.0 C 215.6 -1.1 114.7 -1.1 52.5 24.0 C -9.7 49.0 -9.7 89.7 52.5 114.8 C 114.7 139.8 215.6 139.8 277.9 114.8 Z M 277.9 114.8 "></path></clipPath><g clip-path="url(#clip-876)"><image xlink:href="../../CEFA4209-80C9-472B-8D2B-058B96531B72/assets/59DBD66EA15A3D40E065F836EF2595FD.jpeg" width="400.00" height="400.00" transform="matrix(1.00, 0.00, -0.00, -1.00, 5.8, 133.6)"></image></g></g><path d="M 82.4 10.5 C 81.9 10.7 81.4 10.8 80.5 11.0 C 80.9 11.0 81.2 11.0 81.2 11.1 C 81.9 10.9 82.9 10.6 84.4 10.3 C 84.4 10.2 83.6 10.4 83.1 10.5 C 82.5 10.6 82.6 10.5 82.4 10.5 C 82.4 10.5 82.4 10.5 82.4 10.5 Z M 67.3 123.5 C 66.0 123.1 67.3 123.7 67.8 123.9 C 67.9 123.9 67.9 123.8 68.4 124.0 C 68.5 124.2 67.4 124.0 66.5 123.8 C 63.2 122.6 65.8 123.0 67.3 123.5 C 67.3 123.5 67.3 123.5 67.3 123.5 Z M 251.6 126.6 C 254.4 125.9 251.3 126.4 250.9 126.4 C 252.2 126.0 251.0 125.9 252.7 125.5 C 253.0 125.5 253.6 125.4 254.0 125.5 C 253.3 125.7 252.2 125.9 252.1 126.0 C 253.1 125.8 254.4 125.4 254.6 125.4 C 252.5 126.1 254.3 125.8 254.7 125.8 C 252.8 126.3 252.3 126.7 251.6 126.6 C 251.6 126.6 251.6 126.6 251.6 126.6 Z M 301.7 33.0 C 302.6 33.6 303.3 34.0 303.0 34.0 C 302.1 33.4 301.5 33.0 301.0 32.7 C 300.8 32.6 301.0 32.9 300.2 32.4 C 299.4 31.7 300.0 31.7 300.5 31.9 C 300.5 32.1 303.6 34.0 301.7 33.0 C 301.7 33.0 301.7 33.0 301.7 33.0 Z M 226.1 7.7 C 223.5 7.2 225.9 8.0 223.3 7.5 C 223.4 7.3 223.1 7.0 224.8 7.3 C 224.9 7.4 225.9 7.6 226.1 7.7 C 226.1 7.7 226.1 7.7 226.1 7.7 Z M 173.6 134.8 C 173.6 134.9 175.6 134.8 175.1 135.1 C 174.1 135.1 173.2 135.1 172.2 135.1 C 172.0 135.0 172.3 134.8 173.6 134.8 C 173.6 134.8 173.6 134.8 173.6 134.8 Z M 269.2 118.9 C 271.9 118.2 274.5 116.8 273.8 117.4 C 274.9 117.2 272.2 118.7 272.2 118.4 C 271.8 118.3 267.1 119.6 269.2 118.9 C 269.2 118.9 269.2 118.9 269.2 118.9 Z M 82.6 123.4 C 85.6 124.3 85.1 123.5 87.0 124.3 C 86.3 124.1 86.0 124.2 85.8 124.2 C 86.2 124.3 87.0 124.4 87.0 124.5 C 85.5 124.2 83.8 123.9 82.6 123.4 C 82.6 123.4 82.6 123.4 82.6 123.4 Z M 128.7 3.5 C 129.3 3.5 129.6 3.4 129.5 3.3 C 131.7 3.1 131.6 2.9 133.0 3.0 C 133.1 3.3 131.2 3.3 129.5 3.4 C 129.4 3.5 128.9 3.6 128.7 3.5 C 128.7 3.5 128.7 3.5 128.7 3.5 Z M 192.0 3.6 C 191.9 3.4 190.6 3.3 192.7 3.3 C 195.0 3.8 192.9 3.9 190.5 3.8 C 190.5 4.0 190.5 4.1 190.5 4.2 C 191.4 4.2 192.1 4.3 192.6 4.4 C 193.0 4.0 194.6 4.8 198.3 4.9 C 196.5 4.9 198.4 5.4 196.1 5.0 C 196.7 5.3 195.1 5.2 195.4 5.4 C 196.4 5.3 198.8 5.6 198.2 5.2 C 199.5 5.3 200.4 5.4 201.1 5.6 C 201.9 5.9 198.8 5.4 199.7 5.7 C 200.3 5.8 200.5 5.9 201.0 5.9 C 201.2 5.9 200.9 5.7 201.7 5.8 C 204.0 6.1 201.3 6.0 204.5 6.4 C 204.7 6.2 203.8 6.1 203.9 6.0 C 205.3 6.0 205.2 6.2 206.7 6.2 C 206.9 6.4 205.6 6.3 206.6 6.4 C 207.6 6.2 209.5 7.0 211.5 6.9 C 210.2 6.2 211.9 7.0 213.7 6.8 C 214.1 7.0 212.7 7.1 214.3 7.3 C 213.8 6.6 220.0 7.6 215.1 6.5 C 217.7 6.8 218.7 6.5 216.6 6.1 C 221.1 6.9 219.7 6.3 221.4 6.6 C 223.2 6.8 220.5 6.6 221.4 6.9 C 219.5 6.6 220.0 6.8 218.7 6.5 C 218.6 6.6 218.3 6.6 217.9 6.6 C 219.8 6.7 221.9 7.4 220.6 7.5 C 219.6 7.3 220.5 7.2 219.3 7.0 C 219.7 7.4 217.9 6.7 217.8 6.9 C 218.7 7.4 215.9 7.3 218.5 7.7 C 218.5 7.5 218.5 7.4 218.5 7.3 C 219.2 7.4 219.9 7.5 220.5 7.6 C 221.1 7.9 220.6 8.0 221.2 8.2 C 222.3 8.3 222.9 8.4 223.3 8.3 C 221.9 8.0 220.3 7.6 222.6 7.9 C 221.7 8.2 225.8 8.5 223.9 8.5 C 226.4 9.0 227.7 8.9 227.9 9.2 C 229.3 9.5 228.5 9.0 230.0 9.4 C 232.5 10.0 232.1 9.6 235.3 10.4 C 235.8 10.1 235.6 10.6 236.7 10.8 C 236.7 10.6 236.7 10.5 236.7 10.4 C 237.8 10.8 240.4 11.5 243.2 11.8 C 243.9 12.1 243.3 12.2 245.1 12.5 C 247.1 12.6 249.2 13.5 251.5 13.8 C 251.6 14.0 253.2 14.4 254.0 14.5 C 254.3 14.7 253.2 14.7 254.5 15.1 C 255.5 15.1 253.9 14.6 255.9 15.0 C 255.6 15.2 257.7 15.3 257.7 15.6 C 257.1 15.5 256.4 15.4 255.8 15.3 C 256.6 15.6 256.3 15.6 257.0 15.8 C 257.0 15.5 258.4 16.2 258.8 16.4 C 258.8 16.2 259.0 16.2 259.5 16.2 C 260.6 16.6 261.4 16.8 262.0 16.9 C 263.3 17.4 261.2 16.8 262.5 17.3 C 263.3 16.9 264.5 18.0 267.3 18.5 C 267.9 18.9 269.0 19.4 270.7 20.0 C 271.0 19.9 269.1 19.4 269.1 19.2 C 271.6 20.1 268.7 18.9 270.3 19.5 C 272.1 20.2 273.6 20.7 275.0 21.3 C 276.5 21.9 277.7 22.4 280.7 23.8 C 280.6 23.6 285.2 25.4 285.1 25.4 C 283.9 25.0 287.4 26.8 289.1 27.7 C 289.7 27.6 292.5 28.6 292.8 28.5 C 293.3 29.0 293.1 28.9 293.3 29.4 C 296.0 31.0 297.6 31.5 299.0 32.8 C 299.0 32.6 300.2 33.3 301.3 33.9 C 300.9 33.8 300.2 33.6 299.6 33.4 C 301.0 34.2 301.1 34.4 302.2 35.2 C 303.7 35.4 305.1 37.3 306.3 37.4 C 308.0 38.7 307.5 38.6 309.0 39.8 C 309.0 39.7 309.2 39.7 309.7 40.0 C 308.7 39.3 307.9 38.9 307.5 38.2 C 309.8 39.9 303.5 34.4 307.5 37.0 C 307.5 37.2 307.1 37.1 307.9 37.7 C 310.0 39.3 308.9 38.1 308.1 37.5 C 309.6 38.5 310.9 39.7 310.0 38.6 C 313.2 41.1 311.1 39.6 312.0 40.6 C 317.4 45.1 322.7 51.2 325.2 58.4 C 325.6 58.5 326.5 62.4 326.6 63.7 C 327.2 65.6 327.4 67.8 327.1 68.4 C 327.4 68.8 326.9 70.9 327.2 71.1 C 327.2 70.2 327.3 69.7 327.4 70.6 C 327.1 73.5 326.0 77.8 325.6 79.6 C 324.9 80.5 324.2 82.4 323.7 83.7 C 323.5 83.8 323.9 82.8 323.5 83.6 C 323.5 83.9 322.1 86.6 321.6 87.2 C 322.1 86.4 322.4 85.3 321.6 86.5 C 321.7 86.6 320.8 87.9 321.2 87.7 C 320.0 89.3 319.4 90.3 318.2 91.6 C 319.1 90.5 319.5 89.7 319.5 89.4 C 318.9 90.5 318.4 91.2 317.5 91.9 C 318.0 91.9 316.5 93.3 315.2 94.9 C 314.7 95.3 314.3 95.5 313.0 96.7 C 312.5 97.4 315.2 95.0 313.7 96.4 C 313.7 96.3 312.2 97.5 312.7 97.4 C 310.9 98.9 310.0 99.9 308.2 100.9 C 310.3 99.4 308.6 100.3 308.0 100.7 C 307.6 101.0 306.9 101.5 306.9 101.6 C 307.0 101.7 308.0 100.9 308.2 100.9 C 306.7 101.9 306.5 102.5 305.8 102.7 C 306.5 102.2 306.5 102.0 305.7 102.6 C 305.8 103.0 301.0 105.9 302.5 104.7 C 302.6 104.8 304.3 103.6 304.5 103.4 C 303.9 103.6 301.3 105.5 301.7 104.9 C 303.3 103.9 303.3 104.1 305.0 102.8 C 305.1 102.6 306.1 101.8 306.6 101.2 C 304.0 103.2 303.4 103.9 302.9 103.9 C 301.6 104.7 302.6 104.5 300.4 105.8 C 297.2 107.7 299.7 105.9 298.8 106.3 C 296.0 108.1 297.0 107.9 298.4 107.4 C 296.1 108.7 295.5 109.3 292.5 110.8 C 292.5 110.5 292.9 110.2 293.9 109.6 C 294.0 109.7 296.5 108.5 296.2 108.5 C 295.8 108.3 293.8 109.2 290.6 110.8 C 291.5 110.8 291.5 110.5 288.2 112.2 C 288.9 112.2 286.5 112.9 286.5 113.1 C 286.7 113.1 288.0 112.6 289.1 112.0 C 289.1 112.2 288.7 112.5 287.6 113.1 C 286.8 113.3 286.3 113.7 284.2 114.6 C 283.9 114.5 285.4 113.7 285.7 113.4 C 284.5 114.0 284.3 114.2 283.1 114.8 C 282.0 115.0 282.0 114.7 281.9 114.3 C 283.3 113.7 285.4 112.7 283.6 113.3 C 288.6 111.1 283.5 113.8 285.4 112.9 C 287.4 111.7 286.5 112.6 289.6 111.1 C 290.5 110.6 290.8 110.3 291.1 110.1 C 290.9 110.2 289.0 110.8 291.0 109.8 C 291.5 109.7 292.7 109.3 294.2 108.5 C 294.2 108.4 290.9 110.0 294.1 108.3 C 295.6 107.4 294.4 108.5 296.5 107.3 C 296.4 107.2 297.0 106.9 297.1 106.7 C 294.2 108.5 297.6 106.2 295.5 107.3 C 298.0 105.7 296.1 107.3 297.8 106.3 C 297.7 106.1 300.5 104.7 300.4 104.4 C 299.5 105.2 297.4 106.4 297.6 106.0 C 299.5 104.9 307.1 99.5 304.3 101.9 C 305.3 101.0 310.1 96.8 309.8 97.2 C 308.4 98.4 308.6 98.5 308.4 98.8 C 311.0 96.4 312.5 95.4 314.6 92.6 C 312.0 95.3 313.7 93.0 311.9 94.4 C 311.1 95.1 310.0 96.1 309.9 96.3 C 310.4 96.2 311.6 95.0 311.9 94.5 C 312.1 94.6 312.2 94.8 312.4 94.9 C 309.1 97.7 307.1 99.5 305.3 100.7 C 306.8 99.5 302.1 102.6 303.9 101.2 C 304.7 100.8 306.6 99.5 308.1 98.4 C 308.0 98.3 308.0 98.2 307.9 98.2 C 308.6 97.7 309.5 96.9 309.5 96.8 C 307.6 98.5 306.3 99.1 305.0 100.3 C 305.0 100.3 304.9 100.2 304.9 100.2 C 304.6 100.5 304.2 100.7 304.3 100.6 C 305.0 100.0 306.0 99.3 306.0 99.2 C 304.5 100.3 304.0 100.3 302.2 101.5 C 302.5 101.0 299.9 102.4 302.5 100.5 C 303.0 100.4 304.5 99.5 304.5 99.6 C 305.3 99.2 306.7 98.0 307.3 97.4 C 306.5 97.8 305.0 98.8 304.8 98.7 C 305.9 97.8 306.8 97.0 307.6 96.6 C 305.4 98.6 308.9 95.8 309.9 95.2 C 309.6 95.4 309.1 95.7 308.7 95.9 C 310.4 94.4 311.2 93.9 311.1 93.6 C 312.8 91.7 312.6 92.3 313.8 91.0 C 312.8 91.6 314.4 90.1 313.4 90.7 C 315.3 88.6 314.2 90.3 314.9 89.6 C 315.4 88.9 315.4 88.7 315.9 88.1 C 316.8 87.2 318.1 85.3 318.6 85.2 C 319.1 84.3 319.3 84.3 319.7 83.4 C 319.8 83.1 319.9 82.8 320.0 82.4 C 320.2 82.3 320.6 81.7 320.6 81.5 C 319.1 83.7 319.5 83.0 317.6 85.3 C 317.6 85.5 317.4 85.9 317.8 85.4 C 316.8 87.1 316.2 87.5 315.1 89.0 C 314.8 89.0 314.3 89.1 313.2 90.5 C 313.3 90.1 313.0 90.4 313.4 89.8 C 314.1 89.2 315.0 88.3 315.8 87.4 C 315.8 87.2 315.6 87.3 316.0 86.8 C 316.4 86.4 317.0 85.7 317.3 85.0 C 317.4 85.1 317.3 85.3 317.2 85.6 C 318.8 83.5 318.0 84.1 319.1 82.5 C 318.8 82.6 318.2 83.7 318.6 82.7 C 319.4 81.2 319.6 80.9 320.1 80.2 C 320.1 80.0 319.9 80.0 320.1 79.6 C 320.8 78.6 319.5 82.2 320.6 80.4 C 320.5 80.2 321.3 78.3 321.6 78.1 C 321.5 78.8 320.8 79.8 320.9 80.0 C 322.5 76.5 321.6 80.0 322.7 76.4 C 322.6 76.4 322.5 76.4 322.4 76.4 C 322.0 77.8 321.8 77.8 321.6 77.6 C 321.1 78.8 320.7 79.2 320.4 80.3 C 320.1 79.7 320.8 79.3 321.3 78.0 C 321.0 78.0 320.6 79.1 320.3 79.2 C 321.7 76.4 321.5 75.7 322.3 73.1 C 321.9 73.7 322.4 71.5 322.2 71.7 C 322.1 74.1 321.4 73.0 321.3 73.3 C 321.1 74.8 321.6 74.3 321.5 75.2 C 321.2 75.6 321.1 75.3 320.9 75.0 C 321.3 73.7 321.2 73.9 321.2 72.8 C 321.5 72.0 322.1 71.3 322.1 72.5 C 322.0 72.3 322.1 70.5 322.3 70.3 C 322.2 72.1 322.4 70.2 322.4 71.2 C 322.7 69.9 322.4 67.5 322.3 65.9 C 322.2 66.0 322.1 65.4 322.0 65.5 C 322.5 67.1 321.9 67.5 322.0 69.0 C 321.9 68.3 321.8 68.7 321.7 69.0 C 321.8 67.5 321.5 66.7 321.6 65.6 C 321.5 65.6 321.4 65.6 321.3 65.6 C 321.2 63.7 321.2 64.0 320.6 62.6 C 320.5 62.0 321.2 62.7 321.5 62.8 C 321.2 62.2 320.3 59.6 320.6 61.2 C 320.1 59.7 320.5 59.9 319.8 58.4 C 319.6 58.5 320.2 59.9 319.7 59.5 C 319.1 58.1 319.7 58.8 319.0 57.7 C 319.1 57.6 319.3 57.4 318.6 56.2 C 318.9 57.2 318.5 56.2 318.1 55.9 C 318.4 56.5 318.6 57.0 318.7 57.3 C 317.7 55.1 317.3 54.7 316.0 52.9 C 316.7 53.4 316.1 52.4 317.0 53.5 C 316.1 52.5 315.3 50.9 314.7 50.4 C 315.2 51.2 316.0 52.3 316.2 52.8 C 313.6 49.3 311.7 47.7 308.6 44.5 C 309.2 45.0 309.9 45.7 310.1 45.8 C 309.7 45.4 309.1 44.9 309.2 44.8 C 310.3 45.9 311.3 46.9 312.0 47.4 C 312.8 48.4 311.3 47.0 312.2 48.0 C 312.5 48.0 314.0 50.0 313.6 49.1 C 312.0 47.6 310.5 45.8 310.0 44.8 C 308.0 43.6 309.7 45.0 307.5 43.8 C 307.6 43.7 307.2 43.3 306.6 42.7 C 307.0 43.5 304.6 41.4 304.3 41.2 C 305.4 41.8 309.0 44.5 307.4 42.8 C 307.8 43.9 303.3 39.4 304.0 40.5 C 301.5 38.7 302.6 39.1 301.0 38.4 C 301.0 38.3 301.2 38.3 300.5 37.8 C 299.8 37.3 299.5 37.2 299.1 37.0 C 302.9 39.6 301.5 39.2 303.7 40.8 C 303.4 40.5 303.0 40.3 303.1 40.4 C 303.1 40.5 303.0 40.5 302.5 40.1 C 302.5 39.7 300.6 38.8 300.1 38.3 C 300.9 38.8 301.6 39.3 301.4 39.0 C 298.4 37.0 299.2 37.0 294.5 34.2 C 295.8 35.1 293.9 34.1 292.2 33.2 C 289.8 31.8 290.9 32.0 287.8 30.4 C 287.8 31.1 284.5 28.7 280.2 27.3 C 280.5 27.2 279.3 26.6 277.8 26.0 C 276.3 25.3 275.6 25.1 275.2 25.1 C 275.2 25.0 273.9 24.5 273.0 24.2 C 272.9 24.0 273.9 24.3 273.1 24.0 C 272.3 23.7 273.0 24.2 271.9 23.9 C 270.8 23.4 271.1 23.2 269.2 22.6 C 269.1 22.7 270.1 23.0 269.1 22.9 C 267.5 22.2 266.1 21.7 267.3 22.4 C 264.9 21.6 266.3 21.6 264.0 20.9 C 264.6 21.2 264.5 21.3 263.3 20.9 C 262.5 20.5 262.5 20.3 262.2 20.2 C 261.5 20.1 261.7 20.2 259.8 19.6 C 259.8 19.7 259.7 19.8 259.7 19.9 C 258.9 19.6 257.5 19.3 257.3 19.1 C 259.0 19.6 258.6 19.3 259.2 19.4 C 257.6 18.9 254.5 17.7 256.8 18.7 C 254.5 18.2 255.7 18.1 253.8 17.7 C 254.9 18.3 253.9 17.7 252.0 17.3 C 252.0 17.6 250.7 17.0 249.4 16.7 C 249.6 16.9 249.3 17.0 248.2 16.7 C 248.2 16.6 247.5 16.4 246.3 16.1 C 246.3 16.2 248.9 17.0 246.2 16.3 C 245.0 15.9 245.1 15.7 243.1 15.2 C 242.7 14.9 244.9 15.5 244.5 15.1 C 242.8 15.0 242.4 14.7 240.0 14.1 C 240.9 14.7 235.1 13.7 237.9 14.5 C 237.1 14.3 235.9 14.4 235.3 14.0 C 236.2 14.1 234.6 13.6 234.7 13.6 C 233.5 13.4 230.9 12.8 230.8 12.9 C 233.3 13.3 233.3 13.5 234.0 13.8 C 230.3 13.3 227.1 12.6 227.4 12.4 C 227.4 12.5 226.9 12.4 226.7 12.4 C 228.0 12.6 228.8 13.2 227.3 12.9 C 227.7 12.8 226.6 12.5 225.4 12.2 C 225.3 12.4 220.5 11.3 221.3 11.8 C 223.3 11.9 224.8 12.5 223.3 12.4 C 222.1 12.0 219.4 11.5 220.0 11.4 C 219.3 11.4 218.6 11.3 218.0 11.3 C 217.3 11.5 218.9 11.7 218.6 11.8 C 217.6 11.7 216.1 11.5 215.9 11.4 C 218.6 11.7 214.5 11.0 217.3 11.2 C 215.6 11.0 215.2 10.8 213.9 10.6 C 213.9 10.7 213.3 10.6 213.2 10.7 C 214.4 10.7 215.6 11.0 215.2 11.2 C 212.7 10.9 213.2 10.7 211.1 10.4 C 210.5 10.5 207.6 10.5 206.2 10.2 C 209.0 10.5 206.0 10.0 207.7 10.1 C 210.1 10.5 210.8 10.4 211.8 10.3 C 210.8 10.0 208.7 9.7 208.4 9.9 C 209.7 10.1 209.7 10.0 210.5 10.0 C 210.4 10.2 210.0 10.2 209.0 10.2 C 207.9 9.9 205.3 9.8 207.0 9.6 C 205.3 9.6 203.3 9.1 201.5 9.1 C 203.5 9.4 205.0 9.6 205.6 9.9 C 203.9 9.8 202.2 9.3 202.1 9.5 C 202.3 9.8 205.0 10.0 205.5 10.2 C 203.4 10.2 200.1 9.2 202.8 10.0 C 201.6 9.8 199.9 9.7 199.3 9.5 C 200.8 9.6 199.2 9.1 198.6 9.0 C 197.3 8.9 196.3 8.9 195.8 9.0 C 197.8 9.0 199.3 9.5 197.9 9.4 C 197.6 9.2 197.1 9.3 196.5 9.3 C 196.4 9.2 194.1 9.1 193.7 9.0 C 193.9 9.1 194.9 9.2 195.1 9.3 C 193.8 9.3 191.8 9.5 190.9 9.1 C 191.7 9.1 192.9 9.2 193.0 9.2 C 189.4 8.5 188.2 8.2 183.9 7.8 C 184.4 7.8 184.7 7.8 184.6 7.7 C 181.8 7.5 180.0 7.3 180.4 7.2 C 178.6 7.2 177.7 7.3 176.8 7.4 C 178.6 7.6 179.2 7.4 180.3 7.6 C 179.6 7.6 181.7 8.1 182.5 8.3 C 185.5 8.2 185.7 8.6 188.8 8.6 C 187.9 8.8 191.1 8.8 190.1 9.0 C 187.3 8.5 184.5 8.6 180.3 8.3 C 180.9 8.1 181.4 8.0 179.6 7.8 C 176.9 7.6 178.2 8.0 176.0 7.8 C 175.1 7.6 176.5 7.6 175.3 7.5 C 174.6 7.6 172.5 7.5 171.8 7.3 C 174.7 7.3 171.3 7.0 173.2 7.0 C 172.2 6.9 171.7 6.9 171.0 6.8 C 173.9 7.2 168.2 7.2 170.3 7.4 C 166.4 7.5 170.1 6.8 166.8 6.8 C 168.4 7.0 166.3 7.1 163.9 7.0 C 163.3 6.8 160.9 6.8 158.9 6.7 C 160.0 6.9 160.7 6.8 158.9 7.0 C 159.9 7.1 161.6 7.1 162.5 7.0 C 162.5 7.1 162.8 7.1 163.3 7.2 C 160.9 7.3 161.9 7.4 161.1 7.5 C 160.4 7.4 158.7 7.4 158.3 7.3 C 158.3 7.3 157.6 7.4 157.6 7.4 C 160.5 7.4 157.1 7.8 159.0 7.8 C 160.3 7.8 159.4 7.5 161.1 7.5 C 162.7 7.8 159.8 7.9 159.0 8.1 C 160.3 8.3 162.0 8.0 162.5 8.3 C 160.7 8.6 157.8 8.4 155.4 8.4 C 155.6 8.7 151.5 8.4 151.2 8.8 C 150.8 8.7 150.4 8.7 149.8 8.6 C 149.1 8.9 148.3 8.6 147.6 8.6 C 147.6 8.8 147.8 8.9 148.3 8.9 C 145.4 8.9 144.7 9.0 141.3 9.3 C 140.7 9.2 140.1 9.1 139.8 8.9 C 140.7 8.8 141.4 8.7 142.0 8.6 C 137.3 8.9 140.3 9.3 137.0 9.2 C 137.2 9.3 139.5 9.4 137.7 9.6 C 134.8 9.5 130.7 10.2 130.7 9.5 C 128.1 9.5 126.4 10.1 125.2 9.9 C 124.4 10.0 124.1 10.1 123.8 10.2 C 124.6 10.3 125.6 10.3 126.6 10.3 C 128.1 10.1 128.8 10.2 127.3 10.0 C 129.6 9.8 130.2 9.9 131.5 9.9 C 128.3 10.3 125.4 10.4 125.3 10.8 C 124.2 10.8 123.3 10.7 122.4 10.6 C 122.1 10.8 118.6 11.3 118.3 11.1 C 120.7 10.9 123.2 10.3 121.0 10.4 C 115.1 11.2 111.8 11.3 106.7 12.3 C 106.6 12.2 107.0 12.0 106.0 12.1 C 106.1 12.3 105.9 12.4 105.4 12.6 C 103.8 12.8 102.9 12.8 100.8 13.3 C 100.8 13.0 100.5 12.9 99.3 13.0 C 98.7 13.4 96.7 14.3 95.5 14.4 C 96.7 14.2 95.0 14.2 94.1 14.4 C 95.0 14.6 88.3 15.3 90.3 15.3 C 87.6 15.8 86.5 16.0 86.4 15.9 C 85.5 16.1 84.8 16.4 83.9 16.6 C 83.3 16.4 78.9 17.8 78.3 17.8 C 79.8 17.5 80.0 17.1 78.8 17.4 C 78.0 17.8 74.1 19.1 73.4 19.2 C 73.6 19.1 73.8 18.8 75.7 18.2 C 72.5 19.0 72.6 19.4 71.6 19.9 C 71.7 19.6 70.3 20.3 69.8 20.5 C 68.8 20.6 69.9 20.4 69.8 20.2 C 68.6 20.5 68.2 20.5 66.8 20.9 C 67.3 21.1 65.6 21.4 65.0 21.6 C 64.9 21.8 64.1 22.2 62.8 22.7 C 64.4 21.7 55.6 24.8 57.7 24.3 C 56.1 25.2 55.9 24.7 53.8 25.6 C 53.4 25.9 52.2 26.3 53.3 26.0 C 52.5 26.4 51.6 26.7 51.3 26.7 C 50.9 26.8 50.4 27.0 48.8 27.7 C 50.4 27.4 45.6 29.1 46.5 29.1 C 44.9 29.3 42.6 31.1 40.0 32.0 C 40.1 32.1 39.4 32.4 39.3 32.6 C 39.0 32.9 42.3 31.2 40.2 32.4 C 37.6 33.5 38.9 32.7 38.5 32.8 C 31.8 36.6 25.0 41.1 20.3 45.3 C 21.0 44.9 21.0 45.0 20.1 45.9 C 18.4 46.8 14.2 52.0 13.8 52.9 C 13.2 53.2 11.8 55.9 11.4 56.3 C 11.8 55.8 12.1 54.7 11.5 55.8 C 11.4 56.6 10.7 57.5 10.4 58.6 C 9.9 59.0 9.0 62.3 9.0 60.7 C 8.8 61.3 8.7 61.6 8.5 62.0 C 8.8 62.1 8.5 62.7 9.0 61.7 C 7.9 64.5 8.1 65.3 7.7 67.5 C 7.8 67.9 8.1 66.2 8.0 67.5 C 8.0 67.5 7.9 67.5 7.9 67.5 C 7.8 68.0 7.9 68.1 7.8 68.4 C 7.7 68.3 7.8 67.5 7.5 67.5 C 7.5 68.6 7.2 69.3 7.4 69.7 C 7.4 68.2 7.9 69.2 7.7 70.1 C 7.5 69.3 8.0 73.7 8.5 75.0 C 8.4 75.8 8.1 73.5 8.0 73.7 C 8.5 76.4 8.5 76.2 8.8 76.4 C 9.2 77.8 9.2 78.4 10.1 80.0 C 10.4 81.0 9.6 79.5 10.1 80.5 C 10.4 81.1 10.7 81.3 11.2 82.2 C 12.0 84.9 17.0 90.0 19.2 93.2 C 18.2 92.0 19.8 93.3 21.3 94.7 C 21.4 94.9 21.1 94.8 21.7 95.3 C 21.7 95.1 22.3 95.5 23.4 96.5 C 23.4 96.6 23.1 96.6 23.7 97.1 C 24.4 97.2 25.7 98.6 26.7 99.1 C 26.9 99.6 24.5 97.6 24.2 97.7 C 27.0 100.0 27.7 100.2 30.2 101.9 C 28.8 101.1 31.0 102.7 31.3 103.0 C 30.9 102.4 33.0 103.6 31.6 102.5 C 32.6 103.2 34.1 104.0 34.3 104.3 C 33.7 103.9 32.9 103.4 32.8 103.5 C 34.1 104.2 35.6 105.4 36.4 105.6 C 35.5 105.0 35.0 104.6 35.0 104.5 C 35.4 104.6 35.9 104.8 36.6 105.1 C 34.3 104.5 40.5 107.6 41.0 107.6 C 41.4 108.3 41.8 108.5 41.5 108.5 C 44.2 109.9 44.0 109.5 45.7 110.2 C 45.1 110.2 44.4 110.2 47.1 111.5 C 46.6 111.0 49.9 112.5 49.1 111.7 C 56.3 114.7 56.0 114.8 58.8 115.8 C 58.9 115.8 58.0 115.4 58.8 115.7 C 60.1 116.2 61.3 116.7 62.1 117.2 C 62.9 117.2 61.9 116.8 62.8 117.1 C 64.8 118.0 64.2 118.1 66.1 118.9 C 68.5 119.5 67.6 119.3 69.1 119.5 C 68.5 119.3 67.7 119.0 68.6 119.2 C 70.0 119.9 70.5 120.3 70.8 120.5 C 69.8 120.2 69.0 119.9 68.4 119.7 C 68.0 119.7 66.6 119.3 67.8 119.8 C 66.3 119.2 64.6 118.7 62.5 118.0 C 63.1 118.5 60.6 117.4 61.2 117.9 C 63.6 118.6 64.1 119.0 66.5 119.7 C 66.0 119.3 68.4 120.2 68.9 120.4 C 68.9 120.2 70.5 120.8 70.2 120.4 C 72.0 120.9 71.9 121.1 73.8 121.6 C 73.9 121.7 73.6 121.8 74.3 122.0 C 75.0 121.9 75.5 122.4 76.1 122.6 C 75.8 122.2 78.5 123.0 78.7 122.9 C 78.0 122.7 76.9 122.5 76.8 122.3 C 79.8 123.2 77.5 122.3 76.9 121.9 C 77.0 122.1 75.9 122.1 75.7 121.9 C 78.3 122.4 72.3 120.5 74.5 121.2 C 76.4 121.8 76.3 121.6 78.3 122.1 C 80.4 123.2 77.6 122.7 79.9 123.6 C 81.3 123.8 82.3 124.1 82.5 123.9 C 82.8 124.0 83.1 124.2 83.7 124.4 C 84.3 124.4 81.9 123.7 83.7 124.1 C 84.7 124.4 83.5 124.5 85.6 124.9 C 86.5 124.9 83.2 124.0 85.0 124.4 C 86.9 125.2 84.6 124.2 86.9 124.7 C 87.1 124.8 87.5 124.9 88.2 125.1 C 88.3 125.2 88.0 125.3 88.8 125.5 C 89.3 125.2 89.6 125.9 91.4 126.1 C 92.4 126.1 89.6 125.6 90.2 125.5 C 92.1 126.2 93.3 126.1 94.1 126.3 C 92.4 126.2 96.5 127.0 96.6 127.2 C 96.2 126.8 97.1 127.1 99.4 127.3 C 99.4 127.8 102.1 127.9 102.6 128.4 C 103.0 128.3 103.6 128.3 104.0 128.3 C 103.2 128.1 102.4 128.0 102.7 127.9 C 103.4 128.0 104.0 128.1 104.7 128.2 C 105.8 128.6 102.8 128.7 107.3 129.3 C 106.9 128.9 108.8 129.2 110.1 129.2 C 110.0 128.9 108.3 129.0 108.1 128.8 C 109.6 128.8 111.2 129.3 112.1 129.5 C 114.8 129.8 117.9 130.4 121.8 130.7 C 122.7 131.0 118.5 130.5 121.1 130.9 C 122.2 131.1 121.6 130.8 123.1 131.0 C 121.7 131.9 133.6 132.2 134.4 132.7 C 134.9 132.5 138.2 132.9 137.9 132.6 C 135.6 132.6 134.1 132.2 133.0 131.9 C 130.8 131.9 134.9 132.4 132.9 132.3 C 132.7 132.1 129.9 132.0 130.1 131.8 C 133.2 132.0 128.6 131.4 130.9 131.4 C 133.7 131.7 139.3 131.8 137.9 132.0 C 138.0 131.9 136.7 131.8 136.6 131.9 C 139.7 132.3 141.6 132.2 142.9 132.1 C 144.4 132.4 150.1 132.3 148.6 132.4 C 149.1 132.6 145.2 132.1 145.8 132.4 C 151.7 132.8 151.8 132.6 155.7 132.8 C 154.5 132.5 159.8 132.5 159.3 132.6 C 159.3 132.8 160.5 133.0 162.9 132.8 C 162.5 133.0 163.8 133.1 165.0 133.2 C 165.6 133.0 164.0 133.0 164.3 132.8 C 165.5 132.8 166.7 132.8 167.9 132.8 C 168.0 132.9 167.8 133.0 168.6 133.0 C 169.9 132.9 174.7 132.5 174.3 132.7 C 172.3 133.1 177.6 132.9 174.3 133.2 C 175.2 133.1 175.3 133.2 176.5 133.2 C 176.5 133.1 176.5 133.0 176.5 132.9 C 179.1 132.8 177.8 133.2 180.1 133.2 C 180.3 133.0 181.2 133.0 181.5 132.9 C 180.6 132.9 180.5 133.0 179.3 133.0 C 180.7 132.6 177.0 132.9 177.2 132.6 C 179.7 132.5 179.7 132.7 180.7 132.8 C 183.9 132.5 182.4 132.7 185.7 132.6 C 185.7 132.5 184.8 132.5 185.0 132.4 C 189.1 132.2 188.7 132.8 191.4 132.4 C 190.8 132.5 188.3 132.8 190.1 132.7 C 191.9 132.5 192.4 132.2 194.9 132.0 C 195.1 132.1 194.9 132.2 195.7 132.2 C 196.7 132.0 196.8 131.8 197.7 131.6 C 197.9 131.7 199.3 131.5 199.8 131.4 C 200.8 131.5 199.5 131.7 200.6 131.7 C 202.7 131.5 203.7 130.8 205.4 130.7 C 205.4 131.0 207.3 130.7 209.0 130.5 C 209.3 130.8 212.8 130.3 215.2 130.0 C 214.6 129.9 217.0 129.6 216.5 129.5 C 215.3 129.6 214.7 129.6 214.5 129.6 C 217.1 129.2 218.0 129.6 219.9 128.9 C 220.9 128.9 222.2 128.9 224.0 128.7 C 224.2 128.5 220.8 128.9 222.6 128.6 C 222.8 128.6 223.4 128.5 224.0 128.4 C 223.7 128.7 225.2 128.5 226.1 128.5 C 227.6 128.0 230.9 127.8 229.4 127.8 C 231.8 127.3 230.3 128.0 232.2 127.7 C 231.1 127.5 234.4 126.9 232.7 127.0 C 235.2 126.4 235.1 126.9 234.1 127.2 C 236.4 126.8 236.9 126.5 238.1 126.4 C 236.9 126.4 240.4 125.5 238.6 126.1 C 238.1 126.4 240.8 125.7 241.3 125.7 C 240.4 125.7 241.6 125.5 240.0 125.7 C 241.7 125.3 244.1 124.7 245.8 124.6 C 247.8 123.9 249.8 123.4 248.9 123.9 C 250.9 123.3 250.1 123.5 252.1 123.1 C 252.1 123.0 251.5 123.1 251.4 123.1 C 254.1 122.4 253.6 122.7 257.0 121.7 C 256.7 122.1 258.9 121.5 259.6 121.5 C 258.2 121.9 257.0 122.1 255.9 122.4 C 255.7 122.6 256.8 122.3 255.9 122.6 C 255.8 122.5 255.2 122.7 254.7 122.8 C 257.0 122.4 251.9 124.0 253.5 123.3 C 253.5 123.3 253.6 123.3 254.1 123.2 C 253.6 123.1 253.6 123.2 254.0 122.8 C 252.9 123.2 251.9 123.1 251.5 123.5 C 251.6 123.5 252.7 123.2 252.8 123.3 C 250.0 124.2 251.9 123.2 249.6 123.9 C 249.2 124.2 250.4 124.0 251.0 124.0 C 248.9 124.6 247.1 125.0 246.5 125.0 C 244.6 125.5 246.7 125.1 245.3 125.6 C 244.6 125.6 244.7 125.4 243.3 125.7 C 241.9 126.1 244.2 125.7 242.8 126.1 C 241.1 126.3 243.8 125.5 241.3 126.0 C 242.0 126.2 239.2 126.4 239.4 126.5 C 240.8 126.2 240.9 126.6 240.1 126.5 C 236.9 126.8 234.8 128.2 231.5 128.2 C 231.6 128.3 231.0 128.4 230.9 128.5 C 233.4 128.2 236.9 127.5 237.6 127.7 C 239.5 127.3 239.2 127.1 239.5 126.9 C 241.8 126.8 241.6 126.9 240.3 127.5 C 236.6 128.4 234.9 128.5 232.4 128.8 C 231.1 129.3 232.5 128.9 233.1 129.0 C 225.2 130.2 231.3 129.8 228.5 130.2 C 228.5 130.1 227.9 130.1 227.1 130.2 C 227.1 130.3 225.9 130.5 225.7 130.6 C 226.3 130.5 226.6 130.5 226.4 130.6 C 224.5 131.0 225.2 130.7 225.1 130.5 C 226.6 130.3 227.6 130.1 227.7 129.9 C 225.8 130.4 224.2 130.4 223.0 130.9 C 221.1 130.8 223.9 130.0 222.9 129.9 C 223.2 129.7 221.7 130.7 220.2 131.0 C 217.8 131.4 217.7 131.6 215.4 132.0 C 214.8 131.8 217.7 131.5 217.5 131.3 C 216.8 131.4 216.7 131.4 216.1 131.5 C 214.5 131.7 214.6 131.9 213.3 132.1 C 212.6 132.0 212.3 132.2 211.3 132.4 C 209.7 132.5 212.2 132.1 210.5 132.2 C 208.8 132.4 207.6 132.8 207.1 132.9 C 207.0 132.8 207.2 132.6 206.4 132.7 C 204.4 133.1 204.0 133.2 206.4 133.0 C 204.2 133.2 203.3 133.4 203.7 133.6 C 206.9 133.3 207.8 133.2 209.3 133.4 C 209.9 133.0 210.9 133.1 212.1 133.0 C 211.3 132.7 213.5 132.8 214.2 132.5 C 213.3 132.6 212.5 132.6 212.0 132.6 C 215.5 132.2 215.4 132.3 218.2 131.5 C 218.2 131.6 218.6 131.6 218.9 131.6 C 218.0 131.9 215.5 132.1 215.5 132.3 C 217.5 132.4 218.1 131.8 220.4 131.8 C 221.3 131.5 218.5 131.8 220.3 131.5 C 221.2 131.5 222.4 131.5 223.8 131.4 C 225.2 131.1 225.9 130.9 227.1 130.6 C 227.3 130.7 227.4 130.7 228.5 130.5 C 228.4 130.4 227.3 130.5 228.5 130.3 C 232.1 130.0 234.5 129.8 237.9 128.9 C 236.7 129.1 233.8 129.4 235.2 129.1 C 236.8 129.0 238.8 128.2 240.5 128.1 C 241.0 128.1 238.5 128.4 239.2 128.7 C 240.7 128.4 241.7 128.2 242.5 128.1 C 242.4 127.9 244.2 127.6 243.7 127.5 C 242.5 127.7 242.1 128.1 241.8 128.1 C 242.7 127.2 246.6 127.2 249.0 126.7 C 250.5 126.2 247.7 126.7 249.5 126.2 C 250.6 125.8 251.4 126.2 249.6 126.7 C 248.4 126.9 248.0 127.3 247.7 127.1 C 247.2 127.3 246.4 127.4 246.5 127.5 C 247.3 127.3 247.2 127.5 247.8 127.5 C 246.5 127.7 246.4 128.2 245.2 128.2 C 246.0 128.0 246.2 127.9 246.5 127.8 C 243.1 128.6 241.9 128.7 239.9 129.0 C 241.1 128.9 239.9 129.1 240.0 129.3 C 241.5 128.9 244.4 128.4 242.7 128.9 C 241.4 128.8 240.6 129.8 239.4 129.7 C 240.3 129.5 240.2 129.4 240.7 129.2 C 239.3 129.5 239.3 129.3 238.0 129.5 C 233.7 130.8 230.3 130.8 223.3 132.4 C 220.8 132.8 225.5 132.0 225.3 131.8 C 224.5 131.9 224.4 131.9 223.9 131.9 C 223.8 132.2 222.6 132.1 221.8 132.5 C 221.9 132.2 218.6 133.0 217.0 133.0 C 216.9 133.1 217.1 133.2 216.3 133.3 C 211.2 133.6 201.9 135.1 198.0 135.1 C 198.2 135.3 196.4 135.4 196.0 135.6 C 193.5 135.7 194.6 135.5 191.0 136.0 C 189.1 136.1 191.3 135.8 191.6 135.7 C 186.2 136.2 181.4 136.1 178.0 136.5 C 176.2 136.7 178.0 136.3 174.4 136.4 C 174.3 136.7 168.7 136.3 167.9 136.7 C 165.8 136.8 161.8 136.3 163.6 136.6 C 160.6 136.6 162.6 136.3 161.4 136.3 C 159.3 136.3 162.0 136.9 160.0 136.9 C 160.2 136.7 158.4 136.7 157.1 136.5 C 158.7 136.5 159.8 136.5 160.0 136.4 C 158.6 136.5 158.6 136.3 156.4 136.3 C 154.7 136.4 149.8 136.5 148.5 136.0 C 148.4 136.2 148.8 136.2 149.2 136.3 C 147.7 136.3 146.1 135.9 146.3 136.3 C 143.1 136.1 141.7 135.8 139.8 135.9 C 138.4 135.9 140.3 135.7 136.2 135.4 C 136.2 135.6 128.9 135.0 127.0 134.6 C 126.9 135.0 126.6 134.6 125.7 134.5 C 125.5 134.6 125.7 134.7 124.9 134.7 C 124.8 134.5 124.1 134.5 123.5 134.5 C 124.0 134.2 120.9 134.3 120.7 134.0 C 121.3 134.1 121.4 133.9 120.8 133.8 C 120.5 134.1 117.6 133.3 118.0 133.5 C 118.6 133.7 120.5 133.9 120.0 134.0 C 117.2 133.8 118.4 133.6 116.5 133.4 C 116.7 133.5 117.7 133.7 116.5 133.6 C 114.6 133.3 116.4 133.5 115.2 133.2 C 114.2 133.1 112.3 133.0 111.6 132.9 C 111.8 133.0 111.3 132.7 111.0 132.7 C 107.4 132.1 99.5 131.0 96.1 130.0 C 95.9 130.1 95.1 130.0 95.4 130.2 C 93.4 129.7 93.5 129.8 91.5 129.3 C 91.4 129.4 91.4 129.5 91.4 129.6 C 88.7 129.2 91.2 129.2 89.5 128.8 C 89.2 129.3 88.5 128.5 86.9 128.1 C 86.7 128.2 85.9 128.1 86.1 128.3 C 83.7 127.7 83.9 127.4 81.7 127.0 C 82.2 127.1 82.4 128.0 82.1 128.1 C 81.8 127.9 81.1 127.7 80.2 127.4 C 81.4 127.5 81.0 126.4 77.9 125.9 C 79.6 126.3 80.2 126.5 79.8 126.7 C 77.5 126.1 76.7 125.7 74.8 125.2 C 74.4 125.3 75.8 125.7 75.2 125.9 C 74.7 125.8 74.5 125.7 74.6 125.9 C 72.5 125.3 72.5 125.1 70.2 124.6 C 70.3 124.4 70.8 124.5 71.5 124.8 C 71.5 124.6 71.5 124.4 72.8 124.8 C 73.0 125.0 72.1 125.0 74.0 125.5 C 74.1 125.3 74.1 125.2 74.1 125.1 C 72.7 124.7 69.6 123.6 69.2 123.6 C 69.9 123.9 70.9 124.2 70.3 124.3 C 68.0 123.6 67.4 123.1 65.6 122.4 C 62.3 121.4 56.7 119.4 57.3 120.0 C 55.4 119.2 56.1 119.4 54.4 118.7 C 54.8 119.2 52.5 118.1 52.6 118.4 C 54.7 119.1 54.0 118.9 56.1 119.6 C 56.0 119.7 55.6 119.7 54.8 119.5 C 54.7 119.3 53.9 118.9 52.6 118.4 C 52.8 118.6 53.9 119.3 52.5 118.7 C 52.4 118.6 52.1 118.5 51.4 118.2 C 51.5 118.1 51.5 118.0 51.6 117.9 C 52.3 118.1 53.3 118.4 53.9 118.5 C 53.3 118.3 53.3 118.2 52.8 118.0 C 52.6 118.0 52.3 117.9 51.2 117.5 C 50.2 117.0 49.2 116.6 49.0 116.6 C 50.5 117.3 51.5 117.8 49.8 117.2 C 49.6 117.0 47.2 115.9 46.3 115.6 C 49.3 117.1 48.1 116.6 49.7 117.5 C 46.0 116.1 46.6 116.0 42.7 114.3 C 42.7 114.1 42.8 113.9 43.8 114.3 C 41.5 112.7 35.9 110.3 34.3 109.3 C 35.4 110.0 36.9 110.4 35.1 109.4 C 35.1 109.5 33.8 108.8 33.5 108.7 C 32.7 108.8 34.1 109.9 35.3 110.8 C 33.9 110.0 33.6 110.0 32.3 109.2 C 32.0 108.8 33.5 109.3 31.9 108.3 C 31.3 108.4 28.9 106.6 28.2 106.4 C 29.3 107.1 30.0 107.7 28.8 107.0 C 29.1 107.0 26.9 105.6 26.9 105.5 C 28.7 106.5 29.3 106.7 30.4 107.4 C 29.0 106.5 31.6 107.9 29.2 106.3 C 28.1 105.8 27.4 105.7 25.0 104.0 C 24.2 103.4 25.1 103.7 24.0 102.9 C 24.1 103.3 21.6 101.5 23.3 102.5 C 22.4 101.8 22.0 101.5 21.6 101.1 C 22.6 102.1 17.1 98.0 17.7 98.8 C 18.0 98.6 17.9 98.1 17.7 97.8 C 16.5 97.2 15.5 96.0 13.3 93.6 C 13.1 93.9 12.9 93.2 12.0 92.2 C 11.7 92.1 12.4 93.0 11.8 92.3 C 10.9 91.1 10.9 91.0 10.8 90.7 C 10.1 89.8 9.6 89.1 9.3 88.6 C 9.2 88.7 9.4 89.0 9.5 89.3 C 7.3 85.7 6.1 84.1 4.9 81.0 C 5.3 82.4 5.8 82.5 5.3 81.5 C 5.0 80.9 4.8 80.3 4.5 80.0 C 4.6 80.8 4.6 80.4 4.1 78.9 C 3.5 77.6 3.9 79.6 3.5 78.5 C 3.3 77.3 3.6 78.0 3.5 77.3 C 3.4 76.8 3.2 76.2 3.1 75.7 C 3.2 76.7 2.9 75.7 2.6 74.7 C 3.0 75.3 2.9 74.9 2.6 73.0 C 2.7 72.8 2.9 73.8 2.8 73.0 C 2.8 72.6 2.3 71.1 2.5 69.8 C 2.6 70.2 2.6 70.4 2.7 70.3 C 2.5 68.9 2.9 67.8 3.1 66.5 C 2.7 67.8 2.6 67.1 2.4 67.6 C 2.7 66.3 2.7 64.8 3.1 63.8 C 2.7 65.6 3.6 64.0 3.8 62.8 C 3.6 62.5 3.3 64.5 3.1 63.8 C 3.1 63.2 3.7 61.8 3.7 61.1 C 3.5 61.2 3.5 62.0 3.3 62.2 C 3.6 61.2 3.1 62.4 3.3 61.6 C 3.7 61.1 3.5 60.5 3.7 59.9 C 4.0 59.3 4.8 58.0 4.9 57.4 C 4.8 57.3 4.5 58.3 4.4 58.4 C 5.3 55.4 6.1 54.7 7.4 52.0 C 7.7 51.8 8.0 51.3 8.6 50.6 C 8.4 50.6 8.7 50.1 9.1 49.5 C 9.9 48.5 10.9 47.5 12.1 46.2 C 12.0 46.6 11.5 47.2 13.1 45.4 C 13.2 45.3 12.5 46.0 13.0 45.3 C 13.1 45.4 13.5 45.0 13.5 44.8 C 13.5 44.8 13.4 44.7 13.4 44.7 C 12.9 45.2 12.5 45.7 12.1 46.2 C 12.0 46.0 11.8 46.1 11.4 46.5 C 13.2 44.2 13.4 44.7 14.6 43.2 C 15.1 43.2 15.6 42.8 14.7 44.2 C 15.8 42.9 16.6 42.0 16.8 41.5 C 15.3 43.0 15.6 42.3 15.1 42.6 C 16.0 41.7 16.0 41.6 16.4 41.1 C 17.7 40.2 15.5 42.5 17.8 40.5 C 15.9 41.8 19.1 39.0 20.4 38.0 C 20.1 38.1 19.7 38.5 20.3 37.9 C 23.6 35.0 23.9 35.9 25.9 34.0 C 25.8 34.3 26.9 33.5 27.4 33.3 C 25.5 34.6 25.0 35.0 24.3 35.6 C 24.5 35.6 25.0 35.2 25.6 34.9 C 25.5 34.8 26.0 34.4 26.9 33.9 C 27.4 33.4 27.0 33.2 28.5 32.0 C 28.6 32.0 28.5 32.3 29.3 31.8 C 30.0 31.1 28.8 32.5 32.3 30.3 C 31.6 30.6 31.2 30.7 31.4 30.4 C 33.1 29.3 32.7 29.6 35.1 28.2 C 36.2 28.1 33.7 29.5 33.2 30.1 C 34.7 29.2 35.9 28.2 37.7 27.5 C 36.3 28.0 37.5 27.2 39.1 26.3 C 40.5 25.6 39.1 26.7 40.9 25.9 C 42.2 25.1 42.9 24.6 41.5 25.1 C 44.7 23.7 43.8 23.8 46.6 22.6 C 46.7 22.7 46.0 23.1 44.9 23.4 C 45.1 23.5 44.8 23.7 45.8 23.3 C 46.7 22.8 48.1 22.1 49.7 21.4 C 51.2 20.7 52.1 20.3 52.8 20.0 C 55.4 19.4 58.2 17.8 60.9 17.1 C 59.9 17.7 64.4 15.9 65.8 15.8 C 66.6 15.5 69.0 14.2 68.1 14.7 C 68.4 14.9 70.0 14.3 71.3 14.0 C 71.2 14.0 71.2 13.9 71.2 13.8 C 74.0 13.0 74.6 13.0 75.6 13.0 C 79.0 11.9 82.9 11.3 87.1 10.1 C 88.3 10.1 89.2 9.8 91.8 9.5 C 91.7 9.2 93.8 8.8 95.7 8.4 C 95.2 8.3 97.0 8.0 97.0 7.9 C 95.2 8.2 95.8 7.8 94.9 7.9 C 97.3 7.7 98.4 7.0 100.3 6.9 C 98.0 7.4 97.3 7.9 97.1 8.3 C 99.8 7.7 101.3 7.5 101.8 7.6 C 102.0 7.4 101.7 7.4 101.1 7.4 C 102.0 7.2 102.9 7.1 103.8 6.9 C 104.1 7.0 102.8 7.3 103.8 7.2 C 104.5 7.0 105.2 6.8 105.8 6.6 C 106.7 6.7 104.8 7.0 104.5 7.1 C 108.2 6.6 106.5 6.4 108.5 6.0 C 109.1 6.1 109.0 6.4 110.7 6.2 C 111.3 5.9 111.5 5.7 113.4 5.4 C 114.6 5.3 113.4 5.8 114.8 5.6 C 115.0 5.5 115.6 5.4 116.2 5.4 C 116.1 5.3 116.7 5.1 117.5 5.0 C 117.8 5.1 119.1 4.9 119.6 4.7 C 119.8 4.9 122.0 4.9 122.5 4.7 C 122.5 4.6 121.2 4.7 121.1 4.7 C 122.7 4.5 123.8 4.3 124.6 4.2 C 125.1 4.7 127.7 4.0 130.9 4.0 C 132.9 3.6 130.5 3.6 133.0 3.2 C 134.6 3.3 132.7 3.5 133.1 3.7 C 133.5 3.7 135.9 3.7 135.9 3.5 C 135.9 3.4 134.7 3.5 134.5 3.4 C 136.4 3.1 136.3 3.4 137.4 3.4 C 137.2 3.2 138.5 3.1 138.7 2.9 C 143.9 2.4 143.9 2.9 146.0 3.0 C 146.0 2.9 147.2 2.8 147.4 2.7 C 145.9 2.9 143.9 2.8 145.9 2.6 C 145.6 2.8 148.6 2.5 148.8 2.4 C 148.5 2.3 146.6 2.5 147.3 2.2 C 150.1 2.0 149.0 2.5 151.0 2.2 C 151.2 2.3 150.0 2.4 149.5 2.5 C 150.4 2.5 151.6 2.4 151.7 2.5 C 150.6 2.6 150.7 2.8 150.2 2.9 C 151.6 2.7 154.2 2.8 152.4 2.5 C 155.3 2.5 158.0 2.3 156.0 2.1 C 158.4 2.0 157.0 2.4 158.9 2.1 C 158.7 2.4 158.1 2.6 159.6 2.8 C 159.9 2.6 161.2 2.6 161.1 2.4 C 164.5 2.3 165.5 2.6 166.9 2.8 C 165.6 2.4 167.3 2.8 169.0 2.5 C 170.1 2.6 169.1 2.9 171.9 2.9 C 168.9 2.5 175.4 2.9 174.1 2.4 C 177.6 2.7 177.6 2.7 181.3 2.9 C 180.9 3.1 180.0 3.1 178.4 3.1 C 179.5 2.9 175.3 2.8 175.5 3.0 C 175.5 3.0 175.5 3.1 175.5 3.1 C 178.3 3.1 180.1 3.3 181.3 3.5 C 181.8 3.3 183.1 3.3 182.7 3.0 C 185.3 3.4 188.0 3.1 189.2 3.5 C 188.3 3.4 187.4 3.4 187.7 3.5 C 188.8 3.5 190.0 3.6 189.9 3.3 C 187.8 3.1 187.4 3.1 186.3 3.2 C 187.2 3.1 184.2 2.8 186.3 2.8 C 186.3 3.2 190.6 2.9 189.2 3.1 C 186.9 3.1 191.8 3.4 192.0 3.6 C 192.0 3.6 192.0 3.6 192.0 3.6 Z M 238.6 129.4 C 240.6 128.9 238.1 129.2 236.6 129.5 C 237.1 129.5 237.3 129.5 237.3 129.7 C 237.9 129.5 238.5 129.3 238.6 129.4 C 238.6 129.4 238.6 129.4 238.6 129.4 Z M 216.5 129.6 C 215.9 130.0 219.2 129.3 220.6 129.2 C 220.2 129.2 219.8 129.2 220.6 129.0 C 219.1 129.0 218.7 129.5 216.5 129.6 C 216.5 129.6 216.5 129.6 216.5 129.6 Z M 137.9 133.0 C 138.4 133.0 139.8 133.0 140.0 133.1 C 140.8 133.1 140.6 133.0 140.7 132.9 C 142.4 133.0 140.3 133.3 142.9 133.3 C 143.9 132.9 138.5 132.4 137.9 133.0 C 137.9 133.0 137.9 133.0 137.9 133.0 Z M 164.6 6.3 C 165.7 6.5 163.3 6.7 163.9 6.9 C 167.9 6.7 164.9 6.4 170.4 6.5 C 170.0 6.4 169.6 6.4 169.7 6.3 C 167.1 6.4 166.9 6.5 167.5 6.1 C 166.3 6.1 166.0 6.6 164.6 6.3 C 164.6 6.3 164.6 6.3 164.6 6.3 Z M 215.3 10.6 C 214.9 10.5 214.6 10.4 214.6 10.3 C 213.0 10.2 213.3 10.3 211.2 9.9 C 211.4 10.3 213.5 10.5 215.3 10.6 C 215.3 10.6 215.3 10.6 215.3 10.6 Z M 321.2 64.3 C 321.3 64.6 321.4 64.9 321.4 65.2 C 321.5 64.9 322.0 65.7 321.6 64.2 C 321.5 64.1 321.6 64.4 321.6 64.6 C 321.5 64.4 321.3 63.7 321.2 63.8 C 321.3 64.2 321.3 64.3 321.2 64.3 C 321.2 64.3 321.2 64.3 321.2 64.3 Z M 303.5 100.7 C 305.7 98.8 299.6 102.4 303.5 100.7 C 303.5 100.7 303.5 100.7 303.5 100.7 C 303.5 100.7 303.5 100.7 303.5 100.7 Z M 309.9 99.3 C 310.0 99.3 310.4 98.9 310.4 98.9 C 312.2 97.4 310.6 99.0 311.6 98.2 C 312.9 96.8 310.7 98.5 312.3 96.8 C 311.9 97.1 310.9 98.4 309.9 99.3 C 309.9 99.3 309.9 99.3 309.9 99.3 Z M 23.5 35.9 C 21.8 37.2 21.6 37.7 21.4 38.2 C 22.5 37.3 23.5 36.7 23.9 36.5 C 26.0 34.8 22.4 37.4 22.0 37.6 C 22.1 37.3 23.6 36.1 23.5 35.9 C 23.5 35.9 23.5 35.9 23.5 35.9 Z M 18.4 40.1 C 17.8 40.7 17.0 41.6 17.1 41.8 C 17.9 40.9 18.1 40.9 18.2 41.0 C 19.0 40.1 17.8 40.9 18.4 40.1 C 18.4 40.1 18.4 40.1 18.4 40.1 Z M 28.8 32.6 C 28.0 33.2 28.4 33.1 28.3 33.3 C 29.6 32.5 29.8 32.5 31.1 31.7 C 31.1 31.6 31.1 31.5 31.0 31.5 C 29.9 32.1 29.9 32.2 29.0 32.8 C 28.9 32.8 28.9 32.7 28.8 32.6 C 28.8 32.6 28.8 32.6 28.8 32.6 Z M 14.2 44.6 C 11.8 47.1 11.2 48.5 10.3 50.4 C 11.6 48.5 12.6 46.5 13.9 45.3 C 15.3 43.7 13.3 45.7 13.3 45.6 C 13.3 45.5 13.8 44.9 14.2 44.6 C 14.2 44.6 14.2 44.6 14.2 44.6 Z M 3.0 68.2 C 2.8 68.7 3.2 69.8 3.2 71.4 C 3.3 71.1 3.3 70.8 3.4 70.8 C 3.4 68.5 3.0 69.9 3.0 68.2 C 3.0 68.2 3.0 68.2 3.0 68.2 Z M 5.7 81.3 C 6.3 82.7 5.5 80.6 6.0 81.2 C 5.3 79.7 4.8 78.1 4.6 78.2 C 5.3 79.8 5.4 80.1 5.7 81.3 C 5.7 81.3 5.7 81.3 5.7 81.3 Z M 11.1 90.4 C 12.4 91.8 10.9 89.6 11.6 90.0 C 11.1 89.5 11.1 89.7 11.0 89.7 C 10.7 89.3 10.5 88.9 10.0 88.2 C 10.2 88.8 11.5 90.4 11.1 90.4 C 11.1 90.4 11.1 90.4 11.1 90.4 Z M 73.3 14.3 C 72.2 14.7 72.6 14.8 70.3 15.4 C 73.8 14.4 72.0 15.6 76.6 14.3 C 75.9 14.4 76.3 14.1 76.6 14.2 C 78.3 13.6 74.9 14.5 76.5 13.8 C 75.2 14.2 76.0 14.2 74.8 14.6 C 73.4 14.8 72.5 14.9 73.3 14.3 C 73.3 14.3 73.3 14.3 73.3 14.3 Z M 76.7 14.5 C 78.0 14.2 77.9 13.8 78.5 13.9 C 79.1 13.7 79.0 13.6 79.1 13.5 C 78.6 13.7 78.5 13.7 78.5 13.6 C 77.4 14.0 76.3 14.3 76.7 14.5 C 76.7 14.5 76.7 14.5 76.7 14.5 Z M 65.1 17.9 C 67.1 17.2 67.7 17.1 68.7 16.6 C 69.5 16.8 70.0 16.1 71.1 16.1 C 73.1 15.4 71.6 15.7 71.1 15.8 C 73.0 15.1 71.6 15.9 73.6 15.2 C 73.8 14.8 71.3 15.6 71.6 15.3 C 70.1 15.7 70.1 15.9 69.2 16.2 C 68.5 16.4 68.7 16.2 68.5 16.2 C 66.8 16.8 66.9 16.6 65.5 17.0 C 65.2 17.3 65.8 17.2 67.4 16.7 C 65.8 17.3 65.2 17.7 63.3 18.2 C 64.5 17.5 58.6 19.4 59.2 19.7 C 60.8 19.2 60.3 19.1 60.9 18.8 C 63.0 18.3 64.3 17.9 65.1 17.9 C 65.1 17.9 65.1 17.9 65.1 17.9 Z M 30.0 32.8 C 29.4 33.2 28.8 33.5 27.9 34.1 C 27.7 33.9 28.9 33.2 27.7 33.8 C 26.3 34.7 26.1 35.0 25.2 35.6 C 25.8 35.4 28.8 33.6 27.3 34.7 C 27.9 34.5 28.8 33.9 30.1 33.2 C 28.5 33.8 32.2 31.8 33.7 31.0 C 33.3 30.8 36.3 29.6 37.3 28.8 C 36.3 29.1 33.4 31.0 32.1 31.7 C 32.7 31.3 28.4 33.4 30.0 32.8 C 30.0 32.8 30.0 32.8 30.0 32.8 Z M 81.7 13.1 C 82.0 12.9 83.4 12.5 82.3 12.7 C 82.9 12.5 84.1 12.4 83.5 12.1 C 84.2 12.0 84.8 11.8 85.4 11.7 C 85.2 11.8 83.4 12.2 84.2 12.3 C 85.5 11.8 85.0 12.1 86.8 11.7 C 85.9 12.1 86.9 11.9 86.3 12.4 C 86.7 12.1 88.3 11.8 88.1 11.6 C 90.6 11.1 87.5 12.1 90.8 11.4 C 90.8 11.6 88.4 12.1 87.6 12.2 C 87.2 12.5 91.7 11.4 94.1 10.9 C 91.9 11.2 93.6 10.6 94.6 10.2 C 95.4 10.1 94.7 10.4 96.0 10.2 C 97.2 10.0 97.7 9.8 98.1 9.9 C 99.0 9.7 98.5 9.6 98.6 9.4 C 100.2 9.2 99.1 9.7 101.4 9.3 C 99.6 9.2 101.6 8.8 104.7 8.4 C 104.5 8.3 103.5 8.4 103.3 8.4 C 103.8 8.1 105.6 8.1 106.1 8.1 C 107.2 7.9 106.4 7.9 105.4 8.1 C 106.0 7.9 106.7 7.7 107.4 7.5 C 104.0 8.0 98.7 9.0 92.6 9.9 C 93.8 9.8 92.4 10.1 90.6 10.4 C 90.3 10.4 91.1 10.2 91.9 10.0 C 89.7 10.1 90.0 10.7 86.7 11.3 C 85.0 11.6 88.7 10.7 86.7 11.0 C 85.5 11.3 84.7 11.7 84.1 11.6 C 82.0 12.2 81.5 12.6 78.4 13.4 C 80.2 13.1 81.2 13.4 83.0 12.8 C 83.0 12.7 82.2 13.0 81.7 13.1 C 81.7 13.1 81.7 13.1 81.7 13.1 Z M 18.3 41.1 C 17.4 41.9 17.1 42.4 16.8 42.5 C 15.4 44.0 17.2 42.5 17.5 42.3 C 18.2 41.6 18.3 41.3 18.3 41.1 C 18.3 41.1 18.3 41.1 18.3 41.1 Z M 147.0 135.6 C 149.7 135.8 149.2 135.4 151.4 135.5 C 149.6 135.4 149.2 135.1 146.3 135.1 C 146.2 135.3 146.2 135.4 147.0 135.6 C 147.0 135.6 147.0 135.6 147.0 135.6 Z M 24.0 36.7 C 25.4 35.4 22.5 38.2 22.4 38.0 C 20.8 39.5 24.0 37.0 22.6 38.4 C 23.9 37.2 24.9 36.7 26.8 35.2 C 26.6 35.1 25.0 36.2 23.6 37.3 C 23.3 37.3 24.1 36.8 24.0 36.7 C 24.0 36.7 24.0 36.7 24.0 36.7 Z M 119.4 132.7 C 117.6 132.6 121.1 133.3 122.2 133.6 C 122.3 133.2 121.7 133.2 119.4 132.7 C 119.4 132.7 119.4 132.7 119.4 132.7 Z M 165.7 135.6 C 166.8 135.3 162.5 135.6 163.6 135.3 C 162.3 135.2 162.2 135.3 162.1 135.4 C 161.5 135.3 159.4 135.4 160.0 135.2 C 159.6 135.0 163.2 135.2 162.1 134.9 C 163.3 134.9 163.4 135.0 164.3 135.0 C 162.2 135.0 163.2 135.3 165.7 135.3 C 165.7 135.1 164.6 135.2 165.7 135.0 C 165.9 135.1 167.2 135.3 167.2 135.7 C 169.4 135.6 168.1 135.2 170.7 135.2 C 170.5 135.1 168.8 135.1 167.9 135.0 C 168.1 134.8 170.7 135.2 170.0 134.8 C 170.6 135.0 172.1 135.1 172.2 135.4 C 170.2 135.5 168.8 135.7 167.2 135.8 C 168.7 136.0 170.9 135.4 173.6 135.6 C 173.3 135.4 174.9 135.4 174.4 135.2 C 176.5 135.2 175.5 135.5 175.1 135.5 C 175.7 135.7 179.7 135.4 179.4 135.3 C 179.7 135.4 184.6 135.2 184.4 134.9 C 185.9 135.0 188.1 134.5 188.7 134.8 C 189.5 134.7 191.2 134.6 193.0 134.5 C 193.5 134.1 190.4 134.5 190.2 134.3 C 189.6 134.1 193.5 134.2 193.0 134.0 C 193.0 133.9 193.0 133.9 193.0 133.8 C 191.5 134.0 190.1 134.2 188.7 134.3 C 187.6 134.4 189.0 134.2 188.7 134.1 C 187.7 134.3 183.1 134.8 183.0 134.4 C 179.9 134.7 177.7 134.6 176.5 134.9 C 174.7 134.9 177.5 134.7 176.5 134.5 C 171.1 135.0 164.5 134.7 160.0 135.0 C 159.0 135.0 159.4 134.8 159.2 134.7 C 153.1 134.7 158.3 135.2 153.5 134.9 C 153.5 134.7 155.8 134.8 155.7 134.6 C 154.0 134.6 153.6 134.7 151.3 134.5 C 151.3 134.7 151.3 134.8 151.3 134.9 C 149.5 134.8 150.2 134.5 149.2 134.4 C 146.9 134.4 147.5 134.5 146.4 134.2 C 144.2 134.2 142.1 134.2 139.9 133.9 C 138.4 134.0 141.2 134.5 143.5 134.7 C 143.3 134.7 142.7 134.7 142.7 134.8 C 140.1 134.4 139.7 134.0 135.7 133.6 C 138.7 134.1 134.1 133.6 133.5 133.4 C 131.9 133.2 133.1 133.7 134.2 133.7 C 134.0 133.8 133.0 133.6 132.8 133.5 C 132.6 133.9 136.5 134.4 140.6 134.5 C 138.7 134.8 143.5 134.6 141.3 135.0 C 144.6 135.1 141.8 134.7 145.6 134.9 C 145.2 134.8 144.5 134.7 144.2 134.6 C 147.0 134.7 146.2 135.0 149.2 135.0 C 149.7 134.8 147.7 134.8 147.8 134.6 C 151.0 135.0 152.1 135.1 154.2 135.4 C 154.7 135.3 154.1 135.1 157.8 135.3 C 157.8 135.3 157.8 135.4 157.8 135.4 C 156.1 135.4 155.6 135.8 160.0 135.9 C 160.3 135.7 158.9 135.7 157.8 135.7 C 158.3 135.5 159.7 135.5 161.4 135.5 C 162.2 135.5 163.2 135.6 162.1 135.7 C 162.8 135.9 163.4 135.5 165.7 135.6 C 165.7 135.6 165.7 135.6 165.7 135.6 Z M 3.8 65.6 C 3.8 66.0 3.8 66.4 3.7 67.2 C 3.9 67.5 4.0 66.1 4.1 66.1 C 4.3 65.0 3.9 65.8 3.8 65.6 C 3.8 65.6 3.8 65.6 3.8 65.6 Z M 9.6 51.4 C 9.4 51.4 9.1 52.2 8.4 53.4 C 8.3 53.8 9.1 52.4 9.2 52.5 C 10.1 51.2 8.7 52.6 9.6 51.4 C 9.6 51.4 9.6 51.4 9.6 51.4 Z M 6.3 57.4 C 5.8 57.8 6.2 58.0 6.6 56.9 C 6.7 57.0 6.7 57.3 6.5 58.0 C 7.0 57.4 6.8 56.7 7.5 55.5 C 7.2 55.9 6.8 56.5 6.3 57.4 C 6.3 57.4 6.3 57.4 6.3 57.4 Z M 5.5 59.4 C 5.4 60.2 5.0 60.6 4.8 62.0 C 5.0 61.7 5.9 58.9 6.0 58.4 C 6.0 57.9 4.8 60.9 5.5 59.4 C 5.5 59.4 5.5 59.4 5.5 59.4 Z M 92.4 128.0 C 93.0 128.1 92.9 128.0 93.1 128.0 C 95.0 128.7 97.9 129.2 95.6 129.1 C 97.8 129.3 99.7 130.0 101.5 130.4 C 103.1 130.7 102.4 130.3 103.6 130.5 C 105.6 130.9 102.6 130.4 102.9 130.6 C 103.3 130.9 103.9 130.6 106.3 131.1 C 105.7 130.6 108.4 131.4 107.7 130.9 C 109.0 131.3 109.4 131.2 111.2 131.4 C 111.0 131.2 109.3 131.0 109.1 130.8 C 108.3 130.4 108.2 130.9 109.8 131.1 C 108.8 131.2 106.5 130.4 105.7 130.5 C 104.9 130.1 107.9 130.8 107.1 130.4 C 106.5 130.3 105.9 130.3 105.8 130.4 C 104.8 130.1 104.1 130.0 103.7 129.8 C 104.3 129.9 104.4 129.9 104.4 130.0 C 105.6 130.2 103.2 129.4 105.8 129.8 C 105.4 129.6 104.3 129.5 104.5 129.3 C 103.7 129.1 104.4 130.0 101.7 129.3 C 99.9 129.2 105.9 130.2 104.3 130.4 C 100.6 129.8 102.7 129.8 99.7 129.2 C 99.7 129.3 99.8 129.4 99.0 129.3 C 99.1 129.4 100.2 129.6 101.0 129.7 C 100.8 129.8 99.7 129.6 98.9 129.4 C 99.1 129.5 99.7 129.6 99.6 129.7 C 97.1 129.2 97.5 128.7 99.8 129.0 C 99.7 128.8 96.6 128.2 95.8 128.2 C 96.6 128.5 95.7 128.3 96.3 128.7 C 97.0 128.8 96.9 128.7 97.1 128.7 C 98.2 128.9 97.1 128.8 97.0 128.9 C 95.7 128.6 95.8 128.4 94.4 128.3 C 94.7 128.3 95.1 128.3 95.1 128.2 C 94.4 128.1 93.7 127.9 93.1 127.8 C 93.1 128.0 92.3 127.8 92.4 128.0 C 92.4 128.0 92.4 128.0 92.4 128.0 Z M 127.8 133.9 C 130.1 134.2 128.9 133.8 127.8 133.7 C 128.3 133.7 129.1 133.7 130.0 133.8 C 129.3 133.6 128.7 133.6 126.5 133.4 C 128.4 133.2 126.5 132.6 123.0 132.3 C 121.9 132.6 124.8 133.0 123.7 133.2 C 126.2 133.3 127.6 133.6 127.8 133.9 C 127.8 133.9 127.8 133.9 127.8 133.9 Z M 17.6 42.3 C 16.6 43.2 15.6 44.2 14.7 45.1 C 15.0 45.2 18.1 42.4 17.6 42.3 C 17.6 42.3 17.6 42.3 17.6 42.3 Z M 110.1 7.4 C 110.7 7.3 110.8 7.4 110.9 7.4 C 112.9 7.1 109.9 7.4 110.8 7.0 C 110.1 7.1 109.4 7.2 108.7 7.3 C 108.6 7.5 111.6 7.1 109.4 7.5 C 109.6 7.6 110.1 7.5 110.1 7.4 C 110.1 7.4 110.1 7.4 110.1 7.4 Z M 4.3 64.6 C 4.2 65.5 4.6 65.0 4.3 67.2 C 4.5 66.4 4.5 65.9 4.7 64.6 C 4.5 64.6 4.4 64.6 4.3 64.6 C 4.3 64.6 4.3 64.6 4.3 64.6 Z M 82.6 126.2 C 84.1 126.8 84.7 126.4 87.8 127.2 C 86.2 126.6 84.4 126.6 82.6 126.2 C 82.6 126.2 82.6 126.2 82.6 126.2 Z M 198.7 133.6 C 197.6 133.6 198.9 133.5 197.2 133.5 C 196.2 133.7 195.8 133.8 194.4 134.0 C 196.4 134.1 200.0 133.5 201.4 133.8 C 203.2 133.6 203.0 133.3 203.5 133.1 C 202.7 133.2 202.3 133.2 202.1 133.1 C 201.2 133.6 199.9 133.1 198.7 133.6 C 198.7 133.6 198.7 133.6 198.7 133.6 Z M 118.8 132.5 C 117.5 132.2 119.7 132.4 120.2 132.3 C 121.1 132.4 120.8 132.6 120.9 132.7 C 122.1 132.8 122.5 132.7 122.3 132.5 C 120.0 132.2 117.1 131.8 118.9 131.7 C 116.6 131.4 117.8 131.9 116.7 131.8 C 115.5 131.5 116.7 131.5 116.8 131.3 C 116.2 131.3 114.5 131.3 114.7 131.0 C 111.4 130.9 112.8 131.5 115.2 132.2 C 117.5 132.3 114.9 131.8 118.8 132.5 C 118.8 132.5 118.8 132.5 118.8 132.5 Z M 34.2 107.6 C 34.3 107.8 35.7 108.5 35.6 108.6 C 37.3 109.3 38.9 109.8 40.5 110.4 C 40.3 110.0 38.1 109.1 38.9 109.7 C 38.3 109.2 36.9 108.4 36.1 107.8 C 34.6 106.9 33.8 107.1 33.8 106.6 C 32.4 105.9 33.1 106.4 31.0 105.0 C 34.3 107.3 29.7 104.4 29.4 104.5 C 31.3 105.7 33.2 106.8 33.0 106.4 C 34.5 107.4 36.2 108.4 36.5 108.8 C 36.3 108.8 35.0 108.1 34.2 107.6 C 34.2 107.6 34.2 107.6 34.2 107.6 Z M 43.9 111.8 C 43.2 111.5 42.5 111.3 41.4 110.7 C 42.0 111.1 42.2 111.3 42.1 111.4 C 44.2 112.4 44.7 112.5 45.4 113.0 C 47.4 114.0 45.0 112.5 48.1 114.0 C 47.9 113.8 46.3 113.2 46.4 113.1 C 46.1 113.1 44.8 112.6 43.9 111.8 C 43.9 111.8 43.9 111.8 43.9 111.8 Z M 64.3 120.4 C 65.8 120.8 63.5 120.0 64.4 120.0 C 64.0 119.9 61.1 118.9 61.5 118.8 C 60.8 118.2 57.7 117.8 58.1 117.5 C 57.4 117.3 57.6 117.5 57.5 117.6 C 59.5 118.2 59.4 118.4 58.0 117.9 C 58.2 118.1 59.4 118.5 60.2 118.8 C 60.4 118.7 59.6 118.4 59.8 118.3 C 61.5 119.0 62.7 119.7 64.3 120.4 C 64.3 120.4 64.3 120.4 64.3 120.4 Z M 187.6 4.6 C 185.9 4.5 184.9 4.5 184.0 4.5 C 184.5 4.7 185.3 4.6 186.2 4.6 C 186.4 4.8 185.6 4.8 184.7 4.7 C 185.5 5.0 188.5 4.9 187.6 4.6 C 187.6 4.6 187.6 4.6 187.6 4.6 Z M 173.3 4.1 C 171.6 4.0 170.6 4.1 170.4 4.2 C 171.0 4.4 170.8 4.1 171.9 4.1 C 172.5 4.2 172.9 4.3 173.3 4.4 C 174.0 4.4 173.8 4.3 174.0 4.3 C 174.6 4.3 174.7 4.3 174.7 4.4 C 176.7 4.2 172.4 4.3 173.3 4.1 C 173.3 4.1 173.3 4.1 173.3 4.1 Z M 54.6 116.7 C 54.1 116.4 53.8 116.2 52.5 115.6 C 52.7 115.9 51.2 115.3 49.8 114.7 C 51.8 115.8 52.6 116.0 54.6 116.7 C 54.6 116.7 54.6 116.7 54.6 116.7 Z M 86.3 12.5 C 84.3 12.8 84.6 13.1 81.8 13.6 C 81.8 13.7 81.8 13.8 81.9 13.8 C 83.5 13.2 84.3 13.2 86.3 12.5 C 86.3 12.5 86.3 12.5 86.3 12.5 Z M 322.4 82.4 C 322.3 82.2 321.6 83.7 321.4 83.7 C 321.6 84.2 320.7 84.6 318.9 87.5 C 318.7 87.5 318.8 87.2 319.1 86.9 C 317.5 89.1 319.7 86.4 320.1 86.2 C 321.2 84.4 321.5 84.2 322.4 82.4 C 322.4 82.4 322.4 82.4 322.4 82.4 Z M 177.2 134.1 C 177.1 134.2 177.5 134.2 177.9 134.2 C 178.4 134.2 178.9 134.2 179.3 134.1 C 179.2 133.8 176.8 133.8 178.6 133.4 C 178.0 133.4 177.9 133.4 177.9 133.5 C 174.4 134.3 171.7 133.2 167.1 133.7 C 166.4 133.7 166.6 133.8 166.4 133.8 C 167.0 133.8 167.1 133.9 167.1 133.9 C 167.7 133.6 171.8 133.9 170.0 134.0 C 170.2 134.1 170.7 134.1 170.7 134.0 C 171.2 134.0 171.7 134.0 172.2 134.0 C 171.9 133.9 170.9 133.9 170.7 133.8 C 173.0 133.9 175.8 133.9 174.4 134.2 C 175.8 134.1 176.2 134.0 177.2 133.9 C 178.1 133.9 178.1 134.1 177.2 134.1 C 177.2 134.1 177.2 134.1 177.2 134.1 Z M 195.7 133.1 C 197.9 132.9 197.1 132.7 199.3 132.6 C 197.9 132.5 196.2 133.0 194.3 132.9 C 194.6 133.0 195.5 132.9 195.7 133.1 C 195.7 133.1 195.7 133.1 195.7 133.1 Z M 154.3 133.8 C 154.7 133.5 152.8 133.4 150.7 133.3 C 150.2 133.6 152.1 133.7 154.3 133.8 C 154.3 133.8 154.3 133.8 154.3 133.8 Z M 163.6 133.9 C 165.7 133.8 160.9 133.8 162.1 133.6 C 161.1 133.6 160.1 133.6 160.0 133.5 C 159.2 133.5 159.2 133.7 157.9 133.6 C 157.9 133.8 160.2 133.7 160.0 133.9 C 161.6 133.7 161.9 133.7 163.6 133.9 C 163.6 133.9 163.6 133.9 163.6 133.9 Z M 165.0 133.9 C 166.4 133.8 164.6 133.4 162.9 133.4 C 163.5 133.6 163.9 133.8 165.0 133.9 C 165.0 133.9 165.0 133.9 165.0 133.9 Z M 12.3 88.0 C 12.8 88.6 12.6 88.0 13.2 88.8 C 13.3 88.7 11.2 85.9 13.0 88.2 C 12.6 87.2 11.9 87.0 11.2 85.9 C 11.4 86.3 11.5 86.6 11.1 86.0 C 10.7 85.8 12.7 88.2 12.3 88.0 C 12.3 88.0 12.3 88.0 12.3 88.0 Z M 14.6 90.8 C 15.0 91.3 14.9 91.0 14.6 90.7 C 14.8 90.7 15.4 91.5 15.9 92.1 C 15.9 92.2 15.3 90.8 15.5 90.7 C 13.3 88.6 14.7 90.5 14.6 90.8 C 14.6 90.8 14.6 90.8 14.6 90.8 Z M 16.8 92.9 C 18.1 94.6 20.4 96.6 21.7 97.4 C 20.7 96.1 17.7 93.4 16.8 92.9 C 16.8 92.9 16.8 92.9 16.8 92.9 Z M 7.1 77.4 C 7.7 80.4 10.7 85.8 8.6 80.6 C 8.5 80.9 7.1 77.6 6.8 75.9 C 6.7 75.9 6.1 74.1 6.2 74.1 C 5.8 72.8 7.1 78.1 7.1 77.4 C 7.1 77.4 7.1 77.4 7.1 77.4 Z M 24.2 98.8 C 23.2 98.2 24.2 99.4 22.8 98.2 C 22.0 97.6 23.0 98.5 22.7 98.4 C 24.4 99.8 28.5 102.3 28.7 102.7 C 29.7 103.3 30.1 103.4 32.1 104.6 C 32.2 104.6 25.2 100.3 24.1 98.9 C 24.3 98.9 26.5 100.6 24.2 98.8 C 24.2 98.8 24.2 98.8 24.2 98.8 Z M 86.6 13.9 C 86.8 13.7 84.1 14.5 84.6 14.1 C 83.2 14.7 81.8 14.9 80.3 15.5 C 79.8 15.5 79.9 15.1 77.7 15.6 C 77.7 15.9 78.8 15.5 77.8 16.0 C 75.8 16.5 76.3 16.1 74.0 16.8 C 74.5 17.1 69.3 18.3 69.9 18.5 C 71.1 18.1 70.9 18.0 72.9 17.5 C 73.6 17.3 73.3 17.5 74.1 17.3 C 73.6 17.7 72.5 17.6 71.7 18.1 C 72.0 18.2 73.4 17.7 73.7 17.8 C 74.5 17.6 73.4 17.8 73.6 17.6 C 75.9 16.9 73.5 18.2 76.2 17.4 C 75.6 17.3 75.6 17.3 76.0 16.9 C 77.1 16.8 80.3 15.8 78.6 16.5 C 78.8 16.6 80.7 15.9 80.4 15.8 C 81.4 15.5 81.6 15.5 81.7 15.6 C 84.3 14.9 84.7 14.6 84.0 14.5 C 84.5 14.1 85.0 14.4 86.6 13.9 C 86.6 13.9 86.6 13.9 86.6 13.9 Z M 6.9 62.0 C 7.1 60.9 6.6 63.3 6.3 64.4 C 6.6 63.1 6.9 63.6 7.3 62.2 C 7.1 62.6 7.0 62.5 7.3 61.6 C 7.2 61.3 6.6 63.4 6.9 62.0 C 6.9 62.0 6.9 62.0 6.9 62.0 Z M 36.4 107.1 C 37.1 107.7 41.1 109.7 43.4 110.8 C 43.1 110.3 37.7 108.1 37.2 107.4 C 36.0 106.8 37.8 107.9 36.4 107.1 C 36.4 107.1 36.4 107.1 36.4 107.1 Z M 63.2 20.1 C 62.6 20.4 63.0 20.3 63.3 20.2 C 63.1 20.4 61.9 20.8 61.0 21.1 C 62.3 20.8 60.8 21.4 61.1 21.5 C 60.5 21.8 60.1 21.9 60.0 22.0 C 59.8 21.6 56.5 23.5 60.2 22.3 C 59.4 22.3 59.7 22.2 61.2 21.6 C 62.8 21.2 64.1 20.6 64.7 20.7 C 65.8 20.3 66.2 20.0 67.6 19.6 C 68.0 19.6 69.4 19.3 68.4 20.0 C 71.0 19.2 69.1 19.2 71.2 18.5 C 73.3 18.0 70.2 19.0 70.8 19.1 C 71.3 18.9 71.2 19.1 71.4 19.1 C 72.1 18.8 72.1 18.6 71.3 18.8 C 71.5 18.7 73.6 17.9 73.1 18.3 C 74.3 17.9 71.0 18.2 69.4 18.9 C 68.4 19.3 68.3 18.8 69.3 18.5 C 68.8 18.5 67.0 19.6 67.4 19.0 C 66.6 19.2 65.9 19.4 65.1 19.7 C 65.2 19.7 65.6 19.6 65.7 19.7 C 64.9 19.9 64.1 20.2 63.3 20.4 C 64.0 20.1 64.0 20.0 63.2 20.1 C 63.2 20.1 63.2 20.1 63.2 20.1 Z M 27.6 101.6 C 29.1 102.7 29.6 102.8 30.9 103.6 C 30.5 103.1 27.0 100.9 27.6 101.6 C 27.6 101.6 27.6 101.6 27.6 101.6 Z M 97.9 12.3 C 97.6 12.3 96.5 12.5 96.5 12.4 C 98.5 12.0 96.2 12.3 97.7 11.5 C 95.1 12.3 94.3 13.0 97.9 12.5 C 100.4 12.0 95.2 12.9 97.9 12.3 C 97.9 12.3 97.9 12.3 97.9 12.3 Z M 89.9 13.8 C 88.4 14.2 92.4 13.5 93.3 13.4 C 93.3 13.5 93.3 13.6 93.3 13.6 C 95.5 12.8 92.5 13.3 94.4 12.4 C 91.8 12.8 90.7 13.0 88.6 13.6 C 88.7 13.7 89.2 13.5 89.2 13.4 C 90.8 13.1 89.8 13.7 88.0 14.0 C 88.5 14.0 90.1 13.6 91.2 13.4 C 90.9 13.4 90.5 13.4 90.6 13.3 C 91.9 13.0 91.5 13.3 92.5 13.1 C 92.5 13.2 90.0 13.9 89.9 13.8 C 89.9 13.8 89.9 13.8 89.9 13.8 Z M 227.0 10.8 C 225.6 10.6 228.4 11.4 228.2 11.7 C 229.6 12.0 229.9 12.0 230.9 12.1 C 230.4 11.9 228.9 11.6 228.3 11.3 C 228.6 11.1 230.3 11.7 230.9 11.6 C 231.9 11.4 227.5 11.2 227.0 10.8 C 227.0 10.8 227.0 10.8 227.0 10.8 Z M 30.7 35.5 C 30.0 36.0 30.4 35.8 30.7 35.6 C 30.6 35.8 29.5 36.5 29.5 36.4 C 28.5 37.1 30.1 36.2 28.9 37.0 C 28.8 37.3 30.7 35.8 30.8 35.7 C 32.2 34.7 31.2 35.7 31.7 35.6 C 33.0 34.7 32.4 34.8 34.3 33.8 C 33.1 34.3 32.0 34.8 30.7 35.5 C 30.7 35.5 30.7 35.5 30.7 35.5 Z M 102.4 11.0 C 102.6 10.9 100.9 11.7 99.1 11.8 C 96.8 12.2 100.5 11.8 98.5 12.1 C 100.2 11.9 102.3 11.3 105.1 10.8 C 105.7 10.6 101.3 11.4 103.7 10.9 C 103.6 10.8 103.0 11.0 103.0 11.0 C 102.5 11.1 102.4 11.1 102.4 11.0 C 102.4 11.0 102.4 11.0 102.4 11.0 Z M 99.8 12.1 C 99.9 12.1 100.5 12.0 100.5 11.9 C 101.4 11.8 101.4 12.0 100.6 12.2 C 101.7 12.2 101.5 11.7 103.9 11.5 C 102.8 11.5 102.4 11.4 104.5 11.2 C 106.1 10.7 100.5 11.8 99.8 12.1 C 99.8 12.1 99.8 12.1 99.8 12.1 Z M 205.1 8.0 C 205.3 8.1 206.8 8.2 207.9 8.3 C 206.5 8.4 200.9 7.7 200.2 7.5 C 199.6 7.5 199.0 7.5 198.8 7.4 C 198.8 7.4 197.2 7.4 198.0 7.5 C 197.9 7.6 196.7 7.5 196.7 7.6 C 194.5 7.4 197.3 7.5 196.7 7.3 C 194.1 7.3 194.7 7.1 191.7 6.9 C 192.2 7.2 195.5 7.3 195.2 7.6 C 197.6 7.5 200.1 7.9 201.5 8.3 C 199.3 7.8 207.5 8.4 211.3 8.9 C 211.1 9.0 212.5 9.2 214.0 9.5 C 215.1 9.9 214.8 9.3 212.7 9.2 C 212.8 9.0 215.6 9.5 216.8 9.6 C 215.4 9.3 216.2 9.3 215.5 9.1 C 212.8 8.7 215.2 9.1 214.7 9.3 C 214.1 9.2 213.4 9.1 212.6 9.0 C 216.3 9.1 207.4 8.3 210.6 8.7 C 207.8 8.4 207.8 8.1 205.1 8.0 C 205.1 8.0 205.1 8.0 205.1 8.0 Z M 138.3 6.8 C 137.8 6.8 135.6 7.2 135.5 7.0 C 132.6 7.4 135.2 7.4 132.0 7.7 C 132.2 7.7 133.4 7.6 133.4 7.7 C 134.6 7.5 135.9 7.3 135.5 7.1 C 136.9 7.0 137.4 6.9 138.3 6.8 C 138.0 7.0 137.4 7.1 136.2 7.2 C 136.0 7.4 136.5 7.5 138.3 7.3 C 139.2 7.1 138.6 6.9 138.3 6.8 C 138.3 6.8 138.3 6.8 138.3 6.8 Z M 131.3 7.6 C 130.9 7.6 130.5 7.6 130.6 7.5 C 129.5 7.3 130.2 7.8 129.1 7.9 C 128.3 8.0 128.6 7.8 128.4 7.7 C 127.2 7.9 126.3 8.0 125.7 8.0 C 123.8 8.3 127.9 8.0 128.5 8.0 C 129.8 7.9 129.3 7.7 131.3 7.6 C 131.3 7.6 131.3 7.6 131.3 7.6 Z M 110.5 9.8 C 110.1 9.6 109.4 10.1 108.5 10.2 C 109.2 10.3 111.1 9.9 109.9 10.4 C 111.9 10.2 112.0 10.1 114.0 9.8 C 115.3 9.8 114.0 9.6 111.9 10.0 C 112.2 9.9 113.1 9.7 113.2 9.6 C 114.6 9.9 118.0 8.7 116.0 9.3 C 115.3 9.3 114.9 9.3 114.6 9.2 C 114.1 9.5 109.5 10.1 110.5 9.8 C 110.5 9.8 110.5 9.8 110.5 9.8 Z M 46.7 27.5 C 48.4 26.7 49.3 26.3 50.2 26.0 C 51.0 25.6 52.3 25.1 53.4 24.7 C 53.5 24.7 53.4 24.9 52.9 25.0 C 53.5 24.9 54.1 24.6 55.1 24.2 C 55.0 24.1 54.5 24.4 54.5 24.4 C 52.7 24.9 54.2 24.3 54.4 24.0 C 52.2 24.7 49.1 26.5 47.4 26.9 C 46.2 27.5 47.7 26.9 46.7 27.5 C 46.7 27.5 46.7 27.5 46.7 27.5 Z M 321.4 79.6 C 321.4 79.9 321.0 80.7 321.2 80.6 C 321.5 79.9 321.7 79.4 321.9 78.7 C 321.3 80.0 321.1 79.7 320.3 81.3 C 320.7 80.9 320.9 81.1 321.4 79.6 C 321.4 79.6 321.4 79.6 321.4 79.6 Z M 117.3 9.0 C 117.4 9.1 117.5 9.2 116.7 9.3 C 116.5 9.5 118.7 9.1 118.7 9.3 C 119.5 9.2 119.2 9.1 120.1 8.9 C 119.8 8.9 118.0 9.1 118.7 8.8 C 119.3 8.7 119.4 8.7 119.4 8.8 C 120.8 8.5 118.7 8.7 117.3 9.0 C 117.3 9.0 117.3 9.0 117.3 9.0 Z M 233.6 12.2 C 232.7 12.1 233.5 12.3 234.2 12.5 C 232.3 12.4 235.3 13.1 235.4 13.4 C 234.6 13.0 232.0 12.6 231.5 12.5 C 230.7 12.4 231.6 12.8 229.5 12.4 C 229.7 12.7 232.0 12.9 231.5 12.6 C 232.0 13.0 234.3 13.1 234.1 13.4 C 237.0 14.0 237.7 14.0 238.0 13.8 C 235.2 13.3 236.7 13.2 234.2 12.7 C 234.2 12.7 235.0 12.8 235.5 12.9 C 235.3 12.7 234.3 12.4 233.6 12.2 C 233.6 12.2 233.6 12.2 233.6 12.2 Z M 161.1 6.0 C 159.5 6.0 159.6 6.2 159.6 6.4 C 160.3 6.4 161.2 6.3 162.5 6.3 C 162.2 6.2 160.3 6.3 161.1 6.0 C 161.1 6.0 161.1 6.0 161.1 6.0 Z M 222.9 10.7 C 222.7 10.6 222.2 10.5 222.2 10.6 C 220.5 10.3 220.1 10.1 219.5 9.9 C 218.6 9.8 218.9 10.0 218.8 10.1 C 220.4 10.2 220.1 10.4 222.2 10.7 C 222.1 10.6 222.3 10.6 222.9 10.7 C 222.9 10.7 222.9 10.7 222.9 10.7 Z M 176.1 6.3 C 175.2 6.3 175.6 6.4 176.1 6.4 C 175.1 6.6 172.2 6.3 171.1 6.4 C 170.9 6.6 174.5 6.7 170.4 6.7 C 171.1 6.9 174.9 6.8 176.7 6.9 C 176.3 7.1 173.8 7.0 173.9 7.3 C 176.1 7.2 178.5 7.1 178.9 6.8 C 175.7 6.7 176.8 6.5 176.1 6.3 C 176.1 6.3 176.1 6.3 176.1 6.3 Z M 179.6 6.6 C 179.3 6.5 178.7 6.6 177.5 6.5 C 179.3 6.9 180.3 6.8 183.9 7.0 C 183.9 7.0 183.9 6.9 183.9 6.8 C 184.6 6.9 185.4 6.9 186.1 7.0 C 183.0 6.5 182.2 6.7 178.9 6.6 C 178.8 6.6 179.2 6.6 179.6 6.6 C 179.6 6.6 179.6 6.6 179.6 6.6 Z M 86.8 14.6 C 87.7 14.6 88.5 14.5 90.0 14.2 C 89.9 14.1 88.9 14.1 86.8 14.6 C 86.8 14.6 86.8 14.6 86.8 14.6 Z M 225.5 11.3 C 227.4 11.4 223.8 11.0 224.8 11.4 C 226.2 11.7 227.8 12.1 228.1 12.3 C 230.8 12.5 225.1 11.5 225.5 11.3 C 225.5 11.3 225.5 11.3 225.5 11.3 Z M 213.3 10.0 C 212.5 9.9 212.5 9.5 213.3 9.9 C 215.2 10.1 211.6 9.4 214.6 9.9 C 213.4 9.6 210.5 9.1 209.1 9.1 C 209.2 9.3 211.8 9.6 211.9 9.8 C 212.0 9.9 211.6 9.8 211.2 9.8 C 211.4 9.9 212.1 9.8 213.3 10.0 C 213.3 10.0 213.3 10.0 213.3 10.0 Z M 202.9 8.5 C 204.1 8.7 205.4 9.0 207.8 9.2 C 206.2 8.9 205.4 8.6 202.9 8.5 C 202.9 8.5 202.9 8.5 202.9 8.5 Z M 318.8 55.5 C 318.1 54.4 318.5 55.5 318.5 55.7 C 319.1 56.8 319.2 56.6 319.8 57.9 C 319.8 57.4 318.9 56.4 318.8 55.5 C 318.8 55.5 318.8 55.5 318.8 55.5 Z M 320.6 59.6 C 320.5 59.8 321.2 61.3 321.0 61.5 C 321.8 62.2 321.4 63.8 321.8 63.7 C 321.8 64.1 321.8 64.4 322.0 65.1 C 322.1 63.7 321.2 61.0 320.6 59.6 C 320.6 59.6 320.6 59.6 320.6 59.6 Z M 190.9 8.0 C 189.1 7.8 191.4 8.4 189.5 8.2 C 189.4 8.3 193.1 8.6 190.9 8.5 C 193.7 8.9 190.7 8.0 190.9 8.0 C 190.9 8.0 190.9 8.0 190.9 8.0 Z M 156.1 7.5 C 156.2 7.3 153.6 7.5 152.6 7.5 C 152.6 7.6 153.4 7.5 154.0 7.5 C 153.7 7.6 153.3 7.7 152.6 7.7 C 153.1 7.9 155.1 7.5 156.1 7.5 C 156.1 7.5 156.1 7.5 156.1 7.5 Z M 194.8 4.1 C 196.0 4.4 197.5 4.7 198.3 4.4 C 199.5 4.7 197.5 4.6 199.0 4.9 C 201.0 4.9 200.0 5.1 203.2 5.3 C 202.6 5.5 204.9 5.7 205.3 6.0 C 204.0 5.9 202.4 5.4 201.7 5.6 C 202.8 5.7 202.2 5.9 201.7 5.7 C 199.6 5.4 204.4 5.6 201.8 5.2 C 201.0 5.5 197.3 4.6 194.8 4.4 C 195.7 4.3 192.9 3.9 194.8 4.1 C 194.8 4.1 194.8 4.1 194.8 4.1 Z M 207.4 5.7 C 209.1 5.9 209.9 6.5 209.5 6.4 C 209.5 6.3 207.6 6.1 207.4 6.2 C 207.8 6.2 208.2 6.3 208.1 6.4 C 205.0 6.0 206.1 5.9 205.3 5.7 C 207.1 5.7 207.5 5.9 208.1 5.9 C 207.7 5.8 207.3 5.8 207.4 5.7 C 207.4 5.7 207.4 5.7 207.4 5.7 Z M 242.4 15.5 C 242.1 15.3 241.7 15.4 241.1 15.3 C 241.0 14.9 237.6 14.7 237.2 14.4 C 238.0 14.4 239.7 14.8 240.5 14.9 C 239.6 14.6 239.5 14.5 238.6 14.4 C 238.8 14.3 240.7 14.7 241.2 14.6 C 241.4 14.8 242.3 14.8 242.5 15.0 C 240.0 14.5 243.8 15.8 242.4 15.5 C 242.4 15.5 242.4 15.5 242.4 15.5 Z M 174.6 7.6 C 174.4 7.8 177.4 8.4 174.6 8.7 C 174.0 8.5 173.7 8.2 173.9 7.9 C 172.1 8.1 171.4 7.8 170.3 8.0 C 167.1 7.3 172.8 8.1 174.6 7.6 C 174.6 7.6 174.6 7.6 174.6 7.6 Z M 163.2 7.7 C 163.8 7.5 162.2 7.5 162.5 7.3 C 163.9 7.5 168.3 7.2 166.8 7.4 C 165.3 7.4 165.3 7.7 163.2 7.7 C 163.2 7.7 163.2 7.7 163.2 7.7 Z M 75.6 122.1 C 73.6 121.7 72.7 121.0 73.9 121.2 C 73.3 121.3 76.4 122.0 75.6 122.1 C 75.6 122.1 75.6 122.1 75.6 122.1 Z M 5.7 83.2 C 6.3 84.8 6.9 85.6 6.8 85.9 C 5.9 84.5 6.2 84.5 5.5 83.3 C 5.4 83.2 4.9 82.5 5.0 82.3 C 5.3 83.0 5.4 82.8 5.7 83.2 C 5.7 83.2 5.7 83.2 5.7 83.2 Z M 119.6 4.6 C 119.4 4.6 118.6 4.6 118.9 4.4 C 121.0 4.3 123.4 3.8 125.2 3.5 C 125.2 3.6 125.2 3.7 125.2 3.8 C 121.8 4.0 121.0 4.3 119.6 4.6 C 119.6 4.6 119.6 4.6 119.6 4.6 Z M 115.4 4.7 C 115.0 4.9 116.2 5.0 114.7 5.2 C 114.8 5.0 112.1 5.1 113.3 4.9 C 113.7 5.0 114.4 4.9 115.4 4.7 C 115.4 4.7 115.4 4.7 115.4 4.7 Z M 234.2 9.1 C 235.8 9.4 233.5 8.7 233.6 8.6 C 234.7 8.9 236.4 9.2 236.9 9.4 C 235.7 9.2 234.8 9.4 234.2 9.1 C 234.2 9.1 234.2 9.1 234.2 9.1 Z M 208.8 5.8 C 205.2 5.4 206.8 5.2 203.3 4.7 C 204.7 4.7 208.0 5.1 208.9 5.0 C 208.8 5.1 209.7 5.3 209.6 5.4 C 208.3 5.3 208.1 5.1 206.8 5.0 C 207.2 5.3 207.3 5.2 206.7 5.4 C 207.7 5.5 208.3 5.5 208.9 5.6 C 208.6 5.7 209.9 5.9 208.8 5.8 C 208.8 5.8 208.8 5.8 208.8 5.8 Z M 233.4 9.6 C 234.8 9.8 235.9 10.3 234.7 10.1 C 234.6 9.9 233.6 9.9 233.4 9.7 C 235.3 10.0 231.8 9.3 232.8 9.3 C 234.0 9.5 234.4 9.5 234.1 9.3 C 234.9 9.5 236.1 9.7 236.1 9.8 C 235.6 9.7 234.8 9.5 234.8 9.6 C 235.2 9.7 235.6 9.8 235.4 9.8 C 234.3 9.6 233.7 9.5 233.4 9.6 C 233.4 9.6 233.4 9.6 233.4 9.6 Z M 224.0 7.9 C 225.9 8.3 226.0 8.5 226.7 8.8 C 224.2 8.3 223.8 7.9 222.0 7.5 C 224.0 7.8 226.1 7.9 226.8 8.1 C 225.8 8.1 224.2 7.8 224.0 7.9 C 224.0 7.9 224.0 7.9 224.0 7.9 Z M 253.6 124.1 C 252.1 124.3 250.9 124.5 249.2 124.8 C 248.7 125.2 251.9 124.9 250.5 125.0 C 248.8 125.5 249.9 124.9 248.5 125.2 C 250.0 125.2 242.6 127.0 242.2 126.7 C 243.3 126.5 243.7 126.3 243.4 126.2 C 246.4 125.5 247.5 125.0 249.7 124.4 C 251.4 124.3 256.0 123.2 258.4 122.1 C 260.1 122.1 262.9 120.8 265.1 120.4 C 265.6 120.1 263.2 120.7 265.0 120.1 C 266.2 120.0 265.3 120.4 266.9 120.0 C 267.0 119.8 266.6 119.8 267.4 119.5 C 267.3 119.7 268.3 119.4 268.7 119.3 C 265.5 120.4 269.0 119.6 266.5 120.5 C 265.4 120.7 267.4 119.7 264.5 120.7 C 263.5 121.1 262.6 121.5 262.9 121.6 C 262.0 121.9 261.6 122.1 261.1 122.3 C 262.1 121.6 256.9 123.6 259.2 122.6 C 259.4 122.5 261.1 122.0 262.2 121.6 C 261.1 121.7 259.8 122.2 257.9 122.9 C 257.1 122.9 258.2 122.5 257.3 122.7 C 255.8 123.3 257.9 122.9 256.8 123.4 C 257.3 123.2 258.0 123.0 258.0 123.1 C 255.4 123.6 254.4 124.1 253.1 124.5 C 253.9 124.1 251.5 124.7 253.6 124.1 C 253.6 124.1 253.6 124.1 253.6 124.1 Z M 274.9 116.9 C 275.5 116.7 276.0 116.5 276.6 116.2 C 276.8 116.4 274.6 117.3 276.2 116.9 C 273.7 117.8 276.2 116.6 274.9 116.9 C 274.9 116.9 274.9 116.9 274.9 116.9 Z M 263.1 120.1 C 262.1 120.1 262.8 120.5 261.9 120.7 C 263.4 120.3 264.7 119.8 265.0 120.0 C 263.3 120.4 262.5 120.7 260.8 121.3 C 262.4 120.4 258.8 121.6 258.2 121.5 C 259.5 121.0 260.6 120.6 262.4 120.0 C 262.1 120.2 264.7 119.5 263.1 120.1 C 263.1 120.1 263.1 120.1 263.1 120.1 Z M 267.7 118.2 C 268.1 118.3 270.5 117.3 270.1 117.7 C 268.6 118.2 268.0 118.5 268.4 118.6 C 267.3 119.0 267.1 118.9 266.1 119.3 C 265.3 119.2 267.2 118.6 267.7 118.3 C 267.4 118.4 267.0 118.5 267.7 118.2 C 267.7 118.2 267.7 118.2 267.7 118.2 Z M 314.1 89.6 C 314.6 89.4 312.9 91.2 312.5 91.5 C 313.2 91.1 313.0 91.4 311.9 92.6 C 312.1 91.9 310.5 93.7 309.2 94.4 C 309.1 94.8 310.6 93.6 309.0 95.1 C 307.6 96.2 306.5 97.3 304.2 99.1 C 303.5 99.2 304.5 98.5 305.0 97.9 C 303.5 99.1 303.9 98.6 302.6 99.5 C 302.9 99.4 302.0 100.2 301.5 100.4 C 303.6 98.8 298.4 102.1 300.7 100.4 C 300.9 100.4 301.4 100.0 301.9 99.6 C 301.5 100.3 304.3 98.2 305.0 97.9 C 305.7 96.6 308.7 94.5 311.4 92.1 C 311.7 92.0 310.9 92.9 311.6 92.3 C 311.6 92.1 312.5 91.2 312.8 90.8 C 312.8 90.9 313.2 90.7 313.7 90.1 C 313.7 90.0 313.8 90.0 314.1 89.6 C 314.1 89.6 314.1 89.6 314.1 89.6 Z M 140.1 131.3 C 140.2 130.9 135.7 130.9 134.4 130.9 C 134.7 130.4 142.6 131.1 140.1 131.3 C 140.1 131.3 140.1 131.3 140.1 131.3 Z M 167.8 131.8 C 166.6 131.8 167.5 132.0 166.4 132.1 C 166.4 131.8 163.7 132.3 163.6 132.1 C 164.9 131.8 165.7 131.9 167.8 131.8 C 167.8 131.8 167.8 131.8 167.8 131.8 Z M 193.5 130.9 C 191.4 131.1 194.6 130.9 194.2 131.1 C 192.4 131.2 190.5 131.3 190.6 131.1 C 192.2 131.1 193.2 130.7 193.5 130.9 C 193.5 130.9 193.5 130.9 193.5 130.9 Z M 155.0 131.5 C 153.3 131.3 156.2 131.1 156.4 131.3 C 154.6 131.3 157.7 131.5 159.3 131.5 C 159.2 131.8 158.5 131.7 159.3 131.9 C 156.8 132.0 158.9 131.7 157.1 131.7 C 155.9 131.8 157.2 131.8 157.1 132.0 C 156.4 132.0 155.7 132.0 155.0 131.9 C 155.0 131.8 155.0 131.7 155.0 131.5 C 155.9 131.6 156.7 131.6 156.4 131.4 C 155.7 131.4 155.6 131.5 155.0 131.5 C 155.0 131.5 155.0 131.5 155.0 131.5 Z M 281.5 110.8 C 280.2 111.4 281.4 111.0 282.4 110.5 C 282.6 110.3 283.2 109.5 284.8 109.1 C 281.7 110.8 285.9 109.0 284.2 109.9 C 283.3 110.0 281.5 111.2 279.8 111.8 C 279.1 111.9 280.6 110.9 281.5 110.8 C 281.5 110.8 281.5 110.8 281.5 110.8 Z M 287.3 108.2 C 287.1 108.3 286.6 108.5 285.7 109.0 C 286.6 108.3 285.2 108.9 286.4 108.3 C 286.3 108.4 290.4 106.4 288.0 107.7 C 285.8 108.7 288.7 107.5 289.7 107.1 C 288.6 107.6 286.8 108.8 286.5 108.7 C 287.1 108.5 287.5 108.2 287.3 108.2 C 287.3 108.2 287.3 108.2 287.3 108.2 Z M 319.5 80.4 C 319.4 80.2 319.1 81.0 318.9 81.2 C 320.0 79.0 320.7 77.1 321.0 76.0 C 320.7 77.0 320.9 77.1 321.2 76.5 C 320.8 77.6 320.8 77.9 320.5 78.2 C 320.7 77.2 320.2 79.0 319.5 80.4 C 319.5 80.4 319.5 80.4 319.5 80.4 Z M 319.5 80.4 " fill="#000000"></path><image xlink:href="../../CEFA4209-80C9-472B-8D2B-058B96531B72/assets/431BD2BFE54A6EFCB4B133EE2A4ED9FC.png" width="209.00" height="56.00" transform="matrix(1.00, 0.00, -0.00, -1.00, 63.0, 87.0)"></image><g><clipPath id="clip-877"><path d="M 5.8 5.2 L 324.6 5.2 L 324.6 133.6 L 5.8 133.6 Z M 5.8 5.2 "></path></clipPath><g clip-path="url(#clip-877)"><text xml:space="preserve" font-family="Chalkduster" font-size="32.0" fill="#000000" transform="matrix(1.00, 0.00, -0.00, -1.00, 66.0, 55.0)">L</text><text xml:space="preserve" font-family="Chalkduster" font-size="32.0" fill="#000000" transform="matrix(1.00, 0.00, -0.00, -1.00, 86.3, 55.0)">i</text><text xml:space="preserve" font-family="Chalkduster" font-size="32.0" fill="#000000" transform="matrix(1.00, 0.00, -0.00, -1.00, 98.9, 55.0)">n</text><text xml:space="preserve" font-family="Chalkduster" font-size="32.0" fill="#000000" transform="matrix(1.00, 0.00, -0.00, -1.00, 122.4, 55.0)">k</text><text xml:space="preserve" font-family="Chalkduster" font-size="32.0" fill="#000000" transform="matrix(1.00, 0.00, -0.00, -1.00, 147.3, 55.0)"> </text><text xml:space="preserve" font-family="Chalkduster" font-size="32.0" fill="#000000" transform="matrix(1.00, 0.00, -0.00, -1.00, 163.2, 55.0)">S</text><text xml:space="preserve" font-family="Chalkduster" font-size="32.0" fill="#000000" transform="matrix(1.00, 0.00, -0.00, -1.00, 179.1, 55.0)">p</text><text xml:space="preserve" font-family="Chalkduster" font-size="32.0" fill="#000000" transform="matrix(1.00, 0.00, -0.00, -1.00, 199.2, 55.0)">e</text><text xml:space="preserve" font-family="Chalkduster" font-size="32.0" fill="#000000" transform="matrix(1.00, 0.00, -0.00, -1.00, 219.1, 55.0)">e</text><text xml:space="preserve" font-family="Chalkduster" font-size="32.0" fill="#000000" transform="matrix(1.00, 0.00, -0.00, -1.00, 239.9, 55.0)">d</text></g></g></g></svg>