<?xml version="1.0" encoding="UTF-8" standalone="no"?><svg xmlns="http://www.w3.org/2000/svg" xmlns:xlink="http://www.w3.org/1999/xlink" clip-rule="evenodd" stroke-miterlimit="4.00" viewBox="0 0 391 21"><desc>SVG generated by Keynote</desc><defs></defs><g transform="matrix(1.00, 0.00, -0.00, -1.00, 0.0, 21.0)"><text xml:space="preserve" font-family="AmericanTypewriter" font-size="18.0" fill="#FEFFFF" transform="matrix(1.00, 0.00, -0.00, -1.00, 2.0, 6.0)">F</text><text xml:space="preserve" font-family="AmericanTypewriter" font-size="18.0" fill="#FEFFFF" transform="matrix(1.00, 0.00, -0.00, -1.00, 13.4, 6.0)">i</text><text xml:space="preserve" font-family="AmericanTypewriter" font-size="18.0" fill="#FEFFFF" transform="matrix(1.00, 0.00, -0.00, -1.00, 19.0, 6.0)">l</text><text xml:space="preserve" font-family="AmericanTypewriter" font-size="18.0" fill="#FEFFFF" transform="matrix(1.00, 0.00, -0.00, -1.00, 24.5, 6.0)">e</text><text xml:space="preserve" font-family="AmericanTypewriter" font-size="18.0" fill="#FEFFFF" transform="matrix(1.00, 0.00, -0.00, -1.00, 34.0, 6.0)"> </text><text xml:space="preserve" font-family="AmericanTypewriter" font-size="18.0" fill="#FEFFFF" transform="matrix(1.00, 0.00, -0.00, -1.00, 38.5, 6.0)">l</text><text xml:space="preserve" font-family="AmericanTypewriter" font-size="18.0" fill="#FEFFFF" transform="matrix(1.00, 0.00, -0.00, -1.00, 44.1, 6.0)">a</text><text xml:space="preserve" font-family="AmericanTypewriter" font-size="18.0" fill="#FEFFFF" transform="matrix(1.00, 0.00, -0.00, -1.00, 54.2, 6.0)">r</text><text xml:space="preserve" font-family="AmericanTypewriter" font-size="18.0" fill="#FEFFFF" transform="matrix(1.00, 0.00, -0.00, -1.00, 62.8, 6.0)">g</text><text xml:space="preserve" font-family="AmericanTypewriter" font-size="18.0" fill="#FEFFFF" transform="matrix(1.00, 0.00, -0.00, -1.00, 72.3, 6.0)">e</text><text xml:space="preserve" font-family="AmericanTypewriter" font-size="18.0" fill="#FEFFFF" transform="matrix(1.00, 0.00, -0.00, -1.00, 81.8, 6.0)">r</text><text xml:space="preserve" font-family="AmericanTypewriter" font-size="18.0" fill="#FEFFFF" transform="matrix(1.00, 0.00, -0.00, -1.00, 90.6, 6.0)"> </text><text xml:space="preserve" font-family="AmericanTypewriter" font-size="18.0" fill="#FEFFFF" transform="matrix(1.00, 0.00, -0.00, -1.00, 95.1, 6.0)">t</text><text xml:space="preserve" font-family="AmericanTypewriter" font-size="18.0" fill="#FEFFFF" transform="matrix(1.00, 0.00, -0.00, -1.00, 102.3, 6.0)">h</text><text xml:space="preserve" font-family="AmericanTypewriter" font-size="18.0" fill="#FEFFFF" transform="matrix(1.00, 0.00, -0.00, -1.00, 113.8, 6.0)">a</text><text xml:space="preserve" font-family="AmericanTypewriter" font-size="18.0" fill="#FEFFFF" transform="matrix(1.00, 0.00, -0.00, -1.00, 124.0, 6.0)">n</text><text xml:space="preserve" font-family="AmericanTypewriter" font-size="18.0" fill="#FEFFFF" transform="matrix(1.00, 0.00, -0.00, -1.00, 135.4, 6.0)"> </text><text xml:space="preserve" font-family="AmericanTypewriter" font-size="18.0" fill="#FEFFFF" transform="matrix(1.00, 0.00, -0.00, -1.00, 139.9, 6.0)">t</text><text xml:space="preserve" font-family="AmericanTypewriter" font-size="18.0" fill="#FEFFFF" transform="matrix(1.00, 0.00, -0.00, -1.00, 147.1, 6.0)">h</text><text xml:space="preserve" font-family="AmericanTypewriter" font-size="18.0" fill="#FEFFFF" transform="matrix(1.00, 0.00, -0.00, -1.00, 158.6, 6.0)">e</text><text xml:space="preserve" font-family="AmericanTypewriter" font-size="18.0" fill="#FEFFFF" transform="matrix(1.00, 0.00, -0.00, -1.00, 168.1, 6.0)"> </text><text xml:space="preserve" font-family="AmericanTypewriter" font-size="18.0" fill="#FEFFFF" transform="matrix(1.00, 0.00, -0.00, -1.00, 172.6, 6.0)">m</text><text xml:space="preserve" font-family="AmericanTypewriter" font-size="18.0" fill="#FEFFFF" transform="matrix(1.00, 0.00, -0.00, -1.00, 189.3, 6.0)">a</text><text xml:space="preserve" font-family="AmericanTypewriter" font-size="18.0" fill="#FEFFFF" transform="matrix(1.00, 0.00, -0.00, -1.00, 199.4, 6.0)">i</text><text xml:space="preserve" font-family="AmericanTypewriter" font-size="18.0" fill="#FEFFFF" transform="matrix(1.00, 0.00, -0.00, -1.00, 205.0, 6.0)">n</text><text xml:space="preserve" font-family="AmericanTypewriter" font-size="18.0" fill="#FEFFFF" transform="matrix(1.00, 0.00, -0.00, -1.00, 216.5, 6.0)"> </text><text xml:space="preserve" font-family="AmericanTypewriter" font-size="18.0" fill="#FEFFFF" transform="matrix(1.00, 0.00, -0.00, -1.00, 221.0, 6.0)">m</text><text xml:space="preserve" font-family="AmericanTypewriter" font-size="18.0" fill="#FEFFFF" transform="matrix(1.00, 0.00, -0.00, -1.00, 237.7, 6.0)">e</text><text xml:space="preserve" font-family="AmericanTypewriter" font-size="18.0" fill="#FEFFFF" transform="matrix(1.00, 0.00, -0.00, -1.00, 247.2, 6.0)">m</text><text xml:space="preserve" font-family="AmericanTypewriter" font-size="18.0" fill="#FEFFFF" transform="matrix(1.00, 0.00, -0.00, -1.00, 263.9, 6.0)">o</text><text xml:space="preserve" font-family="AmericanTypewriter" font-size="18.0" fill="#FEFFFF" transform="matrix(1.00, 0.00, -0.00, -1.00, 273.7, 6.0)">r</text><text xml:space="preserve" font-family="AmericanTypewriter" font-size="18.0" fill="#FEFFFF" transform="matrix(1.00, 0.00, -0.00, -1.00, 283.0, 6.0)">y</text><text xml:space="preserve" font-family="AmericanTypewriter" font-size="18.0" fill="#FEFFFF" transform="matrix(1.00, 0.00, -0.00, -1.00, 293.8, 6.0)"> </text><text xml:space="preserve" font-family="AmericanTypewriter" font-size="18.0" fill="#FEFFFF" transform="matrix(1.00, 0.00, -0.00, -1.00, 298.3, 6.0)">(</text><text xml:space="preserve" font-family="AmericanTypewriter" font-size="18.0" fill="#FEFFFF" transform="matrix(1.00, 0.00, -0.00, -1.00, 306.5, 6.0)">n</text><text xml:space="preserve" font-family="AmericanTypewriter" font-size="18.0" fill="#FEFFFF" transform="matrix(1.00, 0.00, -0.00, -1.00, 318.0, 6.0)">o</text><text xml:space="preserve" font-family="AmericanTypewriter" font-size="18.0" fill="#FEFFFF" transform="matrix(1.00, 0.00, -0.00, -1.00, 327.8, 6.0)"> </text><text xml:space="preserve" font-family="AmericanTypewriter" font-size="18.0" fill="#FEFFFF" transform="matrix(1.00, 0.00, -0.00, -1.00, 332.3, 6.0)">c</text><text xml:space="preserve" font-family="AmericanTypewriter" font-size="18.0" fill="#FEFFFF" transform="matrix(1.00, 0.00, -0.00, -1.00, 341.5, 6.0)">a</text><text xml:space="preserve" font-family="AmericanTypewriter" font-size="18.0" fill="#FEFFFF" transform="matrix(1.00, 0.00, -0.00, -1.00, 351.6, 6.0)">c</text><text xml:space="preserve" font-family="AmericanTypewriter" font-size="18.0" fill="#FEFFFF" transform="matrix(1.00, 0.00, -0.00, -1.00, 360.6, 6.0)">h</text><text xml:space="preserve" font-family="AmericanTypewriter" font-size="18.0" fill="#FEFFFF" transform="matrix(1.00, 0.00, -0.00, -1.00, 372.1, 6.0)">e</text><text xml:space="preserve" font-family="AmericanTypewriter" font-size="18.0" fill="#FEFFFF" transform="matrix(1.00, 0.00, -0.00, -1.00, 381.6, 6.0)">)</text></g></svg>