<?xml version="1.0" encoding="UTF-8" standalone="no"?><svg xmlns="http://www.w3.org/2000/svg" xmlns:xlink="http://www.w3.org/1999/xlink" clip-rule="evenodd" stroke-miterlimit="4.00" viewBox="0 0 309 111"><desc>SVG generated by Keynote</desc><defs></defs><g transform="matrix(1.00, 0.00, -0.00, -1.00, 0.0, 111.0)"><g><clipPath id="clip-1373"><path d="M 260.1 91.0 C 318.4 71.5 318.4 39.9 260.1 20.3 C 201.9 0.8 107.5 0.8 49.3 20.3 C -8.9 39.9 -8.9 71.5 49.3 91.0 C 107.5 110.6 201.9 110.6 260.1 91.0 Z M 260.1 91.0 "></path></clipPath><g clip-path="url(#clip-1373)"><image xlink:href="../../1BE7A03E-C66D-4413-94C1-F85C6D2757AE/assets/59DBD66EA15A3D40E065F836EF2595FD.jpeg" width="400.00" height="400.00" transform="matrix(1.00, 0.00, -0.00, -1.00, 5.6, 105.7)"></image></g></g><path d="M 76.5 9.1 C 76.1 9.3 75.6 9.4 74.8 9.6 C 75.2 9.6 75.4 9.6 75.4 9.7 C 76.1 9.5 77.0 9.3 78.4 9.0 C 78.3 9.0 77.6 9.1 77.1 9.2 C 76.6 9.3 76.7 9.2 76.5 9.1 C 76.5 9.1 76.5 9.1 76.5 9.1 Z M 68.0 99.8 C 66.9 99.5 68.1 100.0 68.5 100.1 C 68.6 100.1 68.7 100.1 69.1 100.2 C 69.2 100.4 68.2 100.2 67.4 100.1 C 64.3 99.3 66.7 99.4 68.0 99.8 C 68.0 99.8 68.0 99.8 68.0 99.8 Z M 236.2 100.8 C 238.7 100.3 236.0 100.6 235.6 100.6 C 236.7 100.3 235.7 100.1 237.2 99.8 C 237.5 99.8 238.1 99.8 238.4 99.8 C 237.7 100.0 236.8 100.2 236.7 100.3 C 237.6 100.1 238.8 99.8 239.0 99.8 C 237.0 100.4 238.7 100.2 239.1 100.2 C 237.3 100.6 236.8 100.9 236.2 100.8 C 236.2 100.8 236.2 100.8 236.2 100.8 Z M 276.6 23.9 C 277.6 24.4 278.3 24.8 278.1 24.8 C 277.1 24.3 276.4 24.0 275.9 23.7 C 275.7 23.7 275.9 24.0 275.1 23.6 C 274.1 22.9 274.7 22.9 275.3 23.0 C 275.3 23.2 278.7 24.6 276.6 23.9 C 276.6 23.9 276.6 23.9 276.6 23.9 Z M 207.3 6.6 C 204.9 6.2 207.1 6.9 204.7 6.5 C 204.8 6.3 204.5 6.0 206.1 6.2 C 206.2 6.3 207.1 6.5 207.3 6.6 C 207.3 6.6 207.3 6.6 207.3 6.6 Z M 165.5 106.9 C 165.5 107.0 167.2 106.9 166.8 107.2 C 165.9 107.2 165.1 107.2 164.2 107.2 C 164.0 107.0 164.3 106.9 165.5 106.9 C 165.5 106.9 165.5 106.9 165.5 106.9 Z M 252.2 94.4 C 254.7 94.0 257.1 92.8 256.4 93.3 C 257.4 93.2 254.9 94.4 255.0 94.2 C 254.6 94.0 250.3 95.0 252.2 94.4 C 252.2 94.4 252.2 94.4 252.2 94.4 Z M 82.1 98.5 C 84.9 99.2 84.4 98.4 86.2 99.1 C 85.6 99.0 85.3 99.0 85.0 99.0 C 85.5 99.1 86.2 99.2 86.2 99.3 C 84.8 99.1 83.2 98.9 82.1 98.5 C 82.1 98.5 82.1 98.5 82.1 98.5 Z M 118.5 3.8 C 119.0 3.8 119.3 3.7 119.2 3.6 C 121.2 3.5 121.1 3.3 122.4 3.4 C 122.5 3.7 120.8 3.7 119.2 3.8 C 119.1 3.8 118.6 3.9 118.5 3.8 C 118.5 3.8 118.5 3.8 118.5 3.8 Z M 176.0 3.8 C 175.9 3.6 174.7 3.4 176.7 3.5 C 178.8 3.9 176.9 4.0 174.7 4.0 C 174.6 4.1 174.6 4.2 174.6 4.3 C 175.5 4.4 176.1 4.4 176.6 4.5 C 177.0 4.2 178.4 4.9 181.8 4.9 C 180.2 4.9 181.9 5.3 179.8 5.1 C 180.4 5.3 178.9 5.2 179.1 5.4 C 180.0 5.4 182.2 5.5 181.8 5.2 C 182.9 5.3 183.8 5.3 184.3 5.4 C 185.1 5.8 182.3 5.4 183.1 5.7 C 183.7 5.7 183.8 5.8 184.3 5.8 C 184.4 5.7 184.2 5.6 184.9 5.6 C 187.0 5.9 184.6 5.9 187.5 6.1 C 187.7 6.0 186.8 5.9 186.9 5.8 C 188.2 5.7 188.1 5.9 189.5 5.9 C 189.7 6.1 188.5 6.0 189.4 6.1 C 190.3 5.8 192.1 6.6 193.9 6.4 C 192.7 5.8 194.2 6.6 195.9 6.2 C 196.2 6.4 195.0 6.6 196.4 6.8 C 196.0 6.1 201.7 6.8 197.2 5.9 C 199.6 6.1 200.4 5.7 198.5 5.4 C 202.7 6.0 201.4 5.5 203.0 5.7 C 204.6 5.9 202.1 5.7 202.9 6.0 C 201.2 5.8 201.6 6.0 200.4 5.7 C 200.4 5.8 200.1 5.9 199.7 5.9 C 201.5 5.9 203.4 6.5 202.2 6.6 C 201.3 6.5 202.2 6.3 201.0 6.2 C 201.4 6.6 199.8 6.0 199.7 6.2 C 200.4 6.6 198.0 6.6 200.3 6.9 C 200.3 6.8 200.3 6.6 200.3 6.5 C 200.9 6.6 201.6 6.6 202.2 6.7 C 202.7 7.0 202.2 7.1 202.8 7.3 C 203.8 7.4 204.4 7.4 204.7 7.3 C 203.4 7.1 201.9 6.7 204.1 6.9 C 203.2 7.3 207.0 7.4 205.3 7.5 C 207.6 7.9 208.8 7.7 209.0 8.0 C 210.2 8.2 209.4 7.8 210.9 8.0 C 213.1 8.6 212.8 8.2 215.8 8.8 C 216.2 8.5 216.0 8.9 217.0 9.1 C 217.0 8.9 217.0 8.8 217.1 8.7 C 218.1 9.1 220.5 9.5 223.0 9.7 C 223.7 9.9 223.2 10.1 224.8 10.3 C 226.6 10.3 228.6 11.0 230.7 11.1 C 230.8 11.3 232.2 11.6 233.0 11.6 C 233.3 11.8 232.2 11.9 233.5 12.1 C 234.4 12.1 232.9 11.7 234.7 12.0 C 234.5 12.2 236.5 12.1 236.4 12.4 C 235.9 12.4 235.2 12.3 234.7 12.3 C 235.5 12.5 235.2 12.5 235.8 12.7 C 235.8 12.3 237.1 12.9 237.5 13.1 C 237.5 12.9 237.7 12.9 238.1 12.9 C 239.1 13.1 239.9 13.3 240.4 13.3 C 241.6 13.7 239.7 13.4 240.9 13.7 C 241.6 13.2 242.7 14.2 245.4 14.5 C 245.9 14.8 247.0 15.2 248.6 15.6 C 248.8 15.5 247.0 15.1 247.0 15.0 C 249.4 15.7 246.7 14.7 248.2 15.1 C 251.5 16.2 253.7 16.8 257.0 18.0 C 257.0 17.8 259.7 18.5 259.6 18.6 C 259.3 18.5 259.6 18.7 260.2 19.0 C 260.7 19.2 262.3 19.8 263.2 20.2 C 263.8 20.0 266.8 20.7 267.0 20.5 C 267.6 21.0 267.5 20.9 267.7 21.4 C 270.7 22.7 272.3 23.0 273.9 24.1 C 273.9 23.9 275.2 24.4 276.3 24.8 C 275.9 24.9 275.2 24.7 274.6 24.6 C 276.1 25.2 276.2 25.4 277.5 26.0 C 279.0 26.0 280.6 27.8 281.8 27.7 C 283.7 28.7 283.2 28.7 284.8 29.6 C 284.9 29.5 285.1 29.5 285.6 29.7 C 284.5 29.1 283.6 28.9 283.1 28.3 C 285.6 29.6 278.7 25.1 282.9 27.1 C 283.0 27.3 282.6 27.2 283.4 27.7 C 285.8 28.9 284.5 27.9 283.6 27.5 C 285.2 28.2 286.7 29.2 285.7 28.3 C 289.2 30.2 286.9 29.1 287.9 29.9 C 293.9 33.4 299.9 38.3 303.2 44.3 C 303.6 44.3 305.0 47.6 305.1 48.7 C 306.0 50.3 306.4 52.2 306.2 52.8 C 306.5 53.0 306.2 54.9 306.5 55.0 C 306.4 54.3 306.5 53.8 306.6 54.5 C 306.6 57.1 305.8 60.8 305.5 62.3 C 304.9 63.1 304.3 64.7 303.9 65.8 C 303.7 65.9 304.1 65.1 303.7 65.7 C 303.7 66.0 302.5 68.3 302.0 68.7 C 302.5 68.1 302.7 67.2 302.0 68.2 C 302.1 68.2 301.3 69.4 301.7 69.2 C 300.6 70.5 300.0 71.4 298.9 72.4 C 299.7 71.5 300.1 70.9 300.1 70.6 C 299.5 71.5 299.0 72.1 298.3 72.6 C 298.7 72.7 297.3 73.8 296.0 75.2 C 295.6 75.5 295.2 75.6 294.0 76.6 C 293.5 77.3 296.0 75.3 294.7 76.5 C 294.6 76.4 293.2 77.3 293.7 77.2 C 292.0 78.5 291.1 79.3 289.5 80.2 C 291.5 78.9 289.8 79.6 289.3 79.9 C 288.9 80.2 288.2 80.6 288.2 80.7 C 288.3 80.8 289.3 80.1 289.4 80.1 C 288.0 80.9 287.8 81.5 287.2 81.6 C 287.8 81.2 287.8 81.1 287.1 81.5 C 287.1 81.9 282.5 84.3 284.0 83.2 C 284.1 83.3 285.8 82.3 285.9 82.1 C 285.3 82.3 282.8 83.9 283.3 83.4 C 284.7 82.5 284.7 82.7 286.4 81.6 C 286.5 81.4 287.4 80.8 288.0 80.3 C 285.4 81.9 284.9 82.5 284.4 82.5 C 283.2 83.2 284.1 83.0 281.9 84.1 C 278.9 85.6 281.3 84.1 280.4 84.4 C 277.7 86.0 278.7 85.8 280.0 85.4 C 277.8 86.5 277.2 87.0 274.3 88.2 C 274.3 88.0 274.7 87.8 275.7 87.3 C 275.8 87.3 278.2 86.3 277.9 86.3 C 277.5 86.1 275.6 86.8 272.4 88.1 C 273.3 88.1 273.4 87.9 270.1 89.3 C 270.8 89.4 268.5 89.8 268.5 90.1 C 268.7 90.1 269.9 89.6 271.0 89.2 C 271.0 89.4 270.6 89.6 269.5 90.1 C 268.8 90.3 268.3 90.6 266.2 91.3 C 265.9 91.2 267.4 90.6 267.7 90.3 C 266.5 90.8 266.3 91.0 265.2 91.4 C 264.1 91.6 264.1 91.2 264.0 90.9 C 265.4 90.4 267.4 89.6 265.7 90.0 C 270.6 88.2 265.6 90.5 267.5 89.8 C 269.4 88.7 268.5 89.6 271.5 88.3 C 272.4 87.9 272.7 87.7 273.0 87.5 C 272.8 87.5 271.0 88.0 272.9 87.2 C 273.4 87.1 274.5 86.8 276.0 86.1 C 276.0 86.0 272.9 87.3 275.9 85.9 C 277.4 85.2 276.2 86.2 278.2 85.2 C 278.2 85.1 278.7 84.8 278.8 84.7 C 276.0 86.1 279.3 84.3 277.3 85.1 C 279.7 83.8 277.9 85.1 279.5 84.3 C 279.4 84.1 282.1 83.1 282.0 82.8 C 281.1 83.4 279.2 84.4 279.3 84.0 C 281.1 83.1 288.4 78.6 285.8 80.7 C 286.8 79.9 291.3 76.4 291.0 76.8 C 289.7 77.8 289.8 77.9 289.7 78.1 C 292.2 76.1 293.5 75.3 295.5 73.0 C 293.1 75.2 294.7 73.2 293.0 74.4 C 292.3 74.9 291.2 75.7 291.1 75.9 C 291.6 75.9 292.7 74.9 293.0 74.4 C 293.2 74.6 293.3 74.8 293.4 74.9 C 290.3 77.2 288.5 78.6 286.7 79.7 C 288.2 78.7 283.7 81.1 285.4 80.0 C 286.2 79.7 288.0 78.6 289.4 77.7 C 289.4 77.6 289.3 77.6 289.3 77.5 C 289.9 77.1 290.7 76.5 290.7 76.4 C 289.0 77.7 287.7 78.2 286.5 79.2 C 286.4 79.2 286.4 79.2 286.4 79.1 C 286.0 79.3 285.7 79.5 285.8 79.4 C 286.4 79.0 287.4 78.4 287.4 78.2 C 286.0 79.1 285.6 79.1 283.8 80.1 C 284.1 79.6 281.6 80.7 284.1 79.1 C 284.6 79.1 286.0 78.4 286.0 78.5 C 286.8 78.1 288.1 77.2 288.7 76.6 C 287.9 76.9 286.5 77.8 286.3 77.7 C 287.4 76.9 288.2 76.2 288.9 76.0 C 286.9 77.6 290.2 75.3 291.1 74.9 C 290.8 75.0 290.3 75.3 290.0 75.4 C 291.6 74.2 292.3 73.8 292.2 73.4 C 293.9 71.9 293.7 72.4 294.7 71.4 C 293.8 71.8 295.3 70.6 294.4 71.1 C 296.1 69.3 295.1 70.8 295.7 70.2 C 296.2 69.6 296.2 69.5 296.6 69.0 C 297.4 68.3 298.7 66.7 299.1 66.7 C 299.5 66.0 299.7 65.9 300.1 65.2 C 300.1 65.0 300.2 64.7 300.3 64.4 C 300.4 64.3 300.8 63.9 300.8 63.7 C 299.5 65.4 299.8 64.9 298.2 66.6 C 298.2 66.9 298.0 67.2 298.4 66.8 C 297.4 68.2 297.0 68.5 295.9 69.7 C 295.6 69.7 295.2 69.7 294.2 70.9 C 294.3 70.5 294.0 70.7 294.4 70.2 C 295.0 69.8 295.8 69.0 296.6 68.3 C 296.6 68.2 296.3 68.2 296.7 67.8 C 297.1 67.5 297.6 66.9 297.9 66.4 C 298.0 66.4 297.9 66.7 297.8 66.9 C 299.2 65.2 298.5 65.6 299.4 64.3 C 299.1 64.5 298.6 65.3 298.9 64.5 C 299.6 63.3 299.8 63.1 300.2 62.5 C 300.2 62.4 300.1 62.4 300.2 62.1 C 300.7 61.3 299.8 64.2 300.8 62.8 C 300.6 62.6 301.3 61.1 301.5 60.9 C 301.5 61.5 300.9 62.3 301.0 62.4 C 302.2 59.6 301.7 62.5 302.5 59.6 C 302.4 59.6 302.3 59.6 302.2 59.5 C 301.9 60.7 301.7 60.7 301.5 60.5 C 301.1 61.5 300.7 61.8 300.5 62.6 C 300.2 62.1 300.8 61.8 301.2 60.8 C 301.0 60.8 300.6 61.7 300.4 61.7 C 301.5 59.6 301.2 59.0 301.8 56.9 C 301.5 57.4 301.8 55.7 301.6 55.9 C 301.6 57.7 300.9 56.9 300.8 57.2 C 300.7 58.3 301.2 57.9 301.2 58.6 C 300.9 58.9 300.8 58.7 300.5 58.5 C 300.8 57.5 300.7 57.6 300.7 56.8 C 300.9 56.2 301.4 55.6 301.5 56.5 C 301.5 56.3 301.3 55.0 301.5 54.8 C 301.6 56.2 301.6 54.7 301.8 55.5 C 301.9 54.5 301.4 52.6 301.2 51.3 C 301.1 51.5 300.9 51.0 300.8 51.1 C 301.4 52.3 300.9 52.6 301.1 53.9 C 301.0 53.3 300.9 53.7 300.8 53.9 C 300.8 52.7 300.4 52.1 300.4 51.2 C 300.3 51.2 300.3 51.2 300.2 51.3 C 299.9 49.8 299.9 50.0 299.2 49.0 C 299.1 48.5 299.8 48.9 300.1 48.9 C 299.7 48.4 298.6 46.4 299.1 47.7 C 298.4 46.5 298.9 46.6 298.0 45.4 C 297.8 45.5 298.6 46.7 298.0 46.4 C 297.2 45.3 298.0 45.8 297.1 45.0 C 297.2 44.8 297.4 44.7 296.6 43.7 C 297.0 44.5 296.4 43.7 296.1 43.5 C 296.4 44.0 296.7 44.4 296.8 44.7 C 295.5 42.9 295.2 42.5 293.7 41.2 C 294.4 41.5 293.7 40.6 294.7 41.5 C 293.7 40.7 292.7 39.4 292.0 39.0 C 292.6 39.6 293.6 40.5 293.8 41.0 C 290.9 38.2 288.7 37.0 285.2 34.3 C 285.8 34.7 286.7 35.3 286.8 35.3 C 286.4 35.0 285.7 34.6 285.8 34.5 C 287.1 35.4 288.2 36.2 288.9 36.6 C 289.9 37.4 288.2 36.3 289.2 37.1 C 289.5 37.1 291.3 38.7 290.8 37.9 C 289.0 36.8 287.3 35.3 286.6 34.4 C 284.5 33.5 286.3 34.7 283.9 33.8 C 284.1 33.7 283.6 33.3 282.9 32.9 C 283.5 33.6 280.8 31.8 280.5 31.7 C 281.6 32.1 285.6 34.3 283.8 32.8 C 284.3 33.9 279.1 30.0 280.0 31.1 C 277.3 29.7 278.4 29.9 276.7 29.4 C 276.7 29.3 276.9 29.2 276.1 28.8 C 275.3 28.5 275.0 28.4 274.6 28.3 C 278.8 30.4 277.4 30.1 279.8 31.4 C 279.4 31.2 279.0 31.0 279.1 31.1 C 279.1 31.2 279.0 31.2 278.4 30.9 C 278.4 30.5 276.3 29.9 275.8 29.4 C 276.7 29.8 277.4 30.2 277.2 29.9 C 273.9 28.3 274.7 28.3 269.5 26.0 C 271.1 26.8 268.9 26.0 267.1 25.3 C 264.4 24.2 265.6 24.2 262.2 23.0 C 262.3 23.4 261.4 23.1 259.9 22.5 C 258.4 22.0 257.7 21.7 256.5 21.5 C 256.8 21.2 253.7 20.1 253.0 20.2 C 252.9 20.1 251.7 19.8 250.9 19.5 C 250.8 19.3 251.7 19.6 251.0 19.3 C 250.3 19.1 250.9 19.6 249.9 19.3 C 248.8 18.9 249.1 18.7 247.3 18.3 C 247.2 18.5 248.2 18.7 247.2 18.6 C 245.8 18.1 244.4 17.8 245.6 18.3 C 243.3 17.8 244.6 17.6 242.4 17.1 C 243.0 17.4 243.0 17.4 241.8 17.2 C 241.1 16.8 241.0 16.7 240.8 16.6 C 240.1 16.6 240.3 16.7 238.5 16.2 C 238.5 16.3 238.5 16.4 238.5 16.5 C 237.7 16.3 236.5 16.1 236.3 15.9 C 237.8 16.3 237.4 16.0 238.0 16.1 C 236.5 15.7 233.6 14.8 235.8 15.6 C 233.6 15.2 234.7 15.1 233.0 14.8 C 234.0 15.3 233.0 14.8 231.2 14.5 C 231.3 14.9 230.0 14.3 228.9 14.1 C 229.0 14.4 228.7 14.4 227.7 14.2 C 227.8 14.1 227.1 13.9 226.0 13.8 C 226.0 13.9 228.4 14.5 226.0 14.0 C 224.8 13.7 224.9 13.4 223.0 13.1 C 222.7 12.8 224.7 13.2 224.3 12.9 C 222.8 12.9 222.4 12.6 220.2 12.2 C 221.0 12.8 215.6 12.1 218.2 12.7 C 217.5 12.5 216.4 12.7 215.8 12.4 C 216.7 12.5 215.2 12.0 215.3 12.0 C 214.2 11.9 211.8 11.4 211.7 11.5 C 214.0 11.8 214.0 12.0 214.6 12.3 C 211.3 11.9 208.3 11.4 208.6 11.2 C 208.6 11.3 208.1 11.2 207.9 11.3 C 209.1 11.4 209.9 11.9 208.5 11.8 C 208.8 11.5 207.8 11.3 206.7 11.1 C 206.7 11.4 202.2 10.5 203.0 10.9 C 204.8 10.9 206.2 11.5 204.8 11.5 C 203.7 11.1 201.2 10.7 201.8 10.5 C 201.1 10.5 200.5 10.6 199.9 10.6 C 199.3 10.7 200.7 10.9 200.5 11.0 C 199.5 10.9 198.1 10.8 198.0 10.7 C 200.5 10.9 196.7 10.4 199.3 10.5 C 197.7 10.4 197.3 10.2 196.1 10.0 C 196.1 10.1 195.6 10.1 195.5 10.1 C 196.6 10.1 197.7 10.3 197.4 10.6 C 195.1 10.4 195.5 10.1 193.6 10.0 C 193.0 10.1 190.4 10.2 189.1 9.9 C 191.7 10.1 189.0 9.8 190.5 9.8 C 192.7 10.1 193.4 9.9 194.2 9.8 C 193.3 9.5 191.4 9.3 191.1 9.6 C 192.3 9.7 192.3 9.6 193.0 9.6 C 192.9 9.7 192.6 9.8 191.7 9.8 C 190.7 9.5 188.3 9.5 189.9 9.3 C 188.2 9.3 186.5 8.9 184.8 9.0 C 186.6 9.2 188.0 9.4 188.5 9.6 C 187.0 9.6 185.4 9.2 185.4 9.4 C 185.5 9.6 188.0 9.7 188.5 9.9 C 186.5 10.0 183.5 9.1 186.0 9.8 C 184.9 9.7 183.3 9.6 182.8 9.4 C 184.2 9.5 182.7 9.1 182.1 9.0 C 181.0 8.9 180.0 8.9 179.6 9.0 C 181.4 9.0 182.7 9.4 181.5 9.4 C 181.2 9.2 180.8 9.3 180.2 9.4 C 180.1 9.2 178.1 9.2 177.7 9.1 C 177.8 9.2 178.8 9.2 178.9 9.4 C 177.7 9.4 176.0 9.6 175.1 9.3 C 175.9 9.3 176.9 9.4 177.0 9.3 C 173.7 8.7 172.6 8.4 168.7 8.1 C 169.2 8.1 169.4 8.1 169.3 8.0 C 166.8 7.9 165.1 7.7 165.5 7.5 C 163.9 7.6 163.1 7.7 162.2 7.8 C 163.9 8.0 164.4 7.8 165.5 7.9 C 164.8 8.0 166.7 8.5 167.4 8.6 C 170.2 8.5 170.3 8.9 173.2 8.8 C 172.4 9.1 175.2 9.0 174.4 9.2 C 171.8 8.7 169.3 8.9 165.4 8.7 C 165.9 8.5 166.4 8.3 164.8 8.2 C 162.4 8.0 163.5 8.4 161.5 8.3 C 160.7 8.1 161.9 8.0 160.9 7.9 C 160.2 8.0 158.3 8.0 157.7 7.7 C 160.3 7.8 157.2 7.5 158.9 7.4 C 158.1 7.4 157.5 7.4 157.0 7.3 C 159.6 7.6 154.4 7.7 156.3 7.9 C 152.7 8.0 156.1 7.3 153.1 7.3 C 154.6 7.5 152.7 7.6 150.5 7.6 C 149.9 7.3 147.7 7.3 146.0 7.3 C 146.9 7.4 147.6 7.4 146.0 7.6 C 146.8 7.7 148.4 7.6 149.2 7.5 C 149.2 7.6 149.5 7.7 149.9 7.8 C 147.7 7.8 148.6 7.9 147.9 8.0 C 147.3 7.9 145.7 8.0 145.3 7.8 C 145.3 7.9 144.8 7.9 144.7 8.0 C 147.4 8.0 144.3 8.4 146.0 8.4 C 147.2 8.3 146.4 8.1 147.9 8.1 C 149.4 8.4 146.7 8.4 146.0 8.7 C 147.2 8.9 148.8 8.5 149.2 8.8 C 147.6 9.1 144.9 9.0 142.8 8.9 C 142.9 9.3 139.2 9.0 138.9 9.4 C 138.6 9.3 138.2 9.2 137.6 9.2 C 137.0 9.5 136.3 9.2 135.7 9.2 C 135.6 9.3 135.8 9.4 136.3 9.5 C 133.7 9.5 133.0 9.5 129.9 9.8 C 129.4 9.7 128.8 9.6 128.6 9.4 C 129.3 9.3 130.0 9.2 130.5 9.1 C 126.3 9.3 129.0 9.8 126.0 9.6 C 126.2 9.8 128.2 9.9 126.7 10.1 C 124.0 9.9 120.2 10.5 120.3 9.8 C 117.9 9.8 116.4 10.4 115.3 10.2 C 114.5 10.2 114.3 10.3 114.0 10.5 C 114.7 10.5 115.7 10.6 116.5 10.6 C 117.9 10.4 118.6 10.5 117.2 10.3 C 119.3 10.1 119.8 10.2 121.0 10.2 C 118.1 10.6 115.4 10.7 115.3 11.0 C 114.3 11.0 113.6 10.9 112.8 10.8 C 112.5 11.0 109.3 11.4 109.0 11.2 C 111.2 11.0 113.4 10.5 111.5 10.5 C 106.1 11.3 103.1 11.2 98.5 12.1 C 98.4 12.0 98.7 11.8 97.9 11.8 C 97.9 12.0 97.7 12.1 97.3 12.3 C 95.9 12.4 95.0 12.4 93.1 12.8 C 93.2 12.5 92.9 12.4 91.8 12.5 C 91.2 12.8 89.4 13.6 88.3 13.7 C 89.5 13.5 87.9 13.5 87.1 13.6 C 87.8 13.8 81.8 14.3 83.6 14.3 C 81.2 14.8 80.1 14.8 80.1 14.7 C 79.2 14.9 78.6 15.1 77.8 15.3 C 77.2 15.1 73.3 16.2 72.7 16.2 C 74.1 16.0 74.3 15.6 73.2 15.8 C 72.5 16.2 68.9 17.2 68.3 17.3 C 68.5 17.2 68.7 16.9 70.4 16.4 C 67.5 17.0 67.6 17.4 66.7 17.9 C 66.7 17.5 65.4 18.1 65.0 18.3 C 64.1 18.3 65.1 18.2 64.9 18.0 C 63.9 18.2 63.5 18.1 62.2 18.5 C 62.7 18.7 61.2 18.9 60.7 19.0 C 60.5 19.2 59.8 19.5 58.6 19.9 C 60.1 19.1 52.0 21.4 54.0 21.1 C 52.5 21.8 52.3 21.4 50.4 22.0 C 50.1 22.3 48.9 22.6 50.0 22.4 C 49.2 22.7 48.3 22.9 48.0 23.0 C 47.6 23.1 47.2 23.2 45.6 23.8 C 47.1 23.6 42.4 24.9 43.3 25.0 C 41.8 25.1 39.5 26.6 37.0 27.3 C 37.0 27.4 36.4 27.7 36.3 27.8 C 36.0 28.1 39.2 26.7 37.2 27.7 C 34.6 28.6 35.9 27.9 35.5 28.0 C 29.0 31.1 22.5 34.8 18.2 38.2 C 18.8 37.9 18.7 38.0 17.9 38.7 C 16.4 39.4 12.6 43.6 12.2 44.4 C 11.7 44.5 10.5 46.8 10.2 47.1 C 10.4 46.7 10.7 45.8 10.2 46.6 C 10.1 47.4 9.5 48.0 9.3 48.9 C 8.9 49.2 8.2 51.8 8.2 50.5 C 8.0 51.0 7.9 51.3 7.8 51.5 C 8.0 51.7 7.9 52.2 8.3 51.3 C 7.4 53.5 7.6 54.1 7.5 55.9 C 7.6 56.2 7.7 54.8 7.8 55.9 C 7.7 55.9 7.7 55.9 7.6 55.9 C 7.6 56.2 7.7 56.4 7.6 56.5 C 7.5 56.5 7.5 55.9 7.2 55.9 C 7.3 56.7 7.1 57.4 7.3 57.6 C 7.2 56.4 7.8 57.2 7.6 58.0 C 7.4 57.3 8.3 60.8 8.9 61.8 C 8.8 62.5 8.4 60.6 8.2 60.8 C 9.0 62.9 9.0 62.8 9.3 62.9 C 9.8 64.0 9.9 64.5 10.9 65.8 C 11.4 66.6 10.4 65.4 11.0 66.3 C 11.4 66.7 11.6 66.8 12.3 67.6 C 13.4 69.8 18.9 73.7 21.6 76.5 C 20.4 75.5 22.1 76.5 23.9 77.7 C 24.0 77.8 23.7 77.8 24.3 78.2 C 24.3 78.0 24.9 78.3 26.2 79.0 C 26.2 79.2 25.9 79.2 26.6 79.6 C 27.3 79.6 28.8 80.8 29.9 81.2 C 30.2 81.6 27.5 80.0 27.2 80.1 C 30.3 82.0 31.0 82.1 33.7 83.4 C 32.3 82.8 34.7 84.1 35.1 84.4 C 34.5 83.9 36.8 84.8 35.3 83.9 C 36.3 84.4 38.0 85.1 38.2 85.3 C 37.6 85.0 36.7 84.6 36.6 84.7 C 38.0 85.2 39.7 86.2 40.5 86.3 C 39.5 85.9 39.0 85.6 39.0 85.4 C 39.4 85.5 39.9 85.6 40.7 85.9 C 38.2 85.5 45.0 87.9 45.5 87.9 C 46.0 88.5 46.4 88.6 46.1 88.7 C 49.1 89.8 49.2 89.5 50.3 89.8 C 49.9 90.0 49.5 90.1 51.0 90.7 C 50.8 90.3 52.7 91.0 52.2 90.4 C 56.4 91.7 57.3 92.3 59.9 93.0 C 60.0 92.9 59.2 92.6 60.0 92.8 C 61.2 93.2 62.2 93.6 63.0 94.0 C 63.8 94.0 62.8 93.7 63.6 93.8 C 65.6 94.6 65.0 94.7 66.8 95.4 C 69.0 95.7 68.2 95.6 69.6 95.7 C 69.0 95.5 68.3 95.3 69.1 95.4 C 70.4 96.0 70.9 96.4 71.2 96.5 C 70.2 96.3 69.4 96.1 69.0 95.9 C 68.6 96.0 67.3 95.6 68.4 96.1 C 67.0 95.7 65.4 95.2 63.4 94.8 C 64.0 95.2 61.7 94.4 62.3 94.8 C 64.5 95.3 65.0 95.6 67.1 96.1 C 66.7 95.7 69.0 96.4 69.4 96.6 C 69.4 96.4 70.9 96.8 70.6 96.5 C 72.3 96.8 72.2 97.0 73.9 97.3 C 74.0 97.5 73.8 97.5 74.4 97.7 C 75.1 97.6 75.6 98.0 76.1 98.1 C 75.8 97.8 78.3 98.4 78.5 98.3 C 77.8 98.1 76.9 98.0 76.8 97.9 C 79.6 98.5 77.4 97.8 76.9 97.5 C 77.0 97.6 75.9 97.7 75.7 97.5 C 78.1 97.8 72.5 96.4 74.6 96.9 C 76.4 97.3 76.3 97.1 78.1 97.6 C 80.1 98.4 77.5 98.1 79.6 98.9 C 81.0 99.0 81.9 99.2 82.0 99.0 C 82.3 99.1 82.6 99.3 83.1 99.4 C 83.7 99.4 81.4 98.8 83.2 99.1 C 84.1 99.3 83.0 99.5 84.9 99.8 C 85.7 99.7 82.6 99.1 84.4 99.3 C 86.1 100.0 84.0 99.1 86.1 99.5 C 86.3 99.6 86.6 99.7 87.3 99.8 C 87.4 99.9 87.1 100.0 87.9 100.2 C 88.3 99.8 88.6 100.5 90.2 100.7 C 91.2 100.5 88.6 100.2 89.1 100.1 C 90.9 100.7 92.0 100.5 92.7 100.6 C 91.2 100.6 95.0 101.2 95.1 101.4 C 94.7 101.1 95.5 101.3 97.6 101.4 C 97.7 101.8 100.1 101.8 100.6 102.2 C 100.9 102.2 101.5 102.2 101.9 102.1 C 101.1 102.0 100.4 101.9 100.7 101.8 C 101.3 101.8 101.9 101.9 102.5 102.0 C 103.5 102.3 100.8 102.5 104.9 102.9 C 104.5 102.6 106.3 102.7 107.4 102.7 C 107.3 102.5 105.8 102.6 105.6 102.4 C 107.0 102.4 108.5 102.7 109.3 103.0 C 111.8 103.1 114.7 103.5 118.2 103.7 C 119.0 104.0 115.2 103.7 117.5 104.0 C 118.5 104.1 118.1 103.8 119.4 104.0 C 118.1 104.9 129.0 104.9 129.7 105.3 C 130.1 105.1 133.2 105.4 132.9 105.1 C 130.8 105.2 129.4 104.8 128.4 104.6 C 126.5 104.6 130.2 105.0 128.4 104.9 C 128.2 104.8 125.6 104.7 125.8 104.5 C 128.6 104.7 124.4 104.2 126.5 104.1 C 129.1 104.3 134.2 104.3 133.0 104.5 C 133.0 104.5 131.8 104.4 131.7 104.5 C 134.6 104.7 136.3 104.6 137.5 104.5 C 138.8 104.7 144.0 104.6 142.7 104.7 C 143.1 104.9 139.6 104.5 140.1 104.8 C 145.5 105.0 145.6 104.8 149.2 105.0 C 148.0 104.7 152.9 104.6 152.5 104.8 C 152.5 105.0 153.5 105.2 155.7 104.9 C 155.4 105.2 156.5 105.2 157.7 105.3 C 158.2 105.1 156.7 105.1 157.0 104.9 C 158.0 104.9 159.2 104.9 160.3 104.9 C 160.3 105.0 160.1 105.1 160.9 105.1 C 162.1 104.9 166.5 104.6 166.1 104.8 C 164.3 105.1 169.1 105.0 166.1 105.3 C 166.9 105.2 167.0 105.3 168.1 105.3 C 168.1 105.2 168.1 105.1 168.1 105.0 C 170.5 104.9 169.3 105.3 171.3 105.2 C 171.5 105.1 172.4 105.1 172.6 105.0 C 171.8 105.0 171.8 105.1 170.7 105.1 C 171.9 104.7 168.5 105.0 168.7 104.7 C 171.0 104.6 171.0 104.8 171.9 104.9 C 174.8 104.6 173.5 104.8 176.5 104.7 C 176.5 104.6 175.7 104.6 175.8 104.5 C 179.5 104.4 179.1 104.9 181.6 104.6 C 181.1 104.6 178.8 105.0 180.4 104.9 C 182.1 104.7 182.6 104.4 184.8 104.2 C 185.0 104.3 184.8 104.4 185.5 104.4 C 186.5 104.2 186.5 104.0 187.4 103.9 C 187.6 104.0 188.8 103.8 189.3 103.7 C 190.1 103.9 189.0 104.0 190.0 104.0 C 191.9 103.8 192.8 103.2 194.4 103.1 C 194.3 103.4 196.0 103.2 197.6 103.0 C 197.9 103.3 201.1 102.9 203.2 102.7 C 202.7 102.5 204.9 102.3 204.4 102.1 C 203.4 102.3 202.8 102.3 202.6 102.2 C 205.0 101.9 205.8 102.3 207.5 101.7 C 208.4 101.7 209.6 101.7 211.2 101.6 C 211.4 101.4 208.3 101.7 210.0 101.4 C 210.1 101.5 210.7 101.4 211.2 101.3 C 211.0 101.6 212.3 101.5 213.1 101.5 C 214.5 101.1 217.5 101.0 216.1 100.9 C 218.3 100.5 216.9 101.2 218.6 100.9 C 217.7 100.7 220.6 100.2 219.1 100.3 C 221.4 99.8 221.3 100.3 220.4 100.5 C 222.5 100.3 222.9 100.0 224.0 99.9 C 222.9 99.9 226.1 99.2 224.5 99.6 C 224.0 99.9 226.4 99.4 226.9 99.4 C 226.1 99.4 227.2 99.2 225.7 99.3 C 227.2 98.9 229.5 98.5 231.0 98.5 C 232.8 97.9 234.6 97.5 233.8 97.9 C 235.6 97.5 234.9 97.7 236.7 97.3 C 236.7 97.2 236.2 97.3 236.1 97.3 C 238.5 96.8 238.1 97.0 241.2 96.3 C 240.9 96.7 242.9 96.2 243.5 96.2 C 242.2 96.5 241.2 96.7 240.1 96.9 C 239.9 97.1 241.0 96.9 240.2 97.1 C 240.1 97.0 239.6 97.1 239.1 97.2 C 241.1 97.0 236.5 98.2 237.9 97.6 C 238.0 97.7 238.1 97.7 238.5 97.6 C 238.1 97.4 238.1 97.5 238.4 97.2 C 237.4 97.5 236.5 97.4 236.2 97.7 C 236.2 97.8 237.2 97.5 237.4 97.6 C 234.8 98.3 236.5 97.5 234.5 98.0 C 234.1 98.3 235.2 98.2 235.7 98.2 C 233.8 98.6 232.2 99.0 231.6 98.9 C 229.9 99.3 231.8 99.1 230.6 99.4 C 229.9 99.4 229.9 99.2 228.7 99.5 C 227.5 99.8 229.5 99.5 228.2 99.8 C 226.8 99.9 229.1 99.3 226.9 99.6 C 227.5 99.9 225.0 99.9 225.2 100.1 C 226.5 99.8 226.5 100.2 225.8 100.1 C 222.9 100.3 221.0 101.5 218.0 101.4 C 218.1 101.5 217.6 101.6 217.5 101.7 C 219.7 101.5 222.9 101.0 223.5 101.2 C 225.3 100.8 225.0 100.7 225.3 100.5 C 227.3 100.4 227.2 100.5 226.0 101.1 C 222.6 101.8 221.1 101.8 218.8 102.1 C 217.6 102.5 219.0 102.2 219.4 102.2 C 212.3 103.1 217.8 103.0 215.2 103.3 C 215.3 103.1 214.7 103.2 214.0 103.2 C 214.0 103.3 213.0 103.5 212.8 103.6 C 213.3 103.5 213.5 103.5 213.4 103.6 C 211.6 104.0 212.3 103.6 212.2 103.5 C 213.5 103.3 214.4 103.2 214.6 103.0 C 212.8 103.4 211.4 103.3 210.3 103.7 C 208.6 103.6 211.1 102.9 210.2 102.8 C 210.5 102.6 209.1 103.6 207.8 103.8 C 205.6 104.1 205.5 104.4 203.4 104.6 C 202.9 104.4 205.5 104.2 205.3 104.1 C 204.7 104.1 204.6 104.1 204.0 104.1 C 202.6 104.3 202.7 104.5 201.5 104.7 C 200.9 104.6 200.6 104.7 199.7 104.9 C 198.3 105.0 200.5 104.7 199.0 104.8 C 197.5 104.9 196.4 105.3 195.9 105.3 C 195.7 105.2 196.0 105.1 195.2 105.1 C 193.5 105.5 193.0 105.5 195.3 105.5 C 193.3 105.6 192.4 105.8 192.7 106.0 C 195.7 105.8 196.5 105.7 197.9 105.8 C 198.4 105.5 199.3 105.6 200.4 105.6 C 199.7 105.2 201.7 105.4 202.3 105.1 C 201.5 105.2 200.8 105.2 200.3 105.2 C 203.5 104.9 203.4 104.9 205.9 104.2 C 206.0 104.3 206.3 104.4 206.6 104.4 C 205.8 104.6 203.5 104.8 203.5 105.0 C 205.3 105.1 205.9 104.6 207.9 104.6 C 208.7 104.3 206.2 104.5 207.9 104.3 C 208.7 104.4 209.7 104.4 211.0 104.3 C 212.3 104.1 213.0 103.9 214.0 103.6 C 214.2 103.7 214.3 103.8 215.3 103.6 C 215.2 103.5 214.2 103.6 215.3 103.4 C 218.5 103.2 220.7 103.1 223.8 102.4 C 222.7 102.5 220.1 102.7 221.4 102.5 C 222.8 102.4 224.7 101.8 226.1 101.7 C 226.6 101.7 224.4 102.0 225.0 102.3 C 226.4 102.0 227.2 101.9 227.9 101.8 C 227.9 101.7 229.5 101.4 229.1 101.3 C 227.9 101.5 227.7 101.8 227.3 101.8 C 228.2 100.9 231.7 101.2 233.8 100.7 C 235.2 100.3 232.7 100.7 234.3 100.3 C 235.3 100.0 236.0 100.4 234.4 100.8 C 233.4 101.0 233.0 101.4 232.7 101.1 C 232.2 101.2 231.5 101.4 231.6 101.4 C 232.4 101.3 232.2 101.5 232.7 101.4 C 231.6 101.6 231.5 102.1 230.4 102.1 C 231.1 101.9 231.3 101.8 231.6 101.7 C 228.5 102.4 227.5 102.3 225.6 102.6 C 226.7 102.5 225.6 102.7 225.7 102.9 C 227.1 102.6 229.7 102.2 228.1 102.6 C 227.0 102.5 226.3 103.4 225.2 103.3 C 226.0 103.1 225.8 103.0 226.3 102.9 C 225.1 103.0 225.1 102.8 223.9 103.0 C 220.0 104.1 216.9 103.9 210.5 105.3 C 208.3 105.6 212.6 104.9 212.3 104.8 C 211.7 104.9 211.6 104.8 211.1 104.9 C 211.0 105.1 209.9 105.0 209.2 105.3 C 209.3 105.1 206.3 105.7 204.8 105.6 C 204.8 105.7 205.0 105.9 204.2 106.0 C 199.6 106.2 191.2 107.4 187.6 107.4 C 187.8 107.6 186.2 107.7 185.8 107.8 C 183.5 107.9 184.5 107.7 181.2 108.1 C 179.6 108.3 181.5 107.9 181.8 107.9 C 176.9 108.3 172.6 108.2 169.5 108.6 C 167.9 108.7 169.5 108.4 166.2 108.5 C 166.1 108.8 161.0 108.4 160.3 108.8 C 158.3 108.9 154.7 108.4 156.3 108.8 C 153.7 108.8 155.5 108.5 154.4 108.4 C 152.5 108.5 154.9 109.1 153.1 109.1 C 153.3 108.8 151.7 108.9 150.5 108.7 C 151.9 108.7 152.9 108.7 153.1 108.5 C 151.8 108.7 151.9 108.5 149.8 108.5 C 148.3 108.6 143.9 108.8 142.6 108.4 C 142.5 108.5 142.9 108.5 143.2 108.6 C 141.9 108.6 140.4 108.3 140.6 108.6 C 137.7 108.5 136.4 108.2 134.7 108.4 C 133.5 108.4 135.2 108.2 131.5 108.0 C 131.4 108.2 124.8 107.8 123.1 107.5 C 123.0 107.8 122.6 107.5 121.8 107.4 C 121.7 107.5 121.8 107.6 121.1 107.6 C 121.0 107.5 120.4 107.5 119.8 107.5 C 120.3 107.1 117.4 107.4 117.3 107.1 C 117.8 107.1 117.9 106.9 117.3 106.9 C 117.1 107.1 114.4 106.5 114.7 106.7 C 115.3 106.8 117.1 106.9 116.6 107.1 C 114.1 107.0 115.1 106.8 113.4 106.6 C 113.5 106.7 114.5 106.9 113.4 106.8 C 111.7 106.6 113.3 106.8 112.2 106.5 C 111.3 106.4 109.6 106.4 109.0 106.4 C 109.1 106.4 108.6 106.2 108.4 106.1 C 105.1 105.7 97.8 105.0 94.7 104.3 C 94.5 104.3 93.8 104.3 94.0 104.5 C 92.2 104.1 92.3 104.2 90.4 103.8 C 90.4 103.9 90.4 104.0 90.4 104.1 C 87.9 103.8 90.2 103.7 88.6 103.5 C 88.3 104.0 87.7 103.1 86.2 102.9 C 86.0 103.0 85.3 102.9 85.5 103.1 C 83.2 102.7 83.4 102.3 81.4 102.1 C 81.9 102.2 82.1 103.1 81.8 103.3 C 81.5 103.1 80.9 102.9 80.1 102.7 C 81.1 102.6 80.7 101.6 77.9 101.4 C 79.4 101.6 80.0 101.8 79.6 101.9 C 77.5 101.5 76.8 101.2 75.0 100.8 C 74.7 101.0 75.9 101.3 75.4 101.5 C 75.0 101.4 74.7 101.4 74.8 101.5 C 72.9 101.1 72.9 100.9 70.8 100.6 C 70.9 100.4 71.3 100.5 72.0 100.8 C 71.9 100.6 72.0 100.4 73.2 100.6 C 73.4 100.8 72.6 100.9 74.3 101.2 C 74.4 101.1 74.4 100.9 74.4 100.8 C 73.1 100.5 70.2 99.7 69.9 99.7 C 70.4 99.9 71.4 100.2 70.9 100.4 C 68.7 99.8 68.2 99.4 66.5 98.8 C 63.4 98.2 58.2 96.7 58.7 97.2 C 57.0 96.6 57.6 96.8 56.1 96.3 C 56.5 96.7 54.3 95.9 54.4 96.1 C 56.3 96.6 55.7 96.5 57.6 97.0 C 57.5 97.1 57.2 97.1 56.4 97.0 C 56.4 96.8 55.6 96.6 54.4 96.2 C 54.6 96.3 55.6 96.9 54.3 96.5 C 54.2 96.4 53.9 96.3 53.3 96.1 C 53.3 96.0 53.3 95.9 53.4 95.7 C 54.1 95.9 55.0 96.1 55.6 96.1 C 55.0 96.0 55.0 95.9 54.5 95.7 C 54.1 95.8 52.1 95.0 51.9 95.1 C 52.7 95.3 53.2 95.7 52.3 95.4 C 52.2 95.3 50.8 94.8 50.3 94.8 C 52.0 95.5 51.3 95.2 52.2 95.8 C 51.1 95.5 50.7 95.3 50.3 95.1 C 50.0 95.0 49.8 94.9 49.5 94.7 C 49.1 94.6 49.1 94.6 48.1 94.3 C 48.1 94.1 48.2 93.9 48.8 94.0 C 48.2 93.6 45.8 92.7 43.7 92.0 C 41.7 91.4 39.8 90.7 38.9 90.3 C 40.1 90.9 41.7 91.1 39.8 90.3 C 39.8 90.4 38.4 89.8 38.1 89.8 C 37.3 90.0 38.8 90.9 40.2 91.7 C 38.7 91.1 38.3 91.0 36.9 90.5 C 36.5 90.1 38.1 90.4 36.4 89.6 C 35.8 89.8 33.1 88.2 32.4 88.2 C 33.6 88.7 34.4 89.2 33.1 88.7 C 33.4 88.6 31.0 87.6 31.0 87.5 C 32.9 88.3 33.5 88.3 34.8 88.9 C 33.2 88.1 36.0 89.2 33.4 88.0 C 32.2 87.6 31.5 87.6 28.9 86.2 C 28.0 85.7 29.0 85.9 27.7 85.3 C 27.9 85.7 25.2 84.3 27.0 85.0 C 26.0 84.5 25.6 84.2 25.1 83.8 C 26.2 84.7 20.2 81.6 21.0 82.2 C 21.2 82.0 21.0 81.5 20.8 81.3 C 19.6 80.8 18.4 79.8 15.9 77.9 C 15.8 78.2 15.5 77.6 14.4 76.8 C 14.1 76.8 15.0 77.6 14.3 77.0 C 13.2 75.9 13.2 75.9 13.0 75.6 C 12.2 74.9 11.7 74.4 11.4 74.0 C 11.3 74.0 11.4 74.3 11.6 74.5 C 9.0 71.6 7.6 70.3 6.0 67.8 C 6.6 68.9 7.1 68.9 6.5 68.1 C 6.2 67.6 5.8 67.2 5.6 66.9 C 5.7 67.6 5.7 67.3 5.0 66.0 C 4.3 65.0 4.9 66.7 4.4 65.8 C 4.1 64.8 4.5 65.3 4.3 64.7 C 4.1 64.3 3.9 63.8 3.7 63.4 C 3.9 64.2 3.4 63.4 3.1 62.6 C 3.6 63.1 3.4 62.7 2.9 61.1 C 3.0 60.9 3.3 61.7 3.1 61.0 C 3.1 60.7 2.4 59.4 2.5 58.3 C 2.6 58.6 2.6 58.8 2.7 58.7 C 2.4 57.5 2.6 56.5 2.7 55.4 C 2.5 56.5 2.3 55.9 2.2 56.4 C 2.4 55.3 2.2 53.9 2.6 53.1 C 2.3 54.7 3.0 53.2 3.2 52.2 C 3.0 52.0 2.8 53.6 2.6 53.1 C 2.5 52.5 3.0 51.4 2.9 50.8 C 2.8 50.8 2.8 51.5 2.7 51.7 C 2.8 50.8 2.5 51.9 2.6 51.2 C 3.0 50.8 2.7 50.2 2.9 49.7 C 3.1 49.2 3.9 48.1 3.9 47.5 C 3.8 47.5 3.5 48.3 3.4 48.4 C 4.2 45.8 4.9 45.2 6.1 42.9 C 6.4 42.7 6.7 42.4 7.2 41.8 C 7.0 41.7 7.3 41.3 7.6 40.8 C 8.4 39.9 9.3 39.1 10.4 38.0 C 10.4 38.4 9.9 39.0 11.4 37.5 C 11.5 37.3 10.8 37.9 11.3 37.4 C 11.4 37.4 11.8 37.1 11.8 36.9 C 11.7 36.9 11.7 36.8 11.7 36.8 C 11.2 37.2 10.8 37.6 10.4 38.0 C 10.4 37.9 10.2 37.9 9.8 38.2 C 11.4 36.3 11.7 36.8 12.8 35.5 C 13.3 35.6 13.8 35.3 12.9 36.4 C 13.9 35.4 14.7 34.6 14.9 34.2 C 13.5 35.4 13.8 34.8 13.3 35.0 C 14.2 34.3 14.1 34.2 14.5 33.7 C 15.7 33.0 13.6 35.0 15.8 33.3 C 14.0 34.4 17.1 32.0 18.4 31.3 C 18.1 31.3 17.6 31.6 18.2 31.1 C 21.4 28.7 21.6 29.6 23.6 27.9 C 23.5 28.2 24.5 27.6 25.0 27.4 C 23.2 28.5 22.8 28.8 22.0 29.3 C 22.2 29.3 22.7 29.0 23.3 28.8 C 23.2 28.6 23.7 28.3 24.5 27.9 C 25.0 27.5 24.6 27.3 26.1 26.3 C 26.2 26.3 26.1 26.5 26.9 26.1 C 27.5 25.5 26.4 26.7 29.8 25.0 C 29.1 25.2 28.7 25.3 28.9 25.0 C 30.5 24.0 30.2 24.3 32.5 23.2 C 33.5 23.1 31.1 24.3 30.6 24.8 C 32.1 24.0 33.3 23.2 35.0 22.6 C 33.6 23.1 34.8 22.3 36.3 21.6 C 37.7 21.1 36.4 22.0 38.1 21.3 C 39.4 20.7 40.0 20.2 38.7 20.6 C 41.8 19.5 41.0 19.5 43.7 18.6 C 43.8 18.7 43.1 19.0 42.0 19.3 C 42.2 19.3 41.9 19.5 42.9 19.2 C 43.8 18.7 45.2 18.2 46.7 17.6 C 48.2 17.0 49.0 16.7 49.6 16.4 C 52.0 16.1 54.6 14.8 57.0 14.2 C 56.1 14.8 60.2 13.4 61.4 13.4 C 62.2 13.1 64.3 12.0 63.5 12.4 C 63.8 12.7 65.2 12.2 66.4 12.0 C 66.4 11.9 66.4 11.8 66.4 11.8 C 68.9 11.1 69.5 11.2 70.4 11.2 C 73.4 10.4 76.9 10.0 80.8 9.0 C 81.8 9.1 82.7 8.8 85.0 8.6 C 84.9 8.4 86.8 8.1 88.6 7.8 C 88.1 7.6 89.8 7.4 89.8 7.2 C 88.2 7.5 88.7 7.1 87.9 7.2 C 90.0 7.0 91.0 6.4 92.7 6.4 C 90.7 6.8 90.1 7.2 89.8 7.6 C 92.3 7.2 93.6 7.1 94.1 7.2 C 94.3 7.0 94.0 6.9 93.4 6.9 C 94.3 6.8 95.1 6.7 95.9 6.6 C 96.1 6.7 95.0 6.9 95.9 6.8 C 96.5 6.6 97.1 6.5 97.7 6.3 C 98.5 6.5 96.8 6.6 96.6 6.8 C 99.9 6.4 98.4 6.1 100.2 5.8 C 100.7 5.9 100.6 6.2 102.1 6.1 C 102.7 5.8 102.9 5.6 104.6 5.4 C 105.7 5.3 104.6 5.7 105.9 5.6 C 106.0 5.5 106.6 5.5 107.1 5.5 C 107.1 5.3 107.6 5.2 108.4 5.1 C 108.5 5.2 109.8 5.0 110.3 4.9 C 110.4 5.0 112.4 5.1 112.8 4.9 C 112.8 4.8 111.7 4.9 111.6 4.8 C 113.0 4.7 114.0 4.6 114.7 4.4 C 115.2 5.0 117.5 4.3 120.5 4.4 C 122.3 4.0 120.1 4.0 122.4 3.6 C 123.8 3.7 122.1 3.9 122.4 4.1 C 122.8 4.1 125.0 4.1 125.0 3.9 C 125.0 3.8 123.9 3.9 123.8 3.9 C 125.4 3.5 125.4 3.8 126.4 3.9 C 126.2 3.7 127.3 3.5 127.6 3.4 C 132.3 2.9 132.2 3.4 134.1 3.5 C 134.1 3.4 135.3 3.4 135.4 3.3 C 134.1 3.4 132.3 3.3 134.1 3.2 C 133.8 3.3 136.5 3.1 136.7 3.0 C 136.4 2.9 134.7 3.0 135.4 2.7 C 137.9 2.5 136.9 3.1 138.7 2.8 C 138.9 2.9 137.8 3.0 137.4 3.0 C 138.1 3.0 139.2 3.0 139.4 3.1 C 138.4 3.2 138.4 3.3 138.0 3.5 C 139.3 3.2 141.6 3.4 140.0 3.1 C 142.6 3.1 145.1 2.9 143.3 2.7 C 145.4 2.6 144.2 3.0 145.9 2.7 C 145.7 3.0 145.2 3.2 146.6 3.3 C 146.8 3.2 148.0 3.1 147.8 2.9 C 151.0 2.9 151.9 3.1 153.2 3.4 C 152.0 3.0 153.5 3.3 155.1 3.0 C 156.0 3.1 155.1 3.4 157.7 3.4 C 155.0 3.0 160.9 3.3 159.7 2.9 C 162.9 3.1 162.9 3.1 166.3 3.3 C 165.9 3.4 165.1 3.5 163.6 3.5 C 164.7 3.3 160.8 3.3 161.0 3.4 C 161.0 3.5 161.0 3.5 161.0 3.6 C 163.5 3.6 165.2 3.7 166.3 3.8 C 166.8 3.7 167.9 3.6 167.5 3.3 C 169.9 3.7 172.4 3.3 173.5 3.7 C 172.6 3.6 171.9 3.6 172.1 3.8 C 173.1 3.7 174.2 3.7 174.1 3.5 C 172.2 3.4 171.8 3.3 170.9 3.5 C 171.7 3.3 169.0 3.1 170.9 3.1 C 170.8 3.5 174.8 3.1 173.5 3.3 C 171.4 3.3 175.8 3.6 176.0 3.8 C 176.0 3.8 176.0 3.8 176.0 3.8 Z M 224.4 102.9 C 226.2 102.5 224.0 102.7 222.6 102.9 C 223.1 102.9 223.3 103.0 223.3 103.1 C 223.8 103.0 224.3 102.9 224.4 102.9 C 224.4 102.9 224.4 102.9 224.4 102.9 Z M 204.4 102.3 C 203.8 102.7 206.9 102.1 208.2 102.0 C 207.8 102.0 207.4 102.0 208.2 101.8 C 206.8 101.8 206.4 102.3 204.4 102.3 C 204.4 102.3 204.4 102.3 204.4 102.3 Z M 132.9 105.5 C 133.4 105.5 134.7 105.5 134.8 105.6 C 135.6 105.6 135.4 105.5 135.5 105.4 C 137.0 105.4 135.1 105.7 137.5 105.7 C 138.4 105.3 133.4 105.0 132.9 105.5 C 132.9 105.5 132.9 105.5 132.9 105.5 Z M 151.1 6.9 C 152.1 7.0 149.9 7.2 150.5 7.4 C 154.1 7.2 151.3 6.9 156.3 7.0 C 156.0 7.0 155.6 6.9 155.7 6.8 C 153.4 6.9 153.2 7.1 153.7 6.6 C 152.7 6.6 152.4 7.1 151.1 6.9 C 151.1 6.9 151.1 6.9 151.1 6.9 Z M 197.4 10.0 C 197.1 9.9 196.8 9.8 196.8 9.7 C 195.3 9.7 195.6 9.7 193.6 9.5 C 193.9 9.8 195.8 10.0 197.4 10.0 C 197.4 10.0 197.4 10.0 197.4 10.0 Z M 300.0 50.2 C 300.1 50.4 300.1 50.7 300.2 50.9 C 300.3 50.7 300.9 51.2 300.3 50.1 C 300.3 50.0 300.3 50.2 300.4 50.4 C 300.2 50.2 300.0 49.7 299.9 49.8 C 300.1 50.1 300.0 50.2 300.0 50.2 C 300.0 50.2 300.0 50.2 300.0 50.2 Z M 285.0 79.4 C 287.1 77.8 281.3 80.7 285.0 79.4 C 285.0 79.4 285.0 79.4 285.0 79.4 C 285.0 79.4 285.0 79.4 285.0 79.4 Z M 291.0 78.8 C 291.1 78.8 291.6 78.5 291.5 78.4 C 293.3 77.2 291.7 78.5 292.7 77.9 C 293.9 76.8 291.8 78.1 293.4 76.7 C 293.0 76.9 292.1 78.1 291.0 78.8 C 291.0 78.8 291.0 78.8 291.0 78.8 Z M 21.3 29.5 C 19.7 30.6 19.4 31.1 19.3 31.5 C 20.3 30.8 21.2 30.2 21.6 30.1 C 23.6 28.7 20.2 30.8 19.8 31.0 C 19.9 30.7 21.4 29.7 21.3 29.5 C 21.3 29.5 21.3 29.5 21.3 29.5 Z M 16.4 33.0 C 15.9 33.5 15.1 34.3 15.1 34.5 C 16.0 33.8 16.1 33.8 16.2 33.8 C 16.9 33.1 15.8 33.7 16.4 33.0 C 16.4 33.0 16.4 33.0 16.4 33.0 Z M 26.4 26.9 C 25.6 27.4 26.0 27.3 25.9 27.5 C 27.1 26.8 27.3 26.8 28.6 26.2 C 28.6 26.1 28.5 26.0 28.5 25.9 C 27.4 26.5 27.4 26.6 26.5 27.1 C 26.5 27.0 26.4 27.0 26.4 26.9 C 26.4 26.9 26.4 26.9 26.4 26.9 Z M 12.4 36.8 C 10.1 38.8 9.6 40.1 8.8 41.7 C 10.0 40.1 10.9 38.4 12.2 37.4 C 13.5 36.0 11.6 37.7 11.6 37.6 C 11.6 37.5 12.1 37.1 12.4 36.8 C 12.4 36.8 12.4 36.8 12.4 36.8 Z M 2.8 56.8 C 2.7 57.3 3.1 58.2 3.3 59.6 C 3.4 59.3 3.4 59.1 3.5 59.0 C 3.2 57.1 2.9 58.3 2.8 56.8 C 2.8 56.8 2.8 56.8 2.8 56.8 Z M 6.9 67.9 C 7.6 69.0 6.6 67.2 7.1 67.7 C 6.3 66.5 5.6 65.1 5.4 65.3 C 6.3 66.6 6.5 66.8 6.9 67.9 C 6.9 67.9 6.9 67.9 6.9 67.9 Z M 13.3 75.3 C 14.7 76.3 13.0 74.5 13.7 74.8 C 13.2 74.4 13.2 74.6 13.1 74.6 C 12.8 74.3 12.5 73.9 11.9 73.4 C 12.2 73.9 13.7 75.2 13.3 75.3 C 13.3 75.3 13.3 75.3 13.3 75.3 Z M 68.2 12.4 C 67.3 12.7 67.6 12.8 65.5 13.3 C 68.7 12.5 67.1 13.6 71.2 12.6 C 70.6 12.6 71.0 12.4 71.2 12.5 C 72.8 12.0 69.7 12.7 71.1 12.1 C 70.0 12.4 70.7 12.5 69.6 12.8 C 68.3 12.8 67.6 12.9 68.2 12.4 C 68.2 12.4 68.2 12.4 68.2 12.4 Z M 71.3 12.8 C 72.5 12.6 72.4 12.1 73.0 12.3 C 73.5 12.1 73.4 12.1 73.5 12.0 C 73.1 12.1 73.0 12.1 72.9 12.0 C 71.9 12.3 71.0 12.6 71.3 12.8 C 71.3 12.8 71.3 12.8 71.3 12.8 Z M 60.8 15.4 C 62.6 14.8 63.2 14.8 64.0 14.4 C 64.8 14.6 65.2 13.9 66.3 14.0 C 68.1 13.5 66.7 13.7 66.2 13.7 C 68.0 13.1 66.7 13.8 68.5 13.3 C 68.7 12.9 66.5 13.6 66.7 13.2 C 65.3 13.6 65.4 13.7 64.5 14.0 C 63.9 14.2 64.0 14.0 63.9 13.9 C 62.4 14.4 62.4 14.2 61.2 14.6 C 60.9 14.8 61.5 14.8 62.9 14.4 C 61.4 14.8 60.8 15.2 59.1 15.5 C 60.3 15.0 54.9 16.4 55.4 16.7 C 56.9 16.3 56.4 16.2 57.0 16.0 C 58.9 15.7 60.0 15.3 60.8 15.4 C 60.8 15.4 60.8 15.4 60.8 15.4 Z M 27.5 27.2 C 26.9 27.5 26.3 27.7 25.5 28.2 C 25.3 28.1 26.5 27.5 25.3 27.9 C 23.9 28.7 23.7 28.9 22.9 29.4 C 23.4 29.3 26.3 27.9 24.9 28.8 C 25.4 28.7 26.3 28.2 27.6 27.5 C 26.0 28.0 29.6 26.4 31.0 25.8 C 30.7 25.5 33.6 24.6 34.6 23.9 C 33.6 24.1 30.7 25.7 29.5 26.3 C 30.1 26.0 25.9 27.6 27.5 27.2 C 27.5 27.2 27.5 27.2 27.5 27.2 Z M 75.8 11.7 C 76.1 11.5 77.4 11.2 76.4 11.4 C 76.9 11.2 78.0 11.1 77.5 10.8 C 78.1 10.7 78.7 10.6 79.2 10.5 C 79.0 10.6 77.4 10.9 78.1 11.0 C 79.3 10.7 78.8 10.9 80.4 10.6 C 79.6 11.0 80.5 10.8 80.0 11.2 C 80.4 11.0 81.8 10.8 81.7 10.6 C 83.9 10.2 81.1 11.0 84.1 10.5 C 84.1 10.7 82.0 11.0 81.2 11.1 C 80.8 11.4 84.9 10.5 87.1 10.2 C 85.1 10.3 86.6 9.8 87.6 9.5 C 88.3 9.4 87.6 9.6 88.9 9.6 C 89.9 9.4 90.4 9.2 90.7 9.3 C 91.5 9.1 91.1 9.0 91.2 8.9 C 92.6 8.7 91.6 9.2 93.7 8.8 C 92.1 8.7 93.9 8.3 96.7 8.0 C 96.5 8.0 95.6 8.1 95.5 8.0 C 95.9 7.7 97.5 7.8 97.9 7.9 C 99.0 7.7 98.3 7.6 97.3 7.8 C 97.9 7.6 98.5 7.5 99.2 7.3 C 96.1 7.7 91.2 8.4 85.7 9.0 C 86.8 9.1 85.6 9.3 83.9 9.5 C 83.7 9.4 84.4 9.3 85.1 9.1 C 83.2 9.2 83.4 9.8 80.4 10.2 C 78.8 10.4 82.2 9.7 80.4 9.9 C 79.3 10.1 78.6 10.5 78.0 10.3 C 76.2 10.8 75.7 11.2 72.9 11.8 C 74.5 11.6 75.4 12.0 77.0 11.5 C 77.0 11.4 76.3 11.6 75.8 11.7 C 75.8 11.7 75.8 11.7 75.8 11.7 Z M 16.3 33.9 C 15.5 34.6 15.1 35.1 14.9 35.1 C 13.5 36.3 15.2 35.2 15.5 35.0 C 16.2 34.4 16.3 34.1 16.3 33.9 C 16.3 33.9 16.3 33.9 16.3 33.9 Z M 141.3 107.9 C 143.8 108.1 143.2 107.7 145.2 107.8 C 143.6 107.7 143.3 107.4 140.6 107.4 C 140.5 107.6 140.5 107.8 141.3 107.9 C 141.3 107.9 141.3 107.9 141.3 107.9 Z M 21.8 30.3 C 23.0 29.2 20.3 31.7 20.1 31.5 C 18.7 32.7 21.7 30.6 20.4 31.8 C 21.6 30.8 22.6 30.4 24.4 29.2 C 24.2 29.1 22.7 30.0 21.3 30.9 C 21.1 30.9 21.8 30.4 21.8 30.3 C 21.8 30.3 21.8 30.3 21.8 30.3 Z M 116.1 105.8 C 114.4 105.8 117.6 106.4 118.6 106.6 C 118.7 106.2 118.2 106.2 116.1 105.8 C 116.1 105.8 116.1 105.8 116.1 105.8 Z M 158.3 107.7 C 159.3 107.4 155.4 107.7 156.3 107.4 C 155.2 107.4 155.1 107.5 155.0 107.6 C 154.4 107.5 152.6 107.5 153.1 107.3 C 152.8 107.1 156.0 107.4 155.0 107.1 C 156.1 107.1 156.2 107.1 157.0 107.2 C 155.1 107.1 156.0 107.4 158.3 107.5 C 158.3 107.2 157.2 107.3 158.3 107.1 C 158.4 107.2 159.7 107.4 159.6 107.8 C 161.6 107.7 160.4 107.3 162.9 107.3 C 162.7 107.2 161.1 107.2 160.2 107.1 C 160.5 106.9 162.8 107.3 162.2 106.9 C 162.7 107.1 164.1 107.2 164.2 107.5 C 162.3 107.6 161.1 107.8 159.6 107.9 C 161.0 108.1 163.0 107.5 165.5 107.7 C 165.2 107.5 166.7 107.5 166.2 107.2 C 168.1 107.3 167.2 107.6 166.8 107.6 C 167.3 107.8 171.0 107.5 170.8 107.3 C 171.0 107.5 175.5 107.3 175.3 107.0 C 176.6 107.1 178.6 106.6 179.2 107.0 C 179.9 106.8 181.5 106.7 183.1 106.6 C 183.5 106.4 180.7 106.7 180.5 106.5 C 180.0 106.3 183.5 106.4 183.1 106.2 C 183.1 106.1 183.1 106.1 183.1 106.0 C 181.7 106.2 180.4 106.3 179.2 106.5 C 178.2 106.5 179.4 106.4 179.2 106.2 C 178.3 106.4 174.1 107.0 174.0 106.5 C 171.2 106.7 169.2 106.7 168.1 107.0 C 166.4 107.0 169.0 106.8 168.1 106.6 C 163.2 107.1 157.2 106.8 153.1 107.1 C 152.2 107.1 152.5 106.9 152.4 106.8 C 146.8 107.0 151.6 107.3 147.2 107.2 C 147.2 107.0 149.3 107.0 149.1 106.8 C 147.6 106.8 147.2 106.9 145.2 106.8 C 145.2 106.9 145.2 107.0 145.2 107.1 C 143.5 107.1 144.2 106.8 143.3 106.7 C 141.2 106.7 141.7 106.9 140.7 106.5 C 138.7 106.6 136.8 106.6 134.8 106.4 C 133.4 106.5 135.9 107.0 138.0 107.1 C 137.9 107.1 137.3 107.1 137.3 107.2 C 134.9 106.9 134.6 106.4 130.9 106.2 C 133.7 106.6 129.5 106.2 129.0 106.0 C 127.4 105.9 128.6 106.3 129.6 106.4 C 129.4 106.5 128.4 106.3 128.3 106.2 C 128.1 106.6 131.6 107.0 135.4 107.0 C 133.6 107.3 138.0 107.1 136.1 107.5 C 139.1 107.5 136.5 107.1 139.9 107.3 C 139.6 107.2 139.0 107.1 138.7 106.9 C 141.3 107.0 140.5 107.3 143.3 107.3 C 143.7 107.1 141.9 107.1 141.9 107.0 C 144.9 107.3 145.9 107.4 147.8 107.7 C 148.2 107.5 147.7 107.3 151.1 107.5 C 151.1 107.5 151.1 107.6 151.1 107.6 C 149.5 107.6 149.1 108.0 153.1 108.0 C 153.3 107.9 152.1 107.9 151.1 107.9 C 151.6 107.7 152.8 107.7 154.4 107.6 C 155.1 107.7 156.0 107.8 155.0 107.8 C 155.6 108.0 156.2 107.6 158.3 107.7 C 158.3 107.7 158.3 107.7 158.3 107.7 Z M 3.4 54.6 C 3.4 54.9 3.4 55.3 3.4 55.9 C 3.7 56.2 3.6 55.0 3.8 55.0 C 3.8 54.1 3.5 54.8 3.4 54.6 C 3.4 54.6 3.4 54.6 3.4 54.6 Z M 8.2 42.5 C 8.0 42.5 7.8 43.3 7.1 44.2 C 7.1 44.6 7.8 43.4 7.9 43.5 C 8.7 42.4 7.4 43.6 8.2 42.5 C 8.2 42.5 8.2 42.5 8.2 42.5 Z M 5.3 47.6 C 4.9 48.0 5.2 48.1 5.5 47.2 C 5.6 47.3 5.6 47.6 5.5 48.2 C 6.0 47.6 5.7 47.1 6.4 46.0 C 6.1 46.3 5.7 46.9 5.3 47.6 C 5.3 47.6 5.3 47.6 5.3 47.6 Z M 4.6 49.3 C 4.5 50.0 4.2 50.4 4.1 51.5 C 4.3 51.3 4.9 48.9 5.0 48.5 C 5.0 48.0 4.1 50.6 4.6 49.3 C 4.6 49.3 4.6 49.3 4.6 49.3 Z M 91.2 102.4 C 91.8 102.5 91.7 102.4 91.8 102.4 C 93.7 103.0 96.3 103.3 94.2 103.4 C 96.2 103.4 98.0 104.0 99.7 104.3 C 101.1 104.5 100.4 104.2 101.6 104.3 C 103.4 104.6 100.6 104.3 100.9 104.5 C 101.3 104.7 101.9 104.3 104.0 104.8 C 103.5 104.3 105.9 105.0 105.3 104.5 C 106.5 104.8 106.9 104.7 108.5 104.9 C 108.3 104.7 106.8 104.5 106.6 104.3 C 105.9 104.0 105.7 104.5 107.2 104.6 C 106.3 104.7 104.2 104.1 103.5 104.2 C 102.7 103.9 105.5 104.4 104.7 104.0 C 104.2 104.0 103.6 104.0 103.5 104.1 C 102.6 103.9 102.0 103.7 101.7 103.6 C 102.2 103.6 102.3 103.7 102.3 103.7 C 103.4 103.9 101.2 103.2 103.6 103.5 C 103.2 103.4 102.1 103.2 102.3 103.1 C 101.6 102.9 102.2 103.8 99.8 103.2 C 98.2 103.2 103.7 103.9 102.2 104.2 C 98.8 103.7 100.7 103.6 98.0 103.2 C 98.0 103.3 98.0 103.4 97.3 103.3 C 97.4 103.4 98.4 103.6 99.1 103.7 C 99.0 103.7 98.0 103.6 97.3 103.5 C 97.4 103.6 97.9 103.7 97.9 103.7 C 95.6 103.3 95.9 102.9 98.0 103.0 C 98.0 102.8 95.1 102.4 94.3 102.4 C 95.1 102.7 94.2 102.6 94.9 102.9 C 95.4 103.0 95.3 102.9 95.5 102.8 C 96.6 103.0 95.6 103.0 95.5 103.1 C 94.2 102.8 94.3 102.7 93.1 102.6 C 93.4 102.6 93.7 102.6 93.7 102.5 C 93.1 102.4 92.5 102.3 91.9 102.2 C 91.9 102.4 91.1 102.3 91.2 102.4 C 91.2 102.4 91.2 102.4 91.2 102.4 Z M 123.7 106.7 C 125.9 106.9 124.8 106.6 123.7 106.6 C 124.2 106.5 124.9 106.5 125.7 106.5 C 125.1 106.4 124.5 106.4 122.5 106.2 C 124.3 106.0 122.5 105.5 119.3 105.3 C 118.3 105.6 121.0 105.9 119.9 106.1 C 122.3 106.1 123.5 106.4 123.7 106.7 C 123.7 106.7 123.7 106.7 123.7 106.7 Z M 15.6 35.0 C 14.7 35.8 13.8 36.6 12.9 37.3 C 13.2 37.4 16.1 35.1 15.6 35.0 C 15.6 35.0 15.6 35.0 15.6 35.0 Z M 101.6 7.3 C 102.2 7.2 102.2 7.3 102.3 7.3 C 104.1 7.0 101.4 7.2 102.2 6.9 C 101.6 7.0 101.0 7.1 100.4 7.1 C 100.3 7.3 102.9 7.1 101.0 7.4 C 101.1 7.5 101.6 7.3 101.6 7.3 C 101.6 7.3 101.6 7.3 101.6 7.3 Z M 3.8 53.7 C 3.8 54.5 4.1 54.0 4.0 55.9 C 4.2 55.2 4.1 54.8 4.2 53.7 C 4.1 53.7 3.9 53.7 3.8 53.7 C 3.8 53.7 3.8 53.7 3.8 53.7 Z M 82.2 101.3 C 83.6 101.8 84.1 101.3 87.0 102.0 C 85.6 101.4 83.9 101.5 82.2 101.3 C 82.2 101.3 82.2 101.3 82.2 101.3 Z M 188.2 105.9 C 187.3 105.9 188.5 105.7 186.9 105.8 C 186.0 105.9 185.6 106.1 184.3 106.2 C 186.2 106.3 189.4 105.8 190.7 106.1 C 192.3 105.9 192.2 105.7 192.6 105.4 C 191.9 105.5 191.5 105.5 191.4 105.5 C 190.5 105.9 189.3 105.4 188.2 105.9 C 188.2 105.9 188.2 105.9 188.2 105.9 Z M 115.5 105.6 C 114.3 105.4 116.3 105.5 116.7 105.4 C 117.6 105.5 117.3 105.6 117.4 105.7 C 118.5 105.8 118.8 105.7 118.7 105.5 C 116.6 105.3 114.0 105.0 115.5 104.9 C 113.5 104.6 114.6 105.0 113.6 105.0 C 112.5 104.7 113.5 104.8 113.6 104.5 C 113.1 104.5 111.6 104.6 111.7 104.3 C 108.7 104.3 110.0 104.9 112.2 105.5 C 114.3 105.4 111.9 105.1 115.5 105.6 C 115.5 105.6 115.5 105.6 115.5 105.6 Z M 38.6 88.6 C 38.8 88.8 40.2 89.3 40.2 89.4 C 42.0 89.9 43.6 90.3 45.4 90.6 C 45.1 90.3 42.7 89.7 43.7 90.2 C 43.0 89.8 41.4 89.1 40.5 88.6 C 38.9 87.9 38.2 88.1 38.1 87.7 C 36.5 87.1 37.4 87.5 35.0 86.4 C 38.7 88.3 33.7 85.9 33.3 86.1 C 35.5 87.1 37.4 87.9 37.2 87.6 C 38.9 88.3 40.7 89.2 41.0 89.5 C 40.8 89.6 39.5 89.0 38.6 88.6 C 38.6 88.6 38.6 88.6 38.6 88.6 Z M 49.0 91.7 C 48.2 91.5 47.5 91.3 46.3 90.9 C 47.0 91.2 47.2 91.4 47.1 91.5 C 49.3 92.3 49.5 92.2 49.9 92.5 C 51.1 93.0 49.7 92.1 51.5 92.8 C 51.4 92.7 50.5 92.4 50.5 92.3 C 50.3 92.4 50.0 92.4 49.0 91.7 C 49.0 91.7 49.0 91.7 49.0 91.7 Z M 65.2 96.9 C 66.6 97.3 64.5 96.6 65.2 96.6 C 64.9 96.6 62.2 95.8 62.6 95.7 C 61.9 95.2 59.0 95.1 59.4 94.7 C 58.7 94.6 58.9 94.8 58.8 94.8 C 60.7 95.3 60.6 95.5 59.3 95.1 C 59.4 95.3 60.6 95.6 61.4 95.8 C 61.5 95.7 60.8 95.5 60.9 95.3 C 62.5 95.9 63.7 96.4 65.2 96.9 C 65.2 96.9 65.2 96.9 65.2 96.9 Z M 172.0 4.9 C 170.5 4.8 169.5 4.8 168.8 4.8 C 169.2 5.0 170.0 4.9 170.7 4.9 C 170.9 5.0 170.2 5.0 169.4 5.0 C 170.2 5.3 172.9 5.1 172.0 4.9 C 172.0 4.9 172.0 4.9 172.0 4.9 Z M 159.0 4.6 C 157.5 4.5 156.5 4.6 156.4 4.7 C 156.9 4.8 156.7 4.6 157.7 4.6 C 158.3 4.7 158.6 4.8 159.0 4.9 C 159.6 4.9 159.5 4.8 159.7 4.7 C 160.2 4.7 160.2 4.8 160.3 4.8 C 162.1 4.6 158.2 4.8 159.0 4.6 C 159.0 4.6 159.0 4.6 159.0 4.6 Z M 56.1 94.3 C 55.7 94.1 55.3 93.8 54.1 93.4 C 54.3 93.7 53.3 93.4 52.5 93.1 C 53.6 93.7 54.3 93.8 56.1 94.3 C 56.1 94.3 56.1 94.3 56.1 94.3 Z M 80.0 11.4 C 78.2 11.5 78.4 11.9 75.9 12.2 C 76.0 12.3 76.0 12.4 76.0 12.4 C 77.5 11.9 78.2 11.9 80.0 11.4 C 80.0 11.4 80.0 11.4 80.0 11.4 Z M 302.6 64.6 C 302.5 64.4 301.9 65.7 301.7 65.7 C 301.9 66.1 301.1 66.4 299.4 68.7 C 299.3 68.7 299.4 68.5 299.6 68.2 C 298.2 70.0 300.2 67.8 300.6 67.7 C 301.5 66.2 301.9 66.1 302.6 64.6 C 302.6 64.6 302.6 64.6 302.6 64.6 Z M 168.7 106.2 C 168.6 106.3 169.0 106.3 169.4 106.3 C 169.8 106.3 170.3 106.2 170.7 106.2 C 170.5 105.9 168.4 105.8 170.0 105.5 C 169.4 105.5 169.4 105.5 169.4 105.6 C 166.2 106.4 163.7 105.3 159.6 105.8 C 158.9 105.8 159.1 105.9 158.9 105.9 C 159.5 105.9 159.5 106.0 159.6 106.0 C 160.1 105.7 163.8 106.0 162.2 106.1 C 162.3 106.2 162.8 106.2 162.8 106.1 C 163.3 106.1 163.7 106.1 164.2 106.1 C 163.9 106.0 163.0 106.0 162.8 105.9 C 164.9 105.9 167.5 106.0 166.1 106.3 C 167.4 106.2 167.9 106.1 168.7 106.0 C 169.6 106.0 169.6 106.2 168.7 106.2 C 168.7 106.2 168.7 106.2 168.7 106.2 Z M 185.5 105.3 C 187.5 105.2 186.8 105.0 188.8 104.9 C 187.5 104.8 186.0 105.2 184.3 105.1 C 184.5 105.2 185.4 105.2 185.5 105.3 C 185.5 105.3 185.5 105.3 185.5 105.3 Z M 147.9 106.0 C 148.3 105.7 146.5 105.6 144.6 105.6 C 144.2 105.9 145.9 105.9 147.9 106.0 C 147.9 106.0 147.9 106.0 147.9 106.0 Z M 156.3 106.0 C 158.2 105.9 153.9 106.0 155.0 105.7 C 154.1 105.7 153.2 105.7 153.1 105.6 C 152.4 105.7 152.4 105.8 151.1 105.8 C 151.2 105.9 153.3 105.8 153.1 106.0 C 154.6 105.9 154.8 105.9 156.3 106.0 C 156.3 106.0 156.3 106.0 156.3 106.0 Z M 157.6 106.0 C 158.9 105.9 157.3 105.5 155.7 105.6 C 156.3 105.7 156.7 105.9 157.6 106.0 C 157.6 106.0 157.6 106.0 157.6 106.0 Z M 14.1 72.7 C 14.7 73.2 14.4 72.7 15.1 73.3 C 15.2 73.2 12.8 71.0 14.8 72.8 C 14.3 71.9 13.6 71.9 12.8 71.0 C 13.0 71.3 13.2 71.5 12.7 71.1 C 12.3 71.0 14.6 72.8 14.1 72.7 C 14.1 72.7 14.1 72.7 14.1 72.7 Z M 16.7 75.0 C 17.2 75.4 17.0 75.1 16.7 74.9 C 16.9 74.9 17.6 75.5 18.2 76.0 C 18.2 76.1 17.4 74.9 17.6 74.8 C 15.1 73.1 16.8 74.7 16.7 75.0 C 16.7 75.0 16.7 75.0 16.7 75.0 Z M 19.2 76.7 C 20.7 78.1 23.3 79.7 24.7 80.2 C 23.5 79.1 20.1 77.0 19.2 76.7 C 19.2 76.7 19.2 76.7 19.2 76.7 Z M 7.7 64.1 C 8.6 66.6 12.2 70.9 9.6 66.7 C 9.6 66.9 7.8 64.3 7.3 62.9 C 7.2 62.9 6.4 61.5 6.6 61.4 C 6.0 60.4 7.8 64.8 7.7 64.1 C 7.7 64.1 7.7 64.1 7.7 64.1 Z M 27.4 81.2 C 26.3 80.7 27.4 81.8 25.9 80.8 C 25.0 80.3 26.1 81.1 25.8 81.0 C 27.7 82.1 32.1 84.0 32.4 84.5 C 33.5 84.9 33.9 84.9 36.1 85.9 C 36.2 85.8 28.5 82.5 27.3 81.3 C 27.5 81.3 29.9 82.6 27.4 81.2 C 27.4 81.2 27.4 81.2 27.4 81.2 Z M 80.3 12.8 C 80.4 12.6 78.0 13.2 78.5 12.8 C 77.2 13.4 76.0 13.5 74.6 14.0 C 74.1 14.0 74.2 13.6 72.2 14.0 C 72.2 14.2 73.2 13.9 72.3 14.3 C 70.5 14.8 70.9 14.4 68.8 14.9 C 69.3 15.2 64.6 16.1 65.1 16.3 C 66.2 16.0 66.0 15.9 67.8 15.5 C 68.4 15.4 68.2 15.6 69.0 15.4 C 68.5 15.8 67.5 15.6 66.8 16.0 C 67.0 16.1 68.3 15.8 68.5 15.9 C 69.3 15.7 68.3 15.9 68.5 15.7 C 70.6 15.1 68.4 16.3 70.8 15.6 C 70.2 15.5 70.2 15.5 70.7 15.2 C 71.6 15.1 74.5 14.3 73.0 14.9 C 73.2 15.0 74.9 14.4 74.6 14.3 C 75.6 14.1 75.7 14.1 75.8 14.2 C 78.2 13.6 78.5 13.3 78.0 13.2 C 78.4 12.9 78.8 13.2 80.3 12.8 C 80.3 12.8 80.3 12.8 80.3 12.8 Z M 6.2 51.6 C 6.2 50.6 6.0 52.6 5.8 53.5 C 6.0 52.4 6.3 52.8 6.6 51.7 C 6.4 52.1 6.3 52.0 6.5 51.2 C 6.5 51.0 6.0 52.7 6.2 51.6 C 6.2 51.6 6.2 51.6 6.2 51.6 Z M 40.8 87.9 C 41.6 88.4 45.9 89.9 48.3 90.7 C 48.0 90.2 42.2 88.7 41.6 88.0 C 40.3 87.6 42.3 88.5 40.8 87.9 C 40.8 87.9 40.8 87.9 40.8 87.9 Z M 59.1 17.5 C 58.5 17.6 58.8 17.6 59.1 17.5 C 59.0 17.7 57.8 18.0 57.0 18.2 C 58.2 18.0 56.8 18.5 57.1 18.7 C 56.5 18.9 56.2 19.0 56.1 19.1 C 56.0 18.6 52.9 20.3 56.2 19.4 C 55.6 19.3 55.8 19.2 57.2 18.8 C 58.7 18.5 59.8 18.0 60.4 18.1 C 61.4 17.8 61.7 17.6 63.0 17.2 C 63.4 17.3 64.6 17.1 63.7 17.7 C 66.1 17.1 64.3 16.9 66.3 16.4 C 68.2 16.1 65.4 16.9 65.9 17.0 C 66.4 16.9 66.3 17.0 66.4 17.0 C 67.1 16.8 67.1 16.6 66.4 16.8 C 66.6 16.6 68.5 16.0 68.0 16.4 C 69.1 16.0 66.1 16.1 64.6 16.7 C 63.7 17.0 63.6 16.5 64.5 16.3 C 64.2 16.2 62.5 17.2 62.9 16.6 C 62.1 16.8 61.4 17.0 60.7 17.2 C 60.8 17.2 61.2 17.1 61.3 17.2 C 60.6 17.4 59.9 17.6 59.1 17.8 C 59.7 17.5 59.7 17.4 59.1 17.5 C 59.1 17.5 59.1 17.5 59.1 17.5 Z M 31.1 83.5 C 32.8 84.4 33.3 84.5 34.8 85.1 C 34.3 84.6 30.4 82.9 31.1 83.5 C 31.1 83.5 31.1 83.5 31.1 83.5 Z M 90.5 11.7 C 90.3 11.7 89.2 11.9 89.2 11.8 C 91.1 11.4 89.0 11.6 90.3 10.9 C 88.0 11.5 87.3 12.2 90.5 11.9 C 92.8 11.5 88.1 12.2 90.5 11.7 C 90.5 11.7 90.5 11.7 90.5 11.7 Z M 83.3 12.8 C 81.9 13.2 85.5 12.6 86.3 12.6 C 86.3 12.7 86.4 12.8 86.4 12.8 C 88.3 12.1 85.6 12.5 87.4 11.7 C 85.0 12.0 84.0 12.1 82.1 12.6 C 82.2 12.6 82.6 12.5 82.6 12.4 C 84.1 12.2 83.1 12.7 81.5 12.9 C 82.0 12.9 83.4 12.7 84.5 12.5 C 84.2 12.5 83.8 12.5 83.9 12.4 C 85.1 12.1 84.7 12.4 85.6 12.2 C 85.6 12.3 83.4 12.9 83.3 12.8 C 83.3 12.8 83.3 12.8 83.3 12.8 Z M 208.2 9.6 C 206.9 9.5 209.4 10.1 209.3 10.5 C 210.6 10.7 210.9 10.6 211.7 10.7 C 211.3 10.5 209.9 10.3 209.3 10.1 C 209.6 9.8 211.2 10.4 211.8 10.3 C 212.6 10.0 208.7 10.0 208.2 9.6 C 208.2 9.6 208.2 9.6 208.2 9.6 Z M 28.0 29.9 C 27.4 30.3 27.8 30.1 28.1 30.0 C 28.0 30.1 26.9 30.7 26.9 30.6 C 25.9 31.2 27.5 30.5 26.3 31.1 C 26.2 31.4 28.1 30.1 28.1 30.0 C 29.5 29.3 28.6 30.1 29.0 30.0 C 30.2 29.4 29.7 29.4 31.5 28.5 C 30.4 29.0 29.3 29.3 28.0 29.9 C 28.0 29.9 28.0 29.9 28.0 29.9 Z M 94.6 10.6 C 94.8 10.5 93.2 11.2 91.6 11.2 C 89.5 11.6 92.9 11.3 91.0 11.6 C 92.6 11.4 94.5 10.9 97.0 10.5 C 97.6 10.3 93.6 10.9 95.8 10.5 C 95.7 10.4 95.2 10.6 95.2 10.6 C 94.7 10.7 94.6 10.7 94.6 10.6 C 94.6 10.6 94.6 10.6 94.6 10.6 Z M 92.2 11.5 C 92.4 11.6 92.9 11.5 92.9 11.4 C 93.7 11.3 93.7 11.6 92.9 11.7 C 94.0 11.8 93.8 11.3 95.9 11.1 C 95.0 11.1 94.6 11.0 96.5 10.9 C 98.0 10.5 92.9 11.3 92.2 11.5 C 92.2 11.5 92.2 11.5 92.2 11.5 Z M 188.1 7.7 C 188.2 7.8 189.6 7.9 190.6 8.0 C 189.3 8.1 184.2 7.6 183.6 7.4 C 183.0 7.4 182.4 7.4 182.3 7.3 C 182.3 7.4 180.9 7.4 181.6 7.5 C 181.5 7.6 180.4 7.5 180.4 7.6 C 178.4 7.4 180.9 7.5 180.4 7.3 C 178.0 7.4 178.6 7.2 175.8 7.0 C 176.3 7.3 179.3 7.4 179.0 7.7 C 181.2 7.5 183.5 7.9 184.8 8.2 C 182.8 7.7 190.3 8.1 193.7 8.4 C 193.6 8.6 194.8 8.6 196.2 8.9 C 197.2 9.2 196.9 8.7 195.0 8.6 C 195.1 8.5 197.7 8.9 198.8 8.9 C 197.5 8.7 198.2 8.6 197.6 8.5 C 195.1 8.2 197.3 8.5 196.9 8.7 C 196.3 8.6 195.7 8.5 195.0 8.5 C 198.3 8.4 190.2 8.0 193.1 8.2 C 190.5 8.0 190.5 7.7 188.1 7.7 C 188.1 7.7 188.1 7.7 188.1 7.7 Z M 127.2 7.2 C 126.8 7.3 124.7 7.6 124.6 7.4 C 122.0 7.8 124.3 7.8 121.4 8.0 C 121.6 8.1 122.7 8.0 122.7 8.1 C 123.9 7.9 125.0 7.8 124.6 7.6 C 126.0 7.5 126.3 7.4 127.2 7.3 C 126.9 7.4 126.4 7.5 125.3 7.6 C 125.1 7.8 125.5 7.9 127.2 7.8 C 128.0 7.5 127.5 7.4 127.2 7.2 C 127.2 7.2 127.2 7.2 127.2 7.2 Z M 120.8 8.0 C 120.5 8.0 120.1 7.9 120.2 7.8 C 119.2 7.6 119.8 8.2 118.9 8.2 C 118.1 8.3 118.4 8.1 118.2 8.0 C 117.1 8.2 116.3 8.3 115.7 8.3 C 114.0 8.6 117.7 8.3 118.3 8.4 C 119.5 8.3 119.1 8.1 120.8 8.0 C 120.8 8.0 120.8 8.0 120.8 8.0 Z M 101.9 9.7 C 101.6 9.5 101.0 9.9 100.1 10.0 C 100.8 10.1 102.5 9.8 101.4 10.2 C 103.2 10.1 103.3 10.1 105.1 9.8 C 106.3 9.9 105.1 9.6 103.2 9.9 C 103.5 9.8 104.3 9.7 104.4 9.5 C 105.7 9.9 108.7 8.8 106.9 9.3 C 106.4 9.3 106.0 9.3 105.7 9.2 C 105.3 9.5 101.0 9.9 101.9 9.7 C 101.9 9.7 101.9 9.7 101.9 9.7 Z M 43.6 23.4 C 45.2 22.8 46.1 22.5 47.0 22.2 C 47.8 21.9 49.1 21.4 50.1 21.1 C 50.2 21.2 50.1 21.3 49.7 21.4 C 50.1 21.4 50.8 21.1 51.6 20.8 C 51.5 20.7 51.1 20.9 51.1 21.0 C 49.5 21.3 50.8 20.9 51.0 20.6 C 49.0 21.0 45.9 22.6 44.3 22.8 C 43.1 23.3 44.6 22.8 43.6 23.4 C 43.6 23.4 43.6 23.4 43.6 23.4 Z M 301.5 62.2 C 301.5 62.4 301.2 63.0 301.4 63.0 C 301.6 62.4 301.7 62.0 301.8 61.4 C 301.4 62.5 301.2 62.2 300.5 63.5 C 300.8 63.1 301.0 63.3 301.5 62.2 C 301.5 62.2 301.5 62.2 301.5 62.2 Z M 108.2 9.0 C 108.2 9.1 108.3 9.2 107.6 9.3 C 107.4 9.5 109.4 9.2 109.4 9.4 C 110.1 9.3 109.8 9.2 110.7 9.1 C 110.4 9.0 108.7 9.2 109.4 8.9 C 109.9 8.8 110.0 8.9 110.1 8.9 C 111.3 8.7 109.4 8.8 108.2 9.0 C 108.2 9.0 108.2 9.0 108.2 9.0 Z M 214.2 10.7 C 213.4 10.6 214.2 10.8 214.8 10.9 C 213.0 10.9 215.8 11.5 215.9 11.7 C 215.2 11.4 212.7 11.2 212.3 11.1 C 211.6 11.0 212.4 11.3 210.5 11.1 C 210.7 11.4 212.8 11.5 212.3 11.2 C 212.8 11.6 214.9 11.5 214.7 11.8 C 217.4 12.3 218.1 12.2 218.3 12.0 C 215.7 11.7 217.1 11.4 214.8 11.2 C 214.8 11.1 215.5 11.2 216.0 11.3 C 215.8 11.1 214.8 10.9 214.2 10.7 C 214.2 10.7 214.2 10.7 214.2 10.7 Z M 147.9 6.6 C 146.4 6.6 146.5 6.8 146.6 7.0 C 147.1 6.9 148.0 6.9 149.2 6.9 C 148.9 6.8 147.1 6.8 147.9 6.6 C 147.9 6.6 147.9 6.6 147.9 6.6 Z M 204.4 9.7 C 204.2 9.6 203.8 9.6 203.7 9.6 C 202.2 9.5 201.8 9.3 201.3 9.1 C 200.4 9.0 200.7 9.2 200.6 9.4 C 202.1 9.3 201.8 9.6 203.7 9.8 C 203.6 9.7 203.9 9.7 204.4 9.7 C 204.4 9.7 204.4 9.7 204.4 9.7 Z M 161.5 6.7 C 160.8 6.7 161.2 6.8 161.5 6.8 C 160.7 7.1 158.0 6.8 157.0 6.9 C 156.9 7.1 160.1 7.1 156.3 7.2 C 157.0 7.4 160.5 7.2 162.2 7.3 C 161.8 7.5 159.4 7.5 159.6 7.8 C 161.6 7.6 163.8 7.5 164.1 7.2 C 161.2 7.1 162.2 6.9 161.5 6.7 C 161.5 6.7 161.5 6.7 161.5 6.7 Z M 164.8 7.0 C 164.5 6.8 164.0 7.0 162.9 6.9 C 164.5 7.2 165.4 7.1 168.7 7.3 C 168.7 7.3 168.7 7.2 168.7 7.2 C 169.3 7.2 170.0 7.2 170.7 7.2 C 167.8 6.8 167.1 7.0 164.1 7.0 C 164.0 7.0 164.4 7.0 164.8 7.0 C 164.8 7.0 164.8 7.0 164.8 7.0 Z M 80.4 13.5 C 81.2 13.5 81.9 13.5 83.4 13.3 C 83.2 13.1 82.3 13.1 80.4 13.5 C 80.4 13.5 80.4 13.5 80.4 13.5 Z M 206.8 10.2 C 208.5 10.2 205.2 10.0 206.2 10.3 C 207.5 10.6 208.9 10.9 209.2 11.1 C 211.7 11.1 206.5 10.4 206.8 10.2 C 206.8 10.2 206.8 10.2 206.8 10.2 Z M 195.6 9.5 C 194.8 9.4 194.9 9.0 195.6 9.3 C 197.4 9.5 194.1 9.0 196.8 9.3 C 195.7 9.1 193.0 8.7 191.8 8.7 C 191.8 8.9 194.2 9.1 194.3 9.3 C 194.4 9.4 194.0 9.3 193.7 9.3 C 193.9 9.4 194.5 9.3 195.6 9.5 C 195.6 9.5 195.6 9.5 195.6 9.5 Z M 186.1 8.3 C 187.1 8.5 188.4 8.7 190.5 8.9 C 189.1 8.6 188.3 8.3 186.1 8.3 C 186.1 8.3 186.1 8.3 186.1 8.3 Z M 296.6 43.0 C 295.9 42.2 296.3 43.1 296.4 43.2 C 297.1 44.1 297.2 43.9 297.9 45.0 C 297.9 44.5 296.9 43.8 296.6 43.0 C 296.6 43.0 296.6 43.0 296.6 43.0 Z M 298.9 46.3 C 298.8 46.5 299.6 47.7 299.5 47.9 C 300.3 48.4 300.1 49.8 300.4 49.6 C 300.5 49.9 300.6 50.2 300.8 50.7 C 300.8 49.6 299.6 47.4 298.9 46.3 C 298.9 46.3 298.9 46.3 298.9 46.3 Z M 175.1 8.1 C 173.4 8.0 175.6 8.5 173.8 8.4 C 173.7 8.5 177.1 8.7 175.1 8.7 C 177.7 9.0 174.9 8.2 175.1 8.1 C 175.1 8.1 175.1 8.1 175.1 8.1 Z M 143.4 8.0 C 143.5 7.9 141.1 8.1 140.2 8.1 C 140.2 8.1 140.9 8.1 141.4 8.1 C 141.2 8.2 140.9 8.3 140.2 8.3 C 140.7 8.5 142.4 8.1 143.4 8.0 C 143.4 8.0 143.4 8.0 143.4 8.0 Z M 178.6 4.1 C 179.7 4.4 181.0 4.7 181.8 4.4 C 182.9 4.7 181.0 4.6 182.4 4.8 C 184.2 4.8 183.3 5.0 186.3 5.1 C 185.7 5.4 187.9 5.5 188.2 5.7 C 187.0 5.7 185.5 5.3 185.0 5.5 C 186.0 5.5 185.4 5.7 185.0 5.6 C 183.0 5.3 187.4 5.4 185.0 5.1 C 184.3 5.4 180.8 4.6 178.6 4.4 C 179.5 4.3 176.9 4.1 178.6 4.1 C 178.6 4.1 178.6 4.1 178.6 4.1 Z M 190.1 5.4 C 191.7 5.5 192.4 6.1 192.0 6.0 C 192.0 5.9 190.3 5.8 190.1 5.9 C 190.5 5.9 190.9 5.9 190.8 6.0 C 187.9 5.7 188.9 5.6 188.2 5.4 C 189.8 5.4 190.2 5.6 190.8 5.5 C 190.4 5.5 190.1 5.5 190.1 5.4 C 190.1 5.4 190.1 5.4 190.1 5.4 Z M 222.4 13.4 C 222.1 13.2 221.8 13.4 221.2 13.3 C 221.1 12.9 218.0 12.9 217.6 12.7 C 218.4 12.7 219.9 12.9 220.6 12.9 C 219.8 12.7 219.7 12.6 218.8 12.6 C 219.1 12.4 220.8 12.7 221.3 12.6 C 221.4 12.8 222.3 12.7 222.5 12.9 C 220.2 12.6 223.7 13.7 222.4 13.4 C 222.4 13.4 222.4 13.4 222.4 13.4 Z M 160.3 8.0 C 160.0 8.3 162.8 8.9 160.3 9.1 C 159.7 8.9 159.4 8.7 159.6 8.4 C 158.0 8.5 157.3 8.3 156.3 8.5 C 153.4 7.8 158.6 8.6 160.3 8.0 C 160.3 8.0 160.3 8.0 160.3 8.0 Z M 149.8 8.2 C 150.4 8.0 148.9 8.0 149.2 7.9 C 150.5 8.0 154.5 7.7 153.1 7.9 C 151.8 8.0 151.8 8.2 149.8 8.2 C 149.8 8.2 149.8 8.2 149.8 8.2 Z M 75.6 97.7 C 73.8 97.5 72.9 96.9 74.0 97.0 C 73.5 97.1 76.3 97.5 75.6 97.7 C 75.6 97.7 75.6 97.7 75.6 97.7 Z M 7.1 69.6 C 7.9 71.0 8.6 71.6 8.6 71.9 C 7.5 70.7 7.7 70.8 7.0 69.7 C 6.8 69.7 6.3 69.1 6.3 68.9 C 6.7 69.5 6.8 69.3 7.1 69.6 C 7.1 69.6 7.1 69.6 7.1 69.6 Z M 110.3 4.8 C 110.1 4.7 109.3 4.7 109.6 4.5 C 111.5 4.4 113.7 4.0 115.3 3.7 C 115.3 3.8 115.3 3.9 115.3 4.0 C 112.3 4.2 111.5 4.5 110.3 4.8 C 110.3 4.8 110.3 4.8 110.3 4.8 Z M 106.4 4.7 C 106.1 4.9 107.2 5.0 105.8 5.2 C 105.9 5.0 103.4 5.0 104.5 4.8 C 104.9 5.0 105.5 4.9 106.4 4.7 C 106.4 4.7 106.4 4.7 106.4 4.7 Z M 214.7 7.5 C 216.2 7.7 214.0 7.2 214.1 7.1 C 215.2 7.3 216.7 7.5 217.1 7.7 C 216.1 7.5 215.2 7.8 214.7 7.5 C 214.7 7.5 214.7 7.5 214.7 7.5 Z M 191.4 5.4 C 188.1 5.2 189.6 4.9 186.3 4.5 C 187.7 4.5 190.6 4.8 191.5 4.6 C 191.4 4.8 192.2 4.9 192.1 5.0 C 190.9 4.9 190.7 4.8 189.5 4.7 C 190.0 5.0 190.0 4.9 189.5 5.1 C 190.4 5.2 191.0 5.2 191.5 5.2 C 191.2 5.3 192.4 5.5 191.4 5.4 C 191.4 5.4 191.4 5.4 191.4 5.4 Z M 214.0 8.1 C 215.2 8.2 216.3 8.7 215.2 8.5 C 215.0 8.3 214.2 8.4 214.0 8.2 C 215.8 8.4 212.5 7.9 213.4 7.8 C 214.5 8.0 214.9 7.9 214.6 7.8 C 215.4 7.9 216.4 8.0 216.5 8.1 C 216.0 8.0 215.3 7.9 215.3 8.0 C 215.6 8.1 216.0 8.1 215.9 8.2 C 214.8 8.0 214.3 8.0 214.0 8.1 C 214.0 8.1 214.0 8.1 214.0 8.1 Z M 205.4 6.9 C 207.1 7.1 207.2 7.4 207.8 7.6 C 205.5 7.3 205.2 6.9 203.5 6.5 C 205.4 6.8 207.3 6.7 207.9 7.0 C 207.0 7.0 205.5 6.8 205.4 6.9 C 205.4 6.9 205.4 6.9 205.4 6.9 Z M 238.1 98.4 C 236.7 98.6 235.6 98.7 234.0 98.9 C 233.6 99.2 236.5 99.1 235.3 99.2 C 233.7 99.6 234.7 99.0 233.5 99.3 C 234.8 99.3 228.0 100.7 227.7 100.4 C 228.7 100.2 229.0 100.1 228.8 99.9 C 231.5 99.4 232.5 99.0 234.5 98.5 C 236.1 98.5 240.3 97.7 242.4 96.8 C 244.0 96.9 246.5 95.8 248.5 95.6 C 249.0 95.3 246.8 95.8 248.4 95.3 C 249.5 95.3 248.7 95.6 250.2 95.3 C 250.2 95.2 249.9 95.1 250.6 94.8 C 250.5 95.0 251.4 94.8 251.7 94.8 C 248.9 95.6 252.0 95.1 249.7 95.7 C 248.8 95.9 250.6 95.1 248.0 95.8 C 247.1 96.1 246.2 96.4 246.5 96.6 C 245.7 96.8 245.3 97.0 244.8 97.1 C 245.8 96.6 241.1 98.1 243.2 97.3 C 243.3 97.3 244.8 96.9 245.9 96.5 C 244.8 96.5 243.7 97.0 242.0 97.5 C 241.2 97.5 242.3 97.2 241.4 97.3 C 240.1 97.8 242.0 97.5 240.9 97.9 C 241.4 97.8 242.0 97.7 242.1 97.7 C 239.7 98.1 238.8 98.5 237.6 98.8 C 238.4 98.4 236.1 98.9 238.1 98.4 C 238.1 98.4 238.1 98.4 238.1 98.4 Z M 257.4 92.9 C 257.9 92.7 258.4 92.6 259.0 92.4 C 259.1 92.6 257.2 93.3 258.6 93.0 C 256.3 93.7 258.6 92.7 257.4 92.9 C 257.4 92.9 257.4 92.9 257.4 92.9 Z M 246.7 95.1 C 245.8 95.0 246.4 95.5 245.6 95.7 C 247.0 95.3 248.1 94.9 248.4 95.1 C 246.8 95.5 246.1 95.6 244.6 96.1 C 246.0 95.4 242.8 96.3 242.2 96.1 C 243.5 95.8 244.4 95.4 246.0 95.0 C 245.8 95.2 248.2 94.6 246.7 95.1 C 246.7 95.1 246.7 95.1 246.7 95.1 Z M 250.9 93.6 C 251.2 93.7 253.5 92.9 253.0 93.3 C 251.7 93.7 251.2 93.9 251.5 94.0 C 250.5 94.3 250.3 94.2 249.4 94.5 C 248.7 94.4 250.4 94.0 250.9 93.7 C 250.6 93.8 250.2 93.8 250.9 93.6 C 250.9 93.6 250.9 93.6 250.9 93.6 Z M 295.0 70.1 C 295.5 70.0 293.9 71.4 293.5 71.6 C 294.2 71.4 294.0 71.6 293.0 72.6 C 293.2 72.0 291.7 73.5 290.5 74.0 C 290.4 74.4 291.8 73.4 290.3 74.7 C 289.0 75.6 287.9 76.5 285.7 77.9 C 285.1 78.0 286.0 77.4 286.6 76.9 C 285.1 77.9 285.4 77.5 284.3 78.2 C 284.6 78.1 283.6 78.8 283.2 78.9 C 285.2 77.6 280.3 80.2 282.4 78.9 C 282.6 78.9 283.1 78.6 283.5 78.2 C 283.2 78.8 285.8 77.1 286.5 76.8 C 287.2 75.7 290.0 74.1 292.5 72.1 C 292.8 72.1 292.1 72.8 292.7 72.3 C 292.7 72.1 293.5 71.4 293.8 71.1 C 293.9 71.2 294.2 71.0 294.7 70.5 C 294.7 70.5 294.7 70.4 295.0 70.1 C 295.0 70.1 295.0 70.1 295.0 70.1 Z M 134.9 103.8 C 135.0 103.4 130.9 103.4 129.7 103.5 C 130.0 103.1 137.2 103.5 134.9 103.8 C 134.9 103.8 134.9 103.8 134.9 103.8 Z M 160.2 103.9 C 159.1 103.9 159.9 104.1 158.9 104.2 C 158.9 103.9 156.4 104.4 156.3 104.2 C 157.5 104.0 158.3 104.0 160.2 103.9 C 160.2 103.9 160.2 103.9 160.2 103.9 Z M 183.5 103.1 C 181.6 103.3 184.5 103.2 184.1 103.3 C 182.5 103.4 180.8 103.5 180.9 103.3 C 182.4 103.3 183.3 102.9 183.5 103.1 C 183.5 103.1 183.5 103.1 183.5 103.1 Z M 148.5 103.7 C 147.0 103.6 149.6 103.3 149.8 103.4 C 148.1 103.5 150.9 103.7 152.4 103.6 C 152.3 103.9 151.7 103.9 152.4 104.1 C 150.1 104.2 152.0 103.8 150.4 103.9 C 149.4 104.0 150.5 104.0 150.4 104.2 C 149.8 104.2 149.2 104.2 148.5 104.2 C 148.5 104.0 148.5 103.9 148.5 103.8 C 149.3 103.8 150.1 103.8 149.8 103.6 C 149.2 103.6 149.0 103.7 148.5 103.7 C 148.5 103.7 148.5 103.7 148.5 103.7 Z M 263.8 87.3 C 262.5 87.8 263.7 87.5 264.6 87.2 C 264.8 87.0 265.5 86.3 267.0 86.0 C 263.9 87.4 268.1 85.9 266.4 86.7 C 265.6 86.8 263.8 87.8 262.2 88.3 C 261.4 88.3 263.0 87.4 263.8 87.3 C 263.8 87.3 263.8 87.3 263.8 87.3 Z M 269.5 85.3 C 269.3 85.3 268.8 85.5 267.9 85.9 C 268.8 85.3 267.4 85.8 268.6 85.2 C 268.5 85.4 272.5 83.8 270.2 84.8 C 268.0 85.6 270.8 84.7 271.8 84.3 C 270.8 84.8 269.0 85.8 268.7 85.7 C 269.2 85.5 269.7 85.3 269.5 85.3 C 269.5 85.3 269.5 85.3 269.5 85.3 Z M 299.7 62.7 C 299.6 62.5 299.3 63.1 299.1 63.2 C 300.1 61.5 300.5 60.0 300.8 59.2 C 300.6 60.0 300.8 60.0 301.0 59.6 C 300.7 60.4 300.7 60.7 300.5 60.9 C 300.6 60.1 300.2 61.6 299.7 62.7 C 299.7 62.7 299.7 62.7 299.7 62.7 Z M 299.7 62.7 " fill="#000000"></path><image xlink:href="../../1BE7A03E-C66D-4413-94C1-F85C6D2757AE/assets/556909E534099076BC3C0EB9B4744AB3.png" width="98.00" height="51.00" transform="matrix(1.00, 0.00, -0.00, -1.00, 108.0, 77.0)"></image><g><clipPath id="clip-1374"><path d="M 5.6 5.7 L 303.8 5.7 L 303.8 105.7 L 5.6 105.7 Z M 5.6 5.7 "></path></clipPath><g clip-path="url(#clip-1374)"><text xml:space="preserve" font-family="Chalkduster" font-size="32.0" fill="#000000" transform="matrix(1.00, 0.00, -0.00, -1.00, 111.0, 42.0)">i</text><text xml:space="preserve" font-family="Chalkduster" font-size="32.0" fill="#000000" transform="matrix(1.00, 0.00, -0.00, -1.00, 123.6, 42.0)">P</text><text xml:space="preserve" font-family="Chalkduster" font-size="32.0" fill="#000000" transform="matrix(1.00, 0.00, -0.00, -1.00, 145.6, 42.0)">e</text><text xml:space="preserve" font-family="Chalkduster" font-size="32.0" fill="#000000" transform="matrix(1.00, 0.00, -0.00, -1.00, 165.1, 42.0)">r</text><text xml:space="preserve" font-family="Chalkduster" font-size="32.0" fill="#000000" transform="matrix(1.00, 0.00, -0.00, -1.00, 182.0, 42.0)">f</text></g></g></g></svg>