<?xml version="1.0" encoding="UTF-8" standalone="no"?><svg xmlns="http://www.w3.org/2000/svg" xmlns:xlink="http://www.w3.org/1999/xlink" clip-rule="evenodd" stroke-miterlimit="4.00" viewBox="0 0 310 111"><desc>SVG generated by Keynote</desc><defs></defs><g transform="matrix(1.00, 0.00, -0.00, -1.00, 0.0, 111.0)"><g><clipPath id="clip-237"><path d="M 260.4 90.9 C 318.6 71.3 318.6 39.7 260.4 20.2 C 202.2 0.6 107.8 0.6 49.6 20.2 C -8.7 39.7 -8.7 71.3 49.6 90.9 C 107.8 110.4 202.2 110.4 260.4 90.9 Z M 260.4 90.9 "></path></clipPath><g clip-path="url(#clip-237)"><image xlink:href="../../1BE7A03E-C66D-4413-94C1-F85C6D2757AE/assets/59DBD66EA15A3D40E065F836EF2595FD.jpeg" width="400.00" height="400.00" transform="matrix(1.00, 0.00, -0.00, -1.00, 5.9, 105.5)"></image></g></g><path d="M 76.8 9.0 C 76.4 9.1 75.9 9.3 75.1 9.4 C 75.4 9.4 75.7 9.4 75.7 9.5 C 76.3 9.3 77.2 9.1 78.6 8.9 C 78.6 8.8 77.9 8.9 77.4 9.0 C 76.8 9.1 76.9 9.0 76.8 9.0 C 76.8 9.0 76.8 9.0 76.8 9.0 Z M 68.3 99.6 C 67.2 99.3 68.4 99.9 68.8 100.0 C 68.9 99.9 68.9 99.9 69.4 100.0 C 69.4 100.2 68.4 100.1 67.6 99.9 C 64.5 99.1 66.9 99.3 68.3 99.6 C 68.3 99.6 68.3 99.6 68.3 99.6 Z M 236.5 100.6 C 239.0 100.1 236.2 100.4 235.8 100.4 C 237.0 100.1 236.0 99.9 237.5 99.6 C 237.8 99.6 238.3 99.6 238.6 99.7 C 238.0 99.8 237.0 100.0 236.9 100.1 C 237.8 99.9 239.0 99.6 239.2 99.7 C 237.3 100.2 239.0 100.0 239.3 100.1 C 237.6 100.4 237.1 100.8 236.5 100.6 C 236.5 100.6 236.5 100.6 236.5 100.6 Z M 276.9 23.8 C 277.8 24.2 278.6 24.6 278.3 24.6 C 277.3 24.1 276.7 23.8 276.1 23.5 C 276.0 23.5 276.2 23.8 275.3 23.4 C 274.4 22.8 275.0 22.7 275.6 22.8 C 275.6 23.0 278.9 24.5 276.9 23.8 C 276.9 23.8 276.9 23.8 276.9 23.8 Z M 207.5 6.4 C 205.2 6.0 207.4 6.7 205.0 6.3 C 205.1 6.1 204.7 5.8 206.3 6.0 C 206.4 6.2 207.4 6.3 207.5 6.4 C 207.5 6.4 207.5 6.4 207.5 6.4 Z M 165.7 106.7 C 165.7 106.9 167.5 106.8 167.1 107.0 C 166.2 107.0 165.4 107.0 164.5 107.0 C 164.3 106.9 164.6 106.7 165.7 106.7 C 165.7 106.7 165.7 106.7 165.7 106.7 Z M 252.5 94.2 C 255.0 93.8 257.3 92.6 256.7 93.1 C 257.6 93.1 255.2 94.3 255.2 94.0 C 254.9 93.8 250.6 94.8 252.5 94.2 C 252.5 94.2 252.5 94.2 252.5 94.2 Z M 82.4 98.3 C 85.1 99.0 84.7 98.3 86.5 98.9 C 85.8 98.8 85.5 98.8 85.3 98.9 C 85.7 99.0 86.4 99.1 86.4 99.1 C 85.1 99.0 83.5 98.7 82.4 98.3 C 82.4 98.3 82.4 98.3 82.4 98.3 Z M 118.8 3.7 C 119.3 3.6 119.5 3.5 119.5 3.5 C 121.5 3.3 121.4 3.2 122.7 3.2 C 122.7 3.5 121.0 3.5 119.5 3.6 C 119.4 3.7 118.9 3.8 118.8 3.7 C 118.8 3.7 118.8 3.7 118.8 3.7 Z M 176.3 3.6 C 176.2 3.4 175.0 3.3 176.9 3.3 C 179.1 3.7 177.1 3.8 174.9 3.8 C 174.9 3.9 174.9 4.1 174.9 4.2 C 175.8 4.2 176.4 4.3 176.9 4.3 C 177.3 4.0 178.7 4.7 182.0 4.7 C 180.5 4.8 182.1 5.2 180.1 4.9 C 180.6 5.2 179.2 5.1 179.4 5.3 C 180.3 5.2 182.5 5.3 182.0 5.0 C 183.2 5.1 184.0 5.2 184.6 5.3 C 185.4 5.6 182.5 5.2 183.3 5.5 C 183.9 5.5 184.1 5.6 184.6 5.7 C 184.7 5.6 184.5 5.4 185.2 5.5 C 187.3 5.7 184.8 5.7 187.8 6.0 C 188.0 5.8 187.1 5.7 187.2 5.6 C 188.5 5.6 188.4 5.8 189.7 5.7 C 190.0 5.9 188.8 5.9 189.7 6.0 C 190.5 5.7 192.4 6.4 194.2 6.3 C 193.0 5.6 194.5 6.4 196.1 6.0 C 196.5 6.2 195.3 6.4 196.7 6.6 C 196.3 5.9 201.9 6.6 197.4 5.7 C 199.8 5.9 200.7 5.5 198.8 5.3 C 203.0 5.8 201.6 5.4 203.2 5.5 C 204.8 5.7 202.4 5.5 203.2 5.8 C 201.5 5.6 201.9 5.8 200.7 5.5 C 200.7 5.6 200.4 5.7 200.0 5.7 C 201.7 5.7 203.7 6.3 202.4 6.5 C 201.6 6.3 202.4 6.1 201.3 6.0 C 201.6 6.4 200.0 5.8 199.9 6.0 C 200.7 6.4 198.2 6.4 200.6 6.7 C 200.6 6.6 200.6 6.5 200.6 6.3 C 201.2 6.4 201.8 6.5 202.4 6.5 C 203.0 6.8 202.5 7.0 203.1 7.1 C 204.1 7.2 204.6 7.2 205.0 7.2 C 203.7 7.0 202.2 6.6 204.3 6.8 C 203.5 7.1 207.3 7.2 205.6 7.3 C 207.9 7.7 209.0 7.5 209.2 7.8 C 210.5 8.0 209.7 7.6 211.1 7.9 C 213.4 8.4 213.0 8.0 216.0 8.6 C 216.4 8.3 216.3 8.8 217.3 8.9 C 217.3 8.8 217.3 8.6 217.3 8.5 C 218.4 8.9 220.8 9.4 223.3 9.6 C 223.9 9.7 223.4 9.9 225.1 10.1 C 226.8 10.1 228.8 10.8 231.0 10.9 C 231.1 11.1 232.5 11.4 233.3 11.4 C 233.6 11.6 232.5 11.7 233.8 12.0 C 234.7 11.9 233.2 11.5 235.0 11.8 C 234.8 12.0 236.7 12.0 236.7 12.3 C 236.1 12.2 235.5 12.2 234.9 12.1 C 235.7 12.3 235.5 12.4 236.1 12.5 C 236.0 12.2 237.4 12.8 237.8 12.9 C 237.8 12.8 238.0 12.7 238.4 12.7 C 239.4 12.9 240.2 13.1 240.7 13.2 C 241.9 13.6 239.9 13.2 241.2 13.5 C 241.9 13.1 243.0 14.0 245.7 14.3 C 246.2 14.6 247.3 15.0 248.9 15.5 C 249.1 15.3 247.3 15.0 247.3 14.8 C 249.7 15.5 246.9 14.5 248.4 14.9 C 251.8 16.0 254.0 16.6 257.3 17.9 C 257.3 17.7 260.0 18.4 259.9 18.4 C 259.6 18.3 259.9 18.5 260.4 18.8 C 261.0 19.1 262.5 19.7 263.5 20.0 C 264.1 19.8 267.1 20.5 267.3 20.4 C 267.9 20.8 267.7 20.8 267.9 21.2 C 270.9 22.5 272.6 22.8 274.2 24.0 C 274.1 23.7 275.5 24.2 276.6 24.7 C 276.2 24.7 275.5 24.5 274.9 24.4 C 276.3 25.1 276.5 25.3 277.7 25.8 C 279.3 25.8 280.9 27.6 282.1 27.5 C 283.9 28.5 283.5 28.5 285.1 29.5 C 285.1 29.3 285.4 29.3 285.9 29.5 C 284.8 29.0 283.9 28.7 283.4 28.1 C 285.9 29.4 278.9 24.9 283.2 26.9 C 283.3 27.1 282.8 27.0 283.7 27.6 C 286.1 28.7 284.8 27.8 283.8 27.3 C 285.5 28.0 287.0 29.1 285.9 28.1 C 289.4 30.0 287.1 28.9 288.2 29.8 C 294.1 33.3 300.2 38.1 303.4 44.1 C 303.9 44.2 305.2 47.5 305.4 48.6 C 306.3 50.2 306.7 52.0 306.4 52.6 C 306.8 52.8 306.5 54.7 306.7 54.9 C 306.7 54.1 306.8 53.6 306.9 54.4 C 306.9 56.9 306.1 60.6 305.8 62.2 C 305.2 62.9 304.6 64.5 304.2 65.7 C 303.9 65.8 304.3 64.9 303.9 65.5 C 304.0 65.8 302.8 68.1 302.3 68.6 C 302.8 67.9 303.0 67.0 302.3 68.0 C 302.4 68.1 301.6 69.2 301.9 69.0 C 300.8 70.3 300.3 71.2 299.1 72.3 C 300.0 71.3 300.3 70.7 300.3 70.4 C 299.8 71.3 299.3 72.0 298.5 72.4 C 299.0 72.5 297.6 73.6 296.3 75.0 C 295.8 75.3 295.5 75.5 294.3 76.4 C 293.8 77.1 296.3 75.1 295.0 76.3 C 294.9 76.2 293.5 77.1 294.0 77.1 C 292.3 78.3 291.4 79.2 289.7 80.0 C 291.7 78.7 290.1 79.4 289.6 79.7 C 289.1 80.0 288.5 80.4 288.5 80.5 C 288.6 80.6 289.5 79.9 289.7 79.9 C 288.3 80.7 288.1 81.3 287.4 81.5 C 288.1 81.1 288.1 80.9 287.4 81.3 C 287.4 81.8 282.8 84.1 284.3 83.1 C 284.3 83.1 286.0 82.2 286.1 82.0 C 285.6 82.1 283.1 83.7 283.5 83.2 C 285.0 82.3 285.0 82.6 286.6 81.5 C 286.7 81.2 287.7 80.6 288.2 80.1 C 285.7 81.8 285.1 82.3 284.6 82.3 C 283.4 83.0 284.3 82.8 282.2 83.9 C 279.1 85.5 281.5 83.9 280.7 84.2 C 278.0 85.8 279.0 85.7 280.3 85.3 C 278.1 86.4 277.4 86.8 274.5 88.1 C 274.6 87.9 274.9 87.6 275.9 87.1 C 276.0 87.1 278.5 86.2 278.2 86.1 C 277.8 85.9 275.9 86.7 272.7 88.0 C 273.6 88.0 273.7 87.8 270.4 89.1 C 271.1 89.2 268.8 89.7 268.8 89.9 C 269.0 89.9 270.2 89.5 271.3 89.0 C 271.2 89.2 270.9 89.5 269.8 89.9 C 269.0 90.1 268.6 90.5 266.4 91.1 C 266.2 91.0 267.7 90.4 267.9 90.2 C 266.8 90.6 266.6 90.8 265.4 91.3 C 264.4 91.4 264.3 91.1 264.3 90.7 C 265.6 90.2 267.7 89.4 266.0 89.9 C 270.9 88.0 265.9 90.3 267.7 89.6 C 269.6 88.5 268.7 89.4 271.8 88.1 C 272.7 87.7 273.0 87.5 273.3 87.3 C 273.1 87.3 271.2 87.8 273.2 87.0 C 273.7 86.9 274.8 86.6 276.3 86.0 C 276.2 85.8 273.1 87.1 276.2 85.7 C 277.7 85.1 276.5 86.0 278.5 85.0 C 278.4 84.9 279.0 84.6 279.1 84.5 C 276.3 86.0 279.6 84.1 277.6 84.9 C 280.0 83.6 278.1 84.9 279.7 84.1 C 279.7 83.9 282.4 82.9 282.3 82.6 C 281.4 83.2 279.4 84.2 279.6 83.8 C 281.4 83.0 288.7 78.5 286.1 80.5 C 287.0 79.8 291.5 76.2 291.3 76.6 C 290.0 77.6 290.1 77.7 290.0 78.0 C 292.4 75.9 293.8 75.1 295.8 72.8 C 293.3 75.0 294.9 73.0 293.2 74.2 C 292.6 74.8 291.5 75.5 291.4 75.8 C 291.9 75.7 292.9 74.7 293.3 74.2 C 293.4 74.4 293.6 74.6 293.7 74.7 C 290.6 77.0 288.8 78.5 287.0 79.5 C 288.5 78.5 283.9 81.0 285.7 79.8 C 286.5 79.5 288.3 78.4 289.7 77.5 C 289.6 77.4 289.6 77.4 289.5 77.3 C 290.1 76.9 291.0 76.3 291.0 76.2 C 289.2 77.5 288.0 78.0 286.7 79.1 C 286.7 79.0 286.7 79.0 286.6 78.9 C 286.3 79.1 286.0 79.3 286.1 79.2 C 286.7 78.8 287.6 78.2 287.7 78.1 C 286.2 79.0 285.8 78.9 284.1 79.9 C 284.3 79.4 281.9 80.5 284.3 78.9 C 284.9 78.9 286.2 78.2 286.3 78.3 C 287.0 78.0 288.4 77.0 288.9 76.5 C 288.2 76.8 286.8 77.6 286.6 77.5 C 287.6 76.7 288.4 76.1 289.2 75.8 C 287.1 77.4 290.5 75.1 291.4 74.7 C 291.1 74.8 290.6 75.1 290.3 75.2 C 291.8 74.0 292.6 73.6 292.5 73.3 C 294.1 71.7 293.9 72.3 295.0 71.2 C 294.1 71.7 295.6 70.4 294.7 70.9 C 296.4 69.1 295.4 70.6 296.0 70.0 C 296.5 69.5 296.5 69.3 296.9 68.8 C 297.7 68.1 298.9 66.5 299.3 66.5 C 299.8 65.8 300.0 65.8 300.4 65.1 C 300.4 64.8 300.4 64.6 300.6 64.2 C 300.7 64.1 301.1 63.7 301.0 63.5 C 299.7 65.2 300.1 64.7 298.5 66.5 C 298.4 66.7 298.2 67.0 298.6 66.6 C 297.7 68.0 297.2 68.3 296.2 69.5 C 295.9 69.5 295.4 69.5 294.5 70.7 C 294.6 70.3 294.2 70.5 294.6 70.0 C 295.3 69.6 296.1 68.9 296.8 68.1 C 296.8 68.0 296.6 68.0 297.0 67.6 C 297.4 67.3 297.9 66.8 298.2 66.2 C 298.2 66.3 298.2 66.5 298.1 66.7 C 299.5 65.0 298.7 65.4 299.7 64.2 C 299.4 64.3 298.9 65.2 299.2 64.4 C 299.9 63.1 300.1 62.9 300.5 62.3 C 300.4 62.2 300.3 62.2 300.5 61.9 C 301.0 61.1 300.0 64.0 301.0 62.6 C 300.9 62.4 301.6 60.9 301.8 60.8 C 301.8 61.3 301.2 62.1 301.3 62.2 C 302.5 59.5 301.9 62.3 302.7 59.4 C 302.6 59.4 302.5 59.4 302.4 59.4 C 302.2 60.5 301.9 60.5 301.7 60.3 C 301.4 61.3 301.0 61.6 300.7 62.5 C 300.5 62.0 301.1 61.6 301.5 60.6 C 301.2 60.6 300.9 61.5 300.6 61.5 C 301.7 59.4 301.5 58.9 302.1 56.8 C 301.7 57.2 302.1 55.6 301.9 55.7 C 301.9 57.5 301.2 56.7 301.1 57.0 C 301.0 58.1 301.5 57.7 301.5 58.4 C 301.2 58.7 301.1 58.5 300.8 58.3 C 301.1 57.3 301.0 57.4 300.9 56.6 C 301.2 56.0 301.7 55.4 301.8 56.4 C 301.7 56.2 301.6 54.8 301.8 54.7 C 301.8 56.0 301.9 54.5 302.0 55.3 C 302.2 54.3 301.6 52.5 301.5 51.1 C 301.3 51.3 301.2 50.8 301.1 50.9 C 301.7 52.1 301.2 52.5 301.4 53.7 C 301.3 53.2 301.1 53.5 301.1 53.7 C 301.1 52.5 300.7 51.9 300.7 51.0 C 300.6 51.0 300.5 51.1 300.4 51.1 C 300.2 49.6 300.1 49.8 299.4 48.8 C 299.4 48.3 300.0 48.7 300.3 48.8 C 300.0 48.3 298.9 46.2 299.3 47.5 C 298.7 46.3 299.1 46.5 298.3 45.3 C 298.1 45.4 298.8 46.5 298.3 46.3 C 297.5 45.2 298.2 45.6 297.4 44.8 C 297.5 44.7 297.7 44.5 296.9 43.5 C 297.3 44.4 296.7 43.5 296.4 43.3 C 296.7 43.8 297.0 44.2 297.1 44.5 C 295.8 42.7 295.4 42.4 293.9 41.0 C 294.7 41.3 293.9 40.5 295.0 41.3 C 294.0 40.6 292.9 39.2 292.3 38.8 C 292.9 39.5 293.8 40.4 294.1 40.8 C 291.1 38.0 289.0 36.8 285.4 34.2 C 286.1 34.5 286.9 35.1 287.1 35.1 C 286.7 34.9 286.0 34.4 286.0 34.4 C 287.4 35.2 288.5 36.0 289.2 36.4 C 290.1 37.3 288.5 36.1 289.5 36.9 C 289.8 37.0 291.6 38.5 291.1 37.7 C 289.2 36.6 287.6 35.1 286.9 34.2 C 284.8 33.4 286.6 34.5 284.2 33.6 C 284.3 33.5 283.9 33.1 283.2 32.7 C 283.7 33.4 281.0 31.7 280.7 31.5 C 281.9 32.0 285.8 34.1 284.0 32.6 C 284.6 33.7 279.4 29.9 280.3 30.9 C 277.5 29.5 278.7 29.7 276.9 29.2 C 276.9 29.1 277.2 29.1 276.4 28.7 C 275.6 28.3 275.3 28.2 274.9 28.1 C 279.0 30.2 277.6 29.9 280.1 31.2 C 279.7 31.0 279.3 30.8 279.4 31.0 C 279.3 31.0 279.3 31.0 278.7 30.7 C 278.7 30.3 276.6 29.7 276.1 29.2 C 276.9 29.6 277.7 30.0 277.5 29.7 C 274.1 28.1 275.0 28.1 269.8 25.8 C 271.3 26.6 269.2 25.8 267.3 25.1 C 264.7 24.0 265.9 24.1 262.5 22.9 C 262.5 23.2 261.6 22.9 260.2 22.3 C 258.7 21.8 258.0 21.5 256.8 21.3 C 257.1 21.1 254.0 20.0 253.2 20.0 C 253.2 19.9 252.0 19.6 251.2 19.4 C 251.0 19.2 252.0 19.4 251.3 19.1 C 250.5 19.0 251.1 19.4 250.1 19.1 C 249.0 18.8 249.3 18.6 247.6 18.1 C 247.5 18.3 248.4 18.5 247.5 18.4 C 246.0 17.9 244.7 17.6 245.9 18.2 C 243.6 17.6 244.8 17.4 242.7 16.9 C 243.3 17.2 243.2 17.3 242.1 17.0 C 241.3 16.7 241.3 16.5 241.1 16.4 C 240.4 16.4 240.6 16.5 238.8 16.0 C 238.8 16.1 238.8 16.2 238.7 16.3 C 237.9 16.1 236.7 15.9 236.5 15.7 C 238.0 16.1 237.7 15.8 238.3 15.9 C 236.8 15.5 233.8 14.6 236.0 15.4 C 233.9 15.0 235.0 14.9 233.2 14.6 C 234.2 15.1 233.3 14.7 231.5 14.4 C 231.6 14.7 230.3 14.2 229.2 14.0 C 229.3 14.2 229.0 14.2 228.0 14.1 C 228.1 13.9 227.4 13.8 226.3 13.6 C 226.2 13.7 228.7 14.3 226.2 13.8 C 225.1 13.5 225.2 13.2 223.3 12.9 C 223.0 12.6 225.0 13.0 224.6 12.7 C 223.1 12.7 222.6 12.4 220.4 12.0 C 221.2 12.6 215.9 11.9 218.5 12.5 C 217.7 12.4 216.6 12.5 216.1 12.2 C 216.9 12.3 215.5 11.8 215.6 11.8 C 214.5 11.7 212.0 11.2 211.9 11.4 C 214.3 11.6 214.2 11.9 214.9 12.1 C 211.5 11.8 208.6 11.3 208.8 11.0 C 208.8 11.1 208.3 11.1 208.2 11.1 C 209.4 11.2 210.1 11.7 208.8 11.6 C 209.1 11.4 208.1 11.2 207.0 11.0 C 206.9 11.2 202.4 10.3 203.3 10.7 C 205.1 10.8 206.5 11.3 205.1 11.3 C 204.0 10.9 201.5 10.5 202.1 10.4 C 201.4 10.4 200.8 10.4 200.2 10.4 C 199.6 10.6 201.0 10.7 200.7 10.9 C 199.8 10.8 198.4 10.7 198.2 10.5 C 200.7 10.8 197.0 10.2 199.6 10.3 C 198.0 10.2 197.6 10.0 196.4 9.9 C 196.4 9.9 195.9 9.9 195.8 10.0 C 196.9 9.9 198.0 10.2 197.6 10.4 C 195.4 10.2 195.8 9.9 193.9 9.8 C 193.3 9.9 190.7 10.0 189.4 9.7 C 191.9 9.9 189.2 9.6 190.7 9.6 C 193.0 9.9 193.6 9.7 194.5 9.6 C 193.5 9.4 191.6 9.1 191.4 9.4 C 192.6 9.5 192.6 9.4 193.3 9.4 C 193.2 9.5 192.8 9.6 192.0 9.6 C 190.9 9.3 188.6 9.3 190.1 9.1 C 188.5 9.2 186.7 8.8 185.0 8.8 C 186.9 9.0 188.3 9.2 188.8 9.4 C 187.2 9.4 185.7 9.0 185.6 9.2 C 185.8 9.4 188.3 9.5 188.8 9.7 C 186.8 9.8 183.8 8.9 186.2 9.6 C 185.1 9.5 183.6 9.4 183.1 9.3 C 184.4 9.3 183.0 8.9 182.4 8.8 C 181.2 8.8 180.3 8.7 179.8 8.8 C 181.7 8.8 183.0 9.2 181.8 9.2 C 181.5 9.0 181.1 9.2 180.5 9.2 C 180.4 9.0 178.3 9.0 178.0 8.9 C 178.1 9.0 179.0 9.1 179.2 9.2 C 178.0 9.2 176.2 9.5 175.4 9.1 C 176.1 9.1 177.2 9.2 177.3 9.1 C 174.0 8.6 172.9 8.2 168.9 7.9 C 169.4 7.9 169.7 7.9 169.6 7.8 C 167.0 7.7 165.4 7.5 165.7 7.4 C 164.1 7.4 163.3 7.5 162.5 7.6 C 164.1 7.8 164.7 7.6 165.7 7.8 C 165.1 7.8 167.0 8.3 167.7 8.5 C 170.4 8.3 170.6 8.7 173.4 8.7 C 172.6 8.9 175.5 8.8 174.7 9.0 C 172.1 8.6 169.5 8.7 165.7 8.5 C 166.2 8.3 166.7 8.1 165.1 8.0 C 162.6 7.8 163.8 8.2 161.8 8.1 C 161.0 7.9 162.2 7.9 161.2 7.8 C 160.5 7.9 158.6 7.8 157.9 7.6 C 160.6 7.6 157.4 7.4 159.2 7.3 C 158.3 7.3 157.8 7.2 157.2 7.2 C 159.8 7.5 154.6 7.5 156.6 7.7 C 153.0 7.8 156.4 7.1 153.4 7.2 C 154.8 7.3 152.9 7.4 150.8 7.4 C 150.2 7.2 148.0 7.2 146.2 7.1 C 147.2 7.3 147.9 7.2 146.2 7.4 C 147.1 7.5 148.6 7.5 149.5 7.4 C 149.5 7.5 149.8 7.5 150.2 7.6 C 148.0 7.7 148.9 7.8 148.2 7.9 C 147.6 7.8 146.0 7.8 145.6 7.7 C 145.6 7.7 145.0 7.8 145.0 7.8 C 147.7 7.8 144.5 8.2 146.2 8.2 C 147.4 8.2 146.7 7.9 148.2 7.9 C 149.7 8.2 147.0 8.3 146.2 8.5 C 147.5 8.7 149.0 8.3 149.5 8.6 C 147.8 8.9 145.2 8.8 143.0 8.8 C 143.2 9.1 139.4 8.8 139.1 9.2 C 138.8 9.1 138.4 9.1 137.9 9.0 C 137.3 9.3 136.6 9.0 135.9 9.0 C 135.9 9.2 136.1 9.3 136.6 9.3 C 133.9 9.3 133.3 9.3 130.2 9.6 C 129.7 9.5 129.1 9.4 128.9 9.2 C 129.6 9.1 130.3 9.1 130.8 8.9 C 126.5 9.2 129.3 9.7 126.3 9.5 C 126.4 9.6 128.5 9.7 127.0 9.9 C 124.3 9.8 120.5 10.3 120.6 9.6 C 118.2 9.6 116.7 10.2 115.5 10.0 C 114.8 10.1 114.6 10.2 114.3 10.3 C 115.0 10.4 115.9 10.4 116.8 10.4 C 118.2 10.2 118.8 10.4 117.5 10.1 C 119.5 9.9 120.1 10.1 121.2 10.1 C 118.3 10.5 115.7 10.5 115.6 10.9 C 114.6 10.8 113.9 10.7 113.1 10.6 C 112.8 10.8 109.6 11.3 109.3 11.0 C 111.5 10.9 113.7 10.3 111.7 10.4 C 106.4 11.1 103.4 11.0 98.8 11.9 C 98.7 11.8 99.0 11.6 98.2 11.7 C 98.2 11.8 98.0 11.9 97.6 12.1 C 96.1 12.3 95.3 12.3 93.4 12.6 C 93.4 12.4 93.1 12.2 92.1 12.3 C 91.5 12.7 89.7 13.5 88.6 13.5 C 89.7 13.3 88.2 13.3 87.4 13.4 C 88.1 13.6 82.1 14.1 83.8 14.1 C 81.4 14.6 80.4 14.7 80.3 14.6 C 79.5 14.8 78.9 15.0 78.1 15.2 C 77.5 14.9 73.5 16.0 73.0 16.0 C 74.3 15.8 74.5 15.4 73.4 15.7 C 72.7 16.0 69.2 17.0 68.5 17.1 C 68.7 17.0 68.9 16.7 70.7 16.2 C 67.7 16.8 67.8 17.2 66.9 17.7 C 67.0 17.3 65.7 17.9 65.3 18.1 C 64.4 18.2 65.3 18.0 65.2 17.8 C 64.2 18.0 63.8 18.0 62.5 18.3 C 62.9 18.5 61.5 18.7 60.9 18.8 C 60.8 19.1 60.1 19.4 58.9 19.7 C 60.4 18.9 52.3 21.3 54.3 21.0 C 52.8 21.7 52.6 21.2 50.7 21.9 C 50.3 22.1 49.2 22.4 50.3 22.3 C 49.5 22.5 48.6 22.8 48.2 22.8 C 47.9 22.9 47.4 23.0 45.9 23.6 C 47.3 23.4 42.7 24.7 43.6 24.8 C 42.1 24.9 39.8 26.4 37.3 27.1 C 37.3 27.2 36.7 27.5 36.6 27.6 C 36.3 27.9 39.5 26.6 37.4 27.5 C 34.9 28.4 36.2 27.8 35.8 27.8 C 29.3 30.9 22.7 34.6 18.4 38.0 C 19.0 37.7 19.0 37.8 18.2 38.6 C 16.7 39.2 12.9 43.5 12.5 44.2 C 12.0 44.4 10.8 46.6 10.4 46.9 C 10.7 46.5 11.0 45.6 10.4 46.5 C 10.4 47.2 9.8 47.8 9.6 48.7 C 9.1 49.0 8.5 51.7 8.4 50.4 C 8.3 50.8 8.2 51.1 8.0 51.4 C 8.3 51.5 8.1 52.0 8.5 51.1 C 7.6 53.4 7.9 53.9 7.7 55.7 C 7.9 56.0 8.0 54.7 8.0 55.7 C 8.0 55.7 7.9 55.7 7.9 55.7 C 7.9 56.1 8.0 56.2 7.9 56.4 C 7.8 56.3 7.8 55.7 7.5 55.7 C 7.6 56.6 7.3 57.2 7.6 57.5 C 7.5 56.3 8.0 57.0 7.9 57.8 C 7.7 57.2 8.5 60.6 9.1 61.6 C 9.1 62.3 8.6 60.4 8.5 60.6 C 9.3 62.7 9.2 62.6 9.6 62.7 C 10.1 63.8 10.2 64.4 11.2 65.6 C 11.6 66.4 10.7 65.2 11.2 66.1 C 11.7 66.5 11.9 66.7 12.5 67.4 C 13.7 69.6 19.2 73.5 21.9 76.3 C 20.7 75.3 22.4 76.3 24.2 77.5 C 24.2 77.6 23.9 77.6 24.6 78.0 C 24.6 77.8 25.2 78.1 26.4 78.9 C 26.5 79.0 26.2 79.0 26.9 79.4 C 27.6 79.5 29.1 80.6 30.1 81.0 C 30.4 81.5 27.7 79.8 27.5 79.9 C 30.5 81.8 31.3 81.9 34.0 83.3 C 32.5 82.6 34.9 84.0 35.3 84.2 C 34.8 83.7 37.1 84.6 35.6 83.7 C 36.6 84.2 38.3 84.9 38.5 85.1 C 37.9 84.9 36.9 84.4 36.9 84.5 C 38.3 85.1 40.0 86.1 40.8 86.1 C 39.8 85.7 39.2 85.4 39.3 85.3 C 39.7 85.3 40.2 85.4 41.0 85.7 C 38.5 85.4 45.3 87.7 45.7 87.7 C 46.2 88.3 46.7 88.4 46.4 88.5 C 49.3 89.6 49.5 89.3 50.5 89.6 C 50.1 89.8 49.7 89.9 51.3 90.5 C 51.0 90.1 53.0 90.8 52.5 90.3 C 56.7 91.5 57.6 92.1 60.2 92.8 C 60.3 92.7 59.4 92.5 60.2 92.7 C 61.4 93.1 62.5 93.5 63.3 93.8 C 64.0 93.8 63.1 93.5 63.9 93.6 C 65.9 94.4 65.3 94.5 67.0 95.2 C 69.3 95.5 68.4 95.5 69.8 95.5 C 69.3 95.4 68.5 95.1 69.3 95.2 C 70.6 95.8 71.1 96.2 71.4 96.3 C 70.5 96.1 69.7 95.9 69.2 95.7 C 68.9 95.8 67.5 95.5 68.6 95.9 C 67.2 95.5 65.7 95.1 63.7 94.6 C 64.3 95.0 61.9 94.2 62.5 94.6 C 64.8 95.1 65.3 95.4 67.4 95.9 C 67.0 95.5 69.2 96.2 69.6 96.4 C 69.7 96.2 71.2 96.6 70.9 96.3 C 72.6 96.7 72.5 96.9 74.2 97.2 C 74.3 97.3 74.0 97.4 74.7 97.5 C 75.4 97.4 75.8 97.9 76.4 98.0 C 76.1 97.6 78.6 98.3 78.8 98.1 C 78.1 98.0 77.1 97.8 77.0 97.7 C 79.8 98.3 77.7 97.6 77.1 97.3 C 77.2 97.4 76.1 97.5 76.0 97.3 C 78.3 97.6 72.8 96.2 74.9 96.7 C 76.6 97.2 76.6 97.0 78.3 97.4 C 80.4 98.2 77.8 98.0 79.9 98.7 C 81.2 98.8 82.1 99.0 82.3 98.8 C 82.6 99.0 82.9 99.1 83.4 99.3 C 84.0 99.2 81.7 98.7 83.4 98.9 C 84.3 99.2 83.2 99.3 85.2 99.6 C 86.0 99.5 82.9 98.9 84.6 99.2 C 86.4 99.9 84.3 99.0 86.4 99.3 C 86.6 99.4 86.9 99.5 87.6 99.6 C 87.7 99.7 87.4 99.9 88.1 100.0 C 88.6 99.7 88.9 100.3 90.5 100.5 C 91.4 100.3 88.9 100.1 89.4 99.9 C 91.2 100.5 92.3 100.3 93.0 100.5 C 91.5 100.4 95.3 101.0 95.3 101.2 C 95.0 100.9 95.8 101.1 97.9 101.2 C 97.9 101.7 100.4 101.7 100.9 102.1 C 101.2 102.0 101.8 102.0 102.1 101.9 C 101.4 101.8 100.7 101.7 100.9 101.6 C 101.5 101.7 102.1 101.7 102.8 101.8 C 103.8 102.2 101.1 102.3 105.2 102.8 C 104.8 102.4 106.5 102.6 107.7 102.6 C 107.6 102.3 106.1 102.4 105.9 102.2 C 107.3 102.2 108.7 102.6 109.6 102.8 C 112.0 102.9 114.9 103.4 118.5 103.6 C 119.2 103.8 115.5 103.5 117.8 103.8 C 118.8 103.9 118.3 103.7 119.7 103.8 C 118.4 104.8 129.3 104.7 130.0 105.2 C 130.4 105.0 133.5 105.3 133.2 104.9 C 131.1 105.1 129.7 104.7 128.7 104.4 C 126.7 104.5 130.4 104.8 128.7 104.8 C 128.5 104.6 125.8 104.6 126.1 104.4 C 128.9 104.5 124.7 104.0 126.8 103.9 C 129.3 104.1 134.4 104.1 133.2 104.4 C 133.2 104.3 132.1 104.2 132.0 104.3 C 134.9 104.6 136.6 104.4 137.8 104.3 C 139.1 104.6 144.3 104.4 143.0 104.5 C 143.4 104.7 139.9 104.3 140.4 104.6 C 145.7 104.9 145.9 104.6 149.4 104.9 C 148.3 104.6 153.2 104.5 152.7 104.6 C 152.7 104.8 153.8 105.0 156.0 104.7 C 155.7 105.0 156.8 105.1 157.9 105.1 C 158.4 104.9 157.0 104.9 157.2 104.7 C 158.3 104.7 159.5 104.7 160.5 104.7 C 160.6 104.8 160.4 104.9 161.2 104.9 C 162.4 104.8 166.7 104.5 166.4 104.6 C 164.5 105.0 169.4 104.8 166.4 105.1 C 167.2 105.1 167.3 105.2 168.4 105.1 C 168.3 105.0 168.3 104.9 168.3 104.8 C 170.7 104.7 169.6 105.1 171.6 105.1 C 171.8 105.0 172.7 104.9 172.9 104.8 C 172.1 104.8 172.0 104.9 170.9 104.9 C 172.1 104.5 168.8 104.8 169.0 104.5 C 171.2 104.4 171.3 104.6 172.2 104.7 C 175.0 104.4 173.7 104.6 176.7 104.5 C 176.7 104.4 175.9 104.5 176.1 104.3 C 179.8 104.2 179.4 104.7 181.9 104.4 C 181.3 104.5 179.1 104.8 180.7 104.7 C 182.4 104.5 182.8 104.2 185.1 104.0 C 185.2 104.1 185.0 104.3 185.8 104.2 C 186.7 104.1 186.8 103.9 187.6 103.7 C 187.8 103.8 189.1 103.6 189.6 103.5 C 190.4 103.7 189.3 103.8 190.3 103.8 C 192.1 103.6 193.1 103.0 194.6 102.9 C 194.6 103.3 196.3 103.0 197.8 102.8 C 198.1 103.1 201.4 102.7 203.5 102.5 C 203.0 102.3 205.2 102.2 204.7 102.0 C 203.6 102.1 203.1 102.1 202.8 102.0 C 205.3 101.7 206.0 102.1 207.8 101.5 C 208.7 101.6 209.9 101.6 211.5 101.4 C 211.7 101.3 208.6 101.6 210.3 101.3 C 210.4 101.3 210.9 101.2 211.5 101.1 C 211.3 101.4 212.6 101.3 213.4 101.3 C 214.8 100.9 217.8 100.8 216.4 100.7 C 218.6 100.3 217.2 101.0 218.9 100.7 C 218.0 100.5 220.9 100.0 219.4 100.1 C 221.7 99.6 221.6 100.1 220.6 100.4 C 222.8 100.1 223.2 99.8 224.2 99.8 C 223.2 99.7 226.4 99.0 224.8 99.4 C 224.3 99.8 226.7 99.2 227.2 99.2 C 226.4 99.2 227.5 99.0 226.0 99.1 C 227.5 98.8 229.8 98.3 231.2 98.3 C 233.1 97.7 234.9 97.4 234.1 97.8 C 235.9 97.3 235.2 97.5 237.0 97.2 C 237.0 97.1 236.5 97.2 236.3 97.1 C 238.8 96.6 238.3 96.9 241.5 96.1 C 241.2 96.5 243.1 96.0 243.8 96.0 C 242.5 96.3 241.4 96.5 240.4 96.7 C 240.2 96.9 241.3 96.7 240.5 96.9 C 240.3 96.9 239.8 97.0 239.3 97.0 C 241.4 96.8 236.8 98.0 238.2 97.4 C 238.2 97.5 238.3 97.5 238.8 97.4 C 238.3 97.3 238.4 97.3 238.7 97.0 C 237.7 97.3 236.8 97.2 236.4 97.5 C 236.5 97.6 237.5 97.4 237.6 97.4 C 235.1 98.1 236.8 97.3 234.7 97.8 C 234.4 98.2 235.4 98.0 236.0 98.0 C 234.1 98.5 232.4 98.8 231.9 98.7 C 230.2 99.2 232.1 98.9 230.8 99.3 C 230.2 99.3 230.2 99.1 229.0 99.3 C 227.7 99.6 229.8 99.3 228.5 99.6 C 227.0 99.7 229.4 99.1 227.2 99.5 C 227.8 99.7 225.3 99.8 225.5 99.9 C 226.7 99.7 226.8 100.0 226.1 99.9 C 223.2 100.1 221.3 101.3 218.3 101.2 C 218.3 101.3 217.9 101.4 217.8 101.5 C 220.0 101.3 223.2 100.8 223.8 101.1 C 225.5 100.7 225.3 100.5 225.5 100.3 C 227.6 100.3 227.4 100.4 226.3 100.9 C 222.9 101.6 221.4 101.7 219.1 101.9 C 217.9 102.3 219.2 102.0 219.7 102.1 C 212.6 102.9 218.1 102.8 215.5 103.1 C 215.6 103.0 215.0 103.0 214.3 103.1 C 214.3 103.2 213.2 103.3 213.1 103.4 C 213.5 103.3 213.8 103.4 213.7 103.5 C 211.9 103.8 212.6 103.4 212.4 103.3 C 213.8 103.2 214.7 103.0 214.9 102.8 C 213.1 103.2 211.7 103.2 210.6 103.6 C 208.8 103.5 211.4 102.8 210.4 102.6 C 210.7 102.4 209.4 103.4 208.1 103.7 C 205.8 103.9 205.8 104.2 203.7 104.4 C 203.1 104.2 205.8 104.1 205.6 103.9 C 205.0 104.0 204.8 103.9 204.3 104.0 C 202.8 104.2 203.0 104.4 201.8 104.6 C 201.2 104.4 200.8 104.6 200.0 104.8 C 198.5 104.8 200.7 104.5 199.3 104.6 C 197.7 104.7 196.6 105.1 196.1 105.1 C 196.0 105.1 196.2 104.9 195.5 105.0 C 193.7 105.3 193.3 105.4 195.5 105.3 C 193.5 105.4 192.7 105.6 193.0 105.8 C 196.0 105.6 196.7 105.5 198.1 105.7 C 198.7 105.3 199.5 105.5 200.7 105.4 C 199.9 105.1 202.0 105.3 202.5 105.0 C 201.8 105.0 201.1 105.0 200.6 105.0 C 203.8 104.7 203.7 104.7 206.2 104.1 C 206.2 104.2 206.5 104.2 206.8 104.2 C 206.1 104.4 203.8 104.6 203.8 104.8 C 205.6 104.9 206.1 104.4 208.2 104.5 C 209.0 104.2 206.5 104.4 208.1 104.1 C 208.9 104.2 210.0 104.2 211.3 104.1 C 212.6 103.9 213.2 103.7 214.3 103.5 C 214.4 103.5 214.6 103.6 215.6 103.4 C 215.5 103.3 214.5 103.4 215.5 103.2 C 218.8 103.0 221.0 102.9 224.1 102.2 C 223.0 102.3 220.4 102.5 221.6 102.3 C 223.1 102.2 224.9 101.6 226.4 101.6 C 226.9 101.6 224.7 101.8 225.3 102.1 C 226.6 101.8 227.5 101.7 228.2 101.6 C 228.2 101.5 229.8 101.2 229.4 101.1 C 228.2 101.3 227.9 101.6 227.6 101.6 C 228.5 100.7 232.0 101.0 234.1 100.6 C 235.5 100.2 233.0 100.5 234.6 100.1 C 235.6 99.8 236.3 100.2 234.7 100.7 C 233.6 100.8 233.2 101.2 232.9 101.0 C 232.5 101.1 231.8 101.2 231.8 101.3 C 232.6 101.1 232.5 101.3 233.0 101.3 C 231.9 101.5 231.8 102.0 230.7 101.9 C 231.4 101.7 231.6 101.6 231.9 101.5 C 228.8 102.2 227.7 102.2 225.9 102.4 C 226.9 102.4 225.9 102.5 226.0 102.7 C 227.3 102.4 230.0 102.1 228.4 102.4 C 227.3 102.3 226.5 103.2 225.4 103.1 C 226.2 103.0 226.1 102.8 226.6 102.7 C 225.3 102.9 225.4 102.7 224.1 102.9 C 220.3 103.9 217.2 103.8 210.8 105.2 C 208.5 105.5 212.8 104.8 212.6 104.6 C 211.9 104.7 211.8 104.6 211.3 104.7 C 211.3 105.0 210.2 104.8 209.5 105.2 C 209.6 104.9 206.6 105.5 205.1 105.5 C 205.0 105.6 205.2 105.7 204.5 105.8 C 199.9 106.0 191.4 107.2 187.9 107.2 C 188.0 107.4 186.5 107.5 186.0 107.7 C 183.8 107.8 184.8 107.5 181.5 108.0 C 179.9 108.1 181.8 107.8 182.1 107.7 C 177.2 108.1 172.8 108.0 169.7 108.4 C 168.1 108.6 169.7 108.3 166.5 108.3 C 166.4 108.6 161.3 108.2 160.6 108.6 C 158.6 108.7 155.0 108.3 156.6 108.6 C 153.9 108.6 155.7 108.3 154.6 108.3 C 152.8 108.3 155.2 108.9 153.3 108.9 C 153.5 108.6 151.9 108.7 150.7 108.5 C 152.2 108.5 153.2 108.5 153.4 108.3 C 152.1 108.5 152.1 108.3 150.1 108.3 C 148.5 108.5 144.1 108.6 142.9 108.2 C 142.8 108.3 143.2 108.4 143.5 108.4 C 142.2 108.4 140.7 108.1 140.9 108.4 C 137.9 108.4 136.7 108.0 135.0 108.2 C 133.7 108.3 135.5 108.0 131.7 107.8 C 131.6 108.1 125.1 107.6 123.3 107.3 C 123.2 107.6 122.9 107.3 122.1 107.2 C 121.9 107.3 122.1 107.4 121.4 107.4 C 121.2 107.3 120.7 107.3 120.1 107.3 C 120.6 106.9 117.7 107.2 117.5 106.9 C 118.1 107.0 118.1 106.8 117.6 106.7 C 117.4 107.0 114.7 106.3 115.0 106.5 C 115.6 106.7 117.4 106.8 116.9 106.9 C 114.3 106.8 115.4 106.6 113.7 106.4 C 113.8 106.5 114.8 106.7 113.7 106.7 C 111.9 106.4 113.6 106.6 112.5 106.3 C 111.5 106.3 109.8 106.3 109.2 106.2 C 109.4 106.2 108.9 106.0 108.6 106.0 C 105.4 105.5 98.0 104.9 95.0 104.1 C 94.7 104.2 94.1 104.1 94.3 104.3 C 92.4 103.9 92.6 104.0 90.7 103.6 C 90.7 103.7 90.6 103.8 90.6 103.9 C 88.2 103.6 90.4 103.5 88.8 103.3 C 88.6 103.8 87.9 103.0 86.5 102.7 C 86.3 102.8 85.6 102.7 85.8 102.9 C 83.5 102.5 83.7 102.2 81.7 102.0 C 82.1 102.1 82.4 102.9 82.1 103.1 C 81.8 102.9 81.2 102.7 80.3 102.5 C 81.4 102.5 81.0 101.5 78.2 101.2 C 79.7 101.4 80.3 101.6 79.9 101.8 C 77.8 101.4 77.1 101.1 75.3 100.7 C 74.9 100.9 76.2 101.2 75.7 101.3 C 75.2 101.3 75.0 101.3 75.1 101.4 C 73.2 100.9 73.2 100.7 71.1 100.4 C 71.1 100.3 71.6 100.4 72.3 100.6 C 72.2 100.4 72.2 100.2 73.5 100.5 C 73.6 100.6 72.8 100.7 74.6 101.0 C 74.6 100.9 74.6 100.8 74.7 100.6 C 73.4 100.3 70.4 99.5 70.1 99.5 C 70.7 99.8 71.7 100.1 71.1 100.2 C 69.0 99.6 68.5 99.2 66.7 98.7 C 63.7 98.0 58.5 96.5 59.0 97.0 C 57.2 96.5 57.9 96.6 56.3 96.1 C 56.7 96.5 54.6 95.7 54.7 96.0 C 56.6 96.5 56.0 96.4 57.9 96.8 C 57.8 96.9 57.4 97.0 56.7 96.8 C 56.6 96.6 55.9 96.4 54.6 96.0 C 54.8 96.1 55.9 96.7 54.5 96.3 C 54.5 96.2 54.2 96.1 53.5 96.0 C 53.6 95.8 53.6 95.7 53.7 95.6 C 54.4 95.7 55.3 95.9 55.8 96.0 C 55.3 95.8 55.2 95.7 54.8 95.6 C 54.4 95.6 52.3 94.8 52.1 94.9 C 53.0 95.2 53.5 95.5 52.6 95.2 C 52.4 95.2 51.1 94.6 50.5 94.6 C 52.3 95.3 51.6 95.1 52.5 95.6 C 51.4 95.3 51.0 95.1 50.5 94.9 C 50.3 94.8 50.1 94.7 49.7 94.6 C 49.4 94.5 49.4 94.5 48.4 94.1 C 48.3 93.9 48.5 93.8 49.1 93.9 C 48.4 93.4 46.0 92.6 44.0 91.9 C 42.0 91.2 40.1 90.5 39.2 90.1 C 40.4 90.7 42.0 90.9 40.1 90.2 C 40.0 90.3 38.6 89.7 38.4 89.6 C 37.6 89.8 39.1 90.7 40.5 91.5 C 38.9 90.9 38.6 90.9 37.2 90.3 C 36.8 89.9 38.4 90.2 36.6 89.4 C 36.1 89.6 33.4 88.1 32.7 88.1 C 33.9 88.6 34.6 89.1 33.4 88.5 C 33.7 88.5 31.2 87.4 31.2 87.3 C 33.2 88.1 33.8 88.1 35.1 88.7 C 33.5 88.0 36.3 89.0 33.7 87.8 C 32.5 87.4 31.7 87.4 29.2 86.1 C 28.2 85.6 29.2 85.8 28.0 85.1 C 28.2 85.5 25.5 84.1 27.2 84.8 C 26.3 84.3 25.8 84.0 25.3 83.7 C 26.5 84.6 20.5 81.4 21.3 82.1 C 21.4 81.8 21.3 81.4 21.1 81.1 C 19.8 80.7 18.7 79.7 16.1 77.7 C 16.1 78.0 15.7 77.4 14.7 76.6 C 14.4 76.6 15.2 77.4 14.5 76.8 C 13.4 75.8 13.4 75.7 13.3 75.4 C 12.5 74.7 12.0 74.2 11.6 73.8 C 11.5 73.8 11.7 74.1 11.9 74.3 C 9.2 71.4 7.9 70.2 6.3 67.6 C 6.9 68.8 7.4 68.7 6.8 67.9 C 6.4 67.4 6.1 67.0 5.9 66.7 C 6.0 67.4 5.9 67.1 5.3 65.9 C 4.6 64.8 5.2 66.5 4.7 65.6 C 4.3 64.6 4.7 65.1 4.6 64.5 C 4.4 64.1 4.1 63.6 4.0 63.2 C 4.2 64.1 3.7 63.2 3.4 62.4 C 3.8 62.9 3.7 62.5 3.2 60.9 C 3.2 60.7 3.5 61.5 3.4 60.8 C 3.3 60.5 2.7 59.3 2.8 58.1 C 2.8 58.5 2.9 58.6 3.0 58.5 C 2.6 57.3 2.9 56.3 3.0 55.3 C 2.8 56.3 2.6 55.8 2.5 56.2 C 2.6 55.1 2.4 53.8 2.8 52.9 C 2.6 54.5 3.3 53.0 3.5 52.1 C 3.3 51.8 3.1 53.5 2.8 52.9 C 2.7 52.4 3.3 51.2 3.2 50.6 C 3.0 50.7 3.1 51.3 2.9 51.5 C 3.1 50.6 2.7 51.7 2.9 51.0 C 3.2 50.6 3.0 50.0 3.1 49.6 C 3.4 49.0 4.2 47.9 4.2 47.4 C 4.1 47.3 3.8 48.1 3.7 48.2 C 4.5 45.6 5.2 45.0 6.4 42.8 C 6.6 42.6 7.0 42.2 7.5 41.6 C 7.3 41.5 7.5 41.1 7.9 40.6 C 8.7 39.8 9.6 38.9 10.7 37.9 C 10.6 38.2 10.2 38.8 11.7 37.3 C 11.7 37.2 11.1 37.8 11.6 37.2 C 11.6 37.2 12.0 36.9 12.0 36.7 C 12.0 36.7 12.0 36.7 11.9 36.6 C 11.5 37.1 11.1 37.5 10.7 37.9 C 10.6 37.7 10.4 37.8 10.1 38.0 C 11.7 36.2 12.0 36.6 13.1 35.3 C 13.6 35.4 14.0 35.1 13.1 36.3 C 14.2 35.2 15.0 34.4 15.2 34.0 C 13.7 35.2 14.0 34.6 13.5 34.8 C 14.4 34.1 14.4 34.0 14.8 33.6 C 16.0 32.8 13.9 34.8 16.1 33.1 C 14.3 34.2 17.3 31.9 18.6 31.1 C 18.3 31.1 17.9 31.4 18.5 30.9 C 21.7 28.5 21.9 29.4 23.9 27.7 C 23.8 28.0 24.8 27.4 25.3 27.2 C 23.4 28.3 23.0 28.7 22.3 29.2 C 22.5 29.2 23.0 28.9 23.6 28.6 C 23.5 28.5 23.9 28.2 24.8 27.8 C 25.3 27.3 24.9 27.1 26.3 26.1 C 26.5 26.1 26.4 26.3 27.2 25.9 C 27.8 25.4 26.7 26.6 30.0 24.8 C 29.4 25.0 29.0 25.1 29.2 24.8 C 30.8 23.9 30.5 24.1 32.7 23.0 C 33.8 23.0 31.4 24.1 30.8 24.7 C 32.3 23.9 33.5 23.0 35.2 22.5 C 33.9 22.9 35.1 22.2 36.6 21.4 C 38.0 20.9 36.6 21.8 38.4 21.1 C 39.7 20.5 40.3 20.0 39.0 20.4 C 42.0 19.3 41.2 19.3 43.9 18.4 C 44.1 18.5 43.3 18.8 42.3 19.1 C 42.5 19.1 42.2 19.3 43.2 19.0 C 44.0 18.6 45.4 18.0 46.9 17.4 C 48.4 16.9 49.3 16.5 49.9 16.2 C 52.3 15.9 54.8 14.6 57.3 14.1 C 56.4 14.6 60.5 13.2 61.7 13.2 C 62.4 12.9 64.6 11.8 63.8 12.2 C 64.1 12.5 65.5 12.0 66.7 11.8 C 66.7 11.7 66.6 11.7 66.6 11.6 C 69.1 10.9 69.7 11.1 70.6 11.1 C 73.7 10.2 77.2 9.8 81.1 8.8 C 82.1 8.9 82.9 8.7 85.3 8.4 C 85.2 8.2 87.1 7.9 88.8 7.6 C 88.4 7.4 90.0 7.2 90.0 7.1 C 88.4 7.3 89.0 6.9 88.1 7.0 C 90.3 6.9 91.3 6.2 93.0 6.2 C 90.9 6.6 90.3 7.1 90.1 7.5 C 92.6 7.0 93.9 6.9 94.4 7.0 C 94.6 6.8 94.2 6.8 93.7 6.8 C 94.5 6.6 95.4 6.5 96.1 6.4 C 96.4 6.5 95.3 6.7 96.2 6.6 C 96.8 6.5 97.4 6.3 98.0 6.1 C 98.8 6.3 97.1 6.5 96.8 6.6 C 100.2 6.3 98.7 6.0 100.5 5.6 C 101.0 5.8 100.9 6.0 102.4 5.9 C 103.0 5.6 103.1 5.4 104.9 5.2 C 106.0 5.1 104.8 5.6 106.1 5.4 C 106.3 5.3 106.9 5.3 107.4 5.3 C 107.3 5.2 107.9 5.0 108.6 4.9 C 108.8 5.0 110.0 4.8 110.5 4.7 C 110.7 4.8 112.7 4.9 113.1 4.7 C 113.1 4.6 112.0 4.7 111.8 4.7 C 113.3 4.5 114.3 4.4 115.0 4.3 C 115.5 4.8 117.8 4.1 120.8 4.2 C 122.6 3.9 120.4 3.8 122.7 3.5 C 124.1 3.5 122.4 3.7 122.7 3.9 C 123.1 3.9 125.2 4.0 125.3 3.8 C 125.3 3.7 124.2 3.8 124.0 3.7 C 125.7 3.4 125.7 3.6 126.6 3.7 C 126.5 3.5 127.6 3.4 127.9 3.2 C 132.5 2.8 132.5 3.2 134.4 3.3 C 134.4 3.2 135.6 3.2 135.7 3.1 C 134.3 3.3 132.6 3.1 134.4 3.0 C 134.1 3.2 136.8 2.9 137.0 2.8 C 136.7 2.7 135.0 2.8 135.7 2.6 C 138.1 2.4 137.1 2.9 139.0 2.6 C 139.2 2.7 138.1 2.8 137.6 2.9 C 138.4 2.9 139.5 2.8 139.6 2.9 C 138.7 3.0 138.7 3.2 138.3 3.3 C 139.6 3.1 141.9 3.2 140.3 2.9 C 142.9 2.9 145.4 2.7 143.6 2.5 C 145.7 2.4 144.5 2.8 146.2 2.5 C 145.9 2.8 145.4 3.0 146.8 3.2 C 147.1 3.0 148.2 2.9 148.1 2.8 C 151.3 2.7 152.1 3.0 153.4 3.2 C 152.3 2.8 153.8 3.1 155.3 2.9 C 156.3 3.0 155.4 3.3 158.0 3.2 C 155.2 2.8 161.2 3.1 160.0 2.7 C 163.2 2.9 163.2 2.9 166.5 3.1 C 166.2 3.3 165.4 3.3 163.9 3.4 C 164.9 3.1 161.0 3.1 161.3 3.2 C 161.3 3.3 161.3 3.3 161.3 3.4 C 163.8 3.4 165.4 3.5 166.5 3.7 C 167.0 3.5 168.2 3.4 167.8 3.1 C 170.2 3.5 172.7 3.2 173.7 3.5 C 172.9 3.5 172.1 3.5 172.4 3.6 C 173.3 3.6 174.5 3.6 174.4 3.4 C 172.5 3.2 172.1 3.2 171.1 3.3 C 172.0 3.1 169.2 2.9 171.1 2.9 C 171.1 3.3 175.0 2.9 173.7 3.1 C 171.6 3.2 176.1 3.4 176.3 3.6 C 176.3 3.6 176.3 3.6 176.3 3.6 Z M 224.7 102.8 C 226.5 102.3 224.2 102.5 222.9 102.8 C 223.3 102.8 223.5 102.8 223.5 103.0 C 224.1 102.8 224.6 102.7 224.7 102.8 C 224.7 102.8 224.7 102.8 224.7 102.8 Z M 204.7 102.1 C 204.1 102.5 207.2 101.9 208.4 101.8 C 208.1 101.8 207.6 101.8 208.4 101.7 C 207.1 101.6 206.6 102.1 204.7 102.1 C 204.7 102.1 204.7 102.1 204.7 102.1 Z M 133.2 105.3 C 133.7 105.3 135.0 105.3 135.1 105.4 C 135.8 105.4 135.6 105.3 135.8 105.2 C 137.3 105.2 135.4 105.6 137.7 105.5 C 138.6 105.1 133.7 104.8 133.2 105.3 C 133.2 105.3 133.2 105.3 133.2 105.3 Z M 151.4 6.7 C 152.4 6.8 150.1 7.0 150.8 7.3 C 154.4 7.1 151.6 6.8 156.6 6.8 C 156.3 6.8 155.9 6.7 156.0 6.6 C 153.6 6.7 153.4 6.9 154.0 6.4 C 152.9 6.4 152.7 7.0 151.4 6.7 C 151.4 6.7 151.4 6.7 151.4 6.7 Z M 197.7 9.8 C 197.3 9.7 197.0 9.6 197.0 9.5 C 195.6 9.5 195.9 9.6 193.9 9.3 C 194.1 9.7 196.0 9.8 197.7 9.8 C 197.7 9.8 197.7 9.8 197.7 9.8 Z M 300.2 50.0 C 300.3 50.3 300.4 50.5 300.5 50.7 C 300.6 50.5 301.1 51.0 300.6 49.9 C 300.5 49.8 300.6 50.0 300.7 50.2 C 300.5 50.1 300.3 49.5 300.2 49.7 C 300.3 50.0 300.3 50.0 300.2 50.0 C 300.2 50.0 300.2 50.0 300.2 50.0 Z M 285.3 79.2 C 287.4 77.6 281.6 80.5 285.3 79.2 C 285.3 79.2 285.3 79.2 285.3 79.2 C 285.3 79.2 285.3 79.2 285.3 79.2 Z M 291.3 78.6 C 291.4 78.7 291.8 78.3 291.8 78.3 C 293.6 77.1 292.0 78.4 293.0 77.8 C 294.2 76.6 292.1 78.0 293.7 76.5 C 293.2 76.7 292.3 77.9 291.3 78.6 C 291.3 78.6 291.3 78.6 291.3 78.6 Z M 21.5 29.3 C 20.0 30.4 19.7 30.9 19.6 31.3 C 20.6 30.6 21.5 30.1 21.9 30.0 C 23.9 28.5 20.5 30.7 20.1 30.8 C 20.2 30.5 21.6 29.5 21.5 29.3 C 21.5 29.3 21.5 29.3 21.5 29.3 Z M 16.6 32.8 C 16.1 33.4 15.3 34.1 15.4 34.3 C 16.2 33.6 16.4 33.6 16.5 33.6 C 17.2 32.9 16.1 33.6 16.6 32.8 C 16.6 32.8 16.6 32.8 16.6 32.8 Z M 26.7 26.7 C 25.8 27.2 26.2 27.2 26.2 27.3 C 27.4 26.7 27.6 26.7 28.9 26.0 C 28.8 25.9 28.8 25.9 28.8 25.8 C 27.7 26.3 27.7 26.4 26.8 26.9 C 26.7 26.8 26.7 26.8 26.7 26.7 C 26.7 26.7 26.7 26.7 26.7 26.7 Z M 12.7 36.6 C 10.4 38.7 9.9 39.9 9.1 41.5 C 10.3 39.9 11.2 38.2 12.4 37.2 C 13.8 35.9 11.9 37.6 11.9 37.5 C 11.9 37.4 12.3 36.9 12.7 36.6 C 12.7 36.6 12.7 36.6 12.7 36.6 Z M 3.1 56.6 C 3.0 57.2 3.4 58.0 3.6 59.4 C 3.6 59.1 3.7 58.9 3.8 58.9 C 3.5 56.9 3.2 58.1 3.1 56.6 C 3.1 56.6 3.1 56.6 3.1 56.6 Z M 7.1 67.7 C 7.9 68.8 6.9 67.1 7.4 67.5 C 6.6 66.3 5.9 65.0 5.7 65.1 C 6.5 66.4 6.7 66.7 7.1 67.7 C 7.1 67.7 7.1 67.7 7.1 67.7 Z M 13.6 75.1 C 15.0 76.2 13.3 74.4 14.0 74.7 C 13.5 74.2 13.5 74.4 13.4 74.5 C 13.1 74.1 12.7 73.8 12.2 73.2 C 12.5 73.7 14.0 75.0 13.6 75.1 C 13.6 75.1 13.6 75.1 13.6 75.1 Z M 68.5 12.2 C 67.5 12.5 67.9 12.7 65.8 13.1 C 68.9 12.3 67.3 13.5 71.5 12.4 C 70.8 12.5 71.2 12.3 71.5 12.3 C 73.1 11.8 70.0 12.5 71.4 11.9 C 70.2 12.2 71.0 12.3 69.8 12.6 C 68.6 12.7 67.8 12.7 68.5 12.2 C 68.5 12.2 68.5 12.2 68.5 12.2 Z M 71.6 12.6 C 72.7 12.4 72.6 12.0 73.2 12.1 C 73.8 12.0 73.7 11.9 73.8 11.8 C 73.3 11.9 73.3 11.9 73.2 11.9 C 72.2 12.2 71.2 12.5 71.6 12.6 C 71.6 12.6 71.6 12.6 71.6 12.6 Z M 61.1 15.2 C 62.9 14.6 63.4 14.7 64.3 14.2 C 65.0 14.4 65.5 13.8 66.5 13.8 C 68.4 13.3 67.0 13.5 66.5 13.5 C 68.2 13.0 66.9 13.6 68.7 13.1 C 69.0 12.8 66.7 13.4 66.9 13.1 C 65.6 13.4 65.6 13.6 64.8 13.8 C 64.1 14.0 64.3 13.8 64.2 13.8 C 62.6 14.2 62.7 14.0 61.4 14.4 C 61.2 14.7 61.7 14.6 63.2 14.2 C 61.7 14.7 61.1 15.0 59.4 15.4 C 60.5 14.8 55.2 16.2 55.7 16.5 C 57.2 16.1 56.7 16.0 57.2 15.8 C 59.1 15.5 60.3 15.1 61.1 15.2 C 61.1 15.2 61.1 15.2 61.1 15.2 Z M 27.7 27.0 C 27.1 27.3 26.6 27.5 25.8 28.0 C 25.6 27.9 26.7 27.3 25.6 27.8 C 24.2 28.5 24.0 28.8 23.2 29.3 C 23.7 29.1 26.6 27.7 25.2 28.6 C 25.7 28.5 26.6 28.0 27.8 27.4 C 26.3 27.8 29.8 26.3 31.3 25.6 C 31.0 25.3 33.8 24.5 34.8 23.8 C 33.9 24.0 31.0 25.5 29.8 26.2 C 30.4 25.8 26.2 27.4 27.7 27.0 C 27.7 27.0 27.7 27.0 27.7 27.0 Z M 76.1 11.5 C 76.4 11.3 77.7 11.0 76.7 11.2 C 77.2 11.0 78.3 10.9 77.7 10.7 C 78.4 10.5 78.9 10.4 79.5 10.3 C 79.3 10.5 77.7 10.7 78.4 10.9 C 79.5 10.5 79.1 10.7 80.7 10.4 C 79.9 10.8 80.8 10.6 80.2 11.1 C 80.7 10.8 82.1 10.6 82.0 10.4 C 84.2 10.0 81.4 10.8 84.4 10.3 C 84.4 10.5 82.2 10.9 81.5 10.9 C 81.1 11.2 85.1 10.3 87.4 10.0 C 85.4 10.2 86.9 9.7 87.8 9.3 C 88.6 9.2 87.9 9.5 89.1 9.4 C 90.1 9.2 90.6 9.0 90.9 9.1 C 91.8 8.9 91.4 8.8 91.5 8.7 C 92.9 8.5 91.9 9.0 94.0 8.6 C 92.4 8.5 94.1 8.2 97.0 7.9 C 96.8 7.8 95.9 7.9 95.7 7.8 C 96.1 7.6 97.8 7.7 98.2 7.7 C 99.2 7.5 98.6 7.5 97.6 7.6 C 98.2 7.5 98.8 7.3 99.4 7.1 C 96.3 7.5 91.5 8.3 86.0 8.9 C 87.1 8.9 85.8 9.1 84.2 9.3 C 83.9 9.3 84.6 9.1 85.4 9.0 C 83.4 9.0 83.6 9.6 80.7 10.0 C 79.1 10.2 82.4 9.5 80.6 9.7 C 79.6 10.0 78.9 10.3 78.3 10.1 C 76.4 10.6 76.0 11.0 73.1 11.6 C 74.8 11.4 75.6 11.8 77.3 11.3 C 77.3 11.2 76.5 11.4 76.1 11.5 C 76.1 11.5 76.1 11.5 76.1 11.5 Z M 16.6 33.8 C 15.7 34.4 15.4 34.9 15.1 34.9 C 13.8 36.2 15.5 35.0 15.8 34.8 C 16.4 34.2 16.6 33.9 16.6 33.8 C 16.6 33.8 16.6 33.8 16.6 33.8 Z M 141.5 107.7 C 144.0 107.9 143.5 107.6 145.5 107.6 C 143.9 107.5 143.5 107.3 140.9 107.2 C 140.8 107.4 140.8 107.6 141.5 107.7 C 141.5 107.7 141.5 107.7 141.5 107.7 Z M 22.0 30.2 C 23.3 29.0 20.5 31.5 20.4 31.3 C 18.9 32.5 21.9 30.4 20.6 31.6 C 21.9 30.6 22.8 30.3 24.6 29.0 C 24.5 28.9 23.0 29.8 21.6 30.7 C 21.4 30.7 22.1 30.2 22.0 30.2 C 22.0 30.2 22.0 30.2 22.0 30.2 Z M 116.3 105.6 C 114.6 105.7 117.9 106.2 118.8 106.4 C 118.9 106.1 118.4 106.1 116.3 105.6 C 116.3 105.6 116.3 105.6 116.3 105.6 Z M 158.6 107.5 C 159.5 107.2 155.7 107.5 156.6 107.2 C 155.5 107.2 155.3 107.3 155.3 107.4 C 154.7 107.3 152.8 107.4 153.4 107.1 C 153.0 106.9 156.3 107.2 155.3 106.9 C 156.4 106.9 156.4 107.0 157.2 107.0 C 155.3 107.0 156.2 107.2 158.6 107.3 C 158.6 107.1 157.5 107.1 158.6 107.0 C 158.7 107.1 159.9 107.3 159.9 107.6 C 161.9 107.6 160.7 107.2 163.1 107.1 C 162.9 107.0 161.4 107.0 160.5 106.9 C 160.8 106.7 163.1 107.1 162.5 106.8 C 163.0 107.0 164.4 107.0 164.5 107.3 C 162.6 107.4 161.4 107.6 159.9 107.8 C 161.3 107.9 163.3 107.3 165.7 107.5 C 165.5 107.3 167.0 107.3 166.4 107.1 C 168.3 107.1 167.5 107.4 167.1 107.5 C 167.6 107.6 171.3 107.4 171.0 107.2 C 171.3 107.4 175.7 107.1 175.5 106.8 C 176.9 107.0 178.9 106.5 179.5 106.8 C 180.2 106.7 181.7 106.6 183.4 106.5 C 183.8 106.2 181.0 106.5 180.8 106.3 C 180.2 106.1 183.8 106.2 183.3 106.0 C 183.3 105.9 183.3 105.9 183.3 105.8 C 182.0 106.0 180.7 106.2 179.4 106.3 C 178.5 106.3 179.7 106.2 179.4 106.1 C 178.5 106.3 174.4 106.8 174.2 106.3 C 171.5 106.6 169.5 106.6 168.3 106.8 C 166.7 106.8 169.3 106.6 168.3 106.5 C 163.4 106.9 157.4 106.6 153.4 107.0 C 152.5 107.0 152.8 106.8 152.7 106.7 C 147.0 106.8 151.8 107.2 147.4 107.0 C 147.4 106.8 149.5 106.9 149.4 106.6 C 147.9 106.6 147.5 106.7 145.5 106.6 C 145.5 106.7 145.4 106.9 145.4 107.0 C 143.8 106.9 144.4 106.6 143.5 106.5 C 141.4 106.5 141.9 106.7 140.9 106.4 C 139.0 106.4 137.1 106.4 135.0 106.2 C 133.7 106.3 136.2 106.8 138.3 106.9 C 138.2 107.0 137.6 107.0 137.6 107.0 C 135.2 106.7 134.8 106.3 131.2 106.0 C 133.9 106.4 129.7 106.1 129.2 105.8 C 127.7 105.8 128.8 106.2 129.8 106.2 C 129.6 106.3 128.7 106.1 128.6 106.0 C 128.4 106.4 131.9 106.8 135.6 106.8 C 133.9 107.1 138.3 106.9 136.3 107.3 C 139.4 107.4 136.8 107.0 140.2 107.1 C 139.9 107.0 139.3 106.9 139.0 106.8 C 141.6 106.8 140.8 107.1 143.5 107.2 C 144.0 107.0 142.2 107.0 142.2 106.8 C 145.2 107.1 146.1 107.2 148.1 107.5 C 148.5 107.3 148.0 107.1 151.4 107.3 C 151.4 107.3 151.4 107.4 151.4 107.4 C 149.8 107.4 149.4 107.9 153.4 107.9 C 153.6 107.7 152.4 107.7 151.4 107.7 C 151.8 107.5 153.1 107.5 154.6 107.5 C 155.4 107.5 156.3 107.6 155.3 107.6 C 155.9 107.8 156.5 107.4 158.6 107.5 C 158.6 107.5 158.6 107.5 158.6 107.5 Z M 3.7 54.4 C 3.7 54.7 3.7 55.1 3.7 55.7 C 3.9 56.0 3.9 54.8 4.0 54.8 C 4.1 53.9 3.8 54.6 3.7 54.4 C 3.7 54.4 3.7 54.4 3.7 54.4 Z M 8.5 42.4 C 8.2 42.3 8.0 43.1 7.3 44.0 C 7.3 44.4 8.0 43.3 8.2 43.4 C 9.0 42.3 7.6 43.4 8.5 42.4 C 8.5 42.4 8.5 42.4 8.5 42.4 Z M 5.5 47.4 C 5.1 47.8 5.4 47.9 5.8 47.0 C 5.9 47.1 5.9 47.4 5.7 48.0 C 6.2 47.5 6.0 46.9 6.6 45.9 C 6.3 46.2 5.9 46.7 5.5 47.4 C 5.5 47.4 5.5 47.4 5.5 47.4 Z M 4.9 49.1 C 4.8 49.8 4.5 50.2 4.3 51.3 C 4.6 51.1 5.2 48.7 5.3 48.3 C 5.2 47.8 4.3 50.4 4.9 49.1 C 4.9 49.1 4.9 49.1 4.9 49.1 Z M 91.5 102.3 C 92.1 102.3 92.0 102.2 92.1 102.2 C 93.9 102.8 96.6 103.2 94.4 103.2 C 96.4 103.3 98.3 103.8 99.9 104.1 C 101.4 104.3 100.7 104.0 101.8 104.1 C 103.7 104.4 100.9 104.1 101.2 104.3 C 101.5 104.5 102.1 104.2 104.3 104.6 C 103.8 104.1 106.2 104.8 105.6 104.3 C 106.8 104.6 107.2 104.5 108.8 104.7 C 108.6 104.5 107.1 104.4 106.9 104.2 C 106.1 103.8 106.0 104.3 107.5 104.4 C 106.6 104.6 104.5 103.9 103.8 104.0 C 103.0 103.7 105.8 104.2 105.0 103.9 C 104.5 103.8 103.9 103.8 103.8 103.9 C 102.9 103.7 102.3 103.6 101.9 103.4 C 102.5 103.5 102.5 103.5 102.5 103.6 C 103.7 103.7 101.4 103.0 103.8 103.3 C 103.4 103.2 102.4 103.1 102.6 102.9 C 101.9 102.7 102.5 103.6 100.1 103.0 C 98.4 103.0 103.9 103.8 102.5 104.0 C 99.0 103.5 101.0 103.4 98.2 103.0 C 98.2 103.1 98.3 103.2 97.6 103.2 C 97.7 103.3 98.7 103.4 99.4 103.5 C 99.3 103.6 98.3 103.4 97.5 103.3 C 97.6 103.4 98.2 103.5 98.2 103.6 C 95.8 103.1 96.2 102.7 98.3 102.9 C 98.2 102.6 95.4 102.2 94.6 102.2 C 95.3 102.5 94.5 102.4 95.1 102.7 C 95.7 102.8 95.6 102.7 95.8 102.7 C 96.9 102.9 95.8 102.8 95.8 102.9 C 94.5 102.7 94.6 102.5 93.3 102.5 C 93.6 102.4 93.9 102.4 94.0 102.3 C 93.4 102.2 92.7 102.1 92.1 102.0 C 92.2 102.2 91.4 102.1 91.5 102.3 C 91.5 102.3 91.5 102.3 91.5 102.3 Z M 124.0 106.5 C 126.1 106.7 125.0 106.5 124.0 106.4 C 124.5 106.3 125.2 106.3 126.0 106.4 C 125.4 106.2 124.8 106.3 122.8 106.1 C 124.6 105.9 122.8 105.3 119.6 105.1 C 118.6 105.5 121.3 105.8 120.2 105.9 C 122.5 106.0 123.8 106.2 124.0 106.5 C 124.0 106.5 124.0 106.5 124.0 106.5 Z M 15.9 34.9 C 14.9 35.6 14.0 36.4 13.2 37.2 C 13.5 37.3 16.3 35.0 15.9 34.9 C 15.9 34.9 15.9 34.9 15.9 34.9 Z M 101.9 7.1 C 102.4 7.0 102.5 7.1 102.6 7.1 C 104.4 6.8 101.7 7.0 102.5 6.7 C 101.8 6.8 101.2 6.9 100.6 7.0 C 100.5 7.1 103.2 6.9 101.3 7.2 C 101.4 7.3 101.9 7.2 101.9 7.1 C 101.9 7.1 101.9 7.1 101.9 7.1 Z M 4.1 53.5 C 4.1 54.3 4.4 53.8 4.3 55.7 C 4.4 55.1 4.4 54.7 4.5 53.6 C 4.3 53.5 4.2 53.5 4.1 53.5 C 4.1 53.5 4.1 53.5 4.1 53.5 Z M 82.4 101.1 C 83.9 101.6 84.4 101.2 87.2 101.8 C 85.8 101.2 84.1 101.3 82.4 101.1 C 82.4 101.1 82.4 101.1 82.4 101.1 Z M 188.5 105.7 C 187.5 105.7 188.7 105.6 187.2 105.6 C 186.3 105.7 185.9 105.9 184.6 106.0 C 186.4 106.1 189.7 105.6 191.0 105.9 C 192.6 105.7 192.4 105.5 192.9 105.3 C 192.2 105.4 191.8 105.4 191.7 105.3 C 190.7 105.7 189.6 105.2 188.5 105.7 C 188.5 105.7 188.5 105.7 188.5 105.7 Z M 115.7 105.5 C 114.6 105.2 116.6 105.3 117.0 105.2 C 117.9 105.3 117.5 105.4 117.7 105.6 C 118.8 105.6 119.1 105.6 118.9 105.4 C 116.8 105.1 114.2 104.9 115.8 104.7 C 113.8 104.4 114.8 104.9 113.9 104.8 C 112.8 104.5 113.8 104.6 113.9 104.3 C 113.4 104.3 111.8 104.5 112.0 104.2 C 108.9 104.2 110.2 104.7 112.5 105.3 C 114.6 105.3 112.2 105.0 115.7 105.5 C 115.7 105.5 115.7 105.5 115.7 105.5 Z M 38.8 88.5 C 39.0 88.6 40.5 89.2 40.4 89.3 C 42.2 89.8 43.9 90.1 45.7 90.5 C 45.4 90.1 43.0 89.5 43.9 90.0 C 43.3 89.6 41.7 88.9 40.8 88.4 C 39.1 87.7 38.4 87.9 38.4 87.5 C 36.8 87.0 37.6 87.4 35.3 86.2 C 38.9 88.2 33.9 85.8 33.6 85.9 C 35.7 86.9 37.7 87.7 37.5 87.4 C 39.1 88.2 41.0 89.0 41.3 89.4 C 41.1 89.4 39.8 88.8 38.8 88.5 C 38.8 88.5 38.8 88.5 38.8 88.5 Z M 49.2 91.5 C 48.5 91.4 47.8 91.2 46.6 90.7 C 47.3 91.0 47.5 91.2 47.4 91.3 C 49.6 92.1 49.8 92.0 50.2 92.4 C 51.3 92.8 50.0 91.9 51.8 92.6 C 51.6 92.5 50.7 92.2 50.8 92.1 C 50.6 92.3 50.3 92.2 49.2 91.5 C 49.2 91.5 49.2 91.5 49.2 91.5 Z M 65.4 96.8 C 66.9 97.1 64.7 96.4 65.5 96.5 C 65.1 96.4 62.4 95.6 62.9 95.5 C 62.2 95.0 59.3 94.9 59.6 94.6 C 59.0 94.4 59.2 94.6 59.1 94.7 C 60.9 95.1 60.9 95.3 59.5 95.0 C 59.7 95.1 60.9 95.4 61.7 95.6 C 61.8 95.5 61.1 95.3 61.2 95.2 C 62.8 95.7 64.0 96.2 65.4 96.8 C 65.4 96.8 65.4 96.8 65.4 96.8 Z M 172.3 4.7 C 170.8 4.6 169.8 4.6 169.0 4.7 C 169.5 4.8 170.2 4.7 171.0 4.7 C 171.2 4.9 170.5 4.9 169.7 4.8 C 170.4 5.1 173.2 5.0 172.3 4.7 C 172.3 4.7 172.3 4.7 172.3 4.7 Z M 159.2 4.4 C 157.8 4.3 156.8 4.4 156.6 4.5 C 157.2 4.7 157.0 4.4 158.0 4.5 C 158.5 4.5 158.9 4.6 159.2 4.7 C 159.9 4.7 159.7 4.6 159.9 4.5 C 160.4 4.5 160.5 4.6 160.6 4.6 C 162.4 4.4 158.5 4.6 159.2 4.4 C 159.2 4.4 159.2 4.4 159.2 4.4 Z M 56.4 94.1 C 55.9 93.9 55.6 93.6 54.4 93.3 C 54.6 93.5 53.6 93.2 52.8 92.9 C 53.9 93.5 54.5 93.6 56.4 94.1 C 56.4 94.1 56.4 94.1 56.4 94.1 Z M 80.3 11.2 C 78.5 11.3 78.7 11.7 76.2 12.0 C 76.2 12.1 76.2 12.2 76.3 12.3 C 77.7 11.8 78.4 11.8 80.3 11.2 C 80.3 11.2 80.3 11.2 80.3 11.2 Z M 302.8 64.4 C 302.7 64.2 302.1 65.5 302.0 65.5 C 302.2 65.9 301.4 66.2 299.7 68.6 C 299.6 68.5 299.7 68.4 299.9 68.0 C 298.4 69.9 300.5 67.7 300.8 67.6 C 301.8 66.1 302.1 65.9 302.8 64.4 C 302.8 64.4 302.8 64.4 302.8 64.4 Z M 169.0 106.0 C 168.9 106.1 169.3 106.1 169.7 106.1 C 170.1 106.1 170.5 106.1 170.9 106.1 C 170.8 105.7 168.6 105.7 170.3 105.3 C 169.7 105.3 169.6 105.3 169.6 105.4 C 166.5 106.2 164.0 105.1 159.8 105.6 C 159.2 105.6 159.3 105.7 159.2 105.8 C 159.7 105.7 159.8 105.8 159.9 105.8 C 160.4 105.5 164.1 105.8 162.5 106.0 C 162.6 106.1 163.1 106.0 163.1 105.9 C 163.5 105.9 164.0 105.9 164.4 105.9 C 164.2 105.8 163.3 105.8 163.1 105.7 C 165.2 105.8 167.7 105.8 166.4 106.1 C 167.7 106.1 168.1 105.9 169.0 105.8 C 169.8 105.8 169.8 106.0 169.0 106.0 C 169.0 106.0 169.0 106.0 169.0 106.0 Z M 185.8 105.1 C 187.8 105.0 187.0 104.8 189.0 104.7 C 187.8 104.6 186.2 105.0 184.5 105.0 C 184.8 105.0 185.7 105.0 185.8 105.1 C 185.8 105.1 185.8 105.1 185.8 105.1 Z M 148.1 105.8 C 148.5 105.5 146.7 105.5 144.8 105.4 C 144.5 105.7 146.2 105.8 148.1 105.8 C 148.1 105.8 148.1 105.8 148.1 105.8 Z M 156.6 105.9 C 158.5 105.8 154.2 105.8 155.3 105.5 C 154.4 105.6 153.4 105.6 153.4 105.5 C 152.7 105.5 152.7 105.6 151.4 105.6 C 151.5 105.8 153.6 105.7 153.4 105.9 C 154.8 105.7 155.1 105.7 156.6 105.9 C 156.6 105.9 156.6 105.9 156.6 105.9 Z M 157.9 105.9 C 159.2 105.8 157.6 105.4 156.0 105.4 C 156.5 105.6 156.9 105.7 157.9 105.9 C 157.9 105.9 157.9 105.9 157.9 105.9 Z M 14.4 72.6 C 15.0 73.1 14.7 72.5 15.4 73.1 C 15.5 73.0 13.0 70.8 15.1 72.6 C 14.5 71.7 13.8 71.7 13.1 70.8 C 13.3 71.1 13.4 71.4 13.0 70.9 C 12.6 70.8 14.8 72.7 14.4 72.6 C 14.4 72.6 14.4 72.6 14.4 72.6 Z M 17.0 74.8 C 17.5 75.2 17.3 74.9 17.0 74.7 C 17.2 74.7 17.9 75.4 18.5 75.8 C 18.5 75.9 17.7 74.7 17.9 74.6 C 15.4 72.9 17.0 74.5 17.0 74.8 C 17.0 74.8 17.0 74.8 17.0 74.8 Z M 19.4 76.5 C 21.0 77.9 23.6 79.5 25.0 80.0 C 23.8 78.9 20.4 76.8 19.4 76.5 C 19.4 76.5 19.4 76.5 19.4 76.5 Z M 8.0 63.9 C 8.9 66.4 12.5 70.7 9.9 66.5 C 9.8 66.7 8.0 64.1 7.6 62.7 C 7.5 62.7 6.7 61.3 6.8 61.2 C 6.3 60.2 8.1 64.6 8.0 63.9 C 8.0 63.9 8.0 63.9 8.0 63.9 Z M 27.6 81.0 C 26.5 80.5 27.7 81.7 26.2 80.7 C 25.3 80.2 26.4 80.9 26.1 80.9 C 28.0 81.9 32.4 83.9 32.7 84.3 C 33.8 84.8 34.2 84.8 36.4 85.8 C 36.5 85.7 28.8 82.4 27.6 81.2 C 27.7 81.1 30.2 82.4 27.6 81.0 C 27.6 81.0 27.6 81.0 27.6 81.0 Z M 80.5 12.6 C 80.7 12.4 78.3 13.0 78.7 12.7 C 77.5 13.2 76.2 13.3 74.8 13.8 C 74.4 13.8 74.5 13.4 72.5 13.8 C 72.5 14.1 73.4 13.8 72.5 14.1 C 70.7 14.6 71.2 14.2 69.1 14.8 C 69.5 15.1 64.8 15.9 65.4 16.2 C 66.4 15.9 66.3 15.7 68.1 15.3 C 68.7 15.2 68.5 15.4 69.2 15.2 C 68.7 15.6 67.7 15.5 67.0 15.8 C 67.2 16.0 68.6 15.6 68.8 15.7 C 69.6 15.5 68.5 15.7 68.7 15.5 C 70.9 14.9 68.7 16.1 71.1 15.5 C 70.5 15.3 70.5 15.3 70.9 15.0 C 71.9 14.9 74.8 14.1 73.2 14.7 C 73.4 14.8 75.2 14.2 74.9 14.1 C 75.8 13.9 76.0 14.0 76.0 14.0 C 78.5 13.4 78.8 13.2 78.2 13.0 C 78.7 12.7 79.1 13.0 80.5 12.6 C 80.5 12.6 80.5 12.6 80.5 12.6 Z M 6.5 51.4 C 6.5 50.4 6.3 52.4 6.1 53.3 C 6.3 52.2 6.5 52.6 6.8 51.5 C 6.7 51.9 6.6 51.8 6.8 51.0 C 6.7 50.8 6.2 52.5 6.5 51.4 C 6.5 51.4 6.5 51.4 6.5 51.4 Z M 41.0 87.7 C 41.8 88.2 46.2 89.7 48.6 90.6 C 48.3 90.1 42.5 88.5 41.9 87.9 C 40.6 87.4 42.5 88.3 41.0 87.7 C 41.0 87.7 41.0 87.7 41.0 87.7 Z M 59.3 17.3 C 58.8 17.5 59.1 17.4 59.3 17.4 C 59.2 17.5 58.1 17.8 57.3 18.0 C 58.5 17.9 57.1 18.3 57.4 18.5 C 56.8 18.7 56.5 18.8 56.4 18.9 C 56.2 18.5 53.2 20.1 56.5 19.2 C 55.8 19.1 56.1 19.1 57.4 18.6 C 59.0 18.3 60.1 17.8 60.7 17.9 C 61.6 17.6 62.0 17.4 63.3 17.0 C 63.6 17.2 64.9 16.9 64.0 17.5 C 66.3 16.9 64.6 16.8 66.6 16.2 C 68.5 15.9 65.7 16.7 66.1 16.8 C 66.6 16.7 66.5 16.8 66.7 16.8 C 67.4 16.6 67.4 16.4 66.7 16.6 C 66.8 16.5 68.7 15.8 68.3 16.2 C 69.4 15.8 66.4 15.9 64.9 16.5 C 64.0 16.8 63.9 16.3 64.8 16.2 C 64.4 16.0 62.8 17.0 63.1 16.4 C 62.4 16.6 61.7 16.8 61.0 17.0 C 61.1 17.0 61.5 16.9 61.5 17.0 C 60.9 17.2 60.1 17.4 59.4 17.6 C 60.0 17.3 60.0 17.2 59.3 17.3 C 59.3 17.3 59.3 17.3 59.3 17.3 Z M 31.4 83.3 C 33.1 84.2 33.6 84.3 35.0 84.9 C 34.5 84.5 30.7 82.7 31.4 83.3 C 31.4 83.3 31.4 83.3 31.4 83.3 Z M 90.7 11.6 C 90.6 11.5 89.5 11.7 89.5 11.6 C 91.3 11.2 89.2 11.4 90.6 10.8 C 88.2 11.4 87.5 12.1 90.8 11.7 C 93.1 11.3 88.4 12.0 90.7 11.6 C 90.7 11.6 90.7 11.6 90.7 11.6 Z M 83.6 12.6 C 82.1 13.0 85.8 12.5 86.6 12.4 C 86.6 12.5 86.6 12.6 86.6 12.7 C 88.6 11.9 85.9 12.3 87.6 11.5 C 85.3 11.8 84.3 11.9 82.3 12.4 C 82.5 12.4 82.9 12.3 82.9 12.3 C 84.4 12.0 83.4 12.5 81.8 12.7 C 82.3 12.8 83.7 12.5 84.7 12.3 C 84.4 12.3 84.1 12.3 84.1 12.2 C 85.4 11.9 85.0 12.2 85.9 12.1 C 85.9 12.2 83.6 12.8 83.6 12.6 C 83.6 12.6 83.6 12.6 83.6 12.6 Z M 208.4 9.4 C 207.2 9.3 209.7 10.0 209.5 10.3 C 210.8 10.5 211.2 10.5 212.0 10.6 C 211.6 10.3 210.2 10.1 209.6 9.9 C 209.9 9.6 211.5 10.2 212.1 10.1 C 212.9 9.8 208.9 9.8 208.4 9.4 C 208.4 9.4 208.4 9.4 208.4 9.4 Z M 28.3 29.7 C 27.6 30.1 28.0 30.0 28.3 29.8 C 28.3 30.0 27.2 30.5 27.1 30.5 C 26.2 31.0 27.7 30.3 26.6 31.0 C 26.5 31.2 28.3 30.0 28.4 29.9 C 29.8 29.1 28.8 30.0 29.3 29.9 C 30.5 29.2 29.9 29.2 31.8 28.4 C 30.6 28.8 29.6 29.2 28.3 29.7 C 28.3 29.7 28.3 29.7 28.3 29.7 Z M 94.8 10.4 C 95.1 10.3 93.5 11.0 91.9 11.1 C 89.8 11.4 93.2 11.1 91.3 11.4 C 92.9 11.2 94.8 10.7 97.3 10.3 C 97.9 10.1 93.9 10.8 96.1 10.3 C 96.0 10.3 95.4 10.4 95.4 10.4 C 95.0 10.5 94.9 10.5 94.8 10.4 C 94.8 10.4 94.8 10.4 94.8 10.4 Z M 92.5 11.4 C 92.6 11.4 93.2 11.3 93.2 11.3 C 93.9 11.2 94.0 11.4 93.2 11.5 C 94.2 11.6 94.1 11.1 96.2 11.0 C 95.3 10.9 94.8 10.8 96.8 10.7 C 98.3 10.3 93.2 11.1 92.5 11.4 C 92.5 11.4 92.5 11.4 92.5 11.4 Z M 188.3 7.5 C 188.5 7.7 189.9 7.7 190.9 7.8 C 189.6 7.9 184.5 7.4 183.8 7.2 C 183.3 7.2 182.7 7.2 182.5 7.1 C 182.6 7.2 181.1 7.2 181.9 7.3 C 181.8 7.4 180.6 7.3 180.6 7.4 C 178.7 7.3 181.2 7.3 180.6 7.1 C 178.3 7.2 178.8 7.0 176.1 6.9 C 176.5 7.1 179.6 7.2 179.3 7.5 C 181.4 7.4 183.7 7.7 185.0 8.0 C 183.1 7.5 190.6 7.9 194.0 8.3 C 193.9 8.4 195.1 8.5 196.5 8.7 C 197.5 9.1 197.2 8.5 195.3 8.5 C 195.4 8.3 197.9 8.7 199.0 8.8 C 197.8 8.5 198.5 8.4 197.8 8.3 C 195.4 8.1 197.6 8.3 197.1 8.5 C 196.5 8.4 195.9 8.4 195.2 8.3 C 198.6 8.2 190.4 7.8 193.4 8.0 C 190.8 7.8 190.8 7.6 188.3 7.5 C 188.3 7.5 188.3 7.5 188.3 7.5 Z M 127.5 7.1 C 127.0 7.1 125.0 7.4 124.9 7.2 C 122.3 7.6 124.6 7.6 121.7 7.9 C 121.9 7.9 123.0 7.8 123.0 7.9 C 124.1 7.8 125.2 7.6 124.9 7.4 C 126.2 7.3 126.6 7.2 127.5 7.1 C 127.2 7.3 126.7 7.4 125.5 7.4 C 125.4 7.6 125.8 7.7 127.5 7.6 C 128.2 7.4 127.7 7.2 127.5 7.1 C 127.5 7.1 127.5 7.1 127.5 7.1 Z M 121.1 7.8 C 120.7 7.8 120.4 7.8 120.4 7.6 C 119.5 7.5 120.1 8.0 119.1 8.1 C 118.4 8.1 118.6 8.0 118.5 7.9 C 117.4 8.0 116.5 8.1 116.0 8.1 C 114.3 8.4 118.0 8.1 118.5 8.2 C 119.8 8.1 119.3 7.9 121.1 7.8 C 121.1 7.8 121.1 7.8 121.1 7.8 Z M 102.2 9.5 C 101.9 9.3 101.2 9.8 100.4 9.8 C 101.0 10.0 102.8 9.6 101.6 10.1 C 103.5 9.9 103.6 9.9 105.4 9.6 C 106.6 9.7 105.4 9.4 103.5 9.8 C 103.7 9.6 104.6 9.5 104.7 9.4 C 105.9 9.7 109.0 8.6 107.2 9.2 C 106.6 9.2 106.2 9.1 105.9 9.1 C 105.5 9.3 101.3 9.7 102.2 9.5 C 102.2 9.5 102.2 9.5 102.2 9.5 Z M 43.9 23.3 C 45.5 22.6 46.4 22.3 47.2 22.0 C 48.1 21.7 49.4 21.3 50.4 20.9 C 50.5 21.0 50.3 21.1 49.9 21.3 C 50.4 21.2 51.0 21.0 51.9 20.6 C 51.8 20.6 51.4 20.7 51.4 20.8 C 49.7 21.1 51.1 20.7 51.3 20.4 C 49.3 20.9 46.1 22.4 44.6 22.7 C 43.4 23.2 44.8 22.7 43.9 23.3 C 43.9 23.3 43.9 23.3 43.9 23.3 Z M 301.7 62.0 C 301.7 62.2 301.4 62.9 301.6 62.8 C 301.9 62.3 301.9 61.8 302.1 61.3 C 301.7 62.3 301.4 62.0 300.8 63.3 C 301.1 63.0 301.3 63.2 301.7 62.0 C 301.7 62.0 301.7 62.0 301.7 62.0 Z M 108.4 8.9 C 108.5 9.0 108.6 9.1 107.8 9.2 C 107.6 9.4 109.6 9.1 109.7 9.2 C 110.4 9.1 110.1 9.0 111.0 8.9 C 110.6 8.8 109.0 9.0 109.7 8.7 C 110.2 8.7 110.3 8.7 110.3 8.7 C 111.6 8.5 109.6 8.6 108.4 8.9 C 108.4 8.9 108.4 8.9 108.4 8.9 Z M 214.5 10.5 C 213.6 10.4 214.5 10.6 215.1 10.8 C 213.3 10.7 216.1 11.3 216.2 11.6 C 215.5 11.2 213.0 11.0 212.6 10.9 C 211.9 10.8 212.7 11.2 210.7 10.9 C 210.9 11.2 213.1 11.3 212.6 11.0 C 213.1 11.4 215.2 11.4 215.0 11.6 C 217.7 12.1 218.3 12.0 218.6 11.8 C 216.0 11.5 217.4 11.3 215.1 11.0 C 215.1 10.9 215.8 11.0 216.3 11.1 C 216.1 10.9 215.1 10.7 214.5 10.5 C 214.5 10.5 214.5 10.5 214.5 10.5 Z M 148.2 6.4 C 146.7 6.4 146.8 6.6 146.8 6.8 C 147.4 6.8 148.3 6.7 149.4 6.7 C 149.2 6.6 147.4 6.7 148.2 6.4 C 148.2 6.4 148.2 6.4 148.2 6.4 Z M 204.6 9.5 C 204.5 9.4 204.0 9.4 204.0 9.5 C 202.4 9.3 202.1 9.1 201.6 8.9 C 200.7 8.9 201.0 9.1 200.9 9.2 C 202.4 9.2 202.1 9.4 204.0 9.6 C 203.9 9.5 204.1 9.5 204.6 9.5 C 204.6 9.5 204.6 9.5 204.6 9.5 Z M 161.8 6.6 C 161.1 6.6 161.4 6.6 161.8 6.7 C 160.9 6.9 158.3 6.6 157.2 6.8 C 157.1 7.0 160.4 6.9 156.6 7.0 C 157.3 7.2 160.7 7.1 162.4 7.1 C 162.1 7.4 159.7 7.3 159.8 7.6 C 161.9 7.5 164.1 7.4 164.4 7.0 C 161.5 6.9 162.5 6.7 161.8 6.6 C 161.8 6.6 161.8 6.6 161.8 6.6 Z M 165.0 6.8 C 164.8 6.7 164.2 6.8 163.1 6.8 C 164.7 7.1 165.7 7.0 169.0 7.1 C 169.0 7.1 169.0 7.0 169.0 7.0 C 169.6 7.0 170.3 7.0 170.9 7.0 C 168.1 6.7 167.4 6.8 164.4 6.9 C 164.3 6.8 164.7 6.8 165.0 6.8 C 165.0 6.8 165.0 6.8 165.0 6.8 Z M 80.7 13.3 C 81.5 13.3 82.2 13.3 83.6 13.1 C 83.5 12.9 82.6 12.9 80.7 13.3 C 80.7 13.3 80.7 13.3 80.7 13.3 Z M 207.1 10.0 C 208.8 10.1 205.4 9.8 206.4 10.2 C 207.8 10.4 209.2 10.7 209.4 10.9 C 211.9 10.9 206.7 10.3 207.1 10.0 C 207.1 10.0 207.1 10.0 207.1 10.0 Z M 195.8 9.3 C 195.1 9.2 195.1 8.9 195.8 9.2 C 197.6 9.3 194.3 8.8 197.1 9.1 C 195.9 8.9 193.3 8.5 192.0 8.6 C 192.1 8.8 194.5 8.9 194.5 9.1 C 194.7 9.2 194.3 9.2 193.9 9.1 C 194.2 9.3 194.7 9.2 195.8 9.3 C 195.8 9.3 195.8 9.3 195.8 9.3 Z M 186.3 8.1 C 187.4 8.3 188.6 8.5 190.8 8.7 C 189.4 8.4 188.6 8.1 186.3 8.1 C 186.3 8.1 186.3 8.1 186.3 8.1 Z M 296.9 42.9 C 296.1 42.0 296.6 42.9 296.7 43.1 C 297.4 44.0 297.5 43.8 298.2 44.8 C 298.2 44.3 297.2 43.6 296.9 42.9 C 296.9 42.9 296.9 42.9 296.9 42.9 Z M 299.2 46.2 C 299.1 46.4 299.9 47.6 299.8 47.7 C 300.6 48.2 300.4 49.6 300.7 49.5 C 300.8 49.7 300.8 50.0 301.0 50.5 C 301.1 49.4 299.9 47.2 299.2 46.2 C 299.2 46.2 299.2 46.2 299.2 46.2 Z M 175.4 8.0 C 173.7 7.8 175.9 8.3 174.1 8.2 C 174.0 8.3 177.4 8.5 175.3 8.5 C 178.0 8.8 175.2 8.0 175.4 8.0 C 175.4 8.0 175.4 8.0 175.4 8.0 Z M 143.6 7.9 C 143.8 7.7 141.4 7.9 140.4 7.9 C 140.4 8.0 141.2 7.9 141.7 7.9 C 141.4 8.0 141.1 8.1 140.4 8.1 C 140.9 8.3 142.7 7.9 143.6 7.9 C 143.6 7.9 143.6 7.9 143.6 7.9 Z M 178.9 4.0 C 179.9 4.2 181.3 4.5 182.1 4.2 C 183.2 4.5 181.3 4.4 182.7 4.7 C 184.5 4.7 183.6 4.8 186.6 4.9 C 186.0 5.2 188.1 5.3 188.5 5.5 C 187.3 5.5 185.8 5.1 185.2 5.3 C 186.2 5.4 185.6 5.6 185.2 5.4 C 183.3 5.1 187.6 5.2 185.3 4.9 C 184.5 5.2 181.1 4.4 178.8 4.3 C 179.7 4.1 177.1 3.9 178.9 4.0 C 178.9 4.0 178.9 4.0 178.9 4.0 Z M 190.4 5.2 C 192.0 5.3 192.7 5.9 192.3 5.9 C 192.3 5.8 190.5 5.6 190.4 5.7 C 190.8 5.7 191.2 5.8 191.0 5.8 C 188.2 5.6 189.2 5.4 188.5 5.2 C 190.1 5.2 190.5 5.4 191.1 5.4 C 190.7 5.3 190.3 5.3 190.4 5.2 C 190.4 5.2 190.4 5.2 190.4 5.2 Z M 222.7 13.3 C 222.4 13.1 222.0 13.2 221.4 13.1 C 221.4 12.8 218.3 12.7 217.9 12.5 C 218.6 12.5 220.2 12.7 220.9 12.7 C 220.1 12.6 219.9 12.5 219.1 12.4 C 219.3 12.2 221.1 12.5 221.6 12.4 C 221.7 12.6 222.5 12.6 222.8 12.7 C 220.4 12.5 224.0 13.5 222.7 13.3 C 222.7 13.3 222.7 13.3 222.7 13.3 Z M 160.5 7.8 C 160.3 8.1 163.0 8.7 160.5 9.0 C 160.0 8.7 159.6 8.5 159.8 8.2 C 158.3 8.4 157.6 8.1 156.6 8.4 C 153.6 7.6 158.9 8.4 160.5 7.8 C 160.5 7.8 160.5 7.8 160.5 7.8 Z M 150.1 8.1 C 150.7 7.8 149.2 7.9 149.5 7.7 C 150.7 7.8 154.8 7.6 153.4 7.7 C 152.1 7.8 152.1 8.0 150.1 8.1 C 150.1 8.1 150.1 8.1 150.1 8.1 Z M 75.9 97.5 C 74.0 97.3 73.2 96.7 74.3 96.8 C 73.8 96.9 76.6 97.4 75.9 97.5 C 75.9 97.5 75.9 97.5 75.9 97.5 Z M 7.4 69.4 C 8.2 70.8 8.9 71.4 8.8 71.7 C 7.8 70.6 8.0 70.6 7.2 69.5 C 7.1 69.5 6.6 68.9 6.6 68.7 C 7.0 69.3 7.0 69.1 7.4 69.4 C 7.4 69.4 7.4 69.4 7.4 69.4 Z M 110.5 4.6 C 110.3 4.5 109.6 4.5 109.9 4.4 C 111.8 4.3 114.0 3.9 115.6 3.6 C 115.6 3.7 115.6 3.8 115.6 3.9 C 112.5 4.1 111.7 4.3 110.5 4.6 C 110.5 4.6 110.5 4.6 110.5 4.6 Z M 106.6 4.5 C 106.4 4.7 107.4 4.9 106.1 5.0 C 106.1 4.8 103.7 4.9 104.8 4.7 C 105.2 4.8 105.8 4.7 106.6 4.5 C 106.6 4.5 106.6 4.5 106.6 4.5 Z M 214.9 7.3 C 216.4 7.5 214.3 7.0 214.4 6.9 C 215.5 7.1 216.9 7.4 217.4 7.5 C 216.3 7.4 215.5 7.6 214.9 7.3 C 214.9 7.3 214.9 7.3 214.9 7.3 Z M 191.7 5.2 C 188.4 5.0 189.9 4.7 186.6 4.4 C 187.9 4.3 190.9 4.6 191.8 4.4 C 191.6 4.6 192.4 4.7 192.4 4.8 C 191.2 4.7 191.0 4.6 189.8 4.5 C 190.2 4.8 190.2 4.7 189.8 4.9 C 190.7 5.0 191.2 5.0 191.7 5.0 C 191.5 5.1 192.6 5.3 191.7 5.2 C 191.7 5.2 191.7 5.2 191.7 5.2 Z M 214.3 7.9 C 215.5 8.0 216.5 8.5 215.5 8.3 C 215.3 8.1 214.4 8.2 214.2 8.0 C 216.0 8.2 212.8 7.7 213.7 7.6 C 214.8 7.8 215.1 7.8 214.9 7.6 C 215.6 7.7 216.7 7.8 216.7 7.9 C 216.3 7.9 215.6 7.8 215.5 7.8 C 215.9 7.9 216.3 8.0 216.1 8.0 C 215.1 7.8 214.6 7.8 214.3 7.9 C 214.3 7.9 214.3 7.9 214.3 7.9 Z M 205.6 6.7 C 207.3 7.0 207.5 7.2 208.1 7.5 C 205.8 7.1 205.4 6.7 203.8 6.4 C 205.6 6.7 207.6 6.6 208.1 6.8 C 207.3 6.8 205.8 6.6 205.6 6.7 C 205.6 6.7 205.6 6.7 205.6 6.7 Z M 238.3 98.2 C 237.0 98.4 235.8 98.5 234.3 98.7 C 233.8 99.1 236.7 98.9 235.5 99.0 C 234.0 99.4 235.0 98.8 233.7 99.1 C 235.0 99.2 228.3 100.5 227.9 100.2 C 229.0 100.0 229.3 99.9 229.0 99.8 C 231.8 99.3 232.8 98.9 234.8 98.4 C 236.3 98.4 240.5 97.5 242.7 96.6 C 244.2 96.7 246.7 95.6 248.8 95.4 C 249.3 95.1 247.1 95.6 248.7 95.1 C 249.8 95.1 249.0 95.4 250.4 95.1 C 250.5 95.0 250.1 94.9 250.9 94.7 C 250.8 94.9 251.7 94.6 252.0 94.6 C 249.1 95.4 252.3 94.9 250.0 95.6 C 249.0 95.7 250.9 94.9 248.3 95.6 C 247.3 96.0 246.5 96.3 246.7 96.5 C 246.0 96.6 245.6 96.8 245.1 97.0 C 246.0 96.4 241.3 98.0 243.4 97.1 C 243.6 97.1 245.1 96.7 246.1 96.4 C 245.1 96.4 244.0 96.8 242.3 97.3 C 241.5 97.3 242.5 97.0 241.6 97.1 C 240.3 97.6 242.2 97.4 241.2 97.7 C 241.7 97.7 242.3 97.5 242.3 97.6 C 239.9 97.9 239.1 98.4 237.8 98.6 C 238.6 98.3 236.4 98.7 238.3 98.2 C 238.3 98.2 238.3 98.2 238.3 98.2 Z M 257.7 92.7 C 258.2 92.6 258.7 92.4 259.2 92.2 C 259.4 92.4 257.4 93.1 258.8 92.9 C 256.6 93.5 258.8 92.5 257.7 92.7 C 257.7 92.7 257.7 92.7 257.7 92.7 Z M 246.9 94.9 C 246.1 94.9 246.7 95.3 245.9 95.5 C 247.2 95.1 248.4 94.7 248.6 95.0 C 247.1 95.3 246.4 95.5 244.8 95.9 C 246.3 95.2 243.1 96.1 242.5 96.0 C 243.7 95.6 244.7 95.2 246.3 94.8 C 246.1 95.0 248.5 94.5 246.9 94.9 C 246.9 94.9 246.9 94.9 246.9 94.9 Z M 251.1 93.4 C 251.5 93.5 253.7 92.7 253.3 93.1 C 251.9 93.5 251.4 93.7 251.8 93.8 C 250.8 94.1 250.6 94.1 249.7 94.3 C 249.0 94.2 250.7 93.8 251.1 93.5 C 250.8 93.6 250.5 93.6 251.1 93.4 C 251.1 93.4 251.1 93.4 251.1 93.4 Z M 295.3 70.0 C 295.8 69.9 294.2 71.2 293.8 71.5 C 294.4 71.2 294.3 71.5 293.3 72.5 C 293.5 71.9 292.0 73.3 290.8 73.8 C 290.7 74.2 292.1 73.2 290.5 74.5 C 289.2 75.4 288.2 76.3 286.0 77.8 C 285.4 77.8 286.3 77.2 286.8 76.7 C 285.4 77.7 285.7 77.3 284.5 78.0 C 284.8 78.0 283.9 78.6 283.4 78.7 C 285.5 77.4 280.5 80.1 282.7 78.7 C 282.8 78.7 283.3 78.4 283.8 78.0 C 283.4 78.7 286.1 76.9 286.8 76.7 C 287.5 75.5 290.3 73.9 292.8 71.9 C 293.1 71.9 292.4 72.6 293.0 72.1 C 293.0 71.9 293.8 71.3 294.1 70.9 C 294.1 71.0 294.5 70.8 295.0 70.4 C 295.0 70.3 295.0 70.2 295.3 70.0 C 295.3 70.0 295.3 70.0 295.3 70.0 Z M 135.2 103.7 C 135.3 103.2 131.1 103.3 130.0 103.3 C 130.2 102.9 137.5 103.4 135.2 103.7 C 135.2 103.7 135.2 103.7 135.2 103.7 Z M 160.5 103.7 C 159.4 103.8 160.1 104.0 159.2 104.0 C 159.1 103.8 156.7 104.3 156.6 104.0 C 157.8 103.8 158.6 103.8 160.5 103.7 C 160.5 103.7 160.5 103.7 160.5 103.7 Z M 183.8 102.9 C 181.9 103.1 184.8 103.0 184.4 103.1 C 182.8 103.2 181.1 103.3 181.2 103.1 C 182.6 103.1 183.6 102.7 183.8 102.9 C 183.8 102.9 183.8 102.9 183.8 102.9 Z M 148.8 103.5 C 147.2 103.4 149.8 103.1 150.1 103.3 C 148.4 103.3 151.2 103.5 152.7 103.5 C 152.6 103.8 152.0 103.7 152.7 103.9 C 150.4 104.0 152.3 103.7 150.7 103.7 C 149.6 103.8 150.8 103.8 150.7 104.0 C 150.1 104.0 149.4 104.0 148.8 104.0 C 148.8 103.8 148.8 103.7 148.8 103.6 C 149.6 103.6 150.3 103.6 150.1 103.4 C 149.4 103.4 149.3 103.5 148.8 103.5 C 148.8 103.5 148.8 103.5 148.8 103.5 Z M 264.0 87.2 C 262.7 87.7 263.9 87.4 264.9 87.0 C 265.1 86.8 265.8 86.1 267.3 85.8 C 264.2 87.2 268.3 85.8 266.6 86.5 C 265.9 86.6 264.0 87.6 262.4 88.1 C 261.7 88.2 263.2 87.2 264.0 87.2 C 264.0 87.2 264.0 87.2 264.0 87.2 Z M 269.8 85.1 C 269.6 85.1 269.0 85.3 268.1 85.7 C 269.0 85.1 267.7 85.6 268.8 85.1 C 268.7 85.2 272.8 83.6 270.4 84.7 C 268.3 85.4 271.1 84.6 272.0 84.2 C 271.0 84.6 269.2 85.6 268.9 85.5 C 269.5 85.3 269.9 85.1 269.8 85.1 C 269.8 85.1 269.8 85.1 269.8 85.1 Z M 299.9 62.5 C 299.9 62.3 299.6 62.9 299.4 63.1 C 300.3 61.3 300.8 59.9 301.0 59.0 C 300.9 59.8 301.0 59.9 301.3 59.4 C 300.9 60.3 301.0 60.5 300.7 60.8 C 300.8 60.0 300.5 61.4 299.9 62.5 C 299.9 62.5 299.9 62.5 299.9 62.5 Z M 299.9 62.5 " fill="#000000"></path><image xlink:href="../../1BE7A03E-C66D-4413-94C1-F85C6D2757AE/assets/B8C5E90422A339E8CC6D71927AC6083F.png" width="70.00" height="38.00" transform="matrix(1.00, 0.00, -0.00, -1.00, 121.0, 70.0)"></image><g><clipPath id="clip-238"><path d="M 5.9 5.5 L 304.1 5.5 L 304.1 105.5 L 5.9 105.5 Z M 5.9 5.5 "></path></clipPath><g clip-path="url(#clip-238)"><text xml:space="preserve" font-family="Chalkduster" font-size="32.0" fill="#000000" transform="matrix(1.00, 0.00, -0.00, -1.00, 125.0, 41.0)">S</text><text xml:space="preserve" font-family="Chalkduster" font-size="32.0" fill="#000000" transform="matrix(1.00, 0.00, -0.00, -1.00, 140.9, 41.0)">O</text><text xml:space="preserve" font-family="Chalkduster" font-size="32.0" fill="#000000" transform="matrix(1.00, 0.00, -0.00, -1.00, 164.5, 41.0)">B</text></g></g></g></svg>