<?xml version="1.0" encoding="UTF-8" standalone="no"?><svg xmlns="http://www.w3.org/2000/svg" xmlns:xlink="http://www.w3.org/1999/xlink" clip-rule="evenodd" stroke-miterlimit="4.00" viewBox="0 0 309 111"><desc>SVG generated by Keynote</desc><defs></defs><g transform="matrix(1.00, 0.00, -0.00, -1.00, 0.0, 111.0)"><g><clipPath id="clip-229"><path d="M 259.8 90.8 C 318.0 71.2 318.0 39.6 259.8 20.1 C 201.6 0.5 107.2 0.5 49.0 20.1 C -9.3 39.6 -9.3 71.2 49.0 90.8 C 107.2 110.3 201.6 110.3 259.8 90.8 Z M 259.8 90.8 "></path></clipPath><g clip-path="url(#clip-229)"><image xlink:href="../../1BE7A03E-C66D-4413-94C1-F85C6D2757AE/assets/59DBD66EA15A3D40E065F836EF2595FD.jpeg" width="400.00" height="400.00" transform="matrix(1.00, 0.00, -0.00, -1.00, 5.3, 105.4)"></image></g></g><path d="M 76.2 8.9 C 75.8 9.0 75.3 9.2 74.5 9.3 C 74.8 9.3 75.1 9.3 75.1 9.4 C 75.7 9.2 76.6 9.0 78.0 8.7 C 78.0 8.7 77.3 8.8 76.8 8.9 C 76.2 9.0 76.3 8.9 76.2 8.9 C 76.2 8.9 76.2 8.9 76.2 8.9 Z M 67.7 99.5 C 66.6 99.2 67.8 99.8 68.2 99.9 C 68.3 99.8 68.3 99.8 68.8 99.9 C 68.8 100.1 67.8 100.0 67.0 99.8 C 63.9 99.0 66.3 99.2 67.7 99.5 C 67.7 99.5 67.7 99.5 67.7 99.5 Z M 235.9 100.5 C 238.4 100.0 235.6 100.3 235.2 100.3 C 236.4 100.0 235.4 99.8 236.9 99.5 C 237.2 99.5 237.7 99.5 238.0 99.6 C 237.4 99.7 236.4 99.9 236.3 100.0 C 237.2 99.8 238.4 99.5 238.6 99.6 C 236.7 100.1 238.4 99.9 238.7 100.0 C 237.0 100.3 236.5 100.7 235.9 100.5 C 235.9 100.5 235.9 100.5 235.9 100.5 Z M 276.3 23.7 C 277.2 24.1 278.0 24.5 277.7 24.5 C 276.7 24.0 276.1 23.7 275.5 23.4 C 275.4 23.4 275.6 23.7 274.7 23.3 C 273.8 22.7 274.4 22.6 275.0 22.7 C 275.0 22.9 278.3 24.4 276.3 23.7 C 276.3 23.7 276.3 23.7 276.3 23.7 Z M 206.9 6.3 C 204.6 5.9 206.8 6.6 204.4 6.2 C 204.5 6.0 204.1 5.7 205.7 5.9 C 205.8 6.1 206.8 6.2 206.9 6.3 C 206.9 6.3 206.9 6.3 206.9 6.3 Z M 165.1 106.6 C 165.1 106.8 166.9 106.7 166.5 106.9 C 165.6 106.9 164.8 106.9 163.9 106.9 C 163.7 106.8 164.0 106.6 165.1 106.6 C 165.1 106.6 165.1 106.6 165.1 106.6 Z M 251.9 94.1 C 254.4 93.7 256.7 92.5 256.1 93.0 C 257.0 93.0 254.6 94.2 254.6 93.9 C 254.3 93.7 250.0 94.7 251.9 94.1 C 251.9 94.1 251.9 94.1 251.9 94.1 Z M 81.8 98.2 C 84.5 98.9 84.1 98.2 85.9 98.8 C 85.2 98.7 84.9 98.7 84.7 98.8 C 85.1 98.9 85.8 99.0 85.8 99.0 C 84.5 98.8 82.9 98.6 81.8 98.2 C 81.8 98.2 81.8 98.2 81.8 98.2 Z M 118.2 3.6 C 118.7 3.5 118.9 3.4 118.9 3.4 C 120.9 3.2 120.8 3.1 122.1 3.1 C 122.1 3.4 120.4 3.4 118.9 3.5 C 118.8 3.6 118.3 3.7 118.2 3.6 C 118.2 3.6 118.2 3.6 118.2 3.6 Z M 175.7 3.5 C 175.6 3.3 174.4 3.2 176.3 3.2 C 178.5 3.6 176.5 3.7 174.3 3.7 C 174.3 3.8 174.3 4.0 174.3 4.1 C 175.2 4.1 175.8 4.2 176.3 4.2 C 176.7 3.9 178.1 4.6 181.4 4.6 C 179.9 4.7 181.5 5.1 179.5 4.8 C 180.0 5.1 178.6 5.0 178.8 5.2 C 179.7 5.1 181.9 5.2 181.4 4.9 C 182.6 5.0 183.4 5.1 184.0 5.2 C 184.8 5.5 181.9 5.1 182.7 5.4 C 183.3 5.4 183.5 5.5 184.0 5.6 C 184.1 5.5 183.9 5.3 184.6 5.4 C 186.7 5.6 184.2 5.6 187.2 5.9 C 187.4 5.7 186.5 5.6 186.6 5.5 C 187.9 5.5 187.8 5.7 189.1 5.6 C 189.4 5.8 188.2 5.8 189.1 5.9 C 189.9 5.6 191.8 6.3 193.6 6.2 C 192.4 5.5 193.9 6.3 195.5 5.9 C 195.9 6.1 194.7 6.3 196.1 6.5 C 195.7 5.8 201.3 6.5 196.8 5.6 C 199.2 5.8 200.1 5.4 198.2 5.2 C 202.4 5.7 201.0 5.3 202.6 5.4 C 204.2 5.6 201.8 5.4 202.6 5.7 C 200.9 5.5 201.3 5.7 200.1 5.4 C 200.1 5.5 199.8 5.6 199.4 5.6 C 201.1 5.6 203.1 6.2 201.8 6.4 C 201.0 6.2 201.8 6.0 200.7 5.9 C 201.0 6.3 199.4 5.7 199.3 5.9 C 200.1 6.3 197.6 6.3 200.0 6.6 C 200.0 6.5 200.0 6.4 200.0 6.2 C 200.6 6.3 201.2 6.4 201.8 6.4 C 202.4 6.7 201.9 6.9 202.5 7.0 C 203.5 7.1 204.0 7.1 204.4 7.1 C 203.1 6.9 201.6 6.5 203.7 6.7 C 202.9 7.0 206.7 7.1 205.0 7.2 C 207.3 7.6 208.4 7.4 208.6 7.7 C 209.8 7.9 209.1 7.5 210.5 7.8 C 212.8 8.3 212.4 7.9 215.4 8.5 C 215.8 8.2 215.7 8.7 216.7 8.8 C 216.7 8.7 216.7 8.5 216.7 8.4 C 217.8 8.8 220.2 9.3 222.7 9.5 C 223.3 9.6 222.8 9.8 224.5 10.0 C 226.2 10.0 228.2 10.7 230.4 10.8 C 230.5 11.0 231.9 11.3 232.7 11.3 C 233.0 11.5 231.9 11.6 233.2 11.9 C 234.1 11.8 232.6 11.4 234.4 11.7 C 234.2 11.9 236.1 11.9 236.1 12.2 C 235.5 12.1 234.9 12.1 234.3 12.0 C 235.1 12.2 234.9 12.3 235.5 12.4 C 235.4 12.1 236.8 12.7 237.2 12.8 C 237.2 12.7 237.4 12.6 237.8 12.6 C 238.8 12.8 239.6 13.0 240.1 13.1 C 241.3 13.5 239.3 13.1 240.6 13.4 C 241.3 13.0 242.4 13.9 245.1 14.2 C 245.6 14.5 246.7 14.9 248.3 15.4 C 248.5 15.2 246.7 14.9 246.7 14.7 C 249.1 15.4 246.3 14.4 247.8 14.8 C 251.2 15.9 253.4 16.5 256.7 17.8 C 256.7 17.6 259.4 18.3 259.3 18.3 C 259.0 18.2 259.3 18.4 259.8 18.7 C 260.4 19.0 261.9 19.6 262.9 19.9 C 263.5 19.7 266.5 20.4 266.7 20.3 C 267.3 20.7 267.1 20.7 267.3 21.1 C 270.3 22.4 272.0 22.7 273.6 23.9 C 273.5 23.6 274.9 24.1 276.0 24.6 C 275.6 24.6 274.9 24.4 274.3 24.3 C 275.7 25.0 275.9 25.2 277.1 25.7 C 278.7 25.7 280.3 27.5 281.5 27.4 C 283.3 28.4 282.9 28.4 284.5 29.4 C 284.5 29.2 284.8 29.2 285.3 29.4 C 284.2 28.9 283.3 28.6 282.8 28.0 C 285.3 29.3 278.3 24.8 282.6 26.8 C 282.7 27.0 282.2 26.9 283.1 27.5 C 285.5 28.6 284.2 27.7 283.2 27.2 C 284.9 27.9 286.4 29.0 285.3 28.0 C 288.8 29.9 286.5 28.8 287.6 29.7 C 293.5 33.2 299.6 38.0 302.8 44.0 C 303.3 44.1 304.6 47.4 304.8 48.5 C 305.7 50.1 306.1 51.9 305.8 52.5 C 306.2 52.7 305.9 54.6 306.1 54.8 C 306.1 54.0 306.2 53.5 306.3 54.3 C 306.3 56.8 305.5 60.5 305.2 62.1 C 304.6 62.8 304.0 64.4 303.6 65.6 C 303.3 65.7 303.7 64.8 303.3 65.4 C 303.4 65.7 302.2 68.0 301.7 68.5 C 302.2 67.8 302.4 66.9 301.7 67.9 C 301.8 68.0 301.0 69.1 301.3 68.9 C 300.2 70.2 299.7 71.1 298.5 72.2 C 299.4 71.2 299.7 70.6 299.7 70.3 C 299.2 71.2 298.7 71.9 297.9 72.3 C 298.4 72.4 297.0 73.5 295.7 74.9 C 295.2 75.2 294.9 75.4 293.7 76.3 C 293.2 77.0 295.7 75.0 294.4 76.2 C 294.3 76.1 292.9 77.0 293.4 77.0 C 291.7 78.2 290.8 79.1 289.1 79.9 C 291.1 78.6 289.5 79.3 289.0 79.6 C 288.5 79.9 287.9 80.3 287.9 80.4 C 288.0 80.5 288.9 79.8 289.1 79.8 C 287.7 80.6 287.5 81.2 286.8 81.4 C 287.5 81.0 287.5 80.8 286.8 81.2 C 286.8 81.7 282.2 84.0 283.7 83.0 C 283.7 83.0 285.4 82.1 285.5 81.9 C 285.0 82.0 282.5 83.6 282.9 83.1 C 284.4 82.2 284.4 82.5 286.0 81.4 C 286.1 81.1 287.1 80.5 287.6 80.0 C 285.1 81.7 284.5 82.2 284.0 82.2 C 282.8 82.9 283.7 82.7 281.6 83.8 C 278.5 85.4 280.9 83.8 280.1 84.1 C 277.4 85.7 278.4 85.6 279.7 85.2 C 277.5 86.3 276.8 86.7 273.9 88.0 C 274.0 87.8 274.3 87.5 275.3 87.0 C 275.4 87.0 277.9 86.1 277.6 86.0 C 277.2 85.8 275.3 86.6 272.1 87.9 C 273.0 87.9 273.1 87.7 269.8 89.0 C 270.5 89.1 268.2 89.6 268.2 89.8 C 268.4 89.8 269.6 89.4 270.7 88.9 C 270.6 89.1 270.3 89.4 269.2 89.8 C 268.4 90.0 268.0 90.4 265.8 91.0 C 265.6 90.9 267.1 90.3 267.3 90.1 C 266.2 90.5 266.0 90.7 264.8 91.2 C 263.8 91.3 263.7 91.0 263.7 90.6 C 265.0 90.1 267.1 89.3 265.4 89.8 C 270.3 87.9 265.3 90.2 267.1 89.5 C 269.0 88.4 268.1 89.3 271.2 88.0 C 272.1 87.6 272.4 87.4 272.7 87.2 C 272.5 87.2 270.6 87.7 272.6 86.9 C 273.1 86.8 274.2 86.5 275.7 85.9 C 275.6 85.7 272.5 87.0 275.6 85.6 C 277.1 85.0 275.9 85.9 277.9 84.9 C 277.8 84.8 278.4 84.5 278.5 84.4 C 275.7 85.9 279.0 84.0 277.0 84.8 C 279.4 83.5 277.5 84.8 279.1 84.0 C 279.1 83.8 281.8 82.8 281.7 82.5 C 280.8 83.1 278.8 84.1 279.0 83.7 C 280.8 82.9 288.1 78.4 285.5 80.4 C 286.4 79.6 290.9 76.1 290.7 76.5 C 289.4 77.5 289.5 77.6 289.4 77.9 C 291.8 75.8 293.2 75.0 295.2 72.7 C 292.7 74.9 294.3 72.9 292.6 74.1 C 292.0 74.7 290.9 75.4 290.8 75.7 C 291.3 75.6 292.3 74.6 292.7 74.1 C 292.8 74.3 293.0 74.5 293.1 74.6 C 290.0 76.9 288.2 78.4 286.4 79.4 C 287.9 78.4 283.3 80.9 285.1 79.7 C 285.9 79.4 287.7 78.3 289.1 77.4 C 289.0 77.3 289.0 77.3 288.9 77.2 C 289.5 76.8 290.4 76.2 290.4 76.1 C 288.6 77.4 287.4 77.9 286.1 79.0 C 286.1 78.9 286.1 78.9 286.0 78.8 C 285.7 79.0 285.4 79.2 285.5 79.1 C 286.1 78.7 287.0 78.1 287.1 78.0 C 285.6 78.9 285.2 78.8 283.5 79.8 C 283.7 79.3 281.3 80.4 283.7 78.8 C 284.3 78.8 285.6 78.1 285.7 78.2 C 286.4 77.9 287.8 76.9 288.3 76.4 C 287.6 76.7 286.2 77.5 286.0 77.4 C 287.0 76.6 287.8 76.0 288.6 75.7 C 286.5 77.3 289.9 75.0 290.8 74.6 C 290.5 74.7 290.0 75.0 289.7 75.1 C 291.2 73.9 292.0 73.5 291.9 73.2 C 293.5 71.6 293.3 72.2 294.4 71.1 C 293.5 71.6 295.0 70.3 294.1 70.8 C 295.8 69.0 294.8 70.5 295.4 69.9 C 295.9 69.4 295.9 69.2 296.3 68.7 C 297.1 68.0 298.3 66.4 298.7 66.4 C 299.2 65.7 299.4 65.7 299.8 65.0 C 299.8 64.7 299.8 64.5 300.0 64.1 C 300.1 64.0 300.5 63.6 300.4 63.4 C 299.1 65.1 299.5 64.6 297.9 66.4 C 297.8 66.6 297.6 66.9 298.0 66.5 C 297.1 67.9 296.6 68.2 295.6 69.4 C 295.3 69.4 294.8 69.4 293.9 70.6 C 294.0 70.2 293.6 70.4 294.0 69.9 C 294.7 69.5 295.5 68.8 296.2 68.0 C 296.2 67.9 296.0 67.9 296.4 67.5 C 296.8 67.2 297.3 66.7 297.6 66.1 C 297.6 66.2 297.6 66.4 297.5 66.6 C 298.9 64.9 298.1 65.3 299.1 64.1 C 298.8 64.2 298.3 65.1 298.6 64.3 C 299.3 63.0 299.5 62.8 299.9 62.2 C 299.8 62.1 299.7 62.1 299.9 61.8 C 300.4 61.0 299.4 63.9 300.4 62.5 C 300.3 62.3 301.0 60.8 301.2 60.6 C 301.2 61.2 300.6 62.0 300.7 62.1 C 301.9 59.4 301.3 62.2 302.1 59.3 C 302.0 59.3 301.9 59.3 301.8 59.3 C 301.6 60.4 301.3 60.4 301.1 60.2 C 300.8 61.2 300.4 61.5 300.1 62.4 C 299.9 61.9 300.5 61.5 300.9 60.5 C 300.6 60.5 300.3 61.4 300.0 61.4 C 301.1 59.3 300.9 58.8 301.5 56.7 C 301.1 57.1 301.5 55.5 301.3 55.6 C 301.3 57.4 300.6 56.6 300.5 56.9 C 300.4 58.0 300.9 57.6 300.9 58.3 C 300.6 58.6 300.5 58.4 300.2 58.2 C 300.5 57.2 300.4 57.3 300.3 56.5 C 300.6 55.9 301.1 55.3 301.2 56.3 C 301.1 56.1 301.0 54.7 301.2 54.6 C 301.2 55.9 301.3 54.4 301.4 55.2 C 301.6 54.2 301.0 52.4 300.9 51.0 C 300.7 51.2 300.6 50.7 300.5 50.8 C 301.1 52.0 300.6 52.4 300.7 53.6 C 300.7 53.1 300.5 53.4 300.5 53.6 C 300.5 52.4 300.1 51.8 300.1 50.9 C 300.0 50.9 299.9 51.0 299.8 51.0 C 299.6 49.5 299.5 49.7 298.8 48.7 C 298.8 48.2 299.4 48.6 299.7 48.7 C 299.4 48.2 298.3 46.1 298.7 47.4 C 298.1 46.2 298.5 46.4 297.7 45.2 C 297.5 45.3 298.2 46.4 297.7 46.2 C 296.9 45.1 297.6 45.5 296.8 44.7 C 296.9 44.6 297.1 44.4 296.3 43.4 C 296.7 44.3 296.1 43.4 295.8 43.2 C 296.1 43.7 296.4 44.1 296.5 44.4 C 295.2 42.6 294.8 42.3 293.3 40.9 C 294.1 41.2 293.3 40.4 294.4 41.2 C 293.4 40.5 292.3 39.1 291.7 38.7 C 292.3 39.4 293.2 40.3 293.5 40.7 C 290.5 37.9 288.4 36.7 284.8 34.1 C 285.5 34.4 286.3 35.0 286.5 35.0 C 286.1 34.8 285.4 34.3 285.4 34.3 C 286.8 35.1 287.9 35.9 288.6 36.3 C 289.5 37.1 287.9 36.0 288.9 36.8 C 289.2 36.8 291.0 38.4 290.5 37.6 C 288.6 36.5 287.0 35.0 286.3 34.1 C 284.2 33.3 286.0 34.4 283.6 33.5 C 283.7 33.4 283.3 33.0 282.6 32.6 C 283.1 33.3 280.4 31.6 280.1 31.4 C 281.3 31.9 285.2 34.0 283.4 32.5 C 284.0 33.6 278.8 29.8 279.7 30.8 C 276.9 29.4 278.1 29.6 276.3 29.1 C 276.3 29.0 276.6 29.0 275.8 28.6 C 275.0 28.2 274.7 28.1 274.3 28.0 C 278.4 30.1 277.0 29.8 279.5 31.1 C 279.1 30.9 278.7 30.7 278.8 30.9 C 278.7 30.9 278.7 30.9 278.1 30.6 C 278.1 30.2 276.0 29.6 275.5 29.1 C 276.3 29.5 277.1 29.9 276.9 29.6 C 273.5 28.0 274.4 28.0 269.2 25.7 C 270.7 26.5 268.6 25.7 266.7 25.0 C 264.1 23.9 265.3 23.9 261.9 22.8 C 261.9 23.1 261.0 22.8 259.6 22.2 C 258.1 21.7 257.4 21.4 256.2 21.2 C 256.5 21.0 253.4 19.9 252.6 19.9 C 252.6 19.8 251.4 19.5 250.6 19.3 C 250.4 19.1 251.4 19.3 250.7 19.0 C 249.9 18.9 250.5 19.3 249.5 19.0 C 248.4 18.7 248.7 18.5 247.0 18.0 C 246.9 18.2 247.8 18.4 246.9 18.3 C 245.4 17.8 244.1 17.5 245.3 18.1 C 243.0 17.5 244.2 17.3 242.1 16.8 C 242.7 17.1 242.6 17.2 241.5 16.9 C 240.7 16.6 240.7 16.4 240.5 16.3 C 239.8 16.3 240.0 16.4 238.2 15.9 C 238.2 16.0 238.2 16.1 238.1 16.2 C 237.3 16.0 236.1 15.8 235.9 15.6 C 237.4 16.0 237.1 15.7 237.7 15.8 C 236.2 15.4 233.2 14.5 235.4 15.3 C 233.3 14.9 234.4 14.8 232.6 14.5 C 233.6 15.0 232.7 14.6 230.9 14.3 C 231.0 14.6 229.7 14.1 228.6 13.9 C 228.7 14.1 228.4 14.1 227.4 14.0 C 227.5 13.8 226.8 13.7 225.7 13.5 C 225.6 13.6 228.1 14.2 225.6 13.7 C 224.5 13.4 224.6 13.1 222.7 12.8 C 222.4 12.5 224.4 12.9 224.0 12.6 C 222.5 12.6 222.0 12.3 219.8 11.9 C 220.6 12.5 215.3 11.8 217.9 12.4 C 217.1 12.3 216.0 12.4 215.5 12.1 C 216.3 12.2 214.9 11.7 215.0 11.7 C 213.9 11.6 211.4 11.1 211.3 11.3 C 213.7 11.5 213.6 11.8 214.3 12.0 C 210.9 11.7 208.0 11.2 208.2 10.9 C 208.2 11.0 207.7 11.0 207.6 11.0 C 208.8 11.1 209.5 11.6 208.2 11.5 C 208.5 11.3 207.5 11.1 206.4 10.9 C 206.3 11.1 201.8 10.2 202.7 10.6 C 204.5 10.7 205.9 11.2 204.5 11.2 C 203.4 10.8 200.9 10.4 201.5 10.3 C 200.8 10.3 200.2 10.3 199.6 10.3 C 199.0 10.5 200.4 10.6 200.1 10.8 C 199.2 10.7 197.8 10.6 197.6 10.4 C 200.1 10.6 196.4 10.1 199.0 10.2 C 197.4 10.1 197.0 9.9 195.8 9.8 C 195.8 9.8 195.3 9.8 195.2 9.9 C 196.3 9.8 197.4 10.1 197.0 10.3 C 194.8 10.1 195.2 9.8 193.3 9.7 C 192.7 9.8 190.1 9.9 188.8 9.6 C 191.3 9.8 188.6 9.5 190.1 9.5 C 192.4 9.8 193.0 9.6 193.9 9.5 C 192.9 9.3 191.0 9.0 190.8 9.3 C 192.0 9.4 192.0 9.3 192.7 9.3 C 192.6 9.4 192.2 9.5 191.4 9.5 C 190.3 9.2 188.0 9.2 189.5 9.0 C 187.9 9.1 186.1 8.7 184.4 8.7 C 186.3 8.9 187.7 9.1 188.2 9.3 C 186.6 9.3 185.1 8.9 185.0 9.1 C 185.2 9.3 187.7 9.4 188.2 9.6 C 186.2 9.7 183.2 8.8 185.6 9.5 C 184.5 9.4 183.0 9.3 182.5 9.2 C 183.8 9.2 182.4 8.8 181.8 8.7 C 180.6 8.7 179.7 8.6 179.2 8.7 C 181.1 8.7 182.4 9.1 181.2 9.1 C 180.9 8.9 180.5 9.1 179.9 9.1 C 179.8 8.9 177.7 8.9 177.4 8.8 C 177.5 8.9 178.4 9.0 178.6 9.1 C 177.4 9.1 175.6 9.4 174.8 9.0 C 175.5 9.0 176.6 9.1 176.7 9.0 C 173.4 8.5 172.3 8.1 168.3 7.8 C 168.8 7.8 169.1 7.8 169.0 7.7 C 166.4 7.6 164.8 7.4 165.1 7.3 C 163.5 7.3 162.7 7.4 161.9 7.5 C 163.5 7.7 164.1 7.5 165.1 7.7 C 164.5 7.7 166.4 8.2 167.1 8.4 C 169.8 8.2 170.0 8.6 172.8 8.6 C 172.0 8.8 174.9 8.7 174.1 8.9 C 171.5 8.5 168.9 8.6 165.1 8.4 C 165.6 8.2 166.1 8.0 164.5 7.9 C 162.0 7.7 163.2 8.1 161.2 8.0 C 160.4 7.8 161.6 7.7 160.6 7.7 C 159.9 7.8 158.0 7.7 157.3 7.5 C 160.0 7.5 156.8 7.3 158.6 7.2 C 157.7 7.2 157.2 7.1 156.6 7.1 C 159.2 7.4 154.0 7.4 156.0 7.6 C 152.4 7.7 155.8 7.0 152.8 7.1 C 154.2 7.2 152.3 7.3 150.2 7.3 C 149.6 7.1 147.4 7.1 145.6 7.0 C 146.6 7.2 147.3 7.1 145.6 7.3 C 146.5 7.4 148.0 7.4 148.9 7.3 C 148.9 7.4 149.2 7.4 149.6 7.5 C 147.4 7.6 148.3 7.7 147.6 7.8 C 147.0 7.7 145.4 7.7 145.0 7.6 C 145.0 7.6 144.4 7.7 144.4 7.7 C 147.1 7.7 143.9 8.1 145.6 8.1 C 146.8 8.1 146.1 7.8 147.6 7.8 C 149.1 8.1 146.4 8.2 145.6 8.4 C 146.9 8.6 148.4 8.2 148.9 8.5 C 147.2 8.8 144.6 8.7 142.4 8.7 C 142.6 9.0 138.8 8.7 138.5 9.1 C 138.2 9.0 137.8 9.0 137.3 8.9 C 136.7 9.2 136.0 8.9 135.3 8.9 C 135.3 9.1 135.5 9.2 136.0 9.2 C 133.3 9.2 132.7 9.2 129.6 9.5 C 129.1 9.4 128.5 9.3 128.3 9.1 C 129.0 9.0 129.7 9.0 130.2 8.8 C 125.9 9.1 128.7 9.6 125.7 9.4 C 125.8 9.5 127.9 9.6 126.4 9.8 C 123.7 9.7 119.9 10.2 120.0 9.5 C 117.6 9.5 116.1 10.1 114.9 9.9 C 114.2 10.0 114.0 10.1 113.7 10.2 C 114.4 10.3 115.3 10.3 116.2 10.3 C 117.6 10.1 118.2 10.3 116.9 10.0 C 118.9 9.8 119.5 10.0 120.6 10.0 C 117.7 10.4 115.1 10.4 115.0 10.8 C 114.0 10.7 113.3 10.6 112.5 10.5 C 112.2 10.7 109.0 11.2 108.7 10.9 C 110.9 10.8 113.1 10.2 111.1 10.3 C 105.8 11.0 102.8 10.9 98.2 11.8 C 98.1 11.7 98.4 11.5 97.6 11.6 C 97.6 11.7 97.4 11.8 97.0 12.0 C 95.5 12.2 94.7 12.2 92.8 12.5 C 92.8 12.3 92.5 12.1 91.5 12.2 C 90.9 12.6 89.1 13.4 88.0 13.4 C 89.1 13.2 87.6 13.2 86.8 13.3 C 87.5 13.5 81.5 14.0 83.2 14.0 C 80.8 14.5 79.8 14.6 79.7 14.5 C 78.9 14.7 78.3 14.9 77.5 15.1 C 76.9 14.8 72.9 15.9 72.4 15.9 C 73.7 15.7 73.9 15.3 72.8 15.6 C 72.1 15.9 68.6 16.9 67.9 17.0 C 68.1 16.9 68.3 16.6 70.1 16.1 C 67.1 16.7 67.2 17.1 66.3 17.6 C 66.4 17.2 65.1 17.8 64.7 18.0 C 63.8 18.1 64.7 17.9 64.6 17.7 C 63.6 17.9 63.2 17.9 61.9 18.2 C 62.3 18.4 60.9 18.6 60.3 18.7 C 60.2 19.0 59.5 19.3 58.3 19.6 C 59.8 18.8 51.7 21.2 53.7 20.9 C 52.2 21.6 52.0 21.1 50.1 21.8 C 49.7 22.0 48.6 22.3 49.7 22.2 C 48.9 22.4 48.0 22.7 47.6 22.7 C 47.3 22.8 46.8 22.9 45.3 23.5 C 46.7 23.3 42.1 24.6 43.0 24.7 C 41.5 24.8 39.2 26.3 36.7 27.0 C 36.7 27.1 36.1 27.4 36.0 27.5 C 35.7 27.8 38.9 26.5 36.8 27.4 C 34.3 28.3 35.6 27.7 35.2 27.7 C 28.7 30.8 22.1 34.5 17.8 37.9 C 18.4 37.6 18.4 37.7 17.6 38.5 C 16.1 39.1 12.3 43.4 11.9 44.1 C 11.4 44.3 10.2 46.5 9.8 46.8 C 10.1 46.4 10.4 45.5 9.8 46.4 C 9.8 47.1 9.2 47.7 9.0 48.6 C 8.5 48.9 7.9 51.6 7.8 50.3 C 7.7 50.7 7.6 51.0 7.4 51.3 C 7.7 51.4 7.5 51.9 7.9 51.0 C 7.0 53.3 7.3 53.8 7.1 55.6 C 7.3 55.9 7.4 54.6 7.4 55.6 C 7.4 55.6 7.3 55.6 7.3 55.6 C 7.3 56.0 7.4 56.1 7.3 56.3 C 7.2 56.2 7.2 55.6 6.9 55.6 C 7.0 56.5 6.7 57.1 7.0 57.4 C 6.9 56.2 7.4 56.9 7.3 57.7 C 7.1 57.1 7.9 60.5 8.5 61.5 C 8.5 62.2 8.0 60.3 7.9 60.5 C 8.7 62.6 8.6 62.5 9.0 62.6 C 9.5 63.7 9.6 64.3 10.6 65.5 C 11.0 66.3 10.1 65.1 10.6 66.0 C 11.1 66.4 11.3 66.6 11.9 67.3 C 13.1 69.5 18.6 73.4 21.3 76.2 C 20.1 75.2 21.8 76.2 23.6 77.4 C 23.6 77.5 23.3 77.5 24.0 77.9 C 24.0 77.7 24.6 78.0 25.8 78.8 C 25.9 78.9 25.6 78.9 26.3 79.3 C 27.0 79.3 28.5 80.5 29.5 80.9 C 29.8 81.4 27.1 79.7 26.9 79.8 C 29.9 81.7 30.7 81.8 33.4 83.2 C 31.9 82.5 34.3 83.9 34.7 84.1 C 34.2 83.6 36.5 84.5 35.0 83.6 C 36.0 84.1 37.7 84.8 37.9 85.0 C 37.3 84.8 36.3 84.3 36.3 84.4 C 37.7 85.0 39.4 86.0 40.2 86.0 C 39.2 85.6 38.6 85.3 38.7 85.2 C 39.1 85.2 39.6 85.3 40.4 85.6 C 37.9 85.3 44.7 87.6 45.1 87.6 C 45.6 88.2 46.1 88.3 45.8 88.4 C 48.7 89.5 48.9 89.2 49.9 89.5 C 49.5 89.7 49.1 89.8 50.7 90.4 C 50.4 90.0 52.4 90.7 51.9 90.2 C 56.1 91.4 57.0 92.0 59.6 92.7 C 59.7 92.6 58.8 92.4 59.6 92.6 C 60.8 93.0 61.9 93.4 62.7 93.7 C 63.4 93.7 62.5 93.4 63.3 93.5 C 65.3 94.3 64.7 94.4 66.4 95.1 C 68.7 95.4 67.8 95.4 69.2 95.4 C 68.7 95.3 67.9 95.0 68.7 95.1 C 70.0 95.7 70.5 96.1 70.8 96.2 C 69.9 96.0 69.1 95.8 68.6 95.6 C 68.3 95.7 66.9 95.4 68.0 95.8 C 66.6 95.4 65.1 95.0 63.1 94.5 C 63.7 94.9 61.3 94.1 61.9 94.5 C 64.2 95.0 64.6 95.3 66.8 95.8 C 66.4 95.4 68.6 96.1 69.0 96.3 C 69.1 96.1 70.6 96.5 70.3 96.2 C 72.0 96.6 71.9 96.8 73.6 97.1 C 73.7 97.2 73.4 97.3 74.1 97.4 C 74.8 97.3 75.2 97.8 75.8 97.9 C 75.5 97.5 78.0 98.2 78.2 98.0 C 77.5 97.9 76.5 97.7 76.4 97.6 C 79.2 98.2 77.1 97.5 76.5 97.2 C 76.6 97.3 75.5 97.4 75.4 97.2 C 77.7 97.5 72.2 96.1 74.3 96.6 C 76.0 97.1 76.0 96.9 77.7 97.3 C 79.8 98.1 77.2 97.9 79.3 98.6 C 80.6 98.7 81.5 98.9 81.7 98.7 C 82.0 98.9 82.3 99.0 82.8 99.2 C 83.4 99.1 81.1 98.6 82.8 98.8 C 83.7 99.1 82.6 99.2 84.6 99.5 C 85.4 99.4 82.3 98.8 84.0 99.1 C 85.8 99.8 83.7 98.9 85.8 99.2 C 86.0 99.3 86.3 99.4 87.0 99.5 C 87.1 99.6 86.8 99.8 87.5 99.9 C 88.0 99.6 88.3 100.2 89.9 100.4 C 90.8 100.2 88.3 100.0 88.8 99.8 C 90.6 100.4 91.7 100.2 92.4 100.4 C 90.9 100.3 94.7 100.9 94.7 101.1 C 94.4 100.8 95.2 101.0 97.3 101.1 C 97.3 101.6 99.8 101.6 100.3 102.0 C 100.6 101.9 101.2 101.9 101.5 101.8 C 100.8 101.7 100.1 101.6 100.3 101.5 C 100.9 101.6 101.5 101.6 102.2 101.7 C 103.2 102.1 100.5 102.2 104.6 102.7 C 104.2 102.3 105.9 102.5 107.1 102.5 C 107.0 102.2 105.5 102.3 105.3 102.1 C 106.7 102.1 108.1 102.5 109.0 102.7 C 111.4 102.8 114.3 103.3 117.9 103.4 C 118.6 103.7 114.9 103.4 117.2 103.7 C 118.2 103.8 117.7 103.6 119.1 103.7 C 117.8 104.7 128.7 104.6 129.4 105.1 C 129.8 104.9 132.9 105.2 132.6 104.8 C 130.5 105.0 129.1 104.6 128.1 104.3 C 126.1 104.4 129.8 104.7 128.1 104.7 C 127.9 104.5 125.2 104.5 125.5 104.3 C 128.3 104.4 124.1 103.9 126.2 103.8 C 128.7 104.0 133.8 104.0 132.6 104.3 C 132.6 104.2 131.5 104.1 131.4 104.2 C 134.3 104.5 136.0 104.3 137.2 104.2 C 138.5 104.5 143.7 104.3 142.4 104.4 C 142.8 104.6 139.3 104.2 139.8 104.5 C 145.1 104.7 145.3 104.5 148.8 104.8 C 147.7 104.5 152.6 104.4 152.1 104.5 C 152.1 104.7 153.2 104.9 155.4 104.6 C 155.1 104.9 156.2 105.0 157.3 105.0 C 157.8 104.8 156.4 104.8 156.6 104.6 C 157.7 104.6 158.9 104.6 159.9 104.6 C 160.0 104.7 159.8 104.8 160.6 104.8 C 161.8 104.7 166.1 104.4 165.8 104.5 C 163.9 104.9 168.8 104.7 165.8 105.0 C 166.6 105.0 166.7 105.1 167.8 105.0 C 167.7 104.9 167.7 104.8 167.7 104.7 C 170.1 104.6 169.0 105.0 171.0 105.0 C 171.2 104.9 172.1 104.8 172.3 104.7 C 171.5 104.7 171.4 104.8 170.3 104.8 C 171.5 104.4 168.2 104.7 168.4 104.4 C 170.6 104.3 170.7 104.5 171.6 104.6 C 174.4 104.3 173.1 104.5 176.1 104.4 C 176.1 104.3 175.3 104.4 175.5 104.2 C 179.2 104.1 178.8 104.6 181.3 104.3 C 180.7 104.4 178.5 104.7 180.1 104.6 C 181.8 104.4 182.2 104.1 184.5 103.9 C 184.6 104.0 184.4 104.2 185.2 104.1 C 186.1 104.0 186.2 103.8 187.0 103.6 C 187.2 103.7 188.5 103.5 189.0 103.4 C 189.8 103.6 188.7 103.7 189.7 103.7 C 191.5 103.5 192.5 102.9 194.0 102.8 C 194.0 103.2 195.7 102.9 197.2 102.7 C 197.5 103.0 200.8 102.6 202.9 102.4 C 202.4 102.2 204.6 102.1 204.1 101.9 C 203.0 102.0 202.5 102.0 202.2 101.9 C 204.7 101.6 205.4 102.0 207.2 101.4 C 208.1 101.5 209.3 101.5 210.9 101.3 C 211.1 101.2 208.0 101.5 209.7 101.2 C 209.8 101.2 210.3 101.1 210.9 101.0 C 210.7 101.3 212.0 101.2 212.8 101.2 C 214.2 100.8 217.2 100.7 215.8 100.6 C 218.0 100.2 216.6 100.9 218.3 100.6 C 217.4 100.4 220.3 99.9 218.8 100.0 C 221.1 99.5 221.0 100.0 220.0 100.3 C 222.2 100.0 222.6 99.7 223.6 99.7 C 222.6 99.6 225.8 98.9 224.2 99.3 C 223.7 99.7 226.1 99.1 226.6 99.1 C 225.8 99.1 226.9 98.9 225.4 99.0 C 226.9 98.7 229.2 98.2 230.6 98.2 C 232.5 97.6 234.3 97.3 233.5 97.7 C 235.3 97.2 234.6 97.4 236.4 97.0 C 236.4 97.0 235.9 97.1 235.7 97.0 C 238.2 96.5 237.7 96.8 240.9 96.0 C 240.6 96.4 242.5 95.9 243.2 95.9 C 241.9 96.2 240.8 96.4 239.8 96.6 C 239.6 96.8 240.7 96.6 239.8 96.8 C 239.7 96.8 239.2 96.9 238.7 96.9 C 240.8 96.7 236.2 97.9 237.6 97.3 C 237.6 97.4 237.7 97.4 238.2 97.3 C 237.7 97.1 237.8 97.2 238.1 96.9 C 237.1 97.2 236.2 97.1 235.8 97.4 C 235.9 97.5 236.9 97.3 237.0 97.3 C 234.5 98.0 236.2 97.2 234.1 97.7 C 233.8 98.1 234.8 97.9 235.4 97.9 C 233.5 98.4 231.8 98.7 231.3 98.6 C 229.6 99.1 231.5 98.8 230.2 99.2 C 229.6 99.2 229.6 99.0 228.4 99.2 C 227.1 99.5 229.2 99.2 227.9 99.5 C 226.4 99.6 228.8 99.0 226.6 99.4 C 227.2 99.6 224.7 99.7 224.9 99.8 C 226.1 99.6 226.2 99.9 225.5 99.8 C 222.6 100.0 220.7 101.2 217.7 101.1 C 217.7 101.2 217.3 101.3 217.2 101.4 C 219.4 101.2 222.6 100.7 223.2 101.0 C 224.9 100.6 224.7 100.4 224.9 100.2 C 227.0 100.2 226.8 100.3 225.7 100.8 C 222.3 101.5 220.8 101.5 218.5 101.8 C 217.3 102.2 218.6 101.9 219.1 102.0 C 212.0 102.8 217.5 102.7 214.9 103.0 C 215.0 102.9 214.4 102.9 213.7 103.0 C 213.7 103.1 212.6 103.2 212.5 103.3 C 212.9 103.2 213.2 103.3 213.1 103.4 C 211.3 103.7 212.0 103.3 211.8 103.2 C 213.2 103.1 214.1 102.9 214.3 102.7 C 212.5 103.1 211.1 103.1 210.0 103.5 C 208.2 103.3 210.8 102.7 209.8 102.5 C 210.1 102.3 208.8 103.3 207.5 103.6 C 205.2 103.8 205.2 104.1 203.1 104.3 C 202.5 104.1 205.2 104.0 205.0 103.8 C 204.4 103.9 204.2 103.8 203.7 103.9 C 202.2 104.1 202.4 104.3 201.2 104.5 C 200.6 104.3 200.2 104.5 199.4 104.7 C 197.9 104.7 200.1 104.4 198.7 104.5 C 197.1 104.6 196.0 105.0 195.5 105.0 C 195.4 105.0 195.6 104.8 194.9 104.9 C 193.1 105.2 192.7 105.3 194.9 105.2 C 192.9 105.3 192.1 105.5 192.4 105.7 C 195.4 105.5 196.1 105.4 197.5 105.6 C 198.1 105.2 198.9 105.4 200.1 105.3 C 199.3 105.0 201.3 105.2 201.9 104.9 C 201.2 104.9 200.5 104.9 200.0 104.9 C 203.2 104.6 203.1 104.6 205.6 104.0 C 205.6 104.1 205.9 104.1 206.2 104.1 C 205.5 104.3 203.2 104.5 203.2 104.7 C 205.0 104.8 205.5 104.3 207.6 104.4 C 208.4 104.1 205.9 104.3 207.5 104.0 C 208.3 104.1 209.4 104.1 210.7 104.0 C 212.0 103.8 212.6 103.6 213.7 103.4 C 213.8 103.4 214.0 103.5 215.0 103.3 C 214.9 103.2 213.9 103.3 214.9 103.1 C 218.2 102.9 220.4 102.8 223.5 102.1 C 222.4 102.2 219.8 102.4 221.0 102.2 C 222.5 102.1 224.3 101.5 225.8 101.5 C 226.3 101.5 224.1 101.7 224.7 102.0 C 226.0 101.7 226.9 101.6 227.6 101.5 C 227.6 101.4 229.2 101.1 228.8 101.0 C 227.6 101.2 227.3 101.5 227.0 101.5 C 227.9 100.6 231.4 100.9 233.5 100.5 C 234.9 100.1 232.4 100.4 234.0 100.0 C 235.0 99.7 235.7 100.1 234.1 100.6 C 233.0 100.7 232.6 101.1 232.3 100.9 C 231.9 101.0 231.2 101.1 231.2 101.2 C 232.0 101.0 231.9 101.2 232.4 101.2 C 231.3 101.4 231.2 101.9 230.1 101.8 C 230.8 101.6 231.0 101.5 231.3 101.4 C 228.2 102.1 227.1 102.1 225.3 102.3 C 226.3 102.3 225.3 102.4 225.4 102.6 C 226.7 102.3 229.4 102.0 227.8 102.3 C 226.7 102.2 225.9 103.1 224.8 103.0 C 225.6 102.9 225.5 102.7 226.0 102.6 C 224.7 102.8 224.8 102.6 223.5 102.8 C 219.7 103.8 216.6 103.7 210.2 105.1 C 207.9 105.4 212.2 104.7 212.0 104.5 C 211.3 104.6 211.2 104.5 210.7 104.6 C 210.7 104.9 209.6 104.7 208.9 105.1 C 209.0 104.8 206.0 105.4 204.5 105.4 C 204.4 105.5 204.6 105.6 203.9 105.7 C 199.3 105.9 190.8 107.1 187.3 107.1 C 187.4 107.3 185.9 107.4 185.4 107.6 C 183.2 107.7 184.2 107.4 180.9 107.9 C 179.3 108.0 181.2 107.7 181.5 107.6 C 176.6 108.0 172.2 107.9 169.1 108.3 C 167.5 108.5 169.1 108.2 165.9 108.2 C 165.8 108.5 160.7 108.1 160.0 108.5 C 158.0 108.6 154.4 108.1 156.0 108.5 C 153.3 108.5 155.1 108.2 154.0 108.2 C 152.2 108.2 154.6 108.8 152.7 108.8 C 152.9 108.5 151.3 108.6 150.1 108.4 C 151.6 108.4 152.6 108.4 152.8 108.2 C 151.5 108.4 151.5 108.2 149.5 108.2 C 147.9 108.4 143.5 108.5 142.3 108.1 C 142.2 108.2 142.6 108.3 142.9 108.3 C 141.6 108.3 140.1 108.0 140.3 108.3 C 137.3 108.3 136.1 107.9 134.4 108.1 C 133.1 108.2 134.9 107.9 131.1 107.7 C 131.0 108.0 124.5 107.5 122.7 107.2 C 122.6 107.5 122.3 107.2 121.5 107.1 C 121.3 107.2 121.5 107.3 120.8 107.3 C 120.6 107.2 120.1 107.2 119.5 107.2 C 120.0 106.8 117.1 107.1 116.9 106.8 C 117.5 106.8 117.5 106.7 117.0 106.6 C 116.8 106.9 114.1 106.2 114.4 106.4 C 115.0 106.6 116.8 106.7 116.3 106.8 C 113.7 106.7 114.8 106.5 113.1 106.3 C 113.2 106.4 114.2 106.6 113.1 106.6 C 111.3 106.3 113.0 106.5 111.9 106.2 C 110.9 106.2 109.2 106.2 108.6 106.1 C 108.8 106.1 108.3 105.9 108.0 105.9 C 104.8 105.4 97.4 104.8 94.4 104.0 C 94.1 104.1 93.5 104.0 93.7 104.2 C 91.8 103.8 92.0 103.9 90.1 103.5 C 90.1 103.6 90.0 103.7 90.0 103.8 C 87.6 103.5 89.8 103.4 88.2 103.2 C 88.0 103.7 87.3 102.9 85.9 102.6 C 85.7 102.7 85.0 102.6 85.2 102.8 C 82.9 102.4 83.1 102.1 81.1 101.8 C 81.5 102.0 81.8 102.8 81.5 103.0 C 81.2 102.8 80.6 102.6 79.7 102.4 C 80.8 102.4 80.4 101.4 77.6 101.1 C 79.1 101.3 79.7 101.5 79.3 101.7 C 77.2 101.3 76.5 101.0 74.7 100.6 C 74.3 100.8 75.6 101.1 75.1 101.2 C 74.6 101.2 74.4 101.2 74.5 101.3 C 72.6 100.8 72.6 100.6 70.5 100.3 C 70.5 100.2 71.0 100.2 71.7 100.5 C 71.6 100.3 71.6 100.1 72.9 100.4 C 73.0 100.5 72.2 100.6 74.0 100.9 C 74.0 100.8 74.0 100.7 74.1 100.5 C 72.8 100.2 69.8 99.4 69.5 99.4 C 70.1 99.7 71.1 99.9 70.5 100.1 C 68.4 99.5 67.9 99.1 66.1 98.6 C 63.1 97.9 57.9 96.4 58.4 96.9 C 56.6 96.4 57.3 96.5 55.7 96.0 C 56.1 96.4 54.0 95.6 54.1 95.9 C 56.0 96.4 55.4 96.2 57.3 96.7 C 57.2 96.8 56.8 96.9 56.1 96.7 C 56.0 96.5 55.3 96.3 54.0 95.9 C 54.2 96.0 55.3 96.6 53.9 96.2 C 53.9 96.1 53.6 96.0 52.9 95.9 C 53.0 95.7 53.0 95.6 53.1 95.5 C 53.8 95.6 54.7 95.8 55.2 95.9 C 54.7 95.7 54.6 95.6 54.2 95.5 C 53.8 95.5 51.7 94.7 51.5 94.8 C 52.4 95.1 52.9 95.4 52.0 95.1 C 51.8 95.1 50.5 94.5 49.9 94.5 C 51.7 95.2 51.0 95.0 51.9 95.5 C 50.8 95.2 50.4 95.0 49.9 94.8 C 49.7 94.7 49.5 94.6 49.1 94.5 C 48.8 94.4 48.8 94.4 47.8 94.0 C 47.7 93.8 47.9 93.7 48.5 93.8 C 47.8 93.3 45.4 92.5 43.4 91.8 C 41.4 91.1 39.5 90.4 38.6 90.0 C 39.8 90.6 41.4 90.8 39.5 90.1 C 39.4 90.2 38.0 89.6 37.8 89.5 C 37.0 89.7 38.5 90.6 39.9 91.4 C 38.3 90.8 38.0 90.8 36.6 90.2 C 36.2 89.8 37.8 90.1 36.0 89.3 C 35.5 89.5 32.8 88.0 32.1 88.0 C 33.3 88.5 34.0 89.0 32.8 88.4 C 33.1 88.4 30.6 87.3 30.6 87.2 C 32.6 88.0 33.2 88.0 34.5 88.6 C 32.9 87.9 35.7 88.9 33.1 87.7 C 31.9 87.3 31.1 87.3 28.6 86.0 C 27.6 85.5 28.6 85.7 27.4 85.0 C 27.6 85.4 24.9 84.0 26.6 84.7 C 25.7 84.2 25.2 83.9 24.7 83.6 C 25.9 84.5 19.9 81.3 20.7 82.0 C 20.8 81.7 20.7 81.3 20.5 81.0 C 19.2 80.6 18.1 79.6 15.5 77.6 C 15.5 77.9 15.1 77.3 14.1 76.5 C 13.8 76.5 14.6 77.3 13.9 76.7 C 12.8 75.7 12.8 75.6 12.7 75.3 C 11.9 74.6 11.4 74.1 11.0 73.7 C 10.9 73.7 11.1 74.0 11.3 74.2 C 8.6 71.3 7.3 70.1 5.7 67.5 C 6.3 68.7 6.8 68.6 6.2 67.8 C 5.8 67.3 5.5 66.9 5.3 66.6 C 5.4 67.3 5.3 67.0 4.7 65.8 C 4.0 64.7 4.6 66.4 4.1 65.5 C 3.7 64.5 4.1 65.0 4.0 64.4 C 3.8 64.0 3.5 63.5 3.4 63.1 C 3.6 64.0 3.1 63.1 2.8 62.3 C 3.2 62.8 3.1 62.4 2.6 60.8 C 2.6 60.6 2.9 61.4 2.8 60.7 C 2.7 60.4 2.1 59.2 2.2 58.0 C 2.2 58.4 2.3 58.5 2.4 58.4 C 2.0 57.2 2.3 56.2 2.4 55.2 C 2.2 56.2 2.0 55.7 1.9 56.1 C 2.0 55.0 1.8 53.7 2.2 52.8 C 2.0 54.4 2.7 52.9 2.9 52.0 C 2.7 51.7 2.5 53.4 2.2 52.8 C 2.1 52.3 2.7 51.1 2.6 50.5 C 2.4 50.6 2.5 51.2 2.3 51.4 C 2.5 50.5 2.1 51.6 2.3 50.9 C 2.6 50.5 2.4 49.9 2.5 49.5 C 2.8 48.9 3.6 47.8 3.6 47.3 C 3.5 47.2 3.2 48.0 3.1 48.1 C 3.9 45.5 4.6 44.9 5.8 42.7 C 6.0 42.5 6.4 42.1 6.9 41.5 C 6.7 41.4 6.9 41.0 7.3 40.5 C 8.1 39.7 9.0 38.8 10.1 37.8 C 10.0 38.1 9.6 38.7 11.1 37.2 C 11.1 37.1 10.5 37.7 11.0 37.1 C 11.0 37.1 11.4 36.8 11.4 36.6 C 11.4 36.6 11.4 36.6 11.3 36.5 C 10.9 37.0 10.5 37.4 10.1 37.8 C 10.0 37.6 9.8 37.7 9.5 37.9 C 11.1 36.1 11.4 36.5 12.5 35.2 C 13.0 35.3 13.4 35.0 12.5 36.2 C 13.6 35.1 14.4 34.3 14.6 33.9 C 13.1 35.1 13.4 34.5 12.9 34.7 C 13.8 34.0 13.8 33.9 14.2 33.5 C 15.4 32.7 13.3 34.7 15.5 33.0 C 13.7 34.1 16.7 31.8 18.0 31.0 C 17.7 31.0 17.3 31.3 17.9 30.8 C 21.1 28.4 21.3 29.3 23.3 27.6 C 23.2 27.9 24.2 27.3 24.7 27.1 C 22.8 28.2 22.4 28.6 21.7 29.1 C 21.9 29.1 22.4 28.8 23.0 28.5 C 22.9 28.4 23.3 28.1 24.2 27.7 C 24.7 27.2 24.3 27.0 25.7 26.0 C 25.9 26.0 25.8 26.2 26.6 25.8 C 27.2 25.3 26.1 26.5 29.4 24.7 C 28.8 24.9 28.4 25.0 28.6 24.7 C 30.2 23.8 29.9 24.0 32.1 22.9 C 33.2 22.9 30.8 24.0 30.2 24.6 C 31.7 23.8 32.9 22.9 34.6 22.4 C 33.3 22.8 34.5 22.0 36.0 21.3 C 37.4 20.8 36.0 21.7 37.8 21.0 C 39.1 20.4 39.7 19.9 38.4 20.3 C 41.4 19.2 40.6 19.2 43.3 18.3 C 43.5 18.4 42.7 18.7 41.7 19.0 C 41.9 19.0 41.6 19.2 42.6 18.9 C 43.4 18.5 44.8 17.9 46.3 17.3 C 47.8 16.8 48.7 16.4 49.3 16.1 C 51.7 15.8 54.2 14.5 56.7 14.0 C 55.8 14.5 59.9 13.1 61.1 13.1 C 61.8 12.8 64.0 11.7 63.2 12.1 C 63.5 12.4 64.9 11.9 66.1 11.7 C 66.1 11.6 66.0 11.6 66.0 11.5 C 68.5 10.8 69.1 11.0 70.0 11.0 C 73.1 10.1 76.6 9.7 80.5 8.7 C 81.5 8.8 82.3 8.6 84.7 8.3 C 84.6 8.1 86.5 7.8 88.2 7.5 C 87.8 7.3 89.4 7.1 89.4 7.0 C 87.8 7.2 88.4 6.8 87.5 6.9 C 89.7 6.8 90.7 6.1 92.4 6.1 C 90.3 6.5 89.7 7.0 89.5 7.4 C 92.0 6.9 93.3 6.8 93.8 6.9 C 94.0 6.7 93.6 6.7 93.1 6.7 C 93.9 6.5 94.8 6.4 95.5 6.3 C 95.8 6.4 94.7 6.6 95.6 6.5 C 96.2 6.4 96.8 6.2 97.4 6.0 C 98.2 6.2 96.5 6.4 96.2 6.5 C 99.6 6.2 98.1 5.9 99.9 5.5 C 100.4 5.7 100.3 5.9 101.8 5.8 C 102.4 5.5 102.5 5.3 104.3 5.1 C 105.4 5.0 104.2 5.5 105.5 5.3 C 105.7 5.2 106.3 5.2 106.8 5.2 C 106.7 5.1 107.3 4.9 108.0 4.8 C 108.2 4.9 109.4 4.7 109.9 4.6 C 110.1 4.7 112.1 4.8 112.5 4.6 C 112.5 4.5 111.4 4.6 111.2 4.6 C 112.7 4.4 113.7 4.3 114.4 4.2 C 114.9 4.7 117.2 4.0 120.2 4.1 C 122.0 3.8 119.8 3.7 122.1 3.4 C 123.5 3.4 121.8 3.6 122.1 3.8 C 122.5 3.8 124.6 3.9 124.7 3.7 C 124.7 3.6 123.6 3.7 123.4 3.6 C 125.1 3.3 125.1 3.5 126.0 3.6 C 125.9 3.4 127.0 3.3 127.3 3.1 C 131.9 2.7 131.9 3.1 133.8 3.2 C 133.8 3.1 135.0 3.1 135.1 3.0 C 133.7 3.2 132.0 3.0 133.8 2.9 C 133.5 3.1 136.2 2.8 136.4 2.7 C 136.1 2.6 134.4 2.7 135.1 2.5 C 137.5 2.3 136.5 2.8 138.4 2.5 C 138.6 2.6 137.5 2.7 137.0 2.8 C 137.8 2.8 138.9 2.7 139.0 2.8 C 138.1 2.9 138.1 3.1 137.7 3.2 C 139.0 3.0 141.3 3.1 139.7 2.8 C 142.3 2.8 144.8 2.6 143.0 2.4 C 145.1 2.3 143.9 2.7 145.6 2.4 C 145.3 2.7 144.8 2.9 146.2 3.1 C 146.5 2.9 147.6 2.8 147.5 2.7 C 150.7 2.6 151.5 2.9 152.8 3.1 C 151.7 2.7 153.2 3.0 154.7 2.8 C 155.7 2.9 154.8 3.2 157.4 3.1 C 154.6 2.7 160.6 3.0 159.4 2.6 C 162.6 2.8 162.6 2.8 165.9 3.0 C 165.6 3.2 164.8 3.2 163.3 3.2 C 164.3 3.0 160.4 3.0 160.7 3.1 C 160.7 3.2 160.7 3.2 160.7 3.3 C 163.2 3.3 164.8 3.4 165.9 3.6 C 166.4 3.4 167.6 3.3 167.2 3.0 C 169.6 3.4 172.1 3.1 173.1 3.4 C 172.3 3.4 171.5 3.4 171.8 3.5 C 172.7 3.5 173.9 3.5 173.8 3.3 C 171.9 3.1 171.5 3.1 170.5 3.2 C 171.4 3.0 168.6 2.8 170.5 2.8 C 170.5 3.2 174.4 2.8 173.1 3.0 C 171.0 3.1 175.5 3.3 175.7 3.5 C 175.7 3.5 175.7 3.5 175.7 3.5 Z M 224.1 102.7 C 225.9 102.2 223.6 102.4 222.3 102.6 C 222.7 102.7 222.9 102.7 222.9 102.9 C 223.5 102.7 224.0 102.6 224.1 102.7 C 224.1 102.7 224.1 102.7 224.1 102.7 Z M 204.1 102.0 C 203.5 102.4 206.6 101.8 207.8 101.7 C 207.5 101.7 207.0 101.7 207.8 101.6 C 206.5 101.5 206.0 102.0 204.1 102.0 C 204.1 102.0 204.1 102.0 204.1 102.0 Z M 132.6 105.2 C 133.1 105.2 134.4 105.2 134.5 105.3 C 135.2 105.3 135.0 105.2 135.2 105.1 C 136.7 105.1 134.8 105.5 137.1 105.4 C 138.0 105.0 133.1 104.7 132.6 105.2 C 132.6 105.2 132.6 105.2 132.6 105.2 Z M 150.8 6.6 C 151.8 6.7 149.5 6.9 150.2 7.2 C 153.8 7.0 151.0 6.7 156.0 6.7 C 155.7 6.7 155.3 6.6 155.4 6.5 C 153.0 6.6 152.8 6.8 153.4 6.3 C 152.3 6.3 152.1 6.9 150.8 6.6 C 150.8 6.6 150.8 6.6 150.8 6.6 Z M 197.1 9.7 C 196.7 9.6 196.4 9.5 196.4 9.4 C 195.0 9.4 195.3 9.5 193.3 9.2 C 193.5 9.6 195.4 9.7 197.1 9.7 C 197.1 9.7 197.1 9.7 197.1 9.7 Z M 299.6 49.9 C 299.7 50.2 299.8 50.4 299.9 50.6 C 300.0 50.4 300.5 50.9 300.0 49.8 C 299.9 49.7 300.0 49.9 300.1 50.1 C 299.9 50.0 299.7 49.4 299.6 49.6 C 299.7 49.9 299.7 49.9 299.6 49.9 C 299.6 49.9 299.6 49.9 299.6 49.9 Z M 284.7 79.1 C 286.8 77.5 281.0 80.4 284.7 79.1 C 284.7 79.1 284.7 79.1 284.7 79.1 C 284.7 79.1 284.7 79.1 284.7 79.1 Z M 290.7 78.5 C 290.8 78.6 291.2 78.2 291.2 78.1 C 293.0 77.0 291.4 78.3 292.4 77.7 C 293.6 76.5 291.5 77.9 293.1 76.4 C 292.6 76.6 291.7 77.8 290.7 78.5 C 290.7 78.5 290.7 78.5 290.7 78.5 Z M 20.9 29.2 C 19.4 30.3 19.1 30.8 19.0 31.2 C 20.0 30.5 20.9 30.0 21.3 29.9 C 23.3 28.4 19.9 30.6 19.5 30.7 C 19.6 30.4 21.0 29.4 20.9 29.2 C 20.9 29.2 20.9 29.2 20.9 29.2 Z M 16.0 32.7 C 15.5 33.3 14.7 34.0 14.8 34.2 C 15.6 33.5 15.8 33.5 15.9 33.5 C 16.6 32.8 15.5 33.5 16.0 32.7 C 16.0 32.7 16.0 32.7 16.0 32.7 Z M 26.1 26.6 C 25.2 27.1 25.6 27.1 25.6 27.2 C 26.8 26.6 27.0 26.6 28.3 25.9 C 28.2 25.8 28.2 25.7 28.2 25.7 C 27.1 26.2 27.1 26.3 26.2 26.8 C 26.1 26.7 26.1 26.7 26.1 26.6 C 26.1 26.6 26.1 26.6 26.1 26.6 Z M 12.1 36.5 C 9.8 38.6 9.3 39.8 8.5 41.4 C 9.7 39.8 10.6 38.1 11.8 37.1 C 13.2 35.8 11.3 37.5 11.3 37.4 C 11.3 37.3 11.7 36.8 12.1 36.5 C 12.1 36.5 12.1 36.5 12.1 36.5 Z M 2.5 56.5 C 2.4 57.1 2.8 57.9 3.0 59.3 C 3.0 59.0 3.1 58.8 3.2 58.8 C 2.9 56.8 2.6 58.0 2.5 56.5 C 2.5 56.5 2.5 56.5 2.5 56.5 Z M 6.5 67.6 C 7.3 68.7 6.3 67.0 6.8 67.4 C 6.0 66.2 5.3 64.9 5.1 65.0 C 5.9 66.3 6.1 66.6 6.5 67.6 C 6.5 67.6 6.5 67.6 6.5 67.6 Z M 13.0 75.0 C 14.4 76.1 12.7 74.3 13.4 74.6 C 12.9 74.1 12.9 74.3 12.8 74.4 C 12.5 74.0 12.1 73.7 11.6 73.1 C 11.9 73.6 13.4 74.9 13.0 75.0 C 13.0 75.0 13.0 75.0 13.0 75.0 Z M 67.9 12.1 C 66.9 12.4 67.3 12.6 65.2 13.0 C 68.3 12.2 66.7 13.4 70.9 12.3 C 70.2 12.4 70.6 12.2 70.9 12.2 C 72.5 11.7 69.4 12.4 70.8 11.8 C 69.6 12.1 70.4 12.2 69.2 12.5 C 68.0 12.6 67.2 12.6 67.9 12.1 C 67.9 12.1 67.9 12.1 67.9 12.1 Z M 71.0 12.5 C 72.1 12.3 72.0 11.9 72.6 12.0 C 73.2 11.9 73.1 11.8 73.2 11.7 C 72.7 11.8 72.7 11.8 72.6 11.8 C 71.6 12.1 70.6 12.3 71.0 12.5 C 71.0 12.5 71.0 12.5 71.0 12.5 Z M 60.5 15.1 C 62.3 14.5 62.8 14.6 63.7 14.1 C 64.4 14.3 64.9 13.7 65.9 13.7 C 67.8 13.2 66.4 13.4 65.9 13.4 C 67.6 12.9 66.3 13.5 68.1 13.0 C 68.4 12.7 66.1 13.3 66.3 13.0 C 65.0 13.3 65.0 13.5 64.2 13.7 C 63.5 13.9 63.7 13.7 63.6 13.7 C 62.0 14.1 62.1 13.9 60.8 14.3 C 60.6 14.6 61.1 14.5 62.6 14.1 C 61.1 14.6 60.5 14.9 58.8 15.3 C 59.9 14.7 54.6 16.1 55.1 16.4 C 56.5 16.0 56.1 15.9 56.6 15.7 C 58.5 15.4 59.7 15.0 60.5 15.1 C 60.5 15.1 60.5 15.1 60.5 15.1 Z M 27.1 26.9 C 26.5 27.2 26.0 27.4 25.1 27.9 C 25.0 27.8 26.1 27.2 25.0 27.7 C 23.6 28.4 23.4 28.7 22.6 29.2 C 23.1 29.0 26.0 27.6 24.6 28.5 C 25.1 28.4 26.0 27.9 27.2 27.3 C 25.7 27.7 29.2 26.2 30.7 25.5 C 30.4 25.2 33.2 24.4 34.2 23.7 C 33.3 23.9 30.4 25.4 29.2 26.1 C 29.8 25.7 25.6 27.3 27.1 26.9 C 27.1 26.9 27.1 26.9 27.1 26.9 Z M 75.5 11.4 C 75.8 11.2 77.1 10.9 76.1 11.1 C 76.6 10.9 77.7 10.8 77.1 10.6 C 77.8 10.4 78.3 10.3 78.9 10.2 C 78.7 10.4 77.1 10.6 77.8 10.8 C 78.9 10.4 78.5 10.6 80.1 10.3 C 79.3 10.7 80.2 10.5 79.6 11.0 C 80.1 10.7 81.5 10.5 81.4 10.3 C 83.6 9.9 80.8 10.7 83.8 10.2 C 83.8 10.4 81.6 10.8 80.9 10.8 C 80.5 11.1 84.5 10.2 86.8 9.9 C 84.8 10.1 86.3 9.6 87.2 9.2 C 88.0 9.1 87.3 9.4 88.5 9.3 C 89.5 9.1 90.0 8.9 90.3 9.0 C 91.2 8.8 90.8 8.7 90.9 8.6 C 92.3 8.4 91.3 8.9 93.4 8.5 C 91.8 8.4 93.5 8.1 96.4 7.8 C 96.2 7.7 95.3 7.8 95.1 7.7 C 95.5 7.5 97.2 7.6 97.6 7.6 C 98.6 7.4 98.0 7.4 97.0 7.5 C 97.6 7.4 98.2 7.2 98.8 7.0 C 95.7 7.4 90.9 8.2 85.4 8.8 C 86.5 8.8 85.2 9.0 83.6 9.2 C 83.3 9.2 84.0 9.0 84.8 8.9 C 82.8 8.9 83.0 9.5 80.1 9.9 C 78.5 10.1 81.8 9.4 80.0 9.6 C 79.0 9.9 78.3 10.2 77.7 10.0 C 75.8 10.5 75.4 10.9 72.5 11.5 C 74.2 11.3 75.0 11.7 76.7 11.2 C 76.7 11.1 75.9 11.3 75.5 11.4 C 75.5 11.4 75.5 11.4 75.5 11.4 Z M 16.0 33.7 C 15.1 34.3 14.8 34.8 14.5 34.8 C 13.2 36.1 14.9 34.9 15.2 34.7 C 15.8 34.1 16.0 33.8 16.0 33.7 C 16.0 33.7 16.0 33.7 16.0 33.7 Z M 140.9 107.6 C 143.4 107.8 142.9 107.5 144.9 107.5 C 143.3 107.4 142.9 107.2 140.3 107.1 C 140.2 107.3 140.2 107.5 140.9 107.6 C 140.9 107.6 140.9 107.6 140.9 107.6 Z M 21.4 30.1 C 22.7 28.9 19.9 31.4 19.8 31.2 C 18.3 32.4 21.3 30.3 20.0 31.5 C 21.3 30.5 22.2 30.2 24.0 28.9 C 23.9 28.8 22.4 29.7 21.0 30.6 C 20.8 30.6 21.5 30.1 21.4 30.1 C 21.4 30.1 21.4 30.1 21.4 30.1 Z M 115.7 105.5 C 114.0 105.5 117.3 106.1 118.2 106.3 C 118.3 106.0 117.8 106.0 115.7 105.5 C 115.7 105.5 115.7 105.5 115.7 105.5 Z M 158.0 107.4 C 158.9 107.1 155.1 107.4 156.0 107.1 C 154.9 107.1 154.7 107.2 154.7 107.3 C 154.1 107.2 152.2 107.3 152.8 107.0 C 152.4 106.8 155.7 107.1 154.7 106.8 C 155.8 106.8 155.8 106.9 156.6 106.9 C 154.7 106.9 155.6 107.1 158.0 107.2 C 158.0 107.0 156.9 107.0 158.0 106.9 C 158.1 107.0 159.3 107.1 159.3 107.5 C 161.3 107.5 160.1 107.1 162.5 107.0 C 162.3 106.9 160.8 106.9 159.9 106.8 C 160.2 106.6 162.5 107.0 161.9 106.7 C 162.4 106.9 163.8 106.9 163.9 107.2 C 162.0 107.3 160.8 107.5 159.3 107.7 C 160.7 107.8 162.7 107.2 165.1 107.4 C 164.9 107.2 166.4 107.2 165.8 107.0 C 167.7 107.0 166.9 107.3 166.5 107.4 C 167.0 107.5 170.7 107.3 170.4 107.1 C 170.7 107.3 175.1 107.0 174.9 106.7 C 176.3 106.9 178.3 106.4 178.9 106.7 C 179.6 106.6 181.1 106.5 182.8 106.4 C 183.2 106.1 180.4 106.4 180.2 106.2 C 179.6 106.0 183.2 106.1 182.7 105.9 C 182.7 105.8 182.7 105.8 182.7 105.7 C 181.4 105.9 180.1 106.1 178.8 106.2 C 177.9 106.2 179.1 106.1 178.8 106.0 C 177.9 106.2 173.8 106.7 173.6 106.2 C 170.9 106.5 168.9 106.5 167.7 106.7 C 166.1 106.7 168.7 106.5 167.7 106.4 C 162.8 106.8 156.8 106.5 152.8 106.9 C 151.9 106.9 152.2 106.7 152.1 106.6 C 146.4 106.7 151.2 107.1 146.8 106.9 C 146.8 106.7 148.9 106.8 148.8 106.5 C 147.3 106.5 146.9 106.6 144.9 106.5 C 144.8 106.6 144.8 106.7 144.8 106.9 C 143.2 106.8 143.8 106.5 142.9 106.4 C 140.8 106.4 141.3 106.6 140.3 106.3 C 138.4 106.3 136.5 106.3 134.4 106.1 C 133.1 106.2 135.6 106.7 137.7 106.8 C 137.6 106.9 137.0 106.9 137.0 106.9 C 134.6 106.6 134.2 106.2 130.6 105.9 C 133.3 106.3 129.1 106.0 128.6 105.7 C 127.1 105.7 128.2 106.1 129.2 106.1 C 129.0 106.2 128.1 106.0 128.0 105.9 C 127.8 106.3 131.3 106.7 135.0 106.7 C 133.3 107.0 137.7 106.8 135.7 107.2 C 138.8 107.3 136.2 106.9 139.6 107.0 C 139.3 106.9 138.7 106.8 138.4 106.7 C 141.0 106.7 140.2 107.0 142.9 107.1 C 143.4 106.9 141.6 106.9 141.6 106.7 C 144.6 107.0 145.5 107.1 147.5 107.4 C 147.9 107.2 147.4 107.0 150.8 107.2 C 150.8 107.2 150.8 107.3 150.8 107.3 C 149.2 107.3 148.8 107.8 152.8 107.8 C 153.0 107.6 151.8 107.6 150.8 107.6 C 151.2 107.4 152.5 107.4 154.0 107.4 C 154.8 107.4 155.7 107.5 154.7 107.5 C 155.3 107.7 155.9 107.3 158.0 107.4 C 158.0 107.4 158.0 107.4 158.0 107.4 Z M 3.1 54.3 C 3.1 54.6 3.1 55.0 3.1 55.6 C 3.3 55.9 3.3 54.7 3.4 54.7 C 3.5 53.8 3.2 54.5 3.1 54.3 C 3.1 54.3 3.1 54.3 3.1 54.3 Z M 7.9 42.3 C 7.6 42.2 7.4 43.0 6.7 43.9 C 6.7 44.3 7.4 43.2 7.6 43.3 C 8.4 42.2 7.0 43.3 7.9 42.3 C 7.9 42.3 7.9 42.3 7.9 42.3 Z M 4.9 47.3 C 4.5 47.7 4.8 47.8 5.2 46.9 C 5.3 47.0 5.3 47.3 5.1 47.9 C 5.6 47.4 5.4 46.8 6.0 45.8 C 5.7 46.1 5.3 46.6 4.9 47.3 C 4.9 47.3 4.9 47.3 4.9 47.3 Z M 4.3 49.0 C 4.2 49.7 3.9 50.1 3.7 51.2 C 4.0 51.0 4.6 48.6 4.7 48.2 C 4.6 47.7 3.7 50.3 4.3 49.0 C 4.3 49.0 4.3 49.0 4.3 49.0 Z M 90.9 102.2 C 91.5 102.2 91.4 102.1 91.5 102.1 C 93.3 102.7 96.0 103.1 93.8 103.1 C 95.8 103.2 97.7 103.7 99.3 104.0 C 100.8 104.2 100.1 103.9 101.2 104.0 C 103.1 104.3 100.3 104.0 100.6 104.2 C 100.9 104.4 101.5 104.1 103.7 104.5 C 103.2 104.0 105.6 104.7 105.0 104.2 C 106.2 104.5 106.6 104.4 108.2 104.6 C 108.0 104.4 106.5 104.3 106.3 104.1 C 105.5 103.7 105.4 104.2 106.9 104.3 C 106.0 104.5 103.9 103.8 103.2 103.9 C 102.4 103.6 105.2 104.1 104.4 103.8 C 103.9 103.7 103.3 103.7 103.2 103.8 C 102.3 103.6 101.7 103.5 101.3 103.3 C 101.9 103.4 101.9 103.4 101.9 103.5 C 103.1 103.6 100.8 102.9 103.2 103.2 C 102.8 103.1 101.8 103.0 102.0 102.8 C 101.3 102.6 101.9 103.5 99.5 102.9 C 97.8 102.9 103.3 103.6 101.9 103.9 C 98.4 103.4 100.4 103.3 97.6 102.9 C 97.6 103.0 97.7 103.1 97.0 103.1 C 97.1 103.2 98.1 103.3 98.8 103.4 C 98.7 103.5 97.7 103.3 96.9 103.2 C 97.0 103.3 97.6 103.4 97.6 103.5 C 95.2 103.0 95.6 102.6 97.7 102.7 C 97.6 102.5 94.8 102.1 94.0 102.1 C 94.7 102.4 93.9 102.3 94.5 102.6 C 95.1 102.7 95.0 102.6 95.2 102.6 C 96.3 102.8 95.2 102.7 95.2 102.8 C 93.9 102.6 94.0 102.4 92.7 102.4 C 93.0 102.3 93.3 102.3 93.4 102.2 C 92.8 102.1 92.1 102.0 91.5 101.9 C 91.6 102.1 90.8 102.0 90.9 102.2 C 90.9 102.2 90.9 102.2 90.9 102.2 Z M 123.4 106.4 C 125.5 106.6 124.4 106.4 123.4 106.3 C 123.9 106.2 124.6 106.2 125.4 106.3 C 124.8 106.1 124.2 106.2 122.2 105.9 C 124.0 105.8 122.2 105.2 119.0 105.0 C 118.0 105.4 120.7 105.7 119.6 105.8 C 121.9 105.9 123.2 106.1 123.4 106.4 C 123.4 106.4 123.4 106.4 123.4 106.4 Z M 15.3 34.8 C 14.3 35.5 13.4 36.3 12.6 37.1 C 12.9 37.2 15.7 34.9 15.3 34.8 C 15.3 34.8 15.3 34.8 15.3 34.8 Z M 101.3 7.0 C 101.8 6.9 101.9 7.0 102.0 7.0 C 103.8 6.7 101.1 6.9 101.9 6.6 C 101.2 6.7 100.6 6.8 100.0 6.9 C 99.9 7.0 102.6 6.8 100.7 7.1 C 100.8 7.2 101.3 7.1 101.3 7.0 C 101.3 7.0 101.3 7.0 101.3 7.0 Z M 3.5 53.4 C 3.5 54.2 3.7 53.7 3.7 55.6 C 3.8 55.0 3.8 54.6 3.9 53.5 C 3.7 53.4 3.6 53.4 3.5 53.4 C 3.5 53.4 3.5 53.4 3.5 53.4 Z M 81.8 101.0 C 83.3 101.5 83.8 101.1 86.6 101.7 C 85.2 101.1 83.5 101.2 81.8 101.0 C 81.8 101.0 81.8 101.0 81.8 101.0 Z M 187.9 105.6 C 186.9 105.6 188.1 105.5 186.6 105.5 C 185.7 105.6 185.3 105.8 184.0 105.9 C 185.8 106.0 189.1 105.5 190.4 105.8 C 192.0 105.6 191.8 105.4 192.3 105.2 C 191.6 105.3 191.2 105.3 191.1 105.2 C 190.1 105.6 189.0 105.1 187.9 105.6 C 187.9 105.6 187.9 105.6 187.9 105.6 Z M 115.1 105.4 C 114.0 105.1 116.0 105.2 116.4 105.1 C 117.3 105.2 116.9 105.3 117.1 105.5 C 118.2 105.5 118.5 105.5 118.3 105.3 C 116.2 105.0 113.6 104.8 115.2 104.6 C 113.2 104.3 114.2 104.8 113.3 104.7 C 112.2 104.4 113.2 104.5 113.3 104.2 C 112.8 104.2 111.2 104.4 111.4 104.1 C 108.3 104.1 109.6 104.6 111.9 105.2 C 114.0 105.2 111.6 104.9 115.1 105.4 C 115.1 105.4 115.1 105.4 115.1 105.4 Z M 38.2 88.4 C 38.4 88.5 39.9 89.1 39.8 89.2 C 41.6 89.7 43.3 90.0 45.1 90.4 C 44.8 90.0 42.4 89.4 43.3 89.9 C 42.7 89.5 41.1 88.8 40.2 88.3 C 38.5 87.6 37.8 87.8 37.8 87.4 C 36.2 86.9 37.0 87.3 34.7 86.1 C 38.3 88.0 33.3 85.7 33.0 85.8 C 35.1 86.8 37.1 87.6 36.9 87.3 C 38.5 88.1 40.4 88.9 40.7 89.3 C 40.5 89.3 39.2 88.7 38.2 88.4 C 38.2 88.4 38.2 88.4 38.2 88.4 Z M 48.6 91.4 C 47.9 91.2 47.2 91.1 46.0 90.6 C 46.7 90.9 46.9 91.1 46.8 91.2 C 49.0 92.0 49.2 91.9 49.6 92.3 C 50.7 92.7 49.4 91.8 51.2 92.5 C 51.0 92.4 50.1 92.1 50.2 92.0 C 50.0 92.2 49.7 92.1 48.6 91.4 C 48.6 91.4 48.6 91.4 48.6 91.4 Z M 64.8 96.7 C 66.3 97.0 64.1 96.3 64.9 96.4 C 64.5 96.3 61.8 95.5 62.3 95.4 C 61.6 94.9 58.7 94.8 59.0 94.5 C 58.4 94.3 58.6 94.5 58.5 94.6 C 60.3 95.0 60.3 95.2 58.9 94.9 C 59.1 95.0 60.3 95.3 61.1 95.5 C 61.2 95.4 60.5 95.2 60.6 95.1 C 62.2 95.6 63.4 96.1 64.8 96.7 C 64.8 96.7 64.8 96.7 64.8 96.7 Z M 171.7 4.6 C 170.2 4.5 169.2 4.5 168.4 4.6 C 168.9 4.7 169.6 4.6 170.4 4.6 C 170.6 4.8 169.9 4.8 169.1 4.7 C 169.8 5.0 172.6 4.9 171.7 4.6 C 171.7 4.6 171.7 4.6 171.7 4.6 Z M 158.6 4.3 C 157.2 4.2 156.2 4.3 156.0 4.4 C 156.6 4.6 156.4 4.3 157.4 4.4 C 157.9 4.4 158.3 4.5 158.6 4.6 C 159.3 4.6 159.1 4.5 159.3 4.4 C 159.8 4.4 159.9 4.5 160.0 4.5 C 161.8 4.3 157.9 4.5 158.6 4.3 C 158.6 4.3 158.6 4.3 158.6 4.3 Z M 55.8 94.0 C 55.3 93.8 55.0 93.5 53.8 93.2 C 54.0 93.4 53.0 93.1 52.2 92.8 C 53.3 93.4 53.9 93.5 55.8 94.0 C 55.8 94.0 55.8 94.0 55.8 94.0 Z M 79.7 11.1 C 77.9 11.2 78.1 11.6 75.6 11.9 C 75.6 12.0 75.6 12.1 75.7 12.2 C 77.1 11.7 77.8 11.7 79.7 11.1 C 79.7 11.1 79.7 11.1 79.7 11.1 Z M 302.2 64.3 C 302.1 64.1 301.5 65.4 301.4 65.4 C 301.6 65.8 300.8 66.1 299.1 68.5 C 299.0 68.4 299.1 68.3 299.3 67.9 C 297.8 69.8 299.9 67.6 300.2 67.5 C 301.2 66.0 301.5 65.8 302.2 64.3 C 302.2 64.3 302.2 64.3 302.2 64.3 Z M 168.4 105.9 C 168.3 106.0 168.7 106.0 169.1 106.0 C 169.5 106.0 169.9 106.0 170.3 106.0 C 170.2 105.6 168.0 105.6 169.7 105.2 C 169.1 105.2 169.0 105.2 169.0 105.3 C 165.9 106.1 163.4 105.0 159.2 105.5 C 158.6 105.5 158.7 105.6 158.6 105.7 C 159.1 105.6 159.2 105.7 159.3 105.7 C 159.8 105.4 163.5 105.7 161.9 105.9 C 162.0 106.0 162.5 105.9 162.5 105.8 C 162.9 105.8 163.4 105.8 163.8 105.8 C 163.6 105.7 162.7 105.7 162.5 105.6 C 164.6 105.7 167.1 105.7 165.8 106.0 C 167.1 106.0 167.5 105.8 168.4 105.7 C 169.2 105.7 169.2 105.9 168.4 105.9 C 168.4 105.9 168.4 105.9 168.4 105.9 Z M 185.2 105.0 C 187.2 104.9 186.4 104.7 188.4 104.6 C 187.2 104.5 185.6 104.9 183.9 104.9 C 184.2 104.9 185.1 104.9 185.2 105.0 C 185.2 105.0 185.2 105.0 185.2 105.0 Z M 147.5 105.7 C 147.9 105.4 146.1 105.4 144.2 105.3 C 143.9 105.6 145.6 105.7 147.5 105.7 C 147.5 105.7 147.5 105.7 147.5 105.7 Z M 156.0 105.8 C 157.9 105.7 153.6 105.7 154.7 105.4 C 153.8 105.5 152.8 105.5 152.8 105.4 C 152.1 105.4 152.1 105.5 150.8 105.5 C 150.9 105.7 153.0 105.6 152.8 105.8 C 154.2 105.6 154.5 105.6 156.0 105.8 C 156.0 105.8 156.0 105.8 156.0 105.8 Z M 157.3 105.8 C 158.6 105.7 157.0 105.3 155.4 105.3 C 155.9 105.5 156.3 105.6 157.3 105.8 C 157.3 105.8 157.3 105.8 157.3 105.8 Z M 13.8 72.5 C 14.4 73.0 14.1 72.4 14.8 73.0 C 14.9 72.9 12.4 70.7 14.5 72.5 C 13.9 71.6 13.2 71.6 12.5 70.7 C 12.7 71.0 12.8 71.3 12.4 70.8 C 12.0 70.7 14.2 72.6 13.8 72.5 C 13.8 72.5 13.8 72.5 13.8 72.5 Z M 16.4 74.7 C 16.9 75.1 16.7 74.8 16.4 74.6 C 16.6 74.6 17.3 75.3 17.9 75.7 C 17.9 75.8 17.1 74.6 17.3 74.5 C 14.8 72.8 16.4 74.4 16.4 74.7 C 16.4 74.7 16.4 74.7 16.4 74.7 Z M 18.8 76.4 C 20.4 77.8 23.0 79.4 24.4 79.9 C 23.2 78.8 19.8 76.7 18.8 76.4 C 18.8 76.4 18.8 76.4 18.8 76.4 Z M 7.4 63.8 C 8.3 66.3 11.9 70.6 9.3 66.4 C 9.2 66.6 7.4 64.0 7.0 62.6 C 6.9 62.6 6.1 61.2 6.2 61.1 C 5.7 60.1 7.5 64.5 7.4 63.8 C 7.4 63.8 7.4 63.8 7.4 63.8 Z M 27.0 80.9 C 25.9 80.4 27.1 81.6 25.6 80.6 C 24.7 80.1 25.8 80.8 25.5 80.8 C 27.4 81.8 31.8 83.8 32.1 84.2 C 33.2 84.7 33.6 84.7 35.8 85.6 C 35.9 85.6 28.2 82.3 27.0 81.1 C 27.1 81.0 29.6 82.3 27.0 80.9 C 27.0 80.9 27.0 80.9 27.0 80.9 Z M 79.9 12.5 C 80.1 12.3 77.7 12.9 78.1 12.6 C 76.9 13.1 75.6 13.2 74.2 13.7 C 73.8 13.7 73.9 13.3 71.9 13.7 C 71.9 14.0 72.8 13.7 71.9 14.0 C 70.1 14.5 70.6 14.1 68.5 14.7 C 68.9 15.0 64.2 15.8 64.8 16.1 C 65.8 15.8 65.7 15.6 67.5 15.2 C 68.1 15.1 67.9 15.3 68.6 15.1 C 68.1 15.5 67.1 15.4 66.4 15.7 C 66.6 15.9 68.0 15.5 68.2 15.6 C 69.0 15.4 67.9 15.6 68.1 15.4 C 70.3 14.8 68.1 16.0 70.5 15.4 C 69.9 15.2 69.9 15.2 70.3 14.9 C 71.3 14.8 74.2 14.0 72.6 14.6 C 72.8 14.7 74.6 14.1 74.3 14.0 C 75.2 13.8 75.4 13.8 75.4 13.9 C 77.9 13.3 78.2 13.1 77.6 12.9 C 78.1 12.6 78.5 12.9 79.9 12.5 C 79.9 12.5 79.9 12.5 79.9 12.5 Z M 5.9 51.3 C 5.9 50.3 5.7 52.3 5.5 53.2 C 5.7 52.1 5.9 52.5 6.2 51.4 C 6.0 51.8 6.0 51.7 6.2 50.9 C 6.1 50.7 5.6 52.4 5.9 51.3 C 5.9 51.3 5.9 51.3 5.9 51.3 Z M 40.4 87.6 C 41.2 88.1 45.6 89.6 48.0 90.5 C 47.7 90.0 41.9 88.4 41.3 87.8 C 40.0 87.3 41.9 88.2 40.4 87.6 C 40.4 87.6 40.4 87.6 40.4 87.6 Z M 58.7 17.2 C 58.2 17.4 58.5 17.3 58.7 17.3 C 58.6 17.4 57.5 17.7 56.7 17.9 C 57.9 17.8 56.5 18.2 56.8 18.4 C 56.2 18.6 55.9 18.7 55.8 18.8 C 55.6 18.4 52.6 20.0 55.9 19.1 C 55.2 19.0 55.5 19.0 56.8 18.5 C 58.4 18.2 59.5 17.7 60.1 17.8 C 61.0 17.5 61.4 17.3 62.7 16.9 C 63.0 17.1 64.3 16.8 63.4 17.4 C 65.7 16.8 64.0 16.7 66.0 16.1 C 67.9 15.8 65.1 16.6 65.5 16.7 C 66.0 16.6 65.9 16.7 66.1 16.7 C 66.8 16.5 66.7 16.3 66.1 16.5 C 66.2 16.4 68.1 15.7 67.7 16.1 C 68.8 15.7 65.8 15.8 64.3 16.4 C 63.4 16.7 63.3 16.2 64.2 16.1 C 63.8 15.9 62.2 16.9 62.5 16.3 C 61.8 16.5 61.1 16.7 60.4 16.9 C 60.5 16.9 60.9 16.8 60.9 16.9 C 60.3 17.1 59.5 17.3 58.8 17.5 C 59.4 17.2 59.4 17.1 58.7 17.2 C 58.7 17.2 58.7 17.2 58.7 17.2 Z M 30.8 83.2 C 32.5 84.1 33.0 84.2 34.4 84.8 C 33.9 84.4 30.1 82.6 30.8 83.2 C 30.8 83.2 30.8 83.2 30.8 83.2 Z M 90.1 11.5 C 90.0 11.4 88.9 11.6 88.9 11.5 C 90.7 11.1 88.6 11.3 90.0 10.7 C 87.6 11.3 86.9 12.0 90.2 11.6 C 92.5 11.2 87.8 11.9 90.1 11.5 C 90.1 11.5 90.1 11.5 90.1 11.5 Z M 83.0 12.5 C 81.5 12.9 85.2 12.4 86.0 12.3 C 86.0 12.4 86.0 12.5 86.0 12.6 C 88.0 11.8 85.3 12.2 87.0 11.4 C 84.7 11.7 83.7 11.8 81.7 12.3 C 81.9 12.3 82.3 12.2 82.3 12.2 C 83.8 11.9 82.8 12.4 81.2 12.6 C 81.7 12.6 83.1 12.4 84.1 12.2 C 83.8 12.2 83.5 12.2 83.5 12.1 C 84.8 11.8 84.4 12.1 85.3 12.0 C 85.3 12.1 83.0 12.7 83.0 12.5 C 83.0 12.5 83.0 12.5 83.0 12.5 Z M 207.8 9.3 C 206.6 9.2 209.1 9.9 208.9 10.2 C 210.2 10.4 210.6 10.4 211.4 10.5 C 211.0 10.2 209.6 10.0 209.0 9.8 C 209.3 9.5 210.9 10.1 211.5 10.0 C 212.3 9.7 208.3 9.7 207.8 9.3 C 207.8 9.3 207.8 9.3 207.8 9.3 Z M 27.7 29.6 C 27.0 30.0 27.4 29.9 27.7 29.7 C 27.7 29.9 26.6 30.4 26.5 30.4 C 25.6 30.9 27.1 30.2 26.0 30.9 C 25.9 31.1 27.7 29.9 27.8 29.8 C 29.2 29.0 28.2 29.9 28.7 29.8 C 29.9 29.1 29.3 29.1 31.2 28.3 C 30.0 28.7 29.0 29.1 27.7 29.6 C 27.7 29.6 27.7 29.6 27.7 29.6 Z M 94.2 10.3 C 94.5 10.2 92.9 10.9 91.3 11.0 C 89.2 11.3 92.6 11.0 90.7 11.3 C 92.3 11.1 94.2 10.6 96.7 10.2 C 97.3 10.0 93.3 10.7 95.5 10.2 C 95.4 10.2 94.8 10.3 94.8 10.3 C 94.4 10.4 94.3 10.4 94.2 10.3 C 94.2 10.3 94.2 10.3 94.2 10.3 Z M 91.9 11.3 C 92.0 11.3 92.6 11.2 92.6 11.2 C 93.3 11.1 93.4 11.3 92.6 11.4 C 93.6 11.5 93.5 11.0 95.6 10.9 C 94.7 10.8 94.2 10.7 96.2 10.6 C 97.7 10.2 92.6 11.0 91.9 11.3 C 91.9 11.3 91.9 11.3 91.9 11.3 Z M 187.7 7.4 C 187.9 7.6 189.3 7.6 190.3 7.7 C 189.0 7.8 183.9 7.3 183.2 7.1 C 182.7 7.1 182.1 7.1 181.9 7.0 C 182.0 7.1 180.5 7.1 181.3 7.2 C 181.2 7.3 180.0 7.2 180.0 7.3 C 178.1 7.2 180.6 7.2 180.0 7.0 C 177.7 7.1 178.2 6.9 175.5 6.8 C 175.9 7.0 179.0 7.1 178.7 7.4 C 180.8 7.3 183.1 7.6 184.4 7.9 C 182.5 7.4 190.0 7.8 193.4 8.2 C 193.3 8.3 194.5 8.4 195.9 8.6 C 196.9 9.0 196.6 8.4 194.7 8.4 C 194.8 8.2 197.3 8.6 198.4 8.7 C 197.2 8.4 197.9 8.3 197.2 8.2 C 194.8 8.0 197.0 8.2 196.5 8.4 C 195.9 8.3 195.3 8.3 194.6 8.2 C 198.0 8.1 189.8 7.7 192.8 7.9 C 190.2 7.7 190.2 7.5 187.7 7.4 C 187.7 7.4 187.7 7.4 187.7 7.4 Z M 126.9 7.0 C 126.4 7.0 124.4 7.3 124.3 7.1 C 121.7 7.5 124.0 7.5 121.1 7.8 C 121.3 7.8 122.4 7.7 122.4 7.8 C 123.5 7.7 124.6 7.5 124.3 7.3 C 125.6 7.2 126.0 7.1 126.9 7.0 C 126.6 7.2 126.1 7.3 124.9 7.3 C 124.8 7.5 125.2 7.6 126.9 7.5 C 127.6 7.3 127.1 7.1 126.9 7.0 C 126.9 7.0 126.9 7.0 126.9 7.0 Z M 120.5 7.7 C 120.1 7.7 119.8 7.7 119.8 7.5 C 118.9 7.4 119.5 7.9 118.5 8.0 C 117.8 8.0 118.0 7.9 117.9 7.8 C 116.8 7.9 115.9 8.0 115.4 8.0 C 113.7 8.3 117.4 8.0 117.9 8.1 C 119.2 8.0 118.7 7.8 120.5 7.7 C 120.5 7.7 120.5 7.7 120.5 7.7 Z M 101.6 9.4 C 101.3 9.2 100.6 9.7 99.8 9.7 C 100.4 9.9 102.2 9.5 101.0 10.0 C 102.9 9.8 103.0 9.8 104.8 9.5 C 106.0 9.6 104.8 9.3 102.9 9.7 C 103.1 9.5 104.0 9.4 104.1 9.3 C 105.3 9.6 108.4 8.5 106.6 9.1 C 106.0 9.1 105.6 9.0 105.3 9.0 C 104.9 9.2 100.7 9.6 101.6 9.4 C 101.6 9.4 101.6 9.4 101.6 9.4 Z M 43.3 23.2 C 44.9 22.5 45.8 22.2 46.6 21.9 C 47.5 21.6 48.8 21.2 49.8 20.8 C 49.9 20.9 49.7 21.0 49.3 21.2 C 49.8 21.1 50.4 20.9 51.3 20.5 C 51.2 20.5 50.8 20.6 50.8 20.7 C 49.1 21.0 50.5 20.6 50.7 20.3 C 48.7 20.8 45.5 22.3 44.0 22.6 C 42.8 23.1 44.2 22.6 43.3 23.2 C 43.3 23.2 43.3 23.2 43.3 23.2 Z M 301.1 61.9 C 301.1 62.1 300.8 62.8 301.0 62.7 C 301.3 62.2 301.3 61.7 301.5 61.2 C 301.1 62.2 300.8 61.9 300.2 63.2 C 300.5 62.9 300.7 63.1 301.1 61.9 C 301.1 61.9 301.1 61.9 301.1 61.9 Z M 107.8 8.8 C 107.9 8.9 108.0 9.0 107.2 9.1 C 107.0 9.3 109.0 9.0 109.1 9.1 C 109.8 9.0 109.5 8.9 110.4 8.8 C 110.0 8.7 108.4 8.9 109.1 8.6 C 109.6 8.6 109.7 8.6 109.7 8.6 C 111.0 8.4 109.0 8.5 107.8 8.8 C 107.8 8.8 107.8 8.8 107.8 8.8 Z M 213.9 10.4 C 213.0 10.3 213.9 10.5 214.5 10.7 C 212.7 10.6 215.5 11.2 215.6 11.5 C 214.9 11.1 212.4 10.9 212.0 10.8 C 211.3 10.7 212.1 11.1 210.1 10.8 C 210.3 11.1 212.5 11.2 212.0 10.9 C 212.5 11.3 214.6 11.3 214.4 11.5 C 217.1 12.0 217.7 11.9 218.0 11.7 C 215.4 11.4 216.8 11.2 214.5 10.9 C 214.5 10.8 215.2 10.9 215.7 11.0 C 215.5 10.8 214.5 10.6 213.9 10.4 C 213.9 10.4 213.9 10.4 213.9 10.4 Z M 147.6 6.3 C 146.1 6.3 146.2 6.5 146.2 6.7 C 146.8 6.7 147.7 6.6 148.8 6.6 C 148.6 6.5 146.8 6.6 147.6 6.3 C 147.6 6.3 147.6 6.3 147.6 6.3 Z M 204.0 9.4 C 203.9 9.3 203.4 9.3 203.4 9.4 C 201.8 9.2 201.5 9.0 201.0 8.8 C 200.1 8.8 200.4 9.0 200.3 9.1 C 201.8 9.1 201.5 9.3 203.4 9.5 C 203.3 9.4 203.5 9.4 204.0 9.4 C 204.0 9.4 204.0 9.4 204.0 9.4 Z M 161.2 6.5 C 160.5 6.5 160.8 6.5 161.2 6.6 C 160.3 6.8 157.7 6.5 156.6 6.7 C 156.5 6.9 159.8 6.8 156.0 6.9 C 156.7 7.1 160.1 7.0 161.8 7.0 C 161.5 7.3 159.1 7.2 159.2 7.5 C 161.3 7.4 163.5 7.3 163.8 6.9 C 160.9 6.8 161.9 6.6 161.2 6.5 C 161.2 6.5 161.2 6.5 161.2 6.5 Z M 164.4 6.7 C 164.2 6.6 163.6 6.7 162.5 6.7 C 164.1 7.0 165.1 6.9 168.4 7.0 C 168.4 7.0 168.4 6.9 168.4 6.9 C 169.0 6.9 169.7 6.9 170.3 6.9 C 167.5 6.6 166.8 6.7 163.8 6.8 C 163.7 6.7 164.1 6.7 164.4 6.7 C 164.4 6.7 164.4 6.7 164.4 6.7 Z M 80.1 13.2 C 80.9 13.2 81.6 13.2 83.0 13.0 C 82.9 12.8 82.0 12.8 80.1 13.2 C 80.1 13.2 80.1 13.2 80.1 13.2 Z M 206.5 9.9 C 208.2 10.0 204.8 9.7 205.8 10.1 C 207.2 10.3 208.6 10.6 208.8 10.8 C 211.3 10.8 206.1 10.2 206.5 9.9 C 206.5 9.9 206.5 9.9 206.5 9.9 Z M 195.2 9.2 C 194.5 9.1 194.5 8.8 195.2 9.1 C 197.0 9.2 193.7 8.7 196.5 9.0 C 195.3 8.8 192.7 8.4 191.4 8.5 C 191.5 8.7 193.9 8.8 193.9 9.0 C 194.1 9.1 193.7 9.1 193.3 9.0 C 193.6 9.2 194.1 9.1 195.2 9.2 C 195.2 9.2 195.2 9.2 195.2 9.2 Z M 185.7 8.0 C 186.8 8.2 188.0 8.4 190.2 8.6 C 188.8 8.3 188.0 8.0 185.7 8.0 C 185.7 8.0 185.7 8.0 185.7 8.0 Z M 296.3 42.8 C 295.5 41.9 296.0 42.8 296.1 43.0 C 296.8 43.9 296.9 43.7 297.6 44.7 C 297.6 44.2 296.6 43.5 296.3 42.8 C 296.3 42.8 296.3 42.8 296.3 42.8 Z M 298.6 46.1 C 298.5 46.3 299.3 47.5 299.2 47.6 C 300.0 48.1 299.8 49.5 300.1 49.4 C 300.2 49.6 300.2 49.9 300.4 50.4 C 300.5 49.3 299.3 47.1 298.6 46.1 C 298.6 46.1 298.6 46.1 298.6 46.1 Z M 174.8 7.9 C 173.1 7.7 175.3 8.2 173.5 8.1 C 173.4 8.2 176.8 8.4 174.7 8.4 C 177.4 8.7 174.6 7.9 174.8 7.9 C 174.8 7.9 174.8 7.9 174.8 7.9 Z M 143.0 7.8 C 143.2 7.6 140.8 7.8 139.8 7.8 C 139.8 7.9 140.6 7.8 141.1 7.8 C 140.8 7.9 140.5 8.0 139.8 8.0 C 140.3 8.2 142.1 7.8 143.0 7.8 C 143.0 7.8 143.0 7.8 143.0 7.8 Z M 178.3 3.9 C 179.3 4.1 180.7 4.4 181.5 4.1 C 182.6 4.4 180.7 4.3 182.1 4.6 C 183.9 4.6 183.0 4.7 186.0 4.8 C 185.4 5.1 187.5 5.2 187.9 5.4 C 186.7 5.4 185.2 5.0 184.6 5.2 C 185.6 5.3 185.0 5.5 184.6 5.3 C 182.7 5.0 187.0 5.1 184.7 4.8 C 183.9 5.1 180.5 4.3 178.2 4.2 C 179.1 4.0 176.5 3.8 178.3 3.9 C 178.3 3.9 178.3 3.9 178.3 3.9 Z M 189.8 5.1 C 191.4 5.2 192.1 5.8 191.7 5.8 C 191.7 5.7 189.9 5.5 189.8 5.6 C 190.2 5.6 190.6 5.7 190.4 5.7 C 187.6 5.5 188.6 5.3 187.9 5.1 C 189.5 5.1 189.9 5.3 190.5 5.3 C 190.1 5.2 189.7 5.2 189.8 5.1 C 189.8 5.1 189.8 5.1 189.8 5.1 Z M 222.1 13.2 C 221.8 13.0 221.4 13.1 220.8 13.0 C 220.8 12.7 217.7 12.6 217.3 12.4 C 218.0 12.4 219.6 12.6 220.3 12.6 C 219.5 12.5 219.3 12.4 218.5 12.3 C 218.7 12.1 220.5 12.4 221.0 12.3 C 221.1 12.5 221.9 12.5 222.2 12.6 C 219.8 12.4 223.4 13.4 222.1 13.2 C 222.1 13.2 222.1 13.2 222.1 13.2 Z M 159.9 7.7 C 159.7 8.0 162.4 8.6 159.9 8.9 C 159.4 8.6 159.0 8.4 159.2 8.1 C 157.7 8.3 157.0 8.0 156.0 8.3 C 153.0 7.5 158.3 8.3 159.9 7.7 C 159.9 7.7 159.9 7.7 159.9 7.7 Z M 149.5 8.0 C 150.1 7.7 148.6 7.8 148.9 7.6 C 150.1 7.7 154.2 7.5 152.8 7.6 C 151.5 7.7 151.5 7.9 149.5 8.0 C 149.5 8.0 149.5 8.0 149.5 8.0 Z M 75.3 97.4 C 73.4 97.2 72.6 96.6 73.7 96.7 C 73.2 96.8 76.0 97.3 75.3 97.4 C 75.3 97.4 75.3 97.4 75.3 97.4 Z M 6.8 69.3 C 7.6 70.7 8.3 71.3 8.2 71.6 C 7.2 70.5 7.4 70.5 6.6 69.4 C 6.5 69.4 6.0 68.8 6.0 68.6 C 6.4 69.2 6.4 69.0 6.8 69.3 C 6.8 69.3 6.8 69.3 6.8 69.3 Z M 109.9 4.5 C 109.7 4.4 109.0 4.4 109.3 4.3 C 111.2 4.2 113.4 3.8 115.0 3.5 C 115.0 3.6 115.0 3.7 115.0 3.8 C 111.9 4.0 111.1 4.2 109.9 4.5 C 109.9 4.5 109.9 4.5 109.9 4.5 Z M 106.0 4.4 C 105.8 4.6 106.8 4.8 105.5 4.9 C 105.5 4.7 103.1 4.8 104.2 4.6 C 104.6 4.7 105.2 4.6 106.0 4.4 C 106.0 4.4 106.0 4.4 106.0 4.4 Z M 214.3 7.2 C 215.8 7.4 213.7 6.9 213.8 6.8 C 214.9 7.0 216.3 7.3 216.8 7.4 C 215.7 7.3 214.9 7.5 214.3 7.2 C 214.3 7.2 214.3 7.2 214.3 7.2 Z M 191.1 5.1 C 187.8 4.9 189.3 4.6 186.0 4.3 C 187.3 4.2 190.3 4.5 191.2 4.3 C 191.0 4.5 191.8 4.6 191.8 4.7 C 190.6 4.6 190.4 4.5 189.2 4.4 C 189.6 4.7 189.6 4.6 189.2 4.8 C 190.1 4.9 190.6 4.9 191.1 4.9 C 190.9 5.0 192.0 5.2 191.1 5.1 C 191.1 5.1 191.1 5.1 191.1 5.1 Z M 213.7 7.8 C 214.9 7.9 215.9 8.4 214.9 8.2 C 214.7 8.0 213.8 8.1 213.6 7.9 C 215.4 8.1 212.2 7.6 213.1 7.5 C 214.2 7.7 214.5 7.7 214.3 7.5 C 215.0 7.6 216.1 7.7 216.1 7.8 C 215.7 7.8 214.9 7.7 214.9 7.7 C 215.3 7.8 215.7 7.9 215.5 7.9 C 214.5 7.7 214.0 7.7 213.7 7.8 C 213.7 7.8 213.7 7.8 213.7 7.8 Z M 205.0 6.6 C 206.7 6.9 206.9 7.1 207.5 7.4 C 205.2 7.0 204.8 6.6 203.2 6.3 C 205.0 6.6 207.0 6.5 207.5 6.7 C 206.7 6.7 205.2 6.5 205.0 6.6 C 205.0 6.6 205.0 6.6 205.0 6.6 Z M 237.7 98.1 C 236.4 98.3 235.2 98.4 233.7 98.6 C 233.2 99.0 236.1 98.8 234.9 98.9 C 233.4 99.3 234.4 98.7 233.1 99.0 C 234.4 99.1 227.7 100.4 227.3 100.1 C 228.4 99.9 228.7 99.8 228.4 99.7 C 231.2 99.2 232.2 98.8 234.2 98.3 C 235.7 98.3 239.9 97.4 242.1 96.5 C 243.6 96.6 246.1 95.5 248.2 95.3 C 248.7 95.0 246.5 95.5 248.1 95.0 C 249.2 95.0 248.4 95.3 249.8 95.0 C 249.9 94.9 249.5 94.8 250.3 94.6 C 250.2 94.8 251.1 94.5 251.4 94.5 C 248.5 95.3 251.7 94.8 249.4 95.5 C 248.4 95.6 250.3 94.8 247.7 95.5 C 246.7 95.9 245.9 96.2 246.1 96.4 C 245.4 96.5 245.0 96.7 244.5 96.9 C 245.4 96.3 240.7 97.9 242.8 97.0 C 243.0 97.0 244.5 96.6 245.5 96.3 C 244.5 96.3 243.4 96.7 241.7 97.2 C 240.9 97.2 241.9 96.9 241.0 97.0 C 239.7 97.5 241.6 97.3 240.6 97.6 C 241.1 97.6 241.7 97.4 241.7 97.5 C 239.3 97.8 238.5 98.3 237.2 98.5 C 238.0 98.2 235.8 98.6 237.7 98.1 C 237.7 98.1 237.7 98.1 237.7 98.1 Z M 257.1 92.6 C 257.6 92.5 258.1 92.3 258.6 92.1 C 258.8 92.3 256.8 93.0 258.2 92.8 C 256.0 93.4 258.2 92.4 257.1 92.6 C 257.1 92.6 257.1 92.6 257.1 92.6 Z M 246.3 94.8 C 245.5 94.8 246.1 95.2 245.3 95.4 C 246.6 95.0 247.8 94.6 248.0 94.8 C 246.5 95.2 245.8 95.4 244.2 95.8 C 245.7 95.1 242.5 96.0 241.9 95.9 C 243.1 95.5 244.1 95.1 245.7 94.7 C 245.5 94.9 247.9 94.4 246.3 94.8 C 246.3 94.8 246.3 94.8 246.3 94.8 Z M 250.5 93.3 C 250.9 93.4 253.1 92.6 252.7 93.0 C 251.3 93.4 250.8 93.6 251.2 93.7 C 250.2 94.0 250.0 94.0 249.1 94.2 C 248.4 94.1 250.1 93.7 250.5 93.4 C 250.2 93.5 249.9 93.5 250.5 93.3 C 250.5 93.3 250.5 93.3 250.5 93.3 Z M 294.7 69.9 C 295.2 69.8 293.6 71.1 293.2 71.4 C 293.8 71.1 293.7 71.4 292.7 72.4 C 292.9 71.8 291.4 73.2 290.2 73.7 C 290.1 74.1 291.5 73.1 289.9 74.4 C 288.6 75.3 287.6 76.2 285.4 77.7 C 284.8 77.7 285.7 77.1 286.2 76.6 C 284.8 77.6 285.1 77.2 283.9 77.9 C 284.2 77.9 283.3 78.5 282.8 78.6 C 284.9 77.3 279.9 80.0 282.1 78.6 C 282.2 78.6 282.7 78.3 283.2 77.9 C 282.8 78.6 285.5 76.8 286.2 76.6 C 286.9 75.4 289.7 73.8 292.2 71.8 C 292.5 71.8 291.8 72.5 292.4 72.0 C 292.4 71.8 293.2 71.2 293.5 70.8 C 293.5 70.9 293.9 70.7 294.4 70.3 C 294.4 70.2 294.4 70.1 294.7 69.9 C 294.7 69.9 294.7 69.9 294.7 69.9 Z M 134.6 103.6 C 134.7 103.1 130.5 103.2 129.4 103.2 C 129.6 102.8 136.9 103.3 134.6 103.6 C 134.6 103.6 134.6 103.6 134.6 103.6 Z M 159.9 103.6 C 158.8 103.7 159.5 103.9 158.6 103.9 C 158.5 103.7 156.1 104.2 156.0 103.9 C 157.2 103.7 158.0 103.7 159.9 103.6 C 159.9 103.6 159.9 103.6 159.9 103.6 Z M 183.2 102.8 C 181.3 103.0 184.2 102.9 183.8 103.0 C 182.2 103.1 180.5 103.2 180.6 103.0 C 182.0 103.0 183.0 102.6 183.2 102.8 C 183.2 102.8 183.2 102.8 183.2 102.8 Z M 148.2 103.4 C 146.6 103.3 149.2 103.0 149.5 103.2 C 147.8 103.2 150.6 103.4 152.1 103.4 C 152.0 103.7 151.4 103.6 152.1 103.8 C 149.8 103.9 151.7 103.6 150.1 103.6 C 149.0 103.7 150.2 103.7 150.1 103.9 C 149.5 103.9 148.8 103.9 148.2 103.9 C 148.2 103.7 148.2 103.6 148.2 103.5 C 149.0 103.5 149.7 103.5 149.5 103.3 C 148.8 103.3 148.7 103.4 148.2 103.4 C 148.2 103.4 148.2 103.4 148.2 103.4 Z M 263.4 87.1 C 262.1 87.6 263.3 87.3 264.3 86.9 C 264.5 86.7 265.2 86.0 266.7 85.7 C 263.6 87.1 267.7 85.7 266.0 86.4 C 265.3 86.5 263.4 87.5 261.8 88.0 C 261.1 88.1 262.6 87.1 263.4 87.1 C 263.4 87.1 263.4 87.1 263.4 87.1 Z M 269.2 85.0 C 269.0 85.0 268.4 85.2 267.5 85.6 C 268.4 85.0 267.1 85.5 268.2 85.0 C 268.1 85.1 272.2 83.5 269.8 84.6 C 267.7 85.3 270.5 84.5 271.4 84.1 C 270.4 84.5 268.6 85.5 268.3 85.4 C 268.9 85.2 269.3 85.0 269.2 85.0 C 269.2 85.0 269.2 85.0 269.2 85.0 Z M 299.3 62.4 C 299.3 62.2 299.0 62.8 298.8 63.0 C 299.7 61.2 300.2 59.8 300.4 58.9 C 300.3 59.7 300.4 59.8 300.7 59.3 C 300.3 60.2 300.4 60.4 300.1 60.7 C 300.2 59.9 299.9 61.3 299.3 62.4 C 299.3 62.4 299.3 62.4 299.3 62.4 Z M 299.3 62.4 " fill="#000000"></path><image xlink:href="../../1BE7A03E-C66D-4413-94C1-F85C6D2757AE/assets/B8C5E90422A339E8CC6D71927AC6083F.png" width="70.00" height="38.00" transform="matrix(1.00, 0.00, -0.00, -1.00, 120.0, 70.0)"></image><g><clipPath id="clip-230"><path d="M 5.3 5.4 L 303.5 5.4 L 303.5 105.4 L 5.3 105.4 Z M 5.3 5.4 "></path></clipPath><g clip-path="url(#clip-230)"><text xml:space="preserve" font-family="Chalkduster" font-size="32.0" fill="#000000" transform="matrix(1.00, 0.00, -0.00, -1.00, 124.0, 41.0)">S</text><text xml:space="preserve" font-family="Chalkduster" font-size="32.0" fill="#000000" transform="matrix(1.00, 0.00, -0.00, -1.00, 139.9, 41.0)">O</text><text xml:space="preserve" font-family="Chalkduster" font-size="32.0" fill="#000000" transform="matrix(1.00, 0.00, -0.00, -1.00, 163.5, 41.0)">B</text></g></g></g></svg>