<?xml version="1.0" encoding="UTF-8" standalone="no"?><svg xmlns="http://www.w3.org/2000/svg" xmlns:xlink="http://www.w3.org/1999/xlink" clip-rule="evenodd" stroke-miterlimit="4.00" viewBox="0 0 309 124"><desc>SVG generated by Keynote</desc><defs></defs><g transform="matrix(1.00, 0.00, -0.00, -1.00, 0.0, 124.0)"><g><clipPath id="clip-299"><path d="M 259.9 101.6 C 318.1 79.6 318.1 44.0 259.9 22.1 C 201.6 0.1 107.2 0.1 49.0 22.1 C -9.2 44.0 -9.2 79.6 49.0 101.6 C 107.2 123.5 201.6 123.5 259.9 101.6 Z M 259.9 101.6 "></path></clipPath><g clip-path="url(#clip-299)"><image xlink:href="../../CEFA4209-80C9-472B-8D2B-058B96531B72/assets/59DBD66EA15A3D40E065F836EF2595FD.jpeg" width="400.00" height="400.00" transform="matrix(1.00, 0.00, -0.00, -1.00, 5.4, 118.0)"></image></g></g><path d="M 76.7 9.8 C 76.2 10.0 75.7 10.2 74.9 10.3 C 75.3 10.3 75.6 10.3 75.5 10.4 C 76.2 10.2 77.1 10.0 78.5 9.7 C 78.5 9.6 77.8 9.8 77.3 9.9 C 76.7 10.0 76.8 9.9 76.7 9.8 C 76.7 9.8 76.7 9.8 76.7 9.8 Z M 64.7 110.1 C 63.5 109.8 64.7 110.4 65.2 110.5 C 65.2 110.5 65.3 110.5 65.7 110.6 C 65.8 110.8 64.8 110.6 64.0 110.5 C 60.9 109.5 63.3 109.7 64.7 110.1 C 64.7 110.1 64.7 110.1 64.7 110.1 Z M 235.5 112.2 C 238.1 111.6 235.3 112.0 234.9 112.1 C 236.1 111.7 235.0 111.6 236.5 111.2 C 236.9 111.2 237.4 111.2 237.8 111.2 C 237.1 111.4 236.1 111.6 236.0 111.7 C 236.9 111.5 238.2 111.1 238.4 111.2 C 236.4 111.8 238.1 111.5 238.5 111.6 C 236.7 112.0 236.2 112.4 235.5 112.2 C 235.5 112.2 235.5 112.2 235.5 112.2 Z M 280.1 28.5 C 281.0 29.0 281.7 29.4 281.4 29.4 C 280.5 28.9 279.9 28.5 279.4 28.2 C 279.3 28.2 279.5 28.4 278.7 28.0 C 277.8 27.3 278.4 27.3 279.0 27.4 C 278.9 27.7 282.0 29.3 280.1 28.5 C 280.1 28.5 280.1 28.5 280.1 28.5 Z M 209.7 7.3 C 207.3 6.8 209.5 7.6 207.2 7.2 C 207.2 6.9 206.9 6.6 208.5 6.9 C 208.6 7.0 209.5 7.1 209.7 7.3 C 209.7 7.3 209.7 7.3 209.7 7.3 Z M 163.4 119.2 C 163.4 119.4 165.2 119.3 164.8 119.5 C 163.9 119.5 163.0 119.6 162.1 119.6 C 161.9 119.4 162.2 119.3 163.4 119.2 C 163.4 119.2 163.4 119.2 163.4 119.2 Z M 251.8 105.3 C 254.3 104.7 256.8 103.5 256.1 103.9 C 257.1 103.9 254.6 105.2 254.6 104.9 C 254.3 104.7 249.9 105.9 251.8 105.3 C 251.8 105.3 251.8 105.3 251.8 105.3 Z M 79.0 109.4 C 81.7 110.3 81.3 109.5 83.1 110.2 C 82.5 110.0 82.1 110.1 81.9 110.1 C 82.4 110.2 83.1 110.3 83.0 110.4 C 81.7 110.2 80.1 109.9 79.0 109.4 C 79.0 109.4 79.0 109.4 79.0 109.4 Z M 119.5 3.8 C 120.0 3.8 120.3 3.7 120.2 3.6 C 122.2 3.5 122.2 3.3 123.5 3.3 C 123.6 3.6 121.8 3.7 120.2 3.8 C 120.2 3.8 119.6 3.9 119.5 3.8 C 119.5 3.8 119.5 3.8 119.5 3.8 Z M 178.0 3.9 C 178.0 3.7 176.8 3.5 178.7 3.6 C 180.9 4.0 178.9 4.1 176.7 4.1 C 176.7 4.2 176.6 4.3 176.6 4.4 C 177.5 4.5 178.1 4.5 178.6 4.6 C 179.0 4.3 180.5 5.0 183.9 5.0 C 182.3 5.1 184.0 5.5 181.9 5.2 C 182.4 5.5 181.0 5.4 181.2 5.6 C 182.1 5.5 184.4 5.7 183.9 5.4 C 185.0 5.4 185.9 5.5 186.5 5.7 C 187.3 6.0 184.4 5.5 185.2 5.9 C 185.8 5.9 185.9 6.0 186.4 6.1 C 186.6 6.0 186.3 5.8 187.1 5.9 C 189.2 6.1 186.7 6.1 189.7 6.4 C 189.9 6.3 189.0 6.2 189.1 6.0 C 190.4 6.0 190.3 6.2 191.7 6.2 C 191.9 6.4 190.7 6.3 191.6 6.4 C 192.5 6.2 194.3 6.9 196.2 6.8 C 195.0 6.2 196.5 7.0 198.2 6.6 C 198.5 6.8 197.3 7.0 198.8 7.2 C 198.3 6.5 204.1 7.4 199.5 6.3 C 201.9 6.6 202.8 6.2 200.9 5.9 C 205.1 6.6 203.8 6.1 205.4 6.3 C 207.0 6.5 204.5 6.3 205.3 6.6 C 203.6 6.3 204.0 6.5 202.8 6.2 C 202.8 6.3 202.5 6.4 202.1 6.4 C 203.8 6.4 205.8 7.1 204.6 7.2 C 203.7 7.0 204.5 6.9 203.4 6.7 C 203.8 7.1 202.1 6.5 202.0 6.7 C 202.8 7.1 200.3 7.1 202.6 7.4 C 202.7 7.3 202.7 7.2 202.7 7.0 C 203.3 7.1 203.9 7.2 204.6 7.3 C 205.1 7.6 204.6 7.7 205.2 7.8 C 206.2 8.0 206.8 8.0 207.1 8.0 C 205.8 7.7 204.3 7.3 206.5 7.5 C 205.6 7.9 209.5 8.1 207.7 8.1 C 210.0 8.6 211.2 8.4 211.4 8.8 C 212.7 8.9 211.9 8.6 213.4 8.8 C 215.6 9.4 215.3 9.0 218.3 9.7 C 218.7 9.4 218.6 9.9 219.5 10.0 C 219.6 9.9 219.6 9.8 219.6 9.6 C 220.6 10.1 223.1 10.6 225.6 10.9 C 226.3 11.1 225.8 11.2 227.4 11.5 C 229.2 11.5 231.2 12.4 233.4 12.5 C 233.5 12.7 234.9 13.1 235.7 13.1 C 236.0 13.3 234.9 13.4 236.2 13.7 C 237.1 13.7 235.6 13.2 237.4 13.6 C 237.2 13.8 239.2 13.8 239.1 14.1 C 238.6 14.0 237.9 13.9 237.3 13.9 C 238.1 14.1 237.9 14.2 238.5 14.3 C 238.5 14.0 239.8 14.6 240.2 14.8 C 240.2 14.6 240.4 14.6 240.8 14.6 C 241.8 14.9 242.6 15.1 243.1 15.2 C 244.4 15.6 242.4 15.2 243.6 15.5 C 244.4 15.1 245.5 16.1 248.1 16.5 C 248.7 16.9 249.7 17.3 251.3 17.9 C 251.5 17.7 249.8 17.3 249.8 17.1 C 252.1 17.9 249.4 16.8 250.9 17.3 C 254.3 18.5 256.4 19.3 259.8 20.7 C 259.8 20.5 263.9 21.9 263.8 22.0 C 262.6 21.6 266.0 23.2 267.7 24.0 C 268.3 23.8 271.1 24.7 271.3 24.6 C 271.8 25.0 271.7 25.0 271.8 25.4 C 274.6 26.9 276.1 27.3 277.5 28.5 C 277.5 28.2 278.7 28.8 279.7 29.3 C 279.4 29.4 278.7 29.2 278.1 29.0 C 279.4 29.7 279.6 29.9 280.7 30.6 C 282.2 30.6 283.5 32.5 284.7 32.5 C 286.4 33.6 286.0 33.6 287.4 34.6 C 287.5 34.5 287.7 34.5 288.2 34.8 C 287.2 34.1 286.3 33.8 285.9 33.2 C 288.2 34.7 281.9 29.7 285.9 32.0 C 285.9 32.2 285.5 32.1 286.3 32.7 C 288.4 34.0 287.3 33.0 286.4 32.4 C 287.9 33.3 289.3 34.4 288.4 33.3 C 291.5 35.5 289.4 34.3 290.4 35.2 C 295.8 39.1 301.2 44.6 303.8 51.0 C 304.2 51.1 305.3 54.6 305.4 55.8 C 306.1 57.6 306.3 59.5 306.1 60.1 C 306.4 60.4 305.9 62.3 306.2 62.5 C 306.2 61.7 306.3 61.2 306.3 62.0 C 306.2 64.7 305.2 68.7 304.9 70.3 C 304.2 71.1 303.6 72.8 303.1 74.0 C 302.9 74.1 303.3 73.2 302.9 73.9 C 303.0 74.2 301.7 76.6 301.2 77.1 C 301.7 76.4 301.9 75.5 301.2 76.5 C 301.3 76.6 300.5 77.8 300.9 77.6 C 299.7 79.0 299.2 80.0 298.0 81.1 C 298.9 80.1 299.2 79.4 299.2 79.1 C 298.7 80.1 298.2 80.8 297.4 81.3 C 297.8 81.4 296.5 82.6 295.2 84.1 C 294.7 84.4 294.3 84.6 293.1 85.6 C 292.7 86.3 295.2 84.1 293.9 85.4 C 293.8 85.3 292.4 86.4 292.9 86.3 C 291.2 87.6 290.3 88.5 288.7 89.5 C 290.6 88.1 289.0 88.9 288.5 89.2 C 288.1 89.5 287.4 90.0 287.4 90.1 C 287.5 90.1 288.5 89.4 288.6 89.4 C 287.2 90.3 287.0 90.9 286.4 91.1 C 287.0 90.6 287.1 90.4 286.3 90.9 C 286.4 91.4 281.8 93.9 283.3 92.8 C 283.3 92.9 285.0 91.8 285.1 91.6 C 284.6 91.8 282.1 93.6 282.5 93.0 C 284.0 92.1 284.0 92.3 285.6 91.1 C 285.7 90.9 286.6 90.2 287.2 89.7 C 284.6 91.5 284.1 92.1 283.6 92.0 C 282.4 92.8 283.3 92.6 281.2 93.8 C 278.2 95.5 280.5 93.8 279.7 94.2 C 277.1 95.8 278.1 95.7 279.4 95.2 C 277.2 96.4 276.6 96.9 273.7 98.3 C 273.8 98.1 274.1 97.8 275.1 97.2 C 275.2 97.2 277.6 96.2 277.3 96.2 C 276.9 96.0 275.0 96.8 271.9 98.2 C 272.8 98.2 272.8 98.0 269.6 99.5 C 270.3 99.5 268.1 100.1 268.1 100.3 C 268.3 100.3 269.4 99.8 270.5 99.3 C 270.5 99.5 270.2 99.8 269.1 100.3 C 268.4 100.5 267.9 100.9 265.8 101.6 C 265.6 101.5 267.0 100.9 267.3 100.6 C 266.2 101.1 266.0 101.3 264.8 101.8 C 263.8 102.0 263.7 101.6 263.7 101.3 C 265.0 100.7 267.0 99.9 265.3 100.4 C 270.1 98.4 265.2 100.8 267.0 100.1 C 268.9 98.9 268.0 99.8 271.0 98.4 C 271.9 98.0 272.1 97.8 272.5 97.5 C 272.2 97.6 270.4 98.2 272.3 97.2 C 272.8 97.2 273.9 96.8 275.4 96.1 C 275.3 96.0 272.3 97.4 275.3 95.9 C 276.7 95.1 275.6 96.1 277.5 95.0 C 277.5 95.0 278.0 94.7 278.1 94.5 C 275.4 96.1 278.6 94.1 276.6 95.0 C 279.0 93.6 277.2 95.0 278.7 94.1 C 278.7 93.9 281.3 92.7 281.3 92.4 C 280.4 93.1 278.4 94.2 278.6 93.8 C 280.4 92.9 287.5 88.0 285.0 90.2 C 285.9 89.4 290.4 85.6 290.1 86.0 C 288.8 87.0 289.0 87.1 288.8 87.4 C 291.3 85.2 292.6 84.3 294.6 81.8 C 292.1 84.3 293.7 82.1 292.0 83.4 C 291.4 84.0 290.3 84.9 290.2 85.1 C 290.7 85.0 291.7 84.0 292.1 83.5 C 292.2 83.6 292.4 83.8 292.5 83.9 C 289.4 86.4 287.6 88.0 285.9 89.1 C 287.3 88.0 282.8 90.7 284.5 89.5 C 285.3 89.2 287.1 88.0 288.5 87.0 C 288.5 86.9 288.4 86.8 288.4 86.8 C 289.0 86.3 289.8 85.7 289.8 85.6 C 288.0 87.0 286.8 87.6 285.6 88.7 C 285.6 88.7 285.5 88.6 285.5 88.6 C 285.2 88.8 284.8 89.0 284.9 88.9 C 285.6 88.4 286.5 87.8 286.5 87.6 C 285.1 88.6 284.7 88.6 282.9 89.7 C 283.2 89.2 280.8 90.4 283.2 88.7 C 283.7 88.7 285.1 87.8 285.1 88.0 C 285.8 87.6 287.1 86.5 287.7 86.0 C 287.0 86.3 285.6 87.2 285.3 87.1 C 286.4 86.3 287.2 85.6 288.0 85.3 C 285.9 87.0 289.2 84.5 290.2 84.1 C 289.9 84.2 289.4 84.5 289.0 84.6 C 290.6 83.3 291.4 82.9 291.2 82.5 C 292.9 80.9 292.7 81.4 293.8 80.3 C 292.8 80.8 294.4 79.4 293.4 79.9 C 295.2 78.1 294.2 79.6 294.8 79.0 C 295.3 78.4 295.3 78.2 295.7 77.6 C 296.5 76.9 297.8 75.2 298.2 75.1 C 298.7 74.3 298.9 74.3 299.3 73.5 C 299.3 73.3 299.4 73.0 299.5 72.6 C 299.7 72.5 300.1 72.0 300.0 71.8 C 298.6 73.7 299.0 73.1 297.3 75.1 C 297.3 75.4 297.1 75.7 297.5 75.3 C 296.5 76.8 296.1 77.1 294.9 78.4 C 294.7 78.4 294.2 78.5 293.3 79.8 C 293.3 79.3 293.0 79.6 293.4 79.1 C 294.0 78.6 294.9 77.8 295.6 77.0 C 295.6 76.8 295.4 76.9 295.8 76.4 C 296.2 76.1 296.7 75.5 297.0 74.9 C 297.1 74.9 297.0 75.2 296.9 75.4 C 298.4 73.5 297.6 74.0 298.6 72.6 C 298.3 72.8 297.8 73.7 298.1 72.8 C 298.8 71.5 299.1 71.2 299.5 70.6 C 299.5 70.4 299.3 70.5 299.5 70.1 C 300.1 69.2 299.0 72.4 300.1 70.8 C 299.9 70.6 300.6 69.0 300.9 68.8 C 300.9 69.4 300.2 70.3 300.3 70.4 C 301.7 67.4 300.9 70.5 301.9 67.3 C 301.8 67.3 301.7 67.3 301.6 67.3 C 301.3 68.5 301.1 68.5 300.9 68.4 C 300.5 69.4 300.0 69.7 299.8 70.7 C 299.5 70.2 300.2 69.8 300.6 68.7 C 300.3 68.7 299.9 69.6 299.7 69.7 C 300.9 67.3 300.7 66.7 301.4 64.3 C 301.0 64.9 301.5 63.0 301.3 63.1 C 301.2 65.2 300.5 64.3 300.4 64.6 C 300.2 65.9 300.8 65.4 300.7 66.2 C 300.4 66.5 300.3 66.3 300.0 66.1 C 300.4 64.9 300.3 65.1 300.3 64.2 C 300.6 63.4 301.1 62.8 301.1 63.9 C 301.1 63.7 301.0 62.1 301.2 62.0 C 301.2 63.5 301.4 61.8 301.4 62.7 C 301.7 61.6 301.2 59.5 301.2 58.1 C 301.1 58.2 300.9 57.7 300.8 57.8 C 301.3 59.1 300.8 59.5 300.9 60.8 C 300.8 60.3 300.7 60.6 300.6 60.9 C 300.7 59.5 300.4 58.8 300.4 57.8 C 300.3 57.9 300.3 57.9 300.2 57.9 C 300.0 56.2 300.0 56.5 299.4 55.3 C 299.3 54.8 299.9 55.3 300.2 55.4 C 299.9 54.8 299.1 52.6 299.4 54.0 C 298.8 52.7 299.3 52.8 298.5 51.5 C 298.3 51.6 299.0 52.8 298.4 52.5 C 297.8 51.3 298.4 51.9 297.7 51.0 C 297.8 50.8 298.0 50.7 297.3 49.6 C 297.6 50.5 297.2 49.6 296.8 49.3 C 297.1 49.8 297.3 50.3 297.4 50.6 C 296.3 48.6 296.0 48.3 294.7 46.8 C 295.4 47.1 294.7 46.2 295.7 47.2 C 294.8 46.3 293.9 44.9 293.3 44.5 C 293.8 45.1 294.7 46.1 294.9 46.6 C 292.3 43.5 290.3 42.2 287.2 39.3 C 287.8 39.7 288.5 40.4 288.7 40.4 C 288.3 40.1 287.7 39.6 287.8 39.5 C 288.9 40.5 290.0 41.4 290.6 41.8 C 291.4 42.7 289.9 41.4 290.8 42.3 C 291.1 42.4 292.7 44.1 292.3 43.3 C 290.6 42.0 289.1 40.4 288.6 39.5 C 286.6 38.4 288.3 39.7 286.1 38.6 C 286.2 38.5 285.8 38.2 285.2 37.7 C 285.6 38.4 283.2 36.5 283.0 36.3 C 284.0 36.9 287.6 39.2 286.0 37.7 C 286.5 38.8 281.9 34.6 282.6 35.7 C 280.1 34.1 281.2 34.4 279.6 33.8 C 279.6 33.7 279.9 33.7 279.1 33.3 C 278.4 32.8 278.1 32.8 277.8 32.6 C 281.5 34.9 280.2 34.6 282.4 36.0 C 282.0 35.8 281.7 35.6 281.7 35.7 C 281.7 35.7 281.6 35.7 281.1 35.4 C 281.1 35.0 279.2 34.3 278.8 33.8 C 279.5 34.2 280.2 34.6 280.1 34.4 C 277.0 32.6 277.9 32.6 273.2 30.1 C 274.5 30.9 272.6 30.0 270.9 29.2 C 268.5 28.0 269.6 28.1 266.5 26.8 C 266.5 27.1 265.7 26.8 264.4 26.2 C 263.7 25.9 262.9 25.5 262.0 25.1 C 261.1 24.8 259.7 24.3 259.0 24.1 C 259.4 23.9 256.3 22.6 255.5 22.7 C 255.5 22.5 254.3 22.2 253.5 21.9 C 253.3 21.7 254.3 21.9 253.6 21.6 C 252.9 21.5 253.4 21.9 252.5 21.6 C 251.4 21.2 251.7 21.0 249.9 20.4 C 249.8 20.6 250.8 20.9 249.8 20.8 C 248.4 20.2 247.0 19.8 248.2 20.4 C 245.9 19.7 247.2 19.6 245.0 19.0 C 245.6 19.3 245.5 19.4 244.4 19.1 C 243.7 18.7 243.6 18.6 243.4 18.4 C 242.7 18.4 242.9 18.5 241.1 17.9 C 241.1 18.0 241.1 18.2 241.0 18.2 C 240.2 18.0 239.0 17.7 238.8 17.6 C 240.4 18.0 240.0 17.7 240.6 17.8 C 239.1 17.3 236.2 16.3 238.3 17.2 C 236.2 16.8 237.3 16.7 235.6 16.3 C 236.5 16.9 235.6 16.4 233.8 16.0 C 233.9 16.3 232.6 15.7 231.5 15.5 C 231.6 15.7 231.3 15.8 230.3 15.6 C 230.3 15.4 229.7 15.2 228.5 15.0 C 228.5 15.1 230.9 15.8 228.5 15.3 C 227.3 14.9 227.4 14.6 225.6 14.2 C 225.2 13.9 227.3 14.4 226.9 14.1 C 225.3 14.0 224.9 13.7 222.7 13.2 C 223.5 13.9 218.1 13.0 220.7 13.7 C 219.9 13.5 218.8 13.7 218.3 13.3 C 219.1 13.4 217.7 12.9 217.7 12.9 C 216.7 12.8 214.2 12.2 214.1 12.3 C 216.4 12.7 216.4 12.9 217.1 13.2 C 213.7 12.7 210.7 12.2 210.9 11.9 C 210.9 12.0 210.4 11.9 210.3 12.0 C 211.5 12.1 212.2 12.7 210.9 12.5 C 211.2 12.3 210.2 12.0 209.1 11.8 C 209.0 12.0 204.5 11.0 205.3 11.5 C 207.2 11.6 208.6 12.1 207.1 12.1 C 206.0 11.7 203.5 11.2 204.1 11.1 C 203.4 11.1 202.8 11.1 202.2 11.1 C 201.6 11.2 203.0 11.4 202.7 11.6 C 201.8 11.4 200.4 11.3 200.2 11.2 C 202.8 11.5 199.0 10.9 201.6 11.0 C 200.0 10.8 199.6 10.6 198.4 10.5 C 198.4 10.5 197.9 10.5 197.7 10.5 C 198.9 10.5 200.0 10.8 199.6 11.0 C 197.3 10.8 197.7 10.5 195.8 10.3 C 195.2 10.4 192.6 10.5 191.3 10.2 C 193.8 10.5 191.1 10.0 192.6 10.1 C 194.9 10.5 195.6 10.3 196.5 10.2 C 195.5 9.9 193.6 9.6 193.3 9.9 C 194.5 10.1 194.5 9.9 195.2 9.9 C 195.1 10.1 194.8 10.2 193.9 10.1 C 192.8 9.8 190.4 9.8 192.0 9.6 C 190.4 9.6 188.6 9.2 186.9 9.2 C 188.8 9.4 190.1 9.6 190.7 9.9 C 189.1 9.8 187.6 9.4 187.5 9.6 C 187.6 9.8 190.2 10.0 190.7 10.2 C 188.6 10.3 185.6 9.3 188.1 10.1 C 186.9 9.9 185.4 9.8 184.9 9.6 C 186.3 9.7 184.8 9.3 184.2 9.2 C 183.0 9.1 182.1 9.1 181.6 9.1 C 183.4 9.2 184.8 9.6 183.5 9.5 C 183.2 9.4 182.9 9.5 182.3 9.5 C 182.2 9.4 180.1 9.3 179.7 9.2 C 179.8 9.3 180.8 9.4 180.9 9.5 C 179.7 9.5 177.9 9.7 177.1 9.3 C 177.8 9.4 178.9 9.5 179.0 9.4 C 175.6 8.8 174.6 8.4 170.5 8.1 C 171.1 8.1 171.3 8.1 171.2 8.0 C 168.6 7.9 167.0 7.7 167.3 7.5 C 165.7 7.5 164.8 7.6 164.0 7.8 C 165.7 7.9 166.3 7.7 167.3 7.9 C 166.6 8.0 168.5 8.4 169.2 8.6 C 172.1 8.5 172.2 8.9 175.1 8.9 C 174.3 9.1 177.2 9.1 176.4 9.3 C 173.7 8.8 171.2 8.9 167.3 8.6 C 167.8 8.5 168.2 8.3 166.6 8.1 C 164.1 7.9 165.3 8.3 163.3 8.2 C 162.5 8.0 163.7 8.0 162.6 7.9 C 161.9 8.0 160.0 7.9 159.4 7.7 C 162.1 7.7 158.9 7.5 160.7 7.4 C 159.8 7.4 159.2 7.3 158.7 7.3 C 161.3 7.6 156.0 7.6 158.0 7.8 C 154.4 7.9 157.8 7.2 154.7 7.2 C 156.2 7.4 154.3 7.5 152.1 7.5 C 151.5 7.2 149.3 7.2 147.5 7.1 C 148.4 7.3 149.1 7.3 147.5 7.5 C 148.4 7.5 149.9 7.5 150.7 7.4 C 150.7 7.5 151.1 7.6 151.5 7.7 C 149.3 7.7 150.2 7.8 149.5 7.9 C 148.8 7.8 147.2 7.8 146.8 7.7 C 146.8 7.8 146.2 7.8 146.2 7.9 C 148.9 7.9 145.7 8.2 147.5 8.3 C 148.7 8.2 147.9 8.0 149.5 8.0 C 150.9 8.3 148.2 8.3 147.5 8.6 C 148.8 8.8 150.3 8.4 150.8 8.7 C 149.1 9.0 146.4 8.8 144.2 8.8 C 144.4 9.1 140.6 8.8 140.3 9.3 C 139.9 9.2 139.6 9.1 139.0 9.1 C 138.3 9.4 137.6 9.0 137.0 9.1 C 136.9 9.2 137.1 9.3 137.6 9.4 C 135.0 9.3 134.3 9.4 131.2 9.7 C 130.6 9.6 130.1 9.5 129.8 9.3 C 130.5 9.2 131.2 9.1 131.7 9.0 C 127.4 9.2 130.3 9.7 127.2 9.5 C 127.3 9.7 129.4 9.8 127.9 10.0 C 125.1 9.9 121.3 10.5 121.4 9.8 C 119.0 9.8 117.4 10.4 116.2 10.2 C 115.5 10.3 115.2 10.4 114.9 10.5 C 115.7 10.5 116.6 10.6 117.5 10.6 C 119.0 10.3 119.6 10.5 118.2 10.3 C 120.3 10.1 120.9 10.2 122.0 10.2 C 119.1 10.6 116.4 10.7 116.3 11.0 C 115.3 11.0 114.5 10.9 113.7 10.8 C 113.4 11.0 110.1 11.5 109.9 11.3 C 112.1 11.1 114.4 10.5 112.4 10.6 C 106.9 11.4 103.9 11.3 99.2 12.3 C 99.0 12.2 99.4 12.0 98.5 12.1 C 98.6 12.2 98.4 12.3 97.9 12.5 C 96.5 12.7 95.6 12.7 93.7 13.1 C 93.7 12.9 93.4 12.7 92.3 12.8 C 91.8 13.2 89.9 14.0 88.8 14.1 C 89.9 13.9 88.4 13.9 87.5 14.0 C 88.3 14.2 82.1 14.9 83.9 14.8 C 81.5 15.3 80.5 15.4 80.4 15.3 C 79.5 15.6 78.9 15.8 78.1 16.0 C 77.5 15.8 73.5 17.0 72.9 17.0 C 74.3 16.8 74.5 16.3 73.4 16.6 C 72.6 17.0 69.0 18.1 68.4 18.3 C 68.6 18.1 68.8 17.8 70.5 17.3 C 67.5 18.0 67.6 18.4 66.7 18.9 C 66.8 18.5 65.5 19.2 65.1 19.4 C 64.1 19.5 65.1 19.2 65.0 19.0 C 64.0 19.3 63.5 19.3 62.2 19.7 C 62.7 19.8 61.2 20.1 60.6 20.3 C 60.5 20.5 59.8 20.8 58.6 21.2 C 60.1 20.3 51.9 23.0 53.9 22.7 C 52.3 23.4 52.1 22.9 50.2 23.7 C 49.9 24.0 48.7 24.3 49.8 24.1 C 49.0 24.4 48.2 24.7 47.8 24.8 C 47.5 24.8 47.0 25.0 45.5 25.6 C 47.0 25.4 42.4 26.8 43.3 26.9 C 41.8 27.1 39.6 28.7 37.2 29.5 C 37.2 29.5 36.6 29.8 36.5 30.0 C 36.2 30.2 39.3 28.8 37.3 29.8 C 34.8 30.8 36.1 30.1 35.7 30.2 C 29.3 33.5 22.9 37.6 18.6 41.3 C 19.2 40.9 19.2 41.0 18.3 41.9 C 16.8 42.6 12.9 47.3 12.6 48.0 C 12.0 48.3 10.8 50.7 10.4 51.1 C 10.7 50.6 11.0 49.6 10.4 50.6 C 10.3 51.4 9.7 52.1 9.5 53.1 C 9.0 53.4 8.2 56.3 8.2 54.9 C 8.0 55.4 7.9 55.7 7.8 56.0 C 8.0 56.2 7.8 56.7 8.3 55.8 C 7.3 58.3 7.5 58.9 7.2 60.9 C 7.3 61.2 7.5 59.7 7.5 60.9 C 7.4 60.9 7.4 60.9 7.3 60.9 C 7.3 61.3 7.4 61.4 7.3 61.6 C 7.2 61.6 7.2 60.9 6.9 60.8 C 7.0 61.8 6.7 62.5 6.9 62.8 C 6.9 61.5 7.4 62.4 7.2 63.2 C 7.0 62.5 7.7 66.3 8.2 67.5 C 8.1 68.2 7.8 66.2 7.6 66.4 C 8.2 68.7 8.2 68.5 8.5 68.7 C 8.9 69.9 8.9 70.5 9.9 71.9 C 10.2 72.8 9.4 71.4 9.9 72.4 C 10.2 72.9 10.5 73.0 11.0 73.8 C 11.9 76.2 16.9 80.6 19.1 83.6 C 18.1 82.5 19.7 83.7 21.2 84.9 C 21.3 85.1 21.0 85.0 21.6 85.5 C 21.6 85.3 22.1 85.6 23.3 86.4 C 23.3 86.6 23.0 86.6 23.6 87.0 C 24.3 87.1 25.6 88.3 26.6 88.8 C 26.8 89.3 24.4 87.5 24.1 87.5 C 26.9 89.7 27.6 89.7 30.0 91.3 C 28.7 90.5 30.8 92.0 31.2 92.3 C 30.8 91.7 32.8 92.8 31.5 91.8 C 32.4 92.4 34.0 93.1 34.1 93.3 C 33.6 93.1 32.7 92.6 32.7 92.7 C 33.9 93.3 35.5 94.4 36.2 94.5 C 35.3 94.0 34.8 93.7 34.9 93.5 C 35.2 93.6 35.7 93.8 36.4 94.1 C 34.1 93.6 40.3 96.3 40.7 96.3 C 41.2 96.9 41.5 97.1 41.2 97.1 C 44.0 98.4 43.7 97.9 45.4 98.5 C 44.8 98.6 44.1 98.6 46.8 99.8 C 46.3 99.3 49.6 100.6 48.8 99.9 C 50.5 100.5 51.0 100.7 51.7 101.0 C 52.4 101.2 53.0 101.5 53.5 101.7 C 54.6 102.2 55.4 102.5 56.7 103.0 C 56.8 102.9 56.0 102.6 56.8 102.8 C 58.0 103.3 59.0 103.7 59.8 104.1 C 60.6 104.1 59.7 103.8 60.5 104.0 C 62.4 104.8 61.8 104.9 63.5 105.7 C 65.8 106.1 65.0 106.0 66.4 106.1 C 65.8 106.0 65.1 105.6 65.9 105.8 C 67.2 106.4 67.7 106.8 68.0 107.0 C 67.0 106.7 66.2 106.5 65.8 106.3 C 65.4 106.4 64.0 106.0 65.1 106.4 C 63.7 106.0 62.2 105.5 60.2 104.9 C 60.8 105.4 58.4 104.4 59.0 104.9 C 61.3 105.5 61.7 105.8 63.9 106.4 C 63.5 106.0 65.7 106.8 66.2 107.0 C 66.2 106.8 67.7 107.3 67.4 107.0 C 69.1 107.4 69.0 107.6 70.7 108.0 C 70.8 108.1 70.6 108.1 71.2 108.3 C 71.9 108.2 72.4 108.7 72.9 108.8 C 72.6 108.5 75.1 109.2 75.3 109.1 C 74.6 108.9 73.7 108.7 73.6 108.6 C 76.4 109.3 74.2 108.5 73.7 108.2 C 73.8 108.3 72.7 108.4 72.5 108.2 C 74.9 108.6 69.3 106.9 71.4 107.6 C 73.2 108.1 73.1 107.8 74.9 108.3 C 76.9 109.3 74.3 108.9 76.4 109.8 C 77.8 109.9 78.7 110.1 78.9 109.9 C 79.1 110.1 79.5 110.2 80.0 110.4 C 80.6 110.4 78.3 109.8 80.0 110.1 C 80.9 110.3 79.8 110.5 81.8 110.8 C 82.6 110.8 79.5 110.0 81.2 110.3 C 83.0 111.1 80.9 110.2 83.0 110.6 C 83.2 110.7 83.5 110.8 84.2 110.9 C 84.3 111.0 84.0 111.1 84.7 111.3 C 85.2 111.0 85.5 111.6 87.1 111.9 C 88.1 111.7 85.5 111.4 86.0 111.2 C 87.8 111.9 88.9 111.7 89.6 111.9 C 88.1 111.9 91.9 112.5 92.0 112.8 C 91.6 112.4 92.5 112.7 94.6 112.8 C 94.6 113.3 97.1 113.3 97.6 113.8 C 97.9 113.7 98.6 113.7 98.9 113.6 C 98.1 113.5 97.4 113.4 97.7 113.3 C 98.3 113.4 98.9 113.5 99.6 113.6 C 100.6 113.9 97.8 114.0 102.0 114.6 C 101.5 114.2 103.3 114.4 104.5 114.4 C 104.4 114.1 102.8 114.2 102.7 114.0 C 104.1 114.0 105.6 114.4 106.4 114.7 C 108.9 114.9 111.8 115.4 115.4 115.6 C 116.2 115.9 112.4 115.5 114.7 115.9 C 115.8 116.0 115.3 115.7 116.7 115.9 C 115.3 116.8 126.4 116.9 127.1 117.4 C 127.5 117.2 130.7 117.6 130.3 117.2 C 128.2 117.3 126.8 116.9 125.8 116.7 C 123.8 116.7 127.5 117.1 125.7 117.0 C 125.6 116.8 122.9 116.8 123.2 116.6 C 126.0 116.8 121.7 116.2 123.8 116.1 C 126.4 116.4 131.6 116.5 130.4 116.7 C 130.4 116.6 129.2 116.5 129.1 116.6 C 132.0 116.9 133.8 116.8 135.0 116.7 C 136.3 117.0 141.6 116.8 140.3 116.9 C 140.7 117.2 137.1 116.7 137.6 117.0 C 143.1 117.3 143.2 117.1 146.8 117.3 C 145.7 117.0 150.6 117.0 150.2 117.1 C 150.2 117.3 151.3 117.5 153.5 117.3 C 153.2 117.5 154.3 117.6 155.5 117.7 C 156.0 117.4 154.5 117.4 154.8 117.3 C 155.9 117.3 157.0 117.3 158.1 117.2 C 158.2 117.3 158.0 117.5 158.8 117.5 C 160.0 117.3 164.5 117.0 164.1 117.1 C 162.2 117.5 167.1 117.3 164.1 117.6 C 164.9 117.6 165.0 117.7 166.1 117.7 C 166.1 117.5 166.1 117.4 166.1 117.3 C 168.5 117.2 167.3 117.7 169.4 117.6 C 169.6 117.5 170.5 117.4 170.7 117.3 C 169.9 117.4 169.8 117.5 168.7 117.5 C 169.9 117.0 166.5 117.3 166.7 117.1 C 169.0 117.0 169.0 117.2 170.0 117.3 C 172.9 117.0 171.5 117.1 174.6 117.1 C 174.6 117.0 173.8 117.0 174.0 116.9 C 177.7 116.8 177.3 117.3 179.9 116.9 C 179.3 117.0 177.0 117.3 178.6 117.2 C 180.3 117.0 180.8 116.7 183.1 116.5 C 183.3 116.6 183.1 116.8 183.8 116.7 C 184.8 116.6 184.8 116.3 185.7 116.2 C 185.9 116.3 187.2 116.1 187.7 116.0 C 188.5 116.1 187.4 116.3 188.4 116.3 C 190.3 116.1 191.3 115.4 192.8 115.4 C 192.8 115.7 194.6 115.4 196.1 115.2 C 196.4 115.5 199.7 115.0 201.9 114.8 C 201.4 114.6 203.6 114.5 203.1 114.3 C 202.0 114.4 201.5 114.4 201.2 114.3 C 203.7 114.0 204.5 114.4 206.3 113.8 C 207.2 113.8 208.4 113.8 210.0 113.6 C 210.2 113.4 207.1 113.8 208.8 113.5 C 208.9 113.6 209.4 113.4 210.0 113.3 C 209.8 113.6 211.1 113.5 211.9 113.5 C 213.4 113.1 216.4 112.9 215.0 112.8 C 217.3 112.4 215.8 113.1 217.6 112.8 C 216.6 112.6 219.6 112.0 218.1 112.1 C 220.4 111.6 220.3 112.1 219.4 112.4 C 221.5 112.1 221.9 111.7 223.0 111.7 C 222.0 111.6 225.2 110.9 223.6 111.3 C 223.1 111.7 225.5 111.1 226.0 111.1 C 225.2 111.1 226.3 110.8 224.8 111.0 C 226.3 110.6 228.6 110.1 230.1 110.0 C 232.1 109.5 233.9 109.0 233.1 109.5 C 234.9 109.0 234.2 109.1 236.0 108.7 C 236.0 108.7 235.5 108.8 235.3 108.7 C 237.8 108.1 237.4 108.4 240.6 107.6 C 240.3 108.0 242.3 107.4 242.9 107.4 C 241.6 107.8 240.6 108.0 239.5 108.2 C 239.3 108.4 240.4 108.2 239.5 108.4 C 239.4 108.4 238.9 108.5 238.4 108.6 C 240.5 108.3 235.8 109.6 237.3 109.0 C 237.3 109.1 237.4 109.1 237.8 108.9 C 237.4 108.8 237.4 108.9 237.7 108.6 C 236.7 108.9 235.8 108.8 235.4 109.1 C 235.5 109.2 236.5 108.9 236.7 109.0 C 234.1 109.8 235.8 108.9 233.7 109.5 C 233.3 109.8 234.4 109.6 235.0 109.7 C 233.1 110.1 231.4 110.5 230.8 110.5 C 229.1 111.0 231.0 110.6 229.8 111.0 C 229.1 111.1 229.1 110.9 227.9 111.1 C 226.6 111.5 228.7 111.1 227.4 111.5 C 225.9 111.6 228.3 110.9 226.1 111.3 C 226.7 111.6 224.1 111.7 224.3 111.9 C 225.6 111.6 225.6 111.9 224.9 111.8 C 221.9 112.1 220.0 113.3 217.0 113.3 C 217.0 113.4 216.5 113.5 216.4 113.6 C 218.7 113.3 221.9 112.7 222.6 113.0 C 224.4 112.6 224.1 112.4 224.4 112.2 C 226.5 112.1 226.3 112.2 225.1 112.8 C 221.7 113.6 220.1 113.7 217.8 114.0 C 216.6 114.4 217.9 114.0 218.4 114.1 C 211.1 115.1 216.8 114.9 214.2 115.2 C 214.2 115.1 213.6 115.1 212.9 115.2 C 212.9 115.3 211.8 115.4 211.6 115.6 C 212.1 115.5 212.4 115.5 212.3 115.6 C 210.5 116.0 211.2 115.6 211.0 115.5 C 212.4 115.3 213.3 115.1 213.5 114.9 C 211.7 115.4 210.2 115.3 209.1 115.8 C 207.3 115.7 209.9 115.0 209.0 114.8 C 209.2 114.6 207.9 115.6 206.6 115.9 C 204.3 116.2 204.2 116.5 202.1 116.7 C 201.5 116.6 204.2 116.4 204.0 116.2 C 203.4 116.3 203.3 116.2 202.7 116.3 C 201.2 116.5 201.4 116.7 200.2 116.9 C 199.5 116.7 199.2 116.9 198.3 117.1 C 196.8 117.2 199.1 116.8 197.6 117.0 C 196.0 117.1 194.9 117.5 194.4 117.5 C 194.3 117.5 194.5 117.3 193.7 117.4 C 191.9 117.7 191.5 117.8 193.8 117.7 C 191.8 117.9 190.9 118.0 191.2 118.3 C 194.3 118.0 195.0 117.9 196.4 118.1 C 197.0 117.7 197.9 117.8 199.0 117.8 C 198.3 117.4 200.3 117.6 200.9 117.3 C 200.2 117.3 199.4 117.4 199.0 117.4 C 202.2 117.0 202.1 117.1 204.7 116.3 C 204.7 116.4 205.0 116.5 205.3 116.5 C 204.5 116.7 202.2 116.9 202.2 117.1 C 204.0 117.2 204.6 116.7 206.7 116.7 C 207.5 116.4 205.0 116.6 206.6 116.4 C 207.4 116.4 208.5 116.4 209.8 116.3 C 211.2 116.1 211.8 115.9 212.9 115.6 C 213.0 115.7 213.2 115.8 214.2 115.6 C 214.1 115.5 213.1 115.6 214.2 115.3 C 217.5 115.1 219.7 114.9 222.9 114.2 C 221.7 114.3 219.1 114.5 220.4 114.3 C 221.9 114.2 223.8 113.5 225.3 113.4 C 225.8 113.4 223.5 113.7 224.1 114.0 C 225.5 113.7 226.4 113.6 227.1 113.5 C 227.1 113.3 228.7 113.0 228.3 112.9 C 227.1 113.1 226.8 113.5 226.5 113.4 C 227.4 112.6 230.9 112.7 233.1 112.2 C 234.5 111.8 232.0 112.3 233.6 111.8 C 234.6 111.4 235.3 111.9 233.7 112.3 C 232.6 112.5 232.2 112.9 231.9 112.7 C 231.5 112.8 230.8 112.9 230.8 113.0 C 231.6 112.9 231.5 113.0 232.0 113.0 C 230.8 113.2 230.8 113.7 229.7 113.7 C 230.4 113.5 230.6 113.4 230.9 113.2 C 227.7 114.0 226.6 114.0 224.8 114.3 C 225.8 114.2 224.7 114.4 224.8 114.6 C 226.2 114.3 228.9 113.9 227.3 114.3 C 226.2 114.2 225.4 115.1 224.3 115.0 C 225.1 114.9 225.0 114.7 225.4 114.6 C 224.2 114.8 224.2 114.6 223.0 114.8 C 219.0 115.9 215.9 115.9 209.3 117.4 C 207.1 117.7 211.4 116.9 211.2 116.8 C 210.5 116.9 210.4 116.8 209.9 116.9 C 209.9 117.2 208.7 117.0 208.0 117.4 C 208.1 117.1 205.0 117.8 203.5 117.8 C 203.5 117.9 203.7 118.0 202.9 118.1 C 198.2 118.4 189.6 119.7 186.0 119.7 C 186.2 119.9 184.5 120.0 184.1 120.2 C 181.8 120.3 182.8 120.0 179.5 120.5 C 177.8 120.6 179.8 120.3 180.1 120.2 C 175.1 120.6 170.7 120.6 167.5 121.0 C 165.9 121.1 167.5 120.8 164.2 120.8 C 164.1 121.2 158.9 120.7 158.2 121.2 C 156.2 121.2 152.5 120.8 154.1 121.1 C 151.4 121.1 153.2 120.8 152.1 120.8 C 150.2 120.8 152.7 121.4 150.8 121.4 C 151.0 121.1 149.4 121.2 148.1 121.0 C 149.6 121.0 150.6 121.0 150.8 120.8 C 149.5 121.0 149.6 120.8 147.5 120.8 C 145.9 120.9 141.4 121.0 140.1 120.6 C 140.1 120.7 140.5 120.8 140.8 120.9 C 139.5 120.9 137.9 120.5 138.1 120.9 C 135.1 120.7 133.9 120.4 132.2 120.6 C 130.9 120.6 132.6 120.4 128.8 120.1 C 128.7 120.3 122.1 119.8 120.3 119.5 C 120.2 119.8 119.8 119.4 119.0 119.4 C 118.9 119.4 119.1 119.6 118.3 119.5 C 118.2 119.4 117.6 119.4 117.0 119.4 C 117.5 119.1 114.6 119.3 114.4 119.0 C 115.0 119.0 115.0 118.8 114.5 118.7 C 114.2 119.0 111.6 118.3 111.9 118.5 C 112.4 118.7 114.3 118.8 113.7 119.0 C 111.2 118.8 112.2 118.6 110.5 118.4 C 110.6 118.5 111.6 118.7 110.5 118.6 C 108.7 118.4 110.4 118.6 109.3 118.3 C 108.3 118.2 106.6 118.2 106.0 118.1 C 106.2 118.1 105.6 117.9 105.4 117.9 C 102.1 117.3 94.7 116.5 91.6 115.6 C 91.3 115.7 90.6 115.6 90.9 115.8 C 89.0 115.3 89.1 115.4 87.2 115.0 C 87.2 115.1 87.2 115.2 87.2 115.3 C 84.7 114.9 87.0 114.9 85.4 114.6 C 85.1 115.1 84.5 114.3 83.0 114.0 C 82.8 114.0 82.1 113.9 82.3 114.2 C 80.0 113.7 80.2 113.3 78.2 113.0 C 78.6 113.2 78.8 114.0 78.5 114.2 C 78.2 114.0 77.6 113.8 76.8 113.5 C 77.9 113.5 77.5 112.5 74.6 112.1 C 76.2 112.5 76.7 112.7 76.3 112.8 C 74.2 112.3 73.5 112.0 71.7 111.5 C 71.3 111.7 72.6 112.0 72.1 112.2 C 71.7 112.1 71.4 112.1 71.5 112.2 C 69.6 111.7 69.6 111.5 67.5 111.1 C 67.5 110.9 68.0 111.0 68.7 111.3 C 68.6 111.1 68.6 110.9 69.9 111.2 C 70.0 111.4 69.2 111.5 71.0 111.8 C 71.0 111.7 71.1 111.6 71.1 111.4 C 69.8 111.1 66.8 110.1 66.5 110.2 C 67.1 110.4 68.1 110.7 67.5 110.8 C 65.4 110.2 64.8 109.8 63.1 109.1 C 60.0 108.3 54.8 106.6 55.3 107.1 C 53.6 106.4 54.2 106.6 52.7 106.1 C 53.1 106.5 50.9 105.6 51.0 105.8 C 52.9 106.4 52.3 106.3 54.2 106.8 C 54.1 107.0 53.8 107.0 53.0 106.8 C 53.0 106.6 52.2 106.3 51.0 105.9 C 51.1 106.0 52.2 106.7 50.8 106.2 C 50.8 106.1 50.5 105.9 49.8 105.7 C 49.9 105.6 49.9 105.5 50.0 105.4 C 50.7 105.5 51.6 105.8 52.2 105.9 C 51.7 105.7 51.6 105.6 51.1 105.4 C 50.8 105.5 48.7 104.5 48.5 104.6 C 49.3 104.9 49.8 105.3 48.9 105.0 C 48.8 104.9 47.0 104.1 46.1 103.9 C 49.1 105.2 47.9 104.8 48.8 105.4 C 46.7 104.6 46.5 104.3 42.6 102.8 C 42.6 102.6 42.7 102.4 43.7 102.7 C 41.4 101.3 35.9 99.2 34.3 98.4 C 35.4 99.0 36.9 99.3 35.1 98.4 C 35.1 98.5 33.8 97.9 33.5 97.8 C 32.8 97.9 34.2 98.9 35.4 99.8 C 34.0 99.1 33.6 99.0 32.4 98.4 C 32.0 98.0 33.5 98.4 31.9 97.5 C 31.4 97.7 29.0 96.0 28.3 95.9 C 29.4 96.5 30.1 97.0 28.9 96.4 C 29.2 96.4 27.0 95.2 27.0 95.1 C 28.8 96.0 29.4 96.0 30.5 96.7 C 29.1 95.9 31.7 97.1 29.3 95.7 C 28.1 95.3 27.4 95.2 25.1 93.7 C 24.3 93.2 25.2 93.4 24.1 92.7 C 24.2 93.1 21.8 91.5 23.4 92.3 C 22.5 91.8 22.1 91.4 21.7 91.1 C 22.7 92.1 17.2 88.5 17.9 89.2 C 18.1 88.9 18.0 88.5 17.8 88.2 C 16.7 87.7 15.7 86.6 13.4 84.5 C 13.3 84.8 13.0 84.1 12.1 83.2 C 11.8 83.2 12.5 84.0 11.9 83.4 C 10.9 82.3 10.9 82.2 10.8 81.9 C 10.1 81.1 9.6 80.5 9.4 80.1 C 9.3 80.1 9.4 80.4 9.6 80.7 C 7.3 77.5 6.0 76.1 4.8 73.3 C 5.2 74.5 5.7 74.6 5.2 73.7 C 4.9 73.1 4.6 72.6 4.4 72.3 C 4.5 73.1 4.5 72.8 3.9 71.4 C 3.3 70.2 3.7 72.0 3.4 71.1 C 3.1 70.0 3.4 70.5 3.3 70.0 C 3.2 69.5 3.0 69.0 2.9 68.5 C 3.0 69.4 2.6 68.5 2.3 67.6 C 2.7 68.2 2.6 67.8 2.2 66.0 C 2.4 65.8 2.6 66.7 2.5 66.0 C 2.5 65.6 1.9 64.3 2.1 63.1 C 2.1 63.5 2.2 63.7 2.3 63.6 C 2.0 62.3 2.3 61.2 2.5 60.1 C 2.2 61.2 2.1 60.6 1.9 61.1 C 2.2 59.9 2.0 58.5 2.5 57.6 C 2.1 59.3 2.9 57.8 3.1 56.7 C 3.0 56.4 2.7 58.2 2.5 57.6 C 2.4 57.0 3.0 55.8 2.9 55.2 C 2.8 55.2 2.8 56.0 2.6 56.1 C 2.8 55.2 2.4 56.4 2.6 55.6 C 3.0 55.2 2.8 54.6 2.9 54.1 C 3.2 53.5 4.0 52.3 4.0 51.8 C 3.9 51.7 3.6 52.6 3.5 52.6 C 4.4 49.9 5.1 49.3 6.3 46.9 C 6.6 46.7 6.9 46.3 7.4 45.6 C 7.3 45.6 7.5 45.1 7.9 44.6 C 8.7 43.7 9.6 42.8 10.7 41.6 C 10.6 42.0 10.2 42.6 11.7 41.0 C 11.7 40.8 11.1 41.5 11.6 40.9 C 11.6 40.9 12.0 40.5 12.0 40.4 C 12.0 40.4 12.0 40.3 11.9 40.3 C 11.5 40.8 11.1 41.2 10.7 41.6 C 10.6 41.5 10.4 41.5 10.1 41.8 C 11.7 39.8 12.0 40.3 13.1 38.9 C 13.6 39.0 14.0 38.6 13.2 39.8 C 14.2 38.7 15.0 37.9 15.2 37.4 C 13.7 38.7 14.0 38.1 13.5 38.4 C 14.4 37.6 14.3 37.5 14.8 37.0 C 16.0 36.2 13.9 38.3 16.1 36.5 C 14.3 37.7 17.3 35.1 18.6 34.3 C 18.3 34.4 17.9 34.7 18.4 34.1 C 21.6 31.5 21.8 32.4 23.8 30.7 C 23.7 30.9 24.7 30.3 25.2 30.1 C 23.4 31.3 22.9 31.6 22.2 32.2 C 22.4 32.2 22.9 31.8 23.5 31.5 C 23.4 31.4 23.8 31.1 24.7 30.6 C 25.1 30.2 24.7 30.0 26.2 28.9 C 26.3 28.9 26.2 29.1 27.0 28.7 C 27.6 28.1 26.5 29.3 29.8 27.4 C 29.2 27.7 28.8 27.7 29.0 27.4 C 30.5 26.5 30.2 26.7 32.4 25.5 C 33.5 25.4 31.1 26.7 30.6 27.3 C 32.1 26.4 33.2 25.5 34.9 24.9 C 33.6 25.4 34.8 24.6 36.2 23.8 C 37.6 23.2 36.3 24.2 38.0 23.4 C 39.2 22.8 39.9 22.3 38.6 22.7 C 41.6 21.5 40.7 21.5 43.4 20.5 C 43.5 20.6 42.8 20.9 41.8 21.2 C 42.0 21.2 41.7 21.5 42.7 21.1 C 43.5 20.6 44.9 20.0 46.3 19.4 C 47.8 18.8 48.7 18.4 49.3 18.1 C 51.7 17.7 54.3 16.2 56.8 15.6 C 55.8 16.2 60.0 14.6 61.3 14.6 C 62.0 14.3 64.2 13.1 63.4 13.5 C 63.7 13.8 65.2 13.2 66.4 13.0 C 66.3 12.9 66.3 12.9 66.3 12.8 C 68.8 12.0 69.5 12.1 70.4 12.1 C 73.5 11.2 77.1 10.7 81.0 9.6 C 82.1 9.6 82.9 9.4 85.4 9.1 C 85.3 8.9 87.2 8.5 89.0 8.2 C 88.5 8.0 90.2 7.8 90.2 7.6 C 88.5 7.9 89.1 7.5 88.2 7.6 C 90.4 7.4 91.4 6.7 93.2 6.7 C 91.1 7.2 90.5 7.6 90.2 8.0 C 92.8 7.5 94.1 7.4 94.6 7.5 C 94.8 7.3 94.5 7.2 93.9 7.2 C 94.8 7.1 95.6 7.0 96.4 6.8 C 96.7 6.9 95.5 7.2 96.4 7.1 C 97.0 6.9 97.7 6.7 98.3 6.5 C 99.1 6.7 97.4 6.9 97.1 7.0 C 100.5 6.6 99.0 6.4 100.8 6.0 C 101.3 6.1 101.3 6.4 102.8 6.2 C 103.4 6.0 103.6 5.7 105.3 5.5 C 106.4 5.4 105.3 5.9 106.6 5.7 C 106.8 5.6 107.3 5.6 107.9 5.5 C 107.8 5.4 108.4 5.3 109.1 5.2 C 109.3 5.3 110.6 5.0 111.1 4.9 C 111.2 5.0 113.3 5.1 113.7 4.9 C 113.7 4.8 112.6 4.9 112.4 4.9 C 113.9 4.7 114.9 4.6 115.6 4.4 C 116.1 5.0 118.5 4.3 121.5 4.3 C 123.4 4.0 121.1 3.9 123.5 3.6 C 124.9 3.6 123.2 3.8 123.5 4.1 C 123.9 4.1 126.1 4.1 126.2 3.9 C 126.1 3.8 125.0 3.9 124.9 3.8 C 126.6 3.4 126.5 3.7 127.5 3.8 C 127.4 3.6 128.5 3.4 128.8 3.3 C 133.5 2.8 133.5 3.3 135.4 3.4 C 135.4 3.3 136.6 3.3 136.7 3.2 C 135.4 3.3 133.5 3.2 135.4 3.1 C 135.1 3.2 137.9 2.9 138.1 2.9 C 137.8 2.8 136.0 2.9 136.7 2.6 C 139.2 2.4 138.2 2.9 140.1 2.6 C 140.3 2.8 139.2 2.8 138.7 2.9 C 139.5 2.9 140.6 2.8 140.7 2.9 C 139.8 3.0 139.8 3.2 139.4 3.4 C 140.7 3.1 143.0 3.2 141.4 3.0 C 144.1 3.0 146.6 2.8 144.8 2.6 C 146.9 2.5 145.7 2.8 147.4 2.6 C 147.2 2.9 146.7 3.0 148.1 3.2 C 148.4 3.1 149.5 3.0 149.4 2.8 C 152.6 2.8 153.5 3.0 154.8 3.3 C 153.6 2.9 155.2 3.2 156.8 2.9 C 157.7 3.0 156.8 3.4 159.4 3.3 C 156.6 2.9 162.7 3.3 161.5 2.8 C 164.8 3.1 164.7 3.1 168.1 3.3 C 167.8 3.4 167.0 3.5 165.5 3.5 C 166.5 3.3 162.6 3.2 162.8 3.3 C 162.8 3.4 162.8 3.4 162.8 3.5 C 165.3 3.5 167.0 3.6 168.1 3.8 C 168.6 3.7 169.8 3.6 169.4 3.3 C 171.8 3.7 174.4 3.4 175.5 3.7 C 174.6 3.7 173.8 3.7 174.1 3.8 C 175.1 3.8 176.2 3.8 176.1 3.6 C 174.2 3.4 173.8 3.4 172.8 3.5 C 173.7 3.4 170.9 3.1 172.8 3.1 C 172.7 3.5 176.8 3.1 175.5 3.3 C 173.3 3.4 177.8 3.7 178.0 3.9 C 178.0 3.9 178.0 3.9 178.0 3.9 Z M 223.5 114.7 C 225.4 114.2 223.1 114.4 221.7 114.7 C 222.1 114.7 222.3 114.8 222.4 114.9 C 222.9 114.8 223.4 114.6 223.5 114.7 C 223.5 114.7 223.5 114.7 223.5 114.7 Z M 203.1 114.4 C 202.5 114.8 205.6 114.2 206.9 114.1 C 206.5 114.1 206.1 114.0 206.9 113.9 C 205.5 113.9 205.1 114.4 203.1 114.4 C 203.1 114.4 203.1 114.4 203.1 114.4 Z M 130.3 117.6 C 130.8 117.6 132.1 117.6 132.2 117.8 C 133.0 117.8 132.8 117.6 133.0 117.6 C 134.5 117.6 132.6 117.9 134.9 117.9 C 135.9 117.5 130.9 117.1 130.3 117.6 C 130.3 117.6 130.3 117.6 130.3 117.6 Z M 152.7 6.8 C 153.7 6.9 151.5 7.1 152.1 7.3 C 155.8 7.1 152.9 6.8 158.0 6.9 C 157.7 6.9 157.3 6.8 157.4 6.7 C 155.0 6.8 154.8 7.0 155.4 6.5 C 154.3 6.5 154.0 7.0 152.7 6.8 C 152.7 6.8 152.7 6.8 152.7 6.8 Z M 199.7 10.5 C 199.3 10.3 199.0 10.2 199.0 10.1 C 197.5 10.1 197.8 10.2 195.9 9.9 C 196.1 10.2 198.0 10.4 199.7 10.5 C 199.7 10.5 199.7 10.5 199.7 10.5 Z M 300.1 56.7 C 300.1 57.0 300.2 57.2 300.3 57.5 C 300.4 57.3 300.9 57.9 300.4 56.6 C 300.4 56.6 300.4 56.8 300.5 57.0 C 300.3 56.8 300.1 56.2 300.0 56.3 C 300.1 56.7 300.1 56.7 300.1 56.7 C 300.1 56.7 300.1 56.7 300.1 56.7 Z M 284.1 88.9 C 286.2 87.2 280.4 90.4 284.1 88.9 C 284.1 88.9 284.1 88.9 284.1 88.9 C 284.1 88.9 284.1 88.9 284.1 88.9 Z M 290.2 88.0 C 290.3 88.0 290.7 87.6 290.7 87.6 C 292.4 86.3 290.9 87.7 291.9 87.0 C 293.1 85.8 291.0 87.3 292.5 85.8 C 292.1 85.9 291.2 87.2 290.2 88.0 C 290.2 88.0 290.2 88.0 290.2 88.0 Z M 21.4 32.4 C 19.9 33.5 19.6 34.1 19.5 34.5 C 20.5 33.7 21.5 33.1 21.9 33.0 C 23.8 31.5 20.4 33.8 20.1 34.0 C 20.2 33.6 21.6 32.6 21.4 32.4 C 21.4 32.4 21.4 32.4 21.4 32.4 Z M 16.6 36.1 C 16.1 36.7 15.3 37.5 15.4 37.7 C 16.2 36.9 16.4 36.9 16.5 37.0 C 17.2 36.2 16.1 36.9 16.6 36.1 C 16.6 36.1 16.6 36.1 16.6 36.1 Z M 26.5 29.5 C 25.7 30.0 26.1 30.0 26.1 30.1 C 27.2 29.4 27.5 29.4 28.7 28.7 C 28.7 28.6 28.6 28.5 28.6 28.5 C 27.5 29.0 27.5 29.2 26.6 29.7 C 26.6 29.6 26.6 29.6 26.5 29.5 C 26.5 29.5 26.5 29.5 26.5 29.5 Z M 12.7 40.2 C 10.4 42.4 9.9 43.8 9.1 45.5 C 10.3 43.8 11.2 42.0 12.5 40.9 C 13.8 39.4 11.9 41.2 11.9 41.1 C 11.9 41.0 12.4 40.5 12.7 40.2 C 12.7 40.2 12.7 40.2 12.7 40.2 Z M 2.5 61.6 C 2.3 62.1 2.7 63.0 2.8 64.5 C 2.9 64.2 2.9 64.0 3.0 64.0 C 2.9 61.9 2.5 63.1 2.5 61.6 C 2.5 61.6 2.5 61.6 2.5 61.6 Z M 5.6 73.5 C 6.2 74.7 5.4 72.8 5.8 73.3 C 5.2 72.0 4.6 70.5 4.4 70.7 C 5.1 72.1 5.3 72.4 5.6 73.5 C 5.6 73.5 5.6 73.5 5.6 73.5 Z M 11.2 81.6 C 12.4 82.8 10.9 80.8 11.6 81.2 C 11.1 80.7 11.2 80.9 11.0 81.0 C 10.8 80.6 10.5 80.2 10.0 79.6 C 10.2 80.1 11.5 81.6 11.2 81.6 C 11.2 81.6 11.2 81.6 11.2 81.6 Z M 68.2 13.3 C 67.3 13.7 67.6 13.8 65.5 14.3 C 68.7 13.5 67.1 14.6 71.3 13.4 C 70.6 13.5 71.0 13.3 71.3 13.4 C 72.9 12.8 69.7 13.6 71.2 13.0 C 70.0 13.3 70.8 13.4 69.6 13.7 C 68.3 13.8 67.5 13.9 68.2 13.3 C 68.2 13.3 68.2 13.3 68.2 13.3 Z M 71.4 13.7 C 72.6 13.4 72.5 13.0 73.1 13.1 C 73.7 12.9 73.5 12.9 73.6 12.8 C 73.2 12.9 73.1 12.9 73.0 12.8 C 72.0 13.2 71.0 13.5 71.4 13.7 C 71.4 13.7 71.4 13.7 71.4 13.7 Z M 60.7 16.6 C 62.5 16.0 63.1 16.0 64.0 15.5 C 64.7 15.7 65.2 15.0 66.3 15.0 C 68.1 14.4 66.7 14.7 66.2 14.7 C 68.0 14.1 66.7 14.8 68.5 14.3 C 68.7 13.9 66.4 14.6 66.6 14.3 C 65.3 14.6 65.3 14.8 64.5 15.1 C 63.8 15.3 64.0 15.1 63.8 15.0 C 62.3 15.6 62.3 15.3 61.1 15.8 C 60.8 16.1 61.3 16.0 62.8 15.5 C 61.3 16.0 60.7 16.4 59.0 16.8 C 60.1 16.2 54.7 17.9 55.2 18.1 C 56.7 17.7 56.2 17.6 56.8 17.4 C 58.7 17.0 59.9 16.6 60.7 16.6 C 60.7 16.6 60.7 16.6 60.7 16.6 Z M 27.6 29.8 C 27.0 30.1 26.5 30.3 25.7 30.9 C 25.5 30.7 26.6 30.1 25.5 30.6 C 24.1 31.4 23.9 31.7 23.1 32.2 C 23.6 32.0 26.5 30.5 25.1 31.5 C 25.6 31.3 26.5 30.8 27.7 30.1 C 26.2 30.6 29.7 28.9 31.1 28.2 C 30.8 27.9 33.6 26.9 34.6 26.2 C 33.6 26.4 30.8 28.1 29.6 28.8 C 30.2 28.4 26.1 30.2 27.6 29.8 C 27.6 29.8 27.6 29.8 27.6 29.8 Z M 76.0 12.4 C 76.3 12.2 77.6 11.9 76.6 12.1 C 77.1 11.9 78.2 11.8 77.7 11.5 C 78.3 11.4 78.9 11.2 79.5 11.1 C 79.3 11.3 77.6 11.6 78.3 11.7 C 79.5 11.3 79.1 11.5 80.7 11.2 C 79.9 11.6 80.8 11.4 80.2 11.9 C 80.7 11.6 82.1 11.3 82.0 11.2 C 84.3 10.7 81.4 11.6 84.4 11.0 C 84.4 11.2 82.2 11.6 81.5 11.7 C 81.1 12.0 85.2 11.0 87.5 10.6 C 85.4 10.8 87.0 10.3 88.0 9.9 C 88.7 9.8 88.0 10.1 89.3 10.0 C 90.3 9.8 90.8 9.6 91.1 9.6 C 92.0 9.5 91.6 9.4 91.7 9.2 C 93.1 9.0 92.1 9.5 94.2 9.1 C 92.6 9.0 94.4 8.6 97.3 8.3 C 97.1 8.2 96.2 8.3 96.0 8.3 C 96.4 8.0 98.1 8.1 98.6 8.1 C 99.6 7.9 98.9 7.9 97.9 8.0 C 98.5 7.9 99.1 7.7 99.8 7.5 C 96.6 7.9 91.7 8.8 86.1 9.5 C 87.2 9.5 85.9 9.8 84.3 10.0 C 84.0 9.9 84.7 9.8 85.5 9.6 C 83.5 9.7 83.7 10.3 80.7 10.8 C 79.0 11.1 82.4 10.2 80.6 10.5 C 79.5 10.8 78.8 11.1 78.2 11.0 C 76.3 11.5 75.9 11.9 73.0 12.6 C 74.6 12.3 75.5 12.7 77.2 12.2 C 77.2 12.1 76.5 12.3 76.0 12.4 C 76.0 12.4 76.0 12.4 76.0 12.4 Z M 16.6 37.1 C 15.7 37.8 15.4 38.3 15.2 38.4 C 13.8 39.7 15.5 38.4 15.8 38.2 C 16.4 37.6 16.6 37.3 16.6 37.1 C 16.6 37.1 16.6 37.1 16.6 37.1 Z M 138.8 120.2 C 141.3 120.3 140.8 120.0 142.8 120.1 C 141.2 119.9 140.8 119.7 138.2 119.6 C 138.0 119.8 138.0 120.0 138.8 120.2 C 138.8 120.2 138.8 120.2 138.8 120.2 Z M 22.0 33.2 C 23.2 32.0 20.5 34.6 20.4 34.4 C 19.0 35.7 21.9 33.5 20.6 34.7 C 21.9 33.6 22.8 33.2 24.6 31.9 C 24.4 31.8 22.9 32.8 21.6 33.8 C 21.3 33.8 22.1 33.3 22.0 33.2 C 22.0 33.2 22.0 33.2 22.0 33.2 Z M 113.2 117.6 C 111.5 117.7 114.8 118.3 115.8 118.5 C 115.9 118.2 115.3 118.2 113.2 117.6 C 113.2 117.6 113.2 117.6 113.2 117.6 Z M 156.1 120.1 C 157.1 119.7 153.2 120.0 154.1 119.7 C 153.0 119.7 152.8 119.8 152.8 119.9 C 152.2 119.8 150.3 119.9 150.8 119.6 C 150.5 119.4 153.8 119.7 152.8 119.4 C 153.9 119.4 153.9 119.5 154.8 119.5 C 152.8 119.5 153.7 119.8 156.1 119.8 C 156.1 119.6 155.0 119.7 156.1 119.5 C 156.3 119.6 157.5 119.8 157.4 120.1 C 159.5 120.1 158.3 119.7 160.8 119.7 C 160.6 119.5 159.0 119.6 158.1 119.5 C 158.3 119.2 160.7 119.7 160.1 119.3 C 160.6 119.5 162.1 119.6 162.1 119.8 C 160.2 120.0 159.0 120.1 157.4 120.3 C 158.9 120.4 161.0 119.8 163.4 120.0 C 163.2 119.8 164.7 119.8 164.1 119.6 C 166.1 119.6 165.2 120.0 164.8 120.0 C 165.3 120.1 169.1 119.9 168.8 119.7 C 169.1 119.9 173.6 119.7 173.4 119.4 C 174.8 119.5 176.8 119.0 177.4 119.3 C 178.2 119.2 179.7 119.1 181.4 119.0 C 181.8 118.7 178.9 119.0 178.7 118.8 C 178.2 118.6 181.8 118.7 181.3 118.5 C 181.3 118.4 181.3 118.4 181.3 118.3 C 180.0 118.5 178.7 118.7 177.4 118.8 C 176.4 118.9 177.6 118.7 177.4 118.6 C 176.5 118.8 172.2 119.3 172.1 118.9 C 169.2 119.1 167.2 119.1 166.1 119.3 C 164.4 119.4 167.0 119.2 166.1 119.0 C 161.1 119.5 155.0 119.1 150.8 119.5 C 149.9 119.4 150.2 119.3 150.1 119.2 C 144.4 119.3 149.3 119.7 144.8 119.5 C 144.8 119.2 146.9 119.3 146.8 119.1 C 145.2 119.1 144.9 119.2 142.8 119.1 C 142.8 119.2 142.8 119.3 142.8 119.4 C 141.1 119.3 141.7 119.1 140.8 118.9 C 138.7 119.0 139.2 119.1 138.2 118.8 C 136.2 118.8 134.3 118.8 132.2 118.6 C 130.8 118.6 133.4 119.2 135.5 119.3 C 135.4 119.3 134.8 119.3 134.8 119.4 C 132.4 119.1 132.0 118.6 128.3 118.3 C 131.1 118.8 126.8 118.3 126.3 118.1 C 124.8 118.0 125.9 118.4 126.9 118.5 C 126.7 118.6 125.8 118.4 125.7 118.3 C 125.4 118.6 129.0 119.1 132.8 119.1 C 131.1 119.5 135.5 119.3 133.5 119.7 C 136.6 119.7 134.0 119.3 137.5 119.5 C 137.1 119.4 136.5 119.3 136.2 119.2 C 138.8 119.2 138.0 119.6 140.8 119.6 C 141.3 119.4 139.5 119.4 139.5 119.2 C 142.5 119.6 143.5 119.7 145.5 120.0 C 145.9 119.8 145.4 119.6 148.8 119.8 C 148.8 119.8 148.8 119.9 148.8 119.9 C 147.2 119.9 146.8 120.3 150.8 120.4 C 151.1 120.2 149.8 120.2 148.8 120.2 C 149.3 120.0 150.6 120.0 152.1 120.0 C 152.9 120.0 153.8 120.1 152.8 120.1 C 153.4 120.4 154.0 119.9 156.1 120.1 C 156.1 120.1 156.1 120.1 156.1 120.1 Z M 3.2 59.2 C 3.2 59.6 3.2 60.0 3.2 60.7 C 3.4 61.0 3.4 59.7 3.6 59.7 C 3.7 58.7 3.3 59.5 3.2 59.2 C 3.2 59.2 3.2 59.2 3.2 59.2 Z M 8.4 46.4 C 8.2 46.3 8.0 47.2 7.3 48.2 C 7.3 48.6 8.0 47.3 8.1 47.4 C 9.0 46.2 7.6 47.5 8.4 46.4 C 8.4 46.4 8.4 46.4 8.4 46.4 Z M 5.4 51.8 C 5.0 52.2 5.3 52.3 5.7 51.3 C 5.8 51.5 5.8 51.8 5.6 52.4 C 6.1 51.8 5.9 51.2 6.6 50.1 C 6.2 50.4 5.8 51.0 5.4 51.8 C 5.4 51.8 5.4 51.8 5.4 51.8 Z M 4.7 53.6 C 4.6 54.4 4.2 54.8 4.1 56.0 C 4.3 55.7 5.0 53.2 5.1 52.7 C 5.1 52.2 4.1 55.0 4.7 53.6 C 4.7 53.6 4.7 53.6 4.7 53.6 Z M 88.1 113.7 C 88.7 113.8 88.6 113.7 88.7 113.6 C 90.6 114.3 93.2 114.7 91.1 114.7 C 93.1 114.8 94.9 115.4 96.6 115.8 C 98.1 116.0 97.4 115.7 98.5 115.8 C 100.4 116.2 97.5 115.8 97.9 116.0 C 98.2 116.2 98.8 115.9 101.0 116.4 C 100.5 115.8 102.9 116.7 102.3 116.1 C 103.5 116.5 103.9 116.4 105.5 116.6 C 105.4 116.4 103.8 116.2 103.7 116.0 C 102.9 115.7 102.8 116.1 104.3 116.2 C 103.4 116.4 101.2 115.7 100.5 115.8 C 99.7 115.4 102.5 116.0 101.8 115.7 C 101.2 115.6 100.6 115.6 100.5 115.6 C 99.6 115.5 99.0 115.3 98.6 115.1 C 99.2 115.2 99.3 115.3 99.2 115.3 C 100.4 115.5 98.1 114.7 100.6 115.1 C 100.2 114.9 99.1 114.8 99.3 114.7 C 98.6 114.4 99.2 115.3 96.8 114.7 C 95.1 114.7 100.7 115.5 99.2 115.8 C 95.7 115.2 97.7 115.1 94.9 114.6 C 94.9 114.7 94.9 114.9 94.2 114.7 C 94.3 114.9 95.4 115.0 96.1 115.1 C 95.9 115.2 94.9 115.0 94.2 114.9 C 94.3 115.0 94.8 115.1 94.8 115.2 C 92.5 114.7 92.8 114.2 94.9 114.5 C 94.9 114.2 92.0 113.8 91.2 113.8 C 92.0 114.1 91.1 113.9 91.8 114.2 C 92.4 114.3 92.3 114.2 92.4 114.2 C 93.5 114.4 92.5 114.4 92.4 114.4 C 91.1 114.2 91.2 114.0 90.0 113.9 C 90.3 113.9 90.6 113.9 90.6 113.8 C 90.0 113.7 89.3 113.6 88.7 113.5 C 88.8 113.6 88.0 113.5 88.1 113.7 C 88.1 113.7 88.1 113.7 88.1 113.7 Z M 121.0 118.7 C 123.2 119.0 122.0 118.6 121.0 118.6 C 121.5 118.5 122.2 118.5 123.0 118.6 C 122.4 118.4 121.8 118.4 119.8 118.2 C 121.6 118.0 119.8 117.5 116.5 117.2 C 115.5 117.6 118.2 117.9 117.1 118.0 C 119.5 118.1 120.8 118.4 121.0 118.7 C 121.0 118.7 121.0 118.7 121.0 118.7 Z M 15.9 38.3 C 15.0 39.1 14.1 39.9 13.2 40.8 C 13.5 40.8 16.4 38.3 15.9 38.3 C 15.9 38.3 15.9 38.3 15.9 38.3 Z M 102.3 7.5 C 102.8 7.4 102.9 7.4 103.0 7.5 C 104.8 7.1 102.1 7.4 102.9 7.1 C 102.2 7.2 101.6 7.2 101.0 7.3 C 100.9 7.5 103.6 7.2 101.7 7.6 C 101.8 7.6 102.3 7.5 102.3 7.5 C 102.3 7.5 102.3 7.5 102.3 7.5 Z M 3.7 58.3 C 3.6 59.2 3.9 58.7 3.7 60.7 C 4.0 60.0 3.9 59.5 4.1 58.4 C 3.9 58.3 3.8 58.3 3.7 58.3 C 3.7 58.3 3.7 58.3 3.7 58.3 Z M 79.0 112.2 C 80.4 112.8 80.9 112.3 83.8 113.1 C 82.4 112.5 80.7 112.5 79.0 112.2 C 79.0 112.2 79.0 112.2 79.0 112.2 Z M 186.6 118.2 C 185.6 118.2 186.8 118.0 185.2 118.1 C 184.3 118.2 184.0 118.4 182.6 118.5 C 184.5 118.6 187.8 118.1 189.2 118.4 C 190.8 118.2 190.6 117.9 191.1 117.7 C 190.3 117.8 190.0 117.8 189.8 117.7 C 188.9 118.2 187.7 117.7 186.6 118.2 C 186.6 118.2 186.6 118.2 186.6 118.2 Z M 112.6 117.5 C 111.4 117.2 113.4 117.4 113.9 117.2 C 114.8 117.4 114.5 117.5 114.6 117.6 C 115.7 117.7 116.0 117.6 115.9 117.4 C 113.7 117.2 111.1 116.9 112.7 116.7 C 110.6 116.4 111.7 116.9 110.7 116.8 C 109.6 116.5 110.7 116.6 110.8 116.3 C 110.3 116.3 108.7 116.4 108.8 116.1 C 105.7 116.1 107.1 116.6 109.3 117.3 C 111.4 117.3 109.0 116.9 112.6 117.5 C 112.6 117.5 112.6 117.5 112.6 117.5 Z M 34.1 96.7 C 34.3 96.9 35.6 97.5 35.6 97.6 C 37.2 98.1 38.8 98.6 40.4 99.0 C 40.2 98.7 38.0 97.9 38.8 98.5 C 38.2 98.0 36.8 97.2 36.0 96.7 C 34.5 95.9 33.8 96.1 33.8 95.7 C 32.3 95.1 33.1 95.5 31.0 94.3 C 34.3 96.4 29.7 93.7 29.4 93.9 C 31.3 95.0 33.1 95.9 33.0 95.5 C 34.4 96.4 36.1 97.3 36.4 97.7 C 36.2 97.7 35.0 97.1 34.1 96.7 C 34.1 96.7 34.1 96.7 34.1 96.7 Z M 43.7 100.3 C 43.0 100.0 42.4 99.8 41.3 99.3 C 41.9 99.7 42.1 99.9 41.9 100.0 C 44.0 100.8 44.6 100.9 45.2 101.4 C 47.2 102.2 44.8 100.9 47.9 102.2 C 47.6 102.0 46.1 101.4 46.2 101.3 C 45.9 101.4 44.6 101.0 43.7 100.3 C 43.7 100.3 43.7 100.3 43.7 100.3 Z M 61.9 107.2 C 63.3 107.6 61.2 106.8 62.0 106.9 C 61.6 106.8 58.9 105.9 59.3 105.8 C 58.6 105.2 55.7 105.0 56.1 104.7 C 55.5 104.5 55.6 104.7 55.5 104.7 C 57.4 105.3 57.3 105.5 56.0 105.1 C 56.1 105.2 57.3 105.6 58.1 105.8 C 58.2 105.7 57.5 105.5 57.7 105.4 C 59.2 106.0 60.4 106.6 61.9 107.2 C 61.9 107.2 61.9 107.2 61.9 107.2 Z M 174.0 4.9 C 172.4 4.8 171.5 4.8 170.7 4.8 C 171.1 5.0 171.9 4.9 172.7 4.9 C 172.9 5.1 172.2 5.1 171.3 5.0 C 172.1 5.3 174.9 5.2 174.0 4.9 C 174.0 4.9 174.0 4.9 174.0 4.9 Z M 160.7 4.5 C 159.2 4.4 158.2 4.5 158.0 4.6 C 158.6 4.8 158.4 4.5 159.4 4.5 C 160.0 4.6 160.4 4.7 160.7 4.8 C 161.4 4.8 161.2 4.7 161.4 4.7 C 161.9 4.7 162.0 4.7 162.1 4.7 C 163.9 4.6 159.9 4.7 160.7 4.5 C 160.7 4.5 160.7 4.5 160.7 4.5 Z M 52.8 104.1 C 52.4 103.8 52.1 103.6 50.8 103.1 C 51.0 103.4 50.0 103.0 49.2 102.7 C 50.3 103.3 51.0 103.4 52.8 104.1 C 52.8 104.1 52.8 104.1 52.8 104.1 Z M 80.3 12.0 C 78.4 12.2 78.7 12.5 76.1 12.9 C 76.1 13.0 76.2 13.1 76.2 13.2 C 77.7 12.6 78.4 12.6 80.3 12.0 C 80.3 12.0 80.3 12.0 80.3 12.0 Z M 301.8 72.7 C 301.7 72.5 301.1 73.9 300.9 73.9 C 301.1 74.3 300.3 74.7 298.6 77.2 C 298.5 77.2 298.5 77.0 298.8 76.7 C 297.3 78.7 299.4 76.3 299.7 76.1 C 300.8 74.5 301.1 74.3 301.8 72.7 C 301.8 72.7 301.8 72.7 301.8 72.7 Z M 166.8 118.6 C 166.6 118.7 167.0 118.7 167.4 118.6 C 167.9 118.6 168.3 118.6 168.7 118.6 C 168.6 118.3 166.4 118.2 168.0 117.8 C 167.4 117.8 167.4 117.9 167.4 117.9 C 164.2 118.7 161.6 117.6 157.4 118.1 C 156.8 118.1 156.9 118.2 156.8 118.3 C 157.3 118.3 157.4 118.3 157.4 118.4 C 158.0 118.0 161.8 118.4 160.1 118.5 C 160.2 118.6 160.7 118.5 160.7 118.5 C 161.2 118.5 161.6 118.5 162.1 118.5 C 161.8 118.4 160.9 118.4 160.7 118.2 C 162.9 118.3 165.5 118.3 164.1 118.7 C 165.4 118.6 165.9 118.5 166.8 118.3 C 167.6 118.3 167.6 118.6 166.8 118.6 C 166.8 118.6 166.8 118.6 166.8 118.6 Z M 183.9 117.6 C 185.9 117.5 185.1 117.3 187.1 117.2 C 185.9 117.1 184.3 117.5 182.6 117.5 C 182.8 117.5 183.7 117.5 183.9 117.6 C 183.9 117.6 183.9 117.6 183.9 117.6 Z M 145.5 118.3 C 145.9 118.0 144.1 117.9 142.2 117.9 C 141.8 118.2 143.5 118.2 145.5 118.3 C 145.5 118.3 145.5 118.3 145.5 118.3 Z M 154.1 118.4 C 156.1 118.3 151.7 118.3 152.8 118.1 C 151.9 118.1 150.9 118.1 150.8 118.0 C 150.1 118.0 150.1 118.1 148.8 118.1 C 148.9 118.3 151.0 118.2 150.8 118.4 C 152.3 118.2 152.6 118.2 154.1 118.4 C 154.1 118.4 154.1 118.4 154.1 118.4 Z M 155.4 118.4 C 156.7 118.3 155.1 117.9 153.5 117.9 C 154.1 118.1 154.5 118.3 155.4 118.4 C 155.4 118.4 155.4 118.4 155.4 118.4 Z M 12.3 79.2 C 12.8 79.7 12.5 79.2 13.2 79.8 C 13.2 79.8 11.1 77.3 12.9 79.3 C 12.5 78.4 11.8 78.3 11.2 77.3 C 11.3 77.6 11.4 77.9 11.0 77.4 C 10.6 77.2 12.7 79.3 12.3 79.2 C 12.3 79.2 12.3 79.2 12.3 79.2 Z M 14.5 81.6 C 15.0 82.1 14.8 81.8 14.6 81.6 C 14.7 81.6 15.4 82.3 15.9 82.8 C 15.9 82.9 15.2 81.6 15.4 81.5 C 13.2 79.6 14.6 81.4 14.5 81.6 C 14.5 81.6 14.5 81.6 14.5 81.6 Z M 16.7 83.6 C 18.1 85.1 20.4 86.8 21.7 87.5 C 20.7 86.3 17.7 84.0 16.7 83.6 C 16.7 83.6 16.7 83.6 16.7 83.6 Z M 6.8 69.8 C 7.5 72.4 10.6 77.2 8.4 72.6 C 8.4 72.8 6.9 69.9 6.5 68.4 C 6.4 68.4 5.8 66.8 5.9 66.8 C 5.4 65.7 6.8 70.4 6.8 69.8 C 6.8 69.8 6.8 69.8 6.8 69.8 Z M 24.2 88.6 C 23.2 88.1 24.1 89.3 22.8 88.2 C 22.0 87.6 23.0 88.4 22.7 88.4 C 24.4 89.6 28.4 91.8 28.6 92.2 C 29.7 92.7 30.1 92.8 32.0 93.9 C 32.2 93.8 25.2 90.1 24.1 88.8 C 24.3 88.8 26.5 90.2 24.2 88.6 C 24.2 88.6 24.2 88.6 24.2 88.6 Z M 80.6 13.4 C 80.7 13.2 78.3 13.9 78.7 13.5 C 77.5 14.1 76.2 14.2 74.7 14.7 C 74.3 14.8 74.4 14.4 72.3 14.8 C 72.3 15.1 73.3 14.8 72.4 15.1 C 70.6 15.6 71.0 15.2 68.9 15.9 C 69.3 16.2 64.6 17.2 65.1 17.4 C 66.2 17.1 66.1 16.9 67.9 16.5 C 68.5 16.3 68.3 16.5 69.0 16.3 C 68.5 16.7 67.5 16.6 66.8 17.0 C 67.0 17.1 68.4 16.8 68.6 16.9 C 69.4 16.6 68.3 16.8 68.5 16.6 C 70.7 16.0 68.5 17.2 70.9 16.5 C 70.4 16.4 70.3 16.4 70.8 16.1 C 71.8 15.9 74.7 15.0 73.1 15.7 C 73.3 15.8 75.1 15.1 74.8 15.1 C 75.8 14.8 75.9 14.9 76.0 14.9 C 78.5 14.3 78.8 14.0 78.2 13.9 C 78.7 13.5 79.1 13.8 80.6 13.4 C 80.6 13.4 80.6 13.4 80.6 13.4 Z M 6.2 56.1 C 6.3 55.0 5.9 57.2 5.7 58.2 C 6.0 57.0 6.2 57.4 6.6 56.2 C 6.3 56.6 6.3 56.5 6.5 55.7 C 6.5 55.4 5.9 57.3 6.2 56.1 C 6.2 56.1 6.2 56.1 6.2 56.1 Z M 36.3 96.1 C 37.0 96.6 41.0 98.3 43.2 99.3 C 42.9 98.8 37.6 96.9 37.1 96.3 C 35.9 95.7 37.7 96.7 36.3 96.1 C 36.3 96.1 36.3 96.1 36.3 96.1 Z M 58.9 18.8 C 58.4 19.0 58.7 18.9 59.0 18.8 C 58.8 19.0 57.7 19.3 56.9 19.6 C 58.1 19.4 56.7 19.9 57.0 20.1 C 56.4 20.3 56.1 20.4 56.0 20.5 C 55.8 20.1 52.7 21.8 56.1 20.8 C 55.4 20.7 55.7 20.7 57.0 20.1 C 58.6 19.8 59.7 19.2 60.3 19.3 C 61.3 19.0 61.7 18.7 63.0 18.4 C 63.4 18.5 64.6 18.2 63.7 18.8 C 66.1 18.1 64.3 18.0 66.3 17.4 C 68.3 17.0 65.4 17.9 65.9 18.0 C 66.4 17.9 66.3 18.0 66.5 18.0 C 67.2 17.8 67.1 17.6 66.4 17.8 C 66.6 17.7 68.5 16.9 68.1 17.3 C 69.2 16.9 66.1 17.1 64.6 17.8 C 63.7 18.1 63.6 17.6 64.5 17.4 C 64.1 17.3 62.5 18.4 62.8 17.8 C 62.1 18.0 61.4 18.2 60.6 18.4 C 60.8 18.4 61.2 18.3 61.2 18.4 C 60.5 18.6 59.8 18.8 59.0 19.1 C 59.6 18.8 59.6 18.7 58.9 18.8 C 58.9 18.8 58.9 18.8 58.9 18.8 Z M 27.5 91.2 C 29.1 92.1 29.5 92.2 30.8 92.9 C 30.4 92.5 26.9 90.5 27.5 91.2 C 27.5 91.2 27.5 91.2 27.5 91.2 Z M 91.0 12.1 C 90.8 12.1 89.7 12.3 89.7 12.2 C 91.6 11.7 89.4 12.0 90.8 11.3 C 88.4 12.0 87.7 12.7 91.0 12.3 C 93.4 11.8 88.5 12.6 91.0 12.1 C 91.0 12.1 91.0 12.1 91.0 12.1 Z M 83.6 13.3 C 82.2 13.8 85.9 13.1 86.7 13.1 C 86.8 13.1 86.8 13.2 86.8 13.3 C 88.8 12.5 86.0 12.9 87.8 12.1 C 85.4 12.5 84.4 12.6 82.4 13.1 C 82.5 13.2 83.0 13.0 83.0 13.0 C 84.5 12.7 83.5 13.3 81.8 13.5 C 82.3 13.5 83.8 13.2 84.8 13.0 C 84.5 13.0 84.2 13.0 84.2 12.9 C 85.5 12.6 85.1 12.9 86.0 12.7 C 86.0 12.8 83.7 13.5 83.6 13.3 C 83.6 13.3 83.6 13.3 83.6 13.3 Z M 210.6 10.3 C 209.3 10.2 211.8 10.9 211.7 11.2 C 213.0 11.5 213.3 11.4 214.2 11.5 C 213.8 11.3 212.3 11.1 211.7 10.8 C 212.0 10.6 213.7 11.2 214.2 11.1 C 215.1 10.8 211.1 10.7 210.6 10.3 C 210.6 10.3 210.6 10.3 210.6 10.3 Z M 28.3 32.4 C 27.6 32.8 28.0 32.7 28.3 32.5 C 28.3 32.7 27.2 33.3 27.1 33.2 C 26.2 33.8 27.7 33.0 26.6 33.7 C 26.5 34.0 28.4 32.7 28.4 32.6 C 29.8 31.7 28.8 32.6 29.3 32.5 C 30.5 31.8 29.9 31.9 31.8 30.9 C 30.6 31.4 29.6 31.8 28.3 32.4 C 28.3 32.4 28.3 32.4 28.3 32.4 Z M 95.1 10.9 C 95.4 10.8 93.8 11.5 92.1 11.6 C 90.0 12.0 93.5 11.6 91.5 11.9 C 93.2 11.7 95.1 11.2 97.6 10.7 C 98.2 10.5 94.1 11.3 96.4 10.8 C 96.3 10.7 95.7 10.8 95.8 10.9 C 95.3 11.0 95.2 10.9 95.1 10.9 C 95.1 10.9 95.1 10.9 95.1 10.9 Z M 92.8 11.9 C 92.9 11.9 93.4 11.8 93.4 11.8 C 94.2 11.6 94.2 11.9 93.5 12.0 C 94.5 12.1 94.4 11.6 96.5 11.4 C 95.6 11.4 95.1 11.3 97.1 11.2 C 98.6 10.7 93.5 11.6 92.8 11.9 C 92.8 11.9 92.8 11.9 92.8 11.9 Z M 190.2 8.0 C 190.4 8.1 191.8 8.2 192.8 8.3 C 191.5 8.4 186.3 7.8 185.7 7.6 C 185.1 7.6 184.5 7.6 184.3 7.5 C 184.4 7.6 182.9 7.6 183.7 7.7 C 183.6 7.8 182.4 7.6 182.4 7.8 C 180.4 7.6 183.0 7.6 182.4 7.4 C 180.1 7.5 180.6 7.3 177.8 7.1 C 178.3 7.4 181.3 7.5 181.1 7.8 C 183.2 7.7 185.6 8.1 186.9 8.4 C 184.9 7.9 192.5 8.4 196.0 8.8 C 195.8 9.0 197.1 9.1 198.5 9.3 C 199.5 9.7 199.2 9.1 197.3 9.0 C 197.4 8.9 200.0 9.3 201.1 9.4 C 199.8 9.1 200.5 9.1 199.9 8.9 C 197.4 8.6 199.6 9.0 199.2 9.1 C 198.5 9.0 197.9 9.0 197.2 8.9 C 200.6 8.9 192.4 8.3 195.4 8.6 C 192.7 8.3 192.7 8.1 190.2 8.0 C 190.2 8.0 190.2 8.0 190.2 8.0 Z M 128.4 7.1 C 127.9 7.2 125.8 7.5 125.8 7.3 C 123.1 7.7 125.5 7.7 122.5 8.0 C 122.7 8.0 123.8 7.9 123.8 8.0 C 125.0 7.9 126.1 7.7 125.8 7.5 C 127.1 7.4 127.5 7.3 128.4 7.2 C 128.1 7.3 127.6 7.4 126.4 7.5 C 126.2 7.7 126.7 7.8 128.4 7.7 C 129.2 7.4 128.6 7.3 128.4 7.1 C 128.4 7.1 128.4 7.1 128.4 7.1 Z M 121.9 7.9 C 121.5 7.9 121.1 7.9 121.2 7.8 C 120.2 7.6 120.8 8.1 119.9 8.2 C 119.1 8.3 119.4 8.1 119.2 8.0 C 118.1 8.2 117.2 8.3 116.7 8.3 C 114.9 8.6 118.7 8.3 119.3 8.3 C 120.5 8.2 120.1 8.0 121.9 7.9 C 121.9 7.9 121.9 7.9 121.9 7.9 Z M 102.6 9.9 C 102.3 9.7 101.7 10.1 100.8 10.2 C 101.4 10.3 103.3 9.9 102.1 10.4 C 103.9 10.2 104.0 10.2 105.9 9.9 C 107.1 10.0 105.9 9.7 104.0 10.1 C 104.2 9.9 105.1 9.8 105.2 9.7 C 106.5 10.0 109.6 8.8 107.7 9.4 C 107.1 9.4 106.8 9.4 106.4 9.3 C 106.0 9.6 101.7 10.1 102.6 9.9 C 102.6 9.9 102.6 9.9 102.6 9.9 Z M 43.5 25.3 C 45.1 24.6 45.9 24.3 46.8 24.0 C 47.6 23.6 48.8 23.2 49.9 22.8 C 49.9 22.9 49.8 23.0 49.4 23.1 C 49.9 23.1 50.5 22.8 51.4 22.4 C 51.3 22.3 50.9 22.6 50.9 22.6 C 49.2 23.0 50.6 22.5 50.8 22.2 C 48.7 22.8 45.7 24.4 44.2 24.7 C 43.0 25.3 44.5 24.7 43.5 25.3 C 43.5 25.3 43.5 25.3 43.5 25.3 Z M 300.8 70.2 C 300.8 70.4 300.5 71.1 300.7 71.1 C 300.9 70.4 301.0 70.0 301.2 69.4 C 300.7 70.5 300.5 70.2 299.8 71.7 C 300.1 71.2 300.3 71.5 300.8 70.2 C 300.8 70.2 300.8 70.2 300.8 70.2 Z M 109.0 9.1 C 109.1 9.2 109.1 9.3 108.4 9.4 C 108.2 9.6 110.2 9.3 110.3 9.4 C 111.0 9.3 110.7 9.2 111.6 9.1 C 111.2 9.0 109.6 9.3 110.2 9.0 C 110.8 8.9 110.9 8.9 110.9 9.0 C 112.2 8.7 110.2 8.9 109.0 9.1 C 109.0 9.1 109.0 9.1 109.0 9.1 Z M 216.7 11.6 C 215.8 11.4 216.7 11.7 217.3 11.8 C 215.5 11.8 218.3 12.4 218.4 12.7 C 217.6 12.3 215.2 12.0 214.8 11.9 C 214.0 11.8 214.9 12.2 212.9 11.9 C 213.1 12.1 215.3 12.3 214.7 12.0 C 215.2 12.4 217.4 12.4 217.2 12.7 C 219.9 13.2 220.5 13.2 220.8 13.0 C 218.2 12.6 219.6 12.4 217.3 12.1 C 217.3 12.0 218.0 12.1 218.5 12.2 C 218.3 12.0 217.3 11.8 216.7 11.6 C 216.7 11.6 216.7 11.6 216.7 11.6 Z M 149.4 6.5 C 148.0 6.5 148.0 6.7 148.1 6.9 C 148.7 6.8 149.6 6.8 150.7 6.8 C 150.5 6.6 148.7 6.7 149.4 6.5 C 149.4 6.5 149.4 6.5 149.4 6.5 Z M 206.7 10.3 C 206.6 10.2 206.1 10.2 206.1 10.2 C 204.5 10.0 204.2 9.8 203.6 9.7 C 202.7 9.6 203.0 9.8 203.0 9.9 C 204.5 9.9 204.1 10.2 206.1 10.4 C 206.0 10.3 206.2 10.3 206.7 10.3 C 206.7 10.3 206.7 10.3 206.7 10.3 Z M 163.3 6.7 C 162.5 6.7 162.9 6.8 163.3 6.8 C 162.4 7.0 159.7 6.7 158.7 6.9 C 158.5 7.1 161.9 7.0 158.0 7.1 C 158.7 7.3 162.2 7.2 163.9 7.3 C 163.6 7.5 161.2 7.4 161.3 7.7 C 163.4 7.6 165.6 7.5 165.9 7.2 C 163.0 7.1 164.0 6.9 163.3 6.7 C 163.3 6.7 163.3 6.7 163.3 6.7 Z M 166.6 6.9 C 166.3 6.8 165.8 6.9 164.7 6.9 C 166.3 7.2 167.2 7.1 170.6 7.3 C 170.6 7.3 170.6 7.2 170.6 7.2 C 171.2 7.2 171.9 7.2 172.6 7.3 C 169.7 6.9 169.0 7.0 166.0 7.0 C 165.8 6.9 166.2 6.9 166.6 6.9 C 166.6 6.9 166.6 6.9 166.6 6.9 Z M 80.7 14.1 C 81.6 14.1 82.3 14.1 83.7 13.8 C 83.6 13.6 82.7 13.7 80.7 14.1 C 80.7 14.1 80.7 14.1 80.7 14.1 Z M 209.2 10.8 C 210.9 11.0 207.5 10.6 208.5 11.0 C 209.9 11.3 211.3 11.6 211.6 11.9 C 214.1 11.9 208.8 11.1 209.2 10.8 C 209.2 10.8 209.2 10.8 209.2 10.8 Z M 197.8 9.9 C 197.1 9.8 197.1 9.4 197.8 9.7 C 199.6 10.0 196.3 9.3 199.1 9.7 C 197.9 9.5 195.3 9.1 194.0 9.1 C 194.0 9.3 196.5 9.5 196.5 9.7 C 196.6 9.8 196.3 9.7 195.9 9.7 C 196.1 9.8 196.7 9.7 197.8 9.9 C 197.8 9.9 197.8 9.9 197.8 9.9 Z M 188.2 8.5 C 189.3 8.8 190.5 9.0 192.7 9.2 C 191.3 8.9 190.5 8.6 188.2 8.5 C 188.2 8.5 188.2 8.5 188.2 8.5 Z M 297.4 48.9 C 296.8 48.0 297.1 49.0 297.2 49.1 C 297.8 50.1 297.9 49.9 298.5 51.1 C 298.5 50.6 297.6 49.7 297.4 48.9 C 297.4 48.9 297.4 48.9 297.4 48.9 Z M 299.3 52.6 C 299.2 52.7 299.9 54.1 299.8 54.2 C 300.6 54.8 300.2 56.3 300.6 56.2 C 300.6 56.5 300.7 56.8 300.8 57.4 C 300.9 56.2 299.9 53.7 299.3 52.6 C 299.3 52.6 299.3 52.6 299.3 52.6 Z M 177.1 8.2 C 175.4 8.1 177.6 8.6 175.8 8.5 C 175.6 8.6 179.1 8.8 177.0 8.8 C 179.7 9.1 176.9 8.3 177.1 8.2 C 177.1 8.2 177.1 8.2 177.1 8.2 Z M 144.8 7.9 C 145.0 7.7 142.5 7.9 141.6 7.9 C 141.6 8.0 142.3 8.0 142.8 8.0 C 142.6 8.0 142.3 8.1 141.6 8.2 C 142.1 8.3 143.9 8.0 144.8 7.9 C 144.8 7.9 144.8 7.9 144.8 7.9 Z M 180.7 4.3 C 181.7 4.6 183.1 4.9 183.9 4.6 C 185.1 4.9 183.1 4.8 184.5 5.0 C 186.4 5.0 185.5 5.2 188.5 5.3 C 187.9 5.6 190.0 5.8 190.4 6.0 C 189.2 5.9 187.7 5.5 187.1 5.7 C 188.1 5.8 187.5 6.0 187.1 5.8 C 185.1 5.5 189.5 5.7 187.1 5.3 C 186.4 5.6 182.9 4.7 180.6 4.6 C 181.5 4.5 178.9 4.2 180.7 4.3 C 180.7 4.3 180.7 4.3 180.7 4.3 Z M 192.4 5.7 C 193.9 5.9 194.7 6.4 194.3 6.4 C 194.3 6.3 192.5 6.1 192.3 6.2 C 192.8 6.2 193.1 6.3 193.0 6.3 C 190.1 6.0 191.1 5.9 190.4 5.7 C 192.0 5.7 192.5 5.9 193.0 5.9 C 192.7 5.8 192.3 5.8 192.4 5.7 C 192.4 5.7 192.4 5.7 192.4 5.7 Z M 224.9 14.6 C 224.6 14.4 224.2 14.5 223.6 14.4 C 223.6 14.0 220.5 13.9 220.1 13.6 C 220.8 13.7 222.4 14.0 223.1 14.0 C 222.3 13.8 222.2 13.7 221.3 13.6 C 221.5 13.4 223.3 13.8 223.8 13.7 C 223.9 13.9 224.8 13.9 225.0 14.0 C 222.6 13.7 226.2 14.8 224.9 14.6 C 224.9 14.6 224.9 14.6 224.9 14.6 Z M 162.0 8.0 C 161.7 8.2 164.6 8.8 162.0 9.1 C 161.4 8.9 161.1 8.6 161.3 8.3 C 159.7 8.5 159.0 8.2 158.0 8.5 C 155.0 7.7 160.3 8.5 162.0 8.0 C 162.0 8.0 162.0 8.0 162.0 8.0 Z M 151.4 8.1 C 152.0 7.9 150.5 7.9 150.7 7.7 C 152.0 7.9 156.2 7.6 154.7 7.8 C 153.4 7.9 153.4 8.1 151.4 8.1 C 151.4 8.1 151.4 8.1 151.4 8.1 Z M 72.5 108.4 C 70.6 108.1 69.7 107.4 70.8 107.6 C 70.3 107.7 73.1 108.3 72.5 108.4 C 72.5 108.4 72.5 108.4 72.5 108.4 Z M 5.6 75.3 C 6.3 76.7 6.9 77.4 6.8 77.7 C 5.9 76.4 6.1 76.5 5.5 75.3 C 5.3 75.3 4.9 74.6 4.9 74.5 C 5.2 75.1 5.3 74.9 5.6 75.3 C 5.6 75.3 5.6 75.3 5.6 75.3 Z M 111.1 4.8 C 110.9 4.7 110.1 4.8 110.4 4.6 C 112.4 4.5 114.6 4.0 116.2 3.7 C 116.2 3.8 116.2 3.9 116.3 4.0 C 113.1 4.3 112.3 4.5 111.1 4.8 C 111.1 4.8 111.1 4.8 111.1 4.8 Z M 107.1 4.8 C 106.8 5.0 107.9 5.1 106.6 5.3 C 106.6 5.1 104.1 5.2 105.2 5.0 C 105.6 5.1 106.3 5.0 107.1 4.8 C 107.1 4.8 107.1 4.8 107.1 4.8 Z M 217.2 8.4 C 218.7 8.7 216.6 8.1 216.7 8.0 C 217.8 8.2 219.3 8.5 219.7 8.7 C 218.6 8.5 217.8 8.7 217.2 8.4 C 217.2 8.4 217.2 8.4 217.2 8.4 Z M 193.7 5.8 C 190.3 5.4 191.8 5.2 188.5 4.8 C 189.9 4.7 192.9 5.1 193.8 5.0 C 193.6 5.1 194.5 5.2 194.4 5.3 C 193.2 5.2 193.0 5.1 191.8 5.0 C 192.2 5.3 192.2 5.2 191.7 5.4 C 192.6 5.5 193.2 5.5 193.7 5.5 C 193.4 5.6 194.6 5.8 193.7 5.8 C 193.7 5.8 193.7 5.8 193.7 5.8 Z M 216.5 8.9 C 217.8 9.1 218.8 9.6 217.7 9.4 C 217.6 9.2 216.7 9.3 216.5 9.1 C 218.3 9.3 215.1 8.7 215.9 8.7 C 217.0 8.9 217.4 8.8 217.2 8.6 C 217.9 8.8 219.0 9.0 219.0 9.1 C 218.6 9.0 217.8 8.8 217.8 8.9 C 218.2 9.0 218.5 9.1 218.4 9.1 C 217.3 8.9 216.8 8.9 216.5 8.9 C 216.5 8.9 216.5 8.9 216.5 8.9 Z M 207.8 7.6 C 209.5 7.8 209.7 8.1 210.2 8.3 C 207.9 7.9 207.6 7.5 205.9 7.1 C 207.8 7.5 209.8 7.4 210.3 7.7 C 209.5 7.6 207.9 7.4 207.8 7.6 C 207.8 7.6 207.8 7.6 207.8 7.6 Z M 237.4 109.8 C 236.0 110.0 234.9 110.1 233.3 110.4 C 232.8 110.8 235.8 110.5 234.6 110.7 C 233.0 111.1 234.0 110.5 232.7 110.8 C 234.1 110.8 227.2 112.3 226.8 112.1 C 227.9 111.9 228.2 111.7 227.9 111.6 C 230.7 111.0 231.8 110.6 233.8 110.0 C 235.4 110.0 239.6 109.0 241.8 108.1 C 243.4 108.1 245.9 106.9 248.0 106.6 C 248.5 106.3 246.3 106.9 247.9 106.3 C 249.1 106.2 248.3 106.6 249.7 106.3 C 249.8 106.1 249.4 106.0 250.2 105.8 C 250.1 106.0 251.0 105.7 251.3 105.7 C 248.4 106.6 251.6 105.9 249.3 106.7 C 248.3 106.9 250.2 106.0 247.5 106.8 C 246.6 107.2 245.7 107.6 246.0 107.7 C 245.2 107.9 244.8 108.1 244.3 108.3 C 245.3 107.7 240.5 109.4 242.6 108.5 C 242.8 108.5 244.3 108.1 245.4 107.7 C 244.3 107.7 243.2 108.2 241.4 108.8 C 240.6 108.8 241.7 108.4 240.8 108.6 C 239.4 109.1 241.4 108.8 240.3 109.2 C 240.8 109.1 241.5 108.9 241.5 109.0 C 239.0 109.4 238.1 109.9 236.9 110.2 C 237.7 109.8 235.4 110.3 237.4 109.8 C 237.4 109.8 237.4 109.8 237.4 109.8 Z M 257.1 103.5 C 257.6 103.4 258.1 103.2 258.7 103.0 C 258.9 103.2 256.9 103.9 258.3 103.6 C 256.0 104.4 258.3 103.3 257.1 103.5 C 257.1 103.5 257.1 103.5 257.1 103.5 Z M 246.2 106.2 C 245.3 106.2 245.9 106.6 245.1 106.8 C 246.4 106.4 247.7 105.9 247.9 106.1 C 246.3 106.5 245.6 106.7 244.0 107.3 C 245.5 106.5 242.2 107.5 241.6 107.4 C 242.9 107.0 243.8 106.6 245.5 106.1 C 245.3 106.3 247.7 105.7 246.2 106.2 C 246.2 106.2 246.2 106.2 246.2 106.2 Z M 250.4 104.5 C 250.8 104.6 253.1 103.7 252.6 104.1 C 251.2 104.6 250.7 104.8 251.1 104.9 C 250.1 105.3 249.9 105.2 248.9 105.5 C 248.2 105.4 249.9 104.9 250.4 104.6 C 250.1 104.7 249.8 104.7 250.4 104.5 C 250.4 104.5 250.4 104.5 250.4 104.5 Z M 294.0 79.0 C 294.5 78.8 292.9 80.3 292.6 80.6 C 293.2 80.3 293.0 80.6 292.1 81.7 C 292.2 81.0 290.8 82.6 289.5 83.2 C 289.4 83.6 290.8 82.5 289.3 83.9 C 288.0 84.9 286.9 85.9 284.8 87.4 C 284.1 87.5 285.1 86.8 285.6 86.4 C 284.2 87.4 284.5 87.0 283.3 87.7 C 283.6 87.7 282.7 88.4 282.3 88.5 C 284.2 87.1 279.4 90.0 281.5 88.6 C 281.6 88.6 282.1 88.2 282.6 87.8 C 282.2 88.5 284.9 86.5 285.5 86.3 C 286.2 85.1 289.0 83.3 291.6 81.1 C 291.8 81.1 291.1 81.9 291.7 81.3 C 291.7 81.1 292.5 80.4 292.8 80.0 C 292.9 80.1 293.2 79.9 293.7 79.4 C 293.7 79.3 293.7 79.3 294.0 79.0 C 294.0 79.0 294.0 79.0 294.0 79.0 Z M 132.3 116.0 C 132.5 115.6 128.3 115.6 127.1 115.6 C 127.3 115.2 134.7 115.7 132.3 116.0 C 132.3 116.0 132.3 116.0 132.3 116.0 Z M 158.1 116.3 C 157.0 116.3 157.7 116.5 156.8 116.5 C 156.7 116.3 154.2 116.8 154.1 116.5 C 155.4 116.3 156.1 116.3 158.1 116.3 C 158.1 116.3 158.1 116.3 158.1 116.3 Z M 181.8 115.4 C 179.9 115.6 182.8 115.5 182.4 115.6 C 180.8 115.7 179.1 115.8 179.2 115.6 C 180.6 115.6 181.6 115.2 181.8 115.4 C 181.8 115.4 181.8 115.4 181.8 115.4 Z M 146.2 116.0 C 144.6 115.8 147.3 115.6 147.5 115.8 C 145.8 115.8 148.7 116.0 150.1 116.0 C 150.1 116.3 149.4 116.2 150.1 116.4 C 147.8 116.5 149.8 116.2 148.1 116.2 C 147.1 116.3 148.2 116.3 148.1 116.5 C 147.5 116.5 146.9 116.5 146.2 116.5 C 146.2 116.3 146.2 116.2 146.2 116.1 C 147.0 116.1 147.8 116.1 147.5 115.9 C 146.9 115.9 146.7 116.0 146.2 116.0 C 146.2 116.0 146.2 116.0 146.2 116.0 Z M 263.3 97.8 C 262.0 98.3 263.2 97.9 264.1 97.6 C 264.3 97.4 264.9 96.6 266.4 96.3 C 263.4 97.8 267.5 96.2 265.8 97.0 C 265.0 97.1 263.3 98.2 261.7 98.7 C 261.0 98.8 262.5 97.8 263.3 97.8 C 263.3 97.8 263.3 97.8 263.3 97.8 Z M 268.8 95.5 C 268.7 95.5 268.1 95.7 267.3 96.2 C 268.1 95.5 266.8 96.1 267.9 95.5 C 267.8 95.7 271.8 93.9 269.5 95.0 C 267.4 95.9 270.1 94.9 271.1 94.5 C 270.1 94.9 268.4 96.0 268.1 96.0 C 268.6 95.7 269.0 95.5 268.8 95.5 C 268.8 95.5 268.8 95.5 268.8 95.5 Z M 298.9 70.8 C 298.9 70.6 298.5 71.2 298.3 71.4 C 299.4 69.5 299.9 67.8 300.2 66.9 C 300.0 67.8 300.2 67.8 300.4 67.3 C 300.0 68.3 300.1 68.6 299.8 68.9 C 300.0 68.0 299.5 69.6 298.9 70.8 C 298.9 70.8 298.9 70.8 298.9 70.8 Z M 298.9 70.8 " fill="#000000"></path><image xlink:href="../../CEFA4209-80C9-472B-8D2B-058B96531B72/assets/53DE529C9B23CC4742AB8E7F7EB62785.png" width="153.00" height="39.00" transform="matrix(1.00, 0.00, -0.00, -1.00, 79.0, 77.0)"></image><g><clipPath id="clip-300"><path d="M 5.4 5.6 L 303.5 5.6 L 303.5 118.0 L 5.4 118.0 Z M 5.4 5.6 "></path></clipPath><g clip-path="url(#clip-300)"><text xml:space="preserve" font-family="Chalkduster" font-size="32.0" fill="#000000" transform="matrix(1.00, 0.00, -0.00, -1.00, 82.0, 47.0)">N</text><text xml:space="preserve" font-family="Chalkduster" font-size="32.0" fill="#000000" transform="matrix(1.00, 0.00, -0.00, -1.00, 104.8, 47.0)">F</text><text xml:space="preserve" font-family="Chalkduster" font-size="32.0" fill="#000000" transform="matrix(1.00, 0.00, -0.00, -1.00, 128.6, 47.0)">S</text><text xml:space="preserve" font-family="Chalkduster" font-size="32.0" fill="#000000" transform="matrix(1.00, 0.00, -0.00, -1.00, 144.5, 47.0)"> </text><text xml:space="preserve" font-family="Chalkduster" font-size="32.0" fill="#000000" transform="matrix(1.00, 0.00, -0.00, -1.00, 160.4, 47.0)">t</text><text xml:space="preserve" font-family="Chalkduster" font-size="32.0" fill="#000000" transform="matrix(1.00, 0.00, -0.00, -1.00, 174.7, 47.0)">e</text><text xml:space="preserve" font-family="Chalkduster" font-size="32.0" fill="#000000" transform="matrix(1.00, 0.00, -0.00, -1.00, 195.3, 47.0)">s</text><text xml:space="preserve" font-family="Chalkduster" font-size="32.0" fill="#000000" transform="matrix(1.00, 0.00, -0.00, -1.00, 212.4, 47.0)">t</text></g></g></g></svg>