<?xml version="1.0" encoding="UTF-8" standalone="no"?><svg xmlns="http://www.w3.org/2000/svg" xmlns:xlink="http://www.w3.org/1999/xlink" clip-rule="evenodd" stroke-miterlimit="4.00" viewBox="0 0 890 321"><desc>SVG generated by Keynote</desc><defs></defs><g transform="matrix(1.00, 0.00, -0.00, -1.00, 0.0, 321.0)"><g><clipPath id="clip-313"><path d="M 1.0 319.8 L 889.0 319.8 L 889.0 1.1 L 1.0 1.1 Z M 1.0 319.8 "></path></clipPath><g clip-path="url(#clip-313)"><path d="M 264.4 1.5 L 264.4 65.5 " fill="none" stroke="#FEFFFE" stroke-opacity="0.50" stroke-width="1.00" transform="matrix(1.00, 0.00, 0.00, -1.00, -0.5, 321.3)"></path><path d="M 264.4 65.5 L 264.4 320.2 " fill="none" stroke="#FEFFFE" stroke-opacity="0.50" stroke-width="1.00" transform="matrix(1.00, 0.00, 0.00, -1.00, -0.5, 321.3)"></path><path d="M 389.3 1.5 L 389.3 65.5 " fill="none" stroke="#FEFFFE" stroke-opacity="0.50" stroke-width="1.00" transform="matrix(1.00, 0.00, 0.00, -1.00, -0.5, 321.3)"></path><path d="M 389.3 65.5 L 389.3 320.2 " fill="none" stroke="#FEFFFE" stroke-opacity="0.50" stroke-width="1.00" transform="matrix(1.00, 0.00, 0.00, -1.00, -0.5, 321.3)"></path><path d="M 514.3 1.5 L 514.3 320.2 " fill="none" stroke="#FEFFFE" stroke-opacity="0.50" stroke-width="4.00" transform="matrix(1.00, 0.00, 0.00, -1.00, -0.5, 321.3)"></path><path d="M 639.2 1.5 L 639.2 65.5 " fill="none" stroke="#FEFFFE" stroke-opacity="0.50" stroke-width="1.00" transform="matrix(1.00, 0.00, 0.00, -1.00, -0.5, 321.3)"></path><path d="M 639.2 65.5 L 639.2 320.2 " fill="none" stroke="#FEFFFE" stroke-opacity="0.50" stroke-width="1.00" transform="matrix(1.00, 0.00, 0.00, -1.00, -0.5, 321.3)"></path><path d="M 764.1 1.5 L 764.1 65.5 " fill="none" stroke="#FEFFFE" stroke-opacity="0.50" stroke-width="1.00" transform="matrix(1.00, 0.00, 0.00, -1.00, -0.5, 321.3)"></path><path d="M 764.1 65.5 L 764.1 320.2 " fill="none" stroke="#FEFFFE" stroke-opacity="0.50" stroke-width="1.00" transform="matrix(1.00, 0.00, 0.00, -1.00, -0.5, 321.3)"></path><path d="M 1.5 129.1 L 139.4 129.1 " fill="none" stroke="#FEFFFE" stroke-opacity="0.50" stroke-width="1.00" transform="matrix(1.00, 0.00, 0.00, -1.00, -0.5, 321.3)"></path><path d="M 139.4 129.1 L 889.6 129.1 " fill="none" stroke="#FEFFFE" stroke-opacity="0.50" stroke-width="1.00" transform="matrix(1.00, 0.00, 0.00, -1.00, -0.5, 321.3)"></path><path d="M 1.5 192.6 L 139.4 192.6 " fill="none" stroke="#FEFFFE" stroke-opacity="0.50" stroke-width="1.00" transform="matrix(1.00, 0.00, 0.00, -1.00, -0.5, 321.3)"></path><path d="M 139.4 192.6 L 889.6 192.6 " fill="none" stroke="#FEFFFE" stroke-opacity="0.50" stroke-width="1.00" transform="matrix(1.00, 0.00, 0.00, -1.00, -0.5, 321.3)"></path><path d="M 1.5 256.2 L 139.4 256.2 " fill="none" stroke="#FEFFFE" stroke-opacity="0.50" stroke-width="1.00" transform="matrix(1.00, 0.00, 0.00, -1.00, -0.5, 321.3)"></path><path d="M 139.4 256.2 L 889.6 256.2 " fill="none" stroke="#FEFFFE" stroke-opacity="0.50" stroke-width="1.00" transform="matrix(1.00, 0.00, 0.00, -1.00, -0.5, 321.3)"></path><path d="M 139.4 1.5 L 139.4 320.2 " fill="none" stroke="#FEFFFE" stroke-opacity="0.50" stroke-width="4.00" transform="matrix(1.00, 0.00, 0.00, -1.00, -0.5, 321.3)"></path><path d="M 1.5 65.5 L 889.6 65.5 " fill="none" stroke="#FEFFFE" stroke-opacity="0.50" stroke-width="1.00" transform="matrix(1.00, 0.00, 0.00, -1.00, -0.5, 321.3)"></path><path d="M 2.0 1.5 L 2.0 65.5 " fill="none" stroke="#FEFFFE" stroke-opacity="0.50" stroke-width="1.00" transform="matrix(1.00, 0.00, 0.00, -1.00, -0.5, 321.3)"></path><path d="M 2.0 65.5 L 2.0 320.2 " fill="none" stroke="#FEFFFE" stroke-opacity="0.50" stroke-width="1.00" transform="matrix(1.00, 0.00, 0.00, -1.00, -0.5, 321.3)"></path><path d="M 889.1 1.5 L 889.1 65.5 " fill="none" stroke="#FEFFFE" stroke-opacity="0.50" stroke-width="1.00" transform="matrix(1.00, 0.00, 0.00, -1.00, -0.5, 321.3)"></path><path d="M 889.1 65.5 L 889.1 320.2 " fill="none" stroke="#FEFFFE" stroke-opacity="0.50" stroke-width="1.00" transform="matrix(1.00, 0.00, 0.00, -1.00, -0.5, 321.3)"></path><path d="M 1.5 2.0 L 889.6 2.0 " fill="none" stroke="#FEFFFE" stroke-opacity="0.50" stroke-width="1.00" transform="matrix(1.00, 0.00, 0.00, -1.00, -0.5, 321.3)"></path><path d="M 1.5 319.7 L 139.4 319.7 " fill="none" stroke="#FEFFFE" stroke-opacity="0.50" stroke-width="1.00" transform="matrix(1.00, 0.00, 0.00, -1.00, -0.5, 321.3)"></path><path d="M 139.4 319.7 L 889.6 319.7 " fill="none" stroke="#FEFFFE" stroke-opacity="0.50" stroke-width="1.00" transform="matrix(1.00, 0.00, 0.00, -1.00, -0.5, 321.3)"></path></g></g></g></svg>