<?xml version="1.0" encoding="UTF-8" standalone="no"?><svg xmlns="http://www.w3.org/2000/svg" xmlns:xlink="http://www.w3.org/1999/xlink" clip-rule="evenodd" stroke-miterlimit="4.00" viewBox="0 0 319 134"><desc>SVG generated by Keynote</desc><defs></defs><g transform="matrix(1.00, 0.00, -0.00, -1.00, 0.0, 134.0)"><image xlink:href="../../CEFA4209-80C9-472B-8D2B-058B96531B72/assets/3D04D10A705CD79169D4D2591639252F.png" width="316.00" height="130.00" transform="matrix(1.00, 0.00, -0.00, -1.00, 1.4, 132.0)" opacity="0.50"></image><g><clipPath id="clip-309"><path d="M 264.9 106.6 C 323.1 84.6 323.1 49.0 264.9 27.1 C 206.6 5.1 112.2 5.1 54.0 27.1 C -4.2 49.0 -4.2 84.6 54.0 106.6 C 112.2 128.5 206.6 128.5 264.9 106.6 Z M 264.9 106.6 "></path></clipPath><g clip-path="url(#clip-309)"><image xlink:href="../../CEFA4209-80C9-472B-8D2B-058B96531B72/assets/59DBD66EA15A3D40E065F836EF2595FD.jpeg" width="400.00" height="400.00" transform="matrix(1.00, 0.00, -0.00, -1.00, 10.4, 123.0)"></image></g></g><path d="M 81.7 14.8 C 81.2 15.0 80.7 15.2 79.9 15.3 C 80.3 15.3 80.6 15.3 80.5 15.4 C 81.2 15.2 82.1 15.0 83.5 14.7 C 83.5 14.6 82.8 14.8 82.3 14.9 C 81.7 15.0 81.8 14.9 81.7 14.8 C 81.7 14.8 81.7 14.8 81.7 14.8 Z M 69.7 115.1 C 68.5 114.8 69.7 115.4 70.2 115.5 C 70.2 115.5 70.3 115.5 70.7 115.6 C 70.8 115.8 69.8 115.6 69.0 115.5 C 65.9 114.5 68.3 114.7 69.7 115.1 C 69.7 115.1 69.7 115.1 69.7 115.1 Z M 240.5 117.2 C 243.1 116.6 240.3 117.0 239.9 117.1 C 241.1 116.7 240.0 116.6 241.5 116.2 C 241.9 116.2 242.4 116.2 242.8 116.2 C 242.1 116.4 241.1 116.6 241.0 116.7 C 241.9 116.5 243.2 116.1 243.4 116.2 C 241.4 116.8 243.1 116.5 243.5 116.6 C 241.7 117.0 241.2 117.4 240.5 117.2 C 240.5 117.2 240.5 117.2 240.5 117.2 Z M 285.1 33.5 C 286.0 34.0 286.7 34.4 286.4 34.4 C 285.5 33.9 284.9 33.5 284.4 33.2 C 284.3 33.2 284.5 33.4 283.7 33.0 C 282.8 32.3 283.4 32.3 284.0 32.4 C 283.9 32.7 287.0 34.3 285.1 33.5 C 285.1 33.5 285.1 33.5 285.1 33.5 Z M 214.7 12.3 C 212.3 11.8 214.5 12.6 212.2 12.2 C 212.2 11.9 211.9 11.6 213.5 11.9 C 213.6 12.0 214.5 12.1 214.7 12.3 C 214.7 12.3 214.7 12.3 214.7 12.3 Z M 168.4 124.2 C 168.4 124.4 170.2 124.3 169.8 124.5 C 168.9 124.5 168.0 124.6 167.1 124.6 C 166.9 124.4 167.2 124.3 168.4 124.2 C 168.4 124.2 168.4 124.2 168.4 124.2 Z M 256.8 110.3 C 259.3 109.7 261.8 108.5 261.1 108.9 C 262.1 108.9 259.6 110.2 259.6 109.9 C 259.3 109.7 254.9 110.9 256.8 110.3 C 256.8 110.3 256.8 110.3 256.8 110.3 Z M 84.0 114.4 C 86.7 115.3 86.3 114.5 88.1 115.2 C 87.5 115.0 87.1 115.1 86.9 115.1 C 87.4 115.2 88.1 115.3 88.0 115.4 C 86.7 115.2 85.1 114.9 84.0 114.4 C 84.0 114.4 84.0 114.4 84.0 114.4 Z M 124.5 8.8 C 125.0 8.8 125.3 8.7 125.2 8.6 C 127.2 8.5 127.2 8.3 128.5 8.3 C 128.6 8.6 126.8 8.7 125.2 8.8 C 125.2 8.8 124.6 8.9 124.5 8.8 C 124.5 8.8 124.5 8.8 124.5 8.8 Z M 183.0 8.9 C 183.0 8.7 181.8 8.5 183.7 8.6 C 185.9 9.0 183.9 9.1 181.7 9.1 C 181.7 9.2 181.6 9.3 181.6 9.4 C 182.5 9.5 183.1 9.5 183.6 9.6 C 184.0 9.3 185.5 10.0 188.9 10.0 C 187.3 10.1 189.0 10.5 186.9 10.2 C 187.4 10.5 186.0 10.4 186.2 10.6 C 187.1 10.5 189.4 10.7 188.9 10.4 C 190.0 10.4 190.9 10.5 191.5 10.7 C 192.3 11.0 189.4 10.5 190.2 10.9 C 190.8 10.9 190.9 11.0 191.4 11.1 C 191.6 11.0 191.3 10.8 192.1 10.9 C 194.2 11.1 191.7 11.1 194.7 11.4 C 194.9 11.3 194.0 11.2 194.1 11.0 C 195.4 11.0 195.3 11.2 196.7 11.2 C 196.9 11.4 195.7 11.3 196.6 11.4 C 197.5 11.2 199.3 11.9 201.2 11.8 C 200.0 11.2 201.5 12.0 203.2 11.6 C 203.5 11.8 202.3 12.0 203.8 12.2 C 203.3 11.5 209.1 12.4 204.5 11.3 C 206.9 11.6 207.8 11.2 205.9 10.9 C 210.1 11.6 208.8 11.1 210.4 11.3 C 212.0 11.5 209.5 11.3 210.3 11.6 C 208.6 11.3 209.0 11.5 207.8 11.2 C 207.8 11.3 207.5 11.4 207.1 11.4 C 208.8 11.4 210.8 12.1 209.6 12.2 C 208.7 12.0 209.5 11.9 208.4 11.7 C 208.8 12.1 207.1 11.5 207.0 11.7 C 207.8 12.1 205.3 12.1 207.6 12.4 C 207.7 12.3 207.7 12.2 207.7 12.0 C 208.3 12.1 208.9 12.2 209.6 12.3 C 210.1 12.6 209.6 12.7 210.2 12.8 C 211.2 13.0 211.8 13.0 212.1 13.0 C 210.8 12.7 209.3 12.3 211.5 12.5 C 210.6 12.9 214.5 13.1 212.7 13.1 C 215.0 13.6 216.2 13.4 216.4 13.8 C 217.7 13.9 216.9 13.6 218.4 13.8 C 220.6 14.4 220.3 14.0 223.3 14.7 C 223.7 14.4 223.6 14.9 224.5 15.0 C 224.6 14.9 224.6 14.8 224.6 14.6 C 225.6 15.1 228.1 15.6 230.6 15.9 C 231.3 16.1 230.8 16.2 232.4 16.5 C 234.2 16.5 236.2 17.4 238.4 17.5 C 238.5 17.7 239.9 18.1 240.7 18.1 C 241.0 18.3 239.9 18.4 241.2 18.7 C 242.1 18.7 240.6 18.2 242.4 18.6 C 242.2 18.8 244.2 18.8 244.1 19.1 C 243.6 19.0 242.9 18.9 242.3 18.9 C 243.1 19.1 242.9 19.2 243.5 19.3 C 243.5 19.0 244.8 19.6 245.2 19.8 C 245.2 19.6 245.4 19.6 245.8 19.6 C 246.8 19.9 247.6 20.1 248.1 20.2 C 249.4 20.6 247.4 20.2 248.6 20.5 C 249.4 20.1 250.5 21.1 253.1 21.5 C 253.7 21.9 254.7 22.3 256.3 22.9 C 256.5 22.7 254.8 22.3 254.8 22.1 C 257.1 22.9 254.4 21.8 255.9 22.3 C 259.3 23.5 261.4 24.3 264.8 25.7 C 264.8 25.5 268.9 26.9 268.8 27.0 C 267.6 26.6 271.0 28.2 272.7 29.0 C 273.3 28.8 276.1 29.7 276.3 29.6 C 276.8 30.0 276.7 30.0 276.8 30.4 C 279.6 31.9 281.1 32.3 282.5 33.5 C 282.5 33.2 283.7 33.8 284.7 34.3 C 284.4 34.4 283.7 34.2 283.1 34.0 C 284.4 34.7 284.6 34.9 285.7 35.6 C 287.2 35.6 288.5 37.5 289.7 37.5 C 291.4 38.6 291.0 38.6 292.4 39.6 C 292.5 39.5 292.7 39.5 293.2 39.8 C 292.2 39.1 291.3 38.8 290.9 38.2 C 293.2 39.7 286.9 34.7 290.9 37.0 C 290.9 37.2 290.5 37.1 291.3 37.7 C 293.4 39.0 292.3 38.0 291.4 37.4 C 292.9 38.3 294.3 39.4 293.4 38.3 C 296.5 40.5 294.4 39.3 295.4 40.2 C 300.8 44.1 306.2 49.6 308.8 56.0 C 309.2 56.1 310.3 59.6 310.4 60.8 C 311.1 62.6 311.3 64.5 311.1 65.1 C 311.4 65.4 310.9 67.3 311.2 67.5 C 311.2 66.7 311.3 66.2 311.3 67.0 C 311.2 69.7 310.2 73.7 309.9 75.3 C 309.2 76.1 308.6 77.8 308.1 79.0 C 307.9 79.1 308.3 78.2 307.9 78.9 C 308.0 79.2 306.7 81.6 306.2 82.1 C 306.7 81.4 306.9 80.5 306.2 81.5 C 306.3 81.6 305.5 82.8 305.9 82.6 C 304.7 84.0 304.2 85.0 303.0 86.1 C 303.9 85.1 304.2 84.4 304.2 84.1 C 303.7 85.1 303.2 85.8 302.4 86.3 C 302.8 86.4 301.5 87.6 300.2 89.1 C 299.7 89.4 299.3 89.6 298.1 90.6 C 297.7 91.3 300.2 89.1 298.9 90.4 C 298.8 90.3 297.4 91.4 297.9 91.3 C 296.2 92.6 295.3 93.5 293.7 94.5 C 295.6 93.1 294.0 93.9 293.5 94.2 C 293.1 94.5 292.4 95.0 292.4 95.1 C 292.5 95.1 293.5 94.4 293.6 94.4 C 292.2 95.3 292.0 95.9 291.4 96.1 C 292.0 95.6 292.1 95.4 291.3 95.9 C 291.4 96.4 286.8 98.9 288.3 97.8 C 288.3 97.9 290.0 96.8 290.1 96.6 C 289.6 96.8 287.1 98.6 287.5 98.0 C 289.0 97.1 289.0 97.3 290.6 96.1 C 290.7 95.9 291.6 95.2 292.2 94.7 C 289.6 96.5 289.1 97.1 288.6 97.0 C 287.4 97.8 288.3 97.6 286.2 98.8 C 283.2 100.5 285.5 98.8 284.7 99.2 C 282.1 100.8 283.1 100.7 284.4 100.2 C 282.2 101.4 281.6 101.9 278.7 103.3 C 278.8 103.1 279.1 102.8 280.1 102.2 C 280.2 102.2 282.6 101.2 282.3 101.2 C 281.9 101.0 280.0 101.8 276.9 103.2 C 277.8 103.2 277.8 103.0 274.6 104.5 C 275.3 104.5 273.1 105.1 273.1 105.3 C 273.3 105.3 274.4 104.8 275.5 104.3 C 275.5 104.5 275.2 104.8 274.1 105.3 C 273.4 105.5 272.9 105.9 270.8 106.6 C 270.6 106.5 272.0 105.9 272.3 105.6 C 271.2 106.1 271.0 106.3 269.8 106.8 C 268.8 107.0 268.7 106.6 268.7 106.3 C 270.0 105.7 272.0 104.9 270.3 105.4 C 275.1 103.4 270.2 105.8 272.0 105.1 C 273.9 103.9 273.0 104.8 276.0 103.4 C 276.9 103.0 277.1 102.8 277.5 102.5 C 277.2 102.6 275.4 103.2 277.3 102.2 C 277.8 102.2 278.9 101.8 280.4 101.1 C 280.3 101.0 277.3 102.4 280.3 100.9 C 281.7 100.1 280.6 101.1 282.5 100.0 C 282.5 100.0 283.0 99.7 283.1 99.5 C 280.4 101.1 283.6 99.1 281.6 100.0 C 284.0 98.6 282.2 100.0 283.7 99.1 C 283.7 98.9 286.3 97.7 286.3 97.4 C 285.4 98.1 283.4 99.2 283.6 98.8 C 285.4 97.9 292.5 93.0 290.0 95.2 C 290.9 94.4 295.4 90.6 295.1 91.0 C 293.8 92.0 294.0 92.1 293.8 92.4 C 296.3 90.2 297.6 89.3 299.6 86.8 C 297.1 89.3 298.7 87.1 297.0 88.4 C 296.4 89.0 295.3 89.9 295.2 90.1 C 295.7 90.0 296.7 89.0 297.1 88.5 C 297.2 88.6 297.4 88.8 297.5 88.9 C 294.4 91.4 292.6 93.0 290.9 94.1 C 292.3 93.0 287.8 95.7 289.5 94.5 C 290.3 94.2 292.1 93.0 293.5 92.0 C 293.5 91.9 293.4 91.8 293.4 91.8 C 294.0 91.3 294.8 90.7 294.8 90.6 C 293.0 92.0 291.8 92.6 290.6 93.7 C 290.6 93.7 290.5 93.6 290.5 93.6 C 290.2 93.8 289.8 94.0 289.9 93.9 C 290.6 93.4 291.5 92.8 291.5 92.6 C 290.1 93.6 289.7 93.6 287.9 94.7 C 288.2 94.2 285.8 95.4 288.2 93.7 C 288.7 93.7 290.1 92.8 290.1 93.0 C 290.8 92.6 292.1 91.5 292.7 91.0 C 292.0 91.3 290.6 92.2 290.3 92.1 C 291.4 91.3 292.2 90.6 293.0 90.3 C 290.9 92.0 294.2 89.5 295.2 89.1 C 294.9 89.2 294.4 89.5 294.0 89.6 C 295.6 88.3 296.4 87.9 296.2 87.5 C 297.9 85.9 297.7 86.4 298.8 85.3 C 297.8 85.8 299.4 84.4 298.4 84.9 C 300.2 83.1 299.2 84.6 299.8 84.0 C 300.3 83.4 300.3 83.2 300.7 82.6 C 301.5 81.9 302.8 80.2 303.2 80.1 C 303.7 79.3 303.9 79.3 304.3 78.5 C 304.3 78.3 304.4 78.0 304.5 77.6 C 304.7 77.5 305.1 77.0 305.0 76.8 C 303.6 78.7 304.0 78.1 302.3 80.1 C 302.3 80.4 302.1 80.7 302.5 80.3 C 301.5 81.8 301.1 82.1 299.9 83.4 C 299.7 83.4 299.2 83.5 298.3 84.8 C 298.3 84.3 298.0 84.6 298.4 84.1 C 299.0 83.6 299.9 82.8 300.6 82.0 C 300.6 81.8 300.4 81.9 300.8 81.4 C 301.2 81.1 301.7 80.5 302.0 79.9 C 302.1 79.9 302.0 80.2 301.9 80.4 C 303.4 78.5 302.6 79.0 303.6 77.6 C 303.3 77.8 302.8 78.7 303.1 77.8 C 303.8 76.5 304.1 76.2 304.5 75.6 C 304.5 75.4 304.3 75.5 304.5 75.1 C 305.1 74.2 304.0 77.4 305.1 75.8 C 304.9 75.6 305.6 74.0 305.9 73.8 C 305.9 74.4 305.2 75.3 305.3 75.4 C 306.7 72.4 305.9 75.5 306.9 72.3 C 306.8 72.3 306.7 72.3 306.6 72.3 C 306.3 73.5 306.1 73.5 305.9 73.4 C 305.5 74.4 305.0 74.7 304.8 75.7 C 304.5 75.2 305.2 74.8 305.6 73.7 C 305.3 73.7 304.9 74.6 304.7 74.7 C 305.9 72.3 305.7 71.7 306.4 69.3 C 306.0 69.9 306.5 68.0 306.3 68.1 C 306.2 70.2 305.5 69.3 305.4 69.6 C 305.2 70.9 305.8 70.4 305.7 71.2 C 305.4 71.5 305.3 71.3 305.0 71.1 C 305.4 69.9 305.3 70.1 305.3 69.2 C 305.6 68.4 306.1 67.8 306.1 68.9 C 306.1 68.7 306.0 67.1 306.2 67.0 C 306.2 68.5 306.4 66.8 306.4 67.7 C 306.7 66.6 306.2 64.5 306.2 63.1 C 306.1 63.2 305.9 62.7 305.8 62.8 C 306.3 64.1 305.8 64.5 305.9 65.8 C 305.8 65.3 305.7 65.6 305.6 65.9 C 305.7 64.5 305.4 63.8 305.4 62.8 C 305.3 62.9 305.3 62.9 305.2 62.9 C 305.0 61.2 305.0 61.5 304.4 60.3 C 304.3 59.8 304.9 60.3 305.2 60.4 C 304.9 59.8 304.1 57.6 304.4 59.0 C 303.8 57.7 304.3 57.8 303.5 56.5 C 303.3 56.6 304.0 57.8 303.4 57.5 C 302.8 56.3 303.4 56.9 302.7 56.0 C 302.8 55.8 303.0 55.7 302.3 54.6 C 302.6 55.5 302.2 54.6 301.8 54.3 C 302.1 54.8 302.3 55.3 302.4 55.6 C 301.3 53.6 301.0 53.3 299.7 51.8 C 300.4 52.1 299.7 51.2 300.7 52.2 C 299.8 51.3 298.9 49.9 298.3 49.5 C 298.8 50.1 299.7 51.1 299.9 51.6 C 297.3 48.5 295.3 47.2 292.2 44.3 C 292.8 44.7 293.5 45.4 293.7 45.4 C 293.3 45.1 292.7 44.6 292.8 44.5 C 293.9 45.5 295.0 46.4 295.6 46.8 C 296.4 47.7 294.9 46.4 295.8 47.3 C 296.1 47.4 297.7 49.1 297.3 48.3 C 295.6 47.0 294.1 45.4 293.6 44.5 C 291.6 43.4 293.3 44.7 291.1 43.6 C 291.2 43.5 290.8 43.2 290.2 42.7 C 290.6 43.4 288.2 41.5 288.0 41.3 C 289.0 41.9 292.6 44.2 291.0 42.7 C 291.5 43.8 286.9 39.6 287.6 40.7 C 285.1 39.1 286.2 39.4 284.6 38.8 C 284.6 38.7 284.9 38.7 284.1 38.3 C 283.4 37.8 283.1 37.8 282.8 37.6 C 286.5 39.9 285.2 39.6 287.4 41.0 C 287.0 40.8 286.7 40.6 286.7 40.7 C 286.7 40.7 286.6 40.7 286.1 40.4 C 286.1 40.0 284.2 39.3 283.8 38.8 C 284.5 39.2 285.2 39.6 285.1 39.4 C 282.0 37.6 282.9 37.6 278.2 35.1 C 279.5 35.9 277.6 35.0 275.9 34.2 C 273.5 33.0 274.6 33.1 271.5 31.8 C 271.5 32.1 270.7 31.8 269.4 31.2 C 268.7 30.9 267.9 30.5 267.0 30.1 C 266.1 29.8 264.7 29.3 264.0 29.1 C 264.4 28.9 261.3 27.6 260.5 27.7 C 260.5 27.5 259.3 27.2 258.5 26.9 C 258.3 26.7 259.3 26.9 258.6 26.6 C 257.9 26.5 258.4 26.9 257.5 26.6 C 256.4 26.2 256.7 26.0 254.9 25.4 C 254.8 25.6 255.8 25.9 254.8 25.8 C 253.4 25.2 252.0 24.8 253.2 25.4 C 250.9 24.7 252.2 24.6 250.0 24.0 C 250.6 24.3 250.5 24.4 249.4 24.1 C 248.7 23.7 248.6 23.6 248.4 23.4 C 247.7 23.4 247.9 23.5 246.1 22.9 C 246.1 23.0 246.1 23.2 246.0 23.2 C 245.2 23.0 244.0 22.7 243.8 22.6 C 245.4 23.0 245.0 22.7 245.6 22.8 C 244.1 22.3 241.2 21.3 243.3 22.2 C 241.2 21.8 242.3 21.7 240.6 21.3 C 241.5 21.9 240.6 21.4 238.8 21.0 C 238.9 21.3 237.6 20.7 236.5 20.5 C 236.6 20.7 236.3 20.8 235.3 20.6 C 235.3 20.4 234.7 20.2 233.5 20.0 C 233.5 20.1 235.9 20.8 233.5 20.3 C 232.3 19.9 232.4 19.6 230.6 19.2 C 230.2 18.9 232.3 19.4 231.9 19.1 C 230.3 19.0 229.9 18.7 227.7 18.2 C 228.5 18.9 223.1 18.0 225.7 18.7 C 224.9 18.5 223.8 18.7 223.3 18.3 C 224.1 18.4 222.7 17.9 222.7 17.9 C 221.7 17.8 219.2 17.2 219.1 17.3 C 221.4 17.7 221.4 17.9 222.1 18.2 C 218.7 17.7 215.7 17.2 215.9 16.9 C 215.9 17.0 215.4 16.9 215.3 17.0 C 216.5 17.1 217.2 17.7 215.9 17.5 C 216.2 17.3 215.2 17.0 214.1 16.8 C 214.0 17.0 209.5 16.0 210.3 16.5 C 212.2 16.6 213.6 17.1 212.1 17.1 C 211.0 16.7 208.5 16.2 209.1 16.1 C 208.4 16.1 207.8 16.1 207.2 16.1 C 206.6 16.2 208.0 16.4 207.7 16.6 C 206.8 16.4 205.4 16.3 205.2 16.2 C 207.8 16.5 204.0 15.9 206.6 16.0 C 205.0 15.8 204.6 15.6 203.4 15.5 C 203.4 15.5 202.9 15.5 202.7 15.5 C 203.9 15.5 205.0 15.8 204.6 16.0 C 202.3 15.8 202.7 15.5 200.8 15.3 C 200.2 15.4 197.6 15.5 196.3 15.2 C 198.8 15.5 196.1 15.0 197.6 15.1 C 199.9 15.5 200.6 15.3 201.5 15.2 C 200.5 14.9 198.6 14.6 198.3 14.9 C 199.5 15.1 199.5 14.9 200.2 14.9 C 200.1 15.1 199.8 15.2 198.9 15.1 C 197.8 14.8 195.4 14.8 197.0 14.6 C 195.4 14.6 193.6 14.2 191.9 14.2 C 193.8 14.4 195.1 14.6 195.7 14.9 C 194.1 14.8 192.6 14.4 192.5 14.6 C 192.6 14.8 195.2 15.0 195.7 15.2 C 193.6 15.3 190.6 14.3 193.1 15.1 C 191.9 14.9 190.4 14.8 189.9 14.6 C 191.3 14.7 189.8 14.3 189.2 14.2 C 188.0 14.1 187.1 14.1 186.6 14.1 C 188.4 14.2 189.8 14.6 188.5 14.5 C 188.2 14.4 187.9 14.5 187.3 14.5 C 187.2 14.4 185.1 14.3 184.7 14.2 C 184.8 14.3 185.8 14.4 185.9 14.5 C 184.7 14.5 182.9 14.7 182.1 14.3 C 182.8 14.4 183.9 14.5 184.0 14.4 C 180.6 13.8 179.6 13.4 175.5 13.1 C 176.1 13.1 176.3 13.1 176.2 13.0 C 173.6 12.9 172.0 12.7 172.3 12.5 C 170.7 12.5 169.8 12.6 169.0 12.8 C 170.7 12.9 171.3 12.7 172.3 12.9 C 171.6 13.0 173.5 13.4 174.2 13.6 C 177.1 13.5 177.2 13.9 180.1 13.9 C 179.3 14.1 182.2 14.1 181.4 14.3 C 178.7 13.8 176.2 13.9 172.3 13.6 C 172.8 13.5 173.2 13.3 171.6 13.1 C 169.1 12.9 170.3 13.3 168.3 13.2 C 167.5 13.0 168.7 13.0 167.6 12.9 C 166.9 13.0 165.0 12.9 164.4 12.7 C 167.1 12.7 163.9 12.5 165.7 12.4 C 164.8 12.4 164.2 12.3 163.7 12.3 C 166.3 12.6 161.0 12.6 163.0 12.8 C 159.4 12.9 162.8 12.2 159.7 12.2 C 161.2 12.4 159.3 12.5 157.1 12.5 C 156.5 12.2 154.3 12.2 152.5 12.1 C 153.4 12.3 154.1 12.3 152.5 12.5 C 153.4 12.5 154.9 12.5 155.7 12.4 C 155.7 12.5 156.1 12.6 156.5 12.7 C 154.3 12.7 155.2 12.8 154.5 12.9 C 153.8 12.8 152.2 12.8 151.8 12.7 C 151.8 12.8 151.2 12.8 151.2 12.9 C 153.9 12.9 150.7 13.2 152.5 13.3 C 153.7 13.2 152.9 13.0 154.5 13.0 C 155.9 13.3 153.2 13.3 152.5 13.6 C 153.8 13.8 155.3 13.4 155.8 13.7 C 154.1 14.0 151.4 13.8 149.2 13.8 C 149.4 14.1 145.6 13.8 145.3 14.3 C 144.9 14.2 144.6 14.1 144.0 14.1 C 143.3 14.4 142.6 14.0 142.0 14.1 C 141.9 14.2 142.1 14.3 142.6 14.4 C 140.0 14.3 139.3 14.4 136.2 14.7 C 135.6 14.6 135.1 14.5 134.8 14.3 C 135.5 14.2 136.2 14.1 136.7 14.0 C 132.4 14.2 135.3 14.7 132.2 14.5 C 132.3 14.7 134.4 14.8 132.9 15.0 C 130.1 14.9 126.3 15.5 126.4 14.8 C 124.0 14.8 122.4 15.4 121.2 15.2 C 120.5 15.3 120.2 15.4 119.9 15.5 C 120.7 15.5 121.6 15.6 122.5 15.6 C 124.0 15.3 124.6 15.5 123.2 15.3 C 125.3 15.1 125.9 15.2 127.0 15.2 C 124.1 15.6 121.4 15.7 121.3 16.0 C 120.3 16.0 119.5 15.9 118.7 15.8 C 118.4 16.0 115.1 16.5 114.9 16.3 C 117.1 16.1 119.4 15.5 117.4 15.6 C 111.9 16.4 108.9 16.3 104.2 17.3 C 104.0 17.2 104.4 17.0 103.5 17.1 C 103.6 17.2 103.4 17.3 102.9 17.5 C 101.5 17.7 100.6 17.7 98.7 18.1 C 98.7 17.9 98.4 17.7 97.3 17.8 C 96.8 18.2 94.9 19.0 93.8 19.1 C 94.9 18.9 93.4 18.9 92.5 19.0 C 93.3 19.2 87.1 19.9 88.9 19.8 C 86.5 20.3 85.5 20.4 85.4 20.3 C 84.5 20.6 83.9 20.8 83.1 21.0 C 82.5 20.8 78.5 22.0 77.9 22.0 C 79.3 21.8 79.5 21.3 78.4 21.6 C 77.6 22.0 74.0 23.1 73.4 23.3 C 73.6 23.1 73.8 22.8 75.5 22.3 C 72.5 23.0 72.6 23.4 71.7 23.9 C 71.8 23.5 70.5 24.2 70.1 24.4 C 69.1 24.5 70.1 24.2 70.0 24.0 C 69.0 24.3 68.5 24.3 67.2 24.7 C 67.7 24.8 66.2 25.1 65.6 25.3 C 65.5 25.5 64.8 25.8 63.6 26.2 C 65.1 25.3 56.9 28.0 58.9 27.7 C 57.3 28.4 57.1 27.9 55.2 28.7 C 54.9 29.0 53.7 29.3 54.8 29.1 C 54.0 29.4 53.2 29.7 52.8 29.8 C 52.5 29.8 52.0 30.0 50.5 30.6 C 52.0 30.4 47.4 31.8 48.3 31.9 C 46.8 32.1 44.6 33.7 42.2 34.5 C 42.2 34.5 41.6 34.8 41.5 35.0 C 41.2 35.2 44.3 33.8 42.3 34.8 C 39.8 35.8 41.1 35.1 40.7 35.2 C 34.3 38.5 27.9 42.6 23.6 46.3 C 24.2 45.9 24.2 46.0 23.3 46.9 C 21.8 47.6 17.9 52.3 17.6 53.0 C 17.0 53.3 15.8 55.7 15.4 56.1 C 15.7 55.6 16.0 54.6 15.4 55.6 C 15.3 56.4 14.7 57.1 14.5 58.1 C 14.0 58.4 13.2 61.3 13.2 59.9 C 13.0 60.4 12.9 60.7 12.8 61.0 C 13.0 61.2 12.8 61.7 13.3 60.8 C 12.3 63.3 12.5 63.9 12.2 65.9 C 12.3 66.2 12.5 64.7 12.5 65.9 C 12.4 65.9 12.4 65.9 12.3 65.9 C 12.3 66.3 12.4 66.4 12.3 66.6 C 12.2 66.6 12.2 65.9 11.9 65.8 C 12.0 66.8 11.7 67.5 11.9 67.8 C 11.9 66.5 12.4 67.4 12.2 68.2 C 12.0 67.5 12.7 71.3 13.2 72.5 C 13.1 73.2 12.8 71.2 12.6 71.4 C 13.2 73.7 13.2 73.5 13.5 73.7 C 13.9 74.9 13.9 75.5 14.9 76.9 C 15.2 77.8 14.4 76.4 14.9 77.4 C 15.2 77.9 15.5 78.0 16.0 78.8 C 16.9 81.2 21.9 85.6 24.1 88.6 C 23.1 87.5 24.7 88.7 26.2 89.9 C 26.3 90.1 26.0 90.0 26.6 90.5 C 26.6 90.3 27.1 90.6 28.3 91.4 C 28.3 91.6 28.0 91.6 28.6 92.0 C 29.3 92.1 30.6 93.3 31.6 93.8 C 31.8 94.3 29.4 92.5 29.1 92.5 C 31.9 94.7 32.6 94.7 35.0 96.3 C 33.7 95.5 35.8 97.0 36.2 97.3 C 35.8 96.7 37.8 97.8 36.5 96.8 C 37.4 97.4 39.0 98.1 39.1 98.3 C 38.6 98.1 37.7 97.6 37.7 97.7 C 38.9 98.3 40.5 99.4 41.2 99.5 C 40.3 99.0 39.8 98.7 39.9 98.5 C 40.2 98.6 40.7 98.8 41.4 99.1 C 39.1 98.6 45.3 101.3 45.7 101.3 C 46.2 101.9 46.5 102.1 46.2 102.1 C 49.0 103.4 48.7 102.9 50.4 103.5 C 49.8 103.6 49.1 103.6 51.8 104.8 C 51.3 104.3 54.6 105.6 53.8 104.9 C 55.5 105.5 56.0 105.7 56.7 106.0 C 57.4 106.2 58.0 106.5 58.5 106.7 C 59.6 107.2 60.4 107.5 61.7 108.0 C 61.8 107.9 61.0 107.6 61.8 107.8 C 63.0 108.3 64.0 108.7 64.8 109.1 C 65.6 109.1 64.7 108.8 65.5 109.0 C 67.4 109.8 66.8 109.9 68.5 110.7 C 70.8 111.1 70.0 111.0 71.4 111.1 C 70.8 111.0 70.1 110.6 70.9 110.8 C 72.2 111.4 72.7 111.8 73.0 112.0 C 72.0 111.7 71.2 111.5 70.8 111.3 C 70.4 111.4 69.0 111.0 70.1 111.4 C 68.7 111.0 67.2 110.5 65.2 109.9 C 65.8 110.4 63.4 109.4 64.0 109.9 C 66.3 110.5 66.7 110.8 68.9 111.4 C 68.5 111.0 70.7 111.8 71.2 112.0 C 71.2 111.8 72.7 112.3 72.4 112.0 C 74.1 112.4 74.0 112.6 75.7 113.0 C 75.8 113.1 75.6 113.1 76.2 113.3 C 76.9 113.2 77.4 113.7 77.9 113.8 C 77.6 113.5 80.1 114.2 80.3 114.1 C 79.6 113.9 78.7 113.7 78.6 113.6 C 81.4 114.3 79.2 113.5 78.7 113.2 C 78.8 113.3 77.7 113.4 77.5 113.2 C 79.9 113.6 74.3 111.9 76.4 112.6 C 78.2 113.1 78.1 112.8 79.9 113.3 C 81.9 114.3 79.3 113.9 81.4 114.8 C 82.8 114.9 83.7 115.1 83.9 114.9 C 84.1 115.1 84.5 115.2 85.0 115.4 C 85.6 115.4 83.3 114.8 85.0 115.1 C 85.9 115.3 84.8 115.5 86.8 115.8 C 87.6 115.8 84.5 115.0 86.2 115.3 C 88.0 116.1 85.9 115.2 88.0 115.6 C 88.2 115.7 88.5 115.8 89.2 115.9 C 89.3 116.0 89.0 116.1 89.7 116.3 C 90.2 116.0 90.5 116.6 92.1 116.9 C 93.1 116.7 90.5 116.4 91.0 116.2 C 92.8 116.9 93.9 116.7 94.6 116.9 C 93.1 116.9 96.9 117.5 97.0 117.8 C 96.6 117.4 97.5 117.7 99.6 117.8 C 99.6 118.3 102.1 118.3 102.6 118.8 C 102.9 118.7 103.6 118.7 103.9 118.6 C 103.1 118.5 102.4 118.4 102.7 118.3 C 103.3 118.4 103.9 118.5 104.6 118.6 C 105.6 118.9 102.8 119.0 107.0 119.6 C 106.5 119.2 108.3 119.4 109.5 119.4 C 109.4 119.1 107.8 119.2 107.7 119.0 C 109.1 119.0 110.6 119.4 111.4 119.7 C 113.9 119.9 116.8 120.4 120.4 120.6 C 121.2 120.9 117.4 120.5 119.7 120.9 C 120.8 121.0 120.3 120.7 121.7 120.9 C 120.3 121.8 131.4 121.9 132.1 122.4 C 132.5 122.2 135.7 122.6 135.3 122.2 C 133.2 122.3 131.8 121.9 130.8 121.7 C 128.8 121.7 132.5 122.1 130.7 122.0 C 130.6 121.8 127.9 121.8 128.2 121.6 C 131.0 121.8 126.7 121.2 128.8 121.1 C 131.4 121.4 136.6 121.5 135.4 121.7 C 135.4 121.6 134.2 121.5 134.1 121.6 C 137.0 121.9 138.8 121.8 140.0 121.7 C 141.3 122.0 146.6 121.8 145.3 121.9 C 145.7 122.2 142.1 121.7 142.6 122.0 C 148.1 122.3 148.2 122.1 151.8 122.3 C 150.7 122.0 155.6 122.0 155.2 122.1 C 155.2 122.3 156.3 122.5 158.5 122.3 C 158.2 122.5 159.3 122.6 160.5 122.7 C 161.0 122.4 159.5 122.4 159.8 122.3 C 160.9 122.3 162.0 122.3 163.1 122.2 C 163.2 122.3 163.0 122.5 163.8 122.5 C 165.0 122.3 169.5 122.0 169.1 122.1 C 167.2 122.5 172.1 122.3 169.1 122.6 C 169.9 122.6 170.0 122.7 171.1 122.7 C 171.1 122.5 171.1 122.4 171.1 122.3 C 173.5 122.2 172.3 122.7 174.4 122.6 C 174.6 122.5 175.5 122.4 175.7 122.3 C 174.9 122.4 174.8 122.5 173.7 122.5 C 174.9 122.0 171.5 122.3 171.7 122.1 C 174.0 122.0 174.0 122.2 175.0 122.3 C 177.9 122.0 176.5 122.1 179.6 122.1 C 179.6 122.0 178.8 122.0 179.0 121.9 C 182.7 121.8 182.3 122.3 184.9 121.9 C 184.3 122.0 182.0 122.3 183.6 122.2 C 185.3 122.0 185.8 121.7 188.1 121.5 C 188.3 121.6 188.1 121.8 188.8 121.7 C 189.8 121.6 189.8 121.3 190.7 121.2 C 190.9 121.3 192.2 121.1 192.7 121.0 C 193.5 121.1 192.4 121.3 193.4 121.3 C 195.3 121.1 196.3 120.4 197.8 120.4 C 197.8 120.7 199.6 120.4 201.1 120.2 C 201.4 120.5 204.7 120.0 206.9 119.8 C 206.4 119.6 208.6 119.5 208.1 119.3 C 207.0 119.4 206.5 119.4 206.2 119.3 C 208.7 119.0 209.5 119.4 211.3 118.8 C 212.2 118.8 213.4 118.8 215.0 118.6 C 215.2 118.4 212.1 118.8 213.8 118.5 C 213.9 118.6 214.4 118.4 215.0 118.3 C 214.8 118.6 216.1 118.5 216.9 118.5 C 218.4 118.1 221.4 117.9 220.0 117.8 C 222.3 117.4 220.8 118.1 222.6 117.8 C 221.6 117.6 224.6 117.0 223.1 117.1 C 225.4 116.6 225.3 117.1 224.4 117.4 C 226.5 117.1 226.9 116.7 228.0 116.7 C 227.0 116.6 230.2 115.9 228.6 116.3 C 228.1 116.7 230.5 116.1 231.0 116.1 C 230.2 116.1 231.3 115.8 229.8 116.0 C 231.3 115.6 233.6 115.1 235.1 115.0 C 237.1 114.5 238.9 114.0 238.1 114.5 C 239.9 114.0 239.2 114.1 241.0 113.7 C 241.0 113.7 240.5 113.8 240.3 113.7 C 242.8 113.1 242.4 113.4 245.6 112.6 C 245.3 113.0 247.3 112.4 247.9 112.4 C 246.6 112.8 245.6 113.0 244.5 113.2 C 244.3 113.4 245.4 113.2 244.5 113.4 C 244.4 113.4 243.9 113.5 243.4 113.6 C 245.5 113.3 240.8 114.6 242.3 114.0 C 242.3 114.1 242.4 114.1 242.8 113.9 C 242.4 113.8 242.4 113.9 242.7 113.6 C 241.7 113.9 240.8 113.8 240.4 114.1 C 240.5 114.2 241.5 113.9 241.7 114.0 C 239.1 114.8 240.8 113.9 238.7 114.5 C 238.3 114.8 239.4 114.6 240.0 114.7 C 238.1 115.1 236.4 115.5 235.8 115.5 C 234.1 116.0 236.0 115.6 234.8 116.0 C 234.1 116.1 234.1 115.9 232.9 116.1 C 231.6 116.5 233.7 116.1 232.4 116.5 C 230.9 116.6 233.3 115.9 231.1 116.3 C 231.7 116.6 229.1 116.7 229.3 116.9 C 230.6 116.6 230.6 116.9 229.9 116.8 C 226.9 117.1 225.0 118.3 222.0 118.3 C 222.0 118.4 221.5 118.5 221.4 118.6 C 223.7 118.3 226.9 117.7 227.6 118.0 C 229.4 117.6 229.1 117.4 229.4 117.2 C 231.5 117.1 231.3 117.2 230.1 117.8 C 226.7 118.6 225.1 118.7 222.8 119.0 C 221.6 119.4 222.9 119.0 223.4 119.1 C 216.1 120.1 221.8 119.9 219.2 120.2 C 219.2 120.1 218.6 120.1 217.9 120.2 C 217.9 120.3 216.8 120.4 216.6 120.6 C 217.1 120.5 217.4 120.5 217.3 120.6 C 215.5 121.0 216.2 120.6 216.0 120.5 C 217.4 120.3 218.3 120.1 218.5 119.9 C 216.7 120.4 215.2 120.3 214.1 120.8 C 212.3 120.7 214.9 120.0 214.0 119.8 C 214.2 119.6 212.9 120.6 211.6 120.9 C 209.3 121.2 209.2 121.5 207.1 121.7 C 206.5 121.6 209.2 121.4 209.0 121.2 C 208.4 121.3 208.3 121.2 207.7 121.3 C 206.2 121.5 206.4 121.7 205.2 121.9 C 204.5 121.7 204.2 121.9 203.3 122.1 C 201.8 122.2 204.1 121.8 202.6 122.0 C 201.0 122.1 199.9 122.5 199.4 122.5 C 199.3 122.5 199.5 122.3 198.7 122.4 C 196.9 122.7 196.5 122.8 198.8 122.7 C 196.8 122.9 195.9 123.0 196.2 123.3 C 199.3 123.0 200.0 122.9 201.4 123.1 C 202.0 122.7 202.9 122.8 204.0 122.8 C 203.3 122.4 205.3 122.6 205.9 122.3 C 205.2 122.3 204.4 122.4 204.0 122.4 C 207.2 122.0 207.1 122.1 209.7 121.3 C 209.7 121.4 210.0 121.5 210.3 121.5 C 209.5 121.7 207.2 121.9 207.2 122.1 C 209.0 122.2 209.6 121.7 211.7 121.7 C 212.5 121.4 210.0 121.6 211.6 121.4 C 212.4 121.4 213.5 121.4 214.8 121.3 C 216.2 121.1 216.8 120.9 217.9 120.6 C 218.0 120.7 218.2 120.8 219.2 120.6 C 219.1 120.5 218.1 120.6 219.2 120.3 C 222.5 120.1 224.7 119.9 227.9 119.2 C 226.7 119.3 224.1 119.5 225.4 119.3 C 226.9 119.2 228.8 118.5 230.3 118.4 C 230.8 118.4 228.5 118.7 229.1 119.0 C 230.5 118.7 231.4 118.6 232.1 118.5 C 232.1 118.3 233.7 118.0 233.3 117.9 C 232.1 118.1 231.8 118.5 231.5 118.4 C 232.4 117.6 235.9 117.7 238.1 117.2 C 239.5 116.8 237.0 117.3 238.6 116.8 C 239.6 116.4 240.3 116.9 238.7 117.3 C 237.6 117.5 237.2 117.9 236.9 117.7 C 236.5 117.8 235.8 117.9 235.8 118.0 C 236.6 117.9 236.5 118.0 237.0 118.0 C 235.8 118.2 235.8 118.7 234.7 118.7 C 235.4 118.5 235.6 118.4 235.9 118.2 C 232.7 119.0 231.6 119.0 229.8 119.3 C 230.8 119.2 229.7 119.4 229.8 119.6 C 231.2 119.3 233.9 118.9 232.3 119.3 C 231.2 119.2 230.4 120.1 229.3 120.0 C 230.1 119.9 230.0 119.7 230.4 119.6 C 229.2 119.8 229.2 119.6 228.0 119.8 C 224.0 120.9 220.9 120.9 214.3 122.4 C 212.1 122.7 216.4 121.9 216.2 121.8 C 215.5 121.9 215.4 121.8 214.9 121.9 C 214.9 122.2 213.7 122.0 213.0 122.4 C 213.1 122.1 210.0 122.8 208.5 122.8 C 208.5 122.9 208.7 123.0 207.9 123.1 C 203.2 123.4 194.6 124.7 191.0 124.7 C 191.2 124.9 189.5 125.0 189.1 125.2 C 186.8 125.3 187.8 125.0 184.5 125.5 C 182.8 125.6 184.8 125.3 185.1 125.2 C 180.1 125.6 175.7 125.6 172.5 126.0 C 170.9 126.1 172.5 125.8 169.2 125.8 C 169.1 126.2 163.9 125.7 163.2 126.2 C 161.2 126.2 157.5 125.8 159.1 126.1 C 156.4 126.1 158.2 125.8 157.1 125.8 C 155.2 125.8 157.7 126.4 155.8 126.4 C 156.0 126.1 154.4 126.2 153.1 126.0 C 154.6 126.0 155.6 126.0 155.8 125.8 C 154.5 126.0 154.6 125.8 152.5 125.8 C 150.9 125.9 146.4 126.0 145.1 125.6 C 145.1 125.7 145.5 125.8 145.8 125.9 C 144.5 125.9 142.9 125.5 143.1 125.9 C 140.1 125.7 138.9 125.4 137.2 125.6 C 135.9 125.6 137.6 125.4 133.8 125.1 C 133.7 125.3 127.1 124.8 125.3 124.5 C 125.2 124.8 124.8 124.4 124.0 124.4 C 123.9 124.4 124.1 124.6 123.3 124.5 C 123.2 124.4 122.6 124.4 122.0 124.4 C 122.5 124.1 119.6 124.3 119.4 124.0 C 120.0 124.0 120.0 123.8 119.5 123.7 C 119.2 124.0 116.6 123.3 116.9 123.5 C 117.4 123.7 119.3 123.8 118.7 124.0 C 116.2 123.8 117.2 123.6 115.5 123.4 C 115.6 123.5 116.6 123.7 115.5 123.6 C 113.7 123.4 115.4 123.6 114.3 123.3 C 113.3 123.2 111.6 123.2 111.0 123.1 C 111.2 123.1 110.6 122.9 110.4 122.9 C 107.1 122.3 99.7 121.5 96.6 120.6 C 96.3 120.7 95.6 120.6 95.9 120.8 C 94.0 120.3 94.1 120.4 92.2 120.0 C 92.2 120.1 92.2 120.2 92.2 120.3 C 89.7 119.9 92.0 119.9 90.4 119.6 C 90.1 120.1 89.5 119.3 88.0 119.0 C 87.8 119.0 87.1 118.9 87.3 119.2 C 85.0 118.7 85.2 118.3 83.2 118.0 C 83.6 118.2 83.8 119.0 83.5 119.2 C 83.2 119.0 82.6 118.8 81.8 118.5 C 82.9 118.5 82.5 117.5 79.6 117.1 C 81.2 117.5 81.7 117.7 81.3 117.8 C 79.2 117.3 78.5 117.0 76.7 116.5 C 76.3 116.7 77.6 117.0 77.1 117.2 C 76.7 117.1 76.4 117.1 76.5 117.2 C 74.6 116.7 74.6 116.5 72.5 116.1 C 72.5 115.9 73.0 116.0 73.7 116.3 C 73.6 116.1 73.6 115.9 74.9 116.2 C 75.0 116.4 74.2 116.5 76.0 116.8 C 76.0 116.7 76.1 116.6 76.1 116.4 C 74.8 116.1 71.8 115.1 71.5 115.2 C 72.1 115.4 73.1 115.7 72.5 115.8 C 70.4 115.2 69.8 114.8 68.1 114.1 C 65.0 113.3 59.8 111.6 60.3 112.1 C 58.6 111.4 59.2 111.6 57.7 111.1 C 58.1 111.5 55.9 110.6 56.0 110.8 C 57.9 111.4 57.3 111.3 59.2 111.8 C 59.1 112.0 58.8 112.0 58.0 111.8 C 58.0 111.6 57.2 111.3 56.0 110.9 C 56.1 111.0 57.2 111.7 55.8 111.2 C 55.8 111.1 55.5 110.9 54.8 110.7 C 54.9 110.6 54.9 110.5 55.0 110.4 C 55.7 110.5 56.6 110.8 57.2 110.9 C 56.7 110.7 56.6 110.6 56.1 110.4 C 55.8 110.5 53.7 109.5 53.5 109.6 C 54.3 109.9 54.8 110.3 53.9 110.0 C 53.8 109.9 52.0 109.1 51.1 108.9 C 54.1 110.2 52.9 109.8 53.8 110.4 C 51.7 109.6 51.5 109.3 47.6 107.8 C 47.6 107.6 47.7 107.4 48.7 107.7 C 46.4 106.3 40.9 104.2 39.3 103.4 C 40.4 104.0 41.9 104.3 40.1 103.4 C 40.1 103.5 38.8 102.9 38.5 102.8 C 37.8 102.9 39.2 103.9 40.4 104.8 C 39.0 104.1 38.6 104.0 37.4 103.4 C 37.0 103.0 38.5 103.4 36.9 102.5 C 36.4 102.7 34.0 101.0 33.3 100.9 C 34.4 101.5 35.1 102.0 33.9 101.4 C 34.2 101.4 32.0 100.2 32.0 100.1 C 33.8 101.0 34.4 101.0 35.5 101.7 C 34.1 100.9 36.7 102.1 34.3 100.7 C 33.1 100.3 32.4 100.2 30.1 98.7 C 29.3 98.2 30.2 98.4 29.1 97.7 C 29.2 98.1 26.8 96.5 28.4 97.3 C 27.5 96.8 27.1 96.4 26.7 96.1 C 27.7 97.1 22.2 93.5 22.9 94.2 C 23.1 93.9 23.0 93.5 22.8 93.2 C 21.7 92.7 20.7 91.6 18.4 89.5 C 18.3 89.8 18.0 89.1 17.1 88.2 C 16.8 88.2 17.5 89.0 16.9 88.4 C 15.9 87.3 15.9 87.2 15.8 86.9 C 15.1 86.1 14.6 85.5 14.4 85.1 C 14.3 85.1 14.4 85.4 14.6 85.7 C 12.3 82.5 11.0 81.1 9.8 78.3 C 10.2 79.5 10.7 79.6 10.2 78.7 C 9.9 78.1 9.6 77.6 9.4 77.3 C 9.5 78.1 9.5 77.8 8.9 76.4 C 8.3 75.2 8.7 77.0 8.4 76.1 C 8.1 75.0 8.4 75.5 8.3 75.0 C 8.2 74.5 8.0 74.0 7.9 73.5 C 8.0 74.4 7.6 73.5 7.3 72.6 C 7.7 73.2 7.6 72.8 7.2 71.0 C 7.4 70.8 7.6 71.7 7.5 71.0 C 7.5 70.6 6.9 69.3 7.1 68.1 C 7.1 68.5 7.2 68.7 7.3 68.6 C 7.0 67.3 7.3 66.2 7.5 65.1 C 7.2 66.2 7.1 65.6 6.9 66.1 C 7.2 64.9 7.0 63.5 7.5 62.6 C 7.1 64.3 7.9 62.8 8.1 61.7 C 8.0 61.4 7.7 63.2 7.5 62.6 C 7.4 62.0 8.0 60.8 7.9 60.2 C 7.8 60.2 7.8 61.0 7.6 61.1 C 7.8 60.2 7.4 61.4 7.6 60.6 C 8.0 60.2 7.8 59.6 7.9 59.1 C 8.2 58.5 9.0 57.3 9.0 56.8 C 8.9 56.7 8.6 57.6 8.5 57.6 C 9.4 54.9 10.1 54.3 11.3 51.9 C 11.6 51.7 11.9 51.3 12.4 50.6 C 12.3 50.6 12.5 50.1 12.9 49.6 C 13.7 48.7 14.6 47.8 15.7 46.6 C 15.6 47.0 15.2 47.6 16.7 46.0 C 16.7 45.8 16.1 46.5 16.6 45.9 C 16.6 45.9 17.0 45.5 17.0 45.4 C 17.0 45.4 17.0 45.3 16.9 45.3 C 16.5 45.8 16.1 46.2 15.7 46.6 C 15.6 46.5 15.4 46.5 15.1 46.8 C 16.7 44.8 17.0 45.3 18.1 43.9 C 18.6 44.0 19.0 43.6 18.2 44.8 C 19.2 43.7 20.0 42.9 20.2 42.4 C 18.7 43.7 19.0 43.1 18.5 43.4 C 19.4 42.6 19.3 42.5 19.8 42.0 C 21.0 41.2 18.9 43.3 21.1 41.5 C 19.3 42.7 22.3 40.1 23.6 39.3 C 23.3 39.4 22.9 39.7 23.4 39.1 C 26.6 36.5 26.8 37.4 28.8 35.7 C 28.7 35.9 29.7 35.3 30.2 35.1 C 28.4 36.3 27.9 36.6 27.2 37.2 C 27.4 37.2 27.9 36.8 28.5 36.5 C 28.4 36.4 28.8 36.1 29.7 35.6 C 30.1 35.2 29.7 35.0 31.2 33.9 C 31.3 33.9 31.2 34.1 32.0 33.7 C 32.6 33.1 31.5 34.3 34.8 32.4 C 34.2 32.7 33.8 32.7 34.0 32.4 C 35.5 31.5 35.2 31.7 37.4 30.5 C 38.5 30.4 36.1 31.7 35.6 32.3 C 37.1 31.4 38.2 30.5 39.9 29.9 C 38.6 30.4 39.8 29.6 41.2 28.8 C 42.6 28.2 41.3 29.2 43.0 28.4 C 44.2 27.8 44.9 27.3 43.6 27.7 C 46.6 26.5 45.7 26.5 48.4 25.5 C 48.5 25.6 47.8 25.9 46.8 26.2 C 47.0 26.2 46.7 26.5 47.7 26.1 C 48.5 25.6 49.9 25.0 51.3 24.4 C 52.8 23.8 53.7 23.4 54.3 23.1 C 56.7 22.7 59.3 21.2 61.8 20.6 C 60.8 21.2 65.0 19.6 66.3 19.6 C 67.0 19.3 69.2 18.1 68.4 18.5 C 68.7 18.8 70.2 18.2 71.4 18.0 C 71.3 17.9 71.3 17.9 71.3 17.8 C 73.8 17.0 74.5 17.1 75.4 17.1 C 78.5 16.2 82.1 15.7 86.0 14.6 C 87.1 14.6 87.9 14.4 90.4 14.1 C 90.3 13.9 92.2 13.5 94.0 13.2 C 93.5 13.0 95.2 12.8 95.2 12.6 C 93.5 12.9 94.1 12.5 93.2 12.6 C 95.4 12.4 96.4 11.7 98.2 11.7 C 96.1 12.2 95.5 12.6 95.2 13.0 C 97.8 12.5 99.1 12.4 99.6 12.5 C 99.8 12.3 99.5 12.2 98.9 12.2 C 99.8 12.1 100.6 12.0 101.4 11.8 C 101.7 11.9 100.5 12.2 101.4 12.1 C 102.0 11.9 102.7 11.7 103.3 11.5 C 104.1 11.7 102.4 11.9 102.1 12.0 C 105.5 11.6 104.0 11.4 105.8 11.0 C 106.3 11.1 106.3 11.4 107.8 11.2 C 108.4 11.0 108.6 10.7 110.3 10.5 C 111.4 10.4 110.3 10.9 111.6 10.7 C 111.8 10.6 112.3 10.6 112.9 10.5 C 112.8 10.4 113.4 10.3 114.1 10.2 C 114.3 10.3 115.6 10.0 116.1 9.9 C 116.2 10.0 118.3 10.1 118.7 9.9 C 118.7 9.8 117.6 9.9 117.4 9.9 C 118.9 9.7 119.9 9.6 120.6 9.4 C 121.1 10.0 123.5 9.3 126.5 9.3 C 128.4 9.0 126.1 8.9 128.5 8.6 C 129.9 8.6 128.2 8.8 128.5 9.1 C 128.9 9.1 131.1 9.1 131.2 8.9 C 131.1 8.8 130.0 8.9 129.9 8.8 C 131.6 8.4 131.5 8.7 132.5 8.8 C 132.4 8.6 133.5 8.4 133.8 8.3 C 138.5 7.8 138.5 8.3 140.4 8.4 C 140.4 8.3 141.6 8.3 141.7 8.2 C 140.4 8.3 138.5 8.2 140.4 8.1 C 140.1 8.2 142.9 7.9 143.1 7.9 C 142.8 7.8 141.0 7.9 141.7 7.6 C 144.2 7.4 143.2 7.9 145.1 7.6 C 145.3 7.8 144.2 7.8 143.7 7.9 C 144.5 7.9 145.6 7.8 145.7 7.9 C 144.8 8.0 144.8 8.2 144.4 8.4 C 145.7 8.1 148.0 8.2 146.4 8.0 C 149.1 8.0 151.6 7.8 149.8 7.6 C 151.9 7.5 150.7 7.8 152.4 7.6 C 152.2 7.9 151.7 8.0 153.1 8.2 C 153.4 8.1 154.5 8.0 154.4 7.8 C 157.6 7.8 158.5 8.0 159.8 8.3 C 158.6 7.9 160.2 8.2 161.8 7.9 C 162.7 8.0 161.8 8.4 164.4 8.3 C 161.6 7.9 167.7 8.3 166.5 7.8 C 169.8 8.1 169.7 8.1 173.1 8.3 C 172.8 8.4 172.0 8.5 170.5 8.5 C 171.5 8.3 167.6 8.2 167.8 8.3 C 167.8 8.4 167.8 8.4 167.8 8.5 C 170.3 8.5 172.0 8.6 173.1 8.8 C 173.6 8.7 174.8 8.6 174.4 8.3 C 176.8 8.7 179.4 8.4 180.5 8.7 C 179.6 8.7 178.8 8.7 179.1 8.8 C 180.1 8.8 181.2 8.8 181.1 8.6 C 179.2 8.4 178.8 8.4 177.8 8.5 C 178.7 8.4 175.9 8.1 177.8 8.1 C 177.7 8.5 181.8 8.1 180.5 8.3 C 178.3 8.4 182.8 8.7 183.0 8.9 C 183.0 8.9 183.0 8.9 183.0 8.9 Z M 228.5 119.7 C 230.4 119.2 228.1 119.4 226.7 119.7 C 227.1 119.7 227.3 119.8 227.4 119.9 C 227.9 119.8 228.4 119.6 228.5 119.7 C 228.5 119.7 228.5 119.7 228.5 119.7 Z M 208.1 119.4 C 207.5 119.8 210.6 119.2 211.9 119.1 C 211.5 119.1 211.1 119.0 211.9 118.9 C 210.5 118.9 210.1 119.4 208.1 119.4 C 208.1 119.4 208.1 119.4 208.1 119.4 Z M 135.3 122.6 C 135.8 122.6 137.1 122.6 137.2 122.8 C 138.0 122.8 137.8 122.6 138.0 122.6 C 139.5 122.6 137.6 122.9 139.9 122.9 C 140.9 122.5 135.9 122.1 135.3 122.6 C 135.3 122.6 135.3 122.6 135.3 122.6 Z M 157.7 11.8 C 158.7 11.9 156.5 12.1 157.1 12.3 C 160.8 12.1 157.9 11.8 163.0 11.9 C 162.7 11.9 162.3 11.8 162.4 11.7 C 160.0 11.8 159.8 12.0 160.4 11.5 C 159.3 11.5 159.0 12.0 157.7 11.8 C 157.7 11.8 157.7 11.8 157.7 11.8 Z M 204.7 15.5 C 204.3 15.3 204.0 15.2 204.0 15.1 C 202.5 15.1 202.8 15.2 200.9 14.9 C 201.1 15.2 203.0 15.4 204.7 15.5 C 204.7 15.5 204.7 15.5 204.7 15.5 Z M 305.1 61.7 C 305.1 62.0 305.2 62.2 305.3 62.5 C 305.4 62.3 305.9 62.9 305.4 61.6 C 305.4 61.6 305.4 61.8 305.5 62.0 C 305.3 61.8 305.1 61.2 305.0 61.3 C 305.1 61.7 305.1 61.7 305.1 61.7 C 305.1 61.7 305.1 61.7 305.1 61.7 Z M 289.1 93.9 C 291.2 92.2 285.4 95.4 289.1 93.9 C 289.1 93.9 289.1 93.9 289.1 93.9 C 289.1 93.9 289.1 93.9 289.1 93.9 Z M 295.2 93.0 C 295.3 93.0 295.7 92.6 295.7 92.6 C 297.4 91.3 295.9 92.7 296.9 92.0 C 298.1 90.8 296.0 92.3 297.5 90.8 C 297.1 90.9 296.2 92.2 295.2 93.0 C 295.2 93.0 295.2 93.0 295.2 93.0 Z M 26.4 37.4 C 24.9 38.5 24.6 39.1 24.5 39.5 C 25.5 38.7 26.5 38.1 26.9 38.0 C 28.8 36.5 25.4 38.8 25.1 39.0 C 25.2 38.6 26.6 37.6 26.4 37.4 C 26.4 37.4 26.4 37.4 26.4 37.4 Z M 21.6 41.1 C 21.1 41.7 20.3 42.5 20.4 42.7 C 21.2 41.9 21.4 41.9 21.5 42.0 C 22.2 41.2 21.1 41.9 21.6 41.1 C 21.6 41.1 21.6 41.1 21.6 41.1 Z M 31.5 34.5 C 30.7 35.0 31.1 35.0 31.1 35.1 C 32.2 34.4 32.5 34.4 33.7 33.7 C 33.7 33.6 33.6 33.5 33.6 33.5 C 32.5 34.0 32.5 34.2 31.6 34.7 C 31.6 34.6 31.6 34.6 31.5 34.5 C 31.5 34.5 31.5 34.5 31.5 34.5 Z M 17.7 45.2 C 15.4 47.4 14.9 48.8 14.1 50.5 C 15.3 48.8 16.2 47.0 17.5 45.9 C 18.8 44.4 16.9 46.2 16.9 46.1 C 16.9 46.0 17.4 45.5 17.7 45.2 C 17.7 45.2 17.7 45.2 17.7 45.2 Z M 7.5 66.6 C 7.3 67.1 7.7 68.0 7.8 69.5 C 7.9 69.2 7.9 69.0 8.0 69.0 C 7.9 66.9 7.5 68.1 7.5 66.6 C 7.5 66.6 7.5 66.6 7.5 66.6 Z M 10.6 78.5 C 11.2 79.7 10.4 77.8 10.8 78.3 C 10.2 77.0 9.6 75.5 9.4 75.7 C 10.1 77.1 10.3 77.4 10.6 78.5 C 10.6 78.5 10.6 78.5 10.6 78.5 Z M 16.2 86.6 C 17.4 87.8 15.9 85.8 16.6 86.2 C 16.1 85.7 16.2 85.9 16.0 86.0 C 15.8 85.6 15.5 85.2 15.0 84.6 C 15.2 85.1 16.5 86.6 16.2 86.6 C 16.2 86.6 16.2 86.6 16.2 86.6 Z M 73.2 18.3 C 72.3 18.7 72.6 18.8 70.5 19.3 C 73.7 18.5 72.1 19.6 76.3 18.4 C 75.6 18.5 76.0 18.3 76.3 18.4 C 77.9 17.8 74.7 18.6 76.2 18.0 C 75.0 18.3 75.8 18.4 74.6 18.7 C 73.3 18.8 72.5 18.9 73.2 18.3 C 73.2 18.3 73.2 18.3 73.2 18.3 Z M 76.4 18.7 C 77.6 18.4 77.5 18.0 78.1 18.1 C 78.7 17.9 78.5 17.9 78.6 17.8 C 78.2 17.9 78.1 17.9 78.0 17.8 C 77.0 18.2 76.0 18.5 76.4 18.7 C 76.4 18.7 76.4 18.7 76.4 18.7 Z M 65.7 21.6 C 67.5 21.0 68.1 21.0 69.0 20.5 C 69.7 20.7 70.2 20.0 71.3 20.0 C 73.1 19.4 71.7 19.7 71.2 19.7 C 73.0 19.1 71.7 19.8 73.5 19.3 C 73.7 18.9 71.4 19.6 71.6 19.3 C 70.3 19.6 70.3 19.8 69.5 20.1 C 68.8 20.3 69.0 20.1 68.8 20.0 C 67.3 20.6 67.3 20.3 66.1 20.8 C 65.8 21.1 66.3 21.0 67.8 20.5 C 66.3 21.0 65.7 21.4 64.0 21.8 C 65.1 21.2 59.7 22.9 60.2 23.1 C 61.7 22.7 61.2 22.6 61.8 22.4 C 63.7 22.0 64.9 21.6 65.7 21.6 C 65.7 21.6 65.7 21.6 65.7 21.6 Z M 32.6 34.8 C 32.0 35.1 31.5 35.3 30.7 35.9 C 30.5 35.7 31.6 35.1 30.5 35.6 C 29.1 36.4 28.9 36.7 28.1 37.2 C 28.6 37.0 31.5 35.5 30.1 36.5 C 30.6 36.3 31.5 35.8 32.7 35.1 C 31.2 35.6 34.7 33.9 36.1 33.2 C 35.8 32.9 38.6 31.9 39.6 31.2 C 38.6 31.4 35.8 33.1 34.6 33.8 C 35.2 33.4 31.1 35.2 32.6 34.8 C 32.6 34.8 32.6 34.8 32.6 34.8 Z M 81.0 17.4 C 81.3 17.2 82.6 16.9 81.6 17.1 C 82.1 16.9 83.2 16.8 82.7 16.5 C 83.3 16.4 83.9 16.2 84.5 16.1 C 84.3 16.3 82.6 16.6 83.3 16.7 C 84.5 16.3 84.1 16.5 85.7 16.2 C 84.9 16.6 85.8 16.4 85.2 16.9 C 85.7 16.6 87.1 16.3 87.0 16.2 C 89.3 15.7 86.4 16.6 89.4 16.0 C 89.4 16.2 87.2 16.6 86.5 16.7 C 86.1 17.0 90.2 16.0 92.5 15.6 C 90.4 15.8 92.0 15.3 93.0 14.9 C 93.7 14.8 93.0 15.1 94.3 15.0 C 95.3 14.8 95.8 14.6 96.1 14.6 C 97.0 14.5 96.6 14.4 96.7 14.2 C 98.1 14.0 97.1 14.5 99.2 14.1 C 97.6 14.0 99.4 13.6 102.3 13.3 C 102.1 13.2 101.2 13.3 101.0 13.3 C 101.4 13.0 103.1 13.1 103.6 13.1 C 104.6 12.9 103.9 12.9 102.9 13.0 C 103.5 12.9 104.1 12.7 104.8 12.5 C 101.6 12.9 96.7 13.8 91.1 14.5 C 92.2 14.5 90.9 14.8 89.3 15.0 C 89.0 14.9 89.7 14.8 90.5 14.6 C 88.5 14.7 88.7 15.3 85.7 15.8 C 84.0 16.1 87.4 15.2 85.6 15.5 C 84.5 15.8 83.8 16.1 83.2 16.0 C 81.3 16.5 80.9 16.9 78.0 17.6 C 79.6 17.3 80.5 17.7 82.2 17.2 C 82.2 17.1 81.5 17.3 81.0 17.4 C 81.0 17.4 81.0 17.4 81.0 17.4 Z M 21.6 42.1 C 20.7 42.8 20.4 43.3 20.2 43.4 C 18.8 44.7 20.5 43.4 20.8 43.2 C 21.4 42.6 21.6 42.3 21.6 42.1 C 21.6 42.1 21.6 42.1 21.6 42.1 Z M 143.8 125.2 C 146.3 125.3 145.8 125.0 147.8 125.1 C 146.2 124.9 145.8 124.7 143.2 124.6 C 143.0 124.8 143.0 125.0 143.8 125.2 C 143.8 125.2 143.8 125.2 143.8 125.2 Z M 27.0 38.2 C 28.2 37.0 25.5 39.6 25.4 39.4 C 24.0 40.7 26.9 38.5 25.6 39.7 C 26.9 38.6 27.8 38.2 29.6 36.9 C 29.4 36.8 27.9 37.8 26.6 38.8 C 26.3 38.8 27.1 38.3 27.0 38.2 C 27.0 38.2 27.0 38.2 27.0 38.2 Z M 118.2 122.6 C 116.5 122.7 119.8 123.3 120.8 123.5 C 120.9 123.2 120.3 123.2 118.2 122.6 C 118.2 122.6 118.2 122.6 118.2 122.6 Z M 161.1 125.1 C 162.1 124.7 158.2 125.0 159.1 124.7 C 158.0 124.7 157.8 124.8 157.8 124.9 C 157.2 124.8 155.3 124.9 155.8 124.6 C 155.5 124.4 158.8 124.7 157.8 124.4 C 158.9 124.4 158.9 124.5 159.8 124.5 C 157.8 124.5 158.7 124.8 161.1 124.8 C 161.1 124.6 160.0 124.7 161.1 124.5 C 161.3 124.6 162.5 124.8 162.4 125.1 C 164.5 125.1 163.3 124.7 165.8 124.7 C 165.6 124.5 164.0 124.6 163.1 124.5 C 163.3 124.2 165.7 124.7 165.1 124.3 C 165.6 124.5 167.1 124.6 167.1 124.8 C 165.2 125.0 164.0 125.1 162.4 125.3 C 163.9 125.4 166.0 124.8 168.4 125.0 C 168.2 124.8 169.7 124.8 169.1 124.6 C 171.1 124.6 170.2 125.0 169.8 125.0 C 170.3 125.1 174.1 124.9 173.8 124.7 C 174.1 124.9 178.6 124.7 178.4 124.4 C 179.8 124.5 181.8 124.0 182.4 124.3 C 183.2 124.2 184.7 124.1 186.4 124.0 C 186.8 123.7 183.9 124.0 183.7 123.8 C 183.2 123.6 186.8 123.7 186.3 123.5 C 186.3 123.4 186.3 123.4 186.3 123.3 C 185.0 123.5 183.7 123.7 182.4 123.8 C 181.4 123.9 182.6 123.7 182.4 123.6 C 181.5 123.8 177.2 124.3 177.1 123.9 C 174.2 124.1 172.2 124.1 171.1 124.3 C 169.4 124.4 172.0 124.2 171.1 124.0 C 166.1 124.5 160.0 124.1 155.8 124.5 C 154.9 124.4 155.2 124.3 155.1 124.2 C 149.4 124.3 154.3 124.7 149.8 124.5 C 149.8 124.2 151.9 124.3 151.8 124.1 C 150.2 124.1 149.9 124.2 147.8 124.1 C 147.8 124.2 147.8 124.3 147.8 124.4 C 146.1 124.3 146.7 124.1 145.8 123.9 C 143.7 124.0 144.2 124.1 143.2 123.8 C 141.2 123.8 139.3 123.8 137.2 123.6 C 135.8 123.6 138.4 124.2 140.5 124.3 C 140.4 124.3 139.8 124.3 139.8 124.4 C 137.4 124.1 137.0 123.6 133.3 123.3 C 136.1 123.8 131.8 123.3 131.3 123.1 C 129.8 123.0 130.9 123.4 131.9 123.5 C 131.7 123.6 130.8 123.4 130.7 123.3 C 130.4 123.6 134.0 124.1 137.8 124.1 C 136.1 124.5 140.5 124.3 138.5 124.7 C 141.6 124.7 139.0 124.3 142.5 124.5 C 142.1 124.4 141.5 124.3 141.2 124.2 C 143.8 124.2 143.0 124.6 145.8 124.6 C 146.3 124.4 144.5 124.4 144.5 124.2 C 147.5 124.6 148.5 124.7 150.5 125.0 C 150.9 124.8 150.4 124.6 153.8 124.8 C 153.8 124.8 153.8 124.9 153.8 124.9 C 152.2 124.9 151.8 125.3 155.8 125.4 C 156.1 125.2 154.8 125.2 153.8 125.2 C 154.3 125.0 155.6 125.0 157.1 125.0 C 157.9 125.0 158.8 125.1 157.8 125.1 C 158.4 125.4 159.0 124.9 161.1 125.1 C 161.1 125.1 161.1 125.1 161.1 125.1 Z M 8.2 64.2 C 8.2 64.6 8.2 65.0 8.2 65.7 C 8.4 66.0 8.4 64.7 8.6 64.7 C 8.7 63.7 8.3 64.5 8.2 64.2 C 8.2 64.2 8.2 64.2 8.2 64.2 Z M 13.4 51.4 C 13.2 51.3 13.0 52.2 12.3 53.2 C 12.3 53.6 13.0 52.3 13.1 52.4 C 14.0 51.2 12.6 52.5 13.4 51.4 C 13.4 51.4 13.4 51.4 13.4 51.4 Z M 10.4 56.8 C 10.0 57.2 10.3 57.3 10.7 56.3 C 10.8 56.5 10.8 56.8 10.6 57.4 C 11.1 56.8 10.9 56.2 11.6 55.1 C 11.2 55.4 10.8 56.0 10.4 56.8 C 10.4 56.8 10.4 56.8 10.4 56.8 Z M 9.7 58.6 C 9.6 59.4 9.2 59.8 9.1 61.0 C 9.3 60.7 10.0 58.2 10.1 57.7 C 10.1 57.2 9.1 60.0 9.7 58.6 C 9.7 58.6 9.7 58.6 9.7 58.6 Z M 93.1 118.7 C 93.7 118.8 93.6 118.7 93.7 118.6 C 95.6 119.3 98.2 119.7 96.1 119.7 C 98.1 119.8 99.9 120.4 101.6 120.8 C 103.1 121.0 102.4 120.7 103.5 120.8 C 105.4 121.2 102.5 120.8 102.9 121.0 C 103.2 121.2 103.8 120.9 106.0 121.4 C 105.5 120.8 107.9 121.7 107.3 121.1 C 108.5 121.5 108.9 121.4 110.5 121.6 C 110.4 121.4 108.8 121.2 108.7 121.0 C 107.9 120.7 107.8 121.1 109.3 121.2 C 108.4 121.4 106.2 120.7 105.5 120.8 C 104.7 120.4 107.5 121.0 106.8 120.7 C 106.2 120.6 105.6 120.6 105.5 120.6 C 104.6 120.5 104.0 120.3 103.6 120.1 C 104.2 120.2 104.3 120.3 104.2 120.3 C 105.4 120.5 103.1 119.7 105.6 120.1 C 105.2 119.9 104.1 119.8 104.3 119.7 C 103.6 119.4 104.2 120.3 101.8 119.7 C 100.1 119.7 105.7 120.5 104.2 120.8 C 100.7 120.2 102.7 120.1 99.9 119.6 C 99.9 119.7 99.9 119.9 99.2 119.7 C 99.3 119.9 100.4 120.0 101.1 120.1 C 100.9 120.2 99.9 120.0 99.2 119.9 C 99.3 120.0 99.8 120.1 99.8 120.2 C 97.5 119.7 97.8 119.2 99.9 119.5 C 99.9 119.2 97.0 118.8 96.2 118.8 C 97.0 119.1 96.1 118.9 96.8 119.2 C 97.4 119.3 97.3 119.2 97.4 119.2 C 98.5 119.4 97.5 119.4 97.4 119.4 C 96.1 119.2 96.2 119.0 95.0 118.9 C 95.3 118.9 95.6 118.9 95.6 118.8 C 95.0 118.7 94.3 118.6 93.7 118.5 C 93.8 118.6 93.0 118.5 93.1 118.7 C 93.1 118.7 93.1 118.7 93.1 118.7 Z M 126.0 123.7 C 128.2 124.0 127.0 123.6 126.0 123.6 C 126.5 123.5 127.2 123.5 128.0 123.6 C 127.4 123.4 126.8 123.4 124.8 123.2 C 126.6 123.0 124.8 122.5 121.5 122.2 C 120.5 122.6 123.2 122.9 122.1 123.0 C 124.5 123.1 125.8 123.4 126.0 123.7 C 126.0 123.7 126.0 123.7 126.0 123.7 Z M 20.9 43.3 C 20.0 44.1 19.1 44.9 18.2 45.8 C 18.5 45.8 21.4 43.3 20.9 43.3 C 20.9 43.3 20.9 43.3 20.9 43.3 Z M 107.3 12.5 C 107.8 12.4 107.9 12.4 108.0 12.5 C 109.8 12.1 107.1 12.4 107.9 12.1 C 107.2 12.2 106.6 12.2 106.0 12.3 C 105.9 12.5 108.6 12.2 106.7 12.6 C 106.8 12.6 107.3 12.5 107.3 12.5 C 107.3 12.5 107.3 12.5 107.3 12.5 Z M 8.7 63.3 C 8.6 64.2 8.9 63.7 8.7 65.7 C 9.0 65.0 8.9 64.5 9.1 63.4 C 8.9 63.3 8.8 63.3 8.7 63.3 C 8.7 63.3 8.7 63.3 8.7 63.3 Z M 84.0 117.2 C 85.4 117.8 85.9 117.3 88.8 118.1 C 87.4 117.5 85.7 117.5 84.0 117.2 C 84.0 117.2 84.0 117.2 84.0 117.2 Z M 191.6 123.2 C 190.6 123.2 191.8 123.0 190.2 123.1 C 189.3 123.2 189.0 123.4 187.6 123.5 C 189.5 123.6 192.8 123.1 194.2 123.4 C 195.8 123.2 195.6 122.9 196.1 122.7 C 195.3 122.8 195.0 122.8 194.8 122.7 C 193.9 123.2 192.7 122.7 191.6 123.2 C 191.6 123.2 191.6 123.2 191.6 123.2 Z M 117.6 122.5 C 116.4 122.2 118.4 122.4 118.9 122.2 C 119.8 122.4 119.5 122.5 119.6 122.6 C 120.7 122.7 121.0 122.6 120.9 122.4 C 118.7 122.2 116.1 121.9 117.7 121.7 C 115.6 121.4 116.7 121.9 115.7 121.8 C 114.6 121.5 115.7 121.6 115.8 121.3 C 115.3 121.3 113.7 121.4 113.8 121.1 C 110.7 121.1 112.1 121.6 114.3 122.3 C 116.4 122.3 114.0 121.9 117.6 122.5 C 117.6 122.5 117.6 122.5 117.6 122.5 Z M 39.1 101.7 C 39.3 101.9 40.6 102.5 40.6 102.6 C 42.2 103.1 43.8 103.6 45.4 104.0 C 45.2 103.7 43.0 102.9 43.8 103.5 C 43.2 103.0 41.8 102.2 41.0 101.7 C 39.5 100.9 38.8 101.1 38.8 100.7 C 37.3 100.1 38.1 100.5 36.0 99.3 C 39.3 101.4 34.7 98.7 34.4 98.9 C 36.3 100.0 38.1 100.9 38.0 100.5 C 39.4 101.4 41.1 102.3 41.4 102.7 C 41.2 102.7 40.0 102.1 39.1 101.7 C 39.1 101.7 39.1 101.7 39.1 101.7 Z M 48.7 105.3 C 48.0 105.0 47.4 104.8 46.3 104.3 C 46.9 104.7 47.1 104.9 46.9 105.0 C 49.0 105.8 49.6 105.9 50.2 106.4 C 52.2 107.2 49.8 105.9 52.9 107.2 C 52.6 107.0 51.1 106.4 51.2 106.3 C 50.9 106.4 49.6 106.0 48.7 105.3 C 48.7 105.3 48.7 105.3 48.7 105.3 Z M 66.9 112.2 C 68.3 112.6 66.2 111.8 67.0 111.9 C 66.6 111.8 63.9 110.9 64.3 110.8 C 63.6 110.2 60.7 110.0 61.1 109.7 C 60.5 109.5 60.6 109.7 60.5 109.7 C 62.4 110.3 62.3 110.5 61.0 110.1 C 61.1 110.2 62.3 110.6 63.1 110.8 C 63.2 110.7 62.5 110.5 62.7 110.4 C 64.2 111.0 65.4 111.6 66.9 112.2 C 66.9 112.2 66.9 112.2 66.9 112.2 Z M 179.0 9.9 C 177.4 9.8 176.5 9.8 175.7 9.8 C 176.1 10.0 176.9 9.9 177.7 9.9 C 177.9 10.1 177.2 10.1 176.3 10.0 C 177.1 10.3 179.9 10.2 179.0 9.9 C 179.0 9.9 179.0 9.9 179.0 9.9 Z M 165.7 9.5 C 164.2 9.4 163.2 9.5 163.0 9.6 C 163.6 9.8 163.4 9.5 164.4 9.5 C 165.0 9.6 165.4 9.7 165.7 9.8 C 166.4 9.8 166.2 9.7 166.4 9.7 C 166.9 9.7 167.0 9.7 167.1 9.7 C 168.9 9.6 164.9 9.7 165.7 9.5 C 165.7 9.5 165.7 9.5 165.7 9.5 Z M 57.8 109.1 C 57.4 108.8 57.1 108.6 55.8 108.1 C 56.0 108.4 55.0 108.0 54.2 107.7 C 55.3 108.3 56.0 108.4 57.8 109.1 C 57.8 109.1 57.8 109.1 57.8 109.1 Z M 85.3 17.0 C 83.4 17.2 83.7 17.5 81.1 17.9 C 81.1 18.0 81.2 18.1 81.2 18.2 C 82.7 17.6 83.4 17.6 85.3 17.0 C 85.3 17.0 85.3 17.0 85.3 17.0 Z M 306.8 77.7 C 306.7 77.5 306.1 78.9 305.9 78.9 C 306.1 79.3 305.3 79.7 303.6 82.2 C 303.5 82.2 303.5 82.0 303.8 81.7 C 302.3 83.7 304.4 81.3 304.7 81.1 C 305.8 79.5 306.1 79.3 306.8 77.7 C 306.8 77.7 306.8 77.7 306.8 77.7 Z M 171.8 123.6 C 171.6 123.7 172.0 123.7 172.4 123.6 C 172.9 123.6 173.3 123.6 173.7 123.6 C 173.6 123.3 171.4 123.2 173.0 122.8 C 172.4 122.8 172.4 122.9 172.4 122.9 C 169.2 123.7 166.6 122.6 162.4 123.1 C 161.8 123.1 161.9 123.2 161.8 123.3 C 162.3 123.3 162.4 123.3 162.4 123.4 C 163.0 123.0 166.8 123.4 165.1 123.5 C 165.2 123.6 165.7 123.5 165.7 123.5 C 166.2 123.5 166.6 123.5 167.1 123.5 C 166.8 123.4 165.9 123.4 165.7 123.2 C 167.9 123.3 170.5 123.3 169.1 123.7 C 170.4 123.6 170.9 123.5 171.8 123.3 C 172.6 123.3 172.6 123.6 171.8 123.6 C 171.8 123.6 171.8 123.6 171.8 123.6 Z M 188.9 122.6 C 190.9 122.5 190.1 122.3 192.1 122.2 C 190.9 122.1 189.3 122.5 187.6 122.5 C 187.8 122.5 188.7 122.5 188.9 122.6 C 188.9 122.6 188.9 122.6 188.9 122.6 Z M 150.5 123.3 C 150.9 123.0 149.1 122.9 147.2 122.9 C 146.8 123.2 148.5 123.2 150.5 123.3 C 150.5 123.3 150.5 123.3 150.5 123.3 Z M 159.1 123.4 C 161.1 123.3 156.7 123.3 157.8 123.1 C 156.9 123.1 155.9 123.1 155.8 123.0 C 155.1 123.0 155.1 123.1 153.8 123.1 C 153.9 123.3 156.0 123.2 155.8 123.4 C 157.3 123.2 157.6 123.2 159.1 123.4 C 159.1 123.4 159.1 123.4 159.1 123.4 Z M 160.4 123.4 C 161.7 123.3 160.1 122.9 158.5 122.9 C 159.1 123.1 159.5 123.3 160.4 123.4 C 160.4 123.4 160.4 123.4 160.4 123.4 Z M 17.3 84.2 C 17.8 84.7 17.5 84.2 18.2 84.8 C 18.2 84.8 16.1 82.3 17.9 84.3 C 17.5 83.4 16.8 83.3 16.2 82.3 C 16.3 82.6 16.4 82.9 16.0 82.4 C 15.6 82.2 17.7 84.3 17.3 84.2 C 17.3 84.2 17.3 84.2 17.3 84.2 Z M 19.5 86.6 C 20.0 87.1 19.8 86.8 19.6 86.6 C 19.7 86.6 20.4 87.3 20.9 87.8 C 20.9 87.9 20.2 86.6 20.4 86.5 C 18.2 84.6 19.6 86.4 19.5 86.6 C 19.5 86.6 19.5 86.6 19.5 86.6 Z M 21.7 88.6 C 23.1 90.1 25.4 91.8 26.7 92.5 C 25.7 91.3 22.7 89.0 21.7 88.6 C 21.7 88.6 21.7 88.6 21.7 88.6 Z M 11.8 74.8 C 12.5 77.4 15.6 82.2 13.4 77.6 C 13.4 77.8 11.9 74.9 11.5 73.4 C 11.4 73.4 10.8 71.8 10.9 71.8 C 10.4 70.7 11.8 75.4 11.8 74.8 C 11.8 74.8 11.8 74.8 11.8 74.8 Z M 29.2 93.6 C 28.2 93.1 29.1 94.3 27.8 93.2 C 27.0 92.6 28.0 93.4 27.7 93.4 C 29.4 94.6 33.4 96.8 33.6 97.2 C 34.7 97.7 35.1 97.8 37.0 98.9 C 37.2 98.8 30.2 95.1 29.1 93.8 C 29.3 93.8 31.5 95.2 29.2 93.6 C 29.2 93.6 29.2 93.6 29.2 93.6 Z M 85.6 18.4 C 85.7 18.2 83.3 18.9 83.7 18.5 C 82.5 19.1 81.2 19.2 79.7 19.7 C 79.3 19.8 79.4 19.4 77.3 19.8 C 77.3 20.1 78.3 19.8 77.4 20.1 C 75.6 20.6 76.0 20.2 73.9 20.9 C 74.3 21.2 69.6 22.2 70.1 22.4 C 71.2 22.1 71.1 21.9 72.9 21.5 C 73.5 21.3 73.3 21.5 74.0 21.3 C 73.5 21.7 72.5 21.6 71.8 22.0 C 72.0 22.1 73.4 21.8 73.6 21.9 C 74.4 21.6 73.3 21.8 73.5 21.6 C 75.7 21.0 73.5 22.2 75.9 21.5 C 75.4 21.4 75.3 21.4 75.8 21.1 C 76.8 20.9 79.7 20.0 78.1 20.7 C 78.3 20.8 80.1 20.1 79.8 20.1 C 80.8 19.8 80.9 19.9 81.0 19.9 C 83.5 19.3 83.8 19.0 83.2 18.9 C 83.7 18.5 84.1 18.8 85.6 18.4 C 85.6 18.4 85.6 18.4 85.6 18.4 Z M 11.2 61.1 C 11.3 60.0 10.9 62.2 10.7 63.2 C 11.0 62.0 11.2 62.4 11.6 61.2 C 11.3 61.6 11.3 61.5 11.5 60.7 C 11.5 60.4 10.9 62.3 11.2 61.1 C 11.2 61.1 11.2 61.1 11.2 61.1 Z M 41.3 101.1 C 42.0 101.6 46.0 103.3 48.2 104.3 C 47.9 103.8 42.6 101.9 42.1 101.3 C 40.9 100.7 42.7 101.7 41.3 101.1 C 41.3 101.1 41.3 101.1 41.3 101.1 Z M 63.9 23.8 C 63.4 24.0 63.7 23.9 64.0 23.8 C 63.8 24.0 62.7 24.3 61.9 24.6 C 63.1 24.4 61.7 24.9 62.0 25.1 C 61.4 25.3 61.1 25.4 61.0 25.5 C 60.8 25.1 57.7 26.8 61.1 25.8 C 60.4 25.7 60.7 25.7 62.0 25.1 C 63.6 24.8 64.7 24.2 65.3 24.3 C 66.3 24.0 66.7 23.7 68.0 23.4 C 68.4 23.5 69.6 23.2 68.7 23.8 C 71.1 23.1 69.3 23.0 71.3 22.4 C 73.3 22.0 70.4 22.9 70.9 23.0 C 71.4 22.9 71.3 23.0 71.5 23.0 C 72.2 22.8 72.1 22.6 71.4 22.8 C 71.6 22.7 73.5 21.9 73.1 22.3 C 74.2 21.9 71.1 22.1 69.6 22.8 C 68.7 23.1 68.6 22.6 69.5 22.4 C 69.1 22.3 67.5 23.4 67.8 22.8 C 67.1 23.0 66.4 23.2 65.6 23.4 C 65.8 23.4 66.2 23.3 66.2 23.4 C 65.5 23.6 64.8 23.8 64.0 24.1 C 64.6 23.8 64.6 23.7 63.9 23.8 C 63.9 23.8 63.9 23.8 63.9 23.8 Z M 32.5 96.2 C 34.1 97.1 34.5 97.2 35.8 97.9 C 35.4 97.5 31.9 95.5 32.5 96.2 C 32.5 96.2 32.5 96.2 32.5 96.2 Z M 96.0 17.1 C 95.8 17.1 94.7 17.3 94.7 17.2 C 96.6 16.7 94.4 17.0 95.8 16.3 C 93.4 17.0 92.7 17.7 96.0 17.3 C 98.4 16.8 93.5 17.6 96.0 17.1 C 96.0 17.1 96.0 17.1 96.0 17.1 Z M 88.6 18.3 C 87.2 18.8 90.9 18.1 91.7 18.1 C 91.8 18.1 91.8 18.2 91.8 18.3 C 93.8 17.5 91.0 17.9 92.8 17.1 C 90.4 17.5 89.4 17.6 87.4 18.1 C 87.5 18.2 88.0 18.0 88.0 18.0 C 89.5 17.7 88.5 18.3 86.8 18.5 C 87.3 18.5 88.8 18.2 89.8 18.0 C 89.5 18.0 89.2 18.0 89.2 17.9 C 90.5 17.6 90.1 17.9 91.0 17.7 C 91.0 17.8 88.7 18.5 88.6 18.3 C 88.6 18.3 88.6 18.3 88.6 18.3 Z M 215.6 15.3 C 214.3 15.2 216.8 15.9 216.7 16.2 C 218.0 16.5 218.3 16.4 219.2 16.5 C 218.8 16.3 217.3 16.1 216.7 15.8 C 217.0 15.6 218.7 16.2 219.2 16.1 C 220.1 15.8 216.1 15.7 215.6 15.3 C 215.6 15.3 215.6 15.3 215.6 15.3 Z M 33.3 37.4 C 32.6 37.8 33.0 37.7 33.3 37.5 C 33.3 37.7 32.2 38.3 32.1 38.2 C 31.2 38.8 32.7 38.0 31.6 38.7 C 31.5 39.0 33.4 37.7 33.4 37.6 C 34.8 36.7 33.8 37.6 34.3 37.5 C 35.5 36.8 34.9 36.9 36.8 35.9 C 35.6 36.4 34.6 36.8 33.3 37.4 C 33.3 37.4 33.3 37.4 33.3 37.4 Z M 100.1 15.9 C 100.4 15.8 98.8 16.5 97.1 16.6 C 95.0 17.0 98.5 16.6 96.5 16.9 C 98.2 16.7 100.1 16.2 102.6 15.7 C 103.2 15.5 99.1 16.3 101.4 15.8 C 101.3 15.7 100.7 15.8 100.8 15.9 C 100.3 16.0 100.2 15.9 100.1 15.9 C 100.1 15.9 100.1 15.9 100.1 15.9 Z M 97.8 16.9 C 97.9 16.9 98.4 16.8 98.4 16.8 C 99.2 16.6 99.2 16.9 98.5 17.0 C 99.5 17.1 99.4 16.6 101.5 16.4 C 100.6 16.4 100.1 16.3 102.1 16.2 C 103.6 15.7 98.5 16.6 97.8 16.9 C 97.8 16.9 97.8 16.9 97.8 16.9 Z M 195.2 13.0 C 195.4 13.1 196.8 13.2 197.8 13.3 C 196.5 13.4 191.3 12.8 190.7 12.6 C 190.1 12.6 189.5 12.6 189.3 12.5 C 189.4 12.6 187.9 12.6 188.7 12.7 C 188.6 12.8 187.4 12.6 187.4 12.8 C 185.4 12.6 188.0 12.6 187.4 12.4 C 185.1 12.5 185.6 12.3 182.8 12.1 C 183.3 12.4 186.3 12.5 186.1 12.8 C 188.2 12.7 190.6 13.1 191.9 13.4 C 189.9 12.9 197.5 13.4 201.0 13.8 C 200.8 14.0 202.1 14.1 203.5 14.3 C 204.5 14.7 204.2 14.1 202.3 14.0 C 202.4 13.9 205.0 14.3 206.1 14.4 C 204.8 14.1 205.5 14.1 204.9 13.9 C 202.4 13.6 204.6 14.0 204.2 14.1 C 203.5 14.0 202.9 14.0 202.2 13.9 C 205.6 13.9 197.4 13.3 200.4 13.6 C 197.7 13.3 197.7 13.1 195.2 13.0 C 195.2 13.0 195.2 13.0 195.2 13.0 Z M 133.4 12.1 C 132.9 12.2 130.8 12.5 130.8 12.3 C 128.1 12.7 130.5 12.7 127.5 13.0 C 127.7 13.0 128.8 12.9 128.8 13.0 C 130.0 12.9 131.1 12.7 130.8 12.5 C 132.1 12.4 132.5 12.3 133.4 12.2 C 133.1 12.3 132.6 12.4 131.4 12.5 C 131.2 12.7 131.7 12.8 133.4 12.7 C 134.2 12.4 133.6 12.3 133.4 12.1 C 133.4 12.1 133.4 12.1 133.4 12.1 Z M 126.9 12.9 C 126.5 12.9 126.1 12.9 126.2 12.8 C 125.2 12.6 125.8 13.1 124.9 13.2 C 124.1 13.3 124.4 13.1 124.2 13.0 C 123.1 13.2 122.2 13.3 121.7 13.3 C 119.9 13.6 123.7 13.3 124.3 13.3 C 125.5 13.2 125.1 13.0 126.9 12.9 C 126.9 12.9 126.9 12.9 126.9 12.9 Z M 107.6 14.9 C 107.3 14.7 106.7 15.1 105.8 15.2 C 106.4 15.3 108.3 14.9 107.1 15.4 C 108.9 15.2 109.0 15.2 110.9 14.9 C 112.1 15.0 110.9 14.7 109.0 15.1 C 109.2 14.9 110.1 14.8 110.2 14.7 C 111.5 15.0 114.6 13.8 112.7 14.4 C 112.1 14.4 111.8 14.4 111.4 14.3 C 111.0 14.6 106.7 15.1 107.6 14.9 C 107.6 14.9 107.6 14.9 107.6 14.9 Z M 48.5 30.3 C 50.1 29.6 50.9 29.3 51.8 29.0 C 52.6 28.6 53.8 28.2 54.9 27.8 C 54.9 27.9 54.8 28.0 54.4 28.1 C 54.9 28.1 55.5 27.8 56.4 27.4 C 56.3 27.3 55.9 27.6 55.9 27.6 C 54.2 28.0 55.6 27.5 55.8 27.2 C 53.7 27.8 50.7 29.4 49.2 29.7 C 48.0 30.3 49.5 29.7 48.5 30.3 C 48.5 30.3 48.5 30.3 48.5 30.3 Z M 305.8 75.2 C 305.8 75.4 305.5 76.1 305.7 76.1 C 305.9 75.4 306.0 75.0 306.2 74.4 C 305.7 75.5 305.5 75.2 304.8 76.7 C 305.1 76.2 305.3 76.5 305.8 75.2 C 305.8 75.2 305.8 75.2 305.8 75.2 Z M 114.0 14.1 C 114.1 14.2 114.1 14.3 113.4 14.4 C 113.2 14.6 115.2 14.3 115.3 14.4 C 116.0 14.3 115.7 14.2 116.6 14.1 C 116.2 14.0 114.6 14.3 115.2 14.0 C 115.8 13.9 115.9 13.9 115.9 14.0 C 117.2 13.7 115.2 13.9 114.0 14.1 C 114.0 14.1 114.0 14.1 114.0 14.1 Z M 221.7 16.6 C 220.8 16.4 221.7 16.7 222.3 16.8 C 220.5 16.8 223.3 17.4 223.4 17.7 C 222.6 17.3 220.2 17.0 219.8 16.9 C 219.0 16.8 219.9 17.2 217.9 16.9 C 218.1 17.1 220.3 17.3 219.7 17.0 C 220.2 17.4 222.4 17.4 222.2 17.7 C 224.9 18.2 225.5 18.2 225.8 18.0 C 223.2 17.6 224.6 17.4 222.3 17.1 C 222.3 17.0 223.0 17.1 223.5 17.2 C 223.3 17.0 222.3 16.8 221.7 16.6 C 221.7 16.6 221.7 16.6 221.7 16.6 Z M 154.4 11.5 C 153.0 11.5 153.0 11.7 153.1 11.9 C 153.7 11.8 154.6 11.8 155.7 11.8 C 155.5 11.6 153.7 11.7 154.4 11.5 C 154.4 11.5 154.4 11.5 154.4 11.5 Z M 211.7 15.3 C 211.6 15.2 211.1 15.2 211.1 15.2 C 209.5 15.0 209.2 14.8 208.6 14.7 C 207.7 14.6 208.0 14.8 208.0 14.9 C 209.5 14.9 209.1 15.2 211.1 15.4 C 211.0 15.3 211.2 15.3 211.7 15.3 C 211.7 15.3 211.7 15.3 211.7 15.3 Z M 168.3 11.7 C 167.5 11.7 167.9 11.8 168.3 11.8 C 167.4 12.0 164.7 11.7 163.7 11.9 C 163.5 12.1 166.9 12.0 163.0 12.1 C 163.7 12.3 167.2 12.2 168.9 12.3 C 168.6 12.5 166.2 12.4 166.3 12.7 C 168.4 12.6 170.6 12.5 170.9 12.2 C 168.0 12.1 169.0 11.9 168.3 11.7 C 168.3 11.7 168.3 11.7 168.3 11.7 Z M 171.6 11.9 C 171.3 11.8 170.8 11.9 169.7 11.9 C 171.3 12.2 172.2 12.1 175.6 12.3 C 175.6 12.3 175.6 12.2 175.6 12.2 C 176.2 12.2 176.9 12.2 177.6 12.3 C 174.7 11.9 174.0 12.0 171.0 12.0 C 170.8 11.9 171.2 11.9 171.6 11.9 C 171.6 11.9 171.6 11.9 171.6 11.9 Z M 85.7 19.1 C 86.6 19.1 87.3 19.1 88.7 18.8 C 88.6 18.6 87.7 18.7 85.7 19.1 C 85.7 19.1 85.7 19.1 85.7 19.1 Z M 214.2 15.8 C 215.9 16.0 212.5 15.6 213.5 16.0 C 214.9 16.3 216.3 16.6 216.6 16.9 C 219.1 16.9 213.8 16.1 214.2 15.8 C 214.2 15.8 214.2 15.8 214.2 15.8 Z M 202.8 14.9 C 202.1 14.8 202.1 14.4 202.8 14.7 C 204.6 15.0 201.3 14.3 204.1 14.7 C 202.9 14.5 200.3 14.1 199.0 14.1 C 199.0 14.3 201.5 14.5 201.5 14.7 C 201.6 14.8 201.3 14.7 200.9 14.7 C 201.1 14.8 201.7 14.7 202.8 14.9 C 202.8 14.9 202.8 14.9 202.8 14.9 Z M 193.2 13.5 C 194.3 13.8 195.5 14.0 197.7 14.2 C 196.3 13.9 195.5 13.6 193.2 13.5 C 193.2 13.5 193.2 13.5 193.2 13.5 Z M 302.4 53.9 C 301.8 53.0 302.1 54.0 302.2 54.1 C 302.8 55.1 302.9 54.9 303.5 56.1 C 303.5 55.6 302.6 54.7 302.4 53.9 C 302.4 53.9 302.4 53.9 302.4 53.9 Z M 304.3 57.6 C 304.2 57.7 304.9 59.1 304.8 59.2 C 305.6 59.8 305.2 61.3 305.6 61.2 C 305.6 61.5 305.7 61.8 305.8 62.4 C 305.9 61.2 304.9 58.7 304.3 57.6 C 304.3 57.6 304.3 57.6 304.3 57.6 Z M 182.1 13.2 C 180.4 13.1 182.6 13.6 180.8 13.5 C 180.6 13.6 184.1 13.8 182.0 13.8 C 184.7 14.1 181.9 13.3 182.1 13.2 C 182.1 13.2 182.1 13.2 182.1 13.2 Z M 149.8 12.9 C 150.0 12.7 147.5 12.9 146.6 12.9 C 146.6 13.0 147.3 13.0 147.8 13.0 C 147.6 13.0 147.3 13.1 146.6 13.2 C 147.1 13.3 148.9 13.0 149.8 12.9 C 149.8 12.9 149.8 12.9 149.8 12.9 Z M 185.7 9.3 C 186.7 9.6 188.1 9.9 188.9 9.6 C 190.1 9.9 188.1 9.8 189.5 10.0 C 191.4 10.0 190.5 10.2 193.5 10.3 C 192.9 10.6 195.0 10.8 195.4 11.0 C 194.2 10.9 192.7 10.5 192.1 10.7 C 193.1 10.8 192.5 11.0 192.1 10.8 C 190.1 10.5 194.5 10.7 192.1 10.3 C 191.4 10.6 187.9 9.7 185.6 9.6 C 186.5 9.5 183.9 9.2 185.7 9.3 C 185.7 9.3 185.7 9.3 185.7 9.3 Z M 197.4 10.7 C 198.9 10.9 199.7 11.4 199.3 11.4 C 199.3 11.3 197.5 11.1 197.3 11.2 C 197.8 11.2 198.1 11.3 198.0 11.3 C 195.1 11.0 196.1 10.9 195.4 10.7 C 197.0 10.7 197.5 10.9 198.0 10.9 C 197.7 10.8 197.3 10.8 197.4 10.7 C 197.4 10.7 197.4 10.7 197.4 10.7 Z M 229.9 19.6 C 229.6 19.4 229.2 19.5 228.6 19.4 C 228.6 19.0 225.5 18.9 225.1 18.6 C 225.8 18.7 227.4 19.0 228.1 19.0 C 227.3 18.8 227.2 18.7 226.3 18.6 C 226.5 18.4 228.3 18.8 228.8 18.7 C 228.9 18.9 229.8 18.9 230.0 19.0 C 227.6 18.7 231.2 19.8 229.9 19.6 C 229.9 19.6 229.9 19.6 229.9 19.6 Z M 167.0 13.0 C 166.7 13.2 169.6 13.8 167.0 14.1 C 166.4 13.9 166.1 13.6 166.3 13.3 C 164.7 13.5 164.0 13.2 163.0 13.5 C 160.0 12.7 165.3 13.5 167.0 13.0 C 167.0 13.0 167.0 13.0 167.0 13.0 Z M 156.4 13.1 C 157.0 12.9 155.5 12.9 155.7 12.7 C 157.0 12.9 161.2 12.6 159.7 12.8 C 158.4 12.9 158.4 13.1 156.4 13.1 C 156.4 13.1 156.4 13.1 156.4 13.1 Z M 77.5 113.4 C 75.6 113.1 74.7 112.4 75.8 112.6 C 75.3 112.7 78.1 113.3 77.5 113.4 C 77.5 113.4 77.5 113.4 77.5 113.4 Z M 10.6 80.3 C 11.3 81.7 11.9 82.4 11.8 82.7 C 10.9 81.4 11.1 81.5 10.5 80.3 C 10.3 80.3 9.9 79.6 9.9 79.5 C 10.2 80.1 10.3 79.9 10.6 80.3 C 10.6 80.3 10.6 80.3 10.6 80.3 Z M 116.1 9.8 C 115.9 9.7 115.1 9.8 115.4 9.6 C 117.4 9.5 119.6 9.0 121.2 8.7 C 121.2 8.8 121.2 8.9 121.3 9.0 C 118.1 9.3 117.3 9.5 116.1 9.8 C 116.1 9.8 116.1 9.8 116.1 9.8 Z M 112.1 9.8 C 111.8 10.0 112.9 10.1 111.6 10.3 C 111.6 10.1 109.1 10.2 110.2 10.0 C 110.6 10.1 111.3 10.0 112.1 9.8 C 112.1 9.8 112.1 9.8 112.1 9.8 Z M 222.2 13.4 C 223.7 13.7 221.6 13.1 221.7 13.0 C 222.8 13.2 224.3 13.5 224.7 13.7 C 223.6 13.5 222.8 13.7 222.2 13.4 C 222.2 13.4 222.2 13.4 222.2 13.4 Z M 198.7 10.8 C 195.3 10.4 196.8 10.2 193.5 9.8 C 194.9 9.7 197.9 10.1 198.8 10.0 C 198.6 10.1 199.5 10.2 199.4 10.3 C 198.2 10.2 198.0 10.1 196.8 10.0 C 197.2 10.3 197.2 10.2 196.7 10.4 C 197.6 10.5 198.2 10.5 198.7 10.5 C 198.4 10.6 199.6 10.8 198.7 10.8 C 198.7 10.8 198.7 10.8 198.7 10.8 Z M 221.5 13.9 C 222.8 14.1 223.8 14.6 222.7 14.4 C 222.6 14.2 221.7 14.3 221.5 14.1 C 223.3 14.3 220.1 13.7 220.9 13.7 C 222.0 13.9 222.4 13.8 222.2 13.6 C 222.9 13.8 224.0 14.0 224.0 14.1 C 223.6 14.0 222.8 13.8 222.8 13.9 C 223.2 14.0 223.5 14.1 223.4 14.1 C 222.3 13.9 221.8 13.9 221.5 13.9 C 221.5 13.9 221.5 13.9 221.5 13.9 Z M 212.8 12.6 C 214.5 12.8 214.7 13.1 215.2 13.3 C 212.9 12.9 212.6 12.5 210.9 12.1 C 212.8 12.5 214.8 12.4 215.3 12.7 C 214.5 12.6 212.9 12.4 212.8 12.6 C 212.8 12.6 212.8 12.6 212.8 12.6 Z M 242.4 114.8 C 241.0 115.0 239.9 115.1 238.3 115.4 C 237.8 115.8 240.8 115.5 239.6 115.7 C 238.0 116.1 239.0 115.5 237.7 115.8 C 239.1 115.8 232.2 117.3 231.8 117.1 C 232.9 116.9 233.2 116.7 232.9 116.6 C 235.7 116.0 236.8 115.6 238.8 115.0 C 240.4 115.0 244.6 114.0 246.8 113.1 C 248.4 113.1 250.9 111.9 253.0 111.6 C 253.5 111.3 251.3 111.9 252.9 111.3 C 254.1 111.2 253.3 111.6 254.7 111.3 C 254.8 111.1 254.4 111.0 255.2 110.8 C 255.1 111.0 256.0 110.7 256.3 110.7 C 253.4 111.6 256.6 110.9 254.3 111.7 C 253.3 111.9 255.2 111.0 252.5 111.8 C 251.6 112.2 250.7 112.6 251.0 112.7 C 250.2 112.9 249.8 113.1 249.3 113.3 C 250.3 112.7 245.5 114.4 247.6 113.5 C 247.8 113.5 249.3 113.1 250.4 112.7 C 249.3 112.7 248.2 113.2 246.4 113.8 C 245.6 113.8 246.7 113.4 245.8 113.6 C 244.4 114.1 246.4 113.8 245.3 114.2 C 245.8 114.1 246.5 113.9 246.5 114.0 C 244.0 114.4 243.1 114.9 241.9 115.2 C 242.7 114.8 240.4 115.3 242.4 114.8 C 242.4 114.8 242.4 114.8 242.4 114.8 Z M 262.1 108.5 C 262.6 108.4 263.1 108.2 263.7 108.0 C 263.9 108.2 261.9 108.9 263.3 108.6 C 261.0 109.4 263.3 108.3 262.1 108.5 C 262.1 108.5 262.1 108.5 262.1 108.5 Z M 251.2 111.2 C 250.3 111.2 250.9 111.6 250.1 111.8 C 251.4 111.4 252.7 110.9 252.9 111.1 C 251.3 111.5 250.6 111.7 249.0 112.3 C 250.5 111.5 247.2 112.5 246.6 112.4 C 247.9 112.0 248.8 111.6 250.5 111.1 C 250.3 111.3 252.7 110.7 251.2 111.2 C 251.2 111.2 251.2 111.2 251.2 111.2 Z M 255.4 109.5 C 255.8 109.6 258.1 108.7 257.6 109.1 C 256.2 109.6 255.7 109.8 256.1 109.9 C 255.1 110.3 254.9 110.2 253.9 110.5 C 253.2 110.4 254.9 109.9 255.4 109.6 C 255.1 109.7 254.8 109.7 255.4 109.5 C 255.4 109.5 255.4 109.5 255.4 109.5 Z M 299.0 84.0 C 299.5 83.8 297.9 85.3 297.6 85.6 C 298.2 85.3 298.0 85.6 297.1 86.7 C 297.2 86.0 295.8 87.6 294.5 88.2 C 294.4 88.6 295.8 87.5 294.3 88.9 C 293.0 89.9 291.9 90.9 289.8 92.4 C 289.1 92.5 290.1 91.8 290.6 91.4 C 289.2 92.4 289.5 92.0 288.3 92.7 C 288.6 92.7 287.7 93.4 287.3 93.5 C 289.2 92.1 284.4 95.0 286.5 93.6 C 286.6 93.6 287.1 93.2 287.6 92.8 C 287.2 93.5 289.9 91.5 290.5 91.3 C 291.2 90.1 294.0 88.3 296.6 86.1 C 296.8 86.1 296.1 86.9 296.7 86.3 C 296.7 86.1 297.5 85.4 297.8 85.0 C 297.9 85.1 298.2 84.9 298.7 84.4 C 298.7 84.3 298.7 84.3 299.0 84.0 C 299.0 84.0 299.0 84.0 299.0 84.0 Z M 137.3 121.0 C 137.5 120.6 133.3 120.6 132.1 120.6 C 132.3 120.2 139.7 120.7 137.3 121.0 C 137.3 121.0 137.3 121.0 137.3 121.0 Z M 163.1 121.3 C 162.0 121.3 162.7 121.5 161.8 121.5 C 161.7 121.3 159.2 121.8 159.1 121.5 C 160.4 121.3 161.1 121.3 163.1 121.3 C 163.1 121.3 163.1 121.3 163.1 121.3 Z M 186.8 120.4 C 184.9 120.6 187.8 120.5 187.4 120.6 C 185.8 120.7 184.1 120.8 184.2 120.6 C 185.6 120.6 186.6 120.2 186.8 120.4 C 186.8 120.4 186.8 120.4 186.8 120.4 Z M 151.2 121.0 C 149.6 120.8 152.3 120.6 152.5 120.8 C 150.8 120.8 153.7 121.0 155.1 121.0 C 155.1 121.3 154.4 121.2 155.1 121.4 C 152.8 121.5 154.8 121.2 153.1 121.2 C 152.1 121.3 153.2 121.3 153.1 121.5 C 152.5 121.5 151.9 121.5 151.2 121.5 C 151.2 121.3 151.2 121.2 151.2 121.1 C 152.0 121.1 152.8 121.1 152.5 120.9 C 151.9 120.9 151.7 121.0 151.2 121.0 C 151.2 121.0 151.2 121.0 151.2 121.0 Z M 268.3 102.8 C 267.0 103.3 268.2 102.9 269.1 102.6 C 269.3 102.4 269.9 101.6 271.4 101.3 C 268.4 102.8 272.5 101.2 270.8 102.0 C 270.0 102.1 268.3 103.2 266.7 103.7 C 266.0 103.8 267.5 102.8 268.3 102.8 C 268.3 102.8 268.3 102.8 268.3 102.8 Z M 273.8 100.5 C 273.7 100.5 273.1 100.7 272.3 101.2 C 273.1 100.5 271.8 101.1 272.9 100.5 C 272.8 100.7 276.8 98.9 274.5 100.0 C 272.4 100.9 275.1 99.9 276.1 99.5 C 275.1 99.9 273.4 101.0 273.1 101.0 C 273.6 100.7 274.0 100.5 273.8 100.5 C 273.8 100.5 273.8 100.5 273.8 100.5 Z M 303.9 75.8 C 303.9 75.6 303.5 76.2 303.3 76.4 C 304.4 74.5 304.9 72.8 305.2 71.9 C 305.0 72.8 305.2 72.8 305.4 72.3 C 305.0 73.3 305.1 73.6 304.8 73.9 C 305.0 73.0 304.5 74.6 303.9 75.8 C 303.9 75.8 303.9 75.8 303.9 75.8 Z M 303.9 75.8 " fill="#000000"></path><image xlink:href="../../CEFA4209-80C9-472B-8D2B-058B96531B72/assets/53DE529C9B23CC4742AB8E7F7EB62785.png" width="153.00" height="39.00" transform="matrix(1.00, 0.00, -0.00, -1.00, 84.0, 82.0)"></image><g><clipPath id="clip-310"><path d="M 10.4 10.6 L 308.5 10.6 L 308.5 123.0 L 10.4 123.0 Z M 10.4 10.6 "></path></clipPath><g clip-path="url(#clip-310)"><text xml:space="preserve" font-family="Chalkduster" font-size="32.0" fill="#000000" transform="matrix(1.00, 0.00, -0.00, -1.00, 87.0, 52.0)">N</text><text xml:space="preserve" font-family="Chalkduster" font-size="32.0" fill="#000000" transform="matrix(1.00, 0.00, -0.00, -1.00, 109.8, 52.0)">F</text><text xml:space="preserve" font-family="Chalkduster" font-size="32.0" fill="#000000" transform="matrix(1.00, 0.00, -0.00, -1.00, 133.6, 52.0)">S</text><text xml:space="preserve" font-family="Chalkduster" font-size="32.0" fill="#000000" transform="matrix(1.00, 0.00, -0.00, -1.00, 149.5, 52.0)"> </text><text xml:space="preserve" font-family="Chalkduster" font-size="32.0" fill="#000000" transform="matrix(1.00, 0.00, -0.00, -1.00, 165.4, 52.0)">t</text><text xml:space="preserve" font-family="Chalkduster" font-size="32.0" fill="#000000" transform="matrix(1.00, 0.00, -0.00, -1.00, 179.7, 52.0)">e</text><text xml:space="preserve" font-family="Chalkduster" font-size="32.0" fill="#000000" transform="matrix(1.00, 0.00, -0.00, -1.00, 200.3, 52.0)">s</text><text xml:space="preserve" font-family="Chalkduster" font-size="32.0" fill="#000000" transform="matrix(1.00, 0.00, -0.00, -1.00, 217.4, 52.0)">t</text></g></g></g></svg>