<?xml version="1.0" encoding="UTF-8" standalone="no"?><svg xmlns="http://www.w3.org/2000/svg" xmlns:xlink="http://www.w3.org/1999/xlink" clip-rule="evenodd" stroke-miterlimit="4.00" viewBox="0 0 319 134"><desc>SVG generated by Keynote</desc><defs></defs><g transform="matrix(1.00, 0.00, -0.00, -1.00, 0.0, 134.0)"><image xlink:href="../../CEFA4209-80C9-472B-8D2B-058B96531B72/assets/3D04D10A705CD79169D4D2591639252F.png" width="316.00" height="130.00" transform="matrix(1.00, 0.00, -0.00, -1.00, 1.3, 132.2)" opacity="0.50"></image><g><clipPath id="clip-307"><path d="M 264.8 106.7 C 323.1 84.8 323.1 49.2 264.8 27.2 C 206.6 5.2 112.2 5.2 54.0 27.2 C -4.2 49.2 -4.2 84.8 54.0 106.7 C 112.2 128.7 206.6 128.7 264.8 106.7 Z M 264.8 106.7 "></path></clipPath><g clip-path="url(#clip-307)"><image xlink:href="../../CEFA4209-80C9-472B-8D2B-058B96531B72/assets/59DBD66EA15A3D40E065F836EF2595FD.jpeg" width="400.00" height="400.00" transform="matrix(1.00, 0.00, -0.00, -1.00, 10.3, 123.2)"></image></g></g><path d="M 81.7 15.0 C 81.2 15.1 80.7 15.3 79.9 15.5 C 80.3 15.5 80.6 15.5 80.5 15.6 C 81.2 15.4 82.1 15.1 83.5 14.8 C 83.5 14.8 82.8 14.9 82.3 15.0 C 81.7 15.2 81.8 15.0 81.7 15.0 C 81.7 15.0 81.7 15.0 81.7 15.0 Z M 69.7 115.3 C 68.5 114.9 69.7 115.6 70.2 115.7 C 70.2 115.7 70.3 115.6 70.7 115.8 C 70.8 116.0 69.8 115.8 69.0 115.6 C 65.9 114.6 68.3 114.9 69.7 115.3 C 69.7 115.3 69.7 115.3 69.7 115.3 Z M 240.5 117.4 C 243.1 116.8 240.3 117.2 239.9 117.2 C 241.1 116.9 240.0 116.7 241.5 116.3 C 241.8 116.4 242.4 116.3 242.7 116.4 C 242.1 116.5 241.1 116.7 241.0 116.9 C 241.9 116.7 243.2 116.3 243.3 116.4 C 241.4 116.9 243.1 116.7 243.4 116.7 C 241.7 117.2 241.2 117.5 240.5 117.4 C 240.5 117.4 240.5 117.4 240.5 117.4 Z M 285.1 33.6 C 286.0 34.1 286.7 34.5 286.4 34.5 C 285.5 34.0 284.9 33.7 284.4 33.3 C 284.3 33.3 284.5 33.6 283.6 33.2 C 282.8 32.5 283.4 32.5 284.0 32.6 C 283.9 32.8 287.0 34.4 285.1 33.6 C 285.1 33.6 285.1 33.6 285.1 33.6 Z M 214.7 12.4 C 212.3 12.0 214.5 12.8 212.1 12.3 C 212.2 12.1 211.9 11.8 213.5 12.0 C 213.6 12.1 214.5 12.3 214.7 12.4 C 214.7 12.4 214.7 12.4 214.7 12.4 Z M 168.4 124.4 C 168.4 124.5 170.2 124.4 169.8 124.7 C 168.9 124.7 168.0 124.7 167.1 124.7 C 166.9 124.6 167.2 124.4 168.4 124.4 C 168.4 124.4 168.4 124.4 168.4 124.4 Z M 256.8 110.4 C 259.3 109.9 261.7 108.6 261.1 109.1 C 262.1 109.0 259.6 110.4 259.6 110.1 C 259.3 109.9 254.9 111.1 256.8 110.4 C 256.8 110.4 256.8 110.4 256.8 110.4 Z M 84.0 114.6 C 86.7 115.4 86.3 114.6 88.1 115.3 C 87.4 115.2 87.1 115.2 86.9 115.2 C 87.4 115.3 88.1 115.5 88.0 115.5 C 86.7 115.3 85.1 115.0 84.0 114.6 C 84.0 114.6 84.0 114.6 84.0 114.6 Z M 124.5 9.0 C 125.0 8.9 125.3 8.8 125.2 8.7 C 127.2 8.6 127.2 8.4 128.5 8.5 C 128.5 8.8 126.8 8.8 125.2 8.9 C 125.1 9.0 124.6 9.0 124.5 9.0 C 124.5 9.0 124.5 9.0 124.5 9.0 Z M 183.0 9.0 C 183.0 8.8 181.7 8.7 183.7 8.7 C 185.9 9.1 183.9 9.2 181.7 9.2 C 181.6 9.4 181.6 9.5 181.6 9.6 C 182.5 9.6 183.1 9.7 183.6 9.8 C 184.0 9.4 185.5 10.2 188.9 10.2 C 187.3 10.2 189.0 10.7 186.9 10.4 C 187.4 10.6 186.0 10.5 186.2 10.7 C 187.1 10.7 189.3 10.9 188.9 10.5 C 190.0 10.6 190.9 10.7 191.5 10.8 C 192.3 11.1 189.4 10.7 190.2 11.0 C 190.8 11.1 190.9 11.1 191.4 11.2 C 191.6 11.1 191.3 11.0 192.1 11.0 C 194.2 11.3 191.7 11.3 194.7 11.6 C 194.9 11.4 194.0 11.3 194.1 11.2 C 195.4 11.2 195.3 11.4 196.7 11.3 C 196.9 11.5 195.7 11.5 196.6 11.6 C 197.5 11.3 199.3 12.1 201.2 12.0 C 200.0 11.3 201.5 12.1 203.2 11.8 C 203.5 12.0 202.3 12.2 203.7 12.3 C 203.3 11.7 209.1 12.5 204.5 11.5 C 206.9 11.8 207.8 11.4 205.9 11.1 C 210.1 11.7 208.8 11.2 210.4 11.4 C 212.0 11.7 209.5 11.4 210.3 11.7 C 208.6 11.5 209.0 11.7 207.8 11.4 C 207.8 11.5 207.5 11.5 207.1 11.5 C 208.8 11.6 210.8 12.2 209.6 12.3 C 208.7 12.2 209.5 12.0 208.4 11.9 C 208.7 12.3 207.1 11.6 207.0 11.9 C 207.8 12.3 205.3 12.2 207.6 12.6 C 207.7 12.5 207.7 12.3 207.7 12.2 C 208.3 12.3 208.9 12.4 209.5 12.4 C 210.1 12.7 209.6 12.8 210.2 13.0 C 211.2 13.1 211.8 13.2 212.1 13.1 C 210.8 12.9 209.3 12.4 211.5 12.7 C 210.6 13.1 214.5 13.2 212.7 13.3 C 215.0 13.8 216.2 13.6 216.4 13.9 C 217.6 14.1 216.9 13.7 218.3 14.0 C 220.6 14.6 220.3 14.1 223.3 14.9 C 223.7 14.6 223.6 15.0 224.5 15.2 C 224.6 15.1 224.6 14.9 224.6 14.8 C 225.6 15.2 228.1 15.8 230.6 16.0 C 231.3 16.2 230.7 16.4 232.4 16.7 C 234.2 16.7 236.2 17.5 238.4 17.7 C 238.5 17.9 239.9 18.2 240.7 18.3 C 241.0 18.5 239.9 18.5 241.2 18.8 C 242.1 18.8 240.6 18.4 242.4 18.7 C 242.2 18.9 244.2 19.0 244.1 19.2 C 243.6 19.2 242.9 19.1 242.3 19.0 C 243.1 19.2 242.9 19.3 243.5 19.5 C 243.5 19.1 244.8 19.8 245.2 19.9 C 245.2 19.8 245.4 19.7 245.8 19.8 C 246.8 20.0 247.6 20.2 248.1 20.3 C 249.4 20.8 247.4 20.3 248.6 20.7 C 249.4 20.3 250.4 21.3 253.1 21.7 C 253.7 22.0 254.7 22.5 256.3 23.0 C 256.5 22.9 254.8 22.4 254.8 22.3 C 257.1 23.1 254.4 22.0 255.9 22.5 C 259.3 23.7 261.4 24.4 264.8 25.9 C 264.8 25.7 268.9 27.1 268.8 27.1 C 267.6 26.7 271.0 28.4 272.7 29.1 C 273.3 29.0 276.1 29.8 276.3 29.7 C 276.8 30.2 276.7 30.1 276.8 30.6 C 279.6 32.0 281.1 32.4 282.5 33.6 C 282.5 33.4 283.7 34.0 284.7 34.5 C 284.4 34.5 283.7 34.3 283.1 34.1 C 284.4 34.9 284.6 35.1 285.7 35.7 C 287.2 35.8 288.5 37.6 289.7 37.6 C 291.4 38.7 291.0 38.8 292.4 39.8 C 292.4 39.6 292.7 39.7 293.1 39.9 C 292.1 39.3 291.3 38.9 290.9 38.3 C 293.2 39.8 286.9 34.9 290.9 37.2 C 290.9 37.3 290.5 37.2 291.3 37.8 C 293.4 39.2 292.3 38.1 291.4 37.5 C 292.9 38.4 294.3 39.5 293.4 38.5 C 296.5 40.7 294.4 39.4 295.4 40.3 C 300.8 44.3 306.2 49.7 308.8 56.2 C 309.2 56.3 310.3 59.8 310.3 61.0 C 311.0 62.7 311.3 64.7 311.0 65.3 C 311.4 65.6 310.9 67.5 311.2 67.7 C 311.2 66.9 311.3 66.4 311.3 67.2 C 311.2 69.9 310.2 73.8 309.9 75.4 C 309.2 76.2 308.6 77.9 308.1 79.1 C 307.9 79.3 308.3 78.3 307.9 79.0 C 307.9 79.3 306.7 81.8 306.2 82.3 C 306.7 81.6 306.9 80.6 306.2 81.6 C 306.3 81.7 305.5 82.9 305.9 82.7 C 304.7 84.2 304.2 85.1 303.0 86.2 C 303.8 85.2 304.2 84.6 304.2 84.3 C 303.7 85.2 303.2 85.9 302.4 86.5 C 302.8 86.5 301.5 87.7 300.2 89.2 C 299.7 89.5 299.3 89.7 298.1 90.8 C 297.7 91.5 300.2 89.3 298.9 90.6 C 298.8 90.5 297.4 91.5 297.9 91.4 C 296.1 92.8 295.3 93.7 293.7 94.6 C 295.6 93.3 294.0 94.0 293.5 94.4 C 293.0 94.7 292.4 95.1 292.4 95.2 C 292.5 95.3 293.4 94.6 293.6 94.5 C 292.2 95.4 292.0 96.1 291.4 96.2 C 292.0 95.8 292.0 95.6 291.3 96.1 C 291.3 96.5 286.8 99.1 288.2 98.0 C 288.3 98.1 290.0 97.0 290.1 96.8 C 289.6 97.0 287.1 98.7 287.5 98.1 C 289.0 97.2 289.0 97.4 290.6 96.3 C 290.7 96.0 291.6 95.3 292.1 94.8 C 289.6 96.6 289.1 97.2 288.6 97.2 C 287.4 98.0 288.3 97.8 286.2 98.9 C 283.2 100.6 285.5 99.0 284.7 99.3 C 282.1 101.0 283.0 100.8 284.4 100.4 C 282.2 101.6 281.6 102.1 278.7 103.4 C 278.8 103.2 279.1 102.9 280.1 102.4 C 280.2 102.4 282.5 101.4 282.3 101.3 C 281.9 101.1 280.0 102.0 276.9 103.4 C 277.8 103.4 277.8 103.2 274.6 104.6 C 275.3 104.7 273.1 105.2 273.1 105.5 C 273.3 105.5 274.4 105.0 275.5 104.5 C 275.5 104.7 275.2 104.9 274.1 105.5 C 273.3 105.7 272.9 106.0 270.8 106.8 C 270.6 106.7 272.0 106.0 272.3 105.8 C 271.2 106.2 271.0 106.4 269.8 106.9 C 268.8 107.1 268.7 106.8 268.7 106.5 C 270.0 105.9 272.0 105.0 270.3 105.5 C 275.1 103.5 270.2 106.0 272.0 105.2 C 273.9 104.1 273.0 105.0 276.0 103.6 C 276.9 103.1 277.1 102.9 277.5 102.7 C 277.2 102.7 275.4 103.3 277.3 102.4 C 277.8 102.3 278.9 101.9 280.4 101.2 C 280.3 101.1 277.3 102.5 280.3 101.0 C 281.7 100.3 280.6 101.3 282.5 100.2 C 282.5 100.1 283.0 99.8 283.1 99.7 C 280.4 101.2 283.6 99.2 281.6 100.1 C 284.0 98.7 282.2 100.2 283.7 99.2 C 283.7 99.1 286.3 97.9 286.2 97.6 C 285.4 98.3 283.4 99.3 283.6 99.0 C 285.3 98.0 292.5 93.1 290.0 95.3 C 290.9 94.5 295.4 90.7 295.1 91.1 C 293.8 92.2 293.9 92.3 293.8 92.6 C 296.3 90.4 297.6 89.5 299.6 87.0 C 297.1 89.4 298.7 87.3 297.0 88.6 C 296.3 89.2 295.3 90.0 295.2 90.3 C 295.7 90.2 296.7 89.1 297.1 88.6 C 297.2 88.8 297.4 88.9 297.5 89.1 C 294.4 91.6 292.6 93.1 290.9 94.3 C 292.3 93.2 287.8 95.9 289.5 94.7 C 290.3 94.3 292.1 93.1 293.5 92.1 C 293.4 92.1 293.4 92.0 293.3 91.9 C 293.9 91.5 294.8 90.8 294.8 90.7 C 293.0 92.2 291.8 92.7 290.6 93.9 C 290.5 93.8 290.5 93.8 290.5 93.7 C 290.2 93.9 289.8 94.2 289.9 94.0 C 290.5 93.6 291.5 93.0 291.5 92.8 C 290.1 93.8 289.7 93.8 287.9 94.9 C 288.2 94.4 285.8 95.6 288.2 93.9 C 288.7 93.8 290.1 93.0 290.1 93.1 C 290.8 92.7 292.1 91.7 292.7 91.1 C 292.0 91.5 290.6 92.4 290.3 92.3 C 291.4 91.4 292.2 90.7 293.0 90.4 C 290.9 92.2 294.2 89.7 295.2 89.2 C 294.9 89.3 294.4 89.6 294.0 89.8 C 295.6 88.5 296.4 88.0 296.2 87.7 C 297.9 86.0 297.7 86.6 298.8 85.4 C 297.8 85.9 299.4 84.6 298.4 85.1 C 300.2 83.2 299.2 84.8 299.8 84.1 C 300.3 83.5 300.3 83.4 300.7 82.8 C 301.5 82.1 302.8 80.3 303.2 80.3 C 303.7 79.5 303.8 79.4 304.3 78.7 C 304.3 78.4 304.4 78.1 304.5 77.8 C 304.7 77.7 305.0 77.2 305.0 77.0 C 303.6 78.9 304.0 78.3 302.3 80.3 C 302.3 80.5 302.1 80.8 302.5 80.4 C 301.5 81.9 301.0 82.3 299.9 83.6 C 299.7 83.6 299.2 83.6 298.3 84.9 C 298.3 84.5 298.0 84.7 298.4 84.2 C 299.0 83.7 299.9 82.9 300.6 82.1 C 300.6 82.0 300.4 82.0 300.8 81.6 C 301.2 81.2 301.7 80.6 302.0 80.0 C 302.1 80.1 302.0 80.3 301.9 80.6 C 303.4 78.7 302.6 79.2 303.6 77.8 C 303.3 77.9 302.8 78.9 303.1 78.0 C 303.8 76.6 304.1 76.4 304.5 75.7 C 304.5 75.6 304.3 75.6 304.5 75.2 C 305.1 74.4 304.0 77.6 305.0 76.0 C 304.9 75.8 305.6 74.1 305.9 74.0 C 305.9 74.6 305.2 75.4 305.3 75.6 C 306.7 72.5 305.9 75.7 306.9 72.5 C 306.8 72.5 306.7 72.4 306.6 72.4 C 306.3 73.7 306.0 73.7 305.9 73.5 C 305.5 74.6 305.0 74.9 304.8 75.9 C 304.5 75.3 305.1 75.0 305.6 73.8 C 305.3 73.8 304.9 74.8 304.7 74.9 C 305.9 72.4 305.7 71.8 306.4 69.5 C 306.0 70.0 306.5 68.2 306.3 68.3 C 306.2 70.4 305.5 69.4 305.4 69.7 C 305.2 71.0 305.7 70.5 305.7 71.4 C 305.4 71.7 305.3 71.5 305.0 71.2 C 305.4 70.1 305.3 70.2 305.3 69.3 C 305.6 68.6 306.1 67.9 306.1 69.0 C 306.1 68.8 306.0 67.2 306.2 67.1 C 306.2 68.6 306.4 67.0 306.4 67.9 C 306.7 66.7 306.2 64.7 306.2 63.2 C 306.1 63.4 305.9 62.8 305.8 62.9 C 306.3 64.3 305.8 64.6 305.9 66.0 C 305.8 65.4 305.7 65.7 305.6 66.0 C 305.7 64.7 305.4 64.0 305.4 63.0 C 305.3 63.0 305.2 63.0 305.2 63.0 C 305.0 61.4 305.0 61.6 304.3 60.4 C 304.3 59.9 304.9 60.4 305.2 60.5 C 304.9 60.0 304.1 57.7 304.4 59.1 C 303.8 57.8 304.3 58.0 303.5 56.7 C 303.3 56.8 303.9 58.0 303.4 57.7 C 302.8 56.5 303.4 57.0 302.7 56.1 C 302.8 56.0 303.0 55.8 302.3 54.8 C 302.6 55.6 302.1 54.7 301.8 54.5 C 302.1 55.0 302.3 55.4 302.4 55.7 C 301.3 53.8 301.0 53.4 299.7 51.9 C 300.4 52.3 299.7 51.4 300.7 52.4 C 299.8 51.5 298.9 50.0 298.3 49.6 C 298.8 50.3 299.7 51.3 299.9 51.8 C 297.2 48.7 295.3 47.3 292.2 44.4 C 292.8 44.9 293.5 45.5 293.7 45.5 C 293.3 45.2 292.7 44.7 292.8 44.7 C 293.9 45.6 295.0 46.5 295.6 46.9 C 296.4 47.8 294.9 46.6 295.8 47.5 C 296.1 47.5 297.6 49.3 297.3 48.4 C 295.6 47.1 294.1 45.5 293.6 44.6 C 291.6 43.6 293.3 44.8 291.1 43.8 C 291.2 43.7 290.8 43.3 290.2 42.8 C 290.6 43.6 288.2 41.7 288.0 41.5 C 289.0 42.0 292.6 44.4 291.0 42.8 C 291.5 43.9 286.9 39.8 287.6 40.8 C 285.1 39.3 286.2 39.6 284.6 39.0 C 284.6 38.9 284.8 38.8 284.1 38.4 C 283.4 38.0 283.1 37.9 282.8 37.8 C 286.5 40.1 285.2 39.7 287.4 41.2 C 287.0 40.9 286.6 40.7 286.7 40.9 C 286.7 40.9 286.6 40.9 286.1 40.6 C 286.1 40.2 284.2 39.5 283.8 39.0 C 284.5 39.4 285.2 39.8 285.1 39.5 C 282.0 37.8 282.9 37.8 278.1 35.2 C 279.5 36.1 277.6 35.2 275.9 34.4 C 273.5 33.2 274.6 33.3 271.5 31.9 C 271.5 32.3 270.7 31.9 269.4 31.3 C 268.7 31.0 267.9 30.6 267.0 30.3 C 266.1 29.9 264.7 29.4 264.0 29.3 C 264.4 29.0 261.3 27.8 260.5 27.8 C 260.5 27.7 259.3 27.3 258.5 27.0 C 258.3 26.8 259.3 27.1 258.6 26.8 C 257.8 26.6 258.4 27.1 257.5 26.8 C 256.4 26.3 256.6 26.1 254.9 25.6 C 254.8 25.8 255.8 26.0 254.8 25.9 C 253.4 25.3 252.0 24.9 253.2 25.6 C 250.9 24.9 252.1 24.8 250.0 24.2 C 250.6 24.5 250.5 24.5 249.4 24.3 C 248.7 23.8 248.6 23.7 248.4 23.6 C 247.7 23.6 247.9 23.7 246.1 23.1 C 246.1 23.2 246.1 23.3 246.0 23.4 C 245.2 23.2 244.0 22.9 243.8 22.7 C 245.3 23.2 245.0 22.9 245.6 22.9 C 244.1 22.5 241.1 21.5 243.3 22.4 C 241.2 21.9 242.3 21.8 240.5 21.5 C 241.5 22.0 240.6 21.5 238.8 21.1 C 238.9 21.5 237.6 20.9 236.5 20.7 C 236.6 20.9 236.3 20.9 235.2 20.7 C 235.3 20.6 234.7 20.4 233.5 20.2 C 233.5 20.3 235.9 21.0 233.5 20.4 C 232.3 20.0 232.4 19.8 230.6 19.4 C 230.2 19.1 232.3 19.6 231.8 19.2 C 230.3 19.2 229.9 18.9 227.7 18.4 C 228.5 19.0 223.1 18.1 225.7 18.8 C 224.9 18.7 223.8 18.8 223.3 18.5 C 224.1 18.6 222.7 18.1 222.7 18.0 C 221.6 17.9 219.2 17.3 219.1 17.5 C 221.4 17.8 221.4 18.1 222.1 18.3 C 218.7 17.9 215.7 17.3 215.9 17.1 C 215.9 17.2 215.4 17.1 215.3 17.1 C 216.5 17.3 217.2 17.8 215.8 17.6 C 216.2 17.4 215.2 17.2 214.1 17.0 C 214.0 17.2 209.5 16.2 210.3 16.7 C 212.2 16.7 213.6 17.3 212.1 17.2 C 211.0 16.9 208.5 16.4 209.1 16.3 C 208.4 16.2 207.8 16.2 207.2 16.2 C 206.6 16.4 208.0 16.6 207.7 16.7 C 206.8 16.6 205.4 16.5 205.2 16.3 C 207.7 16.6 203.9 16.0 206.6 16.2 C 205.0 16.0 204.6 15.8 203.4 15.6 C 203.4 15.7 202.9 15.7 202.7 15.7 C 203.9 15.7 205.0 16.0 204.6 16.2 C 202.3 15.9 202.7 15.7 200.8 15.5 C 200.2 15.6 197.6 15.7 196.3 15.3 C 198.8 15.6 196.1 15.2 197.6 15.2 C 199.9 15.6 200.6 15.4 201.4 15.3 C 200.5 15.1 198.5 14.8 198.3 15.1 C 199.5 15.2 199.5 15.1 200.2 15.1 C 200.1 15.2 199.7 15.3 198.9 15.3 C 197.8 15.0 195.4 15.0 197.0 14.8 C 195.4 14.8 193.6 14.3 191.9 14.4 C 193.8 14.6 195.1 14.8 195.7 15.0 C 194.1 15.0 192.5 14.6 192.5 14.7 C 192.6 15.0 195.2 15.1 195.6 15.4 C 193.6 15.4 190.6 14.5 193.1 15.2 C 191.9 15.1 190.4 14.9 189.9 14.8 C 191.3 14.9 189.8 14.4 189.2 14.3 C 188.0 14.2 187.0 14.2 186.6 14.3 C 188.4 14.3 189.8 14.8 188.5 14.7 C 188.2 14.5 187.8 14.7 187.3 14.7 C 187.2 14.5 185.1 14.5 184.7 14.3 C 184.8 14.4 185.8 14.5 185.9 14.6 C 184.7 14.6 182.9 14.9 182.1 14.5 C 182.8 14.5 183.9 14.6 184.0 14.5 C 180.6 14.0 179.6 13.6 175.5 13.3 C 176.0 13.3 176.3 13.2 176.2 13.1 C 173.6 13.0 172.0 12.8 172.3 12.7 C 170.7 12.7 169.8 12.8 169.0 12.9 C 170.7 13.1 171.2 12.9 172.3 13.1 C 171.6 13.1 173.5 13.6 174.2 13.8 C 177.1 13.7 177.2 14.1 180.1 14.1 C 179.3 14.3 182.2 14.2 181.4 14.4 C 178.7 13.9 176.1 14.1 172.2 13.8 C 172.8 13.6 173.2 13.5 171.6 13.3 C 169.1 13.1 170.3 13.5 168.3 13.4 C 167.4 13.1 168.7 13.1 167.6 13.0 C 166.9 13.1 165.0 13.1 164.4 12.8 C 167.1 12.9 163.9 12.6 165.7 12.5 C 164.8 12.5 164.2 12.5 163.7 12.4 C 166.3 12.7 161.0 12.7 163.0 13.0 C 159.3 13.1 162.8 12.3 159.7 12.4 C 161.2 12.6 159.3 12.7 157.1 12.6 C 156.5 12.4 154.3 12.4 152.5 12.3 C 153.4 12.5 154.1 12.4 152.5 12.6 C 153.4 12.7 154.9 12.7 155.7 12.6 C 155.7 12.7 156.1 12.7 156.4 12.8 C 154.3 12.9 155.2 13.0 154.5 13.1 C 153.8 13.0 152.2 13.0 151.8 12.9 C 151.8 12.9 151.2 13.0 151.2 13.0 C 153.9 13.0 150.7 13.4 152.5 13.4 C 153.7 13.4 152.9 13.1 154.5 13.1 C 155.9 13.4 153.2 13.5 152.5 13.7 C 153.8 13.9 155.3 13.6 155.8 13.8 C 154.1 14.1 151.4 14.0 149.2 14.0 C 149.3 14.3 145.6 14.0 145.3 14.4 C 144.9 14.3 144.5 14.3 144.0 14.2 C 143.3 14.5 142.6 14.2 142.0 14.2 C 141.9 14.4 142.1 14.5 142.6 14.5 C 140.0 14.5 139.3 14.5 136.1 14.8 C 135.6 14.7 135.0 14.6 134.8 14.4 C 135.5 14.4 136.2 14.3 136.7 14.2 C 132.4 14.4 135.3 14.9 132.2 14.7 C 132.3 14.8 134.4 15.0 132.9 15.1 C 130.1 15.0 126.3 15.6 126.4 14.9 C 124.0 14.9 122.4 15.5 121.2 15.3 C 120.5 15.4 120.2 15.5 119.9 15.6 C 120.7 15.7 121.6 15.7 122.5 15.8 C 123.9 15.5 124.6 15.7 123.2 15.4 C 125.3 15.2 125.9 15.3 127.0 15.3 C 124.1 15.8 121.4 15.8 121.3 16.2 C 120.3 16.1 119.5 16.1 118.7 16.0 C 118.4 16.2 115.1 16.6 114.9 16.4 C 117.1 16.2 119.4 15.7 117.4 15.7 C 111.9 16.5 108.9 16.5 104.2 17.5 C 104.0 17.4 104.4 17.1 103.5 17.2 C 103.5 17.4 103.4 17.5 102.9 17.6 C 101.5 17.8 100.6 17.9 98.6 18.3 C 98.7 18.0 98.4 17.9 97.3 18.0 C 96.8 18.3 94.9 19.2 93.8 19.3 C 94.9 19.1 93.4 19.0 92.5 19.2 C 93.3 19.4 87.1 20.0 88.9 20.0 C 86.5 20.5 85.5 20.6 85.4 20.5 C 84.5 20.7 83.9 20.9 83.1 21.2 C 82.5 20.9 78.5 22.2 77.9 22.2 C 79.3 21.9 79.5 21.5 78.4 21.8 C 77.6 22.2 74.0 23.3 73.4 23.4 C 73.6 23.3 73.8 23.0 75.5 22.4 C 72.5 23.2 72.6 23.5 71.7 24.0 C 71.7 23.7 70.5 24.3 70.1 24.5 C 69.1 24.6 70.1 24.4 70.0 24.2 C 69.0 24.5 68.5 24.4 67.2 24.8 C 67.7 25.0 66.2 25.3 65.6 25.4 C 65.5 25.6 64.8 26.0 63.6 26.4 C 65.0 25.5 56.8 28.2 58.8 27.8 C 57.3 28.6 57.1 28.1 55.2 28.9 C 54.9 29.2 53.7 29.5 54.8 29.3 C 54.0 29.6 53.2 29.8 52.8 29.9 C 52.5 30.0 52.0 30.1 50.5 30.8 C 52.0 30.5 47.4 32.0 48.3 32.1 C 46.8 32.2 44.6 33.8 42.2 34.6 C 42.2 34.7 41.6 35.0 41.5 35.1 C 41.2 35.4 44.3 33.9 42.3 35.0 C 39.8 36.0 41.1 35.3 40.7 35.3 C 34.3 38.7 27.9 42.7 23.6 46.5 C 24.2 46.1 24.2 46.2 23.3 47.0 C 21.8 47.8 17.9 52.4 17.6 53.2 C 17.0 53.4 15.8 55.9 15.4 56.2 C 15.7 55.8 16.0 54.8 15.4 55.7 C 15.3 56.5 14.7 57.2 14.5 58.2 C 14.0 58.6 13.2 61.5 13.2 60.0 C 13.0 60.6 12.9 60.9 12.8 61.2 C 13.0 61.3 12.8 61.9 13.3 60.9 C 12.3 63.4 12.5 64.1 12.2 66.0 C 12.3 66.4 12.5 64.9 12.5 66.0 C 12.4 66.0 12.4 66.0 12.3 66.0 C 12.3 66.4 12.4 66.6 12.3 66.8 C 12.2 66.7 12.2 66.1 11.9 66.0 C 12.0 67.0 11.7 67.6 11.9 68.0 C 11.9 66.6 12.4 67.5 12.2 68.4 C 12.0 67.6 12.6 71.5 13.2 72.6 C 13.1 73.3 12.8 71.3 12.6 71.5 C 13.2 73.8 13.2 73.7 13.5 73.8 C 13.9 75.1 13.9 75.6 14.8 77.0 C 15.2 77.9 14.4 76.6 14.8 77.5 C 15.2 78.0 15.5 78.2 16.0 79.0 C 16.9 81.4 21.8 85.8 24.1 88.8 C 23.1 87.7 24.7 88.8 26.2 90.1 C 26.3 90.2 26.0 90.2 26.6 90.6 C 26.6 90.4 27.1 90.8 28.3 91.6 C 28.3 91.7 28.0 91.7 28.6 92.2 C 29.3 92.3 30.6 93.5 31.6 93.9 C 31.8 94.4 29.4 92.7 29.1 92.7 C 31.9 94.8 32.6 94.9 35.0 96.4 C 33.7 95.7 35.8 97.2 36.2 97.5 C 35.8 96.9 37.8 97.9 36.5 97.0 C 37.4 97.5 38.9 98.3 39.1 98.5 C 38.6 98.2 37.7 97.7 37.7 97.8 C 38.9 98.4 40.5 99.5 41.2 99.6 C 40.3 99.2 39.8 98.8 39.8 98.7 C 40.2 98.8 40.7 98.9 41.4 99.2 C 39.1 98.8 45.3 101.4 45.7 101.4 C 46.2 102.0 46.5 102.2 46.2 102.3 C 49.0 103.5 48.7 103.1 50.4 103.7 C 49.8 103.8 49.1 103.7 51.8 104.9 C 51.3 104.4 54.6 105.7 53.8 105.0 C 55.5 105.7 56.0 105.8 56.7 106.1 C 57.4 106.4 58.0 106.6 58.5 106.9 C 59.6 107.3 60.4 107.7 61.7 108.1 C 61.8 108.0 61.0 107.7 61.8 108.0 C 63.0 108.4 64.0 108.9 64.8 109.3 C 65.6 109.3 64.6 109.0 65.5 109.1 C 67.4 110.0 66.8 110.1 68.5 110.8 C 70.8 111.3 69.9 111.2 71.4 111.3 C 70.8 111.1 70.1 110.8 70.9 111.0 C 72.2 111.6 72.6 112.0 73.0 112.1 C 72.0 111.9 71.2 111.6 70.8 111.4 C 70.4 111.5 69.0 111.1 70.1 111.6 C 68.7 111.1 67.2 110.6 65.2 110.1 C 65.8 110.5 63.4 109.6 64.0 110.0 C 66.2 110.7 66.7 111.0 68.9 111.6 C 68.5 111.2 70.7 112.0 71.1 112.1 C 71.2 112.0 72.7 112.5 72.4 112.1 C 74.1 112.6 74.0 112.7 75.7 113.1 C 75.8 113.2 75.5 113.3 76.2 113.5 C 76.9 113.4 77.4 113.9 77.9 114.0 C 77.6 113.6 80.1 114.4 80.3 114.2 C 79.6 114.1 78.7 113.9 78.6 113.7 C 81.4 114.5 79.2 113.7 78.7 113.4 C 78.8 113.5 77.7 113.6 77.5 113.3 C 79.9 113.7 74.3 112.1 76.4 112.7 C 78.2 113.2 78.1 113.0 79.9 113.5 C 81.9 114.4 79.3 114.1 81.4 114.9 C 82.8 115.0 83.7 115.3 83.9 115.1 C 84.1 115.2 84.4 115.4 85.0 115.6 C 85.6 115.5 83.3 114.9 85.0 115.2 C 85.9 115.5 84.8 115.6 86.7 115.9 C 87.6 115.9 84.5 115.2 86.2 115.5 C 88.0 116.3 85.8 115.3 88.0 115.7 C 88.2 115.8 88.5 115.9 89.2 116.0 C 89.3 116.2 89.0 116.3 89.7 116.5 C 90.2 116.1 90.5 116.8 92.1 117.0 C 93.1 116.9 90.5 116.5 91.0 116.4 C 92.8 117.0 93.9 116.9 94.6 117.1 C 93.1 117.0 96.9 117.7 97.0 117.9 C 96.6 117.5 97.4 117.8 99.6 117.9 C 99.6 118.4 102.1 118.5 102.6 118.9 C 102.9 118.8 103.5 118.8 103.9 118.8 C 103.1 118.7 102.4 118.5 102.7 118.4 C 103.3 118.5 103.9 118.6 104.6 118.7 C 105.6 119.1 102.8 119.2 107.0 119.7 C 106.5 119.3 108.3 119.5 109.5 119.6 C 109.4 119.3 107.8 119.4 107.7 119.2 C 109.1 119.2 110.6 119.6 111.4 119.8 C 113.9 120.0 116.8 120.5 120.4 120.8 C 121.2 121.1 117.4 120.7 119.7 121.0 C 120.7 121.1 120.3 120.9 121.6 121.1 C 120.3 122.0 131.4 122.1 132.1 122.6 C 132.5 122.4 135.6 122.7 135.3 122.4 C 133.2 122.5 131.8 122.1 130.8 121.8 C 128.8 121.8 132.5 122.2 130.7 122.2 C 130.6 122.0 127.9 121.9 128.1 121.7 C 130.9 121.9 126.7 121.4 128.8 121.3 C 131.4 121.6 136.6 121.6 135.4 121.8 C 135.4 121.8 134.2 121.7 134.1 121.8 C 137.0 122.1 138.8 122.0 140.0 121.9 C 141.3 122.1 146.6 122.0 145.3 122.1 C 145.7 122.3 142.1 121.9 142.6 122.1 C 148.1 122.5 148.2 122.2 151.8 122.5 C 150.7 122.2 155.6 122.1 155.2 122.2 C 155.2 122.5 156.3 122.7 158.5 122.4 C 158.2 122.7 159.3 122.7 160.5 122.8 C 161.0 122.6 159.5 122.6 159.8 122.4 C 160.9 122.4 162.0 122.4 163.1 122.4 C 163.2 122.5 163.0 122.6 163.8 122.6 C 165.0 122.5 169.4 122.1 169.1 122.3 C 167.2 122.7 172.1 122.5 169.1 122.8 C 169.9 122.8 170.0 122.9 171.1 122.8 C 171.1 122.7 171.1 122.6 171.1 122.5 C 173.5 122.4 172.3 122.8 174.4 122.8 C 174.6 122.6 175.5 122.6 175.7 122.5 C 174.9 122.5 174.8 122.6 173.7 122.6 C 174.9 122.2 171.5 122.5 171.7 122.2 C 174.0 122.1 174.0 122.3 175.0 122.4 C 177.9 122.1 176.5 122.3 179.6 122.2 C 179.6 122.1 178.8 122.1 179.0 122.0 C 182.7 121.9 182.3 122.4 184.9 122.1 C 184.3 122.1 182.0 122.5 183.6 122.4 C 185.3 122.2 185.8 121.9 188.1 121.7 C 188.3 121.8 188.1 121.9 188.8 121.9 C 189.8 121.7 189.8 121.5 190.7 121.3 C 190.9 121.4 192.2 121.3 192.7 121.2 C 193.5 121.3 192.4 121.4 193.4 121.4 C 195.3 121.2 196.3 120.6 197.8 120.5 C 197.8 120.8 199.6 120.6 201.1 120.3 C 201.4 120.6 204.7 120.2 206.9 120.0 C 206.3 119.8 208.6 119.6 208.1 119.4 C 207.0 119.6 206.4 119.6 206.2 119.5 C 208.7 119.2 209.5 119.6 211.2 118.9 C 212.2 119.0 213.4 118.9 215.0 118.8 C 215.2 118.6 212.1 119.0 213.8 118.6 C 213.9 118.7 214.4 118.6 215.0 118.4 C 214.8 118.7 216.1 118.6 216.9 118.6 C 218.4 118.2 221.4 118.0 220.0 118.0 C 222.3 117.5 220.8 118.2 222.6 117.9 C 221.6 117.7 224.6 117.2 223.1 117.3 C 225.4 116.8 225.3 117.2 224.3 117.5 C 226.5 117.2 226.9 116.9 228.0 116.8 C 227.0 116.8 230.2 116.0 228.6 116.5 C 228.1 116.9 230.5 116.2 231.0 116.2 C 230.2 116.2 231.3 116.0 229.8 116.2 C 231.3 115.8 233.6 115.3 235.1 115.2 C 237.0 114.6 238.9 114.2 238.1 114.6 C 239.9 114.1 239.2 114.3 241.0 113.9 C 241.0 113.8 240.5 113.9 240.3 113.9 C 242.8 113.3 242.4 113.6 245.6 112.7 C 245.3 113.1 247.3 112.6 247.9 112.6 C 246.6 112.9 245.5 113.1 244.5 113.3 C 244.3 113.5 245.4 113.3 244.5 113.6 C 244.4 113.5 243.9 113.6 243.4 113.7 C 245.5 113.4 240.8 114.8 242.3 114.2 C 242.3 114.2 242.4 114.2 242.8 114.1 C 242.4 114.0 242.4 114.0 242.7 113.7 C 241.7 114.1 240.8 114.0 240.4 114.3 C 240.5 114.4 241.5 114.1 241.7 114.1 C 239.1 114.9 240.8 114.0 238.7 114.6 C 238.3 115.0 239.4 114.8 240.0 114.8 C 238.1 115.3 236.4 115.7 235.8 115.6 C 234.1 116.1 236.0 115.8 234.7 116.2 C 234.1 116.2 234.1 116.0 232.9 116.3 C 231.6 116.7 233.7 116.3 232.4 116.6 C 230.9 116.8 233.3 116.1 231.0 116.5 C 231.7 116.7 229.1 116.8 229.3 117.0 C 230.6 116.7 230.6 117.1 229.9 117.0 C 226.9 117.2 225.0 118.5 222.0 118.4 C 222.0 118.5 221.5 118.6 221.4 118.7 C 223.7 118.5 226.9 117.9 227.6 118.2 C 229.4 117.7 229.1 117.5 229.3 117.4 C 231.5 117.3 231.3 117.4 230.1 118.0 C 226.7 118.7 225.1 118.8 222.8 119.1 C 221.6 119.5 222.9 119.2 223.4 119.3 C 216.1 120.3 221.8 120.0 219.1 120.4 C 219.2 120.2 218.6 120.3 217.9 120.3 C 217.9 120.5 216.8 120.6 216.6 120.7 C 217.1 120.6 217.4 120.7 217.3 120.8 C 215.5 121.1 216.1 120.8 216.0 120.6 C 217.4 120.5 218.3 120.3 218.5 120.1 C 216.7 120.5 215.2 120.5 214.1 120.9 C 212.3 120.8 214.9 120.1 214.0 120.0 C 214.2 119.7 212.9 120.8 211.5 121.1 C 209.3 121.4 209.2 121.6 207.1 121.9 C 206.5 121.7 209.2 121.5 209.0 121.3 C 208.4 121.4 208.2 121.4 207.7 121.4 C 206.2 121.6 206.3 121.8 205.2 122.1 C 204.5 121.9 204.2 122.1 203.3 122.3 C 201.8 122.3 204.1 122.0 202.6 122.1 C 201.0 122.2 199.9 122.7 199.4 122.7 C 199.3 122.6 199.5 122.5 198.7 122.5 C 196.9 122.9 196.5 122.9 198.8 122.8 C 196.7 123.0 195.9 123.2 196.2 123.4 C 199.3 123.2 200.0 123.0 201.4 123.2 C 202.0 122.9 202.9 123.0 204.0 122.9 C 203.3 122.6 205.3 122.7 205.9 122.4 C 205.2 122.5 204.4 122.5 204.0 122.5 C 207.2 122.2 207.1 122.2 209.6 121.5 C 209.7 121.6 210.0 121.6 210.3 121.6 C 209.5 121.9 207.2 122.1 207.2 122.3 C 209.0 122.4 209.6 121.8 211.7 121.9 C 212.5 121.5 209.9 121.8 211.6 121.5 C 212.4 121.6 213.5 121.6 214.8 121.5 C 216.2 121.2 216.8 121.0 217.9 120.8 C 218.0 120.8 218.2 120.9 219.2 120.7 C 219.1 120.6 218.1 120.7 219.2 120.5 C 222.5 120.2 224.7 120.1 227.9 119.3 C 226.7 119.5 224.1 119.7 225.4 119.5 C 226.8 119.4 228.7 118.7 230.3 118.6 C 230.8 118.6 228.5 118.9 229.1 119.2 C 230.5 118.9 231.4 118.7 232.1 118.6 C 232.1 118.5 233.7 118.2 233.3 118.1 C 232.1 118.3 231.8 118.6 231.5 118.6 C 232.3 117.7 235.9 117.9 238.1 117.4 C 239.5 117.0 237.0 117.4 238.6 116.9 C 239.6 116.6 240.3 117.0 238.7 117.5 C 237.6 117.6 237.2 118.0 236.9 117.8 C 236.5 118.0 235.8 118.1 235.8 118.2 C 236.6 118.0 236.5 118.2 237.0 118.1 C 235.8 118.4 235.8 118.9 234.7 118.8 C 235.4 118.7 235.6 118.5 235.8 118.4 C 232.7 119.2 231.6 119.2 229.8 119.4 C 230.8 119.4 229.7 119.6 229.8 119.8 C 231.2 119.4 233.9 119.0 232.3 119.4 C 231.1 119.3 230.4 120.3 229.3 120.2 C 230.1 120.0 230.0 119.9 230.4 119.7 C 229.2 119.9 229.2 119.7 227.9 120.0 C 224.0 121.1 220.9 121.0 214.3 122.5 C 212.1 122.8 216.4 122.1 216.2 121.9 C 215.5 122.0 215.4 122.0 214.9 122.0 C 214.9 122.3 213.7 122.2 213.0 122.5 C 213.1 122.3 210.0 122.9 208.5 122.9 C 208.5 123.0 208.7 123.1 207.9 123.2 C 203.2 123.5 194.6 124.8 191.0 124.8 C 191.1 125.0 189.5 125.1 189.1 125.3 C 186.8 125.4 187.8 125.2 184.5 125.6 C 182.8 125.8 184.8 125.4 185.1 125.3 C 180.1 125.8 175.7 125.7 172.5 126.1 C 170.9 126.3 172.5 126.0 169.2 126.0 C 169.1 126.3 163.9 125.9 163.2 126.3 C 161.1 126.4 157.5 125.9 159.1 126.3 C 156.4 126.3 158.2 125.9 157.1 125.9 C 155.2 126.0 157.7 126.5 155.8 126.6 C 156.0 126.3 154.4 126.4 153.1 126.1 C 154.6 126.2 155.6 126.1 155.8 126.0 C 154.5 126.1 154.6 125.9 152.5 126.0 C 150.9 126.1 146.4 126.2 145.1 125.8 C 145.1 125.9 145.4 125.9 145.8 126.0 C 144.5 126.0 142.9 125.7 143.1 126.0 C 140.1 125.9 138.8 125.5 137.1 125.7 C 135.8 125.7 137.6 125.5 133.8 125.3 C 133.7 125.5 127.0 125.0 125.3 124.6 C 125.2 124.9 124.8 124.6 124.0 124.5 C 123.9 124.6 124.0 124.7 123.3 124.7 C 123.2 124.6 122.6 124.6 122.0 124.6 C 122.5 124.2 119.6 124.4 119.4 124.1 C 120.0 124.2 120.0 124.0 119.4 123.9 C 119.2 124.2 116.6 123.4 116.8 123.7 C 117.4 123.8 119.2 124.0 118.7 124.1 C 116.2 124.0 117.2 123.8 115.5 123.5 C 115.6 123.7 116.6 123.9 115.5 123.8 C 113.7 123.5 115.4 123.7 114.3 123.4 C 113.3 123.3 111.6 123.3 111.0 123.2 C 111.2 123.3 110.6 123.0 110.4 123.0 C 107.1 122.5 99.7 121.6 96.6 120.8 C 96.3 120.8 95.6 120.7 95.9 120.9 C 94.0 120.5 94.1 120.6 92.2 120.1 C 92.2 120.2 92.2 120.3 92.2 120.4 C 89.7 120.1 92.0 120.1 90.4 119.8 C 90.1 120.3 89.5 119.4 88.0 119.1 C 87.8 119.2 87.1 119.1 87.3 119.3 C 85.0 118.8 85.2 118.5 83.2 118.2 C 83.6 118.3 83.8 119.1 83.5 119.3 C 83.2 119.1 82.6 118.9 81.8 118.7 C 82.9 118.7 82.5 117.7 79.6 117.3 C 81.2 117.6 81.7 117.8 81.3 117.9 C 79.2 117.5 78.5 117.1 76.7 116.7 C 76.3 116.8 77.6 117.2 77.1 117.3 C 76.6 117.2 76.4 117.2 76.5 117.4 C 74.6 116.8 74.6 116.6 72.5 116.2 C 72.5 116.1 72.9 116.2 73.7 116.5 C 73.6 116.2 73.6 116.1 74.9 116.4 C 75.0 116.6 74.2 116.6 76.0 117.0 C 76.0 116.8 76.1 116.7 76.1 116.6 C 74.8 116.3 71.8 115.3 71.5 115.3 C 72.1 115.6 73.1 115.9 72.5 116.0 C 70.4 115.4 69.8 114.9 68.1 114.3 C 65.0 113.5 59.8 111.7 60.3 112.3 C 58.6 111.6 59.2 111.8 57.7 111.2 C 58.1 111.6 55.9 110.7 56.0 111.0 C 57.9 111.6 57.3 111.4 59.2 112.0 C 59.1 112.1 58.8 112.1 58.0 111.9 C 58.0 111.8 57.2 111.5 55.9 111.0 C 56.1 111.2 57.2 111.8 55.8 111.3 C 55.8 111.2 55.5 111.1 54.8 110.9 C 54.9 110.8 54.9 110.6 55.0 110.5 C 55.7 110.7 56.6 111.0 57.2 111.0 C 56.6 110.9 56.6 110.8 56.1 110.6 C 55.8 110.6 53.7 109.7 53.5 109.8 C 54.3 110.1 54.8 110.4 53.9 110.1 C 53.8 110.0 52.0 109.3 51.1 109.1 C 54.1 110.4 52.9 109.9 53.8 110.5 C 51.7 109.8 51.5 109.4 47.6 107.9 C 47.6 107.7 47.7 107.5 48.7 107.9 C 46.4 106.4 40.9 104.4 39.3 103.5 C 40.4 104.1 41.9 104.5 40.1 103.6 C 40.1 103.7 38.8 103.0 38.5 103.0 C 37.8 103.1 39.1 104.1 40.4 104.9 C 39.0 104.2 38.6 104.2 37.4 103.5 C 37.0 103.2 38.5 103.5 36.9 102.7 C 36.4 102.8 34.0 101.1 33.3 101.1 C 34.4 101.6 35.0 102.2 33.9 101.6 C 34.2 101.5 32.0 100.4 32.0 100.2 C 33.8 101.1 34.3 101.2 35.5 101.8 C 34.1 101.0 36.6 102.2 34.3 100.9 C 33.1 100.4 32.4 100.3 30.1 98.9 C 29.3 98.3 30.2 98.6 29.1 97.8 C 29.2 98.2 26.8 96.7 28.4 97.5 C 27.5 96.9 27.1 96.6 26.7 96.2 C 27.7 97.2 22.2 93.6 22.9 94.4 C 23.1 94.1 23.0 93.6 22.8 93.4 C 21.7 92.8 20.6 91.8 18.4 89.6 C 18.2 89.9 18.0 89.3 17.1 88.4 C 16.8 88.3 17.5 89.2 16.9 88.6 C 15.9 87.4 15.9 87.4 15.8 87.1 C 15.1 86.3 14.6 85.7 14.4 85.2 C 14.3 85.3 14.4 85.6 14.5 85.8 C 12.3 82.6 11.0 81.2 9.8 78.5 C 10.2 79.7 10.7 79.7 10.2 78.8 C 9.9 78.3 9.6 77.8 9.4 77.5 C 9.5 78.2 9.4 77.9 8.9 76.5 C 8.3 75.4 8.7 77.2 8.4 76.2 C 8.1 75.1 8.4 75.7 8.3 75.1 C 8.1 74.6 8.0 74.1 7.9 73.6 C 8.0 74.6 7.6 73.6 7.3 72.7 C 7.7 73.3 7.6 72.9 7.2 71.2 C 7.3 71.0 7.6 71.9 7.5 71.2 C 7.4 70.8 6.9 69.5 7.1 68.2 C 7.1 68.6 7.2 68.8 7.3 68.7 C 7.0 67.4 7.3 66.4 7.5 65.3 C 7.2 66.4 7.1 65.8 6.9 66.2 C 7.1 65.1 7.0 63.6 7.5 62.8 C 7.1 64.5 7.9 62.9 8.1 61.9 C 7.9 61.6 7.7 63.4 7.5 62.8 C 7.4 62.2 8.0 61.0 7.9 60.3 C 7.8 60.4 7.8 61.1 7.6 61.3 C 7.8 60.4 7.4 61.5 7.6 60.8 C 8.0 60.3 7.8 59.7 7.9 59.2 C 8.2 58.6 9.0 57.5 9.0 56.9 C 8.9 56.9 8.6 57.7 8.5 57.8 C 9.4 55.1 10.1 54.5 11.3 52.0 C 11.6 51.8 11.9 51.4 12.4 50.8 C 12.3 50.7 12.5 50.3 12.9 49.7 C 13.7 48.8 14.5 47.9 15.7 46.8 C 15.6 47.1 15.2 47.7 16.7 46.1 C 16.7 46.0 16.1 46.6 16.6 46.0 C 16.6 46.0 17.0 45.7 17.0 45.6 C 17.0 45.5 17.0 45.5 16.9 45.4 C 16.5 45.9 16.1 46.3 15.7 46.8 C 15.6 46.6 15.4 46.7 15.1 47.0 C 16.7 45.0 17.0 45.4 18.1 44.1 C 18.6 44.1 19.0 43.8 18.1 45.0 C 19.2 43.9 20.0 43.0 20.1 42.6 C 18.7 43.9 19.0 43.3 18.5 43.5 C 19.4 42.7 19.3 42.6 19.8 42.2 C 21.0 41.3 18.9 43.5 21.1 41.6 C 19.2 42.8 22.3 40.3 23.6 39.4 C 23.3 39.5 22.9 39.8 23.4 39.3 C 26.6 36.7 26.8 37.6 28.7 35.8 C 28.7 36.1 29.7 35.4 30.2 35.2 C 28.3 36.4 27.9 36.8 27.2 37.3 C 27.4 37.3 27.9 37.0 28.5 36.7 C 28.4 36.5 28.8 36.2 29.7 35.8 C 30.1 35.3 29.7 35.1 31.2 34.0 C 31.3 34.0 31.2 34.3 32.0 33.8 C 32.6 33.2 31.5 34.5 34.8 32.6 C 34.2 32.8 33.8 32.9 34.0 32.6 C 35.5 31.6 35.2 31.9 37.4 30.6 C 38.5 30.6 36.1 31.9 35.6 32.4 C 37.1 31.5 38.2 30.7 39.9 30.0 C 38.6 30.5 39.7 29.7 41.2 28.9 C 42.6 28.4 41.3 29.3 43.0 28.6 C 44.2 27.9 44.9 27.4 43.6 27.9 C 46.5 26.6 45.7 26.7 48.4 25.6 C 48.5 25.7 47.8 26.0 46.8 26.4 C 47.0 26.4 46.7 26.6 47.7 26.3 C 48.5 25.8 49.9 25.2 51.3 24.6 C 52.7 24.0 53.6 23.6 54.3 23.3 C 56.7 22.9 59.3 21.4 61.8 20.8 C 60.8 21.3 65.0 19.8 66.3 19.7 C 67.0 19.4 69.2 18.2 68.4 18.7 C 68.7 18.9 70.2 18.4 71.4 18.2 C 71.3 18.1 71.3 18.0 71.3 17.9 C 73.8 17.2 74.5 17.3 75.4 17.3 C 78.5 16.3 82.1 15.8 86.0 14.7 C 87.1 14.8 87.9 14.5 90.4 14.2 C 90.2 14.0 92.2 13.7 94.0 13.3 C 93.5 13.2 95.2 12.9 95.2 12.8 C 93.5 13.1 94.1 12.7 93.2 12.7 C 95.4 12.6 96.4 11.9 98.2 11.9 C 96.1 12.3 95.5 12.8 95.2 13.2 C 97.8 12.7 99.1 12.5 99.6 12.7 C 99.8 12.5 99.5 12.4 98.9 12.4 C 99.8 12.2 100.6 12.1 101.4 12.0 C 101.7 12.1 100.5 12.3 101.4 12.2 C 102.0 12.0 102.7 11.9 103.3 11.7 C 104.1 11.8 102.4 12.0 102.1 12.2 C 105.5 11.8 104.0 11.5 105.8 11.2 C 106.3 11.3 106.2 11.5 107.8 11.4 C 108.4 11.1 108.6 10.9 110.3 10.6 C 111.4 10.5 110.3 11.0 111.6 10.9 C 111.8 10.7 112.3 10.7 112.9 10.7 C 112.8 10.6 113.4 10.4 114.1 10.3 C 114.3 10.4 115.6 10.2 116.1 10.1 C 116.2 10.2 118.3 10.3 118.7 10.0 C 118.7 9.9 117.6 10.1 117.4 10.0 C 118.9 9.9 119.9 9.7 120.6 9.6 C 121.1 10.1 123.5 9.4 126.5 9.5 C 128.4 9.1 126.1 9.1 128.5 8.7 C 129.9 8.8 128.2 9.0 128.5 9.2 C 128.9 9.2 131.1 9.2 131.1 9.0 C 131.1 8.9 130.0 9.0 129.8 8.9 C 131.6 8.6 131.5 8.9 132.5 8.9 C 132.3 8.7 133.5 8.6 133.8 8.4 C 138.5 8.0 138.5 8.4 140.4 8.5 C 140.4 8.4 141.6 8.4 141.7 8.3 C 140.4 8.5 138.5 8.3 140.4 8.2 C 140.1 8.4 142.9 8.1 143.1 8.0 C 142.7 7.9 141.0 8.0 141.7 7.8 C 144.2 7.6 143.2 8.1 145.1 7.8 C 145.3 7.9 144.2 8.0 143.7 8.1 C 144.5 8.1 145.6 8.0 145.7 8.1 C 144.8 8.2 144.8 8.4 144.4 8.5 C 145.7 8.3 148.0 8.4 146.4 8.1 C 149.1 8.1 151.6 7.9 149.8 7.7 C 151.9 7.6 150.7 8.0 152.4 7.7 C 152.2 8.0 151.7 8.2 153.1 8.4 C 153.4 8.2 154.5 8.2 154.4 8.0 C 157.6 7.9 158.5 8.2 159.8 8.4 C 158.6 8.0 160.2 8.3 161.8 8.1 C 162.7 8.2 161.8 8.5 164.4 8.4 C 161.6 8.1 167.7 8.4 166.4 8.0 C 169.8 8.2 169.7 8.2 173.1 8.4 C 172.8 8.6 172.0 8.6 170.5 8.6 C 171.5 8.4 167.5 8.3 167.8 8.5 C 167.8 8.5 167.8 8.6 167.8 8.7 C 170.3 8.7 172.0 8.8 173.1 9.0 C 173.6 8.8 174.8 8.8 174.4 8.4 C 176.8 8.9 179.4 8.5 180.4 8.9 C 179.6 8.8 178.8 8.8 179.1 9.0 C 180.1 8.9 181.2 9.0 181.1 8.8 C 179.2 8.6 178.8 8.5 177.8 8.7 C 178.6 8.5 175.9 8.2 177.8 8.3 C 177.7 8.6 181.8 8.3 180.5 8.5 C 178.3 8.5 182.8 8.8 183.0 9.0 C 183.0 9.0 183.0 9.0 183.0 9.0 Z M 228.5 119.8 C 230.4 119.4 228.1 119.6 226.7 119.9 C 227.1 119.9 227.3 119.9 227.3 120.1 C 227.9 119.9 228.4 119.8 228.5 119.8 C 228.5 119.8 228.5 119.8 228.5 119.8 Z M 208.1 119.6 C 207.5 120.0 210.6 119.4 211.9 119.2 C 211.5 119.2 211.1 119.2 211.9 119.1 C 210.5 119.0 210.1 119.5 208.1 119.6 C 208.1 119.6 208.1 119.6 208.1 119.6 Z M 135.3 122.8 C 135.8 122.8 137.1 122.8 137.2 122.9 C 138.0 122.9 137.8 122.8 138.0 122.7 C 139.5 122.8 137.6 123.1 139.9 123.1 C 140.9 122.6 135.9 122.3 135.3 122.8 C 135.3 122.8 135.3 122.8 135.3 122.8 Z M 157.7 11.9 C 158.7 12.1 156.4 12.3 157.1 12.5 C 160.8 12.3 157.9 12.0 163.0 12.1 C 162.7 12.0 162.3 11.9 162.4 11.8 C 160.0 11.9 159.8 12.1 160.4 11.7 C 159.3 11.7 159.0 12.2 157.7 11.9 C 157.7 11.9 157.7 11.9 157.7 11.9 Z M 204.7 15.6 C 204.3 15.5 204.0 15.4 204.0 15.3 C 202.5 15.2 202.8 15.3 200.9 15.0 C 201.1 15.4 203.0 15.6 204.7 15.6 C 204.7 15.6 204.7 15.6 204.7 15.6 Z M 305.0 61.9 C 305.1 62.1 305.2 62.4 305.2 62.6 C 305.3 62.4 305.9 63.1 305.4 61.8 C 305.3 61.7 305.4 61.9 305.5 62.2 C 305.3 62.0 305.1 61.3 305.0 61.5 C 305.1 61.8 305.1 61.9 305.0 61.9 C 305.0 61.9 305.0 61.9 305.0 61.9 Z M 289.1 94.1 C 291.2 92.4 285.4 95.6 289.1 94.1 C 289.1 94.1 289.1 94.1 289.1 94.1 C 289.1 94.1 289.1 94.1 289.1 94.1 Z M 295.2 93.2 C 295.3 93.2 295.7 92.8 295.7 92.8 C 297.4 91.5 295.9 92.9 296.9 92.2 C 298.1 91.0 296.0 92.4 297.5 90.9 C 297.1 91.1 296.2 92.3 295.2 93.2 C 295.2 93.2 295.2 93.2 295.2 93.2 Z M 26.4 37.5 C 24.9 38.7 24.6 39.2 24.5 39.6 C 25.5 38.9 26.5 38.3 26.9 38.1 C 28.8 36.6 25.4 38.9 25.1 39.1 C 25.2 38.8 26.6 37.7 26.4 37.5 C 26.4 37.5 26.4 37.5 26.4 37.5 Z M 21.6 41.3 C 21.1 41.9 20.3 42.7 20.4 42.9 C 21.2 42.1 21.4 42.1 21.5 42.1 C 22.2 41.4 21.1 42.1 21.6 41.3 C 21.6 41.3 21.6 41.3 21.6 41.3 Z M 31.5 34.6 C 30.7 35.1 31.1 35.1 31.1 35.3 C 32.2 34.6 32.5 34.5 33.7 33.8 C 33.7 33.7 33.6 33.7 33.6 33.6 C 32.5 34.2 32.5 34.3 31.6 34.8 C 31.6 34.8 31.6 34.7 31.5 34.6 C 31.5 34.6 31.5 34.6 31.5 34.6 Z M 17.7 45.3 C 15.4 47.6 14.9 48.9 14.1 50.6 C 15.3 48.9 16.2 47.1 17.4 46.0 C 18.8 44.5 16.9 46.4 16.9 46.3 C 16.9 46.2 17.3 45.7 17.7 45.3 C 17.7 45.3 17.7 45.3 17.7 45.3 Z M 7.5 66.7 C 7.3 67.3 7.7 68.2 7.8 69.7 C 7.9 69.4 7.9 69.1 8.0 69.1 C 7.9 67.1 7.5 68.3 7.5 66.7 C 7.5 66.7 7.5 66.7 7.5 66.7 Z M 10.5 78.6 C 11.2 79.8 10.4 77.9 10.8 78.5 C 10.2 77.1 9.6 75.7 9.4 75.8 C 10.1 77.2 10.3 77.5 10.5 78.6 C 10.5 78.6 10.5 78.6 10.5 78.6 Z M 16.2 86.8 C 17.4 88.0 15.9 86.0 16.6 86.4 C 16.1 85.9 16.1 86.1 16.0 86.1 C 15.7 85.7 15.5 85.3 15.0 84.7 C 15.2 85.3 16.5 86.7 16.2 86.8 C 16.2 86.8 16.2 86.8 16.2 86.8 Z M 73.2 18.5 C 72.2 18.8 72.6 19.0 70.5 19.5 C 73.7 18.6 72.1 19.8 76.3 18.6 C 75.6 18.7 76.0 18.4 76.3 18.5 C 77.9 17.9 74.7 18.8 76.2 18.1 C 75.0 18.4 75.8 18.5 74.6 18.9 C 73.3 18.9 72.5 19.0 73.2 18.5 C 73.2 18.5 73.2 18.5 73.2 18.5 Z M 76.4 18.8 C 77.6 18.6 77.5 18.1 78.1 18.2 C 78.6 18.1 78.5 18.0 78.6 17.9 C 78.2 18.1 78.1 18.0 78.0 18.0 C 77.0 18.3 76.0 18.6 76.4 18.8 C 76.4 18.8 76.4 18.8 76.4 18.8 Z M 65.7 21.8 C 67.5 21.1 68.1 21.1 69.0 20.6 C 69.7 20.8 70.2 20.1 71.3 20.2 C 73.1 19.6 71.7 19.9 71.2 19.9 C 73.0 19.3 71.7 20.0 73.5 19.4 C 73.7 19.0 71.4 19.8 71.6 19.4 C 70.2 19.8 70.3 20.0 69.4 20.3 C 68.8 20.4 69.0 20.2 68.8 20.2 C 67.3 20.7 67.3 20.5 66.0 20.9 C 65.8 21.2 66.3 21.1 67.8 20.7 C 66.3 21.2 65.7 21.6 64.0 22.0 C 65.1 21.4 59.7 23.0 60.2 23.3 C 61.7 22.8 61.2 22.8 61.8 22.5 C 63.7 22.1 64.9 21.7 65.7 21.8 C 65.7 21.8 65.7 21.8 65.7 21.8 Z M 32.6 34.9 C 32.0 35.2 31.5 35.5 30.7 36.0 C 30.5 35.9 31.6 35.2 30.5 35.7 C 29.1 36.5 28.9 36.8 28.1 37.4 C 28.6 37.2 31.5 35.6 30.1 36.6 C 30.6 36.5 31.5 35.9 32.7 35.2 C 31.2 35.7 34.7 34.1 36.1 33.3 C 35.8 33.1 38.6 32.1 39.6 31.3 C 38.6 31.6 35.8 33.3 34.6 33.9 C 35.2 33.6 31.1 35.4 32.6 34.9 C 32.6 34.9 32.6 34.9 32.6 34.9 Z M 81.0 17.5 C 81.3 17.4 82.6 17.0 81.6 17.2 C 82.1 17.0 83.2 16.9 82.7 16.7 C 83.3 16.5 83.9 16.4 84.5 16.3 C 84.2 16.4 82.6 16.7 83.3 16.8 C 84.5 16.4 84.1 16.7 85.7 16.3 C 84.9 16.7 85.8 16.6 85.2 17.0 C 85.7 16.8 87.1 16.5 87.0 16.3 C 89.3 15.9 86.4 16.8 89.4 16.1 C 89.4 16.3 87.2 16.8 86.5 16.8 C 86.1 17.1 90.2 16.1 92.5 15.8 C 90.4 16.0 92.0 15.4 93.0 15.0 C 93.7 15.0 93.0 15.2 94.3 15.1 C 95.3 14.9 95.8 14.7 96.1 14.8 C 97.0 14.6 96.6 14.5 96.7 14.4 C 98.1 14.1 97.1 14.7 99.2 14.3 C 97.6 14.2 99.4 13.8 102.3 13.4 C 102.1 13.4 101.1 13.5 101.0 13.4 C 101.4 13.2 103.1 13.2 103.5 13.3 C 104.6 13.0 103.9 13.0 102.9 13.2 C 103.5 13.0 104.1 12.8 104.8 12.7 C 101.6 13.1 96.7 13.9 91.1 14.7 C 92.2 14.7 90.9 14.9 89.2 15.2 C 89.0 15.1 89.7 14.9 90.5 14.8 C 88.4 14.9 88.7 15.5 85.7 15.9 C 84.0 16.2 87.4 15.4 85.6 15.6 C 84.5 15.9 83.8 16.3 83.2 16.1 C 81.3 16.7 80.9 17.1 78.0 17.8 C 79.6 17.5 80.5 17.9 82.2 17.3 C 82.2 17.3 81.4 17.4 81.0 17.5 C 81.0 17.5 81.0 17.5 81.0 17.5 Z M 21.6 42.3 C 20.7 43.0 20.4 43.5 20.2 43.5 C 18.8 44.8 20.5 43.6 20.8 43.3 C 21.4 42.7 21.6 42.4 21.6 42.3 C 21.6 42.3 21.6 42.3 21.6 42.3 Z M 143.8 125.3 C 146.3 125.5 145.8 125.2 147.8 125.2 C 146.2 125.1 145.8 124.9 143.2 124.8 C 143.0 125.0 143.0 125.2 143.8 125.3 C 143.8 125.3 143.8 125.3 143.8 125.3 Z M 27.0 38.3 C 28.2 37.1 25.5 39.7 25.4 39.6 C 23.9 40.8 26.9 38.6 25.6 39.9 C 26.9 38.8 27.8 38.4 29.6 37.1 C 29.4 37.0 27.9 37.9 26.6 38.9 C 26.3 38.9 27.0 38.4 27.0 38.3 C 27.0 38.3 27.0 38.3 27.0 38.3 Z M 118.2 122.8 C 116.5 122.8 119.7 123.4 120.7 123.6 C 120.8 123.3 120.3 123.3 118.2 122.8 C 118.2 122.8 118.2 122.8 118.2 122.8 Z M 161.1 125.2 C 162.1 124.9 158.1 125.2 159.1 124.9 C 158.0 124.9 157.8 125.0 157.8 125.0 C 157.2 125.0 155.3 125.0 155.8 124.8 C 155.5 124.6 158.8 124.9 157.8 124.6 C 158.9 124.5 158.9 124.6 159.8 124.7 C 157.8 124.6 158.7 124.9 161.1 125.0 C 161.1 124.8 160.0 124.8 161.1 124.6 C 161.3 124.8 162.5 124.9 162.4 125.3 C 164.5 125.2 163.3 124.8 165.7 124.8 C 165.6 124.7 164.0 124.7 163.1 124.6 C 163.3 124.4 165.7 124.8 165.1 124.5 C 165.6 124.6 167.0 124.7 167.1 125.0 C 165.2 125.1 164.0 125.3 162.4 125.4 C 163.9 125.6 165.9 125.0 168.4 125.2 C 168.2 125.0 169.6 125.0 169.1 124.8 C 171.1 124.8 170.2 125.1 169.8 125.2 C 170.3 125.3 174.1 125.1 173.8 124.9 C 174.1 125.1 178.6 124.8 178.4 124.5 C 179.7 124.6 181.8 124.2 182.4 124.5 C 183.2 124.3 184.7 124.2 186.4 124.1 C 186.8 123.8 183.9 124.2 183.7 124.0 C 183.2 123.8 186.8 123.8 186.3 123.7 C 186.3 123.6 186.3 123.5 186.3 123.5 C 185.0 123.7 183.6 123.8 182.4 124.0 C 181.4 124.0 182.6 123.9 182.3 123.7 C 181.5 123.9 177.2 124.5 177.1 124.0 C 174.2 124.3 172.2 124.3 171.1 124.5 C 169.4 124.5 172.0 124.3 171.1 124.2 C 166.1 124.6 160.0 124.3 155.8 124.6 C 154.9 124.6 155.2 124.4 155.1 124.3 C 149.4 124.4 154.2 124.8 149.8 124.6 C 149.8 124.4 151.9 124.5 151.8 124.3 C 150.2 124.2 149.8 124.4 147.8 124.2 C 147.8 124.3 147.8 124.4 147.8 124.6 C 146.1 124.5 146.7 124.2 145.8 124.1 C 143.7 124.1 144.2 124.3 143.2 123.9 C 141.2 124.0 139.2 123.9 137.2 123.7 C 135.8 123.8 138.4 124.3 140.5 124.4 C 140.4 124.5 139.8 124.5 139.8 124.6 C 137.4 124.2 137.0 123.8 133.3 123.5 C 136.1 123.9 131.8 123.5 131.3 123.2 C 129.8 123.2 130.9 123.6 131.9 123.6 C 131.7 123.7 130.8 123.5 130.6 123.4 C 130.4 123.8 134.0 124.2 137.8 124.3 C 136.0 124.6 140.5 124.4 138.5 124.8 C 141.6 124.9 139.0 124.5 142.4 124.7 C 142.1 124.6 141.5 124.4 141.2 124.3 C 143.8 124.4 143.0 124.7 145.8 124.7 C 146.3 124.5 144.5 124.5 144.5 124.4 C 147.5 124.7 148.5 124.8 150.5 125.1 C 150.9 125.0 150.4 124.7 153.8 124.9 C 153.8 125.0 153.8 125.0 153.8 125.1 C 152.2 125.0 151.8 125.5 155.8 125.5 C 156.1 125.3 154.8 125.4 153.8 125.3 C 154.2 125.2 155.5 125.1 157.1 125.1 C 157.9 125.2 158.8 125.3 157.8 125.3 C 158.4 125.5 159.0 125.1 161.1 125.2 C 161.1 125.2 161.1 125.2 161.1 125.2 Z M 8.2 64.4 C 8.2 64.8 8.2 65.1 8.2 65.8 C 8.4 66.2 8.4 64.9 8.6 64.9 C 8.7 63.9 8.3 64.6 8.2 64.4 C 8.2 64.4 8.2 64.4 8.2 64.4 Z M 13.4 51.5 C 13.2 51.5 13.0 52.3 12.3 53.3 C 12.3 53.7 13.0 52.5 13.1 52.6 C 14.0 51.4 12.6 52.7 13.4 51.5 C 13.4 51.5 13.4 51.5 13.4 51.5 Z M 10.4 56.9 C 10.0 57.3 10.3 57.5 10.7 56.5 C 10.8 56.6 10.8 56.9 10.6 57.5 C 11.1 57.0 10.9 56.4 11.5 55.3 C 11.2 55.6 10.8 56.2 10.4 56.9 C 10.4 56.9 10.4 56.9 10.4 56.9 Z M 9.7 58.8 C 9.6 59.5 9.2 59.9 9.0 61.1 C 9.3 60.9 10.0 58.3 10.1 57.9 C 10.1 57.4 9.1 60.2 9.7 58.8 C 9.7 58.8 9.7 58.8 9.7 58.8 Z M 93.1 118.8 C 93.7 118.9 93.6 118.8 93.7 118.8 C 95.5 119.5 98.2 119.9 96.0 119.8 C 98.1 120.0 99.9 120.6 101.6 120.9 C 103.1 121.2 102.4 120.8 103.5 121.0 C 105.4 121.3 102.5 121.0 102.9 121.1 C 103.2 121.4 103.8 121.0 106.0 121.5 C 105.5 121.0 107.9 121.8 107.3 121.3 C 108.5 121.6 108.9 121.5 110.5 121.7 C 110.4 121.5 108.8 121.3 108.7 121.2 C 107.9 120.8 107.8 121.3 109.3 121.4 C 108.4 121.5 106.2 120.9 105.5 121.0 C 104.7 120.6 107.5 121.2 106.8 120.8 C 106.2 120.8 105.6 120.7 105.5 120.8 C 104.6 120.6 104.0 120.4 103.6 120.3 C 104.2 120.3 104.2 120.4 104.2 120.4 C 105.4 120.6 103.1 119.9 105.6 120.2 C 105.2 120.1 104.1 119.9 104.3 119.8 C 103.6 119.5 104.2 120.5 101.8 119.8 C 100.1 119.8 105.6 120.7 104.2 120.9 C 100.7 120.3 102.7 120.3 99.9 119.8 C 99.9 119.9 99.9 120.0 99.2 119.9 C 99.3 120.0 100.3 120.2 101.1 120.3 C 100.9 120.4 99.9 120.2 99.2 120.1 C 99.3 120.1 99.8 120.2 99.8 120.3 C 97.5 119.8 97.8 119.4 99.9 119.6 C 99.9 119.4 97.0 118.9 96.2 118.9 C 97.0 119.2 96.1 119.0 96.7 119.4 C 97.3 119.5 97.2 119.4 97.4 119.4 C 98.5 119.6 97.5 119.5 97.4 119.6 C 96.1 119.3 96.2 119.1 94.9 119.1 C 95.3 119.1 95.6 119.1 95.6 118.9 C 95.0 118.8 94.3 118.7 93.7 118.6 C 93.8 118.8 93.0 118.6 93.1 118.8 C 93.1 118.8 93.1 118.8 93.1 118.8 Z M 126.0 123.9 C 128.1 124.1 127.0 123.8 126.0 123.7 C 126.4 123.7 127.2 123.7 128.0 123.7 C 127.4 123.6 126.8 123.6 124.7 123.4 C 126.6 123.2 124.7 122.6 121.5 122.3 C 120.5 122.7 123.2 123.0 122.1 123.2 C 124.5 123.3 125.8 123.5 126.0 123.9 C 126.0 123.9 126.0 123.9 126.0 123.9 Z M 20.9 43.4 C 20.0 44.2 19.1 45.1 18.2 45.9 C 18.5 46.0 21.4 43.5 20.9 43.4 C 20.9 43.4 20.9 43.4 20.9 43.4 Z M 107.3 12.6 C 107.8 12.5 107.9 12.6 108.0 12.6 C 109.8 12.3 107.1 12.5 107.9 12.2 C 107.2 12.3 106.6 12.4 106.0 12.5 C 105.9 12.6 108.6 12.4 106.7 12.7 C 106.8 12.8 107.3 12.7 107.3 12.6 C 107.3 12.6 107.3 12.6 107.3 12.6 Z M 8.7 63.5 C 8.6 64.3 8.9 63.8 8.7 65.8 C 9.0 65.1 8.9 64.7 9.0 63.5 C 8.9 63.5 8.8 63.5 8.7 63.5 C 8.7 63.5 8.7 63.5 8.7 63.5 Z M 83.9 117.4 C 85.4 117.9 85.9 117.5 88.8 118.2 C 87.4 117.6 85.6 117.7 83.9 117.4 C 83.9 117.4 83.9 117.4 83.9 117.4 Z M 191.6 123.3 C 190.6 123.3 191.8 123.2 190.2 123.2 C 189.3 123.4 189.0 123.5 187.6 123.6 C 189.5 123.8 192.8 123.2 194.2 123.5 C 195.8 123.3 195.6 123.1 196.1 122.9 C 195.3 122.9 194.9 122.9 194.8 122.9 C 193.9 123.3 192.7 122.9 191.6 123.3 C 191.6 123.3 191.6 123.3 191.6 123.3 Z M 117.6 122.7 C 116.4 122.4 118.4 122.5 118.9 122.4 C 119.8 122.5 119.4 122.7 119.6 122.8 C 120.7 122.9 121.0 122.8 120.9 122.6 C 118.7 122.3 116.1 122.0 117.7 121.9 C 115.6 121.6 116.7 122.0 115.7 122.0 C 114.6 121.7 115.7 121.7 115.8 121.5 C 115.3 121.5 113.7 121.6 113.8 121.3 C 110.7 121.2 112.0 121.8 114.3 122.4 C 116.4 122.4 114.0 122.1 117.6 122.7 C 117.6 122.7 117.6 122.7 117.6 122.7 Z M 39.1 101.8 C 39.3 102.0 40.6 102.6 40.5 102.7 C 42.2 103.3 43.8 103.7 45.4 104.2 C 45.2 103.8 43.0 103.1 43.8 103.6 C 43.2 103.2 41.8 102.4 41.0 101.9 C 39.5 101.1 38.8 101.3 38.7 100.8 C 37.3 100.2 38.1 100.7 35.9 99.4 C 39.2 101.5 34.7 98.9 34.4 99.0 C 36.3 100.1 38.1 101.1 37.9 100.7 C 39.4 101.6 41.1 102.5 41.4 102.8 C 41.2 102.9 40.0 102.2 39.1 101.8 C 39.1 101.8 39.1 101.8 39.1 101.8 Z M 48.7 105.4 C 48.0 105.2 47.4 105.0 46.3 104.5 C 46.9 104.8 47.1 105.0 46.9 105.1 C 49.0 106.0 49.5 106.0 50.2 106.5 C 52.2 107.4 49.8 106.0 52.9 107.3 C 52.6 107.2 51.1 106.6 51.2 106.5 C 50.9 106.6 49.6 106.1 48.7 105.4 C 48.7 105.4 48.7 105.4 48.7 105.4 Z M 66.9 112.3 C 68.3 112.7 66.2 112.0 67.0 112.0 C 66.6 111.9 63.9 111.0 64.3 111.0 C 63.6 110.4 60.7 110.1 61.1 109.8 C 60.5 109.6 60.6 109.8 60.5 109.9 C 62.4 110.5 62.3 110.6 61.0 110.2 C 61.1 110.4 62.3 110.7 63.1 111.0 C 63.2 110.9 62.5 110.6 62.7 110.5 C 64.2 111.2 65.4 111.7 66.9 112.3 C 66.9 112.3 66.9 112.3 66.9 112.3 Z M 179.0 10.1 C 177.4 10.0 176.4 10.0 175.7 10.0 C 176.1 10.2 176.9 10.1 177.7 10.1 C 177.9 10.2 177.1 10.2 176.3 10.2 C 177.1 10.4 179.8 10.4 179.0 10.1 C 179.0 10.1 179.0 10.1 179.0 10.1 Z M 165.7 9.6 C 164.2 9.6 163.2 9.6 163.0 9.8 C 163.6 9.9 163.4 9.7 164.4 9.7 C 165.0 9.8 165.4 9.9 165.7 10.0 C 166.3 10.0 166.2 9.9 166.4 9.8 C 166.9 9.8 167.0 9.8 167.1 9.9 C 168.9 9.7 164.9 9.9 165.7 9.6 C 165.7 9.6 165.7 9.6 165.7 9.6 Z M 57.8 109.2 C 57.4 109.0 57.1 108.7 55.8 108.3 C 56.0 108.5 55.0 108.1 54.2 107.8 C 55.3 108.5 55.9 108.6 57.8 109.2 C 57.8 109.2 57.8 109.2 57.8 109.2 Z M 85.3 17.2 C 83.4 17.3 83.7 17.7 81.1 18.1 C 81.1 18.2 81.1 18.2 81.2 18.3 C 82.7 17.8 83.4 17.8 85.3 17.2 C 85.3 17.2 85.3 17.2 85.3 17.2 Z M 306.8 77.9 C 306.7 77.6 306.1 79.0 305.9 79.1 C 306.1 79.5 305.3 79.8 303.6 82.4 C 303.4 82.4 303.5 82.2 303.7 81.8 C 302.3 83.8 304.4 81.4 304.7 81.3 C 305.7 79.7 306.1 79.5 306.8 77.9 C 306.8 77.9 306.8 77.9 306.8 77.9 Z M 171.8 123.7 C 171.6 123.8 172.0 123.8 172.4 123.8 C 172.9 123.8 173.3 123.8 173.7 123.8 C 173.6 123.4 171.4 123.4 173.0 123.0 C 172.4 123.0 172.4 123.0 172.4 123.1 C 169.2 123.9 166.6 122.8 162.4 123.3 C 161.8 123.3 161.9 123.4 161.8 123.4 C 162.3 123.4 162.4 123.5 162.4 123.5 C 162.9 123.2 166.8 123.5 165.1 123.7 C 165.2 123.7 165.7 123.7 165.7 123.6 C 166.2 123.6 166.6 123.6 167.1 123.6 C 166.8 123.5 165.9 123.5 165.7 123.4 C 167.9 123.5 170.5 123.5 169.1 123.8 C 170.4 123.8 170.8 123.6 171.7 123.5 C 172.6 123.5 172.6 123.7 171.8 123.7 C 171.8 123.7 171.8 123.7 171.8 123.7 Z M 188.8 122.8 C 190.9 122.7 190.1 122.4 192.1 122.3 C 190.9 122.2 189.3 122.7 187.6 122.6 C 187.8 122.7 188.7 122.6 188.8 122.8 C 188.8 122.8 188.8 122.8 188.8 122.8 Z M 150.5 123.4 C 150.9 123.2 149.1 123.1 147.2 123.0 C 146.8 123.3 148.5 123.4 150.5 123.4 C 150.5 123.4 150.5 123.4 150.5 123.4 Z M 159.1 123.5 C 161.1 123.4 156.7 123.5 157.8 123.2 C 156.9 123.2 155.9 123.2 155.8 123.1 C 155.1 123.2 155.1 123.3 153.8 123.3 C 153.9 123.4 156.0 123.3 155.8 123.5 C 157.3 123.4 157.6 123.4 159.1 123.5 C 159.1 123.5 159.1 123.5 159.1 123.5 Z M 160.4 123.5 C 161.7 123.4 160.1 123.0 158.5 123.0 C 159.1 123.2 159.4 123.4 160.4 123.5 C 160.4 123.5 160.4 123.5 160.4 123.5 Z M 17.3 84.3 C 17.8 84.9 17.5 84.3 18.1 85.0 C 18.2 84.9 16.1 82.5 17.9 84.5 C 17.5 83.5 16.8 83.4 16.1 82.4 C 16.3 82.8 16.4 83.1 16.0 82.5 C 15.6 82.4 17.7 84.5 17.3 84.3 C 17.3 84.3 17.3 84.3 17.3 84.3 Z M 19.5 86.8 C 20.0 87.3 19.8 87.0 19.6 86.7 C 19.7 86.8 20.4 87.5 20.9 87.9 C 20.9 88.0 20.2 86.8 20.4 86.7 C 18.2 84.8 19.6 86.5 19.5 86.8 C 19.5 86.8 19.5 86.8 19.5 86.8 Z M 21.7 88.7 C 23.1 90.2 25.4 92.0 26.7 92.6 C 25.7 91.4 22.6 89.1 21.7 88.7 C 21.7 88.7 21.7 88.7 21.7 88.7 Z M 11.8 74.9 C 12.5 77.6 15.6 82.3 13.4 77.8 C 13.4 78.0 11.8 75.1 11.5 73.6 C 11.4 73.6 10.7 72.0 10.9 71.9 C 10.4 70.8 11.8 75.6 11.8 74.9 C 11.8 74.9 11.8 74.9 11.8 74.9 Z M 29.2 93.8 C 28.2 93.3 29.1 94.4 27.8 93.3 C 27.0 92.8 28.0 93.6 27.7 93.5 C 29.4 94.7 33.4 96.9 33.6 97.4 C 34.7 97.9 35.0 97.9 37.0 99.0 C 37.1 98.9 30.1 95.2 29.1 93.9 C 29.3 93.9 31.5 95.4 29.2 93.8 C 29.2 93.8 29.2 93.8 29.2 93.8 Z M 85.6 18.6 C 85.7 18.3 83.2 19.0 83.7 18.6 C 82.5 19.2 81.2 19.3 79.7 19.9 C 79.3 19.9 79.3 19.5 77.3 20.0 C 77.3 20.2 78.3 19.9 77.4 20.3 C 75.6 20.8 76.0 20.4 73.9 21.0 C 74.3 21.3 69.6 22.3 70.1 22.6 C 71.2 22.2 71.1 22.1 72.9 21.6 C 73.5 21.5 73.3 21.7 74.0 21.5 C 73.5 21.9 72.5 21.8 71.8 22.2 C 72.0 22.3 73.4 21.9 73.6 22.0 C 74.4 21.8 73.3 22.0 73.5 21.8 C 75.7 21.2 73.5 22.4 75.9 21.7 C 75.3 21.6 75.3 21.6 75.8 21.2 C 76.8 21.1 79.7 20.2 78.1 20.9 C 78.3 21.0 80.1 20.3 79.8 20.2 C 80.8 19.9 80.9 20.0 81.0 20.1 C 83.4 19.4 83.8 19.1 83.2 19.0 C 83.7 18.7 84.1 19.0 85.6 18.6 C 85.6 18.6 85.6 18.6 85.6 18.6 Z M 11.2 61.2 C 11.3 60.2 10.9 62.3 10.7 63.3 C 10.9 62.1 11.2 62.6 11.6 61.3 C 11.3 61.7 11.3 61.6 11.5 60.8 C 11.5 60.6 10.9 62.4 11.2 61.2 C 11.2 61.2 11.2 61.2 11.2 61.2 Z M 41.3 101.2 C 42.0 101.8 46.0 103.4 48.2 104.4 C 47.9 103.9 42.5 102.1 42.1 101.4 C 40.9 100.9 42.6 101.9 41.3 101.2 C 41.3 101.2 41.3 101.2 41.3 101.2 Z M 63.9 23.9 C 63.4 24.1 63.7 24.1 64.0 24.0 C 63.8 24.1 62.7 24.5 61.8 24.8 C 63.1 24.5 61.7 25.1 62.0 25.2 C 61.4 25.4 61.1 25.5 61.0 25.6 C 60.8 25.2 57.7 27.0 61.1 25.9 C 60.4 25.9 60.7 25.8 62.0 25.3 C 63.6 25.0 64.7 24.4 65.3 24.5 C 66.3 24.1 66.6 23.9 68.0 23.5 C 68.4 23.6 69.6 23.4 68.7 24.0 C 71.1 23.3 69.3 23.2 71.3 22.6 C 73.3 22.2 70.4 23.1 70.9 23.2 C 71.4 23.0 71.3 23.2 71.5 23.2 C 72.2 23.0 72.1 22.8 71.4 22.9 C 71.6 22.8 73.5 22.1 73.1 22.5 C 74.2 22.1 71.1 22.2 69.6 23.0 C 68.7 23.3 68.6 22.8 69.5 22.6 C 69.1 22.5 67.5 23.5 67.8 22.9 C 67.1 23.1 66.4 23.3 65.6 23.6 C 65.7 23.6 66.2 23.5 66.2 23.6 C 65.5 23.8 64.8 24.0 64.0 24.2 C 64.6 23.9 64.6 23.8 63.9 23.9 C 63.9 23.9 63.9 23.9 63.9 23.9 Z M 32.5 96.3 C 34.1 97.3 34.5 97.4 35.8 98.1 C 35.4 97.6 31.9 95.7 32.5 96.3 C 32.5 96.3 32.5 96.3 32.5 96.3 Z M 96.0 17.3 C 95.8 17.2 94.7 17.4 94.7 17.3 C 96.6 16.9 94.4 17.2 95.8 16.5 C 93.4 17.1 92.7 17.8 96.0 17.4 C 98.4 16.9 93.5 17.7 96.0 17.3 C 96.0 17.3 96.0 17.3 96.0 17.3 Z M 88.6 18.5 C 87.2 18.9 90.9 18.3 91.7 18.2 C 91.7 18.3 91.8 18.4 91.8 18.4 C 93.8 17.7 91.0 18.1 92.8 17.3 C 90.4 17.6 89.4 17.7 87.4 18.3 C 87.5 18.3 88.0 18.2 88.0 18.1 C 89.5 17.9 88.5 18.4 86.8 18.6 C 87.3 18.6 88.8 18.3 89.8 18.2 C 89.5 18.2 89.2 18.2 89.2 18.1 C 90.5 17.7 90.1 18.0 91.0 17.9 C 91.0 18.0 88.7 18.6 88.6 18.5 C 88.6 18.5 88.6 18.5 88.6 18.5 Z M 215.6 15.5 C 214.3 15.3 216.8 16.0 216.7 16.4 C 218.0 16.6 218.3 16.6 219.1 16.7 C 218.8 16.5 217.3 16.2 216.7 16.0 C 217.0 15.7 218.6 16.3 219.2 16.2 C 220.1 16.0 216.1 15.9 215.6 15.5 C 215.6 15.5 215.6 15.5 215.6 15.5 Z M 33.3 37.6 C 32.6 38.0 33.0 37.8 33.3 37.7 C 33.3 37.8 32.2 38.5 32.1 38.4 C 31.2 39.0 32.7 38.2 31.6 38.9 C 31.5 39.2 33.3 37.8 33.4 37.7 C 34.8 36.9 33.8 37.8 34.2 37.7 C 35.5 36.9 34.9 37.0 36.8 36.1 C 35.6 36.5 34.6 37.0 33.3 37.6 C 33.3 37.6 33.3 37.6 33.3 37.6 Z M 100.1 16.1 C 100.4 15.9 98.7 16.7 97.1 16.7 C 94.9 17.1 98.4 16.8 96.5 17.1 C 98.2 16.8 100.1 16.3 102.6 15.9 C 103.2 15.7 99.1 16.4 101.4 15.9 C 101.3 15.9 100.7 16.0 100.7 16.0 C 100.3 16.1 100.2 16.1 100.1 16.1 C 100.1 16.1 100.1 16.1 100.1 16.1 Z M 97.8 17.0 C 97.9 17.1 98.4 17.0 98.4 16.9 C 99.2 16.8 99.2 17.0 98.5 17.1 C 99.5 17.3 99.4 16.8 101.5 16.6 C 100.6 16.5 100.1 16.4 102.1 16.3 C 103.6 15.8 98.4 16.7 97.8 17.0 C 97.8 17.0 97.8 17.0 97.8 17.0 Z M 195.2 13.1 C 195.4 13.3 196.8 13.4 197.8 13.5 C 196.5 13.6 191.3 13.0 190.7 12.8 C 190.1 12.8 189.5 12.8 189.3 12.6 C 189.4 12.7 187.9 12.7 188.7 12.8 C 188.5 12.9 187.4 12.8 187.4 12.9 C 185.4 12.7 188.0 12.8 187.4 12.6 C 185.0 12.6 185.6 12.5 182.8 12.3 C 183.3 12.5 186.3 12.7 186.0 13.0 C 188.2 12.9 190.6 13.2 191.9 13.6 C 189.9 13.0 197.5 13.5 201.0 14.0 C 200.8 14.1 202.1 14.2 203.5 14.5 C 204.5 14.9 204.2 14.3 202.3 14.2 C 202.3 14.0 204.9 14.5 206.1 14.6 C 204.8 14.3 205.5 14.3 204.9 14.1 C 202.4 13.8 204.6 14.1 204.1 14.3 C 203.5 14.2 202.9 14.1 202.2 14.0 C 205.6 14.0 197.4 13.5 200.4 13.7 C 197.7 13.5 197.7 13.2 195.2 13.1 C 195.2 13.1 195.2 13.1 195.2 13.1 Z M 133.4 12.3 C 132.9 12.3 130.8 12.7 130.8 12.5 C 128.1 12.9 130.5 12.9 127.5 13.1 C 127.7 13.2 128.8 13.1 128.8 13.2 C 130.0 13.0 131.1 12.9 130.8 12.6 C 132.1 12.6 132.5 12.5 133.4 12.4 C 133.1 12.5 132.6 12.6 131.4 12.7 C 131.2 12.9 131.7 13.0 133.4 12.8 C 134.2 12.6 133.6 12.4 133.4 12.3 C 133.4 12.3 133.4 12.3 133.4 12.3 Z M 126.8 13.1 C 126.5 13.1 126.1 13.0 126.2 12.9 C 125.2 12.7 125.8 13.3 124.9 13.4 C 124.1 13.4 124.4 13.3 124.2 13.2 C 123.1 13.3 122.2 13.4 121.7 13.4 C 119.9 13.7 123.7 13.4 124.3 13.5 C 125.5 13.4 125.1 13.2 126.8 13.1 C 126.8 13.1 126.8 13.1 126.8 13.1 Z M 107.6 15.0 C 107.3 14.8 106.7 15.3 105.8 15.3 C 106.4 15.5 108.2 15.1 107.1 15.6 C 108.9 15.4 109.0 15.4 110.9 15.0 C 112.1 15.1 110.9 14.8 109.0 15.2 C 109.2 15.1 110.0 14.9 110.2 14.8 C 111.4 15.1 114.6 14.0 112.7 14.6 C 112.1 14.6 111.7 14.5 111.4 14.5 C 111.0 14.8 106.7 15.2 107.6 15.0 C 107.6 15.0 107.6 15.0 107.6 15.0 Z M 48.5 30.5 C 50.1 29.8 50.9 29.4 51.8 29.1 C 52.6 28.8 53.8 28.3 54.9 28.0 C 54.9 28.0 54.8 28.1 54.4 28.3 C 54.9 28.2 55.5 27.9 56.4 27.6 C 56.3 27.5 55.9 27.7 55.9 27.8 C 54.2 28.2 55.6 27.7 55.8 27.4 C 53.7 27.9 50.7 29.6 49.2 29.9 C 48.0 30.4 49.5 29.9 48.5 30.5 C 48.5 30.5 48.5 30.5 48.5 30.5 Z M 305.8 75.3 C 305.7 75.6 305.4 76.3 305.6 76.2 C 305.9 75.6 306.0 75.1 306.2 74.5 C 305.7 75.7 305.5 75.4 304.7 76.8 C 305.1 76.4 305.3 76.6 305.8 75.3 C 305.8 75.3 305.8 75.3 305.8 75.3 Z M 114.0 14.3 C 114.1 14.4 114.1 14.5 113.4 14.6 C 113.2 14.8 115.2 14.4 115.3 14.6 C 116.0 14.5 115.7 14.4 116.6 14.3 C 116.2 14.2 114.6 14.4 115.2 14.1 C 115.8 14.0 115.8 14.1 115.9 14.1 C 117.2 13.8 115.2 14.0 114.0 14.3 C 114.0 14.3 114.0 14.3 114.0 14.3 Z M 221.7 16.7 C 220.8 16.6 221.6 16.9 222.3 17.0 C 220.5 16.9 223.3 17.6 223.4 17.8 C 222.6 17.5 220.2 17.2 219.8 17.0 C 219.0 17.0 219.8 17.3 217.9 17.0 C 218.1 17.3 220.2 17.5 219.7 17.2 C 220.2 17.6 222.4 17.6 222.1 17.9 C 224.9 18.4 225.5 18.3 225.8 18.1 C 223.2 17.7 224.6 17.6 222.3 17.2 C 222.3 17.1 223.0 17.3 223.5 17.4 C 223.3 17.2 222.3 16.9 221.7 16.7 C 221.7 16.7 221.7 16.7 221.7 16.7 Z M 154.4 11.6 C 153.0 11.6 153.0 11.8 153.1 12.0 C 153.7 12.0 154.6 11.9 155.7 11.9 C 155.5 11.8 153.7 11.9 154.4 11.6 C 154.4 11.6 154.4 11.6 154.4 11.6 Z M 211.7 15.5 C 211.6 15.4 211.1 15.3 211.1 15.4 C 209.5 15.2 209.1 15.0 208.6 14.8 C 207.7 14.7 208.0 14.9 207.9 15.0 C 209.5 15.0 209.1 15.3 211.1 15.5 C 211.0 15.4 211.2 15.4 211.7 15.5 C 211.7 15.5 211.7 15.5 211.7 15.5 Z M 168.3 11.8 C 167.5 11.8 167.9 11.9 168.3 11.9 C 167.4 12.2 164.7 11.9 163.7 12.0 C 163.5 12.2 166.9 12.2 163.0 12.2 C 163.7 12.4 167.2 12.3 168.9 12.4 C 168.5 12.6 166.2 12.6 166.3 12.8 C 168.4 12.7 170.6 12.7 170.9 12.3 C 168.0 12.2 169.0 12.0 168.3 11.8 C 168.3 11.8 168.3 11.8 168.3 11.8 Z M 171.6 12.1 C 171.3 12.0 170.8 12.1 169.7 12.0 C 171.3 12.4 172.2 12.3 175.6 12.5 C 175.6 12.4 175.6 12.4 175.6 12.3 C 176.2 12.3 176.9 12.4 177.6 12.4 C 174.7 12.0 174.0 12.2 170.9 12.2 C 170.8 12.1 171.2 12.1 171.6 12.1 C 171.6 12.1 171.6 12.1 171.6 12.1 Z M 85.7 19.3 C 86.5 19.2 87.3 19.2 88.7 19.0 C 88.6 18.8 87.7 18.8 85.7 19.3 C 85.7 19.3 85.7 19.3 85.7 19.3 Z M 214.2 16.0 C 215.9 16.1 212.5 15.7 213.5 16.1 C 214.9 16.4 216.3 16.7 216.6 17.0 C 219.1 17.1 213.8 16.3 214.2 16.0 C 214.2 16.0 214.2 16.0 214.2 16.0 Z M 202.8 15.1 C 202.1 14.9 202.1 14.6 202.8 14.9 C 204.6 15.1 201.3 14.5 204.1 14.9 C 202.9 14.6 200.2 14.2 199.0 14.2 C 199.0 14.4 201.5 14.6 201.5 14.8 C 201.6 14.9 201.2 14.9 200.9 14.8 C 201.1 15.0 201.7 14.9 202.8 15.1 C 202.8 15.1 202.8 15.1 202.8 15.1 Z M 193.2 13.7 C 194.3 13.9 195.5 14.1 197.7 14.4 C 196.3 14.0 195.5 13.7 193.2 13.7 C 193.2 13.7 193.2 13.7 193.2 13.7 Z M 302.4 54.1 C 301.8 53.1 302.1 54.1 302.2 54.3 C 302.8 55.2 302.9 55.1 303.5 56.2 C 303.5 55.7 302.6 54.9 302.4 54.1 C 302.4 54.1 302.4 54.1 302.4 54.1 Z M 304.3 57.7 C 304.2 57.9 304.9 59.2 304.8 59.4 C 305.6 60.0 305.2 61.5 305.6 61.3 C 305.6 61.6 305.6 61.9 305.8 62.5 C 305.9 61.3 304.9 58.9 304.3 57.7 C 304.3 57.7 304.3 57.7 304.3 57.7 Z M 182.1 13.4 C 180.3 13.2 182.5 13.8 180.8 13.6 C 180.6 13.7 184.1 14.0 182.0 13.9 C 184.7 14.2 181.9 13.4 182.1 13.4 C 182.1 13.4 182.1 13.4 182.1 13.4 Z M 149.8 13.1 C 150.0 12.9 147.5 13.1 146.6 13.1 C 146.6 13.2 147.3 13.1 147.8 13.1 C 147.6 13.2 147.3 13.3 146.6 13.3 C 147.1 13.5 148.9 13.1 149.8 13.1 C 149.8 13.1 149.8 13.1 149.8 13.1 Z M 185.6 9.4 C 186.7 9.7 188.1 10.0 188.9 9.7 C 190.1 10.0 188.1 9.9 189.5 10.2 C 191.4 10.2 190.5 10.4 193.5 10.5 C 192.9 10.8 195.0 10.9 195.4 11.2 C 194.2 11.1 192.7 10.7 192.1 10.9 C 193.1 10.9 192.5 11.1 192.1 10.9 C 190.1 10.6 194.5 10.8 192.1 10.5 C 191.4 10.7 187.9 9.9 185.6 9.7 C 186.5 9.6 183.9 9.3 185.6 9.4 C 185.6 9.4 185.6 9.4 185.6 9.4 Z M 197.3 10.9 C 198.9 11.0 199.7 11.6 199.3 11.5 C 199.3 11.4 197.5 11.2 197.3 11.3 C 197.7 11.4 198.1 11.4 198.0 11.5 C 195.1 11.2 196.1 11.1 195.4 10.8 C 197.0 10.9 197.5 11.1 198.0 11.0 C 197.7 11.0 197.3 10.9 197.3 10.9 C 197.3 10.9 197.3 10.9 197.3 10.9 Z M 229.9 19.7 C 229.6 19.5 229.2 19.6 228.6 19.6 C 228.6 19.2 225.5 19.1 225.1 18.8 C 225.8 18.8 227.4 19.1 228.1 19.1 C 227.3 18.9 227.1 18.8 226.3 18.8 C 226.5 18.6 228.3 18.9 228.8 18.9 C 228.9 19.0 229.8 19.0 230.0 19.2 C 227.6 18.8 231.2 20.0 229.9 19.7 C 229.9 19.7 229.9 19.7 229.9 19.7 Z M 167.0 13.1 C 166.7 13.3 169.5 14.0 167.0 14.2 C 166.4 14.0 166.1 13.8 166.3 13.5 C 164.7 13.6 164.0 13.4 163.0 13.6 C 160.0 12.9 165.3 13.7 167.0 13.1 C 167.0 13.1 167.0 13.1 167.0 13.1 Z M 156.4 13.3 C 157.0 13.0 155.5 13.1 155.7 12.9 C 157.0 13.0 161.1 12.8 159.7 12.9 C 158.4 13.0 158.4 13.3 156.4 13.3 C 156.4 13.3 156.4 13.3 156.4 13.3 Z M 77.4 113.6 C 75.6 113.3 74.7 112.6 75.8 112.7 C 75.3 112.9 78.1 113.4 77.4 113.6 C 77.4 113.6 77.4 113.6 77.4 113.6 Z M 10.6 80.4 C 11.2 81.9 11.9 82.6 11.8 82.9 C 10.9 81.6 11.1 81.6 10.5 80.5 C 10.3 80.4 9.9 79.8 9.9 79.6 C 10.2 80.3 10.3 80.0 10.6 80.4 C 10.6 80.4 10.6 80.4 10.6 80.4 Z M 116.1 10.0 C 115.9 9.9 115.1 9.9 115.4 9.7 C 117.4 9.6 119.6 9.2 121.2 8.9 C 121.2 9.0 121.2 9.1 121.2 9.2 C 118.1 9.4 117.3 9.7 116.1 10.0 C 116.1 10.0 116.1 10.0 116.1 10.0 Z M 112.1 10.0 C 111.8 10.1 112.9 10.3 111.5 10.4 C 111.6 10.3 109.1 10.3 110.2 10.1 C 110.6 10.2 111.3 10.2 112.1 10.0 C 112.1 10.0 112.1 10.0 112.1 10.0 Z M 222.2 13.6 C 223.7 13.8 221.6 13.2 221.7 13.1 C 222.7 13.4 224.3 13.6 224.7 13.8 C 223.6 13.6 222.8 13.9 222.2 13.6 C 222.2 13.6 222.2 13.6 222.2 13.6 Z M 198.7 10.9 C 195.3 10.6 196.8 10.3 193.5 9.9 C 194.9 9.9 197.9 10.2 198.8 10.1 C 198.6 10.3 199.4 10.4 199.4 10.5 C 198.2 10.4 198.0 10.3 196.8 10.2 C 197.2 10.4 197.2 10.4 196.7 10.6 C 197.6 10.6 198.2 10.7 198.7 10.7 C 198.4 10.8 199.6 11.0 198.7 10.9 C 198.7 10.9 198.7 10.9 198.7 10.9 Z M 221.5 14.1 C 222.8 14.2 223.8 14.8 222.7 14.5 C 222.6 14.4 221.7 14.4 221.5 14.2 C 223.3 14.5 220.0 13.9 220.9 13.8 C 222.0 14.0 222.4 14.0 222.2 13.8 C 222.9 13.9 224.0 14.1 224.0 14.2 C 223.5 14.1 222.8 14.0 222.8 14.1 C 223.2 14.1 223.5 14.2 223.4 14.3 C 222.3 14.1 221.8 14.0 221.5 14.1 C 221.5 14.1 221.5 14.1 221.5 14.1 Z M 212.8 12.7 C 214.5 13.0 214.7 13.2 215.2 13.5 C 212.9 13.1 212.6 12.7 210.9 12.3 C 212.8 12.6 214.7 12.6 215.3 12.9 C 214.5 12.8 212.9 12.6 212.8 12.7 C 212.8 12.7 212.8 12.7 212.8 12.7 Z M 242.4 115.0 C 241.0 115.2 239.8 115.3 238.3 115.5 C 237.8 115.9 240.8 115.7 239.6 115.8 C 238.0 116.2 239.0 115.7 237.7 115.9 C 239.0 116.0 232.2 117.5 231.8 117.2 C 232.9 117.0 233.2 116.9 232.9 116.7 C 235.7 116.2 236.8 115.7 238.8 115.2 C 240.3 115.1 244.6 114.1 246.8 113.2 C 248.4 113.3 250.9 112.0 253.0 111.8 C 253.5 111.5 251.3 112.0 252.9 111.5 C 254.1 111.4 253.3 111.7 254.7 111.4 C 254.8 111.3 254.4 111.2 255.2 110.9 C 255.1 111.1 256.0 110.8 256.3 110.8 C 253.4 111.7 256.6 111.1 254.3 111.9 C 253.3 112.1 255.2 111.2 252.5 112.0 C 251.6 112.4 250.7 112.7 251.0 112.9 C 250.2 113.1 249.8 113.3 249.3 113.4 C 250.2 112.9 245.5 114.6 247.6 113.7 C 247.8 113.6 249.3 113.2 250.3 112.8 C 249.3 112.8 248.1 113.3 246.4 113.9 C 245.6 113.9 246.7 113.6 245.8 113.7 C 244.4 114.3 246.4 114.0 245.3 114.4 C 245.8 114.3 246.5 114.1 246.5 114.1 C 244.0 114.5 243.1 115.0 241.9 115.3 C 242.7 115.0 240.4 115.5 242.4 115.0 C 242.4 115.0 242.4 115.0 242.4 115.0 Z M 262.1 108.7 C 262.6 108.5 263.1 108.3 263.7 108.1 C 263.9 108.3 261.9 109.1 263.3 108.8 C 261.0 109.6 263.3 108.5 262.1 108.7 C 262.1 108.7 262.1 108.7 262.1 108.7 Z M 251.1 111.3 C 250.3 111.3 250.9 111.7 250.1 112.0 C 251.4 111.5 252.6 111.1 252.9 111.3 C 251.3 111.7 250.6 111.9 249.0 112.4 C 250.5 111.7 247.2 112.7 246.6 112.5 C 247.9 112.1 248.8 111.7 250.5 111.3 C 250.2 111.5 252.7 110.8 251.1 111.3 C 251.1 111.3 251.1 111.3 251.1 111.3 Z M 255.4 109.7 C 255.8 109.7 258.1 108.8 257.6 109.3 C 256.2 109.7 255.7 110.0 256.1 110.1 C 255.0 110.4 254.9 110.3 253.9 110.7 C 253.2 110.6 254.9 110.1 255.4 109.8 C 255.1 109.9 254.8 109.9 255.4 109.7 C 255.4 109.7 255.4 109.7 255.4 109.7 Z M 299.0 84.1 C 299.5 84.0 297.9 85.5 297.6 85.8 C 298.2 85.5 298.0 85.7 297.0 86.8 C 297.2 86.2 295.8 87.7 294.5 88.3 C 294.4 88.7 295.8 87.7 294.3 89.1 C 293.0 90.0 291.9 91.0 289.8 92.6 C 289.1 92.7 290.1 92.0 290.6 91.5 C 289.2 92.6 289.5 92.1 288.3 92.9 C 288.6 92.8 287.7 93.5 287.2 93.7 C 289.2 92.3 284.4 95.2 286.5 93.7 C 286.6 93.7 287.1 93.4 287.6 93.0 C 287.2 93.6 289.9 91.7 290.5 91.4 C 291.2 90.2 294.0 88.4 296.5 86.3 C 296.8 86.2 296.1 87.0 296.7 86.5 C 296.7 86.3 297.5 85.6 297.8 85.2 C 297.9 85.3 298.2 85.0 298.7 84.6 C 298.7 84.5 298.7 84.4 299.0 84.1 C 299.0 84.1 299.0 84.1 299.0 84.1 Z M 137.3 121.2 C 137.5 120.7 133.3 120.7 132.1 120.7 C 132.3 120.3 139.7 120.9 137.3 121.2 C 137.3 121.2 137.3 121.2 137.3 121.2 Z M 163.1 121.4 C 162.0 121.4 162.7 121.7 161.8 121.7 C 161.7 121.4 159.2 121.9 159.1 121.7 C 160.4 121.5 161.1 121.5 163.1 121.4 C 163.1 121.4 163.1 121.4 163.1 121.4 Z M 186.8 120.6 C 184.9 120.8 187.8 120.6 187.4 120.8 C 185.8 120.9 184.0 121.0 184.2 120.8 C 185.6 120.8 186.6 120.4 186.8 120.6 C 186.8 120.6 186.8 120.6 186.8 120.6 Z M 151.2 121.1 C 149.6 121.0 152.2 120.7 152.5 120.9 C 150.8 121.0 153.7 121.2 155.1 121.1 C 155.1 121.4 154.4 121.3 155.1 121.6 C 152.8 121.7 154.7 121.3 153.1 121.3 C 152.0 121.5 153.2 121.4 153.1 121.6 C 152.5 121.6 151.8 121.6 151.2 121.6 C 151.2 121.5 151.2 121.3 151.2 121.2 C 152.0 121.2 152.8 121.2 152.5 121.1 C 151.9 121.1 151.7 121.1 151.2 121.1 C 151.2 121.1 151.2 121.1 151.2 121.1 Z M 268.3 102.9 C 267.0 103.4 268.2 103.1 269.1 102.7 C 269.3 102.5 269.9 101.8 271.4 101.4 C 268.4 102.9 272.5 101.3 270.8 102.2 C 270.0 102.3 268.3 103.3 266.7 103.9 C 266.0 104.0 267.5 103.0 268.3 102.9 C 268.3 102.9 268.3 102.9 268.3 102.9 Z M 273.8 100.7 C 273.7 100.7 273.1 100.9 272.2 101.3 C 273.1 100.7 271.8 101.2 272.9 100.6 C 272.8 100.8 276.8 99.0 274.5 100.2 C 272.4 101.0 275.1 100.0 276.1 99.6 C 275.1 100.1 273.4 101.2 273.1 101.1 C 273.6 100.9 274.0 100.7 273.8 100.7 C 273.8 100.7 273.8 100.7 273.8 100.7 Z M 303.9 75.9 C 303.8 75.7 303.5 76.4 303.3 76.6 C 304.4 74.7 304.9 73.0 305.2 72.0 C 305.0 72.9 305.2 73.0 305.4 72.5 C 305.0 73.4 305.1 73.7 304.8 74.0 C 305.0 73.1 304.5 74.7 303.9 75.9 C 303.9 75.9 303.9 75.9 303.9 75.9 Z M 303.9 75.9 " fill="#000000"></path><image xlink:href="../../CEFA4209-80C9-472B-8D2B-058B96531B72/assets/431BD2BFE54A6EFCB4B133EE2A4ED9FC.png" width="209.00" height="56.00" transform="matrix(1.00, 0.00, -0.00, -1.00, 57.0, 85.0)"></image><g><clipPath id="clip-308"><path d="M 10.3 10.7 L 308.5 10.7 L 308.5 123.2 L 10.3 123.2 Z M 10.3 10.7 "></path></clipPath><g clip-path="url(#clip-308)"><text xml:space="preserve" font-family="Chalkduster" font-size="32.0" fill="#000000" transform="matrix(1.00, 0.00, -0.00, -1.00, 60.0, 53.0)">L</text><text xml:space="preserve" font-family="Chalkduster" font-size="32.0" fill="#000000" transform="matrix(1.00, 0.00, -0.00, -1.00, 80.3, 53.0)">i</text><text xml:space="preserve" font-family="Chalkduster" font-size="32.0" fill="#000000" transform="matrix(1.00, 0.00, -0.00, -1.00, 92.9, 53.0)">n</text><text xml:space="preserve" font-family="Chalkduster" font-size="32.0" fill="#000000" transform="matrix(1.00, 0.00, -0.00, -1.00, 116.4, 53.0)">k</text><text xml:space="preserve" font-family="Chalkduster" font-size="32.0" fill="#000000" transform="matrix(1.00, 0.00, -0.00, -1.00, 141.3, 53.0)"> </text><text xml:space="preserve" font-family="Chalkduster" font-size="32.0" fill="#000000" transform="matrix(1.00, 0.00, -0.00, -1.00, 157.2, 53.0)">S</text><text xml:space="preserve" font-family="Chalkduster" font-size="32.0" fill="#000000" transform="matrix(1.00, 0.00, -0.00, -1.00, 173.1, 53.0)">p</text><text xml:space="preserve" font-family="Chalkduster" font-size="32.0" fill="#000000" transform="matrix(1.00, 0.00, -0.00, -1.00, 193.2, 53.0)">e</text><text xml:space="preserve" font-family="Chalkduster" font-size="32.0" fill="#000000" transform="matrix(1.00, 0.00, -0.00, -1.00, 213.1, 53.0)">e</text><text xml:space="preserve" font-family="Chalkduster" font-size="32.0" fill="#000000" transform="matrix(1.00, 0.00, -0.00, -1.00, 233.9, 53.0)">d</text></g></g></g></svg>