<?xml version="1.0" encoding="UTF-8" standalone="no"?><svg xmlns="http://www.w3.org/2000/svg" xmlns:xlink="http://www.w3.org/1999/xlink" clip-rule="evenodd" stroke-miterlimit="4.00" viewBox="0 0 309 111"><desc>SVG generated by Keynote</desc><defs></defs><g transform="matrix(1.00, 0.00, -0.00, -1.00, 0.0, 111.0)"><g><clipPath id="clip-725"><path d="M 260.0 90.8 C 318.3 71.3 318.3 39.6 260.0 20.1 C 201.8 0.6 107.4 0.6 49.2 20.1 C -9.0 39.6 -9.0 71.3 49.2 90.8 C 107.4 110.3 201.8 110.3 260.0 90.8 Z M 260.0 90.8 "></path></clipPath><g clip-path="url(#clip-725)"><image xlink:href="../../CEFA4209-80C9-472B-8D2B-058B96531B72/assets/59DBD66EA15A3D40E065F836EF2595FD.jpeg" width="400.00" height="400.00" transform="matrix(1.00, 0.00, -0.00, -1.00, 5.5, 105.5)"></image></g></g><path d="M 76.4 8.9 C 76.0 9.1 75.5 9.2 74.7 9.4 C 75.1 9.4 75.4 9.4 75.3 9.5 C 76.0 9.3 76.9 9.0 78.3 8.8 C 78.2 8.7 77.5 8.9 77.1 9.0 C 76.5 9.1 76.6 9.0 76.4 8.9 C 76.4 8.9 76.4 8.9 76.4 8.9 Z M 67.9 99.6 C 66.8 99.3 68.0 99.8 68.4 99.9 C 68.5 99.9 68.6 99.9 69.0 100.0 C 69.1 100.2 68.1 100.0 67.3 99.9 C 64.2 99.0 66.6 99.2 67.9 99.6 C 67.9 99.6 67.9 99.6 67.9 99.6 Z M 236.1 100.6 C 238.6 100.0 235.9 100.4 235.5 100.4 C 236.6 100.1 235.6 99.9 237.1 99.5 C 237.4 99.6 238.0 99.5 238.3 99.6 C 237.6 99.8 236.7 99.9 236.6 100.1 C 237.5 99.9 238.7 99.6 238.9 99.6 C 237.0 100.1 238.6 99.9 239.0 100.0 C 237.2 100.4 236.7 100.7 236.1 100.6 C 236.1 100.6 236.1 100.6 236.1 100.6 Z M 276.5 23.7 C 277.5 24.2 278.2 24.5 278.0 24.6 C 277.0 24.1 276.4 23.8 275.8 23.5 C 275.6 23.5 275.8 23.7 275.0 23.3 C 274.0 22.7 274.7 22.7 275.2 22.8 C 275.2 23.0 278.6 24.4 276.5 23.7 C 276.5 23.7 276.5 23.7 276.5 23.7 Z M 207.2 6.4 C 204.8 6.0 207.0 6.7 204.6 6.3 C 204.7 6.1 204.4 5.8 206.0 6.0 C 206.1 6.1 207.0 6.2 207.2 6.4 C 207.2 6.4 207.2 6.4 207.2 6.4 Z M 165.4 106.6 C 165.4 106.8 167.2 106.7 166.7 106.9 C 165.8 107.0 165.0 107.0 164.1 107.0 C 163.9 106.8 164.2 106.7 165.4 106.6 C 165.4 106.6 165.4 106.6 165.4 106.6 Z M 252.1 94.2 C 254.6 93.7 257.0 92.6 256.3 93.0 C 257.3 93.0 254.8 94.2 254.9 93.9 C 254.5 93.7 250.2 94.7 252.1 94.2 C 252.1 94.2 252.1 94.2 252.1 94.2 Z M 82.0 98.3 C 84.8 99.0 84.3 98.2 86.1 98.9 C 85.5 98.8 85.2 98.8 84.9 98.8 C 85.4 98.9 86.1 99.0 86.1 99.1 C 84.7 98.9 83.1 98.7 82.0 98.3 C 82.0 98.3 82.0 98.3 82.0 98.3 Z M 118.4 3.6 C 118.9 3.6 119.2 3.5 119.1 3.4 C 121.1 3.3 121.0 3.1 122.3 3.2 C 122.4 3.5 120.7 3.5 119.1 3.6 C 119.1 3.6 118.6 3.7 118.4 3.6 C 118.4 3.6 118.4 3.6 118.4 3.6 Z M 175.9 3.5 C 175.9 3.3 174.7 3.2 176.6 3.2 C 178.7 3.6 176.8 3.8 174.6 3.8 C 174.6 3.9 174.6 4.0 174.5 4.1 C 175.4 4.1 176.0 4.2 176.5 4.3 C 176.9 3.9 178.3 4.7 181.7 4.6 C 180.1 4.7 181.8 5.1 179.7 4.9 C 180.3 5.1 178.8 5.0 179.1 5.2 C 179.9 5.1 182.1 5.3 181.7 5.0 C 182.8 5.0 183.7 5.1 184.2 5.2 C 185.0 5.5 182.2 5.1 183.0 5.5 C 183.6 5.5 183.7 5.6 184.2 5.6 C 184.3 5.5 184.1 5.4 184.9 5.4 C 186.9 5.7 184.5 5.7 187.4 5.9 C 187.6 5.8 186.7 5.7 186.8 5.6 C 188.1 5.5 188.0 5.7 189.4 5.7 C 189.6 5.8 188.4 5.8 189.3 5.9 C 190.2 5.6 192.0 6.4 193.8 6.2 C 192.6 5.6 194.1 6.3 195.8 6.0 C 196.1 6.2 194.9 6.4 196.4 6.5 C 195.9 5.9 201.6 6.6 197.1 5.6 C 199.5 5.9 200.3 5.5 198.4 5.2 C 202.6 5.8 201.3 5.3 202.9 5.5 C 204.5 5.7 202.0 5.5 202.8 5.8 C 201.1 5.6 201.5 5.8 200.3 5.5 C 200.3 5.6 200.0 5.6 199.6 5.7 C 201.4 5.7 203.3 6.3 202.1 6.4 C 201.2 6.3 202.1 6.1 200.9 6.0 C 201.3 6.4 199.7 5.8 199.6 6.0 C 200.4 6.4 197.9 6.4 200.2 6.7 C 200.2 6.6 200.2 6.4 200.2 6.3 C 200.8 6.4 201.5 6.4 202.1 6.5 C 202.6 6.8 202.2 6.9 202.7 7.0 C 203.7 7.2 204.3 7.2 204.6 7.1 C 203.3 6.9 201.8 6.5 204.0 6.7 C 203.1 7.1 206.9 7.2 205.2 7.3 C 207.5 7.7 208.7 7.5 208.9 7.8 C 210.1 7.9 209.3 7.6 210.8 7.8 C 213.0 8.3 212.7 7.9 215.7 8.6 C 216.1 8.2 216.0 8.7 216.9 8.9 C 216.9 8.7 216.9 8.6 217.0 8.5 C 218.0 8.8 220.4 9.3 222.9 9.5 C 223.6 9.7 223.1 9.8 224.7 10.1 C 226.5 10.0 228.5 10.8 230.6 10.8 C 230.7 11.1 232.2 11.3 232.9 11.4 C 233.2 11.6 232.1 11.7 233.4 11.9 C 234.3 11.9 232.8 11.5 234.6 11.8 C 234.4 12.0 236.4 11.9 236.4 12.2 C 235.8 12.2 235.2 12.1 234.6 12.1 C 235.4 12.2 235.1 12.3 235.7 12.5 C 235.7 12.1 237.0 12.7 237.4 12.9 C 237.4 12.7 237.6 12.6 238.1 12.7 C 239.0 12.9 239.8 13.1 240.3 13.1 C 241.6 13.5 239.6 13.1 240.8 13.5 C 241.6 13.0 242.6 14.0 245.3 14.2 C 245.9 14.6 246.9 15.0 248.5 15.4 C 248.7 15.3 247.0 14.9 246.9 14.8 C 249.3 15.4 246.6 14.5 248.1 14.9 C 251.4 15.9 253.6 16.5 256.9 17.8 C 256.9 17.6 259.6 18.3 259.5 18.4 C 259.2 18.3 259.5 18.5 260.1 18.7 C 260.6 19.0 262.2 19.6 263.1 19.9 C 263.8 19.7 266.7 20.4 266.9 20.3 C 267.5 20.7 267.4 20.7 267.6 21.2 C 270.6 22.5 272.2 22.8 273.8 23.9 C 273.8 23.7 275.1 24.2 276.2 24.6 C 275.8 24.7 275.1 24.5 274.5 24.4 C 276.0 25.0 276.1 25.2 277.4 25.8 C 278.9 25.8 280.5 27.5 281.7 27.4 C 283.6 28.4 283.1 28.5 284.8 29.4 C 284.8 29.3 285.0 29.3 285.5 29.5 C 284.4 28.9 283.5 28.6 283.0 28.1 C 285.6 29.4 278.6 24.9 282.9 26.9 C 282.9 27.1 282.5 27.0 283.3 27.5 C 285.7 28.7 284.4 27.7 283.5 27.2 C 285.1 28.0 286.6 29.0 285.6 28.0 C 289.1 30.0 286.8 28.9 287.9 29.7 C 293.8 33.2 299.8 38.1 303.1 44.1 C 303.5 44.1 304.9 47.4 305.1 48.5 C 305.9 50.1 306.3 52.0 306.1 52.5 C 306.4 52.8 306.1 54.7 306.4 54.8 C 306.3 54.1 306.4 53.6 306.5 54.3 C 306.5 56.9 305.7 60.6 305.4 62.1 C 304.8 62.9 304.2 64.5 303.8 65.6 C 303.6 65.7 304.0 64.8 303.6 65.5 C 303.6 65.8 302.4 68.1 301.9 68.5 C 302.4 67.9 302.6 67.0 301.9 67.9 C 302.1 68.0 301.2 69.1 301.6 69.0 C 300.5 70.3 299.9 71.2 298.8 72.2 C 299.6 71.3 300.0 70.7 300.0 70.4 C 299.4 71.3 298.9 71.9 298.2 72.4 C 298.6 72.5 297.2 73.6 295.9 75.0 C 295.5 75.2 295.1 75.4 293.9 76.4 C 293.4 77.0 295.9 75.0 294.6 76.2 C 294.5 76.1 293.1 77.1 293.6 77.0 C 291.9 78.2 291.0 79.1 289.4 79.9 C 291.4 78.7 289.7 79.4 289.2 79.7 C 288.8 80.0 288.1 80.4 288.1 80.5 C 288.2 80.5 289.2 79.9 289.3 79.9 C 287.9 80.7 287.7 81.3 287.1 81.4 C 287.7 81.0 287.8 80.8 287.0 81.3 C 287.0 81.7 282.4 84.0 283.9 83.0 C 284.0 83.1 285.7 82.1 285.8 81.9 C 285.2 82.1 282.7 83.7 283.2 83.1 C 284.7 82.3 284.6 82.5 286.3 81.4 C 286.4 81.2 287.3 80.5 287.9 80.0 C 285.3 81.7 284.8 82.3 284.3 82.2 C 283.1 83.0 284.0 82.8 281.8 83.9 C 278.8 85.4 281.2 83.9 280.3 84.2 C 277.6 85.7 278.6 85.6 279.9 85.2 C 277.7 86.3 277.1 86.8 274.2 88.0 C 274.3 87.8 274.6 87.5 275.6 87.0 C 275.7 87.1 278.1 86.1 277.8 86.1 C 277.4 85.9 275.5 86.6 272.3 87.9 C 273.2 87.9 273.3 87.7 270.0 89.1 C 270.7 89.2 268.4 89.6 268.4 89.9 C 268.6 89.9 269.8 89.4 270.9 89.0 C 270.9 89.1 270.5 89.4 269.4 89.9 C 268.7 90.1 268.2 90.4 266.1 91.1 C 265.8 91.0 267.3 90.4 267.6 90.1 C 266.5 90.6 266.2 90.8 265.1 91.2 C 264.0 91.4 264.0 91.0 263.9 90.7 C 265.3 90.1 267.3 89.4 265.6 89.8 C 270.5 88.0 265.5 90.2 267.4 89.6 C 269.3 88.5 268.4 89.4 271.4 88.1 C 272.3 87.7 272.6 87.5 272.9 87.2 C 272.7 87.3 270.9 87.8 272.8 86.9 C 273.3 86.9 274.4 86.5 275.9 85.9 C 275.9 85.8 272.8 87.1 275.8 85.7 C 277.3 85.0 276.2 85.9 278.1 84.9 C 278.1 84.9 278.6 84.6 278.7 84.5 C 275.9 85.9 279.2 84.0 277.2 84.8 C 279.7 83.5 277.8 84.9 279.4 84.1 C 279.4 83.9 282.0 82.8 281.9 82.5 C 281.1 83.2 279.1 84.1 279.2 83.8 C 281.0 82.9 288.3 78.4 285.7 80.5 C 286.7 79.7 291.2 76.2 290.9 76.6 C 289.6 77.5 289.7 77.6 289.6 77.9 C 292.1 75.9 293.4 75.1 295.4 72.8 C 293.0 75.0 294.6 73.0 292.9 74.1 C 292.2 74.7 291.2 75.5 291.0 75.7 C 291.5 75.7 292.6 74.7 292.9 74.2 C 293.1 74.4 293.2 74.5 293.3 74.7 C 290.2 77.0 288.4 78.4 286.6 79.4 C 288.1 78.5 283.6 80.9 285.3 79.8 C 286.1 79.5 287.9 78.4 289.3 77.5 C 289.3 77.4 289.2 77.3 289.2 77.3 C 289.8 76.8 290.6 76.2 290.6 76.1 C 288.9 77.5 287.6 78.0 286.4 79.0 C 286.3 79.0 286.3 78.9 286.3 78.9 C 286.0 79.1 285.6 79.3 285.7 79.2 C 286.4 78.7 287.3 78.2 287.3 78.0 C 285.9 78.9 285.5 78.9 283.7 79.9 C 284.0 79.4 281.5 80.5 284.0 78.9 C 284.5 78.9 285.9 78.1 285.9 78.3 C 286.7 77.9 288.0 77.0 288.6 76.4 C 287.8 76.7 286.4 77.6 286.2 77.4 C 287.3 76.7 288.1 76.0 288.8 75.7 C 286.8 77.4 290.1 75.1 291.1 74.7 C 290.8 74.8 290.2 75.1 289.9 75.2 C 291.5 74.0 292.3 73.6 292.1 73.2 C 293.8 71.7 293.6 72.2 294.6 71.2 C 293.7 71.6 295.2 70.4 294.3 70.8 C 296.0 69.1 295.0 70.6 295.6 70.0 C 296.1 69.4 296.1 69.3 296.5 68.7 C 297.4 68.1 298.6 66.5 299.0 66.5 C 299.4 65.8 299.6 65.7 300.0 65.0 C 300.0 64.8 300.1 64.5 300.2 64.2 C 300.3 64.1 300.7 63.6 300.7 63.4 C 299.4 65.2 299.7 64.6 298.1 66.4 C 298.1 66.6 297.9 66.9 298.3 66.6 C 297.3 68.0 296.9 68.3 295.8 69.4 C 295.5 69.4 295.1 69.4 294.1 70.7 C 294.2 70.2 293.9 70.5 294.3 70.0 C 294.9 69.5 295.7 68.8 296.5 68.1 C 296.5 67.9 296.3 68.0 296.6 67.6 C 297.0 67.3 297.5 66.7 297.8 66.2 C 297.9 66.2 297.8 66.4 297.7 66.7 C 299.1 64.9 298.4 65.4 299.3 64.1 C 299.1 64.2 298.5 65.1 298.8 64.3 C 299.5 63.1 299.7 62.9 300.1 62.3 C 300.1 62.1 300.0 62.2 300.1 61.8 C 300.6 61.1 299.7 64.0 300.7 62.5 C 300.5 62.3 301.2 60.9 301.4 60.7 C 301.4 61.3 300.8 62.0 300.9 62.2 C 302.2 59.4 301.6 62.3 302.4 59.4 C 302.3 59.4 302.2 59.3 302.1 59.3 C 301.8 60.5 301.6 60.4 301.4 60.3 C 301.0 61.3 300.6 61.5 300.4 62.4 C 300.1 61.9 300.7 61.6 301.1 60.6 C 300.9 60.6 300.5 61.4 300.3 61.5 C 301.4 59.3 301.1 58.8 301.7 56.7 C 301.4 57.2 301.7 55.5 301.5 55.6 C 301.5 57.5 300.8 56.7 300.7 56.9 C 300.6 58.1 301.1 57.6 301.1 58.4 C 300.8 58.7 300.7 58.5 300.4 58.2 C 300.7 57.2 300.6 57.4 300.6 56.6 C 300.8 55.9 301.3 55.3 301.4 56.3 C 301.4 56.1 301.2 54.7 301.4 54.6 C 301.5 55.9 301.5 54.5 301.7 55.3 C 301.8 54.2 301.3 52.4 301.1 51.1 C 301.0 51.2 300.8 50.8 300.7 50.8 C 301.3 52.1 300.9 52.4 301.0 53.6 C 300.9 53.1 300.8 53.4 300.7 53.7 C 300.7 52.5 300.4 51.9 300.3 51.0 C 300.2 51.0 300.2 51.0 300.1 51.0 C 299.8 49.6 299.8 49.8 299.1 48.7 C 299.0 48.2 299.7 48.7 300.0 48.7 C 299.6 48.2 298.6 46.2 299.0 47.5 C 298.3 46.3 298.8 46.4 297.9 45.2 C 297.7 45.3 298.5 46.4 297.9 46.2 C 297.1 45.1 297.9 45.6 297.0 44.8 C 297.1 44.6 297.3 44.5 296.5 43.5 C 296.9 44.3 296.3 43.5 296.0 43.3 C 296.4 43.7 296.6 44.2 296.7 44.4 C 295.4 42.7 295.1 42.3 293.6 40.9 C 294.3 41.3 293.6 40.4 294.6 41.3 C 293.6 40.5 292.6 39.2 291.9 38.8 C 292.5 39.4 293.5 40.3 293.7 40.8 C 290.8 38.0 288.6 36.8 285.1 34.1 C 285.7 34.5 286.6 35.1 286.7 35.1 C 286.3 34.8 285.6 34.4 285.7 34.3 C 287.0 35.2 288.1 36.0 288.8 36.4 C 289.8 37.2 288.1 36.1 289.1 36.9 C 289.4 36.9 291.2 38.5 290.7 37.7 C 288.9 36.5 287.2 35.1 286.5 34.2 C 284.4 33.3 286.2 34.4 283.9 33.5 C 284.0 33.5 283.5 33.1 282.9 32.7 C 283.4 33.4 280.7 31.6 280.4 31.5 C 281.5 31.9 285.5 34.0 283.7 32.6 C 284.2 33.7 279.0 29.8 279.9 30.8 C 277.2 29.4 278.3 29.7 276.6 29.1 C 276.6 29.0 276.8 29.0 276.0 28.6 C 275.2 28.2 274.9 28.2 274.5 28.1 C 278.7 30.2 277.3 29.9 279.7 31.2 C 279.3 31.0 278.9 30.8 279.0 30.9 C 279.0 31.0 278.9 31.0 278.3 30.7 C 278.3 30.3 276.3 29.7 275.8 29.2 C 276.6 29.6 277.3 29.9 277.1 29.7 C 273.8 28.1 274.7 28.1 269.4 25.8 C 271.0 26.6 268.9 25.8 267.0 25.0 C 264.3 24.0 265.5 24.0 262.1 22.8 C 262.2 23.2 261.3 22.8 259.8 22.3 C 258.3 21.7 257.7 21.4 256.4 21.2 C 256.7 21.0 253.6 19.9 252.9 20.0 C 252.8 19.9 251.6 19.5 250.8 19.3 C 250.7 19.1 251.6 19.3 250.9 19.1 C 250.2 18.9 250.8 19.4 249.8 19.1 C 248.7 18.7 249.0 18.5 247.2 18.1 C 247.1 18.3 248.1 18.5 247.2 18.4 C 245.7 17.9 244.3 17.5 245.5 18.1 C 243.2 17.6 244.5 17.4 242.3 16.9 C 242.9 17.2 242.9 17.2 241.7 17.0 C 241.0 16.6 240.9 16.5 240.7 16.3 C 240.0 16.4 240.2 16.5 238.5 16.0 C 238.4 16.1 238.4 16.2 238.4 16.3 C 237.6 16.1 236.4 15.9 236.2 15.7 C 237.7 16.1 237.3 15.8 237.9 15.8 C 236.4 15.5 233.5 14.6 235.7 15.3 C 233.5 15.0 234.6 14.9 232.9 14.6 C 233.9 15.1 232.9 14.6 231.1 14.3 C 231.2 14.7 230.0 14.1 228.8 13.9 C 229.0 14.1 228.7 14.2 227.6 14.0 C 227.7 13.9 227.0 13.7 225.9 13.5 C 225.9 13.7 228.3 14.2 225.9 13.8 C 224.7 13.5 224.8 13.2 223.0 12.8 C 222.6 12.5 224.6 13.0 224.2 12.7 C 222.7 12.6 222.3 12.4 220.1 12.0 C 220.9 12.5 215.6 11.8 218.1 12.5 C 217.4 12.3 216.3 12.5 215.7 12.2 C 216.6 12.2 215.1 11.8 215.2 11.8 C 214.1 11.6 211.7 11.1 211.6 11.3 C 213.9 11.6 213.9 11.8 214.5 12.1 C 211.2 11.7 208.2 11.2 208.5 11.0 C 208.5 11.1 208.0 11.0 207.8 11.1 C 209.1 11.2 209.8 11.7 208.4 11.5 C 208.7 11.3 207.7 11.1 206.7 10.9 C 206.6 11.1 202.1 10.2 202.9 10.7 C 204.7 10.7 206.1 11.3 204.7 11.2 C 203.6 10.9 201.1 10.5 201.7 10.3 C 201.0 10.3 200.4 10.3 199.8 10.4 C 199.2 10.5 200.6 10.6 200.4 10.8 C 199.5 10.7 198.1 10.6 197.9 10.5 C 200.4 10.7 196.6 10.2 199.2 10.3 C 197.6 10.1 197.3 10.0 196.0 9.8 C 196.0 9.9 195.5 9.9 195.4 9.9 C 196.5 9.9 197.6 10.1 197.3 10.3 C 195.0 10.2 195.4 9.9 193.5 9.7 C 192.9 9.9 190.3 10.0 189.0 9.7 C 191.6 9.9 188.9 9.5 190.4 9.5 C 192.6 9.9 193.3 9.7 194.1 9.5 C 193.2 9.3 191.3 9.1 191.0 9.3 C 192.2 9.5 192.2 9.3 192.9 9.4 C 192.8 9.5 192.5 9.6 191.6 9.6 C 190.6 9.3 188.2 9.3 189.8 9.1 C 188.2 9.1 186.4 8.7 184.7 8.8 C 186.5 8.9 187.9 9.1 188.4 9.4 C 186.9 9.4 185.4 9.0 185.3 9.1 C 185.5 9.4 187.9 9.5 188.4 9.7 C 186.4 9.8 183.4 8.9 185.9 9.6 C 184.8 9.5 183.2 9.4 182.7 9.2 C 184.1 9.3 182.6 8.9 182.1 8.8 C 180.9 8.7 179.9 8.7 179.5 8.8 C 181.3 8.8 182.7 9.2 181.4 9.1 C 181.1 9.0 180.7 9.1 180.2 9.1 C 180.0 9.0 178.0 9.0 177.6 8.8 C 177.7 9.0 178.7 9.0 178.8 9.1 C 177.6 9.2 175.9 9.4 175.0 9.0 C 175.8 9.0 176.8 9.1 176.9 9.0 C 173.6 8.5 172.5 8.2 168.6 7.9 C 169.1 7.9 169.3 7.9 169.2 7.8 C 166.7 7.6 165.0 7.5 165.4 7.3 C 163.8 7.3 163.0 7.5 162.1 7.6 C 163.8 7.7 164.4 7.5 165.4 7.7 C 164.7 7.8 166.6 8.2 167.3 8.4 C 170.1 8.3 170.3 8.7 173.1 8.6 C 172.3 8.8 175.2 8.8 174.3 9.0 C 171.7 8.5 169.2 8.7 165.3 8.4 C 165.9 8.3 166.3 8.1 164.7 7.9 C 162.3 7.8 163.5 8.1 161.4 8.0 C 160.6 7.8 161.8 7.8 160.8 7.7 C 160.1 7.8 158.2 7.8 157.6 7.5 C 160.2 7.6 157.1 7.3 158.8 7.2 C 158.0 7.2 157.5 7.2 156.9 7.1 C 159.5 7.4 154.3 7.5 156.2 7.7 C 152.6 7.8 156.0 7.1 153.0 7.1 C 154.5 7.3 152.6 7.4 150.4 7.4 C 149.9 7.1 147.6 7.1 145.9 7.0 C 146.8 7.2 147.5 7.2 145.9 7.4 C 146.8 7.4 148.3 7.4 149.1 7.3 C 149.1 7.4 149.4 7.5 149.8 7.5 C 147.6 7.6 148.5 7.7 147.8 7.8 C 147.2 7.7 145.6 7.7 145.2 7.6 C 145.2 7.7 144.7 7.7 144.6 7.8 C 147.3 7.8 144.2 8.1 145.9 8.2 C 147.1 8.1 146.3 7.9 147.8 7.9 C 149.3 8.2 146.6 8.2 145.9 8.5 C 147.2 8.7 148.7 8.3 149.1 8.6 C 147.5 8.9 144.8 8.8 142.7 8.7 C 142.8 9.0 139.1 8.7 138.8 9.2 C 138.5 9.1 138.1 9.0 137.5 9.0 C 136.9 9.3 136.2 8.9 135.6 9.0 C 135.5 9.1 135.7 9.2 136.2 9.3 C 133.6 9.2 132.9 9.3 129.8 9.6 C 129.3 9.5 128.8 9.3 128.5 9.2 C 129.2 9.1 129.9 9.0 130.4 8.9 C 126.2 9.1 129.0 9.6 125.9 9.4 C 126.1 9.5 128.1 9.7 126.6 9.9 C 123.9 9.7 120.2 10.3 120.2 9.6 C 117.9 9.6 116.3 10.2 115.2 9.9 C 114.4 10.0 114.2 10.1 113.9 10.2 C 114.6 10.3 115.6 10.3 116.4 10.4 C 117.8 10.1 118.5 10.3 117.1 10.1 C 119.2 9.9 119.8 10.0 120.9 10.0 C 118.0 10.4 115.3 10.4 115.2 10.8 C 114.3 10.8 113.5 10.7 112.7 10.6 C 112.4 10.8 109.2 11.2 108.9 11.0 C 111.1 10.8 113.3 10.3 111.4 10.3 C 106.0 11.0 103.0 11.0 98.4 11.9 C 98.3 11.8 98.6 11.5 97.8 11.6 C 97.8 11.8 97.7 11.9 97.2 12.0 C 95.8 12.2 94.9 12.2 93.0 12.6 C 93.1 12.3 92.8 12.2 91.7 12.3 C 91.2 12.6 89.3 13.4 88.2 13.5 C 89.4 13.3 87.8 13.2 87.0 13.4 C 87.7 13.6 81.7 14.1 83.5 14.1 C 81.1 14.5 80.1 14.6 80.0 14.5 C 79.1 14.7 78.5 14.9 77.7 15.1 C 77.1 14.9 73.2 16.0 72.6 16.0 C 74.0 15.8 74.2 15.3 73.1 15.6 C 72.4 16.0 68.8 17.0 68.2 17.1 C 68.4 16.9 68.6 16.6 70.3 16.2 C 67.4 16.8 67.5 17.2 66.6 17.6 C 66.6 17.3 65.3 17.9 64.9 18.1 C 64.0 18.1 65.0 17.9 64.9 17.7 C 63.8 18.0 63.4 17.9 62.1 18.3 C 62.6 18.4 61.1 18.7 60.6 18.8 C 60.4 19.0 59.7 19.3 58.6 19.7 C 60.0 18.8 51.9 21.2 53.9 20.9 C 52.4 21.6 52.2 21.1 50.3 21.8 C 50.0 22.1 48.8 22.4 49.9 22.2 C 49.2 22.5 48.3 22.7 47.9 22.8 C 47.5 22.9 47.1 22.9 45.5 23.6 C 47.0 23.4 42.3 24.7 43.2 24.8 C 41.7 24.9 39.4 26.4 36.9 27.1 C 37.0 27.2 36.3 27.5 36.2 27.6 C 35.9 27.8 39.1 26.5 37.1 27.5 C 34.5 28.4 35.8 27.7 35.4 27.8 C 28.9 30.8 22.4 34.6 18.1 38.0 C 18.7 37.7 18.7 37.8 17.8 38.5 C 16.3 39.1 12.5 43.4 12.1 44.1 C 11.6 44.3 10.4 46.6 10.1 46.9 C 10.3 46.5 10.6 45.5 10.1 46.4 C 10.0 47.1 9.4 47.8 9.2 48.7 C 8.8 49.0 8.2 51.6 8.1 50.3 C 7.9 50.8 7.8 51.1 7.7 51.3 C 8.0 51.4 7.8 51.9 8.2 51.1 C 7.3 53.3 7.5 53.9 7.4 55.6 C 7.5 56.0 7.6 54.6 7.7 55.6 C 7.6 55.6 7.6 55.6 7.5 55.6 C 7.5 56.0 7.6 56.1 7.5 56.3 C 7.4 56.3 7.4 55.7 7.1 55.7 C 7.2 56.5 7.0 57.1 7.2 57.4 C 7.1 56.2 7.7 57.0 7.5 57.7 C 7.3 57.1 8.2 60.5 8.8 61.6 C 8.7 62.2 8.3 60.4 8.1 60.6 C 8.9 62.7 8.9 62.5 9.3 62.6 C 9.7 63.8 9.8 64.3 10.8 65.5 C 11.3 66.4 10.3 65.2 10.9 66.0 C 11.3 66.5 11.6 66.6 12.2 67.3 C 13.3 69.6 18.8 73.5 21.5 76.3 C 20.3 75.3 22.0 76.3 23.8 77.4 C 23.9 77.6 23.6 77.6 24.2 78.0 C 24.2 77.8 24.8 78.1 26.1 78.8 C 26.1 79.0 25.8 78.9 26.5 79.4 C 27.2 79.4 28.7 80.6 29.8 80.9 C 30.1 81.4 27.4 79.8 27.1 79.9 C 30.2 81.8 30.9 81.8 33.6 83.2 C 32.2 82.6 34.6 83.9 35.0 84.2 C 34.4 83.6 36.7 84.6 35.2 83.7 C 36.2 84.2 37.9 84.8 38.1 85.0 C 37.5 84.8 36.6 84.4 36.5 84.5 C 37.9 85.0 39.6 86.0 40.4 86.1 C 39.4 85.6 38.9 85.3 38.9 85.2 C 39.3 85.3 39.8 85.4 40.6 85.6 C 38.2 85.3 44.9 87.7 45.4 87.6 C 45.9 88.2 46.3 88.4 46.0 88.5 C 49.0 89.6 49.1 89.3 50.2 89.6 C 49.8 89.7 49.4 89.8 50.9 90.5 C 50.7 90.1 52.6 90.7 52.2 90.2 C 56.3 91.5 57.2 92.1 59.8 92.8 C 59.9 92.7 59.1 92.4 59.9 92.6 C 61.1 93.0 62.1 93.4 63.0 93.8 C 63.7 93.8 62.8 93.5 63.6 93.6 C 65.5 94.4 64.9 94.5 66.7 95.1 C 68.9 95.5 68.1 95.4 69.5 95.5 C 68.9 95.3 68.2 95.0 69.0 95.2 C 70.3 95.7 70.8 96.1 71.1 96.3 C 70.1 96.0 69.3 95.8 68.9 95.7 C 68.5 95.7 67.2 95.4 68.3 95.8 C 66.9 95.4 65.3 95.0 63.3 94.5 C 63.9 95.0 61.6 94.1 62.2 94.6 C 64.4 95.1 64.9 95.4 67.1 95.9 C 66.6 95.5 68.9 96.2 69.3 96.3 C 69.3 96.2 70.8 96.6 70.5 96.3 C 72.2 96.6 72.1 96.8 73.8 97.1 C 73.9 97.2 73.7 97.3 74.3 97.5 C 75.0 97.3 75.5 97.8 76.0 97.9 C 75.7 97.6 78.2 98.2 78.4 98.1 C 77.7 97.9 76.8 97.8 76.7 97.6 C 79.5 98.2 77.3 97.5 76.8 97.2 C 76.9 97.4 75.8 97.5 75.6 97.3 C 78.0 97.5 72.4 96.1 74.5 96.7 C 76.3 97.1 76.2 96.9 78.0 97.3 C 80.0 98.2 77.4 97.9 79.5 98.7 C 80.9 98.8 81.8 99.0 81.9 98.8 C 82.2 98.9 82.5 99.1 83.0 99.2 C 83.6 99.2 81.4 98.6 83.1 98.9 C 84.0 99.1 82.9 99.3 84.8 99.5 C 85.6 99.5 82.5 98.9 84.3 99.1 C 86.1 99.8 83.9 98.9 86.0 99.3 C 86.2 99.3 86.5 99.4 87.2 99.5 C 87.3 99.7 87.0 99.8 87.8 100.0 C 88.2 99.6 88.6 100.3 90.1 100.4 C 91.1 100.3 88.5 100.0 89.0 99.8 C 90.8 100.4 91.9 100.3 92.6 100.4 C 91.1 100.4 94.9 100.9 95.0 101.2 C 94.6 100.8 95.4 101.1 97.5 101.1 C 97.6 101.6 100.0 101.6 100.5 102.0 C 100.8 101.9 101.4 101.9 101.8 101.9 C 101.0 101.8 100.3 101.7 100.6 101.5 C 101.2 101.6 101.8 101.7 102.4 101.8 C 103.4 102.1 100.7 102.3 104.8 102.7 C 104.4 102.3 106.2 102.5 107.3 102.5 C 107.2 102.2 105.7 102.3 105.5 102.2 C 106.9 102.1 108.4 102.5 109.2 102.7 C 111.7 102.9 114.6 103.3 118.1 103.5 C 118.9 103.8 115.1 103.4 117.5 103.8 C 118.4 103.8 118.0 103.6 119.3 103.8 C 118.0 104.7 128.9 104.6 129.6 105.1 C 130.1 104.9 133.1 105.2 132.8 104.9 C 130.7 105.0 129.3 104.6 128.3 104.4 C 126.4 104.4 130.1 104.7 128.3 104.7 C 128.1 104.5 125.5 104.5 125.7 104.3 C 128.5 104.5 124.3 104.0 126.4 103.9 C 129.0 104.1 134.1 104.1 132.9 104.3 C 132.9 104.2 131.7 104.2 131.6 104.3 C 134.5 104.5 136.2 104.4 137.4 104.3 C 138.7 104.5 143.9 104.3 142.6 104.4 C 143.0 104.7 139.5 104.3 140.0 104.5 C 145.4 104.8 145.5 104.6 149.1 104.8 C 147.9 104.5 152.8 104.4 152.4 104.5 C 152.4 104.8 153.4 105.0 155.6 104.7 C 155.3 104.9 156.4 105.0 157.6 105.1 C 158.1 104.9 156.6 104.9 156.9 104.7 C 158.0 104.7 159.1 104.7 160.2 104.7 C 160.2 104.8 160.1 104.9 160.8 104.9 C 162.0 104.7 166.4 104.4 166.0 104.5 C 164.2 104.9 169.0 104.7 166.0 105.0 C 166.8 105.0 166.9 105.1 168.0 105.1 C 168.0 104.9 168.0 104.8 168.0 104.7 C 170.4 104.6 169.2 105.1 171.2 105.0 C 171.4 104.9 172.3 104.8 172.5 104.7 C 171.7 104.8 171.7 104.9 170.6 104.9 C 171.8 104.4 168.4 104.7 168.6 104.5 C 170.9 104.4 170.9 104.6 171.8 104.7 C 174.7 104.4 173.4 104.6 176.4 104.5 C 176.4 104.4 175.6 104.4 175.7 104.3 C 179.4 104.2 179.1 104.7 181.6 104.4 C 181.0 104.4 178.7 104.7 180.3 104.7 C 182.0 104.5 182.5 104.2 184.7 104.0 C 184.9 104.1 184.7 104.2 185.4 104.2 C 186.4 104.0 186.4 103.8 187.3 103.6 C 187.5 103.8 188.7 103.6 189.2 103.5 C 190.0 103.6 188.9 103.8 189.9 103.8 C 191.8 103.6 192.7 103.0 194.3 102.9 C 194.2 103.2 196.0 103.0 197.5 102.8 C 197.8 103.0 201.0 102.6 203.1 102.5 C 202.6 102.3 204.8 102.1 204.3 101.9 C 203.3 102.0 202.7 102.0 202.5 102.0 C 204.9 101.7 205.7 102.1 207.4 101.5 C 208.4 101.5 209.5 101.5 211.1 101.4 C 211.3 101.2 208.2 101.5 209.9 101.2 C 210.0 101.3 210.6 101.2 211.1 101.1 C 210.9 101.4 212.2 101.2 213.0 101.3 C 214.4 100.9 217.4 100.8 216.0 100.7 C 218.2 100.3 216.8 100.9 218.5 100.7 C 217.6 100.5 220.5 100.0 219.0 100.0 C 221.3 99.6 221.2 100.0 220.3 100.3 C 222.4 100.0 222.8 99.7 223.9 99.7 C 222.9 99.6 226.0 98.9 224.4 99.4 C 223.9 99.7 226.3 99.1 226.8 99.2 C 226.0 99.1 227.1 98.9 225.6 99.1 C 227.1 98.7 229.4 98.3 230.9 98.2 C 232.8 97.7 234.5 97.3 233.7 97.7 C 235.5 97.3 234.8 97.4 236.6 97.1 C 236.6 97.0 236.1 97.1 236.0 97.1 C 238.4 96.5 238.0 96.8 241.1 96.1 C 240.8 96.5 242.8 96.0 243.4 96.0 C 242.1 96.3 241.1 96.5 240.0 96.7 C 239.8 96.8 240.9 96.7 240.1 96.9 C 240.0 96.8 239.5 96.9 239.0 97.0 C 241.0 96.7 236.4 98.0 237.8 97.4 C 237.9 97.4 238.0 97.5 238.4 97.4 C 238.0 97.2 238.0 97.3 238.3 97.0 C 237.3 97.3 236.4 97.1 236.1 97.5 C 236.1 97.6 237.1 97.3 237.3 97.4 C 234.7 98.1 236.4 97.2 234.4 97.7 C 234.0 98.1 235.1 97.9 235.6 98.0 C 233.7 98.4 232.1 98.7 231.5 98.7 C 229.8 99.1 231.7 98.8 230.5 99.2 C 229.8 99.2 229.9 99.0 228.7 99.2 C 227.4 99.6 229.4 99.3 228.1 99.6 C 226.7 99.7 229.0 99.1 226.9 99.4 C 227.4 99.7 224.9 99.7 225.1 99.9 C 226.4 99.6 226.4 100.0 225.8 99.9 C 222.8 100.1 220.9 101.3 218.0 101.2 C 218.0 101.3 217.5 101.3 217.4 101.4 C 219.6 101.3 222.8 100.7 223.5 101.0 C 225.2 100.6 224.9 100.4 225.2 100.3 C 227.2 100.2 227.1 100.3 225.9 100.9 C 222.5 101.6 221.0 101.6 218.7 101.9 C 217.5 102.2 218.9 101.9 219.4 102.0 C 212.2 102.9 217.7 102.8 215.2 103.1 C 215.2 102.9 214.6 102.9 213.9 103.0 C 213.9 103.1 212.9 103.2 212.7 103.3 C 213.2 103.3 213.4 103.3 213.3 103.4 C 211.5 103.8 212.2 103.4 212.1 103.3 C 213.5 103.1 214.3 102.9 214.5 102.8 C 212.7 103.1 211.3 103.1 210.2 103.5 C 208.5 103.4 211.0 102.7 210.1 102.6 C 210.4 102.3 209.0 103.3 207.7 103.6 C 205.5 103.9 205.4 104.1 203.4 104.4 C 202.8 104.2 205.4 104.0 205.2 103.8 C 204.6 103.9 204.5 103.9 203.9 103.9 C 202.5 104.1 202.6 104.3 201.5 104.5 C 200.8 104.3 200.5 104.5 199.6 104.7 C 198.2 104.7 200.4 104.4 198.9 104.5 C 197.4 104.6 196.3 105.1 195.8 105.1 C 195.7 105.0 195.9 104.9 195.1 104.9 C 193.4 105.3 192.9 105.3 195.2 105.2 C 193.2 105.4 192.3 105.6 192.7 105.8 C 195.6 105.6 196.4 105.4 197.8 105.6 C 198.3 105.3 199.2 105.4 200.3 105.4 C 199.6 105.0 201.6 105.2 202.2 104.9 C 201.4 105.0 200.7 105.0 200.3 105.0 C 203.4 104.6 203.3 104.7 205.8 104.0 C 205.9 104.1 206.2 104.1 206.5 104.2 C 205.7 104.4 203.4 104.6 203.4 104.8 C 205.2 104.9 205.8 104.3 207.8 104.4 C 208.6 104.1 206.1 104.3 207.8 104.1 C 208.6 104.1 209.6 104.1 210.9 104.1 C 212.2 103.8 212.9 103.6 213.9 103.4 C 214.1 103.5 214.2 103.6 215.2 103.4 C 215.1 103.3 214.1 103.4 215.2 103.1 C 218.4 103.0 220.6 102.9 223.7 102.2 C 222.6 102.3 220.0 102.5 221.3 102.3 C 222.7 102.2 224.6 101.6 226.1 101.5 C 226.5 101.5 224.3 101.7 224.9 102.1 C 226.3 101.8 227.2 101.7 227.9 101.6 C 227.8 101.4 229.4 101.2 229.0 101.0 C 227.9 101.2 227.6 101.6 227.2 101.5 C 228.1 100.7 231.6 100.9 233.7 100.5 C 235.1 100.1 232.6 100.5 234.2 100.1 C 235.2 99.8 235.9 100.2 234.4 100.6 C 233.3 100.7 232.9 101.1 232.6 100.9 C 232.1 101.0 231.4 101.1 231.5 101.2 C 232.3 101.1 232.1 101.3 232.6 101.2 C 231.5 101.4 231.4 101.9 230.3 101.8 C 231.0 101.7 231.2 101.6 231.5 101.5 C 228.4 102.2 227.4 102.1 225.5 102.3 C 226.6 102.3 225.5 102.5 225.6 102.7 C 227.0 102.3 229.6 102.0 228.0 102.4 C 226.9 102.3 226.2 103.2 225.1 103.1 C 225.9 102.9 225.7 102.8 226.2 102.6 C 225.0 102.8 225.0 102.6 223.8 102.8 C 219.9 103.9 216.8 103.7 210.4 105.1 C 208.2 105.4 212.5 104.7 212.2 104.5 C 211.6 104.6 211.5 104.6 211.0 104.6 C 211.0 104.9 209.8 104.8 209.1 105.1 C 209.2 104.9 206.2 105.5 204.7 105.4 C 204.7 105.5 204.9 105.6 204.1 105.7 C 199.5 105.9 191.1 107.2 187.5 107.2 C 187.7 107.4 186.1 107.5 185.7 107.6 C 183.4 107.7 184.4 107.5 181.1 107.9 C 179.5 108.1 181.4 107.7 181.8 107.6 C 176.8 108.1 172.5 108.0 169.4 108.4 C 167.8 108.5 169.4 108.2 166.1 108.2 C 166.1 108.6 160.9 108.2 160.2 108.6 C 158.2 108.7 154.7 108.2 156.3 108.5 C 153.6 108.6 155.4 108.2 154.3 108.2 C 152.4 108.3 154.8 108.8 153.0 108.9 C 153.2 108.6 151.6 108.7 150.4 108.4 C 151.8 108.5 152.8 108.4 153.0 108.3 C 151.7 108.4 151.8 108.3 149.7 108.3 C 148.2 108.4 143.8 108.5 142.5 108.1 C 142.4 108.2 142.8 108.3 143.1 108.4 C 141.9 108.4 140.3 108.1 140.5 108.4 C 137.6 108.3 136.3 108.0 134.7 108.2 C 133.4 108.2 135.1 108.0 131.4 107.8 C 131.3 108.0 124.7 107.6 123.0 107.3 C 122.9 107.6 122.5 107.2 121.7 107.2 C 121.6 107.2 121.7 107.4 121.0 107.3 C 120.9 107.2 120.3 107.2 119.7 107.2 C 120.2 106.9 117.3 107.2 117.2 106.9 C 117.7 106.9 117.8 106.7 117.2 106.6 C 117.0 106.9 114.4 106.2 114.6 106.5 C 115.2 106.6 117.0 106.7 116.5 106.9 C 114.0 106.8 115.0 106.5 113.3 106.4 C 113.5 106.5 114.4 106.7 113.3 106.6 C 111.6 106.4 113.2 106.6 112.1 106.2 C 111.2 106.2 109.5 106.2 108.9 106.2 C 109.0 106.2 108.5 106.0 108.3 105.9 C 105.0 105.5 97.7 104.8 94.6 104.0 C 94.4 104.1 93.7 104.0 93.9 104.2 C 92.1 103.8 92.2 103.9 90.3 103.5 C 90.3 103.6 90.3 103.7 90.3 103.8 C 87.8 103.6 90.1 103.5 88.5 103.2 C 88.2 103.8 87.6 102.9 86.1 102.7 C 85.9 102.8 85.2 102.7 85.4 102.9 C 83.1 102.5 83.3 102.1 81.3 101.9 C 81.8 102.0 82.0 102.8 81.7 103.0 C 81.4 102.9 80.8 102.7 80.0 102.5 C 81.1 102.4 80.6 101.4 77.8 101.1 C 79.3 101.4 79.9 101.6 79.5 101.7 C 77.4 101.3 76.7 101.0 74.9 100.6 C 74.6 100.8 75.9 101.1 75.3 101.3 C 74.9 101.2 74.7 101.2 74.7 101.3 C 72.8 100.9 72.8 100.7 70.7 100.4 C 70.8 100.2 71.2 100.3 71.9 100.6 C 71.8 100.3 71.9 100.1 73.1 100.4 C 73.3 100.6 72.5 100.7 74.2 101.0 C 74.3 100.8 74.3 100.7 74.3 100.6 C 73.0 100.3 70.1 99.4 69.8 99.5 C 70.3 99.7 71.3 100.0 70.8 100.1 C 68.6 99.6 68.1 99.2 66.4 98.6 C 63.3 97.9 58.1 96.5 58.6 97.0 C 56.9 96.4 57.5 96.6 56.0 96.1 C 56.4 96.5 54.2 95.7 54.3 95.9 C 56.2 96.4 55.6 96.3 57.5 96.8 C 57.4 96.9 57.1 96.9 56.3 96.8 C 56.3 96.6 55.5 96.3 54.3 96.0 C 54.5 96.1 55.5 96.7 54.2 96.3 C 54.1 96.2 53.8 96.1 53.2 95.9 C 53.2 95.8 53.3 95.6 53.3 95.5 C 54.0 95.7 54.9 95.9 55.5 95.9 C 54.9 95.8 54.9 95.7 54.4 95.5 C 54.1 95.6 52.0 94.8 51.8 94.9 C 52.6 95.1 53.1 95.4 52.2 95.2 C 52.1 95.1 50.7 94.6 50.2 94.5 C 51.9 95.2 51.2 95.0 52.1 95.6 C 51.1 95.3 50.6 95.1 50.2 94.9 C 49.9 94.8 49.7 94.6 49.4 94.5 C 49.1 94.4 49.1 94.4 48.0 94.1 C 48.0 93.9 48.1 93.7 48.7 93.8 C 48.1 93.3 45.7 92.5 43.6 91.8 C 41.6 91.1 39.7 90.5 38.8 90.1 C 40.1 90.6 41.6 90.9 39.7 90.1 C 39.7 90.2 38.3 89.6 38.0 89.6 C 37.2 89.8 38.7 90.7 40.1 91.5 C 38.6 90.9 38.2 90.8 36.8 90.2 C 36.4 89.9 38.0 90.2 36.3 89.4 C 35.7 89.6 33.0 88.0 32.3 88.0 C 33.5 88.5 34.3 89.0 33.0 88.5 C 33.3 88.4 30.9 87.4 30.9 87.2 C 32.8 88.0 33.4 88.1 34.7 88.6 C 33.2 87.9 35.9 89.0 33.3 87.8 C 32.1 87.4 31.4 87.3 28.8 86.0 C 27.9 85.5 28.9 85.7 27.6 85.1 C 27.8 85.4 25.1 84.1 26.9 84.7 C 25.9 84.3 25.5 83.9 25.0 83.6 C 26.1 84.5 20.1 81.3 20.9 82.0 C 21.1 81.7 20.9 81.3 20.7 81.1 C 19.5 80.6 18.3 79.6 15.8 77.7 C 15.7 78.0 15.4 77.4 14.3 76.6 C 14.0 76.5 14.9 77.3 14.2 76.8 C 13.1 75.7 13.1 75.7 12.9 75.4 C 12.1 74.7 11.6 74.1 11.3 73.7 C 11.2 73.8 11.4 74.1 11.5 74.3 C 8.9 71.4 7.5 70.1 6.0 67.6 C 6.5 68.7 7.0 68.7 6.4 67.9 C 6.1 67.4 5.7 66.9 5.5 66.7 C 5.7 67.4 5.6 67.1 4.9 65.8 C 4.2 64.7 4.8 66.4 4.4 65.6 C 4.0 64.5 4.4 65.1 4.2 64.5 C 4.0 64.1 3.8 63.6 3.6 63.1 C 3.8 64.0 3.3 63.1 3.0 62.3 C 3.5 62.8 3.3 62.5 2.8 60.9 C 2.9 60.6 3.2 61.5 3.0 60.8 C 3.0 60.4 2.3 59.2 2.4 58.0 C 2.5 58.4 2.5 58.6 2.6 58.5 C 2.3 57.3 2.5 56.3 2.6 55.2 C 2.4 56.3 2.2 55.7 2.1 56.2 C 2.3 55.1 2.1 53.7 2.5 52.9 C 2.2 54.5 2.9 53.0 3.1 52.0 C 2.9 51.7 2.7 53.4 2.5 52.9 C 2.4 52.3 2.9 51.2 2.8 50.6 C 2.7 50.6 2.7 51.3 2.6 51.4 C 2.7 50.6 2.4 51.7 2.5 51.0 C 2.9 50.6 2.6 50.0 2.8 49.5 C 3.0 48.9 3.8 47.9 3.8 47.3 C 3.7 47.3 3.4 48.1 3.3 48.1 C 4.1 45.6 4.8 45.0 6.0 42.7 C 6.3 42.5 6.6 42.1 7.1 41.5 C 7.0 41.5 7.2 41.1 7.5 40.5 C 8.3 39.7 9.2 38.9 10.3 37.8 C 10.3 38.2 9.8 38.7 11.3 37.2 C 11.4 37.1 10.7 37.7 11.2 37.1 C 11.3 37.2 11.7 36.8 11.7 36.7 C 11.6 36.7 11.6 36.6 11.6 36.6 C 11.1 37.0 10.7 37.4 10.3 37.8 C 10.3 37.7 10.1 37.7 9.7 38.0 C 11.4 36.1 11.6 36.6 12.7 35.3 C 13.2 35.4 13.7 35.1 12.8 36.2 C 13.8 35.2 14.6 34.4 14.8 33.9 C 13.4 35.2 13.7 34.5 13.2 34.8 C 14.1 34.0 14.0 33.9 14.4 33.5 C 15.6 32.8 13.5 34.8 15.8 33.1 C 13.9 34.1 17.0 31.8 18.3 31.0 C 18.0 31.1 17.5 31.4 18.1 30.8 C 21.3 28.4 21.5 29.4 23.5 27.7 C 23.4 27.9 24.4 27.3 24.9 27.2 C 23.1 28.3 22.7 28.6 21.9 29.1 C 22.1 29.1 22.6 28.8 23.2 28.5 C 23.1 28.4 23.6 28.1 24.4 27.7 C 24.9 27.3 24.5 27.1 26.0 26.0 C 26.1 26.1 26.0 26.3 26.8 25.9 C 27.4 25.3 26.3 26.5 29.7 24.7 C 29.0 25.0 28.6 25.0 28.8 24.7 C 30.4 23.8 30.1 24.1 32.4 22.9 C 33.4 22.9 31.0 24.1 30.5 24.6 C 32.0 23.8 33.2 23.0 34.9 22.4 C 33.6 22.9 34.7 22.1 36.2 21.4 C 37.6 20.9 36.3 21.8 38.0 21.1 C 39.3 20.5 40.0 20.0 38.6 20.4 C 41.7 19.3 40.9 19.3 43.6 18.3 C 43.7 18.4 43.0 18.7 41.9 19.0 C 42.1 19.1 41.8 19.3 42.8 18.9 C 43.7 18.5 45.1 17.9 46.6 17.4 C 48.1 16.8 49.0 16.5 49.6 16.2 C 51.9 15.9 54.5 14.5 56.9 14.0 C 56.0 14.5 60.1 13.2 61.3 13.1 C 62.1 12.9 64.2 11.8 63.4 12.2 C 63.7 12.5 65.2 12.0 66.3 11.8 C 66.3 11.7 66.3 11.6 66.3 11.5 C 68.8 10.9 69.4 11.0 70.3 11.0 C 73.3 10.1 76.8 9.8 80.7 8.8 C 81.7 8.8 82.6 8.6 84.9 8.4 C 84.8 8.2 86.7 7.8 88.5 7.5 C 88.0 7.4 89.7 7.2 89.7 7.0 C 88.1 7.3 88.6 6.9 87.8 6.9 C 89.9 6.8 90.9 6.2 92.6 6.2 C 90.6 6.6 90.0 7.0 89.7 7.4 C 92.2 7.0 93.5 6.9 94.0 7.0 C 94.2 6.8 93.9 6.7 93.3 6.7 C 94.2 6.6 95.0 6.5 95.8 6.3 C 96.0 6.4 94.9 6.7 95.8 6.6 C 96.4 6.4 97.0 6.2 97.6 6.1 C 98.4 6.2 96.7 6.4 96.5 6.6 C 99.8 6.2 98.3 5.9 100.1 5.6 C 100.6 5.7 100.5 6.0 102.0 5.8 C 102.6 5.6 102.8 5.3 104.5 5.1 C 105.6 5.0 104.5 5.5 105.8 5.4 C 105.9 5.3 106.5 5.2 107.1 5.2 C 107.0 5.1 107.5 5.0 108.3 4.9 C 108.5 5.0 109.7 4.8 110.2 4.7 C 110.3 4.8 112.3 4.9 112.7 4.6 C 112.7 4.5 111.6 4.7 111.5 4.6 C 112.9 4.5 113.9 4.4 114.6 4.2 C 115.1 4.7 117.4 4.1 120.4 4.1 C 122.2 3.8 120.0 3.7 122.3 3.4 C 123.7 3.5 122.0 3.7 122.4 3.9 C 122.7 3.9 124.9 3.9 124.9 3.7 C 124.9 3.6 123.8 3.7 123.7 3.6 C 125.3 3.3 125.3 3.6 126.3 3.6 C 126.1 3.4 127.3 3.3 127.5 3.2 C 132.2 2.7 132.1 3.2 134.1 3.3 C 134.0 3.2 135.2 3.2 135.3 3.1 C 134.0 3.2 132.2 3.1 134.0 3.0 C 133.7 3.1 136.5 2.8 136.6 2.8 C 136.3 2.7 134.6 2.8 135.3 2.5 C 137.8 2.3 136.8 2.8 138.6 2.5 C 138.8 2.7 137.7 2.7 137.3 2.8 C 138.0 2.8 139.1 2.7 139.3 2.8 C 138.3 2.9 138.3 3.1 137.9 3.3 C 139.2 3.0 141.5 3.2 139.9 2.9 C 142.5 2.9 145.0 2.7 143.2 2.5 C 145.3 2.4 144.1 2.7 145.8 2.5 C 145.6 2.8 145.1 2.9 146.5 3.1 C 146.7 3.0 147.9 2.9 147.8 2.7 C 150.9 2.6 151.8 2.9 153.1 3.1 C 151.9 2.8 153.5 3.1 155.0 2.8 C 155.9 2.9 155.1 3.2 157.6 3.1 C 154.9 2.8 160.8 3.1 159.6 2.7 C 162.9 2.9 162.8 2.9 166.2 3.0 C 165.9 3.2 165.0 3.3 163.5 3.3 C 164.6 3.1 160.7 3.0 160.9 3.2 C 160.9 3.2 160.9 3.3 160.9 3.3 C 163.4 3.3 165.1 3.4 166.2 3.6 C 166.7 3.4 167.8 3.4 167.5 3.1 C 169.8 3.5 172.3 3.1 173.4 3.4 C 172.5 3.4 171.8 3.4 172.0 3.5 C 173.0 3.5 174.1 3.5 174.0 3.3 C 172.1 3.2 171.7 3.1 170.8 3.3 C 171.6 3.1 168.9 2.9 170.8 2.9 C 170.7 3.2 174.7 2.8 173.4 3.0 C 171.3 3.1 175.7 3.4 175.9 3.5 C 175.9 3.5 175.9 3.5 175.9 3.5 Z M 224.4 102.7 C 226.1 102.3 223.9 102.4 222.5 102.7 C 223.0 102.7 223.2 102.8 223.2 102.9 C 223.7 102.8 224.2 102.6 224.4 102.7 C 224.4 102.7 224.4 102.7 224.4 102.7 Z M 204.3 102.1 C 203.8 102.4 206.8 101.9 208.1 101.8 C 207.7 101.8 207.3 101.7 208.1 101.6 C 206.7 101.6 206.3 102.1 204.3 102.1 C 204.3 102.1 204.3 102.1 204.3 102.1 Z M 132.8 105.3 C 133.3 105.3 134.6 105.2 134.7 105.4 C 135.5 105.4 135.3 105.2 135.4 105.2 C 136.9 105.2 135.0 105.5 137.4 105.5 C 138.3 105.0 133.4 104.7 132.8 105.3 C 132.8 105.3 132.8 105.3 132.8 105.3 Z M 151.1 6.6 C 152.0 6.8 149.8 7.0 150.4 7.2 C 154.0 7.0 151.2 6.7 156.3 6.8 C 155.9 6.7 155.6 6.7 155.6 6.6 C 153.3 6.7 153.1 6.8 153.7 6.4 C 152.6 6.4 152.3 6.9 151.1 6.6 C 151.1 6.6 151.1 6.6 151.1 6.6 Z M 197.3 9.8 C 197.0 9.7 196.7 9.6 196.7 9.5 C 195.2 9.4 195.5 9.5 193.6 9.2 C 193.8 9.6 195.7 9.8 197.3 9.8 C 197.3 9.8 197.3 9.8 197.3 9.8 Z M 299.9 50.0 C 300.0 50.2 300.1 50.4 300.1 50.7 C 300.2 50.5 300.8 51.0 300.3 49.8 C 300.2 49.8 300.2 50.0 300.3 50.2 C 300.2 50.0 299.9 49.5 299.8 49.6 C 300.0 49.9 299.9 50.0 299.9 50.0 C 299.9 50.0 299.9 50.0 299.9 50.0 Z M 284.9 79.2 C 287.0 77.6 281.2 80.5 284.9 79.2 C 284.9 79.2 284.9 79.2 284.9 79.2 C 284.9 79.2 284.9 79.2 284.9 79.2 Z M 290.9 78.6 C 291.0 78.6 291.5 78.2 291.4 78.2 C 293.2 77.0 291.6 78.3 292.6 77.7 C 293.8 76.6 291.7 77.9 293.3 76.5 C 292.9 76.6 292.0 77.8 290.9 78.6 C 290.9 78.6 290.9 78.6 290.9 78.6 Z M 21.2 29.3 C 19.6 30.4 19.3 30.9 19.2 31.3 C 20.2 30.6 21.1 30.0 21.5 29.9 C 23.5 28.5 20.1 30.6 19.7 30.8 C 19.8 30.5 21.3 29.5 21.2 29.3 C 21.2 29.3 21.2 29.3 21.2 29.3 Z M 16.3 32.8 C 15.8 33.3 15.0 34.1 15.0 34.2 C 15.9 33.5 16.0 33.5 16.1 33.6 C 16.8 32.9 15.8 33.5 16.3 32.8 C 16.3 32.8 16.3 32.8 16.3 32.8 Z M 26.3 26.7 C 25.5 27.1 25.9 27.1 25.8 27.3 C 27.0 26.6 27.3 26.6 28.5 25.9 C 28.5 25.9 28.4 25.8 28.4 25.7 C 27.3 26.3 27.3 26.4 26.4 26.9 C 26.4 26.8 26.3 26.7 26.3 26.7 C 26.3 26.7 26.3 26.7 26.3 26.7 Z M 12.3 36.5 C 10.0 38.6 9.6 39.9 8.7 41.5 C 9.9 39.9 10.8 38.2 12.1 37.2 C 13.4 35.8 11.5 37.5 11.5 37.4 C 11.5 37.3 12.0 36.9 12.3 36.5 C 12.3 36.5 12.3 36.5 12.3 36.5 Z M 2.7 56.6 C 2.6 57.1 3.0 58.0 3.3 59.3 C 3.3 59.1 3.3 58.8 3.4 58.8 C 3.1 56.9 2.8 58.1 2.7 56.6 C 2.7 56.6 2.7 56.6 2.7 56.6 Z M 6.8 67.7 C 7.5 68.8 6.5 67.0 7.0 67.5 C 6.2 66.2 5.6 64.9 5.3 65.1 C 6.2 66.3 6.4 66.6 6.8 67.7 C 6.8 67.7 6.8 67.7 6.8 67.7 Z M 13.2 75.0 C 14.6 76.1 12.9 74.3 13.6 74.6 C 13.1 74.2 13.1 74.4 13.0 74.4 C 12.7 74.0 12.4 73.7 11.8 73.2 C 12.1 73.7 13.6 75.0 13.2 75.0 C 13.2 75.0 13.2 75.0 13.2 75.0 Z M 68.1 12.1 C 67.2 12.4 67.5 12.6 65.4 13.1 C 68.6 12.3 67.0 13.4 71.1 12.3 C 70.5 12.4 70.9 12.2 71.1 12.3 C 72.7 11.7 69.6 12.5 71.0 11.9 C 69.9 12.2 70.6 12.3 69.5 12.6 C 68.2 12.6 67.5 12.7 68.1 12.1 C 68.1 12.1 68.1 12.1 68.1 12.1 Z M 71.2 12.6 C 72.4 12.4 72.3 11.9 72.9 12.0 C 73.4 11.9 73.3 11.9 73.4 11.8 C 73.0 11.9 72.9 11.8 72.8 11.8 C 71.8 12.1 70.9 12.4 71.2 12.6 C 71.2 12.6 71.2 12.6 71.2 12.6 Z M 60.7 15.2 C 62.5 14.6 63.1 14.6 63.9 14.2 C 64.7 14.4 65.1 13.7 66.2 13.8 C 68.0 13.2 66.6 13.5 66.1 13.5 C 67.9 12.9 66.6 13.6 68.4 13.1 C 68.6 12.7 66.4 13.4 66.6 13.0 C 65.2 13.3 65.3 13.5 64.4 13.8 C 63.8 13.9 63.9 13.8 63.8 13.7 C 62.3 14.2 62.3 14.0 61.1 14.3 C 60.8 14.6 61.4 14.6 62.8 14.1 C 61.3 14.6 60.7 15.0 59.0 15.3 C 60.2 14.7 54.8 16.2 55.3 16.5 C 56.8 16.1 56.3 16.0 56.9 15.8 C 58.8 15.4 59.9 15.1 60.7 15.2 C 60.7 15.2 60.7 15.2 60.7 15.2 Z M 27.4 27.0 C 26.8 27.3 26.3 27.5 25.4 28.0 C 25.2 27.8 26.4 27.3 25.2 27.7 C 23.9 28.4 23.6 28.7 22.8 29.2 C 23.3 29.0 26.2 27.6 24.8 28.6 C 25.3 28.4 26.2 27.9 27.5 27.3 C 25.9 27.8 29.5 26.2 30.9 25.5 C 30.6 25.3 33.5 24.4 34.5 23.7 C 33.5 23.9 30.6 25.5 29.4 26.1 C 30.0 25.8 25.9 27.4 27.4 27.0 C 27.4 27.0 27.4 27.0 27.4 27.0 Z M 75.7 11.4 C 76.1 11.3 77.3 11.0 76.3 11.2 C 76.8 11.0 77.9 10.9 77.4 10.6 C 78.0 10.5 78.6 10.4 79.1 10.3 C 78.9 10.4 77.3 10.7 78.0 10.8 C 79.2 10.4 78.7 10.7 80.3 10.4 C 79.5 10.7 80.5 10.6 79.9 11.0 C 80.3 10.8 81.7 10.5 81.6 10.4 C 83.8 10.0 81.0 10.8 84.0 10.2 C 84.0 10.5 81.9 10.8 81.1 10.9 C 80.7 11.2 84.8 10.3 87.0 10.0 C 85.0 10.1 86.5 9.6 87.5 9.2 C 88.2 9.2 87.5 9.4 88.8 9.3 C 89.8 9.2 90.3 9.0 90.6 9.0 C 91.4 8.9 91.0 8.8 91.1 8.6 C 92.5 8.4 91.5 9.0 93.6 8.6 C 92.0 8.5 93.8 8.1 96.6 7.8 C 96.4 7.7 95.5 7.9 95.4 7.8 C 95.8 7.5 97.4 7.6 97.9 7.6 C 98.9 7.5 98.2 7.4 97.2 7.6 C 97.8 7.4 98.4 7.2 99.1 7.1 C 96.0 7.5 91.2 8.2 85.6 8.8 C 86.7 8.8 85.5 9.1 83.8 9.3 C 83.6 9.2 84.3 9.1 85.0 8.9 C 83.1 9.0 83.3 9.6 80.3 10.0 C 78.7 10.2 82.1 9.4 80.3 9.6 C 79.2 9.9 78.5 10.3 77.9 10.1 C 76.1 10.6 75.6 11.0 72.8 11.6 C 74.4 11.4 75.3 11.7 76.9 11.3 C 76.9 11.2 76.2 11.4 75.7 11.4 C 75.7 11.4 75.7 11.4 75.7 11.4 Z M 16.2 33.7 C 15.4 34.4 15.1 34.8 14.8 34.9 C 13.4 36.1 15.1 34.9 15.4 34.7 C 16.1 34.2 16.2 33.9 16.2 33.7 C 16.2 33.7 16.2 33.7 16.2 33.7 Z M 141.2 107.7 C 143.7 107.8 143.2 107.5 145.1 107.6 C 143.5 107.4 143.2 107.2 140.6 107.2 C 140.4 107.4 140.4 107.6 141.2 107.7 C 141.2 107.7 141.2 107.7 141.2 107.7 Z M 21.7 30.1 C 22.9 29.0 20.2 31.4 20.1 31.3 C 18.6 32.4 21.6 30.4 20.3 31.6 C 21.5 30.6 22.5 30.2 24.3 29.0 C 24.1 28.9 22.6 29.8 21.2 30.7 C 21.0 30.7 21.7 30.2 21.7 30.1 C 21.7 30.1 21.7 30.1 21.7 30.1 Z M 116.0 105.6 C 114.3 105.6 117.5 106.1 118.5 106.3 C 118.6 106.0 118.1 106.0 116.0 105.6 C 116.0 105.6 116.0 105.6 116.0 105.6 Z M 158.2 107.5 C 159.2 107.2 155.3 107.5 156.3 107.2 C 155.1 107.1 155.0 107.2 154.9 107.3 C 154.3 107.3 152.5 107.3 153.0 107.1 C 152.7 106.9 155.9 107.1 154.9 106.9 C 156.0 106.8 156.1 106.9 156.9 106.9 C 155.0 106.9 155.9 107.2 158.2 107.2 C 158.2 107.0 157.1 107.1 158.2 106.9 C 158.4 107.0 159.6 107.2 159.5 107.5 C 161.6 107.5 160.3 107.1 162.8 107.1 C 162.6 106.9 161.0 107.0 160.1 106.9 C 160.4 106.6 162.7 107.1 162.1 106.7 C 162.6 106.9 164.0 107.0 164.1 107.2 C 162.3 107.4 161.0 107.6 159.5 107.7 C 160.9 107.8 163.0 107.2 165.4 107.4 C 165.1 107.3 166.6 107.2 166.1 107.0 C 168.0 107.0 167.1 107.4 166.7 107.4 C 167.2 107.6 170.9 107.3 170.7 107.1 C 170.9 107.3 175.4 107.1 175.2 106.8 C 176.5 106.9 178.5 106.4 179.1 106.7 C 179.9 106.6 181.4 106.5 183.0 106.4 C 183.4 106.1 180.6 106.4 180.4 106.3 C 179.9 106.1 183.4 106.1 183.0 105.9 C 183.0 105.9 183.0 105.8 183.0 105.8 C 181.7 105.9 180.3 106.1 179.1 106.3 C 178.1 106.3 179.3 106.1 179.1 106.0 C 178.2 106.2 174.0 106.7 173.9 106.3 C 171.1 106.5 169.1 106.5 168.0 106.7 C 166.3 106.8 168.9 106.6 168.0 106.4 C 163.1 106.9 157.1 106.6 153.0 106.9 C 152.1 106.9 152.4 106.7 152.3 106.6 C 146.7 106.7 151.5 107.1 147.1 106.9 C 147.1 106.7 149.2 106.8 149.0 106.6 C 147.5 106.6 147.1 106.7 145.1 106.6 C 145.1 106.7 145.1 106.8 145.1 106.9 C 143.4 106.9 144.1 106.6 143.2 106.5 C 141.1 106.5 141.6 106.7 140.6 106.3 C 138.6 106.4 136.7 106.4 134.7 106.2 C 133.3 106.3 135.9 106.8 138.0 106.9 C 137.8 106.9 137.3 106.9 137.2 107.0 C 134.8 106.7 134.5 106.2 130.8 106.0 C 133.6 106.4 129.4 106.0 128.9 105.8 C 127.4 105.7 128.5 106.1 129.5 106.1 C 129.3 106.2 128.3 106.1 128.2 106.0 C 128.0 106.3 131.5 106.7 135.3 106.8 C 133.6 107.1 138.0 106.8 136.0 107.3 C 139.0 107.3 136.4 106.9 139.9 107.1 C 139.5 107.0 138.9 106.9 138.6 106.7 C 141.2 106.8 140.4 107.1 143.2 107.1 C 143.6 106.9 141.8 106.9 141.8 106.8 C 144.8 107.1 145.8 107.2 147.8 107.4 C 148.1 107.3 147.6 107.1 151.0 107.2 C 151.0 107.3 151.0 107.3 151.0 107.4 C 149.4 107.3 149.0 107.8 153.0 107.8 C 153.2 107.6 152.0 107.7 151.0 107.6 C 151.5 107.5 152.7 107.4 154.3 107.4 C 155.0 107.4 155.9 107.6 154.9 107.6 C 155.5 107.8 156.1 107.4 158.2 107.5 C 158.2 107.5 158.2 107.5 158.2 107.5 Z M 3.3 54.3 C 3.3 54.7 3.3 55.0 3.4 55.7 C 3.6 56.0 3.5 54.8 3.7 54.8 C 3.7 53.9 3.4 54.6 3.3 54.3 C 3.3 54.3 3.3 54.3 3.3 54.3 Z M 8.1 42.3 C 7.9 42.3 7.7 43.1 7.0 44.0 C 7.0 44.4 7.7 43.2 7.8 43.3 C 8.6 42.2 7.3 43.4 8.1 42.3 C 8.1 42.3 8.1 42.3 8.1 42.3 Z M 5.2 47.4 C 4.8 47.7 5.1 47.9 5.5 46.9 C 5.6 47.1 5.6 47.3 5.4 47.9 C 5.9 47.4 5.6 46.8 6.3 45.8 C 6.0 46.1 5.6 46.6 5.2 47.4 C 5.2 47.4 5.2 47.4 5.2 47.4 Z M 4.5 49.1 C 4.5 49.8 4.1 50.1 4.0 51.3 C 4.2 51.1 4.8 48.6 4.9 48.2 C 4.9 47.8 4.0 50.4 4.5 49.1 C 4.5 49.1 4.5 49.1 4.5 49.1 Z M 91.1 102.2 C 91.7 102.3 91.6 102.2 91.7 102.1 C 93.6 102.8 96.2 103.1 94.1 103.1 C 96.1 103.2 97.9 103.8 99.6 104.1 C 101.0 104.3 100.3 103.9 101.5 104.1 C 103.3 104.4 100.5 104.1 100.8 104.2 C 101.2 104.5 101.8 104.1 104.0 104.5 C 103.4 104.0 105.8 104.8 105.2 104.3 C 106.4 104.6 106.8 104.5 108.4 104.7 C 108.2 104.5 106.7 104.3 106.5 104.1 C 105.8 103.8 105.7 104.3 107.1 104.3 C 106.2 104.5 104.1 103.9 103.4 104.0 C 102.6 103.6 105.4 104.2 104.7 103.8 C 104.1 103.8 103.6 103.8 103.4 103.8 C 102.5 103.7 101.9 103.5 101.6 103.4 C 102.1 103.4 102.2 103.5 102.2 103.5 C 103.3 103.7 101.1 103.0 103.5 103.3 C 103.1 103.1 102.0 103.0 102.2 102.9 C 101.5 102.6 102.2 103.6 99.7 103.0 C 98.1 103.0 103.6 103.7 102.1 104.0 C 98.7 103.5 100.6 103.4 97.9 103.0 C 97.9 103.1 97.9 103.2 97.2 103.1 C 97.3 103.2 98.3 103.3 99.0 103.4 C 98.9 103.5 97.9 103.4 97.2 103.3 C 97.3 103.3 97.8 103.4 97.8 103.5 C 95.5 103.1 95.8 102.6 97.9 102.8 C 97.9 102.6 95.0 102.2 94.2 102.2 C 95.0 102.5 94.1 102.3 94.8 102.7 C 95.4 102.8 95.2 102.6 95.4 102.6 C 96.5 102.8 95.5 102.8 95.4 102.8 C 94.2 102.6 94.2 102.4 93.0 102.4 C 93.3 102.4 93.6 102.4 93.6 102.3 C 93.0 102.2 92.4 102.1 91.8 102.0 C 91.8 102.1 91.0 102.0 91.1 102.2 C 91.1 102.2 91.1 102.2 91.1 102.2 Z M 123.6 106.5 C 125.8 106.7 124.7 106.4 123.7 106.3 C 124.1 106.3 124.9 106.3 125.6 106.3 C 125.0 106.2 124.4 106.2 122.4 106.0 C 124.2 105.8 122.4 105.3 119.2 105.0 C 118.3 105.4 120.9 105.7 119.8 105.9 C 122.2 105.9 123.4 106.2 123.6 106.5 C 123.6 106.5 123.6 106.5 123.6 106.5 Z M 15.5 34.8 C 14.6 35.6 13.7 36.3 12.9 37.1 C 13.1 37.2 16.0 34.9 15.5 34.8 C 15.5 34.8 15.5 34.8 15.5 34.8 Z M 101.5 7.1 C 102.1 7.0 102.1 7.0 102.2 7.1 C 104.0 6.8 101.3 7.0 102.2 6.7 C 101.5 6.8 100.9 6.8 100.3 6.9 C 100.2 7.0 102.8 6.8 100.9 7.2 C 101.1 7.2 101.5 7.1 101.5 7.1 C 101.5 7.1 101.5 7.1 101.5 7.1 Z M 3.7 53.5 C 3.7 54.3 4.0 53.8 3.9 55.7 C 4.1 55.0 4.0 54.6 4.1 53.5 C 4.0 53.5 3.8 53.5 3.7 53.5 C 3.7 53.5 3.7 53.5 3.7 53.5 Z M 82.1 101.1 C 83.5 101.6 84.0 101.1 86.9 101.8 C 85.5 101.2 83.8 101.3 82.1 101.1 C 82.1 101.1 82.1 101.1 82.1 101.1 Z M 188.1 105.7 C 187.2 105.7 188.4 105.5 186.8 105.5 C 185.9 105.7 185.6 105.8 184.2 105.9 C 186.1 106.1 189.3 105.6 190.7 105.9 C 192.2 105.7 192.1 105.4 192.5 105.2 C 191.8 105.3 191.4 105.3 191.3 105.3 C 190.4 105.7 189.2 105.2 188.1 105.7 C 188.1 105.7 188.1 105.7 188.1 105.7 Z M 115.4 105.4 C 114.2 105.2 116.2 105.3 116.6 105.1 C 117.5 105.2 117.2 105.4 117.3 105.5 C 118.4 105.6 118.7 105.5 118.6 105.3 C 116.5 105.1 113.9 104.8 115.4 104.6 C 113.4 104.4 114.5 104.8 113.5 104.8 C 112.4 104.5 113.5 104.5 113.5 104.3 C 113.0 104.3 111.5 104.4 111.6 104.1 C 108.6 104.1 109.9 104.7 112.1 105.3 C 114.2 105.2 111.8 104.9 115.4 105.4 C 115.4 105.4 115.4 105.4 115.4 105.4 Z M 38.5 88.4 C 38.7 88.6 40.1 89.1 40.1 89.2 C 41.9 89.7 43.5 90.1 45.3 90.4 C 45.0 90.1 42.6 89.4 43.6 90.0 C 42.9 89.5 41.3 88.8 40.4 88.3 C 38.8 87.6 38.1 87.9 38.0 87.4 C 36.4 86.9 37.3 87.3 34.9 86.2 C 38.6 88.1 33.6 85.7 33.2 85.9 C 35.4 86.9 37.3 87.7 37.1 87.3 C 38.8 88.1 40.6 88.9 41.0 89.3 C 40.8 89.3 39.4 88.8 38.5 88.4 C 38.5 88.4 38.5 88.4 38.5 88.4 Z M 48.9 91.5 C 48.2 91.3 47.4 91.1 46.3 90.7 C 46.9 91.0 47.1 91.2 47.0 91.3 C 49.2 92.0 49.4 91.9 49.8 92.3 C 51.0 92.7 49.6 91.9 51.4 92.6 C 51.3 92.4 50.4 92.2 50.4 92.1 C 50.2 92.2 49.9 92.2 48.9 91.5 C 48.9 91.5 48.9 91.5 48.9 91.5 Z M 65.1 96.7 C 66.5 97.1 64.4 96.4 65.2 96.4 C 64.8 96.3 62.1 95.6 62.5 95.5 C 61.8 95.0 58.9 94.8 59.3 94.5 C 58.7 94.4 58.8 94.5 58.7 94.6 C 60.6 95.1 60.5 95.2 59.2 94.9 C 59.3 95.1 60.5 95.3 61.3 95.6 C 61.4 95.5 60.7 95.2 60.9 95.1 C 62.4 95.7 63.6 96.2 65.1 96.7 C 65.1 96.7 65.1 96.7 65.1 96.7 Z M 171.9 4.6 C 170.4 4.6 169.4 4.6 168.7 4.6 C 169.1 4.8 169.9 4.7 170.6 4.7 C 170.8 4.8 170.1 4.8 169.3 4.8 C 170.1 5.0 172.8 4.9 171.9 4.6 C 171.9 4.6 171.9 4.6 171.9 4.6 Z M 158.9 4.3 C 157.4 4.3 156.5 4.3 156.3 4.5 C 156.8 4.6 156.6 4.4 157.6 4.4 C 158.2 4.5 158.6 4.6 158.9 4.7 C 159.5 4.7 159.4 4.6 159.6 4.5 C 160.1 4.5 160.1 4.5 160.2 4.6 C 162.0 4.4 158.1 4.6 158.9 4.3 C 158.9 4.3 158.9 4.3 158.9 4.3 Z M 56.0 94.1 C 55.6 93.8 55.3 93.6 54.0 93.2 C 54.2 93.5 53.2 93.1 52.4 92.9 C 53.5 93.5 54.2 93.6 56.0 94.1 C 56.0 94.1 56.0 94.1 56.0 94.1 Z M 79.9 11.2 C 78.1 11.3 78.4 11.7 75.8 12.0 C 75.9 12.1 75.9 12.1 75.9 12.2 C 77.4 11.7 78.1 11.7 79.9 11.2 C 79.9 11.2 79.9 11.2 79.9 11.2 Z M 302.5 64.3 C 302.4 64.1 301.8 65.4 301.6 65.4 C 301.8 65.9 301.0 66.2 299.3 68.5 C 299.2 68.5 299.3 68.3 299.5 68.0 C 298.1 69.8 300.1 67.6 300.5 67.5 C 301.5 66.0 301.8 65.9 302.5 64.3 C 302.5 64.3 302.5 64.3 302.5 64.3 Z M 168.7 106.0 C 168.5 106.1 168.9 106.1 169.3 106.1 C 169.7 106.0 170.2 106.0 170.6 106.0 C 170.4 105.7 168.3 105.6 169.9 105.2 C 169.3 105.2 169.3 105.3 169.3 105.3 C 166.1 106.1 163.6 105.0 159.5 105.5 C 158.9 105.6 159.0 105.6 158.9 105.7 C 159.4 105.7 159.4 105.7 159.5 105.8 C 160.0 105.4 163.8 105.8 162.1 105.9 C 162.2 106.0 162.7 105.9 162.7 105.9 C 163.2 105.9 163.6 105.9 164.1 105.9 C 163.8 105.8 162.9 105.8 162.7 105.7 C 164.8 105.7 167.4 105.7 166.1 106.1 C 167.3 106.0 167.8 105.9 168.6 105.8 C 169.5 105.7 169.5 106.0 168.7 106.0 C 168.7 106.0 168.7 106.0 168.7 106.0 Z M 185.4 105.1 C 187.4 105.0 186.7 104.8 188.7 104.7 C 187.4 104.6 185.9 105.0 184.2 104.9 C 184.4 105.0 185.3 105.0 185.4 105.1 C 185.4 105.1 185.4 105.1 185.4 105.1 Z M 147.8 105.8 C 148.2 105.5 146.4 105.4 144.5 105.4 C 144.1 105.7 145.8 105.7 147.8 105.8 C 147.8 105.8 147.8 105.8 147.8 105.8 Z M 156.2 105.8 C 158.2 105.7 153.8 105.7 154.9 105.5 C 154.0 105.5 153.1 105.5 153.0 105.4 C 152.3 105.5 152.3 105.6 151.0 105.6 C 151.1 105.7 153.2 105.6 153.0 105.8 C 154.5 105.7 154.7 105.7 156.2 105.8 C 156.2 105.8 156.2 105.8 156.2 105.8 Z M 157.5 105.8 C 158.8 105.7 157.2 105.3 155.6 105.3 C 156.2 105.5 156.6 105.7 157.5 105.8 C 157.5 105.8 157.5 105.8 157.5 105.8 Z M 14.0 72.5 C 14.6 73.0 14.3 72.5 15.0 73.1 C 15.1 73.0 12.7 70.8 14.7 72.6 C 14.2 71.7 13.5 71.6 12.7 70.7 C 12.9 71.0 13.1 71.3 12.6 70.9 C 12.2 70.7 14.5 72.6 14.0 72.5 C 14.0 72.5 14.0 72.5 14.0 72.5 Z M 16.6 74.7 C 17.1 75.2 16.9 74.9 16.7 74.7 C 16.8 74.7 17.5 75.3 18.1 75.7 C 18.1 75.9 17.3 74.7 17.5 74.5 C 15.1 72.8 16.7 74.5 16.6 74.7 C 16.6 74.7 16.6 74.7 16.6 74.7 Z M 19.1 76.5 C 20.6 77.8 23.2 79.4 24.6 80.0 C 23.4 78.9 20.0 76.8 19.1 76.5 C 19.1 76.5 19.1 76.5 19.1 76.5 Z M 7.6 63.9 C 8.5 66.4 12.1 70.7 9.5 66.4 C 9.5 66.7 7.7 64.0 7.2 62.7 C 7.1 62.7 6.3 61.2 6.5 61.2 C 5.9 60.2 7.7 64.5 7.6 63.9 C 7.6 63.9 7.6 63.9 7.6 63.9 Z M 27.3 81.0 C 26.2 80.5 27.3 81.6 25.8 80.6 C 24.9 80.1 26.0 80.8 25.7 80.8 C 27.6 81.9 32.0 83.8 32.3 84.3 C 33.4 84.7 33.8 84.7 36.0 85.7 C 36.1 85.6 28.4 82.3 27.2 81.1 C 27.4 81.1 29.8 82.4 27.3 81.0 C 27.3 81.0 27.3 81.0 27.3 81.0 Z M 80.2 12.6 C 80.3 12.3 77.9 13.0 78.4 12.6 C 77.1 13.2 75.9 13.2 74.5 13.8 C 74.0 13.8 74.1 13.4 72.1 13.8 C 72.1 14.0 73.1 13.7 72.2 14.1 C 70.4 14.5 70.8 14.1 68.8 14.7 C 69.2 15.0 64.5 15.8 65.0 16.1 C 66.1 15.8 66.0 15.6 67.7 15.3 C 68.3 15.2 68.1 15.4 68.9 15.2 C 68.4 15.5 67.4 15.4 66.7 15.8 C 66.9 15.9 68.2 15.6 68.4 15.7 C 69.2 15.5 68.2 15.7 68.4 15.5 C 70.5 14.9 68.3 16.0 70.7 15.4 C 70.1 15.3 70.1 15.3 70.6 14.9 C 71.5 14.8 74.4 14.0 72.9 14.7 C 73.1 14.8 74.8 14.2 74.5 14.1 C 75.5 13.8 75.6 13.9 75.7 14.0 C 78.1 13.4 78.4 13.1 77.9 13.0 C 78.3 12.6 78.7 13.0 80.2 12.6 C 80.2 12.6 80.2 12.6 80.2 12.6 Z M 6.1 51.3 C 6.1 50.4 5.9 52.4 5.7 53.3 C 5.9 52.2 6.2 52.6 6.5 51.4 C 6.3 51.8 6.2 51.7 6.4 51.0 C 6.4 50.8 5.9 52.5 6.1 51.3 C 6.1 51.3 6.1 51.3 6.1 51.3 Z M 40.7 87.7 C 41.5 88.2 45.8 89.6 48.2 90.5 C 47.9 90.0 42.1 88.5 41.5 87.8 C 40.3 87.4 42.2 88.2 40.7 87.7 C 40.7 87.7 40.7 87.7 40.7 87.7 Z M 59.0 17.2 C 58.4 17.4 58.7 17.4 59.0 17.3 C 58.9 17.5 57.7 17.7 56.9 18.0 C 58.1 17.8 56.7 18.3 57.0 18.5 C 56.4 18.6 56.1 18.7 56.1 18.8 C 55.9 18.4 52.8 20.1 56.1 19.1 C 55.5 19.1 55.7 19.0 57.1 18.5 C 58.6 18.3 59.7 17.7 60.3 17.9 C 61.3 17.6 61.6 17.3 62.9 17.0 C 63.3 17.1 64.5 16.9 63.6 17.5 C 66.0 16.9 64.2 16.7 66.2 16.2 C 68.1 15.8 65.3 16.7 65.8 16.8 C 66.3 16.6 66.2 16.8 66.4 16.8 C 67.0 16.6 67.0 16.4 66.3 16.5 C 66.5 16.4 68.4 15.7 67.9 16.1 C 69.0 15.8 66.0 15.8 64.5 16.5 C 63.6 16.8 63.5 16.3 64.4 16.1 C 64.1 16.0 62.4 17.0 62.8 16.4 C 62.0 16.6 61.3 16.8 60.6 17.0 C 60.7 17.0 61.2 16.9 61.2 17.0 C 60.5 17.1 59.8 17.3 59.1 17.6 C 59.6 17.3 59.6 17.2 59.0 17.2 C 59.0 17.2 59.0 17.2 59.0 17.2 Z M 31.0 83.3 C 32.7 84.2 33.2 84.2 34.7 84.8 C 34.2 84.4 30.3 82.7 31.0 83.3 C 31.0 83.3 31.0 83.3 31.0 83.3 Z M 90.4 11.5 C 90.2 11.5 89.1 11.7 89.1 11.6 C 91.0 11.2 88.9 11.4 90.3 10.7 C 87.9 11.3 87.2 12.0 90.4 11.7 C 92.7 11.3 88.0 11.9 90.4 11.5 C 90.4 11.5 90.4 11.5 90.4 11.5 Z M 83.2 12.6 C 81.8 13.0 85.4 12.4 86.2 12.4 C 86.2 12.4 86.3 12.5 86.3 12.6 C 88.2 11.9 85.5 12.2 87.3 11.5 C 84.9 11.7 83.9 11.8 82.0 12.3 C 82.1 12.4 82.5 12.3 82.5 12.2 C 84.0 12.0 83.1 12.5 81.4 12.7 C 81.9 12.7 83.3 12.4 84.4 12.3 C 84.1 12.3 83.7 12.3 83.8 12.2 C 85.0 11.9 84.6 12.2 85.5 12.0 C 85.5 12.1 83.3 12.7 83.2 12.6 C 83.2 12.6 83.2 12.6 83.2 12.6 Z M 208.1 9.4 C 206.8 9.3 209.3 9.9 209.2 10.3 C 210.5 10.5 210.8 10.4 211.6 10.5 C 211.2 10.3 209.8 10.1 209.2 9.9 C 209.5 9.6 211.1 10.2 211.7 10.0 C 212.5 9.8 208.6 9.8 208.1 9.4 C 208.1 9.4 208.1 9.4 208.1 9.4 Z M 27.9 29.7 C 27.3 30.1 27.7 29.9 28.0 29.8 C 27.9 29.9 26.8 30.5 26.8 30.4 C 25.8 31.0 27.4 30.2 26.2 30.9 C 26.1 31.2 28.0 29.9 28.0 29.8 C 29.4 29.0 28.5 29.9 28.9 29.8 C 30.1 29.1 29.6 29.2 31.5 28.3 C 30.3 28.7 29.2 29.1 27.9 29.7 C 27.9 29.7 27.9 29.7 27.9 29.7 Z M 94.5 10.4 C 94.7 10.3 93.1 11.0 91.5 11.0 C 89.4 11.3 92.8 11.1 91.0 11.3 C 92.5 11.1 94.5 10.7 96.9 10.3 C 97.5 10.0 93.5 10.7 95.7 10.3 C 95.6 10.2 95.1 10.3 95.1 10.4 C 94.6 10.5 94.5 10.4 94.5 10.4 C 94.5 10.4 94.5 10.4 94.5 10.4 Z M 92.1 11.3 C 92.3 11.4 92.8 11.3 92.8 11.2 C 93.6 11.1 93.6 11.3 92.8 11.4 C 93.9 11.6 93.7 11.1 95.8 10.9 C 94.9 10.9 94.5 10.8 96.4 10.7 C 97.9 10.2 92.8 11.0 92.1 11.3 C 92.1 11.3 92.1 11.3 92.1 11.3 Z M 188.0 7.5 C 188.1 7.6 189.5 7.7 190.5 7.8 C 189.2 7.9 184.1 7.4 183.5 7.2 C 182.9 7.2 182.3 7.2 182.2 7.1 C 182.2 7.2 180.8 7.2 181.5 7.3 C 181.4 7.4 180.3 7.3 180.3 7.4 C 178.3 7.2 180.8 7.2 180.3 7.1 C 177.9 7.1 178.5 7.0 175.8 6.8 C 176.2 7.1 179.2 7.2 178.9 7.5 C 181.1 7.3 183.4 7.6 184.7 8.0 C 182.7 7.5 190.2 7.8 193.6 8.2 C 193.5 8.4 194.7 8.4 196.1 8.7 C 197.1 9.0 196.8 8.5 194.9 8.4 C 195.0 8.2 197.6 8.6 198.7 8.7 C 197.4 8.4 198.2 8.4 197.5 8.3 C 195.0 8.0 197.2 8.3 196.8 8.4 C 196.2 8.4 195.6 8.3 194.9 8.2 C 198.2 8.2 190.1 7.8 193.0 8.0 C 190.4 7.8 190.4 7.5 188.0 7.5 C 188.0 7.5 188.0 7.5 188.0 7.5 Z M 127.1 7.0 C 126.7 7.1 124.6 7.4 124.5 7.2 C 121.9 7.5 124.3 7.6 121.3 7.8 C 121.5 7.9 122.6 7.8 122.6 7.9 C 123.8 7.7 124.9 7.6 124.6 7.3 C 125.9 7.3 126.2 7.2 127.1 7.1 C 126.8 7.2 126.3 7.3 125.2 7.4 C 125.0 7.6 125.5 7.7 127.1 7.6 C 127.9 7.3 127.4 7.2 127.1 7.0 C 127.1 7.0 127.1 7.0 127.1 7.0 Z M 120.7 7.8 C 120.4 7.7 120.0 7.7 120.1 7.6 C 119.1 7.4 119.7 7.9 118.8 8.0 C 118.0 8.1 118.3 7.9 118.1 7.8 C 117.0 8.0 116.2 8.1 115.6 8.0 C 113.9 8.3 117.6 8.1 118.2 8.1 C 119.4 8.0 119.0 7.9 120.7 7.8 C 120.7 7.8 120.7 7.8 120.7 7.8 Z M 101.8 9.5 C 101.5 9.3 100.9 9.7 100.0 9.8 C 100.7 9.9 102.4 9.6 101.3 10.0 C 103.1 9.9 103.2 9.8 105.0 9.6 C 106.2 9.6 105.1 9.3 103.1 9.7 C 103.4 9.6 104.2 9.4 104.3 9.3 C 105.6 9.6 108.7 8.5 106.8 9.1 C 106.3 9.1 105.9 9.1 105.6 9.0 C 105.2 9.3 100.9 9.7 101.8 9.5 C 101.8 9.5 101.8 9.5 101.8 9.5 Z M 43.5 23.2 C 45.1 22.6 46.0 22.2 46.9 21.9 C 47.7 21.6 49.0 21.2 50.0 20.9 C 50.1 21.0 50.0 21.1 49.6 21.2 C 50.0 21.2 50.7 20.9 51.5 20.6 C 51.4 20.5 51.0 20.7 51.0 20.7 C 49.4 21.1 50.7 20.6 50.9 20.4 C 48.9 20.8 45.8 22.4 44.2 22.6 C 43.0 23.1 44.5 22.6 43.5 23.2 C 43.5 23.2 43.5 23.2 43.5 23.2 Z M 301.4 62.0 C 301.4 62.2 301.1 62.8 301.3 62.8 C 301.5 62.2 301.6 61.8 301.7 61.2 C 301.3 62.2 301.1 62.0 300.4 63.3 C 300.7 62.9 300.9 63.1 301.4 62.0 C 301.4 62.0 301.4 62.0 301.4 62.0 Z M 108.1 8.8 C 108.1 8.9 108.2 9.0 107.5 9.1 C 107.3 9.3 109.3 9.0 109.3 9.2 C 110.0 9.1 109.8 8.9 110.6 8.9 C 110.3 8.8 108.6 9.0 109.3 8.7 C 109.8 8.6 109.9 8.6 110.0 8.7 C 111.2 8.4 109.3 8.6 108.1 8.8 C 108.1 8.8 108.1 8.8 108.1 8.8 Z M 214.1 10.5 C 213.3 10.4 214.1 10.6 214.7 10.7 C 212.9 10.7 215.7 11.3 215.8 11.5 C 215.1 11.2 212.7 11.0 212.2 10.8 C 211.5 10.8 212.3 11.1 210.4 10.9 C 210.6 11.1 212.7 11.2 212.2 11.0 C 212.7 11.4 214.8 11.3 214.6 11.6 C 217.3 12.0 218.0 12.0 218.3 11.7 C 215.6 11.4 217.0 11.2 214.7 11.0 C 214.7 10.9 215.4 11.0 215.9 11.0 C 215.7 10.9 214.8 10.7 214.1 10.5 C 214.1 10.5 214.1 10.5 214.1 10.5 Z M 147.8 6.4 C 146.4 6.4 146.4 6.6 146.5 6.8 C 147.1 6.7 147.9 6.7 149.1 6.7 C 148.8 6.5 147.1 6.6 147.8 6.4 C 147.8 6.4 147.8 6.4 147.8 6.4 Z M 204.3 9.5 C 204.1 9.4 203.7 9.4 203.7 9.4 C 202.1 9.2 201.7 9.1 201.2 8.9 C 200.3 8.8 200.6 9.0 200.5 9.1 C 202.0 9.1 201.7 9.4 203.6 9.6 C 203.5 9.5 203.8 9.4 204.3 9.5 C 204.3 9.5 204.3 9.5 204.3 9.5 Z M 161.5 6.5 C 160.7 6.5 161.1 6.6 161.5 6.6 C 160.6 6.9 157.9 6.6 156.9 6.7 C 156.8 6.9 160.1 6.9 156.3 7.0 C 156.9 7.1 160.4 7.0 162.1 7.1 C 161.7 7.3 159.4 7.3 159.5 7.5 C 161.5 7.4 163.7 7.3 164.0 7.0 C 161.1 6.9 162.2 6.7 161.5 6.5 C 161.5 6.5 161.5 6.5 161.5 6.5 Z M 164.7 6.7 C 164.4 6.6 163.9 6.8 162.8 6.7 C 164.4 7.0 165.3 6.9 168.6 7.1 C 168.6 7.0 168.6 7.0 168.6 6.9 C 169.2 7.0 169.9 7.0 170.6 7.0 C 167.7 6.6 167.0 6.8 164.1 6.8 C 163.9 6.7 164.3 6.7 164.7 6.7 C 164.7 6.7 164.7 6.7 164.7 6.7 Z M 80.3 13.3 C 81.1 13.3 81.8 13.3 83.3 13.1 C 83.1 12.9 82.2 12.9 80.3 13.3 C 80.3 13.3 80.3 13.3 80.3 13.3 Z M 206.7 9.9 C 208.4 10.0 205.1 9.7 206.1 10.1 C 207.4 10.4 208.8 10.6 209.1 10.9 C 211.6 10.9 206.4 10.2 206.7 9.9 C 206.7 9.9 206.7 9.9 206.7 9.9 Z M 195.5 9.3 C 194.7 9.2 194.8 8.8 195.5 9.1 C 197.3 9.3 194.0 8.7 196.7 9.1 C 195.6 8.8 192.9 8.5 191.7 8.5 C 191.7 8.7 194.1 8.9 194.2 9.1 C 194.3 9.1 193.9 9.1 193.6 9.1 C 193.8 9.2 194.4 9.1 195.5 9.3 C 195.5 9.3 195.5 9.3 195.5 9.3 Z M 186.0 8.1 C 187.0 8.3 188.3 8.5 190.4 8.7 C 189.0 8.4 188.2 8.1 186.0 8.1 C 186.0 8.1 186.0 8.1 186.0 8.1 Z M 296.5 42.8 C 295.8 41.9 296.3 42.9 296.3 43.0 C 297.0 43.9 297.1 43.7 297.8 44.8 C 297.8 44.3 296.8 43.5 296.5 42.8 C 296.5 42.8 296.5 42.8 296.5 42.8 Z M 298.8 46.1 C 298.7 46.3 299.5 47.5 299.4 47.7 C 300.2 48.2 300.0 49.6 300.3 49.4 C 300.4 49.7 300.5 50.0 300.7 50.5 C 300.7 49.4 299.5 47.2 298.8 46.1 C 298.8 46.1 298.8 46.1 298.8 46.1 Z M 175.0 7.9 C 173.3 7.8 175.5 8.3 173.7 8.2 C 173.6 8.3 177.0 8.5 175.0 8.5 C 177.6 8.8 174.8 8.0 175.0 7.9 C 175.0 7.9 175.0 7.9 175.0 7.9 Z M 143.3 7.8 C 143.4 7.6 141.0 7.8 140.1 7.8 C 140.1 7.9 140.8 7.9 141.3 7.9 C 141.1 8.0 140.8 8.0 140.1 8.1 C 140.6 8.2 142.3 7.9 143.3 7.8 C 143.3 7.8 143.3 7.8 143.3 7.8 Z M 178.5 3.9 C 179.6 4.2 180.9 4.5 181.7 4.2 C 182.8 4.4 180.9 4.4 182.3 4.6 C 184.2 4.6 183.3 4.8 186.2 4.9 C 185.6 5.1 187.8 5.3 188.1 5.5 C 186.9 5.5 185.4 5.1 184.9 5.3 C 185.9 5.3 185.3 5.5 184.9 5.3 C 182.9 5.1 187.3 5.2 184.9 4.9 C 184.2 5.1 180.8 4.3 178.5 4.2 C 179.4 4.1 176.8 3.8 178.5 3.9 C 178.5 3.9 178.5 3.9 178.5 3.9 Z M 190.0 5.2 C 191.6 5.3 192.4 5.9 191.9 5.8 C 191.9 5.7 190.2 5.6 190.0 5.6 C 190.4 5.7 190.8 5.7 190.7 5.8 C 187.8 5.5 188.8 5.4 188.1 5.2 C 189.7 5.2 190.1 5.4 190.7 5.3 C 190.3 5.3 190.0 5.2 190.0 5.2 C 190.0 5.2 190.0 5.2 190.0 5.2 Z M 222.3 13.2 C 222.0 13.0 221.7 13.1 221.1 13.1 C 221.0 12.7 217.9 12.7 217.5 12.4 C 218.3 12.4 219.8 12.7 220.5 12.7 C 219.7 12.5 219.6 12.4 218.7 12.4 C 219.0 12.2 220.7 12.5 221.2 12.4 C 221.3 12.6 222.2 12.5 222.4 12.7 C 220.1 12.4 223.6 13.4 222.3 13.2 C 222.3 13.2 222.3 13.2 222.3 13.2 Z M 160.2 7.8 C 159.9 8.0 162.7 8.6 160.2 8.9 C 159.6 8.7 159.3 8.5 159.5 8.2 C 157.9 8.3 157.2 8.1 156.2 8.3 C 153.3 7.6 158.5 8.4 160.2 7.8 C 160.2 7.8 160.2 7.8 160.2 7.8 Z M 149.7 8.0 C 150.3 7.8 148.8 7.8 149.1 7.6 C 150.4 7.8 154.4 7.5 153.0 7.7 C 151.7 7.8 151.7 8.0 149.7 8.0 C 149.7 8.0 149.7 8.0 149.7 8.0 Z M 75.6 97.5 C 73.7 97.3 72.8 96.6 73.9 96.7 C 73.4 96.9 76.2 97.3 75.6 97.5 C 75.6 97.5 75.6 97.5 75.6 97.5 Z M 7.0 69.4 C 7.8 70.7 8.5 71.4 8.5 71.7 C 7.4 70.5 7.7 70.5 6.9 69.5 C 6.7 69.5 6.2 68.9 6.2 68.7 C 6.6 69.3 6.7 69.1 7.0 69.4 C 7.0 69.4 7.0 69.4 7.0 69.4 Z M 110.2 4.6 C 110.0 4.5 109.2 4.5 109.5 4.3 C 111.4 4.2 113.6 3.8 115.2 3.5 C 115.2 3.6 115.2 3.7 115.2 3.8 C 112.2 4.0 111.4 4.3 110.2 4.6 C 110.2 4.6 110.2 4.6 110.2 4.6 Z M 106.3 4.5 C 106.0 4.6 107.1 4.8 105.7 5.0 C 105.8 4.8 103.3 4.8 104.4 4.6 C 104.8 4.8 105.4 4.7 106.3 4.5 C 106.3 4.5 106.3 4.5 106.3 4.5 Z M 214.6 7.3 C 216.1 7.5 214.0 7.0 214.0 6.9 C 215.1 7.1 216.6 7.3 217.0 7.5 C 216.0 7.3 215.1 7.6 214.6 7.3 C 214.6 7.3 214.6 7.3 214.6 7.3 Z M 191.3 5.2 C 188.0 4.9 189.5 4.6 186.3 4.3 C 187.6 4.3 190.5 4.5 191.4 4.4 C 191.3 4.5 192.1 4.6 192.0 4.8 C 190.8 4.7 190.6 4.6 189.5 4.5 C 189.9 4.8 189.9 4.7 189.4 4.9 C 190.3 4.9 190.9 5.0 191.4 5.0 C 191.1 5.1 192.3 5.2 191.3 5.2 C 191.3 5.2 191.3 5.2 191.3 5.2 Z M 213.9 7.8 C 215.2 7.9 216.2 8.4 215.1 8.3 C 215.0 8.1 214.1 8.2 213.9 8.0 C 215.7 8.2 212.4 7.7 213.3 7.6 C 214.4 7.8 214.8 7.7 214.5 7.5 C 215.3 7.6 216.3 7.8 216.4 7.9 C 215.9 7.8 215.2 7.7 215.2 7.8 C 215.5 7.8 215.9 7.9 215.8 7.9 C 214.7 7.8 214.2 7.8 213.9 7.8 C 213.9 7.8 213.9 7.8 213.9 7.8 Z M 205.3 6.7 C 207.0 6.9 207.1 7.2 207.7 7.4 C 205.4 7.0 205.1 6.7 203.4 6.3 C 205.3 6.6 207.2 6.5 207.8 6.8 C 206.9 6.7 205.4 6.5 205.3 6.7 C 205.3 6.7 205.3 6.7 205.3 6.7 Z M 238.0 98.2 C 236.6 98.4 235.5 98.5 233.9 98.7 C 233.5 99.0 236.4 98.9 235.2 99.0 C 233.6 99.3 234.6 98.8 233.4 99.0 C 234.7 99.1 227.9 100.5 227.6 100.2 C 228.6 100.0 228.9 99.8 228.7 99.7 C 231.4 99.2 232.5 98.8 234.4 98.3 C 236.0 98.3 240.2 97.4 242.3 96.6 C 243.9 96.7 246.4 95.5 248.4 95.4 C 248.9 95.1 246.7 95.5 248.3 95.1 C 249.4 95.0 248.6 95.3 250.1 95.1 C 250.1 94.9 249.8 94.8 250.5 94.6 C 250.4 94.8 251.3 94.6 251.7 94.5 C 248.8 95.3 251.9 94.8 249.6 95.5 C 248.7 95.7 250.5 94.9 247.9 95.6 C 247.0 95.9 246.1 96.2 246.4 96.4 C 245.6 96.6 245.2 96.7 244.7 96.9 C 245.7 96.4 241.0 97.9 243.1 97.1 C 243.2 97.0 244.7 96.7 245.8 96.3 C 244.7 96.3 243.6 96.7 241.9 97.3 C 241.2 97.3 242.2 97.0 241.3 97.1 C 240.0 97.6 241.9 97.3 240.9 97.7 C 241.3 97.6 241.9 97.4 242.0 97.5 C 239.6 97.8 238.7 98.3 237.5 98.6 C 238.3 98.2 236.0 98.7 238.0 98.2 C 238.0 98.2 238.0 98.2 238.0 98.2 Z M 257.3 92.7 C 257.8 92.5 258.3 92.3 258.9 92.2 C 259.0 92.4 257.1 93.0 258.5 92.8 C 256.2 93.5 258.5 92.5 257.3 92.7 C 257.3 92.7 257.3 92.7 257.3 92.7 Z M 246.6 94.9 C 245.7 94.8 246.3 95.3 245.6 95.5 C 246.9 95.1 248.1 94.7 248.3 94.9 C 246.7 95.2 246.1 95.4 244.5 95.9 C 245.9 95.2 242.7 96.1 242.1 95.9 C 243.4 95.5 244.3 95.2 245.9 94.8 C 245.7 95.0 248.1 94.4 246.6 94.9 C 246.6 94.9 246.6 94.9 246.6 94.9 Z M 250.8 93.4 C 251.1 93.5 253.4 92.7 252.9 93.1 C 251.6 93.4 251.1 93.7 251.4 93.8 C 250.4 94.1 250.2 94.0 249.3 94.3 C 248.6 94.2 250.3 93.7 250.8 93.5 C 250.5 93.5 250.2 93.6 250.8 93.4 C 250.8 93.4 250.8 93.4 250.8 93.4 Z M 294.9 69.9 C 295.4 69.8 293.8 71.2 293.5 71.4 C 294.1 71.2 293.9 71.4 292.9 72.4 C 293.1 71.8 291.6 73.2 290.4 73.8 C 290.3 74.2 291.7 73.2 290.2 74.5 C 288.9 75.3 287.8 76.3 285.6 77.7 C 285.0 77.8 285.9 77.1 286.5 76.7 C 285.0 77.7 285.3 77.2 284.2 77.9 C 284.5 77.9 283.6 78.6 283.1 78.7 C 285.1 77.4 280.2 80.0 282.3 78.7 C 282.5 78.7 283.0 78.3 283.5 78.0 C 283.1 78.6 285.7 76.8 286.4 76.6 C 287.1 75.5 289.9 73.8 292.5 71.9 C 292.7 71.8 292.0 72.6 292.6 72.1 C 292.6 71.9 293.4 71.2 293.7 70.9 C 293.8 71.0 294.1 70.8 294.6 70.3 C 294.6 70.3 294.6 70.2 294.9 69.9 C 294.9 69.9 294.9 69.9 294.9 69.9 Z M 134.8 103.6 C 134.9 103.2 130.8 103.2 129.6 103.3 C 129.9 102.8 137.1 103.3 134.8 103.6 C 134.8 103.6 134.8 103.6 134.8 103.6 Z M 160.1 103.7 C 159.0 103.7 159.8 103.9 158.8 104.0 C 158.8 103.7 156.3 104.2 156.2 104.0 C 157.4 103.7 158.2 103.8 160.1 103.7 C 160.1 103.7 160.1 103.7 160.1 103.7 Z M 183.4 102.9 C 181.5 103.0 184.4 102.9 184.0 103.1 C 182.4 103.2 180.7 103.3 180.8 103.0 C 182.3 103.1 183.2 102.7 183.4 102.9 C 183.4 102.9 183.4 102.9 183.4 102.9 Z M 148.4 103.4 C 146.9 103.3 149.5 103.0 149.7 103.2 C 148.0 103.3 150.9 103.5 152.3 103.4 C 152.2 103.7 151.6 103.6 152.3 103.9 C 150.0 104.0 151.9 103.6 150.3 103.6 C 149.3 103.8 150.4 103.7 150.3 104.0 C 149.7 103.9 149.1 103.9 148.4 103.9 C 148.4 103.8 148.4 103.7 148.4 103.5 C 149.2 103.5 150.0 103.5 149.7 103.4 C 149.1 103.4 149.0 103.4 148.4 103.4 C 148.4 103.4 148.4 103.4 148.4 103.4 Z M 263.7 87.1 C 262.4 87.6 263.6 87.3 264.6 87.0 C 264.8 86.8 265.4 86.0 266.9 85.7 C 263.9 87.1 268.0 85.7 266.3 86.5 C 265.5 86.5 263.7 87.5 262.1 88.0 C 261.3 88.1 262.9 87.2 263.7 87.1 C 263.7 87.1 263.7 87.1 263.7 87.1 Z M 269.4 85.1 C 269.2 85.1 268.7 85.3 267.8 85.7 C 268.7 85.1 267.3 85.6 268.5 85.0 C 268.4 85.2 272.4 83.6 270.1 84.6 C 267.9 85.4 270.7 84.5 271.7 84.1 C 270.7 84.5 268.9 85.6 268.6 85.5 C 269.1 85.3 269.6 85.1 269.4 85.1 C 269.4 85.1 269.4 85.1 269.4 85.1 Z M 299.6 62.4 C 299.5 62.2 299.2 62.8 299.0 63.0 C 300.0 61.3 300.4 59.8 300.7 59.0 C 300.5 59.8 300.7 59.8 300.9 59.4 C 300.6 60.2 300.6 60.5 300.4 60.7 C 300.5 59.9 300.1 61.4 299.6 62.4 C 299.6 62.4 299.6 62.4 299.6 62.4 Z M 299.6 62.4 " fill="#000000"></path><image xlink:href="../../CEFA4209-80C9-472B-8D2B-058B96531B72/assets/B3801F04380499D666F22482CDF7C3B4.png" width="87.00" height="38.00" transform="matrix(1.00, 0.00, -0.00, -1.00, 112.0, 70.0)"></image><g><clipPath id="clip-726"><path d="M 5.5 5.5 L 303.7 5.5 L 303.7 105.5 L 5.5 105.5 Z M 5.5 5.5 "></path></clipPath><g clip-path="url(#clip-726)"><text xml:space="preserve" font-family="Chalkduster" font-size="32.0" fill="#000000" transform="matrix(1.00, 0.00, -0.00, -1.00, 116.0, 41.0)">C</text><text xml:space="preserve" font-family="Chalkduster" font-size="32.0" fill="#000000" transform="matrix(1.00, 0.00, -0.00, -1.00, 142.0, 41.0)">A</text><text xml:space="preserve" font-family="Chalkduster" font-size="32.0" fill="#000000" transform="matrix(1.00, 0.00, -0.00, -1.00, 164.7, 41.0)">W</text></g></g></g></svg>