<?xml version="1.0" encoding="UTF-8" standalone="no"?><svg xmlns="http://www.w3.org/2000/svg" xmlns:xlink="http://www.w3.org/1999/xlink" clip-rule="evenodd" stroke-miterlimit="4.00" viewBox="0 0 1024 768"><desc>SVG generated by Keynote</desc><defs></defs><g transform="matrix(1.00, 0.00, -0.00, -1.00, 0.0, 768.0)"><g><clipPath id="clip-4"><path d="M 0.0 768.0 L 1024.0 768.0 L 1024.0 0.0 L 0.0 0.0 Z M 0.0 768.0 "></path></clipPath><g clip-path="url(#clip-4)"><image xlink:href="../../956FEF66-F126-4898-9939-EAE9E9BE3BA5/assets/DE78B55DDE70D88C6FF874E8D33A46A3.jpeg" width="1024.00" height="768.00" transform="matrix(1.00, 0.00, -0.00, -1.00, 0.0, 768.0)"></image></g></g><path d="M 0.0 0.0 C 17.2 158.2 18.4 317.7 3.5 476.1 C 2.9 483.3 2.2 490.5 1.4 497.7 C 8.5 497.0 15.6 496.3 22.7 495.6 C 259.8 473.3 498.7 475.2 735.4 501.2 " fill="none" stroke="#FEFFFE" stroke-width="3.00" transform="matrix(1.00, 0.00, 0.00, -1.00, 63.4, 739.2)"></path><text xml:space="preserve" font-family="AmericanTypewriter" font-size="30.0" fill="#FEFFFE" transform="matrix(1.00, -0.08, -0.08, -1.00, 647.6, 225.3)">C</text><text xml:space="preserve" font-family="AmericanTypewriter" font-size="30.0" fill="#FEFFFE" transform="matrix(1.00, -0.08, -0.08, -1.00, 666.6, 223.9)">o</text><text xml:space="preserve" font-family="AmericanTypewriter" font-size="30.0" fill="#FEFFFE" transform="matrix(1.00, -0.08, -0.08, -1.00, 683.0, 222.6)">n</text><text xml:space="preserve" font-family="AmericanTypewriter" font-size="30.0" fill="#FEFFFE" transform="matrix(1.00, -0.08, -0.08, -1.00, 702.0, 221.1)">t</text><text xml:space="preserve" font-family="AmericanTypewriter" font-size="30.0" fill="#FEFFFE" transform="matrix(1.00, -0.08, -0.08, -1.00, 714.0, 220.2)">r</text><text xml:space="preserve" font-family="AmericanTypewriter" font-size="30.0" fill="#FEFFFE" transform="matrix(1.00, -0.08, -0.08, -1.00, 728.7, 219.0)">o</text><text xml:space="preserve" font-family="AmericanTypewriter" font-size="30.0" fill="#FEFFFE" transform="matrix(1.00, -0.08, -0.08, -1.00, 745.0, 217.8)">l</text><text xml:space="preserve" font-family="AmericanTypewriter" font-size="30.0" fill="#FEFFFE" transform="matrix(1.00, -0.08, -0.08, -1.00, 754.3, 217.1)">l</text><text xml:space="preserve" font-family="AmericanTypewriter" font-size="30.0" fill="#FEFFFE" transform="matrix(1.00, -0.08, -0.08, -1.00, 763.5, 216.3)">e</text><text xml:space="preserve" font-family="AmericanTypewriter" font-size="30.0" fill="#FEFFFE" transform="matrix(1.00, -0.08, -0.08, -1.00, 779.3, 215.1)">r</text></g></svg>