<?xml version="1.0" encoding="UTF-8" standalone="no"?><svg xmlns="http://www.w3.org/2000/svg" xmlns:xlink="http://www.w3.org/1999/xlink" clip-rule="evenodd" stroke-miterlimit="4.00" viewBox="0 0 310 111"><desc>SVG generated by Keynote</desc><defs></defs><g transform="matrix(1.00, 0.00, -0.00, -1.00, 0.0, 111.0)"><g><clipPath id="clip-903"><path d="M 260.5 90.8 C 318.7 71.2 318.7 39.6 260.5 20.0 C 202.3 0.5 107.9 0.5 49.7 20.0 C -8.6 39.6 -8.6 71.2 49.7 90.8 C 107.9 110.3 202.3 110.3 260.5 90.8 Z M 260.5 90.8 "></path></clipPath><g clip-path="url(#clip-903)"><image xlink:href="../../1BE7A03E-C66D-4413-94C1-F85C6D2757AE/assets/59DBD66EA15A3D40E065F836EF2595FD.jpeg" width="400.00" height="400.00" transform="matrix(1.00, 0.00, -0.00, -1.00, 6.0, 105.4)"></image></g></g><path d="M 76.9 8.9 C 76.5 9.0 76.0 9.1 75.2 9.3 C 75.5 9.3 75.8 9.3 75.8 9.4 C 76.4 9.2 77.3 9.0 78.7 8.7 C 78.6 8.7 78.0 8.8 77.5 8.9 C 76.9 9.0 77.0 8.9 76.9 8.9 C 76.9 8.9 76.9 8.9 76.9 8.9 Z M 68.4 99.5 C 67.3 99.2 68.5 99.7 68.9 99.9 C 69.0 99.8 69.0 99.8 69.5 99.9 C 69.5 100.1 68.5 100.0 67.7 99.8 C 64.6 99.0 67.0 99.2 68.4 99.5 C 68.4 99.5 68.4 99.5 68.4 99.5 Z M 236.6 100.5 C 239.1 100.0 236.3 100.3 235.9 100.3 C 237.1 100.0 236.1 99.8 237.6 99.5 C 237.9 99.5 238.4 99.5 238.7 99.5 C 238.1 99.7 237.1 99.9 237.0 100.0 C 237.9 99.8 239.1 99.5 239.3 99.6 C 237.4 100.1 239.1 99.9 239.4 100.0 C 237.7 100.3 237.2 100.7 236.6 100.5 C 236.6 100.5 236.6 100.5 236.6 100.5 Z M 277.0 23.7 C 277.9 24.1 278.7 24.5 278.4 24.5 C 277.4 24.0 276.8 23.7 276.2 23.4 C 276.1 23.4 276.3 23.7 275.4 23.3 C 274.5 22.6 275.1 22.6 275.7 22.7 C 275.7 22.9 279.0 24.4 277.0 23.7 C 277.0 23.7 277.0 23.7 277.0 23.7 Z M 207.6 6.3 C 205.3 5.9 207.5 6.6 205.1 6.2 C 205.2 6.0 204.8 5.7 206.4 5.9 C 206.5 6.0 207.4 6.2 207.6 6.3 C 207.6 6.3 207.6 6.3 207.6 6.3 Z M 165.8 106.6 C 165.8 106.7 167.6 106.6 167.2 106.9 C 166.3 106.9 165.4 106.9 164.6 106.9 C 164.4 106.8 164.7 106.6 165.8 106.6 C 165.8 106.6 165.8 106.6 165.8 106.6 Z M 252.6 94.1 C 255.0 93.7 257.4 92.5 256.8 93.0 C 257.7 92.9 255.3 94.2 255.3 93.9 C 255.0 93.7 250.7 94.7 252.6 94.1 C 252.6 94.1 252.6 94.1 252.6 94.1 Z M 82.5 98.2 C 85.2 98.9 84.8 98.2 86.6 98.8 C 85.9 98.7 85.6 98.7 85.4 98.8 C 85.8 98.9 86.5 99.0 86.5 99.0 C 85.2 98.8 83.6 98.6 82.5 98.2 C 82.5 98.2 82.5 98.2 82.5 98.2 Z M 118.9 3.6 C 119.4 3.5 119.6 3.4 119.6 3.3 C 121.6 3.2 121.5 3.0 122.8 3.1 C 122.8 3.4 121.1 3.4 119.6 3.5 C 119.5 3.6 119.0 3.6 118.9 3.6 C 118.9 3.6 118.9 3.6 118.9 3.6 Z M 176.4 3.5 C 176.3 3.3 175.1 3.2 177.0 3.2 C 179.2 3.6 177.2 3.7 175.0 3.7 C 175.0 3.8 175.0 3.9 175.0 4.1 C 175.9 4.1 176.5 4.2 177.0 4.2 C 177.4 3.9 178.8 4.6 182.1 4.6 C 180.6 4.7 182.2 5.0 180.2 4.8 C 180.7 5.1 179.3 4.9 179.5 5.2 C 180.4 5.1 182.6 5.2 182.1 4.9 C 183.3 5.0 184.1 5.1 184.7 5.2 C 185.5 5.5 182.6 5.1 183.4 5.4 C 184.0 5.4 184.2 5.5 184.7 5.6 C 184.8 5.5 184.6 5.3 185.3 5.4 C 187.4 5.6 184.9 5.6 187.9 5.9 C 188.1 5.7 187.2 5.6 187.2 5.5 C 188.6 5.4 188.5 5.6 189.8 5.6 C 190.1 5.8 188.9 5.7 189.8 5.9 C 190.6 5.6 192.5 6.3 194.3 6.2 C 193.1 5.5 194.6 6.3 196.2 5.9 C 196.6 6.1 195.4 6.3 196.8 6.5 C 196.4 5.8 202.0 6.5 197.5 5.6 C 199.9 5.8 200.8 5.4 198.9 5.1 C 203.1 5.7 201.7 5.2 203.3 5.4 C 204.9 5.6 202.5 5.4 203.3 5.7 C 201.6 5.5 202.0 5.7 200.8 5.4 C 200.8 5.5 200.4 5.6 200.1 5.6 C 201.8 5.6 203.8 6.2 202.5 6.3 C 201.7 6.2 202.5 6.0 201.3 5.9 C 201.7 6.3 200.1 5.7 200.0 5.9 C 200.8 6.3 198.3 6.3 200.6 6.6 C 200.7 6.5 200.7 6.4 200.7 6.2 C 201.3 6.3 201.9 6.4 202.5 6.4 C 203.1 6.7 202.6 6.8 203.1 7.0 C 204.2 7.1 204.7 7.1 205.1 7.0 C 203.8 6.8 202.3 6.4 204.4 6.6 C 203.6 7.0 207.4 7.1 205.7 7.2 C 207.9 7.6 209.1 7.4 209.3 7.7 C 210.5 7.9 209.8 7.5 211.2 7.7 C 213.5 8.3 213.1 7.9 216.1 8.5 C 216.5 8.2 216.4 8.6 217.4 8.8 C 217.4 8.7 217.4 8.5 217.4 8.4 C 218.4 8.8 220.8 9.3 223.4 9.4 C 224.0 9.6 223.5 9.8 225.1 10.0 C 226.9 10.0 228.9 10.7 231.1 10.8 C 231.2 11.0 232.6 11.3 233.4 11.3 C 233.7 11.5 232.6 11.6 233.9 11.8 C 234.8 11.8 233.3 11.4 235.1 11.7 C 234.9 11.9 236.8 11.9 236.8 12.1 C 236.2 12.1 235.6 12.0 235.0 12.0 C 235.8 12.2 235.6 12.3 236.2 12.4 C 236.1 12.1 237.5 12.6 237.9 12.8 C 237.9 12.6 238.1 12.6 238.5 12.6 C 239.5 12.8 240.3 13.0 240.8 13.0 C 242.0 13.5 240.0 13.1 241.3 13.4 C 242.0 12.9 243.1 13.9 245.8 14.2 C 246.3 14.5 247.3 14.9 249.0 15.4 C 249.2 15.2 247.4 14.9 247.4 14.7 C 249.8 15.4 247.0 14.4 248.5 14.8 C 251.9 15.9 254.1 16.5 257.4 17.7 C 257.4 17.6 260.1 18.3 260.0 18.3 C 259.6 18.2 260.0 18.4 260.5 18.7 C 261.1 18.9 262.6 19.5 263.6 19.9 C 264.2 19.7 267.2 20.4 267.4 20.3 C 268.0 20.7 267.8 20.6 268.0 21.1 C 271.0 22.4 272.7 22.7 274.3 23.8 C 274.2 23.6 275.6 24.1 276.7 24.6 C 276.3 24.6 275.6 24.4 275.0 24.3 C 276.4 24.9 276.6 25.1 277.8 25.7 C 279.4 25.7 281.0 27.5 282.2 27.4 C 284.0 28.4 283.6 28.4 285.2 29.4 C 285.2 29.2 285.5 29.2 286.0 29.4 C 284.9 28.9 284.0 28.6 283.5 28.0 C 286.0 29.3 279.0 24.8 283.3 26.8 C 283.4 27.0 282.9 26.9 283.8 27.4 C 286.2 28.6 284.9 27.7 283.9 27.2 C 285.6 27.9 287.1 28.9 286.0 28.0 C 289.5 29.9 287.2 28.8 288.3 29.6 C 294.2 33.2 300.3 38.0 303.5 44.0 C 303.9 44.0 305.3 47.4 305.5 48.5 C 306.4 50.1 306.8 51.9 306.5 52.5 C 306.9 52.7 306.6 54.6 306.8 54.8 C 306.8 54.0 306.9 53.5 307.0 54.3 C 307.0 56.8 306.2 60.5 305.9 62.0 C 305.3 62.8 304.7 64.4 304.3 65.5 C 304.0 65.6 304.4 64.8 304.0 65.4 C 304.1 65.7 302.9 68.0 302.4 68.5 C 302.9 67.8 303.1 66.9 302.4 67.9 C 302.5 68.0 301.7 69.1 302.0 68.9 C 300.9 70.2 300.4 71.1 299.2 72.2 C 300.1 71.2 300.4 70.6 300.4 70.3 C 299.9 71.2 299.4 71.9 298.6 72.3 C 299.0 72.4 297.7 73.5 296.4 74.9 C 295.9 75.2 295.6 75.4 294.4 76.3 C 293.9 77.0 296.4 75.0 295.1 76.2 C 295.0 76.1 293.6 77.0 294.1 77.0 C 292.4 78.2 291.5 79.0 289.8 79.9 C 291.8 78.6 290.2 79.3 289.7 79.6 C 289.2 79.9 288.6 80.3 288.6 80.4 C 288.7 80.5 289.6 79.8 289.8 79.8 C 288.4 80.6 288.2 81.2 287.5 81.3 C 288.2 81.0 288.2 80.8 287.5 81.2 C 287.5 81.7 282.9 84.0 284.4 82.9 C 284.4 83.0 286.1 82.0 286.2 81.9 C 285.7 82.0 283.2 83.6 283.6 83.1 C 285.1 82.2 285.1 82.4 286.7 81.4 C 286.8 81.1 287.8 80.5 288.3 80.0 C 285.8 81.6 285.2 82.2 284.7 82.2 C 283.5 82.9 284.4 82.7 282.3 83.8 C 279.2 85.3 281.6 83.8 280.8 84.1 C 278.1 85.7 279.1 85.5 280.4 85.1 C 278.2 86.3 277.5 86.7 274.6 88.0 C 274.7 87.7 275.0 87.5 276.0 87.0 C 276.1 87.0 278.5 86.1 278.3 86.0 C 277.9 85.8 276.0 86.6 272.8 87.9 C 273.7 87.9 273.8 87.7 270.5 89.0 C 271.2 89.1 268.9 89.6 268.9 89.8 C 269.1 89.8 270.3 89.4 271.3 88.9 C 271.3 89.1 271.0 89.3 269.9 89.8 C 269.1 90.0 268.6 90.4 266.5 91.0 C 266.3 90.9 267.8 90.3 268.0 90.0 C 266.9 90.5 266.7 90.7 265.5 91.2 C 264.5 91.3 264.4 91.0 264.4 90.6 C 265.7 90.1 267.8 89.3 266.1 89.8 C 271.0 87.9 266.0 90.2 267.8 89.5 C 269.7 88.4 268.8 89.3 271.9 88.0 C 272.8 87.6 273.1 87.4 273.4 87.2 C 273.2 87.2 271.3 87.7 273.3 86.9 C 273.8 86.8 274.9 86.5 276.4 85.8 C 276.3 85.7 273.2 87.0 276.3 85.6 C 277.8 85.0 276.6 85.9 278.6 84.9 C 278.5 84.8 279.1 84.5 279.2 84.4 C 276.4 85.8 279.7 84.0 277.7 84.8 C 280.1 83.5 278.2 84.8 279.8 84.0 C 279.8 83.8 282.5 82.8 282.4 82.5 C 281.5 83.1 279.5 84.1 279.7 83.7 C 281.5 82.9 288.8 78.4 286.2 80.4 C 287.1 79.6 291.6 76.1 291.4 76.5 C 290.1 77.5 290.2 77.6 290.1 77.9 C 292.5 75.8 293.9 75.0 295.9 72.7 C 293.4 74.9 295.0 72.9 293.3 74.1 C 292.7 74.7 291.6 75.4 291.5 75.6 C 292.0 75.6 293.0 74.6 293.4 74.1 C 293.5 74.3 293.7 74.5 293.8 74.6 C 290.7 76.9 288.9 78.4 287.1 79.4 C 288.6 78.4 284.0 80.9 285.7 79.7 C 286.6 79.4 288.4 78.3 289.8 77.4 C 289.7 77.3 289.7 77.3 289.6 77.2 C 290.2 76.8 291.1 76.2 291.1 76.1 C 289.3 77.4 288.1 77.9 286.8 79.0 C 286.8 78.9 286.8 78.9 286.7 78.8 C 286.4 79.0 286.1 79.2 286.1 79.1 C 286.8 78.7 287.7 78.1 287.8 78.0 C 286.3 78.9 285.9 78.8 284.2 79.8 C 284.4 79.3 282.0 80.4 284.4 78.8 C 285.0 78.8 286.3 78.1 286.4 78.2 C 287.1 77.9 288.4 76.9 289.0 76.3 C 288.3 76.7 286.9 77.5 286.7 77.4 C 287.7 76.6 288.5 75.9 289.3 75.7 C 287.2 77.3 290.6 75.0 291.5 74.6 C 291.2 74.7 290.7 75.0 290.3 75.1 C 291.9 73.9 292.7 73.5 292.6 73.2 C 294.2 71.6 294.0 72.2 295.1 71.1 C 294.2 71.6 295.7 70.3 294.8 70.8 C 296.5 69.0 295.5 70.5 296.1 69.9 C 296.6 69.3 296.6 69.2 297.0 68.7 C 297.8 68.0 299.0 66.4 299.4 66.4 C 299.9 65.7 300.0 65.6 300.5 64.9 C 300.5 64.7 300.5 64.4 300.7 64.1 C 300.8 64.0 301.2 63.6 301.1 63.4 C 299.8 65.1 300.2 64.6 298.5 66.4 C 298.5 66.6 298.3 66.9 298.7 66.5 C 297.8 67.9 297.3 68.2 296.3 69.4 C 296.0 69.4 295.5 69.4 294.6 70.6 C 294.7 70.2 294.3 70.4 294.7 69.9 C 295.4 69.5 296.2 68.8 296.9 68.0 C 296.9 67.9 296.7 67.9 297.0 67.5 C 297.5 67.2 298.0 66.6 298.2 66.1 C 298.3 66.2 298.3 66.4 298.2 66.6 C 299.6 64.9 298.8 65.3 299.8 64.1 C 299.5 64.2 299.0 65.0 299.3 64.2 C 300.0 63.0 300.2 62.8 300.6 62.2 C 300.5 62.1 300.4 62.1 300.6 61.8 C 301.1 61.0 300.1 63.9 301.1 62.5 C 301.0 62.3 301.6 60.8 301.9 60.6 C 301.9 61.2 301.3 62.0 301.4 62.1 C 302.6 59.4 302.0 62.2 302.8 59.3 C 302.7 59.3 302.6 59.3 302.5 59.2 C 302.3 60.4 302.0 60.4 301.8 60.2 C 301.5 61.2 301.1 61.5 300.8 62.3 C 300.6 61.8 301.2 61.5 301.6 60.5 C 301.3 60.5 301.0 61.4 300.7 61.4 C 301.8 59.3 301.6 58.7 302.1 56.6 C 301.8 57.1 302.2 55.5 302.0 55.6 C 302.0 57.4 301.3 56.6 301.2 56.9 C 301.1 58.0 301.6 57.6 301.6 58.3 C 301.3 58.6 301.2 58.4 300.9 58.2 C 301.2 57.2 301.1 57.3 301.0 56.5 C 301.3 55.9 301.8 55.3 301.9 56.3 C 301.8 56.0 301.7 54.7 301.9 54.6 C 301.9 55.9 302.0 54.4 302.1 55.2 C 302.3 54.2 301.7 52.4 301.6 51.0 C 301.4 51.2 301.3 50.7 301.2 50.8 C 301.8 52.0 301.3 52.4 301.4 53.6 C 301.4 53.1 301.2 53.4 301.2 53.6 C 301.2 52.4 300.8 51.8 300.8 50.9 C 300.7 50.9 300.6 51.0 300.5 51.0 C 300.3 49.5 300.2 49.7 299.5 48.7 C 299.4 48.2 300.1 48.6 300.4 48.7 C 300.1 48.2 299.0 46.1 299.4 47.4 C 298.8 46.2 299.2 46.4 298.4 45.2 C 298.1 45.3 298.9 46.4 298.4 46.1 C 297.6 45.1 298.3 45.5 297.5 44.7 C 297.6 44.6 297.8 44.4 297.0 43.4 C 297.4 44.2 296.8 43.4 296.5 43.2 C 296.8 43.7 297.1 44.1 297.2 44.4 C 295.9 42.6 295.5 42.2 294.0 40.9 C 294.8 41.2 294.0 40.3 295.1 41.2 C 294.1 40.5 293.0 39.1 292.4 38.7 C 293.0 39.4 293.9 40.3 294.2 40.7 C 291.2 37.9 289.1 36.7 285.5 34.0 C 286.2 34.4 287.0 35.0 287.2 35.0 C 286.8 34.7 286.1 34.3 286.1 34.2 C 287.4 35.1 288.6 35.9 289.3 36.3 C 290.2 37.1 288.6 36.0 289.6 36.8 C 289.9 36.8 291.7 38.4 291.2 37.6 C 289.3 36.5 287.6 35.0 287.0 34.1 C 284.9 33.3 286.7 34.4 284.3 33.5 C 284.4 33.4 284.0 33.0 283.3 32.6 C 283.8 33.3 281.1 31.6 280.8 31.4 C 282.0 31.8 285.9 34.0 284.1 32.5 C 284.7 33.6 279.5 29.8 280.4 30.8 C 277.6 29.4 278.8 29.6 277.0 29.1 C 277.0 29.0 277.3 28.9 276.5 28.5 C 275.7 28.2 275.4 28.1 275.0 28.0 C 279.1 30.1 277.7 29.8 280.2 31.1 C 279.7 30.9 279.4 30.7 279.5 30.8 C 279.4 30.9 279.4 30.9 278.8 30.6 C 278.8 30.2 276.7 29.6 276.2 29.1 C 277.0 29.5 277.8 29.9 277.6 29.6 C 274.2 28.0 275.1 28.0 269.9 25.7 C 271.4 26.5 269.3 25.7 267.4 25.0 C 264.8 23.9 266.0 23.9 262.6 22.8 C 262.6 23.1 261.7 22.8 260.3 22.2 C 258.8 21.7 258.1 21.4 256.9 21.2 C 257.2 20.9 254.1 19.9 253.3 19.9 C 253.3 19.8 252.1 19.5 251.3 19.2 C 251.1 19.1 252.1 19.3 251.3 19.0 C 250.6 18.9 251.2 19.3 250.2 19.0 C 249.1 18.7 249.4 18.4 247.7 18.0 C 247.6 18.2 248.5 18.4 247.6 18.3 C 246.1 17.8 244.8 17.5 246.0 18.0 C 243.7 17.5 244.9 17.3 242.8 16.8 C 243.4 17.1 243.3 17.2 242.2 16.9 C 241.4 16.5 241.4 16.4 241.2 16.3 C 240.5 16.3 240.7 16.4 238.9 15.9 C 238.9 16.0 238.9 16.1 238.8 16.2 C 238.0 16.0 236.8 15.8 236.6 15.6 C 238.1 16.0 237.7 15.7 238.4 15.8 C 236.8 15.4 233.9 14.5 236.1 15.3 C 234.0 14.9 235.1 14.8 233.3 14.5 C 234.3 15.0 233.4 14.6 231.6 14.2 C 231.7 14.6 230.4 14.0 229.3 13.9 C 229.4 14.1 229.1 14.1 228.1 14.0 C 228.2 13.8 227.5 13.7 226.4 13.5 C 226.3 13.6 228.8 14.2 226.3 13.7 C 225.2 13.4 225.2 13.1 223.4 12.8 C 223.0 12.5 225.1 12.9 224.7 12.6 C 223.2 12.6 222.7 12.3 220.5 11.9 C 221.3 12.5 216.0 11.8 218.6 12.4 C 217.8 12.3 216.7 12.4 216.2 12.1 C 217.0 12.2 215.6 11.7 215.6 11.7 C 214.6 11.6 212.1 11.1 212.0 11.3 C 214.4 11.5 214.3 11.7 215.0 12.0 C 211.6 11.6 208.6 11.2 208.9 10.9 C 208.9 11.0 208.4 10.9 208.3 11.0 C 209.5 11.1 210.2 11.6 208.9 11.5 C 209.2 11.3 208.2 11.1 207.1 10.8 C 207.0 11.1 202.5 10.2 203.3 10.6 C 205.2 10.6 206.6 11.2 205.2 11.2 C 204.1 10.8 201.6 10.4 202.2 10.3 C 201.5 10.3 200.9 10.3 200.3 10.3 C 199.7 10.5 201.1 10.6 200.8 10.8 C 199.9 10.6 198.5 10.5 198.3 10.4 C 200.8 10.6 197.1 10.1 199.6 10.2 C 198.1 10.1 197.7 9.9 196.5 9.7 C 196.5 9.8 196.0 9.8 195.9 9.8 C 197.0 9.8 198.1 10.1 197.7 10.3 C 195.5 10.1 195.9 9.8 194.0 9.7 C 193.4 9.8 190.8 9.9 189.5 9.6 C 192.0 9.8 189.3 9.5 190.8 9.5 C 193.1 9.8 193.7 9.6 194.6 9.5 C 193.6 9.3 191.7 9.0 191.5 9.3 C 192.7 9.4 192.7 9.3 193.4 9.3 C 193.3 9.4 192.9 9.5 192.1 9.5 C 191.0 9.2 188.7 9.2 190.2 9.0 C 188.6 9.0 186.8 8.7 185.1 8.7 C 187.0 8.9 188.4 9.1 188.9 9.3 C 187.3 9.3 185.8 8.9 185.7 9.1 C 185.9 9.3 188.4 9.4 188.9 9.6 C 186.9 9.7 183.9 8.8 186.3 9.5 C 185.2 9.4 183.7 9.3 183.2 9.2 C 184.5 9.2 183.1 8.8 182.5 8.7 C 181.3 8.6 180.4 8.6 179.9 8.7 C 181.8 8.7 183.1 9.1 181.9 9.1 C 181.6 8.9 181.2 9.1 180.6 9.1 C 180.5 8.9 178.4 8.9 178.1 8.8 C 178.2 8.9 179.1 9.0 179.3 9.1 C 178.1 9.1 176.3 9.4 175.5 9.0 C 176.2 9.0 177.3 9.1 177.4 9.0 C 174.1 8.5 173.0 8.1 169.0 7.8 C 169.5 7.8 169.8 7.8 169.7 7.7 C 167.1 7.6 165.5 7.4 165.8 7.3 C 164.2 7.3 163.4 7.4 162.6 7.5 C 164.2 7.7 164.8 7.5 165.8 7.7 C 165.2 7.7 167.1 8.2 167.8 8.4 C 170.5 8.2 170.7 8.6 173.5 8.6 C 172.7 8.8 175.6 8.7 174.8 8.9 C 172.2 8.4 169.6 8.6 165.8 8.4 C 166.3 8.2 166.8 8.0 165.2 7.9 C 162.7 7.7 163.9 8.1 161.9 8.0 C 161.1 7.8 162.3 7.7 161.3 7.7 C 160.6 7.7 158.7 7.7 158.0 7.5 C 160.7 7.5 157.5 7.3 159.3 7.1 C 158.4 7.1 157.9 7.1 157.3 7.1 C 159.9 7.4 154.7 7.4 156.7 7.6 C 153.1 7.7 156.5 7.0 153.5 7.1 C 154.9 7.2 153.0 7.3 150.9 7.3 C 150.3 7.1 148.1 7.0 146.3 7.0 C 147.3 7.1 148.0 7.1 146.3 7.3 C 147.2 7.4 148.7 7.4 149.5 7.2 C 149.5 7.4 149.9 7.4 150.2 7.5 C 148.1 7.6 149.0 7.7 148.3 7.7 C 147.7 7.6 146.1 7.7 145.7 7.6 C 145.7 7.6 145.1 7.7 145.1 7.7 C 147.8 7.7 144.6 8.1 146.3 8.1 C 147.5 8.1 146.8 7.8 148.3 7.8 C 149.7 8.1 147.1 8.2 146.3 8.4 C 147.6 8.6 149.1 8.2 149.6 8.5 C 147.9 8.8 145.3 8.7 143.1 8.7 C 143.3 9.0 139.5 8.7 139.2 9.1 C 138.9 9.0 138.5 8.9 138.0 8.9 C 137.4 9.2 136.7 8.9 136.0 8.9 C 136.0 9.1 136.2 9.2 136.7 9.2 C 134.0 9.2 133.4 9.2 130.3 9.5 C 129.8 9.4 129.2 9.3 128.9 9.1 C 129.7 9.0 130.4 8.9 130.9 8.8 C 126.6 9.0 129.4 9.6 126.4 9.4 C 126.5 9.5 128.6 9.6 127.1 9.8 C 124.4 9.7 120.6 10.2 120.7 9.5 C 118.3 9.5 116.8 10.1 115.6 9.9 C 114.9 10.0 114.6 10.1 114.3 10.2 C 115.1 10.2 116.0 10.3 116.9 10.3 C 118.3 10.1 118.9 10.3 117.6 10.0 C 119.6 9.8 120.2 9.9 121.3 10.0 C 118.4 10.4 115.8 10.4 115.7 10.8 C 114.7 10.7 114.0 10.6 113.2 10.5 C 112.9 10.7 109.6 11.1 109.4 10.9 C 111.6 10.8 113.8 10.2 111.8 10.2 C 106.5 11.0 103.5 10.9 98.9 11.8 C 98.8 11.7 99.1 11.5 98.3 11.6 C 98.3 11.7 98.1 11.8 97.6 12.0 C 96.2 12.1 95.4 12.2 93.5 12.5 C 93.5 12.3 93.2 12.1 92.2 12.2 C 91.6 12.6 89.8 13.3 88.7 13.4 C 89.8 13.2 88.3 13.2 87.5 13.3 C 88.2 13.5 82.2 14.0 83.9 14.0 C 81.5 14.5 80.5 14.5 80.4 14.4 C 79.6 14.7 79.0 14.8 78.2 15.1 C 77.6 14.8 73.6 15.9 73.0 15.9 C 74.4 15.7 74.6 15.3 73.5 15.5 C 72.8 15.9 69.3 16.9 68.6 17.0 C 68.8 16.9 69.0 16.6 70.7 16.1 C 67.8 16.7 67.9 17.1 67.0 17.6 C 67.0 17.2 65.8 17.8 65.4 18.0 C 64.5 18.1 65.4 17.9 65.3 17.7 C 64.3 17.9 63.9 17.9 62.6 18.2 C 63.0 18.4 61.5 18.6 61.0 18.7 C 60.9 19.0 60.2 19.3 59.0 19.6 C 60.5 18.8 52.4 21.2 54.4 20.9 C 52.8 21.6 52.7 21.1 50.8 21.8 C 50.4 22.0 49.3 22.3 50.4 22.1 C 49.6 22.4 48.7 22.7 48.3 22.7 C 48.0 22.8 47.5 22.9 45.9 23.5 C 47.4 23.3 42.8 24.6 43.7 24.7 C 42.1 24.8 39.9 26.3 37.4 27.0 C 37.4 27.1 36.8 27.4 36.7 27.5 C 36.4 27.8 39.6 26.4 37.5 27.4 C 35.0 28.3 36.3 27.7 35.9 27.7 C 29.4 30.8 22.8 34.5 18.5 37.9 C 19.1 37.6 19.1 37.7 18.3 38.4 C 16.8 39.1 13.0 43.3 12.6 44.1 C 12.1 44.3 10.9 46.5 10.5 46.8 C 10.8 46.4 11.1 45.5 10.5 46.4 C 10.5 47.1 9.9 47.7 9.7 48.6 C 9.2 48.9 8.6 51.6 8.5 50.2 C 8.4 50.7 8.2 51.0 8.1 51.3 C 8.4 51.4 8.2 51.9 8.6 51.0 C 7.7 53.3 8.0 53.8 7.8 55.6 C 8.0 55.9 8.1 54.5 8.1 55.6 C 8.1 55.6 8.0 55.6 8.0 55.6 C 8.0 56.0 8.1 56.1 8.0 56.3 C 7.9 56.2 7.9 55.6 7.6 55.6 C 7.7 56.5 7.4 57.1 7.7 57.4 C 7.6 56.1 8.1 56.9 8.0 57.7 C 7.7 57.0 8.6 60.5 9.2 61.5 C 9.2 62.2 8.7 60.3 8.6 60.5 C 9.4 62.6 9.3 62.5 9.7 62.6 C 10.2 63.7 10.3 64.2 11.3 65.5 C 11.7 66.3 10.8 65.1 11.3 66.0 C 11.8 66.4 12.0 66.5 12.6 67.3 C 13.8 69.5 19.3 73.4 21.9 76.2 C 20.8 75.2 22.5 76.2 24.3 77.4 C 24.3 77.5 24.0 77.5 24.7 77.9 C 24.7 77.7 25.3 78.0 26.5 78.8 C 26.6 78.9 26.3 78.9 27.0 79.3 C 27.7 79.3 29.1 80.5 30.2 80.9 C 30.5 81.4 27.8 79.7 27.6 79.8 C 30.6 81.7 31.4 81.8 34.1 83.2 C 32.6 82.5 35.0 83.9 35.4 84.1 C 34.9 83.6 37.2 84.5 35.6 83.6 C 36.7 84.1 38.4 84.8 38.6 85.0 C 38.0 84.7 37.0 84.3 37.0 84.4 C 38.4 85.0 40.1 86.0 40.9 86.0 C 39.9 85.6 39.3 85.3 39.4 85.1 C 39.8 85.2 40.3 85.3 41.1 85.6 C 38.6 85.3 45.4 87.6 45.8 87.6 C 46.3 88.2 46.8 88.3 46.5 88.4 C 49.4 89.5 49.6 89.2 50.6 89.5 C 50.2 89.7 49.8 89.8 51.4 90.4 C 51.1 90.0 53.1 90.7 52.6 90.2 C 56.8 91.4 57.6 92.0 60.3 92.7 C 60.4 92.6 59.5 92.4 60.3 92.5 C 61.5 93.0 62.6 93.3 63.4 93.7 C 64.1 93.7 63.2 93.4 64.0 93.5 C 65.9 94.3 65.4 94.4 67.1 95.1 C 69.4 95.4 68.5 95.4 69.9 95.4 C 69.4 95.3 68.6 95.0 69.4 95.1 C 70.7 95.7 71.2 96.1 71.5 96.2 C 70.6 96.0 69.8 95.8 69.3 95.6 C 69.0 95.7 67.6 95.4 68.7 95.8 C 67.3 95.4 65.8 95.0 63.8 94.5 C 64.4 94.9 62.0 94.1 62.6 94.5 C 64.9 95.0 65.3 95.3 67.5 95.8 C 67.1 95.4 69.3 96.1 69.7 96.3 C 69.8 96.1 71.3 96.5 71.0 96.2 C 72.7 96.6 72.6 96.7 74.3 97.1 C 74.4 97.2 74.1 97.3 74.8 97.4 C 75.5 97.3 75.9 97.7 76.5 97.9 C 76.2 97.5 78.7 98.2 78.9 98.0 C 78.2 97.9 77.2 97.7 77.1 97.6 C 79.9 98.2 77.7 97.5 77.2 97.2 C 77.3 97.3 76.2 97.4 76.1 97.2 C 78.4 97.5 72.9 96.1 75.0 96.6 C 76.7 97.1 76.6 96.8 78.4 97.3 C 80.5 98.1 77.9 97.9 80.0 98.6 C 81.3 98.7 82.2 98.9 82.4 98.7 C 82.6 98.8 83.0 99.0 83.5 99.1 C 84.1 99.1 81.8 98.6 83.5 98.8 C 84.4 99.1 83.3 99.2 85.3 99.5 C 86.1 99.4 83.0 98.8 84.7 99.0 C 86.5 99.8 84.4 98.9 86.5 99.2 C 86.7 99.3 87.0 99.4 87.7 99.5 C 87.8 99.6 87.5 99.7 88.2 99.9 C 88.7 99.6 89.0 100.2 90.6 100.4 C 91.5 100.2 89.0 100.0 89.5 99.8 C 91.3 100.4 92.4 100.2 93.1 100.4 C 91.6 100.3 95.3 100.9 95.4 101.1 C 95.1 100.8 95.9 101.0 98.0 101.1 C 98.0 101.5 100.5 101.5 101.0 102.0 C 101.3 101.9 101.9 101.9 102.2 101.8 C 101.5 101.7 100.8 101.6 101.0 101.5 C 101.6 101.6 102.2 101.6 102.9 101.7 C 103.9 102.0 101.2 102.2 105.3 102.7 C 104.9 102.3 106.6 102.4 107.8 102.5 C 107.7 102.2 106.1 102.3 106.0 102.1 C 107.4 102.1 108.8 102.5 109.7 102.7 C 112.1 102.8 115.0 103.2 118.6 103.4 C 119.3 103.7 115.6 103.4 117.9 103.7 C 118.9 103.8 118.4 103.5 119.8 103.7 C 118.5 104.6 129.4 104.6 130.1 105.0 C 130.5 104.9 133.6 105.1 133.3 104.8 C 131.2 105.0 129.8 104.5 128.8 104.3 C 126.8 104.4 130.5 104.7 128.8 104.7 C 128.6 104.5 125.9 104.5 126.2 104.3 C 129.0 104.4 124.8 103.9 126.9 103.8 C 129.4 104.0 134.5 104.0 133.3 104.3 C 133.3 104.2 132.2 104.1 132.1 104.2 C 134.9 104.5 136.7 104.3 137.9 104.2 C 139.2 104.5 144.4 104.3 143.1 104.4 C 143.5 104.6 140.0 104.2 140.5 104.5 C 145.8 104.7 146.0 104.5 149.5 104.8 C 148.4 104.5 153.3 104.4 152.8 104.5 C 152.8 104.7 153.9 104.9 156.1 104.6 C 155.7 104.9 156.9 105.0 158.0 105.0 C 158.5 104.8 157.1 104.8 157.3 104.6 C 158.4 104.6 159.6 104.6 160.6 104.6 C 160.7 104.7 160.5 104.8 161.3 104.8 C 162.5 104.7 166.8 104.3 166.5 104.5 C 164.6 104.9 169.5 104.7 166.5 105.0 C 167.3 105.0 167.4 105.0 168.4 105.0 C 168.4 104.9 168.4 104.8 168.4 104.7 C 170.8 104.6 169.7 105.0 171.7 105.0 C 171.9 104.8 172.8 104.8 173.0 104.7 C 172.2 104.7 172.1 104.8 171.0 104.8 C 172.2 104.4 168.9 104.7 169.1 104.4 C 171.3 104.3 171.3 104.5 172.3 104.6 C 175.1 104.3 173.8 104.5 176.8 104.4 C 176.8 104.3 176.0 104.3 176.2 104.2 C 179.9 104.1 179.5 104.6 182.0 104.3 C 181.4 104.3 179.2 104.7 180.8 104.6 C 182.5 104.4 182.9 104.1 185.2 103.9 C 185.3 104.0 185.1 104.2 185.9 104.1 C 186.8 104.0 186.9 103.7 187.7 103.6 C 187.9 103.7 189.2 103.5 189.7 103.4 C 190.5 103.6 189.4 103.7 190.4 103.7 C 192.2 103.5 193.2 102.9 194.7 102.8 C 194.7 103.2 196.4 102.9 197.9 102.7 C 198.2 103.0 201.5 102.6 203.6 102.4 C 203.1 102.2 205.3 102.0 204.8 101.9 C 203.7 102.0 203.2 102.0 202.9 101.9 C 205.3 101.6 206.1 102.0 207.9 101.4 C 208.8 101.5 210.0 101.5 211.6 101.3 C 211.8 101.1 208.7 101.4 210.4 101.2 C 210.5 101.2 211.0 101.1 211.6 101.0 C 211.3 101.3 212.7 101.2 213.5 101.2 C 214.9 100.8 217.9 100.7 216.5 100.6 C 218.7 100.2 217.3 100.9 219.0 100.6 C 218.1 100.4 221.0 99.9 219.5 100.0 C 221.8 99.5 221.7 100.0 220.7 100.3 C 222.8 100.0 223.3 99.7 224.3 99.6 C 223.3 99.6 226.5 98.9 224.9 99.3 C 224.4 99.7 226.8 99.1 227.3 99.1 C 226.5 99.1 227.6 98.9 226.1 99.0 C 227.6 98.7 229.9 98.2 231.3 98.2 C 233.2 97.6 235.0 97.2 234.2 97.7 C 236.0 97.2 235.3 97.4 237.1 97.0 C 237.1 97.0 236.6 97.1 236.4 97.0 C 238.9 96.5 238.4 96.8 241.6 96.0 C 241.2 96.4 243.2 95.9 243.9 95.9 C 242.6 96.2 241.5 96.4 240.5 96.6 C 240.3 96.8 241.4 96.6 240.5 96.8 C 240.4 96.8 239.9 96.8 239.4 96.9 C 241.5 96.7 236.9 97.9 238.3 97.3 C 238.3 97.4 238.4 97.4 238.9 97.3 C 238.4 97.1 238.5 97.2 238.8 96.9 C 237.8 97.2 236.9 97.1 236.5 97.4 C 236.6 97.5 237.6 97.2 237.7 97.3 C 235.2 98.0 236.9 97.2 234.8 97.7 C 234.5 98.1 235.5 97.9 236.1 97.9 C 234.2 98.4 232.5 98.7 232.0 98.6 C 230.3 99.0 232.2 98.8 230.9 99.1 C 230.3 99.2 230.3 99.0 229.1 99.2 C 227.8 99.5 229.9 99.2 228.6 99.5 C 227.1 99.6 229.5 99.0 227.3 99.4 C 227.9 99.6 225.3 99.7 225.6 99.8 C 226.8 99.6 226.9 99.9 226.2 99.8 C 223.3 100.0 221.4 101.2 218.4 101.1 C 218.4 101.2 218.0 101.3 217.8 101.4 C 220.1 101.2 223.3 100.7 223.9 100.9 C 225.6 100.6 225.4 100.4 225.6 100.2 C 227.7 100.2 227.5 100.2 226.4 100.8 C 223.0 101.5 221.5 101.5 219.2 101.8 C 218.0 102.2 219.3 101.9 219.8 102.0 C 212.7 102.8 218.2 102.7 215.6 103.0 C 215.6 102.9 215.1 102.9 214.4 102.9 C 214.4 103.1 213.3 103.2 213.1 103.3 C 213.6 103.2 213.9 103.2 213.8 103.4 C 212.0 103.7 212.7 103.3 212.5 103.2 C 213.9 103.0 214.8 102.9 215.0 102.7 C 213.2 103.1 211.8 103.0 210.7 103.5 C 208.9 103.3 211.5 102.6 210.5 102.5 C 210.8 102.3 209.5 103.3 208.2 103.5 C 205.9 103.8 205.9 104.1 203.8 104.3 C 203.2 104.1 205.9 104.0 205.7 103.8 C 205.1 103.9 204.9 103.8 204.4 103.8 C 202.9 104.0 203.1 104.3 201.9 104.5 C 201.3 104.3 200.9 104.5 200.1 104.6 C 198.6 104.7 200.8 104.4 199.4 104.5 C 197.8 104.6 196.7 105.0 196.2 105.0 C 196.1 104.9 196.3 104.8 195.6 104.9 C 193.8 105.2 193.4 105.2 195.6 105.2 C 193.6 105.3 192.8 105.5 193.1 105.7 C 196.1 105.5 196.8 105.4 198.2 105.6 C 198.8 105.2 199.6 105.3 200.8 105.3 C 200.0 104.9 202.0 105.1 202.6 104.9 C 201.9 104.9 201.2 104.9 200.7 104.9 C 203.9 104.6 203.8 104.6 206.3 103.9 C 206.3 104.0 206.6 104.1 206.9 104.1 C 206.2 104.3 203.9 104.5 203.9 104.7 C 205.7 104.8 206.2 104.3 208.3 104.3 C 209.1 104.0 206.6 104.3 208.2 104.0 C 209.0 104.1 210.1 104.1 211.4 104.0 C 212.7 103.8 213.3 103.6 214.4 103.3 C 214.5 103.4 214.6 103.5 215.7 103.3 C 215.6 103.2 214.6 103.3 215.6 103.1 C 218.9 102.9 221.0 102.8 224.2 102.1 C 223.1 102.2 220.5 102.4 221.7 102.2 C 223.2 102.1 225.0 101.5 226.5 101.5 C 227.0 101.5 224.8 101.7 225.3 102.0 C 226.7 101.7 227.6 101.6 228.3 101.5 C 228.3 101.4 229.9 101.1 229.5 101.0 C 228.3 101.2 228.0 101.5 227.7 101.5 C 228.6 100.6 232.0 100.9 234.2 100.4 C 235.6 100.0 233.1 100.4 234.7 100.0 C 235.7 99.7 236.4 100.1 234.8 100.6 C 233.7 100.7 233.3 101.1 233.0 100.8 C 232.6 101.0 231.9 101.1 231.9 101.2 C 232.7 101.0 232.6 101.2 233.1 101.2 C 232.0 101.4 231.9 101.9 230.8 101.8 C 231.5 101.6 231.7 101.5 232.0 101.4 C 228.8 102.1 227.8 102.1 226.0 102.3 C 227.0 102.3 226.0 102.4 226.1 102.6 C 227.4 102.3 230.1 101.9 228.5 102.3 C 227.4 102.2 226.6 103.1 225.5 103.0 C 226.3 102.9 226.2 102.7 226.7 102.6 C 225.4 102.8 225.5 102.6 224.2 102.8 C 220.4 103.8 217.3 103.7 210.9 105.0 C 208.6 105.3 212.9 104.7 212.7 104.5 C 212.0 104.6 211.9 104.5 211.4 104.6 C 211.4 104.9 210.3 104.7 209.6 105.1 C 209.7 104.8 206.7 105.4 205.2 105.4 C 205.1 105.5 205.3 105.6 204.6 105.7 C 200.0 105.9 191.5 107.1 188.0 107.1 C 188.1 107.3 186.6 107.4 186.1 107.6 C 183.9 107.7 184.9 107.4 181.6 107.9 C 179.9 108.0 181.9 107.7 182.2 107.6 C 177.3 108.0 172.9 107.9 169.8 108.3 C 168.2 108.5 169.8 108.1 166.6 108.2 C 166.5 108.5 161.4 108.1 160.7 108.5 C 158.7 108.6 155.1 108.1 156.7 108.5 C 154.0 108.5 155.8 108.2 154.7 108.2 C 152.9 108.2 155.3 108.8 153.4 108.8 C 153.6 108.5 152.0 108.6 150.8 108.4 C 152.3 108.4 153.3 108.4 153.4 108.2 C 152.2 108.4 152.2 108.2 150.2 108.2 C 148.6 108.3 144.2 108.5 143.0 108.1 C 142.9 108.2 143.3 108.3 143.6 108.3 C 142.3 108.3 140.8 108.0 141.0 108.3 C 138.0 108.3 136.8 107.9 135.1 108.1 C 133.8 108.2 135.6 107.9 131.8 107.7 C 131.7 107.9 125.2 107.5 123.4 107.2 C 123.3 107.5 123.0 107.2 122.2 107.1 C 122.0 107.2 122.2 107.3 121.4 107.3 C 121.3 107.2 120.8 107.2 120.2 107.2 C 120.7 106.8 117.8 107.1 117.6 106.8 C 118.2 106.8 118.2 106.6 117.7 106.6 C 117.4 106.8 114.8 106.2 115.1 106.4 C 115.7 106.6 117.5 106.7 116.9 106.8 C 114.4 106.7 115.5 106.5 113.8 106.3 C 113.9 106.4 114.9 106.6 113.8 106.5 C 112.0 106.3 113.7 106.5 112.6 106.2 C 111.6 106.1 109.9 106.2 109.3 106.1 C 109.5 106.1 109.0 105.9 108.7 105.9 C 105.5 105.4 98.1 104.8 95.1 104.0 C 94.8 104.0 94.2 104.0 94.4 104.2 C 92.5 103.8 92.6 103.9 90.8 103.5 C 90.8 103.6 90.7 103.7 90.7 103.8 C 88.3 103.5 90.5 103.4 88.9 103.2 C 88.7 103.7 88.0 102.9 86.6 102.6 C 86.4 102.7 85.7 102.6 85.9 102.8 C 83.6 102.4 83.8 102.1 81.8 101.8 C 82.2 102.0 82.5 102.8 82.2 103.0 C 81.8 102.8 81.3 102.6 80.4 102.4 C 81.5 102.4 81.1 101.3 78.3 101.1 C 79.8 101.3 80.4 101.5 80.0 101.7 C 77.9 101.3 77.2 100.9 75.4 100.6 C 75.0 100.7 76.3 101.0 75.8 101.2 C 75.3 101.1 75.1 101.1 75.2 101.3 C 73.3 100.8 73.3 100.6 71.2 100.3 C 71.2 100.2 71.7 100.2 72.4 100.5 C 72.3 100.3 72.3 100.1 73.6 100.3 C 73.7 100.5 72.9 100.6 74.7 100.9 C 74.7 100.8 74.7 100.6 74.8 100.5 C 73.5 100.2 70.5 99.4 70.2 99.4 C 70.8 99.7 71.8 99.9 71.2 100.1 C 69.1 99.5 68.6 99.1 66.8 98.5 C 63.8 97.9 58.6 96.4 59.1 96.9 C 57.3 96.3 58.0 96.5 56.4 96.0 C 56.8 96.4 54.7 95.6 54.7 95.8 C 56.7 96.3 56.1 96.2 58.0 96.7 C 57.9 96.8 57.5 96.9 56.8 96.7 C 56.7 96.5 56.0 96.3 54.7 95.9 C 54.9 96.0 56.0 96.6 54.6 96.2 C 54.5 96.1 54.2 96.0 53.6 95.8 C 53.7 95.7 53.7 95.6 53.7 95.5 C 54.5 95.6 55.4 95.8 55.9 95.9 C 55.4 95.7 55.3 95.6 54.9 95.5 C 54.5 95.5 52.4 94.7 52.2 94.8 C 53.1 95.1 53.6 95.4 52.7 95.1 C 52.5 95.0 51.2 94.5 50.6 94.5 C 52.4 95.2 51.7 95.0 52.6 95.5 C 51.5 95.2 51.1 95.0 50.6 94.8 C 50.4 94.7 50.2 94.6 49.8 94.5 C 49.5 94.3 49.5 94.3 48.5 94.0 C 48.4 93.8 48.6 93.6 49.2 93.8 C 48.5 93.3 46.1 92.5 44.1 91.8 C 42.1 91.1 40.2 90.4 39.3 90.0 C 40.5 90.6 42.1 90.8 40.2 90.1 C 40.1 90.2 38.7 89.6 38.5 89.5 C 37.7 89.7 39.2 90.6 40.6 91.4 C 39.0 90.8 38.7 90.8 37.3 90.2 C 36.9 89.8 38.5 90.1 36.7 89.3 C 36.2 89.5 33.5 88.0 32.8 87.9 C 34.0 88.5 34.7 88.9 33.5 88.4 C 33.8 88.4 31.3 87.3 31.3 87.2 C 33.3 88.0 33.9 88.0 35.2 88.6 C 33.6 87.9 36.4 88.9 33.8 87.7 C 32.6 87.3 31.8 87.3 29.3 86.0 C 28.3 85.4 29.3 85.7 28.1 85.0 C 28.3 85.4 25.6 84.0 27.3 84.7 C 26.4 84.2 25.9 83.9 25.4 83.6 C 26.6 84.5 20.6 81.3 21.3 82.0 C 21.5 81.7 21.4 81.2 21.2 81.0 C 19.9 80.5 18.8 79.6 16.2 77.6 C 16.2 77.9 15.8 77.3 14.8 76.5 C 14.5 76.5 15.3 77.3 14.6 76.7 C 13.5 75.7 13.5 75.6 13.4 75.3 C 12.6 74.6 12.0 74.1 11.7 73.7 C 11.6 73.7 11.8 74.0 12.0 74.2 C 9.3 71.3 7.9 70.0 6.4 67.5 C 7.0 68.6 7.5 68.6 6.9 67.8 C 6.5 67.3 6.2 66.9 6.0 66.6 C 6.1 67.3 6.0 67.0 5.4 65.8 C 4.7 64.7 5.3 66.4 4.8 65.5 C 4.4 64.5 4.8 65.0 4.7 64.4 C 4.4 64.0 4.2 63.5 4.1 63.1 C 4.3 64.0 3.8 63.1 3.4 62.3 C 3.9 62.8 3.8 62.4 3.3 60.8 C 3.3 60.6 3.6 61.4 3.5 60.7 C 3.4 60.4 2.8 59.2 2.9 58.0 C 2.9 58.3 3.0 58.5 3.1 58.4 C 2.7 57.2 3.0 56.2 3.1 55.1 C 2.9 56.2 2.7 55.6 2.5 56.1 C 2.7 55.0 2.5 53.6 2.9 52.8 C 2.7 54.4 3.4 52.9 3.6 51.9 C 3.4 51.7 3.2 53.4 2.9 52.8 C 2.8 52.2 3.4 51.1 3.3 50.5 C 3.1 50.5 3.2 51.2 3.0 51.4 C 3.2 50.5 2.8 51.6 3.0 50.9 C 3.3 50.5 3.1 49.9 3.2 49.5 C 3.5 48.9 4.2 47.8 4.3 47.2 C 4.2 47.2 3.9 48.0 3.8 48.1 C 4.6 45.5 5.3 44.9 6.5 42.6 C 6.7 42.4 7.1 42.1 7.6 41.5 C 7.4 41.4 7.6 41.0 8.0 40.5 C 8.8 39.6 9.7 38.8 10.8 37.8 C 10.7 38.1 10.3 38.7 11.8 37.2 C 11.8 37.0 11.2 37.7 11.7 37.1 C 11.7 37.1 12.1 36.8 12.1 36.6 C 12.1 36.6 12.1 36.6 12.0 36.5 C 11.6 37.0 11.2 37.4 10.8 37.8 C 10.7 37.6 10.5 37.7 10.2 37.9 C 11.8 36.0 12.1 36.5 13.2 35.2 C 13.7 35.3 14.1 35.0 13.2 36.1 C 14.3 35.1 15.1 34.3 15.3 33.9 C 13.8 35.1 14.1 34.5 13.6 34.7 C 14.5 34.0 14.5 33.9 14.9 33.5 C 16.1 32.7 14.0 34.7 16.2 33.0 C 14.4 34.1 17.4 31.8 18.7 31.0 C 18.4 31.0 18.0 31.3 18.6 30.8 C 21.7 28.4 22.0 29.3 24.0 27.6 C 23.9 27.9 24.9 27.3 25.4 27.1 C 23.5 28.2 23.1 28.6 22.4 29.1 C 22.5 29.1 23.1 28.8 23.6 28.5 C 23.6 28.3 24.0 28.0 24.9 27.7 C 25.4 27.2 25.0 27.0 26.4 26.0 C 26.6 26.0 26.5 26.2 27.2 25.8 C 27.9 25.2 26.8 26.5 30.1 24.7 C 29.5 24.9 29.1 25.0 29.3 24.7 C 30.9 23.8 30.5 24.0 32.8 22.9 C 33.9 22.8 31.5 24.0 30.9 24.6 C 32.4 23.8 33.6 22.9 35.3 22.4 C 34.0 22.8 35.2 22.0 36.7 21.3 C 38.1 20.8 36.7 21.7 38.5 21.0 C 39.8 20.4 40.4 19.9 39.1 20.3 C 42.1 19.2 41.3 19.2 44.0 18.3 C 44.2 18.4 43.4 18.7 42.4 19.0 C 42.6 19.0 42.3 19.2 43.3 18.9 C 44.1 18.5 45.5 17.9 47.0 17.3 C 48.5 16.7 49.4 16.4 50.0 16.1 C 52.4 15.8 54.9 14.5 57.4 14.0 C 56.5 14.5 60.5 13.1 61.8 13.1 C 62.5 12.8 64.7 11.7 63.9 12.1 C 64.2 12.4 65.6 11.9 66.8 11.7 C 66.8 11.6 66.7 11.6 66.7 11.5 C 69.2 10.8 69.8 10.9 70.7 11.0 C 73.8 10.1 77.3 9.7 81.2 8.7 C 82.2 8.8 83.0 8.6 85.4 8.3 C 85.3 8.1 87.2 7.8 88.9 7.5 C 88.5 7.3 90.1 7.1 90.1 7.0 C 88.5 7.2 89.1 6.8 88.2 6.9 C 90.4 6.8 91.4 6.1 93.1 6.1 C 91.0 6.5 90.4 7.0 90.2 7.4 C 92.7 6.9 94.0 6.8 94.5 6.9 C 94.6 6.7 94.3 6.7 93.8 6.6 C 94.6 6.5 95.5 6.4 96.2 6.3 C 96.5 6.4 95.4 6.6 96.3 6.5 C 96.9 6.4 97.5 6.2 98.1 6.0 C 98.9 6.2 97.2 6.3 96.9 6.5 C 100.3 6.1 98.7 5.9 100.6 5.5 C 101.1 5.6 101.0 5.9 102.5 5.8 C 103.1 5.5 103.2 5.3 105.0 5.1 C 106.1 5.0 104.9 5.4 106.2 5.3 C 106.4 5.2 107.0 5.2 107.5 5.2 C 107.4 5.0 108.0 4.9 108.7 4.8 C 108.9 4.9 110.1 4.7 110.6 4.6 C 110.8 4.7 112.8 4.8 113.2 4.6 C 113.2 4.5 112.1 4.6 111.9 4.5 C 113.4 4.4 114.4 4.3 115.1 4.2 C 115.6 4.7 117.9 4.0 120.9 4.1 C 122.7 3.7 120.5 3.7 122.8 3.4 C 124.2 3.4 122.5 3.6 122.8 3.8 C 123.2 3.8 125.3 3.9 125.4 3.7 C 125.4 3.6 124.3 3.7 124.1 3.6 C 125.8 3.2 125.8 3.5 126.7 3.6 C 126.6 3.4 127.7 3.3 128.0 3.1 C 132.6 2.7 132.6 3.1 134.5 3.2 C 134.5 3.1 135.6 3.1 135.8 3.0 C 134.4 3.2 132.6 3.0 134.5 2.9 C 134.2 3.0 136.9 2.8 137.1 2.7 C 136.8 2.6 135.1 2.7 135.7 2.4 C 138.2 2.3 137.2 2.8 139.1 2.5 C 139.3 2.6 138.2 2.7 137.7 2.8 C 138.5 2.7 139.6 2.7 139.7 2.8 C 138.8 2.9 138.8 3.1 138.4 3.2 C 139.7 3.0 142.0 3.1 140.4 2.8 C 143.0 2.8 145.5 2.6 143.7 2.4 C 145.8 2.3 144.6 2.7 146.3 2.4 C 146.0 2.7 145.5 2.9 146.9 3.1 C 147.2 2.9 148.3 2.8 148.2 2.6 C 151.3 2.6 152.2 2.9 153.5 3.1 C 152.4 2.7 153.9 3.0 155.4 2.7 C 156.4 2.9 155.5 3.2 158.1 3.1 C 155.3 2.7 161.3 3.0 160.1 2.6 C 163.3 2.8 163.2 2.8 166.6 3.0 C 166.3 3.1 165.5 3.2 164.0 3.2 C 165.0 3.0 161.1 3.0 161.4 3.1 C 161.4 3.2 161.4 3.2 161.4 3.3 C 163.9 3.3 165.5 3.4 166.6 3.5 C 167.1 3.4 168.3 3.3 167.9 3.0 C 170.3 3.4 172.8 3.1 173.8 3.4 C 173.0 3.4 172.2 3.3 172.5 3.5 C 173.4 3.5 174.6 3.5 174.5 3.2 C 172.6 3.1 172.2 3.1 171.2 3.2 C 172.1 3.0 169.3 2.8 171.2 2.8 C 171.2 3.2 175.1 2.8 173.8 3.0 C 171.7 3.0 176.2 3.3 176.4 3.5 C 176.4 3.5 176.4 3.5 176.4 3.5 Z M 224.8 102.7 C 226.6 102.2 224.3 102.4 223.0 102.6 C 223.4 102.6 223.6 102.7 223.6 102.9 C 224.2 102.7 224.7 102.6 224.8 102.7 C 224.8 102.7 224.8 102.7 224.8 102.7 Z M 204.8 102.0 C 204.2 102.4 207.3 101.8 208.5 101.7 C 208.2 101.7 207.7 101.7 208.5 101.6 C 207.2 101.5 206.7 102.0 204.8 102.0 C 204.8 102.0 204.8 102.0 204.8 102.0 Z M 133.3 105.2 C 133.8 105.2 135.0 105.2 135.2 105.3 C 135.9 105.3 135.7 105.2 135.9 105.1 C 137.4 105.1 135.5 105.5 137.8 105.4 C 138.7 105.0 133.8 104.7 133.3 105.2 C 133.3 105.2 133.3 105.2 133.3 105.2 Z M 151.5 6.6 C 152.5 6.7 150.2 6.9 150.9 7.1 C 154.5 6.9 151.7 6.6 156.7 6.7 C 156.4 6.7 156.0 6.6 156.1 6.5 C 153.7 6.6 153.5 6.8 154.1 6.3 C 153.0 6.3 152.8 6.9 151.5 6.6 C 151.5 6.6 151.5 6.6 151.5 6.6 Z M 197.8 9.7 C 197.4 9.6 197.1 9.5 197.1 9.4 C 195.7 9.4 196.0 9.4 194.0 9.2 C 194.2 9.6 196.1 9.7 197.8 9.7 C 197.8 9.7 197.8 9.7 197.8 9.7 Z M 300.3 49.9 C 300.4 50.1 300.5 50.4 300.6 50.6 C 300.7 50.4 301.2 50.9 300.7 49.8 C 300.6 49.7 300.7 49.9 300.8 50.1 C 300.6 50.0 300.4 49.4 300.3 49.6 C 300.4 49.9 300.4 49.9 300.3 49.9 C 300.3 49.9 300.3 49.9 300.3 49.9 Z M 285.4 79.1 C 287.5 77.5 281.7 80.4 285.4 79.1 C 285.4 79.1 285.4 79.1 285.4 79.1 C 285.4 79.1 285.4 79.1 285.4 79.1 Z M 291.4 78.5 C 291.5 78.5 291.9 78.2 291.9 78.1 C 293.7 76.9 292.1 78.3 293.1 77.7 C 294.3 76.5 292.2 77.8 293.8 76.4 C 293.3 76.6 292.4 77.8 291.4 78.5 C 291.4 78.5 291.4 78.5 291.4 78.5 Z M 21.6 29.2 C 20.0 30.3 19.8 30.8 19.7 31.2 C 20.7 30.5 21.6 30.0 22.0 29.8 C 24.0 28.4 20.6 30.6 20.2 30.7 C 20.3 30.4 21.7 29.4 21.6 29.2 C 21.6 29.2 21.6 29.2 21.6 29.2 Z M 16.7 32.7 C 16.2 33.2 15.4 34.0 15.5 34.2 C 16.3 33.5 16.5 33.5 16.6 33.5 C 17.3 32.8 16.2 33.4 16.7 32.7 C 16.7 32.7 16.7 32.7 16.7 32.7 Z M 26.8 26.6 C 25.9 27.1 26.3 27.0 26.3 27.2 C 27.5 26.6 27.7 26.5 29.0 25.9 C 28.9 25.8 28.9 25.7 28.9 25.7 C 27.8 26.2 27.8 26.3 26.9 26.8 C 26.8 26.7 26.8 26.7 26.8 26.6 C 26.8 26.6 26.8 26.6 26.8 26.6 Z M 12.8 36.5 C 10.5 38.6 10.0 39.8 9.2 41.4 C 10.4 39.8 11.3 38.1 12.5 37.1 C 13.8 35.8 12.0 37.4 12.0 37.3 C 11.9 37.3 12.4 36.8 12.8 36.5 C 12.8 36.5 12.8 36.5 12.8 36.5 Z M 3.2 56.5 C 3.0 57.0 3.5 57.9 3.7 59.3 C 3.7 59.0 3.7 58.8 3.9 58.7 C 3.6 56.8 3.3 58.0 3.2 56.5 C 3.2 56.5 3.2 56.5 3.2 56.5 Z M 7.2 67.6 C 8.0 68.7 7.0 66.9 7.5 67.4 C 6.7 66.2 6.0 64.8 5.8 65.0 C 6.6 66.3 6.8 66.5 7.2 67.6 C 7.2 67.6 7.2 67.6 7.2 67.6 Z M 13.7 75.0 C 15.1 76.0 13.4 74.3 14.1 74.6 C 13.6 74.1 13.6 74.3 13.5 74.4 C 13.1 74.0 12.8 73.6 12.3 73.1 C 12.6 73.6 14.1 74.9 13.7 75.0 C 13.7 75.0 13.7 75.0 13.7 75.0 Z M 68.6 12.1 C 67.6 12.4 68.0 12.6 65.9 13.0 C 69.0 12.2 67.4 13.3 71.6 12.3 C 70.9 12.3 71.3 12.1 71.6 12.2 C 73.1 11.7 70.1 12.4 71.5 11.8 C 70.3 12.1 71.1 12.2 69.9 12.5 C 68.7 12.6 67.9 12.6 68.6 12.1 C 68.6 12.1 68.6 12.1 68.6 12.1 Z M 71.7 12.5 C 72.8 12.3 72.7 11.9 73.3 12.0 C 73.9 11.9 73.8 11.8 73.9 11.7 C 73.4 11.8 73.4 11.8 73.3 11.7 C 72.3 12.0 71.3 12.3 71.7 12.5 C 71.7 12.5 71.7 12.5 71.7 12.5 Z M 61.1 15.1 C 63.0 14.5 63.5 14.5 64.4 14.1 C 65.1 14.3 65.6 13.6 66.6 13.7 C 68.5 13.2 67.1 13.4 66.6 13.4 C 68.3 12.9 67.0 13.5 68.8 13.0 C 69.1 12.7 66.8 13.3 67.0 13.0 C 65.7 13.3 65.7 13.5 64.9 13.7 C 64.2 13.9 64.4 13.7 64.3 13.6 C 62.7 14.1 62.8 13.9 61.5 14.3 C 61.3 14.6 61.8 14.5 63.2 14.1 C 61.8 14.6 61.2 14.9 59.5 15.3 C 60.6 14.7 55.3 16.1 55.8 16.4 C 57.2 16.0 56.8 15.9 57.3 15.7 C 59.2 15.4 60.4 15.0 61.1 15.1 C 61.1 15.1 61.1 15.1 61.1 15.1 Z M 27.8 26.9 C 27.2 27.2 26.7 27.4 25.8 27.9 C 25.7 27.8 26.8 27.2 25.7 27.6 C 24.3 28.4 24.1 28.6 23.3 29.2 C 23.8 29.0 26.7 27.6 25.3 28.5 C 25.8 28.4 26.7 27.9 27.9 27.2 C 26.4 27.7 29.9 26.2 31.4 25.5 C 31.1 25.2 33.9 24.4 34.9 23.6 C 34.0 23.8 31.1 25.4 29.9 26.0 C 30.5 25.7 26.3 27.3 27.8 26.9 C 27.8 26.9 27.8 26.9 27.8 26.9 Z M 76.2 11.4 C 76.5 11.2 77.8 10.9 76.8 11.1 C 77.3 10.9 78.4 10.8 77.8 10.5 C 78.5 10.4 79.0 10.3 79.6 10.2 C 79.4 10.4 77.8 10.6 78.5 10.7 C 79.6 10.4 79.2 10.6 80.8 10.3 C 80.0 10.7 80.9 10.5 80.3 11.0 C 80.8 10.7 82.2 10.5 82.1 10.3 C 84.3 9.9 81.5 10.7 84.5 10.2 C 84.4 10.4 82.3 10.8 81.6 10.8 C 81.2 11.1 85.2 10.2 87.5 9.9 C 85.5 10.0 87.0 9.5 87.9 9.2 C 88.7 9.1 88.0 9.3 89.2 9.3 C 90.2 9.1 90.7 8.9 91.0 9.0 C 91.9 8.8 91.5 8.7 91.6 8.6 C 93.0 8.4 92.0 8.9 94.1 8.5 C 92.5 8.4 94.2 8.1 97.1 7.8 C 96.9 7.7 96.0 7.8 95.8 7.7 C 96.2 7.5 97.9 7.6 98.3 7.6 C 99.3 7.4 98.6 7.4 97.7 7.5 C 98.3 7.3 98.9 7.2 99.5 7.0 C 96.4 7.4 91.6 8.2 86.1 8.8 C 87.2 8.8 85.9 9.0 84.3 9.2 C 84.0 9.1 84.7 9.0 85.5 8.9 C 83.5 8.9 83.7 9.5 80.8 9.9 C 79.2 10.1 82.5 9.4 80.7 9.6 C 79.7 9.9 78.9 10.2 78.4 10.0 C 76.5 10.5 76.1 10.9 73.2 11.5 C 74.9 11.3 75.7 11.7 77.4 11.2 C 77.4 11.1 76.6 11.3 76.2 11.4 C 76.2 11.4 76.2 11.4 76.2 11.4 Z M 16.7 33.6 C 15.8 34.3 15.5 34.8 15.2 34.8 C 13.9 36.0 15.6 34.9 15.9 34.7 C 16.5 34.1 16.7 33.8 16.7 33.6 C 16.7 33.6 16.7 33.6 16.7 33.6 Z M 141.6 107.6 C 144.1 107.8 143.6 107.5 145.6 107.5 C 144.0 107.4 143.6 107.2 141.0 107.1 C 140.9 107.3 140.9 107.5 141.6 107.6 C 141.6 107.6 141.6 107.6 141.6 107.6 Z M 22.1 30.0 C 23.4 28.9 20.6 31.4 20.5 31.2 C 19.0 32.4 22.0 30.3 20.7 31.5 C 22.0 30.5 22.9 30.1 24.7 28.9 C 24.6 28.8 23.1 29.7 21.7 30.6 C 21.5 30.6 22.2 30.1 22.1 30.0 C 22.1 30.0 22.1 30.0 22.1 30.0 Z M 116.4 105.5 C 114.7 105.5 118.0 106.1 118.9 106.3 C 119.0 106.0 118.5 106.0 116.4 105.5 C 116.4 105.5 116.4 105.5 116.4 105.5 Z M 158.7 107.4 C 159.6 107.1 155.7 107.4 156.7 107.1 C 155.6 107.1 155.4 107.2 155.4 107.3 C 154.8 107.2 152.9 107.2 153.5 107.0 C 153.1 106.8 156.4 107.1 155.4 106.8 C 156.5 106.8 156.5 106.9 157.3 106.9 C 155.4 106.9 156.3 107.1 158.7 107.2 C 158.7 107.0 157.6 107.0 158.7 106.9 C 158.8 107.0 160.0 107.1 160.0 107.5 C 162.0 107.4 160.8 107.0 163.2 107.0 C 163.0 106.9 161.5 106.9 160.6 106.8 C 160.8 106.6 163.2 107.0 162.6 106.6 C 163.1 106.8 164.5 106.9 164.6 107.2 C 162.7 107.3 161.5 107.5 160.0 107.6 C 161.4 107.8 163.4 107.2 165.8 107.4 C 165.6 107.2 167.0 107.2 166.5 107.0 C 168.4 107.0 167.6 107.3 167.2 107.3 C 167.7 107.5 171.4 107.3 171.1 107.1 C 171.4 107.3 175.8 107.0 175.6 106.7 C 177.0 106.9 179.0 106.4 179.6 106.7 C 180.3 106.5 181.8 106.5 183.5 106.4 C 183.9 106.1 181.1 106.4 180.9 106.2 C 180.3 106.0 183.9 106.1 183.4 105.9 C 183.4 105.8 183.4 105.8 183.4 105.7 C 182.1 105.9 180.8 106.0 179.5 106.2 C 178.6 106.2 179.8 106.1 179.5 106.0 C 178.6 106.2 174.5 106.7 174.3 106.2 C 171.5 106.5 169.6 106.4 168.4 106.7 C 166.8 106.7 169.4 106.5 168.4 106.3 C 163.5 106.8 157.5 106.5 153.5 106.9 C 152.6 106.8 152.9 106.7 152.8 106.5 C 147.1 106.7 151.9 107.1 147.5 106.9 C 147.5 106.7 149.6 106.7 149.5 106.5 C 148.0 106.5 147.6 106.6 145.5 106.5 C 145.5 106.6 145.5 106.7 145.5 106.8 C 143.9 106.8 144.5 106.5 143.6 106.4 C 141.5 106.4 142.0 106.6 141.0 106.2 C 139.1 106.3 137.2 106.3 135.1 106.1 C 133.8 106.2 136.3 106.7 138.4 106.8 C 138.3 106.9 137.7 106.8 137.7 106.9 C 135.3 106.6 134.9 106.2 131.3 105.9 C 134.0 106.3 129.8 106.0 129.3 105.7 C 127.8 105.7 128.9 106.1 129.9 106.1 C 129.7 106.2 128.8 106.0 128.7 105.9 C 128.5 106.3 132.0 106.7 135.7 106.7 C 134.0 107.0 138.4 106.8 136.4 107.2 C 139.5 107.2 136.9 106.9 140.3 107.0 C 140.0 106.9 139.4 106.8 139.0 106.7 C 141.7 106.7 140.9 107.0 143.6 107.0 C 144.1 106.8 142.3 106.8 142.3 106.7 C 145.3 107.0 146.2 107.1 148.2 107.4 C 148.6 107.2 148.1 107.0 151.5 107.2 C 151.5 107.2 151.5 107.3 151.5 107.3 C 149.9 107.3 149.5 107.7 153.4 107.7 C 153.7 107.6 152.5 107.6 151.5 107.6 C 151.9 107.4 153.2 107.4 154.7 107.4 C 155.5 107.4 156.4 107.5 155.4 107.5 C 156.0 107.7 156.6 107.3 158.7 107.4 C 158.7 107.4 158.7 107.4 158.7 107.4 Z M 3.8 54.3 C 3.8 54.6 3.8 55.0 3.8 55.6 C 4.0 55.9 4.0 54.7 4.1 54.7 C 4.2 53.8 3.9 54.5 3.8 54.3 C 3.8 54.3 3.8 54.3 3.8 54.3 Z M 8.6 42.3 C 8.3 42.2 8.1 43.0 7.4 43.9 C 7.4 44.3 8.1 43.2 8.3 43.2 C 9.1 42.2 7.7 43.3 8.6 42.3 C 8.6 42.3 8.6 42.3 8.6 42.3 Z M 5.6 47.3 C 5.2 47.7 5.5 47.8 5.9 46.9 C 6.0 47.0 6.0 47.3 5.8 47.9 C 6.3 47.4 6.1 46.8 6.7 45.8 C 6.4 46.1 6.0 46.6 5.6 47.3 C 5.6 47.3 5.6 47.3 5.6 47.3 Z M 5.0 49.0 C 4.9 49.7 4.5 50.1 4.4 51.2 C 4.7 51.0 5.3 48.6 5.4 48.2 C 5.3 47.7 4.4 50.3 5.0 49.0 C 5.0 49.0 5.0 49.0 5.0 49.0 Z M 91.6 102.1 C 92.2 102.2 92.1 102.1 92.2 102.1 C 94.0 102.7 96.7 103.0 94.5 103.1 C 96.5 103.2 98.4 103.7 100.0 104.0 C 101.5 104.2 100.8 103.9 101.9 104.0 C 103.7 104.3 101.0 104.0 101.3 104.2 C 101.6 104.4 102.2 104.1 104.4 104.5 C 103.9 104.0 106.3 104.7 105.7 104.2 C 106.9 104.5 107.3 104.4 108.9 104.6 C 108.7 104.4 107.2 104.2 107.0 104.1 C 106.2 103.7 106.1 104.2 107.6 104.3 C 106.7 104.4 104.5 103.8 103.9 103.9 C 103.1 103.6 105.9 104.1 105.1 103.8 C 104.6 103.7 104.0 103.7 103.9 103.8 C 103.0 103.6 102.4 103.5 102.0 103.3 C 102.6 103.4 102.6 103.4 102.6 103.5 C 103.8 103.6 101.5 102.9 103.9 103.2 C 103.5 103.1 102.5 103.0 102.7 102.8 C 102.0 102.6 102.6 103.5 100.2 102.9 C 98.5 102.9 104.0 103.6 102.6 103.9 C 99.1 103.4 101.1 103.3 98.3 102.9 C 98.3 103.0 98.4 103.1 97.7 103.0 C 97.8 103.2 98.8 103.3 99.5 103.4 C 99.4 103.5 98.4 103.3 97.6 103.2 C 97.7 103.3 98.3 103.4 98.3 103.4 C 95.9 103.0 96.3 102.6 98.4 102.7 C 98.3 102.5 95.5 102.1 94.7 102.1 C 95.4 102.4 94.6 102.3 95.2 102.6 C 95.8 102.7 95.7 102.6 95.9 102.6 C 97.0 102.8 95.9 102.7 95.9 102.8 C 94.6 102.6 94.7 102.4 93.4 102.3 C 93.7 102.3 94.0 102.3 94.1 102.2 C 93.5 102.1 92.8 102.0 92.2 101.9 C 92.3 102.1 91.5 102.0 91.6 102.1 C 91.6 102.1 91.6 102.1 91.6 102.1 Z M 124.1 106.4 C 126.2 106.6 125.1 106.3 124.1 106.3 C 124.6 106.2 125.3 106.2 126.1 106.2 C 125.4 106.1 124.9 106.1 122.9 105.9 C 124.7 105.7 122.9 105.2 119.7 105.0 C 118.7 105.4 121.4 105.6 120.3 105.8 C 122.6 105.8 123.9 106.1 124.1 106.4 C 124.1 106.4 124.1 106.4 124.1 106.4 Z M 16.0 34.7 C 15.0 35.5 14.1 36.3 13.3 37.1 C 13.5 37.1 16.4 34.9 16.0 34.7 C 16.0 34.7 16.0 34.7 16.0 34.7 Z M 102.0 7.0 C 102.5 6.9 102.6 7.0 102.7 7.0 C 104.5 6.7 101.8 6.9 102.6 6.6 C 101.9 6.7 101.3 6.8 100.7 6.9 C 100.6 7.0 103.3 6.8 101.4 7.1 C 101.5 7.2 102.0 7.1 102.0 7.0 C 102.0 7.0 102.0 7.0 102.0 7.0 Z M 4.2 53.4 C 4.2 54.2 4.4 53.7 4.4 55.6 C 4.5 55.0 4.5 54.5 4.5 53.4 C 4.4 53.4 4.3 53.4 4.2 53.4 C 4.2 53.4 4.2 53.4 4.2 53.4 Z M 82.5 101.0 C 84.0 101.5 84.5 101.0 87.3 101.7 C 85.9 101.1 84.2 101.2 82.5 101.0 C 82.5 101.0 82.5 101.0 82.5 101.0 Z M 188.6 105.6 C 187.6 105.6 188.8 105.5 187.2 105.5 C 186.4 105.6 186.0 105.8 184.7 105.9 C 186.5 106.0 189.8 105.5 191.1 105.8 C 192.7 105.6 192.5 105.4 193.0 105.2 C 192.3 105.2 191.9 105.2 191.7 105.2 C 190.8 105.6 189.7 105.1 188.6 105.6 C 188.6 105.6 188.6 105.6 188.6 105.6 Z M 115.8 105.4 C 114.7 105.1 116.7 105.2 117.1 105.1 C 118.0 105.2 117.6 105.3 117.8 105.5 C 118.9 105.5 119.2 105.4 119.0 105.2 C 116.9 105.0 114.3 104.7 115.9 104.6 C 113.9 104.3 114.9 104.7 113.9 104.7 C 112.9 104.4 113.9 104.5 114.0 104.2 C 113.5 104.2 111.9 104.4 112.1 104.0 C 109.0 104.1 110.3 104.6 112.6 105.2 C 114.7 105.2 112.3 104.8 115.8 105.4 C 115.8 105.4 115.8 105.4 115.8 105.4 Z M 38.9 88.3 C 39.1 88.5 40.6 89.1 40.5 89.2 C 42.3 89.6 44.0 90.0 45.8 90.4 C 45.5 90.0 43.1 89.4 44.0 89.9 C 43.3 89.5 41.8 88.8 40.9 88.3 C 39.2 87.6 38.5 87.8 38.4 87.4 C 36.9 86.9 37.7 87.3 35.4 86.1 C 39.0 88.0 34.0 85.7 33.7 85.8 C 35.8 86.8 37.8 87.6 37.6 87.3 C 39.2 88.1 41.1 88.9 41.4 89.2 C 41.2 89.3 39.9 88.7 38.9 88.3 C 38.9 88.3 38.9 88.3 38.9 88.3 Z M 49.3 91.4 C 48.6 91.2 47.9 91.0 46.7 90.6 C 47.4 90.9 47.6 91.1 47.5 91.2 C 49.7 92.0 49.9 91.9 50.2 92.2 C 51.4 92.7 50.1 91.8 51.9 92.5 C 51.7 92.4 50.8 92.1 50.9 92.0 C 50.7 92.1 50.4 92.1 49.3 91.4 C 49.3 91.4 49.3 91.4 49.3 91.4 Z M 65.5 96.7 C 67.0 97.0 64.8 96.3 65.6 96.3 C 65.2 96.3 62.5 95.5 63.0 95.4 C 62.2 94.9 59.4 94.8 59.7 94.5 C 59.1 94.3 59.3 94.5 59.2 94.5 C 61.0 95.0 61.0 95.2 59.6 94.8 C 59.8 95.0 61.0 95.3 61.7 95.5 C 61.9 95.4 61.2 95.2 61.3 95.1 C 62.9 95.6 64.1 96.1 65.5 96.7 C 65.5 96.7 65.5 96.7 65.5 96.7 Z M 172.4 4.6 C 170.9 4.5 169.9 4.5 169.1 4.5 C 169.6 4.7 170.3 4.6 171.1 4.6 C 171.3 4.8 170.6 4.7 169.8 4.7 C 170.5 5.0 173.3 4.9 172.4 4.6 C 172.4 4.6 172.4 4.6 172.4 4.6 Z M 159.3 4.3 C 157.9 4.2 156.9 4.3 156.7 4.4 C 157.3 4.6 157.1 4.3 158.1 4.3 C 158.6 4.4 159.0 4.5 159.3 4.6 C 160.0 4.6 159.8 4.5 160.0 4.4 C 160.5 4.4 160.6 4.5 160.7 4.5 C 162.5 4.3 158.6 4.5 159.3 4.3 C 159.3 4.3 159.3 4.3 159.3 4.3 Z M 56.5 94.0 C 56.0 93.8 55.7 93.5 54.4 93.2 C 54.7 93.4 53.6 93.1 52.8 92.8 C 54.0 93.4 54.6 93.5 56.5 94.0 C 56.5 94.0 56.5 94.0 56.5 94.0 Z M 80.4 11.1 C 78.6 11.2 78.8 11.6 76.3 11.9 C 76.3 12.0 76.3 12.1 76.3 12.2 C 77.8 11.7 78.5 11.7 80.4 11.1 C 80.4 11.1 80.4 11.1 80.4 11.1 Z M 302.9 64.3 C 302.8 64.1 302.2 65.4 302.1 65.4 C 302.3 65.8 301.5 66.1 299.8 68.5 C 299.7 68.4 299.8 68.2 300.0 67.9 C 298.5 69.8 300.6 67.6 300.9 67.5 C 301.9 65.9 302.2 65.8 302.9 64.3 C 302.9 64.3 302.9 64.3 302.9 64.3 Z M 169.1 105.9 C 169.0 106.0 169.4 106.0 169.7 106.0 C 170.2 106.0 170.6 106.0 171.0 105.9 C 170.9 105.6 168.7 105.6 170.4 105.2 C 169.8 105.2 169.7 105.2 169.7 105.3 C 166.6 106.1 164.1 105.0 159.9 105.5 C 159.3 105.5 159.4 105.6 159.3 105.6 C 159.8 105.6 159.9 105.7 159.9 105.7 C 160.5 105.4 164.2 105.7 162.6 105.8 C 162.7 105.9 163.2 105.9 163.2 105.8 C 163.6 105.8 164.1 105.8 164.5 105.8 C 164.3 105.7 163.4 105.7 163.2 105.6 C 165.3 105.7 167.8 105.7 166.5 106.0 C 167.8 106.0 168.2 105.8 169.1 105.7 C 169.9 105.7 169.9 105.9 169.1 105.9 C 169.1 105.9 169.1 105.9 169.1 105.9 Z M 185.9 105.0 C 187.9 104.9 187.1 104.7 189.1 104.6 C 187.9 104.5 186.3 104.9 184.6 104.8 C 184.9 104.9 185.8 104.9 185.9 105.0 C 185.9 105.0 185.9 105.0 185.9 105.0 Z M 148.2 105.7 C 148.6 105.4 146.8 105.4 144.9 105.3 C 144.6 105.6 146.3 105.7 148.2 105.7 C 148.2 105.7 148.2 105.7 148.2 105.7 Z M 156.7 105.7 C 158.6 105.6 154.3 105.7 155.4 105.4 C 154.5 105.4 153.5 105.4 153.5 105.4 C 152.8 105.4 152.8 105.5 151.5 105.5 C 151.5 105.7 153.6 105.6 153.5 105.7 C 154.9 105.6 155.2 105.6 156.7 105.7 C 156.7 105.7 156.7 105.7 156.7 105.7 Z M 158.0 105.7 C 159.2 105.7 157.7 105.3 156.1 105.3 C 156.6 105.4 157.0 105.6 158.0 105.7 C 158.0 105.7 158.0 105.7 158.0 105.7 Z M 14.5 72.5 C 15.1 73.0 14.8 72.4 15.5 73.0 C 15.5 72.9 13.1 70.7 15.2 72.5 C 14.6 71.6 13.9 71.6 13.2 70.7 C 13.4 71.0 13.5 71.3 13.1 70.8 C 12.6 70.7 14.9 72.6 14.5 72.5 C 14.5 72.5 14.5 72.5 14.5 72.5 Z M 17.1 74.7 C 17.6 75.1 17.4 74.8 17.1 74.6 C 17.3 74.6 18.0 75.3 18.6 75.7 C 18.6 75.8 17.8 74.6 18.0 74.5 C 15.5 72.8 17.1 74.4 17.1 74.7 C 17.1 74.7 17.1 74.7 17.1 74.7 Z M 19.5 76.4 C 21.1 77.8 23.7 79.4 25.1 79.9 C 23.9 78.8 20.5 76.7 19.5 76.4 C 19.5 76.4 19.5 76.4 19.5 76.4 Z M 8.1 63.8 C 9.0 66.3 12.6 70.6 10.0 66.4 C 9.9 66.6 8.1 64.0 7.7 62.6 C 7.6 62.6 6.8 61.2 6.9 61.1 C 6.4 60.1 8.2 64.5 8.1 63.8 C 8.1 63.8 8.1 63.8 8.1 63.8 Z M 27.7 80.9 C 26.6 80.4 27.7 81.6 26.3 80.5 C 25.4 80.1 26.5 80.8 26.2 80.8 C 28.1 81.8 32.5 83.8 32.8 84.2 C 33.9 84.6 34.3 84.7 36.5 85.6 C 36.6 85.6 28.9 82.3 27.7 81.0 C 27.8 81.0 30.3 82.3 27.7 80.9 C 27.7 80.9 27.7 80.9 27.7 80.9 Z M 80.6 12.5 C 80.8 12.3 78.4 12.9 78.8 12.6 C 77.6 13.1 76.3 13.2 74.9 13.7 C 74.5 13.7 74.6 13.3 72.6 13.7 C 72.6 13.9 73.5 13.7 72.6 14.0 C 70.8 14.5 71.2 14.1 69.2 14.7 C 69.6 15.0 64.9 15.8 65.5 16.1 C 66.5 15.8 66.4 15.6 68.2 15.2 C 68.8 15.1 68.6 15.3 69.3 15.1 C 68.8 15.5 67.8 15.4 67.1 15.7 C 67.3 15.8 68.7 15.5 68.9 15.6 C 69.7 15.4 68.6 15.6 68.8 15.4 C 71.0 14.8 68.8 16.0 71.1 15.3 C 70.6 15.2 70.6 15.2 71.0 14.9 C 72.0 14.8 74.9 14.0 73.3 14.6 C 73.5 14.7 75.2 14.1 75.0 14.0 C 75.9 13.8 76.1 13.8 76.1 13.9 C 78.6 13.3 78.9 13.0 78.3 12.9 C 78.8 12.6 79.2 12.9 80.6 12.5 C 80.6 12.5 80.6 12.5 80.6 12.5 Z M 6.6 51.3 C 6.6 50.3 6.4 52.3 6.2 53.2 C 6.4 52.1 6.6 52.5 6.9 51.4 C 6.7 51.8 6.7 51.7 6.9 50.9 C 6.8 50.7 6.3 52.4 6.6 51.3 C 6.6 51.3 6.6 51.3 6.6 51.3 Z M 41.1 87.6 C 41.9 88.1 46.3 89.6 48.7 90.5 C 48.4 90.0 42.6 88.4 42.0 87.8 C 40.7 87.3 42.6 88.2 41.1 87.6 C 41.1 87.6 41.1 87.6 41.1 87.6 Z M 59.4 17.2 C 58.9 17.4 59.2 17.3 59.4 17.3 C 59.3 17.4 58.2 17.7 57.4 17.9 C 58.6 17.8 57.2 18.2 57.5 18.4 C 56.9 18.6 56.6 18.7 56.5 18.8 C 56.3 18.4 53.3 20.0 56.6 19.1 C 55.9 19.0 56.2 19.0 57.5 18.5 C 59.0 18.2 60.2 17.7 60.8 17.8 C 61.7 17.5 62.1 17.3 63.4 16.9 C 63.7 17.0 65.0 16.8 64.1 17.4 C 66.4 16.8 64.7 16.6 66.7 16.1 C 68.6 15.8 65.8 16.6 66.2 16.7 C 66.7 16.6 66.6 16.7 66.8 16.7 C 67.5 16.5 67.4 16.3 66.8 16.5 C 66.9 16.3 68.8 15.7 68.4 16.1 C 69.5 15.7 66.5 15.8 65.0 16.4 C 64.1 16.7 64.0 16.2 64.9 16.0 C 64.5 15.9 62.9 16.9 63.2 16.3 C 62.5 16.5 61.8 16.7 61.1 16.9 C 61.2 16.9 61.6 16.8 61.6 16.9 C 61.0 17.1 60.2 17.3 59.5 17.5 C 60.1 17.2 60.1 17.1 59.4 17.2 C 59.4 17.2 59.4 17.2 59.4 17.2 Z M 31.5 83.2 C 33.2 84.1 33.7 84.2 35.1 84.8 C 34.6 84.4 30.8 82.6 31.5 83.2 C 31.5 83.2 31.5 83.2 31.5 83.2 Z M 90.8 11.4 C 90.6 11.4 89.6 11.6 89.6 11.5 C 91.4 11.1 89.3 11.3 90.7 10.7 C 88.3 11.3 87.6 11.9 90.9 11.6 C 93.2 11.2 88.4 11.9 90.8 11.4 C 90.8 11.4 90.8 11.4 90.8 11.4 Z M 83.6 12.5 C 82.2 12.9 85.9 12.4 86.7 12.3 C 86.7 12.4 86.7 12.5 86.7 12.5 C 88.7 11.8 85.9 12.2 87.7 11.4 C 85.4 11.7 84.4 11.8 82.4 12.3 C 82.6 12.3 83.0 12.2 83.0 12.2 C 84.5 11.9 83.5 12.4 81.9 12.6 C 82.4 12.6 83.8 12.4 84.8 12.2 C 84.5 12.2 84.2 12.2 84.2 12.1 C 85.5 11.8 85.0 12.1 86.0 11.9 C 86.0 12.1 83.7 12.7 83.6 12.5 C 83.6 12.5 83.6 12.5 83.6 12.5 Z M 208.5 9.3 C 207.3 9.2 209.8 9.8 209.6 10.2 C 210.9 10.4 211.2 10.4 212.1 10.4 C 211.7 10.2 210.3 10.0 209.7 9.8 C 210.0 9.5 211.6 10.1 212.1 10.0 C 213.0 9.7 209.0 9.7 208.5 9.3 C 208.5 9.3 208.5 9.3 208.5 9.3 Z M 28.4 29.6 C 27.7 30.0 28.1 29.9 28.4 29.7 C 28.4 29.8 27.3 30.4 27.2 30.4 C 26.3 30.9 27.8 30.2 26.7 30.8 C 26.5 31.1 28.4 29.9 28.5 29.8 C 29.9 29.0 28.9 29.8 29.3 29.7 C 30.6 29.1 30.0 29.1 31.9 28.3 C 30.7 28.7 29.7 29.1 28.4 29.6 C 28.4 29.6 28.4 29.6 28.4 29.6 Z M 94.9 10.3 C 95.2 10.2 93.6 10.9 92.0 10.9 C 89.8 11.3 93.3 11.0 91.4 11.3 C 93.0 11.1 94.9 10.6 97.4 10.2 C 98.0 10.0 94.0 10.7 96.2 10.2 C 96.1 10.2 95.5 10.3 95.5 10.3 C 95.1 10.4 95.0 10.4 94.9 10.3 C 94.9 10.3 94.9 10.3 94.9 10.3 Z M 92.6 11.3 C 92.7 11.3 93.3 11.2 93.3 11.2 C 94.0 11.1 94.0 11.3 93.3 11.4 C 94.3 11.5 94.2 11.0 96.3 10.9 C 95.4 10.8 94.9 10.7 96.9 10.6 C 98.4 10.2 93.3 11.0 92.6 11.3 C 92.6 11.3 92.6 11.3 92.6 11.3 Z M 188.4 7.4 C 188.6 7.6 190.0 7.6 191.0 7.7 C 189.7 7.8 184.5 7.3 183.9 7.1 C 183.4 7.1 182.8 7.1 182.6 7.0 C 182.7 7.1 181.2 7.1 182.0 7.2 C 181.8 7.3 180.7 7.2 180.7 7.3 C 178.8 7.1 181.3 7.2 180.7 7.0 C 178.4 7.1 178.9 6.9 176.2 6.8 C 176.6 7.0 179.7 7.1 179.4 7.4 C 181.5 7.2 183.8 7.6 185.1 7.9 C 183.2 7.4 190.7 7.8 194.1 8.2 C 194.0 8.3 195.2 8.4 196.6 8.6 C 197.6 9.0 197.3 8.4 195.4 8.3 C 195.5 8.2 198.0 8.6 199.1 8.6 C 197.9 8.4 198.6 8.3 197.9 8.2 C 195.5 7.9 197.7 8.2 197.2 8.4 C 196.6 8.3 196.0 8.3 195.3 8.2 C 198.7 8.1 190.5 7.7 193.5 7.9 C 190.9 7.7 190.9 7.5 188.4 7.4 C 188.4 7.4 188.4 7.4 188.4 7.4 Z M 127.6 6.9 C 127.1 7.0 125.1 7.3 125.0 7.1 C 122.4 7.5 124.7 7.5 121.8 7.7 C 122.0 7.8 123.1 7.7 123.1 7.8 C 124.2 7.7 125.3 7.5 125.0 7.3 C 126.3 7.2 126.7 7.1 127.6 7.0 C 127.3 7.1 126.8 7.2 125.6 7.3 C 125.5 7.5 125.9 7.6 127.6 7.5 C 128.3 7.3 127.8 7.1 127.6 6.9 C 127.6 6.9 127.6 6.9 127.6 6.9 Z M 121.2 7.7 C 120.8 7.7 120.5 7.6 120.5 7.5 C 119.6 7.3 120.2 7.9 119.2 8.0 C 118.5 8.0 118.7 7.9 118.6 7.8 C 117.5 7.9 116.6 8.0 116.1 8.0 C 114.4 8.3 118.1 8.0 118.6 8.1 C 119.9 8.0 119.4 7.8 121.2 7.7 C 121.2 7.7 121.2 7.7 121.2 7.7 Z M 102.3 9.4 C 102.0 9.2 101.3 9.6 100.5 9.7 C 101.1 9.9 102.9 9.5 101.7 10.0 C 103.6 9.8 103.7 9.8 105.5 9.5 C 106.7 9.6 105.5 9.3 103.6 9.6 C 103.8 9.5 104.7 9.4 104.8 9.3 C 106.0 9.6 109.1 8.5 107.3 9.0 C 106.7 9.0 106.3 9.0 106.0 8.9 C 105.6 9.2 101.4 9.6 102.3 9.4 C 102.3 9.4 102.3 9.4 102.3 9.4 Z M 44.0 23.1 C 45.6 22.5 46.5 22.2 47.3 21.9 C 48.2 21.6 49.5 21.1 50.5 20.8 C 50.5 20.9 50.4 21.0 50.0 21.2 C 50.5 21.1 51.1 20.9 52.0 20.5 C 51.9 20.4 51.5 20.6 51.5 20.7 C 49.8 21.0 51.2 20.6 51.4 20.3 C 49.4 20.7 46.2 22.3 44.7 22.5 C 43.5 23.1 44.9 22.6 44.0 23.1 C 44.0 23.1 44.0 23.1 44.0 23.1 Z M 301.8 61.9 C 301.8 62.1 301.5 62.8 301.7 62.7 C 301.9 62.1 302.0 61.7 302.2 61.2 C 301.7 62.2 301.5 61.9 300.9 63.2 C 301.2 62.9 301.4 63.1 301.8 61.9 C 301.8 61.9 301.8 61.9 301.8 61.9 Z M 108.5 8.7 C 108.6 8.8 108.7 9.0 107.9 9.1 C 107.7 9.3 109.7 8.9 109.8 9.1 C 110.5 9.0 110.2 8.9 111.1 8.8 C 110.7 8.7 109.1 8.9 109.7 8.6 C 110.3 8.5 110.4 8.6 110.4 8.6 C 111.7 8.4 109.7 8.5 108.5 8.7 C 108.5 8.7 108.5 8.7 108.5 8.7 Z M 214.6 10.4 C 213.7 10.3 214.6 10.5 215.2 10.6 C 213.4 10.6 216.2 11.2 216.3 11.5 C 215.6 11.1 213.1 10.9 212.7 10.8 C 212.0 10.7 212.8 11.1 210.8 10.8 C 211.0 11.1 213.2 11.2 212.7 10.9 C 213.2 11.3 215.3 11.3 215.1 11.5 C 217.8 12.0 218.4 11.9 218.7 11.7 C 216.1 11.4 217.5 11.2 215.2 10.9 C 215.2 10.8 215.9 10.9 216.4 11.0 C 216.2 10.8 215.2 10.6 214.6 10.4 C 214.6 10.4 214.6 10.4 214.6 10.4 Z M 148.3 6.3 C 146.8 6.3 146.9 6.5 146.9 6.7 C 147.5 6.7 148.4 6.6 149.5 6.6 C 149.3 6.5 147.5 6.6 148.3 6.3 C 148.3 6.3 148.3 6.3 148.3 6.3 Z M 204.7 9.4 C 204.6 9.3 204.1 9.3 204.1 9.3 C 202.5 9.2 202.2 9.0 201.6 8.8 C 200.8 8.8 201.1 9.0 201.0 9.1 C 202.5 9.0 202.1 9.3 204.1 9.5 C 204.0 9.4 204.2 9.4 204.7 9.4 C 204.7 9.4 204.7 9.4 204.7 9.4 Z M 161.9 6.5 C 161.2 6.5 161.5 6.5 161.9 6.5 C 161.0 6.8 158.4 6.5 157.3 6.7 C 157.2 6.9 160.5 6.8 156.7 6.9 C 157.4 7.1 160.8 7.0 162.5 7.0 C 162.2 7.2 159.8 7.2 159.9 7.5 C 162.0 7.3 164.2 7.3 164.5 6.9 C 161.6 6.8 162.6 6.6 161.9 6.5 C 161.9 6.5 161.9 6.5 161.9 6.5 Z M 165.1 6.7 C 164.9 6.6 164.3 6.7 163.2 6.6 C 164.8 7.0 165.8 6.9 169.1 7.0 C 169.1 7.0 169.1 6.9 169.1 6.9 C 169.7 6.9 170.4 6.9 171.0 6.9 C 168.2 6.6 167.5 6.7 164.5 6.7 C 164.4 6.7 164.8 6.7 165.1 6.7 C 165.1 6.7 165.1 6.7 165.1 6.7 Z M 80.8 13.2 C 81.6 13.2 82.3 13.2 83.7 13.0 C 83.6 12.8 82.7 12.8 80.8 13.2 C 80.8 13.2 80.8 13.2 80.8 13.2 Z M 207.2 9.9 C 208.9 9.9 205.5 9.7 206.5 10.0 C 207.8 10.3 209.3 10.6 209.5 10.8 C 212.0 10.8 206.8 10.1 207.2 9.9 C 207.2 9.9 207.2 9.9 207.2 9.9 Z M 195.9 9.2 C 195.2 9.1 195.2 8.7 195.9 9.0 C 197.7 9.2 194.4 8.7 197.2 9.0 C 196.0 8.8 193.4 8.4 192.1 8.5 C 192.2 8.7 194.6 8.8 194.6 9.0 C 194.8 9.1 194.4 9.1 194.0 9.0 C 194.3 9.2 194.8 9.1 195.9 9.2 C 195.9 9.2 195.9 9.2 195.9 9.2 Z M 186.4 8.0 C 187.5 8.2 188.7 8.4 190.9 8.6 C 189.5 8.3 188.7 8.0 186.4 8.0 C 186.4 8.0 186.4 8.0 186.4 8.0 Z M 297.0 42.7 C 296.2 41.9 296.7 42.8 296.8 42.9 C 297.5 43.8 297.6 43.7 298.3 44.7 C 298.3 44.2 297.3 43.5 297.0 42.7 C 297.0 42.7 297.0 42.7 297.0 42.7 Z M 299.3 46.1 C 299.2 46.3 300.0 47.5 299.9 47.6 C 300.7 48.1 300.5 49.5 300.8 49.3 C 300.9 49.6 300.9 49.9 301.1 50.4 C 301.2 49.3 300.0 47.1 299.3 46.1 C 299.3 46.1 299.3 46.1 299.3 46.1 Z M 175.5 7.8 C 173.8 7.7 175.9 8.2 174.2 8.1 C 174.1 8.2 177.4 8.4 175.4 8.4 C 178.1 8.7 175.3 7.9 175.5 7.8 C 175.5 7.8 175.5 7.8 175.5 7.8 Z M 143.7 7.8 C 143.9 7.6 141.5 7.8 140.5 7.8 C 140.5 7.8 141.3 7.8 141.8 7.8 C 141.5 7.9 141.2 8.0 140.5 8.0 C 141.0 8.2 142.8 7.8 143.7 7.8 C 143.7 7.8 143.7 7.8 143.7 7.8 Z M 178.9 3.8 C 180.0 4.1 181.4 4.4 182.2 4.1 C 183.3 4.4 181.4 4.3 182.8 4.5 C 184.6 4.5 183.7 4.7 186.7 4.8 C 186.1 5.1 188.2 5.2 188.6 5.4 C 187.4 5.4 185.9 5.0 185.3 5.2 C 186.3 5.3 185.7 5.5 185.3 5.3 C 183.4 5.0 187.7 5.1 185.3 4.8 C 184.6 5.1 181.2 4.3 178.9 4.2 C 179.8 4.0 177.2 3.8 178.9 3.8 C 178.9 3.8 178.9 3.8 178.9 3.8 Z M 190.5 5.1 C 192.0 5.2 192.8 5.8 192.4 5.7 C 192.4 5.6 190.6 5.5 190.4 5.6 C 190.9 5.6 191.3 5.7 191.1 5.7 C 188.3 5.5 189.3 5.3 188.6 5.1 C 190.2 5.1 190.6 5.3 191.2 5.2 C 190.8 5.2 190.4 5.2 190.5 5.1 C 190.5 5.1 190.5 5.1 190.5 5.1 Z M 222.8 13.2 C 222.5 13.0 222.1 13.1 221.5 13.0 C 221.5 12.7 218.4 12.6 218.0 12.4 C 218.7 12.4 220.3 12.6 221.0 12.6 C 220.2 12.5 220.0 12.4 219.2 12.3 C 219.4 12.1 221.2 12.4 221.6 12.3 C 221.8 12.5 222.6 12.4 222.8 12.6 C 220.5 12.3 224.1 13.4 222.8 13.2 C 222.8 13.2 222.8 13.2 222.8 13.2 Z M 160.6 7.7 C 160.4 8.0 163.1 8.6 160.6 8.8 C 160.0 8.6 159.7 8.4 159.9 8.1 C 158.3 8.3 157.7 8.0 156.7 8.3 C 153.7 7.5 159.0 8.3 160.6 7.7 C 160.6 7.7 160.6 7.7 160.6 7.7 Z M 150.2 8.0 C 150.8 7.7 149.3 7.8 149.6 7.6 C 150.8 7.7 154.9 7.5 153.5 7.6 C 152.1 7.7 152.1 7.9 150.2 8.0 C 150.2 8.0 150.2 8.0 150.2 8.0 Z M 76.0 97.4 C 74.1 97.2 73.3 96.6 74.4 96.7 C 73.9 96.8 76.7 97.3 76.0 97.4 C 76.0 97.4 76.0 97.4 76.0 97.4 Z M 7.4 69.3 C 8.2 70.7 9.0 71.3 8.9 71.6 C 7.9 70.5 8.1 70.5 7.3 69.4 C 7.2 69.4 6.6 68.8 6.7 68.6 C 7.1 69.2 7.1 69.0 7.4 69.3 C 7.4 69.3 7.4 69.3 7.4 69.3 Z M 110.6 4.5 C 110.4 4.4 109.7 4.4 110.0 4.2 C 111.9 4.1 114.0 3.7 115.7 3.4 C 115.7 3.5 115.7 3.7 115.7 3.8 C 112.6 3.9 111.8 4.2 110.6 4.5 C 110.6 4.5 110.6 4.5 110.6 4.5 Z M 106.7 4.4 C 106.4 4.6 107.5 4.8 106.2 4.9 C 106.2 4.7 103.8 4.7 104.9 4.6 C 105.3 4.7 105.9 4.6 106.7 4.4 C 106.7 4.4 106.7 4.4 106.7 4.4 Z M 215.0 7.2 C 216.5 7.4 214.4 6.9 214.5 6.8 C 215.6 7.0 217.0 7.2 217.5 7.4 C 216.4 7.3 215.6 7.5 215.0 7.2 C 215.0 7.2 215.0 7.2 215.0 7.2 Z M 191.8 5.1 C 188.5 4.9 190.0 4.6 186.7 4.3 C 188.0 4.2 191.0 4.5 191.9 4.3 C 191.7 4.5 192.5 4.6 192.5 4.7 C 191.3 4.6 191.1 4.5 189.9 4.4 C 190.3 4.7 190.3 4.6 189.9 4.8 C 190.8 4.9 191.3 4.9 191.8 4.9 C 191.6 5.0 192.7 5.2 191.8 5.1 C 191.8 5.1 191.8 5.1 191.8 5.1 Z M 214.3 7.8 C 215.6 7.9 216.6 8.4 215.6 8.2 C 215.4 8.0 214.5 8.1 214.3 7.9 C 216.1 8.1 212.9 7.6 213.8 7.5 C 214.8 7.7 215.2 7.7 215.0 7.5 C 215.7 7.6 216.8 7.7 216.8 7.8 C 216.4 7.8 215.6 7.6 215.6 7.7 C 216.0 7.8 216.3 7.8 216.2 7.9 C 215.1 7.7 214.7 7.7 214.3 7.8 C 214.3 7.8 214.3 7.8 214.3 7.8 Z M 205.7 6.6 C 207.4 6.9 207.6 7.1 208.2 7.3 C 205.9 7.0 205.5 6.6 203.9 6.3 C 205.7 6.5 207.7 6.5 208.2 6.7 C 207.4 6.7 205.9 6.5 205.7 6.6 C 205.7 6.6 205.7 6.6 205.7 6.6 Z M 238.4 98.1 C 237.1 98.3 235.9 98.4 234.4 98.6 C 233.9 99.0 236.8 98.8 235.6 98.9 C 234.1 99.3 235.1 98.7 233.8 99.0 C 235.1 99.0 228.4 100.4 228.0 100.1 C 229.1 99.9 229.4 99.8 229.1 99.7 C 231.9 99.2 232.9 98.7 234.9 98.3 C 236.4 98.3 240.6 97.4 242.8 96.5 C 244.3 96.6 246.8 95.5 248.9 95.3 C 249.3 95.0 247.2 95.5 248.8 95.0 C 249.9 95.0 249.1 95.3 250.5 95.0 C 250.6 94.9 250.2 94.8 251.0 94.6 C 250.9 94.7 251.8 94.5 252.1 94.5 C 249.2 95.3 252.4 94.8 250.1 95.5 C 249.1 95.6 251.0 94.8 248.4 95.5 C 247.4 95.8 246.5 96.2 246.8 96.3 C 246.1 96.5 245.7 96.7 245.2 96.8 C 246.1 96.3 241.4 97.9 243.5 97.0 C 243.7 97.0 245.2 96.6 246.2 96.2 C 245.2 96.2 244.1 96.7 242.4 97.2 C 241.6 97.2 242.6 96.9 241.7 97.0 C 240.4 97.5 242.3 97.3 241.3 97.6 C 241.8 97.5 242.4 97.4 242.4 97.4 C 240.0 97.8 239.1 98.2 237.9 98.5 C 238.7 98.2 236.5 98.6 238.4 98.1 C 238.4 98.1 238.4 98.1 238.4 98.1 Z M 257.8 92.6 C 258.3 92.4 258.8 92.3 259.3 92.1 C 259.5 92.3 257.5 93.0 258.9 92.7 C 256.7 93.4 258.9 92.4 257.8 92.6 C 257.8 92.6 257.8 92.6 257.8 92.6 Z M 247.0 94.8 C 246.2 94.8 246.7 95.2 246.0 95.4 C 247.3 95.0 248.5 94.6 248.7 94.8 C 247.2 95.2 246.5 95.4 244.9 95.8 C 246.4 95.1 243.1 96.0 242.6 95.8 C 243.8 95.5 244.8 95.1 246.4 94.7 C 246.2 94.9 248.6 94.4 247.0 94.8 C 247.0 94.8 247.0 94.8 247.0 94.8 Z M 251.2 93.3 C 251.6 93.4 253.8 92.6 253.4 93.0 C 252.0 93.4 251.5 93.6 251.9 93.7 C 250.9 94.0 250.7 94.0 249.7 94.2 C 249.1 94.1 250.8 93.7 251.2 93.4 C 250.9 93.5 250.6 93.5 251.2 93.3 C 251.2 93.3 251.2 93.3 251.2 93.3 Z M 295.3 69.9 C 295.9 69.7 294.3 71.1 293.9 71.4 C 294.5 71.1 294.4 71.4 293.4 72.4 C 293.6 71.8 292.1 73.2 290.9 73.7 C 290.8 74.1 292.2 73.1 290.6 74.4 C 289.3 75.3 288.3 76.2 286.1 77.6 C 285.4 77.7 286.4 77.1 286.9 76.6 C 285.5 77.6 285.8 77.2 284.6 77.9 C 284.9 77.9 284.0 78.5 283.5 78.6 C 285.6 77.3 280.6 80.0 282.8 78.6 C 282.9 78.6 283.4 78.3 283.9 77.9 C 283.5 78.6 286.2 76.8 286.9 76.6 C 287.6 75.4 290.4 73.8 292.9 71.8 C 293.2 71.8 292.4 72.5 293.1 72.0 C 293.1 71.8 293.9 71.2 294.2 70.8 C 294.2 70.9 294.6 70.7 295.0 70.3 C 295.1 70.2 295.1 70.1 295.3 69.9 C 295.3 69.9 295.3 69.9 295.3 69.9 Z M 135.2 103.5 C 135.4 103.1 131.2 103.2 130.1 103.2 C 130.3 102.8 137.6 103.3 135.2 103.5 C 135.2 103.5 135.2 103.5 135.2 103.5 Z M 160.6 103.6 C 159.5 103.7 160.2 103.9 159.3 103.9 C 159.2 103.6 156.8 104.2 156.7 103.9 C 157.9 103.7 158.7 103.7 160.6 103.6 C 160.6 103.6 160.6 103.6 160.6 103.6 Z M 183.9 102.8 C 182.0 103.0 184.9 102.9 184.5 103.0 C 182.9 103.1 181.2 103.2 181.3 103.0 C 182.7 103.0 183.7 102.6 183.9 102.8 C 183.9 102.8 183.9 102.8 183.9 102.8 Z M 148.9 103.4 C 147.3 103.3 149.9 103.0 150.2 103.2 C 148.5 103.2 151.3 103.4 152.8 103.3 C 152.7 103.6 152.1 103.6 152.8 103.8 C 150.5 103.9 152.4 103.6 150.8 103.6 C 149.7 103.7 150.9 103.7 150.8 103.9 C 150.2 103.9 149.5 103.9 148.9 103.9 C 148.9 103.7 148.9 103.6 148.9 103.5 C 149.7 103.5 150.4 103.5 150.2 103.3 C 149.5 103.3 149.4 103.4 148.9 103.4 C 148.9 103.4 148.9 103.4 148.9 103.4 Z M 264.1 87.1 C 262.8 87.6 264.0 87.2 265.0 86.9 C 265.2 86.7 265.9 86.0 267.4 85.7 C 264.3 87.1 268.4 85.6 266.7 86.4 C 265.9 86.5 264.1 87.5 262.5 88.0 C 261.8 88.0 263.3 87.1 264.1 87.1 C 264.1 87.1 264.1 87.1 264.1 87.1 Z M 269.8 85.0 C 269.7 85.0 269.1 85.2 268.2 85.6 C 269.1 85.0 267.8 85.5 268.9 85.0 C 268.8 85.1 272.9 83.5 270.5 84.6 C 268.4 85.3 271.2 84.4 272.1 84.1 C 271.1 84.5 269.3 85.5 269.0 85.4 C 269.6 85.2 270.0 85.0 269.8 85.0 C 269.8 85.0 269.8 85.0 269.8 85.0 Z M 300.0 62.4 C 299.9 62.2 299.7 62.8 299.5 62.9 C 300.4 61.2 300.9 59.7 301.1 58.9 C 301.0 59.7 301.1 59.8 301.4 59.3 C 301.0 60.2 301.1 60.4 300.8 60.7 C 300.9 59.9 300.6 61.3 300.0 62.4 C 300.0 62.4 300.0 62.4 300.0 62.4 Z M 300.0 62.4 " fill="#000000"></path><image xlink:href="../../1BE7A03E-C66D-4413-94C1-F85C6D2757AE/assets/B3801F04380499D666F22482CDF7C3B4.png" width="87.00" height="38.00" transform="matrix(1.00, 0.00, -0.00, -1.00, 112.0, 70.0)"></image><g><clipPath id="clip-904"><path d="M 6.0 5.4 L 304.2 5.4 L 304.2 105.4 L 6.0 105.4 Z M 6.0 5.4 "></path></clipPath><g clip-path="url(#clip-904)"><text xml:space="preserve" font-family="Chalkduster" font-size="32.0" fill="#000000" transform="matrix(1.00, 0.00, -0.00, -1.00, 116.0, 41.0)">C</text><text xml:space="preserve" font-family="Chalkduster" font-size="32.0" fill="#000000" transform="matrix(1.00, 0.00, -0.00, -1.00, 142.0, 41.0)">A</text><text xml:space="preserve" font-family="Chalkduster" font-size="32.0" fill="#000000" transform="matrix(1.00, 0.00, -0.00, -1.00, 164.7, 41.0)">W</text></g></g></g></svg>