<?xml version="1.0" encoding="UTF-8" standalone="no"?><svg xmlns="http://www.w3.org/2000/svg" xmlns:xlink="http://www.w3.org/1999/xlink" clip-rule="evenodd" stroke-miterlimit="4.00" viewBox="0 0 309 111"><desc>SVG generated by Keynote</desc><defs></defs><g transform="matrix(1.00, 0.00, -0.00, -1.00, 0.0, 111.0)"><g><clipPath id="clip-280"><path d="M 260.1 90.6 C 318.4 71.1 318.4 39.5 260.1 19.9 C 201.9 0.4 107.5 0.4 49.3 19.9 C -8.9 39.5 -8.9 71.1 49.3 90.6 C 107.5 110.2 201.9 110.2 260.1 90.6 Z M 260.1 90.6 "></path></clipPath><g clip-path="url(#clip-280)"><image xlink:href="../../CEFA4209-80C9-472B-8D2B-058B96531B72/assets/59DBD66EA15A3D40E065F836EF2595FD.jpeg" width="400.00" height="400.00" transform="matrix(1.00, 0.00, -0.00, -1.00, 5.6, 105.3)"></image></g></g><path d="M 76.5 8.7 C 76.1 8.9 75.6 9.0 74.8 9.2 C 75.1 9.2 75.4 9.2 75.4 9.3 C 76.1 9.1 77.0 8.9 78.3 8.6 C 78.3 8.6 77.6 8.7 77.1 8.8 C 76.6 8.9 76.7 8.8 76.5 8.7 C 76.5 8.7 76.5 8.7 76.5 8.7 Z M 68.0 99.4 C 66.9 99.1 68.1 99.6 68.5 99.7 C 68.6 99.7 68.7 99.7 69.1 99.8 C 69.2 100.0 68.2 99.8 67.4 99.7 C 64.3 98.9 66.7 99.0 68.0 99.4 C 68.0 99.4 68.0 99.4 68.0 99.4 Z M 236.2 100.4 C 238.7 99.9 236.0 100.2 235.6 100.2 C 236.7 99.9 235.7 99.7 237.2 99.4 C 237.5 99.4 238.1 99.4 238.4 99.4 C 237.7 99.6 236.8 99.8 236.7 99.9 C 237.6 99.7 238.8 99.4 239.0 99.4 C 237.0 99.9 238.7 99.8 239.0 99.8 C 237.3 100.2 236.8 100.5 236.2 100.4 C 236.2 100.4 236.2 100.4 236.2 100.4 Z M 276.6 23.5 C 277.6 24.0 278.3 24.4 278.0 24.4 C 277.1 23.9 276.4 23.6 275.9 23.3 C 275.7 23.3 275.9 23.5 275.0 23.2 C 274.1 22.5 274.7 22.5 275.3 22.6 C 275.3 22.8 278.7 24.2 276.6 23.5 C 276.6 23.5 276.6 23.5 276.6 23.5 Z M 207.2 6.2 C 204.9 5.8 207.1 6.5 204.7 6.1 C 204.8 5.9 204.5 5.6 206.1 5.8 C 206.2 5.9 207.1 6.1 207.2 6.2 C 207.2 6.2 207.2 6.2 207.2 6.2 Z M 165.4 106.5 C 165.5 106.6 167.2 106.5 166.8 106.8 C 165.9 106.8 165.1 106.8 164.2 106.8 C 164.0 106.6 164.3 106.5 165.4 106.5 C 165.4 106.5 165.4 106.5 165.4 106.5 Z M 252.2 94.0 C 254.7 93.5 257.1 92.4 256.4 92.8 C 257.4 92.8 254.9 94.0 254.9 93.8 C 254.6 93.6 250.3 94.6 252.2 94.0 C 252.2 94.0 252.2 94.0 252.2 94.0 Z M 82.1 98.1 C 84.8 98.8 84.4 98.0 86.2 98.7 C 85.6 98.6 85.3 98.6 85.0 98.6 C 85.5 98.7 86.2 98.8 86.1 98.9 C 84.8 98.7 83.2 98.5 82.1 98.1 C 82.1 98.1 82.1 98.1 82.1 98.1 Z M 118.5 3.4 C 119.0 3.4 119.2 3.3 119.2 3.2 C 121.2 3.1 121.1 2.9 122.4 3.0 C 122.5 3.3 120.8 3.3 119.2 3.4 C 119.1 3.4 118.6 3.5 118.5 3.4 C 118.5 3.4 118.5 3.4 118.5 3.4 Z M 176.0 3.4 C 175.9 3.2 174.7 3.0 176.6 3.1 C 178.8 3.4 176.9 3.6 174.6 3.6 C 174.6 3.7 174.6 3.8 174.6 3.9 C 175.5 4.0 176.1 4.0 176.6 4.1 C 177.0 3.8 178.4 4.5 181.8 4.5 C 180.2 4.5 181.9 4.9 179.8 4.7 C 180.3 4.9 178.9 4.8 179.1 5.0 C 180.0 5.0 182.2 5.1 181.7 4.8 C 182.9 4.9 183.8 4.9 184.3 5.0 C 185.1 5.3 182.2 5.0 183.0 5.3 C 183.7 5.3 183.8 5.4 184.3 5.4 C 184.4 5.3 184.2 5.2 184.9 5.2 C 187.0 5.5 184.5 5.5 187.5 5.7 C 187.7 5.6 186.8 5.5 186.9 5.4 C 188.2 5.3 188.1 5.5 189.4 5.5 C 189.7 5.6 188.5 5.6 189.4 5.7 C 190.3 5.4 192.1 6.2 193.9 6.0 C 192.7 5.4 194.2 6.2 195.9 5.8 C 196.2 6.0 195.0 6.2 196.4 6.4 C 196.0 5.7 201.7 6.4 197.1 5.5 C 199.6 5.7 200.4 5.3 198.5 5.0 C 202.7 5.6 201.4 5.1 203.0 5.3 C 204.5 5.5 202.1 5.3 202.9 5.6 C 201.2 5.4 201.6 5.6 200.4 5.3 C 200.4 5.4 200.1 5.5 199.7 5.5 C 201.4 5.5 203.4 6.1 202.2 6.2 C 201.3 6.1 202.1 5.9 201.0 5.8 C 201.4 6.2 199.8 5.6 199.7 5.8 C 200.4 6.2 197.9 6.2 200.3 6.5 C 200.3 6.4 200.3 6.2 200.3 6.1 C 200.9 6.2 201.5 6.2 202.2 6.3 C 202.7 6.6 202.2 6.7 202.8 6.9 C 203.8 7.0 204.4 7.0 204.7 6.9 C 203.4 6.7 201.9 6.3 204.0 6.5 C 203.2 6.9 207.0 7.0 205.3 7.1 C 207.6 7.5 208.8 7.3 209.0 7.6 C 210.2 7.8 209.4 7.4 210.9 7.6 C 213.1 8.2 212.8 7.8 215.7 8.4 C 216.2 8.1 216.0 8.5 217.0 8.7 C 217.0 8.5 217.0 8.4 217.0 8.3 C 218.1 8.7 220.5 9.1 223.0 9.3 C 223.6 9.5 223.1 9.6 224.8 9.9 C 226.6 9.9 228.6 10.6 230.7 10.7 C 230.8 10.9 232.2 11.2 233.0 11.2 C 233.3 11.4 232.2 11.5 233.5 11.7 C 234.4 11.7 232.9 11.3 234.7 11.6 C 234.5 11.8 236.4 11.7 236.4 12.0 C 235.9 12.0 235.2 11.9 234.7 11.9 C 235.4 12.1 235.2 12.1 235.8 12.3 C 235.8 11.9 237.1 12.5 237.5 12.7 C 237.5 12.5 237.7 12.5 238.1 12.5 C 239.1 12.7 239.9 12.9 240.4 12.9 C 241.6 13.3 239.6 13.0 240.9 13.3 C 241.6 12.8 242.7 13.8 245.4 14.1 C 245.9 14.4 247.0 14.8 248.6 15.2 C 248.8 15.1 247.0 14.7 247.0 14.6 C 249.4 15.3 246.6 14.3 248.2 14.7 C 251.5 15.7 253.7 16.4 257.0 17.6 C 257.0 17.4 259.7 18.1 259.6 18.2 C 259.3 18.1 259.6 18.3 260.2 18.6 C 260.7 18.8 262.3 19.4 263.2 19.8 C 263.8 19.6 266.8 20.3 267.0 20.1 C 267.6 20.6 267.4 20.5 267.6 21.0 C 270.7 22.3 272.3 22.6 273.9 23.7 C 273.8 23.5 275.2 24.0 276.3 24.4 C 275.9 24.5 275.2 24.3 274.6 24.2 C 276.0 24.8 276.2 25.0 277.5 25.6 C 279.0 25.6 280.6 27.4 281.8 27.3 C 283.7 28.3 283.2 28.3 284.8 29.2 C 284.8 29.1 285.1 29.1 285.6 29.3 C 284.5 28.7 283.6 28.5 283.1 27.9 C 285.6 29.2 278.6 24.7 282.9 26.7 C 283.0 26.9 282.5 26.8 283.4 27.3 C 285.8 28.5 284.5 27.5 283.6 27.0 C 285.2 27.8 286.7 28.8 285.6 27.9 C 289.1 29.8 286.9 28.7 287.9 29.5 C 293.9 33.0 299.9 37.9 303.2 43.9 C 303.6 43.9 304.9 47.2 305.1 48.3 C 306.0 49.9 306.4 51.8 306.2 52.3 C 306.5 52.6 306.2 54.5 306.5 54.6 C 306.4 53.9 306.5 53.4 306.6 54.1 C 306.6 56.7 305.8 60.4 305.5 61.9 C 304.9 62.7 304.3 64.3 303.9 65.4 C 303.7 65.5 304.1 64.7 303.7 65.3 C 303.7 65.6 302.5 67.9 302.0 68.3 C 302.5 67.7 302.7 66.8 302.0 67.8 C 302.1 67.8 301.3 69.0 301.7 68.8 C 300.5 70.1 300.0 71.0 298.9 72.0 C 299.7 71.1 300.1 70.5 300.1 70.2 C 299.5 71.1 299.0 71.7 298.3 72.2 C 298.7 72.3 297.3 73.4 296.0 74.8 C 295.6 75.1 295.2 75.2 294.0 76.2 C 293.5 76.9 296.0 74.9 294.7 76.1 C 294.6 76.0 293.2 76.9 293.7 76.8 C 292.0 78.1 291.1 78.9 289.5 79.8 C 291.5 78.5 289.8 79.2 289.3 79.5 C 288.9 79.8 288.2 80.2 288.2 80.3 C 288.3 80.4 289.3 79.7 289.4 79.7 C 288.0 80.5 287.8 81.1 287.2 81.2 C 287.8 80.8 287.8 80.6 287.1 81.1 C 287.1 81.5 282.5 83.9 284.0 82.8 C 284.0 82.9 285.7 81.9 285.9 81.7 C 285.3 81.9 282.8 83.5 283.2 83.0 C 284.7 82.1 284.7 82.3 286.4 81.2 C 286.5 81.0 287.4 80.4 288.0 79.9 C 285.4 81.5 284.9 82.1 284.4 82.1 C 283.2 82.8 284.1 82.6 281.9 83.7 C 278.8 85.2 281.3 83.7 280.4 84.0 C 277.7 85.6 278.7 85.4 280.0 85.0 C 277.8 86.1 277.2 86.6 274.2 87.8 C 274.3 87.6 274.7 87.4 275.7 86.9 C 275.8 86.9 278.2 85.9 277.9 85.9 C 277.5 85.7 275.6 86.4 272.4 87.7 C 273.3 87.7 273.4 87.5 270.1 88.9 C 270.8 89.0 268.5 89.4 268.5 89.7 C 268.7 89.7 269.9 89.2 271.0 88.8 C 271.0 89.0 270.6 89.2 269.5 89.7 C 268.8 89.9 268.3 90.2 266.2 90.9 C 265.9 90.8 267.4 90.2 267.7 89.9 C 266.5 90.4 266.3 90.6 265.2 91.0 C 264.1 91.2 264.0 90.8 264.0 90.5 C 265.3 89.9 267.4 89.2 265.7 89.6 C 270.6 87.8 265.6 90.1 267.5 89.4 C 269.4 88.3 268.5 89.2 271.5 87.9 C 272.4 87.5 272.7 87.3 273.0 87.1 C 272.8 87.1 271.0 87.6 272.9 86.8 C 273.4 86.7 274.5 86.4 276.0 85.7 C 276.0 85.6 272.9 86.9 275.9 85.5 C 277.4 84.8 276.2 85.8 278.2 84.8 C 278.2 84.7 278.7 84.4 278.8 84.3 C 276.0 85.7 279.3 83.8 277.3 84.7 C 279.7 83.4 277.9 84.7 279.4 83.9 C 279.4 83.7 282.1 82.7 282.0 82.4 C 281.1 83.0 279.1 84.0 279.3 83.6 C 281.1 82.7 288.4 78.2 285.8 80.3 C 286.7 79.5 291.3 76.0 291.0 76.4 C 289.7 77.4 289.8 77.5 289.7 77.7 C 292.2 75.7 293.5 74.9 295.5 72.6 C 293.1 74.8 294.6 72.8 293.0 74.0 C 292.3 74.5 291.2 75.3 291.1 75.5 C 291.6 75.5 292.7 74.5 293.0 74.0 C 293.2 74.2 293.3 74.3 293.4 74.5 C 290.3 76.8 288.5 78.2 286.7 79.2 C 288.2 78.3 283.6 80.7 285.4 79.6 C 286.2 79.3 288.0 78.2 289.4 77.3 C 289.3 77.2 289.3 77.1 289.2 77.1 C 289.9 76.6 290.7 76.1 290.7 76.0 C 288.9 77.3 287.7 77.8 286.5 78.8 C 286.4 78.8 286.4 78.8 286.4 78.7 C 286.0 78.9 285.7 79.1 285.8 79.0 C 286.4 78.6 287.4 78.0 287.4 77.8 C 286.0 78.7 285.6 78.7 283.8 79.7 C 284.1 79.2 281.6 80.3 284.1 78.7 C 284.6 78.7 286.0 78.0 286.0 78.1 C 286.7 77.7 288.1 76.8 288.7 76.2 C 287.9 76.5 286.5 77.4 286.3 77.2 C 287.4 76.5 288.2 75.8 288.9 75.6 C 286.8 77.2 290.2 74.9 291.1 74.5 C 290.8 74.6 290.3 74.9 290.0 75.0 C 291.6 73.8 292.3 73.4 292.2 73.0 C 293.9 71.5 293.7 72.0 294.7 71.0 C 293.8 71.4 295.3 70.2 294.4 70.6 C 296.1 68.9 295.1 70.4 295.7 69.8 C 296.2 69.2 296.2 69.1 296.6 68.6 C 297.4 67.9 298.6 66.3 299.0 66.3 C 299.5 65.6 299.7 65.5 300.1 64.8 C 300.1 64.6 300.2 64.3 300.3 64.0 C 300.4 63.9 300.8 63.5 300.8 63.3 C 299.5 65.0 299.8 64.4 298.2 66.2 C 298.2 66.5 298.0 66.8 298.4 66.4 C 297.4 67.8 297.0 68.1 295.9 69.3 C 295.6 69.3 295.2 69.3 294.2 70.5 C 294.3 70.1 294.0 70.3 294.3 69.8 C 295.0 69.3 295.8 68.6 296.6 67.9 C 296.5 67.8 296.3 67.8 296.7 67.4 C 297.1 67.1 297.6 66.5 297.9 66.0 C 298.0 66.0 297.9 66.3 297.8 66.5 C 299.2 64.8 298.5 65.2 299.4 63.9 C 299.1 64.1 298.6 64.9 298.9 64.1 C 299.6 62.9 299.8 62.7 300.2 62.1 C 300.2 62.0 300.1 62.0 300.2 61.7 C 300.7 60.9 299.8 63.8 300.8 62.4 C 300.6 62.2 301.3 60.7 301.5 60.5 C 301.5 61.1 300.9 61.9 301.0 62.0 C 302.2 59.2 301.6 62.1 302.5 59.2 C 302.4 59.2 302.3 59.2 302.2 59.1 C 301.9 60.3 301.7 60.3 301.5 60.1 C 301.1 61.1 300.7 61.4 300.5 62.2 C 300.2 61.7 300.8 61.4 301.2 60.4 C 301.0 60.4 300.6 61.3 300.3 61.3 C 301.5 59.1 301.2 58.6 301.8 56.5 C 301.4 57.0 301.8 55.3 301.6 55.5 C 301.6 57.3 300.9 56.5 300.8 56.8 C 300.7 57.9 301.2 57.5 301.2 58.2 C 300.9 58.5 300.8 58.3 300.5 58.1 C 300.8 57.1 300.7 57.2 300.7 56.4 C 300.9 55.8 301.4 55.2 301.5 56.1 C 301.4 55.9 301.3 54.5 301.5 54.4 C 301.5 55.8 301.6 54.3 301.7 55.1 C 301.9 54.1 301.3 52.2 301.2 50.9 C 301.1 51.1 300.9 50.6 300.8 50.7 C 301.4 51.9 300.9 52.2 301.1 53.5 C 301.0 52.9 300.9 53.2 300.8 53.5 C 300.8 52.3 300.4 51.7 300.4 50.8 C 300.3 50.8 300.2 50.8 300.2 50.9 C 299.9 49.4 299.9 49.6 299.2 48.5 C 299.1 48.1 299.7 48.5 300.0 48.5 C 299.7 48.0 298.6 46.0 299.0 47.3 C 298.4 46.1 298.9 46.2 298.0 45.0 C 297.8 45.1 298.5 46.3 298.0 46.0 C 297.2 44.9 297.9 45.4 297.1 44.6 C 297.2 44.4 297.4 44.3 296.6 43.3 C 297.0 44.1 296.4 43.3 296.1 43.1 C 296.4 43.6 296.7 44.0 296.8 44.3 C 295.5 42.5 295.2 42.1 293.7 40.8 C 294.4 41.1 293.6 40.2 294.7 41.1 C 293.7 40.3 292.7 39.0 292.0 38.6 C 292.6 39.2 293.6 40.1 293.8 40.6 C 290.8 37.8 288.7 36.6 285.2 33.9 C 285.8 34.3 286.7 34.9 286.8 34.9 C 286.4 34.6 285.7 34.2 285.8 34.1 C 287.1 35.0 288.2 35.8 288.9 36.2 C 289.9 37.0 288.2 35.9 289.2 36.7 C 289.5 36.7 291.3 38.3 290.8 37.5 C 289.0 36.4 287.3 34.9 286.6 34.0 C 284.5 33.1 286.3 34.3 283.9 33.4 C 284.1 33.3 283.6 32.9 282.9 32.5 C 283.4 33.2 280.7 31.4 280.5 31.3 C 281.6 31.7 285.6 33.8 283.7 32.4 C 284.3 33.5 279.1 29.6 280.0 30.7 C 277.3 29.3 278.4 29.5 276.7 29.0 C 276.6 28.8 276.9 28.8 276.1 28.4 C 275.3 28.1 275.0 28.0 274.6 27.9 C 278.8 30.0 277.4 29.7 279.8 31.0 C 279.4 30.8 279.0 30.6 279.1 30.7 C 279.1 30.8 279.0 30.8 278.4 30.5 C 278.4 30.1 276.3 29.5 275.8 29.0 C 276.6 29.4 277.4 29.8 277.2 29.5 C 273.9 27.9 274.7 27.9 269.5 25.6 C 271.0 26.4 268.9 25.6 267.1 24.9 C 264.4 23.8 265.6 23.8 262.2 22.6 C 262.2 23.0 261.4 22.7 259.9 22.1 C 258.4 21.6 257.7 21.3 256.5 21.1 C 256.8 20.8 253.7 19.7 253.0 19.8 C 252.9 19.7 251.7 19.4 250.9 19.1 C 250.7 18.9 251.7 19.2 251.0 18.9 C 250.2 18.7 250.8 19.2 249.9 18.9 C 248.8 18.5 249.0 18.3 247.3 17.9 C 247.2 18.1 248.2 18.3 247.2 18.2 C 245.8 17.7 244.4 17.4 245.6 17.9 C 243.3 17.4 244.5 17.2 242.4 16.7 C 243.0 17.0 242.9 17.0 241.8 16.8 C 241.1 16.4 241.0 16.3 240.8 16.2 C 240.1 16.2 240.3 16.3 238.5 15.8 C 238.5 15.9 238.5 16.0 238.5 16.1 C 237.7 15.9 236.4 15.7 236.2 15.5 C 237.8 15.9 237.4 15.6 238.0 15.7 C 236.5 15.3 233.6 14.4 235.7 15.2 C 233.6 14.8 234.7 14.7 233.0 14.4 C 234.0 14.9 233.0 14.4 231.2 14.1 C 231.3 14.5 230.0 13.9 228.9 13.7 C 229.0 14.0 228.7 14.0 227.7 13.8 C 227.8 13.7 227.1 13.5 226.0 13.4 C 226.0 13.5 228.4 14.1 225.9 13.6 C 224.8 13.3 224.9 13.0 223.0 12.7 C 222.7 12.4 224.7 12.8 224.3 12.5 C 222.8 12.5 222.4 12.2 220.2 11.8 C 221.0 12.4 215.6 11.7 218.2 12.3 C 217.5 12.1 216.4 12.3 215.8 12.0 C 216.6 12.1 215.2 11.6 215.3 11.6 C 214.2 11.5 211.7 11.0 211.7 11.1 C 214.0 11.4 213.9 11.6 214.6 11.9 C 211.3 11.5 208.3 11.0 208.6 10.8 C 208.5 10.9 208.1 10.8 207.9 10.9 C 209.1 11.0 209.9 11.5 208.5 11.4 C 208.8 11.1 207.8 10.9 206.7 10.7 C 206.6 11.0 202.2 10.1 203.0 10.5 C 204.8 10.5 206.2 11.1 204.8 11.1 C 203.7 10.7 201.2 10.3 201.8 10.1 C 201.1 10.1 200.5 10.2 199.9 10.2 C 199.3 10.3 200.7 10.5 200.4 10.6 C 199.5 10.5 198.1 10.4 198.0 10.3 C 200.5 10.5 196.7 10.0 199.3 10.1 C 197.7 10.0 197.3 9.8 196.1 9.6 C 196.1 9.7 195.6 9.7 195.5 9.7 C 196.6 9.7 197.7 9.9 197.4 10.2 C 195.1 10.0 195.5 9.7 193.6 9.5 C 193.0 9.7 190.4 9.8 189.1 9.5 C 191.7 9.7 188.9 9.4 190.4 9.4 C 192.7 9.7 193.3 9.5 194.2 9.4 C 193.3 9.1 191.4 8.9 191.1 9.2 C 192.3 9.3 192.3 9.2 193.0 9.2 C 192.9 9.3 192.5 9.4 191.7 9.4 C 190.6 9.1 188.3 9.1 189.9 8.9 C 188.2 8.9 186.5 8.5 184.8 8.6 C 186.6 8.8 188.0 9.0 188.5 9.2 C 187.0 9.2 185.4 8.8 185.4 9.0 C 185.5 9.2 188.0 9.3 188.5 9.5 C 186.5 9.6 183.5 8.7 186.0 9.4 C 184.8 9.3 183.3 9.2 182.8 9.0 C 184.2 9.1 182.7 8.7 182.1 8.6 C 181.0 8.5 180.0 8.5 179.6 8.6 C 181.4 8.6 182.7 9.0 181.5 9.0 C 181.2 8.8 180.8 8.9 180.2 9.0 C 180.1 8.8 178.1 8.8 177.7 8.7 C 177.8 8.8 178.7 8.8 178.9 9.0 C 177.7 9.0 176.0 9.2 175.1 8.8 C 175.9 8.9 176.9 8.9 177.0 8.9 C 173.7 8.3 172.6 8.0 168.7 7.7 C 169.2 7.7 169.4 7.7 169.3 7.6 C 166.8 7.5 165.1 7.3 165.4 7.1 C 163.9 7.1 163.0 7.3 162.2 7.4 C 163.9 7.6 164.4 7.3 165.4 7.5 C 164.8 7.6 166.7 8.1 167.4 8.2 C 170.2 8.1 170.3 8.5 173.2 8.4 C 172.3 8.7 175.2 8.6 174.4 8.8 C 171.8 8.3 169.3 8.5 165.4 8.3 C 165.9 8.1 166.4 7.9 164.8 7.8 C 162.3 7.6 163.5 8.0 161.5 7.9 C 160.7 7.6 161.9 7.6 160.9 7.5 C 160.2 7.6 158.3 7.6 157.7 7.3 C 160.3 7.4 157.2 7.1 158.9 7.0 C 158.0 7.0 157.5 7.0 157.0 6.9 C 159.6 7.2 154.4 7.3 156.3 7.5 C 152.7 7.6 156.1 6.9 153.1 6.9 C 154.6 7.1 152.7 7.2 150.5 7.2 C 149.9 6.9 147.7 6.9 145.9 6.9 C 146.9 7.0 147.6 7.0 145.9 7.2 C 146.8 7.3 148.4 7.2 149.2 7.1 C 149.2 7.2 149.5 7.3 149.9 7.4 C 147.7 7.4 148.6 7.5 147.9 7.6 C 147.3 7.5 145.7 7.6 145.3 7.4 C 145.3 7.5 144.8 7.5 144.7 7.6 C 147.4 7.6 144.3 8.0 146.0 8.0 C 147.2 7.9 146.4 7.7 147.9 7.7 C 149.4 8.0 146.7 8.0 146.0 8.3 C 147.2 8.5 148.7 8.1 149.2 8.4 C 147.6 8.7 144.9 8.6 142.8 8.5 C 142.9 8.9 139.2 8.6 138.9 9.0 C 138.5 8.9 138.2 8.8 137.6 8.8 C 137.0 9.1 136.3 8.8 135.7 8.8 C 135.6 8.9 135.8 9.0 136.3 9.1 C 133.7 9.1 133.0 9.1 129.9 9.4 C 129.4 9.3 128.8 9.2 128.6 9.0 C 129.3 8.9 130.0 8.8 130.5 8.7 C 126.2 8.9 129.0 9.4 126.0 9.2 C 126.2 9.4 128.2 9.5 126.7 9.7 C 124.0 9.5 120.2 10.1 120.3 9.4 C 117.9 9.4 116.4 10.0 115.2 9.8 C 114.5 9.8 114.3 9.9 114.0 10.0 C 114.7 10.1 115.7 10.2 116.5 10.2 C 117.9 10.0 118.6 10.1 117.2 9.9 C 119.3 9.7 119.8 9.8 121.0 9.8 C 118.1 10.2 115.4 10.3 115.3 10.6 C 114.3 10.6 113.6 10.5 112.8 10.4 C 112.5 10.6 109.3 11.0 109.0 10.8 C 111.2 10.6 113.4 10.1 111.5 10.1 C 106.1 10.9 103.1 10.8 98.5 11.7 C 98.4 11.6 98.7 11.4 97.9 11.4 C 97.9 11.6 97.7 11.7 97.3 11.8 C 95.8 12.0 95.0 12.0 93.1 12.4 C 93.2 12.1 92.8 12.0 91.8 12.1 C 91.2 12.4 89.4 13.2 88.3 13.3 C 89.4 13.1 87.9 13.1 87.1 13.2 C 87.8 13.4 81.8 13.9 83.5 13.9 C 81.2 14.4 80.1 14.4 80.1 14.3 C 79.2 14.5 78.6 14.7 77.8 14.9 C 77.2 14.7 73.3 15.8 72.7 15.8 C 74.1 15.6 74.3 15.2 73.2 15.4 C 72.4 15.8 68.9 16.8 68.3 16.9 C 68.5 16.8 68.7 16.5 70.4 16.0 C 67.4 16.6 67.5 17.0 66.7 17.5 C 66.7 17.1 65.4 17.7 65.0 17.9 C 64.1 17.9 65.0 17.8 64.9 17.6 C 63.9 17.8 63.5 17.7 62.2 18.1 C 62.7 18.3 61.2 18.5 60.6 18.6 C 60.5 18.8 59.8 19.1 58.6 19.5 C 60.1 18.7 52.0 21.0 54.0 20.7 C 52.5 21.4 52.3 21.0 50.4 21.6 C 50.1 21.9 48.9 22.2 50.0 22.0 C 49.2 22.3 48.3 22.5 48.0 22.6 C 47.6 22.7 47.1 22.8 45.6 23.4 C 47.1 23.2 42.4 24.5 43.3 24.6 C 41.8 24.7 39.5 26.2 37.0 26.9 C 37.0 27.0 36.4 27.3 36.3 27.4 C 36.0 27.7 39.2 26.3 37.2 27.3 C 34.6 28.2 35.9 27.5 35.5 27.6 C 29.0 30.7 22.5 34.4 18.2 37.8 C 18.7 37.5 18.7 37.6 17.9 38.3 C 16.4 39.0 12.6 43.2 12.2 44.0 C 11.7 44.1 10.5 46.4 10.2 46.7 C 10.4 46.3 10.7 45.4 10.2 46.2 C 10.1 47.0 9.5 47.6 9.3 48.5 C 8.8 48.8 8.2 51.4 8.2 50.1 C 8.0 50.6 7.9 50.9 7.8 51.1 C 8.0 51.3 7.8 51.8 8.2 50.9 C 7.4 53.1 7.6 53.7 7.4 55.5 C 7.6 55.8 7.7 54.4 7.8 55.5 C 7.7 55.5 7.7 55.5 7.6 55.5 C 7.6 55.8 7.7 56.0 7.6 56.1 C 7.5 56.1 7.5 55.5 7.2 55.5 C 7.3 56.3 7.0 57.0 7.3 57.2 C 7.2 56.0 7.7 56.8 7.6 57.6 C 7.4 56.9 8.3 60.4 8.9 61.4 C 8.8 62.1 8.4 60.2 8.2 60.4 C 9.0 62.5 8.9 62.4 9.3 62.5 C 9.8 63.6 9.9 64.1 10.9 65.4 C 11.3 66.2 10.4 65.0 11.0 65.9 C 11.4 66.3 11.6 66.4 12.2 67.2 C 13.4 69.4 18.9 73.3 21.6 76.1 C 20.4 75.1 22.1 76.1 23.9 77.2 C 23.9 77.4 23.6 77.4 24.3 77.8 C 24.3 77.6 24.9 77.9 26.2 78.6 C 26.2 78.8 25.9 78.8 26.6 79.2 C 27.3 79.2 28.8 80.4 29.9 80.8 C 30.2 81.2 27.5 79.6 27.2 79.7 C 30.3 81.6 31.0 81.6 33.7 83.0 C 32.3 82.4 34.6 83.7 35.0 84.0 C 34.5 83.5 36.8 84.4 35.3 83.5 C 36.3 84.0 38.0 84.7 38.2 84.9 C 37.6 84.6 36.7 84.2 36.6 84.3 C 38.0 84.8 39.7 85.8 40.5 85.9 C 39.5 85.5 38.9 85.2 39.0 85.0 C 39.4 85.1 39.9 85.2 40.7 85.5 C 38.2 85.1 45.0 87.5 45.4 87.5 C 46.0 88.1 46.4 88.2 46.1 88.3 C 49.1 89.4 49.2 89.1 50.2 89.4 C 49.9 89.6 49.4 89.7 51.0 90.3 C 50.8 89.9 52.7 90.6 52.2 90.0 C 56.4 91.3 57.3 91.9 59.9 92.6 C 60.0 92.5 59.2 92.2 59.9 92.4 C 61.2 92.8 62.2 93.2 63.0 93.6 C 63.8 93.6 62.8 93.3 63.6 93.4 C 65.6 94.2 65.0 94.3 66.7 94.9 C 69.0 95.3 68.2 95.2 69.6 95.3 C 69.0 95.1 68.2 94.9 69.1 95.0 C 70.4 95.6 70.8 95.9 71.2 96.1 C 70.2 95.9 69.4 95.7 69.0 95.5 C 68.6 95.6 67.2 95.2 68.3 95.7 C 67.0 95.3 65.4 94.8 63.4 94.3 C 64.0 94.8 61.6 93.9 62.3 94.4 C 64.5 94.9 65.0 95.2 67.1 95.7 C 66.7 95.3 68.9 96.0 69.4 96.2 C 69.4 96.0 70.9 96.4 70.6 96.1 C 72.3 96.4 72.2 96.6 73.9 96.9 C 74.0 97.1 73.8 97.1 74.4 97.3 C 75.1 97.2 75.6 97.6 76.1 97.7 C 75.8 97.4 78.3 98.0 78.5 97.9 C 77.8 97.7 76.9 97.6 76.8 97.5 C 79.6 98.1 77.4 97.4 76.8 97.1 C 76.9 97.2 75.9 97.3 75.7 97.1 C 78.1 97.4 72.5 96.0 74.6 96.5 C 76.3 96.9 76.3 96.7 78.1 97.2 C 80.1 98.0 77.5 97.7 79.6 98.5 C 80.9 98.6 81.8 98.8 82.0 98.6 C 82.3 98.7 82.6 98.9 83.1 99.0 C 83.7 99.0 81.4 98.4 83.2 98.7 C 84.1 98.9 83.0 99.1 84.9 99.3 C 85.7 99.3 82.6 98.7 84.4 98.9 C 86.1 99.6 84.0 98.7 86.1 99.1 C 86.3 99.2 86.6 99.3 87.3 99.4 C 87.4 99.5 87.1 99.6 87.8 99.8 C 88.3 99.4 88.6 100.1 90.2 100.3 C 91.2 100.1 88.6 99.8 89.1 99.7 C 90.9 100.3 92.0 100.1 92.7 100.2 C 91.2 100.2 95.0 100.7 95.1 101.0 C 94.7 100.6 95.5 100.9 97.6 101.0 C 97.7 101.4 100.1 101.4 100.6 101.8 C 100.9 101.8 101.5 101.8 101.8 101.7 C 101.1 101.6 100.4 101.5 100.7 101.4 C 101.3 101.4 101.9 101.5 102.5 101.6 C 103.5 101.9 100.8 102.1 104.9 102.5 C 104.5 102.2 106.2 102.3 107.4 102.3 C 107.3 102.1 105.8 102.2 105.6 102.0 C 107.0 102.0 108.5 102.3 109.3 102.5 C 111.8 102.7 114.6 103.1 118.2 103.3 C 119.0 103.6 115.2 103.3 117.5 103.6 C 118.5 103.7 118.0 103.4 119.4 103.6 C 118.1 104.5 129.0 104.5 129.7 104.9 C 130.1 104.7 133.2 105.0 132.9 104.7 C 130.8 104.8 129.4 104.4 128.4 104.2 C 126.4 104.2 130.1 104.6 128.4 104.5 C 128.2 104.4 125.6 104.3 125.8 104.1 C 128.6 104.3 124.4 103.8 126.5 103.7 C 129.0 103.9 134.2 103.9 132.9 104.1 C 133.0 104.1 131.8 104.0 131.7 104.1 C 134.6 104.3 136.3 104.2 137.5 104.1 C 138.8 104.3 144.0 104.1 142.7 104.3 C 143.1 104.5 139.6 104.1 140.1 104.4 C 145.5 104.6 145.6 104.4 149.1 104.6 C 148.0 104.3 152.9 104.2 152.5 104.3 C 152.4 104.6 153.5 104.8 155.7 104.5 C 155.4 104.8 156.5 104.8 157.7 104.9 C 158.2 104.7 156.7 104.7 157.0 104.5 C 158.0 104.5 159.2 104.5 160.3 104.5 C 160.3 104.6 160.1 104.7 160.9 104.7 C 162.1 104.5 166.5 104.2 166.1 104.4 C 164.3 104.7 169.1 104.6 166.1 104.8 C 166.9 104.8 167.0 104.9 168.1 104.9 C 168.1 104.8 168.1 104.7 168.1 104.6 C 170.5 104.5 169.3 104.9 171.3 104.8 C 171.5 104.7 172.4 104.7 172.6 104.6 C 171.8 104.6 171.7 104.7 170.7 104.7 C 171.9 104.3 168.5 104.6 168.7 104.3 C 171.0 104.2 171.0 104.4 171.9 104.5 C 174.8 104.2 173.4 104.4 176.5 104.3 C 176.5 104.2 175.6 104.2 175.8 104.1 C 179.5 104.0 179.1 104.5 181.6 104.2 C 181.1 104.2 178.8 104.6 180.4 104.5 C 182.1 104.3 182.6 104.0 184.8 103.8 C 184.9 103.9 184.8 104.0 185.5 104.0 C 186.5 103.8 186.5 103.6 187.4 103.5 C 187.6 103.6 188.8 103.4 189.3 103.3 C 190.1 103.5 189.0 103.6 190.0 103.6 C 191.9 103.4 192.8 102.8 194.4 102.7 C 194.3 103.0 196.0 102.8 197.6 102.6 C 197.8 102.9 201.1 102.5 203.2 102.3 C 202.7 102.1 204.9 101.9 204.4 101.7 C 203.4 101.9 202.8 101.9 202.5 101.8 C 205.0 101.5 205.8 101.9 207.5 101.3 C 208.4 101.3 209.6 101.3 211.2 101.2 C 211.4 101.0 208.3 101.3 210.0 101.0 C 210.1 101.1 210.6 101.0 211.2 100.9 C 211.0 101.2 212.3 101.1 213.1 101.1 C 214.5 100.7 217.5 100.6 216.1 100.5 C 218.3 100.1 216.9 100.8 218.6 100.5 C 217.7 100.3 220.6 99.8 219.1 99.9 C 221.4 99.4 221.3 99.9 220.4 100.1 C 222.5 99.9 222.9 99.6 224.0 99.5 C 222.9 99.5 226.1 98.8 224.5 99.2 C 224.0 99.5 226.4 99.0 226.9 99.0 C 226.1 98.9 227.2 98.8 225.7 98.9 C 227.2 98.5 229.5 98.1 230.9 98.0 C 232.8 97.5 234.6 97.1 233.8 97.5 C 235.6 97.1 234.9 97.3 236.7 96.9 C 236.7 96.8 236.2 96.9 236.1 96.9 C 238.5 96.4 238.0 96.6 241.2 95.9 C 240.9 96.3 242.9 95.8 243.5 95.8 C 242.2 96.1 241.2 96.3 240.1 96.5 C 239.9 96.7 241.0 96.5 240.2 96.7 C 240.0 96.6 239.5 96.7 239.0 96.8 C 241.1 96.6 236.5 97.8 237.9 97.2 C 237.9 97.3 238.1 97.3 238.5 97.2 C 238.1 97.0 238.1 97.1 238.4 96.8 C 237.4 97.1 236.5 97.0 236.1 97.3 C 236.2 97.4 237.2 97.1 237.3 97.2 C 234.8 97.9 236.5 97.1 234.5 97.6 C 234.1 97.9 235.2 97.8 235.7 97.8 C 233.8 98.2 232.2 98.6 231.6 98.5 C 229.9 98.9 231.8 98.7 230.6 99.0 C 229.9 99.0 229.9 98.8 228.7 99.1 C 227.4 99.4 229.5 99.1 228.2 99.4 C 226.8 99.5 229.1 98.9 226.9 99.2 C 227.5 99.5 225.0 99.5 225.2 99.7 C 226.4 99.4 226.5 99.8 225.8 99.7 C 222.9 99.9 221.0 101.1 218.0 101.0 C 218.0 101.1 217.6 101.2 217.5 101.3 C 219.7 101.1 222.9 100.6 223.5 100.8 C 225.3 100.4 225.0 100.2 225.3 100.1 C 227.3 100.0 227.2 100.1 226.0 100.7 C 222.6 101.4 221.1 101.4 218.8 101.7 C 217.6 102.1 218.9 101.8 219.4 101.8 C 212.3 102.7 217.8 102.6 215.2 102.9 C 215.3 102.7 214.7 102.8 214.0 102.8 C 214.0 102.9 212.9 103.1 212.8 103.2 C 213.3 103.1 213.5 103.1 213.4 103.2 C 211.6 103.6 212.3 103.2 212.2 103.1 C 213.5 102.9 214.4 102.7 214.6 102.6 C 212.8 103.0 211.4 102.9 210.3 103.3 C 208.6 103.2 211.1 102.5 210.2 102.4 C 210.4 102.2 209.1 103.1 207.8 103.4 C 205.5 103.7 205.5 104.0 203.4 104.2 C 202.9 104.0 205.5 103.8 205.3 103.7 C 204.7 103.7 204.6 103.7 204.0 103.7 C 202.5 103.9 202.7 104.1 201.5 104.3 C 200.9 104.2 200.5 104.3 199.7 104.5 C 198.3 104.6 200.5 104.3 199.0 104.4 C 197.4 104.5 196.4 104.9 195.9 104.9 C 195.7 104.8 196.0 104.7 195.2 104.7 C 193.4 105.1 193.0 105.1 195.3 105.1 C 193.3 105.2 192.4 105.4 192.7 105.6 C 195.7 105.4 196.5 105.2 197.9 105.4 C 198.4 105.1 199.3 105.2 200.4 105.2 C 199.7 104.8 201.7 105.0 202.3 104.7 C 201.5 104.8 200.8 104.8 200.3 104.8 C 203.5 104.5 203.4 104.5 205.9 103.8 C 205.9 103.9 206.3 104.0 206.6 104.0 C 205.8 104.2 203.5 104.4 203.5 104.6 C 205.3 104.7 205.8 104.2 207.9 104.2 C 208.7 103.9 206.2 104.1 207.8 103.9 C 208.7 104.0 209.7 104.0 211.0 103.9 C 212.3 103.7 212.9 103.5 214.0 103.2 C 214.1 103.3 214.3 103.4 215.3 103.2 C 215.2 103.1 214.2 103.2 215.2 103.0 C 218.5 102.8 220.7 102.7 223.8 102.0 C 222.7 102.1 220.1 102.3 221.3 102.1 C 222.8 102.0 224.6 101.4 226.1 101.3 C 226.6 101.3 224.4 101.6 225.0 101.9 C 226.4 101.6 227.2 101.5 227.9 101.4 C 227.9 101.3 229.5 101.0 229.1 100.9 C 227.9 101.1 227.6 101.4 227.3 101.4 C 228.2 100.5 231.7 100.8 233.8 100.3 C 235.2 99.9 232.7 100.3 234.3 99.9 C 235.3 99.6 236.0 100.0 234.4 100.4 C 233.3 100.6 232.9 101.0 232.7 100.7 C 232.2 100.8 231.5 101.0 231.5 101.0 C 232.3 100.9 232.2 101.1 232.7 101.0 C 231.6 101.2 231.5 101.7 230.4 101.7 C 231.1 101.5 231.3 101.4 231.6 101.3 C 228.5 102.0 227.4 101.9 225.6 102.2 C 226.6 102.1 225.6 102.3 225.7 102.5 C 227.1 102.2 229.7 101.8 228.1 102.2 C 227.0 102.1 226.3 103.0 225.2 102.9 C 226.0 102.7 225.8 102.6 226.3 102.4 C 225.1 102.6 225.1 102.4 223.8 102.6 C 220.0 103.7 216.9 103.5 210.5 104.9 C 208.3 105.2 212.5 104.5 212.3 104.4 C 211.7 104.4 211.5 104.4 211.1 104.5 C 211.0 104.7 209.9 104.6 209.2 104.9 C 209.3 104.7 206.3 105.3 204.8 105.2 C 204.7 105.3 204.9 105.5 204.2 105.6 C 199.6 105.8 191.2 107.0 187.6 107.0 C 187.8 107.2 186.2 107.3 185.8 107.4 C 183.5 107.5 184.5 107.3 181.2 107.7 C 179.6 107.9 181.5 107.5 181.8 107.5 C 176.9 107.9 172.6 107.8 169.5 108.2 C 167.9 108.3 169.4 108.0 166.2 108.1 C 166.1 108.4 161.0 108.0 160.3 108.4 C 158.3 108.5 154.7 108.0 156.3 108.4 C 153.6 108.4 155.4 108.0 154.4 108.0 C 152.5 108.1 154.9 108.7 153.1 108.7 C 153.3 108.4 151.7 108.5 150.4 108.3 C 151.9 108.3 152.9 108.3 153.1 108.1 C 151.8 108.3 151.9 108.1 149.8 108.1 C 148.3 108.2 143.9 108.3 142.6 108.0 C 142.5 108.1 142.9 108.1 143.2 108.2 C 141.9 108.2 140.4 107.9 140.6 108.2 C 137.7 108.1 136.4 107.8 134.7 108.0 C 133.5 108.0 135.2 107.8 131.4 107.6 C 131.4 107.8 124.8 107.4 123.0 107.1 C 123.0 107.4 122.6 107.1 121.8 107.0 C 121.6 107.1 121.8 107.2 121.1 107.2 C 121.0 107.1 120.4 107.1 119.8 107.1 C 120.3 106.7 117.4 107.0 117.3 106.7 C 117.8 106.7 117.8 106.5 117.3 106.5 C 117.1 106.7 114.4 106.1 114.7 106.3 C 115.3 106.4 117.1 106.5 116.6 106.7 C 114.1 106.6 115.1 106.4 113.4 106.2 C 113.5 106.3 114.5 106.5 113.4 106.4 C 111.7 106.2 113.3 106.4 112.2 106.1 C 111.2 106.0 109.6 106.0 108.9 106.0 C 109.1 106.0 108.6 105.8 108.3 105.7 C 105.1 105.3 97.8 104.6 94.7 103.9 C 94.4 103.9 93.8 103.9 94.0 104.1 C 92.2 103.7 92.3 103.8 90.4 103.4 C 90.4 103.5 90.4 103.6 90.3 103.7 C 87.9 103.4 90.2 103.3 88.6 103.1 C 88.3 103.6 87.6 102.7 86.2 102.5 C 86.0 102.6 85.3 102.5 85.5 102.7 C 83.2 102.3 83.4 101.9 81.4 101.7 C 81.9 101.8 82.1 102.7 81.8 102.8 C 81.5 102.7 80.9 102.5 80.1 102.3 C 81.1 102.2 80.7 101.2 77.9 101.0 C 79.4 101.2 80.0 101.4 79.6 101.5 C 77.5 101.1 76.8 100.8 75.0 100.4 C 74.6 100.6 75.9 100.9 75.4 101.1 C 75.0 101.0 74.7 101.0 74.8 101.1 C 72.9 100.7 72.9 100.5 70.8 100.2 C 70.8 100.0 71.3 100.1 72.0 100.4 C 71.9 100.2 72.0 100.0 73.2 100.2 C 73.3 100.4 72.6 100.5 74.3 100.8 C 74.3 100.7 74.4 100.5 74.4 100.4 C 73.1 100.1 70.1 99.3 69.8 99.3 C 70.4 99.5 71.4 99.8 70.9 100.0 C 68.7 99.4 68.2 99.0 66.5 98.4 C 63.4 97.8 58.2 96.3 58.7 96.8 C 57.0 96.2 57.6 96.4 56.1 95.9 C 56.5 96.3 54.3 95.5 54.4 95.7 C 56.3 96.2 55.7 96.1 57.6 96.6 C 57.5 96.7 57.2 96.7 56.4 96.6 C 56.4 96.4 55.6 96.2 54.3 95.8 C 54.5 95.9 55.6 96.5 54.3 96.1 C 54.2 96.0 53.9 95.9 53.3 95.7 C 53.3 95.6 53.3 95.5 53.4 95.3 C 54.1 95.5 55.0 95.7 55.5 95.7 C 55.0 95.6 54.9 95.5 54.5 95.3 C 54.1 95.4 52.0 94.6 51.8 94.7 C 52.7 94.9 53.2 95.2 52.3 95.0 C 52.2 94.9 50.8 94.4 50.2 94.4 C 52.0 95.1 51.3 94.8 52.2 95.4 C 51.1 95.1 50.7 94.9 50.3 94.7 C 50.0 94.6 49.8 94.5 49.5 94.3 C 49.1 94.2 49.1 94.2 48.1 93.9 C 48.1 93.7 48.2 93.5 48.8 93.6 C 48.2 93.2 45.8 92.3 43.7 91.6 C 41.7 90.9 39.8 90.3 38.9 89.9 C 40.1 90.5 41.7 90.7 39.8 89.9 C 39.8 90.0 38.3 89.4 38.1 89.4 C 37.3 89.6 38.8 90.5 40.2 91.3 C 38.7 90.7 38.3 90.6 36.9 90.1 C 36.5 89.7 38.1 90.0 36.4 89.2 C 35.8 89.4 33.1 87.8 32.4 87.8 C 33.6 88.3 34.4 88.8 33.1 88.3 C 33.4 88.2 31.0 87.2 31.0 87.0 C 32.9 87.9 33.5 87.9 34.8 88.5 C 33.2 87.7 36.0 88.8 33.4 87.6 C 32.2 87.2 31.5 87.2 28.9 85.8 C 28.0 85.3 28.9 85.5 27.7 84.9 C 27.9 85.3 25.2 83.9 26.9 84.6 C 26.0 84.1 25.5 83.8 25.1 83.4 C 26.2 84.3 20.2 81.2 21.0 81.8 C 21.2 81.6 21.0 81.1 20.8 80.9 C 19.6 80.4 18.4 79.4 15.9 77.5 C 15.8 77.8 15.4 77.2 14.4 76.4 C 14.1 76.4 15.0 77.1 14.2 76.6 C 13.2 75.5 13.2 75.5 13.0 75.2 C 12.2 74.5 11.7 74.0 11.4 73.6 C 11.2 73.6 11.4 73.9 11.6 74.1 C 9.0 71.2 7.6 69.9 6.0 67.4 C 6.6 68.5 7.1 68.5 6.5 67.7 C 6.1 67.2 5.8 66.8 5.6 66.5 C 5.7 67.2 5.7 66.9 5.0 65.6 C 4.3 64.6 4.9 66.3 4.4 65.4 C 4.1 64.3 4.5 64.9 4.3 64.3 C 4.1 63.9 3.9 63.4 3.7 62.9 C 3.9 63.8 3.4 63.0 3.1 62.2 C 3.5 62.7 3.4 62.3 2.9 60.7 C 3.0 60.5 3.3 61.3 3.1 60.6 C 3.0 60.2 2.4 59.0 2.5 57.9 C 2.6 58.2 2.6 58.4 2.7 58.3 C 2.3 57.1 2.6 56.1 2.7 55.0 C 2.5 56.1 2.3 55.5 2.2 56.0 C 2.4 54.9 2.2 53.5 2.6 52.7 C 2.3 54.3 3.0 52.8 3.2 51.8 C 3.0 51.6 2.8 53.2 2.6 52.7 C 2.4 52.1 3.0 51.0 2.9 50.4 C 2.8 50.4 2.8 51.1 2.6 51.3 C 2.8 50.4 2.4 51.5 2.6 50.8 C 2.9 50.4 2.7 49.8 2.9 49.3 C 3.1 48.8 3.9 47.7 3.9 47.1 C 3.8 47.1 3.5 47.9 3.4 48.0 C 4.2 45.4 4.9 44.8 6.1 42.5 C 6.3 42.3 6.7 42.0 7.2 41.3 C 7.0 41.3 7.3 40.9 7.6 40.4 C 8.4 39.5 9.3 38.7 10.4 37.6 C 10.4 38.0 9.9 38.6 11.4 37.1 C 11.4 36.9 10.8 37.5 11.3 37.0 C 11.3 37.0 11.7 36.7 11.8 36.5 C 11.7 36.5 11.7 36.4 11.6 36.4 C 11.2 36.8 10.8 37.2 10.4 37.6 C 10.4 37.5 10.2 37.5 9.8 37.8 C 11.4 35.9 11.7 36.4 12.8 35.1 C 13.3 35.2 13.8 34.9 12.9 36.0 C 13.9 35.0 14.7 34.2 14.9 33.8 C 13.4 35.0 13.7 34.4 13.2 34.6 C 14.2 33.9 14.1 33.8 14.5 33.3 C 15.7 32.6 13.6 34.6 15.8 32.9 C 14.0 34.0 17.1 31.6 18.3 30.9 C 18.1 30.9 17.6 31.2 18.2 30.7 C 21.4 28.3 21.6 29.2 23.6 27.5 C 23.5 27.8 24.5 27.2 25.0 27.0 C 23.2 28.1 22.7 28.4 22.0 28.9 C 22.2 28.9 22.7 28.6 23.3 28.4 C 23.2 28.2 23.7 27.9 24.5 27.5 C 25.0 27.1 24.6 26.9 26.0 25.9 C 26.2 25.9 26.1 26.1 26.9 25.7 C 27.5 25.1 26.4 26.3 29.8 24.6 C 29.1 24.8 28.7 24.8 28.9 24.5 C 30.5 23.6 30.2 23.9 32.4 22.7 C 33.5 22.7 31.1 23.9 30.6 24.4 C 32.1 23.6 33.2 22.8 35.0 22.2 C 33.6 22.7 34.8 21.9 36.3 21.2 C 37.7 20.7 36.4 21.6 38.1 20.9 C 39.4 20.3 40.0 19.8 38.7 20.2 C 41.8 19.1 40.9 19.1 43.7 18.2 C 43.8 18.3 43.0 18.6 42.0 18.8 C 42.2 18.9 41.9 19.1 42.9 18.8 C 43.8 18.3 45.2 17.8 46.7 17.2 C 48.1 16.6 49.0 16.3 49.6 16.0 C 52.0 15.7 54.6 14.4 57.0 13.8 C 56.1 14.4 60.2 13.0 61.4 12.9 C 62.1 12.7 64.3 11.6 63.5 12.0 C 63.8 12.3 65.2 11.8 66.4 11.6 C 66.4 11.5 66.4 11.4 66.3 11.4 C 68.8 10.7 69.5 10.8 70.3 10.8 C 73.4 10.0 76.9 9.6 80.8 8.6 C 81.8 8.7 82.7 8.4 85.0 8.2 C 84.9 8.0 86.8 7.7 88.6 7.4 C 88.1 7.2 89.8 7.0 89.7 6.8 C 88.1 7.1 88.7 6.7 87.8 6.8 C 90.0 6.6 91.0 6.0 92.7 6.0 C 90.6 6.4 90.0 6.8 89.8 7.2 C 92.3 6.8 93.6 6.7 94.1 6.8 C 94.3 6.6 94.0 6.5 93.4 6.5 C 94.2 6.4 95.1 6.3 95.9 6.2 C 96.1 6.3 95.0 6.5 95.9 6.4 C 96.5 6.2 97.1 6.1 97.7 5.9 C 98.5 6.0 96.8 6.2 96.6 6.4 C 99.9 6.0 98.4 5.7 100.2 5.4 C 100.7 5.5 100.6 5.8 102.1 5.6 C 102.7 5.4 102.9 5.2 104.6 4.9 C 105.7 4.9 104.6 5.3 105.8 5.2 C 106.0 5.1 106.6 5.1 107.1 5.1 C 107.1 4.9 107.6 4.8 108.3 4.7 C 108.5 4.8 109.8 4.6 110.3 4.5 C 110.4 4.6 112.4 4.7 112.8 4.5 C 112.8 4.4 111.7 4.5 111.6 4.4 C 113.0 4.3 114.0 4.2 114.7 4.0 C 115.2 4.6 117.5 3.9 120.5 3.9 C 122.3 3.6 120.1 3.6 122.4 3.2 C 123.8 3.3 122.1 3.5 122.4 3.7 C 122.8 3.7 125.0 3.7 125.0 3.5 C 125.0 3.4 123.9 3.5 123.7 3.5 C 125.4 3.1 125.4 3.4 126.3 3.4 C 126.2 3.3 127.3 3.1 127.6 3.0 C 132.2 2.5 132.2 3.0 134.1 3.1 C 134.1 3.0 135.3 3.0 135.4 2.9 C 134.1 3.0 132.3 2.9 134.1 2.8 C 133.8 2.9 136.5 2.7 136.7 2.6 C 136.4 2.5 134.7 2.6 135.4 2.3 C 137.9 2.1 136.9 2.7 138.7 2.4 C 138.9 2.5 137.8 2.6 137.4 2.6 C 138.1 2.6 139.2 2.6 139.3 2.7 C 138.4 2.8 138.4 2.9 138.0 3.1 C 139.3 2.8 141.6 3.0 140.0 2.7 C 142.6 2.7 145.1 2.5 143.3 2.3 C 145.4 2.2 144.2 2.6 145.9 2.3 C 145.7 2.6 145.2 2.8 146.6 2.9 C 146.8 2.8 148.0 2.7 147.8 2.5 C 151.0 2.5 151.9 2.7 153.2 3.0 C 152.0 2.6 153.5 2.9 155.1 2.6 C 156.0 2.7 155.1 3.0 157.7 3.0 C 154.9 2.6 160.9 2.9 159.7 2.5 C 162.9 2.7 162.9 2.7 166.3 2.9 C 165.9 3.0 165.1 3.1 163.6 3.1 C 164.7 2.9 160.8 2.9 161.0 3.0 C 161.0 3.1 161.0 3.1 161.0 3.2 C 163.5 3.2 165.2 3.3 166.2 3.4 C 166.8 3.3 167.9 3.2 167.5 2.9 C 169.9 3.3 172.4 2.9 173.4 3.3 C 172.6 3.2 171.9 3.2 172.1 3.4 C 173.1 3.3 174.2 3.3 174.1 3.1 C 172.2 3.0 171.8 2.9 170.8 3.1 C 171.7 2.9 168.9 2.7 170.9 2.7 C 170.8 3.1 174.7 2.7 173.5 2.9 C 171.4 2.9 175.8 3.2 176.0 3.4 C 176.0 3.4 176.0 3.4 176.0 3.4 Z M 224.4 102.5 C 226.2 102.1 224.0 102.3 222.6 102.5 C 223.0 102.5 223.2 102.6 223.3 102.7 C 223.8 102.6 224.3 102.5 224.4 102.5 C 224.4 102.5 224.4 102.5 224.4 102.5 Z M 204.4 101.9 C 203.8 102.3 206.9 101.7 208.2 101.6 C 207.8 101.6 207.4 101.6 208.1 101.4 C 206.8 101.4 206.4 101.9 204.4 101.9 C 204.4 101.9 204.4 101.9 204.4 101.9 Z M 132.9 105.1 C 133.4 105.1 134.7 105.1 134.8 105.2 C 135.6 105.2 135.4 105.1 135.5 105.0 C 137.0 105.0 135.1 105.3 137.5 105.3 C 138.4 104.9 133.4 104.6 132.9 105.1 C 132.9 105.1 132.9 105.1 132.9 105.1 Z M 151.1 6.5 C 152.1 6.6 149.9 6.8 150.5 7.0 C 154.1 6.8 151.3 6.5 156.3 6.6 C 156.0 6.5 155.6 6.5 155.7 6.4 C 153.4 6.5 153.2 6.7 153.7 6.2 C 152.7 6.2 152.4 6.7 151.1 6.5 C 151.1 6.5 151.1 6.5 151.1 6.5 Z M 197.4 9.6 C 197.1 9.5 196.8 9.4 196.8 9.3 C 195.3 9.3 195.6 9.3 193.6 9.1 C 193.8 9.4 195.8 9.6 197.4 9.6 C 197.4 9.6 197.4 9.6 197.4 9.6 Z M 300.0 49.8 C 300.1 50.0 300.1 50.3 300.2 50.5 C 300.3 50.3 300.9 50.8 300.3 49.7 C 300.2 49.6 300.3 49.8 300.4 50.0 C 300.2 49.8 300.0 49.3 299.9 49.4 C 300.0 49.7 300.0 49.8 300.0 49.8 C 300.0 49.8 300.0 49.8 300.0 49.8 Z M 285.0 79.0 C 287.1 77.4 281.3 80.3 285.0 79.0 C 285.0 79.0 285.0 79.0 285.0 79.0 C 285.0 79.0 285.0 79.0 285.0 79.0 Z M 291.0 78.4 C 291.1 78.4 291.6 78.1 291.5 78.0 C 293.3 76.8 291.7 78.1 292.7 77.5 C 293.9 76.4 291.8 77.7 293.4 76.3 C 293.0 76.5 292.0 77.6 291.0 78.4 C 291.0 78.4 291.0 78.4 291.0 78.4 Z M 21.2 29.1 C 19.7 30.2 19.4 30.7 19.3 31.1 C 20.3 30.4 21.2 29.8 21.6 29.7 C 23.6 28.3 20.2 30.4 19.8 30.6 C 19.9 30.3 21.4 29.3 21.2 29.1 C 21.2 29.1 21.2 29.1 21.2 29.1 Z M 16.4 32.6 C 15.8 33.1 15.0 33.9 15.1 34.1 C 15.9 33.4 16.1 33.4 16.2 33.4 C 16.9 32.7 15.8 33.3 16.4 32.6 C 16.4 32.6 16.4 32.6 16.4 32.6 Z M 26.4 26.5 C 25.6 27.0 26.0 26.9 25.9 27.1 C 27.1 26.4 27.3 26.4 28.6 25.8 C 28.6 25.7 28.5 25.6 28.5 25.5 C 27.4 26.1 27.4 26.2 26.5 26.7 C 26.5 26.6 26.4 26.5 26.4 26.5 C 26.4 26.5 26.4 26.5 26.4 26.5 Z M 12.4 36.4 C 10.1 38.4 9.6 39.7 8.8 41.3 C 10.0 39.7 10.9 38.0 12.2 37.0 C 13.5 35.6 11.6 37.3 11.6 37.2 C 11.6 37.1 12.1 36.7 12.4 36.4 C 12.4 36.4 12.4 36.4 12.4 36.4 Z M 2.8 56.4 C 2.7 56.9 3.1 57.8 3.3 59.2 C 3.3 58.9 3.4 58.6 3.5 58.6 C 3.2 56.7 2.9 57.9 2.8 56.4 C 2.8 56.4 2.8 56.4 2.8 56.4 Z M 6.8 67.5 C 7.6 68.6 6.6 66.8 7.1 67.3 C 6.3 66.1 5.6 64.7 5.4 64.9 C 6.3 66.2 6.4 66.4 6.8 67.5 C 6.8 67.5 6.8 67.5 6.8 67.5 Z M 13.3 74.9 C 14.7 75.9 13.0 74.1 13.7 74.4 C 13.2 74.0 13.2 74.2 13.1 74.2 C 12.8 73.9 12.5 73.5 11.9 73.0 C 12.2 73.5 13.7 74.8 13.3 74.9 C 13.3 74.9 13.3 74.9 13.3 74.9 Z M 68.2 12.0 C 67.3 12.3 67.6 12.4 65.5 12.9 C 68.6 12.1 67.1 13.2 71.2 12.2 C 70.5 12.2 71.0 12.0 71.2 12.1 C 72.8 11.6 69.7 12.3 71.1 11.7 C 70.0 12.0 70.7 12.1 69.5 12.4 C 68.3 12.4 67.5 12.5 68.2 12.0 C 68.2 12.0 68.2 12.0 68.2 12.0 Z M 71.3 12.4 C 72.5 12.2 72.4 11.7 73.0 11.9 C 73.5 11.7 73.4 11.7 73.5 11.6 C 73.0 11.7 73.0 11.7 72.9 11.6 C 71.9 11.9 70.9 12.2 71.3 12.4 C 71.3 12.4 71.3 12.4 71.3 12.4 Z M 60.8 15.0 C 62.6 14.4 63.2 14.4 64.0 14.0 C 64.8 14.2 65.2 13.5 66.3 13.6 C 68.1 13.1 66.7 13.3 66.2 13.3 C 67.9 12.7 66.7 13.4 68.4 12.9 C 68.7 12.5 66.4 13.2 66.6 12.8 C 65.3 13.2 65.3 13.3 64.5 13.6 C 63.8 13.8 64.0 13.6 63.9 13.5 C 62.4 14.0 62.4 13.8 61.2 14.2 C 60.9 14.4 61.4 14.4 62.9 14.0 C 61.4 14.4 60.8 14.8 59.1 15.1 C 60.3 14.6 54.9 16.0 55.4 16.3 C 56.9 15.9 56.4 15.8 56.9 15.6 C 58.9 15.3 60.0 14.9 60.8 15.0 C 60.8 15.0 60.8 15.0 60.8 15.0 Z M 27.5 26.8 C 26.9 27.1 26.3 27.3 25.5 27.8 C 25.3 27.7 26.4 27.1 25.3 27.5 C 23.9 28.3 23.7 28.5 22.9 29.0 C 23.4 28.9 26.3 27.5 24.9 28.4 C 25.4 28.2 26.3 27.8 27.6 27.1 C 26.0 27.6 29.6 26.0 31.0 25.4 C 30.7 25.1 33.6 24.2 34.6 23.5 C 33.6 23.7 30.7 25.3 29.5 25.9 C 30.1 25.6 25.9 27.2 27.5 26.8 C 27.5 26.8 27.5 26.8 27.5 26.8 Z M 75.8 11.3 C 76.1 11.1 77.4 10.8 76.4 11.0 C 76.9 10.8 78.0 10.7 77.5 10.4 C 78.1 10.3 78.7 10.2 79.2 10.1 C 79.0 10.2 77.4 10.5 78.1 10.6 C 79.3 10.3 78.8 10.5 80.4 10.2 C 79.6 10.6 80.5 10.4 80.0 10.8 C 80.4 10.6 81.8 10.4 81.7 10.2 C 83.9 9.8 81.1 10.6 84.1 10.1 C 84.1 10.3 81.9 10.6 81.2 10.7 C 80.8 11.0 84.9 10.1 87.1 9.8 C 85.1 9.9 86.6 9.4 87.6 9.0 C 88.3 9.0 87.6 9.2 88.8 9.2 C 89.8 9.0 90.4 8.8 90.7 8.9 C 91.5 8.7 91.1 8.6 91.2 8.5 C 92.6 8.3 91.6 8.8 93.7 8.4 C 92.1 8.3 93.9 7.9 96.7 7.6 C 96.5 7.6 95.6 7.7 95.4 7.6 C 95.8 7.3 97.5 7.4 97.9 7.5 C 99.0 7.3 98.3 7.2 97.3 7.4 C 97.9 7.2 98.5 7.1 99.1 6.9 C 96.1 7.3 91.2 8.0 85.7 8.6 C 86.8 8.7 85.6 8.9 83.9 9.1 C 83.7 9.0 84.4 8.9 85.1 8.7 C 83.1 8.8 83.4 9.4 80.4 9.8 C 78.8 10.0 82.2 9.3 80.4 9.5 C 79.3 9.7 78.6 10.1 78.0 9.9 C 76.2 10.4 75.7 10.8 72.9 11.4 C 74.5 11.2 75.3 11.6 77.0 11.1 C 77.0 11.0 76.3 11.2 75.8 11.3 C 75.8 11.3 75.8 11.3 75.8 11.3 Z M 16.3 33.5 C 15.4 34.2 15.1 34.6 14.9 34.7 C 13.5 35.9 15.2 34.8 15.5 34.6 C 16.1 34.0 16.3 33.7 16.3 33.5 C 16.3 33.5 16.3 33.5 16.3 33.5 Z M 141.3 107.5 C 143.7 107.7 143.2 107.3 145.2 107.4 C 143.6 107.3 143.2 107.0 140.6 107.0 C 140.5 107.2 140.5 107.4 141.3 107.5 C 141.3 107.5 141.3 107.5 141.3 107.5 Z M 21.8 29.9 C 23.0 28.8 20.3 31.3 20.1 31.1 C 18.7 32.3 21.7 30.2 20.4 31.4 C 21.6 30.4 22.6 30.0 24.4 28.8 C 24.2 28.7 22.7 29.6 21.3 30.5 C 21.1 30.5 21.8 30.0 21.8 29.9 C 21.8 29.9 21.8 29.9 21.8 29.9 Z M 116.1 105.4 C 114.4 105.4 117.6 106.0 118.6 106.2 C 118.7 105.8 118.2 105.8 116.1 105.4 C 116.1 105.4 116.1 105.4 116.1 105.4 Z M 158.3 107.3 C 159.3 107.0 155.4 107.3 156.3 107.0 C 155.2 107.0 155.1 107.1 155.0 107.2 C 154.4 107.1 152.6 107.1 153.1 106.9 C 152.8 106.7 156.0 107.0 155.0 106.7 C 156.1 106.6 156.1 106.7 157.0 106.7 C 155.1 106.7 155.9 107.0 158.3 107.1 C 158.3 106.8 157.2 106.9 158.3 106.7 C 158.4 106.8 159.7 107.0 159.6 107.4 C 161.6 107.3 160.4 106.9 162.8 106.9 C 162.6 106.8 161.1 106.8 160.2 106.7 C 160.5 106.4 162.8 106.9 162.2 106.5 C 162.7 106.7 164.1 106.8 164.2 107.1 C 162.3 107.2 161.1 107.4 159.6 107.5 C 161.0 107.7 163.0 107.1 165.5 107.3 C 165.2 107.1 166.7 107.1 166.2 106.8 C 168.1 106.9 167.2 107.2 166.8 107.2 C 167.3 107.4 171.0 107.1 170.7 106.9 C 171.0 107.1 175.5 106.9 175.2 106.6 C 176.6 106.7 178.6 106.2 179.2 106.6 C 179.9 106.4 181.5 106.3 183.1 106.2 C 183.5 105.9 180.7 106.3 180.5 106.1 C 180.0 105.9 183.5 106.0 183.1 105.8 C 183.1 105.7 183.1 105.7 183.0 105.6 C 181.7 105.8 180.4 105.9 179.2 106.1 C 178.2 106.1 179.4 106.0 179.1 105.8 C 178.3 106.0 174.1 106.5 174.0 106.1 C 171.2 106.3 169.2 106.3 168.1 106.5 C 166.4 106.6 169.0 106.4 168.1 106.2 C 163.2 106.7 157.2 106.4 153.1 106.7 C 152.2 106.7 152.5 106.5 152.4 106.4 C 146.8 106.6 151.5 106.9 147.1 106.8 C 147.1 106.6 149.2 106.6 149.1 106.4 C 147.6 106.4 147.2 106.5 145.2 106.4 C 145.2 106.5 145.2 106.6 145.2 106.7 C 143.5 106.7 144.2 106.4 143.3 106.3 C 141.2 106.3 141.7 106.5 140.7 106.1 C 138.7 106.2 136.8 106.2 134.8 106.0 C 133.4 106.1 135.9 106.6 138.0 106.7 C 137.9 106.7 137.3 106.7 137.3 106.8 C 134.9 106.5 134.6 106.0 130.9 105.8 C 133.7 106.2 129.4 105.8 129.0 105.6 C 127.4 105.5 128.6 105.9 129.6 106.0 C 129.4 106.1 128.4 105.9 128.3 105.8 C 128.1 106.2 131.6 106.6 135.4 106.6 C 133.6 106.9 138.0 106.7 136.0 107.1 C 139.1 107.1 136.5 106.7 139.9 106.9 C 139.6 106.8 139.0 106.7 138.7 106.5 C 141.3 106.6 140.5 106.9 143.2 106.9 C 143.7 106.7 141.9 106.7 141.9 106.6 C 144.9 106.9 145.9 107.0 147.8 107.3 C 148.2 107.1 147.7 106.9 151.1 107.1 C 151.1 107.1 151.1 107.2 151.1 107.2 C 149.5 107.2 149.1 107.6 153.1 107.6 C 153.3 107.5 152.1 107.5 151.1 107.5 C 151.5 107.3 152.8 107.3 154.4 107.2 C 155.1 107.3 156.0 107.4 155.0 107.4 C 155.6 107.6 156.2 107.2 158.3 107.3 C 158.3 107.3 158.3 107.3 158.3 107.3 Z M 3.4 54.2 C 3.4 54.5 3.4 54.9 3.4 55.5 C 3.7 55.8 3.6 54.6 3.8 54.6 C 3.8 53.7 3.5 54.4 3.4 54.2 C 3.4 54.2 3.4 54.2 3.4 54.2 Z M 8.2 42.1 C 8.0 42.1 7.8 42.9 7.1 43.8 C 7.1 44.2 7.7 43.0 7.9 43.1 C 8.7 42.0 7.3 43.2 8.2 42.1 C 8.2 42.1 8.2 42.1 8.2 42.1 Z M 5.3 47.2 C 4.8 47.6 5.2 47.7 5.5 46.8 C 5.6 46.9 5.6 47.2 5.4 47.8 C 5.9 47.2 5.7 46.7 6.4 45.6 C 6.0 45.9 5.7 46.5 5.3 47.2 C 5.3 47.2 5.3 47.2 5.3 47.2 Z M 4.6 48.9 C 4.5 49.6 4.2 50.0 4.1 51.1 C 4.3 50.9 4.9 48.5 5.0 48.1 C 5.0 47.6 4.0 50.2 4.6 48.9 C 4.6 48.9 4.6 48.9 4.6 48.9 Z M 91.2 102.0 C 91.8 102.1 91.7 102.0 91.8 102.0 C 93.7 102.6 96.3 102.9 94.2 103.0 C 96.2 103.0 98.0 103.6 99.7 103.9 C 101.1 104.1 100.4 103.8 101.6 103.9 C 103.4 104.2 100.6 103.9 100.9 104.1 C 101.3 104.3 101.9 103.9 104.0 104.4 C 103.5 103.9 105.9 104.6 105.3 104.1 C 106.5 104.4 106.9 104.3 108.5 104.5 C 108.3 104.3 106.8 104.1 106.6 103.9 C 105.9 103.6 105.7 104.1 107.2 104.2 C 106.3 104.3 104.2 103.7 103.5 103.8 C 102.7 103.5 105.5 104.0 104.7 103.6 C 104.2 103.6 103.6 103.6 103.5 103.7 C 102.6 103.5 102.0 103.3 101.7 103.2 C 102.2 103.2 102.3 103.3 102.2 103.3 C 103.4 103.5 101.1 102.8 103.6 103.1 C 103.2 103.0 102.1 102.8 102.3 102.7 C 101.6 102.5 102.2 103.4 99.8 102.8 C 98.1 102.8 103.6 103.5 102.2 103.8 C 98.7 103.3 100.7 103.2 98.0 102.8 C 98.0 102.9 98.0 103.0 97.3 102.9 C 97.4 103.0 98.4 103.2 99.1 103.3 C 99.0 103.3 98.0 103.2 97.3 103.1 C 97.4 103.2 97.9 103.2 97.9 103.3 C 95.6 102.9 95.9 102.5 98.0 102.6 C 98.0 102.4 95.1 102.0 94.3 102.0 C 95.0 102.3 94.2 102.2 94.8 102.5 C 95.4 102.6 95.3 102.5 95.5 102.4 C 96.6 102.6 95.6 102.6 95.5 102.7 C 94.2 102.4 94.3 102.3 93.1 102.2 C 93.4 102.2 93.7 102.2 93.7 102.1 C 93.1 102.0 92.4 101.9 91.9 101.8 C 91.9 102.0 91.1 101.9 91.2 102.0 C 91.2 102.0 91.2 102.0 91.2 102.0 Z M 123.7 106.3 C 125.9 106.5 124.7 106.2 123.7 106.2 C 124.2 106.1 124.9 106.1 125.7 106.1 C 125.1 106.0 124.5 106.0 122.5 105.8 C 124.3 105.6 122.5 105.1 119.3 104.9 C 118.3 105.2 121.0 105.5 119.9 105.7 C 122.3 105.7 123.5 106.0 123.7 106.3 C 123.7 106.3 123.7 106.3 123.7 106.3 Z M 15.6 34.6 C 14.7 35.4 13.7 36.2 12.9 36.9 C 13.2 37.0 16.1 34.7 15.6 34.6 C 15.6 34.6 15.6 34.6 15.6 34.6 Z M 101.6 6.9 C 102.1 6.8 102.2 6.9 102.3 6.9 C 104.1 6.6 101.4 6.8 102.2 6.5 C 101.6 6.6 101.0 6.7 100.4 6.7 C 100.2 6.9 102.9 6.7 101.0 7.0 C 101.1 7.1 101.6 6.9 101.6 6.9 C 101.6 6.9 101.6 6.9 101.6 6.9 Z M 3.8 53.3 C 3.8 54.1 4.1 53.6 4.0 55.5 C 4.2 54.8 4.1 54.4 4.2 53.3 C 4.0 53.3 3.9 53.3 3.8 53.3 C 3.8 53.3 3.8 53.3 3.8 53.3 Z M 82.2 100.9 C 83.6 101.4 84.1 100.9 86.9 101.6 C 85.5 101.0 83.9 101.1 82.2 100.9 C 82.2 100.9 82.2 100.9 82.2 100.9 Z M 188.2 105.5 C 187.3 105.5 188.4 105.3 186.9 105.3 C 186.0 105.5 185.6 105.7 184.3 105.8 C 186.2 105.9 189.4 105.4 190.7 105.7 C 192.3 105.5 192.1 105.3 192.6 105.0 C 191.9 105.1 191.5 105.1 191.4 105.1 C 190.5 105.5 189.3 105.0 188.2 105.5 C 188.2 105.5 188.2 105.5 188.2 105.5 Z M 115.4 105.2 C 114.3 105.0 116.3 105.1 116.7 105.0 C 117.6 105.1 117.3 105.2 117.4 105.3 C 118.5 105.4 118.8 105.3 118.7 105.1 C 116.5 104.9 113.9 104.6 115.5 104.5 C 113.5 104.2 114.6 104.6 113.6 104.6 C 112.5 104.3 113.5 104.4 113.6 104.1 C 113.1 104.1 111.6 104.2 111.7 103.9 C 108.7 103.9 110.0 104.5 112.2 105.1 C 114.3 105.0 111.9 104.7 115.4 105.2 C 115.4 105.2 115.4 105.2 115.4 105.2 Z M 38.6 88.2 C 38.8 88.4 40.2 88.9 40.1 89.0 C 42.0 89.5 43.6 89.9 45.4 90.2 C 45.1 89.9 42.7 89.3 43.7 89.8 C 43.0 89.4 41.4 88.7 40.5 88.2 C 38.9 87.5 38.2 87.7 38.1 87.2 C 36.5 86.7 37.4 87.1 35.0 86.0 C 38.7 87.9 33.7 85.5 33.3 85.7 C 35.4 86.7 37.4 87.5 37.2 87.1 C 38.8 87.9 40.7 88.8 41.0 89.1 C 40.8 89.2 39.5 88.6 38.6 88.2 C 38.6 88.2 38.6 88.2 38.6 88.2 Z M 48.9 91.3 C 48.2 91.1 47.5 90.9 46.3 90.5 C 47.0 90.8 47.2 91.0 47.1 91.1 C 49.3 91.9 49.5 91.8 49.9 92.1 C 51.0 92.5 49.7 91.7 51.5 92.4 C 51.4 92.3 50.5 92.0 50.5 91.9 C 50.3 92.0 50.0 92.0 48.9 91.3 C 48.9 91.3 48.9 91.3 48.9 91.3 Z M 65.2 96.5 C 66.6 96.9 64.4 96.2 65.2 96.2 C 64.9 96.2 62.2 95.4 62.6 95.3 C 61.9 94.8 59.0 94.7 59.4 94.3 C 58.7 94.2 58.9 94.4 58.8 94.4 C 60.7 94.9 60.6 95.1 59.3 94.7 C 59.4 94.9 60.6 95.2 61.4 95.4 C 61.5 95.3 60.8 95.1 60.9 94.9 C 62.5 95.5 63.7 96.0 65.2 96.5 C 65.2 96.5 65.2 96.5 65.2 96.5 Z M 172.0 4.5 C 170.5 4.4 169.5 4.4 168.8 4.4 C 169.2 4.6 170.0 4.5 170.7 4.5 C 170.9 4.6 170.2 4.6 169.4 4.6 C 170.1 4.9 172.9 4.7 172.0 4.5 C 172.0 4.5 172.0 4.5 172.0 4.5 Z M 159.0 4.2 C 157.5 4.1 156.5 4.2 156.3 4.3 C 156.9 4.4 156.7 4.2 157.7 4.2 C 158.3 4.3 158.6 4.4 159.0 4.5 C 159.6 4.5 159.5 4.4 159.7 4.3 C 160.2 4.3 160.2 4.4 160.3 4.4 C 162.1 4.2 158.2 4.4 159.0 4.2 C 159.0 4.2 159.0 4.2 159.0 4.2 Z M 56.1 93.9 C 55.7 93.7 55.3 93.4 54.1 93.0 C 54.3 93.3 53.3 93.0 52.5 92.7 C 53.6 93.3 54.2 93.4 56.1 93.9 C 56.1 93.9 56.1 93.9 56.1 93.9 Z M 80.0 11.0 C 78.2 11.1 78.4 11.5 75.9 11.8 C 75.9 11.9 76.0 12.0 76.0 12.0 C 77.4 11.5 78.2 11.5 80.0 11.0 C 80.0 11.0 80.0 11.0 80.0 11.0 Z M 302.6 64.2 C 302.5 64.0 301.9 65.3 301.7 65.3 C 301.9 65.7 301.1 66.0 299.4 68.3 C 299.3 68.3 299.4 68.1 299.6 67.8 C 298.1 69.6 300.2 67.4 300.5 67.3 C 301.5 65.8 301.8 65.7 302.6 64.2 C 302.6 64.2 302.6 64.2 302.6 64.2 Z M 168.7 105.8 C 168.6 105.9 169.0 105.9 169.4 105.9 C 169.8 105.9 170.3 105.8 170.6 105.8 C 170.5 105.5 168.3 105.4 170.0 105.1 C 169.4 105.1 169.3 105.1 169.4 105.2 C 166.2 106.0 163.7 104.9 159.6 105.4 C 158.9 105.4 159.1 105.5 158.9 105.5 C 159.4 105.5 159.5 105.6 159.6 105.6 C 160.1 105.3 163.8 105.6 162.2 105.7 C 162.3 105.8 162.8 105.8 162.8 105.7 C 163.3 105.7 163.7 105.7 164.2 105.7 C 163.9 105.6 163.0 105.6 162.8 105.5 C 164.9 105.5 167.5 105.6 166.1 105.9 C 167.4 105.8 167.8 105.7 168.7 105.6 C 169.6 105.6 169.6 105.8 168.7 105.8 C 168.7 105.8 168.7 105.8 168.7 105.8 Z M 185.5 104.9 C 187.5 104.8 186.8 104.6 188.8 104.5 C 187.5 104.4 186.0 104.8 184.3 104.7 C 184.5 104.8 185.4 104.8 185.5 104.9 C 185.5 104.9 185.5 104.9 185.5 104.9 Z M 147.9 105.6 C 148.2 105.3 146.5 105.2 144.6 105.2 C 144.2 105.5 145.9 105.5 147.9 105.6 C 147.9 105.6 147.9 105.6 147.9 105.6 Z M 156.3 105.6 C 158.2 105.5 153.9 105.6 155.0 105.3 C 154.1 105.3 153.1 105.3 153.1 105.2 C 152.4 105.3 152.4 105.4 151.1 105.4 C 151.2 105.5 153.3 105.4 153.1 105.6 C 154.5 105.5 154.8 105.5 156.3 105.6 C 156.3 105.6 156.3 105.6 156.3 105.6 Z M 157.6 105.6 C 158.9 105.5 157.3 105.1 155.7 105.2 C 156.3 105.3 156.6 105.5 157.6 105.6 C 157.6 105.6 157.6 105.6 157.6 105.6 Z M 14.1 72.3 C 14.7 72.8 14.4 72.3 15.1 72.9 C 15.2 72.8 12.7 70.6 14.8 72.4 C 14.2 71.5 13.6 71.5 12.8 70.6 C 13.0 70.9 13.2 71.1 12.7 70.7 C 12.3 70.6 14.6 72.4 14.1 72.3 C 14.1 72.3 14.1 72.3 14.1 72.3 Z M 16.7 74.6 C 17.2 75.0 17.0 74.7 16.7 74.5 C 16.9 74.5 17.6 75.1 18.2 75.6 C 18.2 75.7 17.4 74.5 17.6 74.4 C 15.1 72.7 16.8 74.3 16.7 74.6 C 16.7 74.6 16.7 74.6 16.7 74.6 Z M 19.2 76.3 C 20.7 77.7 23.3 79.3 24.7 79.8 C 23.5 78.7 20.1 76.6 19.2 76.3 C 19.2 76.3 19.2 76.3 19.2 76.3 Z M 7.7 63.7 C 8.6 66.2 12.2 70.5 9.6 66.3 C 9.5 66.5 7.8 63.9 7.3 62.5 C 7.2 62.5 6.4 61.1 6.6 61.0 C 6.0 60.0 7.8 64.3 7.7 63.7 C 7.7 63.7 7.7 63.7 7.7 63.7 Z M 27.4 80.8 C 26.3 80.3 27.4 81.4 25.9 80.4 C 25.0 79.9 26.1 80.6 25.8 80.6 C 27.7 81.7 32.1 83.6 32.4 84.1 C 33.5 84.5 33.9 84.5 36.1 85.5 C 36.2 85.4 28.5 82.1 27.3 80.9 C 27.5 80.9 29.9 82.2 27.4 80.8 C 27.4 80.8 27.4 80.8 27.4 80.8 Z M 80.3 12.4 C 80.4 12.2 78.0 12.8 78.5 12.4 C 77.2 13.0 76.0 13.1 74.6 13.6 C 74.1 13.6 74.2 13.2 72.2 13.6 C 72.2 13.8 73.2 13.5 72.3 13.9 C 70.4 14.4 70.9 14.0 68.8 14.5 C 69.3 14.8 64.6 15.7 65.1 15.9 C 66.1 15.6 66.0 15.5 67.8 15.1 C 68.4 15.0 68.2 15.2 68.9 15.0 C 68.5 15.3 67.5 15.2 66.8 15.6 C 67.0 15.7 68.3 15.4 68.5 15.5 C 69.3 15.3 68.3 15.5 68.4 15.3 C 70.6 14.7 68.4 15.9 70.8 15.2 C 70.2 15.1 70.2 15.1 70.7 14.8 C 71.6 14.7 74.5 13.9 73.0 14.5 C 73.2 14.6 74.9 14.0 74.6 13.9 C 75.6 13.7 75.7 13.7 75.8 13.8 C 78.2 13.2 78.5 12.9 77.9 12.8 C 78.4 12.5 78.8 12.8 80.3 12.4 C 80.3 12.4 80.3 12.4 80.3 12.4 Z M 6.2 51.2 C 6.2 50.2 6.0 52.2 5.8 53.1 C 6.0 52.0 6.3 52.4 6.6 51.3 C 6.4 51.7 6.3 51.6 6.5 50.8 C 6.5 50.6 5.9 52.3 6.2 51.2 C 6.2 51.2 6.2 51.2 6.2 51.2 Z M 40.8 87.5 C 41.6 88.0 45.9 89.5 48.3 90.3 C 48.0 89.8 42.2 88.3 41.6 87.6 C 40.3 87.2 42.3 88.1 40.8 87.5 C 40.8 87.5 40.8 87.5 40.8 87.5 Z M 59.0 17.1 C 58.5 17.2 58.8 17.2 59.1 17.1 C 58.9 17.3 57.8 17.6 57.0 17.8 C 58.2 17.6 56.8 18.1 57.1 18.3 C 56.5 18.4 56.2 18.6 56.1 18.7 C 56.0 18.2 52.9 19.9 56.2 19.0 C 55.5 18.9 55.8 18.8 57.1 18.4 C 58.7 18.1 59.8 17.6 60.4 17.7 C 61.4 17.4 61.7 17.2 63.0 16.8 C 63.4 16.9 64.6 16.7 63.7 17.3 C 66.0 16.7 64.3 16.5 66.3 16.0 C 68.2 15.7 65.4 16.5 65.9 16.6 C 66.3 16.5 66.3 16.6 66.4 16.6 C 67.1 16.4 67.1 16.2 66.4 16.4 C 66.6 16.2 68.5 15.6 68.0 16.0 C 69.1 15.6 66.1 15.7 64.6 16.3 C 63.7 16.6 63.6 16.1 64.5 15.9 C 64.1 15.8 62.5 16.8 62.8 16.2 C 62.1 16.4 61.4 16.6 60.7 16.8 C 60.8 16.8 61.2 16.7 61.3 16.8 C 60.6 17.0 59.9 17.2 59.1 17.4 C 59.7 17.1 59.7 17.0 59.0 17.1 C 59.0 17.1 59.0 17.1 59.0 17.1 Z M 31.1 83.1 C 32.8 84.0 33.3 84.0 34.7 84.7 C 34.3 84.2 30.4 82.5 31.1 83.1 C 31.1 83.1 31.1 83.1 31.1 83.1 Z M 90.5 11.3 C 90.3 11.3 89.2 11.5 89.2 11.4 C 91.1 11.0 88.9 11.2 90.3 10.5 C 88.0 11.1 87.3 11.8 90.5 11.5 C 92.8 11.1 88.1 11.8 90.5 11.3 C 90.5 11.3 90.5 11.3 90.5 11.3 Z M 83.3 12.4 C 81.9 12.8 85.5 12.2 86.3 12.2 C 86.3 12.3 86.3 12.3 86.4 12.4 C 88.3 11.7 85.6 12.1 87.3 11.3 C 85.0 11.6 84.0 11.7 82.0 12.1 C 82.2 12.2 82.6 12.1 82.6 12.0 C 84.1 11.8 83.1 12.3 81.5 12.5 C 82.0 12.5 83.4 12.3 84.5 12.1 C 84.2 12.1 83.8 12.1 83.8 12.0 C 85.1 11.7 84.7 12.0 85.6 11.8 C 85.6 11.9 83.4 12.5 83.3 12.4 C 83.3 12.4 83.3 12.4 83.3 12.4 Z M 208.1 9.2 C 206.9 9.1 209.4 9.7 209.3 10.1 C 210.6 10.3 210.9 10.2 211.7 10.3 C 211.3 10.1 209.9 9.9 209.3 9.7 C 209.6 9.4 211.2 10.0 211.8 9.9 C 212.6 9.6 208.6 9.6 208.1 9.2 C 208.1 9.2 208.1 9.2 208.1 9.2 Z M 28.0 29.5 C 27.4 29.9 27.8 29.7 28.1 29.6 C 28.0 29.7 26.9 30.3 26.8 30.2 C 25.9 30.8 27.4 30.1 26.3 30.7 C 26.2 31.0 28.1 29.7 28.1 29.6 C 29.5 28.9 28.5 29.7 29.0 29.6 C 30.2 29.0 29.7 29.0 31.5 28.1 C 30.3 28.6 29.3 28.9 28.0 29.5 C 28.0 29.5 28.0 29.5 28.0 29.5 Z M 94.6 10.2 C 94.8 10.1 93.2 10.8 91.6 10.8 C 89.5 11.2 92.9 10.9 91.0 11.2 C 92.6 11.0 94.5 10.5 97.0 10.1 C 97.6 9.9 93.6 10.5 95.8 10.1 C 95.7 10.0 95.2 10.2 95.2 10.2 C 94.7 10.3 94.6 10.3 94.6 10.2 C 94.6 10.2 94.6 10.2 94.6 10.2 Z M 92.2 11.1 C 92.4 11.2 92.9 11.1 92.9 11.0 C 93.6 10.9 93.7 11.2 92.9 11.3 C 94.0 11.4 93.8 10.9 95.9 10.7 C 95.0 10.7 94.6 10.6 96.5 10.5 C 98.0 10.1 92.9 10.9 92.2 11.1 C 92.2 11.1 92.2 11.1 92.2 11.1 Z M 188.0 7.3 C 188.2 7.4 189.6 7.5 190.6 7.6 C 189.3 7.7 184.2 7.2 183.6 7.0 C 183.0 7.0 182.4 7.0 182.2 6.9 C 182.3 7.0 180.9 7.0 181.6 7.1 C 181.5 7.2 180.3 7.1 180.3 7.2 C 178.4 7.0 180.9 7.1 180.4 6.9 C 178.0 7.0 178.5 6.8 175.8 6.6 C 176.3 6.9 179.3 7.0 179.0 7.3 C 181.2 7.1 183.5 7.5 184.8 7.8 C 182.8 7.3 190.3 7.7 193.7 8.0 C 193.6 8.2 194.8 8.2 196.2 8.5 C 197.2 8.8 196.9 8.3 195.0 8.2 C 195.1 8.1 197.7 8.5 198.8 8.5 C 197.5 8.2 198.2 8.2 197.6 8.1 C 195.1 7.8 197.3 8.1 196.9 8.3 C 196.3 8.2 195.6 8.1 195.0 8.1 C 198.3 8.0 190.2 7.6 193.1 7.8 C 190.5 7.6 190.5 7.3 188.0 7.3 C 188.0 7.3 188.0 7.3 188.0 7.3 Z M 127.2 6.8 C 126.7 6.9 124.7 7.2 124.6 7.0 C 122.0 7.4 124.3 7.4 121.4 7.6 C 121.6 7.7 122.7 7.6 122.7 7.7 C 123.8 7.5 125.0 7.4 124.6 7.2 C 125.9 7.1 126.3 7.0 127.2 6.9 C 126.9 7.0 126.4 7.1 125.3 7.2 C 125.1 7.4 125.5 7.5 127.2 7.4 C 128.0 7.1 127.4 7.0 127.2 6.8 C 127.2 6.8 127.2 6.8 127.2 6.8 Z M 120.8 7.6 C 120.5 7.6 120.1 7.5 120.1 7.4 C 119.2 7.2 119.8 7.8 118.9 7.8 C 118.1 7.9 118.4 7.7 118.2 7.6 C 117.1 7.8 116.3 7.9 115.7 7.9 C 114.0 8.2 117.7 7.9 118.3 8.0 C 119.5 7.9 119.0 7.7 120.8 7.6 C 120.8 7.6 120.8 7.6 120.8 7.6 Z M 101.9 9.3 C 101.6 9.1 101.0 9.5 100.1 9.6 C 100.7 9.7 102.5 9.4 101.4 9.8 C 103.2 9.7 103.3 9.7 105.1 9.4 C 106.3 9.5 105.1 9.2 103.2 9.5 C 103.4 9.4 104.3 9.3 104.4 9.1 C 105.7 9.5 108.7 8.4 106.9 8.9 C 106.3 8.9 106.0 8.9 105.7 8.8 C 105.3 9.1 101.0 9.5 101.9 9.3 C 101.9 9.3 101.9 9.3 101.9 9.3 Z M 43.6 23.0 C 45.2 22.4 46.1 22.1 46.9 21.8 C 47.8 21.5 49.1 21.0 50.1 20.7 C 50.2 20.8 50.0 20.9 49.7 21.0 C 50.1 21.0 50.7 20.7 51.6 20.4 C 51.5 20.3 51.1 20.5 51.1 20.6 C 49.5 20.9 50.8 20.5 51.0 20.2 C 49.0 20.6 45.9 22.2 44.3 22.4 C 43.1 22.9 44.6 22.4 43.6 23.0 C 43.6 23.0 43.6 23.0 43.6 23.0 Z M 301.5 61.8 C 301.4 62.0 301.2 62.6 301.4 62.6 C 301.6 62.0 301.7 61.6 301.8 61.0 C 301.4 62.1 301.2 61.8 300.5 63.1 C 300.8 62.7 301.0 62.9 301.5 61.8 C 301.5 61.8 301.5 61.8 301.5 61.8 Z M 108.2 8.6 C 108.2 8.7 108.3 8.8 107.6 8.9 C 107.3 9.1 109.3 8.8 109.4 9.0 C 110.1 8.9 109.8 8.8 110.7 8.7 C 110.4 8.6 108.7 8.8 109.4 8.5 C 109.9 8.4 110.0 8.5 110.1 8.5 C 111.3 8.2 109.4 8.4 108.2 8.6 C 108.2 8.6 108.2 8.6 108.2 8.6 Z M 214.2 10.3 C 213.4 10.2 214.2 10.4 214.8 10.5 C 213.0 10.5 215.8 11.1 215.9 11.3 C 215.2 11.0 212.7 10.8 212.3 10.7 C 211.6 10.6 212.4 10.9 210.4 10.7 C 210.7 10.9 212.8 11.1 212.3 10.8 C 212.8 11.2 214.9 11.1 214.7 11.4 C 217.4 11.9 218.1 11.8 218.3 11.6 C 215.7 11.2 217.1 11.0 214.8 10.8 C 214.8 10.7 215.5 10.8 216.0 10.9 C 215.8 10.7 214.8 10.5 214.2 10.3 C 214.2 10.3 214.2 10.3 214.2 10.3 Z M 147.9 6.2 C 146.4 6.2 146.5 6.4 146.6 6.6 C 147.1 6.5 148.0 6.5 149.2 6.5 C 148.9 6.4 147.1 6.4 147.9 6.2 C 147.9 6.2 147.9 6.2 147.9 6.2 Z M 204.3 9.3 C 204.2 9.2 203.7 9.2 203.7 9.2 C 202.2 9.1 201.8 8.9 201.3 8.7 C 200.4 8.6 200.7 8.8 200.6 9.0 C 202.1 8.9 201.8 9.2 203.7 9.4 C 203.6 9.3 203.9 9.3 204.3 9.3 C 204.3 9.3 204.3 9.3 204.3 9.3 Z M 161.5 6.3 C 160.8 6.3 161.2 6.4 161.5 6.4 C 160.6 6.7 158.0 6.4 157.0 6.5 C 156.8 6.7 160.1 6.7 156.3 6.8 C 157.0 7.0 160.5 6.8 162.2 6.9 C 161.8 7.1 159.4 7.1 159.6 7.4 C 161.6 7.2 163.8 7.1 164.1 6.8 C 161.2 6.7 162.2 6.5 161.5 6.3 C 161.5 6.3 161.5 6.3 161.5 6.3 Z M 164.8 6.6 C 164.5 6.4 163.9 6.6 162.9 6.5 C 164.4 6.8 165.4 6.7 168.7 6.9 C 168.7 6.9 168.7 6.8 168.7 6.8 C 169.3 6.8 170.0 6.8 170.6 6.8 C 167.8 6.4 167.1 6.6 164.1 6.6 C 164.0 6.6 164.4 6.6 164.8 6.6 C 164.8 6.6 164.8 6.6 164.8 6.6 Z M 80.4 13.1 C 81.2 13.1 81.9 13.1 83.4 12.9 C 83.2 12.7 82.3 12.7 80.4 13.1 C 80.4 13.1 80.4 13.1 80.4 13.1 Z M 206.8 9.8 C 208.5 9.8 205.2 9.6 206.2 9.9 C 207.5 10.2 208.9 10.4 209.2 10.7 C 211.7 10.7 206.5 10.0 206.8 9.8 C 206.8 9.8 206.8 9.8 206.8 9.8 Z M 195.6 9.1 C 194.8 9.0 194.9 8.6 195.6 8.9 C 197.3 9.1 194.1 8.6 196.8 8.9 C 195.7 8.7 193.0 8.3 191.8 8.3 C 191.8 8.5 194.2 8.7 194.3 8.9 C 194.4 9.0 194.0 8.9 193.6 8.9 C 193.9 9.0 194.4 8.9 195.6 9.1 C 195.6 9.1 195.6 9.1 195.6 9.1 Z M 186.1 7.9 C 187.1 8.1 188.3 8.3 190.5 8.5 C 189.1 8.2 188.3 7.9 186.1 7.9 C 186.1 7.9 186.1 7.9 186.1 7.9 Z M 296.6 42.6 C 295.9 41.7 296.3 42.7 296.4 42.8 C 297.1 43.7 297.2 43.5 297.9 44.6 C 297.9 44.1 296.9 43.4 296.6 42.6 C 296.6 42.6 296.6 42.6 296.6 42.6 Z M 298.9 45.9 C 298.8 46.1 299.6 47.3 299.5 47.5 C 300.3 48.0 300.1 49.4 300.4 49.2 C 300.5 49.5 300.6 49.8 300.7 50.3 C 300.8 49.2 299.6 47.0 298.9 45.9 C 298.9 45.9 298.9 45.9 298.9 45.9 Z M 175.1 7.7 C 173.4 7.6 175.6 8.1 173.8 8.0 C 173.7 8.1 177.1 8.3 175.1 8.3 C 177.7 8.6 174.9 7.8 175.1 7.7 C 175.1 7.7 175.1 7.7 175.1 7.7 Z M 143.4 7.6 C 143.5 7.5 141.1 7.7 140.1 7.7 C 140.1 7.7 140.9 7.7 141.4 7.7 C 141.2 7.8 140.8 7.9 140.2 7.9 C 140.7 8.1 142.4 7.7 143.4 7.6 C 143.4 7.6 143.4 7.6 143.4 7.6 Z M 178.6 3.7 C 179.6 4.0 181.0 4.3 181.8 4.0 C 182.9 4.3 181.0 4.2 182.4 4.4 C 184.2 4.4 183.3 4.6 186.3 4.7 C 185.7 5.0 187.8 5.1 188.2 5.3 C 187.0 5.3 185.5 4.9 184.9 5.1 C 185.9 5.1 185.4 5.3 184.9 5.2 C 183.0 4.9 187.3 5.0 185.0 4.7 C 184.3 5.0 180.8 4.2 178.6 4.0 C 179.5 3.9 176.9 3.7 178.6 3.7 C 178.6 3.7 178.6 3.7 178.6 3.7 Z M 190.1 5.0 C 191.7 5.1 192.4 5.7 192.0 5.6 C 192.0 5.5 190.3 5.4 190.1 5.5 C 190.5 5.5 190.9 5.5 190.8 5.6 C 187.9 5.3 188.9 5.2 188.2 5.0 C 189.8 5.0 190.2 5.2 190.8 5.1 C 190.4 5.1 190.0 5.0 190.1 5.0 C 190.1 5.0 190.1 5.0 190.1 5.0 Z M 222.4 13.0 C 222.1 12.8 221.7 13.0 221.2 12.9 C 221.1 12.5 218.0 12.5 217.6 12.3 C 218.3 12.3 219.9 12.5 220.6 12.5 C 219.8 12.3 219.7 12.2 218.8 12.2 C 219.0 12.0 220.8 12.3 221.3 12.2 C 221.4 12.4 222.3 12.3 222.5 12.5 C 220.1 12.2 223.7 13.3 222.4 13.0 C 222.4 13.0 222.4 13.0 222.4 13.0 Z M 160.3 7.6 C 160.0 7.9 162.8 8.5 160.2 8.7 C 159.7 8.5 159.4 8.3 159.6 8.0 C 158.0 8.1 157.3 7.9 156.3 8.1 C 153.4 7.4 158.6 8.2 160.3 7.6 C 160.3 7.6 160.3 7.6 160.3 7.6 Z M 149.8 7.8 C 150.4 7.6 148.9 7.6 149.2 7.4 C 150.4 7.6 154.5 7.3 153.1 7.5 C 151.8 7.6 151.8 7.8 149.8 7.8 C 149.8 7.8 149.8 7.8 149.8 7.8 Z M 75.6 97.3 C 73.8 97.1 72.9 96.5 74.0 96.6 C 73.5 96.7 76.3 97.1 75.6 97.3 C 75.6 97.3 75.6 97.3 75.6 97.3 Z M 7.1 69.2 C 7.9 70.6 8.6 71.2 8.6 71.5 C 7.5 70.3 7.7 70.3 6.9 69.3 C 6.8 69.3 6.3 68.7 6.3 68.5 C 6.7 69.1 6.7 68.9 7.1 69.2 C 7.1 69.2 7.1 69.2 7.1 69.2 Z M 110.2 4.4 C 110.0 4.3 109.3 4.3 109.6 4.1 C 111.5 4.0 113.7 3.6 115.3 3.3 C 115.3 3.4 115.3 3.5 115.3 3.6 C 112.2 3.8 111.5 4.1 110.2 4.4 C 110.2 4.4 110.2 4.4 110.2 4.4 Z M 106.4 4.3 C 106.1 4.5 107.2 4.6 105.8 4.8 C 105.8 4.6 103.4 4.6 104.5 4.4 C 104.9 4.6 105.5 4.5 106.4 4.3 C 106.4 4.3 106.4 4.3 106.4 4.3 Z M 214.7 7.1 C 216.2 7.3 214.0 6.8 214.1 6.7 C 215.2 6.9 216.7 7.1 217.1 7.3 C 216.1 7.1 215.2 7.4 214.7 7.1 C 214.7 7.1 214.7 7.1 214.7 7.1 Z M 191.4 5.0 C 188.1 4.8 189.6 4.5 186.3 4.1 C 187.7 4.1 190.6 4.4 191.5 4.2 C 191.4 4.4 192.2 4.5 192.1 4.6 C 190.9 4.5 190.7 4.4 189.5 4.3 C 190.0 4.6 190.0 4.5 189.5 4.7 C 190.4 4.8 190.9 4.8 191.4 4.8 C 191.2 4.9 192.4 5.1 191.4 5.0 C 191.4 5.0 191.4 5.0 191.4 5.0 Z M 214.0 7.7 C 215.2 7.8 216.3 8.3 215.2 8.1 C 215.0 7.9 214.2 8.0 213.9 7.8 C 215.7 8.0 212.5 7.5 213.4 7.4 C 214.5 7.6 214.8 7.5 214.6 7.3 C 215.3 7.5 216.4 7.6 216.5 7.7 C 216.0 7.6 215.3 7.5 215.3 7.6 C 215.6 7.7 216.0 7.7 215.8 7.8 C 214.8 7.6 214.3 7.6 214.0 7.7 C 214.0 7.7 214.0 7.7 214.0 7.7 Z M 205.3 6.5 C 207.1 6.7 207.2 7.0 207.8 7.2 C 205.5 6.8 205.2 6.5 203.5 6.1 C 205.4 6.4 207.3 6.3 207.9 6.6 C 207.0 6.6 205.5 6.4 205.3 6.5 C 205.3 6.5 205.3 6.5 205.3 6.5 Z M 238.1 98.0 C 236.7 98.2 235.6 98.3 234.0 98.5 C 233.6 98.8 236.5 98.7 235.3 98.8 C 233.7 99.2 234.7 98.6 233.5 98.8 C 234.8 98.9 228.0 100.3 227.7 100.0 C 228.7 99.8 229.0 99.7 228.8 99.5 C 231.5 99.0 232.5 98.6 234.5 98.1 C 236.0 98.1 240.3 97.3 242.4 96.4 C 244.0 96.5 246.5 95.4 248.5 95.2 C 249.0 94.9 246.8 95.4 248.4 94.9 C 249.5 94.9 248.7 95.2 250.1 94.9 C 250.2 94.7 249.9 94.7 250.6 94.4 C 250.5 94.6 251.4 94.4 251.7 94.4 C 248.8 95.2 252.0 94.7 249.7 95.3 C 248.7 95.5 250.6 94.7 248.0 95.4 C 247.1 95.7 246.2 96.0 246.4 96.2 C 245.7 96.4 245.3 96.6 244.8 96.7 C 245.8 96.2 241.1 97.7 243.1 96.9 C 243.3 96.9 244.8 96.5 245.9 96.1 C 244.8 96.1 243.7 96.6 242.0 97.1 C 241.2 97.1 242.3 96.8 241.4 96.9 C 240.1 97.4 241.9 97.1 240.9 97.5 C 241.4 97.4 242.0 97.3 242.0 97.3 C 239.7 97.7 238.8 98.1 237.5 98.4 C 238.3 98.0 236.1 98.5 238.1 98.0 C 238.1 98.0 238.1 98.0 238.1 98.0 Z M 257.4 92.5 C 257.9 92.3 258.4 92.2 258.9 92.0 C 259.1 92.2 257.2 92.9 258.6 92.6 C 256.3 93.3 258.6 92.3 257.4 92.5 C 257.4 92.5 257.4 92.5 257.4 92.5 Z M 246.7 94.7 C 245.8 94.6 246.4 95.1 245.6 95.3 C 246.9 94.9 248.1 94.5 248.4 94.7 C 246.8 95.1 246.1 95.2 244.6 95.7 C 246.0 95.0 242.8 95.9 242.2 95.7 C 243.4 95.4 244.4 95.0 246.0 94.6 C 245.8 94.8 248.2 94.2 246.7 94.7 C 246.7 94.7 246.7 94.7 246.7 94.7 Z M 250.8 93.2 C 251.2 93.3 253.5 92.5 253.0 92.9 C 251.6 93.3 251.1 93.5 251.5 93.6 C 250.5 93.9 250.3 93.8 249.4 94.1 C 248.7 94.0 250.4 93.6 250.9 93.3 C 250.6 93.4 250.2 93.4 250.8 93.2 C 250.8 93.2 250.8 93.2 250.8 93.2 Z M 295.0 69.7 C 295.5 69.6 293.9 71.0 293.5 71.2 C 294.2 71.0 294.0 71.2 293.0 72.2 C 293.2 71.6 291.7 73.1 290.5 73.6 C 290.4 74.0 291.8 73.0 290.2 74.3 C 289.0 75.2 287.9 76.1 285.7 77.5 C 285.1 77.6 286.0 77.0 286.5 76.5 C 285.1 77.5 285.4 77.1 284.3 77.8 C 284.5 77.7 283.6 78.4 283.2 78.5 C 285.2 77.2 280.2 79.8 282.4 78.5 C 282.6 78.5 283.1 78.2 283.5 77.8 C 283.1 78.4 285.8 76.7 286.5 76.4 C 287.2 75.3 290.0 73.7 292.5 71.7 C 292.8 71.7 292.1 72.4 292.7 71.9 C 292.7 71.7 293.5 71.0 293.8 70.7 C 293.8 70.8 294.2 70.6 294.7 70.1 C 294.7 70.1 294.7 70.0 295.0 69.7 C 295.0 69.7 295.0 69.7 295.0 69.7 Z M 134.9 103.4 C 135.0 103.0 130.9 103.0 129.7 103.1 C 129.9 102.7 137.2 103.1 134.9 103.4 C 134.9 103.4 134.9 103.4 134.9 103.4 Z M 160.2 103.5 C 159.1 103.5 159.9 103.7 158.9 103.8 C 158.9 103.5 156.4 104.0 156.3 103.8 C 157.5 103.6 158.3 103.6 160.2 103.5 C 160.2 103.5 160.2 103.5 160.2 103.5 Z M 183.5 102.7 C 181.6 102.9 184.5 102.8 184.1 102.9 C 182.5 103.0 180.8 103.1 180.9 102.9 C 182.4 102.9 183.3 102.5 183.5 102.7 C 183.5 102.7 183.5 102.7 183.5 102.7 Z M 148.5 103.3 C 146.9 103.2 149.5 102.9 149.8 103.0 C 148.1 103.1 150.9 103.3 152.4 103.2 C 152.3 103.5 151.7 103.5 152.4 103.7 C 150.1 103.8 152.0 103.4 150.4 103.5 C 149.3 103.6 150.5 103.6 150.4 103.8 C 149.8 103.8 149.2 103.8 148.5 103.8 C 148.5 103.6 148.5 103.5 148.5 103.4 C 149.3 103.4 150.0 103.3 149.8 103.2 C 149.2 103.2 149.0 103.3 148.5 103.3 C 148.5 103.3 148.5 103.3 148.5 103.3 Z M 263.8 86.9 C 262.5 87.4 263.7 87.1 264.6 86.8 C 264.8 86.6 265.5 85.9 267.0 85.6 C 263.9 87.0 268.1 85.5 266.4 86.3 C 265.6 86.4 263.7 87.4 262.1 87.9 C 261.4 87.9 263.0 87.0 263.8 86.9 C 263.8 86.9 263.8 86.9 263.8 86.9 Z M 269.5 84.9 C 269.3 84.9 268.8 85.1 267.8 85.5 C 268.8 84.9 267.4 85.4 268.6 84.8 C 268.5 85.0 272.5 83.4 270.2 84.4 C 268.0 85.2 270.8 84.3 271.8 83.9 C 270.7 84.4 269.0 85.4 268.7 85.3 C 269.2 85.1 269.6 84.9 269.5 84.9 C 269.5 84.9 269.5 84.9 269.5 84.9 Z M 299.7 62.3 C 299.6 62.1 299.3 62.7 299.1 62.8 C 300.1 61.1 300.5 59.6 300.8 58.8 C 300.6 59.6 300.7 59.6 301.0 59.2 C 300.6 60.0 300.7 60.3 300.5 60.5 C 300.5 59.7 300.2 61.2 299.7 62.3 C 299.7 62.3 299.7 62.3 299.7 62.3 Z M 299.7 62.3 " fill="#000000"></path><image xlink:href="../../CEFA4209-80C9-472B-8D2B-058B96531B72/assets/B3801F04380499D666F22482CDF7C3B4.png" width="87.00" height="38.00" transform="matrix(1.00, 0.00, -0.00, -1.00, 112.0, 70.0)"></image><g><clipPath id="clip-281"><path d="M 5.6 5.3 L 303.8 5.3 L 303.8 105.3 L 5.6 105.3 Z M 5.6 5.3 "></path></clipPath><g clip-path="url(#clip-281)"><text xml:space="preserve" font-family="Chalkduster" font-size="32.0" fill="#000000" transform="matrix(1.00, 0.00, -0.00, -1.00, 116.0, 41.0)">C</text><text xml:space="preserve" font-family="Chalkduster" font-size="32.0" fill="#000000" transform="matrix(1.00, 0.00, -0.00, -1.00, 142.0, 41.0)">A</text><text xml:space="preserve" font-family="Chalkduster" font-size="32.0" fill="#000000" transform="matrix(1.00, 0.00, -0.00, -1.00, 164.7, 41.0)">W</text></g></g></g></svg>