<?xml version="1.0" encoding="UTF-8" standalone="no"?><svg xmlns="http://www.w3.org/2000/svg" xmlns:xlink="http://www.w3.org/1999/xlink" clip-rule="evenodd" stroke-miterlimit="4.00" viewBox="0 0 739 142"><desc>SVG generated by Keynote</desc><defs></defs><g transform="matrix(1.00, 0.00, -0.00, -1.00, 0.0, 142.0)"><g><clipPath id="clip-196"><path d="M 503.0 42.5 L 738.9 42.5 L 738.9 142.0 L 503.0 142.0 Z M 503.0 42.5 "></path></clipPath><g clip-path="url(#clip-196)"><image xlink:href="../../14F397CC-C286-42D9-A2F1-53C679F93897/assets/9C11A9BFE2462ACD0C8F53A82701A181.png" width="234.00" height="98.00" transform="matrix(1.00, 0.00, -0.00, -1.00, 504.0, 141.0)" opacity="0.50"></image><path d="M 542.0 133.2 L 699.8 133.2 C 708.5 133.2 712.9 133.2 717.6 131.7 C 722.7 129.8 726.7 125.8 728.5 120.7 C 730.0 116.0 730.0 111.6 730.0 102.9 L 730.0 81.5 C 730.0 72.8 730.0 68.4 728.5 63.8 C 726.7 58.6 722.7 54.6 717.6 52.8 C 712.9 51.3 708.5 51.3 699.7 51.3 L 542.0 51.3 C 533.3 51.3 528.9 51.3 524.3 52.8 C 519.1 54.6 515.1 58.6 513.3 63.8 C 511.8 68.4 511.8 72.8 511.8 81.6 L 511.8 103.0 C 511.8 111.6 511.8 116.0 513.3 120.7 C 515.1 125.8 519.1 129.8 524.3 131.7 C 528.9 133.2 533.3 133.2 542.1 133.2 Z M 542.0 133.2 " fill="#DDF3D0"></path><path d="M 542.6 131.2 C 541.7 131.2 540.5 131.4 540.4 132.7 C 540.2 134.1 541.2 135.1 542.5 135.1 C 543.9 135.1 543.5 134.4 546.7 134.4 C 547.9 134.4 548.0 131.9 546.8 131.9 C 543.9 131.9 544.3 131.2 542.6 131.2 C 542.6 131.2 542.6 131.2 542.6 131.2 Z M 540.9 135.1 C 541.4 135.1 541.8 135.1 542.1 135.0 L 542.1 131.3 C 541.0 131.5 540.6 132.1 540.6 133.1 C 540.5 134.2 541.1 134.8 542.1 135.0 L 542.1 131.3 C 541.7 131.2 541.3 131.2 540.9 131.2 C 538.9 131.2 538.9 132.0 536.1 131.9 C 534.6 131.9 534.8 134.3 536.0 134.3 C 539.0 134.4 538.6 135.1 540.9 135.1 C 540.9 135.1 540.9 135.1 540.9 135.1 Z M 546.8 131.9 C 545.7 131.9 545.6 134.4 547.0 134.4 C 548.5 134.4 551.6 133.9 552.4 134.0 C 553.3 134.0 555.5 134.5 556.3 134.5 C 557.0 134.5 560.5 133.8 562.0 134.0 C 563.4 134.2 563.9 134.1 564.9 134.1 C 565.9 134.1 567.6 133.9 568.5 133.9 C 569.5 133.8 570.4 134.5 571.7 134.3 C 573.0 134.1 573.7 134.4 574.5 134.4 C 576.0 134.4 575.9 131.9 574.6 131.9 C 573.3 131.9 572.4 131.8 571.3 131.8 C 570.2 131.9 569.3 132.1 568.3 131.9 C 567.3 131.6 565.3 131.9 564.0 132.1 C 562.8 132.2 561.4 132.1 560.5 132.0 C 558.5 131.8 553.8 132.3 553.1 132.1 C 552.5 131.9 550.3 132.1 549.6 132.1 C 548.8 132.1 548.4 131.9 546.8 131.9 C 546.8 131.9 546.8 131.9 546.8 131.9 Z M 602.3 134.4 C 603.6 134.4 603.8 131.9 602.3 131.9 C 600.8 131.9 598.0 132.2 597.2 132.1 C 596.3 132.1 592.9 131.9 592.2 131.9 C 591.5 131.9 588.9 132.3 587.4 132.1 C 585.9 131.9 584.5 132.3 583.4 132.2 C 582.2 132.0 581.5 132.2 580.5 132.2 C 579.5 132.3 578.0 131.8 577.2 132.0 C 576.4 132.2 575.9 131.9 574.7 131.9 C 573.6 131.9 573.6 134.4 574.7 134.4 C 575.8 134.4 576.7 134.3 577.8 134.3 C 578.9 134.2 580.2 134.2 581.3 134.2 C 582.4 134.2 584.0 134.5 585.2 134.3 C 586.5 134.2 588.3 134.1 589.0 134.1 C 589.9 134.1 591.8 134.1 592.6 134.0 C 593.7 133.8 595.5 134.1 596.2 134.3 C 596.9 134.5 597.3 134.2 598.8 134.3 C 599.6 134.3 601.0 134.4 602.3 134.4 C 602.3 134.4 602.3 134.4 602.3 134.4 Z M 602.7 134.4 C 604.2 134.4 606.6 134.1 607.2 134.1 C 607.8 134.1 609.8 134.2 610.8 134.2 C 611.7 134.1 612.0 133.9 613.6 133.9 C 615.6 133.8 616.9 134.1 617.0 134.1 C 617.3 134.2 618.2 134.4 619.6 134.4 C 621.3 134.3 621.9 134.5 622.7 134.4 C 624.0 134.1 624.2 134.4 625.2 134.3 C 626.2 134.3 626.9 134.4 627.7 134.2 C 628.6 134.1 629.3 134.4 630.1 134.4 C 631.5 134.4 631.3 131.9 630.1 131.9 C 629.3 131.9 628.7 132.2 627.9 132.2 C 627.1 132.2 626.4 132.1 625.6 132.0 C 624.8 131.9 623.2 132.1 621.9 132.0 C 620.6 132.0 618.5 131.8 617.0 131.9 C 615.5 131.9 614.6 132.5 611.5 132.1 C 610.5 132.0 608.6 132.1 607.8 132.1 C 606.4 132.1 603.7 131.9 602.6 131.9 C 601.2 131.9 601.2 134.4 602.7 134.4 C 602.7 134.4 602.7 134.4 602.7 134.4 Z M 658.0 134.4 C 659.2 134.4 659.5 131.9 658.0 131.9 C 656.4 131.9 653.6 132.2 652.8 132.1 C 652.0 132.1 648.6 131.9 647.8 131.9 C 647.1 131.9 644.6 132.3 643.1 132.1 C 641.6 131.9 640.1 132.3 639.1 132.2 C 637.8 132.0 637.1 132.2 636.1 132.2 C 635.2 132.3 633.7 131.8 632.8 132.0 C 632.0 132.2 631.5 131.9 630.4 131.9 C 629.2 131.9 629.2 134.4 630.3 134.4 C 631.4 134.4 632.4 134.3 633.4 134.3 C 634.5 134.2 635.8 134.2 637.0 134.2 C 638.1 134.2 639.7 134.5 640.9 134.3 C 642.1 134.2 643.9 134.1 644.6 134.1 C 645.5 134.1 647.5 134.1 648.3 134.0 C 649.3 133.8 651.2 134.1 651.8 134.3 C 652.5 134.5 653.0 134.2 654.4 134.3 C 655.3 134.3 656.7 134.4 658.0 134.4 C 658.0 134.4 658.0 134.4 658.0 134.4 Z M 658.4 134.4 C 659.9 134.4 662.3 134.1 662.9 134.1 C 663.5 134.1 665.5 134.2 666.4 134.2 C 667.3 134.1 667.7 133.9 669.3 133.9 C 671.2 133.8 672.5 134.1 672.6 134.1 C 672.9 134.2 673.9 134.4 675.2 134.4 C 677.0 134.3 677.5 134.5 678.3 134.4 C 679.7 134.1 679.8 134.4 680.9 134.3 C 681.9 134.3 682.5 134.4 683.4 134.2 C 684.3 134.1 685.0 134.4 685.8 134.4 C 687.1 134.4 687.0 131.9 685.7 131.9 C 685.0 131.9 684.3 132.2 683.5 132.2 C 682.7 132.2 682.0 132.1 681.2 132.0 C 680.5 131.9 678.8 132.1 677.5 132.0 C 676.3 132.0 674.1 131.8 672.6 131.9 C 671.1 131.9 670.2 132.5 667.2 132.1 C 666.2 132.0 664.2 132.1 663.5 132.1 C 662.1 132.1 659.4 131.9 658.2 131.9 C 656.8 131.9 656.9 134.4 658.4 134.4 C 658.4 134.4 658.4 134.4 658.4 134.4 Z M 714.6 133.7 C 715.6 133.5 715.3 131.1 714.1 131.3 C 712.9 131.5 710.6 132.0 709.8 132.0 C 709.1 131.9 705.5 131.9 704.6 131.9 C 703.8 131.9 700.2 132.3 698.7 132.1 C 697.2 131.9 695.8 132.3 694.7 132.2 C 693.5 132.0 692.8 132.2 691.8 132.2 C 690.8 132.3 689.3 131.8 688.5 132.0 C 687.7 132.2 687.2 131.9 686.0 131.9 C 684.9 131.9 684.9 134.4 686.0 134.4 C 687.1 134.4 688.0 134.3 689.1 134.3 C 690.2 134.2 691.5 134.2 692.7 134.2 C 693.7 134.2 695.3 134.5 696.5 134.3 C 697.8 134.2 699.5 134.1 700.5 134.1 C 701.8 134.1 704.2 134.1 705.2 134.0 C 706.4 133.8 708.3 134.0 709.0 134.2 C 709.7 134.3 710.1 134.0 711.5 134.0 C 712.3 133.9 713.5 133.9 714.6 133.7 C 714.6 133.7 714.6 133.7 714.6 133.7 Z M 714.2 131.2 C 713.4 131.4 713.7 133.9 714.8 133.6 C 716.0 133.4 718.7 132.1 719.5 131.8 C 720.3 131.5 722.6 130.6 723.2 130.1 C 723.8 129.7 725.9 126.7 727.0 125.5 C 728.0 124.4 728.1 123.9 728.6 122.9 C 729.1 121.9 729.5 120.4 729.6 119.6 C 729.8 118.8 730.6 118.2 730.6 117.1 C 730.6 116.0 730.9 115.4 731.0 114.6 C 731.1 113.3 728.6 113.2 728.5 114.4 C 728.4 115.5 728.2 116.1 728.1 117.0 C 728.0 117.8 728.1 118.6 727.6 119.2 C 727.2 119.9 726.8 121.6 726.4 122.7 C 726.0 123.8 725.2 124.9 724.5 125.5 C 723.2 126.7 719.9 129.7 719.3 129.8 C 718.6 129.9 716.9 130.8 716.3 130.9 C 715.8 131.1 715.4 131.0 714.2 131.2 C 714.2 131.2 714.2 131.2 714.2 131.2 Z M 731.0 114.3 C 731.1 112.9 730.9 110.4 730.9 109.8 C 730.9 109.1 731.1 106.8 731.1 105.5 C 731.0 104.3 730.8 103.5 730.8 101.9 C 730.7 99.9 730.9 98.6 731.0 98.5 C 731.0 98.3 731.3 97.3 731.2 96.0 C 731.1 94.2 731.3 93.6 731.2 92.8 C 731.0 91.5 731.2 91.4 731.2 90.3 C 731.1 89.3 731.2 88.6 731.1 87.8 C 730.9 86.9 731.3 86.2 731.2 85.4 C 731.2 84.0 728.8 84.2 728.8 85.4 C 728.8 86.2 729.1 86.9 729.1 87.6 C 729.1 88.4 729.0 89.1 728.9 89.9 C 728.8 90.7 729.0 92.3 728.9 93.6 C 728.8 94.9 728.7 97.0 728.8 98.5 C 728.8 100.0 729.4 100.3 729.0 104.5 C 728.9 105.8 729.0 108.2 729.0 109.1 C 728.9 110.6 728.6 113.2 728.5 114.2 C 728.4 115.4 730.9 115.7 731.0 114.3 C 731.0 114.3 731.0 114.3 731.0 114.3 Z M 726.5 57.7 C 725.7 56.7 723.8 58.2 724.6 59.3 C 725.5 60.4 727.0 62.6 727.2 63.3 C 727.5 64.1 728.0 66.6 728.1 67.2 C 728.2 67.7 728.9 69.8 728.7 71.1 C 728.6 72.5 729.1 74.0 729.0 75.1 C 728.9 76.5 729.0 77.3 729.1 78.6 C 729.1 79.9 728.6 81.9 728.8 82.7 C 729.0 83.5 728.8 84.0 728.8 85.1 C 728.8 86.3 731.2 86.3 731.2 85.2 C 731.2 84.1 731.2 83.2 731.1 82.1 C 731.1 81.0 731.1 79.0 731.0 77.5 C 731.0 76.2 731.3 74.4 731.1 73.1 C 730.9 71.8 730.7 70.2 730.6 69.5 C 730.5 68.7 730.4 67.1 730.1 66.4 C 729.8 65.6 729.6 64.1 729.6 63.5 C 729.7 62.9 729.2 62.3 728.5 60.9 C 728.1 60.1 727.4 58.8 726.5 57.7 C 726.5 57.7 726.5 57.7 726.5 57.7 Z M 726.3 57.4 C 725.3 56.2 723.1 54.8 722.6 54.4 C 722.1 54.1 720.4 52.8 719.5 52.4 C 718.5 52.1 718.1 52.1 716.8 51.8 C 715.2 51.4 714.2 51.0 714.1 51.0 C 713.9 50.8 713.1 50.5 711.9 50.4 C 710.3 50.4 709.8 50.1 709.0 50.2 C 707.6 50.4 707.5 50.1 706.3 50.2 C 705.1 50.2 704.4 50.1 703.3 50.2 C 702.1 50.4 701.2 50.0 700.0 50.1 C 699.1 50.1 699.0 50.7 699.0 51.3 C 699.0 51.9 699.2 52.5 700.1 52.5 C 701.2 52.5 702.1 52.3 703.1 52.3 C 704.1 52.3 704.9 52.3 705.8 52.4 C 706.7 52.6 708.4 52.4 709.6 52.6 C 710.8 52.7 712.6 53.0 713.7 53.1 C 714.9 53.3 715.4 52.5 717.9 54.0 C 718.8 54.5 720.4 55.3 721.0 55.7 C 722.1 56.4 723.8 58.3 724.5 59.1 C 725.3 60.1 727.3 58.6 726.3 57.4 C 726.3 57.4 726.3 57.4 726.3 57.4 Z M 672.1 50.1 C 670.8 50.1 670.6 52.5 672.1 52.5 C 673.6 52.5 676.4 52.3 677.2 52.3 C 678.1 52.4 681.5 52.5 682.2 52.5 C 682.9 52.5 685.5 52.2 687.0 52.4 C 688.5 52.6 690.0 52.2 691.0 52.3 C 692.3 52.4 692.9 52.3 693.9 52.2 C 694.9 52.2 696.4 52.7 697.2 52.5 C 698.0 52.3 698.5 52.5 699.7 52.5 C 700.8 52.5 701.3 50.1 699.7 50.1 C 698.2 50.1 697.7 50.1 696.6 50.2 C 695.5 50.2 694.2 50.3 693.1 50.3 C 692.0 50.3 690.4 50.0 689.2 50.1 C 687.9 50.3 686.1 50.3 685.4 50.4 C 684.5 50.4 682.6 50.3 681.8 50.5 C 680.7 50.6 678.9 50.4 678.2 50.2 C 677.6 50.0 677.1 50.2 675.6 50.2 C 674.8 50.2 673.4 50.1 672.1 50.1 C 672.1 50.1 672.1 50.1 672.1 50.1 Z M 671.7 50.1 C 670.2 50.1 667.8 50.4 667.2 50.4 C 666.6 50.4 664.6 50.2 663.7 50.3 C 662.7 50.3 662.4 50.5 660.8 50.6 C 658.8 50.6 657.5 50.4 657.4 50.3 C 657.2 50.3 656.2 50.0 654.9 50.1 C 653.1 50.2 652.5 50.0 651.7 50.1 C 650.4 50.4 650.2 50.1 649.2 50.1 C 648.2 50.2 647.5 50.1 646.7 50.2 C 645.8 50.4 645.1 50.0 644.3 50.1 C 642.9 50.1 643.1 52.5 644.3 52.5 C 645.1 52.5 645.7 52.3 646.5 52.3 C 647.3 52.3 648.0 52.3 648.8 52.4 C 649.6 52.5 651.2 52.4 652.5 52.4 C 653.8 52.5 655.9 52.6 657.4 52.5 C 658.9 52.5 659.8 51.9 662.9 52.3 C 663.9 52.4 665.8 52.3 666.6 52.3 C 668.0 52.3 670.7 52.5 671.8 52.5 C 673.2 52.5 673.2 50.1 671.7 50.1 C 671.7 50.1 671.7 50.1 671.7 50.1 Z M 616.5 50.1 C 615.2 50.1 614.9 52.5 616.5 52.5 C 618.0 52.5 620.8 52.3 621.6 52.3 C 622.4 52.4 625.8 52.5 626.6 52.5 C 627.3 52.5 629.9 52.2 631.4 52.4 C 632.8 52.6 634.3 52.2 635.3 52.3 C 636.6 52.4 637.3 52.3 638.3 52.2 C 639.2 52.2 640.7 52.7 641.6 52.5 C 642.4 52.3 642.9 52.5 644.0 52.5 C 645.2 52.5 645.2 50.1 644.1 50.1 C 643.0 50.1 642.1 50.1 641.0 50.2 C 639.9 50.2 638.6 50.3 637.4 50.3 C 636.3 50.3 634.8 50.0 633.5 50.1 C 632.3 50.3 630.5 50.3 629.8 50.4 C 628.9 50.4 627.0 50.3 626.1 50.5 C 625.1 50.6 623.2 50.4 622.6 50.2 C 621.9 50.0 621.4 50.2 620.0 50.2 C 619.1 50.2 617.7 50.1 616.5 50.1 C 616.5 50.1 616.5 50.1 616.5 50.1 Z M 616.3 52.5 C 617.4 52.5 617.5 50.1 616.1 50.1 C 614.7 50.1 611.5 50.5 610.7 50.5 C 609.9 50.4 607.6 49.9 606.9 49.9 C 606.1 49.9 602.7 50.7 601.2 50.5 C 599.7 50.2 599.2 50.4 598.2 50.4 C 597.2 50.4 595.5 50.5 594.6 50.6 C 593.6 50.6 592.7 50.0 591.4 50.1 C 590.1 50.3 589.5 50.1 588.6 50.1 C 587.2 50.1 587.2 52.5 588.6 52.5 C 589.8 52.5 590.7 52.7 591.8 52.6 C 592.9 52.6 593.8 52.3 594.8 52.6 C 595.9 52.8 597.8 52.5 599.1 52.4 C 600.3 52.2 601.7 52.3 602.7 52.4 C 604.6 52.6 609.3 52.1 610.0 52.4 C 610.6 52.6 612.8 52.4 613.5 52.4 C 614.3 52.4 614.7 52.5 616.3 52.5 C 616.3 52.5 616.3 52.5 616.3 52.5 Z M 588.2 50.1 C 586.7 50.1 584.3 50.4 583.7 50.4 C 583.1 50.4 581.1 50.2 580.2 50.3 C 579.2 50.3 578.9 50.5 577.3 50.6 C 575.3 50.6 574.0 50.4 574.0 50.3 C 573.7 50.3 572.7 50.0 571.4 50.1 C 569.6 50.2 569.1 50.0 568.3 50.1 C 566.9 50.4 566.8 50.1 565.7 50.1 C 564.7 50.2 564.0 50.1 563.2 50.2 C 562.3 50.4 561.6 50.0 560.8 50.1 C 559.5 50.1 559.6 52.5 560.8 52.5 C 561.6 52.5 562.3 52.3 563.1 52.3 C 563.9 52.3 564.5 52.3 565.3 52.4 C 566.1 52.5 567.8 52.4 569.0 52.4 C 570.3 52.5 572.5 52.6 574.0 52.5 C 575.4 52.5 576.4 51.9 579.4 52.3 C 580.4 52.4 582.3 52.3 583.1 52.3 C 584.5 52.3 587.2 52.5 588.4 52.5 C 589.8 52.5 589.7 50.1 588.2 50.1 C 588.2 50.1 588.2 50.1 588.2 50.1 Z M 531.5 50.3 C 530.3 50.3 530.3 52.8 531.6 52.7 C 533.0 52.6 536.0 52.3 536.9 52.3 C 537.9 52.4 542.4 52.5 543.1 52.5 C 543.8 52.5 546.4 52.2 547.9 52.4 C 549.4 52.6 550.8 52.2 551.9 52.3 C 553.1 52.4 553.8 52.3 554.8 52.2 C 555.8 52.2 557.3 52.7 558.1 52.5 C 558.9 52.3 559.4 52.5 560.5 52.5 C 561.7 52.5 561.7 50.1 560.6 50.1 C 559.5 50.1 558.6 50.1 557.5 50.2 C 556.4 50.2 555.1 50.3 553.9 50.3 C 552.9 50.3 551.3 50.0 550.0 50.1 C 548.8 50.3 547.0 50.3 546.3 50.4 C 545.4 50.4 543.5 50.3 542.7 50.5 C 541.6 50.6 538.9 50.4 538.1 50.2 C 537.3 50.0 536.7 50.3 535.1 50.2 C 534.1 50.2 532.7 50.2 531.5 50.3 C 531.5 50.3 531.5 50.3 531.5 50.3 Z M 531.1 50.3 C 529.7 50.4 527.7 51.0 527.2 51.1 C 526.7 51.2 525.0 51.4 524.3 51.7 C 523.5 52.0 523.1 52.3 521.7 53.1 C 519.9 54.1 518.7 54.8 518.6 54.8 C 518.3 54.9 517.4 55.4 516.5 56.4 C 515.2 57.9 514.7 58.2 514.4 59.0 C 513.8 60.3 513.5 60.3 513.1 61.3 C 512.6 62.3 512.2 63.1 512.1 63.8 C 512.0 64.6 511.6 65.0 511.5 65.7 C 511.2 66.8 513.7 67.2 513.9 66.2 C 514.0 65.7 513.9 65.1 514.1 64.5 C 514.2 63.9 514.5 63.3 514.9 62.7 C 515.3 62.0 516.0 60.6 516.7 59.7 C 517.5 58.8 518.9 57.5 520.0 56.6 C 521.0 55.7 521.4 54.5 524.3 53.8 C 525.2 53.6 526.5 53.2 527.1 53.1 C 528.2 52.9 530.4 52.8 531.4 52.7 C 532.7 52.6 532.5 50.2 531.1 50.3 C 531.1 50.3 531.1 50.3 531.1 50.3 Z M 513.8 66.4 C 514.0 65.5 511.6 64.9 511.4 66.0 C 511.2 67.2 511.3 70.0 511.2 70.7 C 511.1 71.5 510.5 73.8 510.5 74.6 C 510.5 75.0 510.6 76.1 510.8 77.6 C 510.9 79.0 511.1 81.0 511.0 81.8 C 510.7 83.3 510.9 83.7 510.9 84.7 C 510.9 85.7 511.0 87.4 511.1 88.4 C 511.1 89.3 510.5 90.2 510.6 91.5 C 510.8 92.8 510.6 93.5 510.6 94.3 C 510.6 95.8 513.0 95.7 513.0 94.4 C 513.0 93.1 513.2 92.2 513.1 91.1 C 513.1 90.1 512.8 89.1 513.1 88.1 C 513.3 87.1 513.0 85.1 512.9 83.8 C 512.7 82.6 512.8 81.0 512.9 79.7 C 513.1 77.1 512.8 72.1 513.0 71.5 C 513.3 70.9 513.2 69.1 513.3 68.5 C 513.4 67.9 513.6 67.6 513.8 66.4 C 513.8 66.4 513.8 66.4 513.8 66.4 Z M 510.6 94.7 C 510.6 96.2 510.9 98.6 510.9 99.2 C 510.9 99.8 510.7 101.8 510.8 102.7 C 510.8 103.7 511.0 104.5 511.1 106.5 C 511.1 109.0 510.9 110.3 510.9 110.4 C 510.8 110.7 510.6 111.8 510.8 113.0 C 511.0 114.8 510.8 115.2 511.0 115.9 C 511.4 117.1 511.2 117.2 511.4 118.0 C 511.6 118.9 511.6 119.5 512.0 120.1 C 512.3 120.8 512.2 121.6 512.6 122.4 C 513.2 123.7 515.3 122.4 514.9 121.3 C 514.6 120.7 514.1 120.2 514.0 119.7 C 513.8 119.1 513.7 118.5 513.7 117.9 C 513.7 117.3 513.3 116.1 513.2 115.0 C 513.2 113.9 513.2 111.9 513.1 110.4 C 513.0 108.8 512.4 108.0 512.8 103.7 C 512.9 102.4 512.8 100.6 512.8 99.8 C 512.8 98.4 513.0 95.7 513.0 94.5 C 513.0 93.2 510.6 93.2 510.6 94.7 C 510.6 94.7 510.6 94.7 510.6 94.7 Z M 514.9 121.5 C 514.5 120.5 512.2 121.4 512.8 122.7 C 513.4 124.1 515.7 126.6 516.2 127.2 C 516.8 127.9 518.2 129.9 518.9 130.3 C 519.5 130.8 523.2 132.0 524.4 132.6 C 525.5 133.2 525.9 133.1 526.7 133.3 C 527.6 133.5 529.0 133.5 529.8 133.6 C 530.7 133.6 531.4 134.3 532.7 134.2 C 534.0 134.1 534.7 134.3 535.7 134.4 C 537.3 134.4 537.3 131.9 535.8 131.9 C 534.4 131.9 533.5 131.7 532.5 131.7 C 531.5 131.7 530.6 131.9 529.8 131.5 C 529.0 131.2 527.4 131.2 526.5 131.2 C 525.5 131.1 524.5 130.7 523.7 130.3 C 522.1 129.4 518.4 127.1 518.1 126.5 C 517.8 125.9 516.4 124.5 516.0 123.9 C 515.7 123.3 515.6 122.9 514.9 121.5 C 514.9 121.5 514.9 121.5 514.9 121.5 Z M 542.1 135.1 C 542.1 135.1 542.1 134.9 542.1 133.6 C 542.1 132.3 542.1 131.2 542.1 131.2 C 542.1 131.2 542.1 132.0 542.0 132.0 C 542.0 132.0 542.0 134.4 542.0 134.4 C 542.1 134.4 542.1 135.1 542.1 135.1 C 542.1 135.1 542.1 135.1 542.1 135.1 Z M 542.0 131.2 C 542.0 131.2 541.9 131.8 541.9 133.1 C 541.9 134.5 542.0 135.1 542.0 135.1 C 542.0 135.1 542.0 134.4 542.0 134.4 C 542.1 134.4 542.0 132.0 542.0 132.0 C 542.0 132.0 542.0 131.2 542.0 131.2 C 542.0 131.2 542.0 131.2 542.0 131.2 Z M 542.0 131.2 " fill="#FF7777"></path></g></g><g><clipPath id="clip-197"><path d="M 563.4 88.3 L 691.6 88.3 L 691.6 140.7 L 563.4 140.7 Z M 563.4 88.3 "></path></clipPath><g clip-path="url(#clip-197)"><text xml:space="preserve" font-family="AmericanTypewriter" font-size="30.0" fill="#000000" transform="matrix(1.00, 0.00, -0.00, -1.00, 573.0, 104.0)">S</text><text xml:space="preserve" font-family="AmericanTypewriter" font-size="30.0" fill="#000000" transform="matrix(1.00, 0.00, -0.00, -1.00, 591.2, 104.0)">t</text><text xml:space="preserve" font-family="AmericanTypewriter" font-size="30.0" fill="#000000" transform="matrix(1.00, 0.00, -0.00, -1.00, 603.2, 104.0)">o</text><text xml:space="preserve" font-family="AmericanTypewriter" font-size="30.0" fill="#000000" transform="matrix(1.00, 0.00, -0.00, -1.00, 619.6, 104.0)">r</text><text xml:space="preserve" font-family="AmericanTypewriter" font-size="30.0" fill="#000000" transform="matrix(1.00, 0.00, -0.00, -1.00, 634.3, 104.0)">a</text><text xml:space="preserve" font-family="AmericanTypewriter" font-size="30.0" fill="#000000" transform="matrix(1.00, 0.00, -0.00, -1.00, 651.2, 104.0)">g</text><text xml:space="preserve" font-family="AmericanTypewriter" font-size="30.0" fill="#000000" transform="matrix(1.00, 0.00, -0.00, -1.00, 667.1, 104.0)">e</text></g></g><g><clipPath id="clip-198"><path d="M 256.8 0.1 L 492.7 0.1 L 492.7 99.6 L 256.8 99.6 Z M 256.8 0.1 "></path></clipPath><g clip-path="url(#clip-198)"><image xlink:href="../../14F397CC-C286-42D9-A2F1-53C679F93897/assets/9C11A9BFE2462ACD0C8F53A82701A181.png" width="234.00" height="98.00" transform="matrix(1.00, 0.00, -0.00, -1.00, 257.8, 98.6)" opacity="0.50"></image><path d="M 295.8 90.8 L 453.6 90.8 C 462.3 90.8 466.7 90.8 471.4 89.3 C 476.5 87.5 480.5 83.4 482.3 78.3 C 483.8 73.7 483.8 69.3 483.8 60.5 L 483.8 39.1 C 483.8 30.5 483.8 26.1 482.3 21.4 C 480.5 16.3 476.5 12.3 471.4 10.4 C 466.7 8.9 462.3 8.9 453.5 8.9 L 295.8 8.9 C 287.1 8.9 282.7 8.9 278.1 10.4 C 272.9 12.3 268.9 16.3 267.1 21.4 C 265.6 26.1 265.6 30.5 265.6 39.2 L 265.6 60.6 C 265.6 69.3 265.6 73.7 267.1 78.3 C 268.9 83.4 272.9 87.5 278.1 89.3 C 282.7 90.8 287.1 90.8 295.9 90.8 Z M 295.8 90.8 " fill="#DDF3D0"></path><path d="M 296.4 88.9 C 295.5 88.9 294.3 89.0 294.2 90.4 C 294.0 91.7 295.0 92.8 296.3 92.8 C 297.7 92.8 297.3 92.0 300.5 92.0 C 301.7 92.0 301.8 89.6 300.6 89.6 C 297.7 89.6 298.1 88.9 296.4 88.9 C 296.4 88.9 296.4 88.9 296.4 88.9 Z M 294.7 92.8 C 295.2 92.8 295.6 92.7 295.9 92.7 L 295.9 88.9 C 294.8 89.1 294.4 89.7 294.4 90.8 C 294.3 91.9 294.9 92.5 295.9 92.7 L 295.9 88.9 C 295.5 88.9 295.1 88.9 294.7 88.9 C 292.7 88.9 292.7 89.6 289.9 89.5 C 288.4 89.5 288.6 92.0 289.8 92.0 C 292.8 92.0 292.4 92.8 294.7 92.8 C 294.7 92.8 294.7 92.8 294.7 92.8 Z M 300.6 89.6 C 299.5 89.6 299.4 92.0 300.8 92.0 C 302.3 92.0 305.4 91.6 306.2 91.6 C 307.0 91.7 309.3 92.2 310.1 92.2 C 310.8 92.2 314.3 91.4 315.8 91.6 C 317.2 91.8 317.7 91.7 318.7 91.7 C 319.7 91.7 321.4 91.6 322.3 91.5 C 323.3 91.5 324.2 92.1 325.5 92.0 C 326.8 91.8 327.5 92.0 328.3 92.0 C 329.8 92.0 329.7 89.6 328.4 89.6 C 327.1 89.6 326.2 89.4 325.1 89.5 C 324.0 89.5 323.1 89.8 322.1 89.5 C 321.1 89.3 319.1 89.6 317.8 89.7 C 316.6 89.9 315.2 89.8 314.3 89.7 C 312.3 89.5 307.6 89.9 306.9 89.7 C 306.3 89.5 304.1 89.7 303.4 89.7 C 302.6 89.7 302.2 89.6 300.6 89.6 C 300.6 89.6 300.6 89.6 300.6 89.6 Z M 356.1 92.0 C 357.4 92.0 357.6 89.6 356.1 89.6 C 354.6 89.6 351.8 89.8 351.0 89.8 C 350.1 89.7 346.7 89.6 346.0 89.6 C 345.3 89.6 342.7 89.9 341.2 89.7 C 339.7 89.5 338.3 89.9 337.2 89.8 C 336.0 89.7 335.3 89.8 334.3 89.9 C 333.3 89.9 331.8 89.4 331.0 89.6 C 330.2 89.8 329.7 89.6 328.5 89.6 C 327.4 89.6 327.4 92.0 328.5 92.0 C 329.6 92.0 330.5 92.0 331.6 91.9 C 332.7 91.9 334.0 91.8 335.1 91.8 C 336.2 91.8 337.8 92.1 339.0 92.0 C 340.3 91.8 342.1 91.8 342.8 91.7 C 343.7 91.7 345.6 91.8 346.4 91.6 C 347.5 91.5 349.3 91.7 350.0 91.9 C 350.7 92.1 351.1 91.8 352.6 91.9 C 353.4 91.9 354.8 92.0 356.1 92.0 C 356.1 92.0 356.1 92.0 356.1 92.0 Z M 356.5 92.0 C 358.0 92.0 360.4 91.7 361.0 91.7 C 361.6 91.7 363.6 91.9 364.6 91.8 C 365.5 91.8 365.8 91.6 367.4 91.5 C 369.4 91.5 370.7 91.7 370.8 91.7 C 371.1 91.8 372.0 92.1 373.4 92.0 C 375.1 91.9 375.7 92.1 376.5 92.0 C 377.8 91.7 378.0 92.0 379.0 92.0 C 380.0 91.9 380.7 92.0 381.5 91.9 C 382.4 91.7 383.1 92.1 383.9 92.0 C 385.3 92.0 385.1 89.6 383.9 89.6 C 383.1 89.6 382.5 89.8 381.7 89.8 C 380.9 89.8 380.2 89.8 379.4 89.7 C 378.6 89.6 377.0 89.7 375.7 89.7 C 374.4 89.6 372.3 89.5 370.8 89.5 C 369.3 89.6 368.4 90.2 365.3 89.8 C 364.3 89.7 362.4 89.8 361.6 89.8 C 360.2 89.8 357.5 89.6 356.4 89.6 C 355.0 89.6 355.0 92.0 356.5 92.0 C 356.5 92.0 356.5 92.0 356.5 92.0 Z M 411.8 92.0 C 413.0 92.0 413.3 89.6 411.8 89.6 C 410.2 89.6 407.4 89.8 406.6 89.8 C 405.8 89.7 402.4 89.6 401.6 89.6 C 400.9 89.6 398.3 89.9 396.9 89.7 C 395.4 89.5 393.9 89.9 392.9 89.8 C 391.6 89.7 390.9 89.8 389.9 89.9 C 389.0 89.9 387.5 89.4 386.6 89.6 C 385.8 89.8 385.3 89.6 384.2 89.6 C 383.0 89.6 383.0 92.0 384.1 92.0 C 385.2 92.0 386.2 92.0 387.2 91.9 C 388.3 91.9 389.6 91.8 390.8 91.8 C 391.9 91.8 393.5 92.1 394.7 92.0 C 395.9 91.8 397.7 91.8 398.4 91.7 C 399.3 91.7 401.3 91.8 402.1 91.6 C 403.1 91.5 405.0 91.7 405.6 91.9 C 406.3 92.1 406.8 91.8 408.2 91.9 C 409.1 91.9 410.5 92.0 411.8 92.0 C 411.8 92.0 411.8 92.0 411.8 92.0 Z M 412.2 92.0 C 413.6 92.0 416.1 91.7 416.7 91.7 C 417.3 91.7 419.3 91.9 420.2 91.8 C 421.1 91.8 421.5 91.6 423.1 91.5 C 425.0 91.5 426.3 91.7 426.4 91.7 C 426.7 91.8 427.7 92.1 429.0 92.0 C 430.8 91.9 431.3 92.1 432.1 92.0 C 433.5 91.7 433.6 92.0 434.7 92.0 C 435.7 91.9 436.3 92.0 437.2 91.9 C 438.1 91.7 438.8 92.1 439.6 92.0 C 440.9 92.0 440.8 89.6 439.5 89.6 C 438.8 89.6 438.1 89.8 437.3 89.8 C 436.5 89.8 435.8 89.8 435.0 89.7 C 434.3 89.6 432.6 89.7 431.3 89.7 C 430.1 89.6 427.9 89.5 426.4 89.5 C 424.9 89.6 424.0 90.2 421.0 89.8 C 420.0 89.7 418.0 89.8 417.2 89.8 C 415.9 89.8 413.2 89.6 412.0 89.6 C 410.6 89.6 410.7 92.0 412.2 92.0 C 412.2 92.0 412.2 92.0 412.2 92.0 Z M 468.3 91.3 C 469.4 91.1 469.1 88.7 467.9 88.9 C 466.7 89.1 464.4 89.6 463.6 89.6 C 462.9 89.6 459.3 89.5 458.4 89.5 C 457.6 89.6 454.0 89.9 452.5 89.7 C 451.0 89.5 449.6 89.9 448.5 89.8 C 447.3 89.7 446.6 89.8 445.6 89.9 C 444.6 89.9 443.1 89.4 442.3 89.6 C 441.5 89.8 441.0 89.6 439.8 89.6 C 438.7 89.6 438.7 92.0 439.8 92.0 C 440.9 92.0 441.8 92.0 442.9 91.9 C 444.0 91.9 445.3 91.8 446.5 91.8 C 447.5 91.8 449.1 92.1 450.3 92.0 C 451.6 91.8 453.3 91.8 454.3 91.7 C 455.6 91.7 458.0 91.8 459.0 91.6 C 460.2 91.4 462.1 91.6 462.8 91.8 C 463.5 92.0 463.9 91.7 465.3 91.6 C 466.1 91.6 467.3 91.5 468.3 91.3 C 468.3 91.3 468.3 91.3 468.3 91.3 Z M 468.0 88.9 C 467.2 89.1 467.5 91.5 468.6 91.3 C 469.8 91.0 472.5 89.8 473.3 89.4 C 474.1 89.1 476.4 88.2 477.0 87.8 C 477.6 87.3 479.7 84.3 480.8 83.1 C 481.8 82.0 481.9 81.5 482.4 80.5 C 482.9 79.6 483.3 78.0 483.4 77.2 C 483.6 76.4 484.4 75.8 484.4 74.7 C 484.4 73.6 484.7 73.0 484.8 72.2 C 484.9 71.0 482.4 70.9 482.3 72.0 C 482.2 73.1 482.0 73.8 481.9 74.6 C 481.8 75.4 481.9 76.2 481.4 76.9 C 481.0 77.6 480.6 79.3 480.2 80.4 C 479.8 81.5 479.0 82.5 478.3 83.1 C 477.0 84.4 473.7 87.3 473.1 87.4 C 472.4 87.5 470.7 88.4 470.1 88.6 C 469.6 88.7 469.2 88.7 468.0 88.9 C 468.0 88.9 468.0 88.9 468.0 88.9 Z M 484.8 71.9 C 484.9 70.6 484.7 68.1 484.7 67.4 C 484.7 66.8 484.9 64.4 484.8 63.1 C 484.8 61.9 484.6 61.1 484.6 59.6 C 484.5 57.6 484.7 56.3 484.8 56.2 C 484.8 55.9 485.1 54.9 485.0 53.6 C 484.9 51.8 485.1 51.3 485.0 50.5 C 484.7 49.1 485.0 49.0 485.0 48.0 C 484.9 46.9 485.0 46.3 484.9 45.4 C 484.7 44.5 485.1 43.9 485.0 43.0 C 485.0 41.7 482.6 41.8 482.6 43.1 C 482.6 43.8 482.9 44.5 482.9 45.3 C 482.9 46.1 482.8 46.8 482.7 47.6 C 482.6 48.4 482.7 50.0 482.7 51.3 C 482.6 52.6 482.5 54.7 482.6 56.2 C 482.6 57.7 483.2 57.9 482.8 62.1 C 482.7 63.5 482.8 65.8 482.8 66.7 C 482.7 68.3 482.4 70.9 482.3 71.9 C 482.2 73.0 484.7 73.3 484.8 71.9 C 484.8 71.9 484.8 71.9 484.8 71.9 Z M 480.3 15.4 C 479.5 14.3 477.6 15.8 478.4 16.9 C 479.3 18.0 480.8 20.2 481.0 21.0 C 481.3 21.7 481.8 24.3 481.9 24.8 C 482.0 25.4 482.7 27.4 482.5 28.8 C 482.4 30.1 482.9 31.6 482.8 32.7 C 482.7 34.1 482.8 35.0 482.9 36.2 C 482.9 37.5 482.4 39.5 482.6 40.3 C 482.8 41.1 482.6 41.6 482.6 42.8 C 482.6 43.9 485.0 43.9 485.0 42.8 C 485.0 41.7 485.0 40.8 484.9 39.7 C 484.9 38.6 484.9 36.6 484.8 35.1 C 484.8 33.8 485.1 32.0 484.9 30.8 C 484.7 29.5 484.5 27.8 484.4 27.2 C 484.3 26.4 484.2 24.7 483.9 24.1 C 483.6 23.3 483.4 21.7 483.4 21.1 C 483.5 20.5 483.0 20.0 482.3 18.6 C 481.9 17.8 481.2 16.5 480.3 15.4 C 480.3 15.4 480.3 15.4 480.3 15.4 Z M 480.1 15.1 C 479.1 13.9 476.9 12.4 476.4 12.1 C 475.9 11.7 474.2 10.5 473.3 10.1 C 472.3 9.7 471.9 9.7 470.6 9.4 C 469.0 9.0 468.0 8.7 467.9 8.6 C 467.7 8.5 466.9 8.1 465.7 8.1 C 464.1 8.0 463.6 7.8 462.8 7.8 C 461.4 8.1 461.3 7.8 460.1 7.8 C 458.9 7.8 458.1 7.7 457.1 7.9 C 455.9 8.0 455.0 7.7 453.8 7.7 C 452.9 7.7 452.8 8.3 452.8 8.9 C 452.8 9.5 453.0 10.2 453.9 10.2 C 455.0 10.2 455.9 9.9 456.9 9.9 C 457.9 9.9 458.7 10.0 459.6 10.1 C 460.5 10.2 462.2 10.1 463.4 10.2 C 464.6 10.3 466.4 10.6 467.5 10.8 C 468.7 10.9 469.2 10.2 471.7 11.7 C 472.6 12.1 474.2 12.9 474.8 13.3 C 475.9 14.1 477.6 15.9 478.3 16.7 C 479.1 17.7 481.1 16.3 480.1 15.1 C 480.1 15.1 480.1 15.1 480.1 15.1 Z M 425.9 7.7 C 424.6 7.7 424.4 10.2 425.9 10.2 C 427.4 10.2 430.2 9.9 431.0 10.0 C 431.9 10.0 435.3 10.2 436.0 10.2 C 436.7 10.2 439.3 9.8 440.8 10.0 C 442.3 10.2 443.8 9.8 444.8 9.9 C 446.1 10.1 446.7 9.9 447.7 9.9 C 448.7 9.8 450.2 10.3 451.0 10.1 C 451.8 9.9 452.3 10.2 453.5 10.2 C 454.6 10.2 455.1 7.7 453.5 7.7 C 451.9 7.7 451.5 7.8 450.4 7.8 C 449.3 7.9 448.0 7.9 446.9 7.9 C 445.8 7.9 444.2 7.6 443.0 7.8 C 441.7 7.9 439.9 8.0 439.2 8.0 C 438.3 8.0 436.4 8.0 435.6 8.1 C 434.5 8.3 432.7 8.0 432.0 7.8 C 431.4 7.6 430.9 7.9 429.4 7.8 C 428.6 7.8 427.2 7.7 425.9 7.7 C 425.9 7.7 425.9 7.7 425.9 7.7 Z M 425.5 7.7 C 424.0 7.7 421.6 8.0 421.0 8.0 C 420.4 8.0 418.4 7.8 417.5 7.9 C 416.5 8.0 416.2 8.1 414.6 8.2 C 412.6 8.3 411.3 8.0 411.2 8.0 C 410.9 7.9 410.0 7.7 408.7 7.7 C 406.9 7.8 406.3 7.6 405.5 7.7 C 404.2 8.0 404.0 7.7 403.0 7.8 C 402.0 7.8 401.3 7.7 400.5 7.9 C 399.6 8.0 398.9 7.7 398.1 7.7 C 396.7 7.7 396.9 10.2 398.1 10.2 C 398.9 10.2 399.5 9.9 400.3 9.9 C 401.1 9.9 401.8 9.9 402.6 10.0 C 403.4 10.2 405.0 10.0 406.3 10.0 C 407.6 10.1 409.7 10.2 411.2 10.2 C 412.7 10.1 413.6 9.6 416.7 9.9 C 417.7 10.1 419.6 10.0 420.4 10.0 C 421.8 10.0 424.5 10.1 425.6 10.1 C 427.0 10.1 427.0 7.7 425.5 7.7 C 425.5 7.7 425.5 7.7 425.5 7.7 Z M 370.2 7.7 C 369.0 7.7 368.7 10.2 370.2 10.2 C 371.8 10.2 374.6 9.9 375.4 10.0 C 376.2 10.0 379.6 10.2 380.4 10.2 C 381.1 10.2 383.7 9.8 385.2 10.0 C 386.6 10.2 388.1 9.8 389.1 9.9 C 390.4 10.1 391.1 9.9 392.1 9.9 C 393.0 9.8 394.5 10.3 395.4 10.1 C 396.2 9.9 396.7 10.2 397.8 10.2 C 399.0 10.2 399.0 7.7 397.9 7.7 C 396.8 7.7 395.9 7.8 394.8 7.8 C 393.7 7.9 392.4 7.9 391.2 7.9 C 390.1 7.9 388.6 7.6 387.3 7.8 C 386.1 7.9 384.3 8.0 383.6 8.0 C 382.7 8.0 380.8 8.0 379.9 8.1 C 378.9 8.3 377.0 8.0 376.4 7.8 C 375.7 7.6 375.2 7.9 373.8 7.8 C 372.9 7.8 371.5 7.7 370.2 7.7 C 370.2 7.7 370.2 7.7 370.2 7.7 Z M 370.1 10.2 C 371.2 10.2 371.3 7.7 369.9 7.7 C 368.5 7.7 365.3 8.1 364.5 8.1 C 363.7 8.0 361.4 7.6 360.7 7.6 C 359.9 7.6 356.5 8.3 355.0 8.1 C 353.5 7.9 353.0 8.0 352.0 8.0 C 351.0 8.0 349.3 8.1 348.4 8.2 C 347.4 8.3 346.5 7.6 345.2 7.8 C 343.9 8.0 343.2 7.7 342.4 7.7 C 341.0 7.7 341.0 10.1 342.4 10.1 C 343.6 10.1 344.5 10.3 345.6 10.3 C 346.7 10.2 347.6 9.9 348.6 10.2 C 349.7 10.5 351.6 10.2 352.9 10.0 C 354.1 9.9 355.5 9.9 356.5 10.0 C 358.4 10.2 363.1 9.8 363.8 10.0 C 364.4 10.2 366.6 10.0 367.3 10.0 C 368.1 10.0 368.5 10.2 370.1 10.2 C 370.1 10.2 370.1 10.2 370.1 10.2 Z M 342.0 7.7 C 340.5 7.7 338.1 8.0 337.5 8.0 C 336.9 8.0 334.9 7.8 334.0 7.9 C 333.0 8.0 332.7 8.1 331.1 8.2 C 329.1 8.3 327.8 8.0 327.8 8.0 C 327.5 7.9 326.5 7.7 325.2 7.7 C 323.4 7.8 322.9 7.6 322.1 7.7 C 320.7 8.0 320.6 7.7 319.5 7.8 C 318.5 7.8 317.8 7.7 317.0 7.9 C 316.1 8.0 315.4 7.7 314.6 7.7 C 313.3 7.7 313.4 10.2 314.6 10.2 C 315.4 10.2 316.1 9.9 316.9 9.9 C 317.7 9.9 318.3 9.9 319.1 10.0 C 319.9 10.2 321.5 10.0 322.8 10.0 C 324.1 10.1 326.3 10.2 327.8 10.2 C 329.2 10.1 330.2 9.6 333.2 9.9 C 334.2 10.1 336.1 10.0 336.9 10.0 C 338.3 10.0 341.0 10.1 342.2 10.1 C 343.6 10.1 343.5 7.7 342.0 7.7 C 342.0 7.7 342.0 7.7 342.0 7.7 Z M 285.3 7.9 C 284.1 8.0 284.1 10.4 285.4 10.3 C 286.8 10.2 289.8 9.9 290.7 10.0 C 291.7 10.0 296.2 10.2 296.9 10.2 C 297.6 10.2 300.2 9.8 301.7 10.0 C 303.2 10.2 304.6 9.8 305.7 9.9 C 306.9 10.1 307.6 9.9 308.6 9.9 C 309.6 9.8 311.1 10.3 311.9 10.1 C 312.7 9.9 313.2 10.2 314.3 10.2 C 315.5 10.2 315.5 7.7 314.4 7.7 C 313.3 7.7 312.4 7.8 311.3 7.8 C 310.2 7.9 308.9 7.9 307.7 7.9 C 306.7 7.9 305.1 7.6 303.8 7.8 C 302.6 7.9 300.8 8.0 300.1 8.0 C 299.2 8.0 297.3 8.0 296.5 8.1 C 295.4 8.3 292.7 8.0 291.9 7.8 C 291.1 7.6 290.5 7.9 288.9 7.9 C 287.9 7.9 286.5 7.8 285.3 7.9 C 285.3 7.9 285.3 7.9 285.3 7.9 Z M 284.9 7.9 C 283.5 8.0 281.5 8.7 281.0 8.7 C 280.5 8.8 278.8 9.0 278.1 9.3 C 277.3 9.6 276.9 9.9 275.5 10.7 C 273.7 11.8 272.5 12.4 272.4 12.5 C 272.1 12.6 271.2 13.0 270.3 14.1 C 269.0 15.5 268.5 15.9 268.2 16.6 C 267.6 18.0 267.3 18.0 266.9 19.0 C 266.4 20.0 266.0 20.7 265.9 21.4 C 265.8 22.2 265.4 22.7 265.3 23.4 C 265.0 24.5 267.5 24.8 267.7 23.9 C 267.8 23.3 267.7 22.7 267.8 22.1 C 268.0 21.6 268.3 21.0 268.7 20.3 C 269.1 19.7 269.8 18.3 270.5 17.4 C 271.3 16.4 272.7 15.1 273.8 14.2 C 274.8 13.3 275.2 12.2 278.1 11.5 C 279.0 11.3 280.3 10.9 280.9 10.7 C 282.0 10.5 284.2 10.4 285.2 10.3 C 286.5 10.3 286.3 7.8 284.9 7.9 C 284.9 7.9 284.9 7.9 284.9 7.9 Z M 267.6 24.0 C 267.8 23.2 265.4 22.5 265.2 23.6 C 265.0 24.8 265.1 27.6 265.0 28.4 C 264.9 29.1 264.3 31.4 264.3 32.2 C 264.3 32.6 264.4 33.8 264.6 35.2 C 264.7 36.6 264.9 38.7 264.8 39.4 C 264.5 40.9 264.7 41.3 264.7 42.4 C 264.7 43.4 264.8 45.0 264.9 46.0 C 264.9 47.0 264.3 47.9 264.4 49.1 C 264.6 50.4 264.4 51.1 264.4 52.0 C 264.4 53.4 266.8 53.3 266.8 52.0 C 266.8 50.7 267.0 49.9 266.9 48.8 C 266.9 47.7 266.6 46.8 266.9 45.7 C 267.1 44.7 266.8 42.7 266.7 41.5 C 266.5 40.2 266.6 38.7 266.7 37.4 C 266.9 34.7 266.6 29.8 266.8 29.2 C 267.1 28.6 267.0 26.7 267.1 26.1 C 267.2 25.5 267.4 25.2 267.6 24.0 C 267.6 24.0 267.6 24.0 267.6 24.0 Z M 264.4 52.3 C 264.4 53.8 264.7 56.3 264.7 56.9 C 264.7 57.4 264.5 59.4 264.6 60.4 C 264.6 61.3 264.8 62.1 264.9 64.1 C 264.9 66.7 264.7 68.0 264.7 68.1 C 264.6 68.4 264.4 69.4 264.6 70.7 C 264.8 72.4 264.6 72.9 264.8 73.5 C 265.2 74.7 265.0 74.8 265.2 75.7 C 265.4 76.5 265.4 77.1 265.8 77.7 C 266.1 78.4 266.0 79.2 266.4 80.0 C 267.0 81.3 269.1 80.1 268.7 79.0 C 268.4 78.3 267.9 77.9 267.8 77.3 C 267.6 76.7 267.5 76.2 267.5 75.5 C 267.5 74.9 267.1 73.7 267.0 72.6 C 267.0 71.5 267.0 69.6 266.9 68.0 C 266.8 66.5 266.2 65.7 266.6 61.4 C 266.7 60.0 266.6 58.2 266.6 57.4 C 266.6 56.0 266.8 53.3 266.8 52.2 C 266.8 50.8 264.4 50.8 264.4 52.3 C 264.4 52.3 264.4 52.3 264.4 52.3 Z M 268.7 79.2 C 268.3 78.2 266.0 79.0 266.6 80.4 C 267.2 81.8 269.5 84.2 270.0 84.9 C 270.6 85.6 272.0 87.5 272.7 88.0 C 273.3 88.4 277.0 89.7 278.2 90.2 C 279.3 90.8 279.7 90.8 280.5 90.9 C 281.4 91.1 282.8 91.2 283.6 91.2 C 284.5 91.2 285.2 92.0 286.5 91.8 C 287.8 91.7 288.5 92.0 289.5 92.0 C 291.1 92.0 291.1 89.6 289.6 89.6 C 288.2 89.5 287.3 89.3 286.3 89.3 C 285.3 89.3 284.4 89.5 283.6 89.2 C 282.8 88.8 281.2 88.9 280.3 88.8 C 279.3 88.7 278.3 88.4 277.5 87.9 C 275.9 87.0 272.2 84.7 271.9 84.1 C 271.6 83.5 270.2 82.1 269.8 81.5 C 269.4 80.9 269.4 80.5 268.7 79.2 C 268.7 79.2 268.7 79.2 268.7 79.2 Z M 295.9 92.7 C 295.9 92.7 295.9 92.6 295.9 91.3 C 295.9 89.9 295.9 88.9 295.9 88.9 C 295.9 88.9 295.9 89.6 295.8 89.6 C 295.8 89.6 295.8 92.0 295.8 92.0 C 295.9 92.0 295.9 92.7 295.9 92.7 C 295.9 92.7 295.9 92.7 295.9 92.7 Z M 295.8 88.9 C 295.8 88.9 295.7 89.5 295.7 90.8 C 295.7 92.1 295.8 92.8 295.8 92.8 C 295.8 92.8 295.8 92.0 295.8 92.1 C 295.9 92.1 295.8 89.6 295.8 89.6 C 295.8 89.6 295.8 88.9 295.8 88.9 C 295.8 88.9 295.8 88.9 295.8 88.9 Z M 295.8 88.9 " fill="#FF7777"></path></g></g><g><clipPath id="clip-199"><path d="M 294.4 46.0 L 468.2 46.0 L 468.2 98.3 L 294.4 98.3 Z M 294.4 46.0 "></path></clipPath><g clip-path="url(#clip-199)"><text xml:space="preserve" font-family="AmericanTypewriter" font-size="30.0" fill="#000000" transform="matrix(1.00, 0.00, -0.00, -1.00, 304.0, 62.0)">S</text><text xml:space="preserve" font-family="AmericanTypewriter" font-size="30.0" fill="#000000" transform="matrix(1.00, 0.00, -0.00, -1.00, 322.6, 62.0)">u</text><text xml:space="preserve" font-family="AmericanTypewriter" font-size="30.0" fill="#000000" transform="matrix(1.00, 0.00, -0.00, -1.00, 341.1, 62.0)">p</text><text xml:space="preserve" font-family="AmericanTypewriter" font-size="30.0" fill="#000000" transform="matrix(1.00, 0.00, -0.00, -1.00, 359.1, 62.0)">e</text><text xml:space="preserve" font-family="AmericanTypewriter" font-size="30.0" fill="#000000" transform="matrix(1.00, 0.00, -0.00, -1.00, 375.0, 62.0)">r</text><text xml:space="preserve" font-family="AmericanTypewriter" font-size="30.0" fill="#000000" transform="matrix(1.00, 0.00, -0.00, -1.00, 390.1, 62.0)">n</text><text xml:space="preserve" font-family="AmericanTypewriter" font-size="30.0" fill="#000000" transform="matrix(1.00, 0.00, -0.00, -1.00, 409.2, 62.0)">o</text><text xml:space="preserve" font-family="AmericanTypewriter" font-size="30.0" fill="#000000" transform="matrix(1.00, 0.00, -0.00, -1.00, 425.6, 62.0)">d</text><text xml:space="preserve" font-family="AmericanTypewriter" font-size="30.0" fill="#000000" transform="matrix(1.00, 0.00, -0.00, -1.00, 443.6, 62.0)">e</text></g></g><g><clipPath id="clip-200"><path d="M 0.8 1.5 L 246.4 1.5 L 246.4 101.1 L 0.8 101.1 Z M 0.8 1.5 "></path></clipPath><g clip-path="url(#clip-200)"><image xlink:href="98961CEBA3011B16EA6746B65FFE98A4.png" width="244.00" height="98.00" transform="matrix(1.00, 0.00, -0.00, -1.00, 1.8, 100.1)" opacity="0.50"></image><path d="M 42.7 92.2 L 204.5 92.2 C 214.0 92.2 218.8 92.2 223.9 90.6 C 229.5 88.6 234.0 84.2 236.0 78.6 C 237.6 73.4 237.6 68.6 237.6 59.0 L 237.6 43.4 C 237.6 33.9 237.6 29.1 236.0 24.0 C 234.0 18.4 229.5 14.0 223.9 12.0 C 218.8 10.3 214.0 10.3 204.4 10.3 L 42.7 10.3 C 33.2 10.3 28.4 10.3 23.3 12.0 C 17.7 14.0 13.3 18.4 11.2 24.0 C 9.6 29.1 9.6 33.9 9.6 43.6 L 9.6 59.1 C 9.6 68.6 9.6 73.4 11.2 78.6 C 13.3 84.2 17.7 88.6 23.3 90.6 C 28.4 92.2 33.2 92.2 42.8 92.2 Z M 42.7 92.2 " fill="#DDF3D0"></path><path d="M 43.4 90.3 C 42.4 90.3 41.2 90.4 41.1 91.8 C 40.9 93.1 41.9 94.2 43.3 94.2 C 44.6 94.2 44.2 93.4 47.4 93.4 C 48.6 93.4 48.7 91.0 47.5 91.0 C 44.6 91.0 45.0 90.3 43.4 90.3 C 43.4 90.3 43.4 90.3 43.4 90.3 Z M 41.7 94.2 C 42.1 94.2 42.5 94.1 42.8 94.1 L 42.8 90.3 C 41.8 90.5 41.3 91.1 41.3 92.2 C 41.3 93.3 41.9 93.9 42.8 94.1 L 42.8 90.3 C 42.5 90.3 42.1 90.3 41.7 90.3 C 39.6 90.3 39.6 91.0 36.8 91.0 C 35.2 90.9 35.5 93.4 36.7 93.4 C 39.8 93.4 39.4 94.2 41.7 94.2 C 41.7 94.2 41.7 94.2 41.7 94.2 Z M 47.6 91.0 C 46.4 91.0 46.3 93.4 47.7 93.4 C 49.2 93.4 52.5 93.0 53.3 93.1 C 54.2 93.1 56.5 93.6 57.3 93.6 C 58.0 93.6 61.6 92.9 63.1 93.1 C 64.7 93.3 65.1 93.2 66.2 93.2 C 67.2 93.2 68.9 93.0 69.9 92.9 C 70.9 92.9 71.8 93.5 73.1 93.4 C 74.5 93.2 75.2 93.4 76.1 93.4 C 77.5 93.4 77.5 91.0 76.1 91.0 C 74.8 91.0 73.9 90.8 72.8 90.9 C 71.7 90.9 70.7 91.2 69.6 90.9 C 68.6 90.7 66.5 91.0 65.3 91.1 C 64.0 91.3 62.6 91.2 61.6 91.1 C 59.6 90.9 54.7 91.4 54.1 91.2 C 53.4 90.9 51.2 91.1 50.4 91.1 C 49.6 91.1 49.2 91.0 47.6 91.0 C 47.6 91.0 47.6 91.0 47.6 91.0 Z M 104.7 93.4 C 106.0 93.4 106.2 91.0 104.7 91.0 C 103.1 91.0 100.2 91.2 99.4 91.2 C 98.5 91.1 95.0 91.0 94.2 91.0 C 93.5 91.0 90.9 91.3 89.3 91.1 C 87.8 90.9 86.3 91.3 85.2 91.2 C 83.9 91.1 83.2 91.2 82.2 91.3 C 81.2 91.3 79.7 90.8 78.8 91.0 C 78.0 91.2 77.5 91.0 76.3 91.0 C 75.1 91.0 75.1 93.4 76.2 93.4 C 77.3 93.4 78.3 93.4 79.4 93.3 C 80.5 93.3 81.9 93.3 83.1 93.3 C 84.2 93.3 85.8 93.6 87.1 93.4 C 88.4 93.2 90.2 93.2 90.9 93.2 C 91.9 93.1 93.8 93.2 94.7 93.1 C 95.8 92.9 97.7 93.1 98.4 93.3 C 99.0 93.6 99.5 93.3 101.0 93.3 C 101.9 93.3 103.3 93.4 104.7 93.4 C 104.7 93.4 104.7 93.4 104.7 93.4 Z M 105.1 93.4 C 106.6 93.4 109.1 93.1 109.7 93.1 C 110.3 93.1 112.4 93.3 113.4 93.3 C 114.3 93.2 114.6 93.0 116.3 93.0 C 118.3 92.9 119.7 93.1 119.8 93.2 C 120.0 93.2 121.0 93.5 122.4 93.4 C 124.2 93.3 124.8 93.5 125.6 93.4 C 127.0 93.2 127.2 93.4 128.2 93.4 C 129.3 93.3 130.0 93.4 130.8 93.3 C 131.8 93.1 132.4 93.5 133.3 93.4 C 134.7 93.4 134.5 91.0 133.3 91.0 C 132.5 91.0 131.8 91.3 131.0 91.3 C 130.2 91.3 129.4 91.2 128.6 91.1 C 127.8 91.0 126.1 91.2 124.8 91.1 C 123.5 91.0 121.3 90.9 119.8 91.0 C 118.2 91.0 117.3 91.6 114.1 91.2 C 113.1 91.1 111.1 91.2 110.3 91.2 C 108.9 91.2 106.1 91.0 104.9 91.0 C 103.5 91.0 103.5 93.4 105.1 93.4 C 105.1 93.4 105.1 93.4 105.1 93.4 Z M 161.9 93.4 C 163.3 93.4 163.5 91.0 161.9 91.0 C 160.4 91.0 157.5 91.2 156.6 91.2 C 155.8 91.1 152.3 91.0 151.5 91.0 C 150.8 91.0 148.1 91.3 146.6 91.1 C 145.1 90.9 143.6 91.3 142.5 91.2 C 141.2 91.1 140.5 91.2 139.5 91.3 C 138.5 91.3 136.9 90.8 136.1 91.0 C 135.2 91.2 134.8 91.0 133.6 91.0 C 132.4 91.0 132.4 93.4 133.5 93.4 C 134.6 93.4 135.6 93.4 136.7 93.3 C 137.8 93.3 139.2 93.3 140.4 93.3 C 141.5 93.3 143.1 93.6 144.4 93.4 C 145.6 93.2 147.5 93.2 148.2 93.2 C 149.2 93.1 151.1 93.2 152.0 93.1 C 153.1 92.9 154.9 93.1 155.6 93.3 C 156.3 93.6 156.8 93.3 158.3 93.3 C 159.2 93.3 160.6 93.4 161.9 93.4 C 161.9 93.4 161.9 93.4 161.9 93.4 Z M 162.3 93.4 C 163.9 93.4 166.4 93.1 167.0 93.1 C 167.6 93.1 169.7 93.3 170.6 93.3 C 171.6 93.2 171.9 93.0 173.6 93.0 C 175.6 92.9 176.9 93.1 177.0 93.2 C 177.3 93.2 178.3 93.5 179.7 93.4 C 181.5 93.3 182.1 93.5 182.9 93.4 C 184.3 93.2 184.4 93.4 185.5 93.4 C 186.6 93.3 187.2 93.4 188.1 93.3 C 189.0 93.1 189.7 93.5 190.6 93.4 C 192.0 93.4 191.8 91.0 190.5 91.0 C 189.8 91.0 189.1 91.3 188.3 91.3 C 187.4 91.3 186.7 91.2 185.9 91.1 C 185.1 91.0 183.4 91.2 182.1 91.1 C 180.8 91.0 178.6 90.9 177.0 91.0 C 175.5 91.0 174.6 91.6 171.4 91.2 C 170.4 91.1 168.4 91.2 167.6 91.2 C 166.2 91.2 163.4 91.0 162.2 91.0 C 160.8 91.0 160.8 93.4 162.3 93.4 C 162.3 93.4 162.3 93.4 162.3 93.4 Z M 220.3 92.7 C 221.4 92.6 221.1 90.1 219.9 90.3 C 218.7 90.5 216.2 91.0 215.4 91.0 C 214.7 91.0 211.0 90.9 210.1 91.0 C 209.3 91.0 205.4 91.3 203.9 91.1 C 202.3 90.9 200.8 91.3 199.8 91.2 C 198.5 91.1 197.8 91.2 196.8 91.3 C 195.8 91.3 194.2 90.8 193.4 91.0 C 192.5 91.2 192.0 91.0 190.8 91.0 C 189.6 91.0 189.7 93.4 190.8 93.4 C 191.9 93.4 192.9 93.4 194.0 93.3 C 195.1 93.3 196.4 93.3 197.6 93.3 C 198.7 93.3 200.4 93.6 201.6 93.4 C 202.9 93.2 204.9 93.2 205.9 93.2 C 207.2 93.1 209.7 93.2 210.7 93.0 C 211.9 92.8 213.9 93.0 214.6 93.2 C 215.3 93.4 215.7 93.1 217.1 93.0 C 217.9 93.0 219.2 92.9 220.3 92.7 C 220.3 92.7 220.3 92.7 220.3 92.7 Z M 220.0 90.3 C 219.1 90.5 219.4 92.9 220.6 92.7 C 221.8 92.5 224.4 91.3 225.2 91.0 C 226.1 90.7 228.5 89.9 229.1 89.5 C 229.8 89.0 232.1 86.1 233.3 85.0 C 234.5 83.9 234.6 83.4 235.2 82.4 C 235.7 81.5 236.4 79.8 236.7 78.8 C 237.0 77.8 237.7 77.4 237.8 76.3 C 237.9 75.2 238.2 74.6 238.3 73.9 C 238.5 72.6 236.0 72.4 235.9 73.5 C 235.7 74.6 235.5 75.2 235.3 76.0 C 235.2 76.9 235.3 77.5 234.7 78.4 C 234.1 79.2 233.5 81.0 233.0 82.1 C 232.5 83.2 231.6 84.2 230.8 84.8 C 229.4 86.0 225.8 88.9 225.2 88.9 C 224.5 89.0 222.8 89.8 222.2 90.0 C 221.6 90.1 221.3 90.1 220.0 90.3 C 220.0 90.3 220.0 90.3 220.0 90.3 Z M 238.3 73.6 C 238.5 72.2 238.3 69.9 238.4 69.3 C 238.4 68.7 238.7 66.5 238.6 65.4 C 238.6 64.3 238.4 64.0 238.3 61.8 C 238.3 59.1 238.5 57.6 238.6 57.5 C 238.6 57.2 238.9 56.2 238.8 54.9 C 238.7 53.0 238.9 52.5 238.8 51.7 C 238.5 50.3 238.8 50.1 238.8 49.1 C 238.7 48.0 238.8 47.3 238.7 46.5 C 238.5 45.5 238.9 44.8 238.8 44.0 C 238.8 42.6 236.4 42.7 236.4 44.0 C 236.4 44.8 236.6 45.5 236.6 46.3 C 236.6 47.1 236.6 47.8 236.5 48.6 C 236.4 49.5 236.5 51.1 236.5 52.5 C 236.4 53.8 236.3 56.0 236.4 57.5 C 236.4 59.0 237.0 60.7 236.6 64.5 C 236.5 65.7 236.5 67.8 236.5 68.6 C 236.4 70.0 236.0 72.4 235.9 73.4 C 235.8 74.5 238.2 74.9 238.3 73.6 C 238.3 73.6 238.3 73.6 238.3 73.6 Z M 232.4 16.0 C 231.4 15.0 229.6 16.7 230.6 17.7 C 231.7 18.8 233.4 20.9 233.7 21.6 C 234.1 22.3 235.1 25.3 235.2 25.8 C 235.4 26.4 236.1 28.3 236.1 29.6 C 236.0 30.9 236.5 32.2 236.5 33.2 C 236.4 34.5 236.6 35.2 236.6 36.3 C 236.7 37.4 236.2 39.3 236.4 40.4 C 236.6 41.5 236.4 42.5 236.4 43.7 C 236.4 44.9 238.8 44.9 238.8 43.8 C 238.8 42.7 238.8 41.0 238.7 39.6 C 238.7 38.2 238.6 36.6 238.6 35.3 C 238.6 34.1 238.8 32.5 238.5 31.3 C 238.3 30.2 238.0 28.6 237.9 28.0 C 237.7 27.2 237.5 25.6 237.1 24.9 C 236.7 24.1 236.3 22.2 236.1 21.5 C 236.0 20.7 235.5 20.4 234.7 19.1 C 234.2 18.3 233.4 17.0 232.4 16.0 C 232.4 16.0 232.4 16.0 232.4 16.0 Z M 232.1 15.7 C 231.0 14.6 228.6 13.3 228.1 13.0 C 227.5 12.6 225.7 11.5 224.7 11.2 C 223.8 10.8 223.5 11.0 222.2 10.7 C 220.5 10.4 219.5 10.0 219.4 10.0 C 219.1 9.8 218.3 9.5 217.1 9.4 C 215.4 9.4 214.9 9.2 214.0 9.2 C 212.6 9.5 212.4 9.2 211.2 9.2 C 210.0 9.3 209.2 9.1 208.1 9.3 C 206.9 9.4 206.0 9.1 204.7 9.1 C 203.7 9.1 203.6 9.7 203.6 10.3 C 203.7 11.0 203.8 11.6 204.8 11.6 C 205.9 11.6 206.8 11.3 207.9 11.3 C 208.9 11.3 209.8 11.4 210.7 11.5 C 211.7 11.6 213.4 11.5 214.7 11.6 C 216.0 11.7 217.8 12.0 219.1 12.1 C 220.3 12.3 221.1 11.8 223.4 12.9 C 224.1 13.2 225.9 13.9 226.6 14.3 C 227.8 15.0 229.7 16.8 230.5 17.5 C 231.4 18.5 233.2 16.8 232.1 15.7 C 232.1 15.7 232.1 15.7 232.1 15.7 Z M 176.0 9.1 C 174.6 9.1 174.4 11.6 176.0 11.6 C 177.5 11.6 180.4 11.3 181.3 11.4 C 182.1 11.4 185.6 11.6 186.4 11.6 C 187.1 11.6 189.8 11.2 191.3 11.4 C 192.8 11.6 194.3 11.2 195.4 11.3 C 196.7 11.5 197.4 11.3 198.4 11.3 C 199.4 11.2 201.0 11.7 201.8 11.5 C 202.7 11.3 203.2 11.6 204.3 11.6 C 205.5 11.6 206.1 9.1 204.4 9.1 C 202.8 9.1 202.3 9.2 201.2 9.2 C 200.1 9.3 198.7 9.3 197.5 9.3 C 196.4 9.3 194.8 9.0 193.5 9.2 C 192.3 9.3 190.4 9.4 189.7 9.4 C 188.8 9.4 186.8 9.4 185.9 9.5 C 184.8 9.7 183.0 9.4 182.3 9.2 C 181.6 9.0 181.1 9.3 179.6 9.3 C 178.7 9.2 177.3 9.1 176.0 9.1 C 176.0 9.1 176.0 9.1 176.0 9.1 Z M 175.6 9.1 C 174.0 9.1 171.5 9.4 170.9 9.4 C 170.3 9.4 168.2 9.3 167.3 9.3 C 166.3 9.4 166.0 9.6 164.3 9.6 C 162.3 9.7 161.0 9.4 160.9 9.4 C 160.6 9.3 159.6 9.1 158.2 9.1 C 156.4 9.3 155.8 9.0 155.0 9.1 C 153.6 9.4 153.5 9.1 152.4 9.2 C 151.3 9.2 150.7 9.1 149.8 9.3 C 148.9 9.4 148.2 9.1 147.3 9.1 C 146.0 9.1 146.1 11.6 147.4 11.6 C 148.1 11.6 148.8 11.3 149.7 11.3 C 150.5 11.3 151.2 11.4 152.0 11.5 C 152.8 11.6 154.5 11.4 155.8 11.5 C 157.1 11.5 159.3 11.7 160.9 11.6 C 162.4 11.6 163.3 11.0 166.5 11.4 C 167.5 11.5 169.5 11.4 170.3 11.4 C 171.8 11.4 174.5 11.6 175.7 11.6 C 177.1 11.6 177.1 9.1 175.6 9.1 C 175.6 9.1 175.6 9.1 175.6 9.1 Z M 118.7 9.1 C 117.4 9.1 117.1 11.6 118.7 11.6 C 120.3 11.6 123.1 11.3 124.0 11.4 C 124.8 11.4 128.4 11.6 129.1 11.6 C 129.8 11.6 132.5 11.2 134.0 11.4 C 135.6 11.6 137.1 11.2 138.1 11.3 C 139.4 11.5 140.1 11.3 141.1 11.3 C 142.1 11.2 143.7 11.7 144.5 11.5 C 145.4 11.3 145.9 11.6 147.1 11.6 C 148.3 11.6 148.3 9.1 147.1 9.1 C 146.0 9.1 145.0 9.2 143.9 9.2 C 142.8 9.3 141.5 9.3 140.3 9.3 C 139.2 9.3 137.5 9.0 136.3 9.2 C 135.0 9.3 133.1 9.4 132.4 9.4 C 131.5 9.4 129.5 9.4 128.7 9.5 C 127.6 9.7 125.7 9.4 125.0 9.2 C 124.3 9.0 123.8 9.3 122.3 9.3 C 121.4 9.2 120.0 9.1 118.7 9.1 C 118.7 9.1 118.7 9.1 118.7 9.1 Z M 118.5 11.6 C 119.7 11.6 119.7 9.1 118.3 9.1 C 116.8 9.1 113.6 9.6 112.8 9.5 C 111.9 9.5 109.6 9.0 108.8 9.0 C 108.1 9.0 104.5 9.7 102.9 9.5 C 101.4 9.3 101.0 9.4 99.9 9.4 C 98.9 9.4 97.2 9.6 96.2 9.6 C 95.2 9.7 94.3 9.0 92.9 9.2 C 91.6 9.4 90.9 9.1 90.0 9.1 C 88.5 9.1 88.6 11.6 90.0 11.6 C 91.3 11.6 92.2 11.7 93.3 11.7 C 94.4 11.6 95.4 11.4 96.4 11.6 C 97.5 11.9 99.5 11.6 100.8 11.4 C 102.1 11.3 103.5 11.4 104.5 11.5 C 106.5 11.7 111.3 11.2 112.0 11.4 C 112.7 11.6 114.9 11.4 115.7 11.4 C 116.5 11.4 116.9 11.6 118.5 11.6 C 118.5 11.6 118.5 11.6 118.5 11.6 Z M 89.6 9.1 C 88.1 9.1 85.6 9.4 85.0 9.4 C 84.4 9.4 82.3 9.3 81.4 9.3 C 80.4 9.4 80.1 9.6 78.4 9.6 C 76.4 9.7 75.0 9.4 75.0 9.4 C 74.7 9.3 73.7 9.1 72.3 9.1 C 70.5 9.3 69.9 9.0 69.1 9.1 C 67.7 9.4 67.6 9.1 66.5 9.2 C 65.4 9.2 64.7 9.1 63.9 9.3 C 62.9 9.4 62.3 9.1 61.4 9.1 C 60.0 9.1 60.2 11.6 61.4 11.6 C 62.2 11.6 62.9 11.3 63.7 11.3 C 64.6 11.3 65.3 11.4 66.1 11.5 C 66.9 11.6 68.6 11.4 69.9 11.5 C 71.2 11.5 73.4 11.7 74.9 11.6 C 76.5 11.6 77.4 11.0 80.6 11.4 C 81.6 11.5 83.6 11.4 84.4 11.4 C 85.8 11.4 88.6 11.6 89.8 11.6 C 91.2 11.6 91.2 9.1 89.6 9.1 C 89.6 9.1 89.6 9.1 89.6 9.1 Z M 31.1 9.3 C 29.9 9.4 29.9 11.9 31.3 11.8 C 32.7 11.7 35.7 11.4 36.7 11.4 C 37.7 11.5 42.4 11.6 43.2 11.6 C 43.9 11.6 46.6 11.2 48.1 11.4 C 49.6 11.6 51.1 11.2 52.2 11.3 C 53.5 11.5 54.2 11.3 55.2 11.3 C 56.2 11.2 57.8 11.7 58.6 11.5 C 59.5 11.3 60.0 11.6 61.1 11.6 C 62.3 11.6 62.3 9.1 61.2 9.1 C 60.1 9.1 59.1 9.2 58.0 9.2 C 56.9 9.3 55.5 9.3 54.3 9.3 C 53.2 9.3 51.6 9.0 50.3 9.2 C 49.1 9.3 47.2 9.4 46.5 9.4 C 45.6 9.4 43.6 9.4 42.7 9.5 C 41.6 9.7 38.7 9.4 37.9 9.2 C 37.0 9.0 36.4 9.3 34.8 9.3 C 33.9 9.3 32.4 9.2 31.1 9.3 C 31.1 9.3 31.1 9.3 31.1 9.3 Z M 30.8 9.4 C 29.3 9.5 27.2 10.1 26.7 10.2 C 26.2 10.3 24.5 10.5 23.7 10.7 C 23.0 11.0 22.7 11.3 21.1 12.1 C 19.3 13.0 18.0 13.7 17.9 13.7 C 17.6 13.8 16.6 14.2 15.6 15.3 C 14.3 16.7 13.8 17.0 13.3 17.7 C 12.6 19.1 12.4 19.0 11.8 20.0 C 11.3 21.0 10.9 21.6 10.7 22.5 C 10.4 23.5 9.9 24.0 9.7 24.7 C 9.4 25.8 11.8 26.3 12.1 25.3 C 12.3 24.8 12.2 24.2 12.5 23.5 C 12.8 22.7 13.1 22.1 13.6 21.5 C 14.1 20.9 14.8 19.5 15.6 18.6 C 16.5 17.7 18.1 16.4 19.2 15.5 C 20.3 14.7 21.2 13.3 23.7 12.9 C 24.5 12.8 26.0 12.3 26.6 12.2 C 27.7 12.0 30.0 11.9 31.1 11.8 C 32.3 11.7 32.2 9.3 30.8 9.4 C 30.8 9.4 30.8 9.4 30.8 9.4 Z M 12.1 25.5 C 12.3 24.6 10.0 23.9 9.7 25.0 C 9.3 26.2 9.3 29.0 9.2 29.7 C 9.0 30.4 8.4 32.6 8.4 33.3 C 8.3 34.1 9.0 38.0 8.8 39.9 C 8.6 41.9 8.7 42.9 8.7 44.0 C 8.7 45.0 8.8 46.7 8.9 47.7 C 8.9 48.7 8.3 49.6 8.4 50.9 C 8.6 52.3 8.4 53.0 8.4 53.9 C 8.4 55.3 10.8 55.2 10.8 53.9 C 10.8 52.6 11.0 51.7 10.9 50.6 C 10.9 49.5 10.6 48.5 10.9 47.4 C 11.1 46.4 10.9 44.6 10.7 42.8 C 10.5 41.0 10.6 39.2 10.7 38.0 C 11.0 35.7 10.7 31.1 11.0 30.5 C 11.3 30.0 11.3 28.2 11.4 27.6 C 11.5 27.0 11.7 26.7 12.1 25.5 C 12.1 25.5 12.1 25.5 12.1 25.5 Z M 8.4 54.2 C 8.4 55.8 8.7 58.3 8.7 58.9 C 8.7 59.5 8.5 62.5 8.6 63.7 C 8.6 64.8 8.8 65.3 8.9 67.0 C 9.0 69.2 8.9 70.4 8.9 70.5 C 8.8 70.8 8.6 71.8 8.8 73.0 C 9.1 74.6 9.0 75.0 9.2 75.7 C 9.7 76.8 9.5 77.0 9.8 77.8 C 10.1 78.7 10.2 79.4 10.7 80.2 C 11.2 81.0 11.3 81.8 11.8 82.6 C 12.5 83.8 14.5 82.3 13.9 81.3 C 13.5 80.6 13.0 80.2 12.6 79.5 C 12.3 78.8 12.2 78.1 12.1 77.5 C 12.0 76.9 11.5 75.7 11.4 74.6 C 11.3 73.6 11.2 71.8 11.1 70.4 C 10.9 69.0 10.3 68.3 10.6 64.6 C 10.7 63.4 10.6 60.8 10.6 59.6 C 10.6 57.6 10.8 55.3 10.8 54.1 C 10.8 52.7 8.4 52.7 8.4 54.2 C 8.4 54.2 8.4 54.2 8.4 54.2 Z M 14.0 81.5 C 13.4 80.5 11.2 81.6 12.0 82.9 C 12.8 84.2 15.3 86.5 16.0 87.1 C 16.6 87.7 18.3 89.6 18.9 90.0 C 19.6 90.4 23.3 91.3 24.5 91.8 C 25.7 92.3 26.0 92.3 26.9 92.4 C 27.8 92.6 29.3 92.6 30.2 92.7 C 31.1 92.7 31.9 93.4 33.2 93.3 C 34.6 93.1 35.4 93.4 36.4 93.4 C 38.1 93.4 38.0 91.0 36.5 91.0 C 35.0 91.0 34.1 90.8 33.0 90.8 C 31.9 90.8 31.0 91.0 30.1 90.6 C 29.2 90.3 27.6 90.4 26.6 90.3 C 25.6 90.3 24.6 89.9 23.8 89.6 C 22.4 89.0 18.1 86.7 17.8 86.2 C 17.4 85.6 15.8 84.3 15.4 83.7 C 14.9 83.1 14.8 82.7 14.0 81.5 C 14.0 81.5 14.0 81.5 14.0 81.5 Z M 42.8 94.2 C 42.8 94.2 42.9 94.0 42.9 92.7 C 42.9 91.3 42.9 90.3 42.8 90.3 C 42.8 90.3 42.8 91.0 42.8 91.0 C 42.8 91.0 42.8 93.5 42.8 93.5 C 42.8 93.5 42.8 94.2 42.8 94.2 C 42.8 94.2 42.8 94.2 42.8 94.2 Z M 42.7 90.3 C 42.7 90.3 42.7 90.9 42.7 92.2 C 42.7 93.6 42.7 94.2 42.7 94.2 C 42.7 94.2 42.7 93.4 42.8 93.5 C 42.8 93.5 42.8 91.0 42.8 91.0 C 42.7 91.0 42.7 90.3 42.7 90.3 C 42.7 90.3 42.7 90.3 42.7 90.3 Z M 42.7 90.3 " fill="#FF7777"></path></g></g><g><clipPath id="clip-201"><path d="M 6.8 38.9 L 235.7 38.9 L 235.7 91.2 L 6.8 91.2 Z M 6.8 38.9 "></path></clipPath><g clip-path="url(#clip-201)"><text xml:space="preserve" font-family="AmericanTypewriter" font-size="30.0" fill="#000000" transform="matrix(1.00, 0.00, -0.00, -1.00, 16.0, 55.0)">V</text><text xml:space="preserve" font-family="AmericanTypewriter" font-size="30.0" fill="#000000" transform="matrix(1.00, 0.00, -0.00, -1.00, 37.8, 55.0)">i</text><text xml:space="preserve" font-family="AmericanTypewriter" font-size="30.0" fill="#000000" transform="matrix(1.00, 0.00, -0.00, -1.00, 47.1, 55.0)">r</text><text xml:space="preserve" font-family="AmericanTypewriter" font-size="30.0" fill="#000000" transform="matrix(1.00, 0.00, -0.00, -1.00, 62.4, 55.0)">t</text><text xml:space="preserve" font-family="AmericanTypewriter" font-size="30.0" fill="#000000" transform="matrix(1.00, 0.00, -0.00, -1.00, 74.4, 55.0)">u</text><text xml:space="preserve" font-family="AmericanTypewriter" font-size="30.0" fill="#000000" transform="matrix(1.00, 0.00, -0.00, -1.00, 93.0, 55.0)">a</text><text xml:space="preserve" font-family="AmericanTypewriter" font-size="30.0" fill="#000000" transform="matrix(1.00, 0.00, -0.00, -1.00, 109.9, 55.0)">l</text><text xml:space="preserve" font-family="AmericanTypewriter" font-size="30.0" fill="#000000" transform="matrix(1.00, 0.00, -0.00, -1.00, 119.2, 55.0)"> </text><text xml:space="preserve" font-family="AmericanTypewriter" font-size="30.0" fill="#000000" transform="matrix(1.00, 0.00, -0.00, -1.00, 126.7, 55.0)">R</text><text xml:space="preserve" font-family="AmericanTypewriter" font-size="30.0" fill="#000000" transform="matrix(1.00, 0.00, -0.00, -1.00, 149.0, 55.0)">o</text><text xml:space="preserve" font-family="AmericanTypewriter" font-size="30.0" fill="#000000" transform="matrix(1.00, 0.00, -0.00, -1.00, 165.4, 55.0)">u</text><text xml:space="preserve" font-family="AmericanTypewriter" font-size="30.0" fill="#000000" transform="matrix(1.00, 0.00, -0.00, -1.00, 184.0, 55.0)">t</text><text xml:space="preserve" font-family="AmericanTypewriter" font-size="30.0" fill="#000000" transform="matrix(1.00, 0.00, -0.00, -1.00, 196.0, 55.0)">e</text><text xml:space="preserve" font-family="AmericanTypewriter" font-size="30.0" fill="#000000" transform="matrix(1.00, 0.00, -0.00, -1.00, 211.8, 55.0)">r</text></g></g></g></svg>