<?xml version="1.0" encoding="UTF-8" standalone="no"?><svg xmlns="http://www.w3.org/2000/svg" xmlns:xlink="http://www.w3.org/1999/xlink" clip-rule="evenodd" stroke-miterlimit="4.00" viewBox="0 0 832 523"><desc>SVG generated by Keynote</desc><defs><pattern id="6DFEAB09-A876-483D-A25D-86B7D7D79E91" patternUnits="userSpaceOnUse" width="400" height="400" viewBox="0 0 400 400" patternTransform="matrix(1.000000, 0.000000, 0.000000, -1.000000, 157.000000, 230.000000)"><image xlink:href="../../DBD367A3-D10B-4655-877C-4BCDAAFCFA3E/assets/CFA53D52FE8B7C3E70EDC25518D34A22.jpeg" width="400.00" height="400.00"></image></pattern><pattern id="358CE2C6-CC3D-4FC2-87BF-9DF957D17AE8" patternUnits="userSpaceOnUse" width="400" height="400" viewBox="0 0 400 400" patternTransform="matrix(1.000000, 0.000000, 0.000000, -1.000000, 157.000000, 157.000000)"><image xlink:href="../../DBD367A3-D10B-4655-877C-4BCDAAFCFA3E/assets/CFA53D52FE8B7C3E70EDC25518D34A22.jpeg" width="400.00" height="400.00"></image></pattern><pattern id="10CC6ADB-ADC7-461A-8125-5577CF1F872E" patternUnits="userSpaceOnUse" width="400" height="400" viewBox="0 0 400 400" patternTransform="matrix(1.000000, 0.000000, 0.000000, -1.000000, 157.000000, 84.000000)"><image xlink:href="../../DBD367A3-D10B-4655-877C-4BCDAAFCFA3E/assets/CFA53D52FE8B7C3E70EDC25518D34A22.jpeg" width="400.00" height="400.00"></image></pattern><pattern id="8AE2A090-760A-403E-B838-B4D7BA590931" patternUnits="userSpaceOnUse" width="400" height="400" viewBox="0 0 400 400" patternTransform="matrix(1.000000, 0.000000, 0.000000, -1.000000, 157.000000, 408.000000)"><image xlink:href="../../DBD367A3-D10B-4655-877C-4BCDAAFCFA3E/assets/FF12AB0386DEC36020066F1246429BA7.jpeg" width="400.00" height="400.00"></image></pattern><pattern id="EAA9ADF0-5959-4235-BE42-57B782774FFB" patternUnits="userSpaceOnUse" width="400" height="400" viewBox="0 0 400 400" patternTransform="matrix(1.000000, 0.000000, 0.000000, -1.000000, 157.000000, 335.000000)"><image xlink:href="../../DBD367A3-D10B-4655-877C-4BCDAAFCFA3E/assets/FF12AB0386DEC36020066F1246429BA7.jpeg" width="400.00" height="400.00"></image></pattern></defs><g transform="matrix(1.00, 0.00, -0.00, -1.00, 0.0, 523.0)"><path d="M 317.8 33.6 L 317.8 474.6 " fill="none" stroke="#FEFFFE" stroke-width="1.00" transform="matrix(1.00, 0.00, 0.00, -1.00, 1.7, 521.6)"></path><path d="M 479.8 33.6 L 479.8 474.6 " fill="none" stroke="#FEFFFE" stroke-width="1.00" transform="matrix(1.00, 0.00, 0.00, -1.00, 1.7, 521.6)"></path><path d="M 642.8 33.6 L 642.8 474.6 " fill="none" stroke="#FEFFFE" stroke-width="1.00" transform="matrix(1.00, 0.00, 0.00, -1.00, 1.7, 521.6)"></path><path d="M 805.8 33.6 L 805.8 474.6 " fill="none" stroke="#FEFFFE" stroke-width="1.00" transform="matrix(1.00, 0.00, 0.00, -1.00, 1.7, 521.6)"></path><path d="M 154.8 474.1 L 154.8 34.1 " fill="none" stroke="#FEFFFE" stroke-width="1.00" stroke-linecap="square" transform="matrix(1.00, 0.00, 0.00, -1.00, 1.7, 521.6)"></path><g><clipPath id="clip-1028"><path d="M 2.6 433.3 L 138.3 433.3 L 138.3 469.0 L 2.6 469.0 Z M 2.6 433.3 "></path></clipPath><g clip-path="url(#clip-1028)"><text xml:space="preserve" font-family="Chalkduster" font-size="22.0" fill="#FEFFFE" transform="matrix(1.00, 0.00, -0.00, -1.00, 4.0, 441.0)">C</text><text xml:space="preserve" font-family="Chalkduster" font-size="22.0" fill="#FEFFFE" transform="matrix(1.00, 0.00, -0.00, -1.00, 21.8, 441.0)">o</text><text xml:space="preserve" font-family="Chalkduster" font-size="22.0" fill="#FEFFFE" transform="matrix(1.00, 0.00, -0.00, -1.00, 38.3, 441.0)">m</text><text xml:space="preserve" font-family="Chalkduster" font-size="22.0" fill="#FEFFFE" transform="matrix(1.00, 0.00, -0.00, -1.00, 60.6, 441.0)">p</text><text xml:space="preserve" font-family="Chalkduster" font-size="22.0" fill="#FEFFFE" transform="matrix(1.00, 0.00, -0.00, -1.00, 74.2, 441.0)">u</text><text xml:space="preserve" font-family="Chalkduster" font-size="22.0" fill="#FEFFFE" transform="matrix(1.00, 0.00, -0.00, -1.00, 89.1, 441.0)">t</text><text xml:space="preserve" font-family="Chalkduster" font-size="22.0" fill="#FEFFFE" transform="matrix(1.00, 0.00, -0.00, -1.00, 98.9, 441.0)">e</text><text xml:space="preserve" font-family="Chalkduster" font-size="22.0" fill="#FEFFFE" transform="matrix(1.00, 0.00, -0.00, -1.00, 112.6, 441.0)"> </text><text xml:space="preserve" font-family="Chalkduster" font-size="22.0" fill="#FEFFFE" transform="matrix(1.00, 0.00, -0.00, -1.00, 123.5, 441.0)">1</text></g></g><g><clipPath id="clip-1029"><path d="M 3.5 359.9 L 138.3 359.9 L 138.3 395.6 L 3.5 395.6 Z M 3.5 359.9 "></path></clipPath><g clip-path="url(#clip-1029)"><text xml:space="preserve" font-family="Chalkduster" font-size="22.0" fill="#FEFFFE" transform="matrix(1.00, 0.00, -0.00, -1.00, 5.0, 367.0)">C</text><text xml:space="preserve" font-family="Chalkduster" font-size="22.0" fill="#FEFFFE" transform="matrix(1.00, 0.00, -0.00, -1.00, 22.8, 367.0)">o</text><text xml:space="preserve" font-family="Chalkduster" font-size="22.0" fill="#FEFFFE" transform="matrix(1.00, 0.00, -0.00, -1.00, 39.3, 367.0)">m</text><text xml:space="preserve" font-family="Chalkduster" font-size="22.0" fill="#FEFFFE" transform="matrix(1.00, 0.00, -0.00, -1.00, 61.6, 367.0)">p</text><text xml:space="preserve" font-family="Chalkduster" font-size="22.0" fill="#FEFFFE" transform="matrix(1.00, 0.00, -0.00, -1.00, 75.2, 367.0)">u</text><text xml:space="preserve" font-family="Chalkduster" font-size="22.0" fill="#FEFFFE" transform="matrix(1.00, 0.00, -0.00, -1.00, 90.1, 367.0)">t</text><text xml:space="preserve" font-family="Chalkduster" font-size="22.0" fill="#FEFFFE" transform="matrix(1.00, 0.00, -0.00, -1.00, 99.9, 367.0)">e</text><text xml:space="preserve" font-family="Chalkduster" font-size="22.0" fill="#FEFFFE" transform="matrix(1.00, 0.00, -0.00, -1.00, 113.6, 367.0)"> </text><text xml:space="preserve" font-family="Chalkduster" font-size="22.0" fill="#FEFFFE" transform="matrix(1.00, 0.00, -0.00, -1.00, 124.5, 367.0)">2</text></g></g><g><clipPath id="clip-1030"><path d="M 0.7 286.5 L 138.3 286.5 L 138.3 322.2 L 0.7 322.2 Z M 0.7 286.5 "></path></clipPath><g clip-path="url(#clip-1030)"><text xml:space="preserve" font-family="Chalkduster" font-size="22.0" fill="#FEFFFE" transform="matrix(1.00, 0.00, -0.00, -1.00, 2.0, 294.0)">C</text><text xml:space="preserve" font-family="Chalkduster" font-size="22.0" fill="#FEFFFE" transform="matrix(1.00, 0.00, -0.00, -1.00, 19.8, 294.0)">o</text><text xml:space="preserve" font-family="Chalkduster" font-size="22.0" fill="#FEFFFE" transform="matrix(1.00, 0.00, -0.00, -1.00, 36.3, 294.0)">m</text><text xml:space="preserve" font-family="Chalkduster" font-size="22.0" fill="#FEFFFE" transform="matrix(1.00, 0.00, -0.00, -1.00, 58.6, 294.0)">p</text><text xml:space="preserve" font-family="Chalkduster" font-size="22.0" fill="#FEFFFE" transform="matrix(1.00, 0.00, -0.00, -1.00, 72.2, 294.0)">u</text><text xml:space="preserve" font-family="Chalkduster" font-size="22.0" fill="#FEFFFE" transform="matrix(1.00, 0.00, -0.00, -1.00, 87.1, 294.0)">t</text><text xml:space="preserve" font-family="Chalkduster" font-size="22.0" fill="#FEFFFE" transform="matrix(1.00, 0.00, -0.00, -1.00, 96.9, 294.0)">e</text><text xml:space="preserve" font-family="Chalkduster" font-size="22.0" fill="#FEFFFE" transform="matrix(1.00, 0.00, -0.00, -1.00, 110.6, 294.0)"> </text><text xml:space="preserve" font-family="Chalkduster" font-size="22.0" fill="#FEFFFE" transform="matrix(1.00, 0.00, -0.00, -1.00, 121.5, 294.0)">3</text></g></g><g><clipPath id="clip-1031"><path d="M 24.6 213.1 L 138.3 213.1 L 138.3 248.8 L 24.6 248.8 Z M 24.6 213.1 "></path></clipPath><g clip-path="url(#clip-1031)"><text xml:space="preserve" font-family="Chalkduster" font-size="22.0" fill="#FEFFFE" transform="matrix(1.00, 0.00, -0.00, -1.00, 26.0, 220.0)">E</text><text xml:space="preserve" font-family="Chalkduster" font-size="22.0" fill="#FEFFFE" transform="matrix(1.00, 0.00, -0.00, -1.00, 42.3, 220.0)">p</text><text xml:space="preserve" font-family="Chalkduster" font-size="22.0" fill="#FEFFFE" transform="matrix(1.00, 0.00, -0.00, -1.00, 56.1, 220.0)">o</text><text xml:space="preserve" font-family="Chalkduster" font-size="22.0" fill="#FEFFFE" transform="matrix(1.00, 0.00, -0.00, -1.00, 72.6, 220.0)">u</text><text xml:space="preserve" font-family="Chalkduster" font-size="22.0" fill="#FEFFFE" transform="matrix(1.00, 0.00, -0.00, -1.00, 87.5, 220.0)">t</text><text xml:space="preserve" font-family="Chalkduster" font-size="22.0" fill="#FEFFFE" transform="matrix(1.00, 0.00, -0.00, -1.00, 97.3, 220.0)">a</text><text xml:space="preserve" font-family="Chalkduster" font-size="22.0" fill="#FEFFFE" transform="matrix(1.00, 0.00, -0.00, -1.00, 112.5, 220.0)"> </text><text xml:space="preserve" font-family="Chalkduster" font-size="22.0" fill="#FEFFFE" transform="matrix(1.00, 0.00, -0.00, -1.00, 123.4, 220.0)">1</text></g></g><g><clipPath id="clip-1032"><path d="M 25.5 139.7 L 138.3 139.7 L 138.3 175.4 L 25.5 175.4 Z M 25.5 139.7 "></path></clipPath><g clip-path="url(#clip-1032)"><text xml:space="preserve" font-family="Chalkduster" font-size="22.0" fill="#FEFFFE" transform="matrix(1.00, 0.00, -0.00, -1.00, 27.0, 147.0)">E</text><text xml:space="preserve" font-family="Chalkduster" font-size="22.0" fill="#FEFFFE" transform="matrix(1.00, 0.00, -0.00, -1.00, 43.3, 147.0)">p</text><text xml:space="preserve" font-family="Chalkduster" font-size="22.0" fill="#FEFFFE" transform="matrix(1.00, 0.00, -0.00, -1.00, 57.1, 147.0)">o</text><text xml:space="preserve" font-family="Chalkduster" font-size="22.0" fill="#FEFFFE" transform="matrix(1.00, 0.00, -0.00, -1.00, 73.6, 147.0)">u</text><text xml:space="preserve" font-family="Chalkduster" font-size="22.0" fill="#FEFFFE" transform="matrix(1.00, 0.00, -0.00, -1.00, 88.5, 147.0)">t</text><text xml:space="preserve" font-family="Chalkduster" font-size="22.0" fill="#FEFFFE" transform="matrix(1.00, 0.00, -0.00, -1.00, 98.3, 147.0)">a</text><text xml:space="preserve" font-family="Chalkduster" font-size="22.0" fill="#FEFFFE" transform="matrix(1.00, 0.00, -0.00, -1.00, 113.5, 147.0)"> </text><text xml:space="preserve" font-family="Chalkduster" font-size="22.0" fill="#FEFFFE" transform="matrix(1.00, 0.00, -0.00, -1.00, 124.4, 147.0)">2</text></g></g><g><clipPath id="clip-1033"><path d="M 22.8 66.3 L 138.3 66.3 L 138.3 102.0 L 22.8 102.0 Z M 22.8 66.3 "></path></clipPath><g clip-path="url(#clip-1033)"><text xml:space="preserve" font-family="Chalkduster" font-size="22.0" fill="#FEFFFE" transform="matrix(1.00, 0.00, -0.00, -1.00, 24.0, 74.0)">E</text><text xml:space="preserve" font-family="Chalkduster" font-size="22.0" fill="#FEFFFE" transform="matrix(1.00, 0.00, -0.00, -1.00, 40.3, 74.0)">p</text><text xml:space="preserve" font-family="Chalkduster" font-size="22.0" fill="#FEFFFE" transform="matrix(1.00, 0.00, -0.00, -1.00, 54.1, 74.0)">o</text><text xml:space="preserve" font-family="Chalkduster" font-size="22.0" fill="#FEFFFE" transform="matrix(1.00, 0.00, -0.00, -1.00, 70.6, 74.0)">u</text><text xml:space="preserve" font-family="Chalkduster" font-size="22.0" fill="#FEFFFE" transform="matrix(1.00, 0.00, -0.00, -1.00, 85.5, 74.0)">t</text><text xml:space="preserve" font-family="Chalkduster" font-size="22.0" fill="#FEFFFE" transform="matrix(1.00, 0.00, -0.00, -1.00, 95.3, 74.0)">a</text><text xml:space="preserve" font-family="Chalkduster" font-size="22.0" fill="#FEFFFE" transform="matrix(1.00, 0.00, -0.00, -1.00, 110.5, 74.0)"> </text><text xml:space="preserve" font-family="Chalkduster" font-size="22.0" fill="#FEFFFE" transform="matrix(1.00, 0.00, -0.00, -1.00, 121.4, 74.0)">3</text></g></g><g><clipPath id="clip-1034"><path d="M 147.7 0.8 L 165.8 0.8 L 165.8 36.6 L 147.7 36.6 Z M 147.7 0.8 "></path></clipPath><g clip-path="url(#clip-1034)"><text xml:space="preserve" font-family="Chalkduster" font-size="22.0" fill="#FEFFFE" transform="matrix(1.00, 0.00, -0.00, -1.00, 149.0, 8.0)">0</text></g></g><g><clipPath id="clip-1035"><path d="M 304.3 0.8 L 334.4 0.8 L 334.4 36.6 L 304.3 36.6 Z M 304.3 0.8 "></path></clipPath><g clip-path="url(#clip-1035)"><text xml:space="preserve" font-family="Chalkduster" font-size="22.0" fill="#FEFFFE" transform="matrix(1.00, 0.00, -0.00, -1.00, 306.0, 8.0)">7</text><text xml:space="preserve" font-family="Chalkduster" font-size="22.0" fill="#FEFFFE" transform="matrix(1.00, 0.00, -0.00, -1.00, 319.1, 8.0)">5</text></g></g><g><clipPath id="clip-1036"><path d="M 459.2 0.8 L 504.7 0.8 L 504.7 36.6 L 459.2 36.6 Z M 459.2 0.8 "></path></clipPath><g clip-path="url(#clip-1036)"><text xml:space="preserve" font-family="Chalkduster" font-size="22.0" fill="#FEFFFE" transform="matrix(1.00, 0.00, -0.00, -1.00, 461.0, 8.0)">1</text><text xml:space="preserve" font-family="Chalkduster" font-size="22.0" fill="#FEFFFE" transform="matrix(1.00, 0.00, -0.00, -1.00, 474.3, 8.0)">5</text><text xml:space="preserve" font-family="Chalkduster" font-size="22.0" fill="#FEFFFE" transform="matrix(1.00, 0.00, -0.00, -1.00, 488.4, 8.0)">0</text></g></g><g><clipPath id="clip-1037"><path d="M 623.6 0.8 L 665.4 0.8 L 665.4 36.6 L 623.6 36.6 Z M 623.6 0.8 "></path></clipPath><g clip-path="url(#clip-1037)"><text xml:space="preserve" font-family="Chalkduster" font-size="22.0" fill="#FEFFFE" transform="matrix(1.00, 0.00, -0.00, -1.00, 625.0, 8.0)">2</text><text xml:space="preserve" font-family="Chalkduster" font-size="22.0" fill="#FEFFFE" transform="matrix(1.00, 0.00, -0.00, -1.00, 637.4, 8.0)">2</text><text xml:space="preserve" font-family="Chalkduster" font-size="22.0" fill="#FEFFFE" transform="matrix(1.00, 0.00, -0.00, -1.00, 649.8, 8.0)">5</text></g></g><g><clipPath id="clip-1038"><path d="M 782.7 0.8 L 831.5 0.8 L 831.5 36.6 L 782.7 36.6 Z M 782.7 0.8 "></path></clipPath><g clip-path="url(#clip-1038)"><text xml:space="preserve" font-family="Chalkduster" font-size="22.0" fill="#FEFFFE" transform="matrix(1.00, 0.00, -0.00, -1.00, 784.0, 8.0)">3</text><text xml:space="preserve" font-family="Chalkduster" font-size="22.0" fill="#FEFFFE" transform="matrix(1.00, 0.00, -0.00, -1.00, 799.1, 8.0)">0</text><text xml:space="preserve" font-family="Chalkduster" font-size="22.0" fill="#FEFFFE" transform="matrix(1.00, 0.00, -0.00, -1.00, 814.6, 8.0)">0</text></g></g><g><clipPath id="clip-1039"><path d="M 157.0 230.0 L 627.0 230.0 L 627.0 200.0 L 157.0 200.0 Z M 157.0 230.0 "></path></clipPath><g clip-path="url(#clip-1039)"><g><clipPath id="clip-1040"><path d="M 156.7 47.4 L 807.1 47.4 L 807.1 487.9 L 156.7 487.9 Z M 156.7 47.4 "></path></clipPath><g clip-path="url(#clip-1040)"><path d="M 157.0 200.0 L 627.0 200.0 L 627.0 230.0 L 157.0 230.0 Z M 157.0 200.0 " fill="url(#6DFEAB09-A876-483D-A25D-86B7D7D79E91)"></path></g></g></g></g><g><clipPath id="clip-1041"><path d="M 157.0 157.0 L 807.0 157.0 L 807.0 127.0 L 157.0 127.0 Z M 157.0 157.0 "></path></clipPath><g clip-path="url(#clip-1041)"><g><clipPath id="clip-1042"><path d="M 156.7 47.4 L 807.1 47.4 L 807.1 487.9 L 156.7 487.9 Z M 156.7 47.4 "></path></clipPath><g clip-path="url(#clip-1042)"><path d="M 157.0 127.0 L 807.0 127.0 L 807.0 157.0 L 157.0 157.0 Z M 157.0 127.0 " fill="url(#358CE2C6-CC3D-4FC2-87BF-9DF957D17AE8)"></path></g></g></g></g><g><clipPath id="clip-1043"><path d="M 157.0 84.0 L 779.0 84.0 L 779.0 54.0 L 157.0 54.0 Z M 157.0 84.0 "></path></clipPath><g clip-path="url(#clip-1043)"><g><clipPath id="clip-1044"><path d="M 156.7 47.4 L 807.1 47.4 L 807.1 487.9 L 156.7 487.9 Z M 156.7 47.4 "></path></clipPath><g clip-path="url(#clip-1044)"><path d="M 157.0 54.0 L 779.0 54.0 L 779.0 84.0 L 157.0 84.0 Z M 157.0 54.0 " fill="url(#10CC6ADB-ADC7-461A-8125-5577CF1F872E)"></path></g></g></g></g><g><clipPath id="clip-1045"><path d="M 157.0 481.0 L 517.0 481.0 L 517.0 452.0 L 157.0 452.0 Z M 157.0 481.0 "></path></clipPath><g clip-path="url(#clip-1045)"><g><clipPath id="clip-1046"><path d="M 156.7 47.4 L 807.1 47.4 L 807.1 487.9 L 156.7 487.9 Z M 156.7 47.4 "></path></clipPath><g clip-path="url(#clip-1046)"><image xlink:href="../../DBD367A3-D10B-4655-877C-4BCDAAFCFA3E/assets/FF12AB0386DEC36020066F1246429BA7.jpeg" width="400.00" height="400.00" transform="matrix(1.00, 0.00, -0.00, -1.00, 157.0, 481.0)"></image></g></g></g></g><g><clipPath id="clip-1047"><path d="M 157.0 408.0 L 632.0 408.0 L 632.0 379.0 L 157.0 379.0 Z M 157.0 408.0 "></path></clipPath><g clip-path="url(#clip-1047)"><g><clipPath id="clip-1048"><path d="M 156.7 47.4 L 807.1 47.4 L 807.1 487.9 L 156.7 487.9 Z M 156.7 47.4 "></path></clipPath><g clip-path="url(#clip-1048)"><path d="M 157.0 379.0 L 632.0 379.0 L 632.0 408.0 L 157.0 408.0 Z M 157.0 379.0 " fill="url(#8AE2A090-760A-403E-B838-B4D7BA590931)"></path></g></g></g></g><g><clipPath id="clip-1049"><path d="M 157.0 335.0 L 608.0 335.0 L 608.0 306.0 L 157.0 306.0 Z M 157.0 335.0 "></path></clipPath><g clip-path="url(#clip-1049)"><g><clipPath id="clip-1050"><path d="M 156.7 47.4 L 807.1 47.4 L 807.1 487.9 L 156.7 487.9 Z M 156.7 47.4 "></path></clipPath><g clip-path="url(#clip-1050)"><path d="M 157.0 306.0 L 608.0 306.0 L 608.0 335.0 L 157.0 335.0 Z M 157.0 306.0 " fill="url(#EAA9ADF0-5959-4235-BE42-57B782774FFB)"></path></g></g></g></g></g></svg>