<?xml version="1.0" encoding="UTF-8" standalone="no"?><svg xmlns="http://www.w3.org/2000/svg" xmlns:xlink="http://www.w3.org/1999/xlink" clip-rule="evenodd" stroke-miterlimit="4.00" viewBox="0 0 293 149"><desc>SVG generated by Keynote</desc><defs></defs><g transform="matrix(1.00, 0.00, -0.00, -1.00, 0.0, 149.0)"><image xlink:href="../../CEFA4209-80C9-472B-8D2B-058B96531B72/assets/65C452F8AD7E2489406FE8FA16CEA794.png" width="291.00" height="146.00" transform="matrix(1.00, 0.00, -0.00, -1.00, 1.3, 147.8)" opacity="0.50"></image><g><clipPath id="clip-991"><path d="M 242.9 120.0 C 296.1 94.9 296.1 54.3 242.9 29.2 C 189.7 4.2 103.4 4.2 50.2 29.2 C -3.0 54.3 -3.0 94.9 50.2 120.0 C 103.4 145.1 189.7 145.1 242.9 120.0 Z M 242.9 120.0 "></path></clipPath><g clip-path="url(#clip-991)"><image xlink:href="../../CEFA4209-80C9-472B-8D2B-058B96531B72/assets/59DBD66EA15A3D40E065F836EF2595FD.jpeg" width="400.00" height="400.00" transform="matrix(1.00, 0.00, -0.00, -1.00, 10.3, 138.8)"></image></g></g><path d="M 76.3 15.6 C 75.9 15.7 75.4 15.9 74.6 16.1 C 75.0 16.1 75.2 16.1 75.2 16.2 C 75.9 15.9 76.7 15.7 78.1 15.3 C 78.0 15.3 77.4 15.5 76.9 15.6 C 76.3 15.7 76.4 15.6 76.3 15.6 C 76.3 15.6 76.3 15.6 76.3 15.6 Z M 57.9 127.0 C 56.9 126.5 58.0 127.2 58.4 127.4 C 58.4 127.4 58.5 127.4 58.9 127.5 C 58.9 127.8 58.0 127.4 57.3 127.2 C 54.4 126.0 56.7 126.5 57.9 127.0 C 57.9 127.0 57.9 127.0 57.9 127.0 Z M 219.9 132.0 C 222.4 131.3 219.7 131.8 219.3 131.9 C 220.4 131.5 219.4 131.4 220.9 130.9 C 221.2 130.9 221.7 130.9 222.0 130.9 C 221.4 131.1 220.5 131.4 220.4 131.5 C 221.2 131.2 222.4 130.8 222.6 130.9 C 220.7 131.5 222.4 131.2 222.7 131.3 C 221.1 131.7 220.6 132.1 219.9 132.0 C 219.9 132.0 219.9 132.0 219.9 132.0 Z M 267.9 41.8 C 268.5 42.4 269.0 42.8 268.8 42.8 C 268.1 42.2 267.7 41.8 267.4 41.4 C 267.2 41.4 267.3 41.7 266.7 41.2 C 266.1 40.5 266.7 40.5 267.1 40.7 C 267.0 40.9 269.4 42.8 267.9 41.8 C 267.9 41.8 267.9 41.8 267.9 41.8 Z M 202.9 13.8 C 200.7 13.2 202.8 14.1 200.5 13.6 C 200.6 13.4 200.3 13.1 201.8 13.4 C 201.9 13.5 202.8 13.7 202.9 13.8 C 202.9 13.8 202.9 13.8 202.9 13.8 Z M 151.0 140.1 C 151.0 140.3 152.7 140.2 152.3 140.4 C 151.4 140.4 150.6 140.4 149.7 140.4 C 149.6 140.3 149.9 140.1 151.0 140.1 C 151.0 140.1 151.0 140.1 151.0 140.1 Z M 235.3 124.2 C 237.7 123.5 240.0 122.1 239.4 122.7 C 240.4 122.5 238.0 124.0 238.0 123.7 C 237.7 123.6 233.5 125.0 235.3 124.2 C 235.3 124.2 235.3 124.2 235.3 124.2 Z M 71.6 127.4 C 74.1 128.4 73.8 127.5 75.4 128.4 C 74.8 128.2 74.5 128.2 74.3 128.2 C 74.7 128.3 75.4 128.5 75.4 128.6 C 74.1 128.3 72.6 127.9 71.6 127.4 C 71.6 127.4 71.6 127.4 71.6 127.4 Z M 117.3 8.6 C 117.8 8.5 118.1 8.4 118.0 8.3 C 119.9 8.2 119.9 8.0 121.1 8.1 C 121.2 8.4 119.5 8.4 118.0 8.5 C 117.9 8.6 117.5 8.7 117.3 8.6 C 117.3 8.6 117.3 8.6 117.3 8.6 Z M 173.1 9.2 C 173.0 9.0 171.9 8.8 173.7 8.9 C 175.8 9.4 173.9 9.4 171.8 9.4 C 171.7 9.5 171.7 9.6 171.7 9.7 C 172.6 9.8 173.1 9.9 173.6 10.0 C 174.0 9.6 175.3 10.4 178.6 10.6 C 177.0 10.6 178.6 11.0 176.7 10.7 C 177.2 11.0 175.8 10.8 176.0 11.0 C 176.9 11.0 179.0 11.2 178.5 10.9 C 179.6 11.0 180.5 11.1 181.0 11.3 C 181.7 11.6 179.0 11.1 179.8 11.4 C 180.4 11.5 180.5 11.6 180.9 11.6 C 181.1 11.6 180.9 11.4 181.6 11.5 C 183.5 11.8 181.2 11.7 184.0 12.1 C 184.2 12.0 183.4 11.9 183.4 11.7 C 184.7 11.7 184.6 11.9 185.9 12.0 C 186.1 12.1 185.0 12.1 185.9 12.2 C 186.7 12.0 188.4 12.8 190.1 12.8 C 189.0 12.1 190.4 12.9 192.0 12.7 C 192.4 12.9 191.2 13.0 192.5 13.2 C 192.2 12.5 197.6 13.6 193.3 12.4 C 195.6 12.8 196.4 12.5 194.6 12.1 C 198.6 12.9 197.4 12.4 198.9 12.6 C 200.4 12.9 198.1 12.6 198.8 12.9 C 197.2 12.6 197.6 12.8 196.4 12.5 C 196.4 12.6 196.1 12.6 195.7 12.6 C 197.4 12.7 199.3 13.4 198.1 13.5 C 197.3 13.3 198.1 13.2 197.0 13.0 C 197.3 13.4 195.8 12.7 195.7 12.9 C 196.4 13.4 194.0 13.2 196.2 13.7 C 196.2 13.5 196.3 13.4 196.3 13.3 C 196.9 13.4 197.5 13.5 198.0 13.6 C 198.5 13.9 198.1 14.0 198.6 14.2 C 199.6 14.4 200.1 14.4 200.4 14.4 C 199.2 14.1 197.8 13.6 199.8 13.9 C 199.0 14.3 202.6 14.6 201.0 14.6 C 203.1 15.2 204.3 15.0 204.5 15.4 C 205.6 15.6 204.9 15.2 206.3 15.6 C 208.4 16.3 208.1 15.8 210.9 16.7 C 211.3 16.4 211.1 16.9 212.0 17.1 C 212.1 17.0 212.1 16.9 212.1 16.7 C 213.1 17.2 215.3 17.9 217.7 18.3 C 218.3 18.6 217.8 18.7 219.4 19.1 C 221.1 19.2 222.9 20.2 224.9 20.5 C 225.0 20.7 226.3 21.1 227.1 21.3 C 227.3 21.5 226.3 21.4 227.5 21.8 C 228.4 21.9 227.0 21.3 228.7 21.8 C 228.4 22.0 230.3 22.2 230.3 22.5 C 229.7 22.4 229.1 22.2 228.6 22.1 C 229.3 22.4 229.0 22.4 229.6 22.7 C 229.6 22.3 230.8 23.0 231.2 23.2 C 231.2 23.1 231.4 23.0 231.8 23.1 C 232.7 23.5 233.4 23.7 233.9 23.9 C 235.0 24.4 233.2 23.8 234.3 24.3 C 235.1 23.9 236.0 25.0 238.5 25.7 C 239.0 26.1 239.9 26.6 241.4 27.3 C 241.6 27.2 240.0 26.5 240.0 26.4 C 242.2 27.4 239.7 26.1 241.1 26.7 C 244.1 28.2 247.6 29.8 251.9 32.5 C 251.9 32.3 255.4 34.1 255.3 34.2 C 254.4 33.7 256.9 35.5 258.2 36.4 C 258.8 36.3 260.9 37.3 261.1 37.3 C 261.5 37.7 261.4 37.7 261.4 38.1 C 263.4 39.7 264.7 40.3 265.6 41.5 C 265.6 41.3 266.6 42.0 267.3 42.6 C 267.0 42.6 266.5 42.3 266.0 42.1 C 267.0 42.9 267.1 43.1 267.9 43.8 C 269.2 44.1 269.9 45.9 271.0 46.1 C 272.2 47.3 271.8 47.3 272.9 48.4 C 273.0 48.3 273.2 48.3 273.5 48.6 C 272.8 47.9 272.1 47.5 271.9 46.9 C 273.6 48.5 269.2 43.2 272.1 45.8 C 272.2 45.9 271.8 45.8 272.3 46.4 C 274.0 48.0 273.2 46.8 272.6 46.2 C 273.7 47.2 274.7 48.4 274.1 47.4 C 276.4 49.8 274.8 48.4 275.5 49.3 C 279.4 53.7 283.2 59.8 284.6 66.6 C 285.0 66.7 285.4 70.4 285.3 71.6 C 285.7 73.5 285.7 75.5 285.4 76.1 C 285.7 76.4 285.0 78.4 285.2 78.6 C 285.3 77.8 285.5 77.3 285.5 78.1 C 285.0 80.9 283.8 85.0 283.5 86.6 C 282.8 87.5 282.2 89.2 281.7 90.5 C 281.5 90.6 281.9 89.6 281.5 90.4 C 281.5 90.7 280.3 93.2 279.8 93.8 C 280.3 93.0 280.5 92.0 279.8 93.1 C 280.0 93.2 279.1 94.5 279.5 94.3 C 278.4 95.8 277.9 96.8 276.8 98.0 C 277.6 96.9 278.0 96.2 277.9 95.9 C 277.4 96.9 277.0 97.6 276.2 98.2 C 276.7 98.3 275.4 99.5 274.2 101.1 C 273.8 101.4 273.4 101.7 272.4 102.8 C 272.0 103.5 274.2 101.2 273.1 102.5 C 273.0 102.4 271.7 103.6 272.2 103.4 C 270.6 104.9 269.8 105.8 268.4 106.8 C 270.1 105.4 268.6 106.3 268.1 106.6 C 267.8 106.9 267.2 107.4 267.2 107.5 C 267.3 107.6 268.2 106.8 268.3 106.8 C 267.0 107.7 266.9 108.4 266.3 108.5 C 266.9 108.1 266.9 107.9 266.2 108.4 C 266.3 108.8 262.3 111.6 263.5 110.4 C 263.6 110.5 265.1 109.4 265.2 109.2 C 264.7 109.4 262.5 111.2 262.8 110.7 C 264.1 109.7 264.1 109.9 265.6 108.6 C 265.6 108.4 266.5 107.7 266.9 107.1 C 264.7 109.0 264.3 109.6 263.8 109.7 C 262.7 110.5 263.6 110.2 261.7 111.5 C 259.0 113.3 261.1 111.6 260.3 112.0 C 258.0 113.7 258.9 113.5 260.1 113.0 C 258.2 114.3 257.7 114.8 255.2 116.2 C 255.2 116.0 255.5 115.7 256.3 115.2 C 256.4 115.2 258.5 114.0 258.3 114.0 C 257.9 113.8 256.2 114.8 253.5 116.3 C 254.3 116.2 254.3 116.0 251.6 117.6 C 252.2 117.6 250.2 118.3 250.2 118.5 C 250.4 118.5 251.4 118.0 252.3 117.4 C 252.4 117.6 252.1 117.9 251.2 118.4 C 250.5 118.7 250.1 119.1 248.3 119.9 C 248.1 119.8 249.3 119.1 249.5 118.8 C 248.6 119.3 248.4 119.5 247.4 120.1 C 246.5 120.3 246.4 120.0 246.3 119.6 C 247.4 119.0 249.2 118.1 247.7 118.7 C 251.8 116.5 247.7 119.1 249.3 118.3 C 250.8 117.1 250.1 118.0 252.7 116.5 C 253.5 116.0 253.7 115.8 253.9 115.6 C 253.7 115.7 252.2 116.3 253.8 115.3 C 254.2 115.2 255.2 114.8 256.5 114.0 C 256.4 113.9 253.8 115.5 256.4 113.8 C 257.6 113.0 256.7 114.1 258.4 112.9 C 258.3 112.8 258.8 112.5 258.9 112.4 C 256.5 114.0 259.2 111.9 257.5 112.9 C 259.6 111.4 258.0 112.9 259.4 111.9 C 259.4 111.8 261.7 110.5 261.6 110.2 C 260.8 110.9 259.1 112.0 259.2 111.7 C 260.8 110.7 267.1 105.5 264.9 107.8 C 265.7 106.9 269.6 102.9 269.4 103.3 C 268.2 104.4 268.4 104.5 268.3 104.8 C 270.4 102.5 271.7 101.5 273.5 98.9 C 271.2 101.5 272.6 99.3 271.1 100.7 C 270.5 101.3 269.5 102.2 269.4 102.5 C 269.9 102.4 270.8 101.2 271.1 100.7 C 271.3 100.9 271.4 101.0 271.6 101.2 C 268.7 103.8 267.2 105.5 265.6 106.7 C 266.9 105.5 262.9 108.4 264.4 107.1 C 265.1 106.8 266.7 105.5 267.9 104.4 C 267.9 104.3 267.8 104.3 267.8 104.2 C 268.3 103.7 269.1 103.0 269.0 102.9 C 267.5 104.5 266.4 105.1 265.3 106.3 C 265.3 106.2 265.2 106.2 265.2 106.2 C 264.9 106.4 264.6 106.6 264.7 106.5 C 265.2 106.0 266.1 105.3 266.1 105.2 C 264.8 106.2 264.4 106.3 262.9 107.4 C 263.1 106.9 260.9 108.2 263.0 106.4 C 263.5 106.4 264.7 105.5 264.7 105.6 C 265.4 105.2 266.6 104.1 267.1 103.5 C 266.4 103.9 265.2 104.8 264.9 104.7 C 265.9 103.9 266.5 103.1 267.3 102.8 C 265.4 104.6 268.4 101.9 269.3 101.4 C 269.0 101.6 268.6 101.9 268.2 102.1 C 269.6 100.7 270.4 100.2 270.2 99.8 C 271.7 98.1 271.6 98.6 272.6 97.4 C 271.6 98.0 273.1 96.6 272.2 97.1 C 273.8 95.1 272.9 96.7 273.5 96.0 C 273.9 95.4 273.9 95.3 274.3 94.7 C 275.1 93.8 276.3 92.0 276.7 91.9 C 277.2 91.1 277.4 91.0 277.8 90.2 C 277.9 89.9 277.9 89.6 278.1 89.2 C 278.2 89.1 278.6 88.6 278.6 88.3 C 277.1 90.5 277.5 89.8 275.8 92.0 C 275.8 92.2 275.6 92.5 276.0 92.1 C 275.1 93.7 274.6 94.1 273.6 95.5 C 273.3 95.5 272.9 95.6 272.0 97.0 C 272.1 96.5 271.7 96.8 272.1 96.3 C 272.7 95.7 273.5 94.9 274.2 94.0 C 274.2 93.8 274.0 93.9 274.3 93.4 C 274.7 93.0 275.3 92.4 275.5 91.7 C 275.6 91.8 275.5 92.0 275.4 92.3 C 276.9 90.2 276.1 90.8 277.1 89.3 C 276.8 89.4 276.3 90.5 276.6 89.5 C 277.4 88.0 277.6 87.8 278.0 87.1 C 278.0 86.9 277.9 87.0 278.1 86.5 C 278.7 85.6 277.5 89.1 278.6 87.3 C 278.4 87.1 279.3 85.3 279.5 85.1 C 279.5 85.8 278.8 86.7 278.9 86.9 C 280.3 83.6 279.5 87.0 280.6 83.5 C 280.5 83.5 280.4 83.5 280.3 83.4 C 279.9 84.8 279.7 84.8 279.5 84.6 C 279.1 85.8 278.6 86.2 278.3 87.2 C 278.1 86.6 278.7 86.2 279.2 85.0 C 279.0 85.0 278.5 86.0 278.2 86.1 C 279.6 83.5 279.4 82.8 280.3 80.2 C 279.9 80.8 280.5 78.7 280.3 78.9 C 280.0 81.2 279.4 80.1 279.3 80.4 C 279.0 81.9 279.6 81.4 279.5 82.3 C 279.1 82.6 279.1 82.4 278.8 82.1 C 279.2 80.8 279.1 81.0 279.2 80.0 C 279.6 79.2 280.1 78.5 280.1 79.7 C 280.1 79.4 280.2 77.7 280.4 77.6 C 280.2 79.2 280.5 77.4 280.5 78.4 C 280.9 77.2 280.7 74.9 280.8 73.3 C 280.7 73.4 280.6 72.8 280.5 72.9 C 280.8 74.4 280.3 74.8 280.2 76.3 C 280.2 75.6 280.0 76.0 279.9 76.3 C 280.1 74.8 279.9 74.0 280.1 72.9 C 280.0 72.9 279.9 72.9 279.8 72.9 C 279.9 71.1 279.8 71.4 279.4 70.0 C 279.5 69.5 280.0 70.1 280.3 70.3 C 280.1 69.6 279.6 67.2 279.7 68.7 C 279.3 67.2 279.8 67.5 279.3 66.0 C 279.1 66.1 279.5 67.4 279.0 67.0 C 278.6 65.7 279.1 66.4 278.6 65.3 C 278.7 65.2 279.0 65.1 278.5 64.0 C 278.6 64.9 278.4 63.9 278.1 63.6 C 278.3 64.1 278.4 64.6 278.4 64.9 C 277.7 62.8 277.5 62.4 276.6 60.7 C 277.2 61.2 276.8 60.2 277.5 61.4 C 276.8 60.3 276.3 58.9 275.9 58.4 C 276.2 59.1 276.7 60.2 276.8 60.6 C 275.0 57.3 273.6 55.7 271.5 52.7 C 271.9 53.1 272.4 53.8 272.6 53.9 C 272.3 53.5 271.9 53.0 271.9 53.0 C 272.8 54.0 273.5 55.0 273.9 55.4 C 274.5 56.4 273.4 55.0 274.0 56.0 C 274.3 56.1 275.3 57.9 275.2 57.1 C 273.9 55.6 273.0 54.0 272.7 53.0 C 271.2 51.8 272.4 53.2 270.6 51.9 C 270.8 51.9 270.5 51.5 270.1 51.0 C 270.3 51.7 268.6 49.6 268.4 49.4 C 269.3 50.0 271.9 52.7 270.8 51.0 C 270.9 52.1 267.9 47.7 268.3 48.8 C 266.5 47.1 267.3 47.5 266.1 46.7 C 266.1 46.6 266.3 46.6 265.8 46.2 C 265.3 45.7 265.0 45.6 264.8 45.4 C 267.5 47.9 266.4 47.5 268.0 49.1 C 267.7 48.8 267.5 48.6 267.5 48.7 C 267.5 48.7 267.4 48.7 267.0 48.4 C 267.1 48.0 265.6 47.1 265.4 46.6 C 265.9 47.1 266.4 47.6 266.4 47.3 C 264.1 45.3 264.8 45.4 261.4 42.6 C 262.4 43.6 260.9 42.5 259.7 41.6 C 257.9 40.3 258.9 40.5 256.5 39.0 C 256.4 39.6 254.1 37.3 250.9 35.8 C 251.3 35.7 247.2 33.4 246.2 33.2 C 246.2 33.0 244.6 32.2 243.4 31.7 C 243.2 31.4 244.6 32.0 243.5 31.5 C 242.5 31.0 242.9 31.5 242.0 31.1 C 241.0 30.5 241.3 30.4 239.8 29.7 C 239.6 29.9 240.5 30.2 239.6 30.0 C 238.3 29.3 237.0 28.8 238.1 29.5 C 236.0 28.6 237.2 28.6 235.3 27.8 C 235.8 28.2 235.7 28.2 234.7 27.9 C 234.0 27.4 234.0 27.3 233.8 27.1 C 233.1 27.0 233.3 27.2 231.7 26.4 C 231.7 26.5 231.6 26.6 231.6 26.7 C 230.9 26.4 229.7 26.1 229.6 25.9 C 231.0 26.5 230.6 26.1 231.2 26.3 C 229.8 25.7 227.2 24.5 229.2 25.5 C 227.1 24.9 228.2 24.9 226.6 24.4 C 227.5 25.0 226.7 24.5 225.0 23.9 C 225.0 24.3 223.9 23.6 222.8 23.3 C 222.9 23.5 222.6 23.6 221.7 23.3 C 221.8 23.2 221.2 22.9 220.1 22.6 C 220.1 22.7 222.3 23.6 220.0 22.9 C 219.0 22.4 219.1 22.2 217.4 21.6 C 217.1 21.3 219.0 22.0 218.6 21.6 C 217.2 21.4 216.8 21.1 214.7 20.5 C 215.4 21.1 210.4 19.9 212.8 20.8 C 212.1 20.6 211.1 20.7 210.6 20.3 C 211.4 20.4 210.0 19.9 210.1 19.8 C 209.1 19.6 206.8 18.9 206.7 19.1 C 208.9 19.6 208.8 19.8 209.5 20.1 C 206.3 19.5 203.5 18.7 203.8 18.5 C 203.8 18.6 203.3 18.5 203.2 18.6 C 204.3 18.8 204.9 19.3 203.6 19.1 C 204.0 18.9 203.0 18.6 202.0 18.3 C 201.9 18.5 197.7 17.3 198.5 17.8 C 200.2 18.0 201.5 18.6 200.2 18.5 C 199.1 18.1 196.8 17.5 197.4 17.4 C 196.7 17.3 196.1 17.3 195.6 17.3 C 195.0 17.4 196.3 17.6 196.1 17.8 C 195.2 17.6 193.9 17.4 193.7 17.3 C 196.1 17.7 192.5 16.9 195.0 17.2 C 193.5 16.9 193.2 16.7 192.0 16.5 C 192.0 16.6 191.5 16.5 191.4 16.6 C 192.5 16.6 193.5 16.9 193.2 17.1 C 191.0 16.8 191.4 16.5 189.6 16.3 C 189.0 16.3 186.5 16.3 185.3 15.9 C 187.7 16.3 185.2 15.8 186.6 15.9 C 188.7 16.4 189.4 16.2 190.2 16.1 C 189.3 15.8 187.5 15.5 187.2 15.7 C 188.4 15.9 188.4 15.8 189.1 15.9 C 189.0 16.0 188.6 16.1 187.8 16.0 C 186.8 15.7 184.6 15.5 186.1 15.4 C 184.5 15.3 182.8 14.9 181.2 14.8 C 183.0 15.1 184.3 15.4 184.8 15.6 C 183.3 15.5 181.9 15.1 181.8 15.2 C 181.9 15.5 184.3 15.7 184.7 15.9 C 182.8 15.9 180.0 14.9 182.3 15.7 C 181.3 15.5 179.8 15.3 179.3 15.2 C 180.6 15.3 179.2 14.8 178.7 14.7 C 177.6 14.6 176.7 14.5 176.2 14.6 C 178.0 14.7 179.3 15.1 178.1 15.0 C 177.8 14.9 177.4 15.0 176.9 15.0 C 176.8 14.8 174.8 14.7 174.4 14.6 C 174.5 14.7 175.4 14.8 175.6 14.9 C 174.5 14.9 172.8 15.1 172.0 14.6 C 172.7 14.7 173.7 14.8 173.8 14.7 C 170.6 14.1 169.6 13.7 165.8 13.3 C 166.3 13.3 166.6 13.3 166.4 13.2 C 164.0 13.0 162.5 12.8 162.8 12.6 C 161.2 12.6 160.4 12.7 159.7 12.8 C 161.2 13.0 161.8 12.8 162.7 13.0 C 162.1 13.0 163.9 13.6 164.6 13.8 C 167.3 13.7 167.4 14.1 170.1 14.2 C 169.3 14.4 172.1 14.4 171.3 14.6 C 168.8 14.0 166.4 14.1 162.7 13.7 C 163.2 13.6 163.6 13.4 162.1 13.2 C 159.8 13.0 160.9 13.4 159.0 13.2 C 158.2 13.0 159.3 13.0 158.4 12.9 C 157.7 12.9 155.9 12.9 155.3 12.6 C 157.8 12.7 154.8 12.4 156.5 12.3 C 155.6 12.3 155.2 12.2 154.6 12.2 C 157.1 12.5 152.1 12.5 154.0 12.7 C 150.5 12.8 153.8 12.1 150.9 12.1 C 152.3 12.3 150.5 12.4 148.4 12.3 C 147.8 12.1 145.7 12.0 144.0 11.9 C 144.9 12.1 145.6 12.1 144.0 12.2 C 144.8 12.3 146.3 12.3 147.1 12.2 C 147.1 12.3 147.4 12.4 147.8 12.5 C 145.7 12.5 146.6 12.6 145.9 12.7 C 145.3 12.6 143.7 12.6 143.4 12.5 C 143.4 12.6 142.8 12.6 142.8 12.7 C 145.4 12.7 142.3 13.0 144.0 13.0 C 145.2 13.0 144.4 12.8 145.9 12.8 C 147.3 13.1 144.7 13.1 144.0 13.4 C 145.2 13.5 146.7 13.2 147.1 13.5 C 145.5 13.8 143.0 13.6 140.9 13.6 C 141.0 13.9 137.4 13.6 137.1 14.0 C 136.8 13.9 136.5 13.8 135.9 13.8 C 135.3 14.1 134.6 13.8 134.0 13.8 C 134.0 13.9 134.2 14.0 134.7 14.1 C 132.1 14.1 131.5 14.1 128.5 14.4 C 128.0 14.3 127.5 14.2 127.2 14.0 C 127.9 13.9 128.6 13.8 129.1 13.7 C 125.0 13.9 127.7 14.4 124.7 14.3 C 124.9 14.4 126.9 14.5 125.4 14.7 C 122.8 14.6 119.1 15.2 119.2 14.5 C 116.9 14.5 115.4 15.1 114.3 14.9 C 113.6 15.0 113.4 15.1 113.1 15.3 C 113.8 15.3 114.7 15.3 115.6 15.4 C 116.9 15.1 117.5 15.3 116.2 15.1 C 118.2 14.8 118.8 14.9 119.8 14.9 C 117.1 15.4 114.5 15.4 114.4 15.8 C 113.4 15.8 112.7 15.7 111.9 15.6 C 111.6 15.8 108.5 16.3 108.3 16.1 C 110.4 15.9 112.5 15.3 110.6 15.4 C 105.5 16.3 102.5 16.3 98.1 17.3 C 98.0 17.2 98.3 17.0 97.5 17.1 C 97.5 17.3 97.3 17.4 96.9 17.6 C 95.5 17.8 94.7 17.8 92.8 18.3 C 92.9 18.0 92.6 17.9 91.5 18.0 C 91.0 18.4 89.3 19.3 88.2 19.4 C 89.3 19.2 87.8 19.2 87.0 19.4 C 87.7 19.6 81.8 20.3 83.6 20.3 C 81.3 20.9 80.3 21.0 80.2 20.9 C 79.4 21.2 78.8 21.4 78.0 21.7 C 77.4 21.5 73.6 22.8 73.0 22.9 C 74.4 22.6 74.5 22.1 73.5 22.5 C 72.8 22.9 69.4 24.2 68.8 24.3 C 68.9 24.1 69.1 23.8 70.8 23.2 C 67.9 24.1 68.1 24.5 67.2 25.0 C 67.2 24.6 66.0 25.4 65.6 25.6 C 64.7 25.7 65.6 25.4 65.5 25.3 C 64.5 25.6 64.1 25.6 62.9 26.0 C 63.3 26.2 61.9 26.5 61.4 26.7 C 61.2 26.9 60.6 27.3 59.5 27.8 C 60.8 26.8 53.0 30.0 55.0 29.5 C 53.5 30.4 53.3 29.9 51.5 30.8 C 51.2 31.1 50.1 31.5 51.1 31.2 C 50.4 31.6 49.7 31.8 49.4 31.9 C 49.1 32.0 48.7 32.1 47.4 32.9 C 48.7 32.5 44.8 34.2 45.5 34.2 C 44.2 34.4 42.4 36.0 40.2 36.9 C 40.3 37.0 39.7 37.3 39.7 37.5 C 39.4 37.7 42.2 36.2 40.4 37.3 C 38.2 38.4 39.3 37.6 39.0 37.7 C 33.5 41.2 27.8 45.6 23.8 49.6 C 24.4 49.1 24.4 49.2 23.6 50.1 C 22.2 51.0 18.6 55.9 18.2 56.7 C 17.7 57.0 16.5 59.7 16.1 60.1 C 16.4 59.6 16.7 58.5 16.1 59.5 C 16.0 60.3 15.4 61.1 15.1 62.2 C 14.6 62.6 13.8 65.8 13.8 64.2 C 13.6 64.8 13.4 65.1 13.3 65.5 C 13.6 65.6 13.3 66.2 13.8 65.2 C 12.7 67.9 12.8 68.6 12.3 70.8 C 12.4 71.2 12.8 69.5 12.6 70.8 C 12.6 70.8 12.5 70.8 12.5 70.8 C 12.4 71.3 12.5 71.4 12.4 71.6 C 12.3 71.5 12.4 70.8 12.1 70.7 C 12.0 71.8 11.7 72.5 11.9 72.9 C 12.0 71.4 12.4 72.5 12.1 73.3 C 12.0 72.5 12.1 76.8 12.4 78.1 C 12.2 78.8 12.2 76.6 12.1 76.8 C 12.3 79.4 12.3 79.2 12.6 79.4 C 12.8 80.8 12.7 81.3 13.3 82.9 C 13.5 83.8 13.0 82.4 13.2 83.4 C 13.5 83.9 13.7 84.1 14.1 85.0 C 14.4 87.5 18.1 92.5 19.4 95.6 C 18.8 94.4 19.9 95.7 21.0 97.0 C 21.0 97.2 20.8 97.1 21.2 97.6 C 21.3 97.4 21.7 97.8 22.5 98.7 C 22.5 98.9 22.2 98.8 22.7 99.3 C 23.2 99.5 24.1 100.8 24.9 101.3 C 25.0 101.8 23.2 99.8 23.0 99.8 C 24.9 102.1 25.5 102.3 27.3 104.0 C 26.3 103.2 27.8 104.8 28.0 105.0 C 27.8 104.5 29.4 105.7 28.4 104.6 C 29.1 105.2 30.2 106.1 30.3 106.3 C 29.9 106.0 29.3 105.5 29.2 105.5 C 30.2 106.2 31.2 107.4 31.8 107.6 C 31.2 107.0 30.8 106.7 30.9 106.6 C 31.2 106.7 31.6 106.8 32.1 107.2 C 30.3 106.6 34.9 109.6 35.3 109.6 C 35.5 110.3 35.8 110.5 35.5 110.5 C 37.6 111.9 37.4 111.4 38.7 112.2 C 38.2 112.2 37.7 112.1 39.6 113.4 C 39.3 112.9 41.8 114.4 41.2 113.7 C 43.9 115.2 45.6 116.1 47.1 116.9 C 48.5 117.8 50.1 118.6 51.2 119.1 C 51.3 119.1 50.6 118.7 51.3 119.0 C 52.4 119.6 53.4 120.1 54.1 120.6 C 54.8 120.7 53.9 120.3 54.7 120.5 C 56.4 121.5 55.8 121.6 57.4 122.4 C 59.5 123.1 58.7 122.9 60.0 123.1 C 59.5 122.9 58.8 122.5 59.6 122.8 C 60.7 123.5 61.2 124.0 61.4 124.1 C 60.5 123.8 59.8 123.5 59.4 123.3 C 59.1 123.3 57.8 122.8 58.8 123.4 C 57.5 122.8 56.1 122.2 54.3 121.4 C 54.8 121.9 52.7 120.7 53.2 121.3 C 55.2 122.1 55.6 122.5 57.6 123.2 C 57.3 122.8 59.3 123.8 59.7 124.0 C 59.8 123.8 61.1 124.4 60.9 124.1 C 62.5 124.6 62.3 124.8 63.9 125.3 C 64.0 125.4 63.8 125.5 64.4 125.7 C 65.0 125.7 65.4 126.2 65.9 126.3 C 65.7 126.0 68.0 126.9 68.2 126.8 C 67.6 126.6 66.7 126.3 66.6 126.2 C 69.2 127.1 67.2 126.1 66.7 125.8 C 66.8 125.9 65.7 125.9 65.6 125.6 C 67.8 126.2 62.7 124.2 64.6 125.0 C 66.3 125.6 66.2 125.4 67.9 126.0 C 69.7 127.1 67.3 126.5 69.2 127.5 C 70.4 127.7 71.3 128.0 71.4 127.8 C 71.7 128.0 72.0 128.2 72.4 128.4 C 73.0 128.4 70.9 127.6 72.5 128.1 C 73.4 128.4 72.3 128.4 74.1 128.9 C 74.9 128.9 72.0 128.0 73.7 128.4 C 75.3 129.3 73.3 128.2 75.3 128.7 C 75.5 128.9 75.8 129.0 76.4 129.1 C 76.5 129.3 76.2 129.4 76.9 129.6 C 77.4 129.3 77.6 130.0 79.1 130.3 C 80.0 130.2 77.6 129.7 78.1 129.6 C 79.7 130.4 80.8 130.3 81.5 130.5 C 80.0 130.4 83.6 131.2 83.6 131.5 C 83.3 131.1 84.1 131.4 86.1 131.6 C 86.1 132.1 88.4 132.3 88.9 132.8 C 89.2 132.7 89.8 132.8 90.1 132.7 C 89.4 132.5 88.7 132.4 89.0 132.3 C 89.5 132.4 90.1 132.5 90.7 132.7 C 91.7 133.1 89.0 133.1 92.9 133.8 C 92.5 133.4 94.2 133.7 95.3 133.8 C 95.3 133.5 93.8 133.5 93.6 133.3 C 95.0 133.4 96.3 133.8 97.1 134.1 C 99.5 134.4 102.2 135.0 105.6 135.4 C 106.3 135.7 102.7 135.2 104.9 135.6 C 105.9 135.8 105.4 135.5 106.7 135.7 C 105.4 136.6 115.9 137.1 116.5 137.6 C 117.0 137.4 119.9 137.9 119.6 137.5 C 117.6 137.6 116.3 137.1 115.3 136.8 C 113.4 136.8 117.0 137.3 115.3 137.2 C 115.1 137.0 112.6 136.8 112.9 136.6 C 115.5 136.9 111.5 136.2 113.5 136.2 C 116.0 136.6 120.9 136.8 119.7 137.0 C 119.7 136.9 118.6 136.8 118.5 136.8 C 121.2 137.2 122.9 137.2 124.1 137.1 C 125.3 137.4 130.3 137.4 129.0 137.4 C 129.5 137.7 126.1 137.2 126.5 137.4 C 131.7 137.9 131.8 137.7 135.3 138.0 C 134.2 137.7 138.9 137.7 138.4 137.8 C 138.4 138.0 139.5 138.2 141.6 138.0 C 141.3 138.3 142.4 138.4 143.5 138.4 C 144.0 138.2 142.5 138.2 142.8 138.0 C 143.8 138.0 144.9 138.1 146.0 138.1 C 146.0 138.2 145.9 138.3 146.6 138.3 C 147.8 138.1 152.0 137.9 151.6 138.0 C 149.8 138.4 154.5 138.2 151.6 138.5 C 152.4 138.5 152.5 138.6 153.5 138.5 C 153.5 138.4 153.5 138.3 153.5 138.2 C 155.8 138.1 154.7 138.6 156.7 138.5 C 156.8 138.4 157.7 138.3 157.9 138.2 C 157.1 138.3 157.1 138.4 156.0 138.4 C 157.2 137.9 153.9 138.2 154.1 138.0 C 156.3 137.9 156.3 138.1 157.3 138.2 C 160.0 137.9 158.7 138.1 161.7 138.0 C 161.6 137.9 160.9 137.9 161.0 137.8 C 164.6 137.7 164.2 138.2 166.7 137.8 C 166.1 137.9 163.9 138.2 165.5 138.2 C 167.1 137.9 167.6 137.6 169.7 137.4 C 169.9 137.5 169.7 137.7 170.4 137.6 C 171.3 137.5 171.4 137.2 172.2 137.1 C 172.4 137.2 173.6 137.0 174.1 136.9 C 174.9 137.0 173.8 137.2 174.8 137.1 C 176.6 137.0 177.5 136.3 179.0 136.2 C 179.0 136.5 180.6 136.2 182.1 136.0 C 182.4 136.3 185.5 135.8 187.6 135.6 C 187.1 135.4 189.3 135.2 188.7 135.0 C 187.7 135.1 187.2 135.2 187.0 135.1 C 189.3 134.7 190.1 135.1 191.8 134.4 C 192.7 134.4 193.8 134.4 195.4 134.2 C 195.6 134.0 192.6 134.4 194.2 134.1 C 194.3 134.2 194.8 134.0 195.3 133.9 C 195.2 134.2 196.4 134.0 197.2 134.0 C 198.6 133.6 201.5 133.3 200.1 133.3 C 202.3 132.8 201.0 133.5 202.6 133.2 C 201.7 133.0 204.5 132.4 203.1 132.5 C 205.3 132.0 205.2 132.4 204.3 132.7 C 206.4 132.4 206.8 132.0 207.8 131.9 C 206.8 131.9 209.8 131.1 208.3 131.6 C 207.9 131.9 210.2 131.2 210.7 131.2 C 209.9 131.2 210.9 131.0 209.5 131.2 C 211.0 130.8 213.2 130.2 214.6 130.0 C 216.4 129.4 218.1 128.9 217.4 129.3 C 219.1 128.8 218.5 129.0 220.2 128.5 C 220.2 128.4 219.7 128.6 219.6 128.5 C 221.9 127.8 221.5 128.1 224.5 127.1 C 224.3 127.6 226.2 126.9 226.8 126.9 C 225.6 127.3 224.6 127.5 223.5 127.8 C 223.4 128.0 224.4 127.7 223.6 128.0 C 223.5 128.0 223.0 128.1 222.5 128.2 C 224.5 127.8 220.1 129.4 221.4 128.7 C 221.4 128.8 221.6 128.8 222.0 128.6 C 221.5 128.5 221.6 128.6 221.9 128.3 C 220.9 128.6 220.0 128.6 219.7 128.9 C 219.8 129.0 220.7 128.7 220.8 128.7 C 218.4 129.7 220.0 128.7 218.0 129.3 C 217.7 129.7 218.7 129.5 219.2 129.5 C 217.4 130.0 215.8 130.5 215.3 130.4 C 213.6 131.0 215.5 130.6 214.3 131.0 C 213.6 131.1 213.6 130.9 212.5 131.2 C 211.2 131.6 213.2 131.2 212.0 131.6 C 210.6 131.8 212.8 131.0 210.7 131.5 C 211.3 131.7 208.8 131.9 209.0 132.1 C 210.2 131.7 210.3 132.1 209.7 132.0 C 206.8 132.4 205.0 133.7 202.1 133.7 C 202.1 133.8 201.6 133.9 201.5 134.0 C 203.7 133.7 206.8 133.0 207.5 133.3 C 209.1 132.8 208.9 132.6 209.1 132.4 C 211.2 132.3 211.0 132.4 209.9 133.0 C 206.6 133.9 205.1 134.0 202.9 134.4 C 201.7 134.8 203.0 134.4 203.5 134.5 C 196.5 135.7 201.9 135.3 199.4 135.7 C 199.4 135.6 198.9 135.6 198.2 135.7 C 198.2 135.8 197.2 136.0 197.0 136.1 C 197.5 136.0 197.7 136.0 197.6 136.2 C 195.9 136.6 196.5 136.2 196.4 136.1 C 197.8 135.8 198.6 135.6 198.8 135.4 C 197.0 135.9 195.7 135.9 194.6 136.4 C 192.9 136.3 195.3 135.5 194.4 135.4 C 194.7 135.2 193.4 136.2 192.1 136.6 C 190.0 136.9 189.9 137.2 187.9 137.5 C 187.3 137.3 189.9 137.0 189.7 136.9 C 189.1 137.0 189.0 136.9 188.4 137.0 C 187.0 137.2 187.2 137.4 186.0 137.7 C 185.4 137.5 185.1 137.7 184.3 137.9 C 182.9 138.0 185.0 137.6 183.6 137.7 C 182.1 137.9 181.0 138.3 180.5 138.4 C 180.4 138.3 180.6 138.1 179.9 138.2 C 178.2 138.6 177.7 138.6 179.9 138.5 C 178.0 138.7 177.2 138.9 177.5 139.1 C 180.4 138.8 181.1 138.7 182.5 138.9 C 183.0 138.5 183.9 138.6 184.9 138.5 C 184.2 138.2 186.2 138.3 186.8 138.0 C 186.0 138.1 185.3 138.2 184.9 138.1 C 188.0 137.7 187.9 137.8 190.3 137.0 C 190.3 137.1 190.7 137.1 191.0 137.2 C 190.2 137.4 188.0 137.6 188.0 137.9 C 189.7 137.9 190.3 137.4 192.3 137.3 C 193.1 137.0 190.6 137.3 192.2 137.0 C 193.0 137.1 194.0 137.0 195.3 136.9 C 196.6 136.6 197.2 136.4 198.2 136.1 C 198.4 136.2 198.5 136.3 199.5 136.0 C 199.4 136.0 198.4 136.1 199.4 135.8 C 202.6 135.5 204.8 135.3 207.8 134.4 C 206.7 134.6 204.2 134.9 205.4 134.6 C 206.8 134.5 208.6 133.7 210.1 133.6 C 210.5 133.6 208.3 133.9 208.9 134.2 C 210.3 133.9 211.2 133.7 211.8 133.6 C 211.8 133.4 213.4 133.1 212.9 133.0 C 211.8 133.2 211.6 133.6 211.2 133.6 C 212.0 132.7 215.5 132.7 217.6 132.1 C 218.9 131.6 216.5 132.2 218.1 131.7 C 219.0 131.3 219.7 131.7 218.2 132.2 C 217.1 132.4 216.8 132.8 216.5 132.6 C 216.0 132.7 215.4 132.9 215.4 133.0 C 216.2 132.8 216.0 133.0 216.6 132.9 C 215.4 133.2 215.4 133.7 214.3 133.7 C 215.0 133.5 215.2 133.4 215.5 133.2 C 212.4 134.1 211.4 134.2 209.6 134.5 C 210.6 134.4 209.6 134.6 209.7 134.8 C 211.0 134.4 213.6 133.9 212.0 134.4 C 211.0 134.3 210.3 135.3 209.2 135.2 C 210.0 135.0 209.8 134.9 210.3 134.7 C 209.1 135.0 209.1 134.8 207.9 135.0 C 204.1 136.3 201.1 136.3 194.9 138.0 C 192.7 138.3 196.8 137.5 196.6 137.3 C 196.0 137.4 195.9 137.4 195.4 137.5 C 195.4 137.7 194.3 137.6 193.6 138.0 C 193.7 137.7 190.7 138.5 189.3 138.5 C 189.2 138.6 189.4 138.7 188.7 138.8 C 184.2 139.1 176.0 140.5 172.5 140.6 C 172.7 140.8 171.1 140.9 170.7 141.1 C 168.5 141.2 169.5 140.9 166.3 141.4 C 164.7 141.6 166.6 141.2 166.9 141.1 C 162.1 141.6 157.9 141.5 154.8 141.9 C 153.3 142.0 154.8 141.7 151.7 141.7 C 151.6 142.1 146.7 141.6 146.0 142.0 C 144.0 142.0 140.6 141.5 142.1 141.9 C 139.5 141.9 141.3 141.5 140.2 141.5 C 138.4 141.5 140.7 142.1 138.9 142.1 C 139.1 141.9 137.6 141.9 136.4 141.6 C 137.8 141.7 138.8 141.7 139.0 141.6 C 137.7 141.7 137.8 141.5 135.8 141.5 C 134.3 141.6 130.0 141.6 128.8 141.1 C 128.8 141.2 129.1 141.3 129.4 141.4 C 128.2 141.4 126.7 141.0 126.9 141.3 C 124.1 141.1 122.9 140.8 121.2 140.9 C 120.0 140.9 121.7 140.7 118.1 140.3 C 118.0 140.6 111.7 139.8 110.0 139.4 C 109.9 139.8 109.6 139.4 108.8 139.3 C 108.7 139.3 108.8 139.5 108.1 139.4 C 108.0 139.3 107.4 139.3 106.9 139.3 C 107.4 138.9 104.6 139.0 104.5 138.7 C 105.0 138.8 105.0 138.6 104.5 138.5 C 104.3 138.7 101.8 137.9 102.0 138.2 C 102.6 138.4 104.3 138.6 103.8 138.7 C 101.4 138.4 102.4 138.3 100.8 138.0 C 100.9 138.1 101.8 138.3 100.8 138.2 C 99.1 137.9 100.6 138.2 99.6 137.8 C 98.7 137.7 97.1 137.6 96.5 137.5 C 96.7 137.5 96.2 137.3 96.0 137.2 C 92.9 136.5 85.9 135.3 83.0 134.3 C 82.8 134.3 82.1 134.2 82.3 134.4 C 80.6 133.9 80.7 134.0 78.9 133.4 C 78.9 133.5 78.9 133.6 78.8 133.7 C 76.5 133.2 78.7 133.3 77.2 132.9 C 76.9 133.4 76.4 132.5 75.0 132.1 C 74.8 132.2 74.1 132.1 74.3 132.3 C 72.1 131.6 72.4 131.3 70.5 130.9 C 70.9 131.0 71.0 131.9 70.7 132.0 C 70.4 131.8 69.9 131.6 69.1 131.3 C 70.2 131.4 69.9 130.3 67.2 129.7 C 68.6 130.2 69.2 130.4 68.8 130.5 C 66.8 129.9 66.1 129.5 64.5 128.9 C 64.1 129.0 65.3 129.5 64.8 129.6 C 64.4 129.5 64.2 129.4 64.2 129.6 C 62.5 128.9 62.5 128.7 60.5 128.1 C 60.6 128.0 61.0 128.1 61.6 128.5 C 61.6 128.2 61.6 128.1 62.8 128.5 C 62.9 128.7 62.1 128.7 63.8 129.2 C 63.8 129.0 63.9 128.9 63.9 128.8 C 62.7 128.3 60.0 127.1 59.7 127.2 C 60.2 127.5 61.1 127.8 60.6 127.9 C 58.6 127.1 58.1 126.6 56.6 125.8 C 53.7 124.8 49.0 122.5 49.4 123.1 C 47.8 122.3 48.1 122.4 45.9 121.3 C 46.5 121.8 43.5 120.2 43.6 120.5 C 46.2 121.7 45.4 121.4 48.1 122.6 C 48.0 122.7 47.5 122.6 46.4 122.2 C 46.3 122.0 45.3 121.4 43.6 120.5 C 43.8 120.7 45.3 121.8 43.4 120.8 C 43.3 120.7 42.9 120.4 42.1 120.0 C 42.1 119.9 42.2 119.8 42.3 119.7 C 43.3 120.1 44.5 120.7 45.2 120.9 C 44.5 120.6 44.4 120.4 43.8 120.1 C 43.3 120.0 40.5 118.3 40.3 118.4 C 41.4 119.0 42.1 119.5 40.8 118.9 C 40.7 118.7 38.9 117.6 38.1 117.3 C 40.4 118.8 39.5 118.3 40.6 119.2 C 37.9 117.7 38.4 117.7 35.4 115.9 C 35.5 115.7 35.6 115.6 36.4 116.0 C 34.7 114.4 30.5 112.0 29.2 111.0 C 30.1 111.7 31.3 112.2 30.0 111.2 C 29.9 111.3 29.0 110.5 28.7 110.4 C 28.0 110.5 29.0 111.5 29.9 112.5 C 28.8 111.7 28.5 111.6 27.6 110.9 C 27.4 110.5 28.6 111.0 27.4 110.0 C 26.9 110.1 25.2 108.2 24.6 108.1 C 25.4 108.8 25.9 109.3 25.0 108.7 C 25.3 108.6 23.6 107.3 23.6 107.2 C 25.0 108.2 25.5 108.3 26.4 109.1 C 25.3 108.2 27.3 109.6 25.5 108.0 C 24.6 107.5 24.0 107.3 22.3 105.7 C 21.7 105.1 22.4 105.4 21.6 104.6 C 21.7 105.0 19.8 103.3 21.1 104.2 C 20.5 103.6 20.2 103.2 19.9 102.8 C 20.5 103.9 16.4 99.7 16.9 100.5 C 17.1 100.3 17.2 99.9 17.0 99.6 C 16.1 98.9 15.5 97.8 13.8 95.4 C 13.7 95.7 13.6 95.1 12.9 94.1 C 12.7 94.0 13.2 94.9 12.7 94.2 C 12.1 93.0 12.1 92.9 12.0 92.6 C 11.6 91.8 11.2 91.1 11.1 90.7 C 11.0 90.7 11.1 91.0 11.1 91.2 C 9.7 87.8 8.8 86.2 8.1 83.3 C 8.3 84.6 8.7 84.7 8.4 83.7 C 8.2 83.1 8.1 82.6 7.9 82.3 C 7.8 83.0 7.9 82.7 7.6 81.3 C 7.3 80.0 7.3 81.8 7.1 80.8 C 7.1 79.7 7.3 80.4 7.3 79.7 C 7.2 79.2 7.1 78.7 7.1 78.2 C 7.0 79.2 6.8 78.1 6.6 77.2 C 7.0 77.9 7.0 77.5 6.8 75.7 C 6.9 75.5 7.0 76.4 7.0 75.7 C 7.1 75.3 6.7 73.9 7.0 72.6 C 7.0 73.0 7.0 73.2 7.1 73.1 C 7.0 71.8 7.5 70.8 7.7 69.6 C 7.4 70.7 7.3 70.1 7.0 70.6 C 7.4 69.4 7.4 67.9 7.9 67.0 C 7.4 68.7 8.3 67.2 8.6 66.1 C 8.4 65.8 8.1 67.6 7.9 67.0 C 7.8 66.4 8.5 65.2 8.5 64.5 C 8.3 64.6 8.3 65.3 8.1 65.5 C 8.4 64.5 7.9 65.7 8.1 64.9 C 8.5 64.5 8.3 63.9 8.5 63.4 C 8.8 62.8 9.6 61.6 9.7 61.0 C 9.6 60.9 9.2 61.8 9.1 61.9 C 10.0 59.1 10.8 58.5 11.9 55.9 C 12.1 55.7 12.5 55.3 13.0 54.6 C 12.8 54.6 13.0 54.1 13.4 53.5 C 14.1 52.6 15.0 51.6 16.0 50.4 C 16.0 50.8 15.6 51.4 17.0 49.7 C 17.0 49.5 16.4 50.3 16.9 49.6 C 16.9 49.6 17.3 49.2 17.3 49.1 C 17.2 49.1 17.2 49.0 17.1 49.0 C 16.7 49.5 16.4 49.9 16.0 50.4 C 15.9 50.3 15.7 50.3 15.4 50.7 C 16.9 48.5 17.2 49.0 18.2 47.5 C 18.7 47.6 19.1 47.2 18.3 48.5 C 19.3 47.3 19.9 46.4 20.1 46.0 C 18.8 47.3 19.0 46.7 18.6 47.0 C 19.4 46.1 19.3 46.0 19.7 45.6 C 20.8 44.7 19.0 46.9 20.9 45.0 C 19.2 46.2 22.0 43.6 23.1 42.7 C 22.9 42.7 22.5 43.1 23.0 42.5 C 25.8 39.7 26.1 40.6 27.7 38.8 C 27.7 39.0 28.6 38.3 29.0 38.1 C 27.4 39.4 27.1 39.8 26.4 40.3 C 26.6 40.3 27.1 40.0 27.6 39.6 C 27.5 39.5 27.9 39.2 28.6 38.7 C 29.0 38.2 28.6 38.1 29.8 36.9 C 30.0 36.9 29.9 37.1 30.6 36.7 C 31.1 36.0 30.3 37.3 33.1 35.3 C 32.6 35.6 32.2 35.7 32.3 35.3 C 33.7 34.3 33.4 34.6 35.4 33.3 C 36.3 33.1 34.3 34.5 33.9 35.1 C 35.1 34.2 36.1 33.2 37.6 32.5 C 36.5 33.1 37.4 32.3 38.7 31.4 C 39.9 30.8 38.8 31.8 40.3 31.0 C 41.4 30.3 41.9 29.8 40.7 30.3 C 43.3 28.9 42.6 29.0 44.9 27.9 C 45.0 28.0 44.4 28.3 43.5 28.7 C 43.7 28.7 43.5 29.0 44.3 28.5 C 45.7 27.6 48.9 26.0 50.1 25.3 C 52.5 24.7 54.9 23.1 57.3 22.3 C 56.4 22.9 60.4 21.1 61.6 21.0 C 62.3 20.6 64.4 19.3 63.6 19.8 C 63.9 20.1 65.3 19.5 66.5 19.2 C 66.4 19.1 66.4 19.0 66.4 19.0 C 68.8 18.1 69.4 18.2 70.3 18.1 C 73.3 17.0 76.7 16.4 80.5 15.1 C 81.5 15.2 82.3 14.9 84.7 14.5 C 84.6 14.3 86.4 13.9 88.1 13.5 C 87.7 13.3 89.3 13.1 89.2 12.9 C 87.7 13.2 88.2 12.8 87.4 12.9 C 89.5 12.7 90.4 12.0 92.1 11.9 C 90.1 12.4 89.5 12.9 89.3 13.3 C 91.7 12.7 93.0 12.6 93.6 12.7 C 93.7 12.5 93.4 12.4 92.8 12.4 C 93.7 12.2 94.5 12.1 95.2 11.9 C 95.5 12.0 94.4 12.3 95.3 12.2 C 95.8 12.0 96.5 11.8 97.1 11.6 C 97.8 11.7 96.1 12.0 95.9 12.1 C 99.2 11.6 97.7 11.4 99.4 11.0 C 100.0 11.1 99.9 11.4 101.4 11.2 C 101.9 10.9 102.1 10.7 103.7 10.4 C 104.8 10.3 103.7 10.8 105.0 10.6 C 105.2 10.5 105.7 10.5 106.3 10.4 C 106.2 10.3 106.7 10.2 107.4 10.0 C 107.6 10.1 108.8 9.9 109.3 9.8 C 109.4 9.9 111.4 9.9 111.8 9.7 C 111.8 9.6 110.7 9.8 110.6 9.7 C 112.0 9.5 112.9 9.4 113.6 9.2 C 114.1 9.7 116.4 9.0 119.3 9.0 C 121.0 8.7 118.9 8.7 121.1 8.3 C 122.5 8.4 120.8 8.6 121.2 8.8 C 121.5 8.8 123.6 8.8 123.7 8.6 C 123.7 8.5 122.6 8.6 122.4 8.5 C 124.1 8.2 124.0 8.5 125.0 8.5 C 124.8 8.3 125.9 8.2 126.2 8.0 C 130.7 7.5 130.7 8.0 132.6 8.1 C 132.6 8.0 133.7 8.0 133.8 7.9 C 132.5 8.0 130.8 7.9 132.5 7.8 C 132.2 7.9 134.9 7.7 135.1 7.6 C 134.8 7.5 133.1 7.6 133.8 7.3 C 136.2 7.1 135.2 7.7 137.0 7.4 C 137.2 7.5 136.1 7.6 135.7 7.6 C 136.4 7.6 137.5 7.6 137.6 7.7 C 136.7 7.8 136.7 8.0 136.3 8.1 C 137.6 7.9 139.8 8.0 138.2 7.7 C 140.8 7.7 143.2 7.5 141.5 7.3 C 143.5 7.2 142.3 7.6 144.0 7.4 C 143.8 7.7 143.3 7.8 144.6 8.0 C 144.9 7.9 146.0 7.8 145.9 7.6 C 148.9 7.6 149.8 7.9 151.0 8.1 C 149.9 7.7 151.4 8.1 152.9 7.8 C 153.8 8.0 152.9 8.2 155.4 8.2 C 152.8 7.8 158.5 8.2 157.3 7.8 C 160.5 8.1 160.4 8.1 163.7 8.4 C 163.4 8.5 162.6 8.6 161.1 8.5 C 162.1 8.4 158.4 8.2 158.6 8.3 C 158.6 8.4 158.6 8.4 158.6 8.5 C 161.0 8.6 162.6 8.7 163.7 8.9 C 164.2 8.8 165.3 8.7 164.9 8.4 C 167.2 8.9 169.6 8.6 170.6 9.0 C 169.8 8.9 169.1 8.9 169.3 9.1 C 170.2 9.1 171.3 9.1 171.2 8.9 C 169.4 8.7 169.0 8.6 168.1 8.7 C 168.9 8.6 166.3 8.3 168.1 8.3 C 168.1 8.7 171.9 8.4 170.6 8.6 C 168.6 8.6 172.9 9.0 173.1 9.2 C 173.1 9.2 173.1 9.2 173.1 9.2 Z M 208.5 134.9 C 210.2 134.4 208.0 134.7 206.7 135.0 C 207.1 135.0 207.3 135.0 207.3 135.2 C 207.8 135.0 208.3 134.8 208.5 134.9 C 208.5 134.9 208.5 134.9 208.5 134.9 Z M 188.8 135.1 C 188.2 135.5 191.2 134.9 192.4 134.7 C 192.1 134.7 191.6 134.7 192.4 134.6 C 191.1 134.6 190.7 135.1 188.8 135.1 C 188.8 135.1 188.8 135.1 188.8 135.1 Z M 119.6 137.9 C 120.1 137.9 121.3 137.9 121.4 138.1 C 122.1 138.1 122.0 138.0 122.1 137.9 C 123.6 138.0 121.7 138.2 124.0 138.3 C 124.9 137.9 120.1 137.4 119.6 137.9 C 119.6 137.9 119.6 137.9 119.6 137.9 Z M 149.0 11.6 C 149.9 11.8 147.8 11.9 148.4 12.2 C 151.9 12.0 149.2 11.6 154.0 11.8 C 153.7 11.8 153.3 11.7 153.4 11.6 C 151.1 11.7 151.0 11.8 151.5 11.4 C 150.5 11.4 150.2 11.9 149.0 11.6 C 149.0 11.6 149.0 11.6 149.0 11.6 Z M 193.2 16.5 C 192.9 16.4 192.6 16.3 192.7 16.2 C 191.2 16.1 191.5 16.2 189.7 15.8 C 189.8 16.2 191.7 16.4 193.2 16.5 C 193.2 16.5 193.2 16.5 193.2 16.5 Z M 279.9 71.6 C 279.9 71.9 279.9 72.2 280.0 72.5 C 280.1 72.3 280.5 73.0 280.3 71.6 C 280.2 71.5 280.2 71.8 280.3 72.0 C 280.1 71.8 280.1 71.1 279.9 71.2 C 280.0 71.6 279.9 71.6 279.9 71.6 C 279.9 71.6 279.9 71.6 279.9 71.6 Z M 263.9 106.6 C 265.7 104.8 260.6 108.3 263.9 106.6 C 263.9 106.6 263.9 106.6 263.9 106.6 C 263.9 106.6 263.9 106.6 263.9 106.6 Z M 269.7 105.3 C 269.8 105.3 270.2 104.9 270.1 104.9 C 271.7 103.5 270.3 105.0 271.3 104.3 C 272.3 103.0 270.4 104.6 271.8 103.0 C 271.4 103.2 270.6 104.5 269.7 105.3 C 269.7 105.3 269.7 105.3 269.7 105.3 Z M 25.7 40.6 C 24.4 41.8 24.2 42.4 24.1 42.8 C 25.0 42.0 25.8 41.3 26.2 41.2 C 27.9 39.6 24.9 42.0 24.6 42.2 C 24.6 41.9 25.9 40.8 25.7 40.6 C 25.7 40.6 25.7 40.6 25.7 40.6 Z M 21.4 44.6 C 21.0 45.2 20.3 46.0 20.4 46.2 C 21.1 45.4 21.3 45.4 21.4 45.4 C 22.0 44.6 21.0 45.4 21.4 44.6 C 21.4 44.6 21.4 44.6 21.4 44.6 Z M 30.3 37.5 C 29.5 38.0 29.9 38.0 29.9 38.1 C 30.9 37.4 31.2 37.3 32.2 36.6 C 32.2 36.5 32.1 36.4 32.1 36.4 C 31.2 37.0 31.2 37.1 30.4 37.7 C 30.3 37.6 30.3 37.5 30.3 37.5 C 30.3 37.5 30.3 37.5 30.3 37.5 Z M 17.9 48.9 C 15.8 51.2 15.4 52.6 14.6 54.4 C 15.8 52.6 16.6 50.7 17.7 49.6 C 18.9 48.0 17.2 49.9 17.2 49.8 C 17.1 49.7 17.6 49.2 17.9 48.9 C 17.9 48.9 17.9 48.9 17.9 48.9 Z M 7.6 71.1 C 7.4 71.6 7.7 72.7 7.6 74.2 C 7.7 73.9 7.7 73.6 7.8 73.6 C 8.0 71.5 7.4 72.7 7.6 71.1 C 7.6 71.1 7.6 71.1 7.6 71.1 Z M 8.8 83.6 C 9.2 84.9 8.8 82.9 9.1 83.5 C 8.7 82.1 8.5 80.6 8.2 80.6 C 8.7 82.2 8.8 82.5 8.8 83.6 C 8.8 83.6 8.8 83.6 8.8 83.6 Z M 12.5 92.4 C 13.3 93.7 12.4 91.6 13.0 92.1 C 12.6 91.6 12.6 91.8 12.5 91.8 C 12.3 91.3 12.1 90.9 11.8 90.3 C 11.9 90.8 12.8 92.4 12.5 92.4 C 12.5 92.4 12.5 92.4 12.5 92.4 Z M 68.3 19.4 C 67.4 19.8 67.7 19.9 65.7 20.5 C 68.7 19.5 67.2 20.7 71.3 19.4 C 70.6 19.5 71.0 19.2 71.3 19.3 C 72.8 18.6 69.8 19.6 71.2 18.9 C 70.0 19.3 70.8 19.3 69.6 19.7 C 68.4 19.9 67.7 20.0 68.3 19.4 C 68.3 19.4 68.3 19.4 68.3 19.4 Z M 71.4 19.6 C 72.5 19.3 72.4 18.9 73.0 18.9 C 73.5 18.8 73.4 18.7 73.5 18.6 C 73.1 18.8 73.0 18.7 72.9 18.7 C 72.0 19.1 71.0 19.4 71.4 19.6 C 71.4 19.6 71.4 19.6 71.4 19.6 Z M 61.2 23.1 C 62.9 22.3 63.5 22.3 64.3 21.8 C 65.0 21.9 65.4 21.2 66.5 21.2 C 68.2 20.5 66.9 20.8 66.4 20.9 C 68.1 20.2 66.9 21.0 68.6 20.3 C 68.8 19.9 66.6 20.8 66.8 20.4 C 65.5 20.8 65.5 21.0 64.7 21.4 C 64.1 21.6 64.3 21.4 64.1 21.3 C 62.6 21.9 62.7 21.7 61.5 22.2 C 61.2 22.5 61.8 22.4 63.1 21.8 C 61.7 22.5 61.2 22.9 59.5 23.4 C 60.6 22.7 55.4 24.7 55.9 24.9 C 57.3 24.4 56.9 24.3 57.4 24.0 C 59.3 23.5 60.4 23.1 61.2 23.1 C 61.2 23.1 61.2 23.1 61.2 23.1 Z M 31.3 37.7 C 30.8 38.0 30.3 38.3 29.6 38.9 C 29.4 38.7 30.4 38.0 29.4 38.6 C 28.2 39.5 28.0 39.8 27.3 40.4 C 27.8 40.1 30.4 38.4 29.2 39.5 C 29.6 39.3 30.4 38.7 31.5 38.0 C 30.0 38.6 33.2 36.7 34.4 35.9 C 34.1 35.7 36.6 34.6 37.4 33.8 C 36.6 34.1 34.2 35.9 33.1 36.6 C 33.6 36.2 29.9 38.2 31.3 37.7 C 31.3 37.7 31.3 37.7 31.3 37.7 Z M 75.8 18.1 C 76.1 18.0 77.3 17.6 76.3 17.8 C 76.8 17.6 77.9 17.4 77.3 17.2 C 78.0 17.0 78.5 16.9 79.1 16.7 C 78.9 16.9 77.3 17.3 78.0 17.3 C 79.1 16.9 78.7 17.2 80.3 16.7 C 79.5 17.2 80.4 17.0 79.8 17.4 C 80.3 17.2 81.6 16.8 81.5 16.7 C 83.7 16.2 80.9 17.1 83.9 16.4 C 83.9 16.6 81.8 17.1 81.0 17.2 C 80.7 17.5 84.6 16.4 86.8 16.0 C 84.8 16.2 86.3 15.6 87.2 15.2 C 87.9 15.1 87.3 15.4 88.5 15.3 C 89.5 15.1 90.0 14.8 90.3 14.9 C 91.1 14.7 90.7 14.6 90.8 14.4 C 92.2 14.2 91.2 14.7 93.2 14.3 C 91.6 14.2 93.3 13.8 96.1 13.4 C 95.9 13.3 95.0 13.5 94.9 13.4 C 95.3 13.1 96.9 13.1 97.3 13.2 C 98.3 12.9 97.7 12.9 96.7 13.1 C 97.3 12.9 97.9 12.7 98.5 12.5 C 95.5 13.0 90.8 14.0 85.4 14.9 C 86.4 14.9 85.2 15.2 83.6 15.5 C 83.4 15.4 84.1 15.2 84.8 15.0 C 82.8 15.2 83.1 15.8 80.2 16.3 C 78.6 16.7 81.9 15.7 80.1 16.0 C 79.1 16.4 78.4 16.8 77.8 16.6 C 76.0 17.2 75.6 17.7 72.9 18.5 C 74.5 18.1 75.3 18.5 76.9 17.9 C 76.9 17.8 76.2 18.0 75.8 18.1 C 75.8 18.1 75.8 18.1 75.8 18.1 Z M 21.5 45.5 C 20.7 46.3 20.5 46.8 20.2 46.9 C 19.0 48.3 20.6 46.9 20.8 46.7 C 21.4 46.0 21.5 45.7 21.5 45.5 C 21.5 45.5 21.5 45.5 21.5 45.5 Z M 127.6 140.6 C 129.9 140.9 129.5 140.5 131.4 140.6 C 129.8 140.5 129.5 140.2 127.0 140.1 C 126.8 140.3 126.8 140.5 127.6 140.6 C 127.6 140.6 127.6 140.6 127.6 140.6 Z M 26.3 41.3 C 27.4 40.1 25.1 42.8 24.9 42.7 C 23.7 44.0 26.3 41.6 25.2 42.9 C 26.3 41.8 27.1 41.3 28.7 40.0 C 28.5 39.9 27.2 40.9 26.0 41.9 C 25.8 42.0 26.4 41.4 26.3 41.3 C 26.3 41.3 26.3 41.3 26.3 41.3 Z M 103.4 137.4 C 101.8 137.3 104.8 138.0 105.8 138.3 C 105.9 138.0 105.4 137.9 103.4 137.4 C 103.4 137.4 103.4 137.4 103.4 137.4 Z M 144.1 140.8 C 145.0 140.6 141.2 140.8 142.1 140.5 C 141.0 140.5 140.9 140.5 140.8 140.6 C 140.3 140.5 138.5 140.6 139.0 140.4 C 138.7 140.2 141.8 140.5 140.8 140.2 C 141.9 140.2 142.0 140.3 142.8 140.3 C 140.9 140.2 141.8 140.5 144.1 140.6 C 144.1 140.4 143.0 140.4 144.1 140.3 C 144.2 140.4 145.4 140.6 145.3 140.9 C 147.3 140.9 146.1 140.5 148.4 140.5 C 148.3 140.4 146.8 140.4 145.9 140.3 C 146.2 140.0 148.4 140.5 147.8 140.1 C 148.3 140.3 149.7 140.4 149.7 140.7 C 147.9 140.8 146.8 141.0 145.3 141.1 C 146.6 141.3 148.6 140.7 151.0 140.9 C 150.7 140.7 152.2 140.7 151.7 140.5 C 153.5 140.5 152.7 140.8 152.3 140.9 C 152.8 141.0 156.4 140.8 156.1 140.6 C 156.4 140.8 160.7 140.6 160.5 140.3 C 161.8 140.4 163.7 139.9 164.3 140.2 C 165.0 140.1 166.5 140.0 168.1 139.9 C 168.5 139.6 165.8 139.9 165.6 139.8 C 165.1 139.6 168.5 139.6 168.1 139.4 C 168.1 139.4 168.1 139.3 168.1 139.3 C 166.8 139.4 165.5 139.6 164.3 139.8 C 163.4 139.8 164.5 139.6 164.3 139.5 C 163.4 139.7 159.4 140.2 159.2 139.8 C 156.5 140.0 154.6 140.0 153.5 140.2 C 151.9 140.2 154.4 140.1 153.5 139.9 C 148.8 140.3 143.0 139.9 139.0 140.2 C 138.1 140.1 138.4 140.0 138.3 139.9 C 132.9 139.9 137.5 140.4 133.3 140.1 C 133.3 139.9 135.3 140.0 135.2 139.7 C 133.7 139.7 133.3 139.8 131.4 139.7 C 131.4 139.8 131.4 139.9 131.4 140.0 C 129.8 139.9 130.4 139.6 129.5 139.5 C 127.5 139.4 128.0 139.6 127.0 139.2 C 125.1 139.2 123.3 139.2 121.3 138.9 C 120.1 138.9 122.5 139.5 124.5 139.7 C 124.3 139.8 123.8 139.7 123.8 139.8 C 121.5 139.4 121.2 138.9 117.6 138.5 C 120.3 139.1 116.2 138.5 115.8 138.3 C 114.3 138.1 115.4 138.6 116.3 138.6 C 116.2 138.7 115.3 138.5 115.1 138.4 C 114.9 138.8 118.3 139.3 121.9 139.5 C 120.2 139.8 124.5 139.7 122.5 140.0 C 125.5 140.2 123.0 139.7 126.3 140.0 C 126.0 139.8 125.4 139.7 125.1 139.6 C 127.6 139.7 126.9 140.0 129.5 140.1 C 129.9 139.9 128.2 139.9 128.2 139.7 C 131.1 140.1 132.0 140.3 133.9 140.6 C 134.3 140.4 133.8 140.2 137.1 140.5 C 137.1 140.5 137.1 140.6 137.1 140.6 C 135.5 140.5 135.1 141.0 139.0 141.1 C 139.2 140.9 138.0 140.9 137.1 140.9 C 137.5 140.7 138.7 140.7 140.2 140.7 C 141.0 140.8 141.8 140.9 140.8 140.9 C 141.4 141.1 142.0 140.7 144.1 140.8 C 144.1 140.8 144.1 140.8 144.1 140.8 Z M 8.5 68.7 C 8.5 69.1 8.5 69.5 8.4 70.2 C 8.5 70.6 8.7 69.3 8.8 69.3 C 9.0 68.2 8.6 69.0 8.5 68.7 C 8.5 68.7 8.5 68.7 8.5 68.7 Z M 14.0 55.3 C 13.8 55.3 13.6 56.1 12.9 57.2 C 12.9 57.6 13.6 56.3 13.7 56.4 C 14.5 55.2 13.2 56.5 14.0 55.3 C 14.0 55.3 14.0 55.3 14.0 55.3 Z M 11.0 61.0 C 10.6 61.4 10.9 61.6 11.3 60.5 C 11.4 60.7 11.4 61.0 11.2 61.6 C 11.7 61.0 11.5 60.4 12.2 59.2 C 11.9 59.6 11.5 60.2 11.0 61.0 C 11.0 61.0 11.0 61.0 11.0 61.0 Z M 10.3 62.9 C 10.2 63.7 9.8 64.1 9.6 65.4 C 9.8 65.1 10.6 62.4 10.7 62.0 C 10.7 61.5 9.6 64.3 10.3 62.9 C 10.3 62.9 10.3 62.9 10.3 62.9 Z M 79.9 132.2 C 80.4 132.3 80.3 132.2 80.4 132.1 C 82.1 133.0 84.6 133.5 82.6 133.3 C 84.5 133.6 86.2 134.3 87.8 134.7 C 89.1 135.1 88.5 134.7 89.6 134.9 C 91.3 135.3 88.6 134.8 89.0 135.0 C 89.3 135.3 89.9 135.0 91.9 135.5 C 91.4 135.0 93.7 135.9 93.2 135.4 C 94.3 135.8 94.7 135.7 96.2 136.0 C 96.0 135.8 94.6 135.5 94.4 135.3 C 93.7 134.9 93.6 135.4 95.0 135.6 C 94.1 135.7 92.1 134.9 91.4 134.9 C 90.7 134.5 93.4 135.3 92.7 134.9 C 92.1 134.8 91.6 134.7 91.5 134.8 C 90.6 134.6 90.1 134.4 89.7 134.2 C 90.3 134.3 90.3 134.3 90.3 134.4 C 91.4 134.6 89.3 133.8 91.6 134.2 C 91.2 134.1 90.2 133.9 90.4 133.8 C 89.8 133.5 90.3 134.4 88.0 133.6 C 86.4 133.5 91.6 134.7 90.2 134.9 C 86.9 134.1 88.8 134.1 86.3 133.5 C 86.2 133.6 86.3 133.7 85.6 133.6 C 85.7 133.7 86.6 133.9 87.3 134.1 C 87.2 134.1 86.2 133.9 85.5 133.7 C 85.6 133.8 86.1 133.9 86.1 134.0 C 83.9 133.4 84.3 133.0 86.3 133.3 C 86.3 133.1 83.6 132.5 82.8 132.4 C 83.5 132.8 82.7 132.6 83.3 132.9 C 83.8 133.1 83.8 133.0 83.9 132.9 C 84.9 133.2 84.0 133.1 83.9 133.2 C 82.7 132.8 82.8 132.7 81.6 132.5 C 81.9 132.5 82.2 132.5 82.2 132.4 C 81.7 132.3 81.0 132.1 80.5 132.0 C 80.5 132.1 79.8 132.0 79.9 132.2 C 79.9 132.2 79.9 132.2 79.9 132.2 Z M 110.7 138.7 C 112.7 139.0 111.7 138.7 110.7 138.5 C 111.2 138.5 111.9 138.6 112.6 138.6 C 112.0 138.5 111.5 138.5 109.6 138.2 C 111.3 138.1 109.6 137.4 106.5 137.0 C 105.6 137.3 108.1 137.8 107.1 137.9 C 109.3 138.1 110.5 138.4 110.7 138.7 C 110.7 138.7 110.7 138.7 110.7 138.7 Z M 20.9 46.7 C 20.1 47.6 19.2 48.5 18.5 49.4 C 18.7 49.4 21.4 46.8 20.9 46.7 C 20.9 46.7 20.9 46.7 20.9 46.7 Z M 100.9 12.5 C 101.4 12.4 101.5 12.4 101.6 12.4 C 103.3 12.1 100.7 12.4 101.5 12.0 C 100.9 12.1 100.3 12.2 99.7 12.3 C 99.6 12.5 102.2 12.2 100.3 12.6 C 100.4 12.6 100.9 12.5 100.9 12.5 C 100.9 12.5 100.9 12.5 100.9 12.5 Z M 9.0 67.8 C 8.9 68.7 9.3 68.2 8.9 70.3 C 9.2 69.6 9.2 69.1 9.4 67.9 C 9.3 67.8 9.2 67.8 9.0 67.8 C 9.0 67.8 9.0 67.8 9.0 67.8 Z M 71.3 130.1 C 72.6 130.8 73.2 130.4 75.8 131.3 C 74.5 130.6 72.9 130.5 71.3 130.1 C 71.3 130.1 71.3 130.1 71.3 130.1 Z M 173.1 139.1 C 172.2 139.1 173.3 138.9 171.8 139.0 C 170.9 139.1 170.6 139.3 169.3 139.4 C 171.1 139.5 174.2 139.0 175.5 139.2 C 177.1 139.0 176.9 138.8 177.4 138.6 C 176.6 138.7 176.3 138.7 176.2 138.6 C 175.3 139.1 174.1 138.6 173.1 139.1 C 173.1 139.1 173.1 139.1 173.1 139.1 Z M 102.8 137.2 C 101.7 136.9 103.6 137.1 104.1 137.0 C 104.9 137.1 104.6 137.3 104.7 137.4 C 105.7 137.5 106.1 137.5 105.9 137.2 C 103.9 136.9 101.4 136.5 102.9 136.4 C 101.0 136.0 102.0 136.5 101.1 136.4 C 100.0 136.1 101.0 136.2 101.1 135.9 C 100.7 135.9 99.1 135.9 99.3 135.6 C 96.4 135.5 97.6 136.1 99.7 136.8 C 101.7 136.9 99.5 136.5 102.8 137.2 C 102.8 137.2 102.8 137.2 102.8 137.2 Z M 29.5 109.4 C 29.6 109.6 30.6 110.3 30.6 110.4 C 31.9 111.1 33.1 111.6 34.4 112.2 C 34.3 111.9 32.6 111.0 33.1 111.6 C 32.7 111.1 31.7 110.2 31.1 109.6 C 30.0 108.8 29.4 108.9 29.4 108.5 C 28.3 107.8 28.9 108.3 27.3 106.9 C 29.7 109.2 26.4 106.2 26.1 106.3 C 27.5 107.6 28.8 108.6 28.8 108.2 C 29.8 109.2 31.1 110.2 31.2 110.6 C 31.1 110.6 30.2 109.9 29.5 109.4 C 29.5 109.4 29.5 109.4 29.5 109.4 Z M 36.9 113.6 C 36.4 113.4 35.9 113.1 35.1 112.6 C 35.5 112.9 35.6 113.1 35.5 113.2 C 37.0 114.2 37.5 114.3 37.9 114.8 C 39.4 115.8 37.7 114.3 40.0 115.8 C 39.8 115.6 38.7 115.0 38.7 114.9 C 38.5 114.9 37.5 114.4 36.9 113.6 C 36.9 113.6 36.9 113.6 36.9 113.6 Z M 55.6 123.8 C 57.0 124.3 55.0 123.4 55.7 123.5 C 55.4 123.4 52.9 122.2 53.4 122.2 C 52.8 121.6 50.0 121.1 50.4 120.8 C 49.8 120.5 50.0 120.7 49.8 120.8 C 51.6 121.5 51.5 121.7 50.3 121.2 C 50.4 121.3 51.5 121.8 52.2 122.1 C 52.3 122.0 51.7 121.7 51.8 121.6 C 53.3 122.4 54.3 123.1 55.6 123.8 C 55.6 123.8 55.6 123.8 55.6 123.8 Z M 169.2 10.2 C 167.7 10.0 166.8 10.0 166.0 10.0 C 166.5 10.2 167.2 10.1 167.9 10.1 C 168.1 10.3 167.4 10.2 166.6 10.2 C 167.4 10.5 170.0 10.5 169.2 10.2 C 169.2 10.2 169.2 10.2 169.2 10.2 Z M 156.6 9.4 C 155.2 9.4 154.3 9.4 154.1 9.5 C 154.6 9.7 154.4 9.4 155.4 9.5 C 155.9 9.6 156.3 9.7 156.6 9.8 C 157.2 9.8 157.1 9.7 157.3 9.6 C 157.8 9.6 157.8 9.7 157.9 9.7 C 159.6 9.6 155.9 9.7 156.6 9.4 C 156.6 9.4 156.6 9.4 156.6 9.4 Z M 46.1 119.2 C 45.5 118.8 45.1 118.4 43.4 117.5 C 43.7 117.9 42.3 117.1 41.3 116.5 C 42.7 117.6 43.6 118.0 46.1 119.2 C 46.1 119.2 46.1 119.2 46.1 119.2 Z M 79.9 17.6 C 78.1 17.8 78.4 18.2 75.9 18.7 C 75.9 18.7 76.0 18.8 76.0 18.9 C 77.4 18.3 78.1 18.2 79.9 17.6 C 79.9 17.6 79.9 17.6 79.9 17.6 Z M 280.4 89.2 C 280.3 89.0 279.6 90.5 279.5 90.5 C 279.7 90.9 278.8 91.3 277.2 94.0 C 277.1 94.0 277.1 93.8 277.4 93.5 C 275.9 95.6 278.0 93.0 278.3 92.8 C 279.3 91.1 279.6 90.9 280.4 89.2 C 280.4 89.2 280.4 89.2 280.4 89.2 Z M 154.2 139.5 C 154.0 139.5 154.4 139.5 154.8 139.5 C 155.2 139.5 155.6 139.5 156.0 139.5 C 155.9 139.2 153.8 139.1 155.4 138.7 C 154.8 138.7 154.8 138.8 154.8 138.8 C 151.7 139.6 149.3 138.5 145.3 138.9 C 144.7 138.9 144.8 139.0 144.7 139.1 C 145.2 139.1 145.2 139.1 145.3 139.2 C 145.8 138.8 149.4 139.2 147.8 139.3 C 147.9 139.4 148.4 139.4 148.4 139.3 C 148.9 139.3 149.3 139.3 149.7 139.3 C 149.5 139.2 148.6 139.2 148.4 139.1 C 150.5 139.2 152.9 139.2 151.6 139.5 C 152.9 139.5 153.3 139.3 154.2 139.2 C 155.0 139.2 155.0 139.5 154.2 139.5 C 154.2 139.5 154.2 139.5 154.2 139.5 Z M 170.4 138.5 C 172.4 138.4 171.6 138.2 173.6 138.1 C 172.4 138.0 170.9 138.4 169.2 138.4 C 169.5 138.5 170.3 138.4 170.4 138.5 C 170.4 138.5 170.4 138.5 170.4 138.5 Z M 134.0 138.9 C 134.4 138.6 132.7 138.5 130.8 138.4 C 130.4 138.7 132.1 138.8 134.0 138.9 C 134.0 138.9 134.0 138.9 134.0 138.9 Z M 142.2 139.1 C 144.0 139.1 139.8 139.0 140.9 138.8 C 140.0 138.8 139.1 138.8 139.0 138.7 C 138.4 138.7 138.4 138.8 137.1 138.8 C 137.2 138.9 139.2 138.9 139.0 139.1 C 140.4 139.0 140.7 139.0 142.2 139.1 C 142.2 139.1 142.2 139.1 142.2 139.1 Z M 143.4 139.2 C 144.6 139.1 143.1 138.7 141.6 138.7 C 142.1 138.8 142.5 139.0 143.4 139.2 C 143.4 139.2 143.4 139.2 143.4 139.2 Z M 14.1 90.3 C 14.4 90.9 14.3 90.4 14.8 91.1 C 14.9 91.0 13.4 88.4 14.7 90.6 C 14.5 89.6 13.9 89.4 13.4 88.3 C 13.5 88.7 13.6 89.0 13.3 88.4 C 13.0 88.2 14.4 90.5 14.1 90.3 C 14.1 90.3 14.1 90.3 14.1 90.3 Z M 15.6 93.0 C 16.0 93.5 15.9 93.2 15.7 93.0 C 15.8 93.0 16.3 93.8 16.6 94.3 C 16.6 94.4 16.3 93.1 16.5 93.1 C 14.9 90.9 15.8 92.8 15.6 93.0 C 15.6 93.0 15.6 93.0 15.6 93.0 Z M 17.2 95.1 C 18.1 96.7 19.8 98.7 20.8 99.5 C 20.2 98.2 18.0 95.7 17.2 95.1 C 17.2 95.1 17.2 95.1 17.2 95.1 Z M 10.7 80.2 C 10.9 83.0 13.0 88.2 11.8 83.3 C 11.7 83.5 10.8 80.4 10.7 78.8 C 10.6 78.7 10.2 77.0 10.3 77.0 C 10.0 75.8 10.6 80.9 10.7 80.2 C 10.7 80.2 10.7 80.2 10.7 80.2 Z M 22.7 100.9 C 22.0 100.2 22.5 101.5 21.6 100.3 C 21.0 99.7 21.7 100.5 21.5 100.4 C 22.7 101.8 25.7 104.3 25.8 104.7 C 26.6 105.3 26.9 105.4 28.4 106.6 C 28.5 106.5 23.3 102.3 22.6 101.0 C 22.8 101.0 24.4 102.6 22.7 100.9 C 22.7 100.9 22.7 100.9 22.7 100.9 Z M 80.3 19.0 C 80.4 18.7 78.0 19.5 78.5 19.1 C 77.3 19.7 76.0 19.9 74.7 20.5 C 74.2 20.6 74.3 20.2 72.4 20.7 C 72.4 20.9 73.3 20.6 72.5 21.0 C 70.7 21.6 71.1 21.2 69.1 21.9 C 69.6 22.2 65.0 23.4 65.5 23.6 C 66.5 23.2 66.4 23.1 68.2 22.6 C 68.8 22.4 68.5 22.6 69.3 22.4 C 68.8 22.8 67.8 22.7 67.2 23.2 C 67.4 23.3 68.7 22.8 68.9 22.9 C 69.6 22.6 68.6 22.9 68.8 22.7 C 70.9 21.9 68.8 23.3 71.1 22.4 C 70.6 22.4 70.5 22.4 70.9 22.0 C 71.9 21.8 74.7 20.8 73.2 21.5 C 73.4 21.7 75.0 20.9 74.8 20.8 C 75.7 20.5 75.8 20.6 75.9 20.7 C 78.3 19.9 78.5 19.6 78.0 19.5 C 78.4 19.1 78.8 19.4 80.3 19.0 C 80.3 19.0 80.3 19.0 80.3 19.0 Z M 11.7 65.5 C 11.8 64.4 11.4 66.7 11.1 67.8 C 11.4 66.5 11.6 67.0 12.1 65.6 C 11.8 66.1 11.8 66.0 12.1 65.1 C 12.0 64.8 11.3 66.8 11.7 65.5 C 11.7 65.5 11.7 65.5 11.7 65.5 Z M 31.5 109.0 C 32.0 109.6 35.0 111.6 36.7 112.7 C 36.6 112.2 32.4 110.0 32.2 109.3 C 31.3 108.7 32.6 109.8 31.5 109.0 C 31.5 109.0 31.5 109.0 31.5 109.0 Z M 59.6 25.3 C 59.1 25.5 59.4 25.5 59.7 25.4 C 59.5 25.5 58.4 25.9 57.7 26.3 C 58.8 26.0 57.5 26.6 57.8 26.7 C 57.2 26.9 57.0 27.1 56.9 27.2 C 56.7 26.8 53.8 28.7 57.0 27.5 C 56.3 27.5 56.6 27.4 57.9 26.8 C 59.4 26.4 60.4 25.7 61.0 25.8 C 62.0 25.4 62.3 25.1 63.5 24.7 C 63.9 24.8 65.1 24.4 64.3 25.1 C 66.5 24.3 64.8 24.3 66.7 23.6 C 68.6 23.1 65.9 24.1 66.4 24.2 C 66.8 24.0 66.7 24.2 66.9 24.2 C 67.6 23.9 67.5 23.7 66.8 23.9 C 67.0 23.8 68.8 23.0 68.4 23.4 C 69.5 22.9 66.5 23.3 65.1 24.0 C 64.2 24.4 64.1 23.9 65.0 23.7 C 64.6 23.6 63.0 24.7 63.3 24.1 C 62.6 24.3 61.9 24.6 61.2 24.9 C 61.4 24.9 61.8 24.7 61.8 24.8 C 61.1 25.1 60.4 25.3 59.7 25.6 C 60.3 25.3 60.3 25.2 59.6 25.3 C 59.6 25.3 59.6 25.3 59.6 25.3 Z M 25.1 103.6 C 26.2 104.7 26.6 104.8 27.6 105.6 C 27.3 105.1 24.7 102.9 25.1 103.6 C 25.1 103.6 25.1 103.6 25.1 103.6 Z M 90.2 17.3 C 90.0 17.3 89.0 17.5 89.0 17.4 C 90.8 17.0 88.7 17.3 90.0 16.6 C 87.7 17.3 87.1 18.0 90.2 17.5 C 92.5 17.0 87.9 17.9 90.2 17.3 C 90.2 17.3 90.2 17.3 90.2 17.3 Z M 83.2 18.8 C 81.9 19.3 85.4 18.5 86.2 18.4 C 86.2 18.5 86.2 18.6 86.2 18.6 C 88.1 17.8 85.4 18.3 87.1 17.4 C 84.9 17.8 83.9 18.0 82.0 18.6 C 82.1 18.7 82.5 18.5 82.5 18.5 C 84.0 18.1 83.1 18.7 81.5 19.0 C 82.0 19.0 83.3 18.6 84.4 18.4 C 84.1 18.4 83.7 18.5 83.7 18.3 C 85.0 18.0 84.6 18.3 85.5 18.1 C 85.5 18.2 83.3 18.9 83.2 18.8 C 83.2 18.8 83.2 18.8 83.2 18.8 Z M 203.5 16.9 C 202.3 16.7 204.7 17.5 204.5 17.9 C 205.7 18.2 206.0 18.1 206.8 18.3 C 206.5 18.1 205.1 17.7 204.6 17.5 C 204.9 17.2 206.4 17.9 206.9 17.8 C 207.7 17.7 204.0 17.3 203.5 16.9 C 203.5 16.9 203.5 16.9 203.5 16.9 Z M 32.3 40.3 C 31.7 40.7 32.1 40.5 32.3 40.3 C 32.3 40.5 31.3 41.2 31.3 41.1 C 30.5 41.7 31.8 40.9 30.9 41.6 C 30.7 41.9 32.4 40.5 32.4 40.4 C 33.6 39.5 32.8 40.4 33.2 40.3 C 34.3 39.5 33.8 39.6 35.4 38.6 C 34.3 39.1 33.4 39.6 32.3 40.3 C 32.3 40.3 32.3 40.3 32.3 40.3 Z M 94.2 16.0 C 94.4 15.9 92.9 16.7 91.3 16.8 C 89.2 17.2 92.6 16.8 90.7 17.1 C 92.3 16.9 94.1 16.3 96.6 15.8 C 97.1 15.6 93.2 16.4 95.4 15.9 C 95.2 15.8 94.7 16.0 94.7 16.0 C 94.3 16.1 94.2 16.1 94.2 16.0 C 94.2 16.0 94.2 16.0 94.2 16.0 Z M 91.9 17.1 C 92.1 17.1 92.6 17.0 92.5 16.9 C 93.3 16.8 93.3 17.0 92.6 17.2 C 93.6 17.2 93.5 16.7 95.5 16.5 C 94.6 16.5 94.2 16.4 96.0 16.2 C 97.5 15.7 92.6 16.8 91.9 17.1 C 91.9 17.1 91.9 17.1 91.9 17.1 Z M 184.4 13.7 C 184.6 13.8 185.9 14.0 186.9 14.1 C 185.6 14.2 180.7 13.4 180.2 13.2 C 179.6 13.2 179.1 13.1 178.9 13.0 C 179.0 13.1 177.6 13.1 178.3 13.2 C 178.1 13.3 177.1 13.1 177.1 13.2 C 175.2 13.0 177.6 13.1 177.1 12.9 C 174.8 12.9 175.4 12.7 172.8 12.5 C 173.2 12.7 176.1 12.9 175.8 13.2 C 177.9 13.2 180.0 13.6 181.3 14.0 C 179.4 13.4 186.6 14.2 189.8 14.8 C 189.7 14.9 190.9 15.0 192.2 15.4 C 193.1 15.8 192.9 15.2 191.1 15.0 C 191.1 14.9 193.6 15.4 194.6 15.6 C 193.4 15.2 194.1 15.2 193.5 15.0 C 191.2 14.6 193.3 15.1 192.8 15.2 C 192.2 15.1 191.7 15.0 191.0 14.9 C 194.2 15.0 186.4 14.1 189.3 14.5 C 186.8 14.1 186.8 13.9 184.4 13.7 C 184.4 13.7 184.4 13.7 184.4 13.7 Z M 125.8 11.8 C 125.4 11.9 123.4 12.2 123.3 12.0 C 120.8 12.4 123.1 12.5 120.2 12.7 C 120.4 12.8 121.5 12.7 121.5 12.8 C 122.6 12.6 123.7 12.4 123.4 12.2 C 124.6 12.1 125.0 12.0 125.8 11.9 C 125.5 12.1 125.1 12.2 124.0 12.2 C 123.8 12.5 124.2 12.6 125.9 12.4 C 126.6 12.2 126.1 12.0 125.8 11.8 C 125.8 11.8 125.8 11.8 125.8 11.8 Z M 119.6 12.7 C 119.3 12.7 119.0 12.6 119.0 12.5 C 118.1 12.3 118.7 12.9 117.8 13.0 C 117.1 13.0 117.3 12.9 117.1 12.8 C 116.1 12.9 115.2 13.1 114.7 13.0 C 113.0 13.4 116.6 13.1 117.2 13.1 C 118.4 13.0 117.9 12.8 119.6 12.7 C 119.6 12.7 119.6 12.7 119.6 12.7 Z M 101.3 14.8 C 101.0 14.6 100.4 15.1 99.6 15.2 C 100.2 15.3 101.9 14.9 100.8 15.4 C 102.6 15.2 102.7 15.2 104.4 14.8 C 105.6 14.9 104.4 14.6 102.6 15.0 C 102.8 14.9 103.6 14.7 103.7 14.6 C 105.0 14.9 107.9 13.7 106.1 14.3 C 105.6 14.3 105.2 14.3 104.9 14.2 C 104.6 14.5 100.4 15.1 101.3 14.8 C 101.3 14.8 101.3 14.8 101.3 14.8 Z M 45.6 32.6 C 48.3 31.1 49.1 30.8 51.1 29.9 C 51.2 30.0 51.0 30.1 50.7 30.3 C 51.1 30.2 51.7 29.9 52.5 29.4 C 52.5 29.4 52.1 29.6 52.1 29.6 C 50.5 30.2 51.8 29.6 51.9 29.3 C 49.9 30.0 47.5 31.6 46.1 32.0 C 45.1 32.6 46.4 32.0 45.6 32.6 C 45.6 32.6 45.6 32.6 45.6 32.6 Z M 279.4 86.6 C 279.3 86.9 279.0 87.6 279.2 87.5 C 279.5 86.9 279.6 86.4 279.8 85.7 C 279.2 86.9 279.0 86.6 278.3 88.2 C 278.6 87.7 278.8 88.0 279.4 86.6 C 279.4 86.6 279.4 86.6 279.4 86.6 Z M 107.4 14.0 C 107.4 14.1 107.5 14.2 106.8 14.3 C 106.6 14.5 108.5 14.1 108.6 14.3 C 109.3 14.2 109.0 14.1 109.8 14.0 C 109.5 13.9 107.9 14.1 108.6 13.8 C 109.1 13.7 109.1 13.8 109.2 13.8 C 110.4 13.5 108.5 13.7 107.4 14.0 C 107.4 14.0 107.4 14.0 107.4 14.0 Z M 209.2 18.5 C 208.4 18.3 209.2 18.6 209.8 18.8 C 208.1 18.6 210.7 19.4 210.7 19.7 C 210.1 19.3 207.8 18.9 207.4 18.7 C 206.7 18.6 207.4 19.0 205.6 18.6 C 205.8 18.8 207.8 19.1 207.4 18.8 C 207.8 19.2 209.8 19.4 209.6 19.6 C 212.1 20.3 212.7 20.3 213.0 20.1 C 210.5 19.6 211.9 19.5 209.7 19.0 C 209.7 18.9 210.4 19.1 210.9 19.2 C 210.7 19.0 209.8 18.7 209.2 18.5 C 209.2 18.5 209.2 18.5 209.2 18.5 Z M 145.9 11.3 C 144.5 11.3 144.5 11.5 144.6 11.7 C 145.1 11.6 146.0 11.6 147.1 11.6 C 146.9 11.5 145.1 11.5 145.9 11.3 C 145.9 11.3 145.9 11.3 145.9 11.3 Z M 199.9 16.7 C 199.8 16.6 199.3 16.6 199.3 16.6 C 197.8 16.3 197.5 16.1 197.0 15.9 C 196.2 15.8 196.4 16.0 196.4 16.1 C 197.8 16.2 197.4 16.4 199.3 16.8 C 199.2 16.6 199.4 16.6 199.9 16.7 C 199.9 16.7 199.9 16.7 199.9 16.7 Z M 159.0 11.7 C 158.3 11.7 158.7 11.8 159.0 11.8 C 158.2 12.0 155.6 11.7 154.6 11.8 C 154.5 12.0 157.7 12.0 154.0 12.0 C 154.7 12.2 158.0 12.2 159.6 12.3 C 159.2 12.5 157.0 12.4 157.1 12.7 C 159.1 12.6 161.2 12.6 161.5 12.2 C 158.7 12.0 159.7 11.9 159.0 11.7 C 159.0 11.7 159.0 11.7 159.0 11.7 Z M 162.1 12.0 C 161.9 11.9 161.3 12.0 160.3 11.9 C 161.8 12.3 162.7 12.2 165.9 12.5 C 165.9 12.4 165.9 12.4 165.9 12.3 C 166.5 12.4 167.2 12.4 167.8 12.5 C 165.1 12.0 164.4 12.1 161.5 12.1 C 161.4 12.0 161.8 12.0 162.1 12.0 C 162.1 12.0 162.1 12.0 162.1 12.0 Z M 80.4 19.7 C 81.2 19.6 81.9 19.6 83.3 19.3 C 83.2 19.1 82.3 19.2 80.4 19.7 C 80.4 19.7 80.4 19.7 80.4 19.7 Z M 202.2 17.4 C 203.8 17.5 200.7 17.0 201.6 17.5 C 202.8 17.8 204.1 18.2 204.4 18.5 C 206.7 18.7 201.8 17.6 202.2 17.4 C 202.2 17.4 202.2 17.4 202.2 17.4 Z M 191.5 15.9 C 190.8 15.8 190.9 15.4 191.5 15.8 C 193.2 16.0 190.1 15.3 192.7 15.8 C 191.6 15.5 189.1 15.0 187.9 14.9 C 188.0 15.2 190.3 15.4 190.3 15.6 C 190.4 15.7 190.0 15.7 189.7 15.6 C 189.9 15.8 190.5 15.7 191.5 15.9 C 191.5 15.9 191.5 15.9 191.5 15.9 Z M 182.5 14.2 C 183.5 14.4 184.7 14.7 186.7 15.0 C 185.4 14.7 184.7 14.3 182.5 14.2 C 182.5 14.2 182.5 14.2 182.5 14.2 Z M 278.8 63.3 C 278.3 62.3 278.5 63.3 278.5 63.4 C 278.9 64.5 279.0 64.4 279.3 65.6 C 279.5 65.1 278.8 64.1 278.8 63.3 C 278.8 63.3 278.8 63.3 278.8 63.3 Z M 279.9 67.2 C 279.8 67.4 280.2 68.9 280.1 69.0 C 280.7 69.8 280.1 71.2 280.5 71.2 C 280.5 71.5 280.5 71.8 280.5 72.5 C 280.9 71.2 280.3 68.5 279.9 67.2 C 279.9 67.2 279.9 67.2 279.9 67.2 Z M 172.0 13.5 C 170.4 13.3 172.4 13.9 170.8 13.7 C 170.6 13.8 173.9 14.2 171.9 14.1 C 174.5 14.5 171.8 13.6 172.0 13.5 C 172.0 13.5 172.0 13.5 172.0 13.5 Z M 141.5 12.7 C 141.6 12.5 139.3 12.7 138.4 12.7 C 138.4 12.7 139.1 12.7 139.6 12.7 C 139.4 12.8 139.1 12.9 138.4 12.9 C 138.9 13.1 140.6 12.7 141.5 12.7 C 141.5 12.7 141.5 12.7 141.5 12.7 Z M 175.5 9.7 C 176.5 10.0 177.9 10.3 178.6 10.1 C 179.7 10.4 177.9 10.3 179.2 10.6 C 180.9 10.6 180.1 10.8 182.9 11.0 C 182.3 11.2 184.4 11.5 184.7 11.7 C 183.6 11.6 182.2 11.2 181.6 11.3 C 182.6 11.4 182.0 11.6 181.6 11.4 C 179.7 11.0 183.9 11.4 181.6 10.9 C 180.9 11.2 177.7 10.2 175.5 10.0 C 176.4 9.9 173.9 9.5 175.5 9.7 C 175.5 9.7 175.5 9.7 175.5 9.7 Z M 186.6 11.5 C 188.1 11.7 188.8 12.3 188.3 12.3 C 188.4 12.2 186.7 11.9 186.5 12.0 C 186.9 12.0 187.3 12.1 187.1 12.2 C 184.4 11.7 185.4 11.7 184.8 11.4 C 186.3 11.5 186.7 11.7 187.2 11.7 C 186.9 11.6 186.5 11.6 186.6 11.5 C 186.6 11.5 186.6 11.5 186.6 11.5 Z M 216.7 21.9 C 216.5 21.7 216.1 21.8 215.6 21.7 C 215.5 21.3 212.6 21.0 212.3 20.7 C 213.0 20.8 214.4 21.2 215.1 21.2 C 214.4 21.0 214.2 20.9 213.4 20.8 C 213.6 20.6 215.3 21.1 215.8 21.0 C 215.9 21.2 216.7 21.2 216.9 21.4 C 214.7 20.9 217.9 22.3 216.7 21.9 C 216.7 21.9 216.7 21.9 216.7 21.9 Z M 157.8 12.9 C 157.5 13.2 160.1 13.8 157.7 14.0 C 157.2 13.8 156.9 13.6 157.1 13.3 C 155.6 13.4 154.9 13.2 154.0 13.4 C 151.1 12.6 156.2 13.5 157.8 12.9 C 157.8 12.9 157.8 12.9 157.8 12.9 Z M 147.7 13.0 C 148.3 12.7 146.9 12.7 147.1 12.6 C 148.3 12.7 152.2 12.5 150.9 12.7 C 149.6 12.7 149.6 13.0 147.7 13.0 C 147.7 13.0 147.7 13.0 147.7 13.0 Z M 65.5 125.9 C 63.8 125.4 63.1 124.7 64.1 124.9 C 63.6 125.0 66.2 125.8 65.5 125.9 C 65.5 125.9 65.5 125.9 65.5 125.9 Z M 8.5 85.4 C 8.8 86.9 9.3 87.7 9.2 87.9 C 8.5 86.5 8.8 86.6 8.3 85.4 C 8.2 85.3 7.9 84.6 8.0 84.4 C 8.2 85.1 8.3 84.9 8.5 85.4 C 8.5 85.4 8.5 85.4 8.5 85.4 Z M 109.3 9.7 C 109.1 9.6 108.3 9.6 108.6 9.4 C 110.5 9.3 112.6 8.8 114.2 8.5 C 114.2 8.6 114.2 8.7 114.2 8.8 C 111.2 9.1 110.5 9.4 109.3 9.7 C 109.3 9.7 109.3 9.7 109.3 9.7 Z M 105.5 9.7 C 105.2 9.9 106.3 10.0 104.9 10.2 C 105.0 10.0 102.6 10.1 103.7 9.9 C 104.1 10.0 104.6 9.9 105.5 9.7 C 105.5 9.7 105.5 9.7 105.5 9.7 Z M 210.0 15.4 C 211.4 15.7 209.4 15.0 209.5 14.9 C 210.5 15.2 211.9 15.5 212.3 15.8 C 211.3 15.5 210.5 15.7 210.0 15.4 C 210.0 15.4 210.0 15.4 210.0 15.4 Z M 187.8 11.6 C 184.7 11.2 186.1 10.9 183.0 10.5 C 184.3 10.5 187.1 10.9 188.0 10.8 C 187.8 11.0 188.6 11.1 188.5 11.2 C 187.4 11.1 187.2 10.9 186.1 10.8 C 186.4 11.1 186.5 11.0 186.0 11.2 C 186.8 11.3 187.4 11.3 187.9 11.4 C 187.6 11.5 188.7 11.7 187.8 11.6 C 187.8 11.6 187.8 11.6 187.8 11.6 Z M 209.3 15.8 C 210.5 16.1 211.4 16.6 210.4 16.4 C 210.2 16.2 209.4 16.2 209.2 16.0 C 210.9 16.3 207.9 15.6 208.7 15.5 C 209.7 15.8 210.1 15.8 209.9 15.6 C 210.6 15.8 211.6 16.0 211.6 16.1 C 211.2 16.0 210.5 15.8 210.5 15.9 C 210.8 16.0 211.2 16.1 211.0 16.1 C 210.0 15.9 209.6 15.8 209.3 15.8 C 209.3 15.8 209.3 15.8 209.3 15.8 Z M 201.1 14.0 C 202.7 14.4 202.8 14.6 203.4 14.9 C 201.2 14.4 200.9 14.0 199.3 13.5 C 201.1 13.9 203.0 14.0 203.5 14.3 C 202.7 14.2 201.2 13.9 201.1 14.0 C 201.1 14.0 201.1 14.0 201.1 14.0 Z M 221.6 129.5 C 220.3 129.8 219.2 130.0 217.7 130.3 C 217.2 130.7 220.1 130.3 218.9 130.5 C 217.4 131.0 218.3 130.4 217.1 130.7 C 218.4 130.7 211.9 132.5 211.5 132.2 C 212.5 131.9 212.8 131.8 212.5 131.7 C 215.2 131.0 216.2 130.5 218.1 129.9 C 219.6 129.8 223.7 128.6 225.8 127.6 C 227.3 127.5 229.7 126.2 231.7 125.8 C 232.2 125.5 230.1 126.1 231.6 125.5 C 232.7 125.4 232.0 125.8 233.4 125.3 C 233.4 125.2 233.1 125.2 233.8 124.9 C 233.7 125.0 234.6 124.7 234.9 124.7 C 232.1 125.8 235.2 124.9 233.0 125.8 C 232.0 126.1 233.8 125.1 231.3 126.1 C 230.4 126.5 229.5 126.9 229.8 127.0 C 229.1 127.3 228.7 127.5 228.2 127.7 C 229.1 127.0 224.6 129.0 226.6 128.0 C 226.7 127.9 228.2 127.4 229.2 127.0 C 228.2 127.1 227.1 127.6 225.4 128.3 C 224.7 128.3 225.7 127.9 224.8 128.2 C 223.5 128.7 225.4 128.3 224.4 128.8 C 224.9 128.7 225.5 128.4 225.5 128.5 C 223.2 129.0 222.3 129.6 221.1 129.9 C 221.9 129.5 219.7 130.1 221.6 129.5 C 221.6 129.5 221.6 129.5 221.6 129.5 Z M 240.4 122.2 C 240.9 122.0 241.3 121.7 241.9 121.5 C 242.1 121.7 240.2 122.6 241.5 122.2 C 239.4 123.1 241.5 121.9 240.4 122.2 C 240.4 122.2 240.4 122.2 240.4 122.2 Z M 229.9 125.5 C 229.0 125.5 229.6 125.9 228.9 126.2 C 230.2 125.7 231.3 125.1 231.6 125.3 C 230.1 125.8 229.4 126.1 227.9 126.7 C 229.3 125.8 226.1 127.0 225.6 126.9 C 226.7 126.4 227.6 126.0 229.2 125.4 C 229.0 125.6 231.3 124.9 229.9 125.5 C 229.9 125.5 229.9 125.5 229.9 125.5 Z M 233.9 123.6 C 234.3 123.6 236.4 122.6 236.0 123.1 C 234.7 123.6 234.2 123.8 234.6 123.9 C 233.6 124.3 233.4 124.3 232.5 124.6 C 231.9 124.6 233.5 124.0 233.9 123.7 C 233.6 123.8 233.3 123.8 233.9 123.6 C 233.9 123.6 233.9 123.6 233.9 123.6 Z M 272.7 96.1 C 273.2 95.9 271.7 97.6 271.4 97.8 C 272.0 97.5 271.8 97.8 270.9 98.9 C 271.1 98.3 269.7 99.9 268.6 100.6 C 268.5 101.0 269.8 99.9 268.4 101.3 C 267.2 102.4 266.3 103.4 264.4 105.1 C 263.8 105.2 264.6 104.5 265.1 104.0 C 263.8 105.1 264.0 104.6 263.0 105.5 C 263.3 105.4 262.5 106.1 262.1 106.3 C 263.8 104.8 259.5 107.9 261.3 106.4 C 261.5 106.4 261.9 106.0 262.3 105.6 C 262.1 106.3 264.4 104.2 265.0 103.9 C 265.6 102.7 268.0 100.8 270.4 98.4 C 270.7 98.4 270.0 99.2 270.6 98.6 C 270.6 98.4 271.3 97.6 271.6 97.2 C 271.6 97.4 272.0 97.1 272.4 96.6 C 272.4 96.5 272.4 96.4 272.7 96.1 C 272.7 96.1 272.7 96.1 272.7 96.1 Z M 121.6 136.3 C 121.7 135.9 117.7 135.8 116.7 135.8 C 116.9 135.4 123.8 136.1 121.6 136.3 C 121.6 136.3 121.6 136.3 121.6 136.3 Z M 145.9 137.1 C 144.9 137.1 145.6 137.3 144.7 137.3 C 144.6 137.1 142.2 137.6 142.2 137.3 C 143.4 137.1 144.1 137.1 145.9 137.1 C 145.9 137.1 145.9 137.1 145.9 137.1 Z M 168.4 136.3 C 166.6 136.5 169.4 136.4 169.1 136.5 C 167.5 136.6 165.9 136.8 166.0 136.5 C 167.4 136.5 168.2 136.1 168.4 136.3 C 168.4 136.3 168.4 136.3 168.4 136.3 Z M 134.7 136.6 C 133.2 136.5 135.7 136.2 135.9 136.4 C 134.3 136.4 137.0 136.7 138.4 136.7 C 138.3 137.0 137.7 136.9 138.4 137.1 C 136.2 137.2 138.0 136.9 136.5 136.8 C 135.5 137.0 136.6 136.9 136.5 137.2 C 135.9 137.1 135.3 137.1 134.7 137.1 C 134.7 137.0 134.7 136.8 134.7 136.7 C 135.4 136.7 136.2 136.7 135.9 136.6 C 135.3 136.6 135.2 136.6 134.7 136.6 C 134.7 136.6 134.7 136.6 134.7 136.6 Z M 245.6 116.2 C 244.5 116.7 245.5 116.4 246.3 116.0 C 246.5 115.8 246.9 115.0 248.2 114.6 C 245.7 116.2 249.2 114.5 247.8 115.4 C 247.1 115.5 245.6 116.6 244.3 117.2 C 243.6 117.3 244.8 116.3 245.6 116.2 C 245.6 116.2 245.6 116.2 245.6 116.2 Z M 250.4 113.8 C 250.2 113.8 249.8 114.0 249.0 114.5 C 249.7 113.8 248.5 114.4 249.5 113.8 C 249.5 113.9 252.9 112.1 250.9 113.3 C 249.1 114.2 251.5 113.1 252.3 112.7 C 251.4 113.2 250.0 114.3 249.7 114.2 C 250.2 114.0 250.5 113.8 250.4 113.8 C 250.4 113.8 250.4 113.8 250.4 113.8 Z M 277.5 87.3 C 277.4 87.1 277.0 87.8 276.9 88.0 C 277.9 85.9 278.6 84.1 278.9 83.0 C 278.7 84.0 278.8 84.1 279.1 83.5 C 278.7 84.6 278.7 84.9 278.4 85.2 C 278.6 84.2 278.1 86.0 277.5 87.3 C 277.5 87.3 277.5 87.3 277.5 87.3 Z M 277.5 87.3 " fill="#000000"></path><image xlink:href="../../CEFA4209-80C9-472B-8D2B-058B96531B72/assets/53DE529C9B23CC4742AB8E7F7EB62785.png" width="153.00" height="39.00" transform="matrix(1.00, 0.00, -0.00, -1.00, 71.0, 90.0)"></image><g><clipPath id="clip-992"><path d="M 10.3 10.4 L 282.8 10.4 L 282.8 138.8 L 10.3 138.8 Z M 10.3 10.4 "></path></clipPath><g clip-path="url(#clip-992)"><text xml:space="preserve" font-family="Chalkduster" font-size="32.0" fill="#000000" transform="matrix(1.00, 0.00, -0.00, -1.00, 74.0, 60.0)">N</text><text xml:space="preserve" font-family="Chalkduster" font-size="32.0" fill="#000000" transform="matrix(1.00, 0.00, -0.00, -1.00, 96.8, 60.0)">F</text><text xml:space="preserve" font-family="Chalkduster" font-size="32.0" fill="#000000" transform="matrix(1.00, 0.00, -0.00, -1.00, 120.6, 60.0)">S</text><text xml:space="preserve" font-family="Chalkduster" font-size="32.0" fill="#000000" transform="matrix(1.00, 0.00, -0.00, -1.00, 136.5, 60.0)"> </text><text xml:space="preserve" font-family="Chalkduster" font-size="32.0" fill="#000000" transform="matrix(1.00, 0.00, -0.00, -1.00, 152.4, 60.0)">t</text><text xml:space="preserve" font-family="Chalkduster" font-size="32.0" fill="#000000" transform="matrix(1.00, 0.00, -0.00, -1.00, 166.7, 60.0)">e</text><text xml:space="preserve" font-family="Chalkduster" font-size="32.0" fill="#000000" transform="matrix(1.00, 0.00, -0.00, -1.00, 187.3, 60.0)">s</text><text xml:space="preserve" font-family="Chalkduster" font-size="32.0" fill="#000000" transform="matrix(1.00, 0.00, -0.00, -1.00, 204.4, 60.0)">t</text></g></g></g></svg>