<?xml version="1.0" encoding="UTF-8" standalone="no"?><svg xmlns="http://www.w3.org/2000/svg" xmlns:xlink="http://www.w3.org/1999/xlink" clip-rule="evenodd" stroke-miterlimit="4.00" viewBox="0 0 654 430"><desc>SVG generated by Keynote</desc><defs><pattern id="FD4AE398-32BE-4B5E-8334-2BE48C825685" patternUnits="userSpaceOnUse" width="400" height="400" viewBox="0 0 400 400" patternTransform="matrix(1.000000, 0.000000, 0.000000, -1.000000, 2.000000, 177.000000)"><image xlink:href="../../DBD367A3-D10B-4655-877C-4BCDAAFCFA3E/assets/CFA53D52FE8B7C3E70EDC25518D34A22.jpeg" width="400.00" height="400.00"></image></pattern><pattern id="35E74EF2-9CE4-40E9-92D1-C1924DA944B2" patternUnits="userSpaceOnUse" width="400" height="400" viewBox="0 0 400 400" patternTransform="matrix(1.000000, 0.000000, 0.000000, -1.000000, 2.000000, 104.000000)"><image xlink:href="../../DBD367A3-D10B-4655-877C-4BCDAAFCFA3E/assets/CFA53D52FE8B7C3E70EDC25518D34A22.jpeg" width="400.00" height="400.00"></image></pattern><pattern id="264C5019-C72E-4E8C-9BD8-086D11DA112B" patternUnits="userSpaceOnUse" width="400" height="400" viewBox="0 0 400 400" patternTransform="matrix(1.000000, 0.000000, 0.000000, -1.000000, 2.000000, 31.000000)"><image xlink:href="../../DBD367A3-D10B-4655-877C-4BCDAAFCFA3E/assets/CFA53D52FE8B7C3E70EDC25518D34A22.jpeg" width="400.00" height="400.00"></image></pattern><pattern id="7F25E706-0069-4782-913D-5B6BF340C18E" patternUnits="userSpaceOnUse" width="400" height="400" viewBox="0 0 400 400" patternTransform="matrix(1.000000, 0.000000, 0.000000, -1.000000, 2.000000, 355.000000)"><image xlink:href="../../DBD367A3-D10B-4655-877C-4BCDAAFCFA3E/assets/FF12AB0386DEC36020066F1246429BA7.jpeg" width="400.00" height="400.00"></image></pattern><pattern id="C42D748B-D309-4391-B213-F5854294CA93" patternUnits="userSpaceOnUse" width="400" height="400" viewBox="0 0 400 400" patternTransform="matrix(1.000000, 0.000000, 0.000000, -1.000000, 2.000000, 282.000000)"><image xlink:href="../../DBD367A3-D10B-4655-877C-4BCDAAFCFA3E/assets/FF12AB0386DEC36020066F1246429BA7.jpeg" width="400.00" height="400.00"></image></pattern></defs><g transform="matrix(1.00, 0.00, -0.00, -1.00, 0.0, 430.0)"><g><clipPath id="clip-1003"><path d="M 2.0 177.0 L 472.0 177.0 L 472.0 147.0 L 2.0 147.0 Z M 2.0 177.0 "></path></clipPath><g clip-path="url(#clip-1003)"><g><clipPath id="clip-1004"><path d="M 1.7 -5.6 L 652.1 -5.6 L 652.1 434.9 L 1.7 434.9 Z M 1.7 -5.6 "></path></clipPath><g clip-path="url(#clip-1004)"><path d="M 2.0 147.0 L 472.0 147.0 L 472.0 177.0 L 2.0 177.0 Z M 2.0 147.0 " fill="url(#FD4AE398-32BE-4B5E-8334-2BE48C825685)"></path></g></g></g></g><g><clipPath id="clip-1005"><path d="M 2.0 104.0 L 652.0 104.0 L 652.0 74.0 L 2.0 74.0 Z M 2.0 104.0 "></path></clipPath><g clip-path="url(#clip-1005)"><g><clipPath id="clip-1006"><path d="M 1.7 -5.6 L 652.1 -5.6 L 652.1 434.9 L 1.7 434.9 Z M 1.7 -5.6 "></path></clipPath><g clip-path="url(#clip-1006)"><path d="M 2.0 74.0 L 652.0 74.0 L 652.0 104.0 L 2.0 104.0 Z M 2.0 74.0 " fill="url(#35E74EF2-9CE4-40E9-92D1-C1924DA944B2)"></path></g></g></g></g><g><clipPath id="clip-1007"><path d="M 2.0 31.0 L 624.0 31.0 L 624.0 1.0 L 2.0 1.0 Z M 2.0 31.0 "></path></clipPath><g clip-path="url(#clip-1007)"><g><clipPath id="clip-1008"><path d="M 1.7 -5.6 L 652.1 -5.6 L 652.1 434.9 L 1.7 434.9 Z M 1.7 -5.6 "></path></clipPath><g clip-path="url(#clip-1008)"><path d="M 2.0 1.0 L 624.0 1.0 L 624.0 31.0 L 2.0 31.0 Z M 2.0 1.0 " fill="url(#264C5019-C72E-4E8C-9BD8-086D11DA112B)"></path></g></g></g></g><g><clipPath id="clip-1009"><path d="M 2.0 428.0 L 362.0 428.0 L 362.0 399.0 L 2.0 399.0 Z M 2.0 428.0 "></path></clipPath><g clip-path="url(#clip-1009)"><g><clipPath id="clip-1010"><path d="M 1.7 -5.6 L 652.1 -5.6 L 652.1 434.9 L 1.7 434.9 Z M 1.7 -5.6 "></path></clipPath><g clip-path="url(#clip-1010)"><image xlink:href="../../DBD367A3-D10B-4655-877C-4BCDAAFCFA3E/assets/FF12AB0386DEC36020066F1246429BA7.jpeg" width="400.00" height="400.00" transform="matrix(1.00, 0.00, -0.00, -1.00, 2.0, 428.0)"></image></g></g></g></g><g><clipPath id="clip-1011"><path d="M 2.0 355.0 L 477.0 355.0 L 477.0 326.0 L 2.0 326.0 Z M 2.0 355.0 "></path></clipPath><g clip-path="url(#clip-1011)"><g><clipPath id="clip-1012"><path d="M 1.7 -5.6 L 652.1 -5.6 L 652.1 434.9 L 1.7 434.9 Z M 1.7 -5.6 "></path></clipPath><g clip-path="url(#clip-1012)"><path d="M 2.0 326.0 L 477.0 326.0 L 477.0 355.0 L 2.0 355.0 Z M 2.0 326.0 " fill="url(#7F25E706-0069-4782-913D-5B6BF340C18E)"></path></g></g></g></g><g><clipPath id="clip-1013"><path d="M 2.0 282.0 L 453.0 282.0 L 453.0 253.0 L 2.0 253.0 Z M 2.0 282.0 "></path></clipPath><g clip-path="url(#clip-1013)"><g><clipPath id="clip-1014"><path d="M 1.7 -5.6 L 652.1 -5.6 L 652.1 434.9 L 1.7 434.9 Z M 1.7 -5.6 "></path></clipPath><g clip-path="url(#clip-1014)"><path d="M 2.0 253.0 L 453.0 253.0 L 453.0 282.0 L 2.0 282.0 Z M 2.0 253.0 " fill="url(#C42D748B-D309-4391-B213-F5854294CA93)"></path></g></g></g></g></g></svg>