<?xml version="1.0" encoding="UTF-8" standalone="no"?><svg xmlns="http://www.w3.org/2000/svg" xmlns:xlink="http://www.w3.org/1999/xlink" clip-rule="evenodd" stroke-miterlimit="4.00" viewBox="0 0 478 179"><desc>SVG generated by Keynote</desc><defs><pattern id="7C7ACFE4-9B3D-4463-A773-EFC4116F0E33" patternUnits="userSpaceOnUse" width="400" height="400" viewBox="0 0 400 400" patternTransform="matrix(1.000000, 0.000000, 0.000000, -1.000000, 2.000000, 104.000000)"><image xlink:href="../../DBD367A3-D10B-4655-877C-4BCDAAFCFA3E/assets/FF12AB0386DEC36020066F1246429BA7.jpeg" width="400.00" height="400.00"></image></pattern><pattern id="9A50532D-4CF0-4EC7-B269-441789B9EEFB" patternUnits="userSpaceOnUse" width="400" height="400" viewBox="0 0 400 400" patternTransform="matrix(1.000000, 0.000000, 0.000000, -1.000000, 2.000000, 31.000000)"><image xlink:href="../../DBD367A3-D10B-4655-877C-4BCDAAFCFA3E/assets/FF12AB0386DEC36020066F1246429BA7.jpeg" width="400.00" height="400.00"></image></pattern></defs><g transform="matrix(1.00, 0.00, -0.00, -1.00, 0.0, 179.0)"><g><clipPath id="clip-983"><path d="M 2.0 177.0 L 362.0 177.0 L 362.0 148.0 L 2.0 148.0 Z M 2.0 177.0 "></path></clipPath><g clip-path="url(#clip-983)"><g><clipPath id="clip-984"><path d="M 1.7 -256.6 L 652.1 -256.6 L 652.1 183.9 L 1.7 183.9 Z M 1.7 -256.6 "></path></clipPath><g clip-path="url(#clip-984)"><image xlink:href="../../DBD367A3-D10B-4655-877C-4BCDAAFCFA3E/assets/FF12AB0386DEC36020066F1246429BA7.jpeg" width="400.00" height="400.00" transform="matrix(1.00, 0.00, -0.00, -1.00, 2.0, 177.0)"></image></g></g></g></g><g><clipPath id="clip-985"><path d="M 2.0 104.0 L 477.0 104.0 L 477.0 75.0 L 2.0 75.0 Z M 2.0 104.0 "></path></clipPath><g clip-path="url(#clip-985)"><g><clipPath id="clip-986"><path d="M 1.7 -256.6 L 652.1 -256.6 L 652.1 183.9 L 1.7 183.9 Z M 1.7 -256.6 "></path></clipPath><g clip-path="url(#clip-986)"><path d="M 2.0 75.0 L 477.0 75.0 L 477.0 104.0 L 2.0 104.0 Z M 2.0 75.0 " fill="url(#7C7ACFE4-9B3D-4463-A773-EFC4116F0E33)"></path></g></g></g></g><g><clipPath id="clip-987"><path d="M 2.0 31.0 L 453.0 31.0 L 453.0 2.0 L 2.0 2.0 Z M 2.0 31.0 "></path></clipPath><g clip-path="url(#clip-987)"><g><clipPath id="clip-988"><path d="M 1.7 -256.6 L 652.1 -256.6 L 652.1 183.9 L 1.7 183.9 Z M 1.7 -256.6 "></path></clipPath><g clip-path="url(#clip-988)"><path d="M 2.0 2.0 L 453.0 2.0 L 453.0 31.0 L 2.0 31.0 Z M 2.0 2.0 " fill="url(#9A50532D-4CF0-4EC7-B269-441789B9EEFB)"></path></g></g></g></g></g></svg>