<?xml version="1.0" encoding="UTF-8" standalone="no"?><svg xmlns="http://www.w3.org/2000/svg" xmlns:xlink="http://www.w3.org/1999/xlink" clip-rule="evenodd" stroke-miterlimit="4.00" viewBox="0 0 478 179"><desc>SVG generated by Keynote</desc><defs><pattern id="D499C498-A867-4F8C-8E46-8E669942FFEC" patternUnits="userSpaceOnUse" width="400" height="400" viewBox="0 0 400 400" patternTransform="matrix(1.000000, 0.000000, 0.000000, -1.000000, 2.000000, 104.000000)"><image xlink:href="../../DBD367A3-D10B-4655-877C-4BCDAAFCFA3E/assets/FF12AB0386DEC36020066F1246429BA7.jpeg" width="400.00" height="400.00"></image></pattern><pattern id="91AB32E2-5DFE-4BF4-8548-AE08D26819C8" patternUnits="userSpaceOnUse" width="400" height="400" viewBox="0 0 400 400" patternTransform="matrix(1.000000, 0.000000, 0.000000, -1.000000, 2.000000, 31.000000)"><image xlink:href="../../DBD367A3-D10B-4655-877C-4BCDAAFCFA3E/assets/FF12AB0386DEC36020066F1246429BA7.jpeg" width="400.00" height="400.00"></image></pattern></defs><g transform="matrix(1.00, 0.00, -0.00, -1.00, 0.0, 179.0)"><g><clipPath id="clip-999"><path d="M 2.0 177.0 L 362.0 177.0 L 362.0 148.0 L 2.0 148.0 Z M 2.0 177.0 "></path></clipPath><g clip-path="url(#clip-999)"><g><clipPath id="clip-1000"><path d="M 1.7 -256.6 L 652.1 -256.6 L 652.1 183.9 L 1.7 183.9 Z M 1.7 -256.6 "></path></clipPath><g clip-path="url(#clip-1000)"><image xlink:href="../../DBD367A3-D10B-4655-877C-4BCDAAFCFA3E/assets/FF12AB0386DEC36020066F1246429BA7.jpeg" width="400.00" height="400.00" transform="matrix(1.00, 0.00, -0.00, -1.00, 2.0, 177.0)"></image></g></g></g></g><g><clipPath id="clip-1001"><path d="M 2.0 104.0 L 477.0 104.0 L 477.0 75.0 L 2.0 75.0 Z M 2.0 104.0 "></path></clipPath><g clip-path="url(#clip-1001)"><g><clipPath id="clip-1002"><path d="M 1.7 -256.6 L 652.1 -256.6 L 652.1 183.9 L 1.7 183.9 Z M 1.7 -256.6 "></path></clipPath><g clip-path="url(#clip-1002)"><path d="M 2.0 75.0 L 477.0 75.0 L 477.0 104.0 L 2.0 104.0 Z M 2.0 75.0 " fill="url(#D499C498-A867-4F8C-8E46-8E669942FFEC)"></path></g></g></g></g><g><clipPath id="clip-1003"><path d="M 2.0 31.0 L 453.0 31.0 L 453.0 2.0 L 2.0 2.0 Z M 2.0 31.0 "></path></clipPath><g clip-path="url(#clip-1003)"><g><clipPath id="clip-1004"><path d="M 1.7 -256.6 L 652.1 -256.6 L 652.1 183.9 L 1.7 183.9 Z M 1.7 -256.6 "></path></clipPath><g clip-path="url(#clip-1004)"><path d="M 2.0 2.0 L 453.0 2.0 L 453.0 31.0 L 2.0 31.0 Z M 2.0 2.0 " fill="url(#91AB32E2-5DFE-4BF4-8548-AE08D26819C8)"></path></g></g></g></g></g></svg>