<?xml version="1.0" encoding="UTF-8" standalone="no"?><svg xmlns="http://www.w3.org/2000/svg" xmlns:xlink="http://www.w3.org/1999/xlink" clip-rule="evenodd" stroke-miterlimit="4.00" viewBox="0 0 654 178"><desc>SVG generated by Keynote</desc><defs><pattern id="680E36FA-B9D3-4E9E-8769-71AB0E023745" patternUnits="userSpaceOnUse" width="400" height="400" viewBox="0 0 400 400" patternTransform="matrix(1.000000, 0.000000, 0.000000, -1.000000, 2.000000, 177.000000)"><image xlink:href="../../DBD367A3-D10B-4655-877C-4BCDAAFCFA3E/assets/CFA53D52FE8B7C3E70EDC25518D34A22.jpeg" width="400.00" height="400.00"></image></pattern><pattern id="C848F210-82B2-4395-979B-CEC75D88294E" patternUnits="userSpaceOnUse" width="400" height="400" viewBox="0 0 400 400" patternTransform="matrix(1.000000, 0.000000, 0.000000, -1.000000, 2.000000, 104.000000)"><image xlink:href="../../DBD367A3-D10B-4655-877C-4BCDAAFCFA3E/assets/CFA53D52FE8B7C3E70EDC25518D34A22.jpeg" width="400.00" height="400.00"></image></pattern><pattern id="BB7AA5BD-2E96-48A9-B762-5570A9092619" patternUnits="userSpaceOnUse" width="400" height="400" viewBox="0 0 400 400" patternTransform="matrix(1.000000, 0.000000, 0.000000, -1.000000, 2.000000, 31.000000)"><image xlink:href="../../DBD367A3-D10B-4655-877C-4BCDAAFCFA3E/assets/CFA53D52FE8B7C3E70EDC25518D34A22.jpeg" width="400.00" height="400.00"></image></pattern></defs><g transform="matrix(1.00, 0.00, -0.00, -1.00, 0.0, 178.0)"><g><clipPath id="clip-1005"><path d="M 2.0 177.0 L 472.0 177.0 L 472.0 147.0 L 2.0 147.0 Z M 2.0 177.0 "></path></clipPath><g clip-path="url(#clip-1005)"><g><clipPath id="clip-1006"><path d="M 1.7 -5.6 L 652.1 -5.6 L 652.1 434.9 L 1.7 434.9 Z M 1.7 -5.6 "></path></clipPath><g clip-path="url(#clip-1006)"><path d="M 2.0 147.0 L 472.0 147.0 L 472.0 177.0 L 2.0 177.0 Z M 2.0 147.0 " fill="url(#680E36FA-B9D3-4E9E-8769-71AB0E023745)"></path></g></g></g></g><g><clipPath id="clip-1007"><path d="M 2.0 104.0 L 652.0 104.0 L 652.0 74.0 L 2.0 74.0 Z M 2.0 104.0 "></path></clipPath><g clip-path="url(#clip-1007)"><g><clipPath id="clip-1008"><path d="M 1.7 -5.6 L 652.1 -5.6 L 652.1 434.9 L 1.7 434.9 Z M 1.7 -5.6 "></path></clipPath><g clip-path="url(#clip-1008)"><path d="M 2.0 74.0 L 652.0 74.0 L 652.0 104.0 L 2.0 104.0 Z M 2.0 74.0 " fill="url(#C848F210-82B2-4395-979B-CEC75D88294E)"></path></g></g></g></g><g><clipPath id="clip-1009"><path d="M 2.0 31.0 L 624.0 31.0 L 624.0 1.0 L 2.0 1.0 Z M 2.0 31.0 "></path></clipPath><g clip-path="url(#clip-1009)"><g><clipPath id="clip-1010"><path d="M 1.7 -5.6 L 652.1 -5.6 L 652.1 434.9 L 1.7 434.9 Z M 1.7 -5.6 "></path></clipPath><g clip-path="url(#clip-1010)"><path d="M 2.0 1.0 L 624.0 1.0 L 624.0 31.0 L 2.0 31.0 Z M 2.0 1.0 " fill="url(#BB7AA5BD-2E96-48A9-B762-5570A9092619)"></path></g></g></g></g></g></svg>