<?xml version="1.0" encoding="UTF-8" standalone="no"?><svg xmlns="http://www.w3.org/2000/svg" xmlns:xlink="http://www.w3.org/1999/xlink" clip-rule="evenodd" stroke-miterlimit="4.00" viewBox="0 0 340 149"><desc>SVG generated by Keynote</desc><defs></defs><g transform="matrix(1.00, 0.00, -0.00, -1.00, 0.0, 149.0)"><image xlink:href="../../CEFA4209-80C9-472B-8D2B-058B96531B72/assets/18D96FF3CF2FC989777909170BCDD44B.png" width="337.00" height="146.00" transform="matrix(1.00, 0.00, -0.00, -1.00, 1.8, 147.6)" opacity="0.50"></image><g><clipPath id="clip-993"><path d="M 282.9 119.8 C 345.1 94.7 345.1 54.0 282.9 29.0 C 220.6 3.9 119.7 3.9 57.5 29.0 C -4.7 54.0 -4.7 94.7 57.5 119.8 C 119.7 144.8 220.6 144.8 282.9 119.8 Z M 282.9 119.8 "></path></clipPath><g clip-path="url(#clip-993)"><image xlink:href="../../CEFA4209-80C9-472B-8D2B-058B96531B72/assets/59DBD66EA15A3D40E065F836EF2595FD.jpeg" width="400.00" height="400.00" transform="matrix(1.00, 0.00, -0.00, -1.00, 10.8, 138.6)"></image></g></g><path d="M 87.4 15.5 C 86.9 15.7 86.4 15.8 85.5 16.0 C 85.9 16.0 86.2 16.0 86.2 16.1 C 86.9 15.9 87.9 15.6 89.4 15.3 C 89.4 15.2 88.6 15.4 88.1 15.5 C 87.5 15.6 87.6 15.5 87.4 15.5 C 87.4 15.5 87.4 15.5 87.4 15.5 Z M 72.3 128.5 C 71.0 128.1 72.3 128.7 72.8 128.9 C 72.9 128.9 72.9 128.8 73.4 129.0 C 73.5 129.2 72.4 129.0 71.5 128.8 C 68.2 127.6 70.8 128.0 72.3 128.5 C 72.3 128.5 72.3 128.5 72.3 128.5 Z M 256.6 131.6 C 259.4 130.9 256.3 131.4 255.9 131.4 C 257.2 131.0 256.0 130.9 257.7 130.5 C 258.0 130.5 258.6 130.4 259.0 130.5 C 258.3 130.7 257.2 130.9 257.1 131.0 C 258.1 130.8 259.4 130.4 259.6 130.4 C 257.5 131.1 259.3 130.8 259.7 130.8 C 257.8 131.3 257.3 131.7 256.6 131.6 C 256.6 131.6 256.6 131.6 256.6 131.6 Z M 306.7 38.0 C 307.6 38.6 308.3 39.0 308.0 39.0 C 307.1 38.4 306.5 38.0 306.0 37.7 C 305.8 37.6 306.0 37.9 305.2 37.4 C 304.4 36.7 305.0 36.7 305.5 36.9 C 305.5 37.1 308.6 39.0 306.7 38.0 C 306.7 38.0 306.7 38.0 306.7 38.0 Z M 231.1 12.7 C 228.5 12.2 230.9 13.0 228.3 12.5 C 228.4 12.3 228.1 12.0 229.8 12.3 C 229.9 12.4 230.9 12.6 231.1 12.7 C 231.1 12.7 231.1 12.7 231.1 12.7 Z M 178.6 139.8 C 178.6 139.9 180.6 139.8 180.1 140.1 C 179.1 140.1 178.2 140.1 177.2 140.1 C 177.0 140.0 177.3 139.8 178.6 139.8 C 178.6 139.8 178.6 139.8 178.6 139.8 Z M 274.2 123.9 C 276.9 123.2 279.5 121.8 278.8 122.4 C 279.9 122.2 277.2 123.7 277.2 123.4 C 276.8 123.3 272.1 124.6 274.2 123.9 C 274.2 123.9 274.2 123.9 274.2 123.9 Z M 87.6 128.4 C 90.6 129.3 90.1 128.5 92.0 129.3 C 91.3 129.1 91.0 129.2 90.8 129.2 C 91.2 129.3 92.0 129.4 92.0 129.5 C 90.5 129.2 88.8 128.9 87.6 128.4 C 87.6 128.4 87.6 128.4 87.6 128.4 Z M 133.7 8.5 C 134.3 8.5 134.6 8.4 134.5 8.3 C 136.7 8.1 136.6 7.9 138.0 8.0 C 138.1 8.3 136.2 8.3 134.5 8.4 C 134.4 8.5 133.9 8.6 133.7 8.5 C 133.7 8.5 133.7 8.5 133.7 8.5 Z M 197.0 8.6 C 196.9 8.4 195.6 8.3 197.7 8.3 C 200.0 8.8 197.9 8.9 195.5 8.8 C 195.5 9.0 195.5 9.1 195.5 9.2 C 196.4 9.2 197.1 9.3 197.6 9.4 C 198.0 9.0 199.6 9.8 203.3 9.9 C 201.5 9.9 203.4 10.4 201.1 10.0 C 201.7 10.3 200.1 10.2 200.4 10.4 C 201.4 10.3 203.8 10.6 203.2 10.2 C 204.5 10.3 205.4 10.4 206.1 10.6 C 206.9 10.9 203.8 10.4 204.7 10.7 C 205.3 10.8 205.5 10.9 206.0 10.9 C 206.2 10.9 205.9 10.7 206.7 10.8 C 209.0 11.1 206.3 11.0 209.5 11.4 C 209.7 11.2 208.8 11.1 208.9 11.0 C 210.3 11.0 210.2 11.2 211.7 11.2 C 211.9 11.4 210.6 11.3 211.6 11.4 C 212.6 11.2 214.5 12.0 216.5 11.9 C 215.2 11.2 216.9 12.0 218.7 11.8 C 219.1 12.0 217.7 12.1 219.3 12.3 C 218.8 11.6 225.0 12.6 220.1 11.5 C 222.7 11.8 223.7 11.5 221.6 11.1 C 226.1 11.9 224.7 11.3 226.4 11.6 C 228.2 11.8 225.5 11.6 226.4 11.9 C 224.5 11.6 225.0 11.8 223.7 11.5 C 223.6 11.6 223.3 11.6 222.9 11.6 C 224.8 11.7 226.9 12.4 225.6 12.5 C 224.6 12.3 225.5 12.2 224.3 12.0 C 224.7 12.4 222.9 11.7 222.8 11.9 C 223.7 12.4 220.9 12.3 223.5 12.7 C 223.5 12.5 223.5 12.4 223.5 12.3 C 224.2 12.4 224.9 12.5 225.5 12.6 C 226.1 12.9 225.6 13.0 226.2 13.2 C 227.3 13.3 227.9 13.4 228.3 13.3 C 226.9 13.0 225.3 12.6 227.6 12.9 C 226.7 13.2 230.8 13.5 228.9 13.5 C 231.4 14.0 232.7 13.9 232.9 14.2 C 234.3 14.5 233.5 14.0 235.0 14.4 C 237.5 15.0 237.1 14.6 240.3 15.4 C 240.8 15.1 240.6 15.6 241.7 15.8 C 241.7 15.6 241.7 15.5 241.7 15.4 C 242.8 15.8 245.4 16.5 248.2 16.8 C 248.9 17.1 248.3 17.2 250.1 17.5 C 252.1 17.6 254.2 18.5 256.5 18.8 C 256.6 19.0 258.2 19.4 259.0 19.5 C 259.3 19.7 258.2 19.7 259.5 20.1 C 260.5 20.1 258.9 19.6 260.9 20.0 C 260.6 20.2 262.7 20.3 262.7 20.6 C 262.1 20.5 261.4 20.4 260.8 20.3 C 261.6 20.6 261.3 20.6 262.0 20.8 C 262.0 20.5 263.4 21.2 263.8 21.4 C 263.8 21.2 264.0 21.2 264.5 21.2 C 265.6 21.6 266.4 21.8 267.0 21.9 C 268.3 22.4 266.2 21.8 267.5 22.3 C 268.3 21.9 269.5 23.0 272.3 23.5 C 272.9 23.9 274.0 24.4 275.7 25.0 C 276.0 24.9 274.1 24.4 274.1 24.2 C 276.6 25.1 273.7 23.9 275.3 24.5 C 277.1 25.2 278.6 25.7 280.0 26.3 C 281.5 26.9 282.7 27.4 285.7 28.8 C 285.6 28.6 290.2 30.4 290.1 30.4 C 288.9 30.0 292.4 31.8 294.1 32.7 C 294.7 32.6 297.5 33.6 297.8 33.5 C 298.3 34.0 298.1 33.9 298.3 34.4 C 301.0 36.0 302.6 36.5 304.0 37.8 C 304.0 37.6 305.2 38.3 306.3 38.9 C 305.9 38.8 305.2 38.6 304.6 38.4 C 306.0 39.2 306.1 39.4 307.2 40.2 C 308.7 40.4 310.1 42.3 311.3 42.4 C 313.0 43.7 312.5 43.6 314.0 44.8 C 314.0 44.7 314.2 44.7 314.7 45.0 C 313.7 44.3 312.9 43.9 312.5 43.2 C 314.8 44.9 308.5 39.4 312.5 42.0 C 312.5 42.2 312.1 42.1 312.9 42.7 C 315.0 44.3 313.9 43.1 313.1 42.5 C 314.6 43.5 315.9 44.7 315.0 43.6 C 318.2 46.1 316.1 44.6 317.0 45.6 C 322.4 50.1 327.7 56.2 330.2 63.4 C 330.6 63.5 331.5 67.4 331.6 68.7 C 332.2 70.6 332.4 72.8 332.1 73.4 C 332.4 73.8 331.9 75.9 332.2 76.1 C 332.2 75.2 332.3 74.7 332.4 75.6 C 332.1 78.5 331.0 82.8 330.6 84.6 C 329.9 85.5 329.2 87.4 328.7 88.7 C 328.5 88.8 328.9 87.8 328.5 88.6 C 328.5 88.9 327.1 91.6 326.6 92.2 C 327.1 91.4 327.4 90.3 326.6 91.5 C 326.7 91.6 325.8 92.9 326.2 92.7 C 325.0 94.3 324.4 95.3 323.2 96.6 C 324.1 95.5 324.5 94.7 324.5 94.4 C 323.9 95.5 323.4 96.2 322.5 96.9 C 323.0 96.9 321.5 98.3 320.2 99.9 C 319.7 100.3 319.3 100.5 318.0 101.7 C 317.5 102.4 320.2 100.0 318.7 101.4 C 318.7 101.3 317.2 102.5 317.7 102.4 C 315.9 103.9 315.0 104.9 313.2 105.9 C 315.3 104.4 313.6 105.3 313.0 105.7 C 312.6 106.0 311.9 106.5 311.9 106.6 C 312.0 106.7 313.0 105.9 313.2 105.9 C 311.7 106.9 311.5 107.5 310.8 107.7 C 311.5 107.2 311.5 107.0 310.7 107.6 C 310.8 108.0 306.0 110.9 307.5 109.7 C 307.6 109.8 309.3 108.6 309.5 108.4 C 308.9 108.6 306.3 110.5 306.7 109.9 C 308.3 108.9 308.3 109.1 310.0 107.8 C 310.1 107.6 311.1 106.8 311.6 106.2 C 309.0 108.2 308.4 108.9 307.9 108.9 C 306.6 109.7 307.6 109.5 305.4 110.8 C 302.2 112.7 304.7 110.9 303.8 111.3 C 301.0 113.1 302.0 112.9 303.4 112.4 C 301.1 113.7 300.5 114.3 297.5 115.8 C 297.5 115.5 297.9 115.2 298.9 114.6 C 299.0 114.7 301.5 113.5 301.2 113.5 C 300.8 113.3 298.8 114.2 295.6 115.8 C 296.5 115.8 296.5 115.5 293.2 117.2 C 293.9 117.2 291.5 117.9 291.5 118.1 C 291.7 118.1 293.0 117.6 294.1 117.0 C 294.1 117.2 293.7 117.5 292.6 118.1 C 291.8 118.3 291.3 118.7 289.2 119.6 C 288.9 119.5 290.4 118.7 290.7 118.4 C 289.5 119.0 289.3 119.2 288.1 119.8 C 287.0 120.0 287.0 119.7 286.9 119.3 C 288.3 118.7 290.4 117.7 288.6 118.3 C 293.6 116.1 288.5 118.8 290.4 117.9 C 292.4 116.7 291.5 117.6 294.6 116.1 C 295.5 115.6 295.8 115.3 296.1 115.1 C 295.9 115.2 294.0 115.8 296.0 114.8 C 296.5 114.7 297.7 114.3 299.2 113.5 C 299.2 113.4 295.9 115.0 299.1 113.3 C 300.6 112.4 299.4 113.5 301.5 112.3 C 301.4 112.2 302.0 111.9 302.1 111.7 C 299.2 113.5 302.6 111.2 300.5 112.3 C 303.0 110.7 301.1 112.3 302.8 111.3 C 302.7 111.1 305.5 109.7 305.4 109.4 C 304.5 110.2 302.4 111.4 302.6 111.0 C 304.5 109.9 312.1 104.5 309.3 106.9 C 310.3 106.0 315.1 101.8 314.8 102.2 C 313.4 103.4 313.6 103.5 313.4 103.8 C 316.0 101.4 317.5 100.4 319.6 97.6 C 317.0 100.3 318.7 98.0 316.9 99.4 C 316.1 100.1 315.0 101.1 314.9 101.3 C 315.4 101.2 316.6 100.0 316.9 99.5 C 317.1 99.6 317.2 99.8 317.4 99.9 C 314.1 102.7 312.1 104.5 310.3 105.7 C 311.8 104.5 307.1 107.6 308.9 106.2 C 309.7 105.8 311.6 104.5 313.1 103.4 C 313.0 103.3 313.0 103.2 312.9 103.2 C 313.6 102.7 314.5 101.9 314.5 101.8 C 312.6 103.5 311.3 104.1 310.0 105.3 C 310.0 105.3 309.9 105.2 309.9 105.2 C 309.6 105.5 309.2 105.7 309.3 105.6 C 310.0 105.0 311.0 104.3 311.0 104.2 C 309.5 105.3 309.0 105.3 307.2 106.5 C 307.5 106.0 304.9 107.4 307.5 105.5 C 308.0 105.4 309.5 104.5 309.5 104.6 C 310.3 104.2 311.7 103.0 312.3 102.4 C 311.5 102.8 310.0 103.8 309.8 103.7 C 310.9 102.8 311.8 102.0 312.6 101.6 C 310.4 103.6 313.9 100.8 314.9 100.2 C 314.6 100.4 314.1 100.7 313.7 100.9 C 315.4 99.4 316.2 98.9 316.1 98.6 C 317.8 96.7 317.6 97.3 318.8 96.0 C 317.8 96.6 319.4 95.1 318.4 95.7 C 320.3 93.6 319.2 95.3 319.9 94.6 C 320.4 93.9 320.4 93.7 320.9 93.1 C 321.8 92.2 323.1 90.3 323.6 90.2 C 324.1 89.3 324.3 89.3 324.7 88.4 C 324.8 88.1 324.9 87.8 325.0 87.4 C 325.2 87.3 325.6 86.7 325.6 86.5 C 324.1 88.7 324.5 88.0 322.6 90.3 C 322.6 90.5 322.4 90.9 322.8 90.4 C 321.8 92.1 321.2 92.5 320.1 94.0 C 319.8 94.0 319.3 94.1 318.2 95.5 C 318.3 95.1 318.0 95.4 318.4 94.8 C 319.1 94.2 320.0 93.3 320.8 92.4 C 320.8 92.2 320.6 92.3 321.0 91.8 C 321.4 91.4 322.0 90.7 322.3 90.0 C 322.4 90.1 322.3 90.3 322.2 90.6 C 323.8 88.5 323.0 89.1 324.1 87.5 C 323.8 87.6 323.2 88.7 323.6 87.7 C 324.4 86.2 324.6 85.9 325.1 85.2 C 325.1 85.0 324.9 85.0 325.1 84.6 C 325.8 83.6 324.5 87.2 325.6 85.4 C 325.5 85.2 326.3 83.3 326.6 83.1 C 326.5 83.8 325.8 84.8 325.9 85.0 C 327.5 81.5 326.6 85.0 327.7 81.4 C 327.6 81.4 327.5 81.4 327.4 81.4 C 327.0 82.8 326.8 82.8 326.6 82.6 C 326.1 83.8 325.7 84.2 325.4 85.3 C 325.1 84.7 325.8 84.3 326.3 83.0 C 326.0 83.0 325.6 84.1 325.3 84.2 C 326.7 81.4 326.5 80.7 327.3 78.1 C 326.9 78.7 327.4 76.5 327.2 76.7 C 327.1 79.1 326.4 78.0 326.3 78.3 C 326.1 79.8 326.6 79.3 326.5 80.2 C 326.2 80.6 326.1 80.3 325.9 80.0 C 326.3 78.7 326.2 78.9 326.2 77.8 C 326.5 77.0 327.1 76.3 327.1 77.5 C 327.0 77.3 327.1 75.5 327.3 75.3 C 327.2 77.1 327.4 75.2 327.4 76.2 C 327.7 74.9 327.4 72.5 327.3 70.9 C 327.2 71.0 327.1 70.4 327.0 70.5 C 327.5 72.1 326.9 72.5 327.0 74.0 C 326.9 73.3 326.8 73.7 326.7 74.0 C 326.8 72.5 326.5 71.7 326.6 70.6 C 326.5 70.6 326.4 70.6 326.3 70.6 C 326.2 68.7 326.2 69.0 325.6 67.6 C 325.5 67.0 326.2 67.7 326.5 67.8 C 326.2 67.2 325.3 64.6 325.6 66.2 C 325.1 64.7 325.5 64.9 324.8 63.4 C 324.6 63.5 325.2 64.9 324.7 64.5 C 324.1 63.1 324.7 63.8 324.0 62.7 C 324.1 62.6 324.3 62.4 323.6 61.2 C 323.9 62.2 323.5 61.2 323.1 60.9 C 323.4 61.5 323.6 62.0 323.7 62.3 C 322.7 60.1 322.3 59.7 321.0 57.9 C 321.7 58.4 321.1 57.4 322.0 58.5 C 321.1 57.5 320.3 55.9 319.7 55.4 C 320.2 56.2 321.0 57.3 321.2 57.8 C 318.6 54.3 316.7 52.7 313.6 49.5 C 314.2 50.0 314.9 50.7 315.1 50.8 C 314.7 50.4 314.1 49.9 314.2 49.8 C 315.3 50.9 316.3 51.9 317.0 52.4 C 317.8 53.4 316.3 52.0 317.2 53.0 C 317.5 53.0 319.0 55.0 318.6 54.1 C 317.0 52.6 315.5 50.8 315.0 49.8 C 313.0 48.6 314.7 50.0 312.5 48.8 C 312.6 48.7 312.2 48.3 311.6 47.7 C 312.0 48.5 309.6 46.4 309.3 46.2 C 310.4 46.8 314.0 49.5 312.4 47.8 C 312.8 48.9 308.3 44.4 309.0 45.5 C 306.5 43.7 307.6 44.1 306.0 43.4 C 306.0 43.3 306.2 43.3 305.5 42.8 C 304.8 42.3 304.5 42.2 304.1 42.0 C 307.9 44.6 306.5 44.2 308.7 45.8 C 308.4 45.5 308.0 45.3 308.1 45.4 C 308.1 45.5 308.0 45.5 307.5 45.1 C 307.5 44.7 305.6 43.8 305.1 43.3 C 305.9 43.8 306.6 44.3 306.4 44.0 C 303.4 42.0 304.2 42.0 299.5 39.2 C 300.8 40.1 298.9 39.1 297.2 38.2 C 294.8 36.8 295.9 37.0 292.8 35.4 C 292.8 36.1 289.5 33.7 285.2 32.3 C 285.5 32.2 284.3 31.6 282.8 31.0 C 281.3 30.3 280.6 30.1 280.2 30.1 C 280.2 30.0 278.9 29.5 278.0 29.2 C 277.9 29.0 278.9 29.3 278.1 29.0 C 277.3 28.7 278.0 29.2 276.9 28.9 C 275.8 28.4 276.1 28.2 274.2 27.6 C 274.1 27.7 275.1 28.0 274.1 27.9 C 272.5 27.2 271.1 26.7 272.3 27.4 C 269.9 26.6 271.3 26.6 269.0 25.9 C 269.6 26.2 269.5 26.3 268.3 25.9 C 267.5 25.5 267.5 25.3 267.2 25.2 C 266.5 25.1 266.7 25.2 264.8 24.6 C 264.8 24.7 264.7 24.8 264.7 24.9 C 263.9 24.6 262.5 24.3 262.3 24.1 C 264.0 24.6 263.6 24.3 264.2 24.4 C 262.6 23.9 259.5 22.7 261.8 23.7 C 259.5 23.2 260.7 23.1 258.8 22.7 C 259.9 23.3 258.9 22.7 257.0 22.3 C 257.0 22.6 255.7 22.0 254.4 21.7 C 254.6 21.9 254.3 22.0 253.2 21.7 C 253.2 21.6 252.5 21.4 251.3 21.1 C 251.3 21.2 253.9 22.0 251.2 21.3 C 250.0 20.9 250.1 20.7 248.1 20.2 C 247.7 19.9 249.9 20.5 249.5 20.1 C 247.8 20.0 247.4 19.7 245.0 19.1 C 245.9 19.7 240.1 18.7 242.9 19.5 C 242.1 19.3 240.9 19.4 240.3 19.0 C 241.2 19.1 239.6 18.6 239.7 18.6 C 238.5 18.4 235.9 17.8 235.8 17.9 C 238.3 18.3 238.3 18.5 239.0 18.8 C 235.3 18.3 232.1 17.6 232.4 17.4 C 232.4 17.5 231.9 17.4 231.7 17.4 C 233.0 17.6 233.8 18.2 232.3 17.9 C 232.7 17.8 231.6 17.5 230.4 17.2 C 230.3 17.4 225.5 16.3 226.3 16.8 C 228.3 16.9 229.8 17.5 228.3 17.4 C 227.1 17.0 224.4 16.5 225.0 16.4 C 224.3 16.4 223.6 16.3 223.0 16.3 C 222.3 16.5 223.9 16.7 223.6 16.8 C 222.6 16.7 221.1 16.5 220.9 16.4 C 223.6 16.7 219.5 16.0 222.3 16.2 C 220.6 16.0 220.2 15.8 218.9 15.6 C 218.9 15.7 218.3 15.6 218.2 15.7 C 219.4 15.7 220.6 16.0 220.2 16.2 C 217.7 15.9 218.2 15.7 216.1 15.4 C 215.5 15.5 212.6 15.5 211.2 15.2 C 214.0 15.5 211.0 15.0 212.7 15.1 C 215.1 15.5 215.8 15.4 216.8 15.3 C 215.8 15.0 213.7 14.7 213.4 14.9 C 214.7 15.1 214.7 15.0 215.5 15.0 C 215.4 15.2 215.0 15.2 214.0 15.2 C 212.9 14.9 210.3 14.8 212.0 14.6 C 210.3 14.6 208.3 14.1 206.5 14.1 C 208.5 14.4 210.0 14.6 210.6 14.9 C 208.9 14.8 207.2 14.3 207.1 14.5 C 207.3 14.8 210.0 15.0 210.5 15.2 C 208.4 15.2 205.1 14.2 207.8 15.0 C 206.6 14.8 204.9 14.7 204.3 14.5 C 205.8 14.6 204.2 14.1 203.6 14.0 C 202.3 13.9 201.3 13.9 200.8 14.0 C 202.8 14.0 204.3 14.5 202.9 14.4 C 202.6 14.2 202.1 14.3 201.5 14.3 C 201.4 14.2 199.1 14.1 198.7 14.0 C 198.9 14.1 199.9 14.2 200.1 14.3 C 198.8 14.3 196.8 14.5 195.9 14.1 C 196.7 14.1 197.9 14.2 198.0 14.2 C 194.4 13.5 193.2 13.2 188.9 12.8 C 189.4 12.8 189.7 12.8 189.6 12.7 C 186.8 12.5 185.0 12.3 185.4 12.2 C 183.6 12.2 182.7 12.3 181.8 12.4 C 183.6 12.6 184.2 12.4 185.3 12.6 C 184.6 12.6 186.7 13.1 187.5 13.3 C 190.5 13.2 190.7 13.6 193.8 13.6 C 192.9 13.8 196.1 13.8 195.1 14.0 C 192.3 13.5 189.5 13.6 185.3 13.3 C 185.9 13.1 186.4 13.0 184.6 12.8 C 181.9 12.6 183.2 13.0 181.0 12.8 C 180.1 12.6 181.5 12.6 180.3 12.5 C 179.6 12.6 177.5 12.5 176.8 12.3 C 179.7 12.3 176.3 12.0 178.2 12.0 C 177.2 11.9 176.7 11.9 176.0 11.8 C 178.9 12.2 173.2 12.2 175.3 12.4 C 171.4 12.5 175.1 11.8 171.8 11.8 C 173.4 12.0 171.3 12.1 168.9 12.0 C 168.3 11.8 165.9 11.8 163.9 11.7 C 165.0 11.9 165.7 11.8 163.9 12.0 C 164.9 12.1 166.6 12.1 167.5 12.0 C 167.5 12.1 167.8 12.1 168.3 12.2 C 165.9 12.3 166.9 12.4 166.1 12.5 C 165.4 12.4 163.7 12.4 163.3 12.3 C 163.3 12.3 162.6 12.4 162.6 12.4 C 165.5 12.4 162.1 12.8 164.0 12.8 C 165.3 12.8 164.4 12.5 166.1 12.5 C 167.7 12.8 164.8 12.9 164.0 13.1 C 165.3 13.3 167.0 13.0 167.5 13.3 C 165.7 13.6 162.8 13.4 160.4 13.4 C 160.6 13.7 156.5 13.4 156.2 13.8 C 155.8 13.7 155.4 13.7 154.8 13.6 C 154.1 13.9 153.3 13.6 152.6 13.6 C 152.6 13.8 152.8 13.9 153.3 13.9 C 150.4 13.9 149.7 14.0 146.3 14.3 C 145.7 14.2 145.1 14.1 144.8 13.9 C 145.7 13.8 146.4 13.7 147.0 13.6 C 142.3 13.9 145.3 14.3 142.0 14.2 C 142.2 14.3 144.5 14.4 142.7 14.6 C 139.8 14.5 135.7 15.2 135.7 14.5 C 133.1 14.5 131.4 15.1 130.2 14.9 C 129.4 15.0 129.1 15.1 128.8 15.2 C 129.6 15.3 130.6 15.3 131.6 15.3 C 133.1 15.1 133.8 15.2 132.3 15.0 C 134.6 14.8 135.2 14.9 136.5 14.9 C 133.3 15.3 130.4 15.4 130.3 15.8 C 129.2 15.8 128.3 15.7 127.4 15.6 C 127.1 15.8 123.6 16.3 123.3 16.1 C 125.7 15.9 128.2 15.3 126.0 15.4 C 120.1 16.2 116.8 16.3 111.7 17.3 C 111.6 17.2 112.0 17.0 111.0 17.1 C 111.1 17.3 110.9 17.4 110.4 17.6 C 108.8 17.8 107.9 17.8 105.8 18.3 C 105.8 18.0 105.5 17.9 104.3 18.0 C 103.7 18.4 101.7 19.3 100.5 19.4 C 101.7 19.2 100.0 19.2 99.1 19.4 C 100.0 19.6 93.3 20.3 95.3 20.3 C 92.6 20.8 91.5 21.0 91.4 20.9 C 90.5 21.1 89.8 21.4 88.9 21.6 C 88.3 21.4 83.9 22.8 83.3 22.8 C 84.8 22.5 85.0 22.1 83.8 22.4 C 83.0 22.8 79.1 24.1 78.4 24.2 C 78.6 24.1 78.8 23.8 80.7 23.2 C 77.5 24.0 77.6 24.4 76.6 24.9 C 76.7 24.6 75.3 25.3 74.8 25.5 C 73.8 25.6 74.9 25.4 74.8 25.2 C 73.6 25.5 73.2 25.5 71.8 25.9 C 72.3 26.1 70.6 26.4 70.0 26.6 C 69.9 26.8 69.1 27.2 67.8 27.7 C 69.4 26.7 60.6 29.8 62.7 29.3 C 61.1 30.2 60.9 29.7 58.8 30.6 C 58.4 30.9 57.2 31.3 58.3 31.0 C 57.5 31.4 56.6 31.7 56.3 31.7 C 55.9 31.8 55.4 32.0 53.8 32.7 C 55.4 32.4 50.6 34.1 51.5 34.1 C 49.9 34.3 47.6 36.1 45.0 37.0 C 45.1 37.1 44.4 37.4 44.3 37.6 C 44.0 37.9 47.3 36.2 45.2 37.4 C 42.6 38.5 43.9 37.7 43.5 37.8 C 36.8 41.6 30.0 46.1 25.3 50.3 C 26.0 49.9 26.0 50.0 25.1 50.9 C 23.4 51.8 19.2 57.0 18.8 57.9 C 18.2 58.2 16.8 60.9 16.4 61.3 C 16.8 60.8 17.1 59.7 16.5 60.8 C 16.4 61.6 15.7 62.5 15.4 63.6 C 14.9 64.0 14.0 67.3 14.0 65.7 C 13.8 66.3 13.7 66.6 13.5 67.0 C 13.8 67.1 13.5 67.7 14.0 66.7 C 12.9 69.5 13.1 70.3 12.7 72.5 C 12.8 72.9 13.1 71.2 13.0 72.5 C 13.0 72.5 12.9 72.5 12.9 72.5 C 12.8 73.0 12.9 73.1 12.8 73.4 C 12.7 73.3 12.8 72.5 12.5 72.5 C 12.5 73.6 12.2 74.3 12.4 74.7 C 12.4 73.2 12.9 74.2 12.7 75.1 C 12.5 74.3 13.0 78.7 13.5 80.0 C 13.4 80.8 13.1 78.5 13.0 78.7 C 13.5 81.4 13.5 81.2 13.8 81.4 C 14.2 82.8 14.2 83.4 15.1 85.0 C 15.4 86.0 14.6 84.5 15.1 85.5 C 15.4 86.1 15.7 86.3 16.2 87.2 C 17.0 89.9 22.0 95.0 24.2 98.2 C 23.2 97.0 24.8 98.3 26.3 99.7 C 26.4 99.9 26.1 99.8 26.7 100.3 C 26.7 100.1 27.3 100.5 28.4 101.5 C 28.4 101.6 28.1 101.6 28.7 102.1 C 29.4 102.2 30.7 103.6 31.7 104.1 C 31.9 104.6 29.5 102.6 29.2 102.7 C 32.0 105.0 32.7 105.2 35.2 106.9 C 33.8 106.1 36.0 107.7 36.3 108.0 C 35.9 107.4 38.0 108.6 36.6 107.5 C 37.6 108.2 39.1 109.0 39.3 109.3 C 38.7 108.9 37.9 108.4 37.8 108.5 C 39.1 109.2 40.6 110.4 41.4 110.6 C 40.5 110.0 40.0 109.6 40.0 109.5 C 40.4 109.6 40.9 109.8 41.6 110.1 C 39.3 109.5 45.5 112.6 46.0 112.6 C 46.4 113.3 46.8 113.5 46.5 113.5 C 49.2 114.9 49.0 114.5 50.7 115.2 C 50.1 115.2 49.4 115.2 52.1 116.5 C 51.6 116.0 54.9 117.5 54.1 116.7 C 61.3 119.7 61.0 119.8 63.8 120.8 C 63.9 120.8 63.0 120.4 63.8 120.7 C 65.1 121.2 66.3 121.7 67.1 122.2 C 67.9 122.2 66.9 121.8 67.8 122.1 C 69.8 123.0 69.2 123.1 71.1 123.9 C 73.5 124.5 72.6 124.3 74.1 124.5 C 73.5 124.3 72.7 124.0 73.6 124.2 C 75.0 124.9 75.5 125.3 75.8 125.5 C 74.8 125.2 74.0 124.9 73.4 124.7 C 73.0 124.7 71.6 124.3 72.8 124.8 C 71.3 124.2 69.6 123.7 67.5 123.0 C 68.1 123.5 65.6 122.4 66.2 122.9 C 68.6 123.6 69.1 124.0 71.5 124.7 C 71.0 124.3 73.4 125.2 73.9 125.4 C 73.9 125.2 75.5 125.8 75.2 125.4 C 77.0 125.9 76.9 126.1 78.8 126.6 C 78.9 126.7 78.6 126.8 79.3 127.0 C 80.0 126.9 80.5 127.4 81.1 127.6 C 80.8 127.2 83.5 128.0 83.7 127.9 C 83.0 127.7 81.9 127.5 81.8 127.3 C 84.8 128.2 82.5 127.3 81.9 126.9 C 82.0 127.1 80.9 127.1 80.7 126.9 C 83.3 127.4 77.3 125.5 79.5 126.2 C 81.4 126.8 81.3 126.6 83.3 127.1 C 85.4 128.2 82.6 127.7 84.9 128.6 C 86.3 128.8 87.3 129.1 87.5 128.9 C 87.8 129.0 88.1 129.2 88.7 129.4 C 89.3 129.4 86.9 128.7 88.7 129.1 C 89.7 129.4 88.5 129.5 90.6 129.9 C 91.5 129.9 88.2 129.0 90.0 129.4 C 91.9 130.2 89.6 129.2 91.9 129.7 C 92.1 129.8 92.5 129.9 93.2 130.1 C 93.3 130.2 93.0 130.3 93.8 130.5 C 94.3 130.2 94.6 130.9 96.4 131.1 C 97.4 131.1 94.6 130.6 95.2 130.5 C 97.1 131.2 98.3 131.1 99.1 131.3 C 97.4 131.2 101.5 132.0 101.6 132.2 C 101.2 131.8 102.1 132.1 104.4 132.3 C 104.4 132.8 107.1 132.9 107.6 133.4 C 108.0 133.3 108.6 133.3 109.0 133.3 C 108.2 133.1 107.4 133.0 107.7 132.9 C 108.4 133.0 109.0 133.1 109.7 133.2 C 110.8 133.6 107.8 133.7 112.3 134.3 C 111.9 133.9 113.8 134.2 115.1 134.2 C 115.0 133.9 113.3 134.0 113.1 133.8 C 114.6 133.8 116.2 134.3 117.1 134.5 C 119.8 134.8 122.9 135.4 126.8 135.7 C 127.7 136.0 123.5 135.5 126.1 135.9 C 127.2 136.1 126.6 135.8 128.1 136.0 C 126.7 136.9 138.6 137.2 139.4 137.7 C 139.9 137.5 143.2 137.9 142.9 137.6 C 140.6 137.6 139.1 137.2 138.0 136.9 C 135.8 136.9 139.9 137.4 137.9 137.3 C 137.7 137.1 134.9 137.0 135.1 136.8 C 138.2 137.0 133.6 136.4 135.9 136.4 C 138.7 136.7 144.3 136.8 142.9 137.0 C 143.0 136.9 141.7 136.8 141.6 136.9 C 144.7 137.3 146.6 137.2 147.9 137.1 C 149.4 137.4 155.1 137.3 153.6 137.4 C 154.1 137.6 150.2 137.1 150.8 137.4 C 156.7 137.8 156.8 137.6 160.7 137.8 C 159.5 137.5 164.8 137.5 164.3 137.6 C 164.3 137.8 165.5 138.0 167.9 137.8 C 167.5 138.0 168.8 138.1 170.0 138.2 C 170.6 138.0 169.0 138.0 169.3 137.8 C 170.5 137.8 171.7 137.8 172.9 137.8 C 173.0 137.9 172.8 138.0 173.6 138.0 C 174.9 137.9 179.7 137.5 179.3 137.7 C 177.3 138.1 182.6 137.9 179.3 138.2 C 180.2 138.1 180.3 138.2 181.5 138.2 C 181.5 138.1 181.5 138.0 181.5 137.9 C 184.1 137.8 182.8 138.2 185.1 138.2 C 185.3 138.0 186.2 138.0 186.5 137.9 C 185.6 137.9 185.5 138.0 184.3 138.0 C 185.7 137.6 182.0 137.9 182.2 137.6 C 184.7 137.5 184.7 137.7 185.7 137.8 C 188.9 137.5 187.4 137.7 190.7 137.6 C 190.7 137.5 189.8 137.5 190.0 137.4 C 194.1 137.2 193.7 137.8 196.4 137.4 C 195.8 137.5 193.3 137.8 195.1 137.7 C 196.9 137.5 197.4 137.2 199.9 137.0 C 200.1 137.1 199.9 137.2 200.7 137.2 C 201.7 137.0 201.8 136.8 202.7 136.6 C 202.9 136.7 204.3 136.5 204.8 136.4 C 205.8 136.5 204.5 136.7 205.6 136.7 C 207.7 136.5 208.7 135.8 210.4 135.7 C 210.4 136.0 212.3 135.7 214.0 135.5 C 214.3 135.8 217.8 135.3 220.2 135.0 C 219.6 134.9 222.0 134.6 221.5 134.5 C 220.3 134.6 219.7 134.6 219.5 134.6 C 222.1 134.2 223.0 134.6 224.9 133.9 C 225.9 133.9 227.2 133.9 229.0 133.7 C 229.2 133.5 225.8 133.9 227.6 133.6 C 227.8 133.6 228.4 133.5 229.0 133.4 C 228.7 133.7 230.2 133.5 231.1 133.5 C 232.6 133.0 235.9 132.8 234.4 132.8 C 236.8 132.3 235.3 133.0 237.2 132.7 C 236.1 132.5 239.4 131.9 237.7 132.0 C 240.2 131.4 240.1 131.9 239.1 132.2 C 241.4 131.8 241.9 131.5 243.1 131.4 C 241.9 131.4 245.4 130.5 243.6 131.1 C 243.1 131.4 245.8 130.7 246.3 130.7 C 245.4 130.7 246.6 130.5 245.0 130.7 C 246.7 130.3 249.1 129.7 250.8 129.6 C 252.8 128.9 254.8 128.4 253.9 128.9 C 255.9 128.3 255.1 128.5 257.1 128.1 C 257.1 128.0 256.5 128.1 256.4 128.1 C 259.1 127.4 258.6 127.7 262.0 126.7 C 261.7 127.1 263.9 126.5 264.6 126.5 C 263.2 126.9 262.0 127.1 260.9 127.4 C 260.7 127.6 261.8 127.3 260.9 127.6 C 260.8 127.5 260.2 127.7 259.7 127.8 C 262.0 127.4 256.9 129.0 258.5 128.3 C 258.5 128.3 258.6 128.3 259.1 128.2 C 258.6 128.1 258.6 128.2 259.0 127.8 C 257.9 128.2 256.9 128.1 256.5 128.5 C 256.6 128.5 257.7 128.2 257.8 128.3 C 255.0 129.2 256.9 128.2 254.6 128.9 C 254.2 129.2 255.4 129.0 256.0 129.0 C 253.9 129.6 252.1 130.0 251.5 130.0 C 249.6 130.5 251.7 130.1 250.3 130.6 C 249.6 130.6 249.7 130.4 248.3 130.7 C 246.9 131.1 249.2 130.7 247.8 131.1 C 246.1 131.3 248.8 130.5 246.3 131.0 C 247.0 131.2 244.2 131.4 244.4 131.5 C 245.8 131.2 245.9 131.6 245.1 131.5 C 241.9 131.8 239.8 133.2 236.5 133.2 C 236.6 133.3 236.0 133.4 235.9 133.5 C 238.4 133.2 241.9 132.5 242.6 132.7 C 244.5 132.3 244.2 132.1 244.5 131.9 C 246.8 131.8 246.6 131.9 245.3 132.5 C 241.6 133.4 239.9 133.5 237.4 133.8 C 236.1 134.3 237.5 133.9 238.1 134.0 C 230.2 135.2 236.3 134.8 233.5 135.2 C 233.5 135.1 232.9 135.1 232.1 135.2 C 232.1 135.3 230.9 135.5 230.7 135.6 C 231.3 135.5 231.6 135.5 231.4 135.6 C 229.5 136.0 230.2 135.7 230.1 135.5 C 231.6 135.3 232.6 135.1 232.7 134.9 C 230.8 135.4 229.2 135.4 228.0 135.9 C 226.1 135.8 228.9 135.0 227.9 134.9 C 228.2 134.7 226.7 135.7 225.2 136.0 C 222.8 136.4 222.7 136.6 220.4 137.0 C 219.8 136.8 222.7 136.5 222.5 136.3 C 221.8 136.4 221.7 136.4 221.1 136.5 C 219.5 136.7 219.6 136.9 218.3 137.1 C 217.6 137.0 217.3 137.2 216.3 137.4 C 214.7 137.5 217.2 137.1 215.5 137.2 C 213.8 137.4 212.6 137.8 212.1 137.9 C 212.0 137.8 212.2 137.6 211.4 137.7 C 209.4 138.1 209.0 138.2 211.4 138.0 C 209.2 138.2 208.3 138.4 208.7 138.6 C 211.9 138.3 212.8 138.2 214.3 138.4 C 214.9 138.0 215.9 138.1 217.1 138.0 C 216.3 137.7 218.5 137.8 219.2 137.5 C 218.3 137.6 217.5 137.6 217.0 137.6 C 220.5 137.2 220.4 137.3 223.2 136.5 C 223.2 136.6 223.6 136.6 223.9 136.6 C 223.0 136.9 220.5 137.1 220.5 137.3 C 222.5 137.4 223.1 136.8 225.4 136.8 C 226.3 136.5 223.5 136.8 225.3 136.5 C 226.2 136.5 227.4 136.5 228.8 136.4 C 230.2 136.1 230.9 135.9 232.1 135.6 C 232.3 135.7 232.4 135.7 233.5 135.5 C 233.4 135.4 232.3 135.5 233.5 135.3 C 237.1 135.0 239.5 134.8 242.9 133.9 C 241.7 134.1 238.8 134.4 240.2 134.1 C 241.8 134.0 243.8 133.2 245.5 133.1 C 246.0 133.1 243.5 133.4 244.2 133.7 C 245.7 133.4 246.7 133.2 247.5 133.1 C 247.4 132.9 249.2 132.6 248.7 132.5 C 247.5 132.7 247.1 133.1 246.8 133.1 C 247.7 132.2 251.6 132.2 254.0 131.7 C 255.5 131.2 252.7 131.7 254.5 131.2 C 255.6 130.8 256.4 131.2 254.6 131.7 C 253.4 131.9 253.0 132.3 252.7 132.1 C 252.2 132.3 251.4 132.4 251.5 132.5 C 252.3 132.3 252.2 132.5 252.8 132.5 C 251.5 132.7 251.4 133.2 250.2 133.2 C 251.0 133.0 251.2 132.9 251.5 132.8 C 248.1 133.6 246.9 133.7 244.9 134.0 C 246.1 133.9 244.9 134.1 245.0 134.3 C 246.5 133.9 249.4 133.4 247.7 133.9 C 246.4 133.8 245.6 134.8 244.4 134.7 C 245.3 134.5 245.2 134.4 245.7 134.2 C 244.3 134.5 244.3 134.3 243.0 134.5 C 238.7 135.8 235.3 135.8 228.3 137.4 C 225.8 137.8 230.5 137.0 230.3 136.8 C 229.5 136.9 229.4 136.9 228.9 136.9 C 228.8 137.2 227.6 137.1 226.8 137.5 C 226.9 137.2 223.6 138.0 222.0 138.0 C 221.9 138.1 222.1 138.2 221.3 138.3 C 216.2 138.6 206.9 140.1 203.0 140.1 C 203.2 140.3 201.4 140.4 201.0 140.6 C 198.5 140.7 199.6 140.5 196.0 141.0 C 194.1 141.1 196.3 140.8 196.6 140.7 C 191.2 141.2 186.4 141.1 183.0 141.5 C 181.2 141.7 183.0 141.3 179.4 141.4 C 179.3 141.7 173.7 141.3 172.9 141.7 C 170.8 141.8 166.8 141.3 168.6 141.6 C 165.6 141.6 167.6 141.3 166.4 141.3 C 164.3 141.3 167.0 141.9 165.0 141.9 C 165.2 141.7 163.4 141.7 162.1 141.5 C 163.7 141.5 164.8 141.5 165.0 141.4 C 163.6 141.5 163.6 141.3 161.4 141.3 C 159.7 141.4 154.8 141.5 153.5 141.0 C 153.4 141.2 153.8 141.2 154.2 141.3 C 152.7 141.3 151.1 140.9 151.3 141.3 C 148.1 141.1 146.7 140.8 144.8 140.9 C 143.4 140.9 145.3 140.7 141.2 140.4 C 141.2 140.6 133.9 140.0 132.0 139.6 C 131.9 140.0 131.6 139.6 130.7 139.5 C 130.5 139.6 130.7 139.7 129.9 139.7 C 129.8 139.5 129.1 139.5 128.5 139.5 C 129.0 139.2 125.9 139.3 125.7 139.0 C 126.3 139.1 126.4 138.9 125.8 138.8 C 125.5 139.1 122.6 138.3 123.0 138.5 C 123.6 138.7 125.5 138.9 125.0 139.0 C 122.2 138.8 123.4 138.6 121.5 138.4 C 121.7 138.5 122.7 138.7 121.5 138.6 C 119.6 138.3 121.4 138.5 120.2 138.2 C 119.2 138.1 117.3 138.0 116.6 137.9 C 116.8 138.0 116.3 137.7 116.0 137.7 C 112.4 137.1 104.5 136.0 101.1 135.0 C 100.9 135.1 100.1 135.0 100.4 135.2 C 98.4 134.7 98.5 134.8 96.5 134.3 C 96.4 134.4 96.4 134.5 96.4 134.6 C 93.7 134.2 96.2 134.2 94.5 133.8 C 94.2 134.3 93.5 133.5 91.9 133.1 C 91.7 133.2 90.9 133.1 91.1 133.3 C 88.7 132.7 88.9 132.4 86.7 132.0 C 87.2 132.1 87.4 133.0 87.1 133.1 C 86.8 132.9 86.1 132.7 85.2 132.4 C 86.4 132.5 86.0 131.4 82.9 130.9 C 84.6 131.3 85.2 131.5 84.8 131.7 C 82.5 131.1 81.7 130.7 79.8 130.2 C 79.4 130.3 80.8 130.7 80.2 130.9 C 79.7 130.8 79.5 130.7 79.6 130.9 C 77.5 130.3 77.5 130.1 75.2 129.6 C 75.3 129.4 75.8 129.5 76.5 129.8 C 76.5 129.6 76.5 129.4 77.8 129.8 C 78.0 130.0 77.1 130.0 79.0 130.5 C 79.1 130.3 79.1 130.2 79.1 130.1 C 77.7 129.7 74.6 128.6 74.2 128.6 C 74.9 128.9 75.9 129.2 75.3 129.3 C 73.0 128.6 72.4 128.1 70.6 127.4 C 67.3 126.4 61.7 124.4 62.3 125.0 C 60.4 124.2 61.1 124.4 59.4 123.7 C 59.8 124.2 57.5 123.1 57.6 123.4 C 59.7 124.1 59.0 123.9 61.1 124.6 C 61.0 124.7 60.6 124.7 59.8 124.5 C 59.7 124.3 58.9 123.9 57.6 123.4 C 57.8 123.6 58.9 124.3 57.5 123.7 C 57.4 123.6 57.1 123.5 56.4 123.2 C 56.5 123.1 56.5 123.0 56.6 122.9 C 57.3 123.1 58.3 123.4 58.9 123.5 C 58.3 123.3 58.3 123.2 57.8 123.0 C 57.6 123.0 57.3 122.9 56.2 122.5 C 55.2 122.0 54.2 121.6 54.0 121.6 C 55.5 122.3 56.5 122.8 54.8 122.2 C 54.6 122.0 52.2 120.9 51.3 120.6 C 54.3 122.1 53.1 121.6 54.7 122.5 C 51.0 121.1 51.6 121.0 47.7 119.3 C 47.7 119.1 47.8 118.9 48.8 119.3 C 46.5 117.7 40.9 115.3 39.3 114.3 C 40.4 115.0 41.9 115.4 40.1 114.4 C 40.1 114.5 38.8 113.8 38.5 113.7 C 37.7 113.8 39.1 114.9 40.3 115.8 C 38.9 115.0 38.6 115.0 37.3 114.2 C 37.0 113.8 38.5 114.3 36.9 113.3 C 36.3 113.4 33.9 111.6 33.2 111.4 C 34.3 112.1 35.0 112.7 33.8 112.0 C 34.1 112.0 31.9 110.6 31.9 110.5 C 33.7 111.5 34.3 111.7 35.4 112.4 C 34.0 111.5 36.6 112.9 34.2 111.3 C 33.1 110.8 32.4 110.7 30.0 109.0 C 29.2 108.4 30.1 108.7 29.0 107.9 C 29.1 108.3 26.6 106.5 28.3 107.5 C 27.4 106.8 27.0 106.5 26.6 106.1 C 27.6 107.1 22.1 103.0 22.7 103.8 C 23.0 103.6 22.9 103.1 22.7 102.8 C 21.5 102.2 20.5 101.0 18.3 98.6 C 18.1 98.9 17.9 98.2 17.0 97.2 C 16.7 97.1 17.4 98.0 16.8 97.3 C 15.9 96.1 15.9 96.0 15.8 95.7 C 15.1 94.8 14.6 94.1 14.3 93.6 C 14.2 93.7 14.4 94.0 14.5 94.3 C 12.3 90.7 11.1 89.1 9.9 86.0 C 10.3 87.4 10.8 87.5 10.3 86.5 C 10.0 85.9 9.8 85.3 9.5 85.0 C 9.6 85.8 9.6 85.4 9.1 83.9 C 8.5 82.6 8.9 84.6 8.5 83.5 C 8.3 82.3 8.6 83.0 8.5 82.3 C 8.4 81.8 8.2 81.2 8.1 80.7 C 8.2 81.7 7.9 80.7 7.6 79.7 C 8.0 80.3 7.9 79.9 7.6 78.0 C 7.7 77.8 7.9 78.8 7.8 78.0 C 7.8 77.6 7.3 76.1 7.5 74.8 C 7.6 75.2 7.6 75.4 7.7 75.3 C 7.5 73.9 7.9 72.8 8.1 71.5 C 7.7 72.8 7.6 72.1 7.4 72.6 C 7.7 71.3 7.7 69.8 8.1 68.8 C 7.7 70.6 8.6 69.0 8.8 67.8 C 8.6 67.5 8.3 69.5 8.1 68.8 C 8.1 68.2 8.7 66.8 8.7 66.1 C 8.5 66.2 8.5 67.0 8.3 67.2 C 8.6 66.2 8.1 67.4 8.3 66.6 C 8.7 66.1 8.5 65.5 8.7 64.9 C 9.0 64.3 9.8 63.0 9.9 62.4 C 9.8 62.3 9.5 63.3 9.4 63.4 C 10.3 60.4 11.1 59.7 12.4 57.0 C 12.7 56.8 13.0 56.3 13.6 55.6 C 13.4 55.6 13.7 55.1 14.1 54.5 C 14.9 53.5 15.9 52.5 17.1 51.2 C 17.0 51.6 16.5 52.2 18.1 50.4 C 18.2 50.3 17.5 51.0 18.0 50.3 C 18.1 50.4 18.5 50.0 18.5 49.8 C 18.5 49.8 18.4 49.7 18.4 49.7 C 17.9 50.2 17.5 50.7 17.1 51.2 C 17.0 51.0 16.8 51.1 16.4 51.5 C 18.2 49.2 18.4 49.7 19.6 48.2 C 20.1 48.2 20.6 47.8 19.7 49.2 C 20.8 47.9 21.6 47.0 21.8 46.5 C 20.3 48.0 20.6 47.3 20.1 47.6 C 21.0 46.7 21.0 46.6 21.4 46.1 C 22.7 45.2 20.5 47.5 22.8 45.5 C 20.9 46.8 24.1 44.0 25.4 43.0 C 25.1 43.1 24.7 43.5 25.3 42.9 C 28.6 40.0 28.9 40.9 30.9 39.0 C 30.8 39.3 31.9 38.5 32.4 38.3 C 30.5 39.6 30.0 40.0 29.3 40.6 C 29.5 40.6 30.0 40.2 30.6 39.9 C 30.5 39.8 31.0 39.4 31.9 38.9 C 32.4 38.4 32.0 38.2 33.5 37.0 C 33.6 37.0 33.5 37.3 34.3 36.8 C 35.0 36.1 33.8 37.5 37.3 35.3 C 36.6 35.6 36.2 35.7 36.4 35.4 C 38.1 34.3 37.7 34.6 40.1 33.2 C 41.2 33.1 38.7 34.5 38.2 35.1 C 39.7 34.2 40.9 33.2 42.7 32.5 C 41.3 33.0 42.5 32.2 44.1 31.3 C 45.5 30.6 44.1 31.7 45.9 30.9 C 47.2 30.1 47.9 29.6 46.5 30.1 C 49.7 28.7 48.8 28.8 51.6 27.6 C 51.7 27.7 51.0 28.1 49.9 28.4 C 50.1 28.5 49.8 28.7 50.8 28.3 C 51.7 27.8 53.1 27.1 54.7 26.4 C 56.2 25.7 57.1 25.3 57.8 25.0 C 60.4 24.4 63.2 22.8 65.9 22.1 C 64.9 22.7 69.4 20.9 70.8 20.8 C 71.6 20.5 74.0 19.2 73.1 19.7 C 73.4 19.9 75.0 19.3 76.3 19.0 C 76.2 19.0 76.2 18.9 76.2 18.8 C 79.0 18.0 79.6 18.0 80.6 18.0 C 84.0 16.9 87.9 16.3 92.1 15.1 C 93.3 15.1 94.2 14.8 96.8 14.5 C 96.7 14.2 98.8 13.8 100.7 13.4 C 100.2 13.3 102.0 13.0 102.0 12.9 C 100.2 13.2 100.8 12.8 99.9 12.9 C 102.3 12.7 103.4 12.0 105.3 11.9 C 103.0 12.4 102.3 12.9 102.1 13.3 C 104.8 12.7 106.3 12.5 106.8 12.6 C 107.0 12.4 106.7 12.4 106.1 12.4 C 107.0 12.2 107.9 12.1 108.8 11.9 C 109.1 12.0 107.8 12.3 108.8 12.2 C 109.5 12.0 110.2 11.8 110.8 11.6 C 111.7 11.7 109.8 12.0 109.5 12.1 C 113.2 11.6 111.5 11.4 113.5 11.0 C 114.1 11.1 114.0 11.4 115.7 11.2 C 116.3 10.9 116.5 10.7 118.4 10.4 C 119.6 10.3 118.4 10.8 119.8 10.6 C 120.0 10.5 120.6 10.4 121.2 10.4 C 121.1 10.3 121.7 10.1 122.5 10.0 C 122.8 10.1 124.1 9.9 124.6 9.7 C 124.8 9.9 127.0 9.9 127.5 9.7 C 127.5 9.6 126.2 9.7 126.1 9.7 C 127.7 9.5 128.8 9.3 129.6 9.2 C 130.1 9.7 132.7 9.0 135.9 9.0 C 137.9 8.6 135.5 8.6 138.0 8.2 C 139.6 8.3 137.7 8.5 138.1 8.7 C 138.5 8.7 140.9 8.7 140.9 8.5 C 140.9 8.4 139.7 8.5 139.5 8.4 C 141.4 8.1 141.3 8.4 142.4 8.4 C 142.2 8.2 143.5 8.1 143.7 7.9 C 148.9 7.4 148.9 7.9 151.0 8.0 C 151.0 7.9 152.2 7.8 152.4 7.7 C 150.9 7.9 148.9 7.8 150.9 7.6 C 150.6 7.8 153.6 7.5 153.8 7.4 C 153.5 7.3 151.6 7.5 152.3 7.2 C 155.1 7.0 154.0 7.5 156.0 7.2 C 156.2 7.3 155.0 7.4 154.5 7.5 C 155.4 7.5 156.6 7.4 156.7 7.5 C 155.6 7.6 155.7 7.8 155.2 7.9 C 156.6 7.7 159.2 7.8 157.4 7.5 C 160.3 7.5 163.0 7.3 161.0 7.1 C 163.4 7.0 162.0 7.4 163.9 7.1 C 163.7 7.4 163.1 7.6 164.6 7.8 C 164.9 7.6 166.2 7.6 166.1 7.4 C 169.5 7.3 170.5 7.6 171.9 7.8 C 170.6 7.4 172.3 7.8 174.0 7.5 C 175.1 7.6 174.1 7.9 176.9 7.9 C 173.9 7.5 180.4 7.9 179.1 7.4 C 182.6 7.7 182.6 7.7 186.3 7.9 C 185.9 8.1 185.0 8.1 183.4 8.1 C 184.5 7.9 180.3 7.8 180.5 8.0 C 180.5 8.0 180.5 8.1 180.5 8.1 C 183.3 8.1 185.1 8.3 186.3 8.5 C 186.8 8.3 188.1 8.3 187.7 8.0 C 190.3 8.4 193.0 8.1 194.2 8.5 C 193.3 8.4 192.4 8.4 192.7 8.5 C 193.8 8.5 195.0 8.6 194.9 8.3 C 192.8 8.1 192.4 8.1 191.3 8.2 C 192.2 8.1 189.2 7.8 191.3 7.8 C 191.3 8.2 195.6 7.9 194.2 8.1 C 191.9 8.1 196.8 8.4 197.0 8.6 C 197.0 8.6 197.0 8.6 197.0 8.6 Z M 243.6 134.4 C 245.6 133.9 243.1 134.2 241.6 134.5 C 242.1 134.5 242.3 134.5 242.3 134.7 C 242.9 134.5 243.5 134.3 243.6 134.4 C 243.6 134.4 243.6 134.4 243.6 134.4 Z M 221.5 134.6 C 220.9 135.0 224.2 134.3 225.6 134.2 C 225.2 134.2 224.8 134.2 225.6 134.0 C 224.1 134.0 223.7 134.5 221.5 134.6 C 221.5 134.6 221.5 134.6 221.5 134.6 Z M 142.9 138.0 C 143.4 138.0 144.8 138.0 145.0 138.1 C 145.8 138.1 145.6 138.0 145.7 137.9 C 147.4 138.0 145.3 138.3 147.9 138.3 C 148.9 137.9 143.5 137.4 142.9 138.0 C 142.9 138.0 142.9 138.0 142.9 138.0 Z M 169.6 11.3 C 170.7 11.5 168.3 11.7 168.9 11.9 C 172.9 11.7 169.9 11.4 175.4 11.5 C 175.0 11.4 174.6 11.4 174.7 11.3 C 172.1 11.4 171.9 11.5 172.5 11.1 C 171.3 11.1 171.0 11.6 169.6 11.3 C 169.6 11.3 169.6 11.3 169.6 11.3 Z M 220.3 15.6 C 219.9 15.5 219.6 15.4 219.6 15.3 C 218.0 15.2 218.3 15.3 216.2 14.9 C 216.4 15.3 218.5 15.5 220.3 15.6 C 220.3 15.6 220.3 15.6 220.3 15.6 Z M 326.2 69.3 C 326.3 69.6 326.4 69.9 326.4 70.2 C 326.5 69.9 327.0 70.7 326.6 69.2 C 326.5 69.1 326.6 69.4 326.6 69.6 C 326.5 69.4 326.3 68.7 326.2 68.8 C 326.3 69.2 326.3 69.3 326.2 69.3 C 326.2 69.3 326.2 69.3 326.2 69.3 Z M 308.5 105.7 C 310.7 103.8 304.6 107.4 308.5 105.7 C 308.5 105.7 308.5 105.7 308.5 105.7 C 308.5 105.7 308.5 105.7 308.5 105.7 Z M 314.9 104.3 C 315.0 104.3 315.4 103.9 315.4 103.9 C 317.2 102.4 315.6 104.0 316.6 103.2 C 317.9 101.8 315.7 103.5 317.3 101.8 C 316.9 102.1 315.9 103.4 314.9 104.3 C 314.9 104.3 314.9 104.3 314.9 104.3 Z M 28.5 40.9 C 26.8 42.2 26.6 42.7 26.4 43.2 C 27.5 42.3 28.5 41.7 28.9 41.5 C 31.0 39.8 27.4 42.4 27.0 42.6 C 27.1 42.3 28.6 41.1 28.5 40.9 C 28.5 40.9 28.5 40.9 28.5 40.9 Z M 23.4 45.1 C 22.8 45.7 22.0 46.6 22.1 46.8 C 22.9 45.9 23.1 45.9 23.2 46.0 C 24.0 45.1 22.8 45.9 23.4 45.1 C 23.4 45.1 23.4 45.1 23.4 45.1 Z M 33.8 37.6 C 33.0 38.2 33.4 38.1 33.3 38.3 C 34.6 37.5 34.8 37.5 36.1 36.7 C 36.1 36.6 36.1 36.5 36.0 36.5 C 34.9 37.1 34.9 37.2 34.0 37.8 C 33.9 37.8 33.9 37.7 33.8 37.6 C 33.8 37.6 33.8 37.6 33.8 37.6 Z M 19.2 49.6 C 16.8 52.1 16.2 53.5 15.3 55.4 C 16.6 53.5 17.6 51.5 18.9 50.3 C 20.3 48.7 18.3 50.7 18.3 50.6 C 18.3 50.5 18.8 49.9 19.2 49.6 C 19.2 49.6 19.2 49.6 19.2 49.6 Z M 8.0 73.2 C 7.8 73.7 8.2 74.8 8.2 76.4 C 8.3 76.1 8.3 75.8 8.4 75.8 C 8.4 73.5 8.0 74.9 8.0 73.2 C 8.0 73.2 8.0 73.2 8.0 73.2 Z M 10.7 86.3 C 11.3 87.7 10.5 85.6 11.0 86.2 C 10.3 84.7 9.8 83.1 9.6 83.2 C 10.3 84.8 10.4 85.1 10.7 86.3 C 10.7 86.3 10.7 86.3 10.7 86.3 Z M 16.1 95.4 C 17.4 96.8 15.9 94.6 16.6 95.0 C 16.1 94.5 16.1 94.7 16.0 94.7 C 15.7 94.3 15.5 93.9 15.0 93.2 C 15.2 93.8 16.5 95.4 16.1 95.4 C 16.1 95.4 16.1 95.4 16.1 95.4 Z M 78.3 19.3 C 77.2 19.7 77.6 19.8 75.3 20.4 C 78.8 19.4 77.0 20.6 81.6 19.3 C 80.9 19.4 81.3 19.1 81.6 19.2 C 83.3 18.6 79.9 19.5 81.5 18.8 C 80.2 19.2 81.0 19.2 79.8 19.6 C 78.4 19.8 77.5 19.9 78.3 19.3 C 78.3 19.3 78.3 19.3 78.3 19.3 Z M 81.7 19.5 C 83.0 19.2 82.9 18.8 83.5 18.9 C 84.1 18.7 84.0 18.6 84.1 18.5 C 83.6 18.7 83.5 18.7 83.5 18.6 C 82.4 19.0 81.3 19.3 81.7 19.5 C 81.7 19.5 81.7 19.5 81.7 19.5 Z M 70.1 22.9 C 72.1 22.2 72.7 22.1 73.7 21.6 C 74.5 21.8 75.0 21.1 76.1 21.1 C 78.1 20.4 76.6 20.7 76.1 20.8 C 78.0 20.1 76.6 20.9 78.6 20.2 C 78.8 19.8 76.3 20.6 76.6 20.3 C 75.1 20.7 75.1 20.9 74.2 21.2 C 73.5 21.4 73.7 21.2 73.5 21.2 C 71.8 21.8 71.9 21.6 70.5 22.0 C 70.2 22.3 70.8 22.2 72.4 21.7 C 70.8 22.3 70.2 22.7 68.3 23.2 C 69.5 22.5 63.6 24.4 64.2 24.7 C 65.8 24.2 65.3 24.1 65.9 23.8 C 68.0 23.3 69.3 22.9 70.1 22.9 C 70.1 22.9 70.1 22.9 70.1 22.9 Z M 35.0 37.8 C 34.4 38.2 33.8 38.5 32.9 39.1 C 32.7 38.9 33.9 38.2 32.7 38.8 C 31.3 39.7 31.1 40.0 30.2 40.6 C 30.8 40.4 33.8 38.6 32.3 39.7 C 32.9 39.5 33.8 38.9 35.1 38.2 C 33.5 38.8 37.2 36.8 38.7 36.0 C 38.3 35.8 41.3 34.6 42.3 33.8 C 41.3 34.1 38.4 36.0 37.1 36.7 C 37.7 36.3 33.4 38.4 35.0 37.8 C 35.0 37.8 35.0 37.8 35.0 37.8 Z M 86.7 18.1 C 87.0 17.9 88.4 17.5 87.3 17.7 C 87.9 17.5 89.1 17.4 88.5 17.1 C 89.2 17.0 89.8 16.8 90.4 16.7 C 90.2 16.8 88.4 17.2 89.2 17.3 C 90.5 16.8 90.0 17.1 91.8 16.7 C 90.9 17.1 91.9 16.9 91.3 17.4 C 91.7 17.1 93.3 16.8 93.1 16.6 C 95.6 16.1 92.5 17.1 95.8 16.4 C 95.8 16.6 93.4 17.1 92.6 17.2 C 92.2 17.5 96.7 16.4 99.1 15.9 C 96.9 16.2 98.6 15.6 99.6 15.2 C 100.4 15.1 99.7 15.4 101.0 15.2 C 102.2 15.0 102.7 14.8 103.1 14.9 C 104.0 14.7 103.5 14.6 103.6 14.4 C 105.2 14.2 104.1 14.7 106.4 14.3 C 104.6 14.2 106.6 13.8 109.7 13.4 C 109.5 13.3 108.5 13.4 108.3 13.4 C 108.8 13.1 110.6 13.1 111.1 13.1 C 112.2 12.9 111.4 12.9 110.4 13.1 C 111.0 12.9 111.7 12.7 112.4 12.5 C 109.0 13.0 103.7 14.0 97.6 14.9 C 98.8 14.8 97.4 15.1 95.6 15.4 C 95.3 15.4 96.1 15.2 96.9 15.0 C 94.7 15.1 95.0 15.7 91.7 16.3 C 90.0 16.6 93.7 15.7 91.7 16.0 C 90.5 16.3 89.7 16.7 89.1 16.6 C 87.0 17.2 86.5 17.6 83.4 18.4 C 85.2 18.1 86.2 18.4 88.0 17.8 C 88.0 17.7 87.2 18.0 86.7 18.1 C 86.7 18.1 86.7 18.1 86.7 18.1 Z M 23.3 46.1 C 22.4 46.9 22.1 47.4 21.8 47.5 C 20.4 49.0 22.2 47.5 22.5 47.3 C 23.2 46.6 23.3 46.3 23.3 46.1 C 23.3 46.1 23.3 46.1 23.3 46.1 Z M 152.0 140.6 C 154.7 140.8 154.2 140.4 156.4 140.5 C 154.6 140.4 154.2 140.1 151.3 140.1 C 151.2 140.3 151.2 140.4 152.0 140.6 C 152.0 140.6 152.0 140.6 152.0 140.6 Z M 29.0 41.7 C 30.4 40.4 27.5 43.2 27.4 43.0 C 25.8 44.5 29.0 42.0 27.6 43.4 C 28.9 42.2 29.9 41.7 31.8 40.2 C 31.6 40.1 30.0 41.2 28.6 42.3 C 28.3 42.3 29.1 41.8 29.0 41.7 C 29.0 41.7 29.0 41.7 29.0 41.7 Z M 124.4 137.7 C 122.6 137.6 126.1 138.3 127.2 138.6 C 127.3 138.2 126.7 138.2 124.4 137.7 C 124.4 137.7 124.4 137.7 124.4 137.7 Z M 170.7 140.6 C 171.8 140.3 167.5 140.6 168.6 140.3 C 167.3 140.2 167.2 140.3 167.1 140.4 C 166.5 140.3 164.4 140.4 165.0 140.2 C 164.6 140.0 168.2 140.2 167.1 139.9 C 168.3 139.9 168.4 140.0 169.3 140.0 C 167.2 140.0 168.2 140.3 170.7 140.3 C 170.7 140.1 169.6 140.2 170.7 140.0 C 170.9 140.1 172.2 140.3 172.2 140.7 C 174.4 140.6 173.1 140.2 175.7 140.2 C 175.5 140.1 173.8 140.1 172.9 140.0 C 173.1 139.8 175.7 140.2 175.0 139.8 C 175.6 140.0 177.1 140.1 177.2 140.4 C 175.2 140.5 173.8 140.7 172.2 140.8 C 173.7 141.0 175.9 140.4 178.6 140.6 C 178.3 140.4 179.9 140.4 179.4 140.2 C 181.5 140.2 180.5 140.5 180.1 140.5 C 180.7 140.7 184.7 140.4 184.4 140.3 C 184.7 140.4 189.6 140.2 189.4 139.9 C 190.9 140.0 193.1 139.5 193.7 139.8 C 194.5 139.7 196.2 139.6 198.0 139.5 C 198.5 139.1 195.4 139.5 195.2 139.3 C 194.6 139.1 198.5 139.2 198.0 139.0 C 198.0 138.9 198.0 138.9 198.0 138.8 C 196.5 139.0 195.1 139.2 193.7 139.3 C 192.6 139.4 194.0 139.2 193.7 139.1 C 192.7 139.3 188.1 139.8 188.0 139.4 C 184.9 139.7 182.7 139.6 181.5 139.9 C 179.7 139.9 182.5 139.7 181.5 139.5 C 176.1 140.0 169.5 139.7 165.0 140.0 C 164.0 140.0 164.4 139.8 164.2 139.7 C 158.1 139.7 163.3 140.2 158.5 139.9 C 158.5 139.7 160.8 139.8 160.7 139.6 C 159.0 139.6 158.6 139.7 156.3 139.5 C 156.3 139.7 156.3 139.8 156.3 139.9 C 154.5 139.8 155.2 139.5 154.2 139.4 C 151.9 139.4 152.5 139.5 151.4 139.2 C 149.2 139.2 147.1 139.2 144.9 138.9 C 143.4 139.0 146.2 139.5 148.5 139.7 C 148.3 139.7 147.7 139.7 147.7 139.8 C 145.1 139.4 144.7 139.0 140.7 138.6 C 143.7 139.1 139.1 138.6 138.5 138.4 C 136.9 138.2 138.1 138.7 139.2 138.7 C 139.0 138.8 138.0 138.6 137.8 138.5 C 137.6 138.9 141.5 139.4 145.6 139.5 C 143.7 139.8 148.5 139.6 146.3 140.0 C 149.6 140.1 146.8 139.7 150.6 139.9 C 150.2 139.8 149.5 139.7 149.2 139.6 C 152.0 139.7 151.2 140.0 154.2 140.0 C 154.7 139.8 152.7 139.8 152.8 139.6 C 156.0 140.0 157.1 140.1 159.2 140.4 C 159.7 140.3 159.1 140.1 162.8 140.3 C 162.8 140.3 162.8 140.4 162.8 140.4 C 161.1 140.4 160.6 140.8 165.0 140.9 C 165.3 140.7 163.9 140.7 162.8 140.7 C 163.3 140.5 164.7 140.5 166.4 140.5 C 167.2 140.5 168.2 140.6 167.1 140.7 C 167.8 140.9 168.4 140.5 170.7 140.6 C 170.7 140.6 170.7 140.6 170.7 140.6 Z M 8.8 70.6 C 8.8 71.0 8.8 71.4 8.7 72.2 C 8.9 72.5 9.0 71.1 9.1 71.1 C 9.3 70.0 8.9 70.8 8.8 70.6 C 8.8 70.6 8.8 70.6 8.8 70.6 Z M 14.6 56.4 C 14.4 56.4 14.1 57.2 13.4 58.4 C 13.3 58.8 14.1 57.4 14.2 57.5 C 15.1 56.2 13.7 57.6 14.6 56.4 C 14.6 56.4 14.6 56.4 14.6 56.4 Z M 11.3 62.4 C 10.8 62.8 11.2 63.0 11.6 61.9 C 11.7 62.0 11.7 62.3 11.5 63.0 C 12.0 62.4 11.8 61.7 12.5 60.5 C 12.2 60.9 11.8 61.5 11.3 62.4 C 11.3 62.4 11.3 62.4 11.3 62.4 Z M 10.5 64.4 C 10.4 65.2 10.0 65.6 9.8 67.0 C 10.0 66.7 10.9 63.9 11.0 63.4 C 11.0 62.9 9.8 65.9 10.5 64.4 C 10.5 64.4 10.5 64.4 10.5 64.4 Z M 97.4 133.0 C 98.0 133.1 97.9 133.0 98.1 133.0 C 100.0 133.7 102.9 134.2 100.6 134.1 C 102.8 134.3 104.7 135.0 106.5 135.4 C 108.1 135.7 107.4 135.3 108.6 135.5 C 110.6 135.9 107.6 135.4 107.9 135.6 C 108.3 135.9 108.9 135.6 111.3 136.1 C 110.7 135.6 113.4 136.4 112.7 135.9 C 114.0 136.3 114.4 136.2 116.2 136.4 C 116.0 136.2 114.3 136.0 114.1 135.8 C 113.3 135.4 113.2 135.9 114.8 136.1 C 113.8 136.2 111.5 135.4 110.7 135.5 C 109.9 135.1 112.9 135.8 112.1 135.4 C 111.5 135.3 110.9 135.3 110.8 135.4 C 109.8 135.1 109.1 135.0 108.7 134.8 C 109.3 134.9 109.4 134.9 109.4 135.0 C 110.6 135.2 108.2 134.4 110.8 134.8 C 110.4 134.6 109.3 134.5 109.5 134.3 C 108.7 134.1 109.4 135.0 106.7 134.3 C 104.9 134.2 110.9 135.2 109.3 135.4 C 105.6 134.8 107.7 134.8 104.7 134.2 C 104.7 134.3 104.8 134.4 104.0 134.3 C 104.1 134.4 105.2 134.6 106.0 134.7 C 105.8 134.8 104.7 134.6 103.9 134.4 C 104.1 134.5 104.7 134.6 104.6 134.7 C 102.1 134.2 102.5 133.7 104.8 134.0 C 104.7 133.8 101.6 133.2 100.8 133.2 C 101.6 133.5 100.7 133.3 101.3 133.7 C 102.0 133.8 101.9 133.7 102.1 133.7 C 103.2 133.9 102.1 133.8 102.0 133.9 C 100.7 133.6 100.8 133.4 99.4 133.3 C 99.7 133.3 100.1 133.3 100.1 133.2 C 99.4 133.1 98.7 132.9 98.1 132.8 C 98.1 133.0 97.3 132.8 97.4 133.0 C 97.4 133.0 97.4 133.0 97.4 133.0 Z M 132.8 138.9 C 135.1 139.2 133.9 138.8 132.8 138.7 C 133.3 138.7 134.1 138.7 135.0 138.8 C 134.3 138.6 133.7 138.6 131.5 138.4 C 133.4 138.2 131.5 137.6 128.0 137.3 C 126.9 137.6 129.8 138.0 128.7 138.2 C 131.2 138.3 132.6 138.6 132.8 138.9 C 132.8 138.9 132.8 138.9 132.8 138.9 Z M 22.6 47.3 C 21.6 48.2 20.6 49.2 19.7 50.1 C 20.0 50.2 23.1 47.4 22.6 47.3 C 22.6 47.3 22.6 47.3 22.6 47.3 Z M 115.1 12.4 C 115.7 12.3 115.8 12.4 115.9 12.4 C 117.9 12.1 114.9 12.4 115.8 12.0 C 115.1 12.1 114.4 12.2 113.7 12.3 C 113.6 12.5 116.6 12.1 114.4 12.5 C 114.6 12.6 115.1 12.5 115.1 12.4 C 115.1 12.4 115.1 12.4 115.1 12.4 Z M 9.3 69.6 C 9.2 70.5 9.6 70.0 9.3 72.2 C 9.5 71.4 9.5 70.9 9.7 69.6 C 9.5 69.6 9.4 69.6 9.3 69.6 C 9.3 69.6 9.3 69.6 9.3 69.6 Z M 87.6 131.2 C 89.1 131.8 89.7 131.4 92.8 132.2 C 91.2 131.6 89.4 131.6 87.6 131.2 C 87.6 131.2 87.6 131.2 87.6 131.2 Z M 203.7 138.6 C 202.6 138.6 203.9 138.5 202.2 138.5 C 201.2 138.7 200.8 138.8 199.4 139.0 C 201.4 139.1 205.0 138.5 206.4 138.8 C 208.2 138.6 208.0 138.3 208.5 138.1 C 207.7 138.2 207.3 138.2 207.1 138.1 C 206.2 138.6 204.9 138.1 203.7 138.6 C 203.7 138.6 203.7 138.6 203.7 138.6 Z M 123.8 137.5 C 122.5 137.2 124.7 137.4 125.2 137.3 C 126.1 137.4 125.8 137.6 125.9 137.7 C 127.1 137.8 127.5 137.7 127.3 137.5 C 125.0 137.2 122.1 136.8 123.9 136.7 C 121.6 136.4 122.8 136.9 121.7 136.8 C 120.5 136.5 121.7 136.5 121.8 136.3 C 121.2 136.3 119.5 136.3 119.7 136.0 C 116.4 135.9 117.8 136.5 120.2 137.2 C 122.5 137.3 119.9 136.8 123.8 137.5 C 123.8 137.5 123.8 137.5 123.8 137.5 Z M 39.2 112.6 C 39.3 112.8 40.7 113.5 40.6 113.6 C 42.3 114.3 43.9 114.8 45.5 115.4 C 45.3 115.0 43.1 114.1 43.9 114.7 C 43.3 114.2 41.9 113.4 41.1 112.8 C 39.6 111.9 38.8 112.1 38.8 111.6 C 37.4 110.9 38.1 111.4 36.0 110.0 C 39.3 112.3 34.7 109.4 34.4 109.5 C 36.3 110.7 38.2 111.8 38.0 111.4 C 39.5 112.4 41.2 113.4 41.5 113.8 C 41.3 113.8 40.0 113.1 39.2 112.6 C 39.2 112.6 39.2 112.6 39.2 112.6 Z M 48.9 116.8 C 48.2 116.5 47.5 116.3 46.4 115.7 C 47.0 116.1 47.2 116.3 47.1 116.4 C 49.2 117.4 49.7 117.5 50.4 118.0 C 52.4 119.0 50.0 117.5 53.1 119.0 C 52.9 118.8 51.3 118.2 51.4 118.1 C 51.1 118.1 49.8 117.6 48.9 116.8 C 48.9 116.8 48.9 116.8 48.9 116.8 Z M 69.3 125.4 C 70.8 125.8 68.5 125.0 69.4 125.0 C 69.0 124.9 66.1 123.9 66.5 123.8 C 65.8 123.2 62.7 122.8 63.1 122.5 C 62.4 122.3 62.6 122.5 62.5 122.6 C 64.5 123.2 64.4 123.4 63.0 122.9 C 63.2 123.1 64.4 123.5 65.2 123.8 C 65.4 123.7 64.6 123.4 64.8 123.3 C 66.5 124.0 67.7 124.7 69.3 125.4 C 69.3 125.4 69.3 125.4 69.3 125.4 Z M 192.6 9.6 C 190.9 9.5 189.9 9.5 189.0 9.5 C 189.5 9.7 190.3 9.6 191.2 9.6 C 191.4 9.8 190.6 9.8 189.7 9.7 C 190.5 10.0 193.5 9.9 192.6 9.6 C 192.6 9.6 192.6 9.6 192.6 9.6 Z M 178.3 9.1 C 176.6 9.0 175.6 9.1 175.4 9.2 C 176.0 9.4 175.8 9.1 176.9 9.1 C 177.5 9.2 177.9 9.3 178.3 9.4 C 179.0 9.4 178.8 9.3 179.0 9.3 C 179.6 9.3 179.7 9.3 179.7 9.4 C 181.7 9.2 177.4 9.3 178.3 9.1 C 178.3 9.1 178.3 9.1 178.3 9.1 Z M 59.6 121.7 C 59.1 121.4 58.8 121.2 57.5 120.6 C 57.7 120.9 56.2 120.3 54.8 119.7 C 56.8 120.8 57.6 121.0 59.6 121.7 C 59.6 121.7 59.6 121.7 59.6 121.7 Z M 91.3 17.5 C 89.3 17.8 89.6 18.1 86.8 18.6 C 86.8 18.7 86.8 18.8 86.9 18.8 C 88.5 18.2 89.3 18.2 91.3 17.5 C 91.3 17.5 91.3 17.5 91.3 17.5 Z M 327.4 87.4 C 327.3 87.2 326.6 88.7 326.4 88.7 C 326.6 89.2 325.7 89.6 323.9 92.5 C 323.7 92.5 323.8 92.2 324.1 91.9 C 322.5 94.1 324.7 91.4 325.1 91.2 C 326.2 89.4 326.5 89.2 327.4 87.4 C 327.4 87.4 327.4 87.4 327.4 87.4 Z M 182.2 139.1 C 182.1 139.2 182.5 139.2 182.9 139.2 C 183.4 139.2 183.9 139.2 184.3 139.1 C 184.2 138.8 181.8 138.8 183.6 138.4 C 183.0 138.4 182.9 138.4 182.9 138.5 C 179.4 139.3 176.7 138.2 172.1 138.7 C 171.4 138.7 171.6 138.8 171.4 138.8 C 172.0 138.8 172.1 138.9 172.1 138.9 C 172.7 138.6 176.8 138.9 175.0 139.0 C 175.2 139.1 175.7 139.1 175.7 139.0 C 176.2 139.0 176.7 139.0 177.2 139.0 C 176.9 138.9 175.9 138.9 175.7 138.8 C 178.0 138.9 180.8 138.9 179.4 139.2 C 180.8 139.1 181.2 139.0 182.2 138.9 C 183.1 138.9 183.1 139.1 182.2 139.1 C 182.2 139.1 182.2 139.1 182.2 139.1 Z M 200.7 138.1 C 202.9 137.9 202.1 137.7 204.3 137.6 C 202.9 137.5 201.2 138.0 199.3 137.9 C 199.6 138.0 200.5 137.9 200.7 138.1 C 200.7 138.1 200.7 138.1 200.7 138.1 Z M 159.3 138.8 C 159.7 138.5 157.8 138.4 155.7 138.3 C 155.2 138.6 157.1 138.7 159.3 138.8 C 159.3 138.8 159.3 138.8 159.3 138.8 Z M 168.6 138.9 C 170.7 138.8 165.9 138.8 167.1 138.6 C 166.1 138.6 165.1 138.6 165.0 138.5 C 164.2 138.5 164.2 138.7 162.9 138.6 C 162.9 138.8 165.2 138.7 165.0 138.9 C 166.6 138.7 166.9 138.7 168.6 138.9 C 168.6 138.9 168.6 138.9 168.6 138.9 Z M 170.0 138.9 C 171.4 138.8 169.6 138.4 167.9 138.4 C 168.5 138.6 168.9 138.8 170.0 138.9 C 170.0 138.9 170.0 138.9 170.0 138.9 Z M 17.3 93.0 C 17.8 93.6 17.6 93.0 18.2 93.8 C 18.3 93.7 16.2 90.9 18.0 93.2 C 17.6 92.2 16.9 92.0 16.2 90.9 C 16.4 91.3 16.5 91.6 16.1 91.0 C 15.7 90.8 17.7 93.2 17.3 93.0 C 17.3 93.0 17.3 93.0 17.3 93.0 Z M 19.6 95.8 C 20.0 96.3 19.9 96.0 19.6 95.7 C 19.8 95.7 20.4 96.5 20.9 97.1 C 20.9 97.2 20.3 95.8 20.5 95.7 C 18.3 93.6 19.7 95.5 19.6 95.8 C 19.6 95.8 19.6 95.8 19.6 95.8 Z M 21.8 97.9 C 23.1 99.6 25.4 101.6 26.7 102.4 C 25.7 101.1 22.7 98.4 21.8 97.9 C 21.8 97.9 21.8 97.9 21.8 97.9 Z M 12.1 82.4 C 12.7 85.4 15.7 90.8 13.6 85.6 C 13.5 85.9 12.1 82.6 11.8 80.9 C 11.7 80.9 11.1 79.1 11.2 79.1 C 10.8 77.8 12.1 83.1 12.1 82.4 C 12.1 82.4 12.1 82.4 12.1 82.4 Z M 29.2 103.8 C 28.2 103.2 29.2 104.4 27.8 103.2 C 27.0 102.6 28.0 103.5 27.7 103.4 C 29.4 104.8 33.5 107.3 33.7 107.7 C 34.7 108.3 35.1 108.4 37.1 109.6 C 37.2 109.6 30.2 105.3 29.1 103.9 C 29.3 103.9 31.5 105.6 29.2 103.8 C 29.2 103.8 29.2 103.8 29.2 103.8 Z M 91.6 18.9 C 91.8 18.7 89.1 19.5 89.6 19.1 C 88.2 19.7 86.8 19.9 85.3 20.5 C 84.8 20.5 84.9 20.1 82.7 20.6 C 82.7 20.9 83.8 20.5 82.8 21.0 C 80.8 21.5 81.3 21.1 79.0 21.8 C 79.5 22.1 74.3 23.3 74.9 23.5 C 76.1 23.1 75.9 23.0 77.9 22.5 C 78.6 22.3 78.3 22.5 79.1 22.3 C 78.6 22.7 77.5 22.6 76.7 23.1 C 77.0 23.2 78.4 22.7 78.7 22.8 C 79.5 22.6 78.4 22.8 78.6 22.6 C 80.9 21.9 78.5 23.2 81.2 22.4 C 80.6 22.3 80.6 22.3 81.0 21.9 C 82.1 21.8 85.3 20.8 83.6 21.5 C 83.8 21.6 85.7 20.9 85.4 20.8 C 86.4 20.5 86.6 20.5 86.7 20.6 C 89.3 19.9 89.7 19.6 89.0 19.5 C 89.5 19.1 90.0 19.4 91.6 18.9 C 91.6 18.9 91.6 18.9 91.6 18.9 Z M 11.9 67.0 C 12.1 65.9 11.6 68.3 11.3 69.4 C 11.6 68.1 11.9 68.6 12.3 67.2 C 12.1 67.6 12.0 67.5 12.3 66.6 C 12.2 66.3 11.6 68.4 11.9 67.0 C 11.9 67.0 11.9 67.0 11.9 67.0 Z M 41.4 112.1 C 42.1 112.7 46.1 114.7 48.4 115.8 C 48.1 115.3 42.7 113.1 42.2 112.4 C 41.0 111.8 42.8 112.9 41.4 112.1 C 41.4 112.1 41.4 112.1 41.4 112.1 Z M 68.2 25.1 C 67.6 25.4 68.0 25.3 68.3 25.2 C 68.1 25.4 66.9 25.8 66.0 26.1 C 67.3 25.8 65.8 26.4 66.1 26.5 C 65.5 26.8 65.1 26.9 65.0 27.0 C 64.8 26.6 61.5 28.5 65.2 27.3 C 64.4 27.3 64.7 27.2 66.2 26.6 C 67.8 26.2 69.1 25.6 69.7 25.7 C 70.8 25.3 71.2 25.0 72.6 24.6 C 73.0 24.6 74.4 24.3 73.4 25.0 C 76.0 24.2 74.1 24.2 76.2 23.5 C 78.3 23.0 75.2 24.0 75.8 24.1 C 76.3 23.9 76.2 24.1 76.4 24.1 C 77.1 23.8 77.1 23.6 76.3 23.8 C 76.5 23.7 78.6 22.9 78.1 23.3 C 79.3 22.9 76.0 23.2 74.4 23.9 C 73.4 24.3 73.3 23.8 74.3 23.5 C 73.8 23.5 72.0 24.6 72.4 24.0 C 71.6 24.2 70.9 24.4 70.1 24.7 C 70.2 24.7 70.6 24.6 70.7 24.7 C 69.9 24.9 69.1 25.2 68.3 25.4 C 69.0 25.1 69.0 25.0 68.2 25.1 C 68.2 25.1 68.2 25.1 68.2 25.1 Z M 32.6 106.6 C 34.1 107.7 34.6 107.8 35.9 108.6 C 35.5 108.1 32.0 105.9 32.6 106.6 C 32.6 106.6 32.6 106.6 32.6 106.6 Z M 102.9 17.3 C 102.6 17.3 101.5 17.5 101.5 17.4 C 103.5 17.0 101.2 17.3 102.7 16.5 C 100.1 17.3 99.3 18.0 102.9 17.5 C 105.4 17.0 100.2 17.9 102.9 17.3 C 102.9 17.3 102.9 17.3 102.9 17.3 Z M 94.9 18.8 C 93.4 19.2 97.4 18.5 98.3 18.4 C 98.3 18.5 98.3 18.6 98.3 18.6 C 100.5 17.8 97.5 18.3 99.4 17.4 C 96.8 17.8 95.7 18.0 93.6 18.6 C 93.7 18.7 94.2 18.5 94.2 18.4 C 95.8 18.1 94.8 18.7 93.0 19.0 C 93.5 19.0 95.1 18.6 96.2 18.4 C 95.9 18.4 95.5 18.4 95.6 18.3 C 96.9 18.0 96.5 18.3 97.5 18.1 C 97.5 18.2 95.0 18.9 94.9 18.8 C 94.9 18.8 94.9 18.8 94.9 18.8 Z M 232.0 15.8 C 230.6 15.6 233.4 16.4 233.2 16.7 C 234.6 17.0 234.9 17.0 235.9 17.1 C 235.4 16.9 233.9 16.6 233.3 16.3 C 233.6 16.1 235.3 16.7 235.9 16.6 C 236.9 16.4 232.5 16.2 232.0 15.8 C 232.0 15.8 232.0 15.8 232.0 15.8 Z M 35.7 40.5 C 35.0 41.0 35.4 40.8 35.7 40.6 C 35.6 40.8 34.5 41.5 34.5 41.4 C 33.5 42.1 35.1 41.2 33.9 42.0 C 33.8 42.3 35.7 40.8 35.8 40.7 C 37.2 39.7 36.2 40.7 36.7 40.6 C 38.0 39.7 37.4 39.8 39.3 38.8 C 38.1 39.3 37.0 39.8 35.7 40.5 C 35.7 40.5 35.7 40.5 35.7 40.5 Z M 107.4 16.0 C 107.6 15.9 105.9 16.7 104.1 16.8 C 101.8 17.2 105.5 16.8 103.5 17.1 C 105.2 16.9 107.3 16.3 110.1 15.8 C 110.7 15.6 106.3 16.4 108.7 15.9 C 108.6 15.8 108.0 16.0 108.0 16.0 C 107.5 16.1 107.4 16.1 107.4 16.0 C 107.4 16.0 107.4 16.0 107.4 16.0 Z M 104.8 17.1 C 104.9 17.1 105.5 17.0 105.5 16.9 C 106.4 16.8 106.4 17.0 105.6 17.2 C 106.7 17.2 106.5 16.7 108.9 16.5 C 107.8 16.5 107.4 16.4 109.5 16.2 C 111.1 15.7 105.5 16.8 104.8 17.1 C 104.8 17.1 104.8 17.1 104.8 17.1 Z M 210.1 13.0 C 210.3 13.1 211.8 13.2 212.9 13.3 C 211.5 13.4 205.9 12.7 205.2 12.5 C 204.6 12.5 204.0 12.5 203.8 12.4 C 203.8 12.4 202.2 12.4 203.0 12.5 C 202.9 12.6 201.7 12.5 201.7 12.6 C 199.5 12.4 202.3 12.5 201.7 12.3 C 199.1 12.3 199.7 12.1 196.7 11.9 C 197.2 12.2 200.5 12.3 200.2 12.6 C 202.6 12.5 205.1 12.9 206.5 13.3 C 204.3 12.8 212.5 13.4 216.3 13.9 C 216.1 14.0 217.5 14.2 219.0 14.5 C 220.1 14.9 219.8 14.3 217.7 14.2 C 217.8 14.0 220.6 14.5 221.8 14.6 C 220.4 14.3 221.2 14.3 220.5 14.1 C 217.8 13.7 220.2 14.1 219.7 14.3 C 219.1 14.2 218.4 14.1 217.6 14.0 C 221.3 14.1 212.4 13.3 215.6 13.7 C 212.8 13.4 212.8 13.1 210.1 13.0 C 210.1 13.0 210.1 13.0 210.1 13.0 Z M 143.3 11.8 C 142.8 11.8 140.6 12.2 140.5 12.0 C 137.6 12.4 140.2 12.4 137.0 12.7 C 137.2 12.7 138.4 12.6 138.4 12.7 C 139.6 12.5 140.9 12.3 140.5 12.1 C 141.9 12.0 142.4 11.9 143.3 11.8 C 143.0 12.0 142.4 12.1 141.2 12.2 C 141.0 12.4 141.5 12.5 143.3 12.3 C 144.2 12.1 143.6 11.9 143.3 11.8 C 143.3 11.8 143.3 11.8 143.3 11.8 Z M 136.3 12.6 C 135.9 12.6 135.5 12.6 135.6 12.5 C 134.5 12.3 135.2 12.8 134.1 12.9 C 133.3 13.0 133.6 12.8 133.4 12.7 C 132.2 12.9 131.3 13.0 130.7 13.0 C 128.8 13.3 132.9 13.0 133.5 13.0 C 134.8 12.9 134.3 12.7 136.3 12.6 C 136.3 12.6 136.3 12.6 136.3 12.6 Z M 115.5 14.8 C 115.1 14.6 114.4 15.1 113.5 15.2 C 114.2 15.3 116.1 14.9 114.9 15.4 C 116.9 15.2 117.0 15.1 119.0 14.8 C 120.3 14.8 119.0 14.6 116.9 15.0 C 117.2 14.9 118.1 14.7 118.2 14.6 C 119.6 14.9 123.0 13.7 121.0 14.3 C 120.3 14.3 119.9 14.3 119.6 14.2 C 119.1 14.5 114.5 15.1 115.5 14.8 C 115.5 14.8 115.5 14.8 115.5 14.8 Z M 51.7 32.5 C 53.4 31.7 54.3 31.3 55.2 31.0 C 56.0 30.6 57.3 30.1 58.4 29.7 C 58.5 29.7 58.4 29.9 57.9 30.0 C 58.5 29.9 59.1 29.6 60.1 29.2 C 60.0 29.1 59.5 29.4 59.5 29.4 C 57.7 29.9 59.2 29.3 59.4 29.0 C 57.2 29.7 54.1 31.5 52.4 31.9 C 51.2 32.5 52.7 31.9 51.7 32.5 C 51.7 32.5 51.7 32.5 51.7 32.5 Z M 326.4 84.6 C 326.4 84.9 326.0 85.7 326.2 85.6 C 326.5 84.9 326.7 84.4 326.9 83.7 C 326.3 85.0 326.1 84.7 325.3 86.3 C 325.7 85.9 325.9 86.1 326.4 84.6 C 326.4 84.6 326.4 84.6 326.4 84.6 Z M 122.3 14.0 C 122.4 14.1 122.5 14.2 121.7 14.3 C 121.5 14.5 123.7 14.1 123.7 14.3 C 124.5 14.2 124.2 14.1 125.1 13.9 C 124.8 13.9 123.0 14.1 123.7 13.8 C 124.3 13.7 124.4 13.7 124.4 13.8 C 125.8 13.5 123.7 13.7 122.3 14.0 C 122.3 14.0 122.3 14.0 122.3 14.0 Z M 238.6 17.2 C 237.7 17.1 238.5 17.3 239.2 17.5 C 237.3 17.4 240.3 18.1 240.4 18.4 C 239.6 18.0 237.0 17.6 236.5 17.5 C 235.7 17.4 236.6 17.8 234.5 17.4 C 234.7 17.7 237.0 17.9 236.5 17.6 C 237.0 18.0 239.3 18.1 239.1 18.4 C 242.0 19.0 242.7 19.0 243.0 18.8 C 240.2 18.3 241.7 18.2 239.2 17.7 C 239.2 17.7 240.0 17.8 240.5 17.9 C 240.3 17.7 239.3 17.4 238.6 17.2 C 238.6 17.2 238.6 17.2 238.6 17.2 Z M 166.1 11.0 C 164.5 11.0 164.6 11.2 164.6 11.4 C 165.3 11.4 166.2 11.3 167.5 11.3 C 167.2 11.2 165.3 11.3 166.1 11.0 C 166.1 11.0 166.1 11.0 166.1 11.0 Z M 227.9 15.7 C 227.7 15.6 227.2 15.5 227.2 15.6 C 225.5 15.3 225.1 15.1 224.5 14.9 C 223.6 14.8 223.9 15.0 223.8 15.1 C 225.4 15.2 225.1 15.4 227.2 15.7 C 227.1 15.6 227.3 15.6 227.9 15.7 C 227.9 15.7 227.9 15.7 227.9 15.7 Z M 181.1 11.3 C 180.2 11.3 180.6 11.4 181.1 11.4 C 180.1 11.6 177.2 11.3 176.1 11.4 C 175.9 11.6 179.5 11.7 175.4 11.7 C 176.1 11.9 179.9 11.8 181.7 11.9 C 181.3 12.1 178.8 12.0 178.9 12.3 C 181.1 12.2 183.5 12.1 183.9 11.8 C 180.7 11.7 181.8 11.5 181.1 11.3 C 181.1 11.3 181.1 11.3 181.1 11.3 Z M 184.6 11.6 C 184.3 11.5 183.7 11.6 182.5 11.5 C 184.3 11.9 185.3 11.8 188.9 12.0 C 188.9 12.0 188.9 11.9 188.9 11.8 C 189.6 11.9 190.4 11.9 191.1 12.0 C 188.0 11.5 187.2 11.7 183.9 11.6 C 183.8 11.6 184.2 11.6 184.6 11.6 C 184.6 11.6 184.6 11.6 184.6 11.6 Z M 91.8 19.6 C 92.7 19.6 93.5 19.5 95.0 19.2 C 94.9 19.1 93.9 19.1 91.8 19.6 C 91.8 19.6 91.8 19.6 91.8 19.6 Z M 230.5 16.3 C 232.4 16.4 228.8 16.0 229.8 16.4 C 231.2 16.7 232.8 17.1 233.1 17.3 C 235.8 17.5 230.1 16.5 230.5 16.3 C 230.5 16.3 230.5 16.3 230.5 16.3 Z M 218.3 15.0 C 217.5 14.9 217.5 14.5 218.3 14.9 C 220.2 15.1 216.6 14.4 219.6 14.9 C 218.4 14.6 215.5 14.1 214.1 14.1 C 214.2 14.3 216.8 14.6 216.9 14.8 C 217.0 14.9 216.6 14.8 216.2 14.8 C 216.4 14.9 217.1 14.8 218.3 15.0 C 218.3 15.0 218.3 15.0 218.3 15.0 Z M 207.9 13.5 C 209.1 13.7 210.4 14.0 212.8 14.2 C 211.2 13.9 210.4 13.6 207.9 13.5 C 207.9 13.5 207.9 13.5 207.9 13.5 Z M 323.8 60.5 C 323.1 59.4 323.5 60.5 323.5 60.7 C 324.1 61.8 324.2 61.6 324.8 62.9 C 324.8 62.4 323.9 61.4 323.8 60.5 C 323.8 60.5 323.8 60.5 323.8 60.5 Z M 325.6 64.6 C 325.5 64.8 326.2 66.3 326.0 66.5 C 326.8 67.2 326.4 68.8 326.8 68.7 C 326.8 69.1 326.8 69.4 327.0 70.1 C 327.1 68.7 326.2 66.0 325.6 64.6 C 325.6 64.6 325.6 64.6 325.6 64.6 Z M 195.9 13.0 C 194.1 12.8 196.4 13.4 194.5 13.2 C 194.4 13.3 198.1 13.6 195.9 13.5 C 198.7 13.9 195.7 13.0 195.9 13.0 C 195.9 13.0 195.9 13.0 195.9 13.0 Z M 161.1 12.5 C 161.2 12.3 158.6 12.5 157.6 12.5 C 157.6 12.6 158.4 12.5 159.0 12.5 C 158.7 12.6 158.3 12.7 157.6 12.7 C 158.1 12.9 160.1 12.5 161.1 12.5 C 161.1 12.5 161.1 12.5 161.1 12.5 Z M 199.8 9.1 C 201.0 9.4 202.5 9.7 203.3 9.4 C 204.5 9.7 202.5 9.6 204.0 9.9 C 206.0 9.9 205.0 10.1 208.2 10.3 C 207.6 10.5 209.9 10.7 210.3 11.0 C 209.0 10.9 207.4 10.4 206.7 10.6 C 207.8 10.7 207.2 10.9 206.7 10.7 C 204.6 10.4 209.4 10.6 206.8 10.2 C 206.0 10.5 202.3 9.6 199.8 9.4 C 200.7 9.3 197.9 8.9 199.8 9.1 C 199.8 9.1 199.8 9.1 199.8 9.1 Z M 212.4 10.7 C 214.1 10.9 214.9 11.5 214.5 11.4 C 214.5 11.3 212.6 11.1 212.4 11.2 C 212.8 11.2 213.2 11.3 213.1 11.4 C 210.0 11.0 211.1 10.9 210.3 10.7 C 212.1 10.7 212.5 10.9 213.1 10.9 C 212.7 10.8 212.3 10.8 212.4 10.7 C 212.4 10.7 212.4 10.7 212.4 10.7 Z M 247.4 20.5 C 247.1 20.3 246.7 20.4 246.1 20.3 C 246.0 19.9 242.6 19.7 242.2 19.4 C 243.0 19.4 244.7 19.8 245.5 19.9 C 244.6 19.6 244.5 19.5 243.6 19.4 C 243.8 19.3 245.7 19.7 246.2 19.6 C 246.4 19.8 247.3 19.8 247.5 20.0 C 245.0 19.5 248.8 20.8 247.4 20.5 C 247.4 20.5 247.4 20.5 247.4 20.5 Z M 179.6 12.6 C 179.4 12.8 182.4 13.4 179.6 13.7 C 179.0 13.5 178.7 13.2 178.9 12.9 C 177.1 13.1 176.4 12.8 175.3 13.0 C 172.1 12.3 177.8 13.1 179.6 12.6 C 179.6 12.6 179.6 12.6 179.6 12.6 Z M 168.2 12.7 C 168.8 12.5 167.2 12.5 167.5 12.3 C 168.9 12.5 173.3 12.2 171.8 12.4 C 170.3 12.4 170.3 12.7 168.2 12.7 C 168.2 12.7 168.2 12.7 168.2 12.7 Z M 80.6 127.1 C 78.6 126.7 77.7 126.0 78.9 126.2 C 78.3 126.3 81.4 127.0 80.6 127.1 C 80.6 127.1 80.6 127.1 80.6 127.1 Z M 10.7 88.2 C 11.3 89.8 11.9 90.6 11.8 90.9 C 10.9 89.5 11.2 89.5 10.5 88.3 C 10.4 88.2 9.9 87.5 10.0 87.3 C 10.3 88.0 10.4 87.8 10.7 88.2 C 10.7 88.2 10.7 88.2 10.7 88.2 Z M 124.6 9.6 C 124.4 9.6 123.6 9.6 123.9 9.4 C 126.0 9.3 128.4 8.8 130.2 8.5 C 130.2 8.6 130.2 8.7 130.2 8.8 C 126.8 9.0 126.0 9.3 124.6 9.6 C 124.6 9.6 124.6 9.6 124.6 9.6 Z M 120.4 9.7 C 120.0 9.9 121.2 10.0 119.7 10.2 C 119.8 10.0 117.1 10.1 118.3 9.9 C 118.7 10.0 119.4 9.9 120.4 9.7 C 120.4 9.7 120.4 9.7 120.4 9.7 Z M 239.2 14.1 C 240.8 14.4 238.5 13.7 238.6 13.6 C 239.7 13.9 241.4 14.2 241.9 14.4 C 240.7 14.2 239.8 14.4 239.2 14.1 C 239.2 14.1 239.2 14.1 239.2 14.1 Z M 213.8 10.8 C 210.2 10.4 211.8 10.2 208.3 9.7 C 209.7 9.7 213.0 10.1 213.9 10.0 C 213.8 10.1 214.7 10.3 214.6 10.4 C 213.3 10.3 213.1 10.1 211.8 10.0 C 212.2 10.3 212.3 10.2 211.7 10.4 C 212.7 10.5 213.3 10.5 213.9 10.6 C 213.6 10.7 214.9 10.9 213.8 10.8 C 213.8 10.8 213.8 10.8 213.8 10.8 Z M 238.4 14.6 C 239.8 14.8 240.9 15.3 239.7 15.1 C 239.6 14.9 238.6 14.9 238.4 14.7 C 240.3 15.0 236.8 14.3 237.8 14.3 C 239.0 14.5 239.4 14.5 239.1 14.3 C 239.9 14.5 241.1 14.7 241.1 14.8 C 240.6 14.7 239.8 14.5 239.8 14.6 C 240.2 14.7 240.6 14.8 240.4 14.8 C 239.3 14.6 238.7 14.5 238.4 14.6 C 238.4 14.6 238.4 14.6 238.4 14.6 Z M 229.0 12.9 C 230.9 13.3 231.0 13.5 231.7 13.8 C 229.2 13.3 228.8 12.9 227.0 12.5 C 229.0 12.8 231.1 12.9 231.8 13.1 C 230.8 13.1 229.2 12.8 229.0 12.9 C 229.0 12.9 229.0 12.9 229.0 12.9 Z M 258.6 129.1 C 257.1 129.3 255.9 129.5 254.2 129.8 C 253.7 130.2 256.9 129.9 255.5 130.0 C 253.8 130.5 254.9 129.9 253.5 130.2 C 255.0 130.2 247.6 132.0 247.2 131.7 C 248.3 131.5 248.7 131.3 248.4 131.2 C 251.4 130.5 252.5 130.0 254.7 129.4 C 256.4 129.3 261.0 128.2 263.4 127.1 C 265.1 127.1 267.9 125.8 270.1 125.4 C 270.6 125.1 268.2 125.7 270.0 125.1 C 271.2 125.0 270.3 125.4 271.9 125.0 C 272.0 124.8 271.6 124.8 272.4 124.5 C 272.3 124.7 273.3 124.4 273.7 124.3 C 270.5 125.4 274.0 124.6 271.5 125.5 C 270.4 125.7 272.4 124.7 269.5 125.7 C 268.5 126.1 267.6 126.5 267.9 126.6 C 267.0 126.9 266.6 127.1 266.1 127.3 C 267.1 126.6 261.9 128.6 264.2 127.6 C 264.4 127.5 266.1 127.0 267.2 126.6 C 266.1 126.7 264.8 127.2 262.9 127.9 C 262.1 127.9 263.2 127.5 262.3 127.7 C 260.8 128.3 262.9 127.9 261.8 128.4 C 262.3 128.2 263.0 128.0 263.0 128.1 C 260.4 128.6 259.4 129.1 258.1 129.5 C 258.9 129.1 256.5 129.7 258.6 129.1 C 258.6 129.1 258.6 129.1 258.6 129.1 Z M 279.9 121.9 C 280.5 121.7 281.0 121.5 281.6 121.2 C 281.8 121.4 279.6 122.3 281.2 121.9 C 278.7 122.8 281.2 121.6 279.9 121.9 C 279.9 121.9 279.9 121.9 279.9 121.9 Z M 268.1 125.1 C 267.1 125.1 267.8 125.5 266.9 125.7 C 268.4 125.3 269.7 124.8 270.0 125.0 C 268.3 125.4 267.5 125.7 265.8 126.3 C 267.4 125.4 263.8 126.6 263.2 126.5 C 264.5 126.0 265.6 125.6 267.4 125.0 C 267.1 125.2 269.7 124.5 268.1 125.1 C 268.1 125.1 268.1 125.1 268.1 125.1 Z M 272.7 123.2 C 273.1 123.3 275.5 122.3 275.1 122.7 C 273.6 123.2 273.0 123.5 273.4 123.6 C 272.3 124.0 272.1 123.9 271.1 124.3 C 270.3 124.2 272.2 123.6 272.7 123.3 C 272.4 123.4 272.0 123.5 272.7 123.2 C 272.7 123.2 272.7 123.2 272.7 123.2 Z M 319.1 94.6 C 319.6 94.4 317.9 96.2 317.5 96.5 C 318.2 96.1 318.0 96.4 316.9 97.6 C 317.1 96.9 315.5 98.7 314.2 99.4 C 314.1 99.8 315.6 98.6 314.0 100.1 C 312.6 101.2 311.5 102.3 309.2 104.1 C 308.5 104.2 309.5 103.5 310.0 102.9 C 308.5 104.1 308.9 103.6 307.6 104.5 C 307.9 104.4 307.0 105.2 306.5 105.4 C 308.6 103.8 303.4 107.1 305.7 105.4 C 305.9 105.4 306.4 105.0 306.9 104.6 C 306.5 105.3 309.3 103.2 310.0 102.9 C 310.7 101.6 313.7 99.5 316.4 97.1 C 316.7 97.0 315.9 97.9 316.6 97.3 C 316.6 97.1 317.5 96.2 317.8 95.8 C 317.8 95.9 318.2 95.7 318.7 95.1 C 318.7 95.0 318.8 95.0 319.1 94.6 C 319.1 94.6 319.1 94.6 319.1 94.6 Z M 145.1 136.3 C 145.2 135.9 140.7 135.9 139.4 135.9 C 139.7 135.4 147.6 136.1 145.1 136.3 C 145.1 136.3 145.1 136.3 145.1 136.3 Z M 172.8 136.8 C 171.6 136.8 172.5 137.0 171.4 137.1 C 171.4 136.8 168.7 137.3 168.6 137.1 C 169.9 136.8 170.7 136.9 172.8 136.8 C 172.8 136.8 172.8 136.8 172.8 136.8 Z M 198.5 135.9 C 196.4 136.1 199.6 135.9 199.2 136.1 C 197.4 136.2 195.5 136.3 195.6 136.1 C 197.2 136.1 198.2 135.7 198.5 135.9 C 198.5 135.9 198.5 135.9 198.5 135.9 Z M 160.0 136.5 C 158.3 136.3 161.2 136.1 161.4 136.3 C 159.6 136.3 162.7 136.5 164.3 136.5 C 164.2 136.8 163.5 136.7 164.3 136.9 C 161.8 137.0 163.9 136.7 162.1 136.7 C 160.9 136.8 162.2 136.8 162.1 137.0 C 161.4 137.0 160.7 137.0 160.0 136.9 C 160.0 136.8 160.0 136.7 160.0 136.5 C 160.9 136.6 161.7 136.6 161.4 136.4 C 160.7 136.4 160.6 136.5 160.0 136.5 C 160.0 136.5 160.0 136.5 160.0 136.5 Z M 286.5 115.8 C 285.2 116.4 286.4 116.0 287.4 115.5 C 287.6 115.3 288.2 114.5 289.8 114.1 C 286.7 115.8 290.9 114.0 289.2 114.9 C 288.3 115.0 286.5 116.2 284.8 116.8 C 284.1 116.9 285.6 115.9 286.5 115.8 C 286.5 115.8 286.5 115.8 286.5 115.8 Z M 292.3 113.2 C 292.1 113.3 291.6 113.5 290.7 114.0 C 291.6 113.3 290.2 113.9 291.4 113.3 C 291.3 113.4 295.4 111.4 293.0 112.7 C 290.8 113.7 293.7 112.5 294.7 112.1 C 293.6 112.6 291.8 113.8 291.5 113.7 C 292.1 113.5 292.5 113.2 292.3 113.2 C 292.3 113.2 292.3 113.2 292.3 113.2 Z M 324.5 85.4 C 324.4 85.2 324.1 86.0 323.9 86.2 C 325.0 84.0 325.7 82.1 326.0 81.0 C 325.7 82.0 325.9 82.1 326.2 81.5 C 325.8 82.6 325.8 82.9 325.5 83.2 C 325.7 82.2 325.2 84.0 324.5 85.4 C 324.5 85.4 324.5 85.4 324.5 85.4 Z M 324.5 85.4 " fill="#000000"></path><image xlink:href="../../CEFA4209-80C9-472B-8D2B-058B96531B72/assets/431BD2BFE54A6EFCB4B133EE2A4ED9FC.png" width="209.00" height="56.00" transform="matrix(1.00, 0.00, -0.00, -1.00, 68.0, 92.0)"></image><g><clipPath id="clip-994"><path d="M 10.8 10.2 L 329.6 10.2 L 329.6 138.6 L 10.8 138.6 Z M 10.8 10.2 "></path></clipPath><g clip-path="url(#clip-994)"><text xml:space="preserve" font-family="Chalkduster" font-size="32.0" fill="#000000" transform="matrix(1.00, 0.00, -0.00, -1.00, 71.0, 60.0)">L</text><text xml:space="preserve" font-family="Chalkduster" font-size="32.0" fill="#000000" transform="matrix(1.00, 0.00, -0.00, -1.00, 91.3, 60.0)">i</text><text xml:space="preserve" font-family="Chalkduster" font-size="32.0" fill="#000000" transform="matrix(1.00, 0.00, -0.00, -1.00, 103.9, 60.0)">n</text><text xml:space="preserve" font-family="Chalkduster" font-size="32.0" fill="#000000" transform="matrix(1.00, 0.00, -0.00, -1.00, 127.4, 60.0)">k</text><text xml:space="preserve" font-family="Chalkduster" font-size="32.0" fill="#000000" transform="matrix(1.00, 0.00, -0.00, -1.00, 152.3, 60.0)"> </text><text xml:space="preserve" font-family="Chalkduster" font-size="32.0" fill="#000000" transform="matrix(1.00, 0.00, -0.00, -1.00, 168.2, 60.0)">S</text><text xml:space="preserve" font-family="Chalkduster" font-size="32.0" fill="#000000" transform="matrix(1.00, 0.00, -0.00, -1.00, 184.1, 60.0)">p</text><text xml:space="preserve" font-family="Chalkduster" font-size="32.0" fill="#000000" transform="matrix(1.00, 0.00, -0.00, -1.00, 204.2, 60.0)">e</text><text xml:space="preserve" font-family="Chalkduster" font-size="32.0" fill="#000000" transform="matrix(1.00, 0.00, -0.00, -1.00, 224.1, 60.0)">e</text><text xml:space="preserve" font-family="Chalkduster" font-size="32.0" fill="#000000" transform="matrix(1.00, 0.00, -0.00, -1.00, 244.9, 60.0)">d</text></g></g></g></svg>