<?xml version="1.0" encoding="UTF-8" standalone="no"?><svg xmlns="http://www.w3.org/2000/svg" xmlns:xlink="http://www.w3.org/1999/xlink" clip-rule="evenodd" stroke-miterlimit="4.00" viewBox="0 0 309 124"><desc>SVG generated by Keynote</desc><defs></defs><g transform="matrix(1.00, 0.00, -0.00, -1.00, 0.0, 124.0)"><g><clipPath id="clip-1057"><path d="M 259.6 102.4 C 317.8 80.5 317.8 44.9 259.6 22.9 C 201.3 0.9 106.9 0.9 48.7 22.9 C -9.5 44.9 -9.5 80.5 48.7 102.4 C 106.9 124.4 201.3 124.4 259.6 102.4 Z M 259.6 102.4 "></path></clipPath><g clip-path="url(#clip-1057)"><image xlink:href="../../CEFA4209-80C9-472B-8D2B-058B96531B72/assets/59DBD66EA15A3D40E065F836EF2595FD.jpeg" width="400.00" height="400.00" transform="matrix(1.00, 0.00, -0.00, -1.00, 5.1, 118.9)"></image></g></g><path d="M 76.4 10.7 C 75.9 10.8 75.4 11.0 74.6 11.2 C 75.0 11.2 75.3 11.2 75.2 11.3 C 75.9 11.1 76.8 10.8 78.2 10.5 C 78.2 10.5 77.5 10.6 77.0 10.7 C 76.4 10.8 76.5 10.7 76.4 10.7 C 76.4 10.7 76.4 10.7 76.4 10.7 Z M 64.4 111.0 C 63.2 110.6 64.4 111.2 64.9 111.4 C 64.9 111.3 65.0 111.3 65.4 111.5 C 65.5 111.7 64.5 111.5 63.7 111.3 C 60.6 110.3 63.0 110.6 64.4 111.0 C 64.4 111.0 64.4 111.0 64.4 111.0 Z M 235.2 113.1 C 237.8 112.5 235.0 112.9 234.6 112.9 C 235.8 112.6 234.7 112.4 236.2 112.0 C 236.6 112.1 237.1 112.0 237.5 112.0 C 236.8 112.2 235.8 112.4 235.7 112.6 C 236.6 112.3 237.9 112.0 238.1 112.1 C 236.1 112.6 237.8 112.4 238.2 112.4 C 236.4 112.9 235.9 113.2 235.2 113.1 C 235.2 113.1 235.2 113.1 235.2 113.1 Z M 279.8 29.3 C 280.7 29.8 281.4 30.2 281.1 30.2 C 280.2 29.7 279.7 29.3 279.1 29.0 C 279.0 29.0 279.2 29.3 278.4 28.9 C 277.5 28.2 278.1 28.2 278.7 28.3 C 278.6 28.5 281.7 30.1 279.8 29.3 C 279.8 29.3 279.8 29.3 279.8 29.3 Z M 209.4 8.1 C 207.0 7.7 209.3 8.5 206.9 8.0 C 207.0 7.8 206.6 7.5 208.2 7.7 C 208.3 7.8 209.3 8.0 209.4 8.1 C 209.4 8.1 209.4 8.1 209.4 8.1 Z M 163.1 120.1 C 163.1 120.2 164.9 120.1 164.5 120.4 C 163.6 120.4 162.7 120.4 161.8 120.4 C 161.6 120.3 161.9 120.1 163.1 120.1 C 163.1 120.1 163.1 120.1 163.1 120.1 Z M 251.5 106.1 C 254.0 105.6 256.5 104.3 255.8 104.8 C 256.8 104.7 254.3 106.1 254.3 105.8 C 254.0 105.6 249.6 106.8 251.5 106.1 C 251.5 106.1 251.5 106.1 251.5 106.1 Z M 78.7 110.3 C 81.4 111.1 81.0 110.3 82.8 111.0 C 82.2 110.9 81.9 110.9 81.6 110.9 C 82.1 111.0 82.8 111.2 82.7 111.2 C 81.4 111.0 79.8 110.7 78.7 110.3 C 78.7 110.3 78.7 110.3 78.7 110.3 Z M 119.2 4.7 C 119.7 4.6 120.0 4.5 119.9 4.4 C 121.9 4.3 121.9 4.1 123.2 4.2 C 123.3 4.5 121.5 4.5 119.9 4.6 C 119.9 4.7 119.3 4.7 119.2 4.7 C 119.2 4.7 119.2 4.7 119.2 4.7 Z M 177.7 4.7 C 177.7 4.5 176.5 4.4 178.4 4.4 C 180.6 4.8 178.6 4.9 176.4 4.9 C 176.4 5.0 176.4 5.2 176.3 5.3 C 177.2 5.3 177.8 5.4 178.3 5.5 C 178.7 5.1 180.2 5.9 183.6 5.9 C 182.0 5.9 183.7 6.4 181.6 6.1 C 182.1 6.3 180.7 6.2 180.9 6.4 C 181.8 6.4 184.1 6.6 183.6 6.2 C 184.7 6.3 185.6 6.4 186.2 6.5 C 187.0 6.8 184.1 6.4 184.9 6.7 C 185.5 6.8 185.6 6.8 186.1 6.9 C 186.3 6.8 186.0 6.7 186.8 6.7 C 188.9 7.0 186.4 7.0 189.4 7.3 C 189.6 7.1 188.7 7.0 188.8 6.9 C 190.1 6.9 190.0 7.1 191.4 7.0 C 191.6 7.2 190.4 7.2 191.3 7.3 C 192.2 7.0 194.0 7.8 195.9 7.7 C 194.7 7.0 196.2 7.8 197.9 7.5 C 198.2 7.7 197.0 7.9 198.5 8.0 C 198.0 7.4 203.8 8.2 199.2 7.2 C 201.6 7.5 202.5 7.1 200.6 6.8 C 204.8 7.4 203.5 6.9 205.1 7.1 C 206.7 7.3 204.2 7.1 205.0 7.4 C 203.3 7.2 203.7 7.4 202.5 7.1 C 202.5 7.2 202.2 7.2 201.8 7.2 C 203.6 7.3 205.5 7.9 204.3 8.0 C 203.4 7.9 204.3 7.7 203.1 7.6 C 203.5 8.0 201.8 7.3 201.7 7.6 C 202.5 8.0 200.0 7.9 202.3 8.3 C 202.4 8.1 202.4 8.0 202.4 7.9 C 203.0 8.0 203.6 8.0 204.3 8.1 C 204.8 8.4 204.3 8.5 204.9 8.7 C 205.9 8.8 206.5 8.9 206.8 8.8 C 205.5 8.6 204.0 8.1 206.2 8.4 C 205.3 8.8 209.2 8.9 207.4 9.0 C 209.7 9.5 210.9 9.3 211.1 9.6 C 212.4 9.8 211.6 9.4 213.1 9.7 C 215.3 10.3 215.0 9.8 218.0 10.6 C 218.4 10.3 218.3 10.7 219.2 10.9 C 219.3 10.8 219.3 10.6 219.3 10.5 C 220.3 10.9 222.8 11.5 225.3 11.7 C 226.0 11.9 225.5 12.1 227.1 12.3 C 228.9 12.4 230.9 13.2 233.1 13.3 C 233.2 13.6 234.6 13.9 235.4 14.0 C 235.7 14.2 234.6 14.2 235.9 14.5 C 236.8 14.5 235.3 14.1 237.1 14.4 C 236.9 14.6 238.9 14.6 238.8 14.9 C 238.3 14.9 237.6 14.8 237.1 14.7 C 237.8 14.9 237.6 15.0 238.2 15.2 C 238.2 14.8 239.5 15.5 239.9 15.6 C 239.9 15.5 240.1 15.4 240.6 15.5 C 241.5 15.7 242.3 15.9 242.8 16.0 C 244.1 16.5 242.1 16.0 243.3 16.4 C 244.1 16.0 245.2 17.0 247.8 17.4 C 248.4 17.7 249.4 18.2 251.0 18.7 C 251.3 18.6 249.5 18.1 249.5 18.0 C 251.8 18.8 249.1 17.7 250.6 18.2 C 254.0 19.4 256.1 20.1 259.5 21.6 C 259.5 21.4 263.6 22.8 263.5 22.8 C 262.3 22.4 265.7 24.1 267.4 24.8 C 268.0 24.7 270.8 25.5 271.0 25.4 C 271.5 25.9 271.4 25.8 271.5 26.3 C 274.3 27.7 275.8 28.1 277.2 29.3 C 277.2 29.1 278.4 29.7 279.4 30.2 C 279.1 30.2 278.4 30.0 277.8 29.8 C 279.2 30.5 279.3 30.8 280.4 31.4 C 281.9 31.5 283.3 33.3 284.4 33.3 C 286.1 34.4 285.7 34.4 287.1 35.5 C 287.2 35.3 287.4 35.4 287.9 35.6 C 286.9 35.0 286.0 34.6 285.6 34.0 C 287.9 35.5 281.6 30.6 285.6 32.9 C 285.6 33.0 285.2 32.9 286.0 33.5 C 288.1 34.8 287.0 33.8 286.1 33.2 C 287.6 34.1 289.0 35.2 288.1 34.2 C 291.2 36.4 289.1 35.1 290.1 36.0 C 295.5 40.0 300.9 45.4 303.5 51.9 C 303.9 51.9 305.0 55.5 305.1 56.7 C 305.8 58.4 306.0 60.4 305.8 60.9 C 306.1 61.3 305.6 63.2 305.9 63.4 C 305.9 62.6 306.0 62.1 306.1 62.9 C 305.9 65.6 304.9 69.5 304.6 71.1 C 303.9 71.9 303.3 73.6 302.8 74.8 C 302.6 74.9 303.0 74.0 302.6 74.7 C 302.7 75.0 301.4 77.5 300.9 78.0 C 301.4 77.3 301.6 76.3 300.9 77.3 C 301.0 77.4 300.2 78.6 300.6 78.4 C 299.4 79.9 298.9 80.8 297.7 81.9 C 298.6 80.9 298.9 80.3 298.9 80.0 C 298.4 80.9 297.9 81.6 297.1 82.2 C 297.5 82.2 296.2 83.4 294.9 84.9 C 294.4 85.2 294.0 85.4 292.9 86.5 C 292.4 87.2 294.9 85.0 293.6 86.3 C 293.5 86.2 292.1 87.2 292.6 87.1 C 290.9 88.5 290.0 89.4 288.4 90.3 C 290.3 89.0 288.7 89.7 288.2 90.0 C 287.8 90.4 287.1 90.8 287.1 90.9 C 287.2 91.0 288.2 90.3 288.3 90.2 C 286.9 91.1 286.7 91.8 286.1 91.9 C 286.7 91.5 286.8 91.3 286.0 91.8 C 286.1 92.2 281.5 94.8 283.0 93.7 C 283.0 93.8 284.7 92.7 284.8 92.5 C 284.3 92.7 281.8 94.4 282.2 93.8 C 283.7 92.9 283.7 93.1 285.3 92.0 C 285.4 91.7 286.3 91.0 286.9 90.5 C 284.3 92.3 283.8 92.9 283.3 92.9 C 282.1 93.7 283.0 93.5 280.9 94.6 C 277.9 96.3 280.2 94.7 279.4 95.0 C 276.8 96.7 277.8 96.5 279.1 96.1 C 276.9 97.3 276.3 97.8 273.4 99.1 C 273.5 98.9 273.8 98.6 274.8 98.1 C 274.9 98.1 277.3 97.1 277.0 97.0 C 276.6 96.8 274.7 97.7 271.6 99.1 C 272.5 99.1 272.5 98.8 269.3 100.3 C 270.0 100.4 267.8 100.9 267.8 101.2 C 268.0 101.2 269.1 100.7 270.2 100.2 C 270.2 100.4 269.9 100.6 268.8 101.2 C 268.1 101.4 267.6 101.7 265.5 102.5 C 265.3 102.4 266.7 101.7 267.0 101.4 C 265.9 101.9 265.7 102.1 264.5 102.6 C 263.5 102.8 263.4 102.5 263.4 102.1 C 264.7 101.6 266.7 100.7 265.0 101.2 C 269.8 99.2 264.9 101.7 266.7 100.9 C 268.6 99.8 267.7 100.7 270.7 99.3 C 271.6 98.8 271.8 98.6 272.2 98.4 C 271.9 98.4 270.1 99.0 272.0 98.1 C 272.5 98.0 273.6 97.6 275.1 96.9 C 275.0 96.8 272.0 98.2 275.0 96.7 C 276.4 96.0 275.3 97.0 277.2 95.9 C 277.2 95.8 277.7 95.5 277.8 95.4 C 275.1 96.9 278.3 94.9 276.3 95.8 C 278.7 94.4 276.9 95.8 278.4 94.9 C 278.4 94.8 281.1 93.6 281.0 93.3 C 280.1 94.0 278.1 95.0 278.3 94.7 C 280.1 93.7 287.2 88.8 284.7 91.0 C 285.6 90.2 290.1 86.4 289.8 86.8 C 288.5 87.9 288.7 88.0 288.5 88.3 C 291.0 86.0 292.3 85.2 294.3 82.7 C 291.8 85.1 293.4 83.0 291.7 84.3 C 291.1 84.9 290.0 85.7 289.9 86.0 C 290.4 85.9 291.5 84.8 291.8 84.3 C 291.9 84.5 292.1 84.6 292.2 84.8 C 289.1 87.3 287.3 88.8 285.6 89.9 C 287.0 88.9 282.5 91.6 284.2 90.4 C 285.0 90.0 286.8 88.8 288.2 87.8 C 288.2 87.8 288.1 87.7 288.1 87.6 C 288.7 87.2 289.5 86.5 289.5 86.4 C 287.7 87.9 286.5 88.4 285.3 89.6 C 285.3 89.5 285.2 89.5 285.2 89.4 C 284.9 89.6 284.5 89.9 284.6 89.7 C 285.3 89.3 286.2 88.6 286.2 88.5 C 284.8 89.5 284.4 89.5 282.6 90.6 C 282.9 90.1 280.5 91.3 282.9 89.5 C 283.4 89.5 284.8 88.7 284.8 88.8 C 285.5 88.4 286.9 87.4 287.4 86.8 C 286.7 87.2 285.3 88.1 285.1 88.0 C 286.1 87.1 286.9 86.4 287.7 86.1 C 285.6 87.9 288.9 85.4 289.9 84.9 C 289.6 85.0 289.1 85.3 288.7 85.5 C 290.3 84.2 291.1 83.7 290.9 83.4 C 292.6 81.7 292.4 82.3 293.5 81.1 C 292.5 81.6 294.1 80.3 293.1 80.8 C 294.9 78.9 293.9 80.5 294.5 79.8 C 295.0 79.2 295.0 79.1 295.4 78.5 C 296.2 77.8 297.5 76.0 297.9 76.0 C 298.4 75.2 298.6 75.1 299.0 74.4 C 299.0 74.1 299.1 73.8 299.2 73.4 C 299.4 73.4 299.8 72.9 299.7 72.7 C 298.4 74.6 298.7 74.0 297.0 76.0 C 297.0 76.2 296.8 76.5 297.2 76.1 C 296.2 77.6 295.8 78.0 294.7 79.3 C 294.4 79.3 293.9 79.3 293.0 80.6 C 293.0 80.2 292.7 80.4 293.1 79.9 C 293.8 79.4 294.6 78.6 295.3 77.8 C 295.3 77.7 295.1 77.7 295.5 77.3 C 295.9 76.9 296.4 76.3 296.7 75.7 C 296.8 75.8 296.7 76.0 296.6 76.3 C 298.1 74.4 297.3 74.9 298.3 73.5 C 298.0 73.6 297.5 74.6 297.8 73.7 C 298.5 72.3 298.8 72.1 299.2 71.4 C 299.2 71.3 299.1 71.3 299.2 70.9 C 299.8 70.1 298.7 73.3 299.8 71.7 C 299.6 71.5 300.3 69.8 300.6 69.7 C 300.6 70.3 299.9 71.1 300.0 71.3 C 301.4 68.2 300.7 71.4 301.6 68.2 C 301.5 68.2 301.4 68.1 301.3 68.1 C 301.0 69.4 300.8 69.4 300.6 69.2 C 300.2 70.3 299.7 70.6 299.5 71.6 C 299.2 71.0 299.9 70.7 300.3 69.5 C 300.0 69.5 299.6 70.5 299.4 70.6 C 300.6 68.1 300.4 67.5 301.1 65.2 C 300.7 65.7 301.2 63.9 301.0 64.0 C 300.9 66.1 300.2 65.1 300.1 65.4 C 299.9 66.7 300.5 66.2 300.4 67.1 C 300.1 67.4 300.0 67.2 299.7 66.9 C 300.1 65.8 300.0 65.9 300.0 65.0 C 300.3 64.3 300.8 63.6 300.8 64.7 C 300.8 64.5 300.8 62.9 300.9 62.8 C 300.9 64.3 301.1 62.7 301.2 63.6 C 301.4 62.4 300.9 60.4 300.9 58.9 C 300.8 59.1 300.6 58.5 300.5 58.6 C 301.0 60.0 300.5 60.3 300.6 61.7 C 300.5 61.1 300.4 61.4 300.4 61.7 C 300.4 60.4 300.1 59.7 300.1 58.7 C 300.0 58.7 300.0 58.7 299.9 58.7 C 299.7 57.1 299.7 57.3 299.1 56.1 C 299.0 55.6 299.7 56.1 299.9 56.2 C 299.6 55.7 298.8 53.4 299.1 54.8 C 298.5 53.5 299.0 53.7 298.2 52.4 C 298.0 52.4 298.7 53.7 298.1 53.4 C 297.5 52.2 298.1 52.7 297.4 51.8 C 297.5 51.7 297.7 51.5 297.0 50.5 C 297.4 51.3 296.9 50.4 296.5 50.2 C 296.8 50.7 297.0 51.1 297.1 51.4 C 296.0 49.5 295.7 49.1 294.4 47.6 C 295.1 48.0 294.4 47.1 295.4 48.1 C 294.5 47.2 293.6 45.7 293.0 45.3 C 293.5 46.0 294.4 47.0 294.6 47.4 C 292.0 44.4 290.0 43.0 286.9 40.1 C 287.5 40.6 288.2 41.2 288.4 41.2 C 288.0 40.9 287.4 40.4 287.5 40.4 C 288.6 41.3 289.7 42.2 290.3 42.6 C 291.1 43.5 289.6 42.3 290.5 43.2 C 290.8 43.2 292.4 44.9 292.0 44.1 C 290.3 42.8 288.8 41.2 288.3 40.3 C 286.3 39.3 288.0 40.5 285.8 39.5 C 285.9 39.4 285.5 39.0 284.9 38.5 C 285.3 39.3 282.9 37.4 282.7 37.2 C 283.7 37.7 287.3 40.1 285.7 38.5 C 286.2 39.6 281.6 35.5 282.3 36.5 C 279.8 35.0 280.9 35.3 279.3 34.7 C 279.3 34.5 279.6 34.5 278.8 34.1 C 278.1 33.7 277.8 33.6 277.5 33.5 C 281.2 35.8 279.9 35.4 282.1 36.9 C 281.7 36.6 281.4 36.4 281.4 36.5 C 281.4 36.6 281.3 36.6 280.8 36.3 C 280.8 35.9 278.9 35.2 278.5 34.7 C 279.2 35.1 279.9 35.5 279.8 35.2 C 276.8 33.5 277.6 33.5 272.9 30.9 C 274.2 31.8 272.3 30.9 270.6 30.1 C 268.2 28.9 269.3 29.0 266.2 27.6 C 266.2 28.0 265.4 27.6 264.1 27.0 C 263.4 26.7 262.6 26.3 261.7 26.0 C 260.8 25.6 259.4 25.1 258.7 25.0 C 259.1 24.7 256.0 23.5 255.2 23.5 C 255.2 23.4 254.0 23.0 253.2 22.7 C 253.0 22.5 254.0 22.8 253.3 22.5 C 252.6 22.3 253.1 22.8 252.2 22.5 C 251.1 22.0 251.4 21.8 249.6 21.3 C 249.5 21.5 250.5 21.7 249.5 21.6 C 248.1 21.0 246.7 20.6 247.9 21.2 C 245.6 20.6 246.9 20.5 244.7 19.9 C 245.3 20.2 245.2 20.2 244.1 20.0 C 243.4 19.5 243.3 19.4 243.1 19.3 C 242.4 19.3 242.6 19.4 240.8 18.8 C 240.8 18.9 240.8 19.0 240.8 19.1 C 239.9 18.9 238.7 18.6 238.5 18.4 C 240.1 18.9 239.7 18.6 240.3 18.6 C 238.8 18.2 235.9 17.2 238.0 18.0 C 235.9 17.6 237.0 17.5 235.3 17.2 C 236.3 17.7 235.3 17.2 233.5 16.8 C 233.6 17.2 232.3 16.6 231.2 16.4 C 231.3 16.6 231.0 16.6 230.0 16.4 C 230.0 16.3 229.4 16.1 228.2 15.9 C 228.2 16.0 230.6 16.7 228.2 16.1 C 227.1 15.7 227.1 15.5 225.3 15.1 C 224.9 14.8 227.0 15.3 226.6 14.9 C 225.0 14.9 224.6 14.6 222.4 14.1 C 223.2 14.7 217.8 13.8 220.4 14.5 C 219.6 14.4 218.5 14.5 218.0 14.2 C 218.8 14.3 217.4 13.8 217.4 13.7 C 216.4 13.6 213.9 13.0 213.8 13.2 C 216.1 13.5 216.1 13.8 216.8 14.0 C 213.4 13.6 210.4 13.0 210.6 12.8 C 210.6 12.9 210.1 12.8 210.0 12.8 C 211.2 13.0 212.0 13.5 210.6 13.3 C 210.9 13.1 209.9 12.9 208.8 12.7 C 208.7 12.9 204.2 11.9 205.0 12.3 C 206.9 12.4 208.3 13.0 206.8 12.9 C 205.7 12.6 203.2 12.1 203.8 11.9 C 203.1 11.9 202.5 11.9 201.9 11.9 C 201.3 12.1 202.7 12.3 202.4 12.4 C 201.5 12.3 200.1 12.1 199.9 12.0 C 202.5 12.3 198.7 11.7 201.3 11.9 C 199.7 11.7 199.3 11.5 198.1 11.3 C 198.1 11.4 197.6 11.3 197.4 11.4 C 198.6 11.4 199.7 11.6 199.3 11.9 C 197.0 11.6 197.4 11.4 195.5 11.2 C 194.9 11.3 192.3 11.3 191.0 11.0 C 193.6 11.3 190.8 10.9 192.3 10.9 C 194.6 11.3 195.3 11.1 196.2 11.0 C 195.2 10.8 193.3 10.5 193.0 10.8 C 194.2 10.9 194.2 10.8 194.9 10.8 C 194.8 10.9 194.5 11.0 193.6 11.0 C 192.5 10.7 190.1 10.6 191.7 10.5 C 190.1 10.5 188.3 10.0 186.6 10.1 C 188.5 10.3 189.8 10.5 190.4 10.7 C 188.8 10.7 187.3 10.3 187.2 10.4 C 187.4 10.7 189.9 10.8 190.4 11.1 C 188.3 11.1 185.3 10.2 187.8 10.9 C 186.6 10.8 185.1 10.6 184.6 10.5 C 186.0 10.6 184.5 10.1 183.9 10.0 C 182.7 9.9 181.8 9.9 181.3 10.0 C 183.2 10.0 184.5 10.5 183.3 10.4 C 182.9 10.2 182.6 10.4 182.0 10.4 C 181.9 10.2 179.8 10.2 179.4 10.0 C 179.5 10.1 180.5 10.2 180.6 10.3 C 179.4 10.3 177.6 10.6 176.8 10.2 C 177.5 10.2 178.6 10.3 178.7 10.2 C 175.3 9.7 174.3 9.3 170.2 9.0 C 170.8 9.0 171.0 8.9 170.9 8.8 C 168.3 8.7 166.7 8.5 167.0 8.4 C 165.4 8.4 164.5 8.5 163.7 8.6 C 165.4 8.8 166.0 8.6 167.0 8.8 C 166.3 8.8 168.2 9.3 168.9 9.5 C 171.8 9.3 171.9 9.8 174.8 9.7 C 174.0 10.0 176.9 9.9 176.1 10.1 C 173.4 9.6 170.9 9.8 167.0 9.5 C 167.5 9.3 167.9 9.2 166.3 9.0 C 163.8 8.8 165.0 9.2 163.0 9.1 C 162.2 8.8 163.4 8.8 162.4 8.7 C 161.6 8.8 159.7 8.8 159.1 8.5 C 161.8 8.6 158.6 8.3 160.4 8.2 C 159.5 8.2 159.0 8.2 158.4 8.1 C 161.0 8.4 155.7 8.4 157.7 8.7 C 154.1 8.8 157.5 8.0 154.4 8.1 C 155.9 8.3 154.0 8.4 151.8 8.3 C 151.2 8.1 149.0 8.1 147.2 8.0 C 148.1 8.2 148.8 8.1 147.2 8.3 C 148.1 8.4 149.6 8.4 150.5 8.3 C 150.5 8.4 150.8 8.4 151.2 8.5 C 149.0 8.6 149.9 8.7 149.2 8.8 C 148.5 8.7 146.9 8.7 146.5 8.6 C 146.5 8.6 146.0 8.7 145.9 8.7 C 148.7 8.7 145.4 9.1 147.2 9.1 C 148.4 9.1 147.6 8.8 149.2 8.8 C 150.7 9.1 148.0 9.2 147.2 9.4 C 148.5 9.6 150.0 9.3 150.5 9.5 C 148.8 9.8 146.1 9.7 143.9 9.7 C 144.1 10.0 140.3 9.7 140.0 10.1 C 139.6 10.0 139.3 9.9 138.7 9.9 C 138.0 10.2 137.3 9.9 136.7 9.9 C 136.6 10.1 136.8 10.2 137.3 10.2 C 134.7 10.2 134.0 10.2 130.9 10.5 C 130.3 10.4 129.8 10.3 129.5 10.1 C 130.3 10.1 130.9 10.0 131.5 9.9 C 127.1 10.1 130.0 10.6 126.9 10.4 C 127.0 10.5 129.1 10.7 127.6 10.8 C 124.8 10.7 121.0 11.3 121.1 10.6 C 118.7 10.6 117.1 11.2 115.9 11.0 C 115.2 11.1 114.9 11.2 114.6 11.3 C 115.4 11.4 116.3 11.4 117.2 11.4 C 118.7 11.2 119.3 11.4 117.9 11.1 C 120.0 10.9 120.6 11.0 121.7 11.0 C 118.8 11.5 116.1 11.5 116.0 11.9 C 115.0 11.8 114.2 11.8 113.4 11.7 C 113.1 11.9 109.9 12.3 109.6 12.1 C 111.8 11.9 114.1 11.4 112.1 11.4 C 106.6 12.2 103.6 12.2 98.9 13.1 C 98.8 13.0 99.1 12.8 98.2 12.9 C 98.3 13.1 98.1 13.2 97.6 13.3 C 96.2 13.5 95.3 13.6 93.4 14.0 C 93.4 13.7 93.1 13.6 92.0 13.7 C 91.5 14.0 89.6 14.9 88.5 15.0 C 89.6 14.8 88.1 14.7 87.2 14.9 C 88.0 15.1 81.8 15.7 83.6 15.7 C 81.2 16.2 80.2 16.3 80.1 16.2 C 79.2 16.4 78.6 16.6 77.8 16.9 C 77.2 16.6 73.2 17.9 72.6 17.9 C 74.0 17.6 74.2 17.2 73.1 17.5 C 72.3 17.9 68.8 19.0 68.1 19.1 C 68.3 19.0 68.5 18.7 70.2 18.1 C 67.2 18.9 67.4 19.2 66.4 19.7 C 66.5 19.4 65.2 20.0 64.8 20.2 C 63.8 20.3 64.8 20.1 64.7 19.9 C 63.7 20.1 63.2 20.1 61.9 20.5 C 62.4 20.7 60.9 21.0 60.3 21.1 C 60.2 21.3 59.5 21.7 58.3 22.1 C 59.8 21.2 51.6 23.9 53.6 23.5 C 52.0 24.3 51.9 23.8 49.9 24.6 C 49.6 24.8 48.4 25.2 49.5 25.0 C 48.7 25.3 47.9 25.5 47.5 25.6 C 47.2 25.7 46.7 25.8 45.2 26.5 C 46.7 26.2 42.1 27.7 43.0 27.8 C 41.5 27.9 39.3 29.5 36.9 30.3 C 36.9 30.4 36.3 30.7 36.2 30.8 C 35.9 31.1 39.0 29.6 37.0 30.7 C 34.5 31.7 35.8 31.0 35.4 31.0 C 29.1 34.4 22.6 38.4 18.3 42.2 C 18.9 41.8 18.9 41.9 18.0 42.7 C 16.5 43.4 12.6 48.1 12.3 48.9 C 11.7 49.1 10.5 51.6 10.1 51.9 C 10.4 51.5 10.7 50.5 10.1 51.4 C 10.0 52.2 9.4 52.9 9.2 53.9 C 8.7 54.2 7.9 57.2 7.9 55.7 C 7.7 56.3 7.6 56.6 7.5 56.9 C 7.7 57.0 7.5 57.6 8.0 56.6 C 7.0 59.1 7.2 59.8 6.9 61.7 C 7.0 62.1 7.2 60.6 7.2 61.7 C 7.2 61.7 7.1 61.7 7.0 61.7 C 7.0 62.1 7.1 62.3 7.0 62.5 C 6.9 62.4 6.9 61.7 6.6 61.7 C 6.7 62.7 6.4 63.3 6.7 63.7 C 6.6 62.3 7.1 63.2 6.9 64.0 C 6.7 63.3 7.4 67.2 7.9 68.3 C 7.8 69.0 7.5 67.0 7.3 67.2 C 7.9 69.5 7.9 69.4 8.2 69.5 C 8.6 70.8 8.7 71.3 9.6 72.7 C 9.9 73.6 9.1 72.3 9.6 73.2 C 9.9 73.7 10.2 73.9 10.7 74.7 C 11.6 77.1 16.6 81.5 18.8 84.5 C 17.8 83.4 19.4 84.5 20.9 85.8 C 21.0 85.9 20.7 85.9 21.3 86.3 C 21.3 86.1 21.8 86.5 23.0 87.3 C 23.0 87.4 22.7 87.4 23.4 87.9 C 24.0 87.9 25.3 89.2 26.3 89.6 C 26.5 90.1 24.1 88.4 23.8 88.4 C 26.6 90.5 27.3 90.6 29.7 92.1 C 28.4 91.4 30.5 92.9 30.9 93.2 C 30.5 92.6 32.5 93.6 31.2 92.7 C 32.1 93.2 33.7 94.0 33.8 94.2 C 33.3 93.9 32.4 93.4 32.4 93.5 C 33.6 94.1 35.2 95.2 35.9 95.3 C 35.0 94.9 34.5 94.5 34.6 94.4 C 34.9 94.5 35.4 94.6 36.1 94.9 C 33.8 94.5 40.0 97.1 40.4 97.1 C 40.9 97.7 41.2 97.9 41.0 98.0 C 43.7 99.2 43.4 98.8 45.1 99.4 C 44.5 99.5 43.8 99.4 46.5 100.6 C 46.0 100.1 49.3 101.4 48.5 100.7 C 50.2 101.4 50.7 101.5 51.4 101.8 C 52.1 102.1 52.7 102.3 53.2 102.6 C 54.3 103.0 55.1 103.4 56.4 103.8 C 56.5 103.7 55.7 103.4 56.5 103.7 C 57.7 104.1 58.8 104.6 59.5 105.0 C 60.3 105.0 59.4 104.7 60.2 104.8 C 62.1 105.7 61.5 105.8 63.3 106.5 C 65.5 107.0 64.7 106.9 66.1 107.0 C 65.5 106.8 64.8 106.5 65.6 106.7 C 66.9 107.3 67.4 107.7 67.7 107.8 C 66.7 107.6 65.9 107.3 65.5 107.1 C 65.1 107.2 63.7 106.8 64.8 107.3 C 63.4 106.8 61.9 106.3 59.9 105.7 C 60.5 106.2 58.1 105.3 58.7 105.7 C 61.0 106.4 61.4 106.7 63.6 107.3 C 63.2 106.9 65.4 107.7 65.9 107.8 C 65.9 107.7 67.4 108.2 67.1 107.8 C 68.8 108.2 68.7 108.4 70.4 108.8 C 70.5 108.9 70.3 109.0 70.9 109.2 C 71.6 109.1 72.1 109.6 72.6 109.7 C 72.3 109.3 74.8 110.1 75.0 109.9 C 74.4 109.8 73.4 109.6 73.3 109.4 C 76.1 110.2 73.9 109.4 73.4 109.1 C 73.5 109.2 72.4 109.3 72.2 109.0 C 74.6 109.4 69.0 107.8 71.1 108.4 C 72.9 108.9 72.8 108.7 74.6 109.2 C 76.7 110.1 74.0 109.8 76.1 110.6 C 77.5 110.7 78.4 111.0 78.6 110.8 C 78.8 110.9 79.2 111.1 79.7 111.2 C 80.3 111.2 78.0 110.6 79.7 110.9 C 80.6 111.2 79.5 111.3 81.5 111.6 C 82.3 111.6 79.2 110.9 80.9 111.2 C 82.7 112.0 80.6 111.0 82.7 111.4 C 82.9 111.5 83.2 111.6 83.9 111.7 C 84.0 111.9 83.7 112.0 84.4 112.2 C 84.9 111.8 85.2 112.5 86.8 112.7 C 87.8 112.6 85.2 112.2 85.7 112.1 C 87.5 112.7 88.6 112.6 89.3 112.8 C 87.8 112.7 91.6 113.4 91.7 113.6 C 91.3 113.2 92.2 113.5 94.3 113.6 C 94.4 114.1 96.8 114.2 97.3 114.6 C 97.6 114.5 98.3 114.5 98.6 114.5 C 97.9 114.3 97.1 114.2 97.4 114.1 C 98.0 114.2 98.6 114.3 99.3 114.4 C 100.3 114.8 97.5 114.9 101.7 115.4 C 101.2 115.0 103.0 115.2 104.2 115.3 C 104.1 115.0 102.6 115.1 102.4 114.9 C 103.8 114.9 105.3 115.3 106.1 115.5 C 108.6 115.7 111.5 116.2 115.1 116.5 C 115.9 116.8 112.1 116.4 114.5 116.7 C 115.5 116.8 115.0 116.6 116.4 116.8 C 115.0 117.7 126.1 117.8 126.8 118.3 C 127.2 118.1 130.4 118.4 130.1 118.1 C 127.9 118.2 126.5 117.8 125.5 117.5 C 123.5 117.5 127.2 117.9 125.4 117.9 C 125.3 117.7 122.6 117.6 122.9 117.4 C 125.7 117.6 121.4 117.1 123.5 117.0 C 126.1 117.3 131.3 117.3 130.1 117.5 C 130.1 117.4 128.9 117.4 128.8 117.5 C 131.7 117.8 133.5 117.7 134.7 117.5 C 136.0 117.8 141.3 117.7 140.0 117.8 C 140.4 118.0 136.8 117.6 137.3 117.8 C 142.8 118.2 142.9 117.9 146.5 118.2 C 145.4 117.9 150.4 117.8 149.9 117.9 C 149.9 118.2 151.0 118.4 153.2 118.1 C 152.9 118.4 154.0 118.4 155.2 118.5 C 155.7 118.3 154.2 118.3 154.5 118.1 C 155.6 118.1 156.7 118.1 157.8 118.1 C 157.9 118.2 157.7 118.3 158.5 118.3 C 159.7 118.2 164.2 117.8 163.8 118.0 C 161.9 118.4 166.8 118.2 163.8 118.5 C 164.6 118.5 164.7 118.6 165.8 118.5 C 165.8 118.4 165.8 118.3 165.8 118.2 C 168.2 118.1 167.0 118.5 169.1 118.5 C 169.3 118.3 170.2 118.3 170.4 118.2 C 169.6 118.2 169.5 118.3 168.4 118.3 C 169.6 117.9 166.2 118.2 166.4 117.9 C 168.7 117.8 168.7 118.0 169.7 118.1 C 172.6 117.8 171.3 118.0 174.3 117.9 C 174.3 117.8 173.5 117.8 173.7 117.7 C 177.4 117.6 177.1 118.1 179.6 117.8 C 179.0 117.8 176.7 118.2 178.3 118.1 C 180.1 117.9 180.5 117.6 182.8 117.4 C 183.0 117.5 182.8 117.6 183.6 117.6 C 184.5 117.4 184.5 117.2 185.4 117.0 C 185.6 117.1 186.9 116.9 187.4 116.9 C 188.2 117.0 187.1 117.1 188.1 117.1 C 190.0 116.9 191.0 116.3 192.5 116.2 C 192.5 116.5 194.3 116.3 195.8 116.0 C 196.1 116.3 199.4 115.9 201.6 115.7 C 201.1 115.5 203.3 115.3 202.8 115.1 C 201.7 115.3 201.2 115.3 200.9 115.2 C 203.4 114.9 204.2 115.3 206.0 114.6 C 206.9 114.7 208.1 114.6 209.7 114.5 C 209.9 114.3 206.8 114.6 208.5 114.3 C 208.6 114.4 209.2 114.3 209.7 114.1 C 209.5 114.4 210.8 114.3 211.6 114.3 C 213.1 113.9 216.1 113.7 214.7 113.7 C 217.0 113.2 215.5 113.9 217.3 113.6 C 216.3 113.4 219.3 112.9 217.8 113.0 C 220.1 112.5 220.0 112.9 219.1 113.2 C 221.2 112.9 221.6 112.6 222.7 112.5 C 221.7 112.5 224.9 111.7 223.3 112.2 C 222.8 112.5 225.2 111.9 225.7 111.9 C 224.9 111.9 226.0 111.7 224.5 111.9 C 226.0 111.5 228.4 111.0 229.8 110.9 C 231.8 110.3 233.6 109.9 232.8 110.3 C 234.6 109.8 233.9 110.0 235.7 109.6 C 235.7 109.5 235.2 109.6 235.1 109.6 C 237.5 109.0 237.1 109.3 240.3 108.4 C 240.0 108.8 242.0 108.3 242.6 108.3 C 241.3 108.6 240.3 108.8 239.2 109.0 C 239.0 109.2 240.1 109.0 239.3 109.3 C 239.1 109.2 238.6 109.3 238.1 109.4 C 240.2 109.1 235.5 110.5 237.0 109.9 C 237.0 109.9 237.1 109.9 237.5 109.8 C 237.1 109.7 237.1 109.7 237.4 109.4 C 236.4 109.7 235.5 109.6 235.1 110.0 C 235.2 110.1 236.2 109.8 236.4 109.8 C 233.8 110.6 235.5 109.7 233.4 110.3 C 233.0 110.7 234.1 110.5 234.7 110.5 C 232.8 111.0 231.1 111.4 230.5 111.3 C 228.8 111.8 230.7 111.5 229.5 111.9 C 228.8 111.9 228.8 111.7 227.6 112.0 C 226.3 112.3 228.4 112.0 227.1 112.3 C 225.6 112.5 228.0 111.8 225.8 112.2 C 226.4 112.4 223.8 112.5 224.0 112.7 C 225.3 112.4 225.3 112.7 224.6 112.7 C 221.6 112.9 219.7 114.2 216.7 114.1 C 216.7 114.2 216.2 114.3 216.1 114.4 C 218.4 114.2 221.6 113.6 222.3 113.8 C 224.1 113.4 223.8 113.2 224.1 113.1 C 226.2 113.0 226.0 113.1 224.8 113.7 C 221.4 114.4 219.9 114.5 217.5 114.8 C 216.3 115.2 217.6 114.9 218.1 114.9 C 210.8 116.0 216.5 115.7 213.9 116.1 C 213.9 115.9 213.3 116.0 212.6 116.0 C 212.6 116.2 211.5 116.3 211.3 116.4 C 211.8 116.3 212.1 116.4 212.0 116.5 C 210.2 116.8 210.9 116.5 210.7 116.3 C 212.1 116.2 213.0 116.0 213.2 115.8 C 211.4 116.2 209.9 116.2 208.8 116.6 C 207.0 116.5 209.6 115.8 208.7 115.7 C 209.0 115.4 207.6 116.5 206.3 116.8 C 204.0 117.1 203.9 117.3 201.8 117.6 C 201.2 117.4 203.9 117.2 203.7 117.0 C 203.1 117.1 203.0 117.1 202.4 117.1 C 200.9 117.3 201.1 117.5 199.9 117.7 C 199.2 117.6 198.9 117.8 198.0 118.0 C 196.5 118.0 198.8 117.7 197.3 117.8 C 195.7 117.9 194.6 118.4 194.1 118.4 C 194.0 118.3 194.2 118.2 193.4 118.2 C 191.6 118.6 191.2 118.6 193.5 118.5 C 191.5 118.7 190.6 118.9 190.9 119.1 C 194.0 118.9 194.7 118.7 196.1 118.9 C 196.7 118.6 197.6 118.7 198.7 118.6 C 198.0 118.3 200.0 118.4 200.6 118.1 C 199.9 118.2 199.1 118.2 198.7 118.2 C 201.9 117.9 201.8 117.9 204.4 117.2 C 204.4 117.3 204.7 117.3 205.0 117.3 C 204.2 117.5 201.9 117.8 201.9 118.0 C 203.7 118.0 204.3 117.5 206.4 117.5 C 207.2 117.2 204.7 117.5 206.3 117.2 C 207.1 117.3 208.2 117.3 209.5 117.2 C 210.9 116.9 211.5 116.7 212.6 116.4 C 212.7 116.5 212.9 116.6 213.9 116.4 C 213.8 116.3 212.8 116.4 213.9 116.2 C 217.2 115.9 219.4 115.8 222.6 115.0 C 221.5 115.2 218.8 115.4 220.1 115.2 C 221.6 115.1 223.5 114.4 225.0 114.3 C 225.5 114.3 223.2 114.6 223.8 114.9 C 225.2 114.6 226.1 114.4 226.8 114.3 C 226.8 114.2 228.4 113.9 228.0 113.8 C 226.8 114.0 226.5 114.3 226.2 114.3 C 227.1 113.4 230.6 113.6 232.8 113.1 C 234.2 112.6 231.7 113.1 233.3 112.6 C 234.3 112.3 235.0 112.7 233.5 113.2 C 232.3 113.3 231.9 113.7 231.6 113.5 C 231.2 113.6 230.5 113.8 230.5 113.9 C 231.3 113.7 231.2 113.9 231.7 113.8 C 230.6 114.1 230.5 114.6 229.4 114.5 C 230.1 114.4 230.3 114.2 230.6 114.1 C 227.4 114.9 226.3 114.9 224.5 115.1 C 225.5 115.1 224.4 115.2 224.5 115.4 C 225.9 115.1 228.6 114.7 227.0 115.1 C 225.9 115.0 225.1 116.0 224.0 115.9 C 224.8 115.7 224.7 115.6 225.1 115.4 C 223.9 115.6 223.9 115.4 222.7 115.7 C 218.7 116.8 215.6 116.7 209.0 118.2 C 206.8 118.5 211.1 117.8 210.9 117.6 C 210.2 117.7 210.1 117.7 209.6 117.7 C 209.6 118.0 208.4 117.9 207.7 118.2 C 207.8 118.0 204.7 118.6 203.2 118.6 C 203.2 118.7 203.4 118.8 202.6 118.9 C 197.9 119.2 189.3 120.5 185.7 120.5 C 185.9 120.7 184.3 120.8 183.8 121.0 C 181.5 121.1 182.5 120.9 179.2 121.3 C 177.5 121.5 179.5 121.1 179.8 121.0 C 174.8 121.5 170.4 121.4 167.2 121.8 C 165.6 122.0 167.2 121.7 163.9 121.7 C 163.8 122.0 158.6 121.6 157.9 122.0 C 155.9 122.1 152.2 121.6 153.8 122.0 C 151.1 122.0 152.9 121.6 151.8 121.6 C 149.9 121.6 152.4 122.2 150.5 122.3 C 150.7 122.0 149.1 122.1 147.8 121.8 C 149.3 121.9 150.3 121.8 150.5 121.7 C 149.2 121.8 149.3 121.6 147.2 121.7 C 145.6 121.8 141.1 121.9 139.8 121.5 C 139.8 121.6 140.2 121.6 140.5 121.7 C 139.2 121.7 137.6 121.4 137.8 121.7 C 134.8 121.6 133.6 121.2 131.9 121.4 C 130.6 121.4 132.3 121.2 128.5 121.0 C 128.4 121.2 121.8 120.7 120.0 120.3 C 119.9 120.6 119.5 120.3 118.7 120.2 C 118.6 120.3 118.8 120.4 118.0 120.4 C 117.9 120.3 117.3 120.3 116.7 120.3 C 117.2 119.9 114.3 120.1 114.1 119.8 C 114.7 119.9 114.7 119.7 114.2 119.6 C 113.9 119.9 111.3 119.1 111.6 119.4 C 112.1 119.5 114.0 119.7 113.4 119.8 C 110.9 119.7 111.9 119.5 110.2 119.2 C 110.3 119.4 111.3 119.6 110.2 119.5 C 108.4 119.2 110.1 119.4 109.0 119.1 C 108.0 119.0 106.3 119.0 105.7 118.9 C 105.9 119.0 105.3 118.7 105.1 118.7 C 101.8 118.2 94.4 117.3 91.3 116.4 C 91.0 116.5 90.4 116.4 90.6 116.6 C 88.7 116.2 88.8 116.3 86.9 115.8 C 86.9 115.9 86.9 116.0 86.9 116.1 C 84.4 115.8 86.7 115.8 85.1 115.5 C 84.8 116.0 84.2 115.1 82.7 114.8 C 82.5 114.9 81.8 114.8 82.0 115.0 C 79.7 114.5 79.9 114.2 77.9 113.9 C 78.3 114.0 78.5 114.8 78.2 115.0 C 77.9 114.8 77.3 114.6 76.5 114.4 C 77.6 114.4 77.2 113.4 74.3 113.0 C 75.9 113.3 76.4 113.5 76.0 113.6 C 73.9 113.2 73.2 112.8 71.4 112.4 C 71.0 112.5 72.3 112.9 71.8 113.0 C 71.4 112.9 71.1 112.9 71.2 113.0 C 69.3 112.5 69.3 112.3 67.2 111.9 C 67.2 111.8 67.7 111.9 68.4 112.2 C 68.3 111.9 68.4 111.8 69.6 112.1 C 69.7 112.2 68.9 112.3 70.7 112.7 C 70.7 112.5 70.8 112.4 70.8 112.3 C 69.5 111.9 66.5 111.0 66.2 111.0 C 66.8 111.3 67.8 111.6 67.2 111.7 C 65.1 111.0 64.5 110.6 62.8 110.0 C 59.8 109.2 54.5 107.4 55.0 108.0 C 53.3 107.3 53.9 107.5 52.4 106.9 C 52.8 107.3 50.6 106.4 50.7 106.7 C 52.6 107.3 52.0 107.1 53.9 107.7 C 53.8 107.8 53.5 107.8 52.7 107.6 C 52.7 107.5 51.9 107.1 50.7 106.7 C 50.8 106.9 51.9 107.5 50.5 107.0 C 50.5 106.9 50.2 106.8 49.6 106.6 C 49.6 106.5 49.6 106.3 49.7 106.2 C 50.4 106.4 51.3 106.7 51.9 106.7 C 51.4 106.6 51.3 106.5 50.8 106.3 C 50.5 106.3 48.4 105.4 48.2 105.5 C 49.0 105.8 49.5 106.1 48.6 105.8 C 48.5 105.7 46.7 105.0 45.8 104.8 C 48.8 106.1 47.6 105.6 48.5 106.2 C 46.4 105.5 46.2 105.1 42.3 103.6 C 42.3 103.4 42.4 103.2 43.4 103.5 C 41.1 102.1 35.6 100.1 34.0 99.2 C 35.1 99.8 36.6 100.1 34.8 99.3 C 34.8 99.4 33.5 98.7 33.3 98.7 C 32.5 98.8 33.9 99.8 35.1 100.6 C 33.7 99.9 33.3 99.9 32.1 99.2 C 31.7 98.9 33.2 99.2 31.6 98.4 C 31.1 98.5 28.7 96.8 28.0 96.8 C 29.1 97.3 29.8 97.9 28.6 97.3 C 28.9 97.2 26.7 96.1 26.7 95.9 C 28.5 96.8 29.1 96.9 30.2 97.5 C 28.8 96.7 31.4 97.9 29.0 96.6 C 27.8 96.1 27.2 96.0 24.8 94.6 C 24.0 94.0 24.9 94.3 23.8 93.5 C 23.9 93.9 21.5 92.4 23.1 93.2 C 22.2 92.6 21.8 92.3 21.4 91.9 C 22.4 92.9 16.9 89.3 17.6 90.0 C 17.8 89.8 17.7 89.3 17.5 89.1 C 16.4 88.5 15.4 87.5 13.1 85.3 C 13.0 85.6 12.7 85.0 11.8 84.1 C 11.5 84.0 12.2 84.9 11.6 84.3 C 10.6 83.1 10.6 83.1 10.5 82.8 C 9.8 82.0 9.4 81.4 9.1 80.9 C 9.0 81.0 9.1 81.3 9.3 81.5 C 7.0 78.3 5.7 76.9 4.5 74.1 C 4.9 75.4 5.4 75.4 4.9 74.5 C 4.6 74.0 4.3 73.5 4.1 73.2 C 4.2 73.9 4.2 73.6 3.6 72.2 C 3.1 71.1 3.4 72.9 3.1 71.9 C 2.8 70.8 3.1 71.4 3.0 70.8 C 2.9 70.3 2.7 69.8 2.6 69.3 C 2.7 70.3 2.3 69.3 2.0 68.4 C 2.4 69.0 2.3 68.6 2.0 66.9 C 2.1 66.7 2.3 67.6 2.2 66.9 C 2.2 66.5 1.6 65.1 1.8 63.9 C 1.8 64.3 1.9 64.5 2.0 64.4 C 1.7 63.1 2.1 62.1 2.2 61.0 C 1.9 62.1 1.8 61.5 1.6 61.9 C 1.9 60.8 1.7 59.3 2.2 58.5 C 1.8 60.1 2.6 58.6 2.8 57.6 C 2.7 57.3 2.4 59.1 2.2 58.5 C 2.1 57.9 2.7 56.7 2.6 56.0 C 2.5 56.1 2.5 56.8 2.3 57.0 C 2.5 56.1 2.1 57.2 2.3 56.4 C 2.7 56.0 2.5 55.4 2.6 54.9 C 2.9 54.3 3.7 53.2 3.7 52.6 C 3.6 52.6 3.3 53.4 3.2 53.5 C 4.1 50.8 4.8 50.2 6.0 47.7 C 6.3 47.5 6.6 47.1 7.1 46.5 C 7.0 46.4 7.2 46.0 7.6 45.4 C 8.4 44.5 9.3 43.6 10.4 42.5 C 10.4 42.8 9.9 43.4 11.4 41.8 C 11.4 41.7 10.8 42.3 11.3 41.7 C 11.3 41.7 11.7 41.4 11.7 41.2 C 11.7 41.2 11.7 41.2 11.6 41.1 C 11.2 41.6 10.8 42.0 10.4 42.5 C 10.3 42.3 10.1 42.4 9.8 42.7 C 11.4 40.7 11.7 41.1 12.8 39.7 C 13.3 39.8 13.7 39.5 12.9 40.7 C 13.9 39.6 14.7 38.7 14.9 38.3 C 13.4 39.6 13.7 38.9 13.2 39.2 C 14.1 38.4 14.0 38.3 14.5 37.9 C 15.7 37.0 13.6 39.2 15.8 37.3 C 14.0 38.5 17.0 36.0 18.3 35.1 C 18.0 35.2 17.6 35.5 18.1 35.0 C 21.3 32.4 21.5 33.3 23.5 31.5 C 23.4 31.8 24.4 31.1 24.9 30.9 C 23.1 32.1 22.6 32.5 21.9 33.0 C 22.1 33.0 22.6 32.7 23.2 32.4 C 23.1 32.2 23.5 31.9 24.4 31.5 C 24.8 31.0 24.5 30.8 25.9 29.7 C 26.0 29.7 25.9 30.0 26.7 29.5 C 27.3 28.9 26.2 30.2 29.5 28.3 C 28.9 28.5 28.5 28.6 28.7 28.3 C 30.2 27.3 29.9 27.6 32.1 26.3 C 33.2 26.3 30.8 27.6 30.3 28.1 C 31.8 27.2 32.9 26.3 34.6 25.7 C 33.3 26.2 34.5 25.4 35.9 24.6 C 37.3 24.0 36.0 25.0 37.7 24.3 C 38.9 23.6 39.6 23.1 38.3 23.6 C 41.3 22.3 40.4 22.4 43.1 21.3 C 43.2 21.4 42.5 21.7 41.5 22.1 C 41.7 22.1 41.4 22.3 42.4 21.9 C 43.2 21.5 44.6 20.9 46.0 20.3 C 47.5 19.6 48.4 19.3 49.0 19.0 C 51.4 18.6 54.0 17.1 56.5 16.5 C 55.6 17.0 59.7 15.5 61.0 15.4 C 61.7 15.1 63.9 13.9 63.1 14.4 C 63.4 14.6 64.9 14.1 66.1 13.9 C 66.0 13.8 66.0 13.7 66.0 13.6 C 68.6 12.9 69.2 13.0 70.1 13.0 C 73.2 12.0 76.8 11.5 80.7 10.4 C 81.8 10.5 82.7 10.2 85.1 9.9 C 85.0 9.7 86.9 9.4 88.7 9.0 C 88.2 8.9 89.9 8.6 89.9 8.5 C 88.2 8.8 88.8 8.4 87.9 8.4 C 90.1 8.3 91.2 7.6 92.9 7.6 C 90.8 8.0 90.2 8.5 89.9 8.9 C 92.5 8.4 93.8 8.2 94.3 8.4 C 94.5 8.2 94.2 8.1 93.6 8.1 C 94.5 7.9 95.3 7.8 96.1 7.7 C 96.4 7.8 95.2 8.0 96.2 7.9 C 96.8 7.7 97.4 7.6 98.0 7.4 C 98.8 7.5 97.1 7.7 96.8 7.9 C 100.2 7.5 98.7 7.2 100.5 6.9 C 101.0 7.0 101.0 7.2 102.5 7.1 C 103.1 6.8 103.3 6.6 105.0 6.3 C 106.1 6.2 105.0 6.7 106.3 6.6 C 106.5 6.4 107.1 6.4 107.6 6.4 C 107.5 6.3 108.1 6.1 108.8 6.0 C 109.1 6.1 110.3 5.9 110.8 5.8 C 110.9 5.9 113.0 6.0 113.4 5.7 C 113.4 5.6 112.3 5.8 112.1 5.7 C 113.6 5.6 114.6 5.4 115.4 5.3 C 115.9 5.8 118.2 5.1 121.2 5.1 C 123.1 4.8 120.8 4.8 123.2 4.4 C 124.6 4.5 122.9 4.7 123.2 4.9 C 123.6 4.9 125.8 4.9 125.9 4.7 C 125.8 4.6 124.7 4.7 124.6 4.6 C 126.3 4.3 126.2 4.6 127.2 4.6 C 127.1 4.4 128.2 4.3 128.5 4.1 C 133.2 3.7 133.2 4.1 135.1 4.2 C 135.1 4.1 136.3 4.1 136.4 4.0 C 135.1 4.2 133.3 4.0 135.1 3.9 C 134.8 4.1 137.6 3.8 137.8 3.7 C 137.5 3.6 135.7 3.7 136.4 3.5 C 138.9 3.3 137.9 3.8 139.8 3.5 C 140.0 3.6 138.9 3.7 138.4 3.8 C 139.2 3.8 140.3 3.7 140.5 3.8 C 139.5 3.9 139.5 4.1 139.1 4.2 C 140.4 4.0 142.7 4.1 141.1 3.8 C 143.8 3.8 146.3 3.6 144.5 3.4 C 146.6 3.3 145.4 3.7 147.1 3.4 C 146.9 3.7 146.4 3.9 147.8 4.1 C 148.1 3.9 149.2 3.8 149.1 3.7 C 152.3 3.6 153.2 3.9 154.5 4.1 C 153.3 3.7 154.9 4.0 156.5 3.8 C 157.4 3.9 156.5 4.2 159.1 4.1 C 156.3 3.8 162.4 4.1 161.2 3.7 C 164.5 3.9 164.4 3.9 167.8 4.1 C 167.5 4.3 166.7 4.3 165.2 4.3 C 166.2 4.1 162.3 4.0 162.5 4.2 C 162.5 4.2 162.5 4.3 162.5 4.3 C 165.0 4.4 166.7 4.5 167.8 4.7 C 168.3 4.5 169.5 4.4 169.1 4.1 C 171.5 4.6 174.1 4.2 175.2 4.6 C 174.3 4.5 173.5 4.5 173.8 4.7 C 174.8 4.6 175.9 4.7 175.8 4.5 C 173.9 4.3 173.5 4.2 172.5 4.4 C 173.4 4.2 170.6 3.9 172.5 4.0 C 172.4 4.3 176.5 4.0 175.2 4.2 C 173.0 4.2 177.6 4.5 177.7 4.7 C 177.7 4.7 177.7 4.7 177.7 4.7 Z M 223.3 115.5 C 225.1 115.1 222.8 115.3 221.4 115.6 C 221.8 115.6 222.0 115.6 222.1 115.8 C 222.6 115.6 223.1 115.5 223.3 115.5 C 223.3 115.5 223.3 115.5 223.3 115.5 Z M 202.8 115.3 C 202.2 115.6 205.3 115.1 206.6 114.9 C 206.2 114.9 205.8 114.9 206.6 114.8 C 205.2 114.7 204.8 115.2 202.8 115.3 C 202.8 115.3 202.8 115.3 202.8 115.3 Z M 130.0 118.5 C 130.5 118.5 131.8 118.5 132.0 118.6 C 132.7 118.6 132.5 118.5 132.7 118.4 C 134.2 118.5 132.3 118.8 134.7 118.7 C 135.6 118.3 130.6 118.0 130.0 118.5 C 130.0 118.5 130.0 118.5 130.0 118.5 Z M 152.4 7.6 C 153.4 7.8 151.2 8.0 151.8 8.2 C 155.5 8.0 152.6 7.7 157.7 7.8 C 157.4 7.7 157.0 7.6 157.1 7.5 C 154.7 7.6 154.5 7.8 155.1 7.4 C 154.0 7.4 153.7 7.9 152.4 7.6 C 152.4 7.6 152.4 7.6 152.4 7.6 Z M 199.4 11.3 C 199.0 11.2 198.7 11.1 198.7 11.0 C 197.2 10.9 197.5 11.0 195.6 10.7 C 195.8 11.1 197.7 11.3 199.4 11.3 C 199.4 11.3 199.4 11.3 199.4 11.3 Z M 299.8 57.6 C 299.8 57.8 299.9 58.1 300.0 58.3 C 300.1 58.1 300.6 58.7 300.1 57.5 C 300.1 57.4 300.1 57.6 300.2 57.8 C 300.0 57.6 299.8 57.0 299.7 57.2 C 299.8 57.5 299.8 57.5 299.8 57.6 C 299.8 57.6 299.8 57.6 299.8 57.6 Z M 283.8 89.8 C 285.9 88.1 280.1 91.3 283.8 89.8 C 283.8 89.8 283.8 89.8 283.8 89.8 C 283.8 89.8 283.8 89.8 283.8 89.8 Z M 289.9 88.8 C 290.0 88.9 290.4 88.5 290.4 88.4 C 292.1 87.1 290.6 88.6 291.6 87.9 C 292.8 86.6 290.7 88.1 292.2 86.6 C 291.8 86.8 290.9 88.0 289.9 88.8 C 289.9 88.8 289.9 88.8 289.9 88.8 Z M 21.1 33.2 C 19.6 34.4 19.3 34.9 19.2 35.3 C 20.2 34.6 21.2 34.0 21.6 33.8 C 23.5 32.3 20.1 34.6 19.8 34.8 C 19.9 34.5 21.3 33.4 21.1 33.2 C 21.1 33.2 21.1 33.2 21.1 33.2 Z M 16.3 37.0 C 15.8 37.6 15.0 38.4 15.1 38.6 C 15.9 37.8 16.1 37.8 16.2 37.8 C 16.9 37.1 15.8 37.8 16.3 37.0 C 16.3 37.0 16.3 37.0 16.3 37.0 Z M 26.2 30.3 C 25.4 30.8 25.8 30.8 25.8 31.0 C 26.9 30.3 27.2 30.2 28.4 29.5 C 28.4 29.4 28.3 29.4 28.3 29.3 C 27.2 29.9 27.2 30.0 26.3 30.5 C 26.3 30.5 26.3 30.4 26.2 30.3 C 26.2 30.3 26.2 30.3 26.2 30.3 Z M 12.4 41.0 C 10.1 43.3 9.6 44.6 8.8 46.3 C 10.0 44.6 10.9 42.8 12.2 41.7 C 13.5 40.2 11.6 42.1 11.6 42.0 C 11.6 41.9 12.1 41.4 12.4 41.0 C 12.4 41.0 12.4 41.0 12.4 41.0 Z M 2.2 62.4 C 2.0 63.0 2.4 63.9 2.5 65.4 C 2.6 65.1 2.6 64.8 2.7 64.8 C 2.6 62.8 2.2 64.0 2.2 62.4 C 2.2 62.4 2.2 62.4 2.2 62.4 Z M 5.3 74.3 C 5.9 75.5 5.1 73.6 5.5 74.2 C 4.9 72.8 4.3 71.4 4.1 71.5 C 4.8 72.9 5.0 73.2 5.3 74.3 C 5.3 74.3 5.3 74.3 5.3 74.3 Z M 10.9 82.4 C 12.1 83.6 10.6 81.7 11.3 82.1 C 10.8 81.6 10.9 81.8 10.8 81.8 C 10.5 81.4 10.2 81.0 9.7 80.4 C 9.9 81.0 11.2 82.4 10.9 82.4 C 10.9 82.4 10.9 82.4 10.9 82.4 Z M 67.9 14.2 C 67.0 14.5 67.3 14.7 65.2 15.2 C 68.4 14.3 66.8 15.5 71.0 14.3 C 70.3 14.4 70.7 14.1 71.0 14.2 C 72.6 13.6 69.4 14.5 70.9 13.8 C 69.7 14.1 70.5 14.2 69.3 14.6 C 68.0 14.6 67.2 14.7 67.9 14.2 C 67.9 14.2 67.9 14.2 67.9 14.2 Z M 71.1 14.5 C 72.3 14.3 72.2 13.8 72.8 13.9 C 73.4 13.8 73.2 13.7 73.3 13.6 C 72.9 13.8 72.8 13.7 72.7 13.7 C 71.7 14.0 70.7 14.3 71.1 14.5 C 71.1 14.5 71.1 14.5 71.1 14.5 Z M 60.4 17.5 C 62.2 16.8 62.8 16.8 63.7 16.3 C 64.4 16.5 64.9 15.8 66.0 15.9 C 67.8 15.3 66.4 15.6 65.9 15.6 C 67.7 15.0 66.4 15.7 68.2 15.1 C 68.4 14.7 66.1 15.4 66.3 15.1 C 65.0 15.5 65.0 15.7 64.2 16.0 C 63.5 16.1 63.7 15.9 63.5 15.9 C 62.0 16.4 62.0 16.2 60.8 16.6 C 60.5 16.9 61.0 16.8 62.5 16.3 C 61.0 16.9 60.4 17.3 58.7 17.7 C 59.8 17.1 54.4 18.7 54.9 19.0 C 56.4 18.5 55.9 18.5 56.5 18.2 C 58.4 17.8 59.6 17.4 60.4 17.5 C 60.4 17.5 60.4 17.5 60.4 17.5 Z M 27.3 30.6 C 26.7 30.9 26.2 31.2 25.4 31.7 C 25.2 31.6 26.3 30.9 25.2 31.4 C 23.8 32.2 23.6 32.5 22.8 33.1 C 23.3 32.9 26.2 31.3 24.8 32.3 C 25.3 32.2 26.2 31.6 27.4 30.9 C 25.9 31.4 29.4 29.7 30.8 29.0 C 30.5 28.7 33.3 27.8 34.3 27.0 C 33.3 27.3 30.5 29.0 29.3 29.6 C 29.9 29.3 25.8 31.1 27.3 30.6 C 27.3 30.6 27.3 30.6 27.3 30.6 Z M 75.7 13.2 C 76.0 13.1 77.3 12.7 76.3 12.9 C 76.8 12.7 77.9 12.6 77.4 12.4 C 78.0 12.2 78.6 12.1 79.2 12.0 C 79.0 12.1 77.3 12.4 78.0 12.5 C 79.2 12.1 78.8 12.4 80.4 12.0 C 79.6 12.4 80.5 12.3 79.9 12.7 C 80.4 12.5 81.8 12.2 81.7 12.0 C 84.0 11.6 81.1 12.4 84.1 11.8 C 84.1 12.0 82.0 12.5 81.2 12.5 C 80.8 12.8 84.9 11.8 87.2 11.5 C 85.1 11.7 86.7 11.1 87.7 10.7 C 88.4 10.7 87.7 10.9 89.0 10.8 C 90.0 10.6 90.5 10.4 90.8 10.5 C 91.7 10.3 91.3 10.2 91.4 10.1 C 92.8 9.8 91.8 10.4 93.9 10.0 C 92.3 9.9 94.1 9.5 97.0 9.1 C 96.8 9.1 95.9 9.2 95.7 9.1 C 96.1 8.9 97.8 8.9 98.3 8.9 C 99.3 8.7 98.6 8.7 97.6 8.9 C 98.2 8.7 98.8 8.5 99.5 8.4 C 96.3 8.8 91.4 9.6 85.8 10.4 C 86.9 10.4 85.6 10.6 84.0 10.9 C 83.7 10.8 84.4 10.6 85.2 10.5 C 83.2 10.6 83.4 11.2 80.4 11.6 C 78.7 11.9 82.1 11.1 80.3 11.3 C 79.2 11.6 78.5 12.0 77.9 11.8 C 76.0 12.4 75.6 12.8 72.7 13.5 C 74.4 13.2 75.2 13.6 76.9 13.0 C 76.9 13.0 76.2 13.1 75.7 13.2 C 75.7 13.2 75.7 13.2 75.7 13.2 Z M 16.3 37.9 C 15.4 38.7 15.1 39.1 14.9 39.2 C 13.5 40.5 15.2 39.2 15.5 39.0 C 16.1 38.4 16.3 38.1 16.3 37.9 C 16.3 37.9 16.3 37.9 16.3 37.9 Z M 138.5 121.0 C 141.0 121.2 140.5 120.8 142.5 120.9 C 140.9 120.8 140.5 120.6 137.9 120.5 C 137.7 120.7 137.7 120.9 138.5 121.0 C 138.5 121.0 138.5 121.0 138.5 121.0 Z M 21.7 34.0 C 22.9 32.8 20.2 35.4 20.1 35.3 C 18.7 36.5 21.6 34.3 20.3 35.6 C 21.6 34.5 22.5 34.1 24.3 32.8 C 24.1 32.7 22.6 33.6 21.3 34.6 C 21.0 34.6 21.8 34.1 21.7 34.0 C 21.7 34.0 21.7 34.0 21.7 34.0 Z M 112.9 118.5 C 111.2 118.5 114.5 119.1 115.5 119.3 C 115.6 119.0 115.0 119.0 112.9 118.5 C 112.9 118.5 112.9 118.5 112.9 118.5 Z M 155.9 120.9 C 156.8 120.6 152.9 120.9 153.8 120.6 C 152.7 120.6 152.5 120.6 152.5 120.7 C 151.9 120.7 150.0 120.7 150.5 120.5 C 150.2 120.3 153.5 120.6 152.5 120.3 C 153.6 120.2 153.6 120.3 154.5 120.3 C 152.5 120.3 153.4 120.6 155.8 120.7 C 155.8 120.4 154.7 120.5 155.8 120.3 C 156.0 120.4 157.2 120.6 157.2 121.0 C 159.2 120.9 158.0 120.5 160.5 120.5 C 160.3 120.4 158.7 120.4 157.8 120.3 C 158.1 120.1 160.4 120.5 159.8 120.1 C 160.3 120.3 161.8 120.4 161.8 120.7 C 159.9 120.8 158.7 121.0 157.2 121.1 C 158.6 121.3 160.7 120.7 163.1 120.9 C 162.9 120.7 164.4 120.7 163.8 120.5 C 165.8 120.5 164.9 120.8 164.5 120.8 C 165.0 121.0 168.8 120.8 168.5 120.6 C 168.8 120.8 173.3 120.5 173.1 120.2 C 174.5 120.3 176.5 119.8 177.1 120.2 C 177.9 120.0 179.4 119.9 181.1 119.8 C 181.5 119.5 178.6 119.9 178.4 119.7 C 177.9 119.5 181.5 119.5 181.0 119.3 C 181.0 119.3 181.0 119.2 181.0 119.2 C 179.7 119.4 178.4 119.5 177.1 119.7 C 176.1 119.7 177.3 119.6 177.1 119.4 C 176.2 119.6 171.9 120.2 171.8 119.7 C 168.9 120.0 166.9 119.9 165.8 120.2 C 164.1 120.2 166.7 120.0 165.8 119.9 C 160.8 120.3 154.7 120.0 150.5 120.3 C 149.6 120.3 149.9 120.1 149.8 120.0 C 144.1 120.1 149.0 120.5 144.5 120.3 C 144.5 120.1 146.6 120.2 146.5 119.9 C 145.0 119.9 144.6 120.1 142.5 119.9 C 142.5 120.0 142.5 120.1 142.5 120.3 C 140.8 120.2 141.5 119.9 140.6 119.8 C 138.4 119.8 138.9 120.0 137.9 119.6 C 135.9 119.7 134.0 119.6 131.9 119.4 C 130.5 119.5 133.1 120.0 135.2 120.1 C 135.1 120.2 134.5 120.2 134.5 120.3 C 132.1 119.9 131.7 119.5 128.0 119.2 C 130.8 119.6 126.5 119.2 126.0 118.9 C 124.5 118.9 125.6 119.3 126.6 119.3 C 126.4 119.4 125.5 119.2 125.4 119.1 C 125.1 119.5 128.7 119.9 132.5 120.0 C 130.8 120.3 135.2 120.1 133.2 120.5 C 136.3 120.6 133.7 120.2 137.2 120.4 C 136.8 120.2 136.2 120.1 135.9 120.0 C 138.5 120.1 137.7 120.4 140.5 120.4 C 141.0 120.2 139.2 120.2 139.2 120.1 C 142.2 120.4 143.2 120.5 145.2 120.8 C 145.6 120.7 145.1 120.4 148.5 120.6 C 148.5 120.7 148.5 120.7 148.5 120.8 C 146.9 120.7 146.5 121.2 150.5 121.2 C 150.8 121.0 149.5 121.0 148.5 121.0 C 149.0 120.9 150.3 120.8 151.8 120.8 C 152.6 120.9 153.5 121.0 152.5 121.0 C 153.1 121.2 153.7 120.8 155.9 120.9 C 155.9 120.9 155.9 120.9 155.9 120.9 Z M 2.9 60.1 C 2.9 60.4 2.9 60.8 2.9 61.5 C 3.1 61.8 3.1 60.6 3.3 60.6 C 3.4 59.6 3.0 60.3 2.9 60.1 C 2.9 60.1 2.9 60.1 2.9 60.1 Z M 8.1 47.2 C 7.9 47.2 7.7 48.0 7.0 49.0 C 7.0 49.4 7.7 48.2 7.8 48.3 C 8.7 47.1 7.3 48.4 8.1 47.2 C 8.1 47.2 8.1 47.2 8.1 47.2 Z M 5.1 52.6 C 4.7 53.0 5.0 53.2 5.4 52.2 C 5.5 52.3 5.5 52.6 5.3 53.2 C 5.8 52.7 5.6 52.1 6.3 51.0 C 5.9 51.3 5.5 51.9 5.1 52.6 C 5.1 52.6 5.1 52.6 5.1 52.6 Z M 4.4 54.5 C 4.3 55.2 3.9 55.6 3.8 56.8 C 4.0 56.6 4.7 54.0 4.8 53.6 C 4.8 53.1 3.8 55.8 4.4 54.5 C 4.4 54.5 4.4 54.5 4.4 54.5 Z M 87.8 114.5 C 88.4 114.6 88.3 114.5 88.4 114.5 C 90.3 115.2 92.9 115.6 90.8 115.5 C 92.8 115.7 94.6 116.3 96.3 116.6 C 97.8 116.9 97.1 116.5 98.2 116.7 C 100.1 117.0 97.2 116.7 97.6 116.8 C 97.9 117.1 98.5 116.7 100.7 117.2 C 100.2 116.7 102.6 117.5 102.0 117.0 C 103.2 117.3 103.6 117.2 105.3 117.4 C 105.1 117.2 103.5 117.0 103.4 116.9 C 102.6 116.5 102.5 117.0 104.0 117.1 C 103.1 117.2 100.9 116.6 100.2 116.7 C 99.4 116.3 102.2 116.9 101.5 116.5 C 100.9 116.5 100.4 116.4 100.2 116.5 C 99.3 116.3 98.7 116.1 98.4 116.0 C 98.9 116.0 99.0 116.1 99.0 116.1 C 100.1 116.3 97.8 115.6 100.3 115.9 C 99.9 115.8 98.8 115.6 99.0 115.5 C 98.3 115.2 98.9 116.2 96.5 115.5 C 94.8 115.5 100.4 116.4 98.9 116.6 C 95.4 116.0 97.4 116.0 94.6 115.5 C 94.6 115.6 94.6 115.7 93.9 115.6 C 94.0 115.7 95.1 115.9 95.8 116.0 C 95.7 116.1 94.6 115.9 93.9 115.8 C 94.0 115.8 94.5 115.9 94.5 116.0 C 92.2 115.5 92.5 115.1 94.7 115.3 C 94.6 115.1 91.7 114.6 90.9 114.6 C 91.7 114.9 90.8 114.7 91.5 115.1 C 92.1 115.2 92.0 115.1 92.1 115.1 C 93.2 115.3 92.2 115.2 92.1 115.3 C 90.8 115.0 90.9 114.8 89.7 114.8 C 90.0 114.8 90.3 114.8 90.3 114.6 C 89.7 114.5 89.0 114.4 88.4 114.3 C 88.5 114.5 87.7 114.3 87.8 114.5 C 87.8 114.5 87.8 114.5 87.8 114.5 Z M 120.7 119.6 C 122.9 119.8 121.7 119.5 120.7 119.4 C 121.2 119.4 121.9 119.4 122.7 119.4 C 122.1 119.3 121.5 119.3 119.5 119.1 C 121.3 118.9 119.5 118.3 116.2 118.0 C 115.2 118.4 117.9 118.7 116.8 118.9 C 119.2 119.0 120.5 119.2 120.7 119.6 C 120.7 119.6 120.7 119.6 120.7 119.6 Z M 15.6 39.1 C 14.7 39.9 13.8 40.8 12.9 41.6 C 13.2 41.7 16.1 39.2 15.6 39.1 C 15.6 39.1 15.6 39.1 15.6 39.1 Z M 102.0 8.3 C 102.5 8.2 102.6 8.3 102.7 8.3 C 104.5 8.0 101.8 8.2 102.6 7.9 C 101.9 8.0 101.3 8.1 100.7 8.2 C 100.6 8.3 103.3 8.0 101.4 8.4 C 101.5 8.5 102.0 8.4 102.0 8.3 C 102.0 8.3 102.0 8.3 102.0 8.3 Z M 3.4 59.2 C 3.3 60.0 3.6 59.5 3.4 61.5 C 3.7 60.8 3.6 60.4 3.8 59.2 C 3.6 59.2 3.5 59.2 3.4 59.2 C 3.4 59.2 3.4 59.2 3.4 59.2 Z M 78.7 113.1 C 80.1 113.6 80.6 113.2 83.5 113.9 C 82.1 113.3 80.4 113.3 78.7 113.1 C 78.7 113.1 78.7 113.1 78.7 113.1 Z M 186.3 119.0 C 185.3 119.0 186.5 118.9 184.9 118.9 C 184.1 119.1 183.7 119.2 182.3 119.3 C 184.2 119.5 187.5 118.9 188.9 119.2 C 190.5 119.0 190.3 118.8 190.8 118.6 C 190.0 118.6 189.7 118.6 189.5 118.6 C 188.6 119.0 187.4 118.6 186.3 119.0 C 186.3 119.0 186.3 119.0 186.3 119.0 Z M 112.3 118.4 C 111.1 118.1 113.2 118.2 113.6 118.1 C 114.5 118.2 114.2 118.4 114.3 118.5 C 115.4 118.6 115.7 118.5 115.6 118.3 C 113.4 118.0 110.8 117.7 112.4 117.6 C 110.3 117.3 111.4 117.7 110.4 117.7 C 109.3 117.4 110.4 117.4 110.5 117.2 C 110.0 117.2 108.4 117.3 108.5 117.0 C 105.4 116.9 106.8 117.5 109.0 118.1 C 111.1 118.1 108.7 117.8 112.3 118.4 C 112.3 118.4 112.3 118.4 112.3 118.4 Z M 33.8 97.5 C 34.0 97.7 35.3 98.3 35.3 98.4 C 36.9 99.0 38.5 99.4 40.1 99.9 C 39.9 99.5 37.7 98.8 38.5 99.3 C 37.9 98.9 36.5 98.1 35.7 97.6 C 34.2 96.8 33.5 97.0 33.5 96.5 C 32.0 95.9 32.8 96.4 30.7 95.1 C 34.0 97.2 29.4 94.6 29.1 94.7 C 31.0 95.8 32.8 96.7 32.7 96.4 C 34.1 97.3 35.8 98.2 36.1 98.5 C 35.9 98.6 34.7 97.9 33.8 97.5 C 33.8 97.5 33.8 97.5 33.8 97.5 Z M 43.4 101.1 C 42.7 100.9 42.1 100.6 41.0 100.2 C 41.6 100.5 41.8 100.7 41.6 100.8 C 43.7 101.7 44.3 101.7 44.9 102.2 C 46.9 103.1 44.5 101.7 47.6 103.0 C 47.4 102.9 45.8 102.3 45.9 102.2 C 45.6 102.3 44.3 101.8 43.4 101.1 C 43.4 101.1 43.4 101.1 43.4 101.1 Z M 61.6 108.0 C 63.0 108.4 60.9 107.7 61.7 107.7 C 61.3 107.6 58.6 106.7 59.0 106.7 C 58.3 106.1 55.4 105.8 55.8 105.5 C 55.2 105.3 55.3 105.5 55.2 105.6 C 57.1 106.1 57.0 106.3 55.7 105.9 C 55.8 106.1 57.0 106.4 57.8 106.7 C 57.9 106.6 57.2 106.3 57.4 106.2 C 59.0 106.9 60.1 107.4 61.6 108.0 C 61.6 108.0 61.6 108.0 61.6 108.0 Z M 173.7 5.8 C 172.1 5.7 171.2 5.7 170.4 5.7 C 170.8 5.8 171.6 5.8 172.4 5.8 C 172.6 5.9 171.9 5.9 171.0 5.9 C 171.8 6.1 174.6 6.0 173.7 5.8 C 173.7 5.8 173.7 5.8 173.7 5.8 Z M 160.4 5.3 C 158.9 5.3 157.9 5.3 157.8 5.5 C 158.3 5.6 158.1 5.4 159.1 5.4 C 159.7 5.5 160.1 5.6 160.4 5.7 C 161.1 5.7 160.9 5.6 161.1 5.5 C 161.6 5.5 161.7 5.5 161.8 5.6 C 163.6 5.4 159.6 5.6 160.4 5.3 C 160.4 5.3 160.4 5.3 160.4 5.3 Z M 52.5 104.9 C 52.1 104.7 51.8 104.4 50.5 104.0 C 50.7 104.2 49.7 103.8 48.9 103.5 C 50.0 104.2 50.7 104.3 52.5 104.9 C 52.5 104.9 52.5 104.9 52.5 104.9 Z M 80.0 12.9 C 78.1 13.0 78.4 13.4 75.8 13.8 C 75.8 13.9 75.9 13.9 75.9 14.0 C 77.4 13.5 78.1 13.4 80.0 12.9 C 80.0 12.9 80.0 12.9 80.0 12.9 Z M 301.5 73.5 C 301.4 73.3 300.8 74.7 300.6 74.8 C 300.8 75.2 300.0 75.5 298.3 78.1 C 298.2 78.1 298.2 77.9 298.5 77.5 C 297.0 79.5 299.1 77.1 299.4 77.0 C 300.5 75.4 300.8 75.2 301.5 73.5 C 301.5 73.5 301.5 73.5 301.5 73.5 Z M 166.5 119.4 C 166.3 119.5 166.7 119.5 167.1 119.5 C 167.6 119.5 168.0 119.5 168.4 119.4 C 168.3 119.1 166.1 119.1 167.7 118.7 C 167.2 118.7 167.1 118.7 167.1 118.8 C 163.9 119.6 161.3 118.5 157.1 119.0 C 156.5 119.0 156.6 119.1 156.5 119.1 C 157.0 119.1 157.1 119.2 157.1 119.2 C 157.7 118.9 161.5 119.2 159.8 119.3 C 159.9 119.4 160.4 119.4 160.4 119.3 C 160.9 119.3 161.3 119.3 161.8 119.3 C 161.5 119.2 160.6 119.2 160.4 119.1 C 162.6 119.2 165.2 119.2 163.8 119.5 C 165.1 119.5 165.6 119.3 166.5 119.2 C 167.3 119.2 167.3 119.4 166.5 119.4 C 166.5 119.4 166.5 119.4 166.5 119.4 Z M 183.6 118.4 C 185.6 118.4 184.8 118.1 186.9 118.0 C 185.6 117.9 184.0 118.4 182.3 118.3 C 182.5 118.4 183.4 118.3 183.6 118.4 C 183.6 118.4 183.6 118.4 183.6 118.4 Z M 145.2 119.1 C 145.6 118.8 143.8 118.8 141.9 118.7 C 141.5 119.0 143.2 119.1 145.2 119.1 C 145.2 119.1 145.2 119.1 145.2 119.1 Z M 153.8 119.2 C 155.8 119.1 151.4 119.2 152.5 118.9 C 151.6 118.9 150.6 118.9 150.5 118.8 C 149.8 118.9 149.8 119.0 148.5 118.9 C 148.6 119.1 150.7 119.0 150.5 119.2 C 152.0 119.1 152.3 119.1 153.8 119.2 C 153.8 119.2 153.8 119.2 153.8 119.2 Z M 155.1 119.2 C 156.4 119.1 154.8 118.7 153.2 118.7 C 153.8 118.9 154.2 119.1 155.1 119.2 C 155.1 119.2 155.1 119.2 155.1 119.2 Z M 12.0 80.0 C 12.5 80.6 12.2 80.0 12.9 80.7 C 12.9 80.6 10.8 78.2 12.6 80.2 C 12.2 79.2 11.5 79.1 10.9 78.1 C 11.0 78.5 11.1 78.8 10.7 78.2 C 10.3 78.1 12.4 80.2 12.0 80.0 C 12.0 80.0 12.0 80.0 12.0 80.0 Z M 14.2 82.5 C 14.7 83.0 14.5 82.7 14.3 82.4 C 14.4 82.5 15.1 83.1 15.6 83.6 C 15.6 83.7 15.0 82.5 15.1 82.4 C 12.9 80.5 14.3 82.2 14.2 82.5 C 14.2 82.5 14.2 82.5 14.2 82.5 Z M 16.5 84.4 C 17.8 85.9 20.1 87.7 21.4 88.3 C 20.4 87.1 17.4 84.8 16.5 84.4 C 16.5 84.4 16.5 84.4 16.5 84.4 Z M 6.5 70.6 C 7.2 73.3 10.3 78.0 8.1 73.4 C 8.1 73.7 6.6 70.8 6.2 69.3 C 6.1 69.3 5.5 67.7 5.6 67.6 C 5.1 66.5 6.5 71.3 6.5 70.6 C 6.5 70.6 6.5 70.6 6.5 70.6 Z M 23.9 89.5 C 22.9 89.0 23.8 90.1 22.5 89.0 C 21.7 88.5 22.7 89.3 22.4 89.2 C 24.1 90.4 28.1 92.6 28.3 93.1 C 29.4 93.6 29.8 93.6 31.7 94.7 C 31.9 94.6 24.9 90.9 23.8 89.6 C 24.0 89.6 26.2 91.1 23.9 89.5 C 23.9 89.5 23.9 89.5 23.9 89.5 Z M 80.3 14.3 C 80.4 14.0 78.0 14.7 78.4 14.3 C 77.2 14.9 75.9 15.0 74.4 15.6 C 74.0 15.6 74.1 15.2 72.0 15.7 C 72.0 15.9 73.0 15.6 72.1 16.0 C 70.3 16.5 70.7 16.1 68.6 16.7 C 69.1 17.0 64.3 18.0 64.8 18.3 C 65.9 17.9 65.8 17.8 67.6 17.3 C 68.2 17.2 68.0 17.4 68.7 17.2 C 68.2 17.6 67.2 17.5 66.5 17.9 C 66.7 18.0 68.1 17.6 68.3 17.7 C 69.1 17.5 68.0 17.7 68.2 17.5 C 70.4 16.9 68.2 18.1 70.6 17.4 C 70.1 17.3 70.1 17.3 70.5 16.9 C 71.5 16.8 74.4 15.9 72.8 16.6 C 73.0 16.7 74.8 16.0 74.5 15.9 C 75.5 15.6 75.6 15.7 75.7 15.8 C 78.2 15.1 78.5 14.8 77.9 14.7 C 78.4 14.4 78.8 14.7 80.3 14.3 C 80.3 14.3 80.3 14.3 80.3 14.3 Z M 5.9 56.9 C 6.0 55.9 5.6 58.0 5.4 59.0 C 5.7 57.8 5.9 58.3 6.3 57.0 C 6.1 57.4 6.0 57.3 6.2 56.5 C 6.2 56.3 5.6 58.1 5.9 56.9 C 5.9 56.9 5.9 56.9 5.9 56.9 Z M 36.0 96.9 C 36.7 97.4 40.7 99.1 42.9 100.1 C 42.6 99.6 37.3 97.8 36.8 97.1 C 35.6 96.6 37.4 97.5 36.0 96.9 C 36.0 96.9 36.0 96.9 36.0 96.9 Z M 58.7 19.6 C 58.1 19.8 58.4 19.8 58.7 19.7 C 58.5 19.8 57.4 20.2 56.6 20.4 C 57.8 20.2 56.4 20.8 56.7 20.9 C 56.1 21.1 55.8 21.2 55.7 21.3 C 55.5 20.9 52.5 22.7 55.8 21.6 C 55.1 21.6 55.4 21.5 56.7 21.0 C 58.3 20.7 59.4 20.1 60.0 20.2 C 61.0 19.8 61.4 19.6 62.7 19.2 C 63.1 19.3 64.3 19.0 63.4 19.7 C 65.8 19.0 64.0 18.9 66.0 18.3 C 68.0 17.9 65.1 18.8 65.6 18.9 C 66.1 18.7 66.0 18.9 66.2 18.9 C 66.9 18.7 66.8 18.4 66.1 18.6 C 66.3 18.5 68.2 17.8 67.8 18.2 C 68.9 17.8 65.8 17.9 64.3 18.6 C 63.4 18.9 63.3 18.5 64.2 18.3 C 63.8 18.2 62.2 19.2 62.5 18.6 C 61.8 18.8 61.1 19.0 60.3 19.3 C 60.5 19.3 60.9 19.2 60.9 19.2 C 60.2 19.5 59.5 19.7 58.7 19.9 C 59.3 19.6 59.3 19.5 58.7 19.6 C 58.7 19.6 58.7 19.6 58.7 19.6 Z M 27.2 92.0 C 28.8 93.0 29.2 93.1 30.5 93.8 C 30.1 93.3 26.6 91.4 27.2 92.0 C 27.2 92.0 27.2 92.0 27.2 92.0 Z M 90.7 13.0 C 90.5 12.9 89.4 13.1 89.4 13.0 C 91.3 12.6 89.1 12.9 90.5 12.2 C 88.1 12.8 87.4 13.5 90.7 13.1 C 93.1 12.6 88.2 13.4 90.7 13.0 C 90.7 13.0 90.7 13.0 90.7 13.0 Z M 83.3 14.2 C 81.9 14.6 85.6 14.0 86.4 13.9 C 86.5 14.0 86.5 14.1 86.5 14.1 C 88.5 13.4 85.7 13.8 87.5 13.0 C 85.1 13.3 84.1 13.4 82.1 14.0 C 82.2 14.0 82.7 13.9 82.7 13.8 C 84.2 13.6 83.2 14.1 81.6 14.3 C 82.0 14.3 83.5 14.0 84.6 13.9 C 84.2 13.9 83.9 13.9 83.9 13.7 C 85.2 13.4 84.8 13.7 85.7 13.6 C 85.7 13.7 83.4 14.3 83.3 14.2 C 83.3 14.2 83.3 14.2 83.3 14.2 Z M 210.3 11.2 C 209.0 11.0 211.6 11.7 211.4 12.1 C 212.7 12.3 213.0 12.3 213.9 12.4 C 213.5 12.2 212.0 11.9 211.4 11.7 C 211.7 11.4 213.4 12.0 213.9 11.9 C 214.8 11.7 210.8 11.6 210.3 11.2 C 210.3 11.2 210.3 11.2 210.3 11.2 Z M 28.0 33.3 C 27.3 33.7 27.7 33.5 28.0 33.3 C 28.0 33.5 26.9 34.2 26.8 34.1 C 25.9 34.7 27.4 33.9 26.3 34.6 C 26.2 34.9 28.1 33.5 28.1 33.4 C 29.5 32.6 28.5 33.5 29.0 33.4 C 30.2 32.6 29.6 32.7 31.5 31.7 C 30.3 32.2 29.3 32.6 28.0 33.3 C 28.0 33.3 28.0 33.3 28.0 33.3 Z M 94.8 11.8 C 95.1 11.6 93.5 12.4 91.8 12.4 C 89.7 12.8 93.2 12.5 91.3 12.8 C 92.9 12.5 94.8 12.0 97.4 11.6 C 97.9 11.4 93.8 12.1 96.1 11.6 C 96.0 11.6 95.4 11.7 95.5 11.7 C 95.0 11.8 94.9 11.8 94.8 11.8 C 94.8 11.8 94.8 11.8 94.8 11.8 Z M 92.5 12.7 C 92.6 12.8 93.1 12.7 93.1 12.6 C 93.9 12.5 93.9 12.7 93.2 12.8 C 94.2 12.9 94.1 12.4 96.2 12.3 C 95.3 12.2 94.8 12.1 96.8 12.0 C 98.3 11.5 93.2 12.4 92.5 12.7 C 92.5 12.7 92.5 12.7 92.5 12.7 Z M 189.9 8.8 C 190.1 9.0 191.5 9.1 192.5 9.2 C 191.2 9.2 186.0 8.7 185.4 8.4 C 184.8 8.5 184.2 8.5 184.0 8.3 C 184.1 8.4 182.6 8.4 183.4 8.5 C 183.3 8.6 182.1 8.5 182.1 8.6 C 180.1 8.4 182.7 8.5 182.1 8.3 C 179.8 8.3 180.3 8.2 177.5 8.0 C 178.0 8.2 181.0 8.4 180.8 8.7 C 182.9 8.5 185.3 8.9 186.6 9.3 C 184.6 8.7 192.2 9.2 195.7 9.7 C 195.5 9.8 196.8 9.9 198.2 10.2 C 199.2 10.5 198.9 10.0 197.0 9.9 C 197.1 9.7 199.7 10.2 200.8 10.3 C 199.5 10.0 200.2 9.9 199.6 9.8 C 197.1 9.5 199.3 9.8 198.9 10.0 C 198.2 9.9 197.6 9.8 196.9 9.7 C 200.3 9.7 192.1 9.1 195.1 9.4 C 192.4 9.2 192.4 8.9 189.9 8.8 C 189.9 8.8 189.9 8.8 189.9 8.8 Z M 128.1 8.0 C 127.6 8.0 125.5 8.4 125.5 8.2 C 122.8 8.6 125.2 8.6 122.2 8.8 C 122.4 8.9 123.5 8.8 123.5 8.9 C 124.7 8.7 125.8 8.6 125.5 8.3 C 126.8 8.3 127.2 8.1 128.1 8.1 C 127.8 8.2 127.3 8.3 126.1 8.4 C 125.9 8.6 126.4 8.7 128.1 8.5 C 128.9 8.3 128.3 8.1 128.1 8.0 C 128.1 8.0 128.1 8.0 128.1 8.0 Z M 121.6 8.8 C 121.2 8.8 120.8 8.7 120.9 8.6 C 119.9 8.4 120.5 9.0 119.6 9.0 C 118.8 9.1 119.1 8.9 119.0 8.9 C 117.8 9.0 116.9 9.1 116.4 9.1 C 114.6 9.4 118.4 9.1 119.0 9.2 C 120.2 9.1 119.8 8.9 121.6 8.8 C 121.6 8.8 121.6 8.8 121.6 8.8 Z M 102.3 10.7 C 102.0 10.5 101.4 11.0 100.5 11.0 C 101.1 11.2 103.0 10.8 101.8 11.3 C 103.6 11.1 103.7 11.1 105.6 10.7 C 106.8 10.8 105.6 10.5 103.7 10.9 C 103.9 10.8 104.8 10.6 104.9 10.5 C 106.2 10.8 109.3 9.7 107.4 10.3 C 106.8 10.3 106.5 10.2 106.1 10.2 C 105.7 10.4 101.4 10.9 102.3 10.7 C 102.3 10.7 102.3 10.7 102.3 10.7 Z M 43.2 26.2 C 44.8 25.5 45.7 25.1 46.5 24.8 C 47.3 24.5 48.5 24.0 49.6 23.7 C 49.7 23.7 49.5 23.8 49.1 24.0 C 49.6 23.9 50.2 23.6 51.1 23.3 C 51.0 23.2 50.6 23.4 50.6 23.4 C 48.9 23.9 50.3 23.4 50.5 23.1 C 48.4 23.6 45.4 25.3 43.9 25.6 C 42.7 26.1 44.2 25.6 43.2 26.2 C 43.2 26.2 43.2 26.2 43.2 26.2 Z M 300.5 71.0 C 300.5 71.3 300.2 72.0 300.4 71.9 C 300.6 71.3 300.7 70.8 300.9 70.2 C 300.4 71.3 300.2 71.1 299.5 72.5 C 299.8 72.1 300.0 72.3 300.5 71.0 C 300.5 71.0 300.5 71.0 300.5 71.0 Z M 108.7 9.9 C 108.8 10.1 108.8 10.2 108.1 10.3 C 107.9 10.5 109.9 10.1 110.0 10.3 C 110.7 10.2 110.4 10.1 111.3 10.0 C 110.9 9.9 109.3 10.1 109.9 9.8 C 110.5 9.7 110.6 9.8 110.6 9.8 C 111.9 9.5 109.9 9.7 108.7 9.9 C 108.7 9.9 108.7 9.9 108.7 9.9 Z M 216.4 12.4 C 215.5 12.3 216.4 12.6 217.0 12.7 C 215.2 12.6 218.0 13.3 218.1 13.5 C 217.4 13.2 214.9 12.9 214.5 12.7 C 213.7 12.7 214.6 13.0 212.6 12.7 C 212.8 13.0 215.0 13.1 214.5 12.9 C 214.9 13.3 217.1 13.3 216.9 13.6 C 219.6 14.1 220.3 14.0 220.5 13.8 C 217.9 13.4 219.3 13.3 217.0 12.9 C 217.0 12.8 217.7 13.0 218.2 13.1 C 218.0 12.9 217.0 12.6 216.4 12.4 C 216.4 12.4 216.4 12.4 216.4 12.4 Z M 149.2 7.3 C 147.7 7.3 147.7 7.5 147.8 7.7 C 148.4 7.7 149.3 7.6 150.4 7.6 C 150.2 7.5 148.4 7.6 149.2 7.3 C 149.2 7.3 149.2 7.3 149.2 7.3 Z M 206.4 11.2 C 206.3 11.1 205.8 11.0 205.8 11.1 C 204.2 10.9 203.9 10.7 203.3 10.5 C 202.4 10.4 202.7 10.6 202.7 10.7 C 204.2 10.7 203.8 11.0 205.8 11.2 C 205.7 11.1 205.9 11.1 206.4 11.2 C 206.4 11.2 206.4 11.2 206.4 11.2 Z M 163.0 7.5 C 162.2 7.5 162.6 7.6 163.0 7.6 C 162.1 7.9 159.4 7.6 158.4 7.7 C 158.2 7.9 161.6 7.9 157.7 7.9 C 158.4 8.1 161.9 8.0 163.7 8.1 C 163.3 8.3 160.9 8.3 161.0 8.5 C 163.1 8.4 165.3 8.4 165.7 8.0 C 162.7 7.9 163.7 7.7 163.0 7.5 C 163.0 7.5 163.0 7.5 163.0 7.5 Z M 166.3 7.8 C 166.0 7.7 165.5 7.8 164.4 7.7 C 166.0 8.1 166.9 8.0 170.3 8.2 C 170.3 8.1 170.3 8.1 170.3 8.0 C 170.9 8.0 171.6 8.1 172.3 8.1 C 169.4 7.7 168.7 7.9 165.7 7.8 C 165.5 7.8 165.9 7.8 166.3 7.8 C 166.3 7.8 166.3 7.8 166.3 7.8 Z M 80.4 15.0 C 81.3 14.9 82.0 14.9 83.4 14.7 C 83.3 14.5 82.4 14.5 80.4 15.0 C 80.4 15.0 80.4 15.0 80.4 15.0 Z M 208.9 11.7 C 210.6 11.8 207.2 11.4 208.2 11.8 C 209.6 12.1 211.0 12.4 211.3 12.7 C 213.8 12.8 208.5 12.0 208.9 11.7 C 208.9 11.7 208.9 11.7 208.9 11.7 Z M 197.5 10.8 C 196.8 10.6 196.8 10.3 197.5 10.6 C 199.3 10.8 196.0 10.2 198.8 10.6 C 197.6 10.3 195.0 9.9 193.7 9.9 C 193.7 10.1 196.2 10.3 196.2 10.5 C 196.3 10.6 196.0 10.6 195.6 10.5 C 195.8 10.7 196.4 10.6 197.5 10.8 C 197.5 10.8 197.5 10.8 197.5 10.8 Z M 187.9 9.4 C 189.0 9.6 190.2 9.8 192.4 10.0 C 191.0 9.7 190.2 9.4 187.9 9.4 C 187.9 9.4 187.9 9.4 187.9 9.4 Z M 297.1 49.8 C 296.5 48.8 296.8 49.8 296.9 50.0 C 297.5 50.9 297.6 50.8 298.2 51.9 C 298.2 51.4 297.3 50.5 297.1 49.8 C 297.1 49.8 297.1 49.8 297.1 49.8 Z M 299.0 53.4 C 298.9 53.6 299.6 54.9 299.5 55.1 C 300.3 55.7 299.9 57.2 300.3 57.0 C 300.3 57.3 300.4 57.6 300.5 58.2 C 300.7 57.0 299.6 54.6 299.0 53.4 C 299.0 53.4 299.0 53.4 299.0 53.4 Z M 176.8 9.1 C 175.1 8.9 177.3 9.5 175.5 9.3 C 175.3 9.4 178.8 9.7 176.7 9.6 C 179.4 9.9 176.6 9.1 176.8 9.1 C 176.8 9.1 176.8 9.1 176.8 9.1 Z M 144.5 8.8 C 144.7 8.6 142.2 8.8 141.3 8.8 C 141.3 8.9 142.0 8.8 142.6 8.8 C 142.3 8.9 142.0 9.0 141.3 9.0 C 141.8 9.2 143.6 8.8 144.5 8.8 C 144.5 8.8 144.5 8.8 144.5 8.8 Z M 180.4 5.1 C 181.4 5.4 182.8 5.7 183.6 5.4 C 184.8 5.7 182.8 5.6 184.2 5.9 C 186.1 5.9 185.2 6.1 188.2 6.2 C 187.6 6.4 189.8 6.6 190.1 6.8 C 188.9 6.8 187.4 6.4 186.8 6.6 C 187.8 6.6 187.2 6.8 186.8 6.6 C 184.8 6.3 189.3 6.5 186.8 6.2 C 186.1 6.4 182.6 5.6 180.3 5.4 C 181.2 5.3 178.6 5.0 180.4 5.1 C 180.4 5.1 180.4 5.1 180.4 5.1 Z M 192.1 6.6 C 193.6 6.7 194.4 7.3 194.0 7.2 C 194.0 7.1 192.2 6.9 192.0 7.0 C 192.5 7.1 192.8 7.1 192.7 7.2 C 189.8 6.9 190.8 6.8 190.1 6.5 C 191.7 6.6 192.2 6.8 192.7 6.7 C 192.4 6.7 192.0 6.6 192.1 6.6 C 192.1 6.6 192.1 6.6 192.1 6.6 Z M 224.6 15.4 C 224.3 15.2 223.9 15.3 223.4 15.3 C 223.3 14.9 220.2 14.8 219.8 14.5 C 220.5 14.5 222.1 14.8 222.8 14.8 C 222.0 14.6 221.9 14.5 221.0 14.5 C 221.2 14.3 223.0 14.6 223.5 14.6 C 223.6 14.7 224.5 14.7 224.7 14.9 C 222.3 14.5 225.9 15.7 224.6 15.4 C 224.6 15.4 224.6 15.4 224.6 15.4 Z M 161.7 8.8 C 161.4 9.0 164.3 9.7 161.7 9.9 C 161.1 9.7 160.8 9.5 161.0 9.2 C 159.4 9.3 158.7 9.1 157.7 9.3 C 154.7 8.5 160.0 9.4 161.7 8.8 C 161.7 8.8 161.7 8.8 161.7 8.8 Z M 151.1 9.0 C 151.7 8.7 150.2 8.8 150.5 8.6 C 151.7 8.7 155.9 8.5 154.4 8.6 C 153.1 8.7 153.1 9.0 151.1 9.0 C 151.1 9.0 151.1 9.0 151.1 9.0 Z M 72.2 109.2 C 70.3 109.0 69.4 108.3 70.5 108.4 C 70.0 108.6 72.8 109.1 72.2 109.2 C 72.2 109.2 72.2 109.2 72.2 109.2 Z M 5.3 76.1 C 6.0 77.6 6.6 78.3 6.5 78.6 C 5.6 77.3 5.8 77.3 5.2 76.2 C 5.0 76.1 4.6 75.5 4.6 75.3 C 4.9 75.9 5.0 75.7 5.3 76.1 C 5.3 76.1 5.3 76.1 5.3 76.1 Z M 110.8 5.7 C 110.6 5.6 109.8 5.6 110.1 5.4 C 112.1 5.3 114.3 4.9 115.9 4.6 C 115.9 4.7 115.9 4.8 116.0 4.9 C 112.8 5.1 112.0 5.4 110.8 5.7 C 110.8 5.7 110.8 5.7 110.8 5.7 Z M 106.8 5.7 C 106.5 5.8 107.6 6.0 106.3 6.1 C 106.3 6.0 103.8 6.0 104.9 5.8 C 105.3 5.9 106.0 5.9 106.8 5.7 C 106.8 5.7 106.8 5.7 106.8 5.7 Z M 216.9 9.3 C 218.4 9.5 216.3 8.9 216.4 8.8 C 217.5 9.1 219.0 9.3 219.4 9.5 C 218.3 9.3 217.5 9.6 216.9 9.3 C 216.9 9.3 216.9 9.3 216.9 9.3 Z M 193.4 6.6 C 190.0 6.3 191.5 6.0 188.2 5.6 C 189.6 5.6 192.6 5.9 193.5 5.8 C 193.3 5.9 194.2 6.1 194.1 6.2 C 192.9 6.1 192.7 6.0 191.5 5.9 C 191.9 6.1 191.9 6.0 191.4 6.3 C 192.3 6.3 192.9 6.4 193.4 6.4 C 193.2 6.5 194.3 6.7 193.4 6.6 C 193.4 6.6 193.4 6.6 193.4 6.6 Z M 216.2 9.8 C 217.5 9.9 218.5 10.5 217.4 10.2 C 217.3 10.1 216.4 10.1 216.2 9.9 C 218.0 10.2 214.8 9.6 215.6 9.5 C 216.7 9.7 217.1 9.7 216.9 9.5 C 217.6 9.6 218.7 9.8 218.7 9.9 C 218.3 9.8 217.5 9.7 217.5 9.8 C 217.9 9.8 218.2 9.9 218.1 10.0 C 217.0 9.8 216.5 9.7 216.2 9.8 C 216.2 9.8 216.2 9.8 216.2 9.8 Z M 207.5 8.4 C 209.2 8.7 209.4 8.9 210.0 9.2 C 207.6 8.7 207.3 8.4 205.6 8.0 C 207.5 8.3 209.5 8.3 210.0 8.5 C 209.2 8.5 207.6 8.3 207.5 8.4 C 207.5 8.4 207.5 8.4 207.5 8.4 Z M 237.1 110.6 C 235.7 110.9 234.6 111.0 233.0 111.2 C 232.5 111.6 235.5 111.4 234.3 111.5 C 232.7 111.9 233.7 111.3 232.4 111.6 C 233.8 111.7 226.9 113.2 226.5 112.9 C 227.6 112.7 227.9 112.5 227.6 112.4 C 230.4 111.9 231.5 111.4 233.5 110.9 C 235.1 110.8 239.4 109.8 241.5 108.9 C 243.1 109.0 245.7 107.7 247.7 107.5 C 248.2 107.2 246.0 107.7 247.6 107.2 C 248.8 107.1 248.0 107.4 249.4 107.1 C 249.5 107.0 249.1 106.9 249.9 106.6 C 249.8 106.8 250.7 106.5 251.0 106.5 C 248.1 107.4 251.3 106.8 249.0 107.6 C 248.0 107.8 249.9 106.9 247.2 107.7 C 246.3 108.1 245.4 108.4 245.7 108.6 C 244.9 108.8 244.5 109.0 244.0 109.1 C 245.0 108.5 240.2 110.3 242.3 109.4 C 242.5 109.3 244.0 108.9 245.1 108.5 C 244.0 108.5 242.9 109.0 241.1 109.6 C 240.3 109.6 241.4 109.3 240.5 109.4 C 239.1 110.0 241.1 109.7 240.1 110.1 C 240.5 110.0 241.2 109.8 241.2 109.8 C 238.7 110.2 237.8 110.7 236.6 111.0 C 237.4 110.7 235.1 111.2 237.1 110.6 C 237.1 110.6 237.1 110.6 237.1 110.6 Z M 256.8 104.4 C 257.3 104.2 257.8 104.0 258.4 103.8 C 258.6 104.0 256.6 104.8 258.0 104.5 C 255.7 105.3 258.0 104.2 256.8 104.4 C 256.8 104.4 256.8 104.4 256.8 104.4 Z M 245.9 107.0 C 245.0 107.0 245.6 107.4 244.8 107.7 C 246.2 107.2 247.4 106.8 247.6 107.0 C 246.0 107.4 245.3 107.6 243.7 108.1 C 245.2 107.3 241.9 108.4 241.3 108.2 C 242.6 107.8 243.5 107.4 245.2 107.0 C 245.0 107.1 247.4 106.5 245.9 107.0 C 245.9 107.0 245.9 107.0 245.9 107.0 Z M 250.1 105.4 C 250.5 105.4 252.8 104.5 252.3 105.0 C 250.9 105.4 250.4 105.6 250.8 105.7 C 249.8 106.1 249.6 106.0 248.6 106.3 C 247.9 106.2 249.6 105.8 250.1 105.5 C 249.8 105.6 249.5 105.6 250.1 105.4 C 250.1 105.4 250.1 105.4 250.1 105.4 Z M 293.7 79.8 C 294.2 79.7 292.6 81.2 292.3 81.4 C 292.9 81.2 292.7 81.4 291.8 82.5 C 291.9 81.9 290.5 83.4 289.2 84.0 C 289.1 84.4 290.5 83.4 289.0 84.8 C 287.7 85.7 286.6 86.7 284.5 88.3 C 283.9 88.4 284.8 87.7 285.3 87.2 C 283.9 88.3 284.2 87.8 283.0 88.6 C 283.3 88.5 282.4 89.2 282.0 89.4 C 283.9 88.0 279.1 90.9 281.2 89.4 C 281.3 89.4 281.8 89.0 282.3 88.7 C 281.9 89.3 284.6 87.4 285.2 87.1 C 285.9 85.9 288.7 84.1 291.3 82.0 C 291.5 81.9 290.8 82.7 291.4 82.2 C 291.4 82.0 292.2 81.2 292.5 80.9 C 292.6 81.0 292.9 80.7 293.4 80.3 C 293.4 80.2 293.4 80.1 293.7 79.8 C 293.7 79.8 293.7 79.8 293.7 79.8 Z M 132.1 116.8 C 132.2 116.4 128.0 116.4 126.8 116.4 C 127.1 116.0 134.4 116.6 132.1 116.8 C 132.1 116.8 132.1 116.8 132.1 116.8 Z M 157.8 117.1 C 156.7 117.1 157.4 117.4 156.5 117.4 C 156.4 117.1 153.9 117.6 153.8 117.4 C 155.1 117.2 155.8 117.2 157.8 117.1 C 157.8 117.1 157.8 117.1 157.8 117.1 Z M 181.5 116.3 C 179.6 116.5 182.5 116.3 182.1 116.5 C 180.5 116.6 178.8 116.7 178.9 116.5 C 180.3 116.5 181.3 116.1 181.5 116.3 C 181.5 116.3 181.5 116.3 181.5 116.3 Z M 145.9 116.8 C 144.3 116.7 147.0 116.4 147.2 116.6 C 145.5 116.6 148.4 116.8 149.8 116.8 C 149.8 117.1 149.1 117.0 149.8 117.3 C 147.5 117.4 149.5 117.0 147.9 117.0 C 146.8 117.2 147.9 117.1 147.8 117.3 C 147.2 117.3 146.6 117.3 145.9 117.3 C 145.9 117.2 145.9 117.0 145.9 116.9 C 146.7 116.9 147.5 116.9 147.2 116.8 C 146.6 116.8 146.4 116.8 145.9 116.8 C 145.9 116.8 145.9 116.8 145.9 116.8 Z M 263.0 98.6 C 261.7 99.1 262.9 98.8 263.8 98.4 C 264.0 98.2 264.6 97.5 266.1 97.1 C 263.2 98.6 267.2 97.0 265.5 97.9 C 264.7 98.0 263.0 99.0 261.4 99.6 C 260.7 99.7 262.2 98.7 263.0 98.6 C 263.0 98.6 263.0 98.6 263.0 98.6 Z M 268.5 96.4 C 268.4 96.4 267.8 96.6 267.0 97.0 C 267.8 96.4 266.5 96.9 267.6 96.3 C 267.5 96.5 271.5 94.7 269.2 95.9 C 267.1 96.7 269.9 95.7 270.8 95.3 C 269.8 95.8 268.1 96.9 267.8 96.8 C 268.3 96.6 268.7 96.4 268.5 96.4 C 268.5 96.4 268.5 96.4 268.5 96.4 Z M 298.6 71.6 C 298.6 71.4 298.2 72.1 298.0 72.3 C 299.1 70.3 299.6 68.7 299.9 67.7 C 299.7 68.6 299.9 68.7 300.1 68.2 C 299.7 69.1 299.8 69.4 299.5 69.7 C 299.7 68.8 299.2 70.4 298.6 71.6 C 298.6 71.6 298.6 71.6 298.6 71.6 Z M 298.6 71.6 " fill="#000000"></path><image xlink:href="../../CEFA4209-80C9-472B-8D2B-058B96531B72/assets/431BD2BFE54A6EFCB4B133EE2A4ED9FC.png" width="209.00" height="56.00" transform="matrix(1.00, 0.00, -0.00, -1.00, 52.0, 81.0)"></image><g><clipPath id="clip-1058"><path d="M 5.1 6.4 L 303.2 6.4 L 303.2 118.9 L 5.1 118.9 Z M 5.1 6.4 "></path></clipPath><g clip-path="url(#clip-1058)"><text xml:space="preserve" font-family="Chalkduster" font-size="32.0" fill="#000000" transform="matrix(1.00, 0.00, -0.00, -1.00, 55.0, 49.0)">L</text><text xml:space="preserve" font-family="Chalkduster" font-size="32.0" fill="#000000" transform="matrix(1.00, 0.00, -0.00, -1.00, 75.3, 49.0)">i</text><text xml:space="preserve" font-family="Chalkduster" font-size="32.0" fill="#000000" transform="matrix(1.00, 0.00, -0.00, -1.00, 87.9, 49.0)">n</text><text xml:space="preserve" font-family="Chalkduster" font-size="32.0" fill="#000000" transform="matrix(1.00, 0.00, -0.00, -1.00, 111.4, 49.0)">k</text><text xml:space="preserve" font-family="Chalkduster" font-size="32.0" fill="#000000" transform="matrix(1.00, 0.00, -0.00, -1.00, 136.3, 49.0)"> </text><text xml:space="preserve" font-family="Chalkduster" font-size="32.0" fill="#000000" transform="matrix(1.00, 0.00, -0.00, -1.00, 152.2, 49.0)">S</text><text xml:space="preserve" font-family="Chalkduster" font-size="32.0" fill="#000000" transform="matrix(1.00, 0.00, -0.00, -1.00, 168.1, 49.0)">p</text><text xml:space="preserve" font-family="Chalkduster" font-size="32.0" fill="#000000" transform="matrix(1.00, 0.00, -0.00, -1.00, 188.2, 49.0)">e</text><text xml:space="preserve" font-family="Chalkduster" font-size="32.0" fill="#000000" transform="matrix(1.00, 0.00, -0.00, -1.00, 208.1, 49.0)">e</text><text xml:space="preserve" font-family="Chalkduster" font-size="32.0" fill="#000000" transform="matrix(1.00, 0.00, -0.00, -1.00, 228.9, 49.0)">d</text></g></g></g></svg>