<?xml version="1.0" encoding="UTF-8" standalone="no"?><svg xmlns="http://www.w3.org/2000/svg" xmlns:xlink="http://www.w3.org/1999/xlink" clip-rule="evenodd" stroke-miterlimit="4.00" viewBox="0 0 330 140"><desc>SVG generated by Keynote</desc><defs></defs><g transform="matrix(1.00, 0.00, -0.00, -1.00, 0.0, 140.0)"><g><clipPath id="clip-1067"><path d="M 277.4 115.4 C 339.6 90.3 339.6 49.6 277.4 24.6 C 215.1 -0.5 114.2 -0.5 52.0 24.6 C -10.2 49.6 -10.2 90.3 52.0 115.4 C 114.2 140.4 215.1 140.4 277.4 115.4 Z M 277.4 115.4 "></path></clipPath><g clip-path="url(#clip-1067)"><image xlink:href="../../CEFA4209-80C9-472B-8D2B-058B96531B72/assets/59DBD66EA15A3D40E065F836EF2595FD.jpeg" width="400.00" height="400.00" transform="matrix(1.00, 0.00, -0.00, -1.00, 5.3, 134.2)"></image></g></g><path d="M 81.9 11.1 C 81.4 11.3 80.9 11.4 80.0 11.6 C 80.4 11.6 80.7 11.6 80.7 11.7 C 81.4 11.5 82.4 11.2 83.9 10.9 C 83.8 10.8 83.1 11.0 82.6 11.1 C 81.9 11.2 82.0 11.1 81.9 11.1 C 81.9 11.1 81.9 11.1 81.9 11.1 Z M 66.7 124.1 C 65.5 123.7 66.8 124.4 67.3 124.5 C 67.3 124.5 67.4 124.4 67.9 124.6 C 67.9 124.8 66.9 124.6 66.0 124.4 C 62.7 123.2 65.3 123.6 66.7 124.1 C 66.7 124.1 66.7 124.1 66.7 124.1 Z M 251.1 127.2 C 253.8 126.5 250.8 127.0 250.4 127.0 C 251.6 126.6 250.5 126.5 252.2 126.1 C 252.5 126.1 253.1 126.0 253.5 126.1 C 252.7 126.3 251.7 126.5 251.6 126.6 C 252.6 126.4 253.9 126.0 254.1 126.0 C 252.0 126.7 253.8 126.4 254.2 126.4 C 252.3 126.9 251.7 127.3 251.1 127.2 C 251.1 127.2 251.1 127.2 251.1 127.2 Z M 301.2 33.6 C 302.0 34.2 302.7 34.6 302.5 34.6 C 301.6 34.0 301.0 33.6 300.5 33.3 C 300.3 33.3 300.5 33.5 299.7 33.0 C 298.8 32.3 299.5 32.3 300.0 32.5 C 300.0 32.7 303.1 34.6 301.2 33.6 C 301.2 33.6 301.2 33.6 301.2 33.6 Z M 225.6 8.3 C 223.0 7.8 225.4 8.6 222.8 8.1 C 222.9 7.9 222.6 7.6 224.3 7.9 C 224.4 8.0 225.4 8.2 225.6 8.3 C 225.6 8.3 225.6 8.3 225.6 8.3 Z M 173.1 135.4 C 173.1 135.5 175.0 135.4 174.6 135.7 C 173.6 135.7 172.7 135.7 171.7 135.7 C 171.5 135.6 171.8 135.4 173.1 135.4 C 173.1 135.4 173.1 135.4 173.1 135.4 Z M 268.6 119.5 C 271.4 118.8 274.0 117.5 273.3 118.0 C 274.3 117.9 271.7 119.3 271.7 119.0 C 271.3 118.9 266.6 120.2 268.6 119.5 C 268.6 119.5 268.6 119.5 268.6 119.5 Z M 82.1 124.0 C 85.0 124.9 84.6 124.1 86.5 124.9 C 85.8 124.8 85.5 124.8 85.2 124.8 C 85.7 124.9 86.5 125.1 86.5 125.1 C 85.0 124.8 83.3 124.5 82.1 124.0 C 82.1 124.0 82.1 124.0 82.1 124.0 Z M 128.2 4.1 C 128.8 4.1 129.0 4.0 129.0 3.9 C 131.2 3.7 131.1 3.6 132.5 3.6 C 132.6 3.9 130.7 3.9 129.0 4.1 C 128.9 4.1 128.4 4.2 128.2 4.1 C 128.2 4.1 128.2 4.1 128.2 4.1 Z M 191.4 4.2 C 191.4 4.0 190.1 3.9 192.2 4.0 C 194.5 4.4 192.4 4.5 190.0 4.5 C 190.0 4.6 189.9 4.7 189.9 4.8 C 190.9 4.8 191.5 4.9 192.1 5.0 C 192.5 4.7 194.1 5.4 197.8 5.5 C 196.0 5.5 197.9 6.0 195.6 5.7 C 196.2 5.9 194.6 5.8 194.9 6.0 C 195.8 5.9 198.3 6.2 197.7 5.8 C 199.0 5.9 199.9 6.0 200.5 6.2 C 201.4 6.5 198.3 6.0 199.1 6.4 C 199.8 6.4 200.0 6.5 200.5 6.6 C 200.6 6.5 200.4 6.3 201.2 6.4 C 203.5 6.7 200.8 6.6 204.0 7.0 C 204.2 6.8 203.3 6.7 203.3 6.6 C 204.8 6.6 204.7 6.8 206.1 6.8 C 206.4 7.0 205.1 6.9 206.1 7.0 C 207.0 6.8 209.0 7.6 211.0 7.5 C 209.7 6.8 211.3 7.7 213.2 7.4 C 213.5 7.6 212.2 7.7 213.8 7.9 C 213.3 7.3 219.5 8.2 214.6 7.1 C 217.2 7.4 218.1 7.1 216.1 6.7 C 220.6 7.5 219.2 7.0 220.9 7.2 C 222.7 7.5 220.0 7.2 220.9 7.5 C 219.0 7.2 219.5 7.4 218.1 7.1 C 218.1 7.2 217.8 7.2 217.4 7.2 C 219.3 7.3 221.4 8.0 220.0 8.1 C 219.1 7.9 220.0 7.8 218.7 7.6 C 219.2 8.0 217.4 7.3 217.3 7.5 C 218.1 8.0 215.4 7.9 218.0 8.3 C 218.0 8.1 218.0 8.0 218.0 7.9 C 218.7 8.0 219.4 8.1 220.0 8.2 C 220.6 8.5 220.1 8.6 220.7 8.8 C 221.8 8.9 222.4 9.0 222.8 8.9 C 221.4 8.6 219.8 8.2 222.1 8.5 C 221.2 8.8 225.3 9.1 223.4 9.1 C 225.9 9.7 227.2 9.5 227.4 9.8 C 228.7 10.1 227.9 9.7 229.5 10.0 C 231.9 10.6 231.6 10.2 234.8 11.0 C 235.3 10.7 235.1 11.2 236.1 11.4 C 236.2 11.3 236.2 11.1 236.2 11.0 C 237.3 11.4 239.9 12.1 242.7 12.5 C 243.4 12.7 242.8 12.8 244.6 13.1 C 246.5 13.2 248.7 14.1 251.0 14.4 C 251.1 14.6 252.6 15.0 253.5 15.1 C 253.8 15.3 252.6 15.3 254.0 15.7 C 255.0 15.7 253.4 15.2 255.3 15.6 C 255.1 15.8 257.2 15.9 257.2 16.2 C 256.6 16.1 255.9 16.0 255.3 15.9 C 256.1 16.2 255.8 16.2 256.5 16.4 C 256.4 16.1 257.9 16.8 258.3 17.0 C 258.3 16.8 258.5 16.8 259.0 16.8 C 260.1 17.2 260.9 17.4 261.5 17.5 C 262.8 18.0 260.6 17.4 262.0 17.9 C 262.8 17.5 263.9 18.6 266.8 19.1 C 267.4 19.5 268.5 20.0 270.2 20.6 C 270.5 20.5 268.6 20.0 268.6 19.8 C 271.1 20.7 268.2 19.5 269.8 20.1 C 271.6 20.8 273.0 21.3 274.5 21.9 C 276.0 22.5 277.2 23.0 280.1 24.4 C 280.1 24.2 284.7 26.0 284.6 26.1 C 283.4 25.6 286.9 27.4 288.6 28.3 C 289.2 28.2 292.0 29.2 292.3 29.1 C 292.8 29.6 292.6 29.5 292.7 30.0 C 295.5 31.6 297.1 32.1 298.5 33.4 C 298.5 33.2 299.7 33.9 300.7 34.5 C 300.4 34.5 299.7 34.2 299.1 34.0 C 300.4 34.8 300.6 35.0 301.7 35.8 C 303.2 36.0 304.5 37.9 305.8 38.0 C 307.4 39.3 307.0 39.2 308.5 40.4 C 308.5 40.3 308.7 40.3 309.2 40.6 C 308.2 39.9 307.4 39.5 306.9 38.8 C 309.3 40.5 303.0 35.0 307.0 37.6 C 307.0 37.8 306.6 37.7 307.3 38.3 C 309.5 39.9 308.4 38.7 307.5 38.1 C 309.0 39.1 310.4 40.3 309.5 39.2 C 312.7 41.7 310.5 40.2 311.5 41.2 C 316.9 45.7 322.2 51.9 324.7 59.0 C 325.1 59.1 326.0 63.0 326.1 64.3 C 326.7 66.3 326.9 68.4 326.6 69.0 C 326.9 69.4 326.4 71.5 326.7 71.7 C 326.7 70.8 326.8 70.3 326.8 71.2 C 326.6 74.1 325.4 78.4 325.0 80.2 C 324.4 81.1 323.7 83.0 323.2 84.3 C 322.9 84.4 323.4 83.4 322.9 84.2 C 323.0 84.5 321.6 87.2 321.0 87.8 C 321.6 87.0 321.8 86.0 321.1 87.1 C 321.2 87.2 320.3 88.5 320.7 88.3 C 319.5 89.9 318.9 90.9 317.7 92.2 C 318.5 91.1 319.0 90.3 319.0 90.0 C 318.3 91.1 317.8 91.9 317.0 92.5 C 317.5 92.5 316.0 93.9 314.6 95.5 C 314.1 95.9 313.7 96.1 312.5 97.3 C 312.0 98.0 314.6 95.6 313.2 97.0 C 313.1 96.9 311.7 98.1 312.2 98.0 C 310.4 99.5 309.4 100.5 307.7 101.5 C 309.8 100.0 308.1 100.9 307.5 101.3 C 307.1 101.6 306.4 102.1 306.4 102.2 C 306.5 102.3 307.5 101.5 307.7 101.5 C 306.2 102.5 306.0 103.1 305.3 103.3 C 306.0 102.8 306.0 102.6 305.2 103.2 C 305.3 103.6 300.5 106.5 302.0 105.3 C 302.1 105.4 303.8 104.2 303.9 104.0 C 303.4 104.2 300.8 106.1 301.2 105.5 C 302.8 104.5 302.7 104.7 304.5 103.4 C 304.6 103.2 305.5 102.4 306.1 101.8 C 303.5 103.8 302.9 104.5 302.4 104.5 C 301.1 105.4 302.1 105.1 299.8 106.4 C 296.6 108.3 299.1 106.5 298.3 106.9 C 295.5 108.7 296.5 108.5 297.9 108.0 C 295.6 109.3 294.9 109.9 291.9 111.4 C 292.0 111.2 292.4 110.9 293.4 110.2 C 293.5 110.3 296.0 109.1 295.7 109.1 C 295.3 108.9 293.3 109.8 290.0 111.4 C 291.0 111.4 291.0 111.2 287.7 112.8 C 288.4 112.8 286.0 113.5 286.0 113.7 C 286.2 113.8 287.4 113.2 288.6 112.6 C 288.5 112.8 288.2 113.1 287.1 113.7 C 286.3 113.9 285.8 114.3 283.6 115.2 C 283.4 115.1 284.9 114.3 285.2 114.1 C 284.0 114.6 283.8 114.8 282.6 115.4 C 281.5 115.6 281.4 115.3 281.4 114.9 C 282.7 114.3 284.8 113.3 283.1 113.9 C 288.1 111.7 283.0 114.4 284.9 113.5 C 286.8 112.3 285.9 113.2 289.1 111.7 C 290.0 111.2 290.3 111.0 290.6 110.7 C 290.4 110.8 288.5 111.4 290.5 110.4 C 291.0 110.3 292.1 109.9 293.7 109.1 C 293.6 109.0 290.4 110.6 293.6 108.9 C 295.1 108.0 293.9 109.1 296.0 107.9 C 295.9 107.8 296.5 107.5 296.6 107.3 C 293.7 109.1 297.1 106.9 295.0 107.9 C 297.5 106.3 295.6 107.9 297.2 106.9 C 297.2 106.7 300.0 105.3 299.9 105.0 C 299.0 105.8 296.9 107.0 297.1 106.6 C 298.9 105.5 306.5 100.1 303.8 102.5 C 304.8 101.6 309.5 97.4 309.3 97.8 C 307.9 99.0 308.0 99.1 307.9 99.4 C 310.5 97.0 311.9 96.0 314.1 93.2 C 311.4 95.9 313.2 93.6 311.4 95.0 C 310.6 95.7 309.5 96.7 309.4 96.9 C 309.9 96.8 311.0 95.6 311.4 95.1 C 311.6 95.2 311.7 95.4 311.9 95.6 C 308.5 98.4 306.6 100.1 304.8 101.3 C 306.3 100.2 301.6 103.2 303.4 101.9 C 304.2 101.4 306.1 100.1 307.6 99.0 C 307.5 98.9 307.5 98.8 307.4 98.8 C 308.1 98.3 308.9 97.5 308.9 97.4 C 307.1 99.1 305.8 99.7 304.5 100.9 C 304.5 100.9 304.4 100.9 304.4 100.8 C 304.0 101.1 303.7 101.3 303.8 101.2 C 304.5 100.7 305.4 100.0 305.5 99.8 C 303.9 100.9 303.5 100.9 301.7 102.1 C 301.9 101.6 299.4 103.0 301.9 101.1 C 302.5 101.0 303.9 100.1 304.0 100.2 C 304.8 99.8 306.2 98.6 306.8 98.0 C 306.0 98.4 304.5 99.4 304.3 99.3 C 305.4 98.4 306.2 97.6 307.0 97.2 C 304.9 99.2 308.4 96.4 309.4 95.9 C 309.1 96.0 308.5 96.3 308.2 96.5 C 309.8 95.1 310.7 94.5 310.5 94.2 C 312.3 92.3 312.1 92.9 313.3 91.6 C 312.3 92.2 313.9 90.7 312.9 91.3 C 314.8 89.2 313.7 90.9 314.3 90.2 C 314.9 89.5 314.9 89.3 315.3 88.7 C 316.2 87.9 317.6 85.9 318.0 85.8 C 318.6 84.9 318.7 84.9 319.2 84.0 C 319.3 83.7 319.3 83.4 319.5 83.0 C 319.7 82.9 320.1 82.3 320.1 82.1 C 318.6 84.3 318.9 83.6 317.1 85.9 C 317.1 86.1 316.9 86.5 317.3 86.0 C 316.2 87.7 315.7 88.1 314.5 89.6 C 314.2 89.6 313.8 89.7 312.7 91.1 C 312.8 90.7 312.5 91.0 312.9 90.4 C 313.6 89.8 314.5 88.9 315.3 88.0 C 315.3 87.8 315.1 87.9 315.4 87.4 C 315.9 87.0 316.5 86.3 316.8 85.6 C 316.9 85.7 316.8 85.9 316.7 86.2 C 318.3 84.1 317.5 84.7 318.6 83.1 C 318.3 83.2 317.7 84.3 318.0 83.3 C 318.9 81.8 319.1 81.5 319.5 80.8 C 319.5 80.6 319.4 80.7 319.6 80.2 C 320.2 79.2 318.9 82.9 320.1 81.0 C 320.0 80.8 320.8 78.9 321.1 78.7 C 321.0 79.4 320.3 80.4 320.4 80.6 C 321.9 77.1 321.1 80.7 322.2 77.1 C 322.1 77.0 322.0 77.0 321.9 77.0 C 321.5 78.4 321.3 78.4 321.1 78.2 C 320.6 79.5 320.1 79.8 319.8 80.9 C 319.6 80.3 320.3 79.9 320.8 78.6 C 320.5 78.6 320.1 79.7 319.8 79.8 C 321.2 77.0 321.0 76.3 321.8 73.7 C 321.4 74.3 321.9 72.1 321.7 72.3 C 321.5 74.7 320.9 73.6 320.8 73.9 C 320.5 75.4 321.1 74.9 321.0 75.8 C 320.7 76.2 320.6 75.9 320.3 75.6 C 320.7 74.3 320.6 74.5 320.7 73.4 C 321.0 72.6 321.6 71.9 321.5 73.1 C 321.5 72.9 321.5 71.1 321.7 71.0 C 321.6 72.7 321.9 70.8 321.9 71.8 C 322.2 70.5 321.8 68.1 321.8 66.5 C 321.7 66.6 321.6 66.0 321.4 66.1 C 321.9 67.7 321.4 68.1 321.4 69.6 C 321.4 69.0 321.3 69.3 321.2 69.6 C 321.3 68.1 321.0 67.3 321.0 66.2 C 321.0 66.2 320.9 66.2 320.8 66.2 C 320.7 64.3 320.6 64.6 320.0 63.2 C 320.0 62.6 320.6 63.3 320.9 63.4 C 320.6 62.8 319.8 60.2 320.1 61.8 C 319.5 60.3 320.0 60.5 319.3 59.0 C 319.1 59.1 319.7 60.5 319.2 60.1 C 318.5 58.7 319.2 59.4 318.4 58.3 C 318.6 58.2 318.8 58.1 318.1 56.9 C 318.4 57.8 318.0 56.8 317.6 56.5 C 317.9 57.1 318.1 57.6 318.2 57.9 C 317.1 55.7 316.8 55.3 315.5 53.6 C 316.2 54.0 315.6 53.0 316.5 54.1 C 315.6 53.1 314.8 51.5 314.2 51.0 C 314.7 51.8 315.5 52.9 315.7 53.4 C 313.1 49.9 311.1 48.3 308.1 45.1 C 308.6 45.6 309.4 46.4 309.5 46.4 C 309.2 46.0 308.6 45.5 308.6 45.4 C 309.8 46.5 310.8 47.5 311.4 48.0 C 312.3 49.0 310.8 47.6 311.7 48.6 C 311.9 48.7 313.5 50.6 313.1 49.7 C 311.5 48.2 310.0 46.4 309.5 45.4 C 307.5 44.2 309.2 45.6 306.9 44.4 C 307.1 44.3 306.7 43.9 306.1 43.4 C 306.5 44.1 304.1 42.0 303.8 41.8 C 304.9 42.4 308.5 45.1 306.9 43.4 C 307.3 44.5 302.7 40.0 303.5 41.1 C 301.0 39.3 302.1 39.7 300.5 39.0 C 300.4 38.9 300.7 38.9 300.0 38.4 C 299.2 37.9 298.9 37.8 298.6 37.7 C 302.3 40.2 301.0 39.8 303.2 41.4 C 302.8 41.1 302.5 40.9 302.6 41.0 C 302.5 41.1 302.5 41.1 301.9 40.7 C 302.0 40.3 300.0 39.5 299.6 38.9 C 300.4 39.4 301.1 39.9 300.9 39.6 C 297.9 37.6 298.7 37.6 294.0 34.8 C 295.3 35.7 293.4 34.7 291.7 33.8 C 289.2 32.4 290.4 32.6 287.2 31.0 C 287.3 31.7 284.0 29.3 279.7 27.9 C 279.9 27.9 278.7 27.2 277.3 26.6 C 275.8 25.9 275.1 25.7 274.7 25.7 C 274.6 25.6 273.4 25.1 272.5 24.8 C 272.4 24.6 273.4 24.9 272.6 24.6 C 271.8 24.3 272.4 24.8 271.4 24.5 C 270.2 24.0 270.5 23.8 268.7 23.2 C 268.6 23.3 269.6 23.6 268.6 23.5 C 267.0 22.8 265.6 22.3 266.8 23.0 C 264.4 22.2 265.7 22.2 263.4 21.5 C 264.1 21.8 264.0 21.9 262.8 21.5 C 262.0 21.1 262.0 21.0 261.7 20.8 C 261.0 20.7 261.2 20.8 259.3 20.2 C 259.3 20.3 259.2 20.4 259.2 20.5 C 258.3 20.2 257.0 19.9 256.8 19.7 C 258.5 20.2 258.0 19.9 258.7 20.0 C 257.1 19.5 254.0 18.3 256.3 19.3 C 254.0 18.8 255.2 18.8 253.3 18.3 C 254.4 18.9 253.4 18.4 251.4 17.9 C 251.5 18.2 250.2 17.6 248.9 17.3 C 249.1 17.5 248.7 17.6 247.6 17.3 C 247.7 17.2 247.0 17.0 245.8 16.7 C 245.7 16.8 248.4 17.6 245.7 16.9 C 244.5 16.5 244.6 16.3 242.6 15.8 C 242.2 15.5 244.4 16.1 244.0 15.7 C 242.3 15.6 241.9 15.3 239.5 14.7 C 240.3 15.3 234.6 14.3 237.4 15.1 C 236.6 14.9 235.3 15.0 234.8 14.6 C 235.7 14.7 234.1 14.2 234.2 14.2 C 233.0 14.0 230.4 13.4 230.3 13.5 C 232.8 13.9 232.7 14.2 233.5 14.4 C 229.8 13.9 226.6 13.2 226.9 13.0 C 226.9 13.1 226.3 13.0 226.2 13.0 C 227.5 13.2 228.3 13.8 226.8 13.6 C 227.2 13.4 226.1 13.1 224.9 12.8 C 224.8 13.1 219.9 11.9 220.8 12.4 C 222.8 12.5 224.3 13.1 222.8 13.1 C 221.6 12.6 218.9 12.1 219.5 12.0 C 218.8 12.0 218.1 11.9 217.4 11.9 C 216.8 12.1 218.3 12.3 218.0 12.4 C 217.1 12.3 215.5 12.1 215.3 12.0 C 218.1 12.3 214.0 11.6 216.8 11.8 C 215.1 11.6 214.7 11.4 213.3 11.2 C 213.3 11.3 212.8 11.2 212.7 11.3 C 213.9 11.3 215.1 11.6 214.7 11.8 C 212.2 11.5 212.7 11.3 210.6 11.0 C 210.0 11.1 207.1 11.1 205.7 10.8 C 208.5 11.1 205.5 10.6 207.2 10.7 C 209.6 11.1 210.3 11.0 211.3 10.9 C 210.2 10.6 208.2 10.3 207.9 10.5 C 209.2 10.7 209.2 10.6 210.0 10.6 C 209.9 10.8 209.5 10.8 208.5 10.8 C 207.4 10.5 204.8 10.4 206.5 10.2 C 204.8 10.2 202.8 9.7 201.0 9.7 C 203.0 10.0 204.5 10.2 205.1 10.5 C 203.4 10.4 201.7 10.0 201.6 10.1 C 201.8 10.4 204.5 10.6 205.0 10.8 C 202.8 10.8 199.6 9.8 202.2 10.6 C 201.0 10.4 199.3 10.3 198.8 10.1 C 200.3 10.2 198.7 9.7 198.1 9.6 C 196.8 9.5 195.8 9.5 195.3 9.6 C 197.3 9.6 198.7 10.1 197.4 10.0 C 197.0 9.8 196.6 10.0 196.0 10.0 C 195.9 9.8 193.6 9.7 193.2 9.6 C 193.3 9.7 194.4 9.8 194.6 9.9 C 193.3 9.9 191.3 10.1 190.4 9.7 C 191.2 9.7 192.4 9.8 192.4 9.8 C 188.8 9.1 187.7 8.8 183.3 8.4 C 183.9 8.4 184.2 8.4 184.0 8.3 C 181.3 8.1 179.5 7.9 179.8 7.8 C 178.1 7.8 177.2 7.9 176.3 8.0 C 178.1 8.2 178.7 8.0 179.8 8.2 C 179.1 8.2 181.2 8.7 181.9 8.9 C 185.0 8.8 185.2 9.2 188.3 9.2 C 187.4 9.4 190.5 9.4 189.6 9.6 C 186.8 9.1 184.0 9.2 179.8 8.9 C 180.3 8.7 180.8 8.6 179.1 8.4 C 176.4 8.2 177.7 8.6 175.5 8.4 C 174.6 8.2 175.9 8.2 174.8 8.1 C 174.1 8.2 172.0 8.1 171.3 7.9 C 174.2 7.9 170.7 7.6 172.7 7.6 C 171.7 7.6 171.2 7.5 170.5 7.5 C 173.4 7.8 167.7 7.8 169.8 8.0 C 165.9 8.1 169.6 7.4 166.3 7.4 C 167.9 7.6 165.8 7.7 163.4 7.7 C 162.8 7.4 160.4 7.4 158.4 7.3 C 159.5 7.5 160.2 7.5 158.4 7.6 C 159.4 7.7 161.1 7.7 162.0 7.6 C 162.0 7.7 162.3 7.8 162.7 7.8 C 160.4 7.9 161.3 8.0 160.6 8.1 C 159.9 8.0 158.2 8.0 157.7 7.9 C 157.7 8.0 157.1 8.0 157.0 8.0 C 160.0 8.0 156.6 8.4 158.4 8.4 C 159.8 8.4 158.9 8.1 160.6 8.2 C 162.2 8.4 159.3 8.5 158.4 8.7 C 159.8 8.9 161.5 8.6 162.0 8.9 C 160.2 9.2 157.3 9.0 154.9 9.0 C 155.1 9.3 151.0 9.0 150.6 9.4 C 150.3 9.3 149.9 9.3 149.2 9.2 C 148.6 9.5 147.8 9.2 147.1 9.2 C 147.0 9.4 147.2 9.5 147.8 9.5 C 144.9 9.5 144.2 9.6 140.8 9.9 C 140.2 9.8 139.6 9.7 139.3 9.5 C 140.1 9.4 140.9 9.3 141.4 9.2 C 136.8 9.5 139.8 10.0 136.5 9.8 C 136.7 9.9 138.9 10.0 137.2 10.2 C 134.3 10.1 130.1 10.8 130.2 10.1 C 127.6 10.1 125.9 10.7 124.6 10.5 C 123.8 10.6 123.6 10.7 123.2 10.8 C 124.1 10.9 125.1 10.9 126.1 10.9 C 127.6 10.7 128.3 10.8 126.8 10.6 C 129.1 10.4 129.7 10.5 130.9 10.5 C 127.8 10.9 124.8 11.0 124.7 11.4 C 123.6 11.4 122.8 11.3 121.9 11.2 C 121.6 11.4 118.1 11.9 117.8 11.7 C 120.2 11.5 122.6 10.9 120.5 11.0 C 114.6 11.9 111.3 11.9 106.2 12.9 C 106.1 12.8 106.4 12.6 105.5 12.7 C 105.5 12.9 105.4 13.0 104.8 13.2 C 103.3 13.4 102.4 13.5 100.2 13.9 C 100.3 13.6 100.0 13.5 98.8 13.7 C 98.2 14.0 96.2 14.9 95.0 15.0 C 96.2 14.8 94.5 14.8 93.6 15.0 C 94.4 15.2 87.8 15.9 89.7 15.9 C 87.1 16.4 86.0 16.6 85.9 16.5 C 85.0 16.7 84.3 17.0 83.4 17.2 C 82.8 17.0 78.4 18.4 77.8 18.4 C 79.3 18.1 79.5 17.7 78.3 18.0 C 77.5 18.4 73.6 19.7 72.9 19.8 C 73.1 19.7 73.3 19.4 75.2 18.8 C 72.0 19.6 72.1 20.0 71.1 20.5 C 71.1 20.2 69.8 20.9 69.3 21.1 C 68.3 21.2 69.4 21.0 69.2 20.8 C 68.1 21.1 67.7 21.1 66.2 21.5 C 66.7 21.7 65.1 22.0 64.5 22.2 C 64.3 22.4 63.6 22.8 62.3 23.3 C 63.9 22.3 55.0 25.4 57.2 24.9 C 55.5 25.8 55.4 25.3 53.3 26.2 C 52.9 26.5 51.6 26.9 52.8 26.6 C 52.0 27.0 51.1 27.3 50.7 27.4 C 50.4 27.4 49.9 27.6 48.3 28.3 C 49.8 28.0 45.1 29.7 46.0 29.7 C 44.4 29.9 42.1 31.7 39.5 32.6 C 39.6 32.7 38.9 33.0 38.8 33.2 C 38.5 33.5 41.8 31.8 39.7 33.0 C 37.0 34.1 38.4 33.3 38.0 33.4 C 31.3 37.2 24.4 41.7 19.8 45.9 C 20.4 45.5 20.4 45.6 19.5 46.5 C 17.9 47.4 13.7 52.6 13.3 53.5 C 12.7 53.8 11.3 56.5 10.9 56.9 C 11.2 56.4 11.6 55.3 11.0 56.4 C 10.8 57.2 10.2 58.1 9.9 59.2 C 9.4 59.6 8.5 62.9 8.5 61.3 C 8.3 61.9 8.1 62.2 8.0 62.6 C 8.3 62.7 8.0 63.4 8.5 62.3 C 7.4 65.1 7.6 65.9 7.2 68.1 C 7.3 68.5 7.6 66.8 7.5 68.1 C 7.5 68.1 7.4 68.1 7.3 68.1 C 7.3 68.6 7.4 68.7 7.3 69.0 C 7.2 68.9 7.2 68.1 7.0 68.1 C 7.0 69.2 6.6 69.9 6.9 70.3 C 6.9 68.8 7.3 69.8 7.1 70.7 C 7.0 69.9 7.5 74.3 8.0 75.7 C 7.8 76.4 7.6 74.1 7.4 74.3 C 8.0 77.0 7.9 76.8 8.3 77.0 C 8.6 78.4 8.7 79.0 9.6 80.6 C 9.9 81.6 9.1 80.1 9.5 81.1 C 9.9 81.7 10.1 81.9 10.7 82.8 C 11.5 85.5 16.5 90.6 18.7 93.8 C 17.7 92.6 19.2 93.9 20.8 95.3 C 20.8 95.5 20.6 95.4 21.1 95.9 C 21.2 95.7 21.7 96.1 22.9 97.1 C 22.9 97.2 22.6 97.2 23.2 97.7 C 23.9 97.8 25.2 99.2 26.2 99.7 C 26.4 100.2 24.0 98.2 23.7 98.3 C 26.5 100.6 27.2 100.8 29.6 102.5 C 28.3 101.7 30.4 103.3 30.8 103.6 C 30.4 103.0 32.5 104.2 31.1 103.1 C 32.0 103.8 33.6 104.6 33.7 104.9 C 33.2 104.6 32.3 104.0 32.3 104.1 C 33.6 104.8 35.1 106.0 35.8 106.2 C 34.9 105.6 34.4 105.2 34.5 105.1 C 34.9 105.2 35.4 105.4 36.1 105.7 C 33.7 105.1 40.0 108.2 40.4 108.2 C 40.9 108.9 41.3 109.1 40.9 109.1 C 43.7 110.5 43.4 110.1 45.2 110.8 C 44.6 110.8 43.9 110.8 46.5 112.1 C 46.1 111.6 49.4 113.1 48.6 112.3 C 55.8 115.3 55.5 115.4 58.3 116.4 C 58.4 116.4 57.5 116.0 58.3 116.3 C 59.6 116.8 60.8 117.3 61.6 117.8 C 62.4 117.8 61.4 117.4 62.3 117.7 C 64.3 118.6 63.7 118.7 65.6 119.5 C 68.0 120.1 67.1 119.9 68.6 120.1 C 68.0 119.9 67.2 119.6 68.1 119.8 C 69.4 120.5 70.0 120.9 70.3 121.1 C 69.2 120.8 68.4 120.5 67.9 120.3 C 67.5 120.3 66.1 119.9 67.3 120.4 C 65.8 119.9 64.1 119.3 62.0 118.6 C 62.6 119.1 60.1 118.0 60.7 118.5 C 63.1 119.3 63.6 119.6 65.9 120.3 C 65.5 119.9 67.9 120.8 68.3 121.0 C 68.4 120.8 70.0 121.4 69.7 121.0 C 71.5 121.5 71.4 121.7 73.2 122.2 C 73.3 122.3 73.1 122.4 73.8 122.6 C 74.5 122.5 75.0 123.0 75.6 123.2 C 75.3 122.8 77.9 123.7 78.2 123.5 C 77.5 123.3 76.4 123.1 76.3 122.9 C 79.3 123.8 77.0 122.9 76.4 122.6 C 76.5 122.7 75.3 122.7 75.2 122.5 C 77.7 123.0 71.8 121.1 74.0 121.8 C 75.9 122.4 75.8 122.2 77.7 122.7 C 79.9 123.8 77.1 123.3 79.4 124.2 C 80.8 124.4 81.8 124.7 82.0 124.5 C 82.3 124.7 82.6 124.8 83.1 125.0 C 83.8 125.0 81.4 124.3 83.2 124.7 C 84.2 125.0 83.0 125.1 85.1 125.5 C 86.0 125.5 82.6 124.6 84.5 125.0 C 86.4 125.8 84.1 124.8 86.4 125.3 C 86.6 125.4 87.0 125.5 87.7 125.7 C 87.8 125.8 87.5 125.9 88.3 126.1 C 88.8 125.8 89.1 126.5 90.9 126.8 C 91.9 126.7 89.1 126.2 89.7 126.1 C 91.6 126.8 92.8 126.7 93.5 126.9 C 91.9 126.8 96.0 127.6 96.1 127.8 C 95.7 127.4 96.6 127.8 98.9 127.9 C 98.9 128.4 101.6 128.5 102.1 129.0 C 102.5 128.9 103.1 129.0 103.5 128.9 C 102.7 128.7 101.9 128.6 102.2 128.5 C 102.8 128.6 103.5 128.7 104.2 128.9 C 105.3 129.2 102.3 129.3 106.8 129.9 C 106.3 129.5 108.3 129.8 109.5 129.8 C 109.4 129.6 107.8 129.6 107.6 129.4 C 109.1 129.4 110.7 129.9 111.6 130.1 C 114.3 130.4 117.4 131.0 121.3 131.3 C 122.1 131.6 118.0 131.1 120.6 131.5 C 121.6 131.7 121.1 131.4 122.6 131.6 C 121.1 132.5 133.1 132.8 133.8 133.3 C 134.3 133.1 137.7 133.5 137.4 133.2 C 135.1 133.2 133.5 132.8 132.4 132.6 C 130.3 132.5 134.4 133.0 132.4 132.9 C 132.2 132.7 129.3 132.6 129.6 132.4 C 132.6 132.6 128.1 132.0 130.4 132.0 C 133.2 132.3 138.8 132.4 137.4 132.6 C 137.4 132.5 136.2 132.4 136.0 132.5 C 139.2 132.9 141.1 132.8 142.4 132.7 C 143.9 133.0 149.6 132.9 148.1 133.0 C 148.6 133.2 144.7 132.8 145.2 133.0 C 151.1 133.4 151.3 133.2 155.2 133.4 C 153.9 133.1 159.3 133.1 158.8 133.2 C 158.8 133.4 160.0 133.6 162.4 133.4 C 162.0 133.6 163.3 133.7 164.5 133.8 C 165.1 133.6 163.5 133.6 163.8 133.4 C 164.9 133.4 166.2 133.4 167.4 133.4 C 167.5 133.5 167.2 133.6 168.1 133.6 C 169.4 133.5 174.2 133.1 173.8 133.3 C 171.8 133.7 177.1 133.5 173.8 133.8 C 174.7 133.8 174.8 133.9 176.0 133.8 C 176.0 133.7 176.0 133.6 176.0 133.5 C 178.6 133.4 177.3 133.8 179.5 133.8 C 179.7 133.6 180.7 133.6 181.0 133.5 C 180.1 133.5 180.0 133.6 178.8 133.6 C 180.1 133.2 176.5 133.5 176.7 133.2 C 179.2 133.1 179.2 133.3 180.2 133.4 C 183.3 133.1 181.9 133.3 185.2 133.2 C 185.2 133.1 184.3 133.1 184.5 133.0 C 188.5 132.9 188.1 133.4 190.9 133.0 C 190.3 133.1 187.8 133.4 189.5 133.3 C 191.4 133.1 191.9 132.8 194.4 132.6 C 194.5 132.7 194.3 132.8 195.2 132.8 C 196.2 132.6 196.3 132.4 197.2 132.2 C 197.4 132.3 198.8 132.1 199.3 132.0 C 200.2 132.1 199.0 132.3 200.1 132.3 C 202.2 132.1 203.2 131.4 204.9 131.3 C 204.9 131.6 206.8 131.3 208.4 131.1 C 208.7 131.4 212.3 130.9 214.7 130.6 C 214.1 130.5 216.5 130.2 216.0 130.1 C 214.8 130.2 214.2 130.2 213.9 130.2 C 216.6 129.8 217.5 130.2 219.4 129.5 C 220.4 129.5 221.7 129.5 223.5 129.3 C 223.7 129.1 220.3 129.5 222.1 129.2 C 222.3 129.2 222.9 129.1 223.4 129.0 C 223.2 129.3 224.7 129.1 225.6 129.1 C 227.1 128.6 230.4 128.4 228.9 128.4 C 231.3 127.9 229.8 128.6 231.7 128.3 C 230.6 128.1 233.8 127.5 232.2 127.6 C 234.7 127.0 234.6 127.5 233.6 127.8 C 235.9 127.4 236.4 127.1 237.5 127.0 C 236.4 127.0 239.9 126.1 238.1 126.7 C 237.6 127.0 240.2 126.3 240.8 126.3 C 239.9 126.3 241.1 126.1 239.4 126.3 C 241.1 125.9 243.6 125.3 245.2 125.2 C 247.3 124.5 249.3 124.0 248.4 124.5 C 250.4 123.9 249.6 124.1 251.6 123.7 C 251.6 123.6 251.0 123.7 250.9 123.7 C 253.5 123.0 253.1 123.3 256.5 122.3 C 256.2 122.7 258.4 122.1 259.1 122.1 C 257.7 122.5 256.5 122.7 255.3 123.0 C 255.1 123.2 256.3 122.9 255.4 123.2 C 255.3 123.1 254.7 123.3 254.2 123.4 C 256.5 123.0 251.4 124.6 252.9 123.9 C 253.0 123.9 253.1 123.9 253.6 123.8 C 253.1 123.7 253.1 123.8 253.5 123.4 C 252.3 123.8 251.3 123.7 251.0 124.1 C 251.1 124.2 252.2 123.8 252.3 123.9 C 249.5 124.8 251.4 123.8 249.1 124.5 C 248.7 124.8 249.9 124.6 250.5 124.6 C 248.4 125.2 246.6 125.6 246.0 125.6 C 244.1 126.1 246.2 125.7 244.8 126.2 C 244.1 126.2 244.1 126.0 242.8 126.3 C 241.4 126.7 243.7 126.3 242.2 126.7 C 240.6 126.9 243.2 126.1 240.8 126.6 C 241.5 126.8 238.7 127.0 238.9 127.2 C 240.3 126.8 240.4 127.2 239.6 127.1 C 236.4 127.4 234.3 128.8 231.0 128.8 C 231.0 128.9 230.5 129.0 230.4 129.1 C 232.8 128.8 236.4 128.1 237.1 128.4 C 239.0 127.9 238.7 127.7 239.0 127.5 C 241.3 127.4 241.1 127.5 239.8 128.1 C 236.1 129.0 234.4 129.1 231.9 129.5 C 230.5 129.9 232.0 129.5 232.6 129.6 C 224.7 130.8 230.8 130.4 227.9 130.8 C 228.0 130.7 227.4 130.7 226.6 130.8 C 226.6 130.9 225.4 131.1 225.2 131.2 C 225.8 131.1 226.0 131.1 225.9 131.2 C 223.9 131.6 224.7 131.3 224.5 131.1 C 226.1 130.9 227.0 130.7 227.2 130.5 C 225.3 131.0 223.7 131.0 222.5 131.5 C 220.6 131.4 223.4 130.6 222.3 130.5 C 222.6 130.3 221.2 131.3 219.7 131.6 C 217.3 132.0 217.2 132.3 214.9 132.6 C 214.3 132.4 217.2 132.1 217.0 132.0 C 216.3 132.1 216.2 132.0 215.5 132.1 C 213.9 132.3 214.1 132.5 212.8 132.7 C 212.1 132.6 211.7 132.8 210.8 133.0 C 209.2 133.1 211.7 132.7 210.0 132.8 C 208.3 133.0 207.1 133.5 206.6 133.5 C 206.4 133.4 206.7 133.2 205.9 133.3 C 203.9 133.7 203.4 133.8 205.9 133.6 C 203.7 133.8 202.8 134.0 203.1 134.2 C 206.4 134.0 207.2 133.8 208.8 134.0 C 209.4 133.6 210.3 133.7 211.6 133.6 C 210.8 133.3 213.0 133.4 213.6 133.1 C 212.8 133.2 212.0 133.2 211.5 133.2 C 215.0 132.8 214.9 132.9 217.7 132.1 C 217.7 132.2 218.0 132.2 218.4 132.2 C 217.5 132.5 215.0 132.7 215.0 133.0 C 217.0 133.0 217.6 132.4 219.8 132.4 C 220.7 132.1 218.0 132.4 219.8 132.1 C 220.7 132.2 221.8 132.1 223.2 132.0 C 224.7 131.7 225.4 131.5 226.6 131.2 C 226.7 131.3 226.9 131.3 228.0 131.1 C 227.9 131.0 226.8 131.2 228.0 130.9 C 231.6 130.6 233.9 130.4 237.4 129.5 C 236.2 129.7 233.3 130.0 234.7 129.7 C 236.3 129.6 238.3 128.8 240.0 128.7 C 240.5 128.7 238.0 129.0 238.7 129.3 C 240.2 129.0 241.2 128.8 242.0 128.7 C 241.9 128.5 243.7 128.2 243.2 128.1 C 241.9 128.4 241.6 128.7 241.3 128.7 C 242.2 127.8 246.1 127.8 248.4 127.3 C 250.0 126.8 247.2 127.3 249.0 126.8 C 250.1 126.4 250.8 126.8 249.1 127.3 C 247.9 127.5 247.5 128.0 247.2 127.7 C 246.7 127.9 245.9 128.0 245.9 128.1 C 246.8 127.9 246.7 128.1 247.3 128.1 C 246.0 128.3 245.9 128.8 244.7 128.8 C 245.5 128.6 245.7 128.5 246.0 128.4 C 242.6 129.2 241.4 129.3 239.4 129.6 C 240.5 129.5 239.4 129.7 239.5 129.9 C 241.0 129.5 243.9 129.0 242.1 129.5 C 240.9 129.4 240.1 130.4 238.9 130.3 C 239.8 130.1 239.6 130.0 240.1 129.8 C 238.8 130.1 238.8 129.9 237.5 130.2 C 233.2 131.4 229.8 131.4 222.7 133.0 C 220.3 133.4 225.0 132.6 224.7 132.4 C 224.0 132.5 223.9 132.5 223.3 132.5 C 223.3 132.8 222.1 132.7 221.3 133.1 C 221.4 132.8 218.1 133.6 216.4 133.6 C 216.4 133.7 216.6 133.8 215.8 133.9 C 210.7 134.2 201.4 135.7 197.5 135.7 C 197.7 135.9 195.9 136.0 195.4 136.2 C 192.9 136.4 194.0 136.1 190.4 136.6 C 188.6 136.7 190.8 136.4 191.1 136.3 C 185.7 136.8 180.9 136.7 177.5 137.1 C 175.7 137.3 177.5 137.0 173.9 137.0 C 173.8 137.3 168.2 136.9 167.4 137.3 C 165.2 137.4 161.3 136.9 163.0 137.2 C 160.1 137.3 162.1 136.9 160.9 136.9 C 158.8 136.9 161.5 137.5 159.5 137.5 C 159.7 137.3 157.9 137.3 156.6 137.1 C 158.2 137.1 159.2 137.1 159.5 137.0 C 158.1 137.1 158.1 136.9 155.9 136.9 C 154.2 137.0 149.3 137.1 147.9 136.7 C 147.9 136.8 148.3 136.8 148.6 136.9 C 147.2 136.9 145.6 136.5 145.8 136.9 C 142.5 136.7 141.2 136.4 139.3 136.5 C 137.9 136.5 139.8 136.3 135.7 136.0 C 135.6 136.3 128.4 135.6 126.5 135.2 C 126.4 135.6 126.0 135.2 125.1 135.1 C 125.0 135.2 125.2 135.3 124.4 135.3 C 124.2 135.2 123.6 135.1 123.0 135.1 C 123.5 134.8 120.4 134.9 120.2 134.6 C 120.8 134.7 120.8 134.5 120.2 134.4 C 120.0 134.7 117.1 133.9 117.4 134.1 C 118.0 134.3 120.0 134.5 119.4 134.6 C 116.7 134.4 117.8 134.2 116.0 134.0 C 116.1 134.1 117.2 134.3 116.0 134.2 C 114.1 133.9 115.8 134.2 114.7 133.8 C 113.6 133.7 111.8 133.6 111.1 133.6 C 111.3 133.6 110.7 133.3 110.5 133.3 C 106.9 132.7 98.9 131.6 95.6 130.7 C 95.3 130.7 94.6 130.6 94.8 130.8 C 92.9 130.3 93.0 130.4 90.9 129.9 C 90.9 130.0 90.9 130.1 90.9 130.2 C 88.2 129.8 90.7 129.8 88.9 129.5 C 88.6 130.0 88.0 129.1 86.4 128.7 C 86.2 128.8 85.4 128.7 85.6 128.9 C 83.1 128.3 83.4 128.0 81.2 127.6 C 81.7 127.7 81.9 128.6 81.6 128.8 C 81.2 128.5 80.6 128.3 79.7 128.0 C 80.9 128.1 80.5 127.0 77.4 126.5 C 79.1 126.9 79.7 127.2 79.2 127.3 C 76.9 126.7 76.2 126.3 74.2 125.8 C 73.9 125.9 75.3 126.4 74.7 126.5 C 74.2 126.4 74.0 126.4 74.1 126.5 C 72.0 125.9 72.0 125.7 69.7 125.2 C 69.8 125.0 70.3 125.1 71.0 125.5 C 70.9 125.2 71.0 125.0 72.3 125.4 C 72.5 125.6 71.6 125.6 73.5 126.1 C 73.5 125.9 73.6 125.8 73.6 125.7 C 72.2 125.3 69.0 124.2 68.7 124.2 C 69.3 124.5 70.4 124.8 69.8 124.9 C 67.5 124.2 66.9 123.7 65.1 123.0 C 61.8 122.0 56.2 120.0 56.8 120.6 C 54.9 119.8 55.6 120.0 53.9 119.3 C 54.3 119.8 52.0 118.7 52.1 119.0 C 54.2 119.7 53.5 119.5 55.6 120.2 C 55.5 120.3 55.1 120.3 54.3 120.1 C 54.2 119.9 53.4 119.5 52.1 119.0 C 52.3 119.2 53.4 119.9 52.0 119.3 C 51.9 119.2 51.5 119.1 50.9 118.8 C 50.9 118.7 51.0 118.6 51.0 118.5 C 51.8 118.7 52.8 119.0 53.4 119.1 C 52.8 118.9 52.7 118.8 52.2 118.6 C 52.1 118.6 51.8 118.5 50.7 118.1 C 49.7 117.6 48.7 117.2 48.5 117.3 C 50.0 117.9 50.9 118.4 49.3 117.8 C 49.1 117.6 46.6 116.5 45.7 116.2 C 48.8 117.7 47.6 117.2 49.2 118.1 C 45.5 116.7 46.1 116.6 42.2 114.9 C 42.2 114.7 42.3 114.5 43.3 114.9 C 41.0 113.3 35.4 110.9 33.7 109.9 C 34.9 110.6 36.4 111.0 34.6 110.1 C 34.6 110.1 33.3 109.4 33.0 109.3 C 32.2 109.4 33.6 110.5 34.8 111.4 C 33.4 110.7 33.1 110.6 31.8 109.8 C 31.4 109.4 33.0 109.9 31.4 108.9 C 30.8 109.1 28.4 107.2 27.7 107.1 C 28.8 107.7 29.4 108.3 28.3 107.6 C 28.6 107.6 26.3 106.3 26.4 106.1 C 28.2 107.2 28.8 107.3 29.9 108.0 C 28.5 107.1 31.1 108.5 28.7 106.9 C 27.5 106.4 26.8 106.3 24.5 104.6 C 23.6 104.0 24.6 104.3 23.4 103.5 C 23.6 103.9 21.1 102.1 22.7 103.1 C 21.9 102.4 21.5 102.1 21.0 101.7 C 22.0 102.7 16.5 98.6 17.2 99.4 C 17.4 99.2 17.4 98.7 17.2 98.4 C 16.0 97.8 15.0 96.6 12.8 94.2 C 12.6 94.5 12.4 93.8 11.5 92.8 C 11.2 92.7 11.9 93.6 11.3 92.9 C 10.3 91.7 10.3 91.6 10.2 91.3 C 9.6 90.4 9.1 89.7 8.8 89.3 C 8.7 89.3 8.8 89.6 9.0 89.9 C 6.8 86.3 5.5 84.7 4.4 81.6 C 4.8 83.0 5.2 83.1 4.8 82.1 C 4.5 81.5 4.2 80.9 4.0 80.6 C 4.1 81.4 4.1 81.0 3.6 79.5 C 3.0 78.2 3.4 80.2 3.0 79.1 C 2.8 77.9 3.1 78.6 3.0 77.9 C 2.9 77.4 2.7 76.8 2.6 76.3 C 2.7 77.3 2.3 76.3 2.1 75.3 C 2.5 76.0 2.4 75.5 2.1 73.6 C 2.2 73.4 2.4 74.4 2.3 73.6 C 2.3 73.2 1.8 71.7 2.0 70.4 C 2.0 70.8 2.1 71.0 2.2 70.9 C 1.9 69.5 2.3 68.4 2.5 67.1 C 2.2 68.4 2.1 67.7 1.9 68.2 C 2.2 66.9 2.1 65.4 2.6 64.4 C 2.2 66.2 3.1 64.6 3.3 63.4 C 3.1 63.1 2.8 65.1 2.6 64.4 C 2.5 63.8 3.2 62.4 3.2 61.7 C 3.0 61.8 3.0 62.6 2.8 62.8 C 3.0 61.8 2.6 63.1 2.8 62.2 C 3.2 61.7 3.0 61.1 3.2 60.5 C 3.5 59.9 4.3 58.6 4.4 58.0 C 4.3 57.9 4.0 58.9 3.8 59.0 C 4.8 56.0 5.6 55.3 6.9 52.6 C 7.1 52.4 7.5 51.9 8.1 51.2 C 7.9 51.2 8.2 50.7 8.5 50.1 C 9.4 49.1 10.3 48.1 11.5 46.8 C 11.5 47.2 11.0 47.8 12.6 46.1 C 12.6 45.9 11.9 46.6 12.5 45.9 C 12.5 46.0 13.0 45.6 13.0 45.4 C 12.9 45.4 12.9 45.4 12.9 45.3 C 12.4 45.8 12.0 46.3 11.5 46.8 C 11.5 46.6 11.3 46.7 10.9 47.1 C 12.6 44.8 12.9 45.3 14.1 43.8 C 14.6 43.8 15.1 43.4 14.2 44.8 C 15.3 43.5 16.1 42.6 16.3 42.1 C 14.8 43.6 15.1 42.9 14.6 43.2 C 15.5 42.3 15.4 42.2 15.9 41.7 C 17.2 40.8 15.0 43.1 17.3 41.1 C 15.3 42.4 18.6 39.6 19.9 38.7 C 19.6 38.7 19.2 39.1 19.8 38.5 C 23.1 35.6 23.4 36.5 25.4 34.6 C 25.3 34.9 26.4 34.1 26.9 33.9 C 25.0 35.2 24.5 35.6 23.8 36.2 C 23.9 36.2 24.5 35.9 25.1 35.5 C 25.0 35.4 25.5 35.0 26.4 34.5 C 26.9 34.0 26.4 33.8 27.9 32.6 C 28.1 32.6 28.0 32.9 28.8 32.4 C 29.4 31.7 28.3 33.1 31.8 30.9 C 31.1 31.2 30.7 31.3 30.9 31.0 C 32.5 29.9 32.2 30.2 34.6 28.8 C 35.6 28.7 33.2 30.1 32.6 30.7 C 34.2 29.8 35.4 28.8 37.2 28.1 C 35.8 28.6 37.0 27.8 38.5 26.9 C 40.0 26.3 38.6 27.3 40.4 26.5 C 41.7 25.7 42.4 25.2 41.0 25.7 C 44.1 24.3 43.3 24.4 46.1 23.2 C 46.2 23.3 45.4 23.7 44.4 24.1 C 44.6 24.1 44.3 24.3 45.3 23.9 C 46.2 23.4 47.6 22.7 49.1 22.0 C 50.7 21.3 51.6 20.9 52.3 20.6 C 54.9 20.0 57.7 18.4 60.4 17.7 C 59.4 18.3 63.9 16.6 65.3 16.4 C 66.1 16.1 68.4 14.8 67.6 15.3 C 67.9 15.5 69.5 14.9 70.8 14.7 C 70.7 14.6 70.7 14.5 70.7 14.4 C 73.4 13.6 74.1 13.7 75.1 13.6 C 78.5 12.5 82.3 11.9 86.6 10.7 C 87.7 10.7 88.7 10.4 91.3 10.1 C 91.2 9.8 93.2 9.4 95.2 9.1 C 94.7 8.9 96.5 8.6 96.5 8.5 C 94.7 8.8 95.3 8.4 94.4 8.5 C 96.8 8.3 97.9 7.6 99.8 7.5 C 97.5 8.0 96.8 8.5 96.6 8.9 C 99.3 8.3 100.8 8.1 101.3 8.3 C 101.5 8.0 101.1 8.0 100.5 8.0 C 101.5 7.8 102.4 7.7 103.2 7.5 C 103.5 7.6 102.3 7.9 103.3 7.8 C 103.9 7.6 104.6 7.4 105.3 7.2 C 106.1 7.3 104.3 7.6 104.0 7.7 C 107.7 7.2 106.0 7.0 108.0 6.6 C 108.6 6.7 108.5 7.0 110.2 6.8 C 110.8 6.5 111.0 6.3 112.9 6.0 C 114.1 5.9 112.8 6.4 114.3 6.2 C 114.5 6.1 115.1 6.0 115.7 6.0 C 115.6 5.9 116.2 5.7 117.0 5.6 C 117.2 5.7 118.6 5.5 119.1 5.3 C 119.3 5.5 121.5 5.5 121.9 5.3 C 121.9 5.2 120.7 5.3 120.6 5.3 C 122.1 5.1 123.2 5.0 124.0 4.8 C 124.6 5.3 127.1 4.6 130.4 4.6 C 132.4 4.2 130.0 4.2 132.5 3.8 C 134.1 3.9 132.2 4.1 132.6 4.3 C 133.0 4.3 135.3 4.3 135.4 4.1 C 135.4 4.0 134.1 4.1 134.0 4.0 C 135.9 3.7 135.8 4.0 136.9 4.0 C 136.7 3.8 138.0 3.7 138.2 3.5 C 143.4 3.0 143.3 3.5 145.4 3.6 C 145.4 3.5 146.7 3.4 146.8 3.3 C 145.4 3.5 143.4 3.4 145.4 3.3 C 145.1 3.4 148.1 3.1 148.3 3.0 C 147.9 2.9 146.0 3.1 146.8 2.8 C 149.5 2.6 148.4 3.1 150.5 2.8 C 150.7 2.9 149.5 3.0 149.0 3.1 C 149.8 3.1 151.0 3.0 151.2 3.1 C 150.1 3.2 150.1 3.4 149.7 3.5 C 151.1 3.3 153.6 3.4 151.9 3.2 C 154.8 3.1 157.5 2.9 155.5 2.7 C 157.8 2.6 156.5 3.0 158.4 2.8 C 158.1 3.0 157.6 3.2 159.1 3.4 C 159.4 3.2 160.7 3.2 160.5 3.0 C 164.0 2.9 165.0 3.2 166.4 3.4 C 165.1 3.0 166.8 3.4 168.5 3.1 C 169.5 3.2 168.5 3.5 171.4 3.5 C 168.3 3.1 174.9 3.5 173.5 3.0 C 177.1 3.3 177.1 3.3 180.8 3.5 C 180.4 3.7 179.5 3.7 177.9 3.7 C 179.0 3.5 174.7 3.4 175.0 3.6 C 175.0 3.6 175.0 3.7 175.0 3.7 C 177.7 3.8 179.6 3.9 180.7 4.1 C 181.3 3.9 182.6 3.9 182.2 3.6 C 184.7 4.0 187.5 3.7 188.7 4.1 C 187.7 4.0 186.9 4.0 187.2 4.1 C 188.2 4.1 189.5 4.2 189.4 4.0 C 187.3 3.8 186.9 3.7 185.8 3.8 C 186.7 3.7 183.7 3.4 185.8 3.4 C 185.7 3.8 190.1 3.5 188.7 3.7 C 186.4 3.7 191.2 4.0 191.4 4.2 C 191.4 4.2 191.4 4.2 191.4 4.2 Z M 238.1 130.0 C 240.1 129.5 237.6 129.8 236.1 130.1 C 236.6 130.1 236.8 130.1 236.8 130.3 C 237.4 130.1 237.9 130.0 238.1 130.0 C 238.1 130.0 238.1 130.0 238.1 130.0 Z M 216.0 130.2 C 215.4 130.6 218.7 130.0 220.1 129.8 C 219.7 129.8 219.2 129.8 220.1 129.6 C 218.6 129.6 218.1 130.1 216.0 130.2 C 216.0 130.2 216.0 130.2 216.0 130.2 Z M 137.4 133.6 C 137.9 133.6 139.3 133.6 139.4 133.7 C 140.3 133.8 140.1 133.6 140.2 133.5 C 141.9 133.6 139.8 133.9 142.3 133.9 C 143.3 133.5 138.0 133.0 137.4 133.6 C 137.4 133.6 137.4 133.6 137.4 133.6 Z M 164.1 6.9 C 165.2 7.1 162.7 7.3 163.4 7.5 C 167.4 7.3 164.3 7.0 169.8 7.1 C 169.5 7.1 169.1 7.0 169.1 6.9 C 166.6 7.0 166.4 7.1 167.0 6.7 C 165.8 6.7 165.5 7.2 164.1 6.9 C 164.1 6.9 164.1 6.9 164.1 6.9 Z M 214.8 11.2 C 214.4 11.1 214.1 11.0 214.1 10.9 C 212.5 10.8 212.8 10.9 210.6 10.5 C 210.9 10.9 212.9 11.2 214.8 11.2 C 214.8 11.2 214.8 11.2 214.8 11.2 Z M 320.7 64.9 C 320.8 65.2 320.8 65.5 320.9 65.8 C 321.0 65.5 321.5 66.3 321.1 64.8 C 321.0 64.7 321.1 65.0 321.1 65.2 C 321.0 65.0 320.8 64.3 320.7 64.4 C 320.8 64.8 320.8 64.9 320.7 64.9 C 320.7 64.9 320.7 64.9 320.7 64.9 Z M 302.9 101.3 C 305.2 99.4 299.0 103.0 302.9 101.3 C 302.9 101.3 302.9 101.3 302.9 101.3 C 302.9 101.3 302.9 101.3 302.9 101.3 Z M 309.3 99.9 C 309.4 99.9 309.9 99.5 309.9 99.5 C 311.7 98.0 310.1 99.6 311.1 98.8 C 312.4 97.5 310.2 99.1 311.8 97.5 C 311.4 97.7 310.4 99.0 309.3 99.9 C 309.3 99.9 309.3 99.9 309.3 99.9 Z M 23.0 36.5 C 21.3 37.8 21.0 38.3 20.9 38.8 C 22.0 37.9 23.0 37.3 23.4 37.1 C 25.4 35.4 21.9 38.0 21.5 38.2 C 21.6 37.9 23.1 36.7 23.0 36.5 C 23.0 36.5 23.0 36.5 23.0 36.5 Z M 17.9 40.7 C 17.3 41.3 16.5 42.2 16.5 42.4 C 17.4 41.5 17.6 41.5 17.7 41.6 C 18.4 40.7 17.3 41.5 17.9 40.7 C 17.9 40.7 17.9 40.7 17.9 40.7 Z M 28.3 33.2 C 27.5 33.8 27.9 33.7 27.8 33.9 C 29.1 33.1 29.3 33.1 30.6 32.3 C 30.6 32.2 30.5 32.1 30.5 32.1 C 29.4 32.7 29.4 32.8 28.4 33.4 C 28.4 33.4 28.4 33.3 28.3 33.2 C 28.3 33.2 28.3 33.2 28.3 33.2 Z M 13.6 45.2 C 11.2 47.7 10.7 49.1 9.8 51.0 C 11.1 49.1 12.1 47.1 13.4 45.9 C 14.8 44.3 12.8 46.3 12.8 46.2 C 12.8 46.1 13.3 45.5 13.6 45.2 C 13.6 45.2 13.6 45.2 13.6 45.2 Z M 2.5 68.8 C 2.3 69.3 2.7 70.4 2.7 72.0 C 2.8 71.7 2.8 71.4 2.9 71.4 C 2.9 69.1 2.4 70.5 2.5 68.8 C 2.5 68.8 2.5 68.8 2.5 68.8 Z M 5.1 81.9 C 5.7 83.3 5.0 81.2 5.4 81.8 C 4.8 80.3 4.3 78.7 4.1 78.8 C 4.8 80.4 4.9 80.7 5.1 81.9 C 5.1 81.9 5.1 81.9 5.1 81.9 Z M 10.6 91.0 C 11.8 92.4 10.4 90.2 11.1 90.7 C 10.6 90.1 10.6 90.3 10.5 90.3 C 10.2 89.9 9.9 89.5 9.5 88.8 C 9.7 89.4 11.0 91.0 10.6 91.0 C 10.6 91.0 10.6 91.0 10.6 91.0 Z M 72.8 14.9 C 71.7 15.3 72.1 15.4 69.8 16.0 C 73.2 15.0 71.5 16.2 76.1 14.9 C 75.3 15.0 75.8 14.8 76.1 14.8 C 77.8 14.2 74.4 15.1 76.0 14.4 C 74.7 14.8 75.5 14.9 74.2 15.2 C 72.8 15.4 72.0 15.5 72.8 14.9 C 72.8 14.9 72.8 14.9 72.8 14.9 Z M 76.2 15.1 C 77.5 14.8 77.3 14.4 78.0 14.5 C 78.6 14.3 78.5 14.2 78.6 14.1 C 78.1 14.3 78.0 14.3 77.9 14.2 C 76.9 14.6 75.8 15.0 76.2 15.1 C 76.2 15.1 76.2 15.1 76.2 15.1 Z M 64.6 18.5 C 66.6 17.8 67.2 17.8 68.2 17.2 C 69.0 17.4 69.5 16.7 70.6 16.7 C 72.6 16.0 71.1 16.3 70.5 16.4 C 72.5 15.7 71.1 16.5 73.0 15.8 C 73.3 15.4 70.8 16.2 71.0 15.9 C 69.5 16.3 69.6 16.5 68.7 16.8 C 68.0 17.0 68.2 16.8 68.0 16.8 C 66.3 17.4 66.4 17.2 65.0 17.6 C 64.7 17.9 65.3 17.8 66.9 17.3 C 65.3 17.9 64.6 18.3 62.8 18.8 C 64.0 18.1 58.1 20.1 58.7 20.3 C 60.3 19.8 59.8 19.7 60.4 19.4 C 62.5 18.9 63.7 18.5 64.6 18.5 C 64.6 18.5 64.6 18.5 64.6 18.5 Z M 29.5 33.4 C 28.8 33.8 28.3 34.1 27.4 34.7 C 27.2 34.5 28.4 33.8 27.2 34.4 C 25.8 35.3 25.5 35.6 24.7 36.2 C 25.3 36.0 28.3 34.2 26.8 35.4 C 27.3 35.1 28.3 34.5 29.6 33.8 C 27.9 34.4 31.7 32.5 33.1 31.6 C 32.8 31.4 35.8 30.2 36.8 29.4 C 35.8 29.7 32.8 31.6 31.6 32.3 C 32.2 31.9 27.9 34.0 29.5 33.4 C 29.5 33.4 29.5 33.4 29.5 33.4 Z M 81.2 13.7 C 81.5 13.5 82.9 13.1 81.8 13.3 C 82.3 13.1 83.6 13.0 83.0 12.7 C 83.7 12.6 84.3 12.4 84.9 12.3 C 84.7 12.5 82.9 12.8 83.7 12.9 C 84.9 12.5 84.5 12.7 86.2 12.3 C 85.3 12.7 86.4 12.5 85.7 13.0 C 86.2 12.7 87.8 12.4 87.6 12.2 C 90.1 11.7 87.0 12.7 90.3 12.0 C 90.3 12.2 87.9 12.7 87.1 12.8 C 86.7 13.1 91.1 12.0 93.6 11.5 C 91.4 11.8 93.1 11.2 94.1 10.8 C 94.9 10.7 94.1 11.0 95.5 10.8 C 96.6 10.6 97.2 10.4 97.5 10.5 C 98.4 10.3 98.0 10.2 98.1 10.0 C 99.7 9.8 98.6 10.3 100.9 9.9 C 99.1 9.8 101.0 9.4 104.2 9.0 C 103.9 8.9 103.0 9.1 102.8 9.0 C 103.2 8.7 105.1 8.7 105.5 8.8 C 106.7 8.5 105.9 8.5 104.9 8.7 C 105.5 8.5 106.2 8.3 106.9 8.1 C 103.5 8.6 98.2 9.6 92.0 10.5 C 93.2 10.4 91.9 10.8 90.1 11.0 C 89.8 11.0 90.6 10.8 91.4 10.6 C 89.2 10.8 89.5 11.3 86.2 11.9 C 84.4 12.2 88.1 11.3 86.1 11.6 C 85.0 11.9 84.2 12.3 83.6 12.2 C 81.5 12.8 81.0 13.2 77.9 14.0 C 79.7 13.7 80.6 14.0 82.5 13.4 C 82.5 13.4 81.7 13.6 81.2 13.7 C 81.2 13.7 81.2 13.7 81.2 13.7 Z M 17.8 41.7 C 16.9 42.5 16.6 43.0 16.3 43.1 C 14.8 44.6 16.7 43.1 17.0 42.9 C 17.6 42.2 17.8 41.9 17.8 41.7 C 17.8 41.7 17.8 41.7 17.8 41.7 Z M 146.5 136.2 C 149.2 136.4 148.7 136.0 150.8 136.1 C 149.1 136.0 148.7 135.8 145.8 135.7 C 145.7 135.9 145.7 136.1 146.5 136.2 C 146.5 136.2 146.5 136.2 146.5 136.2 Z M 23.5 37.3 C 24.8 36.0 22.0 38.8 21.8 38.7 C 20.3 40.1 23.4 37.6 22.1 39.0 C 23.4 37.8 24.4 37.3 26.2 35.8 C 26.1 35.7 24.5 36.8 23.1 37.9 C 22.8 37.9 23.6 37.4 23.5 37.3 C 23.5 37.3 23.5 37.3 23.5 37.3 Z M 118.9 133.3 C 117.1 133.2 120.6 133.9 121.6 134.2 C 121.7 133.8 121.2 133.8 118.9 133.3 C 118.9 133.3 118.9 133.3 118.9 133.3 Z M 165.2 136.2 C 166.3 135.9 162.0 136.2 163.1 135.9 C 161.8 135.8 161.6 135.9 161.6 136.0 C 160.9 135.9 158.9 136.0 159.5 135.8 C 159.1 135.6 162.7 135.8 161.6 135.5 C 162.8 135.5 162.8 135.6 163.8 135.6 C 161.7 135.6 162.6 135.9 165.2 136.0 C 165.2 135.7 164.0 135.8 165.2 135.6 C 165.4 135.7 166.7 135.9 166.6 136.3 C 168.9 136.2 167.5 135.8 170.2 135.8 C 170.0 135.7 168.3 135.7 167.3 135.6 C 167.6 135.4 170.1 135.8 169.5 135.4 C 170.1 135.6 171.6 135.7 171.7 136.0 C 169.7 136.1 168.3 136.3 166.6 136.4 C 168.2 136.6 170.4 136.0 173.1 136.2 C 172.8 136.0 174.4 136.0 173.9 135.8 C 176.0 135.8 175.0 136.1 174.6 136.1 C 175.1 136.3 179.2 136.1 178.9 135.9 C 179.2 136.1 184.1 135.8 183.9 135.5 C 185.3 135.6 187.5 135.1 188.2 135.4 C 189.0 135.3 190.7 135.2 192.5 135.1 C 193.0 134.8 189.9 135.1 189.6 134.9 C 189.1 134.7 193.0 134.8 192.5 134.6 C 192.5 134.5 192.5 134.5 192.5 134.4 C 191.0 134.6 189.6 134.8 188.2 134.9 C 187.1 135.0 188.4 134.8 188.2 134.7 C 187.2 134.9 182.6 135.4 182.4 135.0 C 179.4 135.3 177.2 135.2 176.0 135.5 C 174.1 135.5 177.0 135.3 175.9 135.2 C 170.6 135.6 164.0 135.3 159.5 135.6 C 158.5 135.6 158.8 135.4 158.7 135.3 C 152.5 135.3 157.8 135.8 153.0 135.5 C 153.0 135.3 155.3 135.4 155.1 135.2 C 153.5 135.2 153.0 135.3 150.8 135.2 C 150.8 135.3 150.8 135.4 150.8 135.5 C 149.0 135.4 149.7 135.1 148.7 135.0 C 146.4 135.0 147.0 135.1 145.9 134.8 C 143.7 134.8 141.6 134.8 139.4 134.5 C 137.9 134.6 140.7 135.1 143.0 135.3 C 142.8 135.3 142.2 135.3 142.2 135.4 C 139.6 135.0 139.2 134.6 135.2 134.2 C 138.2 134.7 133.6 134.2 133.0 134.0 C 131.4 133.9 132.6 134.3 133.7 134.3 C 133.5 134.4 132.4 134.2 132.3 134.1 C 132.1 134.5 135.9 135.0 140.0 135.1 C 138.1 135.4 143.0 135.3 140.8 135.6 C 144.1 135.8 141.3 135.3 145.0 135.5 C 144.7 135.4 144.0 135.3 143.7 135.2 C 146.5 135.3 145.7 135.6 148.7 135.6 C 149.2 135.4 147.2 135.4 147.2 135.3 C 150.5 135.6 151.6 135.7 153.7 136.0 C 154.1 135.9 153.6 135.7 157.3 135.9 C 157.3 135.9 157.3 136.0 157.3 136.0 C 155.5 136.0 155.1 136.4 159.5 136.5 C 159.7 136.3 158.4 136.3 157.3 136.3 C 157.8 136.1 159.2 136.1 160.9 136.1 C 161.7 136.1 162.7 136.3 161.6 136.3 C 162.3 136.5 162.9 136.1 165.2 136.2 C 165.2 136.2 165.2 136.2 165.2 136.2 Z M 3.3 66.2 C 3.3 66.6 3.3 67.0 3.2 67.8 C 3.4 68.1 3.5 66.7 3.6 66.7 C 3.8 65.6 3.4 66.5 3.3 66.2 C 3.3 66.2 3.3 66.2 3.3 66.2 Z M 9.1 52.0 C 8.9 52.0 8.6 52.8 7.8 54.0 C 7.8 54.4 8.6 53.0 8.7 53.1 C 9.6 51.8 8.2 53.2 9.1 52.0 C 9.1 52.0 9.1 52.0 9.1 52.0 Z M 5.8 58.0 C 5.3 58.4 5.6 58.6 6.1 57.5 C 6.2 57.6 6.2 57.9 5.9 58.6 C 6.5 58.0 6.3 57.3 7.0 56.1 C 6.7 56.5 6.2 57.1 5.8 58.0 C 5.8 58.0 5.8 58.0 5.8 58.0 Z M 5.0 60.0 C 4.9 60.8 4.5 61.2 4.2 62.6 C 4.5 62.3 5.3 59.5 5.4 59.0 C 5.4 58.5 4.3 61.5 5.0 60.0 C 5.0 60.0 5.0 60.0 5.0 60.0 Z M 91.9 128.6 C 92.5 128.7 92.4 128.6 92.5 128.6 C 94.5 129.3 97.4 129.8 95.1 129.7 C 97.2 129.9 99.2 130.6 101.0 131.0 C 102.6 131.3 101.9 130.9 103.1 131.1 C 105.1 131.5 102.0 131.0 102.4 131.2 C 102.8 131.5 103.4 131.2 105.8 131.7 C 105.2 131.2 107.8 132.1 107.2 131.5 C 108.5 131.9 108.9 131.8 110.6 132.0 C 110.5 131.8 108.8 131.6 108.6 131.4 C 107.8 131.0 107.7 131.5 109.3 131.7 C 108.3 131.8 106.0 131.0 105.2 131.1 C 104.4 130.7 107.4 131.4 106.6 131.0 C 106.0 131.0 105.4 130.9 105.2 131.0 C 104.2 130.8 103.6 130.6 103.2 130.4 C 103.8 130.5 103.9 130.5 103.9 130.6 C 105.1 130.8 102.7 130.0 105.3 130.4 C 104.9 130.3 103.8 130.1 104.0 129.9 C 103.2 129.7 103.9 130.6 101.2 129.9 C 99.4 129.8 105.4 130.8 103.8 131.0 C 100.0 130.4 102.2 130.4 99.2 129.8 C 99.2 129.9 99.2 130.0 98.5 129.9 C 98.6 130.0 99.7 130.2 100.5 130.3 C 100.3 130.4 99.2 130.2 98.4 130.0 C 98.5 130.1 99.1 130.2 99.1 130.3 C 96.6 129.8 96.9 129.3 99.2 129.6 C 99.2 129.4 96.1 128.8 95.2 128.8 C 96.0 129.1 95.1 128.9 95.8 129.3 C 96.5 129.4 96.3 129.3 96.6 129.3 C 97.7 129.6 96.6 129.4 96.5 129.5 C 95.2 129.2 95.3 129.0 93.9 128.9 C 94.2 128.9 94.5 128.9 94.6 128.8 C 93.9 128.7 93.2 128.5 92.6 128.4 C 92.6 128.6 91.8 128.4 91.9 128.6 C 91.9 128.6 91.9 128.6 91.9 128.6 Z M 127.3 134.5 C 129.6 134.8 128.4 134.4 127.3 134.3 C 127.8 134.3 128.6 134.3 129.4 134.4 C 128.8 134.2 128.1 134.2 126.0 134.0 C 127.9 133.8 126.0 133.2 122.5 132.9 C 121.4 133.2 124.3 133.6 123.1 133.8 C 125.7 133.9 127.0 134.2 127.3 134.5 C 127.3 134.5 127.3 134.5 127.3 134.5 Z M 17.0 42.9 C 16.1 43.8 15.1 44.8 14.2 45.7 C 14.5 45.8 17.5 43.0 17.0 42.9 C 17.0 42.9 17.0 42.9 17.0 42.9 Z M 109.6 8.0 C 110.2 7.9 110.3 8.0 110.3 8.0 C 112.3 7.7 109.4 8.0 110.3 7.6 C 109.5 7.7 108.9 7.8 108.2 7.9 C 108.1 8.1 111.0 7.8 108.9 8.1 C 109.1 8.2 109.6 8.1 109.6 8.0 C 109.6 8.0 109.6 8.0 109.6 8.0 Z M 3.8 65.2 C 3.7 66.1 4.0 65.6 3.8 67.8 C 4.0 67.0 4.0 66.5 4.2 65.2 C 4.0 65.2 3.9 65.2 3.8 65.2 C 3.8 65.2 3.8 65.2 3.8 65.2 Z M 82.1 126.8 C 83.6 127.4 84.2 127.0 87.2 127.9 C 85.7 127.2 83.9 127.2 82.1 126.8 C 82.1 126.8 82.1 126.8 82.1 126.8 Z M 198.1 134.2 C 197.1 134.2 198.4 134.1 196.7 134.1 C 195.7 134.3 195.3 134.4 193.9 134.6 C 195.9 134.7 199.4 134.1 200.9 134.4 C 202.6 134.2 202.5 133.9 203.0 133.7 C 202.2 133.8 201.8 133.8 201.6 133.7 C 200.6 134.2 199.3 133.7 198.1 134.2 C 198.1 134.2 198.1 134.2 198.1 134.2 Z M 118.2 133.1 C 117.0 132.8 119.2 133.0 119.7 132.9 C 120.6 133.0 120.2 133.2 120.4 133.3 C 121.6 133.4 121.9 133.3 121.8 133.1 C 119.5 132.8 116.6 132.4 118.3 132.3 C 116.1 132.0 117.3 132.5 116.2 132.4 C 115.0 132.1 116.2 132.1 116.3 131.9 C 115.7 131.9 114.0 131.9 114.2 131.6 C 110.9 131.5 112.3 132.1 114.7 132.8 C 117.0 132.9 114.4 132.5 118.2 133.1 C 118.2 133.1 118.2 133.1 118.2 133.1 Z M 33.6 108.2 C 33.8 108.4 35.1 109.1 35.1 109.2 C 36.8 109.9 38.4 110.4 40.0 111.0 C 39.8 110.6 37.6 109.7 38.4 110.4 C 37.8 109.9 36.3 109.0 35.5 108.4 C 34.0 107.5 33.3 107.7 33.3 107.2 C 31.8 106.5 32.6 107.0 30.5 105.6 C 33.8 107.9 29.2 105.0 28.9 105.1 C 30.8 106.3 32.6 107.4 32.5 107.0 C 34.0 108.0 35.7 109.0 35.9 109.4 C 35.7 109.4 34.5 108.7 33.6 108.2 C 33.6 108.2 33.6 108.2 33.6 108.2 Z M 43.3 112.4 C 42.7 112.2 42.0 111.9 40.9 111.3 C 41.5 111.7 41.7 111.9 41.6 112.0 C 43.6 113.0 44.2 113.1 44.9 113.6 C 46.8 114.6 44.5 113.1 47.6 114.6 C 47.4 114.4 45.8 113.8 45.9 113.7 C 45.5 113.7 44.3 113.2 43.3 112.4 C 43.3 112.4 43.3 112.4 43.3 112.4 Z M 63.8 121.0 C 65.3 121.4 63.0 120.6 63.9 120.7 C 63.4 120.6 60.6 119.5 61.0 119.4 C 60.3 118.8 57.2 118.4 57.6 118.1 C 56.9 117.9 57.1 118.1 56.9 118.2 C 59.0 118.8 58.9 119.0 57.4 118.5 C 57.6 118.7 58.9 119.1 59.7 119.4 C 59.9 119.3 59.1 119.0 59.3 118.9 C 61.0 119.7 62.2 120.3 63.8 121.0 C 63.8 121.0 63.8 121.0 63.8 121.0 Z M 187.0 5.2 C 185.4 5.1 184.3 5.1 183.5 5.1 C 184.0 5.3 184.8 5.2 185.7 5.2 C 185.9 5.4 185.1 5.4 184.2 5.3 C 185.0 5.6 188.0 5.5 187.0 5.2 C 187.0 5.2 187.0 5.2 187.0 5.2 Z M 172.7 4.7 C 171.1 4.6 170.1 4.7 169.9 4.8 C 170.5 5.0 170.3 4.7 171.3 4.7 C 172.0 4.8 172.4 4.9 172.7 5.0 C 173.4 5.0 173.3 4.9 173.5 4.9 C 174.1 4.9 174.1 4.9 174.2 5.0 C 176.2 4.8 171.9 4.9 172.7 4.7 C 172.7 4.7 172.7 4.7 172.7 4.7 Z M 54.1 117.3 C 53.6 117.0 53.3 116.8 51.9 116.2 C 52.1 116.5 50.7 115.9 49.3 115.3 C 51.3 116.4 52.1 116.6 54.1 117.3 C 54.1 117.3 54.1 117.3 54.1 117.3 Z M 85.8 13.1 C 83.8 13.4 84.1 13.7 81.3 14.2 C 81.3 14.3 81.3 14.4 81.3 14.4 C 83.0 13.8 83.7 13.8 85.8 13.1 C 85.8 13.1 85.8 13.1 85.8 13.1 Z M 321.9 83.0 C 321.8 82.8 321.1 84.3 320.9 84.3 C 321.1 84.8 320.2 85.2 318.3 88.1 C 318.2 88.1 318.3 87.8 318.6 87.5 C 316.9 89.7 319.2 87.0 319.6 86.8 C 320.7 85.0 321.0 84.8 321.9 83.0 C 321.9 83.0 321.9 83.0 321.9 83.0 Z M 176.7 134.7 C 176.6 134.8 177.0 134.8 177.4 134.8 C 177.9 134.8 178.4 134.8 178.8 134.7 C 178.6 134.4 176.3 134.4 178.1 134.0 C 177.4 134.0 177.4 134.0 177.4 134.1 C 173.9 134.9 171.2 133.8 166.6 134.3 C 165.9 134.3 166.1 134.4 165.9 134.4 C 166.5 134.4 166.6 134.5 166.6 134.5 C 167.2 134.2 171.3 134.5 169.5 134.6 C 169.6 134.7 170.2 134.7 170.2 134.6 C 170.7 134.6 171.2 134.6 171.7 134.6 C 171.4 134.5 170.4 134.5 170.2 134.4 C 172.5 134.5 175.3 134.5 173.8 134.8 C 175.2 134.8 175.7 134.6 176.7 134.5 C 177.6 134.5 177.6 134.7 176.7 134.7 C 176.7 134.7 176.7 134.7 176.7 134.7 Z M 195.2 133.7 C 197.4 133.5 196.5 133.3 198.7 133.2 C 197.4 133.1 195.7 133.6 193.8 133.5 C 194.1 133.6 195.0 133.6 195.2 133.7 C 195.2 133.7 195.2 133.7 195.2 133.7 Z M 153.8 134.4 C 154.2 134.1 152.2 134.0 150.1 133.9 C 149.7 134.2 151.6 134.3 153.8 134.4 C 153.8 134.4 153.8 134.4 153.8 134.4 Z M 163.1 134.5 C 165.2 134.4 160.4 134.4 161.6 134.2 C 160.6 134.2 159.6 134.2 159.5 134.1 C 158.7 134.1 158.7 134.3 157.3 134.2 C 157.4 134.4 159.7 134.3 159.5 134.5 C 161.1 134.3 161.4 134.4 163.1 134.5 C 163.1 134.5 163.1 134.5 163.1 134.5 Z M 164.5 134.5 C 165.9 134.4 164.1 134.0 162.4 134.0 C 163.0 134.2 163.4 134.4 164.5 134.5 C 164.5 134.5 164.5 134.5 164.5 134.5 Z M 11.8 88.6 C 12.3 89.2 12.1 88.6 12.7 89.4 C 12.8 89.3 10.7 86.5 12.5 88.8 C 12.0 87.8 11.4 87.6 10.7 86.5 C 10.9 86.9 11.0 87.2 10.6 86.6 C 10.2 86.4 12.2 88.8 11.8 88.6 C 11.8 88.6 11.8 88.6 11.8 88.6 Z M 14.0 91.4 C 14.5 91.9 14.3 91.6 14.1 91.3 C 14.2 91.4 14.9 92.1 15.4 92.7 C 15.4 92.8 14.8 91.4 15.0 91.4 C 12.8 89.2 14.2 91.1 14.0 91.4 C 14.0 91.4 14.0 91.4 14.0 91.4 Z M 16.3 93.6 C 17.6 95.2 19.9 97.2 21.2 98.0 C 20.2 96.7 17.2 94.0 16.3 93.6 C 16.3 93.6 16.3 93.6 16.3 93.6 Z M 6.5 78.0 C 7.1 81.0 10.2 86.4 8.1 81.3 C 8.0 81.5 6.6 78.2 6.3 76.5 C 6.2 76.5 5.6 74.7 5.7 74.7 C 5.3 73.4 6.5 78.8 6.5 78.0 C 6.5 78.0 6.5 78.0 6.5 78.0 Z M 23.7 99.4 C 22.7 98.8 23.6 100.0 22.3 98.8 C 21.5 98.2 22.5 99.1 22.2 99.0 C 23.9 100.4 27.9 102.9 28.2 103.4 C 29.2 103.9 29.6 104.0 31.6 105.2 C 31.7 105.2 24.7 100.9 23.6 99.5 C 23.8 99.5 26.0 101.2 23.7 99.4 C 23.7 99.4 23.7 99.4 23.7 99.4 Z M 86.1 14.6 C 86.2 14.3 83.6 15.1 84.1 14.7 C 82.7 15.3 81.3 15.5 79.8 16.1 C 79.3 16.1 79.4 15.7 77.2 16.3 C 77.2 16.5 78.2 16.1 77.3 16.6 C 75.3 17.1 75.7 16.7 73.5 17.4 C 74.0 17.7 68.8 18.9 69.4 19.1 C 70.5 18.7 70.4 18.6 72.4 18.1 C 73.0 17.9 72.8 18.1 73.6 17.9 C 73.1 18.3 72.0 18.2 71.2 18.7 C 71.4 18.8 72.9 18.3 73.1 18.4 C 74.0 18.2 72.9 18.4 73.1 18.2 C 75.4 17.5 73.0 18.8 75.6 18.0 C 75.0 17.9 75.0 17.9 75.5 17.5 C 76.6 17.4 79.7 16.4 78.0 17.1 C 78.3 17.2 80.2 16.5 79.9 16.4 C 80.9 16.1 81.0 16.1 81.1 16.2 C 83.8 15.5 84.1 15.2 83.5 15.1 C 84.0 14.7 84.5 15.0 86.1 14.6 C 86.1 14.6 86.1 14.6 86.1 14.6 Z M 6.4 62.7 C 6.5 61.5 6.1 63.9 5.8 65.0 C 6.1 63.7 6.3 64.2 6.8 62.8 C 6.5 63.2 6.5 63.1 6.8 62.2 C 6.7 61.9 6.0 64.0 6.4 62.7 C 6.4 62.7 6.4 62.7 6.4 62.7 Z M 35.9 107.7 C 36.6 108.3 40.6 110.3 42.8 111.4 C 42.6 110.9 37.2 108.7 36.7 108.0 C 35.5 107.4 37.3 108.5 35.9 107.7 C 35.9 107.7 35.9 107.7 35.9 107.7 Z M 62.7 20.8 C 62.1 21.0 62.5 20.9 62.7 20.8 C 62.6 21.0 61.3 21.4 60.5 21.7 C 61.8 21.4 60.2 22.0 60.6 22.1 C 59.9 22.4 59.6 22.5 59.5 22.6 C 59.3 22.2 56.0 24.1 59.6 22.9 C 58.9 22.9 59.2 22.8 60.6 22.2 C 62.3 21.8 63.6 21.2 64.2 21.3 C 65.3 20.9 65.6 20.6 67.1 20.2 C 67.5 20.2 68.8 19.9 67.9 20.6 C 70.4 19.8 68.5 19.8 70.7 19.1 C 72.8 18.6 69.7 19.7 70.2 19.7 C 70.8 19.5 70.7 19.7 70.9 19.7 C 71.6 19.4 71.6 19.2 70.8 19.5 C 71.0 19.3 73.1 18.5 72.6 18.9 C 73.8 18.5 70.5 18.8 68.9 19.5 C 67.9 19.9 67.7 19.4 68.7 19.2 C 68.3 19.1 66.5 20.2 66.9 19.6 C 66.1 19.8 65.3 20.1 64.5 20.3 C 64.7 20.3 65.1 20.2 65.2 20.3 C 64.4 20.5 63.6 20.8 62.8 21.1 C 63.5 20.7 63.4 20.6 62.7 20.8 C 62.7 20.8 62.7 20.8 62.7 20.8 Z M 27.1 102.2 C 28.6 103.3 29.1 103.4 30.4 104.2 C 30.0 103.7 26.5 101.5 27.1 102.2 C 27.1 102.2 27.1 102.2 27.1 102.2 Z M 97.3 12.9 C 97.1 12.9 96.0 13.1 96.0 13.0 C 98.0 12.6 95.7 12.9 97.2 12.2 C 94.6 12.9 93.8 13.6 97.4 13.1 C 99.9 12.6 94.7 13.5 97.3 12.9 C 97.3 12.9 97.3 12.9 97.3 12.9 Z M 89.4 14.4 C 87.9 14.8 91.9 14.1 92.8 14.0 C 92.8 14.1 92.8 14.2 92.8 14.2 C 95.0 13.4 91.9 13.9 93.9 13.0 C 91.3 13.4 90.2 13.6 88.1 14.2 C 88.2 14.3 88.7 14.1 88.7 14.1 C 90.3 13.7 89.3 14.3 87.5 14.6 C 88.0 14.6 89.6 14.2 90.7 14.0 C 90.4 14.0 90.0 14.0 90.0 13.9 C 91.4 13.6 91.0 13.9 92.0 13.7 C 92.0 13.8 89.5 14.5 89.4 14.4 C 89.4 14.4 89.4 14.4 89.4 14.4 Z M 226.5 11.4 C 225.1 11.2 227.9 12.0 227.7 12.3 C 229.1 12.6 229.4 12.6 230.3 12.7 C 229.9 12.5 228.4 12.2 227.7 11.9 C 228.1 11.7 229.8 12.3 230.4 12.2 C 231.3 12.0 227.0 11.8 226.5 11.4 C 226.5 11.4 226.5 11.4 226.5 11.4 Z M 30.2 36.1 C 29.5 36.6 29.9 36.4 30.2 36.2 C 30.1 36.4 29.0 37.1 28.9 37.0 C 28.0 37.7 29.6 36.8 28.4 37.6 C 28.2 37.9 30.2 36.4 30.2 36.3 C 31.7 35.3 30.7 36.3 31.2 36.2 C 32.5 35.4 31.9 35.4 33.8 34.4 C 32.6 34.9 31.5 35.4 30.2 36.1 C 30.2 36.1 30.2 36.1 30.2 36.1 Z M 101.8 11.6 C 102.1 11.5 100.3 12.3 98.6 12.4 C 96.2 12.8 100.0 12.4 98.0 12.7 C 99.7 12.5 101.8 11.9 104.6 11.4 C 105.2 11.2 100.8 12.0 103.2 11.5 C 103.1 11.4 102.5 11.6 102.5 11.6 C 102.0 11.7 101.9 11.7 101.8 11.6 C 101.8 11.6 101.8 11.6 101.8 11.6 Z M 99.3 12.7 C 99.4 12.7 100.0 12.6 100.0 12.5 C 100.8 12.4 100.9 12.6 100.0 12.8 C 101.2 12.9 101.0 12.4 103.3 12.1 C 102.3 12.1 101.8 12.0 104.0 11.8 C 105.6 11.3 100.0 12.4 99.3 12.7 C 99.3 12.7 99.3 12.7 99.3 12.7 Z M 204.6 8.6 C 204.8 8.7 206.3 8.8 207.3 8.9 C 206.0 9.0 200.3 8.3 199.7 8.1 C 199.1 8.1 198.4 8.1 198.2 8.0 C 198.3 8.0 196.7 8.0 197.5 8.1 C 197.4 8.2 196.2 8.1 196.1 8.2 C 194.0 8.0 196.8 8.1 196.2 7.9 C 193.6 7.9 194.2 7.7 191.2 7.5 C 191.7 7.8 195.0 7.9 194.7 8.2 C 197.0 8.2 199.6 8.5 201.0 8.9 C 198.8 8.4 207.0 9.0 210.8 9.5 C 210.6 9.6 212.0 9.8 213.5 10.1 C 214.5 10.5 214.3 9.9 212.2 9.8 C 212.3 9.6 215.1 10.1 216.3 10.2 C 214.9 9.9 215.7 9.9 215.0 9.7 C 212.3 9.4 214.7 9.8 214.2 9.9 C 213.5 9.8 212.9 9.7 212.1 9.6 C 215.8 9.7 206.9 8.9 210.1 9.3 C 207.3 9.0 207.2 8.7 204.6 8.6 C 204.6 8.6 204.6 8.6 204.6 8.6 Z M 137.8 7.4 C 137.3 7.4 135.0 7.8 135.0 7.6 C 132.1 8.0 134.6 8.0 131.4 8.3 C 131.6 8.3 132.9 8.2 132.9 8.3 C 134.1 8.1 135.3 8.0 135.0 7.7 C 136.4 7.7 136.8 7.5 137.8 7.4 C 137.5 7.6 136.9 7.7 135.7 7.8 C 135.5 8.0 136.0 8.1 137.8 7.9 C 138.6 7.7 138.1 7.5 137.8 7.4 C 137.8 7.4 137.8 7.4 137.8 7.4 Z M 130.7 8.2 C 130.4 8.2 130.0 8.2 130.0 8.1 C 129.0 7.9 129.7 8.4 128.6 8.5 C 127.8 8.6 128.1 8.4 127.9 8.3 C 126.7 8.5 125.8 8.6 125.1 8.6 C 123.2 8.9 127.3 8.6 128.0 8.7 C 129.3 8.5 128.8 8.3 130.7 8.2 C 130.7 8.2 130.7 8.2 130.7 8.2 Z M 109.9 10.4 C 109.6 10.2 108.9 10.7 108.0 10.8 C 108.7 10.9 110.6 10.5 109.4 11.0 C 111.3 10.8 111.5 10.8 113.5 10.4 C 114.8 10.5 113.5 10.2 111.4 10.6 C 111.6 10.5 112.6 10.3 112.7 10.2 C 114.1 10.5 117.5 9.3 115.4 9.9 C 114.8 9.9 114.4 9.9 114.1 9.8 C 113.6 10.1 109.0 10.7 109.9 10.4 C 109.9 10.4 109.9 10.4 109.9 10.4 Z M 46.2 28.1 C 47.9 27.3 48.8 26.9 49.6 26.6 C 50.5 26.2 51.8 25.7 52.9 25.3 C 53.0 25.4 52.8 25.5 52.4 25.7 C 52.9 25.5 53.6 25.2 54.6 24.8 C 54.5 24.7 54.0 25.0 54.0 25.0 C 52.2 25.5 53.7 25.0 53.9 24.6 C 51.7 25.3 48.5 27.1 46.9 27.5 C 45.7 28.1 47.2 27.5 46.2 28.1 C 46.2 28.1 46.2 28.1 46.2 28.1 Z M 320.9 80.3 C 320.9 80.6 320.5 81.3 320.7 81.3 C 321.0 80.6 321.1 80.0 321.4 79.3 C 320.8 80.6 320.6 80.3 319.8 82.0 C 320.1 81.5 320.3 81.7 320.9 80.3 C 320.9 80.3 320.9 80.3 320.9 80.3 Z M 116.8 9.6 C 116.9 9.7 117.0 9.8 116.2 9.9 C 115.9 10.1 118.1 9.7 118.2 9.9 C 119.0 9.8 118.7 9.7 119.6 9.5 C 119.3 9.5 117.5 9.7 118.2 9.4 C 118.8 9.3 118.8 9.3 118.9 9.4 C 120.3 9.1 118.2 9.3 116.8 9.6 C 116.8 9.6 116.8 9.6 116.8 9.6 Z M 233.1 12.8 C 232.1 12.7 233.0 13.0 233.7 13.1 C 231.8 13.0 234.8 13.7 234.9 14.0 C 234.1 13.6 231.4 13.2 231.0 13.1 C 230.2 13.0 231.1 13.4 228.9 13.0 C 229.2 13.3 231.5 13.5 231.0 13.2 C 231.5 13.6 233.8 13.7 233.6 14.0 C 236.5 14.6 237.2 14.6 237.5 14.4 C 234.6 13.9 236.2 13.8 233.7 13.3 C 233.7 13.3 234.5 13.4 235.0 13.5 C 234.8 13.3 233.7 13.1 233.1 12.8 C 233.1 12.8 233.1 12.8 233.1 12.8 Z M 160.6 6.6 C 159.0 6.7 159.0 6.9 159.1 7.0 C 159.7 7.0 160.7 6.9 162.0 6.9 C 161.7 6.8 159.7 6.9 160.6 6.6 C 160.6 6.6 160.6 6.6 160.6 6.6 Z M 222.3 11.3 C 222.2 11.2 221.7 11.1 221.7 11.2 C 220.0 10.9 219.6 10.7 219.0 10.5 C 218.1 10.4 218.4 10.6 218.3 10.7 C 219.9 10.8 219.5 11.0 221.6 11.3 C 221.5 11.2 221.8 11.2 222.3 11.3 C 222.3 11.3 222.3 11.3 222.3 11.3 Z M 175.5 6.9 C 174.7 6.9 175.1 7.0 175.5 7.0 C 174.6 7.2 171.6 6.9 170.5 7.1 C 170.4 7.2 174.0 7.3 169.8 7.3 C 170.6 7.5 174.4 7.4 176.2 7.5 C 175.8 7.7 173.2 7.6 173.4 7.9 C 175.6 7.8 178.0 7.8 178.4 7.4 C 175.2 7.3 176.3 7.1 175.5 6.9 C 175.5 6.9 175.5 6.9 175.5 6.9 Z M 179.1 7.2 C 178.8 7.1 178.2 7.2 177.0 7.1 C 178.7 7.5 179.8 7.4 183.4 7.6 C 183.4 7.6 183.4 7.5 183.4 7.5 C 184.1 7.5 184.8 7.5 185.5 7.6 C 182.4 7.1 181.7 7.3 178.4 7.2 C 178.3 7.2 178.7 7.2 179.1 7.2 C 179.1 7.2 179.1 7.2 179.1 7.2 Z M 86.3 15.2 C 87.2 15.2 87.9 15.2 89.5 14.9 C 89.3 14.7 88.4 14.7 86.3 15.2 C 86.3 15.2 86.3 15.2 86.3 15.2 Z M 225.0 11.9 C 226.9 12.0 223.2 11.6 224.3 12.0 C 225.7 12.3 227.3 12.7 227.6 12.9 C 230.3 13.1 224.6 12.1 225.0 11.9 C 225.0 11.9 225.0 11.9 225.0 11.9 Z M 212.7 10.6 C 211.9 10.5 212.0 10.2 212.8 10.5 C 214.7 10.7 211.1 10.0 214.1 10.5 C 212.9 10.2 210.0 9.7 208.6 9.7 C 208.7 9.9 211.3 10.2 211.3 10.4 C 211.5 10.5 211.1 10.4 210.7 10.4 C 210.9 10.5 211.5 10.5 212.7 10.6 C 212.7 10.6 212.7 10.6 212.7 10.6 Z M 202.4 9.1 C 203.5 9.3 204.9 9.6 207.3 9.8 C 205.7 9.5 204.9 9.2 202.4 9.1 C 202.4 9.1 202.4 9.1 202.4 9.1 Z M 318.2 56.1 C 317.6 55.0 317.9 56.1 318.0 56.3 C 318.6 57.4 318.7 57.2 319.2 58.5 C 319.3 58.0 318.4 57.0 318.2 56.1 C 318.2 56.1 318.2 56.1 318.2 56.1 Z M 320.1 60.2 C 320.0 60.4 320.7 61.9 320.5 62.1 C 321.3 62.8 320.9 64.4 321.2 64.3 C 321.3 64.7 321.3 65.0 321.4 65.7 C 321.6 64.3 320.7 61.6 320.1 60.2 C 320.1 60.2 320.1 60.2 320.1 60.2 Z M 190.4 8.6 C 188.5 8.4 190.9 9.0 189.0 8.8 C 188.8 8.9 192.6 9.2 190.3 9.1 C 193.2 9.5 190.2 8.6 190.4 8.6 C 190.4 8.6 190.4 8.6 190.4 8.6 Z M 155.6 8.1 C 155.7 7.9 153.1 8.1 152.0 8.1 C 152.0 8.2 152.9 8.1 153.4 8.1 C 153.2 8.2 152.8 8.3 152.0 8.3 C 152.6 8.5 154.5 8.1 155.6 8.1 C 155.6 8.1 155.6 8.1 155.6 8.1 Z M 194.3 4.7 C 195.4 5.0 196.9 5.3 197.8 5.0 C 199.0 5.3 196.9 5.2 198.4 5.5 C 200.5 5.5 199.5 5.7 202.7 5.9 C 202.1 6.1 204.4 6.3 204.8 6.6 C 203.5 6.5 201.9 6.0 201.2 6.2 C 202.3 6.3 201.7 6.5 201.2 6.3 C 199.1 6.0 203.9 6.2 201.3 5.8 C 200.5 6.1 196.7 5.2 194.2 5.0 C 195.2 4.9 192.4 4.6 194.3 4.7 C 194.3 4.7 194.3 4.7 194.3 4.7 Z M 206.9 6.3 C 208.6 6.5 209.4 7.1 208.9 7.0 C 209.0 6.9 207.0 6.7 206.8 6.8 C 207.3 6.9 207.7 6.9 207.6 7.0 C 204.4 6.6 205.6 6.5 204.8 6.3 C 206.5 6.3 207.0 6.5 207.6 6.5 C 207.2 6.4 206.8 6.4 206.9 6.3 C 206.9 6.3 206.9 6.3 206.9 6.3 Z M 241.9 16.1 C 241.6 15.9 241.2 16.0 240.5 15.9 C 240.5 15.5 237.1 15.3 236.7 15.0 C 237.5 15.1 239.2 15.4 240.0 15.5 C 239.1 15.2 238.9 15.1 238.0 15.0 C 238.3 14.9 240.2 15.3 240.7 15.2 C 240.8 15.4 241.8 15.4 242.0 15.6 C 239.5 15.1 243.3 16.4 241.9 16.1 C 241.9 16.1 241.9 16.1 241.9 16.1 Z M 174.1 8.2 C 173.8 8.4 176.9 9.1 174.1 9.3 C 173.5 9.1 173.1 8.8 173.4 8.5 C 171.6 8.7 170.9 8.4 169.8 8.6 C 166.6 7.9 172.3 8.8 174.1 8.2 C 174.1 8.2 174.1 8.2 174.1 8.2 Z M 162.7 8.3 C 163.3 8.1 161.7 8.1 162.0 7.9 C 163.4 8.1 167.8 7.8 166.3 8.0 C 164.8 8.0 164.8 8.3 162.7 8.3 C 162.7 8.3 162.7 8.3 162.7 8.3 Z M 75.1 122.7 C 73.1 122.3 72.2 121.6 73.4 121.8 C 72.8 121.9 75.8 122.6 75.1 122.7 C 75.1 122.7 75.1 122.7 75.1 122.7 Z M 5.1 83.8 C 5.7 85.4 6.4 86.2 6.3 86.5 C 5.4 85.1 5.6 85.2 5.0 83.9 C 4.9 83.8 4.4 83.1 4.4 82.9 C 4.8 83.6 4.9 83.4 5.1 83.8 C 5.1 83.8 5.1 83.8 5.1 83.8 Z M 119.1 5.3 C 118.9 5.2 118.1 5.2 118.4 5.0 C 120.5 4.9 122.9 4.4 124.7 4.1 C 124.7 4.2 124.7 4.3 124.7 4.4 C 121.3 4.6 120.5 5.0 119.1 5.3 C 119.1 5.3 119.1 5.3 119.1 5.3 Z M 114.8 5.3 C 114.5 5.5 115.7 5.6 114.2 5.8 C 114.3 5.6 111.6 5.7 112.8 5.5 C 113.2 5.6 113.9 5.5 114.8 5.3 C 114.8 5.3 114.8 5.3 114.8 5.3 Z M 233.7 9.7 C 235.3 10.0 233.0 9.3 233.1 9.2 C 234.2 9.5 235.8 9.8 236.3 10.0 C 235.2 9.8 234.3 10.0 233.7 9.7 C 233.7 9.7 233.7 9.7 233.7 9.7 Z M 208.3 6.4 C 204.7 6.0 206.3 5.8 202.8 5.3 C 204.2 5.3 207.4 5.7 208.4 5.6 C 208.3 5.7 209.1 5.9 209.1 6.0 C 207.8 5.9 207.6 5.7 206.3 5.6 C 206.7 5.9 206.7 5.8 206.2 6.0 C 207.2 6.1 207.8 6.1 208.4 6.2 C 208.1 6.3 209.3 6.5 208.3 6.4 C 208.3 6.4 208.3 6.4 208.3 6.4 Z M 232.9 10.2 C 234.3 10.4 235.4 10.9 234.2 10.7 C 234.0 10.5 233.1 10.5 232.9 10.3 C 234.8 10.6 231.3 9.9 232.3 9.9 C 233.4 10.1 233.8 10.1 233.6 9.9 C 234.4 10.1 235.6 10.3 235.6 10.4 C 235.1 10.3 234.3 10.1 234.3 10.2 C 234.7 10.3 235.1 10.4 234.9 10.4 C 233.8 10.2 233.2 10.1 232.9 10.2 C 232.9 10.2 232.9 10.2 232.9 10.2 Z M 223.5 8.5 C 225.4 8.9 225.5 9.1 226.2 9.4 C 223.7 8.9 223.3 8.5 221.5 8.1 C 223.5 8.4 225.6 8.5 226.3 8.8 C 225.3 8.7 223.7 8.4 223.5 8.5 C 223.5 8.5 223.5 8.5 223.5 8.5 Z M 253.1 124.7 C 251.6 124.9 250.3 125.1 248.6 125.4 C 248.1 125.8 251.3 125.5 250.0 125.6 C 248.3 126.1 249.4 125.5 248.0 125.8 C 249.5 125.8 242.0 127.6 241.6 127.3 C 242.8 127.1 243.1 126.9 242.9 126.8 C 245.9 126.1 247.0 125.6 249.2 125.0 C 250.9 124.9 255.5 123.8 257.9 122.8 C 259.6 122.7 262.3 121.4 264.6 121.0 C 265.1 120.7 262.7 121.4 264.5 120.7 C 265.7 120.6 264.8 121.0 266.4 120.6 C 266.5 120.4 266.1 120.4 266.9 120.1 C 266.8 120.3 267.8 120.0 268.2 119.9 C 265.0 121.0 268.5 120.2 265.9 121.1 C 264.9 121.3 266.9 120.4 264.0 121.3 C 263.0 121.7 262.0 122.1 262.3 122.2 C 261.5 122.5 261.1 122.7 260.5 122.9 C 261.6 122.3 256.4 124.2 258.7 123.2 C 258.9 123.1 260.5 122.6 261.7 122.2 C 260.6 122.3 259.3 122.8 257.4 123.5 C 256.6 123.5 257.7 123.1 256.7 123.3 C 255.3 123.9 257.4 123.5 256.3 124.0 C 256.8 123.8 257.5 123.6 257.5 123.7 C 254.9 124.2 253.9 124.7 252.5 125.1 C 253.4 124.7 251.0 125.3 253.1 124.7 C 253.1 124.7 253.1 124.7 253.1 124.7 Z M 274.4 117.5 C 274.9 117.3 275.5 117.1 276.1 116.8 C 276.3 117.0 274.1 117.9 275.7 117.5 C 273.2 118.4 275.7 117.2 274.4 117.5 C 274.4 117.5 274.4 117.5 274.4 117.5 Z M 262.6 120.7 C 261.6 120.7 262.2 121.1 261.4 121.4 C 262.9 120.9 264.2 120.4 264.4 120.6 C 262.7 121.0 262.0 121.3 260.2 121.9 C 261.8 121.0 258.3 122.2 257.7 122.1 C 259.0 121.6 260.0 121.2 261.8 120.6 C 261.6 120.8 264.2 120.1 262.6 120.7 C 262.6 120.7 262.6 120.7 262.6 120.7 Z M 267.1 118.8 C 267.5 118.9 270.0 117.9 269.6 118.3 C 268.0 118.8 267.5 119.1 267.9 119.2 C 266.8 119.6 266.6 119.5 265.5 119.9 C 264.8 119.8 266.7 119.2 267.2 118.9 C 266.8 119.0 266.5 119.1 267.1 118.8 C 267.1 118.8 267.1 118.8 267.1 118.8 Z M 313.5 90.2 C 314.1 90.0 312.4 91.8 312.0 92.1 C 312.6 91.7 312.5 92.0 311.4 93.2 C 311.6 92.5 310.0 94.3 308.7 95.0 C 308.6 95.4 310.1 94.2 308.4 95.7 C 307.1 96.8 305.9 97.9 303.6 99.7 C 303.0 99.8 304.0 99.1 304.5 98.5 C 303.0 99.7 303.3 99.2 302.1 100.1 C 302.4 100.0 301.5 100.8 301.0 101.0 C 303.1 99.4 297.9 102.7 300.2 101.1 C 300.3 101.1 300.8 100.6 301.3 100.2 C 301.0 100.9 303.8 98.8 304.5 98.5 C 305.2 97.2 308.1 95.1 310.9 92.7 C 311.2 92.6 310.4 93.5 311.1 92.9 C 311.1 92.7 311.9 91.9 312.3 91.4 C 312.3 91.6 312.7 91.3 313.2 90.7 C 313.2 90.6 313.2 90.6 313.5 90.2 C 313.5 90.2 313.5 90.2 313.5 90.2 Z M 139.5 132.0 C 139.7 131.5 135.2 131.5 133.9 131.5 C 134.2 131.0 142.1 131.7 139.5 132.0 C 139.5 132.0 139.5 132.0 139.5 132.0 Z M 167.3 132.4 C 166.1 132.4 167.0 132.7 165.9 132.7 C 165.9 132.4 163.1 132.9 163.1 132.7 C 164.4 132.4 165.2 132.5 167.3 132.4 C 167.3 132.4 167.3 132.4 167.3 132.4 Z M 192.9 131.5 C 190.9 131.7 194.0 131.5 193.6 131.7 C 191.9 131.8 190.0 131.9 190.1 131.7 C 191.7 131.7 192.7 131.3 192.9 131.5 C 192.9 131.5 192.9 131.5 192.9 131.5 Z M 154.5 132.1 C 152.8 131.9 155.6 131.7 155.9 131.9 C 154.0 131.9 157.2 132.1 158.8 132.1 C 158.7 132.4 158.0 132.3 158.8 132.6 C 156.2 132.6 158.3 132.3 156.6 132.3 C 155.4 132.4 156.7 132.4 156.6 132.6 C 155.9 132.6 155.2 132.6 154.5 132.5 C 154.5 132.4 154.5 132.3 154.5 132.1 C 155.4 132.2 156.2 132.2 155.9 132.0 C 155.2 132.0 155.1 132.1 154.5 132.1 C 154.5 132.1 154.5 132.1 154.5 132.1 Z M 281.0 111.4 C 279.6 112.0 280.9 111.6 281.9 111.2 C 282.1 110.9 282.7 110.2 284.2 109.7 C 281.1 111.4 285.4 109.6 283.6 110.5 C 282.8 110.6 281.0 111.8 279.3 112.4 C 278.6 112.5 280.1 111.5 281.0 111.4 C 281.0 111.4 281.0 111.4 281.0 111.4 Z M 286.8 108.8 C 286.6 108.9 286.1 109.1 285.1 109.6 C 286.1 108.9 284.6 109.5 285.9 108.9 C 285.8 109.0 289.9 107.0 287.5 108.3 C 285.3 109.3 288.2 108.1 289.2 107.7 C 288.1 108.2 286.3 109.4 286.0 109.3 C 286.5 109.1 287.0 108.8 286.8 108.8 C 286.8 108.8 286.8 108.8 286.8 108.8 Z M 319.0 81.0 C 318.9 80.8 318.5 81.6 318.3 81.8 C 319.5 79.6 320.1 77.7 320.5 76.6 C 320.2 77.6 320.4 77.7 320.7 77.1 C 320.2 78.2 320.3 78.5 320.0 78.8 C 320.2 77.8 319.6 79.7 319.0 81.0 C 319.0 81.0 319.0 81.0 319.0 81.0 Z M 319.0 81.0 " fill="#000000"></path><image xlink:href="../../CEFA4209-80C9-472B-8D2B-058B96531B72/assets/431BD2BFE54A6EFCB4B133EE2A4ED9FC.png" width="209.00" height="56.00" transform="matrix(1.00, 0.00, -0.00, -1.00, 62.0, 88.0)"></image><g><clipPath id="clip-1068"><path d="M 5.3 5.8 L 324.0 5.8 L 324.0 134.2 L 5.3 134.2 Z M 5.3 5.8 "></path></clipPath><g clip-path="url(#clip-1068)"><text xml:space="preserve" font-family="Chalkduster" font-size="32.0" fill="#000000" transform="matrix(1.00, 0.00, -0.00, -1.00, 65.0, 56.0)">L</text><text xml:space="preserve" font-family="Chalkduster" font-size="32.0" fill="#000000" transform="matrix(1.00, 0.00, -0.00, -1.00, 85.3, 56.0)">i</text><text xml:space="preserve" font-family="Chalkduster" font-size="32.0" fill="#000000" transform="matrix(1.00, 0.00, -0.00, -1.00, 97.9, 56.0)">n</text><text xml:space="preserve" font-family="Chalkduster" font-size="32.0" fill="#000000" transform="matrix(1.00, 0.00, -0.00, -1.00, 121.4, 56.0)">k</text><text xml:space="preserve" font-family="Chalkduster" font-size="32.0" fill="#000000" transform="matrix(1.00, 0.00, -0.00, -1.00, 146.3, 56.0)"> </text><text xml:space="preserve" font-family="Chalkduster" font-size="32.0" fill="#000000" transform="matrix(1.00, 0.00, -0.00, -1.00, 162.2, 56.0)">S</text><text xml:space="preserve" font-family="Chalkduster" font-size="32.0" fill="#000000" transform="matrix(1.00, 0.00, -0.00, -1.00, 178.1, 56.0)">p</text><text xml:space="preserve" font-family="Chalkduster" font-size="32.0" fill="#000000" transform="matrix(1.00, 0.00, -0.00, -1.00, 198.2, 56.0)">e</text><text xml:space="preserve" font-family="Chalkduster" font-size="32.0" fill="#000000" transform="matrix(1.00, 0.00, -0.00, -1.00, 218.1, 56.0)">e</text><text xml:space="preserve" font-family="Chalkduster" font-size="32.0" fill="#000000" transform="matrix(1.00, 0.00, -0.00, -1.00, 238.9, 56.0)">d</text></g></g></g></svg>