<?xml version="1.0" encoding="UTF-8" standalone="no"?><svg xmlns="http://www.w3.org/2000/svg" xmlns:xlink="http://www.w3.org/1999/xlink" clip-rule="evenodd" stroke-miterlimit="4.00" viewBox="0 0 330 139"><desc>SVG generated by Keynote</desc><defs></defs><g transform="matrix(1.00, 0.00, -0.00, -1.00, 0.0, 139.0)"><g><clipPath id="clip-305"><path d="M 277.4 115.0 C 339.6 89.9 339.6 49.2 277.4 24.2 C 215.2 -0.9 114.3 -0.9 52.0 24.2 C -10.2 49.2 -10.2 89.9 52.0 115.0 C 114.3 140.0 215.2 140.0 277.4 115.0 Z M 277.4 115.0 "></path></clipPath><g clip-path="url(#clip-305)"><image xlink:href="../../CEFA4209-80C9-472B-8D2B-058B96531B72/assets/59DBD66EA15A3D40E065F836EF2595FD.jpeg" width="400.00" height="400.00" transform="matrix(1.00, 0.00, -0.00, -1.00, 5.4, 133.8)"></image></g></g><path d="M 82.0 10.7 C 81.5 10.8 80.9 11.0 80.0 11.2 C 80.4 11.2 80.8 11.2 80.7 11.3 C 81.4 11.1 82.4 10.8 84.0 10.5 C 83.9 10.4 83.1 10.6 82.6 10.7 C 82.0 10.8 82.1 10.7 82.0 10.7 C 82.0 10.7 82.0 10.7 82.0 10.7 Z M 66.8 123.7 C 65.6 123.3 66.8 123.9 67.3 124.1 C 67.4 124.1 67.5 124.0 67.9 124.2 C 68.0 124.4 66.9 124.2 66.1 124.0 C 62.7 122.8 65.3 123.2 66.8 123.7 C 66.8 123.7 66.8 123.7 66.8 123.7 Z M 251.1 126.8 C 253.9 126.1 250.9 126.6 250.4 126.6 C 251.7 126.2 250.6 126.1 252.2 125.7 C 252.5 125.7 253.2 125.6 253.5 125.7 C 252.8 125.9 251.7 126.1 251.6 126.2 C 252.6 126.0 253.9 125.6 254.2 125.6 C 252.0 126.3 253.9 126.0 254.3 126.0 C 252.4 126.5 251.8 126.9 251.1 126.8 C 251.1 126.8 251.1 126.8 251.1 126.8 Z M 301.2 33.2 C 302.1 33.8 302.8 34.2 302.5 34.2 C 301.6 33.6 301.0 33.2 300.5 32.9 C 300.3 32.8 300.5 33.1 299.7 32.6 C 298.9 31.9 299.5 31.9 300.1 32.1 C 300.0 32.3 303.1 34.2 301.2 33.2 C 301.2 33.2 301.2 33.2 301.2 33.2 Z M 225.6 7.9 C 223.1 7.4 225.4 8.2 222.9 7.7 C 223.0 7.5 222.6 7.2 224.3 7.5 C 224.5 7.6 225.4 7.8 225.6 7.9 C 225.6 7.9 225.6 7.9 225.6 7.9 Z M 173.1 135.0 C 173.1 135.1 175.1 135.0 174.6 135.3 C 173.6 135.3 172.7 135.3 171.7 135.3 C 171.5 135.1 171.9 135.0 173.1 135.0 C 173.1 135.0 173.1 135.0 173.1 135.0 Z M 268.7 119.1 C 271.4 118.4 274.1 117.0 273.3 117.6 C 274.4 117.4 271.7 118.9 271.7 118.6 C 271.4 118.5 266.6 119.8 268.7 119.1 C 268.7 119.1 268.7 119.1 268.7 119.1 Z M 82.1 123.6 C 85.1 124.5 84.6 123.7 86.6 124.5 C 85.9 124.3 85.5 124.3 85.3 124.4 C 85.8 124.5 86.5 124.6 86.5 124.7 C 85.1 124.4 83.3 124.1 82.1 123.6 C 82.1 123.6 82.1 123.6 82.1 123.6 Z M 128.3 3.7 C 128.8 3.7 129.1 3.6 129.0 3.5 C 131.2 3.3 131.1 3.1 132.5 3.2 C 132.6 3.5 130.8 3.5 129.0 3.6 C 129.0 3.7 128.4 3.8 128.3 3.7 C 128.3 3.7 128.3 3.7 128.3 3.7 Z M 191.5 3.8 C 191.4 3.6 190.1 3.5 192.2 3.5 C 194.5 4.0 192.4 4.1 190.0 4.0 C 190.0 4.1 190.0 4.3 190.0 4.4 C 191.0 4.4 191.6 4.5 192.1 4.6 C 192.6 4.2 194.1 5.0 197.8 5.1 C 196.1 5.1 197.9 5.6 195.6 5.2 C 196.2 5.5 194.6 5.4 194.9 5.6 C 195.9 5.5 198.3 5.8 197.8 5.4 C 199.0 5.5 200.0 5.6 200.6 5.8 C 201.5 6.1 198.3 5.6 199.2 5.9 C 199.9 6.0 200.0 6.1 200.5 6.1 C 200.7 6.1 200.4 5.9 201.3 6.0 C 203.5 6.3 200.8 6.2 204.0 6.6 C 204.2 6.4 203.3 6.3 203.4 6.2 C 204.8 6.2 204.7 6.4 206.2 6.4 C 206.4 6.6 205.1 6.5 206.2 6.6 C 207.1 6.4 209.1 7.2 211.1 7.1 C 209.8 6.4 211.4 7.2 213.2 7.0 C 213.6 7.2 212.3 7.3 213.8 7.5 C 213.4 6.8 219.5 7.8 214.6 6.7 C 217.2 7.0 218.2 6.7 216.1 6.3 C 220.7 7.1 219.2 6.5 221.0 6.8 C 222.7 7.0 220.0 6.8 220.9 7.1 C 219.1 6.8 219.5 7.0 218.2 6.7 C 218.2 6.8 217.8 6.8 217.4 6.8 C 219.3 6.9 221.5 7.6 220.1 7.7 C 219.2 7.5 220.1 7.4 218.8 7.2 C 219.2 7.6 217.5 6.9 217.4 7.1 C 218.2 7.6 215.5 7.5 218.0 7.9 C 218.0 7.7 218.0 7.6 218.1 7.5 C 218.7 7.6 219.4 7.7 220.1 7.8 C 220.6 8.1 220.1 8.2 220.7 8.4 C 221.9 8.5 222.5 8.6 222.8 8.5 C 221.4 8.2 219.8 7.8 222.1 8.1 C 221.2 8.4 225.4 8.7 223.5 8.7 C 226.0 9.2 227.3 9.1 227.5 9.4 C 228.8 9.7 228.0 9.2 229.5 9.6 C 232.0 10.2 231.6 9.8 234.8 10.6 C 235.3 10.3 235.2 10.8 236.2 11.0 C 236.2 10.8 236.2 10.7 236.3 10.6 C 237.4 11.0 240.0 11.7 242.7 12.0 C 243.4 12.3 242.9 12.4 244.6 12.7 C 246.6 12.8 248.7 13.7 251.0 14.0 C 251.2 14.2 252.7 14.6 253.5 14.7 C 253.8 14.9 252.7 14.9 254.1 15.3 C 255.0 15.3 253.4 14.8 255.4 15.2 C 255.1 15.4 257.2 15.5 257.2 15.8 C 256.6 15.7 255.9 15.6 255.3 15.5 C 256.1 15.8 255.9 15.8 256.5 16.0 C 256.5 15.7 257.9 16.4 258.4 16.6 C 258.3 16.4 258.6 16.4 259.1 16.4 C 260.1 16.7 260.9 17.0 261.5 17.1 C 262.8 17.6 260.7 17.0 262.0 17.5 C 262.8 17.1 264.0 18.2 266.9 18.7 C 267.4 19.1 268.5 19.6 270.3 20.2 C 270.5 20.1 268.6 19.6 268.6 19.4 C 271.1 20.3 268.2 19.1 269.8 19.7 C 271.6 20.4 273.1 20.9 274.6 21.5 C 276.0 22.1 277.3 22.6 280.2 24.0 C 280.2 23.8 284.8 25.6 284.6 25.6 C 283.5 25.2 286.9 27.0 288.6 27.9 C 289.3 27.8 292.1 28.8 292.3 28.7 C 292.8 29.2 292.7 29.1 292.8 29.6 C 295.6 31.2 297.1 31.7 298.5 33.0 C 298.5 32.8 299.8 33.5 300.8 34.1 C 300.4 34.0 299.7 33.8 299.1 33.6 C 300.5 34.4 300.6 34.6 301.8 35.4 C 303.3 35.6 304.6 37.5 305.8 37.6 C 307.5 38.9 307.1 38.8 308.5 40.0 C 308.5 39.9 308.8 39.9 309.2 40.2 C 308.2 39.5 307.4 39.1 307.0 38.4 C 309.3 40.1 303.0 34.6 307.0 37.2 C 307.0 37.4 306.6 37.3 307.4 37.9 C 309.6 39.5 308.5 38.3 307.6 37.7 C 309.1 38.7 310.4 39.9 309.5 38.8 C 312.7 41.3 310.6 39.8 311.5 40.8 C 316.9 45.3 322.3 51.4 324.7 58.6 C 325.1 58.7 326.1 62.6 326.1 63.9 C 326.8 65.8 327.0 68.0 326.7 68.6 C 327.0 69.0 326.4 71.1 326.7 71.3 C 326.7 70.4 326.9 69.9 326.9 70.8 C 326.6 73.7 325.5 78.0 325.1 79.8 C 324.4 80.7 323.7 82.6 323.2 83.9 C 323.0 84.0 323.4 83.0 323.0 83.8 C 323.0 84.1 321.7 86.8 321.1 87.4 C 321.6 86.6 321.9 85.5 321.1 86.7 C 321.3 86.8 320.3 88.1 320.7 87.9 C 319.5 89.5 318.9 90.5 317.7 91.8 C 318.6 90.7 319.0 89.9 319.0 89.6 C 318.4 90.7 317.9 91.4 317.1 92.1 C 317.5 92.1 316.1 93.5 314.7 95.1 C 314.2 95.4 313.8 95.7 312.5 96.9 C 312.0 97.6 314.7 95.2 313.3 96.6 C 313.2 96.5 311.7 97.7 312.2 97.6 C 310.4 99.1 309.5 100.1 307.8 101.1 C 309.9 99.6 308.1 100.5 307.6 100.9 C 307.1 101.2 306.4 101.7 306.5 101.8 C 306.5 101.9 307.5 101.1 307.7 101.1 C 306.2 102.1 306.0 102.7 305.4 102.9 C 306.0 102.4 306.1 102.2 305.3 102.8 C 305.3 103.2 300.5 106.1 302.0 104.9 C 302.1 105.0 303.9 103.8 304.0 103.6 C 303.4 103.8 300.8 105.7 301.3 105.1 C 302.8 104.1 302.8 104.3 304.5 103.0 C 304.6 102.8 305.6 102.0 306.2 101.4 C 303.5 103.4 303.0 104.1 302.4 104.1 C 301.2 104.9 302.1 104.7 299.9 106.0 C 296.7 107.9 299.2 106.1 298.3 106.5 C 295.5 108.3 296.6 108.1 297.9 107.6 C 295.6 108.9 295.0 109.5 292.0 111.0 C 292.1 110.7 292.4 110.4 293.4 109.8 C 293.5 109.9 296.0 108.7 295.7 108.7 C 295.3 108.5 293.4 109.4 290.1 111.0 C 291.0 111.0 291.1 110.7 287.7 112.4 C 288.4 112.4 286.0 113.1 286.1 113.3 C 286.3 113.3 287.5 112.8 288.6 112.2 C 288.6 112.4 288.2 112.7 287.1 113.3 C 286.3 113.5 285.8 113.9 283.7 114.8 C 283.4 114.7 284.9 113.9 285.2 113.6 C 284.0 114.2 283.8 114.4 282.6 115.0 C 281.5 115.2 281.5 114.9 281.4 114.5 C 282.8 113.9 284.9 112.9 283.1 113.5 C 288.2 111.3 283.0 114.0 285.0 113.1 C 286.9 111.9 286.0 112.8 289.1 111.2 C 290.0 110.8 290.3 110.5 290.7 110.3 C 290.4 110.4 288.5 111.0 290.5 110.0 C 291.1 109.9 292.2 109.5 293.7 108.7 C 293.7 108.6 290.5 110.2 293.6 108.5 C 295.2 107.6 294.0 108.7 296.0 107.5 C 296.0 107.4 296.5 107.1 296.6 106.9 C 293.7 108.7 297.1 106.4 295.1 107.5 C 297.6 105.9 295.6 107.5 297.3 106.5 C 297.3 106.3 300.0 104.9 299.9 104.6 C 299.0 105.4 297.0 106.6 297.1 106.2 C 299.0 105.1 306.6 99.7 303.9 102.1 C 304.9 101.2 309.6 97.0 309.3 97.4 C 307.9 98.6 308.1 98.7 308.0 99.0 C 310.5 96.6 312.0 95.6 314.1 92.8 C 311.5 95.5 313.2 93.2 311.4 94.6 C 310.7 95.3 309.6 96.3 309.4 96.5 C 309.9 96.4 311.1 95.2 311.5 94.7 C 311.6 94.8 311.7 95.0 311.9 95.1 C 308.6 97.9 306.7 99.7 304.8 100.9 C 306.4 99.7 301.6 102.8 303.4 101.4 C 304.3 101.0 306.1 99.7 307.6 98.6 C 307.6 98.5 307.5 98.4 307.5 98.4 C 308.1 97.8 309.0 97.1 309.0 97.0 C 307.1 98.7 305.9 99.3 304.5 100.5 C 304.5 100.5 304.5 100.4 304.4 100.4 C 304.1 100.7 303.7 100.9 303.8 100.8 C 304.5 100.2 305.5 99.5 305.5 99.4 C 304.0 100.5 303.6 100.5 301.7 101.7 C 302.0 101.2 299.4 102.6 302.0 100.7 C 302.6 100.6 304.0 99.7 304.0 99.8 C 304.8 99.4 306.2 98.2 306.8 97.6 C 306.0 98.0 304.6 99.0 304.3 98.9 C 305.4 98.0 306.3 97.2 307.1 96.8 C 304.9 98.8 308.4 96.0 309.4 95.4 C 309.1 95.6 308.6 95.9 308.2 96.1 C 309.9 94.6 310.7 94.1 310.6 93.8 C 312.4 91.9 312.1 92.5 313.3 91.2 C 312.3 91.8 314.0 90.3 313.0 90.9 C 314.8 88.8 313.7 90.5 314.4 89.8 C 314.9 89.1 314.9 88.9 315.4 88.3 C 316.3 87.4 317.6 85.5 318.1 85.4 C 318.6 84.5 318.8 84.5 319.3 83.6 C 319.3 83.3 319.4 83.0 319.6 82.6 C 319.7 82.5 320.1 81.9 320.1 81.7 C 318.6 83.9 319.0 83.2 317.2 85.5 C 317.1 85.7 316.9 86.1 317.4 85.6 C 316.3 87.3 315.8 87.7 314.6 89.2 C 314.3 89.2 313.8 89.3 312.8 90.7 C 312.9 90.3 312.5 90.6 312.9 90.0 C 313.6 89.4 314.5 88.5 315.4 87.6 C 315.3 87.4 315.1 87.5 315.5 87.0 C 316.0 86.6 316.5 85.9 316.8 85.2 C 316.9 85.3 316.9 85.5 316.7 85.8 C 318.3 83.7 317.5 84.3 318.6 82.7 C 318.3 82.8 317.7 83.9 318.1 82.9 C 318.9 81.4 319.2 81.1 319.6 80.4 C 319.6 80.2 319.5 80.2 319.7 79.8 C 320.3 78.8 319.0 82.4 320.2 80.6 C 320.0 80.4 320.9 78.5 321.1 78.3 C 321.1 79.0 320.3 80.0 320.5 80.2 C 322.0 76.7 321.1 80.2 322.2 76.6 C 322.1 76.6 322.0 76.6 321.9 76.6 C 321.6 78.0 321.3 78.0 321.1 77.8 C 320.7 79.0 320.2 79.4 319.9 80.5 C 319.6 79.9 320.3 79.5 320.8 78.2 C 320.6 78.2 320.1 79.3 319.8 79.4 C 321.2 76.6 321.0 75.9 321.8 73.3 C 321.4 73.9 322.0 71.7 321.8 71.9 C 321.6 74.3 321.0 73.2 320.8 73.5 C 320.6 75.0 321.1 74.5 321.1 75.4 C 320.7 75.8 320.7 75.5 320.4 75.2 C 320.8 73.9 320.7 74.1 320.7 73.0 C 321.1 72.2 321.6 71.5 321.6 72.7 C 321.6 72.5 321.6 70.7 321.8 70.5 C 321.7 72.3 321.9 70.4 322.0 71.4 C 322.2 70.1 321.9 67.7 321.9 66.1 C 321.7 66.2 321.6 65.6 321.5 65.7 C 322.0 67.3 321.5 67.7 321.5 69.2 C 321.4 68.5 321.3 68.9 321.2 69.2 C 321.3 67.7 321.0 66.9 321.1 65.8 C 321.0 65.8 320.9 65.8 320.8 65.8 C 320.7 63.9 320.7 64.2 320.1 62.8 C 320.1 62.2 320.7 62.9 321.0 63.0 C 320.7 62.4 319.9 59.8 320.1 61.4 C 319.6 59.9 320.1 60.1 319.4 58.6 C 319.1 58.7 319.7 60.1 319.2 59.7 C 318.6 58.3 319.2 59.0 318.5 57.9 C 318.6 57.8 318.8 57.6 318.1 56.4 C 318.5 57.4 318.0 56.4 317.7 56.1 C 318.0 56.7 318.2 57.2 318.3 57.5 C 317.2 55.3 316.9 54.9 315.6 53.1 C 316.2 53.6 315.6 52.6 316.6 53.7 C 315.6 52.7 314.8 51.1 314.2 50.6 C 314.7 51.4 315.6 52.5 315.8 53.0 C 313.2 49.5 311.2 47.9 308.1 44.7 C 308.7 45.2 309.4 45.9 309.6 46.0 C 309.2 45.6 308.6 45.1 308.7 45.0 C 309.8 46.1 310.9 47.1 311.5 47.6 C 312.3 48.6 310.8 47.2 311.7 48.2 C 312.0 48.2 313.5 50.2 313.2 49.3 C 311.5 47.8 310.1 46.0 309.5 45.0 C 307.6 43.8 309.2 45.2 307.0 44.0 C 307.1 43.9 306.7 43.5 306.1 42.9 C 306.5 43.7 304.1 41.6 303.9 41.4 C 304.9 42.0 308.5 44.7 306.9 43.0 C 307.4 44.1 302.8 39.6 303.5 40.7 C 301.0 38.9 302.1 39.3 300.5 38.6 C 300.5 38.5 300.8 38.5 300.0 38.0 C 299.3 37.5 299.0 37.4 298.6 37.2 C 302.4 39.8 301.1 39.4 303.3 41.0 C 302.9 40.7 302.5 40.5 302.6 40.6 C 302.6 40.7 302.5 40.7 302.0 40.3 C 302.0 39.9 300.1 39.0 299.7 38.5 C 300.4 39.0 301.1 39.5 301.0 39.2 C 297.9 37.2 298.8 37.2 294.0 34.4 C 295.4 35.3 293.4 34.3 291.7 33.4 C 289.3 32.0 290.5 32.1 287.3 30.6 C 287.3 31.3 284.0 28.9 279.7 27.5 C 280.0 27.4 278.8 26.8 277.3 26.2 C 275.8 25.5 275.1 25.3 274.7 25.3 C 274.7 25.2 273.4 24.7 272.6 24.4 C 272.4 24.2 273.4 24.5 272.6 24.2 C 271.9 23.9 272.5 24.4 271.4 24.1 C 270.3 23.6 270.6 23.4 268.8 22.8 C 268.6 22.9 269.6 23.2 268.6 23.1 C 267.1 22.4 265.6 21.9 266.9 22.6 C 264.4 21.8 265.8 21.8 263.5 21.1 C 264.1 21.4 264.1 21.5 262.8 21.1 C 262.0 20.7 262.0 20.5 261.8 20.4 C 261.0 20.3 261.2 20.4 259.3 19.8 C 259.3 19.9 259.3 20.0 259.2 20.1 C 258.4 19.8 257.1 19.5 256.9 19.3 C 258.5 19.8 258.1 19.5 258.8 19.6 C 257.1 19.1 254.0 17.9 256.3 18.9 C 254.0 18.4 255.2 18.3 253.4 17.9 C 254.4 18.5 253.4 17.9 251.5 17.5 C 251.6 17.8 250.2 17.2 249.0 16.9 C 249.1 17.1 248.8 17.2 247.7 16.9 C 247.8 16.8 247.1 16.6 245.8 16.3 C 245.8 16.4 248.4 17.2 245.8 16.5 C 244.6 16.1 244.6 15.9 242.6 15.4 C 242.3 15.1 244.5 15.7 244.0 15.3 C 242.4 15.2 241.9 14.9 239.5 14.3 C 240.4 14.9 234.6 13.9 237.4 14.7 C 236.6 14.5 235.4 14.6 234.8 14.2 C 235.7 14.3 234.2 13.8 234.2 13.8 C 233.1 13.6 230.4 12.9 230.3 13.1 C 232.8 13.5 232.8 13.7 233.5 14.0 C 229.9 13.5 226.6 12.8 226.9 12.6 C 226.9 12.7 226.4 12.6 226.2 12.6 C 227.6 12.8 228.3 13.4 226.8 13.1 C 227.2 13.0 226.1 12.7 224.9 12.4 C 224.8 12.6 220.0 11.5 220.9 12.0 C 222.9 12.1 224.4 12.7 222.8 12.6 C 221.6 12.2 218.9 11.7 219.6 11.6 C 218.8 11.5 218.2 11.5 217.5 11.5 C 216.9 11.7 218.4 11.9 218.1 12.0 C 217.1 11.9 215.6 11.7 215.4 11.5 C 218.1 11.9 214.0 11.2 216.8 11.4 C 215.1 11.2 214.7 11.0 213.4 10.8 C 213.4 10.9 212.8 10.8 212.7 10.9 C 213.9 10.9 215.1 11.2 214.7 11.4 C 212.3 11.1 212.7 10.9 210.6 10.6 C 210.0 10.7 207.2 10.7 205.8 10.4 C 208.5 10.7 205.6 10.2 207.2 10.3 C 209.7 10.7 210.4 10.6 211.3 10.5 C 210.3 10.2 208.2 9.9 207.9 10.1 C 209.2 10.3 209.3 10.2 210.0 10.2 C 209.9 10.4 209.5 10.4 208.6 10.4 C 207.4 10.1 204.8 10.0 206.6 9.8 C 204.8 9.8 202.9 9.3 201.0 9.3 C 203.0 9.6 204.5 9.8 205.1 10.1 C 203.4 10.0 201.7 9.5 201.7 9.7 C 201.8 10.0 204.6 10.2 205.1 10.4 C 202.9 10.4 199.6 9.4 202.3 10.2 C 201.1 10.0 199.4 9.9 198.8 9.7 C 200.3 9.8 198.7 9.3 198.1 9.2 C 196.8 9.1 195.8 9.1 195.3 9.2 C 197.3 9.2 198.8 9.7 197.4 9.6 C 197.1 9.4 196.7 9.5 196.0 9.5 C 195.9 9.4 193.7 9.3 193.3 9.2 C 193.4 9.3 194.4 9.4 194.6 9.5 C 193.3 9.5 191.4 9.7 190.4 9.3 C 191.2 9.3 192.4 9.4 192.5 9.4 C 188.9 8.7 187.7 8.4 183.4 8.0 C 183.9 8.0 184.2 8.0 184.1 7.9 C 181.3 7.7 179.5 7.5 179.9 7.4 C 178.1 7.4 177.2 7.5 176.3 7.6 C 178.1 7.8 178.8 7.6 179.9 7.8 C 179.2 7.8 181.2 8.3 182.0 8.5 C 185.0 8.4 185.2 8.8 188.3 8.8 C 187.4 9.0 190.6 9.0 189.7 9.2 C 186.8 8.7 184.0 8.8 179.8 8.5 C 180.4 8.3 180.9 8.2 179.2 8.0 C 176.5 7.8 177.8 8.2 175.6 8.0 C 174.7 7.8 176.0 7.8 174.9 7.7 C 174.1 7.8 172.0 7.7 171.3 7.5 C 174.2 7.5 170.8 7.2 172.7 7.2 C 171.8 7.1 171.2 7.1 170.6 7.0 C 173.4 7.4 167.7 7.4 169.9 7.6 C 165.9 7.7 169.6 7.0 166.3 7.0 C 167.9 7.2 165.8 7.3 163.5 7.2 C 162.8 7.0 160.4 7.0 158.5 6.9 C 159.5 7.1 160.3 7.0 158.5 7.2 C 159.4 7.3 161.1 7.3 162.0 7.2 C 162.0 7.3 162.4 7.3 162.8 7.4 C 160.4 7.5 161.4 7.6 160.6 7.7 C 159.9 7.6 158.2 7.6 157.8 7.5 C 157.8 7.5 157.2 7.6 157.1 7.6 C 160.1 7.6 156.6 8.0 158.5 8.0 C 159.8 8.0 159.0 7.7 160.6 7.7 C 162.2 8.0 159.3 8.1 158.5 8.3 C 159.9 8.5 161.5 8.2 162.0 8.5 C 160.2 8.7 157.3 8.6 155.0 8.6 C 155.1 8.9 151.0 8.6 150.7 9.0 C 150.3 8.9 149.9 8.9 149.3 8.8 C 148.6 9.1 147.8 8.8 147.1 8.8 C 147.1 9.0 147.3 9.1 147.8 9.1 C 144.9 9.1 144.3 9.2 140.8 9.5 C 140.3 9.4 139.6 9.3 139.4 9.1 C 140.2 9.0 140.9 8.9 141.5 8.8 C 136.8 9.1 139.9 9.5 136.6 9.4 C 136.7 9.5 139.0 9.6 137.3 9.8 C 134.3 9.7 130.2 10.4 130.3 9.7 C 127.7 9.7 125.9 10.3 124.7 10.1 C 123.9 10.2 123.6 10.3 123.3 10.4 C 124.1 10.5 125.1 10.5 126.1 10.5 C 127.6 10.3 128.3 10.4 126.8 10.2 C 129.1 10.0 129.7 10.1 131.0 10.1 C 127.8 10.5 124.9 10.6 124.8 11.0 C 123.7 11.0 122.9 10.9 122.0 10.8 C 121.7 11.0 118.1 11.5 117.8 11.3 C 120.2 11.1 122.7 10.5 120.5 10.6 C 114.6 11.4 111.3 11.5 106.3 12.5 C 106.1 12.4 106.5 12.2 105.6 12.3 C 105.6 12.5 105.4 12.6 104.9 12.8 C 103.3 13.0 102.4 13.0 100.3 13.5 C 100.4 13.2 100.0 13.1 98.8 13.2 C 98.2 13.6 96.2 14.5 95.0 14.6 C 96.3 14.4 94.6 14.4 93.7 14.6 C 94.5 14.8 87.8 15.5 89.8 15.5 C 87.2 16.0 86.0 16.2 85.9 16.1 C 85.0 16.3 84.4 16.6 83.4 16.8 C 82.8 16.6 78.4 18.0 77.8 18.0 C 79.3 17.7 79.5 17.3 78.3 17.6 C 77.5 18.0 73.7 19.3 72.9 19.4 C 73.2 19.3 73.4 19.0 75.3 18.4 C 72.0 19.2 72.2 19.6 71.2 20.1 C 71.2 19.8 69.8 20.5 69.4 20.7 C 68.3 20.8 69.4 20.6 69.3 20.4 C 68.2 20.7 67.7 20.7 66.3 21.1 C 66.8 21.2 65.1 21.6 64.6 21.8 C 64.4 22.0 63.6 22.4 62.4 22.9 C 63.9 21.9 55.1 25.0 57.2 24.5 C 55.6 25.4 55.4 24.9 53.3 25.8 C 52.9 26.1 51.7 26.5 52.9 26.2 C 52.0 26.6 51.2 26.9 50.8 26.9 C 50.4 27.0 49.9 27.2 48.3 27.9 C 49.9 27.6 45.1 29.3 46.0 29.3 C 44.4 29.5 42.2 31.3 39.6 32.2 C 39.6 32.3 38.9 32.6 38.8 32.8 C 38.5 33.1 41.9 31.4 39.7 32.5 C 37.1 33.7 38.5 32.9 38.0 33.0 C 31.3 36.8 24.5 41.3 19.9 45.5 C 20.5 45.1 20.5 45.2 19.6 46.1 C 18.0 47.0 13.8 52.2 13.4 53.1 C 12.8 53.4 11.4 56.1 11.0 56.5 C 11.3 56.0 11.6 54.9 11.0 56.0 C 10.9 56.8 10.2 57.7 9.9 58.8 C 9.4 59.2 8.5 62.5 8.6 60.9 C 8.3 61.5 8.2 61.8 8.0 62.2 C 8.3 62.3 8.1 62.9 8.6 61.9 C 7.4 64.7 7.6 65.5 7.2 67.7 C 7.4 68.1 7.6 66.4 7.6 67.7 C 7.5 67.7 7.5 67.7 7.4 67.7 C 7.4 68.2 7.5 68.3 7.3 68.6 C 7.2 68.5 7.3 67.7 7.0 67.7 C 7.0 68.8 6.7 69.5 6.9 69.9 C 6.9 68.4 7.4 69.4 7.2 70.3 C 7.0 69.5 7.5 73.9 8.0 75.2 C 7.9 76.0 7.6 73.7 7.5 73.9 C 8.0 76.6 8.0 76.4 8.4 76.6 C 8.7 78.0 8.7 78.6 9.6 80.2 C 9.9 81.2 9.2 79.7 9.6 80.7 C 9.9 81.3 10.2 81.5 10.7 82.4 C 11.5 85.1 16.5 90.2 18.7 93.4 C 17.8 92.2 19.3 93.5 20.9 94.9 C 20.9 95.1 20.6 95.0 21.2 95.5 C 21.2 95.3 21.8 95.7 22.9 96.7 C 22.9 96.8 22.6 96.8 23.3 97.3 C 23.9 97.4 25.2 98.8 26.2 99.3 C 26.5 99.8 24.0 97.8 23.8 97.9 C 26.5 100.2 27.2 100.4 29.7 102.1 C 28.4 101.3 30.5 102.9 30.8 103.2 C 30.4 102.6 32.5 103.8 31.1 102.7 C 32.1 103.4 33.6 104.2 33.8 104.5 C 33.2 104.1 32.4 103.6 32.3 103.7 C 33.6 104.4 35.1 105.6 35.9 105.7 C 35.0 105.2 34.5 104.8 34.6 104.7 C 34.9 104.8 35.4 105.0 36.1 105.3 C 33.8 104.7 40.0 107.8 40.5 107.8 C 40.9 108.5 41.3 108.7 41.0 108.7 C 43.7 110.1 43.5 109.7 45.2 110.4 C 44.6 110.4 43.9 110.4 46.6 111.7 C 46.1 111.2 49.5 112.7 48.6 111.9 C 55.8 114.9 55.5 115.0 58.3 116.0 C 58.4 116.0 57.5 115.6 58.4 115.9 C 59.7 116.4 60.8 116.9 61.6 117.4 C 62.4 117.4 61.4 117.0 62.3 117.3 C 64.4 118.2 63.8 118.3 65.6 119.1 C 68.0 119.7 67.1 119.5 68.6 119.7 C 68.0 119.5 67.2 119.2 68.1 119.4 C 69.5 120.1 70.0 120.5 70.3 120.7 C 69.3 120.4 68.5 120.1 68.0 119.9 C 67.6 119.9 66.1 119.4 67.3 120.0 C 65.8 119.4 64.2 118.9 62.0 118.2 C 62.7 118.7 60.1 117.6 60.8 118.1 C 63.2 118.8 63.7 119.2 66.0 119.9 C 65.6 119.5 67.9 120.4 68.4 120.6 C 68.4 120.4 70.1 121.0 69.7 120.6 C 71.5 121.1 71.4 121.3 73.3 121.8 C 73.4 121.9 73.1 122.0 73.8 122.2 C 74.6 122.1 75.1 122.6 75.7 122.8 C 75.3 122.4 78.0 123.2 78.2 123.1 C 77.5 122.9 76.5 122.7 76.4 122.5 C 79.4 123.4 77.0 122.5 76.5 122.1 C 76.6 122.3 75.4 122.3 75.2 122.1 C 77.8 122.6 71.8 120.7 74.0 121.4 C 75.9 122.0 75.9 121.8 77.8 122.3 C 80.0 123.4 77.2 122.9 79.4 123.8 C 80.9 124.0 81.8 124.3 82.0 124.1 C 82.3 124.2 82.6 124.4 83.2 124.6 C 83.8 124.6 81.4 123.9 83.3 124.3 C 84.2 124.6 83.0 124.7 85.1 125.1 C 86.0 125.1 82.7 124.2 84.6 124.6 C 86.5 125.4 84.2 124.4 86.5 124.9 C 86.6 125.0 87.0 125.1 87.8 125.3 C 87.9 125.4 87.5 125.5 88.3 125.7 C 88.9 125.4 89.2 126.1 90.9 126.3 C 91.9 126.2 89.2 125.8 89.7 125.7 C 91.6 126.4 92.8 126.3 93.6 126.5 C 92.0 126.4 96.1 127.1 96.1 127.4 C 95.7 127.0 96.6 127.3 98.9 127.5 C 99.0 128.0 101.6 128.1 102.2 128.6 C 102.5 128.5 103.2 128.5 103.5 128.5 C 102.7 128.3 102.0 128.2 102.2 128.1 C 102.9 128.2 103.5 128.3 104.3 128.4 C 105.4 128.8 102.4 128.9 106.9 129.5 C 106.4 129.1 108.3 129.4 109.6 129.4 C 109.5 129.1 107.8 129.2 107.6 129.0 C 109.2 129.0 110.7 129.5 111.6 129.7 C 114.3 130.0 117.5 130.6 121.3 130.9 C 122.2 131.2 118.1 130.7 120.6 131.1 C 121.7 131.3 121.2 131.0 122.7 131.2 C 121.2 132.1 133.2 132.4 133.9 132.9 C 134.4 132.7 137.8 133.1 137.4 132.8 C 135.1 132.8 133.6 132.4 132.5 132.1 C 130.4 132.1 134.4 132.6 132.5 132.5 C 132.3 132.3 129.4 132.2 129.7 132.0 C 132.7 132.2 128.1 131.6 130.4 131.6 C 133.2 131.9 138.8 132.0 137.5 132.2 C 137.5 132.1 136.2 132.0 136.1 132.1 C 139.3 132.5 141.1 132.4 142.5 132.3 C 143.9 132.6 149.6 132.5 148.1 132.6 C 148.6 132.8 144.7 132.3 145.3 132.6 C 151.2 133.0 151.3 132.8 155.2 133.0 C 154.0 132.7 159.3 132.7 158.9 132.8 C 158.9 133.0 160.0 133.2 162.4 133.0 C 162.1 133.2 163.3 133.3 164.6 133.4 C 165.1 133.2 163.5 133.2 163.8 133.0 C 165.0 133.0 166.2 133.0 167.4 133.0 C 167.5 133.1 167.3 133.2 168.1 133.2 C 169.5 133.1 174.3 132.7 173.8 132.9 C 171.8 133.2 177.1 133.1 173.9 133.4 C 174.8 133.3 174.8 133.4 176.0 133.4 C 176.0 133.3 176.0 133.2 176.0 133.1 C 178.7 133.0 177.3 133.4 179.6 133.3 C 179.8 133.2 180.8 133.2 181.0 133.0 C 180.1 133.1 180.1 133.2 178.9 133.2 C 180.2 132.8 176.5 133.1 176.7 132.8 C 179.2 132.7 179.2 132.9 180.3 133.0 C 183.4 132.7 181.9 132.9 185.3 132.8 C 185.3 132.7 184.4 132.7 184.6 132.6 C 188.6 132.4 188.2 133.0 190.9 132.6 C 190.3 132.7 187.8 133.0 189.6 132.9 C 191.4 132.7 192.0 132.4 194.4 132.2 C 194.6 132.3 194.4 132.4 195.2 132.4 C 196.2 132.2 196.3 132.0 197.3 131.8 C 197.5 131.9 198.8 131.7 199.4 131.6 C 200.3 131.7 199.1 131.9 200.2 131.9 C 202.2 131.7 203.2 131.0 204.9 130.9 C 204.9 131.2 206.8 130.9 208.5 130.7 C 208.8 131.0 212.4 130.5 214.7 130.2 C 214.2 130.1 216.6 129.8 216.0 129.7 C 214.9 129.8 214.3 129.8 214.0 129.8 C 216.7 129.4 217.5 129.8 219.5 129.1 C 220.5 129.1 221.8 129.1 223.5 128.9 C 223.7 128.7 220.3 129.1 222.2 128.8 C 222.3 128.8 222.9 128.7 223.5 128.5 C 223.3 128.9 224.7 128.7 225.6 128.7 C 227.1 128.2 230.5 128.0 228.9 128.0 C 231.4 127.5 229.8 128.2 231.7 127.9 C 230.7 127.7 233.9 127.1 232.2 127.2 C 234.7 126.6 234.6 127.1 233.6 127.4 C 235.9 127.0 236.4 126.7 237.6 126.6 C 236.5 126.6 239.9 125.7 238.2 126.2 C 237.7 126.6 240.3 125.9 240.8 125.9 C 240.0 125.9 241.2 125.7 239.5 125.9 C 241.2 125.5 243.7 124.9 245.3 124.7 C 247.4 124.1 249.3 123.6 248.5 124.1 C 250.4 123.5 249.7 123.7 251.6 123.3 C 251.6 123.2 251.1 123.3 250.9 123.3 C 253.6 122.6 253.1 122.9 256.6 121.9 C 256.2 122.3 258.4 121.7 259.1 121.7 C 257.7 122.1 256.5 122.3 255.4 122.6 C 255.2 122.8 256.3 122.5 255.5 122.8 C 255.3 122.7 254.8 122.9 254.2 123.0 C 256.5 122.6 251.4 124.2 253.0 123.5 C 253.0 123.5 253.1 123.5 253.6 123.4 C 253.1 123.3 253.1 123.3 253.5 123.0 C 252.4 123.4 251.4 123.3 251.0 123.7 C 251.1 123.7 252.2 123.4 252.3 123.5 C 249.5 124.4 251.4 123.4 249.2 124.0 C 248.7 124.4 249.9 124.2 250.5 124.2 C 248.4 124.8 246.6 125.2 246.0 125.1 C 244.1 125.7 246.2 125.3 244.9 125.8 C 244.2 125.8 244.2 125.6 242.9 125.9 C 241.4 126.3 243.7 125.9 242.3 126.3 C 240.7 126.5 243.3 125.7 240.9 126.2 C 241.5 126.4 238.7 126.6 238.9 126.7 C 240.3 126.4 240.4 126.8 239.7 126.7 C 236.4 127.0 234.3 128.4 231.1 128.4 C 231.1 128.5 230.6 128.6 230.4 128.7 C 232.9 128.4 236.4 127.7 237.1 127.9 C 239.0 127.5 238.7 127.3 239.0 127.1 C 241.3 127.0 241.1 127.1 239.9 127.7 C 236.1 128.6 234.5 128.7 231.9 129.0 C 230.6 129.5 232.1 129.1 232.6 129.2 C 224.7 130.4 230.8 130.0 228.0 130.4 C 228.0 130.3 227.4 130.3 226.6 130.4 C 226.6 130.5 225.5 130.7 225.3 130.8 C 225.8 130.7 226.1 130.7 226.0 130.8 C 224.0 131.2 224.7 130.9 224.6 130.7 C 226.1 130.5 227.1 130.3 227.3 130.1 C 225.3 130.6 223.8 130.6 222.5 131.1 C 220.6 131.0 223.4 130.2 222.4 130.1 C 222.7 129.9 221.2 130.9 219.8 131.2 C 217.3 131.6 217.3 131.8 215.0 132.2 C 214.3 132.0 217.2 131.7 217.0 131.5 C 216.3 131.6 216.2 131.6 215.6 131.7 C 214.0 131.9 214.1 132.1 212.9 132.3 C 212.2 132.2 211.8 132.4 210.8 132.6 C 209.3 132.7 211.7 132.3 210.1 132.4 C 208.4 132.6 207.2 133.0 206.6 133.1 C 206.5 133.0 206.7 132.8 205.9 132.9 C 204.0 133.3 203.5 133.4 206.0 133.2 C 203.8 133.4 202.8 133.6 203.2 133.8 C 206.5 133.5 207.3 133.4 208.8 133.6 C 209.4 133.2 210.4 133.3 211.6 133.2 C 210.8 132.9 213.0 133.0 213.7 132.7 C 212.9 132.8 212.0 132.8 211.6 132.8 C 215.0 132.4 215.0 132.5 217.7 131.7 C 217.7 131.8 218.1 131.8 218.4 131.8 C 217.6 132.1 215.1 132.3 215.0 132.5 C 217.0 132.6 217.6 132.0 219.9 132.0 C 220.8 131.7 218.0 132.0 219.8 131.7 C 220.7 131.7 221.9 131.7 223.3 131.6 C 224.7 131.3 225.5 131.1 226.6 130.8 C 226.8 130.9 226.9 130.9 228.0 130.7 C 228.0 130.6 226.8 130.7 228.0 130.5 C 231.6 130.2 234.0 129.9 237.4 129.1 C 236.2 129.3 233.4 129.6 234.7 129.3 C 236.3 129.2 238.4 128.4 240.0 128.3 C 240.5 128.3 238.1 128.6 238.7 128.9 C 240.3 128.6 241.2 128.4 242.0 128.3 C 242.0 128.1 243.8 127.8 243.3 127.7 C 242.0 127.9 241.7 128.3 241.3 128.3 C 242.3 127.4 246.1 127.4 248.5 126.9 C 250.0 126.4 247.3 126.9 249.0 126.4 C 250.1 126.0 250.9 126.4 249.2 126.9 C 248.0 127.1 247.5 127.5 247.2 127.3 C 246.7 127.5 246.0 127.6 246.0 127.7 C 246.9 127.5 246.7 127.7 247.3 127.6 C 246.0 127.9 246.0 128.4 244.8 128.4 C 245.5 128.2 245.7 128.1 246.0 127.9 C 242.6 128.8 241.5 128.9 239.5 129.2 C 240.6 129.1 239.4 129.3 239.5 129.5 C 241.0 129.1 243.9 128.6 242.2 129.1 C 241.0 129.0 240.2 130.0 238.9 129.9 C 239.8 129.7 239.7 129.6 240.2 129.4 C 238.8 129.7 238.9 129.5 237.5 129.7 C 233.3 131.0 229.8 131.0 222.8 132.6 C 220.3 133.0 225.0 132.2 224.8 132.0 C 224.1 132.1 223.9 132.1 223.4 132.1 C 223.4 132.4 222.1 132.3 221.4 132.7 C 221.4 132.4 218.1 133.1 216.5 133.2 C 216.4 133.3 216.6 133.4 215.8 133.5 C 210.7 133.8 201.4 135.3 197.5 135.3 C 197.7 135.5 196.0 135.6 195.5 135.8 C 193.0 135.9 194.1 135.7 190.5 136.2 C 188.7 136.3 190.8 136.0 191.2 135.9 C 185.7 136.4 181.0 136.3 177.5 136.7 C 175.8 136.9 177.5 136.5 173.9 136.6 C 173.9 136.9 168.2 136.5 167.5 136.9 C 165.3 137.0 161.3 136.5 163.1 136.8 C 160.1 136.8 162.1 136.5 160.9 136.5 C 158.9 136.5 161.5 137.1 159.5 137.1 C 159.7 136.9 157.9 136.9 156.6 136.7 C 158.2 136.7 159.3 136.7 159.5 136.6 C 158.1 136.7 158.2 136.5 155.9 136.5 C 154.2 136.6 149.4 136.7 148.0 136.2 C 147.9 136.4 148.3 136.4 148.7 136.5 C 147.3 136.5 145.6 136.1 145.8 136.5 C 142.6 136.3 141.2 136.0 139.4 136.1 C 138.0 136.1 139.9 135.9 135.8 135.6 C 135.7 135.8 128.5 135.2 126.6 134.8 C 126.5 135.2 126.1 134.8 125.2 134.7 C 125.0 134.8 125.2 134.9 124.4 134.9 C 124.3 134.7 123.7 134.7 123.0 134.7 C 123.6 134.4 120.4 134.5 120.3 134.2 C 120.9 134.3 120.9 134.1 120.3 134.0 C 120.0 134.3 117.2 133.5 117.5 133.7 C 118.1 133.9 120.1 134.1 119.5 134.2 C 116.8 134.0 117.9 133.8 116.1 133.6 C 116.2 133.7 117.3 133.9 116.0 133.8 C 114.1 133.5 115.9 133.7 114.7 133.4 C 113.7 133.3 111.8 133.2 111.2 133.1 C 111.4 133.2 110.8 132.9 110.5 132.9 C 107.0 132.3 99.0 131.2 95.7 130.2 C 95.4 130.3 94.7 130.2 94.9 130.4 C 92.9 129.9 93.0 130.0 91.0 129.5 C 91.0 129.6 90.9 129.7 90.9 129.8 C 88.3 129.4 90.7 129.4 89.0 129.0 C 88.7 129.5 88.0 128.7 86.4 128.3 C 86.2 128.4 85.4 128.2 85.7 128.5 C 83.2 127.9 83.4 127.6 81.3 127.2 C 81.7 127.3 81.9 128.2 81.6 128.3 C 81.3 128.1 80.7 127.9 79.8 127.6 C 80.9 127.7 80.5 126.6 77.4 126.1 C 79.1 126.5 79.7 126.7 79.3 126.9 C 77.0 126.3 76.2 125.9 74.3 125.4 C 73.9 125.5 75.3 125.9 74.8 126.1 C 74.3 126.0 74.0 125.9 74.1 126.1 C 72.0 125.5 72.0 125.3 69.8 124.8 C 69.8 124.6 70.3 124.7 71.1 125.0 C 71.0 124.8 71.0 124.6 72.4 125.0 C 72.5 125.2 71.7 125.2 73.6 125.7 C 73.6 125.5 73.6 125.4 73.7 125.3 C 72.3 124.9 69.1 123.8 68.8 123.8 C 69.4 124.1 70.5 124.4 69.8 124.5 C 67.5 123.8 67.0 123.3 65.1 122.6 C 61.8 121.6 56.3 119.6 56.8 120.2 C 54.9 119.4 55.6 119.6 54.0 118.9 C 54.4 119.4 52.1 118.3 52.1 118.6 C 54.2 119.3 53.6 119.1 55.6 119.8 C 55.5 119.9 55.1 119.9 54.3 119.7 C 54.3 119.5 53.4 119.1 52.1 118.6 C 52.3 118.8 53.4 119.5 52.0 118.9 C 51.9 118.8 51.6 118.7 50.9 118.4 C 51.0 118.3 51.0 118.2 51.1 118.1 C 51.9 118.3 52.8 118.6 53.4 118.7 C 52.9 118.5 52.8 118.4 52.3 118.2 C 52.1 118.2 51.8 118.1 50.8 117.7 C 49.7 117.2 48.7 116.8 48.5 116.8 C 50.1 117.4 51.0 118.0 49.4 117.4 C 49.1 117.2 46.7 116.1 45.8 115.8 C 48.8 117.3 47.6 116.8 49.2 117.7 C 45.5 116.3 46.1 116.2 42.2 114.5 C 42.2 114.3 42.3 114.1 43.3 114.5 C 41.0 112.9 35.4 110.5 33.8 109.5 C 34.9 110.2 36.4 110.6 34.7 109.6 C 34.6 109.7 33.3 109.0 33.1 108.9 C 32.3 109.0 33.6 110.1 34.9 111.0 C 33.5 110.2 33.1 110.2 31.8 109.4 C 31.5 109.0 33.0 109.5 31.4 108.5 C 30.8 108.6 28.4 106.8 27.7 106.6 C 28.8 107.3 29.5 107.9 28.3 107.2 C 28.6 107.2 26.4 105.8 26.4 105.7 C 28.2 106.7 28.8 106.9 30.0 107.6 C 28.5 106.7 31.1 108.1 28.7 106.5 C 27.6 106.0 26.9 105.9 24.5 104.2 C 23.7 103.6 24.6 103.9 23.5 103.1 C 23.6 103.5 21.2 101.7 22.8 102.7 C 22.0 102.0 21.5 101.7 21.1 101.3 C 22.1 102.3 16.6 98.2 17.3 99.0 C 17.5 98.8 17.4 98.3 17.2 98.0 C 16.1 97.4 15.1 96.2 12.8 93.8 C 12.7 94.1 12.4 93.4 11.5 92.4 C 11.2 92.3 12.0 93.2 11.3 92.5 C 10.4 91.3 10.4 91.2 10.3 90.9 C 9.6 90.0 9.1 89.3 8.9 88.8 C 8.7 88.9 8.9 89.2 9.0 89.5 C 6.8 85.9 5.6 84.3 4.4 81.2 C 4.8 82.6 5.3 82.7 4.8 81.7 C 4.5 81.1 4.3 80.5 4.1 80.2 C 4.1 81.0 4.1 80.6 3.6 79.1 C 3.1 77.8 3.4 79.8 3.1 78.7 C 2.8 77.5 3.2 78.2 3.0 77.5 C 2.9 77.0 2.8 76.4 2.7 75.9 C 2.7 76.9 2.4 75.9 2.1 74.9 C 2.5 75.5 2.4 75.1 2.1 73.2 C 2.2 73.0 2.4 74.0 2.4 73.2 C 2.3 72.8 1.8 71.3 2.0 70.0 C 2.1 70.4 2.1 70.6 2.2 70.5 C 2.0 69.1 2.4 68.0 2.6 66.7 C 2.3 68.0 2.1 67.3 1.9 67.8 C 2.2 66.5 2.2 65.0 2.7 64.0 C 2.2 65.8 3.1 64.2 3.4 63.0 C 3.2 62.7 2.8 64.7 2.7 64.0 C 2.6 63.4 3.3 62.0 3.2 61.3 C 3.0 61.4 3.0 62.2 2.9 62.4 C 3.1 61.4 2.6 62.6 2.8 61.8 C 3.2 61.3 3.1 60.7 3.2 60.1 C 3.5 59.5 4.4 58.2 4.4 57.6 C 4.3 57.5 4.0 58.5 3.9 58.5 C 4.8 55.6 5.6 54.9 6.9 52.2 C 7.2 52.0 7.6 51.5 8.1 50.8 C 8.0 50.8 8.2 50.3 8.6 49.7 C 9.5 48.7 10.4 47.7 11.6 46.4 C 11.5 46.8 11.0 47.4 12.7 45.6 C 12.7 45.5 12.0 46.2 12.6 45.5 C 12.6 45.6 13.0 45.2 13.0 45.0 C 13.0 45.0 12.9 44.9 12.9 44.9 C 12.4 45.4 12.0 45.9 11.6 46.4 C 11.5 46.2 11.3 46.3 10.9 46.7 C 12.7 44.4 13.0 44.9 14.1 43.4 C 14.6 43.4 15.1 43.0 14.2 44.4 C 15.3 43.1 16.1 42.2 16.3 41.7 C 14.8 43.2 15.1 42.5 14.6 42.8 C 15.6 41.9 15.5 41.8 15.9 41.3 C 17.2 40.4 15.0 42.7 17.3 40.7 C 15.4 42.0 18.6 39.2 20.0 38.2 C 19.7 38.3 19.2 38.7 19.8 38.1 C 23.1 35.2 23.4 36.1 25.4 34.2 C 25.3 34.5 26.4 33.7 26.9 33.5 C 25.0 34.8 24.6 35.2 23.8 35.8 C 24.0 35.8 24.6 35.4 25.1 35.1 C 25.0 35.0 25.5 34.6 26.4 34.1 C 26.9 33.6 26.5 33.4 28.0 32.2 C 28.2 32.2 28.0 32.5 28.8 32.0 C 29.5 31.3 28.4 32.7 31.9 30.5 C 31.2 30.8 30.8 30.9 30.9 30.6 C 32.6 29.5 32.3 29.8 34.6 28.4 C 35.7 28.3 33.2 29.7 32.7 30.3 C 34.2 29.4 35.4 28.4 37.2 27.7 C 35.8 28.2 37.0 27.4 38.6 26.5 C 40.0 25.8 38.7 26.9 40.4 26.0 C 41.8 25.3 42.4 24.8 41.1 25.3 C 44.2 23.9 43.3 24.0 46.1 22.8 C 46.3 22.9 45.5 23.3 44.4 23.6 C 44.6 23.7 44.3 23.9 45.4 23.5 C 46.2 23.0 47.7 22.3 49.2 21.6 C 50.7 20.9 51.7 20.5 52.3 20.2 C 55.0 19.6 57.7 18.0 60.4 17.3 C 59.4 17.9 63.9 16.1 65.3 16.0 C 66.1 15.7 68.5 14.4 67.6 14.9 C 67.9 15.1 69.5 14.5 70.8 14.2 C 70.8 14.2 70.8 14.1 70.7 14.0 C 73.5 13.2 74.2 13.2 75.1 13.2 C 78.5 12.1 82.4 11.5 86.6 10.3 C 87.8 10.3 88.7 10.0 91.3 9.7 C 91.2 9.4 93.3 9.0 95.2 8.6 C 94.7 8.5 96.6 8.2 96.5 8.1 C 94.8 8.4 95.4 8.0 94.4 8.1 C 96.8 7.9 97.9 7.2 99.8 7.1 C 97.5 7.6 96.9 8.0 96.6 8.5 C 99.3 7.9 100.8 7.7 101.4 7.8 C 101.5 7.6 101.2 7.6 100.6 7.6 C 101.5 7.4 102.4 7.3 103.3 7.1 C 103.6 7.2 102.3 7.5 103.3 7.4 C 104.0 7.2 104.7 7.0 105.3 6.8 C 106.2 6.9 104.3 7.1 104.1 7.3 C 107.7 6.8 106.1 6.6 108.1 6.2 C 108.6 6.3 108.5 6.6 110.2 6.4 C 110.9 6.1 111.0 5.9 112.9 5.6 C 114.1 5.5 112.9 6.0 114.3 5.8 C 114.5 5.7 115.1 5.6 115.7 5.6 C 115.6 5.5 116.2 5.3 117.1 5.2 C 117.3 5.3 118.6 5.1 119.2 4.9 C 119.3 5.1 121.5 5.1 122.0 4.9 C 122.0 4.8 120.8 4.9 120.6 4.9 C 122.2 4.7 123.3 4.5 124.1 4.4 C 124.6 4.9 127.2 4.2 130.5 4.2 C 132.5 3.8 130.0 3.8 132.6 3.4 C 134.1 3.5 132.2 3.7 132.6 3.9 C 133.0 3.9 135.4 3.9 135.4 3.7 C 135.4 3.6 134.2 3.7 134.0 3.6 C 135.9 3.3 135.9 3.6 136.9 3.6 C 136.8 3.4 138.0 3.3 138.3 3.1 C 143.4 2.6 143.4 3.1 145.5 3.2 C 145.5 3.1 146.7 3.0 146.9 2.9 C 145.4 3.1 143.4 3.0 145.5 2.8 C 145.1 3.0 148.1 2.7 148.3 2.6 C 148.0 2.5 146.1 2.7 146.9 2.4 C 149.6 2.2 148.5 2.7 150.5 2.4 C 150.7 2.5 149.5 2.6 149.0 2.7 C 149.9 2.7 151.1 2.6 151.2 2.7 C 150.2 2.8 150.2 3.0 149.8 3.1 C 151.2 2.9 153.7 3.0 151.9 2.7 C 154.8 2.7 157.5 2.5 155.6 2.3 C 157.9 2.2 156.6 2.6 158.5 2.3 C 158.2 2.6 157.6 2.8 159.2 3.0 C 159.5 2.8 160.7 2.8 160.6 2.6 C 164.0 2.5 165.0 2.8 166.4 3.0 C 165.2 2.6 166.8 2.9 168.5 2.7 C 169.6 2.8 168.6 3.1 171.4 3.1 C 168.4 2.7 174.9 3.1 173.6 2.6 C 177.2 2.9 177.1 2.9 180.8 3.1 C 180.5 3.3 179.5 3.3 177.9 3.3 C 179.1 3.1 174.8 3.0 175.1 3.2 C 175.1 3.2 175.1 3.3 175.0 3.3 C 177.8 3.3 179.6 3.5 180.8 3.7 C 181.4 3.5 182.6 3.5 182.2 3.2 C 184.8 3.6 187.5 3.3 188.7 3.7 C 187.8 3.6 187.0 3.6 187.2 3.7 C 188.3 3.7 189.5 3.8 189.4 3.5 C 187.3 3.3 186.9 3.3 185.8 3.4 C 186.8 3.3 183.8 3.0 185.9 3.0 C 185.8 3.4 190.1 3.1 188.7 3.3 C 186.4 3.3 191.3 3.6 191.5 3.8 C 191.5 3.8 191.5 3.8 191.5 3.8 Z M 238.1 129.6 C 240.1 129.1 237.6 129.4 236.1 129.7 C 236.6 129.7 236.8 129.7 236.9 129.9 C 237.4 129.7 238.0 129.5 238.1 129.6 C 238.1 129.6 238.1 129.6 238.1 129.6 Z M 216.0 129.8 C 215.4 130.2 218.8 129.5 220.2 129.4 C 219.8 129.4 219.3 129.4 220.1 129.2 C 218.7 129.2 218.2 129.7 216.0 129.8 C 216.0 129.8 216.0 129.8 216.0 129.8 Z M 137.4 133.2 C 138.0 133.2 139.3 133.2 139.5 133.3 C 140.3 133.3 140.1 133.2 140.3 133.1 C 141.9 133.2 139.8 133.5 142.4 133.5 C 143.4 133.1 138.0 132.6 137.4 133.2 C 137.4 133.2 137.4 133.2 137.4 133.2 Z M 164.2 6.5 C 165.2 6.7 162.8 6.9 163.5 7.1 C 167.4 6.9 164.4 6.6 169.9 6.7 C 169.5 6.6 169.1 6.6 169.2 6.5 C 166.6 6.6 166.4 6.7 167.0 6.3 C 165.8 6.3 165.6 6.8 164.2 6.5 C 164.2 6.5 164.2 6.5 164.2 6.5 Z M 214.8 10.8 C 214.4 10.7 214.1 10.6 214.1 10.5 C 212.5 10.4 212.8 10.5 210.7 10.1 C 210.9 10.5 213.0 10.7 214.8 10.8 C 214.8 10.8 214.8 10.8 214.8 10.8 Z M 320.8 64.5 C 320.8 64.8 320.9 65.1 320.9 65.4 C 321.0 65.1 321.6 65.9 321.2 64.4 C 321.1 64.3 321.1 64.6 321.2 64.8 C 321.0 64.6 320.9 63.9 320.7 64.0 C 320.8 64.4 320.8 64.5 320.8 64.5 C 320.8 64.5 320.8 64.5 320.8 64.5 Z M 303.0 100.9 C 305.2 99.0 299.1 102.6 303.0 100.9 C 303.0 100.9 303.0 100.9 303.0 100.9 C 303.0 100.9 303.0 100.9 303.0 100.9 Z M 309.4 99.5 C 309.5 99.5 309.9 99.1 309.9 99.1 C 311.8 97.6 310.1 99.2 311.2 98.4 C 312.4 97.0 310.2 98.7 311.9 97.0 C 311.4 97.2 310.5 98.6 309.4 99.5 C 309.4 99.5 309.4 99.5 309.4 99.5 Z M 23.0 36.1 C 21.4 37.4 21.1 37.9 21.0 38.4 C 22.0 37.5 23.0 36.9 23.4 36.7 C 25.5 35.0 21.9 37.6 21.5 37.8 C 21.6 37.5 23.1 36.3 23.0 36.1 C 23.0 36.1 23.0 36.1 23.0 36.1 Z M 17.9 40.3 C 17.4 40.9 16.5 41.8 16.6 42.0 C 17.5 41.1 17.6 41.1 17.8 41.1 C 18.5 40.3 17.3 41.1 17.9 40.3 C 17.9 40.3 17.9 40.3 17.9 40.3 Z M 28.4 32.8 C 27.5 33.4 27.9 33.3 27.9 33.5 C 29.1 32.7 29.4 32.7 30.7 31.9 C 30.6 31.8 30.6 31.7 30.5 31.7 C 29.4 32.3 29.4 32.4 28.5 33.0 C 28.4 33.0 28.4 32.9 28.4 32.8 C 28.4 32.8 28.4 32.8 28.4 32.8 Z M 13.7 44.8 C 11.3 47.3 10.7 48.7 9.8 50.6 C 11.1 48.7 12.1 46.7 13.4 45.5 C 14.8 43.8 12.9 45.9 12.8 45.8 C 12.8 45.7 13.3 45.1 13.7 44.8 C 13.7 44.8 13.7 44.8 13.7 44.8 Z M 2.5 68.4 C 2.3 68.9 2.7 70.0 2.8 71.6 C 2.8 71.3 2.8 71.0 3.0 71.0 C 2.9 68.7 2.5 70.1 2.5 68.4 C 2.5 68.4 2.5 68.4 2.5 68.4 Z M 5.2 81.5 C 5.8 82.9 5.0 80.7 5.5 81.4 C 4.9 79.9 4.4 78.3 4.1 78.4 C 4.8 80.0 4.9 80.3 5.2 81.5 C 5.2 81.5 5.2 81.5 5.2 81.5 Z M 10.7 90.6 C 11.9 92.0 10.4 89.8 11.1 90.2 C 10.6 89.7 10.7 89.9 10.5 89.9 C 10.2 89.5 10.0 89.1 9.5 88.4 C 9.7 89.0 11.0 90.6 10.7 90.6 C 10.7 90.6 10.7 90.6 10.7 90.6 Z M 72.8 14.5 C 71.8 14.9 72.1 15.0 69.8 15.6 C 73.3 14.6 71.5 15.8 76.1 14.5 C 75.4 14.6 75.8 14.3 76.1 14.4 C 77.8 13.8 74.4 14.7 76.0 14.0 C 74.7 14.4 75.5 14.4 74.3 14.8 C 72.9 14.9 72.1 15.1 72.8 14.5 C 72.8 14.5 72.8 14.5 72.8 14.5 Z M 76.2 14.7 C 77.5 14.4 77.4 14.0 78.1 14.1 C 78.7 13.9 78.5 13.8 78.6 13.7 C 78.1 13.9 78.1 13.9 78.0 13.8 C 76.9 14.2 75.8 14.5 76.2 14.7 C 76.2 14.7 76.2 14.7 76.2 14.7 Z M 64.6 18.1 C 66.6 17.4 67.3 17.3 68.2 16.8 C 69.0 17.0 69.5 16.3 70.7 16.3 C 72.7 15.6 71.2 15.9 70.6 16.0 C 72.5 15.3 71.1 16.1 73.1 15.4 C 73.4 15.0 70.9 15.8 71.1 15.5 C 69.6 15.9 69.6 16.1 68.7 16.4 C 68.0 16.6 68.2 16.4 68.1 16.4 C 66.4 17.0 66.4 16.8 65.0 17.2 C 64.8 17.5 65.4 17.4 66.9 16.9 C 65.3 17.5 64.7 17.9 62.8 18.4 C 64.0 17.7 58.2 19.6 58.7 19.9 C 60.3 19.4 59.8 19.3 60.4 19.0 C 62.5 18.5 63.8 18.1 64.6 18.1 C 64.6 18.1 64.6 18.1 64.6 18.1 Z M 29.5 33.0 C 28.9 33.4 28.3 33.7 27.4 34.3 C 27.3 34.1 28.4 33.4 27.3 34.0 C 25.8 34.9 25.6 35.2 24.7 35.8 C 25.3 35.6 28.3 33.8 26.9 34.9 C 27.4 34.7 28.4 34.1 29.6 33.4 C 28.0 34.0 31.7 32.0 33.2 31.2 C 32.9 31.0 35.8 29.8 36.8 29.0 C 35.8 29.3 32.9 31.2 31.6 31.9 C 32.2 31.5 27.9 33.6 29.5 33.0 C 29.5 33.0 29.5 33.0 29.5 33.0 Z M 81.2 13.3 C 81.6 13.1 83.0 12.7 81.8 12.9 C 82.4 12.7 83.6 12.6 83.0 12.3 C 83.7 12.2 84.3 12.0 85.0 11.9 C 84.7 12.0 83.0 12.4 83.7 12.5 C 85.0 12.0 84.5 12.3 86.3 11.9 C 85.4 12.3 86.4 12.1 85.8 12.6 C 86.3 12.3 87.8 12.0 87.7 11.8 C 90.1 11.3 87.0 12.3 90.3 11.6 C 90.3 11.8 88.0 12.3 87.1 12.4 C 86.7 12.7 91.2 11.6 93.6 11.1 C 91.4 11.4 93.1 10.8 94.2 10.4 C 94.9 10.3 94.2 10.6 95.6 10.4 C 96.7 10.2 97.2 10.0 97.6 10.1 C 98.5 9.9 98.1 9.8 98.2 9.6 C 99.7 9.4 98.6 9.9 100.9 9.5 C 99.1 9.4 101.1 9.0 104.2 8.6 C 104.0 8.5 103.0 8.6 102.8 8.6 C 103.3 8.3 105.1 8.3 105.6 8.3 C 106.7 8.1 106.0 8.1 104.9 8.3 C 105.6 8.1 106.2 7.9 106.9 7.7 C 103.5 8.2 98.2 9.2 92.1 10.1 C 93.3 10.0 91.9 10.3 90.1 10.6 C 89.8 10.6 90.6 10.4 91.4 10.2 C 89.3 10.3 89.5 10.9 86.3 11.5 C 84.5 11.8 88.2 10.9 86.2 11.2 C 85.0 11.5 84.2 11.9 83.6 11.8 C 81.6 12.4 81.1 12.8 77.9 13.6 C 79.7 13.3 80.7 13.6 82.5 13.0 C 82.5 12.9 81.7 13.2 81.2 13.3 C 81.2 13.3 81.2 13.3 81.2 13.3 Z M 17.9 41.3 C 16.9 42.1 16.6 42.6 16.3 42.7 C 14.9 44.2 16.7 42.7 17.0 42.5 C 17.7 41.8 17.9 41.5 17.9 41.3 C 17.9 41.3 17.9 41.3 17.9 41.3 Z M 146.5 135.8 C 149.3 136.0 148.7 135.6 150.9 135.7 C 149.1 135.6 148.7 135.3 145.9 135.3 C 145.7 135.5 145.7 135.6 146.5 135.8 C 146.5 135.8 146.5 135.8 146.5 135.8 Z M 23.6 36.9 C 24.9 35.6 22.0 38.4 21.9 38.2 C 20.3 39.6 23.5 37.2 22.1 38.6 C 23.4 37.3 24.4 36.9 26.3 35.4 C 26.1 35.3 24.6 36.4 23.1 37.5 C 22.9 37.5 23.6 37.0 23.6 36.9 C 23.6 36.9 23.6 36.9 23.6 36.9 Z M 119.0 132.9 C 117.1 132.8 120.6 133.5 121.7 133.8 C 121.8 133.4 121.2 133.4 119.0 132.9 C 119.0 132.9 119.0 132.9 119.0 132.9 Z M 165.3 135.8 C 166.3 135.5 162.0 135.8 163.1 135.5 C 161.8 135.4 161.7 135.5 161.6 135.6 C 161.0 135.5 159.0 135.6 159.5 135.4 C 159.2 135.2 162.7 135.4 161.6 135.1 C 162.8 135.1 162.9 135.2 163.8 135.2 C 161.7 135.2 162.7 135.5 165.3 135.5 C 165.3 135.3 164.1 135.4 165.3 135.2 C 165.4 135.3 166.7 135.5 166.7 135.9 C 168.9 135.8 167.6 135.4 170.3 135.4 C 170.0 135.3 168.4 135.3 167.4 135.2 C 167.7 134.9 170.2 135.4 169.5 135.0 C 170.1 135.2 171.7 135.3 171.7 135.6 C 169.7 135.7 168.4 135.9 166.7 136.0 C 168.2 136.2 170.5 135.6 173.1 135.8 C 172.9 135.6 174.5 135.6 173.9 135.4 C 176.0 135.4 175.0 135.7 174.6 135.7 C 175.2 135.9 179.2 135.6 179.0 135.4 C 179.2 135.6 184.1 135.4 183.9 135.1 C 185.4 135.2 187.6 134.7 188.2 135.0 C 189.1 134.9 190.7 134.8 192.5 134.6 C 193.0 134.3 189.9 134.7 189.7 134.5 C 189.1 134.3 193.0 134.4 192.5 134.2 C 192.5 134.1 192.5 134.1 192.5 134.0 C 191.0 134.2 189.6 134.4 188.2 134.5 C 187.2 134.6 188.5 134.4 188.2 134.3 C 187.2 134.5 182.6 135.0 182.5 134.6 C 179.4 134.8 177.3 134.8 176.0 135.1 C 174.2 135.1 177.0 134.9 176.0 134.7 C 170.6 135.2 164.0 134.9 159.5 135.2 C 158.5 135.2 158.9 135.0 158.8 134.9 C 152.6 134.9 157.8 135.4 153.0 135.1 C 153.0 134.9 155.3 135.0 155.2 134.8 C 153.5 134.7 153.1 134.9 150.8 134.7 C 150.8 134.9 150.8 135.0 150.8 135.1 C 149.0 135.0 149.7 134.7 148.8 134.6 C 146.4 134.6 147.0 134.7 145.9 134.4 C 143.7 134.4 141.6 134.4 139.4 134.1 C 138.0 134.2 140.7 134.7 143.0 134.9 C 142.9 134.9 142.2 134.9 142.2 135.0 C 139.6 134.6 139.2 134.2 135.2 133.8 C 138.2 134.3 133.6 133.8 133.1 133.6 C 131.4 133.4 132.6 133.9 133.7 133.9 C 133.5 134.0 132.5 133.8 132.4 133.7 C 132.1 134.1 136.0 134.6 140.1 134.7 C 138.2 135.0 143.0 134.8 140.8 135.2 C 144.2 135.3 141.3 134.9 145.1 135.1 C 144.7 135.0 144.1 134.9 143.7 134.8 C 146.6 134.9 145.7 135.2 148.7 135.2 C 149.2 135.0 147.3 135.0 147.3 134.8 C 150.5 135.2 151.6 135.3 153.8 135.6 C 154.2 135.5 153.6 135.3 157.3 135.5 C 157.3 135.5 157.3 135.6 157.3 135.6 C 155.6 135.6 155.2 136.0 159.5 136.1 C 159.8 135.9 158.5 135.9 157.3 135.9 C 157.8 135.7 159.2 135.7 160.9 135.7 C 161.8 135.7 162.7 135.8 161.6 135.9 C 162.3 136.1 163.0 135.7 165.3 135.8 C 165.3 135.8 165.3 135.8 165.3 135.8 Z M 3.3 65.8 C 3.3 66.2 3.3 66.6 3.2 67.4 C 3.4 67.7 3.5 66.3 3.7 66.3 C 3.8 65.2 3.4 66.0 3.3 65.8 C 3.3 65.8 3.3 65.8 3.3 65.8 Z M 9.1 51.6 C 8.9 51.6 8.7 52.4 7.9 53.6 C 7.9 54.0 8.6 52.6 8.8 52.7 C 9.7 51.4 8.2 52.8 9.1 51.6 C 9.1 51.6 9.1 51.6 9.1 51.6 Z M 5.8 57.6 C 5.4 58.0 5.7 58.2 6.1 57.1 C 6.2 57.2 6.2 57.5 6.0 58.2 C 6.5 57.6 6.3 56.9 7.1 55.7 C 6.7 56.1 6.3 56.7 5.8 57.6 C 5.8 57.6 5.8 57.6 5.8 57.6 Z M 5.0 59.6 C 4.9 60.4 4.5 60.8 4.3 62.2 C 4.5 61.9 5.4 59.1 5.5 58.6 C 5.5 58.1 4.4 61.1 5.0 59.6 C 5.0 59.6 5.0 59.6 5.0 59.6 Z M 91.9 128.2 C 92.6 128.3 92.4 128.2 92.6 128.2 C 94.6 128.9 97.4 129.4 95.1 129.3 C 97.3 129.5 99.2 130.2 101.1 130.6 C 102.6 130.9 101.9 130.5 103.2 130.7 C 105.1 131.1 102.1 130.6 102.5 130.8 C 102.8 131.1 103.5 130.8 105.8 131.3 C 105.2 130.8 107.9 131.6 107.2 131.1 C 108.5 131.5 109.0 131.4 110.7 131.6 C 110.5 131.4 108.8 131.2 108.7 131.0 C 107.8 130.6 107.7 131.1 109.3 131.3 C 108.3 131.4 106.0 130.6 105.3 130.7 C 104.4 130.3 107.4 131.0 106.6 130.6 C 106.0 130.5 105.4 130.5 105.3 130.6 C 104.3 130.3 103.6 130.2 103.3 130.0 C 103.9 130.1 103.9 130.1 103.9 130.2 C 105.2 130.4 102.7 129.6 105.4 130.0 C 104.9 129.8 103.8 129.7 104.0 129.5 C 103.3 129.2 103.9 130.2 101.3 129.5 C 99.5 129.4 105.4 130.4 103.8 130.6 C 100.1 129.9 102.3 130.0 99.3 129.4 C 99.2 129.5 99.3 129.6 98.5 129.5 C 98.6 129.6 99.7 129.8 100.5 129.9 C 100.4 130.0 99.3 129.8 98.5 129.6 C 98.6 129.7 99.2 129.8 99.2 129.9 C 96.6 129.4 97.0 128.9 99.3 129.2 C 99.3 129.0 96.1 128.4 95.3 128.4 C 96.1 128.7 95.2 128.5 95.9 128.9 C 96.5 129.0 96.4 128.9 96.6 128.9 C 97.8 129.1 96.6 129.0 96.6 129.1 C 95.2 128.8 95.3 128.6 93.9 128.5 C 94.3 128.5 94.6 128.5 94.6 128.4 C 94.0 128.3 93.3 128.1 92.6 128.0 C 92.7 128.2 91.8 128.0 91.9 128.2 C 91.9 128.2 91.9 128.2 91.9 128.2 Z M 127.3 134.1 C 129.7 134.4 128.4 134.0 127.3 133.9 C 127.8 133.9 128.7 133.9 129.5 134.0 C 128.8 133.8 128.2 133.8 126.0 133.6 C 127.9 133.4 126.0 132.8 122.5 132.5 C 121.4 132.8 124.4 133.2 123.2 133.4 C 125.7 133.5 127.1 133.8 127.3 134.1 C 127.3 134.1 127.3 134.1 127.3 134.1 Z M 17.1 42.5 C 16.1 43.4 15.1 44.4 14.3 45.3 C 14.5 45.4 17.6 42.6 17.1 42.5 C 17.1 42.5 17.1 42.5 17.1 42.5 Z M 109.6 7.6 C 110.2 7.5 110.3 7.6 110.4 7.6 C 112.4 7.3 109.4 7.5 110.3 7.2 C 109.6 7.3 108.9 7.4 108.3 7.5 C 108.1 7.6 111.1 7.3 109.0 7.7 C 109.1 7.8 109.6 7.7 109.6 7.6 C 109.6 7.6 109.6 7.6 109.6 7.6 Z M 3.8 64.8 C 3.7 65.7 4.1 65.2 3.8 67.4 C 4.0 66.6 4.0 66.1 4.2 64.8 C 4.1 64.8 3.9 64.8 3.8 64.8 C 3.8 64.8 3.8 64.8 3.8 64.8 Z M 82.1 126.4 C 83.7 127.0 84.2 126.6 87.3 127.4 C 85.8 126.8 83.9 126.7 82.1 126.4 C 82.1 126.4 82.1 126.4 82.1 126.4 Z M 198.2 133.8 C 197.1 133.8 198.4 133.7 196.7 133.7 C 195.8 133.9 195.4 134.0 193.9 134.2 C 195.9 134.3 199.5 133.7 201.0 134.0 C 202.7 133.8 202.5 133.5 203.1 133.3 C 202.2 133.4 201.8 133.4 201.7 133.3 C 200.7 133.8 199.4 133.3 198.2 133.8 C 198.2 133.8 198.2 133.8 198.2 133.8 Z M 118.3 132.7 C 117.0 132.4 119.2 132.6 119.7 132.5 C 120.6 132.6 120.3 132.8 120.4 132.9 C 121.6 133.0 122.0 132.9 121.8 132.7 C 119.5 132.4 116.7 132.0 118.4 131.9 C 116.2 131.6 117.3 132.1 116.3 132.0 C 115.1 131.6 116.2 131.7 116.3 131.5 C 115.8 131.5 114.1 131.5 114.2 131.2 C 110.9 131.1 112.3 131.7 114.8 132.4 C 117.0 132.5 114.5 132.0 118.3 132.7 C 118.3 132.7 118.3 132.7 118.3 132.7 Z M 33.7 107.8 C 33.9 108.0 35.2 108.7 35.1 108.8 C 36.8 109.5 38.4 110.0 40.1 110.6 C 39.8 110.2 37.6 109.3 38.4 109.9 C 37.8 109.4 36.4 108.6 35.6 108.0 C 34.1 107.1 33.4 107.3 33.3 106.8 C 31.9 106.1 32.7 106.6 30.5 105.2 C 33.8 107.5 29.3 104.6 28.9 104.7 C 30.9 105.9 32.7 107.0 32.5 106.6 C 34.0 107.6 35.7 108.6 36.0 109.0 C 35.8 109.0 34.6 108.3 33.7 107.8 C 33.7 107.8 33.7 107.8 33.7 107.8 Z M 43.4 112.0 C 42.7 111.7 42.1 111.5 41.0 110.9 C 41.6 111.3 41.7 111.5 41.6 111.6 C 43.7 112.6 44.3 112.7 44.9 113.2 C 46.9 114.2 44.5 112.7 47.6 114.2 C 47.4 114.0 45.9 113.3 45.9 113.3 C 45.6 113.3 44.3 112.8 43.4 112.0 C 43.4 112.0 43.4 112.0 43.4 112.0 Z M 63.8 120.5 C 65.4 121.0 63.0 120.2 63.9 120.2 C 63.5 120.1 60.6 119.1 61.1 119.0 C 60.3 118.4 57.2 118.0 57.6 117.7 C 57.0 117.5 57.1 117.7 57.0 117.8 C 59.0 118.4 58.9 118.6 57.5 118.1 C 57.7 118.3 58.9 118.7 59.8 119.0 C 59.9 118.9 59.1 118.6 59.3 118.5 C 61.0 119.2 62.2 119.9 63.8 120.5 C 63.8 120.5 63.8 120.5 63.8 120.5 Z M 187.1 4.8 C 185.4 4.7 184.4 4.7 183.5 4.7 C 184.0 4.9 184.9 4.8 185.7 4.8 C 185.9 5.0 185.1 5.0 184.2 4.9 C 185.1 5.2 188.1 5.1 187.1 4.8 C 187.1 4.8 187.1 4.8 187.1 4.8 Z M 172.8 4.3 C 171.2 4.2 170.1 4.3 169.9 4.4 C 170.5 4.6 170.3 4.3 171.4 4.3 C 172.0 4.4 172.4 4.5 172.8 4.6 C 173.5 4.6 173.3 4.5 173.6 4.5 C 174.1 4.5 174.2 4.5 174.2 4.6 C 176.2 4.4 171.9 4.5 172.8 4.3 C 172.8 4.3 172.8 4.3 172.8 4.3 Z M 54.1 116.9 C 53.7 116.6 53.3 116.4 52.0 115.8 C 52.2 116.1 50.7 115.5 49.3 114.9 C 51.4 116.0 52.1 116.2 54.1 116.9 C 54.1 116.9 54.1 116.9 54.1 116.9 Z M 85.8 12.7 C 83.8 13.0 84.1 13.3 81.3 13.8 C 81.3 13.9 81.4 14.0 81.4 14.0 C 83.0 13.4 83.8 13.4 85.8 12.7 C 85.8 12.7 85.8 12.7 85.8 12.7 Z M 321.9 82.6 C 321.8 82.3 321.1 83.9 320.9 83.9 C 321.1 84.4 320.3 84.8 318.4 87.7 C 318.3 87.7 318.4 87.4 318.6 87.1 C 317.0 89.3 319.3 86.6 319.6 86.4 C 320.7 84.6 321.1 84.4 321.9 82.6 C 321.9 82.6 321.9 82.6 321.9 82.6 Z M 176.7 134.3 C 176.6 134.4 177.0 134.4 177.4 134.4 C 177.9 134.4 178.4 134.4 178.8 134.3 C 178.7 134.0 176.3 134.0 178.1 133.6 C 177.5 133.6 177.4 133.6 177.4 133.7 C 174.0 134.5 171.2 133.4 166.7 133.9 C 166.0 133.9 166.1 134.0 166.0 134.0 C 166.5 134.0 166.6 134.1 166.7 134.1 C 167.2 133.8 171.4 134.1 169.5 134.2 C 169.7 134.3 170.2 134.3 170.2 134.2 C 170.7 134.2 171.2 134.2 171.7 134.2 C 171.4 134.1 170.4 134.1 170.2 134.0 C 172.5 134.1 175.3 134.1 173.9 134.4 C 175.3 134.3 175.8 134.2 176.7 134.1 C 177.6 134.1 177.7 134.3 176.7 134.3 C 176.7 134.3 176.7 134.3 176.7 134.3 Z M 195.2 133.2 C 197.4 133.1 196.6 132.9 198.8 132.8 C 197.4 132.7 195.7 133.2 193.8 133.1 C 194.1 133.2 195.1 133.1 195.2 133.2 C 195.2 133.2 195.2 133.2 195.2 133.2 Z M 153.8 134.0 C 154.2 133.7 152.3 133.6 150.2 133.5 C 149.8 133.8 151.6 133.9 153.8 134.0 C 153.8 134.0 153.8 134.0 153.8 134.0 Z M 163.1 134.1 C 165.2 134.0 160.4 134.0 161.6 133.8 C 160.7 133.8 159.6 133.8 159.5 133.7 C 158.8 133.7 158.8 133.8 157.4 133.8 C 157.4 134.0 159.7 133.9 159.5 134.1 C 161.1 133.9 161.4 133.9 163.1 134.1 C 163.1 134.1 163.1 134.1 163.1 134.1 Z M 164.5 134.1 C 165.9 134.0 164.2 133.6 162.4 133.6 C 163.0 133.8 163.5 134.0 164.5 134.1 C 164.5 134.1 164.5 134.1 164.5 134.1 Z M 11.8 88.2 C 12.3 88.8 12.1 88.2 12.7 89.0 C 12.8 88.9 10.7 86.1 12.5 88.4 C 12.1 87.4 11.4 87.2 10.8 86.1 C 10.9 86.5 11.0 86.8 10.6 86.2 C 10.2 86.0 12.3 88.4 11.8 88.2 C 11.8 88.2 11.8 88.2 11.8 88.2 Z M 14.1 91.0 C 14.6 91.5 14.4 91.2 14.1 90.9 C 14.3 90.9 14.9 91.7 15.4 92.3 C 15.4 92.4 14.8 91.0 15.0 90.9 C 12.8 88.8 14.2 90.7 14.1 91.0 C 14.1 91.0 14.1 91.0 14.1 91.0 Z M 16.3 93.1 C 17.6 94.8 20.0 96.8 21.3 97.6 C 20.2 96.3 17.2 93.6 16.3 93.1 C 16.3 93.1 16.3 93.1 16.3 93.1 Z M 6.6 77.6 C 7.2 80.6 10.2 86.0 8.1 80.8 C 8.1 81.1 6.6 77.8 6.3 76.1 C 6.2 76.1 5.6 74.3 5.7 74.3 C 5.3 73.0 6.6 78.3 6.6 77.6 C 6.6 77.6 6.6 77.6 6.6 77.6 Z M 23.8 99.0 C 22.8 98.4 23.7 99.6 22.4 98.4 C 21.5 97.8 22.5 98.6 22.2 98.6 C 24.0 100.0 28.0 102.5 28.2 102.9 C 29.3 103.5 29.7 103.6 31.6 104.8 C 31.8 104.8 24.7 100.5 23.7 99.1 C 23.8 99.1 26.1 100.8 23.8 99.0 C 23.8 99.0 23.8 99.0 23.8 99.0 Z M 86.1 14.1 C 86.3 13.9 83.6 14.7 84.1 14.3 C 82.8 14.9 81.4 15.1 79.8 15.7 C 79.3 15.7 79.4 15.3 77.2 15.8 C 77.2 16.1 78.3 15.7 77.3 16.2 C 75.3 16.7 75.8 16.3 73.5 17.0 C 74.0 17.3 68.8 18.5 69.4 18.7 C 70.6 18.3 70.5 18.2 72.4 17.7 C 73.1 17.5 72.8 17.7 73.7 17.5 C 73.1 17.9 72.0 17.8 71.3 18.3 C 71.5 18.4 73.0 17.9 73.2 18.0 C 74.1 17.8 72.9 18.0 73.1 17.8 C 75.5 17.1 73.1 18.4 75.7 17.6 C 75.1 17.5 75.1 17.5 75.6 17.1 C 76.6 16.9 79.8 16.0 78.1 16.7 C 78.3 16.8 80.2 16.1 79.9 16.0 C 80.9 15.7 81.1 15.7 81.2 15.8 C 83.8 15.0 84.2 14.8 83.6 14.7 C 84.1 14.3 84.5 14.6 86.1 14.1 C 86.1 14.1 86.1 14.1 86.1 14.1 Z M 6.4 62.2 C 6.6 61.1 6.1 63.5 5.9 64.6 C 6.2 63.3 6.4 63.8 6.8 62.4 C 6.6 62.8 6.5 62.7 6.8 61.8 C 6.8 61.5 6.1 63.6 6.4 62.2 C 6.4 62.2 6.4 62.2 6.4 62.2 Z M 35.9 107.3 C 36.6 107.9 40.7 109.9 42.9 111.0 C 42.6 110.5 37.2 108.3 36.7 107.6 C 35.6 107.0 37.3 108.1 35.9 107.3 C 35.9 107.3 35.9 107.3 35.9 107.3 Z M 62.8 20.3 C 62.1 20.6 62.5 20.5 62.8 20.4 C 62.6 20.6 61.4 21.0 60.5 21.3 C 61.8 21.0 60.3 21.6 60.7 21.7 C 60.0 22.0 59.7 22.1 59.6 22.2 C 59.4 21.8 56.1 23.7 59.7 22.5 C 58.9 22.5 59.2 22.4 60.7 21.8 C 62.4 21.4 63.6 20.8 64.3 20.9 C 65.3 20.5 65.7 20.2 67.1 19.8 C 67.5 19.8 68.9 19.5 67.9 20.2 C 70.5 19.4 68.6 19.4 70.7 18.7 C 72.8 18.2 69.8 19.2 70.3 19.3 C 70.8 19.1 70.7 19.3 70.9 19.3 C 71.7 19.0 71.6 18.8 70.9 19.0 C 71.1 18.9 73.1 18.1 72.6 18.5 C 73.8 18.1 70.5 18.4 68.9 19.1 C 67.9 19.5 67.8 19.0 68.8 18.7 C 68.4 18.7 66.6 19.8 66.9 19.2 C 66.1 19.4 65.4 19.6 64.6 19.9 C 64.7 19.9 65.2 19.8 65.2 19.9 C 64.5 20.1 63.7 20.4 62.9 20.6 C 63.5 20.3 63.5 20.2 62.8 20.3 C 62.8 20.3 62.8 20.3 62.8 20.3 Z M 27.1 101.8 C 28.7 102.9 29.1 103.0 30.5 103.8 C 30.0 103.3 26.5 101.1 27.1 101.8 C 27.1 101.8 27.1 101.8 27.1 101.8 Z M 97.4 12.5 C 97.2 12.5 96.0 12.7 96.0 12.6 C 98.0 12.2 95.7 12.5 97.2 11.7 C 94.6 12.5 93.8 13.2 97.4 12.7 C 100.0 12.2 94.7 13.1 97.4 12.5 C 97.4 12.5 97.4 12.5 97.4 12.5 Z M 89.5 14.0 C 87.9 14.4 91.9 13.7 92.8 13.6 C 92.8 13.7 92.8 13.8 92.9 13.8 C 95.0 13.0 92.0 13.5 93.9 12.6 C 91.4 13.0 90.3 13.2 88.1 13.8 C 88.2 13.8 88.7 13.7 88.7 13.6 C 90.4 13.3 89.3 13.9 87.5 14.2 C 88.0 14.2 89.6 13.8 90.8 13.6 C 90.4 13.6 90.0 13.6 90.1 13.5 C 91.5 13.2 91.0 13.5 92.0 13.3 C 92.0 13.4 89.6 14.1 89.5 14.0 C 89.5 14.0 89.5 14.0 89.5 14.0 Z M 226.5 11.0 C 225.2 10.8 227.9 11.6 227.7 11.9 C 229.1 12.2 229.5 12.2 230.4 12.3 C 230.0 12.1 228.4 11.8 227.8 11.5 C 228.1 11.3 229.8 11.9 230.5 11.8 C 231.4 11.6 227.1 11.4 226.5 11.0 C 226.5 11.0 226.5 11.0 226.5 11.0 Z M 30.2 35.7 C 29.5 36.2 29.9 36.0 30.2 35.8 C 30.2 36.0 29.0 36.7 29.0 36.6 C 28.0 37.3 29.6 36.4 28.5 37.2 C 28.3 37.5 30.3 36.0 30.3 35.9 C 31.8 34.9 30.8 35.9 31.2 35.8 C 32.5 34.9 31.9 35.0 33.9 34.0 C 32.6 34.5 31.6 35.0 30.2 35.7 C 30.2 35.7 30.2 35.7 30.2 35.7 Z M 101.9 11.2 C 102.1 11.1 100.4 11.9 98.6 12.0 C 96.3 12.4 100.1 12.0 98.0 12.3 C 99.8 12.1 101.9 11.5 104.6 11.0 C 105.2 10.8 100.8 11.6 103.3 11.1 C 103.1 11.0 102.5 11.2 102.6 11.2 C 102.0 11.3 102.0 11.3 101.9 11.2 C 101.9 11.2 101.9 11.2 101.9 11.2 Z M 99.3 12.3 C 99.5 12.3 100.0 12.2 100.0 12.1 C 100.9 12.0 100.9 12.2 100.1 12.4 C 101.2 12.4 101.1 11.9 103.4 11.7 C 102.4 11.7 101.9 11.6 104.0 11.4 C 105.7 10.9 100.1 12.0 99.3 12.3 C 99.3 12.3 99.3 12.3 99.3 12.3 Z M 204.6 8.2 C 204.8 8.3 206.3 8.4 207.4 8.5 C 206.0 8.6 200.4 7.9 199.7 7.7 C 199.1 7.7 198.5 7.7 198.3 7.6 C 198.3 7.6 196.8 7.6 197.6 7.7 C 197.4 7.8 196.2 7.7 196.2 7.8 C 194.1 7.6 196.8 7.7 196.2 7.5 C 193.7 7.5 194.2 7.3 191.3 7.1 C 191.7 7.4 195.0 7.5 194.7 7.8 C 197.1 7.7 199.6 8.1 201.0 8.5 C 198.9 8.0 207.1 8.6 210.8 9.1 C 210.7 9.2 212.0 9.4 213.5 9.7 C 214.6 10.1 214.3 9.5 212.2 9.4 C 212.3 9.2 215.1 9.7 216.3 9.8 C 214.9 9.5 215.7 9.5 215.0 9.3 C 212.3 8.9 214.7 9.3 214.2 9.5 C 213.6 9.4 212.9 9.3 212.2 9.2 C 215.8 9.3 206.9 8.5 210.2 8.9 C 207.3 8.5 207.3 8.3 204.6 8.2 C 204.6 8.2 204.6 8.2 204.6 8.2 Z M 137.8 7.0 C 137.4 7.0 135.1 7.4 135.0 7.2 C 132.1 7.6 134.7 7.6 131.5 7.8 C 131.7 7.9 132.9 7.8 132.9 7.9 C 134.2 7.7 135.4 7.5 135.0 7.3 C 136.5 7.2 136.9 7.1 137.8 7.0 C 137.5 7.2 137.0 7.3 135.7 7.3 C 135.5 7.6 136.0 7.7 137.9 7.5 C 138.7 7.3 138.1 7.1 137.8 7.0 C 137.8 7.0 137.8 7.0 137.8 7.0 Z M 130.8 7.8 C 130.4 7.8 130.0 7.8 130.1 7.7 C 129.0 7.5 129.7 8.0 128.7 8.1 C 127.9 8.2 128.1 8.0 128.0 7.9 C 126.7 8.1 125.8 8.2 125.2 8.2 C 123.3 8.5 127.4 8.2 128.0 8.2 C 129.4 8.1 128.9 7.9 130.8 7.8 C 130.8 7.8 130.8 7.8 130.8 7.8 Z M 110.0 10.0 C 109.6 9.8 108.9 10.3 108.0 10.4 C 108.7 10.5 110.7 10.1 109.4 10.6 C 111.4 10.4 111.5 10.3 113.5 10.0 C 114.8 10.0 113.5 9.8 111.4 10.2 C 111.7 10.1 112.6 9.9 112.7 9.8 C 114.1 10.1 117.5 8.9 115.5 9.5 C 114.9 9.5 114.5 9.5 114.1 9.4 C 113.7 9.7 109.0 10.3 110.0 10.0 C 110.0 10.0 110.0 10.0 110.0 10.0 Z M 46.3 27.7 C 47.9 26.9 48.8 26.5 49.7 26.2 C 50.6 25.8 51.8 25.3 52.9 24.9 C 53.0 24.9 52.9 25.1 52.5 25.2 C 53.0 25.1 53.7 24.8 54.6 24.4 C 54.5 24.3 54.0 24.6 54.1 24.6 C 52.2 25.1 53.7 24.5 53.9 24.2 C 51.7 24.9 48.6 26.7 47.0 27.1 C 45.7 27.7 47.2 27.0 46.3 27.7 C 46.3 27.7 46.3 27.7 46.3 27.7 Z M 320.9 79.8 C 320.9 80.1 320.6 80.9 320.8 80.8 C 321.0 80.1 321.2 79.6 321.4 78.9 C 320.8 80.2 320.6 79.9 319.8 81.5 C 320.2 81.1 320.4 81.3 320.9 79.8 C 320.9 79.8 320.9 79.8 320.9 79.8 Z M 116.9 9.2 C 117.0 9.3 117.0 9.4 116.2 9.5 C 116.0 9.7 118.2 9.3 118.3 9.5 C 119.0 9.4 118.7 9.3 119.7 9.1 C 119.3 9.1 117.5 9.3 118.2 9.0 C 118.8 8.9 118.9 8.9 119.0 9.0 C 120.4 8.7 118.2 8.9 116.9 9.2 C 116.9 9.2 116.9 9.2 116.9 9.2 Z M 233.1 12.4 C 232.2 12.3 233.1 12.5 233.8 12.7 C 231.8 12.6 234.8 13.3 234.9 13.6 C 234.1 13.2 231.5 12.8 231.0 12.7 C 230.3 12.6 231.1 13.0 229.0 12.6 C 229.2 12.9 231.6 13.1 231.0 12.8 C 231.5 13.2 233.9 13.3 233.6 13.6 C 236.5 14.2 237.3 14.2 237.6 14.0 C 234.7 13.5 236.2 13.4 233.7 12.9 C 233.7 12.9 234.5 13.0 235.0 13.1 C 234.9 12.9 233.8 12.6 233.1 12.4 C 233.1 12.4 233.1 12.4 233.1 12.4 Z M 160.6 6.2 C 159.0 6.2 159.1 6.4 159.2 6.6 C 159.8 6.6 160.8 6.5 162.0 6.5 C 161.7 6.4 159.8 6.5 160.6 6.2 C 160.6 6.2 160.6 6.2 160.6 6.2 Z M 222.4 10.9 C 222.3 10.8 221.7 10.7 221.7 10.8 C 220.0 10.5 219.6 10.3 219.0 10.1 C 218.1 10.0 218.4 10.2 218.3 10.3 C 220.0 10.4 219.6 10.6 221.7 10.9 C 221.6 10.8 221.8 10.8 222.4 10.9 C 222.4 10.9 222.4 10.9 222.4 10.9 Z M 175.6 6.5 C 174.8 6.5 175.2 6.6 175.6 6.6 C 174.6 6.8 171.7 6.5 170.6 6.6 C 170.4 6.8 174.1 6.8 169.9 6.9 C 170.6 7.1 174.4 7.0 176.3 7.1 C 175.8 7.3 173.3 7.2 173.4 7.5 C 175.6 7.4 178.1 7.3 178.4 7.0 C 175.2 6.9 176.4 6.7 175.6 6.5 C 175.6 6.5 175.6 6.5 175.6 6.5 Z M 179.1 6.8 C 178.9 6.7 178.2 6.8 177.0 6.7 C 178.8 7.1 179.8 7.0 183.4 7.2 C 183.4 7.2 183.4 7.1 183.4 7.0 C 184.1 7.1 184.9 7.1 185.6 7.2 C 182.5 6.7 181.7 6.9 178.4 6.8 C 178.3 6.8 178.7 6.8 179.1 6.8 C 179.1 6.8 179.1 6.8 179.1 6.8 Z M 86.3 14.8 C 87.2 14.8 88.0 14.7 89.6 14.4 C 89.4 14.3 88.4 14.3 86.3 14.8 C 86.3 14.8 86.3 14.8 86.3 14.8 Z M 225.0 11.5 C 226.9 11.6 223.3 11.2 224.3 11.6 C 225.8 11.9 227.3 12.3 227.6 12.5 C 230.3 12.7 224.7 11.7 225.0 11.5 C 225.0 11.5 225.0 11.5 225.0 11.5 Z M 212.8 10.2 C 212.0 10.1 212.0 9.7 212.8 10.1 C 214.7 10.3 211.2 9.6 214.2 10.1 C 212.9 9.8 210.0 9.3 208.7 9.3 C 208.7 9.5 211.3 9.8 211.4 10.0 C 211.5 10.1 211.1 10.0 210.7 10.0 C 211.0 10.1 211.6 10.0 212.8 10.2 C 212.8 10.2 212.8 10.2 212.8 10.2 Z M 202.4 8.7 C 203.6 8.9 204.9 9.2 207.3 9.4 C 205.8 9.1 204.9 8.8 202.4 8.7 C 202.4 8.7 202.4 8.7 202.4 8.7 Z M 318.3 55.7 C 317.6 54.6 318.0 55.7 318.0 55.9 C 318.6 57.0 318.7 56.8 319.3 58.1 C 319.4 57.6 318.5 56.6 318.3 55.7 C 318.3 55.7 318.3 55.7 318.3 55.7 Z M 320.1 59.8 C 320.0 60.0 320.7 61.5 320.6 61.7 C 321.3 62.4 320.9 64.0 321.3 63.9 C 321.3 64.3 321.4 64.6 321.5 65.3 C 321.7 63.9 320.7 61.2 320.1 59.8 C 320.1 59.8 320.1 59.8 320.1 59.8 Z M 190.4 8.2 C 188.6 8.0 191.0 8.6 189.0 8.4 C 188.9 8.5 192.6 8.8 190.4 8.7 C 193.3 9.1 190.2 8.2 190.4 8.2 C 190.4 8.2 190.4 8.2 190.4 8.2 Z M 155.6 7.7 C 155.8 7.5 153.1 7.7 152.1 7.7 C 152.1 7.8 152.9 7.7 153.5 7.7 C 153.2 7.8 152.9 7.9 152.1 7.9 C 152.7 8.1 154.6 7.7 155.6 7.7 C 155.6 7.7 155.6 7.7 155.6 7.7 Z M 194.3 4.3 C 195.5 4.6 197.0 4.9 197.8 4.6 C 199.1 4.9 197.0 4.8 198.5 5.1 C 200.5 5.1 199.5 5.3 202.8 5.5 C 202.1 5.7 204.4 5.9 204.8 6.2 C 203.5 6.1 201.9 5.6 201.3 5.8 C 202.4 5.9 201.7 6.1 201.3 5.9 C 199.1 5.6 203.9 5.8 201.3 5.4 C 200.5 5.7 196.8 4.8 194.3 4.6 C 195.3 4.5 192.4 4.1 194.3 4.3 C 194.3 4.3 194.3 4.3 194.3 4.3 Z M 206.9 5.9 C 208.6 6.1 209.5 6.7 209.0 6.6 C 209.0 6.5 207.1 6.3 206.9 6.4 C 207.4 6.4 207.8 6.5 207.6 6.6 C 204.5 6.2 205.6 6.1 204.9 5.8 C 206.6 5.9 207.0 6.1 207.7 6.1 C 207.3 6.0 206.9 6.0 206.9 5.9 C 206.9 5.9 206.9 5.9 206.9 5.9 Z M 241.9 15.7 C 241.6 15.5 241.2 15.6 240.6 15.5 C 240.5 15.1 237.2 14.9 236.8 14.6 C 237.5 14.6 239.2 15.0 240.0 15.1 C 239.2 14.8 239.0 14.7 238.1 14.6 C 238.3 14.5 240.2 14.9 240.7 14.8 C 240.9 15.0 241.8 15.0 242.0 15.2 C 239.5 14.7 243.3 16.0 241.9 15.7 C 241.9 15.7 241.9 15.7 241.9 15.7 Z M 174.2 7.8 C 173.9 8.0 176.9 8.6 174.1 8.9 C 173.5 8.7 173.2 8.4 173.4 8.1 C 171.7 8.3 170.9 8.0 169.9 8.2 C 166.6 7.5 172.4 8.3 174.2 7.8 C 174.2 7.8 174.2 7.8 174.2 7.8 Z M 162.7 7.9 C 163.3 7.7 161.7 7.7 162.0 7.5 C 163.4 7.6 167.9 7.4 166.3 7.6 C 164.9 7.6 164.9 7.9 162.7 7.9 C 162.7 7.9 162.7 7.9 162.7 7.9 Z M 75.1 122.3 C 73.1 121.9 72.2 121.2 73.4 121.4 C 72.8 121.5 75.9 122.2 75.1 122.3 C 75.1 122.3 75.1 122.3 75.1 122.3 Z M 5.2 83.4 C 5.8 85.0 6.4 85.8 6.3 86.1 C 5.4 84.7 5.7 84.7 5.0 83.5 C 4.9 83.4 4.4 82.7 4.5 82.5 C 4.8 83.2 4.9 83.0 5.2 83.4 C 5.2 83.4 5.2 83.4 5.2 83.4 Z M 119.2 4.8 C 118.9 4.8 118.1 4.8 118.4 4.6 C 120.6 4.5 122.9 4.0 124.7 3.7 C 124.7 3.8 124.7 3.9 124.7 4.0 C 121.4 4.2 120.5 4.5 119.2 4.8 C 119.2 4.8 119.2 4.8 119.2 4.8 Z M 114.9 4.9 C 114.6 5.1 115.7 5.2 114.3 5.4 C 114.3 5.2 111.6 5.3 112.8 5.1 C 113.3 5.2 113.9 5.1 114.9 4.9 C 114.9 4.9 114.9 4.9 114.9 4.9 Z M 233.7 9.3 C 235.3 9.6 233.0 8.9 233.1 8.8 C 234.3 9.1 235.9 9.4 236.4 9.6 C 235.2 9.4 234.3 9.6 233.7 9.3 C 233.7 9.3 233.7 9.3 233.7 9.3 Z M 208.4 6.0 C 204.8 5.6 206.4 5.4 202.8 4.9 C 204.3 4.9 207.5 5.3 208.5 5.2 C 208.3 5.3 209.2 5.5 209.1 5.6 C 207.8 5.5 207.6 5.3 206.3 5.2 C 206.8 5.5 206.8 5.4 206.3 5.6 C 207.2 5.7 207.8 5.7 208.4 5.8 C 208.1 5.9 209.4 6.1 208.4 6.0 C 208.4 6.0 208.4 6.0 208.4 6.0 Z M 232.9 9.8 C 234.3 10.0 235.4 10.5 234.2 10.3 C 234.1 10.1 233.1 10.1 232.9 9.9 C 234.9 10.2 231.4 9.5 232.3 9.5 C 233.5 9.7 233.9 9.7 233.7 9.5 C 234.4 9.7 235.6 9.9 235.6 10.0 C 235.1 9.9 234.4 9.7 234.3 9.8 C 234.7 9.9 235.1 10.0 235.0 10.0 C 233.8 9.8 233.3 9.7 232.9 9.8 C 232.9 9.8 232.9 9.8 232.9 9.8 Z M 223.6 8.1 C 225.4 8.4 225.6 8.7 226.2 9.0 C 223.7 8.5 223.4 8.1 221.5 7.7 C 223.6 8.0 225.7 8.1 226.3 8.3 C 225.4 8.3 223.7 8.0 223.6 8.1 C 223.6 8.1 223.6 8.1 223.6 8.1 Z M 253.1 124.3 C 251.6 124.5 250.4 124.7 248.7 125.0 C 248.2 125.4 251.4 125.1 250.1 125.2 C 248.3 125.7 249.4 125.1 248.1 125.4 C 249.5 125.4 242.1 127.2 241.7 126.9 C 242.8 126.6 243.2 126.5 242.9 126.4 C 245.9 125.7 247.0 125.2 249.2 124.6 C 250.9 124.5 255.6 123.4 257.9 122.3 C 259.6 122.3 262.4 121.0 264.6 120.6 C 265.2 120.3 262.8 120.9 264.5 120.3 C 265.8 120.2 264.9 120.6 266.5 120.2 C 266.5 120.0 266.1 120.0 266.9 119.7 C 266.9 119.9 267.8 119.6 268.2 119.5 C 265.0 120.6 268.5 119.8 266.0 120.7 C 264.9 120.9 267.0 119.9 264.1 120.9 C 263.1 121.3 262.1 121.7 262.4 121.8 C 261.6 122.1 261.1 122.3 260.6 122.5 C 261.6 121.8 256.5 123.8 258.7 122.8 C 258.9 122.7 260.6 122.2 261.7 121.8 C 260.6 121.9 259.4 122.4 257.5 123.1 C 256.6 123.1 257.8 122.7 256.8 122.9 C 255.3 123.5 257.4 123.1 256.3 123.6 C 256.8 123.4 257.5 123.2 257.5 123.3 C 254.9 123.8 253.9 124.3 252.6 124.7 C 253.5 124.3 251.0 124.9 253.1 124.3 C 253.1 124.3 253.1 124.3 253.1 124.3 Z M 274.4 117.1 C 275.0 116.9 275.5 116.7 276.1 116.4 C 276.3 116.6 274.2 117.5 275.7 117.1 C 273.2 118.0 275.7 116.8 274.4 117.1 C 274.4 117.1 274.4 117.1 274.4 117.1 Z M 262.6 120.3 C 261.7 120.3 262.3 120.7 261.5 120.9 C 262.9 120.5 264.2 120.0 264.5 120.2 C 262.8 120.6 262.0 120.9 260.3 121.5 C 261.9 120.6 258.3 121.8 257.7 121.7 C 259.1 121.2 260.1 120.8 261.9 120.2 C 261.6 120.4 264.3 119.7 262.6 120.3 C 262.6 120.3 262.6 120.3 262.6 120.3 Z M 267.2 118.4 C 267.6 118.5 270.1 117.5 269.6 117.9 C 268.1 118.4 267.5 118.7 267.9 118.8 C 266.8 119.2 266.6 119.1 265.6 119.5 C 264.9 119.4 266.7 118.8 267.2 118.5 C 266.9 118.6 266.5 118.7 267.2 118.4 C 267.2 118.4 267.2 118.4 267.2 118.4 Z M 313.6 89.8 C 314.1 89.6 312.4 91.4 312.0 91.7 C 312.7 91.3 312.5 91.6 311.5 92.8 C 311.7 92.1 310.1 93.9 308.8 94.6 C 308.6 95.0 310.1 93.8 308.5 95.3 C 307.1 96.4 306.0 97.5 303.7 99.3 C 303.0 99.4 304.0 98.7 304.6 98.1 C 303.1 99.3 303.4 98.8 302.2 99.7 C 302.5 99.6 301.5 100.4 301.0 100.6 C 303.1 99.0 298.0 102.3 300.2 100.6 C 300.4 100.6 300.9 100.2 301.4 99.8 C 301.0 100.5 303.8 98.4 304.5 98.0 C 305.3 96.8 308.2 94.7 310.9 92.3 C 311.2 92.2 310.4 93.1 311.1 92.5 C 311.1 92.3 312.0 91.4 312.3 91.0 C 312.4 91.1 312.7 90.8 313.3 90.3 C 313.3 90.2 313.3 90.2 313.6 89.8 C 313.6 89.8 313.6 89.8 313.6 89.8 Z M 139.6 131.5 C 139.8 131.1 135.2 131.0 134.0 131.1 C 134.2 130.6 142.2 131.3 139.6 131.5 C 139.6 131.5 139.6 131.5 139.6 131.5 Z M 167.4 132.0 C 166.2 132.0 167.0 132.2 166.0 132.3 C 165.9 132.0 163.2 132.5 163.1 132.3 C 164.4 132.0 165.3 132.1 167.4 132.0 C 167.4 132.0 167.4 132.0 167.4 132.0 Z M 193.0 131.1 C 190.9 131.3 194.1 131.1 193.7 131.3 C 191.9 131.4 190.0 131.5 190.2 131.3 C 191.8 131.3 192.8 130.9 193.0 131.1 C 193.0 131.1 193.0 131.1 193.0 131.1 Z M 154.6 131.7 C 152.8 131.5 155.7 131.3 156.0 131.5 C 154.1 131.5 157.2 131.7 158.8 131.7 C 158.7 132.0 158.0 131.9 158.8 132.1 C 156.3 132.2 158.4 131.9 156.6 131.9 C 155.5 132.0 156.7 132.0 156.6 132.2 C 155.9 132.2 155.2 132.2 154.6 132.1 C 154.6 132.0 154.6 131.9 154.6 131.7 C 155.4 131.7 156.2 131.8 156.0 131.6 C 155.3 131.6 155.1 131.7 154.6 131.7 C 154.6 131.7 154.6 131.7 154.6 131.7 Z M 281.0 111.0 C 279.7 111.6 280.9 111.2 281.9 110.7 C 282.1 110.5 282.7 109.7 284.3 109.3 C 281.2 111.0 285.4 109.2 283.7 110.1 C 282.9 110.2 281.0 111.4 279.4 112.0 C 278.6 112.1 280.2 111.1 281.0 111.0 C 281.0 111.0 281.0 111.0 281.0 111.0 Z M 286.9 108.4 C 286.7 108.5 286.1 108.7 285.2 109.2 C 286.1 108.5 284.7 109.1 285.9 108.5 C 285.8 108.6 290.0 106.6 287.6 107.9 C 285.4 108.8 288.2 107.7 289.2 107.3 C 288.2 107.8 286.4 109.0 286.0 108.9 C 286.6 108.7 287.0 108.4 286.9 108.4 C 286.9 108.4 286.9 108.4 286.9 108.4 Z M 319.0 80.6 C 319.0 80.4 318.6 81.1 318.4 81.4 C 319.6 79.2 320.2 77.3 320.5 76.2 C 320.3 77.2 320.4 77.3 320.7 76.7 C 320.3 77.8 320.3 78.1 320.0 78.4 C 320.2 77.4 319.7 79.2 319.0 80.6 C 319.0 80.6 319.0 80.6 319.0 80.6 Z M 319.0 80.6 " fill="#000000"></path><image xlink:href="../../CEFA4209-80C9-472B-8D2B-058B96531B72/assets/431BD2BFE54A6EFCB4B133EE2A4ED9FC.png" width="209.00" height="56.00" transform="matrix(1.00, 0.00, -0.00, -1.00, 62.0, 87.0)"></image><g><clipPath id="clip-306"><path d="M 5.4 5.4 L 324.1 5.4 L 324.1 133.8 L 5.4 133.8 Z M 5.4 5.4 "></path></clipPath><g clip-path="url(#clip-306)"><text xml:space="preserve" font-family="Chalkduster" font-size="32.0" fill="#000000" transform="matrix(1.00, 0.00, -0.00, -1.00, 65.0, 55.0)">L</text><text xml:space="preserve" font-family="Chalkduster" font-size="32.0" fill="#000000" transform="matrix(1.00, 0.00, -0.00, -1.00, 85.3, 55.0)">i</text><text xml:space="preserve" font-family="Chalkduster" font-size="32.0" fill="#000000" transform="matrix(1.00, 0.00, -0.00, -1.00, 97.9, 55.0)">n</text><text xml:space="preserve" font-family="Chalkduster" font-size="32.0" fill="#000000" transform="matrix(1.00, 0.00, -0.00, -1.00, 121.4, 55.0)">k</text><text xml:space="preserve" font-family="Chalkduster" font-size="32.0" fill="#000000" transform="matrix(1.00, 0.00, -0.00, -1.00, 146.3, 55.0)"> </text><text xml:space="preserve" font-family="Chalkduster" font-size="32.0" fill="#000000" transform="matrix(1.00, 0.00, -0.00, -1.00, 162.2, 55.0)">S</text><text xml:space="preserve" font-family="Chalkduster" font-size="32.0" fill="#000000" transform="matrix(1.00, 0.00, -0.00, -1.00, 178.1, 55.0)">p</text><text xml:space="preserve" font-family="Chalkduster" font-size="32.0" fill="#000000" transform="matrix(1.00, 0.00, -0.00, -1.00, 198.2, 55.0)">e</text><text xml:space="preserve" font-family="Chalkduster" font-size="32.0" fill="#000000" transform="matrix(1.00, 0.00, -0.00, -1.00, 218.1, 55.0)">e</text><text xml:space="preserve" font-family="Chalkduster" font-size="32.0" fill="#000000" transform="matrix(1.00, 0.00, -0.00, -1.00, 238.9, 55.0)">d</text></g></g></g></svg>