<?xml version="1.0" encoding="UTF-8" standalone="no"?><svg xmlns="http://www.w3.org/2000/svg" xmlns:xlink="http://www.w3.org/1999/xlink" clip-rule="evenodd" stroke-miterlimit="4.00" viewBox="0 0 294 121"><desc>SVG generated by Keynote</desc><defs></defs><g transform="matrix(1.00, 0.00, -0.00, -1.00, 0.0, 121.0)"><image xlink:href="71CEFD3BB9B3CA57AF76F25E1D3C11E7.png" width="291.00" height="118.00" transform="matrix(1.00, 0.00, -0.00, -1.00, 1.5, 119.4)" opacity="0.50"></image><path d="M 10.5 110.4 L 283.1 110.4 L 283.1 10.4 L 10.5 10.4 Z M 10.5 110.4 " fill="#010101"></path><path d="M 286.9 44.7 C 286.9 44.2 286.9 43.6 286.9 42.5 C 286.8 43.0 286.7 43.4 286.6 43.3 C 286.7 44.2 286.7 45.3 286.7 47.0 C 286.8 46.9 286.8 46.1 286.8 45.5 C 286.8 44.8 286.9 44.9 286.9 44.7 C 286.9 44.7 286.9 44.7 286.9 44.7 Z M 124.2 7.1 C 125.6 7.1 124.0 6.9 123.5 6.9 C 123.4 6.9 123.3 7.0 122.8 6.9 C 122.6 6.7 123.9 6.7 124.8 6.6 C 128.7 6.7 125.9 7.1 124.2 7.1 C 124.2 7.1 124.2 7.1 124.2 7.1 Z M 7.4 78.0 C 7.3 81.1 7.6 77.9 7.7 77.4 C 7.7 78.9 8.1 77.8 8.2 79.7 C 8.0 80.0 8.0 80.7 7.8 81.0 C 7.8 80.1 7.8 79.0 7.8 78.8 C 7.7 79.9 7.8 81.4 7.7 81.6 C 7.6 79.2 7.4 81.1 7.3 81.5 C 7.3 79.4 7.1 78.6 7.4 78.0 C 7.4 78.0 7.4 78.0 7.4 78.0 Z M 131.8 113.1 C 131.0 113.1 130.2 113.1 130.4 112.9 C 131.3 112.9 131.9 113.0 132.5 113.0 C 132.6 112.9 132.2 112.8 133.0 112.8 C 134.1 113.0 133.7 113.3 133.3 113.4 C 133.2 113.2 130.1 113.3 131.8 113.1 C 131.8 113.1 131.8 113.1 131.8 113.1 Z M 209.4 112.7 C 212.1 112.8 209.3 112.3 212.0 112.4 C 212.1 112.7 212.7 112.9 210.9 112.9 C 210.7 112.8 209.7 112.8 209.4 112.7 C 209.4 112.7 209.4 112.7 209.4 112.7 Z M 17.8 9.1 C 17.6 8.9 15.8 9.0 16.1 8.8 C 17.0 8.8 17.9 8.8 18.8 8.8 C 19.2 9.0 19.0 9.1 17.8 9.1 C 17.8 9.1 17.8 9.1 17.8 9.1 Z M 9.7 99.4 C 9.4 102.5 9.8 105.9 9.6 104.9 C 9.3 106.1 8.8 102.6 9.1 102.8 C 9.4 102.5 9.7 96.9 9.7 99.4 C 9.7 99.4 9.7 99.4 9.7 99.4 Z M 109.3 11.3 C 106.0 11.1 106.8 11.7 104.6 11.4 C 105.3 11.4 105.6 11.3 105.9 11.3 C 105.4 11.2 104.6 11.3 104.5 11.2 C 106.1 11.1 107.9 11.1 109.3 11.3 C 109.3 11.3 109.3 11.3 109.3 11.3 Z M 286.4 94.3 C 286.4 94.9 286.4 95.2 286.5 95.2 C 286.5 97.5 286.7 97.5 286.5 98.9 C 286.2 98.7 286.3 96.9 286.4 95.1 C 286.3 95.0 286.3 94.4 286.4 94.3 C 286.4 94.3 286.4 94.3 286.4 94.3 Z M 243.2 112.8 C 243.5 113.0 244.8 113.1 242.8 113.2 C 240.3 112.9 242.1 112.7 244.4 112.5 C 244.3 112.4 244.2 112.3 244.1 112.2 C 243.1 112.2 242.5 112.2 241.9 112.1 C 241.9 112.5 239.7 111.8 236.4 112.0 C 237.9 111.9 235.9 111.6 238.2 111.7 C 237.4 111.5 239.0 111.5 238.5 111.3 C 237.7 111.5 235.3 111.4 236.1 111.7 C 234.9 111.7 234.0 111.7 233.3 111.6 C 232.2 111.4 235.5 111.6 234.4 111.3 C 233.7 111.3 233.5 111.3 233.0 111.2 C 232.9 111.3 233.3 111.5 232.5 111.5 C 230.2 111.4 232.7 111.2 229.5 111.2 C 229.4 111.3 230.4 111.3 230.5 111.5 C 229.2 111.6 229.1 111.4 227.8 111.6 C 227.4 111.4 228.6 111.4 227.6 111.3 C 227.0 111.7 224.5 111.1 222.8 111.4 C 224.6 111.9 222.4 111.3 221.1 111.8 C 220.6 111.7 221.6 111.3 220.0 111.3 C 221.1 112.0 214.8 111.8 220.1 112.3 C 217.5 112.3 217.0 112.8 219.1 112.8 C 214.5 112.7 216.2 113.0 214.5 113.1 C 212.7 113.1 215.3 112.9 214.2 112.8 C 216.1 112.8 215.5 112.6 217.0 112.8 C 216.9 112.7 217.2 112.6 217.5 112.5 C 215.8 112.7 213.3 112.3 214.4 112.0 C 215.4 112.1 214.7 112.3 216.0 112.4 C 215.3 112.0 217.4 112.4 217.3 112.2 C 216.2 111.9 218.7 111.6 216.1 111.6 C 216.2 111.7 216.3 111.8 216.4 112.0 C 215.7 112.0 215.0 112.0 214.4 112.0 C 213.6 111.7 213.9 111.6 213.3 111.5 C 212.1 111.5 211.6 111.5 211.3 111.6 C 212.8 111.7 214.6 111.9 212.3 112.0 C 212.8 111.5 208.9 111.8 210.6 111.6 C 207.9 111.4 207.0 111.8 206.5 111.5 C 205.1 111.5 206.2 111.7 204.6 111.7 C 201.9 111.5 202.6 111.8 199.0 111.6 C 198.9 112.0 198.6 111.6 197.6 111.6 C 197.7 111.7 197.8 111.8 197.8 112.0 C 196.5 111.7 193.7 111.6 191.0 111.9 C 190.2 111.8 190.6 111.6 188.7 111.6 C 187.0 112.0 184.3 111.6 182.1 112.0 C 181.8 111.8 180.1 111.8 179.3 111.9 C 178.9 111.8 179.9 111.5 178.4 111.5 C 177.5 111.7 179.3 111.8 177.3 111.9 C 177.3 111.6 175.4 112.1 175.1 111.8 C 175.8 111.7 176.4 111.6 177.1 111.6 C 176.1 111.6 176.3 111.4 175.6 111.4 C 175.9 111.7 174.1 111.5 173.5 111.4 C 173.6 111.5 173.5 111.6 173.0 111.7 C 171.8 111.7 170.9 111.7 170.3 111.8 C 168.7 111.7 171.1 111.6 169.5 111.6 C 169.1 112.2 167.2 111.5 164.2 111.9 C 163.4 111.7 162.0 111.6 159.9 111.6 C 159.8 111.7 161.9 111.6 162.1 111.8 C 159.1 111.7 162.7 112.0 160.8 112.0 C 156.4 111.8 153.6 111.8 149.0 111.6 C 149.1 111.8 145.7 112.0 145.7 111.9 C 146.6 111.8 143.6 111.6 142.1 111.6 C 141.9 112.0 139.8 112.3 139.8 112.5 C 139.1 112.3 139.3 112.3 138.8 112.0 C 136.2 111.8 135.1 112.2 133.3 111.8 C 133.5 112.0 132.3 112.1 131.3 112.1 C 131.5 111.9 132.1 111.8 132.5 111.6 C 131.2 111.7 131.0 111.5 129.8 111.6 C 128.9 112.2 126.5 111.4 125.8 112.0 C 123.9 112.1 124.1 111.8 122.3 111.8 C 122.4 111.9 122.3 112.0 121.8 112.1 C 122.9 112.1 123.7 111.8 124.5 112.1 C 121.9 112.2 129.8 112.8 125.6 113.1 C 125.4 113.0 125.7 112.8 124.8 112.8 C 122.3 112.9 123.9 113.1 124.9 113.1 C 123.3 113.2 121.5 113.1 123.0 113.4 C 119.2 113.5 121.5 113.3 120.1 113.2 C 113.3 113.4 104.7 113.4 95.3 113.2 C 95.1 113.5 90.0 113.2 88.3 113.0 C 85.8 113.2 83.1 113.3 82.2 113.0 C 81.8 113.3 78.9 112.8 78.7 113.1 C 79.8 113.1 80.6 113.2 79.5 113.2 C 75.6 113.1 69.9 113.0 67.7 113.2 C 66.3 112.9 63.8 113.0 62.2 113.2 C 61.9 113.0 63.2 113.0 62.1 112.9 C 61.8 113.1 58.3 113.3 57.4 113.1 C 58.5 113.1 59.6 112.8 58.0 112.8 C 58.0 112.9 56.2 112.9 56.7 113.1 C 54.4 112.9 53.0 113.1 51.1 113.0 C 52.7 113.0 53.6 112.9 53.8 112.7 C 52.5 112.8 51.5 112.9 50.4 112.7 C 50.7 113.0 48.6 112.8 46.4 113.0 C 45.7 112.9 45.3 112.7 43.5 112.8 C 42.7 113.0 46.3 113.0 44.3 113.1 C 44.3 113.0 42.4 112.8 42.9 113.1 C 40.5 112.9 39.3 113.1 37.4 112.9 C 39.8 113.0 37.9 112.6 37.3 112.6 C 36.8 112.6 36.0 112.6 36.0 112.7 C 36.0 112.8 37.2 112.8 37.4 112.8 C 35.7 112.7 35.2 113.2 34.6 112.9 C 35.3 112.9 35.5 112.8 34.6 112.8 C 34.4 113.1 29.5 112.9 31.2 112.7 C 31.2 112.8 33.1 112.8 33.2 112.7 C 32.7 112.6 29.9 112.7 30.5 112.4 C 32.1 112.4 32.0 112.6 33.9 112.5 C 34.1 112.4 35.2 112.3 36.0 112.2 C 32.9 112.2 32.2 112.5 31.8 112.2 C 30.5 112.2 31.3 112.5 29.1 112.4 C 25.9 112.4 28.5 112.1 27.7 112.0 C 24.9 112.2 25.8 112.5 27.0 112.8 C 24.8 112.7 24.1 112.9 21.5 112.8 C 21.6 112.7 22.0 112.6 22.9 112.5 C 23.0 112.6 25.2 112.8 25.0 112.6 C 24.8 112.2 23.0 112.1 20.1 112.0 C 20.8 112.4 20.9 112.2 18.1 112.2 C 18.6 112.6 16.7 112.1 16.7 112.4 C 16.8 112.5 17.8 112.4 18.7 112.4 C 18.7 112.6 18.4 112.7 17.4 112.8 C 16.8 112.6 16.3 112.8 14.7 112.7 C 14.5 112.5 15.7 112.4 16.0 112.3 C 15.1 112.3 14.9 112.4 13.9 112.4 C 13.1 112.2 13.2 111.9 13.2 111.6 C 14.3 111.5 16.0 111.5 14.6 111.3 C 18.6 111.3 14.4 111.7 16.0 111.7 C 17.6 111.4 16.7 111.8 19.4 111.8 C 20.2 111.8 20.5 111.7 20.8 111.6 C 20.6 111.6 19.0 111.3 20.8 111.3 C 21.2 111.5 22.1 111.6 23.5 111.6 C 23.5 111.5 20.7 111.4 23.5 111.4 C 24.9 111.4 23.7 111.8 25.6 111.7 C 25.6 111.6 26.1 111.6 26.3 111.6 C 23.5 111.6 26.8 111.4 24.9 111.2 C 27.3 111.1 25.3 111.5 26.9 111.5 C 27.0 111.3 29.6 111.6 29.7 111.3 C 28.7 111.4 26.7 111.4 26.9 111.2 C 28.7 111.2 37.0 111.0 33.8 111.4 C 35.0 111.2 41.0 110.9 40.6 111.1 C 38.8 111.0 38.9 111.2 38.6 111.4 C 42.0 111.1 43.7 111.3 47.4 111.0 C 43.4 110.9 46.4 110.5 44.0 110.4 C 42.9 110.4 41.4 110.3 41.2 110.4 C 41.7 110.7 43.3 110.6 44.0 110.4 C 44.0 110.7 44.0 110.9 44.1 111.1 C 39.6 110.8 37.2 111.1 35.1 111.0 C 36.9 111.0 31.7 110.7 33.7 110.6 C 34.6 110.8 36.8 110.8 38.6 110.8 C 38.5 110.8 38.5 110.7 38.5 110.6 C 39.3 110.6 40.5 110.6 40.5 110.5 C 38.1 110.6 36.7 110.3 35.1 110.5 C 35.1 110.5 35.1 110.4 35.0 110.4 C 34.7 110.4 34.3 110.3 34.4 110.3 C 35.2 110.3 36.3 110.3 36.4 110.2 C 34.6 110.1 34.3 109.9 32.3 109.9 C 32.7 109.6 30.0 109.3 33.0 109.2 C 33.4 109.4 35.0 109.5 35.0 109.6 C 35.9 109.7 37.6 109.7 38.4 109.6 C 37.5 109.4 35.8 109.3 35.7 109.1 C 37.0 109.0 38.2 108.9 39.0 109.2 C 36.1 109.3 40.7 109.4 41.8 109.6 C 41.5 109.5 40.8 109.4 40.4 109.3 C 42.6 109.3 43.7 109.5 43.8 109.2 C 46.5 109.0 46.0 109.3 47.9 109.3 C 46.6 109.0 49.1 109.2 47.8 108.8 C 51.0 108.8 48.8 109.1 49.9 109.2 C 50.9 109.1 51.0 109.0 51.9 109.0 C 53.4 109.2 56.3 109.2 56.8 109.5 C 58.0 109.5 58.3 109.6 59.5 109.6 C 59.8 109.5 60.2 109.4 60.8 109.3 C 61.0 109.4 62.0 109.5 62.2 109.4 C 58.6 109.0 59.6 109.0 55.9 108.8 C 55.7 108.9 55.2 108.9 56.0 109.0 C 53.5 109.1 52.7 108.9 50.5 108.9 C 50.2 108.7 49.7 108.4 47.8 108.6 C 48.2 108.3 47.7 108.3 48.4 108.2 C 49.5 108.3 51.0 108.4 52.5 108.5 C 52.6 108.4 52.4 108.3 53.1 108.3 C 53.9 108.4 55.0 108.5 55.9 108.4 C 56.0 108.5 55.6 108.5 55.2 108.6 C 58.6 108.7 57.4 108.3 60.0 108.5 C 59.6 108.4 57.9 108.4 59.3 108.2 C 61.6 108.1 62.1 108.3 63.3 108.4 C 63.5 108.3 63.4 108.2 64.0 108.2 C 65.7 108.4 60.5 108.7 63.5 109.0 C 63.6 108.7 66.5 108.8 66.9 109.0 C 66.0 109.2 64.3 108.9 64.2 109.1 C 69.4 109.1 64.4 109.5 69.7 109.6 C 69.7 109.5 69.7 109.3 69.7 109.2 C 67.5 109.3 67.4 109.1 67.5 108.8 C 65.7 108.8 64.9 108.5 63.4 108.7 C 63.9 108.2 64.9 108.7 66.8 108.7 C 66.7 108.4 65.0 108.4 64.7 108.2 C 69.1 108.4 69.9 108.1 74.2 108.4 C 73.1 108.2 76.5 108.4 76.2 108.2 C 72.5 108.2 73.9 107.6 73.3 107.5 C 70.9 107.5 72.1 108.0 70.7 108.1 C 70.0 107.9 70.3 107.7 70.6 107.4 C 72.7 107.5 72.4 107.4 74.0 107.3 C 75.4 107.5 76.7 108.0 74.8 108.1 C 75.2 108.1 77.9 107.9 78.2 108.1 C 75.5 108.1 78.5 108.2 76.9 108.4 C 79.0 108.5 82.6 108.2 85.1 108.4 C 84.8 108.3 85.8 108.3 85.6 108.1 C 83.2 108.4 82.6 107.8 80.2 107.8 C 81.2 107.8 80.6 107.6 80.1 107.6 C 82.5 107.7 83.8 107.5 85.5 107.7 C 85.5 107.6 85.5 107.6 85.5 107.5 C 88.4 107.7 88.0 107.6 90.2 107.4 C 91.1 107.5 90.0 108.0 89.8 108.2 C 90.8 108.1 94.7 108.1 92.4 107.9 C 94.7 107.9 94.2 108.2 96.5 108.2 C 96.5 108.0 94.3 108.0 95.0 107.6 C 97.2 107.6 96.0 107.9 97.7 107.7 C 97.9 107.9 98.0 108.1 99.8 108.1 C 98.4 107.9 100.0 108.0 100.5 107.9 C 99.6 107.8 98.9 107.8 98.4 107.7 C 101.8 107.8 102.4 107.8 105.1 107.7 C 104.2 108.0 105.7 108.1 103.9 108.2 C 105.6 108.0 107.8 108.3 108.7 108.2 C 107.6 108.1 105.9 108.1 105.2 108.0 C 110.6 107.9 113.3 107.6 118.0 108.0 C 117.3 108.0 116.1 107.9 116.0 108.0 C 116.6 108.1 117.4 108.0 117.4 108.1 C 115.8 108.1 114.2 108.1 113.4 108.2 C 111.9 108.1 114.2 108.0 112.6 108.0 C 112.4 108.1 109.5 108.0 110.7 108.3 C 113.2 108.1 115.7 108.3 117.0 108.7 C 119.2 108.2 117.0 108.3 119.4 107.8 C 119.3 107.9 120.0 108.0 120.8 108.0 C 119.8 107.7 123.1 107.9 123.4 107.9 C 122.3 108.0 117.9 108.2 120.3 108.5 C 119.0 107.9 125.6 108.7 124.2 108.2 C 127.1 108.1 126.2 108.5 127.6 108.2 C 127.7 108.3 127.6 108.4 128.4 108.4 C 129.2 108.4 129.4 108.3 129.7 108.3 C 125.6 108.1 126.7 107.8 124.0 107.8 C 124.5 107.8 124.9 107.8 124.7 107.7 C 124.7 107.7 124.8 107.6 125.4 107.6 C 125.7 108.0 127.4 107.6 128.1 107.8 C 127.3 107.8 126.5 107.8 126.9 108.0 C 130.2 107.9 129.8 108.2 134.4 108.4 C 133.0 108.2 134.8 108.1 136.4 108.1 C 138.6 108.1 138.0 108.5 140.7 108.5 C 140.1 107.9 143.5 108.6 146.6 108.2 C 146.4 108.5 150.7 108.6 151.4 108.4 C 151.6 108.5 153.1 108.4 154.2 108.4 C 154.5 108.6 153.3 108.6 154.3 108.7 C 155.2 108.6 154.2 108.4 155.4 108.4 C 156.9 108.4 156.8 108.7 159.0 108.7 C 158.9 108.5 157.8 108.5 158.8 108.4 C 160.8 108.5 162.5 108.4 160.8 108.2 C 163.6 108.2 162.4 108.6 165.1 108.6 C 164.2 108.5 164.2 108.4 165.6 108.4 C 166.7 108.6 166.8 108.6 167.2 108.8 C 167.9 108.5 167.6 108.5 169.8 108.6 C 169.8 108.5 169.7 108.4 169.6 108.3 C 170.6 108.3 172.1 108.2 172.4 108.3 C 170.5 108.3 171.2 108.5 170.5 108.6 C 172.4 108.6 176.1 108.9 173.2 108.6 C 175.7 108.5 174.7 108.8 176.7 108.8 C 175.3 108.5 176.6 108.7 178.7 108.7 C 178.3 108.3 180.0 108.6 181.3 108.6 C 181.0 108.4 181.3 108.3 182.5 108.3 C 182.5 108.4 183.3 108.5 184.6 108.4 C 184.5 108.3 181.6 108.2 184.5 108.2 C 185.8 108.3 186.0 108.6 188.1 108.6 C 188.8 108.8 186.3 108.7 187.0 109.0 C 188.6 108.8 189.2 108.9 191.8 109.0 C 190.5 108.5 196.4 108.4 193.3 108.2 C 194.2 108.2 195.1 107.9 195.9 108.1 C 195.1 108.2 196.9 108.4 196.8 108.4 C 198.0 108.4 200.9 108.5 200.8 108.4 C 198.3 108.4 198.1 108.2 197.2 108.0 C 200.9 107.9 204.2 108.0 204.2 108.3 C 204.1 108.2 204.6 108.2 204.7 108.1 C 203.4 108.2 202.3 107.7 203.8 107.7 C 203.6 108.0 204.8 108.0 206.0 108.1 C 205.9 107.9 211.1 108.2 209.9 107.9 C 208.1 108.1 206.3 107.7 207.7 107.6 C 209.1 107.8 211.9 107.9 211.4 108.1 C 212.1 108.0 212.7 108.0 213.3 107.9 C 213.7 107.6 212.2 107.7 212.4 107.5 C 213.3 107.5 214.8 107.4 215.1 107.6 C 212.4 107.6 216.6 107.7 214.0 107.9 C 215.7 107.9 216.2 108.0 217.5 108.0 C 217.5 108.0 218.0 107.9 218.1 107.9 C 217.0 108.0 215.7 107.9 215.8 107.6 C 218.2 107.6 218.1 107.9 220.1 107.9 C 220.6 107.7 223.1 107.4 224.6 107.6 C 221.9 107.5 224.9 107.7 223.4 107.8 C 220.8 107.6 220.4 107.9 219.6 108.1 C 220.8 108.2 222.9 108.3 222.9 108.0 C 221.6 108.0 221.7 108.1 221.0 108.2 C 221.0 108.0 221.3 107.9 222.1 107.9 C 223.4 108.1 225.8 107.9 224.4 108.2 C 226.0 108.0 228.1 108.3 229.7 108.1 C 227.7 108.1 226.2 108.0 225.4 107.8 C 227.0 107.7 228.9 108.0 228.8 107.8 C 228.4 107.6 225.9 107.7 225.2 107.5 C 227.1 107.2 230.9 107.9 227.8 107.4 C 229.0 107.4 230.7 107.4 231.3 107.6 C 229.9 107.6 231.7 107.9 232.4 108.0 C 233.6 107.9 234.6 107.9 234.9 107.8 C 233.1 107.9 231.4 107.6 232.7 107.6 C 233.1 107.7 233.4 107.5 233.9 107.5 C 234.2 107.6 236.3 107.5 236.8 107.6 C 236.5 107.5 235.5 107.5 235.3 107.4 C 236.4 107.3 238.0 107.0 239.2 107.3 C 238.4 107.3 237.3 107.3 237.3 107.4 C 241.1 107.7 242.5 108.0 246.7 108.2 C 246.2 108.2 246.0 108.3 246.2 108.4 C 248.9 108.4 250.7 108.5 250.5 108.7 C 252.1 108.6 252.9 108.5 253.6 108.4 C 251.8 108.2 251.4 108.4 250.2 108.3 C 250.8 108.2 248.4 107.8 247.6 107.6 C 244.9 107.9 244.3 107.5 241.5 107.6 C 242.1 107.4 239.3 107.6 239.9 107.3 C 243.0 107.7 245.4 107.4 249.5 107.6 C 249.2 107.8 248.9 107.9 250.6 108.0 C 253.3 108.2 251.8 107.8 253.9 107.9 C 255.0 108.1 253.7 108.1 254.9 108.2 C 255.5 108.1 257.5 108.1 258.4 108.4 C 255.6 108.3 259.1 108.6 257.3 108.7 C 258.3 108.7 258.8 108.7 259.5 108.8 C 256.5 108.5 261.9 108.4 259.6 108.2 C 263.3 108.1 260.4 108.8 263.5 108.8 C 261.8 108.6 263.7 108.5 266.0 108.5 C 266.8 108.8 269.2 108.8 271.1 108.9 C 270.0 108.7 269.2 108.7 270.8 108.6 C 269.8 108.5 268.2 108.5 267.4 108.6 C 267.3 108.5 267.0 108.4 266.5 108.4 C 268.7 108.3 267.7 108.2 268.3 108.1 C 269.1 108.2 270.7 108.2 271.2 108.4 C 271.2 108.3 271.8 108.3 271.8 108.2 C 268.9 108.2 271.9 107.9 270.1 107.8 C 268.8 107.8 269.8 108.1 268.2 108.0 C 266.4 107.7 269.2 107.7 269.7 107.5 C 268.2 107.3 267.0 107.6 266.2 107.3 C 267.7 107.0 270.6 107.2 272.9 107.3 C 272.5 107.0 276.8 107.4 276.7 107.0 C 277.1 107.1 277.6 107.2 278.3 107.2 C 278.6 107.0 279.3 107.2 279.9 107.3 C 280.0 107.2 280.0 107.1 280.0 106.9 C 279.9 106.8 279.8 106.8 279.7 107.0 C 279.6 107.0 279.5 107.0 279.4 107.0 C 279.5 107.0 279.6 107.0 279.7 107.0 C 279.8 104.7 279.8 104.0 279.6 100.9 C 279.8 100.5 279.9 100.1 280.1 100.0 C 280.2 100.8 280.2 101.5 280.3 102.1 C 280.3 97.8 279.6 100.0 280.1 97.4 C 279.9 97.4 279.6 99.2 279.6 97.6 C 279.9 95.2 279.6 91.2 280.3 91.8 C 280.5 89.5 280.1 87.6 280.4 86.7 C 280.4 85.9 280.3 85.6 280.2 85.3 C 280.1 85.9 279.9 86.8 279.8 87.6 C 279.9 89.1 279.7 89.6 280.1 88.4 C 280.1 90.6 279.9 91.0 279.8 92.1 C 279.6 89.1 279.9 86.5 279.5 86.2 C 279.6 85.3 279.8 84.6 280.0 83.9 C 279.8 83.5 279.7 80.2 280.0 80.0 C 279.9 82.2 280.2 84.7 280.4 82.8 C 280.2 77.2 280.6 74.2 280.4 69.2 C 280.5 69.1 280.7 69.6 280.7 68.7 C 280.5 68.7 280.4 68.4 280.4 67.9 C 280.4 66.4 280.5 65.5 280.4 63.5 C 280.7 63.6 280.9 63.3 280.9 62.2 C 280.7 61.5 280.2 59.4 280.3 58.2 C 280.3 59.5 280.6 57.8 280.6 57.0 C 280.3 57.7 280.9 51.1 280.5 53.0 C 280.5 50.4 280.7 49.2 280.8 49.1 C 280.7 48.2 280.7 47.5 280.6 46.6 C 281.0 45.9 280.7 41.4 280.9 40.7 C 280.7 42.3 281.1 42.5 281.1 41.2 C 280.9 40.4 280.7 36.3 280.8 35.5 C 280.9 35.7 281.1 35.9 281.2 37.9 C 281.2 34.4 280.8 34.6 280.6 33.6 C 280.9 33.6 280.7 32.1 280.6 31.7 C 280.8 30.5 280.7 31.7 280.9 31.5 C 281.0 30.2 281.1 29.7 281.1 28.1 C 280.8 28.7 281.0 26.8 281.0 26.2 C 280.8 26.1 280.7 25.2 280.7 23.8 C 281.1 25.5 281.1 15.1 280.9 17.8 C 280.6 16.0 281.1 15.5 281.1 13.0 C 281.0 12.9 281.0 12.7 281.0 12.5 C 281.0 12.0 281.0 11.5 280.9 12.6 C 280.9 12.6 280.9 12.6 280.9 12.6 C 278.7 12.7 280.3 12.3 277.6 12.5 C 278.4 12.8 275.1 12.4 275.3 12.8 C 274.7 12.3 272.0 12.9 270.2 12.5 C 270.1 12.6 269.5 12.6 269.3 12.7 C 268.9 12.8 271.8 12.9 269.8 12.9 C 267.7 12.8 269.0 12.7 268.8 12.5 C 262.6 12.7 255.2 12.5 248.7 12.5 C 249.4 12.6 249.3 12.7 247.9 12.7 C 246.3 12.2 238.5 12.5 237.2 12.6 C 236.7 12.3 232.6 12.6 231.9 12.5 C 232.7 12.5 234.4 12.2 232.7 12.2 C 231.5 12.5 230.3 12.3 228.5 12.5 C 227.9 12.2 223.0 12.6 225.4 12.1 C 224.5 12.1 224.0 12.0 223.5 12.0 C 223.3 12.3 222.3 12.2 223.9 12.4 C 219.6 12.2 218.5 12.4 215.2 12.2 C 214.6 12.4 217.1 12.5 215.1 12.5 C 215.1 12.5 215.1 12.4 215.1 12.4 C 214.4 12.4 214.1 12.5 213.8 12.4 C 214.0 12.2 215.1 12.3 215.3 12.0 C 213.6 12.1 212.7 11.7 212.0 12.0 C 214.3 12.0 212.5 12.5 211.2 12.2 C 212.5 12.1 205.9 12.2 203.7 12.4 C 202.8 12.1 206.0 12.3 205.9 12.1 C 201.9 12.2 202.3 12.1 201.7 12.4 C 199.6 12.3 198.9 12.1 196.3 12.3 C 194.9 12.2 197.3 12.1 195.8 12.1 C 194.8 12.1 194.4 12.3 193.0 12.3 C 189.6 11.8 180.9 12.6 177.0 11.8 C 178.6 12.0 176.4 12.2 174.2 12.1 C 174.1 12.0 174.4 11.9 173.6 11.9 C 173.7 12.1 173.0 12.2 171.5 12.1 C 171.4 12.0 171.7 11.9 170.9 11.9 C 170.3 12.2 168.5 11.9 167.5 12.1 C 167.0 11.8 170.0 11.9 170.2 11.7 C 166.7 11.6 166.1 11.8 163.5 11.7 C 164.9 11.7 162.5 11.5 162.1 11.4 C 162.7 11.7 160.6 11.8 162.1 12.0 C 161.1 12.0 159.6 12.0 159.4 11.9 C 159.9 11.9 160.8 11.9 160.8 11.8 C 159.5 11.9 158.0 11.6 157.3 11.8 C 158.2 11.9 158.7 11.9 158.7 12.1 C 158.4 12.2 158.0 12.2 157.3 12.3 C 159.3 11.7 153.7 12.0 153.3 12.1 C 152.8 11.8 152.5 11.8 152.7 11.6 C 150.3 11.5 150.6 11.8 149.2 11.9 C 149.7 11.6 150.1 11.4 147.9 11.3 C 148.4 11.6 145.8 11.5 146.6 11.9 C 141.0 12.0 139.8 11.6 136.4 11.7 C 136.3 11.8 137.4 11.8 136.4 11.8 C 134.8 11.7 133.4 11.6 132.4 11.5 C 131.5 11.7 132.7 11.8 131.7 11.8 C 129.2 11.6 129.8 11.3 127.6 11.1 C 124.9 11.3 125.8 11.2 124.2 11.4 C 125.0 11.4 125.9 11.5 124.9 11.6 C 123.2 11.4 122.5 11.1 122.1 11.0 C 123.3 11.0 124.2 11.0 124.8 11.1 C 125.2 10.9 126.9 10.9 125.5 10.8 C 127.2 10.8 129.1 10.9 131.6 10.9 C 130.7 10.6 133.8 10.8 132.9 10.5 C 130.1 10.6 129.5 10.4 126.8 10.5 C 127.4 10.7 124.6 10.6 124.1 10.5 C 124.1 10.7 122.2 10.6 122.7 10.9 C 120.7 10.9 120.7 10.7 118.7 10.8 C 118.5 10.7 118.8 10.6 118.0 10.5 C 117.3 10.8 116.6 10.5 115.9 10.5 C 116.4 10.7 113.4 10.6 113.2 10.8 C 114.0 10.8 115.2 10.8 115.3 10.9 C 112.0 10.8 114.7 11.1 115.4 11.3 C 115.3 11.2 116.4 10.8 116.7 11.0 C 113.9 11.2 120.7 11.4 118.1 11.3 C 116.0 11.3 116.2 11.5 114.1 11.4 C 111.4 11.0 114.4 10.7 111.7 10.4 C 110.3 10.6 109.2 10.5 109.1 10.8 C 108.8 10.7 108.3 10.6 107.7 10.5 C 107.1 10.7 109.8 10.8 107.8 10.9 C 106.7 10.8 107.8 10.5 105.7 10.5 C 104.8 10.7 108.4 10.8 106.4 10.9 C 104.2 10.5 106.9 11.0 104.5 11.0 C 104.3 11.0 103.9 10.9 103.1 10.9 C 102.9 10.8 103.2 10.6 102.3 10.6 C 102.0 11.0 101.3 10.4 99.6 10.5 C 98.7 10.8 101.5 10.7 101.0 10.9 C 98.9 10.6 97.8 11.0 97.0 10.9 C 98.6 10.7 94.3 10.8 94.1 10.5 C 94.7 10.8 93.7 10.7 91.5 10.9 C 91.2 10.5 88.6 10.8 87.9 10.5 C 87.6 10.6 87.0 10.7 86.7 10.8 C 87.5 10.8 88.3 10.8 88.1 10.9 C 87.4 10.9 86.8 10.9 86.0 10.9 C 84.8 10.7 87.5 10.2 83.0 10.3 C 83.7 10.6 81.8 10.7 80.6 10.8 C 80.9 11.1 82.4 10.8 82.7 10.9 C 81.2 11.1 79.5 10.9 78.5 10.8 C 75.9 10.9 72.8 10.7 69.0 10.9 C 68.1 10.7 72.1 10.7 69.5 10.5 C 68.5 10.5 69.1 10.7 67.6 10.7 C 68.3 9.6 57.3 10.5 56.2 10.1 C 55.9 10.3 52.6 10.1 53.1 10.5 C 55.1 10.2 56.9 10.5 58.1 10.7 C 60.0 10.6 56.0 10.5 57.8 10.4 C 58.1 10.5 60.9 10.4 60.7 10.6 C 57.8 10.6 62.4 10.9 60.4 11.1 C 57.6 11.0 52.4 11.3 53.5 11.0 C 53.6 11.1 54.8 11.1 54.8 11.0 C 51.7 10.9 50.0 11.1 48.9 11.3 C 47.4 11.1 42.2 11.4 43.5 11.3 C 42.9 11.0 46.8 11.3 46.1 11.1 C 40.4 11.0 40.4 11.2 36.5 11.0 C 38.0 11.3 33.0 11.4 33.4 11.3 C 33.2 11.1 31.9 10.9 29.9 11.2 C 30.0 10.9 28.7 10.8 27.5 10.8 C 27.1 11.0 28.6 11.0 28.5 11.2 C 27.4 11.2 26.2 11.2 25.1 11.2 C 24.9 11.1 25.0 11.0 24.2 10.9 C 23.1 11.1 18.7 11.3 19.0 11.2 C 20.6 10.9 15.6 10.9 18.6 10.7 C 17.7 10.7 17.5 10.6 16.4 10.6 C 16.5 10.7 16.6 10.8 16.7 10.9 C 14.2 11.0 15.1 10.6 13.0 10.5 C 12.9 10.7 12.0 10.7 11.8 10.8 C 12.7 10.8 12.6 10.7 13.8 10.7 C 12.9 11.1 16.2 10.9 16.3 11.2 C 14.0 11.2 13.7 11.0 12.6 10.9 C 11.8 10.9 11.4 10.9 11.0 10.9 C 11.1 11.9 11.0 11.7 11.0 14.0 C 11.1 14.1 11.1 13.2 11.2 13.6 C 11.1 17.3 10.6 16.4 10.8 19.3 C 10.8 18.6 10.6 16.1 10.6 17.7 C 10.7 19.6 10.9 20.4 11.0 22.8 C 10.9 22.8 10.7 22.5 10.7 23.3 C 10.8 24.4 11.0 24.6 11.1 25.6 C 11.0 25.7 11.1 27.1 11.1 27.7 C 10.9 28.4 10.9 27.2 10.8 28.2 C 10.8 30.2 11.4 31.7 11.3 33.2 C 11.0 32.9 11.1 34.9 11.1 36.5 C 10.8 36.6 10.9 40.1 10.8 42.4 C 11.0 42.1 10.9 44.4 11.2 44.0 C 11.2 42.9 11.3 42.3 11.4 42.1 C 11.4 44.8 10.9 45.3 11.3 47.5 C 11.1 48.4 11.0 49.5 10.9 51.3 C 11.0 51.6 11.1 48.3 11.2 50.2 C 11.1 50.2 11.1 50.9 11.2 51.5 C 10.9 51.1 10.9 52.5 10.7 53.2 C 10.9 55.0 10.6 58.1 10.9 56.7 C 10.9 59.3 10.5 57.4 10.5 59.3 C 10.8 58.5 10.8 61.8 11.0 60.2 C 11.1 62.9 10.7 62.5 10.6 61.3 C 10.5 63.7 10.7 64.3 10.6 65.5 C 10.8 64.4 10.9 68.1 10.8 66.2 C 10.5 65.5 10.7 68.4 10.6 68.8 C 10.7 68.1 10.7 69.3 10.9 67.7 C 10.9 69.5 11.0 72.1 10.7 73.7 C 10.9 76.0 10.9 78.1 10.6 77.1 C 10.7 79.2 10.7 78.4 10.6 80.5 C 10.7 80.5 10.7 79.9 10.8 79.8 C 10.8 82.7 10.6 82.1 10.6 86.0 C 10.3 85.4 10.3 87.9 10.2 88.6 C 10.2 87.0 10.3 85.7 10.3 84.5 C 10.2 84.2 10.1 85.4 10.1 84.4 C 10.2 84.3 10.2 83.7 10.2 83.1 C 10.0 85.5 9.8 79.8 10.1 81.7 C 10.0 81.7 10.0 81.8 10.0 82.3 C 10.2 81.9 10.1 81.9 10.4 82.4 C 10.3 81.1 10.6 80.2 10.4 79.7 C 10.3 79.7 10.3 80.9 10.2 81.1 C 10.1 77.9 10.6 80.2 10.5 77.7 C 10.2 77.1 10.1 78.4 10.0 78.9 C 10.0 76.6 10.0 74.7 10.2 74.2 C 10.1 72.1 10.0 74.2 9.8 72.7 C 9.9 72.0 10.1 72.1 10.2 70.8 C 10.0 69.2 10.0 71.5 9.9 70.0 C 10.1 68.4 10.3 71.3 10.3 68.7 C 9.9 69.2 10.4 66.5 10.2 66.6 C 10.2 68.1 9.8 67.9 10.1 67.3 C 10.4 64.1 9.5 61.4 10.1 58.4 C 10.0 58.3 10.0 57.8 9.9 57.6 C 9.7 60.0 9.7 63.7 9.3 64.2 C 9.4 66.2 9.7 66.1 9.8 66.4 C 9.5 68.7 9.4 68.4 9.0 66.9 C 9.0 62.9 9.2 61.3 9.3 58.7 C 9.1 57.2 9.2 58.8 9.0 59.2 C 9.3 51.2 8.6 57.0 8.6 54.2 C 8.8 54.3 8.8 53.7 8.9 52.9 C 8.8 52.9 8.8 51.7 8.7 51.4 C 8.7 52.0 8.6 52.2 8.5 52.0 C 8.5 49.9 8.7 50.9 8.9 50.8 C 8.8 52.4 8.9 53.4 9.0 53.7 C 8.9 51.6 9.1 50.2 8.9 48.7 C 9.2 47.1 9.6 50.2 9.8 49.3 C 10.0 49.8 9.2 47.7 9.1 46.1 C 9.1 43.6 8.9 43.4 8.9 41.1 C 9.1 40.7 9.0 43.5 9.2 43.4 C 9.2 42.7 9.3 42.6 9.3 42.0 C 9.2 40.4 9.0 40.4 8.9 39.1 C 9.2 38.6 9.0 38.1 8.9 37.0 C 9.1 35.6 9.1 38.1 9.2 36.5 C 9.2 34.8 8.9 33.4 8.9 32.8 C 9.0 32.8 9.2 33.2 9.2 32.4 C 9.0 30.3 9.0 29.8 8.9 32.1 C 8.9 30.0 8.8 28.9 8.5 29.1 C 8.5 32.3 8.6 33.2 8.2 34.4 C 8.5 35.2 8.3 36.0 8.2 37.2 C 8.7 36.8 8.2 38.6 8.5 39.5 C 8.5 38.7 8.6 37.9 8.6 37.5 C 8.6 40.9 8.6 40.8 8.9 43.9 C 8.8 43.9 8.8 44.1 8.7 44.4 C 8.6 43.5 8.7 41.0 8.5 40.8 C 8.2 42.6 8.6 43.6 8.3 45.6 C 8.5 46.7 8.6 44.0 8.6 45.8 C 8.5 46.6 8.3 47.7 8.2 49.0 C 8.3 50.6 8.4 51.4 8.5 52.6 C 8.4 52.7 8.3 52.8 8.3 54.0 C 8.4 54.0 8.5 52.9 8.5 54.1 C 8.2 57.6 8.0 60.0 8.2 63.7 C 8.2 62.4 8.5 59.6 8.5 61.1 C 8.3 62.6 8.6 65.0 8.4 66.6 C 8.3 67.1 8.5 64.6 8.1 65.0 C 8.1 66.7 8.1 67.7 8.0 68.5 C 8.2 68.5 8.1 70.4 8.3 70.0 C 8.3 68.7 8.0 68.1 8.2 67.8 C 8.8 69.3 7.9 72.9 7.9 75.5 C 8.0 77.2 8.2 74.3 8.2 76.3 C 8.3 77.5 7.8 78.0 7.7 76.1 C 7.8 74.8 7.5 74.1 7.7 74.0 C 7.7 73.4 7.7 72.6 7.7 72.6 C 7.7 73.5 7.5 73.3 7.4 73.9 C 7.5 72.5 7.0 72.1 7.3 71.0 C 7.3 71.8 7.4 72.1 7.4 72.5 C 7.4 68.7 7.6 67.6 7.7 65.5 C 7.5 66.6 7.6 65.4 7.4 65.4 C 7.4 67.1 7.3 70.1 7.2 68.1 C 7.5 67.0 6.7 65.7 7.0 64.6 C 7.0 65.5 7.2 65.5 7.3 66.0 C 7.3 64.6 7.5 64.8 7.5 63.3 C 7.1 58.6 7.8 55.4 7.3 47.8 C 7.3 45.2 7.4 50.2 7.6 50.1 C 7.6 49.3 7.7 49.2 7.7 48.7 C 7.4 48.5 7.7 47.4 7.4 46.4 C 7.7 46.7 7.4 43.2 7.7 41.6 C 7.6 41.5 7.4 41.6 7.4 40.8 C 7.8 35.9 7.3 26.2 7.6 22.6 C 7.4 22.6 7.4 20.9 7.3 20.3 C 7.3 17.9 7.5 19.1 7.3 15.4 C 7.2 13.5 7.4 15.9 7.5 16.3 C 7.4 12.9 7.5 10.0 7.5 7.4 C 9.2 7.4 10.6 7.4 11.8 7.3 C 13.4 7.2 12.0 7.4 15.5 7.5 C 15.3 7.1 21.2 7.7 21.6 7.3 C 23.6 7.2 27.9 7.7 25.9 7.3 C 28.7 7.3 27.1 7.6 28.2 7.6 C 30.2 7.6 27.1 7.0 29.1 7.0 C 29.1 7.3 30.7 7.2 32.2 7.4 C 30.6 7.4 29.6 7.4 29.5 7.6 C 30.8 7.4 30.9 7.6 33.0 7.6 C 34.5 7.4 39.0 7.2 40.7 7.6 C 40.6 7.5 40.2 7.4 39.8 7.3 C 41.1 7.3 43.0 7.6 42.5 7.3 C 45.7 7.2 47.2 7.5 48.8 7.3 C 50.1 7.2 48.5 7.5 52.5 7.5 C 52.4 7.3 59.5 7.3 61.5 7.5 C 61.4 7.2 62.0 7.5 62.9 7.5 C 63.0 7.4 62.7 7.3 63.5 7.3 C 63.7 7.3 64.3 7.3 64.9 7.3 C 64.6 7.6 67.4 7.1 67.7 7.4 C 67.1 7.4 67.3 7.6 67.9 7.7 C 67.9 7.4 71.1 7.8 70.6 7.6 C 70.0 7.5 68.0 7.5 68.4 7.3 C 71.1 7.2 70.2 7.6 72.0 7.6 C 71.9 7.5 70.7 7.4 71.9 7.3 C 73.8 7.4 72.1 7.4 73.4 7.6 C 74.4 7.5 76.1 7.3 76.8 7.3 C 76.6 7.3 77.3 7.5 77.6 7.5 C 81.2 7.6 89.3 7.3 92.9 7.7 C 93.2 7.5 93.9 7.5 93.6 7.3 C 95.7 7.5 95.5 7.4 97.8 7.5 C 97.7 7.4 97.7 7.3 97.6 7.2 C 100.4 7.0 98.0 7.5 99.9 7.5 C 99.9 6.9 101.0 7.7 102.7 7.7 C 102.9 7.5 103.7 7.5 103.3 7.3 C 106.0 7.3 106.0 7.7 108.2 7.6 C 107.7 7.5 107.1 6.8 107.3 6.5 C 107.7 6.7 108.4 6.7 109.5 6.8 C 108.3 7.0 109.2 7.9 112.5 7.7 C 110.7 7.7 110.0 7.6 110.3 7.4 C 112.8 7.4 113.7 7.6 115.9 7.6 C 116.2 7.3 114.6 7.3 115.1 7.0 C 115.7 7.0 115.9 7.0 115.8 6.9 C 118.1 6.9 118.2 7.1 120.7 6.9 C 120.7 7.1 120.2 7.1 119.3 7.0 C 119.4 7.2 119.5 7.4 118.0 7.4 C 117.8 7.3 118.6 7.0 116.5 7.1 C 116.5 7.2 116.5 7.4 116.6 7.5 C 118.1 7.5 121.8 7.7 122.2 7.6 C 121.4 7.5 120.2 7.4 120.7 7.2 C 123.4 7.2 124.2 7.5 126.4 7.7 C 130.2 7.6 136.9 7.6 136.1 7.3 C 138.4 7.4 137.6 7.4 139.6 7.4 C 139.0 7.2 141.9 7.3 141.7 7.1 C 139.2 7.2 139.9 7.1 137.5 7.2 C 137.5 7.0 137.9 6.9 138.9 6.9 C 139.0 7.0 140.1 7.0 141.7 7.0 C 141.4 7.0 139.9 6.7 141.7 6.7 C 141.8 6.8 142.2 6.8 143.1 6.8 C 143.1 6.9 143.1 7.0 143.1 7.2 C 142.1 7.3 141.0 7.3 140.3 7.4 C 141.0 7.4 141.1 7.5 141.7 7.5 C 142.1 7.4 145.0 7.5 145.2 7.3 C 144.0 7.4 143.3 7.2 144.5 7.2 C 144.7 7.2 146.6 7.3 147.3 7.2 C 144.8 7.0 145.8 7.0 144.5 6.8 C 147.3 6.7 146.9 7.0 150.1 6.9 C 150.2 7.1 150.1 7.3 149.3 7.4 C 151.4 7.9 156.1 7.4 157.7 7.5 C 156.6 7.5 155.4 7.8 157.0 7.8 C 157.0 7.7 158.2 7.7 158.4 7.7 C 159.0 7.2 157.6 7.0 156.4 6.7 C 157.7 6.7 158.0 6.6 159.2 6.6 C 159.6 6.8 158.3 7.1 159.8 7.2 C 160.2 6.8 162.8 7.1 163.3 6.9 C 162.2 6.9 161.5 6.7 162.7 6.7 C 162.4 6.9 164.7 6.8 164.8 6.9 C 162.9 7.0 162.4 7.3 161.2 7.3 C 162.7 7.3 160.1 7.5 162.6 7.5 C 163.7 7.3 164.3 7.1 166.9 7.1 C 167.8 7.1 166.9 7.4 168.2 7.4 C 167.9 7.2 170.7 7.1 168.9 7.3 C 169.9 7.3 170.4 7.4 171.0 7.4 C 169.6 7.2 176.3 6.9 175.3 6.7 C 175.2 7.0 175.5 7.3 175.8 7.4 C 177.2 7.1 178.6 7.4 182.2 7.3 C 182.1 7.0 182.7 7.3 184.3 7.3 C 184.6 7.1 183.3 7.1 184.3 7.0 C 186.0 7.1 186.1 7.1 186.4 7.3 C 187.6 7.3 188.5 7.3 189.1 7.3 C 189.2 7.2 188.8 7.2 188.5 7.1 C 193.1 7.4 195.7 7.1 199.7 7.1 C 198.0 7.0 197.6 7.4 198.9 7.3 C 199.8 7.3 200.5 7.3 201.0 7.2 C 200.2 6.9 200.5 7.1 202.5 7.1 C 204.3 7.0 202.0 6.7 203.3 6.7 C 204.8 6.8 203.8 6.9 204.6 7.0 C 205.3 7.0 206.1 7.0 206.7 7.0 C 205.5 6.9 207.0 6.8 208.3 6.7 C 207.2 7.0 207.8 7.0 210.3 6.9 C 210.5 7.1 209.1 7.1 210.2 7.2 C 210.7 7.2 212.8 6.9 214.3 7.1 C 213.8 7.1 213.5 7.2 213.6 7.3 C 215.5 7.1 216.8 7.4 218.4 7.5 C 216.8 7.3 217.8 7.1 217.2 6.9 C 218.7 7.2 220.9 6.9 222.0 7.2 C 219.7 7.1 221.7 7.7 223.2 7.7 C 223.6 7.4 221.1 7.5 222.0 7.2 C 222.9 7.0 224.6 7.3 225.5 7.1 C 225.5 7.0 224.4 7.2 224.2 7.0 C 225.5 7.0 223.9 6.9 225.0 6.9 C 225.5 7.1 226.5 6.8 227.1 6.8 C 228.0 6.9 229.6 7.2 230.5 7.0 C 230.5 6.9 229.3 7.0 229.2 6.9 C 233.1 6.7 234.1 7.1 237.7 6.8 C 238.0 6.9 238.6 7.0 239.6 7.0 C 239.6 6.9 240.3 6.8 241.1 6.8 C 242.6 6.9 244.0 7.0 245.8 7.1 C 245.3 7.3 244.4 7.4 247.0 7.4 C 247.2 7.3 246.1 7.3 247.1 7.3 C 247.0 7.3 247.6 7.4 247.8 7.3 C 247.9 7.2 247.9 7.2 247.9 7.1 C 247.2 7.1 246.5 7.1 245.8 7.1 C 246.0 7.0 245.9 6.9 245.4 6.8 C 248.5 6.7 248.0 7.2 250.1 6.9 C 250.2 7.3 250.8 7.4 248.9 7.7 C 250.7 7.6 252.0 7.5 252.7 7.3 C 250.5 7.3 251.4 7.0 250.9 6.9 C 252.3 6.9 252.4 6.8 253.1 6.7 C 254.5 6.9 251.1 7.1 254.1 7.2 C 252.1 6.9 256.2 6.9 257.7 7.0 C 257.6 6.9 257.0 6.9 257.9 6.8 C 262.2 6.6 261.2 7.5 264.0 7.0 C 263.7 7.2 264.8 7.2 265.2 7.3 C 263.1 7.3 262.6 7.4 261.6 7.4 C 261.7 7.5 262.3 7.6 262.9 7.6 C 263.0 7.4 263.6 7.4 264.4 7.5 C 265.1 7.4 265.2 7.0 267.0 6.8 C 267.1 6.9 266.8 7.0 267.6 7.0 C 268.5 6.8 266.6 7.4 270.1 7.4 C 269.5 7.3 269.3 7.1 269.7 7.0 C 271.5 6.9 271.0 7.0 273.3 6.9 C 273.7 7.3 271.4 7.3 270.5 7.6 C 272.1 7.5 273.5 7.3 274.9 7.4 C 273.8 7.3 275.2 7.1 276.6 7.0 C 277.8 7.1 276.2 7.4 277.7 7.4 C 278.9 7.4 279.7 7.2 278.7 7.0 C 281.2 7.1 280.9 6.8 283.1 6.9 C 283.0 7.0 282.3 7.0 281.6 7.0 C 281.7 7.0 281.3 7.2 282.1 7.2 C 283.2 7.1 284.9 7.0 286.5 6.9 C 286.6 7.7 286.6 8.4 286.7 8.9 C 286.2 12.6 286.8 15.8 286.6 19.3 C 286.3 18.1 286.6 23.6 286.3 25.3 C 286.4 26.3 286.9 29.0 286.7 28.0 C 286.3 28.5 286.5 30.3 286.4 31.9 C 286.4 31.8 286.5 31.8 286.6 31.7 C 286.6 35.0 286.4 35.8 286.2 37.0 C 286.4 40.9 286.0 45.3 286.3 50.0 C 286.0 51.3 286.1 52.3 285.9 55.2 C 286.1 55.1 286.1 57.3 286.1 59.5 C 286.3 59.0 286.3 60.9 286.4 60.9 C 286.5 59.0 286.7 59.7 286.8 58.7 C 286.6 61.3 287.1 62.6 286.8 64.6 C 286.7 62.1 286.4 61.3 286.0 60.9 C 286.1 63.9 286.0 65.4 285.8 66.0 C 286.0 66.2 286.1 65.9 286.2 65.2 C 286.2 66.2 286.2 67.2 286.2 68.1 C 286.1 68.4 286.0 67.1 286.0 68.1 C 286.0 68.8 286.1 69.6 286.2 70.3 C 286.0 71.1 286.0 69.2 285.9 68.9 C 285.8 72.7 286.3 71.1 286.4 73.3 C 286.2 73.8 285.9 73.6 285.9 75.3 C 286.0 76.1 286.3 76.4 286.3 78.4 C 286.2 79.6 285.9 78.2 285.9 79.6 C 286.0 79.9 285.9 80.5 285.9 81.1 C 286.0 81.1 286.1 81.7 286.1 82.6 C 286.0 82.8 286.1 84.2 286.1 84.8 C 286.0 84.9 285.7 87.0 285.9 87.6 C 286.0 87.6 286.0 86.3 286.0 86.2 C 286.0 87.8 286.1 89.0 286.1 89.9 C 285.6 90.1 286.0 93.0 285.7 96.1 C 285.9 98.3 286.1 96.0 286.3 98.7 C 286.1 100.1 286.1 98.2 285.8 98.3 C 285.8 98.7 285.6 101.0 285.8 101.2 C 285.9 101.3 285.9 100.0 286.0 99.9 C 286.2 102.0 285.9 101.7 285.8 102.7 C 286.0 102.7 286.0 104.0 286.2 104.4 C 286.3 109.8 285.9 109.3 285.7 111.2 C 285.8 111.3 285.8 112.6 285.9 112.8 C 285.8 111.2 286.0 109.5 286.0 111.5 C 286.0 111.2 286.0 112.4 286.0 113.4 C 285.6 113.4 285.2 113.4 285.1 113.5 C 285.3 113.5 285.8 113.5 286.2 113.6 C 286.3 113.1 286.3 112.8 286.4 113.3 C 286.4 113.5 286.4 113.7 286.4 113.8 C 284.4 113.8 284.8 113.4 283.2 113.6 C 282.8 113.5 284.0 113.5 284.4 113.4 C 283.5 113.4 282.4 113.4 282.2 113.3 C 283.1 113.2 283.0 113.0 283.2 112.9 C 282.1 113.1 279.5 112.9 281.5 113.2 C 278.6 113.1 276.2 113.3 278.3 113.5 C 276.1 113.6 277.0 113.3 275.4 113.5 C 275.4 113.2 275.8 113.0 274.1 112.8 C 274.0 113.0 272.9 113.0 273.2 113.2 C 269.9 113.2 268.7 113.0 267.2 112.7 C 268.7 113.1 266.8 112.8 265.4 113.1 C 264.3 113.0 265.0 112.6 262.4 112.7 C 265.6 113.1 259.1 112.8 260.7 113.2 C 257.2 113.0 257.2 113.0 253.6 113.0 C 253.8 112.8 254.6 112.7 256.1 112.7 C 255.2 112.9 259.3 112.9 258.9 112.7 C 258.9 112.7 258.8 112.6 258.8 112.6 C 256.2 112.6 254.4 112.6 253.1 112.4 C 252.7 112.6 251.6 112.7 252.3 113.0 C 249.5 112.7 247.3 113.1 245.9 112.8 C 246.7 112.8 247.5 112.8 247.2 112.7 C 246.2 112.7 245.0 112.8 245.4 113.0 C 247.4 113.1 247.9 113.1 248.7 112.9 C 248.0 113.1 251.0 113.2 249.1 113.3 C 248.8 112.9 245.1 113.5 246.2 113.2 C 248.3 113.1 243.6 113.0 243.2 112.8 C 243.2 112.8 243.2 112.8 243.2 112.8 Z M 7.5 64.0 C 7.6 66.2 7.9 63.7 7.8 62.1 C 7.8 62.6 7.7 62.7 7.5 62.7 C 7.6 63.3 7.6 63.9 7.5 64.0 C 7.5 64.0 7.5 64.0 7.5 64.0 Z M 11.0 43.9 C 10.7 43.0 10.9 46.5 10.9 47.9 C 10.9 47.6 11.0 47.1 11.0 48.0 C 11.2 46.7 10.8 45.9 11.0 43.9 C 11.0 43.9 11.0 43.9 11.0 43.9 Z M 52.8 10.1 C 52.3 10.1 51.1 10.2 50.8 10.1 C 50.0 10.1 50.3 10.2 50.3 10.3 C 48.7 10.3 50.4 9.9 48.0 10.1 C 47.4 10.5 52.7 10.6 52.8 10.1 C 52.8 10.1 52.8 10.1 52.8 10.1 Z M 266.0 109.2 C 264.9 109.1 267.0 108.9 266.1 108.7 C 262.5 108.9 265.7 109.2 260.4 109.1 C 260.8 109.1 261.3 109.2 261.3 109.3 C 263.7 109.2 263.7 109.0 263.5 109.5 C 264.6 109.5 264.4 109.0 266.0 109.2 C 266.0 109.2 266.0 109.2 266.0 109.2 Z M 216.3 108.2 C 216.7 108.3 217.1 108.3 217.2 108.4 C 218.7 108.3 218.3 108.3 220.5 108.4 C 219.9 108.0 217.9 108.0 216.3 108.2 C 216.3 108.2 216.3 108.2 216.3 108.2 Z M 87.6 107.6 C 87.1 107.6 86.6 107.6 86.2 107.6 C 86.5 107.8 85.4 108.1 87.7 108.0 C 87.8 108.0 87.4 108.0 87.0 108.0 C 87.4 107.9 88.5 107.9 88.2 107.7 C 87.6 107.7 87.6 107.7 87.6 107.6 C 87.6 107.6 87.6 107.6 87.6 107.6 Z M 33.7 109.9 C 36.3 109.6 29.8 109.1 33.7 109.9 C 33.7 109.9 33.7 109.9 33.7 109.9 C 33.7 109.9 33.7 109.9 33.7 109.9 Z M 39.5 112.7 C 39.6 112.8 40.2 112.7 40.2 112.7 C 42.4 112.8 40.2 112.9 41.5 113.0 C 43.3 112.8 40.5 112.6 42.9 112.4 C 42.4 112.3 40.8 112.7 39.5 112.7 C 39.5 112.7 39.5 112.7 39.5 112.7 Z M 261.1 7.2 C 259.1 7.3 258.4 7.5 257.9 7.7 C 259.1 7.7 260.2 7.8 260.5 7.9 C 263.1 7.8 259.0 7.7 258.7 7.7 C 259.1 7.4 260.9 7.4 261.1 7.2 C 261.1 7.2 261.1 7.2 261.1 7.2 Z M 254.8 7.3 C 253.9 7.4 252.6 7.5 252.4 7.7 C 253.6 7.6 253.7 7.7 253.7 7.8 C 254.9 7.7 253.6 7.5 254.8 7.3 C 254.8 7.3 254.8 7.3 254.8 7.3 Z M 266.4 7.5 C 265.5 7.5 265.7 7.7 265.5 7.8 C 266.8 7.8 266.9 7.9 268.2 7.9 C 268.2 7.8 268.3 7.7 268.4 7.7 C 267.3 7.6 267.2 7.7 266.2 7.7 C 266.3 7.7 266.3 7.6 266.4 7.5 C 266.4 7.5 266.4 7.5 266.4 7.5 Z M 248.3 7.6 C 244.6 7.5 242.7 8.0 240.1 8.3 C 242.8 8.3 245.5 7.8 247.3 7.9 C 249.7 7.8 246.7 7.7 246.8 7.7 C 246.9 7.6 247.7 7.6 248.3 7.6 C 248.3 7.6 248.3 7.6 248.3 7.6 Z M 216.2 7.6 C 215.6 7.4 214.0 7.8 211.9 7.7 C 212.3 7.8 212.6 7.9 212.6 8.0 C 215.5 8.1 214.0 7.6 216.2 7.6 C 216.2 7.6 216.2 7.6 216.2 7.6 Z M 198.8 7.7 C 196.9 7.8 199.7 7.9 198.7 8.1 C 200.7 8.1 202.8 8.1 202.9 7.8 C 200.6 8.0 200.2 8.0 198.8 7.7 C 198.8 7.7 198.8 7.7 198.8 7.7 Z M 186.2 7.7 C 184.2 7.9 187.0 8.0 186.1 8.3 C 186.9 8.3 186.7 8.1 186.8 8.1 C 187.4 8.1 187.9 8.1 188.9 8.1 C 188.3 8.0 185.9 8.0 186.2 7.7 C 186.2 7.7 186.2 7.7 186.2 7.7 Z M 285.6 34.4 C 285.5 33.2 285.3 33.6 285.3 31.0 C 285.3 35.0 284.6 33.2 284.7 38.3 C 284.8 37.5 284.9 38.0 284.8 38.3 C 284.9 40.2 284.9 36.4 285.2 38.1 C 285.2 36.7 284.9 37.6 284.9 36.2 C 285.1 34.5 285.2 33.6 285.6 34.4 C 285.6 34.4 285.6 34.4 285.6 34.4 Z M 284.5 38.4 C 284.4 39.9 284.9 39.7 284.6 40.5 C 284.6 41.2 284.7 41.0 284.8 41.1 C 284.8 40.6 284.8 40.5 284.9 40.4 C 284.8 39.2 284.7 38.0 284.5 38.4 C 284.5 38.4 284.5 38.4 284.5 38.4 Z M 284.5 25.1 C 284.6 27.4 284.4 28.2 284.6 29.2 C 284.3 30.3 284.8 30.7 284.5 32.1 C 284.5 34.4 284.6 32.6 284.8 32.0 C 284.9 34.2 284.5 32.6 284.6 34.9 C 284.9 35.1 284.8 32.3 285.1 32.5 C 285.1 30.7 284.9 30.8 284.9 29.8 C 284.9 28.9 285.0 29.1 285.1 28.9 C 285.0 27.0 285.2 27.0 285.2 25.4 C 285.0 25.1 284.9 25.8 284.9 27.7 C 284.8 25.8 284.7 25.1 284.8 22.8 C 285.0 24.2 285.1 17.0 284.7 17.9 C 284.6 19.9 284.9 19.2 284.9 19.9 C 284.7 22.5 284.8 24.0 284.5 25.1 C 284.5 25.1 284.5 25.1 284.5 25.1 Z M 266.5 8.3 C 265.9 8.3 265.4 8.2 264.4 8.2 C 264.6 8.0 265.7 8.1 264.7 7.9 C 263.2 7.9 262.8 8.0 261.9 8.0 C 262.3 8.1 265.2 8.3 263.5 8.5 C 263.9 8.6 264.8 8.6 266.1 8.6 C 264.9 8.3 268.2 8.6 269.6 8.6 C 269.8 8.2 272.0 8.7 273.2 8.5 C 272.6 8.2 269.6 8.5 268.3 8.5 C 269.0 8.4 265.4 7.9 266.5 8.3 C 266.5 8.3 266.5 8.3 266.5 8.3 Z M 284.6 44.0 C 284.7 44.4 284.7 45.9 284.8 44.7 C 284.9 45.3 284.7 46.6 285.1 46.0 C 285.1 46.7 285.1 47.4 285.1 48.1 C 285.0 47.9 285.0 45.9 284.8 46.7 C 284.9 48.2 284.8 47.6 284.8 49.6 C 284.5 48.6 284.5 49.7 284.2 49.0 C 284.3 49.5 284.3 51.2 284.5 51.1 C 284.5 53.7 284.2 50.4 284.2 53.9 C 284.0 53.9 284.0 51.4 284.1 50.4 C 283.9 50.0 284.1 54.8 284.0 57.4 C 284.2 55.1 284.4 56.9 284.6 58.0 C 284.5 58.9 284.4 58.0 284.3 59.5 C 284.3 60.6 284.4 61.3 284.3 61.6 C 284.3 62.6 284.5 62.2 284.6 62.3 C 284.6 63.9 284.2 62.7 284.3 65.1 C 284.6 63.3 284.7 65.4 284.6 68.6 C 284.7 68.4 284.7 67.4 284.9 67.3 C 285.0 67.8 284.7 69.6 284.6 70.0 C 284.7 71.2 284.8 70.5 284.8 69.4 C 284.9 70.1 284.9 70.8 285.0 71.6 C 285.0 68.0 285.0 62.4 285.3 55.9 C 285.1 57.2 285.1 55.7 285.2 53.8 C 285.3 53.5 285.3 54.3 285.3 55.2 C 285.6 52.9 285.0 53.1 285.2 49.6 C 285.2 47.6 285.4 51.7 285.5 49.5 C 285.4 48.2 285.2 47.3 285.5 46.6 C 285.4 44.4 285.1 43.8 285.1 40.3 C 285.0 42.3 284.4 43.4 284.5 45.4 C 284.6 45.4 284.6 44.5 284.6 44.0 C 284.6 44.0 284.6 44.0 284.6 44.0 Z M 253.5 8.0 C 252.3 8.0 251.6 8.1 251.4 8.0 C 249.3 8.1 251.5 8.2 251.9 8.3 C 252.9 8.2 253.3 8.1 253.5 8.0 C 253.5 8.0 253.5 8.0 253.5 8.0 Z M 42.4 8.0 C 39.7 7.9 40.5 8.2 38.4 8.2 C 40.1 8.3 40.7 8.5 43.4 8.5 C 43.4 8.3 43.3 8.1 42.4 8.0 C 42.4 8.0 42.4 8.0 42.4 8.0 Z M 260.3 8.1 C 262.2 7.9 258.0 8.4 258.2 8.2 C 256.1 8.4 259.9 8.4 257.9 8.6 C 259.7 8.5 260.5 8.7 262.8 8.5 C 262.8 8.4 261.1 8.4 259.4 8.4 C 259.3 8.2 260.2 8.2 260.3 8.1 C 260.3 8.1 260.3 8.1 260.3 8.1 Z M 69.8 8.6 C 71.6 8.4 67.9 8.2 66.8 8.1 C 66.9 8.4 67.4 8.3 69.8 8.6 C 69.8 8.6 69.8 8.6 69.8 8.6 Z M 24.7 8.4 C 23.9 8.7 27.8 8.4 27.0 8.7 C 28.3 8.7 28.3 8.6 28.3 8.5 C 29.0 8.6 30.9 8.6 30.5 8.8 C 31.0 9.0 27.4 8.7 28.7 9.0 C 27.6 9.0 27.5 8.9 26.6 8.9 C 28.6 9.0 27.4 8.7 24.9 8.6 C 25.1 8.8 26.2 8.8 25.2 8.9 C 24.9 8.8 23.5 8.6 23.2 8.3 C 21.1 8.3 22.8 8.7 20.2 8.7 C 20.5 8.9 22.1 8.9 23.1 8.9 C 23.1 9.2 20.3 8.7 21.2 9.1 C 20.5 8.9 18.9 8.8 18.6 8.5 C 20.5 8.4 21.6 8.3 23.1 8.1 C 21.5 8.0 19.8 8.6 17.0 8.3 C 17.5 8.5 15.9 8.5 16.7 8.7 C 14.6 8.6 15.2 8.3 15.6 8.3 C 14.9 8.1 11.1 8.3 11.6 8.5 C 11.3 8.3 9.7 8.3 8.5 8.4 C 8.5 9.4 8.6 10.3 8.7 10.4 C 8.5 11.6 8.9 14.2 8.6 14.4 C 8.7 15.3 8.6 17.0 8.6 18.7 C 8.9 19.4 8.8 16.3 9.0 16.2 C 9.2 15.9 8.9 19.4 9.1 19.1 C 9.2 19.2 9.2 19.2 9.3 19.3 C 9.2 17.8 9.1 16.3 9.0 14.9 C 9.1 13.9 9.1 15.3 9.3 15.1 C 9.1 14.0 8.8 9.3 9.3 9.6 C 9.3 9.4 9.3 9.3 9.3 9.2 C 11.9 9.1 13.9 9.1 14.9 8.9 C 16.6 9.0 14.0 9.1 15.2 9.3 C 20.0 8.9 26.7 9.3 30.7 8.9 C 31.6 9.0 31.5 9.1 31.7 9.3 C 37.5 9.1 32.1 8.8 36.9 8.9 C 37.0 9.1 34.8 9.0 35.1 9.3 C 36.7 9.3 37.0 9.1 39.2 9.2 C 39.1 9.1 39.0 9.0 39.0 8.9 C 40.7 8.9 40.3 9.2 41.3 9.3 C 43.4 9.2 42.8 9.0 44.1 9.3 C 46.1 9.2 48.0 9.1 50.3 9.3 C 51.6 9.1 48.6 8.7 46.4 8.7 C 46.5 8.6 47.1 8.6 47.0 8.5 C 49.7 8.7 50.4 9.2 54.4 9.3 C 51.2 9.0 55.8 9.1 56.5 9.3 C 58.1 9.3 56.7 9.0 55.6 9.0 C 55.7 8.9 56.8 9.0 57.0 9.1 C 57.0 8.7 53.1 8.6 49.2 8.7 C 50.7 8.3 46.4 8.7 48.1 8.2 C 44.9 8.3 47.9 8.6 44.2 8.5 C 44.7 8.7 45.4 8.7 45.8 8.9 C 43.1 8.9 43.6 8.6 40.8 8.6 C 40.5 8.8 42.3 8.8 42.4 8.9 C 39.1 8.7 38.0 8.6 35.7 8.4 C 35.5 8.5 36.2 8.8 32.5 8.6 C 32.5 8.6 32.4 8.5 32.4 8.5 C 34.1 8.5 34.1 8.0 29.9 8.1 C 29.8 8.2 31.1 8.2 32.2 8.2 C 31.8 8.4 30.5 8.4 28.9 8.5 C 28.1 8.4 27.1 8.3 28.1 8.3 C 27.2 8.1 27.0 8.5 24.7 8.4 C 24.7 8.4 24.7 8.4 24.7 8.4 Z M 219.4 8.1 C 218.8 8.2 218.3 8.2 217.3 8.2 C 216.7 8.4 218.6 8.4 218.5 8.5 C 220.0 8.6 219.0 8.3 219.4 8.1 C 219.4 8.1 219.4 8.1 219.4 8.1 Z M 238.7 8.3 C 238.7 8.1 237.5 8.4 235.9 8.3 C 235.3 8.5 237.2 8.5 237.1 8.6 C 239.0 8.7 236.9 8.2 238.7 8.3 C 238.7 8.3 238.7 8.3 238.7 8.3 Z M 230.4 8.3 C 229.8 8.1 229.6 8.4 231.1 8.4 C 230.9 8.5 230.4 8.6 229.5 8.7 C 230.3 9.0 231.3 8.5 233.0 8.6 C 232.4 8.5 231.6 8.4 230.4 8.3 C 230.4 8.3 230.4 8.3 230.4 8.3 Z M 227.6 8.3 C 226.5 8.5 226.0 8.2 224.1 8.4 C 224.4 8.5 228.3 8.5 229.0 8.4 C 229.7 8.2 225.6 8.2 227.6 8.3 C 227.6 8.3 227.6 8.3 227.6 8.3 Z M 97.6 8.9 C 96.9 8.9 97.1 9.0 97.0 9.1 C 94.7 8.7 91.8 8.8 94.0 8.5 C 91.8 8.7 89.6 8.4 87.7 8.3 C 86.1 8.3 87.0 8.5 85.7 8.5 C 83.7 8.5 86.7 8.4 86.3 8.3 C 85.8 8.1 85.4 8.5 82.9 8.4 C 83.7 8.8 80.8 8.3 81.7 8.8 C 80.3 8.6 80.0 8.8 78.2 8.8 C 78.5 8.9 80.2 8.9 80.5 9.1 C 81.4 9.3 81.3 8.9 79.7 8.9 C 80.5 8.7 83.1 9.0 83.8 8.9 C 84.8 9.1 81.6 8.9 82.6 9.2 C 83.2 9.1 83.7 9.1 83.8 9.0 C 84.9 9.1 85.6 9.1 86.0 9.3 C 85.4 9.3 85.3 9.2 85.3 9.2 C 84.0 9.2 86.8 9.6 84.1 9.6 C 84.6 9.7 85.7 9.7 85.6 9.8 C 86.5 10.0 85.3 9.1 88.2 9.4 C 89.9 9.2 83.8 9.2 85.1 8.7 C 89.0 8.8 87.0 9.1 90.1 9.2 C 90.0 9.1 89.9 8.9 90.7 8.9 C 90.6 8.8 89.4 8.9 88.6 8.9 C 88.7 8.8 89.9 8.8 90.7 8.8 C 90.5 8.7 89.9 8.7 89.9 8.6 C 92.5 8.7 92.5 9.2 90.2 9.3 C 90.3 9.6 93.5 9.5 94.3 9.4 C 93.4 9.2 94.4 9.3 93.5 9.0 C 92.8 9.0 93.0 9.1 92.8 9.2 C 91.6 9.1 92.7 9.0 92.7 8.9 C 94.2 9.0 94.2 9.2 95.5 9.0 C 95.2 9.1 94.9 9.1 95.0 9.3 C 95.6 9.3 96.4 9.3 97.0 9.3 C 96.9 9.1 97.8 9.1 97.6 8.9 C 97.6 8.9 97.6 8.9 97.6 8.9 Z M 61.4 8.3 C 59.0 8.2 60.4 8.5 61.5 8.5 C 61.0 8.5 60.2 8.6 59.5 8.6 C 60.2 8.7 60.8 8.6 62.9 8.7 C 61.3 9.0 63.5 9.5 66.9 9.4 C 67.6 9.0 64.7 8.9 65.7 8.6 C 63.3 8.8 61.8 8.6 61.4 8.3 C 61.4 8.3 61.4 8.3 61.4 8.3 Z M 251.8 8.4 C 250.5 8.4 249.0 8.4 247.7 8.4 C 247.7 8.6 251.9 8.8 251.8 8.4 C 251.8 8.4 251.8 8.4 251.8 8.4 Z M 284.7 74.2 C 284.7 74.9 284.7 74.9 284.6 75.0 C 284.7 77.1 284.8 74.1 285.0 75.1 C 285.0 74.3 285.0 73.6 285.0 73.0 C 284.9 72.8 284.8 75.8 284.7 73.6 C 284.6 73.7 284.7 74.2 284.7 74.2 C 284.7 74.2 284.7 74.2 284.7 74.2 Z M 220.6 8.5 C 219.3 8.6 219.9 8.9 217.0 8.8 C 218.0 9.0 218.7 8.9 220.4 8.9 C 220.5 8.7 220.6 8.6 220.6 8.5 C 220.6 8.5 220.6 8.5 220.6 8.5 Z M 107.8 8.5 C 106.0 8.3 105.7 8.9 102.4 8.7 C 104.1 9.0 105.9 8.6 107.8 8.5 C 107.8 8.5 107.8 8.5 107.8 8.5 Z M 9.0 24.6 C 9.1 23.7 9.2 25.0 9.3 23.4 C 9.2 22.4 9.1 21.9 9.0 20.4 C 8.8 22.2 9.0 25.9 8.6 27.0 C 8.7 28.7 8.9 28.8 9.1 29.5 C 9.1 28.6 9.1 28.3 9.2 28.2 C 8.8 26.9 9.4 26.1 9.0 24.6 C 9.0 24.6 9.0 24.6 9.0 24.6 Z M 70.6 8.7 C 71.9 8.8 69.8 8.9 69.4 9.1 C 68.5 9.1 68.7 8.9 68.5 8.8 C 67.3 8.8 67.0 8.9 67.4 9.1 C 69.7 9.2 72.5 9.2 71.0 9.5 C 73.2 9.6 71.9 9.2 72.9 9.2 C 74.2 9.3 73.1 9.4 73.2 9.7 C 73.7 9.6 75.2 9.3 75.2 9.7 C 78.4 9.3 76.7 8.9 74.0 8.5 C 71.9 8.8 74.5 8.9 70.6 8.7 C 70.6 8.7 70.6 8.7 70.6 8.7 Z M 158.3 8.9 C 158.1 8.9 156.9 8.9 156.9 8.8 C 155.4 9.0 154.1 9.3 152.8 9.5 C 153.0 9.7 154.9 9.5 154.1 9.3 C 154.7 9.5 156.1 9.6 156.8 9.7 C 158.2 9.8 158.8 9.3 158.9 9.7 C 160.3 9.5 159.5 9.5 161.7 9.6 C 158.2 9.3 162.9 9.4 163.1 9.2 C 161.1 9.2 159.4 9.2 159.6 9.4 C 158.1 9.3 156.5 9.2 156.2 9.0 C 156.4 8.9 157.5 8.9 158.3 8.9 C 158.3 8.9 158.3 8.9 158.3 8.9 Z M 150.0 9.7 C 150.6 9.6 151.1 9.6 152.0 9.6 C 151.5 9.5 151.3 9.4 151.4 9.3 C 149.6 9.3 149.2 9.4 148.6 9.2 C 147.0 9.1 149.0 9.5 146.5 9.4 C 146.7 9.5 148.0 9.5 148.0 9.6 C 148.2 9.4 149.2 9.4 150.0 9.7 C 150.0 9.7 150.0 9.7 150.0 9.7 Z M 128.7 9.2 C 126.9 9.2 129.6 9.3 128.7 9.5 C 129.2 9.5 132.6 9.5 132.2 9.7 C 133.2 10.1 136.6 9.4 136.3 9.8 C 137.1 9.8 136.8 9.7 137.0 9.6 C 134.6 9.6 134.6 9.4 136.3 9.4 C 136.0 9.3 134.5 9.4 133.5 9.3 C 133.4 9.5 134.4 9.5 134.2 9.7 C 132.2 9.5 130.6 9.3 128.7 9.2 C 128.7 9.2 128.7 9.2 128.7 9.2 Z M 246.3 111.6 C 247.9 111.6 248.9 111.5 249.6 111.5 C 249.0 111.3 248.3 111.5 247.5 111.5 C 247.2 111.3 248.0 111.3 248.8 111.3 C 247.8 111.1 245.1 111.3 246.3 111.6 C 246.3 111.6 246.3 111.6 246.3 111.6 Z M 260.0 111.6 C 261.5 111.6 262.5 111.5 262.6 111.4 C 261.8 111.3 262.2 111.5 261.2 111.5 C 260.6 111.4 260.1 111.3 259.7 111.2 C 259.0 111.2 259.2 111.3 259.1 111.4 C 258.6 111.4 258.5 111.4 258.4 111.3 C 256.7 111.5 260.5 111.3 260.0 111.6 C 260.0 111.6 260.0 111.6 260.0 111.6 Z M 140.4 9.3 C 141.0 9.5 141.5 9.6 143.1 9.6 C 142.8 9.4 144.1 9.4 145.2 9.4 C 143.6 9.2 142.8 9.3 140.4 9.3 C 140.4 9.3 140.4 9.3 140.4 9.3 Z M 284.1 49.0 C 284.3 46.9 283.9 47.2 284.1 44.2 C 284.0 44.2 283.9 44.2 283.8 44.2 C 284.0 46.0 283.9 46.9 284.1 49.0 C 284.1 49.0 284.1 49.0 284.1 49.0 Z M 62.6 111.4 C 62.8 111.2 60.6 111.3 60.5 111.2 C 60.1 111.5 59.0 110.9 55.0 111.0 C 54.9 110.9 55.2 110.9 55.7 110.8 C 52.4 110.8 56.7 111.1 57.1 111.3 C 59.6 111.3 60.1 111.5 62.6 111.4 C 62.6 111.4 62.6 111.4 62.6 111.4 Z M 14.8 9.7 C 14.9 9.6 14.5 9.6 14.1 9.6 C 13.6 9.6 13.1 9.6 12.7 9.6 C 13.2 9.9 15.6 10.0 14.2 10.4 C 14.8 10.4 14.8 10.3 14.8 10.3 C 17.4 9.6 21.1 10.8 25.0 10.3 C 25.7 10.3 25.5 10.2 25.6 10.1 C 25.0 10.2 24.9 10.1 24.8 10.1 C 24.6 10.4 20.3 10.0 21.9 9.9 C 21.7 9.8 21.2 9.9 21.3 9.9 C 20.8 9.9 20.3 9.9 19.9 9.9 C 20.2 10.0 21.2 10.0 21.5 10.1 C 19.2 10.0 16.5 10.0 17.6 9.7 C 16.3 9.7 15.9 9.8 15.1 9.9 C 14.2 9.9 14.0 9.7 14.8 9.7 C 14.8 9.7 14.8 9.7 14.8 9.7 Z M 9.8 22.5 C 9.8 24.6 10.1 24.0 10.0 26.1 C 10.2 24.9 9.9 23.0 10.1 21.3 C 10.0 21.5 9.9 22.4 9.8 22.5 C 9.8 22.5 9.8 22.5 9.8 22.5 Z M 37.1 10.1 C 36.9 10.3 38.8 10.4 40.8 10.4 C 41.0 10.1 39.2 10.1 37.1 10.1 C 37.1 10.1 37.1 10.1 37.1 10.1 Z M 28.2 10.1 C 26.3 10.2 30.8 10.1 29.9 10.4 C 30.8 10.4 31.8 10.4 32.0 10.5 C 32.6 10.4 32.5 10.3 33.9 10.3 C 33.7 10.1 31.6 10.2 31.6 10.1 C 30.2 10.2 30.0 10.2 28.2 10.1 C 28.2 10.1 28.2 10.1 28.2 10.1 Z M 26.9 10.1 C 25.6 10.1 27.6 10.5 29.3 10.5 C 28.6 10.4 28.0 10.2 26.9 10.1 C 26.9 10.1 26.9 10.1 26.9 10.1 Z M 186.9 10.1 C 185.9 10.2 186.6 10.4 185.5 10.4 C 185.4 10.5 189.5 10.5 186.1 10.5 C 187.3 10.8 188.1 10.4 189.6 10.5 C 189.1 10.4 188.8 10.3 189.6 10.3 C 190.2 10.1 186.3 10.4 186.9 10.1 C 186.9 10.1 186.9 10.1 186.9 10.1 Z M 182.8 10.1 C 182.0 10.2 182.4 10.2 182.8 10.2 C 182.6 10.3 181.5 10.3 180.7 10.3 C 180.7 10.2 182.1 10.7 182.0 10.9 C 185.5 10.7 182.9 10.4 182.8 10.1 C 182.8 10.1 182.8 10.1 182.8 10.1 Z M 179.4 10.3 C 177.2 10.1 174.0 10.1 172.5 10.4 C 174.0 10.7 178.2 10.6 179.4 10.3 C 179.4 10.3 179.4 10.3 179.4 10.3 Z M 201.8 10.4 C 197.9 10.1 189.7 10.5 196.9 10.7 C 196.7 10.5 201.6 10.4 203.8 10.5 C 204.0 10.4 206.6 10.2 206.6 10.4 C 208.5 10.2 201.0 10.2 201.8 10.4 C 201.8 10.4 201.8 10.4 201.8 10.4 Z M 169.7 10.9 C 170.8 10.7 169.5 10.3 171.2 10.5 C 172.2 10.4 170.9 10.4 171.2 10.2 C 169.1 10.2 164.7 10.5 164.3 10.2 C 163.3 10.3 162.9 10.5 160.9 10.5 C 160.8 10.6 168.2 10.2 169.7 10.7 C 169.6 10.8 166.9 10.8 169.7 10.9 C 169.7 10.9 169.7 10.9 169.7 10.9 Z M 282.6 49.4 C 282.8 49.5 282.7 46.7 282.9 47.2 C 282.6 45.8 282.8 44.3 282.6 42.6 C 282.7 42.1 283.0 42.2 283.1 39.7 C 282.9 39.8 282.9 40.9 282.8 39.9 C 282.7 37.7 283.0 38.2 282.9 35.7 C 282.5 36.3 282.9 30.4 282.5 31.2 C 282.5 32.5 282.7 32.3 282.6 34.5 C 282.6 35.3 282.5 35.0 282.5 35.9 C 282.2 35.4 282.6 34.1 282.4 33.3 C 282.2 33.6 282.2 35.2 282.1 35.5 C 282.1 36.4 282.2 35.2 282.3 35.3 C 282.3 37.9 281.7 35.4 281.8 38.3 C 282.0 37.6 282.1 37.6 282.3 38.0 C 282.2 39.2 282.3 42.6 282.1 40.8 C 281.9 41.1 282.1 43.1 282.3 42.8 C 282.3 43.9 282.2 44.0 282.1 44.1 C 282.2 47.0 282.4 47.3 282.7 46.6 C 282.9 47.2 282.5 47.7 282.6 49.4 C 282.6 49.4 282.6 49.4 282.6 49.4 Z M 223.6 10.5 C 225.3 10.3 221.8 10.5 220.2 10.5 C 222.1 10.5 221.4 10.8 223.4 10.9 C 222.7 10.8 222.9 10.7 224.2 10.7 C 224.6 10.6 221.7 10.5 223.6 10.5 C 223.6 10.5 223.6 10.5 223.6 10.5 Z M 156.8 10.5 C 156.1 10.3 152.5 10.4 150.7 10.4 C 151.0 10.7 155.5 10.2 156.1 10.6 C 157.2 10.6 155.5 10.5 156.8 10.5 C 156.8 10.5 156.8 10.5 156.8 10.5 Z M 282.9 23.4 C 282.9 22.7 282.9 23.1 282.9 23.5 C 282.8 23.4 282.8 21.9 282.8 20.8 C 282.6 22.5 282.5 20.7 282.3 21.2 C 282.3 20.4 282.3 20.0 282.2 20.0 C 282.7 19.5 282.0 15.9 281.9 20.2 C 282.1 19.2 282.1 19.6 282.2 21.3 C 282.0 23.3 282.3 24.6 282.0 25.5 C 282.0 26.7 282.1 27.1 282.1 28.7 C 281.9 29.2 281.8 30.8 281.5 29.8 C 281.5 32.7 282.1 30.4 282.1 32.8 C 282.0 35.1 281.9 31.7 281.7 32.4 C 281.7 33.0 281.6 32.9 281.5 33.1 C 281.5 33.9 281.7 33.8 281.7 33.0 C 281.8 33.2 282.0 35.4 281.7 34.9 C 281.9 36.2 282.5 32.4 282.2 30.7 C 282.2 29.6 282.7 29.3 282.6 30.4 C 282.8 29.9 282.3 28.0 282.8 28.3 C 282.8 27.4 282.8 26.5 282.8 25.6 C 282.7 25.8 282.7 26.3 282.6 26.4 C 282.6 25.5 282.6 24.6 282.6 23.6 C 282.7 24.4 282.8 24.3 282.9 23.4 C 282.9 23.4 282.9 23.4 282.9 23.4 Z M 165.7 10.5 C 164.0 10.5 163.5 10.7 162.2 10.7 C 162.7 10.9 166.5 10.8 165.7 10.5 C 165.7 10.5 165.7 10.5 165.7 10.5 Z M 281.9 60.9 C 282.0 60.7 282.0 59.5 282.1 59.5 C 282.1 61.6 282.3 59.3 282.7 60.9 C 282.5 58.2 281.9 57.3 281.7 60.9 C 281.8 63.5 281.9 58.2 281.9 60.9 C 281.9 60.9 281.9 60.9 281.9 60.9 Z M 282.1 52.8 C 281.9 51.2 281.8 55.3 281.7 56.2 C 281.7 56.2 281.6 56.2 281.5 56.2 C 281.9 58.5 282.0 55.4 282.5 57.5 C 282.6 54.8 282.7 53.7 282.5 51.4 C 282.4 51.6 282.5 52.1 282.5 52.1 C 282.5 53.8 282.2 52.7 282.3 50.8 C 282.2 51.4 282.2 53.0 282.1 54.2 C 282.2 53.8 282.3 53.4 282.4 53.5 C 282.4 54.9 282.2 54.4 282.2 55.5 C 282.1 55.5 281.9 52.9 282.1 52.8 C 282.1 52.8 282.1 52.8 282.1 52.8 Z M 205.9 109.8 C 207.3 109.8 204.2 109.4 204.1 109.1 C 202.6 109.0 202.3 109.1 201.4 109.2 C 202.0 109.3 203.6 109.3 204.4 109.5 C 204.3 109.8 202.2 109.4 201.8 109.6 C 201.2 110.0 205.1 109.5 205.9 109.8 C 205.9 109.8 205.9 109.8 205.9 109.8 Z M 263.5 10.9 C 262.7 11.0 263.1 11.0 263.4 11.0 C 263.2 11.1 262.0 11.1 262.1 11.0 C 261.0 11.0 262.5 11.2 261.3 11.2 C 260.9 11.3 263.2 11.2 263.3 11.1 C 264.8 11.1 263.4 11.4 263.7 11.5 C 265.0 11.5 264.7 11.3 266.5 11.3 C 265.5 11.2 264.7 11.1 263.5 10.9 C 263.5 10.9 263.5 10.9 263.5 10.9 Z M 282.4 65.6 C 282.5 65.8 282.0 64.0 282.2 62.2 C 282.2 59.8 282.0 63.6 282.0 61.5 C 281.9 63.3 282.1 65.5 282.1 68.2 C 282.3 68.9 282.2 64.4 282.3 66.9 C 282.4 66.8 282.3 66.2 282.3 66.2 C 282.3 65.7 282.3 65.6 282.4 65.6 C 282.4 65.6 282.4 65.6 282.4 65.6 Z M 281.8 62.8 C 281.7 63.0 281.8 63.5 281.8 63.6 C 281.8 64.4 281.6 64.4 281.6 63.5 C 281.3 64.6 281.8 64.6 281.7 66.8 C 281.9 65.9 282.0 65.5 281.8 67.5 C 282.0 69.2 282.0 63.6 281.8 62.8 C 281.8 62.8 281.8 62.8 281.8 62.8 Z M 227.6 109.6 C 227.3 109.5 225.9 109.6 224.8 109.6 C 226.0 109.4 231.6 109.5 232.3 109.6 C 232.9 109.6 233.5 109.5 233.7 109.6 C 233.6 109.6 235.0 109.4 234.2 109.4 C 234.3 109.3 235.5 109.3 235.4 109.2 C 237.5 109.3 234.9 109.4 235.7 109.6 C 237.9 109.3 237.6 109.5 240.4 109.6 C 239.8 109.3 236.7 109.4 236.7 109.1 C 234.6 109.3 232.0 109.2 230.4 108.9 C 232.9 109.3 225.0 109.5 221.3 109.4 C 221.3 109.2 220.0 109.3 218.4 109.2 C 217.1 108.9 217.9 109.4 219.8 109.3 C 219.9 109.5 217.0 109.4 215.8 109.4 C 217.3 109.5 216.6 109.6 217.4 109.7 C 220.1 109.7 217.6 109.7 218.0 109.5 C 218.6 109.5 219.3 109.5 220.0 109.5 C 216.7 109.9 225.2 109.5 222.1 109.6 C 224.8 109.5 225.1 109.8 227.6 109.6 C 227.6 109.6 227.6 109.6 227.6 109.6 Z M 282.4 100.6 C 282.4 100.1 282.2 97.8 282.4 97.9 C 282.2 95.0 282.0 97.3 282.0 94.2 C 281.9 94.3 281.9 95.5 281.8 95.5 C 281.9 96.7 282.0 97.9 282.2 97.8 C 282.2 99.1 282.3 99.6 282.3 100.5 C 282.2 100.1 282.1 99.5 282.1 98.4 C 281.9 98.0 281.8 98.4 281.8 100.1 C 282.0 101.1 282.2 100.7 282.4 100.6 C 282.4 100.6 282.4 100.6 282.4 100.6 Z M 282.1 93.6 C 282.1 93.3 282.2 93.0 282.3 93.1 C 282.6 92.3 282.0 92.5 282.0 91.5 C 282.0 90.8 282.1 91.1 282.2 91.0 C 282.2 89.8 282.1 88.9 282.2 88.4 C 282.1 86.5 282.0 90.3 281.9 90.8 C 281.9 92.1 282.1 91.8 282.1 93.6 C 282.1 93.6 282.1 93.6 282.1 93.6 Z M 282.3 73.6 C 282.5 73.3 282.2 72.5 282.2 71.6 C 282.0 72.2 282.1 74.2 281.8 72.8 C 281.7 74.8 281.7 74.9 281.8 76.8 C 281.6 78.0 282.0 77.0 281.9 74.9 C 282.0 75.2 282.0 76.1 282.1 76.2 C 281.7 77.4 282.4 81.1 282.1 78.9 C 282.1 78.3 282.2 78.0 282.3 77.7 C 282.1 77.1 282.2 72.6 282.3 73.6 C 282.3 73.6 282.3 73.6 282.3 73.6 Z M 277.3 11.4 C 279.8 11.4 280.0 11.4 282.1 11.4 C 282.1 11.6 282.1 11.8 282.1 12.1 C 282.0 12.2 281.9 12.1 281.9 11.6 C 281.8 12.3 281.8 13.1 281.9 14.2 C 282.0 14.0 281.9 13.5 281.9 13.5 C 282.1 11.2 282.1 13.0 282.3 13.1 C 282.3 12.4 282.4 11.7 282.3 11.1 C 280.5 11.2 278.9 11.3 278.3 11.1 C 277.2 11.2 278.4 11.2 277.3 11.4 C 277.3 11.4 277.3 11.4 277.3 11.4 Z M 64.9 109.4 C 64.5 109.5 63.4 109.5 63.6 109.6 C 64.6 109.6 65.3 109.5 66.3 109.5 C 64.4 109.4 64.6 109.1 62.1 109.1 C 63.0 109.2 62.8 109.4 64.9 109.4 C 64.9 109.4 64.9 109.4 64.9 109.4 Z M 282.2 80.3 C 282.1 80.3 282.0 80.4 282.0 79.6 C 281.8 79.2 281.9 81.4 281.7 81.4 C 281.8 82.1 281.9 81.9 281.9 82.9 C 282.0 82.6 282.0 80.8 282.2 81.6 C 282.2 82.2 282.2 82.3 282.1 82.3 C 282.3 83.7 282.3 81.7 282.2 80.3 C 282.2 80.3 282.2 80.3 282.2 80.3 Z M 199.0 109.6 C 199.9 109.5 198.9 109.4 198.2 109.4 C 200.0 109.1 196.7 109.0 196.4 108.8 C 197.4 109.0 200.0 108.8 200.5 108.9 C 201.3 108.9 200.2 108.7 202.4 108.6 C 202.0 108.4 199.7 108.6 200.4 108.8 C 199.6 108.5 197.5 108.8 197.5 108.5 C 194.5 108.5 193.9 108.7 193.8 108.9 C 196.7 108.8 195.5 109.2 198.0 109.2 C 198.0 109.2 197.2 109.2 196.7 109.2 C 197.0 109.4 198.2 109.5 199.0 109.6 C 199.0 109.6 199.0 109.6 199.0 109.6 Z M 269.7 109.6 C 271.2 109.6 271.0 109.4 270.7 109.2 C 270.2 109.2 269.3 109.2 268.1 109.2 C 268.4 109.4 270.2 109.3 269.7 109.6 C 269.7 109.6 269.7 109.6 269.7 109.6 Z M 209.6 109.2 C 209.8 109.3 210.3 109.3 210.3 109.2 C 212.0 109.2 212.5 109.4 213.2 109.5 C 214.1 109.5 213.6 109.3 213.6 109.2 C 212.2 109.4 212.3 109.0 210.2 109.1 C 210.4 109.2 210.1 109.2 209.6 109.2 C 209.6 109.2 209.6 109.2 209.6 109.2 Z M 255.3 109.4 C 256.1 109.4 255.6 109.3 255.2 109.3 C 255.9 109.0 258.9 109.3 259.8 109.2 C 259.8 109.0 256.4 109.0 260.3 108.9 C 259.4 108.7 255.9 108.9 254.1 108.8 C 254.3 108.6 256.8 108.6 256.4 108.4 C 254.4 108.5 252.2 108.6 252.2 109.0 C 255.3 109.0 254.4 109.2 255.3 109.4 C 255.3 109.4 255.3 109.4 255.3 109.4 Z M 251.8 109.2 C 252.1 109.4 252.6 109.2 253.8 109.2 C 251.8 108.9 250.9 109.1 247.4 109.0 C 247.5 109.1 247.5 109.1 247.6 109.2 C 246.9 109.2 246.2 109.2 245.5 109.2 C 248.7 109.4 249.3 109.2 252.4 109.2 C 252.5 109.2 252.2 109.2 251.8 109.2 C 251.8 109.2 251.8 109.2 251.8 109.2 Z M 281.9 49.5 C 281.8 50.5 281.6 51.3 281.6 52.9 C 281.8 52.7 281.9 51.7 281.9 49.5 C 281.9 49.5 281.9 49.5 281.9 49.5 Z M 206.8 109.1 C 205.1 109.2 208.6 109.1 207.3 108.8 C 205.8 108.7 204.1 108.7 203.6 108.4 C 201.1 108.8 206.9 108.8 206.8 109.1 C 206.8 109.1 206.8 109.1 206.8 109.1 Z M 218.6 108.5 C 219.4 108.6 219.6 108.9 218.7 108.7 C 216.8 108.7 220.5 108.9 217.5 108.8 C 218.8 108.9 221.8 109.1 223.0 108.9 C 222.7 108.7 220.2 108.8 220.0 108.6 C 219.8 108.5 220.2 108.5 220.6 108.5 C 220.2 108.4 219.8 108.6 218.6 108.5 C 218.6 108.5 218.6 108.5 218.6 108.5 Z M 229.1 108.9 C 227.8 108.8 226.4 108.7 224.1 108.7 C 225.7 108.8 226.8 109.1 229.1 108.9 C 229.1 108.9 229.1 108.9 229.1 108.9 Z M 100.7 108.6 C 102.4 108.6 100.8 108.3 100.6 108.3 C 98.9 108.2 99.1 108.4 97.2 108.4 C 97.9 108.6 99.6 108.3 100.7 108.6 C 100.7 108.6 100.7 108.6 100.7 108.6 Z M 94.6 108.4 C 94.3 108.3 92.0 108.4 91.8 108.2 C 90.6 108.7 88.2 107.9 88.4 108.3 C 87.9 108.2 87.3 108.2 86.3 108.2 C 88.4 108.6 92.5 108.5 94.6 108.4 C 94.6 108.4 94.6 108.4 94.6 108.4 Z M 240.2 108.4 C 242.1 108.5 239.4 108.1 241.3 108.1 C 241.3 108.0 237.7 108.0 239.7 107.9 C 236.8 107.7 240.4 108.4 240.2 108.4 C 240.2 108.4 240.2 108.4 240.2 108.4 Z M 273.1 108.2 C 273.2 108.4 275.6 108.2 276.6 108.3 C 276.5 108.2 275.7 108.2 275.2 108.2 C 275.4 108.1 275.6 108.1 276.4 108.0 C 275.6 107.9 274.1 108.2 273.1 108.2 C 273.1 108.2 273.1 108.2 273.1 108.2 Z M 240.3 112.6 C 238.9 112.4 237.3 112.2 236.8 112.5 C 235.4 112.3 237.4 112.2 235.8 112.1 C 233.9 112.2 234.7 112.0 231.6 112.1 C 232.0 111.8 229.7 111.8 229.2 111.6 C 230.4 111.6 232.2 111.9 232.6 111.6 C 231.6 111.6 232.0 111.4 232.6 111.6 C 234.8 111.7 230.3 111.9 233.0 112.0 C 233.4 111.7 237.6 112.3 240.0 112.3 C 239.2 112.5 242.1 112.6 240.3 112.6 C 240.3 112.6 240.3 112.6 240.3 112.6 Z M 227.5 112.1 C 225.9 112.1 224.6 111.6 225.1 111.6 C 225.2 111.7 227.0 111.7 227.2 111.6 C 226.7 111.6 226.3 111.6 226.4 111.6 C 229.5 111.6 228.6 111.8 229.4 112.0 C 227.8 112.1 227.3 111.9 226.7 112.0 C 227.2 112.0 227.6 112.1 227.5 112.1 C 227.5 112.1 227.5 112.1 227.5 112.1 Z M 188.5 108.1 C 188.9 108.3 189.2 108.1 189.8 108.0 C 190.2 108.4 193.3 107.9 193.9 108.1 C 193.2 108.2 191.4 108.2 190.7 108.4 C 191.6 108.4 191.9 108.5 192.7 108.4 C 192.7 108.6 190.7 108.6 190.3 108.8 C 190.0 108.6 189.2 108.8 188.9 108.7 C 191.4 108.5 187.0 108.1 188.5 108.1 C 188.5 108.1 188.5 108.1 188.5 108.1 Z M 255.4 108.1 C 255.5 107.9 252.1 107.3 254.4 107.0 C 255.2 107.2 255.7 107.4 255.8 107.7 C 257.3 107.6 258.3 107.8 259.0 107.6 C 262.8 108.3 256.6 107.5 255.4 108.1 C 255.4 108.1 255.4 108.1 255.4 108.1 Z M 266.1 107.9 C 265.7 108.1 267.2 108.1 267.1 108.3 C 265.7 108.1 261.7 108.3 263.0 108.2 C 264.3 108.1 264.1 107.9 266.1 107.9 C 266.1 107.9 266.1 107.9 266.1 107.9 Z M 116.6 10.8 C 118.8 10.6 120.0 11.0 118.8 11.2 C 119.2 10.9 116.0 11.1 116.6 10.8 C 116.6 10.8 116.6 10.8 116.6 10.8 Z M 197.0 6.9 C 195.0 6.8 193.8 6.9 193.6 6.7 C 195.6 6.6 195.3 6.8 197.0 6.8 C 197.2 6.7 198.3 6.6 198.4 6.7 C 197.5 6.7 197.6 6.9 197.0 6.9 C 197.0 6.9 197.0 6.9 197.0 6.9 Z M 286.2 84.8 C 286.3 84.7 286.4 83.8 286.5 84.3 C 286.4 86.4 286.6 89.0 286.8 91.0 C 286.7 90.9 286.6 90.8 286.5 90.8 C 286.5 87.3 286.4 86.3 286.2 84.8 C 286.2 84.8 286.2 84.8 286.2 84.8 Z M 286.7 80.6 C 286.6 80.2 286.3 81.3 286.3 79.8 C 286.5 79.9 286.7 77.2 286.8 78.5 C 286.6 78.9 286.6 79.6 286.7 80.6 C 286.7 80.6 286.7 80.6 286.7 80.6 Z M 201.2 112.8 C 199.5 112.8 202.1 113.0 202.1 113.1 C 200.9 113.0 199.2 113.0 198.6 112.9 C 199.8 112.9 200.4 112.5 201.2 112.8 C 201.2 112.8 201.2 112.8 201.2 112.8 Z M 226.2 112.2 C 229.7 112.2 228.5 112.6 232.1 112.7 C 230.8 112.8 227.6 112.8 226.8 113.0 C 226.8 112.9 226.0 112.8 225.9 112.7 C 227.2 112.7 227.5 112.8 228.7 112.8 C 228.1 112.5 228.1 112.6 228.4 112.4 C 227.5 112.4 226.9 112.4 226.4 112.4 C 226.6 112.3 225.2 112.2 226.2 112.2 C 226.2 112.2 226.2 112.2 226.2 112.2 Z M 201.4 112.1 C 200.1 112.2 198.6 111.9 199.9 111.9 C 200.2 112.0 201.0 111.8 201.3 112.0 C 199.4 112.0 203.0 112.1 202.2 112.3 C 201.0 112.3 200.7 112.4 201.0 112.5 C 200.2 112.5 199.0 112.5 198.9 112.4 C 199.4 112.4 200.3 112.4 200.2 112.4 C 199.8 112.4 199.4 112.3 199.5 112.3 C 200.7 112.3 201.2 112.2 201.4 112.1 C 201.4 112.1 201.4 112.1 201.4 112.1 Z M 211.0 112.1 C 209.1 112.1 208.8 111.9 208.0 111.7 C 210.6 111.8 211.2 112.1 213.2 112.3 C 211.1 112.2 209.2 112.5 208.4 112.4 C 209.3 112.3 211.0 112.3 211.0 112.1 C 211.0 112.1 211.0 112.1 211.0 112.1 Z M 9.3 81.4 C 9.4 79.8 9.6 78.5 9.7 76.7 C 9.4 76.0 8.9 79.3 9.1 77.9 C 9.1 76.0 9.4 77.4 9.4 75.9 C 9.1 77.3 9.1 69.3 9.4 69.1 C 9.4 70.3 9.5 70.7 9.7 70.5 C 9.6 73.7 9.8 75.0 9.9 77.5 C 9.6 79.1 9.5 84.2 9.8 87.0 C 9.4 88.7 9.9 92.1 9.5 94.6 C 9.7 95.2 9.8 92.5 9.8 94.6 C 9.6 95.9 9.5 94.8 9.4 96.6 C 9.5 96.8 9.6 96.4 9.7 97.3 C 9.5 97.2 9.5 98.3 9.4 98.7 C 9.5 94.9 9.1 98.9 9.0 95.9 C 9.2 94.7 9.4 97.2 9.4 93.9 C 9.4 92.6 9.3 91.5 9.0 91.7 C 9.0 90.8 9.0 90.2 9.0 89.6 C 9.3 90.9 8.9 84.8 9.2 87.6 C 9.2 87.8 9.2 89.7 9.3 91.1 C 9.5 89.9 9.4 88.4 9.3 86.2 C 9.5 85.4 9.5 86.7 9.6 85.6 C 9.4 83.9 9.2 86.2 9.1 84.8 C 9.1 85.4 9.1 86.2 9.0 86.2 C 9.3 83.3 9.0 82.1 9.0 80.6 C 9.2 81.7 9.2 79.0 9.3 81.4 C 9.3 81.4 9.3 81.4 9.3 81.4 Z M 9.6 106.3 C 9.6 107.0 9.6 107.7 9.6 108.4 C 9.4 108.5 9.3 105.8 9.1 107.6 C 9.2 104.6 9.4 107.8 9.6 106.3 C 9.6 106.3 9.6 106.3 9.6 106.3 Z M 10.5 92.7 C 10.7 91.8 10.2 92.2 10.2 91.2 C 10.2 92.9 10.3 94.5 10.0 94.6 C 10.1 92.7 10.1 91.8 10.0 89.8 C 10.3 91.8 10.3 87.7 10.6 87.2 C 10.6 88.7 10.7 90.0 10.7 92.0 C 10.6 91.7 10.5 94.6 10.5 92.7 C 10.5 92.7 10.5 92.7 10.5 92.7 Z M 10.8 98.2 C 10.6 98.6 10.8 101.6 10.5 100.9 C 10.5 99.1 10.4 98.4 10.2 98.8 C 10.2 97.5 10.3 97.3 10.3 96.1 C 10.6 95.4 10.6 97.5 10.7 98.2 C 10.7 97.8 10.8 97.4 10.8 98.2 C 10.8 98.2 10.8 98.2 10.8 98.2 Z M 49.2 108.6 C 49.8 108.9 47.0 108.7 46.5 108.7 C 47.3 108.9 46.9 109.0 45.2 109.1 C 45.8 108.7 43.3 108.9 41.8 108.5 C 41.4 108.8 43.4 108.8 41.1 108.9 C 39.3 108.8 37.7 109.0 35.0 109.0 C 34.4 108.7 35.6 108.7 36.3 108.6 C 34.4 108.7 34.9 108.4 33.6 108.4 C 33.8 108.6 32.7 108.7 32.2 108.5 C 34.6 108.4 29.0 108.2 31.5 108.1 C 31.7 108.2 32.3 108.2 32.9 108.1 C 32.2 108.5 35.5 108.3 36.3 108.5 C 37.5 108.0 41.1 108.2 45.1 108.4 C 45.4 108.5 44.1 108.6 45.1 108.6 C 45.3 108.5 46.6 108.5 47.2 108.4 C 47.1 108.6 47.7 108.6 48.5 108.7 C 48.6 108.6 48.6 108.6 49.2 108.6 C 49.2 108.6 49.2 108.6 49.2 108.6 Z M 52.1 11.8 C 52.2 12.2 56.4 12.0 57.5 11.9 C 57.6 12.3 49.9 12.2 52.1 11.8 C 52.1 11.8 52.1 11.8 52.1 11.8 Z M 26.0 12.1 C 27.1 12.1 26.2 11.9 27.1 11.9 C 27.4 12.1 29.5 11.6 29.8 11.9 C 28.8 12.1 28.0 12.1 26.0 12.1 C 26.0 12.1 26.0 12.1 26.0 12.1 Z M 12.2 22.5 C 12.1 20.5 12.0 23.5 11.9 23.0 C 11.9 21.3 11.9 19.5 12.2 19.8 C 12.0 21.3 12.4 22.5 12.2 22.5 C 12.2 22.5 12.2 22.5 12.2 22.5 Z M 38.3 12.4 C 40.0 12.5 37.6 12.8 37.2 12.6 C 38.9 12.5 35.8 12.4 34.4 12.5 C 34.2 12.2 34.9 12.2 34.0 12.0 C 36.2 11.9 34.6 12.2 36.2 12.2 C 37.2 12.1 36.1 12.1 35.9 11.9 C 36.6 11.9 37.3 11.9 37.9 11.9 C 38.0 12.0 38.1 12.2 38.2 12.3 C 37.5 12.3 36.7 12.3 37.1 12.5 C 37.7 12.5 37.8 12.4 38.3 12.4 C 38.3 12.4 38.3 12.4 38.3 12.4 Z M 13.9 108.1 C 12.9 108.1 13.8 108.3 14.6 108.3 C 14.8 108.2 15.4 107.7 16.6 108.0 C 14.0 108.2 17.4 108.3 16.0 108.4 C 15.4 108.2 13.8 108.5 12.6 108.4 C 12.0 108.3 13.3 107.9 13.9 108.1 C 13.9 108.1 13.9 108.1 13.9 108.1 Z M 18.7 108.3 C 18.6 108.2 18.1 108.2 17.3 108.2 C 18.2 108.0 17.0 108.0 18.0 107.9 C 17.9 108.0 21.5 108.0 19.3 108.1 C 17.5 108.0 19.9 108.3 20.7 108.3 C 19.8 108.3 18.2 108.6 18.0 108.4 C 18.4 108.4 18.8 108.3 18.7 108.3 C 18.7 108.3 18.7 108.3 18.7 108.3 Z M 62.6 108.0 C 62.8 107.8 61.6 107.8 61.2 107.7 C 64.7 107.8 67.6 107.8 69.3 107.8 C 67.8 107.8 67.8 108.0 68.8 108.1 C 67.0 108.0 66.7 108.2 66.0 108.0 C 67.4 107.8 64.7 108.0 62.6 108.0 C 62.6 108.0 62.6 108.0 62.6 108.0 Z M 62.6 108.0 " fill="#FFE181"></path></g></svg>