<?xml version="1.0" encoding="UTF-8" standalone="no"?><svg xmlns="http://www.w3.org/2000/svg" xmlns:xlink="http://www.w3.org/1999/xlink" clip-rule="evenodd" stroke-miterlimit="4.00" viewBox="0 0 283 140"><desc>SVG generated by Keynote</desc><defs></defs><g transform="matrix(1.00, 0.00, -0.00, -1.00, 0.0, 140.0)"><g><clipPath id="clip-307"><path d="M 237.8 115.8 C 291.0 90.8 291.0 50.1 237.8 25.1 C 184.6 -0.0 98.3 -0.0 45.1 25.1 C -8.1 50.1 -8.1 90.8 45.1 115.8 C 98.3 140.9 184.6 140.9 237.8 115.8 Z M 237.8 115.8 "></path></clipPath><g clip-path="url(#clip-307)"><image xlink:href="../../CEFA4209-80C9-472B-8D2B-058B96531B72/assets/59DBD66EA15A3D40E065F836EF2595FD.jpeg" width="400.00" height="400.00" transform="matrix(1.00, 0.00, -0.00, -1.00, 5.2, 134.6)"></image></g></g><path d="M 71.2 11.4 C 70.8 11.6 70.3 11.7 69.5 12.0 C 69.9 11.9 70.2 11.9 70.1 12.0 C 70.8 11.8 71.6 11.5 73.0 11.1 C 72.9 11.1 72.3 11.3 71.8 11.4 C 71.2 11.5 71.3 11.4 71.2 11.4 C 71.2 11.4 71.2 11.4 71.2 11.4 Z M 52.8 122.8 C 51.8 122.4 52.9 123.1 53.3 123.2 C 53.3 123.2 53.4 123.2 53.8 123.4 C 53.8 123.6 52.9 123.3 52.2 123.0 C 49.3 121.8 51.6 122.3 52.8 122.8 C 52.8 122.8 52.8 122.8 52.8 122.8 Z M 214.8 127.8 C 217.3 127.1 214.6 127.7 214.2 127.7 C 215.3 127.3 214.3 127.2 215.8 126.7 C 216.1 126.8 216.6 126.7 216.9 126.7 C 216.3 126.9 215.4 127.2 215.3 127.3 C 216.2 127.1 217.3 126.6 217.5 126.7 C 215.7 127.3 217.3 127.0 217.6 127.1 C 216.0 127.6 215.5 127.9 214.8 127.8 C 214.8 127.8 214.8 127.8 214.8 127.8 Z M 262.8 37.6 C 263.4 38.2 263.9 38.7 263.7 38.6 C 263.0 38.0 262.6 37.6 262.3 37.3 C 262.1 37.3 262.2 37.5 261.6 37.0 C 261.1 36.3 261.6 36.4 262.0 36.5 C 261.9 36.7 264.3 38.6 262.8 37.6 C 262.8 37.6 262.8 37.6 262.8 37.6 Z M 197.8 9.7 C 195.6 9.1 197.7 10.0 195.4 9.4 C 195.5 9.2 195.2 8.9 196.7 9.2 C 196.8 9.3 197.7 9.5 197.8 9.7 C 197.8 9.7 197.8 9.7 197.8 9.7 Z M 145.9 135.9 C 145.9 136.1 147.6 136.0 147.2 136.2 C 146.3 136.2 145.5 136.3 144.6 136.3 C 144.5 136.1 144.8 136.0 145.9 135.9 C 145.9 135.9 145.9 135.9 145.9 135.9 Z M 230.2 120.1 C 232.7 119.4 234.9 118.0 234.3 118.5 C 235.3 118.3 233.0 119.8 232.9 119.5 C 232.6 119.4 228.4 120.8 230.2 120.1 C 230.2 120.1 230.2 120.1 230.2 120.1 Z M 66.5 123.2 C 69.0 124.2 68.7 123.4 70.3 124.2 C 69.7 124.0 69.4 124.0 69.2 124.0 C 69.6 124.2 70.3 124.3 70.3 124.4 C 69.0 124.1 67.5 123.7 66.5 123.2 C 66.5 123.2 66.5 123.2 66.5 123.2 Z M 112.2 4.4 C 112.7 4.3 113.0 4.3 112.9 4.2 C 114.9 4.0 114.8 3.8 116.0 3.9 C 116.1 4.2 114.4 4.2 112.9 4.3 C 112.8 4.4 112.4 4.5 112.2 4.4 C 112.2 4.4 112.2 4.4 112.2 4.4 Z M 168.0 5.0 C 167.9 4.8 166.8 4.7 168.6 4.8 C 170.7 5.2 168.8 5.3 166.7 5.2 C 166.6 5.3 166.6 5.4 166.6 5.5 C 167.5 5.6 168.0 5.7 168.5 5.8 C 168.9 5.5 170.2 6.3 173.5 6.4 C 171.9 6.4 173.5 6.9 171.6 6.5 C 172.1 6.8 170.7 6.6 170.9 6.8 C 171.8 6.8 173.9 7.1 173.4 6.7 C 174.5 6.8 175.4 7.0 175.9 7.1 C 176.7 7.4 173.9 6.9 174.7 7.3 C 175.3 7.3 175.4 7.4 175.9 7.5 C 176.0 7.4 175.8 7.2 176.5 7.3 C 178.5 7.6 176.1 7.5 178.9 7.9 C 179.1 7.8 178.3 7.7 178.3 7.5 C 179.6 7.6 179.5 7.8 180.8 7.8 C 181.0 8.0 179.9 7.9 180.8 8.0 C 181.6 7.8 183.3 8.6 185.1 8.6 C 184.0 7.9 185.3 8.7 186.9 8.5 C 187.3 8.7 186.1 8.8 187.5 9.1 C 187.1 8.4 192.5 9.5 188.2 8.2 C 190.5 8.6 191.3 8.3 189.5 7.9 C 193.5 8.7 192.3 8.2 193.8 8.4 C 195.3 8.7 193.0 8.4 193.7 8.7 C 192.1 8.4 192.5 8.6 191.3 8.3 C 191.3 8.4 191.0 8.4 190.7 8.4 C 192.3 8.5 194.2 9.3 193.0 9.3 C 192.2 9.1 193.0 9.0 191.9 8.8 C 192.2 9.2 190.7 8.5 190.6 8.7 C 191.3 9.2 188.9 9.0 191.1 9.5 C 191.2 9.3 191.2 9.2 191.2 9.1 C 191.8 9.2 192.4 9.3 192.9 9.4 C 193.4 9.8 193.0 9.8 193.5 10.0 C 194.5 10.2 195.0 10.2 195.3 10.2 C 194.1 9.9 192.7 9.4 194.7 9.8 C 193.9 10.1 197.6 10.4 195.9 10.4 C 198.0 11.0 199.2 10.9 199.4 11.2 C 200.5 11.5 199.8 11.0 201.2 11.4 C 203.3 12.1 203.0 11.6 205.8 12.6 C 206.2 12.3 206.0 12.7 206.9 12.9 C 207.0 12.8 207.0 12.7 207.0 12.5 C 208.0 13.0 210.2 13.7 212.6 14.2 C 213.2 14.4 212.7 14.5 214.3 14.9 C 216.0 15.0 217.8 16.0 219.8 16.3 C 219.9 16.5 221.2 16.9 222.0 17.1 C 222.2 17.3 221.2 17.3 222.4 17.7 C 223.3 17.7 221.9 17.2 223.6 17.6 C 223.3 17.8 225.2 18.0 225.2 18.3 C 224.6 18.2 224.0 18.1 223.5 17.9 C 224.2 18.2 223.9 18.3 224.5 18.5 C 224.5 18.1 225.7 18.9 226.1 19.1 C 226.1 18.9 226.3 18.9 226.7 19.0 C 227.6 19.3 228.4 19.6 228.8 19.7 C 229.9 20.2 228.1 19.6 229.2 20.1 C 230.0 19.7 230.9 20.8 233.4 21.5 C 233.9 21.9 234.8 22.4 236.3 23.1 C 236.5 23.0 234.9 22.4 234.9 22.2 C 237.1 23.2 234.6 21.9 236.0 22.5 C 239.0 24.0 242.5 25.6 246.8 28.3 C 246.8 28.1 250.3 30.0 250.2 30.0 C 249.3 29.5 251.8 31.4 253.1 32.2 C 253.7 32.1 255.8 33.2 256.1 33.1 C 256.4 33.6 256.3 33.5 256.3 33.9 C 258.3 35.6 259.6 36.1 260.5 37.4 C 260.5 37.1 261.5 37.8 262.2 38.4 C 261.9 38.4 261.4 38.1 260.9 37.9 C 261.9 38.7 262.0 38.9 262.8 39.6 C 264.1 39.9 264.8 41.8 265.9 41.9 C 267.1 43.1 266.7 43.1 267.8 44.3 C 267.9 44.1 268.1 44.2 268.4 44.5 C 267.7 43.7 267.0 43.3 266.8 42.7 C 268.5 44.4 264.1 39.0 267.1 41.6 C 267.1 41.8 266.7 41.6 267.2 42.3 C 268.9 43.8 268.1 42.7 267.5 42.0 C 268.6 43.0 269.6 44.3 269.0 43.2 C 271.3 45.6 269.7 44.2 270.4 45.2 C 274.3 49.6 278.1 55.6 279.5 62.4 C 279.9 62.6 280.3 66.3 280.2 67.4 C 280.6 69.3 280.6 71.3 280.3 71.9 C 280.6 72.3 279.9 74.2 280.1 74.5 C 280.2 73.6 280.4 73.1 280.4 73.9 C 279.9 76.7 278.7 80.8 278.4 82.4 C 277.7 83.3 277.1 85.1 276.6 86.3 C 276.4 86.4 276.8 85.5 276.4 86.2 C 276.4 86.5 275.2 89.1 274.7 89.6 C 275.2 88.9 275.4 87.9 274.7 89.0 C 274.9 89.0 274.0 90.3 274.4 90.1 C 273.3 91.6 272.8 92.6 271.8 93.8 C 272.5 92.7 272.9 92.0 272.8 91.7 C 272.3 92.7 271.9 93.5 271.2 94.0 C 271.6 94.1 270.3 95.4 269.1 96.9 C 268.7 97.3 268.3 97.5 267.3 98.6 C 266.9 99.3 269.1 97.0 268.0 98.4 C 267.9 98.3 266.6 99.4 267.1 99.3 C 265.5 100.7 264.8 101.6 263.3 102.7 C 265.0 101.2 263.5 102.1 263.1 102.4 C 262.7 102.8 262.1 103.3 262.1 103.3 C 262.2 103.4 263.1 102.6 263.2 102.6 C 261.9 103.6 261.9 104.2 261.2 104.4 C 261.8 103.9 261.8 103.7 261.1 104.2 C 261.2 104.7 257.2 107.4 258.4 106.3 C 258.5 106.4 260.0 105.2 260.1 105.0 C 259.6 105.2 257.4 107.0 257.8 106.5 C 259.0 105.5 259.0 105.7 260.5 104.5 C 260.5 104.2 261.4 103.5 261.8 102.9 C 259.6 104.9 259.2 105.5 258.7 105.5 C 257.6 106.3 258.5 106.1 256.6 107.3 C 253.9 109.1 256.0 107.4 255.2 107.8 C 252.9 109.5 253.8 109.3 255.0 108.8 C 253.1 110.1 252.6 110.6 250.1 112.1 C 250.2 111.9 250.4 111.6 251.2 111.0 C 251.3 111.0 253.4 109.9 253.2 109.9 C 252.8 109.7 251.1 110.6 248.4 112.1 C 249.2 112.1 249.3 111.8 246.5 113.4 C 247.1 113.5 245.1 114.1 245.1 114.3 C 245.3 114.3 246.3 113.8 247.3 113.3 C 247.3 113.4 247.0 113.7 246.1 114.3 C 245.4 114.5 245.0 114.9 243.2 115.7 C 243.0 115.6 244.2 114.9 244.4 114.6 C 243.5 115.1 243.3 115.4 242.4 115.9 C 241.4 116.1 241.3 115.8 241.3 115.5 C 242.3 114.8 244.1 113.9 242.6 114.5 C 246.7 112.3 242.6 114.9 244.2 114.1 C 245.7 112.9 245.0 113.8 247.6 112.3 C 248.4 111.9 248.6 111.7 248.9 111.4 C 248.6 111.5 247.1 112.1 248.7 111.1 C 249.2 111.0 250.1 110.6 251.4 109.9 C 251.3 109.8 248.7 111.3 251.3 109.7 C 252.5 108.9 251.6 109.9 253.3 108.7 C 253.2 108.7 253.7 108.3 253.8 108.2 C 251.4 109.9 254.1 107.7 252.4 108.7 C 254.5 107.2 253.0 108.7 254.3 107.8 C 254.3 107.6 256.6 106.3 256.5 106.0 C 255.8 106.7 254.0 107.8 254.1 107.5 C 255.7 106.5 262.0 101.3 259.8 103.6 C 260.6 102.7 264.5 98.7 264.3 99.2 C 263.2 100.3 263.3 100.4 263.2 100.6 C 265.4 98.3 266.6 97.4 268.4 94.8 C 266.1 97.3 267.5 95.1 266.0 96.5 C 265.4 97.2 264.4 98.0 264.3 98.3 C 264.8 98.2 265.7 97.1 266.0 96.5 C 266.2 96.7 266.3 96.8 266.5 97.0 C 263.7 99.6 262.1 101.3 260.5 102.5 C 261.8 101.4 257.8 104.3 259.3 103.0 C 260.0 102.6 261.6 101.3 262.9 100.2 C 262.8 100.2 262.7 100.1 262.7 100.1 C 263.2 99.6 264.0 98.9 264.0 98.8 C 262.4 100.3 261.3 100.9 260.2 102.1 C 260.2 102.1 260.1 102.0 260.1 102.0 C 259.8 102.2 259.5 102.5 259.6 102.3 C 260.2 101.8 261.0 101.2 261.0 101.0 C 259.7 102.1 259.3 102.1 257.8 103.2 C 258.0 102.7 255.8 104.0 257.9 102.2 C 258.4 102.2 259.6 101.3 259.6 101.4 C 260.3 101.0 261.5 99.9 262.0 99.3 C 261.3 99.7 260.1 100.7 259.8 100.6 C 260.8 99.7 261.4 99.0 262.2 98.6 C 260.3 100.5 263.3 97.8 264.2 97.3 C 263.9 97.4 263.5 97.7 263.1 97.9 C 264.5 96.5 265.3 96.0 265.1 95.7 C 266.6 93.9 266.5 94.5 267.5 93.3 C 266.5 93.8 268.0 92.4 267.1 93.0 C 268.7 90.9 267.8 92.6 268.4 91.9 C 268.8 91.2 268.8 91.1 269.2 90.5 C 270.0 89.7 271.2 87.8 271.6 87.7 C 272.1 86.9 272.3 86.8 272.7 86.0 C 272.8 85.7 272.8 85.4 273.0 85.0 C 273.1 84.9 273.5 84.4 273.5 84.2 C 272.1 86.3 272.4 85.6 270.7 87.8 C 270.7 88.0 270.5 88.4 270.9 87.9 C 270.0 89.6 269.5 89.9 268.5 91.3 C 268.2 91.4 267.8 91.4 266.9 92.8 C 267.0 92.3 266.6 92.6 267.0 92.1 C 267.6 91.5 268.4 90.7 269.1 89.8 C 269.1 89.6 268.9 89.7 269.2 89.2 C 269.6 88.9 270.2 88.2 270.4 87.5 C 270.5 87.6 270.5 87.8 270.3 88.1 C 271.8 86.0 271.0 86.6 272.0 85.1 C 271.8 85.3 271.2 86.3 271.5 85.4 C 272.3 83.9 272.5 83.6 272.9 82.9 C 272.9 82.7 272.8 82.8 273.0 82.4 C 273.6 81.4 272.4 84.9 273.5 83.1 C 273.3 82.9 274.2 81.1 274.4 80.9 C 274.4 81.6 273.7 82.6 273.8 82.7 C 275.2 79.4 274.4 82.8 275.5 79.3 C 275.4 79.3 275.3 79.3 275.2 79.3 C 274.8 80.6 274.6 80.6 274.4 80.5 C 274.0 81.6 273.5 82.0 273.2 83.0 C 273.0 82.4 273.6 82.0 274.1 80.8 C 273.9 80.8 273.4 81.9 273.2 81.9 C 274.5 79.3 274.3 78.6 275.2 76.0 C 274.8 76.6 275.4 74.6 275.2 74.7 C 274.9 77.0 274.3 75.9 274.2 76.3 C 273.9 77.7 274.5 77.2 274.4 78.1 C 274.0 78.4 274.0 78.2 273.7 77.9 C 274.1 76.6 274.0 76.8 274.1 75.8 C 274.5 75.0 275.0 74.3 275.0 75.5 C 275.0 75.3 275.1 73.5 275.3 73.4 C 275.1 75.1 275.4 73.2 275.4 74.3 C 275.8 73.0 275.6 70.7 275.7 69.1 C 275.6 69.2 275.5 68.7 275.4 68.7 C 275.7 70.3 275.2 70.6 275.1 72.1 C 275.1 71.4 274.9 71.8 274.8 72.1 C 275.0 70.6 274.8 69.8 275.0 68.7 C 274.9 68.7 274.8 68.7 274.7 68.8 C 274.8 67.0 274.7 67.2 274.3 65.8 C 274.4 65.3 274.9 66.0 275.2 66.1 C 275.0 65.5 274.5 63.0 274.6 64.5 C 274.2 63.0 274.7 63.3 274.2 61.9 C 274.0 61.9 274.4 63.3 273.9 62.9 C 273.5 61.5 274.0 62.2 273.5 61.2 C 273.7 61.0 273.9 60.9 273.4 59.8 C 273.5 60.7 273.3 59.7 273.0 59.4 C 273.2 60.0 273.3 60.4 273.3 60.7 C 272.6 58.6 272.4 58.2 271.5 56.6 C 272.1 57.1 271.7 56.1 272.4 57.2 C 271.7 56.2 271.2 54.7 270.8 54.2 C 271.1 54.9 271.7 56.0 271.7 56.5 C 269.9 53.1 268.5 51.6 266.4 48.5 C 266.8 49.0 267.3 49.7 267.5 49.7 C 267.2 49.4 266.8 48.8 266.9 48.8 C 267.7 49.8 268.4 50.8 268.9 51.3 C 269.4 52.2 268.3 50.9 268.9 51.8 C 269.2 51.9 270.2 53.7 270.1 52.9 C 268.8 51.4 267.9 49.8 267.6 48.8 C 266.1 47.6 267.3 49.0 265.6 47.7 C 265.7 47.7 265.4 47.3 265.0 46.8 C 265.2 47.5 263.5 45.5 263.3 45.2 C 264.2 45.9 266.8 48.5 265.7 46.9 C 265.8 47.9 262.8 43.6 263.2 44.6 C 261.4 42.9 262.2 43.3 261.0 42.6 C 261.0 42.4 261.2 42.5 260.7 42.0 C 260.2 41.5 260.0 41.4 259.7 41.3 C 262.4 43.8 261.3 43.3 262.9 44.9 C 262.6 44.6 262.4 44.4 262.4 44.5 C 262.4 44.6 262.3 44.6 261.9 44.2 C 262.0 43.8 260.5 43.0 260.3 42.5 C 260.8 42.9 261.3 43.4 261.3 43.1 C 259.1 41.2 259.8 41.3 256.3 38.4 C 257.3 39.4 255.9 38.3 254.6 37.4 C 252.8 36.1 253.8 36.3 251.4 34.8 C 251.3 35.4 249.0 33.1 245.8 31.7 C 246.2 31.6 242.1 29.2 241.1 29.0 C 241.1 28.8 239.5 28.0 238.3 27.5 C 238.1 27.2 239.5 27.8 238.5 27.3 C 237.4 26.8 237.8 27.3 236.9 26.9 C 235.9 26.4 236.2 26.2 234.7 25.5 C 234.5 25.7 235.4 26.0 234.5 25.8 C 233.2 25.1 232.0 24.6 233.0 25.3 C 230.9 24.4 232.1 24.5 230.2 23.7 C 230.7 24.0 230.6 24.1 229.6 23.7 C 228.9 23.2 228.9 23.1 228.7 22.9 C 228.0 22.9 228.2 23.0 226.6 22.3 C 226.6 22.4 226.5 22.5 226.5 22.6 C 225.8 22.3 224.6 21.9 224.5 21.7 C 225.9 22.3 225.5 21.9 226.1 22.1 C 224.7 21.5 222.1 20.3 224.1 21.3 C 222.0 20.7 223.1 20.7 221.5 20.2 C 222.4 20.8 221.6 20.3 219.9 19.8 C 219.9 20.1 218.8 19.4 217.7 19.1 C 217.8 19.4 217.5 19.4 216.6 19.1 C 216.7 19.0 216.1 18.7 215.0 18.4 C 215.0 18.6 217.2 19.4 214.9 18.7 C 213.9 18.2 214.0 18.0 212.3 17.5 C 212.0 17.1 213.9 17.8 213.5 17.4 C 212.1 17.2 211.7 16.9 209.6 16.3 C 210.3 17.0 205.3 15.8 207.7 16.6 C 207.0 16.4 206.0 16.5 205.5 16.1 C 206.3 16.3 204.9 15.7 205.0 15.7 C 204.0 15.5 201.7 14.8 201.6 14.9 C 203.8 15.4 203.7 15.6 204.4 15.9 C 201.2 15.3 198.4 14.6 198.7 14.3 C 198.7 14.4 198.2 14.3 198.1 14.4 C 199.2 14.6 199.9 15.1 198.6 14.9 C 198.9 14.7 198.0 14.4 196.9 14.1 C 196.8 14.4 192.7 13.2 193.4 13.7 C 195.1 13.8 196.4 14.4 195.1 14.3 C 194.0 13.9 191.7 13.3 192.3 13.2 C 191.6 13.2 191.1 13.1 190.5 13.1 C 189.9 13.2 191.2 13.5 191.0 13.6 C 190.1 13.4 188.8 13.2 188.6 13.1 C 191.0 13.5 187.4 12.7 189.9 13.0 C 188.4 12.7 188.1 12.5 186.9 12.3 C 186.9 12.4 186.4 12.3 186.3 12.4 C 187.4 12.4 188.4 12.7 188.1 12.9 C 185.9 12.6 186.3 12.4 184.5 12.1 C 183.9 12.2 181.4 12.1 180.2 11.8 C 182.6 12.1 180.1 11.6 181.5 11.7 C 183.7 12.2 184.3 12.0 185.1 11.9 C 184.2 11.7 182.4 11.3 182.1 11.6 C 183.3 11.8 183.3 11.6 184.0 11.7 C 183.9 11.8 183.5 11.9 182.7 11.8 C 181.7 11.5 179.5 11.4 181.0 11.2 C 179.4 11.2 177.7 10.7 176.1 10.7 C 177.9 10.9 179.2 11.2 179.7 11.4 C 178.2 11.3 176.8 10.9 176.7 11.0 C 176.8 11.3 179.2 11.5 179.6 11.8 C 177.7 11.8 174.9 10.7 177.2 11.5 C 176.2 11.3 174.7 11.2 174.2 11.0 C 175.5 11.1 174.1 10.6 173.6 10.5 C 172.5 10.4 171.6 10.3 171.2 10.4 C 172.9 10.5 174.2 11.0 173.0 10.9 C 172.7 10.7 172.3 10.8 171.8 10.8 C 171.7 10.6 169.7 10.5 169.3 10.4 C 169.5 10.5 170.3 10.6 170.5 10.7 C 169.4 10.7 167.7 10.9 166.9 10.5 C 167.6 10.5 168.6 10.6 168.7 10.6 C 165.5 9.9 164.5 9.5 160.7 9.1 C 161.2 9.1 161.5 9.1 161.3 9.0 C 158.9 8.8 157.4 8.6 157.7 8.4 C 156.2 8.4 155.4 8.5 154.6 8.6 C 156.1 8.8 156.7 8.6 157.6 8.8 C 157.0 8.9 158.8 9.4 159.5 9.6 C 162.2 9.5 162.3 9.9 165.0 10.0 C 164.2 10.2 167.0 10.2 166.2 10.4 C 163.7 9.8 161.3 9.9 157.6 9.5 C 158.1 9.4 158.5 9.2 157.0 9.0 C 154.7 8.8 155.8 9.2 153.9 9.0 C 153.1 8.8 154.2 8.8 153.3 8.7 C 152.6 8.8 150.8 8.7 150.2 8.4 C 152.7 8.5 149.7 8.2 151.4 8.1 C 150.6 8.1 150.1 8.1 149.5 8.0 C 152.0 8.4 147.0 8.3 148.9 8.6 C 145.4 8.6 148.7 7.9 145.8 7.9 C 147.2 8.1 145.4 8.2 143.3 8.1 C 142.7 7.9 140.6 7.8 138.9 7.7 C 139.8 7.9 140.5 7.9 138.9 8.1 C 139.7 8.2 141.2 8.2 142.0 8.1 C 142.0 8.2 142.3 8.2 142.7 8.3 C 140.6 8.3 141.5 8.5 140.8 8.5 C 140.2 8.4 138.7 8.4 138.3 8.3 C 138.3 8.4 137.7 8.4 137.7 8.5 C 140.3 8.5 137.3 8.8 138.9 8.9 C 140.1 8.8 139.3 8.6 140.8 8.6 C 142.2 8.9 139.6 8.9 138.9 9.2 C 140.1 9.4 141.6 9.0 142.0 9.3 C 140.4 9.6 137.9 9.4 135.8 9.4 C 135.9 9.7 132.3 9.4 132.1 9.8 C 131.7 9.7 131.4 9.7 130.8 9.6 C 130.2 9.9 129.6 9.6 128.9 9.6 C 128.9 9.8 129.1 9.9 129.6 9.9 C 127.0 9.9 126.4 9.9 123.4 10.2 C 122.9 10.1 122.4 10.0 122.1 9.8 C 122.8 9.7 123.5 9.7 124.0 9.5 C 119.9 9.8 122.6 10.3 119.6 10.1 C 119.8 10.2 121.8 10.3 120.3 10.5 C 117.7 10.4 114.1 11.0 114.1 10.3 C 111.8 10.3 110.3 11.0 109.2 10.8 C 108.5 10.9 108.3 11.0 108.0 11.1 C 108.7 11.1 109.6 11.2 110.5 11.2 C 111.8 10.9 112.4 11.1 111.1 10.9 C 113.1 10.6 113.7 10.8 114.7 10.8 C 112.0 11.2 109.4 11.3 109.3 11.6 C 108.3 11.6 107.6 11.5 106.8 11.5 C 106.6 11.7 103.4 12.2 103.2 11.9 C 105.3 11.7 107.4 11.1 105.5 11.2 C 100.4 12.1 97.4 12.1 93.0 13.2 C 92.9 13.1 93.2 12.8 92.4 13.0 C 92.4 13.1 92.2 13.2 91.8 13.4 C 90.4 13.6 89.6 13.7 87.7 14.1 C 87.8 13.8 87.5 13.7 86.4 13.9 C 85.9 14.2 84.2 15.1 83.1 15.3 C 84.2 15.0 82.7 15.0 81.9 15.2 C 82.6 15.4 76.7 16.2 78.5 16.1 C 76.2 16.7 75.2 16.8 75.1 16.7 C 74.3 17.0 73.7 17.2 72.9 17.5 C 72.3 17.3 68.5 18.7 67.9 18.7 C 69.3 18.4 69.4 17.9 68.4 18.3 C 67.7 18.7 64.3 20.0 63.7 20.1 C 63.8 20.0 64.0 19.7 65.7 19.1 C 62.8 19.9 63.0 20.3 62.1 20.8 C 62.1 20.5 60.9 21.2 60.5 21.4 C 59.6 21.5 60.5 21.3 60.4 21.1 C 59.4 21.4 59.0 21.4 57.8 21.9 C 58.2 22.0 56.8 22.4 56.3 22.5 C 56.1 22.8 55.5 23.1 54.4 23.6 C 55.7 22.6 47.9 25.8 49.9 25.3 C 48.4 26.2 48.2 25.7 46.4 26.6 C 46.1 26.9 45.0 27.3 46.0 27.1 C 45.3 27.4 44.6 27.7 44.3 27.8 C 44.0 27.8 43.6 28.0 42.3 28.7 C 43.6 28.4 39.7 30.0 40.5 30.0 C 39.1 30.2 37.3 31.9 35.1 32.7 C 35.2 32.8 34.6 33.2 34.6 33.3 C 34.3 33.6 37.1 32.0 35.3 33.1 C 33.1 34.2 34.2 33.5 33.9 33.5 C 28.4 37.1 22.7 41.4 18.7 45.4 C 19.3 45.0 19.3 45.1 18.5 45.9 C 17.1 46.8 13.5 51.7 13.1 52.6 C 12.6 52.9 11.4 55.5 11.0 55.9 C 11.3 55.4 11.6 54.3 11.0 55.4 C 10.9 56.2 10.3 57.0 10.0 58.0 C 9.5 58.4 8.7 61.6 8.7 60.0 C 8.5 60.6 8.3 61.0 8.2 61.3 C 8.5 61.4 8.2 62.0 8.7 61.0 C 7.6 63.7 7.7 64.5 7.2 66.6 C 7.3 67.0 7.7 65.3 7.5 66.6 C 7.5 66.6 7.4 66.6 7.4 66.6 C 7.3 67.1 7.4 67.3 7.3 67.5 C 7.2 67.4 7.3 66.6 7.0 66.6 C 7.0 67.6 6.6 68.3 6.8 68.7 C 6.9 67.2 7.3 68.3 7.0 69.2 C 6.9 68.4 7.0 72.6 7.3 73.9 C 7.1 74.6 7.2 72.5 7.0 72.6 C 7.2 75.2 7.2 75.0 7.5 75.2 C 7.7 76.6 7.6 77.1 8.2 78.7 C 8.4 79.7 7.9 78.2 8.1 79.2 C 8.4 79.8 8.6 80.0 9.0 80.8 C 9.3 83.3 13.0 88.3 14.3 91.4 C 13.7 90.2 14.8 91.5 15.9 92.9 C 15.9 93.0 15.7 92.9 16.1 93.4 C 16.2 93.2 16.6 93.6 17.4 94.5 C 17.4 94.7 17.2 94.6 17.6 95.1 C 18.2 95.3 19.0 96.6 19.8 97.1 C 19.9 97.6 18.2 95.7 17.9 95.7 C 19.8 98.0 20.4 98.1 22.2 99.8 C 21.2 99.0 22.7 100.6 22.9 100.9 C 22.7 100.3 24.3 101.5 23.3 100.4 C 24.0 101.0 25.1 101.9 25.2 102.1 C 24.8 101.8 24.2 101.3 24.2 101.4 C 25.1 102.1 26.1 103.2 26.7 103.4 C 26.1 102.9 25.7 102.5 25.8 102.4 C 26.1 102.5 26.5 102.7 27.0 103.0 C 25.2 102.4 29.8 105.4 30.2 105.5 C 30.4 106.1 30.7 106.3 30.4 106.3 C 32.5 107.7 32.3 107.3 33.6 108.0 C 33.1 108.0 32.6 107.9 34.5 109.3 C 34.3 108.7 36.7 110.2 36.1 109.5 C 38.8 111.0 40.5 112.0 42.0 112.8 C 43.4 113.6 45.0 114.4 46.2 115.0 C 46.2 114.9 45.5 114.5 46.2 114.8 C 47.3 115.4 48.3 115.9 49.0 116.4 C 49.7 116.5 48.8 116.1 49.6 116.3 C 51.3 117.3 50.8 117.4 52.3 118.3 C 54.4 118.9 53.6 118.7 54.9 119.0 C 54.4 118.7 53.7 118.4 54.5 118.6 C 55.6 119.3 56.1 119.8 56.3 119.9 C 55.4 119.6 54.7 119.3 54.3 119.1 C 54.0 119.1 52.7 118.6 53.7 119.2 C 52.4 118.6 51.0 118.0 49.2 117.2 C 49.7 117.7 47.6 116.6 48.1 117.1 C 50.1 117.9 50.6 118.3 52.5 119.1 C 52.2 118.6 54.2 119.6 54.6 119.8 C 54.7 119.6 56.1 120.2 55.8 119.9 C 57.4 120.4 57.2 120.6 58.8 121.1 C 58.9 121.3 58.7 121.3 59.3 121.5 C 59.9 121.5 60.3 122.0 60.8 122.2 C 60.6 121.8 62.9 122.7 63.1 122.6 C 62.5 122.4 61.6 122.1 61.5 122.0 C 64.1 122.9 62.1 121.9 61.6 121.6 C 61.7 121.7 60.7 121.7 60.5 121.5 C 62.7 122.0 57.6 120.0 59.5 120.8 C 61.2 121.4 61.1 121.2 62.8 121.8 C 64.6 122.9 62.2 122.3 64.1 123.3 C 65.3 123.5 66.2 123.8 66.3 123.7 C 66.6 123.8 66.9 124.0 67.3 124.2 C 67.9 124.2 65.8 123.5 67.4 123.9 C 68.3 124.2 67.2 124.3 69.0 124.7 C 69.8 124.7 66.9 123.8 68.6 124.2 C 70.2 125.1 68.2 124.0 70.2 124.6 C 70.4 124.7 70.7 124.8 71.3 125.0 C 71.4 125.1 71.1 125.2 71.8 125.4 C 72.3 125.1 72.5 125.8 74.0 126.1 C 74.9 126.1 72.5 125.6 73.0 125.4 C 74.6 126.2 75.7 126.1 76.4 126.3 C 74.9 126.2 78.5 127.0 78.5 127.3 C 78.2 126.9 79.0 127.2 81.0 127.5 C 81.0 127.9 83.3 128.1 83.8 128.6 C 84.1 128.5 84.7 128.6 85.0 128.5 C 84.3 128.4 83.6 128.2 83.9 128.1 C 84.4 128.2 85.0 128.4 85.6 128.5 C 86.6 128.9 83.9 128.9 87.8 129.6 C 87.4 129.2 89.1 129.5 90.2 129.6 C 90.2 129.3 88.7 129.3 88.5 129.1 C 89.9 129.2 91.2 129.7 92.0 129.9 C 94.4 130.2 97.1 130.9 100.5 131.2 C 101.2 131.6 97.6 131.0 99.8 131.5 C 100.8 131.6 100.3 131.3 101.6 131.6 C 100.3 132.4 110.8 132.9 111.4 133.4 C 111.9 133.3 114.8 133.7 114.5 133.3 C 112.5 133.4 111.2 132.9 110.2 132.7 C 108.3 132.6 111.9 133.1 110.2 133.0 C 110.0 132.8 107.5 132.7 107.8 132.5 C 110.4 132.8 106.4 132.1 108.4 132.0 C 110.9 132.4 115.8 132.6 114.6 132.8 C 114.6 132.7 113.5 132.6 113.4 132.7 C 116.1 133.1 117.8 133.0 119.0 132.9 C 120.2 133.2 125.2 133.2 123.9 133.3 C 124.4 133.5 121.0 133.0 121.4 133.3 C 126.6 133.7 126.7 133.5 130.2 133.8 C 129.1 133.5 133.8 133.5 133.3 133.6 C 133.3 133.9 134.4 134.1 136.5 133.8 C 136.2 134.1 137.3 134.2 138.4 134.3 C 138.9 134.0 137.4 134.0 137.7 133.9 C 138.7 133.9 139.8 133.9 140.9 133.9 C 140.9 134.0 140.8 134.1 141.5 134.1 C 142.7 134.0 146.9 133.7 146.5 133.8 C 144.7 134.2 149.4 134.1 146.5 134.3 C 147.3 134.3 147.4 134.4 148.4 134.4 C 148.4 134.3 148.4 134.1 148.4 134.0 C 150.7 134.0 149.6 134.4 151.6 134.3 C 151.7 134.2 152.6 134.2 152.8 134.1 C 152.0 134.1 152.0 134.2 150.9 134.2 C 152.1 133.8 148.9 134.0 149.0 133.8 C 151.2 133.7 151.2 133.9 152.2 134.0 C 154.9 133.7 153.6 133.9 156.6 133.8 C 156.6 133.7 155.8 133.7 155.9 133.6 C 159.5 133.5 159.1 134.0 161.6 133.7 C 161.0 133.7 158.8 134.1 160.4 134.0 C 162.0 133.8 162.5 133.5 164.7 133.3 C 164.8 133.3 164.6 133.5 165.3 133.4 C 166.2 133.3 166.3 133.1 167.1 132.9 C 167.3 133.0 168.5 132.8 169.0 132.7 C 169.8 132.8 168.7 133.0 169.7 133.0 C 171.5 132.8 172.4 132.1 173.9 132.0 C 173.9 132.4 175.5 132.1 177.0 131.8 C 177.3 132.1 180.5 131.6 182.5 131.4 C 182.0 131.2 184.2 131.0 183.6 130.8 C 182.6 131.0 182.1 131.0 181.9 130.9 C 184.2 130.5 185.0 130.9 186.7 130.2 C 187.6 130.3 188.7 130.2 190.3 130.0 C 190.5 129.9 187.5 130.3 189.1 129.9 C 189.2 130.0 189.7 129.9 190.2 129.7 C 190.1 130.0 191.4 129.9 192.1 129.8 C 193.5 129.4 196.4 129.2 195.0 129.1 C 197.2 128.6 195.9 129.3 197.5 129.0 C 196.6 128.9 199.4 128.2 198.0 128.3 C 200.2 127.8 200.1 128.2 199.2 128.6 C 201.3 128.2 201.7 127.9 202.7 127.8 C 201.7 127.7 204.8 126.9 203.2 127.4 C 202.8 127.8 205.1 127.1 205.6 127.1 C 204.8 127.1 205.9 126.8 204.4 127.0 C 205.9 126.6 208.1 126.0 209.5 125.9 C 211.3 125.2 213.0 124.7 212.3 125.2 C 214.0 124.6 213.4 124.8 215.1 124.3 C 215.1 124.3 214.6 124.4 214.5 124.4 C 216.8 123.7 216.4 124.0 219.4 123.0 C 219.2 123.4 221.1 122.7 221.7 122.7 C 220.5 123.1 219.5 123.4 218.4 123.6 C 218.3 123.8 219.3 123.6 218.5 123.9 C 218.4 123.8 217.9 123.9 217.4 124.0 C 219.4 123.7 215.0 125.3 216.3 124.6 C 216.3 124.6 216.5 124.6 216.9 124.5 C 216.4 124.3 216.5 124.4 216.8 124.1 C 215.8 124.5 214.9 124.4 214.6 124.8 C 214.7 124.8 215.6 124.5 215.7 124.6 C 213.3 125.5 214.9 124.5 212.9 125.2 C 212.6 125.5 213.6 125.3 214.1 125.3 C 212.3 125.9 210.7 126.3 210.2 126.3 C 208.5 126.8 210.4 126.4 209.2 126.9 C 208.5 126.9 208.5 126.7 207.4 127.0 C 206.1 127.5 208.2 127.0 206.9 127.4 C 205.5 127.6 207.8 126.8 205.6 127.3 C 206.2 127.5 203.7 127.7 203.9 127.9 C 205.2 127.5 205.2 127.9 204.6 127.8 C 201.7 128.2 199.9 129.5 197.0 129.5 C 197.0 129.6 196.5 129.7 196.4 129.8 C 198.6 129.5 201.7 128.8 202.4 129.1 C 204.0 128.6 203.8 128.4 204.0 128.3 C 206.1 128.1 205.9 128.2 204.8 128.8 C 201.5 129.7 200.0 129.8 197.8 130.2 C 196.6 130.6 197.9 130.3 198.4 130.3 C 191.4 131.5 196.8 131.1 194.3 131.5 C 194.4 131.4 193.8 131.4 193.1 131.5 C 193.1 131.6 192.1 131.8 191.9 131.9 C 192.4 131.9 192.6 131.9 192.5 132.0 C 190.8 132.4 191.4 132.0 191.3 131.9 C 192.7 131.7 193.5 131.4 193.7 131.3 C 191.9 131.7 190.6 131.7 189.5 132.2 C 187.8 132.1 190.2 131.4 189.3 131.3 C 189.6 131.0 188.3 132.1 187.0 132.4 C 184.9 132.7 184.8 133.0 182.8 133.3 C 182.2 133.1 184.8 132.9 184.6 132.7 C 184.0 132.8 183.9 132.7 183.3 132.8 C 181.9 133.0 182.1 133.2 181.0 133.5 C 180.3 133.3 180.0 133.5 179.2 133.7 C 177.8 133.8 179.9 133.4 178.5 133.6 C 177.0 133.7 175.9 134.2 175.4 134.2 C 175.3 134.1 175.5 134.0 174.8 134.0 C 173.1 134.4 172.7 134.5 174.8 134.4 C 172.9 134.5 172.1 134.7 172.4 135.0 C 175.3 134.7 176.0 134.5 177.4 134.7 C 177.9 134.3 178.8 134.4 179.9 134.4 C 179.1 134.0 181.1 134.2 181.7 133.9 C 181.0 133.9 180.2 134.0 179.8 134.0 C 182.9 133.6 182.8 133.6 185.2 132.8 C 185.3 132.9 185.6 133.0 185.9 133.0 C 185.1 133.2 182.9 133.5 182.9 133.7 C 184.6 133.7 185.2 133.2 187.2 133.2 C 188.0 132.9 185.5 133.1 187.1 132.9 C 187.9 132.9 188.9 132.9 190.2 132.7 C 191.5 132.5 192.1 132.2 193.1 131.9 C 193.3 132.0 193.4 132.1 194.4 131.9 C 194.3 131.8 193.3 131.9 194.3 131.6 C 197.5 131.3 199.7 131.1 202.7 130.2 C 201.6 130.4 199.1 130.7 200.3 130.5 C 201.7 130.3 203.5 129.6 205.0 129.4 C 205.4 129.4 203.2 129.8 203.9 130.0 C 205.2 129.7 206.1 129.5 206.7 129.4 C 206.7 129.3 208.3 128.9 207.8 128.8 C 206.7 129.1 206.5 129.4 206.1 129.4 C 206.9 128.5 210.4 128.5 212.5 128.0 C 213.8 127.5 211.4 128.0 213.0 127.5 C 213.9 127.1 214.6 127.5 213.1 128.0 C 212.0 128.2 211.7 128.6 211.4 128.4 C 210.9 128.6 210.3 128.7 210.3 128.8 C 211.1 128.6 211.0 128.8 211.5 128.7 C 210.3 129.0 210.3 129.5 209.2 129.5 C 209.9 129.3 210.1 129.2 210.4 129.0 C 207.3 130.0 206.3 130.0 204.5 130.3 C 205.5 130.2 204.5 130.4 204.6 130.6 C 205.9 130.2 208.5 129.7 206.9 130.2 C 205.9 130.1 205.2 131.1 204.1 131.1 C 204.9 130.8 204.7 130.7 205.2 130.5 C 204.0 130.8 204.0 130.6 202.8 130.9 C 199.1 132.1 196.0 132.1 189.8 133.8 C 187.6 134.2 191.8 133.3 191.5 133.1 C 190.9 133.3 190.8 133.2 190.3 133.3 C 190.3 133.6 189.2 133.5 188.5 133.8 C 188.6 133.6 185.6 134.3 184.2 134.3 C 184.1 134.4 184.3 134.5 183.6 134.6 C 179.1 135.0 170.9 136.4 167.4 136.4 C 167.6 136.6 166.0 136.7 165.6 136.9 C 163.4 137.0 164.4 136.8 161.2 137.2 C 159.6 137.4 161.5 137.0 161.8 136.9 C 157.0 137.4 152.8 137.3 149.8 137.7 C 148.2 137.8 149.7 137.5 146.6 137.5 C 146.5 137.9 141.6 137.4 140.9 137.8 C 138.9 137.9 135.5 137.3 137.0 137.7 C 134.4 137.7 136.2 137.4 135.1 137.3 C 133.3 137.3 135.7 138.0 133.9 137.9 C 134.0 137.7 132.5 137.8 131.3 137.5 C 132.7 137.5 133.7 137.5 133.9 137.4 C 132.6 137.5 132.7 137.3 130.7 137.3 C 129.2 137.4 124.9 137.4 123.7 137.0 C 123.7 137.1 124.0 137.1 124.3 137.2 C 123.1 137.2 121.6 136.8 121.8 137.1 C 119.0 137.0 117.8 136.6 116.1 136.7 C 114.9 136.7 116.6 136.5 113.0 136.2 C 112.9 136.4 106.6 135.7 104.9 135.3 C 104.8 135.6 104.5 135.2 103.7 135.1 C 103.6 135.2 103.7 135.3 103.0 135.2 C 102.9 135.1 102.4 135.1 101.8 135.1 C 102.3 134.7 99.5 134.9 99.4 134.6 C 99.9 134.6 99.9 134.4 99.4 134.3 C 99.2 134.6 96.7 133.8 97.0 134.0 C 97.5 134.2 99.2 134.4 98.7 134.5 C 96.3 134.3 97.3 134.1 95.7 133.8 C 95.8 133.9 96.7 134.2 95.7 134.1 C 94.0 133.7 95.6 134.0 94.5 133.6 C 93.6 133.5 92.0 133.4 91.4 133.3 C 91.6 133.3 91.1 133.1 90.9 133.0 C 87.8 132.4 80.8 131.2 77.9 130.1 C 77.7 130.2 77.0 130.0 77.2 130.3 C 75.5 129.7 75.6 129.8 73.8 129.2 C 73.8 129.3 73.8 129.4 73.7 129.5 C 71.4 129.0 73.6 129.1 72.1 128.8 C 71.8 129.2 71.3 128.4 69.9 128.0 C 69.7 128.0 69.0 127.9 69.2 128.1 C 67.1 127.5 67.3 127.1 65.4 126.7 C 65.8 126.9 65.9 127.7 65.6 127.9 C 65.3 127.7 64.8 127.4 64.0 127.1 C 65.1 127.2 64.8 126.2 62.1 125.6 C 63.5 126.0 64.1 126.2 63.7 126.3 C 61.7 125.7 61.1 125.3 59.4 124.7 C 59.0 124.9 60.2 125.3 59.7 125.4 C 59.3 125.3 59.1 125.3 59.1 125.4 C 57.4 124.7 57.4 124.5 55.4 124.0 C 55.5 123.8 55.9 124.0 56.5 124.3 C 56.5 124.1 56.6 123.9 57.7 124.3 C 57.8 124.5 57.0 124.5 58.7 125.0 C 58.7 124.9 58.8 124.7 58.8 124.6 C 57.6 124.2 54.9 123.0 54.6 123.0 C 55.1 123.3 56.0 123.7 55.5 123.7 C 53.5 122.9 53.0 122.4 51.5 121.7 C 48.6 120.6 43.9 118.3 44.3 119.0 C 42.7 118.1 43.0 118.2 40.9 117.1 C 41.4 117.7 38.4 116.0 38.5 116.3 C 41.1 117.6 40.3 117.2 43.0 118.4 C 42.9 118.5 42.4 118.4 41.3 118.0 C 41.2 117.8 40.2 117.2 38.5 116.4 C 38.7 116.5 40.2 117.6 38.3 116.6 C 38.2 116.5 37.8 116.3 37.0 115.8 C 37.0 115.7 37.1 115.6 37.2 115.5 C 38.2 115.9 39.4 116.5 40.1 116.8 C 39.4 116.4 39.3 116.3 38.7 115.9 C 38.2 115.8 35.4 114.2 35.2 114.2 C 36.3 114.8 37.0 115.3 35.7 114.7 C 35.6 114.6 33.8 113.4 33.0 113.2 C 35.3 114.6 34.4 114.1 35.6 115.0 C 32.8 113.6 33.3 113.5 30.3 111.8 C 30.4 111.6 30.5 111.4 31.3 111.8 C 29.7 110.2 25.4 107.8 24.1 106.8 C 25.0 107.5 26.2 108.0 24.9 107.0 C 24.8 107.1 23.9 106.3 23.7 106.3 C 22.9 106.3 23.9 107.4 24.8 108.3 C 23.7 107.5 23.4 107.4 22.5 106.7 C 22.3 106.3 23.5 106.8 22.3 105.8 C 21.8 105.9 20.1 104.1 19.5 103.9 C 20.3 104.6 20.8 105.2 19.9 104.5 C 20.2 104.5 18.5 103.1 18.5 103.0 C 19.9 104.0 20.4 104.2 21.3 104.9 C 20.2 104.0 22.2 105.4 20.4 103.9 C 19.5 103.3 18.9 103.2 17.2 101.5 C 16.6 100.9 17.4 101.3 16.5 100.4 C 16.6 100.8 14.7 99.1 16.0 100.0 C 15.4 99.4 15.1 99.0 14.8 98.6 C 15.4 99.7 11.3 95.6 11.8 96.4 C 12.0 96.1 12.1 95.7 11.9 95.4 C 11.0 94.8 10.4 93.6 8.8 91.3 C 8.6 91.5 8.5 90.9 7.8 89.9 C 7.6 89.8 8.1 90.7 7.6 90.0 C 7.0 88.8 7.0 88.7 7.0 88.5 C 6.5 87.6 6.2 86.9 6.0 86.5 C 5.9 86.5 6.0 86.8 6.0 87.1 C 4.6 83.6 3.7 82.0 3.0 79.1 C 3.2 80.4 3.6 80.5 3.3 79.5 C 3.1 79.0 3.0 78.4 2.8 78.1 C 2.7 78.9 2.8 78.5 2.5 77.1 C 2.2 75.8 2.2 77.7 2.0 76.7 C 2.0 75.5 2.2 76.2 2.2 75.6 C 2.1 75.1 2.0 74.5 2.0 74.0 C 1.9 75.0 1.7 74.0 1.6 73.1 C 1.9 73.7 1.9 73.3 1.7 71.5 C 1.8 71.3 1.9 72.2 2.0 71.5 C 2.0 71.1 1.6 69.7 1.9 68.4 C 1.9 68.8 2.0 69.0 2.0 69.0 C 1.9 67.6 2.4 66.6 2.6 65.4 C 2.3 66.6 2.2 65.9 1.9 66.4 C 2.3 65.2 2.3 63.7 2.8 62.9 C 2.3 64.6 3.2 63.0 3.5 61.9 C 3.3 61.6 3.0 63.5 2.8 62.9 C 2.7 62.2 3.4 61.0 3.4 60.3 C 3.2 60.4 3.2 61.1 3.0 61.3 C 3.3 60.4 2.8 61.6 3.0 60.8 C 3.4 60.3 3.2 59.7 3.4 59.2 C 3.7 58.6 4.5 57.4 4.6 56.8 C 4.5 56.8 4.1 57.7 4.0 57.7 C 4.9 54.9 5.7 54.3 6.8 51.8 C 7.1 51.5 7.4 51.1 7.9 50.4 C 7.7 50.4 7.9 49.9 8.3 49.4 C 9.1 48.4 9.9 47.5 10.9 46.2 C 10.9 46.6 10.5 47.2 11.9 45.5 C 11.9 45.4 11.3 46.1 11.8 45.4 C 11.8 45.4 12.2 45.1 12.2 44.9 C 12.1 44.9 12.1 44.9 12.1 44.8 C 11.6 45.3 11.3 45.8 10.9 46.2 C 10.8 46.1 10.6 46.2 10.3 46.5 C 11.8 44.4 12.1 44.8 13.1 43.4 C 13.6 43.4 14.0 43.0 13.2 44.3 C 14.2 43.1 14.9 42.2 15.0 41.8 C 13.7 43.2 13.9 42.5 13.5 42.8 C 14.3 42.0 14.2 41.9 14.6 41.4 C 15.7 40.5 13.9 42.7 15.8 40.8 C 14.1 42.1 16.9 39.4 18.0 38.5 C 17.8 38.6 17.4 38.9 17.9 38.3 C 20.7 35.6 21.0 36.4 22.7 34.6 C 22.6 34.9 23.5 34.2 23.9 33.9 C 22.3 35.2 22.0 35.6 21.3 36.2 C 21.5 36.2 22.0 35.8 22.5 35.5 C 22.4 35.3 22.8 35.0 23.5 34.5 C 23.9 34.1 23.5 33.9 24.7 32.7 C 24.9 32.7 24.8 33.0 25.5 32.5 C 26.0 31.9 25.2 33.2 28.1 31.1 C 27.5 31.4 27.1 31.5 27.2 31.2 C 28.6 30.1 28.3 30.4 30.3 29.1 C 31.2 29.0 29.2 30.4 28.8 30.9 C 30.0 30.0 31.0 29.1 32.5 28.4 C 31.4 28.9 32.3 28.1 33.6 27.3 C 34.8 26.6 33.7 27.6 35.2 26.8 C 36.3 26.1 36.8 25.6 35.6 26.1 C 38.2 24.7 37.5 24.8 39.8 23.7 C 39.9 23.8 39.3 24.1 38.4 24.5 C 38.6 24.5 38.4 24.8 39.2 24.4 C 40.6 23.4 43.8 21.8 45.0 21.1 C 47.4 20.5 49.8 18.9 52.2 18.1 C 51.3 18.7 55.3 17.0 56.5 16.8 C 57.2 16.5 59.3 15.2 58.5 15.7 C 58.8 15.9 60.2 15.3 61.4 15.0 C 61.3 14.9 61.3 14.9 61.3 14.8 C 63.7 13.9 64.3 14.0 65.2 13.9 C 68.2 12.8 71.6 12.2 75.4 10.9 C 76.4 11.0 77.3 10.7 79.6 10.3 C 79.5 10.1 81.3 9.7 83.0 9.3 C 82.6 9.2 84.2 8.9 84.1 8.7 C 82.6 9.0 83.1 8.6 82.3 8.7 C 84.4 8.5 85.3 7.8 87.0 7.7 C 85.0 8.2 84.4 8.7 84.2 9.1 C 86.6 8.5 88.0 8.4 88.5 8.5 C 88.6 8.3 88.3 8.2 87.7 8.2 C 88.6 8.1 89.4 7.9 90.1 7.8 C 90.4 7.9 89.3 8.1 90.2 8.0 C 90.8 7.8 91.4 7.6 92.0 7.4 C 92.7 7.5 91.1 7.8 90.8 8.0 C 94.1 7.5 92.6 7.2 94.4 6.8 C 94.9 6.9 94.8 7.2 96.3 7.0 C 96.8 6.7 97.0 6.5 98.6 6.2 C 99.7 6.1 98.6 6.6 99.9 6.4 C 100.1 6.3 100.6 6.3 101.2 6.3 C 101.1 6.1 101.6 6.0 102.3 5.8 C 102.5 5.9 103.7 5.7 104.2 5.6 C 104.3 5.7 106.3 5.8 106.7 5.5 C 106.7 5.4 105.6 5.6 105.5 5.5 C 106.9 5.4 107.8 5.2 108.5 5.1 C 109.0 5.6 111.3 4.9 114.2 4.9 C 115.9 4.5 113.8 4.5 116.0 4.1 C 117.4 4.2 115.8 4.4 116.1 4.6 C 116.4 4.6 118.5 4.6 118.6 4.4 C 118.6 4.3 117.5 4.4 117.4 4.3 C 119.0 4.0 119.0 4.3 119.9 4.3 C 119.7 4.1 120.8 4.0 121.1 3.8 C 125.6 3.4 125.6 3.8 127.5 3.9 C 127.5 3.8 128.6 3.8 128.7 3.7 C 127.4 3.9 125.7 3.7 127.4 3.6 C 127.1 3.8 129.8 3.5 130.0 3.4 C 129.7 3.3 128.0 3.4 128.7 3.2 C 131.1 3.0 130.1 3.5 131.9 3.2 C 132.1 3.3 131.0 3.4 130.6 3.5 C 131.3 3.5 132.4 3.4 132.5 3.5 C 131.6 3.6 131.6 3.8 131.2 3.9 C 132.5 3.7 134.7 3.8 133.1 3.5 C 135.7 3.6 138.1 3.4 136.4 3.2 C 138.4 3.1 137.2 3.4 138.9 3.2 C 138.7 3.5 138.2 3.6 139.5 3.8 C 139.8 3.7 140.9 3.6 140.8 3.4 C 143.8 3.4 144.7 3.7 145.9 3.9 C 144.8 3.6 146.3 3.9 147.8 3.7 C 148.7 3.8 147.8 4.1 150.3 4.0 C 147.7 3.6 153.4 4.1 152.2 3.6 C 155.4 3.9 155.3 3.9 158.6 4.2 C 158.3 4.3 157.5 4.4 156.0 4.4 C 157.0 4.2 153.3 4.0 153.5 4.2 C 153.5 4.2 153.5 4.3 153.5 4.3 C 155.9 4.4 157.5 4.5 158.6 4.7 C 159.1 4.6 160.2 4.6 159.8 4.3 C 162.1 4.7 164.5 4.5 165.5 4.8 C 164.7 4.8 164.0 4.7 164.2 4.9 C 165.1 4.9 166.3 4.9 166.1 4.7 C 164.3 4.5 163.9 4.4 163.0 4.6 C 163.8 4.4 161.2 4.1 163.0 4.2 C 163.0 4.5 166.8 4.3 165.6 4.4 C 163.5 4.4 167.8 4.8 168.0 5.0 C 168.0 5.0 168.0 5.0 168.0 5.0 Z M 203.4 130.7 C 205.1 130.2 202.9 130.5 201.6 130.8 C 202.0 130.8 202.2 130.9 202.2 131.0 C 202.7 130.8 203.2 130.7 203.4 130.7 C 203.4 130.7 203.4 130.7 203.4 130.7 Z M 183.7 131.0 C 183.1 131.3 186.1 130.7 187.3 130.5 C 187.0 130.5 186.6 130.5 187.3 130.4 C 186.0 130.4 185.6 130.9 183.7 131.0 C 183.7 131.0 183.7 131.0 183.7 131.0 Z M 114.5 133.7 C 115.0 133.7 116.2 133.8 116.3 133.9 C 117.1 134.0 116.9 133.8 117.0 133.7 C 118.5 133.8 116.6 134.1 118.9 134.1 C 119.8 133.7 115.0 133.2 114.5 133.7 C 114.5 133.7 114.5 133.7 114.5 133.7 Z M 143.9 7.4 C 144.8 7.6 142.7 7.8 143.3 8.0 C 146.8 7.8 144.1 7.5 148.9 7.7 C 148.6 7.6 148.2 7.5 148.3 7.4 C 146.0 7.5 145.9 7.7 146.4 7.2 C 145.4 7.2 145.1 7.7 143.9 7.4 C 143.9 7.4 143.9 7.4 143.9 7.4 Z M 188.2 12.4 C 187.8 12.2 187.5 12.1 187.6 12.0 C 186.1 11.9 186.4 12.0 184.6 11.6 C 184.8 12.0 186.6 12.3 188.2 12.4 C 188.2 12.4 188.2 12.4 188.2 12.4 Z M 274.8 67.5 C 274.8 67.8 274.9 68.0 274.9 68.3 C 275.0 68.1 275.4 68.9 275.2 67.4 C 275.1 67.4 275.1 67.6 275.2 67.9 C 275.1 67.6 275.0 66.9 274.8 67.1 C 274.9 67.4 274.8 67.5 274.8 67.5 C 274.8 67.5 274.8 67.5 274.8 67.5 Z M 258.8 102.4 C 260.6 100.6 255.5 104.1 258.8 102.4 C 258.8 102.4 258.8 102.4 258.8 102.4 C 258.8 102.4 258.8 102.4 258.8 102.4 Z M 264.6 101.1 C 264.7 101.2 265.1 100.7 265.1 100.7 C 266.6 99.3 265.2 100.8 266.2 100.1 C 267.2 98.8 265.3 100.4 266.7 98.8 C 266.3 99.0 265.5 100.3 264.6 101.1 C 264.6 101.1 264.6 101.1 264.6 101.1 Z M 20.6 36.4 C 19.3 37.7 19.1 38.2 19.0 38.6 C 19.9 37.8 20.7 37.1 21.1 37.0 C 22.8 35.4 19.8 37.9 19.5 38.1 C 19.5 37.7 20.8 36.6 20.6 36.4 C 20.6 36.4 20.6 36.4 20.6 36.4 Z M 16.3 40.4 C 15.9 41.0 15.2 41.9 15.3 42.0 C 16.0 41.2 16.2 41.2 16.3 41.2 C 16.9 40.5 15.9 41.2 16.3 40.4 C 16.3 40.4 16.3 40.4 16.3 40.4 Z M 25.2 33.3 C 24.5 33.8 24.8 33.8 24.8 34.0 C 25.8 33.2 26.1 33.2 27.1 32.4 C 27.1 32.3 27.0 32.3 27.0 32.2 C 26.1 32.8 26.1 32.9 25.3 33.5 C 25.3 33.4 25.2 33.4 25.2 33.3 C 25.2 33.3 25.2 33.3 25.2 33.3 Z M 12.8 44.7 C 10.7 47.1 10.3 48.4 9.5 50.2 C 10.7 48.4 11.5 46.5 12.6 45.4 C 13.8 43.8 12.1 45.8 12.1 45.7 C 12.0 45.6 12.5 45.0 12.8 44.7 C 12.8 44.7 12.8 44.7 12.8 44.7 Z M 2.5 67.0 C 2.3 67.5 2.6 68.5 2.5 70.0 C 2.6 69.7 2.6 69.5 2.7 69.5 C 2.9 67.3 2.3 68.6 2.5 67.0 C 2.5 67.0 2.5 67.0 2.5 67.0 Z M 3.7 79.4 C 4.1 80.7 3.7 78.7 4.0 79.4 C 3.6 77.9 3.4 76.4 3.1 76.5 C 3.6 78.0 3.7 78.3 3.7 79.4 C 3.7 79.4 3.7 79.4 3.7 79.4 Z M 7.4 88.2 C 8.3 89.6 7.3 87.5 7.9 87.9 C 7.5 87.4 7.5 87.6 7.4 87.6 C 7.2 87.2 7.0 86.8 6.7 86.1 C 6.8 86.7 7.7 88.3 7.4 88.2 C 7.4 88.2 7.4 88.2 7.4 88.2 Z M 63.2 15.2 C 62.3 15.6 62.6 15.7 60.6 16.4 C 63.6 15.3 62.2 16.6 66.2 15.2 C 65.5 15.3 65.9 15.1 66.2 15.1 C 67.7 14.5 64.7 15.4 66.1 14.7 C 64.9 15.1 65.7 15.2 64.5 15.5 C 63.3 15.7 62.6 15.8 63.2 15.2 C 63.2 15.2 63.2 15.2 63.2 15.2 Z M 66.3 15.4 C 67.4 15.1 67.3 14.7 67.9 14.8 C 68.4 14.6 68.3 14.5 68.4 14.4 C 68.0 14.6 67.9 14.6 67.8 14.5 C 66.9 14.9 65.9 15.3 66.3 15.4 C 66.3 15.4 66.3 15.4 66.3 15.4 Z M 56.1 18.9 C 57.8 18.1 58.4 18.1 59.2 17.6 C 59.9 17.7 60.3 17.0 61.4 17.0 C 63.2 16.3 61.8 16.7 61.3 16.7 C 63.0 16.0 61.8 16.8 63.5 16.1 C 63.7 15.8 61.5 16.6 61.7 16.2 C 60.4 16.7 60.5 16.8 59.6 17.2 C 59.0 17.4 59.2 17.2 59.0 17.1 C 57.5 17.7 57.6 17.5 56.4 18.0 C 56.1 18.3 56.7 18.2 58.1 17.7 C 56.6 18.3 56.1 18.7 54.4 19.2 C 55.5 18.5 50.3 20.5 50.8 20.7 C 52.2 20.2 51.8 20.2 52.3 19.9 C 54.2 19.3 55.3 18.9 56.1 18.9 C 56.1 18.9 56.1 18.9 56.1 18.9 Z M 26.2 33.5 C 25.7 33.8 25.2 34.1 24.5 34.7 C 24.3 34.6 25.3 33.9 24.3 34.4 C 23.1 35.3 22.9 35.6 22.2 36.2 C 22.7 35.9 25.3 34.3 24.1 35.3 C 24.5 35.1 25.3 34.6 26.4 33.8 C 25.0 34.4 28.1 32.6 29.3 31.8 C 29.0 31.5 31.5 30.4 32.3 29.7 C 31.5 29.9 29.1 31.7 28.0 32.5 C 28.5 32.1 24.8 34.0 26.2 33.5 C 26.2 33.5 26.2 33.5 26.2 33.5 Z M 70.7 13.9 C 71.0 13.8 72.2 13.4 71.2 13.6 C 71.7 13.4 72.8 13.2 72.3 13.0 C 72.9 12.8 73.4 12.7 74.0 12.5 C 73.8 12.7 72.2 13.1 72.9 13.2 C 74.0 12.7 73.6 13.0 75.2 12.6 C 74.4 13.0 75.3 12.8 74.7 13.3 C 75.2 13.0 76.6 12.7 76.4 12.5 C 78.6 12.0 75.8 13.0 78.8 12.2 C 78.8 12.4 76.7 12.9 75.9 13.0 C 75.6 13.4 79.5 12.2 81.7 11.8 C 79.7 12.0 81.2 11.5 82.1 11.0 C 82.8 11.0 82.2 11.2 83.4 11.1 C 84.4 10.9 84.9 10.6 85.2 10.7 C 86.0 10.5 85.6 10.4 85.7 10.3 C 87.1 10.0 86.1 10.6 88.1 10.1 C 86.5 10.1 88.3 9.6 91.0 9.2 C 90.8 9.1 89.9 9.3 89.8 9.2 C 90.2 8.9 91.8 9.0 92.2 9.0 C 93.2 8.7 92.6 8.7 91.6 8.9 C 92.2 8.7 92.8 8.6 93.4 8.4 C 90.4 8.9 85.7 9.8 80.3 10.7 C 81.3 10.7 80.1 11.0 78.5 11.3 C 78.3 11.2 79.0 11.0 79.7 10.9 C 77.8 11.0 78.0 11.6 75.1 12.2 C 73.5 12.5 76.8 11.5 75.0 11.9 C 74.0 12.2 73.3 12.6 72.8 12.5 C 71.0 13.1 70.5 13.5 67.8 14.3 C 69.4 14.0 70.2 14.3 71.8 13.7 C 71.8 13.6 71.1 13.8 70.7 13.9 C 70.7 13.9 70.7 13.9 70.7 13.9 Z M 16.4 41.4 C 15.6 42.1 15.4 42.6 15.1 42.7 C 13.9 44.1 15.5 42.7 15.7 42.5 C 16.3 41.8 16.4 41.6 16.4 41.4 C 16.4 41.4 16.4 41.4 16.4 41.4 Z M 122.5 136.5 C 124.9 136.7 124.4 136.4 126.3 136.5 C 124.8 136.3 124.4 136.1 121.9 135.9 C 121.7 136.1 121.7 136.3 122.5 136.5 C 122.5 136.5 122.5 136.5 122.5 136.5 Z M 21.2 37.2 C 22.3 35.9 20.0 38.6 19.8 38.5 C 18.6 39.8 21.2 37.5 20.1 38.8 C 21.2 37.6 22.1 37.2 23.6 35.8 C 23.4 35.7 22.1 36.7 20.9 37.8 C 20.7 37.8 21.3 37.2 21.2 37.2 C 21.2 37.2 21.2 37.2 21.2 37.2 Z M 98.3 133.2 C 96.7 133.1 99.7 133.8 100.7 134.1 C 100.8 133.8 100.3 133.8 98.3 133.2 C 98.3 133.2 98.3 133.2 98.3 133.2 Z M 139.0 136.7 C 139.9 136.4 136.1 136.6 137.0 136.3 C 135.9 136.3 135.8 136.4 135.7 136.5 C 135.2 136.4 133.4 136.4 133.9 136.2 C 133.6 136.0 136.7 136.3 135.8 136.0 C 136.8 136.0 136.9 136.1 137.7 136.1 C 135.8 136.1 136.7 136.3 139.0 136.4 C 139.0 136.2 137.9 136.3 139.0 136.1 C 139.1 136.2 140.3 136.4 140.2 136.8 C 142.2 136.8 141.0 136.3 143.3 136.4 C 143.2 136.2 141.7 136.2 140.8 136.1 C 141.1 135.9 143.3 136.3 142.7 136.0 C 143.2 136.2 144.6 136.2 144.6 136.5 C 142.9 136.6 141.7 136.8 140.2 136.9 C 141.6 137.1 143.5 136.5 145.9 136.7 C 145.6 136.5 147.1 136.5 146.6 136.3 C 148.4 136.3 147.6 136.7 147.2 136.7 C 147.7 136.8 151.3 136.6 151.0 136.4 C 151.3 136.6 155.6 136.4 155.4 136.1 C 156.7 136.2 158.6 135.7 159.2 136.1 C 159.9 135.9 161.4 135.8 163.0 135.7 C 163.4 135.4 160.7 135.8 160.5 135.6 C 160.0 135.4 163.4 135.4 163.0 135.2 C 163.0 135.2 163.0 135.1 163.0 135.1 C 161.7 135.3 160.4 135.4 159.2 135.6 C 158.3 135.6 159.4 135.5 159.2 135.3 C 158.3 135.5 154.3 136.1 154.1 135.6 C 151.4 135.8 149.5 135.8 148.4 136.0 C 146.8 136.1 149.3 135.9 148.4 135.7 C 143.7 136.2 137.9 135.7 133.9 136.0 C 133.0 136.0 133.4 135.8 133.2 135.7 C 127.8 135.7 132.4 136.2 128.2 135.9 C 128.2 135.7 130.2 135.8 130.1 135.6 C 128.6 135.5 128.2 135.6 126.3 135.5 C 126.3 135.6 126.3 135.7 126.3 135.8 C 124.7 135.7 125.3 135.5 124.4 135.3 C 122.4 135.3 122.9 135.4 121.9 135.1 C 120.0 135.1 118.2 135.0 116.3 134.7 C 115.0 134.8 117.4 135.4 119.4 135.5 C 119.3 135.6 118.7 135.5 118.7 135.6 C 116.4 135.2 116.1 134.8 112.5 134.4 C 115.2 134.9 111.1 134.3 110.7 134.1 C 109.2 133.9 110.3 134.4 111.3 134.5 C 111.1 134.6 110.2 134.4 110.1 134.2 C 109.8 134.6 113.2 135.2 116.8 135.3 C 115.1 135.6 119.4 135.5 117.4 135.8 C 120.4 136.0 117.9 135.5 121.2 135.8 C 120.9 135.7 120.3 135.5 120.0 135.4 C 122.5 135.5 121.8 135.8 124.4 135.9 C 124.8 135.8 123.1 135.7 123.1 135.5 C 126.0 136.0 126.9 136.1 128.8 136.4 C 129.2 136.3 128.7 136.0 132.0 136.3 C 132.0 136.3 132.0 136.4 132.0 136.4 C 130.4 136.3 130.0 136.8 133.9 136.9 C 134.1 136.7 133.0 136.7 132.0 136.7 C 132.4 136.5 133.6 136.5 135.1 136.5 C 135.9 136.6 136.7 136.7 135.7 136.7 C 136.4 136.9 136.9 136.5 139.0 136.7 C 139.0 136.7 139.0 136.7 139.0 136.7 Z M 3.4 64.6 C 3.4 65.0 3.4 65.3 3.3 66.1 C 3.4 66.4 3.6 65.1 3.7 65.1 C 3.9 64.1 3.5 64.8 3.4 64.6 C 3.4 64.6 3.4 64.6 3.4 64.6 Z M 8.9 51.1 C 8.7 51.1 8.5 52.0 7.8 53.0 C 7.8 53.5 8.5 52.1 8.6 52.2 C 9.4 51.0 8.1 52.3 8.9 51.1 C 8.9 51.1 8.9 51.1 8.9 51.1 Z M 5.9 56.8 C 5.5 57.2 5.8 57.4 6.2 56.3 C 6.3 56.5 6.3 56.8 6.1 57.4 C 6.6 56.9 6.4 56.2 7.1 55.1 C 6.8 55.4 6.4 56.0 5.9 56.8 C 5.9 56.8 5.9 56.8 5.9 56.8 Z M 5.2 58.7 C 5.1 59.5 4.7 59.9 4.5 61.2 C 4.7 60.9 5.5 58.2 5.6 57.8 C 5.6 57.3 4.5 60.2 5.2 58.7 C 5.2 58.7 5.2 58.7 5.2 58.7 Z M 74.8 128.0 C 75.3 128.1 75.2 128.0 75.4 128.0 C 77.0 128.8 79.5 129.3 77.5 129.2 C 79.4 129.4 81.1 130.1 82.7 130.6 C 84.0 130.9 83.4 130.5 84.5 130.7 C 86.2 131.1 83.6 130.6 83.9 130.8 C 84.2 131.1 84.8 130.8 86.8 131.4 C 86.3 130.8 88.6 131.8 88.1 131.2 C 89.2 131.6 89.6 131.5 91.1 131.8 C 90.9 131.6 89.5 131.3 89.3 131.1 C 88.6 130.7 88.5 131.2 89.9 131.4 C 89.0 131.5 87.0 130.7 86.3 130.8 C 85.7 130.4 88.3 131.1 87.6 130.7 C 87.0 130.6 86.5 130.6 86.4 130.6 C 85.5 130.4 85.0 130.2 84.7 130.0 C 85.2 130.1 85.2 130.2 85.2 130.2 C 86.3 130.4 84.2 129.6 86.5 130.1 C 86.1 129.9 85.1 129.7 85.3 129.6 C 84.7 129.3 85.2 130.2 82.9 129.5 C 81.3 129.4 86.5 130.5 85.1 130.7 C 81.8 129.9 83.8 130.0 81.2 129.3 C 81.1 129.4 81.2 129.5 80.5 129.4 C 80.6 129.5 81.5 129.7 82.2 129.9 C 82.1 129.9 81.1 129.7 80.4 129.6 C 80.5 129.6 81.0 129.8 81.0 129.9 C 78.8 129.2 79.2 128.8 81.2 129.2 C 81.2 128.9 78.5 128.3 77.7 128.2 C 78.4 128.6 77.6 128.4 78.2 128.8 C 78.7 128.9 78.7 128.8 78.8 128.8 C 79.8 129.1 78.9 128.9 78.8 129.0 C 77.6 128.7 77.7 128.5 76.5 128.3 C 76.8 128.4 77.1 128.4 77.1 128.3 C 76.6 128.1 75.9 128.0 75.4 127.8 C 75.4 128.0 74.7 127.8 74.8 128.0 C 74.8 128.0 74.8 128.0 74.8 128.0 Z M 105.6 134.5 C 107.7 134.8 106.6 134.5 105.6 134.4 C 106.1 134.4 106.8 134.4 107.5 134.4 C 106.9 134.3 106.4 134.3 104.5 134.0 C 106.2 133.9 104.5 133.2 101.5 132.8 C 100.5 133.2 103.1 133.6 102.0 133.7 C 104.2 133.9 105.4 134.2 105.6 134.5 C 105.6 134.5 105.6 134.5 105.6 134.5 Z M 15.8 42.5 C 15.0 43.4 14.1 44.3 13.4 45.2 C 13.6 45.3 16.3 42.6 15.8 42.5 C 15.8 42.5 15.8 42.5 15.8 42.5 Z M 95.8 8.3 C 96.3 8.2 96.4 8.2 96.5 8.3 C 98.2 7.9 95.6 8.2 96.4 7.9 C 95.8 8.0 95.2 8.1 94.6 8.2 C 94.5 8.3 97.1 8.0 95.2 8.4 C 95.4 8.4 95.8 8.3 95.8 8.3 C 95.8 8.3 95.8 8.3 95.8 8.3 Z M 3.9 63.6 C 3.8 64.5 4.2 64.0 3.8 66.1 C 4.1 65.4 4.1 64.9 4.3 63.7 C 4.2 63.7 4.1 63.6 3.9 63.6 C 3.9 63.6 3.9 63.6 3.9 63.6 Z M 66.2 126.0 C 67.5 126.6 68.1 126.2 70.7 127.1 C 69.4 126.4 67.8 126.4 66.2 126.0 C 66.2 126.0 66.2 126.0 66.2 126.0 Z M 168.0 134.9 C 167.1 134.9 168.2 134.8 166.7 134.8 C 165.8 134.9 165.5 135.1 164.2 135.2 C 166.0 135.3 169.1 134.8 170.4 135.1 C 172.0 134.9 171.8 134.6 172.3 134.4 C 171.6 134.5 171.2 134.5 171.1 134.4 C 170.2 134.9 169.0 134.4 168.0 134.9 C 168.0 134.9 168.0 134.9 168.0 134.9 Z M 97.7 133.0 C 96.6 132.7 98.5 132.9 99.0 132.8 C 99.8 133.0 99.5 133.1 99.6 133.2 C 100.6 133.4 101.0 133.3 100.8 133.1 C 98.8 132.7 96.3 132.3 97.8 132.2 C 95.9 131.8 96.9 132.3 96.0 132.2 C 94.9 131.9 95.9 132.0 96.0 131.8 C 95.6 131.7 94.1 131.8 94.2 131.5 C 91.3 131.3 92.5 131.9 94.6 132.7 C 96.6 132.7 94.4 132.3 97.7 133.0 C 97.7 133.0 97.7 133.0 97.7 133.0 Z M 24.4 105.3 C 24.5 105.4 25.5 106.1 25.5 106.2 C 26.8 106.9 28.0 107.5 29.3 108.0 C 29.2 107.7 27.5 106.8 28.0 107.4 C 27.6 106.9 26.6 106.0 26.0 105.5 C 24.9 104.6 24.3 104.7 24.3 104.3 C 23.2 103.6 23.8 104.1 22.2 102.7 C 24.6 105.0 21.3 102.1 21.0 102.1 C 22.4 103.4 23.7 104.4 23.7 104.1 C 24.8 105.0 26.0 106.0 26.1 106.4 C 26.0 106.4 25.1 105.7 24.4 105.3 C 24.4 105.3 24.4 105.3 24.4 105.3 Z M 31.8 109.5 C 31.3 109.2 30.8 108.9 30.0 108.4 C 30.4 108.8 30.5 109.0 30.4 109.0 C 31.9 110.0 32.4 110.1 32.8 110.7 C 34.3 111.6 32.6 110.1 34.9 111.6 C 34.7 111.4 33.6 110.8 33.6 110.7 C 33.4 110.7 32.4 110.2 31.8 109.5 C 31.8 109.5 31.8 109.5 31.8 109.5 Z M 50.5 119.6 C 51.9 120.2 49.9 119.2 50.6 119.3 C 50.3 119.2 47.8 118.1 48.3 118.0 C 47.7 117.4 44.9 116.9 45.3 116.6 C 44.8 116.4 44.9 116.6 44.8 116.6 C 46.5 117.3 46.4 117.5 45.2 117.0 C 45.3 117.2 46.4 117.6 47.1 117.9 C 47.2 117.9 46.6 117.5 46.7 117.4 C 48.2 118.2 49.2 118.9 50.5 119.6 C 50.5 119.6 50.5 119.6 50.5 119.6 Z M 164.1 6.0 C 162.6 5.8 161.7 5.8 161.0 5.8 C 161.4 6.0 162.1 5.9 162.8 6.0 C 163.0 6.1 162.3 6.1 161.6 6.0 C 162.3 6.3 164.9 6.3 164.1 6.0 C 164.1 6.0 164.1 6.0 164.1 6.0 Z M 151.5 5.3 C 150.1 5.2 149.2 5.2 149.0 5.4 C 149.5 5.5 149.3 5.3 150.3 5.3 C 150.8 5.4 151.2 5.5 151.5 5.6 C 152.1 5.6 152.0 5.5 152.2 5.5 C 152.7 5.5 152.7 5.5 152.8 5.6 C 154.5 5.4 150.8 5.5 151.5 5.3 C 151.5 5.3 151.5 5.3 151.5 5.3 Z M 41.0 115.1 C 40.4 114.6 40.0 114.3 38.3 113.4 C 38.6 113.7 37.2 113.0 36.2 112.4 C 37.7 113.4 38.5 113.8 41.0 115.1 C 41.0 115.1 41.0 115.1 41.0 115.1 Z M 74.8 13.4 C 73.0 13.6 73.3 14.0 70.8 14.5 C 70.9 14.6 70.9 14.6 70.9 14.7 C 72.3 14.1 73.0 14.1 74.8 13.4 C 74.8 13.4 74.8 13.4 74.8 13.4 Z M 275.3 85.0 C 275.2 84.8 274.6 86.3 274.4 86.3 C 274.6 86.8 273.7 87.2 272.1 89.9 C 272.0 89.9 272.1 89.7 272.3 89.3 C 270.8 91.4 272.9 88.8 273.2 88.7 C 274.2 87.0 274.5 86.8 275.3 85.0 C 275.3 85.0 275.3 85.0 275.3 85.0 Z M 149.1 135.3 C 148.9 135.4 149.3 135.4 149.7 135.4 C 150.1 135.4 150.5 135.3 150.9 135.3 C 150.8 135.0 148.7 134.9 150.3 134.5 C 149.7 134.5 149.7 134.6 149.7 134.6 C 146.6 135.4 144.2 134.3 140.2 134.8 C 139.6 134.8 139.7 134.9 139.6 134.9 C 140.1 134.9 140.1 135.0 140.2 135.0 C 140.7 134.7 144.3 135.0 142.7 135.2 C 142.8 135.3 143.3 135.2 143.3 135.2 C 143.8 135.2 144.2 135.1 144.6 135.1 C 144.4 135.0 143.5 135.0 143.3 134.9 C 145.4 135.0 147.8 135.0 146.5 135.4 C 147.8 135.3 148.2 135.2 149.1 135.1 C 149.9 135.1 149.9 135.3 149.1 135.3 C 149.1 135.3 149.1 135.3 149.1 135.3 Z M 165.4 134.3 C 167.3 134.2 166.6 134.0 168.5 133.9 C 167.3 133.8 165.8 134.2 164.1 134.2 C 164.4 134.3 165.2 134.2 165.4 134.3 C 165.4 134.3 165.4 134.3 165.4 134.3 Z M 128.9 134.7 C 129.3 134.5 127.6 134.4 125.7 134.3 C 125.3 134.5 127.0 134.6 128.9 134.7 C 128.9 134.7 128.9 134.7 128.9 134.7 Z M 137.1 135.0 C 138.9 134.9 134.7 134.9 135.8 134.6 C 134.9 134.6 134.0 134.6 133.9 134.5 C 133.3 134.5 133.3 134.7 132.0 134.6 C 132.1 134.8 134.1 134.7 133.9 134.9 C 135.3 134.8 135.6 134.8 137.1 135.0 C 137.1 135.0 137.1 135.0 137.1 135.0 Z M 138.3 135.0 C 139.5 134.9 138.0 134.5 136.5 134.5 C 137.0 134.7 137.4 134.9 138.3 135.0 C 138.3 135.0 138.3 135.0 138.3 135.0 Z M 9.0 86.2 C 9.3 86.8 9.3 86.2 9.7 86.9 C 9.8 86.9 8.3 84.2 9.6 86.4 C 9.4 85.4 8.8 85.2 8.4 84.2 C 8.4 84.5 8.5 84.8 8.2 84.2 C 7.9 84.0 9.3 86.4 9.0 86.2 C 9.0 86.2 9.0 86.2 9.0 86.2 Z M 10.5 88.8 C 10.9 89.4 10.8 89.1 10.6 88.8 C 10.7 88.8 11.2 89.6 11.5 90.1 C 11.5 90.2 11.2 89.0 11.4 88.9 C 9.8 86.8 10.7 88.6 10.5 88.8 C 10.5 88.8 10.5 88.8 10.5 88.8 Z M 12.1 91.0 C 13.0 92.6 14.7 94.5 15.7 95.3 C 15.1 94.1 12.9 91.5 12.1 91.0 C 12.1 91.0 12.1 91.0 12.1 91.0 Z M 5.6 76.0 C 5.8 78.8 7.9 84.1 6.7 79.1 C 6.6 79.4 5.7 76.2 5.6 74.6 C 5.5 74.6 5.1 72.8 5.2 72.8 C 4.9 71.6 5.5 76.7 5.6 76.0 C 5.6 76.0 5.6 76.0 5.6 76.0 Z M 17.7 96.7 C 16.9 96.1 17.4 97.3 16.5 96.1 C 15.9 95.5 16.6 96.3 16.4 96.3 C 17.6 97.6 20.6 100.1 20.7 100.5 C 21.5 101.1 21.8 101.2 23.3 102.4 C 23.4 102.4 18.2 98.1 17.5 96.8 C 17.7 96.8 19.3 98.4 17.7 96.7 C 17.7 96.7 17.7 96.7 17.7 96.7 Z M 75.2 14.8 C 75.3 14.6 72.9 15.3 73.4 14.9 C 72.2 15.6 70.9 15.7 69.6 16.3 C 69.2 16.4 69.2 16.0 67.3 16.5 C 67.3 16.8 68.2 16.4 67.4 16.8 C 65.6 17.4 66.0 17.0 64.0 17.7 C 64.5 18.0 59.9 19.2 60.4 19.5 C 61.5 19.1 61.3 18.9 63.1 18.4 C 63.7 18.2 63.4 18.4 64.2 18.2 C 63.7 18.6 62.7 18.5 62.1 19.0 C 62.3 19.1 63.6 18.6 63.8 18.7 C 64.5 18.5 63.5 18.7 63.7 18.5 C 65.8 17.8 63.7 19.1 66.0 18.3 C 65.5 18.2 65.4 18.2 65.9 17.8 C 66.8 17.6 69.6 16.6 68.1 17.4 C 68.3 17.5 70.0 16.7 69.7 16.6 C 70.6 16.4 70.7 16.4 70.8 16.5 C 73.2 15.7 73.4 15.4 72.9 15.3 C 73.3 15.0 73.8 15.3 75.2 14.8 C 75.2 14.8 75.2 14.8 75.2 14.8 Z M 6.6 61.3 C 6.7 60.2 6.3 62.5 6.0 63.6 C 6.3 62.3 6.5 62.8 7.0 61.4 C 6.7 61.9 6.7 61.8 7.0 60.9 C 6.9 60.6 6.2 62.6 6.6 61.3 C 6.6 61.3 6.6 61.3 6.6 61.3 Z M 26.5 104.9 C 26.9 105.4 29.9 107.4 31.6 108.5 C 31.5 108.0 27.3 105.8 27.1 105.1 C 26.2 104.5 27.5 105.6 26.5 104.9 C 26.5 104.9 26.5 104.9 26.5 104.9 Z M 54.5 21.1 C 54.0 21.4 54.3 21.3 54.6 21.2 C 54.4 21.4 53.3 21.8 52.6 22.1 C 53.8 21.8 52.4 22.4 52.7 22.5 C 52.1 22.8 51.9 22.9 51.8 23.0 C 51.6 22.6 48.7 24.6 51.9 23.3 C 51.2 23.3 51.5 23.2 52.8 22.6 C 54.3 22.2 55.3 21.6 55.9 21.6 C 56.9 21.2 57.2 21.0 58.4 20.5 C 58.8 20.6 60.0 20.3 59.2 20.9 C 61.5 20.1 59.7 20.1 61.6 19.4 C 63.5 18.9 60.8 20.0 61.3 20.0 C 61.7 19.9 61.7 20.0 61.8 20.0 C 62.5 19.7 62.4 19.5 61.7 19.8 C 61.9 19.6 63.7 18.8 63.3 19.2 C 64.4 18.8 61.4 19.1 60.0 19.9 C 59.1 20.2 59.0 19.8 59.9 19.5 C 59.5 19.4 57.9 20.5 58.2 19.9 C 57.5 20.2 56.8 20.4 56.1 20.7 C 56.3 20.7 56.7 20.6 56.7 20.6 C 56.0 20.9 55.3 21.2 54.6 21.4 C 55.2 21.1 55.2 21.0 54.5 21.1 C 54.5 21.1 54.5 21.1 54.5 21.1 Z M 20.0 99.4 C 21.1 100.5 21.5 100.6 22.5 101.4 C 22.2 101.0 19.6 98.8 20.0 99.4 C 20.0 99.4 20.0 99.4 20.0 99.4 Z M 85.1 13.2 C 84.9 13.1 83.9 13.4 83.9 13.3 C 85.7 12.8 83.6 13.1 84.9 12.4 C 82.6 13.1 82.0 13.8 85.1 13.3 C 87.4 12.8 82.8 13.7 85.1 13.2 C 85.1 13.2 85.1 13.2 85.1 13.2 Z M 78.1 14.6 C 76.8 15.1 80.3 14.3 81.1 14.2 C 81.1 14.3 81.1 14.4 81.1 14.5 C 83.0 13.7 80.3 14.1 82.0 13.3 C 79.8 13.7 78.8 13.8 76.9 14.4 C 77.0 14.5 77.5 14.3 77.4 14.3 C 78.9 14.0 78.0 14.5 76.4 14.8 C 76.9 14.8 78.2 14.5 79.3 14.3 C 79.0 14.3 78.6 14.3 78.6 14.2 C 79.9 13.8 79.5 14.1 80.4 13.9 C 80.4 14.0 78.2 14.8 78.1 14.6 C 78.1 14.6 78.1 14.6 78.1 14.6 Z M 198.4 12.7 C 197.2 12.5 199.6 13.4 199.4 13.7 C 200.6 14.0 200.9 14.0 201.7 14.1 C 201.4 13.9 200.0 13.6 199.5 13.3 C 199.8 13.0 201.3 13.8 201.8 13.7 C 202.7 13.5 198.9 13.1 198.4 12.7 C 198.4 12.7 198.4 12.7 198.4 12.7 Z M 27.2 36.1 C 26.6 36.5 27.0 36.3 27.2 36.1 C 27.2 36.3 26.2 37.0 26.2 36.9 C 25.4 37.6 26.7 36.7 25.8 37.4 C 25.7 37.7 27.3 36.3 27.3 36.2 C 28.5 35.3 27.7 36.3 28.1 36.1 C 29.2 35.3 28.7 35.4 30.3 34.4 C 29.2 34.9 28.3 35.4 27.2 36.1 C 27.2 36.1 27.2 36.1 27.2 36.1 Z M 89.1 11.9 C 89.3 11.7 87.8 12.5 86.2 12.6 C 84.1 13.0 87.5 12.6 85.7 13.0 C 87.2 12.7 89.0 12.1 91.5 11.6 C 92.0 11.4 88.1 12.2 90.3 11.7 C 90.2 11.6 89.6 11.8 89.6 11.8 C 89.2 11.9 89.1 11.9 89.1 11.9 C 89.1 11.9 89.1 11.9 89.1 11.9 Z M 86.8 12.9 C 87.0 13.0 87.5 12.8 87.5 12.8 C 88.2 12.6 88.2 12.8 87.5 13.0 C 88.5 13.1 88.4 12.6 90.4 12.3 C 89.5 12.3 89.1 12.2 90.9 12.1 C 92.4 11.6 87.5 12.6 86.8 12.9 C 86.8 12.9 86.8 12.9 86.8 12.9 Z M 179.3 9.5 C 179.5 9.7 180.8 9.8 181.8 10.0 C 180.6 10.0 175.6 9.2 175.1 9.0 C 174.5 9.0 174.0 9.0 173.8 8.8 C 173.9 8.9 172.5 8.9 173.2 9.0 C 173.1 9.1 172.0 8.9 172.0 9.0 C 170.1 8.8 172.5 8.9 172.0 8.7 C 169.8 8.7 170.3 8.6 167.7 8.3 C 168.1 8.6 171.0 8.8 170.7 9.1 C 172.8 9.0 174.9 9.5 176.2 9.9 C 174.3 9.3 181.5 10.0 184.7 10.6 C 184.6 10.7 185.8 10.9 187.1 11.2 C 188.0 11.6 187.8 11.0 186.0 10.9 C 186.0 10.7 188.5 11.2 189.5 11.4 C 188.3 11.0 189.0 11.0 188.4 10.9 C 186.1 10.5 188.2 10.9 187.7 11.0 C 187.1 10.9 186.6 10.8 185.9 10.7 C 189.1 10.8 181.4 9.9 184.2 10.3 C 181.7 10.0 181.7 9.7 179.3 9.5 C 179.3 9.5 179.3 9.5 179.3 9.5 Z M 120.7 7.7 C 120.3 7.7 118.3 8.1 118.3 7.9 C 115.7 8.3 118.0 8.3 115.1 8.5 C 115.3 8.6 116.4 8.5 116.4 8.6 C 117.5 8.4 118.6 8.3 118.3 8.0 C 119.5 8.0 119.9 7.8 120.7 7.8 C 120.4 7.9 120.0 8.0 118.9 8.1 C 118.7 8.3 119.1 8.4 120.8 8.2 C 121.5 8.0 121.0 7.8 120.7 7.7 C 120.7 7.7 120.7 7.7 120.7 7.7 Z M 114.5 8.5 C 114.2 8.5 113.9 8.4 113.9 8.3 C 113.0 8.2 113.6 8.7 112.7 8.8 C 112.0 8.8 112.2 8.7 112.1 8.6 C 111.0 8.8 110.1 8.9 109.6 8.9 C 107.9 9.2 111.5 8.9 112.1 8.9 C 113.3 8.8 112.8 8.6 114.5 8.5 C 114.5 8.5 114.5 8.5 114.5 8.5 Z M 96.2 10.7 C 95.9 10.5 95.3 10.9 94.5 11.0 C 95.1 11.1 96.8 10.7 95.7 11.2 C 97.5 11.0 97.6 11.0 99.3 10.6 C 100.5 10.7 99.3 10.4 97.5 10.8 C 97.7 10.7 98.5 10.6 98.6 10.4 C 99.9 10.7 102.8 9.5 101.1 10.1 C 100.5 10.2 100.1 10.1 99.8 10.1 C 99.5 10.3 95.3 10.9 96.2 10.7 C 96.2 10.7 96.2 10.7 96.2 10.7 Z M 40.5 28.5 C 43.2 27.0 44.0 26.6 46.0 25.7 C 46.1 25.8 45.9 25.9 45.6 26.1 C 46.0 26.0 46.6 25.7 47.5 25.2 C 47.4 25.2 47.0 25.4 47.0 25.5 C 45.4 26.0 46.7 25.4 46.8 25.1 C 44.8 25.8 42.4 27.5 41.0 27.8 C 40.0 28.4 41.3 27.8 40.5 28.5 C 40.5 28.5 40.5 28.5 40.5 28.5 Z M 274.3 82.4 C 274.2 82.7 273.9 83.4 274.1 83.4 C 274.4 82.7 274.5 82.2 274.7 81.5 C 274.2 82.8 273.9 82.5 273.2 84.0 C 273.5 83.6 273.7 83.8 274.3 82.4 C 274.3 82.4 274.3 82.4 274.3 82.4 Z M 102.3 9.8 C 102.3 9.9 102.4 10.0 101.7 10.1 C 101.5 10.3 103.4 10.0 103.5 10.1 C 104.2 10.0 103.9 9.9 104.7 9.8 C 104.4 9.7 102.8 10.0 103.5 9.6 C 104.0 9.5 104.1 9.6 104.1 9.6 C 105.3 9.3 103.4 9.5 102.3 9.8 C 102.3 9.8 102.3 9.8 102.3 9.8 Z M 204.1 14.3 C 203.3 14.1 204.1 14.4 204.7 14.6 C 203.0 14.4 205.6 15.2 205.6 15.5 C 205.0 15.1 202.7 14.7 202.3 14.5 C 201.6 14.4 202.3 14.8 200.5 14.4 C 200.7 14.7 202.7 14.9 202.3 14.7 C 202.7 15.1 204.7 15.2 204.5 15.5 C 207.0 16.1 207.6 16.1 207.9 15.9 C 205.4 15.4 206.8 15.3 204.6 14.8 C 204.6 14.8 205.3 14.9 205.8 15.0 C 205.6 14.8 204.7 14.5 204.1 14.3 C 204.1 14.3 204.1 14.3 204.1 14.3 Z M 140.8 7.1 C 139.4 7.1 139.4 7.3 139.5 7.5 C 140.0 7.4 140.9 7.4 142.0 7.4 C 141.8 7.3 140.0 7.3 140.8 7.1 C 140.8 7.1 140.8 7.1 140.8 7.1 Z M 194.8 12.5 C 194.7 12.4 194.2 12.4 194.2 12.4 C 192.7 12.1 192.4 12.0 191.9 11.7 C 191.1 11.6 191.4 11.8 191.3 11.9 C 192.7 12.0 192.3 12.3 194.2 12.6 C 194.1 12.5 194.3 12.5 194.8 12.5 C 194.8 12.5 194.8 12.5 194.8 12.5 Z M 153.9 7.5 C 153.2 7.5 153.6 7.6 153.9 7.6 C 153.1 7.8 150.5 7.5 149.5 7.6 C 149.4 7.8 152.6 7.8 148.9 7.8 C 149.6 8.0 152.9 8.0 154.5 8.1 C 154.1 8.3 151.9 8.2 152.0 8.5 C 154.0 8.4 156.1 8.4 156.4 8.0 C 153.6 7.9 154.6 7.7 153.9 7.5 C 153.9 7.5 153.9 7.5 153.9 7.5 Z M 157.0 7.8 C 156.8 7.7 156.2 7.8 155.2 7.7 C 156.7 8.1 157.6 8.0 160.8 8.3 C 160.8 8.3 160.8 8.2 160.8 8.1 C 161.4 8.2 162.1 8.2 162.7 8.3 C 160.0 7.8 159.3 7.9 156.4 7.9 C 156.3 7.8 156.7 7.8 157.0 7.8 C 157.0 7.8 157.0 7.8 157.0 7.8 Z M 75.3 15.5 C 76.1 15.4 76.8 15.4 78.2 15.1 C 78.1 14.9 77.2 15.0 75.3 15.5 C 75.3 15.5 75.3 15.5 75.3 15.5 Z M 197.1 13.2 C 198.7 13.4 195.6 12.9 196.5 13.3 C 197.7 13.7 199.0 14.0 199.3 14.3 C 201.6 14.5 196.7 13.4 197.1 13.2 C 197.1 13.2 197.1 13.2 197.1 13.2 Z M 186.4 11.7 C 185.7 11.6 185.8 11.2 186.4 11.6 C 188.1 11.9 185.0 11.1 187.6 11.6 C 186.5 11.3 184.0 10.8 182.8 10.8 C 182.9 11.0 185.2 11.3 185.2 11.5 C 185.3 11.5 185.0 11.5 184.6 11.4 C 184.8 11.6 185.4 11.5 186.4 11.7 C 186.4 11.7 186.4 11.7 186.4 11.7 Z M 177.4 10.0 C 178.4 10.3 179.6 10.5 181.6 10.8 C 180.3 10.5 179.6 10.1 177.4 10.0 C 177.4 10.0 177.4 10.0 177.4 10.0 Z M 273.7 59.1 C 273.2 58.1 273.4 59.1 273.4 59.3 C 273.8 60.3 273.9 60.2 274.2 61.4 C 274.4 60.9 273.7 59.9 273.7 59.1 C 273.7 59.1 273.7 59.1 273.7 59.1 Z M 274.8 63.1 C 274.7 63.2 275.1 64.7 275.0 64.8 C 275.6 65.6 275.0 67.1 275.4 67.0 C 275.4 67.3 275.4 67.7 275.4 68.3 C 275.8 67.0 275.2 64.4 274.8 63.1 C 274.8 63.1 274.8 63.1 274.8 63.1 Z M 166.9 9.3 C 165.3 9.1 167.4 9.8 165.7 9.6 C 165.5 9.7 168.8 10.0 166.9 9.9 C 169.4 10.3 166.7 9.4 166.9 9.3 C 166.9 9.3 166.9 9.3 166.9 9.3 Z M 136.4 8.5 C 136.5 8.3 134.2 8.5 133.3 8.5 C 133.3 8.6 134.0 8.5 134.5 8.5 C 134.3 8.6 134.0 8.7 133.3 8.7 C 133.8 8.9 135.5 8.5 136.4 8.5 C 136.4 8.5 136.4 8.5 136.4 8.5 Z M 170.4 5.5 C 171.5 5.8 172.8 6.2 173.5 5.9 C 174.6 6.2 172.8 6.1 174.1 6.4 C 175.9 6.5 175.0 6.6 177.8 6.8 C 177.2 7.1 179.3 7.3 179.6 7.6 C 178.5 7.4 177.1 7.0 176.5 7.2 C 177.5 7.3 176.9 7.4 176.5 7.2 C 174.6 6.9 178.8 7.2 176.6 6.8 C 175.8 7.0 172.6 6.0 170.4 5.8 C 171.3 5.7 168.8 5.4 170.4 5.5 C 170.4 5.5 170.4 5.5 170.4 5.5 Z M 181.5 7.3 C 183.0 7.5 183.7 8.2 183.3 8.1 C 183.3 8.0 181.6 7.7 181.4 7.8 C 181.8 7.9 182.2 7.9 182.1 8.0 C 179.3 7.6 180.3 7.5 179.7 7.2 C 181.2 7.3 181.6 7.5 182.1 7.5 C 181.8 7.5 181.4 7.4 181.5 7.3 C 181.5 7.3 181.5 7.3 181.5 7.3 Z M 211.6 17.8 C 211.4 17.6 211.0 17.6 210.5 17.5 C 210.5 17.2 207.5 16.8 207.2 16.6 C 207.9 16.6 209.3 17.0 210.0 17.1 C 209.3 16.8 209.1 16.7 208.3 16.6 C 208.5 16.4 210.2 16.9 210.7 16.8 C 210.8 17.0 211.6 17.1 211.8 17.2 C 209.6 16.8 212.8 18.1 211.6 17.8 C 211.6 17.8 211.6 17.8 211.6 17.8 Z M 152.7 8.8 C 152.4 9.0 155.1 9.7 152.6 9.9 C 152.1 9.7 151.8 9.4 152.0 9.1 C 150.5 9.2 149.8 9.0 148.9 9.2 C 146.0 8.4 151.1 9.3 152.7 8.8 C 152.7 8.8 152.7 8.8 152.7 8.8 Z M 142.6 8.8 C 143.2 8.6 141.8 8.6 142.0 8.4 C 143.2 8.5 147.1 8.4 145.8 8.5 C 144.5 8.5 144.5 8.8 142.6 8.8 C 142.6 8.8 142.6 8.8 142.6 8.8 Z M 60.4 121.7 C 58.7 121.3 58.0 120.5 59.0 120.8 C 58.5 120.9 61.1 121.6 60.4 121.7 C 60.4 121.7 60.4 121.7 60.4 121.7 Z M 3.4 81.2 C 3.7 82.7 4.2 83.5 4.1 83.8 C 3.4 82.4 3.7 82.4 3.2 81.2 C 3.1 81.2 2.8 80.4 2.9 80.3 C 3.1 80.9 3.2 80.8 3.4 81.2 C 3.4 81.2 3.4 81.2 3.4 81.2 Z M 104.2 5.5 C 104.0 5.4 103.3 5.5 103.5 5.3 C 105.4 5.1 107.5 4.7 109.1 4.3 C 109.1 4.4 109.1 4.5 109.1 4.7 C 106.1 4.9 105.4 5.2 104.2 5.5 C 104.2 5.5 104.2 5.5 104.2 5.5 Z M 100.4 5.5 C 100.1 5.7 101.2 5.8 99.8 6.0 C 99.9 5.8 97.5 5.9 98.6 5.7 C 99.0 5.8 99.6 5.8 100.4 5.5 C 100.4 5.5 100.4 5.5 100.4 5.5 Z M 204.9 11.2 C 206.3 11.5 204.3 10.8 204.4 10.7 C 205.4 11.0 206.8 11.4 207.2 11.6 C 206.2 11.3 205.4 11.5 204.9 11.2 C 204.9 11.2 204.9 11.2 204.9 11.2 Z M 182.7 7.4 C 179.6 7.0 181.0 6.8 177.9 6.3 C 179.2 6.3 182.0 6.7 182.9 6.6 C 182.7 6.8 183.5 6.9 183.4 7.1 C 182.3 6.9 182.1 6.8 181.0 6.6 C 181.4 6.9 181.4 6.8 180.9 7.0 C 181.7 7.1 182.3 7.2 182.8 7.2 C 182.5 7.3 183.6 7.5 182.7 7.4 C 182.7 7.4 182.7 7.4 182.7 7.4 Z M 204.2 11.7 C 205.4 11.9 206.3 12.5 205.3 12.2 C 205.2 12.0 204.3 12.0 204.1 11.8 C 205.8 12.2 202.8 11.4 203.6 11.4 C 204.6 11.6 205.0 11.6 204.8 11.4 C 205.5 11.6 206.5 11.8 206.5 11.9 C 206.1 11.8 205.4 11.6 205.4 11.7 C 205.7 11.8 206.1 11.9 205.9 11.9 C 204.9 11.7 204.5 11.6 204.2 11.7 C 204.2 11.7 204.2 11.7 204.2 11.7 Z M 196.0 9.8 C 197.6 10.2 197.7 10.4 198.3 10.7 C 196.1 10.2 195.8 9.8 194.2 9.3 C 196.0 9.8 197.9 9.8 198.4 10.1 C 197.6 10.0 196.1 9.7 196.0 9.8 C 196.0 9.8 196.0 9.8 196.0 9.8 Z M 216.5 125.3 C 215.2 125.6 214.1 125.8 212.6 126.1 C 212.1 126.5 215.0 126.1 213.8 126.3 C 212.3 126.8 213.2 126.2 212.0 126.5 C 213.3 126.5 206.8 128.3 206.4 128.0 C 207.4 127.8 207.7 127.6 207.4 127.5 C 210.1 126.8 211.1 126.3 213.0 125.7 C 214.5 125.6 218.6 124.4 220.7 123.4 C 222.3 123.4 224.6 122.0 226.6 121.6 C 227.1 121.3 225.0 122.0 226.5 121.3 C 227.6 121.2 226.9 121.6 228.3 121.2 C 228.3 121.0 228.0 121.0 228.7 120.7 C 228.6 120.9 229.5 120.5 229.8 120.5 C 227.0 121.6 230.1 120.8 227.9 121.7 C 226.9 121.9 228.7 120.9 226.2 121.9 C 225.3 122.3 224.4 122.7 224.7 122.8 C 224.0 123.1 223.6 123.3 223.1 123.5 C 224.0 122.9 219.5 124.8 221.5 123.8 C 221.6 123.8 223.1 123.3 224.1 122.8 C 223.1 122.9 222.0 123.4 220.3 124.1 C 219.6 124.1 220.6 123.8 219.7 124.0 C 218.4 124.6 220.3 124.2 219.3 124.6 C 219.8 124.5 220.4 124.3 220.4 124.3 C 218.1 124.9 217.2 125.4 216.0 125.7 C 216.8 125.3 214.6 125.9 216.5 125.3 C 216.5 125.3 216.5 125.3 216.5 125.3 Z M 235.3 118.0 C 235.8 117.8 236.3 117.6 236.8 117.3 C 237.0 117.5 235.1 118.4 236.4 118.0 C 234.3 119.0 236.4 117.7 235.3 118.0 C 235.3 118.0 235.3 118.0 235.3 118.0 Z M 224.8 121.3 C 223.9 121.3 224.5 121.7 223.8 122.0 C 225.1 121.5 226.2 121.0 226.5 121.2 C 225.0 121.7 224.3 121.9 222.8 122.5 C 224.2 121.7 221.0 122.8 220.5 122.7 C 221.6 122.3 222.5 121.8 224.1 121.3 C 223.9 121.5 226.2 120.7 224.8 121.3 C 224.8 121.3 224.8 121.3 224.8 121.3 Z M 228.8 119.4 C 229.2 119.5 231.3 118.4 230.9 118.9 C 229.6 119.4 229.1 119.7 229.5 119.7 C 228.5 120.2 228.3 120.1 227.4 120.5 C 226.8 120.4 228.4 119.8 228.8 119.5 C 228.5 119.6 228.2 119.7 228.8 119.4 C 228.8 119.4 228.8 119.4 228.8 119.4 Z M 267.6 91.9 C 268.1 91.7 266.6 93.4 266.3 93.7 C 266.9 93.3 266.7 93.6 265.8 94.8 C 266.0 94.1 264.6 95.8 263.5 96.4 C 263.4 96.9 264.7 95.7 263.3 97.2 C 262.1 98.2 261.2 99.2 259.3 100.9 C 258.7 101.1 259.5 100.3 260.0 99.8 C 258.7 101.0 258.9 100.5 257.9 101.3 C 258.2 101.2 257.4 102.0 257.0 102.1 C 258.7 100.7 254.4 103.7 256.3 102.2 C 256.4 102.2 256.8 101.8 257.2 101.4 C 257.0 102.1 259.3 100.0 259.9 99.7 C 260.5 98.5 262.9 96.6 265.3 94.3 C 265.6 94.2 264.9 95.0 265.5 94.4 C 265.5 94.3 266.2 93.5 266.5 93.1 C 266.5 93.2 266.9 92.9 267.3 92.4 C 267.3 92.3 267.3 92.3 267.6 91.9 C 267.6 91.9 267.6 91.9 267.6 91.9 Z M 116.5 132.2 C 116.6 131.7 112.6 131.6 111.6 131.6 C 111.8 131.2 118.7 132.0 116.5 132.2 C 116.5 132.2 116.5 132.2 116.5 132.2 Z M 140.8 132.9 C 139.8 132.9 140.5 133.1 139.6 133.2 C 139.5 132.9 137.1 133.4 137.1 133.1 C 138.3 132.9 139.0 133.0 140.8 132.9 C 140.8 132.9 140.8 132.9 140.8 132.9 Z M 163.3 132.2 C 161.5 132.3 164.3 132.2 164.0 132.4 C 162.4 132.5 160.8 132.6 160.9 132.3 C 162.3 132.4 163.2 132.0 163.3 132.2 C 163.3 132.2 163.3 132.2 163.3 132.2 Z M 129.6 132.4 C 128.1 132.3 130.6 132.1 130.8 132.2 C 129.2 132.3 131.9 132.5 133.3 132.5 C 133.3 132.8 132.6 132.7 133.3 133.0 C 131.1 133.0 132.9 132.7 131.4 132.7 C 130.4 132.8 131.5 132.8 131.4 133.0 C 130.8 133.0 130.2 132.9 129.6 132.9 C 129.6 132.8 129.6 132.7 129.6 132.5 C 130.3 132.5 131.1 132.6 130.8 132.4 C 130.2 132.4 130.1 132.4 129.6 132.4 C 129.6 132.4 129.6 132.4 129.6 132.4 Z M 240.5 112.0 C 239.4 112.6 240.4 112.2 241.2 111.8 C 241.4 111.6 241.8 110.8 243.1 110.4 C 240.6 112.0 244.1 110.3 242.7 111.2 C 242.0 111.3 240.5 112.4 239.2 113.0 C 238.5 113.1 239.8 112.1 240.5 112.0 C 240.5 112.0 240.5 112.0 240.5 112.0 Z M 245.3 109.6 C 245.1 109.6 244.7 109.8 243.9 110.3 C 244.6 109.6 243.5 110.2 244.4 109.6 C 244.4 109.8 247.8 107.9 245.8 109.1 C 244.0 110.0 246.4 108.9 247.2 108.5 C 246.3 109.0 244.9 110.1 244.6 110.1 C 245.1 109.8 245.4 109.6 245.3 109.6 C 245.3 109.6 245.3 109.6 245.3 109.6 Z M 272.4 83.1 C 272.3 82.9 272.0 83.6 271.8 83.9 C 272.8 81.7 273.5 79.9 273.8 78.8 C 273.6 79.8 273.7 79.9 274.0 79.3 C 273.6 80.4 273.6 80.7 273.3 81.0 C 273.5 80.0 273.0 81.8 272.4 83.1 C 272.4 83.1 272.4 83.1 272.4 83.1 Z M 272.4 83.1 " fill="#000000"></path><image xlink:href="../../CEFA4209-80C9-472B-8D2B-058B96531B72/assets/53DE529C9B23CC4742AB8E7F7EB62785.png" width="153.00" height="39.00" transform="matrix(1.00, 0.00, -0.00, -1.00, 66.0, 86.0)"></image><g><clipPath id="clip-308"><path d="M 5.2 6.2 L 277.7 6.2 L 277.7 134.7 L 5.2 134.7 Z M 5.2 6.2 "></path></clipPath><g clip-path="url(#clip-308)"><text xml:space="preserve" font-family="Chalkduster" font-size="32.0" fill="#000000" transform="matrix(1.00, 0.00, -0.00, -1.00, 69.0, 56.0)">N</text><text xml:space="preserve" font-family="Chalkduster" font-size="32.0" fill="#000000" transform="matrix(1.00, 0.00, -0.00, -1.00, 91.8, 56.0)">F</text><text xml:space="preserve" font-family="Chalkduster" font-size="32.0" fill="#000000" transform="matrix(1.00, 0.00, -0.00, -1.00, 115.6, 56.0)">S</text><text xml:space="preserve" font-family="Chalkduster" font-size="32.0" fill="#000000" transform="matrix(1.00, 0.00, -0.00, -1.00, 131.5, 56.0)"> </text><text xml:space="preserve" font-family="Chalkduster" font-size="32.0" fill="#000000" transform="matrix(1.00, 0.00, -0.00, -1.00, 147.4, 56.0)">t</text><text xml:space="preserve" font-family="Chalkduster" font-size="32.0" fill="#000000" transform="matrix(1.00, 0.00, -0.00, -1.00, 161.7, 56.0)">e</text><text xml:space="preserve" font-family="Chalkduster" font-size="32.0" fill="#000000" transform="matrix(1.00, 0.00, -0.00, -1.00, 182.3, 56.0)">s</text><text xml:space="preserve" font-family="Chalkduster" font-size="32.0" fill="#000000" transform="matrix(1.00, 0.00, -0.00, -1.00, 199.4, 56.0)">t</text></g></g></g></svg>