<?xml version="1.0" encoding="UTF-8" standalone="no"?><svg xmlns="http://www.w3.org/2000/svg" xmlns:xlink="http://www.w3.org/1999/xlink" clip-rule="evenodd" stroke-miterlimit="4.00" viewBox="0 0 309 111"><desc>SVG generated by Keynote</desc><defs></defs><g transform="matrix(1.00, 0.00, -0.00, -1.00, 0.0, 111.0)"><g><clipPath id="clip-301"><path d="M 259.8 91.2 C 318.0 71.6 318.0 40.0 259.8 20.4 C 201.6 0.9 107.2 0.9 49.0 20.4 C -9.3 40.0 -9.3 71.6 49.0 91.2 C 107.2 110.7 201.6 110.7 259.8 91.2 Z M 259.8 91.2 "></path></clipPath><g clip-path="url(#clip-301)"><image xlink:href="../../CEFA4209-80C9-472B-8D2B-058B96531B72/assets/59DBD66EA15A3D40E065F836EF2595FD.jpeg" width="400.00" height="400.00" transform="matrix(1.00, 0.00, -0.00, -1.00, 5.3, 105.8)"></image></g></g><path d="M 76.2 9.3 C 75.8 9.4 75.3 9.5 74.5 9.7 C 74.8 9.7 75.1 9.7 75.1 9.8 C 75.7 9.6 76.6 9.4 78.0 9.1 C 78.0 9.1 77.3 9.2 76.8 9.3 C 76.2 9.4 76.3 9.3 76.2 9.3 C 76.2 9.3 76.2 9.3 76.2 9.3 Z M 67.7 99.9 C 66.6 99.6 67.8 100.1 68.2 100.3 C 68.3 100.2 68.3 100.2 68.8 100.3 C 68.8 100.5 67.8 100.3 67.0 100.2 C 63.9 99.4 66.3 99.6 67.7 99.9 C 67.7 99.9 67.7 99.9 67.7 99.9 Z M 235.9 100.9 C 238.4 100.4 235.6 100.7 235.2 100.7 C 236.4 100.4 235.4 100.2 236.9 99.9 C 237.2 99.9 237.7 99.9 238.0 99.9 C 237.4 100.1 236.4 100.3 236.3 100.4 C 237.2 100.2 238.4 99.9 238.6 100.0 C 236.7 100.5 238.4 100.3 238.7 100.4 C 237.0 100.7 236.5 101.1 235.9 100.9 C 235.9 100.9 235.9 100.9 235.9 100.9 Z M 276.3 24.1 C 277.2 24.5 278.0 24.9 277.7 24.9 C 276.7 24.4 276.1 24.1 275.5 23.8 C 275.4 23.8 275.6 24.1 274.7 23.7 C 273.8 23.0 274.4 23.0 275.0 23.1 C 275.0 23.3 278.3 24.8 276.3 24.1 C 276.3 24.1 276.3 24.1 276.3 24.1 Z M 206.9 6.7 C 204.6 6.3 206.8 7.0 204.4 6.6 C 204.5 6.4 204.1 6.1 205.7 6.3 C 205.8 6.4 206.8 6.6 206.9 6.7 C 206.9 6.7 206.9 6.7 206.9 6.7 Z M 165.1 107.0 C 165.1 107.1 166.9 107.0 166.5 107.3 C 165.6 107.3 164.8 107.3 163.9 107.3 C 163.7 107.2 164.0 107.0 165.1 107.0 C 165.1 107.0 165.1 107.0 165.1 107.0 Z M 251.9 94.5 C 254.4 94.1 256.7 92.9 256.1 93.4 C 257.0 93.3 254.6 94.6 254.6 94.3 C 254.3 94.1 250.0 95.1 251.9 94.5 C 251.9 94.5 251.9 94.5 251.9 94.5 Z M 81.8 98.6 C 84.5 99.3 84.1 98.5 85.9 99.2 C 85.2 99.1 84.9 99.1 84.7 99.2 C 85.1 99.2 85.8 99.4 85.8 99.4 C 84.5 99.2 82.9 99.0 81.8 98.6 C 81.8 98.6 81.8 98.6 81.8 98.6 Z M 118.2 4.0 C 118.7 3.9 118.9 3.8 118.9 3.7 C 120.9 3.6 120.8 3.4 122.1 3.5 C 122.1 3.8 120.4 3.8 118.9 3.9 C 118.8 4.0 118.3 4.0 118.2 4.0 C 118.2 4.0 118.2 4.0 118.2 4.0 Z M 175.7 3.9 C 175.6 3.7 174.4 3.6 176.3 3.6 C 178.5 4.0 176.5 4.1 174.3 4.1 C 174.3 4.2 174.3 4.3 174.3 4.5 C 175.2 4.5 175.8 4.6 176.3 4.6 C 176.7 4.3 178.1 5.0 181.4 5.0 C 179.9 5.1 181.5 5.4 179.5 5.2 C 180.0 5.4 178.6 5.3 178.8 5.6 C 179.7 5.5 181.9 5.6 181.4 5.3 C 182.6 5.4 183.4 5.5 184.0 5.6 C 184.8 5.9 181.9 5.5 182.7 5.8 C 183.3 5.8 183.5 5.9 184.0 5.9 C 184.1 5.9 183.9 5.7 184.6 5.7 C 186.7 6.0 184.2 6.0 187.2 6.3 C 187.4 6.1 186.5 6.0 186.6 5.9 C 187.9 5.8 187.8 6.0 189.1 6.0 C 189.4 6.2 188.2 6.1 189.1 6.2 C 189.9 5.9 191.8 6.7 193.6 6.5 C 192.4 5.9 193.9 6.7 195.5 6.3 C 195.9 6.5 194.7 6.7 196.1 6.9 C 195.7 6.2 201.3 6.9 196.8 6.0 C 199.2 6.2 200.1 5.8 198.2 5.5 C 202.4 6.1 201.0 5.6 202.6 5.8 C 204.2 6.0 201.8 5.8 202.6 6.1 C 200.9 5.9 201.3 6.1 200.1 5.8 C 200.1 5.9 199.8 6.0 199.4 6.0 C 201.1 6.0 203.1 6.6 201.8 6.7 C 201.0 6.6 201.8 6.4 200.7 6.3 C 201.0 6.7 199.4 6.1 199.3 6.3 C 200.1 6.7 197.6 6.7 200.0 7.0 C 200.0 6.9 200.0 6.8 200.0 6.6 C 200.6 6.7 201.2 6.8 201.8 6.8 C 202.4 7.1 201.9 7.2 202.5 7.4 C 203.5 7.5 204.0 7.5 204.4 7.4 C 203.1 7.2 201.6 6.8 203.7 7.0 C 202.9 7.4 206.7 7.5 205.0 7.6 C 207.3 8.0 208.4 7.8 208.6 8.1 C 209.8 8.3 209.1 7.9 210.5 8.1 C 212.8 8.7 212.4 8.3 215.4 8.9 C 215.8 8.6 215.7 9.0 216.7 9.2 C 216.7 9.1 216.7 8.9 216.7 8.8 C 217.8 9.2 220.2 9.7 222.7 9.8 C 223.3 10.0 222.8 10.2 224.5 10.4 C 226.2 10.4 228.2 11.1 230.4 11.2 C 230.5 11.4 231.9 11.7 232.7 11.7 C 233.0 11.9 231.9 12.0 233.2 12.2 C 234.1 12.2 232.6 11.8 234.4 12.1 C 234.2 12.3 236.1 12.3 236.1 12.5 C 235.5 12.5 234.9 12.4 234.3 12.4 C 235.1 12.6 234.9 12.7 235.5 12.8 C 235.4 12.5 236.8 13.0 237.2 13.2 C 237.2 13.0 237.4 13.0 237.8 13.0 C 238.8 13.2 239.6 13.4 240.1 13.4 C 241.3 13.9 239.3 13.5 240.6 13.8 C 241.3 13.3 242.4 14.3 245.1 14.6 C 245.6 14.9 246.7 15.3 248.3 15.8 C 248.5 15.6 246.7 15.3 246.7 15.1 C 249.1 15.8 246.3 14.8 247.8 15.2 C 251.2 16.3 253.4 16.9 256.7 18.1 C 256.7 18.0 259.4 18.7 259.3 18.7 C 259.0 18.6 259.3 18.8 259.8 19.1 C 260.4 19.3 261.9 19.9 262.9 20.3 C 263.5 20.1 266.5 20.8 266.7 20.7 C 267.3 21.1 267.1 21.0 267.3 21.5 C 270.3 22.8 272.0 23.1 273.6 24.2 C 273.5 24.0 274.9 24.5 276.0 25.0 C 275.6 25.0 274.9 24.8 274.3 24.7 C 275.7 25.3 275.9 25.5 277.1 26.1 C 278.7 26.1 280.3 27.9 281.5 27.8 C 283.3 28.8 282.9 28.8 284.5 29.8 C 284.5 29.6 284.8 29.6 285.3 29.8 C 284.2 29.3 283.3 29.0 282.8 28.4 C 285.3 29.7 278.3 25.2 282.6 27.2 C 282.7 27.4 282.2 27.3 283.1 27.8 C 285.5 29.0 284.2 28.1 283.2 27.6 C 284.9 28.3 286.4 29.3 285.3 28.4 C 288.8 30.3 286.5 29.2 287.6 30.0 C 293.5 33.5 299.6 38.4 302.8 44.4 C 303.3 44.4 304.6 47.7 304.8 48.8 C 305.7 50.4 306.1 52.3 305.8 52.9 C 306.2 53.1 305.9 55.0 306.1 55.2 C 306.1 54.4 306.2 53.9 306.3 54.7 C 306.3 57.2 305.5 60.9 305.2 62.4 C 304.6 63.2 304.0 64.8 303.6 65.9 C 303.3 66.0 303.7 65.2 303.3 65.8 C 303.4 66.1 302.2 68.4 301.7 68.9 C 302.2 68.2 302.4 67.3 301.7 68.3 C 301.8 68.4 301.0 69.5 301.3 69.3 C 300.2 70.6 299.7 71.5 298.5 72.6 C 299.4 71.6 299.7 71.0 299.7 70.7 C 299.2 71.6 298.7 72.3 297.9 72.7 C 298.4 72.8 297.0 73.9 295.7 75.3 C 295.2 75.6 294.9 75.7 293.7 76.7 C 293.2 77.4 295.7 75.4 294.4 76.6 C 294.3 76.5 292.9 77.4 293.4 77.4 C 291.7 78.6 290.8 79.4 289.1 80.3 C 291.1 79.0 289.5 79.7 289.0 80.0 C 288.5 80.3 287.9 80.7 287.9 80.8 C 288.0 80.9 288.9 80.2 289.1 80.2 C 287.7 81.0 287.5 81.6 286.8 81.7 C 287.5 81.4 287.5 81.2 286.8 81.6 C 286.8 82.1 282.2 84.4 283.7 83.3 C 283.7 83.4 285.4 82.4 285.5 82.2 C 285.0 82.4 282.5 84.0 282.9 83.5 C 284.4 82.6 284.4 82.8 286.0 81.8 C 286.1 81.5 287.1 80.9 287.6 80.4 C 285.1 82.0 284.5 82.6 284.0 82.6 C 282.8 83.3 283.7 83.1 281.6 84.2 C 278.5 85.7 280.9 84.2 280.1 84.5 C 277.4 86.1 278.4 85.9 279.7 85.5 C 277.5 86.6 276.8 87.1 273.9 88.3 C 274.0 88.1 274.3 87.9 275.3 87.4 C 275.4 87.4 277.9 86.5 277.6 86.4 C 277.2 86.2 275.3 87.0 272.1 88.3 C 273.0 88.3 273.1 88.0 269.8 89.4 C 270.5 89.5 268.2 90.0 268.2 90.2 C 268.4 90.2 269.6 89.8 270.7 89.3 C 270.6 89.5 270.3 89.7 269.2 90.2 C 268.4 90.4 268.0 90.8 265.8 91.4 C 265.6 91.3 267.1 90.7 267.3 90.4 C 266.2 90.9 266.0 91.1 264.8 91.5 C 263.8 91.7 263.7 91.4 263.7 91.0 C 265.0 90.5 267.1 89.7 265.4 90.2 C 270.3 88.3 265.3 90.6 267.1 89.9 C 269.0 88.8 268.1 89.7 271.2 88.4 C 272.1 88.0 272.4 87.8 272.7 87.6 C 272.5 87.6 270.6 88.1 272.6 87.3 C 273.1 87.2 274.2 86.9 275.7 86.2 C 275.6 86.1 272.5 87.4 275.6 86.0 C 277.1 85.4 275.9 86.3 277.9 85.3 C 277.8 85.2 278.4 84.9 278.5 84.8 C 275.7 86.2 279.0 84.4 277.0 85.2 C 279.4 83.9 277.5 85.2 279.1 84.4 C 279.1 84.2 281.8 83.2 281.7 82.9 C 280.8 83.5 278.8 84.5 279.0 84.1 C 280.8 83.3 288.1 78.7 285.5 80.8 C 286.4 80.0 290.9 76.5 290.7 76.9 C 289.4 77.9 289.5 78.0 289.4 78.3 C 291.8 76.2 293.2 75.4 295.2 73.1 C 292.7 75.3 294.3 73.3 292.6 74.5 C 292.0 75.1 290.9 75.8 290.8 76.0 C 291.3 76.0 292.3 75.0 292.7 74.5 C 292.8 74.7 293.0 74.9 293.1 75.0 C 290.0 77.3 288.2 78.8 286.4 79.8 C 287.9 78.8 283.3 81.2 285.1 80.1 C 285.9 79.8 287.7 78.7 289.1 77.8 C 289.0 77.7 289.0 77.7 288.9 77.6 C 289.5 77.2 290.4 76.6 290.4 76.5 C 288.6 77.8 287.4 78.3 286.1 79.4 C 286.1 79.3 286.1 79.3 286.0 79.2 C 285.7 79.4 285.4 79.6 285.5 79.5 C 286.1 79.1 287.0 78.5 287.1 78.4 C 285.6 79.3 285.2 79.2 283.5 80.2 C 283.7 79.7 281.3 80.8 283.7 79.2 C 284.3 79.2 285.6 78.5 285.7 78.6 C 286.4 78.3 287.8 77.3 288.3 76.7 C 287.6 77.1 286.2 77.9 286.0 77.8 C 287.0 77.0 287.8 76.3 288.6 76.1 C 286.5 77.7 289.9 75.4 290.8 75.0 C 290.5 75.1 290.0 75.4 289.7 75.5 C 291.2 74.3 292.0 73.9 291.9 73.6 C 293.5 72.0 293.3 72.6 294.4 71.5 C 293.5 72.0 295.0 70.7 294.1 71.2 C 295.8 69.4 294.8 70.9 295.4 70.3 C 295.9 69.7 295.9 69.6 296.3 69.1 C 297.1 68.4 298.3 66.8 298.7 66.8 C 299.2 66.1 299.4 66.0 299.8 65.3 C 299.8 65.1 299.8 64.8 300.0 64.5 C 300.1 64.4 300.5 64.0 300.4 63.8 C 299.1 65.5 299.5 65.0 297.9 66.8 C 297.8 67.0 297.6 67.3 298.0 66.9 C 297.1 68.3 296.6 68.6 295.6 69.8 C 295.3 69.8 294.8 69.8 293.9 71.0 C 294.0 70.6 293.6 70.8 294.0 70.3 C 294.7 69.9 295.5 69.2 296.2 68.4 C 296.2 68.3 296.0 68.3 296.4 67.9 C 296.8 67.6 297.3 67.0 297.6 66.5 C 297.6 66.6 297.6 66.8 297.5 67.0 C 298.9 65.3 298.1 65.7 299.1 64.5 C 298.8 64.6 298.3 65.4 298.6 64.6 C 299.3 63.4 299.5 63.2 299.9 62.6 C 299.8 62.5 299.7 62.5 299.9 62.2 C 300.4 61.4 299.4 64.3 300.4 62.9 C 300.3 62.7 301.0 61.2 301.2 61.0 C 301.2 61.6 300.6 62.4 300.7 62.5 C 301.9 59.7 301.3 62.6 302.1 59.7 C 302.0 59.7 301.9 59.7 301.8 59.6 C 301.6 60.8 301.3 60.8 301.1 60.6 C 300.8 61.6 300.4 61.9 300.1 62.7 C 299.9 62.2 300.5 61.9 300.9 60.9 C 300.6 60.9 300.3 61.8 300.0 61.8 C 301.1 59.7 300.9 59.1 301.5 57.0 C 301.1 57.5 301.5 55.9 301.3 56.0 C 301.3 57.8 300.6 57.0 300.5 57.3 C 300.4 58.4 300.9 58.0 300.9 58.7 C 300.6 59.0 300.5 58.8 300.2 58.6 C 300.5 57.6 300.4 57.7 300.3 56.9 C 300.6 56.3 301.1 55.7 301.2 56.6 C 301.1 56.4 301.0 55.1 301.2 55.0 C 301.2 56.3 301.3 54.8 301.4 55.6 C 301.6 54.6 301.0 52.8 300.9 51.4 C 300.7 51.6 300.6 51.1 300.5 51.2 C 301.1 52.4 300.6 52.8 300.7 54.0 C 300.7 53.4 300.5 53.8 300.5 54.0 C 300.5 52.8 300.1 52.2 300.1 51.3 C 300.0 51.3 299.9 51.4 299.8 51.4 C 299.6 49.9 299.5 50.1 298.8 49.1 C 298.8 48.6 299.4 49.0 299.7 49.1 C 299.4 48.6 298.3 46.5 298.7 47.8 C 298.1 46.6 298.5 46.8 297.7 45.5 C 297.5 45.7 298.2 46.8 297.7 46.5 C 296.9 45.5 297.6 45.9 296.8 45.1 C 296.9 45.0 297.1 44.8 296.3 43.8 C 296.7 44.6 296.1 43.8 295.8 43.6 C 296.1 44.1 296.4 44.5 296.5 44.8 C 295.2 43.0 294.8 42.6 293.3 41.3 C 294.1 41.6 293.3 40.7 294.4 41.6 C 293.4 40.8 292.3 39.5 291.7 39.1 C 292.3 39.8 293.2 40.7 293.5 41.1 C 290.5 38.3 288.4 37.1 284.8 34.4 C 285.5 34.8 286.3 35.4 286.5 35.4 C 286.1 35.1 285.4 34.7 285.4 34.6 C 286.8 35.5 287.9 36.3 288.6 36.7 C 289.5 37.5 287.9 36.4 288.9 37.2 C 289.2 37.2 291.0 38.8 290.5 38.0 C 288.6 36.9 287.0 35.4 286.3 34.5 C 284.2 33.7 286.0 34.8 283.6 33.9 C 283.7 33.8 283.3 33.4 282.6 33.0 C 283.1 33.7 280.4 32.0 280.1 31.8 C 281.3 32.2 285.2 34.4 283.4 32.9 C 284.0 34.0 278.8 30.2 279.7 31.2 C 276.9 29.8 278.1 30.0 276.3 29.5 C 276.3 29.4 276.6 29.3 275.8 28.9 C 275.0 28.6 274.7 28.5 274.3 28.4 C 278.4 30.5 277.0 30.2 279.5 31.5 C 279.1 31.3 278.7 31.1 278.8 31.2 C 278.7 31.3 278.7 31.3 278.1 31.0 C 278.1 30.6 276.0 30.0 275.5 29.5 C 276.3 29.9 277.1 30.3 276.9 30.0 C 273.5 28.4 274.4 28.4 269.2 26.1 C 270.7 26.9 268.6 26.1 266.7 25.4 C 264.1 24.3 265.3 24.3 261.9 23.2 C 261.9 23.5 261.0 23.2 259.6 22.6 C 258.1 22.1 257.4 21.8 256.2 21.6 C 256.5 21.3 253.4 20.3 252.6 20.3 C 252.6 20.2 251.4 19.9 250.6 19.6 C 250.4 19.5 251.4 19.7 250.7 19.4 C 249.9 19.3 250.5 19.7 249.5 19.4 C 248.4 19.0 248.7 18.8 247.0 18.4 C 246.9 18.6 247.8 18.8 246.9 18.7 C 245.4 18.2 244.1 17.9 245.3 18.4 C 243.0 17.9 244.2 17.7 242.1 17.2 C 242.7 17.5 242.6 17.6 241.5 17.3 C 240.7 16.9 240.7 16.8 240.5 16.7 C 239.8 16.7 240.0 16.8 238.2 16.3 C 238.2 16.4 238.2 16.5 238.1 16.6 C 237.3 16.4 236.1 16.2 235.9 16.0 C 237.4 16.4 237.1 16.1 237.7 16.2 C 236.2 15.8 233.2 14.9 235.4 15.7 C 233.3 15.3 234.4 15.2 232.6 14.9 C 233.6 15.4 232.7 15.0 230.9 14.6 C 231.0 15.0 229.7 14.4 228.6 14.3 C 228.7 14.5 228.4 14.5 227.4 14.4 C 227.5 14.2 226.8 14.1 225.7 13.9 C 225.6 14.0 228.1 14.6 225.6 14.1 C 224.5 13.8 224.6 13.5 222.7 13.2 C 222.4 12.9 224.4 13.3 224.0 13.0 C 222.5 13.0 222.0 12.7 219.8 12.3 C 220.6 12.9 215.3 12.2 217.9 12.8 C 217.1 12.7 216.0 12.8 215.5 12.5 C 216.3 12.6 214.9 12.1 215.0 12.1 C 213.9 12.0 211.4 11.5 211.3 11.6 C 213.7 11.9 213.6 12.1 214.3 12.4 C 210.9 12.0 208.0 11.6 208.2 11.3 C 208.2 11.4 207.7 11.3 207.6 11.4 C 208.8 11.5 209.5 12.0 208.2 11.9 C 208.5 11.7 207.5 11.4 206.4 11.2 C 206.3 11.5 201.8 10.6 202.7 11.0 C 204.5 11.0 205.9 11.6 204.5 11.6 C 203.4 11.2 200.9 10.8 201.5 10.7 C 200.8 10.7 200.2 10.7 199.6 10.7 C 199.0 10.9 200.4 11.0 200.1 11.2 C 199.2 11.0 197.8 10.9 197.6 10.8 C 200.1 11.0 196.4 10.5 199.0 10.6 C 197.4 10.5 197.0 10.3 195.8 10.1 C 195.8 10.2 195.3 10.2 195.2 10.2 C 196.3 10.2 197.4 10.4 197.0 10.7 C 194.8 10.5 195.2 10.2 193.3 10.1 C 192.7 10.2 190.1 10.3 188.8 10.0 C 191.3 10.2 188.6 9.9 190.1 9.9 C 192.4 10.2 193.0 10.0 193.9 9.9 C 192.9 9.7 191.0 9.4 190.8 9.7 C 192.0 9.8 192.0 9.7 192.7 9.7 C 192.6 9.8 192.2 9.9 191.4 9.9 C 190.3 9.6 188.0 9.6 189.5 9.4 C 187.9 9.4 186.1 9.1 184.4 9.1 C 186.3 9.3 187.7 9.5 188.2 9.7 C 186.6 9.7 185.1 9.3 185.0 9.5 C 185.2 9.7 187.7 9.8 188.2 10.0 C 186.2 10.1 183.2 9.2 185.6 9.9 C 184.5 9.8 183.0 9.7 182.5 9.5 C 183.8 9.6 182.4 9.2 181.8 9.1 C 180.6 9.0 179.7 9.0 179.2 9.1 C 181.1 9.1 182.4 9.5 181.2 9.5 C 180.9 9.3 180.5 9.5 179.9 9.5 C 179.8 9.3 177.7 9.3 177.4 9.2 C 177.5 9.3 178.4 9.4 178.6 9.5 C 177.4 9.5 175.6 9.8 174.8 9.4 C 175.5 9.4 176.6 9.5 176.7 9.4 C 173.4 8.9 172.3 8.5 168.3 8.2 C 168.8 8.2 169.1 8.2 169.0 8.1 C 166.4 8.0 164.8 7.8 165.1 7.7 C 163.5 7.7 162.7 7.8 161.9 7.9 C 163.5 8.1 164.1 7.9 165.1 8.1 C 164.5 8.1 166.4 8.6 167.1 8.7 C 169.8 8.6 170.0 9.0 172.8 9.0 C 172.0 9.2 174.9 9.1 174.1 9.3 C 171.5 8.8 168.9 9.0 165.1 8.8 C 165.6 8.6 166.1 8.4 164.5 8.3 C 162.0 8.1 163.2 8.5 161.2 8.4 C 160.4 8.2 161.6 8.1 160.6 8.0 C 159.9 8.1 158.0 8.1 157.3 7.9 C 160.0 7.9 156.8 7.6 158.6 7.5 C 157.7 7.5 157.2 7.5 156.6 7.5 C 159.2 7.8 154.0 7.8 156.0 8.0 C 152.4 8.1 155.8 7.4 152.8 7.5 C 154.2 7.6 152.3 7.7 150.2 7.7 C 149.6 7.5 147.4 7.4 145.6 7.4 C 146.6 7.5 147.3 7.5 145.6 7.7 C 146.5 7.8 148.0 7.8 148.9 7.6 C 148.9 7.8 149.2 7.8 149.6 7.9 C 147.4 7.9 148.3 8.1 147.6 8.1 C 147.0 8.0 145.4 8.1 145.0 8.0 C 145.0 8.0 144.4 8.1 144.4 8.1 C 147.1 8.1 143.9 8.5 145.6 8.5 C 146.8 8.5 146.1 8.2 147.6 8.2 C 149.1 8.5 146.4 8.6 145.6 8.8 C 146.9 9.0 148.4 8.6 148.9 8.9 C 147.2 9.2 144.6 9.1 142.4 9.0 C 142.6 9.4 138.8 9.1 138.5 9.5 C 138.2 9.4 137.8 9.3 137.3 9.3 C 136.7 9.6 136.0 9.3 135.3 9.3 C 135.3 9.4 135.5 9.5 136.0 9.6 C 133.3 9.6 132.7 9.6 129.6 9.9 C 129.1 9.8 128.5 9.7 128.3 9.5 C 129.0 9.4 129.7 9.3 130.2 9.2 C 125.9 9.4 128.7 10.0 125.7 9.7 C 125.8 9.9 127.9 10.0 126.4 10.2 C 123.7 10.1 119.9 10.6 120.0 9.9 C 117.6 9.9 116.1 10.5 114.9 10.3 C 114.2 10.4 114.0 10.5 113.7 10.6 C 114.4 10.6 115.3 10.7 116.2 10.7 C 117.6 10.5 118.2 10.7 116.9 10.4 C 118.9 10.2 119.5 10.3 120.6 10.4 C 117.7 10.8 115.1 10.8 115.0 11.2 C 114.0 11.1 113.3 11.0 112.5 10.9 C 112.2 11.1 109.0 11.5 108.7 11.3 C 110.9 11.1 113.1 10.6 111.1 10.6 C 105.8 11.4 102.8 11.3 98.2 12.2 C 98.1 12.1 98.4 11.9 97.6 12.0 C 97.6 12.1 97.4 12.2 97.0 12.4 C 95.5 12.5 94.7 12.6 92.8 12.9 C 92.8 12.7 92.5 12.5 91.5 12.6 C 90.9 12.9 89.1 13.7 88.0 13.8 C 89.1 13.6 87.6 13.6 86.8 13.7 C 87.5 13.9 81.5 14.4 83.2 14.4 C 80.8 14.9 79.8 14.9 79.7 14.8 C 78.9 15.0 78.3 15.2 77.5 15.5 C 76.9 15.2 72.9 16.3 72.4 16.3 C 73.7 16.1 73.9 15.7 72.8 15.9 C 72.1 16.3 68.6 17.3 67.9 17.4 C 68.1 17.3 68.3 17.0 70.1 16.5 C 67.1 17.1 67.2 17.5 66.3 18.0 C 66.4 17.6 65.1 18.2 64.7 18.4 C 63.8 18.5 64.7 18.3 64.6 18.1 C 63.6 18.3 63.2 18.3 61.9 18.6 C 62.3 18.8 60.9 19.0 60.3 19.1 C 60.2 19.4 59.5 19.7 58.3 20.0 C 59.8 19.2 51.7 21.6 53.7 21.3 C 52.2 22.0 52.0 21.5 50.1 22.2 C 49.7 22.4 48.6 22.7 49.7 22.5 C 48.9 22.8 48.0 23.1 47.6 23.1 C 47.3 23.2 46.8 23.3 45.3 23.9 C 46.7 23.7 42.1 25.0 43.0 25.1 C 41.5 25.2 39.2 26.7 36.7 27.4 C 36.7 27.5 36.1 27.8 36.0 27.9 C 35.7 28.2 38.9 26.8 36.8 27.8 C 34.3 28.7 35.6 28.1 35.2 28.1 C 28.7 31.2 22.1 34.9 17.8 38.3 C 18.4 38.0 18.4 38.1 17.6 38.8 C 16.1 39.5 12.3 43.7 11.9 44.5 C 11.4 44.7 10.2 46.9 9.8 47.2 C 10.1 46.8 10.4 45.9 9.8 46.8 C 9.8 47.5 9.2 48.1 9.0 49.0 C 8.5 49.3 7.9 52.0 7.8 50.6 C 7.7 51.1 7.6 51.4 7.4 51.7 C 7.7 51.8 7.5 52.3 7.9 51.4 C 7.0 53.7 7.3 54.2 7.1 56.0 C 7.3 56.3 7.4 54.9 7.4 56.0 C 7.4 56.0 7.3 56.0 7.3 56.0 C 7.3 56.4 7.4 56.5 7.3 56.7 C 7.2 56.6 7.2 56.0 6.9 56.0 C 7.0 56.9 6.7 57.5 7.0 57.8 C 6.9 56.5 7.4 57.3 7.3 58.1 C 7.1 57.4 7.9 60.9 8.5 61.9 C 8.5 62.6 8.0 60.7 7.9 60.9 C 8.7 63.0 8.6 62.9 9.0 63.0 C 9.5 64.1 9.6 64.6 10.6 65.9 C 11.0 66.7 10.1 65.5 10.6 66.4 C 11.1 66.8 11.3 66.9 11.9 67.7 C 13.1 69.9 18.6 73.8 21.3 76.6 C 20.1 75.6 21.8 76.6 23.6 77.8 C 23.6 77.9 23.3 77.9 24.0 78.3 C 24.0 78.1 24.6 78.4 25.8 79.1 C 25.9 79.3 25.6 79.3 26.3 79.7 C 27.0 79.7 28.5 80.9 29.5 81.3 C 29.8 81.7 27.1 80.1 26.9 80.2 C 29.9 82.1 30.7 82.2 33.4 83.6 C 31.9 82.9 34.3 84.3 34.7 84.5 C 34.2 84.0 36.5 84.9 35.0 84.0 C 36.0 84.5 37.7 85.2 37.9 85.4 C 37.3 85.1 36.3 84.7 36.3 84.8 C 37.7 85.3 39.4 86.4 40.2 86.4 C 39.2 86.0 38.6 85.7 38.7 85.5 C 39.1 85.6 39.6 85.7 40.4 86.0 C 37.9 85.7 44.7 88.0 45.1 88.0 C 45.6 88.6 46.1 88.7 45.8 88.8 C 48.7 89.9 48.9 89.6 49.9 89.9 C 49.5 90.1 49.1 90.2 50.7 90.8 C 50.4 90.4 52.4 91.1 51.9 90.5 C 56.1 91.8 57.0 92.4 59.6 93.1 C 59.7 93.0 58.8 92.8 59.6 92.9 C 60.8 93.4 61.9 93.7 62.7 94.1 C 63.4 94.1 62.5 93.8 63.3 93.9 C 65.3 94.7 64.7 94.8 66.4 95.5 C 68.7 95.8 67.8 95.8 69.2 95.8 C 68.7 95.7 67.9 95.4 68.7 95.5 C 70.0 96.1 70.5 96.5 70.8 96.6 C 69.9 96.4 69.1 96.2 68.6 96.0 C 68.3 96.1 66.9 95.8 68.0 96.2 C 66.6 95.8 65.1 95.4 63.1 94.9 C 63.7 95.3 61.3 94.5 61.9 94.9 C 64.2 95.4 64.6 95.7 66.8 96.2 C 66.4 95.8 68.6 96.5 69.0 96.7 C 69.1 96.5 70.6 96.9 70.3 96.6 C 72.0 97.0 71.9 97.1 73.6 97.5 C 73.7 97.6 73.4 97.6 74.1 97.8 C 74.8 97.7 75.2 98.1 75.8 98.2 C 75.5 97.9 78.0 98.6 78.2 98.4 C 77.5 98.3 76.5 98.1 76.4 98.0 C 79.2 98.6 77.1 97.9 76.5 97.6 C 76.6 97.7 75.5 97.8 75.4 97.6 C 77.7 97.9 72.2 96.5 74.3 97.0 C 76.0 97.5 76.0 97.2 77.7 97.7 C 79.8 98.5 77.2 98.3 79.3 99.0 C 80.6 99.1 81.5 99.3 81.7 99.1 C 82.0 99.2 82.3 99.4 82.8 99.5 C 83.4 99.5 81.1 99.0 82.8 99.2 C 83.7 99.5 82.6 99.6 84.6 99.9 C 85.4 99.8 82.3 99.2 84.0 99.4 C 85.8 100.1 83.7 99.3 85.8 99.6 C 86.0 99.7 86.3 99.8 87.0 99.9 C 87.1 100.0 86.8 100.1 87.5 100.3 C 88.0 99.9 88.3 100.6 89.9 100.8 C 90.8 100.6 88.3 100.3 88.8 100.2 C 90.6 100.8 91.7 100.6 92.4 100.7 C 90.9 100.7 94.7 101.3 94.7 101.5 C 94.4 101.2 95.2 101.4 97.3 101.5 C 97.3 101.9 99.8 101.9 100.3 102.4 C 100.6 102.3 101.2 102.3 101.5 102.2 C 100.8 102.1 100.1 102.0 100.3 101.9 C 100.9 102.0 101.5 102.0 102.2 102.1 C 103.2 102.4 100.5 102.6 104.6 103.1 C 104.2 102.7 105.9 102.8 107.1 102.9 C 107.0 102.6 105.5 102.7 105.3 102.5 C 106.7 102.5 108.1 102.8 109.0 103.1 C 111.4 103.2 114.3 103.6 117.9 103.8 C 118.6 104.1 114.9 103.8 117.2 104.1 C 118.2 104.2 117.7 103.9 119.1 104.1 C 117.8 105.0 128.7 105.0 129.4 105.4 C 129.8 105.3 132.9 105.5 132.6 105.2 C 130.5 105.3 129.1 104.9 128.1 104.7 C 126.1 104.8 129.8 105.1 128.1 105.0 C 127.9 104.9 125.2 104.9 125.5 104.6 C 128.3 104.8 124.1 104.3 126.2 104.2 C 128.7 104.4 133.8 104.4 132.6 104.7 C 132.6 104.6 131.5 104.5 131.4 104.6 C 134.3 104.9 136.0 104.7 137.2 104.6 C 138.5 104.9 143.7 104.7 142.4 104.8 C 142.8 105.0 139.3 104.6 139.8 104.9 C 145.1 105.1 145.3 104.9 148.8 105.2 C 147.7 104.9 152.6 104.8 152.1 104.9 C 152.1 105.1 153.2 105.3 155.4 105.0 C 155.1 105.3 156.2 105.4 157.3 105.4 C 157.8 105.2 156.4 105.2 156.6 105.0 C 157.7 105.0 158.9 105.0 159.9 105.0 C 160.0 105.1 159.8 105.2 160.6 105.2 C 161.8 105.1 166.1 104.7 165.8 104.9 C 163.9 105.2 168.8 105.1 165.8 105.4 C 166.6 105.3 166.7 105.4 167.8 105.4 C 167.7 105.3 167.7 105.2 167.7 105.1 C 170.1 105.0 169.0 105.4 171.0 105.4 C 171.2 105.2 172.1 105.2 172.3 105.1 C 171.5 105.1 171.4 105.2 170.3 105.2 C 171.5 104.8 168.2 105.1 168.4 104.8 C 170.6 104.7 170.7 104.9 171.6 105.0 C 174.4 104.7 173.1 104.9 176.1 104.8 C 176.1 104.7 175.3 104.7 175.5 104.6 C 179.2 104.5 178.8 105.0 181.3 104.7 C 180.7 104.7 178.5 105.1 180.1 105.0 C 181.8 104.8 182.2 104.5 184.5 104.3 C 184.6 104.4 184.4 104.5 185.2 104.5 C 186.1 104.4 186.2 104.1 187.0 104.0 C 187.2 104.1 188.5 103.9 189.0 103.8 C 189.8 104.0 188.7 104.1 189.7 104.1 C 191.5 103.9 192.5 103.3 194.0 103.2 C 194.0 103.6 195.7 103.3 197.2 103.1 C 197.5 103.4 200.8 103.0 202.9 102.8 C 202.4 102.6 204.6 102.4 204.1 102.3 C 203.0 102.4 202.5 102.4 202.2 102.3 C 204.7 102.0 205.4 102.4 207.2 101.8 C 208.1 101.9 209.3 101.8 210.9 101.7 C 211.1 101.5 208.0 101.8 209.7 101.5 C 209.8 101.6 210.3 101.5 210.9 101.4 C 210.7 101.7 212.0 101.6 212.8 101.6 C 214.2 101.2 217.2 101.1 215.8 101.0 C 218.0 100.6 216.6 101.3 218.3 101.0 C 217.4 100.8 220.3 100.3 218.8 100.4 C 221.1 99.9 221.0 100.4 220.0 100.7 C 222.2 100.4 222.6 100.1 223.6 100.0 C 222.6 100.0 225.8 99.3 224.2 99.7 C 223.7 100.0 226.1 99.5 226.6 99.5 C 225.8 99.5 226.9 99.3 225.4 99.4 C 226.9 99.1 229.2 98.6 230.6 98.6 C 232.5 98.0 234.3 97.6 233.5 98.1 C 235.3 97.6 234.6 97.8 236.4 97.4 C 236.4 97.4 235.9 97.4 235.7 97.4 C 238.2 96.9 237.7 97.2 240.9 96.4 C 240.6 96.8 242.5 96.3 243.2 96.3 C 241.9 96.6 240.8 96.8 239.8 97.0 C 239.6 97.2 240.7 97.0 239.8 97.2 C 239.7 97.2 239.2 97.2 238.7 97.3 C 240.8 97.1 236.2 98.3 237.6 97.7 C 237.6 97.8 237.7 97.8 238.2 97.7 C 237.7 97.5 237.8 97.6 238.1 97.3 C 237.1 97.6 236.2 97.5 235.8 97.8 C 235.9 97.9 236.9 97.6 237.0 97.7 C 234.5 98.4 236.2 97.6 234.1 98.1 C 233.8 98.4 234.8 98.3 235.4 98.3 C 233.5 98.7 231.8 99.1 231.3 99.0 C 229.6 99.4 231.5 99.2 230.2 99.5 C 229.6 99.6 229.6 99.4 228.4 99.6 C 227.1 99.9 229.2 99.6 227.9 99.9 C 226.4 100.0 228.8 99.4 226.6 99.7 C 227.2 100.0 224.7 100.1 224.9 100.2 C 226.1 100.0 226.2 100.3 225.5 100.2 C 222.6 100.4 220.7 101.6 217.7 101.5 C 217.7 101.6 217.3 101.7 217.2 101.8 C 219.4 101.6 222.6 101.1 223.2 101.3 C 224.9 101.0 224.7 100.8 224.9 100.6 C 227.0 100.6 226.8 100.6 225.7 101.2 C 222.3 101.9 220.8 101.9 218.5 102.2 C 217.3 102.6 218.6 102.3 219.1 102.3 C 212.0 103.2 217.5 103.1 214.9 103.4 C 215.0 103.3 214.4 103.3 213.7 103.3 C 213.7 103.4 212.6 103.6 212.5 103.7 C 212.9 103.6 213.2 103.6 213.1 103.8 C 211.3 104.1 212.0 103.7 211.8 103.6 C 213.2 103.4 214.1 103.3 214.3 103.1 C 212.5 103.5 211.1 103.4 210.0 103.9 C 208.2 103.7 210.8 103.0 209.8 102.9 C 210.1 102.7 208.8 103.7 207.5 103.9 C 205.2 104.2 205.2 104.5 203.1 104.7 C 202.5 104.5 205.2 104.4 205.0 104.2 C 204.4 104.2 204.2 104.2 203.7 104.2 C 202.2 104.4 202.4 104.6 201.2 104.8 C 200.6 104.7 200.2 104.9 199.4 105.0 C 197.9 105.1 200.1 104.8 198.7 104.9 C 197.1 105.0 196.0 105.4 195.5 105.4 C 195.4 105.3 195.6 105.2 194.9 105.2 C 193.1 105.6 192.7 105.6 194.9 105.6 C 192.9 105.7 192.1 105.9 192.4 106.1 C 195.4 105.9 196.1 105.8 197.5 106.0 C 198.1 105.6 198.9 105.7 200.1 105.7 C 199.3 105.3 201.3 105.5 201.9 105.2 C 201.2 105.3 200.5 105.3 200.0 105.3 C 203.2 105.0 203.1 105.0 205.6 104.3 C 205.6 104.4 205.9 104.5 206.2 104.5 C 205.5 104.7 203.2 104.9 203.2 105.1 C 205.0 105.2 205.5 104.7 207.6 104.7 C 208.4 104.4 205.9 104.6 207.5 104.4 C 208.3 104.5 209.4 104.5 210.7 104.4 C 212.0 104.2 212.6 104.0 213.7 103.7 C 213.8 103.8 214.0 103.9 215.0 103.7 C 214.9 103.6 213.9 103.7 214.9 103.5 C 218.2 103.3 220.4 103.2 223.5 102.5 C 222.4 102.6 219.8 102.8 221.0 102.6 C 222.5 102.5 224.3 101.9 225.8 101.8 C 226.3 101.8 224.1 102.1 224.7 102.4 C 226.0 102.1 226.9 102.0 227.6 101.9 C 227.6 101.8 229.2 101.5 228.8 101.4 C 227.6 101.6 227.3 101.9 227.0 101.9 C 227.9 101.0 231.4 101.3 233.5 100.8 C 234.9 100.4 232.4 100.8 234.0 100.4 C 235.0 100.1 235.7 100.5 234.1 101.0 C 233.0 101.1 232.6 101.5 232.3 101.2 C 231.9 101.4 231.2 101.5 231.2 101.5 C 232.0 101.4 231.9 101.6 232.4 101.6 C 231.3 101.7 231.2 102.3 230.1 102.2 C 230.8 102.0 231.0 101.9 231.3 101.8 C 228.2 102.5 227.1 102.5 225.3 102.7 C 226.3 102.7 225.3 102.8 225.4 103.0 C 226.7 102.7 229.4 102.3 227.8 102.7 C 226.7 102.6 225.9 103.5 224.8 103.4 C 225.6 103.2 225.5 103.1 226.0 103.0 C 224.7 103.2 224.8 103.0 223.5 103.1 C 219.7 104.2 216.6 104.0 210.2 105.4 C 207.9 105.7 212.2 105.1 212.0 104.9 C 211.3 105.0 211.2 104.9 210.7 105.0 C 210.7 105.3 209.6 105.1 208.9 105.5 C 209.0 105.2 206.0 105.8 204.5 105.8 C 204.4 105.9 204.6 106.0 203.9 106.1 C 199.3 106.3 190.8 107.5 187.3 107.5 C 187.4 107.7 185.9 107.8 185.4 108.0 C 183.2 108.1 184.2 107.8 180.9 108.2 C 179.3 108.4 181.2 108.1 181.5 108.0 C 176.6 108.4 172.2 108.3 169.1 108.7 C 167.5 108.9 169.1 108.5 165.9 108.6 C 165.8 108.9 160.7 108.5 160.0 108.9 C 158.0 109.0 154.4 108.5 156.0 108.9 C 153.3 108.9 155.1 108.6 154.0 108.6 C 152.2 108.6 154.6 109.2 152.7 109.2 C 152.9 108.9 151.3 109.0 150.1 108.8 C 151.6 108.8 152.6 108.8 152.8 108.6 C 151.5 108.8 151.5 108.6 149.5 108.6 C 147.9 108.7 143.5 108.9 142.3 108.5 C 142.2 108.6 142.6 108.7 142.9 108.7 C 141.6 108.7 140.1 108.4 140.3 108.7 C 137.3 108.7 136.1 108.3 134.4 108.5 C 133.1 108.6 134.9 108.3 131.1 108.1 C 131.0 108.3 124.5 107.9 122.7 107.6 C 122.6 107.9 122.3 107.6 121.5 107.5 C 121.3 107.6 121.5 107.7 120.8 107.7 C 120.6 107.6 120.1 107.6 119.5 107.6 C 120.0 107.2 117.1 107.5 116.9 107.2 C 117.5 107.2 117.5 107.0 117.0 107.0 C 116.8 107.2 114.1 106.6 114.4 106.8 C 115.0 107.0 116.8 107.1 116.3 107.2 C 113.7 107.1 114.8 106.9 113.1 106.7 C 113.2 106.8 114.2 107.0 113.1 106.9 C 111.3 106.7 113.0 106.9 111.9 106.6 C 110.9 106.5 109.2 106.5 108.6 106.5 C 108.8 106.5 108.3 106.3 108.0 106.3 C 104.8 105.8 97.4 105.2 94.4 104.4 C 94.1 104.4 93.5 104.4 93.7 104.6 C 91.8 104.2 92.0 104.3 90.1 103.9 C 90.1 104.0 90.0 104.1 90.0 104.2 C 87.6 103.9 89.8 103.8 88.2 103.6 C 88.0 104.1 87.3 103.3 85.9 103.0 C 85.7 103.1 85.0 103.0 85.2 103.2 C 82.9 102.8 83.1 102.5 81.1 102.2 C 81.5 102.4 81.8 103.2 81.5 103.4 C 81.2 103.2 80.6 103.0 79.7 102.8 C 80.8 102.7 80.4 101.7 77.6 101.5 C 79.1 101.7 79.7 101.9 79.3 102.1 C 77.2 101.7 76.5 101.3 74.7 101.0 C 74.3 101.1 75.6 101.4 75.1 101.6 C 74.6 101.5 74.4 101.5 74.5 101.7 C 72.6 101.2 72.6 101.0 70.5 100.7 C 70.5 100.6 71.0 100.6 71.7 100.9 C 71.6 100.7 71.6 100.5 72.9 100.7 C 73.0 100.9 72.2 101.0 74.0 101.3 C 74.0 101.2 74.0 101.0 74.1 100.9 C 72.8 100.6 69.8 99.8 69.5 99.8 C 70.1 100.1 71.1 100.3 70.5 100.5 C 68.4 99.9 67.9 99.5 66.1 98.9 C 63.1 98.3 57.9 96.8 58.4 97.3 C 56.6 96.7 57.3 96.9 55.7 96.4 C 56.1 96.8 54.0 96.0 54.1 96.2 C 56.0 96.7 55.4 96.6 57.3 97.1 C 57.2 97.2 56.8 97.3 56.1 97.1 C 56.0 96.9 55.3 96.7 54.0 96.3 C 54.2 96.4 55.3 97.0 53.9 96.6 C 53.9 96.5 53.6 96.4 52.9 96.2 C 53.0 96.1 53.0 96.0 53.1 95.9 C 53.8 96.0 54.7 96.2 55.2 96.3 C 54.7 96.1 54.6 96.0 54.2 95.9 C 53.8 95.9 51.7 95.1 51.5 95.2 C 52.4 95.5 52.9 95.8 52.0 95.5 C 51.8 95.4 50.5 94.9 49.9 94.9 C 51.7 95.6 51.0 95.4 51.9 95.9 C 50.8 95.6 50.4 95.4 49.9 95.2 C 49.7 95.1 49.5 95.0 49.1 94.9 C 48.8 94.7 48.8 94.7 47.8 94.4 C 47.7 94.2 47.9 94.0 48.5 94.2 C 47.8 93.7 45.4 92.9 43.4 92.2 C 41.4 91.5 39.5 90.8 38.6 90.4 C 39.8 91.0 41.4 91.2 39.5 90.4 C 39.4 90.5 38.0 89.9 37.8 89.9 C 37.0 90.1 38.5 91.0 39.9 91.8 C 38.3 91.2 38.0 91.2 36.6 90.6 C 36.2 90.2 37.8 90.5 36.0 89.7 C 35.5 89.9 32.8 88.4 32.1 88.3 C 33.3 88.9 34.0 89.3 32.8 88.8 C 33.1 88.8 30.6 87.7 30.6 87.6 C 32.6 88.4 33.2 88.4 34.5 89.0 C 32.9 88.3 35.7 89.3 33.1 88.1 C 31.9 87.7 31.1 87.7 28.6 86.4 C 27.6 85.8 28.6 86.1 27.4 85.4 C 27.6 85.8 24.9 84.4 26.6 85.1 C 25.7 84.6 25.2 84.3 24.7 84.0 C 25.9 84.9 19.9 81.7 20.7 82.4 C 20.8 82.1 20.7 81.6 20.5 81.4 C 19.2 80.9 18.1 80.0 15.5 78.0 C 15.5 78.3 15.1 77.7 14.1 76.9 C 13.8 76.9 14.6 77.7 13.9 77.1 C 12.8 76.1 12.8 76.0 12.7 75.7 C 11.9 75.0 11.4 74.5 11.0 74.1 C 10.9 74.1 11.1 74.4 11.3 74.6 C 8.6 71.7 7.3 70.4 5.7 67.9 C 6.3 69.0 6.8 69.0 6.2 68.2 C 5.8 67.7 5.5 67.3 5.3 67.0 C 5.4 67.7 5.3 67.4 4.7 66.2 C 4.0 65.1 4.6 66.8 4.1 65.9 C 3.7 64.9 4.1 65.4 4.0 64.8 C 3.8 64.4 3.5 63.9 3.4 63.5 C 3.6 64.4 3.1 63.5 2.8 62.7 C 3.2 63.2 3.1 62.8 2.6 61.2 C 2.6 61.0 2.9 61.8 2.8 61.1 C 2.7 60.8 2.1 59.6 2.2 58.4 C 2.2 58.7 2.3 58.9 2.4 58.8 C 2.0 57.6 2.3 56.6 2.4 55.5 C 2.2 56.6 2.0 56.0 1.9 56.5 C 2.0 55.4 1.8 54.0 2.2 53.2 C 2.0 54.8 2.7 53.3 2.9 52.3 C 2.7 52.1 2.5 53.8 2.2 53.2 C 2.1 52.6 2.7 51.5 2.6 50.9 C 2.4 50.9 2.5 51.6 2.3 51.8 C 2.5 50.9 2.1 52.0 2.3 51.3 C 2.6 50.9 2.4 50.3 2.5 49.8 C 2.8 49.3 3.6 48.2 3.6 47.6 C 3.5 47.6 3.2 48.4 3.1 48.5 C 3.9 45.9 4.6 45.3 5.8 43.0 C 6.0 42.8 6.4 42.5 6.9 41.9 C 6.7 41.8 6.9 41.4 7.3 40.9 C 8.1 40.0 9.0 39.2 10.1 38.2 C 10.0 38.5 9.6 39.1 11.1 37.6 C 11.1 37.4 10.5 38.0 11.0 37.5 C 11.0 37.5 11.4 37.2 11.4 37.0 C 11.4 37.0 11.4 37.0 11.3 36.9 C 10.9 37.4 10.5 37.8 10.1 38.2 C 10.0 38.0 9.8 38.1 9.5 38.3 C 11.1 36.4 11.4 36.9 12.5 35.6 C 13.0 35.7 13.4 35.4 12.5 36.5 C 13.6 35.5 14.4 34.7 14.6 34.3 C 13.1 35.5 13.4 34.9 12.9 35.1 C 13.8 34.4 13.8 34.3 14.2 33.8 C 15.4 33.1 13.3 35.1 15.5 33.4 C 13.7 34.5 16.7 32.2 18.0 31.4 C 17.7 31.4 17.3 31.7 17.9 31.2 C 21.1 28.8 21.3 29.7 23.3 28.0 C 23.2 28.3 24.2 27.7 24.7 27.5 C 22.8 28.6 22.4 28.9 21.7 29.4 C 21.9 29.5 22.4 29.2 23.0 28.9 C 22.9 28.7 23.3 28.4 24.2 28.1 C 24.7 27.6 24.3 27.4 25.7 26.4 C 25.9 26.4 25.8 26.6 26.6 26.2 C 27.2 25.6 26.1 26.9 29.4 25.1 C 28.8 25.3 28.4 25.4 28.6 25.1 C 30.2 24.1 29.9 24.4 32.1 23.3 C 33.2 23.2 30.8 24.4 30.2 25.0 C 31.7 24.2 32.9 23.3 34.6 22.8 C 33.3 23.2 34.5 22.4 36.0 21.7 C 37.4 21.2 36.0 22.1 37.8 21.4 C 39.1 20.8 39.7 20.3 38.4 20.7 C 41.4 19.6 40.6 19.6 43.3 18.7 C 43.5 18.8 42.7 19.1 41.7 19.4 C 41.9 19.4 41.6 19.6 42.6 19.3 C 43.4 18.9 44.8 18.3 46.3 17.7 C 47.8 17.1 48.7 16.8 49.3 16.5 C 51.7 16.2 54.2 14.9 56.7 14.3 C 55.8 14.9 59.9 13.5 61.1 13.5 C 61.8 13.2 64.0 12.1 63.2 12.5 C 63.5 12.8 64.9 12.3 66.1 12.1 C 66.1 12.0 66.0 12.0 66.0 11.9 C 68.5 11.2 69.1 11.3 70.0 11.3 C 73.1 10.5 76.6 10.1 80.5 9.1 C 81.5 9.2 82.3 9.0 84.7 8.7 C 84.6 8.5 86.5 8.2 88.2 7.9 C 87.8 7.7 89.4 7.5 89.4 7.4 C 87.8 7.6 88.4 7.2 87.5 7.3 C 89.7 7.2 90.7 6.5 92.4 6.5 C 90.3 6.9 89.7 7.4 89.5 7.8 C 92.0 7.3 93.3 7.2 93.8 7.3 C 94.0 7.1 93.6 7.0 93.1 7.0 C 93.9 6.9 94.8 6.8 95.5 6.7 C 95.8 6.8 94.7 7.0 95.6 6.9 C 96.2 6.8 96.8 6.6 97.4 6.4 C 98.2 6.6 96.5 6.7 96.2 6.9 C 99.6 6.5 98.1 6.3 99.9 5.9 C 100.4 6.0 100.3 6.3 101.8 6.2 C 102.4 5.9 102.5 5.7 104.3 5.5 C 105.4 5.4 104.2 5.8 105.5 5.7 C 105.7 5.6 106.3 5.6 106.8 5.6 C 106.7 5.4 107.3 5.3 108.0 5.2 C 108.2 5.3 109.4 5.1 109.9 5.0 C 110.1 5.1 112.1 5.2 112.5 5.0 C 112.5 4.9 111.4 5.0 111.2 4.9 C 112.7 4.8 113.7 4.7 114.4 4.6 C 114.9 5.1 117.2 4.4 120.2 4.5 C 122.0 4.1 119.8 4.1 122.1 3.8 C 123.5 3.8 121.8 4.0 122.1 4.2 C 122.5 4.2 124.6 4.3 124.7 4.1 C 124.7 3.9 123.6 4.1 123.4 4.0 C 125.1 3.6 125.1 3.9 126.0 4.0 C 125.9 3.8 127.0 3.7 127.3 3.5 C 131.9 3.1 131.9 3.5 133.8 3.6 C 133.8 3.5 135.0 3.5 135.1 3.4 C 133.7 3.6 132.0 3.4 133.8 3.3 C 133.5 3.4 136.2 3.2 136.4 3.1 C 136.1 3.0 134.4 3.1 135.1 2.8 C 137.5 2.7 136.5 3.2 138.4 2.9 C 138.6 3.0 137.5 3.1 137.0 3.2 C 137.8 3.1 138.9 3.1 139.0 3.2 C 138.1 3.3 138.1 3.5 137.7 3.6 C 139.0 3.4 141.3 3.5 139.7 3.2 C 142.3 3.2 144.8 3.0 143.0 2.8 C 145.1 2.7 143.9 3.1 145.6 2.8 C 145.3 3.1 144.8 3.3 146.2 3.5 C 146.5 3.3 147.6 3.2 147.5 3.0 C 150.7 3.0 151.5 3.3 152.8 3.5 C 151.7 3.1 153.2 3.4 154.7 3.1 C 155.7 3.2 154.8 3.6 157.4 3.5 C 154.6 3.1 160.6 3.4 159.4 3.0 C 162.6 3.2 162.6 3.2 165.9 3.4 C 165.6 3.5 164.8 3.6 163.3 3.6 C 164.3 3.4 160.4 3.4 160.7 3.5 C 160.7 3.6 160.7 3.6 160.7 3.7 C 163.2 3.7 164.8 3.8 165.9 3.9 C 166.4 3.8 167.6 3.7 167.2 3.4 C 169.6 3.8 172.1 3.5 173.1 3.8 C 172.3 3.8 171.5 3.7 171.8 3.9 C 172.7 3.8 173.9 3.9 173.8 3.6 C 171.9 3.5 171.5 3.4 170.5 3.6 C 171.4 3.4 168.6 3.2 170.5 3.2 C 170.5 3.6 174.4 3.2 173.1 3.4 C 171.0 3.4 175.5 3.7 175.7 3.9 C 175.7 3.9 175.7 3.9 175.7 3.9 Z M 224.1 103.0 C 225.9 102.6 223.6 102.8 222.3 103.0 C 222.7 103.0 222.9 103.1 222.9 103.3 C 223.5 103.1 224.0 103.0 224.1 103.0 C 224.1 103.0 224.1 103.0 224.1 103.0 Z M 204.1 102.4 C 203.5 102.8 206.6 102.2 207.8 102.1 C 207.5 102.1 207.0 102.1 207.8 102.0 C 206.5 101.9 206.0 102.4 204.1 102.4 C 204.1 102.4 204.1 102.4 204.1 102.4 Z M 132.6 105.6 C 133.1 105.6 134.4 105.6 134.5 105.7 C 135.2 105.7 135.0 105.6 135.2 105.5 C 136.7 105.5 134.8 105.8 137.1 105.8 C 138.0 105.4 133.1 105.1 132.6 105.6 C 132.6 105.6 132.6 105.6 132.6 105.6 Z M 150.8 7.0 C 151.8 7.1 149.5 7.3 150.2 7.5 C 153.8 7.3 151.0 7.0 156.0 7.1 C 155.7 7.1 155.3 7.0 155.4 6.9 C 153.0 7.0 152.8 7.2 153.4 6.7 C 152.3 6.7 152.1 7.3 150.8 7.0 C 150.8 7.0 150.8 7.0 150.8 7.0 Z M 197.1 10.1 C 196.7 10.0 196.4 9.9 196.4 9.8 C 195.0 9.8 195.3 9.8 193.3 9.6 C 193.5 10.0 195.4 10.1 197.1 10.1 C 197.1 10.1 197.1 10.1 197.1 10.1 Z M 299.6 50.3 C 299.7 50.5 299.8 50.8 299.9 51.0 C 300.0 50.8 300.5 51.3 300.0 50.2 C 299.9 50.1 300.0 50.3 300.1 50.5 C 299.9 50.4 299.7 49.8 299.6 50.0 C 299.7 50.2 299.7 50.3 299.6 50.3 C 299.6 50.3 299.6 50.3 299.6 50.3 Z M 284.7 79.5 C 286.8 77.9 281.0 80.8 284.7 79.5 C 284.7 79.5 284.7 79.5 284.7 79.5 C 284.7 79.5 284.7 79.5 284.7 79.5 Z M 290.7 78.9 C 290.8 78.9 291.2 78.6 291.2 78.5 C 293.0 77.3 291.4 78.7 292.4 78.1 C 293.6 76.9 291.5 78.2 293.1 76.8 C 292.6 77.0 291.7 78.2 290.7 78.9 C 290.7 78.9 290.7 78.9 290.7 78.9 Z M 20.9 29.6 C 19.4 30.7 19.1 31.2 19.0 31.6 C 20.0 30.9 20.9 30.4 21.3 30.2 C 23.3 28.8 19.9 31.0 19.5 31.1 C 19.6 30.8 21.0 29.8 20.9 29.6 C 20.9 29.6 20.9 29.6 20.9 29.6 Z M 16.0 33.1 C 15.5 33.6 14.7 34.4 14.8 34.6 C 15.6 33.9 15.8 33.9 15.9 33.9 C 16.6 33.2 15.5 33.8 16.0 33.1 C 16.0 33.1 16.0 33.1 16.0 33.1 Z M 26.1 27.0 C 25.2 27.5 25.6 27.4 25.6 27.6 C 26.8 26.9 27.0 26.9 28.3 26.3 C 28.2 26.2 28.2 26.1 28.2 26.1 C 27.1 26.6 27.1 26.7 26.2 27.2 C 26.1 27.1 26.1 27.1 26.1 27.0 C 26.1 27.0 26.1 27.0 26.1 27.0 Z M 12.1 36.9 C 9.8 38.9 9.3 40.2 8.5 41.8 C 9.7 40.2 10.6 38.5 11.8 37.5 C 13.2 36.2 11.3 37.8 11.3 37.7 C 11.3 37.6 11.7 37.2 12.1 36.9 C 12.1 36.9 12.1 36.9 12.1 36.9 Z M 2.5 56.9 C 2.4 57.4 2.8 58.3 3.0 59.7 C 3.0 59.4 3.1 59.2 3.2 59.1 C 2.9 57.2 2.6 58.4 2.5 56.9 C 2.5 56.9 2.5 56.9 2.5 56.9 Z M 6.5 68.0 C 7.3 69.1 6.3 67.3 6.8 67.8 C 6.0 66.6 5.3 65.2 5.1 65.4 C 5.9 66.7 6.1 66.9 6.5 68.0 C 6.5 68.0 6.5 68.0 6.5 68.0 Z M 13.0 75.4 C 14.4 76.4 12.7 74.7 13.4 75.0 C 12.9 74.5 12.9 74.7 12.8 74.8 C 12.5 74.4 12.1 74.0 11.6 73.5 C 11.9 74.0 13.4 75.3 13.0 75.4 C 13.0 75.4 13.0 75.4 13.0 75.4 Z M 67.9 12.5 C 66.9 12.8 67.3 13.0 65.2 13.4 C 68.3 12.6 66.7 13.7 70.9 12.7 C 70.2 12.7 70.6 12.5 70.9 12.6 C 72.5 12.1 69.4 12.8 70.8 12.2 C 69.6 12.5 70.4 12.6 69.2 12.9 C 68.0 12.9 67.2 13.0 67.9 12.5 C 67.9 12.5 67.9 12.5 67.9 12.5 Z M 71.0 12.9 C 72.1 12.7 72.0 12.3 72.6 12.4 C 73.2 12.3 73.1 12.2 73.2 12.1 C 72.7 12.2 72.7 12.2 72.6 12.1 C 71.6 12.4 70.6 12.7 71.0 12.9 C 71.0 12.9 71.0 12.9 71.0 12.9 Z M 60.5 15.5 C 62.3 14.9 62.8 14.9 63.7 14.5 C 64.4 14.7 64.9 14.0 65.9 14.1 C 67.8 13.6 66.4 13.8 65.9 13.8 C 67.6 13.3 66.3 13.9 68.1 13.4 C 68.4 13.1 66.1 13.7 66.3 13.3 C 65.0 13.7 65.0 13.9 64.2 14.1 C 63.5 14.3 63.7 14.1 63.6 14.0 C 62.0 14.5 62.1 14.3 60.8 14.7 C 60.6 15.0 61.1 14.9 62.6 14.5 C 61.1 15.0 60.5 15.3 58.8 15.6 C 59.9 15.1 54.6 16.5 55.1 16.8 C 56.5 16.4 56.1 16.3 56.6 16.1 C 58.5 15.8 59.7 15.4 60.5 15.5 C 60.5 15.5 60.5 15.5 60.5 15.5 Z M 27.1 27.3 C 26.5 27.6 26.0 27.8 25.1 28.3 C 25.0 28.2 26.1 27.6 25.0 28.0 C 23.6 28.8 23.4 29.0 22.6 29.6 C 23.1 29.4 26.0 28.0 24.6 28.9 C 25.1 28.8 26.0 28.3 27.2 27.6 C 25.7 28.1 29.2 26.6 30.7 25.9 C 30.4 25.6 33.2 24.8 34.2 24.0 C 33.3 24.2 30.4 25.8 29.2 26.4 C 29.8 26.1 25.6 27.7 27.1 27.3 C 27.1 27.3 27.1 27.3 27.1 27.3 Z M 75.5 11.8 C 75.8 11.6 77.1 11.3 76.1 11.5 C 76.6 11.3 77.7 11.2 77.1 10.9 C 77.8 10.8 78.3 10.7 78.9 10.6 C 78.7 10.8 77.1 11.0 77.8 11.1 C 78.9 10.8 78.5 11.0 80.1 10.7 C 79.3 11.1 80.2 10.9 79.6 11.3 C 80.1 11.1 81.5 10.9 81.4 10.7 C 83.6 10.3 80.8 11.1 83.8 10.6 C 83.8 10.8 81.6 11.2 80.9 11.2 C 80.5 11.5 84.5 10.6 86.8 10.3 C 84.8 10.4 86.3 9.9 87.2 9.6 C 88.0 9.5 87.3 9.7 88.5 9.7 C 89.5 9.5 90.0 9.3 90.3 9.4 C 91.2 9.2 90.8 9.1 90.9 9.0 C 92.3 8.8 91.3 9.3 93.4 8.9 C 91.8 8.8 93.5 8.5 96.4 8.2 C 96.2 8.1 95.3 8.2 95.1 8.1 C 95.5 7.9 97.2 8.0 97.6 8.0 C 98.6 7.8 98.0 7.8 97.0 7.9 C 97.6 7.7 98.2 7.6 98.8 7.4 C 95.7 7.8 90.9 8.5 85.4 9.2 C 86.5 9.2 85.2 9.4 83.6 9.6 C 83.3 9.5 84.0 9.4 84.8 9.3 C 82.8 9.3 83.0 9.9 80.1 10.3 C 78.5 10.5 81.8 9.8 80.0 10.0 C 79.0 10.3 78.3 10.6 77.7 10.4 C 75.8 10.9 75.4 11.3 72.5 11.9 C 74.2 11.7 75.0 12.1 76.7 11.6 C 76.7 11.5 75.9 11.7 75.5 11.8 C 75.5 11.8 75.5 11.8 75.5 11.8 Z M 16.0 34.0 C 15.1 34.7 14.8 35.2 14.5 35.2 C 13.2 36.4 14.9 35.3 15.2 35.1 C 15.8 34.5 16.0 34.2 16.0 34.0 C 16.0 34.0 16.0 34.0 16.0 34.0 Z M 140.9 108.0 C 143.4 108.2 142.9 107.9 144.9 107.9 C 143.3 107.8 142.9 107.6 140.3 107.5 C 140.2 107.7 140.2 107.9 140.9 108.0 C 140.9 108.0 140.9 108.0 140.9 108.0 Z M 21.4 30.4 C 22.7 29.3 19.9 31.8 19.8 31.6 C 18.3 32.8 21.3 30.7 20.0 31.9 C 21.3 30.9 22.2 30.5 24.0 29.3 C 23.9 29.2 22.4 30.1 21.0 31.0 C 20.8 31.0 21.5 30.5 21.4 30.4 C 21.4 30.4 21.4 30.4 21.4 30.4 Z M 115.7 105.9 C 114.0 105.9 117.3 106.5 118.2 106.7 C 118.3 106.4 117.8 106.4 115.7 105.9 C 115.7 105.9 115.7 105.9 115.7 105.9 Z M 158.0 107.8 C 158.9 107.5 155.1 107.8 156.0 107.5 C 154.9 107.5 154.7 107.6 154.7 107.7 C 154.1 107.6 152.2 107.6 152.8 107.4 C 152.4 107.2 155.7 107.5 154.7 107.2 C 155.8 107.2 155.8 107.3 156.6 107.3 C 154.7 107.3 155.6 107.5 158.0 107.6 C 158.0 107.4 156.9 107.4 158.0 107.3 C 158.1 107.4 159.3 107.5 159.3 107.9 C 161.3 107.8 160.1 107.4 162.5 107.4 C 162.3 107.3 160.8 107.3 159.9 107.2 C 160.2 107.0 162.5 107.4 161.9 107.0 C 162.4 107.2 163.8 107.3 163.9 107.6 C 162.0 107.7 160.8 107.9 159.3 108.0 C 160.7 108.2 162.7 107.6 165.1 107.8 C 164.9 107.6 166.4 107.6 165.8 107.4 C 167.7 107.4 166.9 107.7 166.5 107.7 C 167.0 107.9 170.7 107.7 170.4 107.5 C 170.7 107.7 175.1 107.4 174.9 107.1 C 176.3 107.3 178.3 106.8 178.9 107.1 C 179.6 106.9 181.1 106.9 182.8 106.8 C 183.2 106.5 180.4 106.8 180.2 106.6 C 179.6 106.4 183.2 106.5 182.7 106.3 C 182.7 106.2 182.7 106.2 182.7 106.1 C 181.4 106.3 180.1 106.4 178.8 106.6 C 177.9 106.6 179.1 106.5 178.8 106.4 C 177.9 106.5 173.8 107.1 173.6 106.6 C 170.9 106.9 168.9 106.8 167.7 107.1 C 166.1 107.1 168.7 106.9 167.7 106.7 C 162.8 107.2 156.8 106.9 152.8 107.3 C 151.9 107.2 152.2 107.1 152.1 106.9 C 146.4 107.1 151.2 107.5 146.8 107.3 C 146.8 107.1 148.9 107.1 148.8 106.9 C 147.3 106.9 146.9 107.0 144.9 106.9 C 144.8 107.0 144.8 107.1 144.8 107.2 C 143.2 107.2 143.8 106.9 142.9 106.8 C 140.8 106.8 141.3 107.0 140.3 106.6 C 138.4 106.7 136.5 106.7 134.4 106.5 C 133.1 106.6 135.6 107.1 137.7 107.2 C 137.6 107.3 137.0 107.2 137.0 107.3 C 134.6 107.0 134.2 106.6 130.6 106.3 C 133.3 106.7 129.1 106.4 128.6 106.1 C 127.1 106.1 128.2 106.5 129.2 106.5 C 129.0 106.6 128.1 106.4 128.0 106.3 C 127.8 106.7 131.3 107.1 135.0 107.1 C 133.3 107.4 137.7 107.2 135.7 107.6 C 138.8 107.6 136.2 107.3 139.6 107.4 C 139.3 107.3 138.7 107.2 138.4 107.1 C 141.0 107.1 140.2 107.4 142.9 107.4 C 143.4 107.2 141.6 107.2 141.6 107.1 C 144.6 107.4 145.5 107.5 147.5 107.8 C 147.9 107.6 147.4 107.4 150.8 107.6 C 150.8 107.6 150.8 107.7 150.8 107.7 C 149.2 107.7 148.8 108.1 152.8 108.1 C 153.0 108.0 151.8 108.0 150.8 108.0 C 151.2 107.8 152.5 107.8 154.0 107.7 C 154.8 107.8 155.7 107.9 154.7 107.9 C 155.3 108.1 155.9 107.7 158.0 107.8 C 158.0 107.8 158.0 107.8 158.0 107.8 Z M 3.1 54.7 C 3.1 55.0 3.1 55.4 3.1 56.0 C 3.3 56.3 3.3 55.1 3.4 55.1 C 3.5 54.2 3.2 54.9 3.1 54.7 C 3.1 54.7 3.1 54.7 3.1 54.7 Z M 7.9 42.7 C 7.6 42.6 7.4 43.4 6.7 44.3 C 6.7 44.7 7.4 43.6 7.6 43.6 C 8.4 42.6 7.0 43.7 7.9 42.7 C 7.9 42.7 7.9 42.7 7.9 42.7 Z M 4.9 47.7 C 4.5 48.1 4.8 48.2 5.2 47.3 C 5.3 47.4 5.3 47.7 5.1 48.3 C 5.6 47.8 5.4 47.2 6.0 46.1 C 5.7 46.4 5.3 47.0 4.9 47.7 C 4.9 47.7 4.9 47.7 4.9 47.7 Z M 4.3 49.4 C 4.2 50.1 3.9 50.5 3.7 51.6 C 4.0 51.4 4.6 49.0 4.7 48.6 C 4.6 48.1 3.7 50.7 4.3 49.4 C 4.3 49.4 4.3 49.4 4.3 49.4 Z M 90.9 102.5 C 91.5 102.6 91.4 102.5 91.5 102.5 C 93.3 103.1 96.0 103.4 93.8 103.5 C 95.8 103.5 97.7 104.1 99.3 104.4 C 100.8 104.6 100.1 104.3 101.2 104.4 C 103.1 104.7 100.3 104.4 100.6 104.6 C 100.9 104.8 101.5 104.5 103.7 104.9 C 103.2 104.4 105.6 105.1 105.0 104.6 C 106.2 104.9 106.6 104.8 108.2 105.0 C 108.0 104.8 106.5 104.6 106.3 104.5 C 105.5 104.1 105.4 104.6 106.9 104.7 C 106.0 104.8 103.9 104.2 103.2 104.3 C 102.4 104.0 105.2 104.5 104.4 104.2 C 103.9 104.1 103.3 104.1 103.2 104.2 C 102.3 104.0 101.7 103.9 101.3 103.7 C 101.9 103.8 101.9 103.8 101.9 103.9 C 103.1 104.0 100.8 103.3 103.2 103.6 C 102.8 103.5 101.8 103.4 102.0 103.2 C 101.3 103.0 101.9 103.9 99.5 103.3 C 97.8 103.3 103.3 104.0 101.9 104.3 C 98.4 103.8 100.4 103.7 97.6 103.3 C 97.6 103.4 97.7 103.5 97.0 103.4 C 97.1 103.6 98.1 103.7 98.8 103.8 C 98.7 103.8 97.7 103.7 96.9 103.6 C 97.0 103.7 97.6 103.8 97.6 103.8 C 95.2 103.4 95.6 103.0 97.7 103.1 C 97.6 102.9 94.8 102.5 94.0 102.5 C 94.7 102.8 93.9 102.7 94.5 103.0 C 95.1 103.1 95.0 103.0 95.2 102.9 C 96.3 103.2 95.2 103.1 95.2 103.2 C 93.9 103.0 94.0 102.8 92.7 102.7 C 93.0 102.7 93.3 102.7 93.4 102.6 C 92.8 102.5 92.1 102.4 91.5 102.3 C 91.6 102.5 90.8 102.4 90.9 102.5 C 90.9 102.5 90.9 102.5 90.9 102.5 Z M 123.4 106.8 C 125.5 107.0 124.4 106.7 123.4 106.7 C 123.9 106.6 124.6 106.6 125.4 106.6 C 124.8 106.5 124.2 106.5 122.2 106.3 C 124.0 106.1 122.2 105.6 119.0 105.4 C 118.0 105.8 120.7 106.0 119.6 106.2 C 121.9 106.2 123.2 106.5 123.4 106.8 C 123.4 106.8 123.4 106.8 123.4 106.8 Z M 15.3 35.1 C 14.3 35.9 13.4 36.7 12.6 37.5 C 12.9 37.5 15.7 35.3 15.3 35.1 C 15.3 35.1 15.3 35.1 15.3 35.1 Z M 101.3 7.4 C 101.8 7.3 101.9 7.4 102.0 7.4 C 103.8 7.1 101.1 7.3 101.9 7.0 C 101.2 7.1 100.6 7.2 100.0 7.3 C 99.9 7.4 102.6 7.2 100.7 7.5 C 100.8 7.6 101.3 7.5 101.3 7.4 C 101.3 7.4 101.3 7.4 101.3 7.4 Z M 3.5 53.8 C 3.5 54.6 3.7 54.1 3.7 56.0 C 3.8 55.3 3.8 54.9 3.9 53.8 C 3.7 53.8 3.6 53.8 3.5 53.8 C 3.5 53.8 3.5 53.8 3.5 53.8 Z M 81.8 101.4 C 83.3 101.9 83.8 101.4 86.6 102.1 C 85.2 101.5 83.5 101.6 81.8 101.4 C 81.8 101.4 81.8 101.4 81.8 101.4 Z M 187.9 106.0 C 186.9 106.0 188.1 105.9 186.6 105.9 C 185.7 106.0 185.3 106.2 184.0 106.3 C 185.8 106.4 189.1 105.9 190.4 106.2 C 192.0 106.0 191.8 105.8 192.3 105.6 C 191.6 105.6 191.2 105.6 191.1 105.6 C 190.1 106.0 189.0 105.5 187.9 106.0 C 187.9 106.0 187.9 106.0 187.9 106.0 Z M 115.1 105.8 C 114.0 105.5 116.0 105.6 116.4 105.5 C 117.3 105.6 116.9 105.7 117.1 105.9 C 118.2 105.9 118.5 105.8 118.3 105.6 C 116.2 105.4 113.6 105.1 115.2 105.0 C 113.2 104.7 114.2 105.1 113.3 105.1 C 112.2 104.8 113.2 104.9 113.3 104.6 C 112.8 104.6 111.2 104.8 111.4 104.4 C 108.3 104.5 109.6 105.0 111.9 105.6 C 114.0 105.6 111.6 105.2 115.1 105.8 C 115.1 105.8 115.1 105.8 115.1 105.8 Z M 38.2 88.7 C 38.4 88.9 39.9 89.5 39.8 89.6 C 41.6 90.0 43.3 90.4 45.1 90.8 C 44.8 90.4 42.4 89.8 43.3 90.3 C 42.7 89.9 41.1 89.2 40.2 88.7 C 38.5 88.0 37.8 88.2 37.8 87.8 C 36.2 87.3 37.0 87.7 34.7 86.5 C 38.3 88.4 33.3 86.1 33.0 86.2 C 35.1 87.2 37.1 88.0 36.9 87.7 C 38.5 88.5 40.4 89.3 40.7 89.6 C 40.5 89.7 39.2 89.1 38.2 88.7 C 38.2 88.7 38.2 88.7 38.2 88.7 Z M 48.6 91.8 C 47.9 91.6 47.2 91.4 46.0 91.0 C 46.7 91.3 46.9 91.5 46.8 91.6 C 49.0 92.4 49.2 92.3 49.6 92.6 C 50.7 93.1 49.4 92.2 51.2 92.9 C 51.0 92.8 50.1 92.5 50.2 92.4 C 50.0 92.5 49.7 92.5 48.6 91.8 C 48.6 91.8 48.6 91.8 48.6 91.8 Z M 64.8 97.1 C 66.3 97.4 64.1 96.7 64.9 96.7 C 64.5 96.7 61.8 95.9 62.3 95.8 C 61.6 95.3 58.7 95.2 59.0 94.9 C 58.4 94.7 58.6 94.9 58.5 94.9 C 60.3 95.4 60.3 95.6 58.9 95.2 C 59.1 95.4 60.3 95.7 61.1 95.9 C 61.2 95.8 60.5 95.6 60.6 95.5 C 62.2 96.0 63.4 96.5 64.8 97.1 C 64.8 97.1 64.8 97.1 64.8 97.1 Z M 171.7 5.0 C 170.2 4.9 169.2 4.9 168.4 4.9 C 168.9 5.1 169.6 5.0 170.4 5.0 C 170.6 5.2 169.9 5.1 169.1 5.1 C 169.8 5.4 172.6 5.3 171.7 5.0 C 171.7 5.0 171.7 5.0 171.7 5.0 Z M 158.6 4.7 C 157.2 4.6 156.2 4.7 156.0 4.8 C 156.6 5.0 156.4 4.7 157.4 4.7 C 157.9 4.8 158.3 4.9 158.6 5.0 C 159.3 5.0 159.1 4.9 159.3 4.8 C 159.8 4.8 159.9 4.9 160.0 4.9 C 161.8 4.7 157.9 4.9 158.6 4.7 C 158.6 4.7 158.6 4.7 158.6 4.7 Z M 55.8 94.4 C 55.3 94.2 55.0 93.9 53.8 93.6 C 54.0 93.8 53.0 93.5 52.2 93.2 C 53.3 93.8 53.9 93.9 55.8 94.4 C 55.8 94.4 55.8 94.4 55.8 94.4 Z M 79.7 11.5 C 77.9 11.6 78.1 12.0 75.6 12.3 C 75.6 12.4 75.6 12.5 75.7 12.6 C 77.1 12.0 77.8 12.1 79.7 11.5 C 79.7 11.5 79.7 11.5 79.7 11.5 Z M 302.2 64.7 C 302.1 64.5 301.5 65.8 301.4 65.8 C 301.6 66.2 300.8 66.5 299.1 68.8 C 299.0 68.8 299.1 68.6 299.3 68.3 C 297.8 70.1 299.9 68.0 300.2 67.8 C 301.2 66.3 301.5 66.2 302.2 64.7 C 302.2 64.7 302.2 64.7 302.2 64.7 Z M 168.4 106.3 C 168.3 106.4 168.7 106.4 169.1 106.4 C 169.5 106.4 169.9 106.4 170.3 106.3 C 170.2 106.0 168.0 106.0 169.7 105.6 C 169.1 105.6 169.0 105.6 169.0 105.7 C 165.9 106.5 163.4 105.4 159.2 105.9 C 158.6 105.9 158.7 106.0 158.6 106.0 C 159.1 106.0 159.2 106.1 159.3 106.1 C 159.8 105.8 163.5 106.1 161.9 106.2 C 162.0 106.3 162.5 106.3 162.5 106.2 C 162.9 106.2 163.4 106.2 163.8 106.2 C 163.6 106.1 162.7 106.1 162.5 106.0 C 164.6 106.1 167.1 106.1 165.8 106.4 C 167.1 106.3 167.5 106.2 168.4 106.1 C 169.2 106.1 169.2 106.3 168.4 106.3 C 168.4 106.3 168.4 106.3 168.4 106.3 Z M 185.2 105.4 C 187.2 105.3 186.4 105.1 188.4 105.0 C 187.2 104.9 185.6 105.3 183.9 105.2 C 184.2 105.3 185.1 105.3 185.2 105.4 C 185.2 105.4 185.2 105.4 185.2 105.4 Z M 147.5 106.1 C 147.9 105.8 146.1 105.8 144.2 105.7 C 143.9 106.0 145.6 106.1 147.5 106.1 C 147.5 106.1 147.5 106.1 147.5 106.1 Z M 156.0 106.1 C 157.9 106.0 153.6 106.1 154.7 105.8 C 153.8 105.8 152.8 105.8 152.8 105.7 C 152.1 105.8 152.1 105.9 150.8 105.9 C 150.9 106.0 153.0 106.0 152.8 106.1 C 154.2 106.0 154.5 106.0 156.0 106.1 C 156.0 106.1 156.0 106.1 156.0 106.1 Z M 157.3 106.1 C 158.6 106.1 157.0 105.7 155.4 105.7 C 155.9 105.8 156.3 106.0 157.3 106.1 C 157.3 106.1 157.3 106.1 157.3 106.1 Z M 13.8 72.9 C 14.4 73.4 14.1 72.8 14.8 73.4 C 14.9 73.3 12.4 71.1 14.5 72.9 C 13.9 72.0 13.2 72.0 12.5 71.1 C 12.7 71.4 12.8 71.7 12.4 71.2 C 12.0 71.1 14.2 73.0 13.8 72.9 C 13.8 72.9 13.8 72.9 13.8 72.9 Z M 16.4 75.1 C 16.9 75.5 16.7 75.2 16.4 75.0 C 16.6 75.0 17.3 75.6 17.9 76.1 C 17.9 76.2 17.1 75.0 17.3 74.9 C 14.8 73.2 16.4 74.8 16.4 75.1 C 16.4 75.1 16.4 75.1 16.4 75.1 Z M 18.8 76.8 C 20.4 78.2 23.0 79.8 24.4 80.3 C 23.2 79.2 19.8 77.1 18.8 76.8 C 18.8 76.8 18.8 76.8 18.8 76.8 Z M 7.4 64.2 C 8.3 66.7 11.9 71.0 9.3 66.8 C 9.2 67.0 7.4 64.4 7.0 63.0 C 6.9 63.0 6.1 61.6 6.2 61.5 C 5.7 60.5 7.5 64.9 7.4 64.2 C 7.4 64.2 7.4 64.2 7.4 64.2 Z M 27.0 81.3 C 25.9 80.8 27.1 82.0 25.6 80.9 C 24.7 80.5 25.8 81.2 25.5 81.1 C 27.4 82.2 31.8 84.2 32.1 84.6 C 33.2 85.0 33.6 85.1 35.8 86.0 C 35.9 86.0 28.2 82.7 27.0 81.4 C 27.1 81.4 29.6 82.7 27.0 81.3 C 27.0 81.3 27.0 81.3 27.0 81.3 Z M 79.9 12.9 C 80.1 12.7 77.7 13.3 78.1 13.0 C 76.9 13.5 75.6 13.6 74.2 14.1 C 73.8 14.1 73.9 13.7 71.9 14.1 C 71.9 14.3 72.8 14.1 71.9 14.4 C 70.1 14.9 70.6 14.5 68.5 15.0 C 68.9 15.4 64.2 16.2 64.8 16.5 C 65.8 16.2 65.7 16.0 67.5 15.6 C 68.1 15.5 67.9 15.7 68.6 15.5 C 68.1 15.9 67.1 15.7 66.4 16.1 C 66.6 16.2 68.0 15.9 68.2 16.0 C 69.0 15.8 67.9 16.0 68.1 15.8 C 70.3 15.2 68.1 16.4 70.5 15.7 C 69.9 15.6 69.9 15.6 70.3 15.3 C 71.3 15.2 74.2 14.4 72.6 15.0 C 72.8 15.1 74.6 14.5 74.3 14.4 C 75.2 14.2 75.4 14.2 75.4 14.3 C 77.9 13.7 78.2 13.4 77.6 13.3 C 78.1 13.0 78.5 13.3 79.9 12.9 C 79.9 12.9 79.9 12.9 79.9 12.9 Z M 5.9 51.7 C 5.9 50.7 5.7 52.7 5.5 53.6 C 5.7 52.5 5.9 52.9 6.2 51.8 C 6.0 52.2 6.0 52.1 6.2 51.3 C 6.1 51.1 5.6 52.8 5.9 51.7 C 5.9 51.7 5.9 51.7 5.9 51.7 Z M 40.4 88.0 C 41.2 88.5 45.6 90.0 48.0 90.9 C 47.7 90.4 41.9 88.8 41.3 88.2 C 40.0 87.7 41.9 88.6 40.4 88.0 C 40.4 88.0 40.4 88.0 40.4 88.0 Z M 58.7 17.6 C 58.2 17.8 58.5 17.7 58.7 17.7 C 58.6 17.8 57.5 18.1 56.7 18.3 C 57.9 18.2 56.5 18.6 56.8 18.8 C 56.2 19.0 55.9 19.1 55.8 19.2 C 55.6 18.8 52.6 20.4 55.9 19.5 C 55.2 19.4 55.5 19.4 56.8 18.9 C 58.4 18.6 59.5 18.1 60.1 18.2 C 61.0 17.9 61.4 17.7 62.7 17.3 C 63.0 17.4 64.3 17.2 63.4 17.8 C 65.7 17.2 64.0 17.0 66.0 16.5 C 67.9 16.2 65.1 17.0 65.5 17.1 C 66.0 17.0 65.9 17.1 66.1 17.1 C 66.8 16.9 66.7 16.7 66.1 16.9 C 66.2 16.7 68.1 16.1 67.7 16.5 C 68.8 16.1 65.8 16.2 64.3 16.8 C 63.4 17.1 63.3 16.6 64.2 16.4 C 63.8 16.3 62.2 17.3 62.5 16.7 C 61.8 16.9 61.1 17.1 60.4 17.3 C 60.5 17.3 60.9 17.2 60.9 17.3 C 60.3 17.5 59.5 17.7 58.8 17.9 C 59.4 17.6 59.4 17.5 58.7 17.6 C 58.7 17.6 58.7 17.6 58.7 17.6 Z M 30.8 83.6 C 32.5 84.5 33.0 84.6 34.4 85.2 C 33.9 84.8 30.1 83.0 30.8 83.6 C 30.8 83.6 30.8 83.6 30.8 83.6 Z M 90.1 11.8 C 90.0 11.8 88.9 12.0 88.9 11.9 C 90.7 11.5 88.6 11.7 90.0 11.1 C 87.6 11.6 86.9 12.3 90.2 12.0 C 92.5 11.6 87.8 12.3 90.1 11.8 C 90.1 11.8 90.1 11.8 90.1 11.8 Z M 83.0 12.9 C 81.5 13.3 85.2 12.8 86.0 12.7 C 86.0 12.8 86.0 12.9 86.0 12.9 C 88.0 12.2 85.3 12.6 87.0 11.8 C 84.7 12.1 83.7 12.2 81.7 12.7 C 81.9 12.7 82.3 12.6 82.3 12.6 C 83.8 12.3 82.8 12.8 81.2 13.0 C 81.7 13.0 83.1 12.8 84.1 12.6 C 83.8 12.6 83.5 12.6 83.5 12.5 C 84.8 12.2 84.4 12.5 85.3 12.3 C 85.3 12.5 83.0 13.1 83.0 12.9 C 83.0 12.9 83.0 12.9 83.0 12.9 Z M 207.8 9.7 C 206.6 9.6 209.1 10.2 208.9 10.6 C 210.2 10.8 210.6 10.8 211.4 10.8 C 211.0 10.6 209.6 10.4 209.0 10.2 C 209.3 9.9 210.9 10.5 211.5 10.4 C 212.3 10.1 208.3 10.1 207.8 9.7 C 207.8 9.7 207.8 9.7 207.8 9.7 Z M 27.7 30.0 C 27.0 30.4 27.4 30.3 27.7 30.1 C 27.7 30.2 26.6 30.8 26.5 30.8 C 25.6 31.3 27.1 30.6 26.0 31.2 C 25.9 31.5 27.7 30.2 27.8 30.2 C 29.2 29.4 28.2 30.2 28.7 30.1 C 29.9 29.5 29.3 29.5 31.2 28.6 C 30.0 29.1 29.0 29.4 27.7 30.0 C 27.7 30.0 27.7 30.0 27.7 30.0 Z M 94.2 10.7 C 94.5 10.6 92.9 11.3 91.3 11.3 C 89.2 11.7 92.6 11.4 90.7 11.7 C 92.3 11.5 94.2 11.0 96.7 10.6 C 97.3 10.4 93.3 11.1 95.5 10.6 C 95.4 10.6 94.8 10.7 94.8 10.7 C 94.4 10.8 94.3 10.8 94.2 10.7 C 94.2 10.7 94.2 10.7 94.2 10.7 Z M 91.9 11.6 C 92.0 11.7 92.6 11.6 92.6 11.5 C 93.3 11.4 93.4 11.7 92.6 11.8 C 93.6 11.9 93.5 11.4 95.6 11.3 C 94.7 11.2 94.2 11.1 96.2 11.0 C 97.7 10.6 92.6 11.4 91.9 11.6 C 91.9 11.6 91.9 11.6 91.9 11.6 Z M 187.7 7.8 C 187.9 8.0 189.3 8.0 190.3 8.1 C 189.0 8.2 183.9 7.7 183.2 7.5 C 182.7 7.5 182.1 7.5 181.9 7.4 C 182.0 7.5 180.5 7.5 181.3 7.6 C 181.2 7.7 180.0 7.6 180.0 7.7 C 178.1 7.5 180.6 7.6 180.0 7.4 C 177.7 7.5 178.2 7.3 175.5 7.2 C 175.9 7.4 179.0 7.5 178.7 7.8 C 180.8 7.6 183.1 8.0 184.4 8.3 C 182.5 7.8 190.0 8.2 193.4 8.5 C 193.3 8.7 194.5 8.8 195.9 9.0 C 196.9 9.4 196.6 8.8 194.7 8.7 C 194.8 8.6 197.3 9.0 198.4 9.0 C 197.2 8.8 197.9 8.7 197.2 8.6 C 194.8 8.3 197.0 8.6 196.5 8.8 C 195.9 8.7 195.3 8.6 194.6 8.6 C 198.0 8.5 189.8 8.1 192.8 8.3 C 190.2 8.1 190.2 7.9 187.7 7.8 C 187.7 7.8 187.7 7.8 187.7 7.8 Z M 126.9 7.3 C 126.4 7.4 124.4 7.7 124.3 7.5 C 121.7 7.9 124.0 7.9 121.1 8.1 C 121.3 8.2 122.4 8.1 122.4 8.2 C 123.5 8.0 124.6 7.9 124.3 7.7 C 125.6 7.6 126.0 7.5 126.9 7.4 C 126.6 7.5 126.1 7.6 124.9 7.7 C 124.8 7.9 125.2 8.0 126.9 7.9 C 127.6 7.6 127.1 7.5 126.9 7.3 C 126.9 7.3 126.9 7.3 126.9 7.3 Z M 120.5 8.1 C 120.1 8.1 119.8 8.0 119.8 7.9 C 118.9 7.7 119.5 8.3 118.5 8.3 C 117.8 8.4 118.0 8.2 117.9 8.2 C 116.8 8.3 115.9 8.4 115.4 8.4 C 113.7 8.7 117.4 8.4 117.9 8.5 C 119.2 8.4 118.7 8.2 120.5 8.1 C 120.5 8.1 120.5 8.1 120.5 8.1 Z M 101.6 9.8 C 101.3 9.6 100.6 10.0 99.8 10.1 C 100.4 10.3 102.2 9.9 101.0 10.4 C 102.9 10.2 103.0 10.2 104.8 9.9 C 106.0 10.0 104.8 9.7 102.9 10.0 C 103.1 9.9 104.0 9.8 104.1 9.7 C 105.3 10.0 108.4 8.9 106.6 9.4 C 106.0 9.4 105.6 9.4 105.3 9.3 C 104.9 9.6 100.7 10.0 101.6 9.8 C 101.6 9.8 101.6 9.8 101.6 9.8 Z M 43.3 23.5 C 44.9 22.9 45.8 22.6 46.6 22.3 C 47.5 22.0 48.8 21.5 49.8 21.2 C 49.9 21.3 49.7 21.4 49.3 21.6 C 49.8 21.5 50.4 21.2 51.3 20.9 C 51.2 20.8 50.8 21.0 50.8 21.1 C 49.1 21.4 50.5 21.0 50.7 20.7 C 48.7 21.1 45.5 22.7 44.0 22.9 C 42.8 23.5 44.2 23.0 43.3 23.5 C 43.3 23.5 43.3 23.5 43.3 23.5 Z M 301.1 62.3 C 301.1 62.5 300.8 63.2 301.0 63.1 C 301.3 62.5 301.3 62.1 301.5 61.6 C 301.1 62.6 300.8 62.3 300.2 63.6 C 300.5 63.3 300.7 63.5 301.1 62.3 C 301.1 62.3 301.1 62.3 301.1 62.3 Z M 107.8 9.1 C 107.9 9.2 108.0 9.3 107.2 9.4 C 107.0 9.7 109.0 9.3 109.1 9.5 C 109.8 9.4 109.5 9.3 110.4 9.2 C 110.0 9.1 108.4 9.3 109.1 9.0 C 109.6 8.9 109.7 9.0 109.7 9.0 C 111.0 8.8 109.0 8.9 107.8 9.1 C 107.8 9.1 107.8 9.1 107.8 9.1 Z M 213.9 10.8 C 213.0 10.7 213.9 10.9 214.5 11.0 C 212.7 11.0 215.5 11.6 215.6 11.9 C 214.9 11.5 212.4 11.3 212.0 11.2 C 211.3 11.1 212.1 11.4 210.1 11.2 C 210.3 11.5 212.5 11.6 212.0 11.3 C 212.5 11.7 214.6 11.7 214.4 11.9 C 217.1 12.4 217.7 12.3 218.0 12.1 C 215.4 11.8 216.8 11.6 214.5 11.3 C 214.5 11.2 215.2 11.3 215.7 11.4 C 215.5 11.2 214.5 11.0 213.9 10.8 C 213.9 10.8 213.9 10.8 213.9 10.8 Z M 147.6 6.7 C 146.1 6.7 146.2 6.9 146.2 7.1 C 146.8 7.0 147.7 7.0 148.8 7.0 C 148.6 6.9 146.8 7.0 147.6 6.7 C 147.6 6.7 147.6 6.7 147.6 6.7 Z M 204.0 9.8 C 203.9 9.7 203.4 9.7 203.4 9.7 C 201.8 9.6 201.5 9.4 201.0 9.2 C 200.1 9.2 200.4 9.4 200.3 9.5 C 201.8 9.4 201.5 9.7 203.4 9.9 C 203.3 9.8 203.5 9.8 204.0 9.8 C 204.0 9.8 204.0 9.8 204.0 9.8 Z M 161.2 6.9 C 160.5 6.9 160.8 6.9 161.2 6.9 C 160.3 7.2 157.7 6.9 156.6 7.1 C 156.5 7.2 159.8 7.2 156.0 7.3 C 156.7 7.5 160.1 7.4 161.8 7.4 C 161.5 7.6 159.1 7.6 159.2 7.9 C 161.3 7.7 163.5 7.7 163.8 7.3 C 160.9 7.2 161.9 7.0 161.2 6.9 C 161.2 6.9 161.2 6.9 161.2 6.9 Z M 164.4 7.1 C 164.2 7.0 163.6 7.1 162.5 7.0 C 164.1 7.4 165.1 7.3 168.4 7.4 C 168.4 7.4 168.4 7.3 168.4 7.3 C 169.0 7.3 169.7 7.3 170.3 7.3 C 167.5 7.0 166.8 7.1 163.8 7.1 C 163.7 7.1 164.1 7.1 164.4 7.1 C 164.4 7.1 164.4 7.1 164.4 7.1 Z M 80.1 13.6 C 80.9 13.6 81.6 13.6 83.0 13.4 C 82.9 13.2 82.0 13.2 80.1 13.6 C 80.1 13.6 80.1 13.6 80.1 13.6 Z M 206.5 10.3 C 208.2 10.3 204.8 10.1 205.8 10.4 C 207.2 10.7 208.6 11.0 208.8 11.2 C 211.3 11.2 206.1 10.5 206.5 10.3 C 206.5 10.3 206.5 10.3 206.5 10.3 Z M 195.2 9.6 C 194.5 9.5 194.5 9.1 195.2 9.4 C 197.0 9.6 193.7 9.1 196.5 9.4 C 195.3 9.2 192.7 8.8 191.4 8.9 C 191.5 9.1 193.9 9.2 193.9 9.4 C 194.1 9.5 193.7 9.4 193.3 9.4 C 193.6 9.6 194.1 9.5 195.2 9.6 C 195.2 9.6 195.2 9.6 195.2 9.6 Z M 185.7 8.4 C 186.8 8.6 188.0 8.8 190.2 9.0 C 188.8 8.7 188.0 8.4 185.7 8.4 C 185.7 8.4 185.7 8.4 185.7 8.4 Z M 296.3 43.1 C 295.5 42.3 296.0 43.2 296.1 43.3 C 296.8 44.2 296.9 44.1 297.6 45.1 C 297.6 44.6 296.6 43.9 296.3 43.1 C 296.3 43.1 296.3 43.1 296.3 43.1 Z M 298.6 46.5 C 298.5 46.7 299.3 47.8 299.2 48.0 C 300.0 48.5 299.8 49.9 300.1 49.7 C 300.2 50.0 300.2 50.3 300.4 50.8 C 300.5 49.7 299.3 47.5 298.6 46.5 C 298.6 46.5 298.6 46.5 298.6 46.5 Z M 174.8 8.2 C 173.1 8.1 175.3 8.6 173.5 8.5 C 173.4 8.6 176.8 8.8 174.7 8.8 C 177.4 9.1 174.6 8.3 174.8 8.2 C 174.8 8.2 174.8 8.2 174.8 8.2 Z M 143.0 8.2 C 143.2 8.0 140.8 8.2 139.8 8.2 C 139.8 8.2 140.6 8.2 141.1 8.2 C 140.8 8.3 140.5 8.4 139.8 8.4 C 140.3 8.6 142.1 8.2 143.0 8.2 C 143.0 8.2 143.0 8.2 143.0 8.2 Z M 178.3 4.2 C 179.3 4.5 180.7 4.8 181.5 4.5 C 182.6 4.8 180.7 4.7 182.1 4.9 C 183.9 4.9 183.0 5.1 186.0 5.2 C 185.4 5.5 187.5 5.6 187.9 5.8 C 186.7 5.8 185.2 5.4 184.6 5.6 C 185.6 5.7 185.0 5.9 184.6 5.7 C 182.7 5.4 187.0 5.5 184.7 5.2 C 183.9 5.5 180.5 4.7 178.2 4.6 C 179.1 4.4 176.5 4.2 178.3 4.2 C 178.3 4.2 178.3 4.2 178.3 4.2 Z M 189.8 5.5 C 191.4 5.6 192.1 6.2 191.7 6.1 C 191.7 6.0 189.9 5.9 189.8 6.0 C 190.2 6.0 190.6 6.1 190.4 6.1 C 187.6 5.8 188.6 5.7 187.9 5.5 C 189.5 5.5 189.9 5.7 190.5 5.6 C 190.1 5.6 189.7 5.6 189.8 5.5 C 189.8 5.5 189.8 5.5 189.8 5.5 Z M 222.1 13.6 C 221.8 13.4 221.4 13.5 220.8 13.4 C 220.8 13.1 217.7 13.0 217.3 12.8 C 218.0 12.8 219.6 13.0 220.3 13.0 C 219.5 12.8 219.3 12.8 218.5 12.7 C 218.7 12.5 220.5 12.8 221.0 12.7 C 221.1 12.9 221.9 12.8 222.2 13.0 C 219.8 12.7 223.4 13.8 222.1 13.6 C 222.1 13.6 222.1 13.6 222.1 13.6 Z M 159.9 8.1 C 159.7 8.4 162.4 9.0 159.9 9.2 C 159.4 9.0 159.0 8.8 159.2 8.5 C 157.7 8.7 157.0 8.4 156.0 8.6 C 153.0 7.9 158.3 8.7 159.9 8.1 C 159.9 8.1 159.9 8.1 159.9 8.1 Z M 149.5 8.4 C 150.1 8.1 148.6 8.2 148.9 8.0 C 150.1 8.1 154.2 7.9 152.8 8.0 C 151.5 8.1 151.5 8.3 149.5 8.4 C 149.5 8.4 149.5 8.4 149.5 8.4 Z M 75.3 97.8 C 73.4 97.6 72.6 97.0 73.7 97.1 C 73.2 97.2 76.0 97.7 75.3 97.8 C 75.3 97.8 75.3 97.8 75.3 97.8 Z M 6.8 69.7 C 7.6 71.1 8.3 71.7 8.2 72.0 C 7.2 70.9 7.4 70.9 6.6 69.8 C 6.5 69.8 6.0 69.2 6.0 69.0 C 6.4 69.6 6.4 69.4 6.8 69.7 C 6.8 69.7 6.8 69.7 6.8 69.7 Z M 109.9 4.9 C 109.7 4.8 109.0 4.8 109.3 4.6 C 111.2 4.5 113.4 4.1 115.0 3.8 C 115.0 3.9 115.0 4.1 115.0 4.2 C 111.9 4.3 111.1 4.6 109.9 4.9 C 109.9 4.9 109.9 4.9 109.9 4.9 Z M 106.0 4.8 C 105.8 5.0 106.8 5.2 105.5 5.3 C 105.5 5.1 103.1 5.1 104.2 5.0 C 104.6 5.1 105.2 5.0 106.0 4.8 C 106.0 4.8 106.0 4.8 106.0 4.8 Z M 214.3 7.6 C 215.8 7.8 213.7 7.3 213.8 7.2 C 214.9 7.4 216.3 7.6 216.8 7.8 C 215.7 7.6 214.9 7.9 214.3 7.6 C 214.3 7.6 214.3 7.6 214.3 7.6 Z M 191.1 5.5 C 187.8 5.3 189.3 5.0 186.0 4.7 C 187.3 4.6 190.3 4.9 191.2 4.7 C 191.0 4.9 191.8 5.0 191.8 5.1 C 190.6 5.0 190.4 4.9 189.2 4.8 C 189.6 5.1 189.6 5.0 189.2 5.2 C 190.1 5.3 190.6 5.3 191.1 5.3 C 190.9 5.4 192.0 5.6 191.1 5.5 C 191.1 5.5 191.1 5.5 191.1 5.5 Z M 213.7 8.2 C 214.9 8.3 215.9 8.8 214.9 8.6 C 214.7 8.4 213.8 8.5 213.6 8.3 C 215.4 8.5 212.2 8.0 213.1 7.9 C 214.2 8.1 214.5 8.1 214.3 7.9 C 215.0 8.0 216.1 8.1 216.1 8.2 C 215.7 8.2 214.9 8.0 214.9 8.1 C 215.3 8.2 215.7 8.2 215.5 8.3 C 214.5 8.1 214.0 8.1 213.7 8.2 C 213.7 8.2 213.7 8.2 213.7 8.2 Z M 205.0 7.0 C 206.7 7.3 206.9 7.5 207.5 7.7 C 205.2 7.4 204.8 7.0 203.2 6.6 C 205.0 6.9 207.0 6.9 207.5 7.1 C 206.7 7.1 205.2 6.9 205.0 7.0 C 205.0 7.0 205.0 7.0 205.0 7.0 Z M 237.7 98.5 C 236.4 98.7 235.2 98.8 233.7 99.0 C 233.2 99.4 236.1 99.2 234.9 99.3 C 233.4 99.7 234.4 99.1 233.1 99.4 C 234.4 99.4 227.7 100.8 227.3 100.5 C 228.4 100.3 228.7 100.2 228.4 100.1 C 231.2 99.6 232.2 99.1 234.2 98.6 C 235.7 98.6 239.9 97.8 242.1 96.9 C 243.6 97.0 246.1 95.9 248.2 95.7 C 248.7 95.4 246.5 95.9 248.1 95.4 C 249.2 95.4 248.4 95.7 249.8 95.4 C 249.9 95.3 249.5 95.2 250.3 95.0 C 250.2 95.1 251.1 94.9 251.4 94.9 C 248.5 95.7 251.7 95.2 249.4 95.9 C 248.4 96.0 250.3 95.2 247.7 95.9 C 246.7 96.2 245.9 96.6 246.1 96.7 C 245.4 96.9 245.0 97.1 244.5 97.2 C 245.4 96.7 240.7 98.3 242.8 97.4 C 243.0 97.4 244.5 97.0 245.5 96.6 C 244.5 96.6 243.4 97.1 241.7 97.6 C 240.9 97.6 241.9 97.3 241.0 97.4 C 239.7 97.9 241.6 97.7 240.6 98.0 C 241.1 97.9 241.7 97.8 241.7 97.8 C 239.3 98.2 238.5 98.6 237.2 98.9 C 238.0 98.6 235.8 99.0 237.7 98.5 C 237.7 98.5 237.7 98.5 237.7 98.5 Z M 257.1 93.0 C 257.6 92.8 258.1 92.7 258.6 92.5 C 258.8 92.7 256.8 93.4 258.2 93.1 C 256.0 93.8 258.2 92.8 257.1 93.0 C 257.1 93.0 257.1 93.0 257.1 93.0 Z M 246.3 95.2 C 245.5 95.2 246.1 95.6 245.3 95.8 C 246.6 95.4 247.8 95.0 248.0 95.2 C 246.5 95.6 245.8 95.7 244.2 96.2 C 245.7 95.5 242.5 96.4 241.9 96.2 C 243.1 95.9 244.1 95.5 245.7 95.1 C 245.5 95.3 247.9 94.8 246.3 95.2 C 246.3 95.2 246.3 95.2 246.3 95.2 Z M 250.5 93.7 C 250.9 93.8 253.1 93.0 252.7 93.4 C 251.3 93.8 250.8 94.0 251.2 94.1 C 250.2 94.4 250.0 94.4 249.1 94.6 C 248.4 94.5 250.1 94.1 250.5 93.8 C 250.2 93.9 249.9 93.9 250.5 93.7 C 250.5 93.7 250.5 93.7 250.5 93.7 Z M 294.7 70.3 C 295.2 70.1 293.6 71.5 293.2 71.8 C 293.8 71.5 293.7 71.8 292.7 72.8 C 292.9 72.1 291.4 73.6 290.2 74.1 C 290.1 74.5 291.5 73.5 289.9 74.8 C 288.6 75.7 287.6 76.6 285.4 78.0 C 284.8 78.1 285.7 77.5 286.2 77.0 C 284.8 78.0 285.1 77.6 283.9 78.3 C 284.2 78.2 283.3 78.9 282.8 79.0 C 284.9 77.7 279.9 80.3 282.1 79.0 C 282.2 79.0 282.7 78.7 283.2 78.3 C 282.8 79.0 285.5 77.2 286.2 77.0 C 286.9 75.8 289.7 74.2 292.2 72.2 C 292.5 72.2 291.8 72.9 292.4 72.4 C 292.4 72.2 293.2 71.6 293.5 71.2 C 293.5 71.3 293.9 71.1 294.4 70.7 C 294.4 70.6 294.4 70.5 294.7 70.3 C 294.7 70.3 294.7 70.3 294.7 70.3 Z M 134.6 103.9 C 134.7 103.5 130.5 103.6 129.4 103.6 C 129.6 103.2 136.9 103.7 134.6 103.9 C 134.6 103.9 134.6 103.9 134.6 103.9 Z M 159.9 104.0 C 158.8 104.0 159.5 104.3 158.6 104.3 C 158.5 104.0 156.1 104.6 156.0 104.3 C 157.2 104.1 158.0 104.1 159.9 104.0 C 159.9 104.0 159.9 104.0 159.9 104.0 Z M 183.2 103.2 C 181.3 103.4 184.2 103.3 183.8 103.4 C 182.2 103.5 180.5 103.6 180.6 103.4 C 182.0 103.4 183.0 103.0 183.2 103.2 C 183.2 103.2 183.2 103.2 183.2 103.2 Z M 148.2 103.8 C 146.6 103.7 149.2 103.4 149.5 103.6 C 147.8 103.6 150.6 103.8 152.1 103.7 C 152.0 104.0 151.4 104.0 152.1 104.2 C 149.8 104.3 151.7 104.0 150.1 104.0 C 149.0 104.1 150.2 104.1 150.1 104.3 C 149.5 104.3 148.8 104.3 148.2 104.3 C 148.2 104.1 148.2 104.0 148.2 103.9 C 149.0 103.9 149.7 103.9 149.5 103.7 C 148.8 103.7 148.7 103.8 148.2 103.8 C 148.2 103.8 148.2 103.8 148.2 103.8 Z M 263.4 87.5 C 262.1 87.9 263.3 87.6 264.3 87.3 C 264.5 87.1 265.2 86.4 266.7 86.1 C 263.6 87.5 267.7 86.0 266.0 86.8 C 265.3 86.9 263.4 87.9 261.8 88.4 C 261.1 88.4 262.6 87.5 263.4 87.5 C 263.4 87.5 263.4 87.5 263.4 87.5 Z M 269.2 85.4 C 269.0 85.4 268.4 85.6 267.5 86.0 C 268.4 85.4 267.1 85.9 268.2 85.4 C 268.1 85.5 272.2 83.9 269.8 85.0 C 267.7 85.7 270.5 84.8 271.4 84.5 C 270.4 84.9 268.6 85.9 268.3 85.8 C 268.9 85.6 269.3 85.4 269.2 85.4 C 269.2 85.4 269.2 85.4 269.2 85.4 Z M 299.3 62.8 C 299.3 62.6 299.0 63.2 298.8 63.3 C 299.7 61.6 300.2 60.1 300.4 59.3 C 300.3 60.1 300.4 60.2 300.7 59.7 C 300.3 60.6 300.4 60.8 300.1 61.1 C 300.2 60.3 299.9 61.7 299.3 62.8 C 299.3 62.8 299.3 62.8 299.3 62.8 Z M 299.3 62.8 " fill="#000000"></path><image xlink:href="../../CEFA4209-80C9-472B-8D2B-058B96531B72/assets/B3801F04380499D666F22482CDF7C3B4.png" width="87.00" height="38.00" transform="matrix(1.00, 0.00, -0.00, -1.00, 112.0, 70.0)"></image><g><clipPath id="clip-302"><path d="M 5.3 5.8 L 303.5 5.8 L 303.5 105.8 L 5.3 105.8 Z M 5.3 5.8 "></path></clipPath><g clip-path="url(#clip-302)"><text xml:space="preserve" font-family="Chalkduster" font-size="32.0" fill="#000000" transform="matrix(1.00, 0.00, -0.00, -1.00, 116.0, 41.0)">C</text><text xml:space="preserve" font-family="Chalkduster" font-size="32.0" fill="#000000" transform="matrix(1.00, 0.00, -0.00, -1.00, 142.0, 41.0)">A</text><text xml:space="preserve" font-family="Chalkduster" font-size="32.0" fill="#000000" transform="matrix(1.00, 0.00, -0.00, -1.00, 164.7, 41.0)">W</text></g></g></g></svg>