<?xml version="1.0" encoding="UTF-8" standalone="no"?><svg xmlns="http://www.w3.org/2000/svg" xmlns:xlink="http://www.w3.org/1999/xlink" clip-rule="evenodd" stroke-miterlimit="4.00" viewBox="0 0 132 24"><desc>SVG generated by Keynote</desc><defs></defs><g transform="matrix(1.00, 0.00, -0.00, -1.00, 0.0, 24.0)"><path d="M 2.0 58.1 L 146.0 58.1 L 146.0 26.1 L 2.0 26.1 Z M 2.0 58.1 " fill="#000000" fill-opacity="0.00"></path><path d="M 2.0 26.1 L 131.6 26.1 L 131.6 -5.9 L 2.0 -5.9 Z M 2.0 26.1 " fill="#000000" fill-opacity="0.00"></path><text xml:space="preserve" font-family="Monaco" font-size="24.0" fill="#34BC25" transform="matrix(1.00, 0.00, -0.00, -1.00, 2.0, 2.0)">W</text><text xml:space="preserve" font-family="Monaco" font-size="24.0" fill="#34BC25" transform="matrix(1.00, 0.00, -0.00, -1.00, 16.4, 2.0)">o</text><text xml:space="preserve" font-family="Monaco" font-size="24.0" fill="#34BC25" transform="matrix(1.00, 0.00, -0.00, -1.00, 30.8, 2.0)">r</text><text xml:space="preserve" font-family="Monaco" font-size="24.0" fill="#34BC25" transform="matrix(1.00, 0.00, -0.00, -1.00, 45.2, 2.0)">k</text><text xml:space="preserve" font-family="Monaco" font-size="24.0" fill="#34BC25" transform="matrix(1.00, 0.00, -0.00, -1.00, 59.6, 2.0)">f</text><text xml:space="preserve" font-family="Monaco" font-size="24.0" fill="#34BC25" transform="matrix(1.00, 0.00, -0.00, -1.00, 74.0, 2.0)">l</text><text xml:space="preserve" font-family="Monaco" font-size="24.0" fill="#34BC25" transform="matrix(1.00, 0.00, -0.00, -1.00, 88.4, 2.0)">o</text><text xml:space="preserve" font-family="Monaco" font-size="24.0" fill="#34BC25" transform="matrix(1.00, 0.00, -0.00, -1.00, 102.8, 2.0)">w</text><text xml:space="preserve" font-family="Monaco" font-size="24.0" fill="#34BC25" transform="matrix(1.00, 0.00, -0.00, -1.00, 117.2, 2.0)">s</text></g></svg>