<?xml version="1.0" encoding="UTF-8" standalone="no"?><svg xmlns="http://www.w3.org/2000/svg" xmlns:xlink="http://www.w3.org/1999/xlink" clip-rule="evenodd" stroke-miterlimit="4.00" viewBox="0 0 309 111"><desc>SVG generated by Keynote</desc><defs></defs><g transform="matrix(1.00, 0.00, -0.00, -1.00, 0.0, 111.0)"><g><clipPath id="clip-311"><path d="M 260.1 90.8 C 318.3 71.2 318.3 39.6 260.1 20.0 C 201.9 0.5 107.5 0.5 49.3 20.0 C -8.9 39.6 -8.9 71.2 49.3 90.8 C 107.5 110.3 201.9 110.3 260.1 90.8 Z M 260.1 90.8 "></path></clipPath><g clip-path="url(#clip-311)"><image xlink:href="../../CEFA4209-80C9-472B-8D2B-058B96531B72/assets/59DBD66EA15A3D40E065F836EF2595FD.jpeg" width="400.00" height="400.00" transform="matrix(1.00, 0.00, -0.00, -1.00, 5.6, 105.4)"></image></g></g><path d="M 76.5 8.9 C 76.1 9.0 75.6 9.1 74.8 9.3 C 75.1 9.3 75.4 9.3 75.4 9.4 C 76.1 9.2 77.0 9.0 78.3 8.7 C 78.3 8.7 77.6 8.8 77.1 8.9 C 76.6 9.0 76.7 8.9 76.5 8.9 C 76.5 8.9 76.5 8.9 76.5 8.9 Z M 68.0 99.5 C 66.9 99.2 68.1 99.7 68.5 99.9 C 68.6 99.8 68.7 99.8 69.1 99.9 C 69.2 100.1 68.2 100.0 67.4 99.8 C 64.3 99.0 66.7 99.2 68.0 99.5 C 68.0 99.5 68.0 99.5 68.0 99.5 Z M 236.2 100.5 C 238.7 100.0 236.0 100.3 235.6 100.3 C 236.7 100.0 235.7 99.8 237.2 99.5 C 237.5 99.5 238.1 99.5 238.4 99.5 C 237.7 99.7 236.7 99.9 236.7 100.0 C 237.6 99.8 238.8 99.5 239.0 99.6 C 237.0 100.1 238.7 99.9 239.0 100.0 C 237.3 100.3 236.8 100.7 236.2 100.5 C 236.2 100.5 236.2 100.5 236.2 100.5 Z M 276.6 23.7 C 277.6 24.1 278.3 24.5 278.0 24.5 C 277.1 24.0 276.4 23.7 275.9 23.4 C 275.7 23.4 275.9 23.7 275.0 23.3 C 274.1 22.6 274.7 22.6 275.3 22.7 C 275.3 22.9 278.7 24.4 276.6 23.7 C 276.6 23.7 276.6 23.7 276.6 23.7 Z M 207.2 6.3 C 204.9 5.9 207.1 6.6 204.7 6.2 C 204.8 6.0 204.5 5.7 206.1 5.9 C 206.2 6.0 207.1 6.2 207.2 6.3 C 207.2 6.3 207.2 6.3 207.2 6.3 Z M 165.4 106.6 C 165.4 106.7 167.2 106.6 166.8 106.9 C 165.9 106.9 165.1 106.9 164.2 106.9 C 164.0 106.8 164.3 106.6 165.4 106.6 C 165.4 106.6 165.4 106.6 165.4 106.6 Z M 252.2 94.1 C 254.7 93.7 257.1 92.5 256.4 93.0 C 257.4 92.9 254.9 94.2 254.9 93.9 C 254.6 93.7 250.3 94.7 252.2 94.1 C 252.2 94.1 252.2 94.1 252.2 94.1 Z M 82.1 98.2 C 84.8 98.9 84.4 98.2 86.2 98.8 C 85.6 98.7 85.3 98.7 85.0 98.8 C 85.5 98.9 86.2 99.0 86.1 99.0 C 84.8 98.8 83.2 98.6 82.1 98.2 C 82.1 98.2 82.1 98.2 82.1 98.2 Z M 118.5 3.6 C 119.0 3.5 119.2 3.4 119.2 3.3 C 121.2 3.2 121.1 3.0 122.4 3.1 C 122.5 3.4 120.8 3.4 119.2 3.5 C 119.1 3.6 118.6 3.6 118.5 3.6 C 118.5 3.6 118.5 3.6 118.5 3.6 Z M 176.0 3.5 C 175.9 3.3 174.7 3.2 176.6 3.2 C 178.8 3.6 176.9 3.7 174.6 3.7 C 174.6 3.8 174.6 3.9 174.6 4.1 C 175.5 4.1 176.1 4.2 176.6 4.2 C 177.0 3.9 178.4 4.6 181.8 4.6 C 180.2 4.7 181.9 5.0 179.8 4.8 C 180.3 5.1 178.9 4.9 179.1 5.2 C 180.0 5.1 182.2 5.2 181.7 4.9 C 182.9 5.0 183.8 5.1 184.3 5.2 C 185.1 5.5 182.2 5.1 183.0 5.4 C 183.7 5.4 183.8 5.5 184.3 5.6 C 184.4 5.5 184.2 5.3 184.9 5.4 C 187.0 5.6 184.5 5.6 187.5 5.9 C 187.7 5.7 186.8 5.6 186.9 5.5 C 188.2 5.4 188.1 5.6 189.4 5.6 C 189.7 5.8 188.5 5.7 189.4 5.9 C 190.3 5.6 192.1 6.3 193.9 6.2 C 192.7 5.5 194.2 6.3 195.9 5.9 C 196.2 6.1 195.0 6.3 196.4 6.5 C 196.0 5.8 201.7 6.5 197.1 5.6 C 199.6 5.8 200.4 5.4 198.5 5.1 C 202.7 5.7 201.4 5.2 203.0 5.4 C 204.5 5.6 202.1 5.4 202.9 5.7 C 201.2 5.5 201.6 5.7 200.4 5.4 C 200.4 5.5 200.1 5.6 199.7 5.6 C 201.4 5.6 203.4 6.2 202.2 6.3 C 201.3 6.2 202.1 6.0 201.0 5.9 C 201.4 6.3 199.7 5.7 199.7 5.9 C 200.4 6.3 197.9 6.3 200.3 6.6 C 200.3 6.5 200.3 6.4 200.3 6.2 C 200.9 6.3 201.5 6.4 202.2 6.4 C 202.7 6.7 202.2 6.8 202.8 7.0 C 203.8 7.1 204.4 7.1 204.7 7.0 C 203.4 6.8 201.9 6.4 204.0 6.6 C 203.2 7.0 207.0 7.1 205.3 7.2 C 207.6 7.6 208.8 7.4 209.0 7.7 C 210.2 7.9 209.4 7.5 210.9 7.7 C 213.1 8.3 212.7 7.9 215.7 8.5 C 216.2 8.2 216.0 8.6 217.0 8.8 C 217.0 8.7 217.0 8.5 217.0 8.4 C 218.1 8.8 220.5 9.3 223.0 9.4 C 223.6 9.6 223.1 9.8 224.8 10.0 C 226.6 10.0 228.6 10.7 230.7 10.8 C 230.8 11.0 232.2 11.3 233.0 11.3 C 233.3 11.5 232.2 11.6 233.5 11.8 C 234.4 11.8 232.9 11.4 234.7 11.7 C 234.5 11.9 236.4 11.9 236.4 12.1 C 235.9 12.1 235.2 12.0 234.7 12.0 C 235.4 12.2 235.2 12.3 235.8 12.4 C 235.8 12.1 237.1 12.6 237.5 12.8 C 237.5 12.6 237.7 12.6 238.1 12.6 C 239.1 12.8 239.9 13.0 240.4 13.0 C 241.6 13.5 239.6 13.1 240.9 13.4 C 241.6 12.9 242.7 13.9 245.4 14.2 C 245.9 14.5 247.0 14.9 248.6 15.4 C 248.8 15.2 247.0 14.9 247.0 14.7 C 249.4 15.4 246.6 14.4 248.2 14.8 C 251.5 15.9 253.7 16.5 257.0 17.7 C 257.0 17.6 259.7 18.3 259.6 18.3 C 259.3 18.2 259.6 18.4 260.2 18.7 C 260.7 18.9 262.3 19.5 263.2 19.9 C 263.8 19.7 266.8 20.4 267.0 20.3 C 267.6 20.7 267.4 20.6 267.6 21.1 C 270.7 22.4 272.3 22.7 273.9 23.8 C 273.8 23.6 275.2 24.1 276.3 24.6 C 275.9 24.6 275.2 24.4 274.6 24.3 C 276.0 24.9 276.2 25.1 277.5 25.7 C 279.0 25.7 280.6 27.5 281.8 27.4 C 283.7 28.4 283.2 28.4 284.8 29.4 C 284.8 29.2 285.1 29.2 285.6 29.4 C 284.5 28.9 283.6 28.6 283.1 28.0 C 285.6 29.3 278.6 24.8 282.9 26.8 C 283.0 27.0 282.5 26.9 283.4 27.4 C 285.8 28.6 284.5 27.7 283.6 27.2 C 285.2 27.9 286.7 28.9 285.6 28.0 C 289.1 29.9 286.9 28.8 287.9 29.6 C 293.9 33.2 299.9 38.0 303.2 44.0 C 303.6 44.0 304.9 47.4 305.1 48.5 C 306.0 50.1 306.4 51.9 306.2 52.5 C 306.5 52.7 306.2 54.6 306.5 54.8 C 306.4 54.0 306.5 53.5 306.6 54.3 C 306.6 56.8 305.8 60.5 305.5 62.0 C 304.9 62.8 304.3 64.4 303.9 65.5 C 303.7 65.6 304.1 64.8 303.7 65.4 C 303.7 65.7 302.5 68.0 302.0 68.5 C 302.5 67.8 302.7 66.9 302.0 67.9 C 302.1 68.0 301.3 69.1 301.7 68.9 C 300.5 70.2 300.0 71.1 298.9 72.2 C 299.7 71.2 300.1 70.6 300.1 70.3 C 299.5 71.2 299.0 71.9 298.3 72.3 C 298.7 72.4 297.3 73.5 296.0 74.9 C 295.6 75.2 295.2 75.4 294.0 76.3 C 293.5 77.0 296.0 75.0 294.7 76.2 C 294.6 76.1 293.2 77.0 293.7 77.0 C 292.0 78.2 291.1 79.0 289.5 79.9 C 291.5 78.6 289.8 79.3 289.3 79.6 C 288.9 79.9 288.2 80.3 288.2 80.4 C 288.3 80.5 289.3 79.8 289.4 79.8 C 288.0 80.6 287.8 81.2 287.2 81.3 C 287.8 81.0 287.8 80.8 287.1 81.2 C 287.1 81.7 282.5 84.0 284.0 82.9 C 284.0 83.0 285.7 82.0 285.9 81.9 C 285.3 82.0 282.8 83.6 283.2 83.1 C 284.7 82.2 284.7 82.4 286.4 81.4 C 286.5 81.1 287.4 80.5 288.0 80.0 C 285.4 81.6 284.9 82.2 284.4 82.2 C 283.2 82.9 284.1 82.7 281.9 83.8 C 278.8 85.3 281.2 83.8 280.4 84.1 C 277.7 85.7 278.7 85.5 280.0 85.1 C 277.8 86.3 277.2 86.7 274.2 88.0 C 274.3 87.7 274.7 87.5 275.7 87.0 C 275.8 87.0 278.2 86.1 277.9 86.0 C 277.5 85.8 275.6 86.6 272.4 87.9 C 273.3 87.9 273.4 87.7 270.1 89.0 C 270.8 89.1 268.5 89.6 268.5 89.8 C 268.7 89.8 269.9 89.4 271.0 88.9 C 271.0 89.1 270.6 89.3 269.5 89.8 C 268.8 90.0 268.3 90.4 266.2 91.0 C 265.9 90.9 267.4 90.3 267.7 90.0 C 266.5 90.5 266.3 90.7 265.2 91.2 C 264.1 91.3 264.0 91.0 264.0 90.6 C 265.3 90.1 267.4 89.3 265.7 89.8 C 270.6 87.9 265.6 90.2 267.5 89.5 C 269.4 88.4 268.5 89.3 271.5 88.0 C 272.4 87.6 272.7 87.4 273.0 87.2 C 272.8 87.2 271.0 87.7 272.9 86.9 C 273.4 86.8 274.5 86.5 276.0 85.8 C 276.0 85.7 272.9 87.0 275.9 85.6 C 277.4 85.0 276.2 85.9 278.2 84.9 C 278.2 84.8 278.7 84.5 278.8 84.4 C 276.0 85.8 279.3 84.0 277.3 84.8 C 279.7 83.5 277.9 84.8 279.4 84.0 C 279.4 83.8 282.1 82.8 282.0 82.5 C 281.1 83.1 279.1 84.1 279.3 83.7 C 281.1 82.9 288.4 78.4 285.8 80.4 C 286.7 79.6 291.3 76.1 291.0 76.5 C 289.7 77.5 289.8 77.6 289.7 77.9 C 292.2 75.8 293.5 75.0 295.5 72.7 C 293.1 74.9 294.6 72.9 293.0 74.1 C 292.3 74.7 291.2 75.4 291.1 75.6 C 291.6 75.6 292.7 74.6 293.0 74.1 C 293.1 74.3 293.3 74.5 293.4 74.6 C 290.3 76.9 288.5 78.4 286.7 79.4 C 288.2 78.4 283.6 80.9 285.4 79.7 C 286.2 79.4 288.0 78.3 289.4 77.4 C 289.3 77.3 289.3 77.3 289.2 77.2 C 289.9 76.8 290.7 76.2 290.7 76.1 C 288.9 77.4 287.7 77.9 286.5 79.0 C 286.4 78.9 286.4 78.9 286.4 78.8 C 286.0 79.0 285.7 79.2 285.8 79.1 C 286.4 78.7 287.4 78.1 287.4 78.0 C 286.0 78.9 285.6 78.8 283.8 79.8 C 284.1 79.3 281.6 80.4 284.1 78.8 C 284.6 78.8 286.0 78.1 286.0 78.2 C 286.7 77.9 288.1 76.9 288.7 76.3 C 287.9 76.7 286.5 77.5 286.3 77.4 C 287.4 76.6 288.2 75.9 288.9 75.7 C 286.8 77.3 290.2 75.0 291.1 74.6 C 290.8 74.7 290.3 75.0 290.0 75.1 C 291.6 73.9 292.3 73.5 292.2 73.2 C 293.9 71.6 293.7 72.2 294.7 71.1 C 293.8 71.6 295.3 70.3 294.4 70.8 C 296.1 69.0 295.1 70.5 295.7 69.9 C 296.2 69.3 296.2 69.2 296.6 68.7 C 297.4 68.0 298.6 66.4 299.0 66.4 C 299.5 65.7 299.7 65.6 300.1 64.9 C 300.1 64.7 300.2 64.4 300.3 64.1 C 300.4 64.0 300.8 63.6 300.8 63.4 C 299.5 65.1 299.8 64.6 298.2 66.4 C 298.2 66.6 298.0 66.9 298.4 66.5 C 297.4 67.9 297.0 68.2 295.9 69.4 C 295.6 69.4 295.2 69.4 294.2 70.6 C 294.3 70.2 294.0 70.4 294.3 69.9 C 295.0 69.5 295.8 68.8 296.6 68.0 C 296.5 67.9 296.3 67.9 296.7 67.5 C 297.1 67.2 297.6 66.6 297.9 66.1 C 298.0 66.2 297.9 66.4 297.8 66.6 C 299.2 64.9 298.5 65.3 299.4 64.1 C 299.1 64.2 298.6 65.0 298.9 64.2 C 299.6 63.0 299.8 62.8 300.2 62.2 C 300.2 62.1 300.1 62.1 300.2 61.8 C 300.7 61.0 299.8 63.9 300.8 62.5 C 300.6 62.3 301.3 60.8 301.5 60.6 C 301.5 61.2 300.9 62.0 301.0 62.1 C 302.2 59.4 301.6 62.2 302.5 59.3 C 302.4 59.3 302.3 59.3 302.2 59.2 C 301.9 60.4 301.7 60.4 301.5 60.2 C 301.1 61.2 300.7 61.5 300.5 62.3 C 300.2 61.8 300.8 61.5 301.2 60.5 C 301.0 60.5 300.6 61.4 300.3 61.4 C 301.5 59.3 301.2 58.7 301.8 56.6 C 301.4 57.1 301.8 55.5 301.6 55.6 C 301.6 57.4 300.9 56.6 300.8 56.9 C 300.7 58.0 301.2 57.6 301.2 58.3 C 300.9 58.6 300.8 58.4 300.5 58.2 C 300.8 57.2 300.7 57.3 300.7 56.5 C 300.9 55.9 301.4 55.3 301.5 56.3 C 301.4 56.0 301.3 54.7 301.5 54.6 C 301.5 55.9 301.6 54.4 301.7 55.2 C 301.9 54.2 301.3 52.4 301.2 51.0 C 301.1 51.2 300.9 50.7 300.8 50.8 C 301.4 52.0 300.9 52.4 301.1 53.6 C 301.0 53.1 300.9 53.4 300.8 53.6 C 300.8 52.4 300.4 51.8 300.4 50.9 C 300.3 50.9 300.2 51.0 300.2 51.0 C 299.9 49.5 299.9 49.7 299.2 48.7 C 299.1 48.2 299.7 48.6 300.0 48.7 C 299.7 48.2 298.6 46.1 299.0 47.4 C 298.4 46.2 298.9 46.4 298.0 45.2 C 297.8 45.3 298.5 46.4 298.0 46.1 C 297.2 45.1 297.9 45.5 297.1 44.7 C 297.2 44.6 297.4 44.4 296.6 43.4 C 297.0 44.2 296.4 43.4 296.1 43.2 C 296.4 43.7 296.7 44.1 296.8 44.4 C 295.5 42.6 295.2 42.2 293.7 40.9 C 294.4 41.2 293.6 40.3 294.7 41.2 C 293.7 40.5 292.7 39.1 292.0 38.7 C 292.6 39.4 293.6 40.3 293.8 40.7 C 290.8 37.9 288.7 36.7 285.2 34.0 C 285.8 34.4 286.7 35.0 286.8 35.0 C 286.4 34.7 285.7 34.3 285.8 34.2 C 287.1 35.1 288.2 35.9 288.9 36.3 C 289.9 37.1 288.2 36.0 289.2 36.8 C 289.5 36.8 291.3 38.4 290.8 37.6 C 289.0 36.5 287.3 35.0 286.6 34.1 C 284.5 33.3 286.3 34.4 283.9 33.5 C 284.1 33.4 283.6 33.0 282.9 32.6 C 283.4 33.3 280.7 31.6 280.4 31.4 C 281.6 31.8 285.6 34.0 283.7 32.5 C 284.3 33.6 279.1 29.8 280.0 30.8 C 277.3 29.4 278.4 29.6 276.7 29.1 C 276.6 29.0 276.9 28.9 276.1 28.5 C 275.3 28.2 275.0 28.1 274.6 28.0 C 278.8 30.1 277.4 29.8 279.8 31.1 C 279.4 30.9 279.0 30.7 279.1 30.8 C 279.1 30.9 279.0 30.9 278.4 30.6 C 278.4 30.2 276.3 29.6 275.8 29.1 C 276.6 29.5 277.4 29.9 277.2 29.6 C 273.9 28.0 274.7 28.0 269.5 25.7 C 271.0 26.5 268.9 25.7 267.1 25.0 C 264.4 23.9 265.6 23.9 262.2 22.8 C 262.2 23.1 261.4 22.8 259.9 22.2 C 258.4 21.7 257.7 21.4 256.5 21.2 C 256.8 20.9 253.7 19.9 253.0 19.9 C 252.9 19.8 251.7 19.5 250.9 19.2 C 250.7 19.1 251.7 19.3 251.0 19.0 C 250.2 18.9 250.8 19.3 249.9 19.0 C 248.8 18.7 249.0 18.4 247.3 18.0 C 247.2 18.2 248.2 18.4 247.2 18.3 C 245.8 17.8 244.4 17.5 245.6 18.0 C 243.3 17.5 244.5 17.3 242.4 16.8 C 243.0 17.1 242.9 17.2 241.8 16.9 C 241.1 16.5 241.0 16.4 240.8 16.3 C 240.1 16.3 240.3 16.4 238.5 15.9 C 238.5 16.0 238.5 16.1 238.5 16.2 C 237.6 16.0 236.4 15.8 236.2 15.6 C 237.8 16.0 237.4 15.7 238.0 15.8 C 236.5 15.4 233.6 14.5 235.7 15.3 C 233.6 14.9 234.7 14.8 233.0 14.5 C 234.0 15.0 233.0 14.6 231.2 14.2 C 231.3 14.6 230.0 14.0 228.9 13.9 C 229.0 14.1 228.7 14.1 227.7 14.0 C 227.8 13.8 227.1 13.7 226.0 13.5 C 226.0 13.6 228.4 14.2 225.9 13.7 C 224.8 13.4 224.9 13.1 223.0 12.8 C 222.7 12.5 224.7 12.9 224.3 12.6 C 222.8 12.6 222.4 12.3 220.2 11.9 C 221.0 12.5 215.6 11.8 218.2 12.4 C 217.5 12.3 216.4 12.4 215.8 12.1 C 216.6 12.2 215.2 11.7 215.3 11.7 C 214.2 11.6 211.7 11.1 211.7 11.3 C 214.0 11.5 213.9 11.7 214.6 12.0 C 211.3 11.6 208.3 11.2 208.5 10.9 C 208.5 11.0 208.1 10.9 207.9 11.0 C 209.1 11.1 209.9 11.6 208.5 11.5 C 208.8 11.3 207.8 11.1 206.7 10.8 C 206.6 11.1 202.2 10.2 203.0 10.6 C 204.8 10.6 206.2 11.2 204.8 11.2 C 203.7 10.8 201.2 10.4 201.8 10.3 C 201.1 10.3 200.5 10.3 199.9 10.3 C 199.3 10.5 200.7 10.6 200.4 10.8 C 199.5 10.6 198.1 10.5 198.0 10.4 C 200.5 10.6 196.7 10.1 199.3 10.2 C 197.7 10.1 197.3 9.9 196.1 9.7 C 196.1 9.8 195.6 9.8 195.5 9.8 C 196.6 9.8 197.7 10.1 197.4 10.3 C 195.1 10.1 195.5 9.8 193.6 9.7 C 193.0 9.8 190.4 9.9 189.1 9.6 C 191.7 9.8 188.9 9.5 190.4 9.5 C 192.7 9.8 193.3 9.6 194.2 9.5 C 193.3 9.3 191.3 9.0 191.1 9.3 C 192.3 9.4 192.3 9.3 193.0 9.3 C 192.9 9.4 192.5 9.5 191.7 9.5 C 190.6 9.2 188.3 9.2 189.9 9.0 C 188.2 9.0 186.5 8.7 184.8 8.7 C 186.6 8.9 188.0 9.1 188.5 9.3 C 187.0 9.3 185.4 8.9 185.4 9.1 C 185.5 9.3 188.0 9.4 188.5 9.6 C 186.5 9.7 183.5 8.8 186.0 9.5 C 184.8 9.4 183.3 9.3 182.8 9.2 C 184.2 9.2 182.7 8.8 182.1 8.7 C 181.0 8.6 180.0 8.6 179.6 8.7 C 181.4 8.7 182.7 9.1 181.5 9.1 C 181.2 8.9 180.8 9.1 180.2 9.1 C 180.1 8.9 178.1 8.9 177.7 8.8 C 177.8 8.9 178.7 9.0 178.9 9.1 C 177.7 9.1 176.0 9.4 175.1 9.0 C 175.9 9.0 176.9 9.1 177.0 9.0 C 173.7 8.5 172.6 8.1 168.7 7.8 C 169.2 7.8 169.4 7.8 169.3 7.7 C 166.8 7.6 165.1 7.4 165.4 7.3 C 163.9 7.3 163.0 7.4 162.2 7.5 C 163.9 7.7 164.4 7.5 165.4 7.7 C 164.8 7.7 166.7 8.2 167.4 8.4 C 170.2 8.2 170.3 8.6 173.2 8.6 C 172.3 8.8 175.2 8.7 174.4 8.9 C 171.8 8.4 169.3 8.6 165.4 8.4 C 165.9 8.2 166.4 8.0 164.8 7.9 C 162.3 7.7 163.5 8.1 161.5 8.0 C 160.7 7.8 161.9 7.7 160.9 7.7 C 160.2 7.7 158.3 7.7 157.7 7.5 C 160.3 7.5 157.2 7.3 158.9 7.1 C 158.0 7.1 157.5 7.1 157.0 7.1 C 159.6 7.4 154.4 7.4 156.3 7.6 C 152.7 7.7 156.1 7.0 153.1 7.1 C 154.6 7.2 152.7 7.3 150.5 7.3 C 149.9 7.1 147.7 7.0 145.9 7.0 C 146.9 7.1 147.6 7.1 145.9 7.3 C 146.8 7.4 148.4 7.4 149.2 7.2 C 149.2 7.4 149.5 7.4 149.9 7.5 C 147.7 7.6 148.6 7.7 147.9 7.7 C 147.3 7.6 145.7 7.7 145.3 7.6 C 145.3 7.6 144.8 7.7 144.7 7.7 C 147.4 7.7 144.3 8.1 146.0 8.1 C 147.2 8.1 146.4 7.8 147.9 7.8 C 149.4 8.1 146.7 8.2 146.0 8.4 C 147.2 8.6 148.7 8.2 149.2 8.5 C 147.6 8.8 144.9 8.7 142.8 8.7 C 142.9 9.0 139.2 8.7 138.9 9.1 C 138.5 9.0 138.2 8.9 137.6 8.9 C 137.0 9.2 136.3 8.9 135.6 8.9 C 135.6 9.1 135.8 9.2 136.3 9.2 C 133.7 9.2 133.0 9.2 129.9 9.5 C 129.4 9.4 128.8 9.3 128.6 9.1 C 129.3 9.0 130.0 8.9 130.5 8.8 C 126.2 9.0 129.0 9.6 126.0 9.4 C 126.2 9.5 128.2 9.6 126.7 9.8 C 124.0 9.7 120.2 10.2 120.3 9.5 C 117.9 9.5 116.4 10.1 115.2 9.9 C 114.5 10.0 114.3 10.1 114.0 10.2 C 114.7 10.2 115.7 10.3 116.5 10.3 C 117.9 10.1 118.6 10.3 117.2 10.0 C 119.3 9.8 119.8 9.9 121.0 10.0 C 118.1 10.4 115.4 10.4 115.3 10.8 C 114.3 10.7 113.6 10.6 112.8 10.5 C 112.5 10.7 109.3 11.1 109.0 10.9 C 111.2 10.8 113.4 10.2 111.5 10.2 C 106.1 11.0 103.1 10.9 98.5 11.8 C 98.4 11.7 98.7 11.5 97.9 11.6 C 97.9 11.7 97.7 11.8 97.3 12.0 C 95.8 12.1 95.0 12.2 93.1 12.5 C 93.2 12.3 92.8 12.1 91.8 12.2 C 91.2 12.6 89.4 13.3 88.3 13.4 C 89.4 13.2 87.9 13.2 87.1 13.3 C 87.8 13.5 81.8 14.0 83.5 14.0 C 81.2 14.5 80.1 14.5 80.1 14.4 C 79.2 14.7 78.6 14.8 77.8 15.1 C 77.2 14.8 73.3 15.9 72.7 15.9 C 74.1 15.7 74.3 15.3 73.2 15.5 C 72.4 15.9 68.9 16.9 68.3 17.0 C 68.5 16.9 68.7 16.6 70.4 16.1 C 67.4 16.7 67.5 17.1 66.6 17.6 C 66.7 17.2 65.4 17.8 65.0 18.0 C 64.1 18.1 65.0 17.9 64.9 17.7 C 63.9 17.9 63.5 17.9 62.2 18.2 C 62.7 18.4 61.2 18.6 60.6 18.7 C 60.5 19.0 59.8 19.3 58.6 19.6 C 60.1 18.8 52.0 21.2 54.0 20.9 C 52.5 21.6 52.3 21.1 50.4 21.8 C 50.1 22.0 48.9 22.3 50.0 22.1 C 49.2 22.4 48.3 22.7 48.0 22.7 C 47.6 22.8 47.1 22.9 45.6 23.5 C 47.1 23.3 42.4 24.6 43.3 24.7 C 41.8 24.8 39.5 26.3 37.0 27.0 C 37.0 27.1 36.4 27.4 36.3 27.5 C 36.0 27.8 39.2 26.4 37.2 27.4 C 34.6 28.3 35.9 27.7 35.5 27.7 C 29.0 30.8 22.5 34.5 18.2 37.9 C 18.7 37.6 18.7 37.7 17.9 38.4 C 16.4 39.1 12.6 43.3 12.2 44.1 C 11.7 44.3 10.5 46.5 10.2 46.8 C 10.4 46.4 10.7 45.5 10.2 46.4 C 10.1 47.1 9.5 47.7 9.3 48.6 C 8.8 48.9 8.2 51.6 8.2 50.2 C 8.0 50.7 7.9 51.0 7.8 51.3 C 8.0 51.4 7.8 51.9 8.2 51.0 C 7.4 53.3 7.6 53.8 7.4 55.6 C 7.6 55.9 7.7 54.5 7.8 55.6 C 7.7 55.6 7.6 55.6 7.6 55.6 C 7.6 56.0 7.7 56.1 7.6 56.3 C 7.5 56.2 7.5 55.6 7.2 55.6 C 7.3 56.5 7.0 57.1 7.3 57.4 C 7.2 56.1 7.7 56.9 7.6 57.7 C 7.4 57.0 8.3 60.5 8.9 61.5 C 8.8 62.2 8.4 60.3 8.2 60.5 C 9.0 62.6 8.9 62.5 9.3 62.6 C 9.8 63.7 9.9 64.2 10.9 65.5 C 11.3 66.3 10.4 65.1 11.0 66.0 C 11.4 66.4 11.6 66.5 12.2 67.3 C 13.4 69.5 18.9 73.4 21.6 76.2 C 20.4 75.2 22.1 76.2 23.9 77.4 C 23.9 77.5 23.6 77.5 24.3 77.9 C 24.3 77.7 24.9 78.0 26.2 78.8 C 26.2 78.9 25.9 78.9 26.6 79.3 C 27.3 79.3 28.8 80.5 29.8 80.9 C 30.2 81.4 27.5 79.7 27.2 79.8 C 30.3 81.7 31.0 81.8 33.7 83.2 C 32.3 82.5 34.6 83.9 35.0 84.1 C 34.5 83.6 36.8 84.5 35.3 83.6 C 36.3 84.1 38.0 84.8 38.2 85.0 C 37.6 84.7 36.7 84.3 36.6 84.4 C 38.0 85.0 39.7 86.0 40.5 86.0 C 39.5 85.6 38.9 85.3 39.0 85.1 C 39.4 85.2 39.9 85.3 40.7 85.6 C 38.2 85.3 45.0 87.6 45.4 87.6 C 46.0 88.2 46.4 88.3 46.1 88.4 C 49.1 89.5 49.2 89.2 50.2 89.5 C 49.9 89.7 49.4 89.8 51.0 90.4 C 50.8 90.0 52.7 90.7 52.2 90.2 C 56.4 91.4 57.3 92.0 59.9 92.7 C 60.0 92.6 59.2 92.4 59.9 92.5 C 61.2 93.0 62.2 93.3 63.0 93.7 C 63.8 93.7 62.8 93.4 63.6 93.5 C 65.6 94.3 65.0 94.4 66.7 95.1 C 69.0 95.4 68.2 95.4 69.6 95.4 C 69.0 95.3 68.2 95.0 69.1 95.1 C 70.4 95.7 70.8 96.1 71.2 96.2 C 70.2 96.0 69.4 95.8 69.0 95.6 C 68.6 95.7 67.2 95.4 68.3 95.8 C 66.9 95.4 65.4 95.0 63.4 94.5 C 64.0 94.9 61.6 94.1 62.3 94.5 C 64.5 95.0 65.0 95.3 67.1 95.8 C 66.7 95.4 68.9 96.1 69.4 96.3 C 69.4 96.1 70.9 96.5 70.6 96.2 C 72.3 96.6 72.2 96.7 73.9 97.1 C 74.0 97.2 73.8 97.3 74.4 97.4 C 75.1 97.3 75.6 97.7 76.1 97.9 C 75.8 97.5 78.3 98.2 78.5 98.0 C 77.8 97.9 76.9 97.7 76.8 97.6 C 79.6 98.2 77.4 97.5 76.8 97.2 C 76.9 97.3 75.9 97.4 75.7 97.2 C 78.1 97.5 72.5 96.1 74.6 96.6 C 76.3 97.1 76.3 96.8 78.1 97.3 C 80.1 98.1 77.5 97.9 79.6 98.6 C 80.9 98.7 81.8 98.9 82.0 98.7 C 82.3 98.8 82.6 99.0 83.1 99.1 C 83.7 99.1 81.4 98.6 83.2 98.8 C 84.1 99.1 83.0 99.2 84.9 99.5 C 85.7 99.4 82.6 98.8 84.4 99.0 C 86.1 99.8 84.0 98.9 86.1 99.2 C 86.3 99.3 86.6 99.4 87.3 99.5 C 87.4 99.6 87.1 99.7 87.8 99.9 C 88.3 99.6 88.6 100.2 90.2 100.4 C 91.2 100.2 88.6 100.0 89.1 99.8 C 90.9 100.4 92.0 100.2 92.7 100.4 C 91.2 100.3 95.0 100.9 95.1 101.1 C 94.7 100.8 95.5 101.0 97.6 101.1 C 97.7 101.5 100.1 101.5 100.6 102.0 C 100.9 101.9 101.5 101.9 101.8 101.8 C 101.1 101.7 100.4 101.6 100.7 101.5 C 101.3 101.6 101.9 101.6 102.5 101.7 C 103.5 102.0 100.8 102.2 104.9 102.7 C 104.5 102.3 106.2 102.4 107.4 102.5 C 107.3 102.2 105.8 102.3 105.6 102.1 C 107.0 102.1 108.5 102.5 109.3 102.7 C 111.8 102.8 114.6 103.2 118.2 103.4 C 119.0 103.7 115.2 103.4 117.5 103.7 C 118.5 103.8 118.0 103.5 119.4 103.7 C 118.1 104.6 129.0 104.6 129.7 105.0 C 130.1 104.9 133.2 105.1 132.9 104.8 C 130.8 105.0 129.4 104.5 128.4 104.3 C 126.4 104.4 130.1 104.7 128.4 104.7 C 128.2 104.5 125.6 104.5 125.8 104.3 C 128.6 104.4 124.4 103.9 126.5 103.8 C 129.0 104.0 134.2 104.0 132.9 104.3 C 132.9 104.2 131.8 104.1 131.7 104.2 C 134.6 104.5 136.3 104.3 137.5 104.2 C 138.8 104.5 144.0 104.3 142.7 104.4 C 143.1 104.6 139.6 104.2 140.1 104.5 C 145.5 104.7 145.6 104.5 149.1 104.8 C 148.0 104.5 152.9 104.4 152.4 104.5 C 152.4 104.7 153.5 104.9 155.7 104.6 C 155.4 104.9 156.5 105.0 157.7 105.0 C 158.2 104.8 156.7 104.8 157.0 104.6 C 158.0 104.6 159.2 104.6 160.3 104.6 C 160.3 104.7 160.1 104.8 160.9 104.8 C 162.1 104.7 166.5 104.3 166.1 104.5 C 164.3 104.9 169.1 104.7 166.1 105.0 C 166.9 105.0 167.0 105.0 168.1 105.0 C 168.1 104.9 168.1 104.8 168.1 104.7 C 170.5 104.6 169.3 105.0 171.3 105.0 C 171.5 104.8 172.4 104.8 172.6 104.7 C 171.8 104.7 171.7 104.8 170.7 104.8 C 171.9 104.4 168.5 104.7 168.7 104.4 C 171.0 104.3 171.0 104.5 171.9 104.6 C 174.8 104.3 173.4 104.5 176.5 104.4 C 176.5 104.3 175.6 104.3 175.8 104.2 C 179.5 104.1 179.1 104.6 181.6 104.3 C 181.1 104.3 178.8 104.7 180.4 104.6 C 182.1 104.4 182.6 104.1 184.8 103.9 C 184.9 104.0 184.8 104.2 185.5 104.1 C 186.4 104.0 186.5 103.7 187.4 103.6 C 187.6 103.7 188.8 103.5 189.3 103.4 C 190.1 103.6 189.0 103.7 190.0 103.7 C 191.9 103.5 192.8 102.9 194.4 102.8 C 194.3 103.2 196.0 102.9 197.6 102.7 C 197.8 103.0 201.1 102.6 203.2 102.4 C 202.7 102.2 204.9 102.0 204.4 101.9 C 203.4 102.0 202.8 102.0 202.5 101.9 C 205.0 101.6 205.8 102.0 207.5 101.4 C 208.4 101.5 209.6 101.5 211.2 101.3 C 211.4 101.1 208.3 101.4 210.0 101.2 C 210.1 101.2 210.6 101.1 211.2 101.0 C 211.0 101.3 212.3 101.2 213.1 101.2 C 214.5 100.8 217.5 100.7 216.1 100.6 C 218.3 100.2 216.9 100.9 218.6 100.6 C 217.7 100.4 220.6 99.9 219.1 100.0 C 221.4 99.5 221.3 100.0 220.4 100.3 C 222.5 100.0 222.9 99.7 224.0 99.6 C 222.9 99.6 226.1 98.9 224.5 99.3 C 224.0 99.7 226.4 99.1 226.9 99.1 C 226.1 99.1 227.2 98.9 225.7 99.0 C 227.2 98.7 229.5 98.2 230.9 98.2 C 232.8 97.6 234.6 97.2 233.8 97.7 C 235.6 97.2 234.9 97.4 236.7 97.0 C 236.7 97.0 236.2 97.1 236.1 97.0 C 238.5 96.5 238.0 96.8 241.2 96.0 C 240.9 96.4 242.9 95.9 243.5 95.9 C 242.2 96.2 241.2 96.4 240.1 96.6 C 239.9 96.8 241.0 96.6 240.2 96.8 C 240.0 96.8 239.5 96.8 239.0 96.9 C 241.1 96.7 236.5 97.9 237.9 97.3 C 237.9 97.4 238.1 97.4 238.5 97.3 C 238.1 97.1 238.1 97.2 238.4 96.9 C 237.4 97.2 236.5 97.1 236.1 97.4 C 236.2 97.5 237.2 97.2 237.3 97.3 C 234.8 98.0 236.5 97.2 234.5 97.7 C 234.1 98.1 235.2 97.9 235.7 97.9 C 233.8 98.4 232.2 98.7 231.6 98.6 C 229.9 99.0 231.8 98.8 230.6 99.1 C 229.9 99.2 229.9 99.0 228.7 99.2 C 227.4 99.5 229.5 99.2 228.2 99.5 C 226.8 99.6 229.1 99.0 226.9 99.4 C 227.5 99.6 225.0 99.7 225.2 99.8 C 226.4 99.6 226.5 99.9 225.8 99.8 C 222.9 100.0 221.0 101.2 218.0 101.1 C 218.0 101.2 217.6 101.3 217.5 101.4 C 219.7 101.2 222.9 100.7 223.5 100.9 C 225.3 100.6 225.0 100.4 225.3 100.2 C 227.3 100.2 227.2 100.2 226.0 100.8 C 222.6 101.5 221.1 101.5 218.8 101.8 C 217.6 102.2 218.9 101.9 219.4 102.0 C 212.3 102.8 217.8 102.7 215.2 103.0 C 215.3 102.9 214.7 102.9 214.0 102.9 C 214.0 103.1 212.9 103.2 212.8 103.3 C 213.3 103.2 213.5 103.2 213.4 103.4 C 211.6 103.7 212.3 103.3 212.2 103.2 C 213.5 103.0 214.4 102.9 214.6 102.7 C 212.8 103.1 211.4 103.0 210.3 103.5 C 208.6 103.3 211.1 102.6 210.2 102.5 C 210.4 102.3 209.1 103.3 207.8 103.5 C 205.5 103.8 205.5 104.1 203.4 104.3 C 202.9 104.1 205.5 104.0 205.3 103.8 C 204.7 103.9 204.6 103.8 204.0 103.8 C 202.5 104.0 202.7 104.3 201.5 104.5 C 200.9 104.3 200.5 104.5 199.7 104.6 C 198.3 104.7 200.5 104.4 199.0 104.5 C 197.4 104.6 196.4 105.0 195.9 105.0 C 195.7 104.9 196.0 104.8 195.2 104.9 C 193.4 105.2 193.0 105.2 195.3 105.2 C 193.3 105.3 192.4 105.5 192.7 105.7 C 195.7 105.5 196.5 105.4 197.9 105.6 C 198.4 105.2 199.3 105.3 200.4 105.3 C 199.7 104.9 201.7 105.1 202.3 104.9 C 201.5 104.9 200.8 104.9 200.3 104.9 C 203.5 104.6 203.4 104.6 205.9 103.9 C 205.9 104.0 206.3 104.1 206.6 104.1 C 205.8 104.3 203.5 104.5 203.5 104.7 C 205.3 104.8 205.8 104.3 207.9 104.3 C 208.7 104.0 206.2 104.3 207.8 104.0 C 208.7 104.1 209.7 104.1 211.0 104.0 C 212.3 103.8 212.9 103.6 214.0 103.3 C 214.1 103.4 214.3 103.5 215.3 103.3 C 215.2 103.2 214.2 103.3 215.2 103.1 C 218.5 102.9 220.7 102.8 223.8 102.1 C 222.7 102.2 220.1 102.4 221.3 102.2 C 222.8 102.1 224.6 101.5 226.1 101.5 C 226.6 101.5 224.4 101.7 225.0 102.0 C 226.4 101.7 227.2 101.6 227.9 101.5 C 227.9 101.4 229.5 101.1 229.1 101.0 C 227.9 101.2 227.6 101.5 227.3 101.5 C 228.2 100.6 231.7 100.9 233.8 100.4 C 235.2 100.0 232.7 100.4 234.3 100.0 C 235.3 99.7 236.0 100.1 234.4 100.6 C 233.3 100.7 232.9 101.1 232.7 100.8 C 232.2 101.0 231.5 101.1 231.5 101.2 C 232.3 101.0 232.2 101.2 232.7 101.2 C 231.6 101.4 231.5 101.9 230.4 101.8 C 231.1 101.6 231.3 101.5 231.6 101.4 C 228.5 102.1 227.4 102.1 225.6 102.3 C 226.6 102.3 225.6 102.4 225.7 102.6 C 227.1 102.3 229.7 101.9 228.1 102.3 C 227.0 102.2 226.3 103.1 225.2 103.0 C 226.0 102.9 225.8 102.7 226.3 102.6 C 225.1 102.8 225.1 102.6 223.8 102.8 C 220.0 103.8 216.9 103.7 210.5 105.0 C 208.3 105.3 212.5 104.7 212.3 104.5 C 211.7 104.6 211.5 104.5 211.1 104.6 C 211.0 104.9 209.9 104.7 209.2 105.1 C 209.3 104.8 206.3 105.4 204.8 105.4 C 204.7 105.5 204.9 105.6 204.2 105.7 C 199.6 105.9 191.2 107.1 187.6 107.1 C 187.8 107.3 186.2 107.4 185.8 107.6 C 183.5 107.7 184.5 107.4 181.2 107.9 C 179.6 108.0 181.5 107.7 181.8 107.6 C 176.9 108.0 172.6 107.9 169.5 108.3 C 167.9 108.5 169.4 108.1 166.2 108.2 C 166.1 108.5 161.0 108.1 160.3 108.5 C 158.3 108.6 154.7 108.1 156.3 108.5 C 153.6 108.5 155.4 108.2 154.4 108.2 C 152.5 108.2 154.9 108.8 153.1 108.8 C 153.3 108.5 151.7 108.6 150.4 108.4 C 151.9 108.4 152.9 108.4 153.1 108.2 C 151.8 108.4 151.9 108.2 149.8 108.2 C 148.3 108.3 143.8 108.5 142.6 108.1 C 142.5 108.2 142.9 108.3 143.2 108.3 C 141.9 108.3 140.4 108.0 140.6 108.3 C 137.7 108.3 136.4 107.9 134.7 108.1 C 133.5 108.2 135.2 107.9 131.4 107.7 C 131.4 107.9 124.8 107.5 123.0 107.2 C 123.0 107.5 122.6 107.2 121.8 107.1 C 121.6 107.2 121.8 107.3 121.1 107.3 C 121.0 107.2 120.4 107.2 119.8 107.2 C 120.3 106.8 117.4 107.1 117.3 106.8 C 117.8 106.8 117.8 106.6 117.3 106.6 C 117.1 106.8 114.4 106.2 114.7 106.4 C 115.3 106.6 117.1 106.7 116.6 106.8 C 114.1 106.7 115.1 106.5 113.4 106.3 C 113.5 106.4 114.5 106.6 113.4 106.5 C 111.7 106.3 113.3 106.5 112.2 106.2 C 111.2 106.1 109.6 106.2 108.9 106.1 C 109.1 106.1 108.6 105.9 108.3 105.9 C 105.1 105.4 97.8 104.8 94.7 104.0 C 94.4 104.0 93.8 104.0 94.0 104.2 C 92.2 103.8 92.3 103.9 90.4 103.5 C 90.4 103.6 90.4 103.7 90.3 103.8 C 87.9 103.5 90.2 103.4 88.6 103.2 C 88.3 103.7 87.6 102.9 86.2 102.6 C 86.0 102.7 85.3 102.6 85.5 102.8 C 83.2 102.4 83.4 102.1 81.4 101.8 C 81.9 102.0 82.1 102.8 81.8 103.0 C 81.5 102.8 80.9 102.6 80.1 102.4 C 81.1 102.4 80.7 101.3 77.9 101.1 C 79.4 101.3 80.0 101.5 79.6 101.7 C 77.5 101.3 76.8 100.9 75.0 100.6 C 74.6 100.7 75.9 101.0 75.4 101.2 C 75.0 101.1 74.7 101.1 74.8 101.3 C 72.9 100.8 72.9 100.6 70.8 100.3 C 70.8 100.2 71.3 100.2 72.0 100.5 C 71.9 100.3 72.0 100.1 73.2 100.3 C 73.3 100.5 72.6 100.6 74.3 100.9 C 74.3 100.8 74.4 100.6 74.4 100.5 C 73.1 100.2 70.1 99.4 69.8 99.4 C 70.4 99.7 71.4 99.9 70.9 100.1 C 68.7 99.5 68.2 99.1 66.5 98.5 C 63.4 97.9 58.2 96.4 58.7 96.9 C 57.0 96.3 57.6 96.5 56.1 96.0 C 56.4 96.4 54.3 95.6 54.4 95.8 C 56.3 96.3 55.7 96.2 57.6 96.7 C 57.5 96.8 57.2 96.9 56.4 96.7 C 56.4 96.5 55.6 96.3 54.3 95.9 C 54.5 96.0 55.6 96.6 54.3 96.2 C 54.2 96.1 53.9 96.0 53.3 95.8 C 53.3 95.7 53.3 95.6 53.4 95.5 C 54.1 95.6 55.0 95.8 55.5 95.9 C 55.0 95.7 54.9 95.6 54.5 95.5 C 54.1 95.5 52.0 94.7 51.8 94.8 C 52.7 95.1 53.2 95.4 52.3 95.1 C 52.2 95.0 50.8 94.5 50.2 94.5 C 52.0 95.2 51.3 95.0 52.2 95.5 C 51.1 95.2 50.7 95.0 50.3 94.8 C 50.0 94.7 49.8 94.6 49.5 94.5 C 49.1 94.3 49.1 94.3 48.1 94.0 C 48.1 93.8 48.2 93.6 48.8 93.8 C 48.2 93.3 45.8 92.5 43.7 91.8 C 41.7 91.1 39.8 90.4 38.9 90.0 C 40.1 90.6 41.7 90.8 39.8 90.1 C 39.8 90.2 38.3 89.6 38.1 89.5 C 37.3 89.7 38.8 90.6 40.2 91.4 C 38.7 90.8 38.3 90.8 36.9 90.2 C 36.5 89.8 38.1 90.1 36.3 89.3 C 35.8 89.5 33.1 88.0 32.4 87.9 C 33.6 88.5 34.4 88.9 33.1 88.4 C 33.4 88.4 31.0 87.3 31.0 87.2 C 32.9 88.0 33.5 88.0 34.8 88.6 C 33.2 87.9 36.0 88.9 33.4 87.7 C 32.2 87.3 31.5 87.3 28.9 86.0 C 28.0 85.4 28.9 85.7 27.7 85.0 C 27.9 85.4 25.2 84.0 26.9 84.7 C 26.0 84.2 25.5 83.9 25.1 83.6 C 26.2 84.5 20.2 81.3 21.0 82.0 C 21.2 81.7 21.0 81.2 20.8 81.0 C 19.6 80.5 18.4 79.6 15.9 77.6 C 15.8 77.9 15.4 77.3 14.4 76.5 C 14.1 76.5 15.0 77.3 14.2 76.7 C 13.2 75.7 13.2 75.6 13.0 75.3 C 12.2 74.6 11.7 74.1 11.4 73.7 C 11.2 73.7 11.4 74.0 11.6 74.2 C 9.0 71.3 7.6 70.0 6.0 67.5 C 6.6 68.6 7.1 68.6 6.5 67.8 C 6.1 67.3 5.8 66.9 5.6 66.6 C 5.7 67.3 5.7 67.0 5.0 65.8 C 4.3 64.7 4.9 66.4 4.4 65.5 C 4.1 64.5 4.5 65.0 4.3 64.4 C 4.1 64.0 3.9 63.5 3.7 63.1 C 3.9 64.0 3.4 63.1 3.1 62.3 C 3.5 62.8 3.4 62.4 2.9 60.8 C 3.0 60.6 3.3 61.4 3.1 60.7 C 3.0 60.4 2.4 59.2 2.5 58.0 C 2.5 58.3 2.6 58.5 2.7 58.4 C 2.3 57.2 2.6 56.2 2.7 55.1 C 2.5 56.2 2.3 55.6 2.2 56.1 C 2.4 55.0 2.2 53.6 2.6 52.8 C 2.3 54.4 3.0 52.9 3.2 51.9 C 3.0 51.7 2.8 53.4 2.6 52.8 C 2.4 52.2 3.0 51.1 2.9 50.5 C 2.8 50.5 2.8 51.2 2.6 51.4 C 2.8 50.5 2.4 51.6 2.6 50.9 C 2.9 50.5 2.7 49.9 2.9 49.5 C 3.1 48.9 3.9 47.8 3.9 47.2 C 3.8 47.2 3.5 48.0 3.4 48.1 C 4.2 45.5 4.9 44.9 6.1 42.6 C 6.3 42.4 6.7 42.1 7.2 41.5 C 7.0 41.4 7.3 41.0 7.6 40.5 C 8.4 39.6 9.3 38.8 10.4 37.8 C 10.4 38.1 9.9 38.7 11.4 37.2 C 11.4 37.0 10.8 37.7 11.3 37.1 C 11.3 37.1 11.7 36.8 11.8 36.6 C 11.7 36.6 11.7 36.6 11.6 36.5 C 11.2 37.0 10.8 37.4 10.4 37.8 C 10.4 37.6 10.2 37.7 9.8 37.9 C 11.4 36.0 11.7 36.5 12.8 35.2 C 13.3 35.3 13.8 35.0 12.9 36.1 C 13.9 35.1 14.7 34.3 14.9 33.9 C 13.4 35.1 13.7 34.5 13.2 34.7 C 14.2 34.0 14.1 33.9 14.5 33.5 C 15.7 32.7 13.6 34.7 15.8 33.0 C 14.0 34.1 17.1 31.8 18.3 31.0 C 18.1 31.0 17.6 31.3 18.2 30.8 C 21.4 28.4 21.6 29.3 23.6 27.6 C 23.5 27.9 24.5 27.3 25.0 27.1 C 23.2 28.2 22.7 28.6 22.0 29.1 C 22.2 29.1 22.7 28.8 23.3 28.5 C 23.2 28.3 23.7 28.0 24.5 27.7 C 25.0 27.2 24.6 27.0 26.0 26.0 C 26.2 26.0 26.1 26.2 26.9 25.8 C 27.5 25.2 26.4 26.5 29.8 24.7 C 29.1 24.9 28.7 25.0 28.9 24.7 C 30.5 23.8 30.2 24.0 32.4 22.9 C 33.5 22.8 31.1 24.0 30.6 24.6 C 32.1 23.8 33.2 22.9 35.0 22.4 C 33.6 22.8 34.8 22.0 36.3 21.3 C 37.7 20.8 36.4 21.7 38.1 21.0 C 39.4 20.4 40.0 19.9 38.7 20.3 C 41.8 19.2 40.9 19.2 43.7 18.3 C 43.8 18.4 43.0 18.7 42.0 19.0 C 42.2 19.0 41.9 19.2 42.9 18.9 C 43.8 18.5 45.2 17.9 46.7 17.3 C 48.1 16.7 49.0 16.4 49.6 16.1 C 52.0 15.8 54.6 14.5 57.0 14.0 C 56.1 14.5 60.2 13.1 61.4 13.1 C 62.1 12.8 64.3 11.7 63.5 12.1 C 63.8 12.4 65.2 11.9 66.4 11.7 C 66.4 11.6 66.4 11.6 66.3 11.5 C 68.8 10.8 69.5 10.9 70.3 11.0 C 73.4 10.1 76.9 9.7 80.8 8.7 C 81.8 8.8 82.7 8.6 85.0 8.3 C 84.9 8.1 86.8 7.8 88.6 7.5 C 88.1 7.3 89.8 7.1 89.7 7.0 C 88.1 7.2 88.7 6.8 87.8 6.9 C 90.0 6.8 91.0 6.1 92.7 6.1 C 90.6 6.5 90.0 7.0 89.8 7.4 C 92.3 6.9 93.6 6.8 94.1 6.9 C 94.3 6.7 94.0 6.7 93.4 6.6 C 94.2 6.5 95.1 6.4 95.9 6.3 C 96.1 6.4 95.0 6.6 95.9 6.5 C 96.5 6.4 97.1 6.2 97.7 6.0 C 98.5 6.2 96.8 6.3 96.6 6.5 C 99.9 6.1 98.4 5.9 100.2 5.5 C 100.7 5.6 100.6 5.9 102.1 5.8 C 102.7 5.5 102.9 5.3 104.6 5.1 C 105.7 5.0 104.6 5.4 105.8 5.3 C 106.0 5.2 106.6 5.2 107.1 5.2 C 107.1 5.0 107.6 4.9 108.3 4.8 C 108.5 4.9 109.8 4.7 110.3 4.6 C 110.4 4.7 112.4 4.8 112.8 4.6 C 112.8 4.5 111.7 4.6 111.6 4.5 C 113.0 4.4 114.0 4.3 114.7 4.2 C 115.2 4.7 117.5 4.0 120.5 4.1 C 122.3 3.7 120.1 3.7 122.4 3.4 C 123.8 3.4 122.1 3.6 122.4 3.8 C 122.8 3.8 125.0 3.9 125.0 3.7 C 125.0 3.6 123.9 3.7 123.7 3.6 C 125.4 3.2 125.4 3.5 126.3 3.6 C 126.2 3.4 127.3 3.3 127.6 3.1 C 132.2 2.7 132.2 3.1 134.1 3.2 C 134.1 3.1 135.3 3.1 135.4 3.0 C 134.1 3.2 132.3 3.0 134.1 2.9 C 133.8 3.0 136.5 2.8 136.7 2.7 C 136.4 2.6 134.7 2.7 135.4 2.4 C 137.8 2.3 136.8 2.8 138.7 2.5 C 138.9 2.6 137.8 2.7 137.4 2.8 C 138.1 2.7 139.2 2.7 139.3 2.8 C 138.4 2.9 138.4 3.1 138.0 3.2 C 139.3 3.0 141.6 3.1 140.0 2.8 C 142.6 2.8 145.1 2.6 143.3 2.4 C 145.4 2.3 144.2 2.7 145.9 2.4 C 145.7 2.7 145.2 2.9 146.6 3.1 C 146.8 2.9 148.0 2.8 147.8 2.6 C 151.0 2.6 151.9 2.9 153.1 3.1 C 152.0 2.7 153.5 3.0 155.1 2.7 C 156.0 2.9 155.1 3.2 157.7 3.1 C 154.9 2.7 160.9 3.0 159.7 2.6 C 162.9 2.8 162.9 2.8 166.3 3.0 C 165.9 3.1 165.1 3.2 163.6 3.2 C 164.7 3.0 160.8 3.0 161.0 3.1 C 161.0 3.2 161.0 3.2 161.0 3.3 C 163.5 3.3 165.2 3.4 166.2 3.5 C 166.8 3.4 167.9 3.3 167.5 3.0 C 169.9 3.4 172.4 3.1 173.4 3.4 C 172.6 3.4 171.9 3.3 172.1 3.5 C 173.1 3.5 174.2 3.5 174.1 3.2 C 172.2 3.1 171.8 3.1 170.8 3.2 C 171.7 3.0 168.9 2.8 170.9 2.8 C 170.8 3.2 174.7 2.8 173.5 3.0 C 171.4 3.0 175.8 3.3 176.0 3.5 C 176.0 3.5 176.0 3.5 176.0 3.5 Z M 224.4 102.7 C 226.2 102.2 224.0 102.4 222.6 102.6 C 223.0 102.6 223.2 102.7 223.3 102.9 C 223.8 102.7 224.3 102.6 224.4 102.7 C 224.4 102.7 224.4 102.7 224.4 102.7 Z M 204.4 102.0 C 203.8 102.4 206.9 101.8 208.2 101.7 C 207.8 101.7 207.4 101.7 208.1 101.6 C 206.8 101.5 206.4 102.0 204.4 102.0 C 204.4 102.0 204.4 102.0 204.4 102.0 Z M 132.9 105.2 C 133.4 105.2 134.7 105.2 134.8 105.3 C 135.6 105.3 135.4 105.2 135.5 105.1 C 137.0 105.1 135.1 105.5 137.4 105.4 C 138.4 105.0 133.4 104.7 132.9 105.2 C 132.9 105.2 132.9 105.2 132.9 105.2 Z M 151.1 6.6 C 152.1 6.7 149.9 6.9 150.5 7.1 C 154.1 6.9 151.3 6.6 156.3 6.7 C 156.0 6.7 155.6 6.6 155.7 6.5 C 153.4 6.6 153.2 6.8 153.7 6.3 C 152.7 6.3 152.4 6.9 151.1 6.6 C 151.1 6.6 151.1 6.6 151.1 6.6 Z M 197.4 9.7 C 197.1 9.6 196.8 9.5 196.8 9.4 C 195.3 9.4 195.6 9.4 193.6 9.2 C 193.8 9.6 195.7 9.7 197.4 9.7 C 197.4 9.7 197.4 9.7 197.4 9.7 Z M 300.0 49.9 C 300.1 50.1 300.1 50.4 300.2 50.6 C 300.3 50.4 300.9 50.9 300.3 49.8 C 300.2 49.7 300.3 49.9 300.4 50.1 C 300.2 50.0 300.0 49.4 299.9 49.6 C 300.0 49.9 300.0 49.9 300.0 49.9 C 300.0 49.9 300.0 49.9 300.0 49.9 Z M 285.0 79.1 C 287.1 77.5 281.3 80.4 285.0 79.1 C 285.0 79.1 285.0 79.1 285.0 79.1 C 285.0 79.1 285.0 79.1 285.0 79.1 Z M 291.0 78.5 C 291.1 78.5 291.6 78.2 291.5 78.1 C 293.3 76.9 291.7 78.3 292.7 77.7 C 293.9 76.5 291.8 77.8 293.4 76.4 C 293.0 76.6 292.0 77.8 291.0 78.5 C 291.0 78.5 291.0 78.5 291.0 78.5 Z M 21.2 29.2 C 19.7 30.3 19.4 30.8 19.3 31.2 C 20.3 30.5 21.2 30.0 21.6 29.8 C 23.6 28.4 20.2 30.6 19.8 30.7 C 19.9 30.4 21.4 29.4 21.2 29.2 C 21.2 29.2 21.2 29.2 21.2 29.2 Z M 16.4 32.7 C 15.8 33.2 15.0 34.0 15.1 34.2 C 15.9 33.5 16.1 33.5 16.2 33.5 C 16.9 32.8 15.8 33.4 16.4 32.7 C 16.4 32.7 16.4 32.7 16.4 32.7 Z M 26.4 26.6 C 25.6 27.1 26.0 27.0 25.9 27.2 C 27.1 26.6 27.3 26.5 28.6 25.9 C 28.6 25.8 28.5 25.7 28.5 25.7 C 27.4 26.2 27.4 26.3 26.5 26.8 C 26.5 26.7 26.4 26.7 26.4 26.6 C 26.4 26.6 26.4 26.6 26.4 26.6 Z M 12.4 36.5 C 10.1 38.6 9.6 39.8 8.8 41.4 C 10.0 39.8 10.9 38.1 12.2 37.1 C 13.5 35.8 11.6 37.4 11.6 37.3 C 11.6 37.3 12.1 36.8 12.4 36.5 C 12.4 36.5 12.4 36.5 12.4 36.5 Z M 2.8 56.5 C 2.7 57.0 3.1 57.9 3.3 59.3 C 3.3 59.0 3.4 58.8 3.5 58.7 C 3.2 56.8 2.9 58.0 2.8 56.5 C 2.8 56.5 2.8 56.5 2.8 56.5 Z M 6.8 67.6 C 7.6 68.7 6.6 66.9 7.1 67.4 C 6.3 66.2 5.6 64.8 5.4 65.0 C 6.3 66.3 6.4 66.5 6.8 67.6 C 6.8 67.6 6.8 67.6 6.8 67.6 Z M 13.3 75.0 C 14.7 76.0 13.0 74.3 13.7 74.6 C 13.2 74.1 13.2 74.3 13.1 74.4 C 12.8 74.0 12.5 73.6 11.9 73.1 C 12.2 73.6 13.7 74.9 13.3 75.0 C 13.3 75.0 13.3 75.0 13.3 75.0 Z M 68.2 12.1 C 67.3 12.4 67.6 12.6 65.5 13.0 C 68.6 12.2 67.1 13.3 71.2 12.3 C 70.5 12.3 71.0 12.1 71.2 12.2 C 72.8 11.7 69.7 12.4 71.1 11.8 C 70.0 12.1 70.7 12.2 69.5 12.5 C 68.3 12.6 67.5 12.6 68.2 12.1 C 68.2 12.1 68.2 12.1 68.2 12.1 Z M 71.3 12.5 C 72.5 12.3 72.4 11.9 73.0 12.0 C 73.5 11.9 73.4 11.8 73.5 11.7 C 73.0 11.8 73.0 11.8 72.9 11.7 C 71.9 12.0 70.9 12.3 71.3 12.5 C 71.3 12.5 71.3 12.5 71.3 12.5 Z M 60.8 15.1 C 62.6 14.5 63.2 14.5 64.0 14.1 C 64.7 14.3 65.2 13.6 66.3 13.7 C 68.1 13.2 66.7 13.4 66.2 13.4 C 67.9 12.9 66.7 13.5 68.4 13.0 C 68.7 12.7 66.4 13.3 66.6 13.0 C 65.3 13.3 65.3 13.5 64.5 13.7 C 63.8 13.9 64.0 13.7 63.9 13.6 C 62.4 14.1 62.4 13.9 61.2 14.3 C 60.9 14.6 61.4 14.5 62.9 14.1 C 61.4 14.6 60.8 14.9 59.1 15.3 C 60.3 14.7 54.9 16.1 55.4 16.4 C 56.9 16.0 56.4 15.9 56.9 15.7 C 58.9 15.4 60.0 15.0 60.8 15.1 C 60.8 15.1 60.8 15.1 60.8 15.1 Z M 27.5 26.9 C 26.9 27.2 26.3 27.4 25.5 27.9 C 25.3 27.8 26.4 27.2 25.3 27.6 C 23.9 28.4 23.7 28.6 22.9 29.2 C 23.4 29.0 26.3 27.6 24.9 28.5 C 25.4 28.4 26.3 27.9 27.6 27.2 C 26.0 27.7 29.6 26.2 31.0 25.5 C 30.7 25.2 33.6 24.4 34.6 23.6 C 33.6 23.8 30.7 25.4 29.5 26.0 C 30.1 25.7 25.9 27.3 27.5 26.9 C 27.5 26.9 27.5 26.9 27.5 26.9 Z M 75.8 11.4 C 76.1 11.2 77.4 10.9 76.4 11.1 C 76.9 10.9 78.0 10.8 77.5 10.5 C 78.1 10.4 78.7 10.3 79.2 10.2 C 79.0 10.4 77.4 10.6 78.1 10.7 C 79.3 10.4 78.8 10.6 80.4 10.3 C 79.6 10.7 80.5 10.5 80.0 11.0 C 80.4 10.7 81.8 10.5 81.7 10.3 C 83.9 9.9 81.1 10.7 84.1 10.2 C 84.1 10.4 81.9 10.8 81.2 10.8 C 80.8 11.1 84.9 10.2 87.1 9.9 C 85.1 10.0 86.6 9.5 87.6 9.2 C 88.3 9.1 87.6 9.3 88.8 9.3 C 89.8 9.1 90.4 8.9 90.7 9.0 C 91.5 8.8 91.1 8.7 91.2 8.6 C 92.6 8.4 91.6 8.9 93.7 8.5 C 92.1 8.4 93.9 8.1 96.7 7.8 C 96.5 7.7 95.6 7.8 95.4 7.7 C 95.8 7.5 97.5 7.6 97.9 7.6 C 99.0 7.4 98.3 7.4 97.3 7.5 C 97.9 7.3 98.5 7.2 99.1 7.0 C 96.1 7.4 91.2 8.2 85.7 8.8 C 86.8 8.8 85.6 9.0 83.9 9.2 C 83.7 9.1 84.4 9.0 85.1 8.9 C 83.1 8.9 83.4 9.5 80.4 9.9 C 78.8 10.1 82.2 9.4 80.3 9.6 C 79.3 9.9 78.6 10.2 78.0 10.0 C 76.2 10.5 75.7 10.9 72.9 11.5 C 74.5 11.3 75.3 11.7 77.0 11.2 C 77.0 11.1 76.3 11.3 75.8 11.4 C 75.8 11.4 75.8 11.4 75.8 11.4 Z M 16.3 33.6 C 15.4 34.3 15.1 34.8 14.9 34.8 C 13.5 36.0 15.2 34.9 15.5 34.7 C 16.1 34.1 16.3 33.8 16.3 33.6 C 16.3 33.6 16.3 33.6 16.3 33.6 Z M 141.3 107.6 C 143.7 107.8 143.2 107.5 145.2 107.5 C 143.6 107.4 143.2 107.2 140.6 107.1 C 140.5 107.3 140.5 107.5 141.3 107.6 C 141.3 107.6 141.3 107.6 141.3 107.6 Z M 21.8 30.0 C 23.0 28.9 20.3 31.4 20.1 31.2 C 18.7 32.4 21.7 30.3 20.4 31.5 C 21.6 30.5 22.6 30.1 24.4 28.9 C 24.2 28.8 22.7 29.7 21.3 30.6 C 21.1 30.6 21.8 30.1 21.8 30.0 C 21.8 30.0 21.8 30.0 21.8 30.0 Z M 116.1 105.5 C 114.4 105.5 117.6 106.1 118.6 106.3 C 118.7 106.0 118.2 106.0 116.1 105.5 C 116.1 105.5 116.1 105.5 116.1 105.5 Z M 158.3 107.4 C 159.3 107.1 155.4 107.4 156.3 107.1 C 155.2 107.1 155.1 107.2 155.0 107.3 C 154.4 107.2 152.6 107.2 153.1 107.0 C 152.8 106.8 156.0 107.1 155.0 106.8 C 156.1 106.8 156.1 106.9 157.0 106.9 C 155.1 106.9 155.9 107.1 158.3 107.2 C 158.3 107.0 157.2 107.0 158.3 106.9 C 158.4 107.0 159.7 107.1 159.6 107.5 C 161.6 107.4 160.4 107.0 162.8 107.0 C 162.6 106.9 161.1 106.9 160.2 106.8 C 160.5 106.6 162.8 107.0 162.2 106.6 C 162.7 106.8 164.1 106.9 164.2 107.2 C 162.3 107.3 161.1 107.5 159.6 107.6 C 161.0 107.8 163.0 107.2 165.5 107.4 C 165.2 107.2 166.7 107.2 166.2 107.0 C 168.1 107.0 167.2 107.3 166.8 107.3 C 167.3 107.5 171.0 107.3 170.7 107.1 C 171.0 107.3 175.5 107.0 175.2 106.7 C 176.6 106.9 178.6 106.4 179.2 106.7 C 179.9 106.5 181.4 106.5 183.1 106.4 C 183.5 106.1 180.7 106.4 180.5 106.2 C 180.0 106.0 183.5 106.1 183.1 105.9 C 183.1 105.8 183.0 105.8 183.0 105.7 C 181.7 105.9 180.4 106.0 179.2 106.2 C 178.2 106.2 179.4 106.1 179.1 106.0 C 178.3 106.2 174.1 106.7 174.0 106.2 C 171.2 106.5 169.2 106.4 168.1 106.7 C 166.4 106.7 169.0 106.5 168.0 106.3 C 163.2 106.8 157.2 106.5 153.1 106.9 C 152.2 106.8 152.5 106.7 152.4 106.5 C 146.8 106.7 151.5 107.1 147.1 106.9 C 147.1 106.7 149.2 106.7 149.1 106.5 C 147.6 106.5 147.2 106.6 145.2 106.5 C 145.2 106.6 145.2 106.7 145.2 106.8 C 143.5 106.8 144.2 106.5 143.3 106.4 C 141.2 106.4 141.7 106.6 140.7 106.2 C 138.7 106.3 136.8 106.3 134.8 106.1 C 133.4 106.2 135.9 106.7 138.0 106.8 C 137.9 106.9 137.3 106.8 137.3 106.9 C 134.9 106.6 134.6 106.2 130.9 105.9 C 133.7 106.3 129.4 106.0 128.9 105.7 C 127.4 105.7 128.6 106.1 129.6 106.1 C 129.4 106.2 128.4 106.0 128.3 105.9 C 128.1 106.3 131.6 106.7 135.4 106.7 C 133.6 107.0 138.0 106.8 136.0 107.2 C 139.1 107.2 136.5 106.9 139.9 107.0 C 139.6 106.9 139.0 106.8 138.7 106.7 C 141.3 106.7 140.5 107.0 143.2 107.0 C 143.7 106.8 141.9 106.8 141.9 106.7 C 144.9 107.0 145.9 107.1 147.8 107.4 C 148.2 107.2 147.7 107.0 151.1 107.2 C 151.1 107.2 151.1 107.3 151.1 107.3 C 149.5 107.3 149.1 107.7 153.1 107.7 C 153.3 107.6 152.1 107.6 151.1 107.6 C 151.5 107.4 152.8 107.4 154.4 107.4 C 155.1 107.4 156.0 107.5 155.0 107.5 C 155.6 107.7 156.2 107.3 158.3 107.4 C 158.3 107.4 158.3 107.4 158.3 107.4 Z M 3.4 54.3 C 3.4 54.6 3.4 55.0 3.4 55.6 C 3.7 55.9 3.6 54.7 3.8 54.7 C 3.8 53.8 3.5 54.5 3.4 54.3 C 3.4 54.3 3.4 54.3 3.4 54.3 Z M 8.2 42.3 C 8.0 42.2 7.8 43.0 7.1 43.9 C 7.1 44.3 7.7 43.2 7.9 43.2 C 8.7 42.2 7.3 43.3 8.2 42.3 C 8.2 42.3 8.2 42.3 8.2 42.3 Z M 5.3 47.3 C 4.8 47.7 5.1 47.8 5.5 46.9 C 5.6 47.0 5.6 47.3 5.4 47.9 C 5.9 47.4 5.7 46.8 6.4 45.8 C 6.0 46.1 5.7 46.6 5.3 47.3 C 5.3 47.3 5.3 47.3 5.3 47.3 Z M 4.6 49.0 C 4.5 49.7 4.2 50.1 4.1 51.2 C 4.3 51.0 4.9 48.6 5.0 48.2 C 5.0 47.7 4.0 50.3 4.6 49.0 C 4.6 49.0 4.6 49.0 4.6 49.0 Z M 91.2 102.1 C 91.8 102.2 91.7 102.1 91.8 102.1 C 93.7 102.7 96.3 103.0 94.2 103.1 C 96.2 103.2 98.0 103.7 99.7 104.0 C 101.1 104.2 100.4 103.9 101.6 104.0 C 103.4 104.3 100.6 104.0 100.9 104.2 C 101.3 104.4 101.9 104.1 104.0 104.5 C 103.5 104.0 105.9 104.7 105.3 104.2 C 106.5 104.5 106.9 104.4 108.5 104.6 C 108.3 104.4 106.8 104.2 106.6 104.1 C 105.9 103.7 105.7 104.2 107.2 104.3 C 106.3 104.4 104.2 103.8 103.5 103.9 C 102.7 103.6 105.5 104.1 104.7 103.8 C 104.2 103.7 103.6 103.7 103.5 103.8 C 102.6 103.6 102.0 103.5 101.7 103.3 C 102.2 103.4 102.3 103.4 102.2 103.5 C 103.4 103.6 101.1 102.9 103.6 103.2 C 103.2 103.1 102.1 103.0 102.3 102.8 C 101.6 102.6 102.2 103.5 99.8 102.9 C 98.1 102.9 103.6 103.6 102.2 103.9 C 98.7 103.4 100.7 103.3 98.0 102.9 C 98.0 103.0 98.0 103.1 97.3 103.0 C 97.4 103.2 98.4 103.3 99.1 103.4 C 99.0 103.5 98.0 103.3 97.3 103.2 C 97.4 103.3 97.9 103.4 97.9 103.4 C 95.6 103.0 95.9 102.6 98.0 102.7 C 98.0 102.5 95.1 102.1 94.3 102.1 C 95.0 102.4 94.2 102.3 94.8 102.6 C 95.4 102.7 95.3 102.6 95.5 102.6 C 96.6 102.8 95.6 102.7 95.5 102.8 C 94.2 102.6 94.3 102.4 93.1 102.3 C 93.4 102.3 93.7 102.3 93.7 102.2 C 93.1 102.1 92.4 102.0 91.8 101.9 C 91.9 102.1 91.1 102.0 91.2 102.1 C 91.2 102.1 91.2 102.1 91.2 102.1 Z M 123.7 106.4 C 125.9 106.6 124.7 106.3 123.7 106.3 C 124.2 106.2 124.9 106.2 125.7 106.2 C 125.1 106.1 124.5 106.1 122.5 105.9 C 124.3 105.7 122.5 105.2 119.3 105.0 C 118.3 105.4 121.0 105.6 119.9 105.8 C 122.3 105.8 123.5 106.1 123.7 106.4 C 123.7 106.4 123.7 106.4 123.7 106.4 Z M 15.6 34.7 C 14.7 35.5 13.7 36.3 12.9 37.1 C 13.2 37.1 16.1 34.9 15.6 34.7 C 15.6 34.7 15.6 34.7 15.6 34.7 Z M 101.6 7.0 C 102.1 6.9 102.2 7.0 102.3 7.0 C 104.1 6.7 101.4 6.9 102.2 6.6 C 101.6 6.7 101.0 6.8 100.4 6.9 C 100.2 7.0 102.9 6.8 101.0 7.1 C 101.1 7.2 101.6 7.1 101.6 7.0 C 101.6 7.0 101.6 7.0 101.6 7.0 Z M 3.8 53.4 C 3.8 54.2 4.1 53.7 4.0 55.6 C 4.2 55.0 4.1 54.5 4.2 53.4 C 4.0 53.4 3.9 53.4 3.8 53.4 C 3.8 53.4 3.8 53.4 3.8 53.4 Z M 82.2 101.0 C 83.6 101.5 84.1 101.0 86.9 101.7 C 85.5 101.1 83.8 101.2 82.2 101.0 C 82.2 101.0 82.2 101.0 82.2 101.0 Z M 188.2 105.6 C 187.3 105.6 188.4 105.5 186.9 105.5 C 186.0 105.6 185.6 105.8 184.3 105.9 C 186.2 106.0 189.4 105.5 190.7 105.8 C 192.3 105.6 192.1 105.4 192.6 105.2 C 191.9 105.2 191.5 105.2 191.4 105.2 C 190.5 105.6 189.3 105.1 188.2 105.6 C 188.2 105.6 188.2 105.6 188.2 105.6 Z M 115.4 105.4 C 114.3 105.1 116.3 105.2 116.7 105.1 C 117.6 105.2 117.3 105.3 117.4 105.5 C 118.5 105.5 118.8 105.4 118.7 105.2 C 116.5 105.0 113.9 104.7 115.5 104.6 C 113.5 104.3 114.6 104.7 113.6 104.7 C 112.5 104.4 113.5 104.5 113.6 104.2 C 113.1 104.2 111.5 104.4 111.7 104.0 C 108.7 104.1 110.0 104.6 112.2 105.2 C 114.3 105.2 111.9 104.8 115.4 105.4 C 115.4 105.4 115.4 105.4 115.4 105.4 Z M 38.6 88.3 C 38.8 88.5 40.2 89.1 40.1 89.2 C 42.0 89.6 43.6 90.0 45.4 90.4 C 45.1 90.0 42.7 89.4 43.7 89.9 C 43.0 89.5 41.4 88.8 40.5 88.3 C 38.9 87.6 38.1 87.8 38.1 87.4 C 36.5 86.9 37.4 87.3 35.0 86.1 C 38.7 88.0 33.7 85.7 33.3 85.8 C 35.4 86.8 37.4 87.6 37.2 87.3 C 38.8 88.1 40.7 88.9 41.0 89.2 C 40.8 89.3 39.5 88.7 38.6 88.3 C 38.6 88.3 38.6 88.3 38.6 88.3 Z M 48.9 91.4 C 48.2 91.2 47.5 91.0 46.3 90.6 C 47.0 90.9 47.2 91.1 47.1 91.2 C 49.3 92.0 49.5 91.9 49.9 92.2 C 51.0 92.7 49.7 91.8 51.5 92.5 C 51.4 92.4 50.5 92.1 50.5 92.0 C 50.3 92.1 50.0 92.1 48.9 91.4 C 48.9 91.4 48.9 91.4 48.9 91.4 Z M 65.2 96.7 C 66.6 97.0 64.4 96.3 65.2 96.3 C 64.9 96.3 62.2 95.5 62.6 95.4 C 61.9 94.9 59.0 94.8 59.4 94.5 C 58.7 94.3 58.9 94.5 58.8 94.5 C 60.7 95.0 60.6 95.2 59.2 94.8 C 59.4 95.0 60.6 95.3 61.4 95.5 C 61.5 95.4 60.8 95.2 60.9 95.1 C 62.5 95.6 63.7 96.1 65.2 96.7 C 65.2 96.7 65.2 96.7 65.2 96.7 Z M 172.0 4.6 C 170.5 4.5 169.5 4.5 168.8 4.5 C 169.2 4.7 170.0 4.6 170.7 4.6 C 170.9 4.8 170.2 4.7 169.4 4.7 C 170.1 5.0 172.9 4.9 172.0 4.6 C 172.0 4.6 172.0 4.6 172.0 4.6 Z M 159.0 4.3 C 157.5 4.2 156.5 4.3 156.3 4.4 C 156.9 4.6 156.7 4.3 157.7 4.3 C 158.3 4.4 158.6 4.5 159.0 4.6 C 159.6 4.6 159.5 4.5 159.7 4.4 C 160.2 4.4 160.2 4.5 160.3 4.5 C 162.1 4.3 158.2 4.5 159.0 4.3 C 159.0 4.3 159.0 4.3 159.0 4.3 Z M 56.1 94.0 C 55.7 93.8 55.3 93.5 54.1 93.2 C 54.3 93.4 53.3 93.1 52.5 92.8 C 53.6 93.4 54.2 93.5 56.1 94.0 C 56.1 94.0 56.1 94.0 56.1 94.0 Z M 80.0 11.1 C 78.2 11.2 78.4 11.6 75.9 11.9 C 75.9 12.0 76.0 12.1 76.0 12.2 C 77.4 11.7 78.2 11.7 80.0 11.1 C 80.0 11.1 80.0 11.1 80.0 11.1 Z M 302.6 64.3 C 302.5 64.1 301.9 65.4 301.7 65.4 C 301.9 65.8 301.1 66.1 299.4 68.5 C 299.3 68.4 299.4 68.2 299.6 67.9 C 298.1 69.8 300.2 67.6 300.5 67.5 C 301.5 65.9 301.8 65.8 302.6 64.3 C 302.6 64.3 302.6 64.3 302.6 64.3 Z M 168.7 105.9 C 168.6 106.0 169.0 106.0 169.4 106.0 C 169.8 106.0 170.3 106.0 170.6 105.9 C 170.5 105.6 168.3 105.6 170.0 105.2 C 169.4 105.2 169.3 105.2 169.3 105.3 C 166.2 106.1 163.7 105.0 159.6 105.5 C 158.9 105.5 159.1 105.6 158.9 105.6 C 159.4 105.6 159.5 105.7 159.6 105.7 C 160.1 105.4 163.8 105.7 162.2 105.8 C 162.3 105.9 162.8 105.9 162.8 105.8 C 163.3 105.8 163.7 105.8 164.2 105.8 C 163.9 105.7 163.0 105.7 162.8 105.6 C 164.9 105.7 167.5 105.7 166.1 106.0 C 167.4 106.0 167.8 105.8 168.7 105.7 C 169.6 105.7 169.6 105.9 168.7 105.9 C 168.7 105.9 168.7 105.9 168.7 105.9 Z M 185.5 105.0 C 187.5 104.9 186.8 104.7 188.8 104.6 C 187.5 104.5 186.0 104.9 184.2 104.8 C 184.5 104.9 185.4 104.9 185.5 105.0 C 185.5 105.0 185.5 105.0 185.5 105.0 Z M 147.9 105.7 C 148.2 105.4 146.5 105.4 144.6 105.3 C 144.2 105.6 145.9 105.7 147.9 105.7 C 147.9 105.7 147.9 105.7 147.9 105.7 Z M 156.3 105.7 C 158.2 105.6 153.9 105.7 155.0 105.4 C 154.1 105.4 153.1 105.4 153.1 105.4 C 152.4 105.4 152.4 105.5 151.1 105.5 C 151.2 105.7 153.3 105.6 153.1 105.7 C 154.5 105.6 154.8 105.6 156.3 105.7 C 156.3 105.7 156.3 105.7 156.3 105.7 Z M 157.6 105.7 C 158.9 105.7 157.3 105.3 155.7 105.3 C 156.3 105.4 156.6 105.6 157.6 105.7 C 157.6 105.7 157.6 105.7 157.6 105.7 Z M 14.1 72.5 C 14.7 73.0 14.4 72.4 15.1 73.0 C 15.2 72.9 12.7 70.7 14.8 72.5 C 14.2 71.6 13.6 71.6 12.8 70.7 C 13.0 71.0 13.1 71.3 12.7 70.8 C 12.3 70.7 14.6 72.6 14.1 72.5 C 14.1 72.5 14.1 72.5 14.1 72.5 Z M 16.7 74.7 C 17.2 75.1 17.0 74.8 16.7 74.6 C 16.9 74.6 17.6 75.3 18.2 75.7 C 18.2 75.8 17.4 74.6 17.6 74.5 C 15.1 72.8 16.8 74.4 16.7 74.7 C 16.7 74.7 16.7 74.7 16.7 74.7 Z M 19.2 76.4 C 20.7 77.8 23.3 79.4 24.7 79.9 C 23.5 78.8 20.1 76.7 19.2 76.4 C 19.2 76.4 19.2 76.4 19.2 76.4 Z M 7.7 63.8 C 8.6 66.3 12.2 70.6 9.6 66.4 C 9.5 66.6 7.8 64.0 7.3 62.6 C 7.2 62.6 6.4 61.2 6.6 61.1 C 6.0 60.1 7.8 64.5 7.7 63.8 C 7.7 63.8 7.7 63.8 7.7 63.8 Z M 27.4 80.9 C 26.3 80.4 27.4 81.6 25.9 80.5 C 25.0 80.1 26.1 80.8 25.8 80.8 C 27.7 81.8 32.1 83.8 32.4 84.2 C 33.5 84.6 33.9 84.7 36.1 85.6 C 36.2 85.6 28.5 82.3 27.3 81.0 C 27.5 81.0 29.9 82.3 27.4 80.9 C 27.4 80.9 27.4 80.9 27.4 80.9 Z M 80.3 12.5 C 80.4 12.3 78.0 12.9 78.5 12.6 C 77.2 13.1 75.9 13.2 74.6 13.7 C 74.1 13.7 74.2 13.3 72.2 13.7 C 72.2 13.9 73.2 13.7 72.3 14.0 C 70.4 14.5 70.9 14.1 68.8 14.7 C 69.3 15.0 64.6 15.8 65.1 16.1 C 66.1 15.8 66.0 15.6 67.8 15.2 C 68.4 15.1 68.2 15.3 68.9 15.1 C 68.5 15.5 67.5 15.4 66.8 15.7 C 67.0 15.8 68.3 15.5 68.5 15.6 C 69.3 15.4 68.3 15.6 68.4 15.4 C 70.6 14.8 68.4 16.0 70.8 15.3 C 70.2 15.2 70.2 15.2 70.7 14.9 C 71.6 14.8 74.5 14.0 73.0 14.6 C 73.2 14.7 74.9 14.1 74.6 14.0 C 75.6 13.8 75.7 13.8 75.8 13.9 C 78.2 13.3 78.5 13.0 77.9 12.9 C 78.4 12.6 78.8 12.9 80.3 12.5 C 80.3 12.5 80.3 12.5 80.3 12.5 Z M 6.2 51.3 C 6.2 50.3 6.0 52.3 5.8 53.2 C 6.0 52.1 6.3 52.5 6.6 51.4 C 6.4 51.8 6.3 51.7 6.5 50.9 C 6.5 50.7 5.9 52.4 6.2 51.3 C 6.2 51.3 6.2 51.3 6.2 51.3 Z M 40.8 87.6 C 41.6 88.1 45.9 89.6 48.3 90.5 C 48.0 90.0 42.2 88.4 41.6 87.8 C 40.3 87.3 42.3 88.2 40.8 87.6 C 40.8 87.6 40.8 87.6 40.8 87.6 Z M 59.0 17.2 C 58.5 17.4 58.8 17.3 59.1 17.3 C 58.9 17.4 57.8 17.7 57.0 17.9 C 58.2 17.8 56.8 18.2 57.1 18.4 C 56.5 18.6 56.2 18.7 56.1 18.8 C 56.0 18.4 52.9 20.0 56.2 19.1 C 55.5 19.0 55.8 19.0 57.1 18.5 C 58.7 18.2 59.8 17.7 60.4 17.8 C 61.4 17.5 61.7 17.3 63.0 16.9 C 63.4 17.0 64.6 16.8 63.7 17.4 C 66.0 16.8 64.3 16.6 66.3 16.1 C 68.2 15.8 65.4 16.6 65.9 16.7 C 66.3 16.6 66.3 16.7 66.4 16.7 C 67.1 16.5 67.1 16.3 66.4 16.5 C 66.6 16.3 68.5 15.7 68.0 16.1 C 69.1 15.7 66.1 15.8 64.6 16.4 C 63.7 16.7 63.6 16.2 64.5 16.0 C 64.1 15.9 62.5 16.9 62.8 16.3 C 62.1 16.5 61.4 16.7 60.7 16.9 C 60.8 16.9 61.2 16.8 61.3 16.9 C 60.6 17.1 59.9 17.3 59.1 17.5 C 59.7 17.2 59.7 17.1 59.0 17.2 C 59.0 17.2 59.0 17.2 59.0 17.2 Z M 31.1 83.2 C 32.8 84.1 33.3 84.2 34.7 84.8 C 34.2 84.4 30.4 82.6 31.1 83.2 C 31.1 83.2 31.1 83.2 31.1 83.2 Z M 90.5 11.4 C 90.3 11.4 89.2 11.6 89.2 11.5 C 91.1 11.1 88.9 11.3 90.3 10.7 C 88.0 11.3 87.2 11.9 90.5 11.6 C 92.8 11.2 88.1 11.9 90.5 11.4 C 90.5 11.4 90.5 11.4 90.5 11.4 Z M 83.3 12.5 C 81.9 12.9 85.5 12.4 86.3 12.3 C 86.3 12.4 86.3 12.5 86.4 12.5 C 88.3 11.8 85.6 12.2 87.3 11.4 C 85.0 11.7 84.0 11.8 82.0 12.3 C 82.2 12.3 82.6 12.2 82.6 12.2 C 84.1 11.9 83.1 12.4 81.5 12.6 C 82.0 12.6 83.4 12.4 84.5 12.2 C 84.2 12.2 83.8 12.2 83.8 12.1 C 85.1 11.8 84.7 12.1 85.6 11.9 C 85.6 12.1 83.4 12.7 83.3 12.5 C 83.3 12.5 83.3 12.5 83.3 12.5 Z M 208.1 9.3 C 206.9 9.2 209.4 9.8 209.3 10.2 C 210.6 10.4 210.9 10.4 211.7 10.4 C 211.3 10.2 209.9 10.0 209.3 9.8 C 209.6 9.5 211.2 10.1 211.8 10.0 C 212.6 9.7 208.6 9.7 208.1 9.3 C 208.1 9.3 208.1 9.3 208.1 9.3 Z M 28.0 29.6 C 27.4 30.0 27.8 29.9 28.1 29.7 C 28.0 29.8 26.9 30.4 26.8 30.4 C 25.9 30.9 27.4 30.2 26.3 30.8 C 26.2 31.1 28.1 29.9 28.1 29.8 C 29.5 29.0 28.5 29.8 29.0 29.7 C 30.2 29.1 29.7 29.1 31.5 28.3 C 30.3 28.7 29.3 29.1 28.0 29.6 C 28.0 29.6 28.0 29.6 28.0 29.6 Z M 94.6 10.3 C 94.8 10.2 93.2 10.9 91.6 10.9 C 89.5 11.3 92.9 11.0 91.0 11.3 C 92.6 11.1 94.5 10.6 97.0 10.2 C 97.6 10.0 93.6 10.7 95.8 10.2 C 95.7 10.2 95.2 10.3 95.2 10.3 C 94.7 10.4 94.6 10.4 94.6 10.3 C 94.6 10.3 94.6 10.3 94.6 10.3 Z M 92.2 11.3 C 92.4 11.3 92.9 11.2 92.9 11.2 C 93.6 11.1 93.7 11.3 92.9 11.4 C 94.0 11.5 93.8 11.0 95.9 10.9 C 95.0 10.8 94.6 10.7 96.5 10.6 C 98.0 10.2 92.9 11.0 92.2 11.3 C 92.2 11.3 92.2 11.3 92.2 11.3 Z M 188.0 7.4 C 188.2 7.6 189.6 7.6 190.6 7.7 C 189.3 7.8 184.2 7.3 183.6 7.1 C 183.0 7.1 182.4 7.1 182.2 7.0 C 182.3 7.1 180.9 7.1 181.6 7.2 C 181.5 7.3 180.3 7.2 180.3 7.3 C 178.4 7.1 180.9 7.2 180.4 7.0 C 178.0 7.1 178.5 6.9 175.8 6.8 C 176.3 7.0 179.3 7.1 179.0 7.4 C 181.2 7.2 183.5 7.6 184.8 7.9 C 182.8 7.4 190.3 7.8 193.7 8.2 C 193.6 8.3 194.8 8.4 196.2 8.6 C 197.2 9.0 196.9 8.4 195.0 8.3 C 195.1 8.2 197.7 8.6 198.8 8.6 C 197.5 8.4 198.2 8.3 197.6 8.2 C 195.1 7.9 197.3 8.2 196.9 8.4 C 196.3 8.3 195.6 8.3 195.0 8.2 C 198.3 8.1 190.2 7.7 193.1 7.9 C 190.5 7.7 190.5 7.5 188.0 7.4 C 188.0 7.4 188.0 7.4 188.0 7.4 Z M 127.2 6.9 C 126.7 7.0 124.7 7.3 124.6 7.1 C 122.0 7.5 124.3 7.5 121.4 7.7 C 121.6 7.8 122.7 7.7 122.7 7.8 C 123.8 7.7 125.0 7.5 124.6 7.3 C 125.9 7.2 126.3 7.1 127.2 7.0 C 126.9 7.1 126.4 7.2 125.3 7.3 C 125.1 7.5 125.5 7.6 127.2 7.5 C 128.0 7.3 127.4 7.1 127.2 6.9 C 127.2 6.9 127.2 6.9 127.2 6.9 Z M 120.8 7.7 C 120.5 7.7 120.1 7.6 120.1 7.5 C 119.2 7.3 119.8 7.9 118.9 8.0 C 118.1 8.0 118.4 7.9 118.2 7.8 C 117.1 7.9 116.3 8.0 115.7 8.0 C 114.0 8.3 117.7 8.0 118.3 8.1 C 119.5 8.0 119.0 7.8 120.8 7.7 C 120.8 7.7 120.8 7.7 120.8 7.7 Z M 101.9 9.4 C 101.6 9.2 101.0 9.6 100.1 9.7 C 100.7 9.9 102.5 9.5 101.4 10.0 C 103.2 9.8 103.3 9.8 105.1 9.5 C 106.3 9.6 105.1 9.3 103.2 9.6 C 103.4 9.5 104.3 9.4 104.4 9.3 C 105.7 9.6 108.7 8.5 106.9 9.0 C 106.3 9.0 106.0 9.0 105.7 8.9 C 105.3 9.2 101.0 9.6 101.9 9.4 C 101.9 9.4 101.9 9.4 101.9 9.4 Z M 43.6 23.1 C 45.2 22.5 46.1 22.2 46.9 21.9 C 47.8 21.6 49.1 21.1 50.1 20.8 C 50.2 20.9 50.0 21.0 49.7 21.2 C 50.1 21.1 50.7 20.9 51.6 20.5 C 51.5 20.4 51.1 20.6 51.1 20.7 C 49.5 21.0 50.8 20.6 51.0 20.3 C 49.0 20.7 45.9 22.3 44.3 22.5 C 43.1 23.1 44.6 22.6 43.6 23.1 C 43.6 23.1 43.6 23.1 43.6 23.1 Z M 301.5 61.9 C 301.4 62.1 301.2 62.8 301.4 62.7 C 301.6 62.1 301.7 61.7 301.8 61.2 C 301.4 62.2 301.2 61.9 300.5 63.2 C 300.8 62.9 301.0 63.1 301.5 61.9 C 301.5 61.9 301.5 61.9 301.5 61.9 Z M 108.2 8.7 C 108.2 8.8 108.3 9.0 107.6 9.1 C 107.3 9.3 109.3 8.9 109.4 9.1 C 110.1 9.0 109.8 8.9 110.7 8.8 C 110.4 8.7 108.7 8.9 109.4 8.6 C 109.9 8.5 110.0 8.6 110.1 8.6 C 111.3 8.4 109.4 8.5 108.2 8.7 C 108.2 8.7 108.2 8.7 108.2 8.7 Z M 214.2 10.4 C 213.4 10.3 214.2 10.5 214.8 10.6 C 213.0 10.6 215.8 11.2 215.9 11.5 C 215.2 11.1 212.7 10.9 212.3 10.8 C 211.6 10.7 212.4 11.1 210.4 10.8 C 210.7 11.1 212.8 11.2 212.3 10.9 C 212.8 11.3 214.9 11.3 214.7 11.5 C 217.4 12.0 218.1 11.9 218.3 11.7 C 215.7 11.4 217.1 11.2 214.8 10.9 C 214.8 10.8 215.5 10.9 216.0 11.0 C 215.8 10.8 214.8 10.6 214.2 10.4 C 214.2 10.4 214.2 10.4 214.2 10.4 Z M 147.9 6.3 C 146.4 6.3 146.5 6.5 146.6 6.7 C 147.1 6.7 148.0 6.6 149.2 6.6 C 148.9 6.5 147.1 6.6 147.9 6.3 C 147.9 6.3 147.9 6.3 147.9 6.3 Z M 204.3 9.4 C 204.2 9.3 203.7 9.3 203.7 9.3 C 202.2 9.2 201.8 9.0 201.3 8.8 C 200.4 8.8 200.7 9.0 200.6 9.1 C 202.1 9.0 201.8 9.3 203.7 9.5 C 203.6 9.4 203.9 9.4 204.3 9.4 C 204.3 9.4 204.3 9.4 204.3 9.4 Z M 161.5 6.5 C 160.8 6.5 161.2 6.5 161.5 6.5 C 160.6 6.8 158.0 6.5 157.0 6.7 C 156.8 6.9 160.1 6.8 156.3 6.9 C 157.0 7.1 160.5 7.0 162.2 7.0 C 161.8 7.2 159.4 7.2 159.6 7.5 C 161.6 7.3 163.8 7.3 164.1 6.9 C 161.2 6.8 162.2 6.6 161.5 6.5 C 161.5 6.5 161.5 6.5 161.5 6.5 Z M 164.8 6.7 C 164.5 6.6 163.9 6.7 162.9 6.6 C 164.4 7.0 165.4 6.9 168.7 7.0 C 168.7 7.0 168.7 6.9 168.7 6.9 C 169.3 6.9 170.0 6.9 170.6 6.9 C 167.8 6.6 167.1 6.7 164.1 6.7 C 164.0 6.7 164.4 6.7 164.8 6.7 C 164.8 6.7 164.8 6.7 164.8 6.7 Z M 80.4 13.2 C 81.2 13.2 81.9 13.2 83.4 13.0 C 83.2 12.8 82.3 12.8 80.4 13.2 C 80.4 13.2 80.4 13.2 80.4 13.2 Z M 206.8 9.9 C 208.5 9.9 205.2 9.7 206.2 10.0 C 207.5 10.3 208.9 10.6 209.2 10.8 C 211.7 10.8 206.5 10.1 206.8 9.9 C 206.8 9.9 206.8 9.9 206.8 9.9 Z M 195.5 9.2 C 194.8 9.1 194.8 8.7 195.6 9.0 C 197.3 9.2 194.1 8.7 196.8 9.0 C 195.7 8.8 193.0 8.4 191.8 8.5 C 191.8 8.7 194.2 8.8 194.3 9.0 C 194.4 9.1 194.0 9.1 193.6 9.0 C 193.9 9.2 194.4 9.1 195.5 9.2 C 195.5 9.2 195.5 9.2 195.5 9.2 Z M 186.1 8.0 C 187.1 8.2 188.3 8.4 190.5 8.6 C 189.1 8.3 188.3 8.0 186.1 8.0 C 186.1 8.0 186.1 8.0 186.1 8.0 Z M 296.6 42.7 C 295.9 41.9 296.3 42.8 296.4 42.9 C 297.1 43.8 297.2 43.7 297.9 44.7 C 297.9 44.2 296.9 43.5 296.6 42.7 C 296.6 42.7 296.6 42.7 296.6 42.7 Z M 298.9 46.1 C 298.8 46.3 299.6 47.5 299.5 47.6 C 300.3 48.1 300.1 49.5 300.4 49.3 C 300.5 49.6 300.6 49.9 300.7 50.4 C 300.8 49.3 299.6 47.1 298.9 46.1 C 298.9 46.1 298.9 46.1 298.9 46.1 Z M 175.1 7.8 C 173.4 7.7 175.6 8.2 173.8 8.1 C 173.7 8.2 177.1 8.4 175.1 8.4 C 177.7 8.7 174.9 7.9 175.1 7.8 C 175.1 7.8 175.1 7.8 175.1 7.8 Z M 143.4 7.8 C 143.5 7.6 141.1 7.8 140.1 7.8 C 140.1 7.8 140.9 7.8 141.4 7.8 C 141.2 7.9 140.8 8.0 140.1 8.0 C 140.7 8.2 142.4 7.8 143.4 7.8 C 143.4 7.8 143.4 7.8 143.4 7.8 Z M 178.6 3.8 C 179.6 4.1 181.0 4.4 181.8 4.1 C 182.9 4.4 181.0 4.3 182.4 4.5 C 184.2 4.5 183.3 4.7 186.3 4.8 C 185.7 5.1 187.8 5.2 188.2 5.4 C 187.0 5.4 185.5 5.0 184.9 5.2 C 185.9 5.3 185.4 5.5 184.9 5.3 C 183.0 5.0 187.3 5.1 185.0 4.8 C 184.3 5.1 180.8 4.3 178.6 4.2 C 179.5 4.0 176.9 3.8 178.6 3.8 C 178.6 3.8 178.6 3.8 178.6 3.8 Z M 190.1 5.1 C 191.7 5.2 192.4 5.8 192.0 5.7 C 192.0 5.6 190.3 5.5 190.1 5.6 C 190.5 5.6 190.9 5.7 190.8 5.7 C 187.9 5.5 188.9 5.3 188.2 5.1 C 189.8 5.1 190.2 5.3 190.8 5.2 C 190.4 5.2 190.0 5.2 190.1 5.1 C 190.1 5.1 190.1 5.1 190.1 5.1 Z M 222.4 13.2 C 222.1 13.0 221.7 13.1 221.2 13.0 C 221.1 12.7 218.0 12.6 217.6 12.4 C 218.3 12.4 219.9 12.6 220.6 12.6 C 219.8 12.5 219.7 12.4 218.8 12.3 C 219.0 12.1 220.8 12.4 221.3 12.3 C 221.4 12.5 222.3 12.4 222.5 12.6 C 220.1 12.3 223.7 13.4 222.4 13.2 C 222.4 13.2 222.4 13.2 222.4 13.2 Z M 160.3 7.7 C 160.0 8.0 162.8 8.6 160.2 8.8 C 159.7 8.6 159.4 8.4 159.6 8.1 C 158.0 8.3 157.3 8.0 156.3 8.3 C 153.4 7.5 158.6 8.3 160.3 7.7 C 160.3 7.7 160.3 7.7 160.3 7.7 Z M 149.8 8.0 C 150.4 7.7 148.9 7.8 149.2 7.6 C 150.4 7.7 154.5 7.5 153.1 7.6 C 151.8 7.7 151.8 7.9 149.8 8.0 C 149.8 8.0 149.8 8.0 149.8 8.0 Z M 75.6 97.4 C 73.8 97.2 72.9 96.6 74.0 96.7 C 73.5 96.8 76.3 97.3 75.6 97.4 C 75.6 97.4 75.6 97.4 75.6 97.4 Z M 7.1 69.3 C 7.9 70.7 8.6 71.3 8.6 71.6 C 7.5 70.5 7.7 70.5 6.9 69.4 C 6.8 69.4 6.3 68.8 6.3 68.6 C 6.7 69.2 6.7 69.0 7.1 69.3 C 7.1 69.3 7.1 69.3 7.1 69.3 Z M 110.2 4.5 C 110.0 4.4 109.3 4.4 109.6 4.2 C 111.5 4.1 113.7 3.7 115.3 3.4 C 115.3 3.5 115.3 3.7 115.3 3.8 C 112.2 3.9 111.5 4.2 110.2 4.5 C 110.2 4.5 110.2 4.5 110.2 4.5 Z M 106.4 4.4 C 106.1 4.6 107.2 4.8 105.8 4.9 C 105.8 4.7 103.4 4.7 104.5 4.6 C 104.9 4.7 105.5 4.6 106.4 4.4 C 106.4 4.4 106.4 4.4 106.4 4.4 Z M 214.7 7.2 C 216.2 7.4 214.0 6.9 214.1 6.8 C 215.2 7.0 216.7 7.2 217.1 7.4 C 216.1 7.3 215.2 7.5 214.7 7.2 C 214.7 7.2 214.7 7.2 214.7 7.2 Z M 191.4 5.1 C 188.1 4.9 189.6 4.6 186.3 4.3 C 187.7 4.2 190.6 4.5 191.5 4.3 C 191.4 4.5 192.2 4.6 192.1 4.7 C 190.9 4.6 190.7 4.5 189.5 4.4 C 190.0 4.7 190.0 4.6 189.5 4.8 C 190.4 4.9 190.9 4.9 191.4 4.9 C 191.2 5.0 192.4 5.2 191.4 5.1 C 191.4 5.1 191.4 5.1 191.4 5.1 Z M 214.0 7.8 C 215.2 7.9 216.3 8.4 215.2 8.2 C 215.0 8.0 214.2 8.1 213.9 7.9 C 215.7 8.1 212.5 7.6 213.4 7.5 C 214.5 7.7 214.8 7.7 214.6 7.5 C 215.3 7.6 216.4 7.7 216.5 7.8 C 216.0 7.8 215.3 7.6 215.3 7.7 C 215.6 7.8 216.0 7.8 215.8 7.9 C 214.8 7.7 214.3 7.7 214.0 7.8 C 214.0 7.8 214.0 7.8 214.0 7.8 Z M 205.3 6.6 C 207.0 6.9 207.2 7.1 207.8 7.3 C 205.5 7.0 205.2 6.6 203.5 6.3 C 205.4 6.5 207.3 6.5 207.9 6.7 C 207.0 6.7 205.5 6.5 205.3 6.6 C 205.3 6.6 205.3 6.6 205.3 6.6 Z M 238.0 98.1 C 236.7 98.3 235.6 98.4 234.0 98.6 C 233.6 99.0 236.5 98.8 235.3 98.9 C 233.7 99.3 234.7 98.7 233.5 99.0 C 234.8 99.0 228.0 100.4 227.7 100.1 C 228.7 99.9 229.0 99.8 228.8 99.7 C 231.5 99.2 232.5 98.7 234.5 98.3 C 236.0 98.3 240.3 97.4 242.4 96.5 C 244.0 96.6 246.4 95.5 248.5 95.3 C 249.0 95.0 246.8 95.5 248.4 95.0 C 249.5 95.0 248.7 95.3 250.1 95.0 C 250.2 94.9 249.9 94.8 250.6 94.6 C 250.5 94.7 251.4 94.5 251.7 94.5 C 248.8 95.3 252.0 94.8 249.7 95.5 C 248.7 95.6 250.6 94.8 248.0 95.5 C 247.1 95.8 246.2 96.2 246.4 96.3 C 245.7 96.5 245.3 96.7 244.8 96.8 C 245.8 96.3 241.1 97.9 243.1 97.0 C 243.3 97.0 244.8 96.6 245.9 96.2 C 244.8 96.2 243.7 96.7 242.0 97.2 C 241.2 97.2 242.3 96.9 241.4 97.0 C 240.1 97.5 241.9 97.3 240.9 97.6 C 241.4 97.5 242.0 97.4 242.0 97.4 C 239.7 97.8 238.8 98.2 237.5 98.5 C 238.3 98.2 236.1 98.6 238.0 98.1 C 238.0 98.1 238.0 98.1 238.0 98.1 Z M 257.4 92.6 C 257.9 92.4 258.4 92.3 258.9 92.1 C 259.1 92.3 257.2 93.0 258.6 92.7 C 256.3 93.4 258.6 92.4 257.4 92.6 C 257.4 92.6 257.4 92.6 257.4 92.6 Z M 246.7 94.8 C 245.8 94.8 246.4 95.2 245.6 95.4 C 246.9 95.0 248.1 94.6 248.4 94.8 C 246.8 95.2 246.1 95.4 244.6 95.8 C 246.0 95.1 242.8 96.0 242.2 95.8 C 243.4 95.5 244.4 95.1 246.0 94.7 C 245.8 94.9 248.2 94.4 246.7 94.8 C 246.7 94.8 246.7 94.8 246.7 94.8 Z M 250.8 93.3 C 251.2 93.4 253.5 92.6 253.0 93.0 C 251.6 93.4 251.1 93.6 251.5 93.7 C 250.5 94.0 250.3 94.0 249.4 94.2 C 248.7 94.1 250.4 93.7 250.9 93.4 C 250.6 93.5 250.2 93.5 250.8 93.3 C 250.8 93.3 250.8 93.3 250.8 93.3 Z M 295.0 69.9 C 295.5 69.7 293.9 71.1 293.5 71.4 C 294.1 71.1 294.0 71.4 293.0 72.4 C 293.2 71.8 291.7 73.2 290.5 73.7 C 290.4 74.1 291.8 73.1 290.2 74.4 C 289.0 75.3 287.9 76.2 285.7 77.6 C 285.1 77.7 286.0 77.1 286.5 76.6 C 285.1 77.6 285.4 77.2 284.3 77.9 C 284.5 77.9 283.6 78.5 283.2 78.6 C 285.2 77.3 280.2 80.0 282.4 78.6 C 282.6 78.6 283.1 78.3 283.5 77.9 C 283.1 78.6 285.8 76.8 286.5 76.6 C 287.2 75.4 290.0 73.8 292.5 71.8 C 292.8 71.8 292.1 72.5 292.7 72.0 C 292.7 71.8 293.5 71.2 293.8 70.8 C 293.8 70.9 294.2 70.7 294.7 70.3 C 294.7 70.2 294.7 70.1 295.0 69.9 C 295.0 69.9 295.0 69.9 295.0 69.9 Z M 134.9 103.5 C 135.0 103.1 130.9 103.2 129.7 103.2 C 129.9 102.8 137.2 103.3 134.9 103.5 C 134.9 103.5 134.9 103.5 134.9 103.5 Z M 160.2 103.6 C 159.1 103.7 159.9 103.9 158.9 103.9 C 158.9 103.6 156.4 104.2 156.3 103.9 C 157.5 103.7 158.3 103.7 160.2 103.6 C 160.2 103.6 160.2 103.6 160.2 103.6 Z M 183.5 102.8 C 181.6 103.0 184.5 102.9 184.1 103.0 C 182.5 103.1 180.8 103.2 180.9 103.0 C 182.4 103.0 183.3 102.6 183.5 102.8 C 183.5 102.8 183.5 102.8 183.5 102.8 Z M 148.5 103.4 C 146.9 103.3 149.5 103.0 149.8 103.2 C 148.1 103.2 150.9 103.4 152.4 103.3 C 152.3 103.6 151.7 103.6 152.4 103.8 C 150.1 103.9 152.0 103.6 150.4 103.6 C 149.3 103.7 150.5 103.7 150.4 103.9 C 149.8 103.9 149.2 103.9 148.5 103.9 C 148.5 103.7 148.5 103.6 148.5 103.5 C 149.3 103.5 150.0 103.5 149.8 103.3 C 149.2 103.3 149.0 103.4 148.5 103.4 C 148.5 103.4 148.5 103.4 148.5 103.4 Z M 263.8 87.1 C 262.5 87.6 263.7 87.2 264.6 86.9 C 264.8 86.7 265.5 86.0 267.0 85.7 C 263.9 87.1 268.1 85.6 266.4 86.4 C 265.6 86.5 263.7 87.5 262.1 88.0 C 261.4 88.0 263.0 87.1 263.8 87.1 C 263.8 87.1 263.8 87.1 263.8 87.1 Z M 269.5 85.0 C 269.3 85.0 268.8 85.2 267.8 85.6 C 268.8 85.0 267.4 85.5 268.6 85.0 C 268.5 85.1 272.5 83.5 270.2 84.6 C 268.0 85.3 270.8 84.4 271.8 84.1 C 270.7 84.5 269.0 85.5 268.7 85.4 C 269.2 85.2 269.6 85.0 269.5 85.0 C 269.5 85.0 269.5 85.0 269.5 85.0 Z M 299.7 62.4 C 299.6 62.2 299.3 62.8 299.1 62.9 C 300.1 61.2 300.5 59.7 300.8 58.9 C 300.6 59.7 300.7 59.8 301.0 59.3 C 300.6 60.2 300.7 60.4 300.5 60.7 C 300.5 59.9 300.2 61.3 299.7 62.4 C 299.7 62.4 299.7 62.4 299.7 62.4 Z M 299.7 62.4 " fill="#000000"></path><image xlink:href="../../CEFA4209-80C9-472B-8D2B-058B96531B72/assets/53E6508B25B01044F238EBC363154AD9.png" width="89.00" height="38.00" transform="matrix(1.00, 0.00, -0.00, -1.00, 112.0, 70.0)"></image><g><clipPath id="clip-312"><path d="M 5.6 5.4 L 303.8 5.4 L 303.8 105.4 L 5.6 105.4 Z M 5.6 5.4 "></path></clipPath><g clip-path="url(#clip-312)"><text xml:space="preserve" font-family="Chalkduster" font-size="32.0" fill="#000000" transform="matrix(1.00, 0.00, -0.00, -1.00, 115.0, 41.0)">W</text><text xml:space="preserve" font-family="Chalkduster" font-size="32.0" fill="#000000" transform="matrix(1.00, 0.00, -0.00, -1.00, 144.0, 41.0)">G</text><text xml:space="preserve" font-family="Chalkduster" font-size="32.0" fill="#000000" transform="matrix(1.00, 0.00, -0.00, -1.00, 179.5, 41.0)">S</text></g></g></g></svg>