<?xml version="1.0" encoding="UTF-8" standalone="no"?><svg xmlns="http://www.w3.org/2000/svg" xmlns:xlink="http://www.w3.org/1999/xlink" clip-rule="evenodd" stroke-miterlimit="4.00" viewBox="0 0 294 121"><desc>SVG generated by Keynote</desc><defs></defs><g transform="matrix(1.00, 0.00, -0.00, -1.00, 0.0, 121.0)"><image xlink:href="D210F0FFC099F76D0849D4F8BB5F5AB9.png" width="291.00" height="118.00" transform="matrix(1.00, 0.00, -0.00, -1.00, 1.5, 119.1)" opacity="0.50"></image><path d="M 10.5 110.1 L 283.1 110.1 L 283.1 10.1 L 10.5 10.1 Z M 10.5 110.1 " fill="#010101"></path><path d="M 286.9 44.5 C 286.9 43.9 286.9 43.3 286.9 42.3 C 286.8 42.7 286.7 43.1 286.6 43.1 C 286.7 43.9 286.7 45.0 286.7 46.7 C 286.8 46.7 286.8 45.8 286.8 45.2 C 286.8 44.5 286.9 44.6 286.9 44.5 C 286.9 44.5 286.9 44.5 286.9 44.5 Z M 124.2 6.8 C 125.6 6.8 124.0 6.6 123.5 6.6 C 123.4 6.6 123.3 6.7 122.8 6.7 C 122.6 6.5 123.9 6.4 124.8 6.3 C 128.7 6.4 125.9 6.8 124.2 6.8 C 124.2 6.8 124.2 6.8 124.2 6.8 Z M 7.4 77.7 C 7.3 80.8 7.6 77.6 7.7 77.2 C 7.7 78.6 8.1 77.6 8.2 79.4 C 8.0 79.7 8.0 80.4 7.8 80.7 C 7.8 79.9 7.8 78.7 7.8 78.5 C 7.7 79.6 7.8 81.2 7.7 81.3 C 7.6 78.9 7.4 80.9 7.3 81.2 C 7.3 79.1 7.1 78.3 7.4 77.7 C 7.4 77.7 7.4 77.7 7.4 77.7 Z M 131.8 112.8 C 131.0 112.8 130.2 112.8 130.4 112.6 C 131.3 112.6 131.9 112.7 132.5 112.7 C 132.6 112.6 132.2 112.5 133.0 112.5 C 134.1 112.7 133.7 113.0 133.3 113.1 C 133.2 112.9 130.1 113.0 131.8 112.8 C 131.8 112.8 131.8 112.8 131.8 112.8 Z M 209.4 112.4 C 212.1 112.5 209.3 112.0 212.0 112.2 C 212.1 112.4 212.7 112.6 210.9 112.6 C 210.7 112.5 209.7 112.5 209.4 112.4 C 209.4 112.4 209.4 112.4 209.4 112.4 Z M 17.8 8.8 C 17.6 8.7 15.8 8.7 16.1 8.5 C 17.0 8.5 17.9 8.5 18.8 8.5 C 19.2 8.7 19.0 8.8 17.8 8.8 C 17.8 8.8 17.8 8.8 17.8 8.8 Z M 9.7 99.1 C 9.4 102.3 9.8 105.6 9.6 104.6 C 9.3 105.8 8.8 102.4 9.1 102.5 C 9.4 102.2 9.7 96.6 9.7 99.1 C 9.7 99.1 9.7 99.1 9.7 99.1 Z M 109.3 11.0 C 106.0 10.8 106.8 11.5 104.6 11.1 C 105.3 11.1 105.6 11.0 105.9 11.0 C 105.4 11.0 104.6 11.0 104.5 10.9 C 106.1 10.9 107.9 10.8 109.3 11.0 C 109.3 11.0 109.3 11.0 109.3 11.0 Z M 286.4 94.1 C 286.4 94.6 286.4 95.0 286.5 95.0 C 286.5 97.2 286.7 97.3 286.5 98.6 C 286.2 98.4 286.3 96.6 286.4 94.9 C 286.3 94.7 286.3 94.2 286.4 94.1 C 286.4 94.1 286.4 94.1 286.4 94.1 Z M 243.2 112.6 C 243.5 112.8 244.8 112.8 242.8 112.9 C 240.3 112.6 242.1 112.4 244.4 112.2 C 244.3 112.1 244.2 112.0 244.1 111.9 C 243.1 111.9 242.5 111.9 241.9 111.8 C 241.9 112.2 239.7 111.5 236.4 111.8 C 237.9 111.6 235.9 111.3 238.2 111.4 C 237.4 111.2 239.0 111.2 238.5 111.0 C 237.7 111.2 235.3 111.1 236.1 111.4 C 234.9 111.5 234.0 111.4 233.3 111.4 C 232.2 111.1 235.5 111.3 234.4 111.0 C 233.7 111.0 233.5 111.0 233.0 111.0 C 232.9 111.1 233.3 111.2 232.5 111.2 C 230.2 111.1 232.7 110.9 229.5 110.9 C 229.4 111.0 230.4 111.1 230.5 111.2 C 229.2 111.3 229.1 111.1 227.8 111.3 C 227.4 111.1 228.6 111.1 227.6 111.0 C 227.0 111.4 224.5 110.8 222.8 111.1 C 224.6 111.6 222.4 111.0 221.1 111.5 C 220.6 111.4 221.6 111.1 220.0 111.0 C 221.1 111.7 214.8 111.5 220.1 112.0 C 217.5 112.0 217.0 112.5 219.1 112.6 C 214.5 112.4 216.2 112.8 214.5 112.8 C 212.7 112.8 215.3 112.7 214.2 112.5 C 216.1 112.5 215.5 112.4 217.0 112.5 C 216.9 112.4 217.2 112.3 217.5 112.2 C 215.8 112.4 213.3 112.1 214.4 111.8 C 215.4 111.8 214.7 112.1 216.0 112.1 C 215.3 111.7 217.4 112.1 217.3 111.9 C 216.2 111.6 218.7 111.3 216.1 111.3 C 216.2 111.4 216.3 111.6 216.4 111.7 C 215.7 111.7 215.0 111.7 214.4 111.7 C 213.6 111.4 213.9 111.3 213.3 111.2 C 212.1 111.2 211.6 111.3 211.3 111.4 C 212.8 111.4 214.6 111.6 212.3 111.7 C 212.8 111.2 208.9 111.6 210.6 111.3 C 207.9 111.1 207.0 111.5 206.5 111.2 C 205.1 111.2 206.2 111.5 204.6 111.4 C 201.9 111.2 202.6 111.6 199.0 111.4 C 198.9 111.8 198.6 111.3 197.6 111.3 C 197.7 111.4 197.8 111.6 197.8 111.7 C 196.5 111.5 193.7 111.4 191.0 111.6 C 190.2 111.5 190.6 111.3 188.7 111.4 C 187.0 111.7 184.3 111.3 182.1 111.7 C 181.8 111.5 180.1 111.5 179.3 111.6 C 178.9 111.5 179.9 111.2 178.4 111.2 C 177.5 111.4 179.3 111.5 177.3 111.6 C 177.3 111.4 175.4 111.8 175.1 111.5 C 175.8 111.4 176.4 111.4 177.1 111.3 C 176.1 111.3 176.3 111.1 175.6 111.1 C 175.9 111.5 174.1 111.2 173.5 111.1 C 173.6 111.3 173.5 111.4 173.0 111.4 C 171.8 111.4 170.9 111.5 170.3 111.5 C 168.7 111.4 171.1 111.3 169.5 111.3 C 169.1 111.9 167.2 111.2 164.2 111.6 C 163.4 111.4 162.0 111.3 159.9 111.3 C 159.8 111.5 161.9 111.4 162.1 111.5 C 159.1 111.5 162.7 111.7 160.8 111.7 C 156.4 111.6 153.6 111.6 149.0 111.4 C 149.1 111.5 145.7 111.7 145.7 111.6 C 146.6 111.6 143.6 111.3 142.1 111.3 C 141.9 111.7 139.8 112.1 139.8 112.2 C 139.1 112.1 139.3 112.0 138.8 111.7 C 136.2 111.6 135.1 111.9 133.3 111.5 C 133.5 111.7 132.3 111.8 131.3 111.8 C 131.5 111.7 132.1 111.5 132.5 111.4 C 131.2 111.4 131.0 111.3 129.8 111.3 C 128.9 112.0 126.5 111.1 125.8 111.8 C 123.9 111.8 124.1 111.5 122.3 111.5 C 122.4 111.7 122.3 111.8 121.8 111.8 C 122.9 111.8 123.7 111.6 124.5 111.8 C 121.9 111.9 129.8 112.5 125.6 112.8 C 125.4 112.7 125.7 112.5 124.8 112.5 C 122.3 112.6 123.9 112.8 124.9 112.8 C 123.3 112.9 121.5 112.8 123.0 113.1 C 119.2 113.2 121.5 113.0 120.1 112.9 C 113.3 113.1 104.7 113.2 95.3 112.9 C 95.1 113.2 90.0 112.9 88.3 112.7 C 85.8 113.0 83.1 113.0 82.2 112.7 C 81.8 113.0 78.9 112.5 78.7 112.8 C 79.8 112.8 80.6 112.9 79.5 113.0 C 75.6 112.8 69.9 112.7 67.7 113.0 C 66.3 112.6 63.8 112.7 62.2 112.9 C 61.9 112.7 63.2 112.7 62.1 112.6 C 61.8 112.8 58.3 113.0 57.4 112.8 C 58.5 112.8 59.6 112.5 58.0 112.5 C 58.0 112.6 56.2 112.6 56.7 112.8 C 54.4 112.7 53.0 112.8 51.1 112.7 C 52.7 112.7 53.6 112.6 53.8 112.4 C 52.5 112.5 51.5 112.6 50.4 112.4 C 50.7 112.8 48.6 112.5 46.4 112.7 C 45.7 112.6 45.3 112.5 43.5 112.5 C 42.7 112.7 46.3 112.7 44.3 112.8 C 44.3 112.7 42.4 112.5 42.9 112.8 C 40.5 112.7 39.3 112.9 37.4 112.6 C 39.8 112.7 37.9 112.4 37.3 112.3 C 36.8 112.3 36.0 112.3 36.0 112.4 C 36.0 112.5 37.2 112.5 37.4 112.6 C 35.7 112.5 35.2 112.9 34.6 112.6 C 35.3 112.6 35.5 112.5 34.6 112.5 C 34.4 112.9 29.5 112.6 31.2 112.4 C 31.2 112.5 33.1 112.5 33.2 112.4 C 32.7 112.3 29.9 112.4 30.5 112.2 C 32.1 112.1 32.0 112.3 33.9 112.2 C 34.1 112.1 35.2 112.0 36.0 111.9 C 32.9 111.9 32.2 112.2 31.8 111.9 C 30.5 111.9 31.3 112.2 29.1 112.2 C 25.9 112.1 28.5 111.8 27.7 111.8 C 24.9 111.9 25.8 112.2 27.0 112.5 C 24.8 112.5 24.1 112.6 21.5 112.6 C 21.6 112.4 22.0 112.3 22.9 112.2 C 23.0 112.3 25.2 112.5 25.0 112.3 C 24.8 112.0 23.0 111.8 20.1 111.8 C 20.8 112.1 20.9 111.9 18.1 111.9 C 18.6 112.3 16.7 111.9 16.7 112.1 C 16.8 112.2 17.8 112.2 18.7 112.2 C 18.7 112.3 18.4 112.4 17.4 112.5 C 16.8 112.4 16.3 112.5 14.7 112.4 C 14.5 112.2 15.7 112.2 16.0 112.0 C 15.1 112.0 14.9 112.1 13.9 112.2 C 13.1 111.9 13.2 111.6 13.2 111.3 C 14.3 111.2 16.0 111.2 14.6 111.0 C 18.6 111.0 14.4 111.4 16.0 111.4 C 17.6 111.1 16.7 111.6 19.4 111.5 C 20.2 111.5 20.5 111.4 20.8 111.4 C 20.6 111.3 19.0 111.0 20.8 111.0 C 21.2 111.2 22.1 111.3 23.5 111.4 C 23.5 111.2 20.7 111.1 23.5 111.1 C 24.9 111.1 23.7 111.5 25.6 111.4 C 25.6 111.4 26.1 111.3 26.3 111.3 C 23.5 111.3 26.8 111.1 24.9 111.0 C 27.3 110.8 25.3 111.2 26.9 111.2 C 27.0 111.0 29.6 111.3 29.7 111.0 C 28.7 111.2 26.7 111.1 26.9 110.9 C 28.7 110.9 37.0 110.7 33.8 111.1 C 35.0 111.0 41.0 110.6 40.6 110.8 C 38.8 110.8 38.9 111.0 38.6 111.1 C 42.0 110.8 43.7 111.0 47.4 110.7 C 43.4 110.7 46.4 110.3 44.0 110.1 C 42.9 110.1 41.4 110.0 41.2 110.2 C 41.7 110.4 43.3 110.3 44.0 110.2 C 44.0 110.4 44.0 110.6 44.1 110.8 C 39.6 110.5 37.2 110.8 35.1 110.7 C 36.9 110.7 31.7 110.4 33.7 110.3 C 34.6 110.5 36.8 110.5 38.6 110.6 C 38.5 110.5 38.5 110.4 38.5 110.3 C 39.3 110.3 40.5 110.3 40.5 110.2 C 38.1 110.3 36.7 110.0 35.1 110.2 C 35.1 110.2 35.1 110.1 35.0 110.1 C 34.7 110.1 34.3 110.1 34.4 110.0 C 35.2 110.0 36.3 110.0 36.4 109.9 C 34.6 109.9 34.3 109.6 32.3 109.6 C 32.7 109.3 30.0 109.0 33.0 108.9 C 33.4 109.1 35.0 109.2 35.0 109.4 C 35.9 109.5 37.6 109.4 38.4 109.3 C 37.5 109.1 35.8 109.0 35.7 108.8 C 37.0 108.8 38.2 108.7 39.0 108.9 C 36.1 109.0 40.7 109.1 41.8 109.4 C 41.5 109.2 40.8 109.2 40.4 109.0 C 42.6 109.0 43.7 109.2 43.8 108.9 C 46.5 108.8 46.0 109.1 47.9 109.0 C 46.6 108.7 49.1 108.9 47.8 108.6 C 51.0 108.5 48.8 108.9 49.9 108.9 C 50.9 108.9 51.0 108.7 51.9 108.7 C 53.4 108.9 56.3 108.9 56.8 109.2 C 58.0 109.2 58.3 109.3 59.5 109.3 C 59.8 109.2 60.2 109.1 60.8 109.0 C 61.0 109.1 62.0 109.2 62.2 109.1 C 58.6 108.7 59.6 108.7 55.9 108.5 C 55.7 108.6 55.2 108.6 56.0 108.7 C 53.5 108.8 52.7 108.6 50.5 108.6 C 50.2 108.4 49.7 108.1 47.8 108.3 C 48.2 108.1 47.7 108.0 48.4 107.9 C 49.5 108.1 51.0 108.2 52.5 108.2 C 52.6 108.1 52.4 108.0 53.1 108.0 C 53.9 108.1 55.0 108.2 55.9 108.1 C 56.0 108.2 55.6 108.3 55.2 108.3 C 58.6 108.4 57.4 108.1 60.0 108.2 C 59.6 108.1 57.9 108.1 59.3 107.9 C 61.6 107.9 62.1 108.0 63.3 108.1 C 63.5 108.0 63.4 107.9 64.0 107.9 C 65.7 108.1 60.5 108.4 63.5 108.7 C 63.6 108.5 66.5 108.6 66.9 108.7 C 66.0 108.9 64.3 108.6 64.2 108.8 C 69.4 108.8 64.4 109.2 69.7 109.3 C 69.7 109.2 69.7 109.1 69.7 109.0 C 67.5 109.0 67.4 108.8 67.5 108.6 C 65.7 108.5 64.9 108.2 63.4 108.4 C 63.9 107.9 64.9 108.4 66.8 108.4 C 66.7 108.2 65.0 108.1 64.7 107.9 C 69.1 108.1 69.9 107.8 74.2 108.2 C 73.1 107.9 76.5 108.1 76.2 107.9 C 72.5 108.0 73.9 107.3 73.3 107.2 C 70.9 107.2 72.1 107.7 70.7 107.8 C 70.0 107.6 70.3 107.5 70.6 107.1 C 72.7 107.2 72.4 107.2 74.0 107.0 C 75.4 107.2 76.7 107.7 74.8 107.8 C 75.2 107.8 77.9 107.7 78.2 107.8 C 75.5 107.8 78.5 108.0 76.9 108.1 C 79.0 108.2 82.6 107.9 85.1 108.2 C 84.8 108.0 85.8 108.0 85.6 107.8 C 83.2 108.1 82.6 107.5 80.2 107.5 C 81.2 107.5 80.6 107.3 80.1 107.3 C 82.5 107.4 83.8 107.2 85.5 107.4 C 85.5 107.4 85.5 107.3 85.5 107.2 C 88.4 107.4 88.0 107.3 90.2 107.1 C 91.1 107.3 90.0 107.7 89.8 107.9 C 90.8 107.8 94.7 107.9 92.4 107.6 C 94.7 107.6 94.2 107.9 96.5 107.9 C 96.5 107.7 94.3 107.7 95.0 107.4 C 97.2 107.3 96.0 107.7 97.7 107.4 C 97.9 107.6 98.0 107.9 99.8 107.8 C 98.4 107.7 100.0 107.8 100.5 107.6 C 99.6 107.6 98.9 107.5 98.4 107.4 C 101.8 107.5 102.4 107.5 105.1 107.4 C 104.2 107.7 105.7 107.8 103.9 107.9 C 105.6 107.7 107.8 108.1 108.7 107.9 C 107.6 107.8 105.9 107.8 105.2 107.7 C 110.6 107.6 113.3 107.3 118.0 107.7 C 117.3 107.7 116.1 107.7 116.0 107.8 C 116.6 107.8 117.4 107.8 117.4 107.8 C 115.8 107.8 114.2 107.8 113.4 107.9 C 111.9 107.8 114.2 107.7 112.6 107.7 C 112.4 107.8 109.5 107.7 110.7 108.0 C 113.2 107.8 115.7 108.0 117.0 108.4 C 119.2 108.0 117.0 108.0 119.4 107.5 C 119.3 107.7 120.0 107.7 120.8 107.8 C 119.8 107.4 123.1 107.6 123.4 107.6 C 122.3 107.8 117.9 107.9 120.3 108.2 C 119.0 107.6 125.6 108.4 124.2 107.9 C 127.1 107.9 126.2 108.2 127.6 107.9 C 127.7 108.0 127.6 108.1 128.4 108.2 C 129.2 108.1 129.4 108.1 129.7 108.0 C 125.6 107.9 126.7 107.5 124.0 107.5 C 124.5 107.5 124.9 107.5 124.7 107.4 C 124.7 107.4 124.8 107.3 125.4 107.4 C 125.7 107.7 127.4 107.3 128.1 107.5 C 127.3 107.5 126.5 107.5 126.9 107.7 C 130.2 107.6 129.8 107.9 134.4 108.1 C 133.0 107.9 134.8 107.9 136.4 107.8 C 138.6 107.9 138.0 108.3 140.7 108.2 C 140.1 107.6 143.5 108.3 146.6 107.9 C 146.4 108.2 150.7 108.4 151.4 108.1 C 151.6 108.2 153.1 108.2 154.2 108.2 C 154.5 108.3 153.3 108.4 154.3 108.4 C 155.2 108.4 154.2 108.1 155.4 108.1 C 156.9 108.1 156.8 108.4 159.0 108.4 C 158.9 108.2 157.8 108.2 158.8 108.1 C 160.8 108.2 162.5 108.2 160.8 107.9 C 163.6 107.9 162.4 108.3 165.1 108.3 C 164.2 108.2 164.2 108.1 165.6 108.1 C 166.7 108.3 166.8 108.4 167.2 108.5 C 167.9 108.3 167.6 108.2 169.8 108.3 C 169.8 108.2 169.7 108.1 169.6 108.0 C 170.6 108.0 172.1 108.0 172.4 108.1 C 170.5 108.0 171.2 108.2 170.5 108.3 C 172.4 108.4 176.1 108.6 173.2 108.3 C 175.7 108.2 174.7 108.5 176.7 108.5 C 175.3 108.2 176.6 108.4 178.7 108.4 C 178.3 108.1 180.0 108.4 181.3 108.3 C 181.0 108.1 181.3 108.0 182.5 108.0 C 182.5 108.1 183.3 108.2 184.6 108.2 C 184.5 108.0 181.6 107.9 184.5 107.9 C 185.8 108.0 186.0 108.3 188.1 108.3 C 188.8 108.6 186.3 108.5 187.0 108.7 C 188.6 108.5 189.2 108.7 191.8 108.7 C 190.5 108.3 196.4 108.1 193.3 107.9 C 194.2 107.9 195.1 107.6 195.9 107.8 C 195.1 107.9 196.9 108.1 196.8 108.2 C 198.0 108.1 200.9 108.3 200.8 108.1 C 198.3 108.1 198.1 107.9 197.2 107.8 C 200.9 107.6 204.2 107.7 204.2 108.0 C 204.1 107.9 204.6 107.9 204.7 107.8 C 203.4 107.9 202.3 107.5 203.8 107.4 C 203.6 107.7 204.8 107.8 206.0 107.8 C 205.9 107.6 211.1 107.9 209.9 107.6 C 208.1 107.8 206.3 107.4 207.7 107.3 C 209.1 107.5 211.9 107.6 211.4 107.8 C 212.1 107.8 212.7 107.7 213.3 107.6 C 213.7 107.4 212.2 107.4 212.4 107.2 C 213.3 107.2 214.8 107.2 215.1 107.3 C 212.4 107.3 216.6 107.4 214.0 107.6 C 215.7 107.6 216.2 107.7 217.5 107.8 C 217.5 107.7 218.0 107.7 218.1 107.6 C 217.0 107.7 215.7 107.6 215.8 107.4 C 218.2 107.3 218.1 107.6 220.1 107.6 C 220.6 107.4 223.1 107.1 224.6 107.3 C 221.9 107.3 224.9 107.4 223.4 107.5 C 220.8 107.4 220.4 107.6 219.6 107.8 C 220.8 108.0 222.9 108.1 222.9 107.8 C 221.6 107.7 221.7 107.9 221.0 107.9 C 221.0 107.8 221.3 107.6 222.1 107.6 C 223.4 107.8 225.8 107.6 224.4 107.9 C 226.0 107.8 228.1 108.0 229.7 107.8 C 227.7 107.8 226.2 107.7 225.4 107.5 C 227.0 107.4 228.9 107.7 228.8 107.5 C 228.4 107.3 225.9 107.4 225.2 107.2 C 227.1 107.0 230.9 107.6 227.8 107.1 C 229.0 107.2 230.7 107.2 231.3 107.3 C 229.9 107.3 231.7 107.6 232.4 107.7 C 233.6 107.7 234.6 107.6 234.9 107.5 C 233.1 107.6 231.4 107.3 232.7 107.3 C 233.1 107.4 233.4 107.2 233.9 107.2 C 234.2 107.3 236.3 107.2 236.8 107.4 C 236.5 107.2 235.5 107.2 235.3 107.1 C 236.4 107.0 238.0 106.7 239.2 107.0 C 238.4 107.0 237.3 107.0 237.3 107.1 C 241.1 107.5 242.5 107.8 246.7 107.9 C 246.2 107.9 246.0 108.0 246.2 108.1 C 248.9 108.1 250.7 108.2 250.5 108.4 C 252.1 108.4 252.9 108.2 253.6 108.1 C 251.8 107.9 251.4 108.2 250.2 108.0 C 250.8 107.9 248.4 107.5 247.6 107.4 C 244.9 107.6 244.3 107.2 241.5 107.4 C 242.1 107.1 239.3 107.3 239.9 107.0 C 243.0 107.4 245.4 107.1 249.5 107.3 C 249.2 107.5 248.9 107.6 250.6 107.8 C 253.3 107.9 251.8 107.5 253.9 107.6 C 255.0 107.8 253.7 107.8 254.9 107.9 C 255.5 107.8 257.5 107.8 258.4 108.1 C 255.6 108.0 259.1 108.3 257.3 108.4 C 258.3 108.4 258.8 108.4 259.5 108.5 C 256.5 108.2 261.9 108.1 259.6 107.9 C 263.3 107.8 260.4 108.5 263.5 108.5 C 261.8 108.3 263.7 108.2 266.0 108.2 C 266.8 108.5 269.2 108.5 271.1 108.6 C 270.0 108.5 269.2 108.5 270.8 108.3 C 269.8 108.2 268.2 108.2 267.4 108.3 C 267.3 108.2 267.0 108.1 266.5 108.1 C 268.7 108.0 267.7 107.9 268.3 107.8 C 269.1 107.9 270.7 107.9 271.2 108.1 C 271.2 108.0 271.8 108.0 271.8 107.9 C 268.9 107.9 271.9 107.6 270.1 107.5 C 268.8 107.5 269.8 107.8 268.2 107.8 C 266.4 107.4 269.2 107.4 269.7 107.2 C 268.2 107.0 267.0 107.3 266.2 107.0 C 267.7 106.8 270.6 106.9 272.9 107.0 C 272.5 106.7 276.8 107.1 276.7 106.7 C 277.1 106.8 277.6 106.9 278.3 107.0 C 278.6 106.7 279.3 106.9 279.9 107.0 C 280.0 106.9 280.0 106.8 280.0 106.7 C 279.9 106.5 279.8 106.5 279.7 106.8 C 279.6 106.7 279.5 106.7 279.4 106.7 C 279.5 106.7 279.6 106.7 279.7 106.7 C 279.8 104.4 279.8 103.8 279.6 100.6 C 279.8 100.3 279.9 99.8 280.1 99.7 C 280.2 100.5 280.2 101.3 280.3 101.8 C 280.3 97.6 279.6 99.8 280.1 97.1 C 279.9 97.1 279.6 99.0 279.6 97.3 C 279.9 94.9 279.6 90.9 280.3 91.5 C 280.5 89.3 280.1 87.4 280.4 86.4 C 280.4 85.6 280.3 85.3 280.2 85.0 C 280.1 85.7 279.9 86.5 279.8 87.3 C 279.9 88.8 279.7 89.3 280.1 88.2 C 280.1 90.3 279.9 90.8 279.8 91.8 C 279.6 88.8 279.9 86.2 279.5 85.9 C 279.6 85.0 279.8 84.3 280.0 83.6 C 279.8 83.2 279.7 79.9 280.0 79.8 C 279.9 82.0 280.2 84.4 280.4 82.5 C 280.2 76.9 280.6 74.0 280.4 69.0 C 280.5 68.9 280.7 69.3 280.7 68.4 C 280.5 68.4 280.4 68.2 280.4 67.6 C 280.4 66.1 280.5 65.3 280.4 63.2 C 280.7 63.3 280.9 63.0 280.9 61.9 C 280.7 61.2 280.2 59.2 280.3 58.0 C 280.3 59.2 280.6 57.6 280.6 56.7 C 280.3 57.5 280.9 50.8 280.5 52.8 C 280.5 50.1 280.7 49.0 280.8 48.9 C 280.7 47.9 280.7 47.2 280.6 46.3 C 281.0 45.6 280.7 41.1 280.9 40.4 C 280.7 42.0 281.1 42.2 281.1 40.9 C 280.9 40.1 280.7 36.0 280.8 35.2 C 280.9 35.4 281.1 35.6 281.2 37.6 C 281.2 34.1 280.8 34.4 280.6 33.3 C 280.9 33.3 280.7 31.8 280.6 31.4 C 280.8 30.2 280.7 31.4 280.9 31.2 C 281.0 29.9 281.1 29.4 281.1 27.8 C 280.8 28.4 281.0 26.6 281.0 25.9 C 280.8 25.8 280.7 25.0 280.7 23.5 C 281.1 25.2 281.1 14.9 280.9 17.6 C 280.6 15.7 281.1 15.3 281.1 12.7 C 281.0 12.6 281.0 12.4 281.0 12.2 C 281.0 11.7 281.0 11.3 280.9 12.3 C 280.9 12.3 280.9 12.3 280.9 12.3 C 278.7 12.4 280.3 12.1 277.6 12.2 C 278.4 12.5 275.1 12.1 275.3 12.5 C 274.7 12.1 272.0 12.6 270.2 12.3 C 270.1 12.3 269.5 12.4 269.3 12.4 C 268.9 12.5 271.8 12.6 269.8 12.7 C 267.7 12.5 269.0 12.4 268.8 12.3 C 262.6 12.4 255.2 12.3 248.7 12.2 C 249.4 12.3 249.3 12.4 247.9 12.4 C 246.3 11.9 238.5 12.2 237.2 12.3 C 236.7 12.0 232.6 12.3 231.9 12.2 C 232.7 12.2 234.4 12.0 232.7 11.9 C 231.5 12.3 230.3 12.0 228.5 12.3 C 227.9 11.9 223.0 12.3 225.4 11.8 C 224.5 11.8 224.0 11.7 223.5 11.7 C 223.3 12.0 222.3 12.0 223.9 12.1 C 219.6 11.9 218.5 12.1 215.2 11.9 C 214.6 12.1 217.1 12.2 215.1 12.3 C 215.1 12.2 215.1 12.2 215.1 12.1 C 214.4 12.1 214.1 12.2 213.8 12.1 C 214.0 12.0 215.1 12.0 215.3 11.7 C 213.6 11.8 212.7 11.5 212.0 11.7 C 214.3 11.7 212.5 12.2 211.2 11.9 C 212.5 11.8 205.9 12.0 203.7 12.1 C 202.8 11.8 206.0 12.1 205.9 11.9 C 201.9 11.9 202.3 11.8 201.7 12.1 C 199.6 12.0 198.9 11.9 196.3 12.0 C 194.9 11.9 197.3 11.8 195.8 11.8 C 194.8 11.9 194.4 12.0 193.0 12.0 C 189.6 11.5 180.9 12.3 177.0 11.5 C 178.6 11.7 176.4 11.9 174.2 11.9 C 174.1 11.8 174.4 11.6 173.6 11.6 C 173.7 11.8 173.0 11.9 171.5 11.9 C 171.4 11.8 171.7 11.6 170.9 11.6 C 170.3 11.9 168.5 11.6 167.5 11.8 C 167.0 11.5 170.0 11.6 170.2 11.5 C 166.7 11.3 166.1 11.6 163.5 11.5 C 164.9 11.4 162.5 11.2 162.1 11.1 C 162.7 11.4 160.6 11.5 162.1 11.7 C 161.1 11.7 159.6 11.7 159.4 11.6 C 159.9 11.6 160.8 11.6 160.8 11.5 C 159.5 11.6 158.0 11.3 157.3 11.5 C 158.2 11.6 158.7 11.6 158.7 11.8 C 158.4 11.9 158.0 12.0 157.3 12.0 C 159.3 11.4 153.7 11.7 153.3 11.9 C 152.8 11.5 152.5 11.5 152.7 11.3 C 150.3 11.3 150.6 11.5 149.2 11.6 C 149.7 11.3 150.1 11.1 147.9 11.0 C 148.4 11.3 145.8 11.3 146.6 11.6 C 141.0 11.7 139.8 11.4 136.4 11.4 C 136.3 11.5 137.4 11.5 136.4 11.5 C 134.8 11.5 133.4 11.4 132.4 11.2 C 131.5 11.4 132.7 11.5 131.7 11.5 C 129.2 11.3 129.8 11.0 127.6 10.8 C 124.9 11.0 125.8 10.9 124.2 11.1 C 125.0 11.2 125.9 11.3 124.9 11.3 C 123.2 11.1 122.5 10.8 122.1 10.7 C 123.3 10.7 124.2 10.8 124.8 10.8 C 125.2 10.7 126.9 10.7 125.5 10.5 C 127.2 10.6 129.1 10.6 131.6 10.6 C 130.7 10.3 133.8 10.5 132.9 10.3 C 130.1 10.3 129.5 10.1 126.8 10.2 C 127.4 10.5 124.6 10.3 124.1 10.3 C 124.1 10.4 122.2 10.4 122.7 10.6 C 120.7 10.6 120.7 10.4 118.7 10.5 C 118.5 10.4 118.8 10.3 118.0 10.3 C 117.3 10.5 116.6 10.2 115.9 10.2 C 116.4 10.5 113.4 10.3 113.2 10.5 C 114.0 10.5 115.2 10.5 115.3 10.6 C 112.0 10.6 114.7 10.8 115.4 11.0 C 115.3 10.9 116.4 10.5 116.7 10.7 C 113.9 10.9 120.7 11.2 118.1 11.1 C 116.0 11.0 116.2 11.2 114.1 11.1 C 111.4 10.7 114.4 10.5 111.7 10.1 C 110.3 10.3 109.2 10.3 109.1 10.5 C 108.8 10.4 108.3 10.3 107.7 10.3 C 107.1 10.4 109.8 10.5 107.8 10.6 C 106.7 10.5 107.8 10.2 105.7 10.3 C 104.8 10.5 108.4 10.5 106.4 10.6 C 104.2 10.2 106.9 10.7 104.5 10.7 C 104.3 10.7 103.9 10.6 103.1 10.7 C 102.9 10.5 103.2 10.4 102.3 10.3 C 102.0 10.8 101.3 10.2 99.6 10.3 C 98.7 10.6 101.5 10.4 101.0 10.7 C 98.9 10.4 97.8 10.7 97.0 10.7 C 98.6 10.4 94.3 10.5 94.1 10.3 C 94.7 10.5 93.7 10.4 91.5 10.7 C 91.2 10.2 88.6 10.5 87.9 10.2 C 87.6 10.3 87.0 10.4 86.7 10.5 C 87.5 10.5 88.3 10.5 88.1 10.7 C 87.4 10.7 86.8 10.7 86.0 10.7 C 84.8 10.5 87.5 10.0 83.0 10.0 C 83.7 10.3 81.8 10.4 80.6 10.5 C 80.9 10.8 82.4 10.5 82.7 10.7 C 81.2 10.8 79.5 10.6 78.5 10.5 C 75.9 10.6 72.8 10.5 69.0 10.6 C 68.1 10.4 72.1 10.4 69.5 10.3 C 68.5 10.3 69.1 10.5 67.6 10.4 C 68.3 9.4 57.3 10.2 56.2 9.8 C 55.9 10.0 52.6 9.9 53.1 10.2 C 55.1 9.9 56.9 10.3 58.1 10.4 C 60.0 10.3 56.0 10.2 57.8 10.1 C 58.1 10.3 60.9 10.1 60.7 10.3 C 57.8 10.4 62.4 10.6 60.4 10.8 C 57.6 10.8 52.4 11.0 53.5 10.7 C 53.6 10.8 54.8 10.8 54.8 10.7 C 51.7 10.6 50.0 10.8 48.9 11.0 C 47.4 10.8 42.2 11.1 43.5 11.0 C 42.9 10.8 46.8 11.0 46.1 10.8 C 40.4 10.7 40.4 10.9 36.5 10.7 C 38.0 11.0 33.0 11.2 33.4 11.1 C 33.2 10.8 31.9 10.6 29.9 10.9 C 30.0 10.6 28.7 10.6 27.5 10.5 C 27.1 10.7 28.6 10.7 28.5 10.9 C 27.4 10.9 26.2 10.9 25.1 10.9 C 24.9 10.8 25.0 10.7 24.2 10.7 C 23.1 10.8 18.7 11.0 19.0 10.9 C 20.6 10.6 15.6 10.6 18.6 10.4 C 17.7 10.4 17.5 10.3 16.4 10.3 C 16.5 10.4 16.6 10.6 16.7 10.7 C 14.2 10.7 15.1 10.3 13.0 10.3 C 12.9 10.4 12.0 10.4 11.8 10.5 C 12.7 10.5 12.6 10.4 13.8 10.4 C 12.9 10.8 16.2 10.6 16.3 10.9 C 14.0 10.9 13.7 10.7 12.6 10.6 C 11.8 10.6 11.4 10.7 11.0 10.7 C 11.1 11.6 11.0 11.4 11.0 13.7 C 11.1 13.8 11.1 13.0 11.2 13.3 C 11.1 17.0 10.6 16.2 10.8 19.0 C 10.8 18.4 10.6 15.8 10.6 17.4 C 10.7 19.3 10.9 20.1 11.0 22.5 C 10.9 22.6 10.7 22.2 10.7 23.0 C 10.8 24.1 11.0 24.4 11.1 25.4 C 11.0 25.5 11.1 26.8 11.1 27.4 C 10.9 28.1 10.9 26.9 10.8 27.9 C 10.8 29.9 11.4 31.4 11.3 33.0 C 11.0 32.6 11.1 34.6 11.1 36.3 C 10.8 36.3 10.9 39.9 10.8 42.1 C 11.0 41.8 10.9 44.1 11.2 43.7 C 11.2 42.6 11.3 42.1 11.4 41.9 C 11.4 44.5 10.9 45.0 11.3 47.2 C 11.1 48.1 11.0 49.3 10.9 51.0 C 11.0 51.3 11.1 48.0 11.2 49.9 C 11.1 49.9 11.1 50.6 11.2 51.2 C 10.9 50.8 10.9 52.2 10.7 53.0 C 10.9 54.7 10.6 57.8 10.9 56.4 C 10.9 59.0 10.5 57.1 10.5 59.0 C 10.8 58.2 10.8 61.5 11.0 60.0 C 11.1 62.6 10.7 62.2 10.6 61.1 C 10.5 63.4 10.7 64.1 10.6 65.2 C 10.8 64.2 10.9 67.9 10.8 66.0 C 10.5 65.2 10.7 68.1 10.6 68.6 C 10.7 67.8 10.7 69.0 10.9 67.4 C 10.9 69.2 11.0 71.9 10.7 73.4 C 10.9 75.7 10.9 77.9 10.6 76.8 C 10.7 78.9 10.7 78.1 10.6 80.2 C 10.7 80.3 10.7 79.7 10.8 79.6 C 10.8 82.5 10.6 81.8 10.6 85.7 C 10.3 85.1 10.3 87.6 10.2 88.3 C 10.2 86.7 10.3 85.5 10.3 84.2 C 10.2 83.9 10.1 85.2 10.1 84.1 C 10.2 84.0 10.2 83.4 10.2 82.8 C 10.0 85.3 9.8 79.5 10.1 81.4 C 10.0 81.4 10.0 81.5 10.0 82.0 C 10.2 81.6 10.1 81.6 10.4 82.2 C 10.3 80.9 10.6 80.0 10.4 79.4 C 10.3 79.5 10.3 80.7 10.2 80.8 C 10.1 77.6 10.6 79.9 10.5 77.5 C 10.2 76.8 10.1 78.1 10.0 78.6 C 10.0 76.4 10.0 74.4 10.2 73.9 C 10.1 71.8 10.0 73.9 9.8 72.4 C 9.9 71.7 10.1 71.9 10.2 70.5 C 10.0 68.9 10.0 71.3 9.9 69.7 C 10.1 68.1 10.3 71.0 10.3 68.5 C 9.9 68.9 10.4 66.2 10.2 66.3 C 10.2 67.8 9.8 67.7 10.1 67.0 C 10.4 63.8 9.5 61.1 10.1 58.1 C 10.0 58.0 10.0 57.5 9.9 57.3 C 9.7 59.7 9.7 63.4 9.3 63.9 C 9.4 66.0 9.7 65.8 9.8 66.2 C 9.5 68.4 9.4 68.2 9.0 66.6 C 9.0 62.6 9.2 61.0 9.3 58.4 C 9.1 56.9 9.2 58.5 9.0 59.0 C 9.3 50.9 8.6 56.8 8.6 53.9 C 8.8 54.0 8.8 53.4 8.9 52.7 C 8.8 52.6 8.8 51.4 8.7 51.1 C 8.7 51.7 8.6 51.9 8.5 51.7 C 8.5 49.6 8.7 50.6 8.9 50.6 C 8.8 52.1 8.9 53.1 9.0 53.4 C 8.9 51.3 9.1 49.9 8.9 48.5 C 9.2 46.8 9.6 49.9 9.8 49.0 C 10.0 49.5 9.2 47.4 9.1 45.8 C 9.1 43.4 8.9 43.1 8.9 40.8 C 9.1 40.4 9.0 43.2 9.2 43.1 C 9.2 42.5 9.3 42.4 9.3 41.8 C 9.2 40.1 9.0 40.1 8.9 38.8 C 9.2 38.3 9.0 37.8 8.9 36.8 C 9.1 35.3 9.1 37.8 9.2 36.2 C 9.2 34.5 8.9 33.1 8.9 32.6 C 9.0 32.5 9.2 32.9 9.2 32.1 C 9.0 30.0 9.0 29.5 8.9 31.8 C 8.9 29.7 8.8 28.7 8.5 28.8 C 8.5 32.0 8.6 32.9 8.2 34.1 C 8.5 34.9 8.3 35.7 8.2 36.9 C 8.7 36.5 8.2 38.4 8.5 39.2 C 8.5 38.4 8.6 37.6 8.6 37.2 C 8.6 40.6 8.6 40.5 8.9 43.6 C 8.8 43.6 8.8 43.9 8.7 44.2 C 8.6 43.2 8.7 40.8 8.5 40.5 C 8.2 42.3 8.6 43.3 8.3 45.3 C 8.5 46.4 8.6 43.7 8.6 45.5 C 8.5 46.3 8.3 47.4 8.2 48.8 C 8.3 50.3 8.4 51.1 8.5 52.4 C 8.4 52.4 8.3 52.5 8.3 53.7 C 8.4 53.7 8.5 52.6 8.5 53.8 C 8.2 57.3 8.0 59.7 8.2 63.4 C 8.2 62.2 8.5 59.4 8.5 60.8 C 8.3 62.3 8.6 64.7 8.4 66.3 C 8.3 66.8 8.5 64.3 8.1 64.7 C 8.1 66.4 8.1 67.4 8.0 68.2 C 8.2 68.3 8.1 70.1 8.3 69.7 C 8.3 68.4 8.0 67.9 8.2 67.6 C 8.8 69.0 7.9 72.6 7.9 75.2 C 8.0 76.9 8.2 74.0 8.2 76.0 C 8.3 77.2 7.8 77.7 7.7 75.8 C 7.8 74.5 7.5 73.9 7.7 73.7 C 7.7 73.1 7.7 72.3 7.7 72.3 C 7.7 73.2 7.5 73.0 7.4 73.6 C 7.5 72.2 7.0 71.8 7.3 70.7 C 7.3 71.5 7.4 71.8 7.4 72.2 C 7.4 68.4 7.6 67.3 7.7 65.3 C 7.5 66.3 7.6 65.1 7.4 65.1 C 7.4 66.8 7.3 69.8 7.2 67.9 C 7.5 66.8 6.7 65.4 7.0 64.3 C 7.0 65.3 7.2 65.2 7.3 65.8 C 7.3 64.3 7.5 64.5 7.5 63.1 C 7.1 58.3 7.8 55.1 7.3 47.5 C 7.3 45.0 7.4 49.9 7.6 49.8 C 7.6 49.1 7.7 49.0 7.7 48.4 C 7.4 48.2 7.7 47.1 7.4 46.2 C 7.7 46.4 7.4 42.9 7.7 41.4 C 7.6 41.2 7.4 41.4 7.4 40.5 C 7.8 35.6 7.3 26.0 7.6 22.4 C 7.4 22.3 7.4 20.6 7.3 20.0 C 7.3 17.6 7.5 18.9 7.3 15.1 C 7.2 13.2 7.4 15.6 7.5 16.0 C 7.4 12.7 7.5 9.7 7.5 7.1 C 9.2 7.1 10.6 7.1 11.8 7.0 C 13.4 6.9 12.0 7.2 15.5 7.2 C 15.3 6.9 21.2 7.4 21.6 7.0 C 23.6 6.9 27.9 7.4 25.9 7.1 C 28.7 7.0 27.1 7.4 28.2 7.4 C 30.2 7.3 27.1 6.8 29.1 6.7 C 29.1 7.0 30.7 6.9 32.2 7.1 C 30.6 7.1 29.6 7.1 29.5 7.3 C 30.8 7.1 30.9 7.3 33.0 7.3 C 34.5 7.1 39.0 6.9 40.7 7.3 C 40.6 7.2 40.2 7.1 39.8 7.0 C 41.1 7.0 43.0 7.3 42.5 7.0 C 45.7 7.0 47.2 7.2 48.8 7.0 C 50.1 6.9 48.5 7.2 52.5 7.2 C 52.4 7.0 59.5 7.0 61.5 7.2 C 61.4 6.9 62.0 7.2 62.9 7.2 C 63.0 7.1 62.7 7.0 63.5 7.0 C 63.7 7.1 64.3 7.0 64.9 7.0 C 64.6 7.4 67.4 6.9 67.7 7.1 C 67.1 7.2 67.3 7.3 67.9 7.4 C 67.9 7.1 71.1 7.5 70.6 7.3 C 70.0 7.2 68.0 7.3 68.4 7.1 C 71.1 7.0 70.2 7.3 72.0 7.3 C 71.9 7.2 70.7 7.1 71.9 7.1 C 73.8 7.1 72.1 7.1 73.4 7.3 C 74.4 7.2 76.1 7.1 76.8 7.1 C 76.6 7.1 77.3 7.2 77.6 7.2 C 81.2 7.3 89.3 7.0 92.9 7.4 C 93.2 7.3 93.9 7.2 93.6 7.1 C 95.7 7.2 95.5 7.1 97.8 7.2 C 97.7 7.1 97.7 7.0 97.6 6.9 C 100.4 6.8 98.0 7.2 99.9 7.2 C 99.9 6.7 101.0 7.4 102.7 7.4 C 102.9 7.3 103.7 7.2 103.3 7.1 C 106.0 7.1 106.0 7.4 108.2 7.3 C 107.7 7.3 107.1 6.5 107.3 6.3 C 107.7 6.4 108.4 6.5 109.5 6.5 C 108.3 6.7 109.2 7.7 112.5 7.4 C 110.7 7.4 110.0 7.3 110.3 7.1 C 112.8 7.1 113.7 7.3 115.9 7.3 C 116.2 7.0 114.6 7.0 115.1 6.7 C 115.7 6.7 115.9 6.7 115.8 6.6 C 118.1 6.6 118.2 6.8 120.7 6.7 C 120.7 6.8 120.2 6.8 119.3 6.7 C 119.4 6.9 119.5 7.1 118.0 7.1 C 117.8 7.0 118.6 6.7 116.5 6.8 C 116.5 7.0 116.5 7.1 116.6 7.2 C 118.1 7.2 121.8 7.4 122.2 7.3 C 121.4 7.2 120.2 7.1 120.7 6.9 C 123.4 7.0 124.2 7.3 126.4 7.4 C 130.2 7.3 136.9 7.4 136.1 7.0 C 138.4 7.1 137.6 7.1 139.6 7.1 C 139.0 6.9 141.9 7.0 141.7 6.8 C 139.2 6.9 139.9 6.8 137.5 6.9 C 137.5 6.8 137.9 6.6 138.9 6.6 C 139.0 6.7 140.1 6.8 141.7 6.7 C 141.4 6.7 139.9 6.4 141.7 6.4 C 141.8 6.5 142.2 6.5 143.1 6.5 C 143.1 6.6 143.1 6.8 143.1 6.9 C 142.1 7.0 141.0 7.0 140.3 7.1 C 141.0 7.1 141.1 7.2 141.7 7.2 C 142.1 7.1 145.0 7.2 145.2 7.1 C 144.0 7.1 143.3 6.9 144.5 6.9 C 144.7 6.9 146.6 7.0 147.3 6.9 C 144.8 6.8 145.8 6.8 144.5 6.5 C 147.3 6.4 146.9 6.8 150.1 6.7 C 150.2 6.9 150.1 7.0 149.3 7.1 C 151.4 7.6 156.1 7.2 157.7 7.2 C 156.6 7.2 155.4 7.5 157.0 7.5 C 157.0 7.4 158.2 7.5 158.4 7.4 C 159.0 6.9 157.6 6.7 156.4 6.4 C 157.7 6.4 158.0 6.3 159.2 6.3 C 159.6 6.5 158.3 6.9 159.8 6.9 C 160.2 6.5 162.8 6.9 163.3 6.6 C 162.2 6.6 161.5 6.5 162.7 6.4 C 162.4 6.6 164.7 6.5 164.8 6.7 C 162.9 6.8 162.4 7.0 161.2 7.0 C 162.7 7.0 160.1 7.2 162.6 7.2 C 163.7 7.1 164.3 6.8 166.9 6.8 C 167.8 6.9 166.9 7.1 168.2 7.1 C 167.9 6.9 170.7 6.8 168.9 7.1 C 169.9 7.1 170.4 7.1 171.0 7.1 C 169.6 6.9 176.3 6.6 175.3 6.4 C 175.2 6.8 175.5 7.1 175.8 7.1 C 177.2 6.9 178.6 7.1 182.2 7.1 C 182.1 6.8 182.7 7.0 184.3 7.0 C 184.6 6.8 183.3 6.8 184.3 6.7 C 186.0 6.9 186.1 6.9 186.4 7.0 C 187.6 7.0 188.5 7.0 189.1 7.1 C 189.2 7.0 188.8 6.9 188.5 6.8 C 193.1 7.1 195.7 6.8 199.7 6.8 C 198.0 6.7 197.6 7.1 198.9 7.1 C 199.8 7.0 200.5 7.0 201.0 6.9 C 200.2 6.7 200.5 6.8 202.5 6.8 C 204.3 6.7 202.0 6.4 203.3 6.4 C 204.8 6.6 203.8 6.7 204.6 6.7 C 205.3 6.7 206.1 6.7 206.7 6.7 C 205.5 6.6 207.0 6.5 208.3 6.4 C 207.2 6.7 207.8 6.8 210.3 6.7 C 210.5 6.8 209.1 6.9 210.2 6.9 C 210.7 6.9 212.8 6.6 214.3 6.8 C 213.8 6.8 213.5 6.9 213.6 7.0 C 215.5 6.8 216.8 7.1 218.4 7.2 C 216.8 7.0 217.8 6.8 217.2 6.7 C 218.7 6.9 220.9 6.6 222.0 6.9 C 219.7 6.8 221.7 7.4 223.2 7.4 C 223.6 7.1 221.1 7.2 222.0 6.9 C 222.9 6.7 224.6 7.1 225.5 6.8 C 225.5 6.7 224.4 6.9 224.2 6.7 C 225.5 6.7 223.9 6.6 225.0 6.6 C 225.5 6.9 226.5 6.5 227.1 6.5 C 228.0 6.6 229.6 6.9 230.5 6.7 C 230.5 6.6 229.3 6.7 229.2 6.6 C 233.1 6.4 234.1 6.8 237.7 6.5 C 238.0 6.6 238.6 6.7 239.6 6.7 C 239.6 6.6 240.3 6.5 241.1 6.5 C 242.6 6.6 244.0 6.8 245.8 6.8 C 245.3 7.0 244.4 7.1 247.0 7.1 C 247.2 7.1 246.1 7.0 247.1 7.0 C 247.0 7.0 247.6 7.1 247.8 7.0 C 247.9 6.9 247.9 6.9 247.9 6.8 C 247.2 6.8 246.5 6.8 245.8 6.8 C 246.0 6.7 245.9 6.6 245.4 6.5 C 248.5 6.4 248.0 6.9 250.1 6.7 C 250.2 7.0 250.8 7.1 248.9 7.4 C 250.7 7.3 252.0 7.2 252.7 7.0 C 250.5 7.0 251.4 6.7 250.9 6.6 C 252.3 6.6 252.4 6.5 253.1 6.4 C 254.5 6.6 251.1 6.9 254.1 6.9 C 252.1 6.6 256.2 6.7 257.7 6.8 C 257.6 6.6 257.0 6.6 257.9 6.5 C 262.2 6.4 261.2 7.2 264.0 6.8 C 263.7 6.9 264.8 6.9 265.2 7.0 C 263.1 7.1 262.6 7.1 261.6 7.2 C 261.7 7.2 262.3 7.3 262.9 7.3 C 263.0 7.2 263.6 7.1 264.4 7.2 C 265.1 7.1 265.2 6.7 267.0 6.5 C 267.1 6.6 266.8 6.7 267.6 6.8 C 268.5 6.5 266.6 7.2 270.1 7.1 C 269.5 7.0 269.3 6.9 269.7 6.7 C 271.5 6.6 271.0 6.7 273.3 6.6 C 273.7 7.0 271.4 7.1 270.5 7.3 C 272.1 7.3 273.5 7.0 274.9 7.2 C 273.8 7.0 275.2 6.8 276.6 6.8 C 277.8 6.8 276.2 7.1 277.7 7.2 C 278.9 7.1 279.7 6.9 278.7 6.8 C 281.2 6.8 280.9 6.6 283.1 6.6 C 283.0 6.7 282.3 6.8 281.6 6.7 C 281.7 6.8 281.3 6.9 282.1 6.9 C 283.2 6.8 284.9 6.7 286.5 6.6 C 286.6 7.4 286.6 8.1 286.7 8.7 C 286.2 12.3 286.8 15.6 286.6 19.0 C 286.3 17.8 286.6 23.3 286.3 25.0 C 286.4 26.0 286.9 28.7 286.7 27.7 C 286.3 28.2 286.5 30.0 286.4 31.6 C 286.4 31.5 286.5 31.5 286.6 31.5 C 286.6 34.7 286.4 35.5 286.2 36.7 C 286.4 40.6 286.0 45.0 286.3 49.8 C 286.0 51.0 286.1 52.1 285.9 54.9 C 286.1 54.8 286.1 57.1 286.1 59.2 C 286.3 58.7 286.3 60.7 286.4 60.7 C 286.5 58.7 286.7 59.4 286.8 58.4 C 286.6 61.0 287.1 62.3 286.8 64.3 C 286.7 61.8 286.4 61.0 286.0 60.7 C 286.1 63.6 286.0 65.2 285.8 65.7 C 286.0 65.9 286.1 65.6 286.2 65.0 C 286.2 66.0 286.2 66.9 286.2 67.9 C 286.1 68.1 286.0 66.8 286.0 67.8 C 286.0 68.5 286.1 69.3 286.2 70.1 C 286.0 70.9 286.0 68.9 285.9 68.6 C 285.8 72.4 286.3 70.9 286.4 73.0 C 286.2 73.5 285.9 73.3 285.9 75.1 C 286.0 75.8 286.3 76.1 286.3 78.1 C 286.2 79.3 285.9 77.9 285.9 79.3 C 286.0 79.6 285.9 80.2 285.9 80.8 C 286.0 80.8 286.1 81.5 286.1 82.3 C 286.0 82.5 286.1 83.9 286.1 84.5 C 286.0 84.6 285.7 86.7 285.9 87.3 C 286.0 87.3 286.0 86.1 286.0 86.0 C 286.0 87.6 286.1 88.7 286.1 89.6 C 285.6 89.8 286.0 92.7 285.7 95.8 C 285.9 98.0 286.1 95.7 286.3 98.4 C 286.1 99.8 286.1 97.9 285.8 98.1 C 285.8 98.5 285.6 100.7 285.8 100.9 C 285.9 101.0 285.9 99.7 286.0 99.6 C 286.2 101.7 285.9 101.4 285.8 102.4 C 286.0 102.4 286.0 103.7 286.2 104.1 C 286.3 109.5 285.9 109.0 285.7 111.0 C 285.8 111.1 285.8 112.3 285.9 112.5 C 285.8 110.9 286.0 109.2 286.0 111.3 C 286.0 111.0 286.0 112.1 286.0 113.1 C 285.6 113.1 285.2 113.2 285.1 113.2 C 285.3 113.2 285.8 113.3 286.2 113.3 C 286.3 112.8 286.3 112.5 286.4 113.1 C 286.4 113.2 286.4 113.4 286.4 113.5 C 284.4 113.5 284.8 113.1 283.2 113.3 C 282.8 113.2 284.0 113.2 284.4 113.1 C 283.5 113.1 282.4 113.1 282.2 113.0 C 283.1 113.0 283.0 112.8 283.2 112.6 C 282.1 112.8 279.5 112.6 281.5 112.9 C 278.6 112.9 276.2 113.0 278.3 113.3 C 276.1 113.3 277.0 113.0 275.4 113.2 C 275.4 112.9 275.8 112.8 274.1 112.5 C 274.0 112.7 272.9 112.7 273.2 112.9 C 269.9 112.9 268.7 112.7 267.2 112.5 C 268.7 112.8 266.8 112.5 265.4 112.8 C 264.3 112.7 265.0 112.4 262.4 112.5 C 265.6 112.8 259.1 112.5 260.7 112.9 C 257.2 112.8 257.2 112.8 253.6 112.7 C 253.8 112.5 254.6 112.4 256.1 112.4 C 255.2 112.6 259.3 112.6 258.9 112.5 C 258.9 112.4 258.8 112.4 258.8 112.3 C 256.2 112.3 254.4 112.3 253.1 112.1 C 252.7 112.3 251.6 112.4 252.3 112.7 C 249.5 112.4 247.3 112.8 245.9 112.5 C 246.7 112.5 247.5 112.5 247.2 112.4 C 246.2 112.5 245.0 112.5 245.4 112.7 C 247.4 112.8 247.9 112.8 248.7 112.6 C 248.0 112.8 251.0 113.0 249.1 113.0 C 248.8 112.6 245.1 113.2 246.2 112.9 C 248.3 112.8 243.6 112.7 243.2 112.6 C 243.2 112.6 243.2 112.6 243.2 112.6 Z M 7.5 63.7 C 7.6 65.9 7.9 63.4 7.8 61.8 C 7.8 62.3 7.7 62.4 7.5 62.4 C 7.6 63.0 7.6 63.6 7.5 63.7 C 7.5 63.7 7.5 63.7 7.5 63.7 Z M 11.0 43.6 C 10.7 42.8 10.9 46.3 10.9 47.6 C 10.9 47.3 11.0 46.9 11.0 47.7 C 11.2 46.4 10.8 45.6 11.0 43.6 C 11.0 43.6 11.0 43.6 11.0 43.6 Z M 52.8 9.8 C 52.3 9.8 51.1 9.9 50.8 9.8 C 50.0 9.8 50.3 9.9 50.3 10.0 C 48.7 10.1 50.4 9.7 48.0 9.8 C 47.4 10.2 52.7 10.3 52.8 9.8 C 52.8 9.8 52.8 9.8 52.8 9.8 Z M 266.0 109.0 C 264.9 108.8 267.0 108.6 266.1 108.4 C 262.5 108.6 265.7 108.9 260.4 108.8 C 260.8 108.9 261.3 108.9 261.3 109.0 C 263.7 108.9 263.7 108.8 263.5 109.2 C 264.6 109.2 264.4 108.7 266.0 109.0 C 266.0 109.0 266.0 109.0 266.0 109.0 Z M 216.3 107.9 C 216.7 108.0 217.1 108.1 217.2 108.2 C 218.7 108.0 218.3 108.0 220.5 108.1 C 219.9 107.7 217.9 107.8 216.3 107.9 C 216.3 107.9 216.3 107.9 216.3 107.9 Z M 87.6 107.4 C 87.1 107.4 86.6 107.4 86.2 107.4 C 86.5 107.5 85.4 107.8 87.7 107.8 C 87.8 107.7 87.4 107.7 87.0 107.7 C 87.4 107.6 88.5 107.6 88.2 107.4 C 87.6 107.5 87.6 107.4 87.6 107.4 C 87.6 107.4 87.6 107.4 87.6 107.4 Z M 33.7 109.6 C 36.3 109.3 29.8 108.8 33.7 109.6 C 33.7 109.6 33.7 109.6 33.7 109.6 C 33.7 109.6 33.7 109.6 33.7 109.6 Z M 39.5 112.4 C 39.6 112.5 40.2 112.4 40.2 112.4 C 42.4 112.5 40.2 112.6 41.5 112.7 C 43.3 112.5 40.5 112.3 42.9 112.2 C 42.4 112.0 40.8 112.4 39.5 112.4 C 39.5 112.4 39.5 112.4 39.5 112.4 Z M 261.1 6.9 C 259.1 7.0 258.4 7.2 257.9 7.5 C 259.1 7.5 260.2 7.5 260.5 7.6 C 263.1 7.5 259.0 7.4 258.7 7.4 C 259.1 7.2 260.9 7.1 261.1 6.9 C 261.1 6.9 261.1 6.9 261.1 6.9 Z M 254.8 7.0 C 253.9 7.1 252.6 7.2 252.4 7.4 C 253.6 7.3 253.7 7.4 253.7 7.5 C 254.9 7.4 253.6 7.2 254.8 7.0 C 254.8 7.0 254.8 7.0 254.8 7.0 Z M 266.4 7.2 C 265.5 7.2 265.7 7.4 265.5 7.5 C 266.8 7.5 266.9 7.6 268.2 7.6 C 268.2 7.5 268.3 7.5 268.4 7.4 C 267.3 7.4 267.2 7.5 266.2 7.5 C 266.3 7.4 266.3 7.3 266.4 7.2 C 266.4 7.2 266.4 7.2 266.4 7.2 Z M 248.3 7.3 C 244.6 7.3 242.7 7.7 240.1 8.0 C 242.8 8.0 245.5 7.5 247.3 7.6 C 249.7 7.5 246.7 7.5 246.8 7.4 C 246.9 7.3 247.7 7.3 248.3 7.3 C 248.3 7.3 248.3 7.3 248.3 7.3 Z M 216.2 7.3 C 215.6 7.1 214.0 7.5 211.9 7.5 C 212.3 7.5 212.6 7.6 212.6 7.7 C 215.5 7.8 214.0 7.3 216.2 7.3 C 216.2 7.3 216.2 7.3 216.2 7.3 Z M 198.8 7.5 C 196.9 7.5 199.7 7.6 198.7 7.8 C 200.7 7.8 202.8 7.8 202.9 7.5 C 200.6 7.7 200.2 7.7 198.8 7.5 C 198.8 7.5 198.8 7.5 198.8 7.5 Z M 186.2 7.5 C 184.2 7.6 187.0 7.8 186.1 8.0 C 186.9 8.0 186.7 7.9 186.8 7.8 C 187.4 7.8 187.9 7.9 188.9 7.9 C 188.3 7.7 185.9 7.7 186.2 7.5 C 186.2 7.5 186.2 7.5 186.2 7.5 Z M 285.6 34.1 C 285.5 32.9 285.3 33.4 285.3 30.7 C 285.3 34.7 284.6 32.9 284.7 38.0 C 284.8 37.2 284.9 37.7 284.8 38.0 C 284.9 39.9 284.9 36.1 285.2 37.8 C 285.2 36.4 284.9 37.3 284.9 35.9 C 285.1 34.3 285.2 33.3 285.6 34.1 C 285.6 34.1 285.6 34.1 285.6 34.1 Z M 284.5 38.1 C 284.4 39.6 284.9 39.4 284.6 40.2 C 284.6 40.9 284.7 40.7 284.8 40.8 C 284.8 40.3 284.8 40.2 284.9 40.1 C 284.8 38.9 284.7 37.7 284.5 38.1 C 284.5 38.1 284.5 38.1 284.5 38.1 Z M 284.5 24.8 C 284.6 27.1 284.4 27.9 284.6 29.0 C 284.3 30.0 284.8 30.4 284.5 31.9 C 284.5 34.1 284.6 32.4 284.8 31.7 C 284.9 33.9 284.5 32.4 284.6 34.6 C 284.9 34.8 284.8 32.0 285.1 32.2 C 285.1 30.5 284.9 30.6 284.9 29.5 C 284.9 28.7 285.0 28.9 285.1 28.7 C 285.0 26.7 285.2 26.7 285.2 25.1 C 285.0 24.8 284.9 25.5 284.9 27.4 C 284.8 25.5 284.7 24.8 284.8 22.5 C 285.0 23.9 285.1 16.7 284.7 17.6 C 284.6 19.6 284.9 18.9 284.9 19.6 C 284.7 22.2 284.8 23.7 284.5 24.8 C 284.5 24.8 284.5 24.8 284.5 24.8 Z M 266.5 8.0 C 265.9 8.0 265.4 7.9 264.4 7.9 C 264.6 7.7 265.7 7.8 264.7 7.6 C 263.2 7.6 262.8 7.7 261.9 7.7 C 262.3 7.8 265.2 8.1 263.5 8.2 C 263.9 8.3 264.8 8.3 266.1 8.3 C 264.9 8.0 268.2 8.3 269.6 8.3 C 269.8 8.0 272.0 8.4 273.2 8.2 C 272.6 8.0 269.6 8.2 268.3 8.2 C 269.0 8.1 265.4 7.6 266.5 8.0 C 266.5 8.0 266.5 8.0 266.5 8.0 Z M 284.6 43.7 C 284.7 44.1 284.7 45.7 284.8 44.4 C 284.9 45.0 284.7 46.3 285.1 45.7 C 285.1 46.5 285.1 47.1 285.1 47.8 C 285.0 47.6 285.0 45.6 284.8 46.5 C 284.9 47.9 284.8 47.4 284.8 49.3 C 284.5 48.3 284.5 49.4 284.2 48.7 C 284.3 49.2 284.3 51.0 284.5 50.8 C 284.5 53.5 284.2 50.1 284.2 53.6 C 284.0 53.6 284.0 51.1 284.1 50.2 C 283.9 49.7 284.1 54.5 284.0 57.1 C 284.2 54.8 284.4 56.6 284.6 57.8 C 284.5 58.6 284.4 57.8 284.3 59.2 C 284.3 60.4 284.4 61.0 284.3 61.3 C 284.3 62.3 284.5 61.9 284.6 62.0 C 284.6 63.7 284.2 62.4 284.3 64.8 C 284.6 63.0 284.7 65.1 284.6 68.3 C 284.7 68.1 284.7 67.1 284.9 67.0 C 285.0 67.5 284.7 69.3 284.6 69.8 C 284.7 70.9 284.8 70.2 284.8 69.1 C 284.9 69.8 284.9 70.5 285.0 71.3 C 285.0 67.8 285.0 62.2 285.3 55.6 C 285.1 56.9 285.1 55.5 285.2 53.5 C 285.3 53.2 285.3 54.0 285.3 54.9 C 285.6 52.6 285.0 52.8 285.2 49.3 C 285.2 47.3 285.4 51.4 285.5 49.2 C 285.4 47.9 285.2 47.0 285.5 46.3 C 285.4 44.1 285.1 43.6 285.1 40.0 C 285.0 42.1 284.4 43.2 284.5 45.2 C 284.6 45.1 284.6 44.3 284.6 43.7 C 284.6 43.7 284.6 43.7 284.6 43.7 Z M 253.5 7.7 C 252.3 7.7 251.6 7.8 251.4 7.7 C 249.3 7.8 251.5 8.0 251.9 8.0 C 252.9 8.0 253.3 7.8 253.5 7.7 C 253.5 7.7 253.5 7.7 253.5 7.7 Z M 42.4 7.7 C 39.7 7.6 40.5 7.9 38.4 7.9 C 40.1 8.0 40.7 8.2 43.4 8.2 C 43.4 8.0 43.3 7.8 42.4 7.7 C 42.4 7.7 42.4 7.7 42.4 7.7 Z M 260.3 7.9 C 262.2 7.6 258.0 8.2 258.2 7.9 C 256.1 8.1 259.9 8.1 257.9 8.3 C 259.7 8.2 260.5 8.4 262.8 8.3 C 262.8 8.1 261.1 8.1 259.4 8.1 C 259.3 8.0 260.2 8.0 260.3 7.9 C 260.3 7.9 260.3 7.9 260.3 7.9 Z M 69.8 8.3 C 71.6 8.1 67.9 7.9 66.8 7.8 C 66.9 8.1 67.4 8.1 69.8 8.3 C 69.8 8.3 69.8 8.3 69.8 8.3 Z M 24.7 8.1 C 23.9 8.4 27.8 8.1 27.0 8.4 C 28.3 8.4 28.3 8.4 28.3 8.3 C 29.0 8.3 30.9 8.3 30.5 8.5 C 31.0 8.7 27.4 8.5 28.7 8.7 C 27.6 8.8 27.5 8.7 26.6 8.7 C 28.6 8.7 27.4 8.4 24.9 8.3 C 25.1 8.6 26.2 8.5 25.2 8.7 C 24.9 8.6 23.5 8.4 23.2 8.0 C 21.1 8.0 22.8 8.5 20.2 8.4 C 20.5 8.6 22.1 8.6 23.1 8.7 C 23.1 8.9 20.3 8.4 21.2 8.8 C 20.5 8.6 18.9 8.5 18.6 8.3 C 20.5 8.2 21.6 8.0 23.1 7.9 C 21.5 7.7 19.8 8.3 17.0 8.0 C 17.5 8.2 15.9 8.2 16.7 8.4 C 14.6 8.4 15.2 8.1 15.6 8.0 C 14.9 7.9 11.1 8.0 11.6 8.2 C 11.3 8.1 9.7 8.0 8.5 8.1 C 8.5 9.1 8.6 10.1 8.7 10.1 C 8.5 11.3 8.9 13.9 8.6 14.2 C 8.7 15.1 8.6 16.7 8.6 18.4 C 8.9 19.2 8.8 16.0 9.0 16.0 C 9.2 15.6 8.9 19.1 9.1 18.9 C 9.2 18.9 9.2 19.0 9.3 19.0 C 9.2 17.5 9.1 16.0 9.0 14.6 C 9.1 13.6 9.1 15.0 9.3 14.8 C 9.1 13.8 8.8 9.0 9.3 9.3 C 9.3 9.2 9.3 9.0 9.3 8.9 C 11.9 8.8 13.9 8.8 14.9 8.7 C 16.6 8.7 14.0 8.8 15.2 9.0 C 20.0 8.6 26.7 9.0 30.7 8.7 C 31.6 8.7 31.5 8.9 31.7 9.0 C 37.5 8.8 32.1 8.5 36.9 8.6 C 37.0 8.8 34.8 8.8 35.1 9.0 C 36.7 9.0 37.0 8.8 39.2 8.9 C 39.1 8.8 39.0 8.7 39.0 8.6 C 40.7 8.6 40.3 8.9 41.3 9.0 C 43.4 8.9 42.8 8.8 44.1 9.1 C 46.1 8.9 48.0 8.9 50.3 9.0 C 51.6 8.8 48.6 8.4 46.4 8.4 C 46.5 8.4 47.1 8.3 47.0 8.3 C 49.7 8.5 50.4 8.9 54.4 9.0 C 51.2 8.7 55.8 8.9 56.5 9.1 C 58.1 9.0 56.7 8.7 55.6 8.7 C 55.7 8.6 56.8 8.7 57.0 8.8 C 57.0 8.5 53.1 8.3 49.2 8.4 C 50.7 8.0 46.4 8.5 48.1 7.9 C 44.9 8.0 47.9 8.3 44.2 8.3 C 44.7 8.4 45.4 8.5 45.8 8.6 C 43.1 8.6 43.6 8.3 40.8 8.3 C 40.5 8.6 42.3 8.5 42.4 8.7 C 39.1 8.4 38.0 8.3 35.7 8.1 C 35.5 8.3 36.2 8.5 32.5 8.3 C 32.5 8.3 32.4 8.2 32.4 8.2 C 34.1 8.2 34.1 7.8 29.9 7.8 C 29.8 7.9 31.1 7.9 32.2 7.9 C 31.8 8.1 30.5 8.2 28.9 8.2 C 28.1 8.1 27.1 8.0 28.1 8.0 C 27.2 7.8 27.0 8.2 24.7 8.1 C 24.7 8.1 24.7 8.1 24.7 8.1 Z M 219.4 7.9 C 218.8 7.9 218.3 7.9 217.3 7.9 C 216.7 8.2 218.6 8.1 218.5 8.3 C 220.0 8.3 219.0 8.0 219.4 7.9 C 219.4 7.9 219.4 7.9 219.4 7.9 Z M 238.7 8.0 C 238.7 7.8 237.5 8.1 235.9 8.0 C 235.3 8.2 237.2 8.2 237.1 8.3 C 239.0 8.4 236.9 8.0 238.7 8.0 C 238.7 8.0 238.7 8.0 238.7 8.0 Z M 230.4 8.0 C 229.8 7.8 229.6 8.1 231.1 8.1 C 230.9 8.2 230.4 8.4 229.5 8.4 C 230.3 8.7 231.3 8.3 233.0 8.3 C 232.4 8.2 231.6 8.1 230.4 8.0 C 230.4 8.0 230.4 8.0 230.4 8.0 Z M 227.6 8.0 C 226.5 8.2 226.0 8.0 224.1 8.1 C 224.4 8.3 228.3 8.2 229.0 8.1 C 229.7 7.9 225.6 7.9 227.6 8.0 C 227.6 8.0 227.6 8.0 227.6 8.0 Z M 97.6 8.7 C 96.9 8.7 97.1 8.8 97.0 8.8 C 94.7 8.5 91.8 8.5 94.0 8.2 C 91.8 8.4 89.6 8.1 87.7 8.0 C 86.1 8.0 87.0 8.3 85.7 8.3 C 83.7 8.2 86.7 8.1 86.3 8.0 C 85.8 7.8 85.4 8.3 82.9 8.1 C 83.7 8.5 80.8 8.1 81.7 8.5 C 80.3 8.3 80.0 8.5 78.2 8.5 C 78.5 8.7 80.2 8.7 80.5 8.8 C 81.4 9.1 81.3 8.6 79.7 8.7 C 80.5 8.4 83.1 8.8 83.8 8.6 C 84.8 8.8 81.6 8.6 82.6 8.9 C 83.2 8.9 83.7 8.8 83.8 8.7 C 84.9 8.8 85.6 8.9 86.0 9.0 C 85.4 9.0 85.3 8.9 85.3 8.9 C 84.0 8.9 86.8 9.3 84.1 9.3 C 84.6 9.4 85.7 9.4 85.6 9.5 C 86.5 9.7 85.3 8.9 88.2 9.1 C 89.9 8.9 83.8 8.9 85.1 8.4 C 89.0 8.5 87.0 8.8 90.1 8.9 C 90.0 8.8 89.9 8.7 90.7 8.7 C 90.6 8.6 89.4 8.6 88.6 8.6 C 88.7 8.5 89.9 8.5 90.7 8.5 C 90.5 8.4 89.9 8.4 89.9 8.3 C 92.5 8.4 92.5 8.9 90.2 9.1 C 90.3 9.3 93.5 9.2 94.3 9.1 C 93.4 8.9 94.4 9.0 93.5 8.7 C 92.8 8.7 93.0 8.8 92.8 8.9 C 91.6 8.8 92.7 8.8 92.7 8.7 C 94.2 8.7 94.2 8.9 95.5 8.7 C 95.2 8.8 94.9 8.9 95.0 9.0 C 95.6 9.0 96.4 9.0 97.0 9.0 C 96.9 8.8 97.8 8.8 97.6 8.7 C 97.6 8.7 97.6 8.7 97.6 8.7 Z M 61.4 8.0 C 59.0 8.0 60.4 8.2 61.5 8.2 C 61.0 8.3 60.2 8.3 59.5 8.3 C 60.2 8.4 60.8 8.4 62.9 8.4 C 61.3 8.7 63.5 9.2 66.9 9.1 C 67.6 8.7 64.7 8.6 65.7 8.3 C 63.3 8.5 61.8 8.3 61.4 8.0 C 61.4 8.0 61.4 8.0 61.4 8.0 Z M 251.8 8.1 C 250.5 8.1 249.0 8.1 247.7 8.1 C 247.7 8.3 251.9 8.5 251.8 8.1 C 251.8 8.1 251.8 8.1 251.8 8.1 Z M 284.7 74.0 C 284.7 74.6 284.7 74.6 284.6 74.7 C 284.7 76.8 284.8 73.8 285.0 74.8 C 285.0 74.1 285.0 73.4 285.0 72.7 C 284.9 72.5 284.8 75.5 284.7 73.3 C 284.6 73.4 284.7 74.0 284.7 74.0 C 284.7 74.0 284.7 74.0 284.7 74.0 Z M 220.6 8.2 C 219.3 8.3 219.9 8.6 217.0 8.5 C 218.0 8.7 218.7 8.6 220.4 8.6 C 220.5 8.4 220.6 8.3 220.6 8.2 C 220.6 8.2 220.6 8.2 220.6 8.2 Z M 107.8 8.3 C 106.0 8.0 105.7 8.6 102.4 8.4 C 104.1 8.7 105.9 8.4 107.8 8.3 C 107.8 8.3 107.8 8.3 107.8 8.3 Z M 9.0 24.3 C 9.1 23.4 9.2 24.7 9.3 23.1 C 9.2 22.1 9.1 21.6 9.0 20.1 C 8.8 21.9 9.0 25.6 8.6 26.7 C 8.7 28.4 8.9 28.5 9.1 29.2 C 9.1 28.4 9.1 28.0 9.2 27.9 C 8.8 26.6 9.4 25.9 9.0 24.3 C 9.0 24.3 9.0 24.3 9.0 24.3 Z M 70.6 8.4 C 71.9 8.6 69.8 8.6 69.4 8.8 C 68.5 8.8 68.7 8.6 68.5 8.5 C 67.3 8.5 67.0 8.6 67.4 8.8 C 69.7 8.9 72.5 8.9 71.0 9.2 C 73.2 9.3 71.9 9.0 72.9 8.9 C 74.2 9.1 73.1 9.1 73.2 9.4 C 73.7 9.3 75.2 9.0 75.2 9.4 C 78.4 9.1 76.7 8.6 74.0 8.3 C 71.9 8.5 74.5 8.6 70.6 8.4 C 70.6 8.4 70.6 8.4 70.6 8.4 Z M 158.3 8.7 C 158.1 8.6 156.9 8.6 156.9 8.5 C 155.4 8.7 154.1 9.0 152.8 9.2 C 153.0 9.4 154.9 9.2 154.1 9.1 C 154.7 9.2 156.1 9.3 156.8 9.5 C 158.2 9.5 158.8 9.0 158.9 9.4 C 160.3 9.2 159.5 9.2 161.7 9.3 C 158.2 9.0 162.9 9.2 163.1 8.9 C 161.1 8.9 159.4 8.9 159.6 9.1 C 158.1 9.0 156.5 9.0 156.2 8.7 C 156.4 8.6 157.5 8.7 158.3 8.7 C 158.3 8.7 158.3 8.7 158.3 8.7 Z M 150.0 9.4 C 150.6 9.3 151.1 9.3 152.0 9.3 C 151.5 9.2 151.3 9.1 151.4 9.0 C 149.6 9.0 149.2 9.1 148.6 8.9 C 147.0 8.9 149.0 9.3 146.5 9.1 C 146.7 9.2 148.0 9.2 148.0 9.3 C 148.2 9.1 149.2 9.1 150.0 9.4 C 150.0 9.4 150.0 9.4 150.0 9.4 Z M 128.7 8.9 C 126.9 8.9 129.6 9.0 128.7 9.2 C 129.2 9.2 132.6 9.3 132.2 9.5 C 133.2 9.8 136.6 9.1 136.3 9.5 C 137.1 9.5 136.8 9.4 137.0 9.3 C 134.6 9.4 134.6 9.2 136.3 9.1 C 136.0 9.0 134.5 9.1 133.5 9.1 C 133.4 9.2 134.4 9.2 134.2 9.4 C 132.2 9.2 130.6 9.1 128.7 8.9 C 128.7 8.9 128.7 8.9 128.7 8.9 Z M 246.3 111.3 C 247.9 111.3 248.9 111.3 249.6 111.2 C 249.0 111.1 248.3 111.2 247.5 111.2 C 247.2 111.1 248.0 111.1 248.8 111.0 C 247.8 110.8 245.1 111.0 246.3 111.3 C 246.3 111.3 246.3 111.3 246.3 111.3 Z M 260.0 111.3 C 261.5 111.3 262.5 111.3 262.6 111.1 C 261.8 111.0 262.2 111.2 261.2 111.2 C 260.6 111.1 260.1 111.1 259.7 111.0 C 259.0 111.0 259.2 111.1 259.1 111.1 C 258.6 111.1 258.5 111.1 258.4 111.0 C 256.7 111.3 260.5 111.0 260.0 111.3 C 260.0 111.3 260.0 111.3 260.0 111.3 Z M 140.4 9.1 C 141.0 9.2 141.5 9.3 143.1 9.3 C 142.8 9.1 144.1 9.1 145.2 9.1 C 143.6 8.9 142.8 9.0 140.4 9.1 C 140.4 9.1 140.4 9.1 140.4 9.1 Z M 284.1 48.8 C 284.3 46.6 283.9 46.9 284.1 43.9 C 284.0 43.9 283.9 43.9 283.8 44.0 C 284.0 45.7 283.9 46.6 284.1 48.8 C 284.1 48.8 284.1 48.8 284.1 48.8 Z M 62.6 111.1 C 62.8 110.9 60.6 111.0 60.5 110.9 C 60.1 111.3 59.0 110.6 55.0 110.7 C 54.9 110.6 55.2 110.6 55.7 110.6 C 52.4 110.5 56.7 110.8 57.1 111.0 C 59.6 111.0 60.1 111.2 62.6 111.1 C 62.6 111.1 62.6 111.1 62.6 111.1 Z M 14.8 9.4 C 14.9 9.3 14.5 9.3 14.1 9.3 C 13.6 9.3 13.1 9.3 12.7 9.3 C 13.2 9.6 15.6 9.8 14.2 10.1 C 14.8 10.1 14.8 10.1 14.8 10.0 C 17.4 9.3 21.1 10.5 25.0 10.0 C 25.7 10.0 25.5 9.9 25.6 9.9 C 25.0 9.9 24.9 9.8 24.8 9.8 C 24.6 10.1 20.3 9.7 21.9 9.6 C 21.7 9.5 21.2 9.6 21.3 9.6 C 20.8 9.6 20.3 9.6 19.9 9.6 C 20.2 9.7 21.2 9.7 21.5 9.9 C 19.2 9.8 16.5 9.7 17.6 9.4 C 16.3 9.4 15.9 9.5 15.1 9.6 C 14.2 9.6 14.0 9.4 14.8 9.4 C 14.8 9.4 14.8 9.4 14.8 9.4 Z M 9.8 22.2 C 9.8 24.3 10.1 23.7 10.0 25.8 C 10.2 24.6 9.9 22.7 10.1 21.1 C 10.0 21.2 9.9 22.2 9.8 22.2 C 9.8 22.2 9.8 22.2 9.8 22.2 Z M 37.1 9.8 C 36.9 10.1 38.8 10.1 40.8 10.1 C 41.0 9.8 39.2 9.8 37.1 9.8 C 37.1 9.8 37.1 9.8 37.1 9.8 Z M 28.2 9.8 C 26.3 9.9 30.8 9.8 29.9 10.1 C 30.8 10.1 31.8 10.1 32.0 10.2 C 32.6 10.1 32.5 10.0 33.9 10.0 C 33.7 9.9 31.6 10.0 31.6 9.8 C 30.2 9.9 30.0 9.9 28.2 9.8 C 28.2 9.8 28.2 9.8 28.2 9.8 Z M 26.9 9.8 C 25.6 9.9 27.6 10.3 29.3 10.3 C 28.6 10.1 28.0 9.9 26.9 9.8 C 26.9 9.8 26.9 9.8 26.9 9.8 Z M 186.9 9.9 C 185.9 9.9 186.6 10.1 185.5 10.1 C 185.4 10.2 189.5 10.2 186.1 10.3 C 187.3 10.5 188.1 10.1 189.6 10.2 C 189.1 10.1 188.8 10.0 189.6 10.0 C 190.2 9.8 186.3 10.1 186.9 9.9 C 186.9 9.9 186.9 9.9 186.9 9.9 Z M 182.8 9.9 C 182.0 9.9 182.4 9.9 182.8 9.9 C 182.6 10.0 181.5 10.0 180.7 10.0 C 180.7 9.9 182.1 10.4 182.0 10.6 C 185.5 10.4 182.9 10.1 182.8 9.9 C 182.8 9.9 182.8 9.9 182.8 9.9 Z M 179.4 10.0 C 177.2 9.8 174.0 9.9 172.5 10.1 C 174.0 10.4 178.2 10.3 179.4 10.0 C 179.4 10.0 179.4 10.0 179.4 10.0 Z M 201.8 10.1 C 197.9 9.8 189.7 10.2 196.9 10.4 C 196.7 10.2 201.6 10.1 203.8 10.3 C 204.0 10.1 206.6 9.9 206.6 10.1 C 208.5 9.9 201.0 9.9 201.8 10.1 C 201.8 10.1 201.8 10.1 201.8 10.1 Z M 169.7 10.6 C 170.8 10.5 169.5 10.0 171.2 10.2 C 172.2 10.1 170.9 10.1 171.2 9.9 C 169.1 10.0 164.7 10.2 164.3 9.9 C 163.3 10.0 162.9 10.2 160.9 10.2 C 160.8 10.3 168.2 10.0 169.7 10.4 C 169.6 10.5 166.9 10.6 169.7 10.6 C 169.7 10.6 169.7 10.6 169.7 10.6 Z M 282.6 49.1 C 282.8 49.2 282.7 46.4 282.9 47.0 C 282.6 45.5 282.8 44.0 282.6 42.4 C 282.7 41.8 283.0 41.9 283.1 39.5 C 282.9 39.5 282.9 40.7 282.8 39.6 C 282.7 37.4 283.0 37.9 282.9 35.4 C 282.5 36.0 282.9 30.1 282.5 30.9 C 282.5 32.2 282.7 32.0 282.6 34.2 C 282.6 35.0 282.5 34.7 282.5 35.6 C 282.2 35.1 282.6 33.8 282.4 33.0 C 282.2 33.3 282.2 34.9 282.1 35.2 C 282.1 36.2 282.2 34.9 282.3 35.1 C 282.3 37.7 281.7 35.2 281.8 38.0 C 282.0 37.3 282.1 37.3 282.3 37.8 C 282.2 38.9 282.3 42.3 282.1 40.5 C 281.9 40.8 282.1 42.8 282.3 42.5 C 282.3 43.6 282.2 43.7 282.1 43.8 C 282.2 46.7 282.4 47.0 282.7 46.4 C 282.9 46.9 282.5 47.4 282.6 49.1 C 282.6 49.1 282.6 49.1 282.6 49.1 Z M 223.6 10.2 C 225.3 10.0 221.8 10.2 220.2 10.2 C 222.1 10.2 221.4 10.6 223.4 10.6 C 222.7 10.5 222.9 10.4 224.2 10.4 C 224.6 10.3 221.7 10.2 223.6 10.2 C 223.6 10.2 223.6 10.2 223.6 10.2 Z M 156.8 10.2 C 156.1 10.0 152.5 10.1 150.7 10.1 C 151.0 10.5 155.5 9.9 156.1 10.3 C 157.2 10.3 155.5 10.2 156.8 10.2 C 156.8 10.2 156.8 10.2 156.8 10.2 Z M 282.9 23.1 C 282.9 22.4 282.9 22.9 282.9 23.2 C 282.8 23.1 282.8 21.6 282.8 20.5 C 282.6 22.2 282.5 20.4 282.3 20.9 C 282.3 20.1 282.3 19.8 282.2 19.7 C 282.7 19.2 282.0 15.7 281.9 19.9 C 282.1 19.0 282.1 19.3 282.2 21.0 C 282.0 23.0 282.3 24.4 282.0 25.2 C 282.0 26.4 282.1 26.8 282.1 28.4 C 281.9 28.9 281.8 30.5 281.5 29.5 C 281.5 32.4 282.1 30.1 282.1 32.5 C 282.0 34.8 281.9 31.5 281.7 32.1 C 281.7 32.7 281.6 32.6 281.5 32.8 C 281.5 33.7 281.7 33.5 281.7 32.7 C 281.8 32.9 282.0 35.1 281.7 34.6 C 281.9 35.9 282.5 32.1 282.2 30.4 C 282.2 29.3 282.7 29.0 282.6 30.2 C 282.8 29.6 282.3 27.7 282.8 28.0 C 282.8 27.1 282.8 26.2 282.8 25.3 C 282.7 25.5 282.7 26.0 282.6 26.1 C 282.6 25.2 282.6 24.3 282.6 23.4 C 282.7 24.1 282.8 24.0 282.9 23.1 C 282.9 23.1 282.9 23.1 282.9 23.1 Z M 165.7 10.3 C 164.0 10.2 163.5 10.4 162.2 10.4 C 162.7 10.6 166.5 10.5 165.7 10.3 C 165.7 10.3 165.7 10.3 165.7 10.3 Z M 281.9 60.6 C 282.0 60.4 282.0 59.2 282.1 59.2 C 282.1 61.3 282.3 59.0 282.7 60.6 C 282.5 57.9 281.9 57.0 281.7 60.6 C 281.8 63.2 281.9 58.0 281.9 60.6 C 281.9 60.6 281.9 60.6 281.9 60.6 Z M 282.1 52.5 C 281.9 50.9 281.8 55.0 281.7 56.0 C 281.7 56.0 281.6 56.0 281.5 56.0 C 281.9 58.2 282.0 55.1 282.5 57.2 C 282.6 54.6 282.7 53.4 282.5 51.1 C 282.4 51.3 282.5 51.8 282.5 51.8 C 282.5 53.5 282.2 52.4 282.3 50.5 C 282.2 51.1 282.2 52.7 282.1 53.9 C 282.2 53.6 282.3 53.2 282.4 53.2 C 282.4 54.6 282.2 54.1 282.2 55.2 C 282.1 55.2 281.9 52.6 282.1 52.5 C 282.1 52.5 282.1 52.5 282.1 52.5 Z M 205.9 109.5 C 207.3 109.5 204.2 109.2 204.1 108.8 C 202.6 108.8 202.3 108.9 201.4 108.9 C 202.0 109.0 203.6 109.1 204.4 109.2 C 204.3 109.5 202.2 109.1 201.8 109.4 C 201.2 109.7 205.1 109.2 205.9 109.5 C 205.9 109.5 205.9 109.5 205.9 109.5 Z M 263.5 10.7 C 262.7 10.7 263.1 10.7 263.4 10.7 C 263.2 10.8 262.0 10.8 262.1 10.7 C 261.0 10.8 262.5 10.9 261.3 10.9 C 260.9 11.1 263.2 10.9 263.3 10.8 C 264.8 10.8 263.4 11.1 263.7 11.2 C 265.0 11.2 264.7 11.0 266.5 11.1 C 265.5 10.9 264.7 10.8 263.5 10.7 C 263.5 10.7 263.5 10.7 263.5 10.7 Z M 282.4 65.3 C 282.5 65.6 282.0 63.7 282.2 61.9 C 282.2 59.6 282.0 63.3 282.0 61.3 C 281.9 63.0 282.1 65.2 282.1 67.9 C 282.3 68.6 282.2 64.1 282.3 66.6 C 282.4 66.5 282.3 65.9 282.3 65.9 C 282.3 65.4 282.3 65.3 282.4 65.3 C 282.4 65.3 282.4 65.3 282.4 65.3 Z M 281.8 62.6 C 281.7 62.7 281.8 63.3 281.8 63.3 C 281.8 64.1 281.6 64.1 281.6 63.3 C 281.3 64.3 281.8 64.3 281.7 66.6 C 281.9 65.6 282.0 65.2 281.8 67.2 C 282.0 69.0 282.0 63.3 281.8 62.6 C 281.8 62.6 281.8 62.6 281.8 62.6 Z M 227.6 109.4 C 227.3 109.3 225.9 109.3 224.8 109.3 C 226.0 109.1 231.6 109.2 232.3 109.4 C 232.9 109.3 233.5 109.3 233.7 109.4 C 233.6 109.3 235.0 109.2 234.2 109.1 C 234.3 109.0 235.5 109.1 235.4 109.0 C 237.5 109.0 234.9 109.1 235.7 109.3 C 237.9 109.1 237.6 109.2 240.4 109.3 C 239.8 109.0 236.7 109.1 236.7 108.8 C 234.6 109.1 232.0 108.9 230.4 108.6 C 232.9 109.0 225.0 109.2 221.3 109.1 C 221.3 109.0 220.0 109.0 218.4 108.9 C 217.1 108.6 217.9 109.2 219.8 109.0 C 219.9 109.2 217.0 109.1 215.8 109.1 C 217.3 109.3 216.6 109.4 217.4 109.4 C 220.1 109.4 217.6 109.4 218.0 109.2 C 218.6 109.2 219.3 109.2 220.0 109.2 C 216.7 109.6 225.2 109.2 222.1 109.3 C 224.8 109.3 225.1 109.5 227.6 109.4 C 227.6 109.4 227.6 109.4 227.6 109.4 Z M 282.4 100.3 C 282.4 99.8 282.2 97.5 282.4 97.6 C 282.2 94.7 282.0 97.0 282.0 93.9 C 281.9 94.1 281.9 95.3 281.8 95.2 C 281.9 96.4 282.0 97.6 282.2 97.5 C 282.2 98.8 282.3 99.3 282.3 100.2 C 282.2 99.8 282.1 99.3 282.1 98.1 C 281.9 97.7 281.8 98.1 281.8 99.9 C 282.0 100.8 282.2 100.4 282.4 100.3 C 282.4 100.3 282.4 100.3 282.4 100.3 Z M 282.1 93.3 C 282.1 93.1 282.2 92.7 282.3 92.8 C 282.6 92.0 282.0 92.2 282.0 91.3 C 282.0 90.5 282.1 90.8 282.2 90.8 C 282.2 89.6 282.1 88.6 282.2 88.1 C 282.1 86.2 282.0 90.0 281.9 90.6 C 281.9 91.9 282.1 91.6 282.1 93.3 C 282.1 93.3 282.1 93.3 282.1 93.3 Z M 282.3 73.3 C 282.5 73.1 282.2 72.2 282.2 71.3 C 282.0 71.9 282.1 73.9 281.8 72.5 C 281.7 74.5 281.7 74.6 281.8 76.6 C 281.6 77.7 282.0 76.7 281.9 74.6 C 282.0 74.9 282.0 75.8 282.1 76.0 C 281.7 77.1 282.4 80.8 282.1 78.6 C 282.1 78.0 282.2 77.7 282.3 77.4 C 282.1 76.9 282.2 72.3 282.3 73.3 C 282.3 73.3 282.3 73.3 282.3 73.3 Z M 277.3 11.1 C 279.8 11.1 280.0 11.1 282.1 11.1 C 282.1 11.3 282.1 11.5 282.1 11.8 C 282.0 12.0 281.9 11.8 281.9 11.3 C 281.8 12.0 281.8 12.8 281.9 13.9 C 282.0 13.7 281.9 13.2 281.9 13.3 C 282.1 10.9 282.1 12.8 282.3 12.9 C 282.3 12.1 282.4 11.5 282.3 10.9 C 280.5 10.9 278.9 11.1 278.3 10.8 C 277.2 10.9 278.4 10.9 277.3 11.1 C 277.3 11.1 277.3 11.1 277.3 11.1 Z M 64.9 109.1 C 64.5 109.2 63.4 109.2 63.6 109.4 C 64.6 109.3 65.3 109.2 66.3 109.2 C 64.4 109.1 64.6 108.8 62.1 108.8 C 63.0 108.9 62.8 109.2 64.9 109.1 C 64.9 109.1 64.9 109.1 64.9 109.1 Z M 282.2 80.0 C 282.1 80.1 282.0 80.1 282.0 79.3 C 281.8 79.0 281.9 81.1 281.7 81.1 C 281.8 81.9 281.9 81.7 281.9 82.6 C 282.0 82.3 282.0 80.5 282.2 81.4 C 282.2 81.9 282.2 82.0 282.1 82.0 C 282.3 83.5 282.3 81.4 282.2 80.0 C 282.2 80.0 282.2 80.0 282.2 80.0 Z M 199.0 109.3 C 199.9 109.3 198.9 109.1 198.2 109.1 C 200.0 108.9 196.7 108.7 196.4 108.5 C 197.4 108.7 200.0 108.6 200.5 108.6 C 201.3 108.6 200.2 108.4 202.4 108.3 C 202.0 108.1 199.7 108.3 200.4 108.5 C 199.6 108.2 197.5 108.5 197.5 108.2 C 194.5 108.2 193.9 108.4 193.8 108.6 C 196.7 108.5 195.5 109.0 198.0 108.9 C 198.0 109.0 197.2 108.9 196.7 109.0 C 197.0 109.1 198.2 109.2 199.0 109.3 C 199.0 109.3 199.0 109.3 199.0 109.3 Z M 269.7 109.3 C 271.2 109.3 271.0 109.1 270.7 108.9 C 270.2 108.9 269.3 109.0 268.1 109.0 C 268.4 109.1 270.2 109.0 269.7 109.3 C 269.7 109.3 269.7 109.3 269.7 109.3 Z M 209.6 109.0 C 209.8 109.1 210.3 109.0 210.3 109.0 C 212.0 108.9 212.5 109.1 213.2 109.2 C 214.1 109.2 213.6 109.0 213.6 108.9 C 212.2 109.1 212.3 108.8 210.2 108.8 C 210.4 108.9 210.1 108.9 209.6 109.0 C 209.6 109.0 209.6 109.0 209.6 109.0 Z M 255.3 109.1 C 256.1 109.1 255.6 109.0 255.2 109.0 C 255.9 108.8 258.9 109.0 259.8 108.9 C 259.8 108.7 256.4 108.7 260.3 108.6 C 259.4 108.5 255.9 108.6 254.1 108.6 C 254.3 108.3 256.8 108.4 256.4 108.1 C 254.4 108.2 252.2 108.4 252.2 108.7 C 255.3 108.7 254.4 109.0 255.3 109.1 C 255.3 109.1 255.3 109.1 255.3 109.1 Z M 251.8 109.0 C 252.1 109.1 252.6 108.9 253.8 109.0 C 251.8 108.7 250.9 108.8 247.4 108.7 C 247.5 108.8 247.5 108.8 247.6 108.9 C 246.9 108.9 246.2 108.9 245.5 108.9 C 248.7 109.2 249.3 109.0 252.4 108.9 C 252.5 108.9 252.2 109.0 251.8 109.0 C 251.8 109.0 251.8 109.0 251.8 109.0 Z M 281.9 49.2 C 281.8 50.2 281.6 51.0 281.6 52.6 C 281.8 52.4 281.9 51.4 281.9 49.2 C 281.9 49.2 281.9 49.2 281.9 49.2 Z M 206.8 108.8 C 205.1 108.9 208.6 108.8 207.3 108.6 C 205.8 108.5 204.1 108.4 203.6 108.2 C 201.1 108.5 206.9 108.5 206.8 108.8 C 206.8 108.8 206.8 108.8 206.8 108.8 Z M 218.6 108.2 C 219.4 108.3 219.6 108.6 218.7 108.4 C 216.8 108.4 220.5 108.6 217.5 108.6 C 218.8 108.7 221.8 108.8 223.0 108.6 C 222.7 108.4 220.2 108.5 220.0 108.3 C 219.8 108.3 220.2 108.2 220.6 108.2 C 220.2 108.1 219.8 108.3 218.6 108.2 C 218.6 108.2 218.6 108.2 218.6 108.2 Z M 229.1 108.6 C 227.8 108.5 226.4 108.4 224.1 108.4 C 225.7 108.6 226.8 108.8 229.1 108.6 C 229.1 108.6 229.1 108.6 229.1 108.6 Z M 100.7 108.3 C 102.4 108.3 100.8 108.1 100.6 108.0 C 98.9 108.0 99.1 108.1 97.2 108.1 C 97.9 108.4 99.6 108.1 100.7 108.3 C 100.7 108.3 100.7 108.3 100.7 108.3 Z M 94.6 108.2 C 94.3 108.0 92.0 108.1 91.8 107.9 C 90.6 108.4 88.2 107.6 88.4 108.0 C 87.9 108.0 87.3 107.9 86.3 107.9 C 88.4 108.3 92.5 108.2 94.6 108.2 C 94.6 108.2 94.6 108.2 94.6 108.2 Z M 240.2 108.2 C 242.1 108.2 239.4 107.8 241.3 107.8 C 241.3 107.7 237.7 107.7 239.7 107.6 C 236.8 107.4 240.4 108.1 240.2 108.2 C 240.2 108.2 240.2 108.2 240.2 108.2 Z M 273.1 107.9 C 273.2 108.1 275.6 108.0 276.6 108.0 C 276.5 107.9 275.7 107.9 275.2 107.9 C 275.4 107.8 275.6 107.8 276.4 107.8 C 275.6 107.6 274.1 107.9 273.1 107.9 C 273.1 107.9 273.1 107.9 273.1 107.9 Z M 240.3 112.3 C 238.9 112.1 237.3 111.9 236.8 112.2 C 235.4 112.0 237.4 112.0 235.8 111.8 C 233.9 112.0 234.7 111.7 231.6 111.8 C 232.0 111.5 229.7 111.6 229.2 111.4 C 230.4 111.3 232.2 111.6 232.6 111.4 C 231.6 111.4 232.0 111.1 232.6 111.3 C 234.8 111.4 230.3 111.6 233.0 111.8 C 233.4 111.4 237.6 112.0 240.0 112.0 C 239.2 112.2 242.1 112.3 240.3 112.3 C 240.3 112.3 240.3 112.3 240.3 112.3 Z M 227.5 111.8 C 225.9 111.8 224.6 111.3 225.1 111.4 C 225.2 111.5 227.0 111.5 227.2 111.4 C 226.7 111.4 226.3 111.3 226.4 111.3 C 229.5 111.3 228.6 111.5 229.4 111.7 C 227.8 111.8 227.3 111.6 226.7 111.8 C 227.2 111.8 227.6 111.8 227.5 111.8 C 227.5 111.8 227.5 111.8 227.5 111.8 Z M 188.5 107.8 C 188.9 108.0 189.2 107.8 189.8 107.8 C 190.2 108.1 193.3 107.6 193.9 107.8 C 193.2 108.0 191.4 108.0 190.7 108.1 C 191.6 108.1 191.9 108.2 192.7 108.1 C 192.7 108.3 190.7 108.3 190.3 108.5 C 190.0 108.3 189.2 108.5 188.9 108.4 C 191.4 108.3 187.0 107.8 188.5 107.8 C 188.5 107.8 188.5 107.8 188.5 107.8 Z M 255.4 107.8 C 255.5 107.6 252.1 107.0 254.4 106.7 C 255.2 106.9 255.7 107.1 255.8 107.4 C 257.3 107.3 258.3 107.5 259.0 107.3 C 262.8 108.0 256.6 107.2 255.4 107.8 C 255.4 107.8 255.4 107.8 255.4 107.8 Z M 266.1 107.6 C 265.7 107.8 267.2 107.8 267.1 108.0 C 265.7 107.8 261.7 108.1 263.0 107.9 C 264.3 107.8 264.1 107.6 266.1 107.6 C 266.1 107.6 266.1 107.6 266.1 107.6 Z M 116.6 10.5 C 118.8 10.3 120.0 10.8 118.8 10.9 C 119.2 10.6 116.0 10.8 116.6 10.5 C 116.6 10.5 116.6 10.5 116.6 10.5 Z M 197.0 6.7 C 195.0 6.5 193.8 6.6 193.6 6.4 C 195.6 6.3 195.3 6.5 197.0 6.5 C 197.2 6.4 198.3 6.3 198.4 6.4 C 197.5 6.4 197.6 6.6 197.0 6.7 C 197.0 6.7 197.0 6.7 197.0 6.7 Z M 286.2 84.6 C 286.3 84.4 286.4 83.6 286.5 84.0 C 286.4 86.2 286.6 88.7 286.8 90.7 C 286.7 90.6 286.6 90.6 286.5 90.5 C 286.5 87.1 286.4 86.0 286.2 84.6 C 286.2 84.6 286.2 84.6 286.2 84.6 Z M 286.7 80.4 C 286.6 80.0 286.3 81.1 286.3 79.5 C 286.5 79.6 286.7 76.9 286.8 78.2 C 286.6 78.6 286.6 79.3 286.7 80.4 C 286.7 80.4 286.7 80.4 286.7 80.4 Z M 201.2 112.5 C 199.5 112.5 202.1 112.7 202.1 112.8 C 200.9 112.8 199.2 112.8 198.6 112.6 C 199.8 112.7 200.4 112.3 201.2 112.5 C 201.2 112.5 201.2 112.5 201.2 112.5 Z M 226.2 111.9 C 229.7 111.9 228.5 112.3 232.1 112.4 C 230.8 112.6 227.6 112.5 226.8 112.7 C 226.8 112.6 226.0 112.5 225.9 112.4 C 227.2 112.4 227.5 112.5 228.7 112.5 C 228.1 112.2 228.1 112.3 228.4 112.1 C 227.5 112.1 226.9 112.1 226.4 112.2 C 226.6 112.0 225.2 112.0 226.2 111.9 C 226.2 111.9 226.2 111.9 226.2 111.9 Z M 201.4 111.8 C 200.1 111.9 198.6 111.6 199.9 111.6 C 200.2 111.8 201.0 111.6 201.3 111.7 C 199.4 111.8 203.0 111.8 202.2 112.0 C 201.0 112.0 200.7 112.1 201.0 112.2 C 200.2 112.2 199.0 112.3 198.9 112.2 C 199.4 112.1 200.3 112.2 200.2 112.1 C 199.8 112.1 199.4 112.1 199.5 112.0 C 200.7 112.0 201.2 111.9 201.4 111.8 C 201.4 111.8 201.4 111.8 201.4 111.8 Z M 211.0 111.8 C 209.1 111.8 208.8 111.6 208.0 111.4 C 210.6 111.5 211.2 111.8 213.2 112.0 C 211.1 111.9 209.2 112.3 208.4 112.1 C 209.3 112.0 211.0 112.0 211.0 111.8 C 211.0 111.8 211.0 111.8 211.0 111.8 Z M 9.3 81.1 C 9.4 79.5 9.6 78.2 9.7 76.5 C 9.4 75.8 8.9 79.0 9.1 77.6 C 9.1 75.7 9.4 77.1 9.4 75.6 C 9.1 77.0 9.1 69.0 9.4 68.8 C 9.4 70.0 9.5 70.4 9.7 70.2 C 9.6 73.4 9.8 74.8 9.9 77.2 C 9.6 78.8 9.5 83.9 9.8 86.8 C 9.4 88.5 9.9 91.9 9.5 94.3 C 9.7 95.0 9.8 92.2 9.8 94.3 C 9.6 95.6 9.5 94.5 9.4 96.3 C 9.5 96.5 9.6 96.1 9.7 97.1 C 9.5 96.9 9.5 98.0 9.4 98.4 C 9.5 94.7 9.1 98.6 9.0 95.6 C 9.2 94.4 9.4 97.0 9.4 93.6 C 9.4 92.4 9.3 91.2 9.0 91.4 C 9.0 90.5 9.0 89.9 9.0 89.3 C 9.3 90.7 8.9 84.6 9.2 87.3 C 9.2 87.6 9.2 89.4 9.3 90.8 C 9.5 89.6 9.4 88.1 9.3 86.0 C 9.5 85.1 9.5 86.4 9.6 85.4 C 9.4 83.6 9.2 85.9 9.1 84.6 C 9.1 85.1 9.1 85.9 9.0 85.9 C 9.3 83.1 9.0 81.8 9.0 80.4 C 9.2 81.4 9.2 78.7 9.3 81.1 C 9.3 81.1 9.3 81.1 9.3 81.1 Z M 9.6 106.0 C 9.6 106.7 9.6 107.4 9.6 108.1 C 9.4 108.2 9.3 105.6 9.1 107.4 C 9.2 104.3 9.4 107.5 9.6 106.0 C 9.6 106.0 9.6 106.0 9.6 106.0 Z M 10.5 92.4 C 10.7 91.5 10.2 91.9 10.2 91.0 C 10.2 92.6 10.3 94.2 10.0 94.3 C 10.1 92.4 10.1 91.6 10.0 89.5 C 10.3 91.5 10.3 87.5 10.6 86.9 C 10.6 88.5 10.7 89.7 10.7 91.7 C 10.6 91.4 10.5 94.4 10.5 92.4 C 10.5 92.4 10.5 92.4 10.5 92.4 Z M 10.8 97.9 C 10.6 98.3 10.8 101.3 10.5 100.6 C 10.5 98.8 10.4 98.1 10.2 98.5 C 10.2 97.2 10.3 97.0 10.3 95.8 C 10.6 95.1 10.6 97.2 10.7 97.9 C 10.7 97.5 10.8 97.1 10.8 97.9 C 10.8 97.9 10.8 97.9 10.8 97.9 Z M 49.2 108.3 C 49.8 108.6 47.0 108.5 46.5 108.4 C 47.3 108.6 46.9 108.7 45.2 108.8 C 45.8 108.5 43.3 108.6 41.8 108.2 C 41.4 108.5 43.4 108.6 41.1 108.6 C 39.3 108.6 37.7 108.7 35.0 108.7 C 34.4 108.5 35.6 108.4 36.3 108.3 C 34.4 108.4 34.9 108.2 33.6 108.2 C 33.8 108.3 32.7 108.4 32.2 108.2 C 34.6 108.1 29.0 107.9 31.5 107.8 C 31.7 107.9 32.3 107.9 32.9 107.8 C 32.2 108.2 35.5 108.1 36.3 108.2 C 37.5 107.7 41.1 107.9 45.1 108.1 C 45.4 108.2 44.1 108.3 45.1 108.3 C 45.3 108.2 46.6 108.2 47.2 108.2 C 47.1 108.3 47.7 108.4 48.5 108.4 C 48.6 108.4 48.6 108.3 49.2 108.3 C 49.2 108.3 49.2 108.3 49.2 108.3 Z M 52.1 11.5 C 52.2 12.0 56.4 11.7 57.5 11.6 C 57.6 12.1 49.9 11.9 52.1 11.5 C 52.1 11.5 52.1 11.5 52.1 11.5 Z M 26.0 11.9 C 27.1 11.9 26.2 11.6 27.1 11.6 C 27.4 11.9 29.5 11.4 29.8 11.6 C 28.8 11.8 28.0 11.8 26.0 11.9 C 26.0 11.9 26.0 11.9 26.0 11.9 Z M 12.2 22.3 C 12.1 20.3 12.0 23.2 11.9 22.7 C 11.9 21.0 11.9 19.2 12.2 19.6 C 12.0 21.0 12.4 22.2 12.2 22.3 C 12.2 22.3 12.2 22.3 12.2 22.3 Z M 38.3 12.1 C 40.0 12.2 37.6 12.5 37.2 12.3 C 38.9 12.3 35.8 12.1 34.4 12.2 C 34.2 11.9 34.9 12.0 34.0 11.7 C 36.2 11.6 34.6 12.0 36.2 11.9 C 37.2 11.8 36.1 11.8 35.9 11.6 C 36.6 11.6 37.3 11.6 37.9 11.6 C 38.0 11.8 38.1 11.9 38.2 12.0 C 37.5 12.0 36.7 12.0 37.1 12.2 C 37.7 12.2 37.8 12.1 38.3 12.1 C 38.3 12.1 38.3 12.1 38.3 12.1 Z M 13.9 107.8 C 12.9 107.9 13.8 108.0 14.6 108.0 C 14.8 107.9 15.4 107.4 16.6 107.7 C 14.0 107.9 17.4 108.0 16.0 108.2 C 15.4 107.9 13.8 108.2 12.6 108.2 C 12.0 108.0 13.3 107.6 13.9 107.8 C 13.9 107.8 13.9 107.8 13.9 107.8 Z M 18.7 108.0 C 18.6 107.9 18.1 107.9 17.3 107.9 C 18.2 107.7 17.0 107.7 18.0 107.6 C 17.9 107.7 21.5 107.8 19.3 107.8 C 17.5 107.7 19.9 108.0 20.7 108.0 C 19.8 108.0 18.2 108.3 18.0 108.1 C 18.4 108.1 18.8 108.1 18.7 108.0 C 18.7 108.0 18.7 108.0 18.7 108.0 Z M 62.6 107.7 C 62.8 107.5 61.6 107.5 61.2 107.4 C 64.7 107.5 67.6 107.5 69.3 107.5 C 67.8 107.5 67.8 107.7 68.8 107.8 C 67.0 107.7 66.7 107.9 66.0 107.8 C 67.4 107.6 64.7 107.7 62.6 107.7 C 62.6 107.7 62.6 107.7 62.6 107.7 Z M 62.6 107.7 " fill="#FFE181"></path></g></svg>