<?xml version="1.0" encoding="UTF-8" standalone="no"?><svg xmlns="http://www.w3.org/2000/svg" xmlns:xlink="http://www.w3.org/1999/xlink" clip-rule="evenodd" stroke-miterlimit="4.00" viewBox="0 0 309 123"><desc>SVG generated by Keynote</desc><defs></defs><g transform="matrix(1.00, 0.00, -0.00, -1.00, 0.0, 123.0)"><g><clipPath id="clip-284"><path d="M 260.0 101.2 C 318.3 79.3 318.3 43.7 260.0 21.7 C 201.8 -0.2 107.4 -0.2 49.2 21.7 C -9.0 43.7 -9.0 79.3 49.2 101.2 C 107.4 123.2 201.8 123.2 260.0 101.2 Z M 260.0 101.2 "></path></clipPath><g clip-path="url(#clip-284)"><image xlink:href="../../CEFA4209-80C9-472B-8D2B-058B96531B72/assets/59DBD66EA15A3D40E065F836EF2595FD.jpeg" width="400.00" height="400.00" transform="matrix(1.00, 0.00, -0.00, -1.00, 5.5, 117.7)"></image></g></g><path d="M 76.9 9.5 C 76.4 9.7 75.9 9.8 75.1 10.0 C 75.4 10.0 75.7 10.0 75.7 10.1 C 76.4 9.9 77.3 9.6 78.7 9.4 C 78.6 9.3 77.9 9.5 77.5 9.6 C 76.9 9.7 77.0 9.6 76.9 9.5 C 76.9 9.5 76.9 9.5 76.9 9.5 Z M 64.8 109.8 C 63.7 109.5 64.9 110.1 65.3 110.2 C 65.4 110.2 65.5 110.2 65.9 110.3 C 66.0 110.5 65.0 110.3 64.2 110.1 C 61.1 109.1 63.5 109.4 64.8 109.8 C 64.8 109.8 64.8 109.8 64.8 109.8 Z M 235.7 111.9 C 238.3 111.3 235.5 111.7 235.1 111.7 C 236.3 111.4 235.2 111.3 236.7 110.8 C 237.0 110.9 237.6 110.8 237.9 110.9 C 237.3 111.1 236.3 111.3 236.2 111.4 C 237.1 111.2 238.3 110.8 238.5 110.9 C 236.6 111.4 238.3 111.2 238.6 111.3 C 236.9 111.7 236.3 112.0 235.7 111.9 C 235.7 111.9 235.7 111.9 235.7 111.9 Z M 280.3 28.1 C 281.2 28.6 281.8 29.1 281.6 29.1 C 280.7 28.5 280.1 28.2 279.6 27.8 C 279.4 27.9 279.6 28.1 278.8 27.7 C 278.0 27.0 278.6 27.0 279.1 27.1 C 279.1 27.3 282.2 29.0 280.3 28.1 C 280.3 28.1 280.3 28.1 280.3 28.1 Z M 209.9 7.0 C 207.5 6.5 209.7 7.3 207.3 6.8 C 207.4 6.6 207.1 6.3 208.7 6.5 C 208.8 6.7 209.7 6.8 209.9 7.0 C 209.9 7.0 209.9 7.0 209.9 7.0 Z M 163.6 118.9 C 163.6 119.1 165.4 119.0 165.0 119.2 C 164.0 119.2 163.2 119.2 162.3 119.3 C 162.1 119.1 162.4 119.0 163.6 118.9 C 163.6 118.9 163.6 118.9 163.6 118.9 Z M 252.0 104.9 C 254.5 104.4 256.9 103.1 256.2 103.6 C 257.2 103.6 254.8 104.9 254.8 104.6 C 254.4 104.4 250.0 105.6 252.0 104.9 C 252.0 104.9 252.0 104.9 252.0 104.9 Z M 79.1 109.1 C 81.9 109.9 81.5 109.1 83.3 109.8 C 82.6 109.7 82.3 109.7 82.1 109.8 C 82.5 109.9 83.2 110.0 83.2 110.1 C 81.9 109.8 80.2 109.6 79.1 109.1 C 79.1 109.1 79.1 109.1 79.1 109.1 Z M 119.7 3.5 C 120.2 3.4 120.4 3.4 120.4 3.3 C 122.4 3.1 122.3 3.0 123.6 3.0 C 123.7 3.3 122.0 3.3 120.4 3.4 C 120.3 3.5 119.8 3.6 119.7 3.5 C 119.7 3.5 119.7 3.5 119.7 3.5 Z M 178.2 3.5 C 178.2 3.3 176.9 3.2 178.9 3.2 C 181.0 3.7 179.1 3.8 176.8 3.8 C 176.8 3.9 176.8 4.0 176.8 4.1 C 177.7 4.1 178.3 4.2 178.8 4.3 C 179.2 3.9 180.7 4.7 184.1 4.7 C 182.4 4.8 184.2 5.2 182.1 4.9 C 182.6 5.2 181.1 5.0 181.4 5.3 C 182.3 5.2 184.5 5.4 184.0 5.0 C 185.2 5.1 186.1 5.2 186.6 5.3 C 187.5 5.7 184.5 5.2 185.3 5.5 C 186.0 5.6 186.1 5.7 186.6 5.7 C 186.7 5.6 186.5 5.5 187.3 5.5 C 189.4 5.8 186.9 5.8 189.8 6.1 C 190.0 6.0 189.2 5.8 189.2 5.7 C 190.6 5.7 190.5 5.9 191.8 5.9 C 192.1 6.0 190.9 6.0 191.8 6.1 C 192.7 5.8 194.5 6.6 196.4 6.5 C 195.2 5.9 196.7 6.6 198.4 6.3 C 198.7 6.5 197.5 6.7 198.9 6.9 C 198.5 6.2 204.2 7.0 199.7 6.0 C 202.1 6.3 203.0 5.9 201.0 5.6 C 205.3 6.2 203.9 5.8 205.6 5.9 C 207.2 6.2 204.7 6.0 205.5 6.3 C 203.8 6.0 204.2 6.2 203.0 5.9 C 203.0 6.0 202.6 6.1 202.3 6.1 C 204.0 6.1 206.0 6.8 204.7 6.9 C 203.9 6.7 204.7 6.6 203.5 6.4 C 203.9 6.8 202.3 6.2 202.2 6.4 C 203.0 6.8 200.5 6.8 202.8 7.1 C 202.8 7.0 202.9 6.8 202.9 6.7 C 203.5 6.8 204.1 6.9 204.7 7.0 C 205.3 7.3 204.8 7.4 205.3 7.5 C 206.4 7.7 207.0 7.7 207.3 7.6 C 206.0 7.4 204.5 7.0 206.6 7.2 C 205.8 7.6 209.6 7.8 207.9 7.8 C 210.2 8.3 211.4 8.1 211.6 8.4 C 212.8 8.6 212.1 8.2 213.5 8.5 C 215.8 9.1 215.4 8.7 218.5 9.4 C 218.9 9.1 218.8 9.5 219.7 9.7 C 219.7 9.6 219.8 9.5 219.8 9.3 C 220.8 9.7 223.2 10.3 225.8 10.6 C 226.4 10.8 225.9 10.9 227.6 11.2 C 229.4 11.2 231.4 12.0 233.5 12.2 C 233.7 12.4 235.1 12.7 235.9 12.8 C 236.2 13.0 235.1 13.0 236.4 13.4 C 237.3 13.3 235.8 12.9 237.6 13.3 C 237.4 13.4 239.3 13.5 239.3 13.8 C 238.7 13.7 238.1 13.6 237.5 13.6 C 238.3 13.8 238.1 13.8 238.7 14.0 C 238.6 13.7 240.0 14.3 240.4 14.5 C 240.4 14.3 240.6 14.3 241.0 14.3 C 242.0 14.6 242.8 14.8 243.3 14.8 C 244.5 15.3 242.5 14.8 243.8 15.2 C 244.6 14.8 245.6 15.8 248.3 16.2 C 248.8 16.6 249.9 17.0 251.5 17.5 C 251.7 17.4 250.0 17.0 249.9 16.8 C 252.3 17.6 249.6 16.5 251.1 17.0 C 254.4 18.2 256.6 18.9 259.9 20.4 C 259.9 20.2 264.1 21.6 263.9 21.7 C 262.8 21.2 266.2 22.9 267.9 23.7 C 268.5 23.5 271.3 24.3 271.5 24.2 C 272.0 24.7 271.9 24.6 272.0 25.1 C 274.7 26.5 276.3 26.9 277.7 28.2 C 277.7 27.9 278.9 28.5 279.9 29.0 C 279.5 29.0 278.9 28.8 278.3 28.7 C 279.6 29.4 279.8 29.6 280.9 30.2 C 282.4 30.3 283.7 32.2 284.9 32.2 C 286.6 33.3 286.2 33.3 287.6 34.3 C 287.6 34.2 287.9 34.2 288.3 34.5 C 287.3 33.8 286.5 33.5 286.1 32.9 C 288.4 34.3 282.1 29.4 286.0 31.7 C 286.1 31.9 285.7 31.8 286.4 32.3 C 288.6 33.7 287.5 32.6 286.6 32.1 C 288.1 32.9 289.5 34.1 288.5 33.0 C 291.7 35.2 289.6 34.0 290.6 34.8 C 295.9 38.8 301.3 44.2 304.0 50.7 C 304.4 50.8 305.4 54.3 305.5 55.5 C 306.2 57.2 306.5 59.2 306.2 59.8 C 306.5 60.1 306.1 62.0 306.4 62.2 C 306.4 61.4 306.5 60.9 306.5 61.7 C 306.4 64.4 305.4 68.3 305.0 69.9 C 304.4 70.8 303.8 72.5 303.3 73.7 C 303.1 73.8 303.5 72.8 303.1 73.5 C 303.1 73.8 301.9 76.3 301.4 76.8 C 301.9 76.1 302.1 75.1 301.4 76.2 C 301.5 76.3 300.6 77.5 301.0 77.3 C 299.9 78.7 299.3 79.7 298.2 80.8 C 299.0 79.8 299.4 79.1 299.4 78.8 C 298.8 79.8 298.4 80.5 297.6 81.0 C 298.0 81.1 296.6 82.3 295.4 83.8 C 294.9 84.1 294.5 84.2 293.3 85.3 C 292.9 86.0 295.4 83.8 294.0 85.1 C 294.0 85.0 292.6 86.1 293.1 86.0 C 291.3 87.3 290.5 88.2 288.8 89.1 C 290.8 87.8 289.2 88.6 288.6 88.9 C 288.2 89.2 287.6 89.7 287.6 89.7 C 287.7 89.8 288.6 89.1 288.8 89.1 C 287.4 90.0 287.2 90.6 286.6 90.7 C 287.2 90.3 287.2 90.1 286.5 90.6 C 286.5 91.1 282.0 93.6 283.4 92.5 C 283.5 92.6 285.2 91.5 285.3 91.3 C 284.7 91.5 282.3 93.2 282.7 92.7 C 284.1 91.7 284.1 92.0 285.8 90.8 C 285.8 90.5 286.8 89.8 287.3 89.3 C 284.8 91.1 284.3 91.7 283.8 91.7 C 282.6 92.5 283.5 92.3 281.4 93.5 C 278.4 95.1 280.7 93.5 279.9 93.9 C 277.3 95.5 278.2 95.3 279.5 94.9 C 277.3 96.1 276.7 96.6 273.9 97.9 C 274.0 97.7 274.3 97.4 275.3 96.9 C 275.4 96.9 277.7 95.9 277.4 95.9 C 277.1 95.6 275.2 96.5 272.1 97.9 C 273.0 97.9 273.0 97.7 269.8 99.1 C 270.5 99.2 268.2 99.8 268.3 100.0 C 268.4 100.0 269.6 99.5 270.7 99.0 C 270.7 99.2 270.3 99.5 269.3 100.0 C 268.5 100.2 268.1 100.6 266.0 101.3 C 265.8 101.2 267.2 100.6 267.4 100.3 C 266.3 100.8 266.1 101.0 265.0 101.5 C 263.9 101.7 263.9 101.3 263.9 101.0 C 265.1 100.4 267.1 99.6 265.5 100.1 C 270.3 98.0 265.4 100.5 267.2 99.8 C 269.1 98.6 268.2 99.5 271.2 98.1 C 272.0 97.7 272.3 97.4 272.6 97.2 C 272.4 97.3 270.6 97.8 272.5 96.9 C 273.0 96.9 274.1 96.5 275.6 95.8 C 275.5 95.7 272.5 97.1 275.4 95.5 C 276.9 94.8 275.8 95.8 277.7 94.7 C 277.7 94.6 278.2 94.3 278.3 94.2 C 275.5 95.8 278.7 93.7 276.8 94.6 C 279.2 93.2 277.4 94.7 278.9 93.8 C 278.9 93.6 281.5 92.4 281.4 92.1 C 280.6 92.8 278.6 93.9 278.7 93.5 C 280.5 92.6 287.7 87.7 285.1 89.9 C 286.1 89.0 290.5 85.3 290.3 85.7 C 289.0 86.7 289.1 86.8 289.0 87.1 C 291.4 84.9 292.8 84.0 294.8 81.5 C 292.3 83.9 293.9 81.8 292.2 83.1 C 291.5 83.7 290.5 84.5 290.4 84.8 C 290.9 84.7 291.9 83.6 292.3 83.1 C 292.4 83.3 292.6 83.5 292.7 83.6 C 289.6 86.1 287.8 87.7 286.0 88.8 C 287.5 87.7 283.0 90.4 284.7 89.2 C 285.5 88.8 287.3 87.6 288.7 86.7 C 288.6 86.6 288.6 86.5 288.5 86.5 C 289.1 86.0 290.0 85.4 290.0 85.2 C 288.2 86.7 287.0 87.3 285.8 88.4 C 285.7 88.3 285.7 88.3 285.7 88.3 C 285.3 88.5 285.0 88.7 285.1 88.6 C 285.7 88.1 286.6 87.5 286.7 87.3 C 285.2 88.3 284.8 88.3 283.1 89.4 C 283.4 88.9 280.9 90.1 283.3 88.4 C 283.9 88.3 285.2 87.5 285.3 87.7 C 286.0 87.3 287.3 86.2 287.9 85.6 C 287.2 86.0 285.8 86.9 285.5 86.8 C 286.6 86.0 287.4 85.3 288.1 84.9 C 286.1 86.7 289.4 84.2 290.4 83.8 C 290.1 83.9 289.5 84.2 289.2 84.3 C 290.8 83.0 291.6 82.5 291.4 82.2 C 293.1 80.5 292.9 81.1 294.0 80.0 C 293.0 80.5 294.6 79.1 293.6 79.6 C 295.3 77.7 294.4 79.3 295.0 78.6 C 295.5 78.0 295.4 77.9 295.9 77.3 C 296.7 76.6 298.0 74.9 298.4 74.8 C 298.9 74.0 299.0 74.0 299.5 73.2 C 299.5 72.9 299.6 72.7 299.7 72.3 C 299.8 72.2 300.2 71.7 300.2 71.5 C 298.8 73.4 299.2 72.8 297.5 74.8 C 297.5 75.0 297.3 75.4 297.7 74.9 C 296.7 76.5 296.2 76.8 295.1 78.1 C 294.8 78.1 294.4 78.1 293.4 79.5 C 293.5 79.0 293.2 79.3 293.5 78.8 C 294.2 78.3 295.0 77.5 295.8 76.6 C 295.8 76.5 295.6 76.6 295.9 76.1 C 296.4 75.8 296.9 75.1 297.2 74.5 C 297.3 74.6 297.2 74.8 297.1 75.1 C 298.5 73.2 297.8 73.7 298.8 72.3 C 298.5 72.4 298.0 73.4 298.3 72.5 C 299.0 71.1 299.3 70.9 299.6 70.3 C 299.6 70.1 299.5 70.1 299.7 69.8 C 300.3 68.9 299.1 72.1 300.2 70.5 C 300.1 70.3 300.8 68.7 301.1 68.5 C 301.0 69.1 300.4 70.0 300.5 70.1 C 301.9 67.1 301.1 70.2 302.1 67.0 C 302.0 67.0 301.9 67.0 301.8 66.9 C 301.5 68.2 301.2 68.2 301.0 68.0 C 300.7 69.1 300.2 69.4 299.9 70.4 C 299.7 69.8 300.3 69.5 300.8 68.4 C 300.5 68.3 300.1 69.3 299.8 69.4 C 301.1 67.0 300.9 66.4 301.6 64.0 C 301.2 64.6 301.6 62.7 301.4 62.8 C 301.3 64.9 300.7 63.9 300.6 64.3 C 300.4 65.6 300.9 65.1 300.9 65.9 C 300.6 66.2 300.5 66.0 300.2 65.7 C 300.5 64.6 300.5 64.8 300.5 63.8 C 300.8 63.1 301.3 62.5 301.3 63.6 C 301.3 63.3 301.2 61.8 301.4 61.7 C 301.4 63.2 301.5 61.5 301.6 62.4 C 301.8 61.3 301.4 59.2 301.4 57.7 C 301.2 57.9 301.1 57.4 301.0 57.4 C 301.5 58.8 301.0 59.2 301.1 60.5 C 301.0 59.9 300.9 60.3 300.8 60.5 C 300.9 59.2 300.5 58.5 300.6 57.5 C 300.5 57.5 300.4 57.5 300.3 57.6 C 300.2 55.9 300.1 56.1 299.5 55.0 C 299.5 54.4 300.1 55.0 300.4 55.1 C 300.1 54.5 299.2 52.3 299.5 53.6 C 299.0 52.3 299.4 52.5 298.7 51.2 C 298.5 51.3 299.1 52.5 298.6 52.2 C 297.9 51.0 298.6 51.5 297.8 50.6 C 298.0 50.5 298.2 50.4 297.5 49.3 C 297.8 50.2 297.3 49.2 297.0 49.0 C 297.3 49.5 297.5 50.0 297.6 50.3 C 296.5 48.3 296.2 47.9 294.9 46.4 C 295.5 46.8 294.9 45.9 295.9 46.9 C 294.9 46.0 294.1 44.6 293.5 44.1 C 294.0 44.8 294.9 45.8 295.1 46.3 C 292.4 43.2 290.5 41.8 287.4 38.9 C 288.0 39.4 288.7 40.0 288.9 40.0 C 288.5 39.7 287.9 39.3 287.9 39.2 C 289.1 40.1 290.1 41.0 290.7 41.5 C 291.6 42.4 290.1 41.1 291.0 42.0 C 291.3 42.0 292.8 43.8 292.4 43.0 C 290.8 41.6 289.3 40.1 288.8 39.1 C 286.8 38.1 288.5 39.4 286.3 38.3 C 286.4 38.2 286.0 37.8 285.4 37.4 C 285.8 38.1 283.4 36.2 283.2 36.0 C 284.2 36.5 287.8 38.9 286.2 37.4 C 286.6 38.4 282.0 34.3 282.8 35.4 C 280.3 33.8 281.4 34.1 279.8 33.5 C 279.8 33.4 280.0 33.4 279.3 32.9 C 278.6 32.5 278.3 32.4 277.9 32.3 C 281.7 34.6 280.4 34.2 282.6 35.7 C 282.2 35.5 281.8 35.3 281.9 35.4 C 281.9 35.4 281.8 35.4 281.3 35.1 C 281.3 34.7 279.4 34.0 279.0 33.5 C 279.7 33.9 280.4 34.3 280.3 34.1 C 277.2 32.3 278.0 32.3 273.3 29.8 C 274.7 30.6 272.8 29.7 271.1 28.9 C 268.7 27.7 269.8 27.8 266.7 26.5 C 266.7 26.8 265.9 26.4 264.6 25.8 C 263.9 25.5 263.1 25.2 262.2 24.8 C 261.3 24.4 259.8 23.9 259.2 23.8 C 259.6 23.6 256.5 22.3 255.7 22.3 C 255.7 22.2 254.5 21.8 253.7 21.6 C 253.5 21.3 254.5 21.6 253.8 21.3 C 253.0 21.1 253.6 21.6 252.6 21.3 C 251.5 20.8 251.8 20.7 250.1 20.1 C 250.0 20.3 250.9 20.6 250.0 20.4 C 248.5 19.9 247.2 19.5 248.3 20.1 C 246.1 19.4 247.3 19.3 245.2 18.7 C 245.8 19.0 245.7 19.1 244.6 18.8 C 243.8 18.4 243.8 18.3 243.6 18.1 C 242.9 18.1 243.1 18.2 241.3 17.6 C 241.3 17.7 241.2 17.8 241.2 17.9 C 240.4 17.7 239.2 17.4 239.0 17.3 C 240.5 17.7 240.1 17.4 240.8 17.5 C 239.2 17.0 236.3 16.0 238.5 16.9 C 236.3 16.4 237.5 16.4 235.7 16.0 C 236.7 16.5 235.8 16.0 234.0 15.7 C 234.1 16.0 232.8 15.4 231.6 15.2 C 231.8 15.4 231.5 15.5 230.4 15.2 C 230.5 15.1 229.8 14.9 228.7 14.7 C 228.7 14.8 231.1 15.5 228.6 14.9 C 227.5 14.6 227.6 14.3 225.7 13.9 C 225.4 13.6 227.4 14.1 227.0 13.8 C 225.5 13.7 225.1 13.4 222.8 12.9 C 223.6 13.5 218.3 12.7 220.9 13.4 C 220.1 13.2 219.0 13.3 218.4 13.0 C 219.3 13.1 217.8 12.6 217.9 12.6 C 216.8 12.4 214.3 11.9 214.3 12.0 C 216.6 12.4 216.6 12.6 217.2 12.9 C 213.8 12.4 210.8 11.8 211.1 11.6 C 211.1 11.7 210.6 11.6 210.5 11.7 C 211.7 11.8 212.4 12.3 211.0 12.2 C 211.4 12.0 210.4 11.7 209.3 11.5 C 209.2 11.7 204.7 10.7 205.5 11.2 C 207.3 11.2 208.7 11.8 207.3 11.8 C 206.2 11.4 203.7 10.9 204.3 10.8 C 203.6 10.8 203.0 10.8 202.3 10.8 C 201.8 10.9 203.2 11.1 202.9 11.2 C 202.0 11.1 200.6 11.0 200.4 10.8 C 202.9 11.1 199.1 10.5 201.7 10.7 C 200.1 10.5 199.8 10.3 198.5 10.1 C 198.5 10.2 198.0 10.2 197.9 10.2 C 199.0 10.2 200.1 10.5 199.8 10.7 C 197.5 10.5 197.9 10.2 196.0 10.0 C 195.4 10.1 192.8 10.2 191.5 9.9 C 194.0 10.1 191.3 9.7 192.8 9.8 C 195.1 10.2 195.7 10.0 196.6 9.8 C 195.6 9.6 193.7 9.3 193.4 9.6 C 194.7 9.7 194.7 9.6 195.4 9.6 C 195.3 9.8 194.9 9.8 194.1 9.8 C 193.0 9.5 190.6 9.5 192.2 9.3 C 190.6 9.3 188.8 8.9 187.0 8.9 C 188.9 9.1 190.3 9.3 190.9 9.6 C 189.3 9.5 187.7 9.1 187.7 9.3 C 187.8 9.5 190.3 9.7 190.8 9.9 C 188.8 9.9 185.8 9.0 188.2 9.7 C 187.1 9.6 185.5 9.5 185.0 9.3 C 186.4 9.4 185.0 8.9 184.4 8.8 C 183.2 8.8 182.2 8.7 181.8 8.8 C 183.6 8.8 185.0 9.3 183.7 9.2 C 183.4 9.0 183.0 9.2 182.5 9.2 C 182.3 9.0 180.2 9.0 179.9 8.8 C 180.0 9.0 180.9 9.1 181.1 9.2 C 179.9 9.2 178.1 9.4 177.2 9.0 C 178.0 9.0 179.1 9.1 179.2 9.0 C 175.8 8.5 174.7 8.1 170.7 7.8 C 171.2 7.8 171.5 7.8 171.4 7.7 C 168.8 7.5 167.1 7.4 167.5 7.2 C 165.9 7.2 165.0 7.3 164.2 7.4 C 165.8 7.6 166.4 7.4 167.4 7.6 C 166.8 7.6 168.7 8.1 169.4 8.3 C 172.2 8.2 172.4 8.6 175.3 8.6 C 174.4 8.8 177.4 8.8 176.5 9.0 C 173.9 8.4 171.3 8.6 167.4 8.3 C 167.9 8.1 168.4 8.0 166.8 7.8 C 164.3 7.6 165.5 8.0 163.5 7.9 C 162.6 7.7 163.8 7.7 162.8 7.6 C 162.1 7.6 160.2 7.6 159.5 7.3 C 162.2 7.4 159.0 7.1 160.8 7.0 C 159.9 7.0 159.4 7.0 158.8 6.9 C 161.5 7.3 156.2 7.3 158.2 7.5 C 154.5 7.6 157.9 6.9 154.9 6.9 C 156.4 7.1 154.5 7.2 152.3 7.2 C 151.7 6.9 149.4 6.9 147.6 6.8 C 148.6 7.0 149.3 7.0 147.6 7.1 C 148.5 7.2 150.1 7.2 150.9 7.1 C 150.9 7.2 151.2 7.3 151.6 7.3 C 149.4 7.4 150.3 7.5 149.6 7.6 C 149.0 7.5 147.4 7.5 147.0 7.4 C 147.0 7.5 146.4 7.5 146.4 7.6 C 149.1 7.5 145.9 7.9 147.7 7.9 C 148.9 7.9 148.1 7.7 149.6 7.7 C 151.1 8.0 148.4 8.0 147.7 8.3 C 148.9 8.4 150.5 8.1 150.9 8.4 C 149.3 8.7 146.6 8.5 144.4 8.5 C 144.5 8.8 140.7 8.5 140.4 8.9 C 140.1 8.8 139.7 8.8 139.1 8.7 C 138.5 9.0 137.8 8.7 137.2 8.7 C 137.1 8.9 137.3 9.0 137.8 9.0 C 135.1 9.0 134.5 9.1 131.3 9.4 C 130.8 9.2 130.2 9.1 130.0 9.0 C 130.7 8.9 131.4 8.8 131.9 8.7 C 127.6 8.9 130.4 9.4 127.4 9.2 C 127.5 9.3 129.6 9.5 128.0 9.7 C 125.3 9.5 121.5 10.1 121.5 9.4 C 119.1 9.4 117.6 10.0 116.4 9.8 C 115.6 9.9 115.4 10.0 115.1 10.1 C 115.9 10.2 116.8 10.2 117.7 10.3 C 119.1 10.0 119.8 10.2 118.4 10.0 C 120.5 9.7 121.1 9.9 122.2 9.9 C 119.3 10.3 116.6 10.3 116.5 10.7 C 115.5 10.7 114.7 10.6 113.9 10.5 C 113.6 10.7 110.3 11.2 110.0 10.9 C 112.3 10.8 114.5 10.2 112.5 10.2 C 107.1 11.0 104.0 11.0 99.4 12.0 C 99.2 11.9 99.6 11.6 98.7 11.8 C 98.7 11.9 98.6 12.0 98.1 12.2 C 96.6 12.4 95.8 12.4 93.8 12.8 C 93.9 12.5 93.6 12.4 92.5 12.5 C 91.9 12.9 90.1 13.7 88.9 13.8 C 90.1 13.6 88.5 13.6 87.7 13.7 C 88.5 13.9 82.3 14.5 84.1 14.5 C 81.7 15.0 80.6 15.1 80.6 15.0 C 79.7 15.3 79.1 15.5 78.3 15.7 C 77.7 15.5 73.6 16.7 73.0 16.7 C 74.5 16.5 74.6 16.0 73.5 16.3 C 72.8 16.7 69.2 17.8 68.6 17.9 C 68.7 17.8 68.9 17.5 70.7 17.0 C 67.7 17.7 67.8 18.1 66.9 18.6 C 66.9 18.2 65.7 18.9 65.2 19.0 C 64.3 19.1 65.3 18.9 65.2 18.7 C 64.1 19.0 63.7 19.0 62.4 19.4 C 62.8 19.5 61.3 19.8 60.8 19.9 C 60.6 20.2 59.9 20.5 58.8 20.9 C 60.2 20.0 52.0 22.7 54.0 22.3 C 52.5 23.1 52.3 22.6 50.4 23.4 C 50.0 23.7 48.9 24.0 50.0 23.8 C 49.2 24.1 48.4 24.4 48.0 24.4 C 47.6 24.5 47.2 24.6 45.7 25.3 C 47.1 25.0 42.6 26.5 43.5 26.6 C 42.0 26.7 39.8 28.3 37.3 29.1 C 37.4 29.2 36.8 29.5 36.6 29.7 C 36.4 29.9 39.5 28.5 37.5 29.5 C 35.0 30.5 36.3 29.8 35.9 29.9 C 29.5 33.2 23.1 37.3 18.8 41.0 C 19.4 40.6 19.4 40.7 18.5 41.5 C 17.0 42.3 13.1 46.9 12.7 47.7 C 12.2 47.9 11.0 50.4 10.6 50.8 C 10.9 50.3 11.2 49.3 10.6 50.3 C 10.5 51.0 9.9 51.7 9.7 52.7 C 9.2 53.1 8.4 56.0 8.4 54.6 C 8.2 55.1 8.1 55.4 7.9 55.7 C 8.2 55.8 8.0 56.4 8.4 55.4 C 7.4 57.9 7.7 58.6 7.4 60.5 C 7.5 60.9 7.7 59.4 7.7 60.6 C 7.6 60.6 7.6 60.5 7.5 60.5 C 7.5 61.0 7.6 61.1 7.5 61.3 C 7.4 61.2 7.4 60.6 7.1 60.5 C 7.2 61.5 6.9 62.2 7.1 62.5 C 7.1 61.1 7.6 62.1 7.4 62.9 C 7.2 62.2 7.8 66.0 8.3 67.2 C 8.2 67.9 7.9 65.8 7.8 66.0 C 8.4 68.3 8.3 68.2 8.7 68.4 C 9.1 69.6 9.1 70.1 10.0 71.5 C 10.4 72.4 9.6 71.1 10.0 72.0 C 10.4 72.5 10.6 72.7 11.2 73.5 C 12.0 75.9 17.0 80.3 19.3 83.3 C 18.3 82.2 19.8 83.3 21.4 84.6 C 21.4 84.7 21.2 84.7 21.7 85.2 C 21.7 84.9 22.3 85.3 23.4 86.1 C 23.5 86.3 23.2 86.2 23.8 86.7 C 24.5 86.8 25.8 88.0 26.8 88.5 C 27.0 89.0 24.6 87.2 24.3 87.2 C 27.1 89.3 27.8 89.4 30.2 91.0 C 28.9 90.2 31.0 91.7 31.4 92.0 C 30.9 91.4 33.0 92.5 31.6 91.5 C 32.6 92.0 34.1 92.8 34.3 93.0 C 33.7 92.7 32.9 92.3 32.9 92.3 C 34.1 93.0 35.6 94.1 36.4 94.2 C 35.5 93.7 35.0 93.3 35.0 93.2 C 35.4 93.3 35.9 93.4 36.6 93.7 C 34.3 93.3 40.5 95.9 40.9 96.0 C 41.3 96.6 41.7 96.7 41.4 96.8 C 44.1 98.0 43.9 97.6 45.6 98.2 C 45.0 98.3 44.3 98.3 47.0 99.5 C 46.5 98.9 49.8 100.3 48.9 99.5 C 50.7 100.2 51.1 100.4 51.9 100.6 C 52.6 100.9 53.1 101.2 53.7 101.4 C 54.7 101.8 55.6 102.2 56.9 102.6 C 57.0 102.6 56.2 102.3 56.9 102.5 C 58.2 103.0 59.2 103.4 60.0 103.8 C 60.8 103.8 59.8 103.5 60.6 103.7 C 62.6 104.5 62.0 104.6 63.7 105.3 C 66.0 105.8 65.1 105.7 66.6 105.8 C 66.0 105.6 65.2 105.3 66.1 105.5 C 67.4 106.1 67.8 106.5 68.1 106.7 C 67.2 106.4 66.4 106.2 65.9 106.0 C 65.6 106.0 64.2 105.6 65.3 106.1 C 63.9 105.7 62.4 105.2 60.4 104.6 C 61.0 105.0 58.6 104.1 59.2 104.6 C 61.4 105.2 61.9 105.5 64.1 106.1 C 63.7 105.7 65.9 106.5 66.3 106.7 C 66.4 106.5 67.9 107.0 67.6 106.7 C 69.3 107.1 69.2 107.3 70.9 107.6 C 71.0 107.8 70.7 107.8 71.4 108.0 C 72.1 107.9 72.5 108.4 73.1 108.5 C 72.8 108.2 75.3 108.9 75.5 108.8 C 74.8 108.6 73.9 108.4 73.8 108.3 C 76.6 109.0 74.4 108.2 73.9 107.9 C 74.0 108.0 72.9 108.1 72.7 107.8 C 75.1 108.2 69.5 106.6 71.6 107.2 C 73.4 107.7 73.3 107.5 75.1 108.0 C 77.1 109.0 74.5 108.6 76.6 109.4 C 78.0 109.5 78.9 109.8 79.0 109.6 C 79.3 109.7 79.6 109.9 80.1 110.1 C 80.7 110.1 78.5 109.4 80.2 109.8 C 81.1 110.0 80.0 110.1 81.9 110.5 C 82.8 110.4 79.7 109.7 81.4 110.0 C 83.2 110.8 81.0 109.8 83.2 110.2 C 83.3 110.3 83.7 110.4 84.4 110.6 C 84.5 110.7 84.2 110.8 84.9 111.0 C 85.4 110.7 85.7 111.3 87.3 111.5 C 88.3 111.4 85.7 111.1 86.2 110.9 C 88.0 111.6 89.1 111.4 89.8 111.6 C 88.3 111.5 92.1 112.2 92.2 112.4 C 91.8 112.1 92.6 112.4 94.8 112.5 C 94.8 112.9 97.3 113.0 97.8 113.4 C 98.1 113.4 98.7 113.4 99.0 113.3 C 98.3 113.2 97.6 113.1 97.9 113.0 C 98.5 113.0 99.1 113.1 99.7 113.2 C 100.7 113.6 98.0 113.7 102.2 114.2 C 101.7 113.8 103.5 114.1 104.7 114.1 C 104.6 113.8 103.0 113.9 102.9 113.7 C 104.3 113.7 105.7 114.1 106.6 114.4 C 109.1 114.6 112.0 115.1 115.6 115.3 C 116.4 115.6 112.5 115.2 114.9 115.6 C 115.9 115.7 115.4 115.4 116.8 115.6 C 115.5 116.5 126.6 116.6 127.2 117.1 C 127.7 116.9 130.8 117.3 130.5 116.9 C 128.4 117.0 127.0 116.6 125.9 116.4 C 124.0 116.4 127.7 116.8 125.9 116.7 C 125.7 116.5 123.1 116.5 123.3 116.3 C 126.1 116.5 121.9 115.9 124.0 115.8 C 126.6 116.1 131.8 116.1 130.6 116.4 C 130.6 116.3 129.4 116.2 129.3 116.3 C 132.2 116.6 134.0 116.5 135.2 116.4 C 136.5 116.6 141.8 116.5 140.4 116.6 C 140.9 116.8 137.3 116.4 137.8 116.7 C 143.3 117.0 143.4 116.8 147.0 117.0 C 145.9 116.7 150.8 116.7 150.4 116.8 C 150.4 117.0 151.5 117.2 153.7 116.9 C 153.3 117.2 154.5 117.3 155.7 117.3 C 156.2 117.1 154.7 117.1 155.0 116.9 C 156.1 116.9 157.2 116.9 158.3 116.9 C 158.4 117.0 158.2 117.1 159.0 117.2 C 160.2 117.0 164.6 116.7 164.2 116.8 C 162.4 117.2 167.3 117.0 164.3 117.3 C 165.1 117.3 165.2 117.4 166.3 117.3 C 166.3 117.2 166.3 117.1 166.3 117.0 C 168.7 116.9 167.5 117.4 169.5 117.3 C 169.7 117.2 170.6 117.1 170.9 117.0 C 170.1 117.0 170.0 117.1 168.9 117.2 C 170.1 116.7 166.7 117.0 166.9 116.7 C 169.2 116.6 169.2 116.9 170.2 117.0 C 173.1 116.7 171.7 116.8 174.8 116.7 C 174.8 116.6 174.0 116.7 174.2 116.5 C 177.9 116.4 177.5 116.9 180.1 116.6 C 179.5 116.7 177.2 117.0 178.8 116.9 C 180.5 116.7 181.0 116.4 183.3 116.2 C 183.4 116.3 183.3 116.4 184.0 116.4 C 185.0 116.2 185.0 116.0 185.9 115.8 C 186.1 116.0 187.4 115.8 187.9 115.7 C 188.7 115.8 187.6 116.0 188.6 115.9 C 190.5 115.8 191.4 115.1 193.0 115.0 C 193.0 115.4 194.7 115.1 196.3 114.9 C 196.6 115.1 199.9 114.7 202.1 114.5 C 201.5 114.3 203.8 114.1 203.2 113.9 C 202.2 114.1 201.6 114.1 201.4 114.0 C 203.8 113.7 204.6 114.1 206.4 113.4 C 207.4 113.5 208.6 113.5 210.2 113.3 C 210.4 113.1 207.2 113.5 208.9 113.2 C 209.1 113.2 209.6 113.1 210.2 113.0 C 210.0 113.3 211.3 113.1 212.1 113.2 C 213.5 112.7 216.6 112.6 215.2 112.5 C 217.4 112.1 216.0 112.7 217.8 112.5 C 216.8 112.3 219.8 111.7 218.3 111.8 C 220.6 111.3 220.5 111.8 219.5 112.1 C 221.7 111.7 222.1 111.4 223.2 111.4 C 222.1 111.3 225.4 110.5 223.7 111.0 C 223.3 111.4 225.7 110.7 226.2 110.8 C 225.4 110.7 226.5 110.5 225.0 110.7 C 226.5 110.3 228.8 109.8 230.3 109.7 C 232.2 109.1 234.0 108.7 233.2 109.1 C 235.0 108.7 234.4 108.8 236.2 108.4 C 236.2 108.3 235.7 108.5 235.5 108.4 C 238.0 107.8 237.5 108.1 240.7 107.3 C 240.4 107.7 242.5 107.1 243.1 107.1 C 241.8 107.4 240.7 107.7 239.7 107.9 C 239.5 108.1 240.5 107.8 239.7 108.1 C 239.6 108.0 239.1 108.1 238.6 108.2 C 240.7 107.9 236.0 109.3 237.4 108.7 C 237.4 108.7 237.6 108.8 238.0 108.6 C 237.6 108.5 237.6 108.6 237.9 108.2 C 236.9 108.6 236.0 108.5 235.6 108.8 C 235.7 108.9 236.7 108.6 236.8 108.7 C 234.2 109.5 236.0 108.6 233.9 109.1 C 233.5 109.5 234.6 109.3 235.1 109.3 C 233.2 109.8 231.6 110.2 231.0 110.1 C 229.3 110.6 231.2 110.3 229.9 110.7 C 229.3 110.7 229.3 110.5 228.1 110.8 C 226.8 111.2 228.9 110.8 227.5 111.1 C 226.0 111.3 228.5 110.6 226.2 111.0 C 226.8 111.3 224.2 111.4 224.4 111.5 C 225.7 111.2 225.8 111.6 225.1 111.5 C 222.1 111.7 220.2 113.0 217.2 113.0 C 217.2 113.1 216.7 113.1 216.6 113.2 C 218.8 113.0 222.1 112.4 222.8 112.7 C 224.5 112.3 224.3 112.1 224.5 111.9 C 226.6 111.8 226.5 111.9 225.3 112.5 C 221.9 113.3 220.3 113.3 218.0 113.6 C 216.7 114.1 218.1 113.7 218.6 113.8 C 211.3 114.8 216.9 114.6 214.3 114.9 C 214.4 114.8 213.8 114.8 213.1 114.9 C 213.1 115.0 212.0 115.1 211.8 115.2 C 212.3 115.2 212.6 115.2 212.5 115.3 C 210.6 115.7 211.3 115.3 211.2 115.2 C 212.6 115.0 213.5 114.8 213.7 114.6 C 211.9 115.0 210.4 115.0 209.3 115.5 C 207.5 115.4 210.1 114.6 209.1 114.5 C 209.4 114.3 208.1 115.3 206.7 115.6 C 204.4 115.9 204.4 116.2 202.3 116.4 C 201.7 116.2 204.4 116.0 204.2 115.8 C 203.6 115.9 203.4 115.9 202.9 115.9 C 201.4 116.2 201.5 116.4 200.4 116.6 C 199.7 116.4 199.3 116.6 198.5 116.8 C 197.0 116.9 199.3 116.5 197.8 116.6 C 196.2 116.8 195.1 117.2 194.6 117.2 C 194.4 117.1 194.7 117.0 193.9 117.0 C 192.1 117.4 191.7 117.5 194.0 117.4 C 191.9 117.5 191.0 117.7 191.4 117.9 C 194.4 117.7 195.2 117.6 196.6 117.7 C 197.1 117.4 198.0 117.5 199.2 117.4 C 198.4 117.1 200.5 117.3 201.1 117.0 C 200.3 117.0 199.6 117.1 199.1 117.0 C 202.3 116.7 202.3 116.7 204.8 116.0 C 204.8 116.1 205.2 116.1 205.5 116.2 C 204.7 116.4 202.4 116.6 202.3 116.8 C 204.2 116.9 204.8 116.3 206.8 116.4 C 207.7 116.1 205.1 116.3 206.8 116.1 C 207.6 116.1 208.7 116.1 210.0 116.0 C 211.3 115.8 212.0 115.5 213.1 115.3 C 213.2 115.4 213.4 115.4 214.4 115.2 C 214.3 115.1 213.3 115.2 214.3 115.0 C 217.7 114.8 219.9 114.6 223.1 113.8 C 221.9 114.0 219.3 114.2 220.6 114.0 C 222.0 113.9 223.9 113.2 225.4 113.1 C 225.9 113.1 223.7 113.4 224.3 113.7 C 225.7 113.4 226.6 113.2 227.3 113.2 C 227.3 113.0 228.9 112.7 228.5 112.6 C 227.3 112.8 227.0 113.2 226.7 113.1 C 227.5 112.2 231.1 112.4 233.3 111.9 C 234.7 111.5 232.1 111.9 233.8 111.5 C 234.8 111.1 235.5 111.5 233.9 112.0 C 232.8 112.2 232.4 112.6 232.1 112.4 C 231.7 112.5 231.0 112.6 231.0 112.7 C 231.8 112.5 231.7 112.7 232.2 112.7 C 231.0 112.9 230.9 113.4 229.8 113.4 C 230.5 113.2 230.8 113.1 231.0 112.9 C 227.8 113.7 226.8 113.7 224.9 114.0 C 226.0 113.9 224.9 114.1 225.0 114.3 C 226.4 113.9 229.1 113.5 227.5 113.9 C 226.3 113.9 225.6 114.8 224.5 114.7 C 225.3 114.5 225.1 114.4 225.6 114.2 C 224.4 114.5 224.4 114.3 223.1 114.5 C 219.2 115.6 216.0 115.5 209.5 117.0 C 207.2 117.4 211.6 116.6 211.4 116.4 C 210.7 116.5 210.6 116.5 210.1 116.6 C 210.1 116.8 208.9 116.7 208.2 117.1 C 208.3 116.8 205.2 117.5 203.7 117.4 C 203.6 117.5 203.8 117.7 203.1 117.8 C 198.4 118.0 189.8 119.3 186.2 119.4 C 186.3 119.6 184.7 119.7 184.3 119.8 C 182.0 120.0 183.0 119.7 179.6 120.2 C 178.0 120.3 180.0 120.0 180.3 119.9 C 175.3 120.3 170.8 120.3 167.7 120.7 C 166.0 120.8 167.7 120.5 164.3 120.5 C 164.3 120.9 159.1 120.4 158.3 120.8 C 156.3 120.9 152.7 120.4 154.3 120.8 C 151.6 120.8 153.4 120.5 152.3 120.5 C 150.4 120.5 152.9 121.1 151.0 121.1 C 151.2 120.8 149.5 120.9 148.3 120.7 C 149.8 120.7 150.8 120.7 151.0 120.5 C 149.7 120.7 149.7 120.5 147.7 120.5 C 146.1 120.6 141.6 120.7 140.3 120.3 C 140.2 120.4 140.6 120.5 141.0 120.6 C 139.7 120.5 138.1 120.2 138.3 120.5 C 135.3 120.4 134.0 120.1 132.3 120.2 C 131.0 120.3 132.8 120.0 129.0 119.8 C 128.9 120.0 122.2 119.5 120.5 119.1 C 120.4 119.5 120.0 119.1 119.2 119.0 C 119.0 119.1 119.2 119.3 118.5 119.2 C 118.3 119.1 117.8 119.1 117.2 119.1 C 117.7 118.7 114.8 119.0 114.6 118.7 C 115.2 118.7 115.2 118.5 114.6 118.4 C 114.4 118.7 111.7 118.0 112.0 118.2 C 112.6 118.4 114.4 118.5 113.9 118.7 C 111.4 118.5 112.4 118.3 110.7 118.1 C 110.8 118.2 111.8 118.4 110.7 118.3 C 108.9 118.1 110.6 118.3 109.4 117.9 C 108.5 117.9 106.8 117.8 106.2 117.8 C 106.3 117.8 105.8 117.6 105.6 117.5 C 102.3 117.0 94.8 116.2 91.8 115.3 C 91.5 115.3 90.8 115.3 91.0 115.5 C 89.2 115.0 89.3 115.1 87.4 114.6 C 87.4 114.8 87.4 114.9 87.3 115.0 C 84.9 114.6 87.2 114.6 85.6 114.3 C 85.3 114.8 84.6 113.9 83.2 113.7 C 83.0 113.7 82.2 113.6 82.4 113.8 C 80.1 113.4 80.3 113.0 78.3 112.7 C 78.8 112.8 79.0 113.7 78.7 113.9 C 78.4 113.7 77.8 113.5 76.9 113.2 C 78.0 113.2 77.7 112.2 74.8 111.8 C 76.3 112.1 76.9 112.3 76.5 112.5 C 74.4 112.0 73.7 111.6 71.9 111.2 C 71.5 111.4 72.8 111.7 72.3 111.9 C 71.8 111.8 71.6 111.8 71.7 111.9 C 69.8 111.4 69.7 111.2 67.6 110.8 C 67.7 110.6 68.1 110.7 68.8 111.0 C 68.8 110.8 68.8 110.6 70.1 110.9 C 70.2 111.1 69.4 111.1 71.2 111.5 C 71.2 111.4 71.2 111.2 71.3 111.1 C 70.0 110.8 67.0 109.8 66.7 109.8 C 67.3 110.1 68.3 110.4 67.7 110.5 C 65.5 109.9 65.0 109.4 63.3 108.8 C 60.2 108.0 55.0 106.2 55.5 106.8 C 53.8 106.1 54.4 106.3 52.9 105.7 C 53.2 106.2 51.1 105.2 51.2 105.5 C 53.1 106.1 52.5 106.0 54.4 106.5 C 54.3 106.6 53.9 106.7 53.2 106.5 C 53.1 106.3 52.4 106.0 51.1 105.6 C 51.3 105.7 52.4 106.3 51.0 105.9 C 50.9 105.8 50.6 105.6 50.0 105.4 C 50.1 105.3 50.1 105.2 50.2 105.0 C 50.9 105.2 51.8 105.5 52.3 105.6 C 51.8 105.4 51.7 105.3 51.3 105.1 C 50.9 105.1 48.9 104.2 48.6 104.3 C 49.5 104.6 50.0 104.9 49.1 104.7 C 49.0 104.6 47.2 103.8 46.3 103.6 C 49.3 104.9 48.1 104.4 49.0 105.0 C 46.9 104.3 46.7 103.9 42.8 102.4 C 42.8 102.2 42.9 102.1 43.9 102.4 C 41.6 100.9 36.1 98.9 34.4 98.0 C 35.6 98.6 37.0 99.0 35.3 98.1 C 35.3 98.2 34.0 97.5 33.7 97.5 C 32.9 97.6 34.3 98.6 35.6 99.5 C 34.1 98.8 33.8 98.7 32.5 98.1 C 32.2 97.7 33.7 98.1 32.1 97.2 C 31.6 97.4 29.1 95.6 28.5 95.6 C 29.5 96.2 30.2 96.7 29.1 96.1 C 29.4 96.1 27.1 94.9 27.1 94.7 C 28.9 95.7 29.5 95.7 30.7 96.4 C 29.3 95.6 31.8 96.8 29.5 95.4 C 28.3 95.0 27.6 94.9 25.3 93.4 C 24.4 92.8 25.4 93.1 24.2 92.4 C 24.4 92.8 21.9 91.2 23.5 92.0 C 22.7 91.5 22.3 91.1 21.9 90.8 C 22.9 91.7 17.4 88.1 18.1 88.9 C 18.3 88.6 18.2 88.2 18.0 87.9 C 16.8 87.4 15.8 86.3 13.6 84.1 C 13.4 84.4 13.2 83.8 12.2 82.9 C 12.0 82.8 12.7 83.7 12.1 83.1 C 11.1 81.9 11.1 81.9 11.0 81.6 C 10.3 80.8 9.8 80.2 9.6 79.8 C 9.4 79.8 9.6 80.1 9.7 80.4 C 7.5 77.2 6.2 75.7 4.9 73.0 C 5.4 74.2 5.9 74.2 5.4 73.3 C 5.1 72.8 4.8 72.3 4.6 72.0 C 4.7 72.8 4.6 72.4 4.1 71.1 C 3.5 69.9 3.9 71.7 3.5 70.7 C 3.3 69.6 3.6 70.2 3.5 69.6 C 3.3 69.2 3.2 68.6 3.0 68.2 C 3.2 69.1 2.8 68.1 2.5 67.3 C 2.9 67.8 2.8 67.5 2.4 65.7 C 2.5 65.5 2.7 66.4 2.7 65.7 C 2.6 65.3 2.1 64.0 2.3 62.8 C 2.3 63.1 2.4 63.3 2.4 63.2 C 2.2 61.9 2.5 60.9 2.7 59.8 C 2.4 60.9 2.3 60.3 2.1 60.8 C 2.3 59.6 2.2 58.2 2.7 57.3 C 2.3 59.0 3.1 57.4 3.3 56.4 C 3.1 56.1 2.9 57.9 2.7 57.3 C 2.6 56.7 3.2 55.5 3.1 54.9 C 2.9 54.9 3.0 55.6 2.8 55.8 C 3.0 54.9 2.6 56.1 2.8 55.3 C 3.1 54.9 2.9 54.2 3.1 53.8 C 3.4 53.2 4.2 52.0 4.2 51.4 C 4.1 51.4 3.8 52.3 3.7 52.3 C 4.5 49.6 5.3 49.0 6.5 46.6 C 6.7 46.3 7.1 45.9 7.6 45.3 C 7.5 45.3 7.7 44.8 8.0 44.3 C 8.9 43.3 9.7 42.5 10.9 41.3 C 10.8 41.6 10.4 42.3 11.9 40.7 C 11.9 40.5 11.2 41.2 11.8 40.5 C 11.8 40.6 12.2 40.2 12.2 40.1 C 12.2 40.0 12.1 40.0 12.1 40.0 C 11.6 40.4 11.3 40.9 10.9 41.3 C 10.8 41.2 10.6 41.2 10.2 41.5 C 11.9 39.5 12.1 40.0 13.3 38.6 C 13.7 38.6 14.2 38.3 13.3 39.5 C 14.4 38.4 15.1 37.5 15.3 37.1 C 13.9 38.4 14.2 37.8 13.7 38.1 C 14.6 37.2 14.5 37.1 15.0 36.7 C 16.2 35.9 14.1 38.0 16.3 36.2 C 14.4 37.3 17.5 34.8 18.7 34.0 C 18.5 34.0 18.0 34.4 18.6 33.8 C 21.7 31.2 22.0 32.1 23.9 30.3 C 23.8 30.6 24.9 29.9 25.3 29.7 C 23.5 30.9 23.1 31.3 22.4 31.8 C 22.6 31.8 23.1 31.5 23.6 31.2 C 23.6 31.1 24.0 30.7 24.9 30.3 C 25.3 29.8 24.9 29.7 26.3 28.6 C 26.5 28.6 26.4 28.8 27.2 28.3 C 27.8 27.8 26.7 29.0 30.0 27.1 C 29.4 27.3 29.0 27.4 29.1 27.1 C 30.7 26.1 30.4 26.4 32.6 25.2 C 33.7 25.1 31.3 26.4 30.8 26.9 C 32.3 26.1 33.4 25.2 35.1 24.5 C 33.8 25.0 34.9 24.2 36.4 23.5 C 37.8 22.9 36.5 23.8 38.2 23.1 C 39.4 22.4 40.0 21.9 38.8 22.4 C 41.7 21.1 40.9 21.2 43.6 20.1 C 43.7 20.3 43.0 20.6 42.0 20.9 C 42.2 20.9 41.9 21.2 42.9 20.8 C 43.7 20.3 45.0 19.7 46.5 19.1 C 47.9 18.5 48.8 18.1 49.4 17.8 C 51.9 17.4 54.5 15.9 57.0 15.3 C 56.0 15.9 60.2 14.3 61.5 14.2 C 62.2 13.9 64.4 12.7 63.6 13.2 C 63.9 13.5 65.3 12.9 66.5 12.7 C 66.5 12.6 66.5 12.5 66.5 12.5 C 69.0 11.7 69.7 11.8 70.6 11.8 C 73.7 10.8 77.3 10.4 81.2 9.2 C 82.3 9.3 83.1 9.1 85.5 8.8 C 85.4 8.5 87.3 8.2 89.1 7.9 C 88.7 7.7 90.4 7.5 90.3 7.3 C 88.7 7.6 89.3 7.2 88.4 7.3 C 90.6 7.1 91.6 6.4 93.4 6.4 C 91.3 6.9 90.7 7.3 90.4 7.7 C 92.9 7.2 94.3 7.1 94.8 7.2 C 95.0 7.0 94.6 6.9 94.1 6.9 C 94.9 6.8 95.8 6.6 96.6 6.5 C 96.9 6.6 95.7 6.9 96.6 6.7 C 97.2 6.6 97.9 6.4 98.5 6.2 C 99.3 6.3 97.5 6.6 97.3 6.7 C 100.7 6.3 99.2 6.0 101.0 5.7 C 101.5 5.8 101.4 6.1 103.0 5.9 C 103.6 5.6 103.7 5.4 105.5 5.2 C 106.6 5.1 105.5 5.5 106.8 5.4 C 107.0 5.3 107.5 5.2 108.1 5.2 C 108.0 5.1 108.6 5.0 109.3 4.8 C 109.5 4.9 110.8 4.7 111.3 4.6 C 111.4 4.7 113.5 4.8 113.9 4.6 C 113.9 4.5 112.7 4.6 112.6 4.5 C 114.1 4.4 115.1 4.3 115.8 4.1 C 116.3 4.6 118.7 3.9 121.7 4.0 C 123.6 3.6 121.3 3.6 123.7 3.3 C 125.1 3.3 123.4 3.5 123.7 3.7 C 124.1 3.7 126.3 3.7 126.3 3.5 C 126.3 3.4 125.2 3.5 125.0 3.5 C 126.7 3.1 126.7 3.4 127.7 3.4 C 127.5 3.3 128.7 3.1 128.9 3.0 C 133.7 2.5 133.7 3.0 135.6 3.1 C 135.6 3.0 136.8 2.9 136.9 2.8 C 135.5 3.0 133.7 2.9 135.6 2.7 C 135.3 2.9 138.1 2.6 138.3 2.5 C 137.9 2.4 136.2 2.6 136.9 2.3 C 139.4 2.1 138.4 2.6 140.3 2.3 C 140.5 2.5 139.4 2.5 138.9 2.6 C 139.7 2.6 140.8 2.5 140.9 2.6 C 139.9 2.7 140.0 2.9 139.6 3.1 C 140.9 2.8 143.2 2.9 141.6 2.7 C 144.2 2.6 146.8 2.4 144.9 2.2 C 147.1 2.1 145.9 2.5 147.6 2.3 C 147.4 2.6 146.8 2.7 148.3 2.9 C 148.5 2.7 149.7 2.7 149.6 2.5 C 152.8 2.4 153.7 2.7 155.0 2.9 C 153.8 2.6 155.4 2.9 156.9 2.6 C 157.9 2.7 157.0 3.0 159.6 3.0 C 156.8 2.6 162.9 2.9 161.6 2.5 C 164.9 2.8 164.9 2.7 168.3 2.9 C 168.0 3.1 167.1 3.2 165.6 3.2 C 166.7 3.0 162.7 2.9 163.0 3.0 C 163.0 3.1 163.0 3.1 163.0 3.2 C 165.5 3.2 167.2 3.3 168.3 3.5 C 168.8 3.3 170.0 3.3 169.6 3.0 C 172.0 3.4 174.5 3.1 175.6 3.4 C 174.8 3.4 174.0 3.4 174.3 3.5 C 175.2 3.5 176.4 3.5 176.3 3.3 C 174.3 3.1 174.0 3.1 173.0 3.2 C 173.8 3.0 171.0 2.8 173.0 2.8 C 172.9 3.2 177.0 2.8 175.6 3.0 C 173.5 3.0 178.0 3.3 178.2 3.5 C 178.2 3.5 178.2 3.5 178.2 3.5 Z M 223.7 114.4 C 225.5 113.9 223.2 114.1 221.9 114.4 C 222.3 114.4 222.5 114.5 222.5 114.6 C 223.1 114.4 223.6 114.3 223.7 114.4 C 223.7 114.4 223.7 114.4 223.7 114.4 Z M 203.3 114.1 C 202.7 114.5 205.8 113.9 207.1 113.8 C 206.7 113.7 206.3 113.7 207.1 113.6 C 205.7 113.6 205.3 114.1 203.3 114.1 C 203.3 114.1 203.3 114.1 203.3 114.1 Z M 130.5 117.3 C 131.0 117.3 132.3 117.3 132.4 117.4 C 133.2 117.5 133.0 117.3 133.1 117.2 C 134.7 117.3 132.7 117.6 135.1 117.6 C 136.0 117.2 131.0 116.8 130.5 117.3 C 130.5 117.3 130.5 117.3 130.5 117.3 Z M 152.9 6.4 C 153.9 6.6 151.6 6.8 152.3 7.0 C 155.9 6.8 153.1 6.5 158.2 6.6 C 157.9 6.5 157.5 6.5 157.6 6.4 C 155.2 6.5 155.0 6.6 155.6 6.2 C 154.5 6.2 154.2 6.7 152.9 6.4 C 152.9 6.4 152.9 6.4 152.9 6.4 Z M 199.9 10.1 C 199.5 10.0 199.2 9.9 199.2 9.8 C 197.7 9.7 198.0 9.8 196.0 9.5 C 196.2 9.9 198.2 10.1 199.9 10.1 C 199.9 10.1 199.9 10.1 199.9 10.1 Z M 300.2 56.4 C 300.3 56.6 300.4 56.9 300.4 57.2 C 300.5 56.9 301.1 57.6 300.6 56.3 C 300.5 56.2 300.6 56.5 300.6 56.7 C 300.5 56.5 300.3 55.8 300.2 56.0 C 300.3 56.3 300.3 56.4 300.2 56.4 C 300.2 56.4 300.2 56.4 300.2 56.4 Z M 284.3 88.6 C 286.4 86.9 280.6 90.1 284.3 88.6 C 284.3 88.6 284.3 88.6 284.3 88.6 C 284.3 88.6 284.3 88.6 284.3 88.6 Z M 290.4 87.7 C 290.5 87.7 290.9 87.3 290.9 87.3 C 292.6 86.0 291.0 87.4 292.1 86.7 C 293.3 85.5 291.2 87.0 292.7 85.4 C 292.3 85.6 291.4 86.9 290.4 87.7 C 290.4 87.7 290.4 87.7 290.4 87.7 Z M 21.6 32.1 C 20.1 33.2 19.8 33.7 19.7 34.1 C 20.7 33.4 21.6 32.8 22.0 32.7 C 24.0 31.1 20.6 33.4 20.2 33.6 C 20.3 33.3 21.8 32.3 21.6 32.1 C 21.6 32.1 21.6 32.1 21.6 32.1 Z M 16.8 35.8 C 16.3 36.4 15.5 37.2 15.6 37.4 C 16.4 36.6 16.6 36.6 16.7 36.7 C 17.4 35.9 16.3 36.6 16.8 35.8 C 16.8 35.8 16.8 35.8 16.8 35.8 Z M 26.7 29.2 C 25.9 29.7 26.3 29.6 26.2 29.8 C 27.4 29.1 27.7 29.1 28.9 28.3 C 28.8 28.3 28.8 28.2 28.8 28.1 C 27.7 28.7 27.7 28.8 26.8 29.4 C 26.8 29.3 26.7 29.2 26.7 29.2 C 26.7 29.2 26.7 29.2 26.7 29.2 Z M 12.8 39.9 C 10.6 42.1 10.1 43.4 9.3 45.2 C 10.5 43.4 11.4 41.6 12.6 40.6 C 13.9 39.1 12.1 40.9 12.1 40.8 C 12.0 40.7 12.5 40.2 12.8 39.9 C 12.8 39.9 12.8 39.9 12.8 39.9 Z M 2.7 61.3 C 2.5 61.8 2.9 62.7 3.0 64.2 C 3.0 63.9 3.1 63.7 3.2 63.6 C 3.1 61.6 2.7 62.8 2.7 61.3 C 2.7 61.3 2.7 61.3 2.7 61.3 Z M 5.7 73.2 C 6.4 74.4 5.5 72.5 6.0 73.0 C 5.3 71.7 4.8 70.2 4.6 70.3 C 5.3 71.8 5.5 72.1 5.7 73.2 C 5.7 73.2 5.7 73.2 5.7 73.2 Z M 11.4 81.3 C 12.6 82.5 11.1 80.5 11.8 80.9 C 11.3 80.4 11.3 80.6 11.2 80.6 C 10.9 80.2 10.7 79.9 10.2 79.3 C 10.4 79.8 11.7 81.3 11.4 81.3 C 11.4 81.3 11.4 81.3 11.4 81.3 Z M 68.4 13.0 C 67.4 13.3 67.8 13.5 65.6 14.0 C 68.8 13.1 67.2 14.3 71.5 13.1 C 70.8 13.2 71.2 13.0 71.5 13.0 C 73.1 12.5 69.9 13.3 71.4 12.7 C 70.2 13.0 70.9 13.1 69.8 13.4 C 68.5 13.5 67.7 13.5 68.4 13.0 C 68.4 13.0 68.4 13.0 68.4 13.0 Z M 71.5 13.3 C 72.7 13.1 72.6 12.7 73.3 12.8 C 73.8 12.6 73.7 12.6 73.8 12.5 C 73.3 12.6 73.3 12.6 73.2 12.5 C 72.2 12.8 71.2 13.2 71.5 13.3 C 71.5 13.3 71.5 13.3 71.5 13.3 Z M 60.8 16.3 C 62.7 15.6 63.3 15.6 64.1 15.2 C 64.9 15.3 65.4 14.7 66.4 14.7 C 68.3 14.1 66.9 14.4 66.3 14.4 C 68.1 13.8 66.8 14.5 68.7 13.9 C 68.9 13.6 66.6 14.3 66.8 13.9 C 65.4 14.3 65.5 14.5 64.6 14.8 C 64.0 15.0 64.1 14.8 64.0 14.7 C 62.4 15.2 62.5 15.0 61.2 15.4 C 61.0 15.7 61.5 15.7 63.0 15.2 C 61.5 15.7 60.9 16.1 59.2 16.5 C 60.3 15.9 54.8 17.6 55.4 17.8 C 56.9 17.4 56.4 17.3 56.9 17.0 C 58.9 16.6 60.1 16.2 60.8 16.3 C 60.8 16.3 60.8 16.3 60.8 16.3 Z M 27.8 29.4 C 27.2 29.7 26.7 30.0 25.8 30.5 C 25.7 30.4 26.8 29.8 25.7 30.3 C 24.3 31.1 24.1 31.3 23.3 31.9 C 23.8 31.7 26.7 30.2 25.3 31.2 C 25.8 31.0 26.7 30.4 27.9 29.7 C 26.3 30.3 29.9 28.6 31.3 27.8 C 31.0 27.6 33.8 26.6 34.8 25.9 C 33.8 26.1 31.0 27.8 29.8 28.5 C 30.4 28.1 26.3 29.9 27.8 29.4 C 27.8 29.4 27.8 29.4 27.8 29.4 Z M 76.2 12.1 C 76.5 11.9 77.8 11.6 76.8 11.8 C 77.3 11.6 78.4 11.4 77.8 11.2 C 78.5 11.0 79.1 10.9 79.6 10.8 C 79.4 11.0 77.8 11.3 78.5 11.4 C 79.7 11.0 79.2 11.2 80.9 10.9 C 80.0 11.3 81.0 11.1 80.4 11.5 C 80.8 11.3 82.3 11.0 82.1 10.8 C 84.4 10.4 81.6 11.3 84.6 10.7 C 84.6 10.9 82.4 11.3 81.6 11.3 C 81.3 11.7 85.4 10.7 87.7 10.3 C 85.6 10.5 87.2 10.0 88.2 9.6 C 88.9 9.5 88.2 9.7 89.5 9.6 C 90.5 9.5 91.0 9.2 91.3 9.3 C 92.2 9.1 91.8 9.0 91.9 8.9 C 93.3 8.7 92.3 9.2 94.4 8.8 C 92.8 8.7 94.6 8.3 97.4 8.0 C 97.2 7.9 96.3 8.0 96.2 7.9 C 96.6 7.7 98.3 7.8 98.7 7.8 C 99.8 7.6 99.1 7.5 98.1 7.7 C 98.7 7.5 99.3 7.4 100.0 7.2 C 96.8 7.6 91.9 8.5 86.2 9.2 C 87.3 9.2 86.1 9.5 84.4 9.7 C 84.2 9.6 84.9 9.5 85.6 9.3 C 83.6 9.4 83.9 10.0 80.8 10.5 C 79.2 10.7 82.6 9.9 80.8 10.1 C 79.7 10.4 79.0 10.8 78.4 10.7 C 76.5 11.2 76.0 11.6 73.1 12.3 C 74.8 12.0 75.7 12.4 77.4 11.9 C 77.4 11.8 76.6 12.0 76.2 12.1 C 76.2 12.1 76.2 12.1 76.2 12.1 Z M 16.8 36.8 C 15.9 37.5 15.6 38.0 15.3 38.0 C 14.0 39.4 15.7 38.1 16.0 37.9 C 16.6 37.3 16.8 37.0 16.8 36.8 C 16.8 36.8 16.8 36.8 16.8 36.8 Z M 139.0 119.8 C 141.5 120.0 141.0 119.7 143.0 119.7 C 141.4 119.6 141.0 119.4 138.3 119.3 C 138.2 119.5 138.2 119.7 139.0 119.8 C 139.0 119.8 139.0 119.8 139.0 119.8 Z M 22.2 32.8 C 23.4 31.7 20.7 34.3 20.6 34.1 C 19.1 35.4 22.1 33.1 20.8 34.4 C 22.1 33.3 23.0 32.9 24.7 31.6 C 24.6 31.5 23.1 32.4 21.8 33.4 C 21.5 33.4 22.2 32.9 22.2 32.8 C 22.2 32.8 22.2 32.8 22.2 32.8 Z M 113.4 117.3 C 111.7 117.3 114.9 117.9 115.9 118.2 C 116.0 117.8 115.5 117.8 113.4 117.3 C 113.4 117.3 113.4 117.3 113.4 117.3 Z M 156.3 119.7 C 157.3 119.4 153.3 119.7 154.3 119.4 C 153.1 119.4 153.0 119.5 152.9 119.6 C 152.4 119.5 150.5 119.5 151.0 119.3 C 150.7 119.1 154.0 119.4 152.9 119.1 C 154.0 119.1 154.1 119.2 155.0 119.2 C 153.0 119.2 153.9 119.4 156.3 119.5 C 156.3 119.3 155.2 119.3 156.3 119.2 C 156.4 119.3 157.7 119.5 157.6 119.8 C 159.7 119.8 158.5 119.4 160.9 119.4 C 160.7 119.2 159.2 119.2 158.3 119.2 C 158.5 118.9 160.9 119.3 160.3 119.0 C 160.8 119.2 162.2 119.2 162.3 119.5 C 160.4 119.6 159.2 119.8 157.6 120.0 C 159.1 120.1 161.1 119.5 163.6 119.7 C 163.3 119.5 164.8 119.5 164.3 119.3 C 166.3 119.3 165.4 119.6 165.0 119.7 C 165.5 119.8 169.2 119.6 169.0 119.4 C 169.2 119.6 173.8 119.3 173.6 119.0 C 174.9 119.2 177.0 118.7 177.6 119.0 C 178.3 118.9 179.9 118.8 181.6 118.7 C 182.0 118.4 179.1 118.7 178.9 118.5 C 178.4 118.3 182.0 118.4 181.5 118.2 C 181.5 118.1 181.5 118.1 181.5 118.0 C 180.2 118.2 178.8 118.4 177.5 118.5 C 176.6 118.5 177.8 118.4 177.5 118.3 C 176.6 118.5 172.4 119.0 172.2 118.5 C 169.4 118.8 167.4 118.8 166.2 119.0 C 164.6 119.0 167.2 118.8 166.2 118.7 C 161.3 119.2 155.2 118.8 151.0 119.2 C 150.1 119.1 150.4 119.0 150.3 118.8 C 144.6 118.9 149.4 119.3 145.0 119.1 C 145.0 118.9 147.1 119.0 147.0 118.8 C 145.4 118.7 145.0 118.9 143.0 118.8 C 143.0 118.9 143.0 119.0 142.9 119.1 C 141.3 119.0 141.9 118.8 141.0 118.6 C 138.9 118.6 139.4 118.8 138.4 118.4 C 136.4 118.5 134.4 118.5 132.4 118.2 C 131.0 118.3 133.6 118.8 135.7 119.0 C 135.6 119.0 135.0 119.0 135.0 119.1 C 132.5 118.8 132.2 118.3 128.5 118.0 C 131.3 118.4 127.0 118.0 126.5 117.8 C 124.9 117.7 126.1 118.1 127.1 118.1 C 126.9 118.2 125.9 118.1 125.8 118.0 C 125.6 118.3 129.2 118.8 133.0 118.8 C 131.2 119.1 135.7 118.9 133.7 119.3 C 136.8 119.4 134.1 119.0 137.6 119.2 C 137.3 119.1 136.7 119.0 136.4 118.8 C 139.0 118.9 138.2 119.2 141.0 119.3 C 141.5 119.1 139.6 119.1 139.7 118.9 C 142.7 119.2 143.7 119.3 145.7 119.6 C 146.1 119.5 145.5 119.3 149.0 119.5 C 149.0 119.5 149.0 119.6 149.0 119.6 C 147.4 119.5 147.0 120.0 151.0 120.0 C 151.2 119.9 150.0 119.9 149.0 119.9 C 149.4 119.7 150.7 119.7 152.3 119.6 C 153.1 119.7 154.0 119.8 152.9 119.8 C 153.6 120.0 154.2 119.6 156.3 119.7 C 156.3 119.7 156.3 119.7 156.3 119.7 Z M 3.4 58.9 C 3.4 59.3 3.4 59.7 3.4 60.3 C 3.6 60.7 3.6 59.4 3.7 59.4 C 3.9 58.4 3.5 59.1 3.4 58.9 C 3.4 58.9 3.4 58.9 3.4 58.9 Z M 8.6 46.1 C 8.4 46.0 8.2 46.8 7.5 47.8 C 7.5 48.3 8.2 47.0 8.3 47.1 C 9.1 45.9 7.8 47.2 8.6 46.1 C 8.6 46.1 8.6 46.1 8.6 46.1 Z M 5.6 51.5 C 5.1 51.9 5.5 52.0 5.9 51.0 C 6.0 51.2 6.0 51.4 5.8 52.1 C 6.3 51.5 6.1 50.9 6.7 49.8 C 6.4 50.1 6.0 50.7 5.6 51.5 C 5.6 51.5 5.6 51.5 5.6 51.5 Z M 4.8 53.3 C 4.8 54.0 4.4 54.4 4.2 55.6 C 4.5 55.4 5.2 52.8 5.3 52.4 C 5.3 51.9 4.3 54.7 4.8 53.3 C 4.8 53.3 4.8 53.3 4.8 53.3 Z M 88.3 113.3 C 88.9 113.5 88.8 113.3 88.9 113.3 C 90.7 114.0 93.4 114.4 91.2 114.4 C 93.3 114.5 95.1 115.1 96.8 115.5 C 98.2 115.7 97.5 115.3 98.7 115.5 C 100.5 115.8 97.7 115.5 98.1 115.7 C 98.4 115.9 99.0 115.6 101.2 116.0 C 100.7 115.5 103.1 116.3 102.5 115.8 C 103.7 116.1 104.1 116.1 105.7 116.3 C 105.6 116.1 104.0 115.9 103.8 115.7 C 103.1 115.3 102.9 115.8 104.4 115.9 C 103.5 116.1 101.4 115.4 100.7 115.5 C 99.9 115.1 102.7 115.7 101.9 115.3 C 101.4 115.3 100.8 115.3 100.7 115.3 C 99.8 115.1 99.2 115.0 98.8 114.8 C 99.4 114.9 99.4 114.9 99.4 115.0 C 100.6 115.1 98.3 114.4 100.8 114.8 C 100.3 114.6 99.3 114.5 99.5 114.3 C 98.8 114.1 99.4 115.0 97.0 114.4 C 95.3 114.3 100.8 115.2 99.4 115.4 C 95.9 114.9 97.9 114.8 95.1 114.3 C 95.1 114.4 95.1 114.5 94.4 114.4 C 94.5 114.5 95.5 114.7 96.3 114.8 C 96.1 114.9 95.1 114.7 94.4 114.6 C 94.5 114.7 95.0 114.8 95.0 114.8 C 92.7 114.4 93.0 113.9 95.1 114.1 C 95.1 113.9 92.2 113.5 91.4 113.4 C 92.1 113.7 91.3 113.6 91.9 113.9 C 92.5 114.0 92.4 113.9 92.6 113.9 C 93.7 114.1 92.7 114.0 92.6 114.1 C 91.3 113.9 91.4 113.7 90.1 113.6 C 90.4 113.6 90.7 113.6 90.8 113.5 C 90.2 113.4 89.5 113.3 88.9 113.1 C 88.9 113.3 88.2 113.2 88.3 113.3 C 88.3 113.3 88.3 113.3 88.3 113.3 Z M 121.2 118.4 C 123.3 118.6 122.2 118.3 121.2 118.2 C 121.6 118.2 122.4 118.2 123.2 118.2 C 122.5 118.1 122.0 118.1 119.9 117.9 C 121.7 117.7 119.9 117.1 116.7 116.9 C 115.7 117.2 118.4 117.6 117.3 117.7 C 119.7 117.8 120.9 118.1 121.2 118.4 C 121.2 118.4 121.2 118.4 121.2 118.4 Z M 16.1 37.9 C 15.1 38.7 14.2 39.6 13.4 40.4 C 13.7 40.5 16.5 38.0 16.1 37.9 C 16.1 37.9 16.1 37.9 16.1 37.9 Z M 102.5 7.1 C 103.0 7.1 103.1 7.1 103.2 7.1 C 105.0 6.8 102.3 7.1 103.1 6.7 C 102.4 6.8 101.8 6.9 101.2 7.0 C 101.1 7.1 103.8 6.9 101.8 7.2 C 102.0 7.3 102.5 7.2 102.5 7.1 C 102.5 7.1 102.5 7.1 102.5 7.1 Z M 3.8 58.0 C 3.8 58.9 4.1 58.3 3.9 60.4 C 4.1 59.7 4.1 59.2 4.2 58.0 C 4.1 58.0 4.0 58.0 3.8 58.0 C 3.8 58.0 3.8 58.0 3.8 58.0 Z M 79.1 111.9 C 80.6 112.5 81.1 112.0 84.0 112.8 C 82.5 112.1 80.8 112.2 79.1 111.9 C 79.1 111.9 79.1 111.9 79.1 111.9 Z M 186.8 117.9 C 185.8 117.9 187.0 117.7 185.4 117.7 C 184.5 117.9 184.1 118.1 182.8 118.2 C 184.7 118.3 188.0 117.8 189.3 118.0 C 190.9 117.9 190.8 117.6 191.3 117.4 C 190.5 117.5 190.1 117.5 190.0 117.4 C 189.1 117.9 187.9 117.4 186.8 117.9 C 186.8 117.9 186.8 117.9 186.8 117.9 Z M 112.8 117.2 C 111.6 116.9 113.6 117.0 114.1 116.9 C 115.0 117.0 114.6 117.2 114.7 117.3 C 115.9 117.4 116.2 117.3 116.0 117.1 C 113.9 116.8 111.3 116.5 112.9 116.4 C 110.8 116.1 111.9 116.5 110.9 116.5 C 109.8 116.2 110.8 116.2 110.9 116.0 C 110.4 116.0 108.8 116.1 109.0 115.8 C 105.9 115.7 107.2 116.3 109.5 117.0 C 111.6 117.0 109.2 116.6 112.8 117.2 C 112.8 117.2 112.8 117.2 112.8 117.2 Z M 34.3 96.4 C 34.5 96.5 35.8 97.1 35.7 97.2 C 37.4 97.8 38.9 98.2 40.6 98.7 C 40.4 98.4 38.2 97.6 39.0 98.2 C 38.4 97.7 36.9 96.9 36.1 96.4 C 34.7 95.6 34.0 95.8 33.9 95.4 C 32.5 94.8 33.3 95.2 31.1 94.0 C 34.4 96.1 29.9 93.4 29.6 93.5 C 31.5 94.7 33.3 95.6 33.1 95.2 C 34.6 96.1 36.3 97.0 36.6 97.4 C 36.4 97.4 35.2 96.8 34.3 96.4 C 34.3 96.4 34.3 96.4 34.3 96.4 Z M 43.9 99.9 C 43.2 99.7 42.5 99.5 41.5 99.0 C 42.1 99.3 42.2 99.5 42.1 99.6 C 44.2 100.5 44.7 100.6 45.4 101.1 C 47.3 101.9 45.0 100.6 48.0 101.9 C 47.8 101.7 46.3 101.1 46.4 101.0 C 46.0 101.1 44.8 100.6 43.9 99.9 C 43.9 99.9 43.9 99.9 43.9 99.9 Z M 62.0 106.9 C 63.5 107.3 61.3 106.5 62.1 106.5 C 61.8 106.5 59.1 105.6 59.5 105.5 C 58.8 104.9 55.9 104.7 56.3 104.4 C 55.6 104.2 55.8 104.4 55.7 104.4 C 57.6 105.0 57.5 105.2 56.1 104.7 C 56.3 104.9 57.5 105.3 58.3 105.5 C 58.4 105.4 57.7 105.2 57.8 105.0 C 59.4 105.7 60.6 106.3 62.0 106.9 C 62.0 106.9 62.0 106.9 62.0 106.9 Z M 174.1 4.6 C 172.6 4.5 171.6 4.5 170.8 4.5 C 171.3 4.7 172.1 4.6 172.8 4.6 C 173.0 4.8 172.3 4.7 171.5 4.7 C 172.3 5.0 175.0 4.9 174.1 4.6 C 174.1 4.6 174.1 4.6 174.1 4.6 Z M 160.9 4.2 C 159.4 4.1 158.4 4.1 158.2 4.3 C 158.8 4.4 158.6 4.2 159.6 4.2 C 160.2 4.3 160.6 4.4 160.9 4.5 C 161.5 4.5 161.4 4.4 161.6 4.3 C 162.1 4.3 162.2 4.4 162.2 4.4 C 164.1 4.2 160.1 4.4 160.9 4.2 C 160.9 4.2 160.9 4.2 160.9 4.2 Z M 53.0 103.8 C 52.6 103.5 52.2 103.2 51.0 102.8 C 51.2 103.0 50.2 102.7 49.4 102.4 C 50.5 103.0 51.1 103.1 53.0 103.8 C 53.0 103.8 53.0 103.8 53.0 103.8 Z M 80.4 11.7 C 78.6 11.9 78.9 12.2 76.3 12.6 C 76.3 12.7 76.3 12.8 76.3 12.8 C 77.8 12.3 78.6 12.3 80.4 11.7 C 80.4 11.7 80.4 11.7 80.4 11.7 Z M 302.0 72.4 C 301.9 72.2 301.3 73.6 301.1 73.6 C 301.3 74.0 300.5 74.4 298.7 76.9 C 298.6 76.9 298.7 76.7 298.9 76.4 C 297.4 78.3 299.6 75.9 299.9 75.8 C 300.9 74.2 301.2 74.0 302.0 72.4 C 302.0 72.4 302.0 72.4 302.0 72.4 Z M 166.9 118.3 C 166.8 118.3 167.2 118.3 167.6 118.3 C 168.0 118.3 168.5 118.3 168.9 118.3 C 168.7 118.0 166.5 117.9 168.2 117.5 C 167.6 117.5 167.6 117.6 167.6 117.6 C 164.4 118.4 161.8 117.3 157.6 117.8 C 157.0 117.8 157.1 117.9 157.0 118.0 C 157.5 118.0 157.5 118.0 157.6 118.0 C 158.1 117.7 161.9 118.0 160.3 118.2 C 160.4 118.3 160.9 118.2 160.9 118.2 C 161.4 118.2 161.8 118.2 162.3 118.1 C 162.0 118.0 161.1 118.0 160.9 117.9 C 163.0 118.0 165.6 118.0 164.3 118.3 C 165.6 118.3 166.0 118.1 166.9 118.0 C 167.8 118.0 167.8 118.2 166.9 118.3 C 166.9 118.3 166.9 118.3 166.9 118.3 Z M 184.0 117.3 C 186.1 117.2 185.3 117.0 187.3 116.9 C 186.0 116.8 184.5 117.2 182.7 117.1 C 183.0 117.2 183.9 117.2 184.0 117.3 C 184.0 117.3 184.0 117.3 184.0 117.3 Z M 145.7 118.0 C 146.1 117.7 144.3 117.6 142.3 117.5 C 142.0 117.8 143.7 117.9 145.7 118.0 C 145.7 118.0 145.7 118.0 145.7 118.0 Z M 154.3 118.1 C 156.2 118.0 151.8 118.0 152.9 117.7 C 152.0 117.7 151.1 117.7 151.0 117.6 C 150.3 117.7 150.3 117.8 149.0 117.8 C 149.1 117.9 151.2 117.9 151.0 118.0 C 152.5 117.9 152.8 117.9 154.3 118.1 C 154.3 118.1 154.3 118.1 154.3 118.1 Z M 155.6 118.1 C 156.9 118.0 155.3 117.6 153.7 117.6 C 154.2 117.7 154.6 117.9 155.6 118.1 C 155.6 118.1 155.6 118.1 155.6 118.1 Z M 12.4 78.9 C 12.9 79.4 12.7 78.8 13.3 79.5 C 13.4 79.4 11.3 77.0 13.1 79.0 C 12.6 78.1 12.0 77.9 11.3 77.0 C 11.5 77.3 11.6 77.6 11.2 77.1 C 10.8 76.9 12.8 79.0 12.4 78.9 C 12.4 78.9 12.4 78.9 12.4 78.9 Z M 14.7 81.3 C 15.2 81.8 15.0 81.5 14.8 81.3 C 14.9 81.3 15.6 82.0 16.1 82.4 C 16.0 82.6 15.4 81.3 15.6 81.2 C 13.4 79.3 14.8 81.1 14.7 81.3 C 14.7 81.3 14.7 81.3 14.7 81.3 Z M 16.9 83.2 C 18.3 84.7 20.6 86.5 21.9 87.2 C 20.8 86.0 17.8 83.6 16.9 83.2 C 16.9 83.2 16.9 83.2 16.9 83.2 Z M 7.0 69.4 C 7.7 72.1 10.8 76.9 8.6 72.3 C 8.5 72.5 7.0 69.6 6.7 68.1 C 6.6 68.1 5.9 66.5 6.1 66.4 C 5.6 65.4 7.0 70.1 7.0 69.4 C 7.0 69.4 7.0 69.4 7.0 69.4 Z M 24.4 88.3 C 23.4 87.8 24.3 89.0 23.0 87.9 C 22.2 87.3 23.1 88.1 22.9 88.1 C 24.6 89.3 28.6 91.4 28.8 91.9 C 29.9 92.4 30.2 92.4 32.2 93.5 C 32.3 93.5 25.3 89.7 24.3 88.5 C 24.4 88.4 26.7 89.9 24.4 88.3 C 24.4 88.3 24.4 88.3 24.4 88.3 Z M 80.7 13.1 C 80.9 12.9 78.4 13.5 78.9 13.2 C 77.6 13.7 76.3 13.9 74.9 14.4 C 74.4 14.5 74.5 14.1 72.5 14.5 C 72.5 14.7 73.5 14.4 72.6 14.8 C 70.7 15.3 71.2 14.9 69.1 15.6 C 69.5 15.9 64.7 16.8 65.3 17.1 C 66.4 16.8 66.2 16.6 68.1 16.2 C 68.7 16.0 68.4 16.2 69.2 16.0 C 68.7 16.4 67.7 16.3 67.0 16.7 C 67.2 16.8 68.6 16.4 68.8 16.6 C 69.6 16.3 68.5 16.5 68.7 16.3 C 70.9 15.7 68.7 16.9 71.1 16.2 C 70.5 16.1 70.5 16.1 71.0 15.7 C 71.9 15.6 74.9 14.7 73.3 15.4 C 73.5 15.5 75.3 14.8 75.0 14.7 C 75.9 14.5 76.1 14.5 76.2 14.6 C 78.6 13.9 78.9 13.7 78.4 13.5 C 78.8 13.2 79.3 13.5 80.7 13.1 C 80.7 13.1 80.7 13.1 80.7 13.1 Z M 6.4 55.7 C 6.4 54.7 6.1 56.9 5.9 57.9 C 6.1 56.7 6.4 57.1 6.7 55.8 C 6.5 56.3 6.5 56.2 6.7 55.3 C 6.7 55.1 6.1 57.0 6.4 55.7 C 6.4 55.7 6.4 55.7 6.4 55.7 Z M 36.5 95.7 C 37.2 96.3 41.1 98.0 43.3 98.9 C 43.1 98.4 37.7 96.6 37.3 95.9 C 36.1 95.4 37.8 96.4 36.5 95.7 C 36.5 95.7 36.5 95.7 36.5 95.7 Z M 59.1 18.4 C 58.5 18.6 58.9 18.6 59.1 18.5 C 59.0 18.7 57.9 19.0 57.0 19.3 C 58.3 19.0 56.8 19.6 57.2 19.7 C 56.6 19.9 56.3 20.1 56.2 20.2 C 56.0 19.7 52.9 21.5 56.3 20.5 C 55.6 20.4 55.8 20.4 57.2 19.8 C 58.8 19.5 59.9 18.9 60.5 19.0 C 61.5 18.7 61.8 18.4 63.2 18.0 C 63.5 18.1 64.8 17.9 63.9 18.5 C 66.3 17.8 64.5 17.7 66.5 17.1 C 68.4 16.7 65.6 17.6 66.1 17.7 C 66.6 17.6 66.5 17.7 66.7 17.7 C 67.4 17.5 67.3 17.3 66.6 17.5 C 66.8 17.3 68.7 16.6 68.2 17.0 C 69.4 16.6 66.3 16.8 64.8 17.5 C 63.9 17.8 63.8 17.3 64.7 17.1 C 64.3 17.0 62.6 18.0 63.0 17.4 C 62.2 17.6 61.5 17.9 60.8 18.1 C 60.9 18.1 61.4 18.0 61.4 18.1 C 60.7 18.3 60.0 18.5 59.2 18.7 C 59.8 18.4 59.8 18.4 59.1 18.4 C 59.1 18.4 59.1 18.4 59.1 18.4 Z M 27.7 90.9 C 29.3 91.8 29.7 91.9 31.0 92.6 C 30.6 92.2 27.1 90.2 27.7 90.9 C 27.7 90.9 27.7 90.9 27.7 90.9 Z M 91.1 11.8 C 90.9 11.7 89.9 12.0 89.9 11.8 C 91.7 11.4 89.6 11.7 91.0 11.0 C 88.6 11.6 87.9 12.3 91.2 11.9 C 93.5 11.5 88.7 12.3 91.1 11.8 C 91.1 11.8 91.1 11.8 91.1 11.8 Z M 83.8 13.0 C 82.4 13.4 86.1 12.8 86.9 12.7 C 86.9 12.8 86.9 12.9 87.0 13.0 C 88.9 12.2 86.2 12.6 88.0 11.8 C 85.6 12.1 84.6 12.2 82.6 12.8 C 82.7 12.9 83.1 12.7 83.1 12.7 C 84.7 12.4 83.7 12.9 82.0 13.1 C 82.5 13.2 84.0 12.9 85.0 12.7 C 84.7 12.7 84.4 12.7 84.4 12.6 C 85.7 12.3 85.2 12.6 86.2 12.4 C 86.2 12.5 83.9 13.2 83.8 13.0 C 83.8 13.0 83.8 13.0 83.8 13.0 Z M 210.7 10.0 C 209.5 9.8 212.0 10.6 211.8 10.9 C 213.2 11.1 213.5 11.1 214.3 11.2 C 213.9 11.0 212.5 10.7 211.9 10.5 C 212.2 10.2 213.8 10.9 214.4 10.7 C 215.2 10.5 211.2 10.4 210.7 10.0 C 210.7 10.0 210.7 10.0 210.7 10.0 Z M 28.5 32.1 C 27.8 32.5 28.2 32.4 28.5 32.2 C 28.4 32.3 27.4 33.0 27.3 32.9 C 26.4 33.5 27.9 32.7 26.8 33.4 C 26.7 33.7 28.5 32.3 28.6 32.3 C 29.9 31.4 29.0 32.3 29.4 32.2 C 30.7 31.5 30.1 31.5 31.9 30.6 C 30.8 31.1 29.7 31.5 28.5 32.1 C 28.5 32.1 28.5 32.1 28.5 32.1 Z M 95.3 10.6 C 95.5 10.4 93.9 11.2 92.3 11.3 C 90.1 11.6 93.6 11.3 91.7 11.6 C 93.3 11.4 95.3 10.8 97.8 10.4 C 98.4 10.2 94.3 10.9 96.6 10.5 C 96.5 10.4 95.9 10.5 95.9 10.6 C 95.4 10.7 95.4 10.6 95.3 10.6 C 95.3 10.6 95.3 10.6 95.3 10.6 Z M 92.9 11.6 C 93.1 11.6 93.6 11.5 93.6 11.4 C 94.4 11.3 94.4 11.5 93.6 11.7 C 94.7 11.8 94.6 11.3 96.7 11.1 C 95.8 11.0 95.3 11.0 97.3 10.8 C 98.8 10.4 93.6 11.3 92.9 11.6 C 92.9 11.6 92.9 11.6 92.9 11.6 Z M 190.4 7.7 C 190.6 7.8 192.0 7.9 193.0 8.0 C 191.7 8.1 186.5 7.5 185.8 7.3 C 185.3 7.3 184.7 7.3 184.5 7.2 C 184.6 7.2 183.1 7.3 183.9 7.4 C 183.7 7.4 182.6 7.3 182.6 7.4 C 180.6 7.2 183.2 7.3 182.6 7.1 C 180.2 7.2 180.8 7.0 178.0 6.8 C 178.4 7.1 181.5 7.2 181.2 7.5 C 183.4 7.4 185.7 7.7 187.1 8.1 C 185.1 7.6 192.7 8.0 196.1 8.5 C 196.0 8.6 197.3 8.7 198.7 9.0 C 199.6 9.4 199.4 8.8 197.4 8.7 C 197.5 8.6 200.1 9.0 201.2 9.1 C 200.0 8.8 200.7 8.8 200.0 8.6 C 197.6 8.3 199.8 8.7 199.3 8.8 C 198.7 8.7 198.1 8.6 197.4 8.6 C 200.8 8.6 192.5 8.0 195.5 8.3 C 192.9 8.0 192.9 7.7 190.4 7.7 C 190.4 7.7 190.4 7.7 190.4 7.7 Z M 128.5 6.8 C 128.1 6.9 126.0 7.2 125.9 7.0 C 123.3 7.4 125.6 7.4 122.7 7.7 C 122.9 7.7 124.0 7.6 124.0 7.7 C 125.1 7.5 126.3 7.4 125.9 7.2 C 127.3 7.1 127.7 7.0 128.6 6.9 C 128.2 7.0 127.7 7.1 126.6 7.2 C 126.4 7.4 126.9 7.5 128.6 7.4 C 129.3 7.1 128.8 7.0 128.5 6.8 C 128.5 6.8 128.5 6.8 128.5 6.8 Z M 122.0 7.6 C 121.7 7.6 121.3 7.6 121.4 7.4 C 120.4 7.3 121.0 7.8 120.1 7.9 C 119.3 7.9 119.6 7.8 119.4 7.7 C 118.3 7.9 117.4 8.0 116.8 7.9 C 115.1 8.2 118.9 8.0 119.5 8.0 C 120.7 7.9 120.2 7.7 122.0 7.6 C 122.0 7.6 122.0 7.6 122.0 7.6 Z M 102.8 9.5 C 102.5 9.3 101.8 9.8 101.0 9.9 C 101.6 10.0 103.4 9.6 102.3 10.1 C 104.1 9.9 104.2 9.9 106.1 9.6 C 107.3 9.6 106.1 9.4 104.1 9.7 C 104.4 9.6 105.2 9.5 105.3 9.3 C 106.6 9.7 109.8 8.5 107.9 9.1 C 107.3 9.1 106.9 9.1 106.6 9.0 C 106.2 9.3 101.9 9.8 102.8 9.5 C 102.8 9.5 102.8 9.5 102.8 9.5 Z M 43.7 25.0 C 45.3 24.3 46.1 24.0 47.0 23.6 C 47.8 23.3 49.0 22.8 50.0 22.5 C 50.1 22.6 50.0 22.7 49.6 22.8 C 50.1 22.7 50.7 22.5 51.6 22.1 C 51.5 22.0 51.1 22.2 51.1 22.3 C 49.4 22.7 50.8 22.2 50.9 21.9 C 48.9 22.4 45.9 24.1 44.4 24.4 C 43.2 24.9 44.6 24.4 43.7 25.0 C 43.7 25.0 43.7 25.0 43.7 25.0 Z M 301.0 69.9 C 300.9 70.1 300.6 70.8 300.8 70.7 C 301.1 70.1 301.2 69.7 301.4 69.0 C 300.9 70.2 300.7 69.9 299.9 71.3 C 300.3 70.9 300.5 71.1 301.0 69.9 C 301.0 69.9 301.0 69.9 301.0 69.9 Z M 109.2 8.8 C 109.2 8.9 109.3 9.0 108.6 9.1 C 108.3 9.3 110.4 9.0 110.5 9.1 C 111.1 9.0 110.9 8.9 111.7 8.8 C 111.4 8.7 109.7 9.0 110.4 8.6 C 111.0 8.6 111.0 8.6 111.1 8.6 C 112.4 8.4 110.4 8.5 109.2 8.8 C 109.2 8.8 109.2 8.8 109.2 8.8 Z M 216.8 11.2 C 216.0 11.1 216.8 11.4 217.5 11.5 C 215.6 11.4 218.5 12.1 218.6 12.4 C 217.8 12.0 215.4 11.7 214.9 11.6 C 214.2 11.5 215.0 11.8 213.0 11.6 C 213.2 11.8 215.4 12.0 214.9 11.7 C 215.4 12.1 217.6 12.1 217.3 12.4 C 220.0 12.9 220.7 12.9 221.0 12.6 C 218.3 12.3 219.8 12.1 217.4 11.8 C 217.5 11.7 218.2 11.8 218.6 11.9 C 218.5 11.7 217.5 11.5 216.8 11.2 C 216.8 11.2 216.8 11.2 216.8 11.2 Z M 149.6 6.1 C 148.1 6.2 148.2 6.4 148.3 6.6 C 148.9 6.5 149.8 6.5 150.9 6.4 C 150.7 6.3 148.8 6.4 149.6 6.1 C 149.6 6.1 149.6 6.1 149.6 6.1 Z M 206.9 10.0 C 206.8 9.9 206.3 9.9 206.3 9.9 C 204.7 9.7 204.3 9.5 203.8 9.3 C 202.9 9.2 203.2 9.5 203.1 9.6 C 204.6 9.6 204.3 9.8 206.2 10.1 C 206.1 10.0 206.4 9.9 206.9 10.0 C 206.9 10.0 206.9 10.0 206.9 10.0 Z M 163.5 6.4 C 162.7 6.4 163.1 6.4 163.5 6.5 C 162.6 6.7 159.9 6.4 158.8 6.5 C 158.7 6.7 162.1 6.7 158.2 6.8 C 158.9 7.0 162.4 6.9 164.1 6.9 C 163.7 7.2 161.4 7.1 161.5 7.4 C 163.5 7.3 165.8 7.2 166.1 6.8 C 163.2 6.7 164.2 6.5 163.5 6.4 C 163.5 6.4 163.5 6.4 163.5 6.4 Z M 166.8 6.6 C 166.5 6.5 165.9 6.6 164.8 6.6 C 166.4 6.9 167.4 6.8 170.7 7.0 C 170.7 7.0 170.8 6.9 170.8 6.8 C 171.4 6.9 172.1 6.9 172.7 6.9 C 169.9 6.5 169.2 6.7 166.1 6.7 C 166.0 6.6 166.4 6.6 166.8 6.6 C 166.8 6.6 166.8 6.6 166.8 6.6 Z M 80.9 13.8 C 81.7 13.8 82.4 13.7 83.9 13.5 C 83.7 13.3 82.8 13.4 80.9 13.8 C 80.9 13.8 80.9 13.8 80.9 13.8 Z M 209.4 10.5 C 211.1 10.6 207.7 10.3 208.7 10.7 C 210.0 11.0 211.5 11.3 211.7 11.5 C 214.3 11.6 209.0 10.8 209.4 10.5 C 209.4 10.5 209.4 10.5 209.4 10.5 Z M 198.0 9.6 C 197.2 9.5 197.3 9.1 198.0 9.4 C 199.8 9.6 196.5 9.0 199.3 9.4 C 198.1 9.2 195.4 8.7 194.2 8.8 C 194.2 9.0 196.6 9.1 196.7 9.4 C 196.8 9.4 196.4 9.4 196.1 9.4 C 196.3 9.5 196.9 9.4 198.0 9.6 C 198.0 9.6 198.0 9.6 198.0 9.6 Z M 188.4 8.2 C 189.4 8.4 190.7 8.7 192.9 8.9 C 191.5 8.6 190.7 8.3 188.4 8.2 C 188.4 8.2 188.4 8.2 188.4 8.2 Z M 297.6 48.6 C 296.9 47.6 297.3 48.6 297.3 48.8 C 298.0 49.8 298.1 49.6 298.6 50.7 C 298.7 50.3 297.8 49.4 297.6 48.6 C 297.6 48.6 297.6 48.6 297.6 48.6 Z M 299.5 52.2 C 299.4 52.4 300.1 53.8 300.0 53.9 C 300.7 54.5 300.4 56.0 300.7 55.8 C 300.8 56.2 300.8 56.5 301.0 57.0 C 301.1 55.8 300.1 53.4 299.5 52.2 C 299.5 52.2 299.5 52.2 299.5 52.2 Z M 177.2 7.9 C 175.5 7.7 177.7 8.3 175.9 8.1 C 175.8 8.2 179.3 8.5 177.2 8.4 C 179.9 8.8 177.0 8.0 177.2 7.9 C 177.2 7.9 177.2 7.9 177.2 7.9 Z M 145.0 7.6 C 145.1 7.4 142.7 7.6 141.7 7.6 C 141.7 7.7 142.5 7.6 143.0 7.6 C 142.8 7.7 142.4 7.8 141.7 7.8 C 142.3 8.0 144.0 7.6 145.0 7.6 C 145.0 7.6 145.0 7.6 145.0 7.6 Z M 180.8 3.9 C 181.9 4.2 183.3 4.5 184.1 4.2 C 185.2 4.5 183.3 4.5 184.7 4.7 C 186.6 4.7 185.7 4.9 188.7 5.0 C 188.1 5.3 190.2 5.4 190.6 5.7 C 189.4 5.6 187.9 5.2 187.3 5.4 C 188.3 5.5 187.7 5.7 187.3 5.5 C 185.3 5.2 189.7 5.4 187.3 5.0 C 186.6 5.3 183.1 4.4 180.8 4.3 C 181.7 4.1 179.1 3.8 180.8 3.9 C 180.8 3.9 180.8 3.9 180.8 3.9 Z M 192.5 5.4 C 194.1 5.5 194.9 6.1 194.4 6.1 C 194.5 6.0 192.7 5.8 192.5 5.9 C 192.9 5.9 193.3 6.0 193.2 6.0 C 190.3 5.7 191.3 5.6 190.6 5.4 C 192.2 5.4 192.6 5.6 193.2 5.5 C 192.8 5.5 192.5 5.4 192.5 5.4 C 192.5 5.4 192.5 5.4 192.5 5.4 Z M 225.1 14.3 C 224.8 14.1 224.4 14.2 223.8 14.1 C 223.8 13.7 220.6 13.6 220.3 13.3 C 221.0 13.3 222.6 13.6 223.3 13.7 C 222.5 13.5 222.3 13.4 221.5 13.3 C 221.7 13.1 223.5 13.5 224.0 13.4 C 224.1 13.6 225.0 13.5 225.2 13.7 C 222.8 13.4 226.4 14.5 225.1 14.3 C 225.1 14.3 225.1 14.3 225.1 14.3 Z M 162.2 7.6 C 161.9 7.9 164.7 8.5 162.2 8.7 C 161.6 8.5 161.3 8.3 161.5 8.0 C 159.9 8.1 159.2 7.9 158.2 8.1 C 155.2 7.4 160.5 8.2 162.2 7.6 C 162.2 7.6 162.2 7.6 162.2 7.6 Z M 151.6 7.8 C 152.1 7.6 150.7 7.6 150.9 7.4 C 152.2 7.6 156.3 7.3 154.9 7.5 C 153.6 7.5 153.6 7.8 151.6 7.8 C 151.6 7.8 151.6 7.8 151.6 7.8 Z M 72.6 108.1 C 70.7 107.8 69.9 107.1 71.0 107.3 C 70.5 107.4 73.3 107.9 72.6 108.1 C 72.6 108.1 72.6 108.1 72.6 108.1 Z M 5.8 74.9 C 6.4 76.4 7.1 77.1 7.0 77.4 C 6.1 76.1 6.3 76.2 5.6 75.0 C 5.5 75.0 5.0 74.3 5.1 74.1 C 5.4 74.8 5.5 74.6 5.8 74.9 C 5.8 74.9 5.8 74.9 5.8 74.9 Z M 111.3 4.5 C 111.1 4.4 110.3 4.5 110.6 4.3 C 112.6 4.1 114.8 3.7 116.4 3.4 C 116.4 3.5 116.4 3.6 116.4 3.7 C 113.3 3.9 112.5 4.2 111.3 4.5 C 111.3 4.5 111.3 4.5 111.3 4.5 Z M 107.3 4.5 C 107.0 4.7 108.1 4.8 106.7 5.0 C 106.8 4.8 104.3 4.8 105.4 4.7 C 105.8 4.8 106.4 4.7 107.3 4.5 C 107.3 4.5 107.3 4.5 107.3 4.5 Z M 217.4 8.1 C 218.9 8.3 216.8 7.8 216.8 7.7 C 217.9 7.9 219.4 8.2 219.9 8.4 C 218.8 8.2 218.0 8.4 217.4 8.1 C 217.4 8.1 217.4 8.1 217.4 8.1 Z M 193.9 5.4 C 190.5 5.1 192.0 4.8 188.7 4.5 C 190.1 4.4 193.0 4.8 193.9 4.6 C 193.8 4.8 194.6 4.9 194.5 5.0 C 193.3 4.9 193.2 4.8 192.0 4.7 C 192.4 5.0 192.4 4.9 191.9 5.1 C 192.8 5.2 193.4 5.2 193.9 5.2 C 193.6 5.3 194.8 5.5 193.9 5.4 C 193.9 5.4 193.9 5.4 193.9 5.4 Z M 216.7 8.6 C 218.0 8.8 219.0 9.3 217.9 9.1 C 217.8 8.9 216.9 8.9 216.7 8.8 C 218.5 9.0 215.2 8.4 216.1 8.4 C 217.2 8.5 217.6 8.5 217.4 8.3 C 218.1 8.5 219.2 8.6 219.2 8.7 C 218.7 8.7 218.0 8.5 218.0 8.6 C 218.4 8.7 218.7 8.7 218.6 8.8 C 217.5 8.6 217.0 8.6 216.7 8.6 C 216.7 8.6 216.7 8.6 216.7 8.6 Z M 208.0 7.2 C 209.7 7.5 209.8 7.8 210.4 8.0 C 208.1 7.6 207.8 7.2 206.1 6.8 C 208.0 7.1 209.9 7.1 210.5 7.4 C 209.6 7.3 208.1 7.1 208.0 7.2 C 208.0 7.2 208.0 7.2 208.0 7.2 Z M 237.6 109.5 C 236.2 109.7 235.0 109.8 233.5 110.1 C 233.0 110.4 236.0 110.2 234.7 110.3 C 233.1 110.8 234.2 110.2 232.9 110.4 C 234.2 110.5 227.4 112.0 227.0 111.7 C 228.0 111.5 228.4 111.4 228.1 111.3 C 230.9 110.7 231.9 110.3 234.0 109.7 C 235.5 109.7 239.8 108.7 242.0 107.7 C 243.6 107.8 246.1 106.5 248.2 106.3 C 248.7 106.0 246.5 106.5 248.1 106.0 C 249.3 105.9 248.4 106.3 249.9 105.9 C 250.0 105.8 249.6 105.7 250.3 105.5 C 250.3 105.6 251.2 105.4 251.5 105.3 C 248.6 106.3 251.8 105.6 249.5 106.4 C 248.5 106.6 250.4 105.7 247.7 106.5 C 246.8 106.9 245.9 107.2 246.1 107.4 C 245.4 107.6 245.0 107.8 244.5 108.0 C 245.4 107.4 240.7 109.1 242.8 108.2 C 242.9 108.1 244.5 107.7 245.5 107.3 C 244.5 107.4 243.3 107.8 241.6 108.4 C 240.8 108.4 241.9 108.1 241.0 108.3 C 239.6 108.8 241.5 108.5 240.5 108.9 C 241.0 108.8 241.6 108.6 241.7 108.7 C 239.2 109.1 238.3 109.6 237.1 109.9 C 237.9 109.5 235.6 110.0 237.6 109.5 C 237.6 109.5 237.6 109.5 237.6 109.5 Z M 257.3 103.2 C 257.8 103.0 258.3 102.9 258.9 102.7 C 259.0 102.8 257.0 103.6 258.5 103.3 C 256.2 104.1 258.5 103.0 257.3 103.2 C 257.3 103.2 257.3 103.2 257.3 103.2 Z M 246.3 105.8 C 245.4 105.8 246.0 106.3 245.3 106.5 C 246.6 106.0 247.8 105.6 248.1 105.8 C 246.5 106.2 245.8 106.4 244.2 107.0 C 245.7 106.2 242.4 107.2 241.8 107.0 C 243.0 106.6 244.0 106.3 245.7 105.8 C 245.4 106.0 247.9 105.3 246.3 105.8 C 246.3 105.8 246.3 105.8 246.3 105.8 Z M 250.6 104.2 C 250.9 104.3 253.2 103.4 252.8 103.8 C 251.4 104.2 250.9 104.5 251.3 104.6 C 250.2 104.9 250.0 104.9 249.1 105.2 C 248.4 105.1 250.1 104.6 250.6 104.3 C 250.3 104.4 250.0 104.4 250.6 104.2 C 250.6 104.2 250.6 104.2 250.6 104.2 Z M 294.2 78.7 C 294.7 78.5 293.1 80.0 292.7 80.3 C 293.4 80.0 293.2 80.3 292.2 81.3 C 292.4 80.7 290.9 82.3 289.7 82.9 C 289.6 83.3 291.0 82.2 289.4 83.6 C 288.2 84.5 287.1 85.5 284.9 87.1 C 284.3 87.2 285.3 86.5 285.8 86.0 C 284.4 87.1 284.6 86.6 283.5 87.4 C 283.8 87.4 282.9 88.1 282.4 88.2 C 284.4 86.8 279.5 89.7 281.6 88.2 C 281.8 88.2 282.3 87.9 282.8 87.5 C 282.4 88.2 285.0 86.2 285.7 86.0 C 286.4 84.8 289.2 83.0 291.7 80.8 C 292.0 80.8 291.3 81.5 291.9 81.0 C 291.9 80.8 292.7 80.1 293.0 79.7 C 293.0 79.8 293.4 79.6 293.9 79.1 C 293.9 79.0 293.9 79.0 294.2 78.7 C 294.2 78.7 294.2 78.7 294.2 78.7 Z M 132.5 115.7 C 132.7 115.3 128.5 115.2 127.3 115.3 C 127.5 114.8 134.9 115.4 132.5 115.7 C 132.5 115.7 132.5 115.7 132.5 115.7 Z M 158.2 116.0 C 157.1 116.0 157.9 116.2 157.0 116.2 C 156.9 116.0 154.4 116.5 154.3 116.2 C 155.5 116.0 156.3 116.0 158.2 116.0 C 158.2 116.0 158.2 116.0 158.2 116.0 Z M 181.9 115.1 C 180.0 115.3 183.0 115.2 182.6 115.3 C 180.9 115.4 179.2 115.5 179.3 115.3 C 180.8 115.3 181.7 114.9 181.9 115.1 C 181.9 115.1 181.9 115.1 181.9 115.1 Z M 146.4 115.6 C 144.8 115.5 147.4 115.3 147.7 115.4 C 145.9 115.5 148.8 115.7 150.3 115.6 C 150.3 115.9 149.6 115.9 150.3 116.1 C 148.0 116.2 149.9 115.8 148.3 115.8 C 147.2 116.0 148.4 115.9 148.3 116.2 C 147.7 116.2 147.0 116.1 146.4 116.1 C 146.4 116.0 146.4 115.9 146.4 115.7 C 147.2 115.7 147.9 115.7 147.7 115.6 C 147.0 115.6 146.9 115.6 146.4 115.6 C 146.4 115.6 146.4 115.6 146.4 115.6 Z M 263.5 97.4 C 262.2 98.0 263.4 97.6 264.3 97.3 C 264.5 97.1 265.1 96.3 266.6 95.9 C 263.6 97.4 267.6 95.9 266.0 96.7 C 265.2 96.8 263.5 97.8 261.9 98.4 C 261.2 98.5 262.7 97.5 263.5 97.4 C 263.5 97.4 263.5 97.4 263.5 97.4 Z M 269.0 95.2 C 268.8 95.2 268.3 95.4 267.4 95.8 C 268.3 95.2 267.0 95.8 268.1 95.2 C 268.0 95.3 272.0 93.6 269.7 94.7 C 267.6 95.5 270.3 94.6 271.3 94.2 C 270.3 94.6 268.5 95.7 268.2 95.6 C 268.8 95.4 269.2 95.2 269.0 95.2 C 269.0 95.2 269.0 95.2 269.0 95.2 Z M 299.1 70.5 C 299.0 70.2 298.7 70.9 298.5 71.1 C 299.6 69.2 300.1 67.5 300.4 66.6 C 300.2 67.5 300.3 67.5 300.6 67.0 C 300.2 68.0 300.2 68.2 300.0 68.5 C 300.1 67.6 299.7 69.3 299.1 70.5 C 299.1 70.5 299.1 70.5 299.1 70.5 Z M 299.1 70.5 " fill="#000000"></path><image xlink:href="../../CEFA4209-80C9-472B-8D2B-058B96531B72/assets/431BD2BFE54A6EFCB4B133EE2A4ED9FC.png" width="209.00" height="56.00" transform="matrix(1.00, 0.00, -0.00, -1.00, 52.0, 80.0)"></image><g><clipPath id="clip-285"><path d="M 5.5 5.3 L 303.7 5.3 L 303.7 117.7 L 5.5 117.7 Z M 5.5 5.3 "></path></clipPath><g clip-path="url(#clip-285)"><text xml:space="preserve" font-family="Chalkduster" font-size="32.0" fill="#000000" transform="matrix(1.00, 0.00, -0.00, -1.00, 55.0, 48.0)">L</text><text xml:space="preserve" font-family="Chalkduster" font-size="32.0" fill="#000000" transform="matrix(1.00, 0.00, -0.00, -1.00, 75.3, 48.0)">i</text><text xml:space="preserve" font-family="Chalkduster" font-size="32.0" fill="#000000" transform="matrix(1.00, 0.00, -0.00, -1.00, 87.9, 48.0)">n</text><text xml:space="preserve" font-family="Chalkduster" font-size="32.0" fill="#000000" transform="matrix(1.00, 0.00, -0.00, -1.00, 111.4, 48.0)">k</text><text xml:space="preserve" font-family="Chalkduster" font-size="32.0" fill="#000000" transform="matrix(1.00, 0.00, -0.00, -1.00, 136.3, 48.0)"> </text><text xml:space="preserve" font-family="Chalkduster" font-size="32.0" fill="#000000" transform="matrix(1.00, 0.00, -0.00, -1.00, 152.2, 48.0)">S</text><text xml:space="preserve" font-family="Chalkduster" font-size="32.0" fill="#000000" transform="matrix(1.00, 0.00, -0.00, -1.00, 168.1, 48.0)">p</text><text xml:space="preserve" font-family="Chalkduster" font-size="32.0" fill="#000000" transform="matrix(1.00, 0.00, -0.00, -1.00, 188.2, 48.0)">e</text><text xml:space="preserve" font-family="Chalkduster" font-size="32.0" fill="#000000" transform="matrix(1.00, 0.00, -0.00, -1.00, 208.1, 48.0)">e</text><text xml:space="preserve" font-family="Chalkduster" font-size="32.0" fill="#000000" transform="matrix(1.00, 0.00, -0.00, -1.00, 228.9, 48.0)">d</text></g></g></g></svg>