<?xml version="1.0" encoding="UTF-8" standalone="no"?><svg xmlns="http://www.w3.org/2000/svg" xmlns:xlink="http://www.w3.org/1999/xlink" clip-rule="evenodd" stroke-miterlimit="4.00" viewBox="0 0 309 123"><desc>SVG generated by Keynote</desc><defs></defs><g transform="matrix(1.00, 0.00, -0.00, -1.00, 0.0, 123.0)"><g><clipPath id="clip-1100"><path d="M 259.9 101.1 C 318.2 79.2 318.2 43.6 259.9 21.6 C 201.7 -0.3 107.3 -0.3 49.1 21.6 C -9.1 43.6 -9.1 79.2 49.1 101.1 C 107.3 123.1 201.7 123.1 259.9 101.1 Z M 259.9 101.1 "></path></clipPath><g clip-path="url(#clip-1100)"><image xlink:href="../../CEFA4209-80C9-472B-8D2B-058B96531B72/assets/59DBD66EA15A3D40E065F836EF2595FD.jpeg" width="400.00" height="400.00" transform="matrix(1.00, 0.00, -0.00, -1.00, 5.4, 117.6)"></image></g></g><path d="M 76.8 9.4 C 76.3 9.6 75.8 9.7 75.0 9.9 C 75.3 9.9 75.6 9.9 75.6 10.0 C 76.3 9.8 77.2 9.5 78.6 9.2 C 78.5 9.2 77.8 9.4 77.4 9.4 C 76.8 9.6 76.9 9.5 76.8 9.4 C 76.8 9.4 76.8 9.4 76.8 9.4 Z M 64.8 109.7 C 63.6 109.4 64.8 110.0 65.2 110.1 C 65.3 110.1 65.4 110.0 65.8 110.2 C 65.9 110.4 64.9 110.2 64.1 110.0 C 61.0 109.0 63.4 109.3 64.8 109.7 C 64.8 109.7 64.8 109.7 64.8 109.7 Z M 235.6 111.8 C 238.2 111.2 235.4 111.6 235.0 111.6 C 236.2 111.3 235.1 111.1 236.6 110.7 C 236.9 110.8 237.5 110.7 237.8 110.8 C 237.2 110.9 236.2 111.2 236.1 111.3 C 237.0 111.1 238.2 110.7 238.4 110.8 C 236.5 111.3 238.2 111.1 238.5 111.2 C 236.8 111.6 236.3 111.9 235.6 111.8 C 235.6 111.8 235.6 111.8 235.6 111.8 Z M 280.2 28.0 C 281.1 28.5 281.7 29.0 281.5 29.0 C 280.6 28.4 280.0 28.1 279.5 27.7 C 279.3 27.7 279.5 28.0 278.7 27.6 C 277.9 26.9 278.5 26.9 279.0 27.0 C 279.0 27.2 282.1 28.9 280.2 28.0 C 280.2 28.0 280.2 28.0 280.2 28.0 Z M 209.8 6.9 C 207.4 6.4 209.6 7.2 207.2 6.7 C 207.3 6.5 207.0 6.2 208.6 6.4 C 208.7 6.6 209.6 6.7 209.8 6.9 C 209.8 6.9 209.8 6.9 209.8 6.9 Z M 163.5 118.8 C 163.5 119.0 165.3 118.9 164.9 119.1 C 163.9 119.1 163.1 119.1 162.2 119.2 C 162.0 119.0 162.3 118.9 163.5 118.8 C 163.5 118.8 163.5 118.8 163.5 118.8 Z M 251.9 104.8 C 254.4 104.3 256.8 103.0 256.1 103.5 C 257.1 103.5 254.7 104.8 254.7 104.5 C 254.3 104.3 249.9 105.5 251.9 104.8 C 251.9 104.8 251.9 104.8 251.9 104.8 Z M 79.0 109.0 C 81.8 109.8 81.4 109.0 83.2 109.7 C 82.5 109.6 82.2 109.6 82.0 109.6 C 82.4 109.8 83.1 109.9 83.1 110.0 C 81.8 109.7 80.1 109.5 79.0 109.0 C 79.0 109.0 79.0 109.0 79.0 109.0 Z M 119.6 3.4 C 120.1 3.3 120.3 3.3 120.3 3.2 C 122.3 3.0 122.2 2.8 123.5 2.9 C 123.6 3.2 121.9 3.2 120.3 3.3 C 120.2 3.4 119.7 3.5 119.6 3.4 C 119.6 3.4 119.6 3.4 119.6 3.4 Z M 178.1 3.4 C 178.1 3.2 176.8 3.1 178.8 3.1 C 180.9 3.6 179.0 3.6 176.7 3.7 C 176.7 3.8 176.7 3.9 176.7 4.0 C 177.6 4.0 178.2 4.1 178.7 4.2 C 179.1 3.8 180.6 4.6 184.0 4.6 C 182.4 4.7 184.1 5.1 182.0 4.8 C 182.5 5.1 181.0 4.9 181.3 5.1 C 182.2 5.1 184.4 5.3 183.9 4.9 C 185.1 5.0 186.0 5.1 186.5 5.2 C 187.4 5.5 184.4 5.1 185.2 5.4 C 185.9 5.5 186.0 5.6 186.5 5.6 C 186.7 5.5 186.4 5.4 187.2 5.4 C 189.3 5.7 186.8 5.7 189.7 6.0 C 189.9 5.8 189.1 5.7 189.1 5.6 C 190.5 5.6 190.4 5.8 191.7 5.8 C 192.0 5.9 190.8 5.9 191.7 6.0 C 192.6 5.7 194.4 6.5 196.3 6.4 C 195.1 5.7 196.6 6.5 198.3 6.2 C 198.6 6.4 197.4 6.6 198.8 6.8 C 198.4 6.1 204.1 6.9 199.6 5.9 C 202.0 6.2 202.9 5.8 200.9 5.5 C 205.2 6.1 203.8 5.7 205.5 5.8 C 207.1 6.1 204.6 5.8 205.4 6.1 C 203.7 5.9 204.1 6.1 202.9 5.8 C 202.9 5.9 202.5 5.9 202.2 6.0 C 203.9 6.0 205.9 6.6 204.6 6.8 C 203.8 6.6 204.6 6.5 203.4 6.3 C 203.8 6.7 202.2 6.1 202.1 6.3 C 202.9 6.7 200.4 6.6 202.7 7.0 C 202.7 6.9 202.8 6.7 202.8 6.6 C 203.4 6.7 204.0 6.8 204.6 6.9 C 205.2 7.2 204.7 7.3 205.2 7.4 C 206.3 7.6 206.9 7.6 207.2 7.5 C 205.9 7.3 204.4 6.9 206.5 7.1 C 205.7 7.5 209.5 7.7 207.8 7.7 C 210.1 8.2 211.3 8.0 211.5 8.3 C 212.7 8.5 212.0 8.1 213.4 8.4 C 215.7 9.0 215.3 8.6 218.4 9.3 C 218.8 9.0 218.7 9.4 219.6 9.6 C 219.6 9.5 219.7 9.3 219.7 9.2 C 220.7 9.6 223.1 10.2 225.7 10.5 C 226.3 10.7 225.8 10.8 227.5 11.1 C 229.3 11.1 231.3 11.9 233.4 12.1 C 233.6 12.3 235.0 12.6 235.8 12.7 C 236.1 12.9 235.0 12.9 236.3 13.2 C 237.2 13.2 235.7 12.8 237.5 13.1 C 237.3 13.3 239.2 13.4 239.2 13.7 C 238.6 13.6 238.0 13.5 237.4 13.5 C 238.2 13.7 238.0 13.7 238.6 13.9 C 238.5 13.6 239.9 14.2 240.3 14.4 C 240.3 14.2 240.5 14.1 240.9 14.2 C 241.9 14.5 242.7 14.7 243.2 14.7 C 244.4 15.2 242.4 14.7 243.7 15.1 C 244.5 14.7 245.5 15.7 248.2 16.1 C 248.8 16.5 249.8 16.9 251.4 17.4 C 251.6 17.3 249.9 16.9 249.8 16.7 C 252.2 17.5 249.5 16.4 251.0 16.9 C 254.3 18.1 256.5 18.8 259.8 20.3 C 259.9 20.1 264.0 21.5 263.8 21.6 C 262.7 21.1 266.1 22.8 267.8 23.6 C 268.4 23.4 271.2 24.2 271.4 24.1 C 271.9 24.6 271.8 24.5 271.9 25.0 C 274.6 26.4 276.2 26.8 277.6 28.1 C 277.6 27.8 278.8 28.4 279.8 28.9 C 279.4 28.9 278.8 28.7 278.2 28.6 C 279.5 29.3 279.7 29.5 280.8 30.1 C 282.3 30.2 283.6 32.1 284.8 32.1 C 286.5 33.2 286.1 33.2 287.5 34.2 C 287.5 34.1 287.8 34.1 288.2 34.3 C 287.2 33.7 286.4 33.4 286.0 32.8 C 288.3 34.2 282.0 29.3 285.9 31.6 C 286.0 31.8 285.6 31.7 286.3 32.2 C 288.5 33.6 287.4 32.5 286.5 32.0 C 288.0 32.8 289.4 33.9 288.4 32.9 C 291.6 35.1 289.5 33.9 290.5 34.7 C 295.8 38.7 301.2 44.1 303.9 50.6 C 304.3 50.7 305.3 54.2 305.4 55.4 C 306.1 57.1 306.4 59.1 306.1 59.7 C 306.4 60.0 306.0 61.9 306.3 62.1 C 306.3 61.3 306.4 60.8 306.4 61.6 C 306.3 64.3 305.3 68.2 304.9 69.8 C 304.3 70.7 303.7 72.3 303.2 73.6 C 303.0 73.7 303.4 72.7 303.0 73.4 C 303.0 73.7 301.8 76.2 301.3 76.7 C 301.8 76.0 302.0 75.0 301.3 76.1 C 301.4 76.2 300.5 77.3 300.9 77.2 C 299.8 78.6 299.2 79.6 298.1 80.7 C 298.9 79.7 299.3 79.0 299.3 78.7 C 298.7 79.6 298.3 80.4 297.5 80.9 C 297.9 81.0 296.6 82.2 295.3 83.7 C 294.8 83.9 294.4 84.1 293.2 85.2 C 292.8 85.9 295.3 83.7 293.9 85.0 C 293.9 84.9 292.5 85.9 293.0 85.9 C 291.2 87.2 290.4 88.1 288.7 89.0 C 290.7 87.7 289.1 88.5 288.5 88.8 C 288.1 89.1 287.5 89.6 287.5 89.6 C 287.6 89.7 288.5 89.0 288.7 89.0 C 287.3 89.9 287.1 90.5 286.5 90.6 C 287.1 90.2 287.1 90.0 286.4 90.5 C 286.4 90.9 281.9 93.5 283.3 92.4 C 283.4 92.5 285.1 91.4 285.2 91.2 C 284.6 91.4 282.2 93.1 282.6 92.6 C 284.0 91.6 284.0 91.9 285.7 90.7 C 285.8 90.4 286.7 89.7 287.2 89.2 C 284.7 91.0 284.2 91.6 283.7 91.6 C 282.5 92.4 283.4 92.2 281.3 93.4 C 278.3 95.0 280.6 93.4 279.8 93.8 C 277.2 95.4 278.1 95.2 279.4 94.8 C 277.3 96.0 276.6 96.5 273.8 97.8 C 273.9 97.6 274.2 97.3 275.2 96.8 C 275.3 96.8 277.6 95.8 277.3 95.7 C 277.0 95.5 275.1 96.4 272.0 97.8 C 272.9 97.8 272.9 97.6 269.7 99.0 C 270.4 99.1 268.1 99.7 268.2 99.9 C 268.4 99.9 269.5 99.4 270.6 98.9 C 270.6 99.1 270.2 99.4 269.2 99.9 C 268.4 100.1 268.0 100.5 265.9 101.2 C 265.7 101.1 267.1 100.4 267.3 100.2 C 266.2 100.7 266.0 100.9 264.9 101.4 C 263.9 101.5 263.8 101.2 263.8 100.9 C 265.0 100.3 267.0 99.4 265.4 100.0 C 270.2 97.9 265.3 100.4 267.1 99.7 C 269.0 98.5 268.1 99.4 271.1 98.0 C 271.9 97.5 272.2 97.3 272.5 97.1 C 272.3 97.2 270.5 97.7 272.4 96.8 C 272.9 96.8 274.0 96.4 275.5 95.6 C 275.4 95.5 272.4 97.0 275.3 95.4 C 276.8 94.7 275.7 95.7 277.6 94.6 C 277.6 94.5 278.1 94.2 278.2 94.1 C 275.4 95.7 278.6 93.6 276.7 94.5 C 279.1 93.1 277.3 94.6 278.8 93.7 C 278.8 93.5 281.4 92.3 281.3 92.0 C 280.5 92.7 278.5 93.7 278.7 93.4 C 280.4 92.4 287.6 87.6 285.0 89.8 C 286.0 88.9 290.4 85.2 290.2 85.6 C 288.9 86.6 289.0 86.7 288.9 87.0 C 291.3 84.8 292.7 83.9 294.7 81.4 C 292.2 83.8 293.8 81.7 292.1 83.0 C 291.4 83.6 290.4 84.4 290.3 84.7 C 290.8 84.6 291.8 83.5 292.2 83.0 C 292.3 83.2 292.5 83.4 292.6 83.5 C 289.5 86.0 287.7 87.6 285.9 88.7 C 287.4 87.6 282.9 90.3 284.6 89.1 C 285.4 88.7 287.2 87.5 288.6 86.5 C 288.5 86.5 288.5 86.4 288.4 86.4 C 289.0 85.9 289.9 85.2 289.9 85.1 C 288.1 86.6 286.9 87.2 285.7 88.3 C 285.6 88.2 285.6 88.2 285.6 88.1 C 285.2 88.4 284.9 88.6 285.0 88.5 C 285.6 88.0 286.6 87.4 286.6 87.2 C 285.2 88.2 284.8 88.2 283.0 89.3 C 283.3 88.8 280.8 90.0 283.2 88.3 C 283.8 88.2 285.1 87.4 285.2 87.6 C 285.9 87.1 287.2 86.1 287.8 85.5 C 287.1 85.9 285.7 86.8 285.4 86.7 C 286.5 85.9 287.3 85.2 288.0 84.8 C 286.0 86.6 289.3 84.1 290.3 83.6 C 290.0 83.7 289.5 84.1 289.1 84.2 C 290.7 82.9 291.5 82.4 291.3 82.1 C 293.0 80.4 292.8 81.0 293.9 79.8 C 292.9 80.4 294.5 79.0 293.5 79.5 C 295.3 77.6 294.3 79.2 294.9 78.5 C 295.4 77.9 295.3 77.8 295.8 77.2 C 296.6 76.5 297.9 74.7 298.3 74.7 C 298.8 73.9 298.9 73.9 299.4 73.1 C 299.4 72.8 299.5 72.6 299.6 72.2 C 299.7 72.1 300.1 71.6 300.1 71.4 C 298.7 73.3 299.1 72.7 297.4 74.7 C 297.4 74.9 297.2 75.2 297.6 74.8 C 296.6 76.4 296.1 76.7 295.0 78.0 C 294.7 78.0 294.3 78.0 293.3 79.3 C 293.4 78.9 293.1 79.2 293.5 78.7 C 294.1 78.1 294.9 77.4 295.7 76.5 C 295.7 76.4 295.5 76.5 295.8 76.0 C 296.3 75.7 296.8 75.0 297.1 74.4 C 297.2 74.5 297.1 74.7 297.0 75.0 C 298.5 73.1 297.7 73.6 298.7 72.2 C 298.4 72.3 297.9 73.3 298.2 72.4 C 298.9 71.0 299.2 70.8 299.5 70.1 C 299.5 70.0 299.4 70.0 299.6 69.7 C 300.2 68.8 299.1 72.0 300.1 70.4 C 300.0 70.2 300.7 68.6 301.0 68.4 C 300.9 69.0 300.3 69.9 300.4 70.0 C 301.8 67.0 301.0 70.1 302.0 66.9 C 301.9 66.9 301.8 66.9 301.7 66.8 C 301.4 68.1 301.1 68.1 300.9 67.9 C 300.6 69.0 300.1 69.3 299.8 70.3 C 299.6 69.7 300.2 69.4 300.7 68.3 C 300.4 68.2 300.0 69.2 299.8 69.3 C 301.0 66.9 300.8 66.3 301.5 63.9 C 301.1 64.4 301.5 62.6 301.3 62.7 C 301.2 64.8 300.6 63.8 300.5 64.2 C 300.3 65.5 300.8 65.0 300.8 65.8 C 300.5 66.1 300.4 65.9 300.1 65.6 C 300.5 64.5 300.4 64.6 300.4 63.7 C 300.7 63.0 301.2 62.4 301.2 63.5 C 301.2 63.2 301.1 61.7 301.3 61.6 C 301.3 63.0 301.5 61.4 301.5 62.3 C 301.7 61.1 301.3 59.1 301.3 57.6 C 301.1 57.8 301.0 57.3 300.9 57.3 C 301.4 58.7 300.9 59.0 301.0 60.4 C 300.9 59.8 300.8 60.2 300.7 60.4 C 300.8 59.1 300.5 58.4 300.5 57.4 C 300.4 57.4 300.3 57.4 300.2 57.5 C 300.1 55.8 300.1 56.0 299.4 54.9 C 299.4 54.3 300.0 54.9 300.3 55.0 C 300.0 54.4 299.1 52.2 299.4 53.5 C 298.9 52.2 299.3 52.4 298.6 51.1 C 298.4 51.2 299.0 52.4 298.5 52.1 C 297.8 50.9 298.5 51.4 297.7 50.5 C 297.9 50.4 298.1 50.2 297.4 49.2 C 297.7 50.1 297.2 49.1 296.9 48.9 C 297.2 49.4 297.4 49.9 297.5 50.2 C 296.4 48.2 296.1 47.8 294.8 46.3 C 295.4 46.7 294.8 45.8 295.8 46.8 C 294.8 45.9 294.0 44.5 293.4 44.0 C 293.9 44.7 294.8 45.7 295.0 46.2 C 292.3 43.1 290.4 41.7 287.3 38.8 C 287.9 39.3 288.6 39.9 288.8 39.9 C 288.4 39.6 287.8 39.1 287.8 39.1 C 289.0 40.0 290.0 40.9 290.6 41.3 C 291.5 42.3 290.0 41.0 290.9 41.9 C 291.2 41.9 292.7 43.7 292.3 42.8 C 290.7 41.5 289.2 40.0 288.7 39.0 C 286.7 38.0 288.4 39.3 286.2 38.2 C 286.3 38.1 285.9 37.7 285.3 37.3 C 285.7 38.0 283.3 36.1 283.1 35.9 C 284.1 36.4 287.7 38.8 286.1 37.2 C 286.5 38.3 281.9 34.2 282.7 35.3 C 280.2 33.7 281.3 34.0 279.7 33.4 C 279.7 33.3 279.9 33.3 279.2 32.8 C 278.5 32.4 278.2 32.3 277.8 32.2 C 281.6 34.5 280.3 34.1 282.5 35.6 C 282.1 35.4 281.7 35.1 281.8 35.3 C 281.8 35.3 281.7 35.3 281.2 35.0 C 281.2 34.6 279.3 33.9 278.9 33.4 C 279.6 33.8 280.3 34.2 280.2 34.0 C 277.1 32.2 277.9 32.2 273.2 29.7 C 274.6 30.5 272.7 29.6 271.0 28.8 C 268.6 27.6 269.7 27.7 266.6 26.4 C 266.6 26.7 265.8 26.3 264.5 25.7 C 263.8 25.4 263.0 25.1 262.1 24.7 C 261.2 24.3 259.8 23.8 259.1 23.7 C 259.5 23.5 256.4 22.2 255.6 22.2 C 255.6 22.1 254.4 21.7 253.6 21.4 C 253.4 21.2 254.4 21.5 253.7 21.2 C 252.9 21.0 253.5 21.5 252.5 21.2 C 251.4 20.7 251.7 20.5 250.0 20.0 C 249.9 20.2 250.8 20.5 249.9 20.3 C 248.4 19.8 247.1 19.3 248.2 20.0 C 246.0 19.3 247.2 19.2 245.1 18.6 C 245.7 18.9 245.6 19.0 244.5 18.7 C 243.7 18.3 243.7 18.2 243.5 18.0 C 242.8 18.0 243.0 18.1 241.2 17.5 C 241.2 17.6 241.2 17.7 241.1 17.8 C 240.3 17.6 239.1 17.3 238.9 17.1 C 240.4 17.6 240.0 17.3 240.7 17.4 C 239.1 16.9 236.2 15.9 238.4 16.8 C 236.2 16.3 237.4 16.3 235.6 15.9 C 236.6 16.4 235.7 15.9 233.9 15.6 C 234.0 15.9 232.7 15.3 231.5 15.1 C 231.7 15.3 231.4 15.4 230.3 15.1 C 230.4 15.0 229.7 14.8 228.6 14.6 C 228.6 14.7 231.0 15.4 228.5 14.8 C 227.4 14.5 227.5 14.2 225.6 13.8 C 225.3 13.5 227.3 14.0 226.9 13.7 C 225.4 13.6 225.0 13.3 222.7 12.8 C 223.5 13.4 218.2 12.5 220.8 13.3 C 220.0 13.1 218.9 13.2 218.3 12.9 C 219.2 13.0 217.7 12.5 217.8 12.5 C 216.7 12.3 214.2 11.8 214.2 11.9 C 216.5 12.2 216.5 12.5 217.1 12.8 C 213.7 12.3 210.7 11.7 211.0 11.5 C 211.0 11.6 210.5 11.5 210.4 11.6 C 211.6 11.7 212.3 12.2 210.9 12.0 C 211.3 11.8 210.3 11.6 209.2 11.4 C 209.1 11.6 204.6 10.6 205.4 11.1 C 207.2 11.1 208.6 11.7 207.2 11.7 C 206.1 11.3 203.6 10.8 204.2 10.7 C 203.5 10.7 202.9 10.7 202.3 10.7 C 201.7 10.8 203.1 11.0 202.8 11.1 C 201.9 11.0 200.5 10.9 200.3 10.7 C 202.8 11.0 199.0 10.4 201.6 10.6 C 200.0 10.4 199.7 10.2 198.4 10.0 C 198.4 10.1 197.9 10.1 197.8 10.1 C 198.9 10.1 200.0 10.4 199.7 10.6 C 197.4 10.4 197.8 10.1 195.9 9.9 C 195.3 10.0 192.7 10.1 191.4 9.8 C 193.9 10.0 191.2 9.6 192.7 9.7 C 195.0 10.0 195.6 9.9 196.5 9.7 C 195.6 9.5 193.6 9.2 193.3 9.5 C 194.6 9.6 194.6 9.5 195.3 9.5 C 195.2 9.7 194.8 9.7 194.0 9.7 C 192.9 9.4 190.5 9.4 192.1 9.2 C 190.5 9.2 188.7 8.8 187.0 8.8 C 188.8 9.0 190.2 9.2 190.8 9.5 C 189.2 9.4 187.6 9.0 187.6 9.2 C 187.7 9.4 190.2 9.6 190.7 9.8 C 188.7 9.8 185.7 8.9 188.1 9.6 C 187.0 9.5 185.4 9.4 185.0 9.2 C 186.3 9.3 184.9 8.8 184.3 8.7 C 183.1 8.7 182.1 8.6 181.7 8.7 C 183.5 8.7 184.9 9.2 183.6 9.1 C 183.3 8.9 182.9 9.1 182.4 9.1 C 182.2 8.9 180.1 8.9 179.8 8.7 C 179.9 8.9 180.8 9.0 181.0 9.1 C 179.8 9.1 178.0 9.3 177.1 8.9 C 177.9 8.9 179.0 9.0 179.1 8.9 C 175.7 8.4 174.6 8.0 170.6 7.7 C 171.1 7.7 171.4 7.7 171.3 7.6 C 168.7 7.4 167.0 7.3 167.4 7.1 C 165.8 7.1 164.9 7.2 164.1 7.3 C 165.7 7.5 166.3 7.3 167.3 7.5 C 166.7 7.5 168.6 8.0 169.3 8.2 C 172.1 8.1 172.3 8.5 175.2 8.5 C 174.3 8.7 177.3 8.6 176.4 8.9 C 173.8 8.3 171.2 8.5 167.3 8.2 C 167.8 8.0 168.3 7.9 166.7 7.7 C 164.2 7.5 165.4 7.9 163.4 7.8 C 162.5 7.6 163.8 7.5 162.7 7.5 C 162.0 7.5 160.1 7.5 159.4 7.2 C 162.2 7.3 158.9 7.0 160.7 6.9 C 159.8 6.9 159.3 6.9 158.7 6.8 C 161.4 7.1 156.1 7.2 158.1 7.4 C 154.4 7.5 157.8 6.8 154.8 6.8 C 156.3 7.0 154.4 7.1 152.2 7.1 C 151.6 6.8 149.3 6.8 147.5 6.7 C 148.5 6.9 149.2 6.9 147.5 7.0 C 148.4 7.1 150.0 7.1 150.8 7.0 C 150.8 7.1 151.1 7.2 151.5 7.2 C 149.3 7.3 150.2 7.4 149.5 7.5 C 148.9 7.4 147.3 7.4 146.9 7.3 C 146.9 7.4 146.3 7.4 146.3 7.5 C 149.0 7.4 145.8 7.8 147.6 7.8 C 148.8 7.8 148.0 7.6 149.5 7.6 C 151.0 7.9 148.3 7.9 147.6 8.1 C 148.8 8.3 150.4 8.0 150.8 8.3 C 149.2 8.6 146.5 8.4 144.3 8.4 C 144.4 8.7 140.6 8.4 140.3 8.8 C 140.0 8.7 139.6 8.7 139.1 8.6 C 138.4 8.9 137.7 8.6 137.1 8.6 C 137.0 8.8 137.2 8.9 137.7 8.9 C 135.0 8.9 134.4 8.9 131.2 9.3 C 130.7 9.1 130.1 9.0 129.9 8.9 C 130.6 8.8 131.3 8.7 131.8 8.6 C 127.5 8.8 130.3 9.3 127.3 9.1 C 127.4 9.2 129.5 9.4 127.9 9.6 C 125.2 9.4 121.4 10.0 121.4 9.3 C 119.0 9.3 117.5 9.9 116.3 9.7 C 115.6 9.8 115.3 9.9 115.0 10.0 C 115.8 10.1 116.7 10.1 117.6 10.2 C 119.0 9.9 119.7 10.1 118.3 9.9 C 120.4 9.6 121.0 9.8 122.1 9.8 C 119.2 10.2 116.5 10.2 116.4 10.6 C 115.4 10.6 114.6 10.5 113.8 10.4 C 113.5 10.6 110.2 11.1 109.9 10.8 C 112.2 10.6 114.4 10.1 112.4 10.1 C 107.0 10.9 103.9 10.9 99.3 11.9 C 99.1 11.8 99.5 11.5 98.6 11.6 C 98.6 11.8 98.5 11.9 98.0 12.1 C 96.5 12.3 95.7 12.3 93.7 12.7 C 93.8 12.4 93.5 12.3 92.4 12.4 C 91.8 12.8 90.0 13.6 88.8 13.7 C 90.0 13.5 88.4 13.5 87.6 13.6 C 88.4 13.8 82.2 14.4 84.0 14.4 C 81.6 14.9 80.5 15.0 80.5 14.9 C 79.6 15.1 79.0 15.4 78.2 15.6 C 77.6 15.4 73.5 16.6 72.9 16.6 C 74.4 16.4 74.5 15.9 73.4 16.2 C 72.7 16.6 69.1 17.7 68.5 17.8 C 68.6 17.7 68.9 17.4 70.6 16.9 C 67.6 17.6 67.7 18.0 66.8 18.5 C 66.8 18.1 65.6 18.7 65.2 18.9 C 64.2 19.0 65.2 18.8 65.1 18.6 C 64.0 18.9 63.6 18.8 62.3 19.3 C 62.8 19.4 61.2 19.7 60.7 19.8 C 60.5 20.1 59.8 20.4 58.7 20.8 C 60.1 19.9 51.9 22.6 53.9 22.2 C 52.4 23.0 52.2 22.5 50.3 23.3 C 49.9 23.6 48.8 23.9 49.9 23.7 C 49.1 24.0 48.3 24.3 47.9 24.3 C 47.5 24.4 47.1 24.5 45.6 25.2 C 47.0 24.9 42.5 26.4 43.4 26.5 C 41.9 26.6 39.7 28.2 37.2 29.0 C 37.3 29.1 36.7 29.4 36.5 29.5 C 36.3 29.8 39.4 28.4 37.4 29.4 C 34.9 30.4 36.2 29.7 35.8 29.7 C 29.4 33.1 23.0 37.2 18.7 40.9 C 19.3 40.5 19.3 40.6 18.4 41.4 C 16.9 42.2 13.0 46.8 12.6 47.6 C 12.1 47.8 10.9 50.3 10.5 50.7 C 10.8 50.2 11.1 49.2 10.5 50.2 C 10.4 50.9 9.8 51.6 9.6 52.6 C 9.1 53.0 8.3 55.9 8.3 54.5 C 8.1 55.0 8.0 55.3 7.8 55.6 C 8.1 55.7 7.9 56.3 8.3 55.3 C 7.3 57.8 7.6 58.5 7.3 60.4 C 7.4 60.8 7.6 59.3 7.6 60.4 C 7.5 60.4 7.5 60.4 7.4 60.4 C 7.4 60.9 7.5 61.0 7.4 61.2 C 7.3 61.1 7.3 60.5 7.0 60.4 C 7.1 61.4 6.8 62.1 7.0 62.4 C 7.0 61.0 7.5 61.9 7.3 62.8 C 7.1 62.0 7.7 65.9 8.2 67.1 C 8.1 67.8 7.8 65.7 7.7 65.9 C 8.3 68.2 8.2 68.1 8.6 68.2 C 9.0 69.5 9.0 70.0 9.9 71.4 C 10.3 72.3 9.5 71.0 9.9 71.9 C 10.3 72.4 10.5 72.6 11.1 73.4 C 11.9 75.8 16.9 80.2 19.2 83.2 C 18.2 82.1 19.7 83.2 21.3 84.5 C 21.3 84.6 21.1 84.6 21.6 85.0 C 21.7 84.8 22.2 85.2 23.3 86.0 C 23.4 86.2 23.1 86.1 23.7 86.6 C 24.4 86.7 25.7 87.9 26.7 88.4 C 26.9 88.8 24.5 87.1 24.2 87.1 C 27.0 89.2 27.7 89.3 30.1 90.8 C 28.8 90.1 30.9 91.6 31.3 91.9 C 30.8 91.3 32.9 92.4 31.5 91.4 C 32.5 91.9 34.0 92.7 34.2 92.9 C 33.6 92.6 32.8 92.2 32.8 92.2 C 34.0 92.9 35.5 94.0 36.3 94.1 C 35.4 93.6 34.9 93.2 34.9 93.1 C 35.3 93.2 35.8 93.3 36.5 93.6 C 34.2 93.2 40.4 95.8 40.8 95.8 C 41.2 96.5 41.6 96.6 41.3 96.7 C 44.0 97.9 43.8 97.5 45.5 98.1 C 44.9 98.2 44.2 98.2 46.9 99.4 C 46.4 98.8 49.7 100.2 48.8 99.4 C 50.6 100.1 51.0 100.2 51.8 100.5 C 52.5 100.8 53.0 101.0 53.6 101.3 C 54.6 101.7 55.5 102.1 56.8 102.5 C 56.9 102.5 56.1 102.2 56.9 102.4 C 58.1 102.9 59.1 103.3 59.9 103.7 C 60.7 103.7 59.7 103.4 60.5 103.6 C 62.5 104.4 61.9 104.5 63.6 105.2 C 65.9 105.7 65.0 105.6 66.5 105.7 C 65.9 105.5 65.1 105.2 66.0 105.4 C 67.3 106.0 67.7 106.4 68.0 106.6 C 67.1 106.3 66.3 106.1 65.8 105.9 C 65.5 105.9 64.1 105.5 65.2 106.0 C 63.8 105.6 62.3 105.1 60.3 104.5 C 60.9 104.9 58.5 104.0 59.1 104.4 C 61.3 105.1 61.8 105.4 64.0 106.0 C 63.6 105.6 65.8 106.4 66.2 106.6 C 66.3 106.4 67.8 106.9 67.5 106.6 C 69.2 107.0 69.1 107.1 70.8 107.5 C 70.9 107.7 70.6 107.7 71.3 107.9 C 72.0 107.8 72.5 108.3 73.0 108.4 C 72.7 108.1 75.2 108.8 75.4 108.7 C 74.7 108.5 73.8 108.3 73.7 108.2 C 76.5 108.9 74.3 108.1 73.8 107.8 C 73.9 107.9 72.8 108.0 72.6 107.7 C 75.0 108.1 69.4 106.5 71.5 107.1 C 73.3 107.6 73.2 107.4 75.0 107.9 C 77.0 108.8 74.4 108.5 76.5 109.3 C 77.9 109.4 78.8 109.7 78.9 109.5 C 79.2 109.6 79.5 109.8 80.0 110.0 C 80.6 109.9 78.4 109.3 80.1 109.7 C 81.0 109.9 79.9 110.0 81.8 110.4 C 82.7 110.3 79.6 109.6 81.3 109.9 C 83.1 110.7 80.9 109.7 83.1 110.1 C 83.3 110.2 83.6 110.3 84.3 110.5 C 84.4 110.6 84.1 110.7 84.8 110.9 C 85.3 110.6 85.6 111.2 87.2 111.4 C 88.2 111.3 85.6 111.0 86.1 110.8 C 87.9 111.5 89.0 111.3 89.7 111.5 C 88.2 111.4 92.0 112.1 92.1 112.3 C 91.7 112.0 92.5 112.3 94.7 112.4 C 94.7 112.8 97.2 112.9 97.7 113.3 C 98.0 113.3 98.6 113.3 99.0 113.2 C 98.2 113.1 97.5 112.9 97.8 112.8 C 98.4 112.9 99.0 113.0 99.6 113.1 C 100.7 113.5 97.9 113.6 102.1 114.1 C 101.6 113.7 103.4 114.0 104.6 114.0 C 104.5 113.7 102.9 113.8 102.8 113.6 C 104.2 113.6 105.6 114.0 106.5 114.2 C 109.0 114.4 111.9 114.9 115.5 115.2 C 116.3 115.5 112.5 115.1 114.8 115.5 C 115.8 115.5 115.3 115.3 116.7 115.5 C 115.4 116.4 126.5 116.5 127.1 117.0 C 127.6 116.8 130.7 117.1 130.4 116.8 C 128.3 116.9 126.9 116.5 125.8 116.3 C 123.9 116.3 127.6 116.6 125.8 116.6 C 125.6 116.4 123.0 116.3 123.2 116.1 C 126.0 116.4 121.8 115.8 123.9 115.7 C 126.5 116.0 131.7 116.0 130.5 116.3 C 130.5 116.2 129.3 116.1 129.2 116.2 C 132.1 116.5 133.9 116.4 135.1 116.3 C 136.4 116.5 141.7 116.4 140.3 116.5 C 140.8 116.7 137.2 116.3 137.7 116.5 C 143.2 116.9 143.3 116.7 146.9 116.9 C 145.8 116.6 150.7 116.5 150.3 116.6 C 150.3 116.9 151.4 117.1 153.6 116.8 C 153.2 117.1 154.4 117.2 155.6 117.2 C 156.1 117.0 154.6 117.0 154.9 116.8 C 156.0 116.8 157.1 116.8 158.2 116.8 C 158.3 116.9 158.1 117.0 158.9 117.0 C 160.1 116.9 164.5 116.6 164.1 116.7 C 162.3 117.1 167.2 116.9 164.2 117.2 C 165.0 117.2 165.1 117.3 166.2 117.2 C 166.2 117.1 166.2 117.0 166.2 116.9 C 168.6 116.8 167.4 117.2 169.5 117.2 C 169.6 117.1 170.5 117.0 170.8 116.9 C 170.0 116.9 169.9 117.0 168.8 117.1 C 170.0 116.6 166.6 116.9 166.8 116.6 C 169.1 116.5 169.1 116.8 170.1 116.8 C 173.0 116.6 171.6 116.7 174.7 116.6 C 174.7 116.5 173.9 116.6 174.1 116.4 C 177.8 116.3 177.4 116.8 180.0 116.5 C 179.4 116.5 177.1 116.9 178.7 116.8 C 180.4 116.6 180.9 116.3 183.2 116.1 C 183.3 116.2 183.2 116.3 183.9 116.3 C 184.9 116.1 184.9 115.9 185.8 115.7 C 186.0 115.8 187.3 115.7 187.8 115.6 C 188.6 115.7 187.5 115.9 188.5 115.8 C 190.4 115.7 191.3 115.0 192.9 114.9 C 192.9 115.3 194.6 115.0 196.2 114.8 C 196.5 115.0 199.8 114.6 202.0 114.4 C 201.4 114.2 203.7 114.0 203.1 113.8 C 202.1 114.0 201.5 114.0 201.3 113.9 C 203.7 113.6 204.5 114.0 206.3 113.3 C 207.3 113.4 208.5 113.4 210.1 113.2 C 210.3 113.0 207.1 113.4 208.8 113.0 C 209.0 113.1 209.5 113.0 210.1 112.9 C 209.9 113.2 211.2 113.0 212.0 113.0 C 213.4 112.6 216.5 112.5 215.1 112.4 C 217.3 112.0 215.9 112.6 217.7 112.3 C 216.7 112.2 219.7 111.6 218.2 111.7 C 220.5 111.2 220.4 111.7 219.4 112.0 C 221.6 111.6 222.0 111.3 223.1 111.3 C 222.1 111.2 225.3 110.4 223.6 110.9 C 223.2 111.3 225.6 110.6 226.1 110.7 C 225.3 110.6 226.4 110.4 224.9 110.6 C 226.4 110.2 228.7 109.7 230.2 109.6 C 232.1 109.0 233.9 108.6 233.1 109.0 C 235.0 108.5 234.3 108.7 236.1 108.3 C 236.1 108.2 235.6 108.3 235.4 108.3 C 237.9 107.7 237.4 108.0 240.6 107.1 C 240.3 107.5 242.4 107.0 243.0 107.0 C 241.7 107.3 240.6 107.5 239.6 107.8 C 239.4 107.9 240.4 107.7 239.6 108.0 C 239.5 107.9 239.0 108.0 238.5 108.1 C 240.6 107.8 235.9 109.2 237.3 108.6 C 237.4 108.6 237.5 108.6 237.9 108.5 C 237.5 108.4 237.5 108.5 237.8 108.1 C 236.8 108.5 235.9 108.4 235.5 108.7 C 235.6 108.8 236.6 108.5 236.7 108.6 C 234.1 109.4 235.9 108.5 233.8 109.0 C 233.4 109.4 234.5 109.2 235.1 109.2 C 233.1 109.7 231.5 110.1 230.9 110.0 C 229.2 110.5 231.1 110.2 229.8 110.6 C 229.2 110.6 229.2 110.4 228.0 110.7 C 226.7 111.1 228.8 110.7 227.4 111.0 C 226.0 111.2 228.4 110.5 226.1 110.9 C 226.7 111.2 224.1 111.2 224.4 111.4 C 225.6 111.1 225.7 111.5 225.0 111.4 C 222.0 111.6 220.1 112.9 217.1 112.9 C 217.1 112.9 216.6 113.0 216.5 113.1 C 218.7 112.9 222.0 112.3 222.7 112.6 C 224.4 112.1 224.2 112.0 224.4 111.8 C 226.5 111.7 226.4 111.8 225.2 112.4 C 221.8 113.2 220.2 113.2 217.9 113.5 C 216.6 113.9 218.0 113.6 218.5 113.7 C 211.2 114.7 216.9 114.4 214.2 114.8 C 214.3 114.7 213.7 114.7 213.0 114.8 C 213.0 114.9 211.9 115.0 211.7 115.1 C 212.2 115.1 212.5 115.1 212.4 115.2 C 210.5 115.6 211.2 115.2 211.1 115.1 C 212.5 114.9 213.4 114.7 213.6 114.5 C 211.8 114.9 210.3 114.9 209.2 115.4 C 207.4 115.3 210.0 114.5 209.0 114.4 C 209.3 114.2 208.0 115.2 206.6 115.5 C 204.3 115.8 204.3 116.0 202.2 116.3 C 201.6 116.1 204.3 115.9 204.1 115.7 C 203.5 115.8 203.3 115.8 202.8 115.8 C 201.3 116.1 201.4 116.3 200.3 116.5 C 199.6 116.3 199.2 116.5 198.4 116.7 C 196.9 116.7 199.2 116.4 197.7 116.5 C 196.1 116.6 195.0 117.1 194.5 117.1 C 194.3 117.0 194.6 116.9 193.8 116.9 C 192.0 117.3 191.6 117.4 193.9 117.3 C 191.8 117.4 190.9 117.6 191.3 117.8 C 194.3 117.6 195.1 117.4 196.5 117.6 C 197.0 117.3 197.9 117.4 199.1 117.3 C 198.3 117.0 200.4 117.2 201.0 116.9 C 200.2 116.9 199.5 117.0 199.0 116.9 C 202.2 116.6 202.2 116.6 204.7 115.9 C 204.7 116.0 205.1 116.0 205.4 116.1 C 204.6 116.3 202.3 116.5 202.2 116.7 C 204.1 116.8 204.7 116.2 206.7 116.3 C 207.6 116.0 205.0 116.2 206.7 116.0 C 207.5 116.0 208.6 116.0 209.9 115.9 C 211.2 115.6 211.9 115.4 213.0 115.2 C 213.1 115.2 213.3 115.3 214.3 115.1 C 214.2 115.0 213.2 115.1 214.2 114.9 C 217.6 114.7 219.8 114.5 223.0 113.7 C 221.8 113.9 219.2 114.1 220.5 113.9 C 221.9 113.8 223.8 113.1 225.3 113.0 C 225.8 113.0 223.6 113.3 224.2 113.6 C 225.6 113.3 226.5 113.1 227.2 113.0 C 227.2 112.9 228.8 112.6 228.4 112.5 C 227.2 112.7 226.9 113.1 226.6 113.0 C 227.4 112.1 231.0 112.3 233.2 111.8 C 234.6 111.4 232.1 111.8 233.7 111.4 C 234.7 111.0 235.4 111.4 233.8 111.9 C 232.7 112.0 232.3 112.5 232.0 112.2 C 231.6 112.4 230.9 112.5 230.9 112.6 C 231.7 112.4 231.6 112.6 232.1 112.6 C 230.9 112.8 230.9 113.3 229.7 113.2 C 230.4 113.1 230.7 113.0 230.9 112.8 C 227.8 113.6 226.7 113.6 224.8 113.9 C 225.9 113.8 224.8 114.0 224.9 114.2 C 226.3 113.8 229.0 113.4 227.4 113.8 C 226.2 113.8 225.5 114.7 224.4 114.6 C 225.2 114.4 225.0 114.3 225.5 114.1 C 224.3 114.4 224.3 114.2 223.0 114.4 C 219.1 115.5 215.9 115.4 209.4 116.9 C 207.1 117.3 211.5 116.5 211.3 116.3 C 210.6 116.4 210.5 116.4 210.0 116.4 C 210.0 116.7 208.8 116.6 208.1 117.0 C 208.2 116.7 205.1 117.4 203.6 117.3 C 203.5 117.4 203.8 117.5 203.0 117.7 C 198.3 117.9 189.7 119.2 186.1 119.3 C 186.2 119.4 184.6 119.6 184.2 119.7 C 181.9 119.8 182.9 119.6 179.6 120.0 C 177.9 120.2 179.9 119.9 180.2 119.8 C 175.2 120.2 170.7 120.2 167.6 120.5 C 165.9 120.7 167.6 120.4 164.2 120.4 C 164.2 120.8 159.0 120.3 158.2 120.7 C 156.2 120.8 152.6 120.3 154.2 120.7 C 151.5 120.7 153.3 120.4 152.2 120.4 C 150.3 120.4 152.8 121.0 150.9 121.0 C 151.1 120.7 149.4 120.8 148.2 120.5 C 149.7 120.6 150.7 120.6 150.9 120.4 C 149.6 120.6 149.6 120.4 147.6 120.4 C 146.0 120.5 141.5 120.6 140.2 120.2 C 140.1 120.3 140.5 120.4 140.9 120.4 C 139.6 120.4 138.0 120.1 138.2 120.4 C 135.2 120.3 133.9 120.0 132.2 120.1 C 130.9 120.2 132.7 119.9 128.9 119.7 C 128.8 119.9 122.1 119.4 120.4 119.0 C 120.3 119.4 119.9 119.0 119.1 118.9 C 118.9 119.0 119.1 119.2 118.4 119.1 C 118.2 119.0 117.7 119.0 117.1 119.0 C 117.6 118.6 114.7 118.8 114.5 118.6 C 115.1 118.6 115.1 118.4 114.5 118.3 C 114.3 118.6 111.6 117.9 111.9 118.1 C 112.5 118.3 114.3 118.4 113.8 118.6 C 111.3 118.4 112.3 118.2 110.6 118.0 C 110.7 118.1 111.7 118.3 110.6 118.2 C 108.8 118.0 110.5 118.2 109.3 117.8 C 108.4 117.8 106.7 117.7 106.1 117.7 C 106.2 117.7 105.7 117.5 105.5 117.4 C 102.2 116.9 94.7 116.1 91.7 115.2 C 91.4 115.2 90.7 115.2 90.9 115.4 C 89.1 114.9 89.2 115.0 87.3 114.5 C 87.3 114.6 87.3 114.8 87.2 114.9 C 84.8 114.5 87.1 114.5 85.5 114.2 C 85.2 114.7 84.5 113.8 83.1 113.5 C 82.9 113.6 82.1 113.5 82.3 113.7 C 80.0 113.2 80.2 112.9 78.2 112.6 C 78.7 112.7 78.9 113.6 78.6 113.7 C 78.3 113.6 77.7 113.3 76.8 113.1 C 77.9 113.1 77.6 112.1 74.7 111.7 C 76.2 112.0 76.8 112.2 76.4 112.4 C 74.3 111.9 73.6 111.5 71.8 111.1 C 71.4 111.2 72.7 111.6 72.2 111.8 C 71.7 111.7 71.5 111.7 71.6 111.8 C 69.7 111.2 69.7 111.1 67.5 110.6 C 67.6 110.5 68.0 110.6 68.7 110.9 C 68.7 110.7 68.7 110.5 70.0 110.8 C 70.1 111.0 69.3 111.0 71.1 111.4 C 71.1 111.3 71.1 111.1 71.2 111.0 C 69.9 110.7 66.9 109.7 66.6 109.7 C 67.2 110.0 68.2 110.3 67.6 110.4 C 65.4 109.8 64.9 109.3 63.2 108.7 C 60.1 107.9 54.9 106.1 55.4 106.7 C 53.7 106.0 54.3 106.2 52.8 105.6 C 53.1 106.0 51.0 105.1 51.1 105.4 C 53.0 106.0 52.4 105.8 54.3 106.4 C 54.2 106.5 53.8 106.5 53.1 106.3 C 53.0 106.2 52.3 105.9 51.0 105.5 C 51.2 105.6 52.3 106.2 50.9 105.8 C 50.8 105.7 50.5 105.5 49.9 105.3 C 50.0 105.2 50.0 105.1 50.1 104.9 C 50.8 105.1 51.7 105.4 52.2 105.5 C 51.7 105.3 51.6 105.2 51.2 105.0 C 50.8 105.0 48.8 104.1 48.5 104.2 C 49.4 104.5 49.9 104.8 49.0 104.5 C 48.9 104.5 47.1 103.7 46.2 103.5 C 49.2 104.8 48.0 104.3 48.9 104.9 C 46.8 104.2 46.6 103.8 42.7 102.3 C 42.7 102.1 42.8 102.0 43.8 102.3 C 41.5 100.8 36.0 98.8 34.3 97.9 C 35.5 98.5 36.9 98.9 35.2 98.0 C 35.2 98.1 33.9 97.4 33.6 97.4 C 32.8 97.5 34.2 98.5 35.5 99.4 C 34.1 98.7 33.7 98.6 32.4 98.0 C 32.1 97.6 33.6 98.0 32.0 97.1 C 31.5 97.2 29.0 95.5 28.4 95.5 C 29.4 96.1 30.1 96.6 29.0 96.0 C 29.3 95.9 27.0 94.8 27.1 94.6 C 28.8 95.5 29.4 95.6 30.6 96.2 C 29.2 95.5 31.7 96.7 29.4 95.3 C 28.2 94.8 27.5 94.8 25.2 93.3 C 24.3 92.7 25.3 93.0 24.1 92.3 C 24.3 92.7 21.8 91.1 23.4 91.9 C 22.6 91.4 22.2 91.0 21.8 90.7 C 22.8 91.6 17.3 88.0 18.0 88.8 C 18.2 88.5 18.1 88.1 17.9 87.8 C 16.7 87.2 15.7 86.2 13.5 84.0 C 13.3 84.3 13.1 83.7 12.1 82.8 C 11.9 82.7 12.6 83.6 12.0 83.0 C 11.0 81.8 11.0 81.8 10.9 81.5 C 10.2 80.7 9.7 80.1 9.5 79.7 C 9.3 79.7 9.5 80.0 9.6 80.3 C 7.4 77.1 6.1 75.6 4.8 72.9 C 5.3 74.1 5.8 74.1 5.3 73.2 C 5.0 72.7 4.7 72.2 4.5 71.9 C 4.6 72.7 4.5 72.3 4.0 71.0 C 3.4 69.8 3.8 71.6 3.4 70.6 C 3.2 69.5 3.5 70.1 3.4 69.5 C 3.2 69.1 3.1 68.5 2.9 68.1 C 3.1 69.0 2.7 68.0 2.4 67.2 C 2.8 67.7 2.7 67.3 2.3 65.6 C 2.4 65.4 2.7 66.3 2.6 65.6 C 2.5 65.2 2.0 63.9 2.2 62.6 C 2.2 63.0 2.3 63.2 2.3 63.1 C 2.1 61.8 2.4 60.8 2.6 59.7 C 2.3 60.8 2.2 60.2 2.0 60.7 C 2.2 59.5 2.1 58.1 2.6 57.2 C 2.2 58.9 3.0 57.3 3.2 56.3 C 3.0 56.0 2.8 57.8 2.6 57.2 C 2.5 56.6 3.1 55.4 3.0 54.8 C 2.8 54.8 2.9 55.5 2.7 55.7 C 2.9 54.8 2.5 55.9 2.7 55.2 C 3.0 54.8 2.8 54.1 3.0 53.7 C 3.3 53.1 4.1 51.9 4.1 51.3 C 4.0 51.3 3.7 52.1 3.6 52.2 C 4.4 49.5 5.2 48.9 6.4 46.5 C 6.6 46.2 7.0 45.8 7.5 45.2 C 7.4 45.1 7.6 44.7 7.9 44.1 C 8.8 43.2 9.6 42.3 10.8 41.2 C 10.7 41.5 10.3 42.2 11.8 40.5 C 11.8 40.4 11.1 41.1 11.7 40.4 C 11.7 40.5 12.1 40.1 12.1 40.0 C 12.1 39.9 12.0 39.9 12.0 39.9 C 11.6 40.3 11.2 40.8 10.8 41.2 C 10.7 41.0 10.5 41.1 10.1 41.4 C 11.8 39.4 12.0 39.9 13.2 38.5 C 13.6 38.5 14.1 38.2 13.2 39.4 C 14.3 38.3 15.0 37.4 15.2 37.0 C 13.8 38.3 14.1 37.7 13.6 38.0 C 14.5 37.1 14.4 37.0 14.9 36.6 C 16.1 35.7 14.0 37.9 16.2 36.1 C 14.3 37.2 17.4 34.7 18.7 33.9 C 18.4 33.9 17.9 34.2 18.5 33.7 C 21.6 31.1 21.9 32.0 23.8 30.2 C 23.7 30.5 24.8 29.8 25.2 29.6 C 23.4 30.8 23.0 31.2 22.3 31.7 C 22.5 31.7 23.0 31.4 23.5 31.1 C 23.5 31.0 23.9 30.6 24.8 30.2 C 25.2 29.7 24.8 29.5 26.2 28.4 C 26.4 28.5 26.3 28.7 27.1 28.2 C 27.7 27.6 26.6 28.9 29.9 27.0 C 29.3 27.2 28.9 27.3 29.1 27.0 C 30.6 26.0 30.3 26.3 32.5 25.1 C 33.6 25.0 31.2 26.3 30.7 26.8 C 32.2 26.0 33.3 25.1 35.0 24.4 C 33.7 24.9 34.8 24.1 36.3 23.4 C 37.7 22.8 36.4 23.7 38.1 23.0 C 39.3 22.3 39.9 21.8 38.7 22.3 C 41.6 21.0 40.8 21.1 43.5 20.0 C 43.6 20.1 42.9 20.5 41.9 20.8 C 42.1 20.8 41.8 21.1 42.8 20.7 C 43.6 20.2 44.9 19.6 46.4 19.0 C 47.8 18.4 48.7 18.0 49.3 17.7 C 51.8 17.3 54.4 15.8 56.9 15.2 C 55.9 15.7 60.1 14.2 61.4 14.1 C 62.1 13.8 64.3 12.6 63.5 13.1 C 63.8 13.4 65.2 12.8 66.4 12.6 C 66.4 12.5 66.4 12.4 66.4 12.4 C 68.9 11.6 69.6 11.7 70.5 11.7 C 73.6 10.7 77.2 10.3 81.1 9.1 C 82.2 9.2 83.0 9.0 85.4 8.7 C 85.3 8.4 87.2 8.1 89.0 7.7 C 88.6 7.6 90.3 7.4 90.2 7.2 C 88.6 7.5 89.2 7.1 88.3 7.1 C 90.5 7.0 91.5 6.3 93.3 6.3 C 91.2 6.8 90.6 7.2 90.3 7.6 C 92.8 7.1 94.2 7.0 94.7 7.1 C 94.9 6.9 94.5 6.8 94.0 6.8 C 94.8 6.7 95.7 6.5 96.5 6.4 C 96.8 6.5 95.6 6.7 96.5 6.6 C 97.1 6.5 97.8 6.3 98.4 6.1 C 99.2 6.2 97.4 6.5 97.2 6.6 C 100.6 6.2 99.1 5.9 100.9 5.6 C 101.4 5.7 101.3 5.9 102.9 5.8 C 103.5 5.5 103.6 5.3 105.4 5.0 C 106.5 4.9 105.4 5.4 106.7 5.3 C 106.9 5.2 107.4 5.1 108.0 5.1 C 107.9 5.0 108.5 4.8 109.2 4.7 C 109.4 4.8 110.7 4.6 111.2 4.5 C 111.3 4.6 113.4 4.7 113.8 4.5 C 113.8 4.4 112.6 4.5 112.5 4.4 C 114.0 4.3 115.0 4.2 115.7 4.0 C 116.2 4.5 118.6 3.8 121.6 3.9 C 123.5 3.5 121.2 3.5 123.6 3.1 C 125.0 3.2 123.3 3.4 123.6 3.6 C 124.0 3.6 126.2 3.6 126.2 3.4 C 126.2 3.3 125.1 3.4 124.9 3.4 C 126.6 3.0 126.6 3.3 127.6 3.3 C 127.4 3.1 128.6 3.0 128.8 2.9 C 133.6 2.4 133.6 2.9 135.5 3.0 C 135.5 2.9 136.7 2.8 136.8 2.7 C 135.4 2.9 133.6 2.8 135.5 2.6 C 135.2 2.8 138.0 2.5 138.2 2.4 C 137.8 2.3 136.1 2.5 136.8 2.2 C 139.3 2.0 138.3 2.5 140.2 2.2 C 140.4 2.4 139.3 2.4 138.8 2.5 C 139.6 2.5 140.7 2.4 140.8 2.5 C 139.9 2.6 139.9 2.8 139.5 2.9 C 140.8 2.7 143.1 2.8 141.5 2.6 C 144.1 2.5 146.7 2.3 144.8 2.1 C 147.0 2.0 145.8 2.4 147.5 2.2 C 147.3 2.4 146.7 2.6 148.2 2.8 C 148.4 2.6 149.6 2.6 149.5 2.4 C 152.7 2.3 153.6 2.6 154.9 2.8 C 153.7 2.4 155.3 2.7 156.8 2.5 C 157.8 2.6 156.9 2.9 159.5 2.9 C 156.7 2.5 162.8 2.8 161.5 2.4 C 164.8 2.6 164.8 2.6 168.2 2.8 C 167.9 3.0 167.0 3.1 165.5 3.1 C 166.6 2.9 162.6 2.8 162.9 2.9 C 162.9 3.0 162.9 3.0 162.9 3.1 C 165.4 3.1 167.1 3.2 168.2 3.4 C 168.7 3.2 169.9 3.2 169.5 2.9 C 171.9 3.3 174.4 3.0 175.5 3.3 C 174.7 3.3 173.9 3.2 174.2 3.4 C 175.1 3.4 176.3 3.4 176.2 3.2 C 174.2 3.0 173.9 3.0 172.9 3.1 C 173.7 2.9 171.0 2.7 172.9 2.7 C 172.8 3.1 176.9 2.7 175.5 2.9 C 173.4 2.9 177.9 3.2 178.1 3.4 C 178.1 3.4 178.1 3.4 178.1 3.4 Z M 223.6 114.3 C 225.4 113.8 223.1 114.0 221.8 114.3 C 222.2 114.3 222.4 114.4 222.4 114.5 C 223.0 114.3 223.5 114.2 223.6 114.3 C 223.6 114.3 223.6 114.3 223.6 114.3 Z M 203.2 114.0 C 202.6 114.4 205.7 113.8 207.0 113.6 C 206.6 113.6 206.2 113.6 207.0 113.5 C 205.6 113.5 205.2 114.0 203.2 114.0 C 203.2 114.0 203.2 114.0 203.2 114.0 Z M 130.4 117.2 C 130.9 117.2 132.2 117.2 132.3 117.3 C 133.1 117.4 132.9 117.2 133.0 117.1 C 134.6 117.2 132.6 117.5 135.0 117.5 C 135.9 117.0 130.9 116.7 130.4 117.2 C 130.4 117.2 130.4 117.2 130.4 117.2 Z M 152.8 6.3 C 153.8 6.5 151.5 6.7 152.2 6.9 C 155.8 6.7 153.0 6.4 158.1 6.5 C 157.8 6.4 157.4 6.4 157.5 6.3 C 155.1 6.4 154.9 6.5 155.5 6.1 C 154.4 6.1 154.1 6.6 152.8 6.3 C 152.8 6.3 152.8 6.3 152.8 6.3 Z M 199.8 10.0 C 199.4 9.9 199.1 9.8 199.1 9.7 C 197.6 9.6 197.9 9.7 195.9 9.4 C 196.1 9.8 198.1 10.0 199.8 10.0 C 199.8 10.0 199.8 10.0 199.8 10.0 Z M 300.1 56.3 C 300.2 56.5 300.3 56.8 300.3 57.1 C 300.4 56.8 301.0 57.5 300.5 56.2 C 300.4 56.1 300.5 56.3 300.5 56.6 C 300.4 56.4 300.2 55.7 300.1 55.9 C 300.2 56.2 300.2 56.3 300.1 56.3 C 300.1 56.3 300.1 56.3 300.1 56.3 Z M 284.2 88.5 C 286.3 86.8 280.5 90.0 284.2 88.5 C 284.2 88.5 284.2 88.5 284.2 88.5 C 284.2 88.5 284.2 88.5 284.2 88.5 Z M 290.3 87.6 C 290.4 87.6 290.8 87.2 290.8 87.2 C 292.5 85.9 290.9 87.3 292.0 86.6 C 293.2 85.4 291.1 86.9 292.6 85.3 C 292.2 85.5 291.3 86.8 290.3 87.6 C 290.3 87.6 290.3 87.6 290.3 87.6 Z M 21.5 31.9 C 20.0 33.1 19.7 33.6 19.6 34.0 C 20.6 33.3 21.5 32.7 21.9 32.5 C 23.9 31.0 20.5 33.3 20.1 33.5 C 20.2 33.2 21.7 32.1 21.5 31.9 C 21.5 31.9 21.5 31.9 21.5 31.9 Z M 16.7 35.7 C 16.2 36.3 15.4 37.1 15.5 37.3 C 16.3 36.5 16.5 36.5 16.6 36.5 C 17.3 35.8 16.2 36.5 16.7 35.7 C 16.7 35.7 16.7 35.7 16.7 35.7 Z M 26.6 29.1 C 25.8 29.6 26.2 29.5 26.1 29.7 C 27.3 29.0 27.6 29.0 28.8 28.2 C 28.7 28.2 28.7 28.1 28.7 28.0 C 27.6 28.6 27.6 28.7 26.7 29.3 C 26.7 29.2 26.6 29.1 26.6 29.1 C 26.6 29.1 26.6 29.1 26.6 29.1 Z M 12.8 39.8 C 10.5 42.0 10.0 43.3 9.2 45.0 C 10.4 43.3 11.3 41.5 12.5 40.5 C 13.8 39.0 12.0 40.8 12.0 40.7 C 11.9 40.6 12.4 40.1 12.8 39.8 C 12.8 39.8 12.8 39.8 12.8 39.8 Z M 2.6 61.2 C 2.4 61.7 2.8 62.6 2.9 64.1 C 2.9 63.8 3.0 63.5 3.1 63.5 C 3.0 61.5 2.6 62.7 2.6 61.2 C 2.6 61.2 2.6 61.2 2.6 61.2 Z M 5.6 73.0 C 6.3 74.3 5.4 72.4 5.9 72.9 C 5.2 71.6 4.7 70.1 4.5 70.2 C 5.2 71.6 5.4 71.9 5.6 73.0 C 5.6 73.0 5.6 73.0 5.6 73.0 Z M 11.3 81.2 C 12.5 82.4 11.0 80.4 11.7 80.8 C 11.2 80.3 11.2 80.5 11.1 80.5 C 10.8 80.1 10.6 79.8 10.1 79.2 C 10.3 79.7 11.6 81.2 11.3 81.2 C 11.3 81.2 11.3 81.2 11.3 81.2 Z M 68.3 12.9 C 67.3 13.2 67.7 13.4 65.6 13.9 C 68.8 13.0 67.1 14.2 71.4 13.0 C 70.7 13.1 71.1 12.9 71.4 12.9 C 73.0 12.4 69.8 13.2 71.3 12.5 C 70.1 12.9 70.8 13.0 69.7 13.3 C 68.4 13.4 67.6 13.4 68.3 12.9 C 68.3 12.9 68.3 12.9 68.3 12.9 Z M 71.5 13.2 C 72.6 13.0 72.5 12.5 73.2 12.7 C 73.7 12.5 73.6 12.4 73.7 12.4 C 73.2 12.5 73.2 12.5 73.1 12.4 C 72.1 12.7 71.1 13.1 71.5 13.2 C 71.5 13.2 71.5 13.2 71.5 13.2 Z M 60.7 16.2 C 62.6 15.5 63.2 15.5 64.0 15.1 C 64.8 15.2 65.3 14.6 66.3 14.6 C 68.2 14.0 66.8 14.3 66.2 14.3 C 68.0 13.7 66.8 14.4 68.6 13.8 C 68.8 13.5 66.5 14.2 66.7 13.8 C 65.3 14.2 65.4 14.4 64.5 14.7 C 63.9 14.9 64.1 14.7 63.9 14.6 C 62.4 15.1 62.4 14.9 61.1 15.3 C 60.9 15.6 61.4 15.5 62.9 15.1 C 61.4 15.6 60.8 16.0 59.1 16.4 C 60.2 15.8 54.7 17.4 55.3 17.7 C 56.8 17.3 56.3 17.2 56.8 16.9 C 58.8 16.5 60.0 16.1 60.7 16.2 C 60.7 16.2 60.7 16.2 60.7 16.2 Z M 27.7 29.3 C 27.1 29.6 26.6 29.9 25.7 30.4 C 25.6 30.3 26.7 29.6 25.6 30.2 C 24.2 31.0 24.0 31.2 23.2 31.8 C 23.7 31.6 26.6 30.0 25.2 31.0 C 25.7 30.9 26.6 30.3 27.8 29.6 C 26.2 30.2 29.8 28.5 31.2 27.7 C 30.9 27.5 33.7 26.5 34.7 25.7 C 33.7 26.0 30.9 27.7 29.7 28.4 C 30.3 28.0 26.2 29.8 27.7 29.3 C 27.7 29.3 27.7 29.3 27.7 29.3 Z M 76.1 12.0 C 76.4 11.8 77.7 11.5 76.7 11.7 C 77.2 11.4 78.3 11.3 77.7 11.1 C 78.4 10.9 79.0 10.8 79.5 10.7 C 79.3 10.9 77.7 11.2 78.4 11.3 C 79.6 10.9 79.1 11.1 80.8 10.7 C 79.9 11.2 80.9 11.0 80.3 11.4 C 80.7 11.2 82.2 10.9 82.0 10.7 C 84.3 10.3 81.5 11.2 84.5 10.5 C 84.5 10.8 82.3 11.2 81.5 11.2 C 81.2 11.6 85.3 10.5 87.6 10.2 C 85.5 10.4 87.1 9.9 88.1 9.5 C 88.8 9.4 88.1 9.6 89.4 9.5 C 90.4 9.4 90.9 9.1 91.2 9.2 C 92.1 9.0 91.7 8.9 91.8 8.8 C 93.2 8.6 92.2 9.1 94.3 8.7 C 92.7 8.6 94.5 8.2 97.3 7.9 C 97.1 7.8 96.2 7.9 96.1 7.8 C 96.5 7.6 98.2 7.6 98.6 7.7 C 99.7 7.5 99.0 7.4 98.0 7.6 C 98.6 7.4 99.2 7.3 99.9 7.1 C 96.7 7.5 91.8 8.4 86.1 9.1 C 87.2 9.1 86.0 9.4 84.3 9.6 C 84.1 9.5 84.8 9.4 85.5 9.2 C 83.5 9.3 83.8 9.9 80.7 10.3 C 79.1 10.6 82.5 9.8 80.7 10.0 C 79.6 10.3 78.9 10.7 78.3 10.6 C 76.4 11.1 75.9 11.5 73.0 12.2 C 74.7 11.9 75.6 12.3 77.3 11.8 C 77.3 11.7 76.5 11.9 76.1 12.0 C 76.1 12.0 76.1 12.0 76.1 12.0 Z M 16.7 36.7 C 15.8 37.4 15.5 37.9 15.2 37.9 C 13.9 39.3 15.6 38.0 15.9 37.8 C 16.5 37.2 16.7 36.9 16.7 36.7 C 16.7 36.7 16.7 36.7 16.7 36.7 Z M 138.9 119.7 C 141.4 119.9 140.9 119.6 142.9 119.6 C 141.3 119.5 140.9 119.3 138.2 119.2 C 138.1 119.4 138.1 119.6 138.9 119.7 C 138.9 119.7 138.9 119.7 138.9 119.7 Z M 22.1 32.7 C 23.3 31.5 20.6 34.2 20.5 34.0 C 19.0 35.3 22.0 33.0 20.7 34.3 C 22.0 33.2 22.9 32.8 24.7 31.5 C 24.5 31.4 23.0 32.3 21.7 33.3 C 21.4 33.3 22.1 32.8 22.1 32.7 C 22.1 32.7 22.1 32.7 22.1 32.7 Z M 113.3 117.2 C 111.6 117.2 114.8 117.8 115.8 118.0 C 115.9 117.7 115.4 117.7 113.3 117.2 C 113.3 117.2 113.3 117.2 113.3 117.2 Z M 156.2 119.6 C 157.2 119.3 153.2 119.6 154.2 119.3 C 153.0 119.3 152.9 119.4 152.8 119.5 C 152.3 119.4 150.4 119.4 150.9 119.2 C 150.6 119.0 153.9 119.3 152.8 119.0 C 153.9 119.0 154.0 119.1 154.9 119.1 C 152.9 119.1 153.8 119.3 156.2 119.4 C 156.2 119.2 155.1 119.2 156.2 119.1 C 156.4 119.2 157.6 119.4 157.5 119.7 C 159.6 119.7 158.4 119.3 160.8 119.3 C 160.6 119.1 159.1 119.1 158.2 119.1 C 158.4 118.8 160.8 119.2 160.2 118.9 C 160.7 119.1 162.1 119.1 162.2 119.4 C 160.3 119.5 159.1 119.7 157.5 119.9 C 159.0 120.0 161.0 119.4 163.5 119.6 C 163.2 119.4 164.7 119.4 164.2 119.2 C 166.2 119.2 165.3 119.5 164.9 119.6 C 165.4 119.7 169.1 119.5 168.9 119.3 C 169.1 119.5 173.7 119.2 173.5 118.9 C 174.8 119.1 176.9 118.6 177.5 118.9 C 178.2 118.7 179.8 118.7 181.5 118.6 C 181.9 118.3 179.0 118.6 178.8 118.4 C 178.3 118.2 181.9 118.3 181.4 118.1 C 181.4 118.0 181.4 118.0 181.4 117.9 C 180.1 118.1 178.7 118.2 177.4 118.4 C 176.5 118.4 177.7 118.3 177.4 118.2 C 176.5 118.4 172.3 118.9 172.2 118.4 C 169.3 118.7 167.3 118.7 166.1 118.9 C 164.5 118.9 167.1 118.7 166.1 118.6 C 161.2 119.1 155.1 118.7 150.9 119.0 C 150.0 119.0 150.3 118.8 150.2 118.7 C 144.5 118.8 149.3 119.2 144.9 119.0 C 144.9 118.8 147.0 118.9 146.9 118.7 C 145.3 118.6 144.9 118.8 142.9 118.7 C 142.9 118.8 142.9 118.9 142.9 119.0 C 141.2 118.9 141.8 118.6 140.9 118.5 C 138.8 118.5 139.3 118.7 138.3 118.3 C 136.3 118.4 134.3 118.4 132.3 118.1 C 130.9 118.2 133.5 118.7 135.6 118.9 C 135.5 118.9 134.9 118.9 134.9 119.0 C 132.4 118.7 132.1 118.2 128.4 117.9 C 131.2 118.3 126.9 117.9 126.4 117.7 C 124.8 117.6 126.0 118.0 127.0 118.0 C 126.8 118.1 125.8 118.0 125.7 117.9 C 125.5 118.2 129.1 118.7 132.9 118.7 C 131.1 119.0 135.6 118.8 133.6 119.2 C 136.7 119.3 134.0 118.9 137.5 119.1 C 137.2 119.0 136.6 118.9 136.3 118.7 C 138.9 118.8 138.1 119.1 140.9 119.2 C 141.4 119.0 139.5 118.9 139.6 118.8 C 142.6 119.1 143.6 119.2 145.6 119.5 C 146.0 119.4 145.4 119.1 148.9 119.3 C 148.9 119.4 148.9 119.5 148.9 119.5 C 147.3 119.4 146.9 119.9 150.9 119.9 C 151.2 119.8 149.9 119.8 148.9 119.7 C 149.3 119.6 150.6 119.6 152.2 119.5 C 153.0 119.6 153.9 119.7 152.8 119.7 C 153.5 119.9 154.1 119.5 156.2 119.6 C 156.2 119.6 156.2 119.6 156.2 119.6 Z M 3.3 58.8 C 3.3 59.2 3.3 59.5 3.3 60.2 C 3.5 60.6 3.5 59.3 3.6 59.3 C 3.8 58.3 3.4 59.0 3.3 58.8 C 3.3 58.8 3.3 58.8 3.3 58.8 Z M 8.5 46.0 C 8.3 45.9 8.1 46.7 7.4 47.7 C 7.4 48.2 8.1 46.9 8.2 47.0 C 9.0 45.8 7.7 47.1 8.5 46.0 C 8.5 46.0 8.5 46.0 8.5 46.0 Z M 5.5 51.4 C 5.1 51.8 5.4 51.9 5.8 50.9 C 5.9 51.1 5.9 51.3 5.7 52.0 C 6.2 51.4 6.0 50.8 6.6 49.7 C 6.3 50.0 5.9 50.6 5.5 51.4 C 5.5 51.4 5.5 51.4 5.5 51.4 Z M 4.8 53.2 C 4.7 53.9 4.3 54.3 4.1 55.5 C 4.4 55.3 5.1 52.7 5.2 52.3 C 5.2 51.8 4.2 54.6 4.8 53.2 C 4.8 53.2 4.8 53.2 4.8 53.2 Z M 88.2 113.2 C 88.8 113.3 88.7 113.2 88.8 113.2 C 90.6 113.9 93.3 114.3 91.1 114.3 C 93.2 114.4 95.0 115.0 96.7 115.3 C 98.1 115.6 97.5 115.2 98.6 115.4 C 100.4 115.7 97.6 115.4 98.0 115.5 C 98.3 115.8 98.9 115.5 101.1 115.9 C 100.6 115.4 103.0 116.2 102.4 115.7 C 103.6 116.0 104.0 115.9 105.6 116.2 C 105.5 116.0 103.9 115.8 103.7 115.6 C 103.0 115.2 102.8 115.7 104.3 115.8 C 103.4 116.0 101.3 115.3 100.6 115.4 C 99.8 115.0 102.6 115.6 101.8 115.2 C 101.3 115.2 100.7 115.1 100.6 115.2 C 99.7 115.0 99.1 114.9 98.7 114.7 C 99.3 114.8 99.3 114.8 99.3 114.9 C 100.5 115.0 98.2 114.3 100.7 114.7 C 100.3 114.5 99.2 114.4 99.4 114.2 C 98.7 114.0 99.3 114.9 96.9 114.2 C 95.2 114.2 100.7 115.1 99.3 115.3 C 95.8 114.7 97.8 114.7 95.0 114.2 C 95.0 114.3 95.0 114.4 94.3 114.3 C 94.4 114.4 95.4 114.6 96.2 114.7 C 96.0 114.8 95.0 114.6 94.3 114.5 C 94.4 114.6 94.9 114.7 94.9 114.7 C 92.6 114.3 92.9 113.8 95.0 114.0 C 95.0 113.8 92.1 113.3 91.3 113.3 C 92.0 113.6 91.2 113.5 91.8 113.8 C 92.4 113.9 92.3 113.8 92.5 113.8 C 93.6 114.0 92.6 113.9 92.5 114.0 C 91.2 113.8 91.3 113.6 90.0 113.5 C 90.3 113.5 90.7 113.5 90.7 113.4 C 90.1 113.3 89.4 113.1 88.8 113.0 C 88.9 113.2 88.1 113.1 88.2 113.2 C 88.2 113.2 88.2 113.2 88.2 113.2 Z M 121.1 118.3 C 123.2 118.5 122.1 118.2 121.1 118.1 C 121.5 118.1 122.3 118.1 123.1 118.1 C 122.4 118.0 121.9 118.0 119.8 117.8 C 121.6 117.6 119.8 117.0 116.6 116.8 C 115.6 117.1 118.3 117.5 117.2 117.6 C 119.6 117.7 120.8 118.0 121.1 118.3 C 121.1 118.3 121.1 118.3 121.1 118.3 Z M 16.0 37.8 C 15.0 38.6 14.1 39.5 13.3 40.3 C 13.6 40.4 16.4 37.9 16.0 37.8 C 16.0 37.8 16.0 37.8 16.0 37.8 Z M 102.4 7.0 C 102.9 7.0 103.0 7.0 103.1 7.0 C 104.9 6.7 102.2 6.9 103.0 6.6 C 102.3 6.7 101.7 6.8 101.1 6.9 C 101.0 7.0 103.7 6.8 101.7 7.1 C 101.9 7.2 102.4 7.1 102.4 7.0 C 102.4 7.0 102.4 7.0 102.4 7.0 Z M 3.7 57.9 C 3.7 58.8 4.0 58.2 3.8 60.3 C 4.0 59.6 4.0 59.1 4.1 57.9 C 4.0 57.9 3.9 57.9 3.7 57.9 C 3.7 57.9 3.7 57.9 3.7 57.9 Z M 79.0 111.8 C 80.5 112.4 81.0 111.9 83.9 112.6 C 82.4 112.0 80.7 112.1 79.0 111.8 C 79.0 111.8 79.0 111.8 79.0 111.8 Z M 186.7 117.8 C 185.7 117.8 186.9 117.6 185.3 117.6 C 184.4 117.8 184.1 117.9 182.7 118.1 C 184.6 118.2 187.9 117.7 189.3 117.9 C 190.8 117.8 190.7 117.5 191.2 117.3 C 190.4 117.4 190.0 117.4 189.9 117.3 C 189.0 117.7 187.8 117.3 186.7 117.8 C 186.7 117.8 186.7 117.8 186.7 117.8 Z M 112.7 117.1 C 111.5 116.8 113.5 116.9 114.0 116.8 C 114.9 116.9 114.5 117.1 114.6 117.2 C 115.8 117.3 116.1 117.2 115.9 117.0 C 113.8 116.7 111.2 116.4 112.8 116.3 C 110.7 116.0 111.8 116.4 110.8 116.4 C 109.7 116.1 110.8 116.1 110.8 115.9 C 110.3 115.9 108.7 116.0 108.9 115.7 C 105.8 115.6 107.1 116.2 109.4 116.9 C 111.5 116.8 109.1 116.5 112.7 117.1 C 112.7 117.1 112.7 117.1 112.7 117.1 Z M 34.2 96.2 C 34.4 96.4 35.7 97.0 35.6 97.1 C 37.3 97.7 38.8 98.1 40.5 98.6 C 40.3 98.3 38.1 97.5 38.9 98.1 C 38.3 97.6 36.8 96.8 36.1 96.3 C 34.6 95.5 33.9 95.7 33.8 95.2 C 32.4 94.7 33.2 95.1 31.0 93.8 C 34.3 96.0 29.8 93.3 29.5 93.4 C 31.4 94.5 33.2 95.5 33.0 95.1 C 34.5 96.0 36.2 96.9 36.5 97.3 C 36.3 97.3 35.1 96.7 34.2 96.2 C 34.2 96.2 34.2 96.2 34.2 96.2 Z M 43.8 99.8 C 43.1 99.6 42.4 99.4 41.4 98.9 C 42.0 99.2 42.2 99.4 42.0 99.5 C 44.1 100.4 44.6 100.5 45.3 101.0 C 47.2 101.8 44.9 100.4 47.9 101.8 C 47.7 101.6 46.2 101.0 46.3 100.9 C 45.9 101.0 44.7 100.5 43.8 99.8 C 43.8 99.8 43.8 99.8 43.8 99.8 Z M 62.0 106.7 C 63.4 107.2 61.2 106.4 62.0 106.4 C 61.7 106.4 59.0 105.5 59.4 105.4 C 58.7 104.8 55.8 104.6 56.2 104.3 C 55.5 104.1 55.7 104.3 55.6 104.3 C 57.5 104.9 57.4 105.1 56.0 104.6 C 56.2 104.8 57.4 105.1 58.2 105.4 C 58.3 105.3 57.6 105.0 57.7 104.9 C 59.3 105.6 60.5 106.1 62.0 106.7 C 62.0 106.7 62.0 106.7 62.0 106.7 Z M 174.0 4.5 C 172.5 4.4 171.5 4.4 170.7 4.4 C 171.2 4.6 172.0 4.5 172.8 4.5 C 172.9 4.6 172.2 4.6 171.4 4.6 C 172.2 4.9 174.9 4.8 174.0 4.5 C 174.0 4.5 174.0 4.5 174.0 4.5 Z M 160.8 4.1 C 159.3 4.0 158.3 4.0 158.1 4.2 C 158.7 4.3 158.5 4.1 159.5 4.1 C 160.1 4.2 160.5 4.3 160.8 4.4 C 161.4 4.4 161.3 4.3 161.5 4.2 C 162.0 4.2 162.1 4.3 162.1 4.3 C 164.0 4.1 160.0 4.3 160.8 4.1 C 160.8 4.1 160.8 4.1 160.8 4.1 Z M 52.9 103.6 C 52.5 103.4 52.1 103.1 50.9 102.7 C 51.1 102.9 50.1 102.5 49.3 102.3 C 50.4 102.9 51.0 103.0 52.9 103.6 C 52.9 103.6 52.9 103.6 52.9 103.6 Z M 80.3 11.6 C 78.5 11.8 78.8 12.1 76.2 12.5 C 76.2 12.6 76.2 12.7 76.2 12.7 C 77.7 12.2 78.5 12.2 80.3 11.6 C 80.3 11.6 80.3 11.6 80.3 11.6 Z M 301.9 72.3 C 301.8 72.1 301.2 73.5 301.0 73.5 C 301.2 73.9 300.4 74.3 298.6 76.8 C 298.5 76.8 298.6 76.6 298.8 76.3 C 297.3 78.2 299.5 75.8 299.8 75.7 C 300.8 74.1 301.1 73.9 301.9 72.3 C 301.9 72.3 301.9 72.3 301.9 72.3 Z M 166.8 118.2 C 166.7 118.2 167.1 118.2 167.5 118.2 C 167.9 118.2 168.4 118.2 168.8 118.2 C 168.6 117.9 166.4 117.8 168.1 117.4 C 167.5 117.4 167.5 117.4 167.5 117.5 C 164.3 118.3 161.7 117.2 157.5 117.7 C 156.9 117.7 157.0 117.8 156.9 117.9 C 157.4 117.8 157.4 117.9 157.5 117.9 C 158.0 117.6 161.8 117.9 160.2 118.1 C 160.3 118.2 160.8 118.1 160.8 118.1 C 161.3 118.1 161.7 118.0 162.2 118.0 C 161.9 117.9 161.0 117.9 160.8 117.8 C 162.9 117.9 165.5 117.9 164.2 118.2 C 165.5 118.2 165.9 118.0 166.8 117.9 C 167.7 117.9 167.7 118.1 166.8 118.2 C 166.8 118.2 166.8 118.2 166.8 118.2 Z M 183.9 117.2 C 186.0 117.1 185.2 116.9 187.2 116.7 C 185.9 116.7 184.4 117.1 182.6 117.0 C 182.9 117.1 183.8 117.1 183.9 117.2 C 183.9 117.2 183.9 117.2 183.9 117.2 Z M 145.6 117.8 C 146.0 117.6 144.2 117.5 142.3 117.4 C 141.9 117.7 143.6 117.8 145.6 117.8 C 145.6 117.8 145.6 117.8 145.6 117.8 Z M 154.2 117.9 C 156.2 117.9 151.8 117.9 152.9 117.6 C 151.9 117.6 151.0 117.6 150.9 117.5 C 150.2 117.6 150.2 117.7 148.9 117.7 C 149.0 117.8 151.1 117.7 150.9 117.9 C 152.4 117.8 152.7 117.8 154.2 117.9 C 154.2 117.9 154.2 117.9 154.2 117.9 Z M 155.5 117.9 C 156.8 117.9 155.2 117.5 153.6 117.5 C 154.1 117.6 154.5 117.8 155.5 117.9 C 155.5 117.9 155.5 117.9 155.5 117.9 Z M 12.3 78.8 C 12.8 79.3 12.6 78.7 13.2 79.4 C 13.3 79.3 11.2 76.9 13.0 78.9 C 12.5 78.0 11.9 77.8 11.2 76.9 C 11.4 77.2 11.5 77.5 11.1 77.0 C 10.7 76.8 12.8 78.9 12.3 78.8 C 12.3 78.8 12.3 78.8 12.3 78.8 Z M 14.6 81.2 C 15.1 81.7 14.9 81.4 14.7 81.2 C 14.8 81.2 15.5 81.9 16.0 82.3 C 15.9 82.5 15.3 81.2 15.5 81.1 C 13.3 79.2 14.7 81.0 14.6 81.2 C 14.6 81.2 14.6 81.2 14.6 81.2 Z M 16.8 83.1 C 18.2 84.6 20.5 86.4 21.8 87.1 C 20.7 85.9 17.7 83.5 16.8 83.1 C 16.8 83.1 16.8 83.1 16.8 83.1 Z M 6.9 69.3 C 7.6 72.0 10.7 76.8 8.5 72.2 C 8.4 72.4 6.9 69.5 6.6 68.0 C 6.5 68.0 5.8 66.4 6.0 66.3 C 5.5 65.3 6.9 70.0 6.9 69.3 C 6.9 69.3 6.9 69.3 6.9 69.3 Z M 24.3 88.2 C 23.3 87.7 24.2 88.9 22.9 87.8 C 22.1 87.2 23.0 88.0 22.8 87.9 C 24.5 89.2 28.5 91.3 28.7 91.8 C 29.8 92.3 30.1 92.3 32.1 93.4 C 32.2 93.4 25.2 89.6 24.2 88.3 C 24.3 88.3 26.6 89.8 24.3 88.2 C 24.3 88.2 24.3 88.2 24.3 88.2 Z M 80.6 13.0 C 80.8 12.7 78.3 13.4 78.8 13.1 C 77.5 13.6 76.2 13.8 74.8 14.3 C 74.4 14.3 74.4 14.0 72.4 14.4 C 72.4 14.6 73.4 14.3 72.5 14.7 C 70.6 15.2 71.1 14.8 69.0 15.4 C 69.4 15.7 64.6 16.7 65.2 17.0 C 66.3 16.7 66.1 16.5 68.0 16.1 C 68.6 15.9 68.3 16.1 69.1 15.9 C 68.6 16.3 67.6 16.2 66.9 16.6 C 67.1 16.7 68.5 16.3 68.7 16.4 C 69.5 16.2 68.4 16.4 68.6 16.2 C 70.8 15.6 68.6 16.8 71.0 16.1 C 70.4 16.0 70.4 16.0 70.9 15.6 C 71.8 15.5 74.8 14.6 73.2 15.3 C 73.4 15.4 75.2 14.7 74.9 14.6 C 75.8 14.4 76.0 14.4 76.1 14.5 C 78.5 13.8 78.8 13.6 78.3 13.4 C 78.7 13.1 79.2 13.4 80.6 13.0 C 80.6 13.0 80.6 13.0 80.6 13.0 Z M 6.3 55.6 C 6.3 54.6 6.0 56.8 5.8 57.8 C 6.0 56.6 6.3 57.0 6.6 55.7 C 6.4 56.2 6.4 56.1 6.6 55.2 C 6.6 55.0 6.0 56.8 6.3 55.6 C 6.3 55.6 6.3 55.6 6.3 55.6 Z M 36.4 95.6 C 37.1 96.2 41.1 97.9 43.2 98.8 C 43.0 98.3 37.6 96.5 37.2 95.8 C 36.0 95.3 37.7 96.3 36.4 95.6 C 36.4 95.6 36.4 95.6 36.4 95.6 Z M 59.0 18.3 C 58.5 18.5 58.8 18.5 59.0 18.4 C 58.9 18.6 57.8 18.9 56.9 19.2 C 58.2 18.9 56.7 19.5 57.1 19.6 C 56.5 19.8 56.2 20.0 56.1 20.0 C 55.9 19.6 52.8 21.4 56.2 20.3 C 55.5 20.3 55.7 20.2 57.1 19.7 C 58.7 19.4 59.8 18.8 60.4 18.9 C 61.4 18.6 61.7 18.3 63.1 17.9 C 63.4 18.0 64.7 17.8 63.8 18.4 C 66.2 17.7 64.4 17.6 66.4 17.0 C 68.3 16.6 65.5 17.5 66.0 17.6 C 66.5 17.5 66.4 17.6 66.6 17.6 C 67.3 17.4 67.2 17.2 66.5 17.4 C 66.7 17.2 68.6 16.5 68.1 16.9 C 69.3 16.5 66.2 16.7 64.7 17.4 C 63.8 17.7 63.7 17.2 64.6 17.0 C 64.2 16.9 62.5 17.9 62.9 17.3 C 62.1 17.5 61.4 17.8 60.7 18.0 C 60.8 18.0 61.3 17.9 61.3 18.0 C 60.6 18.2 59.9 18.4 59.1 18.6 C 59.7 18.3 59.7 18.2 59.0 18.3 C 59.0 18.3 59.0 18.3 59.0 18.3 Z M 27.6 90.7 C 29.2 91.7 29.6 91.8 30.9 92.5 C 30.5 92.1 27.0 90.1 27.6 90.7 C 27.6 90.7 27.6 90.7 27.6 90.7 Z M 91.0 11.7 C 90.8 11.6 89.8 11.8 89.8 11.7 C 91.6 11.3 89.5 11.6 90.9 10.9 C 88.5 11.5 87.8 12.2 91.1 11.8 C 93.4 11.4 88.6 12.1 91.0 11.7 C 91.0 11.7 91.0 11.7 91.0 11.7 Z M 83.7 12.9 C 82.3 13.3 86.0 12.7 86.8 12.6 C 86.8 12.7 86.8 12.8 86.9 12.9 C 88.8 12.1 86.1 12.5 87.9 11.7 C 85.5 12.0 84.5 12.1 82.5 12.7 C 82.6 12.8 83.0 12.6 83.0 12.6 C 84.6 12.3 83.6 12.8 81.9 13.0 C 82.4 13.1 83.9 12.8 84.9 12.6 C 84.6 12.6 84.3 12.6 84.3 12.5 C 85.6 12.2 85.1 12.5 86.1 12.3 C 86.1 12.4 83.8 13.1 83.7 12.9 C 83.7 12.9 83.7 12.9 83.7 12.9 Z M 210.6 9.9 C 209.4 9.7 211.9 10.5 211.7 10.8 C 213.1 11.0 213.4 11.0 214.2 11.1 C 213.8 10.9 212.4 10.6 211.8 10.4 C 212.1 10.1 213.7 10.8 214.3 10.6 C 215.1 10.4 211.1 10.3 210.6 9.9 C 210.6 9.9 210.6 9.9 210.6 9.9 Z M 28.4 32.0 C 27.7 32.4 28.1 32.3 28.4 32.1 C 28.3 32.2 27.3 32.9 27.2 32.8 C 26.3 33.4 27.8 32.6 26.7 33.3 C 26.6 33.6 28.4 32.2 28.5 32.1 C 29.8 31.3 28.9 32.2 29.3 32.1 C 30.6 31.4 30.0 31.4 31.8 30.5 C 30.7 31.0 29.6 31.4 28.4 32.0 C 28.4 32.0 28.4 32.0 28.4 32.0 Z M 95.2 10.5 C 95.4 10.3 93.8 11.1 92.2 11.1 C 90.0 11.5 93.5 11.2 91.6 11.5 C 93.2 11.3 95.2 10.7 97.7 10.3 C 98.3 10.1 94.2 10.8 96.5 10.4 C 96.4 10.3 95.8 10.4 95.8 10.5 C 95.3 10.6 95.3 10.5 95.2 10.5 C 95.2 10.5 95.2 10.5 95.2 10.5 Z M 92.8 11.4 C 93.0 11.5 93.5 11.4 93.5 11.3 C 94.3 11.2 94.3 11.4 93.5 11.6 C 94.6 11.7 94.5 11.2 96.6 11.0 C 95.7 10.9 95.2 10.9 97.2 10.7 C 98.7 10.3 93.5 11.2 92.8 11.4 C 92.8 11.4 92.8 11.4 92.8 11.4 Z M 190.3 7.6 C 190.5 7.7 191.9 7.8 192.9 7.9 C 191.6 8.0 186.4 7.4 185.7 7.2 C 185.2 7.2 184.6 7.2 184.4 7.1 C 184.5 7.1 183.0 7.1 183.8 7.3 C 183.6 7.3 182.5 7.2 182.5 7.3 C 180.5 7.1 183.1 7.2 182.5 7.0 C 180.1 7.1 180.7 6.9 177.9 6.7 C 178.3 7.0 181.4 7.1 181.1 7.4 C 183.3 7.3 185.7 7.6 187.0 8.0 C 185.0 7.5 192.6 7.9 196.0 8.4 C 195.9 8.5 197.2 8.6 198.6 8.9 C 199.5 9.3 199.3 8.7 197.4 8.6 C 197.4 8.4 200.0 8.9 201.1 9.0 C 199.9 8.7 200.6 8.7 199.9 8.5 C 197.5 8.2 199.7 8.6 199.2 8.7 C 198.6 8.6 198.0 8.5 197.3 8.5 C 200.7 8.4 192.4 7.9 195.4 8.2 C 192.8 7.9 192.8 7.6 190.3 7.6 C 190.3 7.6 190.3 7.6 190.3 7.6 Z M 128.4 6.7 C 128.0 6.8 125.9 7.1 125.8 6.9 C 123.2 7.3 125.5 7.3 122.6 7.5 C 122.8 7.6 123.9 7.5 123.9 7.6 C 125.0 7.4 126.2 7.3 125.8 7.0 C 127.2 7.0 127.6 6.9 128.5 6.8 C 128.1 6.9 127.6 7.0 126.5 7.1 C 126.3 7.3 126.8 7.4 128.5 7.3 C 129.2 7.0 128.7 6.9 128.4 6.7 C 128.4 6.7 128.4 6.7 128.4 6.7 Z M 121.9 7.5 C 121.6 7.5 121.2 7.4 121.3 7.3 C 120.3 7.2 120.9 7.7 120.0 7.8 C 119.2 7.8 119.5 7.7 119.3 7.6 C 118.2 7.7 117.3 7.9 116.7 7.8 C 115.0 8.1 118.8 7.9 119.4 7.9 C 120.6 7.8 120.2 7.6 121.9 7.5 C 121.9 7.5 121.9 7.5 121.9 7.5 Z M 102.7 9.4 C 102.4 9.2 101.7 9.7 100.9 9.8 C 101.5 9.9 103.3 9.5 102.2 10.0 C 104.0 9.8 104.1 9.8 106.0 9.5 C 107.2 9.5 106.0 9.2 104.0 9.6 C 104.3 9.5 105.1 9.4 105.2 9.2 C 106.5 9.6 109.7 8.4 107.8 9.0 C 107.2 9.0 106.8 9.0 106.5 8.9 C 106.1 9.2 101.8 9.6 102.7 9.4 C 102.7 9.4 102.7 9.4 102.7 9.4 Z M 43.6 24.9 C 45.2 24.2 46.0 23.9 46.9 23.5 C 47.7 23.2 48.9 22.7 49.9 22.4 C 50.0 22.5 49.9 22.6 49.5 22.7 C 50.0 22.6 50.6 22.4 51.5 22.0 C 51.4 21.9 51.0 22.1 51.0 22.2 C 49.3 22.6 50.7 22.1 50.8 21.8 C 48.8 22.3 45.8 24.0 44.3 24.3 C 43.1 24.8 44.5 24.3 43.6 24.9 C 43.6 24.9 43.6 24.9 43.6 24.9 Z M 300.9 69.7 C 300.8 70.0 300.5 70.7 300.7 70.6 C 301.0 70.0 301.1 69.5 301.3 68.9 C 300.8 70.1 300.6 69.8 299.8 71.2 C 300.2 70.8 300.4 71.0 300.9 69.7 C 300.9 69.7 300.9 69.7 300.9 69.7 Z M 109.1 8.7 C 109.1 8.8 109.2 8.9 108.5 9.0 C 108.2 9.2 110.3 8.9 110.4 9.0 C 111.0 8.9 110.8 8.8 111.6 8.7 C 111.3 8.6 109.6 8.9 110.3 8.5 C 110.9 8.4 110.9 8.5 111.0 8.5 C 112.3 8.3 110.3 8.4 109.1 8.7 C 109.1 8.7 109.1 8.7 109.1 8.7 Z M 216.8 11.1 C 215.9 11.0 216.7 11.3 217.4 11.4 C 215.5 11.3 218.4 12.0 218.5 12.2 C 217.7 11.9 215.3 11.6 214.9 11.5 C 214.1 11.4 214.9 11.7 212.9 11.5 C 213.1 11.7 215.3 11.9 214.8 11.6 C 215.3 12.0 217.5 12.0 217.2 12.3 C 220.0 12.8 220.6 12.7 220.9 12.5 C 218.2 12.1 219.7 12.0 217.3 11.6 C 217.4 11.6 218.1 11.7 218.5 11.8 C 218.4 11.6 217.4 11.4 216.8 11.1 C 216.8 11.1 216.8 11.1 216.8 11.1 Z M 149.5 6.0 C 148.0 6.1 148.1 6.3 148.2 6.5 C 148.8 6.4 149.7 6.3 150.8 6.3 C 150.6 6.2 148.8 6.3 149.5 6.0 C 149.5 6.0 149.5 6.0 149.5 6.0 Z M 206.8 9.9 C 206.7 9.8 206.2 9.8 206.2 9.8 C 204.6 9.6 204.2 9.4 203.7 9.2 C 202.8 9.1 203.1 9.4 203.0 9.5 C 204.5 9.5 204.2 9.7 206.2 10.0 C 206.0 9.9 206.3 9.8 206.8 9.9 C 206.8 9.9 206.8 9.9 206.8 9.9 Z M 163.4 6.3 C 162.6 6.3 163.0 6.3 163.4 6.3 C 162.5 6.6 159.8 6.3 158.7 6.4 C 158.6 6.6 162.0 6.6 158.1 6.7 C 158.8 6.9 162.3 6.8 164.0 6.8 C 163.6 7.0 161.3 7.0 161.4 7.3 C 163.4 7.2 165.7 7.1 166.0 6.7 C 163.1 6.6 164.1 6.4 163.4 6.3 C 163.4 6.3 163.4 6.3 163.4 6.3 Z M 166.7 6.5 C 166.4 6.4 165.8 6.5 164.7 6.5 C 166.3 6.8 167.3 6.7 170.6 6.9 C 170.7 6.8 170.7 6.8 170.7 6.7 C 171.3 6.8 172.0 6.8 172.6 6.8 C 169.8 6.4 169.1 6.6 166.0 6.6 C 165.9 6.5 166.3 6.5 166.7 6.5 C 166.7 6.5 166.7 6.5 166.7 6.5 Z M 80.8 13.7 C 81.6 13.6 82.4 13.6 83.8 13.4 C 83.7 13.2 82.7 13.2 80.8 13.7 C 80.8 13.7 80.8 13.7 80.8 13.7 Z M 209.3 10.4 C 211.0 10.5 207.6 10.2 208.6 10.6 C 209.9 10.9 211.4 11.2 211.6 11.4 C 214.2 11.5 208.9 10.7 209.3 10.4 C 209.3 10.4 209.3 10.4 209.3 10.4 Z M 197.9 9.5 C 197.1 9.4 197.2 9.0 197.9 9.3 C 199.7 9.5 196.4 8.9 199.2 9.3 C 198.0 9.1 195.3 8.6 194.1 8.7 C 194.1 8.9 196.5 9.0 196.6 9.3 C 196.7 9.3 196.3 9.3 196.0 9.3 C 196.2 9.4 196.8 9.3 197.9 9.5 C 197.9 9.5 197.9 9.5 197.9 9.5 Z M 188.3 8.1 C 189.3 8.3 190.6 8.6 192.8 8.8 C 191.4 8.5 190.6 8.2 188.3 8.1 C 188.3 8.1 188.3 8.1 188.3 8.1 Z M 297.5 48.5 C 296.8 47.5 297.2 48.5 297.2 48.7 C 297.9 49.7 298.0 49.5 298.5 50.6 C 298.6 50.1 297.7 49.3 297.5 48.5 C 297.5 48.5 297.5 48.5 297.5 48.5 Z M 299.4 52.1 C 299.3 52.3 300.0 53.7 299.9 53.8 C 300.6 54.4 300.3 55.9 300.6 55.7 C 300.7 56.1 300.7 56.4 300.9 56.9 C 301.0 55.7 300.0 53.3 299.4 52.1 C 299.4 52.1 299.4 52.1 299.4 52.1 Z M 177.1 7.8 C 175.4 7.6 177.6 8.2 175.9 8.0 C 175.7 8.1 179.2 8.4 177.1 8.3 C 179.8 8.7 176.9 7.8 177.1 7.8 C 177.1 7.8 177.1 7.8 177.1 7.8 Z M 144.9 7.5 C 145.0 7.3 142.6 7.5 141.6 7.5 C 141.6 7.6 142.4 7.5 142.9 7.5 C 142.7 7.6 142.4 7.7 141.6 7.7 C 142.2 7.9 144.0 7.5 144.9 7.5 C 144.9 7.5 144.9 7.5 144.9 7.5 Z M 180.7 3.8 C 181.8 4.1 183.2 4.4 184.0 4.1 C 185.1 4.4 183.2 4.4 184.6 4.6 C 186.5 4.6 185.6 4.8 188.6 4.9 C 188.0 5.2 190.1 5.3 190.5 5.6 C 189.3 5.5 187.8 5.1 187.2 5.3 C 188.2 5.4 187.6 5.5 187.2 5.4 C 185.2 5.1 189.6 5.2 187.2 4.9 C 186.5 5.2 183.0 4.3 180.7 4.1 C 181.6 4.0 179.0 3.7 180.7 3.8 C 180.7 3.8 180.7 3.8 180.7 3.8 Z M 192.4 5.3 C 194.0 5.4 194.8 6.0 194.3 5.9 C 194.4 5.8 192.6 5.7 192.4 5.8 C 192.8 5.8 193.2 5.8 193.1 5.9 C 190.2 5.6 191.2 5.5 190.5 5.3 C 192.1 5.3 192.5 5.5 193.1 5.4 C 192.7 5.4 192.4 5.3 192.4 5.3 C 192.4 5.3 192.4 5.3 192.4 5.3 Z M 225.0 14.2 C 224.7 13.9 224.3 14.1 223.7 14.0 C 223.7 13.6 220.5 13.5 220.2 13.2 C 220.9 13.2 222.5 13.5 223.2 13.6 C 222.4 13.4 222.2 13.3 221.4 13.2 C 221.6 13.0 223.4 13.4 223.9 13.3 C 224.0 13.5 224.9 13.4 225.1 13.6 C 222.7 13.3 226.3 14.4 225.0 14.2 C 225.0 14.2 225.0 14.2 225.0 14.2 Z M 162.1 7.5 C 161.8 7.8 164.6 8.4 162.1 8.6 C 161.5 8.4 161.2 8.2 161.4 7.9 C 159.8 8.0 159.1 7.8 158.1 8.0 C 155.1 7.3 160.4 8.1 162.1 7.5 C 162.1 7.5 162.1 7.5 162.1 7.5 Z M 151.5 7.7 C 152.0 7.5 150.6 7.5 150.8 7.3 C 152.1 7.5 156.2 7.2 154.8 7.4 C 153.5 7.4 153.5 7.7 151.5 7.7 C 151.5 7.7 151.5 7.7 151.5 7.7 Z M 72.5 108.0 C 70.6 107.7 69.8 107.0 70.9 107.1 C 70.4 107.3 73.2 107.8 72.5 108.0 C 72.5 108.0 72.5 108.0 72.5 108.0 Z M 5.7 74.8 C 6.3 76.3 7.0 77.0 6.9 77.3 C 6.0 76.0 6.2 76.1 5.5 74.9 C 5.4 74.9 4.9 74.2 5.0 74.0 C 5.3 74.7 5.4 74.5 5.7 74.8 C 5.7 74.8 5.7 74.8 5.7 74.8 Z M 111.2 4.4 C 111.0 4.3 110.2 4.4 110.5 4.2 C 112.5 4.0 114.7 3.6 116.3 3.3 C 116.3 3.4 116.3 3.5 116.3 3.6 C 113.2 3.8 112.4 4.1 111.2 4.4 C 111.2 4.4 111.2 4.4 111.2 4.4 Z M 107.2 4.4 C 106.9 4.5 108.0 4.7 106.6 4.9 C 106.7 4.7 104.2 4.7 105.3 4.5 C 105.7 4.7 106.3 4.6 107.2 4.4 C 107.2 4.4 107.2 4.4 107.2 4.4 Z M 217.3 8.0 C 218.8 8.2 216.7 7.7 216.8 7.6 C 217.8 7.8 219.3 8.1 219.8 8.3 C 218.7 8.0 217.9 8.3 217.3 8.0 C 217.3 8.0 217.3 8.0 217.3 8.0 Z M 193.8 5.3 C 190.4 5.0 191.9 4.7 188.6 4.4 C 190.0 4.3 192.9 4.6 193.8 4.5 C 193.7 4.7 194.5 4.8 194.4 4.9 C 193.2 4.8 193.1 4.7 191.9 4.6 C 192.3 4.9 192.3 4.8 191.8 5.0 C 192.7 5.1 193.3 5.1 193.8 5.1 C 193.5 5.2 194.7 5.4 193.8 5.3 C 193.8 5.3 193.8 5.3 193.8 5.3 Z M 216.6 8.5 C 217.9 8.7 218.9 9.2 217.8 9.0 C 217.7 8.8 216.8 8.8 216.6 8.7 C 218.4 8.9 215.1 8.3 216.0 8.2 C 217.1 8.4 217.5 8.4 217.3 8.2 C 218.0 8.4 219.1 8.5 219.1 8.6 C 218.6 8.6 217.9 8.4 217.9 8.5 C 218.3 8.6 218.6 8.6 218.5 8.7 C 217.4 8.5 216.9 8.5 216.6 8.5 C 216.6 8.5 216.6 8.5 216.6 8.5 Z M 207.9 7.1 C 209.6 7.4 209.7 7.6 210.3 7.9 C 208.0 7.5 207.7 7.1 206.0 6.7 C 207.9 7.0 209.8 7.0 210.4 7.3 C 209.6 7.2 208.0 7.0 207.9 7.1 C 207.9 7.1 207.9 7.1 207.9 7.1 Z M 237.5 109.4 C 236.1 109.6 234.9 109.7 233.4 110.0 C 232.9 110.3 235.9 110.1 234.6 110.2 C 233.1 110.7 234.1 110.1 232.8 110.3 C 234.1 110.4 227.3 111.9 226.9 111.6 C 228.0 111.4 228.3 111.3 228.0 111.2 C 230.8 110.6 231.9 110.1 233.9 109.6 C 235.4 109.5 239.7 108.6 241.9 107.6 C 243.5 107.7 246.0 106.4 248.1 106.2 C 248.6 105.9 246.4 106.4 248.0 105.9 C 249.2 105.8 248.3 106.1 249.8 105.8 C 249.9 105.7 249.5 105.6 250.2 105.4 C 250.2 105.5 251.1 105.3 251.4 105.2 C 248.5 106.1 251.7 105.5 249.4 106.3 C 248.4 106.5 250.3 105.6 247.6 106.4 C 246.7 106.8 245.8 107.1 246.0 107.3 C 245.3 107.5 244.9 107.7 244.4 107.9 C 245.3 107.3 240.6 109.0 242.7 108.1 C 242.8 108.0 244.4 107.6 245.4 107.2 C 244.4 107.3 243.2 107.7 241.5 108.3 C 240.7 108.3 241.8 108.0 240.9 108.2 C 239.5 108.7 241.4 108.4 240.4 108.8 C 240.9 108.7 241.5 108.5 241.6 108.6 C 239.1 109.0 238.2 109.5 237.0 109.7 C 237.8 109.4 235.5 109.9 237.5 109.4 C 237.5 109.4 237.5 109.4 237.5 109.4 Z M 257.2 103.1 C 257.7 102.9 258.2 102.7 258.8 102.5 C 258.9 102.7 256.9 103.5 258.4 103.2 C 256.1 104.0 258.4 102.9 257.2 103.1 C 257.2 103.1 257.2 103.1 257.2 103.1 Z M 246.2 105.7 C 245.4 105.7 245.9 106.2 245.2 106.4 C 246.5 105.9 247.7 105.5 248.0 105.7 C 246.4 106.1 245.7 106.3 244.1 106.9 C 245.6 106.1 242.3 107.1 241.7 106.9 C 243.0 106.5 243.9 106.2 245.6 105.7 C 245.3 105.9 247.8 105.2 246.2 105.7 C 246.2 105.7 246.2 105.7 246.2 105.7 Z M 250.5 104.1 C 250.8 104.2 253.1 103.3 252.7 103.7 C 251.3 104.1 250.8 104.4 251.2 104.5 C 250.1 104.8 249.9 104.8 249.0 105.1 C 248.3 105.0 250.0 104.5 250.5 104.2 C 250.2 104.3 249.9 104.3 250.5 104.1 C 250.5 104.1 250.5 104.1 250.5 104.1 Z M 294.1 78.5 C 294.6 78.4 293.0 79.9 292.6 80.2 C 293.3 79.9 293.1 80.2 292.1 81.2 C 292.3 80.6 290.8 82.1 289.6 82.8 C 289.5 83.2 290.9 82.1 289.4 83.5 C 288.1 84.4 287.0 85.4 284.9 87.0 C 284.2 87.1 285.2 86.4 285.7 85.9 C 284.3 87.0 284.5 86.5 283.4 87.3 C 283.7 87.3 282.8 88.0 282.3 88.1 C 284.3 86.7 279.4 89.6 281.6 88.1 C 281.7 88.1 282.2 87.8 282.7 87.4 C 282.3 88.0 284.9 86.1 285.6 85.9 C 286.3 84.7 289.1 82.9 291.6 80.7 C 291.9 80.7 291.2 81.4 291.8 80.9 C 291.8 80.7 292.6 80.0 292.9 79.6 C 292.9 79.7 293.3 79.5 293.8 79.0 C 293.8 78.9 293.8 78.8 294.1 78.5 C 294.1 78.5 294.1 78.5 294.1 78.5 Z M 132.4 115.6 C 132.6 115.2 128.4 115.1 127.2 115.2 C 127.4 114.7 134.8 115.3 132.4 115.6 C 132.4 115.6 132.4 115.6 132.4 115.6 Z M 158.1 115.9 C 157.0 115.9 157.8 116.1 156.9 116.1 C 156.8 115.9 154.3 116.4 154.2 116.1 C 155.4 115.9 156.2 115.9 158.1 115.9 C 158.1 115.9 158.1 115.9 158.1 115.9 Z M 181.9 115.0 C 179.9 115.2 182.9 115.1 182.5 115.2 C 180.9 115.3 179.1 115.4 179.2 115.2 C 180.7 115.2 181.6 114.8 181.9 115.0 C 181.9 115.0 181.9 115.0 181.9 115.0 Z M 146.3 115.5 C 144.7 115.4 147.3 115.1 147.6 115.3 C 145.9 115.4 148.7 115.6 150.2 115.5 C 150.2 115.8 149.5 115.7 150.2 116.0 C 147.9 116.1 149.8 115.7 148.2 115.7 C 147.1 115.9 148.3 115.8 148.2 116.1 C 147.6 116.1 146.9 116.0 146.3 116.0 C 146.3 115.9 146.3 115.8 146.3 115.6 C 147.1 115.6 147.8 115.6 147.6 115.5 C 146.9 115.5 146.8 115.5 146.3 115.5 C 146.3 115.5 146.3 115.5 146.3 115.5 Z M 263.4 97.3 C 262.1 97.9 263.3 97.5 264.2 97.2 C 264.4 96.9 265.0 96.2 266.5 95.8 C 263.5 97.3 267.5 95.8 265.9 96.6 C 265.1 96.7 263.4 97.7 261.8 98.3 C 261.1 98.4 262.6 97.4 263.4 97.3 C 263.4 97.3 263.4 97.3 263.4 97.3 Z M 268.9 95.1 C 268.7 95.1 268.2 95.3 267.3 95.7 C 268.2 95.1 266.9 95.7 268.0 95.1 C 267.9 95.2 271.9 93.5 269.6 94.6 C 267.5 95.4 270.2 94.5 271.2 94.0 C 270.2 94.5 268.4 95.6 268.1 95.5 C 268.7 95.3 269.1 95.1 268.9 95.1 C 268.9 95.1 268.9 95.1 268.9 95.1 Z M 299.0 70.4 C 298.9 70.1 298.6 70.8 298.4 71.0 C 299.5 69.1 300.0 67.4 300.3 66.5 C 300.1 67.3 300.2 67.4 300.5 66.9 C 300.1 67.9 300.2 68.1 299.9 68.4 C 300.0 67.5 299.6 69.2 299.0 70.4 C 299.0 70.4 299.0 70.4 299.0 70.4 Z M 299.0 70.4 " fill="#000000"></path><image xlink:href="../../CEFA4209-80C9-472B-8D2B-058B96531B72/assets/431BD2BFE54A6EFCB4B133EE2A4ED9FC.png" width="209.00" height="56.00" transform="matrix(1.00, 0.00, -0.00, -1.00, 52.0, 79.0)"></image><g><clipPath id="clip-1101"><path d="M 5.4 5.2 L 303.6 5.2 L 303.6 117.6 L 5.4 117.6 Z M 5.4 5.2 "></path></clipPath><g clip-path="url(#clip-1101)"><text xml:space="preserve" font-family="Chalkduster" font-size="32.0" fill="#000000" transform="matrix(1.00, 0.00, -0.00, -1.00, 55.0, 47.0)">L</text><text xml:space="preserve" font-family="Chalkduster" font-size="32.0" fill="#000000" transform="matrix(1.00, 0.00, -0.00, -1.00, 75.3, 47.0)">i</text><text xml:space="preserve" font-family="Chalkduster" font-size="32.0" fill="#000000" transform="matrix(1.00, 0.00, -0.00, -1.00, 87.9, 47.0)">n</text><text xml:space="preserve" font-family="Chalkduster" font-size="32.0" fill="#000000" transform="matrix(1.00, 0.00, -0.00, -1.00, 111.4, 47.0)">k</text><text xml:space="preserve" font-family="Chalkduster" font-size="32.0" fill="#000000" transform="matrix(1.00, 0.00, -0.00, -1.00, 136.3, 47.0)"> </text><text xml:space="preserve" font-family="Chalkduster" font-size="32.0" fill="#000000" transform="matrix(1.00, 0.00, -0.00, -1.00, 152.2, 47.0)">S</text><text xml:space="preserve" font-family="Chalkduster" font-size="32.0" fill="#000000" transform="matrix(1.00, 0.00, -0.00, -1.00, 168.1, 47.0)">p</text><text xml:space="preserve" font-family="Chalkduster" font-size="32.0" fill="#000000" transform="matrix(1.00, 0.00, -0.00, -1.00, 188.2, 47.0)">e</text><text xml:space="preserve" font-family="Chalkduster" font-size="32.0" fill="#000000" transform="matrix(1.00, 0.00, -0.00, -1.00, 208.1, 47.0)">e</text><text xml:space="preserve" font-family="Chalkduster" font-size="32.0" fill="#000000" transform="matrix(1.00, 0.00, -0.00, -1.00, 228.9, 47.0)">d</text></g></g></g></svg>