<?xml version="1.0" encoding="UTF-8" standalone="no"?><svg xmlns="http://www.w3.org/2000/svg" xmlns:xlink="http://www.w3.org/1999/xlink" clip-rule="evenodd" stroke-miterlimit="4.00" viewBox="0 0 840 101"><desc>SVG generated by Keynote</desc><defs></defs><g transform="matrix(1.00, 0.00, -0.00, -1.00, 0.0, 101.0)"><g><clipPath id="clip-1076"><path d="M 213.4 47.7 L 626.6 47.7 L 626.6 52.7 L 213.4 52.7 Z M 213.4 47.7 "></path></clipPath><g clip-path="url(#clip-1076)"><path d="M 0.0 0.0 L 411.3 0.0 " fill="none" stroke="#FEFFFE" stroke-width="3.00" transform="matrix(1.00, 0.00, 0.00, -1.00, 214.4, 50.2)"></path></g></g><g><clipPath id="clip-1077"><path d="M 275.7 6.8 L 564.3 6.8 L 564.3 93.7 L 275.7 93.7 Z M 275.7 6.8 "></path></clipPath><g clip-path="url(#clip-1077)"><path d="M 278.2 91.2 L 561.8 91.2 L 561.8 9.3 L 278.2 9.3 Z M 278.2 91.2 " fill="#212327"></path><path d="M 0.0 0.0 L 283.6 0.0 L 283.6 81.9 L 0.0 81.9 Z M 0.0 0.0 " fill="none" stroke="#FEFFFE" stroke-width="3.00" transform="matrix(1.00, 0.00, 0.00, -1.00, 278.2, 91.2)"></path></g></g><image xlink:href="../../5B2BDFE0-3636-400B-8320-07413E8B701E/assets/E42A3418FCC44346D60FE9335B887264.png" width="236.00" height="26.00" transform="matrix(1.00, 0.00, -0.00, -1.00, 315.0, 74.0)"></image><g><clipPath id="clip-1078"><path d="M 275.6 11.3 L 567.2 11.3 L 567.2 89.2 L 275.6 89.2 Z M 275.6 11.3 "></path></clipPath><g clip-path="url(#clip-1078)"><text xml:space="preserve" font-family="Courier" font-size="20.0" fill="#FEFFFE" transform="matrix(1.00, 0.00, -0.00, -1.00, 317.8, 55.1)">S</text><text xml:space="preserve" font-family="Courier" font-size="20.0" fill="#FEFFFE" transform="matrix(1.00, 0.00, -0.00, -1.00, 329.8, 55.1)">e</text><text xml:space="preserve" font-family="Courier" font-size="20.0" fill="#FEFFFE" transform="matrix(1.00, 0.00, -0.00, -1.00, 341.8, 55.1)">n</text><text xml:space="preserve" font-family="Courier" font-size="20.0" fill="#FEFFFE" transform="matrix(1.00, 0.00, -0.00, -1.00, 353.8, 55.1)">d</text><text xml:space="preserve" font-family="Courier" font-size="20.0" fill="#FEFFFE" transform="matrix(1.00, 0.00, -0.00, -1.00, 365.8, 55.1)">e</text><text xml:space="preserve" font-family="Courier" font-size="20.0" fill="#FEFFFE" transform="matrix(1.00, 0.00, -0.00, -1.00, 377.8, 55.1)">r</text><text xml:space="preserve" font-family="Courier" font-size="20.0" fill="#FEFFFE" transform="matrix(1.00, 0.00, -0.00, -1.00, 389.8, 55.1)">:</text><text xml:space="preserve" font-family="Courier" font-size="20.0" fill="#FEFFFE" transform="matrix(1.00, 0.00, -0.00, -1.00, 401.8, 55.1)"> </text><text xml:space="preserve" font-family="Courier" font-size="20.0" fill="#FEFFFE" transform="matrix(1.00, 0.00, -0.00, -1.00, 413.8, 55.1)">9</text><text xml:space="preserve" font-family="Courier" font-size="20.0" fill="#FEFFFE" transform="matrix(1.00, 0.00, -0.00, -1.00, 425.8, 55.1)">4</text><text xml:space="preserve" font-family="Courier" font-size="20.0" fill="#FEFFFE" transform="matrix(1.00, 0.00, -0.00, -1.00, 437.8, 55.1)">1</text><text xml:space="preserve" font-family="Courier" font-size="20.0" fill="#FEFFFE" transform="matrix(1.00, 0.00, -0.00, -1.00, 449.8, 55.1)"> </text><text xml:space="preserve" font-family="Courier" font-size="20.0" fill="#FEFFFE" transform="matrix(1.00, 0.00, -0.00, -1.00, 461.8, 55.1)">M</text><text xml:space="preserve" font-family="Courier" font-size="20.0" fill="#FEFFFE" transform="matrix(1.00, 0.00, -0.00, -1.00, 473.8, 55.1)">b</text><text xml:space="preserve" font-family="Courier" font-size="20.0" fill="#FEFFFE" transform="matrix(1.00, 0.00, -0.00, -1.00, 485.8, 55.1)">i</text><text xml:space="preserve" font-family="Courier" font-size="20.0" fill="#FEFFFE" transform="matrix(1.00, 0.00, -0.00, -1.00, 497.8, 55.1)">t</text><text xml:space="preserve" font-family="Courier" font-size="20.0" fill="#FEFFFE" transform="matrix(1.00, 0.00, -0.00, -1.00, 509.8, 55.1)">s</text><text xml:space="preserve" font-family="Courier" font-size="20.0" fill="#FEFFFE" transform="matrix(1.00, 0.00, -0.00, -1.00, 521.8, 55.1)">/</text><text xml:space="preserve" font-family="Courier" font-size="20.0" fill="#FEFFFE" transform="matrix(1.00, 0.00, -0.00, -1.00, 533.9, 55.1)">s</text></g></g><g><clipPath id="clip-1079"><path d="M 275.6 11.3 L 567.2 11.3 L 567.2 89.2 L 275.6 89.2 Z M 275.6 11.3 "></path></clipPath><g clip-path="url(#clip-1079)"></g></g><image xlink:href="../../5B2BDFE0-3636-400B-8320-07413E8B701E/assets/4EC624820E95051B4E0567A3B90322D1.png" width="248.00" height="26.00" transform="matrix(1.00, 0.00, -0.00, -1.00, 290.0, 50.0)"></image><g><clipPath id="clip-1080"><path d="M 275.6 11.3 L 567.2 11.3 L 567.2 89.2 L 275.6 89.2 Z M 275.6 11.3 "></path></clipPath><g clip-path="url(#clip-1080)"><text xml:space="preserve" font-family="Courier" font-size="20.0" fill="#FEFFFE" transform="matrix(1.00, 0.00, -0.00, -1.00, 293.8, 31.1)">R</text><text xml:space="preserve" font-family="Courier" font-size="20.0" fill="#FEFFFE" transform="matrix(1.00, 0.00, -0.00, -1.00, 305.8, 31.1)">e</text><text xml:space="preserve" font-family="Courier" font-size="20.0" fill="#FEFFFE" transform="matrix(1.00, 0.00, -0.00, -1.00, 317.8, 31.1)">c</text><text xml:space="preserve" font-family="Courier" font-size="20.0" fill="#FEFFFE" transform="matrix(1.00, 0.00, -0.00, -1.00, 329.8, 31.1)">e</text><text xml:space="preserve" font-family="Courier" font-size="20.0" fill="#FEFFFE" transform="matrix(1.00, 0.00, -0.00, -1.00, 341.8, 31.1)">i</text><text xml:space="preserve" font-family="Courier" font-size="20.0" fill="#FEFFFE" transform="matrix(1.00, 0.00, -0.00, -1.00, 353.8, 31.1)">v</text><text xml:space="preserve" font-family="Courier" font-size="20.0" fill="#FEFFFE" transform="matrix(1.00, 0.00, -0.00, -1.00, 365.8, 31.1)">e</text><text xml:space="preserve" font-family="Courier" font-size="20.0" fill="#FEFFFE" transform="matrix(1.00, 0.00, -0.00, -1.00, 377.8, 31.1)">r</text><text xml:space="preserve" font-family="Courier" font-size="20.0" fill="#FEFFFE" transform="matrix(1.00, 0.00, -0.00, -1.00, 389.8, 31.1)">:</text><text xml:space="preserve" font-family="Courier" font-size="20.0" fill="#FEFFFE" transform="matrix(1.00, 0.00, -0.00, -1.00, 401.8, 31.1)"> </text><text xml:space="preserve" font-family="Courier" font-size="20.0" fill="#FEFFFE" transform="matrix(1.00, 0.00, -0.00, -1.00, 413.8, 31.1)">9</text><text xml:space="preserve" font-family="Courier" font-size="20.0" fill="#FEFFFE" transform="matrix(1.00, 0.00, -0.00, -1.00, 425.8, 31.1)">3</text><text xml:space="preserve" font-family="Courier" font-size="20.0" fill="#FEFFFE" transform="matrix(1.00, 0.00, -0.00, -1.00, 437.8, 31.1)">7</text><text xml:space="preserve" font-family="Courier" font-size="20.0" fill="#FEFFFE" transform="matrix(1.00, 0.00, -0.00, -1.00, 449.8, 31.1)"> </text><text xml:space="preserve" font-family="Courier" font-size="20.0" fill="#FEFFFE" transform="matrix(1.00, 0.00, -0.00, -1.00, 461.8, 31.1)">M</text><text xml:space="preserve" font-family="Courier" font-size="20.0" fill="#FEFFFE" transform="matrix(1.00, 0.00, -0.00, -1.00, 473.8, 31.1)">b</text><text xml:space="preserve" font-family="Courier" font-size="20.0" fill="#FEFFFE" transform="matrix(1.00, 0.00, -0.00, -1.00, 485.8, 31.1)">i</text><text xml:space="preserve" font-family="Courier" font-size="20.0" fill="#FEFFFE" transform="matrix(1.00, 0.00, -0.00, -1.00, 497.8, 31.1)">t</text><text xml:space="preserve" font-family="Courier" font-size="20.0" fill="#FEFFFE" transform="matrix(1.00, 0.00, -0.00, -1.00, 509.8, 31.1)">s</text><text xml:space="preserve" font-family="Courier" font-size="20.0" fill="#FEFFFE" transform="matrix(1.00, 0.00, -0.00, -1.00, 521.9, 31.1)">/</text></g></g><image xlink:href="../../5B2BDFE0-3636-400B-8320-07413E8B701E/assets/C148AEAC1A15CEBB1F7578B42ECF1D29.png" width="20.00" height="21.00" transform="matrix(1.00, 0.00, -0.00, -1.00, 531.0, 45.0)"></image><g><clipPath id="clip-1081"><path d="M 275.6 11.3 L 567.2 11.3 L 567.2 89.2 L 275.6 89.2 Z M 275.6 11.3 "></path></clipPath><g clip-path="url(#clip-1081)"><text xml:space="preserve" font-family="Courier" font-size="20.0" fill="#FEFFFE" transform="matrix(1.00, 0.00, -0.00, -1.00, 533.8, 31.1)">s</text></g></g><g><clipPath id="clip-1082"><path d="M 0.1 0.5 L 236.0 0.5 L 236.0 100.0 L 0.1 100.0 Z M 0.1 0.5 "></path></clipPath><g clip-path="url(#clip-1082)"><image xlink:href="../../14F397CC-C286-42D9-A2F1-53C679F93897/assets/9C11A9BFE2462ACD0C8F53A82701A181.png" width="234.00" height="98.00" transform="matrix(1.00, 0.00, -0.00, -1.00, 1.1, 99.0)" opacity="0.50"></image><path d="M 39.1 91.2 L 197.0 91.2 C 205.6 91.2 210.0 91.2 214.7 89.7 C 219.8 87.9 223.8 83.8 225.7 78.7 C 227.1 74.1 227.1 69.7 227.1 60.9 L 227.1 39.5 C 227.1 30.8 227.1 26.4 225.7 21.8 C 223.8 16.7 219.8 12.6 214.7 10.8 C 210.0 9.3 205.6 9.3 196.8 9.3 L 39.1 9.3 C 30.4 9.3 26.0 9.3 21.4 10.8 C 16.3 12.6 12.2 16.7 10.4 21.8 C 8.9 26.4 8.9 30.8 8.9 39.6 L 8.9 61.0 C 8.9 69.7 8.9 74.1 10.4 78.7 C 12.2 83.8 16.3 87.9 21.4 89.7 C 26.0 91.2 30.4 91.2 39.2 91.2 Z M 39.1 91.2 " fill="#DDF3D0"></path><path d="M 39.7 89.3 C 38.8 89.3 37.6 89.4 37.5 90.7 C 37.3 92.1 38.3 93.1 39.7 93.1 C 41.0 93.1 40.6 92.4 43.8 92.4 C 45.0 92.4 45.1 90.0 43.9 90.0 C 41.0 90.0 41.4 89.3 39.7 89.3 C 39.7 89.3 39.7 89.3 39.7 89.3 Z M 38.1 93.1 C 38.5 93.1 38.9 93.1 39.2 93.1 L 39.2 89.3 C 38.2 89.5 37.7 90.1 37.7 91.2 C 37.7 92.3 38.2 92.9 39.2 93.1 L 39.2 89.3 C 38.9 89.3 38.5 89.2 38.1 89.2 C 36.0 89.2 36.0 90.0 33.2 89.9 C 31.7 89.9 31.9 92.4 33.2 92.4 C 36.1 92.4 35.7 93.1 38.1 93.1 C 38.1 93.1 38.1 93.1 38.1 93.1 Z M 44.0 89.9 C 42.8 89.9 42.8 92.4 44.1 92.4 C 45.6 92.4 48.7 92.0 49.5 92.0 C 50.4 92.1 52.6 92.5 53.4 92.5 C 54.1 92.5 57.6 91.8 59.1 92.0 C 60.6 92.2 61.0 92.1 62.0 92.1 C 63.0 92.1 64.7 92.0 65.7 91.9 C 66.6 91.9 67.5 92.5 68.8 92.3 C 70.1 92.2 70.8 92.4 71.7 92.4 C 73.1 92.4 73.0 90.0 71.7 90.0 C 70.4 90.0 69.5 89.8 68.4 89.9 C 67.4 89.9 66.4 90.2 65.4 89.9 C 64.4 89.7 62.4 89.9 61.1 90.1 C 59.9 90.2 58.5 90.2 57.6 90.1 C 55.6 89.9 50.9 90.3 50.3 90.1 C 49.6 89.9 47.5 90.1 46.7 90.1 C 45.9 90.1 45.5 89.9 44.0 89.9 C 44.0 89.9 44.0 89.9 44.0 89.9 Z M 99.4 92.4 C 100.7 92.4 100.9 90.0 99.4 90.0 C 97.9 90.0 95.1 90.2 94.3 90.1 C 93.5 90.1 90.0 89.9 89.3 89.9 C 88.6 89.9 86.0 90.3 84.5 90.1 C 83.0 89.9 81.6 90.3 80.5 90.2 C 79.3 90.0 78.6 90.2 77.6 90.2 C 76.6 90.3 75.1 89.8 74.3 90.0 C 73.5 90.2 73.0 90.0 71.9 90.0 C 70.7 90.0 70.7 92.4 71.8 92.4 C 72.9 92.4 73.8 92.4 74.9 92.3 C 76.0 92.3 77.3 92.2 78.5 92.2 C 79.5 92.2 81.1 92.5 82.4 92.4 C 83.6 92.2 85.4 92.1 86.1 92.1 C 87.0 92.1 88.9 92.2 89.7 92.0 C 90.8 91.8 92.6 92.1 93.3 92.3 C 94.0 92.5 94.4 92.2 95.9 92.3 C 96.8 92.3 98.1 92.4 99.4 92.4 C 99.4 92.4 99.4 92.4 99.4 92.4 Z M 99.8 92.4 C 101.3 92.4 103.7 92.1 104.3 92.1 C 104.9 92.1 106.9 92.3 107.9 92.2 C 108.8 92.2 109.1 92.0 110.7 91.9 C 112.7 91.9 114.0 92.1 114.1 92.1 C 114.4 92.2 115.3 92.5 116.7 92.4 C 118.5 92.3 119.0 92.5 119.8 92.4 C 121.1 92.1 121.3 92.4 122.3 92.3 C 123.4 92.3 124.0 92.4 124.8 92.3 C 125.8 92.1 126.4 92.4 127.3 92.4 C 128.6 92.4 128.5 90.0 127.2 90.0 C 126.5 90.0 125.8 90.2 125.0 90.2 C 124.2 90.2 123.5 90.2 122.7 90.1 C 121.9 90.0 120.3 90.1 119.0 90.1 C 117.7 90.0 115.6 89.9 114.1 89.9 C 112.6 90.0 111.7 90.5 108.6 90.2 C 107.7 90.0 105.7 90.2 104.9 90.2 C 103.5 90.2 100.8 90.0 99.7 90.0 C 98.3 90.0 98.3 92.4 99.8 92.4 C 99.8 92.4 99.8 92.4 99.8 92.4 Z M 155.1 92.4 C 156.4 92.4 156.6 90.0 155.1 90.0 C 153.6 90.0 150.8 90.2 149.9 90.1 C 149.1 90.1 145.7 89.9 145.0 89.9 C 144.2 89.9 141.7 90.3 140.2 90.1 C 138.7 89.9 137.2 90.3 136.2 90.2 C 134.9 90.0 134.2 90.2 133.3 90.2 C 132.3 90.3 130.8 89.8 130.0 90.0 C 129.1 90.2 128.7 90.0 127.5 90.0 C 126.3 90.0 126.4 92.4 127.4 92.4 C 128.5 92.4 129.5 92.4 130.5 92.3 C 131.6 92.3 132.9 92.2 134.1 92.2 C 135.2 92.2 136.8 92.5 138.0 92.4 C 139.2 92.2 141.0 92.1 141.8 92.1 C 142.7 92.1 144.6 92.2 145.4 92.0 C 146.5 91.8 148.3 92.1 148.9 92.3 C 149.6 92.5 150.1 92.2 151.5 92.3 C 152.4 92.3 153.8 92.4 155.1 92.4 C 155.1 92.4 155.1 92.4 155.1 92.4 Z M 155.5 92.4 C 157.0 92.4 159.4 92.1 160.0 92.1 C 160.6 92.1 162.6 92.3 163.5 92.2 C 164.5 92.2 164.8 92.0 166.4 91.9 C 168.4 91.9 169.7 92.1 169.7 92.1 C 170.0 92.2 171.0 92.5 172.3 92.4 C 174.1 92.3 174.6 92.5 175.4 92.4 C 176.8 92.1 176.9 92.4 178.0 92.3 C 179.0 92.3 179.7 92.4 180.5 92.3 C 181.4 92.1 182.1 92.4 182.9 92.4 C 184.2 92.4 184.1 90.0 182.9 90.0 C 182.1 90.0 181.4 90.2 180.6 90.2 C 179.8 90.2 179.2 90.2 178.4 90.1 C 177.6 90.0 176.0 90.1 174.7 90.1 C 173.4 90.0 171.2 89.9 169.7 89.9 C 168.3 90.0 167.3 90.5 164.3 90.2 C 163.3 90.0 161.4 90.2 160.6 90.2 C 159.2 90.2 156.5 90.0 155.3 90.0 C 153.9 90.0 154.0 92.4 155.5 92.4 C 155.5 92.4 155.5 92.4 155.5 92.4 Z M 211.7 91.7 C 212.7 91.5 212.4 89.1 211.2 89.3 C 210.1 89.5 207.7 90.0 207.0 90.0 C 206.2 90.0 202.6 89.9 201.8 89.9 C 200.9 89.9 197.3 90.3 195.8 90.1 C 194.3 89.9 192.9 90.3 191.8 90.2 C 190.6 90.0 189.9 90.2 188.9 90.2 C 187.9 90.3 186.4 89.8 185.6 90.0 C 184.8 90.2 184.3 90.0 183.2 90.0 C 182.0 90.0 182.0 92.4 183.1 92.4 C 184.2 92.4 185.1 92.4 186.2 92.3 C 187.3 92.3 188.6 92.2 189.8 92.2 C 190.8 92.2 192.4 92.5 193.7 92.4 C 194.9 92.2 196.6 92.1 197.6 92.1 C 198.9 92.1 201.3 92.1 202.3 92.0 C 203.5 91.8 205.5 92.0 206.1 92.2 C 206.8 92.4 207.3 92.1 208.6 92.0 C 209.4 92.0 210.6 91.9 211.7 91.7 C 211.7 91.7 211.7 91.7 211.7 91.7 Z M 211.4 89.3 C 210.5 89.4 210.8 91.9 212.0 91.7 C 213.2 91.4 215.8 90.1 216.6 89.8 C 217.4 89.5 219.7 88.6 220.3 88.2 C 220.9 87.7 223.0 84.7 224.1 83.5 C 225.1 82.4 225.3 81.9 225.7 80.9 C 226.2 79.9 226.6 78.4 226.7 77.6 C 226.9 76.8 227.7 76.2 227.7 75.1 C 227.7 74.0 228.0 73.4 228.1 72.6 C 228.2 71.3 225.8 71.3 225.6 72.4 C 225.5 73.5 225.3 74.1 225.2 75.0 C 225.1 75.8 225.2 76.6 224.8 77.3 C 224.3 78.0 224.0 79.7 223.5 80.8 C 223.1 81.9 222.3 82.9 221.6 83.5 C 220.3 84.8 217.0 87.7 216.4 87.8 C 215.7 87.9 214.0 88.8 213.5 88.9 C 212.9 89.1 212.6 89.0 211.4 89.3 C 211.4 89.3 211.4 89.3 211.4 89.3 Z M 228.1 72.3 C 228.2 70.9 228.0 68.4 228.0 67.8 C 228.0 67.1 228.2 64.8 228.2 63.5 C 228.1 62.3 227.9 61.5 227.9 59.9 C 227.8 58.0 228.0 56.7 228.1 56.6 C 228.2 56.3 228.4 55.3 228.3 54.0 C 228.2 52.2 228.5 51.7 228.4 50.9 C 228.1 49.5 228.3 49.4 228.3 48.3 C 228.2 47.3 228.3 46.6 228.2 45.8 C 228.1 44.9 228.4 44.2 228.4 43.4 C 228.4 42.1 225.9 42.2 225.9 43.4 C 225.9 44.2 226.2 44.9 226.2 45.7 C 226.2 46.5 226.1 47.2 226.0 47.9 C 225.9 48.7 226.1 50.4 226.0 51.6 C 226.0 52.9 225.8 55.1 225.9 56.6 C 225.9 58.0 226.5 58.3 226.1 62.5 C 226.0 63.8 226.1 66.2 226.1 67.1 C 226.0 68.7 225.8 71.2 225.7 72.2 C 225.6 73.4 228.0 73.7 228.1 72.3 C 228.1 72.3 228.1 72.3 228.1 72.3 Z M 223.7 15.8 C 222.8 14.7 220.9 16.2 221.8 17.3 C 222.6 18.4 224.1 20.6 224.4 21.3 C 224.6 22.1 225.1 24.7 225.2 25.2 C 225.3 25.8 226.0 27.8 225.9 29.1 C 225.7 30.5 226.2 32.0 226.1 33.1 C 226.0 34.5 226.1 35.4 226.2 36.6 C 226.2 37.9 225.7 39.9 225.9 40.7 C 226.2 41.5 225.9 42.0 225.9 43.1 C 225.9 44.3 228.4 44.3 228.4 43.2 C 228.4 42.1 228.3 41.2 228.3 40.1 C 228.2 39.0 228.2 37.0 228.2 35.5 C 228.2 34.2 228.4 32.4 228.2 31.1 C 228.0 29.9 227.8 28.2 227.8 27.6 C 227.6 26.8 227.5 25.1 227.2 24.5 C 226.9 23.6 226.7 22.1 226.8 21.5 C 226.8 20.9 226.3 20.4 225.6 19.0 C 225.2 18.1 224.5 16.8 223.7 15.8 C 223.7 15.8 223.7 15.8 223.7 15.8 Z M 223.4 15.4 C 222.4 14.2 220.2 12.8 219.7 12.5 C 219.2 12.1 217.5 10.8 216.6 10.5 C 215.7 10.1 215.2 10.1 213.9 9.8 C 212.3 9.4 211.3 9.0 211.2 9.0 C 211.0 8.9 210.2 8.5 209.0 8.4 C 207.4 8.4 206.9 8.1 206.1 8.2 C 204.7 8.4 204.6 8.2 203.4 8.2 C 202.2 8.2 201.5 8.1 200.4 8.2 C 199.2 8.4 198.3 8.1 197.1 8.1 C 196.2 8.1 196.1 8.7 196.1 9.3 C 196.1 9.9 196.3 10.5 197.2 10.5 C 198.3 10.5 199.2 10.3 200.2 10.3 C 201.2 10.3 202.0 10.3 202.9 10.5 C 203.8 10.6 205.5 10.5 206.7 10.6 C 207.9 10.7 209.7 11.0 210.8 11.2 C 212.0 11.3 212.5 10.6 215.1 12.0 C 215.9 12.5 217.5 13.3 218.1 13.7 C 219.2 14.5 220.9 16.3 221.6 17.1 C 222.4 18.1 224.4 16.6 223.4 15.4 C 223.4 15.4 223.4 15.4 223.4 15.4 Z M 169.2 8.1 C 167.9 8.1 167.7 10.5 169.2 10.5 C 170.7 10.5 173.5 10.3 174.4 10.4 C 175.2 10.4 178.6 10.6 179.3 10.6 C 180.1 10.6 182.6 10.2 184.1 10.4 C 185.6 10.6 187.1 10.2 188.1 10.3 C 189.4 10.4 190.1 10.3 191.0 10.3 C 192.0 10.2 193.5 10.7 194.3 10.5 C 195.2 10.3 195.6 10.5 196.8 10.5 C 197.9 10.5 198.5 8.1 196.9 8.1 C 195.3 8.1 194.8 8.1 193.7 8.2 C 192.7 8.2 191.3 8.3 190.2 8.3 C 189.1 8.3 187.5 8.0 186.3 8.1 C 185.1 8.3 183.3 8.4 182.5 8.4 C 181.6 8.4 179.7 8.3 178.9 8.5 C 177.8 8.6 176.0 8.4 175.3 8.2 C 174.7 8.0 174.2 8.3 172.8 8.2 C 171.9 8.2 170.5 8.1 169.2 8.1 C 169.2 8.1 169.2 8.1 169.2 8.1 Z M 168.8 8.1 C 167.3 8.1 164.9 8.4 164.3 8.4 C 163.7 8.4 161.7 8.2 160.8 8.3 C 159.8 8.3 159.5 8.5 157.9 8.6 C 155.9 8.6 154.6 8.4 154.5 8.4 C 154.3 8.3 153.3 8.0 152.0 8.1 C 150.2 8.2 149.7 8.0 148.9 8.1 C 147.5 8.4 147.4 8.1 146.3 8.2 C 145.3 8.2 144.6 8.1 143.8 8.2 C 142.9 8.4 142.2 8.1 141.4 8.1 C 140.1 8.1 140.2 10.5 141.4 10.5 C 142.2 10.5 142.9 10.3 143.7 10.3 C 144.4 10.3 145.1 10.3 145.9 10.4 C 146.7 10.5 148.3 10.4 149.6 10.4 C 150.9 10.5 153.1 10.6 154.5 10.6 C 156.0 10.5 157.0 9.9 160.0 10.3 C 161.0 10.4 162.9 10.3 163.7 10.3 C 165.1 10.3 167.8 10.5 169.0 10.5 C 170.3 10.5 170.3 8.1 168.8 8.1 C 168.8 8.1 168.8 8.1 168.8 8.1 Z M 113.6 8.1 C 112.3 8.1 112.0 10.5 113.6 10.5 C 115.1 10.5 117.9 10.3 118.7 10.4 C 119.5 10.4 123.0 10.6 123.7 10.6 C 124.4 10.6 127.0 10.2 128.5 10.4 C 130.0 10.6 131.4 10.2 132.4 10.3 C 133.7 10.4 134.4 10.3 135.4 10.3 C 136.4 10.2 137.9 10.7 138.7 10.5 C 139.5 10.3 140.0 10.5 141.1 10.5 C 142.3 10.5 142.3 8.1 141.2 8.1 C 140.1 8.1 139.2 8.1 138.1 8.2 C 137.0 8.2 135.7 8.3 134.5 8.3 C 133.5 8.3 131.9 8.0 130.6 8.1 C 129.4 8.3 127.6 8.4 126.9 8.4 C 126.0 8.4 124.1 8.3 123.2 8.5 C 122.2 8.6 120.4 8.4 119.7 8.2 C 119.0 8.0 118.6 8.3 117.1 8.2 C 116.2 8.2 114.9 8.1 113.6 8.1 C 113.6 8.1 113.6 8.1 113.6 8.1 Z M 113.4 10.5 C 114.5 10.5 114.6 8.1 113.2 8.1 C 111.8 8.1 108.6 8.5 107.8 8.5 C 107.0 8.4 104.7 8.0 104.0 8.0 C 103.3 8.0 99.8 8.7 98.3 8.5 C 96.8 8.3 96.4 8.4 95.3 8.4 C 94.3 8.4 92.7 8.5 91.7 8.6 C 90.7 8.6 89.8 8.0 88.5 8.2 C 87.3 8.3 86.6 8.1 85.7 8.1 C 84.3 8.1 84.3 10.5 85.7 10.5 C 86.9 10.5 87.8 10.7 88.9 10.6 C 90.0 10.6 90.9 10.3 91.9 10.6 C 93.0 10.8 95.0 10.6 96.2 10.4 C 97.4 10.3 98.8 10.3 99.8 10.4 C 101.7 10.6 106.4 10.2 107.1 10.4 C 107.7 10.6 109.9 10.4 110.7 10.4 C 111.4 10.4 111.8 10.5 113.4 10.5 C 113.4 10.5 113.4 10.5 113.4 10.5 Z M 85.3 8.1 C 83.9 8.1 81.4 8.4 80.8 8.4 C 80.2 8.4 78.2 8.2 77.3 8.3 C 76.4 8.3 76.0 8.5 74.4 8.6 C 72.5 8.6 71.2 8.4 71.1 8.4 C 70.8 8.3 69.8 8.0 68.5 8.1 C 66.7 8.2 66.2 8.0 65.4 8.1 C 64.0 8.4 63.9 8.1 62.8 8.2 C 61.8 8.2 61.2 8.1 60.3 8.2 C 59.4 8.4 58.7 8.1 57.9 8.1 C 56.6 8.1 56.7 10.5 58.0 10.5 C 58.7 10.5 59.4 10.3 60.2 10.3 C 61.0 10.3 61.7 10.3 62.5 10.4 C 63.2 10.5 64.9 10.4 66.2 10.4 C 67.4 10.5 69.6 10.6 71.1 10.6 C 72.6 10.5 73.5 9.9 76.5 10.3 C 77.5 10.4 79.5 10.3 80.3 10.3 C 81.6 10.3 84.3 10.5 85.5 10.5 C 86.9 10.5 86.8 8.1 85.3 8.1 C 85.3 8.1 85.3 8.1 85.3 8.1 Z M 28.6 8.3 C 27.4 8.4 27.4 10.8 28.8 10.7 C 30.1 10.6 33.1 10.3 34.0 10.4 C 35.0 10.4 39.5 10.6 40.2 10.6 C 40.9 10.6 43.5 10.2 45.0 10.4 C 46.5 10.6 47.9 10.2 49.0 10.3 C 50.2 10.4 50.9 10.3 51.9 10.3 C 52.9 10.2 54.4 10.7 55.2 10.5 C 56.0 10.3 56.5 10.5 57.7 10.5 C 58.8 10.5 58.8 8.1 57.7 8.1 C 56.6 8.1 55.7 8.1 54.6 8.2 C 53.5 8.2 52.2 8.3 51.0 8.3 C 50.0 8.3 48.4 8.0 47.2 8.1 C 45.9 8.3 44.1 8.4 43.4 8.4 C 42.5 8.4 40.6 8.3 39.8 8.5 C 38.7 8.6 36.1 8.4 35.2 8.2 C 34.4 8.0 33.8 8.3 32.2 8.3 C 31.2 8.2 29.8 8.2 28.6 8.3 C 28.6 8.3 28.6 8.3 28.6 8.3 Z M 28.2 8.3 C 26.8 8.4 24.8 9.0 24.3 9.1 C 23.8 9.2 22.2 9.4 21.4 9.7 C 20.7 10.0 20.2 10.3 18.8 11.1 C 17.0 12.1 15.8 12.8 15.7 12.8 C 15.5 13.0 14.5 13.4 13.6 14.5 C 12.3 15.9 11.9 16.2 11.5 17.0 C 10.9 18.4 10.6 18.3 10.2 19.4 C 9.7 20.4 9.3 21.1 9.2 21.8 C 9.2 22.6 8.7 23.1 8.6 23.7 C 8.3 24.8 10.8 25.2 11.0 24.2 C 11.1 23.7 11.0 23.1 11.2 22.5 C 11.3 21.9 11.6 21.3 12.0 20.7 C 12.5 20.1 13.1 18.7 13.8 17.7 C 14.6 16.8 16.1 15.5 17.1 14.6 C 18.2 13.7 18.6 12.6 21.4 11.9 C 22.3 11.6 23.6 11.2 24.2 11.1 C 25.3 10.9 27.5 10.8 28.5 10.7 C 29.8 10.6 29.6 8.2 28.2 8.3 C 28.2 8.3 28.2 8.3 28.2 8.3 Z M 11.0 24.4 C 11.1 23.5 8.8 22.9 8.5 24.0 C 8.3 25.2 8.4 28.0 8.3 28.8 C 8.2 29.5 7.6 31.8 7.6 32.6 C 7.6 33.0 7.7 34.2 7.9 35.6 C 8.0 37.0 8.2 39.0 8.1 39.8 C 7.9 41.3 8.0 41.7 8.0 42.7 C 8.0 43.8 8.1 45.4 8.2 46.4 C 8.2 47.4 7.6 48.2 7.8 49.5 C 7.9 50.8 7.7 51.5 7.7 52.4 C 7.7 53.8 10.1 53.7 10.1 52.4 C 10.1 51.1 10.3 50.2 10.2 49.2 C 10.2 48.1 9.9 47.1 10.2 46.1 C 10.4 45.1 10.2 43.1 10.0 41.9 C 9.8 40.6 9.9 39.1 10.0 37.7 C 10.2 35.1 9.9 30.2 10.1 29.6 C 10.4 28.9 10.3 27.1 10.4 26.5 C 10.5 25.9 10.7 25.6 11.0 24.4 C 11.0 24.4 11.0 24.4 11.0 24.4 Z M 7.7 52.7 C 7.7 54.2 8.0 56.6 8.0 57.2 C 8.0 57.8 7.8 59.8 7.9 60.8 C 7.9 61.7 8.1 62.5 8.2 64.5 C 8.3 67.0 8.0 68.4 8.0 68.5 C 7.9 68.8 7.7 69.8 7.9 71.1 C 8.1 72.8 7.9 73.2 8.1 73.9 C 8.5 75.1 8.3 75.2 8.5 76.1 C 8.7 76.9 8.8 77.5 9.1 78.1 C 9.4 78.8 9.4 79.6 9.7 80.4 C 10.3 81.7 12.4 80.4 12.0 79.4 C 11.7 78.7 11.2 78.3 11.1 77.7 C 10.9 77.1 10.8 76.5 10.8 75.9 C 10.8 75.3 10.4 74.1 10.4 73.0 C 10.3 71.9 10.3 70.0 10.2 68.4 C 10.1 66.8 9.5 66.1 9.9 61.8 C 10.0 60.4 9.9 58.6 9.9 57.8 C 9.9 56.4 10.1 53.7 10.1 52.6 C 10.1 51.2 7.7 51.2 7.7 52.7 C 7.7 52.7 7.7 52.7 7.7 52.7 Z M 12.1 79.6 C 11.6 78.6 9.3 79.4 9.9 80.7 C 10.6 82.1 12.8 84.6 13.4 85.3 C 13.9 85.9 15.4 87.9 16.0 88.3 C 16.6 88.8 20.4 90.1 21.5 90.6 C 22.6 91.2 23.0 91.1 23.9 91.3 C 24.7 91.5 26.1 91.5 26.9 91.6 C 27.8 91.6 28.6 92.3 29.8 92.2 C 31.1 92.1 31.9 92.4 32.9 92.4 C 34.5 92.4 34.4 90.0 32.9 89.9 C 31.5 89.9 30.6 89.7 29.6 89.7 C 28.6 89.7 27.8 89.9 26.9 89.6 C 26.1 89.2 24.6 89.2 23.6 89.2 C 22.6 89.1 21.7 88.8 20.9 88.3 C 19.2 87.4 15.5 85.1 15.2 84.5 C 14.9 83.9 13.5 82.5 13.2 81.9 C 12.8 81.3 12.7 80.9 12.1 79.6 C 12.1 79.6 12.1 79.6 12.1 79.6 Z M 39.2 93.1 C 39.2 93.1 39.2 93.0 39.2 91.6 C 39.2 90.3 39.2 89.2 39.2 89.2 C 39.2 89.2 39.2 90.0 39.2 90.0 C 39.1 90.0 39.1 92.4 39.2 92.4 C 39.2 92.4 39.2 93.1 39.2 93.1 C 39.2 93.1 39.2 93.1 39.2 93.1 Z M 39.1 89.2 C 39.1 89.2 39.1 89.9 39.1 91.2 C 39.1 92.5 39.1 93.1 39.1 93.1 C 39.1 93.1 39.1 92.4 39.1 92.4 C 39.2 92.4 39.2 90.0 39.1 90.0 C 39.1 90.0 39.1 89.2 39.1 89.2 C 39.1 89.2 39.1 89.2 39.1 89.2 Z M 39.1 89.2 " fill="#FF7777"></path></g></g><g><clipPath id="clip-1083"><path d="M 44.5 24.1 L 191.5 24.1 L 191.5 76.4 L 44.5 76.4 Z M 44.5 24.1 "></path></clipPath><g clip-path="url(#clip-1083)"><text xml:space="preserve" font-family="AmericanTypewriter" font-size="30.0" fill="#000000" transform="matrix(1.00, 0.00, -0.00, -1.00, 54.0, 40.0)">E</text><text xml:space="preserve" font-family="AmericanTypewriter" font-size="30.0" fill="#000000" transform="matrix(1.00, 0.00, -0.00, -1.00, 74.2, 40.0)">p</text><text xml:space="preserve" font-family="AmericanTypewriter" font-size="30.0" fill="#000000" transform="matrix(1.00, 0.00, -0.00, -1.00, 92.2, 40.0)">o</text><text xml:space="preserve" font-family="AmericanTypewriter" font-size="30.0" fill="#000000" transform="matrix(1.00, 0.00, -0.00, -1.00, 108.6, 40.0)">u</text><text xml:space="preserve" font-family="AmericanTypewriter" font-size="30.0" fill="#000000" transform="matrix(1.00, 0.00, -0.00, -1.00, 127.1, 40.0)">t</text><text xml:space="preserve" font-family="AmericanTypewriter" font-size="30.0" fill="#000000" transform="matrix(1.00, 0.00, -0.00, -1.00, 139.1, 40.0)">a</text><text xml:space="preserve" font-family="AmericanTypewriter" font-size="30.0" fill="#000000" transform="matrix(1.00, 0.00, -0.00, -1.00, 156.1, 40.0)"> </text><text xml:space="preserve" font-family="AmericanTypewriter" font-size="30.0" fill="#000000" transform="matrix(1.00, 0.00, -0.00, -1.00, 163.6, 40.0)">1</text></g></g><g><clipPath id="clip-1084"><path d="M 604.0 0.5 L 839.9 0.5 L 839.9 100.0 L 604.0 100.0 Z M 604.0 0.5 "></path></clipPath><g clip-path="url(#clip-1084)"><image xlink:href="../../14F397CC-C286-42D9-A2F1-53C679F93897/assets/9C11A9BFE2462ACD0C8F53A82701A181.png" width="234.00" height="98.00" transform="matrix(1.00, 0.00, -0.00, -1.00, 605.0, 99.0)" opacity="0.50"></image><path d="M 643.0 91.2 L 800.9 91.2 C 809.6 91.2 814.0 91.2 818.6 89.7 C 823.7 87.9 827.8 83.8 829.6 78.7 C 831.1 74.1 831.1 69.7 831.1 60.9 L 831.1 39.5 C 831.1 30.8 831.1 26.4 829.6 21.8 C 827.8 16.7 823.7 12.6 818.6 10.8 C 814.0 9.3 809.6 9.3 800.8 9.3 L 643.0 9.3 C 634.4 9.3 630.0 9.3 625.3 10.8 C 620.2 12.6 616.2 16.7 614.3 21.8 C 612.9 26.4 612.9 30.8 612.9 39.6 L 612.9 61.0 C 612.9 69.7 612.9 74.1 614.3 78.7 C 616.2 83.8 620.2 87.9 625.3 89.7 C 630.0 91.2 634.4 91.2 643.2 91.2 Z M 643.0 91.2 " fill="#DDF3D0"></path><path d="M 643.7 89.3 C 642.8 89.3 641.6 89.4 641.4 90.7 C 641.3 92.1 642.3 93.1 643.6 93.1 C 645.0 93.1 644.6 92.4 647.8 92.4 C 649.0 92.4 649.0 90.0 647.8 90.0 C 645.0 90.0 645.4 89.3 643.7 89.3 C 643.7 89.3 643.7 89.3 643.7 89.3 Z M 642.0 93.1 C 642.4 93.1 642.8 93.1 643.2 93.1 L 643.2 89.3 C 642.1 89.5 641.7 90.1 641.6 91.2 C 641.6 92.3 642.2 92.9 643.2 93.1 L 643.2 89.3 C 642.8 89.3 642.4 89.2 642.0 89.2 C 640.0 89.2 639.9 90.0 637.2 89.9 C 635.7 89.9 635.9 92.4 637.1 92.4 C 640.1 92.4 639.7 93.1 642.0 93.1 C 642.0 93.1 642.0 93.1 642.0 93.1 Z M 647.9 89.9 C 646.7 89.9 646.7 92.4 648.1 92.4 C 649.5 92.4 652.7 92.0 653.5 92.0 C 654.3 92.1 656.6 92.5 657.3 92.5 C 658.0 92.5 661.5 91.8 663.0 92.0 C 664.5 92.2 664.9 92.1 666.0 92.1 C 667.0 92.1 668.6 92.0 669.6 91.9 C 670.6 91.9 671.5 92.5 672.8 92.3 C 674.0 92.2 674.7 92.4 675.6 92.4 C 677.0 92.4 676.9 90.0 675.6 90.0 C 674.4 90.0 673.5 89.8 672.4 89.9 C 671.3 89.9 670.4 90.2 669.4 89.9 C 668.3 89.7 666.3 89.9 665.1 90.1 C 663.9 90.2 662.5 90.2 661.5 90.1 C 659.6 89.9 654.9 90.3 654.2 90.1 C 653.5 89.9 651.4 90.1 650.6 90.1 C 649.9 90.1 649.5 89.9 647.9 89.9 C 647.9 89.9 647.9 89.9 647.9 89.9 Z M 703.4 92.4 C 704.7 92.4 704.9 90.0 703.4 90.0 C 701.9 90.0 699.1 90.2 698.2 90.1 C 697.4 90.1 694.0 89.9 693.3 89.9 C 692.6 89.9 690.0 90.3 688.5 90.1 C 687.0 89.9 685.5 90.3 684.5 90.2 C 683.2 90.0 682.5 90.2 681.6 90.2 C 680.6 90.3 679.1 89.8 678.3 90.0 C 677.4 90.2 677.0 90.0 675.8 90.0 C 674.7 90.0 674.7 92.4 675.7 92.4 C 676.8 92.4 677.8 92.4 678.9 92.3 C 679.9 92.3 681.3 92.2 682.4 92.2 C 683.5 92.2 685.1 92.5 686.3 92.4 C 687.5 92.2 689.3 92.1 690.1 92.1 C 691.0 92.1 692.9 92.2 693.7 92.0 C 694.8 91.8 696.6 92.1 697.3 92.3 C 697.9 92.5 698.4 92.2 699.8 92.3 C 700.7 92.3 702.1 92.4 703.4 92.4 C 703.4 92.4 703.4 92.4 703.4 92.4 Z M 703.8 92.4 C 705.3 92.4 707.7 92.1 708.3 92.1 C 708.9 92.1 710.9 92.3 711.8 92.2 C 712.8 92.2 713.1 92.0 714.7 91.9 C 716.7 91.9 718.0 92.1 718.1 92.1 C 718.3 92.2 719.3 92.5 720.6 92.4 C 722.4 92.3 722.9 92.5 723.7 92.4 C 725.1 92.1 725.2 92.4 726.3 92.3 C 727.3 92.3 728.0 92.4 728.8 92.3 C 729.7 92.1 730.4 92.4 731.2 92.4 C 732.5 92.4 732.4 90.0 731.2 90.0 C 730.4 90.0 729.7 90.2 728.9 90.2 C 728.2 90.2 727.5 90.2 726.7 90.1 C 725.9 90.0 724.3 90.1 723.0 90.1 C 721.7 90.0 719.5 89.9 718.1 89.9 C 716.6 90.0 715.6 90.5 712.6 90.2 C 711.6 90.0 709.7 90.2 708.9 90.2 C 707.5 90.2 704.8 90.0 703.6 90.0 C 702.3 90.0 702.3 92.4 703.8 92.4 C 703.8 92.4 703.8 92.4 703.8 92.4 Z M 759.0 92.4 C 760.3 92.4 760.6 90.0 759.0 90.0 C 757.5 90.0 754.7 90.2 753.9 90.1 C 753.1 90.1 749.6 89.9 748.9 89.9 C 748.2 89.9 745.6 90.3 744.1 90.1 C 742.6 89.9 741.2 90.3 740.2 90.2 C 738.9 90.0 738.2 90.2 737.2 90.2 C 736.2 90.3 734.7 89.8 733.9 90.0 C 733.1 90.2 732.6 90.0 731.5 90.0 C 730.3 90.0 730.3 92.4 731.4 92.4 C 732.5 92.4 733.4 92.4 734.5 92.3 C 735.6 92.3 736.9 92.2 738.1 92.2 C 739.1 92.2 740.7 92.5 742.0 92.4 C 743.2 92.2 745.0 92.1 745.7 92.1 C 746.6 92.1 748.5 92.2 749.4 92.0 C 750.4 91.8 752.2 92.1 752.9 92.3 C 753.6 92.5 754.0 92.2 755.5 92.3 C 756.4 92.3 757.7 92.4 759.0 92.4 C 759.0 92.4 759.0 92.4 759.0 92.4 Z M 759.4 92.4 C 760.9 92.4 763.4 92.1 764.0 92.1 C 764.5 92.1 766.5 92.3 767.5 92.2 C 768.4 92.2 768.7 92.0 770.3 91.9 C 772.3 91.9 773.6 92.1 773.7 92.1 C 774.0 92.2 774.9 92.5 776.3 92.4 C 778.1 92.3 778.6 92.5 779.4 92.4 C 780.8 92.1 780.9 92.4 781.9 92.3 C 783.0 92.3 783.6 92.4 784.5 92.3 C 785.4 92.1 786.0 92.4 786.9 92.4 C 788.2 92.4 788.1 90.0 786.8 90.0 C 786.1 90.0 785.4 90.2 784.6 90.2 C 783.8 90.2 783.1 90.2 782.3 90.1 C 781.5 90.0 779.9 90.1 778.6 90.1 C 777.3 90.0 775.2 89.9 773.7 89.9 C 772.2 90.0 771.3 90.5 768.3 90.2 C 767.3 90.0 765.3 90.2 764.5 90.2 C 763.1 90.2 760.4 90.0 759.3 90.0 C 757.9 90.0 757.9 92.4 759.4 92.4 C 759.4 92.4 759.4 92.4 759.4 92.4 Z M 815.6 91.7 C 816.7 91.5 816.3 89.1 815.2 89.3 C 814.0 89.5 811.7 90.0 810.9 90.0 C 810.2 90.0 806.6 89.9 805.7 89.9 C 804.9 89.9 801.3 90.3 799.8 90.1 C 798.3 89.9 796.8 90.3 795.8 90.2 C 794.5 90.0 793.8 90.2 792.9 90.2 C 791.9 90.3 790.4 89.8 789.6 90.0 C 788.7 90.2 788.3 90.0 787.1 90.0 C 786.0 90.0 786.0 92.4 787.1 92.4 C 788.1 92.4 789.1 92.4 790.2 92.3 C 791.2 92.3 792.6 92.2 793.7 92.2 C 794.8 92.2 796.4 92.5 797.6 92.4 C 798.9 92.2 800.5 92.1 801.6 92.1 C 802.8 92.1 805.3 92.1 806.3 92.0 C 807.5 91.8 809.4 92.0 810.1 92.2 C 810.8 92.4 811.2 92.1 812.5 92.0 C 813.3 92.0 814.5 91.9 815.6 91.7 C 815.6 91.7 815.6 91.7 815.6 91.7 Z M 815.3 89.3 C 814.4 89.4 814.8 91.9 815.9 91.7 C 817.1 91.4 819.7 90.1 820.5 89.8 C 821.3 89.5 823.6 88.6 824.3 88.2 C 824.9 87.7 827.0 84.7 828.0 83.5 C 829.1 82.4 829.2 81.9 829.7 80.9 C 830.2 79.9 830.6 78.4 830.7 77.6 C 830.9 76.8 831.7 76.2 831.7 75.1 C 831.7 74.0 832.0 73.4 832.0 72.6 C 832.2 71.3 829.7 71.3 829.6 72.4 C 829.5 73.5 829.3 74.1 829.2 75.0 C 829.1 75.8 829.2 76.6 828.7 77.3 C 828.3 78.0 827.9 79.7 827.5 80.8 C 827.1 81.9 826.3 82.9 825.6 83.5 C 824.3 84.8 821.0 87.7 820.3 87.8 C 819.7 87.9 818.0 88.8 817.4 88.9 C 816.9 89.1 816.5 89.0 815.3 89.3 C 815.3 89.3 815.3 89.3 815.3 89.3 Z M 832.1 72.3 C 832.2 70.9 831.9 68.4 831.9 67.8 C 832.0 67.1 832.2 64.8 832.1 63.5 C 832.1 62.3 831.9 61.5 831.8 59.9 C 831.8 58.0 832.0 56.7 832.0 56.6 C 832.1 56.3 832.4 55.3 832.3 54.0 C 832.2 52.2 832.4 51.7 832.3 50.9 C 832.0 49.5 832.3 49.4 832.2 48.3 C 832.2 47.3 832.3 46.6 832.2 45.8 C 832.0 44.9 832.3 44.2 832.3 43.4 C 832.3 42.1 829.9 42.2 829.9 43.4 C 829.9 44.2 830.1 44.9 830.1 45.7 C 830.1 46.5 830.1 47.2 830.0 47.9 C 829.9 48.7 830.0 50.4 830.0 51.6 C 829.9 52.9 829.8 55.1 829.8 56.6 C 829.9 58.0 830.5 58.3 830.1 62.5 C 830.0 63.8 830.0 66.2 830.0 67.1 C 830.0 68.7 829.7 71.2 829.6 72.2 C 829.5 73.4 831.9 73.7 832.1 72.3 C 832.1 72.3 832.1 72.3 832.1 72.3 Z M 827.6 15.8 C 826.8 14.7 824.8 16.2 825.7 17.3 C 826.6 18.4 828.1 20.6 828.3 21.3 C 828.6 22.1 829.1 24.7 829.2 25.2 C 829.3 25.8 829.9 27.8 829.8 29.1 C 829.7 30.5 830.1 32.0 830.1 33.1 C 829.9 34.5 830.1 35.4 830.1 36.6 C 830.2 37.9 829.7 39.9 829.9 40.7 C 830.1 41.5 829.9 42.0 829.9 43.1 C 829.9 44.3 832.3 44.3 832.3 43.2 C 832.3 42.1 832.3 41.2 832.2 40.1 C 832.2 39.0 832.1 37.0 832.1 35.5 C 832.1 34.2 832.4 32.4 832.2 31.1 C 832.0 29.9 831.8 28.2 831.7 27.6 C 831.6 26.8 831.4 25.1 831.2 24.5 C 830.8 23.6 830.7 22.1 830.7 21.5 C 830.7 20.9 830.2 20.4 829.6 19.0 C 829.2 18.1 828.5 16.8 827.6 15.8 C 827.6 15.8 827.6 15.8 827.6 15.8 Z M 827.3 15.4 C 826.3 14.2 824.2 12.8 823.7 12.5 C 823.2 12.1 821.5 10.8 820.5 10.5 C 819.6 10.1 819.1 10.1 817.9 9.8 C 816.3 9.4 815.2 9.0 815.2 9.0 C 814.9 8.9 814.2 8.5 813.0 8.4 C 811.4 8.4 810.9 8.1 810.1 8.2 C 808.7 8.4 808.5 8.2 807.4 8.2 C 806.2 8.2 805.4 8.1 804.4 8.2 C 803.2 8.4 802.3 8.1 801.1 8.1 C 800.1 8.1 800.0 8.7 800.1 9.3 C 800.1 9.9 800.3 10.5 801.2 10.5 C 802.2 10.5 803.2 10.3 804.2 10.3 C 805.2 10.3 806.0 10.3 806.9 10.5 C 807.8 10.6 809.5 10.5 810.7 10.6 C 811.9 10.7 813.6 11.0 814.8 11.2 C 815.9 11.3 816.5 10.6 819.0 12.0 C 819.8 12.5 821.5 13.3 822.1 13.7 C 823.2 14.5 824.9 16.3 825.6 17.1 C 826.4 18.1 828.4 16.6 827.3 15.4 C 827.3 15.4 827.3 15.4 827.3 15.4 Z M 773.2 8.1 C 771.9 8.1 771.7 10.5 773.2 10.5 C 774.7 10.5 777.5 10.3 778.3 10.4 C 779.1 10.4 782.6 10.6 783.3 10.6 C 784.0 10.6 786.6 10.2 788.1 10.4 C 789.6 10.6 791.0 10.2 792.1 10.3 C 793.3 10.4 794.0 10.3 795.0 10.3 C 796.0 10.2 797.5 10.7 798.3 10.5 C 799.1 10.3 799.6 10.5 800.7 10.5 C 801.9 10.5 802.4 8.1 800.8 8.1 C 799.2 8.1 798.8 8.1 797.7 8.2 C 796.6 8.2 795.3 8.3 794.1 8.3 C 793.1 8.3 791.5 8.0 790.2 8.1 C 789.0 8.3 787.2 8.4 786.5 8.4 C 785.6 8.4 783.7 8.3 782.9 8.5 C 781.8 8.6 780.0 8.4 779.3 8.2 C 778.6 8.0 778.2 8.3 776.7 8.2 C 775.8 8.2 774.5 8.1 773.2 8.1 C 773.2 8.1 773.2 8.1 773.2 8.1 Z M 772.8 8.1 C 771.3 8.1 768.9 8.4 768.3 8.4 C 767.7 8.4 765.7 8.2 764.7 8.3 C 763.8 8.3 763.5 8.5 761.9 8.6 C 759.9 8.6 758.6 8.4 758.5 8.4 C 758.2 8.3 757.3 8.0 755.9 8.1 C 754.1 8.2 753.6 8.0 752.8 8.1 C 751.5 8.4 751.3 8.1 750.3 8.2 C 749.2 8.2 748.6 8.1 747.8 8.2 C 746.8 8.4 746.2 8.1 745.3 8.1 C 744.0 8.1 744.1 10.5 745.4 10.5 C 746.1 10.5 746.8 10.3 747.6 10.3 C 748.4 10.3 749.1 10.3 749.9 10.4 C 750.7 10.5 752.3 10.4 753.6 10.4 C 754.9 10.5 757.0 10.6 758.5 10.6 C 760.0 10.5 760.9 9.9 764.0 10.3 C 764.9 10.4 766.9 10.3 767.7 10.3 C 769.1 10.3 771.8 10.5 772.9 10.5 C 774.3 10.5 774.3 8.1 772.8 8.1 C 772.8 8.1 772.8 8.1 772.8 8.1 Z M 717.5 8.1 C 716.2 8.1 716.0 10.5 717.5 10.5 C 719.0 10.5 721.8 10.3 722.7 10.4 C 723.5 10.4 726.9 10.6 727.6 10.6 C 728.4 10.6 730.9 10.2 732.4 10.4 C 733.9 10.6 735.4 10.2 736.4 10.3 C 737.7 10.4 738.4 10.3 739.3 10.3 C 740.3 10.2 741.8 10.7 742.6 10.5 C 743.5 10.3 743.9 10.5 745.1 10.5 C 746.3 10.5 746.2 8.1 745.2 8.1 C 744.1 8.1 743.1 8.1 742.1 8.2 C 741.0 8.2 739.7 8.3 738.5 8.3 C 737.4 8.3 735.8 8.0 734.6 8.1 C 733.4 8.3 731.6 8.4 730.8 8.4 C 729.9 8.4 728.0 8.3 727.2 8.5 C 726.1 8.6 724.3 8.4 723.7 8.2 C 723.0 8.0 722.5 8.3 721.1 8.2 C 720.2 8.2 718.8 8.1 717.5 8.1 C 717.5 8.1 717.5 8.1 717.5 8.1 Z M 717.3 10.5 C 718.5 10.5 718.5 8.1 717.2 8.1 C 715.7 8.1 712.6 8.5 711.8 8.5 C 710.9 8.4 708.7 8.0 707.9 8.0 C 707.2 8.0 703.7 8.7 702.2 8.5 C 700.7 8.3 700.3 8.4 699.3 8.4 C 698.3 8.4 696.6 8.5 695.6 8.6 C 694.7 8.6 693.8 8.0 692.5 8.2 C 691.2 8.3 690.5 8.1 689.6 8.1 C 688.2 8.1 688.3 10.5 689.6 10.5 C 690.9 10.5 691.8 10.7 692.9 10.6 C 693.9 10.6 694.9 10.3 695.9 10.6 C 696.9 10.8 698.9 10.6 700.2 10.4 C 701.4 10.3 702.8 10.3 703.7 10.4 C 705.7 10.6 710.4 10.2 711.0 10.4 C 711.7 10.6 713.8 10.4 714.6 10.4 C 715.4 10.4 715.8 10.5 717.3 10.5 C 717.3 10.5 717.3 10.5 717.3 10.5 Z M 689.3 8.1 C 687.8 8.1 685.4 8.4 684.8 8.4 C 684.2 8.4 682.2 8.2 681.3 8.3 C 680.3 8.3 680.0 8.5 678.4 8.6 C 676.4 8.6 675.1 8.4 675.0 8.4 C 674.7 8.3 673.8 8.0 672.5 8.1 C 670.7 8.2 670.1 8.0 669.3 8.1 C 668.0 8.4 667.8 8.1 666.8 8.2 C 665.8 8.2 665.1 8.1 664.3 8.2 C 663.4 8.4 662.7 8.1 661.9 8.1 C 660.5 8.1 660.7 10.5 661.9 10.5 C 662.7 10.5 663.3 10.3 664.1 10.3 C 664.9 10.3 665.6 10.3 666.4 10.4 C 667.2 10.5 668.8 10.4 670.1 10.4 C 671.4 10.5 673.5 10.6 675.0 10.6 C 676.5 10.5 677.4 9.9 680.5 10.3 C 681.5 10.4 683.4 10.3 684.2 10.3 C 685.6 10.3 688.3 10.5 689.4 10.5 C 690.8 10.5 690.8 8.1 689.3 8.1 C 689.3 8.1 689.3 8.1 689.3 8.1 Z M 632.6 8.3 C 631.3 8.4 631.3 10.8 632.7 10.7 C 634.1 10.6 637.0 10.3 638.0 10.4 C 639.0 10.4 643.4 10.6 644.2 10.6 C 644.9 10.6 647.5 10.2 649.0 10.4 C 650.4 10.6 651.9 10.2 652.9 10.3 C 654.2 10.4 654.9 10.3 655.9 10.3 C 656.8 10.2 658.3 10.7 659.2 10.5 C 660.0 10.3 660.5 10.5 661.6 10.5 C 662.8 10.5 662.8 8.1 661.7 8.1 C 660.6 8.1 659.7 8.1 658.6 8.2 C 657.5 8.2 656.2 8.3 655.0 8.3 C 653.9 8.3 652.4 8.0 651.1 8.1 C 649.9 8.3 648.1 8.4 647.4 8.4 C 646.5 8.4 644.6 8.3 643.7 8.5 C 642.7 8.6 640.0 8.4 639.2 8.2 C 638.3 8.0 637.8 8.3 636.2 8.3 C 635.2 8.2 633.8 8.2 632.6 8.3 C 632.6 8.3 632.6 8.3 632.6 8.3 Z M 632.2 8.3 C 630.8 8.4 628.8 9.0 628.3 9.1 C 627.8 9.2 626.1 9.4 625.4 9.7 C 624.6 10.0 624.2 10.3 622.8 11.1 C 621.0 12.1 619.8 12.8 619.7 12.8 C 619.4 13.0 618.5 13.4 617.5 14.5 C 616.3 15.9 615.8 16.2 615.4 17.0 C 614.9 18.4 614.6 18.3 614.1 19.4 C 613.7 20.4 613.3 21.1 613.2 21.8 C 613.1 22.6 612.7 23.1 612.5 23.7 C 612.3 24.8 614.7 25.2 615.0 24.2 C 615.1 23.7 615.0 23.1 615.1 22.5 C 615.3 21.9 615.6 21.3 616.0 20.7 C 616.4 20.1 617.0 18.7 617.8 17.7 C 618.5 16.8 620.0 15.5 621.1 14.6 C 622.1 13.7 622.5 12.6 625.4 11.9 C 626.3 11.6 627.6 11.2 628.2 11.1 C 629.3 10.9 631.5 10.8 632.5 10.7 C 633.7 10.6 633.6 8.2 632.2 8.3 C 632.2 8.3 632.2 8.3 632.2 8.3 Z M 614.9 24.4 C 615.1 23.5 612.7 22.9 612.5 24.0 C 612.2 25.2 612.3 28.0 612.2 28.8 C 612.1 29.5 611.6 31.8 611.6 32.6 C 611.5 33.0 611.7 34.2 611.9 35.6 C 612.0 37.0 612.1 39.0 612.0 39.8 C 611.8 41.3 611.9 41.7 611.9 42.7 C 611.9 43.8 612.1 45.4 612.1 46.4 C 612.2 47.4 611.5 48.2 611.7 49.5 C 611.9 50.8 611.6 51.5 611.6 52.4 C 611.6 53.8 614.1 53.7 614.1 52.4 C 614.1 51.1 614.2 50.2 614.2 49.2 C 614.1 48.1 613.9 47.1 614.1 46.1 C 614.4 45.1 614.1 43.1 614.0 41.9 C 613.8 40.6 613.9 39.1 614.0 37.7 C 614.2 35.1 613.9 30.2 614.1 29.6 C 614.3 28.9 614.3 27.1 614.4 26.5 C 614.5 25.9 614.7 25.6 614.9 24.4 C 614.9 24.4 614.9 24.4 614.9 24.4 Z M 611.6 52.7 C 611.6 54.2 612.0 56.6 612.0 57.2 C 612.0 57.8 611.8 59.8 611.8 60.8 C 611.9 61.7 612.1 62.5 612.1 64.5 C 612.2 67.0 612.0 68.4 612.0 68.5 C 611.9 68.8 611.7 69.8 611.8 71.1 C 612.0 72.8 611.9 73.2 612.1 73.9 C 612.5 75.1 612.3 75.2 612.5 76.1 C 612.7 76.9 612.7 77.5 613.0 78.1 C 613.4 78.8 613.3 79.6 613.7 80.4 C 614.3 81.7 616.4 80.4 615.9 79.4 C 615.6 78.7 615.2 78.3 615.0 77.7 C 614.9 77.1 614.8 76.5 614.8 75.9 C 614.7 75.3 614.4 74.1 614.3 73.0 C 614.3 71.9 614.3 70.0 614.2 68.4 C 614.1 66.8 613.5 66.1 613.9 61.8 C 614.0 60.4 613.9 58.6 613.9 57.8 C 613.9 56.4 614.1 53.7 614.1 52.6 C 614.1 51.2 611.6 51.2 611.6 52.7 C 611.6 52.7 611.6 52.7 611.6 52.7 Z M 616.0 79.6 C 615.6 78.6 613.2 79.4 613.9 80.7 C 614.5 82.1 616.8 84.6 617.3 85.3 C 617.8 85.9 619.3 87.9 619.9 88.3 C 620.6 88.8 624.3 90.1 625.5 90.6 C 626.6 91.2 627.0 91.1 627.8 91.3 C 628.6 91.5 630.0 91.5 630.9 91.6 C 631.8 91.6 632.5 92.3 633.8 92.2 C 635.1 92.1 635.8 92.4 636.8 92.4 C 638.4 92.4 638.3 90.0 636.9 89.9 C 635.5 89.9 634.6 89.7 633.6 89.7 C 632.6 89.7 631.7 89.9 630.9 89.6 C 630.1 89.2 628.5 89.2 627.6 89.2 C 626.6 89.1 625.6 88.8 624.8 88.3 C 623.2 87.4 619.5 85.1 619.2 84.5 C 618.9 83.9 617.5 82.5 617.1 81.9 C 616.7 81.3 616.6 80.9 616.0 79.6 C 616.0 79.6 616.0 79.6 616.0 79.6 Z M 643.2 93.1 C 643.2 93.1 643.2 93.0 643.2 91.6 C 643.2 90.3 643.2 89.2 643.2 89.2 C 643.2 89.2 643.2 90.0 643.1 90.0 C 643.1 90.0 643.1 92.4 643.1 92.4 C 643.2 92.4 643.1 93.1 643.2 93.1 C 643.2 93.1 643.2 93.1 643.2 93.1 Z M 643.1 89.2 C 643.0 89.2 643.0 89.9 643.0 91.2 C 643.0 92.5 643.0 93.1 643.1 93.1 C 643.1 93.1 643.1 92.4 643.1 92.4 C 643.1 92.4 643.1 90.0 643.1 90.0 C 643.1 90.0 643.1 89.2 643.1 89.2 C 643.1 89.2 643.1 89.2 643.1 89.2 Z M 643.1 89.2 " fill="#FF7777"></path></g></g><g><clipPath id="clip-1085"><path d="M 636.0 24.1 L 807.9 24.1 L 807.9 76.4 L 636.0 76.4 Z M 636.0 24.1 "></path></clipPath><g clip-path="url(#clip-1085)"><text xml:space="preserve" font-family="AmericanTypewriter" font-size="30.0" fill="#000000" transform="matrix(1.00, 0.00, -0.00, -1.00, 645.0, 40.0)">C</text><text xml:space="preserve" font-family="AmericanTypewriter" font-size="30.0" fill="#000000" transform="matrix(1.00, 0.00, -0.00, -1.00, 664.1, 40.0)">o</text><text xml:space="preserve" font-family="AmericanTypewriter" font-size="30.0" fill="#000000" transform="matrix(1.00, 0.00, -0.00, -1.00, 680.5, 40.0)">m</text><text xml:space="preserve" font-family="AmericanTypewriter" font-size="30.0" fill="#000000" transform="matrix(1.00, 0.00, -0.00, -1.00, 707.5, 40.0)">p</text><text xml:space="preserve" font-family="AmericanTypewriter" font-size="30.0" fill="#000000" transform="matrix(1.00, 0.00, -0.00, -1.00, 725.5, 40.0)">u</text><text xml:space="preserve" font-family="AmericanTypewriter" font-size="30.0" fill="#000000" transform="matrix(1.00, 0.00, -0.00, -1.00, 744.1, 40.0)">t</text><text xml:space="preserve" font-family="AmericanTypewriter" font-size="30.0" fill="#000000" transform="matrix(1.00, 0.00, -0.00, -1.00, 756.1, 40.0)">e</text><text xml:space="preserve" font-family="AmericanTypewriter" font-size="30.0" fill="#000000" transform="matrix(1.00, 0.00, -0.00, -1.00, 772.0, 40.0)"> </text><text xml:space="preserve" font-family="AmericanTypewriter" font-size="30.0" fill="#000000" transform="matrix(1.00, 0.00, -0.00, -1.00, 779.5, 40.0)">1</text></g></g></g></svg>