<?xml version="1.0" encoding="UTF-8" standalone="no"?><svg xmlns="http://www.w3.org/2000/svg" xmlns:xlink="http://www.w3.org/1999/xlink" clip-rule="evenodd" stroke-miterlimit="4.00" viewBox="0 0 133 66"><desc>SVG generated by Keynote</desc><defs></defs><g transform="matrix(1.00, 0.00, -0.00, -1.00, 0.0, 66.0)"><g><clipPath id="clip-69"><path d="M 0.2 0.3 L 132.7 0.3 L 132.7 65.7 L 0.2 65.7 Z M 0.2 0.3 "></path></clipPath><g clip-path="url(#clip-69)"><path d="M 14.8 24.6 C 5.1 27.4 0.1 36.7 4.0 44.8 C 9.2 55.6 25.5 58.1 34.7 49.6 C 36.8 57.7 45.3 63.4 54.9 63.2 C 64.4 62.9 72.4 56.9 74.1 48.8 C 80.2 57.4 92.8 60.6 103.4 56.2 C 111.1 53.0 116.0 46.2 115.9 38.8 C 123.7 40.2 130.9 34.6 130.1 27.7 C 129.4 20.6 120.7 16.3 113.2 19.2 C 111.5 13.7 106.1 9.5 99.6 8.6 C 93.2 7.7 86.8 10.0 83.0 14.5 C 80.1 7.4 72.3 2.7 63.5 2.8 C 54.3 3.0 46.3 8.5 44.1 16.2 C 39.6 10.9 31.5 9.0 24.6 11.5 C 18.5 13.8 14.6 18.9 14.8 24.6 Z M 14.8 24.6 " fill="#212326"></path><path d="M 12.1 38.6 C 2.4 35.8 -2.6 26.5 1.3 18.3 C 6.5 7.6 22.8 5.0 32.0 13.5 C 34.1 5.4 42.6 -0.2 52.2 0.0 C 61.7 0.2 69.7 6.2 71.4 14.4 C 77.5 5.8 90.1 2.6 100.7 7.0 C 108.4 10.2 113.3 16.9 113.2 24.4 C 121.0 23.0 128.2 28.5 127.4 35.4 C 126.7 42.5 118.0 46.9 110.5 43.9 C 108.8 49.5 103.4 53.6 96.9 54.6 C 90.5 55.5 84.1 53.2 80.3 48.7 C 77.4 55.8 69.6 60.5 60.9 60.3 C 51.6 60.2 43.6 54.7 41.4 46.9 C 37.0 52.2 28.8 54.2 21.9 51.6 C 15.8 49.4 11.9 44.2 12.1 38.6 Z M 12.1 38.6 " fill="none" stroke="#FEFFFF" stroke-width="3.00" transform="matrix(1.00, 0.00, 0.00, -1.00, 2.7, 63.2)"></path></g></g><g><clipPath id="clip-70"><path d="M 34.8 20.5 L 98.1 20.5 L 98.1 45.5 L 34.8 45.5 Z M 34.8 20.5 "></path></clipPath><g clip-path="url(#clip-70)"><text xml:space="preserve" font-family="AmericanTypewriter" font-size="14.0" fill="#FEFFFE" transform="matrix(1.00, 0.00, -0.00, -1.00, 39.0, 28.0)">I</text><text xml:space="preserve" font-family="AmericanTypewriter" font-size="14.0" fill="#FEFFFE" transform="matrix(1.00, 0.00, -0.00, -1.00, 44.3, 28.0)">P</text><text xml:space="preserve" font-family="AmericanTypewriter" font-size="14.0" fill="#FEFFFE" transform="matrix(1.00, 0.00, -0.00, -1.00, 53.3, 28.0)">t</text><text xml:space="preserve" font-family="AmericanTypewriter" font-size="14.0" fill="#FEFFFE" transform="matrix(1.00, 0.00, -0.00, -1.00, 58.9, 28.0)">a</text><text xml:space="preserve" font-family="AmericanTypewriter" font-size="14.0" fill="#FEFFFE" transform="matrix(1.00, 0.00, -0.00, -1.00, 66.8, 28.0)">b</text><text xml:space="preserve" font-family="AmericanTypewriter" font-size="14.0" fill="#FEFFFE" transform="matrix(1.00, 0.00, -0.00, -1.00, 74.7, 28.0)">l</text><text xml:space="preserve" font-family="AmericanTypewriter" font-size="14.0" fill="#FEFFFE" transform="matrix(1.00, 0.00, -0.00, -1.00, 79.0, 28.0)">e</text><text xml:space="preserve" font-family="AmericanTypewriter" font-size="14.0" fill="#FEFFFE" transform="matrix(1.00, 0.00, -0.00, -1.00, 86.4, 28.0)">s</text></g></g></g></svg>