<?xml version="1.0" encoding="UTF-8" standalone="no"?><svg xmlns="http://www.w3.org/2000/svg" xmlns:xlink="http://www.w3.org/1999/xlink" clip-rule="evenodd" stroke-miterlimit="4.00" viewBox="0 0 163 75"><desc>SVG generated by Keynote</desc><defs></defs><g transform="matrix(1.00, 0.00, -0.00, -1.00, 0.0, 75.0)"><path d="M 7.0 4.8 L 8.0 4.7 C 24.2 4.0 40.4 3.1 56.6 2.1 C 64.6 1.6 72.6 1.0 80.5 0.5 C 88.4 -0.0 96.3 -0.4 104.2 0.8 C 137.6 5.9 161.2 36.3 157.9 70.0 " fill="none" stroke="#FEFFFE" stroke-width="2.00" transform="matrix(-1.00, 0.00, 0.00, -1.00, 160.3, 72.8)"></path><path d="M 156.2 64.0 C 158.4 63.9 160.2 65.6 160.3 67.8 C 160.4 70.0 158.7 71.9 156.5 72.0 C 154.3 72.1 152.4 70.3 152.3 68.1 C 152.2 65.9 154.0 64.1 156.2 64.0 Z M 156.2 64.0 " fill="#FEFFFE"></path></g></svg>