<?xml version="1.0" encoding="UTF-8" standalone="no"?><svg xmlns="http://www.w3.org/2000/svg" xmlns:xlink="http://www.w3.org/1999/xlink" clip-rule="evenodd" stroke-miterlimit="4.00" viewBox="0 0 199 13"><desc>SVG generated by Keynote</desc><defs></defs><g transform="matrix(1.00, 0.00, -0.00, -1.00, 0.0, 13.0)"><path d="M 24.3 3.9 C 23.9 4.2 22.7 3.8 22.3 4.0 M 24.3 3.9 C 23.1 2.1 20.9 1.9 18.0 1.6 C 14.8 1.5 18.1 3.3 17.7 4.0 C 13.6 4.8 13.6 3.5 14.2 1.5 C 12.6 2.8 7.8 0.4 8.8 2.9 C 15.5 2.9 4.1 3.5 9.7 4.9 C 10.4 5.3 8.7 6.0 8.1 6.0 C 10.0 7.0 6.8 8.2 9.8 8.9 C 10.2 10.5 9.6 9.8 11.5 11.0 C 12.4 11.2 12.0 10.7 11.9 10.3 C 12.2 8.5 14.2 11.3 15.8 10.2 C 17.2 12.6 18.7 9.8 17.4 8.8 C 18.8 9.0 20.5 11.5 21.9 9.8 C 22.7 11.0 26.5 10.2 24.3 8.7 C 22.6 7.7 24.5 7.0 24.7 6.5 C 24.1 6.0 21.8 6.7 21.5 6.3 C 22.2 5.9 25.2 5.0 22.0 5.1 C 23.0 4.3 21.4 3.8 24.3 3.9 C 24.3 3.9 24.3 3.9 24.3 3.9 Z M 13.0 2.5 C 13.0 1.9 14.1 2.6 13.0 2.5 C 13.0 2.5 13.0 2.5 13.0 2.5 Z M 20.7 11.0 C 20.7 10.4 21.8 11.0 20.7 11.0 C 20.7 11.0 20.7 11.0 20.7 11.0 Z M 12.5 10.4 C 12.4 9.7 13.5 10.4 12.5 10.4 C 12.5 10.4 12.5 10.4 12.5 10.4 Z M 16.0 2.9 C 17.7 3.5 14.5 3.8 14.2 3.2 C 14.6 3.3 15.5 2.4 16.0 2.9 C 16.0 2.9 16.0 2.9 16.0 2.9 Z M 16.2 6.6 C 16.4 6.4 17.1 6.3 17.0 6.9 C 16.5 7.1 16.1 6.8 16.2 6.6 C 16.2 6.6 16.2 6.6 16.2 6.6 Z M 7.4 4.0 C 7.5 3.8 8.3 3.7 8.2 4.3 C 7.7 4.5 7.3 4.2 7.4 4.0 C 7.4 4.0 7.4 4.0 7.4 4.0 Z M 18.0 4.6 C 18.4 4.7 18.6 5.3 18.1 5.4 C 17.8 5.1 16.6 5.0 18.0 4.6 C 18.0 4.6 18.0 4.6 18.0 4.6 Z M 20.8 2.5 C 22.3 2.8 19.3 3.8 19.3 3.5 C 18.8 3.0 20.0 2.0 20.8 2.5 C 20.8 2.5 20.8 2.5 20.8 2.5 Z M 18.9 5.5 C 20.1 5.8 18.3 6.0 18.9 5.5 C 18.9 5.5 18.9 5.5 18.9 5.5 Z M 8.6 8.7 C 9.8 9.0 8.1 9.2 8.6 8.7 C 8.6 8.7 8.6 8.7 8.6 8.7 Z M 15.1 10.7 C 16.3 11.0 14.6 11.1 15.1 10.7 C 15.1 10.7 15.1 10.7 15.1 10.7 Z M 12.7 4.2 C 10.5 4.2 12.4 2.6 12.7 4.2 C 12.7 4.2 12.7 4.2 12.7 4.2 Z M 24.2 2.4 C 22.1 2.3 23.9 0.7 24.2 2.4 C 24.2 2.4 24.2 2.4 24.2 2.4 Z M 189.1 2.9 C 191.1 2.6 183.4 0.5 186.3 3.0 C 187.2 5.1 182.0 4.9 183.3 3.0 C 181.8 2.7 181.8 2.6 180.9 3.6 C 180.7 2.1 177.0 1.3 175.8 2.1 C 175.0 3.4 178.2 2.3 176.1 3.7 C 171.6 4.0 176.4 5.1 174.7 6.8 C 174.5 6.8 174.4 5.9 174.0 6.4 C 173.9 8.0 176.5 9.1 175.3 10.3 C 176.0 10.0 179.2 11.8 177.9 10.4 C 177.4 8.9 181.5 12.2 181.1 9.7 C 182.2 10.9 183.4 9.3 184.4 10.7 C 185.2 11.0 185.2 9.7 185.1 9.3 C 185.0 8.2 186.1 11.9 187.3 9.9 C 187.5 10.5 191.1 10.3 188.4 9.4 C 189.2 9.5 193.4 10.1 191.1 7.9 C 188.2 6.8 194.2 5.6 190.7 5.5 C 188.1 5.3 187.6 5.7 189.5 4.5 C 190.1 4.7 193.2 4.5 190.6 3.5 C 190.0 3.7 188.8 3.5 189.1 2.9 C 189.1 2.9 189.1 2.9 189.1 2.9 Z M 189.7 6.2 C 188.2 6.3 189.6 5.3 189.7 6.2 C 189.7 6.2 189.7 6.2 189.7 6.2 Z M 184.2 11.2 C 182.7 11.3 184.1 10.3 184.2 11.2 C 184.2 11.2 184.2 11.2 184.2 11.2 Z M 184.4 2.4 C 183.6 3.1 183.4 0.7 184.4 2.4 C 184.4 2.4 184.4 2.4 184.4 2.4 Z M 186.7 9.3 C 186.6 9.3 187.0 9.0 187.3 8.9 C 187.2 9.0 186.8 9.3 186.7 9.3 C 186.7 9.3 186.7 9.3 186.7 9.3 Z M 181.8 2.4 C 179.6 3.5 181.4 0.6 181.8 2.4 C 181.8 2.4 181.8 2.4 181.8 2.4 Z M 177.2 4.6 C 177.0 6.8 174.9 4.1 177.2 4.6 C 177.2 4.6 177.2 4.6 177.2 4.6 Z M 180.4 9.6 C 180.8 9.1 180.8 9.9 180.4 9.6 C 180.4 9.6 180.4 9.6 180.4 9.6 Z M 190.3 9.9 C 190.7 9.4 190.7 10.2 190.3 9.9 C 190.3 9.9 190.3 9.9 190.3 9.9 Z M 177.6 9.4 C 177.8 8.5 178.4 9.8 177.6 9.4 C 177.6 9.4 177.6 9.4 177.6 9.4 Z M 184.0 3.3 C 186.0 1.5 186.5 6.0 184.0 3.3 C 184.0 3.3 184.0 3.3 184.0 3.3 Z M 187.7 3.1 C 189.1 2.7 187.4 4.2 186.8 4.0 C 186.9 3.8 187.5 3.2 187.7 3.1 C 187.7 3.1 187.7 3.1 187.7 3.1 Z M 181.8 3.5 C 183.2 2.6 183.1 4.0 181.8 3.5 C 181.8 3.5 181.8 3.5 181.8 3.5 Z M 185.4 2.5 C 186.1 2.7 184.8 2.7 185.4 2.5 C 185.4 2.5 185.4 2.5 185.4 2.5 Z M 179.0 1.6 C 179.7 1.8 178.4 1.8 179.0 1.6 C 179.0 1.6 179.0 1.6 179.0 1.6 Z M 189.4 2.2 C 190.1 2.4 188.8 2.4 189.4 2.2 C 189.4 2.2 189.4 2.2 189.4 2.2 Z M 179.6 2.8 C 179.3 3.6 181.3 5.4 177.7 3.9 C 177.1 3.3 178.6 2.1 179.6 2.8 C 179.6 2.8 179.6 2.8 179.6 2.8 Z M 28.9 4.0 C 22.1 1.4 23.7 5.9 23.4 6.7 C 22.5 7.9 23.4 8.7 24.7 9.5 C 26.2 12.4 26.9 6.6 28.0 9.4 C 29.8 13.2 30.0 6.1 30.8 10.1 C 30.5 11.2 33.2 10.3 33.0 10.1 C 34.3 12.0 36.2 8.6 36.2 8.2 C 37.2 8.8 37.2 12.3 40.0 9.7 C 42.1 8.7 43.1 12.2 42.5 9.8 C 44.1 12.6 43.6 9.0 45.2 9.9 C 46.3 11.4 45.2 7.6 47.2 10.5 C 48.0 8.2 46.2 12.0 51.6 10.4 C 49.0 10.2 54.0 8.5 53.0 10.1 C 51.2 11.7 55.5 9.5 57.9 10.5 C 58.6 9.6 61.5 7.5 61.0 9.8 C 63.5 12.4 63.5 8.2 64.6 10.4 C 65.4 11.3 65.7 9.3 66.3 9.5 C 67.2 11.1 67.9 10.0 71.0 10.5 C 77.8 11.3 72.1 6.3 74.7 5.8 C 75.1 5.0 71.3 -0.4 72.8 3.7 C 72.3 2.5 66.8 6.7 69.5 2.3 C 67.4 4.1 70.0 0.5 65.7 2.6 C 71.6 5.7 59.1 3.8 64.7 2.3 C 63.8 1.4 61.5 1.6 63.2 2.4 C 63.8 5.2 59.2 1.1 61.5 4.5 C 57.9 3.5 58.8 6.6 57.9 4.5 C 57.0 0.8 58.0 5.4 56.2 4.4 C 52.0 4.3 55.3 0.1 52.7 2.9 C 48.6 1.0 51.8 4.5 50.4 5.0 C 50.0 7.5 46.2 3.0 49.3 2.7 C 47.7 4.0 49.0 1.4 47.2 3.1 C 48.5 5.4 44.7 0.5 45.3 2.4 C 43.6 3.1 44.5 4.5 43.9 4.5 C 41.4 4.5 42.2 2.2 41.7 4.0 C 41.1 4.9 39.9 1.8 39.6 2.6 C 42.2 2.7 37.5 5.1 37.2 3.8 C 38.8 3.7 36.4 0.7 35.4 2.6 C 36.7 7.8 33.1 1.2 32.0 3.1 C 33.1 5.9 26.3 3.4 28.9 2.1 C 28.7 2.3 29.0 4.0 28.9 4.0 M 38.9 3.0 C 41.0 3.3 36.6 3.6 38.9 3.0 M 38.8 2.3 C 39.7 3.2 36.8 1.5 38.9 1.9 C 38.9 2.0 38.6 2.2 38.8 2.3 M 47.5 2.2 C 47.3 3.0 46.4 1.7 47.5 2.2 M 49.2 3.9 C 50.6 4.7 47.3 4.1 49.2 3.9 M 68.7 3.4 C 66.7 7.7 66.6 1.0 68.7 3.4 M 55.8 2.5 C 53.4 3.1 56.6 0.7 55.8 2.5 M 55.1 3.6 C 54.0 4.3 54.9 2.6 55.1 3.6 M 65.0 3.4 C 65.1 3.5 65.1 3.5 65.0 3.4 C 65.0 3.4 65.0 3.4 65.0 3.4 Z M 70.7 3.5 C 70.7 3.4 70.7 3.4 70.7 3.5 C 70.7 3.5 70.7 3.5 70.7 3.5 Z M 59.4 3.8 C 57.6 2.8 62.3 3.4 59.4 3.8 C 59.4 3.8 59.4 3.8 59.4 3.8 Z M 68.0 10.0 C 67.9 10.1 67.9 10.1 68.0 10.0 C 68.0 10.0 68.0 10.0 68.0 10.0 Z M 37.2 5.0 C 37.1 5.0 37.1 5.0 37.2 5.0 C 37.2 5.0 37.2 5.0 37.2 5.0 Z M 30.6 3.4 C 30.7 3.9 29.4 2.9 30.6 3.4 C 30.6 3.4 30.6 3.4 30.6 3.4 Z M 25.3 8.2 C 25.3 8.3 25.3 8.3 25.3 8.2 C 25.3 8.2 25.3 8.2 25.3 8.2 Z M 35.0 7.2 C 34.9 7.3 34.9 7.3 35.0 7.2 C 35.0 7.2 35.0 7.2 35.0 7.2 Z M 35.9 4.1 C 34.9 1.7 38.4 4.7 35.9 4.1 C 35.9 4.1 35.9 4.1 35.9 4.1 Z M 57.2 9.7 C 57.2 8.7 58.7 10.1 57.2 9.7 C 57.2 9.7 57.2 9.7 57.2 9.7 Z M 49.5 4.9 C 49.8 4.3 50.4 5.1 49.5 4.9 C 49.5 4.9 49.5 4.9 49.5 4.9 Z M 45.9 1.7 C 46.2 1.2 46.8 1.9 45.9 1.7 C 45.9 1.7 45.9 1.7 45.9 1.7 Z M 30.7 2.7 C 30.9 2.6 30.9 2.6 30.7 2.7 C 30.7 2.7 30.7 2.7 30.7 2.7 Z M 33.1 4.5 C 31.5 2.3 35.6 5.7 33.1 4.5 C 33.1 4.5 33.1 4.5 33.1 4.5 Z M 30.3 5.1 C 31.2 6.0 28.2 4.7 30.3 5.1 M 31.9 8.5 C 33.9 7.6 30.1 12.5 31.9 8.5 C 31.9 8.5 31.9 8.5 31.9 8.5 Z M 42.0 9.4 C 42.1 9.5 42.1 9.5 42.0 9.4 C 42.0 9.4 42.0 9.4 42.0 9.4 Z M 40.9 2.9 C 42.7 3.0 39.8 3.5 40.9 2.9 C 40.9 2.9 40.9 2.9 40.9 2.9 Z M 25.7 2.4 C 27.5 2.5 24.6 3.0 25.7 2.4 C 25.7 2.4 25.7 2.4 25.7 2.4 Z M 47.9 7.2 C 50.7 6.9 46.1 8.4 47.9 7.2 C 47.9 7.2 47.9 7.2 47.9 7.2 Z M 58.4 4.7 C 58.5 4.7 58.5 4.7 58.4 4.7 C 58.4 4.7 58.4 4.7 58.4 4.7 Z M 60.3 3.8 C 60.4 3.8 60.4 3.8 60.3 3.8 C 60.3 3.8 60.3 3.8 60.3 3.8 Z M 68.5 6.0 C 68.6 6.1 68.6 6.1 68.5 6.0 C 68.5 6.0 68.5 6.0 68.5 6.0 Z M 62.1 2.7 C 62.2 2.7 62.2 2.7 62.1 2.7 C 62.1 2.7 62.1 2.7 62.1 2.7 Z M 67.8 3.3 C 67.9 3.4 67.9 3.4 67.8 3.3 C 67.8 3.3 67.8 3.3 67.8 3.3 Z M 67.0 1.4 C 67.1 1.5 67.1 1.5 67.0 1.4 C 67.0 1.4 67.0 1.4 67.0 1.4 Z M 54.4 11.0 C 54.5 11.1 54.5 11.1 54.4 11.0 C 54.4 11.0 54.4 11.0 54.4 11.0 Z M 33.8 2.0 C 34.0 2.2 34.0 2.2 33.8 2.0 C 33.8 2.0 33.8 2.0 33.8 2.0 Z M 67.3 4.1 C 67.4 4.2 67.4 4.2 67.3 4.1 C 67.3 4.1 67.3 4.1 67.3 4.1 Z M 53.5 5.9 C 53.6 7.8 52.3 3.4 53.9 5.8 C 53.8 5.9 53.4 5.6 53.5 5.9 M 55.4 9.0 C 55.3 9.1 55.3 9.1 55.4 9.0 C 55.4 9.0 55.4 9.0 55.4 9.0 Z M 49.1 10.2 C 49.0 10.2 49.0 10.2 49.1 10.2 C 49.1 10.2 49.1 10.2 49.1 10.2 Z M 61.1 2.3 C 60.9 1.3 62.7 3.1 60.9 2.4 M 68.5 9.3 C 68.3 8.3 70.1 10.1 68.3 9.4 M 23.7 3.2 C 23.5 4.0 22.6 2.7 23.7 3.2 M 47.7 11.2 C 47.5 12.0 46.5 10.7 47.7 11.2 M 50.6 8.8 C 50.4 7.7 52.2 9.6 50.4 8.8 M 64.3 9.3 C 64.3 9.3 64.3 9.3 64.3 9.3 C 64.3 9.3 64.3 9.3 64.3 9.3 Z M 43.6 3.2 C 43.7 3.2 43.7 3.2 43.6 3.2 C 43.6 3.2 43.6 3.2 43.6 3.2 Z M 51.2 5.4 C 50.2 3.9 52.6 6.3 51.2 5.4 M 41.4 5.7 C 39.9 3.9 43.8 6.3 41.4 5.7 M 71.8 9.8 C 70.1 7.6 73.0 10.9 71.8 9.8 M 63.4 4.4 C 61.7 2.2 64.6 5.5 63.4 4.4 M 45.1 4.1 C 45.0 2.9 46.8 4.7 45.1 4.1 M 27.7 3.0 C 26.1 2.8 29.8 2.1 27.7 3.0 M 60.1 9.3 C 60.2 9.4 60.2 9.4 60.1 9.3 C 60.1 9.3 60.1 9.3 60.1 9.3 Z M 33.0 11.2 C 33.0 11.3 33.0 11.3 33.0 11.2 C 33.0 11.2 33.0 11.2 33.0 11.2 Z M 74.0 2.7 C 74.0 2.8 74.0 2.8 74.0 2.7 C 74.0 2.7 74.0 2.7 74.0 2.7 Z M 62.4 5.4 C 62.4 5.5 62.4 5.5 62.4 5.4 C 62.4 5.4 62.4 5.4 62.4 5.4 Z M 70.7 2.4 C 70.8 2.5 70.8 2.5 70.7 2.4 C 70.7 2.4 70.7 2.4 70.7 2.4 Z M 57.1 7.0 C 57.1 7.1 57.1 7.1 57.1 7.0 C 57.1 7.0 57.1 7.0 57.1 7.0 Z M 56.0 1.5 C 56.1 1.6 56.1 1.6 56.0 1.5 C 56.0 1.5 56.0 1.5 56.0 1.5 Z M 50.2 3.9 C 50.3 3.9 50.3 3.9 50.2 3.9 C 50.2 3.9 50.2 3.9 50.2 3.9 Z M 58.7 2.0 C 62.1 1.6 56.9 3.8 58.7 2.0 C 58.7 2.0 58.7 2.0 58.7 2.0 Z M 52.7 7.5 C 52.7 7.5 52.7 7.5 52.7 7.5 C 52.7 7.5 52.7 7.5 52.7 7.5 Z M 52.2 3.6 C 54.4 2.0 53.4 6.2 52.2 3.6 M 42.6 2.3 C 43.2 1.4 42.9 3.6 42.6 2.3 M 38.7 9.5 C 38.7 9.6 38.7 9.6 38.7 9.5 C 38.7 9.5 38.7 9.5 38.7 9.5 Z M 39.8 8.9 C 39.9 9.0 39.9 9.0 39.8 8.9 C 39.8 8.9 39.8 8.9 39.8 8.9 Z M 40.2 2.0 C 40.3 2.0 40.3 2.0 40.2 2.0 C 40.2 2.0 40.2 2.0 40.2 2.0 Z M 39.9 11.0 C 40.0 11.1 40.0 11.1 39.9 11.0 C 39.9 11.0 39.9 11.0 39.9 11.0 Z M 54.7 1.7 C 54.8 1.7 54.8 1.7 54.7 1.7 C 54.7 1.7 54.7 1.7 54.7 1.7 Z M 72.4 1.6 C 72.4 1.6 72.4 1.6 72.4 1.6 C 72.4 1.6 72.4 1.6 72.4 1.6 Z M 28.2 8.7 C 28.3 8.8 28.3 8.8 28.2 8.7 C 28.2 8.7 28.2 8.7 28.2 8.7 Z M 56.5 3.9 C 56.6 3.9 56.6 3.9 56.5 3.9 C 56.5 3.9 56.5 3.9 56.5 3.9 Z M 36.2 9.2 C 36.3 9.3 36.3 9.3 36.2 9.2 C 36.2 9.2 36.2 9.2 36.2 9.2 Z M 55.4 3.4 C 55.4 3.4 55.4 3.4 55.4 3.4 C 55.4 3.4 55.4 3.4 55.4 3.4 Z M 59.6 9.8 C 59.6 9.8 59.6 9.8 59.6 9.8 C 59.6 9.8 59.6 9.8 59.6 9.8 Z M 63.4 11.0 C 63.4 11.1 63.4 11.1 63.4 11.0 C 63.4 11.0 63.4 11.0 63.4 11.0 Z M 59.3 6.0 C 59.4 6.0 59.4 6.0 59.3 6.0 C 59.3 6.0 59.3 6.0 59.3 6.0 Z M 35.0 6.8 C 28.0 4.9 40.5 5.9 35.0 6.8 M 60.5 6.4 C 55.6 6.0 64.4 4.3 60.5 6.4 C 61.0 5.8 60.5 6.3 60.5 6.4 M 75.7 1.8 C 73.7 3.8 73.7 5.8 74.6 7.8 C 75.5 8.9 75.5 4.8 75.6 8.3 C 73.3 8.9 76.5 13.4 76.5 9.0 C 79.5 8.4 77.0 11.8 78.8 10.0 C 82.0 9.6 80.3 11.0 82.8 10.7 C 84.3 8.2 84.3 11.8 84.9 9.6 C 83.7 12.0 87.5 8.9 87.6 10.0 C 85.4 11.5 96.2 10.0 90.3 9.3 C 92.7 8.1 92.2 10.2 93.1 10.5 C 94.1 9.0 97.0 11.7 98.5 10.2 C 98.2 9.9 97.4 9.8 97.2 9.3 C 96.8 8.4 98.9 9.5 98.7 9.4 C 99.6 8.9 103.5 7.4 99.4 10.0 C 99.2 11.2 102.8 9.4 102.6 10.5 C 106.2 10.6 103.5 8.1 105.1 9.9 C 107.7 10.0 109.5 10.0 109.5 9.7 C 111.1 10.0 111.4 11.3 112.8 10.0 C 115.9 12.6 115.0 5.0 116.2 10.1 C 117.1 8.9 118.0 12.2 117.8 9.1 C 116.7 10.5 123.2 11.5 120.4 9.2 C 121.1 8.5 125.2 12.5 124.6 9.2 C 126.1 6.9 125.8 4.5 122.7 2.3 C 123.0 4.1 119.3 0.4 121.7 3.5 C 124.4 4.6 116.7 4.7 118.3 3.5 C 118.7 -0.2 114.6 5.9 113.0 3.2 C 114.3 4.7 108.1 5.4 109.9 2.6 C 108.7 2.4 108.5 3.7 107.2 2.1 C 110.9 2.3 105.8 5.0 106.0 3.3 C 106.6 2.2 101.1 1.4 101.6 3.0 C 103.6 6.9 100.2 2.2 99.2 3.7 C 96.2 4.5 99.7 0.4 97.4 3.2 C 96.8 2.8 92.7 2.7 95.3 2.0 C 96.3 2.3 92.9 6.2 92.4 2.9 C 96.8 1.0 87.4 1.9 88.9 2.9 C 95.6 4.7 81.8 5.0 87.0 3.2 C 84.0 1.3 87.9 2.4 84.2 3.2 C 84.7 4.3 81.8 5.3 82.5 3.2 C 81.9 0.0 81.5 7.4 79.2 3.1 C 78.9 1.2 74.7 4.4 76.3 2.4 C 76.4 2.1 75.8 1.8 75.7 1.8 M 77.0 2.2 C 76.5 2.9 76.2 1.3 77.0 2.2 M 76.5 2.8 C 76.4 2.8 76.4 2.8 76.5 2.8 C 76.5 2.8 76.5 2.8 76.5 2.8 Z M 83.7 3.3 C 83.6 3.2 83.6 3.2 83.7 3.3 C 83.7 3.3 83.7 3.3 83.7 3.3 Z M 89.3 11.2 C 89.3 11.1 89.3 11.1 89.3 11.2 C 89.3 11.2 89.3 11.2 89.3 11.2 Z M 88.4 3.5 C 88.4 3.5 88.4 3.5 88.4 3.5 C 88.4 3.5 88.4 3.5 88.4 3.5 Z M 81.1 3.8 C 81.0 3.8 81.0 3.8 81.1 3.8 C 81.1 3.8 81.1 3.8 81.1 3.8 Z M 88.0 2.4 C 88.4 3.5 86.3 1.5 88.1 2.2 C 88.1 2.2 87.8 2.2 88.0 2.4 M 94.2 1.9 C 94.3 2.0 94.3 2.0 94.2 1.9 M 108.0 11.2 C 108.1 11.3 108.1 11.3 108.0 11.2 M 109.1 1.8 C 109.3 1.9 109.3 1.9 109.1 1.8 M 100.5 3.1 C 102.4 2.9 100.9 3.7 100.5 3.1 M 114.2 2.5 C 111.8 1.7 116.8 1.8 114.2 2.5 M 116.5 1.8 C 116.7 1.9 116.7 1.9 116.5 1.8 M 105.7 2.2 C 105.6 2.3 105.6 2.3 105.7 2.2 C 105.7 2.2 105.7 2.2 105.7 2.2 Z M 99.7 2.6 C 97.2 2.0 102.2 1.5 99.7 2.6 M 84.5 2.2 C 85.9 1.6 84.5 3.7 84.5 2.2 M 81.7 2.9 C 81.6 2.9 81.6 2.9 81.7 2.9 C 81.7 2.9 81.7 2.9 81.7 2.9 Z M 110.3 2.4 C 110.2 2.4 110.2 2.4 110.3 2.4 C 110.3 2.4 110.3 2.4 110.3 2.4 Z M 113.1 2.2 C 113.0 2.2 113.0 2.2 113.1 2.2 C 113.1 2.2 113.1 2.2 113.1 2.2 Z M 117.7 10.9 C 117.6 10.9 117.6 10.9 117.7 10.9 C 117.7 10.9 117.7 10.9 117.7 10.9 Z M 83.8 6.5 C 81.9 5.9 85.7 3.6 85.3 5.7 C 85.5 6.6 84.0 6.3 83.8 6.5 M 97.8 5.2 C 98.3 8.2 96.0 1.2 97.8 5.2 M 116.9 3.7 C 118.7 7.2 114.5 1.2 116.9 3.7 M 120.6 3.1 C 121.7 3.8 113.6 3.5 119.3 2.6 C 119.9 2.0 120.3 2.7 120.6 3.1 M 94.3 3.3 C 94.9 5.0 91.4 2.6 94.3 3.3 M 105.8 8.2 C 106.7 7.2 109.1 6.2 108.1 8.1 C 108.0 10.3 104.7 9.1 105.8 8.2 M 77.6 3.8 C 79.1 1.2 77.5 6.1 77.6 3.8 M 84.9 4.1 C 84.9 3.9 84.9 3.9 84.9 4.1 C 84.9 4.1 84.9 4.1 84.9 4.1 Z M 87.7 3.6 C 87.9 3.8 87.9 3.8 87.7 3.6 M 78.8 1.5 C 78.9 1.7 78.9 1.7 78.8 1.5 M 105.8 5.5 C 105.9 5.7 105.9 5.7 105.8 5.5 M 99.9 3.8 C 102.7 6.4 98.4 4.3 99.9 3.8 M 93.1 8.8 C 93.9 10.0 91.3 8.9 93.1 8.8 M 104.5 2.8 C 106.5 5.2 101.8 5.1 104.5 2.8 M 98.5 3.5 C 98.7 3.5 98.7 3.5 98.5 3.5 C 98.5 3.5 98.5 3.5 98.5 3.5 Z M 106.6 8.5 C 106.5 8.5 106.5 8.5 106.6 8.5 C 106.6 8.5 106.6 8.5 106.6 8.5 Z M 107.4 8.4 C 107.3 8.4 107.3 8.4 107.4 8.4 C 107.4 8.4 107.4 8.4 107.4 8.4 Z M 107.0 2.5 C 106.9 2.6 106.9 2.6 107.0 2.5 C 107.0 2.5 107.0 2.5 107.0 2.5 Z M 81.5 9.6 C 83.5 9.8 79.9 10.0 81.5 9.6 C 81.5 9.6 81.5 9.6 81.5 9.6 Z M 90.3 2.4 C 93.6 4.3 88.0 4.2 90.3 2.4 C 90.3 2.4 90.3 2.4 90.3 2.4 Z M 94.0 5.6 C 94.0 5.7 94.0 5.7 94.0 5.6 C 94.0 5.6 94.0 5.6 94.0 5.6 Z M 103.2 1.3 C 103.2 1.4 103.2 1.4 103.2 1.3 C 103.2 1.3 103.2 1.3 103.2 1.3 Z M 82.5 10.0 C 82.5 10.1 82.5 10.1 82.5 10.0 C 82.5 10.0 82.5 10.0 82.5 10.0 Z M 112.6 3.8 C 112.6 4.0 112.6 4.0 112.6 3.8 C 112.6 3.8 112.6 3.8 112.6 3.8 Z M 101.2 8.9 C 101.9 7.9 101.3 9.6 101.2 8.9 C 101.2 8.9 101.2 8.9 101.2 8.9 Z M 104.2 8.9 C 104.2 8.9 104.2 8.9 104.2 8.9 C 104.2 8.9 104.2 8.9 104.2 8.9 Z M 117.3 1.6 C 117.3 1.6 117.3 1.6 117.3 1.6 C 117.3 1.6 117.3 1.6 117.3 1.6 Z M 111.7 11.2 C 111.8 11.2 111.8 11.2 111.7 11.2 C 111.7 11.2 111.7 11.2 111.7 11.2 Z M 114.2 8.3 C 114.1 8.4 114.1 8.4 114.2 8.3 C 114.2 8.3 114.2 8.3 114.2 8.3 Z M 106.4 3.1 C 109.4 2.6 105.7 4.2 106.4 3.1 C 106.4 3.1 106.4 3.1 106.4 3.1 Z M 121.5 7.5 C 121.6 7.7 121.6 7.7 121.5 7.5 C 121.5 7.5 121.5 7.5 121.5 7.5 Z M 123.0 4.2 C 123.1 4.3 123.1 4.3 123.0 4.2 C 123.0 4.2 123.0 4.2 123.0 4.2 Z M 123.8 2.4 C 123.9 2.5 123.9 2.5 123.8 2.4 C 123.8 2.4 123.8 2.4 123.8 2.4 Z M 87.7 7.2 C 87.6 7.1 87.6 7.1 87.7 7.2 C 87.7 7.2 87.7 7.2 87.7 7.2 Z M 86.5 1.8 C 86.5 1.7 86.5 1.7 86.5 1.8 C 86.5 1.8 86.5 1.8 86.5 1.8 Z M 90.5 1.5 C 90.5 1.5 90.5 1.5 90.5 1.5 C 90.5 1.5 90.5 1.5 90.5 1.5 Z M 86.9 10.6 C 86.9 10.5 86.9 10.5 86.9 10.6 C 86.9 10.6 86.9 10.6 86.9 10.6 Z M 102.0 5.9 C 101.9 5.8 101.9 5.8 102.0 5.9 C 102.0 5.9 102.0 5.9 102.0 5.9 Z M 103.4 8.1 C 103.3 8.0 103.3 8.0 103.4 8.1 C 103.4 8.1 103.4 8.1 103.4 8.1 Z M 99.9 11.1 C 99.9 11.0 99.9 11.0 99.9 11.1 C 99.9 11.1 99.9 11.1 99.9 11.1 Z M 104.5 10.0 C 104.5 10.0 104.5 10.0 104.5 10.0 C 104.5 10.0 104.5 10.0 104.5 10.0 Z M 76.9 9.6 C 76.9 9.6 76.9 9.6 76.9 9.6 C 76.9 9.6 76.9 9.6 76.9 9.6 Z M 76.6 5.4 C 76.5 5.5 76.5 5.5 76.6 5.4 C 76.6 5.4 76.6 5.4 76.6 5.4 Z M 102.5 2.9 C 103.1 2.0 103.8 4.1 102.5 2.9 M 96.7 3.4 C 96.7 3.5 96.7 3.5 96.7 3.4 C 96.7 3.4 96.7 3.4 96.7 3.4 Z M 112.1 3.0 C 112.8 4.7 109.4 2.2 112.1 3.0 C 112.1 3.0 112.1 3.0 112.1 3.0 Z M 109.1 10.0 C 109.1 10.1 109.1 10.1 109.1 10.0 C 109.1 10.0 109.1 10.0 109.1 10.0 Z M 110.6 9.3 C 110.7 9.5 110.7 9.5 110.6 9.3 C 110.6 9.3 110.6 9.3 110.6 9.3 Z M 118.9 4.8 C 119.0 5.0 119.0 5.0 118.9 4.8 M 96.0 1.9 C 96.8 2.7 96.7 2.5 96.0 1.9 M 114.0 3.1 C 113.9 3.1 113.9 3.1 114.0 3.1 C 114.0 3.1 114.0 3.1 114.0 3.1 Z M 120.7 3.9 C 120.6 3.9 120.6 3.9 120.7 3.9 C 120.7 3.9 120.7 3.9 120.7 3.9 Z M 91.9 3.0 C 92.1 5.1 91.3 4.6 91.9 3.0 M 80.5 3.7 C 80.5 3.8 80.5 3.8 80.5 3.7 C 80.5 3.7 80.5 3.7 80.5 3.7 Z M 129.8 2.4 C 126.7 0.2 126.7 3.3 126.7 3.4 C 127.0 -0.8 123.9 5.1 124.5 5.9 C 124.4 6.5 126.8 13.9 129.0 9.4 C 129.6 8.9 129.9 10.2 130.4 10.3 C 134.2 10.1 127.7 8.0 132.4 8.0 C 133.2 8.6 132.2 12.1 135.0 9.7 C 135.1 10.0 138.2 11.3 137.0 9.7 C 138.5 11.3 139.5 9.4 140.8 9.0 C 142.1 9.9 139.8 11.5 144.3 9.6 C 146.2 12.5 146.9 7.4 148.6 10.6 C 149.7 10.7 151.4 5.4 148.8 8.4 C 149.2 8.1 147.6 5.6 151.1 6.5 C 150.6 7.1 148.7 12.5 154.2 10.0 C 155.1 10.1 157.2 8.7 157.7 9.3 C 154.9 9.9 161.6 11.7 160.9 10.1 C 165.4 11.2 162.8 8.7 166.0 10.5 C 168.7 10.6 165.2 8.1 168.4 9.5 C 170.9 9.3 169.2 10.6 169.0 10.5 C 171.1 10.8 171.9 9.8 172.6 9.9 C 173.1 10.1 174.1 11.2 174.6 9.9 C 176.8 7.5 174.8 5.0 175.8 2.6 C 174.1 1.4 175.0 4.4 173.9 2.6 C 173.1 4.1 173.8 2.5 169.3 2.8 C 169.4 3.2 170.5 4.2 169.4 4.4 C 167.7 4.2 168.9 0.1 166.0 3.0 C 169.4 3.9 161.2 4.3 164.4 5.2 C 160.4 5.7 163.3 4.9 160.4 3.9 C 160.5 6.6 160.2 0.9 159.1 3.1 C 158.8 2.0 154.3 2.5 157.6 4.2 C 152.9 4.9 155.8 3.3 154.2 1.9 C 152.0 1.7 154.0 6.4 152.7 3.0 C 149.9 1.4 152.5 4.6 150.5 2.0 C 151.4 4.4 148.4 2.0 149.2 4.5 C 144.4 4.7 149.8 1.8 146.4 3.6 C 147.5 3.7 147.1 0.2 145.0 2.5 C 145.9 6.5 142.3 -1.2 143.8 4.3 C 137.1 5.8 142.7 2.0 139.0 2.0 C 138.1 2.0 140.0 3.8 139.2 3.8 C 134.5 3.0 138.4 1.6 135.9 4.3 C 131.2 5.0 134.6 2.0 132.3 1.8 C 132.1 3.1 130.2 5.3 129.8 2.4 M 133.9 3.7 C 134.9 2.9 134.6 4.6 133.9 3.7 M 124.5 2.4 C 125.5 1.6 125.1 3.3 124.5 2.4 M 137.8 2.9 C 139.1 2.0 138.2 4.3 137.8 2.9 M 163.0 4.2 C 161.3 4.2 163.8 3.5 163.0 4.2 M 128.3 2.3 C 129.7 1.2 128.7 3.7 128.3 2.3 M 126.6 4.4 C 126.7 4.4 126.7 4.4 126.6 4.4 M 165.5 2.0 C 165.6 2.1 165.6 2.1 165.5 2.0 M 158.8 2.0 C 160.2 2.1 158.0 2.6 158.8 2.0 M 158.5 11.0 C 160.0 11.0 157.7 11.5 158.5 11.0 M 169.2 1.9 C 170.6 1.2 169.6 2.9 169.2 1.9 M 173.0 3.9 C 174.2 3.1 173.8 4.8 173.0 3.9 M 133.1 6.8 C 133.1 6.9 133.1 6.9 133.1 6.8 C 133.1 6.8 133.1 6.8 133.1 6.8 Z M 145.5 9.1 C 144.0 8.2 147.3 10.2 145.5 9.1 M 143.2 3.2 C 144.2 5.0 141.3 3.1 143.2 3.2 C 143.2 3.2 143.2 3.2 143.2 3.2 Z M 141.0 4.0 C 141.0 4.1 141.0 4.1 141.0 4.0 C 141.0 4.0 141.0 4.0 141.0 4.0 Z M 148.0 4.1 C 148.0 4.2 148.0 4.2 148.0 4.1 C 148.0 4.1 148.0 4.1 148.0 4.1 Z M 146.6 4.3 C 146.0 4.7 145.8 3.9 146.6 4.3 C 146.6 4.3 146.6 4.3 146.6 4.3 Z M 156.7 10.1 C 156.2 10.5 156.0 9.7 156.7 10.1 C 156.7 10.1 156.7 10.1 156.7 10.1 Z M 144.4 4.9 C 144.2 6.7 143.4 3.7 144.4 4.9 C 144.4 4.9 144.4 4.9 144.4 4.9 Z M 151.9 9.2 C 152.5 8.8 153.2 11.0 151.9 9.2 M 166.9 2.4 C 167.5 1.9 168.2 4.1 166.9 2.4 M 152.1 1.9 C 152.8 1.4 153.4 3.6 152.1 1.9 M 134.7 2.9 C 134.9 3.1 134.9 3.1 134.7 2.9 M 143.0 10.8 C 143.9 10.1 143.5 11.6 143.0 10.8 M 129.0 10.2 C 130.0 9.5 129.5 11.0 129.0 10.2 M 164.8 10.8 C 164.8 10.3 166.3 11.0 164.8 10.8 M 153.9 4.8 C 155.2 5.0 156.5 6.0 153.8 5.9 C 153.6 5.4 154.4 5.2 153.9 4.8 C 153.9 4.8 153.9 4.8 153.9 4.8 Z M 158.5 8.9 C 158.7 9.1 158.7 9.1 158.5 8.9 M 156.2 3.1 C 156.4 3.3 156.4 3.3 156.2 3.1 M 163.7 3.3 C 163.9 3.5 163.9 3.5 163.7 3.3 M 164.7 2.7 C 164.7 2.8 164.7 2.8 164.7 2.7 C 164.7 2.7 164.7 2.7 164.7 2.7 Z M 173.0 2.0 C 173.0 2.1 173.0 2.1 173.0 2.0 C 173.0 2.0 173.0 2.0 173.0 2.0 Z M 161.3 3.5 C 161.3 3.6 161.3 3.6 161.3 3.5 C 161.3 3.5 161.3 3.5 161.3 3.5 Z M 168.2 10.4 C 168.2 10.5 168.2 10.5 168.2 10.4 C 168.2 10.4 168.2 10.4 168.2 10.4 Z M 167.3 9.3 C 167.3 9.4 167.3 9.4 167.3 9.3 C 167.3 9.3 167.3 9.3 167.3 9.3 Z M 130.4 2.4 C 131.6 1.1 131.1 5.6 130.4 2.4 M 171.0 9.4 C 172.1 10.6 169.1 9.6 171.0 9.4 C 171.0 9.4 171.0 9.4 171.0 9.4 Z M 160.4 5.0 C 160.5 5.3 160.5 5.3 160.4 5.0 M 165.2 2.9 C 165.3 3.1 165.3 3.1 165.2 2.9 M 143.1 1.5 C 143.2 1.8 143.2 1.8 143.1 1.5 M 171.0 3.3 C 174.5 3.7 169.4 5.9 171.0 3.3 M 141.5 3.3 C 141.4 3.1 141.4 3.1 141.5 3.3 M 149.5 6.7 C 151.8 6.6 148.6 7.7 149.5 6.7 M 155.5 4.4 C 155.4 4.5 155.4 4.5 155.5 4.4 C 155.5 4.4 155.5 4.4 155.5 4.4 Z M 152.0 4.4 C 150.3 4.6 151.5 3.9 152.0 4.4 C 152.0 4.4 152.0 4.4 152.0 4.4 Z M 132.1 4.1 C 134.3 4.4 129.8 4.7 132.1 4.1 C 132.1 4.1 132.1 4.1 132.1 4.1 Z M 169.4 7.5 C 169.3 7.6 169.3 7.6 169.4 7.5 C 169.4 7.5 169.4 7.5 169.4 7.5 Z M 160.9 2.2 C 159.9 2.7 160.4 1.7 160.9 2.2 C 160.9 2.2 160.9 2.2 160.9 2.2 Z M 174.2 2.0 C 173.2 2.5 173.7 1.5 174.2 2.0 C 174.2 2.0 174.2 2.0 174.2 2.0 Z M 129.4 3.8 C 137.6 6.8 118.5 3.0 129.4 3.8 C 129.4 3.8 129.4 3.8 129.4 3.8 Z M 153.4 3.1 C 153.3 3.2 153.3 3.2 153.4 3.1 C 153.4 3.1 153.4 3.1 153.4 3.1 Z M 138.3 1.9 C 138.2 2.0 138.2 2.0 138.3 1.9 C 138.3 1.9 138.3 1.9 138.3 1.9 Z M 135.7 3.6 C 135.7 3.6 135.7 3.6 135.7 3.6 C 135.7 3.6 135.7 3.6 135.7 3.6 Z M 136.4 10.6 C 136.4 10.7 136.4 10.7 136.4 10.6 C 136.4 10.6 136.4 10.6 136.4 10.6 Z M 137.3 7.4 C 137.2 7.6 137.2 7.6 137.3 7.4 C 137.3 7.4 137.3 7.4 137.3 7.4 Z M 132.0 8.6 C 132.0 8.7 132.0 8.7 132.0 8.6 C 132.0 8.6 132.0 8.6 132.0 8.6 Z M 132.1 9.6 C 132.1 9.6 132.1 9.6 132.1 9.6 C 132.1 9.6 132.1 9.6 132.1 9.6 Z M 165.2 4.9 C 165.1 5.1 165.1 5.1 165.2 4.9 C 165.2 4.9 165.2 4.9 165.2 4.9 Z M 162.3 7.9 C 164.3 6.8 161.8 9.4 162.3 7.9 C 162.3 7.9 162.3 7.9 162.3 7.9 Z M 145.4 6.4 C 147.2 6.1 144.3 7.3 145.4 6.4 C 145.4 6.4 145.4 6.4 145.4 6.4 Z M 147.3 10.3 C 147.4 10.3 147.4 10.3 147.3 10.3 C 147.3 10.3 147.3 10.3 147.3 10.3 Z M 135.7 1.8 C 135.6 2.0 135.6 2.0 135.7 1.8 C 135.7 1.8 135.7 1.8 135.7 1.8 Z M 132.5 3.0 C 132.4 4.5 131.5 2.3 132.5 3.0 M 148.7 2.2 C 148.7 2.4 148.7 2.4 148.7 2.2 C 148.7 2.2 148.7 2.2 148.7 2.2 Z M 159.0 4.5 C 158.9 4.6 158.9 4.6 159.0 4.5 C 159.0 4.5 159.0 4.5 159.0 4.5 Z M 169.1 3.6 C 169.1 3.8 169.1 3.8 169.1 3.6 C 169.1 3.6 169.1 3.6 169.1 3.6 Z M 155.1 2.4 C 155.0 2.6 155.0 2.6 155.1 2.4 C 155.1 2.4 155.1 2.4 155.1 2.4 Z M 150.2 3.7 C 150.2 3.9 150.2 3.9 150.2 3.7 C 150.2 3.7 150.2 3.7 150.2 3.7 Z M 171.4 5.7 C 171.3 5.8 171.3 5.8 171.4 5.7 C 171.4 5.7 171.4 5.7 171.4 5.7 Z M 156.2 2.2 C 156.2 2.2 156.2 2.2 156.2 2.2 C 156.2 2.2 156.2 2.2 156.2 2.2 Z M 159.2 6.9 C 159.1 7.0 159.1 7.0 159.2 6.9 C 159.2 6.9 159.2 6.9 159.2 6.9 Z M 133.0 0.9 C 132.9 1.0 132.9 1.0 133.0 0.9 C 133.0 0.9 133.0 0.9 133.0 0.9 Z M 171.5 3.7 C 171.4 3.7 171.4 3.7 171.5 3.7 C 171.5 3.7 171.5 3.7 171.5 3.7 Z M 172.1 2.3 C 172.1 2.4 172.1 2.4 172.1 2.3 C 172.1 2.3 172.1 2.3 172.1 2.3 Z M 164.9 9.5 C 161.3 8.6 168.1 9.1 165.5 7.5 C 170.7 7.1 165.7 9.5 164.9 9.5 C 164.9 9.5 164.9 9.5 164.9 9.5 Z M 164.9 9.5 " fill="#FEFFFE"></path></g></svg>