<?xml version="1.0" encoding="UTF-8" standalone="no"?><svg xmlns="http://www.w3.org/2000/svg" xmlns:xlink="http://www.w3.org/1999/xlink" clip-rule="evenodd" stroke-miterlimit="4.00" viewBox="0 0 139 13"><desc>SVG generated by Keynote</desc><defs></defs><g transform="matrix(1.00, 0.00, -0.00, -1.00, 0.0, 13.0)"><path d="M 23.6 4.2 C 23.2 4.5 22.0 4.1 21.6 4.4 M 23.6 4.2 C 22.4 2.4 20.3 2.3 17.3 1.9 C 14.1 1.9 17.4 3.6 17.1 4.4 C 12.9 5.1 12.9 3.8 13.5 1.8 C 11.9 3.2 7.1 0.8 8.1 3.3 C 14.8 3.3 3.4 3.9 9.0 5.3 C 9.7 5.7 8.0 6.3 7.4 6.3 C 9.3 7.4 6.1 8.5 9.1 9.3 C 9.5 10.8 8.9 10.2 10.8 11.4 C 11.7 11.5 11.3 11.0 11.2 10.6 C 11.5 8.8 13.5 11.7 15.1 10.5 C 16.5 12.9 18.0 10.1 16.7 9.1 C 18.1 9.4 19.8 11.9 21.2 10.1 C 22.0 11.3 25.8 10.5 23.6 9.1 C 21.9 8.1 23.8 7.4 24.0 6.8 C 23.4 6.3 21.1 7.1 20.8 6.6 C 21.5 6.2 24.5 5.4 21.3 5.4 C 22.3 4.6 20.7 4.1 23.6 4.2 C 23.6 4.2 23.6 4.2 23.6 4.2 Z M 12.3 2.9 C 12.3 2.2 13.4 2.9 12.3 2.9 C 12.3 2.9 12.3 2.9 12.3 2.9 Z M 20.0 11.4 C 20.0 10.7 21.1 11.4 20.0 11.4 C 20.0 11.4 20.0 11.4 20.0 11.4 Z M 11.8 10.7 C 11.7 10.1 12.9 10.7 11.8 10.7 C 11.8 10.7 11.8 10.7 11.8 10.7 Z M 15.3 3.3 C 17.1 3.8 13.8 4.2 13.5 3.6 C 13.9 3.7 14.8 2.8 15.3 3.3 C 15.3 3.3 15.3 3.3 15.3 3.3 Z M 15.5 7.0 C 15.7 6.7 16.4 6.6 16.3 7.3 C 15.8 7.4 15.4 7.2 15.5 7.0 C 15.5 7.0 15.5 7.0 15.5 7.0 Z M 6.7 4.4 C 6.8 4.1 7.6 4.0 7.5 4.7 C 7.0 4.8 6.6 4.6 6.7 4.4 C 6.7 4.4 6.7 4.4 6.7 4.4 Z M 17.3 5.0 C 17.7 5.1 17.9 5.7 17.4 5.7 C 17.1 5.4 15.9 5.3 17.3 5.0 C 17.3 5.0 17.3 5.0 17.3 5.0 Z M 20.1 2.8 C 21.6 3.2 18.6 4.1 18.6 3.8 C 18.1 3.4 19.3 2.3 20.1 2.8 C 20.1 2.8 20.1 2.8 20.1 2.8 Z M 18.2 5.8 C 19.4 6.1 17.6 6.3 18.2 5.8 C 18.2 5.8 18.2 5.8 18.2 5.8 Z M 7.9 9.0 C 9.1 9.4 7.4 9.5 7.9 9.0 C 7.9 9.0 7.9 9.0 7.9 9.0 Z M 14.4 11.0 C 15.6 11.3 13.9 11.5 14.4 11.0 C 14.4 11.0 14.4 11.0 14.4 11.0 Z M 12.0 4.5 C 9.8 4.5 11.7 2.9 12.0 4.5 C 12.0 4.5 12.0 4.5 12.0 4.5 Z M 23.5 2.7 C 21.4 2.7 23.2 1.1 23.5 2.7 C 23.5 2.7 23.5 2.7 23.5 2.7 Z M 129.6 3.3 C 131.6 2.9 123.9 0.9 126.8 3.3 C 127.6 5.4 122.4 5.2 123.8 3.3 C 122.2 3.1 122.2 3.0 121.4 3.9 C 121.1 2.4 117.5 1.7 116.2 2.5 C 115.4 3.7 118.6 2.6 116.6 4.0 C 112.0 4.4 116.9 5.4 115.1 7.1 C 115.0 7.1 114.9 6.3 114.5 6.8 C 114.3 8.3 116.9 9.4 115.7 10.6 C 116.4 10.4 119.7 12.1 118.3 10.7 C 117.9 9.2 121.9 12.5 121.6 10.1 C 122.7 11.2 123.8 9.6 124.8 11.0 C 125.7 11.3 125.6 10.0 125.5 9.7 C 125.4 8.5 126.5 12.3 127.8 10.2 C 127.9 10.8 131.6 10.6 128.8 9.7 C 129.6 9.9 133.8 10.4 131.6 8.2 C 128.7 7.2 134.6 5.9 131.2 5.8 C 128.6 5.6 128.0 6.0 130.0 4.9 C 130.6 5.0 133.6 4.8 131.0 3.8 C 130.5 4.1 129.2 3.9 129.6 3.3 C 129.6 3.3 129.6 3.3 129.6 3.3 Z M 130.1 6.5 C 128.6 6.6 130.0 5.7 130.1 6.5 C 130.1 6.5 130.1 6.5 130.1 6.5 Z M 124.6 11.5 C 123.1 11.6 124.5 10.7 124.6 11.5 C 124.6 11.5 124.6 11.5 124.6 11.5 Z M 124.8 2.7 C 124.1 3.4 123.9 1.1 124.8 2.7 C 124.8 2.7 124.8 2.7 124.8 2.7 Z M 127.2 9.7 C 127.1 9.7 127.4 9.4 127.7 9.2 C 127.7 9.4 127.3 9.7 127.2 9.7 C 127.2 9.7 127.2 9.7 127.2 9.7 Z M 122.2 2.7 C 120.0 3.8 121.8 0.9 122.2 2.7 C 122.2 2.7 122.2 2.7 122.2 2.7 Z M 117.7 4.9 C 117.4 7.2 115.3 4.4 117.7 4.9 C 117.7 4.9 117.7 4.9 117.7 4.9 Z M 120.9 9.9 C 121.3 9.4 121.3 10.2 120.9 9.9 C 120.9 9.9 120.9 9.9 120.9 9.9 Z M 130.8 10.2 C 131.2 9.7 131.2 10.5 130.8 10.2 C 130.8 10.2 130.8 10.2 130.8 10.2 Z M 118.0 9.7 C 118.2 8.9 118.9 10.1 118.0 9.7 C 118.0 9.7 118.0 9.7 118.0 9.7 Z M 124.4 3.6 C 126.5 1.8 126.9 6.3 124.4 3.6 C 124.4 3.6 124.4 3.6 124.4 3.6 Z M 128.1 3.4 C 129.6 3.1 127.9 4.6 127.2 4.3 C 127.3 4.1 127.9 3.6 128.1 3.4 C 128.1 3.4 128.1 3.4 128.1 3.4 Z M 122.2 3.8 C 123.6 2.9 123.5 4.3 122.2 3.8 C 122.2 3.8 122.2 3.8 122.2 3.8 Z M 125.8 2.8 C 126.5 3.1 125.2 3.1 125.8 2.8 C 125.8 2.8 125.8 2.8 125.8 2.8 Z M 119.4 1.9 C 120.1 2.2 118.8 2.2 119.4 1.9 C 119.4 1.9 119.4 1.9 119.4 1.9 Z M 129.9 2.5 C 130.6 2.7 129.3 2.7 129.9 2.5 C 129.9 2.5 129.9 2.5 129.9 2.5 Z M 120.0 3.1 C 119.8 4.0 121.8 5.8 118.2 4.2 C 117.5 3.7 119.1 2.5 120.0 3.1 C 120.0 3.1 120.0 3.1 120.0 3.1 Z M 27.8 4.3 C 21.5 1.7 23.0 6.2 22.7 7.1 C 21.9 8.3 22.7 9.0 24.0 9.9 C 25.3 12.7 26.0 7.0 26.9 9.8 C 28.6 13.6 28.8 6.5 29.6 10.5 C 29.3 11.5 31.7 10.7 31.5 10.4 C 32.8 12.3 34.5 8.9 34.5 8.6 C 35.4 9.1 35.4 12.7 38.0 10.0 C 39.9 9.1 40.8 12.6 40.3 10.1 C 41.7 12.9 41.3 9.4 42.7 10.3 C 43.7 11.8 42.7 7.9 44.5 10.8 C 45.3 8.6 43.7 12.4 48.6 10.7 C 46.2 10.5 50.9 8.9 49.9 10.4 C 48.3 12.1 52.2 9.8 54.4 10.8 C 55.0 10.0 57.7 7.9 57.2 10.2 C 59.5 12.8 59.6 8.6 60.5 10.7 C 61.3 11.6 61.6 9.7 62.1 9.8 C 62.9 11.5 63.6 10.4 66.5 10.8 C 72.7 11.6 67.4 6.6 69.8 6.1 C 70.2 5.3 66.7 -0.0 68.1 4.0 C 67.6 2.9 62.6 7.0 65.1 2.6 C 63.2 4.4 65.5 0.8 61.6 2.9 C 67.0 6.0 55.6 4.2 60.7 2.7 C 59.8 1.8 57.7 1.9 59.2 2.7 C 59.8 5.5 55.6 1.4 57.7 4.8 C 54.4 3.9 55.3 7.0 54.4 4.8 C 53.6 1.1 54.5 5.8 52.9 4.7 C 49.0 4.7 52.0 0.4 49.6 3.2 C 45.9 1.4 48.8 4.9 47.5 5.3 C 47.1 7.9 43.6 3.3 46.5 3.0 C 45.0 4.4 46.3 1.8 44.5 3.4 C 45.8 5.8 42.3 0.9 42.8 2.8 C 41.3 3.4 42.1 4.8 41.6 4.9 C 39.3 4.9 40.0 2.6 39.5 4.3 C 39.0 5.2 37.9 2.2 37.6 2.9 C 40.0 3.1 35.6 5.4 35.4 4.2 C 36.9 4.0 34.7 1.1 33.7 2.9 C 34.9 8.1 31.7 1.6 30.6 3.4 C 31.6 6.3 25.4 3.8 27.8 2.4 C 27.6 2.7 27.8 4.3 27.8 4.3 M 36.9 3.4 C 38.9 3.6 34.8 3.9 36.9 3.4 M 36.8 2.6 C 37.7 3.6 35.0 1.9 36.9 2.3 C 37.0 2.3 36.7 2.5 36.8 2.6 M 44.9 2.5 C 44.7 3.3 43.8 2.0 44.9 2.5 M 46.5 4.3 C 47.7 5.0 44.7 4.4 46.5 4.3 M 64.3 3.7 C 62.5 8.0 62.4 1.3 64.3 3.7 M 52.5 2.8 C 50.3 3.4 53.2 1.0 52.5 2.8 M 51.8 3.9 C 50.8 4.6 51.6 2.9 51.8 3.9 M 60.9 3.7 C 61.1 3.8 61.1 3.8 60.9 3.7 C 60.9 3.7 60.9 3.7 60.9 3.7 Z M 66.2 3.8 C 66.2 3.8 66.2 3.8 66.2 3.8 C 66.2 3.8 66.2 3.8 66.2 3.8 Z M 55.8 4.2 C 54.1 3.1 58.4 3.8 55.8 4.2 C 55.8 4.2 55.8 4.2 55.8 4.2 Z M 63.7 10.3 C 63.6 10.4 63.6 10.4 63.7 10.3 C 63.7 10.3 63.7 10.3 63.7 10.3 Z M 35.4 5.3 C 35.3 5.4 35.3 5.4 35.4 5.3 C 35.4 5.3 35.4 5.3 35.4 5.3 Z M 29.4 3.7 C 29.4 4.3 28.3 3.3 29.4 3.7 C 29.4 3.7 29.4 3.7 29.4 3.7 Z M 24.5 8.6 C 24.4 8.7 24.4 8.7 24.5 8.6 C 24.5 8.6 24.5 8.6 24.5 8.6 Z M 33.4 7.6 C 33.3 7.6 33.3 7.6 33.4 7.6 C 33.4 7.6 33.4 7.6 33.4 7.6 Z M 34.2 4.4 C 33.2 2.0 36.5 5.0 34.2 4.4 C 34.2 4.4 34.2 4.4 34.2 4.4 Z M 53.7 10.1 C 53.8 9.0 55.1 10.4 53.7 10.1 C 53.7 10.1 53.7 10.1 53.7 10.1 Z M 46.7 5.2 C 46.9 4.7 47.6 5.5 46.7 5.2 C 46.7 5.2 46.7 5.2 46.7 5.2 Z M 43.4 2.0 C 43.6 1.5 44.3 2.3 43.4 2.0 C 43.4 2.0 43.4 2.0 43.4 2.0 Z M 29.5 3.0 C 29.6 2.9 29.6 2.9 29.5 3.0 C 29.5 3.0 29.5 3.0 29.5 3.0 Z M 31.6 4.8 C 30.1 2.6 33.9 6.0 31.6 4.8 C 31.6 4.8 31.6 4.8 31.6 4.8 Z M 29.1 5.5 C 29.9 6.3 27.1 5.1 29.1 5.5 M 30.5 8.8 C 32.3 7.9 28.9 12.8 30.5 8.8 C 30.5 8.8 30.5 8.8 30.5 8.8 Z M 39.8 9.7 C 39.9 9.8 39.9 9.8 39.8 9.7 C 39.8 9.7 39.8 9.7 39.8 9.7 Z M 38.8 3.3 C 40.4 3.4 37.8 3.8 38.8 3.3 C 38.8 3.3 38.8 3.3 38.8 3.3 Z M 24.9 2.8 C 26.5 2.9 23.8 3.3 24.9 2.8 C 24.9 2.8 24.9 2.8 24.9 2.8 Z M 45.2 7.6 C 47.8 7.2 43.6 8.8 45.2 7.6 C 45.2 7.6 45.2 7.6 45.2 7.6 Z M 54.8 5.0 C 54.9 5.1 54.9 5.1 54.8 5.0 C 54.8 5.0 54.8 5.0 54.8 5.0 Z M 56.6 4.1 C 56.7 4.1 56.7 4.1 56.6 4.1 C 56.6 4.1 56.6 4.1 56.6 4.1 Z M 64.1 6.4 C 64.3 6.5 64.3 6.5 64.1 6.4 C 64.1 6.4 64.1 6.4 64.1 6.4 Z M 58.3 3.0 C 58.3 3.1 58.3 3.1 58.3 3.0 C 58.3 3.0 58.3 3.0 58.3 3.0 Z M 63.5 3.6 C 63.6 3.7 63.6 3.7 63.5 3.6 C 63.5 3.6 63.5 3.6 63.5 3.6 Z M 62.7 1.7 C 62.9 1.8 62.9 1.8 62.7 1.7 C 62.7 1.7 62.7 1.7 62.7 1.7 Z M 51.2 11.4 C 51.3 11.4 51.3 11.4 51.2 11.4 C 51.2 11.4 51.2 11.4 51.2 11.4 Z M 32.3 2.3 C 32.4 2.5 32.4 2.5 32.3 2.3 C 32.3 2.3 32.3 2.3 32.3 2.3 Z M 63.1 4.5 C 63.1 4.5 63.1 4.5 63.1 4.5 C 63.1 4.5 63.1 4.5 63.1 4.5 Z M 50.4 6.2 C 50.4 8.1 49.3 3.7 50.7 6.1 C 50.6 6.2 50.3 5.9 50.4 6.2 M 52.1 9.4 C 52.0 9.4 52.0 9.4 52.1 9.4 C 52.1 9.4 52.1 9.4 52.1 9.4 Z M 46.3 10.5 C 46.3 10.6 46.3 10.6 46.3 10.5 C 46.3 10.5 46.3 10.5 46.3 10.5 Z M 57.4 2.7 C 57.1 1.6 58.8 3.5 57.2 2.7 M 64.2 9.7 C 64.0 8.6 65.6 10.5 64.0 9.7 M 23.0 3.5 C 22.8 4.3 21.9 3.0 23.0 3.5 M 45.1 11.5 C 44.8 12.3 44.0 11.0 45.1 11.5 M 47.7 9.1 C 47.5 8.0 49.2 9.9 47.5 9.2 M 60.2 9.6 C 60.3 9.6 60.3 9.6 60.2 9.6 C 60.2 9.6 60.2 9.6 60.2 9.6 Z M 41.3 3.5 C 41.3 3.5 41.3 3.5 41.3 3.5 C 41.3 3.5 41.3 3.5 41.3 3.5 Z M 48.3 5.7 C 47.3 4.3 49.5 6.7 48.3 5.7 M 39.2 6.0 C 37.8 4.2 41.4 6.6 39.2 6.0 M 67.2 10.1 C 65.6 8.0 68.3 11.3 67.2 10.1 M 59.5 4.7 C 57.9 2.5 60.6 5.9 59.5 4.7 M 42.7 4.4 C 42.6 3.3 44.2 5.1 42.7 4.4 M 26.7 3.3 C 25.2 3.1 28.6 2.4 26.7 3.3 M 56.4 9.7 C 56.5 9.8 56.5 9.8 56.4 9.7 C 56.4 9.7 56.4 9.7 56.4 9.7 Z M 31.5 11.6 C 31.6 11.6 31.6 11.6 31.5 11.6 C 31.5 11.6 31.5 11.6 31.5 11.6 Z M 69.2 3.0 C 69.2 3.1 69.2 3.1 69.2 3.0 C 69.2 3.0 69.2 3.0 69.2 3.0 Z M 58.5 5.7 C 58.6 5.8 58.6 5.8 58.5 5.7 C 58.5 5.7 58.5 5.7 58.5 5.7 Z M 66.2 2.7 C 66.3 2.9 66.3 2.9 66.2 2.7 C 66.2 2.7 66.2 2.7 66.2 2.7 Z M 53.7 7.4 C 53.7 7.4 53.7 7.4 53.7 7.4 C 53.7 7.4 53.7 7.4 53.7 7.4 Z M 52.7 1.9 C 52.7 1.9 52.7 1.9 52.7 1.9 C 52.7 1.9 52.7 1.9 52.7 1.9 Z M 47.4 4.2 C 47.4 4.3 47.4 4.3 47.4 4.2 C 47.4 4.2 47.4 4.2 47.4 4.2 Z M 55.1 2.3 C 58.3 2.0 53.5 4.1 55.1 2.3 C 55.1 2.3 55.1 2.3 55.1 2.3 Z M 49.6 7.8 C 49.6 7.9 49.6 7.9 49.6 7.8 C 49.6 7.8 49.6 7.8 49.6 7.8 Z M 49.2 3.9 C 51.2 2.3 50.2 6.6 49.2 3.9 M 40.3 2.6 C 40.9 1.8 40.6 3.9 40.3 2.6 M 36.8 9.8 C 36.8 9.9 36.8 9.9 36.8 9.8 C 36.8 9.8 36.8 9.8 36.8 9.8 Z M 37.8 9.3 C 37.9 9.3 37.9 9.3 37.8 9.3 C 37.8 9.3 37.8 9.3 37.8 9.3 Z M 38.2 2.3 C 38.2 2.3 38.2 2.3 38.2 2.3 C 38.2 2.3 38.2 2.3 38.2 2.3 Z M 37.9 11.3 C 38.0 11.4 38.0 11.4 37.9 11.3 C 37.9 11.3 37.9 11.3 37.9 11.3 Z M 51.5 2.0 C 51.5 2.0 51.5 2.0 51.5 2.0 C 51.5 2.0 51.5 2.0 51.5 2.0 Z M 67.7 2.0 C 67.8 2.0 67.8 2.0 67.7 2.0 C 67.7 2.0 67.7 2.0 67.7 2.0 Z M 27.1 9.1 C 27.2 9.2 27.2 9.2 27.1 9.1 C 27.1 9.1 27.1 9.1 27.1 9.1 Z M 53.2 4.2 C 53.2 4.3 53.2 4.3 53.2 4.2 C 53.2 4.2 53.2 4.2 53.2 4.2 Z M 34.5 9.5 C 34.6 9.6 34.6 9.6 34.5 9.5 C 34.5 9.5 34.5 9.5 34.5 9.5 Z M 52.1 3.7 C 52.2 3.8 52.2 3.8 52.1 3.7 C 52.1 3.7 52.1 3.7 52.1 3.7 Z M 55.9 10.1 C 56.0 10.2 56.0 10.2 55.9 10.1 C 55.9 10.1 55.9 10.1 55.9 10.1 Z M 59.4 11.4 C 59.5 11.4 59.5 11.4 59.4 11.4 C 59.4 11.4 59.4 11.4 59.4 11.4 Z M 55.7 6.3 C 55.8 6.3 55.8 6.3 55.7 6.3 C 55.7 6.3 55.7 6.3 55.7 6.3 Z M 33.4 7.1 C 27.0 5.3 38.4 6.3 33.4 7.1 M 56.8 6.8 C 52.3 6.3 60.4 4.6 56.8 6.8 C 57.3 6.2 56.8 6.7 56.8 6.8 M 70.8 2.1 C 68.9 4.1 68.9 6.1 69.7 8.2 C 70.6 9.2 70.6 5.2 70.6 8.6 C 68.5 9.3 71.5 13.7 71.5 9.3 C 74.3 8.7 71.9 12.1 73.6 10.4 C 76.5 10.0 75.0 11.3 77.3 11.0 C 78.6 8.6 78.6 12.2 79.2 9.9 C 78.1 12.4 81.6 9.2 81.7 10.3 C 79.6 11.9 89.6 10.4 84.2 9.6 C 86.4 8.5 86.0 10.5 86.7 10.8 C 87.7 9.4 90.3 12.0 91.7 10.5 C 91.4 10.2 90.7 10.1 90.5 9.6 C 90.2 8.7 92.1 9.8 91.9 9.8 C 92.8 9.2 96.3 7.7 92.5 10.3 C 92.3 11.5 95.6 9.8 95.5 10.9 C 98.8 10.9 96.3 8.5 97.8 10.3 C 100.1 10.3 101.8 10.3 101.8 10.0 C 103.3 10.3 103.6 11.7 104.8 10.3 C 107.7 13.0 106.9 5.3 108.0 10.4 C 108.8 9.2 109.6 12.6 109.5 9.4 C 108.5 10.8 114.4 11.9 111.8 9.6 C 112.5 8.8 116.2 12.8 115.7 9.6 C 117.0 7.2 116.8 4.9 113.9 2.6 C 114.2 4.5 110.8 0.7 113.0 3.9 C 115.5 4.9 108.4 5.0 109.9 3.9 C 110.3 0.1 106.5 6.2 105.0 3.5 C 106.2 5.0 100.5 5.8 102.2 3.0 C 101.1 2.7 100.9 4.1 99.7 2.4 C 103.1 2.7 98.4 5.4 98.6 3.6 C 99.2 2.6 94.1 1.7 94.6 3.3 C 96.4 7.2 93.2 2.5 92.4 4.1 C 89.6 4.9 92.8 0.7 90.7 3.6 C 90.2 3.1 86.4 3.1 88.8 2.3 C 89.7 2.7 86.5 6.6 86.1 3.2 C 90.2 1.4 81.5 2.2 82.9 3.2 C 89.1 5.0 76.3 5.3 81.2 3.5 C 78.4 1.7 82.0 2.8 78.6 3.6 C 79.0 4.6 76.4 5.6 77.0 3.5 C 76.5 0.4 76.1 7.7 74.0 3.4 C 73.7 1.6 69.8 4.8 71.3 2.7 C 71.4 2.5 70.9 2.1 70.8 2.1 M 72.0 2.5 C 71.5 3.2 71.2 1.6 72.0 2.5 M 71.5 3.2 C 71.4 3.1 71.4 3.1 71.5 3.2 C 71.5 3.2 71.5 3.2 71.5 3.2 Z M 78.1 3.7 C 78.0 3.6 78.0 3.6 78.1 3.7 C 78.1 3.7 78.1 3.7 78.1 3.7 Z M 83.3 11.6 C 83.2 11.5 83.2 11.5 83.3 11.6 C 83.3 11.6 83.3 11.6 83.3 11.6 Z M 82.5 3.8 C 82.4 3.8 82.4 3.8 82.5 3.8 C 82.5 3.8 82.5 3.8 82.5 3.8 Z M 75.7 4.2 C 75.7 4.2 75.7 4.2 75.7 4.2 C 75.7 4.2 75.7 4.2 75.7 4.2 Z M 82.1 2.7 C 82.4 3.9 80.5 1.8 82.1 2.5 C 82.2 2.6 81.9 2.6 82.1 2.7 M 87.8 2.2 C 87.8 2.4 87.8 2.4 87.8 2.2 M 100.4 11.5 C 100.5 11.6 100.5 11.6 100.4 11.5 M 101.5 2.1 C 101.6 2.3 101.6 2.3 101.5 2.1 M 93.5 3.4 C 95.3 3.3 93.9 4.0 93.5 3.4 M 106.1 2.8 C 103.9 2.0 108.5 2.2 106.1 2.8 M 108.3 2.1 C 108.4 2.2 108.4 2.2 108.3 2.1 M 98.3 2.6 C 98.3 2.6 98.3 2.6 98.3 2.6 C 98.3 2.6 98.3 2.6 98.3 2.6 Z M 92.8 2.9 C 90.5 2.3 95.1 1.8 92.8 2.9 M 78.8 2.5 C 80.1 2.0 78.8 4.1 78.8 2.5 M 76.3 3.2 C 76.2 3.3 76.2 3.3 76.3 3.2 C 76.3 3.2 76.3 3.2 76.3 3.2 Z M 102.6 2.7 C 102.5 2.8 102.5 2.8 102.6 2.7 C 102.6 2.7 102.6 2.7 102.6 2.7 Z M 105.1 2.5 C 105.0 2.6 105.0 2.6 105.1 2.5 C 105.1 2.5 105.1 2.5 105.1 2.5 Z M 109.3 11.2 C 109.3 11.2 109.3 11.2 109.3 11.2 C 109.3 11.2 109.3 11.2 109.3 11.2 Z M 78.2 6.8 C 76.5 6.2 79.9 4.0 79.6 6.1 C 79.8 7.0 78.4 6.6 78.2 6.8 M 91.1 5.6 C 91.5 8.5 89.4 1.6 91.1 5.6 M 108.6 4.1 C 110.3 7.6 106.4 1.6 108.6 4.1 M 112.0 3.4 C 113.1 4.1 105.6 3.8 110.8 2.9 C 111.3 2.3 111.7 3.1 112.0 3.4 M 87.9 3.7 C 88.4 5.3 85.2 2.9 87.9 3.7 M 98.4 8.6 C 99.3 7.5 101.5 6.6 100.5 8.4 C 100.5 10.7 97.4 9.4 98.4 8.6 M 72.5 4.2 C 73.9 1.5 72.4 6.4 72.5 4.2 M 79.2 4.4 C 79.2 4.3 79.2 4.3 79.2 4.4 C 79.2 4.4 79.2 4.4 79.2 4.4 Z M 81.8 4.0 C 81.9 4.2 81.9 4.2 81.8 4.0 M 73.6 1.9 C 73.7 2.1 73.7 2.1 73.6 1.9 M 98.4 5.8 C 98.5 6.1 98.5 6.1 98.4 5.8 M 93.0 4.1 C 95.6 6.7 91.6 4.6 93.0 4.1 M 86.7 9.1 C 87.5 10.3 85.1 9.2 86.7 9.1 M 97.2 3.1 C 99.0 5.6 94.7 5.5 97.2 3.1 M 91.7 3.8 C 91.9 3.8 91.9 3.8 91.7 3.8 C 91.7 3.8 91.7 3.8 91.7 3.8 Z M 99.1 8.8 C 99.1 8.9 99.1 8.9 99.1 8.8 C 99.1 8.8 99.1 8.8 99.1 8.8 Z M 99.9 8.7 C 99.8 8.8 99.8 8.8 99.9 8.7 C 99.9 8.7 99.9 8.7 99.9 8.7 Z M 99.5 2.8 C 99.4 2.9 99.4 2.9 99.5 2.8 C 99.5 2.8 99.5 2.8 99.5 2.8 Z M 76.1 10.0 C 77.9 10.2 74.6 10.4 76.1 10.0 C 76.1 10.0 76.1 10.0 76.1 10.0 Z M 84.1 2.7 C 87.2 4.7 82.0 4.6 84.1 2.7 C 84.1 2.7 84.1 2.7 84.1 2.7 Z M 87.6 5.9 C 87.6 6.1 87.6 6.1 87.6 5.9 C 87.6 5.9 87.6 5.9 87.6 5.9 Z M 96.1 1.6 C 96.1 1.7 96.1 1.7 96.1 1.6 C 96.1 1.6 96.1 1.6 96.1 1.6 Z M 77.0 10.3 C 77.0 10.4 77.0 10.4 77.0 10.3 C 77.0 10.3 77.0 10.3 77.0 10.3 Z M 104.6 4.2 C 104.6 4.3 104.6 4.3 104.6 4.2 C 104.6 4.2 104.6 4.2 104.6 4.2 Z M 94.2 9.2 C 94.8 8.3 94.3 10.0 94.2 9.2 C 94.2 9.2 94.2 9.2 94.2 9.2 Z M 96.9 9.2 C 97.0 9.2 97.0 9.2 96.9 9.2 C 96.9 9.2 96.9 9.2 96.9 9.2 Z M 108.9 1.9 C 109.0 1.9 109.0 1.9 108.9 1.9 C 108.9 1.9 108.9 1.9 108.9 1.9 Z M 103.8 11.6 C 103.9 11.5 103.9 11.5 103.8 11.6 C 103.8 11.6 103.8 11.6 103.8 11.6 Z M 106.1 8.7 C 106.1 8.7 106.1 8.7 106.1 8.7 C 106.1 8.7 106.1 8.7 106.1 8.7 Z M 99.0 3.4 C 101.7 3.0 98.4 4.5 99.0 3.4 C 99.0 3.4 99.0 3.4 99.0 3.4 Z M 112.9 7.9 C 112.9 8.0 112.9 8.0 112.9 7.9 C 112.9 7.9 112.9 7.9 112.9 7.9 Z M 114.2 4.5 C 114.3 4.7 114.3 4.7 114.2 4.5 C 114.2 4.5 114.2 4.5 114.2 4.5 Z M 114.9 2.7 C 115.0 2.9 115.0 2.9 114.9 2.7 C 114.9 2.7 114.9 2.7 114.9 2.7 Z M 81.8 7.6 C 81.7 7.5 81.7 7.5 81.8 7.6 C 81.8 7.6 81.8 7.6 81.8 7.6 Z M 80.7 2.1 C 80.7 2.1 80.7 2.1 80.7 2.1 C 80.7 2.1 80.7 2.1 80.7 2.1 Z M 84.4 1.9 C 84.3 1.8 84.3 1.8 84.4 1.9 C 84.4 1.9 84.4 1.9 84.4 1.9 Z M 81.1 10.9 C 81.1 10.8 81.1 10.8 81.1 10.9 C 81.1 10.9 81.1 10.9 81.1 10.9 Z M 94.9 6.3 C 94.9 6.2 94.9 6.2 94.9 6.3 C 94.9 6.3 94.9 6.3 94.9 6.3 Z M 96.2 8.5 C 96.1 8.4 96.1 8.4 96.2 8.5 C 96.2 8.5 96.2 8.5 96.2 8.5 Z M 93.0 11.4 C 93.0 11.4 93.0 11.4 93.0 11.4 C 93.0 11.4 93.0 11.4 93.0 11.4 Z M 97.2 10.4 C 97.2 10.3 97.2 10.3 97.2 10.4 C 97.2 10.4 97.2 10.4 97.2 10.4 Z M 71.8 9.9 C 71.8 9.9 71.8 9.9 71.8 9.9 C 71.8 9.9 71.8 9.9 71.8 9.9 Z M 71.5 5.7 C 71.5 5.8 71.5 5.8 71.5 5.7 C 71.5 5.7 71.5 5.7 71.5 5.7 Z M 95.3 3.2 C 96.0 2.3 96.6 4.4 95.3 3.2 M 90.1 3.8 C 90.0 3.8 90.0 3.8 90.1 3.8 C 90.1 3.8 90.1 3.8 90.1 3.8 Z M 104.2 3.4 C 104.9 5.0 101.7 2.5 104.2 3.4 C 104.2 3.4 104.2 3.4 104.2 3.4 Z M 101.4 10.4 C 101.5 10.4 101.5 10.4 101.4 10.4 C 101.4 10.4 101.4 10.4 101.4 10.4 Z M 102.8 9.7 C 102.9 9.8 102.9 9.8 102.8 9.7 C 102.8 9.7 102.8 9.7 102.8 9.7 Z M 110.4 5.1 C 110.5 5.3 110.5 5.3 110.4 5.1 M 89.4 2.3 C 90.2 3.0 90.0 2.8 89.4 2.3 M 106.0 3.4 C 105.9 3.5 105.9 3.5 106.0 3.4 C 106.0 3.4 106.0 3.4 106.0 3.4 Z M 112.1 4.2 C 112.0 4.3 112.0 4.3 112.1 4.2 C 112.1 4.2 112.1 4.2 112.1 4.2 Z M 85.7 3.4 C 85.8 5.4 85.1 4.9 85.7 3.4 M 75.2 4.0 C 75.2 4.2 75.2 4.2 75.2 4.0 C 75.2 4.0 75.2 4.0 75.2 4.0 Z M 75.2 4.0 " fill="#FEFFFE"></path></g></svg>