<?xml version="1.0" encoding="UTF-8" standalone="no"?><svg xmlns="http://www.w3.org/2000/svg" xmlns:xlink="http://www.w3.org/1999/xlink" clip-rule="evenodd" stroke-miterlimit="4.00" viewBox="0 0 139 12"><desc>SVG generated by Keynote</desc><defs></defs><g transform="matrix(1.00, 0.00, -0.00, -1.00, 0.0, 12.0)"><path d="M 23.8 3.5 C 23.3 3.8 22.1 3.4 21.7 3.7 M 23.8 3.5 C 22.6 1.7 20.4 1.6 17.4 1.2 C 14.3 1.2 17.5 2.9 17.2 3.7 C 13.0 4.4 13.0 3.1 13.6 1.1 C 12.0 2.4 7.3 0.1 8.2 2.5 C 14.9 2.5 3.6 3.1 9.1 4.6 C 9.8 4.9 8.1 5.6 7.5 5.6 C 9.4 6.6 6.2 7.8 9.2 8.6 C 9.6 10.1 9.0 9.4 11.0 10.7 C 11.8 10.8 11.4 10.3 11.3 9.9 C 11.6 8.1 13.6 10.9 15.2 9.8 C 16.6 12.2 18.1 9.4 16.8 8.4 C 18.2 8.7 19.9 11.1 21.3 9.4 C 22.1 10.6 26.0 9.8 23.7 8.3 C 22.0 7.4 23.9 6.7 24.1 6.1 C 23.6 5.6 21.2 6.3 20.9 5.9 C 21.6 5.5 24.6 4.6 21.4 4.7 C 22.4 3.9 20.8 3.4 23.8 3.5 C 23.8 3.5 23.8 3.5 23.8 3.5 Z M 12.4 2.2 C 12.4 1.5 13.5 2.2 12.4 2.2 C 12.4 2.2 12.4 2.2 12.4 2.2 Z M 20.1 10.6 C 20.1 10.0 21.2 10.7 20.1 10.6 C 20.1 10.6 20.1 10.6 20.1 10.6 Z M 11.9 10.0 C 11.8 9.3 13.0 10.0 11.9 10.0 C 11.9 10.0 11.9 10.0 11.9 10.0 Z M 15.4 2.6 C 17.2 3.1 13.9 3.5 13.6 2.9 C 14.0 2.9 14.9 2.0 15.4 2.6 C 15.4 2.6 15.4 2.6 15.4 2.6 Z M 15.6 6.2 C 15.8 6.0 16.5 5.9 16.4 6.6 C 16.0 6.7 15.5 6.5 15.6 6.2 C 15.6 6.2 15.6 6.2 15.6 6.2 Z M 6.8 3.6 C 6.9 3.4 7.7 3.3 7.6 4.0 C 7.1 4.1 6.7 3.9 6.8 3.6 C 6.8 3.6 6.8 3.6 6.8 3.6 Z M 17.4 4.2 C 17.8 4.4 18.0 4.9 17.5 5.0 C 17.2 4.7 16.0 4.6 17.4 4.2 C 17.4 4.2 17.4 4.2 17.4 4.2 Z M 20.2 2.1 C 21.7 2.5 18.7 3.4 18.7 3.1 C 18.2 2.7 19.4 1.6 20.2 2.1 C 20.2 2.1 20.2 2.1 20.2 2.1 Z M 18.3 5.1 C 19.5 5.4 17.7 5.6 18.3 5.1 C 18.3 5.1 18.3 5.1 18.3 5.1 Z M 8.0 8.3 C 9.2 8.6 7.5 8.8 8.0 8.3 C 8.0 8.3 8.0 8.3 8.0 8.3 Z M 14.5 10.3 C 15.7 10.6 14.0 10.8 14.5 10.3 C 14.5 10.3 14.5 10.3 14.5 10.3 Z M 12.1 3.8 C 9.9 3.8 11.8 2.2 12.1 3.8 C 12.1 3.8 12.1 3.8 12.1 3.8 Z M 23.6 2.0 C 21.5 1.9 23.3 0.4 23.6 2.0 C 23.6 2.0 23.6 2.0 23.6 2.0 Z M 129.7 2.6 C 131.7 2.2 124.0 0.1 126.9 2.6 C 127.7 4.7 122.5 4.5 123.9 2.6 C 122.3 2.4 122.3 2.2 121.5 3.2 C 121.2 1.7 117.6 0.9 116.3 1.7 C 115.5 3.0 118.7 1.9 116.7 3.3 C 112.1 3.7 117.0 4.7 115.3 6.4 C 115.1 6.4 115.0 5.6 114.6 6.0 C 114.4 7.6 117.0 8.7 115.8 9.9 C 116.5 9.6 119.8 11.4 118.4 10.0 C 118.0 8.5 122.0 11.8 121.7 9.3 C 122.8 10.5 123.9 8.9 124.9 10.3 C 125.8 10.6 125.8 9.3 125.6 9.0 C 125.5 7.8 126.6 11.5 127.9 9.5 C 128.0 10.1 131.7 9.9 128.9 9.0 C 129.7 9.1 133.9 9.7 131.7 7.5 C 128.8 6.5 134.7 5.2 131.3 5.1 C 128.7 4.9 128.1 5.3 130.1 4.2 C 130.7 4.3 133.7 4.1 131.1 3.1 C 130.6 3.4 129.3 3.2 129.7 2.6 C 129.7 2.6 129.7 2.6 129.7 2.6 Z M 130.2 5.8 C 128.7 5.9 130.1 5.0 130.2 5.8 C 130.2 5.8 130.2 5.8 130.2 5.8 Z M 124.7 10.8 C 123.2 10.9 124.6 9.9 124.7 10.8 C 124.7 10.8 124.7 10.8 124.7 10.8 Z M 124.9 2.0 C 124.2 2.7 124.0 0.4 124.9 2.0 C 124.9 2.0 124.9 2.0 124.9 2.0 Z M 127.3 9.0 C 127.2 9.0 127.5 8.7 127.8 8.5 C 127.8 8.7 127.4 8.9 127.3 9.0 C 127.3 9.0 127.3 9.0 127.3 9.0 Z M 122.4 2.0 C 120.1 3.1 121.9 0.2 122.4 2.0 C 122.4 2.0 122.4 2.0 122.4 2.0 Z M 117.8 4.2 C 117.5 6.5 115.4 3.7 117.8 4.2 C 117.8 4.2 117.8 4.2 117.8 4.2 Z M 121.0 9.2 C 121.4 8.7 121.4 9.5 121.0 9.2 C 121.0 9.2 121.0 9.2 121.0 9.2 Z M 130.9 9.5 C 131.3 9.0 131.3 9.8 130.9 9.5 C 130.9 9.5 130.9 9.5 130.9 9.5 Z M 118.1 9.0 C 118.3 8.1 119.0 9.4 118.1 9.0 C 118.1 9.0 118.1 9.0 118.1 9.0 Z M 124.5 2.9 C 126.6 1.1 127.0 5.6 124.5 2.9 C 124.5 2.9 124.5 2.9 124.5 2.9 Z M 128.2 2.7 C 129.7 2.4 128.0 3.9 127.4 3.6 C 127.4 3.4 128.0 2.8 128.2 2.7 C 128.2 2.7 128.2 2.7 128.2 2.7 Z M 122.3 3.1 C 123.7 2.2 123.6 3.6 122.3 3.1 C 122.3 3.1 122.3 3.1 122.3 3.1 Z M 125.9 2.1 C 126.6 2.3 125.3 2.4 125.9 2.1 C 125.9 2.1 125.9 2.1 125.9 2.1 Z M 119.5 1.2 C 120.2 1.4 118.9 1.5 119.5 1.2 C 119.5 1.2 119.5 1.2 119.5 1.2 Z M 130.0 1.8 C 130.7 2.0 129.4 2.0 130.0 1.8 C 130.0 1.8 130.0 1.8 130.0 1.8 Z M 120.1 2.4 C 119.9 3.2 121.9 5.0 118.3 3.5 C 117.6 2.9 119.2 1.8 120.1 2.4 C 120.1 2.4 120.1 2.4 120.1 2.4 Z M 27.9 3.6 C 21.6 1.0 23.1 5.5 22.8 6.3 C 22.0 7.5 22.8 8.3 24.1 9.2 C 25.4 12.0 26.1 6.2 27.0 9.1 C 28.7 12.9 28.9 5.8 29.7 9.8 C 29.4 10.8 31.8 10.0 31.6 9.7 C 32.9 11.6 34.6 8.2 34.6 7.9 C 35.5 8.4 35.5 11.9 38.1 9.3 C 40.0 8.3 40.9 11.9 40.4 9.4 C 41.8 12.2 41.4 8.6 42.8 9.5 C 43.8 11.0 42.8 7.2 44.6 10.1 C 45.4 7.8 43.8 11.7 48.7 10.0 C 46.3 9.8 51.0 8.2 50.0 9.7 C 48.4 11.4 52.3 9.1 54.5 10.1 C 55.1 9.2 57.8 7.2 57.3 9.4 C 59.6 12.1 59.7 7.8 60.6 10.0 C 61.4 10.9 61.7 9.0 62.2 9.1 C 63.0 10.7 63.7 9.6 66.6 10.1 C 72.8 10.9 67.5 5.9 69.9 5.4 C 70.3 4.6 66.8 -0.7 68.2 3.3 C 67.8 2.2 62.7 6.3 65.2 1.9 C 63.3 3.7 65.6 0.1 61.7 2.2 C 67.1 5.3 55.7 3.5 60.8 2.0 C 59.9 1.0 57.8 1.2 59.3 2.0 C 59.9 4.8 55.7 0.7 57.8 4.1 C 54.5 3.2 55.4 6.3 54.5 4.1 C 53.7 0.4 54.6 5.1 53.0 4.0 C 49.1 3.9 52.1 -0.3 49.8 2.5 C 46.0 0.7 48.9 4.1 47.6 4.6 C 47.3 7.1 43.7 2.6 46.6 2.3 C 45.1 3.7 46.4 1.1 44.6 2.7 C 45.9 5.1 42.4 0.2 42.9 2.1 C 41.4 2.7 42.2 4.1 41.7 4.1 C 39.4 4.2 40.1 1.8 39.6 3.6 C 39.1 4.5 38.0 1.5 37.7 2.2 C 40.1 2.4 35.8 4.7 35.5 3.5 C 37.0 3.3 34.8 0.3 33.8 2.2 C 35.0 7.4 31.8 0.9 30.7 2.7 C 31.7 5.6 25.5 3.0 27.9 1.7 C 27.7 2.0 27.9 3.6 27.9 3.6 M 37.0 2.6 C 39.0 2.9 34.9 3.2 37.0 2.6 M 36.9 1.9 C 37.8 2.8 35.1 1.2 37.0 1.6 C 37.1 1.6 36.8 1.8 36.9 1.9 M 45.0 1.8 C 44.8 2.6 43.9 1.3 45.0 1.8 M 46.6 3.6 C 47.8 4.3 44.8 3.7 46.6 3.6 M 64.4 3.0 C 62.6 7.3 62.5 0.6 64.4 3.0 M 52.6 2.1 C 50.4 2.7 53.4 0.3 52.6 2.1 M 51.9 3.2 C 50.9 3.9 51.7 2.2 51.9 3.2 M 61.0 3.0 C 61.2 3.1 61.2 3.1 61.0 3.0 C 61.0 3.0 61.0 3.0 61.0 3.0 Z M 66.3 3.1 C 66.3 3.0 66.3 3.0 66.3 3.1 C 66.3 3.1 66.3 3.1 66.3 3.1 Z M 55.9 3.4 C 54.2 2.4 58.5 3.0 55.9 3.4 C 55.9 3.4 55.9 3.4 55.9 3.4 Z M 63.8 9.6 C 63.7 9.7 63.7 9.7 63.8 9.6 C 63.8 9.6 63.8 9.6 63.8 9.6 Z M 35.5 4.6 C 35.4 4.6 35.4 4.6 35.5 4.6 C 35.5 4.6 35.5 4.6 35.5 4.6 Z M 29.5 3.0 C 29.5 3.6 28.4 2.5 29.5 3.0 C 29.5 3.0 29.5 3.0 29.5 3.0 Z M 24.6 7.9 C 24.5 7.9 24.5 7.9 24.6 7.9 C 24.6 7.9 24.6 7.9 24.6 7.9 Z M 33.5 6.9 C 33.4 6.9 33.4 6.9 33.5 6.9 C 33.5 6.9 33.5 6.9 33.5 6.9 Z M 34.3 3.7 C 33.4 1.3 36.6 4.3 34.3 3.7 C 34.3 3.7 34.3 3.7 34.3 3.7 Z M 53.8 9.4 C 53.9 8.3 55.2 9.7 53.8 9.4 C 53.8 9.4 53.8 9.4 53.8 9.4 Z M 46.8 4.5 C 47.0 4.0 47.7 4.8 46.8 4.5 C 46.8 4.5 46.8 4.5 46.8 4.5 Z M 43.5 1.3 C 43.7 0.8 44.4 1.6 43.5 1.3 C 43.5 1.3 43.5 1.3 43.5 1.3 Z M 29.6 2.3 C 29.7 2.2 29.7 2.2 29.6 2.3 C 29.6 2.3 29.6 2.3 29.6 2.3 Z M 31.7 4.1 C 30.2 1.9 34.0 5.3 31.7 4.1 C 31.7 4.1 31.7 4.1 31.7 4.1 Z M 29.2 4.7 C 30.0 5.6 27.2 4.4 29.2 4.7 M 30.6 8.1 C 32.4 7.2 29.0 12.1 30.6 8.1 C 30.6 8.1 30.6 8.1 30.6 8.1 Z M 39.9 9.0 C 40.0 9.1 40.0 9.1 39.9 9.0 C 39.9 9.0 39.9 9.0 39.9 9.0 Z M 38.9 2.6 C 40.5 2.6 37.9 3.1 38.9 2.6 C 38.9 2.6 38.9 2.6 38.9 2.6 Z M 25.0 2.1 C 26.6 2.2 23.9 2.6 25.0 2.1 C 25.0 2.1 25.0 2.1 25.0 2.1 Z M 45.3 6.9 C 47.9 6.5 43.7 8.0 45.3 6.9 C 45.3 6.9 45.3 6.9 45.3 6.9 Z M 55.0 4.3 C 55.0 4.4 55.0 4.4 55.0 4.3 C 55.0 4.3 55.0 4.3 55.0 4.3 Z M 56.8 3.4 C 56.8 3.4 56.8 3.4 56.8 3.4 C 56.8 3.4 56.8 3.4 56.8 3.4 Z M 64.2 5.7 C 64.4 5.7 64.4 5.7 64.2 5.7 C 64.2 5.7 64.2 5.7 64.2 5.7 Z M 58.4 2.3 C 58.4 2.4 58.4 2.4 58.4 2.3 C 58.4 2.3 58.4 2.3 58.4 2.3 Z M 63.6 2.9 C 63.7 3.0 63.7 3.0 63.6 2.9 C 63.6 2.9 63.6 2.9 63.6 2.9 Z M 62.8 1.0 C 63.0 1.1 63.0 1.1 62.8 1.0 C 62.8 1.0 62.8 1.0 62.8 1.0 Z M 51.3 10.6 C 51.4 10.7 51.4 10.7 51.3 10.6 C 51.3 10.6 51.3 10.6 51.3 10.6 Z M 32.4 1.6 C 32.5 1.8 32.5 1.8 32.4 1.6 C 32.4 1.6 32.4 1.6 32.4 1.6 Z M 63.2 3.8 C 63.2 3.8 63.2 3.8 63.2 3.8 C 63.2 3.8 63.2 3.8 63.2 3.8 Z M 50.5 5.5 C 50.5 7.4 49.4 3.0 50.8 5.4 C 50.7 5.5 50.4 5.2 50.5 5.5 M 52.2 8.6 C 52.1 8.7 52.1 8.7 52.2 8.6 C 52.2 8.6 52.2 8.6 52.2 8.6 Z M 46.4 9.8 C 46.4 9.9 46.4 9.9 46.4 9.8 C 46.4 9.8 46.4 9.8 46.4 9.8 Z M 57.5 2.0 C 57.2 0.9 58.9 2.8 57.3 2.0 M 64.3 9.0 C 64.1 7.9 65.7 9.8 64.1 9.0 M 23.1 2.8 C 22.9 3.6 22.1 2.3 23.1 2.8 M 45.2 10.8 C 45.0 11.6 44.1 10.3 45.2 10.8 M 47.8 8.4 C 47.6 7.3 49.3 9.2 47.6 8.4 M 60.4 8.9 C 60.4 8.9 60.4 8.9 60.4 8.9 C 60.4 8.9 60.4 8.9 60.4 8.9 Z M 41.4 2.8 C 41.4 2.8 41.4 2.8 41.4 2.8 C 41.4 2.8 41.4 2.8 41.4 2.8 Z M 48.4 5.0 C 47.4 3.6 49.6 5.9 48.4 5.0 M 39.3 5.3 C 38.0 3.5 41.5 5.9 39.3 5.3 M 67.3 9.4 C 65.7 7.2 68.4 10.6 67.3 9.4 M 59.6 4.0 C 58.0 1.8 60.7 5.2 59.6 4.0 M 42.8 3.7 C 42.7 2.6 44.4 4.4 42.8 3.7 M 26.8 2.6 C 25.3 2.4 28.7 1.7 26.8 2.6 M 56.6 9.0 C 56.6 9.0 56.6 9.0 56.6 9.0 C 56.6 9.0 56.6 9.0 56.6 9.0 Z M 31.6 10.8 C 31.7 10.9 31.7 10.9 31.6 10.8 C 31.6 10.8 31.6 10.8 31.6 10.8 Z M 69.3 2.3 C 69.4 2.4 69.4 2.4 69.3 2.3 C 69.3 2.3 69.3 2.3 69.3 2.3 Z M 58.6 5.0 C 58.7 5.1 58.7 5.1 58.6 5.0 C 58.6 5.0 58.6 5.0 58.6 5.0 Z M 66.3 2.0 C 66.4 2.2 66.4 2.2 66.3 2.0 C 66.3 2.0 66.3 2.0 66.3 2.0 Z M 53.8 6.7 C 53.8 6.7 53.8 6.7 53.8 6.7 C 53.8 6.7 53.8 6.7 53.8 6.7 Z M 52.8 1.2 C 52.8 1.2 52.8 1.2 52.8 1.2 C 52.8 1.2 52.8 1.2 52.8 1.2 Z M 47.5 3.5 C 47.5 3.6 47.5 3.6 47.5 3.5 C 47.5 3.5 47.5 3.5 47.5 3.5 Z M 55.2 1.6 C 58.4 1.3 53.6 3.4 55.2 1.6 C 55.2 1.6 55.2 1.6 55.2 1.6 Z M 49.7 7.1 C 49.8 7.1 49.8 7.1 49.7 7.1 C 49.7 7.1 49.7 7.1 49.7 7.1 Z M 49.3 3.2 C 51.3 1.6 50.3 5.9 49.3 3.2 M 40.4 1.9 C 41.1 1.1 40.8 3.2 40.4 1.9 M 36.9 9.1 C 36.9 9.2 36.9 9.2 36.9 9.1 C 36.9 9.1 36.9 9.1 36.9 9.1 Z M 37.9 8.6 C 38.0 8.6 38.0 8.6 37.9 8.6 C 37.9 8.6 37.9 8.6 37.9 8.6 Z M 38.3 1.6 C 38.3 1.6 38.3 1.6 38.3 1.6 C 38.3 1.6 38.3 1.6 38.3 1.6 Z M 38.0 10.6 C 38.1 10.7 38.1 10.7 38.0 10.6 C 38.0 10.6 38.0 10.6 38.0 10.6 Z M 51.6 1.3 C 51.6 1.3 51.6 1.3 51.6 1.3 C 51.6 1.3 51.6 1.3 51.6 1.3 Z M 67.8 1.2 C 67.9 1.3 67.9 1.3 67.8 1.2 C 67.8 1.2 67.8 1.2 67.8 1.2 Z M 27.2 8.4 C 27.3 8.4 27.3 8.4 27.2 8.4 C 27.2 8.4 27.2 8.4 27.2 8.4 Z M 53.3 3.5 C 53.3 3.6 53.3 3.6 53.3 3.5 C 53.3 3.5 53.3 3.5 53.3 3.5 Z M 34.6 8.8 C 34.7 8.9 34.7 8.9 34.6 8.8 C 34.6 8.8 34.6 8.8 34.6 8.8 Z M 52.2 3.0 C 52.3 3.0 52.3 3.0 52.2 3.0 C 52.2 3.0 52.2 3.0 52.2 3.0 Z M 56.1 9.4 C 56.1 9.4 56.1 9.4 56.1 9.4 C 56.1 9.4 56.1 9.4 56.1 9.4 Z M 59.5 10.7 C 59.6 10.7 59.6 10.7 59.5 10.7 C 59.5 10.7 59.5 10.7 59.5 10.7 Z M 55.8 5.6 C 55.9 5.6 55.9 5.6 55.8 5.6 C 55.8 5.6 55.8 5.6 55.8 5.6 Z M 33.5 6.4 C 27.1 4.5 38.6 5.6 33.5 6.4 M 56.9 6.0 C 52.4 5.6 60.5 3.9 56.9 6.0 C 57.4 5.5 56.9 6.0 56.9 6.0 M 70.9 1.4 C 69.0 3.4 69.0 5.4 69.8 7.5 C 70.7 8.5 70.7 4.5 70.7 7.9 C 68.6 8.5 71.6 13.0 71.6 8.6 C 74.4 8.0 72.0 11.4 73.7 9.7 C 76.6 9.2 75.1 10.6 77.4 10.3 C 78.7 7.9 78.7 11.5 79.3 9.2 C 78.2 11.7 81.7 8.5 81.8 9.6 C 79.7 11.1 89.7 9.6 84.3 8.9 C 86.5 7.8 86.1 9.8 86.8 10.1 C 87.8 8.7 90.4 11.3 91.8 9.8 C 91.5 9.5 90.8 9.4 90.6 8.9 C 90.3 8.0 92.2 9.1 92.0 9.1 C 92.9 8.5 96.4 7.0 92.6 9.6 C 92.4 10.8 95.7 9.1 95.6 10.1 C 98.9 10.2 96.4 7.8 97.9 9.6 C 100.3 9.6 101.9 9.6 101.9 9.3 C 103.4 9.6 103.7 11.0 104.9 9.6 C 107.8 12.3 107.0 4.6 108.1 9.7 C 108.9 8.5 109.7 11.9 109.6 8.7 C 108.6 10.1 114.5 11.2 111.9 8.8 C 112.6 8.1 116.3 12.1 115.8 8.9 C 117.1 6.5 116.9 4.2 114.0 1.9 C 114.3 3.8 110.9 0.0 113.1 3.2 C 115.6 4.2 108.5 4.3 110.0 3.1 C 110.4 -0.6 106.6 5.5 105.1 2.8 C 106.3 4.3 100.6 5.0 102.3 2.2 C 101.2 2.0 101.0 3.3 99.8 1.7 C 103.2 2.0 98.5 4.6 98.7 2.9 C 99.3 1.9 94.2 1.0 94.7 2.6 C 96.5 6.5 93.4 1.8 92.5 3.3 C 89.7 4.2 92.9 0.0 90.8 2.9 C 90.3 2.4 86.5 2.4 88.9 1.6 C 89.8 2.0 86.6 5.8 86.2 2.5 C 90.3 0.7 81.6 1.5 83.0 2.5 C 89.2 4.3 76.4 4.6 81.3 2.8 C 78.5 1.0 82.1 2.1 78.7 2.8 C 79.1 3.9 76.5 4.9 77.1 2.8 C 76.6 -0.4 76.2 7.0 74.1 2.7 C 73.8 0.8 69.9 4.1 71.4 2.0 C 71.5 1.8 71.0 1.4 70.9 1.4 M 72.1 1.8 C 71.6 2.5 71.3 0.9 72.1 1.8 M 71.6 2.5 C 71.5 2.4 71.5 2.4 71.6 2.5 C 71.6 2.5 71.6 2.5 71.6 2.5 Z M 78.2 3.0 C 78.1 2.9 78.1 2.9 78.2 3.0 C 78.2 3.0 78.2 3.0 78.2 3.0 Z M 83.4 10.9 C 83.4 10.8 83.4 10.8 83.4 10.9 C 83.4 10.9 83.4 10.9 83.4 10.9 Z M 82.6 3.1 C 82.5 3.1 82.5 3.1 82.6 3.1 C 82.6 3.1 82.6 3.1 82.6 3.1 Z M 75.8 3.5 C 75.8 3.4 75.8 3.4 75.8 3.5 C 75.8 3.5 75.8 3.5 75.8 3.5 Z M 82.2 2.0 C 82.5 3.2 80.6 1.1 82.2 1.8 C 82.3 1.9 82.0 1.9 82.2 2.0 M 87.9 1.5 C 87.9 1.6 87.9 1.6 87.9 1.5 M 100.6 10.8 C 100.6 10.9 100.6 10.9 100.6 10.8 M 101.6 1.4 C 101.7 1.6 101.7 1.6 101.6 1.4 M 93.6 2.7 C 95.4 2.6 94.0 3.3 93.6 2.7 M 106.2 2.1 C 104.0 1.3 108.6 1.4 106.2 2.1 M 108.4 1.4 C 108.6 1.5 108.6 1.5 108.4 1.4 M 98.4 1.8 C 98.4 1.9 98.4 1.9 98.4 1.8 C 98.4 1.8 98.4 1.8 98.4 1.8 Z M 92.9 2.2 C 90.6 1.6 95.2 1.1 92.9 2.2 M 79.0 1.8 C 80.2 1.2 78.9 3.3 79.0 1.8 M 76.4 2.5 C 76.3 2.5 76.3 2.5 76.4 2.5 C 76.4 2.5 76.4 2.5 76.4 2.5 Z M 102.7 2.0 C 102.6 2.0 102.6 2.0 102.7 2.0 C 102.7 2.0 102.7 2.0 102.7 2.0 Z M 105.2 1.8 C 105.1 1.8 105.1 1.8 105.2 1.8 C 105.2 1.8 105.2 1.8 105.2 1.8 Z M 109.4 10.5 C 109.4 10.5 109.4 10.5 109.4 10.5 C 109.4 10.5 109.4 10.5 109.4 10.5 Z M 78.3 6.1 C 76.6 5.5 80.0 3.2 79.7 5.4 C 79.9 6.3 78.5 5.9 78.3 6.1 M 91.2 4.9 C 91.6 7.8 89.5 0.8 91.2 4.9 M 108.7 3.3 C 110.4 6.8 106.5 0.8 108.7 3.3 M 112.2 2.7 C 113.2 3.4 105.7 3.1 110.9 2.2 C 111.4 1.6 111.8 2.3 112.2 2.7 M 88.0 2.9 C 88.5 4.6 85.3 2.2 88.0 2.9 M 98.5 7.8 C 99.4 6.8 101.6 5.9 100.6 7.7 C 100.6 10.0 97.5 8.7 98.5 7.8 M 72.6 3.5 C 74.0 0.8 72.5 5.7 72.6 3.5 M 79.3 3.7 C 79.3 3.6 79.3 3.6 79.3 3.7 C 79.3 3.7 79.3 3.7 79.3 3.7 Z M 81.9 3.3 C 82.0 3.5 82.0 3.5 81.9 3.3 M 73.7 1.1 C 73.8 1.4 73.8 1.4 73.7 1.1 M 98.5 5.1 C 98.6 5.3 98.6 5.3 98.5 5.1 M 93.1 3.4 C 95.7 6.0 91.7 3.9 93.1 3.4 M 86.8 8.4 C 87.6 9.6 85.2 8.5 86.8 8.4 M 97.3 2.4 C 99.2 4.9 94.8 4.7 97.3 2.4 M 91.8 3.1 C 92.0 3.1 92.0 3.1 91.8 3.1 C 91.8 3.1 91.8 3.1 91.8 3.1 Z M 99.2 8.1 C 99.2 8.2 99.2 8.2 99.2 8.1 C 99.2 8.1 99.2 8.1 99.2 8.1 Z M 100.0 8.0 C 99.9 8.1 99.9 8.1 100.0 8.0 C 100.0 8.0 100.0 8.0 100.0 8.0 Z M 99.6 2.1 C 99.5 2.2 99.5 2.2 99.6 2.1 C 99.6 2.1 99.6 2.1 99.6 2.1 Z M 76.2 9.3 C 78.0 9.4 74.8 9.6 76.2 9.3 C 76.2 9.3 76.2 9.3 76.2 9.3 Z M 84.3 2.0 C 87.3 4.0 82.2 3.8 84.3 2.0 C 84.3 2.0 84.3 2.0 84.3 2.0 Z M 87.7 5.2 C 87.7 5.4 87.7 5.4 87.7 5.2 C 87.7 5.2 87.7 5.2 87.7 5.2 Z M 96.2 0.9 C 96.2 1.0 96.2 1.0 96.2 0.9 C 96.2 0.9 96.2 0.9 96.2 0.9 Z M 77.1 9.6 C 77.1 9.7 77.1 9.7 77.1 9.6 C 77.1 9.6 77.1 9.6 77.1 9.6 Z M 104.8 3.5 C 104.8 3.6 104.8 3.6 104.8 3.5 C 104.8 3.5 104.8 3.5 104.8 3.5 Z M 94.3 8.5 C 94.9 7.6 94.4 9.3 94.3 8.5 C 94.3 8.5 94.3 8.5 94.3 8.5 Z M 97.0 8.5 C 97.1 8.5 97.1 8.5 97.0 8.5 C 97.0 8.5 97.0 8.5 97.0 8.5 Z M 109.0 1.2 C 109.1 1.2 109.1 1.2 109.0 1.2 C 109.0 1.2 109.0 1.2 109.0 1.2 Z M 103.9 10.8 C 104.0 10.8 104.0 10.8 103.9 10.8 C 103.9 10.8 103.9 10.8 103.9 10.8 Z M 106.2 8.0 C 106.2 8.0 106.2 8.0 106.2 8.0 C 106.2 8.0 106.2 8.0 106.2 8.0 Z M 99.1 2.7 C 101.8 2.3 98.5 3.8 99.1 2.7 C 99.1 2.7 99.1 2.7 99.1 2.7 Z M 113.0 7.2 C 113.0 7.3 113.0 7.3 113.0 7.2 C 113.0 7.2 113.0 7.2 113.0 7.2 Z M 114.3 3.8 C 114.4 4.0 114.4 4.0 114.3 3.8 C 114.3 3.8 114.3 3.8 114.3 3.8 Z M 115.0 2.0 C 115.1 2.2 115.1 2.2 115.0 2.0 C 115.0 2.0 115.0 2.0 115.0 2.0 Z M 81.9 6.9 C 81.8 6.8 81.8 6.8 81.9 6.9 C 81.9 6.9 81.9 6.9 81.9 6.9 Z M 80.8 1.4 C 80.8 1.4 80.8 1.4 80.8 1.4 C 80.8 1.4 80.8 1.4 80.8 1.4 Z M 84.5 1.1 C 84.5 1.1 84.5 1.1 84.5 1.1 C 84.5 1.1 84.5 1.1 84.5 1.1 Z M 81.2 10.2 C 81.2 10.1 81.2 10.1 81.2 10.2 C 81.2 10.2 81.2 10.2 81.2 10.2 Z M 95.0 5.5 C 95.0 5.4 95.0 5.4 95.0 5.5 C 95.0 5.5 95.0 5.5 95.0 5.5 Z M 96.3 7.7 C 96.3 7.6 96.3 7.6 96.3 7.7 C 96.3 7.7 96.3 7.7 96.3 7.7 Z M 93.1 10.7 C 93.1 10.6 93.1 10.6 93.1 10.7 C 93.1 10.7 93.1 10.7 93.1 10.7 Z M 97.3 9.7 C 97.3 9.6 97.3 9.6 97.3 9.7 C 97.3 9.7 97.3 9.7 97.3 9.7 Z M 71.9 9.2 C 71.9 9.2 71.9 9.2 71.9 9.2 C 71.9 9.2 71.9 9.2 71.9 9.2 Z M 71.7 5.0 C 71.6 5.1 71.6 5.1 71.7 5.0 C 71.7 5.0 71.7 5.0 71.7 5.0 Z M 95.4 2.5 C 96.1 1.6 96.7 3.7 95.4 2.5 M 90.2 3.0 C 90.1 3.1 90.1 3.1 90.2 3.0 C 90.2 3.0 90.2 3.0 90.2 3.0 Z M 104.3 2.6 C 105.0 4.3 101.8 1.8 104.3 2.6 C 104.3 2.6 104.3 2.6 104.3 2.6 Z M 101.5 9.7 C 101.6 9.7 101.6 9.7 101.5 9.7 C 101.5 9.7 101.5 9.7 101.5 9.7 Z M 102.9 8.9 C 103.0 9.1 103.0 9.1 102.9 8.9 C 102.9 8.9 102.9 8.9 102.9 8.9 Z M 110.5 4.4 C 110.6 4.6 110.6 4.6 110.5 4.4 M 89.5 1.5 C 90.3 2.3 90.1 2.1 89.5 1.5 M 106.1 2.7 C 106.0 2.8 106.0 2.8 106.1 2.7 C 106.1 2.7 106.1 2.7 106.1 2.7 Z M 112.2 3.5 C 112.1 3.5 112.1 3.5 112.2 3.5 C 112.2 3.5 112.2 3.5 112.2 3.5 Z M 85.8 2.7 C 85.9 4.7 85.2 4.2 85.8 2.7 M 75.3 3.3 C 75.3 3.4 75.3 3.4 75.3 3.3 C 75.3 3.3 75.3 3.3 75.3 3.3 Z M 75.3 3.3 " fill="#FEFFFE"></path></g></svg>