<?xml version="1.0" encoding="UTF-8" standalone="no"?><svg xmlns="http://www.w3.org/2000/svg" xmlns:xlink="http://www.w3.org/1999/xlink" clip-rule="evenodd" stroke-miterlimit="4.00" viewBox="0 0 890 66"><desc>SVG generated by Keynote</desc><defs></defs><g transform="matrix(1.00, 0.00, -0.00, -1.00, 0.0, 66.0)"><g><clipPath id="clip-535"><path d="M 1.0 65.2 L 140.9 65.2 L 140.9 0.6 L 1.0 0.6 Z M 1.0 65.2 "></path></clipPath><g clip-path="url(#clip-535)"><path d="M 1.5 128.2 L 138.9 128.2 L 138.9 64.7 L 1.5 64.7 Z M 1.5 128.2 " fill="#869ABB"></path><path d="M 138.9 128.2 L 263.8 128.2 L 263.8 64.7 L 138.9 64.7 Z M 138.9 128.2 " fill="#000000" fill-opacity="0.25"></path><path d="M 1.5 64.7 L 138.9 64.7 L 138.9 1.1 L 1.5 1.1 Z M 1.5 64.7 " fill="#869ABB"></path><path d="M 1.5 1.1 L 138.9 1.1 L 138.9 -62.4 L 1.5 -62.4 Z M 1.5 1.1 " fill="#869ABB"></path><path d="M 138.9 1.1 L 263.8 1.1 L 263.8 -62.4 L 138.9 -62.4 Z M 138.9 1.1 " fill="#000000" fill-opacity="0.25"></path></g></g><image xlink:href="7C3A28424DEE7ABE77AE9183580037A4.png" width="131.00" height="32.00" transform="matrix(1.00, 0.00, -0.00, -1.00, 6.0, 43.0)"></image><g><clipPath id="clip-536"><path d="M 1.0 65.2 L 140.9 65.2 L 140.9 0.6 L 1.0 0.6 Z M 1.0 65.2 "></path></clipPath><g clip-path="url(#clip-536)"><g><clipPath id="clip-537"><path d="M 2.0 1.6 L 136.9 1.6 L 136.9 64.2 L 2.0 64.2 Z M 2.0 1.6 "></path></clipPath><g clip-path="url(#clip-537)"><text xml:space="preserve" font-family="Chalkduster" font-size="16.0" fill="#FEFFFE" transform="matrix(1.00, 0.00, -0.00, -1.00, 10.4, 24.9)">m</text><text xml:space="preserve" font-family="Chalkduster" font-size="16.0" fill="#FEFFFE" transform="matrix(1.00, 0.00, -0.00, -1.00, 27.1, 24.9)">m</text><text xml:space="preserve" font-family="Chalkduster" font-size="16.0" fill="#FEFFFE" transform="matrix(1.00, 0.00, -0.00, -1.00, 43.3, 24.9)">1</text><text xml:space="preserve" font-family="Chalkduster" font-size="16.0" fill="#FEFFFE" transform="matrix(1.00, 0.00, -0.00, -1.00, 53.0, 24.9)">-</text><text xml:space="preserve" font-family="Chalkduster" font-size="16.0" fill="#FEFFFE" transform="matrix(1.00, 0.00, -0.00, -1.00, 62.6, 24.9)">e</text><text xml:space="preserve" font-family="Chalkduster" font-size="16.0" fill="#FEFFFE" transform="matrix(1.00, 0.00, -0.00, -1.00, 72.8, 24.9)">p</text><text xml:space="preserve" font-family="Chalkduster" font-size="16.0" fill="#FEFFFE" transform="matrix(1.00, 0.00, -0.00, -1.00, 82.9, 24.9)">o</text><text xml:space="preserve" font-family="Chalkduster" font-size="16.0" fill="#FEFFFE" transform="matrix(1.00, 0.00, -0.00, -1.00, 94.9, 24.9)">u</text><text xml:space="preserve" font-family="Chalkduster" font-size="16.0" fill="#FEFFFE" transform="matrix(1.00, 0.00, -0.00, -1.00, 105.7, 24.9)">t</text><text xml:space="preserve" font-family="Chalkduster" font-size="16.0" fill="#FEFFFE" transform="matrix(1.00, 0.00, -0.00, -1.00, 112.9, 24.9)">a</text><text xml:space="preserve" font-family="Chalkduster" font-size="16.0" fill="#FEFFFE" transform="matrix(1.00, 0.00, -0.00, -1.00, 123.9, 24.9)">2</text></g></g></g></g><g><clipPath id="clip-538"><path d="M 1.0 65.2 L 140.9 65.2 L 140.9 0.6 L 1.0 0.6 Z M 1.0 65.2 "></path></clipPath><g clip-path="url(#clip-538)"><path d="M 264.4 129.1 L 264.4 319.7 " fill="none" stroke="#000000" stroke-width="1.00" stroke-miterlimit="0.00" transform="matrix(1.00, 0.00, 0.00, -1.00, -0.5, 257.3)"></path><path d="M 2.0 129.1 L 139.4 129.1 " fill="none" stroke="#000000" stroke-width="1.00" stroke-miterlimit="0.00" transform="matrix(1.00, 0.00, 0.00, -1.00, -0.5, 257.3)"></path><path d="M 139.4 129.1 L 264.4 129.1 " fill="none" stroke="#000000" stroke-width="1.00" stroke-miterlimit="0.00" transform="matrix(1.00, 0.00, 0.00, -1.00, -0.5, 257.3)"></path><path d="M 1.5 192.6 L 139.4 192.6 " fill="none" stroke="#000000" stroke-width="1.00" stroke-miterlimit="0.00" transform="matrix(1.00, 0.00, 0.00, -1.00, -0.5, 257.3)"></path><path d="M 139.4 192.6 L 264.4 192.6 " fill="none" stroke="#000000" stroke-width="1.00" stroke-miterlimit="0.00" transform="matrix(1.00, 0.00, 0.00, -1.00, -0.5, 257.3)"></path><path d="M 1.5 256.2 L 139.4 256.2 " fill="none" stroke="#000000" stroke-width="1.00" stroke-miterlimit="0.00" transform="matrix(1.00, 0.00, 0.00, -1.00, -0.5, 257.3)"></path><path d="M 139.4 256.2 L 264.4 256.2 " fill="none" stroke="#000000" stroke-width="1.00" stroke-miterlimit="0.00" transform="matrix(1.00, 0.00, 0.00, -1.00, -0.5, 257.3)"></path><path d="M 139.4 129.1 L 139.4 319.7 " fill="none" stroke="#000000" stroke-width="4.00" stroke-miterlimit="0.00" transform="matrix(1.00, 0.00, 0.00, -1.00, -0.5, 257.3)"></path><path d="M 2.0 129.1 L 2.0 319.7 " fill="none" stroke="#000000" stroke-width="1.00" stroke-miterlimit="0.00" transform="matrix(1.00, 0.00, 0.00, -1.00, -0.5, 257.3)"></path><path d="M 2.0 319.7 L 139.4 319.7 " fill="none" stroke="#000000" stroke-width="1.00" stroke-miterlimit="0.00" transform="matrix(1.00, 0.00, 0.00, -1.00, -0.5, 257.3)"></path><path d="M 139.4 319.7 L 264.4 319.7 " fill="none" stroke="#000000" stroke-width="1.00" stroke-miterlimit="0.00" transform="matrix(1.00, 0.00, 0.00, -1.00, -0.5, 257.3)"></path></g></g><g><clipPath id="clip-539"><path d="M 136.9 65.2 L 264.3 65.2 L 264.3 0.6 L 136.9 0.6 Z M 136.9 65.2 "></path></clipPath><g clip-path="url(#clip-539)"><path d="M 1.5 128.2 L 138.9 128.2 L 138.9 64.7 L 1.5 64.7 Z M 1.5 128.2 " fill="#869ABB"></path><path d="M 138.9 128.2 L 263.8 128.2 L 263.8 64.7 L 138.9 64.7 Z M 138.9 128.2 " fill="#000000" fill-opacity="0.25"></path><path d="M 263.8 128.2 L 388.8 128.2 L 388.8 64.7 L 263.8 64.7 Z M 263.8 128.2 " fill="#000000" fill-opacity="0.25"></path><path d="M 1.5 64.7 L 138.9 64.7 L 138.9 1.1 L 1.5 1.1 Z M 1.5 64.7 " fill="#869ABB"></path><path d="M 1.5 1.1 L 138.9 1.1 L 138.9 -62.4 L 1.5 -62.4 Z M 1.5 1.1 " fill="#869ABB"></path><path d="M 138.9 1.1 L 263.8 1.1 L 263.8 -62.4 L 138.9 -62.4 Z M 138.9 1.1 " fill="#000000" fill-opacity="0.25"></path><path d="M 263.8 1.1 L 388.8 1.1 L 388.8 -62.4 L 263.8 -62.4 Z M 263.8 1.1 " fill="#000000" fill-opacity="0.25"></path></g></g><g><clipPath id="clip-540"><path d="M 136.9 65.2 L 264.3 65.2 L 264.3 0.6 L 136.9 0.6 Z M 136.9 65.2 "></path></clipPath><g clip-path="url(#clip-540)"><path d="M 264.4 129.1 L 264.4 319.7 " fill="none" stroke="#000000" stroke-width="1.00" stroke-miterlimit="0.00" transform="matrix(1.00, 0.00, 0.00, -1.00, -0.5, 257.3)"></path><path d="M 389.3 129.1 L 389.3 319.7 " fill="none" stroke="#000000" stroke-width="1.00" stroke-miterlimit="0.00" transform="matrix(1.00, 0.00, 0.00, -1.00, -0.5, 257.3)"></path><path d="M 2.0 129.1 L 139.4 129.1 " fill="none" stroke="#000000" stroke-width="1.00" stroke-miterlimit="0.00" transform="matrix(1.00, 0.00, 0.00, -1.00, -0.5, 257.3)"></path><path d="M 139.4 129.1 L 389.3 129.1 " fill="none" stroke="#000000" stroke-width="1.00" stroke-miterlimit="0.00" transform="matrix(1.00, 0.00, 0.00, -1.00, -0.5, 257.3)"></path><path d="M 2.0 192.6 L 139.4 192.6 " fill="none" stroke="#000000" stroke-width="1.00" stroke-miterlimit="0.00" transform="matrix(1.00, 0.00, 0.00, -1.00, -0.5, 257.3)"></path><path d="M 139.4 192.6 L 389.3 192.6 " fill="none" stroke="#000000" stroke-width="1.00" stroke-miterlimit="0.00" transform="matrix(1.00, 0.00, 0.00, -1.00, -0.5, 257.3)"></path><path d="M 2.0 256.2 L 139.4 256.2 " fill="none" stroke="#000000" stroke-width="1.00" stroke-miterlimit="0.00" transform="matrix(1.00, 0.00, 0.00, -1.00, -0.5, 257.3)"></path><path d="M 139.4 256.2 L 389.3 256.2 " fill="none" stroke="#000000" stroke-width="1.00" stroke-miterlimit="0.00" transform="matrix(1.00, 0.00, 0.00, -1.00, -0.5, 257.3)"></path><path d="M 139.4 129.1 L 139.4 319.7 " fill="none" stroke="#000000" stroke-width="4.00" stroke-miterlimit="0.00" transform="matrix(1.00, 0.00, 0.00, -1.00, -0.5, 257.3)"></path><path d="M 2.0 129.1 L 2.0 319.7 " fill="none" stroke="#000000" stroke-width="1.00" stroke-miterlimit="0.00" transform="matrix(1.00, 0.00, 0.00, -1.00, -0.5, 257.3)"></path><path d="M 2.0 319.7 L 139.4 319.7 " fill="none" stroke="#000000" stroke-width="1.00" stroke-miterlimit="0.00" transform="matrix(1.00, 0.00, 0.00, -1.00, -0.5, 257.3)"></path><path d="M 139.4 319.7 L 389.3 319.7 " fill="none" stroke="#000000" stroke-width="1.00" stroke-miterlimit="0.00" transform="matrix(1.00, 0.00, 0.00, -1.00, -0.5, 257.3)"></path></g></g><g><clipPath id="clip-541"><path d="M 263.3 65.2 L 389.3 65.2 L 389.3 0.6 L 263.3 0.6 Z M 263.3 65.2 "></path></clipPath><g clip-path="url(#clip-541)"><path d="M 138.9 128.2 L 263.8 128.2 L 263.8 64.7 L 138.9 64.7 Z M 138.9 128.2 " fill="#000000" fill-opacity="0.25"></path><path d="M 263.8 128.2 L 388.8 128.2 L 388.8 64.7 L 263.8 64.7 Z M 263.8 128.2 " fill="#000000" fill-opacity="0.25"></path><path d="M 388.8 128.2 L 513.7 128.2 L 513.7 64.7 L 388.8 64.7 Z M 388.8 128.2 " fill="#000000" fill-opacity="0.25"></path><path d="M 138.9 1.1 L 263.8 1.1 L 263.8 -62.4 L 138.9 -62.4 Z M 138.9 1.1 " fill="#000000" fill-opacity="0.25"></path><path d="M 263.8 1.1 L 388.8 1.1 L 388.8 -62.4 L 263.8 -62.4 Z M 263.8 1.1 " fill="#000000" fill-opacity="0.25"></path><path d="M 388.8 1.1 L 513.7 1.1 L 513.7 -62.4 L 388.8 -62.4 Z M 388.8 1.1 " fill="#000000" fill-opacity="0.25"></path></g></g><g><clipPath id="clip-542"><path d="M 263.3 65.2 L 389.3 65.2 L 389.3 0.6 L 263.3 0.6 Z M 263.3 65.2 "></path></clipPath><g clip-path="url(#clip-542)"><path d="M 264.4 129.1 L 264.4 319.7 " fill="none" stroke="#000000" stroke-width="1.00" stroke-miterlimit="0.00" transform="matrix(1.00, 0.00, 0.00, -1.00, -0.5, 257.3)"></path><path d="M 389.3 129.1 L 389.3 319.7 " fill="none" stroke="#000000" stroke-width="1.00" stroke-miterlimit="0.00" transform="matrix(1.00, 0.00, 0.00, -1.00, -0.5, 257.3)"></path><path d="M 514.3 129.1 L 514.3 319.7 " fill="none" stroke="#000000" stroke-width="4.00" stroke-miterlimit="0.00" transform="matrix(1.00, 0.00, 0.00, -1.00, -0.5, 257.3)"></path><path d="M 139.4 129.1 L 514.3 129.1 " fill="none" stroke="#000000" stroke-width="1.00" stroke-miterlimit="0.00" transform="matrix(1.00, 0.00, 0.00, -1.00, -0.5, 257.3)"></path><path d="M 139.4 192.6 L 514.3 192.6 " fill="none" stroke="#000000" stroke-width="1.00" stroke-miterlimit="0.00" transform="matrix(1.00, 0.00, 0.00, -1.00, -0.5, 257.3)"></path><path d="M 139.4 256.2 L 514.3 256.2 " fill="none" stroke="#000000" stroke-width="1.00" stroke-miterlimit="0.00" transform="matrix(1.00, 0.00, 0.00, -1.00, -0.5, 257.3)"></path><path d="M 139.4 129.1 L 139.4 319.7 " fill="none" stroke="#000000" stroke-width="4.00" stroke-miterlimit="0.00" transform="matrix(1.00, 0.00, 0.00, -1.00, -0.5, 257.3)"></path><path d="M 139.4 319.7 L 514.3 319.7 " fill="none" stroke="#000000" stroke-width="1.00" stroke-miterlimit="0.00" transform="matrix(1.00, 0.00, 0.00, -1.00, -0.5, 257.3)"></path></g></g><g><clipPath id="clip-543"><path d="M 388.3 65.2 L 515.7 65.2 L 515.7 0.6 L 388.3 0.6 Z M 388.3 65.2 "></path></clipPath><g clip-path="url(#clip-543)"><path d="M 263.8 128.2 L 388.8 128.2 L 388.8 64.7 L 263.8 64.7 Z M 263.8 128.2 " fill="#000000" fill-opacity="0.25"></path><path d="M 388.8 128.2 L 513.7 128.2 L 513.7 64.7 L 388.8 64.7 Z M 388.8 128.2 " fill="#000000" fill-opacity="0.25"></path><path d="M 513.7 128.2 L 638.7 128.2 L 638.7 64.7 L 513.7 64.7 Z M 513.7 128.2 " fill="#000000" fill-opacity="0.25"></path><path d="M 263.8 1.1 L 388.8 1.1 L 388.8 -62.4 L 263.8 -62.4 Z M 263.8 1.1 " fill="#000000" fill-opacity="0.25"></path><path d="M 388.8 1.1 L 513.7 1.1 L 513.7 -62.4 L 388.8 -62.4 Z M 388.8 1.1 " fill="#000000" fill-opacity="0.25"></path><path d="M 513.7 1.1 L 638.7 1.1 L 638.7 -62.4 L 513.7 -62.4 Z M 513.7 1.1 " fill="#000000" fill-opacity="0.25"></path></g></g><image xlink:href="../../D55510CF-6CC6-4C3C-BC8C-B86DBACA13BB/assets/5CF07A188BC6F9A92C473C7CB6E206F3.png" width="18.00" height="23.00" transform="matrix(1.00, 0.00, -0.00, -1.00, 442.0, 42.0)"></image><g><clipPath id="clip-544"><path d="M 388.3 65.2 L 515.7 65.2 L 515.7 0.6 L 388.3 0.6 Z M 388.3 65.2 "></path></clipPath><g clip-path="url(#clip-544)"><g><clipPath id="clip-545"><path d="M 389.3 1.6 L 511.7 1.6 L 511.7 64.2 L 389.3 64.2 Z M 389.3 1.6 "></path></clipPath><g clip-path="url(#clip-545)"><text xml:space="preserve" font-family="Chalkduster" font-size="16.0" fill="#FEFFFE" transform="matrix(1.00, 0.00, -0.00, -1.00, 446.0, 25.0)">1</text></g></g></g></g><g><clipPath id="clip-546"><path d="M 388.3 65.2 L 515.7 65.2 L 515.7 0.6 L 388.3 0.6 Z M 388.3 65.2 "></path></clipPath><g clip-path="url(#clip-546)"><path d="M 264.4 129.1 L 264.4 319.7 " fill="none" stroke="#000000" stroke-width="1.00" stroke-miterlimit="0.00" transform="matrix(1.00, 0.00, 0.00, -1.00, -0.5, 257.3)"></path><path d="M 389.3 129.1 L 389.3 319.7 " fill="none" stroke="#000000" stroke-width="1.00" stroke-miterlimit="0.00" transform="matrix(1.00, 0.00, 0.00, -1.00, -0.5, 257.3)"></path><path d="M 514.3 129.1 L 514.3 319.7 " fill="none" stroke="#000000" stroke-width="4.00" stroke-miterlimit="0.00" transform="matrix(1.00, 0.00, 0.00, -1.00, -0.5, 257.3)"></path><path d="M 639.2 129.1 L 639.2 319.7 " fill="none" stroke="#000000" stroke-width="1.00" stroke-miterlimit="0.00" transform="matrix(1.00, 0.00, 0.00, -1.00, -0.5, 257.3)"></path><path d="M 264.4 129.1 L 639.2 129.1 " fill="none" stroke="#000000" stroke-width="1.00" stroke-miterlimit="0.00" transform="matrix(1.00, 0.00, 0.00, -1.00, -0.5, 257.3)"></path><path d="M 264.4 192.6 L 639.2 192.6 " fill="none" stroke="#000000" stroke-width="1.00" stroke-miterlimit="0.00" transform="matrix(1.00, 0.00, 0.00, -1.00, -0.5, 257.3)"></path><path d="M 264.4 256.2 L 639.2 256.2 " fill="none" stroke="#000000" stroke-width="1.00" stroke-miterlimit="0.00" transform="matrix(1.00, 0.00, 0.00, -1.00, -0.5, 257.3)"></path><path d="M 264.4 319.7 L 639.2 319.7 " fill="none" stroke="#000000" stroke-width="1.00" stroke-miterlimit="0.00" transform="matrix(1.00, 0.00, 0.00, -1.00, -0.5, 257.3)"></path></g></g><g><clipPath id="clip-547"><path d="M 511.7 65.2 L 639.2 65.2 L 639.2 0.6 L 511.7 0.6 Z M 511.7 65.2 "></path></clipPath><g clip-path="url(#clip-547)"><path d="M 388.8 128.2 L 513.7 128.2 L 513.7 64.7 L 388.8 64.7 Z M 388.8 128.2 " fill="#000000" fill-opacity="0.25"></path><path d="M 513.7 128.2 L 638.7 128.2 L 638.7 64.7 L 513.7 64.7 Z M 513.7 128.2 " fill="#000000" fill-opacity="0.25"></path><path d="M 638.7 128.2 L 763.6 128.2 L 763.6 64.7 L 638.7 64.7 Z M 638.7 128.2 " fill="#000000" fill-opacity="0.25"></path><path d="M 388.8 1.1 L 513.7 1.1 L 513.7 -62.4 L 388.8 -62.4 Z M 388.8 1.1 " fill="#000000" fill-opacity="0.25"></path><path d="M 513.7 1.1 L 638.7 1.1 L 638.7 -62.4 L 513.7 -62.4 Z M 513.7 1.1 " fill="#000000" fill-opacity="0.25"></path><path d="M 638.7 1.1 L 763.6 1.1 L 763.6 -62.4 L 638.7 -62.4 Z M 638.7 1.1 " fill="#000000" fill-opacity="0.25"></path></g></g><g><clipPath id="clip-548"><path d="M 511.7 65.2 L 639.2 65.2 L 639.2 0.6 L 511.7 0.6 Z M 511.7 65.2 "></path></clipPath><g clip-path="url(#clip-548)"><path d="M 389.3 129.1 L 389.3 319.7 " fill="none" stroke="#000000" stroke-width="1.00" stroke-miterlimit="0.00" transform="matrix(1.00, 0.00, 0.00, -1.00, -0.5, 257.3)"></path><path d="M 514.3 129.1 L 514.3 319.7 " fill="none" stroke="#000000" stroke-width="4.00" stroke-miterlimit="0.00" transform="matrix(1.00, 0.00, 0.00, -1.00, -0.5, 257.3)"></path><path d="M 639.2 129.1 L 639.2 319.7 " fill="none" stroke="#000000" stroke-width="1.00" stroke-miterlimit="0.00" transform="matrix(1.00, 0.00, 0.00, -1.00, -0.5, 257.3)"></path><path d="M 764.1 129.1 L 764.1 319.7 " fill="none" stroke="#000000" stroke-width="1.00" stroke-miterlimit="0.00" transform="matrix(1.00, 0.00, 0.00, -1.00, -0.5, 257.3)"></path><path d="M 389.3 129.1 L 764.1 129.1 " fill="none" stroke="#000000" stroke-width="1.00" stroke-miterlimit="0.00" transform="matrix(1.00, 0.00, 0.00, -1.00, -0.5, 257.3)"></path><path d="M 389.3 192.6 L 764.1 192.6 " fill="none" stroke="#000000" stroke-width="1.00" stroke-miterlimit="0.00" transform="matrix(1.00, 0.00, 0.00, -1.00, -0.5, 257.3)"></path><path d="M 389.3 256.2 L 764.1 256.2 " fill="none" stroke="#000000" stroke-width="1.00" stroke-miterlimit="0.00" transform="matrix(1.00, 0.00, 0.00, -1.00, -0.5, 257.3)"></path><path d="M 389.3 319.7 L 764.1 319.7 " fill="none" stroke="#000000" stroke-width="1.00" stroke-miterlimit="0.00" transform="matrix(1.00, 0.00, 0.00, -1.00, -0.5, 257.3)"></path></g></g><g><clipPath id="clip-549"><path d="M 638.2 65.2 L 764.1 65.2 L 764.1 0.6 L 638.2 0.6 Z M 638.2 65.2 "></path></clipPath><g clip-path="url(#clip-549)"><path d="M 513.7 128.2 L 638.7 128.2 L 638.7 64.7 L 513.7 64.7 Z M 513.7 128.2 " fill="#000000" fill-opacity="0.25"></path><path d="M 638.7 128.2 L 763.6 128.2 L 763.6 64.7 L 638.7 64.7 Z M 638.7 128.2 " fill="#000000" fill-opacity="0.25"></path><path d="M 763.6 128.2 L 888.5 128.2 L 888.5 64.7 L 763.6 64.7 Z M 763.6 128.2 " fill="#000000" fill-opacity="0.25"></path><path d="M 513.7 1.1 L 638.7 1.1 L 638.7 -62.4 L 513.7 -62.4 Z M 513.7 1.1 " fill="#000000" fill-opacity="0.25"></path><path d="M 638.7 1.1 L 763.6 1.1 L 763.6 -62.4 L 638.7 -62.4 Z M 638.7 1.1 " fill="#000000" fill-opacity="0.25"></path><path d="M 763.6 1.1 L 888.5 1.1 L 888.5 -62.4 L 763.6 -62.4 Z M 763.6 1.1 " fill="#000000" fill-opacity="0.25"></path></g></g><image xlink:href="../../D55510CF-6CC6-4C3C-BC8C-B86DBACA13BB/assets/0AC42A1088C98091ED1F4E6A1EB35E36.png" width="19.00" height="23.00" transform="matrix(1.00, 0.00, -0.00, -1.00, 692.0, 42.0)"></image><g><clipPath id="clip-550"><path d="M 638.2 65.2 L 764.1 65.2 L 764.1 0.6 L 638.2 0.6 Z M 638.2 65.2 "></path></clipPath><g clip-path="url(#clip-550)"><g><clipPath id="clip-551"><path d="M 639.2 1.6 L 763.1 1.6 L 763.1 64.2 L 639.2 64.2 Z M 639.2 1.6 "></path></clipPath><g clip-path="url(#clip-551)"><text xml:space="preserve" font-family="Chalkduster" font-size="16.0" fill="#FEFFFE" transform="matrix(1.00, 0.00, -0.00, -1.00, 697.0, 25.0)">2</text></g></g></g></g><g><clipPath id="clip-552"><path d="M 638.2 65.2 L 764.1 65.2 L 764.1 0.6 L 638.2 0.6 Z M 638.2 65.2 "></path></clipPath><g clip-path="url(#clip-552)"><path d="M 514.3 129.1 L 514.3 319.7 " fill="none" stroke="#000000" stroke-width="4.00" stroke-miterlimit="0.00" transform="matrix(1.00, 0.00, 0.00, -1.00, -0.5, 257.3)"></path><path d="M 639.2 129.1 L 639.2 319.7 " fill="none" stroke="#000000" stroke-width="1.00" stroke-miterlimit="0.00" transform="matrix(1.00, 0.00, 0.00, -1.00, -0.5, 257.3)"></path><path d="M 764.1 129.1 L 764.1 319.7 " fill="none" stroke="#000000" stroke-width="1.00" stroke-miterlimit="0.00" transform="matrix(1.00, 0.00, 0.00, -1.00, -0.5, 257.3)"></path><path d="M 514.3 129.1 L 889.1 129.1 " fill="none" stroke="#000000" stroke-width="1.00" stroke-miterlimit="0.00" transform="matrix(1.00, 0.00, 0.00, -1.00, -0.5, 257.3)"></path><path d="M 514.3 192.6 L 889.1 192.6 " fill="none" stroke="#000000" stroke-width="1.00" stroke-miterlimit="0.00" transform="matrix(1.00, 0.00, 0.00, -1.00, -0.5, 257.3)"></path><path d="M 514.3 256.2 L 889.1 256.2 " fill="none" stroke="#000000" stroke-width="1.00" stroke-miterlimit="0.00" transform="matrix(1.00, 0.00, 0.00, -1.00, -0.5, 257.3)"></path><path d="M 889.1 129.1 L 889.1 319.7 " fill="none" stroke="#000000" stroke-width="1.00" stroke-miterlimit="0.00" transform="matrix(1.00, 0.00, 0.00, -1.00, -0.5, 257.3)"></path><path d="M 514.3 319.7 L 889.1 319.7 " fill="none" stroke="#000000" stroke-width="1.00" stroke-miterlimit="0.00" transform="matrix(1.00, 0.00, 0.00, -1.00, -0.5, 257.3)"></path></g></g><g><clipPath id="clip-553"><path d="M 763.1 65.2 L 889.0 65.2 L 889.0 0.6 L 763.1 0.6 Z M 763.1 65.2 "></path></clipPath><g clip-path="url(#clip-553)"><path d="M 638.7 128.2 L 763.6 128.2 L 763.6 64.7 L 638.7 64.7 Z M 638.7 128.2 " fill="#000000" fill-opacity="0.25"></path><path d="M 763.6 128.2 L 888.5 128.2 L 888.5 64.7 L 763.6 64.7 Z M 763.6 128.2 " fill="#000000" fill-opacity="0.25"></path><path d="M 638.7 1.1 L 763.6 1.1 L 763.6 -62.4 L 638.7 -62.4 Z M 638.7 1.1 " fill="#000000" fill-opacity="0.25"></path><path d="M 763.6 1.1 L 888.5 1.1 L 888.5 -62.4 L 763.6 -62.4 Z M 763.6 1.1 " fill="#000000" fill-opacity="0.25"></path></g></g><image xlink:href="../../D55510CF-6CC6-4C3C-BC8C-B86DBACA13BB/assets/1736D47D1B2025C47B146D19CEF54500.png" width="21.00" height="23.00" transform="matrix(1.00, 0.00, -0.00, -1.00, 816.0, 42.0)"></image><g><clipPath id="clip-554"><path d="M 763.1 65.2 L 889.0 65.2 L 889.0 0.6 L 763.1 0.6 Z M 763.1 65.2 "></path></clipPath><g clip-path="url(#clip-554)"><g><clipPath id="clip-555"><path d="M 764.1 1.6 L 888.0 1.6 L 888.0 64.2 L 764.1 64.2 Z M 764.1 1.6 "></path></clipPath><g clip-path="url(#clip-555)"><text xml:space="preserve" font-family="Chalkduster" font-size="16.0" fill="#FEFFFE" transform="matrix(1.00, 0.00, -0.00, -1.00, 821.0, 25.0)">3</text></g></g></g></g><g><clipPath id="clip-556"><path d="M 763.1 65.2 L 889.0 65.2 L 889.0 0.6 L 763.1 0.6 Z M 763.1 65.2 "></path></clipPath><g clip-path="url(#clip-556)"><path d="M 639.2 129.1 L 639.2 319.7 " fill="none" stroke="#000000" stroke-width="1.00" stroke-miterlimit="0.00" transform="matrix(1.00, 0.00, 0.00, -1.00, -0.5, 257.3)"></path><path d="M 764.1 129.1 L 764.1 319.7 " fill="none" stroke="#000000" stroke-width="1.00" stroke-miterlimit="0.00" transform="matrix(1.00, 0.00, 0.00, -1.00, -0.5, 257.3)"></path><path d="M 639.2 129.1 L 889.1 129.1 " fill="none" stroke="#000000" stroke-width="1.00" stroke-miterlimit="0.00" transform="matrix(1.00, 0.00, 0.00, -1.00, -0.5, 257.3)"></path><path d="M 639.2 192.6 L 889.6 192.6 " fill="none" stroke="#000000" stroke-width="1.00" stroke-miterlimit="0.00" transform="matrix(1.00, 0.00, 0.00, -1.00, -0.5, 257.3)"></path><path d="M 639.2 256.2 L 889.6 256.2 " fill="none" stroke="#000000" stroke-width="1.00" stroke-miterlimit="0.00" transform="matrix(1.00, 0.00, 0.00, -1.00, -0.5, 257.3)"></path><path d="M 889.1 129.1 L 889.1 319.7 " fill="none" stroke="#000000" stroke-width="1.00" stroke-miterlimit="0.00" transform="matrix(1.00, 0.00, 0.00, -1.00, -0.5, 257.3)"></path><path d="M 639.2 319.7 L 889.1 319.7 " fill="none" stroke="#000000" stroke-width="1.00" stroke-miterlimit="0.00" transform="matrix(1.00, 0.00, 0.00, -1.00, -0.5, 257.3)"></path></g></g></g></svg>