<?xml version="1.0" encoding="UTF-8" standalone="no"?><svg xmlns="http://www.w3.org/2000/svg" xmlns:xlink="http://www.w3.org/1999/xlink" clip-rule="evenodd" stroke-miterlimit="4.00" viewBox="0 0 890 67"><desc>SVG generated by Keynote</desc><defs></defs><g transform="matrix(1.00, 0.00, -0.00, -1.00, 0.0, 67.0)"><g><clipPath id="clip-650"><path d="M 1.0 65.6 L 140.9 65.6 L 140.9 1.1 L 1.0 1.1 Z M 1.0 65.6 "></path></clipPath><g clip-path="url(#clip-650)"><path d="M 1.5 128.7 L 138.9 128.7 L 138.9 65.1 L 1.5 65.1 Z M 1.5 128.7 " fill="#869ABB"></path><path d="M 1.5 65.1 L 138.9 65.1 L 138.9 1.6 L 1.5 1.6 Z M 1.5 65.1 " fill="#869ABB"></path><path d="M 138.9 65.1 L 263.8 65.1 L 263.8 1.6 L 138.9 1.6 Z M 138.9 65.1 " fill="#000000" fill-opacity="0.25"></path></g></g><image xlink:href="5A44E7C810BB31B6C1720C70A51274F9.png" width="70.00" height="33.00" transform="matrix(1.00, 0.00, -0.00, -1.00, 67.0, 44.0)"></image><g><clipPath id="clip-651"><path d="M 1.0 65.6 L 140.9 65.6 L 140.9 1.1 L 1.0 1.1 Z M 1.0 65.6 "></path></clipPath><g clip-path="url(#clip-651)"><g><clipPath id="clip-652"><path d="M 2.0 2.1 L 136.9 2.1 L 136.9 64.6 L 2.0 64.6 Z M 2.0 2.1 "></path></clipPath><g clip-path="url(#clip-652)"><text xml:space="preserve" font-family="Chalkduster" font-size="16.0" fill="#FEFFFE" transform="matrix(1.00, 0.00, -0.00, -1.00, 71.6, 25.4)">e</text><text xml:space="preserve" font-family="Chalkduster" font-size="16.0" fill="#FEFFFE" transform="matrix(1.00, 0.00, -0.00, -1.00, 81.8, 25.4)">p</text><text xml:space="preserve" font-family="Chalkduster" font-size="16.0" fill="#FEFFFE" transform="matrix(1.00, 0.00, -0.00, -1.00, 91.9, 25.4)">o</text><text xml:space="preserve" font-family="Chalkduster" font-size="16.0" fill="#FEFFFE" transform="matrix(1.00, 0.00, -0.00, -1.00, 103.9, 25.4)">u</text><text xml:space="preserve" font-family="Chalkduster" font-size="16.0" fill="#FEFFFE" transform="matrix(1.00, 0.00, -0.00, -1.00, 114.7, 25.4)">t</text><text xml:space="preserve" font-family="Chalkduster" font-size="16.0" fill="#FEFFFE" transform="matrix(1.00, 0.00, -0.00, -1.00, 121.9, 25.4)">a</text></g></g></g></g><g><clipPath id="clip-653"><path d="M 1.0 65.6 L 140.9 65.6 L 140.9 1.1 L 1.0 1.1 Z M 1.0 65.6 "></path></clipPath><g clip-path="url(#clip-653)"><path d="M 264.4 192.6 L 264.4 319.7 " fill="none" stroke="#000000" stroke-width="1.00" stroke-miterlimit="0.00" transform="matrix(1.00, 0.00, 0.00, -1.00, -0.5, 321.3)"></path><path d="M 2.0 192.6 L 139.4 192.6 " fill="none" stroke="#000000" stroke-width="1.00" stroke-miterlimit="0.00" transform="matrix(1.00, 0.00, 0.00, -1.00, -0.5, 321.3)"></path><path d="M 139.4 192.6 L 264.4 192.6 " fill="none" stroke="#000000" stroke-width="1.00" stroke-miterlimit="0.00" transform="matrix(1.00, 0.00, 0.00, -1.00, -0.5, 321.3)"></path><path d="M 1.5 256.2 L 139.4 256.2 " fill="none" stroke="#000000" stroke-width="1.00" stroke-miterlimit="0.00" transform="matrix(1.00, 0.00, 0.00, -1.00, -0.5, 321.3)"></path><path d="M 139.4 256.2 L 264.4 256.2 " fill="none" stroke="#000000" stroke-width="1.00" stroke-miterlimit="0.00" transform="matrix(1.00, 0.00, 0.00, -1.00, -0.5, 321.3)"></path><path d="M 139.4 192.6 L 139.4 320.2 " fill="none" stroke="#000000" stroke-width="4.00" stroke-miterlimit="0.00" transform="matrix(1.00, 0.00, 0.00, -1.00, -0.5, 321.3)"></path><path d="M 2.0 192.6 L 2.0 320.2 " fill="none" stroke="#000000" stroke-width="1.00" stroke-miterlimit="0.00" transform="matrix(1.00, 0.00, 0.00, -1.00, -0.5, 321.3)"></path><path d="M 1.5 319.7 L 139.4 319.7 " fill="none" stroke="#000000" stroke-width="1.00" stroke-miterlimit="0.00" transform="matrix(1.00, 0.00, 0.00, -1.00, -0.5, 321.3)"></path><path d="M 139.4 319.7 L 264.4 319.7 " fill="none" stroke="#000000" stroke-width="1.00" stroke-miterlimit="0.00" transform="matrix(1.00, 0.00, 0.00, -1.00, -0.5, 321.3)"></path></g></g><g><clipPath id="clip-654"><path d="M 136.9 65.6 L 264.3 65.6 L 264.3 1.1 L 136.9 1.1 Z M 136.9 65.6 "></path></clipPath><g clip-path="url(#clip-654)"><path d="M 1.5 128.7 L 138.9 128.7 L 138.9 65.1 L 1.5 65.1 Z M 1.5 128.7 " fill="#869ABB"></path><path d="M 1.5 65.1 L 138.9 65.1 L 138.9 1.6 L 1.5 1.6 Z M 1.5 65.1 " fill="#869ABB"></path><path d="M 138.9 65.1 L 263.8 65.1 L 263.8 1.6 L 138.9 1.6 Z M 138.9 65.1 " fill="#000000" fill-opacity="0.25"></path><path d="M 263.8 65.1 L 388.8 65.1 L 388.8 1.6 L 263.8 1.6 Z M 263.8 65.1 " fill="#000000" fill-opacity="0.25"></path></g></g><g><clipPath id="clip-655"><path d="M 136.9 65.6 L 264.3 65.6 L 264.3 1.1 L 136.9 1.1 Z M 136.9 65.6 "></path></clipPath><g clip-path="url(#clip-655)"><path d="M 264.4 192.6 L 264.4 320.2 " fill="none" stroke="#000000" stroke-width="1.00" stroke-miterlimit="0.00" transform="matrix(1.00, 0.00, 0.00, -1.00, -0.5, 321.3)"></path><path d="M 389.3 192.6 L 389.3 319.7 " fill="none" stroke="#000000" stroke-width="1.00" stroke-miterlimit="0.00" transform="matrix(1.00, 0.00, 0.00, -1.00, -0.5, 321.3)"></path><path d="M 2.0 192.6 L 139.4 192.6 " fill="none" stroke="#000000" stroke-width="1.00" stroke-miterlimit="0.00" transform="matrix(1.00, 0.00, 0.00, -1.00, -0.5, 321.3)"></path><path d="M 139.4 192.6 L 389.3 192.6 " fill="none" stroke="#000000" stroke-width="1.00" stroke-miterlimit="0.00" transform="matrix(1.00, 0.00, 0.00, -1.00, -0.5, 321.3)"></path><path d="M 2.0 256.2 L 139.4 256.2 " fill="none" stroke="#000000" stroke-width="1.00" stroke-miterlimit="0.00" transform="matrix(1.00, 0.00, 0.00, -1.00, -0.5, 321.3)"></path><path d="M 139.4 256.2 L 389.3 256.2 " fill="none" stroke="#000000" stroke-width="1.00" stroke-miterlimit="0.00" transform="matrix(1.00, 0.00, 0.00, -1.00, -0.5, 321.3)"></path><path d="M 139.4 192.6 L 139.4 320.2 " fill="none" stroke="#000000" stroke-width="4.00" stroke-miterlimit="0.00" transform="matrix(1.00, 0.00, 0.00, -1.00, -0.5, 321.3)"></path><path d="M 2.0 192.6 L 2.0 319.7 " fill="none" stroke="#000000" stroke-width="1.00" stroke-miterlimit="0.00" transform="matrix(1.00, 0.00, 0.00, -1.00, -0.5, 321.3)"></path><path d="M 2.0 319.7 L 139.4 319.7 " fill="none" stroke="#000000" stroke-width="1.00" stroke-miterlimit="0.00" transform="matrix(1.00, 0.00, 0.00, -1.00, -0.5, 321.3)"></path><path d="M 139.4 319.7 L 389.3 319.7 " fill="none" stroke="#000000" stroke-width="1.00" stroke-miterlimit="0.00" transform="matrix(1.00, 0.00, 0.00, -1.00, -0.5, 321.3)"></path></g></g><g><clipPath id="clip-656"><path d="M 263.3 65.6 L 389.3 65.6 L 389.3 1.1 L 263.3 1.1 Z M 263.3 65.6 "></path></clipPath><g clip-path="url(#clip-656)"><path d="M 138.9 65.1 L 263.8 65.1 L 263.8 1.6 L 138.9 1.6 Z M 138.9 65.1 " fill="#000000" fill-opacity="0.25"></path><path d="M 263.8 65.1 L 388.8 65.1 L 388.8 1.6 L 263.8 1.6 Z M 263.8 65.1 " fill="#000000" fill-opacity="0.25"></path><path d="M 388.8 65.1 L 513.7 65.1 L 513.7 1.6 L 388.8 1.6 Z M 388.8 65.1 " fill="#000000" fill-opacity="0.25"></path></g></g><g><clipPath id="clip-657"><path d="M 263.3 65.6 L 389.3 65.6 L 389.3 1.1 L 263.3 1.1 Z M 263.3 65.6 "></path></clipPath><g clip-path="url(#clip-657)"><path d="M 264.4 192.6 L 264.4 320.2 " fill="none" stroke="#000000" stroke-width="1.00" stroke-miterlimit="0.00" transform="matrix(1.00, 0.00, 0.00, -1.00, -0.5, 321.3)"></path><path d="M 389.3 192.6 L 389.3 320.2 " fill="none" stroke="#000000" stroke-width="1.00" stroke-miterlimit="0.00" transform="matrix(1.00, 0.00, 0.00, -1.00, -0.5, 321.3)"></path><path d="M 514.3 192.6 L 514.3 319.7 " fill="none" stroke="#000000" stroke-width="4.00" stroke-miterlimit="0.00" transform="matrix(1.00, 0.00, 0.00, -1.00, -0.5, 321.3)"></path><path d="M 139.4 192.6 L 514.3 192.6 " fill="none" stroke="#000000" stroke-width="1.00" stroke-miterlimit="0.00" transform="matrix(1.00, 0.00, 0.00, -1.00, -0.5, 321.3)"></path><path d="M 139.4 256.2 L 514.3 256.2 " fill="none" stroke="#000000" stroke-width="1.00" stroke-miterlimit="0.00" transform="matrix(1.00, 0.00, 0.00, -1.00, -0.5, 321.3)"></path><path d="M 139.4 192.6 L 139.4 319.7 " fill="none" stroke="#000000" stroke-width="4.00" stroke-miterlimit="0.00" transform="matrix(1.00, 0.00, 0.00, -1.00, -0.5, 321.3)"></path><path d="M 139.4 319.7 L 514.3 319.7 " fill="none" stroke="#000000" stroke-width="1.00" stroke-miterlimit="0.00" transform="matrix(1.00, 0.00, 0.00, -1.00, -0.5, 321.3)"></path></g></g><g><clipPath id="clip-658"><path d="M 388.3 65.6 L 515.7 65.6 L 515.7 1.1 L 388.3 1.1 Z M 388.3 65.6 "></path></clipPath><g clip-path="url(#clip-658)"><path d="M 263.8 65.1 L 388.8 65.1 L 388.8 1.6 L 263.8 1.6 Z M 263.8 65.1 " fill="#000000" fill-opacity="0.25"></path><path d="M 388.8 65.1 L 513.7 65.1 L 513.7 1.6 L 388.8 1.6 Z M 388.8 65.1 " fill="#000000" fill-opacity="0.25"></path><path d="M 513.7 65.1 L 638.7 65.1 L 638.7 1.6 L 513.7 1.6 Z M 513.7 65.1 " fill="#000000" fill-opacity="0.25"></path></g></g><g><clipPath id="clip-659"><path d="M 388.3 65.6 L 515.7 65.6 L 515.7 1.1 L 388.3 1.1 Z M 388.3 65.6 "></path></clipPath><g clip-path="url(#clip-659)"><path d="M 264.4 192.6 L 264.4 319.7 " fill="none" stroke="#000000" stroke-width="1.00" stroke-miterlimit="0.00" transform="matrix(1.00, 0.00, 0.00, -1.00, -0.5, 321.3)"></path><path d="M 389.3 192.6 L 389.3 320.2 " fill="none" stroke="#000000" stroke-width="1.00" stroke-miterlimit="0.00" transform="matrix(1.00, 0.00, 0.00, -1.00, -0.5, 321.3)"></path><path d="M 514.3 192.6 L 514.3 320.2 " fill="none" stroke="#000000" stroke-width="4.00" stroke-miterlimit="0.00" transform="matrix(1.00, 0.00, 0.00, -1.00, -0.5, 321.3)"></path><path d="M 639.2 192.6 L 639.2 319.7 " fill="none" stroke="#000000" stroke-width="1.00" stroke-miterlimit="0.00" transform="matrix(1.00, 0.00, 0.00, -1.00, -0.5, 321.3)"></path><path d="M 264.4 192.6 L 639.2 192.6 " fill="none" stroke="#000000" stroke-width="1.00" stroke-miterlimit="0.00" transform="matrix(1.00, 0.00, 0.00, -1.00, -0.5, 321.3)"></path><path d="M 264.4 256.2 L 639.2 256.2 " fill="none" stroke="#000000" stroke-width="1.00" stroke-miterlimit="0.00" transform="matrix(1.00, 0.00, 0.00, -1.00, -0.5, 321.3)"></path><path d="M 264.4 319.7 L 639.2 319.7 " fill="none" stroke="#000000" stroke-width="1.00" stroke-miterlimit="0.00" transform="matrix(1.00, 0.00, 0.00, -1.00, -0.5, 321.3)"></path></g></g><g><clipPath id="clip-660"><path d="M 511.7 65.6 L 639.2 65.6 L 639.2 1.1 L 511.7 1.1 Z M 511.7 65.6 "></path></clipPath><g clip-path="url(#clip-660)"><path d="M 388.8 65.1 L 513.7 65.1 L 513.7 1.6 L 388.8 1.6 Z M 388.8 65.1 " fill="#000000" fill-opacity="0.25"></path><path d="M 513.7 65.1 L 638.7 65.1 L 638.7 1.6 L 513.7 1.6 Z M 513.7 65.1 " fill="#000000" fill-opacity="0.25"></path><path d="M 638.7 65.1 L 763.6 65.1 L 763.6 1.6 L 638.7 1.6 Z M 638.7 65.1 " fill="#000000" fill-opacity="0.25"></path></g></g><image xlink:href="../../D55510CF-6CC6-4C3C-BC8C-B86DBACA13BB/assets/5CF07A188BC6F9A92C473C7CB6E206F3.png" width="18.00" height="23.00" transform="matrix(1.00, 0.00, -0.00, -1.00, 568.0, 42.0)"></image><g><clipPath id="clip-661"><path d="M 511.7 65.6 L 639.2 65.6 L 639.2 1.1 L 511.7 1.1 Z M 511.7 65.6 "></path></clipPath><g clip-path="url(#clip-661)"><g><clipPath id="clip-662"><path d="M 515.7 2.1 L 638.2 2.1 L 638.2 64.6 L 515.7 64.6 Z M 515.7 2.1 "></path></clipPath><g clip-path="url(#clip-662)"><text xml:space="preserve" font-family="Chalkduster" font-size="16.0" fill="#FEFFFE" transform="matrix(1.00, 0.00, -0.00, -1.00, 572.0, 25.0)">1</text></g></g></g></g><g><clipPath id="clip-663"><path d="M 511.7 65.6 L 639.2 65.6 L 639.2 1.1 L 511.7 1.1 Z M 511.7 65.6 "></path></clipPath><g clip-path="url(#clip-663)"><path d="M 389.3 192.6 L 389.3 319.7 " fill="none" stroke="#000000" stroke-width="1.00" stroke-miterlimit="0.00" transform="matrix(1.00, 0.00, 0.00, -1.00, -0.5, 321.3)"></path><path d="M 514.3 192.6 L 514.3 320.2 " fill="none" stroke="#000000" stroke-width="4.00" stroke-miterlimit="0.00" transform="matrix(1.00, 0.00, 0.00, -1.00, -0.5, 321.3)"></path><path d="M 639.2 192.6 L 639.2 320.2 " fill="none" stroke="#000000" stroke-width="1.00" stroke-miterlimit="0.00" transform="matrix(1.00, 0.00, 0.00, -1.00, -0.5, 321.3)"></path><path d="M 764.1 192.6 L 764.1 319.7 " fill="none" stroke="#000000" stroke-width="1.00" stroke-miterlimit="0.00" transform="matrix(1.00, 0.00, 0.00, -1.00, -0.5, 321.3)"></path><path d="M 389.3 192.6 L 764.1 192.6 " fill="none" stroke="#000000" stroke-width="1.00" stroke-miterlimit="0.00" transform="matrix(1.00, 0.00, 0.00, -1.00, -0.5, 321.3)"></path><path d="M 389.3 256.2 L 764.1 256.2 " fill="none" stroke="#000000" stroke-width="1.00" stroke-miterlimit="0.00" transform="matrix(1.00, 0.00, 0.00, -1.00, -0.5, 321.3)"></path><path d="M 389.3 319.7 L 764.1 319.7 " fill="none" stroke="#000000" stroke-width="1.00" stroke-miterlimit="0.00" transform="matrix(1.00, 0.00, 0.00, -1.00, -0.5, 321.3)"></path></g></g><g><clipPath id="clip-664"><path d="M 638.2 65.6 L 764.1 65.6 L 764.1 1.1 L 638.2 1.1 Z M 638.2 65.6 "></path></clipPath><g clip-path="url(#clip-664)"><path d="M 513.7 65.1 L 638.7 65.1 L 638.7 1.6 L 513.7 1.6 Z M 513.7 65.1 " fill="#000000" fill-opacity="0.25"></path><path d="M 638.7 65.1 L 763.6 65.1 L 763.6 1.6 L 638.7 1.6 Z M 638.7 65.1 " fill="#000000" fill-opacity="0.25"></path><path d="M 763.6 65.1 L 888.5 65.1 L 888.5 1.6 L 763.6 1.6 Z M 763.6 65.1 " fill="#000000" fill-opacity="0.25"></path></g></g><image xlink:href="../../D55510CF-6CC6-4C3C-BC8C-B86DBACA13BB/assets/0AC42A1088C98091ED1F4E6A1EB35E36.png" width="19.00" height="23.00" transform="matrix(1.00, 0.00, -0.00, -1.00, 692.0, 42.0)"></image><g><clipPath id="clip-665"><path d="M 638.2 65.6 L 764.1 65.6 L 764.1 1.1 L 638.2 1.1 Z M 638.2 65.6 "></path></clipPath><g clip-path="url(#clip-665)"><g><clipPath id="clip-666"><path d="M 639.2 2.1 L 763.1 2.1 L 763.1 64.6 L 639.2 64.6 Z M 639.2 2.1 "></path></clipPath><g clip-path="url(#clip-666)"><text xml:space="preserve" font-family="Chalkduster" font-size="16.0" fill="#FEFFFE" transform="matrix(1.00, 0.00, -0.00, -1.00, 697.0, 25.0)">2</text></g></g></g></g><g><clipPath id="clip-667"><path d="M 638.2 65.6 L 764.1 65.6 L 764.1 1.1 L 638.2 1.1 Z M 638.2 65.6 "></path></clipPath><g clip-path="url(#clip-667)"><path d="M 514.3 192.6 L 514.3 319.7 " fill="none" stroke="#000000" stroke-width="4.00" stroke-miterlimit="0.00" transform="matrix(1.00, 0.00, 0.00, -1.00, -0.5, 321.3)"></path><path d="M 639.2 192.6 L 639.2 320.2 " fill="none" stroke="#000000" stroke-width="1.00" stroke-miterlimit="0.00" transform="matrix(1.00, 0.00, 0.00, -1.00, -0.5, 321.3)"></path><path d="M 764.1 192.6 L 764.1 320.2 " fill="none" stroke="#000000" stroke-width="1.00" stroke-miterlimit="0.00" transform="matrix(1.00, 0.00, 0.00, -1.00, -0.5, 321.3)"></path><path d="M 514.3 192.6 L 889.1 192.6 " fill="none" stroke="#000000" stroke-width="1.00" stroke-miterlimit="0.00" transform="matrix(1.00, 0.00, 0.00, -1.00, -0.5, 321.3)"></path><path d="M 514.3 256.2 L 889.1 256.2 " fill="none" stroke="#000000" stroke-width="1.00" stroke-miterlimit="0.00" transform="matrix(1.00, 0.00, 0.00, -1.00, -0.5, 321.3)"></path><path d="M 889.1 192.6 L 889.1 319.7 " fill="none" stroke="#000000" stroke-width="1.00" stroke-miterlimit="0.00" transform="matrix(1.00, 0.00, 0.00, -1.00, -0.5, 321.3)"></path><path d="M 514.3 319.7 L 889.1 319.7 " fill="none" stroke="#000000" stroke-width="1.00" stroke-miterlimit="0.00" transform="matrix(1.00, 0.00, 0.00, -1.00, -0.5, 321.3)"></path></g></g><g><clipPath id="clip-668"><path d="M 763.1 65.6 L 889.0 65.6 L 889.0 1.1 L 763.1 1.1 Z M 763.1 65.6 "></path></clipPath><g clip-path="url(#clip-668)"><path d="M 638.7 65.1 L 763.6 65.1 L 763.6 1.6 L 638.7 1.6 Z M 638.7 65.1 " fill="#000000" fill-opacity="0.25"></path><path d="M 763.6 65.1 L 888.5 65.1 L 888.5 1.6 L 763.6 1.6 Z M 763.6 65.1 " fill="#000000" fill-opacity="0.25"></path></g></g><image xlink:href="../../D55510CF-6CC6-4C3C-BC8C-B86DBACA13BB/assets/1736D47D1B2025C47B146D19CEF54500.png" width="21.00" height="23.00" transform="matrix(1.00, 0.00, -0.00, -1.00, 816.0, 42.0)"></image><g><clipPath id="clip-669"><path d="M 763.1 65.6 L 889.0 65.6 L 889.0 1.1 L 763.1 1.1 Z M 763.1 65.6 "></path></clipPath><g clip-path="url(#clip-669)"><g><clipPath id="clip-670"><path d="M 764.1 2.1 L 888.0 2.1 L 888.0 64.6 L 764.1 64.6 Z M 764.1 2.1 "></path></clipPath><g clip-path="url(#clip-670)"><text xml:space="preserve" font-family="Chalkduster" font-size="16.0" fill="#FEFFFE" transform="matrix(1.00, 0.00, -0.00, -1.00, 821.0, 25.0)">3</text></g></g></g></g><g><clipPath id="clip-671"><path d="M 763.1 65.6 L 889.0 65.6 L 889.0 1.1 L 763.1 1.1 Z M 763.1 65.6 "></path></clipPath><g clip-path="url(#clip-671)"><path d="M 639.2 192.6 L 639.2 319.7 " fill="none" stroke="#000000" stroke-width="1.00" stroke-miterlimit="0.00" transform="matrix(1.00, 0.00, 0.00, -1.00, -0.5, 321.3)"></path><path d="M 764.1 192.6 L 764.1 320.2 " fill="none" stroke="#000000" stroke-width="1.00" stroke-miterlimit="0.00" transform="matrix(1.00, 0.00, 0.00, -1.00, -0.5, 321.3)"></path><path d="M 639.2 192.6 L 889.1 192.6 " fill="none" stroke="#000000" stroke-width="1.00" stroke-miterlimit="0.00" transform="matrix(1.00, 0.00, 0.00, -1.00, -0.5, 321.3)"></path><path d="M 639.2 256.2 L 889.6 256.2 " fill="none" stroke="#000000" stroke-width="1.00" stroke-miterlimit="0.00" transform="matrix(1.00, 0.00, 0.00, -1.00, -0.5, 321.3)"></path><path d="M 889.1 192.6 L 889.1 320.2 " fill="none" stroke="#000000" stroke-width="1.00" stroke-miterlimit="0.00" transform="matrix(1.00, 0.00, 0.00, -1.00, -0.5, 321.3)"></path><path d="M 639.2 319.7 L 889.6 319.7 " fill="none" stroke="#000000" stroke-width="1.00" stroke-miterlimit="0.00" transform="matrix(1.00, 0.00, 0.00, -1.00, -0.5, 321.3)"></path></g></g></g></svg>