<?xml version="1.0" encoding="UTF-8" standalone="no"?><svg xmlns="http://www.w3.org/2000/svg" xmlns:xlink="http://www.w3.org/1999/xlink" clip-rule="evenodd" stroke-miterlimit="4.00" viewBox="0 0 890 321"><desc>SVG generated by Keynote</desc><defs></defs><g transform="matrix(1.00, 0.00, -0.00, -1.00, 0.0, 321.0)"><g><clipPath id="clip-557"><path d="M 1.0 319.8 L 889.0 319.8 L 889.0 1.1 L 1.0 1.1 Z M 1.0 319.8 "></path></clipPath><g clip-path="url(#clip-557)"><path d="M 264.4 1.5 L 264.4 65.5 " fill="none" stroke="#FEFFFE" stroke-opacity="0.50" stroke-width="1.00" transform="matrix(1.00, 0.00, 0.00, -1.00, -0.5, 321.3)"></path><path d="M 264.4 65.5 L 264.4 320.2 " fill="none" stroke="#FEFFFE" stroke-opacity="0.50" stroke-width="1.00" transform="matrix(1.00, 0.00, 0.00, -1.00, -0.5, 321.3)"></path><path d="M 389.3 1.5 L 389.3 65.5 " fill="none" stroke="#FEFFFE" stroke-opacity="0.50" stroke-width="1.00" transform="matrix(1.00, 0.00, 0.00, -1.00, -0.5, 321.3)"></path><path d="M 389.3 65.5 L 389.3 320.2 " fill="none" stroke="#FEFFFE" stroke-opacity="0.50" stroke-width="1.00" transform="matrix(1.00, 0.00, 0.00, -1.00, -0.5, 321.3)"></path><path d="M 514.3 1.5 L 514.3 320.2 " fill="none" stroke="#FEFFFE" stroke-opacity="0.50" stroke-width="4.00" transform="matrix(1.00, 0.00, 0.00, -1.00, -0.5, 321.3)"></path><path d="M 639.2 1.5 L 639.2 65.5 " fill="none" stroke="#FEFFFE" stroke-opacity="0.50" stroke-width="1.00" transform="matrix(1.00, 0.00, 0.00, -1.00, -0.5, 321.3)"></path><path d="M 639.2 65.5 L 639.2 320.2 " fill="none" stroke="#FEFFFE" stroke-opacity="0.50" stroke-width="1.00" transform="matrix(1.00, 0.00, 0.00, -1.00, -0.5, 321.3)"></path><path d="M 764.1 1.5 L 764.1 65.5 " fill="none" stroke="#FEFFFE" stroke-opacity="0.50" stroke-width="1.00" transform="matrix(1.00, 0.00, 0.00, -1.00, -0.5, 321.3)"></path><path d="M 764.1 65.5 L 764.1 320.2 " fill="none" stroke="#FEFFFE" stroke-opacity="0.50" stroke-width="1.00" transform="matrix(1.00, 0.00, 0.00, -1.00, -0.5, 321.3)"></path><path d="M 1.5 129.1 L 139.4 129.1 " fill="none" stroke="#FEFFFE" stroke-opacity="0.50" stroke-width="1.00" transform="matrix(1.00, 0.00, 0.00, -1.00, -0.5, 321.3)"></path><path d="M 139.4 129.1 L 889.6 129.1 " fill="none" stroke="#FEFFFE" stroke-opacity="0.50" stroke-width="1.00" transform="matrix(1.00, 0.00, 0.00, -1.00, -0.5, 321.3)"></path><path d="M 1.5 192.6 L 139.4 192.6 " fill="none" stroke="#FEFFFE" stroke-opacity="0.50" stroke-width="1.00" transform="matrix(1.00, 0.00, 0.00, -1.00, -0.5, 321.3)"></path><path d="M 139.4 192.6 L 889.6 192.6 " fill="none" stroke="#FEFFFE" stroke-opacity="0.50" stroke-width="1.00" transform="matrix(1.00, 0.00, 0.00, -1.00, -0.5, 321.3)"></path><path d="M 1.5 256.2 L 139.4 256.2 " fill="none" stroke="#FEFFFE" stroke-opacity="0.50" stroke-width="1.00" transform="matrix(1.00, 0.00, 0.00, -1.00, -0.5, 321.3)"></path><path d="M 139.4 256.2 L 889.6 256.2 " fill="none" stroke="#FEFFFE" stroke-opacity="0.50" stroke-width="1.00" transform="matrix(1.00, 0.00, 0.00, -1.00, -0.5, 321.3)"></path><path d="M 139.4 1.5 L 139.4 320.2 " fill="none" stroke="#FEFFFE" stroke-opacity="0.50" stroke-width="4.00" transform="matrix(1.00, 0.00, 0.00, -1.00, -0.5, 321.3)"></path><path d="M 1.5 65.5 L 889.6 65.5 " fill="none" stroke="#FEFFFE" stroke-opacity="0.50" stroke-width="1.00" transform="matrix(1.00, 0.00, 0.00, -1.00, -0.5, 321.3)"></path><path d="M 2.0 1.5 L 2.0 65.5 " fill="none" stroke="#FEFFFE" stroke-opacity="0.50" stroke-width="1.00" transform="matrix(1.00, 0.00, 0.00, -1.00, -0.5, 321.3)"></path><path d="M 2.0 65.5 L 2.0 320.2 " fill="none" stroke="#FEFFFE" stroke-opacity="0.50" stroke-width="1.00" transform="matrix(1.00, 0.00, 0.00, -1.00, -0.5, 321.3)"></path><path d="M 889.1 1.5 L 889.1 65.5 " fill="none" stroke="#FEFFFE" stroke-opacity="0.50" stroke-width="1.00" transform="matrix(1.00, 0.00, 0.00, -1.00, -0.5, 321.3)"></path><path d="M 889.1 65.5 L 889.1 320.2 " fill="none" stroke="#FEFFFE" stroke-opacity="0.50" stroke-width="1.00" transform="matrix(1.00, 0.00, 0.00, -1.00, -0.5, 321.3)"></path><path d="M 1.5 2.0 L 889.6 2.0 " fill="none" stroke="#FEFFFE" stroke-opacity="0.50" stroke-width="1.00" transform="matrix(1.00, 0.00, 0.00, -1.00, -0.5, 321.3)"></path><path d="M 1.5 319.7 L 139.4 319.7 " fill="none" stroke="#FEFFFE" stroke-opacity="0.50" stroke-width="1.00" transform="matrix(1.00, 0.00, 0.00, -1.00, -0.5, 321.3)"></path><path d="M 139.4 319.7 L 889.6 319.7 " fill="none" stroke="#FEFFFE" stroke-opacity="0.50" stroke-width="1.00" transform="matrix(1.00, 0.00, 0.00, -1.00, -0.5, 321.3)"></path></g></g><g><clipPath id="clip-558"><path d="M 1.0 319.8 L 140.9 319.8 L 140.9 255.3 L 1.0 255.3 Z M 1.0 319.8 "></path></clipPath><g clip-path="url(#clip-558)"><path d="M 1.5 319.3 L 138.9 319.3 L 138.9 255.8 L 1.5 255.8 Z M 1.5 319.3 " fill="#869ABB"></path><path d="M 138.9 319.3 L 263.8 319.3 L 263.8 255.8 L 138.9 255.8 Z M 138.9 319.3 " fill="#869ABB"></path><path d="M 1.5 255.8 L 138.9 255.8 L 138.9 192.2 L 1.5 192.2 Z M 1.5 255.8 " fill="#869ABB"></path></g></g><g><clipPath id="clip-559"><path d="M 1.0 319.8 L 140.9 319.8 L 140.9 255.3 L 1.0 255.3 Z M 1.0 319.8 "></path></clipPath><g clip-path="url(#clip-559)"><path d="M 264.4 2.0 L 264.4 65.5 " fill="none" stroke="#FEFFFE" stroke-opacity="0.50" stroke-width="1.00" transform="matrix(1.00, 0.00, 0.00, -1.00, -0.5, 321.3)"></path><path d="M 264.4 65.5 L 264.4 129.1 " fill="none" stroke="#FEFFFE" stroke-opacity="0.50" stroke-width="1.00" transform="matrix(1.00, 0.00, 0.00, -1.00, -0.5, 321.3)"></path><path d="M 2.0 129.1 L 139.4 129.1 " fill="none" stroke="#FEFFFE" stroke-opacity="0.50" stroke-width="1.00" transform="matrix(1.00, 0.00, 0.00, -1.00, -0.5, 321.3)"></path><path d="M 139.4 129.1 L 264.4 129.1 " fill="none" stroke="#FEFFFE" stroke-opacity="0.50" stroke-width="1.00" transform="matrix(1.00, 0.00, 0.00, -1.00, -0.5, 321.3)"></path><path d="M 139.4 1.5 L 139.4 129.1 " fill="none" stroke="#FEFFFE" stroke-opacity="0.50" stroke-width="4.00" transform="matrix(1.00, 0.00, 0.00, -1.00, -0.5, 321.3)"></path><path d="M 1.5 65.5 L 264.4 65.5 " fill="none" stroke="#FEFFFE" stroke-opacity="0.50" stroke-width="1.00" transform="matrix(1.00, 0.00, 0.00, -1.00, -0.5, 321.3)"></path><path d="M 2.0 1.5 L 2.0 65.5 " fill="none" stroke="#FEFFFE" stroke-opacity="0.50" stroke-width="1.00" transform="matrix(1.00, 0.00, 0.00, -1.00, -0.5, 321.3)"></path><path d="M 2.0 65.5 L 2.0 129.1 " fill="none" stroke="#FEFFFE" stroke-opacity="0.50" stroke-width="1.00" transform="matrix(1.00, 0.00, 0.00, -1.00, -0.5, 321.3)"></path><path d="M 1.5 2.0 L 264.4 2.0 " fill="none" stroke="#FEFFFE" stroke-opacity="0.50" stroke-width="1.00" transform="matrix(1.00, 0.00, 0.00, -1.00, -0.5, 321.3)"></path></g></g><g><clipPath id="clip-560"><path d="M 136.9 319.8 L 264.3 319.8 L 264.3 255.3 L 136.9 255.3 Z M 136.9 319.8 "></path></clipPath><g clip-path="url(#clip-560)"><path d="M 1.5 319.3 L 138.9 319.3 L 138.9 255.8 L 1.5 255.8 Z M 1.5 319.3 " fill="#869ABB"></path><path d="M 138.9 319.3 L 263.8 319.3 L 263.8 255.8 L 138.9 255.8 Z M 138.9 319.3 " fill="#869ABB"></path><path d="M 263.8 319.3 L 388.8 319.3 L 388.8 255.8 L 263.8 255.8 Z M 263.8 319.3 " fill="#869ABB"></path><path d="M 1.5 255.8 L 138.9 255.8 L 138.9 192.2 L 1.5 192.2 Z M 1.5 255.8 " fill="#869ABB"></path></g></g><image xlink:href="../../D55510CF-6CC6-4C3C-BC8C-B86DBACA13BB/assets/769658594DB1201C8F3AB3A752E35090.png" width="106.00" height="32.00" transform="matrix(1.00, 0.00, -0.00, -1.00, 149.0, 298.0)"></image><g><clipPath id="clip-561"><path d="M 136.9 319.8 L 264.3 319.8 L 264.3 255.3 L 136.9 255.3 Z M 136.9 319.8 "></path></clipPath><g clip-path="url(#clip-561)"><g><clipPath id="clip-562"><path d="M 140.9 256.3 L 263.3 256.3 L 263.3 318.8 L 140.9 318.8 Z M 140.9 256.3 "></path></clipPath><g clip-path="url(#clip-562)"><text xml:space="preserve" font-family="Chalkduster" font-size="16.0" fill="#FEFFFE" transform="matrix(1.00, 0.00, -0.00, -1.00, 154.0, 280.0)">C</text><text xml:space="preserve" font-family="Chalkduster" font-size="16.0" fill="#FEFFFE" transform="matrix(1.00, 0.00, -0.00, -1.00, 167.0, 280.0)">o</text><text xml:space="preserve" font-family="Chalkduster" font-size="16.0" fill="#FEFFFE" transform="matrix(1.00, 0.00, -0.00, -1.00, 179.0, 280.0)">m</text><text xml:space="preserve" font-family="Chalkduster" font-size="16.0" fill="#FEFFFE" transform="matrix(1.00, 0.00, -0.00, -1.00, 195.2, 280.0)">p</text><text xml:space="preserve" font-family="Chalkduster" font-size="16.0" fill="#FEFFFE" transform="matrix(1.00, 0.00, -0.00, -1.00, 205.0, 280.0)">u</text><text xml:space="preserve" font-family="Chalkduster" font-size="16.0" fill="#FEFFFE" transform="matrix(1.00, 0.00, -0.00, -1.00, 215.9, 280.0)">t</text><text xml:space="preserve" font-family="Chalkduster" font-size="16.0" fill="#FEFFFE" transform="matrix(1.00, 0.00, -0.00, -1.00, 223.0, 280.0)">e</text><text xml:space="preserve" font-family="Chalkduster" font-size="16.0" fill="#FEFFFE" transform="matrix(1.00, 0.00, -0.00, -1.00, 232.9, 280.0)"> </text><text xml:space="preserve" font-family="Chalkduster" font-size="16.0" fill="#FEFFFE" transform="matrix(1.00, 0.00, -0.00, -1.00, 240.9, 280.0)">1</text></g></g></g></g><g><clipPath id="clip-563"><path d="M 136.9 319.8 L 264.3 319.8 L 264.3 255.3 L 136.9 255.3 Z M 136.9 319.8 "></path></clipPath><g clip-path="url(#clip-563)"><path d="M 264.4 1.5 L 264.4 65.5 " fill="none" stroke="#FEFFFE" stroke-opacity="0.50" stroke-width="1.00" transform="matrix(1.00, 0.00, 0.00, -1.00, -0.5, 321.3)"></path><path d="M 264.4 65.5 L 264.4 129.1 " fill="none" stroke="#FEFFFE" stroke-opacity="0.50" stroke-width="1.00" transform="matrix(1.00, 0.00, 0.00, -1.00, -0.5, 321.3)"></path><path d="M 389.3 2.0 L 389.3 65.5 " fill="none" stroke="#FEFFFE" stroke-opacity="0.50" stroke-width="1.00" transform="matrix(1.00, 0.00, 0.00, -1.00, -0.5, 321.3)"></path><path d="M 389.3 65.5 L 389.3 129.1 " fill="none" stroke="#FEFFFE" stroke-opacity="0.50" stroke-width="1.00" transform="matrix(1.00, 0.00, 0.00, -1.00, -0.5, 321.3)"></path><path d="M 2.0 129.1 L 139.4 129.1 " fill="none" stroke="#FEFFFE" stroke-opacity="0.50" stroke-width="1.00" transform="matrix(1.00, 0.00, 0.00, -1.00, -0.5, 321.3)"></path><path d="M 139.4 129.1 L 389.3 129.1 " fill="none" stroke="#FEFFFE" stroke-opacity="0.50" stroke-width="1.00" transform="matrix(1.00, 0.00, 0.00, -1.00, -0.5, 321.3)"></path><path d="M 139.4 1.5 L 139.4 129.1 " fill="none" stroke="#FEFFFE" stroke-opacity="0.50" stroke-width="4.00" transform="matrix(1.00, 0.00, 0.00, -1.00, -0.5, 321.3)"></path><path d="M 2.0 65.5 L 389.3 65.5 " fill="none" stroke="#FEFFFE" stroke-opacity="0.50" stroke-width="1.00" transform="matrix(1.00, 0.00, 0.00, -1.00, -0.5, 321.3)"></path><path d="M 2.0 2.0 L 2.0 65.5 " fill="none" stroke="#FEFFFE" stroke-opacity="0.50" stroke-width="1.00" transform="matrix(1.00, 0.00, 0.00, -1.00, -0.5, 321.3)"></path><path d="M 2.0 65.5 L 2.0 129.1 " fill="none" stroke="#FEFFFE" stroke-opacity="0.50" stroke-width="1.00" transform="matrix(1.00, 0.00, 0.00, -1.00, -0.5, 321.3)"></path><path d="M 2.0 2.0 L 389.3 2.0 " fill="none" stroke="#FEFFFE" stroke-opacity="0.50" stroke-width="1.00" transform="matrix(1.00, 0.00, 0.00, -1.00, -0.5, 321.3)"></path></g></g><g><clipPath id="clip-564"><path d="M 263.3 319.8 L 389.3 319.8 L 389.3 255.3 L 263.3 255.3 Z M 263.3 319.8 "></path></clipPath><g clip-path="url(#clip-564)"><path d="M 138.9 319.3 L 263.8 319.3 L 263.8 255.8 L 138.9 255.8 Z M 138.9 319.3 " fill="#869ABB"></path><path d="M 263.8 319.3 L 388.8 319.3 L 388.8 255.8 L 263.8 255.8 Z M 263.8 319.3 " fill="#869ABB"></path><path d="M 388.8 319.3 L 513.7 319.3 L 513.7 255.8 L 388.8 255.8 Z M 388.8 319.3 " fill="#869ABB"></path></g></g><image xlink:href="../../D55510CF-6CC6-4C3C-BC8C-B86DBACA13BB/assets/530467D521B7D6F399558FA266B94881.png" width="106.00" height="32.00" transform="matrix(1.00, 0.00, -0.00, -1.00, 273.0, 298.0)"></image><g><clipPath id="clip-565"><path d="M 263.3 319.8 L 389.3 319.8 L 389.3 255.3 L 263.3 255.3 Z M 263.3 319.8 "></path></clipPath><g clip-path="url(#clip-565)"><g><clipPath id="clip-566"><path d="M 264.3 256.3 L 388.3 256.3 L 388.3 318.8 L 264.3 318.8 Z M 264.3 256.3 "></path></clipPath><g clip-path="url(#clip-566)"><text xml:space="preserve" font-family="Chalkduster" font-size="16.0" fill="#FEFFFE" transform="matrix(1.00, 0.00, -0.00, -1.00, 278.0, 280.0)">C</text><text xml:space="preserve" font-family="Chalkduster" font-size="16.0" fill="#FEFFFE" transform="matrix(1.00, 0.00, -0.00, -1.00, 291.0, 280.0)">o</text><text xml:space="preserve" font-family="Chalkduster" font-size="16.0" fill="#FEFFFE" transform="matrix(1.00, 0.00, -0.00, -1.00, 303.0, 280.0)">m</text><text xml:space="preserve" font-family="Chalkduster" font-size="16.0" fill="#FEFFFE" transform="matrix(1.00, 0.00, -0.00, -1.00, 319.2, 280.0)">p</text><text xml:space="preserve" font-family="Chalkduster" font-size="16.0" fill="#FEFFFE" transform="matrix(1.00, 0.00, -0.00, -1.00, 329.0, 280.0)">u</text><text xml:space="preserve" font-family="Chalkduster" font-size="16.0" fill="#FEFFFE" transform="matrix(1.00, 0.00, -0.00, -1.00, 339.9, 280.0)">t</text><text xml:space="preserve" font-family="Chalkduster" font-size="16.0" fill="#FEFFFE" transform="matrix(1.00, 0.00, -0.00, -1.00, 347.0, 280.0)">e</text><text xml:space="preserve" font-family="Chalkduster" font-size="16.0" fill="#FEFFFE" transform="matrix(1.00, 0.00, -0.00, -1.00, 356.9, 280.0)"> </text><text xml:space="preserve" font-family="Chalkduster" font-size="16.0" fill="#FEFFFE" transform="matrix(1.00, 0.00, -0.00, -1.00, 364.9, 280.0)">2</text></g></g></g></g><g><clipPath id="clip-567"><path d="M 263.3 319.8 L 389.3 319.8 L 389.3 255.3 L 263.3 255.3 Z M 263.3 319.8 "></path></clipPath><g clip-path="url(#clip-567)"><path d="M 264.4 1.5 L 264.4 65.5 " fill="none" stroke="#FEFFFE" stroke-opacity="0.50" stroke-width="1.00" transform="matrix(1.00, 0.00, 0.00, -1.00, -0.5, 321.3)"></path><path d="M 264.4 65.5 L 264.4 129.1 " fill="none" stroke="#FEFFFE" stroke-opacity="0.50" stroke-width="1.00" transform="matrix(1.00, 0.00, 0.00, -1.00, -0.5, 321.3)"></path><path d="M 389.3 1.5 L 389.3 65.5 " fill="none" stroke="#FEFFFE" stroke-opacity="0.50" stroke-width="1.00" transform="matrix(1.00, 0.00, 0.00, -1.00, -0.5, 321.3)"></path><path d="M 389.3 65.5 L 389.3 129.1 " fill="none" stroke="#FEFFFE" stroke-opacity="0.50" stroke-width="1.00" transform="matrix(1.00, 0.00, 0.00, -1.00, -0.5, 321.3)"></path><path d="M 514.3 2.0 L 514.3 129.1 " fill="none" stroke="#FEFFFE" stroke-opacity="0.50" stroke-width="4.00" transform="matrix(1.00, 0.00, 0.00, -1.00, -0.5, 321.3)"></path><path d="M 139.4 129.1 L 514.3 129.1 " fill="none" stroke="#FEFFFE" stroke-opacity="0.50" stroke-width="1.00" transform="matrix(1.00, 0.00, 0.00, -1.00, -0.5, 321.3)"></path><path d="M 139.4 2.0 L 139.4 129.1 " fill="none" stroke="#FEFFFE" stroke-opacity="0.50" stroke-width="4.00" transform="matrix(1.00, 0.00, 0.00, -1.00, -0.5, 321.3)"></path><path d="M 139.4 65.5 L 514.3 65.5 " fill="none" stroke="#FEFFFE" stroke-opacity="0.50" stroke-width="1.00" transform="matrix(1.00, 0.00, 0.00, -1.00, -0.5, 321.3)"></path><path d="M 139.4 2.0 L 514.3 2.0 " fill="none" stroke="#FEFFFE" stroke-opacity="0.50" stroke-width="1.00" transform="matrix(1.00, 0.00, 0.00, -1.00, -0.5, 321.3)"></path></g></g><g><clipPath id="clip-568"><path d="M 388.3 319.8 L 515.7 319.8 L 515.7 255.3 L 388.3 255.3 Z M 388.3 319.8 "></path></clipPath><g clip-path="url(#clip-568)"><path d="M 263.8 319.3 L 388.8 319.3 L 388.8 255.8 L 263.8 255.8 Z M 263.8 319.3 " fill="#869ABB"></path><path d="M 388.8 319.3 L 513.7 319.3 L 513.7 255.8 L 388.8 255.8 Z M 388.8 319.3 " fill="#869ABB"></path><path d="M 513.7 319.3 L 638.7 319.3 L 638.7 255.8 L 513.7 255.8 Z M 513.7 319.3 " fill="#869ABB"></path></g></g><image xlink:href="../../D55510CF-6CC6-4C3C-BC8C-B86DBACA13BB/assets/4428FEEA42197C511D1202861DED1AFD.png" width="108.00" height="32.00" transform="matrix(1.00, 0.00, -0.00, -1.00, 397.0, 298.0)"></image><g><clipPath id="clip-569"><path d="M 388.3 319.8 L 515.7 319.8 L 515.7 255.3 L 388.3 255.3 Z M 388.3 319.8 "></path></clipPath><g clip-path="url(#clip-569)"><g><clipPath id="clip-570"><path d="M 389.3 256.3 L 511.7 256.3 L 511.7 318.8 L 389.3 318.8 Z M 389.3 256.3 "></path></clipPath><g clip-path="url(#clip-570)"><text xml:space="preserve" font-family="Chalkduster" font-size="16.0" fill="#FEFFFE" transform="matrix(1.00, 0.00, -0.00, -1.00, 402.0, 280.0)">C</text><text xml:space="preserve" font-family="Chalkduster" font-size="16.0" fill="#FEFFFE" transform="matrix(1.00, 0.00, -0.00, -1.00, 415.0, 280.0)">o</text><text xml:space="preserve" font-family="Chalkduster" font-size="16.0" fill="#FEFFFE" transform="matrix(1.00, 0.00, -0.00, -1.00, 427.0, 280.0)">m</text><text xml:space="preserve" font-family="Chalkduster" font-size="16.0" fill="#FEFFFE" transform="matrix(1.00, 0.00, -0.00, -1.00, 443.2, 280.0)">p</text><text xml:space="preserve" font-family="Chalkduster" font-size="16.0" fill="#FEFFFE" transform="matrix(1.00, 0.00, -0.00, -1.00, 453.0, 280.0)">u</text><text xml:space="preserve" font-family="Chalkduster" font-size="16.0" fill="#FEFFFE" transform="matrix(1.00, 0.00, -0.00, -1.00, 463.9, 280.0)">t</text><text xml:space="preserve" font-family="Chalkduster" font-size="16.0" fill="#FEFFFE" transform="matrix(1.00, 0.00, -0.00, -1.00, 471.0, 280.0)">e</text><text xml:space="preserve" font-family="Chalkduster" font-size="16.0" fill="#FEFFFE" transform="matrix(1.00, 0.00, -0.00, -1.00, 480.9, 280.0)"> </text><text xml:space="preserve" font-family="Chalkduster" font-size="16.0" fill="#FEFFFE" transform="matrix(1.00, 0.00, -0.00, -1.00, 488.9, 280.0)">3</text></g></g></g></g><g><clipPath id="clip-571"><path d="M 388.3 319.8 L 515.7 319.8 L 515.7 255.3 L 388.3 255.3 Z M 388.3 319.8 "></path></clipPath><g clip-path="url(#clip-571)"><path d="M 264.4 2.0 L 264.4 65.5 " fill="none" stroke="#FEFFFE" stroke-opacity="0.50" stroke-width="1.00" transform="matrix(1.00, 0.00, 0.00, -1.00, -0.5, 321.3)"></path><path d="M 264.4 65.5 L 264.4 129.1 " fill="none" stroke="#FEFFFE" stroke-opacity="0.50" stroke-width="1.00" transform="matrix(1.00, 0.00, 0.00, -1.00, -0.5, 321.3)"></path><path d="M 389.3 1.5 L 389.3 65.5 " fill="none" stroke="#FEFFFE" stroke-opacity="0.50" stroke-width="1.00" transform="matrix(1.00, 0.00, 0.00, -1.00, -0.5, 321.3)"></path><path d="M 389.3 65.5 L 389.3 129.1 " fill="none" stroke="#FEFFFE" stroke-opacity="0.50" stroke-width="1.00" transform="matrix(1.00, 0.00, 0.00, -1.00, -0.5, 321.3)"></path><path d="M 514.3 1.5 L 514.3 129.1 " fill="none" stroke="#FEFFFE" stroke-opacity="0.50" stroke-width="4.00" transform="matrix(1.00, 0.00, 0.00, -1.00, -0.5, 321.3)"></path><path d="M 639.2 2.0 L 639.2 65.5 " fill="none" stroke="#FEFFFE" stroke-opacity="0.50" stroke-width="1.00" transform="matrix(1.00, 0.00, 0.00, -1.00, -0.5, 321.3)"></path><path d="M 639.2 65.5 L 639.2 129.1 " fill="none" stroke="#FEFFFE" stroke-opacity="0.50" stroke-width="1.00" transform="matrix(1.00, 0.00, 0.00, -1.00, -0.5, 321.3)"></path><path d="M 264.4 129.1 L 639.2 129.1 " fill="none" stroke="#FEFFFE" stroke-opacity="0.50" stroke-width="1.00" transform="matrix(1.00, 0.00, 0.00, -1.00, -0.5, 321.3)"></path><path d="M 264.4 65.5 L 639.2 65.5 " fill="none" stroke="#FEFFFE" stroke-opacity="0.50" stroke-width="1.00" transform="matrix(1.00, 0.00, 0.00, -1.00, -0.5, 321.3)"></path><path d="M 264.4 2.0 L 639.2 2.0 " fill="none" stroke="#FEFFFE" stroke-opacity="0.50" stroke-width="1.00" transform="matrix(1.00, 0.00, 0.00, -1.00, -0.5, 321.3)"></path></g></g><g><clipPath id="clip-572"><path d="M 511.7 319.8 L 639.2 319.8 L 639.2 255.3 L 511.7 255.3 Z M 511.7 319.8 "></path></clipPath><g clip-path="url(#clip-572)"><path d="M 388.8 319.3 L 513.7 319.3 L 513.7 255.8 L 388.8 255.8 Z M 388.8 319.3 " fill="#869ABB"></path><path d="M 513.7 319.3 L 638.7 319.3 L 638.7 255.8 L 513.7 255.8 Z M 513.7 319.3 " fill="#869ABB"></path><path d="M 638.7 319.3 L 763.6 319.3 L 763.6 255.8 L 638.7 255.8 Z M 638.7 319.3 " fill="#869ABB"></path></g></g><image xlink:href="../../D55510CF-6CC6-4C3C-BC8C-B86DBACA13BB/assets/2B8F4EDCD1DF0638CE3749ED49873FB2.png" width="90.00" height="32.00" transform="matrix(1.00, 0.00, -0.00, -1.00, 532.0, 298.0)"></image><g><clipPath id="clip-573"><path d="M 511.7 319.8 L 639.2 319.8 L 639.2 255.3 L 511.7 255.3 Z M 511.7 319.8 "></path></clipPath><g clip-path="url(#clip-573)"><g><clipPath id="clip-574"><path d="M 515.7 256.3 L 638.2 256.3 L 638.2 318.8 L 515.7 318.8 Z M 515.7 256.3 "></path></clipPath><g clip-path="url(#clip-574)"><text xml:space="preserve" font-family="Chalkduster" font-size="16.0" fill="#FEFFFE" transform="matrix(1.00, 0.00, -0.00, -1.00, 537.0, 280.0)">E</text><text xml:space="preserve" font-family="Chalkduster" font-size="16.0" fill="#FEFFFE" transform="matrix(1.00, 0.00, -0.00, -1.00, 548.8, 280.0)">p</text><text xml:space="preserve" font-family="Chalkduster" font-size="16.0" fill="#FEFFFE" transform="matrix(1.00, 0.00, -0.00, -1.00, 558.9, 280.0)">o</text><text xml:space="preserve" font-family="Chalkduster" font-size="16.0" fill="#FEFFFE" transform="matrix(1.00, 0.00, -0.00, -1.00, 570.9, 280.0)">u</text><text xml:space="preserve" font-family="Chalkduster" font-size="16.0" fill="#FEFFFE" transform="matrix(1.00, 0.00, -0.00, -1.00, 581.7, 280.0)">t</text><text xml:space="preserve" font-family="Chalkduster" font-size="16.0" fill="#FEFFFE" transform="matrix(1.00, 0.00, -0.00, -1.00, 588.9, 280.0)">a</text><text xml:space="preserve" font-family="Chalkduster" font-size="16.0" fill="#FEFFFE" transform="matrix(1.00, 0.00, -0.00, -1.00, 599.9, 280.0)"> </text><text xml:space="preserve" font-family="Chalkduster" font-size="16.0" fill="#FEFFFE" transform="matrix(1.00, 0.00, -0.00, -1.00, 607.9, 280.0)">1</text></g></g></g></g><g><clipPath id="clip-575"><path d="M 511.7 319.8 L 639.2 319.8 L 639.2 255.3 L 511.7 255.3 Z M 511.7 319.8 "></path></clipPath><g clip-path="url(#clip-575)"><path d="M 389.3 2.0 L 389.3 65.5 " fill="none" stroke="#FEFFFE" stroke-opacity="0.50" stroke-width="1.00" transform="matrix(1.00, 0.00, 0.00, -1.00, -0.5, 321.3)"></path><path d="M 389.3 65.5 L 389.3 129.1 " fill="none" stroke="#FEFFFE" stroke-opacity="0.50" stroke-width="1.00" transform="matrix(1.00, 0.00, 0.00, -1.00, -0.5, 321.3)"></path><path d="M 514.3 1.5 L 514.3 129.1 " fill="none" stroke="#FEFFFE" stroke-opacity="0.50" stroke-width="4.00" transform="matrix(1.00, 0.00, 0.00, -1.00, -0.5, 321.3)"></path><path d="M 639.2 1.5 L 639.2 65.5 " fill="none" stroke="#FEFFFE" stroke-opacity="0.50" stroke-width="1.00" transform="matrix(1.00, 0.00, 0.00, -1.00, -0.5, 321.3)"></path><path d="M 639.2 65.5 L 639.2 129.1 " fill="none" stroke="#FEFFFE" stroke-opacity="0.50" stroke-width="1.00" transform="matrix(1.00, 0.00, 0.00, -1.00, -0.5, 321.3)"></path><path d="M 764.1 2.0 L 764.1 65.5 " fill="none" stroke="#FEFFFE" stroke-opacity="0.50" stroke-width="1.00" transform="matrix(1.00, 0.00, 0.00, -1.00, -0.5, 321.3)"></path><path d="M 764.1 65.5 L 764.1 129.1 " fill="none" stroke="#FEFFFE" stroke-opacity="0.50" stroke-width="1.00" transform="matrix(1.00, 0.00, 0.00, -1.00, -0.5, 321.3)"></path><path d="M 389.3 129.1 L 764.1 129.1 " fill="none" stroke="#FEFFFE" stroke-opacity="0.50" stroke-width="1.00" transform="matrix(1.00, 0.00, 0.00, -1.00, -0.5, 321.3)"></path><path d="M 389.3 65.5 L 764.1 65.5 " fill="none" stroke="#FEFFFE" stroke-opacity="0.50" stroke-width="1.00" transform="matrix(1.00, 0.00, 0.00, -1.00, -0.5, 321.3)"></path><path d="M 389.3 2.0 L 764.1 2.0 " fill="none" stroke="#FEFFFE" stroke-opacity="0.50" stroke-width="1.00" transform="matrix(1.00, 0.00, 0.00, -1.00, -0.5, 321.3)"></path></g></g><g><clipPath id="clip-576"><path d="M 638.2 319.8 L 764.1 319.8 L 764.1 255.3 L 638.2 255.3 Z M 638.2 319.8 "></path></clipPath><g clip-path="url(#clip-576)"><path d="M 513.7 319.3 L 638.7 319.3 L 638.7 255.8 L 513.7 255.8 Z M 513.7 319.3 " fill="#869ABB"></path><path d="M 638.7 319.3 L 763.6 319.3 L 763.6 255.8 L 638.7 255.8 Z M 638.7 319.3 " fill="#869ABB"></path><path d="M 763.6 319.3 L 888.5 319.3 L 888.5 255.8 L 763.6 255.8 Z M 763.6 319.3 " fill="#869ABB"></path></g></g><image xlink:href="../../D55510CF-6CC6-4C3C-BC8C-B86DBACA13BB/assets/9383B51057CC135F09A649658AB8DE55.png" width="90.00" height="32.00" transform="matrix(1.00, 0.00, -0.00, -1.00, 656.0, 298.0)"></image><g><clipPath id="clip-577"><path d="M 638.2 319.8 L 764.1 319.8 L 764.1 255.3 L 638.2 255.3 Z M 638.2 319.8 "></path></clipPath><g clip-path="url(#clip-577)"><g><clipPath id="clip-578"><path d="M 639.2 256.3 L 763.1 256.3 L 763.1 318.8 L 639.2 318.8 Z M 639.2 256.3 "></path></clipPath><g clip-path="url(#clip-578)"><text xml:space="preserve" font-family="Chalkduster" font-size="16.0" fill="#FEFFFE" transform="matrix(1.00, 0.00, -0.00, -1.00, 661.0, 280.0)">E</text><text xml:space="preserve" font-family="Chalkduster" font-size="16.0" fill="#FEFFFE" transform="matrix(1.00, 0.00, -0.00, -1.00, 672.8, 280.0)">p</text><text xml:space="preserve" font-family="Chalkduster" font-size="16.0" fill="#FEFFFE" transform="matrix(1.00, 0.00, -0.00, -1.00, 682.9, 280.0)">o</text><text xml:space="preserve" font-family="Chalkduster" font-size="16.0" fill="#FEFFFE" transform="matrix(1.00, 0.00, -0.00, -1.00, 694.9, 280.0)">u</text><text xml:space="preserve" font-family="Chalkduster" font-size="16.0" fill="#FEFFFE" transform="matrix(1.00, 0.00, -0.00, -1.00, 705.7, 280.0)">t</text><text xml:space="preserve" font-family="Chalkduster" font-size="16.0" fill="#FEFFFE" transform="matrix(1.00, 0.00, -0.00, -1.00, 712.9, 280.0)">a</text><text xml:space="preserve" font-family="Chalkduster" font-size="16.0" fill="#FEFFFE" transform="matrix(1.00, 0.00, -0.00, -1.00, 723.9, 280.0)"> </text><text xml:space="preserve" font-family="Chalkduster" font-size="16.0" fill="#FEFFFE" transform="matrix(1.00, 0.00, -0.00, -1.00, 731.9, 280.0)">2</text></g></g></g></g><g><clipPath id="clip-579"><path d="M 638.2 319.8 L 764.1 319.8 L 764.1 255.3 L 638.2 255.3 Z M 638.2 319.8 "></path></clipPath><g clip-path="url(#clip-579)"><path d="M 514.3 2.0 L 514.3 129.1 " fill="none" stroke="#FEFFFE" stroke-opacity="0.50" stroke-width="4.00" transform="matrix(1.00, 0.00, 0.00, -1.00, -0.5, 321.3)"></path><path d="M 639.2 1.5 L 639.2 65.5 " fill="none" stroke="#FEFFFE" stroke-opacity="0.50" stroke-width="1.00" transform="matrix(1.00, 0.00, 0.00, -1.00, -0.5, 321.3)"></path><path d="M 639.2 65.5 L 639.2 129.1 " fill="none" stroke="#FEFFFE" stroke-opacity="0.50" stroke-width="1.00" transform="matrix(1.00, 0.00, 0.00, -1.00, -0.5, 321.3)"></path><path d="M 764.1 1.5 L 764.1 65.5 " fill="none" stroke="#FEFFFE" stroke-opacity="0.50" stroke-width="1.00" transform="matrix(1.00, 0.00, 0.00, -1.00, -0.5, 321.3)"></path><path d="M 764.1 65.5 L 764.1 129.1 " fill="none" stroke="#FEFFFE" stroke-opacity="0.50" stroke-width="1.00" transform="matrix(1.00, 0.00, 0.00, -1.00, -0.5, 321.3)"></path><path d="M 514.3 129.1 L 889.1 129.1 " fill="none" stroke="#FEFFFE" stroke-opacity="0.50" stroke-width="1.00" transform="matrix(1.00, 0.00, 0.00, -1.00, -0.5, 321.3)"></path><path d="M 514.3 65.5 L 889.1 65.5 " fill="none" stroke="#FEFFFE" stroke-opacity="0.50" stroke-width="1.00" transform="matrix(1.00, 0.00, 0.00, -1.00, -0.5, 321.3)"></path><path d="M 889.1 2.0 L 889.1 65.5 " fill="none" stroke="#FEFFFE" stroke-opacity="0.50" stroke-width="1.00" transform="matrix(1.00, 0.00, 0.00, -1.00, -0.5, 321.3)"></path><path d="M 889.1 65.5 L 889.1 129.1 " fill="none" stroke="#FEFFFE" stroke-opacity="0.50" stroke-width="1.00" transform="matrix(1.00, 0.00, 0.00, -1.00, -0.5, 321.3)"></path><path d="M 514.3 2.0 L 889.1 2.0 " fill="none" stroke="#FEFFFE" stroke-opacity="0.50" stroke-width="1.00" transform="matrix(1.00, 0.00, 0.00, -1.00, -0.5, 321.3)"></path></g></g><g><clipPath id="clip-580"><path d="M 763.1 319.8 L 889.0 319.8 L 889.0 255.3 L 763.1 255.3 Z M 763.1 319.8 "></path></clipPath><g clip-path="url(#clip-580)"><path d="M 638.7 319.3 L 763.6 319.3 L 763.6 255.8 L 638.7 255.8 Z M 638.7 319.3 " fill="#869ABB"></path><path d="M 763.6 319.3 L 888.5 319.3 L 888.5 255.8 L 763.6 255.8 Z M 763.6 319.3 " fill="#869ABB"></path></g></g><image xlink:href="../../D55510CF-6CC6-4C3C-BC8C-B86DBACA13BB/assets/01EAD8C765E9B848C34AF342E4683A9D.png" width="92.00" height="32.00" transform="matrix(1.00, 0.00, -0.00, -1.00, 780.0, 298.0)"></image><g><clipPath id="clip-581"><path d="M 763.1 319.8 L 889.0 319.8 L 889.0 255.3 L 763.1 255.3 Z M 763.1 319.8 "></path></clipPath><g clip-path="url(#clip-581)"><g><clipPath id="clip-582"><path d="M 764.1 256.3 L 888.0 256.3 L 888.0 318.8 L 764.1 318.8 Z M 764.1 256.3 "></path></clipPath><g clip-path="url(#clip-582)"><text xml:space="preserve" font-family="Chalkduster" font-size="16.0" fill="#FEFFFE" transform="matrix(1.00, 0.00, -0.00, -1.00, 785.0, 280.0)">E</text><text xml:space="preserve" font-family="Chalkduster" font-size="16.0" fill="#FEFFFE" transform="matrix(1.00, 0.00, -0.00, -1.00, 796.8, 280.0)">p</text><text xml:space="preserve" font-family="Chalkduster" font-size="16.0" fill="#FEFFFE" transform="matrix(1.00, 0.00, -0.00, -1.00, 806.9, 280.0)">o</text><text xml:space="preserve" font-family="Chalkduster" font-size="16.0" fill="#FEFFFE" transform="matrix(1.00, 0.00, -0.00, -1.00, 818.9, 280.0)">u</text><text xml:space="preserve" font-family="Chalkduster" font-size="16.0" fill="#FEFFFE" transform="matrix(1.00, 0.00, -0.00, -1.00, 829.7, 280.0)">t</text><text xml:space="preserve" font-family="Chalkduster" font-size="16.0" fill="#FEFFFE" transform="matrix(1.00, 0.00, -0.00, -1.00, 836.9, 280.0)">a</text><text xml:space="preserve" font-family="Chalkduster" font-size="16.0" fill="#FEFFFE" transform="matrix(1.00, 0.00, -0.00, -1.00, 847.9, 280.0)"> </text><text xml:space="preserve" font-family="Chalkduster" font-size="16.0" fill="#FEFFFE" transform="matrix(1.00, 0.00, -0.00, -1.00, 855.9, 280.0)">3</text></g></g></g></g><g><clipPath id="clip-583"><path d="M 763.1 319.8 L 889.0 319.8 L 889.0 255.3 L 763.1 255.3 Z M 763.1 319.8 "></path></clipPath><g clip-path="url(#clip-583)"><path d="M 639.2 2.0 L 639.2 65.5 " fill="none" stroke="#FEFFFE" stroke-opacity="0.50" stroke-width="1.00" transform="matrix(1.00, 0.00, 0.00, -1.00, -0.5, 321.3)"></path><path d="M 639.2 65.5 L 639.2 129.1 " fill="none" stroke="#FEFFFE" stroke-opacity="0.50" stroke-width="1.00" transform="matrix(1.00, 0.00, 0.00, -1.00, -0.5, 321.3)"></path><path d="M 764.1 1.5 L 764.1 65.5 " fill="none" stroke="#FEFFFE" stroke-opacity="0.50" stroke-width="1.00" transform="matrix(1.00, 0.00, 0.00, -1.00, -0.5, 321.3)"></path><path d="M 764.1 65.5 L 764.1 129.1 " fill="none" stroke="#FEFFFE" stroke-opacity="0.50" stroke-width="1.00" transform="matrix(1.00, 0.00, 0.00, -1.00, -0.5, 321.3)"></path><path d="M 639.2 129.1 L 889.1 129.1 " fill="none" stroke="#FEFFFE" stroke-opacity="0.50" stroke-width="1.00" transform="matrix(1.00, 0.00, 0.00, -1.00, -0.5, 321.3)"></path><path d="M 639.2 65.5 L 889.6 65.5 " fill="none" stroke="#FEFFFE" stroke-opacity="0.50" stroke-width="1.00" transform="matrix(1.00, 0.00, 0.00, -1.00, -0.5, 321.3)"></path><path d="M 889.1 1.5 L 889.1 65.5 " fill="none" stroke="#FEFFFE" stroke-opacity="0.50" stroke-width="1.00" transform="matrix(1.00, 0.00, 0.00, -1.00, -0.5, 321.3)"></path><path d="M 889.1 65.5 L 889.1 129.1 " fill="none" stroke="#FEFFFE" stroke-opacity="0.50" stroke-width="1.00" transform="matrix(1.00, 0.00, 0.00, -1.00, -0.5, 321.3)"></path><path d="M 639.2 2.0 L 889.6 2.0 " fill="none" stroke="#FEFFFE" stroke-opacity="0.50" stroke-width="1.00" transform="matrix(1.00, 0.00, 0.00, -1.00, -0.5, 321.3)"></path></g></g><g><clipPath id="clip-584"><path d="M 1.0 256.3 L 140.9 256.3 L 140.9 191.7 L 1.0 191.7 Z M 1.0 256.3 "></path></clipPath><g clip-path="url(#clip-584)"><path d="M 1.5 319.3 L 138.9 319.3 L 138.9 255.8 L 1.5 255.8 Z M 1.5 319.3 " fill="#869ABB"></path><path d="M 138.9 319.3 L 263.8 319.3 L 263.8 255.8 L 138.9 255.8 Z M 138.9 319.3 " fill="#869ABB"></path><path d="M 1.5 255.8 L 138.9 255.8 L 138.9 192.2 L 1.5 192.2 Z M 1.5 255.8 " fill="#869ABB"></path><path d="M 1.5 192.2 L 138.9 192.2 L 138.9 128.7 L 1.5 128.7 Z M 1.5 192.2 " fill="#869ABB"></path><path d="M 138.9 192.2 L 263.8 192.2 L 263.8 128.7 L 138.9 128.7 Z M 138.9 192.2 " fill="#000000" fill-opacity="0.25"></path></g></g><image xlink:href="../../D55510CF-6CC6-4C3C-BC8C-B86DBACA13BB/assets/8F4C4514F02597A39B860972E9EC7AC7.png" width="42.00" height="20.00" transform="matrix(1.00, 0.00, -0.00, -1.00, 95.0, 230.0)"></image><g><clipPath id="clip-585"><path d="M 1.0 256.3 L 140.9 256.3 L 140.9 191.7 L 1.0 191.7 Z M 1.0 256.3 "></path></clipPath><g clip-path="url(#clip-585)"><g><clipPath id="clip-586"><path d="M 2.0 192.7 L 136.9 192.7 L 136.9 255.3 L 2.0 255.3 Z M 2.0 192.7 "></path></clipPath><g clip-path="url(#clip-586)"><text xml:space="preserve" font-family="Chalkduster" font-size="16.0" fill="#FEFFFE" transform="matrix(1.00, 0.00, -0.00, -1.00, 100.0, 216.0)">m</text><text xml:space="preserve" font-family="Chalkduster" font-size="16.0" fill="#FEFFFE" transform="matrix(1.00, 0.00, -0.00, -1.00, 116.7, 216.0)">m</text></g></g></g></g><g><clipPath id="clip-587"><path d="M 1.0 256.3 L 140.9 256.3 L 140.9 191.7 L 1.0 191.7 Z M 1.0 256.3 "></path></clipPath><g clip-path="url(#clip-587)"><path d="M 264.4 2.0 L 264.4 65.5 " fill="none" stroke="#FEFFFE" stroke-opacity="0.50" stroke-width="1.00" transform="matrix(1.00, 0.00, 0.00, -1.00, -0.5, 321.3)"></path><path d="M 264.4 65.5 L 264.4 192.6 " fill="none" stroke="#FEFFFE" stroke-opacity="0.50" stroke-width="1.00" transform="matrix(1.00, 0.00, 0.00, -1.00, -0.5, 321.3)"></path><path d="M 1.5 129.1 L 139.4 129.1 " fill="none" stroke="#FEFFFE" stroke-opacity="0.50" stroke-width="1.00" transform="matrix(1.00, 0.00, 0.00, -1.00, -0.5, 321.3)"></path><path d="M 139.4 129.1 L 264.4 129.1 " fill="none" stroke="#FEFFFE" stroke-opacity="0.50" stroke-width="1.00" transform="matrix(1.00, 0.00, 0.00, -1.00, -0.5, 321.3)"></path><path d="M 2.0 192.6 L 139.4 192.6 " fill="none" stroke="#FEFFFE" stroke-opacity="0.50" stroke-width="1.00" transform="matrix(1.00, 0.00, 0.00, -1.00, -0.5, 321.3)"></path><path d="M 139.4 192.6 L 264.4 192.6 " fill="none" stroke="#FEFFFE" stroke-opacity="0.50" stroke-width="1.00" transform="matrix(1.00, 0.00, 0.00, -1.00, -0.5, 321.3)"></path><path d="M 139.4 2.0 L 139.4 192.6 " fill="none" stroke="#FEFFFE" stroke-opacity="0.50" stroke-width="4.00" transform="matrix(1.00, 0.00, 0.00, -1.00, -0.5, 321.3)"></path><path d="M 1.5 65.5 L 264.4 65.5 " fill="none" stroke="#FEFFFE" stroke-opacity="0.50" stroke-width="1.00" transform="matrix(1.00, 0.00, 0.00, -1.00, -0.5, 321.3)"></path><path d="M 2.0 2.0 L 2.0 65.5 " fill="none" stroke="#FEFFFE" stroke-opacity="0.50" stroke-width="1.00" transform="matrix(1.00, 0.00, 0.00, -1.00, -0.5, 321.3)"></path><path d="M 2.0 65.5 L 2.0 192.6 " fill="none" stroke="#FEFFFE" stroke-opacity="0.50" stroke-width="1.00" transform="matrix(1.00, 0.00, 0.00, -1.00, -0.5, 321.3)"></path><path d="M 2.0 2.0 L 264.4 2.0 " fill="none" stroke="#FEFFFE" stroke-opacity="0.50" stroke-width="1.00" transform="matrix(1.00, 0.00, 0.00, -1.00, -0.5, 321.3)"></path></g></g><g><clipPath id="clip-588"><path d="M 136.9 256.3 L 264.3 256.3 L 264.3 191.7 L 136.9 191.7 Z M 136.9 256.3 "></path></clipPath><g clip-path="url(#clip-588)"><path d="M 1.5 319.3 L 138.9 319.3 L 138.9 255.8 L 1.5 255.8 Z M 1.5 319.3 " fill="#869ABB"></path><path d="M 138.9 319.3 L 263.8 319.3 L 263.8 255.8 L 138.9 255.8 Z M 138.9 319.3 " fill="#869ABB"></path><path d="M 263.8 319.3 L 388.8 319.3 L 388.8 255.8 L 263.8 255.8 Z M 263.8 319.3 " fill="#869ABB"></path><path d="M 1.5 255.8 L 138.9 255.8 L 138.9 192.2 L 1.5 192.2 Z M 1.5 255.8 " fill="#869ABB"></path><path d="M 1.5 192.2 L 138.9 192.2 L 138.9 128.7 L 1.5 128.7 Z M 1.5 192.2 " fill="#869ABB"></path><path d="M 138.9 192.2 L 263.8 192.2 L 263.8 128.7 L 138.9 128.7 Z M 138.9 192.2 " fill="#000000" fill-opacity="0.25"></path><path d="M 263.8 192.2 L 388.8 192.2 L 388.8 128.7 L 263.8 128.7 Z M 263.8 192.2 " fill="#000000" fill-opacity="0.25"></path></g></g><image xlink:href="../../D55510CF-6CC6-4C3C-BC8C-B86DBACA13BB/assets/5CF07A188BC6F9A92C473C7CB6E206F3.png" width="18.00" height="23.00" transform="matrix(1.00, 0.00, -0.00, -1.00, 193.0, 233.0)"></image><g><clipPath id="clip-589"><path d="M 136.9 256.3 L 264.3 256.3 L 264.3 191.7 L 136.9 191.7 Z M 136.9 256.3 "></path></clipPath><g clip-path="url(#clip-589)"><g><clipPath id="clip-590"><path d="M 140.9 192.7 L 263.3 192.7 L 263.3 255.3 L 140.9 255.3 Z M 140.9 192.7 "></path></clipPath><g clip-path="url(#clip-590)"><text xml:space="preserve" font-family="Chalkduster" font-size="16.0" fill="#FEFFFE" transform="matrix(1.00, 0.00, -0.00, -1.00, 197.0, 216.0)">1</text></g></g></g></g><g><clipPath id="clip-591"><path d="M 136.9 256.3 L 264.3 256.3 L 264.3 191.7 L 136.9 191.7 Z M 136.9 256.3 "></path></clipPath><g clip-path="url(#clip-591)"><path d="M 264.4 2.0 L 264.4 65.5 " fill="none" stroke="#FEFFFE" stroke-opacity="0.50" stroke-width="1.00" transform="matrix(1.00, 0.00, 0.00, -1.00, -0.5, 321.3)"></path><path d="M 264.4 65.5 L 264.4 192.6 " fill="none" stroke="#FEFFFE" stroke-opacity="0.50" stroke-width="1.00" transform="matrix(1.00, 0.00, 0.00, -1.00, -0.5, 321.3)"></path><path d="M 389.3 2.0 L 389.3 65.5 " fill="none" stroke="#FEFFFE" stroke-opacity="0.50" stroke-width="1.00" transform="matrix(1.00, 0.00, 0.00, -1.00, -0.5, 321.3)"></path><path d="M 389.3 65.5 L 389.3 192.6 " fill="none" stroke="#FEFFFE" stroke-opacity="0.50" stroke-width="1.00" transform="matrix(1.00, 0.00, 0.00, -1.00, -0.5, 321.3)"></path><path d="M 2.0 129.1 L 139.4 129.1 " fill="none" stroke="#FEFFFE" stroke-opacity="0.50" stroke-width="1.00" transform="matrix(1.00, 0.00, 0.00, -1.00, -0.5, 321.3)"></path><path d="M 139.4 129.1 L 389.3 129.1 " fill="none" stroke="#FEFFFE" stroke-opacity="0.50" stroke-width="1.00" transform="matrix(1.00, 0.00, 0.00, -1.00, -0.5, 321.3)"></path><path d="M 2.0 192.6 L 139.4 192.6 " fill="none" stroke="#FEFFFE" stroke-opacity="0.50" stroke-width="1.00" transform="matrix(1.00, 0.00, 0.00, -1.00, -0.5, 321.3)"></path><path d="M 139.4 192.6 L 389.3 192.6 " fill="none" stroke="#FEFFFE" stroke-opacity="0.50" stroke-width="1.00" transform="matrix(1.00, 0.00, 0.00, -1.00, -0.5, 321.3)"></path><path d="M 139.4 2.0 L 139.4 192.6 " fill="none" stroke="#FEFFFE" stroke-opacity="0.50" stroke-width="4.00" transform="matrix(1.00, 0.00, 0.00, -1.00, -0.5, 321.3)"></path><path d="M 2.0 65.5 L 389.3 65.5 " fill="none" stroke="#FEFFFE" stroke-opacity="0.50" stroke-width="1.00" transform="matrix(1.00, 0.00, 0.00, -1.00, -0.5, 321.3)"></path><path d="M 2.0 2.0 L 2.0 65.5 " fill="none" stroke="#FEFFFE" stroke-opacity="0.50" stroke-width="1.00" transform="matrix(1.00, 0.00, 0.00, -1.00, -0.5, 321.3)"></path><path d="M 2.0 65.5 L 2.0 192.6 " fill="none" stroke="#FEFFFE" stroke-opacity="0.50" stroke-width="1.00" transform="matrix(1.00, 0.00, 0.00, -1.00, -0.5, 321.3)"></path><path d="M 2.0 2.0 L 389.3 2.0 " fill="none" stroke="#FEFFFE" stroke-opacity="0.50" stroke-width="1.00" transform="matrix(1.00, 0.00, 0.00, -1.00, -0.5, 321.3)"></path></g></g><g><clipPath id="clip-592"><path d="M 263.3 256.3 L 389.3 256.3 L 389.3 191.7 L 263.3 191.7 Z M 263.3 256.3 "></path></clipPath><g clip-path="url(#clip-592)"><path d="M 138.9 319.3 L 263.8 319.3 L 263.8 255.8 L 138.9 255.8 Z M 138.9 319.3 " fill="#869ABB"></path><path d="M 263.8 319.3 L 388.8 319.3 L 388.8 255.8 L 263.8 255.8 Z M 263.8 319.3 " fill="#869ABB"></path><path d="M 388.8 319.3 L 513.7 319.3 L 513.7 255.8 L 388.8 255.8 Z M 388.8 319.3 " fill="#869ABB"></path><path d="M 138.9 192.2 L 263.8 192.2 L 263.8 128.7 L 138.9 128.7 Z M 138.9 192.2 " fill="#000000" fill-opacity="0.25"></path><path d="M 263.8 192.2 L 388.8 192.2 L 388.8 128.7 L 263.8 128.7 Z M 263.8 192.2 " fill="#000000" fill-opacity="0.25"></path><path d="M 388.8 192.2 L 513.7 192.2 L 513.7 128.7 L 388.8 128.7 Z M 388.8 192.2 " fill="#000000" fill-opacity="0.25"></path></g></g><image xlink:href="../../D55510CF-6CC6-4C3C-BC8C-B86DBACA13BB/assets/0AC42A1088C98091ED1F4E6A1EB35E36.png" width="19.00" height="23.00" transform="matrix(1.00, 0.00, -0.00, -1.00, 317.0, 233.0)"></image><g><clipPath id="clip-593"><path d="M 263.3 256.3 L 389.3 256.3 L 389.3 191.7 L 263.3 191.7 Z M 263.3 256.3 "></path></clipPath><g clip-path="url(#clip-593)"><g><clipPath id="clip-594"><path d="M 264.3 192.7 L 388.3 192.7 L 388.3 255.3 L 264.3 255.3 Z M 264.3 192.7 "></path></clipPath><g clip-path="url(#clip-594)"><text xml:space="preserve" font-family="Chalkduster" font-size="16.0" fill="#FEFFFE" transform="matrix(1.00, 0.00, -0.00, -1.00, 322.0, 216.0)">2</text></g></g></g></g><g><clipPath id="clip-595"><path d="M 263.3 256.3 L 389.3 256.3 L 389.3 191.7 L 263.3 191.7 Z M 263.3 256.3 "></path></clipPath><g clip-path="url(#clip-595)"><path d="M 264.4 2.0 L 264.4 65.5 " fill="none" stroke="#FEFFFE" stroke-opacity="0.50" stroke-width="1.00" transform="matrix(1.00, 0.00, 0.00, -1.00, -0.5, 321.3)"></path><path d="M 264.4 65.5 L 264.4 192.6 " fill="none" stroke="#FEFFFE" stroke-opacity="0.50" stroke-width="1.00" transform="matrix(1.00, 0.00, 0.00, -1.00, -0.5, 321.3)"></path><path d="M 389.3 2.0 L 389.3 65.5 " fill="none" stroke="#FEFFFE" stroke-opacity="0.50" stroke-width="1.00" transform="matrix(1.00, 0.00, 0.00, -1.00, -0.5, 321.3)"></path><path d="M 389.3 65.5 L 389.3 192.6 " fill="none" stroke="#FEFFFE" stroke-opacity="0.50" stroke-width="1.00" transform="matrix(1.00, 0.00, 0.00, -1.00, -0.5, 321.3)"></path><path d="M 514.3 2.0 L 514.3 192.6 " fill="none" stroke="#FEFFFE" stroke-opacity="0.50" stroke-width="4.00" transform="matrix(1.00, 0.00, 0.00, -1.00, -0.5, 321.3)"></path><path d="M 139.4 129.1 L 514.3 129.1 " fill="none" stroke="#FEFFFE" stroke-opacity="0.50" stroke-width="1.00" transform="matrix(1.00, 0.00, 0.00, -1.00, -0.5, 321.3)"></path><path d="M 139.4 192.6 L 514.3 192.6 " fill="none" stroke="#FEFFFE" stroke-opacity="0.50" stroke-width="1.00" transform="matrix(1.00, 0.00, 0.00, -1.00, -0.5, 321.3)"></path><path d="M 139.4 2.0 L 139.4 192.6 " fill="none" stroke="#FEFFFE" stroke-opacity="0.50" stroke-width="4.00" transform="matrix(1.00, 0.00, 0.00, -1.00, -0.5, 321.3)"></path><path d="M 139.4 65.5 L 514.3 65.5 " fill="none" stroke="#FEFFFE" stroke-opacity="0.50" stroke-width="1.00" transform="matrix(1.00, 0.00, 0.00, -1.00, -0.5, 321.3)"></path><path d="M 139.4 2.0 L 514.3 2.0 " fill="none" stroke="#FEFFFE" stroke-opacity="0.50" stroke-width="1.00" transform="matrix(1.00, 0.00, 0.00, -1.00, -0.5, 321.3)"></path></g></g><g><clipPath id="clip-596"><path d="M 388.3 256.3 L 515.7 256.3 L 515.7 191.7 L 388.3 191.7 Z M 388.3 256.3 "></path></clipPath><g clip-path="url(#clip-596)"><path d="M 263.8 319.3 L 388.8 319.3 L 388.8 255.8 L 263.8 255.8 Z M 263.8 319.3 " fill="#869ABB"></path><path d="M 388.8 319.3 L 513.7 319.3 L 513.7 255.8 L 388.8 255.8 Z M 388.8 319.3 " fill="#869ABB"></path><path d="M 513.7 319.3 L 638.7 319.3 L 638.7 255.8 L 513.7 255.8 Z M 513.7 319.3 " fill="#869ABB"></path><path d="M 263.8 192.2 L 388.8 192.2 L 388.8 128.7 L 263.8 128.7 Z M 263.8 192.2 " fill="#000000" fill-opacity="0.25"></path><path d="M 388.8 192.2 L 513.7 192.2 L 513.7 128.7 L 388.8 128.7 Z M 388.8 192.2 " fill="#000000" fill-opacity="0.25"></path><path d="M 513.7 192.2 L 638.7 192.2 L 638.7 128.7 L 513.7 128.7 Z M 513.7 192.2 " fill="#000000" fill-opacity="0.25"></path></g></g><image xlink:href="../../D55510CF-6CC6-4C3C-BC8C-B86DBACA13BB/assets/1736D47D1B2025C47B146D19CEF54500.png" width="21.00" height="23.00" transform="matrix(1.00, 0.00, -0.00, -1.00, 440.0, 233.0)"></image><g><clipPath id="clip-597"><path d="M 388.3 256.3 L 515.7 256.3 L 515.7 191.7 L 388.3 191.7 Z M 388.3 256.3 "></path></clipPath><g clip-path="url(#clip-597)"><g><clipPath id="clip-598"><path d="M 389.3 192.7 L 511.7 192.7 L 511.7 255.3 L 389.3 255.3 Z M 389.3 192.7 "></path></clipPath><g clip-path="url(#clip-598)"><text xml:space="preserve" font-family="Chalkduster" font-size="16.0" fill="#FEFFFE" transform="matrix(1.00, 0.00, -0.00, -1.00, 445.0, 216.0)">3</text></g></g></g></g><g><clipPath id="clip-599"><path d="M 388.3 256.3 L 515.7 256.3 L 515.7 191.7 L 388.3 191.7 Z M 388.3 256.3 "></path></clipPath><g clip-path="url(#clip-599)"><path d="M 264.4 2.0 L 264.4 65.5 " fill="none" stroke="#FEFFFE" stroke-opacity="0.50" stroke-width="1.00" transform="matrix(1.00, 0.00, 0.00, -1.00, -0.5, 321.3)"></path><path d="M 264.4 65.5 L 264.4 192.6 " fill="none" stroke="#FEFFFE" stroke-opacity="0.50" stroke-width="1.00" transform="matrix(1.00, 0.00, 0.00, -1.00, -0.5, 321.3)"></path><path d="M 389.3 2.0 L 389.3 65.5 " fill="none" stroke="#FEFFFE" stroke-opacity="0.50" stroke-width="1.00" transform="matrix(1.00, 0.00, 0.00, -1.00, -0.5, 321.3)"></path><path d="M 389.3 65.5 L 389.3 192.6 " fill="none" stroke="#FEFFFE" stroke-opacity="0.50" stroke-width="1.00" transform="matrix(1.00, 0.00, 0.00, -1.00, -0.5, 321.3)"></path><path d="M 514.3 2.0 L 514.3 192.6 " fill="none" stroke="#FEFFFE" stroke-opacity="0.50" stroke-width="4.00" transform="matrix(1.00, 0.00, 0.00, -1.00, -0.5, 321.3)"></path><path d="M 639.2 2.0 L 639.2 65.5 " fill="none" stroke="#FEFFFE" stroke-opacity="0.50" stroke-width="1.00" transform="matrix(1.00, 0.00, 0.00, -1.00, -0.5, 321.3)"></path><path d="M 639.2 65.5 L 639.2 192.6 " fill="none" stroke="#FEFFFE" stroke-opacity="0.50" stroke-width="1.00" transform="matrix(1.00, 0.00, 0.00, -1.00, -0.5, 321.3)"></path><path d="M 264.4 129.1 L 639.2 129.1 " fill="none" stroke="#FEFFFE" stroke-opacity="0.50" stroke-width="1.00" transform="matrix(1.00, 0.00, 0.00, -1.00, -0.5, 321.3)"></path><path d="M 264.4 192.6 L 639.2 192.6 " fill="none" stroke="#FEFFFE" stroke-opacity="0.50" stroke-width="1.00" transform="matrix(1.00, 0.00, 0.00, -1.00, -0.5, 321.3)"></path><path d="M 264.4 65.5 L 639.2 65.5 " fill="none" stroke="#FEFFFE" stroke-opacity="0.50" stroke-width="1.00" transform="matrix(1.00, 0.00, 0.00, -1.00, -0.5, 321.3)"></path><path d="M 264.4 2.0 L 639.2 2.0 " fill="none" stroke="#FEFFFE" stroke-opacity="0.50" stroke-width="1.00" transform="matrix(1.00, 0.00, 0.00, -1.00, -0.5, 321.3)"></path></g></g><g><clipPath id="clip-600"><path d="M 511.7 256.3 L 639.2 256.3 L 639.2 191.7 L 511.7 191.7 Z M 511.7 256.3 "></path></clipPath><g clip-path="url(#clip-600)"><path d="M 388.8 319.3 L 513.7 319.3 L 513.7 255.8 L 388.8 255.8 Z M 388.8 319.3 " fill="#869ABB"></path><path d="M 513.7 319.3 L 638.7 319.3 L 638.7 255.8 L 513.7 255.8 Z M 513.7 319.3 " fill="#869ABB"></path><path d="M 638.7 319.3 L 763.6 319.3 L 763.6 255.8 L 638.7 255.8 Z M 638.7 319.3 " fill="#869ABB"></path><path d="M 388.8 192.2 L 513.7 192.2 L 513.7 128.7 L 388.8 128.7 Z M 388.8 192.2 " fill="#000000" fill-opacity="0.25"></path><path d="M 513.7 192.2 L 638.7 192.2 L 638.7 128.7 L 513.7 128.7 Z M 513.7 192.2 " fill="#000000" fill-opacity="0.25"></path><path d="M 638.7 192.2 L 763.6 192.2 L 763.6 128.7 L 638.7 128.7 Z M 638.7 192.2 " fill="#000000" fill-opacity="0.25"></path></g></g><g><clipPath id="clip-601"><path d="M 511.7 256.3 L 639.2 256.3 L 639.2 191.7 L 511.7 191.7 Z M 511.7 256.3 "></path></clipPath><g clip-path="url(#clip-601)"><path d="M 389.3 2.0 L 389.3 65.5 " fill="none" stroke="#FEFFFE" stroke-opacity="0.50" stroke-width="1.00" transform="matrix(1.00, 0.00, 0.00, -1.00, -0.5, 321.3)"></path><path d="M 389.3 65.5 L 389.3 192.6 " fill="none" stroke="#FEFFFE" stroke-opacity="0.50" stroke-width="1.00" transform="matrix(1.00, 0.00, 0.00, -1.00, -0.5, 321.3)"></path><path d="M 514.3 2.0 L 514.3 192.6 " fill="none" stroke="#FEFFFE" stroke-opacity="0.50" stroke-width="4.00" transform="matrix(1.00, 0.00, 0.00, -1.00, -0.5, 321.3)"></path><path d="M 639.2 2.0 L 639.2 65.5 " fill="none" stroke="#FEFFFE" stroke-opacity="0.50" stroke-width="1.00" transform="matrix(1.00, 0.00, 0.00, -1.00, -0.5, 321.3)"></path><path d="M 639.2 65.5 L 639.2 192.6 " fill="none" stroke="#FEFFFE" stroke-opacity="0.50" stroke-width="1.00" transform="matrix(1.00, 0.00, 0.00, -1.00, -0.5, 321.3)"></path><path d="M 764.1 2.0 L 764.1 65.5 " fill="none" stroke="#FEFFFE" stroke-opacity="0.50" stroke-width="1.00" transform="matrix(1.00, 0.00, 0.00, -1.00, -0.5, 321.3)"></path><path d="M 764.1 65.5 L 764.1 192.6 " fill="none" stroke="#FEFFFE" stroke-opacity="0.50" stroke-width="1.00" transform="matrix(1.00, 0.00, 0.00, -1.00, -0.5, 321.3)"></path><path d="M 389.3 129.1 L 764.1 129.1 " fill="none" stroke="#FEFFFE" stroke-opacity="0.50" stroke-width="1.00" transform="matrix(1.00, 0.00, 0.00, -1.00, -0.5, 321.3)"></path><path d="M 389.3 192.6 L 764.1 192.6 " fill="none" stroke="#FEFFFE" stroke-opacity="0.50" stroke-width="1.00" transform="matrix(1.00, 0.00, 0.00, -1.00, -0.5, 321.3)"></path><path d="M 389.3 65.5 L 764.1 65.5 " fill="none" stroke="#FEFFFE" stroke-opacity="0.50" stroke-width="1.00" transform="matrix(1.00, 0.00, 0.00, -1.00, -0.5, 321.3)"></path><path d="M 389.3 2.0 L 764.1 2.0 " fill="none" stroke="#FEFFFE" stroke-opacity="0.50" stroke-width="1.00" transform="matrix(1.00, 0.00, 0.00, -1.00, -0.5, 321.3)"></path></g></g><g><clipPath id="clip-602"><path d="M 638.2 256.3 L 764.1 256.3 L 764.1 191.7 L 638.2 191.7 Z M 638.2 256.3 "></path></clipPath><g clip-path="url(#clip-602)"><path d="M 513.7 319.3 L 638.7 319.3 L 638.7 255.8 L 513.7 255.8 Z M 513.7 319.3 " fill="#869ABB"></path><path d="M 638.7 319.3 L 763.6 319.3 L 763.6 255.8 L 638.7 255.8 Z M 638.7 319.3 " fill="#869ABB"></path><path d="M 763.6 319.3 L 888.5 319.3 L 888.5 255.8 L 763.6 255.8 Z M 763.6 319.3 " fill="#869ABB"></path><path d="M 513.7 192.2 L 638.7 192.2 L 638.7 128.7 L 513.7 128.7 Z M 513.7 192.2 " fill="#000000" fill-opacity="0.25"></path><path d="M 638.7 192.2 L 763.6 192.2 L 763.6 128.7 L 638.7 128.7 Z M 638.7 192.2 " fill="#000000" fill-opacity="0.25"></path><path d="M 763.6 192.2 L 888.5 192.2 L 888.5 128.7 L 763.6 128.7 Z M 763.6 192.2 " fill="#000000" fill-opacity="0.25"></path></g></g><g><clipPath id="clip-603"><path d="M 638.2 256.3 L 764.1 256.3 L 764.1 191.7 L 638.2 191.7 Z M 638.2 256.3 "></path></clipPath><g clip-path="url(#clip-603)"><path d="M 514.3 2.0 L 514.3 192.6 " fill="none" stroke="#FEFFFE" stroke-opacity="0.50" stroke-width="4.00" transform="matrix(1.00, 0.00, 0.00, -1.00, -0.5, 321.3)"></path><path d="M 639.2 2.0 L 639.2 65.5 " fill="none" stroke="#FEFFFE" stroke-opacity="0.50" stroke-width="1.00" transform="matrix(1.00, 0.00, 0.00, -1.00, -0.5, 321.3)"></path><path d="M 639.2 65.5 L 639.2 192.6 " fill="none" stroke="#FEFFFE" stroke-opacity="0.50" stroke-width="1.00" transform="matrix(1.00, 0.00, 0.00, -1.00, -0.5, 321.3)"></path><path d="M 764.1 2.0 L 764.1 65.5 " fill="none" stroke="#FEFFFE" stroke-opacity="0.50" stroke-width="1.00" transform="matrix(1.00, 0.00, 0.00, -1.00, -0.5, 321.3)"></path><path d="M 764.1 65.5 L 764.1 192.6 " fill="none" stroke="#FEFFFE" stroke-opacity="0.50" stroke-width="1.00" transform="matrix(1.00, 0.00, 0.00, -1.00, -0.5, 321.3)"></path><path d="M 514.3 129.1 L 889.1 129.1 " fill="none" stroke="#FEFFFE" stroke-opacity="0.50" stroke-width="1.00" transform="matrix(1.00, 0.00, 0.00, -1.00, -0.5, 321.3)"></path><path d="M 514.3 192.6 L 889.1 192.6 " fill="none" stroke="#FEFFFE" stroke-opacity="0.50" stroke-width="1.00" transform="matrix(1.00, 0.00, 0.00, -1.00, -0.5, 321.3)"></path><path d="M 514.3 65.5 L 889.1 65.5 " fill="none" stroke="#FEFFFE" stroke-opacity="0.50" stroke-width="1.00" transform="matrix(1.00, 0.00, 0.00, -1.00, -0.5, 321.3)"></path><path d="M 889.1 2.0 L 889.1 65.5 " fill="none" stroke="#FEFFFE" stroke-opacity="0.50" stroke-width="1.00" transform="matrix(1.00, 0.00, 0.00, -1.00, -0.5, 321.3)"></path><path d="M 889.1 65.5 L 889.1 192.6 " fill="none" stroke="#FEFFFE" stroke-opacity="0.50" stroke-width="1.00" transform="matrix(1.00, 0.00, 0.00, -1.00, -0.5, 321.3)"></path><path d="M 514.3 2.0 L 889.1 2.0 " fill="none" stroke="#FEFFFE" stroke-opacity="0.50" stroke-width="1.00" transform="matrix(1.00, 0.00, 0.00, -1.00, -0.5, 321.3)"></path></g></g><g><clipPath id="clip-604"><path d="M 763.1 256.3 L 889.0 256.3 L 889.0 191.7 L 763.1 191.7 Z M 763.1 256.3 "></path></clipPath><g clip-path="url(#clip-604)"><path d="M 638.7 319.3 L 763.6 319.3 L 763.6 255.8 L 638.7 255.8 Z M 638.7 319.3 " fill="#869ABB"></path><path d="M 763.6 319.3 L 888.5 319.3 L 888.5 255.8 L 763.6 255.8 Z M 763.6 319.3 " fill="#869ABB"></path><path d="M 638.7 192.2 L 763.6 192.2 L 763.6 128.7 L 638.7 128.7 Z M 638.7 192.2 " fill="#000000" fill-opacity="0.25"></path><path d="M 763.6 192.2 L 888.5 192.2 L 888.5 128.7 L 763.6 128.7 Z M 763.6 192.2 " fill="#000000" fill-opacity="0.25"></path></g></g><g><clipPath id="clip-605"><path d="M 763.1 256.3 L 889.0 256.3 L 889.0 191.7 L 763.1 191.7 Z M 763.1 256.3 "></path></clipPath><g clip-path="url(#clip-605)"><path d="M 639.2 2.0 L 639.2 65.5 " fill="none" stroke="#FEFFFE" stroke-opacity="0.50" stroke-width="1.00" transform="matrix(1.00, 0.00, 0.00, -1.00, -0.5, 321.3)"></path><path d="M 639.2 65.5 L 639.2 192.6 " fill="none" stroke="#FEFFFE" stroke-opacity="0.50" stroke-width="1.00" transform="matrix(1.00, 0.00, 0.00, -1.00, -0.5, 321.3)"></path><path d="M 764.1 2.0 L 764.1 65.5 " fill="none" stroke="#FEFFFE" stroke-opacity="0.50" stroke-width="1.00" transform="matrix(1.00, 0.00, 0.00, -1.00, -0.5, 321.3)"></path><path d="M 764.1 65.5 L 764.1 192.6 " fill="none" stroke="#FEFFFE" stroke-opacity="0.50" stroke-width="1.00" transform="matrix(1.00, 0.00, 0.00, -1.00, -0.5, 321.3)"></path><path d="M 639.2 129.1 L 889.6 129.1 " fill="none" stroke="#FEFFFE" stroke-opacity="0.50" stroke-width="1.00" transform="matrix(1.00, 0.00, 0.00, -1.00, -0.5, 321.3)"></path><path d="M 639.2 192.6 L 889.1 192.6 " fill="none" stroke="#FEFFFE" stroke-opacity="0.50" stroke-width="1.00" transform="matrix(1.00, 0.00, 0.00, -1.00, -0.5, 321.3)"></path><path d="M 639.2 65.5 L 889.6 65.5 " fill="none" stroke="#FEFFFE" stroke-opacity="0.50" stroke-width="1.00" transform="matrix(1.00, 0.00, 0.00, -1.00, -0.5, 321.3)"></path><path d="M 889.1 2.0 L 889.1 65.5 " fill="none" stroke="#FEFFFE" stroke-opacity="0.50" stroke-width="1.00" transform="matrix(1.00, 0.00, 0.00, -1.00, -0.5, 321.3)"></path><path d="M 889.1 65.5 L 889.1 192.6 " fill="none" stroke="#FEFFFE" stroke-opacity="0.50" stroke-width="1.00" transform="matrix(1.00, 0.00, 0.00, -1.00, -0.5, 321.3)"></path><path d="M 639.2 2.0 L 889.1 2.0 " fill="none" stroke="#FEFFFE" stroke-opacity="0.50" stroke-width="1.00" transform="matrix(1.00, 0.00, 0.00, -1.00, -0.5, 321.3)"></path></g></g><g><clipPath id="clip-606"><path d="M 1.0 192.7 L 140.9 192.7 L 140.9 128.2 L 1.0 128.2 Z M 1.0 192.7 "></path></clipPath><g clip-path="url(#clip-606)"><path d="M 1.5 255.8 L 138.9 255.8 L 138.9 192.2 L 1.5 192.2 Z M 1.5 255.8 " fill="#869ABB"></path><path d="M 1.5 192.2 L 138.9 192.2 L 138.9 128.7 L 1.5 128.7 Z M 1.5 192.2 " fill="#869ABB"></path><path d="M 138.9 192.2 L 263.8 192.2 L 263.8 128.7 L 138.9 128.7 Z M 138.9 192.2 " fill="#000000" fill-opacity="0.25"></path><path d="M 1.5 128.7 L 138.9 128.7 L 138.9 65.1 L 1.5 65.1 Z M 1.5 128.7 " fill="#869ABB"></path></g></g><image xlink:href="../../D55510CF-6CC6-4C3C-BC8C-B86DBACA13BB/assets/875A8F241C0F7A91D2CAF272CA20BAC7.png" width="131.00" height="33.00" transform="matrix(1.00, 0.00, -0.00, -1.00, 6.0, 171.0)"></image><g><clipPath id="clip-607"><path d="M 1.0 192.7 L 140.9 192.7 L 140.9 128.2 L 1.0 128.2 Z M 1.0 192.7 "></path></clipPath><g clip-path="url(#clip-607)"><g><clipPath id="clip-608"><path d="M 2.0 129.2 L 136.9 129.2 L 136.9 191.7 L 2.0 191.7 Z M 2.0 129.2 "></path></clipPath><g clip-path="url(#clip-608)"><text xml:space="preserve" font-family="Chalkduster" font-size="16.0" fill="#FEFFFE" transform="matrix(1.00, 0.00, -0.00, -1.00, 10.4, 152.5)">m</text><text xml:space="preserve" font-family="Chalkduster" font-size="16.0" fill="#FEFFFE" transform="matrix(1.00, 0.00, -0.00, -1.00, 27.1, 152.5)">m</text><text xml:space="preserve" font-family="Chalkduster" font-size="16.0" fill="#FEFFFE" transform="matrix(1.00, 0.00, -0.00, -1.00, 43.3, 152.5)">2</text><text xml:space="preserve" font-family="Chalkduster" font-size="16.0" fill="#FEFFFE" transform="matrix(1.00, 0.00, -0.00, -1.00, 52.3, 152.5)">-</text><text xml:space="preserve" font-family="Chalkduster" font-size="16.0" fill="#FEFFFE" transform="matrix(1.00, 0.00, -0.00, -1.00, 62.0, 152.5)">e</text><text xml:space="preserve" font-family="Chalkduster" font-size="16.0" fill="#FEFFFE" transform="matrix(1.00, 0.00, -0.00, -1.00, 72.1, 152.5)">p</text><text xml:space="preserve" font-family="Chalkduster" font-size="16.0" fill="#FEFFFE" transform="matrix(1.00, 0.00, -0.00, -1.00, 82.2, 152.5)">o</text><text xml:space="preserve" font-family="Chalkduster" font-size="16.0" fill="#FEFFFE" transform="matrix(1.00, 0.00, -0.00, -1.00, 94.2, 152.5)">u</text><text xml:space="preserve" font-family="Chalkduster" font-size="16.0" fill="#FEFFFE" transform="matrix(1.00, 0.00, -0.00, -1.00, 105.0, 152.5)">t</text><text xml:space="preserve" font-family="Chalkduster" font-size="16.0" fill="#FEFFFE" transform="matrix(1.00, 0.00, -0.00, -1.00, 112.2, 152.5)">a</text><text xml:space="preserve" font-family="Chalkduster" font-size="16.0" fill="#FEFFFE" transform="matrix(1.00, 0.00, -0.00, -1.00, 123.2, 152.5)">1</text></g></g></g></g><g><clipPath id="clip-609"><path d="M 1.0 192.7 L 140.9 192.7 L 140.9 128.2 L 1.0 128.2 Z M 1.0 192.7 "></path></clipPath><g clip-path="url(#clip-609)"><path d="M 264.4 65.5 L 264.4 256.2 " fill="none" stroke="#FEFFFE" stroke-opacity="0.50" stroke-width="1.00" transform="matrix(1.00, 0.00, 0.00, -1.00, -0.5, 321.3)"></path><path d="M 1.5 129.1 L 139.4 129.1 " fill="none" stroke="#FEFFFE" stroke-opacity="0.50" stroke-width="1.00" transform="matrix(1.00, 0.00, 0.00, -1.00, -0.5, 321.3)"></path><path d="M 139.4 129.1 L 264.4 129.1 " fill="none" stroke="#FEFFFE" stroke-opacity="0.50" stroke-width="1.00" transform="matrix(1.00, 0.00, 0.00, -1.00, -0.5, 321.3)"></path><path d="M 1.5 192.6 L 139.4 192.6 " fill="none" stroke="#FEFFFE" stroke-opacity="0.50" stroke-width="1.00" transform="matrix(1.00, 0.00, 0.00, -1.00, -0.5, 321.3)"></path><path d="M 139.4 192.6 L 264.4 192.6 " fill="none" stroke="#FEFFFE" stroke-opacity="0.50" stroke-width="1.00" transform="matrix(1.00, 0.00, 0.00, -1.00, -0.5, 321.3)"></path><path d="M 2.0 256.2 L 139.4 256.2 " fill="none" stroke="#FEFFFE" stroke-opacity="0.50" stroke-width="1.00" transform="matrix(1.00, 0.00, 0.00, -1.00, -0.5, 321.3)"></path><path d="M 139.4 256.2 L 264.4 256.2 " fill="none" stroke="#FEFFFE" stroke-opacity="0.50" stroke-width="1.00" transform="matrix(1.00, 0.00, 0.00, -1.00, -0.5, 321.3)"></path><path d="M 139.4 65.5 L 139.4 256.2 " fill="none" stroke="#FEFFFE" stroke-opacity="0.50" stroke-width="4.00" transform="matrix(1.00, 0.00, 0.00, -1.00, -0.5, 321.3)"></path><path d="M 2.0 65.5 L 264.4 65.5 " fill="none" stroke="#FEFFFE" stroke-opacity="0.50" stroke-width="1.00" transform="matrix(1.00, 0.00, 0.00, -1.00, -0.5, 321.3)"></path><path d="M 2.0 65.5 L 2.0 256.2 " fill="none" stroke="#FEFFFE" stroke-opacity="0.50" stroke-width="1.00" transform="matrix(1.00, 0.00, 0.00, -1.00, -0.5, 321.3)"></path></g></g><g><clipPath id="clip-610"><path d="M 136.9 192.7 L 264.3 192.7 L 264.3 128.2 L 136.9 128.2 Z M 136.9 192.7 "></path></clipPath><g clip-path="url(#clip-610)"><path d="M 1.5 255.8 L 138.9 255.8 L 138.9 192.2 L 1.5 192.2 Z M 1.5 255.8 " fill="#869ABB"></path><path d="M 1.5 192.2 L 138.9 192.2 L 138.9 128.7 L 1.5 128.7 Z M 1.5 192.2 " fill="#869ABB"></path><path d="M 138.9 192.2 L 263.8 192.2 L 263.8 128.7 L 138.9 128.7 Z M 138.9 192.2 " fill="#000000" fill-opacity="0.25"></path><path d="M 263.8 192.2 L 388.8 192.2 L 388.8 128.7 L 263.8 128.7 Z M 263.8 192.2 " fill="#000000" fill-opacity="0.25"></path><path d="M 1.5 128.7 L 138.9 128.7 L 138.9 65.1 L 1.5 65.1 Z M 1.5 128.7 " fill="#869ABB"></path></g></g><image xlink:href="../../D55510CF-6CC6-4C3C-BC8C-B86DBACA13BB/assets/5CF07A188BC6F9A92C473C7CB6E206F3.png" width="18.00" height="23.00" transform="matrix(1.00, 0.00, -0.00, -1.00, 193.0, 169.0)"></image><g><clipPath id="clip-611"><path d="M 136.9 192.7 L 264.3 192.7 L 264.3 128.2 L 136.9 128.2 Z M 136.9 192.7 "></path></clipPath><g clip-path="url(#clip-611)"><g><clipPath id="clip-612"><path d="M 140.9 129.2 L 263.3 129.2 L 263.3 191.7 L 140.9 191.7 Z M 140.9 129.2 "></path></clipPath><g clip-path="url(#clip-612)"><text xml:space="preserve" font-family="Chalkduster" font-size="16.0" fill="#FEFFFE" transform="matrix(1.00, 0.00, -0.00, -1.00, 197.0, 152.0)">1</text></g></g></g></g><g><clipPath id="clip-613"><path d="M 136.9 192.7 L 264.3 192.7 L 264.3 128.2 L 136.9 128.2 Z M 136.9 192.7 "></path></clipPath><g clip-path="url(#clip-613)"><path d="M 264.4 65.5 L 264.4 256.2 " fill="none" stroke="#FEFFFE" stroke-opacity="0.50" stroke-width="1.00" transform="matrix(1.00, 0.00, 0.00, -1.00, -0.5, 321.3)"></path><path d="M 389.3 65.5 L 389.3 256.2 " fill="none" stroke="#FEFFFE" stroke-opacity="0.50" stroke-width="1.00" transform="matrix(1.00, 0.00, 0.00, -1.00, -0.5, 321.3)"></path><path d="M 2.0 129.1 L 139.4 129.1 " fill="none" stroke="#FEFFFE" stroke-opacity="0.50" stroke-width="1.00" transform="matrix(1.00, 0.00, 0.00, -1.00, -0.5, 321.3)"></path><path d="M 139.4 129.1 L 389.3 129.1 " fill="none" stroke="#FEFFFE" stroke-opacity="0.50" stroke-width="1.00" transform="matrix(1.00, 0.00, 0.00, -1.00, -0.5, 321.3)"></path><path d="M 2.0 192.6 L 139.4 192.6 " fill="none" stroke="#FEFFFE" stroke-opacity="0.50" stroke-width="1.00" transform="matrix(1.00, 0.00, 0.00, -1.00, -0.5, 321.3)"></path><path d="M 139.4 192.6 L 389.3 192.6 " fill="none" stroke="#FEFFFE" stroke-opacity="0.50" stroke-width="1.00" transform="matrix(1.00, 0.00, 0.00, -1.00, -0.5, 321.3)"></path><path d="M 2.0 256.2 L 139.4 256.2 " fill="none" stroke="#FEFFFE" stroke-opacity="0.50" stroke-width="1.00" transform="matrix(1.00, 0.00, 0.00, -1.00, -0.5, 321.3)"></path><path d="M 139.4 256.2 L 389.3 256.2 " fill="none" stroke="#FEFFFE" stroke-opacity="0.50" stroke-width="1.00" transform="matrix(1.00, 0.00, 0.00, -1.00, -0.5, 321.3)"></path><path d="M 139.4 65.5 L 139.4 256.2 " fill="none" stroke="#FEFFFE" stroke-opacity="0.50" stroke-width="4.00" transform="matrix(1.00, 0.00, 0.00, -1.00, -0.5, 321.3)"></path><path d="M 2.0 65.5 L 389.3 65.5 " fill="none" stroke="#FEFFFE" stroke-opacity="0.50" stroke-width="1.00" transform="matrix(1.00, 0.00, 0.00, -1.00, -0.5, 321.3)"></path><path d="M 2.0 65.5 L 2.0 256.2 " fill="none" stroke="#FEFFFE" stroke-opacity="0.50" stroke-width="1.00" transform="matrix(1.00, 0.00, 0.00, -1.00, -0.5, 321.3)"></path></g></g><g><clipPath id="clip-614"><path d="M 263.3 192.7 L 389.3 192.7 L 389.3 128.2 L 263.3 128.2 Z M 263.3 192.7 "></path></clipPath><g clip-path="url(#clip-614)"><path d="M 138.9 192.2 L 263.8 192.2 L 263.8 128.7 L 138.9 128.7 Z M 138.9 192.2 " fill="#000000" fill-opacity="0.25"></path><path d="M 263.8 192.2 L 388.8 192.2 L 388.8 128.7 L 263.8 128.7 Z M 263.8 192.2 " fill="#000000" fill-opacity="0.25"></path><path d="M 388.8 192.2 L 513.7 192.2 L 513.7 128.7 L 388.8 128.7 Z M 388.8 192.2 " fill="#000000" fill-opacity="0.25"></path></g></g><image xlink:href="../../D55510CF-6CC6-4C3C-BC8C-B86DBACA13BB/assets/0AC42A1088C98091ED1F4E6A1EB35E36.png" width="19.00" height="23.00" transform="matrix(1.00, 0.00, -0.00, -1.00, 317.0, 169.0)"></image><g><clipPath id="clip-615"><path d="M 263.3 192.7 L 389.3 192.7 L 389.3 128.2 L 263.3 128.2 Z M 263.3 192.7 "></path></clipPath><g clip-path="url(#clip-615)"><g><clipPath id="clip-616"><path d="M 264.3 129.2 L 388.3 129.2 L 388.3 191.7 L 264.3 191.7 Z M 264.3 129.2 "></path></clipPath><g clip-path="url(#clip-616)"><text xml:space="preserve" font-family="Chalkduster" font-size="16.0" fill="#FEFFFE" transform="matrix(1.00, 0.00, -0.00, -1.00, 322.0, 152.0)">2</text></g></g></g></g><g><clipPath id="clip-617"><path d="M 263.3 192.7 L 389.3 192.7 L 389.3 128.2 L 263.3 128.2 Z M 263.3 192.7 "></path></clipPath><g clip-path="url(#clip-617)"><path d="M 264.4 65.5 L 264.4 256.2 " fill="none" stroke="#FEFFFE" stroke-opacity="0.50" stroke-width="1.00" transform="matrix(1.00, 0.00, 0.00, -1.00, -0.5, 321.3)"></path><path d="M 389.3 65.5 L 389.3 256.2 " fill="none" stroke="#FEFFFE" stroke-opacity="0.50" stroke-width="1.00" transform="matrix(1.00, 0.00, 0.00, -1.00, -0.5, 321.3)"></path><path d="M 514.3 65.5 L 514.3 256.2 " fill="none" stroke="#FEFFFE" stroke-opacity="0.50" stroke-width="4.00" transform="matrix(1.00, 0.00, 0.00, -1.00, -0.5, 321.3)"></path><path d="M 139.4 129.1 L 514.3 129.1 " fill="none" stroke="#FEFFFE" stroke-opacity="0.50" stroke-width="1.00" transform="matrix(1.00, 0.00, 0.00, -1.00, -0.5, 321.3)"></path><path d="M 139.4 192.6 L 514.3 192.6 " fill="none" stroke="#FEFFFE" stroke-opacity="0.50" stroke-width="1.00" transform="matrix(1.00, 0.00, 0.00, -1.00, -0.5, 321.3)"></path><path d="M 139.4 256.2 L 514.3 256.2 " fill="none" stroke="#FEFFFE" stroke-opacity="0.50" stroke-width="1.00" transform="matrix(1.00, 0.00, 0.00, -1.00, -0.5, 321.3)"></path><path d="M 139.4 65.5 L 139.4 256.2 " fill="none" stroke="#FEFFFE" stroke-opacity="0.50" stroke-width="4.00" transform="matrix(1.00, 0.00, 0.00, -1.00, -0.5, 321.3)"></path><path d="M 139.4 65.5 L 514.3 65.5 " fill="none" stroke="#FEFFFE" stroke-opacity="0.50" stroke-width="1.00" transform="matrix(1.00, 0.00, 0.00, -1.00, -0.5, 321.3)"></path></g></g><g><clipPath id="clip-618"><path d="M 388.3 192.7 L 515.7 192.7 L 515.7 128.2 L 388.3 128.2 Z M 388.3 192.7 "></path></clipPath><g clip-path="url(#clip-618)"><path d="M 263.8 192.2 L 388.8 192.2 L 388.8 128.7 L 263.8 128.7 Z M 263.8 192.2 " fill="#000000" fill-opacity="0.25"></path><path d="M 388.8 192.2 L 513.7 192.2 L 513.7 128.7 L 388.8 128.7 Z M 388.8 192.2 " fill="#000000" fill-opacity="0.25"></path><path d="M 513.7 192.2 L 638.7 192.2 L 638.7 128.7 L 513.7 128.7 Z M 513.7 192.2 " fill="#000000" fill-opacity="0.25"></path></g></g><g><clipPath id="clip-619"><path d="M 388.3 192.7 L 515.7 192.7 L 515.7 128.2 L 388.3 128.2 Z M 388.3 192.7 "></path></clipPath><g clip-path="url(#clip-619)"><path d="M 264.4 65.5 L 264.4 256.2 " fill="none" stroke="#FEFFFE" stroke-opacity="0.50" stroke-width="1.00" transform="matrix(1.00, 0.00, 0.00, -1.00, -0.5, 321.3)"></path><path d="M 389.3 65.5 L 389.3 256.2 " fill="none" stroke="#FEFFFE" stroke-opacity="0.50" stroke-width="1.00" transform="matrix(1.00, 0.00, 0.00, -1.00, -0.5, 321.3)"></path><path d="M 514.3 65.5 L 514.3 256.2 " fill="none" stroke="#FEFFFE" stroke-opacity="0.50" stroke-width="4.00" transform="matrix(1.00, 0.00, 0.00, -1.00, -0.5, 321.3)"></path><path d="M 639.2 65.5 L 639.2 256.2 " fill="none" stroke="#FEFFFE" stroke-opacity="0.50" stroke-width="1.00" transform="matrix(1.00, 0.00, 0.00, -1.00, -0.5, 321.3)"></path><path d="M 264.4 129.1 L 639.2 129.1 " fill="none" stroke="#FEFFFE" stroke-opacity="0.50" stroke-width="1.00" transform="matrix(1.00, 0.00, 0.00, -1.00, -0.5, 321.3)"></path><path d="M 264.4 192.6 L 639.2 192.6 " fill="none" stroke="#FEFFFE" stroke-opacity="0.50" stroke-width="1.00" transform="matrix(1.00, 0.00, 0.00, -1.00, -0.5, 321.3)"></path><path d="M 264.4 256.2 L 639.2 256.2 " fill="none" stroke="#FEFFFE" stroke-opacity="0.50" stroke-width="1.00" transform="matrix(1.00, 0.00, 0.00, -1.00, -0.5, 321.3)"></path><path d="M 264.4 65.5 L 639.2 65.5 " fill="none" stroke="#FEFFFE" stroke-opacity="0.50" stroke-width="1.00" transform="matrix(1.00, 0.00, 0.00, -1.00, -0.5, 321.3)"></path></g></g><g><clipPath id="clip-620"><path d="M 511.7 192.7 L 639.2 192.7 L 639.2 128.2 L 511.7 128.2 Z M 511.7 192.7 "></path></clipPath><g clip-path="url(#clip-620)"><path d="M 388.8 192.2 L 513.7 192.2 L 513.7 128.7 L 388.8 128.7 Z M 388.8 192.2 " fill="#000000" fill-opacity="0.25"></path><path d="M 513.7 192.2 L 638.7 192.2 L 638.7 128.7 L 513.7 128.7 Z M 513.7 192.2 " fill="#000000" fill-opacity="0.25"></path><path d="M 638.7 192.2 L 763.6 192.2 L 763.6 128.7 L 638.7 128.7 Z M 638.7 192.2 " fill="#000000" fill-opacity="0.25"></path></g></g><image xlink:href="../../D55510CF-6CC6-4C3C-BC8C-B86DBACA13BB/assets/1736D47D1B2025C47B146D19CEF54500.png" width="21.00" height="23.00" transform="matrix(1.00, 0.00, -0.00, -1.00, 566.0, 169.0)"></image><g><clipPath id="clip-621"><path d="M 511.7 192.7 L 639.2 192.7 L 639.2 128.2 L 511.7 128.2 Z M 511.7 192.7 "></path></clipPath><g clip-path="url(#clip-621)"><g><clipPath id="clip-622"><path d="M 515.7 129.2 L 638.2 129.2 L 638.2 191.7 L 515.7 191.7 Z M 515.7 129.2 "></path></clipPath><g clip-path="url(#clip-622)"><text xml:space="preserve" font-family="Chalkduster" font-size="16.0" fill="#FEFFFE" transform="matrix(1.00, 0.00, -0.00, -1.00, 571.0, 152.0)">3</text></g></g></g></g><g><clipPath id="clip-623"><path d="M 511.7 192.7 L 639.2 192.7 L 639.2 128.2 L 511.7 128.2 Z M 511.7 192.7 "></path></clipPath><g clip-path="url(#clip-623)"><path d="M 389.3 65.5 L 389.3 256.2 " fill="none" stroke="#FEFFFE" stroke-opacity="0.50" stroke-width="1.00" transform="matrix(1.00, 0.00, 0.00, -1.00, -0.5, 321.3)"></path><path d="M 514.3 65.5 L 514.3 256.2 " fill="none" stroke="#FEFFFE" stroke-opacity="0.50" stroke-width="4.00" transform="matrix(1.00, 0.00, 0.00, -1.00, -0.5, 321.3)"></path><path d="M 639.2 65.5 L 639.2 256.2 " fill="none" stroke="#FEFFFE" stroke-opacity="0.50" stroke-width="1.00" transform="matrix(1.00, 0.00, 0.00, -1.00, -0.5, 321.3)"></path><path d="M 764.1 65.5 L 764.1 256.2 " fill="none" stroke="#FEFFFE" stroke-opacity="0.50" stroke-width="1.00" transform="matrix(1.00, 0.00, 0.00, -1.00, -0.5, 321.3)"></path><path d="M 389.3 129.1 L 764.1 129.1 " fill="none" stroke="#FEFFFE" stroke-opacity="0.50" stroke-width="1.00" transform="matrix(1.00, 0.00, 0.00, -1.00, -0.5, 321.3)"></path><path d="M 389.3 192.6 L 764.1 192.6 " fill="none" stroke="#FEFFFE" stroke-opacity="0.50" stroke-width="1.00" transform="matrix(1.00, 0.00, 0.00, -1.00, -0.5, 321.3)"></path><path d="M 389.3 256.2 L 764.1 256.2 " fill="none" stroke="#FEFFFE" stroke-opacity="0.50" stroke-width="1.00" transform="matrix(1.00, 0.00, 0.00, -1.00, -0.5, 321.3)"></path><path d="M 389.3 65.5 L 764.1 65.5 " fill="none" stroke="#FEFFFE" stroke-opacity="0.50" stroke-width="1.00" transform="matrix(1.00, 0.00, 0.00, -1.00, -0.5, 321.3)"></path></g></g><g><clipPath id="clip-624"><path d="M 638.2 192.7 L 764.1 192.7 L 764.1 128.2 L 638.2 128.2 Z M 638.2 192.7 "></path></clipPath><g clip-path="url(#clip-624)"><path d="M 513.7 192.2 L 638.7 192.2 L 638.7 128.7 L 513.7 128.7 Z M 513.7 192.2 " fill="#000000" fill-opacity="0.25"></path><path d="M 638.7 192.2 L 763.6 192.2 L 763.6 128.7 L 638.7 128.7 Z M 638.7 192.2 " fill="#000000" fill-opacity="0.25"></path><path d="M 763.6 192.2 L 888.5 192.2 L 888.5 128.7 L 763.6 128.7 Z M 763.6 192.2 " fill="#000000" fill-opacity="0.25"></path></g></g><g><clipPath id="clip-625"><path d="M 638.2 192.7 L 764.1 192.7 L 764.1 128.2 L 638.2 128.2 Z M 638.2 192.7 "></path></clipPath><g clip-path="url(#clip-625)"><path d="M 514.3 65.5 L 514.3 256.2 " fill="none" stroke="#FEFFFE" stroke-opacity="0.50" stroke-width="4.00" transform="matrix(1.00, 0.00, 0.00, -1.00, -0.5, 321.3)"></path><path d="M 639.2 65.5 L 639.2 256.2 " fill="none" stroke="#FEFFFE" stroke-opacity="0.50" stroke-width="1.00" transform="matrix(1.00, 0.00, 0.00, -1.00, -0.5, 321.3)"></path><path d="M 764.1 65.5 L 764.1 256.2 " fill="none" stroke="#FEFFFE" stroke-opacity="0.50" stroke-width="1.00" transform="matrix(1.00, 0.00, 0.00, -1.00, -0.5, 321.3)"></path><path d="M 514.3 129.1 L 889.1 129.1 " fill="none" stroke="#FEFFFE" stroke-opacity="0.50" stroke-width="1.00" transform="matrix(1.00, 0.00, 0.00, -1.00, -0.5, 321.3)"></path><path d="M 514.3 192.6 L 889.1 192.6 " fill="none" stroke="#FEFFFE" stroke-opacity="0.50" stroke-width="1.00" transform="matrix(1.00, 0.00, 0.00, -1.00, -0.5, 321.3)"></path><path d="M 514.3 256.2 L 889.1 256.2 " fill="none" stroke="#FEFFFE" stroke-opacity="0.50" stroke-width="1.00" transform="matrix(1.00, 0.00, 0.00, -1.00, -0.5, 321.3)"></path><path d="M 514.3 65.5 L 889.1 65.5 " fill="none" stroke="#FEFFFE" stroke-opacity="0.50" stroke-width="1.00" transform="matrix(1.00, 0.00, 0.00, -1.00, -0.5, 321.3)"></path><path d="M 889.1 65.5 L 889.1 256.2 " fill="none" stroke="#FEFFFE" stroke-opacity="0.50" stroke-width="1.00" transform="matrix(1.00, 0.00, 0.00, -1.00, -0.5, 321.3)"></path></g></g><g><clipPath id="clip-626"><path d="M 763.1 192.7 L 889.0 192.7 L 889.0 128.2 L 763.1 128.2 Z M 763.1 192.7 "></path></clipPath><g clip-path="url(#clip-626)"><path d="M 638.7 192.2 L 763.6 192.2 L 763.6 128.7 L 638.7 128.7 Z M 638.7 192.2 " fill="#000000" fill-opacity="0.25"></path><path d="M 763.6 192.2 L 888.5 192.2 L 888.5 128.7 L 763.6 128.7 Z M 763.6 192.2 " fill="#000000" fill-opacity="0.25"></path></g></g><g><clipPath id="clip-627"><path d="M 763.1 192.7 L 889.0 192.7 L 889.0 128.2 L 763.1 128.2 Z M 763.1 192.7 "></path></clipPath><g clip-path="url(#clip-627)"><path d="M 639.2 65.5 L 639.2 256.2 " fill="none" stroke="#FEFFFE" stroke-opacity="0.50" stroke-width="1.00" transform="matrix(1.00, 0.00, 0.00, -1.00, -0.5, 321.3)"></path><path d="M 764.1 65.5 L 764.1 256.2 " fill="none" stroke="#FEFFFE" stroke-opacity="0.50" stroke-width="1.00" transform="matrix(1.00, 0.00, 0.00, -1.00, -0.5, 321.3)"></path><path d="M 639.2 129.1 L 889.6 129.1 " fill="none" stroke="#FEFFFE" stroke-opacity="0.50" stroke-width="1.00" transform="matrix(1.00, 0.00, 0.00, -1.00, -0.5, 321.3)"></path><path d="M 639.2 192.6 L 889.6 192.6 " fill="none" stroke="#FEFFFE" stroke-opacity="0.50" stroke-width="1.00" transform="matrix(1.00, 0.00, 0.00, -1.00, -0.5, 321.3)"></path><path d="M 639.2 256.2 L 889.1 256.2 " fill="none" stroke="#FEFFFE" stroke-opacity="0.50" stroke-width="1.00" transform="matrix(1.00, 0.00, 0.00, -1.00, -0.5, 321.3)"></path><path d="M 639.2 65.5 L 889.1 65.5 " fill="none" stroke="#FEFFFE" stroke-opacity="0.50" stroke-width="1.00" transform="matrix(1.00, 0.00, 0.00, -1.00, -0.5, 321.3)"></path><path d="M 889.1 65.5 L 889.1 256.2 " fill="none" stroke="#FEFFFE" stroke-opacity="0.50" stroke-width="1.00" transform="matrix(1.00, 0.00, 0.00, -1.00, -0.5, 321.3)"></path></g></g><g><clipPath id="clip-628"><path d="M 1.0 129.2 L 140.9 129.2 L 140.9 64.6 L 1.0 64.6 Z M 1.0 129.2 "></path></clipPath><g clip-path="url(#clip-628)"><path d="M 1.5 192.2 L 138.9 192.2 L 138.9 128.7 L 1.5 128.7 Z M 1.5 192.2 " fill="#869ABB"></path><path d="M 138.9 192.2 L 263.8 192.2 L 263.8 128.7 L 138.9 128.7 Z M 138.9 192.2 " fill="#000000" fill-opacity="0.25"></path><path d="M 1.5 128.7 L 138.9 128.7 L 138.9 65.1 L 1.5 65.1 Z M 1.5 128.7 " fill="#869ABB"></path><path d="M 1.5 65.1 L 138.9 65.1 L 138.9 1.6 L 1.5 1.6 Z M 1.5 65.1 " fill="#869ABB"></path><path d="M 138.9 65.1 L 263.8 65.1 L 263.8 1.6 L 138.9 1.6 Z M 138.9 65.1 " fill="#000000" fill-opacity="0.25"></path></g></g><image xlink:href="../../D55510CF-6CC6-4C3C-BC8C-B86DBACA13BB/assets/7C3A28424DEE7ABE77AE9183580037A4.png" width="131.00" height="32.00" transform="matrix(1.00, 0.00, -0.00, -1.00, 6.0, 107.0)"></image><g><clipPath id="clip-629"><path d="M 1.0 129.2 L 140.9 129.2 L 140.9 64.6 L 1.0 64.6 Z M 1.0 129.2 "></path></clipPath><g clip-path="url(#clip-629)"><g><clipPath id="clip-630"><path d="M 2.0 65.6 L 136.9 65.6 L 136.9 128.2 L 2.0 128.2 Z M 2.0 65.6 "></path></clipPath><g clip-path="url(#clip-630)"><text xml:space="preserve" font-family="Chalkduster" font-size="16.0" fill="#FEFFFE" transform="matrix(1.00, 0.00, -0.00, -1.00, 10.4, 88.9)">m</text><text xml:space="preserve" font-family="Chalkduster" font-size="16.0" fill="#FEFFFE" transform="matrix(1.00, 0.00, -0.00, -1.00, 27.1, 88.9)">m</text><text xml:space="preserve" font-family="Chalkduster" font-size="16.0" fill="#FEFFFE" transform="matrix(1.00, 0.00, -0.00, -1.00, 43.3, 88.9)">1</text><text xml:space="preserve" font-family="Chalkduster" font-size="16.0" fill="#FEFFFE" transform="matrix(1.00, 0.00, -0.00, -1.00, 53.0, 88.9)">-</text><text xml:space="preserve" font-family="Chalkduster" font-size="16.0" fill="#FEFFFE" transform="matrix(1.00, 0.00, -0.00, -1.00, 62.6, 88.9)">e</text><text xml:space="preserve" font-family="Chalkduster" font-size="16.0" fill="#FEFFFE" transform="matrix(1.00, 0.00, -0.00, -1.00, 72.8, 88.9)">p</text><text xml:space="preserve" font-family="Chalkduster" font-size="16.0" fill="#FEFFFE" transform="matrix(1.00, 0.00, -0.00, -1.00, 82.9, 88.9)">o</text><text xml:space="preserve" font-family="Chalkduster" font-size="16.0" fill="#FEFFFE" transform="matrix(1.00, 0.00, -0.00, -1.00, 94.9, 88.9)">u</text><text xml:space="preserve" font-family="Chalkduster" font-size="16.0" fill="#FEFFFE" transform="matrix(1.00, 0.00, -0.00, -1.00, 105.7, 88.9)">t</text><text xml:space="preserve" font-family="Chalkduster" font-size="16.0" fill="#FEFFFE" transform="matrix(1.00, 0.00, -0.00, -1.00, 112.9, 88.9)">a</text><text xml:space="preserve" font-family="Chalkduster" font-size="16.0" fill="#FEFFFE" transform="matrix(1.00, 0.00, -0.00, -1.00, 123.9, 88.9)">2</text></g></g></g></g><g><clipPath id="clip-631"><path d="M 1.0 129.2 L 140.9 129.2 L 140.9 64.6 L 1.0 64.6 Z M 1.0 129.2 "></path></clipPath><g clip-path="url(#clip-631)"><path d="M 264.4 129.1 L 264.4 319.7 " fill="none" stroke="#FEFFFE" stroke-opacity="0.50" stroke-width="1.00" transform="matrix(1.00, 0.00, 0.00, -1.00, -0.5, 321.3)"></path><path d="M 2.0 129.1 L 139.4 129.1 " fill="none" stroke="#FEFFFE" stroke-opacity="0.50" stroke-width="1.00" transform="matrix(1.00, 0.00, 0.00, -1.00, -0.5, 321.3)"></path><path d="M 139.4 129.1 L 264.4 129.1 " fill="none" stroke="#FEFFFE" stroke-opacity="0.50" stroke-width="1.00" transform="matrix(1.00, 0.00, 0.00, -1.00, -0.5, 321.3)"></path><path d="M 1.5 192.6 L 139.4 192.6 " fill="none" stroke="#FEFFFE" stroke-opacity="0.50" stroke-width="1.00" transform="matrix(1.00, 0.00, 0.00, -1.00, -0.5, 321.3)"></path><path d="M 139.4 192.6 L 264.4 192.6 " fill="none" stroke="#FEFFFE" stroke-opacity="0.50" stroke-width="1.00" transform="matrix(1.00, 0.00, 0.00, -1.00, -0.5, 321.3)"></path><path d="M 1.5 256.2 L 139.4 256.2 " fill="none" stroke="#FEFFFE" stroke-opacity="0.50" stroke-width="1.00" transform="matrix(1.00, 0.00, 0.00, -1.00, -0.5, 321.3)"></path><path d="M 139.4 256.2 L 264.4 256.2 " fill="none" stroke="#FEFFFE" stroke-opacity="0.50" stroke-width="1.00" transform="matrix(1.00, 0.00, 0.00, -1.00, -0.5, 321.3)"></path><path d="M 139.4 129.1 L 139.4 319.7 " fill="none" stroke="#FEFFFE" stroke-opacity="0.50" stroke-width="4.00" transform="matrix(1.00, 0.00, 0.00, -1.00, -0.5, 321.3)"></path><path d="M 2.0 129.1 L 2.0 319.7 " fill="none" stroke="#FEFFFE" stroke-opacity="0.50" stroke-width="1.00" transform="matrix(1.00, 0.00, 0.00, -1.00, -0.5, 321.3)"></path><path d="M 2.0 319.7 L 139.4 319.7 " fill="none" stroke="#FEFFFE" stroke-opacity="0.50" stroke-width="1.00" transform="matrix(1.00, 0.00, 0.00, -1.00, -0.5, 321.3)"></path><path d="M 139.4 319.7 L 264.4 319.7 " fill="none" stroke="#FEFFFE" stroke-opacity="0.50" stroke-width="1.00" transform="matrix(1.00, 0.00, 0.00, -1.00, -0.5, 321.3)"></path></g></g><g><clipPath id="clip-632"><path d="M 136.9 129.2 L 264.3 129.2 L 264.3 64.6 L 136.9 64.6 Z M 136.9 129.2 "></path></clipPath><g clip-path="url(#clip-632)"><path d="M 1.5 192.2 L 138.9 192.2 L 138.9 128.7 L 1.5 128.7 Z M 1.5 192.2 " fill="#869ABB"></path><path d="M 138.9 192.2 L 263.8 192.2 L 263.8 128.7 L 138.9 128.7 Z M 138.9 192.2 " fill="#000000" fill-opacity="0.25"></path><path d="M 263.8 192.2 L 388.8 192.2 L 388.8 128.7 L 263.8 128.7 Z M 263.8 192.2 " fill="#000000" fill-opacity="0.25"></path><path d="M 1.5 128.7 L 138.9 128.7 L 138.9 65.1 L 1.5 65.1 Z M 1.5 128.7 " fill="#869ABB"></path><path d="M 1.5 65.1 L 138.9 65.1 L 138.9 1.6 L 1.5 1.6 Z M 1.5 65.1 " fill="#869ABB"></path><path d="M 138.9 65.1 L 263.8 65.1 L 263.8 1.6 L 138.9 1.6 Z M 138.9 65.1 " fill="#000000" fill-opacity="0.25"></path><path d="M 263.8 65.1 L 388.8 65.1 L 388.8 1.6 L 263.8 1.6 Z M 263.8 65.1 " fill="#000000" fill-opacity="0.25"></path></g></g><g><clipPath id="clip-633"><path d="M 136.9 129.2 L 264.3 129.2 L 264.3 64.6 L 136.9 64.6 Z M 136.9 129.2 "></path></clipPath><g clip-path="url(#clip-633)"><path d="M 264.4 129.1 L 264.4 319.7 " fill="none" stroke="#FEFFFE" stroke-opacity="0.50" stroke-width="1.00" transform="matrix(1.00, 0.00, 0.00, -1.00, -0.5, 321.3)"></path><path d="M 389.3 129.1 L 389.3 319.7 " fill="none" stroke="#FEFFFE" stroke-opacity="0.50" stroke-width="1.00" transform="matrix(1.00, 0.00, 0.00, -1.00, -0.5, 321.3)"></path><path d="M 2.0 129.1 L 139.4 129.1 " fill="none" stroke="#FEFFFE" stroke-opacity="0.50" stroke-width="1.00" transform="matrix(1.00, 0.00, 0.00, -1.00, -0.5, 321.3)"></path><path d="M 139.4 129.1 L 389.3 129.1 " fill="none" stroke="#FEFFFE" stroke-opacity="0.50" stroke-width="1.00" transform="matrix(1.00, 0.00, 0.00, -1.00, -0.5, 321.3)"></path><path d="M 2.0 192.6 L 139.4 192.6 " fill="none" stroke="#FEFFFE" stroke-opacity="0.50" stroke-width="1.00" transform="matrix(1.00, 0.00, 0.00, -1.00, -0.5, 321.3)"></path><path d="M 139.4 192.6 L 389.3 192.6 " fill="none" stroke="#FEFFFE" stroke-opacity="0.50" stroke-width="1.00" transform="matrix(1.00, 0.00, 0.00, -1.00, -0.5, 321.3)"></path><path d="M 2.0 256.2 L 139.4 256.2 " fill="none" stroke="#FEFFFE" stroke-opacity="0.50" stroke-width="1.00" transform="matrix(1.00, 0.00, 0.00, -1.00, -0.5, 321.3)"></path><path d="M 139.4 256.2 L 389.3 256.2 " fill="none" stroke="#FEFFFE" stroke-opacity="0.50" stroke-width="1.00" transform="matrix(1.00, 0.00, 0.00, -1.00, -0.5, 321.3)"></path><path d="M 139.4 129.1 L 139.4 319.7 " fill="none" stroke="#FEFFFE" stroke-opacity="0.50" stroke-width="4.00" transform="matrix(1.00, 0.00, 0.00, -1.00, -0.5, 321.3)"></path><path d="M 2.0 129.1 L 2.0 319.7 " fill="none" stroke="#FEFFFE" stroke-opacity="0.50" stroke-width="1.00" transform="matrix(1.00, 0.00, 0.00, -1.00, -0.5, 321.3)"></path><path d="M 2.0 319.7 L 139.4 319.7 " fill="none" stroke="#FEFFFE" stroke-opacity="0.50" stroke-width="1.00" transform="matrix(1.00, 0.00, 0.00, -1.00, -0.5, 321.3)"></path><path d="M 139.4 319.7 L 389.3 319.7 " fill="none" stroke="#FEFFFE" stroke-opacity="0.50" stroke-width="1.00" transform="matrix(1.00, 0.00, 0.00, -1.00, -0.5, 321.3)"></path></g></g><g><clipPath id="clip-634"><path d="M 263.3 129.2 L 389.3 129.2 L 389.3 64.6 L 263.3 64.6 Z M 263.3 129.2 "></path></clipPath><g clip-path="url(#clip-634)"><path d="M 138.9 192.2 L 263.8 192.2 L 263.8 128.7 L 138.9 128.7 Z M 138.9 192.2 " fill="#000000" fill-opacity="0.25"></path><path d="M 263.8 192.2 L 388.8 192.2 L 388.8 128.7 L 263.8 128.7 Z M 263.8 192.2 " fill="#000000" fill-opacity="0.25"></path><path d="M 388.8 192.2 L 513.7 192.2 L 513.7 128.7 L 388.8 128.7 Z M 388.8 192.2 " fill="#000000" fill-opacity="0.25"></path><path d="M 138.9 65.1 L 263.8 65.1 L 263.8 1.6 L 138.9 1.6 Z M 138.9 65.1 " fill="#000000" fill-opacity="0.25"></path><path d="M 263.8 65.1 L 388.8 65.1 L 388.8 1.6 L 263.8 1.6 Z M 263.8 65.1 " fill="#000000" fill-opacity="0.25"></path><path d="M 388.8 65.1 L 513.7 65.1 L 513.7 1.6 L 388.8 1.6 Z M 388.8 65.1 " fill="#000000" fill-opacity="0.25"></path></g></g><g><clipPath id="clip-635"><path d="M 263.3 129.2 L 389.3 129.2 L 389.3 64.6 L 263.3 64.6 Z M 263.3 129.2 "></path></clipPath><g clip-path="url(#clip-635)"><path d="M 264.4 129.1 L 264.4 319.7 " fill="none" stroke="#FEFFFE" stroke-opacity="0.50" stroke-width="1.00" transform="matrix(1.00, 0.00, 0.00, -1.00, -0.5, 321.3)"></path><path d="M 389.3 129.1 L 389.3 319.7 " fill="none" stroke="#FEFFFE" stroke-opacity="0.50" stroke-width="1.00" transform="matrix(1.00, 0.00, 0.00, -1.00, -0.5, 321.3)"></path><path d="M 514.3 129.1 L 514.3 319.7 " fill="none" stroke="#FEFFFE" stroke-opacity="0.50" stroke-width="4.00" transform="matrix(1.00, 0.00, 0.00, -1.00, -0.5, 321.3)"></path><path d="M 139.4 129.1 L 514.3 129.1 " fill="none" stroke="#FEFFFE" stroke-opacity="0.50" stroke-width="1.00" transform="matrix(1.00, 0.00, 0.00, -1.00, -0.5, 321.3)"></path><path d="M 139.4 192.6 L 514.3 192.6 " fill="none" stroke="#FEFFFE" stroke-opacity="0.50" stroke-width="1.00" transform="matrix(1.00, 0.00, 0.00, -1.00, -0.5, 321.3)"></path><path d="M 139.4 256.2 L 514.3 256.2 " fill="none" stroke="#FEFFFE" stroke-opacity="0.50" stroke-width="1.00" transform="matrix(1.00, 0.00, 0.00, -1.00, -0.5, 321.3)"></path><path d="M 139.4 129.1 L 139.4 319.7 " fill="none" stroke="#FEFFFE" stroke-opacity="0.50" stroke-width="4.00" transform="matrix(1.00, 0.00, 0.00, -1.00, -0.5, 321.3)"></path><path d="M 139.4 319.7 L 514.3 319.7 " fill="none" stroke="#FEFFFE" stroke-opacity="0.50" stroke-width="1.00" transform="matrix(1.00, 0.00, 0.00, -1.00, -0.5, 321.3)"></path></g></g><g><clipPath id="clip-636"><path d="M 388.3 129.2 L 515.7 129.2 L 515.7 64.6 L 388.3 64.6 Z M 388.3 129.2 "></path></clipPath><g clip-path="url(#clip-636)"><path d="M 263.8 192.2 L 388.8 192.2 L 388.8 128.7 L 263.8 128.7 Z M 263.8 192.2 " fill="#000000" fill-opacity="0.25"></path><path d="M 388.8 192.2 L 513.7 192.2 L 513.7 128.7 L 388.8 128.7 Z M 388.8 192.2 " fill="#000000" fill-opacity="0.25"></path><path d="M 513.7 192.2 L 638.7 192.2 L 638.7 128.7 L 513.7 128.7 Z M 513.7 192.2 " fill="#000000" fill-opacity="0.25"></path><path d="M 263.8 65.1 L 388.8 65.1 L 388.8 1.6 L 263.8 1.6 Z M 263.8 65.1 " fill="#000000" fill-opacity="0.25"></path><path d="M 388.8 65.1 L 513.7 65.1 L 513.7 1.6 L 388.8 1.6 Z M 388.8 65.1 " fill="#000000" fill-opacity="0.25"></path><path d="M 513.7 65.1 L 638.7 65.1 L 638.7 1.6 L 513.7 1.6 Z M 513.7 65.1 " fill="#000000" fill-opacity="0.25"></path></g></g><image xlink:href="../../D55510CF-6CC6-4C3C-BC8C-B86DBACA13BB/assets/5CF07A188BC6F9A92C473C7CB6E206F3.png" width="18.00" height="23.00" transform="matrix(1.00, 0.00, -0.00, -1.00, 442.0, 106.0)"></image><g><clipPath id="clip-637"><path d="M 388.3 129.2 L 515.7 129.2 L 515.7 64.6 L 388.3 64.6 Z M 388.3 129.2 "></path></clipPath><g clip-path="url(#clip-637)"><g><clipPath id="clip-638"><path d="M 389.3 65.6 L 511.7 65.6 L 511.7 128.2 L 389.3 128.2 Z M 389.3 65.6 "></path></clipPath><g clip-path="url(#clip-638)"><text xml:space="preserve" font-family="Chalkduster" font-size="16.0" fill="#FEFFFE" transform="matrix(1.00, 0.00, -0.00, -1.00, 446.0, 89.0)">1</text></g></g></g></g><g><clipPath id="clip-639"><path d="M 388.3 129.2 L 515.7 129.2 L 515.7 64.6 L 388.3 64.6 Z M 388.3 129.2 "></path></clipPath><g clip-path="url(#clip-639)"><path d="M 264.4 129.1 L 264.4 319.7 " fill="none" stroke="#FEFFFE" stroke-opacity="0.50" stroke-width="1.00" transform="matrix(1.00, 0.00, 0.00, -1.00, -0.5, 321.3)"></path><path d="M 389.3 129.1 L 389.3 319.7 " fill="none" stroke="#FEFFFE" stroke-opacity="0.50" stroke-width="1.00" transform="matrix(1.00, 0.00, 0.00, -1.00, -0.5, 321.3)"></path><path d="M 514.3 129.1 L 514.3 319.7 " fill="none" stroke="#FEFFFE" stroke-opacity="0.50" stroke-width="4.00" transform="matrix(1.00, 0.00, 0.00, -1.00, -0.5, 321.3)"></path><path d="M 639.2 129.1 L 639.2 319.7 " fill="none" stroke="#FEFFFE" stroke-opacity="0.50" stroke-width="1.00" transform="matrix(1.00, 0.00, 0.00, -1.00, -0.5, 321.3)"></path><path d="M 264.4 129.1 L 639.2 129.1 " fill="none" stroke="#FEFFFE" stroke-opacity="0.50" stroke-width="1.00" transform="matrix(1.00, 0.00, 0.00, -1.00, -0.5, 321.3)"></path><path d="M 264.4 192.6 L 639.2 192.6 " fill="none" stroke="#FEFFFE" stroke-opacity="0.50" stroke-width="1.00" transform="matrix(1.00, 0.00, 0.00, -1.00, -0.5, 321.3)"></path><path d="M 264.4 256.2 L 639.2 256.2 " fill="none" stroke="#FEFFFE" stroke-opacity="0.50" stroke-width="1.00" transform="matrix(1.00, 0.00, 0.00, -1.00, -0.5, 321.3)"></path><path d="M 264.4 319.7 L 639.2 319.7 " fill="none" stroke="#FEFFFE" stroke-opacity="0.50" stroke-width="1.00" transform="matrix(1.00, 0.00, 0.00, -1.00, -0.5, 321.3)"></path></g></g><g><clipPath id="clip-640"><path d="M 511.7 129.2 L 639.2 129.2 L 639.2 64.6 L 511.7 64.6 Z M 511.7 129.2 "></path></clipPath><g clip-path="url(#clip-640)"><path d="M 388.8 192.2 L 513.7 192.2 L 513.7 128.7 L 388.8 128.7 Z M 388.8 192.2 " fill="#000000" fill-opacity="0.25"></path><path d="M 513.7 192.2 L 638.7 192.2 L 638.7 128.7 L 513.7 128.7 Z M 513.7 192.2 " fill="#000000" fill-opacity="0.25"></path><path d="M 638.7 192.2 L 763.6 192.2 L 763.6 128.7 L 638.7 128.7 Z M 638.7 192.2 " fill="#000000" fill-opacity="0.25"></path><path d="M 388.8 65.1 L 513.7 65.1 L 513.7 1.6 L 388.8 1.6 Z M 388.8 65.1 " fill="#000000" fill-opacity="0.25"></path><path d="M 513.7 65.1 L 638.7 65.1 L 638.7 1.6 L 513.7 1.6 Z M 513.7 65.1 " fill="#000000" fill-opacity="0.25"></path><path d="M 638.7 65.1 L 763.6 65.1 L 763.6 1.6 L 638.7 1.6 Z M 638.7 65.1 " fill="#000000" fill-opacity="0.25"></path></g></g><g><clipPath id="clip-641"><path d="M 511.7 129.2 L 639.2 129.2 L 639.2 64.6 L 511.7 64.6 Z M 511.7 129.2 "></path></clipPath><g clip-path="url(#clip-641)"><path d="M 389.3 129.1 L 389.3 319.7 " fill="none" stroke="#FEFFFE" stroke-opacity="0.50" stroke-width="1.00" transform="matrix(1.00, 0.00, 0.00, -1.00, -0.5, 321.3)"></path><path d="M 514.3 129.1 L 514.3 319.7 " fill="none" stroke="#FEFFFE" stroke-opacity="0.50" stroke-width="4.00" transform="matrix(1.00, 0.00, 0.00, -1.00, -0.5, 321.3)"></path><path d="M 639.2 129.1 L 639.2 319.7 " fill="none" stroke="#FEFFFE" stroke-opacity="0.50" stroke-width="1.00" transform="matrix(1.00, 0.00, 0.00, -1.00, -0.5, 321.3)"></path><path d="M 764.1 129.1 L 764.1 319.7 " fill="none" stroke="#FEFFFE" stroke-opacity="0.50" stroke-width="1.00" transform="matrix(1.00, 0.00, 0.00, -1.00, -0.5, 321.3)"></path><path d="M 389.3 129.1 L 764.1 129.1 " fill="none" stroke="#FEFFFE" stroke-opacity="0.50" stroke-width="1.00" transform="matrix(1.00, 0.00, 0.00, -1.00, -0.5, 321.3)"></path><path d="M 389.3 192.6 L 764.1 192.6 " fill="none" stroke="#FEFFFE" stroke-opacity="0.50" stroke-width="1.00" transform="matrix(1.00, 0.00, 0.00, -1.00, -0.5, 321.3)"></path><path d="M 389.3 256.2 L 764.1 256.2 " fill="none" stroke="#FEFFFE" stroke-opacity="0.50" stroke-width="1.00" transform="matrix(1.00, 0.00, 0.00, -1.00, -0.5, 321.3)"></path><path d="M 389.3 319.7 L 764.1 319.7 " fill="none" stroke="#FEFFFE" stroke-opacity="0.50" stroke-width="1.00" transform="matrix(1.00, 0.00, 0.00, -1.00, -0.5, 321.3)"></path></g></g><g><clipPath id="clip-642"><path d="M 638.2 129.2 L 764.1 129.2 L 764.1 64.6 L 638.2 64.6 Z M 638.2 129.2 "></path></clipPath><g clip-path="url(#clip-642)"><path d="M 513.7 192.2 L 638.7 192.2 L 638.7 128.7 L 513.7 128.7 Z M 513.7 192.2 " fill="#000000" fill-opacity="0.25"></path><path d="M 638.7 192.2 L 763.6 192.2 L 763.6 128.7 L 638.7 128.7 Z M 638.7 192.2 " fill="#000000" fill-opacity="0.25"></path><path d="M 763.6 192.2 L 888.5 192.2 L 888.5 128.7 L 763.6 128.7 Z M 763.6 192.2 " fill="#000000" fill-opacity="0.25"></path><path d="M 513.7 65.1 L 638.7 65.1 L 638.7 1.6 L 513.7 1.6 Z M 513.7 65.1 " fill="#000000" fill-opacity="0.25"></path><path d="M 638.7 65.1 L 763.6 65.1 L 763.6 1.6 L 638.7 1.6 Z M 638.7 65.1 " fill="#000000" fill-opacity="0.25"></path><path d="M 763.6 65.1 L 888.5 65.1 L 888.5 1.6 L 763.6 1.6 Z M 763.6 65.1 " fill="#000000" fill-opacity="0.25"></path></g></g><image xlink:href="../../D55510CF-6CC6-4C3C-BC8C-B86DBACA13BB/assets/0AC42A1088C98091ED1F4E6A1EB35E36.png" width="19.00" height="23.00" transform="matrix(1.00, 0.00, -0.00, -1.00, 692.0, 106.0)"></image><g><clipPath id="clip-643"><path d="M 638.2 129.2 L 764.1 129.2 L 764.1 64.6 L 638.2 64.6 Z M 638.2 129.2 "></path></clipPath><g clip-path="url(#clip-643)"><g><clipPath id="clip-644"><path d="M 639.2 65.6 L 763.1 65.6 L 763.1 128.2 L 639.2 128.2 Z M 639.2 65.6 "></path></clipPath><g clip-path="url(#clip-644)"><text xml:space="preserve" font-family="Chalkduster" font-size="16.0" fill="#FEFFFE" transform="matrix(1.00, 0.00, -0.00, -1.00, 697.0, 89.0)">2</text></g></g></g></g><g><clipPath id="clip-645"><path d="M 638.2 129.2 L 764.1 129.2 L 764.1 64.6 L 638.2 64.6 Z M 638.2 129.2 "></path></clipPath><g clip-path="url(#clip-645)"><path d="M 514.3 129.1 L 514.3 319.7 " fill="none" stroke="#FEFFFE" stroke-opacity="0.50" stroke-width="4.00" transform="matrix(1.00, 0.00, 0.00, -1.00, -0.5, 321.3)"></path><path d="M 639.2 129.1 L 639.2 319.7 " fill="none" stroke="#FEFFFE" stroke-opacity="0.50" stroke-width="1.00" transform="matrix(1.00, 0.00, 0.00, -1.00, -0.5, 321.3)"></path><path d="M 764.1 129.1 L 764.1 319.7 " fill="none" stroke="#FEFFFE" stroke-opacity="0.50" stroke-width="1.00" transform="matrix(1.00, 0.00, 0.00, -1.00, -0.5, 321.3)"></path><path d="M 514.3 129.1 L 889.1 129.1 " fill="none" stroke="#FEFFFE" stroke-opacity="0.50" stroke-width="1.00" transform="matrix(1.00, 0.00, 0.00, -1.00, -0.5, 321.3)"></path><path d="M 514.3 192.6 L 889.1 192.6 " fill="none" stroke="#FEFFFE" stroke-opacity="0.50" stroke-width="1.00" transform="matrix(1.00, 0.00, 0.00, -1.00, -0.5, 321.3)"></path><path d="M 514.3 256.2 L 889.1 256.2 " fill="none" stroke="#FEFFFE" stroke-opacity="0.50" stroke-width="1.00" transform="matrix(1.00, 0.00, 0.00, -1.00, -0.5, 321.3)"></path><path d="M 889.1 129.1 L 889.1 319.7 " fill="none" stroke="#FEFFFE" stroke-opacity="0.50" stroke-width="1.00" transform="matrix(1.00, 0.00, 0.00, -1.00, -0.5, 321.3)"></path><path d="M 514.3 319.7 L 889.1 319.7 " fill="none" stroke="#FEFFFE" stroke-opacity="0.50" stroke-width="1.00" transform="matrix(1.00, 0.00, 0.00, -1.00, -0.5, 321.3)"></path></g></g><g><clipPath id="clip-646"><path d="M 763.1 129.2 L 889.0 129.2 L 889.0 64.6 L 763.1 64.6 Z M 763.1 129.2 "></path></clipPath><g clip-path="url(#clip-646)"><path d="M 638.7 192.2 L 763.6 192.2 L 763.6 128.7 L 638.7 128.7 Z M 638.7 192.2 " fill="#000000" fill-opacity="0.25"></path><path d="M 763.6 192.2 L 888.5 192.2 L 888.5 128.7 L 763.6 128.7 Z M 763.6 192.2 " fill="#000000" fill-opacity="0.25"></path><path d="M 638.7 65.1 L 763.6 65.1 L 763.6 1.6 L 638.7 1.6 Z M 638.7 65.1 " fill="#000000" fill-opacity="0.25"></path><path d="M 763.6 65.1 L 888.5 65.1 L 888.5 1.6 L 763.6 1.6 Z M 763.6 65.1 " fill="#000000" fill-opacity="0.25"></path></g></g><image xlink:href="../../D55510CF-6CC6-4C3C-BC8C-B86DBACA13BB/assets/1736D47D1B2025C47B146D19CEF54500.png" width="21.00" height="23.00" transform="matrix(1.00, 0.00, -0.00, -1.00, 816.0, 106.0)"></image><g><clipPath id="clip-647"><path d="M 763.1 129.2 L 889.0 129.2 L 889.0 64.6 L 763.1 64.6 Z M 763.1 129.2 "></path></clipPath><g clip-path="url(#clip-647)"><g><clipPath id="clip-648"><path d="M 764.1 65.6 L 888.0 65.6 L 888.0 128.2 L 764.1 128.2 Z M 764.1 65.6 "></path></clipPath><g clip-path="url(#clip-648)"><text xml:space="preserve" font-family="Chalkduster" font-size="16.0" fill="#FEFFFE" transform="matrix(1.00, 0.00, -0.00, -1.00, 821.0, 89.0)">3</text></g></g></g></g><g><clipPath id="clip-649"><path d="M 763.1 129.2 L 889.0 129.2 L 889.0 64.6 L 763.1 64.6 Z M 763.1 129.2 "></path></clipPath><g clip-path="url(#clip-649)"><path d="M 639.2 129.1 L 639.2 319.7 " fill="none" stroke="#FEFFFE" stroke-opacity="0.50" stroke-width="1.00" transform="matrix(1.00, 0.00, 0.00, -1.00, -0.5, 321.3)"></path><path d="M 764.1 129.1 L 764.1 319.7 " fill="none" stroke="#FEFFFE" stroke-opacity="0.50" stroke-width="1.00" transform="matrix(1.00, 0.00, 0.00, -1.00, -0.5, 321.3)"></path><path d="M 639.2 129.1 L 889.1 129.1 " fill="none" stroke="#FEFFFE" stroke-opacity="0.50" stroke-width="1.00" transform="matrix(1.00, 0.00, 0.00, -1.00, -0.5, 321.3)"></path><path d="M 639.2 192.6 L 889.6 192.6 " fill="none" stroke="#FEFFFE" stroke-opacity="0.50" stroke-width="1.00" transform="matrix(1.00, 0.00, 0.00, -1.00, -0.5, 321.3)"></path><path d="M 639.2 256.2 L 889.6 256.2 " fill="none" stroke="#FEFFFE" stroke-opacity="0.50" stroke-width="1.00" transform="matrix(1.00, 0.00, 0.00, -1.00, -0.5, 321.3)"></path><path d="M 889.1 129.1 L 889.1 319.7 " fill="none" stroke="#FEFFFE" stroke-opacity="0.50" stroke-width="1.00" transform="matrix(1.00, 0.00, 0.00, -1.00, -0.5, 321.3)"></path><path d="M 639.2 319.7 L 889.1 319.7 " fill="none" stroke="#FEFFFE" stroke-opacity="0.50" stroke-width="1.00" transform="matrix(1.00, 0.00, 0.00, -1.00, -0.5, 321.3)"></path></g></g></g></svg>