<?xml version="1.0" encoding="UTF-8" standalone="no"?><svg xmlns="http://www.w3.org/2000/svg" xmlns:xlink="http://www.w3.org/1999/xlink" clip-rule="evenodd" stroke-miterlimit="4.00" viewBox="0 0 309 111"><desc>SVG generated by Keynote</desc><defs></defs><g transform="matrix(1.00, 0.00, -0.00, -1.00, 0.0, 111.0)"><g><clipPath id="clip-1382"><path d="M 260.2 90.8 C 318.5 71.3 318.5 39.6 260.2 20.1 C 202.0 0.6 107.6 0.6 49.4 20.1 C -8.8 39.6 -8.8 71.3 49.4 90.8 C 107.6 110.3 202.0 110.3 260.2 90.8 Z M 260.2 90.8 "></path></clipPath><g clip-path="url(#clip-1382)"><image xlink:href="../../1BE7A03E-C66D-4413-94C1-F85C6D2757AE/assets/59DBD66EA15A3D40E065F836EF2595FD.jpeg" width="400.00" height="400.00" transform="matrix(1.00, 0.00, -0.00, -1.00, 5.7, 105.4)"></image></g></g><path d="M 76.6 8.9 C 76.2 9.0 75.7 9.2 74.9 9.3 C 75.2 9.3 75.5 9.3 75.5 9.5 C 76.2 9.2 77.1 9.0 78.5 8.8 C 78.4 8.7 77.7 8.9 77.2 8.9 C 76.7 9.1 76.8 8.9 76.6 8.9 C 76.6 8.9 76.6 8.9 76.6 8.9 Z M 68.1 99.5 C 67.0 99.2 68.2 99.8 68.6 99.9 C 68.7 99.9 68.8 99.8 69.2 99.9 C 69.3 100.2 68.3 100.0 67.5 99.9 C 64.4 99.0 66.8 99.2 68.1 99.5 C 68.1 99.5 68.1 99.5 68.1 99.5 Z M 236.3 100.6 C 238.8 100.0 236.1 100.3 235.7 100.4 C 236.8 100.0 235.8 99.9 237.3 99.5 C 237.6 99.6 238.2 99.5 238.5 99.6 C 237.8 99.7 236.9 99.9 236.8 100.0 C 237.7 99.9 238.9 99.5 239.1 99.6 C 237.1 100.1 238.8 99.9 239.2 100.0 C 237.4 100.4 236.9 100.7 236.3 100.6 C 236.3 100.6 236.3 100.6 236.3 100.6 Z M 276.7 23.7 C 277.7 24.1 278.4 24.5 278.2 24.5 C 277.2 24.1 276.5 23.7 276.0 23.4 C 275.8 23.5 276.0 23.7 275.1 23.3 C 274.2 22.7 274.8 22.6 275.4 22.7 C 275.4 23.0 278.8 24.4 276.7 23.7 C 276.7 23.7 276.7 23.7 276.7 23.7 Z M 207.3 6.3 C 205.0 5.9 207.2 6.7 204.8 6.3 C 204.9 6.1 204.6 5.8 206.2 6.0 C 206.3 6.1 207.2 6.2 207.3 6.3 C 207.3 6.3 207.3 6.3 207.3 6.3 Z M 165.6 106.6 C 165.6 106.8 167.3 106.7 166.9 106.9 C 166.0 106.9 165.2 107.0 164.3 107.0 C 164.1 106.8 164.4 106.7 165.6 106.6 C 165.6 106.6 165.6 106.6 165.6 106.6 Z M 252.3 94.1 C 254.8 93.7 257.2 92.6 256.5 93.0 C 257.5 93.0 255.0 94.2 255.1 93.9 C 254.7 93.7 250.4 94.7 252.3 94.1 C 252.3 94.1 252.3 94.1 252.3 94.1 Z M 82.2 98.3 C 85.0 99.0 84.5 98.2 86.3 98.8 C 85.7 98.7 85.4 98.8 85.1 98.8 C 85.6 98.9 86.3 99.0 86.3 99.1 C 84.9 98.9 83.3 98.7 82.2 98.3 C 82.2 98.3 82.2 98.3 82.2 98.3 Z M 118.6 3.6 C 119.1 3.5 119.4 3.5 119.3 3.4 C 121.3 3.3 121.2 3.1 122.5 3.1 C 122.6 3.5 120.9 3.5 119.3 3.5 C 119.2 3.6 118.7 3.7 118.6 3.6 C 118.6 3.6 118.6 3.6 118.6 3.6 Z M 176.1 3.5 C 176.0 3.3 174.8 3.2 176.7 3.2 C 178.9 3.6 177.0 3.7 174.7 3.8 C 174.7 3.9 174.7 4.0 174.7 4.1 C 175.6 4.1 176.2 4.2 176.7 4.3 C 177.1 3.9 178.5 4.7 181.9 4.6 C 180.3 4.7 182.0 5.1 179.9 4.8 C 180.5 5.1 179.0 5.0 179.2 5.2 C 180.1 5.1 182.3 5.3 181.9 4.9 C 183.0 5.0 183.9 5.1 184.4 5.2 C 185.2 5.5 182.3 5.1 183.1 5.4 C 183.8 5.5 183.9 5.5 184.4 5.6 C 184.5 5.5 184.3 5.4 185.0 5.4 C 187.1 5.6 184.6 5.7 187.6 5.9 C 187.8 5.8 186.9 5.7 187.0 5.5 C 188.3 5.5 188.2 5.7 189.5 5.6 C 189.8 5.8 188.6 5.8 189.5 5.9 C 190.4 5.6 192.2 6.3 194.0 6.2 C 192.8 5.6 194.3 6.3 196.0 6.0 C 196.3 6.1 195.1 6.4 196.5 6.5 C 196.1 5.8 201.8 6.6 197.3 5.6 C 199.7 5.9 200.5 5.5 198.6 5.2 C 202.8 5.7 201.5 5.3 203.1 5.4 C 204.7 5.6 202.2 5.5 203.0 5.7 C 201.3 5.5 201.7 5.7 200.5 5.5 C 200.5 5.6 200.2 5.6 199.8 5.6 C 201.5 5.6 203.5 6.2 202.3 6.4 C 201.4 6.2 202.2 6.1 201.1 5.9 C 201.5 6.3 199.9 5.7 199.8 6.0 C 200.5 6.4 198.1 6.4 200.4 6.7 C 200.4 6.5 200.4 6.4 200.4 6.3 C 201.0 6.3 201.7 6.4 202.3 6.5 C 202.8 6.8 202.3 6.9 202.9 7.0 C 203.9 7.1 204.5 7.1 204.8 7.1 C 203.5 6.9 202.0 6.5 204.2 6.7 C 203.3 7.1 207.1 7.2 205.4 7.2 C 207.7 7.7 208.9 7.4 209.1 7.8 C 210.3 7.9 209.5 7.6 211.0 7.8 C 213.2 8.3 212.9 7.9 215.9 8.6 C 216.3 8.2 216.1 8.7 217.1 8.8 C 217.1 8.7 217.1 8.6 217.1 8.4 C 218.2 8.8 220.6 9.3 223.1 9.5 C 223.8 9.7 223.3 9.8 224.9 10.0 C 226.7 10.0 228.7 10.8 230.8 10.8 C 230.9 11.0 232.3 11.3 233.1 11.4 C 233.4 11.5 232.3 11.6 233.6 11.9 C 234.5 11.8 233.0 11.5 234.8 11.7 C 234.6 11.9 236.5 11.9 236.5 12.2 C 236.0 12.1 235.3 12.1 234.8 12.0 C 235.5 12.2 235.3 12.3 235.9 12.5 C 235.9 12.1 237.2 12.7 237.6 12.8 C 237.6 12.7 237.8 12.6 238.2 12.6 C 239.2 12.9 240.0 13.0 240.5 13.1 C 241.7 13.5 239.8 13.1 241.0 13.4 C 241.7 13.0 242.8 13.9 245.5 14.2 C 246.0 14.6 247.1 14.9 248.7 15.4 C 248.9 15.3 247.1 14.9 247.1 14.7 C 249.5 15.4 246.7 14.5 248.3 14.9 C 251.6 15.9 253.8 16.5 257.1 17.8 C 257.1 17.6 259.8 18.3 259.7 18.4 C 259.4 18.3 259.7 18.5 260.3 18.7 C 260.8 19.0 262.4 19.6 263.3 19.9 C 263.9 19.7 266.9 20.4 267.1 20.3 C 267.7 20.7 267.6 20.7 267.8 21.1 C 270.8 22.4 272.4 22.7 274.0 23.9 C 274.0 23.6 275.3 24.2 276.4 24.6 C 276.0 24.6 275.3 24.5 274.7 24.4 C 276.2 25.0 276.3 25.2 277.6 25.8 C 279.1 25.7 280.7 27.5 281.9 27.4 C 283.8 28.4 283.3 28.5 284.9 29.4 C 285.0 29.2 285.2 29.3 285.7 29.5 C 284.6 28.9 283.7 28.6 283.2 28.0 C 285.7 29.4 278.8 24.8 283.0 26.9 C 283.1 27.0 282.7 27.0 283.5 27.5 C 285.9 28.7 284.6 27.7 283.7 27.2 C 285.3 28.0 286.8 29.0 285.8 28.0 C 289.2 30.0 287.0 28.9 288.0 29.7 C 294.0 33.2 300.0 38.1 303.3 44.0 C 303.7 44.1 305.0 47.4 305.2 48.5 C 306.1 50.1 306.5 51.9 306.3 52.5 C 306.6 52.8 306.3 54.6 306.6 54.8 C 306.5 54.0 306.6 53.5 306.7 54.3 C 306.7 56.9 305.9 60.6 305.6 62.1 C 305.0 62.9 304.4 64.4 304.0 65.6 C 303.8 65.7 304.2 64.8 303.8 65.5 C 303.8 65.7 302.6 68.1 302.1 68.5 C 302.6 67.9 302.8 66.9 302.1 67.9 C 302.2 68.0 301.4 69.1 301.8 68.9 C 300.6 70.3 300.1 71.2 299.0 72.2 C 299.8 71.3 300.2 70.6 300.2 70.4 C 299.6 71.2 299.1 71.9 298.4 72.4 C 298.8 72.5 297.4 73.6 296.1 75.0 C 295.7 75.2 295.3 75.4 294.1 76.4 C 293.6 77.0 296.1 75.0 294.8 76.2 C 294.7 76.1 293.3 77.1 293.8 77.0 C 292.1 78.2 291.2 79.1 289.6 79.9 C 291.6 78.7 289.9 79.4 289.4 79.6 C 289.0 79.9 288.3 80.4 288.3 80.4 C 288.4 80.5 289.4 79.8 289.5 79.8 C 288.1 80.7 287.9 81.3 287.3 81.4 C 287.9 81.0 287.9 80.8 287.2 81.3 C 287.2 81.7 282.6 84.0 284.1 83.0 C 284.1 83.1 285.8 82.1 286.0 81.9 C 285.4 82.1 282.9 83.7 283.4 83.1 C 284.8 82.3 284.8 82.5 286.5 81.4 C 286.6 81.2 287.5 80.5 288.1 80.0 C 285.5 81.7 285.0 82.3 284.5 82.2 C 283.3 82.9 284.2 82.8 282.0 83.8 C 279.0 85.4 281.4 83.8 280.5 84.2 C 277.8 85.7 278.8 85.6 280.1 85.2 C 277.9 86.3 277.3 86.8 274.4 88.0 C 274.4 87.8 274.8 87.5 275.8 87.0 C 275.9 87.0 278.3 86.1 278.0 86.1 C 277.6 85.8 275.7 86.6 272.5 87.9 C 273.4 87.9 273.5 87.7 270.2 89.0 C 270.9 89.1 268.6 89.6 268.6 89.8 C 268.8 89.9 270.0 89.4 271.1 88.9 C 271.1 89.1 270.7 89.4 269.6 89.9 C 268.9 90.0 268.4 90.4 266.3 91.1 C 266.0 90.9 267.5 90.3 267.8 90.1 C 266.6 90.5 266.4 90.7 265.3 91.2 C 264.2 91.3 264.2 91.0 264.1 90.7 C 265.5 90.1 267.5 89.3 265.8 89.8 C 270.7 87.9 265.7 90.2 267.6 89.6 C 269.5 88.5 268.6 89.3 271.6 88.0 C 272.5 87.6 272.8 87.4 273.1 87.2 C 272.9 87.3 271.1 87.8 273.0 86.9 C 273.5 86.9 274.6 86.5 276.1 85.9 C 276.1 85.8 273.0 87.1 276.0 85.7 C 277.5 85.0 276.3 85.9 278.3 84.9 C 278.3 84.9 278.8 84.6 278.9 84.4 C 276.1 85.9 279.4 84.0 277.4 84.8 C 279.8 83.5 278.0 84.9 279.5 84.0 C 279.5 83.9 282.2 82.8 282.1 82.5 C 281.2 83.1 279.3 84.1 279.4 83.8 C 281.2 82.9 288.5 78.4 285.9 80.4 C 286.8 79.7 291.4 76.2 291.1 76.6 C 289.8 77.5 289.9 77.6 289.8 77.9 C 292.3 75.8 293.6 75.0 295.6 72.7 C 293.2 75.0 294.7 73.0 293.1 74.1 C 292.4 74.7 291.3 75.5 291.2 75.7 C 291.7 75.6 292.8 74.6 293.1 74.2 C 293.3 74.3 293.4 74.5 293.5 74.7 C 290.4 76.9 288.6 78.4 286.8 79.4 C 288.3 78.4 283.7 80.9 285.5 79.8 C 286.3 79.4 288.1 78.3 289.5 77.4 C 289.5 77.4 289.4 77.3 289.4 77.2 C 290.0 76.8 290.8 76.2 290.8 76.1 C 289.0 77.5 287.8 78.0 286.6 79.0 C 286.5 79.0 286.5 78.9 286.5 78.9 C 286.1 79.1 285.8 79.3 285.9 79.1 C 286.5 78.7 287.5 78.1 287.5 78.0 C 286.1 78.9 285.7 78.9 283.9 79.9 C 284.2 79.4 281.7 80.4 284.2 78.9 C 284.7 78.9 286.1 78.1 286.1 78.3 C 286.9 77.9 288.2 76.9 288.8 76.4 C 288.0 76.7 286.6 77.5 286.4 77.4 C 287.5 76.7 288.3 76.0 289.0 75.7 C 287.0 77.3 290.3 75.0 291.2 74.7 C 290.9 74.7 290.4 75.0 290.1 75.1 C 291.7 73.9 292.4 73.5 292.3 73.2 C 294.0 71.7 293.8 72.2 294.8 71.2 C 293.9 71.6 295.4 70.4 294.5 70.8 C 296.2 69.1 295.2 70.5 295.8 69.9 C 296.3 69.4 296.3 69.2 296.7 68.7 C 297.5 68.0 298.7 66.5 299.1 66.4 C 299.6 65.7 299.8 65.7 300.2 65.0 C 300.2 64.7 300.3 64.5 300.4 64.1 C 300.5 64.1 300.9 63.6 300.9 63.4 C 299.6 65.2 299.9 64.6 298.3 66.4 C 298.3 66.6 298.1 66.9 298.5 66.5 C 297.5 67.9 297.1 68.2 296.0 69.4 C 295.7 69.4 295.3 69.4 294.3 70.6 C 294.4 70.2 294.1 70.4 294.4 70.0 C 295.1 69.5 295.9 68.8 296.7 68.1 C 296.7 67.9 296.4 68.0 296.8 67.5 C 297.2 67.2 297.7 66.7 298.0 66.1 C 298.1 66.2 298.0 66.4 297.9 66.7 C 299.3 64.9 298.6 65.4 299.5 64.1 C 299.2 64.2 298.7 65.1 299.0 64.3 C 299.7 63.0 299.9 62.8 300.3 62.3 C 300.3 62.1 300.2 62.2 300.3 61.8 C 300.8 61.0 299.9 64.0 300.9 62.5 C 300.7 62.3 301.4 60.8 301.6 60.7 C 301.6 61.2 301.0 62.0 301.1 62.2 C 302.3 59.4 301.8 62.3 302.6 59.4 C 302.5 59.3 302.4 59.3 302.3 59.3 C 302.0 60.4 301.8 60.4 301.6 60.3 C 301.2 61.2 300.8 61.5 300.6 62.4 C 300.3 61.9 300.9 61.6 301.3 60.6 C 301.1 60.5 300.7 61.4 300.5 61.5 C 301.6 59.3 301.3 58.8 301.9 56.7 C 301.6 57.2 301.9 55.5 301.7 55.6 C 301.7 57.5 301.0 56.6 300.9 56.9 C 300.8 58.1 301.3 57.6 301.3 58.3 C 301.0 58.6 300.9 58.4 300.6 58.2 C 300.9 57.2 300.8 57.3 300.8 56.6 C 301.0 55.9 301.5 55.3 301.6 56.3 C 301.6 56.1 301.4 54.7 301.6 54.6 C 301.7 55.9 301.7 54.4 301.9 55.3 C 302.0 54.2 301.4 52.4 301.3 51.1 C 301.2 51.2 301.0 50.7 300.9 50.8 C 301.5 52.0 301.0 52.4 301.2 53.6 C 301.1 53.1 301.0 53.4 300.9 53.6 C 300.9 52.5 300.5 51.9 300.5 50.9 C 300.4 51.0 300.3 51.0 300.3 51.0 C 300.0 49.5 300.0 49.7 299.3 48.7 C 299.2 48.2 299.8 48.6 300.1 48.7 C 299.8 48.2 298.7 46.2 299.2 47.4 C 298.5 46.3 299.0 46.4 298.1 45.2 C 297.9 45.3 298.6 46.4 298.1 46.2 C 297.3 45.1 298.1 45.5 297.2 44.8 C 297.3 44.6 297.5 44.4 296.7 43.5 C 297.1 44.3 296.5 43.4 296.2 43.2 C 296.5 43.7 296.8 44.1 296.9 44.4 C 295.6 42.6 295.3 42.3 293.8 40.9 C 294.5 41.2 293.8 40.4 294.8 41.3 C 293.8 40.5 292.8 39.1 292.1 38.8 C 292.7 39.4 293.7 40.3 293.9 40.7 C 290.9 38.0 288.8 36.7 285.3 34.1 C 285.9 34.5 286.8 35.1 286.9 35.1 C 286.5 34.8 285.8 34.4 285.9 34.3 C 287.2 35.1 288.3 36.0 289.0 36.3 C 290.0 37.2 288.3 36.0 289.3 36.9 C 289.6 36.9 291.4 38.5 290.9 37.7 C 289.1 36.5 287.4 35.0 286.7 34.2 C 284.6 33.3 286.4 34.4 284.0 33.5 C 284.2 33.4 283.7 33.1 283.0 32.6 C 283.5 33.3 280.9 31.6 280.6 31.4 C 281.7 31.9 285.7 34.0 283.9 32.6 C 284.4 33.6 279.2 29.8 280.1 30.8 C 277.4 29.4 278.5 29.6 276.8 29.1 C 276.8 29.0 277.0 29.0 276.2 28.6 C 275.4 28.2 275.1 28.1 274.7 28.1 C 278.9 30.1 277.5 29.8 279.9 31.2 C 279.5 30.9 279.1 30.8 279.2 30.9 C 279.2 30.9 279.1 30.9 278.5 30.6 C 278.5 30.2 276.4 29.6 275.9 29.2 C 276.7 29.5 277.5 29.9 277.3 29.7 C 274.0 28.1 274.8 28.1 269.6 25.8 C 271.1 26.5 269.0 25.7 267.2 25.0 C 264.5 24.0 265.7 24.0 262.3 22.8 C 262.3 23.1 261.5 22.8 260.0 22.3 C 258.5 21.7 257.8 21.4 256.6 21.2 C 256.9 21.0 253.8 19.9 253.1 20.0 C 253.0 19.8 251.8 19.5 251.0 19.3 C 250.8 19.1 251.8 19.3 251.1 19.1 C 250.4 18.9 250.9 19.3 250.0 19.1 C 248.9 18.7 249.1 18.5 247.4 18.0 C 247.3 18.2 248.3 18.4 247.3 18.4 C 245.9 17.9 244.5 17.5 245.7 18.1 C 243.4 17.5 244.6 17.4 242.5 16.9 C 243.1 17.1 243.1 17.2 241.9 17.0 C 241.2 16.6 241.1 16.5 240.9 16.3 C 240.2 16.4 240.4 16.4 238.6 15.9 C 238.6 16.0 238.6 16.2 238.6 16.3 C 237.8 16.1 236.5 15.8 236.4 15.7 C 237.9 16.1 237.5 15.8 238.1 15.8 C 236.6 15.4 233.7 14.5 235.9 15.3 C 233.7 15.0 234.8 14.9 233.1 14.6 C 234.1 15.0 233.1 14.6 231.3 14.3 C 231.4 14.6 230.1 14.1 229.0 13.9 C 229.1 14.1 228.8 14.2 227.8 14.0 C 227.9 13.9 227.2 13.7 226.1 13.5 C 226.1 13.6 228.5 14.2 226.0 13.8 C 224.9 13.4 225.0 13.2 223.1 12.8 C 222.8 12.5 224.8 13.0 224.4 12.6 C 222.9 12.6 222.5 12.3 220.3 11.9 C 221.1 12.5 215.7 11.8 218.3 12.4 C 217.6 12.3 216.5 12.5 215.9 12.1 C 216.7 12.2 215.3 11.8 215.4 11.7 C 214.3 11.6 211.8 11.1 211.8 11.3 C 214.1 11.6 214.0 11.8 214.7 12.0 C 211.4 11.7 208.4 11.2 208.7 10.9 C 208.6 11.0 208.2 11.0 208.0 11.0 C 209.2 11.1 210.0 11.7 208.6 11.5 C 208.9 11.3 207.9 11.1 206.8 10.9 C 206.7 11.1 202.3 10.2 203.1 10.7 C 204.9 10.7 206.3 11.2 204.9 11.2 C 203.8 10.9 201.3 10.4 201.9 10.3 C 201.2 10.3 200.6 10.3 200.0 10.3 C 199.4 10.5 200.8 10.6 200.6 10.8 C 199.6 10.7 198.2 10.6 198.1 10.4 C 200.6 10.7 196.8 10.2 199.4 10.3 C 197.8 10.1 197.4 9.9 196.2 9.8 C 196.2 9.9 195.7 9.8 195.6 9.9 C 196.7 9.8 197.8 10.1 197.5 10.3 C 195.2 10.1 195.6 9.9 193.7 9.7 C 193.1 9.8 190.5 9.9 189.2 9.6 C 191.8 9.9 189.1 9.5 190.5 9.5 C 192.8 9.9 193.4 9.7 194.3 9.5 C 193.4 9.3 191.5 9.0 191.2 9.3 C 192.4 9.5 192.4 9.3 193.1 9.3 C 193.0 9.5 192.7 9.6 191.8 9.5 C 190.8 9.3 188.4 9.3 190.0 9.1 C 188.3 9.1 186.6 8.7 184.9 8.8 C 186.7 8.9 188.1 9.1 188.6 9.4 C 187.1 9.3 185.5 8.9 185.5 9.1 C 185.6 9.3 188.1 9.5 188.6 9.7 C 186.6 9.8 183.6 8.9 186.1 9.6 C 184.9 9.4 183.4 9.3 182.9 9.2 C 184.3 9.3 182.8 8.8 182.2 8.7 C 181.1 8.7 180.1 8.7 179.7 8.7 C 181.5 8.8 182.8 9.2 181.6 9.1 C 181.3 8.9 180.9 9.1 180.3 9.1 C 180.2 9.0 178.2 8.9 177.8 8.8 C 177.9 8.9 178.8 9.0 179.0 9.1 C 177.8 9.1 176.1 9.4 175.2 9.0 C 176.0 9.0 177.0 9.1 177.1 9.0 C 173.8 8.5 172.7 8.2 168.8 7.9 C 169.3 7.9 169.5 7.8 169.4 7.7 C 166.9 7.6 165.2 7.5 165.6 7.3 C 164.0 7.3 163.1 7.4 162.3 7.6 C 164.0 7.7 164.5 7.5 165.5 7.7 C 164.9 7.7 166.8 8.2 167.5 8.4 C 170.3 8.2 170.4 8.6 173.3 8.6 C 172.4 8.8 175.3 8.7 174.5 9.0 C 171.9 8.5 169.4 8.7 165.5 8.4 C 166.0 8.2 166.5 8.1 164.9 7.9 C 162.4 7.7 163.6 8.1 161.6 8.0 C 160.8 7.8 162.0 7.8 161.0 7.7 C 160.3 7.8 158.4 7.7 157.8 7.5 C 160.4 7.6 157.3 7.3 159.0 7.2 C 158.1 7.2 157.6 7.1 157.1 7.1 C 159.7 7.4 154.5 7.4 156.4 7.6 C 152.8 7.8 156.2 7.0 153.2 7.1 C 154.7 7.3 152.8 7.4 150.6 7.3 C 150.0 7.1 147.8 7.1 146.0 7.0 C 147.0 7.2 147.7 7.2 146.1 7.3 C 146.9 7.4 148.5 7.4 149.3 7.3 C 149.3 7.4 149.6 7.5 150.0 7.5 C 147.8 7.6 148.7 7.7 148.0 7.8 C 147.4 7.7 145.8 7.7 145.4 7.6 C 145.4 7.7 144.9 7.7 144.8 7.8 C 147.5 7.7 144.4 8.1 146.1 8.1 C 147.3 8.1 146.5 7.9 148.0 7.9 C 149.5 8.2 146.8 8.2 146.1 8.5 C 147.3 8.6 148.9 8.3 149.3 8.6 C 147.7 8.9 145.0 8.7 142.9 8.7 C 143.0 9.0 139.3 8.7 139.0 9.1 C 138.7 9.1 138.3 9.0 137.7 8.9 C 137.1 9.2 136.4 8.9 135.8 8.9 C 135.7 9.1 135.9 9.2 136.4 9.2 C 133.8 9.2 133.1 9.2 130.0 9.6 C 129.5 9.4 128.9 9.3 128.7 9.1 C 129.4 9.1 130.1 9.0 130.6 8.9 C 126.4 9.1 129.1 9.6 126.1 9.4 C 126.3 9.5 128.3 9.7 126.8 9.8 C 124.1 9.7 120.3 10.3 120.4 9.6 C 118.0 9.5 116.5 10.1 115.4 9.9 C 114.6 10.0 114.4 10.1 114.1 10.2 C 114.8 10.3 115.8 10.3 116.6 10.4 C 118.0 10.1 118.7 10.3 117.3 10.1 C 119.4 9.9 119.9 10.0 121.1 10.0 C 118.2 10.4 115.5 10.4 115.4 10.8 C 114.4 10.7 113.7 10.6 112.9 10.6 C 112.6 10.8 109.4 11.2 109.1 10.9 C 111.3 10.8 113.5 10.3 111.6 10.3 C 106.2 11.0 103.2 10.9 98.6 11.8 C 98.5 11.7 98.8 11.5 98.0 11.6 C 98.0 11.7 97.8 11.9 97.4 12.0 C 96.0 12.2 95.1 12.2 93.2 12.5 C 93.3 12.3 93.0 12.2 91.9 12.3 C 91.3 12.6 89.5 13.4 88.4 13.5 C 89.5 13.3 88.0 13.2 87.2 13.4 C 87.9 13.6 81.9 14.0 83.7 14.1 C 81.3 14.5 80.2 14.6 80.2 14.5 C 79.3 14.7 78.7 14.9 77.9 15.1 C 77.3 14.9 73.4 16.0 72.8 15.9 C 74.2 15.8 74.4 15.3 73.3 15.6 C 72.5 15.9 69.0 17.0 68.4 17.0 C 68.6 16.9 68.8 16.6 70.5 16.1 C 67.5 16.8 67.7 17.2 66.8 17.6 C 66.8 17.3 65.5 17.9 65.1 18.0 C 64.2 18.1 65.1 17.9 65.0 17.7 C 64.0 17.9 63.6 17.9 62.3 18.3 C 62.8 18.4 61.3 18.7 60.8 18.8 C 60.6 19.0 59.9 19.3 58.7 19.7 C 60.2 18.8 52.1 21.2 54.1 20.9 C 52.6 21.6 52.4 21.1 50.5 21.8 C 50.2 22.1 49.0 22.3 50.1 22.2 C 49.3 22.5 48.4 22.7 48.1 22.8 C 47.7 22.8 47.3 22.9 45.7 23.6 C 47.2 23.3 42.5 24.7 43.4 24.8 C 41.9 24.8 39.6 26.4 37.1 27.1 C 37.1 27.1 36.5 27.4 36.4 27.6 C 36.1 27.8 39.3 26.5 37.3 27.4 C 34.7 28.4 36.0 27.7 35.6 27.7 C 29.1 30.8 22.6 34.6 18.3 38.0 C 18.8 37.6 18.8 37.7 18.0 38.5 C 16.5 39.1 12.7 43.4 12.3 44.1 C 11.8 44.3 10.6 46.6 10.3 46.9 C 10.5 46.5 10.8 45.5 10.3 46.4 C 10.2 47.1 9.6 47.7 9.4 48.7 C 8.9 48.9 8.3 51.6 8.3 50.3 C 8.1 50.8 8.0 51.0 7.9 51.3 C 8.1 51.4 7.9 51.9 8.3 51.1 C 7.5 53.3 7.7 53.9 7.5 55.6 C 7.7 55.9 7.8 54.6 7.9 55.6 C 7.8 55.6 7.8 55.6 7.7 55.6 C 7.7 56.0 7.8 56.1 7.7 56.3 C 7.6 56.2 7.6 55.7 7.3 55.6 C 7.4 56.5 7.2 57.1 7.4 57.4 C 7.3 56.2 7.8 57.0 7.7 57.7 C 7.5 57.1 8.4 60.5 9.0 61.6 C 8.9 62.2 8.5 60.4 8.3 60.6 C 9.1 62.6 9.1 62.5 9.4 62.6 C 9.9 63.8 10.0 64.3 11.0 65.5 C 11.5 66.4 10.5 65.2 11.1 66.0 C 11.5 66.5 11.7 66.6 12.3 67.3 C 13.5 69.6 19.0 73.5 21.7 76.3 C 20.5 75.2 22.2 76.3 24.0 77.4 C 24.0 77.5 23.8 77.5 24.4 77.9 C 24.4 77.7 25.0 78.0 26.3 78.8 C 26.3 78.9 26.0 78.9 26.7 79.3 C 27.4 79.4 28.9 80.5 30.0 80.9 C 30.3 81.4 27.6 79.8 27.3 79.8 C 30.4 81.8 31.1 81.8 33.8 83.2 C 32.4 82.5 34.8 83.9 35.1 84.2 C 34.6 83.6 36.9 84.5 35.4 83.7 C 36.4 84.1 38.1 84.8 38.3 85.0 C 37.7 84.8 36.8 84.4 36.7 84.4 C 38.1 85.0 39.8 86.0 40.6 86.1 C 39.6 85.6 39.1 85.3 39.1 85.2 C 39.5 85.2 40.0 85.4 40.8 85.6 C 38.3 85.3 45.1 87.6 45.6 87.6 C 46.1 88.2 46.5 88.4 46.2 88.4 C 49.2 89.5 49.3 89.3 50.3 89.5 C 50.0 89.7 49.5 89.8 51.1 90.5 C 50.9 90.0 52.8 90.7 52.3 90.2 C 56.5 91.4 57.4 92.0 60.0 92.7 C 60.1 92.7 59.3 92.4 60.1 92.6 C 61.3 93.0 62.3 93.4 63.1 93.7 C 63.9 93.7 62.9 93.4 63.7 93.6 C 65.7 94.3 65.1 94.5 66.9 95.1 C 69.1 95.5 68.3 95.4 69.7 95.5 C 69.1 95.3 68.4 95.0 69.2 95.2 C 70.5 95.7 71.0 96.1 71.3 96.2 C 70.3 96.0 69.5 95.8 69.1 95.6 C 68.7 95.7 67.3 95.4 68.4 95.8 C 67.1 95.4 65.5 95.0 63.5 94.5 C 64.1 94.9 61.8 94.1 62.4 94.5 C 64.6 95.1 65.1 95.4 67.2 95.9 C 66.8 95.5 69.1 96.2 69.5 96.3 C 69.5 96.2 71.0 96.6 70.7 96.3 C 72.4 96.6 72.3 96.8 74.0 97.1 C 74.1 97.2 73.9 97.3 74.5 97.4 C 75.2 97.3 75.7 97.8 76.2 97.9 C 75.9 97.5 78.4 98.2 78.6 98.0 C 77.9 97.9 77.0 97.7 76.9 97.6 C 79.7 98.2 77.5 97.5 77.0 97.2 C 77.0 97.4 76.0 97.5 75.8 97.2 C 78.2 97.5 72.6 96.1 74.7 96.7 C 76.5 97.1 76.4 96.9 78.2 97.3 C 80.2 98.2 77.6 97.9 79.7 98.7 C 81.0 98.7 82.0 98.9 82.1 98.7 C 82.4 98.9 82.7 99.0 83.2 99.2 C 83.8 99.1 81.5 98.6 83.3 98.9 C 84.2 99.1 83.1 99.2 85.0 99.5 C 85.8 99.4 82.7 98.8 84.5 99.1 C 86.2 99.8 84.1 98.9 86.2 99.2 C 86.4 99.3 86.7 99.4 87.4 99.5 C 87.5 99.7 87.2 99.8 88.0 99.9 C 88.4 99.6 88.7 100.2 90.3 100.4 C 91.3 100.2 88.7 100.0 89.2 99.8 C 91.0 100.4 92.1 100.2 92.8 100.4 C 91.3 100.4 95.1 100.9 95.2 101.2 C 94.8 100.8 95.6 101.1 97.7 101.1 C 97.8 101.6 100.2 101.6 100.7 102.0 C 101.0 101.9 101.6 101.9 102.0 101.8 C 101.2 101.7 100.5 101.6 100.8 101.5 C 101.4 101.6 102.0 101.7 102.6 101.8 C 103.6 102.1 100.9 102.3 105.0 102.7 C 104.6 102.3 106.4 102.5 107.5 102.5 C 107.4 102.2 105.9 102.3 105.7 102.1 C 107.1 102.1 108.6 102.5 109.4 102.7 C 111.9 102.8 114.7 103.3 118.3 103.5 C 119.1 103.7 115.3 103.4 117.6 103.7 C 118.6 103.8 118.2 103.6 119.5 103.7 C 118.2 104.7 129.1 104.6 129.8 105.1 C 130.2 104.9 133.3 105.2 133.0 104.9 C 130.9 105.0 129.5 104.6 128.5 104.4 C 126.6 104.4 130.3 104.7 128.5 104.7 C 128.3 104.5 125.7 104.5 125.9 104.3 C 128.7 104.5 124.5 104.0 126.6 103.8 C 129.2 104.1 134.3 104.1 133.1 104.3 C 133.1 104.2 131.9 104.1 131.8 104.2 C 134.7 104.5 136.4 104.4 137.6 104.3 C 138.9 104.5 144.1 104.3 142.8 104.4 C 143.2 104.7 139.7 104.3 140.2 104.5 C 145.6 104.8 145.7 104.6 149.3 104.8 C 148.1 104.5 153.0 104.4 152.6 104.5 C 152.6 104.7 153.6 104.9 155.8 104.7 C 155.5 104.9 156.6 105.0 157.8 105.1 C 158.3 104.8 156.8 104.9 157.1 104.7 C 158.1 104.7 159.3 104.6 160.4 104.6 C 160.4 104.7 160.2 104.9 161.0 104.9 C 162.2 104.7 166.6 104.4 166.2 104.5 C 164.4 104.9 169.2 104.7 166.2 105.0 C 167.0 105.0 167.1 105.1 168.2 105.0 C 168.2 104.9 168.2 104.8 168.2 104.7 C 170.6 104.6 169.4 105.1 171.4 105.0 C 171.6 104.9 172.5 104.8 172.7 104.7 C 171.9 104.7 171.9 104.8 170.8 104.9 C 172.0 104.4 168.6 104.7 168.8 104.4 C 171.1 104.3 171.1 104.6 172.0 104.7 C 174.9 104.4 173.5 104.5 176.6 104.5 C 176.6 104.4 175.8 104.4 175.9 104.2 C 179.6 104.2 179.2 104.7 181.7 104.3 C 181.2 104.4 178.9 104.7 180.5 104.6 C 182.2 104.4 182.7 104.1 184.9 104.0 C 185.1 104.0 184.9 104.2 185.6 104.2 C 186.6 104.0 186.6 103.8 187.5 103.6 C 187.7 103.7 188.9 103.6 189.4 103.5 C 190.2 103.6 189.1 103.7 190.1 103.7 C 192.0 103.6 192.9 102.9 194.5 102.9 C 194.4 103.2 196.1 102.9 197.7 102.7 C 197.9 103.0 201.2 102.6 203.3 102.4 C 202.8 102.2 205.0 102.1 204.5 101.9 C 203.5 102.0 202.9 102.0 202.7 101.9 C 205.1 101.6 205.9 102.1 207.6 101.4 C 208.5 101.5 209.7 101.5 211.3 101.3 C 211.5 101.2 208.4 101.5 210.1 101.2 C 210.2 101.3 210.8 101.2 211.3 101.0 C 211.1 101.3 212.4 101.2 213.2 101.2 C 214.6 100.8 217.6 100.7 216.2 100.6 C 218.4 100.3 217.0 100.9 218.7 100.7 C 217.8 100.5 220.7 100.0 219.2 100.0 C 221.5 99.6 221.4 100.0 220.5 100.3 C 222.6 100.0 223.0 99.7 224.1 99.7 C 223.0 99.6 226.2 98.9 224.6 99.3 C 224.1 99.7 226.5 99.1 227.0 99.1 C 226.2 99.1 227.3 98.9 225.8 99.0 C 227.3 98.7 229.6 98.2 231.1 98.2 C 232.9 97.7 234.7 97.3 233.9 97.7 C 235.7 97.3 235.0 97.4 236.8 97.1 C 236.8 97.0 236.3 97.1 236.2 97.0 C 238.6 96.5 238.2 96.8 241.3 96.0 C 241.0 96.4 243.0 95.9 243.6 96.0 C 242.3 96.3 241.3 96.4 240.2 96.6 C 240.0 96.8 241.1 96.6 240.3 96.9 C 240.1 96.8 239.7 96.9 239.2 97.0 C 241.2 96.7 236.6 98.0 238.0 97.4 C 238.0 97.4 238.2 97.4 238.6 97.3 C 238.2 97.2 238.2 97.3 238.5 96.9 C 237.5 97.3 236.6 97.1 236.3 97.4 C 236.3 97.5 237.3 97.3 237.4 97.3 C 234.9 98.1 236.6 97.2 234.6 97.7 C 234.2 98.1 235.3 97.9 235.8 98.0 C 233.9 98.4 232.3 98.7 231.7 98.6 C 230.0 99.1 231.9 98.8 230.7 99.2 C 230.0 99.2 230.0 99.0 228.8 99.2 C 227.6 99.6 229.6 99.3 228.3 99.6 C 226.9 99.7 229.2 99.0 227.0 99.4 C 227.6 99.7 225.1 99.7 225.3 99.9 C 226.6 99.6 226.6 100.0 225.9 99.8 C 223.0 100.0 221.1 101.3 218.1 101.2 C 218.2 101.2 217.7 101.3 217.6 101.4 C 219.8 101.2 223.0 100.7 223.6 101.0 C 225.4 100.6 225.1 100.4 225.4 100.3 C 227.4 100.2 227.3 100.3 226.1 100.9 C 222.7 101.5 221.2 101.6 218.9 101.8 C 217.7 102.2 219.0 101.9 219.5 102.0 C 212.4 102.9 217.9 102.7 215.3 103.0 C 215.4 102.9 214.8 102.9 214.1 103.0 C 214.1 103.1 213.0 103.2 212.9 103.3 C 213.4 103.3 213.6 103.3 213.5 103.4 C 211.7 103.7 212.4 103.4 212.3 103.2 C 213.6 103.1 214.5 102.9 214.7 102.7 C 212.9 103.1 211.5 103.1 210.4 103.5 C 208.7 103.4 211.2 102.7 210.3 102.5 C 210.5 102.3 209.2 103.3 207.9 103.6 C 205.7 103.8 205.6 104.1 203.5 104.4 C 203.0 104.2 205.6 104.0 205.4 103.8 C 204.8 103.9 204.7 103.8 204.1 103.9 C 202.6 104.1 202.8 104.3 201.6 104.5 C 201.0 104.3 200.6 104.5 199.8 104.7 C 198.4 104.7 200.6 104.4 199.1 104.5 C 197.6 104.6 196.5 105.1 196.0 105.1 C 195.8 105.0 196.1 104.8 195.3 104.9 C 193.6 105.2 193.1 105.3 195.4 105.2 C 193.4 105.4 192.5 105.5 192.8 105.8 C 195.8 105.5 196.6 105.4 198.0 105.6 C 198.5 105.3 199.4 105.4 200.5 105.3 C 199.8 105.0 201.8 105.2 202.4 104.9 C 201.6 104.9 200.9 105.0 200.4 104.9 C 203.6 104.6 203.5 104.7 206.0 104.0 C 206.0 104.1 206.4 104.1 206.7 104.1 C 205.9 104.3 203.6 104.5 203.6 104.8 C 205.4 104.8 206.0 104.3 208.0 104.4 C 208.8 104.1 206.3 104.3 208.0 104.1 C 208.8 104.1 209.8 104.1 211.1 104.1 C 212.4 103.8 213.0 103.6 214.1 103.4 C 214.2 103.5 214.4 103.5 215.4 103.4 C 215.3 103.3 214.3 103.3 215.4 103.1 C 218.6 103.0 220.8 102.8 223.9 102.1 C 222.8 102.3 220.2 102.4 221.5 102.2 C 222.9 102.2 224.8 101.5 226.2 101.5 C 226.7 101.5 224.5 101.7 225.1 102.0 C 226.5 101.8 227.3 101.6 228.0 101.6 C 228.0 101.4 229.6 101.2 229.2 101.0 C 228.0 101.2 227.7 101.6 227.4 101.5 C 228.3 100.7 231.8 100.9 233.9 100.5 C 235.3 100.1 232.8 100.5 234.4 100.1 C 235.4 99.7 236.1 100.2 234.5 100.6 C 233.4 100.7 233.1 101.1 232.8 100.9 C 232.3 101.0 231.6 101.1 231.7 101.2 C 232.5 101.1 232.3 101.2 232.8 101.2 C 231.7 101.4 231.6 101.9 230.5 101.8 C 231.2 101.7 231.4 101.6 231.7 101.4 C 228.6 102.1 227.5 102.1 225.7 102.3 C 226.7 102.3 225.7 102.4 225.8 102.6 C 227.2 102.3 229.8 102.0 228.2 102.4 C 227.1 102.2 226.4 103.2 225.3 103.1 C 226.1 102.9 225.9 102.8 226.4 102.6 C 225.2 102.8 225.2 102.6 224.0 102.8 C 220.1 103.8 217.0 103.7 210.6 105.1 C 208.4 105.4 212.6 104.7 212.4 104.5 C 211.8 104.6 211.6 104.6 211.2 104.6 C 211.1 104.9 210.0 104.8 209.3 105.1 C 209.4 104.8 206.4 105.4 204.9 105.4 C 204.9 105.5 205.1 105.6 204.3 105.7 C 199.7 105.9 191.3 107.1 187.7 107.1 C 187.9 107.3 186.3 107.4 185.9 107.6 C 183.6 107.7 184.6 107.5 181.3 107.9 C 179.7 108.0 181.6 107.7 181.9 107.6 C 177.0 108.0 172.7 108.0 169.6 108.4 C 168.0 108.5 169.6 108.2 166.3 108.2 C 166.2 108.6 161.1 108.1 160.4 108.6 C 158.4 108.6 154.8 108.2 156.4 108.5 C 153.8 108.5 155.5 108.2 154.5 108.2 C 152.6 108.2 155.0 108.8 153.2 108.8 C 153.4 108.6 151.8 108.7 150.6 108.4 C 152.0 108.5 153.0 108.4 153.2 108.3 C 151.9 108.4 152.0 108.2 149.9 108.2 C 148.4 108.4 144.0 108.5 142.7 108.1 C 142.6 108.2 143.0 108.3 143.3 108.4 C 142.0 108.4 140.5 108.0 140.7 108.4 C 137.8 108.3 136.5 108.0 134.8 108.2 C 133.6 108.2 135.3 107.9 131.5 107.7 C 131.5 108.0 124.9 107.6 123.1 107.2 C 123.1 107.6 122.7 107.2 121.9 107.1 C 121.8 107.2 121.9 107.4 121.2 107.3 C 121.1 107.2 120.5 107.2 119.9 107.2 C 120.4 106.9 117.5 107.1 117.4 106.9 C 117.9 106.9 118.0 106.7 117.4 106.6 C 117.2 106.9 114.5 106.2 114.8 106.5 C 115.4 106.6 117.2 106.7 116.7 106.9 C 114.2 106.8 115.2 106.5 113.5 106.3 C 113.6 106.4 114.6 106.6 113.5 106.6 C 111.8 106.4 113.4 106.5 112.3 106.2 C 111.4 106.2 109.7 106.2 109.0 106.1 C 109.2 106.1 108.7 105.9 108.4 105.9 C 105.2 105.4 97.9 104.8 94.8 104.0 C 94.6 104.1 93.9 104.0 94.1 104.2 C 92.3 103.8 92.4 103.9 90.5 103.5 C 90.5 103.6 90.5 103.7 90.5 103.8 C 88.0 103.6 90.3 103.4 88.7 103.2 C 88.4 103.7 87.8 102.9 86.3 102.7 C 86.1 102.7 85.4 102.7 85.6 102.9 C 83.3 102.5 83.5 102.1 81.5 101.9 C 82.0 102.0 82.2 102.8 81.9 103.0 C 81.6 102.8 81.0 102.6 80.2 102.4 C 81.2 102.4 80.8 101.4 78.0 101.1 C 79.5 101.4 80.1 101.6 79.7 101.7 C 77.6 101.3 76.9 101.0 75.1 100.6 C 74.7 100.8 76.0 101.1 75.5 101.3 C 75.1 101.2 74.8 101.2 74.9 101.3 C 73.0 100.8 73.0 100.7 70.9 100.3 C 71.0 100.2 71.4 100.3 72.1 100.5 C 72.0 100.3 72.1 100.1 73.3 100.4 C 73.4 100.6 72.7 100.7 74.4 100.9 C 74.4 100.8 74.5 100.7 74.5 100.6 C 73.2 100.3 70.3 99.4 70.0 99.5 C 70.5 99.7 71.5 100.0 71.0 100.1 C 68.8 99.6 68.3 99.1 66.6 98.6 C 63.5 97.9 58.3 96.4 58.8 97.0 C 57.1 96.4 57.7 96.5 56.2 96.0 C 56.6 96.4 54.4 95.6 54.5 95.9 C 56.4 96.4 55.8 96.3 57.7 96.7 C 57.6 96.9 57.3 96.9 56.5 96.7 C 56.5 96.6 55.7 96.3 54.5 96.0 C 54.6 96.1 55.7 96.7 54.4 96.3 C 54.3 96.2 54.0 96.1 53.4 95.9 C 53.4 95.7 53.4 95.6 53.5 95.5 C 54.2 95.6 55.1 95.8 55.6 95.9 C 55.1 95.7 55.0 95.6 54.6 95.5 C 54.2 95.5 52.2 94.7 52.0 94.9 C 52.8 95.1 53.3 95.4 52.4 95.2 C 52.3 95.1 50.9 94.6 50.3 94.5 C 52.1 95.2 51.4 95.0 52.3 95.5 C 51.2 95.3 50.8 95.0 50.4 94.8 C 50.1 94.7 49.9 94.6 49.6 94.5 C 49.2 94.4 49.2 94.4 48.2 94.1 C 48.2 93.8 48.3 93.7 48.9 93.8 C 48.3 93.3 45.9 92.5 43.8 91.8 C 41.8 91.1 39.9 90.5 39.0 90.1 C 40.2 90.6 41.8 90.9 39.9 90.1 C 39.9 90.2 38.5 89.6 38.2 89.6 C 37.4 89.7 38.9 90.6 40.3 91.5 C 38.8 90.8 38.4 90.8 37.0 90.2 C 36.6 89.9 38.2 90.1 36.5 89.4 C 35.9 89.6 33.2 88.0 32.5 88.0 C 33.7 88.5 34.5 89.0 33.2 88.5 C 33.5 88.4 31.1 87.4 31.1 87.2 C 33.0 88.0 33.6 88.0 34.9 88.6 C 33.3 87.9 36.1 88.9 33.5 87.7 C 32.3 87.4 31.6 87.3 29.0 86.0 C 28.1 85.5 29.1 85.7 27.8 85.0 C 28.0 85.4 25.3 84.0 27.0 84.7 C 26.1 84.2 25.7 83.9 25.2 83.6 C 26.3 84.5 20.3 81.3 21.1 82.0 C 21.3 81.7 21.1 81.3 20.9 81.0 C 19.7 80.6 18.5 79.6 16.0 77.7 C 15.9 78.0 15.6 77.4 14.5 76.6 C 14.2 76.5 15.1 77.3 14.4 76.8 C 13.3 75.7 13.3 75.7 13.1 75.4 C 12.3 74.7 11.8 74.1 11.5 73.7 C 11.3 73.7 11.5 74.0 11.7 74.3 C 9.1 71.3 7.7 70.1 6.1 67.5 C 6.7 68.7 7.2 68.7 6.6 67.8 C 6.3 67.4 5.9 66.9 5.7 66.7 C 5.8 67.4 5.8 67.1 5.1 65.8 C 4.4 64.7 5.0 66.4 4.5 65.5 C 4.2 64.5 4.6 65.0 4.4 64.5 C 4.2 64.0 4.0 63.5 3.8 63.1 C 4.0 64.0 3.5 63.1 3.2 62.3 C 3.6 62.8 3.5 62.4 3.0 60.8 C 3.1 60.6 3.4 61.5 3.2 60.8 C 3.2 60.4 2.5 59.2 2.6 58.0 C 2.7 58.4 2.7 58.6 2.8 58.5 C 2.4 57.3 2.7 56.3 2.8 55.2 C 2.6 56.3 2.4 55.7 2.3 56.2 C 2.5 55.0 2.3 53.7 2.7 52.9 C 2.4 54.4 3.1 53.0 3.3 52.0 C 3.1 51.7 2.9 53.4 2.7 52.9 C 2.5 52.3 3.1 51.1 3.0 50.5 C 2.9 50.6 2.9 51.3 2.7 51.4 C 2.9 50.5 2.6 51.7 2.7 50.9 C 3.1 50.5 2.8 49.9 3.0 49.5 C 3.2 48.9 4.0 47.8 4.0 47.3 C 3.9 47.2 3.6 48.1 3.5 48.1 C 4.3 45.5 5.0 45.0 6.2 42.7 C 6.4 42.5 6.8 42.1 7.3 41.5 C 7.1 41.5 7.4 41.0 7.7 40.5 C 8.5 39.7 9.4 38.9 10.5 37.8 C 10.5 38.1 10.0 38.7 11.5 37.2 C 11.5 37.1 10.9 37.7 11.4 37.1 C 11.5 37.1 11.8 36.8 11.9 36.7 C 11.8 36.6 11.8 36.6 11.8 36.6 C 11.3 37.0 10.9 37.4 10.5 37.8 C 10.5 37.7 10.3 37.7 9.9 38.0 C 11.5 36.1 11.8 36.6 12.9 35.3 C 13.4 35.3 13.9 35.0 13.0 36.2 C 14.0 35.1 14.8 34.3 15.0 33.9 C 13.6 35.1 13.8 34.5 13.4 34.8 C 14.3 34.0 14.2 33.9 14.6 33.5 C 15.8 32.7 13.7 34.7 15.9 33.1 C 14.1 34.1 17.2 31.8 18.4 31.0 C 18.2 31.1 17.7 31.4 18.3 30.8 C 21.5 28.4 21.7 29.3 23.7 27.7 C 23.6 27.9 24.6 27.3 25.1 27.1 C 23.3 28.3 22.9 28.6 22.1 29.1 C 22.3 29.1 22.8 28.8 23.4 28.5 C 23.3 28.4 23.8 28.1 24.6 27.7 C 25.1 27.3 24.7 27.0 26.2 26.0 C 26.3 26.0 26.2 26.2 27.0 25.8 C 27.6 25.3 26.5 26.5 29.9 24.7 C 29.2 24.9 28.8 25.0 29.0 24.7 C 30.6 23.8 30.3 24.1 32.6 22.9 C 33.6 22.9 31.2 24.1 30.7 24.6 C 32.2 23.8 33.4 23.0 35.1 22.4 C 33.7 22.8 34.9 22.1 36.4 21.4 C 37.8 20.8 36.5 21.7 38.2 21.1 C 39.5 20.5 40.1 20.0 38.8 20.4 C 41.9 19.2 41.0 19.3 43.8 18.3 C 43.9 18.4 43.1 18.7 42.1 19.0 C 42.3 19.0 42.0 19.3 43.0 18.9 C 43.9 18.5 45.3 17.9 46.8 17.4 C 48.3 16.8 49.1 16.4 49.7 16.2 C 52.1 15.9 54.7 14.5 57.1 14.0 C 56.2 14.5 60.3 13.2 61.5 13.1 C 62.2 12.8 64.4 11.7 63.6 12.1 C 63.9 12.4 65.3 11.9 66.5 11.8 C 66.5 11.7 66.5 11.6 66.5 11.5 C 69.0 10.9 69.6 11.0 70.4 11.0 C 73.5 10.1 77.0 9.7 80.9 8.7 C 81.9 8.8 82.8 8.6 85.1 8.4 C 85.0 8.1 86.9 7.8 88.7 7.5 C 88.2 7.4 89.9 7.2 89.8 7.0 C 88.2 7.2 88.8 6.9 88.0 6.9 C 90.1 6.8 91.1 6.1 92.8 6.1 C 90.7 6.6 90.2 7.0 89.9 7.4 C 92.4 6.9 93.7 6.8 94.2 7.0 C 94.4 6.8 94.1 6.7 93.5 6.7 C 94.3 6.6 95.2 6.4 96.0 6.3 C 96.2 6.4 95.1 6.7 96.0 6.6 C 96.6 6.4 97.2 6.2 97.8 6.1 C 98.6 6.2 96.9 6.4 96.7 6.5 C 100.0 6.2 98.5 5.9 100.3 5.6 C 100.8 5.7 100.7 5.9 102.2 5.8 C 102.8 5.6 103.0 5.3 104.7 5.1 C 105.8 5.0 104.7 5.5 106.0 5.4 C 106.1 5.2 106.7 5.2 107.2 5.2 C 107.2 5.1 107.7 4.9 108.4 4.8 C 108.6 4.9 109.9 4.7 110.4 4.6 C 110.5 4.7 112.5 4.8 112.9 4.6 C 112.9 4.5 111.8 4.7 111.7 4.6 C 113.1 4.5 114.1 4.3 114.8 4.2 C 115.3 4.7 117.6 4.1 120.6 4.1 C 122.4 3.8 120.2 3.7 122.5 3.4 C 123.9 3.5 122.2 3.6 122.5 3.9 C 122.9 3.9 125.1 3.9 125.1 3.7 C 125.1 3.6 124.0 3.7 123.9 3.6 C 125.5 3.3 125.5 3.6 126.4 3.6 C 126.3 3.4 127.4 3.3 127.7 3.1 C 132.4 2.7 132.3 3.2 134.2 3.3 C 134.2 3.2 135.4 3.1 135.5 3.0 C 134.2 3.2 132.4 3.1 134.2 2.9 C 133.9 3.1 136.6 2.8 136.8 2.7 C 136.5 2.6 134.8 2.8 135.5 2.5 C 138.0 2.3 137.0 2.8 138.8 2.5 C 139.0 2.7 137.9 2.7 137.5 2.8 C 138.2 2.8 139.3 2.7 139.4 2.8 C 138.5 2.9 138.5 3.1 138.1 3.3 C 139.4 3.0 141.7 3.1 140.1 2.9 C 142.7 2.9 145.2 2.6 143.4 2.5 C 145.5 2.3 144.3 2.7 146.0 2.5 C 145.8 2.8 145.3 2.9 146.7 3.1 C 146.9 2.9 148.1 2.9 147.9 2.7 C 151.1 2.6 152.0 2.9 153.3 3.1 C 152.1 2.7 153.6 3.0 155.2 2.8 C 156.1 2.9 155.2 3.2 157.8 3.1 C 155.0 2.8 161.0 3.1 159.8 2.7 C 163.0 2.9 163.0 2.9 166.4 3.0 C 166.0 3.2 165.2 3.3 163.7 3.3 C 164.8 3.1 160.9 3.0 161.1 3.1 C 161.1 3.2 161.1 3.3 161.1 3.3 C 163.6 3.3 165.3 3.4 166.3 3.6 C 166.9 3.4 168.0 3.4 167.6 3.1 C 170.0 3.4 172.5 3.1 173.6 3.4 C 172.7 3.4 172.0 3.4 172.2 3.5 C 173.2 3.5 174.3 3.5 174.2 3.3 C 172.3 3.1 171.9 3.1 171.0 3.2 C 171.8 3.1 169.1 2.8 171.0 2.8 C 170.9 3.2 174.9 2.8 173.6 3.0 C 171.5 3.1 175.9 3.3 176.1 3.5 C 176.1 3.5 176.1 3.5 176.1 3.5 Z M 224.5 102.7 C 226.3 102.3 224.1 102.4 222.7 102.7 C 223.2 102.7 223.3 102.8 223.4 102.9 C 223.9 102.8 224.4 102.6 224.5 102.7 C 224.5 102.7 224.5 102.7 224.5 102.7 Z M 204.5 102.1 C 203.9 102.4 207.0 101.9 208.3 101.8 C 207.9 101.7 207.5 101.7 208.3 101.6 C 206.9 101.6 206.5 102.0 204.5 102.1 C 204.5 102.1 204.5 102.1 204.5 102.1 Z M 133.0 105.3 C 133.5 105.2 134.8 105.2 134.9 105.3 C 135.7 105.4 135.5 105.2 135.6 105.1 C 137.1 105.2 135.2 105.5 137.6 105.5 C 138.5 105.0 133.5 104.7 133.0 105.3 C 133.0 105.3 133.0 105.3 133.0 105.3 Z M 151.2 6.6 C 152.2 6.8 150.0 7.0 150.6 7.2 C 154.2 7.0 151.4 6.7 156.4 6.8 C 156.1 6.7 155.7 6.6 155.8 6.5 C 153.5 6.6 153.3 6.8 153.8 6.4 C 152.8 6.4 152.5 6.9 151.2 6.6 C 151.2 6.6 151.2 6.6 151.2 6.6 Z M 197.5 9.7 C 197.2 9.6 196.9 9.5 196.9 9.4 C 195.4 9.4 195.7 9.5 193.7 9.2 C 194.0 9.6 195.9 9.7 197.5 9.7 C 197.5 9.7 197.5 9.7 197.5 9.7 Z M 300.1 50.0 C 300.2 50.2 300.2 50.4 300.3 50.6 C 300.4 50.4 301.0 51.0 300.4 49.8 C 300.4 49.8 300.4 50.0 300.5 50.2 C 300.3 50.0 300.1 49.4 300.0 49.6 C 300.1 49.9 300.1 49.9 300.1 50.0 C 300.1 50.0 300.1 50.0 300.1 50.0 Z M 285.1 79.1 C 287.2 77.6 281.4 80.4 285.1 79.1 C 285.1 79.1 285.1 79.1 285.1 79.1 C 285.1 79.1 285.1 79.1 285.1 79.1 Z M 291.1 78.5 C 291.2 78.6 291.7 78.2 291.6 78.2 C 293.4 77.0 291.8 78.3 292.8 77.7 C 294.0 76.5 291.9 77.9 293.5 76.5 C 293.1 76.6 292.1 77.8 291.1 78.5 C 291.1 78.5 291.1 78.5 291.1 78.5 Z M 21.3 29.3 C 19.8 30.3 19.5 30.8 19.4 31.2 C 20.4 30.5 21.3 30.0 21.7 29.9 C 23.7 28.5 20.3 30.6 19.9 30.8 C 20.0 30.4 21.5 29.5 21.3 29.3 C 21.3 29.3 21.3 29.3 21.3 29.3 Z M 16.5 32.7 C 16.0 33.3 15.1 34.0 15.2 34.2 C 16.0 33.5 16.2 33.5 16.3 33.6 C 17.0 32.8 15.9 33.5 16.5 32.7 C 16.5 32.7 16.5 32.7 16.5 32.7 Z M 26.5 26.6 C 25.7 27.1 26.1 27.1 26.0 27.3 C 27.2 26.6 27.4 26.6 28.7 25.9 C 28.7 25.9 28.6 25.8 28.6 25.7 C 27.5 26.2 27.5 26.4 26.6 26.8 C 26.6 26.8 26.5 26.7 26.5 26.6 C 26.5 26.6 26.5 26.6 26.5 26.6 Z M 12.5 36.5 C 10.2 38.6 9.7 39.9 8.9 41.5 C 10.1 39.9 11.0 38.2 12.3 37.2 C 13.6 35.8 11.7 37.5 11.7 37.4 C 11.7 37.3 12.2 36.8 12.5 36.5 C 12.5 36.5 12.5 36.5 12.5 36.5 Z M 2.9 56.6 C 2.8 57.1 3.2 57.9 3.4 59.3 C 3.5 59.0 3.5 58.8 3.6 58.8 C 3.3 56.9 3.0 58.1 2.9 56.6 C 2.9 56.6 2.9 56.6 2.9 56.6 Z M 6.9 67.6 C 7.7 68.7 6.7 67.0 7.2 67.5 C 6.4 66.2 5.7 64.9 5.5 65.0 C 6.4 66.3 6.6 66.6 6.9 67.6 C 6.9 67.6 6.9 67.6 6.9 67.6 Z M 13.4 75.0 C 14.8 76.1 13.1 74.3 13.8 74.6 C 13.3 74.1 13.3 74.4 13.2 74.4 C 12.9 74.0 12.6 73.7 12.0 73.1 C 12.3 73.6 13.8 75.0 13.4 75.0 C 13.4 75.0 13.4 75.0 13.4 75.0 Z M 68.3 12.1 C 67.4 12.4 67.7 12.6 65.6 13.0 C 68.8 12.3 67.2 13.4 71.3 12.3 C 70.7 12.4 71.1 12.2 71.3 12.2 C 72.9 11.7 69.8 12.4 71.2 11.9 C 70.1 12.1 70.8 12.3 69.6 12.6 C 68.4 12.6 67.6 12.6 68.3 12.1 C 68.3 12.1 68.3 12.1 68.3 12.1 Z M 71.4 12.6 C 72.6 12.4 72.5 11.9 73.1 12.0 C 73.6 11.9 73.5 11.8 73.6 11.7 C 73.1 11.9 73.1 11.8 73.0 11.8 C 72.0 12.1 71.1 12.4 71.4 12.6 C 71.4 12.6 71.4 12.6 71.4 12.6 Z M 60.9 15.2 C 62.7 14.5 63.3 14.6 64.1 14.1 C 64.9 14.3 65.3 13.7 66.4 13.7 C 68.2 13.2 66.8 13.4 66.3 13.4 C 68.0 12.9 66.8 13.6 68.6 13.1 C 68.8 12.7 66.6 13.3 66.8 13.0 C 65.4 13.3 65.4 13.5 64.6 13.8 C 64.0 13.9 64.1 13.7 64.0 13.7 C 62.5 14.1 62.5 13.9 61.3 14.3 C 61.0 14.6 61.6 14.5 63.0 14.1 C 61.5 14.6 60.9 14.9 59.2 15.3 C 60.4 14.7 55.0 16.2 55.5 16.4 C 57.0 16.1 56.5 16.0 57.1 15.7 C 59.0 15.4 60.1 15.1 60.9 15.2 C 60.9 15.2 60.9 15.2 60.9 15.2 Z M 27.6 27.0 C 27.0 27.2 26.4 27.5 25.6 28.0 C 25.4 27.8 26.6 27.2 25.4 27.7 C 24.0 28.4 23.8 28.7 23.0 29.2 C 23.5 29.0 26.4 27.6 25.0 28.6 C 25.5 28.4 26.4 27.9 27.7 27.3 C 26.1 27.7 29.7 26.2 31.1 25.5 C 30.8 25.3 33.7 24.4 34.7 23.7 C 33.7 23.9 30.8 25.5 29.6 26.1 C 30.2 25.7 26.0 27.3 27.6 27.0 C 27.6 27.0 27.6 27.0 27.6 27.0 Z M 75.9 11.4 C 76.2 11.3 77.5 11.0 76.5 11.1 C 77.0 10.9 78.1 10.9 77.6 10.6 C 78.2 10.5 78.8 10.3 79.3 10.2 C 79.1 10.4 77.5 10.7 78.2 10.8 C 79.4 10.4 78.9 10.6 80.5 10.3 C 79.7 10.7 80.6 10.6 80.1 11.0 C 80.5 10.8 81.9 10.5 81.8 10.3 C 84.0 10.0 81.2 10.8 84.2 10.2 C 84.2 10.4 82.0 10.8 81.3 10.8 C 80.9 11.1 85.0 10.2 87.2 9.9 C 85.2 10.1 86.7 9.6 87.7 9.2 C 88.4 9.2 87.7 9.4 89.0 9.3 C 90.0 9.2 90.5 8.9 90.8 9.0 C 91.6 8.9 91.2 8.7 91.3 8.6 C 92.7 8.4 91.7 8.9 93.8 8.6 C 92.2 8.4 94.0 8.1 96.8 7.8 C 96.6 7.7 95.7 7.8 95.6 7.7 C 95.9 7.5 97.6 7.6 98.0 7.6 C 99.1 7.4 98.4 7.4 97.4 7.5 C 98.0 7.4 98.6 7.2 99.3 7.1 C 96.2 7.4 91.3 8.2 85.8 8.8 C 86.9 8.8 85.7 9.1 84.0 9.3 C 83.8 9.2 84.5 9.0 85.2 8.9 C 83.3 8.9 83.5 9.5 80.5 9.9 C 78.9 10.2 82.3 9.4 80.5 9.6 C 79.4 9.9 78.7 10.2 78.1 10.1 C 76.3 10.6 75.8 11.0 73.0 11.6 C 74.6 11.3 75.5 11.7 77.1 11.3 C 77.1 11.2 76.4 11.3 75.9 11.4 C 75.9 11.4 75.9 11.4 75.9 11.4 Z M 16.4 33.7 C 15.5 34.3 15.2 34.8 15.0 34.9 C 13.6 36.1 15.3 34.9 15.6 34.7 C 16.2 34.2 16.4 33.9 16.4 33.7 C 16.4 33.7 16.4 33.7 16.4 33.7 Z M 141.4 107.7 C 143.8 107.8 143.3 107.5 145.3 107.5 C 143.7 107.4 143.4 107.2 140.7 107.2 C 140.6 107.4 140.6 107.6 141.4 107.7 C 141.4 107.7 141.4 107.7 141.4 107.7 Z M 21.9 30.1 C 23.1 29.0 20.4 31.4 20.2 31.2 C 18.8 32.4 21.8 30.4 20.5 31.6 C 21.7 30.5 22.7 30.2 24.5 29.0 C 24.3 28.9 22.8 29.7 21.4 30.6 C 21.2 30.6 21.9 30.2 21.9 30.1 C 21.9 30.1 21.9 30.1 21.9 30.1 Z M 116.2 105.5 C 114.5 105.6 117.7 106.1 118.7 106.3 C 118.8 106.0 118.3 106.0 116.2 105.5 C 116.2 105.5 116.2 105.5 116.2 105.5 Z M 158.4 107.5 C 159.4 107.1 155.5 107.5 156.4 107.1 C 155.3 107.1 155.2 107.2 155.1 107.3 C 154.5 107.2 152.7 107.3 153.2 107.1 C 152.9 106.9 156.1 107.1 155.1 106.8 C 156.2 106.8 156.2 106.9 157.1 106.9 C 155.2 106.9 156.1 107.2 158.4 107.2 C 158.4 107.0 157.3 107.1 158.4 106.9 C 158.5 107.0 159.8 107.2 159.7 107.5 C 161.7 107.5 160.5 107.1 162.9 107.1 C 162.8 106.9 161.2 106.9 160.3 106.9 C 160.6 106.6 162.9 107.0 162.3 106.7 C 162.8 106.9 164.2 107.0 164.3 107.2 C 162.4 107.3 161.2 107.5 159.7 107.7 C 161.1 107.8 163.1 107.2 165.6 107.4 C 165.3 107.2 166.8 107.2 166.3 107.0 C 168.2 107.0 167.3 107.3 166.9 107.4 C 167.4 107.5 171.1 107.3 170.9 107.1 C 171.1 107.3 175.6 107.1 175.4 106.8 C 176.7 106.9 178.7 106.4 179.3 106.7 C 180.0 106.6 181.6 106.5 183.2 106.4 C 183.6 106.1 180.8 106.4 180.6 106.2 C 180.1 106.1 183.6 106.1 183.2 105.9 C 183.2 105.9 183.2 105.8 183.2 105.8 C 181.8 105.9 180.5 106.1 179.3 106.2 C 178.3 106.3 179.5 106.1 179.2 106.0 C 178.4 106.2 174.2 106.7 174.1 106.3 C 171.3 106.5 169.3 106.5 168.2 106.7 C 166.5 106.7 169.1 106.5 168.2 106.4 C 163.3 106.9 157.3 106.5 153.2 106.9 C 152.3 106.9 152.6 106.7 152.5 106.6 C 146.9 106.7 151.6 107.1 147.2 106.9 C 147.3 106.7 149.4 106.8 149.2 106.5 C 147.7 106.5 147.3 106.7 145.3 106.6 C 145.3 106.7 145.3 106.8 145.3 106.9 C 143.6 106.8 144.3 106.6 143.4 106.4 C 141.3 106.5 141.8 106.6 140.8 106.3 C 138.8 106.3 136.9 106.4 134.9 106.1 C 133.5 106.3 136.0 106.7 138.1 106.8 C 138.0 106.9 137.4 106.9 137.4 107.0 C 135.0 106.7 134.7 106.2 131.0 106.0 C 133.8 106.4 129.5 106.0 129.1 105.8 C 127.5 105.7 128.7 106.1 129.7 106.1 C 129.5 106.2 128.5 106.1 128.4 106.0 C 128.2 106.3 131.7 106.7 135.5 106.7 C 133.7 107.1 138.1 106.8 136.2 107.2 C 139.2 107.3 136.6 106.9 140.0 107.1 C 139.7 106.9 139.1 106.8 138.8 106.7 C 141.4 106.7 140.6 107.1 143.4 107.1 C 143.8 106.9 142.0 106.9 142.0 106.7 C 145.0 107.0 146.0 107.1 147.9 107.4 C 148.3 107.3 147.8 107.0 151.2 107.2 C 151.2 107.3 151.2 107.3 151.2 107.4 C 149.6 107.3 149.2 107.8 153.2 107.8 C 153.4 107.6 152.2 107.6 151.2 107.6 C 151.6 107.5 152.9 107.4 154.5 107.4 C 155.2 107.4 156.1 107.5 155.1 107.5 C 155.7 107.8 156.3 107.3 158.4 107.5 C 158.4 107.5 158.4 107.5 158.4 107.5 Z M 3.5 54.3 C 3.5 54.7 3.5 55.0 3.5 55.7 C 3.8 56.0 3.7 54.8 3.9 54.8 C 3.9 53.8 3.6 54.5 3.5 54.3 C 3.5 54.3 3.5 54.3 3.5 54.3 Z M 8.3 42.3 C 8.1 42.3 7.9 43.0 7.2 44.0 C 7.2 44.4 7.9 43.2 8.0 43.3 C 8.8 42.2 7.4 43.3 8.3 42.3 C 8.3 42.3 8.3 42.3 8.3 42.3 Z M 5.4 47.3 C 5.0 47.7 5.3 47.8 5.6 46.9 C 5.7 47.1 5.7 47.3 5.6 47.9 C 6.1 47.4 5.8 46.8 6.5 45.8 C 6.1 46.1 5.8 46.6 5.4 47.3 C 5.4 47.3 5.4 47.3 5.4 47.3 Z M 4.7 49.1 C 4.6 49.8 4.3 50.1 4.2 51.3 C 4.4 51.0 5.0 48.6 5.1 48.2 C 5.1 47.8 4.1 50.3 4.7 49.1 C 4.7 49.1 4.7 49.1 4.7 49.1 Z M 91.3 102.2 C 91.9 102.3 91.8 102.2 91.9 102.1 C 93.8 102.8 96.4 103.1 94.3 103.1 C 96.3 103.2 98.1 103.8 99.8 104.0 C 101.2 104.3 100.5 103.9 101.7 104.0 C 103.5 104.3 100.7 104.0 101.0 104.2 C 101.4 104.4 102.0 104.1 104.1 104.5 C 103.6 104.0 106.0 104.8 105.4 104.3 C 106.6 104.6 107.0 104.5 108.6 104.6 C 108.4 104.4 106.9 104.3 106.7 104.1 C 106.0 103.8 105.8 104.2 107.3 104.3 C 106.4 104.5 104.3 103.9 103.6 104.0 C 102.8 103.6 105.6 104.2 104.8 103.8 C 104.3 103.8 103.7 103.7 103.6 103.8 C 102.7 103.7 102.1 103.5 101.8 103.3 C 102.3 103.4 102.4 103.5 102.4 103.5 C 103.5 103.6 101.3 103.0 103.7 103.3 C 103.3 103.1 102.2 103.0 102.4 102.9 C 101.7 102.6 102.3 103.5 99.9 102.9 C 98.3 103.0 103.7 103.7 102.3 104.0 C 98.8 103.5 100.8 103.4 98.1 102.9 C 98.1 103.0 98.1 103.2 97.4 103.1 C 97.5 103.2 98.5 103.3 99.2 103.4 C 99.1 103.5 98.1 103.3 97.4 103.2 C 97.5 103.3 98.0 103.4 98.0 103.5 C 95.7 103.1 96.0 102.6 98.1 102.8 C 98.1 102.5 95.2 102.2 94.4 102.2 C 95.2 102.5 94.3 102.3 94.9 102.7 C 95.5 102.7 95.4 102.6 95.6 102.6 C 96.7 102.8 95.7 102.7 95.6 102.8 C 94.3 102.6 94.4 102.4 93.2 102.4 C 93.5 102.4 93.8 102.3 93.8 102.2 C 93.2 102.1 92.5 102.0 92.0 102.0 C 92.0 102.1 91.2 102.0 91.3 102.2 C 91.3 102.2 91.3 102.2 91.3 102.2 Z M 123.8 106.5 C 126.0 106.7 124.8 106.4 123.8 106.3 C 124.3 106.3 125.0 106.3 125.8 106.3 C 125.2 106.2 124.6 106.2 122.6 106.0 C 124.4 105.8 122.6 105.2 119.4 105.0 C 118.4 105.4 121.1 105.7 120.0 105.9 C 122.4 105.9 123.6 106.1 123.8 106.5 C 123.8 106.5 123.8 106.5 123.8 106.5 Z M 15.7 34.8 C 14.8 35.5 13.9 36.3 13.0 37.1 C 13.3 37.2 16.2 34.9 15.7 34.8 C 15.7 34.8 15.7 34.8 15.7 34.8 Z M 101.7 7.1 C 102.3 7.0 102.3 7.0 102.4 7.1 C 104.2 6.8 101.5 7.0 102.3 6.7 C 101.7 6.7 101.1 6.8 100.5 6.9 C 100.4 7.0 103.0 6.8 101.1 7.1 C 101.2 7.2 101.7 7.1 101.7 7.1 C 101.7 7.1 101.7 7.1 101.7 7.1 Z M 3.9 53.4 C 3.9 54.3 4.2 53.8 4.1 55.7 C 4.3 55.0 4.2 54.6 4.3 53.5 C 4.1 53.5 4.0 53.5 3.9 53.4 C 3.9 53.4 3.9 53.4 3.9 53.4 Z M 82.3 101.0 C 83.7 101.6 84.2 101.1 87.1 101.7 C 85.6 101.2 84.0 101.3 82.3 101.0 C 82.3 101.0 82.3 101.0 82.3 101.0 Z M 188.3 105.6 C 187.4 105.6 188.6 105.5 187.0 105.5 C 186.1 105.6 185.7 105.8 184.4 105.9 C 186.3 106.1 189.5 105.5 190.8 105.8 C 192.4 105.7 192.3 105.4 192.7 105.2 C 192.0 105.3 191.6 105.3 191.5 105.2 C 190.6 105.6 189.4 105.2 188.3 105.6 C 188.3 105.6 188.3 105.6 188.3 105.6 Z M 115.6 105.4 C 114.4 105.2 116.4 105.2 116.8 105.1 C 117.7 105.2 117.4 105.4 117.5 105.5 C 118.6 105.6 118.9 105.5 118.8 105.3 C 116.6 105.0 114.1 104.8 115.6 104.6 C 113.6 104.3 114.7 104.8 113.7 104.7 C 112.6 104.5 113.6 104.5 113.7 104.3 C 113.2 104.3 111.7 104.4 111.8 104.1 C 108.8 104.1 110.1 104.6 112.3 105.3 C 114.4 105.2 112.0 104.9 115.6 105.4 C 115.6 105.4 115.6 105.4 115.6 105.4 Z M 38.7 88.4 C 38.9 88.6 40.3 89.1 40.3 89.2 C 42.1 89.7 43.7 90.0 45.5 90.4 C 45.2 90.1 42.8 89.4 43.8 89.9 C 43.1 89.5 41.5 88.8 40.6 88.3 C 39.0 87.6 38.3 87.9 38.2 87.4 C 36.6 86.9 37.5 87.3 35.1 86.2 C 38.8 88.1 33.8 85.7 33.4 85.8 C 35.6 86.8 37.5 87.7 37.3 87.3 C 38.9 88.1 40.8 88.9 41.1 89.3 C 40.9 89.3 39.6 88.8 38.7 88.4 C 38.7 88.4 38.7 88.4 38.7 88.4 Z M 49.1 91.5 C 48.3 91.3 47.6 91.1 46.4 90.7 C 47.1 91.0 47.3 91.2 47.2 91.3 C 49.4 92.0 49.6 91.9 50.0 92.3 C 51.1 92.7 49.8 91.8 51.6 92.6 C 51.5 92.4 50.6 92.2 50.6 92.1 C 50.4 92.2 50.1 92.1 49.1 91.5 C 49.1 91.5 49.1 91.5 49.1 91.5 Z M 65.3 96.7 C 66.7 97.0 64.5 96.4 65.3 96.4 C 65.0 96.3 62.3 95.6 62.7 95.4 C 62.0 94.9 59.1 94.8 59.5 94.5 C 58.8 94.3 59.0 94.5 58.9 94.6 C 60.8 95.0 60.7 95.2 59.4 94.9 C 59.5 95.0 60.7 95.3 61.5 95.5 C 61.6 95.4 60.9 95.2 61.0 95.1 C 62.6 95.7 63.8 96.2 65.3 96.7 C 65.3 96.7 65.3 96.7 65.3 96.7 Z M 172.1 4.6 C 170.6 4.5 169.6 4.5 168.9 4.6 C 169.3 4.7 170.1 4.6 170.8 4.7 C 171.0 4.8 170.3 4.8 169.5 4.8 C 170.3 5.0 173.0 4.9 172.1 4.6 C 172.1 4.6 172.1 4.6 172.1 4.6 Z M 159.1 4.3 C 157.6 4.3 156.6 4.3 156.4 4.5 C 157.0 4.6 156.8 4.4 157.8 4.4 C 158.4 4.4 158.7 4.5 159.1 4.6 C 159.7 4.6 159.6 4.5 159.8 4.5 C 160.3 4.5 160.3 4.5 160.4 4.6 C 162.2 4.4 158.3 4.6 159.1 4.3 C 159.1 4.3 159.1 4.3 159.1 4.3 Z M 56.2 94.1 C 55.8 93.8 55.4 93.6 54.2 93.2 C 54.4 93.4 53.4 93.1 52.6 92.9 C 53.7 93.4 54.3 93.5 56.2 94.1 C 56.2 94.1 56.2 94.1 56.2 94.1 Z M 80.1 11.1 C 78.3 11.3 78.5 11.6 76.0 12.0 C 76.0 12.0 76.1 12.1 76.1 12.2 C 77.6 11.7 78.3 11.7 80.1 11.1 C 80.1 11.1 80.1 11.1 80.1 11.1 Z M 302.7 64.3 C 302.6 64.1 302.0 65.4 301.8 65.4 C 302.0 65.8 301.2 66.1 299.5 68.5 C 299.4 68.5 299.5 68.3 299.7 68.0 C 298.3 69.8 300.3 67.6 300.7 67.5 C 301.6 66.0 302.0 65.8 302.7 64.3 C 302.7 64.3 302.7 64.3 302.7 64.3 Z M 168.8 106.0 C 168.7 106.0 169.1 106.0 169.5 106.0 C 169.9 106.0 170.4 106.0 170.8 106.0 C 170.6 105.7 168.5 105.6 170.1 105.2 C 169.5 105.2 169.5 105.3 169.5 105.3 C 166.3 106.1 163.8 105.0 159.7 105.5 C 159.0 105.5 159.2 105.6 159.0 105.7 C 159.6 105.7 159.6 105.7 159.7 105.8 C 160.2 105.4 163.9 105.7 162.3 105.9 C 162.4 106.0 162.9 105.9 162.9 105.9 C 163.4 105.9 163.8 105.9 164.3 105.8 C 164.0 105.8 163.1 105.7 162.9 105.6 C 165.0 105.7 167.6 105.7 166.2 106.0 C 167.5 106.0 168.0 105.8 168.8 105.7 C 169.7 105.7 169.7 105.9 168.8 106.0 C 168.8 106.0 168.8 106.0 168.8 106.0 Z M 185.6 105.0 C 187.6 105.0 186.9 104.7 188.9 104.6 C 187.6 104.5 186.1 104.9 184.4 104.9 C 184.6 105.0 185.5 104.9 185.6 105.0 C 185.6 105.0 185.6 105.0 185.6 105.0 Z M 148.0 105.7 C 148.4 105.5 146.6 105.4 144.7 105.4 C 144.3 105.6 146.0 105.7 148.0 105.7 C 148.0 105.7 148.0 105.7 148.0 105.7 Z M 156.4 105.8 C 158.3 105.7 154.0 105.7 155.1 105.5 C 154.2 105.5 153.3 105.5 153.2 105.4 C 152.5 105.4 152.5 105.6 151.2 105.5 C 151.3 105.7 153.4 105.6 153.2 105.8 C 154.7 105.6 154.9 105.6 156.4 105.8 C 156.4 105.8 156.4 105.8 156.4 105.8 Z M 157.7 105.8 C 159.0 105.7 157.4 105.3 155.8 105.3 C 156.4 105.5 156.8 105.7 157.7 105.8 C 157.7 105.8 157.7 105.8 157.7 105.8 Z M 14.2 72.5 C 14.8 73.0 14.5 72.4 15.2 73.0 C 15.3 73.0 12.8 70.7 14.9 72.6 C 14.3 71.7 13.7 71.6 12.9 70.7 C 13.1 71.0 13.3 71.3 12.8 70.8 C 12.4 70.7 14.7 72.6 14.2 72.5 C 14.2 72.5 14.2 72.5 14.2 72.5 Z M 16.8 74.7 C 17.3 75.1 17.1 74.9 16.8 74.7 C 17.0 74.7 17.7 75.3 18.3 75.7 C 18.3 75.8 17.5 74.6 17.7 74.5 C 15.2 72.8 16.9 74.4 16.8 74.7 C 16.8 74.7 16.8 74.7 16.8 74.7 Z M 19.3 76.4 C 20.8 77.8 23.4 79.4 24.8 80.0 C 23.6 78.8 20.2 76.7 19.3 76.4 C 19.3 76.4 19.3 76.4 19.3 76.4 Z M 7.8 63.9 C 8.7 66.3 12.3 70.6 9.7 66.4 C 9.7 66.7 7.9 64.0 7.4 62.6 C 7.3 62.6 6.5 61.2 6.7 61.1 C 6.1 60.2 7.9 64.5 7.8 63.9 C 7.8 63.9 7.8 63.9 7.8 63.9 Z M 27.5 80.9 C 26.4 80.5 27.5 81.6 26.0 80.6 C 25.1 80.1 26.2 80.8 25.9 80.8 C 27.8 81.9 32.2 83.8 32.5 84.2 C 33.6 84.7 34.0 84.7 36.2 85.7 C 36.3 85.6 28.6 82.3 27.4 81.1 C 27.6 81.1 30.0 82.4 27.5 80.9 C 27.5 80.9 27.5 80.9 27.5 80.9 Z M 80.4 12.6 C 80.5 12.3 78.1 12.9 78.6 12.6 C 77.3 13.1 76.1 13.2 74.7 13.7 C 74.2 13.8 74.3 13.4 72.3 13.8 C 72.3 14.0 73.3 13.7 72.4 14.1 C 70.6 14.5 71.0 14.1 68.9 14.7 C 69.4 15.0 64.7 15.8 65.2 16.1 C 66.2 15.8 66.1 15.6 67.9 15.3 C 68.5 15.1 68.3 15.3 69.1 15.2 C 68.6 15.5 67.6 15.4 66.9 15.8 C 67.1 15.9 68.4 15.6 68.6 15.7 C 69.4 15.4 68.4 15.6 68.5 15.4 C 70.7 14.9 68.5 16.0 70.9 15.4 C 70.3 15.3 70.3 15.3 70.8 14.9 C 71.7 14.8 74.6 14.0 73.1 14.6 C 73.3 14.8 75.0 14.1 74.7 14.0 C 75.7 13.8 75.8 13.9 75.9 14.0 C 78.3 13.3 78.6 13.1 78.0 12.9 C 78.5 12.6 78.9 12.9 80.4 12.6 C 80.4 12.6 80.4 12.6 80.4 12.6 Z M 6.3 51.3 C 6.3 50.4 6.1 52.4 5.9 53.3 C 6.1 52.2 6.4 52.6 6.7 51.4 C 6.5 51.8 6.4 51.7 6.6 51.0 C 6.6 50.7 6.1 52.4 6.3 51.3 C 6.3 51.3 6.3 51.3 6.3 51.3 Z M 40.9 87.6 C 41.7 88.1 46.0 89.6 48.4 90.5 C 48.1 90.0 42.3 88.4 41.7 87.8 C 40.4 87.3 42.4 88.2 40.9 87.6 C 40.9 87.6 40.9 87.6 40.9 87.6 Z M 59.2 17.2 C 58.6 17.4 58.9 17.4 59.2 17.3 C 59.0 17.4 57.9 17.7 57.1 18.0 C 58.3 17.8 56.9 18.3 57.2 18.4 C 56.6 18.6 56.3 18.7 56.2 18.8 C 56.1 18.4 53.0 20.0 56.3 19.1 C 55.7 19.1 55.9 19.0 57.3 18.5 C 58.8 18.3 59.9 17.7 60.5 17.8 C 61.5 17.5 61.8 17.3 63.1 17.0 C 63.5 17.1 64.7 16.9 63.8 17.5 C 66.2 16.8 64.4 16.7 66.4 16.1 C 68.3 15.8 65.5 16.6 66.0 16.7 C 66.5 16.6 66.4 16.7 66.5 16.8 C 67.2 16.6 67.2 16.4 66.5 16.5 C 66.7 16.4 68.6 15.7 68.1 16.1 C 69.2 15.7 66.2 15.8 64.7 16.5 C 63.8 16.7 63.7 16.3 64.6 16.1 C 64.3 16.0 62.6 17.0 62.9 16.4 C 62.2 16.5 61.5 16.7 60.8 16.9 C 60.9 17.0 61.3 16.9 61.4 16.9 C 60.7 17.1 60.0 17.3 59.2 17.5 C 59.8 17.2 59.8 17.2 59.2 17.2 C 59.2 17.2 59.2 17.2 59.2 17.2 Z M 31.2 83.3 C 32.9 84.1 33.4 84.2 34.8 84.8 C 34.4 84.4 30.5 82.7 31.2 83.3 C 31.2 83.3 31.2 83.3 31.2 83.3 Z M 90.6 11.5 C 90.4 11.4 89.3 11.6 89.3 11.5 C 91.2 11.1 89.0 11.4 90.4 10.7 C 88.1 11.3 87.4 12.0 90.6 11.6 C 92.9 11.2 88.2 11.9 90.6 11.5 C 90.6 11.5 90.6 11.5 90.6 11.5 Z M 83.4 12.6 C 82.0 12.9 85.6 12.4 86.4 12.3 C 86.4 12.4 86.4 12.5 86.5 12.6 C 88.4 11.9 85.7 12.2 87.5 11.4 C 85.1 11.7 84.1 11.8 82.2 12.3 C 82.3 12.4 82.7 12.2 82.7 12.2 C 84.2 12.0 83.2 12.5 81.6 12.6 C 82.1 12.7 83.5 12.4 84.6 12.3 C 84.3 12.3 83.9 12.3 84.0 12.1 C 85.2 11.9 84.8 12.1 85.7 12.0 C 85.7 12.1 83.5 12.7 83.4 12.6 C 83.4 12.6 83.4 12.6 83.4 12.6 Z M 208.3 9.4 C 207.0 9.2 209.5 9.9 209.4 10.2 C 210.7 10.4 211.0 10.4 211.8 10.5 C 211.4 10.3 210.0 10.1 209.4 9.8 C 209.7 9.6 211.3 10.1 211.9 10.0 C 212.7 9.8 208.8 9.7 208.3 9.4 C 208.3 9.4 208.3 9.4 208.3 9.4 Z M 28.1 29.7 C 27.5 30.0 27.9 29.9 28.2 29.7 C 28.1 29.9 27.0 30.5 27.0 30.4 C 26.0 31.0 27.5 30.2 26.4 30.9 C 26.3 31.2 28.2 29.9 28.2 29.8 C 29.6 29.0 28.7 29.9 29.1 29.8 C 30.3 29.1 29.8 29.2 31.6 28.3 C 30.5 28.7 29.4 29.1 28.1 29.7 C 28.1 29.7 28.1 29.7 28.1 29.7 Z M 94.7 10.4 C 94.9 10.2 93.3 11.0 91.7 11.0 C 89.6 11.3 93.0 11.0 91.1 11.3 C 92.7 11.1 94.6 10.6 97.1 10.3 C 97.7 10.0 93.7 10.7 95.9 10.3 C 95.8 10.2 95.3 10.3 95.3 10.4 C 94.8 10.4 94.7 10.4 94.7 10.4 C 94.7 10.4 94.7 10.4 94.7 10.4 Z M 92.3 11.3 C 92.5 11.4 93.0 11.2 93.0 11.2 C 93.7 11.1 93.8 11.3 93.0 11.4 C 94.1 11.6 93.9 11.1 96.0 10.9 C 95.1 10.8 94.7 10.7 96.6 10.7 C 98.1 10.2 93.0 11.0 92.3 11.3 C 92.3 11.3 92.3 11.3 92.3 11.3 Z M 188.2 7.5 C 188.3 7.6 189.7 7.7 190.7 7.7 C 189.4 7.9 184.3 7.3 183.7 7.1 C 183.1 7.2 182.5 7.2 182.3 7.1 C 182.4 7.1 181.0 7.2 181.7 7.3 C 181.6 7.3 180.5 7.2 180.4 7.4 C 178.5 7.2 181.0 7.2 180.5 7.0 C 178.1 7.1 178.6 7.0 175.9 6.8 C 176.4 7.0 179.4 7.1 179.1 7.4 C 181.3 7.3 183.6 7.6 184.9 8.0 C 182.9 7.4 190.4 7.8 193.8 8.2 C 193.7 8.3 194.9 8.4 196.3 8.7 C 197.3 9.0 197.0 8.4 195.1 8.4 C 195.2 8.2 197.8 8.6 198.9 8.7 C 197.6 8.4 198.3 8.4 197.7 8.2 C 195.2 8.0 197.4 8.3 197.0 8.4 C 196.4 8.3 195.7 8.3 195.1 8.2 C 198.4 8.2 190.3 7.7 193.2 8.0 C 190.6 7.8 190.6 7.5 188.2 7.5 C 188.2 7.5 188.2 7.5 188.2 7.5 Z M 127.3 7.0 C 126.9 7.0 124.8 7.3 124.7 7.1 C 122.1 7.5 124.4 7.6 121.5 7.8 C 121.7 7.9 122.8 7.7 122.8 7.8 C 123.9 7.7 125.1 7.5 124.7 7.3 C 126.1 7.3 126.4 7.1 127.3 7.1 C 127.0 7.2 126.5 7.3 125.4 7.3 C 125.2 7.6 125.6 7.7 127.3 7.5 C 128.1 7.3 127.6 7.1 127.3 7.0 C 127.3 7.0 127.3 7.0 127.3 7.0 Z M 120.9 7.8 C 120.6 7.7 120.2 7.7 120.2 7.6 C 119.3 7.4 119.9 7.9 119.0 8.0 C 118.2 8.0 118.5 7.9 118.3 7.8 C 117.2 8.0 116.4 8.1 115.8 8.0 C 114.1 8.3 117.8 8.1 118.4 8.1 C 119.6 8.0 119.1 7.8 120.9 7.8 C 120.9 7.8 120.9 7.8 120.9 7.8 Z M 102.0 9.4 C 101.7 9.2 101.1 9.7 100.2 9.8 C 100.9 9.9 102.6 9.5 101.5 10.0 C 103.3 9.8 103.4 9.8 105.2 9.5 C 106.4 9.6 105.2 9.3 103.3 9.7 C 103.6 9.5 104.4 9.4 104.5 9.3 C 105.8 9.6 108.8 8.5 107.0 9.1 C 106.4 9.1 106.1 9.0 105.8 9.0 C 105.4 9.2 101.1 9.7 102.0 9.4 C 102.0 9.4 102.0 9.4 102.0 9.4 Z M 43.7 23.2 C 45.3 22.5 46.2 22.2 47.1 21.9 C 47.9 21.6 49.2 21.2 50.2 20.9 C 50.3 21.0 50.2 21.0 49.8 21.2 C 50.2 21.1 50.8 20.9 51.7 20.6 C 51.6 20.5 51.2 20.7 51.2 20.7 C 49.6 21.1 50.9 20.6 51.1 20.3 C 49.1 20.8 46.0 22.3 44.4 22.6 C 43.2 23.1 44.7 22.6 43.7 23.2 C 43.7 23.2 43.7 23.2 43.7 23.2 Z M 301.6 61.9 C 301.5 62.2 301.3 62.8 301.5 62.8 C 301.7 62.2 301.8 61.8 301.9 61.2 C 301.5 62.2 301.3 61.9 300.6 63.3 C 300.9 62.9 301.1 63.1 301.6 61.9 C 301.6 61.9 301.6 61.9 301.6 61.9 Z M 108.3 8.8 C 108.3 8.9 108.4 9.0 107.7 9.1 C 107.5 9.3 109.5 9.0 109.5 9.1 C 110.2 9.0 109.9 8.9 110.8 8.8 C 110.5 8.7 108.8 9.0 109.5 8.6 C 110.0 8.6 110.1 8.6 110.2 8.7 C 111.4 8.4 109.5 8.6 108.3 8.8 C 108.3 8.8 108.3 8.8 108.3 8.8 Z M 214.3 10.4 C 213.5 10.3 214.3 10.6 214.9 10.7 C 213.1 10.7 215.9 11.2 216.0 11.5 C 215.3 11.2 212.8 10.9 212.4 10.8 C 211.7 10.8 212.5 11.1 210.5 10.9 C 210.8 11.1 212.9 11.2 212.4 11.0 C 212.9 11.3 215.0 11.3 214.8 11.6 C 217.5 12.0 218.2 11.9 218.4 11.7 C 215.8 11.4 217.2 11.2 214.9 10.9 C 214.9 10.8 215.6 11.0 216.1 11.0 C 215.9 10.8 214.9 10.6 214.3 10.4 C 214.3 10.4 214.3 10.4 214.3 10.4 Z M 148.0 6.3 C 146.5 6.4 146.6 6.6 146.7 6.8 C 147.2 6.7 148.1 6.6 149.3 6.6 C 149.0 6.5 147.2 6.6 148.0 6.3 C 148.0 6.3 148.0 6.3 148.0 6.3 Z M 204.4 9.5 C 204.3 9.4 203.8 9.3 203.8 9.4 C 202.3 9.2 201.9 9.0 201.4 8.9 C 200.5 8.8 200.8 9.0 200.7 9.1 C 202.2 9.1 201.9 9.4 203.8 9.5 C 203.7 9.4 204.0 9.4 204.4 9.5 C 204.4 9.5 204.4 9.5 204.4 9.5 Z M 161.6 6.5 C 160.9 6.5 161.3 6.6 161.6 6.6 C 160.8 6.8 158.1 6.6 157.1 6.7 C 156.9 6.9 160.2 6.9 156.4 6.9 C 157.1 7.1 160.6 7.0 162.3 7.1 C 161.9 7.3 159.5 7.2 159.7 7.5 C 161.7 7.4 163.9 7.3 164.2 6.9 C 161.3 6.9 162.3 6.7 161.6 6.5 C 161.6 6.5 161.6 6.5 161.6 6.5 Z M 164.9 6.7 C 164.6 6.6 164.0 6.7 163.0 6.7 C 164.6 7.0 165.5 6.9 168.8 7.1 C 168.8 7.0 168.8 7.0 168.8 6.9 C 169.4 6.9 170.1 6.9 170.8 7.0 C 167.9 6.6 167.2 6.8 164.2 6.8 C 164.1 6.7 164.5 6.7 164.9 6.7 C 164.9 6.7 164.9 6.7 164.9 6.7 Z M 80.5 13.3 C 81.3 13.2 82.0 13.3 83.5 13.0 C 83.3 12.8 82.4 12.9 80.5 13.3 C 80.5 13.3 80.5 13.3 80.5 13.3 Z M 206.9 9.9 C 208.6 10.0 205.3 9.7 206.3 10.1 C 207.6 10.3 209.0 10.6 209.3 10.9 C 211.8 10.9 206.6 10.2 206.9 9.9 C 206.9 9.9 206.9 9.9 206.9 9.9 Z M 195.7 9.2 C 194.9 9.1 195.0 8.8 195.7 9.1 C 197.5 9.2 194.2 8.7 196.9 9.0 C 195.8 8.8 193.1 8.5 191.9 8.5 C 191.9 8.7 194.3 8.8 194.4 9.0 C 194.5 9.1 194.1 9.1 193.8 9.1 C 194.0 9.2 194.6 9.1 195.7 9.2 C 195.7 9.2 195.7 9.2 195.7 9.2 Z M 186.2 8.0 C 187.2 8.3 188.5 8.5 190.6 8.6 C 189.2 8.4 188.4 8.1 186.2 8.0 C 186.2 8.0 186.2 8.0 186.2 8.0 Z M 296.7 42.8 C 296.0 41.9 296.4 42.9 296.5 43.0 C 297.2 43.9 297.3 43.7 298.0 44.7 C 298.0 44.3 297.0 43.5 296.7 42.8 C 296.7 42.8 296.7 42.8 296.7 42.8 Z M 299.0 46.1 C 298.9 46.3 299.7 47.5 299.6 47.6 C 300.4 48.1 300.2 49.6 300.5 49.4 C 300.6 49.7 300.7 50.0 300.8 50.5 C 300.9 49.3 299.7 47.2 299.0 46.1 C 299.0 46.1 299.0 46.1 299.0 46.1 Z M 175.2 7.9 C 173.5 7.7 175.7 8.3 173.9 8.1 C 173.8 8.2 177.2 8.5 175.2 8.4 C 177.8 8.7 175.0 7.9 175.2 7.9 C 175.2 7.9 175.2 7.9 175.2 7.9 Z M 143.5 7.8 C 143.6 7.6 141.2 7.8 140.2 7.8 C 140.3 7.9 141.0 7.8 141.5 7.8 C 141.3 7.9 141.0 8.0 140.3 8.0 C 140.8 8.2 142.5 7.8 143.5 7.8 C 143.5 7.8 143.5 7.8 143.5 7.8 Z M 178.7 3.9 C 179.7 4.2 181.1 4.4 181.9 4.1 C 183.0 4.4 181.1 4.4 182.5 4.6 C 184.3 4.6 183.4 4.8 186.4 4.8 C 185.8 5.1 187.9 5.2 188.3 5.5 C 187.1 5.4 185.6 5.0 185.1 5.2 C 186.1 5.3 185.5 5.5 185.0 5.3 C 183.1 5.0 187.5 5.2 185.1 4.8 C 184.4 5.1 180.9 4.3 178.7 4.2 C 179.6 4.1 177.0 3.8 178.7 3.9 C 178.7 3.9 178.7 3.9 178.7 3.9 Z M 190.2 5.1 C 191.8 5.3 192.5 5.8 192.1 5.8 C 192.1 5.7 190.4 5.5 190.2 5.6 C 190.6 5.7 191.0 5.7 190.9 5.8 C 188.0 5.5 189.0 5.4 188.3 5.2 C 189.9 5.2 190.3 5.4 190.9 5.3 C 190.5 5.2 190.2 5.2 190.2 5.1 C 190.2 5.1 190.2 5.1 190.2 5.1 Z M 222.5 13.2 C 222.2 13.0 221.8 13.1 221.3 13.1 C 221.2 12.7 218.1 12.7 217.7 12.4 C 218.5 12.4 220.0 12.7 220.7 12.7 C 219.9 12.5 219.8 12.4 218.9 12.4 C 219.1 12.2 220.9 12.4 221.4 12.4 C 221.5 12.5 222.4 12.5 222.6 12.6 C 220.3 12.4 223.8 13.4 222.5 13.2 C 222.5 13.2 222.5 13.2 222.5 13.2 Z M 160.4 7.8 C 160.1 8.0 162.9 8.6 160.3 8.9 C 159.8 8.7 159.5 8.4 159.7 8.2 C 158.1 8.3 157.4 8.1 156.4 8.3 C 153.5 7.6 158.7 8.4 160.4 7.8 C 160.4 7.8 160.4 7.8 160.4 7.8 Z M 149.9 8.0 C 150.5 7.8 149.0 7.8 149.3 7.6 C 150.6 7.8 154.6 7.5 153.2 7.6 C 151.9 7.7 151.9 8.0 149.9 8.0 C 149.9 8.0 149.9 8.0 149.9 8.0 Z M 75.7 97.5 C 73.9 97.3 73.0 96.6 74.1 96.7 C 73.6 96.9 76.4 97.3 75.7 97.5 C 75.7 97.5 75.7 97.5 75.7 97.5 Z M 7.2 69.4 C 8.0 70.7 8.7 71.3 8.7 71.6 C 7.6 70.5 7.8 70.5 7.0 69.5 C 6.9 69.4 6.4 68.9 6.4 68.7 C 6.8 69.3 6.9 69.0 7.2 69.4 C 7.2 69.4 7.2 69.4 7.2 69.4 Z M 110.3 4.5 C 110.2 4.4 109.4 4.5 109.7 4.3 C 111.6 4.2 113.8 3.8 115.4 3.5 C 115.4 3.6 115.4 3.7 115.4 3.8 C 112.4 4.0 111.6 4.3 110.3 4.5 C 110.3 4.5 110.3 4.5 110.3 4.5 Z M 106.5 4.5 C 106.2 4.6 107.3 4.8 105.9 4.9 C 105.9 4.8 103.5 4.8 104.6 4.6 C 105.0 4.7 105.6 4.7 106.5 4.5 C 106.5 4.5 106.5 4.5 106.5 4.5 Z M 214.8 7.3 C 216.3 7.5 214.1 7.0 214.2 6.9 C 215.3 7.1 216.8 7.3 217.2 7.5 C 216.2 7.3 215.3 7.6 214.8 7.3 C 214.8 7.3 214.8 7.3 214.8 7.3 Z M 191.5 5.2 C 188.2 4.9 189.7 4.6 186.4 4.3 C 187.8 4.2 190.7 4.5 191.6 4.4 C 191.5 4.5 192.3 4.6 192.2 4.7 C 191.0 4.7 190.8 4.5 189.6 4.5 C 190.1 4.7 190.1 4.6 189.6 4.9 C 190.5 4.9 191.1 4.9 191.6 4.9 C 191.3 5.0 192.5 5.2 191.5 5.2 C 191.5 5.2 191.5 5.2 191.5 5.2 Z M 214.1 7.8 C 215.3 7.9 216.4 8.4 215.3 8.2 C 215.1 8.1 214.3 8.1 214.1 8.0 C 215.9 8.2 212.6 7.6 213.5 7.6 C 214.6 7.7 214.9 7.7 214.7 7.5 C 215.4 7.6 216.5 7.8 216.6 7.9 C 216.1 7.8 215.4 7.7 215.4 7.8 C 215.7 7.8 216.1 7.9 215.9 7.9 C 214.9 7.8 214.4 7.8 214.1 7.8 C 214.1 7.8 214.1 7.8 214.1 7.8 Z M 205.5 6.7 C 207.2 6.9 207.3 7.1 207.9 7.4 C 205.6 7.0 205.3 6.6 203.6 6.3 C 205.5 6.6 207.4 6.5 208.0 6.7 C 207.1 6.7 205.6 6.5 205.5 6.7 C 205.5 6.7 205.5 6.7 205.5 6.7 Z M 238.2 98.2 C 236.8 98.3 235.7 98.4 234.1 98.6 C 233.7 99.0 236.6 98.9 235.4 99.0 C 233.8 99.3 234.8 98.8 233.6 99.0 C 234.9 99.1 228.1 100.4 227.8 100.1 C 228.8 100.0 229.1 99.8 228.9 99.7 C 231.6 99.2 232.6 98.8 234.6 98.3 C 236.2 98.3 240.4 97.4 242.5 96.6 C 244.1 96.7 246.6 95.5 248.6 95.3 C 249.1 95.1 246.9 95.5 248.5 95.0 C 249.6 95.0 248.8 95.3 250.3 95.0 C 250.3 94.9 250.0 94.8 250.7 94.6 C 250.6 94.8 251.5 94.5 251.8 94.5 C 248.9 95.3 252.1 94.8 249.8 95.5 C 248.8 95.6 250.7 94.8 248.1 95.6 C 247.2 95.9 246.3 96.2 246.6 96.4 C 245.8 96.6 245.4 96.7 244.9 96.9 C 245.9 96.3 241.2 97.9 243.2 97.1 C 243.4 97.0 244.9 96.7 246.0 96.3 C 244.9 96.3 243.8 96.7 242.1 97.3 C 241.3 97.2 242.4 96.9 241.5 97.1 C 240.2 97.6 242.1 97.3 241.0 97.7 C 241.5 97.6 242.1 97.4 242.1 97.5 C 239.8 97.8 238.9 98.3 237.7 98.5 C 238.5 98.2 236.2 98.6 238.2 98.2 C 238.2 98.2 238.2 98.2 238.2 98.2 Z M 257.5 92.6 C 258.0 92.5 258.5 92.3 259.1 92.1 C 259.2 92.3 257.3 93.0 258.7 92.8 C 256.4 93.5 258.7 92.5 257.5 92.6 C 257.5 92.6 257.5 92.6 257.5 92.6 Z M 246.8 94.8 C 245.9 94.8 246.5 95.2 245.7 95.4 C 247.1 95.0 248.2 94.6 248.5 94.9 C 246.9 95.2 246.2 95.4 244.7 95.9 C 246.1 95.1 242.9 96.0 242.3 95.9 C 243.6 95.5 244.5 95.2 246.1 94.8 C 245.9 94.9 248.3 94.4 246.8 94.8 C 246.8 94.8 246.8 94.8 246.8 94.8 Z M 251.0 93.4 C 251.3 93.4 253.6 92.6 253.1 93.1 C 251.8 93.4 251.3 93.6 251.6 93.8 C 250.6 94.1 250.4 94.0 249.5 94.3 C 248.8 94.1 250.5 93.7 251.0 93.4 C 250.7 93.5 250.3 93.5 251.0 93.4 C 251.0 93.4 251.0 93.4 251.0 93.4 Z M 295.1 69.9 C 295.6 69.8 294.0 71.2 293.6 71.4 C 294.3 71.1 294.1 71.4 293.1 72.4 C 293.3 71.8 291.8 73.2 290.6 73.7 C 290.5 74.1 291.9 73.2 290.3 74.4 C 289.1 75.3 288.0 76.2 285.8 77.7 C 285.2 77.8 286.1 77.1 286.6 76.7 C 285.2 77.7 285.5 77.2 284.4 77.9 C 284.6 77.9 283.7 78.5 283.3 78.7 C 285.3 77.4 280.3 80.0 282.5 78.6 C 282.7 78.7 283.2 78.3 283.6 78.0 C 283.3 78.6 285.9 76.8 286.6 76.6 C 287.3 75.4 290.1 73.8 292.6 71.8 C 292.9 71.8 292.2 72.5 292.8 72.0 C 292.8 71.9 293.6 71.2 293.9 70.8 C 293.9 71.0 294.3 70.7 294.8 70.3 C 294.8 70.2 294.8 70.2 295.1 69.9 C 295.1 69.9 295.1 69.9 295.1 69.9 Z M 135.0 103.6 C 135.1 103.2 131.0 103.2 129.8 103.2 C 130.0 102.8 137.3 103.3 135.0 103.6 C 135.0 103.6 135.0 103.6 135.0 103.6 Z M 160.3 103.7 C 159.2 103.7 160.0 103.9 159.0 103.9 C 159.0 103.7 156.5 104.2 156.4 103.9 C 157.6 103.7 158.4 103.7 160.3 103.7 C 160.3 103.7 160.3 103.7 160.3 103.7 Z M 183.6 102.9 C 181.7 103.0 184.6 102.9 184.2 103.0 C 182.6 103.1 180.9 103.2 181.0 103.0 C 182.5 103.0 183.4 102.7 183.6 102.9 C 183.6 102.9 183.6 102.9 183.6 102.9 Z M 148.6 103.4 C 147.1 103.3 149.7 103.0 149.9 103.2 C 148.2 103.3 151.0 103.4 152.5 103.4 C 152.4 103.7 151.8 103.6 152.5 103.9 C 150.2 104.0 152.1 103.6 150.5 103.6 C 149.5 103.8 150.6 103.7 150.5 103.9 C 149.9 103.9 149.3 103.9 148.6 103.9 C 148.6 103.8 148.6 103.6 148.6 103.5 C 149.4 103.5 150.2 103.5 149.9 103.4 C 149.3 103.4 149.1 103.4 148.6 103.4 C 148.6 103.4 148.6 103.4 148.6 103.4 Z M 263.9 87.1 C 262.6 87.6 263.8 87.3 264.7 87.0 C 264.9 86.7 265.6 86.0 267.1 85.7 C 264.0 87.1 268.2 85.7 266.5 86.5 C 265.7 86.5 263.8 87.5 262.2 88.0 C 261.5 88.1 263.1 87.2 263.9 87.1 C 263.9 87.1 263.9 87.1 263.9 87.1 Z M 269.6 85.1 C 269.4 85.1 268.9 85.3 267.9 85.6 C 268.9 85.0 267.5 85.6 268.7 85.0 C 268.6 85.2 272.6 83.5 270.3 84.6 C 268.1 85.3 270.9 84.5 271.9 84.1 C 270.9 84.5 269.1 85.6 268.8 85.5 C 269.3 85.3 269.8 85.1 269.6 85.1 C 269.6 85.1 269.6 85.1 269.6 85.1 Z M 299.8 62.4 C 299.7 62.2 299.4 62.8 299.2 63.0 C 300.2 61.3 300.6 59.8 300.9 58.9 C 300.7 59.7 300.9 59.8 301.1 59.4 C 300.8 60.2 300.8 60.4 300.6 60.7 C 300.7 59.9 300.3 61.3 299.8 62.4 C 299.8 62.4 299.8 62.4 299.8 62.4 Z M 299.8 62.4 " fill="#000000"></path><image xlink:href="../../1BE7A03E-C66D-4413-94C1-F85C6D2757AE/assets/B3801F04380499D666F22482CDF7C3B4.png" width="87.00" height="38.00" transform="matrix(1.00, 0.00, -0.00, -1.00, 112.0, 70.0)"></image><g><clipPath id="clip-1383"><path d="M 5.7 5.4 L 303.9 5.4 L 303.9 105.4 L 5.7 105.4 Z M 5.7 5.4 "></path></clipPath><g clip-path="url(#clip-1383)"><text xml:space="preserve" font-family="Chalkduster" font-size="32.0" fill="#000000" transform="matrix(1.00, 0.00, -0.00, -1.00, 116.0, 41.0)">C</text><text xml:space="preserve" font-family="Chalkduster" font-size="32.0" fill="#000000" transform="matrix(1.00, 0.00, -0.00, -1.00, 142.0, 41.0)">A</text><text xml:space="preserve" font-family="Chalkduster" font-size="32.0" fill="#000000" transform="matrix(1.00, 0.00, -0.00, -1.00, 164.7, 41.0)">W</text></g></g></g></svg>