<?xml version="1.0" encoding="UTF-8" standalone="no"?><svg xmlns="http://www.w3.org/2000/svg" xmlns:xlink="http://www.w3.org/1999/xlink" clip-rule="evenodd" stroke-miterlimit="4.00" viewBox="0 0 391 103"><desc>SVG generated by Keynote</desc><defs></defs><g transform="matrix(1.00, 0.00, -0.00, -1.00, 0.0, 103.0)"><image xlink:href="../../CEFA4209-80C9-472B-8D2B-058B96531B72/assets/D058C368512C02D6995567E3FB935783.png" width="388.00" height="100.00" transform="matrix(1.00, 0.00, -0.00, -1.00, 1.4, 101.2)" opacity="0.50"></image><path d="M 10.4 92.2 L 380.4 92.2 L 380.4 10.4 L 10.4 10.4 Z M 10.4 92.2 " fill="#010101"></path><path d="M 384.3 53.6 C 384.3 52.9 384.2 52.1 384.2 50.9 C 384.2 51.4 384.1 51.8 384.0 51.8 C 384.1 52.8 384.1 54.2 384.1 56.3 C 384.2 56.2 384.1 55.2 384.2 54.5 C 384.2 53.6 384.3 53.8 384.3 53.6 C 384.3 53.6 384.3 53.6 384.3 53.6 Z M 188.3 7.1 C 190.0 7.1 188.1 6.9 187.5 6.9 C 187.4 6.9 187.3 7.0 186.7 6.9 C 186.5 6.7 188.0 6.7 189.1 6.6 C 193.8 6.7 190.4 7.1 188.3 7.1 C 188.3 7.1 188.3 7.1 188.3 7.1 Z M 7.3 52.6 C 7.3 56.4 7.5 52.5 7.6 51.9 C 7.7 53.7 8.0 52.5 8.1 54.7 C 8.0 55.1 7.9 55.9 7.8 56.3 C 7.8 55.3 7.8 53.9 7.7 53.6 C 7.7 55.0 7.7 56.8 7.6 57.0 C 7.5 54.1 7.4 56.4 7.2 56.9 C 7.2 54.3 7.0 53.3 7.3 52.6 C 7.3 52.6 7.3 52.6 7.3 52.6 Z M 157.2 94.8 C 156.1 94.8 155.2 94.8 155.4 94.7 C 156.6 94.7 157.3 94.7 158.0 94.8 C 158.1 94.7 157.7 94.5 158.7 94.5 C 159.9 94.7 159.5 95.0 158.9 95.2 C 158.8 95.0 155.1 95.1 157.2 94.8 C 157.2 94.8 157.2 94.8 157.2 94.8 Z M 251.1 94.4 C 254.3 94.6 251.0 94.1 254.3 94.2 C 254.3 94.4 255.0 94.7 252.9 94.7 C 252.6 94.6 251.4 94.6 251.1 94.4 C 251.1 94.4 251.1 94.4 251.1 94.4 Z M 59.3 9.1 C 59.2 8.9 56.9 9.0 57.3 8.8 C 58.5 8.8 59.5 8.8 60.7 8.8 C 61.1 9.0 60.7 9.1 59.3 9.1 C 59.3 9.1 59.3 9.1 59.3 9.1 Z M 9.6 78.8 C 9.3 82.6 9.7 86.7 9.5 85.5 C 9.2 86.9 8.8 82.7 9.0 82.9 C 9.3 82.5 9.6 75.8 9.6 78.8 C 9.6 78.8 9.6 78.8 9.6 78.8 Z M 169.5 11.3 C 165.6 11.1 166.5 11.7 163.8 11.4 C 164.7 11.4 165.1 11.3 165.4 11.3 C 164.8 11.2 163.8 11.3 163.8 11.2 C 165.6 11.1 167.9 11.1 169.5 11.3 C 169.5 11.3 169.5 11.3 169.5 11.3 Z M 366.1 95.5 C 365.5 95.5 365.2 95.6 365.4 95.6 C 362.7 95.6 363.0 95.8 361.2 95.6 C 360.9 95.3 363.2 95.4 365.2 95.5 C 365.3 95.4 365.9 95.4 366.1 95.5 C 366.1 95.5 366.1 95.5 366.1 95.5 Z M 292.0 94.6 C 292.2 94.8 293.8 94.9 291.4 94.9 C 288.4 94.7 290.7 94.4 293.4 94.3 C 293.4 94.2 293.3 94.1 293.2 94.0 C 292.1 94.0 291.3 93.9 290.6 93.9 C 290.4 94.3 288.0 93.6 283.9 93.8 C 285.8 93.6 283.4 93.4 286.2 93.5 C 285.3 93.3 287.2 93.3 286.7 93.1 C 285.7 93.2 282.8 93.2 283.7 93.5 C 282.2 93.5 281.1 93.5 280.3 93.4 C 279.1 93.2 282.9 93.4 281.7 93.1 C 280.9 93.1 280.7 93.0 280.0 93.0 C 279.9 93.1 280.3 93.2 279.4 93.3 C 276.6 93.2 279.6 93.0 275.8 92.9 C 275.7 93.1 276.8 93.1 276.9 93.3 C 275.3 93.4 275.2 93.2 273.6 93.3 C 273.2 93.2 274.7 93.1 273.4 93.1 C 272.6 93.5 269.8 92.9 267.7 93.2 C 269.6 93.7 267.2 93.1 265.4 93.6 C 264.9 93.4 266.2 93.1 264.3 93.1 C 265.4 93.7 257.8 93.5 264.1 94.0 C 261.0 94.0 260.3 94.5 262.8 94.6 C 257.2 94.5 259.2 94.8 257.1 94.8 C 255.0 94.8 258.2 94.7 256.9 94.5 C 259.2 94.5 258.5 94.4 260.2 94.5 C 260.2 94.4 260.5 94.4 261.0 94.3 C 258.8 94.5 255.9 94.1 257.3 93.8 C 258.5 93.9 257.6 94.1 259.2 94.1 C 258.4 93.8 260.8 94.2 260.8 94.0 C 259.5 93.6 262.6 93.4 259.4 93.3 C 259.5 93.5 259.6 93.6 259.7 93.7 C 258.9 93.7 258.1 93.7 257.3 93.7 C 256.4 93.5 256.9 93.3 256.1 93.2 C 254.7 93.2 254.0 93.3 253.7 93.4 C 255.4 93.5 257.6 93.7 254.8 93.7 C 255.5 93.2 250.7 93.6 252.8 93.3 C 249.6 93.2 248.3 93.6 247.8 93.2 C 246.2 93.3 247.4 93.5 245.5 93.5 C 242.2 93.3 243.0 93.6 238.8 93.4 C 238.5 93.8 238.3 93.3 237.0 93.3 C 237.1 93.5 237.2 93.6 237.3 93.7 C 235.7 93.5 232.3 93.4 229.0 93.6 C 228.0 93.6 228.5 93.4 226.3 93.4 C 224.1 93.7 220.9 93.4 218.2 93.7 C 217.9 93.5 215.9 93.5 214.9 93.6 C 214.3 93.5 215.6 93.2 213.8 93.2 C 212.7 93.5 214.9 93.5 212.4 93.6 C 212.5 93.4 210.0 93.9 209.8 93.6 C 210.6 93.5 211.4 93.4 212.2 93.3 C 211.0 93.3 211.3 93.2 210.4 93.2 C 210.7 93.5 208.6 93.2 207.9 93.2 C 208.0 93.3 207.9 93.4 207.2 93.5 C 205.8 93.5 204.7 93.5 204.0 93.6 C 202.0 93.5 204.9 93.4 203.0 93.3 C 202.5 94.0 200.2 93.3 196.6 93.6 C 195.6 93.5 193.9 93.4 191.4 93.3 C 191.2 93.5 193.9 93.4 194.0 93.6 C 190.3 93.5 194.7 93.7 192.4 93.7 C 187.1 93.6 183.7 93.6 178.1 93.4 C 178.3 93.6 174.1 93.7 174.1 93.6 C 175.2 93.6 171.6 93.3 169.9 93.3 C 169.5 93.7 166.9 94.1 166.9 94.3 C 166.1 94.1 166.3 94.1 165.8 93.7 C 162.7 93.6 161.2 94.0 159.1 93.6 C 159.4 93.8 157.9 93.8 156.7 93.9 C 157.0 93.7 157.6 93.6 158.2 93.4 C 156.6 93.4 156.3 93.3 154.9 93.3 C 153.7 94.0 150.9 93.2 150.0 93.8 C 147.7 93.8 148.0 93.6 145.8 93.6 C 146.0 93.7 145.8 93.8 145.1 93.9 C 146.6 93.8 147.5 93.6 148.5 93.9 C 145.2 94.0 154.8 94.6 149.6 94.8 C 149.4 94.7 149.8 94.5 148.7 94.5 C 145.7 94.6 147.6 94.9 148.8 94.8 C 146.8 95.0 144.7 94.9 146.4 95.2 C 141.8 95.2 144.7 95.0 143.0 94.9 C 134.8 95.1 124.4 95.2 113.0 94.9 C 112.7 95.3 106.6 95.0 104.6 94.8 C 101.5 95.0 98.2 95.1 97.1 94.8 C 96.6 95.1 93.2 94.6 92.9 94.8 C 94.3 94.8 95.2 95.0 93.8 95.0 C 89.2 94.9 82.3 94.8 79.6 95.0 C 77.9 94.7 74.9 94.8 72.9 94.9 C 72.6 94.8 74.2 94.7 72.9 94.7 C 72.5 94.8 68.2 95.0 67.2 94.8 C 68.5 94.9 69.9 94.5 67.9 94.5 C 67.9 94.7 65.7 94.6 66.3 94.8 C 63.5 94.7 61.9 94.9 59.6 94.8 C 61.4 94.7 62.6 94.6 62.9 94.4 C 61.3 94.6 60.1 94.7 58.7 94.4 C 59.1 94.8 56.5 94.6 53.8 94.8 C 53.1 94.6 52.5 94.5 50.4 94.5 C 49.3 94.7 53.7 94.8 51.3 94.8 C 51.3 94.7 49.0 94.6 49.6 94.8 C 46.7 94.7 45.2 94.9 42.9 94.7 C 45.9 94.8 43.6 94.4 42.9 94.4 C 42.2 94.4 41.3 94.4 41.3 94.4 C 41.3 94.5 42.7 94.5 42.9 94.6 C 40.9 94.5 40.3 94.9 39.6 94.7 C 40.5 94.7 40.6 94.5 39.6 94.5 C 39.4 94.9 33.4 94.6 35.4 94.4 C 35.4 94.5 37.7 94.5 38.0 94.4 C 37.3 94.3 33.9 94.5 34.6 94.2 C 36.6 94.2 36.4 94.3 38.7 94.3 C 39.0 94.1 40.4 94.1 41.2 94.0 C 37.5 94.0 36.7 94.3 36.2 94.0 C 34.6 94.0 35.6 94.3 32.9 94.2 C 29.1 94.1 32.2 93.9 31.3 93.8 C 27.9 93.9 28.9 94.3 30.4 94.5 C 27.7 94.5 26.9 94.7 23.8 94.6 C 23.9 94.5 24.3 94.3 25.4 94.3 C 25.5 94.3 28.2 94.5 28.0 94.4 C 27.7 94.0 25.5 93.9 22.1 93.8 C 22.9 94.2 23.0 93.9 19.6 94.0 C 20.2 94.3 18.0 93.9 17.9 94.1 C 18.1 94.2 19.3 94.2 20.4 94.2 C 20.3 94.4 19.9 94.5 18.8 94.5 C 18.1 94.4 17.5 94.5 15.5 94.4 C 15.3 94.2 16.8 94.2 17.1 94.0 C 15.9 94.1 15.7 94.2 14.6 94.2 C 13.6 94.0 13.7 93.7 13.8 93.3 C 15.0 93.2 17.1 93.3 15.4 93.1 C 20.3 93.1 15.2 93.4 17.1 93.5 C 19.1 93.2 18.0 93.6 21.2 93.6 C 22.2 93.5 22.5 93.5 22.9 93.4 C 22.7 93.4 20.8 93.1 22.9 93.1 C 23.4 93.2 24.5 93.4 26.2 93.4 C 26.2 93.3 22.7 93.2 26.2 93.2 C 27.9 93.2 26.4 93.5 28.7 93.5 C 28.7 93.4 29.4 93.4 29.5 93.3 C 26.1 93.4 30.2 93.1 27.9 93.0 C 30.8 92.9 28.4 93.3 30.3 93.2 C 30.4 93.1 33.6 93.4 33.6 93.1 C 32.4 93.2 30.0 93.2 30.3 92.9 C 32.5 93.0 42.6 92.8 38.7 93.2 C 40.1 93.0 47.4 92.7 46.9 92.8 C 44.7 92.8 44.8 93.0 44.5 93.2 C 48.6 92.9 50.7 93.1 55.2 92.8 C 50.3 92.7 53.9 92.3 51.0 92.1 C 49.7 92.1 47.9 92.1 47.6 92.2 C 48.2 92.4 50.2 92.3 51.0 92.2 C 51.0 92.4 51.1 92.6 51.1 92.8 C 45.6 92.6 42.8 92.9 40.3 92.8 C 42.4 92.7 36.1 92.4 38.6 92.4 C 39.7 92.5 42.3 92.5 44.4 92.6 C 44.4 92.5 44.4 92.4 44.4 92.4 C 45.4 92.4 46.8 92.4 46.8 92.3 C 43.8 92.3 42.2 92.1 40.2 92.3 C 40.2 92.2 40.2 92.2 40.2 92.1 C 39.7 92.1 39.2 92.1 39.4 92.0 C 40.4 92.0 41.7 92.1 41.9 92.0 C 39.7 91.9 39.3 91.7 36.9 91.6 C 37.4 91.4 34.2 91.0 37.7 90.9 C 38.3 91.2 40.2 91.3 40.1 91.4 C 41.2 91.5 43.3 91.4 44.3 91.3 C 43.3 91.2 41.2 91.1 41.0 90.8 C 42.7 90.8 44.0 90.7 45.1 90.9 C 41.6 91.1 47.0 91.1 48.4 91.4 C 48.0 91.3 47.2 91.2 46.7 91.1 C 49.4 91.1 50.8 91.3 50.9 90.9 C 54.2 90.8 53.5 91.1 55.8 91.1 C 54.2 90.8 57.3 90.9 55.7 90.6 C 59.6 90.5 56.9 90.9 58.3 90.9 C 59.5 90.9 59.6 90.8 60.7 90.8 C 62.5 90.9 66.1 90.9 66.6 91.2 C 68.1 91.2 68.4 91.3 69.9 91.3 C 70.3 91.2 70.8 91.1 71.5 91.1 C 71.7 91.2 72.9 91.3 73.2 91.2 C 68.9 90.8 70.1 90.8 65.6 90.5 C 65.3 90.6 64.7 90.7 65.6 90.8 C 62.6 90.8 61.7 90.7 59.0 90.7 C 58.7 90.5 58.1 90.1 55.7 90.4 C 56.2 90.1 55.6 90.0 56.5 90.0 C 57.8 90.1 59.6 90.2 61.5 90.3 C 61.6 90.2 61.3 90.1 62.2 90.0 C 63.2 90.2 64.5 90.2 65.6 90.1 C 65.6 90.2 65.3 90.3 64.8 90.4 C 68.9 90.4 67.4 90.1 70.6 90.3 C 70.0 90.1 68.0 90.1 69.7 90.0 C 72.5 89.9 73.2 90.1 74.6 90.1 C 74.8 90.1 74.7 90.0 75.5 90.0 C 77.5 90.1 71.1 90.5 74.7 90.8 C 74.9 90.5 78.4 90.6 78.9 90.8 C 77.8 91.0 75.8 90.7 75.6 90.8 C 81.9 90.9 75.9 91.2 82.3 91.3 C 82.3 91.2 82.3 91.1 82.2 91.0 C 79.7 91.0 79.6 90.8 79.7 90.6 C 77.4 90.6 76.5 90.3 74.7 90.4 C 75.3 90.0 76.5 90.4 78.8 90.4 C 78.7 90.2 76.6 90.2 76.3 90.0 C 81.6 90.2 82.7 89.8 87.8 90.2 C 86.5 89.9 90.6 90.2 90.2 90.0 C 85.8 90.0 87.5 89.3 86.8 89.2 C 83.9 89.3 85.3 89.7 83.6 89.9 C 82.8 89.6 83.2 89.5 83.5 89.2 C 86.1 89.3 85.7 89.2 87.6 89.1 C 89.4 89.3 90.9 89.7 88.6 89.9 C 89.1 89.8 92.4 89.7 92.7 89.9 C 89.5 89.9 93.0 90.0 91.1 90.1 C 93.7 90.3 98.0 90.0 101.0 90.2 C 100.8 90.1 101.9 90.0 101.8 89.9 C 98.8 90.1 98.1 89.6 95.1 89.6 C 96.4 89.5 95.6 89.4 95.1 89.3 C 98.0 89.5 99.5 89.2 101.7 89.5 C 101.6 89.4 101.6 89.3 101.6 89.2 C 105.2 89.4 104.7 89.4 107.3 89.2 C 108.4 89.3 107.1 89.7 106.7 90.0 C 108.0 89.9 112.7 89.9 109.9 89.7 C 112.8 89.6 112.1 90.0 114.9 90.0 C 114.9 89.7 112.3 89.7 113.2 89.4 C 115.8 89.4 114.4 89.7 116.5 89.5 C 116.6 89.7 116.8 89.9 119.0 89.9 C 117.3 89.7 119.2 89.8 119.8 89.6 C 118.8 89.6 117.9 89.6 117.3 89.5 C 121.4 89.5 122.2 89.5 125.4 89.5 C 124.3 89.8 126.2 89.8 124.0 90.0 C 126.0 89.8 128.7 90.1 129.8 90.0 C 128.4 89.9 126.4 89.9 125.5 89.7 C 132.1 89.7 135.4 89.4 141.1 89.7 C 140.2 89.7 138.8 89.7 138.7 89.8 C 139.3 89.8 140.4 89.8 140.4 89.9 C 138.4 89.9 136.5 89.9 135.5 90.0 C 133.7 89.8 136.4 89.8 134.6 89.7 C 134.3 89.9 130.8 89.7 132.2 90.0 C 135.2 89.8 138.3 90.1 139.8 90.4 C 142.5 90.0 139.8 90.0 142.8 89.6 C 142.7 89.7 143.5 89.8 144.5 89.8 C 143.4 89.5 147.3 89.6 147.7 89.6 C 146.3 89.8 140.9 90.0 143.8 90.3 C 142.3 89.7 150.2 90.4 148.6 90.0 C 152.1 89.9 151.0 90.3 152.8 90.0 C 152.9 90.1 152.7 90.2 153.7 90.2 C 154.6 90.2 154.9 90.1 155.3 90.0 C 150.3 89.9 151.7 89.6 148.5 89.6 C 149.0 89.6 149.5 89.5 149.3 89.5 C 149.3 89.4 149.3 89.4 150.1 89.4 C 150.4 89.7 152.6 89.3 153.4 89.6 C 152.5 89.6 151.5 89.6 151.9 89.7 C 155.9 89.7 155.3 90.0 161.0 90.1 C 159.3 90.0 161.5 89.9 163.4 89.9 C 166.1 89.9 165.3 90.3 168.6 90.3 C 168.0 89.7 172.0 90.3 175.8 90.0 C 175.5 90.3 180.7 90.4 181.6 90.1 C 181.9 90.2 183.7 90.2 185.0 90.2 C 185.4 90.3 183.9 90.4 185.1 90.4 C 186.2 90.4 185.0 90.1 186.5 90.1 C 188.3 90.2 188.1 90.5 190.8 90.4 C 190.8 90.2 189.3 90.3 190.6 90.1 C 193.0 90.2 195.1 90.2 193.0 90.0 C 196.5 89.9 195.0 90.4 198.2 90.4 C 197.2 90.2 197.2 90.2 198.9 90.1 C 200.2 90.3 200.3 90.4 200.8 90.5 C 201.6 90.3 201.3 90.3 204.0 90.4 C 203.9 90.3 203.9 90.1 203.8 90.0 C 205.0 90.1 206.8 90.0 207.1 90.1 C 204.9 90.1 205.6 90.3 204.8 90.4 C 207.1 90.4 211.5 90.6 208.1 90.4 C 211.1 90.2 209.8 90.6 212.3 90.5 C 210.6 90.3 212.2 90.5 214.7 90.4 C 214.3 90.1 216.4 90.4 218.0 90.4 C 217.6 90.2 217.9 90.1 219.4 90.0 C 219.4 90.2 220.4 90.2 222.0 90.2 C 221.9 90.1 218.4 90.0 221.8 90.0 C 223.5 90.1 223.6 90.3 226.2 90.4 C 226.9 90.6 224.0 90.5 224.8 90.8 C 226.7 90.5 227.5 90.7 230.6 90.8 C 229.1 90.3 236.3 90.2 232.6 90.0 C 233.6 90.0 234.9 89.6 235.8 89.9 C 234.7 89.9 236.9 90.1 236.8 90.2 C 238.2 90.2 241.7 90.3 241.6 90.1 C 238.6 90.2 238.4 90.0 237.4 89.8 C 241.8 89.7 245.9 89.8 245.8 90.0 C 245.7 90.0 246.3 89.9 246.5 89.9 C 244.9 89.9 243.6 89.5 245.4 89.5 C 245.2 89.7 246.6 89.8 248.1 89.9 C 248.0 89.6 254.2 90.0 252.9 89.6 C 250.6 89.8 248.4 89.5 250.2 89.3 C 251.9 89.5 255.2 89.7 254.6 89.9 C 255.5 89.8 256.2 89.7 257.0 89.6 C 257.5 89.4 255.7 89.4 255.9 89.2 C 257.1 89.3 258.9 89.2 259.2 89.3 C 256.0 89.3 261.0 89.5 257.8 89.6 C 259.8 89.6 260.4 89.8 262.0 89.8 C 262.0 89.7 262.6 89.7 262.7 89.6 C 261.4 89.8 259.9 89.7 260.1 89.4 C 263.0 89.4 262.7 89.6 265.2 89.6 C 265.8 89.5 269.0 89.1 270.8 89.3 C 267.5 89.3 271.1 89.4 269.3 89.6 C 266.2 89.4 265.6 89.7 264.6 89.9 C 266.0 90.0 268.5 90.1 268.6 89.8 C 267.0 89.8 267.1 89.9 266.2 90.0 C 266.2 89.8 266.6 89.7 267.7 89.6 C 269.2 89.8 272.1 89.6 270.3 90.0 C 272.3 89.8 274.8 90.1 276.9 89.9 C 274.4 89.9 272.6 89.8 271.7 89.6 C 273.7 89.5 275.9 89.7 275.8 89.6 C 275.4 89.3 272.3 89.4 271.5 89.2 C 273.9 89.0 278.3 89.7 274.7 89.2 C 276.2 89.2 278.2 89.2 278.9 89.3 C 277.2 89.3 279.3 89.7 280.1 89.7 C 281.6 89.7 282.8 89.7 283.3 89.6 C 281.0 89.7 279.0 89.3 280.6 89.3 C 281.1 89.5 281.5 89.3 282.2 89.2 C 282.4 89.4 285.0 89.3 285.6 89.4 C 285.3 89.3 284.1 89.3 283.8 89.2 C 285.2 89.1 287.2 88.7 288.6 89.1 C 287.6 89.1 286.3 89.1 286.3 89.2 C 290.8 89.5 292.4 89.8 297.5 90.0 C 296.9 90.0 296.6 90.0 296.8 90.1 C 300.1 90.1 302.3 90.3 302.0 90.4 C 304.0 90.4 304.9 90.3 305.8 90.1 C 303.6 90.0 303.1 90.2 301.7 90.0 C 302.4 90.0 299.7 89.6 298.7 89.4 C 295.4 89.6 294.8 89.2 291.3 89.4 C 292.2 89.1 288.6 89.3 289.5 89.1 C 293.1 89.5 296.1 89.2 301.1 89.3 C 300.6 89.5 300.2 89.7 302.3 89.8 C 305.5 89.9 303.7 89.6 306.3 89.6 C 307.5 89.8 306.0 89.9 307.4 90.0 C 308.2 89.9 310.6 89.9 311.6 90.1 C 308.2 90.1 312.4 90.3 310.3 90.4 C 311.4 90.4 312.1 90.5 312.8 90.5 C 309.3 90.2 315.8 90.2 313.2 90.0 C 317.6 89.8 314.0 90.6 317.7 90.5 C 315.7 90.4 318.0 90.2 320.8 90.3 C 321.7 90.5 324.6 90.6 326.9 90.7 C 325.6 90.5 324.7 90.5 326.7 90.4 C 325.4 90.3 323.5 90.3 322.6 90.4 C 322.5 90.3 322.0 90.2 321.5 90.1 C 324.2 90.1 322.9 90.0 323.8 89.9 C 324.7 90.0 326.7 90.0 327.3 90.1 C 327.2 90.0 327.9 90.0 327.9 90.0 C 324.4 89.9 328.2 89.6 326.0 89.6 C 324.5 89.6 325.6 89.8 323.7 89.8 C 321.6 89.5 324.9 89.5 325.7 89.2 C 323.9 89.0 322.3 89.4 321.5 89.1 C 323.3 88.8 326.8 89.0 329.6 89.1 C 329.2 88.7 334.3 89.2 334.3 88.8 C 334.8 88.9 335.4 88.9 336.1 89.0 C 336.7 88.7 337.9 89.1 338.7 89.1 C 338.6 88.9 338.3 88.8 337.6 88.8 C 341.1 88.9 341.9 88.9 345.7 88.8 C 346.5 88.9 347.4 89.1 347.9 89.2 C 346.9 89.3 346.1 89.3 345.5 89.4 C 351.0 89.4 346.9 88.8 351.1 89.2 C 350.8 89.0 347.9 88.7 349.8 88.7 C 353.5 89.0 358.2 88.7 358.7 89.4 C 361.9 89.6 363.6 89.2 365.3 89.5 C 366.2 89.5 366.5 89.4 366.8 89.3 C 365.7 89.2 364.4 89.0 363.2 88.9 C 361.4 89.0 360.4 88.8 362.5 89.2 C 359.8 89.2 358.9 89.0 357.4 88.9 C 361.0 88.7 364.6 89.0 364.4 88.6 C 365.9 88.7 367.0 88.9 368.2 89.1 C 368.4 88.9 372.6 88.8 373.2 89.1 C 370.2 89.0 367.5 89.3 370.3 89.5 C 373.1 89.4 375.5 89.4 377.8 89.5 C 377.8 86.5 377.9 83.9 377.8 80.3 C 377.9 80.3 378.0 80.9 378.1 79.8 C 377.9 79.7 377.8 79.4 377.8 78.7 C 377.8 77.0 377.9 76.0 377.8 73.4 C 378.1 73.7 378.2 73.4 378.3 72.1 C 378.1 71.2 377.6 68.5 377.7 67.1 C 377.7 68.6 378.0 66.8 378.0 65.7 C 377.7 66.5 378.3 58.8 377.9 61.0 C 377.9 57.8 378.0 56.5 378.2 56.4 C 378.1 55.3 378.0 54.4 378.0 53.3 C 378.3 52.6 378.1 47.1 378.2 46.3 C 378.1 48.2 378.5 48.5 378.5 47.0 C 378.3 46.0 378.1 41.0 378.2 40.0 C 378.3 40.3 378.5 40.6 378.6 43.1 C 378.6 38.9 378.2 39.0 378.0 37.7 C 378.3 37.8 378.0 36.0 378.0 35.4 C 378.2 34.0 378.1 35.4 378.3 35.3 C 378.3 33.8 378.5 33.2 378.5 31.3 C 378.2 31.9 378.3 29.7 378.4 28.9 C 378.2 28.7 378.1 27.7 378.1 26.0 C 378.5 28.1 378.5 15.7 378.2 18.9 C 378.0 16.6 378.5 16.2 378.5 13.2 C 378.4 13.0 378.4 12.7 378.4 12.5 C 378.4 11.9 378.4 11.3 378.2 12.6 C 378.2 12.6 378.2 12.6 378.2 12.6 C 375.6 12.7 377.5 12.3 374.3 12.5 C 375.3 12.8 371.2 12.4 371.5 12.8 C 370.6 12.3 367.5 12.9 365.2 12.5 C 365.2 12.6 364.4 12.6 364.2 12.7 C 363.7 12.8 367.2 12.9 364.9 12.9 C 362.2 12.8 363.8 12.7 363.6 12.5 C 356.0 12.7 347.0 12.5 339.1 12.5 C 339.9 12.6 339.8 12.7 338.1 12.7 C 336.1 12.2 326.6 12.5 325.1 12.6 C 324.4 12.3 319.4 12.6 318.6 12.5 C 319.6 12.5 321.6 12.2 319.6 12.2 C 318.1 12.5 316.6 12.3 314.5 12.5 C 313.8 12.2 307.7 12.6 310.7 12.1 C 309.6 12.1 308.9 12.0 308.3 12.0 C 308.1 12.3 306.9 12.2 308.9 12.4 C 303.7 12.2 302.2 12.4 298.3 12.2 C 297.5 12.4 300.6 12.5 298.1 12.5 C 298.1 12.5 298.2 12.4 298.2 12.4 C 297.3 12.4 296.9 12.5 296.6 12.4 C 296.8 12.2 298.2 12.3 298.4 12.0 C 296.4 12.1 295.2 11.7 294.3 12.0 C 297.1 12.0 294.9 12.5 293.4 12.2 C 295.0 12.1 286.9 12.2 284.3 12.4 C 283.2 12.1 287.1 12.3 286.9 12.1 C 282.1 12.2 282.5 12.1 281.8 12.4 C 279.3 12.3 278.4 12.1 275.3 12.3 C 273.6 12.2 276.4 12.1 274.6 12.1 C 273.5 12.1 272.9 12.3 271.2 12.3 C 267.1 11.8 256.4 12.6 251.7 11.8 C 253.7 12.0 251.0 12.2 248.4 12.1 C 248.2 12.0 248.6 11.9 247.6 11.9 C 247.7 12.1 246.8 12.2 245.1 12.1 C 245.0 12.0 245.3 11.9 244.4 11.9 C 243.6 12.2 241.5 11.9 240.2 12.1 C 239.7 11.8 243.2 11.9 243.5 11.7 C 239.3 11.6 238.5 11.9 235.3 11.7 C 237.0 11.7 234.2 11.5 233.7 11.4 C 234.4 11.7 231.8 11.8 233.6 12.0 C 232.4 12.0 230.6 12.0 230.4 11.9 C 231.0 11.9 232.0 11.9 232.0 11.8 C 230.5 11.9 228.6 11.6 227.9 11.8 C 228.9 11.9 229.5 11.9 229.5 12.1 C 229.1 12.2 228.6 12.2 227.8 12.3 C 230.2 11.7 223.4 12.0 223.0 12.1 C 222.4 11.8 222.0 11.8 222.2 11.6 C 219.4 11.6 219.7 11.8 218.0 11.9 C 218.5 11.6 219.1 11.4 216.5 11.3 C 217.0 11.6 213.8 11.5 214.7 11.9 C 207.9 12.0 206.5 11.6 202.4 11.7 C 202.3 11.8 203.6 11.8 202.4 11.8 C 200.5 11.7 198.8 11.6 197.5 11.5 C 196.5 11.7 197.9 11.8 196.7 11.8 C 193.7 11.6 194.4 11.3 191.8 11.1 C 188.5 11.3 189.7 11.2 187.7 11.4 C 188.6 11.4 189.7 11.6 188.5 11.6 C 186.5 11.4 185.7 11.1 185.2 11.0 C 186.6 11.0 187.7 11.0 188.5 11.1 C 188.9 10.9 191.0 10.9 189.3 10.8 C 191.4 10.8 193.7 10.9 196.7 10.9 C 195.7 10.6 199.4 10.8 198.4 10.5 C 195.0 10.6 194.2 10.4 190.9 10.5 C 191.7 10.7 188.3 10.6 187.6 10.5 C 187.6 10.7 185.4 10.6 186.0 10.9 C 183.5 10.9 183.5 10.7 181.0 10.8 C 180.9 10.7 181.2 10.6 180.2 10.5 C 179.4 10.8 178.5 10.5 177.7 10.5 C 178.3 10.7 174.7 10.6 174.4 10.8 C 175.4 10.8 176.8 10.8 177.0 10.9 C 172.9 10.8 176.2 11.1 177.0 11.3 C 176.8 11.2 178.2 10.8 178.6 11.0 C 175.2 11.2 183.3 11.4 180.3 11.3 C 177.7 11.3 177.9 11.5 175.3 11.4 C 172.2 11.0 175.8 10.7 172.7 10.4 C 170.9 10.6 169.6 10.5 169.5 10.8 C 169.0 10.7 168.5 10.6 167.8 10.5 C 167.0 10.7 170.3 10.8 167.9 10.9 C 166.6 10.8 168.0 10.5 165.3 10.5 C 164.2 10.7 168.6 10.8 166.2 10.9 C 163.5 10.5 166.7 11.0 163.8 11.0 C 163.5 11.0 163.0 10.9 162.1 10.9 C 161.9 10.8 162.3 10.6 161.2 10.6 C 160.7 11.0 160.1 10.4 157.9 10.5 C 156.7 10.8 160.2 10.7 159.6 10.9 C 157.0 10.6 155.7 11.0 154.7 10.9 C 156.6 10.7 151.5 10.8 151.3 10.5 C 151.9 10.8 150.8 10.7 148.0 10.9 C 147.7 10.5 144.6 10.8 143.8 10.5 C 143.4 10.6 142.6 10.7 142.2 10.8 C 143.2 10.8 144.2 10.8 143.9 10.9 C 143.1 10.9 142.3 10.9 141.4 10.9 C 140.0 10.7 143.4 10.2 137.9 10.3 C 138.7 10.6 136.3 10.7 134.8 10.8 C 135.1 11.1 137.0 10.8 137.3 10.9 C 135.5 11.1 133.5 10.9 132.3 10.8 C 129.2 10.9 125.3 10.7 120.8 10.9 C 119.6 10.7 124.6 10.7 121.5 10.5 C 120.2 10.5 120.9 10.7 119.1 10.7 C 120.3 9.6 106.6 10.5 105.5 10.1 C 105.0 10.3 101.0 10.1 101.6 10.5 C 104.1 10.2 106.1 10.5 107.5 10.7 C 109.9 10.6 105.1 10.5 107.3 10.4 C 107.7 10.5 111.0 10.4 110.8 10.6 C 107.2 10.6 112.7 10.9 110.2 11.1 C 106.9 11.0 100.5 11.3 101.9 11.0 C 101.9 11.1 103.4 11.1 103.5 11.0 C 99.7 10.9 97.6 11.1 96.2 11.3 C 94.4 11.1 88.0 11.4 89.6 11.3 C 88.9 11.0 93.6 11.3 92.8 11.1 C 85.9 11.0 85.9 11.2 81.3 11.0 C 82.9 11.3 76.8 11.4 77.3 11.3 C 77.1 11.1 75.7 10.9 73.1 11.2 C 73.3 10.9 71.8 10.8 70.3 10.8 C 69.9 11.0 71.7 11.0 71.5 11.2 C 70.1 11.2 68.7 11.2 67.3 11.2 C 67.2 11.1 67.3 11.0 66.3 10.9 C 64.9 11.1 59.5 11.3 59.9 11.2 C 62.0 10.9 55.9 10.9 59.6 10.7 C 58.5 10.7 58.4 10.6 57.0 10.6 C 57.1 10.7 57.2 10.8 57.3 10.9 C 54.2 11.0 55.4 10.6 52.8 10.5 C 52.7 10.7 51.6 10.7 51.3 10.8 C 52.4 10.8 52.4 10.7 53.8 10.7 C 52.6 11.1 56.7 10.9 56.6 11.2 C 53.8 11.2 53.6 11.0 52.3 10.9 C 48.8 11.0 50.4 10.9 46.5 10.9 C 46.6 11.0 47.6 11.0 47.5 11.1 C 42.8 11.0 42.8 10.5 39.8 10.7 C 40.5 10.7 43.2 10.5 41.2 10.5 C 39.1 10.6 38.7 10.8 35.8 10.9 C 35.5 10.8 35.7 10.6 34.7 10.6 C 33.6 10.7 33.7 10.9 32.6 11.0 C 32.3 10.9 30.7 11.0 30.1 11.0 C 28.9 10.8 30.3 10.8 29.0 10.7 C 26.6 10.7 25.8 11.3 23.7 11.2 C 23.5 10.9 21.3 11.0 19.4 11.0 C 18.7 10.7 14.5 10.8 11.6 10.7 C 12.1 10.8 11.5 10.9 10.9 10.9 C 11.0 11.5 11.0 12.0 11.1 11.8 C 11.1 11.5 11.1 11.3 11.1 11.1 C 12.1 11.1 12.7 11.2 13.0 11.3 C 12.4 11.3 11.8 11.3 11.2 11.2 C 11.1 13.1 10.9 13.8 11.2 16.0 C 11.0 17.1 10.9 18.4 10.8 20.5 C 10.9 20.9 11.1 16.9 11.1 19.2 C 11.0 19.3 11.1 20.1 11.1 20.8 C 10.9 20.3 10.8 22.0 10.6 22.9 C 10.8 25.0 10.5 28.7 10.8 27.1 C 10.9 30.2 10.4 27.9 10.4 30.2 C 10.8 29.3 10.8 33.3 11.0 31.4 C 11.0 34.6 10.6 34.1 10.5 32.7 C 10.4 35.5 10.6 36.3 10.5 37.7 C 10.7 36.5 10.9 41.0 10.7 38.6 C 10.5 37.7 10.6 41.2 10.5 41.8 C 10.7 40.9 10.7 42.4 10.8 40.4 C 10.9 42.6 10.9 45.8 10.6 47.7 C 10.8 50.5 10.8 53.1 10.6 51.7 C 10.6 54.3 10.6 53.4 10.6 55.9 C 10.6 56.0 10.7 55.2 10.7 55.1 C 10.7 58.7 10.6 57.9 10.6 62.5 C 10.3 61.9 10.3 64.9 10.1 65.7 C 10.1 63.7 10.2 62.2 10.2 60.7 C 10.1 60.3 10.0 61.9 10.0 60.6 C 10.1 60.5 10.1 59.8 10.2 59.1 C 9.9 62.0 9.7 55.0 10.0 57.3 C 10.0 57.3 9.9 57.4 9.9 58.1 C 10.2 57.6 10.1 57.6 10.3 58.2 C 10.2 56.7 10.6 55.6 10.3 54.9 C 10.2 55.0 10.2 56.4 10.2 56.6 C 10.0 52.7 10.5 55.6 10.4 52.5 C 10.1 51.8 10.1 53.3 9.9 53.9 C 9.9 51.2 9.9 48.8 10.1 48.2 C 10.0 45.6 9.9 48.2 9.8 46.4 C 9.9 45.5 10.1 45.7 10.1 44.0 C 10.0 42.1 9.9 45.0 9.8 43.1 C 10.0 41.2 10.2 44.7 10.2 41.6 C 9.9 42.1 10.3 38.9 10.1 39.0 C 10.1 40.8 9.8 40.6 10.0 39.9 C 10.3 36.0 9.4 32.6 10.0 29.0 C 9.9 28.9 9.9 28.3 9.8 28.1 C 9.7 30.9 9.7 35.4 9.3 36.0 C 9.4 38.5 9.6 38.3 9.7 38.8 C 9.4 41.4 9.3 41.2 9.0 39.2 C 8.9 34.3 9.1 32.4 9.2 29.3 C 9.0 27.4 9.1 29.4 9.0 29.9 C 9.2 20.2 8.5 27.2 8.6 23.7 C 8.7 23.9 8.8 23.2 8.8 22.2 C 8.7 22.1 8.7 20.7 8.6 20.4 C 8.6 21.0 8.6 21.3 8.5 21.1 C 8.4 18.5 8.7 19.7 8.8 19.7 C 8.8 21.5 8.8 22.8 9.0 23.2 C 8.8 20.6 9.1 18.9 8.8 17.1 C 9.1 15.1 9.5 19.0 9.8 18.0 C 9.9 18.6 9.1 15.9 9.0 14.0 C 9.1 11.3 8.9 10.8 8.8 8.8 C 9.1 8.8 9.4 8.8 9.7 8.8 C 10.2 8.9 9.6 8.9 9.0 8.9 C 9.0 9.8 9.0 10.7 9.1 10.7 C 9.1 9.9 9.2 9.8 9.2 9.2 C 9.2 9.2 9.3 9.2 9.3 9.2 C 11.2 9.1 10.9 8.9 12.3 8.9 C 13.4 9.1 13.7 9.0 14.8 8.9 C 16.8 9.0 13.9 9.0 15.9 9.1 C 18.0 9.2 19.1 8.8 19.8 8.9 C 20.1 8.9 19.9 9.1 20.9 9.1 C 23.1 8.9 23.6 8.9 20.6 8.8 C 23.2 8.8 24.2 8.7 23.6 8.4 C 19.7 8.4 18.7 8.5 16.6 8.1 C 16.1 8.4 14.8 8.2 13.3 8.1 C 14.6 8.6 11.6 8.1 11.0 8.4 C 12.0 8.4 13.0 8.5 13.7 8.5 C 10.8 8.5 9.9 8.5 8.6 8.6 C 8.7 9.3 8.8 10.1 8.9 11.3 C 8.8 11.2 8.7 11.5 8.6 11.9 C 8.6 11.1 8.6 9.6 8.5 8.5 C 9.0 8.5 9.4 8.4 9.3 8.4 C 8.9 8.3 8.6 8.3 8.3 8.3 C 8.2 9.9 8.5 11.2 8.2 13.2 C 8.4 14.6 8.5 11.3 8.6 13.5 C 8.4 14.4 8.3 15.7 8.2 17.4 C 8.2 19.2 8.3 20.3 8.4 21.8 C 8.3 21.9 8.2 22.0 8.2 23.4 C 8.3 23.4 8.4 22.1 8.5 23.6 C 8.2 27.8 7.9 30.7 8.1 35.2 C 8.2 33.7 8.4 30.3 8.4 32.1 C 8.2 33.9 8.6 36.9 8.3 38.8 C 8.2 39.4 8.4 36.4 8.0 36.8 C 8.0 38.9 8.0 40.1 7.9 41.0 C 8.1 41.1 8.0 43.4 8.2 43.0 C 8.3 41.3 8.0 40.7 8.1 40.3 C 8.8 42.1 7.9 46.4 7.8 49.6 C 7.9 51.7 8.1 48.1 8.2 50.5 C 8.3 52.1 7.7 52.7 7.6 50.3 C 7.7 48.7 7.4 47.9 7.7 47.7 C 7.7 47.0 7.7 46.1 7.6 46.0 C 7.6 47.2 7.4 46.8 7.4 47.6 C 7.4 45.9 6.9 45.4 7.2 44.0 C 7.2 45.1 7.3 45.4 7.4 45.9 C 7.3 41.2 7.5 39.9 7.6 37.4 C 7.4 38.7 7.5 37.3 7.3 37.2 C 7.3 39.3 7.2 42.9 7.1 40.5 C 7.4 39.2 6.7 37.5 7.0 36.2 C 7.0 37.4 7.1 37.3 7.2 38.0 C 7.2 36.3 7.4 36.5 7.4 34.7 C 7.1 28.8 7.7 25.1 7.2 15.7 C 7.2 12.6 7.3 18.6 7.5 18.6 C 7.5 17.6 7.6 17.5 7.6 16.9 C 7.3 16.5 7.6 15.3 7.4 14.1 C 7.6 14.5 7.4 10.1 7.6 8.3 C 7.5 8.1 7.4 8.2 7.4 7.3 C 7.4 7.3 7.4 7.3 7.5 7.3 C 14.0 7.7 24.7 7.2 29.5 7.5 C 29.2 7.3 31.2 7.3 31.7 7.2 C 34.7 7.2 33.5 7.4 37.6 7.2 C 39.7 7.1 37.3 7.3 37.0 7.4 C 43.3 7.3 49.1 7.5 52.9 7.3 C 54.8 7.2 53.0 7.4 57.2 7.5 C 57.0 7.1 64.0 7.7 64.6 7.3 C 67.1 7.2 72.0 7.7 69.7 7.3 C 73.2 7.3 71.1 7.6 72.5 7.6 C 74.8 7.6 71.3 7.0 73.7 7.0 C 73.6 7.3 75.6 7.2 77.3 7.4 C 75.4 7.4 74.2 7.4 74.1 7.6 C 75.6 7.4 75.7 7.6 78.2 7.6 C 80.1 7.4 85.7 7.2 87.5 7.6 C 87.5 7.5 87.0 7.4 86.5 7.3 C 88.2 7.3 90.3 7.6 89.9 7.3 C 93.6 7.2 95.4 7.5 97.4 7.3 C 99.0 7.2 97.0 7.5 101.8 7.5 C 101.8 7.3 110.3 7.3 112.7 7.5 C 112.6 7.2 113.3 7.5 114.3 7.5 C 114.5 7.4 114.2 7.3 115.1 7.3 C 115.3 7.3 116.1 7.3 116.8 7.3 C 116.4 7.6 119.8 7.1 120.2 7.4 C 119.5 7.4 119.6 7.6 120.3 7.7 C 120.4 7.4 124.1 7.8 123.6 7.6 C 122.9 7.5 120.5 7.6 121.1 7.3 C 124.3 7.2 123.1 7.6 125.3 7.6 C 125.1 7.5 123.8 7.4 125.3 7.3 C 127.6 7.4 125.4 7.4 127.0 7.6 C 128.2 7.5 130.3 7.3 131.2 7.3 C 130.9 7.3 131.7 7.5 132.0 7.5 C 136.4 7.6 146.2 7.3 150.5 7.7 C 150.8 7.5 151.7 7.5 151.3 7.3 C 153.9 7.5 153.7 7.4 156.4 7.5 C 156.4 7.4 156.3 7.3 156.3 7.2 C 159.6 7.1 156.7 7.5 158.9 7.5 C 159.1 6.9 160.3 7.7 162.3 7.7 C 162.5 7.6 163.5 7.5 163.1 7.3 C 166.3 7.3 166.2 7.7 169.0 7.6 C 168.3 7.5 167.7 6.8 168.0 6.5 C 168.5 6.7 169.4 6.7 170.6 6.8 C 169.2 7.0 170.1 7.9 174.1 7.7 C 171.9 7.7 171.1 7.6 171.5 7.4 C 174.6 7.4 175.6 7.6 178.3 7.6 C 178.6 7.3 176.8 7.3 177.4 7.0 C 178.0 7.0 178.4 7.0 178.2 6.9 C 181.0 6.9 181.1 7.1 184.1 6.9 C 184.1 7.1 183.5 7.1 182.4 7.0 C 182.6 7.2 182.6 7.4 180.8 7.4 C 180.5 7.3 181.6 7.0 179.0 7.1 C 179.0 7.2 179.1 7.4 179.1 7.5 C 181.0 7.5 185.4 7.7 185.8 7.6 C 184.9 7.5 183.4 7.4 184.1 7.2 C 187.3 7.2 188.3 7.5 190.9 7.7 C 195.5 7.6 203.6 7.6 202.6 7.3 C 205.4 7.4 204.4 7.4 206.9 7.4 C 206.1 7.2 209.7 7.3 209.4 7.1 C 206.4 7.2 207.3 7.1 204.3 7.2 C 204.4 7.0 204.9 6.9 206.1 6.9 C 206.2 7.0 207.5 7.0 209.4 7.0 C 209.1 7.0 207.3 6.7 209.5 6.7 C 209.6 6.8 210.1 6.8 211.1 6.8 C 211.1 6.9 211.1 7.0 211.1 7.2 C 209.9 7.3 208.5 7.3 207.7 7.4 C 208.5 7.4 208.7 7.5 209.4 7.5 C 209.9 7.4 213.3 7.5 213.6 7.3 C 212.2 7.4 211.3 7.2 212.8 7.2 C 213.0 7.2 215.3 7.3 216.1 7.2 C 213.2 7.1 214.4 7.0 212.8 6.8 C 216.2 6.7 215.7 7.0 219.5 6.9 C 219.6 7.1 219.6 7.3 218.6 7.4 C 221.0 7.9 226.8 7.4 228.6 7.5 C 227.3 7.5 225.8 7.8 227.8 7.8 C 227.8 7.7 229.3 7.7 229.5 7.7 C 230.3 7.2 228.6 7.0 227.1 6.7 C 228.7 6.7 229.1 6.6 230.5 6.6 C 231.0 6.8 229.4 7.1 231.2 7.2 C 231.7 6.8 234.8 7.1 235.5 6.9 C 234.2 6.9 233.3 6.8 234.7 6.7 C 234.4 6.9 237.2 6.8 237.2 6.9 C 235.0 7.1 234.4 7.3 233.0 7.3 C 234.7 7.3 231.6 7.5 234.5 7.5 C 235.9 7.3 236.6 7.1 239.7 7.1 C 240.9 7.1 239.7 7.4 241.3 7.4 C 240.9 7.2 244.3 7.1 242.2 7.3 C 243.4 7.3 244.0 7.4 244.6 7.4 C 243.1 7.2 251.1 6.9 249.9 6.7 C 249.8 7.0 250.2 7.3 250.6 7.4 C 252.2 7.1 253.9 7.4 258.2 7.3 C 258.1 7.0 258.9 7.3 260.7 7.3 C 261.1 7.1 259.5 7.1 260.8 7.0 C 262.8 7.1 262.9 7.1 263.2 7.3 C 264.7 7.3 265.9 7.3 266.6 7.3 C 266.7 7.2 266.2 7.2 265.8 7.1 C 271.4 7.4 274.5 7.1 279.3 7.1 C 277.3 7.0 276.7 7.4 278.4 7.3 C 279.4 7.3 280.3 7.3 280.9 7.2 C 279.9 6.9 280.3 7.1 282.7 7.1 C 284.9 7.0 282.0 6.7 283.7 6.7 C 285.4 6.8 284.3 6.9 285.3 7.0 C 286.1 7.0 287.0 7.0 287.8 7.0 C 286.3 6.9 288.1 6.8 289.6 6.7 C 288.4 7.0 289.0 7.0 292.0 6.9 C 292.3 7.1 290.7 7.1 291.9 7.2 C 292.5 7.2 295.0 6.9 297.0 7.1 C 296.3 7.1 295.9 7.2 296.1 7.3 C 298.4 7.1 299.9 7.4 301.8 7.5 C 300.0 7.3 301.1 7.1 300.4 6.9 C 302.3 7.2 304.8 6.9 306.2 7.2 C 303.4 7.1 305.8 7.7 307.6 7.7 C 308.2 7.4 305.1 7.5 306.2 7.2 C 307.3 7.0 309.3 7.3 310.4 7.1 C 310.4 7.0 309.1 7.2 308.8 7.0 C 310.4 7.0 308.4 6.9 309.7 6.9 C 310.4 7.1 311.5 6.8 312.3 6.8 C 313.4 6.9 315.4 7.2 316.4 7.0 C 316.5 6.9 315.0 7.0 314.8 6.9 C 319.6 6.7 320.7 7.1 325.0 6.8 C 325.4 6.9 326.2 7.0 327.4 7.0 C 327.4 6.9 328.2 6.8 329.2 6.8 C 330.9 6.9 332.6 7.0 334.9 7.1 C 334.3 7.3 333.2 7.4 336.3 7.4 C 336.5 7.3 335.2 7.3 336.4 7.3 C 336.4 7.3 337.1 7.4 337.3 7.3 C 337.4 7.2 337.4 7.2 337.4 7.1 C 336.5 7.1 335.7 7.1 334.9 7.1 C 335.1 7.0 334.9 6.9 334.3 6.8 C 338.1 6.7 337.5 7.2 340.0 6.9 C 340.1 7.3 340.9 7.4 338.7 7.7 C 340.8 7.6 342.4 7.5 343.1 7.3 C 340.6 7.3 341.6 7.0 341.0 6.9 C 342.6 6.9 342.7 6.8 343.6 6.7 C 345.3 6.9 341.3 7.1 344.9 7.2 C 342.4 6.9 347.4 6.9 349.2 7.0 C 349.0 6.9 348.4 6.9 349.4 6.8 C 354.6 6.6 353.5 7.5 356.8 7.0 C 356.4 7.2 357.8 7.2 358.3 7.3 C 355.8 7.3 355.1 7.4 354.0 7.4 C 354.1 7.5 354.8 7.6 355.5 7.6 C 355.6 7.4 356.3 7.4 357.3 7.5 C 358.2 7.4 358.2 7.0 360.4 6.8 C 360.5 6.9 360.1 7.0 361.1 7.0 C 362.2 6.8 360.0 7.4 364.2 7.4 C 363.5 7.3 363.2 7.1 363.7 7.0 C 365.8 6.9 365.2 7.0 368.0 6.9 C 368.6 7.3 365.7 7.3 364.8 7.6 C 366.6 7.5 368.3 7.3 370.0 7.4 C 368.7 7.3 370.3 7.1 372.0 7.0 C 373.4 7.1 371.6 7.4 373.3 7.4 C 374.8 7.4 375.7 7.2 374.5 7.0 C 377.6 7.1 377.1 6.8 379.7 6.9 C 379.6 7.0 378.9 7.0 378.0 7.0 C 378.1 7.1 377.6 7.2 378.6 7.2 C 379.9 7.1 382.0 7.0 383.9 6.9 C 384.0 7.9 384.0 8.8 384.1 9.4 C 383.6 13.8 384.2 18.0 384.0 22.1 C 383.7 20.6 383.9 27.4 383.7 29.5 C 383.7 30.7 384.3 34.2 384.1 32.9 C 383.7 33.4 383.8 35.7 383.7 37.5 C 383.8 37.5 383.9 37.5 384.0 37.5 C 384.0 41.5 383.8 42.4 383.6 43.8 C 383.8 48.6 383.4 53.9 383.7 59.8 C 383.4 61.3 383.4 62.6 383.3 66.0 C 383.5 66.0 383.5 68.7 383.5 71.3 C 383.7 70.8 383.7 73.2 383.8 73.3 C 383.8 71.0 384.1 72.0 384.2 70.8 C 384.0 73.8 384.5 75.7 384.2 78.0 C 384.1 74.9 383.8 73.7 383.4 73.1 C 383.5 76.8 383.4 78.6 383.2 79.2 C 383.4 79.6 383.5 79.2 383.6 78.5 C 383.6 79.7 383.6 80.9 383.6 82.1 C 383.4 82.3 383.4 80.6 383.3 81.9 C 383.4 82.8 383.5 83.8 383.6 84.8 C 383.3 85.6 383.4 83.2 383.3 82.8 C 383.2 87.4 383.7 85.8 383.7 88.5 C 383.6 89.0 383.3 88.6 383.3 90.7 C 383.4 91.7 383.6 92.2 383.7 94.6 C 383.6 95.2 383.6 95.3 383.5 95.3 C 383.3 95.2 383.5 95.0 382.3 95.0 C 382.2 95.1 381.4 95.0 380.6 95.0 C 380.8 95.1 380.2 95.2 379.2 95.2 C 378.9 95.1 377.3 95.2 376.7 95.2 C 376.4 95.1 373.5 94.8 373.1 95.0 C 373.2 95.1 374.7 95.1 374.9 95.1 C 373.0 95.1 371.8 95.2 370.9 95.2 C 369.7 94.7 367.1 95.1 363.0 94.8 C 360.8 95.0 363.9 95.2 361.0 95.4 C 359.1 95.2 361.2 95.2 360.6 94.9 C 360.0 94.9 357.1 94.7 357.2 94.9 C 357.3 95.0 358.7 95.0 359.0 95.1 C 357.0 95.3 356.8 95.0 355.5 94.9 C 355.9 95.1 354.4 95.2 354.3 95.3 C 348.4 95.5 348.1 95.0 345.4 94.8 C 345.5 94.9 344.0 94.9 344.0 95.0 C 345.6 94.9 348.1 95.1 345.7 95.1 C 346.0 95.0 342.6 95.2 342.5 95.2 C 343.0 95.4 345.1 95.3 344.5 95.5 C 341.4 95.6 342.2 95.2 340.1 95.4 C 339.7 95.2 341.1 95.2 341.6 95.1 C 340.6 95.1 339.2 95.2 339.0 95.1 C 340.1 95.0 340.0 94.8 340.3 94.7 C 338.9 94.9 335.8 94.7 338.1 95.0 C 334.7 94.9 331.7 95.1 334.2 95.3 C 331.5 95.4 332.8 95.0 330.8 95.2 C 330.8 95.0 331.4 94.8 329.4 94.6 C 329.2 94.7 327.8 94.8 328.1 95.0 C 324.1 95.0 322.8 94.7 321.0 94.5 C 322.7 94.9 320.5 94.6 318.8 94.8 C 317.5 94.7 318.4 94.4 315.2 94.5 C 319.0 94.8 311.2 94.6 313.1 95.0 C 308.8 94.8 308.9 94.8 304.5 94.7 C 304.8 94.6 305.7 94.5 307.6 94.4 C 306.5 94.7 311.4 94.6 311.0 94.5 C 310.9 94.5 310.9 94.4 310.8 94.3 C 307.7 94.4 305.6 94.3 304.1 94.2 C 303.6 94.4 302.2 94.5 302.9 94.7 C 299.6 94.4 296.8 94.9 295.2 94.6 C 296.3 94.6 297.2 94.6 296.8 94.4 C 295.6 94.5 294.2 94.5 294.5 94.7 C 297.0 94.8 297.5 94.8 298.6 94.7 C 297.7 94.9 301.3 95.0 298.9 95.1 C 298.7 94.7 294.1 95.3 295.5 95.0 C 298.1 94.8 292.3 94.8 292.0 94.6 C 292.0 94.6 292.0 94.6 292.0 94.6 Z M 7.4 35.6 C 7.6 38.2 7.8 35.2 7.8 33.3 C 7.7 33.8 7.6 34.0 7.4 33.9 C 7.5 34.7 7.5 35.5 7.4 35.6 C 7.4 35.6 7.4 35.6 7.4 35.6 Z M 11.0 11.6 C 10.7 10.5 10.9 14.8 10.8 16.4 C 10.9 16.0 10.9 15.5 11.0 16.6 C 11.2 15.0 10.7 14.0 11.0 11.6 C 11.0 11.6 11.0 11.6 11.0 11.6 Z M 101.4 10.1 C 100.8 10.1 99.2 10.2 99.0 10.1 C 98.0 10.1 98.3 10.2 98.2 10.3 C 96.3 10.3 98.5 9.9 95.6 10.1 C 94.7 10.5 101.0 10.6 101.4 10.1 C 101.4 10.1 101.4 10.1 101.4 10.1 Z M 320.6 91.0 C 319.3 90.9 321.9 90.7 320.9 90.4 C 316.5 90.6 320.3 90.9 313.9 90.8 C 314.3 90.9 314.9 91.0 314.9 91.1 C 317.8 91.0 317.9 90.8 317.5 91.2 C 318.9 91.2 318.8 90.7 320.6 91.0 C 320.6 91.0 320.6 91.0 320.6 91.0 Z M 260.5 90.0 C 261.0 90.0 261.4 90.1 261.5 90.2 C 263.4 90.1 262.9 90.0 265.6 90.1 C 265.0 89.8 262.5 89.8 260.5 90.0 C 260.5 90.0 260.5 90.0 260.5 90.0 Z M 104.1 89.4 C 103.6 89.4 103.0 89.4 102.4 89.4 C 102.9 89.6 101.4 89.9 104.2 89.8 C 104.4 89.7 103.9 89.7 103.4 89.7 C 103.9 89.6 105.2 89.6 104.9 89.5 C 104.2 89.5 104.1 89.5 104.1 89.4 C 104.1 89.4 104.1 89.4 104.1 89.4 Z M 38.5 91.6 C 41.7 91.4 33.8 90.8 38.5 91.6 C 38.5 91.6 38.5 91.6 38.5 91.6 C 38.5 91.6 38.5 91.6 38.5 91.6 Z M 45.5 94.4 C 45.6 94.5 46.3 94.5 46.3 94.4 C 49.1 94.5 46.4 94.6 48.0 94.8 C 50.1 94.6 46.8 94.3 49.6 94.2 C 49.0 94.1 47.1 94.4 45.5 94.4 C 45.5 94.4 45.5 94.4 45.5 94.4 Z M 353.3 7.2 C 351.0 7.3 350.1 7.5 349.5 7.7 C 351.0 7.7 352.3 7.8 352.7 7.9 C 355.8 7.8 350.9 7.7 350.5 7.7 C 351.0 7.4 353.1 7.4 353.3 7.2 C 353.3 7.2 353.3 7.2 353.3 7.2 Z M 345.7 7.3 C 344.6 7.4 343.1 7.5 342.8 7.7 C 344.3 7.6 344.4 7.7 344.4 7.8 C 345.8 7.7 344.3 7.5 345.7 7.3 C 345.7 7.3 345.7 7.3 345.7 7.3 Z M 359.8 7.5 C 358.7 7.5 358.9 7.7 358.7 7.8 C 360.2 7.8 360.4 7.9 361.9 7.9 C 362.0 7.8 362.1 7.7 362.2 7.7 C 360.9 7.6 360.7 7.7 359.6 7.7 C 359.6 7.7 359.7 7.6 359.8 7.5 C 359.8 7.5 359.8 7.5 359.8 7.5 Z M 337.9 7.6 C 333.5 7.5 331.2 8.0 328.1 8.3 C 331.4 8.3 334.6 7.8 336.8 7.9 C 339.6 7.8 336.0 7.7 336.1 7.7 C 336.3 7.6 337.2 7.6 337.9 7.6 C 337.9 7.6 337.9 7.6 337.9 7.6 Z M 299.2 7.6 C 298.4 7.4 296.6 7.8 294.1 7.7 C 294.5 7.8 294.9 7.9 294.9 8.0 C 298.4 8.1 296.5 7.6 299.2 7.6 C 299.2 7.6 299.2 7.6 299.2 7.6 Z M 278.2 7.7 C 276.0 7.8 279.3 7.9 278.1 8.1 C 280.5 8.1 283.1 8.1 283.2 7.8 C 280.5 8.0 279.9 8.0 278.2 7.7 C 278.2 7.7 278.2 7.7 278.2 7.7 Z M 263.1 7.7 C 260.6 7.9 264.0 8.0 262.9 8.3 C 263.8 8.3 263.6 8.1 263.8 8.1 C 264.5 8.1 265.1 8.1 266.3 8.1 C 265.5 8.0 262.6 8.0 263.1 7.7 C 263.1 7.7 263.1 7.7 263.1 7.7 Z M 383.0 40.4 C 382.9 38.8 382.6 39.3 382.7 36.1 C 382.7 41.0 382.0 38.5 382.1 44.9 C 382.2 43.8 382.3 44.5 382.2 44.8 C 382.3 47.3 382.3 42.5 382.6 44.8 C 382.5 43.0 382.3 44.1 382.2 42.3 C 382.5 40.4 382.6 39.3 383.0 40.4 C 383.0 40.4 383.0 40.4 383.0 40.4 Z M 381.8 44.9 C 381.8 46.6 382.3 46.6 382.0 47.5 C 382.0 48.3 382.1 48.1 382.2 48.3 C 382.2 47.6 382.2 47.5 382.2 47.4 C 382.2 45.9 382.1 44.4 381.8 44.9 C 381.8 44.9 381.8 44.9 381.8 44.9 Z M 381.8 28.6 C 382.0 31.5 381.8 32.4 382.0 33.7 C 381.6 34.9 382.2 35.6 381.8 37.2 C 381.9 40.0 382.0 37.9 382.2 37.1 C 382.3 39.9 381.9 37.9 382.0 40.6 C 382.3 41.0 382.2 37.5 382.5 37.8 C 382.5 35.7 382.3 35.8 382.2 34.5 C 382.3 33.5 382.4 33.7 382.5 33.5 C 382.4 31.1 382.6 31.2 382.6 29.2 C 382.4 28.8 382.3 29.7 382.3 31.9 C 382.2 29.6 382.0 28.7 382.2 25.9 C 382.4 27.7 382.5 19.0 382.1 19.9 C 382.0 22.3 382.2 21.5 382.3 22.4 C 382.1 25.5 382.1 27.4 381.8 28.6 C 381.8 28.6 381.8 28.6 381.8 28.6 Z M 360.0 8.3 C 359.3 8.3 358.6 8.2 357.5 8.2 C 357.6 8.0 359.0 8.1 357.8 7.9 C 356.0 7.9 355.5 8.0 354.4 8.0 C 354.9 8.1 358.4 8.4 356.4 8.5 C 356.9 8.6 358.1 8.6 359.6 8.6 C 358.1 8.3 362.1 8.6 363.8 8.6 C 364.0 8.2 366.7 8.7 368.1 8.5 C 367.4 8.2 363.7 8.5 362.3 8.5 C 363.0 8.4 358.6 7.9 360.0 8.3 C 360.0 8.3 360.0 8.3 360.0 8.3 Z M 382.0 51.7 C 382.1 52.2 382.1 54.2 382.2 52.7 C 382.3 53.4 382.1 55.0 382.5 54.4 C 382.5 55.3 382.5 56.1 382.5 57.0 C 382.4 56.6 382.4 54.3 382.2 55.2 C 382.3 57.0 382.2 56.3 382.2 58.6 C 381.9 57.3 381.9 58.7 381.6 57.7 C 381.7 58.4 381.7 60.5 381.9 60.3 C 381.9 63.6 381.6 59.4 381.6 63.7 C 381.4 63.5 381.4 60.5 381.5 59.4 C 381.3 58.8 381.4 64.7 381.4 67.8 C 381.6 65.1 381.8 67.4 382.0 68.9 C 381.9 69.9 381.8 68.8 381.7 70.5 C 381.7 71.9 381.8 72.7 381.7 73.1 C 381.7 74.3 381.9 73.9 382.0 74.1 C 382.0 76.1 381.6 74.4 381.7 77.3 C 382.0 75.4 382.1 77.9 382.0 81.8 C 382.1 81.6 382.1 80.4 382.2 80.3 C 382.4 81.0 382.1 83.0 382.0 83.6 C 382.1 85.0 382.2 84.2 382.2 82.8 C 382.2 83.7 382.3 84.6 382.4 85.6 C 382.4 81.3 382.4 74.5 382.7 66.6 C 382.5 68.1 382.5 66.3 382.6 64.0 C 382.7 63.7 382.7 64.7 382.7 65.8 C 383.0 63.1 382.4 63.1 382.6 58.8 C 382.6 56.4 382.7 61.5 382.9 58.8 C 382.8 57.2 382.6 56.1 382.9 55.3 C 382.8 52.5 382.5 51.7 382.5 47.4 C 382.4 49.9 381.8 51.0 381.9 53.5 C 382.0 53.5 382.0 52.4 382.0 51.7 C 382.0 51.7 382.0 51.7 382.0 51.7 Z M 344.3 8.0 C 342.8 8.0 342.0 8.1 341.8 8.0 C 339.2 8.1 341.9 8.2 342.3 8.3 C 343.5 8.2 344.0 8.1 344.3 8.0 C 344.3 8.0 344.3 8.0 344.3 8.0 Z M 89.5 8.0 C 86.2 7.9 87.1 8.2 84.5 8.2 C 86.6 8.3 87.2 8.5 90.5 8.5 C 90.6 8.3 90.5 8.1 89.5 8.0 C 89.5 8.0 89.5 8.0 89.5 8.0 Z M 352.5 8.1 C 354.8 7.9 349.8 8.4 350.0 8.2 C 347.5 8.4 352.1 8.4 349.7 8.6 C 351.8 8.5 352.9 8.7 355.5 8.5 C 355.6 8.4 353.5 8.4 351.5 8.4 C 351.4 8.2 352.4 8.2 352.5 8.1 C 352.5 8.1 352.5 8.1 352.5 8.1 Z M 122.4 8.6 C 124.5 8.4 120.2 8.2 118.8 8.1 C 118.9 8.4 119.5 8.3 122.4 8.6 C 122.4 8.6 122.4 8.6 122.4 8.6 Z M 67.9 8.4 C 66.9 8.7 71.7 8.4 70.6 8.7 C 72.1 8.7 72.2 8.6 72.2 8.5 C 73.0 8.6 75.4 8.6 74.8 8.8 C 75.4 9.0 71.1 8.7 72.6 9.0 C 71.2 9.0 71.1 8.9 70.0 8.9 C 72.4 9.0 71.1 8.7 68.1 8.6 C 68.2 8.8 69.6 8.8 68.3 8.9 C 68.0 8.8 66.4 8.6 66.2 8.3 C 63.6 8.3 65.5 8.7 62.3 8.7 C 62.7 8.9 64.6 8.9 65.8 8.9 C 65.7 9.2 62.4 8.7 63.4 9.1 C 62.6 8.9 60.8 8.8 60.5 8.5 C 62.8 8.4 64.2 8.3 66.1 8.1 C 64.2 8.0 62.0 8.6 58.7 8.3 C 59.2 8.5 57.3 8.5 58.1 8.7 C 55.6 8.6 56.5 8.3 57.0 8.3 C 56.2 8.1 51.6 8.3 52.1 8.5 C 51.6 8.3 45.9 8.3 46.4 8.6 C 44.5 8.4 42.2 8.8 41.2 8.5 C 40.3 8.6 38.4 8.6 36.2 8.5 C 35.9 8.8 39.4 8.7 39.8 8.9 C 40.7 9.1 35.9 8.8 36.6 9.0 C 36.7 9.1 36.7 9.1 36.8 9.2 C 38.4 9.1 40.1 9.0 41.6 8.9 C 42.9 9.0 41.4 9.0 41.8 9.2 C 42.8 9.0 47.9 8.7 48.5 9.2 C 51.9 9.1 54.5 9.1 55.8 8.9 C 58.0 9.0 54.7 9.1 56.1 9.3 C 62.1 8.9 70.0 9.3 75.0 8.9 C 76.1 9.0 75.8 9.1 76.1 9.3 C 83.1 9.1 76.8 8.8 82.5 8.9 C 82.6 9.1 79.9 9.0 80.2 9.3 C 82.1 9.3 82.5 9.1 85.2 9.2 C 85.1 9.1 85.1 9.0 85.0 8.9 C 87.1 8.9 86.5 9.2 87.7 9.3 C 90.3 9.2 89.6 9.0 91.0 9.3 C 93.5 9.2 95.9 9.1 98.5 9.3 C 100.2 9.1 96.7 8.7 94.0 8.7 C 94.1 8.6 94.9 8.6 94.8 8.5 C 98.0 8.7 98.8 9.2 103.5 9.3 C 99.8 9.0 105.3 9.1 106.0 9.3 C 108.0 9.3 106.4 9.0 105.1 9.0 C 105.3 8.9 106.5 9.0 106.7 9.1 C 106.8 8.7 102.2 8.6 97.4 8.7 C 99.4 8.3 94.0 8.7 96.3 8.2 C 92.4 8.3 95.9 8.6 91.5 8.5 C 92.0 8.7 92.8 8.7 93.3 8.9 C 90.0 8.9 90.8 8.6 87.3 8.6 C 86.8 8.8 89.1 8.8 89.2 8.9 C 85.2 8.7 84.0 8.6 81.3 8.4 C 80.9 8.5 81.7 8.8 77.3 8.6 C 77.2 8.6 77.2 8.5 77.2 8.5 C 79.2 8.5 79.4 8.0 74.4 8.1 C 74.2 8.2 75.7 8.2 77.0 8.2 C 76.5 8.4 74.9 8.4 73.0 8.5 C 72.0 8.4 70.8 8.3 72.1 8.3 C 71.1 8.1 70.7 8.5 67.9 8.4 C 67.9 8.4 67.9 8.4 67.9 8.4 Z M 303.1 8.1 C 302.4 8.2 301.7 8.2 300.5 8.2 C 299.8 8.4 302.1 8.4 302.1 8.5 C 303.8 8.6 302.6 8.3 303.1 8.1 C 303.1 8.1 303.1 8.1 303.1 8.1 Z M 326.4 8.3 C 326.4 8.1 325.0 8.4 323.1 8.3 C 322.4 8.5 324.7 8.5 324.6 8.6 C 326.8 8.7 324.3 8.2 326.4 8.3 C 326.4 8.3 326.4 8.3 326.4 8.3 Z M 316.4 8.3 C 315.6 8.1 315.4 8.4 317.2 8.4 C 317.0 8.5 316.5 8.6 315.3 8.7 C 316.4 9.0 317.5 8.5 319.5 8.6 C 318.9 8.5 317.8 8.4 316.4 8.3 C 316.4 8.3 316.4 8.3 316.4 8.3 Z M 313.0 8.3 C 311.7 8.5 311.0 8.2 308.8 8.4 C 309.2 8.5 313.9 8.5 314.7 8.4 C 315.6 8.2 310.6 8.2 313.0 8.3 C 313.0 8.3 313.0 8.3 313.0 8.3 Z M 155.9 8.9 C 155.0 8.9 155.2 9.0 155.1 9.1 C 152.4 8.7 148.8 8.8 151.6 8.5 C 149.0 8.7 146.4 8.4 144.1 8.3 C 142.1 8.3 143.1 8.5 141.6 8.5 C 139.1 8.5 142.9 8.4 142.3 8.3 C 141.8 8.1 141.2 8.5 138.2 8.4 C 139.2 8.8 135.7 8.3 136.7 8.8 C 135.0 8.6 134.6 8.8 132.5 8.8 C 132.8 8.9 134.8 8.9 135.1 9.1 C 136.2 9.3 136.2 8.9 134.2 8.9 C 135.3 8.7 138.3 9.0 139.2 8.9 C 140.3 9.1 136.5 8.9 137.6 9.2 C 138.4 9.1 139.1 9.1 139.2 9.0 C 140.4 9.1 141.3 9.1 141.8 9.3 C 141.1 9.3 141.0 9.2 141.0 9.2 C 139.4 9.2 142.6 9.6 139.4 9.6 C 140.0 9.7 141.4 9.7 141.2 9.8 C 142.2 10.0 141.0 9.1 144.4 9.4 C 146.5 9.2 139.1 9.2 140.8 8.7 C 145.5 8.8 143.0 9.1 146.7 9.2 C 146.7 9.1 146.6 8.9 147.6 8.9 C 147.4 8.8 146.0 8.9 145.0 8.9 C 145.2 8.8 146.6 8.8 147.5 8.8 C 147.3 8.7 146.6 8.7 146.6 8.6 C 149.8 8.7 149.6 9.2 146.8 9.3 C 146.9 9.6 150.8 9.5 151.8 9.4 C 150.7 9.2 151.9 9.3 150.9 9.0 C 150.1 9.0 150.3 9.1 150.1 9.2 C 148.6 9.1 149.9 9.0 150.0 8.9 C 151.7 9.0 151.7 9.2 153.4 9.0 C 153.0 9.1 152.6 9.1 152.6 9.3 C 153.4 9.3 154.3 9.3 155.1 9.3 C 155.0 9.1 156.1 9.1 155.9 8.9 C 155.9 8.9 155.9 8.9 155.9 8.9 Z M 112.2 8.3 C 109.4 8.2 111.0 8.5 112.3 8.5 C 111.8 8.5 110.8 8.6 109.9 8.6 C 110.7 8.7 111.4 8.6 114.0 8.7 C 111.9 9.0 114.5 9.5 118.6 9.4 C 119.6 9.0 116.1 8.9 117.3 8.6 C 114.4 8.8 112.7 8.6 112.2 8.3 C 112.2 8.3 112.2 8.3 112.2 8.3 Z M 342.3 8.4 C 340.6 8.4 338.9 8.4 337.3 8.4 C 337.3 8.6 342.4 8.8 342.3 8.4 C 342.3 8.4 342.3 8.4 342.3 8.4 Z M 382.1 88.7 C 382.1 89.5 382.0 89.5 382.0 89.6 C 382.1 92.2 382.2 88.6 382.4 89.9 C 382.4 89.0 382.4 88.2 382.4 87.3 C 382.3 87.1 382.2 90.7 382.1 87.9 C 382.0 88.0 382.0 88.7 382.1 88.7 C 382.1 88.7 382.1 88.7 382.1 88.7 Z M 304.6 8.5 C 303.0 8.6 303.8 8.9 300.2 8.8 C 301.4 9.0 302.3 8.9 304.4 8.9 C 304.5 8.7 304.5 8.6 304.6 8.5 C 304.6 8.5 304.6 8.5 304.6 8.5 Z M 168.3 8.5 C 166.2 8.3 165.7 8.9 161.7 8.7 C 163.8 9.0 166.0 8.6 168.3 8.5 C 168.3 8.5 168.3 8.5 168.3 8.5 Z M 29.9 8.9 C 31.2 9.0 29.7 9.1 31.8 9.2 C 32.9 9.1 33.3 9.0 34.9 8.9 C 32.4 8.7 28.4 8.9 26.3 8.5 C 24.3 8.6 24.7 8.8 24.2 9.0 C 25.2 9.0 25.7 9.0 25.9 9.1 C 26.8 8.8 28.8 9.3 29.9 8.9 C 29.9 8.9 29.9 8.9 29.9 8.9 Z M 123.2 8.7 C 124.8 8.8 122.3 8.9 121.8 9.1 C 120.6 9.1 121.0 8.9 120.7 8.8 C 119.3 8.8 118.9 8.9 119.3 9.1 C 122.0 9.2 125.5 9.2 123.5 9.5 C 126.3 9.6 124.7 9.2 125.9 9.2 C 127.5 9.3 126.1 9.4 126.1 9.7 C 126.8 9.6 128.7 9.3 128.6 9.7 C 132.5 9.3 130.6 8.9 127.4 8.5 C 124.8 8.8 128.0 8.9 123.2 8.7 C 123.2 8.7 123.2 8.7 123.2 8.7 Z M 229.3 8.9 C 229.1 8.9 227.6 8.9 227.6 8.8 C 225.8 9.0 224.2 9.3 222.5 9.5 C 222.8 9.7 225.1 9.5 224.2 9.3 C 224.9 9.5 226.5 9.6 227.4 9.7 C 229.1 9.8 229.8 9.3 230.0 9.7 C 231.6 9.5 230.6 9.5 233.3 9.6 C 229.1 9.3 234.8 9.4 235.1 9.2 C 232.7 9.2 230.5 9.2 230.8 9.4 C 229.1 9.3 227.1 9.2 226.8 9.0 C 226.9 8.9 228.3 8.9 229.3 8.9 C 229.3 8.9 229.3 8.9 229.3 8.9 Z M 219.2 9.7 C 219.8 9.6 220.5 9.6 221.6 9.6 C 221.0 9.5 220.8 9.4 220.9 9.3 C 218.8 9.3 218.3 9.4 217.6 9.2 C 215.6 9.1 218.0 9.5 215.0 9.4 C 215.2 9.5 216.7 9.5 216.7 9.6 C 217.0 9.4 218.2 9.4 219.2 9.7 C 219.2 9.7 219.2 9.7 219.2 9.7 Z M 193.4 9.2 C 191.2 9.2 194.6 9.3 193.4 9.5 C 194.0 9.5 198.1 9.5 197.6 9.7 C 198.8 10.1 203.0 9.4 202.6 9.8 C 203.6 9.8 203.2 9.7 203.4 9.6 C 200.5 9.6 200.5 9.5 202.6 9.4 C 202.3 9.3 200.5 9.4 199.3 9.3 C 199.1 9.5 200.2 9.5 200.1 9.7 C 197.6 9.5 195.7 9.3 193.4 9.2 C 193.4 9.2 193.4 9.2 193.4 9.2 Z M 296.0 93.3 C 298.0 93.4 299.2 93.3 300.1 93.2 C 299.4 93.1 298.5 93.2 297.6 93.2 C 297.2 93.1 298.1 93.1 299.2 93.1 C 298.0 92.9 294.7 93.1 296.0 93.3 C 296.0 93.3 296.0 93.3 296.0 93.3 Z M 312.6 93.3 C 314.5 93.4 315.7 93.3 315.8 93.2 C 314.9 93.0 315.4 93.3 314.2 93.2 C 313.4 93.2 312.8 93.1 312.4 93.0 C 311.5 93.0 311.8 93.1 311.6 93.2 C 311.0 93.2 310.8 93.1 310.7 93.1 C 308.6 93.3 313.4 93.1 312.6 93.3 C 312.6 93.3 312.6 93.3 312.6 93.3 Z M 207.6 9.3 C 208.3 9.5 208.8 9.6 210.9 9.6 C 210.5 9.4 212.1 9.4 213.4 9.4 C 211.5 9.2 210.5 9.3 207.6 9.3 C 207.6 9.3 207.6 9.3 207.6 9.3 Z M 381.4 57.7 C 381.7 55.1 381.2 55.3 381.4 51.7 C 381.4 51.7 381.3 51.7 381.2 51.7 C 381.4 54.0 381.3 54.9 381.4 57.7 C 381.4 57.7 381.4 57.7 381.4 57.7 Z M 73.5 93.2 C 73.7 93.0 71.2 93.1 71.0 92.9 C 70.6 93.3 69.2 92.7 64.3 92.8 C 64.2 92.7 64.6 92.6 65.2 92.6 C 61.2 92.5 66.4 92.9 66.9 93.1 C 69.9 93.0 70.5 93.2 73.5 93.2 C 73.5 93.2 73.5 93.2 73.5 93.2 Z M 55.5 9.7 C 55.6 9.6 55.1 9.6 54.6 9.6 C 54.1 9.6 53.5 9.6 53.0 9.6 C 53.4 9.9 56.3 10.0 54.4 10.4 C 55.2 10.4 55.2 10.3 55.2 10.3 C 58.7 9.6 62.7 10.8 67.6 10.3 C 68.4 10.3 68.2 10.2 68.3 10.1 C 67.7 10.2 67.5 10.1 67.4 10.1 C 67.0 10.4 62.0 10.0 64.0 9.9 C 63.8 9.8 63.2 9.9 63.2 9.9 C 62.6 9.9 62.1 9.9 61.5 9.9 C 61.9 10.0 63.0 10.0 63.4 10.1 C 60.6 10.0 57.3 10.0 58.8 9.7 C 57.2 9.7 56.7 9.8 55.7 9.9 C 54.6 9.9 54.4 9.7 55.5 9.7 C 55.5 9.7 55.5 9.7 55.5 9.7 Z M 34.0 9.7 C 31.4 9.7 32.6 10.0 29.9 9.9 C 31.7 10.1 33.5 9.8 35.8 10.0 C 35.4 9.9 34.3 9.9 34.0 9.7 C 34.0 9.7 34.0 9.7 34.0 9.7 Z M 82.3 10.1 C 82.0 10.3 84.3 10.4 86.7 10.4 C 87.0 10.1 84.8 10.1 82.3 10.1 C 82.3 10.1 82.3 10.1 82.3 10.1 Z M 71.6 10.1 C 69.2 10.2 74.7 10.1 73.5 10.4 C 74.6 10.4 75.8 10.4 75.9 10.5 C 76.8 10.4 76.7 10.3 78.3 10.3 C 78.2 10.1 75.6 10.2 75.7 10.1 C 73.9 10.2 73.6 10.2 71.6 10.1 C 71.6 10.1 71.6 10.1 71.6 10.1 Z M 69.9 10.1 C 68.4 10.1 70.7 10.5 72.7 10.5 C 71.8 10.4 71.2 10.2 69.9 10.1 C 69.9 10.1 69.9 10.1 69.9 10.1 Z M 263.8 10.1 C 262.7 10.2 263.5 10.4 262.1 10.4 C 262.1 10.5 267.0 10.5 262.9 10.5 C 264.3 10.8 265.2 10.4 267.1 10.5 C 266.5 10.4 266.1 10.3 267.1 10.3 C 267.8 10.1 263.2 10.4 263.8 10.1 C 263.8 10.1 263.8 10.1 263.8 10.1 Z M 258.9 10.1 C 257.9 10.2 258.4 10.2 258.9 10.2 C 258.7 10.3 257.3 10.3 256.3 10.3 C 256.3 10.2 258.0 10.7 257.8 10.9 C 262.1 10.7 259.0 10.4 258.9 10.1 C 258.9 10.1 258.9 10.1 258.9 10.1 Z M 254.7 10.3 C 252.0 10.1 248.2 10.1 246.4 10.4 C 248.2 10.7 253.3 10.6 254.7 10.3 C 254.7 10.3 254.7 10.3 254.7 10.3 Z M 282.0 10.4 C 277.2 10.1 267.2 10.5 276.0 10.7 C 275.8 10.5 281.6 10.4 284.4 10.5 C 284.5 10.4 287.8 10.2 287.8 10.4 C 290.1 10.2 280.9 10.2 282.0 10.4 C 282.0 10.4 282.0 10.4 282.0 10.4 Z M 242.9 10.9 C 244.3 10.7 242.7 10.3 244.7 10.5 C 246.0 10.4 244.4 10.4 244.8 10.2 C 242.2 10.2 236.9 10.5 236.5 10.2 C 235.2 10.3 234.7 10.5 232.3 10.5 C 232.2 10.6 241.2 10.2 243.0 10.7 C 242.8 10.8 239.6 10.8 242.9 10.9 C 242.9 10.9 242.9 10.9 242.9 10.9 Z M 380.0 57.5 C 380.2 57.7 380.1 54.3 380.3 55.0 C 380.0 53.1 380.2 51.4 380.0 49.3 C 380.1 48.7 380.4 48.9 380.5 46.0 C 380.3 45.9 380.3 47.4 380.2 46.0 C 380.1 43.4 380.4 44.1 380.3 41.0 C 379.9 41.6 380.2 34.6 379.8 35.4 C 379.9 37.0 380.1 36.8 380.0 39.5 C 380.0 40.4 379.8 40.0 379.8 41.1 C 379.6 40.4 380.0 39.0 379.8 37.9 C 379.6 38.2 379.6 40.2 379.4 40.5 C 379.5 41.6 379.5 40.1 379.7 40.4 C 379.7 43.5 379.1 40.3 379.2 43.7 C 379.4 43.0 379.4 43.0 379.7 43.6 C 379.6 45.0 379.7 49.2 379.4 46.9 C 379.3 47.2 379.5 49.7 379.7 49.3 C 379.7 50.7 379.6 50.8 379.5 50.9 C 379.6 54.4 379.8 54.9 380.1 54.2 C 380.3 54.9 379.9 55.4 380.0 57.5 C 380.0 57.5 380.0 57.5 380.0 57.5 Z M 308.4 10.5 C 310.4 10.3 306.2 10.5 304.3 10.5 C 306.6 10.5 305.7 10.8 308.1 10.9 C 307.3 10.8 307.5 10.7 309.1 10.7 C 309.6 10.6 306.0 10.5 308.4 10.5 C 308.4 10.5 308.4 10.5 308.4 10.5 Z M 227.3 10.5 C 226.5 10.3 222.2 10.4 219.9 10.4 C 220.3 10.8 225.8 10.2 226.5 10.6 C 227.8 10.6 225.8 10.5 227.3 10.5 C 227.3 10.5 227.3 10.5 227.3 10.5 Z M 380.3 26.1 C 380.3 25.3 380.2 25.8 380.2 26.2 C 380.1 26.0 380.2 24.2 380.2 23.0 C 380.0 24.9 379.9 22.7 379.7 23.3 C 379.7 22.3 379.7 21.9 379.6 21.8 C 380.1 21.4 379.3 16.9 379.3 22.0 C 379.5 20.9 379.5 21.3 379.6 23.3 C 379.4 25.8 379.6 27.4 379.4 28.4 C 379.4 29.9 379.5 30.3 379.5 32.3 C 379.3 32.9 379.2 34.7 378.9 33.4 C 378.9 36.9 379.5 34.3 379.5 37.2 C 379.4 40.0 379.2 35.9 379.0 36.6 C 379.0 37.3 378.9 37.2 378.9 37.4 C 378.9 38.4 379.1 38.4 379.1 37.3 C 379.2 37.6 379.4 40.4 379.1 39.7 C 379.2 41.3 379.9 36.9 379.6 34.7 C 379.6 33.4 380.0 33.2 380.0 34.6 C 380.2 34.0 379.7 31.5 380.2 32.0 C 380.2 30.9 380.2 29.8 380.2 28.7 C 380.1 28.9 380.1 29.6 380.0 29.6 C 380.0 28.6 380.0 27.5 380.0 26.3 C 380.1 27.2 380.2 27.2 380.3 26.1 C 380.3 26.1 380.3 26.1 380.3 26.1 Z M 238.1 10.5 C 236.0 10.5 235.5 10.7 233.9 10.7 C 234.5 10.9 239.0 10.8 238.1 10.5 C 238.1 10.5 238.1 10.5 238.1 10.5 Z M 379.3 71.1 C 379.4 70.9 379.3 69.4 379.4 69.5 C 379.5 72.1 379.6 69.3 380.1 71.5 C 379.9 68.1 379.3 66.8 379.1 71.0 C 379.2 74.1 379.2 67.8 379.3 71.1 C 379.3 71.1 379.3 71.1 379.3 71.1 Z M 379.4 61.4 C 379.3 59.4 379.2 64.3 379.1 65.4 C 379.0 65.3 379.0 65.3 378.9 65.3 C 379.2 68.1 379.4 64.5 379.8 67.2 C 380.0 64.1 380.0 62.7 379.9 59.9 C 379.8 60.1 379.9 60.7 379.9 60.7 C 379.9 62.8 379.6 61.3 379.7 59.1 C 379.6 59.7 379.6 61.7 379.5 63.1 C 379.6 62.7 379.6 62.2 379.8 62.3 C 379.8 64.1 379.6 63.4 379.6 64.7 C 379.5 64.6 379.3 61.4 379.4 61.4 C 379.4 61.4 379.4 61.4 379.4 61.4 Z M 247.6 91.6 C 249.2 91.5 245.6 91.2 245.5 90.8 C 243.7 90.8 243.3 90.9 242.2 90.9 C 242.9 91.1 244.8 91.1 245.7 91.2 C 245.6 91.6 243.1 91.2 242.5 91.4 C 241.7 91.8 246.6 91.3 247.6 91.6 C 247.6 91.6 247.6 91.6 247.6 91.6 Z M 356.8 10.9 C 355.9 11.0 356.3 11.0 356.7 11.0 C 356.4 11.1 355.0 11.1 355.1 11.0 C 353.8 11.0 355.7 11.2 354.1 11.2 C 353.7 11.3 356.5 11.2 356.6 11.1 C 358.5 11.1 356.8 11.4 357.1 11.5 C 358.7 11.5 358.4 11.3 360.6 11.3 C 359.3 11.2 358.3 11.1 356.8 10.9 C 356.8 10.9 356.8 10.9 356.8 10.9 Z M 379.8 76.9 C 379.9 77.3 379.4 74.8 379.6 72.8 C 379.6 70.0 379.3 74.4 379.4 71.9 C 379.3 74.0 379.5 76.7 379.5 80.0 C 379.7 80.9 379.6 75.5 379.7 78.5 C 379.8 78.4 379.7 77.7 379.7 77.7 C 379.7 77.0 379.7 77.0 379.8 76.9 C 379.8 76.9 379.8 76.9 379.8 76.9 Z M 379.2 73.4 C 379.1 73.5 379.2 74.2 379.2 74.2 C 379.2 75.2 379.0 75.1 379.0 74.1 C 378.7 75.2 379.2 75.5 379.0 78.1 C 379.2 77.1 379.4 76.6 379.2 79.0 C 379.4 81.2 379.4 74.4 379.2 73.4 C 379.2 73.4 379.2 73.4 379.2 73.4 Z M 273.9 91.4 C 273.5 91.3 271.8 91.3 270.5 91.3 C 272.0 91.1 278.7 91.2 279.7 91.4 C 280.3 91.4 281.0 91.3 281.3 91.4 C 281.2 91.3 283.0 91.2 282.0 91.2 C 282.1 91.1 283.5 91.1 283.5 91.0 C 286.0 91.1 282.9 91.2 283.7 91.3 C 286.5 91.1 286.0 91.3 289.5 91.3 C 288.8 91.1 284.9 91.2 285.0 90.8 C 282.5 91.1 279.4 90.9 277.5 90.7 C 280.4 91.1 270.8 91.2 266.3 91.2 C 266.3 91.0 264.8 91.1 262.8 90.9 C 261.4 90.7 262.1 91.2 264.5 91.1 C 264.6 91.3 261.1 91.1 259.7 91.2 C 261.5 91.3 260.6 91.4 261.5 91.5 C 264.7 91.5 261.8 91.4 262.2 91.2 C 263.0 91.2 263.8 91.2 264.7 91.2 C 260.6 91.6 271.0 91.3 267.2 91.3 C 270.6 91.3 270.8 91.6 273.9 91.4 C 273.9 91.4 273.9 91.4 273.9 91.4 Z M 351.5 91.5 C 352.1 91.5 354.6 91.3 354.8 91.5 C 358.0 91.3 354.9 91.1 358.6 91.1 C 358.3 91.0 356.9 91.0 356.8 90.9 C 355.4 91.0 354.1 91.1 354.7 91.3 C 353.0 91.3 352.6 91.4 351.5 91.4 C 351.8 91.3 352.4 91.2 353.8 91.2 C 353.9 91.0 353.2 90.9 351.0 90.9 C 350.2 91.1 351.1 91.3 351.5 91.5 C 351.5 91.5 351.5 91.5 351.5 91.5 Z M 359.5 91.2 C 360.0 91.2 360.5 91.3 360.6 91.4 C 362.0 91.7 360.7 91.1 361.9 91.1 C 362.9 91.1 362.7 91.2 363.0 91.3 C 364.4 91.3 365.5 91.2 366.3 91.3 C 368.4 91.2 363.5 91.1 362.7 91.0 C 361.1 91.0 361.8 91.2 359.5 91.2 C 359.5 91.2 359.5 91.2 359.5 91.2 Z M 379.7 86.6 C 379.9 86.4 379.6 85.2 379.6 84.2 C 379.4 84.8 379.5 87.3 379.2 85.4 C 379.1 87.7 379.1 87.8 379.2 90.3 C 379.0 91.6 379.4 90.5 379.3 87.9 C 379.4 88.3 379.4 89.4 379.5 89.7 C 379.4 90.0 379.4 90.5 379.4 91.1 C 377.6 91.1 376.1 91.4 377.7 91.2 C 378.5 91.2 379.1 91.3 379.6 91.4 C 379.6 91.4 379.6 91.4 379.7 91.4 C 379.5 90.2 379.6 85.4 379.7 86.6 C 379.7 86.6 379.7 86.6 379.7 86.6 Z M 373.7 11.4 C 376.7 11.4 377.0 11.4 379.5 11.4 C 379.5 11.6 379.4 11.9 379.4 12.2 C 379.3 12.4 379.3 12.2 379.3 11.6 C 379.2 12.4 379.2 13.4 379.3 14.7 C 379.4 14.6 379.3 13.9 379.3 13.9 C 379.5 11.2 379.5 13.4 379.7 13.6 C 379.7 12.7 379.7 11.9 379.7 11.1 C 377.6 11.2 375.6 11.3 374.8 11.1 C 373.5 11.2 374.9 11.2 373.7 11.4 C 373.7 11.4 373.7 11.4 373.7 11.4 Z M 76.5 91.2 C 76.0 91.2 74.7 91.2 74.9 91.4 C 76.1 91.4 77.0 91.3 78.2 91.2 C 75.8 91.2 76.1 90.8 73.1 90.8 C 74.1 91.0 73.9 91.2 76.5 91.2 C 76.5 91.2 76.5 91.2 76.5 91.2 Z M 376.2 91.3 C 376.0 91.2 375.8 91.1 376.7 91.1 C 376.9 90.9 374.3 91.0 374.1 90.8 C 373.2 90.9 373.7 91.0 372.6 91.0 C 373.1 91.1 375.2 91.1 374.6 91.3 C 373.9 91.3 373.7 91.3 373.6 91.2 C 372.0 91.4 374.7 91.4 376.2 91.3 C 376.2 91.3 376.2 91.3 376.2 91.3 Z M 239.2 91.3 C 240.3 91.3 239.1 91.2 238.2 91.2 C 240.5 90.9 236.5 90.8 236.2 90.5 C 237.4 90.7 240.6 90.6 241.2 90.7 C 242.1 90.6 240.9 90.4 243.5 90.4 C 243.0 90.2 240.3 90.4 241.1 90.5 C 240.2 90.2 237.6 90.6 237.7 90.3 C 233.9 90.2 233.2 90.4 233.0 90.7 C 236.6 90.6 235.0 91.0 238.1 90.9 C 238.1 91.0 237.1 91.0 236.5 91.0 C 236.8 91.2 238.2 91.2 239.2 91.3 C 239.2 91.3 239.2 91.3 239.2 91.3 Z M 325.0 91.3 C 326.8 91.3 326.6 91.1 326.3 90.9 C 325.7 91.0 324.6 91.0 323.1 91.0 C 323.5 91.1 325.7 91.1 325.0 91.3 C 325.0 91.3 325.0 91.3 325.0 91.3 Z M 252.2 91.0 C 252.4 91.1 253.0 91.1 253.0 91.0 C 255.1 91.0 255.6 91.1 256.4 91.2 C 257.5 91.2 257.0 91.0 257.0 90.9 C 255.2 91.1 255.4 90.8 252.9 90.8 C 253.1 90.9 252.8 91.0 252.2 91.0 C 252.2 91.0 252.2 91.0 252.2 91.0 Z M 307.6 91.2 C 308.5 91.2 308.0 91.1 307.5 91.1 C 308.4 90.8 312.0 91.1 313.2 90.9 C 313.1 90.7 309.0 90.8 313.8 90.7 C 312.7 90.5 308.5 90.7 306.3 90.6 C 306.6 90.4 309.6 90.4 309.2 90.1 C 306.8 90.3 304.1 90.4 303.9 90.8 C 307.7 90.8 306.5 91.0 307.6 91.2 C 307.6 91.2 307.6 91.2 307.6 91.2 Z M 303.3 91.0 C 303.7 91.1 304.3 91.0 305.7 91.0 C 303.5 90.7 302.4 90.8 298.2 90.8 C 298.2 90.8 298.2 90.9 298.3 90.9 C 297.5 90.9 296.6 90.9 295.8 90.9 C 299.6 91.2 300.4 91.0 304.1 90.9 C 304.3 91.0 303.8 91.0 303.3 91.0 C 303.3 91.0 303.3 91.0 303.3 91.0 Z M 379.3 57.3 C 379.1 58.4 379.0 59.3 379.0 61.3 C 379.2 61.2 379.3 60.0 379.3 57.3 C 379.3 57.3 379.3 57.3 379.3 57.3 Z M 248.8 90.8 C 246.6 91.0 251.0 90.9 249.4 90.6 C 247.6 90.5 245.6 90.4 245.1 90.2 C 242.0 90.5 249.0 90.5 248.8 90.8 C 248.8 90.8 248.8 90.8 248.8 90.8 Z M 263.2 90.3 C 264.2 90.3 264.4 90.7 263.3 90.4 C 261.0 90.4 265.4 90.7 261.8 90.6 C 263.4 90.7 266.9 90.8 268.4 90.7 C 268.2 90.5 265.1 90.6 264.9 90.4 C 264.7 90.3 265.2 90.3 265.7 90.3 C 265.3 90.2 264.6 90.3 263.2 90.3 C 263.2 90.3 263.2 90.3 263.2 90.3 Z M 275.8 90.7 C 274.4 90.6 272.7 90.4 269.9 90.4 C 271.8 90.6 273.0 90.8 275.8 90.7 C 275.8 90.7 275.8 90.7 275.8 90.7 Z M 120.0 90.4 C 122.0 90.4 120.2 90.1 119.9 90.0 C 117.9 90.0 118.1 90.2 115.8 90.1 C 116.6 90.4 118.7 90.1 120.0 90.4 C 120.0 90.4 120.0 90.4 120.0 90.4 Z M 112.6 90.2 C 112.3 90.0 109.4 90.1 109.2 90.0 C 107.7 90.4 104.9 89.7 105.1 90.0 C 104.4 90.0 103.8 90.0 102.6 90.0 C 105.0 90.4 110.1 90.2 112.6 90.2 C 112.6 90.2 112.6 90.2 112.6 90.2 Z M 289.5 90.2 C 291.7 90.3 288.6 89.8 290.9 89.9 C 291.0 89.8 286.6 89.7 289.1 89.6 C 285.6 89.5 289.7 90.1 289.5 90.2 C 289.5 90.2 289.5 90.2 289.5 90.2 Z M 329.6 90.0 C 329.6 90.1 332.5 90.0 333.8 90.0 C 333.7 90.0 332.7 90.0 332.1 90.0 C 332.3 89.9 332.7 89.8 333.6 89.8 C 332.7 89.6 330.8 89.9 329.6 90.0 C 329.6 90.0 329.6 90.0 329.6 90.0 Z M 288.5 94.4 C 286.9 94.1 285.0 93.9 284.3 94.3 C 282.7 94.1 285.0 94.0 283.2 93.9 C 280.9 94.0 281.8 93.8 278.1 93.9 C 278.6 93.6 275.9 93.6 275.3 93.4 C 276.8 93.4 278.9 93.6 279.5 93.4 C 278.2 93.4 278.8 93.2 279.4 93.3 C 282.0 93.5 276.6 93.6 279.8 93.8 C 280.4 93.5 285.3 94.1 288.2 94.1 C 287.2 94.2 290.6 94.3 288.5 94.4 C 288.5 94.4 288.5 94.4 288.5 94.4 Z M 273.2 93.9 C 271.2 93.9 269.8 93.4 270.3 93.4 C 270.4 93.5 272.7 93.5 272.9 93.4 C 272.3 93.4 271.8 93.4 271.9 93.3 C 275.7 93.4 274.5 93.6 275.5 93.7 C 273.6 93.8 272.9 93.7 272.2 93.8 C 272.7 93.8 273.2 93.8 273.2 93.9 C 273.2 93.9 273.2 93.9 273.2 93.9 Z M 226.7 89.9 C 227.2 90.0 227.6 89.9 228.4 89.8 C 228.8 90.2 232.6 89.7 233.3 89.9 C 232.4 90.0 230.3 90.0 229.4 90.1 C 230.5 90.2 230.8 90.2 231.9 90.1 C 231.8 90.3 229.4 90.4 228.8 90.5 C 228.5 90.4 227.5 90.6 227.1 90.4 C 230.2 90.3 224.9 89.9 226.7 89.9 C 226.7 89.9 226.7 89.9 226.7 89.9 Z M 308.1 89.9 C 308.2 89.6 304.3 89.1 307.2 88.8 C 308.1 89.0 308.7 89.2 308.7 89.5 C 310.6 89.3 311.6 89.6 312.6 89.3 C 317.0 90.0 309.7 89.3 308.1 89.9 C 308.1 89.9 308.1 89.9 308.1 89.9 Z M 321.2 89.6 C 320.6 89.9 322.5 89.9 322.3 90.0 C 320.5 89.9 315.6 90.1 317.3 90.0 C 318.9 89.9 318.7 89.7 321.2 89.6 C 321.2 89.6 321.2 89.6 321.2 89.6 Z M 178.6 10.8 C 181.2 10.6 182.6 11.0 181.1 11.2 C 181.7 10.9 177.7 11.1 178.6 10.8 C 178.6 10.8 178.6 10.8 178.6 10.8 Z M 276.0 6.9 C 273.6 6.8 272.2 6.9 271.9 6.7 C 274.3 6.6 274.0 6.8 276.1 6.8 C 276.3 6.7 277.6 6.6 277.8 6.7 C 276.6 6.7 276.8 6.9 276.0 6.9 C 276.0 6.9 276.0 6.9 276.0 6.9 Z M 376.8 95.3 C 377.2 95.4 378.2 95.5 377.9 95.6 C 375.3 95.5 372.6 95.7 370.7 95.9 C 370.6 95.8 370.5 95.7 370.4 95.6 C 374.4 95.7 375.3 95.5 376.8 95.3 C 376.8 95.3 376.8 95.3 376.8 95.3 Z M 382.3 95.8 C 382.6 95.7 380.9 95.4 382.8 95.4 C 382.8 95.5 383.3 95.6 383.9 95.6 C 384.0 94.9 384.1 94.2 384.2 95.1 C 384.1 95.3 384.1 95.5 384.0 95.8 C 383.5 95.7 383.0 95.8 382.3 95.8 C 382.3 95.8 382.3 95.8 382.3 95.8 Z M 241.2 94.5 C 239.2 94.5 242.2 94.7 242.2 94.8 C 240.7 94.8 238.7 94.8 237.9 94.7 C 239.4 94.7 240.2 94.3 241.2 94.5 C 241.2 94.5 241.2 94.5 241.2 94.5 Z M 271.5 94.0 C 275.8 93.9 274.3 94.4 278.5 94.4 C 276.9 94.6 273.1 94.6 272.1 94.8 C 272.2 94.6 271.1 94.6 271.1 94.4 C 272.6 94.4 272.9 94.5 274.5 94.5 C 273.7 94.3 273.8 94.4 274.2 94.1 C 273.0 94.1 272.3 94.2 271.7 94.2 C 271.9 94.1 270.4 94.0 271.5 94.0 C 271.5 94.0 271.5 94.0 271.5 94.0 Z M 241.6 93.9 C 239.9 94.0 238.3 93.6 239.7 93.6 C 240.1 93.8 241.1 93.6 241.5 93.7 C 239.1 93.8 243.5 93.8 242.5 94.0 C 241.0 94.0 240.6 94.1 241.0 94.3 C 240.0 94.3 238.6 94.3 238.5 94.2 C 239.1 94.2 240.1 94.2 240.0 94.1 C 239.5 94.1 239.0 94.1 239.2 94.0 C 240.6 94.1 241.2 94.0 241.6 93.9 C 241.6 93.9 241.6 93.9 241.6 93.9 Z M 253.2 93.9 C 250.9 93.9 250.5 93.7 249.6 93.5 C 252.7 93.6 253.4 93.9 255.8 94.0 C 253.2 94.0 250.9 94.3 250.0 94.1 C 251.1 94.0 253.1 94.1 253.2 93.9 C 253.2 93.9 253.2 93.9 253.2 93.9 Z M 9.2 56.9 C 9.3 55.0 9.5 53.4 9.6 51.3 C 9.3 50.4 8.9 54.3 9.0 52.6 C 9.0 50.3 9.3 52.0 9.4 50.2 C 9.0 51.9 9.0 42.1 9.4 41.9 C 9.4 43.4 9.4 43.9 9.6 43.7 C 9.6 47.6 9.8 49.2 9.8 52.2 C 9.5 54.2 9.4 60.3 9.8 63.8 C 9.3 65.8 9.8 70.0 9.4 72.9 C 9.6 73.8 9.7 70.4 9.8 73.0 C 9.5 74.5 9.4 73.2 9.3 75.4 C 9.4 75.6 9.6 75.1 9.6 76.3 C 9.4 76.1 9.4 77.5 9.4 78.0 C 9.4 73.4 9.0 78.1 9.0 74.5 C 9.1 73.1 9.4 76.2 9.4 72.1 C 9.3 70.6 9.2 69.2 9.0 69.4 C 9.0 68.3 8.9 67.6 8.9 66.9 C 9.2 68.5 8.8 61.1 9.1 64.5 C 9.1 64.7 9.1 67.0 9.2 68.7 C 9.5 67.3 9.3 65.4 9.2 62.8 C 9.4 61.8 9.5 63.4 9.5 62.1 C 9.4 60.0 9.2 62.7 9.0 61.1 C 9.0 61.7 9.0 62.7 9.0 62.7 C 9.2 59.3 8.9 57.8 9.0 56.0 C 9.1 57.3 9.2 54.0 9.2 56.9 C 9.2 56.9 9.2 56.9 9.2 56.9 Z M 9.5 87.2 C 9.5 88.0 9.5 88.8 9.5 89.7 C 9.3 89.9 9.2 86.6 9.0 88.8 C 9.1 85.1 9.3 89.0 9.5 87.2 C 9.5 87.2 9.5 87.2 9.5 87.2 Z M 10.4 70.7 C 10.7 69.6 10.1 70.1 10.1 68.9 C 10.1 71.0 10.2 72.8 9.9 73.0 C 10.0 70.7 10.0 69.6 9.9 67.2 C 10.3 69.6 10.2 64.7 10.5 64.0 C 10.5 65.9 10.7 67.4 10.6 69.9 C 10.5 69.5 10.4 73.1 10.4 70.7 C 10.4 70.7 10.4 70.7 10.4 70.7 Z M 10.7 77.4 C 10.6 77.8 10.7 81.5 10.4 80.6 C 10.4 78.5 10.4 77.6 10.2 78.1 C 10.1 76.5 10.3 76.2 10.2 74.8 C 10.5 74.0 10.5 76.5 10.6 77.4 C 10.6 76.9 10.7 76.4 10.7 77.4 C 10.7 77.4 10.7 77.4 10.7 77.4 Z M 57.4 90.4 C 58.2 90.6 54.8 90.5 54.1 90.4 C 55.1 90.7 54.6 90.7 52.6 90.8 C 53.3 90.5 50.3 90.6 48.4 90.3 C 47.9 90.5 50.4 90.6 47.6 90.7 C 45.4 90.6 43.5 90.7 40.2 90.8 C 39.4 90.5 40.9 90.5 41.7 90.4 C 39.5 90.4 40.1 90.2 38.4 90.2 C 38.8 90.3 37.4 90.4 36.8 90.3 C 39.7 90.2 33.0 90.0 36.0 89.9 C 36.2 90.0 36.9 89.9 37.6 89.9 C 36.8 90.2 40.8 90.1 41.7 90.3 C 43.3 89.7 47.6 89.9 52.5 90.1 C 52.8 90.3 51.3 90.3 52.5 90.4 C 52.6 90.3 54.3 90.3 55.0 90.2 C 54.9 90.3 55.6 90.4 56.6 90.4 C 56.7 90.4 56.8 90.4 57.4 90.4 C 57.4 90.4 57.4 90.4 57.4 90.4 Z M 99.9 11.8 C 99.9 12.2 105.1 12.0 106.5 11.9 C 106.4 12.3 97.1 12.2 99.9 11.8 C 99.9 11.8 99.9 11.8 99.9 11.8 Z M 68.1 12.1 C 69.4 12.1 68.3 11.9 69.5 11.9 C 69.7 12.1 72.5 11.6 72.8 11.9 C 71.4 12.1 70.4 12.1 68.1 12.1 C 68.1 12.1 68.1 12.1 68.1 12.1 Z M 38.4 12.1 C 40.8 12.0 37.0 11.9 37.4 11.8 C 39.5 11.8 41.7 11.8 41.7 12.1 C 39.8 11.9 38.8 12.3 38.4 12.1 C 38.4 12.1 38.4 12.1 38.4 12.1 Z M 82.9 12.4 C 85.0 12.5 81.9 12.8 81.5 12.6 C 83.6 12.5 79.9 12.4 78.1 12.5 C 78.0 12.2 78.8 12.2 77.8 12.0 C 80.6 11.9 78.4 12.2 80.4 12.2 C 81.7 12.1 80.3 12.1 80.2 11.9 C 81.0 11.9 81.8 11.9 82.6 11.9 C 82.7 12.0 82.8 12.2 82.9 12.3 C 81.9 12.3 81.0 12.3 81.4 12.5 C 82.2 12.5 82.3 12.4 82.9 12.4 C 82.9 12.4 82.9 12.4 82.9 12.4 Z M 14.6 89.9 C 13.3 89.9 14.4 90.0 15.4 90.0 C 15.6 89.9 16.4 89.5 17.9 89.7 C 14.7 89.9 18.9 90.1 17.1 90.2 C 16.4 90.0 14.4 90.3 12.9 90.2 C 12.3 90.0 13.9 89.7 14.6 89.9 C 14.6 89.9 14.6 89.9 14.6 89.9 Z M 20.4 90.0 C 20.2 90.0 19.7 90.0 18.7 90.0 C 19.7 89.8 18.3 89.7 19.6 89.6 C 19.4 89.8 23.7 89.8 21.2 89.9 C 18.9 89.7 21.8 90.0 22.9 90.0 C 21.7 90.0 19.7 90.3 19.5 90.1 C 20.1 90.1 20.5 90.1 20.4 90.0 C 20.4 90.0 20.4 90.0 20.4 90.0 Z M 73.7 89.7 C 74.0 89.6 72.6 89.6 72.1 89.5 C 76.3 89.5 79.9 89.5 82.0 89.6 C 80.0 89.6 80.1 89.8 81.2 89.9 C 79.1 89.8 78.7 89.9 77.9 89.8 C 79.7 89.6 76.3 89.7 73.7 89.7 C 73.7 89.7 73.7 89.7 73.7 89.7 Z M 73.7 89.7 " fill="#FFE181"></path><g><clipPath id="clip-207"><path d="M 14.4 14.4 L 376.4 14.4 L 376.4 88.2 L 14.4 88.2 Z M 14.4 14.4 "></path></clipPath><g clip-path="url(#clip-207)"><path d="M 52.6 61.2 L 338.3 61.2 L 338.3 39.2 L 52.6 39.2 Z M 52.6 61.2 " fill="#000000"></path><text xml:space="preserve" font-family="Monaco" font-size="17.0" fill="#34BC25" transform="matrix(1.00, 0.00, -0.00, -1.00, 53.0, 45.0)">[</text><text xml:space="preserve" font-family="Monaco" font-size="17.0" fill="#34BC25" transform="matrix(1.00, 0.00, -0.00, -1.00, 63.2, 45.0)">c</text><text xml:space="preserve" font-family="Monaco" font-size="17.0" fill="#34BC25" transform="matrix(1.00, 0.00, -0.00, -1.00, 73.4, 45.0)">o</text><text xml:space="preserve" font-family="Monaco" font-size="17.0" fill="#34BC25" transform="matrix(1.00, 0.00, -0.00, -1.00, 83.6, 45.0)">m</text><text xml:space="preserve" font-family="Monaco" font-size="17.0" fill="#34BC25" transform="matrix(1.00, 0.00, -0.00, -1.00, 93.8, 45.0)">p</text><text xml:space="preserve" font-family="Monaco" font-size="17.0" fill="#34BC25" transform="matrix(1.00, 0.00, -0.00, -1.00, 104.0, 45.0)">u</text><text xml:space="preserve" font-family="Monaco" font-size="17.0" fill="#34BC25" transform="matrix(1.00, 0.00, -0.00, -1.00, 114.2, 45.0)">t</text><text xml:space="preserve" font-family="Monaco" font-size="17.0" fill="#34BC25" transform="matrix(1.00, 0.00, -0.00, -1.00, 124.4, 45.0)">e</text><text xml:space="preserve" font-family="Monaco" font-size="17.0" fill="#34BC25" transform="matrix(1.00, 0.00, -0.00, -1.00, 134.6, 45.0)"> </text><text xml:space="preserve" font-family="Monaco" font-size="17.0" fill="#34BC25" transform="matrix(1.00, 0.00, -0.00, -1.00, 144.8, 45.0)">n</text><text xml:space="preserve" font-family="Monaco" font-size="17.0" fill="#34BC25" transform="matrix(1.00, 0.00, -0.00, -1.00, 155.0, 45.0)">o</text><text xml:space="preserve" font-family="Monaco" font-size="17.0" fill="#34BC25" transform="matrix(1.00, 0.00, -0.00, -1.00, 165.2, 45.0)">d</text><text xml:space="preserve" font-family="Monaco" font-size="17.0" fill="#34BC25" transform="matrix(1.00, 0.00, -0.00, -1.00, 175.4, 45.0)">e</text><text xml:space="preserve" font-family="Monaco" font-size="17.0" fill="#34BC25" transform="matrix(1.00, 0.00, -0.00, -1.00, 185.6, 45.0)">]</text><text xml:space="preserve" font-family="Monaco" font-size="17.0" fill="#34BC25" transform="matrix(1.00, 0.00, -0.00, -1.00, 195.8, 45.0)"> </text><text xml:space="preserve" font-family="Monaco" font-size="17.0" fill="#FEFFFE" transform="matrix(1.00, 0.00, -0.00, -1.00, 206.0, 45.0)">#</text><text xml:space="preserve" font-family="Monaco" font-size="17.0" fill="#FEFFFE" transform="matrix(1.00, 0.00, -0.00, -1.00, 216.2, 45.0)"> </text><text xml:space="preserve" font-family="Monaco" font-size="17.0" fill="#FEFFFE" transform="matrix(1.00, 0.00, -0.00, -1.00, 226.4, 45.0)">i</text><text xml:space="preserve" font-family="Monaco" font-size="17.0" fill="#FEFFFE" transform="matrix(1.00, 0.00, -0.00, -1.00, 236.6, 45.0)">p</text><text xml:space="preserve" font-family="Monaco" font-size="17.0" fill="#FEFFFE" transform="matrix(1.00, 0.00, -0.00, -1.00, 246.8, 45.0)">t</text><text xml:space="preserve" font-family="Monaco" font-size="17.0" fill="#FEFFFE" transform="matrix(1.00, 0.00, -0.00, -1.00, 257.0, 45.0)">a</text><text xml:space="preserve" font-family="Monaco" font-size="17.0" fill="#FEFFFE" transform="matrix(1.00, 0.00, -0.00, -1.00, 267.2, 45.0)">b</text><text xml:space="preserve" font-family="Monaco" font-size="17.0" fill="#FEFFFE" transform="matrix(1.00, 0.00, -0.00, -1.00, 277.4, 45.0)">l</text><text xml:space="preserve" font-family="Monaco" font-size="17.0" fill="#FEFFFE" transform="matrix(1.00, 0.00, -0.00, -1.00, 287.6, 45.0)">e</text><text xml:space="preserve" font-family="Monaco" font-size="17.0" fill="#FEFFFE" transform="matrix(1.00, 0.00, -0.00, -1.00, 297.9, 45.0)">s</text><text xml:space="preserve" font-family="Monaco" font-size="17.0" fill="#FEFFFE" transform="matrix(1.00, 0.00, -0.00, -1.00, 308.1, 45.0)"> </text><text xml:space="preserve" font-family="Monaco" font-size="17.0" fill="#FEFFFE" transform="matrix(1.00, 0.00, -0.00, -1.00, 318.3, 45.0)">-</text><text xml:space="preserve" font-family="Monaco" font-size="17.0" fill="#FEFFFE" transform="matrix(1.00, 0.00, -0.00, -1.00, 328.5, 45.0)">S</text></g></g></g></svg>