<?xml version="1.0" encoding="UTF-8" standalone="no"?><svg xmlns="http://www.w3.org/2000/svg" xmlns:xlink="http://www.w3.org/1999/xlink" clip-rule="evenodd" stroke-miterlimit="4.00" viewBox="0 0 319 121"><desc>SVG generated by Keynote</desc><defs></defs><g transform="matrix(1.00, 0.00, -0.00, -1.00, 0.0, 121.0)"><image xlink:href="../../CEFA4209-80C9-472B-8D2B-058B96531B72/assets/C96CBBF2F715F6E2E3B6F8A701A0292F.png" width="316.00" height="118.00" transform="matrix(1.00, 0.00, -0.00, -1.00, 1.7, 119.4)" opacity="0.50"></image><g><clipPath id="clip-885"><path d="M 265.2 95.7 C 323.4 76.2 323.4 44.6 265.2 25.0 C 207.0 5.5 112.6 5.5 54.3 25.0 C -3.9 44.6 -3.9 76.2 54.3 95.7 C 112.6 115.3 207.0 115.3 265.2 95.7 Z M 265.2 95.7 "></path></clipPath><g clip-path="url(#clip-885)"><image xlink:href="../../CEFA4209-80C9-472B-8D2B-058B96531B72/assets/59DBD66EA15A3D40E065F836EF2595FD.jpeg" width="400.00" height="400.00" transform="matrix(1.00, 0.00, -0.00, -1.00, 10.7, 110.4)"></image></g></g><path d="M 81.6 13.8 C 81.1 14.0 80.6 14.1 79.8 14.3 C 80.2 14.3 80.5 14.3 80.5 14.4 C 81.1 14.2 82.0 14.0 83.4 13.7 C 83.3 13.7 82.6 13.8 82.2 13.9 C 81.6 14.0 81.7 13.9 81.6 13.8 C 81.6 13.8 81.6 13.8 81.6 13.8 Z M 73.1 104.5 C 71.9 104.2 73.1 104.7 73.6 104.9 C 73.6 104.8 73.7 104.8 74.1 104.9 C 74.2 105.1 73.2 104.9 72.4 104.8 C 69.3 104.0 71.7 104.1 73.1 104.5 C 73.1 104.5 73.1 104.5 73.1 104.5 Z M 241.2 105.5 C 243.8 105.0 241.0 105.3 240.6 105.3 C 241.8 105.0 240.7 104.8 242.2 104.5 C 242.5 104.5 243.1 104.5 243.4 104.5 C 242.8 104.7 241.8 104.9 241.7 105.0 C 242.6 104.8 243.8 104.5 244.0 104.6 C 242.1 105.1 243.7 104.9 244.1 104.9 C 242.4 105.3 241.9 105.6 241.2 105.5 C 241.2 105.5 241.2 105.5 241.2 105.5 Z M 281.7 28.6 C 282.6 29.1 283.4 29.5 283.1 29.5 C 282.1 29.0 281.5 28.7 280.9 28.4 C 280.7 28.4 281.0 28.7 280.1 28.3 C 279.2 27.6 279.8 27.6 280.4 27.7 C 280.3 27.9 283.7 29.4 281.7 28.6 C 281.7 28.6 281.7 28.6 281.7 28.6 Z M 212.3 11.3 C 209.9 10.9 212.1 11.6 209.8 11.2 C 209.9 11.0 209.5 10.7 211.1 10.9 C 211.2 11.0 212.1 11.2 212.3 11.3 C 212.3 11.3 212.3 11.3 212.3 11.3 Z M 170.5 111.6 C 170.5 111.7 172.3 111.6 171.8 111.9 C 171.0 111.9 170.1 111.9 169.2 111.9 C 169.0 111.7 169.4 111.6 170.5 111.6 C 170.5 111.6 170.5 111.6 170.5 111.6 Z M 257.2 99.1 C 259.7 98.7 262.1 97.5 261.4 98.0 C 262.4 97.9 260.0 99.2 260.0 98.9 C 259.7 98.7 255.3 99.7 257.2 99.1 C 257.2 99.1 257.2 99.1 257.2 99.1 Z M 87.1 103.2 C 89.9 103.9 89.5 103.1 91.2 103.8 C 90.6 103.7 90.3 103.7 90.1 103.7 C 90.5 103.8 91.2 104.0 91.2 104.0 C 89.9 103.8 88.2 103.6 87.1 103.2 C 87.1 103.2 87.1 103.2 87.1 103.2 Z M 123.6 8.6 C 124.1 8.5 124.3 8.4 124.2 8.3 C 126.2 8.2 126.2 8.0 127.4 8.1 C 127.5 8.4 125.8 8.4 124.2 8.5 C 124.2 8.6 123.7 8.6 123.6 8.6 C 123.6 8.6 123.6 8.6 123.6 8.6 Z M 181.0 8.5 C 181.0 8.3 179.8 8.2 181.7 8.2 C 183.8 8.6 181.9 8.7 179.7 8.7 C 179.7 8.8 179.7 8.9 179.7 9.0 C 180.6 9.1 181.1 9.1 181.6 9.2 C 182.0 8.9 183.5 9.6 186.8 9.6 C 185.2 9.6 186.9 10.0 184.8 9.8 C 185.4 10.0 183.9 9.9 184.2 10.1 C 185.1 10.1 187.3 10.2 186.8 9.9 C 187.9 10.0 188.8 10.0 189.4 10.1 C 190.2 10.5 187.3 10.1 188.1 10.4 C 188.7 10.4 188.8 10.5 189.3 10.5 C 189.5 10.5 189.2 10.3 190.0 10.3 C 192.0 10.6 189.6 10.6 192.5 10.8 C 192.7 10.7 191.9 10.6 191.9 10.5 C 193.3 10.4 193.2 10.6 194.5 10.6 C 194.7 10.8 193.5 10.7 194.5 10.8 C 195.3 10.5 197.1 11.3 199.0 11.1 C 197.8 10.5 199.3 11.3 200.9 10.9 C 201.3 11.1 200.1 11.3 201.5 11.5 C 201.1 10.8 206.7 11.5 202.2 10.6 C 204.6 10.8 205.5 10.4 203.6 10.1 C 207.7 10.7 206.4 10.2 208.0 10.4 C 209.6 10.6 207.1 10.4 208.0 10.7 C 206.3 10.5 206.7 10.7 205.5 10.4 C 205.4 10.5 205.1 10.6 204.8 10.6 C 206.5 10.6 208.5 11.2 207.2 11.3 C 206.4 11.2 207.2 11.0 206.0 10.9 C 206.4 11.3 204.8 10.7 204.7 10.9 C 205.5 11.3 203.0 11.3 205.3 11.6 C 205.3 11.5 205.4 11.3 205.4 11.2 C 206.0 11.3 206.6 11.4 207.2 11.4 C 207.7 11.7 207.3 11.8 207.8 12.0 C 208.9 12.1 209.4 12.1 209.7 12.0 C 208.5 11.8 207.0 11.4 209.1 11.6 C 208.3 12.0 212.1 12.1 210.3 12.2 C 212.6 12.6 213.8 12.4 214.0 12.7 C 215.2 12.9 214.5 12.5 215.9 12.7 C 218.2 13.3 217.8 12.9 220.8 13.5 C 221.2 13.2 221.1 13.6 222.0 13.8 C 222.1 13.7 222.1 13.5 222.1 13.4 C 223.1 13.8 225.5 14.3 228.1 14.4 C 228.7 14.6 228.2 14.8 229.8 15.0 C 231.6 15.0 233.6 15.7 235.7 15.8 C 235.9 16.0 237.3 16.3 238.0 16.3 C 238.4 16.5 237.3 16.6 238.6 16.8 C 239.5 16.8 238.0 16.4 239.8 16.7 C 239.6 16.9 241.5 16.8 241.5 17.1 C 240.9 17.1 240.3 17.0 239.7 17.0 C 240.5 17.2 240.2 17.3 240.8 17.4 C 240.8 17.1 242.1 17.6 242.6 17.8 C 242.5 17.6 242.7 17.6 243.2 17.6 C 244.2 17.8 244.9 18.0 245.5 18.0 C 246.7 18.4 244.7 18.1 245.9 18.4 C 246.7 17.9 247.8 18.9 250.4 19.2 C 251.0 19.5 252.0 19.9 253.6 20.4 C 253.9 20.2 252.1 19.8 252.1 19.7 C 254.4 20.4 251.7 19.4 253.2 19.8 C 256.6 20.9 258.7 21.5 262.1 22.7 C 262.1 22.5 264.8 23.2 264.7 23.3 C 264.3 23.2 264.7 23.4 265.2 23.7 C 265.8 23.9 267.3 24.5 268.2 24.9 C 268.9 24.7 271.9 25.4 272.1 25.3 C 272.7 25.7 272.5 25.6 272.7 26.1 C 275.7 27.4 277.4 27.7 279.0 28.8 C 278.9 28.6 280.2 29.1 281.3 29.6 C 281.0 29.6 280.3 29.4 279.6 29.3 C 281.1 29.9 281.3 30.1 282.5 30.7 C 284.0 30.7 285.7 32.5 286.9 32.4 C 288.7 33.4 288.3 33.4 289.9 34.4 C 289.9 34.2 290.1 34.2 290.6 34.4 C 289.5 33.9 288.7 33.6 288.2 33.0 C 290.7 34.3 283.7 29.8 288.0 31.8 C 288.1 32.0 287.6 31.9 288.5 32.4 C 290.8 33.6 289.6 32.7 288.6 32.2 C 290.3 32.9 291.8 33.9 290.7 33.0 C 294.2 34.9 291.9 33.8 293.0 34.6 C 298.9 38.1 305.0 43.0 308.2 49.0 C 308.6 49.0 310.0 52.3 310.2 53.4 C 311.0 55.0 311.5 56.9 311.2 57.5 C 311.6 57.7 311.2 59.6 311.5 59.8 C 311.5 59.0 311.5 58.5 311.6 59.3 C 311.7 61.8 310.8 65.5 310.5 67.0 C 309.9 67.8 309.4 69.4 308.9 70.5 C 308.7 70.6 309.1 69.8 308.7 70.4 C 308.7 70.7 307.6 73.0 307.0 73.5 C 307.5 72.8 307.7 71.9 307.1 72.9 C 307.2 73.0 306.3 74.1 306.7 73.9 C 305.6 75.2 305.0 76.1 303.9 77.2 C 304.7 76.2 305.1 75.6 305.1 75.3 C 304.5 76.2 304.1 76.9 303.3 77.3 C 303.7 77.4 302.4 78.5 301.1 79.9 C 300.6 80.2 300.2 80.3 299.0 81.3 C 298.6 82.0 301.1 80.0 299.8 81.2 C 299.7 81.1 298.3 82.0 298.8 82.0 C 297.0 83.2 296.2 84.0 294.5 84.9 C 296.5 83.6 294.8 84.3 294.3 84.6 C 293.9 84.9 293.2 85.3 293.3 85.4 C 293.3 85.5 294.3 84.8 294.5 84.8 C 293.1 85.6 292.9 86.2 292.2 86.3 C 292.9 85.9 292.9 85.8 292.1 86.2 C 292.2 86.6 287.6 89.0 289.0 87.9 C 289.1 88.0 290.8 87.0 290.9 86.8 C 290.4 87.0 287.9 88.6 288.3 88.1 C 289.8 87.2 289.8 87.4 291.4 86.4 C 291.5 86.1 292.5 85.5 293.0 85.0 C 290.5 86.6 289.9 87.2 289.4 87.2 C 288.2 87.9 289.1 87.7 287.0 88.8 C 283.9 90.3 286.3 88.8 285.5 89.1 C 282.8 90.7 283.8 90.5 285.1 90.1 C 282.8 91.2 282.2 91.7 279.3 92.9 C 279.4 92.7 279.7 92.5 280.7 92.0 C 280.8 92.0 283.2 91.1 282.9 91.0 C 282.6 90.8 280.7 91.6 277.5 92.9 C 278.4 92.9 278.4 92.6 275.2 94.0 C 275.8 94.1 273.5 94.6 273.6 94.8 C 273.7 94.8 274.9 94.3 276.0 93.9 C 276.0 94.1 275.7 94.3 274.6 94.8 C 273.8 95.0 273.3 95.4 271.2 96.0 C 271.0 95.9 272.4 95.3 272.7 95.0 C 271.6 95.5 271.4 95.7 270.2 96.1 C 269.1 96.3 269.1 96.0 269.1 95.6 C 270.4 95.1 272.4 94.3 270.7 94.8 C 275.7 92.9 270.6 95.2 272.5 94.5 C 274.4 93.4 273.5 94.3 276.6 93.0 C 277.5 92.6 277.7 92.4 278.1 92.2 C 277.8 92.2 276.0 92.7 277.9 91.9 C 278.5 91.8 279.5 91.5 281.1 90.8 C 281.0 90.7 277.9 92.0 281.0 90.6 C 282.5 89.9 281.3 90.9 283.3 89.9 C 283.2 89.8 283.8 89.5 283.9 89.4 C 281.0 90.8 284.3 89.0 282.4 89.8 C 284.8 88.5 282.9 89.8 284.5 89.0 C 284.5 88.8 287.2 87.8 287.1 87.5 C 286.2 88.1 284.2 89.1 284.3 88.7 C 286.2 87.9 293.5 83.3 290.8 85.4 C 291.8 84.6 296.3 81.1 296.1 81.5 C 294.7 82.5 294.9 82.6 294.8 82.8 C 297.2 80.8 298.6 80.0 300.6 77.7 C 298.1 79.9 299.7 77.9 298.0 79.1 C 297.3 79.7 296.3 80.4 296.2 80.6 C 296.6 80.6 297.7 79.6 298.1 79.1 C 298.2 79.3 298.3 79.5 298.5 79.6 C 295.4 81.9 293.5 83.3 291.8 84.4 C 293.2 83.4 288.7 85.8 290.4 84.7 C 291.3 84.4 293.0 83.3 294.4 82.4 C 294.4 82.3 294.4 82.3 294.3 82.2 C 294.9 81.8 295.7 81.2 295.7 81.1 C 294.0 82.4 292.8 82.9 291.5 84.0 C 291.5 83.9 291.4 83.9 291.4 83.8 C 291.1 84.0 290.8 84.2 290.8 84.1 C 291.5 83.7 292.4 83.1 292.5 83.0 C 291.0 83.8 290.6 83.8 288.8 84.8 C 289.1 84.3 286.7 85.4 289.1 83.8 C 289.7 83.8 291.0 83.1 291.0 83.2 C 291.8 82.8 293.1 81.9 293.7 81.3 C 293.0 81.7 291.6 82.5 291.3 82.4 C 292.4 81.6 293.2 80.9 294.0 80.7 C 291.9 82.3 295.2 80.0 296.2 79.6 C 295.9 79.7 295.4 80.0 295.0 80.1 C 296.6 78.9 297.4 78.5 297.3 78.2 C 298.9 76.6 298.7 77.1 299.8 76.1 C 298.8 76.5 300.4 75.3 299.4 75.8 C 301.2 74.0 300.2 75.5 300.8 74.9 C 301.3 74.3 301.3 74.2 301.7 73.7 C 302.5 73.0 303.7 71.4 304.1 71.4 C 304.6 70.7 304.7 70.6 305.1 69.9 C 305.2 69.7 305.2 69.4 305.3 69.1 C 305.5 69.0 305.9 68.6 305.8 68.4 C 304.5 70.1 304.8 69.6 303.2 71.4 C 303.2 71.6 303.0 71.9 303.4 71.5 C 302.5 72.9 302.0 73.2 300.9 74.4 C 300.7 74.4 300.2 74.4 299.3 75.6 C 299.4 75.2 299.0 75.4 299.4 74.9 C 300.1 74.5 300.9 73.8 301.6 73.0 C 301.6 72.9 301.4 72.9 301.7 72.5 C 302.1 72.2 302.7 71.6 302.9 71.1 C 303.0 71.2 302.9 71.4 302.8 71.6 C 304.2 69.9 303.5 70.3 304.5 69.0 C 304.2 69.2 303.7 70.0 304.0 69.2 C 304.6 68.0 304.9 67.8 305.2 67.2 C 305.2 67.1 305.1 67.1 305.3 66.8 C 305.8 66.0 304.8 68.9 305.8 67.5 C 305.6 67.3 306.3 65.8 306.6 65.6 C 306.6 66.2 305.9 67.0 306.1 67.1 C 307.3 64.3 306.7 67.2 307.5 64.3 C 307.4 64.3 307.3 64.3 307.2 64.2 C 307.0 65.4 306.7 65.4 306.5 65.2 C 306.2 66.2 305.7 66.5 305.5 67.3 C 305.2 66.8 305.9 66.5 306.2 65.5 C 306.0 65.5 305.7 66.4 305.4 66.4 C 306.5 64.3 306.3 63.7 306.8 61.6 C 306.5 62.1 306.8 60.4 306.6 60.6 C 306.7 62.4 306.0 61.6 305.8 61.9 C 305.8 63.0 306.3 62.6 306.3 63.3 C 306.0 63.6 305.9 63.4 305.6 63.2 C 305.9 62.2 305.8 62.3 305.7 61.5 C 306.0 60.9 306.4 60.3 306.5 61.2 C 306.5 61.0 306.4 59.7 306.5 59.6 C 306.6 60.9 306.7 59.4 306.8 60.2 C 307.0 59.2 306.4 57.4 306.2 56.0 C 306.1 56.2 306.0 55.7 305.8 55.8 C 306.5 57.0 306.0 57.4 306.1 58.6 C 306.0 58.0 305.9 58.4 305.9 58.6 C 305.9 57.4 305.5 56.8 305.4 55.9 C 305.4 55.9 305.3 55.9 305.2 56.0 C 305.0 54.5 304.9 54.7 304.2 53.7 C 304.1 53.2 304.8 53.6 305.1 53.6 C 304.7 53.1 303.7 51.1 304.1 52.4 C 303.4 51.2 303.9 51.4 303.1 50.1 C 302.8 50.3 303.6 51.4 303.1 51.1 C 302.3 50.1 303.0 50.5 302.1 49.7 C 302.3 49.5 302.5 49.4 301.6 48.4 C 302.1 49.2 301.5 48.4 301.1 48.2 C 301.5 48.7 301.7 49.1 301.9 49.4 C 300.6 47.6 300.2 47.2 298.7 45.9 C 299.4 46.2 298.7 45.3 299.7 46.2 C 298.7 45.4 297.7 44.1 297.1 43.7 C 297.6 44.3 298.6 45.3 298.9 45.7 C 295.9 42.9 293.7 41.7 290.2 39.0 C 290.9 39.4 291.7 40.0 291.9 40.0 C 291.5 39.7 290.8 39.3 290.8 39.2 C 292.1 40.1 293.3 40.9 293.9 41.3 C 294.9 42.1 293.2 41.0 294.3 41.8 C 294.5 41.8 296.3 43.4 295.8 42.6 C 294.0 41.5 292.3 40.0 291.6 39.1 C 289.5 38.3 291.4 39.4 289.0 38.5 C 289.1 38.4 288.7 38.0 288.0 37.6 C 288.5 38.3 285.8 36.6 285.5 36.4 C 286.7 36.8 290.6 39.0 288.8 37.5 C 289.4 38.6 284.2 34.8 285.0 35.8 C 282.3 34.4 283.4 34.6 281.7 34.1 C 281.7 34.0 282.0 33.9 281.2 33.5 C 280.3 33.2 280.0 33.1 279.7 33.0 C 283.8 35.1 282.4 34.8 284.9 36.1 C 284.4 35.9 284.0 35.7 284.1 35.8 C 284.1 35.9 284.0 35.9 283.5 35.6 C 283.4 35.2 281.4 34.6 280.9 34.1 C 281.7 34.5 282.5 34.9 282.3 34.6 C 278.9 33.0 279.8 33.0 274.6 30.7 C 276.1 31.5 274.0 30.7 272.1 30.0 C 269.5 28.9 270.7 28.9 267.2 27.7 C 267.3 28.1 266.4 27.8 264.9 27.2 C 263.5 26.7 262.8 26.4 261.5 26.2 C 261.9 25.9 258.7 24.9 258.0 24.9 C 257.9 24.8 256.8 24.5 256.0 24.2 C 255.8 24.0 256.8 24.3 256.0 24.0 C 255.3 23.9 255.9 24.3 254.9 24.0 C 253.8 23.6 254.1 23.4 252.4 23.0 C 252.3 23.2 253.2 23.4 252.3 23.3 C 250.8 22.8 249.4 22.5 250.6 23.0 C 248.4 22.5 249.6 22.3 247.5 21.8 C 248.1 22.1 248.0 22.2 246.9 21.9 C 246.1 21.5 246.1 21.4 245.8 21.3 C 245.1 21.3 245.4 21.4 243.6 20.9 C 243.6 21.0 243.5 21.1 243.5 21.2 C 242.7 21.0 241.5 20.8 241.3 20.6 C 242.8 21.0 242.4 20.7 243.0 20.8 C 241.5 20.4 238.6 19.5 240.8 20.3 C 238.6 19.9 239.8 19.8 238.0 19.5 C 239.0 20.0 238.1 19.6 236.3 19.2 C 236.4 19.6 235.1 19.0 234.0 18.9 C 234.1 19.1 233.8 19.1 232.8 19.0 C 232.8 18.8 232.2 18.7 231.0 18.5 C 231.0 18.6 233.4 19.2 231.0 18.7 C 229.9 18.4 229.9 18.1 228.1 17.8 C 227.7 17.5 229.8 17.9 229.4 17.6 C 227.8 17.6 227.4 17.3 225.2 16.9 C 226.0 17.5 220.7 16.8 223.3 17.4 C 222.5 17.3 221.4 17.4 220.9 17.1 C 221.7 17.2 220.3 16.7 220.3 16.7 C 219.3 16.6 216.8 16.1 216.7 16.2 C 219.0 16.5 219.0 16.7 219.7 17.0 C 216.3 16.6 213.3 16.1 213.6 15.9 C 213.6 16.0 213.1 15.9 213.0 16.0 C 214.2 16.1 214.9 16.6 213.5 16.5 C 213.9 16.2 212.9 16.0 211.8 15.8 C 211.7 16.1 207.2 15.2 208.0 15.6 C 209.9 15.6 211.3 16.2 209.9 16.2 C 208.7 15.8 206.3 15.4 206.8 15.3 C 206.2 15.3 205.6 15.3 204.9 15.3 C 204.4 15.4 205.8 15.6 205.5 15.7 C 204.6 15.6 203.2 15.5 203.0 15.4 C 205.5 15.6 201.8 15.1 204.3 15.2 C 202.7 15.1 202.4 14.9 201.2 14.7 C 201.2 14.8 200.7 14.8 200.5 14.8 C 201.7 14.8 202.7 15.0 202.4 15.3 C 200.2 15.1 200.5 14.8 198.6 14.7 C 198.1 14.8 195.5 14.9 194.2 14.6 C 196.7 14.8 194.0 14.5 195.5 14.5 C 197.8 14.8 198.4 14.6 199.3 14.5 C 198.3 14.3 196.4 14.0 196.1 14.3 C 197.4 14.4 197.4 14.3 198.1 14.3 C 198.0 14.4 197.6 14.5 196.7 14.5 C 195.7 14.2 193.3 14.2 194.9 14.0 C 193.3 14.0 191.5 13.6 189.8 13.7 C 191.7 13.9 193.0 14.1 193.6 14.3 C 192.0 14.3 190.5 13.9 190.4 14.1 C 190.6 14.3 193.1 14.4 193.6 14.6 C 191.6 14.7 188.6 13.8 191.0 14.5 C 189.9 14.4 188.3 14.3 187.9 14.1 C 189.2 14.2 187.7 13.8 187.2 13.7 C 186.0 13.6 185.1 13.6 184.6 13.7 C 186.4 13.7 187.8 14.1 186.5 14.1 C 186.2 13.9 185.9 14.1 185.3 14.1 C 185.2 13.9 183.1 13.9 182.7 13.8 C 182.9 13.9 183.8 14.0 184.0 14.1 C 182.8 14.1 181.0 14.3 180.2 14.0 C 180.9 14.0 182.0 14.1 182.0 14.0 C 178.7 13.4 177.7 13.1 173.7 12.8 C 174.2 12.8 174.5 12.8 174.3 12.7 C 171.8 12.6 170.2 12.4 170.5 12.3 C 168.9 12.3 168.1 12.4 167.3 12.5 C 168.9 12.7 169.5 12.5 170.5 12.7 C 169.9 12.7 171.7 13.2 172.4 13.3 C 175.2 13.2 175.4 13.6 178.2 13.5 C 177.4 13.8 180.3 13.7 179.5 13.9 C 176.8 13.4 174.3 13.6 170.5 13.4 C 171.0 13.2 171.4 13.0 169.9 12.9 C 167.4 12.7 168.6 13.1 166.6 13.0 C 165.7 12.8 167.0 12.7 165.9 12.6 C 165.2 12.7 163.3 12.7 162.7 12.5 C 165.4 12.5 162.2 12.2 164.0 12.1 C 163.1 12.1 162.6 12.1 162.0 12.1 C 164.6 12.4 159.4 12.4 161.4 12.6 C 157.8 12.7 161.1 12.0 158.2 12.0 C 159.6 12.2 157.7 12.3 155.6 12.3 C 155.0 12.1 152.8 12.0 151.0 12.0 C 151.9 12.1 152.6 12.1 151.0 12.3 C 151.9 12.4 153.4 12.4 154.2 12.2 C 154.2 12.3 154.5 12.4 154.9 12.5 C 152.8 12.5 153.7 12.7 153.0 12.7 C 152.3 12.6 150.8 12.7 150.4 12.5 C 150.4 12.6 149.8 12.7 149.7 12.7 C 152.5 12.7 149.3 13.1 151.0 13.1 C 152.2 13.1 151.5 12.8 153.0 12.8 C 154.4 13.1 151.8 13.2 151.0 13.4 C 152.3 13.6 153.8 13.2 154.2 13.5 C 152.6 13.8 150.0 13.7 147.8 13.6 C 147.9 14.0 144.2 13.7 143.9 14.1 C 143.6 14.0 143.2 13.9 142.7 13.9 C 142.0 14.2 141.3 13.9 140.7 13.9 C 140.6 14.0 140.8 14.1 141.3 14.2 C 138.7 14.2 138.1 14.2 135.0 14.5 C 134.5 14.4 133.9 14.3 133.6 14.1 C 134.4 14.0 135.1 13.9 135.6 13.8 C 131.3 14.0 134.1 14.5 131.1 14.3 C 131.2 14.5 133.3 14.6 131.7 14.8 C 129.0 14.6 125.3 15.2 125.4 14.5 C 123.0 14.5 121.4 15.1 120.3 14.9 C 119.6 15.0 119.3 15.1 119.0 15.2 C 119.8 15.2 120.7 15.3 121.6 15.3 C 123.0 15.1 123.6 15.3 122.2 15.0 C 124.3 14.8 124.9 14.9 126.0 15.0 C 123.1 15.4 120.5 15.4 120.4 15.8 C 119.4 15.7 118.6 15.6 117.8 15.5 C 117.5 15.7 114.3 16.1 114.1 15.9 C 116.2 15.7 118.5 15.2 116.5 15.2 C 111.2 16.0 108.2 15.9 103.6 16.8 C 103.4 16.7 103.8 16.5 102.9 16.6 C 103.0 16.7 102.8 16.8 102.3 17.0 C 100.9 17.1 100.1 17.2 98.1 17.5 C 98.2 17.2 97.9 17.1 96.8 17.2 C 96.3 17.5 94.5 18.3 93.3 18.4 C 94.5 18.2 92.9 18.2 92.1 18.3 C 92.9 18.5 86.8 19.0 88.6 19.0 C 86.2 19.5 85.2 19.5 85.1 19.4 C 84.3 19.6 83.7 19.8 82.8 20.1 C 82.3 19.8 78.3 20.9 77.7 20.9 C 79.1 20.7 79.3 20.3 78.2 20.5 C 77.5 20.9 74.0 21.9 73.3 22.0 C 73.5 21.9 73.7 21.6 75.4 21.1 C 72.5 21.7 72.6 22.1 71.7 22.6 C 71.7 22.2 70.5 22.8 70.1 23.0 C 69.1 23.1 70.1 22.9 70.0 22.7 C 69.0 22.9 68.6 22.9 67.3 23.2 C 67.7 23.4 66.2 23.6 65.7 23.7 C 65.5 24.0 64.8 24.3 63.7 24.6 C 65.1 23.8 57.1 26.2 59.0 25.8 C 57.5 26.6 57.4 26.1 55.5 26.7 C 55.1 27.0 54.0 27.3 55.0 27.1 C 54.3 27.4 53.4 27.7 53.0 27.7 C 52.7 27.8 52.2 27.9 50.6 28.5 C 52.1 28.3 47.5 29.6 48.3 29.7 C 46.8 29.8 44.6 31.3 42.1 32.0 C 42.1 32.1 41.5 32.4 41.3 32.5 C 41.0 32.8 44.3 31.4 42.2 32.4 C 39.6 33.3 41.0 32.7 40.6 32.7 C 34.1 35.8 27.5 39.5 23.2 42.9 C 23.8 42.6 23.8 42.7 22.9 43.4 C 21.4 44.1 17.6 48.3 17.3 49.1 C 16.7 49.3 15.6 51.5 15.2 51.8 C 15.5 51.4 15.8 50.5 15.2 51.3 C 15.1 52.1 14.6 52.7 14.4 53.6 C 13.9 53.9 13.3 56.5 13.2 55.2 C 13.0 55.7 12.9 56.0 12.8 56.3 C 13.1 56.4 12.9 56.9 13.3 56.0 C 12.4 58.3 12.7 58.8 12.5 60.6 C 12.6 60.9 12.7 59.5 12.8 60.6 C 12.8 60.6 12.7 60.6 12.6 60.6 C 12.6 60.9 12.8 61.1 12.7 61.3 C 12.5 61.2 12.5 60.6 12.2 60.6 C 12.4 61.4 12.1 62.1 12.4 62.4 C 12.3 61.1 12.8 61.9 12.7 62.7 C 12.4 62.0 13.3 65.5 13.9 66.5 C 13.9 67.2 13.4 65.3 13.3 65.5 C 14.0 67.6 14.0 67.5 14.4 67.6 C 14.9 68.7 14.9 69.2 16.0 70.5 C 16.4 71.3 15.5 70.1 16.0 71.0 C 16.4 71.4 16.7 71.5 17.3 72.3 C 18.4 74.5 24.0 78.4 26.6 81.2 C 25.5 80.2 27.2 81.2 28.9 82.4 C 29.0 82.5 28.7 82.5 29.3 82.9 C 29.3 82.7 30.0 83.0 31.2 83.7 C 31.3 83.9 31.0 83.9 31.7 84.3 C 32.3 84.3 33.8 85.5 34.9 85.9 C 35.2 86.3 32.5 84.7 32.2 84.8 C 35.3 86.7 36.1 86.8 38.8 88.1 C 37.3 87.5 39.7 88.9 40.1 89.1 C 39.6 88.6 41.9 89.5 40.3 88.6 C 41.4 89.1 43.1 89.8 43.2 90.0 C 42.7 89.7 41.7 89.3 41.7 89.4 C 43.1 89.9 44.8 91.0 45.6 91.0 C 44.6 90.6 44.0 90.3 44.1 90.1 C 44.5 90.2 44.9 90.3 45.7 90.6 C 43.3 90.2 50.0 92.6 50.5 92.6 C 51.0 93.2 51.4 93.3 51.1 93.4 C 54.1 94.5 54.3 94.2 55.3 94.5 C 54.9 94.7 54.5 94.8 56.1 95.4 C 55.8 95.0 57.8 95.7 57.3 95.1 C 61.5 96.4 62.3 97.0 65.0 97.7 C 65.0 97.6 64.2 97.4 65.0 97.5 C 66.2 98.0 67.3 98.3 68.1 98.7 C 68.8 98.7 67.9 98.4 68.7 98.5 C 70.6 99.3 70.1 99.4 71.8 100.1 C 74.0 100.4 73.2 100.4 74.6 100.4 C 74.0 100.3 73.3 100.0 74.1 100.1 C 75.4 100.7 75.9 101.1 76.2 101.2 C 75.2 101.0 74.5 100.8 74.0 100.6 C 73.6 100.7 72.3 100.3 73.4 100.8 C 72.0 100.4 70.5 100.0 68.4 99.5 C 69.1 99.9 66.7 99.1 67.3 99.5 C 69.5 100.0 70.0 100.3 72.2 100.8 C 71.8 100.4 74.0 101.1 74.4 101.3 C 74.5 101.1 76.0 101.5 75.6 101.2 C 77.3 101.6 77.2 101.7 79.0 102.0 C 79.1 102.2 78.8 102.2 79.5 102.4 C 80.1 102.3 80.6 102.7 81.2 102.8 C 80.8 102.5 83.3 103.2 83.5 103.0 C 82.9 102.9 81.9 102.7 81.8 102.6 C 84.6 103.2 82.4 102.5 81.9 102.2 C 82.0 102.3 80.9 102.4 80.7 102.2 C 83.1 102.5 77.6 101.1 79.6 101.6 C 81.4 102.1 81.3 101.8 83.1 102.3 C 85.2 103.1 82.6 102.9 84.7 103.6 C 86.0 103.7 86.9 103.9 87.1 103.7 C 87.3 103.8 87.7 104.0 88.2 104.1 C 88.8 104.1 86.5 103.6 88.2 103.8 C 89.1 104.0 88.0 104.2 89.9 104.5 C 90.8 104.4 87.7 103.8 89.4 104.0 C 91.2 104.7 89.0 103.9 91.2 104.2 C 91.3 104.3 91.7 104.4 92.4 104.5 C 92.5 104.6 92.2 104.7 92.9 104.9 C 93.4 104.5 93.7 105.2 95.3 105.4 C 96.2 105.2 93.7 104.9 94.2 104.8 C 95.9 105.4 97.0 105.2 97.7 105.3 C 96.2 105.3 100.0 105.9 100.1 106.1 C 99.7 105.8 100.5 106.0 102.7 106.1 C 102.7 106.5 105.2 106.5 105.7 107.0 C 106.0 106.9 106.6 106.9 106.9 106.8 C 106.2 106.7 105.5 106.6 105.7 106.5 C 106.3 106.6 106.9 106.6 107.6 106.7 C 108.6 107.0 105.8 107.2 110.0 107.6 C 109.5 107.3 111.3 107.4 112.5 107.5 C 112.4 107.2 110.8 107.3 110.7 107.1 C 112.1 107.1 113.5 107.4 114.4 107.7 C 116.8 107.8 119.7 108.2 123.2 108.4 C 124.0 108.7 120.2 108.4 122.6 108.7 C 123.6 108.8 123.1 108.5 124.5 108.7 C 123.1 109.6 134.1 109.6 134.7 110.0 C 135.2 109.9 138.3 110.1 138.0 109.8 C 135.9 109.9 134.5 109.5 133.5 109.3 C 131.5 109.3 135.2 109.7 133.4 109.6 C 133.3 109.5 130.6 109.4 130.9 109.2 C 133.6 109.4 129.5 108.9 131.5 108.8 C 134.1 109.0 139.2 109.0 138.0 109.3 C 138.0 109.2 136.9 109.1 136.7 109.2 C 139.6 109.5 141.3 109.3 142.6 109.2 C 143.9 109.5 149.1 109.3 147.7 109.4 C 148.2 109.6 144.6 109.2 145.1 109.5 C 150.5 109.7 150.6 109.5 154.2 109.7 C 153.1 109.4 157.9 109.4 157.5 109.5 C 157.5 109.7 158.6 109.9 160.7 109.6 C 160.4 109.9 161.6 110.0 162.7 110.0 C 163.2 109.8 161.8 109.8 162.0 109.6 C 163.1 109.6 164.2 109.6 165.3 109.6 C 165.4 109.7 165.2 109.8 166.0 109.8 C 167.2 109.7 171.5 109.3 171.1 109.5 C 169.3 109.8 174.1 109.7 171.2 110.0 C 172.0 109.9 172.1 110.0 173.1 110.0 C 173.1 109.9 173.1 109.8 173.1 109.7 C 175.5 109.6 174.3 110.0 176.4 110.0 C 176.5 109.8 177.4 109.8 177.7 109.7 C 176.9 109.7 176.8 109.8 175.7 109.8 C 176.9 109.4 173.6 109.7 173.7 109.4 C 176.0 109.3 176.0 109.5 177.0 109.6 C 179.8 109.3 178.5 109.5 181.5 109.4 C 181.5 109.3 180.7 109.3 180.9 109.2 C 184.5 109.1 184.2 109.6 186.7 109.3 C 186.1 109.3 183.9 109.7 185.4 109.6 C 187.1 109.4 187.6 109.1 189.9 108.9 C 190.0 109.0 189.8 109.1 190.6 109.1 C 191.5 108.9 191.6 108.7 192.4 108.6 C 192.6 108.7 193.9 108.5 194.3 108.4 C 195.2 108.6 194.1 108.7 195.1 108.7 C 196.9 108.5 197.9 107.9 199.4 107.8 C 199.4 108.2 201.1 107.9 202.6 107.7 C 202.9 108.0 206.1 107.6 208.3 107.4 C 207.8 107.2 210.0 107.0 209.4 106.9 C 208.4 107.0 207.9 107.0 207.6 106.9 C 210.0 106.6 210.8 107.0 212.6 106.4 C 213.5 106.4 214.7 106.4 216.3 106.3 C 216.4 106.1 213.4 106.4 215.0 106.1 C 215.2 106.2 215.7 106.1 216.2 106.0 C 216.0 106.3 217.4 106.2 218.1 106.2 C 219.5 105.8 222.5 105.7 221.1 105.6 C 223.4 105.2 222.0 105.9 223.7 105.6 C 222.7 105.4 225.7 104.9 224.2 105.0 C 226.4 104.5 226.3 105.0 225.4 105.2 C 227.5 105.0 227.9 104.7 229.0 104.6 C 228.0 104.6 231.1 103.9 229.5 104.3 C 229.1 104.6 231.5 104.1 231.9 104.1 C 231.2 104.1 232.3 103.9 230.7 104.0 C 232.3 103.7 234.5 103.2 236.0 103.2 C 237.9 102.6 239.7 102.2 238.9 102.7 C 240.6 102.2 240.0 102.4 241.8 102.0 C 241.7 102.0 241.2 102.0 241.1 102.0 C 243.5 101.5 243.1 101.7 246.2 101.0 C 245.9 101.4 247.9 100.9 248.6 100.9 C 247.3 101.2 246.2 101.4 245.2 101.6 C 245.0 101.8 246.0 101.6 245.2 101.8 C 245.1 101.8 244.6 101.8 244.1 101.9 C 246.2 101.7 241.6 102.9 243.0 102.3 C 243.0 102.4 243.1 102.4 243.5 102.3 C 243.1 102.1 243.1 102.2 243.5 101.9 C 242.4 102.2 241.5 102.1 241.2 102.4 C 241.3 102.5 242.3 102.2 242.4 102.3 C 239.8 103.0 241.6 102.2 239.5 102.7 C 239.1 103.0 240.2 102.9 240.7 102.9 C 238.9 103.3 237.2 103.7 236.7 103.6 C 234.9 104.0 236.8 103.8 235.6 104.1 C 235.0 104.2 235.0 104.0 233.8 104.2 C 232.5 104.5 234.6 104.2 233.3 104.5 C 231.8 104.6 234.2 104.0 232.0 104.3 C 232.6 104.6 230.0 104.6 230.2 104.8 C 231.5 104.6 231.6 104.9 230.9 104.8 C 228.0 105.0 226.1 106.2 223.1 106.1 C 223.1 106.2 222.6 106.3 222.5 106.4 C 224.7 106.2 227.9 105.7 228.6 105.9 C 230.3 105.6 230.0 105.4 230.3 105.2 C 232.4 105.2 232.2 105.2 231.1 105.8 C 227.7 106.5 226.2 106.5 223.9 106.8 C 222.7 107.2 224.0 106.9 224.5 106.9 C 217.3 107.8 222.9 107.7 220.3 108.0 C 220.3 107.9 219.8 107.9 219.1 107.9 C 219.1 108.0 218.0 108.2 217.8 108.3 C 218.3 108.2 218.6 108.2 218.5 108.3 C 216.7 108.7 217.3 108.3 217.2 108.2 C 218.6 108.0 219.5 107.9 219.6 107.7 C 217.9 108.1 216.5 108.0 215.3 108.5 C 213.6 108.3 216.2 107.6 215.2 107.5 C 215.5 107.3 214.2 108.3 212.8 108.5 C 210.6 108.8 210.6 109.1 208.5 109.3 C 207.9 109.1 210.6 109.0 210.3 108.8 C 209.7 108.8 209.6 108.8 209.1 108.8 C 207.6 109.0 207.7 109.2 206.6 109.4 C 205.9 109.3 205.6 109.4 204.7 109.6 C 203.3 109.7 205.5 109.4 204.0 109.5 C 202.5 109.6 201.4 110.0 200.9 110.0 C 200.8 109.9 201.0 109.8 200.3 109.8 C 198.5 110.2 198.1 110.2 200.3 110.2 C 198.3 110.3 197.5 110.5 197.8 110.7 C 200.8 110.5 201.5 110.4 202.9 110.6 C 203.4 110.2 204.3 110.3 205.4 110.3 C 204.7 109.9 206.7 110.1 207.3 109.8 C 206.6 109.9 205.8 109.9 205.4 109.9 C 208.5 109.6 208.5 109.6 211.0 108.9 C 211.0 109.0 211.3 109.1 211.6 109.1 C 210.8 109.3 208.6 109.5 208.5 109.7 C 210.3 109.8 210.9 109.3 212.9 109.3 C 213.8 109.0 211.3 109.2 212.9 109.0 C 213.7 109.1 214.8 109.1 216.0 109.0 C 217.4 108.8 218.0 108.6 219.1 108.3 C 219.2 108.4 219.3 108.5 220.3 108.3 C 220.3 108.2 219.2 108.3 220.3 108.1 C 223.6 107.9 225.7 107.8 228.8 107.1 C 227.7 107.2 225.2 107.4 226.4 107.2 C 227.8 107.1 229.7 106.5 231.2 106.4 C 231.7 106.4 229.4 106.7 230.0 107.0 C 231.4 106.7 232.3 106.6 233.0 106.5 C 233.0 106.4 234.6 106.1 234.1 106.0 C 233.0 106.2 232.7 106.5 232.4 106.5 C 233.2 105.6 236.7 105.9 238.9 105.4 C 240.3 105.0 237.8 105.4 239.4 105.0 C 240.4 104.7 241.0 105.1 239.5 105.6 C 238.4 105.7 238.0 106.1 237.7 105.8 C 237.3 106.0 236.6 106.1 236.6 106.1 C 237.4 106.0 237.3 106.2 237.8 106.2 C 236.6 106.3 236.6 106.8 235.5 106.8 C 236.2 106.6 236.4 106.5 236.6 106.4 C 233.5 107.1 232.5 107.1 230.7 107.3 C 231.7 107.2 230.6 107.4 230.7 107.6 C 232.1 107.3 234.7 106.9 233.1 107.3 C 232.0 107.2 231.3 108.1 230.2 108.0 C 231.0 107.8 230.9 107.7 231.3 107.6 C 230.1 107.8 230.1 107.6 228.9 107.7 C 225.1 108.8 222.0 108.6 215.6 110.0 C 213.3 110.3 217.6 109.7 217.4 109.5 C 216.7 109.6 216.6 109.5 216.1 109.6 C 216.1 109.9 215.0 109.7 214.3 110.0 C 214.4 109.8 211.3 110.4 209.9 110.4 C 209.8 110.5 210.0 110.6 209.3 110.7 C 204.6 110.9 196.2 112.1 192.7 112.1 C 192.8 112.3 191.2 112.4 190.8 112.5 C 188.5 112.7 189.5 112.4 186.3 112.8 C 184.6 113.0 186.6 112.6 186.9 112.6 C 182.0 113.0 177.6 112.9 174.5 113.3 C 172.9 113.4 174.5 113.1 171.2 113.2 C 171.2 113.5 166.1 113.1 165.4 113.5 C 163.4 113.6 159.8 113.1 161.4 113.5 C 158.7 113.5 160.5 113.2 159.4 113.2 C 157.5 113.2 160.0 113.8 158.1 113.8 C 158.3 113.5 156.7 113.6 155.5 113.4 C 157.0 113.4 157.9 113.4 158.1 113.2 C 156.8 113.4 156.9 113.2 154.9 113.2 C 153.3 113.3 148.9 113.5 147.6 113.1 C 147.6 113.2 148.0 113.3 148.3 113.3 C 147.0 113.3 145.5 113.0 145.6 113.3 C 142.7 113.2 141.5 112.9 139.8 113.1 C 138.5 113.1 140.2 112.9 136.5 112.7 C 136.4 112.9 129.8 112.5 128.1 112.2 C 128.0 112.5 127.7 112.2 126.8 112.1 C 126.7 112.2 126.9 112.3 126.1 112.3 C 126.0 112.2 125.4 112.2 124.9 112.2 C 125.3 111.8 122.5 112.1 122.3 111.8 C 122.9 111.8 122.9 111.6 122.3 111.6 C 122.1 111.8 119.5 111.2 119.8 111.4 C 120.3 111.6 122.1 111.7 121.6 111.8 C 119.1 111.7 120.1 111.5 118.5 111.3 C 118.6 111.4 119.6 111.6 118.5 111.5 C 116.7 111.3 118.3 111.5 117.2 111.2 C 116.3 111.1 114.6 111.1 114.0 111.1 C 114.2 111.1 113.6 110.9 113.4 110.9 C 110.1 110.4 102.8 109.8 99.8 109.0 C 99.5 109.0 98.8 109.0 99.1 109.2 C 97.2 108.8 97.3 108.9 95.4 108.5 C 95.4 108.6 95.4 108.7 95.4 108.8 C 92.9 108.5 95.2 108.4 93.6 108.2 C 93.4 108.7 92.7 107.8 91.2 107.6 C 91.0 107.7 90.3 107.6 90.5 107.8 C 88.3 107.4 88.5 107.1 86.5 106.8 C 86.9 106.9 87.1 107.8 86.9 108.0 C 86.5 107.8 86.0 107.6 85.1 107.4 C 86.2 107.3 85.8 106.3 82.9 106.1 C 84.5 106.3 85.0 106.5 84.7 106.6 C 82.5 106.3 81.8 105.9 80.0 105.5 C 79.7 105.7 81.0 106.0 80.5 106.2 C 80.0 106.1 79.8 106.1 79.9 106.3 C 78.0 105.8 78.0 105.6 75.9 105.3 C 75.9 105.2 76.3 105.2 77.1 105.5 C 77.0 105.3 77.0 105.1 78.3 105.3 C 78.4 105.5 77.6 105.6 79.4 105.9 C 79.4 105.8 79.4 105.6 79.4 105.5 C 78.2 105.2 75.2 104.4 74.9 104.4 C 75.5 104.7 76.5 104.9 75.9 105.1 C 73.8 104.5 73.2 104.1 71.5 103.5 C 68.5 102.9 63.2 101.4 63.8 101.9 C 62.0 101.3 62.6 101.5 61.1 101.0 C 61.5 101.4 59.3 100.6 59.4 100.8 C 61.3 101.3 60.8 101.2 62.7 101.7 C 62.6 101.8 62.2 101.9 61.5 101.7 C 61.4 101.5 60.6 101.3 59.4 100.9 C 59.6 101.0 60.6 101.6 59.3 101.2 C 59.2 101.1 58.9 101.0 58.3 100.8 C 58.3 100.7 58.4 100.6 58.4 100.4 C 59.2 100.6 60.0 100.8 60.6 100.9 C 60.1 100.7 60.0 100.6 59.5 100.5 C 59.2 100.5 57.1 99.7 56.9 99.8 C 57.8 100.1 58.3 100.4 57.4 100.1 C 57.2 100.0 55.8 99.5 55.3 99.5 C 57.1 100.2 56.4 100.0 57.2 100.5 C 56.2 100.2 55.8 100.0 55.3 99.8 C 55.1 99.7 54.8 99.6 54.5 99.5 C 54.2 99.3 54.2 99.3 53.1 99.0 C 53.1 98.8 53.3 98.6 53.9 98.7 C 53.2 98.3 50.8 97.5 48.8 96.8 C 46.7 96.1 44.8 95.4 43.9 95.0 C 45.2 95.6 46.7 95.8 44.8 95.0 C 44.8 95.1 43.4 94.5 43.1 94.5 C 42.3 94.7 43.9 95.6 45.2 96.4 C 43.7 95.8 43.3 95.8 42.0 95.2 C 41.6 94.8 43.1 95.1 41.4 94.3 C 40.9 94.5 38.2 92.9 37.5 92.9 C 38.6 93.5 39.4 93.9 38.1 93.4 C 38.4 93.3 36.0 92.3 36.0 92.2 C 38.0 93.0 38.6 93.0 39.8 93.6 C 38.3 92.9 41.1 93.9 38.5 92.7 C 37.2 92.3 36.5 92.3 33.9 91.0 C 33.0 90.4 34.0 90.6 32.8 90.0 C 33.0 90.4 30.3 89.0 32.0 89.7 C 31.1 89.2 30.6 88.9 30.1 88.6 C 31.3 89.5 25.3 86.3 26.0 87.0 C 26.2 86.7 26.1 86.2 25.8 86.0 C 24.6 85.5 23.5 84.6 20.9 82.6 C 20.8 82.9 20.5 82.3 19.5 81.5 C 19.2 81.5 20.0 82.3 19.3 81.7 C 18.2 80.7 18.2 80.6 18.1 80.3 C 17.3 79.6 16.7 79.1 16.4 78.7 C 16.3 78.7 16.5 79.0 16.6 79.2 C 14.0 76.3 12.6 75.0 11.1 72.5 C 11.7 73.6 12.1 73.6 11.6 72.8 C 11.2 72.3 10.9 71.9 10.6 71.6 C 10.8 72.3 10.7 72.0 10.1 70.7 C 9.4 69.7 9.9 71.4 9.5 70.5 C 9.1 69.5 9.5 70.0 9.3 69.4 C 9.1 69.0 8.9 68.5 8.8 68.1 C 8.9 69.0 8.5 68.1 8.1 67.3 C 8.6 67.8 8.5 67.4 7.9 65.8 C 8.0 65.6 8.3 66.4 8.2 65.7 C 8.1 65.4 7.5 64.1 7.5 63.0 C 7.6 63.3 7.7 63.5 7.8 63.4 C 7.4 62.2 7.7 61.2 7.8 60.1 C 7.6 61.2 7.4 60.6 7.2 61.1 C 7.4 60.0 7.2 58.6 7.6 57.8 C 7.3 59.4 8.1 57.9 8.2 56.9 C 8.0 56.7 7.9 58.3 7.6 57.8 C 7.5 57.2 8.1 56.1 8.0 55.5 C 7.8 55.5 7.9 56.2 7.7 56.4 C 7.9 55.5 7.5 56.6 7.6 55.9 C 8.0 55.5 7.8 54.9 7.9 54.4 C 8.2 53.9 8.9 52.8 9.0 52.2 C 8.9 52.2 8.6 53.0 8.5 53.1 C 9.2 50.5 10.0 49.9 11.1 47.6 C 11.4 47.4 11.7 47.1 12.2 46.5 C 12.1 46.4 12.3 46.0 12.7 45.5 C 13.5 44.6 14.3 43.8 15.5 42.7 C 15.4 43.1 15.0 43.7 16.5 42.2 C 16.5 42.0 15.8 42.6 16.4 42.1 C 16.4 42.1 16.8 41.8 16.8 41.6 C 16.8 41.6 16.7 41.6 16.7 41.5 C 16.3 41.9 15.9 42.3 15.5 42.7 C 15.4 42.6 15.2 42.7 14.9 42.9 C 16.5 41.0 16.7 41.5 17.9 40.2 C 18.3 40.3 18.8 40.0 17.9 41.1 C 19.0 40.1 19.7 39.3 19.9 38.9 C 18.5 40.1 18.8 39.5 18.3 39.7 C 19.2 39.0 19.1 38.9 19.6 38.4 C 20.8 37.7 18.7 39.7 20.9 38.0 C 19.0 39.1 22.1 36.8 23.4 36.0 C 23.1 36.0 22.7 36.3 23.3 35.8 C 26.4 33.4 26.7 34.3 28.6 32.6 C 28.5 32.9 29.6 32.3 30.1 32.1 C 28.2 33.2 27.8 33.5 27.1 34.0 C 27.2 34.0 27.8 33.8 28.3 33.5 C 28.3 33.3 28.7 33.0 29.6 32.7 C 30.0 32.2 29.7 32.0 31.1 31.0 C 31.3 31.0 31.1 31.2 31.9 30.8 C 32.5 30.2 31.4 31.5 34.8 29.7 C 34.2 29.9 33.8 30.0 34.0 29.7 C 35.5 28.7 35.2 29.0 37.5 27.9 C 38.5 27.8 36.1 29.0 35.6 29.6 C 37.1 28.8 38.3 27.9 40.0 27.3 C 38.7 27.8 39.9 27.0 41.4 26.3 C 42.8 25.8 41.4 26.7 43.1 26.0 C 44.4 25.4 45.1 24.9 43.8 25.3 C 46.8 24.2 46.0 24.2 48.7 23.3 C 48.8 23.4 48.1 23.7 47.1 24.0 C 47.3 24.0 47.0 24.2 48.0 23.9 C 48.8 23.4 50.2 22.9 51.7 22.3 C 53.2 21.7 54.1 21.4 54.7 21.1 C 57.1 20.8 59.6 19.5 62.1 18.9 C 61.1 19.5 65.2 18.1 66.5 18.1 C 67.2 17.8 69.4 16.7 68.6 17.1 C 68.9 17.4 70.3 16.9 71.5 16.7 C 71.4 16.6 71.4 16.6 71.4 16.5 C 73.9 15.8 74.5 15.9 75.4 15.9 C 78.5 15.1 82.0 14.7 85.8 13.7 C 86.9 13.8 87.7 13.6 90.1 13.3 C 90.0 13.1 91.8 12.8 93.6 12.5 C 93.2 12.3 94.8 12.1 94.8 12.0 C 93.2 12.2 93.7 11.8 92.9 11.9 C 95.1 11.8 96.1 11.1 97.8 11.1 C 95.7 11.5 95.1 11.9 94.9 12.4 C 97.3 11.9 98.7 11.8 99.2 11.9 C 99.3 11.7 99.0 11.6 98.5 11.6 C 99.3 11.5 100.1 11.4 100.9 11.3 C 101.2 11.4 100.0 11.6 100.9 11.5 C 101.5 11.3 102.2 11.2 102.8 11.0 C 103.5 11.2 101.8 11.3 101.6 11.5 C 104.9 11.1 103.4 10.8 105.2 10.5 C 105.7 10.6 105.7 10.9 107.2 10.8 C 107.8 10.5 107.9 10.3 109.6 10.1 C 110.7 10.0 109.6 10.4 110.9 10.3 C 111.1 10.2 111.6 10.2 112.2 10.2 C 112.1 10.0 112.7 9.9 113.4 9.8 C 113.6 9.9 114.8 9.7 115.3 9.6 C 115.4 9.7 117.5 9.8 117.9 9.6 C 117.9 9.5 116.7 9.6 116.6 9.5 C 118.0 9.4 119.0 9.3 119.8 9.1 C 120.3 9.7 122.6 9.0 125.6 9.1 C 127.4 8.7 125.1 8.7 127.5 8.4 C 128.9 8.4 127.2 8.6 127.5 8.8 C 127.9 8.8 130.0 8.9 130.1 8.6 C 130.1 8.5 128.9 8.7 128.8 8.6 C 130.5 8.2 130.4 8.5 131.4 8.6 C 131.3 8.4 132.4 8.2 132.6 8.1 C 137.3 7.6 137.3 8.1 139.2 8.2 C 139.2 8.1 140.3 8.1 140.4 8.0 C 139.1 8.1 137.3 8.0 139.2 7.9 C 138.9 8.0 141.6 7.8 141.8 7.7 C 141.5 7.6 139.7 7.7 140.4 7.4 C 142.9 7.2 141.9 7.8 143.7 7.5 C 143.9 7.6 142.9 7.7 142.4 7.8 C 143.2 7.7 144.3 7.7 144.4 7.8 C 143.4 7.9 143.4 8.1 143.1 8.2 C 144.3 8.0 146.6 8.1 145.0 7.8 C 147.7 7.8 150.1 7.6 148.3 7.4 C 150.5 7.3 149.2 7.7 151.0 7.4 C 150.7 7.7 150.2 7.9 151.6 8.1 C 151.9 7.9 153.0 7.8 152.9 7.6 C 156.0 7.6 156.9 7.9 158.2 8.1 C 157.1 7.7 158.6 8.0 160.1 7.7 C 161.1 7.8 160.2 8.2 162.7 8.1 C 160.0 7.7 165.9 8.0 164.7 7.6 C 168.0 7.8 167.9 7.8 171.3 8.0 C 171.0 8.1 170.2 8.2 168.7 8.2 C 169.7 8.0 165.8 8.0 166.1 8.1 C 166.1 8.2 166.1 8.2 166.1 8.3 C 168.6 8.3 170.2 8.4 171.3 8.5 C 171.8 8.4 173.0 8.3 172.6 8.0 C 174.9 8.4 177.4 8.1 178.5 8.4 C 177.7 8.4 176.9 8.3 177.2 8.5 C 178.1 8.4 179.3 8.4 179.1 8.2 C 177.2 8.1 176.9 8.0 175.9 8.2 C 176.7 8.0 174.0 7.8 175.9 7.8 C 175.8 8.2 179.8 7.8 178.5 8.0 C 176.4 8.0 180.9 8.3 181.0 8.5 C 181.0 8.5 181.0 8.5 181.0 8.5 Z M 229.5 107.6 C 231.3 107.2 229.0 107.4 227.7 107.6 C 228.1 107.6 228.3 107.7 228.3 107.8 C 228.8 107.7 229.4 107.6 229.5 107.6 C 229.5 107.6 229.5 107.6 229.5 107.6 Z M 209.5 107.0 C 208.9 107.4 211.9 106.8 213.2 106.7 C 212.8 106.7 212.4 106.7 213.2 106.6 C 211.8 106.5 211.4 107.0 209.5 107.0 C 209.5 107.0 209.5 107.0 209.5 107.0 Z M 138.0 110.2 C 138.5 110.2 139.7 110.2 139.8 110.3 C 140.6 110.3 140.4 110.2 140.6 110.1 C 142.1 110.1 140.2 110.4 142.5 110.4 C 143.4 110.0 138.5 109.7 138.0 110.2 C 138.0 110.2 138.0 110.2 138.0 110.2 Z M 156.2 11.6 C 157.1 11.7 154.9 11.9 155.6 12.1 C 159.2 11.9 156.4 11.6 161.4 11.7 C 161.1 11.7 160.7 11.6 160.8 11.5 C 158.4 11.6 158.2 11.8 158.8 11.3 C 157.7 11.3 157.5 11.8 156.2 11.6 C 156.2 11.6 156.2 11.6 156.2 11.6 Z M 202.5 14.7 C 202.1 14.6 201.8 14.5 201.8 14.4 C 200.3 14.4 200.6 14.4 198.7 14.2 C 198.9 14.6 200.8 14.7 202.5 14.7 C 202.5 14.7 202.5 14.7 202.5 14.7 Z M 305.0 54.9 C 305.1 55.1 305.2 55.4 305.3 55.6 C 305.4 55.4 305.9 55.9 305.4 54.8 C 305.3 54.7 305.4 54.9 305.4 55.1 C 305.3 55.0 305.1 54.4 305.0 54.5 C 305.1 54.8 305.1 54.9 305.0 54.9 C 305.0 54.9 305.0 54.9 305.0 54.9 Z M 290.1 84.1 C 292.2 82.5 286.4 85.4 290.1 84.1 C 290.1 84.1 290.1 84.1 290.1 84.1 C 290.1 84.1 290.1 84.1 290.1 84.1 Z M 296.1 83.5 C 296.2 83.5 296.6 83.2 296.6 83.1 C 298.3 81.9 296.8 83.2 297.8 82.6 C 299.0 81.5 296.9 82.8 298.4 81.4 C 298.0 81.6 297.1 82.8 296.1 83.5 C 296.1 83.5 296.1 83.5 296.1 83.5 Z M 26.3 34.2 C 24.7 35.3 24.5 35.8 24.3 36.2 C 25.4 35.5 26.3 35.0 26.7 34.8 C 28.7 33.4 25.2 35.6 24.9 35.7 C 25.0 35.4 26.4 34.4 26.3 34.2 C 26.3 34.2 26.3 34.2 26.3 34.2 Z M 21.4 37.7 C 20.9 38.2 20.1 39.0 20.2 39.2 C 21.0 38.5 21.2 38.5 21.3 38.5 C 22.0 37.8 20.9 38.4 21.4 37.7 C 21.4 37.7 21.4 37.7 21.4 37.7 Z M 31.4 31.6 C 30.6 32.1 31.0 32.0 31.0 32.2 C 32.1 31.5 32.4 31.5 33.6 30.9 C 33.6 30.8 33.6 30.7 33.5 30.7 C 32.5 31.2 32.4 31.3 31.5 31.8 C 31.5 31.7 31.5 31.7 31.4 31.6 C 31.4 31.6 31.4 31.6 31.4 31.6 Z M 17.4 41.5 C 15.2 43.5 14.7 44.8 13.9 46.4 C 15.0 44.8 16.0 43.1 17.2 42.1 C 18.5 40.7 16.7 42.4 16.6 42.3 C 16.6 42.2 17.1 41.8 17.4 41.5 C 17.4 41.5 17.4 41.5 17.4 41.5 Z M 7.9 61.5 C 7.7 62.0 8.2 62.9 8.4 64.3 C 8.4 64.0 8.4 63.8 8.5 63.7 C 8.3 61.8 8.0 63.0 7.9 61.5 C 7.9 61.5 7.9 61.5 7.9 61.5 Z M 11.9 72.6 C 12.6 73.7 11.6 71.9 12.2 72.4 C 11.4 71.2 10.7 69.8 10.5 70.0 C 11.3 71.3 11.5 71.5 11.9 72.6 C 11.9 72.6 11.9 72.6 11.9 72.6 Z M 18.4 80.0 C 19.8 81.0 18.0 79.2 18.8 79.6 C 18.2 79.1 18.3 79.3 18.2 79.4 C 17.8 79.0 17.5 78.6 17.0 78.1 C 17.3 78.6 18.7 79.9 18.4 80.0 C 18.4 80.0 18.4 80.0 18.4 80.0 Z M 73.3 17.1 C 72.3 17.4 72.6 17.6 70.6 18.0 C 73.7 17.2 72.1 18.3 76.3 17.3 C 75.6 17.3 76.0 17.1 76.3 17.2 C 77.8 16.7 74.7 17.4 76.2 16.8 C 75.0 17.1 75.7 17.2 74.6 17.5 C 73.3 17.5 72.6 17.6 73.3 17.1 C 73.3 17.1 73.3 17.1 73.3 17.1 Z M 76.3 17.5 C 77.5 17.3 77.4 16.9 78.0 17.0 C 78.6 16.9 78.4 16.8 78.5 16.7 C 78.1 16.8 78.0 16.8 78.0 16.7 C 77.0 17.0 76.0 17.3 76.3 17.5 C 76.3 17.5 76.3 17.5 76.3 17.5 Z M 65.8 20.1 C 67.6 19.5 68.2 19.5 69.1 19.1 C 69.8 19.3 70.3 18.6 71.3 18.7 C 73.1 18.2 71.8 18.4 71.2 18.4 C 73.0 17.9 71.7 18.5 73.5 18.0 C 73.8 17.7 71.5 18.3 71.7 17.9 C 70.3 18.3 70.4 18.5 69.5 18.7 C 68.9 18.9 69.1 18.7 69.0 18.6 C 67.4 19.1 67.5 18.9 66.2 19.3 C 66.0 19.6 66.5 19.5 67.9 19.1 C 66.5 19.6 65.9 19.9 64.2 20.2 C 65.3 19.7 60.0 21.1 60.5 21.4 C 61.9 21.0 61.5 20.9 62.0 20.7 C 63.9 20.4 65.1 20.0 65.8 20.1 C 65.8 20.1 65.8 20.1 65.8 20.1 Z M 32.5 31.9 C 31.9 32.2 31.4 32.4 30.5 32.9 C 30.4 32.8 31.5 32.2 30.4 32.6 C 29.0 33.4 28.7 33.6 27.9 34.2 C 28.5 34.0 31.4 32.6 30.0 33.5 C 30.4 33.4 31.4 32.9 32.6 32.2 C 31.0 32.7 34.6 31.2 36.1 30.5 C 35.8 30.2 38.6 29.3 39.6 28.6 C 38.6 28.8 35.8 30.4 34.6 31.0 C 35.2 30.7 31.0 32.3 32.5 31.9 C 32.5 31.9 32.5 31.9 32.5 31.9 Z M 80.9 16.4 C 81.2 16.2 82.5 15.9 81.5 16.1 C 81.9 15.9 83.0 15.8 82.5 15.5 C 83.1 15.4 83.7 15.3 84.3 15.2 C 84.1 15.4 82.5 15.6 83.1 15.7 C 84.3 15.4 83.9 15.6 85.5 15.3 C 84.7 15.7 85.6 15.5 85.0 15.9 C 85.4 15.7 86.9 15.5 86.7 15.3 C 89.0 14.9 86.1 15.7 89.1 15.2 C 89.1 15.4 87.0 15.8 86.2 15.8 C 85.9 16.1 89.9 15.2 92.1 14.9 C 90.1 15.0 91.7 14.5 92.6 14.2 C 93.3 14.1 92.6 14.3 93.9 14.3 C 94.9 14.1 95.4 13.9 95.7 14.0 C 96.5 13.8 96.2 13.7 96.3 13.6 C 97.7 13.4 96.7 13.9 98.7 13.5 C 97.1 13.4 98.9 13.1 101.7 12.8 C 101.5 12.7 100.6 12.8 100.5 12.7 C 100.9 12.5 102.6 12.5 103.0 12.6 C 104.0 12.4 103.3 12.3 102.4 12.5 C 103.0 12.3 103.5 12.2 104.2 12.0 C 101.1 12.4 96.3 13.1 90.7 13.8 C 91.8 13.8 90.6 14.0 89.0 14.2 C 88.7 14.1 89.4 14.0 90.2 13.9 C 88.2 13.9 88.4 14.5 85.5 14.9 C 83.8 15.1 87.2 14.4 85.4 14.6 C 84.3 14.8 83.6 15.2 83.1 15.0 C 81.2 15.5 80.8 15.9 77.9 16.5 C 79.6 16.3 80.4 16.7 82.1 16.2 C 82.0 16.1 81.3 16.3 80.9 16.4 C 80.9 16.4 80.9 16.4 80.9 16.4 Z M 21.4 38.6 C 20.5 39.3 20.2 39.8 19.9 39.8 C 18.6 41.0 20.3 39.9 20.6 39.7 C 21.2 39.1 21.4 38.8 21.4 38.6 C 21.4 38.6 21.4 38.6 21.4 38.6 Z M 146.3 112.6 C 148.8 112.8 148.3 112.4 150.3 112.5 C 148.7 112.4 148.3 112.2 145.7 112.1 C 145.6 112.3 145.5 112.5 146.3 112.6 C 146.3 112.6 146.3 112.6 146.3 112.6 Z M 26.8 35.0 C 28.1 33.9 25.3 36.4 25.2 36.2 C 23.7 37.4 26.7 35.3 25.4 36.5 C 26.7 35.5 27.6 35.1 29.4 33.9 C 29.3 33.8 27.8 34.7 26.4 35.6 C 26.1 35.6 26.9 35.1 26.8 35.0 C 26.8 35.0 26.8 35.0 26.8 35.0 Z M 121.1 110.5 C 119.4 110.5 122.6 111.1 123.6 111.3 C 123.7 110.9 123.2 111.0 121.1 110.5 C 121.1 110.5 121.1 110.5 121.1 110.5 Z M 163.4 112.4 C 164.3 112.1 160.4 112.4 161.4 112.1 C 160.2 112.1 160.1 112.2 160.0 112.3 C 159.5 112.2 157.6 112.2 158.1 112.0 C 157.8 111.8 161.1 112.1 160.0 111.8 C 161.1 111.8 161.2 111.9 162.0 111.9 C 160.1 111.9 161.0 112.1 163.4 112.2 C 163.4 112.0 162.3 112.0 163.4 111.8 C 163.5 112.0 164.7 112.1 164.6 112.5 C 166.7 112.4 165.5 112.0 167.9 112.0 C 167.7 111.9 166.2 111.9 165.3 111.8 C 165.5 111.6 167.8 112.0 167.3 111.6 C 167.8 111.8 169.2 111.9 169.2 112.2 C 167.4 112.3 166.2 112.5 164.6 112.6 C 166.1 112.8 168.1 112.2 170.5 112.4 C 170.3 112.2 171.7 112.2 171.2 112.0 C 173.1 112.0 172.2 112.3 171.9 112.3 C 172.4 112.5 176.1 112.2 175.8 112.1 C 176.1 112.2 180.5 112.0 180.3 111.7 C 181.6 111.8 183.6 111.4 184.2 111.7 C 185.0 111.5 186.5 111.5 188.1 111.4 C 188.6 111.1 185.7 111.4 185.5 111.2 C 185.0 111.0 188.6 111.1 188.1 110.9 C 188.1 110.8 188.1 110.8 188.1 110.7 C 186.8 110.9 185.5 111.0 184.2 111.2 C 183.3 111.2 184.5 111.1 184.2 111.0 C 183.3 111.1 179.2 111.7 179.0 111.2 C 176.2 111.5 174.3 111.4 173.1 111.7 C 171.5 111.7 174.1 111.5 173.1 111.3 C 168.2 111.8 162.2 111.5 158.1 111.9 C 157.2 111.8 157.6 111.7 157.4 111.5 C 151.8 111.7 156.6 112.1 152.2 111.9 C 152.2 111.7 154.3 111.7 154.2 111.5 C 152.6 111.5 152.3 111.6 150.2 111.5 C 150.2 111.6 150.2 111.7 150.2 111.8 C 148.6 111.8 149.2 111.5 148.3 111.4 C 146.2 111.4 146.7 111.6 145.7 111.2 C 143.7 111.3 141.8 111.3 139.8 111.1 C 138.5 111.2 141.0 111.7 143.1 111.8 C 143.0 111.9 142.4 111.8 142.4 111.9 C 140.0 111.6 139.6 111.2 136.0 110.9 C 138.7 111.3 134.5 110.9 134.0 110.7 C 132.5 110.6 133.6 111.0 134.6 111.1 C 134.4 111.2 133.5 111.0 133.4 110.9 C 133.1 111.3 136.7 111.7 140.4 111.7 C 138.7 112.0 143.1 111.8 141.1 112.2 C 144.2 112.2 141.6 111.8 145.0 112.0 C 144.7 111.9 144.0 111.8 143.7 111.7 C 146.3 111.7 145.6 112.0 148.3 112.0 C 148.8 111.8 147.0 111.8 147.0 111.7 C 150.0 112.0 150.9 112.1 152.9 112.4 C 153.3 112.2 152.8 112.0 156.1 112.2 C 156.1 112.2 156.1 112.3 156.1 112.3 C 154.6 112.3 154.2 112.7 158.1 112.7 C 158.4 112.6 157.2 112.6 156.1 112.6 C 156.6 112.4 157.9 112.4 159.4 112.3 C 160.2 112.4 161.1 112.5 160.0 112.5 C 160.7 112.7 161.3 112.3 163.4 112.4 C 163.4 112.4 163.4 112.4 163.4 112.4 Z M 8.4 59.3 C 8.5 59.6 8.5 60.0 8.5 60.6 C 8.7 60.9 8.7 59.7 8.8 59.7 C 8.9 58.8 8.5 59.5 8.4 59.3 C 8.4 59.3 8.4 59.3 8.4 59.3 Z M 13.2 47.3 C 13.0 47.2 12.8 48.0 12.1 48.9 C 12.1 49.3 12.8 48.1 12.9 48.2 C 13.7 47.1 12.4 48.3 13.2 47.3 C 13.2 47.3 13.2 47.3 13.2 47.3 Z M 10.3 52.3 C 9.9 52.7 10.2 52.8 10.6 51.9 C 10.7 52.0 10.7 52.3 10.5 52.9 C 11.0 52.3 10.8 51.8 11.4 50.7 C 11.1 51.0 10.7 51.6 10.3 52.3 C 10.3 52.3 10.3 52.3 10.3 52.3 Z M 9.6 54.0 C 9.6 54.7 9.2 55.1 9.1 56.2 C 9.3 56.0 10.0 53.6 10.0 53.2 C 10.0 52.7 9.1 55.3 9.6 54.0 C 9.6 54.0 9.6 54.0 9.6 54.0 Z M 96.3 107.1 C 96.9 107.2 96.8 107.1 96.9 107.1 C 98.7 107.7 101.4 108.0 99.2 108.1 C 101.2 108.1 103.0 108.7 104.7 109.0 C 106.2 109.2 105.5 108.9 106.6 109.0 C 108.4 109.3 105.6 109.0 106.0 109.2 C 106.3 109.4 106.9 109.1 109.1 109.5 C 108.5 109.0 111.0 109.7 110.4 109.2 C 111.6 109.5 111.9 109.4 113.5 109.6 C 113.4 109.4 111.8 109.2 111.7 109.1 C 110.9 108.7 110.8 109.2 112.3 109.3 C 111.4 109.4 109.2 108.8 108.5 108.9 C 107.8 108.6 110.6 109.1 109.8 108.8 C 109.2 108.7 108.7 108.7 108.6 108.8 C 107.7 108.6 107.1 108.5 106.7 108.3 C 107.3 108.4 107.3 108.4 107.3 108.5 C 108.5 108.6 106.2 107.9 108.6 108.2 C 108.2 108.1 107.2 107.9 107.4 107.8 C 106.7 107.6 107.3 108.5 104.9 107.9 C 103.2 107.9 108.7 108.6 107.2 108.9 C 103.8 108.4 105.8 108.3 103.0 107.9 C 103.0 108.0 103.1 108.1 102.3 108.0 C 102.4 108.1 103.5 108.3 104.2 108.4 C 104.0 108.4 103.0 108.3 102.3 108.2 C 102.4 108.3 103.0 108.4 102.9 108.4 C 100.6 108.0 100.9 107.6 103.0 107.7 C 103.0 107.5 100.1 107.1 99.4 107.1 C 100.1 107.4 99.3 107.3 99.9 107.6 C 100.5 107.7 100.4 107.6 100.6 107.5 C 101.6 107.8 100.6 107.7 100.5 107.8 C 99.3 107.6 99.4 107.4 98.1 107.3 C 98.4 107.3 98.7 107.3 98.7 107.2 C 98.1 107.1 97.5 107.0 96.9 106.9 C 96.9 107.1 96.2 107.0 96.3 107.1 C 96.3 107.1 96.3 107.1 96.3 107.1 Z M 128.8 111.4 C 130.9 111.6 129.8 111.3 128.8 111.3 C 129.2 111.2 130.0 111.2 130.7 111.2 C 130.1 111.1 129.6 111.1 127.6 110.9 C 129.3 110.7 127.5 110.2 124.4 110.0 C 123.4 110.4 126.1 110.6 125.0 110.8 C 127.3 110.8 128.5 111.1 128.8 111.4 C 128.8 111.4 128.8 111.4 128.8 111.4 Z M 20.6 39.7 C 19.7 40.5 18.8 41.3 18.0 42.0 C 18.2 42.1 21.1 39.9 20.6 39.7 C 20.6 39.7 20.6 39.7 20.6 39.7 Z M 106.7 12.0 C 107.2 11.9 107.3 12.0 107.3 12.0 C 109.1 11.7 106.5 11.9 107.3 11.6 C 106.6 11.7 106.0 11.8 105.4 11.9 C 105.3 12.0 108.0 11.8 106.1 12.1 C 106.2 12.2 106.7 12.1 106.7 12.0 C 106.7 12.0 106.7 12.0 106.7 12.0 Z M 8.8 58.4 C 8.8 59.2 9.1 58.7 9.0 60.6 C 9.2 59.9 9.2 59.5 9.2 58.4 C 9.1 58.4 9.0 58.4 8.8 58.4 C 8.8 58.4 8.8 58.4 8.8 58.4 Z M 87.2 106.0 C 88.7 106.5 89.2 106.0 92.0 106.7 C 90.6 106.1 88.9 106.2 87.2 106.0 C 87.2 106.0 87.2 106.0 87.2 106.0 Z M 193.3 110.6 C 192.3 110.6 193.5 110.5 191.9 110.5 C 191.1 110.6 190.7 110.8 189.4 110.9 C 191.2 111.0 194.4 110.5 195.8 110.8 C 197.3 110.6 197.2 110.4 197.7 110.2 C 196.9 110.2 196.6 110.2 196.4 110.2 C 195.5 110.6 194.4 110.1 193.3 110.6 C 193.3 110.6 193.3 110.6 193.3 110.6 Z M 120.5 110.4 C 119.3 110.1 121.3 110.2 121.8 110.1 C 122.6 110.2 122.3 110.3 122.4 110.5 C 123.6 110.5 123.9 110.4 123.7 110.2 C 121.6 110.0 119.0 109.7 120.6 109.6 C 118.5 109.3 119.6 109.7 118.6 109.7 C 117.5 109.4 118.6 109.5 118.7 109.2 C 118.2 109.2 116.6 109.4 116.8 109.0 C 113.7 109.1 115.0 109.6 117.3 110.2 C 119.3 110.2 117.0 109.8 120.5 110.4 C 120.5 110.4 120.5 110.4 120.5 110.4 Z M 43.6 93.3 C 43.8 93.5 45.2 94.1 45.2 94.1 C 47.0 94.6 48.7 95.0 50.4 95.4 C 50.2 95.0 47.8 94.4 48.7 94.9 C 48.0 94.5 46.4 93.8 45.6 93.3 C 43.9 92.6 43.2 92.8 43.1 92.4 C 41.6 91.9 42.4 92.2 40.1 91.1 C 43.7 93.0 38.7 90.7 38.4 90.8 C 40.5 91.8 42.5 92.6 42.3 92.3 C 43.9 93.1 45.8 93.9 46.1 94.2 C 45.9 94.3 44.5 93.7 43.6 93.3 C 43.6 93.3 43.6 93.3 43.6 93.3 Z M 54.0 96.4 C 53.3 96.2 52.6 96.0 51.4 95.6 C 52.0 95.9 52.3 96.1 52.1 96.2 C 54.4 97.0 54.6 96.9 54.9 97.2 C 56.1 97.7 54.7 96.8 56.5 97.5 C 56.4 97.4 55.5 97.1 55.5 97.0 C 55.3 97.1 55.0 97.1 54.0 96.4 C 54.0 96.4 54.0 96.4 54.0 96.4 Z M 70.2 101.6 C 71.7 102.0 69.5 101.3 70.3 101.3 C 69.9 101.3 67.2 100.5 67.6 100.4 C 66.9 99.9 64.0 99.8 64.4 99.4 C 63.8 99.3 64.0 99.5 63.8 99.5 C 65.7 100.0 65.7 100.2 64.3 99.8 C 64.5 100.0 65.6 100.3 66.4 100.5 C 66.6 100.4 65.8 100.2 66.0 100.0 C 67.6 100.6 68.7 101.1 70.2 101.6 C 70.2 101.6 70.2 101.6 70.2 101.6 Z M 177.1 9.6 C 175.5 9.5 174.6 9.5 173.8 9.5 C 174.3 9.7 175.0 9.6 175.8 9.6 C 176.0 9.8 175.3 9.7 174.4 9.7 C 175.2 10.0 177.9 9.9 177.1 9.6 C 177.1 9.6 177.1 9.6 177.1 9.6 Z M 164.0 9.3 C 162.5 9.2 161.6 9.3 161.4 9.4 C 162.0 9.6 161.8 9.3 162.7 9.3 C 163.3 9.4 163.7 9.5 164.0 9.6 C 164.6 9.6 164.5 9.5 164.7 9.4 C 165.2 9.4 165.3 9.5 165.3 9.5 C 167.1 9.3 163.2 9.5 164.0 9.3 C 164.0 9.3 164.0 9.3 164.0 9.3 Z M 61.1 99.0 C 60.7 98.8 60.4 98.5 59.1 98.2 C 59.3 98.4 58.3 98.1 57.5 97.8 C 58.7 98.4 59.3 98.5 61.1 99.0 C 61.1 99.0 61.1 99.0 61.1 99.0 Z M 85.0 16.1 C 83.2 16.2 83.5 16.6 81.0 16.9 C 81.0 17.0 81.0 17.1 81.0 17.2 C 82.5 16.6 83.2 16.6 85.0 16.1 C 85.0 16.1 85.0 16.1 85.0 16.1 Z M 307.6 69.3 C 307.5 69.1 306.9 70.4 306.7 70.4 C 306.9 70.8 306.1 71.1 304.5 73.4 C 304.4 73.4 304.4 73.2 304.7 72.9 C 303.2 74.7 305.3 72.6 305.6 72.4 C 306.6 70.9 306.9 70.8 307.6 69.3 C 307.6 69.3 307.6 69.3 307.6 69.3 Z M 173.8 110.9 C 173.7 111.0 174.0 111.0 174.4 111.0 C 174.9 111.0 175.3 111.0 175.7 110.9 C 175.6 110.6 173.4 110.6 175.0 110.2 C 174.5 110.2 174.4 110.2 174.4 110.3 C 171.3 111.1 168.8 110.0 164.6 110.5 C 164.0 110.5 164.1 110.6 164.0 110.6 C 164.5 110.6 164.6 110.7 164.6 110.7 C 165.1 110.4 168.9 110.7 167.2 110.8 C 167.4 110.9 167.9 110.9 167.9 110.8 C 168.3 110.8 168.8 110.8 169.2 110.8 C 169.0 110.7 168.1 110.7 167.9 110.6 C 170.0 110.6 172.5 110.7 171.2 111.0 C 172.5 110.9 172.9 110.8 173.8 110.7 C 174.6 110.7 174.6 110.9 173.8 110.9 C 173.8 110.9 173.8 110.9 173.8 110.9 Z M 190.6 110.0 C 192.6 109.9 191.8 109.7 193.8 109.6 C 192.5 109.5 191.0 109.9 189.3 109.8 C 189.6 109.9 190.4 109.9 190.6 110.0 C 190.6 110.0 190.6 110.0 190.6 110.0 Z M 152.9 110.7 C 153.3 110.4 151.5 110.4 149.6 110.3 C 149.2 110.6 150.9 110.7 152.9 110.7 C 152.9 110.7 152.9 110.7 152.9 110.7 Z M 161.4 110.7 C 163.3 110.6 159.0 110.7 160.0 110.4 C 159.2 110.4 158.2 110.4 158.1 110.3 C 157.4 110.4 157.4 110.5 156.2 110.5 C 156.2 110.6 158.3 110.6 158.1 110.7 C 159.6 110.6 159.9 110.6 161.4 110.7 C 161.4 110.7 161.4 110.7 161.4 110.7 Z M 162.7 110.7 C 163.9 110.6 162.3 110.3 160.7 110.3 C 161.3 110.4 161.7 110.6 162.7 110.7 C 162.7 110.7 162.7 110.7 162.7 110.7 Z M 19.2 77.4 C 19.7 77.9 19.5 77.4 20.1 78.0 C 20.2 77.9 17.8 75.7 19.9 77.5 C 19.3 76.6 18.6 76.6 17.8 75.7 C 18.0 76.0 18.2 76.3 17.7 75.8 C 17.3 75.7 19.6 77.5 19.2 77.4 C 19.2 77.4 19.2 77.4 19.2 77.4 Z M 21.7 79.7 C 22.3 80.1 22.1 79.8 21.8 79.6 C 21.9 79.6 22.7 80.2 23.3 80.7 C 23.2 80.8 22.5 79.6 22.6 79.5 C 20.2 77.8 21.8 79.4 21.7 79.7 C 21.7 79.7 21.7 79.7 21.7 79.7 Z M 24.2 81.4 C 25.7 82.8 28.3 84.4 29.7 84.9 C 28.5 83.8 25.2 81.7 24.2 81.4 C 24.2 81.4 24.2 81.4 24.2 81.4 Z M 12.8 68.8 C 13.7 71.3 17.2 75.6 14.6 71.4 C 14.6 71.6 12.8 69.0 12.4 67.6 C 12.2 67.6 11.5 66.2 11.6 66.1 C 11.1 65.1 12.8 69.5 12.8 68.8 C 12.8 68.8 12.8 68.8 12.8 68.8 Z M 32.4 85.9 C 31.3 85.4 32.4 86.5 31.0 85.5 C 30.0 85.1 31.1 85.8 30.8 85.7 C 32.7 86.8 37.1 88.8 37.4 89.2 C 38.6 89.6 39.0 89.7 41.1 90.6 C 41.3 90.6 33.6 87.3 32.3 86.0 C 32.5 86.0 35.0 87.3 32.4 85.9 C 32.4 85.9 32.4 85.9 32.4 85.9 Z M 85.3 17.5 C 85.5 17.3 83.1 17.9 83.5 17.5 C 82.3 18.1 81.0 18.2 79.6 18.7 C 79.1 18.7 79.2 18.3 77.2 18.7 C 77.2 18.9 78.2 18.7 77.3 19.0 C 75.5 19.5 75.9 19.1 73.9 19.6 C 74.3 20.0 69.6 20.8 70.1 21.1 C 71.2 20.8 71.1 20.6 72.9 20.2 C 73.5 20.1 73.2 20.3 74.0 20.1 C 73.5 20.5 72.5 20.3 71.8 20.7 C 72.0 20.8 73.4 20.5 73.6 20.6 C 74.4 20.4 73.3 20.6 73.5 20.4 C 75.6 19.8 73.4 21.0 75.8 20.3 C 75.3 20.2 75.3 20.2 75.7 19.9 C 76.7 19.8 79.5 19.0 78.0 19.6 C 78.2 19.7 79.9 19.1 79.7 19.0 C 80.6 18.8 80.7 18.8 80.8 18.9 C 83.2 18.3 83.5 18.0 83.0 17.9 C 83.5 17.6 83.9 17.9 85.3 17.5 C 85.3 17.5 85.3 17.5 85.3 17.5 Z M 11.2 56.3 C 11.3 55.3 11.0 57.3 10.9 58.2 C 11.0 57.1 11.3 57.5 11.6 56.4 C 11.4 56.8 11.4 56.7 11.6 55.9 C 11.5 55.7 11.0 57.4 11.2 56.3 C 11.2 56.3 11.2 56.3 11.2 56.3 Z M 45.8 92.6 C 46.6 93.1 51.0 94.6 53.4 95.4 C 53.1 94.9 47.2 93.4 46.7 92.8 C 45.4 92.3 47.3 93.2 45.8 92.6 C 45.8 92.6 45.8 92.6 45.8 92.6 Z M 64.1 22.2 C 63.5 22.3 63.9 22.3 64.1 22.2 C 64.0 22.4 62.9 22.7 62.0 22.9 C 63.3 22.7 61.9 23.2 62.2 23.4 C 61.6 23.6 61.3 23.7 61.2 23.8 C 61.0 23.3 58.0 25.0 61.3 24.1 C 60.6 24.0 60.9 24.0 62.2 23.5 C 63.7 23.2 64.9 22.7 65.4 22.8 C 66.4 22.5 66.7 22.3 68.1 21.9 C 68.4 22.0 69.7 21.8 68.7 22.4 C 71.1 21.8 69.4 21.6 71.3 21.1 C 73.2 20.8 70.4 21.6 70.9 21.7 C 71.4 21.6 71.3 21.7 71.5 21.7 C 72.2 21.5 72.1 21.3 71.4 21.5 C 71.6 21.3 73.5 20.7 73.0 21.1 C 74.1 20.7 71.1 20.8 69.7 21.4 C 68.8 21.7 68.7 21.2 69.6 21.0 C 69.2 20.9 67.5 21.9 67.9 21.3 C 67.2 21.5 66.5 21.7 65.7 21.9 C 65.9 21.9 66.3 21.8 66.3 21.9 C 65.6 22.1 64.9 22.3 64.2 22.5 C 64.8 22.2 64.8 22.1 64.1 22.2 C 64.1 22.2 64.1 22.2 64.1 22.2 Z M 36.2 88.2 C 37.9 89.1 38.4 89.2 39.8 89.8 C 39.3 89.3 35.5 87.6 36.2 88.2 C 36.2 88.2 36.2 88.2 36.2 88.2 Z M 95.5 16.4 C 95.3 16.4 94.3 16.6 94.3 16.5 C 96.1 16.1 94.0 16.3 95.4 15.7 C 93.0 16.2 92.3 16.9 95.5 16.6 C 97.9 16.2 93.1 16.9 95.5 16.4 C 95.5 16.4 95.5 16.4 95.5 16.4 Z M 88.3 17.5 C 86.9 17.9 90.5 17.4 91.4 17.3 C 91.4 17.4 91.4 17.5 91.4 17.5 C 93.4 16.8 90.6 17.2 92.4 16.4 C 90.1 16.7 89.1 16.8 87.1 17.3 C 87.2 17.3 87.7 17.2 87.7 17.2 C 89.2 16.9 88.2 17.4 86.6 17.6 C 87.1 17.6 88.5 17.4 89.5 17.2 C 89.2 17.2 88.9 17.2 88.9 17.1 C 90.2 16.8 89.7 17.1 90.7 16.9 C 90.7 17.0 88.4 17.7 88.3 17.5 C 88.3 17.5 88.3 17.5 88.3 17.5 Z M 213.2 14.3 C 211.9 14.2 214.5 14.8 214.3 15.2 C 215.6 15.4 215.9 15.3 216.8 15.4 C 216.4 15.2 214.9 15.0 214.4 14.8 C 214.6 14.5 216.3 15.1 216.8 15.0 C 217.7 14.7 213.7 14.7 213.2 14.3 C 213.2 14.3 213.2 14.3 213.2 14.3 Z M 33.1 34.6 C 32.4 35.0 32.8 34.9 33.1 34.7 C 33.0 34.8 31.9 35.4 31.9 35.4 C 31.0 35.9 32.5 35.2 31.4 35.8 C 31.2 36.1 33.1 34.8 33.2 34.8 C 34.6 34.0 33.6 34.8 34.0 34.7 C 35.3 34.1 34.7 34.1 36.6 33.2 C 35.4 33.7 34.4 34.0 33.1 34.6 C 33.1 34.6 33.1 34.6 33.1 34.6 Z M 99.6 15.3 C 99.8 15.2 98.3 15.9 96.6 15.9 C 94.5 16.3 98.0 16.0 96.1 16.3 C 97.7 16.1 99.6 15.6 102.1 15.2 C 102.7 15.0 98.6 15.7 100.9 15.2 C 100.7 15.1 100.2 15.3 100.2 15.3 C 99.7 15.4 99.7 15.4 99.6 15.3 C 99.6 15.3 99.6 15.3 99.6 15.3 Z M 97.3 16.2 C 97.4 16.3 97.9 16.2 97.9 16.1 C 98.7 16.0 98.7 16.3 98.0 16.4 C 99.0 16.5 98.9 16.0 101.0 15.9 C 100.0 15.8 99.6 15.7 101.5 15.6 C 103.0 15.2 98.0 16.0 97.3 16.2 C 97.3 16.2 97.3 16.2 97.3 16.2 Z M 193.1 12.4 C 193.3 12.5 194.6 12.6 195.6 12.7 C 194.4 12.8 189.2 12.3 188.6 12.1 C 188.0 12.1 187.5 12.1 187.3 12.0 C 187.4 12.1 185.9 12.1 186.7 12.2 C 186.5 12.3 185.4 12.2 185.4 12.3 C 183.5 12.1 186.0 12.2 185.4 12.0 C 183.1 12.1 183.6 11.9 180.9 11.7 C 181.3 12.0 184.3 12.1 184.1 12.4 C 186.2 12.2 188.5 12.6 189.8 12.9 C 187.8 12.4 195.3 12.8 198.8 13.1 C 198.6 13.3 199.9 13.4 201.3 13.6 C 202.2 14.0 202.0 13.4 200.1 13.3 C 200.1 13.2 202.7 13.6 203.8 13.6 C 202.5 13.4 203.3 13.3 202.6 13.2 C 200.2 12.9 202.4 13.2 201.9 13.4 C 201.3 13.3 200.7 13.2 200.0 13.2 C 203.4 13.1 195.2 12.7 198.2 12.9 C 195.6 12.7 195.5 12.5 193.1 12.4 C 193.1 12.4 193.1 12.4 193.1 12.4 Z M 132.2 11.9 C 131.8 12.0 129.8 12.3 129.7 12.1 C 127.1 12.5 129.4 12.5 126.5 12.7 C 126.7 12.8 127.8 12.7 127.8 12.8 C 128.9 12.6 130.0 12.5 129.7 12.3 C 131.0 12.2 131.4 12.1 132.2 12.0 C 131.9 12.1 131.4 12.2 130.3 12.3 C 130.1 12.5 130.6 12.6 132.3 12.5 C 133.0 12.2 132.5 12.1 132.2 11.9 C 132.2 11.9 132.2 11.9 132.2 11.9 Z M 125.8 12.7 C 125.5 12.7 125.1 12.6 125.2 12.5 C 124.2 12.3 124.8 12.9 123.9 12.9 C 123.2 13.0 123.4 12.8 123.3 12.8 C 122.2 12.9 121.3 13.0 120.7 13.0 C 119.0 13.3 122.7 13.0 123.3 13.1 C 124.5 13.0 124.1 12.8 125.8 12.7 C 125.8 12.7 125.8 12.7 125.8 12.7 Z M 107.0 14.4 C 106.6 14.2 106.0 14.6 105.2 14.7 C 105.8 14.9 107.6 14.5 106.4 14.9 C 108.2 14.8 108.4 14.8 110.2 14.5 C 111.3 14.6 110.2 14.3 108.3 14.6 C 108.5 14.5 109.3 14.4 109.5 14.2 C 110.7 14.6 113.8 13.5 111.9 14.0 C 111.4 14.0 111.0 14.0 110.7 13.9 C 110.3 14.2 106.1 14.6 107.0 14.4 C 107.0 14.4 107.0 14.4 107.0 14.4 Z M 48.6 28.1 C 50.3 27.5 51.1 27.2 52.0 26.9 C 52.9 26.6 54.1 26.1 55.1 25.8 C 55.2 25.9 55.1 26.0 54.7 26.1 C 55.2 26.1 55.8 25.8 56.7 25.5 C 56.6 25.4 56.2 25.6 56.2 25.7 C 54.5 26.0 55.9 25.6 56.0 25.3 C 54.0 25.7 50.9 27.3 49.3 27.5 C 48.1 28.1 49.6 27.6 48.6 28.1 C 48.6 28.1 48.6 28.1 48.6 28.1 Z M 306.5 66.9 C 306.5 67.1 306.2 67.7 306.4 67.7 C 306.6 67.1 306.7 66.7 306.9 66.1 C 306.4 67.2 306.2 66.9 305.5 68.2 C 305.9 67.8 306.1 68.1 306.5 66.9 C 306.5 66.9 306.5 66.9 306.5 66.9 Z M 113.2 13.7 C 113.3 13.8 113.4 13.9 112.6 14.0 C 112.4 14.3 114.4 13.9 114.5 14.1 C 115.1 14.0 114.9 13.9 115.7 13.8 C 115.4 13.7 113.8 13.9 114.4 13.6 C 115.0 13.5 115.0 13.6 115.1 13.6 C 116.4 13.4 114.4 13.5 113.2 13.7 C 113.2 13.7 113.2 13.7 113.2 13.7 Z M 219.3 15.4 C 218.4 15.3 219.2 15.5 219.9 15.6 C 218.1 15.6 220.9 16.2 221.0 16.5 C 220.2 16.1 217.8 15.9 217.4 15.8 C 216.7 15.7 217.5 16.0 215.5 15.8 C 215.7 16.1 217.9 16.2 217.4 15.9 C 217.9 16.3 220.0 16.2 219.7 16.5 C 222.5 17.0 223.1 16.9 223.4 16.7 C 220.7 16.4 222.2 16.1 219.8 15.9 C 219.9 15.8 220.6 15.9 221.0 16.0 C 220.9 15.8 219.9 15.6 219.3 15.4 C 219.3 15.4 219.3 15.4 219.3 15.4 Z M 152.9 11.3 C 151.5 11.3 151.6 11.5 151.6 11.7 C 152.2 11.6 153.1 11.6 154.2 11.6 C 154.0 11.5 152.2 11.6 152.9 11.3 C 152.9 11.3 152.9 11.3 152.9 11.3 Z M 209.4 14.4 C 209.3 14.3 208.8 14.3 208.8 14.3 C 207.2 14.2 206.9 14.0 206.3 13.8 C 205.5 13.7 205.8 14.0 205.7 14.1 C 207.2 14.0 206.8 14.3 208.8 14.5 C 208.7 14.4 208.9 14.4 209.4 14.4 C 209.4 14.4 209.4 14.4 209.4 14.4 Z M 166.6 11.5 C 165.8 11.5 166.2 11.5 166.6 11.5 C 165.7 11.8 163.0 11.5 162.0 11.6 C 161.9 11.8 165.2 11.8 161.4 11.9 C 162.1 12.1 165.5 11.9 167.2 12.0 C 166.8 12.2 164.5 12.2 164.6 12.5 C 166.6 12.3 168.9 12.3 169.2 11.9 C 166.3 11.8 167.3 11.6 166.6 11.5 C 166.6 11.5 166.6 11.5 166.6 11.5 Z M 169.8 11.7 C 169.6 11.5 169.0 11.7 167.9 11.6 C 169.5 12.0 170.5 11.9 173.7 12.0 C 173.7 12.0 173.7 11.9 173.7 11.9 C 174.4 11.9 175.1 11.9 175.7 11.9 C 172.9 11.6 172.2 11.7 169.2 11.7 C 169.1 11.7 169.4 11.7 169.8 11.7 C 169.8 11.7 169.8 11.7 169.8 11.7 Z M 85.5 18.2 C 86.3 18.2 87.0 18.2 88.4 18.0 C 88.3 17.8 87.4 17.8 85.5 18.2 C 85.5 18.2 85.5 18.2 85.5 18.2 Z M 211.8 14.9 C 213.5 14.9 210.2 14.7 211.2 15.0 C 212.5 15.3 214.0 15.6 214.2 15.8 C 216.7 15.8 211.5 15.1 211.8 14.9 C 211.8 14.9 211.8 14.9 211.8 14.9 Z M 200.6 14.2 C 199.9 14.1 199.9 13.7 200.6 14.0 C 202.4 14.2 199.1 13.7 201.9 14.0 C 200.7 13.8 198.1 13.4 196.8 13.5 C 196.9 13.7 199.3 13.8 199.3 14.0 C 199.4 14.1 199.1 14.0 198.7 14.0 C 198.9 14.2 199.5 14.1 200.6 14.2 C 200.6 14.2 200.6 14.2 200.6 14.2 Z M 191.1 13.0 C 192.2 13.2 193.4 13.4 195.6 13.6 C 194.2 13.3 193.4 13.0 191.1 13.0 C 191.1 13.0 191.1 13.0 191.1 13.0 Z M 301.7 47.7 C 300.9 46.9 301.4 47.8 301.4 47.9 C 302.2 48.8 302.3 48.7 302.9 49.7 C 302.9 49.2 302.0 48.5 301.7 47.7 C 301.7 47.7 301.7 47.7 301.7 47.7 Z M 303.9 51.1 C 303.9 51.2 304.7 52.4 304.6 52.6 C 305.4 53.1 305.2 54.5 305.5 54.3 C 305.5 54.6 305.6 54.9 305.8 55.4 C 305.9 54.3 304.7 52.1 303.9 51.1 C 303.9 51.1 303.9 51.1 303.9 51.1 Z M 180.1 12.8 C 178.4 12.7 180.6 13.2 178.9 13.1 C 178.7 13.2 182.1 13.4 180.1 13.4 C 182.7 13.7 179.9 12.9 180.1 12.8 C 180.1 12.8 180.1 12.8 180.1 12.8 Z M 148.4 12.7 C 148.5 12.6 146.1 12.8 145.2 12.8 C 145.2 12.8 146.0 12.8 146.5 12.8 C 146.2 12.9 145.9 13.0 145.2 13.0 C 145.7 13.2 147.5 12.8 148.4 12.7 C 148.4 12.7 148.4 12.7 148.4 12.7 Z M 183.6 8.8 C 184.7 9.1 186.1 9.4 186.8 9.1 C 188.0 9.4 186.1 9.3 187.5 9.5 C 189.3 9.5 188.4 9.7 191.3 9.8 C 190.8 10.1 192.9 10.2 193.3 10.4 C 192.1 10.4 190.6 10.0 190.0 10.2 C 191.0 10.3 190.4 10.5 190.0 10.3 C 188.1 10.0 192.4 10.1 190.0 9.8 C 189.3 10.1 185.9 9.3 183.6 9.2 C 184.5 9.0 181.9 8.8 183.6 8.8 C 183.6 8.8 183.6 8.8 183.6 8.8 Z M 195.2 10.1 C 196.7 10.2 197.5 10.8 197.1 10.7 C 197.1 10.6 195.3 10.5 195.1 10.6 C 195.6 10.6 195.9 10.7 195.8 10.7 C 192.9 10.4 194.0 10.3 193.3 10.1 C 194.8 10.1 195.3 10.3 195.8 10.2 C 195.5 10.2 195.1 10.2 195.2 10.1 C 195.2 10.1 195.2 10.1 195.2 10.1 Z M 227.4 18.1 C 227.2 18.0 226.8 18.1 226.2 18.0 C 226.2 17.6 223.1 17.6 222.7 17.4 C 223.4 17.4 225.0 17.6 225.7 17.6 C 224.9 17.4 224.7 17.3 223.9 17.3 C 224.1 17.1 225.8 17.4 226.3 17.3 C 226.5 17.5 227.3 17.4 227.5 17.6 C 225.2 17.3 228.8 18.4 227.4 18.1 C 227.4 18.1 227.4 18.1 227.4 18.1 Z M 165.3 12.7 C 165.1 13.0 167.8 13.6 165.3 13.8 C 164.7 13.6 164.4 13.4 164.6 13.1 C 163.0 13.2 162.3 13.0 161.4 13.2 C 158.4 12.5 163.7 13.3 165.3 12.7 C 165.3 12.7 165.3 12.7 165.3 12.7 Z M 154.9 12.9 C 155.4 12.7 154.0 12.8 154.2 12.6 C 155.5 12.7 159.5 12.5 158.2 12.6 C 156.8 12.7 156.8 12.9 154.9 12.9 C 154.9 12.9 154.9 12.9 154.9 12.9 Z M 80.7 102.4 C 78.8 102.2 78.0 101.6 79.1 101.7 C 78.6 101.8 81.4 102.3 80.7 102.4 C 80.7 102.4 80.7 102.4 80.7 102.4 Z M 12.1 74.3 C 12.9 75.7 13.6 76.3 13.6 76.6 C 12.5 75.4 12.8 75.5 12.0 74.4 C 11.9 74.4 11.3 73.8 11.3 73.6 C 11.8 74.2 11.8 74.0 12.1 74.3 C 12.1 74.3 12.1 74.3 12.1 74.3 Z M 115.3 9.5 C 115.1 9.4 114.4 9.4 114.6 9.2 C 116.6 9.1 118.7 8.7 120.3 8.4 C 120.3 8.5 120.4 8.6 120.4 8.8 C 117.3 8.9 116.5 9.2 115.3 9.5 C 115.3 9.5 115.3 9.5 115.3 9.5 Z M 111.4 9.4 C 111.1 9.6 112.2 9.8 110.9 9.9 C 110.9 9.7 108.5 9.7 109.6 9.6 C 110.0 9.7 110.6 9.6 111.4 9.4 C 111.4 9.4 111.4 9.4 111.4 9.4 Z M 219.7 12.2 C 221.2 12.4 219.1 11.9 219.2 11.8 C 220.2 12.0 221.7 12.2 222.2 12.4 C 221.1 12.2 220.3 12.5 219.7 12.2 C 219.7 12.2 219.7 12.2 219.7 12.2 Z M 196.5 10.1 C 193.2 9.9 194.6 9.6 191.4 9.2 C 192.7 9.2 195.7 9.5 196.5 9.3 C 196.4 9.5 197.2 9.6 197.1 9.7 C 196.0 9.6 195.8 9.5 194.6 9.4 C 195.0 9.7 195.0 9.6 194.6 9.8 C 195.4 9.9 196.0 9.9 196.5 9.9 C 196.2 10.0 197.4 10.2 196.5 10.1 C 196.5 10.1 196.5 10.1 196.5 10.1 Z M 219.0 12.8 C 220.3 12.9 221.3 13.4 220.2 13.2 C 220.1 13.0 219.2 13.1 219.0 12.9 C 220.8 13.1 217.6 12.6 218.5 12.5 C 219.5 12.7 219.9 12.7 219.7 12.5 C 220.4 12.6 221.5 12.7 221.5 12.8 C 221.0 12.8 220.3 12.6 220.3 12.7 C 220.7 12.8 221.0 12.8 220.9 12.9 C 219.8 12.7 219.3 12.7 219.0 12.8 C 219.0 12.8 219.0 12.8 219.0 12.8 Z M 210.4 11.6 C 212.1 11.9 212.3 12.1 212.8 12.3 C 210.6 12.0 210.2 11.6 208.5 11.2 C 210.4 11.5 212.3 11.5 212.9 11.7 C 212.1 11.7 210.5 11.5 210.4 11.6 C 210.4 11.6 210.4 11.6 210.4 11.6 Z M 243.1 103.1 C 241.8 103.3 240.6 103.4 239.1 103.6 C 238.6 104.0 241.5 103.8 240.3 103.9 C 238.8 104.3 239.7 103.7 238.5 104.0 C 239.8 104.0 233.1 105.4 232.7 105.1 C 233.8 104.9 234.1 104.8 233.8 104.6 C 236.6 104.2 237.6 103.7 239.6 103.2 C 241.1 103.2 245.3 102.4 247.4 101.5 C 249.0 101.6 251.5 100.5 253.5 100.3 C 254.0 100.0 251.8 100.5 253.5 100.0 C 254.6 100.0 253.8 100.3 255.2 100.0 C 255.3 99.9 254.9 99.8 255.6 99.6 C 255.6 99.7 256.5 99.5 256.8 99.5 C 253.9 100.3 257.1 99.8 254.8 100.5 C 253.8 100.6 255.7 99.8 253.0 100.5 C 252.1 100.8 251.2 101.1 251.5 101.3 C 250.8 101.5 250.3 101.7 249.9 101.8 C 250.8 101.3 246.1 102.9 248.2 102.0 C 248.4 102.0 249.9 101.6 250.9 101.2 C 249.9 101.2 248.7 101.7 247.0 102.2 C 246.3 102.2 247.3 101.9 246.4 102.0 C 245.1 102.5 247.0 102.3 246.0 102.6 C 246.4 102.5 247.1 102.4 247.1 102.4 C 244.7 102.8 243.8 103.2 242.6 103.5 C 243.4 103.2 241.2 103.6 243.1 103.1 C 243.1 103.1 243.1 103.1 243.1 103.1 Z M 262.5 97.6 C 263.0 97.4 263.5 97.3 264.0 97.1 C 264.2 97.3 262.2 98.0 263.6 97.7 C 261.4 98.4 263.6 97.4 262.5 97.6 C 262.5 97.6 262.5 97.6 262.5 97.6 Z M 251.7 99.8 C 250.9 99.7 251.4 100.2 250.7 100.4 C 252.0 100.0 253.2 99.6 253.4 99.8 C 251.9 100.2 251.2 100.3 249.6 100.8 C 251.1 100.1 247.8 101.0 247.3 100.8 C 248.5 100.5 249.4 100.1 251.1 99.7 C 250.8 99.9 253.2 99.3 251.7 99.8 C 251.7 99.8 251.7 99.8 251.7 99.8 Z M 255.9 98.3 C 256.3 98.4 258.5 97.6 258.1 98.0 C 256.7 98.4 256.2 98.6 256.6 98.7 C 255.5 99.0 255.4 99.0 254.4 99.2 C 253.8 99.1 255.4 98.7 255.9 98.4 C 255.6 98.5 255.3 98.5 255.9 98.3 C 255.9 98.3 255.9 98.3 255.9 98.3 Z M 300.0 74.9 C 300.5 74.7 298.9 76.1 298.6 76.3 C 299.2 76.1 299.1 76.4 298.1 77.3 C 298.3 76.7 296.8 78.2 295.5 78.7 C 295.4 79.1 296.9 78.1 295.3 79.4 C 294.0 80.3 292.9 81.2 290.8 82.6 C 290.1 82.7 291.1 82.1 291.6 81.6 C 290.2 82.6 290.5 82.2 289.3 82.9 C 289.6 82.8 288.7 83.5 288.2 83.6 C 290.2 82.3 285.3 84.9 287.4 83.6 C 287.6 83.6 288.1 83.3 288.6 82.9 C 288.2 83.6 290.9 81.8 291.5 81.5 C 292.3 80.4 295.0 78.8 297.6 76.8 C 297.8 76.8 297.1 77.5 297.7 77.0 C 297.8 76.8 298.5 76.1 298.8 75.8 C 298.9 75.9 299.2 75.7 299.7 75.3 C 299.7 75.2 299.7 75.1 300.0 74.9 C 300.0 74.9 300.0 74.9 300.0 74.9 Z M 139.9 108.5 C 140.1 108.1 135.9 108.2 134.8 108.2 C 135.0 107.8 142.3 108.2 139.9 108.5 C 139.9 108.5 139.9 108.5 139.9 108.5 Z M 165.2 108.6 C 164.2 108.6 164.9 108.9 164.0 108.9 C 163.9 108.6 161.4 109.2 161.4 108.9 C 162.6 108.7 163.3 108.7 165.2 108.6 C 165.2 108.6 165.2 108.6 165.2 108.6 Z M 188.5 107.8 C 186.7 108.0 189.5 107.9 189.2 108.0 C 187.6 108.1 185.9 108.2 186.0 108.0 C 187.4 108.0 188.3 107.6 188.5 107.8 C 188.5 107.8 188.5 107.8 188.5 107.8 Z M 153.6 108.4 C 152.0 108.3 154.6 108.0 154.9 108.2 C 153.1 108.2 156.0 108.4 157.4 108.3 C 157.4 108.6 156.7 108.6 157.4 108.8 C 155.2 108.9 157.1 108.5 155.5 108.6 C 154.4 108.7 155.5 108.7 155.5 108.9 C 154.8 108.9 154.2 108.9 153.6 108.9 C 153.6 108.7 153.6 108.6 153.6 108.5 C 154.3 108.5 155.1 108.5 154.9 108.3 C 154.2 108.3 154.1 108.4 153.6 108.4 C 153.6 108.4 153.6 108.4 153.6 108.4 Z M 268.8 92.0 C 267.5 92.5 268.7 92.2 269.7 91.9 C 269.9 91.7 270.5 91.0 272.0 90.7 C 269.0 92.1 273.1 90.6 271.4 91.4 C 270.6 91.5 268.8 92.5 267.2 93.0 C 266.5 93.0 268.0 92.1 268.8 92.0 C 268.8 92.0 268.8 92.0 268.8 92.0 Z M 274.5 90.0 C 274.4 90.0 273.8 90.2 272.9 90.6 C 273.8 90.0 272.4 90.5 273.6 90.0 C 273.5 90.1 277.6 88.5 275.2 89.6 C 273.1 90.3 275.9 89.4 276.8 89.1 C 275.8 89.5 274.0 90.5 273.7 90.4 C 274.3 90.2 274.7 90.0 274.5 90.0 C 274.5 90.0 274.5 90.0 274.5 90.0 Z M 304.7 67.4 C 304.6 67.2 304.3 67.8 304.1 67.9 C 305.1 66.2 305.6 64.7 305.8 63.9 C 305.6 64.7 305.8 64.7 306.0 64.3 C 305.7 65.2 305.7 65.4 305.5 65.7 C 305.6 64.9 305.2 66.3 304.7 67.4 C 304.7 67.4 304.7 67.4 304.7 67.4 Z M 304.7 67.4 " fill="#000000"></path><image xlink:href="../../CEFA4209-80C9-472B-8D2B-058B96531B72/assets/53E6508B25B01044F238EBC363154AD9.png" width="89.00" height="38.00" transform="matrix(1.00, 0.00, -0.00, -1.00, 117.0, 75.0)"></image><g><clipPath id="clip-886"><path d="M 10.7 10.4 L 308.8 10.4 L 308.8 110.4 L 10.7 110.4 Z M 10.7 10.4 "></path></clipPath><g clip-path="url(#clip-886)"><text xml:space="preserve" font-family="Chalkduster" font-size="32.0" fill="#000000" transform="matrix(1.00, 0.00, -0.00, -1.00, 120.0, 46.0)">W</text><text xml:space="preserve" font-family="Chalkduster" font-size="32.0" fill="#000000" transform="matrix(1.00, 0.00, -0.00, -1.00, 149.0, 46.0)">G</text><text xml:space="preserve" font-family="Chalkduster" font-size="32.0" fill="#000000" transform="matrix(1.00, 0.00, -0.00, -1.00, 184.5, 46.0)">S</text></g></g></g></svg>