<?xml version="1.0" encoding="UTF-8" standalone="no"?><svg xmlns="http://www.w3.org/2000/svg" xmlns:xlink="http://www.w3.org/1999/xlink" clip-rule="evenodd" stroke-miterlimit="4.00" viewBox="0 0 319 121"><desc>SVG generated by Keynote</desc><defs></defs><g transform="matrix(1.00, 0.00, -0.00, -1.00, 0.0, 121.0)"><image xlink:href="../../CEFA4209-80C9-472B-8D2B-058B96531B72/assets/C96CBBF2F715F6E2E3B6F8A701A0292F.png" width="316.00" height="118.00" transform="matrix(1.00, 0.00, -0.00, -1.00, 1.0, 120.0)" opacity="0.50"></image><g><clipPath id="clip-888"><path d="M 264.5 96.4 C 322.7 76.8 322.7 45.2 264.5 25.6 C 206.3 6.1 111.9 6.1 53.7 25.6 C -4.5 45.2 -4.5 76.8 53.7 96.4 C 111.9 115.9 206.3 115.9 264.5 96.4 Z M 264.5 96.4 "></path></clipPath><g clip-path="url(#clip-888)"><image xlink:href="../../CEFA4209-80C9-472B-8D2B-058B96531B72/assets/59DBD66EA15A3D40E065F836EF2595FD.jpeg" width="400.00" height="400.00" transform="matrix(1.00, 0.00, -0.00, -1.00, 10.0, 111.0)"></image></g></g><path d="M 80.9 14.5 C 80.5 14.6 80.0 14.7 79.2 14.9 C 79.5 14.9 79.8 14.9 79.8 15.0 C 80.5 14.8 81.4 14.6 82.7 14.3 C 82.7 14.3 82.0 14.4 81.5 14.5 C 81.0 14.6 81.1 14.5 80.9 14.5 C 80.9 14.5 80.9 14.5 80.9 14.5 Z M 72.4 105.1 C 71.3 104.8 72.5 105.3 72.9 105.5 C 73.0 105.4 73.1 105.4 73.5 105.5 C 73.6 105.7 72.6 105.6 71.8 105.4 C 68.7 104.6 71.1 104.8 72.4 105.1 C 72.4 105.1 72.4 105.1 72.4 105.1 Z M 240.6 106.1 C 243.1 105.6 240.4 105.9 240.0 105.9 C 241.1 105.6 240.1 105.4 241.6 105.1 C 241.9 105.1 242.5 105.1 242.8 105.1 C 242.1 105.3 241.1 105.5 241.1 105.6 C 242.0 105.4 243.2 105.1 243.4 105.2 C 241.4 105.7 243.1 105.5 243.4 105.6 C 241.7 105.9 241.2 106.3 240.6 106.1 C 240.6 106.1 240.6 106.1 240.6 106.1 Z M 281.0 29.3 C 282.0 29.7 282.7 30.1 282.4 30.1 C 281.5 29.6 280.8 29.3 280.3 29.0 C 280.1 29.0 280.3 29.3 279.4 28.9 C 278.5 28.2 279.1 28.2 279.7 28.3 C 279.7 28.5 283.0 30.0 281.0 29.3 C 281.0 29.3 281.0 29.3 281.0 29.3 Z M 211.6 11.9 C 209.3 11.5 211.5 12.2 209.1 11.8 C 209.2 11.6 208.9 11.3 210.5 11.5 C 210.6 11.6 211.5 11.8 211.6 11.9 C 211.6 11.9 211.6 11.9 211.6 11.9 Z M 169.8 112.2 C 169.8 112.3 171.6 112.2 171.2 112.5 C 170.3 112.5 169.5 112.5 168.6 112.5 C 168.4 112.4 168.7 112.2 169.8 112.2 C 169.8 112.2 169.8 112.2 169.8 112.2 Z M 256.6 99.7 C 259.1 99.3 261.5 98.1 260.8 98.6 C 261.8 98.5 259.3 99.8 259.3 99.5 C 259.0 99.3 254.7 100.3 256.6 99.7 C 256.6 99.7 256.6 99.7 256.6 99.7 Z M 86.5 103.8 C 89.2 104.5 88.8 103.8 90.6 104.4 C 90.0 104.3 89.7 104.3 89.4 104.4 C 89.9 104.5 90.6 104.6 90.5 104.6 C 89.2 104.4 87.6 104.2 86.5 103.8 C 86.5 103.8 86.5 103.8 86.5 103.8 Z M 122.9 9.2 C 123.4 9.1 123.6 9.0 123.6 8.9 C 125.6 8.8 125.5 8.6 126.8 8.7 C 126.9 9.0 125.2 9.0 123.6 9.1 C 123.5 9.2 123.0 9.2 122.9 9.2 C 122.9 9.2 122.9 9.2 122.9 9.2 Z M 180.4 9.1 C 180.3 8.9 179.1 8.8 181.0 8.8 C 183.2 9.2 181.3 9.3 179.0 9.3 C 179.0 9.4 179.0 9.5 179.0 9.7 C 179.9 9.7 180.5 9.8 181.0 9.8 C 181.4 9.5 182.8 10.2 186.2 10.2 C 184.6 10.3 186.3 10.6 184.2 10.4 C 184.7 10.6 183.3 10.5 183.5 10.8 C 184.4 10.7 186.6 10.8 186.1 10.5 C 187.3 10.6 188.2 10.7 188.7 10.8 C 189.5 11.1 186.6 10.7 187.4 11.0 C 188.1 11.0 188.2 11.1 188.7 11.1 C 188.8 11.1 188.6 10.9 189.3 11.0 C 191.4 11.2 188.9 11.2 191.9 11.5 C 192.1 11.3 191.2 11.2 191.3 11.1 C 192.6 11.0 192.5 11.2 193.8 11.2 C 194.1 11.4 192.9 11.3 193.8 11.4 C 194.7 11.1 196.5 11.9 198.3 11.7 C 197.1 11.1 198.6 11.9 200.3 11.5 C 200.6 11.7 199.4 11.9 200.8 12.1 C 200.4 11.4 206.1 12.1 201.5 11.2 C 204.0 11.4 204.8 11.0 202.9 10.7 C 207.1 11.3 205.8 10.8 207.4 11.0 C 208.9 11.2 206.5 11.0 207.3 11.3 C 205.6 11.1 206.0 11.3 204.8 11.0 C 204.8 11.1 204.5 11.2 204.1 11.2 C 205.8 11.2 207.8 11.8 206.6 11.9 C 205.7 11.8 206.5 11.6 205.4 11.5 C 205.8 11.9 204.1 11.3 204.1 11.5 C 204.8 11.9 202.3 11.9 204.7 12.2 C 204.7 12.1 204.7 12.0 204.7 11.8 C 205.3 11.9 205.9 12.0 206.6 12.0 C 207.1 12.3 206.6 12.4 207.2 12.6 C 208.2 12.7 208.8 12.7 209.1 12.6 C 207.8 12.4 206.3 12.0 208.4 12.2 C 207.6 12.6 211.4 12.7 209.7 12.8 C 212.0 13.2 213.2 13.0 213.4 13.3 C 214.6 13.5 213.8 13.1 215.3 13.3 C 217.5 13.9 217.1 13.5 220.1 14.1 C 220.6 13.8 220.4 14.2 221.4 14.4 C 221.4 14.3 221.4 14.1 221.4 14.0 C 222.5 14.4 224.9 14.9 227.4 15.0 C 228.0 15.2 227.5 15.4 229.2 15.6 C 231.0 15.6 233.0 16.3 235.1 16.4 C 235.2 16.6 236.6 16.9 237.4 16.9 C 237.7 17.1 236.6 17.2 237.9 17.4 C 238.8 17.4 237.3 17.0 239.1 17.3 C 238.9 17.5 240.8 17.5 240.8 17.7 C 240.3 17.7 239.6 17.6 239.1 17.6 C 239.8 17.8 239.6 17.9 240.2 18.0 C 240.2 17.7 241.5 18.2 241.9 18.4 C 241.9 18.2 242.1 18.2 242.5 18.2 C 243.5 18.4 244.3 18.6 244.8 18.6 C 246.0 19.1 244.0 18.7 245.3 19.0 C 246.0 18.5 247.1 19.5 249.8 19.8 C 250.3 20.1 251.4 20.5 253.0 21.0 C 253.2 20.8 251.4 20.5 251.4 20.3 C 253.8 21.0 251.0 20.0 252.6 20.4 C 255.9 21.5 258.1 22.1 261.4 23.3 C 261.4 23.2 264.1 23.9 264.0 23.9 C 263.7 23.8 264.0 24.0 264.6 24.3 C 265.1 24.5 266.7 25.1 267.6 25.5 C 268.2 25.3 271.2 26.0 271.4 25.9 C 272.0 26.3 271.8 26.2 272.0 26.7 C 275.1 28.0 276.7 28.3 278.3 29.4 C 278.2 29.2 279.6 29.7 280.7 30.2 C 280.3 30.2 279.6 30.0 279.0 29.9 C 280.4 30.5 280.6 30.7 281.9 31.3 C 283.4 31.3 285.0 33.1 286.2 33.0 C 288.1 34.0 287.6 34.0 289.2 35.0 C 289.2 34.8 289.5 34.8 290.0 35.0 C 288.9 34.5 288.0 34.2 287.5 33.6 C 290.0 34.9 283.0 30.4 287.3 32.4 C 287.4 32.6 286.9 32.5 287.8 33.0 C 290.2 34.2 288.9 33.3 288.0 32.8 C 289.6 33.5 291.1 34.5 290.0 33.6 C 293.5 35.5 291.3 34.4 292.3 35.2 C 298.3 38.8 304.3 43.6 307.6 49.6 C 308.0 49.6 309.3 53.0 309.5 54.1 C 310.4 55.6 310.8 57.5 310.6 58.1 C 310.9 58.3 310.6 60.2 310.9 60.4 C 310.8 59.6 310.9 59.1 311.0 59.9 C 311.0 62.4 310.2 66.1 309.9 67.6 C 309.3 68.4 308.7 70.0 308.3 71.1 C 308.1 71.2 308.5 70.4 308.1 71.0 C 308.1 71.3 306.9 73.6 306.4 74.1 C 306.9 73.4 307.1 72.5 306.4 73.5 C 306.5 73.6 305.7 74.7 306.1 74.5 C 304.9 75.8 304.4 76.7 303.3 77.8 C 304.1 76.8 304.5 76.2 304.5 75.9 C 303.9 76.8 303.4 77.5 302.7 77.9 C 303.1 78.0 301.7 79.1 300.4 80.5 C 300.0 80.8 299.6 81.0 298.4 81.9 C 297.9 82.6 300.4 80.6 299.1 81.8 C 299.0 81.7 297.6 82.6 298.1 82.6 C 296.4 83.8 295.5 84.6 293.9 85.5 C 295.9 84.2 294.2 84.9 293.7 85.2 C 293.3 85.5 292.6 85.9 292.6 86.0 C 292.7 86.1 293.7 85.4 293.8 85.4 C 292.4 86.2 292.2 86.8 291.6 86.9 C 292.2 86.6 292.2 86.4 291.5 86.8 C 291.5 87.3 286.9 89.6 288.4 88.5 C 288.4 88.6 290.1 87.6 290.3 87.5 C 289.7 87.6 287.2 89.2 287.6 88.7 C 289.1 87.8 289.1 88.0 290.8 87.0 C 290.9 86.7 291.8 86.1 292.4 85.6 C 289.8 87.2 289.3 87.8 288.8 87.8 C 287.6 88.5 288.5 88.3 286.3 89.4 C 283.2 90.9 285.6 89.4 284.8 89.7 C 282.1 91.3 283.1 91.1 284.4 90.7 C 282.2 91.9 281.6 92.3 278.6 93.5 C 278.7 93.3 279.1 93.1 280.1 92.6 C 280.2 92.6 282.6 91.7 282.3 91.6 C 281.9 91.4 280.0 92.2 276.8 93.5 C 277.7 93.5 277.8 93.2 274.5 94.6 C 275.2 94.7 272.9 95.2 272.9 95.4 C 273.1 95.4 274.3 95.0 275.4 94.5 C 275.4 94.7 275.0 94.9 273.9 95.4 C 273.2 95.6 272.7 96.0 270.6 96.6 C 270.3 96.5 271.8 95.9 272.1 95.6 C 270.9 96.1 270.7 96.3 269.6 96.7 C 268.5 96.9 268.4 96.6 268.4 96.2 C 269.7 95.7 271.8 94.9 270.1 95.4 C 275.0 93.5 270.0 95.8 271.9 95.1 C 273.8 94.0 272.9 94.9 275.9 93.6 C 276.8 93.2 277.1 93.0 277.4 92.8 C 277.2 92.8 275.4 93.3 277.3 92.5 C 277.8 92.4 278.9 92.1 280.4 91.4 C 280.4 91.3 277.3 92.6 280.3 91.2 C 281.8 90.6 280.6 91.5 282.6 90.5 C 282.6 90.4 283.1 90.1 283.2 90.0 C 280.4 91.4 283.7 89.6 281.7 90.4 C 284.1 89.1 282.3 90.4 283.8 89.6 C 283.8 89.4 286.5 88.4 286.4 88.1 C 285.5 88.7 283.5 89.7 283.7 89.3 C 285.5 88.5 292.8 84.0 290.2 86.0 C 291.1 85.2 295.7 81.7 295.4 82.1 C 294.1 83.1 294.2 83.2 294.1 83.5 C 296.6 81.4 297.9 80.6 299.9 78.3 C 297.5 80.5 299.0 78.5 297.4 79.7 C 296.7 80.3 295.6 81.0 295.5 81.2 C 296.0 81.2 297.1 80.2 297.4 79.7 C 297.5 79.9 297.7 80.1 297.8 80.2 C 294.7 82.5 292.9 84.0 291.1 85.0 C 292.6 84.0 288.0 86.4 289.8 85.3 C 290.6 85.0 292.4 83.9 293.8 83.0 C 293.7 82.9 293.7 82.9 293.6 82.8 C 294.2 82.4 295.1 81.8 295.1 81.7 C 293.3 83.0 292.1 83.5 290.9 84.6 C 290.8 84.5 290.8 84.5 290.8 84.4 C 290.4 84.6 290.1 84.8 290.2 84.7 C 290.8 84.3 291.8 83.7 291.8 83.6 C 290.4 84.5 290.0 84.4 288.2 85.4 C 288.5 84.9 286.0 86.0 288.5 84.4 C 289.0 84.4 290.4 83.7 290.4 83.8 C 291.1 83.5 292.5 82.5 293.1 81.9 C 292.3 82.3 290.9 83.1 290.7 83.0 C 291.8 82.2 292.6 81.5 293.3 81.3 C 291.2 82.9 294.6 80.6 295.5 80.2 C 295.2 80.3 294.7 80.6 294.4 80.7 C 296.0 79.5 296.7 79.1 296.6 78.8 C 298.3 77.2 298.1 77.8 299.1 76.7 C 298.2 77.2 299.7 75.9 298.8 76.4 C 300.5 74.6 299.5 76.1 300.1 75.5 C 300.6 74.9 300.6 74.8 301.0 74.3 C 301.8 73.6 303.0 72.0 303.4 72.0 C 303.9 71.3 304.1 71.2 304.5 70.5 C 304.5 70.3 304.6 70.0 304.7 69.7 C 304.8 69.6 305.2 69.2 305.2 69.0 C 303.9 70.7 304.2 70.2 302.6 72.0 C 302.6 72.2 302.4 72.5 302.8 72.1 C 301.8 73.5 301.4 73.8 300.3 75.0 C 300.0 75.0 299.6 75.0 298.6 76.2 C 298.7 75.8 298.4 76.0 298.7 75.5 C 299.4 75.1 300.2 74.4 301.0 73.6 C 300.9 73.5 300.7 73.5 301.1 73.1 C 301.5 72.8 302.0 72.2 302.3 71.7 C 302.4 71.8 302.3 72.0 302.2 72.2 C 303.6 70.5 302.9 70.9 303.8 69.7 C 303.5 69.8 303.0 70.6 303.3 69.8 C 304.0 68.6 304.2 68.4 304.6 67.8 C 304.6 67.7 304.5 67.7 304.6 67.4 C 305.1 66.6 304.2 69.5 305.2 68.1 C 305.0 67.9 305.7 66.4 305.9 66.2 C 305.9 66.8 305.3 67.6 305.4 67.7 C 306.6 65.0 306.0 67.8 306.9 64.9 C 306.8 64.9 306.7 64.9 306.6 64.8 C 306.3 66.0 306.1 66.0 305.9 65.8 C 305.5 66.8 305.1 67.1 304.9 67.9 C 304.6 67.4 305.2 67.1 305.6 66.1 C 305.4 66.1 305.0 67.0 304.7 67.0 C 305.9 64.9 305.6 64.3 306.2 62.2 C 305.8 62.7 306.2 61.1 306.0 61.2 C 306.0 63.0 305.3 62.2 305.2 62.5 C 305.1 63.6 305.6 63.2 305.6 63.9 C 305.3 64.2 305.2 64.0 304.9 63.8 C 305.2 62.8 305.1 62.9 305.1 62.1 C 305.3 61.5 305.8 60.9 305.9 61.8 C 305.8 61.6 305.7 60.3 305.9 60.2 C 305.9 61.5 306.0 60.0 306.1 60.8 C 306.3 59.8 305.7 58.0 305.6 56.6 C 305.5 56.8 305.3 56.3 305.2 56.4 C 305.8 57.6 305.3 58.0 305.5 59.2 C 305.4 58.6 305.3 59.0 305.2 59.2 C 305.2 58.0 304.8 57.4 304.8 56.5 C 304.7 56.5 304.6 56.6 304.6 56.6 C 304.3 55.1 304.3 55.3 303.6 54.3 C 303.5 53.8 304.1 54.2 304.4 54.3 C 304.1 53.8 303.0 51.7 303.4 53.0 C 302.8 51.8 303.3 52.0 302.4 50.7 C 302.2 50.9 302.9 52.0 302.4 51.7 C 301.6 50.7 302.3 51.1 301.5 50.3 C 301.6 50.2 301.8 50.0 301.0 49.0 C 301.4 49.8 300.8 49.0 300.5 48.8 C 300.8 49.3 301.1 49.7 301.2 50.0 C 299.9 48.2 299.6 47.8 298.1 46.5 C 298.8 46.8 298.0 45.9 299.1 46.8 C 298.1 46.0 297.1 44.7 296.4 44.3 C 297.0 45.0 298.0 45.9 298.2 46.3 C 295.2 43.5 293.1 42.3 289.6 39.6 C 290.2 40.0 291.0 40.6 291.2 40.6 C 290.8 40.3 290.1 39.9 290.2 39.8 C 291.5 40.7 292.6 41.5 293.3 41.9 C 294.3 42.7 292.6 41.6 293.6 42.4 C 293.9 42.4 295.7 44.0 295.2 43.2 C 293.4 42.1 291.7 40.6 291.0 39.7 C 288.9 38.9 290.7 40.0 288.3 39.1 C 288.5 39.0 288.0 38.6 287.3 38.2 C 287.8 38.9 285.1 37.2 284.8 37.0 C 286.0 37.4 290.0 39.6 288.1 38.1 C 288.7 39.2 283.5 35.4 284.4 36.4 C 281.7 35.0 282.8 35.2 281.1 34.7 C 281.0 34.6 281.3 34.5 280.5 34.1 C 279.7 33.8 279.4 33.7 279.0 33.6 C 283.2 35.7 281.8 35.4 284.2 36.7 C 283.8 36.5 283.4 36.3 283.5 36.4 C 283.5 36.5 283.4 36.5 282.8 36.2 C 282.8 35.8 280.7 35.2 280.2 34.7 C 281.0 35.1 281.8 35.5 281.6 35.2 C 278.3 33.6 279.1 33.6 273.9 31.3 C 275.4 32.1 273.3 31.3 271.4 30.6 C 268.8 29.5 270.0 29.5 266.6 28.4 C 266.6 28.7 265.8 28.4 264.3 27.8 C 262.8 27.3 262.1 27.0 260.9 26.8 C 261.2 26.5 258.1 25.5 257.4 25.5 C 257.3 25.4 256.1 25.1 255.3 24.8 C 255.1 24.7 256.1 24.9 255.4 24.6 C 254.6 24.5 255.2 24.9 254.3 24.6 C 253.2 24.3 253.4 24.0 251.7 23.6 C 251.6 23.8 252.6 24.0 251.6 23.9 C 250.2 23.4 248.8 23.1 250.0 23.6 C 247.7 23.1 248.9 22.9 246.8 22.4 C 247.4 22.7 247.3 22.8 246.2 22.5 C 245.5 22.1 245.4 22.0 245.2 21.9 C 244.5 21.9 244.7 22.0 242.9 21.5 C 242.9 21.6 242.9 21.7 242.9 21.8 C 242.0 21.6 240.8 21.4 240.6 21.2 C 242.2 21.6 241.8 21.3 242.4 21.4 C 240.9 21.0 238.0 20.1 240.1 20.9 C 238.0 20.5 239.1 20.4 237.4 20.1 C 238.4 20.6 237.4 20.2 235.6 19.8 C 235.7 20.2 234.4 19.6 233.3 19.5 C 233.4 19.7 233.1 19.7 232.1 19.6 C 232.2 19.4 231.5 19.3 230.4 19.1 C 230.4 19.2 232.8 19.8 230.3 19.3 C 229.2 19.0 229.3 18.7 227.4 18.4 C 227.1 18.1 229.1 18.5 228.7 18.2 C 227.2 18.2 226.8 17.9 224.6 17.5 C 225.3 18.1 220.0 17.4 222.6 18.0 C 221.9 17.9 220.8 18.0 220.2 17.7 C 221.0 17.8 219.6 17.3 219.7 17.3 C 218.6 17.2 216.1 16.7 216.1 16.9 C 218.4 17.1 218.3 17.3 219.0 17.6 C 215.6 17.2 212.7 16.8 212.9 16.5 C 212.9 16.6 212.5 16.5 212.3 16.6 C 213.5 16.7 214.3 17.2 212.9 17.1 C 213.2 16.9 212.2 16.7 211.1 16.4 C 211.0 16.7 206.6 15.8 207.4 16.2 C 209.2 16.2 210.6 16.8 209.2 16.8 C 208.1 16.4 205.6 16.0 206.2 15.9 C 205.5 15.9 204.9 15.9 204.3 15.9 C 203.7 16.1 205.1 16.2 204.8 16.4 C 203.9 16.2 202.5 16.1 202.4 16.0 C 204.9 16.2 201.1 15.7 203.7 15.8 C 202.1 15.7 201.7 15.5 200.5 15.3 C 200.5 15.4 200.0 15.4 199.9 15.4 C 201.0 15.4 202.1 15.6 201.8 15.9 C 199.5 15.7 199.9 15.4 198.0 15.3 C 197.4 15.4 194.8 15.5 193.5 15.2 C 196.1 15.4 193.3 15.1 194.8 15.1 C 197.1 15.4 197.7 15.2 198.6 15.1 C 197.7 14.9 195.7 14.6 195.5 14.9 C 196.7 15.0 196.7 14.9 197.4 14.9 C 197.3 15.0 196.9 15.1 196.1 15.1 C 195.0 14.8 192.7 14.8 194.3 14.6 C 192.6 14.6 190.9 14.3 189.2 14.3 C 191.0 14.5 192.4 14.7 192.9 14.9 C 191.4 14.9 189.8 14.5 189.8 14.7 C 189.9 14.9 192.4 15.0 192.9 15.2 C 190.9 15.3 187.9 14.4 190.4 15.1 C 189.2 15.0 187.7 14.9 187.2 14.7 C 188.6 14.8 187.1 14.4 186.5 14.3 C 185.3 14.2 184.4 14.2 184.0 14.3 C 185.8 14.3 187.1 14.7 185.9 14.7 C 185.6 14.5 185.2 14.7 184.6 14.7 C 184.5 14.5 182.4 14.5 182.1 14.4 C 182.2 14.5 183.1 14.6 183.3 14.7 C 182.1 14.7 180.4 15.0 179.5 14.6 C 180.2 14.6 181.3 14.7 181.4 14.6 C 178.1 14.1 177.0 13.7 173.1 13.4 C 173.6 13.4 173.8 13.4 173.7 13.3 C 171.2 13.2 169.5 13.0 169.8 12.9 C 168.3 12.9 167.4 13.0 166.6 13.1 C 168.3 13.3 168.8 13.1 169.8 13.3 C 169.2 13.3 171.1 13.8 171.8 14.0 C 174.6 13.8 174.7 14.2 177.6 14.2 C 176.7 14.4 179.6 14.3 178.8 14.5 C 176.2 14.0 173.7 14.2 169.8 14.0 C 170.3 13.8 170.8 13.6 169.2 13.5 C 166.7 13.3 167.9 13.7 165.9 13.6 C 165.1 13.4 166.3 13.3 165.3 13.3 C 164.6 13.3 162.7 13.3 162.1 13.1 C 164.7 13.1 161.6 12.8 163.3 12.7 C 162.4 12.7 161.9 12.7 161.4 12.7 C 164.0 13.0 158.8 13.0 160.7 13.2 C 157.1 13.3 160.5 12.6 157.5 12.7 C 159.0 12.8 157.1 12.9 154.9 12.9 C 154.3 12.7 152.1 12.6 150.3 12.6 C 151.3 12.7 152.0 12.7 150.3 12.9 C 151.2 13.0 152.7 13.0 153.6 12.8 C 153.6 13.0 153.9 13.0 154.3 13.1 C 152.1 13.1 153.0 13.3 152.3 13.3 C 151.7 13.2 150.1 13.3 149.7 13.2 C 149.7 13.2 149.1 13.3 149.1 13.3 C 151.8 13.3 148.7 13.7 150.4 13.7 C 151.6 13.7 150.8 13.4 152.3 13.4 C 153.8 13.7 151.1 13.8 150.4 14.0 C 151.6 14.2 153.1 13.8 153.6 14.1 C 151.9 14.4 149.3 14.3 147.2 14.3 C 147.3 14.6 143.6 14.3 143.3 14.7 C 142.9 14.6 142.6 14.5 142.0 14.5 C 141.4 14.8 140.7 14.5 140.0 14.5 C 140.0 14.6 140.2 14.7 140.7 14.8 C 138.0 14.8 137.4 14.8 134.3 15.1 C 133.8 15.0 133.2 14.9 133.0 14.7 C 133.7 14.6 134.4 14.5 134.9 14.4 C 130.6 14.6 133.4 15.2 130.4 14.9 C 130.6 15.1 132.6 15.2 131.1 15.4 C 128.4 15.3 124.6 15.8 124.7 15.1 C 122.3 15.1 120.8 15.7 119.6 15.5 C 118.9 15.6 118.7 15.7 118.4 15.8 C 119.1 15.8 120.1 15.9 120.9 15.9 C 122.3 15.7 123.0 15.9 121.6 15.6 C 123.7 15.4 124.2 15.5 125.4 15.6 C 122.5 16.0 119.8 16.0 119.7 16.4 C 118.7 16.3 118.0 16.2 117.2 16.1 C 116.9 16.3 113.7 16.7 113.4 16.5 C 115.6 16.4 117.8 15.8 115.9 15.8 C 110.5 16.6 107.5 16.5 102.9 17.4 C 102.8 17.3 103.1 17.1 102.3 17.2 C 102.3 17.3 102.1 17.4 101.7 17.6 C 100.2 17.7 99.4 17.8 97.5 18.1 C 97.6 17.9 97.2 17.7 96.2 17.8 C 95.6 18.2 93.8 18.9 92.7 19.0 C 93.8 18.8 92.3 18.8 91.5 18.9 C 92.2 19.1 86.2 19.6 87.9 19.6 C 85.6 20.1 84.5 20.1 84.5 20.0 C 83.6 20.3 83.0 20.4 82.2 20.7 C 81.6 20.4 77.7 21.5 77.1 21.5 C 78.5 21.3 78.7 20.9 77.6 21.1 C 76.8 21.5 73.3 22.5 72.7 22.6 C 72.9 22.5 73.1 22.2 74.8 21.7 C 71.8 22.3 71.9 22.7 71.0 23.2 C 71.1 22.8 69.8 23.4 69.4 23.6 C 68.5 23.7 69.4 23.5 69.3 23.3 C 68.3 23.5 67.9 23.5 66.6 23.8 C 67.1 24.0 65.6 24.2 65.0 24.3 C 64.9 24.6 64.2 24.9 63.0 25.2 C 64.5 24.4 56.4 26.8 58.4 26.5 C 56.9 27.2 56.7 26.7 54.8 27.4 C 54.5 27.6 53.3 27.9 54.4 27.7 C 53.6 28.0 52.7 28.3 52.4 28.3 C 52.0 28.4 51.5 28.5 50.0 29.1 C 51.5 28.9 46.8 30.2 47.7 30.3 C 46.2 30.4 43.9 31.9 41.4 32.6 C 41.4 32.7 40.8 33.0 40.7 33.1 C 40.4 33.4 43.6 32.0 41.6 33.0 C 39.0 33.9 40.3 33.3 39.9 33.3 C 33.4 36.4 26.9 40.1 22.6 43.5 C 23.1 43.2 23.1 43.3 22.3 44.0 C 20.8 44.7 17.0 48.9 16.6 49.7 C 16.1 49.9 14.9 52.1 14.6 52.4 C 14.8 52.0 15.1 51.1 14.6 52.0 C 14.5 52.7 13.9 53.3 13.7 54.2 C 13.2 54.5 12.6 57.2 12.6 55.8 C 12.4 56.3 12.3 56.6 12.2 56.9 C 12.4 57.0 12.2 57.5 12.6 56.6 C 11.8 58.9 12.0 59.4 11.8 61.2 C 12.0 61.5 12.1 60.1 12.2 61.2 C 12.1 61.2 12.0 61.2 12.0 61.2 C 12.0 61.6 12.1 61.7 12.0 61.9 C 11.9 61.8 11.9 61.2 11.6 61.2 C 11.7 62.1 11.4 62.7 11.7 63.0 C 11.6 61.7 12.1 62.5 12.0 63.3 C 11.8 62.6 12.7 66.1 13.3 67.1 C 13.2 67.8 12.8 65.9 12.6 66.1 C 13.4 68.2 13.3 68.1 13.7 68.2 C 14.2 69.3 14.3 69.8 15.3 71.1 C 15.7 71.9 14.8 70.7 15.4 71.6 C 15.8 72.0 16.0 72.1 16.6 72.9 C 17.8 75.1 23.3 79.0 26.0 81.8 C 24.8 80.8 26.5 81.8 28.3 83.0 C 28.3 83.1 28.0 83.1 28.7 83.5 C 28.7 83.3 29.3 83.6 30.6 84.3 C 30.6 84.5 30.3 84.5 31.0 84.9 C 31.7 84.9 33.2 86.1 34.2 86.5 C 34.6 87.0 31.9 85.3 31.6 85.4 C 34.7 87.3 35.4 87.4 38.1 88.8 C 36.7 88.1 39.0 89.5 39.4 89.7 C 38.9 89.2 41.2 90.1 39.7 89.2 C 40.7 89.7 42.4 90.4 42.6 90.6 C 42.0 90.3 41.1 89.9 41.0 90.0 C 42.4 90.5 44.1 91.6 44.9 91.6 C 43.9 91.2 43.3 90.9 43.4 90.7 C 43.8 90.8 44.3 90.9 45.1 91.2 C 42.6 90.9 49.4 93.2 49.8 93.2 C 50.4 93.8 50.8 93.9 50.5 94.0 C 53.5 95.1 53.6 94.8 54.6 95.1 C 54.3 95.3 53.8 95.4 55.4 96.0 C 55.2 95.6 57.1 96.3 56.6 95.7 C 60.8 97.0 61.7 97.6 64.3 98.3 C 64.4 98.2 63.6 98.0 64.3 98.1 C 65.6 98.6 66.6 98.9 67.4 99.3 C 68.2 99.3 67.2 99.0 68.0 99.1 C 70.0 99.9 69.4 100.0 71.1 100.7 C 73.4 101.0 72.6 101.0 74.0 101.0 C 73.4 100.9 72.6 100.6 73.5 100.7 C 74.8 101.3 75.2 101.7 75.6 101.8 C 74.6 101.6 73.8 101.4 73.4 101.2 C 73.0 101.3 71.6 101.0 72.7 101.4 C 71.3 101.0 69.8 100.6 67.8 100.1 C 68.4 100.5 66.0 99.7 66.7 100.1 C 68.9 100.6 69.4 100.9 71.5 101.4 C 71.1 101.0 73.3 101.7 73.8 101.9 C 73.8 101.7 75.3 102.1 75.0 101.8 C 76.7 102.2 76.6 102.3 78.3 102.7 C 78.4 102.8 78.2 102.9 78.8 103.0 C 79.5 102.9 80.0 103.3 80.5 103.4 C 80.2 103.1 82.7 103.8 82.9 103.6 C 82.2 103.5 81.3 103.3 81.2 103.2 C 84.0 103.8 81.8 103.1 81.2 102.8 C 81.3 102.9 80.3 103.0 80.1 102.8 C 82.5 103.1 76.9 101.7 79.0 102.2 C 80.7 102.7 80.7 102.4 82.5 102.9 C 84.5 103.7 81.9 103.5 84.0 104.2 C 85.3 104.3 86.2 104.5 86.4 104.3 C 86.7 104.4 87.0 104.6 87.5 104.7 C 88.1 104.7 85.8 104.2 87.6 104.4 C 88.5 104.7 87.4 104.8 89.3 105.1 C 90.1 105.0 87.0 104.4 88.8 104.6 C 90.5 105.3 88.4 104.5 90.5 104.8 C 90.7 104.9 91.0 105.0 91.7 105.1 C 91.8 105.2 91.5 105.3 92.2 105.5 C 92.7 105.2 93.0 105.8 94.6 106.0 C 95.6 105.8 93.0 105.5 93.5 105.4 C 95.3 106.0 96.4 105.8 97.1 106.0 C 95.6 105.9 99.4 106.5 99.5 106.7 C 99.1 106.4 99.9 106.6 102.0 106.7 C 102.1 107.1 104.5 107.1 105.0 107.6 C 105.3 107.5 105.9 107.5 106.2 107.4 C 105.5 107.3 104.8 107.2 105.1 107.1 C 105.7 107.2 106.3 107.2 106.9 107.3 C 107.9 107.6 105.2 107.8 109.3 108.3 C 108.9 107.9 110.6 108.0 111.8 108.1 C 111.7 107.8 110.2 107.9 110.0 107.7 C 111.4 107.7 112.9 108.1 113.7 108.3 C 116.2 108.4 119.0 108.8 122.6 109.0 C 123.4 109.3 119.6 109.0 121.9 109.3 C 122.9 109.4 122.4 109.1 123.8 109.3 C 122.5 110.2 133.4 110.2 134.1 110.6 C 134.5 110.5 137.6 110.7 137.3 110.4 C 135.2 110.5 133.8 110.1 132.8 109.9 C 130.8 110.0 134.5 110.3 132.8 110.2 C 132.6 110.1 130.0 110.1 130.2 109.8 C 133.0 110.0 128.8 109.5 130.9 109.4 C 133.4 109.6 138.6 109.6 137.3 109.9 C 137.3 109.8 136.2 109.7 136.1 109.8 C 139.0 110.1 140.7 109.9 141.9 109.8 C 143.2 110.1 148.4 109.9 147.1 110.0 C 147.5 110.2 144.0 109.8 144.5 110.1 C 149.9 110.3 150.0 110.1 153.5 110.4 C 152.4 110.1 157.3 110.0 156.8 110.1 C 156.8 110.3 157.9 110.5 160.1 110.2 C 159.8 110.5 160.9 110.6 162.1 110.6 C 162.6 110.4 161.1 110.4 161.4 110.2 C 162.4 110.2 163.6 110.2 164.7 110.2 C 164.7 110.3 164.5 110.4 165.3 110.4 C 166.5 110.3 170.9 109.9 170.5 110.1 C 168.7 110.5 173.5 110.3 170.5 110.6 C 171.3 110.5 171.4 110.6 172.5 110.6 C 172.5 110.5 172.5 110.4 172.5 110.3 C 174.9 110.2 173.7 110.6 175.7 110.6 C 175.9 110.4 176.8 110.4 177.0 110.3 C 176.2 110.3 176.1 110.4 175.1 110.4 C 176.3 110.0 172.9 110.3 173.1 110.0 C 175.4 109.9 175.4 110.1 176.3 110.2 C 179.2 109.9 177.8 110.1 180.9 110.0 C 180.9 109.9 180.0 109.9 180.2 109.8 C 183.9 109.7 183.5 110.2 186.0 109.9 C 185.5 109.9 183.2 110.3 184.8 110.2 C 186.5 110.0 187.0 109.7 189.2 109.5 C 189.3 109.6 189.2 109.8 189.9 109.7 C 190.8 109.6 190.9 109.3 191.8 109.2 C 192.0 109.3 193.2 109.1 193.7 109.0 C 194.5 109.2 193.4 109.3 194.4 109.3 C 196.3 109.1 197.2 108.5 198.7 108.4 C 198.7 108.8 200.4 108.5 202.0 108.3 C 202.2 108.6 205.5 108.2 207.6 108.0 C 207.1 107.8 209.3 107.6 208.8 107.5 C 207.8 107.6 207.2 107.6 206.9 107.5 C 209.4 107.2 210.2 107.6 211.9 107.0 C 212.8 107.1 214.0 107.1 215.6 106.9 C 215.8 106.7 212.7 107.0 214.4 106.8 C 214.5 106.8 215.0 106.7 215.6 106.6 C 215.4 106.9 216.7 106.8 217.5 106.8 C 218.9 106.4 221.9 106.3 220.5 106.2 C 222.7 105.8 221.3 106.5 223.0 106.2 C 222.1 106.0 225.0 105.5 223.5 105.6 C 225.8 105.1 225.7 105.6 224.8 105.9 C 226.9 105.6 227.3 105.3 228.4 105.2 C 227.3 105.2 230.5 104.5 228.9 104.9 C 228.4 105.3 230.8 104.7 231.3 104.7 C 230.5 104.7 231.6 104.5 230.1 104.6 C 231.6 104.3 233.9 103.8 235.3 103.8 C 237.2 103.2 239.0 102.8 238.2 103.3 C 240.0 102.8 239.3 103.0 241.1 102.6 C 241.1 102.6 240.6 102.7 240.5 102.6 C 242.9 102.1 242.4 102.4 245.6 101.6 C 245.3 102.0 247.3 101.5 247.9 101.5 C 246.6 101.8 245.6 102.0 244.5 102.2 C 244.3 102.4 245.4 102.2 244.6 102.4 C 244.4 102.4 243.9 102.4 243.4 102.5 C 245.5 102.3 240.9 103.5 242.3 102.9 C 242.3 103.0 242.5 103.0 242.9 102.9 C 242.5 102.7 242.5 102.8 242.8 102.5 C 241.8 102.8 240.9 102.7 240.5 103.0 C 240.6 103.1 241.6 102.8 241.7 102.9 C 239.2 103.6 240.9 102.8 238.9 103.3 C 238.5 103.6 239.5 103.5 240.1 103.5 C 238.2 104.0 236.6 104.3 236.0 104.2 C 234.3 104.6 236.2 104.4 235.0 104.7 C 234.3 104.8 234.3 104.6 233.1 104.8 C 231.8 105.1 233.9 104.8 232.6 105.1 C 231.2 105.2 233.5 104.6 231.3 104.9 C 231.9 105.2 229.4 105.3 229.6 105.4 C 230.8 105.2 230.9 105.5 230.2 105.4 C 227.3 105.6 225.4 106.8 222.4 106.7 C 222.4 106.8 222.0 106.9 221.9 107.0 C 224.1 106.8 227.3 106.3 227.9 106.5 C 229.7 106.2 229.4 106.0 229.7 105.8 C 231.7 105.8 231.6 105.8 230.4 106.4 C 227.0 107.1 225.5 107.1 223.2 107.4 C 222.0 107.8 223.3 107.5 223.8 107.6 C 216.7 108.4 222.2 108.3 219.6 108.6 C 219.7 108.5 219.1 108.5 218.4 108.5 C 218.4 108.6 217.3 108.8 217.2 108.9 C 217.7 108.8 217.9 108.8 217.8 109.0 C 216.0 109.3 216.7 108.9 216.6 108.8 C 217.9 108.6 218.8 108.5 219.0 108.3 C 217.2 108.7 215.8 108.6 214.7 109.1 C 213.0 108.9 215.5 108.2 214.6 108.1 C 214.8 107.9 213.5 108.9 212.2 109.1 C 209.9 109.4 209.9 109.7 207.8 109.9 C 207.3 109.7 209.9 109.6 209.7 109.4 C 209.1 109.4 208.9 109.4 208.4 109.4 C 206.9 109.6 207.1 109.8 205.9 110.0 C 205.3 109.9 204.9 110.1 204.1 110.2 C 202.7 110.3 204.9 110.0 203.4 110.1 C 201.8 110.2 200.8 110.6 200.3 110.6 C 200.1 110.5 200.4 110.4 199.6 110.4 C 197.8 110.8 197.4 110.8 199.7 110.8 C 197.7 110.9 196.8 111.1 197.1 111.3 C 200.1 111.1 200.9 111.0 202.3 111.2 C 202.8 110.8 203.7 110.9 204.8 110.9 C 204.1 110.5 206.1 110.7 206.7 110.5 C 205.9 110.5 205.2 110.5 204.7 110.5 C 207.9 110.2 207.8 110.2 210.3 109.5 C 210.3 109.6 210.6 109.7 211.0 109.7 C 210.2 109.9 207.9 110.1 207.9 110.3 C 209.7 110.4 210.2 109.9 212.3 109.9 C 213.1 109.6 210.6 109.9 212.2 109.6 C 213.1 109.7 214.1 109.7 215.4 109.6 C 216.7 109.4 217.3 109.2 218.4 108.9 C 218.5 109.0 218.7 109.1 219.7 108.9 C 219.6 108.8 218.6 108.9 219.6 108.7 C 222.9 108.5 225.1 108.4 228.2 107.7 C 227.1 107.8 224.5 108.0 225.7 107.8 C 227.2 107.7 229.0 107.1 230.5 107.0 C 231.0 107.1 228.8 107.3 229.4 107.6 C 230.8 107.3 231.6 107.2 232.3 107.1 C 232.3 107.0 233.9 106.7 233.5 106.6 C 232.3 106.8 232.0 107.1 231.7 107.1 C 232.6 106.2 236.1 106.5 238.2 106.0 C 239.6 105.6 237.1 106.0 238.7 105.6 C 239.7 105.3 240.4 105.7 238.8 106.2 C 237.7 106.3 237.3 106.7 237.1 106.4 C 236.6 106.6 235.9 106.7 235.9 106.8 C 236.7 106.6 236.6 106.8 237.1 106.8 C 236.0 107.0 235.9 107.5 234.8 107.4 C 235.5 107.2 235.7 107.1 236.0 107.0 C 232.9 107.7 231.8 107.7 230.0 107.9 C 231.0 107.9 230.0 108.0 230.1 108.2 C 231.5 107.9 234.1 107.5 232.5 107.9 C 231.4 107.8 230.7 108.7 229.6 108.6 C 230.4 108.4 230.2 108.3 230.7 108.2 C 229.5 108.4 229.5 108.2 228.2 108.4 C 224.4 109.4 221.3 109.3 214.9 110.6 C 212.7 110.9 216.9 110.3 216.7 110.1 C 216.1 110.2 215.9 110.1 215.5 110.2 C 215.4 110.5 214.3 110.3 213.6 110.7 C 213.7 110.4 210.7 111.0 209.2 111.0 C 209.1 111.1 209.3 111.2 208.6 111.3 C 204.0 111.5 195.6 112.7 192.0 112.7 C 192.2 112.9 190.6 113.0 190.2 113.2 C 187.9 113.3 188.9 113.0 185.6 113.4 C 184.0 113.6 185.9 113.3 186.2 113.2 C 181.3 113.6 177.0 113.5 173.8 113.9 C 172.3 114.1 173.8 113.7 170.6 113.8 C 170.5 114.1 165.4 113.7 164.7 114.1 C 162.7 114.2 159.1 113.7 160.7 114.1 C 158.0 114.1 159.8 113.8 158.7 113.8 C 156.9 113.8 159.3 114.4 157.5 114.4 C 157.7 114.1 156.1 114.2 154.8 114.0 C 156.3 114.0 157.3 114.0 157.5 113.8 C 156.2 114.0 156.3 113.8 154.2 113.8 C 152.7 113.9 148.2 114.1 147.0 113.7 C 146.9 113.8 147.3 113.9 147.6 113.9 C 146.3 113.9 144.8 113.6 145.0 113.9 C 142.1 113.9 140.8 113.5 139.1 113.7 C 137.9 113.8 139.6 113.5 135.8 113.3 C 135.8 113.5 129.2 113.1 127.4 112.8 C 127.3 113.1 127.0 112.8 126.2 112.7 C 126.0 112.8 126.2 112.9 125.5 112.9 C 125.4 112.8 124.8 112.8 124.2 112.8 C 124.7 112.4 121.8 112.7 121.7 112.4 C 122.2 112.4 122.2 112.2 121.7 112.2 C 121.5 112.4 118.8 111.8 119.1 112.0 C 119.7 112.2 121.5 112.3 121.0 112.4 C 118.5 112.3 119.5 112.1 117.8 111.9 C 117.9 112.0 118.9 112.2 117.8 112.1 C 116.1 111.9 117.7 112.1 116.6 111.8 C 115.6 111.7 114.0 111.8 113.3 111.7 C 113.5 111.7 113.0 111.5 112.7 111.5 C 109.5 111.0 102.2 110.4 99.1 109.6 C 98.8 109.6 98.2 109.6 98.4 109.8 C 96.6 109.4 96.7 109.5 94.8 109.1 C 94.8 109.2 94.8 109.3 94.7 109.4 C 92.3 109.1 94.6 109.0 93.0 108.8 C 92.7 109.3 92.0 108.5 90.6 108.2 C 90.4 108.3 89.7 108.2 89.9 108.4 C 87.6 108.0 87.8 107.7 85.8 107.4 C 86.3 107.6 86.5 108.4 86.2 108.6 C 85.9 108.4 85.3 108.2 84.5 108.0 C 85.5 107.9 85.1 106.9 82.3 106.7 C 83.8 106.9 84.4 107.1 84.0 107.3 C 81.9 106.9 81.2 106.5 79.4 106.2 C 79.0 106.3 80.3 106.6 79.8 106.8 C 79.4 106.7 79.1 106.7 79.2 106.9 C 77.3 106.4 77.3 106.2 75.2 105.9 C 75.2 105.8 75.7 105.8 76.4 106.1 C 76.3 105.9 76.4 105.7 77.6 105.9 C 77.7 106.1 76.9 106.2 78.7 106.5 C 78.7 106.4 78.8 106.2 78.8 106.1 C 77.5 105.8 74.5 105.0 74.2 105.0 C 74.8 105.3 75.8 105.5 75.3 105.7 C 73.1 105.1 72.6 104.7 70.9 104.1 C 67.8 103.5 62.6 102.0 63.1 102.5 C 61.4 101.9 62.0 102.1 60.5 101.6 C 60.8 102.0 58.7 101.2 58.8 101.4 C 60.7 101.9 60.1 101.8 62.0 102.3 C 61.9 102.4 61.6 102.5 60.8 102.3 C 60.8 102.1 60.0 101.9 58.7 101.5 C 58.9 101.6 60.0 102.2 58.7 101.8 C 58.6 101.7 58.3 101.6 57.7 101.4 C 57.7 101.3 57.7 101.2 57.8 101.1 C 58.5 101.2 59.4 101.4 59.9 101.5 C 59.4 101.3 59.3 101.2 58.9 101.1 C 58.5 101.1 56.4 100.3 56.2 100.4 C 57.1 100.7 57.6 101.0 56.7 100.7 C 56.6 100.6 55.2 100.1 54.6 100.1 C 56.4 100.8 55.7 100.6 56.6 101.1 C 55.5 100.8 55.1 100.6 54.7 100.4 C 54.4 100.3 54.2 100.2 53.9 100.1 C 53.5 99.9 53.5 99.9 52.5 99.6 C 52.5 99.4 52.6 99.2 53.2 99.4 C 52.6 98.9 50.2 98.1 48.1 97.4 C 46.1 96.7 44.2 96.0 43.3 95.6 C 44.5 96.2 46.1 96.4 44.2 95.6 C 44.2 95.7 42.7 95.1 42.5 95.1 C 41.7 95.3 43.2 96.2 44.6 97.0 C 43.0 96.4 42.7 96.4 41.3 95.8 C 40.9 95.4 42.5 95.7 40.7 94.9 C 40.2 95.1 37.5 93.6 36.8 93.5 C 38.0 94.1 38.8 94.5 37.5 94.0 C 37.8 94.0 35.4 92.9 35.4 92.8 C 37.3 93.6 37.9 93.6 39.2 94.2 C 37.6 93.5 40.4 94.5 37.8 93.3 C 36.6 92.9 35.9 92.9 33.3 91.6 C 32.4 91.0 33.3 91.3 32.1 90.6 C 32.3 91.0 29.6 89.6 31.3 90.3 C 30.4 89.8 29.9 89.5 29.5 89.2 C 30.6 90.1 24.6 86.9 25.4 87.6 C 25.6 87.3 25.4 86.8 25.2 86.6 C 24.0 86.1 22.8 85.2 20.3 83.2 C 20.2 83.5 19.8 82.9 18.8 82.1 C 18.5 82.1 19.4 82.9 18.6 82.3 C 17.6 81.3 17.5 81.2 17.4 80.9 C 16.6 80.2 16.1 79.7 15.8 79.3 C 15.6 79.3 15.8 79.6 16.0 79.8 C 13.4 76.9 12.0 75.6 10.4 73.1 C 11.0 74.2 11.5 74.2 10.9 73.4 C 10.5 72.9 10.2 72.5 10.0 72.2 C 10.1 72.9 10.1 72.6 9.4 71.4 C 8.7 70.3 9.3 72.0 8.8 71.1 C 8.5 70.1 8.8 70.6 8.7 70.0 C 8.5 69.6 8.3 69.1 8.1 68.7 C 8.3 69.6 7.8 68.7 7.5 67.9 C 7.9 68.4 7.8 68.0 7.3 66.4 C 7.4 66.2 7.7 67.0 7.5 66.3 C 7.4 66.0 6.8 64.8 6.9 63.6 C 6.9 63.9 7.0 64.1 7.1 64.0 C 6.7 62.8 7.0 61.8 7.1 60.7 C 6.9 61.8 6.7 61.2 6.6 61.7 C 6.8 60.6 6.6 59.2 7.0 58.4 C 6.7 60.0 7.4 58.5 7.6 57.5 C 7.4 57.3 7.2 59.0 7.0 58.4 C 6.8 57.8 7.4 56.7 7.3 56.1 C 7.2 56.1 7.2 56.8 7.0 57.0 C 7.2 56.1 6.8 57.2 7.0 56.5 C 7.3 56.1 7.1 55.5 7.3 55.1 C 7.5 54.5 8.3 53.4 8.3 52.8 C 8.2 52.8 7.9 53.6 7.8 53.7 C 8.6 51.1 9.3 50.5 10.5 48.2 C 10.7 48.0 11.1 47.7 11.6 47.1 C 11.4 47.0 11.7 46.6 12.0 46.1 C 12.8 45.2 13.7 44.4 14.8 43.4 C 14.8 43.7 14.3 44.3 15.8 42.8 C 15.8 42.6 15.2 43.2 15.7 42.7 C 15.7 42.7 16.1 42.4 16.2 42.2 C 16.1 42.2 16.1 42.2 16.0 42.1 C 15.6 42.6 15.2 43.0 14.8 43.4 C 14.7 43.2 14.6 43.3 14.2 43.5 C 15.8 41.6 16.1 42.1 17.2 40.8 C 17.7 40.9 18.2 40.6 17.3 41.7 C 18.3 40.7 19.1 39.9 19.3 39.5 C 17.8 40.7 18.1 40.1 17.6 40.3 C 18.6 39.6 18.5 39.5 18.9 39.1 C 20.1 38.3 18.0 40.3 20.2 38.6 C 18.4 39.7 21.5 37.4 22.7 36.6 C 22.5 36.6 22.0 36.9 22.6 36.4 C 25.8 34.0 26.0 34.9 28.0 33.2 C 27.9 33.5 28.9 32.9 29.4 32.7 C 27.6 33.8 27.1 34.1 26.4 34.7 C 26.6 34.7 27.1 34.4 27.7 34.1 C 27.6 33.9 28.1 33.6 28.9 33.3 C 29.4 32.8 29.0 32.6 30.4 31.6 C 30.6 31.6 30.5 31.8 31.3 31.4 C 31.9 30.8 30.8 32.1 34.2 30.3 C 33.5 30.5 33.1 30.6 33.3 30.3 C 34.9 29.4 34.6 29.6 36.8 28.5 C 37.9 28.4 35.5 29.6 35.0 30.2 C 36.5 29.4 37.6 28.5 39.4 28.0 C 38.0 28.4 39.2 27.6 40.7 26.9 C 42.1 26.4 40.8 27.3 42.5 26.6 C 43.8 26.0 44.4 25.5 43.1 25.9 C 46.2 24.8 45.3 24.8 48.1 23.9 C 48.2 24.0 47.4 24.3 46.4 24.6 C 46.6 24.6 46.3 24.8 47.3 24.5 C 48.2 24.1 49.6 23.5 51.1 22.9 C 52.5 22.3 53.4 22.0 54.0 21.7 C 56.4 21.4 59.0 20.1 61.4 19.5 C 60.5 20.1 64.6 18.7 65.8 18.7 C 66.5 18.4 68.7 17.3 67.9 17.7 C 68.2 18.0 69.6 17.5 70.8 17.3 C 70.8 17.2 70.8 17.2 70.7 17.1 C 73.2 16.4 73.9 16.5 74.7 16.6 C 77.8 15.7 81.3 15.3 85.2 14.3 C 86.2 14.4 87.1 14.2 89.4 13.9 C 89.3 13.7 91.2 13.4 93.0 13.1 C 92.5 12.9 94.2 12.7 94.1 12.6 C 92.5 12.8 93.1 12.4 92.2 12.5 C 94.4 12.4 95.4 11.7 97.1 11.7 C 95.0 12.1 94.4 12.6 94.2 13.0 C 96.7 12.5 98.0 12.4 98.5 12.5 C 98.7 12.3 98.4 12.3 97.8 12.2 C 98.6 12.1 99.5 12.0 100.3 11.9 C 100.5 12.0 99.4 12.2 100.3 12.1 C 100.9 12.0 101.5 11.8 102.1 11.6 C 102.9 11.8 101.2 11.9 101.0 12.1 C 104.3 11.7 102.8 11.5 104.6 11.1 C 105.1 11.2 105.0 11.5 106.5 11.4 C 107.1 11.1 107.3 10.9 109.0 10.7 C 110.1 10.6 109.0 11.0 110.2 10.9 C 110.4 10.8 111.0 10.8 111.5 10.8 C 111.5 10.6 112.0 10.5 112.7 10.4 C 112.9 10.5 114.2 10.3 114.7 10.2 C 114.8 10.3 116.8 10.4 117.2 10.2 C 117.2 10.1 116.1 10.2 116.0 10.1 C 117.4 10.0 118.4 9.9 119.1 9.8 C 119.6 10.3 121.9 9.6 124.9 9.7 C 126.7 9.3 124.5 9.3 126.8 9.0 C 128.2 9.0 126.5 9.2 126.8 9.4 C 127.2 9.4 129.4 9.5 129.4 9.3 C 129.4 9.2 128.3 9.3 128.1 9.2 C 129.8 8.8 129.8 9.1 130.7 9.2 C 130.6 9.0 131.7 8.9 132.0 8.7 C 136.6 8.3 136.6 8.7 138.5 8.8 C 138.5 8.7 139.7 8.7 139.8 8.6 C 138.5 8.8 136.7 8.6 138.5 8.5 C 138.2 8.6 140.9 8.4 141.1 8.3 C 140.8 8.2 139.1 8.3 139.8 8.0 C 142.2 7.9 141.2 8.4 143.1 8.1 C 143.3 8.2 142.2 8.3 141.8 8.4 C 142.5 8.3 143.6 8.3 143.7 8.4 C 142.8 8.5 142.8 8.7 142.4 8.8 C 143.7 8.6 146.0 8.7 144.4 8.4 C 147.0 8.4 149.5 8.2 147.7 8.0 C 149.8 7.9 148.6 8.3 150.3 8.0 C 150.1 8.3 149.6 8.5 151.0 8.7 C 151.2 8.5 152.4 8.4 152.2 8.2 C 155.4 8.2 156.3 8.5 157.5 8.7 C 156.4 8.3 157.9 8.6 159.5 8.3 C 160.4 8.5 159.5 8.8 162.1 8.7 C 159.3 8.3 165.3 8.6 164.1 8.2 C 167.3 8.4 167.3 8.4 170.7 8.6 C 170.3 8.7 169.5 8.8 168.0 8.8 C 169.1 8.6 165.2 8.6 165.4 8.7 C 165.4 8.8 165.4 8.8 165.4 8.9 C 167.9 8.9 169.6 9.0 170.6 9.1 C 171.2 9.0 172.3 8.9 171.9 8.6 C 174.3 9.0 176.8 8.7 177.8 9.0 C 177.0 9.0 176.3 8.9 176.5 9.1 C 177.5 9.1 178.6 9.1 178.5 8.8 C 176.6 8.7 176.2 8.7 175.2 8.8 C 176.1 8.6 173.3 8.4 175.3 8.4 C 175.2 8.8 179.1 8.4 177.9 8.6 C 175.8 8.6 180.2 8.9 180.4 9.1 C 180.4 9.1 180.4 9.1 180.4 9.1 Z M 228.8 108.2 C 230.6 107.8 228.4 108.0 227.0 108.2 C 227.4 108.2 227.6 108.3 227.7 108.5 C 228.2 108.3 228.7 108.2 228.8 108.2 C 228.8 108.2 228.8 108.2 228.8 108.2 Z M 208.8 107.6 C 208.2 108.0 211.3 107.4 212.6 107.3 C 212.2 107.3 211.8 107.3 212.5 107.2 C 211.2 107.1 210.8 107.6 208.8 107.6 C 208.8 107.6 208.8 107.6 208.8 107.6 Z M 137.3 110.8 C 137.8 110.8 139.1 110.8 139.2 110.9 C 140.0 110.9 139.8 110.8 139.9 110.7 C 141.4 110.7 139.5 111.0 141.8 111.0 C 142.8 110.6 137.8 110.3 137.3 110.8 C 137.3 110.8 137.3 110.8 137.3 110.8 Z M 155.5 12.2 C 156.5 12.3 154.3 12.5 154.9 12.7 C 158.5 12.5 155.7 12.2 160.7 12.3 C 160.4 12.3 160.0 12.2 160.1 12.1 C 157.7 12.2 157.6 12.4 158.1 11.9 C 157.1 11.9 156.8 12.5 155.5 12.2 C 155.5 12.2 155.5 12.2 155.5 12.2 Z M 201.8 15.3 C 201.5 15.2 201.2 15.1 201.2 15.0 C 199.7 15.0 200.0 15.0 198.0 14.8 C 198.2 15.2 200.1 15.3 201.8 15.3 C 201.8 15.3 201.8 15.3 201.8 15.3 Z M 304.4 55.5 C 304.5 55.7 304.5 56.0 304.6 56.2 C 304.7 56.0 305.3 56.5 304.7 55.4 C 304.6 55.3 304.7 55.5 304.8 55.7 C 304.6 55.6 304.4 55.0 304.3 55.2 C 304.4 55.4 304.4 55.5 304.4 55.5 C 304.4 55.5 304.4 55.5 304.4 55.5 Z M 289.4 84.7 C 291.5 83.1 285.7 86.0 289.4 84.7 C 289.4 84.7 289.4 84.7 289.4 84.7 C 289.4 84.7 289.4 84.7 289.4 84.7 Z M 295.4 84.1 C 295.5 84.1 295.9 83.8 295.9 83.7 C 297.7 82.5 296.1 83.9 297.1 83.3 C 298.3 82.1 296.2 83.4 297.8 82.0 C 297.4 82.2 296.4 83.4 295.4 84.1 C 295.4 84.1 295.4 84.1 295.4 84.1 Z M 25.6 34.8 C 24.1 35.9 23.8 36.4 23.7 36.8 C 24.7 36.1 25.6 35.6 26.0 35.4 C 28.0 34.0 24.6 36.2 24.2 36.3 C 24.3 36.0 25.8 35.0 25.6 34.8 C 25.6 34.8 25.6 34.8 25.6 34.8 Z M 20.8 38.3 C 20.2 38.8 19.4 39.6 19.5 39.8 C 20.3 39.1 20.5 39.1 20.6 39.1 C 21.3 38.4 20.2 39.0 20.8 38.3 C 20.8 38.3 20.8 38.3 20.8 38.3 Z M 30.8 32.2 C 30.0 32.7 30.4 32.6 30.3 32.8 C 31.5 32.2 31.7 32.1 33.0 31.5 C 33.0 31.4 32.9 31.3 32.9 31.3 C 31.8 31.8 31.8 31.9 30.9 32.4 C 30.9 32.3 30.8 32.3 30.8 32.2 C 30.8 32.2 30.8 32.2 30.8 32.2 Z M 16.8 42.1 C 14.5 44.1 14.0 45.4 13.2 47.0 C 14.4 45.4 15.3 43.7 16.6 42.7 C 17.9 41.4 16.0 43.0 16.0 42.9 C 16.0 42.9 16.5 42.4 16.8 42.1 C 16.8 42.1 16.8 42.1 16.8 42.1 Z M 7.2 62.1 C 7.1 62.6 7.5 63.5 7.7 64.9 C 7.7 64.6 7.8 64.4 7.9 64.3 C 7.6 62.4 7.3 63.6 7.2 62.1 C 7.2 62.1 7.2 62.1 7.2 62.1 Z M 11.2 73.2 C 12.0 74.3 11.0 72.5 11.5 73.0 C 10.7 71.8 10.0 70.4 9.8 70.6 C 10.7 71.9 10.8 72.1 11.2 73.2 C 11.2 73.2 11.2 73.2 11.2 73.2 Z M 17.7 80.6 C 19.1 81.6 17.4 79.9 18.1 80.2 C 17.6 79.7 17.6 79.9 17.5 80.0 C 17.2 79.6 16.9 79.2 16.3 78.7 C 16.6 79.2 18.1 80.5 17.7 80.6 C 17.7 80.6 17.7 80.6 17.7 80.6 Z M 72.6 17.7 C 71.7 18.0 72.0 18.2 69.9 18.6 C 73.0 17.8 71.5 18.9 75.6 17.9 C 74.9 17.9 75.4 17.7 75.6 17.8 C 77.2 17.3 74.1 18.0 75.5 17.4 C 74.4 17.7 75.1 17.8 73.9 18.1 C 72.7 18.2 71.9 18.2 72.6 17.7 C 72.6 17.7 72.6 17.7 72.6 17.7 Z M 75.7 18.1 C 76.9 17.9 76.8 17.5 77.4 17.6 C 77.9 17.5 77.8 17.4 77.9 17.3 C 77.4 17.4 77.4 17.4 77.3 17.3 C 76.3 17.6 75.3 17.9 75.7 18.1 C 75.7 18.1 75.7 18.1 75.7 18.1 Z M 65.2 20.7 C 67.0 20.1 67.6 20.1 68.4 19.7 C 69.1 19.9 69.6 19.2 70.7 19.3 C 72.5 18.8 71.1 19.0 70.6 19.0 C 72.3 18.5 71.1 19.1 72.8 18.6 C 73.1 18.3 70.8 18.9 71.0 18.6 C 69.7 18.9 69.7 19.1 68.9 19.3 C 68.2 19.5 68.4 19.3 68.3 19.2 C 66.8 19.7 66.8 19.5 65.6 19.9 C 65.3 20.2 65.8 20.1 67.3 19.7 C 65.8 20.2 65.2 20.5 63.5 20.9 C 64.7 20.3 59.3 21.7 59.8 22.0 C 61.3 21.6 60.8 21.5 61.3 21.3 C 63.3 21.0 64.4 20.6 65.2 20.7 C 65.2 20.7 65.2 20.7 65.2 20.7 Z M 31.9 32.5 C 31.3 32.8 30.7 33.0 29.9 33.5 C 29.7 33.4 30.8 32.8 29.7 33.2 C 28.3 34.0 28.1 34.2 27.3 34.8 C 27.8 34.6 30.7 33.2 29.3 34.1 C 29.8 34.0 30.7 33.5 32.0 32.8 C 30.4 33.3 34.0 31.8 35.4 31.1 C 35.1 30.8 38.0 30.0 39.0 29.2 C 38.0 29.4 35.1 31.0 33.9 31.6 C 34.5 31.3 30.3 32.9 31.9 32.5 C 31.9 32.5 31.9 32.5 31.9 32.5 Z M 80.2 17.0 C 80.5 16.8 81.8 16.5 80.8 16.7 C 81.3 16.5 82.4 16.4 81.9 16.1 C 82.5 16.0 83.1 15.9 83.6 15.8 C 83.4 16.0 81.8 16.2 82.5 16.3 C 83.7 16.0 83.2 16.2 84.8 15.9 C 84.0 16.3 84.9 16.1 84.4 16.6 C 84.8 16.3 86.2 16.1 86.1 15.9 C 88.3 15.5 85.5 16.3 88.5 15.8 C 88.5 16.0 86.3 16.4 85.6 16.4 C 85.2 16.7 89.3 15.8 91.5 15.5 C 89.5 15.6 91.0 15.1 92.0 14.8 C 92.7 14.7 92.0 14.9 93.2 14.9 C 94.2 14.7 94.8 14.5 95.1 14.6 C 95.9 14.4 95.5 14.3 95.6 14.2 C 97.0 14.0 96.0 14.5 98.1 14.1 C 96.5 14.0 98.2 13.7 101.1 13.4 C 100.9 13.3 100.0 13.4 99.8 13.3 C 100.2 13.1 101.9 13.2 102.3 13.2 C 103.3 13.0 102.7 13.0 101.7 13.1 C 102.3 12.9 102.9 12.8 103.5 12.6 C 100.5 13.0 95.6 13.8 90.1 14.4 C 91.2 14.4 90.0 14.6 88.3 14.8 C 88.1 14.7 88.8 14.6 89.5 14.5 C 87.5 14.5 87.8 15.1 84.8 15.5 C 83.2 15.7 86.6 15.0 84.7 15.2 C 83.7 15.5 83.0 15.8 82.4 15.6 C 80.6 16.1 80.1 16.5 77.3 17.1 C 78.9 16.9 79.7 17.3 81.4 16.8 C 81.4 16.7 80.7 16.9 80.2 17.0 C 80.2 17.0 80.2 17.0 80.2 17.0 Z M 20.7 39.2 C 19.8 39.9 19.5 40.4 19.3 40.4 C 17.9 41.6 19.6 40.5 19.9 40.3 C 20.5 39.7 20.7 39.4 20.7 39.2 C 20.7 39.2 20.7 39.2 20.7 39.2 Z M 145.7 113.2 C 148.1 113.4 147.6 113.1 149.6 113.1 C 148.0 113.0 147.6 112.8 145.0 112.7 C 144.9 112.9 144.9 113.1 145.7 113.2 C 145.7 113.2 145.7 113.2 145.7 113.2 Z M 26.2 35.6 C 27.4 34.5 24.7 37.0 24.5 36.8 C 23.1 38.0 26.1 35.9 24.8 37.1 C 26.0 36.1 27.0 35.7 28.7 34.5 C 28.6 34.4 27.1 35.3 25.7 36.2 C 25.5 36.2 26.2 35.7 26.2 35.6 C 26.2 35.6 26.2 35.6 26.2 35.6 Z M 120.5 111.1 C 118.8 111.1 122.0 111.7 123.0 111.9 C 123.1 111.6 122.5 111.6 120.5 111.1 C 120.5 111.1 120.5 111.1 120.5 111.1 Z M 162.7 113.0 C 163.7 112.7 159.8 113.0 160.7 112.7 C 159.6 112.7 159.5 112.8 159.4 112.9 C 158.8 112.8 157.0 112.8 157.5 112.6 C 157.2 112.4 160.4 112.7 159.4 112.4 C 160.5 112.4 160.5 112.5 161.4 112.5 C 159.5 112.5 160.3 112.7 162.7 112.8 C 162.7 112.6 161.6 112.6 162.7 112.5 C 162.8 112.6 164.1 112.7 164.0 113.1 C 166.0 113.0 164.8 112.6 167.2 112.6 C 167.0 112.5 165.5 112.5 164.6 112.4 C 164.9 112.2 167.2 112.6 166.6 112.2 C 167.1 112.4 168.5 112.5 168.6 112.8 C 166.7 112.9 165.5 113.1 164.0 113.2 C 165.4 113.4 167.4 112.8 169.9 113.0 C 169.6 112.8 171.1 112.8 170.6 112.6 C 172.5 112.6 171.6 112.9 171.2 112.9 C 171.7 113.1 175.4 112.9 175.1 112.7 C 175.4 112.9 179.9 112.6 179.6 112.3 C 181.0 112.5 183.0 112.0 183.6 112.3 C 184.3 112.1 185.8 112.1 187.5 112.0 C 187.9 111.7 185.1 112.0 184.9 111.8 C 184.4 111.6 187.9 111.7 187.5 111.5 C 187.5 111.4 187.4 111.4 187.4 111.3 C 186.1 111.5 184.8 111.6 183.6 111.8 C 182.6 111.8 183.8 111.7 183.5 111.6 C 182.7 111.8 178.5 112.3 178.4 111.8 C 175.6 112.1 173.6 112.0 172.5 112.3 C 170.8 112.3 173.4 112.1 172.4 111.9 C 167.6 112.4 161.6 112.1 157.5 112.5 C 156.6 112.4 156.9 112.3 156.8 112.1 C 151.2 112.3 155.9 112.7 151.5 112.5 C 151.5 112.3 153.6 112.3 153.5 112.1 C 152.0 112.1 151.6 112.2 149.6 112.1 C 149.6 112.2 149.6 112.3 149.6 112.4 C 147.9 112.4 148.6 112.1 147.7 112.0 C 145.6 112.0 146.1 112.2 145.1 111.8 C 143.1 111.9 141.2 111.9 139.2 111.7 C 137.8 111.8 140.3 112.3 142.4 112.4 C 142.3 112.5 141.7 112.4 141.7 112.5 C 139.3 112.2 139.0 111.8 135.3 111.5 C 138.1 111.9 133.8 111.6 133.3 111.3 C 131.8 111.3 132.9 111.7 134.0 111.7 C 133.8 111.8 132.8 111.6 132.7 111.5 C 132.5 111.9 136.0 112.3 139.8 112.3 C 138.0 112.6 142.4 112.4 140.4 112.8 C 143.5 112.8 140.9 112.5 144.3 112.6 C 144.0 112.5 143.4 112.4 143.1 112.3 C 145.7 112.3 144.9 112.6 147.6 112.6 C 148.1 112.4 146.3 112.4 146.3 112.3 C 149.3 112.6 150.3 112.7 152.2 113.0 C 152.6 112.8 152.1 112.6 155.5 112.8 C 155.5 112.8 155.5 112.9 155.5 112.9 C 153.9 112.9 153.5 113.3 157.5 113.3 C 157.7 113.2 156.5 113.2 155.5 113.2 C 155.9 113.0 157.2 113.0 158.8 112.9 C 159.5 113.0 160.4 113.1 159.4 113.1 C 160.0 113.3 160.6 112.9 162.7 113.0 C 162.7 113.0 162.7 113.0 162.7 113.0 Z M 7.8 59.9 C 7.8 60.2 7.8 60.6 7.8 61.2 C 8.1 61.5 8.0 60.3 8.2 60.3 C 8.2 59.4 7.9 60.1 7.8 59.9 C 7.8 59.9 7.8 59.9 7.8 59.9 Z M 12.6 47.9 C 12.4 47.8 12.2 48.6 11.5 49.5 C 11.5 49.9 12.1 48.8 12.3 48.8 C 13.1 47.8 11.7 48.9 12.6 47.9 C 12.6 47.9 12.6 47.9 12.6 47.9 Z M 9.7 52.9 C 9.2 53.3 9.5 53.4 9.9 52.5 C 10.0 52.6 10.0 52.9 9.8 53.5 C 10.3 53.0 10.1 52.4 10.8 51.3 C 10.4 51.6 10.0 52.2 9.7 52.9 C 9.7 52.9 9.7 52.9 9.7 52.9 Z M 9.0 54.6 C 8.9 55.3 8.6 55.7 8.5 56.8 C 8.7 56.6 9.3 54.2 9.4 53.8 C 9.4 53.3 8.4 55.9 9.0 54.6 C 9.0 54.6 9.0 54.6 9.0 54.6 Z M 95.6 107.7 C 96.2 107.8 96.1 107.7 96.2 107.7 C 98.1 108.3 100.7 108.6 98.6 108.7 C 100.6 108.7 102.4 109.3 104.1 109.6 C 105.5 109.8 104.8 109.5 106.0 109.6 C 107.8 109.9 105.0 109.6 105.3 109.8 C 105.7 110.0 106.3 109.7 108.4 110.1 C 107.9 109.6 110.3 110.3 109.7 109.8 C 110.9 110.1 111.3 110.0 112.9 110.2 C 112.7 110.0 111.2 109.8 111.0 109.7 C 110.3 109.3 110.1 109.8 111.6 109.9 C 110.7 110.0 108.6 109.4 107.9 109.5 C 107.1 109.2 109.9 109.7 109.1 109.4 C 108.6 109.3 108.0 109.3 107.9 109.4 C 107.0 109.2 106.4 109.1 106.1 108.9 C 106.6 109.0 106.7 109.0 106.6 109.1 C 107.8 109.2 105.5 108.5 108.0 108.8 C 107.6 108.7 106.5 108.6 106.7 108.4 C 106.0 108.2 106.6 109.1 104.2 108.5 C 102.5 108.5 108.0 109.2 106.6 109.5 C 103.1 109.0 105.1 108.9 102.4 108.5 C 102.4 108.6 102.4 108.7 101.7 108.6 C 101.8 108.8 102.8 108.9 103.5 109.0 C 103.4 109.1 102.4 108.9 101.7 108.8 C 101.8 108.9 102.3 109.0 102.3 109.0 C 100.0 108.6 100.3 108.2 102.4 108.3 C 102.4 108.1 99.5 107.7 98.7 107.7 C 99.4 108.0 98.6 107.9 99.2 108.2 C 99.8 108.3 99.7 108.2 99.9 108.1 C 101.0 108.4 100.0 108.3 99.9 108.4 C 98.6 108.2 98.7 108.0 97.5 107.9 C 97.8 107.9 98.1 107.9 98.1 107.8 C 97.5 107.7 96.8 107.6 96.2 107.5 C 96.3 107.7 95.5 107.6 95.6 107.7 C 95.6 107.7 95.6 107.7 95.6 107.7 Z M 128.1 112.0 C 130.3 112.2 129.1 111.9 128.1 111.9 C 128.6 111.8 129.3 111.8 130.1 111.8 C 129.5 111.7 128.9 111.7 126.9 111.5 C 128.7 111.3 126.9 110.8 123.7 110.6 C 122.7 111.0 125.4 111.2 124.3 111.4 C 126.6 111.4 127.9 111.7 128.1 112.0 C 128.1 112.0 128.1 112.0 128.1 112.0 Z M 20.0 40.3 C 19.1 41.1 18.1 41.9 17.3 42.7 C 17.6 42.7 20.5 40.5 20.0 40.3 C 20.0 40.3 20.0 40.3 20.0 40.3 Z M 106.0 12.6 C 106.5 12.5 106.6 12.6 106.7 12.6 C 108.5 12.3 105.8 12.5 106.6 12.2 C 106.0 12.3 105.4 12.4 104.8 12.5 C 104.6 12.6 107.3 12.4 105.4 12.7 C 105.5 12.8 106.0 12.7 106.0 12.6 C 106.0 12.6 106.0 12.6 106.0 12.6 Z M 8.2 59.0 C 8.2 59.8 8.5 59.3 8.4 61.2 C 8.6 60.6 8.5 60.1 8.6 59.0 C 8.4 59.0 8.3 59.0 8.2 59.0 C 8.2 59.0 8.2 59.0 8.2 59.0 Z M 86.6 106.6 C 88.0 107.1 88.5 106.6 91.3 107.3 C 89.9 106.7 88.2 106.8 86.6 106.6 C 86.6 106.6 86.6 106.6 86.6 106.6 Z M 192.6 111.2 C 191.7 111.2 192.8 111.1 191.3 111.1 C 190.4 111.2 190.0 111.4 188.7 111.5 C 190.6 111.6 193.8 111.1 195.1 111.4 C 196.7 111.2 196.5 111.0 197.0 110.8 C 196.3 110.8 195.9 110.8 195.8 110.8 C 194.9 111.2 193.7 110.7 192.6 111.2 C 192.6 111.2 192.6 111.2 192.6 111.2 Z M 119.8 111.0 C 118.7 110.7 120.7 110.8 121.1 110.7 C 122.0 110.8 121.7 110.9 121.8 111.1 C 122.9 111.1 123.2 111.0 123.1 110.8 C 120.9 110.6 118.3 110.3 119.9 110.2 C 117.9 109.9 119.0 110.3 118.0 110.3 C 116.9 110.0 117.9 110.1 118.0 109.8 C 117.5 109.8 115.9 110.0 116.1 109.6 C 113.1 109.7 114.4 110.2 116.6 110.8 C 118.7 110.8 116.3 110.4 119.8 111.0 C 119.8 111.0 119.8 111.0 119.8 111.0 Z M 43.0 93.9 C 43.2 94.1 44.6 94.7 44.5 94.8 C 46.4 95.2 48.0 95.6 49.8 96.0 C 49.5 95.6 47.1 95.0 48.1 95.5 C 47.4 95.1 45.8 94.4 44.9 93.9 C 43.3 93.2 42.5 93.4 42.5 93.0 C 40.9 92.5 41.8 92.9 39.4 91.7 C 43.1 93.6 38.0 91.3 37.7 91.4 C 39.8 92.4 41.8 93.2 41.6 92.9 C 43.2 93.7 45.1 94.5 45.4 94.8 C 45.2 94.9 43.9 94.3 43.0 93.9 C 43.0 93.9 43.0 93.9 43.0 93.9 Z M 53.3 97.0 C 52.6 96.8 51.9 96.6 50.7 96.2 C 51.4 96.5 51.6 96.7 51.5 96.8 C 53.7 97.6 53.9 97.5 54.3 97.8 C 55.4 98.3 54.1 97.4 55.9 98.1 C 55.8 98.0 54.9 97.7 54.9 97.6 C 54.7 97.7 54.4 97.7 53.3 97.0 C 53.3 97.0 53.3 97.0 53.3 97.0 Z M 69.6 102.3 C 71.0 102.6 68.8 101.9 69.6 101.9 C 69.2 101.9 66.6 101.1 67.0 101.0 C 66.3 100.5 63.4 100.4 63.8 100.1 C 63.1 99.9 63.3 100.1 63.2 100.1 C 65.1 100.6 65.0 100.8 63.6 100.4 C 63.8 100.6 65.0 100.9 65.8 101.1 C 65.9 101.0 65.2 100.8 65.3 100.7 C 66.9 101.2 68.1 101.7 69.6 102.3 C 69.6 102.3 69.6 102.3 69.6 102.3 Z M 176.4 10.2 C 174.9 10.1 173.9 10.1 173.2 10.1 C 173.6 10.3 174.4 10.2 175.1 10.2 C 175.3 10.4 174.6 10.3 173.8 10.3 C 174.5 10.6 177.3 10.5 176.4 10.2 C 176.4 10.2 176.4 10.2 176.4 10.2 Z M 163.4 9.9 C 161.9 9.8 160.9 9.9 160.7 10.0 C 161.3 10.2 161.1 9.9 162.1 9.9 C 162.7 10.0 163.0 10.1 163.4 10.2 C 164.0 10.2 163.9 10.1 164.1 10.0 C 164.6 10.0 164.6 10.1 164.7 10.1 C 166.5 9.9 162.6 10.1 163.4 9.9 C 163.4 9.9 163.4 9.9 163.4 9.9 Z M 60.5 99.6 C 60.1 99.4 59.7 99.1 58.5 98.8 C 58.7 99.0 57.7 98.7 56.9 98.4 C 58.0 99.0 58.6 99.1 60.5 99.6 C 60.5 99.6 60.5 99.6 60.5 99.6 Z M 84.4 16.7 C 82.6 16.8 82.8 17.2 80.3 17.5 C 80.3 17.6 80.4 17.7 80.4 17.8 C 81.8 17.3 82.5 17.3 84.4 16.7 C 84.4 16.7 84.4 16.7 84.4 16.7 Z M 307.0 69.9 C 306.9 69.7 306.3 71.0 306.1 71.0 C 306.3 71.4 305.5 71.7 303.8 74.0 C 303.7 74.0 303.8 73.8 304.0 73.5 C 302.5 75.4 304.6 73.2 304.9 73.0 C 305.9 71.5 306.2 71.4 307.0 69.9 C 307.0 69.9 307.0 69.9 307.0 69.9 Z M 173.1 111.5 C 173.0 111.6 173.4 111.6 173.8 111.6 C 174.2 111.6 174.7 111.6 175.0 111.5 C 174.9 111.2 172.7 111.2 174.4 110.8 C 173.8 110.8 173.7 110.8 173.7 110.9 C 170.6 111.7 168.1 110.6 164.0 111.1 C 163.3 111.1 163.5 111.2 163.3 111.2 C 163.8 111.2 163.9 111.3 164.0 111.3 C 164.5 111.0 168.2 111.3 166.6 111.4 C 166.7 111.5 167.2 111.5 167.2 111.4 C 167.7 111.4 168.1 111.4 168.6 111.4 C 168.3 111.3 167.4 111.3 167.2 111.2 C 169.3 111.3 171.9 111.3 170.5 111.6 C 171.8 111.5 172.2 111.4 173.1 111.3 C 174.0 111.3 174.0 111.5 173.1 111.5 C 173.1 111.5 173.1 111.5 173.1 111.5 Z M 189.9 110.6 C 191.9 110.5 191.2 110.3 193.2 110.2 C 191.9 110.1 190.4 110.5 188.6 110.4 C 188.9 110.5 189.8 110.5 189.9 110.6 C 189.9 110.6 189.9 110.6 189.9 110.6 Z M 152.3 111.3 C 152.6 111.0 150.9 111.0 149.0 110.9 C 148.6 111.2 150.3 111.3 152.3 111.3 C 152.3 111.3 152.3 111.3 152.3 111.3 Z M 160.7 111.3 C 162.6 111.2 158.3 111.3 159.4 111.0 C 158.5 111.0 157.5 111.0 157.5 110.9 C 156.8 111.0 156.8 111.1 155.5 111.1 C 155.6 111.2 157.7 111.2 157.5 111.3 C 158.9 111.2 159.2 111.2 160.7 111.3 C 160.7 111.3 160.7 111.3 160.7 111.3 Z M 162.0 111.3 C 163.3 111.3 161.7 110.9 160.1 110.9 C 160.7 111.0 161.0 111.2 162.0 111.3 C 162.0 111.3 162.0 111.3 162.0 111.3 Z M 18.5 78.1 C 19.1 78.6 18.8 78.0 19.5 78.6 C 19.6 78.5 17.1 76.3 19.2 78.1 C 18.6 77.2 18.0 77.2 17.2 76.3 C 17.4 76.6 17.5 76.9 17.1 76.4 C 16.7 76.3 18.9 78.2 18.5 78.1 C 18.5 78.1 18.5 78.1 18.5 78.1 Z M 21.1 80.3 C 21.6 80.7 21.4 80.4 21.1 80.2 C 21.3 80.2 22.0 80.9 22.6 81.3 C 22.6 81.4 21.8 80.2 22.0 80.1 C 19.5 78.4 21.2 80.0 21.1 80.3 C 21.1 80.3 21.1 80.3 21.1 80.3 Z M 23.6 82.0 C 25.1 83.4 27.7 85.0 29.1 85.5 C 27.9 84.4 24.5 82.3 23.6 82.0 C 23.6 82.0 23.6 82.0 23.6 82.0 Z M 12.1 69.4 C 13.0 71.9 16.6 76.2 14.0 72.0 C 13.9 72.2 12.2 69.6 11.7 68.2 C 11.6 68.2 10.8 66.8 11.0 66.7 C 10.4 65.7 12.2 70.1 12.1 69.4 C 12.1 69.4 12.1 69.4 12.1 69.4 Z M 31.8 86.5 C 30.7 86.0 31.8 87.2 30.3 86.1 C 29.4 85.7 30.5 86.4 30.2 86.3 C 32.1 87.4 36.5 89.4 36.8 89.8 C 37.9 90.2 38.3 90.3 40.5 91.2 C 40.6 91.2 32.9 87.9 31.7 86.6 C 31.9 86.6 34.3 87.9 31.8 86.5 C 31.8 86.5 31.8 86.5 31.8 86.5 Z M 84.7 18.1 C 84.8 17.9 82.4 18.5 82.9 18.2 C 81.6 18.7 80.3 18.8 78.9 19.3 C 78.5 19.3 78.6 18.9 76.6 19.3 C 76.6 19.5 77.6 19.3 76.7 19.6 C 74.8 20.1 75.3 19.7 73.2 20.2 C 73.6 20.6 69.0 21.4 69.5 21.7 C 70.5 21.4 70.4 21.2 72.2 20.8 C 72.8 20.7 72.6 20.9 73.3 20.7 C 72.9 21.1 71.9 21.0 71.2 21.3 C 71.4 21.4 72.7 21.1 72.9 21.2 C 73.7 21.0 72.7 21.2 72.8 21.0 C 75.0 20.4 72.8 21.6 75.2 20.9 C 74.6 20.8 74.6 20.8 75.1 20.5 C 76.0 20.4 78.9 19.6 77.4 20.2 C 77.6 20.3 79.3 19.7 79.0 19.6 C 80.0 19.4 80.1 19.4 80.2 19.5 C 82.6 18.9 82.9 18.6 82.3 18.5 C 82.8 18.2 83.2 18.5 84.7 18.1 C 84.7 18.1 84.7 18.1 84.7 18.1 Z M 10.6 56.9 C 10.6 55.9 10.4 57.9 10.2 58.8 C 10.4 57.7 10.7 58.1 11.0 57.0 C 10.8 57.4 10.7 57.3 10.9 56.5 C 10.9 56.3 10.3 58.0 10.6 56.9 C 10.6 56.9 10.6 56.9 10.6 56.9 Z M 45.2 93.2 C 46.0 93.7 50.3 95.2 52.7 96.1 C 52.4 95.6 46.6 94.0 46.0 93.4 C 44.7 92.9 46.7 93.8 45.2 93.2 C 45.2 93.2 45.2 93.2 45.2 93.2 Z M 63.4 22.8 C 62.9 23.0 63.2 22.9 63.5 22.9 C 63.3 23.0 62.2 23.3 61.4 23.5 C 62.6 23.4 61.2 23.8 61.5 24.0 C 60.9 24.2 60.6 24.3 60.5 24.4 C 60.4 24.0 57.3 25.6 60.6 24.7 C 59.9 24.6 60.2 24.6 61.5 24.1 C 63.1 23.8 64.2 23.3 64.8 23.4 C 65.8 23.1 66.1 22.9 67.4 22.5 C 67.8 22.6 69.0 22.4 68.1 23.0 C 70.4 22.4 68.7 22.2 70.7 21.7 C 72.6 21.4 69.8 22.2 70.3 22.3 C 70.7 22.2 70.7 22.3 70.8 22.3 C 71.5 22.1 71.5 21.9 70.8 22.1 C 71.0 21.9 72.8 21.3 72.4 21.7 C 73.5 21.3 70.5 21.4 69.0 22.0 C 68.1 22.3 68.0 21.8 68.9 21.6 C 68.5 21.5 66.9 22.5 67.2 21.9 C 66.5 22.1 65.8 22.3 65.1 22.5 C 65.2 22.5 65.6 22.4 65.7 22.5 C 65.0 22.7 64.3 22.9 63.5 23.1 C 64.1 22.8 64.1 22.7 63.4 22.8 C 63.4 22.8 63.4 22.8 63.4 22.8 Z M 35.5 88.8 C 37.2 89.7 37.7 89.8 39.1 90.4 C 38.6 90.0 34.8 88.2 35.5 88.8 C 35.5 88.8 35.5 88.8 35.5 88.8 Z M 94.9 17.0 C 94.7 17.0 93.6 17.2 93.6 17.1 C 95.5 16.7 93.3 16.9 94.7 16.3 C 92.4 16.9 91.6 17.5 94.9 17.2 C 97.2 16.8 92.5 17.5 94.9 17.0 C 94.9 17.0 94.9 17.0 94.9 17.0 Z M 87.7 18.1 C 86.3 18.5 89.9 18.0 90.7 17.9 C 90.7 18.0 90.7 18.1 90.8 18.1 C 92.7 17.4 90.0 17.8 91.7 17.0 C 89.4 17.3 88.4 17.4 86.4 17.9 C 86.6 17.9 87.0 17.8 87.0 17.8 C 88.5 17.5 87.5 18.0 85.9 18.2 C 86.4 18.2 87.8 18.0 88.9 17.8 C 88.6 17.8 88.2 17.8 88.2 17.7 C 89.5 17.4 89.1 17.7 90.0 17.5 C 90.0 17.7 87.8 18.3 87.7 18.1 C 87.7 18.1 87.7 18.1 87.7 18.1 Z M 212.5 14.9 C 211.3 14.8 213.8 15.4 213.7 15.8 C 215.0 16.0 215.3 16.0 216.1 16.0 C 215.7 15.8 214.3 15.6 213.7 15.4 C 214.0 15.1 215.6 15.7 216.2 15.6 C 217.0 15.3 213.0 15.3 212.5 14.9 C 212.5 14.9 212.5 14.9 212.5 14.9 Z M 32.4 35.2 C 31.7 35.6 32.2 35.5 32.5 35.3 C 32.4 35.4 31.3 36.0 31.2 36.0 C 30.3 36.5 31.8 35.8 30.7 36.4 C 30.6 36.7 32.5 35.5 32.5 35.4 C 33.9 34.6 32.9 35.4 33.4 35.3 C 34.6 34.7 34.1 34.7 35.9 33.9 C 34.7 34.3 33.7 34.7 32.4 35.2 C 32.4 35.2 32.4 35.2 32.4 35.2 Z M 99.0 15.9 C 99.2 15.8 97.6 16.5 96.0 16.5 C 93.9 16.9 97.3 16.6 95.4 16.9 C 97.0 16.7 98.9 16.2 101.4 15.8 C 102.0 15.6 98.0 16.3 100.2 15.8 C 100.1 15.8 99.6 15.9 99.6 15.9 C 99.1 16.0 99.0 16.0 99.0 15.9 C 99.0 15.9 99.0 15.9 99.0 15.9 Z M 96.6 16.9 C 96.8 16.9 97.3 16.8 97.3 16.8 C 98.0 16.6 98.1 16.9 97.3 17.0 C 98.4 17.1 98.2 16.6 100.3 16.5 C 99.4 16.4 99.0 16.3 100.9 16.2 C 102.4 15.8 97.3 16.6 96.6 16.9 C 96.6 16.9 96.6 16.9 96.6 16.9 Z M 192.4 13.0 C 192.6 13.2 194.0 13.2 195.0 13.3 C 193.7 13.4 188.6 12.9 188.0 12.7 C 187.4 12.7 186.8 12.7 186.6 12.6 C 186.7 12.7 185.3 12.7 186.0 12.8 C 185.9 12.9 184.7 12.8 184.7 12.9 C 182.8 12.7 185.3 12.8 184.8 12.6 C 182.4 12.7 182.9 12.5 180.2 12.4 C 180.7 12.6 183.7 12.7 183.4 13.0 C 185.6 12.8 187.9 13.2 189.2 13.5 C 187.2 13.0 194.7 13.4 198.1 13.7 C 198.0 13.9 199.2 14.0 200.6 14.2 C 201.6 14.6 201.3 14.0 199.4 13.9 C 199.5 13.8 202.1 14.2 203.2 14.2 C 201.9 14.0 202.6 13.9 202.0 13.8 C 199.5 13.5 201.7 13.8 201.3 14.0 C 200.7 13.9 200.0 13.8 199.4 13.8 C 202.7 13.7 194.6 13.3 197.5 13.5 C 194.9 13.3 194.9 13.1 192.4 13.0 C 192.4 13.0 192.4 13.0 192.4 13.0 Z M 131.6 12.5 C 131.1 12.6 129.1 12.9 129.0 12.7 C 126.4 13.1 128.7 13.1 125.8 13.3 C 126.0 13.4 127.1 13.3 127.1 13.4 C 128.2 13.2 129.4 13.1 129.0 12.9 C 130.3 12.8 130.7 12.7 131.6 12.6 C 131.3 12.7 130.8 12.8 129.7 12.9 C 129.5 13.1 129.9 13.2 131.6 13.1 C 132.4 12.8 131.8 12.7 131.6 12.5 C 131.6 12.5 131.6 12.5 131.6 12.5 Z M 125.2 13.3 C 124.9 13.3 124.5 13.2 124.5 13.1 C 123.6 12.9 124.2 13.5 123.3 13.6 C 122.5 13.6 122.8 13.4 122.6 13.4 C 121.5 13.5 120.7 13.6 120.1 13.6 C 118.4 13.9 122.1 13.6 122.7 13.7 C 123.9 13.6 123.4 13.4 125.2 13.3 C 125.2 13.3 125.2 13.3 125.2 13.3 Z M 106.3 15.0 C 106.0 14.8 105.4 15.2 104.5 15.3 C 105.1 15.5 106.9 15.1 105.8 15.6 C 107.6 15.4 107.7 15.4 109.5 15.1 C 110.7 15.2 109.5 14.9 107.6 15.2 C 107.8 15.1 108.7 15.0 108.8 14.9 C 110.1 15.2 113.1 14.1 111.3 14.6 C 110.7 14.6 110.4 14.6 110.0 14.5 C 109.6 14.8 105.4 15.2 106.3 15.0 C 106.3 15.0 106.3 15.0 106.3 15.0 Z M 48.0 28.7 C 49.6 28.1 50.5 27.8 51.3 27.5 C 52.2 27.2 53.5 26.7 54.5 26.4 C 54.6 26.5 54.4 26.6 54.1 26.8 C 54.5 26.7 55.1 26.4 56.0 26.1 C 55.9 26.0 55.5 26.2 55.5 26.3 C 53.9 26.6 55.2 26.2 55.4 25.9 C 53.4 26.3 50.3 27.9 48.7 28.1 C 47.5 28.7 49.0 28.2 48.0 28.7 C 48.0 28.7 48.0 28.7 48.0 28.7 Z M 305.9 67.5 C 305.8 67.7 305.6 68.4 305.8 68.3 C 306.0 67.7 306.1 67.3 306.2 66.8 C 305.8 67.8 305.6 67.5 304.9 68.8 C 305.2 68.5 305.4 68.7 305.9 67.5 C 305.9 67.5 305.9 67.5 305.9 67.5 Z M 112.5 14.3 C 112.6 14.4 112.7 14.6 112.0 14.6 C 111.7 14.9 113.7 14.5 113.8 14.7 C 114.5 14.6 114.2 14.5 115.1 14.4 C 114.8 14.3 113.1 14.5 113.8 14.2 C 114.3 14.1 114.4 14.2 114.4 14.2 C 115.7 14.0 113.8 14.1 112.5 14.3 C 112.5 14.3 112.5 14.3 112.5 14.3 Z M 218.6 16.0 C 217.8 15.9 218.6 16.1 219.2 16.2 C 217.4 16.2 220.2 16.8 220.3 17.1 C 219.6 16.7 217.1 16.5 216.7 16.4 C 216.0 16.3 216.8 16.6 214.8 16.4 C 215.1 16.7 217.2 16.8 216.7 16.5 C 217.2 16.9 219.3 16.9 219.1 17.1 C 221.8 17.6 222.5 17.5 222.7 17.3 C 220.1 17.0 221.5 16.8 219.2 16.5 C 219.2 16.4 219.9 16.5 220.4 16.6 C 220.2 16.4 219.2 16.2 218.6 16.0 C 218.6 16.0 218.6 16.0 218.6 16.0 Z M 152.3 11.9 C 150.8 11.9 150.9 12.1 151.0 12.3 C 151.5 12.2 152.4 12.2 153.6 12.2 C 153.3 12.1 151.5 12.2 152.3 11.9 C 152.3 11.9 152.3 11.9 152.3 11.9 Z M 208.7 15.0 C 208.6 14.9 208.1 14.9 208.1 14.9 C 206.6 14.8 206.2 14.6 205.7 14.4 C 204.8 14.4 205.1 14.6 205.0 14.7 C 206.5 14.6 206.2 14.9 208.1 15.1 C 208.0 15.0 208.3 15.0 208.7 15.0 C 208.7 15.0 208.7 15.0 208.7 15.0 Z M 165.9 12.1 C 165.2 12.1 165.6 12.1 165.9 12.1 C 165.0 12.4 162.4 12.1 161.4 12.3 C 161.2 12.4 164.5 12.4 160.7 12.5 C 161.4 12.7 164.9 12.6 166.6 12.6 C 166.2 12.8 163.8 12.8 164.0 13.1 C 166.0 12.9 168.2 12.9 168.5 12.5 C 165.6 12.4 166.6 12.2 165.9 12.1 C 165.9 12.1 165.9 12.1 165.9 12.1 Z M 169.2 12.3 C 168.9 12.2 168.3 12.3 167.3 12.2 C 168.8 12.6 169.8 12.5 173.1 12.6 C 173.1 12.6 173.1 12.5 173.1 12.5 C 173.7 12.5 174.4 12.5 175.0 12.5 C 172.2 12.2 171.5 12.3 168.5 12.3 C 168.4 12.3 168.8 12.3 169.2 12.3 C 169.2 12.3 169.2 12.3 169.2 12.3 Z M 84.8 18.8 C 85.6 18.8 86.3 18.8 87.8 18.6 C 87.6 18.4 86.7 18.4 84.8 18.8 C 84.8 18.8 84.8 18.8 84.8 18.8 Z M 211.2 15.5 C 212.9 15.5 209.6 15.3 210.6 15.6 C 211.9 15.9 213.3 16.2 213.6 16.4 C 216.1 16.4 210.9 15.7 211.2 15.5 C 211.2 15.5 211.2 15.5 211.2 15.5 Z M 199.9 14.8 C 199.2 14.7 199.2 14.3 200.0 14.6 C 201.7 14.8 198.5 14.3 201.2 14.6 C 200.1 14.4 197.4 14.0 196.2 14.1 C 196.2 14.3 198.6 14.4 198.7 14.6 C 198.8 14.7 198.4 14.7 198.0 14.6 C 198.3 14.8 198.8 14.7 199.9 14.8 C 199.9 14.8 199.9 14.8 199.9 14.8 Z M 190.5 13.6 C 191.5 13.8 192.7 14.0 194.9 14.2 C 193.5 13.9 192.7 13.6 190.5 13.6 C 190.5 13.6 190.5 13.6 190.5 13.6 Z M 301.0 48.3 C 300.3 47.5 300.7 48.4 300.8 48.5 C 301.5 49.4 301.6 49.3 302.3 50.3 C 302.3 49.8 301.3 49.1 301.0 48.3 C 301.0 48.3 301.0 48.3 301.0 48.3 Z M 303.3 51.7 C 303.2 51.9 304.0 53.1 303.9 53.2 C 304.7 53.7 304.5 55.1 304.8 54.9 C 304.9 55.2 305.0 55.5 305.1 56.0 C 305.2 54.9 304.0 52.7 303.3 51.7 C 303.3 51.7 303.3 51.7 303.3 51.7 Z M 179.5 13.4 C 177.8 13.3 180.0 13.8 178.2 13.7 C 178.1 13.8 181.5 14.0 179.5 14.0 C 182.1 14.3 179.3 13.5 179.5 13.4 C 179.5 13.4 179.5 13.4 179.5 13.4 Z M 147.8 13.4 C 147.9 13.2 145.5 13.4 144.5 13.4 C 144.5 13.4 145.3 13.4 145.8 13.4 C 145.6 13.5 145.2 13.6 144.5 13.6 C 145.1 13.8 146.8 13.4 147.8 13.4 C 147.8 13.4 147.8 13.4 147.8 13.4 Z M 183.0 9.4 C 184.0 9.7 185.4 10.0 186.2 9.7 C 187.3 10.0 185.4 9.9 186.8 10.1 C 188.6 10.1 187.7 10.3 190.7 10.4 C 190.1 10.7 192.2 10.8 192.6 11.0 C 191.4 11.0 189.9 10.6 189.3 10.8 C 190.3 10.9 189.8 11.1 189.3 10.9 C 187.4 10.6 191.7 10.7 189.4 10.4 C 188.7 10.7 185.2 9.9 183.0 9.8 C 183.9 9.6 181.3 9.4 183.0 9.4 C 183.0 9.4 183.0 9.4 183.0 9.4 Z M 194.5 10.7 C 196.1 10.8 196.8 11.4 196.4 11.3 C 196.4 11.2 194.7 11.1 194.5 11.2 C 194.9 11.2 195.3 11.3 195.1 11.3 C 192.3 11.1 193.3 10.9 192.6 10.7 C 194.2 10.7 194.6 10.9 195.2 10.8 C 194.8 10.8 194.4 10.8 194.5 10.7 C 194.5 10.7 194.5 10.7 194.5 10.7 Z M 226.8 18.8 C 226.5 18.6 226.1 18.7 225.6 18.6 C 225.5 18.3 222.4 18.2 222.0 18.0 C 222.7 18.0 224.3 18.2 225.0 18.2 C 224.2 18.0 224.1 18.0 223.2 17.9 C 223.4 17.7 225.2 18.0 225.7 17.9 C 225.8 18.1 226.7 18.0 226.9 18.2 C 224.5 17.9 228.1 19.0 226.8 18.8 C 226.8 18.8 226.8 18.8 226.8 18.8 Z M 164.7 13.3 C 164.4 13.6 167.2 14.2 164.6 14.4 C 164.1 14.2 163.8 14.0 164.0 13.7 C 162.4 13.9 161.7 13.6 160.7 13.9 C 157.8 13.1 163.0 13.9 164.7 13.3 C 164.7 13.3 164.7 13.3 164.7 13.3 Z M 154.2 13.6 C 154.8 13.3 153.3 13.4 153.6 13.2 C 154.8 13.3 158.9 13.1 157.5 13.2 C 156.2 13.3 156.2 13.5 154.2 13.6 C 154.2 13.6 154.2 13.6 154.2 13.6 Z M 80.0 103.0 C 78.2 102.8 77.3 102.2 78.4 102.3 C 77.9 102.4 80.7 102.9 80.0 103.0 C 80.0 103.0 80.0 103.0 80.0 103.0 Z M 11.5 74.9 C 12.3 76.3 13.0 76.9 13.0 77.2 C 11.9 76.1 12.1 76.1 11.3 75.0 C 11.2 75.0 10.7 74.4 10.7 74.2 C 11.1 74.8 11.1 74.6 11.5 74.9 C 11.5 74.9 11.5 74.9 11.5 74.9 Z M 114.6 10.1 C 114.4 10.0 113.7 10.0 114.0 9.8 C 115.9 9.7 118.1 9.3 119.7 9.0 C 119.7 9.1 119.7 9.3 119.7 9.4 C 116.6 9.5 115.9 9.8 114.6 10.1 C 114.6 10.1 114.6 10.1 114.6 10.1 Z M 110.8 10.0 C 110.5 10.2 111.5 10.4 110.2 10.5 C 110.2 10.3 107.8 10.3 108.9 10.2 C 109.3 10.3 109.9 10.2 110.8 10.0 C 110.8 10.0 110.8 10.0 110.8 10.0 Z M 219.1 12.8 C 220.6 13.0 218.4 12.5 218.5 12.4 C 219.6 12.6 221.1 12.8 221.5 13.0 C 220.5 12.8 219.6 13.1 219.1 12.8 C 219.1 12.8 219.1 12.8 219.1 12.8 Z M 195.8 10.7 C 192.5 10.5 194.0 10.2 190.7 9.9 C 192.1 9.8 195.0 10.1 195.9 9.9 C 195.8 10.1 196.6 10.2 196.5 10.3 C 195.3 10.2 195.1 10.1 193.9 10.0 C 194.4 10.3 194.4 10.2 193.9 10.4 C 194.8 10.5 195.3 10.5 195.8 10.5 C 195.6 10.6 196.8 10.8 195.8 10.7 C 195.8 10.7 195.8 10.7 195.8 10.7 Z M 218.4 13.4 C 219.6 13.5 220.7 14.0 219.6 13.8 C 219.4 13.6 218.6 13.7 218.3 13.5 C 220.1 13.7 216.9 13.2 217.8 13.1 C 218.9 13.3 219.2 13.3 219.0 13.1 C 219.7 13.2 220.8 13.3 220.9 13.4 C 220.4 13.4 219.7 13.2 219.7 13.3 C 220.0 13.4 220.4 13.4 220.2 13.5 C 219.2 13.3 218.7 13.3 218.4 13.4 C 218.4 13.4 218.4 13.4 218.4 13.4 Z M 209.7 12.2 C 211.4 12.5 211.6 12.7 212.2 12.9 C 209.9 12.6 209.6 12.2 207.9 11.9 C 209.8 12.1 211.7 12.1 212.3 12.3 C 211.4 12.3 209.9 12.1 209.7 12.2 C 209.7 12.2 209.7 12.2 209.7 12.2 Z M 242.4 103.7 C 241.1 103.9 240.0 104.0 238.4 104.2 C 238.0 104.6 240.9 104.4 239.7 104.5 C 238.1 104.9 239.1 104.3 237.9 104.6 C 239.2 104.6 232.4 106.0 232.1 105.7 C 233.1 105.5 233.4 105.4 233.2 105.3 C 235.9 104.8 236.9 104.3 238.9 103.8 C 240.4 103.8 244.7 103.0 246.8 102.1 C 248.4 102.2 250.8 101.1 252.9 100.9 C 253.4 100.6 251.2 101.1 252.8 100.6 C 253.9 100.6 253.1 100.9 254.5 100.6 C 254.6 100.5 254.3 100.4 255.0 100.2 C 254.9 100.3 255.8 100.1 256.1 100.1 C 253.2 100.9 256.4 100.4 254.1 101.1 C 253.1 101.2 255.0 100.4 252.4 101.1 C 251.5 101.4 250.6 101.8 250.8 101.9 C 250.1 102.1 249.7 102.3 249.2 102.4 C 250.2 101.9 245.5 103.5 247.5 102.6 C 247.7 102.6 249.2 102.2 250.3 101.8 C 249.2 101.8 248.1 102.3 246.4 102.8 C 245.6 102.8 246.7 102.5 245.8 102.6 C 244.4 103.1 246.3 102.9 245.3 103.2 C 245.8 103.1 246.4 103.0 246.4 103.0 C 244.1 103.4 243.2 103.8 241.9 104.1 C 242.7 103.8 240.5 104.2 242.4 103.7 C 242.4 103.7 242.4 103.7 242.4 103.7 Z M 261.8 98.2 C 262.3 98.0 262.8 97.9 263.3 97.7 C 263.5 97.9 261.5 98.6 263.0 98.3 C 260.7 99.0 263.0 98.0 261.8 98.2 C 261.8 98.2 261.8 98.2 261.8 98.2 Z M 251.1 100.4 C 250.2 100.4 250.8 100.8 250.0 101.0 C 251.3 100.6 252.5 100.2 252.8 100.4 C 251.2 100.8 250.5 100.9 249.0 101.4 C 250.4 100.7 247.2 101.6 246.6 101.4 C 247.8 101.1 248.8 100.7 250.4 100.3 C 250.2 100.5 252.6 100.0 251.1 100.4 C 251.1 100.4 251.1 100.4 251.1 100.4 Z M 255.2 98.9 C 255.6 99.0 257.9 98.2 257.4 98.6 C 256.0 99.0 255.5 99.2 255.9 99.3 C 254.9 99.6 254.7 99.6 253.8 99.8 C 253.1 99.7 254.8 99.3 255.3 99.0 C 255.0 99.1 254.6 99.1 255.2 98.9 C 255.2 98.9 255.2 98.9 255.2 98.9 Z M 299.4 75.5 C 299.9 75.3 298.3 76.7 297.9 77.0 C 298.5 76.7 298.4 77.0 297.4 78.0 C 297.6 77.4 296.1 78.8 294.9 79.3 C 294.8 79.7 296.2 78.7 294.6 80.0 C 293.3 80.9 292.3 81.8 290.1 83.2 C 289.5 83.3 290.4 82.7 290.9 82.2 C 289.5 83.2 289.8 82.8 288.7 83.5 C 288.9 83.5 288.0 84.1 287.6 84.2 C 289.6 82.9 284.6 85.6 286.8 84.2 C 287.0 84.2 287.5 83.9 287.9 83.5 C 287.5 84.2 290.2 82.4 290.9 82.2 C 291.6 81.0 294.4 79.4 296.9 77.4 C 297.2 77.4 296.5 78.1 297.1 77.6 C 297.1 77.4 297.9 76.8 298.2 76.4 C 298.2 76.5 298.6 76.3 299.1 75.9 C 299.1 75.8 299.1 75.7 299.4 75.5 C 299.4 75.5 299.4 75.5 299.4 75.5 Z M 139.3 109.1 C 139.4 108.7 135.3 108.8 134.1 108.8 C 134.3 108.4 141.6 108.9 139.3 109.1 C 139.3 109.1 139.3 109.1 139.3 109.1 Z M 164.6 109.2 C 163.5 109.2 164.3 109.5 163.3 109.5 C 163.3 109.2 160.8 109.8 160.7 109.5 C 161.9 109.3 162.7 109.3 164.6 109.2 C 164.6 109.2 164.6 109.2 164.6 109.2 Z M 187.9 108.4 C 186.0 108.6 188.9 108.5 188.5 108.6 C 186.9 108.7 185.2 108.8 185.3 108.6 C 186.8 108.6 187.7 108.2 187.9 108.4 C 187.9 108.4 187.9 108.4 187.9 108.4 Z M 152.9 109.0 C 151.3 108.9 153.9 108.6 154.2 108.8 C 152.5 108.8 155.3 109.0 156.8 108.9 C 156.7 109.2 156.1 109.2 156.8 109.4 C 154.5 109.5 156.4 109.2 154.8 109.2 C 153.7 109.3 154.9 109.3 154.8 109.5 C 154.2 109.5 153.6 109.5 152.9 109.5 C 152.9 109.3 152.9 109.2 152.9 109.1 C 153.7 109.1 154.4 109.1 154.2 108.9 C 153.6 108.9 153.4 109.0 152.9 109.0 C 152.9 109.0 152.9 109.0 152.9 109.0 Z M 268.2 92.7 C 266.9 93.2 268.1 92.8 269.0 92.5 C 269.2 92.3 269.9 91.6 271.4 91.3 C 268.3 92.7 272.5 91.2 270.8 92.0 C 270.0 92.1 268.1 93.1 266.5 93.6 C 265.8 93.6 267.4 92.7 268.2 92.7 C 268.2 92.7 268.2 92.7 268.2 92.7 Z M 273.9 90.6 C 273.7 90.6 273.2 90.8 272.2 91.2 C 273.2 90.6 271.8 91.1 273.0 90.6 C 272.9 90.7 276.9 89.1 274.6 90.2 C 272.4 90.9 275.2 90.0 276.2 89.7 C 275.1 90.1 273.4 91.1 273.1 91.0 C 273.6 90.8 274.0 90.6 273.9 90.6 C 273.9 90.6 273.9 90.6 273.9 90.6 Z M 304.1 68.0 C 304.0 67.8 303.7 68.4 303.5 68.5 C 304.5 66.8 304.9 65.3 305.2 64.5 C 305.0 65.3 305.1 65.4 305.4 64.9 C 305.0 65.8 305.1 66.0 304.9 66.3 C 304.9 65.5 304.6 66.9 304.1 68.0 C 304.1 68.0 304.1 68.0 304.1 68.0 Z M 304.1 68.0 " fill="#000000"></path><image xlink:href="../../CEFA4209-80C9-472B-8D2B-058B96531B72/assets/B3801F04380499D666F22482CDF7C3B4.png" width="87.00" height="38.00" transform="matrix(1.00, 0.00, -0.00, -1.00, 116.0, 75.0)"></image><g><clipPath id="clip-889"><path d="M 10.0 11.0 L 308.2 11.0 L 308.2 111.0 L 10.0 111.0 Z M 10.0 11.0 "></path></clipPath><g clip-path="url(#clip-889)"><text xml:space="preserve" font-family="Chalkduster" font-size="32.0" fill="#000000" transform="matrix(1.00, 0.00, -0.00, -1.00, 120.0, 46.0)">C</text><text xml:space="preserve" font-family="Chalkduster" font-size="32.0" fill="#000000" transform="matrix(1.00, 0.00, -0.00, -1.00, 146.0, 46.0)">A</text><text xml:space="preserve" font-family="Chalkduster" font-size="32.0" fill="#000000" transform="matrix(1.00, 0.00, -0.00, -1.00, 168.7, 46.0)">W</text></g></g></g></svg>