<?xml version="1.0" encoding="UTF-8" standalone="no"?><svg xmlns="http://www.w3.org/2000/svg" xmlns:xlink="http://www.w3.org/1999/xlink" clip-rule="evenodd" stroke-miterlimit="4.00" viewBox="0 0 574 430"><desc>SVG generated by Keynote</desc><defs><pattern id="06411168-5DD3-4463-ADB4-BFA99F50C8AE" patternUnits="userSpaceOnUse" width="400" height="400" viewBox="0 0 400 400" patternTransform="matrix(1.000000, 0.000000, 0.000000, -1.000000, 2.000000, 177.000000)"><image xlink:href="../../DBD367A3-D10B-4655-877C-4BCDAAFCFA3E/assets/CFA53D52FE8B7C3E70EDC25518D34A22.jpeg" width="400.00" height="400.00"></image></pattern><pattern id="213B17A0-585D-4185-9DCE-BACFE3878087" patternUnits="userSpaceOnUse" width="400" height="400" viewBox="0 0 400 400" patternTransform="matrix(1.000000, 0.000000, 0.000000, -1.000000, 2.000000, 104.000000)"><image xlink:href="../../DBD367A3-D10B-4655-877C-4BCDAAFCFA3E/assets/CFA53D52FE8B7C3E70EDC25518D34A22.jpeg" width="400.00" height="400.00"></image></pattern><pattern id="8A05D45F-6B17-4C00-88E0-7491CEDD68AF" patternUnits="userSpaceOnUse" width="400" height="400" viewBox="0 0 400 400" patternTransform="matrix(1.000000, 0.000000, 0.000000, -1.000000, 2.000000, 355.000000)"><image xlink:href="../../DBD367A3-D10B-4655-877C-4BCDAAFCFA3E/assets/FF12AB0386DEC36020066F1246429BA7.jpeg" width="400.00" height="400.00"></image></pattern><pattern id="6A76A7CD-E976-4810-8589-0EE881DBBFCD" patternUnits="userSpaceOnUse" width="400" height="400" viewBox="0 0 400 400" patternTransform="matrix(1.000000, 0.000000, 0.000000, -1.000000, 2.000000, 282.000000)"><image xlink:href="../../DBD367A3-D10B-4655-877C-4BCDAAFCFA3E/assets/FF12AB0386DEC36020066F1246429BA7.jpeg" width="400.00" height="400.00"></image></pattern></defs><g transform="matrix(1.00, 0.00, -0.00, -1.00, 0.0, 430.0)"><g><clipPath id="clip-910"><path d="M 2.0 177.0 L 573.0 177.0 L 573.0 147.0 L 2.0 147.0 Z M 2.0 177.0 "></path></clipPath><g clip-path="url(#clip-910)"><g><clipPath id="clip-911"><path d="M 1.7 -5.6 L 652.1 -5.6 L 652.1 434.9 L 1.7 434.9 Z M 1.7 -5.6 "></path></clipPath><g clip-path="url(#clip-911)"><path d="M 2.0 147.0 L 573.0 147.0 L 573.0 177.0 L 2.0 177.0 Z M 2.0 147.0 " fill="url(#06411168-5DD3-4463-ADB4-BFA99F50C8AE)"></path></g></g></g></g><g><clipPath id="clip-912"><path d="M 2.0 104.0 L 434.0 104.0 L 434.0 74.0 L 2.0 74.0 Z M 2.0 104.0 "></path></clipPath><g clip-path="url(#clip-912)"><g><clipPath id="clip-913"><path d="M 1.7 -5.6 L 652.1 -5.6 L 652.1 434.9 L 1.7 434.9 Z M 1.7 -5.6 "></path></clipPath><g clip-path="url(#clip-913)"><path d="M 2.0 74.0 L 434.0 74.0 L 434.0 104.0 L 2.0 104.0 Z M 2.0 74.0 " fill="url(#213B17A0-585D-4185-9DCE-BACFE3878087)"></path></g></g></g></g><g><clipPath id="clip-914"><path d="M 2.0 31.0 L 395.0 31.0 L 395.0 1.0 L 2.0 1.0 Z M 2.0 31.0 "></path></clipPath><g clip-path="url(#clip-914)"><g><clipPath id="clip-915"><path d="M 1.7 -5.6 L 652.1 -5.6 L 652.1 434.9 L 1.7 434.9 Z M 1.7 -5.6 "></path></clipPath><g clip-path="url(#clip-915)"><image xlink:href="../../DBD367A3-D10B-4655-877C-4BCDAAFCFA3E/assets/CFA53D52FE8B7C3E70EDC25518D34A22.jpeg" width="400.00" height="400.00" transform="matrix(1.00, 0.00, -0.00, -1.00, 2.0, 31.0)"></image></g></g></g></g><g><clipPath id="clip-916"><path d="M 2.0 428.0 L 232.0 428.0 L 232.0 399.0 L 2.0 399.0 Z M 2.0 428.0 "></path></clipPath><g clip-path="url(#clip-916)"><g><clipPath id="clip-917"><path d="M 1.7 -5.6 L 652.1 -5.6 L 652.1 434.9 L 1.7 434.9 Z M 1.7 -5.6 "></path></clipPath><g clip-path="url(#clip-917)"><image xlink:href="../../DBD367A3-D10B-4655-877C-4BCDAAFCFA3E/assets/FF12AB0386DEC36020066F1246429BA7.jpeg" width="400.00" height="400.00" transform="matrix(1.00, 0.00, -0.00, -1.00, 2.0, 428.0)"></image></g></g></g></g><g><clipPath id="clip-918"><path d="M 2.0 355.0 L 530.0 355.0 L 530.0 326.0 L 2.0 326.0 Z M 2.0 355.0 "></path></clipPath><g clip-path="url(#clip-918)"><g><clipPath id="clip-919"><path d="M 1.7 -5.6 L 652.1 -5.6 L 652.1 434.9 L 1.7 434.9 Z M 1.7 -5.6 "></path></clipPath><g clip-path="url(#clip-919)"><path d="M 2.0 326.0 L 530.0 326.0 L 530.0 355.0 L 2.0 355.0 Z M 2.0 326.0 " fill="url(#8A05D45F-6B17-4C00-88E0-7491CEDD68AF)"></path></g></g></g></g><g><clipPath id="clip-920"><path d="M 2.0 282.0 L 535.0 282.0 L 535.0 253.0 L 2.0 253.0 Z M 2.0 282.0 "></path></clipPath><g clip-path="url(#clip-920)"><g><clipPath id="clip-921"><path d="M 1.7 -5.6 L 652.1 -5.6 L 652.1 434.9 L 1.7 434.9 Z M 1.7 -5.6 "></path></clipPath><g clip-path="url(#clip-921)"><path d="M 2.0 253.0 L 535.0 253.0 L 535.0 282.0 L 2.0 282.0 Z M 2.0 253.0 " fill="url(#6A76A7CD-E976-4810-8589-0EE881DBBFCD)"></path></g></g></g></g></g></svg>