<?xml version="1.0" encoding="UTF-8" standalone="no"?><svg xmlns="http://www.w3.org/2000/svg" xmlns:xlink="http://www.w3.org/1999/xlink" clip-rule="evenodd" stroke-miterlimit="4.00" viewBox="0 0 537 179"><desc>SVG generated by Keynote</desc><defs><pattern id="5683E053-E03F-4EA9-952A-5D82E90BFF22" patternUnits="userSpaceOnUse" width="400" height="400" viewBox="0 0 400 400" patternTransform="matrix(1.000000, 0.000000, 0.000000, -1.000000, 2.000000, 104.000000)"><image xlink:href="../../DBD367A3-D10B-4655-877C-4BCDAAFCFA3E/assets/FF12AB0386DEC36020066F1246429BA7.jpeg" width="400.00" height="400.00"></image></pattern><pattern id="2CA2E504-3610-477E-8C7D-4D8461F6FFD1" patternUnits="userSpaceOnUse" width="400" height="400" viewBox="0 0 400 400" patternTransform="matrix(1.000000, 0.000000, 0.000000, -1.000000, 2.000000, 31.000000)"><image xlink:href="../../DBD367A3-D10B-4655-877C-4BCDAAFCFA3E/assets/FF12AB0386DEC36020066F1246429BA7.jpeg" width="400.00" height="400.00"></image></pattern></defs><g transform="matrix(1.00, 0.00, -0.00, -1.00, 0.0, 179.0)"><g><clipPath id="clip-906"><path d="M 2.0 177.0 L 232.0 177.0 L 232.0 148.0 L 2.0 148.0 Z M 2.0 177.0 "></path></clipPath><g clip-path="url(#clip-906)"><g><clipPath id="clip-907"><path d="M 1.7 -256.6 L 652.1 -256.6 L 652.1 183.9 L 1.7 183.9 Z M 1.7 -256.6 "></path></clipPath><g clip-path="url(#clip-907)"><image xlink:href="FF12AB0386DEC36020066F1246429BA7.jpeg" width="400.00" height="400.00" transform="matrix(1.00, 0.00, -0.00, -1.00, 2.0, 177.0)"></image></g></g></g></g><g><clipPath id="clip-908"><path d="M 2.0 104.0 L 530.0 104.0 L 530.0 75.0 L 2.0 75.0 Z M 2.0 104.0 "></path></clipPath><g clip-path="url(#clip-908)"><g><clipPath id="clip-909"><path d="M 1.7 -256.6 L 652.1 -256.6 L 652.1 183.9 L 1.7 183.9 Z M 1.7 -256.6 "></path></clipPath><g clip-path="url(#clip-909)"><path d="M 2.0 75.0 L 530.0 75.0 L 530.0 104.0 L 2.0 104.0 Z M 2.0 75.0 " fill="url(#5683E053-E03F-4EA9-952A-5D82E90BFF22)"></path></g></g></g></g><g><clipPath id="clip-910"><path d="M 2.0 31.0 L 535.0 31.0 L 535.0 2.0 L 2.0 2.0 Z M 2.0 31.0 "></path></clipPath><g clip-path="url(#clip-910)"><g><clipPath id="clip-911"><path d="M 1.7 -256.6 L 652.1 -256.6 L 652.1 183.9 L 1.7 183.9 Z M 1.7 -256.6 "></path></clipPath><g clip-path="url(#clip-911)"><path d="M 2.0 2.0 L 535.0 2.0 L 535.0 31.0 L 2.0 31.0 Z M 2.0 2.0 " fill="url(#2CA2E504-3610-477E-8C7D-4D8461F6FFD1)"></path></g></g></g></g></g></svg>