<?xml version="1.0" encoding="UTF-8" standalone="no"?><svg xmlns="http://www.w3.org/2000/svg" xmlns:xlink="http://www.w3.org/1999/xlink" clip-rule="evenodd" stroke-miterlimit="4.00" viewBox="0 0 574 178"><desc>SVG generated by Keynote</desc><defs><pattern id="28A134D4-CEA5-44B2-89EA-5F754F076A1A" patternUnits="userSpaceOnUse" width="400" height="400" viewBox="0 0 400 400" patternTransform="matrix(1.000000, 0.000000, 0.000000, -1.000000, 2.000000, 177.000000)"><image xlink:href="CFA53D52FE8B7C3E70EDC25518D34A22.jpeg" width="400.00" height="400.00"></image></pattern><pattern id="5218E9A9-D676-4B6C-A63D-BE76E43A91E5" patternUnits="userSpaceOnUse" width="400" height="400" viewBox="0 0 400 400" patternTransform="matrix(1.000000, 0.000000, 0.000000, -1.000000, 2.000000, 104.000000)"><image xlink:href="../../DBD367A3-D10B-4655-877C-4BCDAAFCFA3E/assets/CFA53D52FE8B7C3E70EDC25518D34A22.jpeg" width="400.00" height="400.00"></image></pattern></defs><g transform="matrix(1.00, 0.00, -0.00, -1.00, 0.0, 178.0)"><g><clipPath id="clip-900"><path d="M 2.0 177.0 L 573.0 177.0 L 573.0 147.0 L 2.0 147.0 Z M 2.0 177.0 "></path></clipPath><g clip-path="url(#clip-900)"><g><clipPath id="clip-901"><path d="M 1.7 -5.6 L 652.1 -5.6 L 652.1 434.9 L 1.7 434.9 Z M 1.7 -5.6 "></path></clipPath><g clip-path="url(#clip-901)"><path d="M 2.0 147.0 L 573.0 147.0 L 573.0 177.0 L 2.0 177.0 Z M 2.0 147.0 " fill="url(#28A134D4-CEA5-44B2-89EA-5F754F076A1A)"></path></g></g></g></g><g><clipPath id="clip-902"><path d="M 2.0 104.0 L 434.0 104.0 L 434.0 74.0 L 2.0 74.0 Z M 2.0 104.0 "></path></clipPath><g clip-path="url(#clip-902)"><g><clipPath id="clip-903"><path d="M 1.7 -5.6 L 652.1 -5.6 L 652.1 434.9 L 1.7 434.9 Z M 1.7 -5.6 "></path></clipPath><g clip-path="url(#clip-903)"><path d="M 2.0 74.0 L 434.0 74.0 L 434.0 104.0 L 2.0 104.0 Z M 2.0 74.0 " fill="url(#5218E9A9-D676-4B6C-A63D-BE76E43A91E5)"></path></g></g></g></g><g><clipPath id="clip-904"><path d="M 2.0 31.0 L 395.0 31.0 L 395.0 1.0 L 2.0 1.0 Z M 2.0 31.0 "></path></clipPath><g clip-path="url(#clip-904)"><g><clipPath id="clip-905"><path d="M 1.7 -5.6 L 652.1 -5.6 L 652.1 434.9 L 1.7 434.9 Z M 1.7 -5.6 "></path></clipPath><g clip-path="url(#clip-905)"><image xlink:href="../../DBD367A3-D10B-4655-877C-4BCDAAFCFA3E/assets/CFA53D52FE8B7C3E70EDC25518D34A22.jpeg" width="400.00" height="400.00" transform="matrix(1.00, 0.00, -0.00, -1.00, 2.0, 31.0)"></image></g></g></g></g></g></svg>