<?xml version="1.0" encoding="UTF-8" standalone="no"?><svg xmlns="http://www.w3.org/2000/svg" xmlns:xlink="http://www.w3.org/1999/xlink" clip-rule="evenodd" stroke-miterlimit="4.00" viewBox="0 0 574 178"><desc>SVG generated by Keynote</desc><defs><pattern id="1C2B5B16-8342-475A-8DC4-D06D8E740A2D" patternUnits="userSpaceOnUse" width="400" height="400" viewBox="0 0 400 400" patternTransform="matrix(1.000000, 0.000000, 0.000000, -1.000000, 2.000000, 177.000000)"><image xlink:href="CFA53D52FE8B7C3E70EDC25518D34A22.jpeg" width="400.00" height="400.00"></image></pattern><pattern id="CE6241B9-4674-496C-86D0-3CB673F809ED" patternUnits="userSpaceOnUse" width="400" height="400" viewBox="0 0 400 400" patternTransform="matrix(1.000000, 0.000000, 0.000000, -1.000000, 2.000000, 104.000000)"><image xlink:href="../../DBD367A3-D10B-4655-877C-4BCDAAFCFA3E/assets/CFA53D52FE8B7C3E70EDC25518D34A22.jpeg" width="400.00" height="400.00"></image></pattern></defs><g transform="matrix(1.00, 0.00, -0.00, -1.00, 0.0, 178.0)"><g><clipPath id="clip-896"><path d="M 2.0 177.0 L 573.0 177.0 L 573.0 147.0 L 2.0 147.0 Z M 2.0 177.0 "></path></clipPath><g clip-path="url(#clip-896)"><g><clipPath id="clip-897"><path d="M 1.7 -5.6 L 652.1 -5.6 L 652.1 434.9 L 1.7 434.9 Z M 1.7 -5.6 "></path></clipPath><g clip-path="url(#clip-897)"><path d="M 2.0 147.0 L 573.0 147.0 L 573.0 177.0 L 2.0 177.0 Z M 2.0 147.0 " fill="url(#1C2B5B16-8342-475A-8DC4-D06D8E740A2D)"></path></g></g></g></g><g><clipPath id="clip-898"><path d="M 2.0 104.0 L 434.0 104.0 L 434.0 74.0 L 2.0 74.0 Z M 2.0 104.0 "></path></clipPath><g clip-path="url(#clip-898)"><g><clipPath id="clip-899"><path d="M 1.7 -5.6 L 652.1 -5.6 L 652.1 434.9 L 1.7 434.9 Z M 1.7 -5.6 "></path></clipPath><g clip-path="url(#clip-899)"><path d="M 2.0 74.0 L 434.0 74.0 L 434.0 104.0 L 2.0 104.0 Z M 2.0 74.0 " fill="url(#CE6241B9-4674-496C-86D0-3CB673F809ED)"></path></g></g></g></g><g><clipPath id="clip-900"><path d="M 2.0 31.0 L 395.0 31.0 L 395.0 1.0 L 2.0 1.0 Z M 2.0 31.0 "></path></clipPath><g clip-path="url(#clip-900)"><g><clipPath id="clip-901"><path d="M 1.7 -5.6 L 652.1 -5.6 L 652.1 434.9 L 1.7 434.9 Z M 1.7 -5.6 "></path></clipPath><g clip-path="url(#clip-901)"><image xlink:href="../../DBD367A3-D10B-4655-877C-4BCDAAFCFA3E/assets/CFA53D52FE8B7C3E70EDC25518D34A22.jpeg" width="400.00" height="400.00" transform="matrix(1.00, 0.00, -0.00, -1.00, 2.0, 31.0)"></image></g></g></g></g></g></svg>