<?xml version="1.0" encoding="UTF-8" standalone="no"?><svg xmlns="http://www.w3.org/2000/svg" xmlns:xlink="http://www.w3.org/1999/xlink" clip-rule="evenodd" stroke-miterlimit="4.00" viewBox="0 0 319 121"><desc>SVG generated by Keynote</desc><defs></defs><g transform="matrix(1.00, 0.00, -0.00, -1.00, 0.0, 121.0)"><image xlink:href="../../CEFA4209-80C9-472B-8D2B-058B96531B72/assets/C96CBBF2F715F6E2E3B6F8A701A0292F.png" width="316.00" height="118.00" transform="matrix(1.00, 0.00, -0.00, -1.00, 1.1, 119.4)" opacity="0.50"></image><g><clipPath id="clip-886"><path d="M 264.6 95.8 C 322.8 76.2 322.8 44.6 264.6 25.1 C 206.4 5.5 112.0 5.5 53.8 25.1 C -4.4 44.6 -4.4 76.2 53.8 95.8 C 112.0 115.3 206.4 115.3 264.6 95.8 Z M 264.6 95.8 "></path></clipPath><g clip-path="url(#clip-886)"><image xlink:href="../../CEFA4209-80C9-472B-8D2B-058B96531B72/assets/59DBD66EA15A3D40E065F836EF2595FD.jpeg" width="400.00" height="400.00" transform="matrix(1.00, 0.00, -0.00, -1.00, 10.1, 110.4)"></image></g></g><path d="M 81.0 13.9 C 80.6 14.0 80.1 14.2 79.3 14.3 C 79.6 14.3 79.9 14.3 79.9 14.4 C 80.5 14.2 81.4 14.0 82.8 13.8 C 82.8 13.7 82.1 13.8 81.6 13.9 C 81.0 14.0 81.1 13.9 81.0 13.9 C 81.0 13.9 81.0 13.9 81.0 13.9 Z M 72.5 104.5 C 71.4 104.2 72.6 104.8 73.0 104.9 C 73.1 104.8 73.1 104.8 73.6 104.9 C 73.6 105.1 72.6 105.0 71.8 104.8 C 68.7 104.0 71.1 104.2 72.5 104.5 C 72.5 104.5 72.5 104.5 72.5 104.5 Z M 240.7 105.5 C 243.2 105.0 240.4 105.3 240.0 105.3 C 241.2 105.0 240.2 104.9 241.7 104.5 C 242.0 104.5 242.5 104.5 242.8 104.6 C 242.2 104.7 241.2 104.9 241.1 105.0 C 242.0 104.8 243.2 104.5 243.4 104.6 C 241.5 105.1 243.2 104.9 243.5 105.0 C 241.8 105.3 241.3 105.7 240.7 105.5 C 240.7 105.5 240.7 105.5 240.7 105.5 Z M 281.1 28.7 C 282.0 29.1 282.8 29.5 282.5 29.5 C 281.5 29.1 280.9 28.7 280.3 28.4 C 280.2 28.4 280.4 28.7 279.5 28.3 C 278.6 27.7 279.2 27.6 279.8 27.7 C 279.8 27.9 283.1 29.4 281.1 28.7 C 281.1 28.7 281.1 28.7 281.1 28.7 Z M 211.7 11.3 C 209.4 10.9 211.6 11.7 209.2 11.3 C 209.3 11.1 208.9 10.7 210.5 10.9 C 210.6 11.1 211.6 11.2 211.7 11.3 C 211.7 11.3 211.7 11.3 211.7 11.3 Z M 169.9 111.6 C 169.9 111.8 171.7 111.7 171.3 111.9 C 170.4 111.9 169.6 111.9 168.7 111.9 C 168.5 111.8 168.8 111.6 169.9 111.6 C 169.9 111.6 169.9 111.6 169.9 111.6 Z M 256.7 99.1 C 259.2 98.7 261.5 97.5 260.9 98.0 C 261.8 98.0 259.4 99.2 259.4 98.9 C 259.1 98.7 254.8 99.7 256.7 99.1 C 256.7 99.1 256.7 99.1 256.7 99.1 Z M 86.6 103.2 C 89.3 104.0 88.9 103.2 90.7 103.8 C 90.0 103.7 89.7 103.7 89.5 103.8 C 89.9 103.9 90.6 104.0 90.6 104.1 C 89.3 103.9 87.7 103.6 86.6 103.2 C 86.6 103.2 86.6 103.2 86.6 103.2 Z M 123.0 8.6 C 123.5 8.5 123.7 8.5 123.7 8.4 C 125.7 8.2 125.6 8.1 126.9 8.1 C 126.9 8.4 125.2 8.4 123.7 8.5 C 123.6 8.6 123.1 8.7 123.0 8.6 C 123.0 8.6 123.0 8.6 123.0 8.6 Z M 180.5 8.5 C 180.4 8.3 179.2 8.2 181.1 8.2 C 183.3 8.6 181.3 8.7 179.1 8.8 C 179.1 8.9 179.1 9.0 179.1 9.1 C 180.0 9.1 180.6 9.2 181.1 9.2 C 181.5 8.9 182.9 9.6 186.2 9.6 C 184.7 9.7 186.3 10.1 184.3 9.8 C 184.8 10.1 183.4 10.0 183.6 10.2 C 184.5 10.1 186.7 10.3 186.2 9.9 C 187.4 10.0 188.2 10.1 188.8 10.2 C 189.6 10.5 186.7 10.1 187.5 10.4 C 188.1 10.4 188.3 10.5 188.8 10.6 C 188.9 10.5 188.7 10.3 189.4 10.4 C 191.5 10.6 189.0 10.6 192.0 10.9 C 192.2 10.7 191.3 10.6 191.4 10.5 C 192.7 10.5 192.6 10.7 193.9 10.6 C 194.2 10.8 193.0 10.8 193.9 10.9 C 194.7 10.6 196.6 11.3 198.4 11.2 C 197.2 10.5 198.7 11.3 200.3 11.0 C 200.7 11.1 199.5 11.3 200.9 11.5 C 200.5 10.8 206.1 11.5 201.6 10.6 C 204.0 10.8 204.9 10.4 203.0 10.2 C 207.2 10.7 205.8 10.3 207.4 10.4 C 209.0 10.6 206.6 10.4 207.4 10.7 C 205.7 10.5 206.1 10.7 204.9 10.4 C 204.9 10.6 204.6 10.6 204.2 10.6 C 205.9 10.6 207.9 11.2 206.6 11.4 C 205.8 11.2 206.6 11.0 205.5 10.9 C 205.8 11.3 204.2 10.7 204.1 10.9 C 204.9 11.3 202.4 11.3 204.8 11.6 C 204.8 11.5 204.8 11.4 204.8 11.2 C 205.4 11.3 206.0 11.4 206.6 11.4 C 207.2 11.7 206.7 11.9 207.3 12.0 C 208.3 12.1 208.8 12.1 209.2 12.1 C 207.9 11.9 206.4 11.5 208.5 11.7 C 207.7 12.0 211.5 12.1 209.8 12.2 C 212.1 12.6 213.2 12.4 213.4 12.8 C 214.7 12.9 213.9 12.5 215.3 12.8 C 217.6 13.3 217.2 12.9 220.2 13.5 C 220.6 13.2 220.5 13.7 221.5 13.8 C 221.5 13.7 221.5 13.5 221.5 13.4 C 222.6 13.8 225.0 14.3 227.5 14.5 C 228.1 14.6 227.6 14.8 229.3 15.0 C 231.0 15.0 233.0 15.7 235.2 15.8 C 235.3 16.0 236.7 16.3 237.5 16.3 C 237.8 16.5 236.7 16.6 238.0 16.9 C 238.9 16.8 237.4 16.4 239.2 16.7 C 239.0 16.9 240.9 16.9 240.9 17.2 C 240.3 17.1 239.7 17.1 239.1 17.0 C 239.9 17.2 239.7 17.3 240.3 17.4 C 240.2 17.1 241.6 17.7 242.0 17.8 C 242.0 17.7 242.2 17.6 242.6 17.6 C 243.6 17.9 244.4 18.0 244.9 18.1 C 246.1 18.5 244.1 18.1 245.4 18.4 C 246.1 18.0 247.2 18.9 249.9 19.2 C 250.4 19.5 251.5 19.9 253.1 20.4 C 253.3 20.2 251.5 19.9 251.5 19.7 C 253.9 20.4 251.1 19.4 252.6 19.9 C 256.0 20.9 258.2 21.5 261.5 22.8 C 261.5 22.6 264.2 23.3 264.1 23.3 C 263.8 23.2 264.1 23.4 264.6 23.7 C 265.2 24.0 266.7 24.6 267.7 24.9 C 268.3 24.7 271.3 25.4 271.5 25.3 C 272.1 25.7 271.9 25.7 272.1 26.1 C 275.1 27.4 276.8 27.7 278.4 28.9 C 278.3 28.6 279.7 29.1 280.8 29.6 C 280.4 29.6 279.7 29.5 279.1 29.3 C 280.5 30.0 280.7 30.2 281.9 30.7 C 283.5 30.7 285.1 32.5 286.3 32.4 C 288.1 33.4 287.7 33.4 289.3 34.4 C 289.3 34.2 289.6 34.2 290.1 34.5 C 289.0 33.9 288.1 33.6 287.6 33.0 C 290.1 34.3 283.1 29.8 287.4 31.8 C 287.5 32.0 287.0 32.0 287.9 32.5 C 290.3 33.7 289.0 32.7 288.0 32.2 C 289.7 33.0 291.2 34.0 290.1 33.0 C 293.6 34.9 291.3 33.8 292.4 34.7 C 298.3 38.2 304.4 43.1 307.6 49.0 C 308.1 49.1 309.4 52.4 309.6 53.5 C 310.5 55.1 310.9 56.9 310.6 57.5 C 311.0 57.7 310.7 59.6 310.9 59.8 C 310.9 59.0 311.0 58.5 311.1 59.3 C 311.1 61.8 310.3 65.5 310.0 67.1 C 309.4 67.8 308.8 69.4 308.4 70.6 C 308.1 70.7 308.5 69.8 308.1 70.4 C 308.2 70.7 307.0 73.0 306.5 73.5 C 307.0 72.8 307.2 71.9 306.5 72.9 C 306.6 73.0 305.8 74.1 306.1 73.9 C 305.0 75.2 304.5 76.2 303.3 77.2 C 304.2 76.2 304.5 75.6 304.5 75.3 C 304.0 76.2 303.5 76.9 302.7 77.3 C 303.2 77.4 301.8 78.5 300.5 79.9 C 300.0 80.2 299.7 80.4 298.5 81.4 C 298.0 82.0 300.5 80.0 299.2 81.2 C 299.1 81.1 297.7 82.0 298.2 82.0 C 296.5 83.2 295.6 84.1 293.9 84.9 C 295.9 83.7 294.3 84.3 293.8 84.6 C 293.3 84.9 292.7 85.3 292.7 85.4 C 292.8 85.5 293.7 84.8 293.9 84.8 C 292.5 85.6 292.3 86.2 291.6 86.4 C 292.3 86.0 292.3 85.8 291.6 86.2 C 291.6 86.7 287.0 89.0 288.5 88.0 C 288.5 88.1 290.2 87.1 290.3 86.9 C 289.8 87.0 287.3 88.6 287.7 88.1 C 289.2 87.2 289.2 87.5 290.9 86.4 C 290.9 86.1 291.9 85.5 292.4 85.0 C 289.9 86.7 289.3 87.2 288.8 87.2 C 287.6 87.9 288.6 87.7 286.4 88.8 C 283.3 90.4 285.7 88.8 284.9 89.2 C 282.2 90.7 283.2 90.6 284.5 90.2 C 282.3 91.3 281.6 91.7 278.7 93.0 C 278.8 92.8 279.1 92.5 280.1 92.0 C 280.2 92.0 282.7 91.1 282.4 91.0 C 282.0 90.8 280.1 91.6 276.9 92.9 C 277.8 92.9 277.9 92.7 274.6 94.0 C 275.3 94.1 273.0 94.6 273.0 94.8 C 273.2 94.8 274.4 94.4 275.5 93.9 C 275.4 94.1 275.1 94.4 274.0 94.8 C 273.2 95.0 272.8 95.4 270.6 96.1 C 270.4 95.9 271.9 95.3 272.1 95.1 C 271.0 95.5 270.8 95.7 269.6 96.2 C 268.6 96.3 268.5 96.0 268.5 95.6 C 269.8 95.1 271.9 94.3 270.2 94.8 C 275.1 92.9 270.1 95.2 271.9 94.5 C 273.8 93.4 272.9 94.3 276.0 93.0 C 276.9 92.6 277.2 92.4 277.5 92.2 C 277.3 92.2 275.4 92.7 277.4 91.9 C 277.9 91.9 279.0 91.5 280.5 90.9 C 280.4 90.7 277.3 92.0 280.4 90.6 C 281.9 90.0 280.7 90.9 282.7 89.9 C 282.6 89.8 283.2 89.6 283.3 89.4 C 280.5 90.9 283.8 89.0 281.8 89.8 C 284.2 88.5 282.3 89.9 283.9 89.0 C 283.9 88.8 286.6 87.8 286.5 87.5 C 285.6 88.1 283.6 89.1 283.8 88.7 C 285.6 87.9 292.9 83.4 290.3 85.4 C 291.2 84.7 295.7 81.1 295.5 81.5 C 294.2 82.5 294.3 82.6 294.2 82.9 C 296.6 80.8 298.0 80.0 300.0 77.7 C 297.5 79.9 299.1 77.9 297.4 79.1 C 296.8 79.7 295.7 80.4 295.6 80.7 C 296.1 80.6 297.1 79.6 297.5 79.2 C 297.6 79.3 297.8 79.5 297.9 79.6 C 294.8 81.9 293.0 83.4 291.2 84.4 C 292.7 83.4 288.1 85.9 289.9 84.7 C 290.7 84.4 292.5 83.3 293.9 82.4 C 293.8 82.4 293.8 82.3 293.7 82.2 C 294.3 81.8 295.2 81.2 295.2 81.1 C 293.4 82.5 292.2 82.9 290.9 84.0 C 290.9 83.9 290.9 83.9 290.8 83.8 C 290.5 84.0 290.2 84.2 290.3 84.1 C 290.9 83.7 291.8 83.1 291.9 83.0 C 290.4 83.9 290.0 83.8 288.3 84.8 C 288.5 84.4 286.1 85.4 288.5 83.8 C 289.1 83.8 290.4 83.1 290.5 83.2 C 291.2 82.9 292.6 81.9 293.1 81.4 C 292.4 81.7 291.0 82.5 290.8 82.4 C 291.8 81.6 292.6 81.0 293.4 80.7 C 291.3 82.3 294.7 80.0 295.6 79.6 C 295.3 79.7 294.8 80.0 294.5 80.1 C 296.0 78.9 296.8 78.5 296.7 78.2 C 298.3 76.6 298.1 77.2 299.2 76.1 C 298.3 76.6 299.8 75.4 298.9 75.8 C 300.6 74.0 299.6 75.5 300.2 74.9 C 300.7 74.4 300.7 74.2 301.1 73.7 C 301.9 73.0 303.1 71.5 303.5 71.4 C 304.0 70.7 304.2 70.7 304.6 70.0 C 304.6 69.7 304.6 69.5 304.8 69.1 C 304.9 69.0 305.3 68.6 305.3 68.4 C 303.9 70.1 304.3 69.6 302.7 71.4 C 302.6 71.6 302.4 71.9 302.8 71.5 C 301.9 72.9 301.4 73.2 300.4 74.4 C 300.1 74.4 299.6 74.4 298.7 75.6 C 298.8 75.2 298.4 75.4 298.8 74.9 C 299.5 74.5 300.3 73.8 301.0 73.0 C 301.0 72.9 300.8 73.0 301.2 72.5 C 301.6 72.2 302.1 71.7 302.4 71.1 C 302.4 71.2 302.4 71.4 302.3 71.6 C 303.7 69.9 302.9 70.3 303.9 69.1 C 303.6 69.2 303.1 70.1 303.4 69.3 C 304.1 68.0 304.3 67.8 304.7 67.2 C 304.6 67.1 304.5 67.1 304.7 66.8 C 305.2 66.0 304.2 68.9 305.2 67.5 C 305.1 67.3 305.8 65.8 306.0 65.7 C 306.0 66.2 305.4 67.0 305.5 67.1 C 306.7 64.4 306.1 67.2 306.9 64.3 C 306.8 64.3 306.7 64.3 306.6 64.3 C 306.4 65.4 306.1 65.4 305.9 65.3 C 305.6 66.2 305.2 66.5 304.9 67.4 C 304.7 66.9 305.3 66.6 305.7 65.6 C 305.4 65.5 305.1 66.4 304.8 66.4 C 305.9 64.3 305.7 63.8 306.3 61.7 C 305.9 62.1 306.3 60.5 306.1 60.6 C 306.1 62.4 305.4 61.6 305.3 61.9 C 305.2 63.0 305.7 62.6 305.7 63.3 C 305.4 63.6 305.3 63.4 305.0 63.2 C 305.3 62.2 305.2 62.3 305.1 61.5 C 305.4 60.9 305.9 60.3 306.0 61.3 C 305.9 61.1 305.8 59.7 306.0 59.6 C 306.0 60.9 306.1 59.4 306.2 60.2 C 306.4 59.2 305.8 57.4 305.7 56.1 C 305.6 56.2 305.4 55.7 305.3 55.8 C 305.9 57.0 305.4 57.4 305.6 58.6 C 305.5 58.1 305.3 58.4 305.3 58.6 C 305.3 57.4 304.9 56.9 304.9 55.9 C 304.8 55.9 304.7 56.0 304.6 56.0 C 304.4 54.5 304.3 54.7 303.6 53.7 C 303.6 53.2 304.2 53.6 304.5 53.7 C 304.2 53.2 303.1 51.1 303.5 52.4 C 302.9 51.2 303.3 51.4 302.5 50.2 C 302.3 50.3 303.0 51.4 302.5 51.2 C 301.7 50.1 302.4 50.5 301.6 49.7 C 301.7 49.6 301.9 49.4 301.1 48.5 C 301.5 49.3 300.9 48.4 300.6 48.2 C 300.9 48.7 301.2 49.1 301.3 49.4 C 300.0 47.6 299.6 47.3 298.1 45.9 C 298.9 46.2 298.1 45.4 299.2 46.2 C 298.2 45.5 297.1 44.1 296.5 43.8 C 297.1 44.4 298.0 45.3 298.3 45.7 C 295.3 42.9 293.2 41.7 289.6 39.1 C 290.3 39.5 291.1 40.0 291.3 40.0 C 290.9 39.8 290.2 39.3 290.2 39.3 C 291.6 40.1 292.7 40.9 293.4 41.3 C 294.3 42.2 292.7 41.0 293.7 41.8 C 294.0 41.9 295.8 43.4 295.3 42.7 C 293.4 41.5 291.8 40.0 291.1 39.1 C 289.0 38.3 290.8 39.4 288.4 38.5 C 288.5 38.4 288.1 38.1 287.4 37.6 C 287.9 38.3 285.2 36.6 284.9 36.4 C 286.1 36.9 290.0 39.0 288.2 37.5 C 288.8 38.6 283.6 34.8 284.5 35.8 C 281.7 34.4 282.9 34.6 281.1 34.1 C 281.1 34.0 281.4 34.0 280.6 33.6 C 279.8 33.2 279.5 33.1 279.1 33.0 C 283.2 35.1 281.8 34.8 284.3 36.2 C 283.9 35.9 283.5 35.7 283.6 35.9 C 283.5 35.9 283.5 35.9 282.9 35.6 C 282.9 35.2 280.8 34.6 280.3 34.1 C 281.1 34.5 281.9 34.9 281.7 34.6 C 278.3 33.1 279.2 33.0 274.0 30.7 C 275.5 31.5 273.4 30.7 271.5 30.0 C 268.9 28.9 270.1 29.0 266.7 27.8 C 266.7 28.1 265.8 27.8 264.4 27.2 C 262.9 26.7 262.2 26.4 261.0 26.2 C 261.3 26.0 258.2 24.9 257.4 24.9 C 257.4 24.8 256.2 24.5 255.4 24.3 C 255.2 24.1 256.2 24.3 255.5 24.0 C 254.7 23.9 255.3 24.3 254.3 24.1 C 253.2 23.7 253.5 23.5 251.8 23.0 C 251.7 23.2 252.6 23.4 251.7 23.3 C 250.2 22.8 248.9 22.5 250.1 23.1 C 247.8 22.5 249.0 22.3 246.9 21.8 C 247.5 22.1 247.4 22.2 246.3 21.9 C 245.5 21.6 245.5 21.5 245.3 21.3 C 244.6 21.3 244.8 21.4 243.0 20.9 C 243.0 21.0 243.0 21.1 242.9 21.2 C 242.1 21.0 240.9 20.8 240.7 20.7 C 242.2 21.0 241.9 20.7 242.5 20.8 C 241.0 20.4 238.0 19.5 240.2 20.3 C 238.1 19.9 239.2 19.8 237.4 19.5 C 238.4 20.0 237.5 19.6 235.7 19.3 C 235.8 19.6 234.5 19.1 233.4 18.9 C 233.5 19.1 233.2 19.2 232.2 19.0 C 232.3 18.9 231.6 18.7 230.5 18.5 C 230.4 18.6 232.9 19.2 230.4 18.7 C 229.3 18.4 229.4 18.1 227.5 17.8 C 227.2 17.5 229.2 17.9 228.8 17.6 C 227.3 17.6 226.8 17.3 224.6 16.9 C 225.4 17.5 220.1 16.8 222.7 17.4 C 221.9 17.3 220.8 17.5 220.3 17.1 C 221.1 17.2 219.7 16.8 219.8 16.7 C 218.7 16.6 216.2 16.1 216.1 16.3 C 218.5 16.5 218.4 16.8 219.1 17.0 C 215.7 16.7 212.8 16.2 213.0 15.9 C 213.0 16.0 212.5 16.0 212.4 16.0 C 213.6 16.1 214.3 16.6 213.0 16.5 C 213.3 16.3 212.3 16.1 211.2 15.9 C 211.1 16.1 206.6 15.2 207.5 15.6 C 209.3 15.7 210.7 16.2 209.3 16.2 C 208.2 15.8 205.7 15.4 206.3 15.3 C 205.6 15.3 205.0 15.3 204.4 15.3 C 203.8 15.5 205.2 15.6 204.9 15.8 C 204.0 15.7 202.6 15.6 202.4 15.4 C 204.9 15.7 201.2 15.2 203.8 15.2 C 202.2 15.1 201.8 14.9 200.6 14.8 C 200.6 14.8 200.1 14.8 200.0 14.9 C 201.1 14.8 202.2 15.1 201.8 15.3 C 199.6 15.1 200.0 14.9 198.1 14.7 C 197.5 14.8 194.9 14.9 193.6 14.6 C 196.1 14.8 193.4 14.5 194.9 14.5 C 197.2 14.8 197.8 14.6 198.7 14.5 C 197.7 14.3 195.8 14.0 195.6 14.3 C 196.8 14.4 196.8 14.3 197.5 14.3 C 197.4 14.5 197.0 14.5 196.2 14.5 C 195.1 14.2 192.8 14.2 194.3 14.0 C 192.7 14.1 190.9 13.7 189.2 13.7 C 191.1 13.9 192.5 14.1 193.0 14.3 C 191.5 14.3 189.9 13.9 189.8 14.1 C 190.0 14.3 192.5 14.4 193.0 14.7 C 191.0 14.7 188.0 13.8 190.4 14.5 C 189.3 14.4 187.8 14.3 187.3 14.2 C 188.6 14.2 187.2 13.8 186.6 13.7 C 185.4 13.7 184.5 13.7 184.0 13.7 C 185.9 13.7 187.2 14.2 186.0 14.1 C 185.7 13.9 185.3 14.1 184.7 14.1 C 184.6 13.9 182.5 13.9 182.2 13.8 C 182.3 13.9 183.2 14.0 183.4 14.1 C 182.2 14.1 180.4 14.4 179.6 14.0 C 180.3 14.0 181.4 14.1 181.5 14.0 C 178.2 13.5 177.1 13.1 173.1 12.9 C 173.6 12.9 173.9 12.8 173.8 12.7 C 171.3 12.6 169.6 12.4 169.9 12.3 C 168.3 12.3 167.5 12.4 166.7 12.5 C 168.3 12.7 168.9 12.5 169.9 12.7 C 169.3 12.7 171.2 13.2 171.9 13.4 C 174.6 13.2 174.8 13.6 177.6 13.6 C 176.8 13.8 179.7 13.7 178.9 13.9 C 176.3 13.5 173.7 13.6 169.9 13.4 C 170.4 13.2 170.9 13.1 169.3 12.9 C 166.8 12.7 168.0 13.1 166.0 13.0 C 165.2 12.8 166.4 12.8 165.4 12.7 C 164.7 12.8 162.8 12.7 162.1 12.5 C 164.8 12.5 161.6 12.3 163.4 12.2 C 162.5 12.2 162.0 12.1 161.4 12.1 C 164.0 12.4 158.8 12.4 160.8 12.6 C 157.2 12.7 160.6 12.0 157.6 12.1 C 159.0 12.2 157.1 12.4 155.0 12.3 C 154.4 12.1 152.2 12.1 150.4 12.0 C 151.4 12.2 152.1 12.1 150.4 12.3 C 151.3 12.4 152.8 12.4 153.7 12.3 C 153.7 12.4 154.0 12.4 154.4 12.5 C 152.2 12.6 153.1 12.7 152.4 12.8 C 151.8 12.7 150.2 12.7 149.8 12.6 C 149.8 12.6 149.2 12.7 149.2 12.7 C 151.9 12.7 148.7 13.1 150.4 13.1 C 151.6 13.1 150.9 12.8 152.4 12.8 C 153.9 13.1 151.2 13.2 150.4 13.4 C 151.7 13.6 153.2 13.3 153.7 13.5 C 152.0 13.8 149.4 13.7 147.2 13.7 C 147.4 14.0 143.6 13.7 143.3 14.1 C 143.0 14.0 142.6 14.0 142.1 13.9 C 141.5 14.2 140.8 13.9 140.1 13.9 C 140.1 14.1 140.3 14.2 140.8 14.2 C 138.1 14.2 137.5 14.2 134.4 14.5 C 133.9 14.4 133.3 14.3 133.1 14.1 C 133.8 14.0 134.5 14.0 135.0 13.9 C 130.7 14.1 133.5 14.6 130.5 14.4 C 130.6 14.5 132.7 14.6 131.2 14.8 C 128.5 14.7 124.7 15.2 124.8 14.5 C 122.4 14.5 120.9 15.1 119.7 14.9 C 119.0 15.0 118.8 15.1 118.5 15.2 C 119.2 15.3 120.1 15.3 121.0 15.3 C 122.4 15.1 123.0 15.3 121.7 15.0 C 123.7 14.8 124.3 15.0 125.4 15.0 C 122.5 15.4 119.9 15.4 119.8 15.8 C 118.8 15.7 118.1 15.6 117.3 15.5 C 117.0 15.7 113.8 16.2 113.5 15.9 C 115.7 15.8 117.9 15.2 115.9 15.3 C 110.6 16.0 107.6 15.9 103.0 16.8 C 102.9 16.7 103.2 16.5 102.4 16.6 C 102.4 16.7 102.2 16.8 101.8 17.0 C 100.3 17.2 99.5 17.2 97.6 17.5 C 97.6 17.3 97.3 17.1 96.3 17.2 C 95.7 17.6 93.9 18.4 92.8 18.5 C 93.9 18.3 92.4 18.2 91.6 18.3 C 92.3 18.6 86.3 19.0 88.0 19.0 C 85.6 19.5 84.6 19.6 84.5 19.5 C 83.7 19.7 83.1 19.9 82.3 20.1 C 81.7 19.8 77.7 21.0 77.2 20.9 C 78.5 20.7 78.7 20.3 77.6 20.6 C 76.9 20.9 73.4 21.9 72.7 22.0 C 72.9 21.9 73.1 21.6 74.9 21.1 C 71.9 21.8 72.0 22.1 71.1 22.6 C 71.2 22.2 69.9 22.8 69.5 23.0 C 68.6 23.1 69.5 22.9 69.4 22.7 C 68.4 22.9 68.0 22.9 66.7 23.2 C 67.1 23.4 65.7 23.7 65.1 23.8 C 65.0 24.0 64.3 24.3 63.1 24.6 C 64.6 23.8 56.5 26.2 58.5 25.9 C 57.0 26.6 56.8 26.1 54.9 26.8 C 54.5 27.0 53.4 27.3 54.5 27.2 C 53.7 27.4 52.8 27.7 52.4 27.7 C 52.1 27.8 51.6 27.9 50.1 28.5 C 51.5 28.3 46.9 29.6 47.8 29.7 C 46.3 29.8 44.0 31.4 41.5 32.0 C 41.5 32.1 40.9 32.4 40.8 32.5 C 40.5 32.8 43.7 31.5 41.6 32.4 C 39.1 33.3 40.4 32.7 40.0 32.7 C 33.5 35.8 26.9 39.5 22.6 42.9 C 23.2 42.6 23.2 42.7 22.4 43.5 C 20.9 44.1 17.1 48.4 16.7 49.1 C 16.2 49.3 15.0 51.5 14.6 51.8 C 14.9 51.4 15.2 50.5 14.6 51.4 C 14.6 52.1 14.0 52.7 13.8 53.6 C 13.3 53.9 12.7 56.6 12.6 55.3 C 12.5 55.7 12.4 56.0 12.2 56.3 C 12.5 56.4 12.3 56.9 12.7 56.0 C 11.8 58.3 12.1 58.9 11.9 60.6 C 12.1 60.9 12.2 59.6 12.2 60.6 C 12.2 60.6 12.1 60.6 12.1 60.6 C 12.1 61.0 12.2 61.1 12.1 61.3 C 12.0 61.2 12.0 60.6 11.7 60.6 C 11.8 61.5 11.5 62.1 11.8 62.4 C 11.7 61.2 12.2 61.9 12.1 62.7 C 11.9 62.1 12.7 65.5 13.3 66.5 C 13.3 67.2 12.8 65.3 12.7 65.5 C 13.5 67.6 13.4 67.5 13.8 67.6 C 14.3 68.7 14.4 69.3 15.4 70.5 C 15.8 71.3 14.9 70.1 15.4 71.0 C 15.9 71.4 16.1 71.6 16.7 72.3 C 17.9 74.5 23.4 78.5 26.1 81.2 C 24.9 80.2 26.6 81.2 28.4 82.4 C 28.4 82.5 28.1 82.5 28.8 82.9 C 28.8 82.7 29.4 83.0 30.6 83.8 C 30.7 83.9 30.4 83.9 31.1 84.3 C 31.8 84.4 33.3 85.5 34.3 85.9 C 34.6 86.4 31.9 84.8 31.7 84.8 C 34.7 86.7 35.5 86.8 38.2 88.2 C 36.7 87.5 39.1 88.9 39.5 89.1 C 39.0 88.6 41.3 89.5 39.8 88.6 C 40.8 89.1 42.5 89.8 42.7 90.0 C 42.1 89.8 41.1 89.3 41.1 89.4 C 42.5 90.0 44.2 91.0 45.0 91.0 C 44.0 90.6 43.4 90.3 43.5 90.2 C 43.9 90.2 44.4 90.3 45.2 90.6 C 42.7 90.3 49.5 92.6 49.9 92.6 C 50.4 93.2 50.9 93.3 50.6 93.4 C 53.5 94.5 53.7 94.3 54.7 94.5 C 54.3 94.7 53.9 94.8 55.5 95.4 C 55.2 95.0 57.2 95.7 56.7 95.2 C 60.9 96.4 61.8 97.0 64.4 97.7 C 64.5 97.6 63.6 97.4 64.4 97.6 C 65.6 98.0 66.7 98.4 67.5 98.7 C 68.2 98.7 67.3 98.4 68.1 98.6 C 70.1 99.3 69.5 99.5 71.2 100.1 C 73.5 100.4 72.6 100.4 74.0 100.4 C 73.5 100.3 72.7 100.0 73.5 100.1 C 74.8 100.7 75.3 101.1 75.6 101.2 C 74.7 101.0 73.9 100.8 73.4 100.6 C 73.1 100.7 71.7 100.4 72.8 100.8 C 71.4 100.4 69.9 100.0 67.9 99.5 C 68.5 99.9 66.1 99.1 66.7 99.5 C 69.0 100.0 69.5 100.4 71.6 100.8 C 71.2 100.4 73.4 101.1 73.8 101.3 C 73.9 101.1 75.4 101.5 75.1 101.2 C 76.8 101.6 76.7 101.8 78.4 102.1 C 78.5 102.2 78.2 102.3 78.9 102.4 C 79.6 102.3 80.0 102.8 80.6 102.9 C 80.3 102.5 82.8 103.2 83.0 103.0 C 82.3 102.9 81.3 102.7 81.2 102.6 C 84.0 103.2 81.9 102.5 81.3 102.2 C 81.4 102.3 80.3 102.4 80.2 102.2 C 82.5 102.5 77.0 101.1 79.1 101.6 C 80.8 102.1 80.8 101.9 82.5 102.3 C 84.6 103.1 82.0 102.9 84.1 103.7 C 85.4 103.7 86.3 103.9 86.5 103.7 C 86.8 103.9 87.1 104.0 87.6 104.2 C 88.2 104.1 85.9 103.6 87.6 103.8 C 88.5 104.1 87.4 104.2 89.4 104.5 C 90.2 104.4 87.1 103.8 88.8 104.1 C 90.6 104.8 88.5 103.9 90.6 104.2 C 90.8 104.3 91.1 104.4 91.8 104.5 C 91.9 104.6 91.6 104.8 92.3 104.9 C 92.8 104.6 93.1 105.2 94.7 105.4 C 95.6 105.2 93.1 105.0 93.6 104.8 C 95.4 105.4 96.5 105.2 97.2 105.4 C 95.7 105.4 99.5 105.9 99.5 106.1 C 99.2 105.8 100.0 106.0 102.1 106.1 C 102.1 106.6 104.6 106.6 105.1 107.0 C 105.4 106.9 106.0 106.9 106.3 106.8 C 105.6 106.7 104.9 106.6 105.1 106.5 C 105.7 106.6 106.3 106.7 107.0 106.7 C 108.0 107.1 105.3 107.2 109.4 107.7 C 109.0 107.3 110.7 107.5 111.9 107.5 C 111.8 107.2 110.3 107.3 110.1 107.1 C 111.5 107.1 112.9 107.5 113.8 107.7 C 116.2 107.8 119.1 108.3 122.7 108.5 C 123.4 108.7 119.7 108.4 122.0 108.7 C 123.0 108.8 122.5 108.6 123.9 108.7 C 122.6 109.7 133.5 109.6 134.2 110.1 C 134.6 109.9 137.7 110.2 137.4 109.8 C 135.3 110.0 133.9 109.6 132.9 109.3 C 130.9 109.4 134.6 109.7 132.9 109.7 C 132.7 109.5 130.0 109.5 130.3 109.3 C 133.1 109.4 128.9 108.9 131.0 108.8 C 133.5 109.0 138.6 109.0 137.4 109.3 C 137.4 109.2 136.3 109.1 136.2 109.2 C 139.1 109.5 140.8 109.4 142.0 109.2 C 143.3 109.5 148.5 109.3 147.2 109.4 C 147.6 109.6 144.1 109.3 144.6 109.5 C 149.9 109.8 150.1 109.5 153.6 109.8 C 152.5 109.5 157.4 109.4 156.9 109.5 C 156.9 109.7 158.0 109.9 160.2 109.6 C 159.9 109.9 161.0 110.0 162.1 110.0 C 162.6 109.8 161.2 109.8 161.4 109.6 C 162.5 109.6 163.7 109.6 164.7 109.6 C 164.8 109.7 164.6 109.8 165.4 109.8 C 166.6 109.7 171.0 109.4 170.6 109.5 C 168.7 109.9 173.6 109.7 170.6 110.0 C 171.4 110.0 171.5 110.1 172.6 110.0 C 172.6 109.9 172.5 109.8 172.5 109.7 C 174.9 109.6 173.8 110.0 175.8 110.0 C 176.0 109.9 176.9 109.8 177.1 109.7 C 176.3 109.7 176.2 109.8 175.1 109.8 C 176.3 109.4 173.0 109.7 173.2 109.4 C 175.4 109.3 175.5 109.6 176.4 109.6 C 179.2 109.4 177.9 109.5 180.9 109.4 C 180.9 109.3 180.1 109.4 180.3 109.2 C 184.0 109.1 183.6 109.6 186.1 109.3 C 185.5 109.4 183.3 109.7 184.9 109.6 C 186.6 109.4 187.0 109.1 189.3 108.9 C 189.4 109.0 189.2 109.2 190.0 109.1 C 190.9 109.0 191.0 108.8 191.8 108.6 C 192.0 108.7 193.3 108.5 193.8 108.4 C 194.6 108.6 193.5 108.7 194.5 108.7 C 196.3 108.6 197.3 107.9 198.8 107.9 C 198.8 108.2 200.5 107.9 202.0 107.7 C 202.3 108.0 205.6 107.6 207.7 107.4 C 207.2 107.2 209.4 107.1 208.9 106.9 C 207.8 107.0 207.3 107.0 207.0 106.9 C 209.5 106.6 210.2 107.0 212.0 106.4 C 212.9 106.5 214.1 106.5 215.7 106.3 C 215.9 106.2 212.8 106.5 214.5 106.2 C 214.6 106.3 215.1 106.1 215.7 106.0 C 215.5 106.3 216.8 106.2 217.6 106.2 C 219.0 105.8 222.0 105.7 220.6 105.6 C 222.8 105.2 221.4 105.9 223.1 105.6 C 222.2 105.4 225.1 104.9 223.6 105.0 C 225.9 104.5 225.8 105.0 224.8 105.3 C 227.0 105.0 227.4 104.7 228.4 104.7 C 227.4 104.6 230.6 103.9 229.0 104.3 C 228.5 104.7 230.9 104.1 231.4 104.1 C 230.6 104.1 231.7 103.9 230.2 104.0 C 231.7 103.7 234.0 103.2 235.4 103.2 C 237.3 102.6 239.1 102.3 238.3 102.7 C 240.1 102.2 239.4 102.4 241.2 102.1 C 241.2 102.0 240.7 102.1 240.5 102.0 C 243.0 101.5 242.5 101.8 245.7 101.0 C 245.4 101.4 247.3 100.9 248.0 101.0 C 246.7 101.2 245.6 101.4 244.6 101.6 C 244.4 101.8 245.5 101.6 244.7 101.8 C 244.5 101.8 244.0 101.9 243.5 101.9 C 245.6 101.7 241.0 102.9 242.4 102.4 C 242.4 102.4 242.5 102.4 243.0 102.3 C 242.5 102.2 242.6 102.2 242.9 101.9 C 241.9 102.2 241.0 102.1 240.6 102.4 C 240.7 102.5 241.7 102.3 241.8 102.3 C 239.3 103.0 241.0 102.2 238.9 102.7 C 238.6 103.1 239.6 102.9 240.2 102.9 C 238.3 103.4 236.6 103.7 236.1 103.6 C 234.4 104.1 236.3 103.8 235.0 104.2 C 234.4 104.2 234.4 104.0 233.2 104.2 C 231.9 104.6 234.0 104.2 232.7 104.5 C 231.2 104.7 233.6 104.0 231.4 104.4 C 232.0 104.6 229.5 104.7 229.7 104.8 C 230.9 104.6 231.0 104.9 230.3 104.8 C 227.4 105.0 225.5 106.2 222.5 106.1 C 222.5 106.2 222.1 106.3 222.0 106.4 C 224.2 106.2 227.4 105.7 228.0 106.0 C 229.7 105.6 229.5 105.4 229.7 105.2 C 231.8 105.2 231.6 105.3 230.5 105.8 C 227.1 106.5 225.6 106.6 223.3 106.8 C 222.1 107.2 223.4 106.9 223.9 107.0 C 216.8 107.8 222.3 107.7 219.7 108.0 C 219.8 107.9 219.2 107.9 218.5 108.0 C 218.5 108.1 217.4 108.2 217.3 108.3 C 217.7 108.2 218.0 108.3 217.9 108.4 C 216.1 108.7 216.8 108.3 216.6 108.2 C 218.0 108.1 218.9 107.9 219.1 107.7 C 217.3 108.1 215.9 108.1 214.8 108.5 C 213.0 108.4 215.6 107.7 214.6 107.5 C 214.9 107.3 213.6 108.3 212.3 108.6 C 210.0 108.8 210.0 109.1 207.9 109.3 C 207.3 109.1 210.0 109.0 209.8 108.8 C 209.2 108.9 209.0 108.8 208.5 108.9 C 207.0 109.1 207.2 109.3 206.0 109.5 C 205.4 109.3 205.0 109.5 204.2 109.7 C 202.7 109.7 204.9 109.4 203.5 109.5 C 201.9 109.6 200.8 110.0 200.3 110.0 C 200.2 110.0 200.4 109.8 199.7 109.9 C 197.9 110.2 197.5 110.3 199.7 110.2 C 197.7 110.3 196.9 110.5 197.2 110.7 C 200.2 110.5 200.9 110.4 202.3 110.6 C 202.9 110.3 203.7 110.4 204.9 110.3 C 204.1 110.0 206.2 110.2 206.7 109.9 C 206.0 109.9 205.3 109.9 204.8 109.9 C 208.0 109.6 207.9 109.7 210.4 109.0 C 210.4 109.1 210.7 109.1 211.0 109.1 C 210.3 109.3 208.0 109.5 208.0 109.7 C 209.8 109.8 210.3 109.3 212.4 109.4 C 213.2 109.1 210.7 109.3 212.3 109.0 C 213.1 109.1 214.2 109.1 215.5 109.0 C 216.8 108.8 217.4 108.6 218.5 108.4 C 218.6 108.4 218.8 108.5 219.8 108.3 C 219.7 108.3 218.7 108.3 219.7 108.1 C 223.0 107.9 225.2 107.8 228.3 107.1 C 227.2 107.3 224.6 107.4 225.8 107.2 C 227.3 107.1 229.1 106.5 230.6 106.5 C 231.1 106.5 228.9 106.7 229.5 107.0 C 230.8 106.7 231.7 106.6 232.4 106.5 C 232.4 106.4 234.0 106.1 233.6 106.0 C 232.4 106.2 232.1 106.5 231.8 106.5 C 232.7 105.6 236.2 105.9 238.3 105.5 C 239.7 105.1 237.2 105.5 238.8 105.0 C 239.8 104.7 240.5 105.2 238.9 105.6 C 237.8 105.7 237.4 106.1 237.1 105.9 C 236.7 106.0 236.0 106.1 236.0 106.2 C 236.8 106.0 236.7 106.2 237.2 106.2 C 236.1 106.4 236.0 106.9 234.9 106.8 C 235.6 106.7 235.8 106.5 236.1 106.4 C 233.0 107.1 231.9 107.1 230.1 107.3 C 231.1 107.3 230.1 107.4 230.2 107.6 C 231.5 107.3 234.2 107.0 232.6 107.3 C 231.5 107.2 230.7 108.1 229.6 108.0 C 230.4 107.9 230.3 107.7 230.8 107.6 C 229.5 107.8 229.6 107.6 228.3 107.8 C 224.5 108.8 221.4 108.7 215.0 110.1 C 212.7 110.4 217.0 109.7 216.8 109.5 C 216.1 109.6 216.0 109.5 215.5 109.6 C 215.5 109.9 214.4 109.7 213.7 110.1 C 213.8 109.8 210.8 110.4 209.3 110.4 C 209.2 110.5 209.4 110.6 208.7 110.7 C 204.1 110.9 195.6 112.1 192.1 112.1 C 192.2 112.3 190.7 112.4 190.2 112.6 C 188.0 112.7 189.0 112.4 185.7 112.9 C 184.1 113.0 186.0 112.7 186.3 112.6 C 181.4 113.0 177.0 112.9 173.9 113.3 C 172.3 113.5 173.9 113.2 170.7 113.2 C 170.6 113.5 165.5 113.1 164.8 113.5 C 162.8 113.6 159.2 113.2 160.8 113.5 C 158.1 113.5 159.9 113.2 158.8 113.2 C 157.0 113.2 159.4 113.8 157.5 113.8 C 157.7 113.5 156.1 113.6 154.9 113.4 C 156.4 113.4 157.4 113.4 157.6 113.3 C 156.3 113.4 156.3 113.2 154.3 113.2 C 152.7 113.4 148.3 113.5 147.1 113.1 C 147.0 113.2 147.4 113.3 147.7 113.4 C 146.4 113.4 144.9 113.0 145.1 113.4 C 142.1 113.3 140.9 112.9 139.2 113.1 C 137.9 113.2 139.7 112.9 135.9 112.7 C 135.8 113.0 129.3 112.5 127.5 112.2 C 127.4 112.5 127.1 112.2 126.3 112.1 C 126.1 112.2 126.3 112.3 125.6 112.3 C 125.4 112.2 124.9 112.2 124.3 112.2 C 124.8 111.8 121.9 112.1 121.7 111.8 C 122.3 111.9 122.3 111.7 121.8 111.6 C 121.6 111.9 118.9 111.2 119.2 111.4 C 119.8 111.6 121.6 111.7 121.1 111.9 C 118.5 111.7 119.6 111.5 117.9 111.3 C 118.0 111.4 119.0 111.6 117.9 111.6 C 116.1 111.3 117.8 111.5 116.7 111.2 C 115.7 111.2 114.0 111.2 113.4 111.1 C 113.6 111.1 113.1 110.9 112.8 110.9 C 109.6 110.4 102.2 109.8 99.2 109.0 C 98.9 109.1 98.3 109.0 98.5 109.2 C 96.6 108.8 96.8 108.9 94.9 108.5 C 94.9 108.6 94.8 108.7 94.8 108.8 C 92.4 108.5 94.6 108.4 93.0 108.2 C 92.8 108.7 92.1 107.9 90.7 107.6 C 90.5 107.7 89.8 107.6 90.0 107.8 C 87.7 107.4 87.9 107.1 85.9 106.9 C 86.3 107.0 86.6 107.8 86.3 108.0 C 86.0 107.8 85.4 107.6 84.5 107.4 C 85.6 107.4 85.2 106.4 82.4 106.1 C 83.9 106.3 84.5 106.5 84.1 106.7 C 82.0 106.3 81.3 106.0 79.5 105.6 C 79.1 105.8 80.4 106.1 79.9 106.2 C 79.5 106.2 79.2 106.2 79.3 106.3 C 77.4 105.8 77.4 105.6 75.3 105.3 C 75.3 105.2 75.8 105.3 76.5 105.5 C 76.4 105.3 76.4 105.1 77.7 105.4 C 77.8 105.5 77.0 105.6 78.8 105.9 C 78.8 105.8 78.8 105.7 78.9 105.5 C 77.6 105.2 74.6 104.4 74.3 104.4 C 74.9 104.7 75.9 105.0 75.3 105.1 C 73.2 104.5 72.7 104.1 70.9 103.6 C 67.9 102.9 62.7 101.4 63.2 102.0 C 61.4 101.4 62.1 101.5 60.5 101.0 C 60.9 101.4 58.8 100.6 58.9 100.9 C 60.8 101.4 60.2 101.3 62.1 101.7 C 62.0 101.8 61.6 101.9 60.9 101.7 C 60.8 101.5 60.1 101.3 58.8 100.9 C 59.0 101.0 60.1 101.6 58.7 101.2 C 58.7 101.2 58.4 101.0 57.7 100.9 C 57.8 100.7 57.8 100.6 57.9 100.5 C 58.6 100.6 59.5 100.8 60.0 100.9 C 59.5 100.7 59.4 100.6 59.0 100.5 C 58.6 100.5 56.5 99.7 56.3 99.8 C 57.2 100.1 57.7 100.4 56.8 100.1 C 56.6 100.1 55.3 99.5 54.7 99.5 C 56.5 100.2 55.8 100.0 56.7 100.5 C 55.6 100.2 55.2 100.0 54.7 99.8 C 54.5 99.7 54.3 99.6 53.9 99.5 C 53.6 99.4 53.6 99.4 52.6 99.0 C 52.5 98.8 52.7 98.7 53.3 98.8 C 52.6 98.3 50.2 97.5 48.2 96.8 C 46.2 96.1 44.3 95.4 43.4 95.0 C 44.6 95.6 46.2 95.8 44.3 95.1 C 44.2 95.2 42.8 94.6 42.6 94.6 C 41.8 94.7 43.3 95.6 44.7 96.4 C 43.1 95.8 42.8 95.8 41.4 95.2 C 41.0 94.8 42.6 95.1 40.8 94.3 C 40.3 94.5 37.6 93.0 36.9 93.0 C 38.1 93.5 38.8 94.0 37.6 93.4 C 37.9 93.4 35.4 92.4 35.4 92.2 C 37.4 93.0 38.0 93.0 39.3 93.6 C 37.7 92.9 40.5 93.9 37.9 92.7 C 36.7 92.3 35.9 92.3 33.4 91.0 C 32.4 90.5 33.4 90.7 32.2 90.0 C 32.4 90.4 29.7 89.0 31.4 89.7 C 30.5 89.2 30.0 88.9 29.5 88.6 C 30.7 89.5 24.7 86.3 25.5 87.0 C 25.6 86.7 25.5 86.3 25.3 86.0 C 24.0 85.6 22.9 84.6 20.3 82.6 C 20.3 82.9 19.9 82.4 18.9 81.5 C 18.6 81.5 19.4 82.3 18.7 81.7 C 17.6 80.7 17.6 80.6 17.5 80.4 C 16.7 79.7 16.2 79.1 15.8 78.7 C 15.7 78.7 15.9 79.0 16.1 79.3 C 13.4 76.3 12.1 75.1 10.5 72.5 C 11.1 73.7 11.6 73.6 11.0 72.8 C 10.6 72.3 10.3 71.9 10.1 71.6 C 10.2 72.4 10.2 72.0 9.5 70.8 C 8.8 69.7 9.4 71.4 8.9 70.5 C 8.5 69.5 8.9 70.0 8.8 69.5 C 8.6 69.0 8.3 68.5 8.2 68.1 C 8.4 69.0 7.9 68.1 7.6 67.3 C 8.0 67.8 7.9 67.4 7.4 65.8 C 7.4 65.6 7.7 66.4 7.6 65.8 C 7.5 65.4 6.9 64.2 7.0 63.0 C 7.0 63.4 7.1 63.5 7.2 63.4 C 6.8 62.2 7.1 61.2 7.2 60.2 C 7.0 61.2 6.8 60.7 6.7 61.1 C 6.8 60.0 6.6 58.7 7.0 57.8 C 6.8 59.4 7.5 57.9 7.7 57.0 C 7.5 56.7 7.3 58.4 7.0 57.8 C 6.9 57.3 7.5 56.1 7.4 55.5 C 7.2 55.6 7.3 56.2 7.1 56.4 C 7.3 55.5 6.9 56.6 7.1 55.9 C 7.4 55.5 7.2 54.9 7.4 54.5 C 7.6 53.9 8.4 52.8 8.4 52.3 C 8.3 52.2 8.0 53.0 7.9 53.1 C 8.7 50.5 9.4 50.0 10.6 47.7 C 10.8 47.5 11.2 47.1 11.7 46.5 C 11.5 46.4 11.7 46.0 12.1 45.5 C 12.9 44.7 13.8 43.8 14.9 42.8 C 14.9 43.1 14.4 43.7 15.9 42.2 C 15.9 42.1 15.3 42.7 15.8 42.1 C 15.8 42.1 16.2 41.8 16.2 41.7 C 16.2 41.6 16.2 41.6 16.1 41.5 C 15.7 42.0 15.3 42.4 14.9 42.8 C 14.8 42.6 14.6 42.7 14.3 43.0 C 15.9 41.1 16.2 41.5 17.3 40.2 C 17.8 40.3 18.2 40.0 17.3 41.2 C 18.4 40.1 19.2 39.3 19.4 38.9 C 17.9 40.1 18.2 39.5 17.7 39.8 C 18.6 39.0 18.6 38.9 19.0 38.5 C 20.2 37.7 18.1 39.7 20.3 38.0 C 18.5 39.1 21.5 36.8 22.8 36.0 C 22.5 36.1 22.1 36.3 22.7 35.8 C 25.9 33.4 26.1 34.3 28.1 32.7 C 28.0 32.9 29.0 32.3 29.5 32.1 C 27.6 33.2 27.2 33.6 26.5 34.1 C 26.7 34.1 27.2 33.8 27.8 33.5 C 27.7 33.4 28.1 33.1 29.0 32.7 C 29.5 32.2 29.1 32.0 30.5 31.0 C 30.7 31.0 30.6 31.2 31.4 30.8 C 32.0 30.3 30.9 31.5 34.2 29.7 C 33.6 29.9 33.2 30.0 33.4 29.7 C 35.0 28.8 34.7 29.0 36.9 27.9 C 38.0 27.9 35.6 29.1 35.0 29.6 C 36.5 28.8 37.7 27.9 39.4 27.4 C 38.1 27.8 39.3 27.1 40.8 26.3 C 42.2 25.8 40.8 26.7 42.6 26.0 C 43.9 25.4 44.5 24.9 43.2 25.4 C 46.2 24.2 45.4 24.2 48.1 23.3 C 48.3 23.4 47.5 23.7 46.5 24.0 C 46.7 24.0 46.4 24.3 47.4 23.9 C 48.2 23.5 49.6 22.9 51.1 22.3 C 52.6 21.8 53.5 21.4 54.1 21.1 C 56.5 20.9 59.0 19.5 61.5 19.0 C 60.6 19.5 64.7 18.1 65.9 18.1 C 66.6 17.8 68.8 16.7 68.0 17.1 C 68.3 17.4 69.7 16.9 70.9 16.7 C 70.9 16.7 70.8 16.6 70.8 16.5 C 73.3 15.8 73.9 16.0 74.8 16.0 C 77.9 15.1 81.4 14.7 85.3 13.7 C 86.3 13.8 87.1 13.6 89.5 13.3 C 89.4 13.1 91.3 12.8 93.0 12.5 C 92.6 12.3 94.2 12.1 94.2 12.0 C 92.6 12.2 93.2 11.8 92.3 11.9 C 94.5 11.8 95.5 11.1 97.2 11.1 C 95.1 11.6 94.5 12.0 94.3 12.4 C 96.8 11.9 98.1 11.8 98.6 12.0 C 98.8 11.7 98.4 11.7 97.9 11.7 C 98.7 11.5 99.6 11.4 100.3 11.3 C 100.6 11.4 99.5 11.6 100.4 11.5 C 101.0 11.4 101.6 11.2 102.2 11.0 C 103.0 11.2 101.3 11.4 101.0 11.5 C 104.4 11.2 102.9 10.9 104.7 10.5 C 105.2 10.7 105.1 10.9 106.6 10.8 C 107.2 10.5 107.3 10.3 109.1 10.1 C 110.2 10.0 109.0 10.5 110.3 10.3 C 110.5 10.2 111.1 10.2 111.6 10.2 C 111.5 10.1 112.1 9.9 112.8 9.8 C 113.0 9.9 114.2 9.7 114.7 9.6 C 114.9 9.7 116.9 9.8 117.3 9.6 C 117.3 9.5 116.2 9.6 116.0 9.6 C 117.5 9.4 118.5 9.3 119.2 9.2 C 119.7 9.7 122.0 9.0 125.0 9.1 C 126.8 8.8 124.6 8.7 126.9 8.4 C 128.3 8.4 126.6 8.6 126.9 8.9 C 127.3 8.9 129.4 8.9 129.5 8.7 C 129.5 8.6 128.4 8.7 128.2 8.6 C 129.9 8.3 129.9 8.6 130.8 8.6 C 130.7 8.4 131.8 8.3 132.1 8.1 C 136.7 7.7 136.7 8.1 138.6 8.2 C 138.6 8.1 139.8 8.1 139.9 8.0 C 138.5 8.2 136.8 8.0 138.6 7.9 C 138.3 8.1 141.0 7.8 141.2 7.7 C 140.9 7.6 139.2 7.7 139.9 7.5 C 142.3 7.3 141.3 7.8 143.2 7.5 C 143.4 7.6 142.3 7.7 141.8 7.8 C 142.6 7.8 143.7 7.7 143.8 7.8 C 142.9 7.9 142.9 8.1 142.5 8.2 C 143.8 8.0 146.1 8.1 144.5 7.8 C 147.1 7.8 149.6 7.6 147.8 7.4 C 149.9 7.3 148.7 7.7 150.4 7.4 C 150.1 7.7 149.6 7.9 151.0 8.1 C 151.3 7.9 152.4 7.9 152.3 7.7 C 155.5 7.6 156.4 7.9 157.6 8.1 C 156.5 7.7 158.0 8.0 159.5 7.8 C 160.5 7.9 159.6 8.2 162.2 8.1 C 159.4 7.7 165.4 8.0 164.2 7.6 C 167.4 7.9 167.4 7.8 170.7 8.0 C 170.4 8.2 169.6 8.2 168.1 8.3 C 169.1 8.0 165.2 8.0 165.5 8.1 C 165.5 8.2 165.5 8.2 165.5 8.3 C 168.0 8.3 169.6 8.4 170.7 8.6 C 171.2 8.4 172.4 8.3 172.0 8.0 C 174.4 8.4 176.9 8.1 177.9 8.4 C 177.1 8.4 176.3 8.4 176.6 8.5 C 177.5 8.5 178.7 8.5 178.6 8.3 C 176.7 8.1 176.3 8.1 175.3 8.2 C 176.2 8.0 173.4 7.8 175.3 7.8 C 175.3 8.2 179.2 7.8 177.9 8.0 C 175.8 8.1 180.3 8.3 180.5 8.5 C 180.5 8.5 180.5 8.5 180.5 8.5 Z M 228.9 107.7 C 230.7 107.2 228.4 107.4 227.1 107.7 C 227.5 107.7 227.7 107.7 227.7 107.9 C 228.3 107.7 228.8 107.6 228.9 107.7 C 228.9 107.7 228.9 107.7 228.9 107.7 Z M 208.9 107.0 C 208.3 107.4 211.4 106.8 212.6 106.7 C 212.3 106.7 211.8 106.7 212.6 106.6 C 211.3 106.5 210.8 107.0 208.9 107.0 C 208.9 107.0 208.9 107.0 208.9 107.0 Z M 137.4 110.2 C 137.9 110.2 139.2 110.2 139.3 110.3 C 140.0 110.3 139.8 110.2 140.0 110.1 C 141.5 110.1 139.6 110.5 141.9 110.4 C 142.8 110.0 137.9 109.7 137.4 110.2 C 137.4 110.2 137.4 110.2 137.4 110.2 Z M 155.6 11.6 C 156.6 11.7 154.3 12.0 155.0 12.2 C 158.6 12.0 155.8 11.7 160.8 11.8 C 160.5 11.7 160.1 11.6 160.2 11.5 C 157.8 11.6 157.6 11.8 158.2 11.3 C 157.1 11.4 156.9 11.9 155.6 11.6 C 155.6 11.6 155.6 11.6 155.6 11.6 Z M 201.9 14.7 C 201.5 14.6 201.2 14.5 201.2 14.4 C 199.8 14.4 200.1 14.5 198.1 14.2 C 198.3 14.6 200.2 14.7 201.9 14.7 C 201.9 14.7 201.9 14.7 201.9 14.7 Z M 304.4 54.9 C 304.5 55.2 304.6 55.4 304.7 55.6 C 304.8 55.4 305.3 55.9 304.8 54.8 C 304.7 54.7 304.8 55.0 304.9 55.2 C 304.7 55.0 304.5 54.4 304.4 54.6 C 304.5 54.9 304.5 54.9 304.4 54.9 C 304.4 54.9 304.4 54.9 304.4 54.9 Z M 289.5 84.1 C 291.6 82.5 285.8 85.4 289.5 84.1 C 289.5 84.1 289.5 84.1 289.5 84.1 C 289.5 84.1 289.5 84.1 289.5 84.1 Z M 295.5 83.5 C 295.6 83.6 296.0 83.2 296.0 83.2 C 297.8 82.0 296.2 83.3 297.2 82.7 C 298.4 81.5 296.3 82.9 297.9 81.4 C 297.4 81.6 296.5 82.8 295.5 83.5 C 295.5 83.5 295.5 83.5 295.5 83.5 Z M 25.7 34.2 C 24.2 35.3 23.9 35.8 23.8 36.2 C 24.8 35.5 25.7 35.0 26.1 34.9 C 28.1 33.4 24.7 35.6 24.3 35.7 C 24.4 35.4 25.8 34.5 25.7 34.2 C 25.7 34.2 25.7 34.2 25.7 34.2 Z M 20.8 37.7 C 20.3 38.3 19.5 39.0 19.6 39.2 C 20.4 38.5 20.6 38.5 20.7 38.5 C 21.4 37.8 20.3 38.5 20.8 37.7 C 20.8 37.7 20.8 37.7 20.8 37.7 Z M 30.9 31.6 C 30.0 32.1 30.4 32.1 30.4 32.2 C 31.6 31.6 31.8 31.6 33.1 30.9 C 33.0 30.8 33.0 30.8 33.0 30.7 C 31.9 31.2 31.9 31.3 31.0 31.8 C 30.9 31.8 30.9 31.7 30.9 31.6 C 30.9 31.6 30.9 31.6 30.9 31.6 Z M 16.9 41.5 C 14.6 43.6 14.1 44.8 13.3 46.4 C 14.5 44.8 15.4 43.1 16.6 42.1 C 18.0 40.8 16.1 42.5 16.1 42.4 C 16.1 42.3 16.5 41.8 16.9 41.5 C 16.9 41.5 16.9 41.5 16.9 41.5 Z M 7.3 61.6 C 7.2 62.1 7.6 62.9 7.8 64.3 C 7.8 64.0 7.9 63.8 8.0 63.8 C 7.7 61.8 7.4 63.0 7.3 61.6 C 7.3 61.6 7.3 61.6 7.3 61.6 Z M 11.3 72.6 C 12.1 73.7 11.1 72.0 11.6 72.4 C 10.8 71.2 10.1 69.9 9.9 70.0 C 10.7 71.3 10.9 71.6 11.3 72.6 C 11.3 72.6 11.3 72.6 11.3 72.6 Z M 17.8 80.0 C 19.2 81.1 17.5 79.3 18.2 79.6 C 17.7 79.1 17.7 79.3 17.6 79.4 C 17.3 79.0 16.9 78.7 16.4 78.1 C 16.7 78.6 18.2 79.9 17.8 80.0 C 17.8 80.0 17.8 80.0 17.8 80.0 Z M 72.7 17.1 C 71.7 17.4 72.1 17.6 70.0 18.0 C 73.1 17.3 71.5 18.4 75.7 17.3 C 75.0 17.4 75.4 17.2 75.7 17.2 C 77.3 16.7 74.2 17.4 75.6 16.8 C 74.4 17.1 75.2 17.2 74.0 17.5 C 72.8 17.6 72.0 17.6 72.7 17.1 C 72.7 17.1 72.7 17.1 72.7 17.1 Z M 75.8 17.5 C 76.9 17.3 76.8 16.9 77.4 17.0 C 78.0 16.9 77.9 16.8 78.0 16.7 C 77.5 16.8 77.5 16.8 77.4 16.8 C 76.4 17.1 75.4 17.4 75.8 17.5 C 75.8 17.5 75.8 17.5 75.8 17.5 Z M 65.3 20.1 C 67.1 19.5 67.6 19.6 68.5 19.1 C 69.2 19.3 69.7 18.7 70.7 18.7 C 72.6 18.2 71.2 18.4 70.7 18.4 C 72.4 17.9 71.1 18.6 72.9 18.0 C 73.2 17.7 70.9 18.3 71.1 18.0 C 69.8 18.3 69.8 18.5 69.0 18.8 C 68.3 18.9 68.5 18.7 68.4 18.7 C 66.8 19.1 66.9 18.9 65.6 19.3 C 65.4 19.6 65.9 19.5 67.4 19.1 C 65.9 19.6 65.3 19.9 63.6 20.3 C 64.7 19.7 59.4 21.1 59.9 21.4 C 61.4 21.0 60.9 21.0 61.4 20.7 C 63.3 20.4 64.5 20.0 65.3 20.1 C 65.3 20.1 65.3 20.1 65.3 20.1 Z M 31.9 31.9 C 31.3 32.2 30.8 32.4 30.0 32.9 C 29.8 32.8 30.9 32.2 29.8 32.7 C 28.4 33.4 28.2 33.7 27.4 34.2 C 27.9 34.0 30.8 32.6 29.4 33.5 C 29.9 33.4 30.8 32.9 32.0 32.3 C 30.5 32.7 34.0 31.2 35.5 30.5 C 35.2 30.2 38.0 29.4 39.0 28.7 C 38.1 28.9 35.2 30.5 34.0 31.1 C 34.6 30.7 30.4 32.3 31.9 31.9 C 31.9 31.9 31.9 31.9 31.9 31.9 Z M 80.3 16.4 C 80.6 16.3 81.9 15.9 80.9 16.1 C 81.4 15.9 82.5 15.8 81.9 15.6 C 82.6 15.4 83.1 15.3 83.7 15.2 C 83.5 15.4 81.9 15.6 82.6 15.8 C 83.7 15.4 83.3 15.6 84.9 15.3 C 84.1 15.7 85.0 15.5 84.4 16.0 C 84.9 15.8 86.3 15.5 86.2 15.3 C 88.4 14.9 85.6 15.7 88.6 15.2 C 88.6 15.4 86.4 15.8 85.7 15.8 C 85.3 16.1 89.3 15.2 91.6 14.9 C 89.6 15.1 91.1 14.6 92.0 14.2 C 92.8 14.1 92.1 14.4 93.3 14.3 C 94.3 14.1 94.8 13.9 95.1 14.0 C 96.0 13.8 95.6 13.7 95.7 13.6 C 97.1 13.4 96.1 13.9 98.2 13.5 C 96.6 13.4 98.3 13.1 101.2 12.8 C 101.0 12.7 100.1 12.8 99.9 12.7 C 100.3 12.5 102.0 12.6 102.4 12.6 C 103.4 12.4 102.8 12.4 101.8 12.5 C 102.4 12.4 103.0 12.2 103.6 12.0 C 100.5 12.4 95.7 13.2 90.2 13.8 C 91.3 13.8 90.0 14.0 88.4 14.3 C 88.1 14.2 88.8 14.0 89.6 13.9 C 87.6 13.9 87.8 14.5 84.9 14.9 C 83.3 15.1 86.6 14.4 84.8 14.6 C 83.8 14.9 83.1 15.2 82.5 15.0 C 80.6 15.5 80.2 15.9 77.3 16.5 C 79.0 16.3 79.8 16.7 81.5 16.2 C 81.5 16.2 80.7 16.3 80.3 16.4 C 80.3 16.4 80.3 16.4 80.3 16.4 Z M 20.8 38.7 C 19.9 39.3 19.6 39.8 19.3 39.8 C 18.0 41.1 19.7 39.9 20.0 39.7 C 20.6 39.1 20.8 38.9 20.8 38.7 C 20.8 38.7 20.8 38.7 20.8 38.7 Z M 145.7 112.6 C 148.2 112.8 147.7 112.5 149.7 112.5 C 148.1 112.4 147.7 112.2 145.1 112.1 C 145.0 112.3 145.0 112.5 145.7 112.6 C 145.7 112.6 145.7 112.6 145.7 112.6 Z M 26.2 35.1 C 27.5 33.9 24.7 36.4 24.6 36.2 C 23.1 37.4 26.1 35.4 24.8 36.5 C 26.1 35.5 27.0 35.2 28.8 34.0 C 28.7 33.8 27.2 34.7 25.8 35.6 C 25.6 35.6 26.3 35.1 26.2 35.1 C 26.2 35.1 26.2 35.1 26.2 35.1 Z M 120.5 110.5 C 118.8 110.6 122.1 111.1 123.0 111.3 C 123.1 111.0 122.6 111.0 120.5 110.5 C 120.5 110.5 120.5 110.5 120.5 110.5 Z M 162.8 112.4 C 163.7 112.1 159.9 112.4 160.8 112.1 C 159.7 112.1 159.5 112.2 159.5 112.3 C 158.9 112.2 157.0 112.3 157.6 112.1 C 157.2 111.9 160.5 112.1 159.5 111.8 C 160.6 111.8 160.6 111.9 161.4 111.9 C 159.5 111.9 160.4 112.1 162.8 112.2 C 162.8 112.0 161.7 112.0 162.8 111.9 C 162.9 112.0 164.1 112.2 164.1 112.5 C 166.1 112.5 164.9 112.1 167.3 112.1 C 167.1 111.9 165.6 111.9 164.7 111.9 C 165.0 111.6 167.3 112.0 166.7 111.7 C 167.2 111.9 168.6 111.9 168.7 112.2 C 166.8 112.3 165.6 112.5 164.1 112.7 C 165.5 112.8 167.5 112.2 169.9 112.4 C 169.7 112.2 171.2 112.2 170.6 112.0 C 172.5 112.0 171.7 112.3 171.3 112.4 C 171.8 112.5 175.5 112.3 175.2 112.1 C 175.5 112.3 179.9 112.0 179.7 111.7 C 181.1 111.9 183.1 111.4 183.7 111.7 C 184.4 111.6 185.9 111.5 187.6 111.4 C 188.0 111.1 185.2 111.4 185.0 111.2 C 184.4 111.0 188.0 111.1 187.5 110.9 C 187.5 110.8 187.5 110.8 187.5 110.7 C 186.2 110.9 184.9 111.1 183.6 111.2 C 182.7 111.2 183.9 111.1 183.6 111.0 C 182.7 111.2 178.6 111.7 178.4 111.2 C 175.7 111.5 173.7 111.5 172.5 111.7 C 170.9 111.7 173.5 111.5 172.5 111.4 C 167.6 111.8 161.6 111.5 157.6 111.9 C 156.7 111.9 157.0 111.7 156.9 111.6 C 151.2 111.7 156.0 112.1 151.6 111.9 C 151.6 111.7 153.7 111.8 153.6 111.5 C 152.1 111.5 151.7 111.6 149.7 111.5 C 149.7 111.7 149.6 111.8 149.6 111.9 C 148.0 111.8 148.6 111.5 147.7 111.4 C 145.6 111.4 146.1 111.6 145.1 111.3 C 143.2 111.3 141.3 111.3 139.2 111.1 C 137.9 111.2 140.4 111.7 142.5 111.8 C 142.4 111.9 141.8 111.9 141.8 111.9 C 139.4 111.6 139.0 111.2 135.4 110.9 C 138.1 111.3 133.9 111.0 133.4 110.7 C 131.9 110.7 133.0 111.1 134.0 111.1 C 133.8 111.2 132.9 111.0 132.8 110.9 C 132.6 111.3 136.1 111.7 139.8 111.7 C 138.1 112.1 142.5 111.8 140.5 112.2 C 143.6 112.3 141.0 111.9 144.4 112.0 C 144.1 111.9 143.5 111.8 143.2 111.7 C 145.8 111.7 145.0 112.1 147.7 112.1 C 148.2 111.9 146.4 111.9 146.4 111.7 C 149.4 112.0 150.3 112.1 152.3 112.4 C 152.7 112.2 152.2 112.0 155.6 112.2 C 155.6 112.2 155.6 112.3 155.6 112.4 C 154.0 112.3 153.6 112.8 157.6 112.8 C 157.8 112.6 156.6 112.6 155.6 112.6 C 156.0 112.4 157.3 112.4 158.8 112.4 C 159.6 112.4 160.5 112.5 159.5 112.5 C 160.1 112.7 160.7 112.3 162.8 112.4 C 162.8 112.4 162.8 112.4 162.8 112.4 Z M 7.9 59.3 C 7.9 59.7 7.9 60.0 7.9 60.7 C 8.1 61.0 8.1 59.7 8.2 59.8 C 8.3 58.8 8.0 59.5 7.9 59.3 C 7.9 59.3 7.9 59.3 7.9 59.3 Z M 12.7 47.3 C 12.4 47.2 12.2 48.0 11.5 48.9 C 11.5 49.3 12.2 48.2 12.4 48.3 C 13.2 47.2 11.8 48.3 12.7 47.3 C 12.7 47.3 12.7 47.3 12.7 47.3 Z M 9.7 52.3 C 9.3 52.7 9.6 52.8 10.0 51.9 C 10.1 52.0 10.1 52.3 9.9 52.9 C 10.4 52.4 10.2 51.8 10.8 50.8 C 10.5 51.1 10.1 51.6 9.7 52.3 C 9.7 52.3 9.7 52.3 9.7 52.3 Z M 9.1 54.0 C 9.0 54.7 8.7 55.1 8.5 56.2 C 8.8 56.0 9.4 53.6 9.5 53.2 C 9.4 52.7 8.5 55.3 9.1 54.0 C 9.1 54.0 9.1 54.0 9.1 54.0 Z M 95.7 107.2 C 96.3 107.3 96.2 107.1 96.3 107.1 C 98.1 107.7 100.8 108.1 98.6 108.1 C 100.6 108.2 102.5 108.7 104.1 109.0 C 105.6 109.2 104.9 108.9 106.0 109.0 C 107.9 109.3 105.1 109.0 105.4 109.2 C 105.7 109.4 106.3 109.1 108.5 109.5 C 108.0 109.0 110.4 109.8 109.8 109.3 C 111.0 109.5 111.4 109.4 113.0 109.6 C 112.8 109.4 111.3 109.3 111.1 109.1 C 110.3 108.7 110.2 109.2 111.7 109.3 C 110.8 109.5 108.7 108.8 108.0 109.0 C 107.2 108.6 110.0 109.1 109.2 108.8 C 108.7 108.8 108.1 108.7 108.0 108.8 C 107.1 108.6 106.5 108.5 106.1 108.3 C 106.7 108.4 106.7 108.4 106.7 108.5 C 107.9 108.6 105.6 107.9 108.1 108.2 C 107.6 108.1 106.6 108.0 106.8 107.8 C 106.1 107.6 106.7 108.5 104.3 107.9 C 102.6 107.9 108.1 108.7 106.7 109.0 C 103.2 108.4 105.2 108.3 102.4 107.9 C 102.4 108.0 102.5 108.1 101.8 108.1 C 101.9 108.2 102.9 108.3 103.6 108.4 C 103.5 108.5 102.5 108.3 101.7 108.2 C 101.8 108.3 102.4 108.4 102.4 108.5 C 100.0 108.0 100.4 107.6 102.5 107.8 C 102.4 107.5 99.6 107.2 98.8 107.2 C 99.5 107.4 98.7 107.3 99.3 107.6 C 99.9 107.7 99.8 107.6 100.0 107.6 C 101.1 107.8 100.0 107.7 100.0 107.8 C 98.7 107.6 98.8 107.4 97.5 107.4 C 97.8 107.3 98.1 107.3 98.2 107.2 C 97.6 107.1 96.9 107.0 96.3 106.9 C 96.4 107.1 95.6 107.0 95.7 107.2 C 95.7 107.2 95.7 107.2 95.7 107.2 Z M 128.2 111.4 C 130.3 111.7 129.2 111.4 128.2 111.3 C 128.7 111.2 129.4 111.3 130.2 111.3 C 129.6 111.1 129.0 111.2 127.0 111.0 C 128.8 110.8 127.0 110.2 123.8 110.0 C 122.8 110.4 125.5 110.7 124.4 110.8 C 126.7 110.9 128.0 111.1 128.2 111.4 C 128.2 111.4 128.2 111.4 128.2 111.4 Z M 20.1 39.8 C 19.1 40.5 18.2 41.3 17.4 42.1 C 17.7 42.2 20.5 39.9 20.1 39.8 C 20.1 39.8 20.1 39.8 20.1 39.8 Z M 106.1 12.0 C 106.6 12.0 106.7 12.0 106.8 12.0 C 108.6 11.7 105.9 11.9 106.7 11.6 C 106.0 11.7 105.4 11.8 104.8 11.9 C 104.7 12.0 107.4 11.8 105.5 12.1 C 105.6 12.2 106.1 12.1 106.1 12.0 C 106.1 12.0 106.1 12.0 106.1 12.0 Z M 8.3 58.4 C 8.3 59.2 8.6 58.7 8.5 60.6 C 8.6 60.0 8.6 59.6 8.7 58.5 C 8.5 58.5 8.4 58.4 8.3 58.4 C 8.3 58.4 8.3 58.4 8.3 58.4 Z M 86.6 106.0 C 88.1 106.5 88.6 106.1 91.4 106.7 C 90.0 106.1 88.3 106.2 86.6 106.0 C 86.6 106.0 86.6 106.0 86.6 106.0 Z M 192.7 110.6 C 191.7 110.6 192.9 110.5 191.4 110.5 C 190.5 110.6 190.1 110.8 188.8 110.9 C 190.6 111.0 193.9 110.5 195.2 110.8 C 196.8 110.6 196.6 110.4 197.1 110.2 C 196.4 110.3 196.0 110.3 195.9 110.2 C 195.0 110.6 193.8 110.1 192.7 110.6 C 192.7 110.6 192.7 110.6 192.7 110.6 Z M 119.9 110.4 C 118.8 110.1 120.8 110.2 121.2 110.1 C 122.1 110.2 121.7 110.3 121.9 110.5 C 123.0 110.6 123.3 110.5 123.1 110.3 C 121.0 110.0 118.4 109.8 120.0 109.6 C 118.0 109.3 119.0 109.8 118.1 109.7 C 117.0 109.4 118.0 109.5 118.1 109.2 C 117.6 109.3 116.0 109.4 116.2 109.1 C 113.1 109.1 114.4 109.6 116.7 110.2 C 118.8 110.2 116.4 109.9 119.9 110.4 C 119.9 110.4 119.9 110.4 119.9 110.4 Z M 43.0 93.4 C 43.2 93.5 44.7 94.1 44.6 94.2 C 46.4 94.7 48.1 95.0 49.9 95.4 C 49.6 95.1 47.2 94.4 48.1 94.9 C 47.5 94.5 45.9 93.8 45.0 93.3 C 43.3 92.6 42.6 92.8 42.6 92.4 C 41.0 91.9 41.8 92.3 39.5 91.1 C 43.1 93.1 38.1 90.7 37.8 90.8 C 39.9 91.8 41.9 92.6 41.7 92.3 C 43.3 93.1 45.2 93.9 45.5 94.3 C 45.3 94.3 44.0 93.7 43.0 93.4 C 43.0 93.4 43.0 93.4 43.0 93.4 Z M 53.4 96.5 C 52.7 96.3 52.0 96.1 50.8 95.6 C 51.5 95.9 51.7 96.1 51.6 96.2 C 53.8 97.0 54.0 96.9 54.4 97.3 C 55.5 97.7 54.2 96.8 56.0 97.5 C 55.8 97.4 54.9 97.1 55.0 97.0 C 54.8 97.2 54.5 97.1 53.4 96.5 C 53.4 96.5 53.4 96.5 53.4 96.5 Z M 69.6 101.7 C 71.1 102.0 68.9 101.3 69.7 101.4 C 69.3 101.3 66.6 100.5 67.1 100.4 C 66.4 99.9 63.5 99.8 63.8 99.5 C 63.2 99.3 63.4 99.5 63.3 99.6 C 65.1 100.0 65.1 100.2 63.7 99.9 C 63.9 100.0 65.1 100.3 65.9 100.5 C 66.0 100.4 65.3 100.2 65.4 100.1 C 67.0 100.6 68.2 101.1 69.6 101.7 C 69.6 101.7 69.6 101.7 69.6 101.7 Z M 176.5 9.6 C 175.0 9.5 174.0 9.5 173.2 9.6 C 173.7 9.7 174.4 9.6 175.2 9.6 C 175.4 9.8 174.7 9.8 173.9 9.7 C 174.6 10.0 177.4 9.9 176.5 9.6 C 176.5 9.6 176.5 9.6 176.5 9.6 Z M 163.4 9.3 C 162.0 9.2 161.0 9.3 160.8 9.4 C 161.4 9.6 161.2 9.3 162.2 9.4 C 162.7 9.4 163.1 9.5 163.4 9.6 C 164.1 9.6 163.9 9.5 164.1 9.5 C 164.6 9.4 164.7 9.5 164.8 9.5 C 166.6 9.3 162.7 9.5 163.4 9.3 C 163.4 9.3 163.4 9.3 163.4 9.3 Z M 60.6 99.0 C 60.1 98.8 59.8 98.6 58.6 98.2 C 58.8 98.4 57.8 98.1 57.0 97.8 C 58.1 98.4 58.7 98.5 60.6 99.0 C 60.6 99.0 60.6 99.0 60.6 99.0 Z M 84.5 16.1 C 82.7 16.3 82.9 16.6 80.4 16.9 C 80.4 17.0 80.4 17.1 80.5 17.2 C 81.9 16.7 82.6 16.7 84.5 16.1 C 84.5 16.1 84.5 16.1 84.5 16.1 Z M 307.0 69.3 C 306.9 69.1 306.3 70.4 306.2 70.4 C 306.4 70.8 305.6 71.1 303.9 73.5 C 303.8 73.4 303.9 73.3 304.1 72.9 C 302.6 74.8 304.7 72.6 305.0 72.5 C 306.0 71.0 306.3 70.8 307.0 69.3 C 307.0 69.3 307.0 69.3 307.0 69.3 Z M 173.2 111.0 C 173.1 111.0 173.5 111.0 173.9 111.0 C 174.3 111.0 174.7 111.0 175.1 111.0 C 175.0 110.6 172.8 110.6 174.5 110.2 C 173.9 110.2 173.8 110.2 173.8 110.3 C 170.7 111.1 168.2 110.0 164.1 110.5 C 163.4 110.5 163.5 110.6 163.4 110.7 C 163.9 110.7 164.0 110.7 164.1 110.7 C 164.6 110.4 168.3 110.7 166.7 110.9 C 166.8 111.0 167.3 110.9 167.3 110.9 C 167.7 110.8 168.2 110.8 168.6 110.8 C 168.4 110.7 167.5 110.7 167.3 110.6 C 169.4 110.7 171.9 110.7 170.6 111.0 C 171.9 111.0 172.3 110.8 173.2 110.7 C 174.0 110.7 174.0 110.9 173.2 111.0 C 173.2 111.0 173.2 111.0 173.2 111.0 Z M 190.0 110.0 C 192.0 109.9 191.2 109.7 193.2 109.6 C 192.0 109.5 190.4 109.9 188.7 109.9 C 189.0 110.0 189.9 109.9 190.0 110.0 C 190.0 110.0 190.0 110.0 190.0 110.0 Z M 152.3 110.7 C 152.7 110.4 150.9 110.4 149.0 110.3 C 148.7 110.6 150.4 110.7 152.3 110.7 C 152.3 110.7 152.3 110.7 152.3 110.7 Z M 160.8 110.8 C 162.7 110.7 158.4 110.7 159.5 110.4 C 158.6 110.5 157.6 110.5 157.6 110.4 C 156.9 110.4 156.9 110.5 155.6 110.5 C 155.7 110.7 157.8 110.6 157.6 110.8 C 159.0 110.6 159.3 110.6 160.8 110.8 C 160.8 110.8 160.8 110.8 160.8 110.8 Z M 162.1 110.8 C 163.4 110.7 161.8 110.3 160.2 110.3 C 160.7 110.5 161.1 110.6 162.1 110.8 C 162.1 110.8 162.1 110.8 162.1 110.8 Z M 18.6 77.5 C 19.2 78.0 18.9 77.4 19.6 78.0 C 19.7 77.9 17.2 75.7 19.3 77.5 C 18.7 76.6 18.0 76.6 17.3 75.7 C 17.5 76.0 17.6 76.3 17.2 75.8 C 16.8 75.7 19.0 77.6 18.6 77.5 C 18.6 77.5 18.6 77.5 18.6 77.5 Z M 21.2 79.7 C 21.7 80.1 21.5 79.9 21.2 79.6 C 21.4 79.6 22.1 80.3 22.7 80.7 C 22.7 80.8 21.9 79.6 22.1 79.5 C 19.6 77.8 21.2 79.4 21.2 79.7 C 21.2 79.7 21.2 79.7 21.2 79.7 Z M 23.6 81.4 C 25.2 82.8 27.8 84.4 29.2 84.9 C 28.0 83.8 24.6 81.7 23.6 81.4 C 23.6 81.4 23.6 81.4 23.6 81.4 Z M 12.2 68.9 C 13.1 71.3 16.7 75.6 14.1 71.4 C 14.0 71.6 12.2 69.0 11.8 67.6 C 11.7 67.6 10.9 66.2 11.0 66.1 C 10.5 65.1 12.3 69.5 12.2 68.9 C 12.2 68.9 12.2 68.9 12.2 68.9 Z M 31.8 85.9 C 30.7 85.5 31.9 86.6 30.4 85.6 C 29.5 85.1 30.6 85.8 30.3 85.8 C 32.2 86.9 36.6 88.8 36.9 89.2 C 38.0 89.7 38.4 89.7 40.6 90.7 C 40.7 90.6 33.0 87.3 31.8 86.1 C 31.9 86.0 34.4 87.3 31.8 85.9 C 31.8 85.9 31.8 85.9 31.8 85.9 Z M 84.7 17.5 C 84.9 17.3 82.5 17.9 82.9 17.6 C 81.7 18.1 80.4 18.2 79.0 18.7 C 78.6 18.7 78.7 18.3 76.7 18.7 C 76.7 19.0 77.6 18.7 76.7 19.0 C 74.9 19.5 75.4 19.1 73.3 19.7 C 73.7 20.0 69.0 20.8 69.6 21.1 C 70.6 20.8 70.5 20.6 72.3 20.2 C 72.9 20.1 72.7 20.3 73.4 20.1 C 72.9 20.5 71.9 20.4 71.2 20.7 C 71.4 20.9 72.8 20.5 73.0 20.7 C 73.8 20.4 72.7 20.6 72.9 20.4 C 75.1 19.9 72.9 21.0 75.3 20.4 C 74.7 20.3 74.7 20.2 75.1 19.9 C 76.1 19.8 79.0 19.0 77.4 19.6 C 77.6 19.8 79.4 19.1 79.1 19.0 C 80.0 18.8 80.2 18.9 80.2 18.9 C 82.7 18.3 83.0 18.1 82.4 17.9 C 82.9 17.6 83.3 17.9 84.7 17.5 C 84.7 17.5 84.7 17.5 84.7 17.5 Z M 10.7 56.3 C 10.7 55.3 10.5 57.3 10.3 58.3 C 10.5 57.1 10.7 57.6 11.0 56.4 C 10.9 56.8 10.8 56.7 11.0 55.9 C 10.9 55.7 10.4 57.4 10.7 56.3 C 10.7 56.3 10.7 56.3 10.7 56.3 Z M 45.2 92.6 C 46.0 93.1 50.4 94.6 52.8 95.5 C 52.5 95.0 46.7 93.4 46.1 92.8 C 44.8 92.3 46.7 93.2 45.2 92.6 C 45.2 92.6 45.2 92.6 45.2 92.6 Z M 63.5 22.2 C 63.0 22.4 63.3 22.3 63.5 22.3 C 63.4 22.4 62.3 22.7 61.5 23.0 C 62.7 22.8 61.3 23.2 61.6 23.4 C 61.0 23.6 60.7 23.7 60.6 23.8 C 60.4 23.4 57.4 25.0 60.7 24.1 C 60.0 24.0 60.3 24.0 61.6 23.5 C 63.2 23.2 64.3 22.7 64.9 22.8 C 65.8 22.5 66.2 22.3 67.5 22.0 C 67.8 22.1 69.1 21.8 68.2 22.4 C 70.5 21.8 68.8 21.7 70.8 21.1 C 72.7 20.8 69.9 21.6 70.3 21.7 C 70.8 21.6 70.7 21.7 70.9 21.7 C 71.6 21.5 71.6 21.3 70.9 21.5 C 71.1 21.4 72.9 20.7 72.5 21.1 C 73.6 20.7 70.6 20.8 69.1 21.4 C 68.2 21.7 68.1 21.3 69.0 21.1 C 68.6 20.9 67.0 21.9 67.3 21.3 C 66.6 21.5 65.9 21.7 65.2 21.9 C 65.3 21.9 65.7 21.8 65.7 21.9 C 65.1 22.1 64.3 22.3 63.6 22.5 C 64.2 22.2 64.2 22.1 63.5 22.2 C 63.5 22.2 63.5 22.2 63.5 22.2 Z M 35.6 88.2 C 37.3 89.1 37.8 89.2 39.2 89.8 C 38.7 89.4 34.9 87.6 35.6 88.2 C 35.6 88.2 35.6 88.2 35.6 88.2 Z M 94.9 16.5 C 94.8 16.4 93.7 16.6 93.7 16.5 C 95.5 16.1 93.4 16.3 94.8 15.7 C 92.4 16.3 91.7 17.0 95.0 16.6 C 97.3 16.2 92.6 16.9 94.9 16.5 C 94.9 16.5 94.9 16.5 94.9 16.5 Z M 87.8 17.5 C 86.3 17.9 90.0 17.4 90.8 17.3 C 90.8 17.4 90.8 17.5 90.8 17.6 C 92.8 16.8 90.1 17.2 91.8 16.4 C 89.5 16.7 88.5 16.8 86.5 17.3 C 86.7 17.4 87.1 17.2 87.1 17.2 C 88.6 16.9 87.6 17.5 86.0 17.6 C 86.5 17.7 87.9 17.4 88.9 17.2 C 88.6 17.2 88.3 17.2 88.3 17.1 C 89.6 16.8 89.2 17.1 90.1 17.0 C 90.1 17.1 87.8 17.7 87.8 17.5 C 87.8 17.5 87.8 17.5 87.8 17.5 Z M 212.6 14.3 C 211.4 14.2 213.9 14.9 213.7 15.2 C 215.0 15.4 215.4 15.4 216.2 15.5 C 215.8 15.2 214.4 15.0 213.8 14.8 C 214.1 14.5 215.7 15.1 216.3 15.0 C 217.1 14.7 213.1 14.7 212.6 14.3 C 212.6 14.3 212.6 14.3 212.6 14.3 Z M 32.5 34.6 C 31.8 35.0 32.2 34.9 32.5 34.7 C 32.5 34.9 31.4 35.5 31.3 35.4 C 30.4 35.9 31.9 35.2 30.8 35.9 C 30.7 36.1 32.6 34.9 32.6 34.8 C 34.0 34.0 33.0 34.9 33.5 34.8 C 34.7 34.1 34.1 34.1 36.0 33.3 C 34.8 33.7 33.8 34.1 32.5 34.6 C 32.5 34.6 32.5 34.6 32.5 34.6 Z M 99.0 15.3 C 99.3 15.2 97.7 15.9 96.1 16.0 C 94.0 16.3 97.4 16.0 95.5 16.3 C 97.1 16.1 99.0 15.6 101.5 15.2 C 102.1 15.0 98.1 15.7 100.3 15.2 C 100.2 15.2 99.6 15.3 99.6 15.3 C 99.2 15.4 99.1 15.4 99.0 15.3 C 99.0 15.3 99.0 15.3 99.0 15.3 Z M 96.7 16.3 C 96.8 16.3 97.4 16.2 97.4 16.2 C 98.1 16.1 98.2 16.3 97.4 16.4 C 98.4 16.5 98.3 16.0 100.4 15.9 C 99.5 15.8 99.0 15.7 101.0 15.6 C 102.5 15.2 97.4 16.0 96.7 16.3 C 96.7 16.3 96.7 16.3 96.7 16.3 Z M 192.5 12.4 C 192.7 12.6 194.1 12.6 195.1 12.7 C 193.8 12.8 188.7 12.3 188.0 12.1 C 187.5 12.1 186.9 12.2 186.7 12.0 C 186.8 12.1 185.3 12.1 186.1 12.2 C 186.0 12.3 184.8 12.2 184.8 12.3 C 182.9 12.2 185.4 12.2 184.8 12.0 C 182.5 12.1 183.0 11.9 180.3 11.8 C 180.7 12.0 183.8 12.1 183.5 12.4 C 185.6 12.3 187.9 12.6 189.2 12.9 C 187.3 12.4 194.8 12.8 198.2 13.2 C 198.1 13.3 199.3 13.4 200.7 13.6 C 201.7 14.0 201.4 13.4 199.5 13.4 C 199.6 13.2 202.1 13.6 203.2 13.7 C 202.0 13.4 202.7 13.4 202.0 13.2 C 199.6 13.0 201.8 13.3 201.3 13.4 C 200.7 13.3 200.1 13.3 199.4 13.2 C 202.8 13.1 194.6 12.7 197.6 13.0 C 195.0 12.7 195.0 12.5 192.5 12.4 C 192.5 12.4 192.5 12.4 192.5 12.4 Z M 131.7 12.0 C 131.2 12.0 129.2 12.3 129.1 12.1 C 126.5 12.5 128.8 12.5 125.9 12.8 C 126.1 12.8 127.2 12.7 127.2 12.8 C 128.3 12.7 129.4 12.5 129.1 12.3 C 130.4 12.2 130.8 12.1 131.7 12.0 C 131.4 12.2 130.9 12.3 129.7 12.3 C 129.6 12.5 130.0 12.7 131.7 12.5 C 132.4 12.3 131.9 12.1 131.7 12.0 C 131.7 12.0 131.7 12.0 131.7 12.0 Z M 125.3 12.7 C 124.9 12.7 124.6 12.7 124.6 12.5 C 123.7 12.4 124.3 12.9 123.3 13.0 C 122.6 13.0 122.8 12.9 122.7 12.8 C 121.6 12.9 120.7 13.0 120.2 13.0 C 118.5 13.3 122.2 13.0 122.7 13.1 C 124.0 13.0 123.5 12.8 125.3 12.7 C 125.3 12.7 125.3 12.7 125.3 12.7 Z M 106.4 14.4 C 106.1 14.2 105.4 14.7 104.6 14.7 C 105.2 14.9 107.0 14.5 105.8 15.0 C 107.7 14.8 107.8 14.8 109.6 14.5 C 110.8 14.6 109.6 14.3 107.7 14.7 C 107.9 14.5 108.8 14.4 108.9 14.3 C 110.1 14.6 113.2 13.5 111.4 14.1 C 110.8 14.1 110.4 14.0 110.1 14.0 C 109.7 14.2 105.5 14.6 106.4 14.4 C 106.4 14.4 106.4 14.4 106.4 14.4 Z M 48.1 28.2 C 49.7 27.5 50.6 27.2 51.4 26.9 C 52.3 26.6 53.6 26.2 54.6 25.9 C 54.7 25.9 54.5 26.0 54.1 26.2 C 54.6 26.1 55.2 25.9 56.1 25.5 C 56.0 25.5 55.6 25.6 55.6 25.7 C 53.9 26.0 55.3 25.6 55.5 25.3 C 53.5 25.8 50.3 27.3 48.8 27.6 C 47.6 28.1 49.0 27.6 48.1 28.2 C 48.1 28.2 48.1 28.2 48.1 28.2 Z M 305.9 66.9 C 305.9 67.2 305.6 67.8 305.8 67.7 C 306.1 67.2 306.1 66.7 306.3 66.2 C 305.9 67.2 305.6 66.9 305.0 68.2 C 305.3 67.9 305.5 68.1 305.9 66.9 C 305.9 66.9 305.9 66.9 305.9 66.9 Z M 112.6 13.8 C 112.7 13.9 112.8 14.0 112.0 14.1 C 111.8 14.3 113.8 14.0 113.9 14.1 C 114.6 14.0 114.3 13.9 115.2 13.8 C 114.8 13.7 113.2 13.9 113.9 13.6 C 114.4 13.6 114.5 13.6 114.5 13.6 C 115.8 13.4 113.8 13.5 112.6 13.8 C 112.6 13.8 112.6 13.8 112.6 13.8 Z M 218.7 15.4 C 217.8 15.3 218.7 15.6 219.3 15.7 C 217.5 15.7 220.3 16.2 220.4 16.5 C 219.7 16.2 217.2 15.9 216.8 15.8 C 216.1 15.7 216.9 16.1 214.9 15.9 C 215.1 16.1 217.3 16.2 216.8 15.9 C 217.3 16.3 219.4 16.3 219.2 16.5 C 221.9 17.0 222.5 16.9 222.8 16.7 C 220.2 16.4 221.6 16.2 219.3 15.9 C 219.3 15.8 220.0 15.9 220.5 16.0 C 220.3 15.8 219.3 15.6 218.7 15.4 C 218.7 15.4 218.7 15.4 218.7 15.4 Z M 152.4 11.3 C 150.9 11.3 151.0 11.5 151.0 11.7 C 151.6 11.7 152.5 11.6 153.6 11.6 C 153.4 11.5 151.6 11.6 152.4 11.3 C 152.4 11.3 152.4 11.3 152.4 11.3 Z M 208.8 14.4 C 208.7 14.3 208.2 14.3 208.2 14.4 C 206.6 14.2 206.3 14.0 205.8 13.8 C 204.9 13.8 205.2 14.0 205.1 14.1 C 206.6 14.1 206.3 14.3 208.2 14.5 C 208.1 14.4 208.3 14.4 208.8 14.4 C 208.8 14.4 208.8 14.4 208.8 14.4 Z M 166.0 11.5 C 165.3 11.5 165.6 11.6 166.0 11.6 C 165.1 11.8 162.5 11.6 161.4 11.7 C 161.3 11.9 164.6 11.8 160.8 11.9 C 161.5 12.1 164.9 12.0 166.6 12.0 C 166.3 12.3 163.9 12.2 164.0 12.5 C 166.1 12.4 168.3 12.3 168.6 11.9 C 165.7 11.8 166.7 11.6 166.0 11.5 C 166.0 11.5 166.0 11.5 166.0 11.5 Z M 169.2 11.7 C 169.0 11.6 168.4 11.7 167.3 11.7 C 168.9 12.0 169.9 11.9 173.2 12.0 C 173.2 12.0 173.2 11.9 173.2 11.9 C 173.8 11.9 174.5 11.9 175.1 12.0 C 172.3 11.6 171.6 11.7 168.6 11.8 C 168.5 11.7 168.9 11.7 169.2 11.7 C 169.2 11.7 169.2 11.7 169.2 11.7 Z M 84.9 18.2 C 85.7 18.2 86.4 18.2 87.8 18.0 C 87.7 17.8 86.8 17.9 84.9 18.2 C 84.9 18.2 84.9 18.2 84.9 18.2 Z M 211.3 14.9 C 213.0 15.0 209.6 14.7 210.6 15.1 C 212.0 15.3 213.4 15.6 213.6 15.8 C 216.1 15.8 210.9 15.2 211.3 14.9 C 211.3 14.9 211.3 14.9 211.3 14.9 Z M 200.0 14.2 C 199.3 14.1 199.3 13.8 200.0 14.1 C 201.8 14.2 198.5 13.7 201.3 14.0 C 200.1 13.8 197.5 13.4 196.2 13.5 C 196.3 13.7 198.7 13.8 198.7 14.0 C 198.9 14.1 198.5 14.1 198.1 14.0 C 198.4 14.2 198.9 14.1 200.0 14.2 C 200.0 14.2 200.0 14.2 200.0 14.2 Z M 190.5 13.0 C 191.6 13.2 192.8 13.4 195.0 13.6 C 193.6 13.3 192.8 13.0 190.5 13.0 C 190.5 13.0 190.5 13.0 190.5 13.0 Z M 301.1 47.8 C 300.4 46.9 300.8 47.8 300.9 48.0 C 301.6 48.9 301.7 48.7 302.4 49.7 C 302.4 49.2 301.4 48.5 301.1 47.8 C 301.1 47.8 301.1 47.8 301.1 47.8 Z M 303.4 51.1 C 303.3 51.3 304.1 52.5 304.0 52.6 C 304.8 53.1 304.6 54.5 304.9 54.4 C 305.0 54.7 305.0 54.9 305.2 55.4 C 305.3 54.3 304.1 52.1 303.4 51.1 C 303.4 51.1 303.4 51.1 303.4 51.1 Z M 179.6 12.9 C 177.9 12.7 180.1 13.3 178.3 13.1 C 178.2 13.2 181.6 13.4 179.5 13.4 C 182.2 13.7 179.4 12.9 179.6 12.9 C 179.6 12.9 179.6 12.9 179.6 12.9 Z M 147.8 12.8 C 148.0 12.6 145.6 12.8 144.6 12.8 C 144.6 12.9 145.4 12.8 145.9 12.8 C 145.6 12.9 145.3 13.0 144.6 13.0 C 145.1 13.2 146.9 12.8 147.8 12.8 C 147.8 12.8 147.8 12.8 147.8 12.8 Z M 183.1 8.9 C 184.1 9.1 185.5 9.4 186.3 9.1 C 187.4 9.4 185.5 9.4 186.9 9.6 C 188.7 9.6 187.8 9.7 190.8 9.8 C 190.2 10.1 192.3 10.2 192.7 10.5 C 191.5 10.4 190.0 10.0 189.4 10.2 C 190.4 10.3 189.8 10.5 189.4 10.3 C 187.5 10.0 191.8 10.1 189.5 9.8 C 188.7 10.1 185.3 9.3 183.0 9.2 C 183.9 9.0 181.3 8.8 183.1 8.9 C 183.1 8.9 183.1 8.9 183.1 8.9 Z M 194.6 10.1 C 196.2 10.2 196.9 10.8 196.5 10.8 C 196.5 10.7 194.7 10.5 194.6 10.6 C 195.0 10.6 195.4 10.7 195.2 10.7 C 192.4 10.5 193.4 10.3 192.7 10.1 C 194.3 10.1 194.7 10.3 195.3 10.3 C 194.9 10.2 194.5 10.2 194.6 10.1 C 194.6 10.1 194.6 10.1 194.6 10.1 Z M 226.9 18.2 C 226.6 18.0 226.2 18.1 225.6 18.0 C 225.6 17.7 222.5 17.7 222.1 17.4 C 222.8 17.4 224.4 17.6 225.1 17.6 C 224.3 17.5 224.1 17.4 223.3 17.3 C 223.5 17.1 225.3 17.4 225.8 17.3 C 225.9 17.5 226.7 17.5 227.0 17.6 C 224.6 17.4 228.2 18.4 226.9 18.2 C 226.9 18.2 226.9 18.2 226.9 18.2 Z M 164.7 12.7 C 164.5 13.0 167.2 13.6 164.7 13.9 C 164.2 13.7 163.8 13.4 164.0 13.1 C 162.5 13.3 161.8 13.0 160.8 13.3 C 157.8 12.5 163.1 13.4 164.7 12.7 C 164.7 12.7 164.7 12.7 164.7 12.7 Z M 154.3 13.0 C 154.9 12.7 153.4 12.8 153.7 12.6 C 154.9 12.7 159.0 12.5 157.6 12.6 C 156.3 12.7 156.3 12.9 154.3 13.0 C 154.3 13.0 154.3 13.0 154.3 13.0 Z M 80.1 102.4 C 78.2 102.2 77.4 101.6 78.5 101.7 C 78.0 101.9 80.8 102.3 80.1 102.4 C 80.1 102.4 80.1 102.4 80.1 102.4 Z M 11.6 74.4 C 12.4 75.7 13.1 76.3 13.0 76.6 C 12.0 75.5 12.2 75.5 11.4 74.5 C 11.3 74.4 10.8 73.8 10.8 73.6 C 11.2 74.2 11.2 74.0 11.6 74.4 C 11.6 74.4 11.6 74.4 11.6 74.4 Z M 114.7 9.5 C 114.5 9.4 113.8 9.5 114.1 9.3 C 116.0 9.2 118.2 8.8 119.8 8.5 C 119.8 8.6 119.8 8.7 119.8 8.8 C 116.7 9.0 115.9 9.2 114.7 9.5 C 114.7 9.5 114.7 9.5 114.7 9.5 Z M 110.8 9.4 C 110.6 9.6 111.6 9.8 110.3 9.9 C 110.3 9.7 107.9 9.8 109.0 9.6 C 109.4 9.7 110.0 9.6 110.8 9.4 C 110.8 9.4 110.8 9.4 110.8 9.4 Z M 219.1 12.2 C 220.6 12.4 218.5 11.9 218.6 11.8 C 219.7 12.0 221.1 12.3 221.6 12.5 C 220.5 12.3 219.7 12.5 219.1 12.2 C 219.1 12.2 219.1 12.2 219.1 12.2 Z M 195.9 10.2 C 192.6 9.9 194.1 9.6 190.8 9.3 C 192.1 9.2 195.1 9.5 196.0 9.4 C 195.8 9.5 196.6 9.6 196.6 9.7 C 195.4 9.6 195.2 9.5 194.0 9.4 C 194.4 9.7 194.4 9.6 194.0 9.8 C 194.9 9.9 195.4 9.9 195.9 9.9 C 195.7 10.0 196.8 10.2 195.9 10.2 C 195.9 10.2 195.9 10.2 195.9 10.2 Z M 218.5 12.8 C 219.7 12.9 220.7 13.4 219.7 13.2 C 219.5 13.0 218.6 13.1 218.4 12.9 C 220.2 13.1 217.0 12.6 217.9 12.5 C 219.0 12.7 219.3 12.7 219.1 12.5 C 219.8 12.6 220.9 12.7 220.9 12.8 C 220.5 12.8 219.8 12.7 219.7 12.7 C 220.1 12.8 220.5 12.9 220.3 12.9 C 219.3 12.7 218.8 12.7 218.5 12.8 C 218.5 12.8 218.5 12.8 218.5 12.8 Z M 209.8 11.7 C 211.5 11.9 211.7 12.1 212.3 12.4 C 210.0 12.0 209.6 11.6 208.0 11.3 C 209.8 11.6 211.8 11.5 212.3 11.7 C 211.5 11.7 210.0 11.5 209.8 11.7 C 209.8 11.7 209.8 11.7 209.8 11.7 Z M 242.5 103.2 C 241.2 103.3 240.0 103.4 238.5 103.6 C 238.1 104.0 240.9 103.8 239.7 103.9 C 238.2 104.3 239.2 103.7 237.9 104.0 C 239.2 104.1 232.5 105.4 232.2 105.1 C 233.2 104.9 233.5 104.8 233.2 104.7 C 236.0 104.2 237.0 103.8 239.0 103.3 C 240.5 103.3 244.7 102.4 246.9 101.6 C 248.4 101.7 250.9 100.5 253.0 100.3 C 253.5 100.0 251.3 100.5 252.9 100.0 C 254.0 100.0 253.2 100.3 254.6 100.0 C 254.7 99.9 254.3 99.8 255.1 99.6 C 255.0 99.8 255.9 99.5 256.2 99.5 C 253.3 100.3 256.5 99.8 254.2 100.5 C 253.2 100.6 255.1 99.8 252.5 100.5 C 251.5 100.9 250.7 101.2 250.9 101.4 C 250.2 101.6 249.8 101.7 249.3 101.9 C 250.2 101.3 245.5 102.9 247.6 102.0 C 247.8 102.0 249.3 101.6 250.3 101.3 C 249.3 101.3 248.2 101.7 246.5 102.2 C 245.7 102.2 246.7 101.9 245.8 102.1 C 244.5 102.5 246.4 102.3 245.4 102.6 C 245.9 102.6 246.5 102.4 246.5 102.5 C 244.1 102.8 243.3 103.3 242.0 103.5 C 242.8 103.2 240.6 103.6 242.5 103.2 C 242.5 103.2 242.5 103.2 242.5 103.2 Z M 261.9 97.6 C 262.4 97.5 262.9 97.3 263.4 97.1 C 263.6 97.3 261.6 98.0 263.0 97.8 C 260.8 98.4 263.0 97.4 261.9 97.6 C 261.9 97.6 261.9 97.6 261.9 97.6 Z M 251.1 99.8 C 250.3 99.8 250.9 100.2 250.1 100.4 C 251.4 100.0 252.6 99.6 252.8 99.9 C 251.3 100.2 250.6 100.4 249.0 100.9 C 250.5 100.1 247.3 101.0 246.7 100.9 C 247.9 100.5 248.9 100.2 250.5 99.7 C 250.3 99.9 252.7 99.4 251.1 99.8 C 251.1 99.8 251.1 99.8 251.1 99.8 Z M 255.3 98.3 C 255.7 98.4 257.9 97.6 257.5 98.0 C 256.1 98.4 255.6 98.6 256.0 98.7 C 255.0 99.0 254.8 99.0 253.9 99.2 C 253.2 99.1 254.9 98.7 255.3 98.4 C 255.0 98.5 254.7 98.5 255.3 98.3 C 255.3 98.3 255.3 98.3 255.3 98.3 Z M 299.5 74.9 C 300.0 74.8 298.4 76.1 298.0 76.4 C 298.6 76.1 298.5 76.4 297.5 77.4 C 297.7 76.8 296.2 78.2 295.0 78.7 C 294.9 79.1 296.3 78.1 294.7 79.4 C 293.4 80.3 292.4 81.2 290.2 82.7 C 289.6 82.7 290.5 82.1 291.0 81.6 C 289.6 82.6 289.9 82.2 288.7 82.9 C 289.0 82.9 288.1 83.5 287.6 83.6 C 289.7 82.3 284.7 85.0 286.9 83.6 C 287.0 83.6 287.5 83.3 288.0 83.0 C 287.6 83.6 290.3 81.8 291.0 81.6 C 291.7 80.4 294.5 78.8 297.0 76.8 C 297.3 76.8 296.6 77.5 297.2 77.0 C 297.2 76.9 298.0 76.2 298.3 75.8 C 298.3 75.9 298.7 75.7 299.2 75.3 C 299.2 75.2 299.2 75.1 299.5 74.9 C 299.5 74.9 299.5 74.9 299.5 74.9 Z M 139.4 108.6 C 139.5 108.1 135.3 108.2 134.2 108.2 C 134.4 107.8 141.7 108.3 139.4 108.6 C 139.4 108.6 139.4 108.6 139.4 108.6 Z M 164.7 108.7 C 163.6 108.7 164.3 108.9 163.4 108.9 C 163.3 108.7 160.9 109.2 160.8 108.9 C 162.0 108.7 162.8 108.7 164.7 108.7 C 164.7 108.7 164.7 108.7 164.7 108.7 Z M 188.0 107.8 C 186.1 108.0 189.0 107.9 188.6 108.0 C 187.0 108.1 185.3 108.2 185.4 108.0 C 186.9 108.0 187.8 107.6 188.0 107.8 C 188.0 107.8 188.0 107.8 188.0 107.8 Z M 153.0 108.4 C 151.4 108.3 154.0 108.0 154.3 108.2 C 152.6 108.2 155.4 108.4 156.9 108.4 C 156.8 108.7 156.2 108.6 156.9 108.8 C 154.6 109.0 156.5 108.6 154.9 108.6 C 153.8 108.7 155.0 108.7 154.9 108.9 C 154.3 108.9 153.6 108.9 153.0 108.9 C 153.0 108.8 153.0 108.6 153.0 108.5 C 153.8 108.5 154.5 108.5 154.3 108.3 C 153.6 108.3 153.5 108.4 153.0 108.4 C 153.0 108.4 153.0 108.4 153.0 108.4 Z M 268.2 92.1 C 266.9 92.6 268.1 92.3 269.1 91.9 C 269.3 91.7 270.0 91.0 271.5 90.7 C 268.4 92.1 272.5 90.7 270.8 91.4 C 270.1 91.5 268.2 92.5 266.6 93.0 C 265.9 93.1 267.4 92.1 268.2 92.1 C 268.2 92.1 268.2 92.1 268.2 92.1 Z M 274.0 90.0 C 273.8 90.0 273.2 90.2 272.3 90.6 C 273.3 90.0 271.9 90.5 273.0 90.0 C 272.9 90.1 277.0 88.5 274.6 89.6 C 272.5 90.3 275.3 89.5 276.2 89.1 C 275.2 89.5 273.4 90.5 273.1 90.5 C 273.7 90.2 274.1 90.0 274.0 90.0 C 274.0 90.0 274.0 90.0 274.0 90.0 Z M 304.1 67.4 C 304.1 67.2 303.8 67.8 303.6 68.0 C 304.5 66.2 305.0 64.8 305.2 63.9 C 305.1 64.7 305.2 64.8 305.5 64.3 C 305.1 65.2 305.2 65.4 304.9 65.7 C 305.0 64.9 304.7 66.3 304.1 67.4 C 304.1 67.4 304.1 67.4 304.1 67.4 Z M 304.1 67.4 " fill="#000000"></path><image xlink:href="../../CEFA4209-80C9-472B-8D2B-058B96531B72/assets/53E6508B25B01044F238EBC363154AD9.png" width="89.00" height="38.00" transform="matrix(1.00, 0.00, -0.00, -1.00, 116.0, 75.0)"></image><g><clipPath id="clip-887"><path d="M 10.1 10.4 L 308.3 10.4 L 308.3 110.4 L 10.1 110.4 Z M 10.1 10.4 "></path></clipPath><g clip-path="url(#clip-887)"><text xml:space="preserve" font-family="Chalkduster" font-size="32.0" fill="#000000" transform="matrix(1.00, 0.00, -0.00, -1.00, 119.0, 46.0)">W</text><text xml:space="preserve" font-family="Chalkduster" font-size="32.0" fill="#000000" transform="matrix(1.00, 0.00, -0.00, -1.00, 148.0, 46.0)">G</text><text xml:space="preserve" font-family="Chalkduster" font-size="32.0" fill="#000000" transform="matrix(1.00, 0.00, -0.00, -1.00, 183.5, 46.0)">S</text></g></g></g></svg>