<?xml version="1.0" encoding="UTF-8" standalone="no"?><svg xmlns="http://www.w3.org/2000/svg" xmlns:xlink="http://www.w3.org/1999/xlink" clip-rule="evenodd" stroke-miterlimit="4.00" viewBox="0 0 319 133"><desc>SVG generated by Keynote</desc><defs></defs><g transform="matrix(1.00, 0.00, -0.00, -1.00, 0.0, 133.0)"><image xlink:href="../../CEFA4209-80C9-472B-8D2B-058B96531B72/assets/3D04D10A705CD79169D4D2591639252F.png" width="316.00" height="130.00" transform="matrix(1.00, 0.00, -0.00, -1.00, 1.4, 131.8)" opacity="0.50"></image><g><clipPath id="clip-886"><path d="M 264.9 106.4 C 323.1 84.4 323.1 48.8 264.9 26.9 C 206.7 4.9 112.3 4.9 54.1 26.9 C -4.2 48.8 -4.2 84.4 54.1 106.4 C 112.3 128.3 206.7 128.3 264.9 106.4 Z M 264.9 106.4 "></path></clipPath><g clip-path="url(#clip-886)"><image xlink:href="../../CEFA4209-80C9-472B-8D2B-058B96531B72/assets/59DBD66EA15A3D40E065F836EF2595FD.jpeg" width="400.00" height="400.00" transform="matrix(1.00, 0.00, -0.00, -1.00, 10.4, 122.8)"></image></g></g><path d="M 81.7 14.7 C 81.3 14.8 80.8 15.0 80.0 15.2 C 80.3 15.1 80.6 15.1 80.6 15.3 C 81.3 15.0 82.2 14.8 83.6 14.5 C 83.5 14.4 82.8 14.6 82.3 14.7 C 81.8 14.8 81.9 14.7 81.7 14.7 C 81.7 14.7 81.7 14.7 81.7 14.7 Z M 69.7 115.0 C 68.6 114.6 69.8 115.2 70.2 115.4 C 70.3 115.3 70.3 115.3 70.8 115.4 C 70.8 115.6 69.8 115.4 69.0 115.3 C 65.9 114.3 68.4 114.6 69.7 115.0 C 69.7 115.0 69.7 115.0 69.7 115.0 Z M 240.6 117.1 C 243.2 116.5 240.4 116.9 239.9 116.9 C 241.1 116.5 240.1 116.4 241.6 116.0 C 241.9 116.0 242.5 116.0 242.8 116.0 C 242.1 116.2 241.2 116.4 241.1 116.5 C 242.0 116.3 243.2 116.0 243.4 116.0 C 241.4 116.6 243.1 116.3 243.5 116.4 C 241.7 116.8 241.2 117.2 240.6 117.1 C 240.6 117.1 240.6 117.1 240.6 117.1 Z M 285.2 33.3 C 286.0 33.8 286.7 34.2 286.5 34.2 C 285.6 33.7 285.0 33.3 284.5 33.0 C 284.3 33.0 284.5 33.2 283.7 32.8 C 282.9 32.1 283.5 32.1 284.0 32.3 C 284.0 32.5 287.1 34.1 285.2 33.3 C 285.2 33.3 285.2 33.3 285.2 33.3 Z M 214.8 12.1 C 212.4 11.6 214.6 12.4 212.2 12.0 C 212.3 11.8 212.0 11.5 213.6 11.7 C 213.7 11.8 214.6 12.0 214.8 12.1 C 214.8 12.1 214.8 12.1 214.8 12.1 Z M 168.5 124.1 C 168.5 124.2 170.3 124.1 169.8 124.3 C 168.9 124.4 168.1 124.4 167.2 124.4 C 167.0 124.2 167.3 124.1 168.5 124.1 C 168.5 124.1 168.5 124.1 168.5 124.1 Z M 256.8 110.1 C 259.4 109.5 261.8 108.3 261.1 108.8 C 262.1 108.7 259.7 110.0 259.7 109.7 C 259.3 109.6 254.9 110.7 256.8 110.1 C 256.8 110.1 256.8 110.1 256.8 110.1 Z M 84.0 114.3 C 86.8 115.1 86.4 114.3 88.1 115.0 C 87.5 114.9 87.2 114.9 87.0 114.9 C 87.4 115.0 88.1 115.1 88.1 115.2 C 86.8 115.0 85.1 114.7 84.0 114.3 C 84.0 114.3 84.0 114.3 84.0 114.3 Z M 124.6 8.6 C 125.1 8.6 125.3 8.5 125.2 8.4 C 127.3 8.3 127.2 8.1 128.5 8.1 C 128.6 8.5 126.9 8.5 125.3 8.6 C 125.2 8.6 124.7 8.7 124.6 8.6 C 124.6 8.6 124.6 8.6 124.6 8.6 Z M 183.1 8.7 C 183.0 8.5 181.8 8.3 183.7 8.4 C 185.9 8.8 184.0 8.9 181.7 8.9 C 181.7 9.0 181.7 9.1 181.7 9.2 C 182.6 9.3 183.2 9.4 183.7 9.4 C 184.1 9.1 185.5 9.8 188.9 9.9 C 187.3 9.9 189.0 10.3 186.9 10.0 C 187.5 10.3 186.0 10.2 186.3 10.4 C 187.2 10.3 189.4 10.5 188.9 10.2 C 190.1 10.3 191.0 10.4 191.5 10.5 C 192.3 10.8 189.4 10.4 190.2 10.7 C 190.9 10.7 191.0 10.8 191.5 10.9 C 191.6 10.8 191.4 10.6 192.1 10.7 C 194.2 11.0 191.7 10.9 194.7 11.2 C 194.9 11.1 194.0 11.0 194.1 10.8 C 195.5 10.8 195.4 11.0 196.7 11.0 C 197.0 11.2 195.8 11.1 196.7 11.3 C 197.6 11.0 199.4 11.7 201.2 11.6 C 200.0 11.0 201.5 11.8 203.2 11.5 C 203.6 11.6 202.4 11.8 203.8 12.0 C 203.4 11.3 209.1 12.2 204.5 11.1 C 207.0 11.4 207.9 11.0 205.9 10.7 C 210.2 11.4 208.8 10.9 210.4 11.1 C 212.0 11.3 209.6 11.1 210.4 11.4 C 208.7 11.1 209.1 11.3 207.8 11.1 C 207.8 11.2 207.5 11.2 207.1 11.2 C 208.9 11.3 210.9 11.9 209.6 12.0 C 208.8 11.8 209.6 11.7 208.4 11.5 C 208.8 11.9 207.2 11.3 207.1 11.5 C 207.9 11.9 205.3 11.9 207.7 12.2 C 207.7 12.1 207.7 12.0 207.7 11.9 C 208.4 11.9 209.0 12.0 209.6 12.1 C 210.1 12.4 209.7 12.5 210.2 12.7 C 211.3 12.8 211.8 12.8 212.2 12.8 C 210.9 12.5 209.4 12.1 211.5 12.4 C 210.7 12.7 214.5 12.9 212.8 12.9 C 215.1 13.4 216.3 13.2 216.5 13.6 C 217.7 13.8 217.0 13.4 218.4 13.6 C 220.7 14.2 220.3 13.8 223.3 14.5 C 223.8 14.2 223.6 14.7 224.6 14.9 C 224.6 14.7 224.6 14.6 224.7 14.5 C 225.7 14.9 228.1 15.4 230.7 15.7 C 231.3 15.9 230.8 16.0 232.5 16.3 C 234.3 16.4 236.3 17.2 238.4 17.3 C 238.5 17.5 240.0 17.9 240.7 18.0 C 241.0 18.1 240.0 18.2 241.3 18.5 C 242.2 18.5 240.7 18.0 242.5 18.4 C 242.2 18.6 244.2 18.6 244.2 18.9 C 243.6 18.8 243.0 18.8 242.4 18.7 C 243.2 18.9 242.9 19.0 243.5 19.2 C 243.5 18.8 244.8 19.4 245.3 19.6 C 245.2 19.5 245.4 19.4 245.9 19.4 C 246.9 19.7 247.7 19.9 248.2 20.0 C 249.4 20.4 247.4 20.0 248.7 20.4 C 249.4 19.9 250.5 20.9 253.2 21.4 C 253.7 21.7 254.8 22.1 256.4 22.7 C 256.6 22.6 254.8 22.1 254.8 21.9 C 257.2 22.7 254.4 21.6 256.0 22.1 C 259.3 23.3 261.5 24.1 264.8 25.5 C 264.8 25.3 268.9 26.8 268.8 26.8 C 267.6 26.4 271.1 28.1 272.8 28.8 C 273.4 28.7 276.1 29.5 276.4 29.4 C 276.9 29.8 276.7 29.8 276.9 30.2 C 279.6 31.7 281.2 32.1 282.6 33.3 C 282.5 33.1 283.8 33.7 284.8 34.2 C 284.4 34.2 283.8 34.0 283.2 33.8 C 284.5 34.5 284.6 34.7 285.8 35.4 C 287.2 35.5 288.6 37.3 289.8 37.3 C 291.5 38.4 291.0 38.4 292.5 39.5 C 292.5 39.3 292.7 39.3 293.2 39.6 C 292.2 38.9 291.4 38.6 291.0 38.0 C 293.3 39.5 287.0 34.5 290.9 36.8 C 291.0 37.0 290.5 36.9 291.3 37.5 C 293.5 38.8 292.4 37.8 291.5 37.2 C 293.0 38.1 294.3 39.2 293.4 38.2 C 296.6 40.4 294.5 39.1 295.5 40.0 C 300.8 43.9 306.2 49.4 308.9 55.8 C 309.3 55.9 310.3 59.5 310.4 60.6 C 311.1 62.4 311.4 64.3 311.1 64.9 C 311.4 65.2 311.0 67.2 311.2 67.4 C 311.2 66.6 311.4 66.0 311.4 66.8 C 311.2 69.5 310.2 73.5 309.9 75.1 C 309.3 75.9 308.6 77.6 308.2 78.8 C 308.0 78.9 308.4 78.0 308.0 78.7 C 308.0 79.0 306.8 81.4 306.2 81.9 C 306.7 81.2 307.0 80.3 306.3 81.3 C 306.4 81.4 305.5 82.6 305.9 82.4 C 304.8 83.8 304.2 84.8 303.1 85.9 C 303.9 84.9 304.3 84.2 304.3 84.0 C 303.7 84.9 303.2 85.6 302.5 86.1 C 302.9 86.2 301.5 87.4 300.2 88.9 C 299.8 89.2 299.4 89.4 298.2 90.5 C 297.7 91.1 300.2 89.0 298.9 90.2 C 298.8 90.1 297.4 91.2 297.9 91.1 C 296.2 92.4 295.3 93.4 293.7 94.3 C 295.7 92.9 294.0 93.7 293.5 94.0 C 293.1 94.3 292.4 94.8 292.5 94.9 C 292.5 95.0 293.5 94.2 293.7 94.2 C 292.3 95.1 292.1 95.7 291.4 95.9 C 292.1 95.5 292.1 95.3 291.3 95.7 C 291.4 96.2 286.9 98.7 288.3 97.6 C 288.4 97.7 290.0 96.7 290.2 96.5 C 289.6 96.7 287.1 98.4 287.6 97.8 C 289.0 96.9 289.0 97.1 290.6 95.9 C 290.7 95.7 291.7 95.0 292.2 94.5 C 289.7 96.3 289.2 96.9 288.6 96.8 C 287.5 97.6 288.4 97.4 286.3 98.6 C 283.2 100.3 285.6 98.6 284.8 99.0 C 282.1 100.7 283.1 100.5 284.4 100.0 C 282.2 101.2 281.6 101.7 278.8 103.1 C 278.8 102.9 279.2 102.6 280.1 102.0 C 280.2 102.1 282.6 101.0 282.3 101.0 C 281.9 100.8 280.1 101.6 277.0 103.1 C 277.8 103.0 277.9 102.8 274.7 104.3 C 275.4 104.4 273.1 104.9 273.1 105.1 C 273.3 105.2 274.5 104.6 275.6 104.2 C 275.5 104.3 275.2 104.6 274.1 105.1 C 273.4 105.3 272.9 105.7 270.9 106.5 C 270.6 106.3 272.1 105.7 272.3 105.4 C 271.2 105.9 271.0 106.1 269.9 106.6 C 268.8 106.8 268.8 106.5 268.7 106.1 C 270.0 105.5 272.0 104.7 270.4 105.2 C 275.1 103.2 270.3 105.6 272.1 104.9 C 273.9 103.7 273.1 104.6 276.0 103.2 C 276.9 102.8 277.2 102.6 277.5 102.3 C 277.3 102.4 275.5 103.0 277.4 102.1 C 277.9 102.0 278.9 101.6 280.4 100.9 C 280.4 100.8 277.3 102.2 280.3 100.7 C 281.8 100.0 280.7 100.9 282.6 99.8 C 282.5 99.8 283.1 99.5 283.2 99.3 C 280.4 100.9 283.6 98.9 281.7 99.8 C 284.0 98.4 282.2 99.8 283.8 98.9 C 283.8 98.7 286.4 97.6 286.3 97.3 C 285.4 97.9 283.5 99.0 283.6 98.6 C 285.4 97.7 292.6 92.8 290.0 95.0 C 291.0 94.2 295.4 90.4 295.2 90.8 C 293.9 91.8 294.0 92.0 293.9 92.2 C 296.3 90.0 297.7 89.1 299.6 86.7 C 297.2 89.1 298.8 87.0 297.1 88.2 C 296.4 88.9 295.4 89.7 295.2 89.9 C 295.7 89.8 296.8 88.8 297.1 88.3 C 297.3 88.4 297.4 88.6 297.6 88.8 C 294.5 91.2 292.7 92.8 290.9 93.9 C 292.4 92.9 287.9 95.6 289.6 94.3 C 290.4 94.0 292.2 92.8 293.6 91.8 C 293.5 91.7 293.5 91.7 293.4 91.6 C 294.0 91.1 294.8 90.5 294.8 90.4 C 293.1 91.9 291.9 92.4 290.6 93.5 C 290.6 93.5 290.6 93.4 290.5 93.4 C 290.2 93.6 289.9 93.8 290.0 93.7 C 290.6 93.2 291.5 92.6 291.6 92.5 C 290.1 93.4 289.7 93.4 288.0 94.5 C 288.2 94.0 285.8 95.2 288.2 93.5 C 288.8 93.5 290.1 92.7 290.1 92.8 C 290.9 92.4 292.2 91.4 292.8 90.8 C 292.0 91.1 290.6 92.1 290.4 91.9 C 291.5 91.1 292.3 90.4 293.0 90.1 C 291.0 91.8 294.3 89.3 295.2 88.9 C 294.9 89.0 294.4 89.3 294.1 89.4 C 295.7 88.1 296.4 87.7 296.3 87.3 C 297.9 85.7 297.8 86.2 298.8 85.1 C 297.9 85.6 299.4 84.3 298.5 84.8 C 300.2 82.9 299.2 84.4 299.8 83.8 C 300.3 83.2 300.3 83.0 300.7 82.5 C 301.6 81.7 302.8 80.0 303.2 79.9 C 303.7 79.2 303.9 79.1 304.3 78.3 C 304.4 78.1 304.4 77.8 304.6 77.4 C 304.7 77.3 305.1 76.8 305.1 76.6 C 303.7 78.6 304.0 78.0 302.4 79.9 C 302.3 80.2 302.1 80.5 302.6 80.1 C 301.6 81.6 301.1 81.9 300.0 83.2 C 299.7 83.3 299.3 83.3 298.3 84.6 C 298.4 84.2 298.0 84.4 298.4 83.9 C 299.1 83.4 299.9 82.6 300.7 81.8 C 300.7 81.6 300.5 81.7 300.8 81.2 C 301.2 80.9 301.8 80.3 302.1 79.7 C 302.1 79.7 302.1 80.0 302.0 80.2 C 303.4 78.3 302.7 78.8 303.7 77.4 C 303.4 77.6 302.8 78.5 303.2 77.6 C 303.9 76.3 304.1 76.0 304.5 75.4 C 304.5 75.3 304.4 75.3 304.6 74.9 C 305.1 74.0 304.0 77.3 305.1 75.7 C 304.9 75.4 305.7 73.8 305.9 73.6 C 305.9 74.2 305.2 75.1 305.4 75.3 C 306.7 72.2 306.0 75.3 307.0 72.2 C 306.9 72.1 306.8 72.1 306.7 72.1 C 306.4 73.4 306.1 73.3 305.9 73.2 C 305.5 74.3 305.1 74.6 304.8 75.5 C 304.5 75.0 305.2 74.6 305.6 73.5 C 305.4 73.5 305.0 74.5 304.7 74.5 C 306.0 72.1 305.7 71.5 306.4 69.2 C 306.1 69.7 306.5 67.8 306.3 68.0 C 306.2 70.0 305.6 69.1 305.4 69.4 C 305.3 70.7 305.8 70.2 305.8 71.0 C 305.4 71.3 305.4 71.1 305.1 70.9 C 305.4 69.7 305.3 69.9 305.3 69.0 C 305.6 68.2 306.1 67.6 306.2 68.7 C 306.1 68.5 306.1 66.9 306.3 66.8 C 306.3 68.3 306.4 66.6 306.5 67.6 C 306.7 66.4 306.3 64.3 306.2 62.9 C 306.1 63.0 306.0 62.5 305.9 62.6 C 306.4 63.9 305.9 64.3 305.9 65.7 C 305.9 65.1 305.8 65.4 305.7 65.7 C 305.8 64.4 305.4 63.7 305.5 62.7 C 305.4 62.7 305.3 62.7 305.2 62.7 C 305.1 61.1 305.0 61.3 304.4 60.1 C 304.4 59.6 305.0 60.1 305.3 60.2 C 305.0 59.6 304.1 57.4 304.4 58.8 C 303.8 57.5 304.3 57.7 303.6 56.3 C 303.3 56.4 304.0 57.6 303.5 57.3 C 302.8 56.1 303.5 56.7 302.7 55.8 C 302.9 55.6 303.1 55.5 302.4 54.4 C 302.7 55.3 302.2 54.4 301.9 54.2 C 302.2 54.7 302.4 55.1 302.5 55.4 C 301.4 53.5 301.1 53.1 299.7 51.6 C 300.4 52.0 299.8 51.0 300.7 52.0 C 299.8 51.1 299.0 49.7 298.4 49.3 C 298.9 50.0 299.7 50.9 299.9 51.4 C 297.3 48.4 295.4 47.0 292.3 44.1 C 292.8 44.5 293.6 45.2 293.7 45.2 C 293.4 44.9 292.8 44.4 292.8 44.3 C 294.0 45.3 295.0 46.2 295.6 46.6 C 296.5 47.5 295.0 46.3 295.9 47.2 C 296.1 47.2 297.7 48.9 297.3 48.1 C 295.7 46.8 294.2 45.2 293.6 44.3 C 291.7 43.3 293.3 44.5 291.1 43.4 C 291.3 43.4 290.9 43.0 290.3 42.5 C 290.7 43.2 288.3 41.3 288.0 41.1 C 289.1 41.7 292.7 44.0 291.1 42.5 C 291.5 43.6 286.9 39.5 287.7 40.5 C 285.2 39.0 286.2 39.2 284.7 38.6 C 284.7 38.5 284.9 38.5 284.2 38.1 C 283.4 37.7 283.2 37.6 282.8 37.5 C 286.5 39.7 285.2 39.4 287.4 40.8 C 287.0 40.6 286.7 40.4 286.8 40.5 C 286.8 40.6 286.7 40.6 286.2 40.2 C 286.2 39.8 284.3 39.1 283.9 38.6 C 284.6 39.0 285.3 39.5 285.1 39.2 C 282.1 37.4 282.9 37.5 278.2 34.9 C 279.6 35.8 277.7 34.8 275.9 34.0 C 273.5 32.9 274.7 32.9 271.5 31.6 C 271.6 32.0 270.8 31.6 269.4 31.0 C 268.8 30.7 268.0 30.3 267.0 29.9 C 266.1 29.6 264.7 29.1 264.1 28.9 C 264.5 28.7 261.3 27.5 260.6 27.5 C 260.5 27.3 259.4 27.0 258.6 26.7 C 258.4 26.5 259.4 26.8 258.6 26.5 C 257.9 26.3 258.5 26.7 257.5 26.4 C 256.4 26.0 256.7 25.8 255.0 25.3 C 254.9 25.5 255.8 25.7 254.9 25.6 C 253.4 25.0 252.0 24.6 253.2 25.2 C 251.0 24.6 252.2 24.5 250.1 23.9 C 250.7 24.1 250.6 24.2 249.5 23.9 C 248.7 23.5 248.7 23.4 248.4 23.2 C 247.7 23.2 248.0 23.3 246.2 22.8 C 246.2 22.9 246.1 23.0 246.1 23.1 C 245.3 22.8 244.1 22.6 243.9 22.4 C 245.4 22.8 245.0 22.5 245.6 22.6 C 244.1 22.2 241.2 21.1 243.4 22.0 C 241.2 21.6 242.3 21.5 240.6 21.1 C 241.6 21.7 240.7 21.2 238.8 20.8 C 238.9 21.2 237.7 20.6 236.5 20.3 C 236.6 20.5 236.3 20.6 235.3 20.4 C 235.4 20.3 234.7 20.1 233.6 19.8 C 233.5 20.0 236.0 20.6 233.5 20.1 C 232.4 19.7 232.5 19.4 230.6 19.0 C 230.3 18.7 232.3 19.2 231.9 18.9 C 230.4 18.8 229.9 18.5 227.7 18.1 C 228.5 18.7 223.1 17.8 225.7 18.5 C 225.0 18.3 223.9 18.5 223.3 18.1 C 224.2 18.2 222.7 17.8 222.8 17.7 C 221.7 17.6 219.2 17.0 219.1 17.2 C 221.5 17.5 221.4 17.7 222.1 18.0 C 218.7 17.5 215.7 17.0 216.0 16.7 C 216.0 16.8 215.5 16.8 215.4 16.8 C 216.6 17.0 217.3 17.5 215.9 17.3 C 216.2 17.1 215.2 16.9 214.2 16.6 C 214.1 16.8 209.5 15.9 210.3 16.3 C 212.2 16.4 213.6 17.0 212.2 16.9 C 211.1 16.5 208.6 16.0 209.2 15.9 C 208.5 15.9 207.8 15.9 207.2 15.9 C 206.6 16.1 208.1 16.2 207.8 16.4 C 206.9 16.2 205.4 16.1 205.3 16.0 C 207.8 16.3 204.0 15.7 206.6 15.8 C 205.0 15.6 204.7 15.5 203.4 15.3 C 203.4 15.4 202.9 15.3 202.8 15.4 C 203.9 15.3 205.0 15.6 204.7 15.8 C 202.4 15.6 202.8 15.4 200.9 15.1 C 200.3 15.3 197.6 15.3 196.3 15.0 C 198.9 15.3 196.2 14.9 197.7 14.9 C 200.0 15.3 200.6 15.1 201.5 15.0 C 200.5 14.7 198.6 14.4 198.3 14.7 C 199.6 14.9 199.6 14.7 200.3 14.8 C 200.2 14.9 199.8 15.0 198.9 14.9 C 197.9 14.7 195.5 14.6 197.1 14.4 C 195.4 14.4 193.6 14.0 191.9 14.0 C 193.8 14.2 195.2 14.5 195.7 14.7 C 194.2 14.7 192.6 14.2 192.5 14.4 C 192.7 14.6 195.2 14.8 195.7 15.0 C 193.7 15.1 190.7 14.1 193.1 14.9 C 192.0 14.7 190.4 14.6 189.9 14.4 C 191.3 14.5 189.8 14.1 189.3 14.0 C 188.1 13.9 187.1 13.9 186.7 14.0 C 188.5 14.0 189.9 14.4 188.6 14.3 C 188.3 14.2 187.9 14.3 187.3 14.3 C 187.2 14.2 185.1 14.1 184.7 14.0 C 184.9 14.1 185.8 14.2 186.0 14.3 C 184.8 14.3 183.0 14.5 182.1 14.2 C 182.9 14.2 184.0 14.3 184.0 14.2 C 180.7 13.6 179.6 13.3 175.6 12.9 C 176.1 12.9 176.4 12.9 176.2 12.8 C 173.7 12.7 172.0 12.5 172.3 12.3 C 170.7 12.3 169.9 12.5 169.1 12.6 C 170.7 12.7 171.3 12.5 172.3 12.7 C 171.7 12.8 173.6 13.3 174.3 13.5 C 177.1 13.3 177.3 13.7 180.2 13.7 C 179.3 13.9 182.3 13.9 181.4 14.1 C 178.8 13.6 176.2 13.7 172.3 13.5 C 172.8 13.3 173.3 13.1 171.7 13.0 C 169.2 12.8 170.4 13.1 168.3 13.0 C 167.5 12.8 168.7 12.8 167.7 12.7 C 167.0 12.8 165.1 12.7 164.4 12.5 C 167.1 12.6 163.9 12.3 165.7 12.2 C 164.8 12.2 164.3 12.1 163.7 12.1 C 166.4 12.4 161.1 12.4 163.1 12.6 C 159.4 12.7 162.8 12.0 159.8 12.1 C 161.3 12.2 159.3 12.3 157.1 12.3 C 156.6 12.0 154.3 12.0 152.5 12.0 C 153.5 12.1 154.2 12.1 152.5 12.3 C 153.4 12.4 155.0 12.3 155.8 12.2 C 155.8 12.3 156.1 12.4 156.5 12.5 C 154.3 12.5 155.2 12.6 154.5 12.7 C 153.9 12.6 152.3 12.7 151.9 12.5 C 151.9 12.6 151.3 12.6 151.2 12.7 C 154.0 12.7 150.8 13.0 152.5 13.1 C 153.7 13.0 153.0 12.8 154.5 12.8 C 156.0 13.1 153.3 13.1 152.5 13.4 C 153.8 13.6 155.4 13.2 155.8 13.5 C 154.1 13.8 151.4 13.7 149.3 13.6 C 149.4 14.0 145.6 13.7 145.3 14.1 C 145.0 14.0 144.6 13.9 144.0 13.9 C 143.4 14.2 142.7 13.8 142.0 13.9 C 142.0 14.0 142.2 14.1 142.7 14.2 C 140.0 14.2 139.4 14.2 136.2 14.5 C 135.7 14.4 135.1 14.3 134.8 14.1 C 135.6 14.0 136.3 13.9 136.8 13.8 C 132.5 14.1 135.3 14.6 132.2 14.4 C 132.4 14.5 134.5 14.6 132.9 14.8 C 130.2 14.7 126.4 15.3 126.4 14.6 C 124.0 14.6 122.4 15.2 121.3 15.0 C 120.5 15.1 120.3 15.2 120.0 15.3 C 120.7 15.3 121.7 15.4 122.6 15.4 C 124.0 15.2 124.7 15.3 123.2 15.1 C 125.4 14.9 126.0 15.0 127.1 15.0 C 124.2 15.4 121.4 15.5 121.4 15.9 C 120.4 15.8 119.6 15.7 118.8 15.6 C 118.5 15.9 115.2 16.3 114.9 16.1 C 117.2 15.9 119.4 15.3 117.4 15.4 C 112.0 16.2 108.9 16.1 104.2 17.1 C 104.1 17.0 104.4 16.8 103.6 16.9 C 103.6 17.0 103.4 17.2 103.0 17.3 C 101.5 17.5 100.7 17.5 98.7 17.9 C 98.8 17.7 98.5 17.6 97.4 17.7 C 96.8 18.0 95.0 18.8 93.8 19.0 C 95.0 18.7 93.4 18.7 92.6 18.9 C 93.4 19.1 87.2 19.7 89.0 19.7 C 86.6 20.2 85.5 20.3 85.4 20.2 C 84.6 20.4 84.0 20.6 83.1 20.8 C 82.5 20.6 78.5 21.8 77.9 21.8 C 79.3 21.6 79.5 21.2 78.4 21.5 C 77.7 21.8 74.1 23.0 73.4 23.1 C 73.6 22.9 73.8 22.6 75.6 22.1 C 72.6 22.8 72.7 23.2 71.8 23.7 C 71.8 23.3 70.5 24.0 70.1 24.2 C 69.2 24.3 70.2 24.1 70.0 23.9 C 69.0 24.1 68.6 24.1 67.3 24.5 C 67.7 24.6 66.2 25.0 65.7 25.1 C 65.5 25.3 64.8 25.6 63.6 26.0 C 65.1 25.1 56.9 27.9 58.9 27.5 C 57.4 28.2 57.2 27.8 55.3 28.5 C 54.9 28.8 53.8 29.2 54.8 28.9 C 54.1 29.3 53.2 29.5 52.9 29.6 C 52.5 29.7 52.1 29.8 50.5 30.5 C 52.0 30.2 47.5 31.7 48.3 31.7 C 46.8 31.9 44.7 33.5 42.2 34.3 C 42.2 34.3 41.6 34.7 41.5 34.8 C 41.2 35.1 44.4 33.6 42.4 34.6 C 39.9 35.7 41.2 34.9 40.8 35.0 C 34.4 38.3 28.0 42.4 23.6 46.1 C 24.2 45.8 24.2 45.9 23.4 46.7 C 21.9 47.4 18.0 52.1 17.6 52.9 C 17.1 53.1 15.8 55.6 15.5 55.9 C 15.7 55.5 16.0 54.4 15.5 55.4 C 15.4 56.2 14.7 56.9 14.5 57.9 C 14.0 58.2 13.3 61.2 13.3 59.7 C 13.1 60.2 13.0 60.5 12.8 60.8 C 13.1 61.0 12.9 61.5 13.3 60.6 C 12.3 63.1 12.5 63.7 12.2 65.7 C 12.4 66.0 12.6 64.5 12.6 65.7 C 12.5 65.7 12.4 65.7 12.4 65.7 C 12.4 66.1 12.5 66.3 12.4 66.4 C 12.2 66.4 12.3 65.7 12.0 65.7 C 12.1 66.6 11.7 67.3 12.0 67.6 C 12.0 66.3 12.4 67.2 12.3 68.0 C 12.1 67.3 12.7 71.1 13.2 72.3 C 13.1 73.0 12.8 71.0 12.7 71.2 C 13.3 73.5 13.2 73.3 13.6 73.5 C 14.0 74.7 14.0 75.3 14.9 76.7 C 15.2 77.6 14.5 76.3 14.9 77.2 C 15.3 77.7 15.5 77.8 16.0 78.6 C 16.9 81.0 21.9 85.5 24.2 88.4 C 23.2 87.3 24.7 88.5 26.3 89.7 C 26.3 89.9 26.0 89.8 26.6 90.3 C 26.6 90.1 27.2 90.4 28.3 91.3 C 28.4 91.4 28.1 91.4 28.7 91.8 C 29.3 91.9 30.6 93.1 31.6 93.6 C 31.9 94.1 29.5 92.3 29.2 92.4 C 31.9 94.5 32.7 94.6 35.1 96.1 C 33.8 95.4 35.9 96.8 36.2 97.1 C 35.8 96.5 37.9 97.6 36.5 96.6 C 37.5 97.2 39.0 97.9 39.2 98.1 C 38.6 97.9 37.8 97.4 37.7 97.5 C 39.0 98.1 40.5 99.2 41.2 99.3 C 40.3 98.8 39.8 98.5 39.9 98.4 C 40.3 98.4 40.7 98.6 41.5 98.9 C 39.2 98.4 45.3 101.1 45.8 101.1 C 46.2 101.7 46.6 101.9 46.3 101.9 C 49.0 103.2 48.8 102.7 50.5 103.4 C 49.9 103.4 49.2 103.4 51.8 104.6 C 51.4 104.1 54.7 105.4 53.8 104.7 C 55.6 105.3 56.0 105.5 56.7 105.8 C 57.4 106.0 58.0 106.3 58.6 106.5 C 59.6 107.0 60.5 107.4 61.8 107.8 C 61.9 107.7 61.0 107.4 61.8 107.6 C 63.0 108.1 64.1 108.5 64.9 108.9 C 65.6 109.0 64.7 108.6 65.5 108.8 C 67.4 109.6 66.9 109.8 68.6 110.5 C 70.9 110.9 70.0 110.8 71.4 111.0 C 70.8 110.8 70.1 110.4 70.9 110.6 C 72.2 111.2 72.7 111.7 73.0 111.8 C 72.0 111.5 71.3 111.3 70.8 111.1 C 70.4 111.2 69.1 110.8 70.2 111.3 C 68.8 110.8 67.2 110.3 65.2 109.7 C 65.8 110.2 63.5 109.2 64.1 109.7 C 66.3 110.3 66.8 110.7 69.0 111.2 C 68.5 110.8 70.8 111.6 71.2 111.8 C 71.2 111.6 72.8 112.1 72.4 111.8 C 74.1 112.2 74.0 112.4 75.8 112.8 C 75.9 112.9 75.6 113.0 76.3 113.1 C 77.0 113.0 77.4 113.5 78.0 113.7 C 77.7 113.3 80.2 114.1 80.4 113.9 C 79.7 113.7 78.7 113.5 78.6 113.4 C 81.5 114.1 79.3 113.3 78.7 113.0 C 78.8 113.2 77.7 113.2 77.6 113.0 C 80.0 113.4 74.4 111.7 76.5 112.4 C 78.2 112.9 78.2 112.7 80.0 113.2 C 82.0 114.1 79.4 113.7 81.5 114.6 C 82.8 114.7 83.7 114.9 83.9 114.7 C 84.2 114.9 84.5 115.0 85.0 115.2 C 85.6 115.2 83.3 114.6 85.1 114.9 C 86.0 115.2 84.9 115.3 86.8 115.6 C 87.7 115.6 84.5 114.9 86.3 115.2 C 88.1 115.9 85.9 115.0 88.1 115.4 C 88.2 115.5 88.6 115.6 89.3 115.7 C 89.4 115.8 89.0 116.0 89.8 116.1 C 90.3 115.8 90.6 116.5 92.2 116.7 C 93.1 116.5 90.6 116.2 91.1 116.1 C 92.9 116.7 94.0 116.6 94.7 116.7 C 93.2 116.7 97.0 117.3 97.1 117.6 C 96.7 117.2 97.5 117.5 99.7 117.6 C 99.7 118.1 102.2 118.1 102.7 118.6 C 103.0 118.5 103.6 118.5 103.9 118.4 C 103.2 118.3 102.5 118.2 102.7 118.1 C 103.3 118.2 103.9 118.3 104.6 118.4 C 105.6 118.7 102.9 118.8 107.0 119.4 C 106.6 119.0 108.4 119.2 109.6 119.2 C 109.5 118.9 107.9 119.0 107.7 118.8 C 109.2 118.8 110.6 119.3 111.5 119.5 C 114.0 119.7 116.9 120.2 120.5 120.4 C 121.3 120.7 117.4 120.3 119.8 120.7 C 120.8 120.8 120.3 120.5 121.7 120.7 C 120.3 121.7 131.4 121.8 132.1 122.2 C 132.6 122.1 135.7 122.4 135.4 122.1 C 133.3 122.2 131.8 121.7 130.8 121.5 C 128.8 121.5 132.6 121.9 130.8 121.8 C 130.6 121.7 127.9 121.6 128.2 121.4 C 131.0 121.6 126.8 121.0 128.9 121.0 C 131.5 121.2 136.7 121.3 135.4 121.5 C 135.4 121.4 134.3 121.3 134.2 121.4 C 137.1 121.7 138.8 121.6 140.1 121.5 C 141.4 121.8 146.7 121.6 145.3 121.7 C 145.8 122.0 142.2 121.6 142.7 121.8 C 148.1 122.1 148.3 121.9 151.9 122.2 C 150.7 121.8 155.7 121.8 155.2 121.9 C 155.2 122.1 156.3 122.3 158.5 122.1 C 158.2 122.3 159.4 122.4 160.5 122.5 C 161.1 122.2 159.6 122.3 159.8 122.1 C 160.9 122.1 162.1 122.1 163.2 122.1 C 163.3 122.2 163.1 122.3 163.8 122.3 C 165.1 122.1 169.5 121.8 169.1 122.0 C 167.3 122.3 172.2 122.2 169.1 122.4 C 170.0 122.4 170.0 122.5 171.1 122.5 C 171.1 122.4 171.1 122.2 171.1 122.1 C 173.6 122.0 172.4 122.5 174.4 122.4 C 174.6 122.3 175.5 122.3 175.8 122.1 C 174.9 122.2 174.9 122.3 173.8 122.3 C 175.0 121.9 171.6 122.2 171.8 121.9 C 174.1 121.8 174.1 122.0 175.1 122.1 C 177.9 121.8 176.6 122.0 179.7 121.9 C 179.7 121.8 178.8 121.8 179.0 121.7 C 182.8 121.6 182.4 122.1 184.9 121.7 C 184.4 121.8 182.1 122.1 183.7 122.1 C 185.4 121.8 185.9 121.5 188.2 121.3 C 188.3 121.4 188.1 121.6 188.9 121.5 C 189.8 121.4 189.9 121.2 190.8 121.0 C 191.0 121.1 192.2 120.9 192.7 120.8 C 193.6 121.0 192.4 121.1 193.5 121.1 C 195.4 120.9 196.3 120.3 197.9 120.2 C 197.9 120.5 199.6 120.2 201.2 120.0 C 201.5 120.3 204.8 119.8 206.9 119.6 C 206.4 119.5 208.6 119.3 208.1 119.1 C 207.1 119.2 206.5 119.2 206.2 119.2 C 208.7 118.8 209.5 119.2 211.3 118.6 C 212.2 118.6 213.4 118.6 215.1 118.4 C 215.2 118.3 212.1 118.6 213.8 118.3 C 214.0 118.4 214.5 118.2 215.0 118.1 C 214.8 118.4 216.2 118.3 217.0 118.3 C 218.4 117.9 221.5 117.7 220.0 117.6 C 222.3 117.2 220.9 117.9 222.6 117.6 C 221.7 117.4 224.7 116.9 223.1 116.9 C 225.4 116.5 225.3 116.9 224.4 117.2 C 226.6 116.9 227.0 116.6 228.1 116.5 C 227.0 116.5 230.2 115.7 228.6 116.2 C 228.1 116.5 230.6 115.9 231.1 115.9 C 230.3 115.9 231.4 115.7 229.8 115.8 C 231.4 115.4 233.7 114.9 235.2 114.9 C 237.1 114.3 238.9 113.8 238.1 114.3 C 239.9 113.8 239.2 114.0 241.1 113.6 C 241.0 113.5 240.5 113.6 240.4 113.6 C 242.9 112.9 242.4 113.2 245.6 112.4 C 245.3 112.8 247.3 112.2 248.0 112.2 C 246.7 112.6 245.6 112.8 244.5 113.0 C 244.4 113.2 245.4 113.0 244.6 113.2 C 244.5 113.2 244.0 113.3 243.4 113.4 C 245.6 113.1 240.9 114.5 242.3 113.8 C 242.3 113.9 242.4 113.9 242.9 113.8 C 242.4 113.6 242.5 113.7 242.8 113.4 C 241.8 113.7 240.8 113.6 240.5 113.9 C 240.6 114.0 241.6 113.8 241.7 113.8 C 239.1 114.6 240.9 113.7 238.8 114.3 C 238.4 114.7 239.5 114.5 240.0 114.5 C 238.1 115.0 236.4 115.3 235.9 115.3 C 234.1 115.8 236.0 115.4 234.8 115.8 C 234.1 115.9 234.2 115.7 232.9 115.9 C 231.6 116.3 233.7 116.0 232.4 116.3 C 230.9 116.4 233.3 115.7 231.1 116.1 C 231.7 116.4 229.1 116.5 229.3 116.7 C 230.6 116.4 230.7 116.7 230.0 116.6 C 227.0 116.9 225.1 118.2 222.0 118.1 C 222.1 118.2 221.6 118.3 221.5 118.4 C 223.7 118.2 227.0 117.6 227.7 117.8 C 229.4 117.4 229.1 117.2 229.4 117.1 C 231.5 116.9 231.4 117.0 230.2 117.6 C 226.7 118.4 225.2 118.5 222.8 118.8 C 221.6 119.2 223.0 118.9 223.5 118.9 C 216.2 119.9 221.8 119.7 219.2 120.1 C 219.2 119.9 218.7 119.9 217.9 120.0 C 218.0 120.1 216.9 120.3 216.7 120.4 C 217.2 120.3 217.4 120.3 217.3 120.4 C 215.5 120.8 216.2 120.4 216.1 120.3 C 217.5 120.1 218.4 119.9 218.5 119.8 C 216.7 120.2 215.3 120.2 214.2 120.6 C 212.4 120.5 215.0 119.8 214.0 119.6 C 214.3 119.4 212.9 120.4 211.6 120.7 C 209.3 121.0 209.3 121.3 207.2 121.6 C 206.6 121.4 209.3 121.2 209.1 121.0 C 208.4 121.1 208.3 121.0 207.7 121.1 C 206.3 121.3 206.4 121.5 205.2 121.7 C 204.6 121.5 204.2 121.7 203.3 121.9 C 201.9 122.0 204.1 121.6 202.6 121.8 C 201.1 121.9 200.0 122.3 199.5 122.4 C 199.3 122.3 199.6 122.1 198.8 122.2 C 197.0 122.5 196.5 122.6 198.8 122.5 C 196.8 122.7 195.9 122.9 196.3 123.1 C 199.3 122.8 200.1 122.7 201.5 122.9 C 202.0 122.5 202.9 122.6 204.1 122.6 C 203.3 122.2 205.4 122.4 206.0 122.1 C 205.2 122.2 204.5 122.2 204.0 122.2 C 207.2 121.8 207.2 121.9 209.7 121.1 C 209.7 121.3 210.0 121.3 210.4 121.3 C 209.6 121.5 207.3 121.7 207.2 122.0 C 209.1 122.0 209.6 121.5 211.7 121.5 C 212.6 121.2 210.0 121.5 211.7 121.2 C 212.5 121.2 213.6 121.2 214.9 121.1 C 216.2 120.9 216.9 120.7 218.0 120.4 C 218.1 120.5 218.2 120.6 219.3 120.4 C 219.2 120.3 218.1 120.4 219.2 120.1 C 222.5 119.9 224.8 119.7 227.9 119.0 C 226.8 119.1 224.2 119.3 225.4 119.1 C 226.9 119.0 228.8 118.3 230.3 118.3 C 230.8 118.3 228.5 118.5 229.1 118.8 C 230.6 118.5 231.4 118.4 232.2 118.3 C 232.1 118.1 233.8 117.8 233.3 117.7 C 232.2 117.9 231.9 118.3 231.5 118.3 C 232.4 117.4 236.0 117.5 238.2 117.1 C 239.6 116.6 237.0 117.1 238.7 116.6 C 239.7 116.3 240.4 116.7 238.8 117.2 C 237.7 117.3 237.3 117.7 237.0 117.5 C 236.5 117.6 235.8 117.8 235.9 117.8 C 236.7 117.7 236.5 117.9 237.1 117.8 C 235.9 118.0 235.8 118.5 234.7 118.5 C 235.4 118.3 235.6 118.2 235.9 118.1 C 232.7 118.9 231.7 118.8 229.8 119.1 C 230.8 119.1 229.8 119.2 229.9 119.4 C 231.3 119.1 234.0 118.7 232.3 119.1 C 231.2 119.0 230.5 119.9 229.3 119.9 C 230.2 119.7 230.0 119.5 230.5 119.4 C 229.2 119.6 229.3 119.4 228.0 119.6 C 224.1 120.8 220.9 120.7 214.4 122.2 C 212.1 122.5 216.5 121.8 216.3 121.6 C 215.6 121.7 215.4 121.6 215.0 121.7 C 214.9 122.0 213.8 121.9 213.1 122.2 C 213.2 121.9 210.1 122.6 208.6 122.6 C 208.5 122.7 208.7 122.8 208.0 122.9 C 203.2 123.2 194.7 124.5 191.1 124.5 C 191.2 124.7 189.6 124.8 189.2 125.0 C 186.8 125.1 187.9 124.8 184.5 125.3 C 182.9 125.4 184.8 125.1 185.2 125.0 C 180.1 125.5 175.7 125.4 172.5 125.8 C 170.9 125.9 172.5 125.6 169.2 125.6 C 169.2 126.0 163.9 125.6 163.2 126.0 C 161.2 126.1 157.6 125.6 159.2 125.9 C 156.4 125.9 158.3 125.6 157.2 125.6 C 155.3 125.6 157.7 126.2 155.9 126.2 C 156.1 126.0 154.4 126.0 153.2 125.8 C 154.7 125.8 155.7 125.8 155.9 125.7 C 154.6 125.8 154.6 125.6 152.5 125.6 C 151.0 125.7 146.5 125.8 145.2 125.4 C 145.1 125.5 145.5 125.6 145.8 125.7 C 144.5 125.7 143.0 125.3 143.2 125.7 C 140.2 125.6 138.9 125.2 137.2 125.4 C 135.9 125.4 137.7 125.2 133.9 124.9 C 133.8 125.2 127.1 124.6 125.3 124.3 C 125.2 124.6 124.9 124.3 124.1 124.2 C 123.9 124.3 124.1 124.4 123.3 124.3 C 123.2 124.2 122.6 124.2 122.1 124.2 C 122.5 123.9 119.6 124.1 119.5 123.8 C 120.0 123.8 120.1 123.6 119.5 123.6 C 119.3 123.8 116.6 123.1 116.9 123.4 C 117.5 123.5 119.3 123.6 118.8 123.8 C 116.2 123.6 117.3 123.4 115.6 123.2 C 115.7 123.3 116.7 123.5 115.6 123.5 C 113.8 123.2 115.4 123.4 114.3 123.1 C 113.4 123.0 111.7 123.0 111.0 122.9 C 111.2 122.9 110.7 122.7 110.4 122.7 C 107.1 122.1 99.7 121.3 96.6 120.4 C 96.4 120.5 95.7 120.4 95.9 120.6 C 94.1 120.1 94.2 120.2 92.3 119.8 C 92.3 119.9 92.2 120.0 92.2 120.1 C 89.7 119.8 92.0 119.7 90.4 119.4 C 90.1 119.9 89.5 119.1 88.0 118.8 C 87.8 118.9 87.1 118.8 87.3 119.0 C 85.0 118.5 85.2 118.1 83.2 117.8 C 83.7 118.0 83.9 118.8 83.6 119.0 C 83.2 118.8 82.7 118.6 81.8 118.4 C 82.9 118.3 82.5 117.3 79.7 116.9 C 81.2 117.3 81.8 117.5 81.4 117.6 C 79.2 117.1 78.5 116.8 76.7 116.3 C 76.4 116.5 77.7 116.8 77.2 117.0 C 76.7 116.9 76.5 116.9 76.6 117.0 C 74.6 116.5 74.6 116.3 72.5 115.9 C 72.6 115.7 73.0 115.8 73.7 116.1 C 73.7 115.9 73.7 115.7 74.9 116.0 C 75.1 116.2 74.3 116.3 76.0 116.6 C 76.1 116.5 76.1 116.4 76.1 116.3 C 74.8 115.9 71.9 114.9 71.6 115.0 C 72.2 115.2 73.1 115.6 72.6 115.7 C 70.4 115.0 69.9 114.6 68.2 113.9 C 65.1 113.1 59.9 111.4 60.4 112.0 C 58.6 111.3 59.3 111.5 57.7 110.9 C 58.1 111.3 55.9 110.4 56.0 110.6 C 58.0 111.2 57.4 111.1 59.3 111.7 C 59.2 111.8 58.8 111.8 58.1 111.6 C 58.0 111.4 57.2 111.1 56.0 110.7 C 56.2 110.8 57.2 111.5 55.9 111.0 C 55.8 110.9 55.5 110.8 54.9 110.6 C 54.9 110.4 55.0 110.3 55.0 110.2 C 55.8 110.4 56.7 110.6 57.2 110.7 C 56.7 110.5 56.6 110.4 56.2 110.2 C 55.8 110.3 53.7 109.4 53.5 109.5 C 54.4 109.8 54.9 110.1 54.0 109.8 C 53.8 109.7 52.1 109.0 51.2 108.7 C 54.2 110.0 53.0 109.6 53.8 110.2 C 51.7 109.5 51.6 109.1 47.7 107.6 C 47.7 107.4 47.8 107.2 48.8 107.5 C 46.5 106.1 41.0 104.0 39.3 103.2 C 40.5 103.8 41.9 104.1 40.2 103.2 C 40.1 103.3 38.9 102.7 38.6 102.6 C 37.8 102.8 39.2 103.7 40.4 104.6 C 39.0 103.9 38.7 103.9 37.4 103.2 C 37.1 102.8 38.6 103.2 37.0 102.3 C 36.4 102.5 34.0 100.8 33.4 100.7 C 34.4 101.3 35.1 101.8 33.9 101.2 C 34.2 101.2 32.0 100.0 32.0 99.9 C 33.8 100.8 34.4 100.9 35.6 101.5 C 34.1 100.7 36.7 101.9 34.3 100.5 C 33.2 100.1 32.5 100.0 30.2 98.5 C 29.3 98.0 30.2 98.2 29.1 97.5 C 29.3 97.9 26.8 96.4 28.4 97.1 C 27.6 96.6 27.2 96.3 26.7 95.9 C 27.7 96.9 22.3 93.3 22.9 94.0 C 23.1 93.7 23.1 93.3 22.9 93.0 C 21.7 92.5 20.7 91.4 18.4 89.3 C 18.3 89.6 18.1 89.0 17.1 88.1 C 16.8 88.0 17.6 88.8 16.9 88.2 C 16.0 87.1 16.0 87.0 15.9 86.7 C 15.2 86.0 14.7 85.3 14.4 84.9 C 14.3 84.9 14.5 85.2 14.6 85.5 C 12.3 82.3 11.1 80.9 9.8 78.1 C 10.3 79.3 10.7 79.4 10.3 78.5 C 9.9 77.9 9.7 77.4 9.5 77.2 C 9.5 77.9 9.5 77.6 9.0 76.2 C 8.4 75.0 8.8 76.8 8.4 75.9 C 8.2 74.8 8.5 75.4 8.4 74.8 C 8.2 74.3 8.0 73.8 7.9 73.3 C 8.0 74.2 7.6 73.3 7.4 72.4 C 7.8 73.0 7.7 72.6 7.3 70.9 C 7.4 70.6 7.6 71.5 7.5 70.8 C 7.5 70.4 7.0 69.1 7.1 67.9 C 7.2 68.3 7.2 68.5 7.3 68.4 C 7.0 67.1 7.4 66.1 7.6 64.9 C 7.3 66.1 7.1 65.4 6.9 65.9 C 7.2 64.7 7.1 63.3 7.5 62.5 C 7.2 64.1 8.0 62.6 8.2 61.5 C 8.0 61.3 7.7 63.0 7.5 62.5 C 7.4 61.8 8.1 60.6 8.0 60.0 C 7.8 60.1 7.8 60.8 7.7 60.9 C 7.9 60.0 7.5 61.2 7.6 60.4 C 8.0 60.0 7.8 59.4 8.0 58.9 C 8.2 58.3 9.0 57.2 9.1 56.6 C 9.0 56.5 8.7 57.4 8.6 57.5 C 9.4 54.7 10.2 54.1 11.4 51.7 C 11.6 51.5 12.0 51.1 12.5 50.4 C 12.3 50.4 12.6 50.0 12.9 49.4 C 13.7 48.5 14.6 47.6 15.7 46.4 C 15.7 46.8 15.2 47.4 16.8 45.8 C 16.8 45.6 16.1 46.3 16.6 45.7 C 16.7 45.7 17.1 45.4 17.1 45.2 C 17.0 45.2 17.0 45.1 17.0 45.1 C 16.5 45.6 16.1 46.0 15.7 46.4 C 15.7 46.3 15.5 46.4 15.1 46.7 C 16.8 44.6 17.0 45.1 18.1 43.7 C 18.6 43.8 19.1 43.4 18.2 44.6 C 19.3 43.5 20.0 42.7 20.2 42.2 C 18.8 43.5 19.1 42.9 18.6 43.2 C 19.5 42.4 19.4 42.3 19.8 41.8 C 21.0 41.0 18.9 43.1 21.1 41.3 C 19.3 42.5 22.4 40.0 23.6 39.1 C 23.3 39.2 22.9 39.5 23.5 38.9 C 26.6 36.3 26.9 37.2 28.8 35.5 C 28.7 35.7 29.7 35.1 30.2 34.9 C 28.4 36.1 28.0 36.4 27.3 37.0 C 27.4 37.0 28.0 36.6 28.5 36.3 C 28.4 36.2 28.9 35.9 29.7 35.5 C 30.2 35.0 29.8 34.8 31.2 33.7 C 31.4 33.7 31.3 33.9 32.0 33.5 C 32.6 32.9 31.6 34.2 34.9 32.2 C 34.2 32.5 33.8 32.6 34.0 32.3 C 35.6 31.3 35.3 31.5 37.5 30.3 C 38.5 30.2 36.2 31.5 35.7 32.1 C 37.1 31.2 38.3 30.3 40.0 29.7 C 38.7 30.2 39.8 29.4 41.3 28.6 C 42.6 28.0 41.3 29.0 43.0 28.2 C 44.3 27.6 44.9 27.1 43.6 27.5 C 46.6 26.3 45.8 26.3 48.4 25.3 C 48.6 25.4 47.8 25.7 46.8 26.0 C 47.0 26.1 46.8 26.3 47.7 25.9 C 48.6 25.5 49.9 24.8 51.4 24.2 C 52.8 23.6 53.7 23.2 54.3 22.9 C 56.8 22.5 59.3 21.0 61.8 20.4 C 60.9 21.0 65.1 19.5 66.3 19.4 C 67.1 19.1 69.3 17.9 68.5 18.3 C 68.8 18.6 70.2 18.1 71.4 17.8 C 71.4 17.8 71.4 17.7 71.4 17.6 C 73.9 16.9 74.5 17.0 75.4 16.9 C 78.6 16.0 82.1 15.5 86.1 14.4 C 87.1 14.5 88.0 14.2 90.4 13.9 C 90.3 13.7 92.2 13.3 94.0 13.0 C 93.6 12.8 95.2 12.6 95.2 12.4 C 93.6 12.7 94.1 12.3 93.3 12.4 C 95.5 12.2 96.5 11.6 98.2 11.5 C 96.1 12.0 95.5 12.4 95.3 12.8 C 97.8 12.3 99.2 12.2 99.7 12.3 C 99.8 12.1 99.5 12.1 99.0 12.1 C 99.8 11.9 100.7 11.8 101.5 11.6 C 101.7 11.7 100.6 12.0 101.5 11.9 C 102.1 11.7 102.8 11.5 103.4 11.4 C 104.1 11.5 102.4 11.7 102.2 11.9 C 105.6 11.4 104.0 11.2 105.9 10.8 C 106.4 10.9 106.3 11.2 107.9 11.0 C 108.5 10.8 108.6 10.5 110.4 10.3 C 111.5 10.2 110.3 10.7 111.7 10.5 C 111.8 10.4 112.4 10.4 113.0 10.4 C 112.9 10.2 113.4 10.1 114.2 10.0 C 114.4 10.1 115.6 9.9 116.1 9.7 C 116.3 9.9 118.3 9.9 118.8 9.7 C 118.7 9.6 117.6 9.8 117.5 9.7 C 118.9 9.5 119.9 9.4 120.7 9.3 C 121.2 9.8 123.6 9.1 126.6 9.1 C 128.4 8.8 126.2 8.7 128.5 8.4 C 130.0 8.5 128.2 8.6 128.6 8.9 C 129.0 8.9 131.2 8.9 131.2 8.7 C 131.2 8.6 130.0 8.7 129.9 8.6 C 131.6 8.3 131.6 8.6 132.5 8.6 C 132.4 8.4 133.6 8.3 133.8 8.1 C 138.6 7.6 138.5 8.1 140.5 8.2 C 140.5 8.1 141.7 8.1 141.8 8.0 C 140.4 8.1 138.6 8.0 140.5 7.9 C 140.2 8.0 142.9 7.8 143.1 7.7 C 142.8 7.6 141.1 7.7 141.8 7.4 C 144.3 7.2 143.3 7.7 145.1 7.4 C 145.3 7.6 144.2 7.6 143.8 7.7 C 144.6 7.7 145.7 7.7 145.8 7.7 C 144.8 7.8 144.8 8.0 144.4 8.2 C 145.7 7.9 148.1 8.1 146.4 7.8 C 149.1 7.8 151.7 7.6 149.8 7.4 C 152.0 7.3 150.7 7.6 152.5 7.4 C 152.2 7.7 151.7 7.8 153.2 8.0 C 153.4 7.9 154.6 7.8 154.5 7.6 C 157.6 7.6 158.6 7.9 159.9 8.1 C 158.7 7.7 160.2 8.0 161.8 7.8 C 162.8 7.9 161.9 8.2 164.5 8.1 C 161.7 7.7 167.7 8.1 166.5 7.6 C 169.8 7.9 169.8 7.9 173.2 8.1 C 172.9 8.2 172.0 8.3 170.5 8.3 C 171.6 8.1 167.6 8.0 167.9 8.2 C 167.9 8.2 167.9 8.3 167.9 8.3 C 170.4 8.3 172.1 8.5 173.2 8.6 C 173.7 8.5 174.9 8.4 174.5 8.1 C 176.9 8.5 179.4 8.2 180.5 8.5 C 179.7 8.5 178.9 8.5 179.1 8.6 C 180.1 8.6 181.3 8.6 181.2 8.4 C 179.2 8.2 178.8 8.2 177.9 8.3 C 178.7 8.2 175.9 7.9 177.9 7.9 C 177.8 8.3 181.8 7.9 180.5 8.1 C 178.4 8.2 182.9 8.5 183.1 8.7 C 183.1 8.7 183.1 8.7 183.1 8.7 Z M 228.6 119.5 C 230.4 119.0 228.1 119.2 226.7 119.5 C 227.2 119.5 227.4 119.6 227.4 119.7 C 227.9 119.6 228.5 119.4 228.6 119.5 C 228.6 119.5 228.6 119.5 228.6 119.5 Z M 208.1 119.2 C 207.6 119.6 210.7 119.0 212.0 118.9 C 211.6 118.9 211.2 118.9 211.9 118.7 C 210.6 118.7 210.1 119.2 208.1 119.2 C 208.1 119.2 208.1 119.2 208.1 119.2 Z M 135.4 122.5 C 135.9 122.4 137.2 122.4 137.3 122.6 C 138.1 122.6 137.9 122.5 138.0 122.4 C 139.6 122.4 137.6 122.7 140.0 122.7 C 140.9 122.3 135.9 121.9 135.4 122.5 C 135.4 122.5 135.4 122.5 135.4 122.5 Z M 157.8 11.6 C 158.8 11.7 156.5 11.9 157.1 12.1 C 160.8 11.9 158.0 11.6 163.1 11.7 C 162.8 11.7 162.4 11.6 162.4 11.5 C 160.0 11.6 159.9 11.8 160.4 11.3 C 159.3 11.3 159.1 11.8 157.8 11.6 C 157.8 11.6 157.8 11.6 157.8 11.6 Z M 204.7 15.3 C 204.4 15.2 204.1 15.1 204.1 14.9 C 202.6 14.9 202.9 15.0 200.9 14.7 C 201.1 15.1 203.0 15.2 204.7 15.3 C 204.7 15.3 204.7 15.3 204.7 15.3 Z M 305.1 61.5 C 305.2 61.8 305.2 62.0 305.3 62.3 C 305.4 62.1 305.9 62.7 305.5 61.4 C 305.4 61.4 305.5 61.6 305.5 61.8 C 305.4 61.6 305.2 61.0 305.1 61.1 C 305.2 61.5 305.2 61.5 305.1 61.5 C 305.1 61.5 305.1 61.5 305.1 61.5 Z M 289.2 93.7 C 291.3 92.0 285.5 95.2 289.2 93.7 C 289.2 93.7 289.2 93.7 289.2 93.7 C 289.2 93.7 289.2 93.7 289.2 93.7 Z M 295.2 92.8 C 295.3 92.8 295.8 92.5 295.7 92.4 C 297.5 91.1 295.9 92.5 296.9 91.9 C 298.1 90.6 296.0 92.1 297.6 90.6 C 297.1 90.8 296.3 92.0 295.2 92.8 C 295.2 92.8 295.2 92.8 295.2 92.8 Z M 26.5 37.2 C 25.0 38.4 24.7 38.9 24.6 39.3 C 25.6 38.5 26.5 37.9 26.9 37.8 C 28.8 36.3 25.5 38.6 25.1 38.8 C 25.2 38.4 26.6 37.4 26.5 37.2 C 26.5 37.2 26.5 37.2 26.5 37.2 Z M 21.7 41.0 C 21.2 41.5 20.4 42.3 20.5 42.5 C 21.3 41.8 21.4 41.8 21.6 41.8 C 22.2 41.0 21.2 41.7 21.7 41.0 C 21.7 41.0 21.7 41.0 21.7 41.0 Z M 31.6 34.3 C 30.8 34.8 31.2 34.8 31.1 35.0 C 32.3 34.2 32.5 34.2 33.8 33.5 C 33.7 33.4 33.7 33.3 33.6 33.3 C 32.6 33.8 32.6 34.0 31.7 34.5 C 31.7 34.4 31.6 34.4 31.6 34.3 C 31.6 34.3 31.6 34.3 31.6 34.3 Z M 17.7 45.0 C 15.5 47.3 15.0 48.6 14.1 50.3 C 15.3 48.6 16.3 46.8 17.5 45.7 C 18.8 44.2 16.9 46.0 16.9 45.9 C 16.9 45.9 17.4 45.4 17.7 45.0 C 17.7 45.0 17.7 45.0 17.7 45.0 Z M 7.6 66.4 C 7.4 66.9 7.8 67.9 7.9 69.3 C 7.9 69.0 8.0 68.8 8.1 68.8 C 8.0 66.7 7.6 68.0 7.6 66.4 C 7.6 66.4 7.6 66.4 7.6 66.4 Z M 10.6 78.3 C 11.2 79.5 10.4 77.6 10.9 78.2 C 10.2 76.8 9.7 75.4 9.5 75.5 C 10.2 76.9 10.3 77.2 10.6 78.3 C 10.6 78.3 10.6 78.3 10.6 78.3 Z M 16.2 86.4 C 17.5 87.6 16.0 85.7 16.7 86.0 C 16.2 85.5 16.2 85.8 16.1 85.8 C 15.8 85.4 15.5 85.0 15.1 84.4 C 15.3 84.9 16.6 86.4 16.2 86.4 C 16.2 86.4 16.2 86.4 16.2 86.4 Z M 73.3 18.1 C 72.3 18.5 72.6 18.6 70.5 19.1 C 73.7 18.3 72.1 19.4 76.4 18.3 C 75.7 18.3 76.1 18.1 76.3 18.2 C 77.9 17.6 74.8 18.4 76.2 17.8 C 75.1 18.1 75.8 18.2 74.6 18.5 C 73.4 18.6 72.6 18.7 73.3 18.1 C 73.3 18.1 73.3 18.1 73.3 18.1 Z M 76.4 18.5 C 77.6 18.3 77.5 17.8 78.1 17.9 C 78.7 17.8 78.6 17.7 78.7 17.6 C 78.2 17.7 78.1 17.7 78.1 17.7 C 77.1 18.0 76.1 18.3 76.4 18.5 C 76.4 18.5 76.4 18.5 76.4 18.5 Z M 65.7 21.5 C 67.6 20.8 68.2 20.8 69.0 20.3 C 69.8 20.5 70.2 19.8 71.3 19.8 C 73.2 19.2 71.8 19.5 71.2 19.5 C 73.0 18.9 71.7 19.6 73.5 19.1 C 73.8 18.7 71.5 19.4 71.7 19.1 C 70.3 19.4 70.4 19.6 69.5 19.9 C 68.8 20.1 69.0 19.9 68.9 19.8 C 67.3 20.4 67.4 20.2 66.1 20.6 C 65.8 20.9 66.4 20.8 67.8 20.3 C 66.4 20.9 65.8 21.2 64.0 21.6 C 65.2 21.0 59.7 22.7 60.3 22.9 C 61.7 22.5 61.3 22.4 61.8 22.2 C 63.8 21.8 64.9 21.4 65.7 21.5 C 65.7 21.5 65.7 21.5 65.7 21.5 Z M 32.7 34.6 C 32.1 34.9 31.6 35.1 30.7 35.7 C 30.5 35.5 31.7 34.9 30.5 35.4 C 29.2 36.2 28.9 36.5 28.2 37.0 C 28.7 36.8 31.6 35.3 30.2 36.3 C 30.7 36.1 31.6 35.6 32.8 34.9 C 31.2 35.4 34.7 33.7 36.2 33.0 C 35.9 32.7 38.7 31.7 39.6 31.0 C 38.7 31.2 35.9 32.9 34.7 33.6 C 35.3 33.2 31.2 35.0 32.7 34.6 C 32.7 34.6 32.7 34.6 32.7 34.6 Z M 81.0 17.2 C 81.4 17.1 82.7 16.7 81.6 16.9 C 82.1 16.7 83.3 16.6 82.7 16.3 C 83.4 16.2 83.9 16.1 84.5 15.9 C 84.3 16.1 82.7 16.4 83.4 16.5 C 84.6 16.1 84.1 16.4 85.7 16.0 C 84.9 16.4 85.9 16.2 85.3 16.7 C 85.7 16.4 87.2 16.1 87.0 16.0 C 89.3 15.5 86.4 16.4 89.5 15.8 C 89.5 16.0 87.3 16.4 86.5 16.5 C 86.2 16.8 90.3 15.8 92.6 15.4 C 90.5 15.6 92.1 15.1 93.0 14.7 C 93.8 14.6 93.1 14.9 94.3 14.8 C 95.4 14.6 95.9 14.4 96.2 14.4 C 97.0 14.3 96.6 14.2 96.7 14.0 C 98.2 13.8 97.2 14.3 99.3 13.9 C 97.6 13.8 99.4 13.5 102.3 13.1 C 102.1 13.0 101.2 13.2 101.1 13.1 C 101.5 12.8 103.2 12.9 103.6 12.9 C 104.6 12.7 103.9 12.7 103.0 12.8 C 103.6 12.7 104.2 12.5 104.8 12.3 C 101.7 12.8 96.8 13.6 91.1 14.3 C 92.2 14.3 91.0 14.6 89.3 14.9 C 89.0 14.8 89.7 14.6 90.5 14.4 C 88.5 14.5 88.7 15.1 85.7 15.6 C 84.1 15.9 87.5 15.0 85.7 15.3 C 84.6 15.6 83.8 15.9 83.3 15.8 C 81.4 16.3 80.9 16.7 78.0 17.4 C 79.7 17.2 80.6 17.5 82.3 17.0 C 82.2 16.9 81.5 17.1 81.0 17.2 C 81.0 17.2 81.0 17.2 81.0 17.2 Z M 21.7 41.9 C 20.8 42.6 20.5 43.1 20.2 43.2 C 18.9 44.5 20.6 43.2 20.9 43.0 C 21.5 42.4 21.7 42.1 21.7 41.9 C 21.7 41.9 21.7 41.9 21.7 41.9 Z M 143.8 125.0 C 146.4 125.1 145.9 124.8 147.9 124.9 C 146.3 124.7 145.9 124.5 143.2 124.5 C 143.1 124.7 143.1 124.8 143.8 125.0 C 143.8 125.0 143.8 125.0 143.8 125.0 Z M 27.0 38.0 C 28.3 36.8 25.6 39.4 25.5 39.2 C 24.0 40.5 27.0 38.3 25.7 39.5 C 26.9 38.4 27.9 38.0 29.6 36.7 C 29.5 36.6 28.0 37.6 26.6 38.6 C 26.4 38.6 27.1 38.1 27.0 38.0 C 27.0 38.0 27.0 38.0 27.0 38.0 Z M 118.3 122.5 C 116.6 122.5 119.8 123.1 120.8 123.3 C 120.9 123.0 120.4 123.0 118.3 122.5 C 118.3 122.5 118.3 122.5 118.3 122.5 Z M 161.2 124.9 C 162.2 124.6 158.2 124.9 159.2 124.6 C 158.0 124.5 157.9 124.6 157.8 124.7 C 157.2 124.6 155.3 124.7 155.9 124.5 C 155.5 124.3 158.9 124.5 157.8 124.2 C 158.9 124.2 159.0 124.3 159.8 124.3 C 157.9 124.3 158.8 124.6 161.2 124.6 C 161.2 124.4 160.1 124.5 161.2 124.3 C 161.3 124.4 162.6 124.6 162.5 124.9 C 164.6 124.9 163.3 124.5 165.8 124.5 C 165.6 124.3 164.1 124.4 163.1 124.3 C 163.4 124.0 165.7 124.5 165.2 124.1 C 165.7 124.3 167.1 124.4 167.2 124.6 C 165.3 124.8 164.1 125.0 162.5 125.1 C 163.9 125.2 166.0 124.7 168.5 124.8 C 168.2 124.7 169.7 124.6 169.2 124.4 C 171.1 124.4 170.2 124.8 169.8 124.8 C 170.4 125.0 174.1 124.7 173.9 124.5 C 174.1 124.7 178.6 124.5 178.4 124.2 C 179.8 124.3 181.8 123.8 182.4 124.1 C 183.2 124.0 184.8 123.9 186.4 123.8 C 186.9 123.5 184.0 123.8 183.8 123.6 C 183.2 123.5 186.9 123.5 186.4 123.3 C 186.4 123.3 186.4 123.2 186.4 123.2 C 185.0 123.3 183.7 123.5 182.4 123.6 C 181.5 123.7 182.7 123.5 182.4 123.4 C 181.5 123.6 177.3 124.1 177.1 123.7 C 174.3 123.9 172.3 123.9 171.1 124.1 C 169.4 124.2 172.1 124.0 171.1 123.8 C 166.1 124.3 160.0 123.9 155.9 124.3 C 155.0 124.3 155.3 124.1 155.2 124.0 C 149.5 124.1 154.3 124.5 149.8 124.3 C 149.8 124.1 152.0 124.1 151.9 123.9 C 150.3 123.9 149.9 124.0 147.8 123.9 C 147.8 124.0 147.8 124.1 147.8 124.2 C 146.1 124.2 146.8 123.9 145.9 123.8 C 143.8 123.8 144.3 123.9 143.3 123.6 C 141.2 123.6 139.3 123.6 137.3 123.4 C 135.9 123.5 138.4 124.0 140.6 124.1 C 140.4 124.2 139.9 124.1 139.9 124.2 C 137.4 123.9 137.1 123.4 133.3 123.1 C 136.1 123.6 131.9 123.1 131.4 122.9 C 129.8 122.8 130.9 123.2 132.0 123.3 C 131.8 123.4 130.8 123.2 130.7 123.1 C 130.5 123.5 134.1 123.9 137.9 124.0 C 136.1 124.3 140.6 124.1 138.5 124.5 C 141.7 124.6 139.0 124.1 142.5 124.3 C 142.2 124.2 141.5 124.1 141.2 124.0 C 143.9 124.0 143.1 124.4 145.9 124.4 C 146.3 124.2 144.5 124.2 144.5 124.0 C 147.6 124.4 148.5 124.5 150.5 124.8 C 150.9 124.6 150.4 124.4 153.9 124.6 C 153.9 124.6 153.9 124.7 153.9 124.8 C 152.2 124.7 151.8 125.2 155.9 125.2 C 156.1 125.0 154.9 125.0 153.8 125.0 C 154.3 124.8 155.6 124.8 157.2 124.8 C 157.9 124.8 158.9 124.9 157.8 125.0 C 158.5 125.2 159.1 124.7 161.2 124.9 C 161.2 124.9 161.2 124.9 161.2 124.9 Z M 8.3 64.0 C 8.3 64.4 8.3 64.8 8.2 65.5 C 8.4 65.8 8.5 64.5 8.6 64.5 C 8.7 63.5 8.4 64.3 8.3 64.0 C 8.3 64.0 8.3 64.0 8.3 64.0 Z M 13.5 51.2 C 13.3 51.2 13.1 52.0 12.3 53.0 C 12.3 53.4 13.0 52.2 13.2 52.2 C 14.0 51.1 12.6 52.3 13.5 51.2 C 13.5 51.2 13.5 51.2 13.5 51.2 Z M 10.5 56.6 C 10.0 57.0 10.3 57.1 10.7 56.2 C 10.8 56.3 10.8 56.6 10.6 57.2 C 11.1 56.6 10.9 56.0 11.6 54.9 C 11.3 55.3 10.9 55.8 10.5 56.6 C 10.5 56.6 10.5 56.6 10.5 56.6 Z M 9.7 58.5 C 9.6 59.2 9.3 59.6 9.1 60.8 C 9.3 60.6 10.1 58.0 10.2 57.5 C 10.1 57.1 9.1 59.8 9.7 58.5 C 9.7 58.5 9.7 58.5 9.7 58.5 Z M 93.1 118.5 C 93.7 118.6 93.6 118.5 93.8 118.4 C 95.6 119.1 98.3 119.5 96.1 119.5 C 98.1 119.6 100.0 120.3 101.7 120.6 C 103.1 120.9 102.4 120.5 103.6 120.6 C 105.4 121.0 102.6 120.6 102.9 120.8 C 103.3 121.0 103.9 120.7 106.1 121.2 C 105.5 120.7 108.0 121.5 107.4 121.0 C 108.6 121.3 109.0 121.2 110.6 121.4 C 110.4 121.2 108.9 121.0 108.7 120.8 C 107.9 120.5 107.8 120.9 109.3 121.1 C 108.4 121.2 106.2 120.5 105.5 120.6 C 104.8 120.2 107.6 120.8 106.8 120.5 C 106.3 120.4 105.7 120.4 105.6 120.5 C 104.6 120.3 104.0 120.1 103.7 119.9 C 104.2 120.0 104.3 120.1 104.3 120.1 C 105.5 120.3 103.2 119.5 105.6 119.9 C 105.2 119.8 104.2 119.6 104.4 119.5 C 103.7 119.2 104.3 120.2 101.8 119.5 C 100.2 119.5 105.7 120.3 104.2 120.6 C 100.7 120.0 102.8 119.9 100.0 119.4 C 100.0 119.5 100.0 119.7 99.3 119.6 C 99.4 119.7 100.4 119.8 101.1 119.9 C 101.0 120.0 100.0 119.8 99.2 119.7 C 99.4 119.8 99.9 119.9 99.9 120.0 C 97.5 119.5 97.9 119.1 100.0 119.3 C 100.0 119.0 97.1 118.6 96.3 118.6 C 97.0 118.9 96.2 118.7 96.8 119.1 C 97.4 119.2 97.3 119.1 97.5 119.0 C 98.6 119.3 97.5 119.2 97.5 119.3 C 96.2 119.0 96.3 118.8 95.0 118.7 C 95.3 118.7 95.6 118.7 95.6 118.6 C 95.0 118.5 94.4 118.4 93.8 118.3 C 93.8 118.4 93.0 118.3 93.1 118.5 C 93.1 118.5 93.1 118.5 93.1 118.5 Z M 126.0 123.5 C 128.2 123.8 127.1 123.5 126.1 123.4 C 126.5 123.3 127.3 123.4 128.0 123.4 C 127.4 123.2 126.8 123.3 124.8 123.0 C 126.6 122.9 124.8 122.3 121.6 122.0 C 120.6 122.4 123.3 122.7 122.2 122.9 C 124.6 122.9 125.8 123.2 126.0 123.5 C 126.0 123.5 126.0 123.5 126.0 123.5 Z M 20.9 43.1 C 20.0 43.9 19.1 44.7 18.3 45.6 C 18.5 45.6 21.4 43.2 20.9 43.1 C 20.9 43.1 20.9 43.1 20.9 43.1 Z M 107.3 12.3 C 107.9 12.2 108.0 12.2 108.0 12.3 C 109.9 11.9 107.1 12.2 108.0 11.9 C 107.3 12.0 106.7 12.1 106.1 12.1 C 106.0 12.3 108.7 12.0 106.7 12.4 C 106.9 12.4 107.3 12.3 107.3 12.3 C 107.3 12.3 107.3 12.3 107.3 12.3 Z M 8.7 63.1 C 8.7 64.0 9.0 63.5 8.8 65.5 C 9.0 64.8 9.0 64.4 9.1 63.2 C 9.0 63.2 8.8 63.1 8.7 63.1 C 8.7 63.1 8.7 63.1 8.7 63.1 Z M 84.0 117.0 C 85.5 117.6 86.0 117.2 88.8 117.9 C 87.4 117.3 85.7 117.3 84.0 117.0 C 84.0 117.0 84.0 117.0 84.0 117.0 Z M 191.6 123.0 C 190.7 123.0 191.9 122.9 190.3 122.9 C 189.4 123.0 189.0 123.2 187.7 123.3 C 189.6 123.4 192.9 122.9 194.2 123.2 C 195.8 123.0 195.7 122.7 196.1 122.5 C 195.4 122.6 195.0 122.6 194.9 122.6 C 194.0 123.0 192.8 122.5 191.6 123.0 C 191.6 123.0 191.6 123.0 191.6 123.0 Z M 117.7 122.3 C 116.5 122.0 118.5 122.2 119.0 122.1 C 119.8 122.2 119.5 122.3 119.6 122.5 C 120.8 122.5 121.1 122.5 120.9 122.3 C 118.8 122.0 116.1 121.7 117.7 121.5 C 115.7 121.2 116.8 121.7 115.8 121.6 C 114.7 121.3 115.7 121.4 115.8 121.1 C 115.3 121.1 113.7 121.2 113.9 120.9 C 110.8 120.9 112.1 121.4 114.4 122.1 C 116.5 122.1 114.1 121.7 117.7 122.3 C 117.7 122.3 117.7 122.3 117.7 122.3 Z M 39.2 101.5 C 39.3 101.7 40.7 102.3 40.6 102.4 C 42.3 103.0 43.8 103.4 45.5 103.8 C 45.2 103.5 43.0 102.7 43.9 103.3 C 43.3 102.8 41.8 102.1 41.0 101.5 C 39.5 100.7 38.8 100.9 38.8 100.5 C 37.4 99.9 38.1 100.3 36.0 99.1 C 39.3 101.2 34.8 98.6 34.4 98.7 C 36.4 99.8 38.2 100.7 38.0 100.3 C 39.5 101.2 41.2 102.1 41.4 102.5 C 41.2 102.5 40.0 101.9 39.2 101.5 C 39.2 101.5 39.2 101.5 39.2 101.5 Z M 48.7 105.1 C 48.1 104.8 47.4 104.6 46.3 104.1 C 46.9 104.5 47.1 104.7 47.0 104.8 C 49.0 105.6 49.6 105.7 50.3 106.2 C 52.2 107.0 49.8 105.7 52.9 107.0 C 52.7 106.8 51.2 106.3 51.2 106.2 C 50.9 106.2 49.7 105.8 48.7 105.1 C 48.7 105.1 48.7 105.1 48.7 105.1 Z M 66.9 112.0 C 68.4 112.4 66.2 111.6 67.0 111.7 C 66.6 111.6 63.9 110.7 64.4 110.6 C 63.7 110.1 60.8 109.8 61.1 109.5 C 60.5 109.3 60.7 109.5 60.6 109.6 C 62.4 110.1 62.4 110.3 61.0 109.9 C 61.2 110.1 62.4 110.4 63.1 110.7 C 63.3 110.6 62.6 110.3 62.7 110.2 C 64.3 110.8 65.5 111.4 66.9 112.0 C 66.9 112.0 66.9 112.0 66.9 112.0 Z M 179.0 9.7 C 177.5 9.6 176.5 9.6 175.7 9.7 C 176.2 9.8 176.9 9.7 177.7 9.7 C 177.9 9.9 177.2 9.9 176.4 9.8 C 177.1 10.1 179.9 10.0 179.0 9.7 C 179.0 9.7 179.0 9.7 179.0 9.7 Z M 165.8 9.3 C 164.3 9.3 163.3 9.3 163.1 9.4 C 163.7 9.6 163.5 9.3 164.5 9.4 C 165.0 9.4 165.4 9.5 165.8 9.6 C 166.4 9.6 166.3 9.5 166.5 9.5 C 167.0 9.5 167.1 9.5 167.1 9.6 C 168.9 9.4 165.0 9.6 165.8 9.3 C 165.8 9.3 165.8 9.3 165.8 9.3 Z M 57.8 108.9 C 57.4 108.6 57.1 108.4 55.9 107.9 C 56.0 108.2 55.0 107.8 54.2 107.5 C 55.4 108.1 56.0 108.3 57.8 108.9 C 57.8 108.9 57.8 108.9 57.8 108.9 Z M 85.3 16.8 C 83.5 17.0 83.7 17.4 81.2 17.8 C 81.2 17.8 81.2 17.9 81.2 18.0 C 82.7 17.4 83.4 17.4 85.3 16.8 C 85.3 16.8 85.3 16.8 85.3 16.8 Z M 306.9 77.5 C 306.8 77.3 306.1 78.7 306.0 78.7 C 306.2 79.2 305.3 79.5 303.6 82.1 C 303.5 82.0 303.6 81.8 303.8 81.5 C 302.3 83.5 304.4 81.1 304.8 80.9 C 305.8 79.3 306.1 79.2 306.9 77.5 C 306.9 77.5 306.9 77.5 306.9 77.5 Z M 171.8 123.4 C 171.7 123.5 172.1 123.5 172.5 123.5 C 172.9 123.4 173.4 123.4 173.8 123.4 C 173.6 123.1 171.4 123.0 173.1 122.6 C 172.5 122.6 172.4 122.7 172.4 122.7 C 169.2 123.6 166.7 122.4 162.5 122.9 C 161.8 123.0 162.0 123.0 161.8 123.1 C 162.4 123.1 162.4 123.1 162.5 123.2 C 163.0 122.8 166.8 123.2 165.1 123.3 C 165.3 123.4 165.8 123.3 165.8 123.3 C 166.2 123.3 166.7 123.3 167.1 123.3 C 166.9 123.2 166.0 123.2 165.8 123.1 C 167.9 123.1 170.5 123.1 169.2 123.5 C 170.5 123.4 170.9 123.3 171.8 123.2 C 172.6 123.2 172.7 123.4 171.8 123.4 C 171.8 123.4 171.8 123.4 171.8 123.4 Z M 188.9 122.4 C 190.9 122.3 190.2 122.1 192.2 122.0 C 190.9 121.9 189.3 122.3 187.6 122.3 C 187.9 122.4 188.8 122.3 188.9 122.4 C 188.9 122.4 188.9 122.4 188.9 122.4 Z M 150.6 123.1 C 151.0 122.8 149.2 122.7 147.2 122.7 C 146.8 123.0 148.6 123.0 150.6 123.1 C 150.6 123.1 150.6 123.1 150.6 123.1 Z M 159.2 123.2 C 161.1 123.1 156.7 123.1 157.8 122.9 C 156.9 122.9 155.9 122.9 155.9 122.8 C 155.2 122.8 155.2 123.0 153.9 122.9 C 153.9 123.1 156.1 123.0 155.9 123.2 C 157.4 123.0 157.6 123.0 159.2 123.2 C 159.2 123.2 159.2 123.2 159.2 123.2 Z M 160.5 123.2 C 161.8 123.1 160.2 122.7 158.5 122.7 C 159.1 122.9 159.5 123.1 160.5 123.2 C 160.5 123.2 160.5 123.2 160.5 123.2 Z M 17.3 84.0 C 17.8 84.6 17.6 84.0 18.2 84.7 C 18.3 84.6 16.2 82.1 18.0 84.1 C 17.5 83.2 16.9 83.1 16.2 82.1 C 16.4 82.4 16.5 82.7 16.1 82.2 C 15.7 82.0 17.7 84.2 17.3 84.0 C 17.3 84.0 17.3 84.0 17.3 84.0 Z M 19.6 86.5 C 20.1 86.9 19.9 86.6 19.6 86.4 C 19.8 86.4 20.4 87.1 20.9 87.6 C 20.9 87.7 20.3 86.5 20.5 86.4 C 18.3 84.4 19.7 86.2 19.6 86.5 C 19.6 86.5 19.6 86.5 19.6 86.5 Z M 21.8 88.4 C 23.1 89.9 25.5 91.7 26.8 92.3 C 25.7 91.1 22.7 88.8 21.8 88.4 C 21.8 88.4 21.8 88.4 21.8 88.4 Z M 11.9 74.6 C 12.5 77.2 15.6 82.0 13.5 77.4 C 13.4 77.7 11.9 74.7 11.6 73.2 C 11.4 73.2 10.8 71.7 10.9 71.6 C 10.5 70.5 11.9 75.2 11.9 74.6 C 11.9 74.6 11.9 74.6 11.9 74.6 Z M 29.2 93.5 C 28.2 92.9 29.2 94.1 27.9 93.0 C 27.0 92.5 28.0 93.2 27.7 93.2 C 29.5 94.4 33.5 96.6 33.7 97.0 C 34.7 97.5 35.1 97.6 37.1 98.7 C 37.2 98.6 30.2 94.9 29.1 93.6 C 29.3 93.6 31.5 95.0 29.2 93.5 C 29.2 93.5 29.2 93.5 29.2 93.5 Z M 85.6 18.2 C 85.7 18.0 83.3 18.7 83.8 18.3 C 82.5 18.9 81.2 19.0 79.8 19.6 C 79.3 19.6 79.4 19.2 77.4 19.7 C 77.4 19.9 78.4 19.6 77.5 20.0 C 75.6 20.5 76.0 20.1 74.0 20.7 C 74.4 21.0 69.6 22.0 70.2 22.2 C 71.2 21.9 71.1 21.7 72.9 21.3 C 73.6 21.2 73.3 21.4 74.1 21.2 C 73.6 21.5 72.6 21.4 71.9 21.8 C 72.1 22.0 73.4 21.6 73.6 21.7 C 74.5 21.4 73.4 21.7 73.6 21.5 C 75.8 20.8 73.5 22.0 76.0 21.3 C 75.4 21.2 75.4 21.2 75.8 20.9 C 76.8 20.7 79.7 19.8 78.2 20.5 C 78.4 20.6 80.1 20.0 79.9 19.9 C 80.8 19.6 81.0 19.7 81.0 19.8 C 83.5 19.1 83.8 18.8 83.2 18.7 C 83.7 18.3 84.1 18.7 85.6 18.2 C 85.6 18.2 85.6 18.2 85.6 18.2 Z M 11.2 60.9 C 11.3 59.8 11.0 62.0 10.8 63.0 C 11.0 61.8 11.2 62.2 11.6 61.0 C 11.4 61.4 11.3 61.3 11.6 60.5 C 11.5 60.2 10.9 62.1 11.2 60.9 C 11.2 60.9 11.2 60.9 11.2 60.9 Z M 41.3 100.9 C 42.0 101.4 46.0 103.1 48.2 104.1 C 48.0 103.6 42.6 101.7 42.1 101.1 C 41.0 100.5 42.7 101.5 41.3 100.9 C 41.3 100.9 41.3 100.9 41.3 100.9 Z M 64.0 23.6 C 63.4 23.8 63.8 23.7 64.0 23.7 C 63.9 23.8 62.7 24.1 61.9 24.4 C 63.2 24.2 61.7 24.7 62.1 24.9 C 61.4 25.1 61.1 25.2 61.1 25.3 C 60.9 24.9 57.8 26.6 61.2 25.6 C 60.5 25.6 60.7 25.5 62.1 24.9 C 63.6 24.6 64.8 24.1 65.4 24.1 C 66.4 23.8 66.7 23.6 68.0 23.2 C 68.4 23.3 69.7 23.0 68.8 23.6 C 71.2 22.9 69.4 22.8 71.4 22.2 C 73.3 21.8 70.5 22.8 71.0 22.8 C 71.5 22.7 71.4 22.8 71.6 22.8 C 72.3 22.6 72.2 22.4 71.5 22.6 C 71.7 22.5 73.6 21.7 73.1 22.2 C 74.2 21.7 71.2 21.9 69.7 22.6 C 68.8 22.9 68.6 22.5 69.6 22.2 C 69.2 22.1 67.5 23.2 67.9 22.6 C 67.1 22.8 66.4 23.0 65.7 23.2 C 65.8 23.2 66.2 23.1 66.3 23.2 C 65.6 23.4 64.8 23.7 64.1 23.9 C 64.7 23.6 64.7 23.5 64.0 23.6 C 64.0 23.6 64.0 23.6 64.0 23.6 Z M 32.6 96.0 C 34.1 97.0 34.6 97.1 35.9 97.7 C 35.5 97.3 32.0 95.3 32.6 96.0 C 32.6 96.0 32.6 96.0 32.6 96.0 Z M 96.0 16.9 C 95.8 16.9 94.8 17.1 94.7 17.0 C 96.6 16.6 94.5 16.8 95.9 16.1 C 93.5 16.8 92.7 17.5 96.0 17.1 C 98.4 16.6 93.6 17.4 96.0 16.9 C 96.0 16.9 96.0 16.9 96.0 16.9 Z M 88.7 18.2 C 87.3 18.6 91.0 17.9 91.8 17.9 C 91.8 17.9 91.8 18.0 91.8 18.1 C 93.8 17.3 91.0 17.8 92.8 16.9 C 90.4 17.3 89.4 17.4 87.4 17.9 C 87.6 18.0 88.0 17.9 88.0 17.8 C 89.5 17.5 88.5 18.1 86.9 18.3 C 87.4 18.3 88.8 18.0 89.9 17.8 C 89.6 17.8 89.2 17.8 89.3 17.7 C 90.5 17.4 90.1 17.7 91.1 17.5 C 91.1 17.6 88.8 18.3 88.7 18.2 C 88.7 18.2 88.7 18.2 88.7 18.2 Z M 215.6 15.1 C 214.3 15.0 216.9 15.7 216.7 16.0 C 218.0 16.3 218.4 16.2 219.2 16.4 C 218.8 16.1 217.4 15.9 216.8 15.6 C 217.1 15.4 218.7 16.0 219.3 15.9 C 220.1 15.7 216.1 15.5 215.6 15.1 C 215.6 15.1 215.6 15.1 215.6 15.1 Z M 33.3 37.2 C 32.7 37.7 33.1 37.5 33.4 37.3 C 33.3 37.5 32.2 38.1 32.2 38.0 C 31.3 38.7 32.8 37.8 31.7 38.6 C 31.5 38.8 33.4 37.5 33.4 37.4 C 34.8 36.5 33.9 37.4 34.3 37.3 C 35.5 36.6 35.0 36.7 36.8 35.7 C 35.6 36.2 34.6 36.6 33.3 37.2 C 33.3 37.2 33.3 37.2 33.3 37.2 Z M 100.2 15.7 C 100.4 15.6 98.8 16.3 97.2 16.4 C 95.0 16.8 98.5 16.4 96.6 16.7 C 98.2 16.5 100.2 16.0 102.7 15.6 C 103.3 15.3 99.2 16.1 101.5 15.6 C 101.3 15.5 100.8 15.7 100.8 15.7 C 100.3 15.8 100.3 15.8 100.2 15.7 C 100.2 15.7 100.2 15.7 100.2 15.7 Z M 97.8 16.7 C 98.0 16.8 98.5 16.6 98.5 16.6 C 99.3 16.5 99.3 16.7 98.5 16.8 C 99.6 16.9 99.4 16.4 101.6 16.2 C 100.6 16.2 100.2 16.1 102.1 16.0 C 103.7 15.5 98.5 16.4 97.8 16.7 C 97.8 16.7 97.8 16.7 97.8 16.7 Z M 195.3 12.8 C 195.5 12.9 196.8 13.0 197.8 13.1 C 196.6 13.2 191.3 12.6 190.7 12.4 C 190.1 12.4 189.6 12.4 189.4 12.3 C 189.4 12.4 188.0 12.4 188.7 12.5 C 188.6 12.6 187.5 12.5 187.5 12.6 C 185.5 12.4 188.0 12.4 187.5 12.2 C 185.1 12.3 185.6 12.1 182.9 11.9 C 183.3 12.2 186.4 12.3 186.1 12.6 C 188.3 12.5 190.6 12.9 191.9 13.2 C 189.9 12.7 197.5 13.2 201.0 13.6 C 200.9 13.8 202.1 13.9 203.5 14.2 C 204.5 14.5 204.3 13.9 202.3 13.9 C 202.4 13.7 205.0 14.1 206.1 14.2 C 204.8 13.9 205.6 13.9 204.9 13.8 C 202.4 13.5 204.7 13.8 204.2 13.9 C 203.6 13.8 203.0 13.8 202.3 13.7 C 205.7 13.7 197.4 13.1 200.4 13.4 C 197.8 13.2 197.7 12.9 195.3 12.8 C 195.3 12.8 195.3 12.8 195.3 12.8 Z M 133.4 12.0 C 133.0 12.0 130.9 12.3 130.8 12.1 C 128.2 12.5 130.5 12.5 127.5 12.8 C 127.7 12.9 128.9 12.7 128.9 12.8 C 130.0 12.7 131.2 12.5 130.8 12.3 C 132.2 12.2 132.5 12.1 133.4 12.0 C 133.1 12.2 132.6 12.3 131.5 12.3 C 131.3 12.5 131.7 12.7 133.5 12.5 C 134.2 12.3 133.7 12.1 133.4 12.0 C 133.4 12.0 133.4 12.0 133.4 12.0 Z M 126.9 12.8 C 126.6 12.7 126.2 12.7 126.2 12.6 C 125.3 12.4 125.9 12.9 125.0 13.0 C 124.2 13.1 124.4 12.9 124.3 12.8 C 123.2 13.0 122.3 13.1 121.7 13.1 C 120.0 13.4 123.8 13.1 124.3 13.2 C 125.6 13.0 125.1 12.9 126.9 12.8 C 126.9 12.8 126.9 12.8 126.9 12.8 Z M 107.7 14.7 C 107.3 14.5 106.7 14.9 105.8 15.0 C 106.5 15.1 108.3 14.8 107.1 15.2 C 109.0 15.0 109.1 15.0 110.9 14.7 C 112.1 14.8 111.0 14.5 109.0 14.9 C 109.2 14.7 110.1 14.6 110.2 14.5 C 111.5 14.8 114.6 13.6 112.8 14.2 C 112.2 14.2 111.8 14.2 111.5 14.2 C 111.1 14.4 106.8 14.9 107.7 14.7 C 107.7 14.7 107.7 14.7 107.7 14.7 Z M 48.6 30.1 C 50.2 29.4 51.0 29.1 51.8 28.8 C 52.7 28.4 53.9 28.0 54.9 27.6 C 55.0 27.7 54.9 27.8 54.5 28.0 C 55.0 27.9 55.6 27.6 56.5 27.2 C 56.4 27.2 55.9 27.4 56.0 27.4 C 54.3 27.8 55.6 27.3 55.8 27.0 C 53.8 27.6 50.8 29.2 49.2 29.5 C 48.1 30.1 49.5 29.5 48.6 30.1 C 48.6 30.1 48.6 30.1 48.6 30.1 Z M 305.8 75.0 C 305.8 75.3 305.5 75.9 305.7 75.9 C 305.9 75.3 306.1 74.8 306.2 74.2 C 305.7 75.3 305.5 75.0 304.8 76.5 C 305.1 76.1 305.3 76.3 305.8 75.0 C 305.8 75.0 305.8 75.0 305.8 75.0 Z M 114.0 13.9 C 114.1 14.0 114.2 14.1 113.4 14.2 C 113.2 14.4 115.3 14.1 115.3 14.3 C 116.0 14.2 115.7 14.0 116.6 13.9 C 116.3 13.9 114.6 14.1 115.3 13.8 C 115.8 13.7 115.9 13.7 116.0 13.8 C 117.3 13.5 115.3 13.7 114.0 13.9 C 114.0 13.9 114.0 13.9 114.0 13.9 Z M 221.7 16.4 C 220.9 16.3 221.7 16.5 222.4 16.6 C 220.5 16.6 223.4 17.2 223.4 17.5 C 222.7 17.1 220.2 16.8 219.8 16.7 C 219.1 16.6 219.9 17.0 217.9 16.7 C 218.1 16.9 220.3 17.1 219.8 16.9 C 220.3 17.2 222.4 17.3 222.2 17.5 C 224.9 18.1 225.6 18.0 225.9 17.8 C 223.2 17.4 224.6 17.2 222.3 16.9 C 222.3 16.8 223.0 17.0 223.5 17.0 C 223.4 16.8 222.4 16.6 221.7 16.4 C 221.7 16.4 221.7 16.4 221.7 16.4 Z M 154.5 11.3 C 153.0 11.3 153.1 11.5 153.1 11.7 C 153.7 11.6 154.6 11.6 155.8 11.6 C 155.5 11.5 153.7 11.5 154.5 11.3 C 154.5 11.3 154.5 11.3 154.5 11.3 Z M 211.8 15.1 C 211.6 15.0 211.2 15.0 211.1 15.0 C 209.6 14.8 209.2 14.7 208.7 14.5 C 207.8 14.4 208.1 14.6 208.0 14.7 C 209.5 14.7 209.2 15.0 211.1 15.2 C 211.0 15.1 211.3 15.1 211.8 15.1 C 211.8 15.1 211.8 15.1 211.8 15.1 Z M 168.4 11.5 C 167.6 11.5 168.0 11.6 168.4 11.6 C 167.5 11.8 164.8 11.6 163.7 11.7 C 163.6 11.9 166.9 11.9 163.1 11.9 C 163.8 12.1 167.3 12.0 169.0 12.1 C 168.6 12.3 166.2 12.2 166.4 12.5 C 168.4 12.4 170.7 12.3 171.0 12.0 C 168.0 11.9 169.1 11.7 168.4 11.5 C 168.4 11.5 168.4 11.5 168.4 11.5 Z M 171.6 11.8 C 171.4 11.6 170.8 11.8 169.7 11.7 C 171.3 12.0 172.3 11.9 175.6 12.1 C 175.6 12.1 175.6 12.0 175.6 12.0 C 176.3 12.0 177.0 12.0 177.6 12.1 C 174.7 11.7 174.0 11.8 171.0 11.8 C 170.9 11.7 171.3 11.7 171.6 11.8 C 171.6 11.8 171.6 11.8 171.6 11.8 Z M 85.8 18.9 C 86.6 18.9 87.3 18.9 88.8 18.6 C 88.6 18.4 87.7 18.5 85.8 18.9 C 85.8 18.9 85.8 18.9 85.8 18.9 Z M 214.2 15.7 C 216.0 15.8 212.6 15.4 213.6 15.8 C 214.9 16.1 216.4 16.4 216.6 16.7 C 219.1 16.7 213.9 15.9 214.2 15.7 C 214.2 15.7 214.2 15.7 214.2 15.7 Z M 202.9 14.7 C 202.1 14.6 202.2 14.3 202.9 14.6 C 204.7 14.8 201.3 14.2 204.1 14.5 C 203.0 14.3 200.3 13.9 199.0 13.9 C 199.1 14.1 201.5 14.3 201.6 14.5 C 201.7 14.6 201.3 14.5 200.9 14.5 C 201.2 14.7 201.7 14.6 202.9 14.7 C 202.9 14.7 202.9 14.7 202.9 14.7 Z M 193.3 13.3 C 194.3 13.6 195.6 13.8 197.8 14.0 C 196.3 13.7 195.5 13.4 193.3 13.3 C 193.3 13.3 193.3 13.3 193.3 13.3 Z M 302.5 53.7 C 301.8 52.8 302.2 53.8 302.2 53.9 C 302.8 54.9 302.9 54.7 303.5 55.9 C 303.6 55.4 302.7 54.5 302.5 53.7 C 302.5 53.7 302.5 53.7 302.5 53.7 Z M 304.4 57.4 C 304.3 57.6 305.0 58.9 304.9 59.0 C 305.6 59.7 305.3 61.1 305.6 61.0 C 305.7 61.3 305.7 61.6 305.8 62.2 C 306.0 61.0 305.0 58.6 304.4 57.4 C 304.4 57.4 304.4 57.4 304.4 57.4 Z M 182.1 13.0 C 180.4 12.9 182.6 13.4 180.8 13.3 C 180.7 13.4 184.1 13.6 182.1 13.6 C 184.7 13.9 181.9 13.1 182.1 13.0 C 182.1 13.0 182.1 13.0 182.1 13.0 Z M 149.9 12.7 C 150.0 12.5 147.6 12.8 146.6 12.7 C 146.6 12.8 147.4 12.8 147.9 12.8 C 147.6 12.9 147.3 12.9 146.6 13.0 C 147.1 13.1 148.9 12.8 149.9 12.7 C 149.9 12.7 149.9 12.7 149.9 12.7 Z M 185.7 9.1 C 186.8 9.4 188.2 9.7 189.0 9.4 C 190.1 9.7 188.2 9.6 189.6 9.8 C 191.4 9.9 190.5 10.0 193.5 10.2 C 192.9 10.4 195.1 10.6 195.5 10.8 C 194.3 10.7 192.8 10.3 192.2 10.5 C 193.2 10.6 192.6 10.8 192.2 10.6 C 190.2 10.3 194.6 10.5 192.2 10.1 C 191.5 10.4 188.0 9.5 185.7 9.4 C 186.6 9.3 184.0 9.0 185.7 9.1 C 185.7 9.1 185.7 9.1 185.7 9.1 Z M 197.4 10.5 C 199.0 10.7 199.8 11.3 199.3 11.2 C 199.3 11.1 197.6 10.9 197.4 11.0 C 197.8 11.0 198.2 11.1 198.0 11.1 C 195.1 10.8 196.2 10.7 195.5 10.5 C 197.1 10.5 197.5 10.7 198.1 10.7 C 197.7 10.6 197.3 10.6 197.4 10.5 C 197.4 10.5 197.4 10.5 197.4 10.5 Z M 229.9 19.4 C 229.7 19.2 229.3 19.3 228.7 19.2 C 228.7 18.9 225.5 18.7 225.1 18.5 C 225.9 18.5 227.5 18.8 228.2 18.8 C 227.4 18.6 227.2 18.5 226.4 18.4 C 226.6 18.3 228.3 18.6 228.8 18.5 C 229.0 18.7 229.8 18.7 230.0 18.8 C 227.7 18.5 231.3 19.7 229.9 19.4 C 229.9 19.4 229.9 19.4 229.9 19.4 Z M 167.1 12.8 C 166.8 13.0 169.6 13.6 167.0 13.9 C 166.5 13.7 166.1 13.4 166.3 13.1 C 164.7 13.3 164.0 13.0 163.1 13.3 C 160.1 12.5 165.4 13.4 167.1 12.8 C 167.1 12.8 167.1 12.8 167.1 12.8 Z M 156.4 12.9 C 157.0 12.7 155.5 12.7 155.8 12.6 C 157.1 12.7 161.2 12.5 159.8 12.6 C 158.4 12.7 158.4 12.9 156.4 12.9 C 156.4 12.9 156.4 12.9 156.4 12.9 Z M 77.5 113.2 C 75.6 112.9 74.8 112.2 75.9 112.4 C 75.4 112.5 78.2 113.1 77.5 113.2 C 77.5 113.2 77.5 113.2 77.5 113.2 Z M 10.7 80.1 C 11.3 81.5 11.9 82.2 11.9 82.5 C 10.9 81.3 11.2 81.3 10.5 80.2 C 10.4 80.1 9.9 79.5 9.9 79.3 C 10.3 79.9 10.4 79.7 10.7 80.1 C 10.7 80.1 10.7 80.1 10.7 80.1 Z M 116.1 9.6 C 115.9 9.6 115.2 9.6 115.5 9.4 C 117.4 9.3 119.6 8.9 121.3 8.5 C 121.3 8.6 121.3 8.8 121.3 8.9 C 118.2 9.1 117.4 9.4 116.1 9.6 C 116.1 9.6 116.1 9.6 116.1 9.6 Z M 112.2 9.6 C 111.9 9.8 113.0 9.9 111.6 10.1 C 111.6 9.9 109.2 10.0 110.3 9.8 C 110.7 9.9 111.3 9.8 112.2 9.6 C 112.2 9.6 112.2 9.6 112.2 9.6 Z M 222.3 13.2 C 223.8 13.5 221.6 12.9 221.7 12.8 C 222.8 13.0 224.3 13.3 224.8 13.5 C 223.7 13.3 222.8 13.5 222.3 13.2 C 222.3 13.2 222.3 13.2 222.3 13.2 Z M 198.7 10.6 C 195.4 10.3 196.9 10.0 193.6 9.6 C 194.9 9.6 197.9 9.9 198.8 9.8 C 198.7 9.9 199.5 10.0 199.4 10.2 C 198.2 10.1 198.0 9.9 196.8 9.8 C 197.3 10.1 197.3 10.0 196.8 10.2 C 197.7 10.3 198.3 10.3 198.8 10.3 C 198.5 10.4 199.7 10.6 198.7 10.6 C 198.7 10.6 198.7 10.6 198.7 10.6 Z M 221.6 13.8 C 222.8 13.9 223.9 14.4 222.8 14.2 C 222.6 14.0 221.8 14.1 221.5 13.9 C 223.4 14.2 220.1 13.5 221.0 13.5 C 222.1 13.7 222.4 13.7 222.2 13.5 C 223.0 13.6 224.0 13.8 224.1 13.9 C 223.6 13.8 222.9 13.7 222.9 13.7 C 223.2 13.8 223.6 13.9 223.5 13.9 C 222.4 13.7 221.9 13.7 221.6 13.8 C 221.6 13.8 221.6 13.8 221.6 13.8 Z M 212.8 12.4 C 214.6 12.6 214.7 12.9 215.3 13.1 C 213.0 12.7 212.7 12.3 210.9 12.0 C 212.9 12.3 214.8 12.3 215.4 12.5 C 214.5 12.5 213.0 12.2 212.8 12.4 C 212.8 12.4 212.8 12.4 212.8 12.4 Z M 242.5 114.6 C 241.1 114.8 239.9 114.9 238.3 115.2 C 237.9 115.6 240.8 115.4 239.6 115.5 C 238.0 115.9 239.0 115.3 237.8 115.6 C 239.1 115.6 232.2 117.2 231.9 116.9 C 232.9 116.7 233.3 116.5 233.0 116.4 C 235.8 115.8 236.8 115.4 238.9 114.8 C 240.4 114.8 244.7 113.8 246.9 112.9 C 248.5 112.9 251.0 111.7 253.1 111.4 C 253.6 111.1 251.4 111.7 253.0 111.1 C 254.1 111.1 253.3 111.4 254.8 111.1 C 254.9 110.9 254.5 110.9 255.2 110.6 C 255.2 110.8 256.1 110.5 256.4 110.5 C 253.4 111.4 256.7 110.8 254.3 111.5 C 253.4 111.7 255.2 110.8 252.6 111.7 C 251.6 112.0 250.7 112.4 251.0 112.5 C 250.3 112.8 249.8 112.9 249.4 113.1 C 250.3 112.5 245.5 114.2 247.6 113.3 C 247.8 113.3 249.3 112.9 250.4 112.5 C 249.4 112.5 248.2 113.0 246.5 113.6 C 245.7 113.6 246.7 113.2 245.8 113.4 C 244.5 113.9 246.4 113.6 245.4 114.0 C 245.8 113.9 246.5 113.7 246.5 113.8 C 244.1 114.2 243.2 114.7 241.9 115.0 C 242.8 114.6 240.5 115.1 242.5 114.6 C 242.5 114.6 242.5 114.6 242.5 114.6 Z M 262.2 108.4 C 262.7 108.2 263.2 108.0 263.7 107.8 C 263.9 108.0 261.9 108.7 263.3 108.4 C 261.1 109.2 263.3 108.1 262.2 108.4 C 262.2 108.4 262.2 108.4 262.2 108.4 Z M 251.2 111.0 C 250.3 111.0 250.9 111.4 250.2 111.6 C 251.5 111.2 252.7 110.7 252.9 111.0 C 251.4 111.4 250.7 111.6 249.1 112.1 C 250.5 111.3 247.2 112.3 246.7 112.2 C 247.9 111.8 248.9 111.4 250.5 110.9 C 250.3 111.1 252.7 110.5 251.2 111.0 C 251.2 111.0 251.2 111.0 251.2 111.0 Z M 255.5 109.3 C 255.8 109.4 258.1 108.5 257.7 109.0 C 256.3 109.4 255.8 109.6 256.1 109.7 C 255.1 110.1 254.9 110.0 254.0 110.3 C 253.3 110.2 255.0 109.7 255.5 109.4 C 255.2 109.5 254.8 109.6 255.5 109.3 C 255.5 109.3 255.5 109.3 255.5 109.3 Z M 299.1 83.8 C 299.6 83.6 298.0 85.2 297.6 85.4 C 298.2 85.1 298.1 85.4 297.1 86.5 C 297.3 85.8 295.8 87.4 294.6 88.0 C 294.5 88.4 295.9 87.3 294.3 88.7 C 293.0 89.7 292.0 90.7 289.8 92.2 C 289.2 92.4 290.1 91.7 290.6 91.2 C 289.2 92.3 289.5 91.8 288.4 92.5 C 288.7 92.5 287.8 93.2 287.3 93.3 C 289.3 92.0 284.4 94.8 286.5 93.4 C 286.7 93.4 287.2 93.0 287.6 92.6 C 287.3 93.3 289.9 91.4 290.6 91.1 C 291.3 89.9 294.0 88.1 296.6 85.9 C 296.9 85.9 296.1 86.7 296.8 86.1 C 296.8 86.0 297.6 85.2 297.9 84.8 C 297.9 85.0 298.3 84.7 298.8 84.2 C 298.8 84.2 298.8 84.1 299.1 83.8 C 299.1 83.8 299.1 83.8 299.1 83.8 Z M 137.4 120.8 C 137.5 120.4 133.3 120.4 132.2 120.4 C 132.4 120.0 139.8 120.6 137.4 120.8 C 137.4 120.8 137.4 120.8 137.4 120.8 Z M 163.1 121.1 C 162.0 121.1 162.8 121.3 161.8 121.3 C 161.8 121.1 159.2 121.6 159.2 121.4 C 160.4 121.1 161.2 121.2 163.1 121.1 C 163.1 121.1 163.1 121.1 163.1 121.1 Z M 186.8 120.2 C 184.9 120.4 187.8 120.3 187.5 120.4 C 185.8 120.5 184.1 120.6 184.2 120.4 C 185.7 120.4 186.6 120.0 186.8 120.2 C 186.8 120.2 186.8 120.2 186.8 120.2 Z M 151.3 120.8 C 149.7 120.7 152.3 120.4 152.6 120.6 C 150.8 120.6 153.7 120.8 155.2 120.8 C 155.1 121.1 154.5 121.0 155.2 121.3 C 152.9 121.3 154.8 121.0 153.2 121.0 C 152.1 121.1 153.3 121.1 153.2 121.3 C 152.5 121.3 151.9 121.3 151.3 121.3 C 151.3 121.1 151.3 121.0 151.3 120.9 C 152.0 120.9 152.8 120.9 152.6 120.7 C 151.9 120.7 151.8 120.8 151.3 120.8 C 151.3 120.8 151.3 120.8 151.3 120.8 Z M 268.3 102.6 C 267.1 103.1 268.2 102.8 269.2 102.4 C 269.4 102.2 270.0 101.4 271.5 101.1 C 268.5 102.6 272.5 101.0 270.9 101.9 C 270.1 101.9 268.3 103.0 266.8 103.5 C 266.1 103.6 267.5 102.7 268.3 102.6 C 268.3 102.6 268.3 102.6 268.3 102.6 Z M 273.9 100.3 C 273.7 100.3 273.2 100.6 272.3 101.0 C 273.2 100.4 271.8 100.9 273.0 100.3 C 272.9 100.5 276.8 98.7 274.6 99.9 C 272.5 100.7 275.2 99.7 276.1 99.3 C 275.1 99.8 273.4 100.9 273.1 100.8 C 273.6 100.5 274.1 100.3 273.9 100.3 C 273.9 100.3 273.9 100.3 273.9 100.3 Z M 304.0 75.6 C 303.9 75.4 303.6 76.1 303.4 76.2 C 304.4 74.3 305.0 72.6 305.3 71.7 C 305.1 72.6 305.2 72.7 305.5 72.2 C 305.1 73.1 305.1 73.4 304.9 73.7 C 305.0 72.8 304.6 74.4 304.0 75.6 C 304.0 75.6 304.0 75.6 304.0 75.6 Z M 304.0 75.6 " fill="#000000"></path><image xlink:href="../../CEFA4209-80C9-472B-8D2B-058B96531B72/assets/53DE529C9B23CC4742AB8E7F7EB62785.png" width="153.00" height="39.00" transform="matrix(1.00, 0.00, -0.00, -1.00, 84.0, 82.0)"></image><g><clipPath id="clip-887"><path d="M 10.4 10.4 L 308.6 10.4 L 308.6 122.8 L 10.4 122.8 Z M 10.4 10.4 "></path></clipPath><g clip-path="url(#clip-887)"><text xml:space="preserve" font-family="Chalkduster" font-size="32.0" fill="#000000" transform="matrix(1.00, 0.00, -0.00, -1.00, 87.0, 52.0)">N</text><text xml:space="preserve" font-family="Chalkduster" font-size="32.0" fill="#000000" transform="matrix(1.00, 0.00, -0.00, -1.00, 109.8, 52.0)">F</text><text xml:space="preserve" font-family="Chalkduster" font-size="32.0" fill="#000000" transform="matrix(1.00, 0.00, -0.00, -1.00, 133.6, 52.0)">S</text><text xml:space="preserve" font-family="Chalkduster" font-size="32.0" fill="#000000" transform="matrix(1.00, 0.00, -0.00, -1.00, 149.5, 52.0)"> </text><text xml:space="preserve" font-family="Chalkduster" font-size="32.0" fill="#000000" transform="matrix(1.00, 0.00, -0.00, -1.00, 165.4, 52.0)">t</text><text xml:space="preserve" font-family="Chalkduster" font-size="32.0" fill="#000000" transform="matrix(1.00, 0.00, -0.00, -1.00, 179.7, 52.0)">e</text><text xml:space="preserve" font-family="Chalkduster" font-size="32.0" fill="#000000" transform="matrix(1.00, 0.00, -0.00, -1.00, 200.3, 52.0)">s</text><text xml:space="preserve" font-family="Chalkduster" font-size="32.0" fill="#000000" transform="matrix(1.00, 0.00, -0.00, -1.00, 217.4, 52.0)">t</text></g></g></g></svg>