<?xml version="1.0" encoding="UTF-8" standalone="no"?><svg xmlns="http://www.w3.org/2000/svg" xmlns:xlink="http://www.w3.org/1999/xlink" clip-rule="evenodd" stroke-miterlimit="4.00" viewBox="0 0 890 397"><desc>SVG generated by Keynote</desc><defs></defs><g transform="matrix(1.00, 0.00, -0.00, -1.00, 0.0, 397.0)"><g><clipPath id="clip-491"><path d="M 1.0 395.8 L 889.0 395.8 L 889.0 1.0 L 1.0 1.0 Z M 1.0 395.8 "></path></clipPath><g clip-path="url(#clip-491)"><path d="M 264.4 1.5 L 264.4 58.3 " fill="none" stroke="#FEFFFE" stroke-opacity="0.50" stroke-width="1.00" transform="matrix(1.00, 0.00, 0.00, -1.00, -0.5, 397.3)"></path><path d="M 264.4 58.3 L 264.4 396.4 " fill="none" stroke="#FEFFFE" stroke-opacity="0.50" stroke-width="1.00" transform="matrix(1.00, 0.00, 0.00, -1.00, -0.5, 397.3)"></path><path d="M 389.3 1.5 L 389.3 58.3 " fill="none" stroke="#FEFFFE" stroke-opacity="0.50" stroke-width="1.00" transform="matrix(1.00, 0.00, 0.00, -1.00, -0.5, 397.3)"></path><path d="M 389.3 58.3 L 389.3 396.4 " fill="none" stroke="#FEFFFE" stroke-opacity="0.50" stroke-width="1.00" transform="matrix(1.00, 0.00, 0.00, -1.00, -0.5, 397.3)"></path><path d="M 514.3 1.5 L 514.3 396.4 " fill="none" stroke="#FEFFFE" stroke-opacity="0.50" stroke-width="4.00" transform="matrix(1.00, 0.00, 0.00, -1.00, -0.5, 397.3)"></path><path d="M 639.2 1.5 L 639.2 58.3 " fill="none" stroke="#FEFFFE" stroke-opacity="0.50" stroke-width="1.00" transform="matrix(1.00, 0.00, 0.00, -1.00, -0.5, 397.3)"></path><path d="M 639.2 58.3 L 639.2 396.4 " fill="none" stroke="#FEFFFE" stroke-opacity="0.50" stroke-width="1.00" transform="matrix(1.00, 0.00, 0.00, -1.00, -0.5, 397.3)"></path><path d="M 764.1 1.5 L 764.1 58.3 " fill="none" stroke="#FEFFFE" stroke-opacity="0.50" stroke-width="1.00" transform="matrix(1.00, 0.00, 0.00, -1.00, -0.5, 397.3)"></path><path d="M 764.1 58.3 L 764.1 396.4 " fill="none" stroke="#FEFFFE" stroke-opacity="0.50" stroke-width="1.00" transform="matrix(1.00, 0.00, 0.00, -1.00, -0.5, 397.3)"></path><path d="M 1.5 114.5 L 139.4 114.5 " fill="none" stroke="#FEFFFE" stroke-opacity="0.50" stroke-width="1.00" transform="matrix(1.00, 0.00, 0.00, -1.00, -0.5, 397.3)"></path><path d="M 139.4 114.5 L 889.6 114.5 " fill="none" stroke="#FEFFFE" stroke-opacity="0.50" stroke-width="1.00" transform="matrix(1.00, 0.00, 0.00, -1.00, -0.5, 397.3)"></path><path d="M 1.5 170.8 L 139.4 170.8 " fill="none" stroke="#FEFFFE" stroke-opacity="0.50" stroke-width="1.00" transform="matrix(1.00, 0.00, 0.00, -1.00, -0.5, 397.3)"></path><path d="M 139.4 170.8 L 889.6 170.8 " fill="none" stroke="#FEFFFE" stroke-opacity="0.50" stroke-width="1.00" transform="matrix(1.00, 0.00, 0.00, -1.00, -0.5, 397.3)"></path><path d="M 1.5 227.1 L 139.4 227.1 " fill="none" stroke="#FEFFFE" stroke-opacity="0.50" stroke-width="1.00" transform="matrix(1.00, 0.00, 0.00, -1.00, -0.5, 397.3)"></path><path d="M 139.4 227.1 L 889.6 227.1 " fill="none" stroke="#FEFFFE" stroke-opacity="0.50" stroke-width="1.00" transform="matrix(1.00, 0.00, 0.00, -1.00, -0.5, 397.3)"></path><path d="M 1.5 283.3 L 139.4 283.3 " fill="none" stroke="#FEFFFE" stroke-opacity="0.50" stroke-width="1.00" transform="matrix(1.00, 0.00, 0.00, -1.00, -0.5, 397.3)"></path><path d="M 139.4 283.3 L 889.6 283.3 " fill="none" stroke="#FEFFFE" stroke-opacity="0.50" stroke-width="1.00" transform="matrix(1.00, 0.00, 0.00, -1.00, -0.5, 397.3)"></path><path d="M 1.5 339.6 L 139.4 339.6 " fill="none" stroke="#FEFFFE" stroke-opacity="0.50" stroke-width="1.00" transform="matrix(1.00, 0.00, 0.00, -1.00, -0.5, 397.3)"></path><path d="M 139.4 339.6 L 889.6 339.6 " fill="none" stroke="#FEFFFE" stroke-opacity="0.50" stroke-width="1.00" transform="matrix(1.00, 0.00, 0.00, -1.00, -0.5, 397.3)"></path><path d="M 139.4 1.5 L 139.4 396.4 " fill="none" stroke="#FEFFFE" stroke-opacity="0.50" stroke-width="4.00" transform="matrix(1.00, 0.00, 0.00, -1.00, -0.5, 397.3)"></path><path d="M 1.5 58.3 L 889.6 58.3 " fill="none" stroke="#FEFFFE" stroke-opacity="0.50" stroke-width="1.00" transform="matrix(1.00, 0.00, 0.00, -1.00, -0.5, 397.3)"></path><path d="M 2.0 1.5 L 2.0 58.3 " fill="none" stroke="#FEFFFE" stroke-opacity="0.50" stroke-width="1.00" transform="matrix(1.00, 0.00, 0.00, -1.00, -0.5, 397.3)"></path><path d="M 2.0 58.3 L 2.0 396.4 " fill="none" stroke="#FEFFFE" stroke-opacity="0.50" stroke-width="1.00" transform="matrix(1.00, 0.00, 0.00, -1.00, -0.5, 397.3)"></path><path d="M 889.1 1.5 L 889.1 58.3 " fill="none" stroke="#FEFFFE" stroke-opacity="0.50" stroke-width="1.00" transform="matrix(1.00, 0.00, 0.00, -1.00, -0.5, 397.3)"></path><path d="M 889.1 58.3 L 889.1 396.4 " fill="none" stroke="#FEFFFE" stroke-opacity="0.50" stroke-width="1.00" transform="matrix(1.00, 0.00, 0.00, -1.00, -0.5, 397.3)"></path><path d="M 1.5 2.0 L 889.6 2.0 " fill="none" stroke="#FEFFFE" stroke-opacity="0.50" stroke-width="1.00" transform="matrix(1.00, 0.00, 0.00, -1.00, -0.5, 397.3)"></path><path d="M 1.5 395.9 L 139.4 395.9 " fill="none" stroke="#FEFFFE" stroke-opacity="0.50" stroke-width="1.00" transform="matrix(1.00, 0.00, 0.00, -1.00, -0.5, 397.3)"></path><path d="M 139.4 395.9 L 889.6 395.9 " fill="none" stroke="#FEFFFE" stroke-opacity="0.50" stroke-width="1.00" transform="matrix(1.00, 0.00, 0.00, -1.00, -0.5, 397.3)"></path></g></g><g><clipPath id="clip-492"><path d="M 1.0 395.8 L 140.9 395.8 L 140.9 338.6 L 1.0 338.6 Z M 1.0 395.8 "></path></clipPath><g clip-path="url(#clip-492)"><path d="M 1.5 395.3 L 138.9 395.3 L 138.9 339.1 L 1.5 339.1 Z M 1.5 395.3 " fill="#869ABB"></path><path d="M 138.9 395.3 L 263.8 395.3 L 263.8 339.1 L 138.9 339.1 Z M 138.9 395.3 " fill="#869ABB"></path><path d="M 1.5 339.1 L 138.9 339.1 L 138.9 282.8 L 1.5 282.8 Z M 1.5 339.1 " fill="#869ABB"></path></g></g><g><clipPath id="clip-493"><path d="M 1.0 395.8 L 140.9 395.8 L 140.9 338.6 L 1.0 338.6 Z M 1.0 395.8 "></path></clipPath><g clip-path="url(#clip-493)"><path d="M 264.4 2.0 L 264.4 58.3 " fill="none" stroke="#FEFFFE" stroke-opacity="0.50" stroke-width="1.00" transform="matrix(1.00, 0.00, 0.00, -1.00, -0.5, 397.3)"></path><path d="M 264.4 58.3 L 264.4 114.5 " fill="none" stroke="#FEFFFE" stroke-opacity="0.50" stroke-width="1.00" transform="matrix(1.00, 0.00, 0.00, -1.00, -0.5, 397.3)"></path><path d="M 2.0 114.5 L 139.4 114.5 " fill="none" stroke="#FEFFFE" stroke-opacity="0.50" stroke-width="1.00" transform="matrix(1.00, 0.00, 0.00, -1.00, -0.5, 397.3)"></path><path d="M 139.4 114.5 L 264.4 114.5 " fill="none" stroke="#FEFFFE" stroke-opacity="0.50" stroke-width="1.00" transform="matrix(1.00, 0.00, 0.00, -1.00, -0.5, 397.3)"></path><path d="M 139.4 1.5 L 139.4 114.5 " fill="none" stroke="#FEFFFE" stroke-opacity="0.50" stroke-width="4.00" transform="matrix(1.00, 0.00, 0.00, -1.00, -0.5, 397.3)"></path><path d="M 1.5 58.3 L 264.4 58.3 " fill="none" stroke="#FEFFFE" stroke-opacity="0.50" stroke-width="1.00" transform="matrix(1.00, 0.00, 0.00, -1.00, -0.5, 397.3)"></path><path d="M 2.0 1.5 L 2.0 58.3 " fill="none" stroke="#FEFFFE" stroke-opacity="0.50" stroke-width="1.00" transform="matrix(1.00, 0.00, 0.00, -1.00, -0.5, 397.3)"></path><path d="M 2.0 58.3 L 2.0 114.5 " fill="none" stroke="#FEFFFE" stroke-opacity="0.50" stroke-width="1.00" transform="matrix(1.00, 0.00, 0.00, -1.00, -0.5, 397.3)"></path><path d="M 1.5 2.0 L 264.4 2.0 " fill="none" stroke="#FEFFFE" stroke-opacity="0.50" stroke-width="1.00" transform="matrix(1.00, 0.00, 0.00, -1.00, -0.5, 397.3)"></path></g></g><g><clipPath id="clip-494"><path d="M 136.9 395.8 L 264.3 395.8 L 264.3 338.6 L 136.9 338.6 Z M 136.9 395.8 "></path></clipPath><g clip-path="url(#clip-494)"><path d="M 1.5 395.3 L 138.9 395.3 L 138.9 339.1 L 1.5 339.1 Z M 1.5 395.3 " fill="#869ABB"></path><path d="M 138.9 395.3 L 263.8 395.3 L 263.8 339.1 L 138.9 339.1 Z M 138.9 395.3 " fill="#869ABB"></path><path d="M 263.8 395.3 L 388.8 395.3 L 388.8 339.1 L 263.8 339.1 Z M 263.8 395.3 " fill="#869ABB"></path><path d="M 1.5 339.1 L 138.9 339.1 L 138.9 282.8 L 1.5 282.8 Z M 1.5 339.1 " fill="#869ABB"></path></g></g><image xlink:href="../../D55510CF-6CC6-4C3C-BC8C-B86DBACA13BB/assets/769658594DB1201C8F3AB3A752E35090.png" width="106.00" height="32.00" transform="matrix(1.00, 0.00, -0.00, -1.00, 149.0, 378.0)"></image><g><clipPath id="clip-495"><path d="M 136.9 395.8 L 264.3 395.8 L 264.3 338.6 L 136.9 338.6 Z M 136.9 395.8 "></path></clipPath><g clip-path="url(#clip-495)"><g><clipPath id="clip-496"><path d="M 140.9 339.6 L 263.3 339.6 L 263.3 394.8 L 140.9 394.8 Z M 140.9 339.6 "></path></clipPath><g clip-path="url(#clip-496)"><text xml:space="preserve" font-family="Chalkduster" font-size="16.0" fill="#FEFFFE" transform="matrix(1.00, 0.00, -0.00, -1.00, 154.0, 360.0)">C</text><text xml:space="preserve" font-family="Chalkduster" font-size="16.0" fill="#FEFFFE" transform="matrix(1.00, 0.00, -0.00, -1.00, 167.0, 360.0)">o</text><text xml:space="preserve" font-family="Chalkduster" font-size="16.0" fill="#FEFFFE" transform="matrix(1.00, 0.00, -0.00, -1.00, 179.0, 360.0)">m</text><text xml:space="preserve" font-family="Chalkduster" font-size="16.0" fill="#FEFFFE" transform="matrix(1.00, 0.00, -0.00, -1.00, 195.2, 360.0)">p</text><text xml:space="preserve" font-family="Chalkduster" font-size="16.0" fill="#FEFFFE" transform="matrix(1.00, 0.00, -0.00, -1.00, 205.0, 360.0)">u</text><text xml:space="preserve" font-family="Chalkduster" font-size="16.0" fill="#FEFFFE" transform="matrix(1.00, 0.00, -0.00, -1.00, 215.9, 360.0)">t</text><text xml:space="preserve" font-family="Chalkduster" font-size="16.0" fill="#FEFFFE" transform="matrix(1.00, 0.00, -0.00, -1.00, 223.0, 360.0)">e</text><text xml:space="preserve" font-family="Chalkduster" font-size="16.0" fill="#FEFFFE" transform="matrix(1.00, 0.00, -0.00, -1.00, 232.9, 360.0)"> </text><text xml:space="preserve" font-family="Chalkduster" font-size="16.0" fill="#FEFFFE" transform="matrix(1.00, 0.00, -0.00, -1.00, 240.9, 360.0)">1</text></g></g></g></g><g><clipPath id="clip-497"><path d="M 136.9 395.8 L 264.3 395.8 L 264.3 338.6 L 136.9 338.6 Z M 136.9 395.8 "></path></clipPath><g clip-path="url(#clip-497)"><path d="M 264.4 1.5 L 264.4 58.3 " fill="none" stroke="#FEFFFE" stroke-opacity="0.50" stroke-width="1.00" transform="matrix(1.00, 0.00, 0.00, -1.00, -0.5, 397.3)"></path><path d="M 264.4 58.3 L 264.4 114.5 " fill="none" stroke="#FEFFFE" stroke-opacity="0.50" stroke-width="1.00" transform="matrix(1.00, 0.00, 0.00, -1.00, -0.5, 397.3)"></path><path d="M 389.3 2.0 L 389.3 58.3 " fill="none" stroke="#FEFFFE" stroke-opacity="0.50" stroke-width="1.00" transform="matrix(1.00, 0.00, 0.00, -1.00, -0.5, 397.3)"></path><path d="M 389.3 58.3 L 389.3 114.5 " fill="none" stroke="#FEFFFE" stroke-opacity="0.50" stroke-width="1.00" transform="matrix(1.00, 0.00, 0.00, -1.00, -0.5, 397.3)"></path><path d="M 2.0 114.5 L 139.4 114.5 " fill="none" stroke="#FEFFFE" stroke-opacity="0.50" stroke-width="1.00" transform="matrix(1.00, 0.00, 0.00, -1.00, -0.5, 397.3)"></path><path d="M 139.4 114.5 L 389.3 114.5 " fill="none" stroke="#FEFFFE" stroke-opacity="0.50" stroke-width="1.00" transform="matrix(1.00, 0.00, 0.00, -1.00, -0.5, 397.3)"></path><path d="M 139.4 1.5 L 139.4 114.5 " fill="none" stroke="#FEFFFE" stroke-opacity="0.50" stroke-width="4.00" transform="matrix(1.00, 0.00, 0.00, -1.00, -0.5, 397.3)"></path><path d="M 2.0 58.3 L 389.3 58.3 " fill="none" stroke="#FEFFFE" stroke-opacity="0.50" stroke-width="1.00" transform="matrix(1.00, 0.00, 0.00, -1.00, -0.5, 397.3)"></path><path d="M 2.0 2.0 L 2.0 58.3 " fill="none" stroke="#FEFFFE" stroke-opacity="0.50" stroke-width="1.00" transform="matrix(1.00, 0.00, 0.00, -1.00, -0.5, 397.3)"></path><path d="M 2.0 58.3 L 2.0 114.5 " fill="none" stroke="#FEFFFE" stroke-opacity="0.50" stroke-width="1.00" transform="matrix(1.00, 0.00, 0.00, -1.00, -0.5, 397.3)"></path><path d="M 2.0 2.0 L 389.3 2.0 " fill="none" stroke="#FEFFFE" stroke-opacity="0.50" stroke-width="1.00" transform="matrix(1.00, 0.00, 0.00, -1.00, -0.5, 397.3)"></path></g></g><g><clipPath id="clip-498"><path d="M 263.3 395.8 L 389.3 395.8 L 389.3 338.6 L 263.3 338.6 Z M 263.3 395.8 "></path></clipPath><g clip-path="url(#clip-498)"><path d="M 138.9 395.3 L 263.8 395.3 L 263.8 339.1 L 138.9 339.1 Z M 138.9 395.3 " fill="#869ABB"></path><path d="M 263.8 395.3 L 388.8 395.3 L 388.8 339.1 L 263.8 339.1 Z M 263.8 395.3 " fill="#869ABB"></path><path d="M 388.8 395.3 L 513.7 395.3 L 513.7 339.1 L 388.8 339.1 Z M 388.8 395.3 " fill="#869ABB"></path></g></g><image xlink:href="../../D55510CF-6CC6-4C3C-BC8C-B86DBACA13BB/assets/530467D521B7D6F399558FA266B94881.png" width="106.00" height="32.00" transform="matrix(1.00, 0.00, -0.00, -1.00, 273.0, 378.0)"></image><g><clipPath id="clip-499"><path d="M 263.3 395.8 L 389.3 395.8 L 389.3 338.6 L 263.3 338.6 Z M 263.3 395.8 "></path></clipPath><g clip-path="url(#clip-499)"><g><clipPath id="clip-500"><path d="M 264.3 339.6 L 388.3 339.6 L 388.3 394.8 L 264.3 394.8 Z M 264.3 339.6 "></path></clipPath><g clip-path="url(#clip-500)"><text xml:space="preserve" font-family="Chalkduster" font-size="16.0" fill="#FEFFFE" transform="matrix(1.00, 0.00, -0.00, -1.00, 278.0, 360.0)">C</text><text xml:space="preserve" font-family="Chalkduster" font-size="16.0" fill="#FEFFFE" transform="matrix(1.00, 0.00, -0.00, -1.00, 291.0, 360.0)">o</text><text xml:space="preserve" font-family="Chalkduster" font-size="16.0" fill="#FEFFFE" transform="matrix(1.00, 0.00, -0.00, -1.00, 303.0, 360.0)">m</text><text xml:space="preserve" font-family="Chalkduster" font-size="16.0" fill="#FEFFFE" transform="matrix(1.00, 0.00, -0.00, -1.00, 319.2, 360.0)">p</text><text xml:space="preserve" font-family="Chalkduster" font-size="16.0" fill="#FEFFFE" transform="matrix(1.00, 0.00, -0.00, -1.00, 329.0, 360.0)">u</text><text xml:space="preserve" font-family="Chalkduster" font-size="16.0" fill="#FEFFFE" transform="matrix(1.00, 0.00, -0.00, -1.00, 339.9, 360.0)">t</text><text xml:space="preserve" font-family="Chalkduster" font-size="16.0" fill="#FEFFFE" transform="matrix(1.00, 0.00, -0.00, -1.00, 347.0, 360.0)">e</text><text xml:space="preserve" font-family="Chalkduster" font-size="16.0" fill="#FEFFFE" transform="matrix(1.00, 0.00, -0.00, -1.00, 356.9, 360.0)"> </text><text xml:space="preserve" font-family="Chalkduster" font-size="16.0" fill="#FEFFFE" transform="matrix(1.00, 0.00, -0.00, -1.00, 364.9, 360.0)">2</text></g></g></g></g><g><clipPath id="clip-501"><path d="M 263.3 395.8 L 389.3 395.8 L 389.3 338.6 L 263.3 338.6 Z M 263.3 395.8 "></path></clipPath><g clip-path="url(#clip-501)"><path d="M 264.4 1.5 L 264.4 58.3 " fill="none" stroke="#FEFFFE" stroke-opacity="0.50" stroke-width="1.00" transform="matrix(1.00, 0.00, 0.00, -1.00, -0.5, 397.3)"></path><path d="M 264.4 58.3 L 264.4 114.5 " fill="none" stroke="#FEFFFE" stroke-opacity="0.50" stroke-width="1.00" transform="matrix(1.00, 0.00, 0.00, -1.00, -0.5, 397.3)"></path><path d="M 389.3 1.5 L 389.3 58.3 " fill="none" stroke="#FEFFFE" stroke-opacity="0.50" stroke-width="1.00" transform="matrix(1.00, 0.00, 0.00, -1.00, -0.5, 397.3)"></path><path d="M 389.3 58.3 L 389.3 114.5 " fill="none" stroke="#FEFFFE" stroke-opacity="0.50" stroke-width="1.00" transform="matrix(1.00, 0.00, 0.00, -1.00, -0.5, 397.3)"></path><path d="M 514.3 2.0 L 514.3 114.5 " fill="none" stroke="#FEFFFE" stroke-opacity="0.50" stroke-width="4.00" transform="matrix(1.00, 0.00, 0.00, -1.00, -0.5, 397.3)"></path><path d="M 139.4 114.5 L 514.3 114.5 " fill="none" stroke="#FEFFFE" stroke-opacity="0.50" stroke-width="1.00" transform="matrix(1.00, 0.00, 0.00, -1.00, -0.5, 397.3)"></path><path d="M 139.4 2.0 L 139.4 114.5 " fill="none" stroke="#FEFFFE" stroke-opacity="0.50" stroke-width="4.00" transform="matrix(1.00, 0.00, 0.00, -1.00, -0.5, 397.3)"></path><path d="M 139.4 58.3 L 514.3 58.3 " fill="none" stroke="#FEFFFE" stroke-opacity="0.50" stroke-width="1.00" transform="matrix(1.00, 0.00, 0.00, -1.00, -0.5, 397.3)"></path><path d="M 139.4 2.0 L 514.3 2.0 " fill="none" stroke="#FEFFFE" stroke-opacity="0.50" stroke-width="1.00" transform="matrix(1.00, 0.00, 0.00, -1.00, -0.5, 397.3)"></path></g></g><g><clipPath id="clip-502"><path d="M 388.3 395.8 L 515.7 395.8 L 515.7 338.6 L 388.3 338.6 Z M 388.3 395.8 "></path></clipPath><g clip-path="url(#clip-502)"><path d="M 263.8 395.3 L 388.8 395.3 L 388.8 339.1 L 263.8 339.1 Z M 263.8 395.3 " fill="#869ABB"></path><path d="M 388.8 395.3 L 513.7 395.3 L 513.7 339.1 L 388.8 339.1 Z M 388.8 395.3 " fill="#869ABB"></path><path d="M 513.7 395.3 L 638.7 395.3 L 638.7 339.1 L 513.7 339.1 Z M 513.7 395.3 " fill="#869ABB"></path></g></g><image xlink:href="../../D55510CF-6CC6-4C3C-BC8C-B86DBACA13BB/assets/4428FEEA42197C511D1202861DED1AFD.png" width="108.00" height="32.00" transform="matrix(1.00, 0.00, -0.00, -1.00, 397.0, 378.0)"></image><g><clipPath id="clip-503"><path d="M 388.3 395.8 L 515.7 395.8 L 515.7 338.6 L 388.3 338.6 Z M 388.3 395.8 "></path></clipPath><g clip-path="url(#clip-503)"><g><clipPath id="clip-504"><path d="M 389.3 339.6 L 511.7 339.6 L 511.7 394.8 L 389.3 394.8 Z M 389.3 339.6 "></path></clipPath><g clip-path="url(#clip-504)"><text xml:space="preserve" font-family="Chalkduster" font-size="16.0" fill="#FEFFFE" transform="matrix(1.00, 0.00, -0.00, -1.00, 402.0, 360.0)">C</text><text xml:space="preserve" font-family="Chalkduster" font-size="16.0" fill="#FEFFFE" transform="matrix(1.00, 0.00, -0.00, -1.00, 415.0, 360.0)">o</text><text xml:space="preserve" font-family="Chalkduster" font-size="16.0" fill="#FEFFFE" transform="matrix(1.00, 0.00, -0.00, -1.00, 427.0, 360.0)">m</text><text xml:space="preserve" font-family="Chalkduster" font-size="16.0" fill="#FEFFFE" transform="matrix(1.00, 0.00, -0.00, -1.00, 443.2, 360.0)">p</text><text xml:space="preserve" font-family="Chalkduster" font-size="16.0" fill="#FEFFFE" transform="matrix(1.00, 0.00, -0.00, -1.00, 453.0, 360.0)">u</text><text xml:space="preserve" font-family="Chalkduster" font-size="16.0" fill="#FEFFFE" transform="matrix(1.00, 0.00, -0.00, -1.00, 463.9, 360.0)">t</text><text xml:space="preserve" font-family="Chalkduster" font-size="16.0" fill="#FEFFFE" transform="matrix(1.00, 0.00, -0.00, -1.00, 471.0, 360.0)">e</text><text xml:space="preserve" font-family="Chalkduster" font-size="16.0" fill="#FEFFFE" transform="matrix(1.00, 0.00, -0.00, -1.00, 480.9, 360.0)"> </text><text xml:space="preserve" font-family="Chalkduster" font-size="16.0" fill="#FEFFFE" transform="matrix(1.00, 0.00, -0.00, -1.00, 488.9, 360.0)">3</text></g></g></g></g><g><clipPath id="clip-505"><path d="M 388.3 395.8 L 515.7 395.8 L 515.7 338.6 L 388.3 338.6 Z M 388.3 395.8 "></path></clipPath><g clip-path="url(#clip-505)"><path d="M 264.4 2.0 L 264.4 58.3 " fill="none" stroke="#FEFFFE" stroke-opacity="0.50" stroke-width="1.00" transform="matrix(1.00, 0.00, 0.00, -1.00, -0.5, 397.3)"></path><path d="M 264.4 58.3 L 264.4 114.5 " fill="none" stroke="#FEFFFE" stroke-opacity="0.50" stroke-width="1.00" transform="matrix(1.00, 0.00, 0.00, -1.00, -0.5, 397.3)"></path><path d="M 389.3 1.5 L 389.3 58.3 " fill="none" stroke="#FEFFFE" stroke-opacity="0.50" stroke-width="1.00" transform="matrix(1.00, 0.00, 0.00, -1.00, -0.5, 397.3)"></path><path d="M 389.3 58.3 L 389.3 114.5 " fill="none" stroke="#FEFFFE" stroke-opacity="0.50" stroke-width="1.00" transform="matrix(1.00, 0.00, 0.00, -1.00, -0.5, 397.3)"></path><path d="M 514.3 1.5 L 514.3 114.5 " fill="none" stroke="#FEFFFE" stroke-opacity="0.50" stroke-width="4.00" transform="matrix(1.00, 0.00, 0.00, -1.00, -0.5, 397.3)"></path><path d="M 639.2 2.0 L 639.2 58.3 " fill="none" stroke="#FEFFFE" stroke-opacity="0.50" stroke-width="1.00" transform="matrix(1.00, 0.00, 0.00, -1.00, -0.5, 397.3)"></path><path d="M 639.2 58.3 L 639.2 114.5 " fill="none" stroke="#FEFFFE" stroke-opacity="0.50" stroke-width="1.00" transform="matrix(1.00, 0.00, 0.00, -1.00, -0.5, 397.3)"></path><path d="M 264.4 114.5 L 639.2 114.5 " fill="none" stroke="#FEFFFE" stroke-opacity="0.50" stroke-width="1.00" transform="matrix(1.00, 0.00, 0.00, -1.00, -0.5, 397.3)"></path><path d="M 264.4 58.3 L 639.2 58.3 " fill="none" stroke="#FEFFFE" stroke-opacity="0.50" stroke-width="1.00" transform="matrix(1.00, 0.00, 0.00, -1.00, -0.5, 397.3)"></path><path d="M 264.4 2.0 L 639.2 2.0 " fill="none" stroke="#FEFFFE" stroke-opacity="0.50" stroke-width="1.00" transform="matrix(1.00, 0.00, 0.00, -1.00, -0.5, 397.3)"></path></g></g><g><clipPath id="clip-506"><path d="M 511.7 395.8 L 639.2 395.8 L 639.2 338.6 L 511.7 338.6 Z M 511.7 395.8 "></path></clipPath><g clip-path="url(#clip-506)"><path d="M 388.8 395.3 L 513.7 395.3 L 513.7 339.1 L 388.8 339.1 Z M 388.8 395.3 " fill="#869ABB"></path><path d="M 513.7 395.3 L 638.7 395.3 L 638.7 339.1 L 513.7 339.1 Z M 513.7 395.3 " fill="#869ABB"></path><path d="M 638.7 395.3 L 763.6 395.3 L 763.6 339.1 L 638.7 339.1 Z M 638.7 395.3 " fill="#869ABB"></path></g></g><image xlink:href="../../D55510CF-6CC6-4C3C-BC8C-B86DBACA13BB/assets/2B8F4EDCD1DF0638CE3749ED49873FB2.png" width="90.00" height="32.00" transform="matrix(1.00, 0.00, -0.00, -1.00, 532.0, 378.0)"></image><g><clipPath id="clip-507"><path d="M 511.7 395.8 L 639.2 395.8 L 639.2 338.6 L 511.7 338.6 Z M 511.7 395.8 "></path></clipPath><g clip-path="url(#clip-507)"><g><clipPath id="clip-508"><path d="M 515.7 339.6 L 638.2 339.6 L 638.2 394.8 L 515.7 394.8 Z M 515.7 339.6 "></path></clipPath><g clip-path="url(#clip-508)"><text xml:space="preserve" font-family="Chalkduster" font-size="16.0" fill="#FEFFFE" transform="matrix(1.00, 0.00, -0.00, -1.00, 537.0, 360.0)">E</text><text xml:space="preserve" font-family="Chalkduster" font-size="16.0" fill="#FEFFFE" transform="matrix(1.00, 0.00, -0.00, -1.00, 548.8, 360.0)">p</text><text xml:space="preserve" font-family="Chalkduster" font-size="16.0" fill="#FEFFFE" transform="matrix(1.00, 0.00, -0.00, -1.00, 558.9, 360.0)">o</text><text xml:space="preserve" font-family="Chalkduster" font-size="16.0" fill="#FEFFFE" transform="matrix(1.00, 0.00, -0.00, -1.00, 570.9, 360.0)">u</text><text xml:space="preserve" font-family="Chalkduster" font-size="16.0" fill="#FEFFFE" transform="matrix(1.00, 0.00, -0.00, -1.00, 581.7, 360.0)">t</text><text xml:space="preserve" font-family="Chalkduster" font-size="16.0" fill="#FEFFFE" transform="matrix(1.00, 0.00, -0.00, -1.00, 588.9, 360.0)">a</text><text xml:space="preserve" font-family="Chalkduster" font-size="16.0" fill="#FEFFFE" transform="matrix(1.00, 0.00, -0.00, -1.00, 599.9, 360.0)"> </text><text xml:space="preserve" font-family="Chalkduster" font-size="16.0" fill="#FEFFFE" transform="matrix(1.00, 0.00, -0.00, -1.00, 607.9, 360.0)">1</text></g></g></g></g><g><clipPath id="clip-509"><path d="M 511.7 395.8 L 639.2 395.8 L 639.2 338.6 L 511.7 338.6 Z M 511.7 395.8 "></path></clipPath><g clip-path="url(#clip-509)"><path d="M 389.3 2.0 L 389.3 58.3 " fill="none" stroke="#FEFFFE" stroke-opacity="0.50" stroke-width="1.00" transform="matrix(1.00, 0.00, 0.00, -1.00, -0.5, 397.3)"></path><path d="M 389.3 58.3 L 389.3 114.5 " fill="none" stroke="#FEFFFE" stroke-opacity="0.50" stroke-width="1.00" transform="matrix(1.00, 0.00, 0.00, -1.00, -0.5, 397.3)"></path><path d="M 514.3 1.5 L 514.3 114.5 " fill="none" stroke="#FEFFFE" stroke-opacity="0.50" stroke-width="4.00" transform="matrix(1.00, 0.00, 0.00, -1.00, -0.5, 397.3)"></path><path d="M 639.2 1.5 L 639.2 58.3 " fill="none" stroke="#FEFFFE" stroke-opacity="0.50" stroke-width="1.00" transform="matrix(1.00, 0.00, 0.00, -1.00, -0.5, 397.3)"></path><path d="M 639.2 58.3 L 639.2 114.5 " fill="none" stroke="#FEFFFE" stroke-opacity="0.50" stroke-width="1.00" transform="matrix(1.00, 0.00, 0.00, -1.00, -0.5, 397.3)"></path><path d="M 764.1 2.0 L 764.1 58.3 " fill="none" stroke="#FEFFFE" stroke-opacity="0.50" stroke-width="1.00" transform="matrix(1.00, 0.00, 0.00, -1.00, -0.5, 397.3)"></path><path d="M 764.1 58.3 L 764.1 114.5 " fill="none" stroke="#FEFFFE" stroke-opacity="0.50" stroke-width="1.00" transform="matrix(1.00, 0.00, 0.00, -1.00, -0.5, 397.3)"></path><path d="M 389.3 114.5 L 764.1 114.5 " fill="none" stroke="#FEFFFE" stroke-opacity="0.50" stroke-width="1.00" transform="matrix(1.00, 0.00, 0.00, -1.00, -0.5, 397.3)"></path><path d="M 389.3 58.3 L 764.1 58.3 " fill="none" stroke="#FEFFFE" stroke-opacity="0.50" stroke-width="1.00" transform="matrix(1.00, 0.00, 0.00, -1.00, -0.5, 397.3)"></path><path d="M 389.3 2.0 L 764.1 2.0 " fill="none" stroke="#FEFFFE" stroke-opacity="0.50" stroke-width="1.00" transform="matrix(1.00, 0.00, 0.00, -1.00, -0.5, 397.3)"></path></g></g><g><clipPath id="clip-510"><path d="M 638.2 395.8 L 764.1 395.8 L 764.1 338.6 L 638.2 338.6 Z M 638.2 395.8 "></path></clipPath><g clip-path="url(#clip-510)"><path d="M 513.7 395.3 L 638.7 395.3 L 638.7 339.1 L 513.7 339.1 Z M 513.7 395.3 " fill="#869ABB"></path><path d="M 638.7 395.3 L 763.6 395.3 L 763.6 339.1 L 638.7 339.1 Z M 638.7 395.3 " fill="#869ABB"></path><path d="M 763.6 395.3 L 888.5 395.3 L 888.5 339.1 L 763.6 339.1 Z M 763.6 395.3 " fill="#869ABB"></path></g></g><image xlink:href="../../D55510CF-6CC6-4C3C-BC8C-B86DBACA13BB/assets/9383B51057CC135F09A649658AB8DE55.png" width="90.00" height="32.00" transform="matrix(1.00, 0.00, -0.00, -1.00, 656.0, 378.0)"></image><g><clipPath id="clip-511"><path d="M 638.2 395.8 L 764.1 395.8 L 764.1 338.6 L 638.2 338.6 Z M 638.2 395.8 "></path></clipPath><g clip-path="url(#clip-511)"><g><clipPath id="clip-512"><path d="M 639.2 339.6 L 763.1 339.6 L 763.1 394.8 L 639.2 394.8 Z M 639.2 339.6 "></path></clipPath><g clip-path="url(#clip-512)"><text xml:space="preserve" font-family="Chalkduster" font-size="16.0" fill="#FEFFFE" transform="matrix(1.00, 0.00, -0.00, -1.00, 661.0, 360.0)">E</text><text xml:space="preserve" font-family="Chalkduster" font-size="16.0" fill="#FEFFFE" transform="matrix(1.00, 0.00, -0.00, -1.00, 672.8, 360.0)">p</text><text xml:space="preserve" font-family="Chalkduster" font-size="16.0" fill="#FEFFFE" transform="matrix(1.00, 0.00, -0.00, -1.00, 682.9, 360.0)">o</text><text xml:space="preserve" font-family="Chalkduster" font-size="16.0" fill="#FEFFFE" transform="matrix(1.00, 0.00, -0.00, -1.00, 694.9, 360.0)">u</text><text xml:space="preserve" font-family="Chalkduster" font-size="16.0" fill="#FEFFFE" transform="matrix(1.00, 0.00, -0.00, -1.00, 705.7, 360.0)">t</text><text xml:space="preserve" font-family="Chalkduster" font-size="16.0" fill="#FEFFFE" transform="matrix(1.00, 0.00, -0.00, -1.00, 712.9, 360.0)">a</text><text xml:space="preserve" font-family="Chalkduster" font-size="16.0" fill="#FEFFFE" transform="matrix(1.00, 0.00, -0.00, -1.00, 723.9, 360.0)"> </text><text xml:space="preserve" font-family="Chalkduster" font-size="16.0" fill="#FEFFFE" transform="matrix(1.00, 0.00, -0.00, -1.00, 731.9, 360.0)">2</text></g></g></g></g><g><clipPath id="clip-513"><path d="M 638.2 395.8 L 764.1 395.8 L 764.1 338.6 L 638.2 338.6 Z M 638.2 395.8 "></path></clipPath><g clip-path="url(#clip-513)"><path d="M 514.3 2.0 L 514.3 114.5 " fill="none" stroke="#FEFFFE" stroke-opacity="0.50" stroke-width="4.00" transform="matrix(1.00, 0.00, 0.00, -1.00, -0.5, 397.3)"></path><path d="M 639.2 1.5 L 639.2 58.3 " fill="none" stroke="#FEFFFE" stroke-opacity="0.50" stroke-width="1.00" transform="matrix(1.00, 0.00, 0.00, -1.00, -0.5, 397.3)"></path><path d="M 639.2 58.3 L 639.2 114.5 " fill="none" stroke="#FEFFFE" stroke-opacity="0.50" stroke-width="1.00" transform="matrix(1.00, 0.00, 0.00, -1.00, -0.5, 397.3)"></path><path d="M 764.1 1.5 L 764.1 58.3 " fill="none" stroke="#FEFFFE" stroke-opacity="0.50" stroke-width="1.00" transform="matrix(1.00, 0.00, 0.00, -1.00, -0.5, 397.3)"></path><path d="M 764.1 58.3 L 764.1 114.5 " fill="none" stroke="#FEFFFE" stroke-opacity="0.50" stroke-width="1.00" transform="matrix(1.00, 0.00, 0.00, -1.00, -0.5, 397.3)"></path><path d="M 514.3 114.5 L 889.1 114.5 " fill="none" stroke="#FEFFFE" stroke-opacity="0.50" stroke-width="1.00" transform="matrix(1.00, 0.00, 0.00, -1.00, -0.5, 397.3)"></path><path d="M 514.3 58.3 L 889.1 58.3 " fill="none" stroke="#FEFFFE" stroke-opacity="0.50" stroke-width="1.00" transform="matrix(1.00, 0.00, 0.00, -1.00, -0.5, 397.3)"></path><path d="M 889.1 2.0 L 889.1 58.3 " fill="none" stroke="#FEFFFE" stroke-opacity="0.50" stroke-width="1.00" transform="matrix(1.00, 0.00, 0.00, -1.00, -0.5, 397.3)"></path><path d="M 889.1 58.3 L 889.1 114.5 " fill="none" stroke="#FEFFFE" stroke-opacity="0.50" stroke-width="1.00" transform="matrix(1.00, 0.00, 0.00, -1.00, -0.5, 397.3)"></path><path d="M 514.3 2.0 L 889.1 2.0 " fill="none" stroke="#FEFFFE" stroke-opacity="0.50" stroke-width="1.00" transform="matrix(1.00, 0.00, 0.00, -1.00, -0.5, 397.3)"></path></g></g><g><clipPath id="clip-514"><path d="M 763.1 395.8 L 889.0 395.8 L 889.0 338.6 L 763.1 338.6 Z M 763.1 395.8 "></path></clipPath><g clip-path="url(#clip-514)"><path d="M 638.7 395.3 L 763.6 395.3 L 763.6 339.1 L 638.7 339.1 Z M 638.7 395.3 " fill="#869ABB"></path><path d="M 763.6 395.3 L 888.5 395.3 L 888.5 339.1 L 763.6 339.1 Z M 763.6 395.3 " fill="#869ABB"></path></g></g><image xlink:href="../../D55510CF-6CC6-4C3C-BC8C-B86DBACA13BB/assets/01EAD8C765E9B848C34AF342E4683A9D.png" width="92.00" height="32.00" transform="matrix(1.00, 0.00, -0.00, -1.00, 780.0, 378.0)"></image><g><clipPath id="clip-515"><path d="M 763.1 395.8 L 889.0 395.8 L 889.0 338.6 L 763.1 338.6 Z M 763.1 395.8 "></path></clipPath><g clip-path="url(#clip-515)"><g><clipPath id="clip-516"><path d="M 764.1 339.6 L 888.0 339.6 L 888.0 394.8 L 764.1 394.8 Z M 764.1 339.6 "></path></clipPath><g clip-path="url(#clip-516)"><text xml:space="preserve" font-family="Chalkduster" font-size="16.0" fill="#FEFFFE" transform="matrix(1.00, 0.00, -0.00, -1.00, 785.0, 360.0)">E</text><text xml:space="preserve" font-family="Chalkduster" font-size="16.0" fill="#FEFFFE" transform="matrix(1.00, 0.00, -0.00, -1.00, 796.8, 360.0)">p</text><text xml:space="preserve" font-family="Chalkduster" font-size="16.0" fill="#FEFFFE" transform="matrix(1.00, 0.00, -0.00, -1.00, 806.9, 360.0)">o</text><text xml:space="preserve" font-family="Chalkduster" font-size="16.0" fill="#FEFFFE" transform="matrix(1.00, 0.00, -0.00, -1.00, 818.9, 360.0)">u</text><text xml:space="preserve" font-family="Chalkduster" font-size="16.0" fill="#FEFFFE" transform="matrix(1.00, 0.00, -0.00, -1.00, 829.7, 360.0)">t</text><text xml:space="preserve" font-family="Chalkduster" font-size="16.0" fill="#FEFFFE" transform="matrix(1.00, 0.00, -0.00, -1.00, 836.9, 360.0)">a</text><text xml:space="preserve" font-family="Chalkduster" font-size="16.0" fill="#FEFFFE" transform="matrix(1.00, 0.00, -0.00, -1.00, 847.9, 360.0)"> </text><text xml:space="preserve" font-family="Chalkduster" font-size="16.0" fill="#FEFFFE" transform="matrix(1.00, 0.00, -0.00, -1.00, 855.9, 360.0)">3</text></g></g></g></g><g><clipPath id="clip-517"><path d="M 763.1 395.8 L 889.0 395.8 L 889.0 338.6 L 763.1 338.6 Z M 763.1 395.8 "></path></clipPath><g clip-path="url(#clip-517)"><path d="M 639.2 2.0 L 639.2 58.3 " fill="none" stroke="#FEFFFE" stroke-opacity="0.50" stroke-width="1.00" transform="matrix(1.00, 0.00, 0.00, -1.00, -0.5, 397.3)"></path><path d="M 639.2 58.3 L 639.2 114.5 " fill="none" stroke="#FEFFFE" stroke-opacity="0.50" stroke-width="1.00" transform="matrix(1.00, 0.00, 0.00, -1.00, -0.5, 397.3)"></path><path d="M 764.1 1.5 L 764.1 58.3 " fill="none" stroke="#FEFFFE" stroke-opacity="0.50" stroke-width="1.00" transform="matrix(1.00, 0.00, 0.00, -1.00, -0.5, 397.3)"></path><path d="M 764.1 58.3 L 764.1 114.5 " fill="none" stroke="#FEFFFE" stroke-opacity="0.50" stroke-width="1.00" transform="matrix(1.00, 0.00, 0.00, -1.00, -0.5, 397.3)"></path><path d="M 639.2 114.5 L 889.1 114.5 " fill="none" stroke="#FEFFFE" stroke-opacity="0.50" stroke-width="1.00" transform="matrix(1.00, 0.00, 0.00, -1.00, -0.5, 397.3)"></path><path d="M 639.2 58.3 L 889.6 58.3 " fill="none" stroke="#FEFFFE" stroke-opacity="0.50" stroke-width="1.00" transform="matrix(1.00, 0.00, 0.00, -1.00, -0.5, 397.3)"></path><path d="M 889.1 1.5 L 889.1 58.3 " fill="none" stroke="#FEFFFE" stroke-opacity="0.50" stroke-width="1.00" transform="matrix(1.00, 0.00, 0.00, -1.00, -0.5, 397.3)"></path><path d="M 889.1 58.3 L 889.1 114.5 " fill="none" stroke="#FEFFFE" stroke-opacity="0.50" stroke-width="1.00" transform="matrix(1.00, 0.00, 0.00, -1.00, -0.5, 397.3)"></path><path d="M 639.2 2.0 L 889.6 2.0 " fill="none" stroke="#FEFFFE" stroke-opacity="0.50" stroke-width="1.00" transform="matrix(1.00, 0.00, 0.00, -1.00, -0.5, 397.3)"></path></g></g><g><clipPath id="clip-518"><path d="M 1.0 339.6 L 140.9 339.6 L 140.9 282.3 L 1.0 282.3 Z M 1.0 339.6 "></path></clipPath><g clip-path="url(#clip-518)"><path d="M 1.5 395.3 L 138.9 395.3 L 138.9 339.1 L 1.5 339.1 Z M 1.5 395.3 " fill="#869ABB"></path><path d="M 138.9 395.3 L 263.8 395.3 L 263.8 339.1 L 138.9 339.1 Z M 138.9 395.3 " fill="#869ABB"></path><path d="M 1.5 339.1 L 138.9 339.1 L 138.9 282.8 L 1.5 282.8 Z M 1.5 339.1 " fill="#869ABB"></path><path d="M 1.5 282.8 L 138.9 282.8 L 138.9 226.5 L 1.5 226.5 Z M 1.5 282.8 " fill="#869ABB"></path><path d="M 138.9 282.8 L 263.8 282.8 L 263.8 226.5 L 138.9 226.5 Z M 138.9 282.8 " fill="#000000" fill-opacity="0.25"></path></g></g><image xlink:href="../../D55510CF-6CC6-4C3C-BC8C-B86DBACA13BB/assets/DA291ADA276B465DF9F68A801D0740E5.png" width="42.00" height="19.00" transform="matrix(1.00, 0.00, -0.00, -1.00, 95.0, 317.0)"></image><g><clipPath id="clip-519"><path d="M 1.0 339.6 L 140.9 339.6 L 140.9 282.3 L 1.0 282.3 Z M 1.0 339.6 "></path></clipPath><g clip-path="url(#clip-519)"><g><clipPath id="clip-520"><path d="M 2.0 283.3 L 136.9 283.3 L 136.9 338.6 L 2.0 338.6 Z M 2.0 283.3 "></path></clipPath><g clip-path="url(#clip-520)"><text xml:space="preserve" font-family="Chalkduster" font-size="16.0" fill="#FEFFFE" transform="matrix(1.00, 0.00, -0.00, -1.00, 100.0, 303.3)">m</text><text xml:space="preserve" font-family="Chalkduster" font-size="16.0" fill="#FEFFFE" transform="matrix(1.00, 0.00, -0.00, -1.00, 116.7, 303.3)">m</text></g></g></g></g><g><clipPath id="clip-521"><path d="M 1.0 339.6 L 140.9 339.6 L 140.9 282.3 L 1.0 282.3 Z M 1.0 339.6 "></path></clipPath><g clip-path="url(#clip-521)"><path d="M 264.4 2.0 L 264.4 58.3 " fill="none" stroke="#FEFFFE" stroke-opacity="0.50" stroke-width="1.00" transform="matrix(1.00, 0.00, 0.00, -1.00, -0.5, 397.3)"></path><path d="M 264.4 58.3 L 264.4 170.8 " fill="none" stroke="#FEFFFE" stroke-opacity="0.50" stroke-width="1.00" transform="matrix(1.00, 0.00, 0.00, -1.00, -0.5, 397.3)"></path><path d="M 1.5 114.5 L 139.4 114.5 " fill="none" stroke="#FEFFFE" stroke-opacity="0.50" stroke-width="1.00" transform="matrix(1.00, 0.00, 0.00, -1.00, -0.5, 397.3)"></path><path d="M 139.4 114.5 L 264.4 114.5 " fill="none" stroke="#FEFFFE" stroke-opacity="0.50" stroke-width="1.00" transform="matrix(1.00, 0.00, 0.00, -1.00, -0.5, 397.3)"></path><path d="M 2.0 170.8 L 139.4 170.8 " fill="none" stroke="#FEFFFE" stroke-opacity="0.50" stroke-width="1.00" transform="matrix(1.00, 0.00, 0.00, -1.00, -0.5, 397.3)"></path><path d="M 139.4 170.8 L 264.4 170.8 " fill="none" stroke="#FEFFFE" stroke-opacity="0.50" stroke-width="1.00" transform="matrix(1.00, 0.00, 0.00, -1.00, -0.5, 397.3)"></path><path d="M 139.4 2.0 L 139.4 170.8 " fill="none" stroke="#FEFFFE" stroke-opacity="0.50" stroke-width="4.00" transform="matrix(1.00, 0.00, 0.00, -1.00, -0.5, 397.3)"></path><path d="M 1.5 58.3 L 264.4 58.3 " fill="none" stroke="#FEFFFE" stroke-opacity="0.50" stroke-width="1.00" transform="matrix(1.00, 0.00, 0.00, -1.00, -0.5, 397.3)"></path><path d="M 2.0 2.0 L 2.0 58.3 " fill="none" stroke="#FEFFFE" stroke-opacity="0.50" stroke-width="1.00" transform="matrix(1.00, 0.00, 0.00, -1.00, -0.5, 397.3)"></path><path d="M 2.0 58.3 L 2.0 170.8 " fill="none" stroke="#FEFFFE" stroke-opacity="0.50" stroke-width="1.00" transform="matrix(1.00, 0.00, 0.00, -1.00, -0.5, 397.3)"></path><path d="M 2.0 2.0 L 264.4 2.0 " fill="none" stroke="#FEFFFE" stroke-opacity="0.50" stroke-width="1.00" transform="matrix(1.00, 0.00, 0.00, -1.00, -0.5, 397.3)"></path></g></g><g><clipPath id="clip-522"><path d="M 136.9 339.6 L 264.3 339.6 L 264.3 282.3 L 136.9 282.3 Z M 136.9 339.6 "></path></clipPath><g clip-path="url(#clip-522)"><path d="M 1.5 395.3 L 138.9 395.3 L 138.9 339.1 L 1.5 339.1 Z M 1.5 395.3 " fill="#869ABB"></path><path d="M 138.9 395.3 L 263.8 395.3 L 263.8 339.1 L 138.9 339.1 Z M 138.9 395.3 " fill="#869ABB"></path><path d="M 263.8 395.3 L 388.8 395.3 L 388.8 339.1 L 263.8 339.1 Z M 263.8 395.3 " fill="#869ABB"></path><path d="M 1.5 339.1 L 138.9 339.1 L 138.9 282.8 L 1.5 282.8 Z M 1.5 339.1 " fill="#869ABB"></path><path d="M 1.5 282.8 L 138.9 282.8 L 138.9 226.5 L 1.5 226.5 Z M 1.5 282.8 " fill="#869ABB"></path><path d="M 138.9 282.8 L 263.8 282.8 L 263.8 226.5 L 138.9 226.5 Z M 138.9 282.8 " fill="#000000" fill-opacity="0.25"></path><path d="M 263.8 282.8 L 388.8 282.8 L 388.8 226.5 L 263.8 226.5 Z M 263.8 282.8 " fill="#000000" fill-opacity="0.25"></path></g></g><image xlink:href="../../D55510CF-6CC6-4C3C-BC8C-B86DBACA13BB/assets/5CF07A188BC6F9A92C473C7CB6E206F3.png" width="18.00" height="23.00" transform="matrix(1.00, 0.00, -0.00, -1.00, 193.0, 320.0)"></image><g><clipPath id="clip-523"><path d="M 136.9 339.6 L 264.3 339.6 L 264.3 282.3 L 136.9 282.3 Z M 136.9 339.6 "></path></clipPath><g clip-path="url(#clip-523)"><g><clipPath id="clip-524"><path d="M 140.9 283.3 L 263.3 283.3 L 263.3 338.6 L 140.9 338.6 Z M 140.9 283.3 "></path></clipPath><g clip-path="url(#clip-524)"><text xml:space="preserve" font-family="Chalkduster" font-size="16.0" fill="#FEFFFE" transform="matrix(1.00, 0.00, -0.00, -1.00, 197.0, 303.0)">1</text></g></g></g></g><g><clipPath id="clip-525"><path d="M 136.9 339.6 L 264.3 339.6 L 264.3 282.3 L 136.9 282.3 Z M 136.9 339.6 "></path></clipPath><g clip-path="url(#clip-525)"><path d="M 264.4 2.0 L 264.4 58.3 " fill="none" stroke="#FEFFFE" stroke-opacity="0.50" stroke-width="1.00" transform="matrix(1.00, 0.00, 0.00, -1.00, -0.5, 397.3)"></path><path d="M 264.4 58.3 L 264.4 170.8 " fill="none" stroke="#FEFFFE" stroke-opacity="0.50" stroke-width="1.00" transform="matrix(1.00, 0.00, 0.00, -1.00, -0.5, 397.3)"></path><path d="M 389.3 2.0 L 389.3 58.3 " fill="none" stroke="#FEFFFE" stroke-opacity="0.50" stroke-width="1.00" transform="matrix(1.00, 0.00, 0.00, -1.00, -0.5, 397.3)"></path><path d="M 389.3 58.3 L 389.3 170.8 " fill="none" stroke="#FEFFFE" stroke-opacity="0.50" stroke-width="1.00" transform="matrix(1.00, 0.00, 0.00, -1.00, -0.5, 397.3)"></path><path d="M 2.0 114.5 L 139.4 114.5 " fill="none" stroke="#FEFFFE" stroke-opacity="0.50" stroke-width="1.00" transform="matrix(1.00, 0.00, 0.00, -1.00, -0.5, 397.3)"></path><path d="M 139.4 114.5 L 389.3 114.5 " fill="none" stroke="#FEFFFE" stroke-opacity="0.50" stroke-width="1.00" transform="matrix(1.00, 0.00, 0.00, -1.00, -0.5, 397.3)"></path><path d="M 2.0 170.8 L 139.4 170.8 " fill="none" stroke="#FEFFFE" stroke-opacity="0.50" stroke-width="1.00" transform="matrix(1.00, 0.00, 0.00, -1.00, -0.5, 397.3)"></path><path d="M 139.4 170.8 L 389.3 170.8 " fill="none" stroke="#FEFFFE" stroke-opacity="0.50" stroke-width="1.00" transform="matrix(1.00, 0.00, 0.00, -1.00, -0.5, 397.3)"></path><path d="M 139.4 2.0 L 139.4 170.8 " fill="none" stroke="#FEFFFE" stroke-opacity="0.50" stroke-width="4.00" transform="matrix(1.00, 0.00, 0.00, -1.00, -0.5, 397.3)"></path><path d="M 2.0 58.3 L 389.3 58.3 " fill="none" stroke="#FEFFFE" stroke-opacity="0.50" stroke-width="1.00" transform="matrix(1.00, 0.00, 0.00, -1.00, -0.5, 397.3)"></path><path d="M 2.0 2.0 L 2.0 58.3 " fill="none" stroke="#FEFFFE" stroke-opacity="0.50" stroke-width="1.00" transform="matrix(1.00, 0.00, 0.00, -1.00, -0.5, 397.3)"></path><path d="M 2.0 58.3 L 2.0 170.8 " fill="none" stroke="#FEFFFE" stroke-opacity="0.50" stroke-width="1.00" transform="matrix(1.00, 0.00, 0.00, -1.00, -0.5, 397.3)"></path><path d="M 2.0 2.0 L 389.3 2.0 " fill="none" stroke="#FEFFFE" stroke-opacity="0.50" stroke-width="1.00" transform="matrix(1.00, 0.00, 0.00, -1.00, -0.5, 397.3)"></path></g></g><g><clipPath id="clip-526"><path d="M 263.3 339.6 L 389.3 339.6 L 389.3 282.3 L 263.3 282.3 Z M 263.3 339.6 "></path></clipPath><g clip-path="url(#clip-526)"><path d="M 138.9 395.3 L 263.8 395.3 L 263.8 339.1 L 138.9 339.1 Z M 138.9 395.3 " fill="#869ABB"></path><path d="M 263.8 395.3 L 388.8 395.3 L 388.8 339.1 L 263.8 339.1 Z M 263.8 395.3 " fill="#869ABB"></path><path d="M 388.8 395.3 L 513.7 395.3 L 513.7 339.1 L 388.8 339.1 Z M 388.8 395.3 " fill="#869ABB"></path><path d="M 138.9 282.8 L 263.8 282.8 L 263.8 226.5 L 138.9 226.5 Z M 138.9 282.8 " fill="#000000" fill-opacity="0.25"></path><path d="M 263.8 282.8 L 388.8 282.8 L 388.8 226.5 L 263.8 226.5 Z M 263.8 282.8 " fill="#000000" fill-opacity="0.25"></path><path d="M 388.8 282.8 L 513.7 282.8 L 513.7 226.5 L 388.8 226.5 Z M 388.8 282.8 " fill="#000000" fill-opacity="0.25"></path></g></g><image xlink:href="../../D55510CF-6CC6-4C3C-BC8C-B86DBACA13BB/assets/0AC42A1088C98091ED1F4E6A1EB35E36.png" width="19.00" height="23.00" transform="matrix(1.00, 0.00, -0.00, -1.00, 317.0, 320.0)"></image><g><clipPath id="clip-527"><path d="M 263.3 339.6 L 389.3 339.6 L 389.3 282.3 L 263.3 282.3 Z M 263.3 339.6 "></path></clipPath><g clip-path="url(#clip-527)"><g><clipPath id="clip-528"><path d="M 264.3 283.3 L 388.3 283.3 L 388.3 338.6 L 264.3 338.6 Z M 264.3 283.3 "></path></clipPath><g clip-path="url(#clip-528)"><text xml:space="preserve" font-family="Chalkduster" font-size="16.0" fill="#FEFFFE" transform="matrix(1.00, 0.00, -0.00, -1.00, 322.0, 303.0)">2</text></g></g></g></g><g><clipPath id="clip-529"><path d="M 263.3 339.6 L 389.3 339.6 L 389.3 282.3 L 263.3 282.3 Z M 263.3 339.6 "></path></clipPath><g clip-path="url(#clip-529)"><path d="M 264.4 2.0 L 264.4 58.3 " fill="none" stroke="#FEFFFE" stroke-opacity="0.50" stroke-width="1.00" transform="matrix(1.00, 0.00, 0.00, -1.00, -0.5, 397.3)"></path><path d="M 264.4 58.3 L 264.4 170.8 " fill="none" stroke="#FEFFFE" stroke-opacity="0.50" stroke-width="1.00" transform="matrix(1.00, 0.00, 0.00, -1.00, -0.5, 397.3)"></path><path d="M 389.3 2.0 L 389.3 58.3 " fill="none" stroke="#FEFFFE" stroke-opacity="0.50" stroke-width="1.00" transform="matrix(1.00, 0.00, 0.00, -1.00, -0.5, 397.3)"></path><path d="M 389.3 58.3 L 389.3 170.8 " fill="none" stroke="#FEFFFE" stroke-opacity="0.50" stroke-width="1.00" transform="matrix(1.00, 0.00, 0.00, -1.00, -0.5, 397.3)"></path><path d="M 514.3 2.0 L 514.3 170.8 " fill="none" stroke="#FEFFFE" stroke-opacity="0.50" stroke-width="4.00" transform="matrix(1.00, 0.00, 0.00, -1.00, -0.5, 397.3)"></path><path d="M 139.4 114.5 L 514.3 114.5 " fill="none" stroke="#FEFFFE" stroke-opacity="0.50" stroke-width="1.00" transform="matrix(1.00, 0.00, 0.00, -1.00, -0.5, 397.3)"></path><path d="M 139.4 170.8 L 514.3 170.8 " fill="none" stroke="#FEFFFE" stroke-opacity="0.50" stroke-width="1.00" transform="matrix(1.00, 0.00, 0.00, -1.00, -0.5, 397.3)"></path><path d="M 139.4 2.0 L 139.4 170.8 " fill="none" stroke="#FEFFFE" stroke-opacity="0.50" stroke-width="4.00" transform="matrix(1.00, 0.00, 0.00, -1.00, -0.5, 397.3)"></path><path d="M 139.4 58.3 L 514.3 58.3 " fill="none" stroke="#FEFFFE" stroke-opacity="0.50" stroke-width="1.00" transform="matrix(1.00, 0.00, 0.00, -1.00, -0.5, 397.3)"></path><path d="M 139.4 2.0 L 514.3 2.0 " fill="none" stroke="#FEFFFE" stroke-opacity="0.50" stroke-width="1.00" transform="matrix(1.00, 0.00, 0.00, -1.00, -0.5, 397.3)"></path></g></g><g><clipPath id="clip-530"><path d="M 388.3 339.6 L 515.7 339.6 L 515.7 282.3 L 388.3 282.3 Z M 388.3 339.6 "></path></clipPath><g clip-path="url(#clip-530)"><path d="M 263.8 395.3 L 388.8 395.3 L 388.8 339.1 L 263.8 339.1 Z M 263.8 395.3 " fill="#869ABB"></path><path d="M 388.8 395.3 L 513.7 395.3 L 513.7 339.1 L 388.8 339.1 Z M 388.8 395.3 " fill="#869ABB"></path><path d="M 513.7 395.3 L 638.7 395.3 L 638.7 339.1 L 513.7 339.1 Z M 513.7 395.3 " fill="#869ABB"></path><path d="M 263.8 282.8 L 388.8 282.8 L 388.8 226.5 L 263.8 226.5 Z M 263.8 282.8 " fill="#000000" fill-opacity="0.25"></path><path d="M 388.8 282.8 L 513.7 282.8 L 513.7 226.5 L 388.8 226.5 Z M 388.8 282.8 " fill="#000000" fill-opacity="0.25"></path><path d="M 513.7 282.8 L 638.7 282.8 L 638.7 226.5 L 513.7 226.5 Z M 513.7 282.8 " fill="#000000" fill-opacity="0.25"></path></g></g><image xlink:href="../../D55510CF-6CC6-4C3C-BC8C-B86DBACA13BB/assets/1736D47D1B2025C47B146D19CEF54500.png" width="21.00" height="23.00" transform="matrix(1.00, 0.00, -0.00, -1.00, 440.0, 320.0)"></image><g><clipPath id="clip-531"><path d="M 388.3 339.6 L 515.7 339.6 L 515.7 282.3 L 388.3 282.3 Z M 388.3 339.6 "></path></clipPath><g clip-path="url(#clip-531)"><g><clipPath id="clip-532"><path d="M 389.3 283.3 L 511.7 283.3 L 511.7 338.6 L 389.3 338.6 Z M 389.3 283.3 "></path></clipPath><g clip-path="url(#clip-532)"><text xml:space="preserve" font-family="Chalkduster" font-size="16.0" fill="#FEFFFE" transform="matrix(1.00, 0.00, -0.00, -1.00, 445.0, 303.0)">3</text></g></g></g></g><g><clipPath id="clip-533"><path d="M 388.3 339.6 L 515.7 339.6 L 515.7 282.3 L 388.3 282.3 Z M 388.3 339.6 "></path></clipPath><g clip-path="url(#clip-533)"><path d="M 264.4 2.0 L 264.4 58.3 " fill="none" stroke="#FEFFFE" stroke-opacity="0.50" stroke-width="1.00" transform="matrix(1.00, 0.00, 0.00, -1.00, -0.5, 397.3)"></path><path d="M 264.4 58.3 L 264.4 170.8 " fill="none" stroke="#FEFFFE" stroke-opacity="0.50" stroke-width="1.00" transform="matrix(1.00, 0.00, 0.00, -1.00, -0.5, 397.3)"></path><path d="M 389.3 2.0 L 389.3 58.3 " fill="none" stroke="#FEFFFE" stroke-opacity="0.50" stroke-width="1.00" transform="matrix(1.00, 0.00, 0.00, -1.00, -0.5, 397.3)"></path><path d="M 389.3 58.3 L 389.3 170.8 " fill="none" stroke="#FEFFFE" stroke-opacity="0.50" stroke-width="1.00" transform="matrix(1.00, 0.00, 0.00, -1.00, -0.5, 397.3)"></path><path d="M 514.3 2.0 L 514.3 170.8 " fill="none" stroke="#FEFFFE" stroke-opacity="0.50" stroke-width="4.00" transform="matrix(1.00, 0.00, 0.00, -1.00, -0.5, 397.3)"></path><path d="M 639.2 2.0 L 639.2 58.3 " fill="none" stroke="#FEFFFE" stroke-opacity="0.50" stroke-width="1.00" transform="matrix(1.00, 0.00, 0.00, -1.00, -0.5, 397.3)"></path><path d="M 639.2 58.3 L 639.2 170.8 " fill="none" stroke="#FEFFFE" stroke-opacity="0.50" stroke-width="1.00" transform="matrix(1.00, 0.00, 0.00, -1.00, -0.5, 397.3)"></path><path d="M 264.4 114.5 L 639.2 114.5 " fill="none" stroke="#FEFFFE" stroke-opacity="0.50" stroke-width="1.00" transform="matrix(1.00, 0.00, 0.00, -1.00, -0.5, 397.3)"></path><path d="M 264.4 170.8 L 639.2 170.8 " fill="none" stroke="#FEFFFE" stroke-opacity="0.50" stroke-width="1.00" transform="matrix(1.00, 0.00, 0.00, -1.00, -0.5, 397.3)"></path><path d="M 264.4 58.3 L 639.2 58.3 " fill="none" stroke="#FEFFFE" stroke-opacity="0.50" stroke-width="1.00" transform="matrix(1.00, 0.00, 0.00, -1.00, -0.5, 397.3)"></path><path d="M 264.4 2.0 L 639.2 2.0 " fill="none" stroke="#FEFFFE" stroke-opacity="0.50" stroke-width="1.00" transform="matrix(1.00, 0.00, 0.00, -1.00, -0.5, 397.3)"></path></g></g><g><clipPath id="clip-534"><path d="M 511.7 339.6 L 639.2 339.6 L 639.2 282.3 L 511.7 282.3 Z M 511.7 339.6 "></path></clipPath><g clip-path="url(#clip-534)"><path d="M 388.8 395.3 L 513.7 395.3 L 513.7 339.1 L 388.8 339.1 Z M 388.8 395.3 " fill="#869ABB"></path><path d="M 513.7 395.3 L 638.7 395.3 L 638.7 339.1 L 513.7 339.1 Z M 513.7 395.3 " fill="#869ABB"></path><path d="M 638.7 395.3 L 763.6 395.3 L 763.6 339.1 L 638.7 339.1 Z M 638.7 395.3 " fill="#869ABB"></path><path d="M 388.8 282.8 L 513.7 282.8 L 513.7 226.5 L 388.8 226.5 Z M 388.8 282.8 " fill="#000000" fill-opacity="0.25"></path><path d="M 513.7 282.8 L 638.7 282.8 L 638.7 226.5 L 513.7 226.5 Z M 513.7 282.8 " fill="#000000" fill-opacity="0.25"></path><path d="M 638.7 282.8 L 763.6 282.8 L 763.6 226.5 L 638.7 226.5 Z M 638.7 282.8 " fill="#000000" fill-opacity="0.25"></path></g></g><g><clipPath id="clip-535"><path d="M 511.7 339.6 L 639.2 339.6 L 639.2 282.3 L 511.7 282.3 Z M 511.7 339.6 "></path></clipPath><g clip-path="url(#clip-535)"><path d="M 389.3 2.0 L 389.3 58.3 " fill="none" stroke="#FEFFFE" stroke-opacity="0.50" stroke-width="1.00" transform="matrix(1.00, 0.00, 0.00, -1.00, -0.5, 397.3)"></path><path d="M 389.3 58.3 L 389.3 170.8 " fill="none" stroke="#FEFFFE" stroke-opacity="0.50" stroke-width="1.00" transform="matrix(1.00, 0.00, 0.00, -1.00, -0.5, 397.3)"></path><path d="M 514.3 2.0 L 514.3 170.8 " fill="none" stroke="#FEFFFE" stroke-opacity="0.50" stroke-width="4.00" transform="matrix(1.00, 0.00, 0.00, -1.00, -0.5, 397.3)"></path><path d="M 639.2 2.0 L 639.2 58.3 " fill="none" stroke="#FEFFFE" stroke-opacity="0.50" stroke-width="1.00" transform="matrix(1.00, 0.00, 0.00, -1.00, -0.5, 397.3)"></path><path d="M 639.2 58.3 L 639.2 170.8 " fill="none" stroke="#FEFFFE" stroke-opacity="0.50" stroke-width="1.00" transform="matrix(1.00, 0.00, 0.00, -1.00, -0.5, 397.3)"></path><path d="M 764.1 2.0 L 764.1 58.3 " fill="none" stroke="#FEFFFE" stroke-opacity="0.50" stroke-width="1.00" transform="matrix(1.00, 0.00, 0.00, -1.00, -0.5, 397.3)"></path><path d="M 764.1 58.3 L 764.1 170.8 " fill="none" stroke="#FEFFFE" stroke-opacity="0.50" stroke-width="1.00" transform="matrix(1.00, 0.00, 0.00, -1.00, -0.5, 397.3)"></path><path d="M 389.3 114.5 L 764.1 114.5 " fill="none" stroke="#FEFFFE" stroke-opacity="0.50" stroke-width="1.00" transform="matrix(1.00, 0.00, 0.00, -1.00, -0.5, 397.3)"></path><path d="M 389.3 170.8 L 764.1 170.8 " fill="none" stroke="#FEFFFE" stroke-opacity="0.50" stroke-width="1.00" transform="matrix(1.00, 0.00, 0.00, -1.00, -0.5, 397.3)"></path><path d="M 389.3 58.3 L 764.1 58.3 " fill="none" stroke="#FEFFFE" stroke-opacity="0.50" stroke-width="1.00" transform="matrix(1.00, 0.00, 0.00, -1.00, -0.5, 397.3)"></path><path d="M 389.3 2.0 L 764.1 2.0 " fill="none" stroke="#FEFFFE" stroke-opacity="0.50" stroke-width="1.00" transform="matrix(1.00, 0.00, 0.00, -1.00, -0.5, 397.3)"></path></g></g><g><clipPath id="clip-536"><path d="M 638.2 339.6 L 764.1 339.6 L 764.1 282.3 L 638.2 282.3 Z M 638.2 339.6 "></path></clipPath><g clip-path="url(#clip-536)"><path d="M 513.7 395.3 L 638.7 395.3 L 638.7 339.1 L 513.7 339.1 Z M 513.7 395.3 " fill="#869ABB"></path><path d="M 638.7 395.3 L 763.6 395.3 L 763.6 339.1 L 638.7 339.1 Z M 638.7 395.3 " fill="#869ABB"></path><path d="M 763.6 395.3 L 888.5 395.3 L 888.5 339.1 L 763.6 339.1 Z M 763.6 395.3 " fill="#869ABB"></path><path d="M 513.7 282.8 L 638.7 282.8 L 638.7 226.5 L 513.7 226.5 Z M 513.7 282.8 " fill="#000000" fill-opacity="0.25"></path><path d="M 638.7 282.8 L 763.6 282.8 L 763.6 226.5 L 638.7 226.5 Z M 638.7 282.8 " fill="#000000" fill-opacity="0.25"></path><path d="M 763.6 282.8 L 888.5 282.8 L 888.5 226.5 L 763.6 226.5 Z M 763.6 282.8 " fill="#000000" fill-opacity="0.25"></path></g></g><g><clipPath id="clip-537"><path d="M 638.2 339.6 L 764.1 339.6 L 764.1 282.3 L 638.2 282.3 Z M 638.2 339.6 "></path></clipPath><g clip-path="url(#clip-537)"><path d="M 514.3 2.0 L 514.3 170.8 " fill="none" stroke="#FEFFFE" stroke-opacity="0.50" stroke-width="4.00" transform="matrix(1.00, 0.00, 0.00, -1.00, -0.5, 397.3)"></path><path d="M 639.2 2.0 L 639.2 58.3 " fill="none" stroke="#FEFFFE" stroke-opacity="0.50" stroke-width="1.00" transform="matrix(1.00, 0.00, 0.00, -1.00, -0.5, 397.3)"></path><path d="M 639.2 58.3 L 639.2 170.8 " fill="none" stroke="#FEFFFE" stroke-opacity="0.50" stroke-width="1.00" transform="matrix(1.00, 0.00, 0.00, -1.00, -0.5, 397.3)"></path><path d="M 764.1 2.0 L 764.1 58.3 " fill="none" stroke="#FEFFFE" stroke-opacity="0.50" stroke-width="1.00" transform="matrix(1.00, 0.00, 0.00, -1.00, -0.5, 397.3)"></path><path d="M 764.1 58.3 L 764.1 170.8 " fill="none" stroke="#FEFFFE" stroke-opacity="0.50" stroke-width="1.00" transform="matrix(1.00, 0.00, 0.00, -1.00, -0.5, 397.3)"></path><path d="M 514.3 114.5 L 889.1 114.5 " fill="none" stroke="#FEFFFE" stroke-opacity="0.50" stroke-width="1.00" transform="matrix(1.00, 0.00, 0.00, -1.00, -0.5, 397.3)"></path><path d="M 514.3 170.8 L 889.1 170.8 " fill="none" stroke="#FEFFFE" stroke-opacity="0.50" stroke-width="1.00" transform="matrix(1.00, 0.00, 0.00, -1.00, -0.5, 397.3)"></path><path d="M 514.3 58.3 L 889.1 58.3 " fill="none" stroke="#FEFFFE" stroke-opacity="0.50" stroke-width="1.00" transform="matrix(1.00, 0.00, 0.00, -1.00, -0.5, 397.3)"></path><path d="M 889.1 2.0 L 889.1 58.3 " fill="none" stroke="#FEFFFE" stroke-opacity="0.50" stroke-width="1.00" transform="matrix(1.00, 0.00, 0.00, -1.00, -0.5, 397.3)"></path><path d="M 889.1 58.3 L 889.1 170.8 " fill="none" stroke="#FEFFFE" stroke-opacity="0.50" stroke-width="1.00" transform="matrix(1.00, 0.00, 0.00, -1.00, -0.5, 397.3)"></path><path d="M 514.3 2.0 L 889.1 2.0 " fill="none" stroke="#FEFFFE" stroke-opacity="0.50" stroke-width="1.00" transform="matrix(1.00, 0.00, 0.00, -1.00, -0.5, 397.3)"></path></g></g><g><clipPath id="clip-538"><path d="M 763.1 339.6 L 889.0 339.6 L 889.0 282.3 L 763.1 282.3 Z M 763.1 339.6 "></path></clipPath><g clip-path="url(#clip-538)"><path d="M 638.7 395.3 L 763.6 395.3 L 763.6 339.1 L 638.7 339.1 Z M 638.7 395.3 " fill="#869ABB"></path><path d="M 763.6 395.3 L 888.5 395.3 L 888.5 339.1 L 763.6 339.1 Z M 763.6 395.3 " fill="#869ABB"></path><path d="M 638.7 282.8 L 763.6 282.8 L 763.6 226.5 L 638.7 226.5 Z M 638.7 282.8 " fill="#000000" fill-opacity="0.25"></path><path d="M 763.6 282.8 L 888.5 282.8 L 888.5 226.5 L 763.6 226.5 Z M 763.6 282.8 " fill="#000000" fill-opacity="0.25"></path></g></g><g><clipPath id="clip-539"><path d="M 763.1 339.6 L 889.0 339.6 L 889.0 282.3 L 763.1 282.3 Z M 763.1 339.6 "></path></clipPath><g clip-path="url(#clip-539)"><path d="M 639.2 2.0 L 639.2 58.3 " fill="none" stroke="#FEFFFE" stroke-opacity="0.50" stroke-width="1.00" transform="matrix(1.00, 0.00, 0.00, -1.00, -0.5, 397.3)"></path><path d="M 639.2 58.3 L 639.2 170.8 " fill="none" stroke="#FEFFFE" stroke-opacity="0.50" stroke-width="1.00" transform="matrix(1.00, 0.00, 0.00, -1.00, -0.5, 397.3)"></path><path d="M 764.1 2.0 L 764.1 58.3 " fill="none" stroke="#FEFFFE" stroke-opacity="0.50" stroke-width="1.00" transform="matrix(1.00, 0.00, 0.00, -1.00, -0.5, 397.3)"></path><path d="M 764.1 58.3 L 764.1 170.8 " fill="none" stroke="#FEFFFE" stroke-opacity="0.50" stroke-width="1.00" transform="matrix(1.00, 0.00, 0.00, -1.00, -0.5, 397.3)"></path><path d="M 639.2 114.5 L 889.6 114.5 " fill="none" stroke="#FEFFFE" stroke-opacity="0.50" stroke-width="1.00" transform="matrix(1.00, 0.00, 0.00, -1.00, -0.5, 397.3)"></path><path d="M 639.2 170.8 L 889.1 170.8 " fill="none" stroke="#FEFFFE" stroke-opacity="0.50" stroke-width="1.00" transform="matrix(1.00, 0.00, 0.00, -1.00, -0.5, 397.3)"></path><path d="M 639.2 58.3 L 889.6 58.3 " fill="none" stroke="#FEFFFE" stroke-opacity="0.50" stroke-width="1.00" transform="matrix(1.00, 0.00, 0.00, -1.00, -0.5, 397.3)"></path><path d="M 889.1 2.0 L 889.1 58.3 " fill="none" stroke="#FEFFFE" stroke-opacity="0.50" stroke-width="1.00" transform="matrix(1.00, 0.00, 0.00, -1.00, -0.5, 397.3)"></path><path d="M 889.1 58.3 L 889.1 170.8 " fill="none" stroke="#FEFFFE" stroke-opacity="0.50" stroke-width="1.00" transform="matrix(1.00, 0.00, 0.00, -1.00, -0.5, 397.3)"></path><path d="M 639.2 2.0 L 889.1 2.0 " fill="none" stroke="#FEFFFE" stroke-opacity="0.50" stroke-width="1.00" transform="matrix(1.00, 0.00, 0.00, -1.00, -0.5, 397.3)"></path></g></g><g><clipPath id="clip-540"><path d="M 1.0 283.3 L 140.9 283.3 L 140.9 226.0 L 1.0 226.0 Z M 1.0 283.3 "></path></clipPath><g clip-path="url(#clip-540)"><path d="M 1.5 339.1 L 138.9 339.1 L 138.9 282.8 L 1.5 282.8 Z M 1.5 339.1 " fill="#869ABB"></path><path d="M 1.5 282.8 L 138.9 282.8 L 138.9 226.5 L 1.5 226.5 Z M 1.5 282.8 " fill="#869ABB"></path><path d="M 138.9 282.8 L 263.8 282.8 L 263.8 226.5 L 138.9 226.5 Z M 138.9 282.8 " fill="#000000" fill-opacity="0.25"></path><path d="M 1.5 226.5 L 138.9 226.5 L 138.9 170.3 L 1.5 170.3 Z M 1.5 226.5 " fill="#869ABB"></path></g></g><image xlink:href="../../D55510CF-6CC6-4C3C-BC8C-B86DBACA13BB/assets/3C80A8BCCCB95E9B8D9647BBF8186780.png" width="131.00" height="32.00" transform="matrix(1.00, 0.00, -0.00, -1.00, 6.0, 265.0)"></image><g><clipPath id="clip-541"><path d="M 1.0 283.3 L 140.9 283.3 L 140.9 226.0 L 1.0 226.0 Z M 1.0 283.3 "></path></clipPath><g clip-path="url(#clip-541)"><g><clipPath id="clip-542"><path d="M 2.0 227.0 L 136.9 227.0 L 136.9 282.3 L 2.0 282.3 Z M 2.0 227.0 "></path></clipPath><g clip-path="url(#clip-542)"><text xml:space="preserve" font-family="Chalkduster" font-size="16.0" fill="#FEFFFE" transform="matrix(1.00, 0.00, -0.00, -1.00, 10.4, 247.0)">m</text><text xml:space="preserve" font-family="Chalkduster" font-size="16.0" fill="#FEFFFE" transform="matrix(1.00, 0.00, -0.00, -1.00, 27.1, 247.0)">m</text><text xml:space="preserve" font-family="Chalkduster" font-size="16.0" fill="#FEFFFE" transform="matrix(1.00, 0.00, -0.00, -1.00, 43.3, 247.0)">2</text><text xml:space="preserve" font-family="Chalkduster" font-size="16.0" fill="#FEFFFE" transform="matrix(1.00, 0.00, -0.00, -1.00, 52.3, 247.0)">-</text><text xml:space="preserve" font-family="Chalkduster" font-size="16.0" fill="#FEFFFE" transform="matrix(1.00, 0.00, -0.00, -1.00, 62.0, 247.0)">e</text><text xml:space="preserve" font-family="Chalkduster" font-size="16.0" fill="#FEFFFE" transform="matrix(1.00, 0.00, -0.00, -1.00, 72.1, 247.0)">p</text><text xml:space="preserve" font-family="Chalkduster" font-size="16.0" fill="#FEFFFE" transform="matrix(1.00, 0.00, -0.00, -1.00, 82.2, 247.0)">o</text><text xml:space="preserve" font-family="Chalkduster" font-size="16.0" fill="#FEFFFE" transform="matrix(1.00, 0.00, -0.00, -1.00, 94.2, 247.0)">u</text><text xml:space="preserve" font-family="Chalkduster" font-size="16.0" fill="#FEFFFE" transform="matrix(1.00, 0.00, -0.00, -1.00, 105.0, 247.0)">t</text><text xml:space="preserve" font-family="Chalkduster" font-size="16.0" fill="#FEFFFE" transform="matrix(1.00, 0.00, -0.00, -1.00, 112.2, 247.0)">a</text><text xml:space="preserve" font-family="Chalkduster" font-size="16.0" fill="#FEFFFE" transform="matrix(1.00, 0.00, -0.00, -1.00, 123.2, 247.0)">1</text></g></g></g></g><g><clipPath id="clip-543"><path d="M 1.0 283.3 L 140.9 283.3 L 140.9 226.0 L 1.0 226.0 Z M 1.0 283.3 "></path></clipPath><g clip-path="url(#clip-543)"><path d="M 264.4 58.3 L 264.4 227.1 " fill="none" stroke="#FEFFFE" stroke-opacity="0.50" stroke-width="1.00" transform="matrix(1.00, 0.00, 0.00, -1.00, -0.5, 397.3)"></path><path d="M 1.5 114.5 L 139.4 114.5 " fill="none" stroke="#FEFFFE" stroke-opacity="0.50" stroke-width="1.00" transform="matrix(1.00, 0.00, 0.00, -1.00, -0.5, 397.3)"></path><path d="M 139.4 114.5 L 264.4 114.5 " fill="none" stroke="#FEFFFE" stroke-opacity="0.50" stroke-width="1.00" transform="matrix(1.00, 0.00, 0.00, -1.00, -0.5, 397.3)"></path><path d="M 1.5 170.8 L 139.4 170.8 " fill="none" stroke="#FEFFFE" stroke-opacity="0.50" stroke-width="1.00" transform="matrix(1.00, 0.00, 0.00, -1.00, -0.5, 397.3)"></path><path d="M 139.4 170.8 L 264.4 170.8 " fill="none" stroke="#FEFFFE" stroke-opacity="0.50" stroke-width="1.00" transform="matrix(1.00, 0.00, 0.00, -1.00, -0.5, 397.3)"></path><path d="M 2.0 227.1 L 139.4 227.1 " fill="none" stroke="#FEFFFE" stroke-opacity="0.50" stroke-width="1.00" transform="matrix(1.00, 0.00, 0.00, -1.00, -0.5, 397.3)"></path><path d="M 139.4 227.1 L 264.4 227.1 " fill="none" stroke="#FEFFFE" stroke-opacity="0.50" stroke-width="1.00" transform="matrix(1.00, 0.00, 0.00, -1.00, -0.5, 397.3)"></path><path d="M 139.4 58.3 L 139.4 227.1 " fill="none" stroke="#FEFFFE" stroke-opacity="0.50" stroke-width="4.00" transform="matrix(1.00, 0.00, 0.00, -1.00, -0.5, 397.3)"></path><path d="M 2.0 58.3 L 264.4 58.3 " fill="none" stroke="#FEFFFE" stroke-opacity="0.50" stroke-width="1.00" transform="matrix(1.00, 0.00, 0.00, -1.00, -0.5, 397.3)"></path><path d="M 2.0 58.3 L 2.0 227.1 " fill="none" stroke="#FEFFFE" stroke-opacity="0.50" stroke-width="1.00" transform="matrix(1.00, 0.00, 0.00, -1.00, -0.5, 397.3)"></path></g></g><g><clipPath id="clip-544"><path d="M 136.9 283.3 L 264.3 283.3 L 264.3 226.0 L 136.9 226.0 Z M 136.9 283.3 "></path></clipPath><g clip-path="url(#clip-544)"><path d="M 1.5 339.1 L 138.9 339.1 L 138.9 282.8 L 1.5 282.8 Z M 1.5 339.1 " fill="#869ABB"></path><path d="M 1.5 282.8 L 138.9 282.8 L 138.9 226.5 L 1.5 226.5 Z M 1.5 282.8 " fill="#869ABB"></path><path d="M 138.9 282.8 L 263.8 282.8 L 263.8 226.5 L 138.9 226.5 Z M 138.9 282.8 " fill="#000000" fill-opacity="0.25"></path><path d="M 263.8 282.8 L 388.8 282.8 L 388.8 226.5 L 263.8 226.5 Z M 263.8 282.8 " fill="#000000" fill-opacity="0.25"></path><path d="M 1.5 226.5 L 138.9 226.5 L 138.9 170.3 L 1.5 170.3 Z M 1.5 226.5 " fill="#869ABB"></path></g></g><image xlink:href="../../D55510CF-6CC6-4C3C-BC8C-B86DBACA13BB/assets/5CF07A188BC6F9A92C473C7CB6E206F3.png" width="18.00" height="23.00" transform="matrix(1.00, 0.00, -0.00, -1.00, 193.0, 264.0)"></image><g><clipPath id="clip-545"><path d="M 136.9 283.3 L 264.3 283.3 L 264.3 226.0 L 136.9 226.0 Z M 136.9 283.3 "></path></clipPath><g clip-path="url(#clip-545)"><g><clipPath id="clip-546"><path d="M 140.9 227.0 L 263.3 227.0 L 263.3 282.3 L 140.9 282.3 Z M 140.9 227.0 "></path></clipPath><g clip-path="url(#clip-546)"><text xml:space="preserve" font-family="Chalkduster" font-size="16.0" fill="#FEFFFE" transform="matrix(1.00, 0.00, -0.00, -1.00, 197.0, 247.0)">1</text></g></g></g></g><g><clipPath id="clip-547"><path d="M 136.9 283.3 L 264.3 283.3 L 264.3 226.0 L 136.9 226.0 Z M 136.9 283.3 "></path></clipPath><g clip-path="url(#clip-547)"><path d="M 264.4 58.3 L 264.4 227.1 " fill="none" stroke="#FEFFFE" stroke-opacity="0.50" stroke-width="1.00" transform="matrix(1.00, 0.00, 0.00, -1.00, -0.5, 397.3)"></path><path d="M 389.3 58.3 L 389.3 227.1 " fill="none" stroke="#FEFFFE" stroke-opacity="0.50" stroke-width="1.00" transform="matrix(1.00, 0.00, 0.00, -1.00, -0.5, 397.3)"></path><path d="M 2.0 114.5 L 139.4 114.5 " fill="none" stroke="#FEFFFE" stroke-opacity="0.50" stroke-width="1.00" transform="matrix(1.00, 0.00, 0.00, -1.00, -0.5, 397.3)"></path><path d="M 139.4 114.5 L 389.3 114.5 " fill="none" stroke="#FEFFFE" stroke-opacity="0.50" stroke-width="1.00" transform="matrix(1.00, 0.00, 0.00, -1.00, -0.5, 397.3)"></path><path d="M 2.0 170.8 L 139.4 170.8 " fill="none" stroke="#FEFFFE" stroke-opacity="0.50" stroke-width="1.00" transform="matrix(1.00, 0.00, 0.00, -1.00, -0.5, 397.3)"></path><path d="M 139.4 170.8 L 389.3 170.8 " fill="none" stroke="#FEFFFE" stroke-opacity="0.50" stroke-width="1.00" transform="matrix(1.00, 0.00, 0.00, -1.00, -0.5, 397.3)"></path><path d="M 2.0 227.1 L 139.4 227.1 " fill="none" stroke="#FEFFFE" stroke-opacity="0.50" stroke-width="1.00" transform="matrix(1.00, 0.00, 0.00, -1.00, -0.5, 397.3)"></path><path d="M 139.4 227.1 L 389.3 227.1 " fill="none" stroke="#FEFFFE" stroke-opacity="0.50" stroke-width="1.00" transform="matrix(1.00, 0.00, 0.00, -1.00, -0.5, 397.3)"></path><path d="M 139.4 58.3 L 139.4 227.1 " fill="none" stroke="#FEFFFE" stroke-opacity="0.50" stroke-width="4.00" transform="matrix(1.00, 0.00, 0.00, -1.00, -0.5, 397.3)"></path><path d="M 2.0 58.3 L 389.3 58.3 " fill="none" stroke="#FEFFFE" stroke-opacity="0.50" stroke-width="1.00" transform="matrix(1.00, 0.00, 0.00, -1.00, -0.5, 397.3)"></path><path d="M 2.0 58.3 L 2.0 227.1 " fill="none" stroke="#FEFFFE" stroke-opacity="0.50" stroke-width="1.00" transform="matrix(1.00, 0.00, 0.00, -1.00, -0.5, 397.3)"></path></g></g><g><clipPath id="clip-548"><path d="M 263.3 283.3 L 389.3 283.3 L 389.3 226.0 L 263.3 226.0 Z M 263.3 283.3 "></path></clipPath><g clip-path="url(#clip-548)"><path d="M 138.9 282.8 L 263.8 282.8 L 263.8 226.5 L 138.9 226.5 Z M 138.9 282.8 " fill="#000000" fill-opacity="0.25"></path><path d="M 263.8 282.8 L 388.8 282.8 L 388.8 226.5 L 263.8 226.5 Z M 263.8 282.8 " fill="#000000" fill-opacity="0.25"></path><path d="M 388.8 282.8 L 513.7 282.8 L 513.7 226.5 L 388.8 226.5 Z M 388.8 282.8 " fill="#000000" fill-opacity="0.25"></path></g></g><image xlink:href="../../D55510CF-6CC6-4C3C-BC8C-B86DBACA13BB/assets/0AC42A1088C98091ED1F4E6A1EB35E36.png" width="19.00" height="23.00" transform="matrix(1.00, 0.00, -0.00, -1.00, 317.0, 264.0)"></image><g><clipPath id="clip-549"><path d="M 263.3 283.3 L 389.3 283.3 L 389.3 226.0 L 263.3 226.0 Z M 263.3 283.3 "></path></clipPath><g clip-path="url(#clip-549)"><g><clipPath id="clip-550"><path d="M 264.3 227.0 L 388.3 227.0 L 388.3 282.3 L 264.3 282.3 Z M 264.3 227.0 "></path></clipPath><g clip-path="url(#clip-550)"><text xml:space="preserve" font-family="Chalkduster" font-size="16.0" fill="#FEFFFE" transform="matrix(1.00, 0.00, -0.00, -1.00, 322.0, 247.0)">2</text></g></g></g></g><g><clipPath id="clip-551"><path d="M 263.3 283.3 L 389.3 283.3 L 389.3 226.0 L 263.3 226.0 Z M 263.3 283.3 "></path></clipPath><g clip-path="url(#clip-551)"><path d="M 264.4 58.3 L 264.4 227.1 " fill="none" stroke="#FEFFFE" stroke-opacity="0.50" stroke-width="1.00" transform="matrix(1.00, 0.00, 0.00, -1.00, -0.5, 397.3)"></path><path d="M 389.3 58.3 L 389.3 227.1 " fill="none" stroke="#FEFFFE" stroke-opacity="0.50" stroke-width="1.00" transform="matrix(1.00, 0.00, 0.00, -1.00, -0.5, 397.3)"></path><path d="M 514.3 58.3 L 514.3 227.1 " fill="none" stroke="#FEFFFE" stroke-opacity="0.50" stroke-width="4.00" transform="matrix(1.00, 0.00, 0.00, -1.00, -0.5, 397.3)"></path><path d="M 139.4 114.5 L 514.3 114.5 " fill="none" stroke="#FEFFFE" stroke-opacity="0.50" stroke-width="1.00" transform="matrix(1.00, 0.00, 0.00, -1.00, -0.5, 397.3)"></path><path d="M 139.4 170.8 L 514.3 170.8 " fill="none" stroke="#FEFFFE" stroke-opacity="0.50" stroke-width="1.00" transform="matrix(1.00, 0.00, 0.00, -1.00, -0.5, 397.3)"></path><path d="M 139.4 227.1 L 514.3 227.1 " fill="none" stroke="#FEFFFE" stroke-opacity="0.50" stroke-width="1.00" transform="matrix(1.00, 0.00, 0.00, -1.00, -0.5, 397.3)"></path><path d="M 139.4 58.3 L 139.4 227.1 " fill="none" stroke="#FEFFFE" stroke-opacity="0.50" stroke-width="4.00" transform="matrix(1.00, 0.00, 0.00, -1.00, -0.5, 397.3)"></path><path d="M 139.4 58.3 L 514.3 58.3 " fill="none" stroke="#FEFFFE" stroke-opacity="0.50" stroke-width="1.00" transform="matrix(1.00, 0.00, 0.00, -1.00, -0.5, 397.3)"></path></g></g><g><clipPath id="clip-552"><path d="M 388.3 283.3 L 515.7 283.3 L 515.7 226.0 L 388.3 226.0 Z M 388.3 283.3 "></path></clipPath><g clip-path="url(#clip-552)"><path d="M 263.8 282.8 L 388.8 282.8 L 388.8 226.5 L 263.8 226.5 Z M 263.8 282.8 " fill="#000000" fill-opacity="0.25"></path><path d="M 388.8 282.8 L 513.7 282.8 L 513.7 226.5 L 388.8 226.5 Z M 388.8 282.8 " fill="#000000" fill-opacity="0.25"></path><path d="M 513.7 282.8 L 638.7 282.8 L 638.7 226.5 L 513.7 226.5 Z M 513.7 282.8 " fill="#000000" fill-opacity="0.25"></path></g></g><g><clipPath id="clip-553"><path d="M 388.3 283.3 L 515.7 283.3 L 515.7 226.0 L 388.3 226.0 Z M 388.3 283.3 "></path></clipPath><g clip-path="url(#clip-553)"><path d="M 264.4 58.3 L 264.4 227.1 " fill="none" stroke="#FEFFFE" stroke-opacity="0.50" stroke-width="1.00" transform="matrix(1.00, 0.00, 0.00, -1.00, -0.5, 397.3)"></path><path d="M 389.3 58.3 L 389.3 227.1 " fill="none" stroke="#FEFFFE" stroke-opacity="0.50" stroke-width="1.00" transform="matrix(1.00, 0.00, 0.00, -1.00, -0.5, 397.3)"></path><path d="M 514.3 58.3 L 514.3 227.1 " fill="none" stroke="#FEFFFE" stroke-opacity="0.50" stroke-width="4.00" transform="matrix(1.00, 0.00, 0.00, -1.00, -0.5, 397.3)"></path><path d="M 639.2 58.3 L 639.2 227.1 " fill="none" stroke="#FEFFFE" stroke-opacity="0.50" stroke-width="1.00" transform="matrix(1.00, 0.00, 0.00, -1.00, -0.5, 397.3)"></path><path d="M 264.4 114.5 L 639.2 114.5 " fill="none" stroke="#FEFFFE" stroke-opacity="0.50" stroke-width="1.00" transform="matrix(1.00, 0.00, 0.00, -1.00, -0.5, 397.3)"></path><path d="M 264.4 170.8 L 639.2 170.8 " fill="none" stroke="#FEFFFE" stroke-opacity="0.50" stroke-width="1.00" transform="matrix(1.00, 0.00, 0.00, -1.00, -0.5, 397.3)"></path><path d="M 264.4 227.1 L 639.2 227.1 " fill="none" stroke="#FEFFFE" stroke-opacity="0.50" stroke-width="1.00" transform="matrix(1.00, 0.00, 0.00, -1.00, -0.5, 397.3)"></path><path d="M 264.4 58.3 L 639.2 58.3 " fill="none" stroke="#FEFFFE" stroke-opacity="0.50" stroke-width="1.00" transform="matrix(1.00, 0.00, 0.00, -1.00, -0.5, 397.3)"></path></g></g><g><clipPath id="clip-554"><path d="M 511.7 283.3 L 639.2 283.3 L 639.2 226.0 L 511.7 226.0 Z M 511.7 283.3 "></path></clipPath><g clip-path="url(#clip-554)"><path d="M 388.8 282.8 L 513.7 282.8 L 513.7 226.5 L 388.8 226.5 Z M 388.8 282.8 " fill="#000000" fill-opacity="0.25"></path><path d="M 513.7 282.8 L 638.7 282.8 L 638.7 226.5 L 513.7 226.5 Z M 513.7 282.8 " fill="#000000" fill-opacity="0.25"></path><path d="M 638.7 282.8 L 763.6 282.8 L 763.6 226.5 L 638.7 226.5 Z M 638.7 282.8 " fill="#000000" fill-opacity="0.25"></path></g></g><image xlink:href="../../D55510CF-6CC6-4C3C-BC8C-B86DBACA13BB/assets/1736D47D1B2025C47B146D19CEF54500.png" width="21.00" height="23.00" transform="matrix(1.00, 0.00, -0.00, -1.00, 566.0, 264.0)"></image><g><clipPath id="clip-555"><path d="M 511.7 283.3 L 639.2 283.3 L 639.2 226.0 L 511.7 226.0 Z M 511.7 283.3 "></path></clipPath><g clip-path="url(#clip-555)"><g><clipPath id="clip-556"><path d="M 515.7 227.0 L 638.2 227.0 L 638.2 282.3 L 515.7 282.3 Z M 515.7 227.0 "></path></clipPath><g clip-path="url(#clip-556)"><text xml:space="preserve" font-family="Chalkduster" font-size="16.0" fill="#FEFFFE" transform="matrix(1.00, 0.00, -0.00, -1.00, 571.0, 247.0)">3</text></g></g></g></g><g><clipPath id="clip-557"><path d="M 511.7 283.3 L 639.2 283.3 L 639.2 226.0 L 511.7 226.0 Z M 511.7 283.3 "></path></clipPath><g clip-path="url(#clip-557)"><path d="M 389.3 58.3 L 389.3 227.1 " fill="none" stroke="#FEFFFE" stroke-opacity="0.50" stroke-width="1.00" transform="matrix(1.00, 0.00, 0.00, -1.00, -0.5, 397.3)"></path><path d="M 514.3 58.3 L 514.3 227.1 " fill="none" stroke="#FEFFFE" stroke-opacity="0.50" stroke-width="4.00" transform="matrix(1.00, 0.00, 0.00, -1.00, -0.5, 397.3)"></path><path d="M 639.2 58.3 L 639.2 227.1 " fill="none" stroke="#FEFFFE" stroke-opacity="0.50" stroke-width="1.00" transform="matrix(1.00, 0.00, 0.00, -1.00, -0.5, 397.3)"></path><path d="M 764.1 58.3 L 764.1 227.1 " fill="none" stroke="#FEFFFE" stroke-opacity="0.50" stroke-width="1.00" transform="matrix(1.00, 0.00, 0.00, -1.00, -0.5, 397.3)"></path><path d="M 389.3 114.5 L 764.1 114.5 " fill="none" stroke="#FEFFFE" stroke-opacity="0.50" stroke-width="1.00" transform="matrix(1.00, 0.00, 0.00, -1.00, -0.5, 397.3)"></path><path d="M 389.3 170.8 L 764.1 170.8 " fill="none" stroke="#FEFFFE" stroke-opacity="0.50" stroke-width="1.00" transform="matrix(1.00, 0.00, 0.00, -1.00, -0.5, 397.3)"></path><path d="M 389.3 227.1 L 764.1 227.1 " fill="none" stroke="#FEFFFE" stroke-opacity="0.50" stroke-width="1.00" transform="matrix(1.00, 0.00, 0.00, -1.00, -0.5, 397.3)"></path><path d="M 389.3 58.3 L 764.1 58.3 " fill="none" stroke="#FEFFFE" stroke-opacity="0.50" stroke-width="1.00" transform="matrix(1.00, 0.00, 0.00, -1.00, -0.5, 397.3)"></path></g></g><g><clipPath id="clip-558"><path d="M 638.2 283.3 L 764.1 283.3 L 764.1 226.0 L 638.2 226.0 Z M 638.2 283.3 "></path></clipPath><g clip-path="url(#clip-558)"><path d="M 513.7 282.8 L 638.7 282.8 L 638.7 226.5 L 513.7 226.5 Z M 513.7 282.8 " fill="#000000" fill-opacity="0.25"></path><path d="M 638.7 282.8 L 763.6 282.8 L 763.6 226.5 L 638.7 226.5 Z M 638.7 282.8 " fill="#000000" fill-opacity="0.25"></path><path d="M 763.6 282.8 L 888.5 282.8 L 888.5 226.5 L 763.6 226.5 Z M 763.6 282.8 " fill="#000000" fill-opacity="0.25"></path></g></g><g><clipPath id="clip-559"><path d="M 638.2 283.3 L 764.1 283.3 L 764.1 226.0 L 638.2 226.0 Z M 638.2 283.3 "></path></clipPath><g clip-path="url(#clip-559)"><path d="M 514.3 58.3 L 514.3 227.1 " fill="none" stroke="#FEFFFE" stroke-opacity="0.50" stroke-width="4.00" transform="matrix(1.00, 0.00, 0.00, -1.00, -0.5, 397.3)"></path><path d="M 639.2 58.3 L 639.2 227.1 " fill="none" stroke="#FEFFFE" stroke-opacity="0.50" stroke-width="1.00" transform="matrix(1.00, 0.00, 0.00, -1.00, -0.5, 397.3)"></path><path d="M 764.1 58.3 L 764.1 227.1 " fill="none" stroke="#FEFFFE" stroke-opacity="0.50" stroke-width="1.00" transform="matrix(1.00, 0.00, 0.00, -1.00, -0.5, 397.3)"></path><path d="M 514.3 114.5 L 889.1 114.5 " fill="none" stroke="#FEFFFE" stroke-opacity="0.50" stroke-width="1.00" transform="matrix(1.00, 0.00, 0.00, -1.00, -0.5, 397.3)"></path><path d="M 514.3 170.8 L 889.1 170.8 " fill="none" stroke="#FEFFFE" stroke-opacity="0.50" stroke-width="1.00" transform="matrix(1.00, 0.00, 0.00, -1.00, -0.5, 397.3)"></path><path d="M 514.3 227.1 L 889.1 227.1 " fill="none" stroke="#FEFFFE" stroke-opacity="0.50" stroke-width="1.00" transform="matrix(1.00, 0.00, 0.00, -1.00, -0.5, 397.3)"></path><path d="M 514.3 58.3 L 889.1 58.3 " fill="none" stroke="#FEFFFE" stroke-opacity="0.50" stroke-width="1.00" transform="matrix(1.00, 0.00, 0.00, -1.00, -0.5, 397.3)"></path><path d="M 889.1 58.3 L 889.1 227.1 " fill="none" stroke="#FEFFFE" stroke-opacity="0.50" stroke-width="1.00" transform="matrix(1.00, 0.00, 0.00, -1.00, -0.5, 397.3)"></path></g></g><g><clipPath id="clip-560"><path d="M 763.1 283.3 L 889.0 283.3 L 889.0 226.0 L 763.1 226.0 Z M 763.1 283.3 "></path></clipPath><g clip-path="url(#clip-560)"><path d="M 638.7 282.8 L 763.6 282.8 L 763.6 226.5 L 638.7 226.5 Z M 638.7 282.8 " fill="#000000" fill-opacity="0.25"></path><path d="M 763.6 282.8 L 888.5 282.8 L 888.5 226.5 L 763.6 226.5 Z M 763.6 282.8 " fill="#000000" fill-opacity="0.25"></path></g></g><g><clipPath id="clip-561"><path d="M 763.1 283.3 L 889.0 283.3 L 889.0 226.0 L 763.1 226.0 Z M 763.1 283.3 "></path></clipPath><g clip-path="url(#clip-561)"><path d="M 639.2 58.3 L 639.2 227.1 " fill="none" stroke="#FEFFFE" stroke-opacity="0.50" stroke-width="1.00" transform="matrix(1.00, 0.00, 0.00, -1.00, -0.5, 397.3)"></path><path d="M 764.1 58.3 L 764.1 227.1 " fill="none" stroke="#FEFFFE" stroke-opacity="0.50" stroke-width="1.00" transform="matrix(1.00, 0.00, 0.00, -1.00, -0.5, 397.3)"></path><path d="M 639.2 114.5 L 889.6 114.5 " fill="none" stroke="#FEFFFE" stroke-opacity="0.50" stroke-width="1.00" transform="matrix(1.00, 0.00, 0.00, -1.00, -0.5, 397.3)"></path><path d="M 639.2 170.8 L 889.6 170.8 " fill="none" stroke="#FEFFFE" stroke-opacity="0.50" stroke-width="1.00" transform="matrix(1.00, 0.00, 0.00, -1.00, -0.5, 397.3)"></path><path d="M 639.2 227.1 L 889.1 227.1 " fill="none" stroke="#FEFFFE" stroke-opacity="0.50" stroke-width="1.00" transform="matrix(1.00, 0.00, 0.00, -1.00, -0.5, 397.3)"></path><path d="M 639.2 58.3 L 889.1 58.3 " fill="none" stroke="#FEFFFE" stroke-opacity="0.50" stroke-width="1.00" transform="matrix(1.00, 0.00, 0.00, -1.00, -0.5, 397.3)"></path><path d="M 889.1 58.3 L 889.1 227.1 " fill="none" stroke="#FEFFFE" stroke-opacity="0.50" stroke-width="1.00" transform="matrix(1.00, 0.00, 0.00, -1.00, -0.5, 397.3)"></path></g></g><g><clipPath id="clip-562"><path d="M 1.0 227.0 L 140.9 227.0 L 140.9 169.8 L 1.0 169.8 Z M 1.0 227.0 "></path></clipPath><g clip-path="url(#clip-562)"><path d="M 1.5 282.8 L 138.9 282.8 L 138.9 226.5 L 1.5 226.5 Z M 1.5 282.8 " fill="#869ABB"></path><path d="M 138.9 282.8 L 263.8 282.8 L 263.8 226.5 L 138.9 226.5 Z M 138.9 282.8 " fill="#000000" fill-opacity="0.25"></path><path d="M 1.5 226.5 L 138.9 226.5 L 138.9 170.3 L 1.5 170.3 Z M 1.5 226.5 " fill="#869ABB"></path><path d="M 1.5 170.3 L 138.9 170.3 L 138.9 114.0 L 1.5 114.0 Z M 1.5 170.3 " fill="#869ABB"></path><path d="M 138.9 170.3 L 263.8 170.3 L 263.8 114.0 L 138.9 114.0 Z M 138.9 170.3 " fill="#000000" fill-opacity="0.25"></path></g></g><image xlink:href="../../D55510CF-6CC6-4C3C-BC8C-B86DBACA13BB/assets/7FE83E549578ECC1E2F7174516A4E17C.png" width="131.00" height="33.00" transform="matrix(1.00, 0.00, -0.00, -1.00, 6.0, 209.0)"></image><g><clipPath id="clip-563"><path d="M 1.0 227.0 L 140.9 227.0 L 140.9 169.8 L 1.0 169.8 Z M 1.0 227.0 "></path></clipPath><g clip-path="url(#clip-563)"><g><clipPath id="clip-564"><path d="M 2.0 170.8 L 136.9 170.8 L 136.9 226.0 L 2.0 226.0 Z M 2.0 170.8 "></path></clipPath><g clip-path="url(#clip-564)"><text xml:space="preserve" font-family="Chalkduster" font-size="16.0" fill="#FEFFFE" transform="matrix(1.00, 0.00, -0.00, -1.00, 10.4, 190.8)">m</text><text xml:space="preserve" font-family="Chalkduster" font-size="16.0" fill="#FEFFFE" transform="matrix(1.00, 0.00, -0.00, -1.00, 27.1, 190.8)">m</text><text xml:space="preserve" font-family="Chalkduster" font-size="16.0" fill="#FEFFFE" transform="matrix(1.00, 0.00, -0.00, -1.00, 43.3, 190.8)">1</text><text xml:space="preserve" font-family="Chalkduster" font-size="16.0" fill="#FEFFFE" transform="matrix(1.00, 0.00, -0.00, -1.00, 53.0, 190.8)">-</text><text xml:space="preserve" font-family="Chalkduster" font-size="16.0" fill="#FEFFFE" transform="matrix(1.00, 0.00, -0.00, -1.00, 62.6, 190.8)">e</text><text xml:space="preserve" font-family="Chalkduster" font-size="16.0" fill="#FEFFFE" transform="matrix(1.00, 0.00, -0.00, -1.00, 72.8, 190.8)">p</text><text xml:space="preserve" font-family="Chalkduster" font-size="16.0" fill="#FEFFFE" transform="matrix(1.00, 0.00, -0.00, -1.00, 82.9, 190.8)">o</text><text xml:space="preserve" font-family="Chalkduster" font-size="16.0" fill="#FEFFFE" transform="matrix(1.00, 0.00, -0.00, -1.00, 94.9, 190.8)">u</text><text xml:space="preserve" font-family="Chalkduster" font-size="16.0" fill="#FEFFFE" transform="matrix(1.00, 0.00, -0.00, -1.00, 105.7, 190.8)">t</text><text xml:space="preserve" font-family="Chalkduster" font-size="16.0" fill="#FEFFFE" transform="matrix(1.00, 0.00, -0.00, -1.00, 112.9, 190.8)">a</text><text xml:space="preserve" font-family="Chalkduster" font-size="16.0" fill="#FEFFFE" transform="matrix(1.00, 0.00, -0.00, -1.00, 123.9, 190.8)">2</text></g></g></g></g><g><clipPath id="clip-565"><path d="M 1.0 227.0 L 140.9 227.0 L 140.9 169.8 L 1.0 169.8 Z M 1.0 227.0 "></path></clipPath><g clip-path="url(#clip-565)"><path d="M 264.4 114.5 L 264.4 283.3 " fill="none" stroke="#FEFFFE" stroke-opacity="0.50" stroke-width="1.00" transform="matrix(1.00, 0.00, 0.00, -1.00, -0.5, 397.3)"></path><path d="M 2.0 114.5 L 139.4 114.5 " fill="none" stroke="#FEFFFE" stroke-opacity="0.50" stroke-width="1.00" transform="matrix(1.00, 0.00, 0.00, -1.00, -0.5, 397.3)"></path><path d="M 139.4 114.5 L 264.4 114.5 " fill="none" stroke="#FEFFFE" stroke-opacity="0.50" stroke-width="1.00" transform="matrix(1.00, 0.00, 0.00, -1.00, -0.5, 397.3)"></path><path d="M 1.5 170.8 L 139.4 170.8 " fill="none" stroke="#FEFFFE" stroke-opacity="0.50" stroke-width="1.00" transform="matrix(1.00, 0.00, 0.00, -1.00, -0.5, 397.3)"></path><path d="M 139.4 170.8 L 264.4 170.8 " fill="none" stroke="#FEFFFE" stroke-opacity="0.50" stroke-width="1.00" transform="matrix(1.00, 0.00, 0.00, -1.00, -0.5, 397.3)"></path><path d="M 1.5 227.1 L 139.4 227.1 " fill="none" stroke="#FEFFFE" stroke-opacity="0.50" stroke-width="1.00" transform="matrix(1.00, 0.00, 0.00, -1.00, -0.5, 397.3)"></path><path d="M 139.4 227.1 L 264.4 227.1 " fill="none" stroke="#FEFFFE" stroke-opacity="0.50" stroke-width="1.00" transform="matrix(1.00, 0.00, 0.00, -1.00, -0.5, 397.3)"></path><path d="M 2.0 283.3 L 139.4 283.3 " fill="none" stroke="#FEFFFE" stroke-opacity="0.50" stroke-width="1.00" transform="matrix(1.00, 0.00, 0.00, -1.00, -0.5, 397.3)"></path><path d="M 139.4 283.3 L 264.4 283.3 " fill="none" stroke="#FEFFFE" stroke-opacity="0.50" stroke-width="1.00" transform="matrix(1.00, 0.00, 0.00, -1.00, -0.5, 397.3)"></path><path d="M 139.4 114.5 L 139.4 283.3 " fill="none" stroke="#FEFFFE" stroke-opacity="0.50" stroke-width="4.00" transform="matrix(1.00, 0.00, 0.00, -1.00, -0.5, 397.3)"></path><path d="M 2.0 114.5 L 2.0 283.3 " fill="none" stroke="#FEFFFE" stroke-opacity="0.50" stroke-width="1.00" transform="matrix(1.00, 0.00, 0.00, -1.00, -0.5, 397.3)"></path></g></g><g><clipPath id="clip-566"><path d="M 136.9 227.0 L 264.3 227.0 L 264.3 169.8 L 136.9 169.8 Z M 136.9 227.0 "></path></clipPath><g clip-path="url(#clip-566)"><path d="M 1.5 282.8 L 138.9 282.8 L 138.9 226.5 L 1.5 226.5 Z M 1.5 282.8 " fill="#869ABB"></path><path d="M 138.9 282.8 L 263.8 282.8 L 263.8 226.5 L 138.9 226.5 Z M 138.9 282.8 " fill="#000000" fill-opacity="0.25"></path><path d="M 263.8 282.8 L 388.8 282.8 L 388.8 226.5 L 263.8 226.5 Z M 263.8 282.8 " fill="#000000" fill-opacity="0.25"></path><path d="M 1.5 226.5 L 138.9 226.5 L 138.9 170.3 L 1.5 170.3 Z M 1.5 226.5 " fill="#869ABB"></path><path d="M 1.5 170.3 L 138.9 170.3 L 138.9 114.0 L 1.5 114.0 Z M 1.5 170.3 " fill="#869ABB"></path><path d="M 138.9 170.3 L 263.8 170.3 L 263.8 114.0 L 138.9 114.0 Z M 138.9 170.3 " fill="#000000" fill-opacity="0.25"></path><path d="M 263.8 170.3 L 388.8 170.3 L 388.8 114.0 L 263.8 114.0 Z M 263.8 170.3 " fill="#000000" fill-opacity="0.25"></path></g></g><g><clipPath id="clip-567"><path d="M 136.9 227.0 L 264.3 227.0 L 264.3 169.8 L 136.9 169.8 Z M 136.9 227.0 "></path></clipPath><g clip-path="url(#clip-567)"><path d="M 264.4 114.5 L 264.4 283.3 " fill="none" stroke="#FEFFFE" stroke-opacity="0.50" stroke-width="1.00" transform="matrix(1.00, 0.00, 0.00, -1.00, -0.5, 397.3)"></path><path d="M 389.3 114.5 L 389.3 283.3 " fill="none" stroke="#FEFFFE" stroke-opacity="0.50" stroke-width="1.00" transform="matrix(1.00, 0.00, 0.00, -1.00, -0.5, 397.3)"></path><path d="M 2.0 114.5 L 139.4 114.5 " fill="none" stroke="#FEFFFE" stroke-opacity="0.50" stroke-width="1.00" transform="matrix(1.00, 0.00, 0.00, -1.00, -0.5, 397.3)"></path><path d="M 139.4 114.5 L 389.3 114.5 " fill="none" stroke="#FEFFFE" stroke-opacity="0.50" stroke-width="1.00" transform="matrix(1.00, 0.00, 0.00, -1.00, -0.5, 397.3)"></path><path d="M 2.0 170.8 L 139.4 170.8 " fill="none" stroke="#FEFFFE" stroke-opacity="0.50" stroke-width="1.00" transform="matrix(1.00, 0.00, 0.00, -1.00, -0.5, 397.3)"></path><path d="M 139.4 170.8 L 389.3 170.8 " fill="none" stroke="#FEFFFE" stroke-opacity="0.50" stroke-width="1.00" transform="matrix(1.00, 0.00, 0.00, -1.00, -0.5, 397.3)"></path><path d="M 2.0 227.1 L 139.4 227.1 " fill="none" stroke="#FEFFFE" stroke-opacity="0.50" stroke-width="1.00" transform="matrix(1.00, 0.00, 0.00, -1.00, -0.5, 397.3)"></path><path d="M 139.4 227.1 L 389.3 227.1 " fill="none" stroke="#FEFFFE" stroke-opacity="0.50" stroke-width="1.00" transform="matrix(1.00, 0.00, 0.00, -1.00, -0.5, 397.3)"></path><path d="M 2.0 283.3 L 139.4 283.3 " fill="none" stroke="#FEFFFE" stroke-opacity="0.50" stroke-width="1.00" transform="matrix(1.00, 0.00, 0.00, -1.00, -0.5, 397.3)"></path><path d="M 139.4 283.3 L 389.3 283.3 " fill="none" stroke="#FEFFFE" stroke-opacity="0.50" stroke-width="1.00" transform="matrix(1.00, 0.00, 0.00, -1.00, -0.5, 397.3)"></path><path d="M 139.4 114.5 L 139.4 283.3 " fill="none" stroke="#FEFFFE" stroke-opacity="0.50" stroke-width="4.00" transform="matrix(1.00, 0.00, 0.00, -1.00, -0.5, 397.3)"></path><path d="M 2.0 114.5 L 2.0 283.3 " fill="none" stroke="#FEFFFE" stroke-opacity="0.50" stroke-width="1.00" transform="matrix(1.00, 0.00, 0.00, -1.00, -0.5, 397.3)"></path></g></g><g><clipPath id="clip-568"><path d="M 263.3 227.0 L 389.3 227.0 L 389.3 169.8 L 263.3 169.8 Z M 263.3 227.0 "></path></clipPath><g clip-path="url(#clip-568)"><path d="M 138.9 282.8 L 263.8 282.8 L 263.8 226.5 L 138.9 226.5 Z M 138.9 282.8 " fill="#000000" fill-opacity="0.25"></path><path d="M 263.8 282.8 L 388.8 282.8 L 388.8 226.5 L 263.8 226.5 Z M 263.8 282.8 " fill="#000000" fill-opacity="0.25"></path><path d="M 388.8 282.8 L 513.7 282.8 L 513.7 226.5 L 388.8 226.5 Z M 388.8 282.8 " fill="#000000" fill-opacity="0.25"></path><path d="M 138.9 170.3 L 263.8 170.3 L 263.8 114.0 L 138.9 114.0 Z M 138.9 170.3 " fill="#000000" fill-opacity="0.25"></path><path d="M 263.8 170.3 L 388.8 170.3 L 388.8 114.0 L 263.8 114.0 Z M 263.8 170.3 " fill="#000000" fill-opacity="0.25"></path><path d="M 388.8 170.3 L 513.7 170.3 L 513.7 114.0 L 388.8 114.0 Z M 388.8 170.3 " fill="#000000" fill-opacity="0.25"></path></g></g><g><clipPath id="clip-569"><path d="M 263.3 227.0 L 389.3 227.0 L 389.3 169.8 L 263.3 169.8 Z M 263.3 227.0 "></path></clipPath><g clip-path="url(#clip-569)"><path d="M 264.4 114.5 L 264.4 283.3 " fill="none" stroke="#FEFFFE" stroke-opacity="0.50" stroke-width="1.00" transform="matrix(1.00, 0.00, 0.00, -1.00, -0.5, 397.3)"></path><path d="M 389.3 114.5 L 389.3 283.3 " fill="none" stroke="#FEFFFE" stroke-opacity="0.50" stroke-width="1.00" transform="matrix(1.00, 0.00, 0.00, -1.00, -0.5, 397.3)"></path><path d="M 514.3 114.5 L 514.3 283.3 " fill="none" stroke="#FEFFFE" stroke-opacity="0.50" stroke-width="4.00" transform="matrix(1.00, 0.00, 0.00, -1.00, -0.5, 397.3)"></path><path d="M 139.4 114.5 L 514.3 114.5 " fill="none" stroke="#FEFFFE" stroke-opacity="0.50" stroke-width="1.00" transform="matrix(1.00, 0.00, 0.00, -1.00, -0.5, 397.3)"></path><path d="M 139.4 170.8 L 514.3 170.8 " fill="none" stroke="#FEFFFE" stroke-opacity="0.50" stroke-width="1.00" transform="matrix(1.00, 0.00, 0.00, -1.00, -0.5, 397.3)"></path><path d="M 139.4 227.1 L 514.3 227.1 " fill="none" stroke="#FEFFFE" stroke-opacity="0.50" stroke-width="1.00" transform="matrix(1.00, 0.00, 0.00, -1.00, -0.5, 397.3)"></path><path d="M 139.4 283.3 L 514.3 283.3 " fill="none" stroke="#FEFFFE" stroke-opacity="0.50" stroke-width="1.00" transform="matrix(1.00, 0.00, 0.00, -1.00, -0.5, 397.3)"></path><path d="M 139.4 114.5 L 139.4 283.3 " fill="none" stroke="#FEFFFE" stroke-opacity="0.50" stroke-width="4.00" transform="matrix(1.00, 0.00, 0.00, -1.00, -0.5, 397.3)"></path></g></g><g><clipPath id="clip-570"><path d="M 388.3 227.0 L 515.7 227.0 L 515.7 169.8 L 388.3 169.8 Z M 388.3 227.0 "></path></clipPath><g clip-path="url(#clip-570)"><path d="M 263.8 282.8 L 388.8 282.8 L 388.8 226.5 L 263.8 226.5 Z M 263.8 282.8 " fill="#000000" fill-opacity="0.25"></path><path d="M 388.8 282.8 L 513.7 282.8 L 513.7 226.5 L 388.8 226.5 Z M 388.8 282.8 " fill="#000000" fill-opacity="0.25"></path><path d="M 513.7 282.8 L 638.7 282.8 L 638.7 226.5 L 513.7 226.5 Z M 513.7 282.8 " fill="#000000" fill-opacity="0.25"></path><path d="M 263.8 170.3 L 388.8 170.3 L 388.8 114.0 L 263.8 114.0 Z M 263.8 170.3 " fill="#000000" fill-opacity="0.25"></path><path d="M 388.8 170.3 L 513.7 170.3 L 513.7 114.0 L 388.8 114.0 Z M 388.8 170.3 " fill="#000000" fill-opacity="0.25"></path><path d="M 513.7 170.3 L 638.7 170.3 L 638.7 114.0 L 513.7 114.0 Z M 513.7 170.3 " fill="#000000" fill-opacity="0.25"></path></g></g><image xlink:href="../../D55510CF-6CC6-4C3C-BC8C-B86DBACA13BB/assets/5CF07A188BC6F9A92C473C7CB6E206F3.png" width="18.00" height="23.00" transform="matrix(1.00, 0.00, -0.00, -1.00, 442.0, 208.0)"></image><g><clipPath id="clip-571"><path d="M 388.3 227.0 L 515.7 227.0 L 515.7 169.8 L 388.3 169.8 Z M 388.3 227.0 "></path></clipPath><g clip-path="url(#clip-571)"><g><clipPath id="clip-572"><path d="M 389.3 170.8 L 511.7 170.8 L 511.7 226.0 L 389.3 226.0 Z M 389.3 170.8 "></path></clipPath><g clip-path="url(#clip-572)"><text xml:space="preserve" font-family="Chalkduster" font-size="16.0" fill="#FEFFFE" transform="matrix(1.00, 0.00, -0.00, -1.00, 446.0, 191.0)">1</text></g></g></g></g><g><clipPath id="clip-573"><path d="M 388.3 227.0 L 515.7 227.0 L 515.7 169.8 L 388.3 169.8 Z M 388.3 227.0 "></path></clipPath><g clip-path="url(#clip-573)"><path d="M 264.4 114.5 L 264.4 283.3 " fill="none" stroke="#FEFFFE" stroke-opacity="0.50" stroke-width="1.00" transform="matrix(1.00, 0.00, 0.00, -1.00, -0.5, 397.3)"></path><path d="M 389.3 114.5 L 389.3 283.3 " fill="none" stroke="#FEFFFE" stroke-opacity="0.50" stroke-width="1.00" transform="matrix(1.00, 0.00, 0.00, -1.00, -0.5, 397.3)"></path><path d="M 514.3 114.5 L 514.3 283.3 " fill="none" stroke="#FEFFFE" stroke-opacity="0.50" stroke-width="4.00" transform="matrix(1.00, 0.00, 0.00, -1.00, -0.5, 397.3)"></path><path d="M 639.2 114.5 L 639.2 283.3 " fill="none" stroke="#FEFFFE" stroke-opacity="0.50" stroke-width="1.00" transform="matrix(1.00, 0.00, 0.00, -1.00, -0.5, 397.3)"></path><path d="M 264.4 114.5 L 639.2 114.5 " fill="none" stroke="#FEFFFE" stroke-opacity="0.50" stroke-width="1.00" transform="matrix(1.00, 0.00, 0.00, -1.00, -0.5, 397.3)"></path><path d="M 264.4 170.8 L 639.2 170.8 " fill="none" stroke="#FEFFFE" stroke-opacity="0.50" stroke-width="1.00" transform="matrix(1.00, 0.00, 0.00, -1.00, -0.5, 397.3)"></path><path d="M 264.4 227.1 L 639.2 227.1 " fill="none" stroke="#FEFFFE" stroke-opacity="0.50" stroke-width="1.00" transform="matrix(1.00, 0.00, 0.00, -1.00, -0.5, 397.3)"></path><path d="M 264.4 283.3 L 639.2 283.3 " fill="none" stroke="#FEFFFE" stroke-opacity="0.50" stroke-width="1.00" transform="matrix(1.00, 0.00, 0.00, -1.00, -0.5, 397.3)"></path></g></g><g><clipPath id="clip-574"><path d="M 511.7 227.0 L 639.2 227.0 L 639.2 169.8 L 511.7 169.8 Z M 511.7 227.0 "></path></clipPath><g clip-path="url(#clip-574)"><path d="M 388.8 282.8 L 513.7 282.8 L 513.7 226.5 L 388.8 226.5 Z M 388.8 282.8 " fill="#000000" fill-opacity="0.25"></path><path d="M 513.7 282.8 L 638.7 282.8 L 638.7 226.5 L 513.7 226.5 Z M 513.7 282.8 " fill="#000000" fill-opacity="0.25"></path><path d="M 638.7 282.8 L 763.6 282.8 L 763.6 226.5 L 638.7 226.5 Z M 638.7 282.8 " fill="#000000" fill-opacity="0.25"></path><path d="M 388.8 170.3 L 513.7 170.3 L 513.7 114.0 L 388.8 114.0 Z M 388.8 170.3 " fill="#000000" fill-opacity="0.25"></path><path d="M 513.7 170.3 L 638.7 170.3 L 638.7 114.0 L 513.7 114.0 Z M 513.7 170.3 " fill="#000000" fill-opacity="0.25"></path><path d="M 638.7 170.3 L 763.6 170.3 L 763.6 114.0 L 638.7 114.0 Z M 638.7 170.3 " fill="#000000" fill-opacity="0.25"></path></g></g><g><clipPath id="clip-575"><path d="M 511.7 227.0 L 639.2 227.0 L 639.2 169.8 L 511.7 169.8 Z M 511.7 227.0 "></path></clipPath><g clip-path="url(#clip-575)"><path d="M 389.3 114.5 L 389.3 283.3 " fill="none" stroke="#FEFFFE" stroke-opacity="0.50" stroke-width="1.00" transform="matrix(1.00, 0.00, 0.00, -1.00, -0.5, 397.3)"></path><path d="M 514.3 114.5 L 514.3 283.3 " fill="none" stroke="#FEFFFE" stroke-opacity="0.50" stroke-width="4.00" transform="matrix(1.00, 0.00, 0.00, -1.00, -0.5, 397.3)"></path><path d="M 639.2 114.5 L 639.2 283.3 " fill="none" stroke="#FEFFFE" stroke-opacity="0.50" stroke-width="1.00" transform="matrix(1.00, 0.00, 0.00, -1.00, -0.5, 397.3)"></path><path d="M 764.1 114.5 L 764.1 283.3 " fill="none" stroke="#FEFFFE" stroke-opacity="0.50" stroke-width="1.00" transform="matrix(1.00, 0.00, 0.00, -1.00, -0.5, 397.3)"></path><path d="M 389.3 114.5 L 764.1 114.5 " fill="none" stroke="#FEFFFE" stroke-opacity="0.50" stroke-width="1.00" transform="matrix(1.00, 0.00, 0.00, -1.00, -0.5, 397.3)"></path><path d="M 389.3 170.8 L 764.1 170.8 " fill="none" stroke="#FEFFFE" stroke-opacity="0.50" stroke-width="1.00" transform="matrix(1.00, 0.00, 0.00, -1.00, -0.5, 397.3)"></path><path d="M 389.3 227.1 L 764.1 227.1 " fill="none" stroke="#FEFFFE" stroke-opacity="0.50" stroke-width="1.00" transform="matrix(1.00, 0.00, 0.00, -1.00, -0.5, 397.3)"></path><path d="M 389.3 283.3 L 764.1 283.3 " fill="none" stroke="#FEFFFE" stroke-opacity="0.50" stroke-width="1.00" transform="matrix(1.00, 0.00, 0.00, -1.00, -0.5, 397.3)"></path></g></g><g><clipPath id="clip-576"><path d="M 638.2 227.0 L 764.1 227.0 L 764.1 169.8 L 638.2 169.8 Z M 638.2 227.0 "></path></clipPath><g clip-path="url(#clip-576)"><path d="M 513.7 282.8 L 638.7 282.8 L 638.7 226.5 L 513.7 226.5 Z M 513.7 282.8 " fill="#000000" fill-opacity="0.25"></path><path d="M 638.7 282.8 L 763.6 282.8 L 763.6 226.5 L 638.7 226.5 Z M 638.7 282.8 " fill="#000000" fill-opacity="0.25"></path><path d="M 763.6 282.8 L 888.5 282.8 L 888.5 226.5 L 763.6 226.5 Z M 763.6 282.8 " fill="#000000" fill-opacity="0.25"></path><path d="M 513.7 170.3 L 638.7 170.3 L 638.7 114.0 L 513.7 114.0 Z M 513.7 170.3 " fill="#000000" fill-opacity="0.25"></path><path d="M 638.7 170.3 L 763.6 170.3 L 763.6 114.0 L 638.7 114.0 Z M 638.7 170.3 " fill="#000000" fill-opacity="0.25"></path><path d="M 763.6 170.3 L 888.5 170.3 L 888.5 114.0 L 763.6 114.0 Z M 763.6 170.3 " fill="#000000" fill-opacity="0.25"></path></g></g><image xlink:href="../../D55510CF-6CC6-4C3C-BC8C-B86DBACA13BB/assets/0AC42A1088C98091ED1F4E6A1EB35E36.png" width="19.00" height="23.00" transform="matrix(1.00, 0.00, -0.00, -1.00, 692.0, 208.0)"></image><g><clipPath id="clip-577"><path d="M 638.2 227.0 L 764.1 227.0 L 764.1 169.8 L 638.2 169.8 Z M 638.2 227.0 "></path></clipPath><g clip-path="url(#clip-577)"><g><clipPath id="clip-578"><path d="M 639.2 170.8 L 763.1 170.8 L 763.1 226.0 L 639.2 226.0 Z M 639.2 170.8 "></path></clipPath><g clip-path="url(#clip-578)"><text xml:space="preserve" font-family="Chalkduster" font-size="16.0" fill="#FEFFFE" transform="matrix(1.00, 0.00, -0.00, -1.00, 697.0, 191.0)">2</text></g></g></g></g><g><clipPath id="clip-579"><path d="M 638.2 227.0 L 764.1 227.0 L 764.1 169.8 L 638.2 169.8 Z M 638.2 227.0 "></path></clipPath><g clip-path="url(#clip-579)"><path d="M 514.3 114.5 L 514.3 283.3 " fill="none" stroke="#FEFFFE" stroke-opacity="0.50" stroke-width="4.00" transform="matrix(1.00, 0.00, 0.00, -1.00, -0.5, 397.3)"></path><path d="M 639.2 114.5 L 639.2 283.3 " fill="none" stroke="#FEFFFE" stroke-opacity="0.50" stroke-width="1.00" transform="matrix(1.00, 0.00, 0.00, -1.00, -0.5, 397.3)"></path><path d="M 764.1 114.5 L 764.1 283.3 " fill="none" stroke="#FEFFFE" stroke-opacity="0.50" stroke-width="1.00" transform="matrix(1.00, 0.00, 0.00, -1.00, -0.5, 397.3)"></path><path d="M 514.3 114.5 L 889.1 114.5 " fill="none" stroke="#FEFFFE" stroke-opacity="0.50" stroke-width="1.00" transform="matrix(1.00, 0.00, 0.00, -1.00, -0.5, 397.3)"></path><path d="M 514.3 170.8 L 889.1 170.8 " fill="none" stroke="#FEFFFE" stroke-opacity="0.50" stroke-width="1.00" transform="matrix(1.00, 0.00, 0.00, -1.00, -0.5, 397.3)"></path><path d="M 514.3 227.1 L 889.1 227.1 " fill="none" stroke="#FEFFFE" stroke-opacity="0.50" stroke-width="1.00" transform="matrix(1.00, 0.00, 0.00, -1.00, -0.5, 397.3)"></path><path d="M 514.3 283.3 L 889.1 283.3 " fill="none" stroke="#FEFFFE" stroke-opacity="0.50" stroke-width="1.00" transform="matrix(1.00, 0.00, 0.00, -1.00, -0.5, 397.3)"></path><path d="M 889.1 114.5 L 889.1 283.3 " fill="none" stroke="#FEFFFE" stroke-opacity="0.50" stroke-width="1.00" transform="matrix(1.00, 0.00, 0.00, -1.00, -0.5, 397.3)"></path></g></g><g><clipPath id="clip-580"><path d="M 763.1 227.0 L 889.0 227.0 L 889.0 169.8 L 763.1 169.8 Z M 763.1 227.0 "></path></clipPath><g clip-path="url(#clip-580)"><path d="M 638.7 282.8 L 763.6 282.8 L 763.6 226.5 L 638.7 226.5 Z M 638.7 282.8 " fill="#000000" fill-opacity="0.25"></path><path d="M 763.6 282.8 L 888.5 282.8 L 888.5 226.5 L 763.6 226.5 Z M 763.6 282.8 " fill="#000000" fill-opacity="0.25"></path><path d="M 638.7 170.3 L 763.6 170.3 L 763.6 114.0 L 638.7 114.0 Z M 638.7 170.3 " fill="#000000" fill-opacity="0.25"></path><path d="M 763.6 170.3 L 888.5 170.3 L 888.5 114.0 L 763.6 114.0 Z M 763.6 170.3 " fill="#000000" fill-opacity="0.25"></path></g></g><image xlink:href="../../D55510CF-6CC6-4C3C-BC8C-B86DBACA13BB/assets/1736D47D1B2025C47B146D19CEF54500.png" width="21.00" height="23.00" transform="matrix(1.00, 0.00, -0.00, -1.00, 816.0, 208.0)"></image><g><clipPath id="clip-581"><path d="M 763.1 227.0 L 889.0 227.0 L 889.0 169.8 L 763.1 169.8 Z M 763.1 227.0 "></path></clipPath><g clip-path="url(#clip-581)"><g><clipPath id="clip-582"><path d="M 764.1 170.8 L 888.0 170.8 L 888.0 226.0 L 764.1 226.0 Z M 764.1 170.8 "></path></clipPath><g clip-path="url(#clip-582)"><text xml:space="preserve" font-family="Chalkduster" font-size="16.0" fill="#FEFFFE" transform="matrix(1.00, 0.00, -0.00, -1.00, 821.0, 191.0)">3</text></g></g></g></g><g><clipPath id="clip-583"><path d="M 763.1 227.0 L 889.0 227.0 L 889.0 169.8 L 763.1 169.8 Z M 763.1 227.0 "></path></clipPath><g clip-path="url(#clip-583)"><path d="M 639.2 114.5 L 639.2 283.3 " fill="none" stroke="#FEFFFE" stroke-opacity="0.50" stroke-width="1.00" transform="matrix(1.00, 0.00, 0.00, -1.00, -0.5, 397.3)"></path><path d="M 764.1 114.5 L 764.1 283.3 " fill="none" stroke="#FEFFFE" stroke-opacity="0.50" stroke-width="1.00" transform="matrix(1.00, 0.00, 0.00, -1.00, -0.5, 397.3)"></path><path d="M 639.2 114.5 L 889.1 114.5 " fill="none" stroke="#FEFFFE" stroke-opacity="0.50" stroke-width="1.00" transform="matrix(1.00, 0.00, 0.00, -1.00, -0.5, 397.3)"></path><path d="M 639.2 170.8 L 889.6 170.8 " fill="none" stroke="#FEFFFE" stroke-opacity="0.50" stroke-width="1.00" transform="matrix(1.00, 0.00, 0.00, -1.00, -0.5, 397.3)"></path><path d="M 639.2 227.1 L 889.6 227.1 " fill="none" stroke="#FEFFFE" stroke-opacity="0.50" stroke-width="1.00" transform="matrix(1.00, 0.00, 0.00, -1.00, -0.5, 397.3)"></path><path d="M 639.2 283.3 L 889.1 283.3 " fill="none" stroke="#FEFFFE" stroke-opacity="0.50" stroke-width="1.00" transform="matrix(1.00, 0.00, 0.00, -1.00, -0.5, 397.3)"></path><path d="M 889.1 114.5 L 889.1 283.3 " fill="none" stroke="#FEFFFE" stroke-opacity="0.50" stroke-width="1.00" transform="matrix(1.00, 0.00, 0.00, -1.00, -0.5, 397.3)"></path></g></g></g></svg>