<?xml version="1.0" encoding="UTF-8" standalone="no"?><svg xmlns="http://www.w3.org/2000/svg" xmlns:xlink="http://www.w3.org/1999/xlink" clip-rule="evenodd" stroke-miterlimit="4.00" viewBox="0 0 890 397"><desc>SVG generated by Keynote</desc><defs></defs><g transform="matrix(1.00, 0.00, -0.00, -1.00, 0.0, 397.0)"><g><clipPath id="clip-278"><path d="M 1.0 395.8 L 889.0 395.8 L 889.0 1.0 L 1.0 1.0 Z M 1.0 395.8 "></path></clipPath><g clip-path="url(#clip-278)"><path d="M 264.4 1.5 L 264.4 58.3 " fill="none" stroke="#FEFFFE" stroke-opacity="0.50" stroke-width="1.00" transform="matrix(1.00, 0.00, 0.00, -1.00, -0.5, 397.3)"></path><path d="M 264.4 58.3 L 264.4 396.4 " fill="none" stroke="#FEFFFE" stroke-opacity="0.50" stroke-width="1.00" transform="matrix(1.00, 0.00, 0.00, -1.00, -0.5, 397.3)"></path><path d="M 389.3 1.5 L 389.3 58.3 " fill="none" stroke="#FEFFFE" stroke-opacity="0.50" stroke-width="1.00" transform="matrix(1.00, 0.00, 0.00, -1.00, -0.5, 397.3)"></path><path d="M 389.3 58.3 L 389.3 396.4 " fill="none" stroke="#FEFFFE" stroke-opacity="0.50" stroke-width="1.00" transform="matrix(1.00, 0.00, 0.00, -1.00, -0.5, 397.3)"></path><path d="M 514.3 1.5 L 514.3 396.4 " fill="none" stroke="#FEFFFE" stroke-opacity="0.50" stroke-width="4.00" transform="matrix(1.00, 0.00, 0.00, -1.00, -0.5, 397.3)"></path><path d="M 639.2 1.5 L 639.2 58.3 " fill="none" stroke="#FEFFFE" stroke-opacity="0.50" stroke-width="1.00" transform="matrix(1.00, 0.00, 0.00, -1.00, -0.5, 397.3)"></path><path d="M 639.2 58.3 L 639.2 396.4 " fill="none" stroke="#FEFFFE" stroke-opacity="0.50" stroke-width="1.00" transform="matrix(1.00, 0.00, 0.00, -1.00, -0.5, 397.3)"></path><path d="M 764.1 1.5 L 764.1 58.3 " fill="none" stroke="#FEFFFE" stroke-opacity="0.50" stroke-width="1.00" transform="matrix(1.00, 0.00, 0.00, -1.00, -0.5, 397.3)"></path><path d="M 764.1 58.3 L 764.1 396.4 " fill="none" stroke="#FEFFFE" stroke-opacity="0.50" stroke-width="1.00" transform="matrix(1.00, 0.00, 0.00, -1.00, -0.5, 397.3)"></path><path d="M 1.5 114.5 L 139.4 114.5 " fill="none" stroke="#FEFFFE" stroke-opacity="0.50" stroke-width="1.00" transform="matrix(1.00, 0.00, 0.00, -1.00, -0.5, 397.3)"></path><path d="M 139.4 114.5 L 889.6 114.5 " fill="none" stroke="#FEFFFE" stroke-opacity="0.50" stroke-width="1.00" transform="matrix(1.00, 0.00, 0.00, -1.00, -0.5, 397.3)"></path><path d="M 1.5 170.8 L 139.4 170.8 " fill="none" stroke="#FEFFFE" stroke-opacity="0.50" stroke-width="1.00" transform="matrix(1.00, 0.00, 0.00, -1.00, -0.5, 397.3)"></path><path d="M 139.4 170.8 L 889.6 170.8 " fill="none" stroke="#FEFFFE" stroke-opacity="0.50" stroke-width="1.00" transform="matrix(1.00, 0.00, 0.00, -1.00, -0.5, 397.3)"></path><path d="M 1.5 227.1 L 139.4 227.1 " fill="none" stroke="#FEFFFE" stroke-opacity="0.50" stroke-width="1.00" transform="matrix(1.00, 0.00, 0.00, -1.00, -0.5, 397.3)"></path><path d="M 139.4 227.1 L 889.6 227.1 " fill="none" stroke="#FEFFFE" stroke-opacity="0.50" stroke-width="1.00" transform="matrix(1.00, 0.00, 0.00, -1.00, -0.5, 397.3)"></path><path d="M 1.5 283.3 L 139.4 283.3 " fill="none" stroke="#FEFFFE" stroke-opacity="0.50" stroke-width="1.00" transform="matrix(1.00, 0.00, 0.00, -1.00, -0.5, 397.3)"></path><path d="M 139.4 283.3 L 889.6 283.3 " fill="none" stroke="#FEFFFE" stroke-opacity="0.50" stroke-width="1.00" transform="matrix(1.00, 0.00, 0.00, -1.00, -0.5, 397.3)"></path><path d="M 1.5 339.6 L 139.4 339.6 " fill="none" stroke="#FEFFFE" stroke-opacity="0.50" stroke-width="1.00" transform="matrix(1.00, 0.00, 0.00, -1.00, -0.5, 397.3)"></path><path d="M 139.4 339.6 L 889.6 339.6 " fill="none" stroke="#FEFFFE" stroke-opacity="0.50" stroke-width="1.00" transform="matrix(1.00, 0.00, 0.00, -1.00, -0.5, 397.3)"></path><path d="M 139.4 1.5 L 139.4 396.4 " fill="none" stroke="#FEFFFE" stroke-opacity="0.50" stroke-width="4.00" transform="matrix(1.00, 0.00, 0.00, -1.00, -0.5, 397.3)"></path><path d="M 1.5 58.3 L 889.6 58.3 " fill="none" stroke="#FEFFFE" stroke-opacity="0.50" stroke-width="1.00" transform="matrix(1.00, 0.00, 0.00, -1.00, -0.5, 397.3)"></path><path d="M 2.0 1.5 L 2.0 58.3 " fill="none" stroke="#FEFFFE" stroke-opacity="0.50" stroke-width="1.00" transform="matrix(1.00, 0.00, 0.00, -1.00, -0.5, 397.3)"></path><path d="M 2.0 58.3 L 2.0 396.4 " fill="none" stroke="#FEFFFE" stroke-opacity="0.50" stroke-width="1.00" transform="matrix(1.00, 0.00, 0.00, -1.00, -0.5, 397.3)"></path><path d="M 889.1 1.5 L 889.1 58.3 " fill="none" stroke="#FEFFFE" stroke-opacity="0.50" stroke-width="1.00" transform="matrix(1.00, 0.00, 0.00, -1.00, -0.5, 397.3)"></path><path d="M 889.1 58.3 L 889.1 396.4 " fill="none" stroke="#FEFFFE" stroke-opacity="0.50" stroke-width="1.00" transform="matrix(1.00, 0.00, 0.00, -1.00, -0.5, 397.3)"></path><path d="M 1.5 2.0 L 889.6 2.0 " fill="none" stroke="#FEFFFE" stroke-opacity="0.50" stroke-width="1.00" transform="matrix(1.00, 0.00, 0.00, -1.00, -0.5, 397.3)"></path><path d="M 1.5 395.9 L 139.4 395.9 " fill="none" stroke="#FEFFFE" stroke-opacity="0.50" stroke-width="1.00" transform="matrix(1.00, 0.00, 0.00, -1.00, -0.5, 397.3)"></path><path d="M 139.4 395.9 L 889.6 395.9 " fill="none" stroke="#FEFFFE" stroke-opacity="0.50" stroke-width="1.00" transform="matrix(1.00, 0.00, 0.00, -1.00, -0.5, 397.3)"></path></g></g><g><clipPath id="clip-279"><path d="M 1.0 395.8 L 140.9 395.8 L 140.9 338.6 L 1.0 338.6 Z M 1.0 395.8 "></path></clipPath><g clip-path="url(#clip-279)"><path d="M 1.5 395.3 L 138.9 395.3 L 138.9 339.1 L 1.5 339.1 Z M 1.5 395.3 " fill="#869ABB"></path><path d="M 138.9 395.3 L 263.8 395.3 L 263.8 339.1 L 138.9 339.1 Z M 138.9 395.3 " fill="#869ABB"></path><path d="M 1.5 339.1 L 138.9 339.1 L 138.9 282.8 L 1.5 282.8 Z M 1.5 339.1 " fill="#869ABB"></path></g></g><g><clipPath id="clip-280"><path d="M 1.0 395.8 L 140.9 395.8 L 140.9 338.6 L 1.0 338.6 Z M 1.0 395.8 "></path></clipPath><g clip-path="url(#clip-280)"><path d="M 264.4 2.0 L 264.4 58.3 " fill="none" stroke="#FEFFFE" stroke-opacity="0.50" stroke-width="1.00" transform="matrix(1.00, 0.00, 0.00, -1.00, -0.5, 397.3)"></path><path d="M 264.4 58.3 L 264.4 114.5 " fill="none" stroke="#FEFFFE" stroke-opacity="0.50" stroke-width="1.00" transform="matrix(1.00, 0.00, 0.00, -1.00, -0.5, 397.3)"></path><path d="M 2.0 114.5 L 139.4 114.5 " fill="none" stroke="#FEFFFE" stroke-opacity="0.50" stroke-width="1.00" transform="matrix(1.00, 0.00, 0.00, -1.00, -0.5, 397.3)"></path><path d="M 139.4 114.5 L 264.4 114.5 " fill="none" stroke="#FEFFFE" stroke-opacity="0.50" stroke-width="1.00" transform="matrix(1.00, 0.00, 0.00, -1.00, -0.5, 397.3)"></path><path d="M 139.4 1.5 L 139.4 114.5 " fill="none" stroke="#FEFFFE" stroke-opacity="0.50" stroke-width="4.00" transform="matrix(1.00, 0.00, 0.00, -1.00, -0.5, 397.3)"></path><path d="M 1.5 58.3 L 264.4 58.3 " fill="none" stroke="#FEFFFE" stroke-opacity="0.50" stroke-width="1.00" transform="matrix(1.00, 0.00, 0.00, -1.00, -0.5, 397.3)"></path><path d="M 2.0 1.5 L 2.0 58.3 " fill="none" stroke="#FEFFFE" stroke-opacity="0.50" stroke-width="1.00" transform="matrix(1.00, 0.00, 0.00, -1.00, -0.5, 397.3)"></path><path d="M 2.0 58.3 L 2.0 114.5 " fill="none" stroke="#FEFFFE" stroke-opacity="0.50" stroke-width="1.00" transform="matrix(1.00, 0.00, 0.00, -1.00, -0.5, 397.3)"></path><path d="M 1.5 2.0 L 264.4 2.0 " fill="none" stroke="#FEFFFE" stroke-opacity="0.50" stroke-width="1.00" transform="matrix(1.00, 0.00, 0.00, -1.00, -0.5, 397.3)"></path></g></g><g><clipPath id="clip-281"><path d="M 136.9 395.8 L 264.3 395.8 L 264.3 338.6 L 136.9 338.6 Z M 136.9 395.8 "></path></clipPath><g clip-path="url(#clip-281)"><path d="M 1.5 395.3 L 138.9 395.3 L 138.9 339.1 L 1.5 339.1 Z M 1.5 395.3 " fill="#869ABB"></path><path d="M 138.9 395.3 L 263.8 395.3 L 263.8 339.1 L 138.9 339.1 Z M 138.9 395.3 " fill="#869ABB"></path><path d="M 263.8 395.3 L 388.8 395.3 L 388.8 339.1 L 263.8 339.1 Z M 263.8 395.3 " fill="#869ABB"></path><path d="M 1.5 339.1 L 138.9 339.1 L 138.9 282.8 L 1.5 282.8 Z M 1.5 339.1 " fill="#869ABB"></path></g></g><image xlink:href="../../D55510CF-6CC6-4C3C-BC8C-B86DBACA13BB/assets/769658594DB1201C8F3AB3A752E35090.png" width="106.00" height="32.00" transform="matrix(1.00, 0.00, -0.00, -1.00, 149.0, 378.0)"></image><g><clipPath id="clip-282"><path d="M 136.9 395.8 L 264.3 395.8 L 264.3 338.6 L 136.9 338.6 Z M 136.9 395.8 "></path></clipPath><g clip-path="url(#clip-282)"><g><clipPath id="clip-283"><path d="M 140.9 339.6 L 263.3 339.6 L 263.3 394.8 L 140.9 394.8 Z M 140.9 339.6 "></path></clipPath><g clip-path="url(#clip-283)"><text xml:space="preserve" font-family="Chalkduster" font-size="16.0" fill="#FEFFFE" transform="matrix(1.00, 0.00, -0.00, -1.00, 154.0, 360.0)">C</text><text xml:space="preserve" font-family="Chalkduster" font-size="16.0" fill="#FEFFFE" transform="matrix(1.00, 0.00, -0.00, -1.00, 167.0, 360.0)">o</text><text xml:space="preserve" font-family="Chalkduster" font-size="16.0" fill="#FEFFFE" transform="matrix(1.00, 0.00, -0.00, -1.00, 179.0, 360.0)">m</text><text xml:space="preserve" font-family="Chalkduster" font-size="16.0" fill="#FEFFFE" transform="matrix(1.00, 0.00, -0.00, -1.00, 195.2, 360.0)">p</text><text xml:space="preserve" font-family="Chalkduster" font-size="16.0" fill="#FEFFFE" transform="matrix(1.00, 0.00, -0.00, -1.00, 205.0, 360.0)">u</text><text xml:space="preserve" font-family="Chalkduster" font-size="16.0" fill="#FEFFFE" transform="matrix(1.00, 0.00, -0.00, -1.00, 215.9, 360.0)">t</text><text xml:space="preserve" font-family="Chalkduster" font-size="16.0" fill="#FEFFFE" transform="matrix(1.00, 0.00, -0.00, -1.00, 223.0, 360.0)">e</text><text xml:space="preserve" font-family="Chalkduster" font-size="16.0" fill="#FEFFFE" transform="matrix(1.00, 0.00, -0.00, -1.00, 232.9, 360.0)"> </text><text xml:space="preserve" font-family="Chalkduster" font-size="16.0" fill="#FEFFFE" transform="matrix(1.00, 0.00, -0.00, -1.00, 240.9, 360.0)">1</text></g></g></g></g><g><clipPath id="clip-284"><path d="M 136.9 395.8 L 264.3 395.8 L 264.3 338.6 L 136.9 338.6 Z M 136.9 395.8 "></path></clipPath><g clip-path="url(#clip-284)"><path d="M 264.4 1.5 L 264.4 58.3 " fill="none" stroke="#FEFFFE" stroke-opacity="0.50" stroke-width="1.00" transform="matrix(1.00, 0.00, 0.00, -1.00, -0.5, 397.3)"></path><path d="M 264.4 58.3 L 264.4 114.5 " fill="none" stroke="#FEFFFE" stroke-opacity="0.50" stroke-width="1.00" transform="matrix(1.00, 0.00, 0.00, -1.00, -0.5, 397.3)"></path><path d="M 389.3 2.0 L 389.3 58.3 " fill="none" stroke="#FEFFFE" stroke-opacity="0.50" stroke-width="1.00" transform="matrix(1.00, 0.00, 0.00, -1.00, -0.5, 397.3)"></path><path d="M 389.3 58.3 L 389.3 114.5 " fill="none" stroke="#FEFFFE" stroke-opacity="0.50" stroke-width="1.00" transform="matrix(1.00, 0.00, 0.00, -1.00, -0.5, 397.3)"></path><path d="M 2.0 114.5 L 139.4 114.5 " fill="none" stroke="#FEFFFE" stroke-opacity="0.50" stroke-width="1.00" transform="matrix(1.00, 0.00, 0.00, -1.00, -0.5, 397.3)"></path><path d="M 139.4 114.5 L 389.3 114.5 " fill="none" stroke="#FEFFFE" stroke-opacity="0.50" stroke-width="1.00" transform="matrix(1.00, 0.00, 0.00, -1.00, -0.5, 397.3)"></path><path d="M 139.4 1.5 L 139.4 114.5 " fill="none" stroke="#FEFFFE" stroke-opacity="0.50" stroke-width="4.00" transform="matrix(1.00, 0.00, 0.00, -1.00, -0.5, 397.3)"></path><path d="M 2.0 58.3 L 389.3 58.3 " fill="none" stroke="#FEFFFE" stroke-opacity="0.50" stroke-width="1.00" transform="matrix(1.00, 0.00, 0.00, -1.00, -0.5, 397.3)"></path><path d="M 2.0 2.0 L 2.0 58.3 " fill="none" stroke="#FEFFFE" stroke-opacity="0.50" stroke-width="1.00" transform="matrix(1.00, 0.00, 0.00, -1.00, -0.5, 397.3)"></path><path d="M 2.0 58.3 L 2.0 114.5 " fill="none" stroke="#FEFFFE" stroke-opacity="0.50" stroke-width="1.00" transform="matrix(1.00, 0.00, 0.00, -1.00, -0.5, 397.3)"></path><path d="M 2.0 2.0 L 389.3 2.0 " fill="none" stroke="#FEFFFE" stroke-opacity="0.50" stroke-width="1.00" transform="matrix(1.00, 0.00, 0.00, -1.00, -0.5, 397.3)"></path></g></g><g><clipPath id="clip-285"><path d="M 263.3 395.8 L 389.3 395.8 L 389.3 338.6 L 263.3 338.6 Z M 263.3 395.8 "></path></clipPath><g clip-path="url(#clip-285)"><path d="M 138.9 395.3 L 263.8 395.3 L 263.8 339.1 L 138.9 339.1 Z M 138.9 395.3 " fill="#869ABB"></path><path d="M 263.8 395.3 L 388.8 395.3 L 388.8 339.1 L 263.8 339.1 Z M 263.8 395.3 " fill="#869ABB"></path><path d="M 388.8 395.3 L 513.7 395.3 L 513.7 339.1 L 388.8 339.1 Z M 388.8 395.3 " fill="#869ABB"></path></g></g><image xlink:href="../../D55510CF-6CC6-4C3C-BC8C-B86DBACA13BB/assets/530467D521B7D6F399558FA266B94881.png" width="106.00" height="32.00" transform="matrix(1.00, 0.00, -0.00, -1.00, 273.0, 378.0)"></image><g><clipPath id="clip-286"><path d="M 263.3 395.8 L 389.3 395.8 L 389.3 338.6 L 263.3 338.6 Z M 263.3 395.8 "></path></clipPath><g clip-path="url(#clip-286)"><g><clipPath id="clip-287"><path d="M 264.3 339.6 L 388.3 339.6 L 388.3 394.8 L 264.3 394.8 Z M 264.3 339.6 "></path></clipPath><g clip-path="url(#clip-287)"><text xml:space="preserve" font-family="Chalkduster" font-size="16.0" fill="#FEFFFE" transform="matrix(1.00, 0.00, -0.00, -1.00, 278.0, 360.0)">C</text><text xml:space="preserve" font-family="Chalkduster" font-size="16.0" fill="#FEFFFE" transform="matrix(1.00, 0.00, -0.00, -1.00, 291.0, 360.0)">o</text><text xml:space="preserve" font-family="Chalkduster" font-size="16.0" fill="#FEFFFE" transform="matrix(1.00, 0.00, -0.00, -1.00, 303.0, 360.0)">m</text><text xml:space="preserve" font-family="Chalkduster" font-size="16.0" fill="#FEFFFE" transform="matrix(1.00, 0.00, -0.00, -1.00, 319.2, 360.0)">p</text><text xml:space="preserve" font-family="Chalkduster" font-size="16.0" fill="#FEFFFE" transform="matrix(1.00, 0.00, -0.00, -1.00, 329.0, 360.0)">u</text><text xml:space="preserve" font-family="Chalkduster" font-size="16.0" fill="#FEFFFE" transform="matrix(1.00, 0.00, -0.00, -1.00, 339.9, 360.0)">t</text><text xml:space="preserve" font-family="Chalkduster" font-size="16.0" fill="#FEFFFE" transform="matrix(1.00, 0.00, -0.00, -1.00, 347.0, 360.0)">e</text><text xml:space="preserve" font-family="Chalkduster" font-size="16.0" fill="#FEFFFE" transform="matrix(1.00, 0.00, -0.00, -1.00, 356.9, 360.0)"> </text><text xml:space="preserve" font-family="Chalkduster" font-size="16.0" fill="#FEFFFE" transform="matrix(1.00, 0.00, -0.00, -1.00, 364.9, 360.0)">2</text></g></g></g></g><g><clipPath id="clip-288"><path d="M 263.3 395.8 L 389.3 395.8 L 389.3 338.6 L 263.3 338.6 Z M 263.3 395.8 "></path></clipPath><g clip-path="url(#clip-288)"><path d="M 264.4 1.5 L 264.4 58.3 " fill="none" stroke="#FEFFFE" stroke-opacity="0.50" stroke-width="1.00" transform="matrix(1.00, 0.00, 0.00, -1.00, -0.5, 397.3)"></path><path d="M 264.4 58.3 L 264.4 114.5 " fill="none" stroke="#FEFFFE" stroke-opacity="0.50" stroke-width="1.00" transform="matrix(1.00, 0.00, 0.00, -1.00, -0.5, 397.3)"></path><path d="M 389.3 1.5 L 389.3 58.3 " fill="none" stroke="#FEFFFE" stroke-opacity="0.50" stroke-width="1.00" transform="matrix(1.00, 0.00, 0.00, -1.00, -0.5, 397.3)"></path><path d="M 389.3 58.3 L 389.3 114.5 " fill="none" stroke="#FEFFFE" stroke-opacity="0.50" stroke-width="1.00" transform="matrix(1.00, 0.00, 0.00, -1.00, -0.5, 397.3)"></path><path d="M 514.3 2.0 L 514.3 114.5 " fill="none" stroke="#FEFFFE" stroke-opacity="0.50" stroke-width="4.00" transform="matrix(1.00, 0.00, 0.00, -1.00, -0.5, 397.3)"></path><path d="M 139.4 114.5 L 514.3 114.5 " fill="none" stroke="#FEFFFE" stroke-opacity="0.50" stroke-width="1.00" transform="matrix(1.00, 0.00, 0.00, -1.00, -0.5, 397.3)"></path><path d="M 139.4 2.0 L 139.4 114.5 " fill="none" stroke="#FEFFFE" stroke-opacity="0.50" stroke-width="4.00" transform="matrix(1.00, 0.00, 0.00, -1.00, -0.5, 397.3)"></path><path d="M 139.4 58.3 L 514.3 58.3 " fill="none" stroke="#FEFFFE" stroke-opacity="0.50" stroke-width="1.00" transform="matrix(1.00, 0.00, 0.00, -1.00, -0.5, 397.3)"></path><path d="M 139.4 2.0 L 514.3 2.0 " fill="none" stroke="#FEFFFE" stroke-opacity="0.50" stroke-width="1.00" transform="matrix(1.00, 0.00, 0.00, -1.00, -0.5, 397.3)"></path></g></g><g><clipPath id="clip-289"><path d="M 388.3 395.8 L 515.7 395.8 L 515.7 338.6 L 388.3 338.6 Z M 388.3 395.8 "></path></clipPath><g clip-path="url(#clip-289)"><path d="M 263.8 395.3 L 388.8 395.3 L 388.8 339.1 L 263.8 339.1 Z M 263.8 395.3 " fill="#869ABB"></path><path d="M 388.8 395.3 L 513.7 395.3 L 513.7 339.1 L 388.8 339.1 Z M 388.8 395.3 " fill="#869ABB"></path><path d="M 513.7 395.3 L 638.7 395.3 L 638.7 339.1 L 513.7 339.1 Z M 513.7 395.3 " fill="#869ABB"></path></g></g><image xlink:href="../../D55510CF-6CC6-4C3C-BC8C-B86DBACA13BB/assets/4428FEEA42197C511D1202861DED1AFD.png" width="108.00" height="32.00" transform="matrix(1.00, 0.00, -0.00, -1.00, 397.0, 378.0)"></image><g><clipPath id="clip-290"><path d="M 388.3 395.8 L 515.7 395.8 L 515.7 338.6 L 388.3 338.6 Z M 388.3 395.8 "></path></clipPath><g clip-path="url(#clip-290)"><g><clipPath id="clip-291"><path d="M 389.3 339.6 L 511.7 339.6 L 511.7 394.8 L 389.3 394.8 Z M 389.3 339.6 "></path></clipPath><g clip-path="url(#clip-291)"><text xml:space="preserve" font-family="Chalkduster" font-size="16.0" fill="#FEFFFE" transform="matrix(1.00, 0.00, -0.00, -1.00, 402.0, 360.0)">C</text><text xml:space="preserve" font-family="Chalkduster" font-size="16.0" fill="#FEFFFE" transform="matrix(1.00, 0.00, -0.00, -1.00, 415.0, 360.0)">o</text><text xml:space="preserve" font-family="Chalkduster" font-size="16.0" fill="#FEFFFE" transform="matrix(1.00, 0.00, -0.00, -1.00, 427.0, 360.0)">m</text><text xml:space="preserve" font-family="Chalkduster" font-size="16.0" fill="#FEFFFE" transform="matrix(1.00, 0.00, -0.00, -1.00, 443.2, 360.0)">p</text><text xml:space="preserve" font-family="Chalkduster" font-size="16.0" fill="#FEFFFE" transform="matrix(1.00, 0.00, -0.00, -1.00, 453.0, 360.0)">u</text><text xml:space="preserve" font-family="Chalkduster" font-size="16.0" fill="#FEFFFE" transform="matrix(1.00, 0.00, -0.00, -1.00, 463.9, 360.0)">t</text><text xml:space="preserve" font-family="Chalkduster" font-size="16.0" fill="#FEFFFE" transform="matrix(1.00, 0.00, -0.00, -1.00, 471.0, 360.0)">e</text><text xml:space="preserve" font-family="Chalkduster" font-size="16.0" fill="#FEFFFE" transform="matrix(1.00, 0.00, -0.00, -1.00, 480.9, 360.0)"> </text><text xml:space="preserve" font-family="Chalkduster" font-size="16.0" fill="#FEFFFE" transform="matrix(1.00, 0.00, -0.00, -1.00, 488.9, 360.0)">3</text></g></g></g></g><g><clipPath id="clip-292"><path d="M 388.3 395.8 L 515.7 395.8 L 515.7 338.6 L 388.3 338.6 Z M 388.3 395.8 "></path></clipPath><g clip-path="url(#clip-292)"><path d="M 264.4 2.0 L 264.4 58.3 " fill="none" stroke="#FEFFFE" stroke-opacity="0.50" stroke-width="1.00" transform="matrix(1.00, 0.00, 0.00, -1.00, -0.5, 397.3)"></path><path d="M 264.4 58.3 L 264.4 114.5 " fill="none" stroke="#FEFFFE" stroke-opacity="0.50" stroke-width="1.00" transform="matrix(1.00, 0.00, 0.00, -1.00, -0.5, 397.3)"></path><path d="M 389.3 1.5 L 389.3 58.3 " fill="none" stroke="#FEFFFE" stroke-opacity="0.50" stroke-width="1.00" transform="matrix(1.00, 0.00, 0.00, -1.00, -0.5, 397.3)"></path><path d="M 389.3 58.3 L 389.3 114.5 " fill="none" stroke="#FEFFFE" stroke-opacity="0.50" stroke-width="1.00" transform="matrix(1.00, 0.00, 0.00, -1.00, -0.5, 397.3)"></path><path d="M 514.3 1.5 L 514.3 114.5 " fill="none" stroke="#FEFFFE" stroke-opacity="0.50" stroke-width="4.00" transform="matrix(1.00, 0.00, 0.00, -1.00, -0.5, 397.3)"></path><path d="M 639.2 2.0 L 639.2 58.3 " fill="none" stroke="#FEFFFE" stroke-opacity="0.50" stroke-width="1.00" transform="matrix(1.00, 0.00, 0.00, -1.00, -0.5, 397.3)"></path><path d="M 639.2 58.3 L 639.2 114.5 " fill="none" stroke="#FEFFFE" stroke-opacity="0.50" stroke-width="1.00" transform="matrix(1.00, 0.00, 0.00, -1.00, -0.5, 397.3)"></path><path d="M 264.4 114.5 L 639.2 114.5 " fill="none" stroke="#FEFFFE" stroke-opacity="0.50" stroke-width="1.00" transform="matrix(1.00, 0.00, 0.00, -1.00, -0.5, 397.3)"></path><path d="M 264.4 58.3 L 639.2 58.3 " fill="none" stroke="#FEFFFE" stroke-opacity="0.50" stroke-width="1.00" transform="matrix(1.00, 0.00, 0.00, -1.00, -0.5, 397.3)"></path><path d="M 264.4 2.0 L 639.2 2.0 " fill="none" stroke="#FEFFFE" stroke-opacity="0.50" stroke-width="1.00" transform="matrix(1.00, 0.00, 0.00, -1.00, -0.5, 397.3)"></path></g></g><g><clipPath id="clip-293"><path d="M 511.7 395.8 L 639.2 395.8 L 639.2 338.6 L 511.7 338.6 Z M 511.7 395.8 "></path></clipPath><g clip-path="url(#clip-293)"><path d="M 388.8 395.3 L 513.7 395.3 L 513.7 339.1 L 388.8 339.1 Z M 388.8 395.3 " fill="#869ABB"></path><path d="M 513.7 395.3 L 638.7 395.3 L 638.7 339.1 L 513.7 339.1 Z M 513.7 395.3 " fill="#869ABB"></path><path d="M 638.7 395.3 L 763.6 395.3 L 763.6 339.1 L 638.7 339.1 Z M 638.7 395.3 " fill="#869ABB"></path></g></g><image xlink:href="../../D55510CF-6CC6-4C3C-BC8C-B86DBACA13BB/assets/2B8F4EDCD1DF0638CE3749ED49873FB2.png" width="90.00" height="32.00" transform="matrix(1.00, 0.00, -0.00, -1.00, 532.0, 378.0)"></image><g><clipPath id="clip-294"><path d="M 511.7 395.8 L 639.2 395.8 L 639.2 338.6 L 511.7 338.6 Z M 511.7 395.8 "></path></clipPath><g clip-path="url(#clip-294)"><g><clipPath id="clip-295"><path d="M 515.7 339.6 L 638.2 339.6 L 638.2 394.8 L 515.7 394.8 Z M 515.7 339.6 "></path></clipPath><g clip-path="url(#clip-295)"><text xml:space="preserve" font-family="Chalkduster" font-size="16.0" fill="#FEFFFE" transform="matrix(1.00, 0.00, -0.00, -1.00, 537.0, 360.0)">E</text><text xml:space="preserve" font-family="Chalkduster" font-size="16.0" fill="#FEFFFE" transform="matrix(1.00, 0.00, -0.00, -1.00, 548.8, 360.0)">p</text><text xml:space="preserve" font-family="Chalkduster" font-size="16.0" fill="#FEFFFE" transform="matrix(1.00, 0.00, -0.00, -1.00, 558.9, 360.0)">o</text><text xml:space="preserve" font-family="Chalkduster" font-size="16.0" fill="#FEFFFE" transform="matrix(1.00, 0.00, -0.00, -1.00, 570.9, 360.0)">u</text><text xml:space="preserve" font-family="Chalkduster" font-size="16.0" fill="#FEFFFE" transform="matrix(1.00, 0.00, -0.00, -1.00, 581.7, 360.0)">t</text><text xml:space="preserve" font-family="Chalkduster" font-size="16.0" fill="#FEFFFE" transform="matrix(1.00, 0.00, -0.00, -1.00, 588.9, 360.0)">a</text><text xml:space="preserve" font-family="Chalkduster" font-size="16.0" fill="#FEFFFE" transform="matrix(1.00, 0.00, -0.00, -1.00, 599.9, 360.0)"> </text><text xml:space="preserve" font-family="Chalkduster" font-size="16.0" fill="#FEFFFE" transform="matrix(1.00, 0.00, -0.00, -1.00, 607.9, 360.0)">1</text></g></g></g></g><g><clipPath id="clip-296"><path d="M 511.7 395.8 L 639.2 395.8 L 639.2 338.6 L 511.7 338.6 Z M 511.7 395.8 "></path></clipPath><g clip-path="url(#clip-296)"><path d="M 389.3 2.0 L 389.3 58.3 " fill="none" stroke="#FEFFFE" stroke-opacity="0.50" stroke-width="1.00" transform="matrix(1.00, 0.00, 0.00, -1.00, -0.5, 397.3)"></path><path d="M 389.3 58.3 L 389.3 114.5 " fill="none" stroke="#FEFFFE" stroke-opacity="0.50" stroke-width="1.00" transform="matrix(1.00, 0.00, 0.00, -1.00, -0.5, 397.3)"></path><path d="M 514.3 1.5 L 514.3 114.5 " fill="none" stroke="#FEFFFE" stroke-opacity="0.50" stroke-width="4.00" transform="matrix(1.00, 0.00, 0.00, -1.00, -0.5, 397.3)"></path><path d="M 639.2 1.5 L 639.2 58.3 " fill="none" stroke="#FEFFFE" stroke-opacity="0.50" stroke-width="1.00" transform="matrix(1.00, 0.00, 0.00, -1.00, -0.5, 397.3)"></path><path d="M 639.2 58.3 L 639.2 114.5 " fill="none" stroke="#FEFFFE" stroke-opacity="0.50" stroke-width="1.00" transform="matrix(1.00, 0.00, 0.00, -1.00, -0.5, 397.3)"></path><path d="M 764.1 2.0 L 764.1 58.3 " fill="none" stroke="#FEFFFE" stroke-opacity="0.50" stroke-width="1.00" transform="matrix(1.00, 0.00, 0.00, -1.00, -0.5, 397.3)"></path><path d="M 764.1 58.3 L 764.1 114.5 " fill="none" stroke="#FEFFFE" stroke-opacity="0.50" stroke-width="1.00" transform="matrix(1.00, 0.00, 0.00, -1.00, -0.5, 397.3)"></path><path d="M 389.3 114.5 L 764.1 114.5 " fill="none" stroke="#FEFFFE" stroke-opacity="0.50" stroke-width="1.00" transform="matrix(1.00, 0.00, 0.00, -1.00, -0.5, 397.3)"></path><path d="M 389.3 58.3 L 764.1 58.3 " fill="none" stroke="#FEFFFE" stroke-opacity="0.50" stroke-width="1.00" transform="matrix(1.00, 0.00, 0.00, -1.00, -0.5, 397.3)"></path><path d="M 389.3 2.0 L 764.1 2.0 " fill="none" stroke="#FEFFFE" stroke-opacity="0.50" stroke-width="1.00" transform="matrix(1.00, 0.00, 0.00, -1.00, -0.5, 397.3)"></path></g></g><g><clipPath id="clip-297"><path d="M 638.2 395.8 L 764.1 395.8 L 764.1 338.6 L 638.2 338.6 Z M 638.2 395.8 "></path></clipPath><g clip-path="url(#clip-297)"><path d="M 513.7 395.3 L 638.7 395.3 L 638.7 339.1 L 513.7 339.1 Z M 513.7 395.3 " fill="#869ABB"></path><path d="M 638.7 395.3 L 763.6 395.3 L 763.6 339.1 L 638.7 339.1 Z M 638.7 395.3 " fill="#869ABB"></path><path d="M 763.6 395.3 L 888.5 395.3 L 888.5 339.1 L 763.6 339.1 Z M 763.6 395.3 " fill="#869ABB"></path></g></g><image xlink:href="../../D55510CF-6CC6-4C3C-BC8C-B86DBACA13BB/assets/9383B51057CC135F09A649658AB8DE55.png" width="90.00" height="32.00" transform="matrix(1.00, 0.00, -0.00, -1.00, 656.0, 378.0)"></image><g><clipPath id="clip-298"><path d="M 638.2 395.8 L 764.1 395.8 L 764.1 338.6 L 638.2 338.6 Z M 638.2 395.8 "></path></clipPath><g clip-path="url(#clip-298)"><g><clipPath id="clip-299"><path d="M 639.2 339.6 L 763.1 339.6 L 763.1 394.8 L 639.2 394.8 Z M 639.2 339.6 "></path></clipPath><g clip-path="url(#clip-299)"><text xml:space="preserve" font-family="Chalkduster" font-size="16.0" fill="#FEFFFE" transform="matrix(1.00, 0.00, -0.00, -1.00, 661.0, 360.0)">E</text><text xml:space="preserve" font-family="Chalkduster" font-size="16.0" fill="#FEFFFE" transform="matrix(1.00, 0.00, -0.00, -1.00, 672.8, 360.0)">p</text><text xml:space="preserve" font-family="Chalkduster" font-size="16.0" fill="#FEFFFE" transform="matrix(1.00, 0.00, -0.00, -1.00, 682.9, 360.0)">o</text><text xml:space="preserve" font-family="Chalkduster" font-size="16.0" fill="#FEFFFE" transform="matrix(1.00, 0.00, -0.00, -1.00, 694.9, 360.0)">u</text><text xml:space="preserve" font-family="Chalkduster" font-size="16.0" fill="#FEFFFE" transform="matrix(1.00, 0.00, -0.00, -1.00, 705.7, 360.0)">t</text><text xml:space="preserve" font-family="Chalkduster" font-size="16.0" fill="#FEFFFE" transform="matrix(1.00, 0.00, -0.00, -1.00, 712.9, 360.0)">a</text><text xml:space="preserve" font-family="Chalkduster" font-size="16.0" fill="#FEFFFE" transform="matrix(1.00, 0.00, -0.00, -1.00, 723.9, 360.0)"> </text><text xml:space="preserve" font-family="Chalkduster" font-size="16.0" fill="#FEFFFE" transform="matrix(1.00, 0.00, -0.00, -1.00, 731.9, 360.0)">2</text></g></g></g></g><g><clipPath id="clip-300"><path d="M 638.2 395.8 L 764.1 395.8 L 764.1 338.6 L 638.2 338.6 Z M 638.2 395.8 "></path></clipPath><g clip-path="url(#clip-300)"><path d="M 514.3 2.0 L 514.3 114.5 " fill="none" stroke="#FEFFFE" stroke-opacity="0.50" stroke-width="4.00" transform="matrix(1.00, 0.00, 0.00, -1.00, -0.5, 397.3)"></path><path d="M 639.2 1.5 L 639.2 58.3 " fill="none" stroke="#FEFFFE" stroke-opacity="0.50" stroke-width="1.00" transform="matrix(1.00, 0.00, 0.00, -1.00, -0.5, 397.3)"></path><path d="M 639.2 58.3 L 639.2 114.5 " fill="none" stroke="#FEFFFE" stroke-opacity="0.50" stroke-width="1.00" transform="matrix(1.00, 0.00, 0.00, -1.00, -0.5, 397.3)"></path><path d="M 764.1 1.5 L 764.1 58.3 " fill="none" stroke="#FEFFFE" stroke-opacity="0.50" stroke-width="1.00" transform="matrix(1.00, 0.00, 0.00, -1.00, -0.5, 397.3)"></path><path d="M 764.1 58.3 L 764.1 114.5 " fill="none" stroke="#FEFFFE" stroke-opacity="0.50" stroke-width="1.00" transform="matrix(1.00, 0.00, 0.00, -1.00, -0.5, 397.3)"></path><path d="M 514.3 114.5 L 889.1 114.5 " fill="none" stroke="#FEFFFE" stroke-opacity="0.50" stroke-width="1.00" transform="matrix(1.00, 0.00, 0.00, -1.00, -0.5, 397.3)"></path><path d="M 514.3 58.3 L 889.1 58.3 " fill="none" stroke="#FEFFFE" stroke-opacity="0.50" stroke-width="1.00" transform="matrix(1.00, 0.00, 0.00, -1.00, -0.5, 397.3)"></path><path d="M 889.1 2.0 L 889.1 58.3 " fill="none" stroke="#FEFFFE" stroke-opacity="0.50" stroke-width="1.00" transform="matrix(1.00, 0.00, 0.00, -1.00, -0.5, 397.3)"></path><path d="M 889.1 58.3 L 889.1 114.5 " fill="none" stroke="#FEFFFE" stroke-opacity="0.50" stroke-width="1.00" transform="matrix(1.00, 0.00, 0.00, -1.00, -0.5, 397.3)"></path><path d="M 514.3 2.0 L 889.1 2.0 " fill="none" stroke="#FEFFFE" stroke-opacity="0.50" stroke-width="1.00" transform="matrix(1.00, 0.00, 0.00, -1.00, -0.5, 397.3)"></path></g></g><g><clipPath id="clip-301"><path d="M 763.1 395.8 L 889.0 395.8 L 889.0 338.6 L 763.1 338.6 Z M 763.1 395.8 "></path></clipPath><g clip-path="url(#clip-301)"><path d="M 638.7 395.3 L 763.6 395.3 L 763.6 339.1 L 638.7 339.1 Z M 638.7 395.3 " fill="#869ABB"></path><path d="M 763.6 395.3 L 888.5 395.3 L 888.5 339.1 L 763.6 339.1 Z M 763.6 395.3 " fill="#869ABB"></path></g></g><image xlink:href="../../D55510CF-6CC6-4C3C-BC8C-B86DBACA13BB/assets/01EAD8C765E9B848C34AF342E4683A9D.png" width="92.00" height="32.00" transform="matrix(1.00, 0.00, -0.00, -1.00, 780.0, 378.0)"></image><g><clipPath id="clip-302"><path d="M 763.1 395.8 L 889.0 395.8 L 889.0 338.6 L 763.1 338.6 Z M 763.1 395.8 "></path></clipPath><g clip-path="url(#clip-302)"><g><clipPath id="clip-303"><path d="M 764.1 339.6 L 888.0 339.6 L 888.0 394.8 L 764.1 394.8 Z M 764.1 339.6 "></path></clipPath><g clip-path="url(#clip-303)"><text xml:space="preserve" font-family="Chalkduster" font-size="16.0" fill="#FEFFFE" transform="matrix(1.00, 0.00, -0.00, -1.00, 785.0, 360.0)">E</text><text xml:space="preserve" font-family="Chalkduster" font-size="16.0" fill="#FEFFFE" transform="matrix(1.00, 0.00, -0.00, -1.00, 796.8, 360.0)">p</text><text xml:space="preserve" font-family="Chalkduster" font-size="16.0" fill="#FEFFFE" transform="matrix(1.00, 0.00, -0.00, -1.00, 806.9, 360.0)">o</text><text xml:space="preserve" font-family="Chalkduster" font-size="16.0" fill="#FEFFFE" transform="matrix(1.00, 0.00, -0.00, -1.00, 818.9, 360.0)">u</text><text xml:space="preserve" font-family="Chalkduster" font-size="16.0" fill="#FEFFFE" transform="matrix(1.00, 0.00, -0.00, -1.00, 829.7, 360.0)">t</text><text xml:space="preserve" font-family="Chalkduster" font-size="16.0" fill="#FEFFFE" transform="matrix(1.00, 0.00, -0.00, -1.00, 836.9, 360.0)">a</text><text xml:space="preserve" font-family="Chalkduster" font-size="16.0" fill="#FEFFFE" transform="matrix(1.00, 0.00, -0.00, -1.00, 847.9, 360.0)"> </text><text xml:space="preserve" font-family="Chalkduster" font-size="16.0" fill="#FEFFFE" transform="matrix(1.00, 0.00, -0.00, -1.00, 855.9, 360.0)">3</text></g></g></g></g><g><clipPath id="clip-304"><path d="M 763.1 395.8 L 889.0 395.8 L 889.0 338.6 L 763.1 338.6 Z M 763.1 395.8 "></path></clipPath><g clip-path="url(#clip-304)"><path d="M 639.2 2.0 L 639.2 58.3 " fill="none" stroke="#FEFFFE" stroke-opacity="0.50" stroke-width="1.00" transform="matrix(1.00, 0.00, 0.00, -1.00, -0.5, 397.3)"></path><path d="M 639.2 58.3 L 639.2 114.5 " fill="none" stroke="#FEFFFE" stroke-opacity="0.50" stroke-width="1.00" transform="matrix(1.00, 0.00, 0.00, -1.00, -0.5, 397.3)"></path><path d="M 764.1 1.5 L 764.1 58.3 " fill="none" stroke="#FEFFFE" stroke-opacity="0.50" stroke-width="1.00" transform="matrix(1.00, 0.00, 0.00, -1.00, -0.5, 397.3)"></path><path d="M 764.1 58.3 L 764.1 114.5 " fill="none" stroke="#FEFFFE" stroke-opacity="0.50" stroke-width="1.00" transform="matrix(1.00, 0.00, 0.00, -1.00, -0.5, 397.3)"></path><path d="M 639.2 114.5 L 889.1 114.5 " fill="none" stroke="#FEFFFE" stroke-opacity="0.50" stroke-width="1.00" transform="matrix(1.00, 0.00, 0.00, -1.00, -0.5, 397.3)"></path><path d="M 639.2 58.3 L 889.6 58.3 " fill="none" stroke="#FEFFFE" stroke-opacity="0.50" stroke-width="1.00" transform="matrix(1.00, 0.00, 0.00, -1.00, -0.5, 397.3)"></path><path d="M 889.1 1.5 L 889.1 58.3 " fill="none" stroke="#FEFFFE" stroke-opacity="0.50" stroke-width="1.00" transform="matrix(1.00, 0.00, 0.00, -1.00, -0.5, 397.3)"></path><path d="M 889.1 58.3 L 889.1 114.5 " fill="none" stroke="#FEFFFE" stroke-opacity="0.50" stroke-width="1.00" transform="matrix(1.00, 0.00, 0.00, -1.00, -0.5, 397.3)"></path><path d="M 639.2 2.0 L 889.6 2.0 " fill="none" stroke="#FEFFFE" stroke-opacity="0.50" stroke-width="1.00" transform="matrix(1.00, 0.00, 0.00, -1.00, -0.5, 397.3)"></path></g></g></g></svg>