<?xml version="1.0" encoding="UTF-8" standalone="no"?><svg xmlns="http://www.w3.org/2000/svg" xmlns:xlink="http://www.w3.org/1999/xlink" clip-rule="evenodd" stroke-miterlimit="4.00" viewBox="0 0 319 89"><desc>SVG generated by Keynote</desc><defs></defs><g transform="matrix(1.00, 0.00, -0.00, -1.00, 0.0, 89.0)"><image xlink:href="12F707A629F0EDE559DABC68C700678D.png" width="316.00" height="86.00" transform="matrix(1.00, 0.00, -0.00, -1.00, 1.1, 87.9)" opacity="0.50"></image><g><clipPath id="clip-820"><path d="M 264.6 68.9 C 322.8 55.6 322.8 34.0 264.6 20.7 C 206.3 7.4 111.9 7.4 53.7 20.7 C -4.5 34.0 -4.5 55.6 53.7 68.9 C 111.9 82.3 206.3 82.3 264.6 68.9 Z M 264.6 68.9 "></path></clipPath><g clip-path="url(#clip-820)"><image xlink:href="../../CEFA4209-80C9-472B-8D2B-058B96531B72/assets/59DBD66EA15A3D40E065F836EF2595FD.jpeg" width="400.00" height="400.00" transform="matrix(1.00, 0.00, -0.00, -1.00, 10.1, 78.9)"></image></g></g><path d="M 80.0 12.0 C 79.6 12.1 79.1 12.2 78.3 12.3 C 78.7 12.3 78.9 12.4 78.9 12.5 C 79.5 12.3 80.4 12.2 81.7 12.0 C 81.7 11.9 81.0 12.0 80.6 12.1 C 80.0 12.2 80.1 12.1 80.0 12.0 C 80.0 12.0 80.0 12.0 80.0 12.0 Z M 79.8 77.1 C 78.7 76.9 79.9 77.3 80.3 77.4 C 80.4 77.3 80.5 77.3 80.9 77.4 C 81.0 77.6 80.0 77.5 79.2 77.5 C 76.2 76.9 78.5 76.9 79.8 77.1 C 79.8 77.1 79.8 77.1 79.8 77.1 Z M 241.5 76.5 C 243.9 76.1 241.3 76.2 240.9 76.2 C 242.0 76.0 241.0 75.7 242.5 75.5 C 242.7 75.6 243.3 75.6 243.6 75.6 C 242.9 75.8 242.0 75.9 241.9 76.0 C 242.8 75.9 243.9 75.6 244.1 75.7 C 242.3 76.1 243.8 76.0 244.2 76.1 C 242.5 76.3 242.0 76.6 241.5 76.5 C 241.5 76.5 241.5 76.5 241.5 76.5 Z M 269.4 19.1 C 270.6 19.4 271.5 19.7 271.2 19.8 C 270.0 19.4 269.2 19.2 268.5 19.0 C 268.3 19.0 268.6 19.2 267.5 19.0 C 266.2 18.5 267.0 18.3 267.6 18.4 C 267.7 18.6 271.9 19.5 269.4 19.1 C 269.4 19.1 269.4 19.1 269.4 19.1 Z M 205.2 10.1 C 202.9 9.8 205.0 10.5 202.7 10.2 C 202.8 10.0 202.5 9.7 204.0 9.8 C 204.1 9.9 205.0 10.0 205.2 10.1 C 205.2 10.1 205.2 10.1 205.2 10.1 Z M 174.0 80.1 C 174.0 80.2 175.7 80.1 175.3 80.4 C 174.4 80.4 173.6 80.4 172.8 80.4 C 172.6 80.2 172.9 80.1 174.0 80.1 C 174.0 80.1 174.0 80.1 174.0 80.1 Z M 256.9 71.4 C 259.2 71.2 261.6 70.4 260.9 70.7 C 261.8 70.8 259.4 71.8 259.5 71.5 C 259.2 71.3 255.1 71.8 256.9 71.4 C 256.9 71.4 256.9 71.4 256.9 71.4 Z M 93.3 74.6 C 96.1 75.1 95.6 74.3 97.3 74.9 C 96.7 74.8 96.4 74.9 96.2 74.9 C 96.7 75.0 97.3 75.0 97.3 75.1 C 96.0 75.0 94.4 74.9 93.3 74.6 C 93.3 74.6 93.3 74.6 93.3 74.6 Z M 120.0 8.6 C 120.4 8.6 120.7 8.5 120.6 8.4 C 122.5 8.3 122.5 8.1 123.7 8.2 C 123.7 8.5 122.1 8.5 120.6 8.6 C 120.6 8.6 120.1 8.7 120.0 8.6 C 120.0 8.6 120.0 8.6 120.0 8.6 Z M 175.0 8.5 C 174.9 8.3 173.8 8.2 175.6 8.2 C 177.7 8.5 175.8 8.7 173.7 8.8 C 173.7 8.9 173.7 9.0 173.7 9.1 C 174.5 9.1 175.1 9.2 175.6 9.2 C 175.9 8.9 177.3 9.6 180.6 9.4 C 179.0 9.6 180.7 9.9 178.7 9.7 C 179.2 9.9 177.8 9.9 178.0 10.1 C 178.9 10.0 181.0 10.1 180.5 9.8 C 181.6 9.8 182.5 9.9 183.0 9.9 C 183.8 10.2 181.0 9.9 181.8 10.2 C 182.4 10.2 182.5 10.3 183.0 10.3 C 183.1 10.2 182.9 10.1 183.6 10.1 C 185.6 10.3 183.3 10.4 186.1 10.5 C 186.3 10.4 185.4 10.3 185.5 10.2 C 186.8 10.1 186.7 10.3 188.0 10.2 C 188.2 10.4 187.1 10.4 188.0 10.5 C 188.8 10.1 190.5 10.8 192.3 10.6 C 191.1 10.0 192.6 10.7 194.2 10.3 C 194.5 10.4 193.4 10.7 194.8 10.8 C 194.3 10.1 199.8 10.6 195.4 9.9 C 197.7 10.0 198.5 9.6 196.7 9.4 C 200.7 9.8 199.4 9.4 201.0 9.4 C 202.5 9.5 200.2 9.5 201.0 9.7 C 199.3 9.6 199.7 9.8 198.5 9.6 C 198.5 9.7 198.2 9.7 197.9 9.8 C 199.5 9.7 201.5 10.2 200.3 10.4 C 199.4 10.3 200.2 10.1 199.1 10.0 C 199.5 10.4 197.9 9.9 197.8 10.1 C 198.6 10.5 196.2 10.6 198.5 10.8 C 198.5 10.6 198.5 10.5 198.5 10.4 C 199.1 10.4 199.7 10.5 200.3 10.5 C 200.8 10.8 200.4 10.9 200.9 11.0 C 201.9 11.1 202.4 11.1 202.7 11.0 C 201.5 10.8 200.0 10.5 202.1 10.6 C 201.3 11.0 205.0 10.9 203.3 11.1 C 205.5 11.4 206.7 11.1 206.9 11.4 C 208.1 11.5 207.3 11.2 208.7 11.3 C 210.9 11.7 210.6 11.4 213.5 11.8 C 213.9 11.5 213.8 11.9 214.7 12.0 C 214.7 11.9 214.7 11.8 214.7 11.6 C 215.8 11.9 218.1 12.3 220.6 12.3 C 221.2 12.4 220.7 12.6 222.3 12.7 C 224.0 12.5 226.0 13.1 228.1 13.0 C 228.2 13.2 229.6 13.4 230.3 13.4 C 230.7 13.5 229.6 13.7 230.9 13.8 C 231.7 13.7 230.3 13.5 232.0 13.6 C 231.8 13.8 233.7 13.6 233.7 13.9 C 233.2 13.9 232.6 13.9 232.0 13.9 C 232.8 14.0 232.5 14.1 233.1 14.2 C 233.1 13.9 234.4 14.3 234.8 14.4 C 234.8 14.3 235.0 14.2 235.4 14.2 C 236.4 14.3 237.1 14.4 237.6 14.4 C 238.9 14.7 236.9 14.5 238.1 14.7 C 238.8 14.2 240.0 15.1 242.6 15.1 C 243.1 15.3 244.2 15.6 245.8 15.9 C 246.0 15.7 244.2 15.6 244.2 15.4 C 246.5 15.8 243.8 15.2 245.3 15.4 C 248.6 16.1 250.8 16.5 254.2 17.3 C 254.1 17.1 256.8 17.5 256.7 17.6 C 256.0 17.4 258.1 18.1 259.2 18.4 C 259.5 18.0 261.3 18.0 261.4 17.9 C 261.7 18.1 261.6 18.1 261.8 18.5 C 263.5 19.0 264.2 18.8 266.3 19.7 C 266.2 19.5 267.9 19.8 269.3 20.1 C 268.8 20.2 268.0 20.1 267.2 20.1 C 269.1 20.5 269.3 20.7 270.9 21.1 C 272.7 20.8 275.0 22.3 276.3 22.0 C 278.7 22.7 278.2 22.8 280.3 23.5 C 280.2 23.3 280.5 23.3 281.1 23.4 C 279.7 23.0 278.7 22.9 277.9 22.4 C 281.2 23.3 272.0 20.0 277.4 21.3 C 277.5 21.4 277.0 21.5 278.1 21.8 C 281.1 22.6 279.4 21.8 278.2 21.5 C 280.3 22.0 282.2 22.7 280.8 22.0 C 285.2 23.3 282.3 22.6 283.8 23.2 C 291.3 25.5 299.1 28.9 304.2 33.3 C 304.6 33.2 306.9 35.7 307.4 36.6 C 308.7 37.7 309.6 39.1 309.5 39.7 C 309.9 39.8 310.1 41.4 310.4 41.5 C 310.1 40.9 310.1 40.4 310.4 41.0 C 311.0 43.2 310.8 46.4 310.7 47.7 C 310.2 48.3 309.7 49.7 309.4 50.6 C 309.2 50.7 309.5 50.0 309.2 50.5 C 309.2 50.7 308.1 52.6 307.6 52.9 C 308.1 52.5 308.3 51.7 307.6 52.4 C 307.8 52.5 307.0 53.4 307.3 53.3 C 306.3 54.3 305.7 55.0 304.7 55.8 C 305.5 55.1 305.8 54.6 305.8 54.3 C 305.3 55.0 304.8 55.5 304.1 55.9 C 304.5 56.0 303.2 56.8 301.9 57.9 C 301.4 58.1 301.1 58.2 299.9 58.9 C 299.4 59.4 301.9 57.9 300.5 58.9 C 300.5 58.7 299.1 59.4 299.6 59.4 C 297.8 60.3 296.9 61.0 295.2 61.6 C 297.3 60.7 295.6 61.1 295.1 61.3 C 294.7 61.5 294.0 61.8 294.0 61.9 C 294.1 62.0 295.1 61.5 295.2 61.5 C 293.8 62.1 293.5 62.7 292.9 62.7 C 293.5 62.4 293.6 62.2 292.8 62.5 C 292.8 63.0 288.1 64.6 289.6 63.8 C 289.7 63.9 291.4 63.2 291.6 63.0 C 291.0 63.1 288.4 64.3 288.9 63.8 C 290.4 63.2 290.4 63.4 292.1 62.6 C 292.2 62.3 293.2 61.8 293.8 61.5 C 291.2 62.7 290.6 63.2 290.1 63.1 C 288.8 63.6 289.7 63.6 287.5 64.4 C 284.3 65.5 286.9 64.3 286.0 64.5 C 283.1 65.7 284.1 65.7 285.5 65.4 C 283.1 66.3 282.5 66.7 279.4 67.5 C 279.5 67.4 279.9 67.1 280.9 66.7 C 281.0 66.8 283.5 66.1 283.3 66.0 C 282.9 65.8 280.9 66.3 277.6 67.3 C 278.5 67.4 278.6 67.1 275.1 68.1 C 275.7 68.3 273.3 68.5 273.3 68.8 C 273.5 68.8 274.8 68.5 275.9 68.1 C 275.9 68.3 275.5 68.5 274.4 68.9 C 273.6 69.0 273.0 69.3 270.8 69.8 C 270.5 69.6 272.1 69.2 272.4 68.9 C 271.2 69.3 271.0 69.5 269.7 69.8 C 268.6 69.8 268.6 69.5 268.6 69.2 C 270.0 68.7 272.2 68.2 270.4 68.5 C 275.7 67.1 270.3 68.9 272.3 68.4 C 274.4 67.5 273.3 68.3 276.6 67.3 C 277.6 67.0 277.9 66.8 278.2 66.6 C 278.0 66.7 276.1 67.0 278.1 66.3 C 278.7 66.3 279.8 66.1 281.4 65.6 C 281.4 65.5 278.1 66.4 281.3 65.4 C 282.9 64.9 281.6 65.7 283.7 65.0 C 283.7 64.9 284.2 64.7 284.4 64.6 C 281.4 65.6 284.9 64.2 282.8 64.8 C 285.4 63.8 283.4 64.9 285.0 64.2 C 285.1 64.1 287.8 63.4 287.8 63.1 C 286.8 63.6 284.7 64.3 284.9 63.9 C 286.8 63.3 294.4 59.9 291.7 61.5 C 292.7 60.9 297.3 58.2 297.1 58.6 C 295.7 59.3 295.8 59.4 295.7 59.6 C 298.2 58.0 299.6 57.5 301.5 55.7 C 299.1 57.3 300.7 55.7 299.1 56.5 C 298.4 57.0 297.4 57.5 297.2 57.7 C 297.7 57.8 298.8 57.0 299.1 56.6 C 299.2 56.8 299.4 57.0 299.5 57.2 C 296.4 58.8 294.5 59.9 292.7 60.7 C 294.2 59.9 289.6 61.7 291.4 60.8 C 292.2 60.6 294.0 59.8 295.4 59.2 C 295.4 59.1 295.4 59.0 295.3 58.9 C 295.9 58.6 296.8 58.2 296.8 58.1 C 295.0 59.1 293.8 59.4 292.5 60.2 C 292.5 60.2 292.4 60.1 292.4 60.1 C 292.1 60.2 291.7 60.4 291.8 60.3 C 292.5 59.9 293.4 59.5 293.5 59.4 C 292.0 60.0 291.6 60.0 289.8 60.7 C 290.1 60.2 287.6 60.9 290.2 59.7 C 290.7 59.8 292.1 59.3 292.1 59.4 C 292.9 59.2 294.3 58.4 294.9 58.0 C 294.1 58.2 292.7 58.8 292.5 58.6 C 293.6 58.1 294.4 57.5 295.2 57.4 C 293.1 58.6 296.4 57.0 297.4 56.8 C 297.1 56.8 296.6 57.0 296.2 57.0 C 297.8 56.1 298.6 55.9 298.5 55.5 C 300.1 54.4 299.9 54.8 300.9 54.1 C 300.0 54.3 301.5 53.4 300.6 53.7 C 302.3 52.4 301.3 53.6 301.9 53.1 C 302.3 52.7 302.3 52.6 302.7 52.2 C 303.5 51.7 304.5 50.6 304.9 50.6 C 305.3 50.1 305.4 50.1 305.7 49.6 C 305.8 49.4 305.8 49.2 305.9 49.0 C 306.0 48.9 306.3 48.6 306.2 48.5 C 305.2 49.7 305.5 49.2 304.1 50.5 C 304.1 50.6 303.9 50.9 304.3 50.6 C 303.5 51.6 303.0 51.8 302.0 52.7 C 301.8 52.6 301.4 52.5 300.5 53.5 C 300.6 53.1 300.3 53.2 300.6 52.9 C 301.2 52.6 302.0 52.1 302.7 51.6 C 302.6 51.5 302.5 51.5 302.8 51.2 C 303.1 51.0 303.6 50.6 303.8 50.2 C 303.9 50.2 303.8 50.4 303.7 50.6 C 305.0 49.4 304.3 49.6 305.0 48.8 C 304.8 48.8 304.4 49.4 304.6 48.9 C 305.1 48.0 305.3 47.9 305.6 47.5 C 305.5 47.4 305.4 47.4 305.5 47.2 C 305.9 46.7 305.4 48.7 306.1 47.8 C 305.9 47.6 306.4 46.7 306.6 46.6 C 306.7 46.9 306.2 47.4 306.3 47.6 C 307.1 45.7 307.0 47.7 307.3 45.7 C 307.2 45.6 307.1 45.6 307.0 45.6 C 307.0 46.4 306.7 46.4 306.5 46.3 C 306.3 46.9 305.9 47.1 305.8 47.7 C 305.5 47.3 306.1 47.1 306.3 46.5 C 306.0 46.4 305.8 47.0 305.6 47.0 C 306.3 45.7 306.0 45.4 306.2 44.0 C 306.0 44.4 306.0 43.3 305.8 43.4 C 306.2 44.5 305.3 44.2 305.3 44.3 C 305.4 45.0 305.8 44.7 305.9 45.1 C 305.7 45.3 305.5 45.2 305.2 45.1 C 305.3 44.5 305.3 44.6 305.1 44.2 C 305.2 43.8 305.6 43.3 305.9 43.8 C 305.8 43.7 305.4 42.9 305.6 42.8 C 305.9 43.6 305.7 42.6 305.9 43.1 C 305.9 42.4 305.0 41.3 304.5 40.3 C 304.5 40.4 304.2 40.1 304.1 40.2 C 305.0 41.0 304.6 41.5 305.0 42.2 C 304.8 41.9 304.8 42.2 304.8 42.3 C 304.5 41.6 304.1 41.2 303.8 40.5 C 303.7 40.5 303.7 40.6 303.6 40.6 C 303.0 39.5 303.0 39.7 302.0 39.0 C 301.8 38.6 302.5 38.7 302.8 38.7 C 302.3 38.4 300.7 36.8 301.5 37.9 C 300.5 37.0 301.0 37.0 299.7 36.1 C 299.5 36.3 300.7 37.1 300.1 37.1 C 298.9 36.3 299.8 36.5 298.7 36.0 C 298.7 35.8 298.9 35.6 297.7 34.9 C 298.4 35.5 297.5 34.9 297.1 34.8 C 297.6 35.2 298.0 35.5 298.3 35.7 C 296.3 34.4 295.8 34.1 293.8 33.1 C 294.6 33.3 293.5 32.6 295.0 33.2 C 293.6 32.7 292.1 31.6 291.2 31.4 C 292.1 31.9 293.4 32.6 293.9 32.9 C 289.7 30.9 286.9 30.1 282.1 28.1 C 283.0 28.4 284.1 28.8 284.3 28.8 C 283.7 28.6 282.8 28.3 282.9 28.2 C 284.6 28.8 286.1 29.4 287.0 29.6 C 288.3 30.3 286.1 29.5 287.5 30.1 C 287.8 30.1 290.3 31.3 289.5 30.6 C 287.1 29.8 284.8 28.7 283.7 27.9 C 281.1 27.5 283.5 28.3 280.5 27.8 C 280.7 27.7 280.0 27.4 279.1 27.1 C 279.9 27.7 276.3 26.4 275.9 26.3 C 277.4 26.5 282.5 28.0 280.0 26.9 C 281.0 27.8 273.9 24.9 275.2 25.7 C 271.7 24.8 273.1 24.8 270.9 24.6 C 270.9 24.4 271.2 24.4 270.1 24.1 C 269.1 23.8 268.7 23.8 268.2 23.8 C 273.6 25.3 271.9 25.2 275.1 26.1 C 274.6 26.0 274.1 25.8 274.2 25.9 C 274.2 26.0 274.1 26.0 273.4 25.8 C 273.2 25.4 270.7 25.1 270.0 24.7 C 271.0 25.0 272.0 25.2 271.7 25.0 C 269.6 24.5 268.6 24.2 267.5 23.8 C 266.4 23.4 264.5 22.9 262.9 22.5 C 263.9 22.8 262.6 22.6 261.4 22.4 C 259.8 22.0 260.5 21.7 258.6 21.4 C 258.6 22.0 256.5 20.9 254.0 20.8 C 254.3 20.5 251.2 19.8 250.5 20.0 C 250.4 19.8 249.2 19.7 248.4 19.5 C 248.2 19.3 249.2 19.4 248.4 19.3 C 247.7 19.2 248.3 19.6 247.4 19.4 C 246.2 19.2 246.5 18.9 244.8 18.7 C 244.7 18.9 245.6 19.0 244.7 19.0 C 243.3 18.6 241.9 18.4 243.1 18.9 C 240.9 18.6 242.0 18.3 239.9 18.0 C 240.5 18.2 240.5 18.3 239.3 18.2 C 238.6 17.8 238.5 17.7 238.3 17.6 C 237.6 17.7 237.8 17.8 236.1 17.4 C 236.1 17.6 236.0 17.7 236.0 17.8 C 235.2 17.6 234.0 17.5 233.8 17.4 C 235.3 17.6 234.9 17.4 235.5 17.4 C 234.0 17.1 231.1 16.5 233.3 17.1 C 231.2 16.9 232.3 16.7 230.6 16.6 C 231.6 17.0 230.6 16.6 228.8 16.4 C 229.0 16.8 227.7 16.3 226.6 16.2 C 226.7 16.4 226.4 16.5 225.4 16.4 C 225.5 16.3 224.8 16.2 223.7 16.1 C 223.7 16.2 226.1 16.6 223.7 16.3 C 222.6 16.1 222.6 15.8 220.8 15.6 C 220.4 15.3 222.4 15.6 222.0 15.3 C 220.5 15.4 220.1 15.2 217.9 14.9 C 218.8 15.4 213.6 15.1 216.1 15.5 C 215.4 15.5 214.3 15.7 213.8 15.4 C 214.6 15.4 213.1 15.1 213.2 15.0 C 212.2 15.0 209.8 14.6 209.7 14.8 C 211.9 14.9 211.9 15.2 212.6 15.4 C 209.3 15.2 206.4 14.9 206.7 14.6 C 206.6 14.7 206.2 14.7 206.1 14.8 C 207.2 14.8 207.9 15.3 206.6 15.2 C 206.9 15.0 205.9 14.8 204.9 14.7 C 204.8 14.9 200.4 14.2 201.2 14.7 C 203.0 14.6 204.4 15.0 203.0 15.1 C 201.9 14.8 199.5 14.5 200.1 14.3 C 199.4 14.4 198.8 14.4 198.2 14.5 C 197.7 14.6 199.0 14.7 198.8 14.9 C 197.9 14.8 196.5 14.8 196.4 14.7 C 198.8 14.8 195.1 14.4 197.6 14.4 C 196.1 14.3 195.8 14.2 194.6 14.1 C 194.6 14.2 194.1 14.2 194.0 14.2 C 195.0 14.1 196.1 14.3 195.8 14.6 C 193.6 14.5 194.0 14.2 192.1 14.1 C 191.6 14.3 189.1 14.5 187.8 14.2 C 190.3 14.3 187.6 14.1 189.1 14.0 C 191.3 14.3 191.9 14.1 192.7 13.9 C 191.8 13.7 189.9 13.5 189.7 13.8 C 190.9 13.9 190.9 13.8 191.5 13.8 C 191.5 13.9 191.1 14.0 190.3 14.0 C 189.3 13.8 187.0 13.9 188.5 13.6 C 186.9 13.7 185.2 13.4 183.6 13.5 C 185.4 13.6 186.7 13.7 187.2 14.0 C 185.7 14.0 184.2 13.7 184.2 13.8 C 184.3 14.0 186.7 14.1 187.2 14.3 C 185.3 14.4 182.4 13.6 184.7 14.3 C 183.7 14.2 182.2 14.1 181.7 14.0 C 183.0 14.0 181.6 13.6 181.0 13.6 C 179.9 13.5 179.0 13.5 178.5 13.6 C 180.3 13.6 181.6 14.0 180.4 13.9 C 180.1 13.8 179.7 13.9 179.2 14.0 C 179.1 13.8 177.1 13.9 176.7 13.7 C 176.8 13.9 177.8 13.9 177.9 14.0 C 176.8 14.1 175.1 14.4 174.2 14.0 C 175.0 14.0 176.0 14.1 176.1 14.0 C 172.9 13.5 171.8 13.2 168.0 13.0 C 168.5 13.0 168.7 12.9 168.6 12.9 C 166.2 12.8 164.6 12.7 164.9 12.5 C 163.4 12.5 162.6 12.7 161.8 12.8 C 163.4 12.9 163.9 12.7 164.9 12.9 C 164.3 12.9 166.1 13.4 166.8 13.5 C 169.5 13.3 169.6 13.8 172.4 13.6 C 171.6 13.9 174.4 13.7 173.6 14.0 C 171.0 13.6 168.6 13.8 164.9 13.6 C 165.4 13.4 165.8 13.2 164.3 13.1 C 161.9 13.0 163.1 13.3 161.1 13.3 C 160.3 13.1 161.5 13.0 160.5 12.9 C 159.9 13.0 158.0 13.0 157.4 12.8 C 160.0 12.8 156.9 12.6 158.6 12.5 C 157.8 12.5 157.3 12.4 156.8 12.4 C 159.3 12.7 154.3 12.7 156.1 12.9 C 152.7 13.1 155.9 12.3 153.0 12.4 C 154.4 12.6 152.6 12.7 150.5 12.7 C 150.0 12.4 147.9 12.4 146.2 12.4 C 147.1 12.5 147.7 12.5 146.2 12.7 C 147.0 12.8 148.5 12.7 149.3 12.6 C 149.3 12.7 149.6 12.8 149.9 12.8 C 147.9 12.9 148.7 13.0 148.1 13.1 C 147.5 13.0 145.9 13.1 145.6 12.9 C 145.6 13.0 145.0 13.0 145.0 13.1 C 147.6 13.1 144.5 13.4 146.2 13.5 C 147.3 13.4 146.6 13.2 148.1 13.2 C 149.5 13.5 146.9 13.5 146.2 13.8 C 147.4 14.0 148.9 13.6 149.3 13.9 C 147.7 14.2 145.2 14.1 143.1 14.0 C 143.2 14.4 139.7 14.0 139.4 14.4 C 139.1 14.4 138.7 14.3 138.2 14.2 C 137.6 14.5 136.9 14.2 136.3 14.2 C 136.2 14.4 136.4 14.5 136.9 14.5 C 134.4 14.5 133.8 14.5 130.8 14.8 C 130.3 14.6 129.7 14.5 129.5 14.3 C 130.2 14.3 130.9 14.2 131.3 14.1 C 127.3 14.2 129.9 14.8 127.1 14.5 C 127.2 14.7 129.2 14.9 127.7 15.0 C 125.1 14.8 121.5 15.3 121.6 14.6 C 119.3 14.5 117.8 15.1 116.7 14.8 C 116.0 14.9 115.8 15.0 115.5 15.1 C 116.2 15.2 117.1 15.2 118.0 15.3 C 119.3 15.1 119.9 15.3 118.6 15.0 C 120.6 14.9 121.1 15.0 122.2 15.1 C 119.4 15.4 116.9 15.3 116.8 15.7 C 115.8 15.6 115.1 15.5 114.4 15.4 C 114.1 15.6 111.0 15.9 110.8 15.7 C 112.8 15.6 115.0 15.1 113.1 15.1 C 108.0 15.7 105.1 15.5 100.7 16.2 C 100.6 16.0 100.9 15.8 100.1 15.9 C 100.1 16.0 100.0 16.2 99.5 16.3 C 98.2 16.4 97.4 16.4 95.5 16.6 C 95.6 16.4 95.3 16.2 94.3 16.3 C 93.8 16.6 92.0 17.3 90.9 17.3 C 92.0 17.2 90.6 17.0 89.8 17.1 C 90.5 17.4 84.7 17.5 86.4 17.6 C 84.1 17.9 83.1 17.9 83.1 17.8 C 82.3 18.0 81.7 18.1 80.9 18.3 C 80.4 18.0 76.5 18.8 76.0 18.8 C 77.3 18.7 77.5 18.3 76.5 18.4 C 75.8 18.7 72.4 19.5 71.8 19.5 C 72.0 19.4 72.2 19.1 73.8 18.8 C 71.0 19.2 71.1 19.6 70.2 19.9 C 70.2 19.6 69.0 20.1 68.6 20.2 C 67.7 20.2 68.7 20.1 68.6 19.9 C 67.6 20.0 67.2 20.0 66.0 20.2 C 66.4 20.4 65.0 20.5 64.5 20.6 C 64.3 20.8 63.6 21.0 62.5 21.3 C 63.9 20.6 56.2 22.1 58.1 22.0 C 56.6 22.6 56.5 22.1 54.6 22.5 C 54.5 22.6 54.0 22.8 53.6 22.9 C 53.3 23.0 53.7 22.9 54.2 22.9 C 53.9 23.0 53.0 23.2 52.7 23.2 C 52.4 23.3 52.2 23.3 52.0 23.3 C 51.6 23.3 51.2 23.4 49.5 23.8 C 51.0 23.8 46.1 24.6 46.9 24.8 C 45.4 24.8 42.9 26.1 40.2 26.5 C 40.3 26.6 39.6 26.8 39.5 26.9 C 39.1 27.1 42.6 26.1 40.4 26.9 C 37.6 27.5 39.1 27.0 38.7 27.0 C 31.7 29.3 24.9 32.1 20.7 34.6 C 21.2 34.3 21.2 34.4 20.4 35.0 C 18.9 35.3 15.4 38.5 15.1 39.1 C 14.6 39.1 13.7 40.8 13.4 41.0 C 13.6 40.7 13.8 40.0 13.3 40.6 C 13.3 41.1 12.9 41.5 12.8 42.2 C 12.4 42.3 12.2 44.1 11.9 43.2 C 11.8 43.5 11.8 43.7 11.7 43.8 C 12.0 43.9 11.9 44.2 12.1 43.7 C 11.7 45.1 12.0 45.4 12.1 46.6 C 12.3 46.8 12.2 45.9 12.4 46.5 C 12.4 46.5 12.3 46.5 12.3 46.6 C 12.3 46.8 12.5 46.8 12.4 47.0 C 12.3 47.0 12.2 46.6 11.9 46.7 C 12.2 47.2 12.0 47.7 12.4 47.9 C 12.0 47.0 12.7 47.4 12.7 48.0 C 12.3 47.6 13.9 49.9 14.8 50.6 C 15.0 51.2 14.0 49.8 13.9 50.0 C 15.2 51.5 15.2 51.4 15.6 51.4 C 16.4 52.3 16.6 52.7 18.0 53.6 C 18.7 54.2 17.4 53.4 18.3 54.0 C 18.8 54.3 19.1 54.3 20.0 54.9 C 21.9 56.7 29.2 59.3 33.0 61.5 C 31.4 60.7 33.6 61.4 36.0 62.2 C 36.1 62.4 35.7 62.4 36.6 62.7 C 36.5 62.5 37.3 62.7 38.9 63.2 C 39.1 63.3 38.7 63.4 39.6 63.7 C 40.4 63.6 42.4 64.5 43.8 64.7 C 44.3 65.1 40.7 64.0 40.4 64.1 C 44.5 65.5 45.4 65.4 48.9 66.4 C 47.0 66.0 50.1 67.0 50.7 67.2 C 49.9 66.7 52.8 67.3 50.8 66.6 C 52.2 67.0 54.2 67.4 54.3 67.5 C 53.9 67.5 52.6 67.2 52.6 67.2 C 54.4 67.6 55.3 68.1 55.7 68.0 C 55.1 67.8 54.8 67.6 54.8 67.5 C 55.1 67.5 55.4 67.4 55.8 67.5 C 54.4 67.8 58.4 68.4 58.7 68.3 C 59.0 68.7 59.2 68.8 59.1 68.9 C 60.8 69.3 60.6 69.0 61.6 69.1 C 61.3 69.3 60.9 69.5 62.5 69.9 C 62.2 69.5 64.2 70.0 63.6 69.5 C 67.9 70.2 68.7 70.7 71.4 71.1 C 71.4 71.0 70.6 70.9 71.4 71.0 C 72.6 71.3 73.7 71.5 74.5 71.8 C 75.2 71.7 74.3 71.5 75.1 71.6 C 77.0 72.1 76.5 72.3 78.2 72.8 C 80.4 72.9 79.6 72.9 81.0 72.9 C 80.4 72.8 79.7 72.5 80.5 72.6 C 81.8 73.0 82.3 73.4 82.6 73.5 C 81.6 73.4 80.9 73.2 80.4 73.1 C 80.1 73.2 78.7 73.0 79.8 73.3 C 78.4 73.1 76.9 72.8 74.9 72.5 C 75.6 72.9 73.2 72.3 73.8 72.7 C 76.0 73.0 76.5 73.2 78.7 73.5 C 78.2 73.1 80.4 73.6 80.9 73.7 C 80.9 73.6 82.4 73.8 82.0 73.6 C 83.7 73.7 83.6 73.9 85.3 74.1 C 85.4 74.2 85.2 74.3 85.8 74.4 C 86.5 74.2 87.0 74.6 87.5 74.7 C 87.2 74.4 89.6 74.8 89.8 74.7 C 89.2 74.6 88.2 74.5 88.1 74.4 C 90.9 74.7 88.7 74.2 88.2 74.0 C 88.3 74.1 87.2 74.3 87.1 74.1 C 89.4 74.2 83.9 73.2 85.9 73.6 C 87.7 73.9 87.6 73.7 89.4 74.0 C 91.4 74.6 88.9 74.6 91.0 75.2 C 92.3 75.1 93.1 75.3 93.3 75.1 C 93.6 75.2 93.9 75.3 94.4 75.4 C 95.0 75.3 92.7 75.0 94.4 75.1 C 95.3 75.3 94.3 75.5 96.1 75.6 C 96.9 75.5 93.9 75.1 95.6 75.2 C 97.4 75.8 95.2 75.1 97.3 75.3 C 97.5 75.3 97.8 75.4 98.5 75.5 C 98.6 75.6 98.3 75.7 99.0 75.8 C 99.5 75.5 99.8 76.1 101.4 76.1 C 102.2 75.9 99.8 75.8 100.3 75.6 C 102.0 76.1 103.1 75.9 103.7 76.0 C 102.3 76.0 106.0 76.3 106.1 76.6 C 105.7 76.3 106.5 76.5 108.5 76.4 C 108.6 76.9 111.0 76.7 111.5 77.1 C 111.8 77.0 112.4 77.0 112.7 76.9 C 112.0 76.8 111.3 76.7 111.5 76.6 C 112.1 76.7 112.7 76.7 113.3 76.8 C 114.3 77.0 111.7 77.4 115.7 77.6 C 115.2 77.2 117.0 77.3 118.1 77.2 C 118.0 77.0 116.5 77.1 116.3 77.0 C 117.7 76.9 119.1 77.2 119.9 77.4 C 122.3 77.4 125.1 77.7 128.5 77.8 C 129.3 78.0 125.6 77.8 127.9 78.1 C 128.9 78.1 128.4 77.9 129.7 78.0 C 128.5 79.0 139.0 78.5 139.6 79.0 C 140.1 78.8 143.1 79.0 142.8 78.7 C 140.7 78.9 139.4 78.5 138.4 78.3 C 136.5 78.4 140.1 78.6 138.4 78.6 C 138.2 78.5 135.7 78.5 135.9 78.3 C 138.6 78.4 134.5 78.0 136.5 77.8 C 139.0 78.0 143.9 77.8 142.8 78.1 C 142.8 78.0 141.7 78.0 141.6 78.1 C 144.3 78.3 146.0 78.1 147.2 78.0 C 148.4 78.2 153.4 77.9 152.1 78.0 C 152.6 78.3 149.2 77.9 149.6 78.2 C 154.8 78.3 154.9 78.1 158.4 78.3 C 157.3 78.0 162.0 77.9 161.5 78.0 C 161.5 78.2 162.6 78.4 164.6 78.1 C 164.3 78.4 165.4 78.5 166.5 78.5 C 167.0 78.3 165.6 78.3 165.9 78.1 C 166.9 78.1 168.0 78.1 169.0 78.1 C 169.1 78.2 168.9 78.3 169.6 78.3 C 170.8 78.2 175.0 77.8 174.6 78.0 C 172.9 78.3 177.5 78.2 174.6 78.5 C 175.4 78.4 175.5 78.5 176.5 78.5 C 176.5 78.4 176.5 78.3 176.5 78.2 C 178.8 78.1 177.7 78.5 179.6 78.5 C 179.8 78.4 180.6 78.3 180.9 78.2 C 180.1 78.2 180.0 78.3 179.0 78.3 C 180.1 77.9 176.9 78.2 177.1 77.9 C 179.3 77.8 179.3 78.1 180.2 78.1 C 182.9 77.9 181.7 78.0 184.6 78.0 C 184.6 77.9 183.8 77.9 184.0 77.8 C 187.5 77.7 187.1 78.2 189.5 77.9 C 189.0 78.0 186.8 78.3 188.3 78.2 C 189.9 78.0 190.4 77.8 192.6 77.6 C 192.7 77.7 192.5 77.8 193.2 77.8 C 194.1 77.7 194.2 77.5 195.0 77.3 C 195.2 77.4 196.4 77.3 196.8 77.2 C 197.6 77.4 196.6 77.5 197.5 77.5 C 199.3 77.4 200.2 76.8 201.7 76.7 C 201.6 77.1 203.3 76.9 204.7 76.7 C 205.0 77.0 208.1 76.7 210.1 76.6 C 209.7 76.4 211.8 76.3 211.3 76.1 C 210.3 76.2 209.8 76.2 209.5 76.1 C 211.8 75.9 212.6 76.3 214.3 75.8 C 215.1 75.8 216.2 75.9 217.8 75.8 C 217.9 75.7 215.0 75.8 216.6 75.6 C 216.7 75.7 217.3 75.6 217.8 75.5 C 217.6 75.8 218.8 75.7 219.6 75.8 C 220.9 75.5 223.8 75.5 222.4 75.3 C 224.6 75.1 223.2 75.6 224.8 75.5 C 224.0 75.2 226.8 74.9 225.3 74.9 C 227.5 74.5 227.4 75.0 226.5 75.2 C 228.5 75.0 228.9 74.8 230.0 74.8 C 229.0 74.7 232.0 74.2 230.5 74.5 C 230.0 74.8 232.3 74.4 232.8 74.4 C 232.0 74.3 233.1 74.2 231.6 74.3 C 233.1 74.0 235.3 73.7 236.6 73.8 C 238.4 73.3 240.1 73.1 239.4 73.4 C 241.1 73.1 240.4 73.2 242.1 73.0 C 242.1 73.0 241.6 73.0 241.5 73.0 C 243.9 72.6 243.4 72.8 246.4 72.4 C 246.1 72.7 248.0 72.4 248.6 72.5 C 247.4 72.7 246.4 72.7 245.4 72.8 C 245.2 73.0 246.2 72.9 245.4 73.1 C 245.3 73.0 244.8 73.1 244.3 73.1 C 246.3 73.0 241.9 73.9 243.3 73.4 C 243.3 73.5 243.4 73.5 243.8 73.4 C 243.4 73.2 243.4 73.3 243.7 73.0 C 242.8 73.3 241.9 73.1 241.6 73.4 C 241.7 73.5 242.6 73.3 242.7 73.3 C 240.3 73.9 241.9 73.2 240.0 73.5 C 239.6 73.9 240.6 73.8 241.1 73.8 C 239.3 74.1 237.8 74.3 237.3 74.2 C 235.6 74.6 237.4 74.4 236.2 74.7 C 235.6 74.7 235.6 74.5 234.5 74.6 C 233.3 74.9 235.2 74.7 234.0 74.9 C 232.6 75.0 234.9 74.5 232.8 74.7 C 233.3 75.0 230.9 74.9 231.1 75.1 C 232.3 74.9 232.4 75.2 231.7 75.1 C 228.9 75.1 227.1 76.2 224.3 75.9 C 224.3 76.0 223.8 76.1 223.7 76.2 C 225.8 76.1 228.9 75.8 229.5 76.1 C 231.1 75.8 230.9 75.6 231.2 75.5 C 233.1 75.5 233.0 75.6 231.8 76.1 C 228.6 76.6 227.2 76.5 225.0 76.7 C 223.8 77.0 225.1 76.8 225.6 76.9 C 218.7 77.4 224.0 77.5 221.5 77.7 C 221.6 77.6 221.1 77.5 220.4 77.6 C 220.4 77.7 219.4 77.8 219.2 77.9 C 219.7 77.8 219.9 77.9 219.8 78.0 C 218.1 78.2 218.7 77.9 218.6 77.8 C 219.9 77.6 220.8 77.5 220.9 77.4 C 219.2 77.7 217.9 77.6 216.8 77.9 C 215.2 77.7 217.6 77.1 216.7 77.0 C 217.0 76.8 215.7 77.7 214.5 77.9 C 212.3 78.1 212.3 78.3 210.3 78.5 C 209.8 78.3 212.3 78.2 212.1 78.0 C 211.5 78.1 211.4 78.0 210.8 78.1 C 209.5 78.2 209.6 78.4 208.5 78.6 C 207.9 78.4 207.5 78.6 206.7 78.7 C 205.4 78.7 207.5 78.5 206.1 78.5 C 204.6 78.6 203.6 79.0 203.1 79.0 C 203.0 78.9 203.2 78.8 202.5 78.8 C 200.8 79.1 200.4 79.1 202.5 79.1 C 200.6 79.2 199.8 79.4 200.1 79.6 C 202.9 79.4 203.6 79.3 205.0 79.6 C 205.5 79.3 206.3 79.4 207.4 79.4 C 206.7 79.0 208.6 79.3 209.2 79.0 C 208.5 79.0 207.8 79.0 207.3 79.0 C 210.3 78.8 210.3 78.8 212.7 78.2 C 212.7 78.3 213.0 78.4 213.3 78.4 C 212.5 78.6 210.4 78.7 210.3 78.9 C 212.0 79.1 212.6 78.6 214.5 78.7 C 215.3 78.4 212.9 78.5 214.5 78.4 C 215.3 78.5 216.3 78.5 217.5 78.5 C 218.7 78.3 219.4 78.2 220.4 78.0 C 220.5 78.1 220.6 78.1 221.6 78.0 C 221.5 77.9 220.5 77.9 221.6 77.8 C 224.7 77.8 226.7 77.8 229.7 77.3 C 228.6 77.3 226.2 77.3 227.4 77.2 C 228.7 77.2 230.5 76.7 231.9 76.7 C 232.4 76.8 230.3 76.8 230.8 77.2 C 232.1 77.0 233.0 76.9 233.6 76.9 C 233.6 76.8 235.1 76.6 234.7 76.4 C 233.6 76.6 233.3 76.9 233.1 76.8 C 233.9 76.0 237.2 76.5 239.2 76.2 C 240.6 75.9 238.2 76.1 239.7 75.8 C 240.7 75.6 241.3 76.1 239.8 76.4 C 238.8 76.4 238.4 76.8 238.1 76.5 C 237.7 76.6 237.0 76.7 237.1 76.8 C 237.8 76.7 237.7 76.9 238.2 76.9 C 237.1 77.0 237.0 77.5 236.0 77.3 C 236.6 77.2 236.8 77.1 237.1 77.0 C 234.1 77.5 233.1 77.4 231.4 77.5 C 232.4 77.6 231.4 77.6 231.5 77.8 C 232.8 77.6 235.3 77.4 233.7 77.7 C 232.7 77.5 232.0 78.4 230.9 78.2 C 231.7 78.1 231.6 78.0 232.0 77.9 C 230.9 78.0 230.9 77.8 229.7 77.9 C 226.0 78.7 223.1 78.4 217.0 79.5 C 214.9 79.7 218.9 79.2 218.7 79.0 C 218.1 79.1 218.0 79.0 217.5 79.1 C 217.5 79.4 216.4 79.2 215.8 79.5 C 215.9 79.2 213.0 79.7 211.6 79.6 C 211.5 79.7 211.7 79.8 211.0 79.9 C 206.6 79.9 198.6 80.9 195.2 80.8 C 195.3 81.0 193.8 81.1 193.4 81.3 C 191.2 81.3 192.2 81.1 189.1 81.5 C 187.5 81.6 189.4 81.3 189.7 81.2 C 185.0 81.5 180.8 81.5 177.8 81.8 C 176.3 82.0 177.8 81.6 174.7 81.7 C 174.7 82.0 169.8 81.6 169.1 82.0 C 167.2 82.1 163.8 81.7 165.3 82.0 C 162.7 82.0 164.4 81.7 163.4 81.7 C 161.6 81.7 163.9 82.3 162.2 82.3 C 162.3 82.0 160.8 82.2 159.6 81.9 C 161.1 81.9 162.0 81.9 162.2 81.8 C 160.9 81.9 161.0 81.7 159.0 81.8 C 157.6 81.9 153.3 82.1 152.1 81.7 C 152.0 81.8 152.4 81.9 152.7 82.0 C 151.5 82.0 150.0 81.7 150.2 82.0 C 147.4 82.0 146.2 81.7 144.6 81.9 C 143.3 82.0 145.0 81.7 141.4 81.6 C 141.3 81.8 135.0 81.6 133.3 81.3 C 133.2 81.7 132.9 81.3 132.1 81.3 C 132.0 81.4 132.2 81.5 131.4 81.5 C 131.3 81.4 130.8 81.4 130.2 81.4 C 130.7 81.1 127.9 81.4 127.7 81.2 C 128.3 81.2 128.3 81.0 127.8 80.9 C 127.6 81.2 125.0 80.6 125.3 80.9 C 125.8 81.0 127.6 81.0 127.1 81.2 C 124.7 81.2 125.6 80.9 124.0 80.8 C 124.1 80.9 125.1 81.1 124.0 81.1 C 122.3 80.9 123.9 81.0 122.8 80.7 C 121.9 80.8 120.3 80.8 119.7 80.8 C 119.9 80.8 119.4 80.6 119.1 80.6 C 116.0 80.3 108.9 80.1 105.9 79.5 C 105.6 79.5 105.0 79.5 105.2 79.7 C 103.4 79.4 103.5 79.5 101.7 79.2 C 101.7 79.3 101.7 79.4 101.7 79.5 C 99.3 79.5 101.5 79.2 99.9 79.1 C 99.7 79.6 99.0 78.8 97.6 78.7 C 97.4 78.8 96.7 78.7 96.9 78.9 C 94.7 78.7 94.9 78.3 92.9 78.2 C 93.4 78.3 93.6 79.1 93.4 79.3 C 93.0 79.2 92.5 79.0 91.7 78.9 C 92.7 78.8 92.2 77.8 89.5 77.8 C 91.0 77.9 91.5 78.0 91.2 78.2 C 89.1 78.0 88.4 77.7 86.6 77.5 C 86.3 77.7 87.6 77.9 87.1 78.1 C 86.7 78.1 86.4 78.1 86.5 78.2 C 84.7 77.9 84.6 77.7 82.6 77.6 C 82.6 77.5 83.0 77.5 83.7 77.7 C 83.7 77.5 83.7 77.3 84.9 77.4 C 85.0 77.6 84.3 77.8 86.0 77.9 C 86.0 77.8 86.0 77.6 86.1 77.5 C 84.8 77.3 81.9 76.7 81.6 76.8 C 82.2 77.0 83.1 77.2 82.6 77.4 C 80.5 77.0 79.9 76.6 78.2 76.3 C 75.2 75.9 70.1 75.0 70.6 75.5 C 68.9 75.1 69.5 75.2 68.0 74.9 C 68.4 75.2 66.2 74.7 66.3 74.9 C 68.2 75.2 67.6 75.1 69.5 75.4 C 69.4 75.5 69.1 75.6 68.4 75.5 C 68.3 75.3 67.5 75.2 66.3 75.0 C 66.5 75.1 67.6 75.5 66.3 75.3 C 66.2 75.2 65.9 75.1 65.3 75.0 C 65.3 74.9 65.3 74.8 65.3 74.6 C 66.0 74.7 66.9 74.8 67.5 74.8 C 66.9 74.7 66.9 74.6 66.4 74.5 C 66.1 74.6 64.0 74.0 63.8 74.2 C 64.6 74.3 65.2 74.5 64.3 74.4 C 64.1 74.4 62.7 74.0 62.2 74.0 C 64.0 74.5 63.3 74.4 64.2 74.8 C 62.1 74.5 62.5 74.2 60.1 73.9 C 60.1 73.7 60.1 73.5 60.8 73.5 C 59.4 72.7 55.9 72.5 54.8 72.2 C 55.6 72.4 56.5 72.2 55.3 72.0 C 55.3 72.1 54.5 71.8 54.3 71.9 C 53.8 72.3 54.8 72.7 55.6 73.2 C 54.7 72.9 54.5 73.0 53.6 72.8 C 53.4 72.6 54.3 72.4 53.3 72.2 C 52.9 72.5 49.5 71.3 48.7 71.4 C 50.1 71.7 51.1 72.1 49.6 71.8 C 49.9 71.7 46.9 71.0 46.8 70.8 C 49.2 71.3 50.0 71.3 51.5 71.7 C 49.6 71.2 53.0 71.8 49.7 71.0 C 48.2 70.8 47.4 70.9 44.1 70.0 C 43.0 69.6 44.1 69.6 42.5 69.2 C 42.9 69.5 39.5 68.6 41.6 69.0 C 40.4 68.7 39.8 68.4 39.2 68.2 C 40.7 68.9 33.2 66.8 34.2 67.4 C 34.3 67.1 34.0 66.6 33.7 66.4 C 32.2 66.2 30.7 65.5 27.4 64.1 C 27.4 64.5 26.8 63.9 25.5 63.4 C 25.2 63.4 26.3 64.0 25.4 63.6 C 23.9 62.8 23.9 62.8 23.6 62.6 C 22.6 62.1 21.9 61.7 21.4 61.4 C 21.3 61.4 21.6 61.7 21.8 61.9 C 18.2 59.7 16.4 59.0 14.1 57.1 C 15.0 58.0 15.5 57.8 14.7 57.2 C 14.2 56.9 13.7 56.6 13.4 56.5 C 13.8 57.1 13.6 56.8 12.6 55.9 C 11.6 55.1 12.7 56.5 12.0 55.8 C 11.3 55.0 11.8 55.4 11.5 54.9 C 11.2 54.6 10.8 54.3 10.5 53.9 C 11.0 54.6 10.3 54.0 9.7 53.5 C 10.3 53.7 10.1 53.4 9.1 52.2 C 9.1 52.0 9.6 52.6 9.3 52.1 C 9.1 51.8 8.2 51.0 7.9 50.0 C 8.1 50.2 8.2 50.4 8.3 50.3 C 7.6 49.4 7.6 48.4 7.5 47.5 C 7.5 48.4 7.2 48.0 7.2 48.5 C 7.1 47.4 6.6 46.3 6.9 45.6 C 6.9 47.0 7.3 45.6 7.3 44.7 C 7.1 44.5 7.2 46.0 6.9 45.6 C 6.6 45.1 7.0 44.0 6.8 43.5 C 6.7 43.6 6.8 44.2 6.7 44.3 C 6.7 43.5 6.5 44.6 6.6 43.9 C 6.9 43.5 6.6 43.0 6.6 42.6 C 6.8 42.1 7.5 41.2 7.5 40.7 C 7.4 40.6 7.1 41.3 7.0 41.4 C 7.6 39.1 8.3 38.7 9.4 36.8 C 9.6 36.6 9.9 36.4 10.4 35.9 C 10.3 35.8 10.5 35.5 10.8 35.1 C 11.6 34.4 12.4 33.8 13.5 33.0 C 13.5 33.3 13.0 33.8 14.5 32.7 C 14.5 32.5 13.9 33.0 14.4 32.5 C 14.4 32.6 14.8 32.3 14.9 32.2 C 14.8 32.1 14.8 32.1 14.8 32.1 C 14.3 32.4 13.9 32.7 13.5 33.0 C 13.5 32.9 13.3 32.9 13.0 33.1 C 14.6 31.6 14.8 32.1 15.9 31.0 C 16.4 31.2 16.8 31.0 15.9 31.9 C 17.0 31.1 17.7 30.5 18.0 30.1 C 16.5 31.0 16.9 30.5 16.4 30.7 C 17.3 30.1 17.2 30.0 17.7 29.6 C 18.9 29.1 16.7 30.7 18.9 29.5 C 17.1 30.2 20.2 28.4 21.5 27.9 C 21.2 27.9 20.8 28.1 21.4 27.7 C 24.6 25.8 24.8 26.8 26.9 25.4 C 26.8 25.6 27.8 25.2 28.3 25.1 C 26.4 25.9 26.0 26.2 25.2 26.6 C 25.4 26.6 25.9 26.4 26.5 26.2 C 26.4 26.0 26.9 25.8 27.8 25.5 C 28.3 25.2 27.9 24.9 29.5 24.1 C 29.6 24.1 29.5 24.3 30.3 24.0 C 31.0 23.6 29.7 24.6 33.3 23.3 C 32.6 23.4 32.2 23.4 32.4 23.2 C 34.1 22.5 33.8 22.7 36.2 21.8 C 37.2 21.9 34.7 22.8 34.1 23.3 C 35.7 22.7 37.0 22.0 38.8 21.6 C 37.4 21.9 38.6 21.3 40.2 20.7 C 41.7 20.3 40.2 21.1 42.1 20.6 C 43.5 20.1 44.2 19.7 42.8 20.0 C 46.0 19.2 45.2 19.1 48.1 18.4 C 48.2 18.6 47.4 18.8 46.3 19.0 C 46.5 19.0 46.2 19.2 47.3 19.0 C 48.2 18.6 49.7 18.2 51.3 17.8 C 52.9 17.3 53.8 17.1 54.3 16.9 C 56.6 16.8 59.1 15.8 61.4 15.5 C 60.5 15.9 64.4 14.9 65.6 15.0 C 66.3 14.8 68.4 13.9 67.6 14.2 C 67.8 14.6 69.2 14.2 70.3 14.1 C 70.3 14.0 70.3 13.9 70.3 13.9 C 72.7 13.4 73.2 13.6 74.1 13.6 C 77.0 13.0 80.3 12.9 84.0 12.1 C 85.0 12.3 85.8 12.1 88.0 12.0 C 88.0 11.8 89.7 11.6 91.4 11.4 C 91.0 11.2 92.6 11.1 92.6 10.9 C 91.0 11.1 91.6 10.7 90.8 10.7 C 92.8 10.7 93.8 10.1 95.4 10.2 C 93.4 10.5 92.8 10.9 92.6 11.3 C 95.0 11.0 96.2 10.9 96.7 11.1 C 96.9 10.9 96.6 10.8 96.0 10.8 C 96.8 10.7 97.6 10.6 98.4 10.5 C 98.6 10.6 97.5 10.8 98.4 10.8 C 99.0 10.6 99.6 10.5 100.2 10.4 C 100.9 10.5 99.3 10.6 99.0 10.8 C 102.2 10.6 100.8 10.2 102.5 10.0 C 103.0 10.1 102.9 10.4 104.3 10.3 C 104.9 10.1 105.1 9.8 106.7 9.7 C 107.7 9.6 106.7 10.1 107.9 10.0 C 108.1 9.9 108.6 9.9 109.1 9.9 C 109.0 9.7 109.6 9.6 110.3 9.5 C 110.5 9.7 111.6 9.5 112.1 9.4 C 112.2 9.5 114.1 9.7 114.5 9.5 C 114.5 9.4 113.5 9.5 113.3 9.4 C 114.7 9.3 115.6 9.2 116.3 9.1 C 116.8 9.6 119.0 9.0 121.9 9.2 C 123.6 8.9 121.5 8.8 123.7 8.5 C 125.0 8.6 123.4 8.7 123.7 9.0 C 124.1 9.0 126.1 9.0 126.2 8.8 C 126.2 8.7 125.1 8.8 125.0 8.7 C 126.6 8.4 126.5 8.7 127.4 8.8 C 127.3 8.6 128.4 8.5 128.6 8.3 C 133.1 8.0 133.0 8.4 134.9 8.5 C 134.9 8.4 136.0 8.4 136.1 8.3 C 134.8 8.5 133.1 8.3 134.9 8.2 C 134.6 8.3 137.2 8.1 137.3 8.0 C 137.0 7.9 135.4 8.0 136.1 7.8 C 138.4 7.6 137.5 8.1 139.2 7.8 C 139.4 8.0 138.4 8.0 138.0 8.1 C 138.7 8.1 139.7 8.0 139.8 8.1 C 138.9 8.2 138.9 8.4 138.6 8.6 C 139.8 8.3 142.0 8.5 140.5 8.2 C 143.0 8.2 145.3 8.0 143.6 7.8 C 145.6 7.7 144.5 8.0 146.1 7.8 C 145.9 8.1 145.4 8.2 146.8 8.4 C 147.0 8.3 148.1 8.2 148.0 8.0 C 151.0 8.0 151.8 8.2 153.1 8.4 C 152.0 8.1 153.4 8.3 154.9 8.1 C 155.8 8.2 155.0 8.5 157.4 8.4 C 154.8 8.1 160.5 8.3 159.3 7.9 C 162.4 8.1 162.4 8.1 165.6 8.2 C 165.3 8.4 164.5 8.5 163.1 8.5 C 164.1 8.3 160.4 8.3 160.6 8.4 C 160.6 8.5 160.6 8.5 160.6 8.6 C 163.0 8.5 164.6 8.6 165.6 8.8 C 166.1 8.6 167.2 8.5 166.9 8.2 C 169.1 8.6 171.5 8.2 172.5 8.5 C 171.7 8.5 171.0 8.5 171.3 8.6 C 172.2 8.5 173.3 8.5 173.2 8.3 C 171.3 8.2 171.0 8.2 170.0 8.3 C 170.8 8.1 168.2 8.0 170.0 7.9 C 170.0 8.3 173.8 7.8 172.5 8.1 C 170.5 8.2 174.8 8.3 175.0 8.5 C 175.0 8.5 175.0 8.5 175.0 8.5 Z M 230.3 77.8 C 232.0 77.5 229.8 77.5 228.6 77.7 C 229.0 77.7 229.1 77.8 229.2 78.0 C 229.7 77.9 230.1 77.7 230.3 77.8 C 230.3 77.8 230.3 77.8 230.3 77.8 Z M 211.3 76.3 C 210.7 76.6 213.7 76.2 214.9 76.1 C 214.5 76.1 214.1 76.0 214.9 75.9 C 213.6 75.8 213.2 76.3 211.3 76.3 C 211.3 76.3 211.3 76.3 211.3 76.3 Z M 142.7 79.1 C 143.2 79.0 144.5 79.0 144.6 79.1 C 145.3 79.1 145.1 79.0 145.2 78.9 C 146.7 78.9 144.9 79.3 147.1 79.2 C 148.0 78.7 143.2 78.5 142.7 79.1 C 142.7 79.1 142.7 79.1 142.7 79.1 Z M 151.1 11.9 C 152.1 12.1 149.9 12.3 150.5 12.5 C 154.0 12.3 151.3 12.0 156.1 12.1 C 155.8 12.0 155.5 11.9 155.5 11.8 C 153.3 12.0 153.1 12.1 153.6 11.7 C 152.6 11.7 152.4 12.2 151.1 11.9 C 151.1 11.9 151.1 11.9 151.1 11.9 Z M 195.8 14.0 C 195.5 13.9 195.2 13.8 195.2 13.7 C 193.8 13.7 194.0 13.8 192.1 13.6 C 192.4 14.0 194.2 14.1 195.8 14.0 C 195.8 14.0 195.8 14.0 195.8 14.0 Z M 303.1 39.8 C 303.3 40.0 303.4 40.1 303.5 40.3 C 303.6 40.1 304.2 40.3 303.4 39.5 C 303.3 39.5 303.5 39.7 303.6 39.8 C 303.4 39.7 303.0 39.3 303.0 39.5 C 303.2 39.7 303.2 39.8 303.1 39.8 C 303.1 39.8 303.1 39.8 303.1 39.8 Z M 291.1 60.2 C 293.3 58.9 287.3 60.9 291.1 60.2 C 291.1 60.2 291.1 60.2 291.1 60.2 C 291.1 60.2 291.1 60.2 291.1 60.2 Z M 296.9 60.5 C 297.0 60.5 297.4 60.3 297.4 60.2 C 299.2 59.3 297.5 60.4 298.5 59.9 C 299.8 59.0 297.7 60.0 299.3 58.9 C 298.9 58.9 297.9 59.9 296.9 60.5 C 296.9 60.5 296.9 60.5 296.9 60.5 Z M 24.5 26.6 C 22.8 27.4 22.5 27.9 22.4 28.2 C 23.4 27.7 24.4 27.3 24.8 27.3 C 26.8 26.2 23.3 27.8 22.9 27.9 C 23.1 27.6 24.6 26.8 24.5 26.6 C 24.5 26.6 24.5 26.6 24.5 26.6 Z M 19.5 29.2 C 18.9 29.7 18.1 30.2 18.2 30.4 C 19.0 29.9 19.2 29.9 19.3 30.0 C 20.0 29.4 18.9 29.9 19.5 29.2 C 19.5 29.2 19.5 29.2 19.5 29.2 Z M 29.7 24.8 C 28.9 25.1 29.3 25.1 29.2 25.3 C 30.4 24.8 30.7 24.8 32.0 24.3 C 32.0 24.3 31.9 24.2 31.9 24.1 C 30.8 24.5 30.7 24.6 29.8 25.0 C 29.8 24.9 29.8 24.8 29.7 24.8 C 29.7 24.8 29.7 24.8 29.7 24.8 Z M 15.4 32.1 C 13.2 33.7 12.7 34.8 11.9 36.1 C 13.0 34.9 14.0 33.4 15.2 32.7 C 16.5 31.7 14.7 32.9 14.7 32.8 C 14.6 32.7 15.1 32.4 15.4 32.1 C 15.4 32.1 15.4 32.1 15.4 32.1 Z M 7.9 48.6 C 7.9 49.1 8.5 49.7 9.1 50.8 C 9.0 50.5 9.0 50.3 9.1 50.3 C 8.3 48.7 8.3 49.8 7.9 48.6 C 7.9 48.6 7.9 48.6 7.9 48.6 Z M 14.9 56.9 C 16.0 57.7 14.5 56.4 15.1 56.7 C 13.9 55.8 12.9 54.8 12.7 55.0 C 13.9 55.9 14.2 56.1 14.9 56.9 C 14.9 56.9 14.9 56.9 14.9 56.9 Z M 23.8 62.1 C 25.6 62.8 23.2 61.5 24.1 61.6 C 23.4 61.3 23.5 61.5 23.4 61.6 C 22.9 61.3 22.5 61.0 21.8 60.7 C 22.2 61.1 24.2 62.0 23.8 62.1 C 23.8 62.1 23.8 62.1 23.8 62.1 Z M 72.0 14.6 C 71.1 14.8 71.4 15.0 69.4 15.3 C 72.4 14.8 70.8 15.8 74.8 15.0 C 74.2 15.1 74.6 14.9 74.8 15.0 C 76.3 14.6 73.4 15.1 74.8 14.6 C 73.6 14.8 74.3 14.9 73.2 15.1 C 72.0 15.1 71.3 15.1 72.0 14.6 C 72.0 14.6 72.0 14.6 72.0 14.6 Z M 74.9 15.3 C 76.0 15.2 75.9 14.7 76.5 14.9 C 77.0 14.8 76.9 14.7 77.0 14.6 C 76.6 14.7 76.5 14.7 76.4 14.6 C 75.5 14.9 74.6 15.1 74.9 15.3 C 74.9 15.3 74.9 15.3 74.9 15.3 Z M 64.8 17.0 C 66.6 16.6 67.1 16.6 67.9 16.3 C 68.6 16.5 69.1 15.9 70.1 16.1 C 71.8 15.7 70.5 15.8 70.0 15.8 C 71.7 15.4 70.5 15.9 72.2 15.6 C 72.4 15.2 70.3 15.7 70.5 15.3 C 69.2 15.6 69.2 15.7 68.4 15.9 C 67.8 16.0 68.0 15.9 67.9 15.8 C 66.4 16.1 66.5 15.9 65.3 16.2 C 65.0 16.5 65.5 16.4 66.9 16.1 C 65.5 16.5 64.9 16.8 63.3 17.0 C 64.4 16.5 59.3 17.4 59.7 17.8 C 61.1 17.5 60.7 17.4 61.2 17.2 C 63.0 17.1 64.1 16.8 64.8 17.0 C 64.8 17.0 64.8 17.0 64.8 17.0 Z M 30.8 25.2 C 30.1 25.4 29.6 25.6 28.7 25.9 C 28.5 25.8 29.7 25.3 28.6 25.6 C 27.1 26.2 26.9 26.4 26.0 26.8 C 26.6 26.7 29.5 25.7 28.1 26.4 C 28.6 26.4 29.5 26.0 30.8 25.5 C 29.2 25.8 32.9 24.7 34.4 24.2 C 34.2 23.9 37.1 23.4 38.2 22.8 C 37.2 22.9 34.1 24.2 32.9 24.6 C 33.5 24.3 29.2 25.4 30.8 25.2 C 30.8 25.2 30.8 25.2 30.8 25.2 Z M 79.2 14.5 C 79.5 14.4 80.7 14.1 79.8 14.2 C 80.2 14.1 81.3 14.1 80.8 13.8 C 81.4 13.7 81.9 13.6 82.5 13.5 C 82.3 13.7 80.8 13.8 81.4 14.0 C 82.5 13.7 82.1 13.9 83.6 13.7 C 82.8 14.0 83.7 13.9 83.1 14.3 C 83.6 14.1 84.9 14.0 84.8 13.8 C 86.9 13.5 84.2 14.2 87.1 13.8 C 87.1 14.0 85.0 14.3 84.3 14.2 C 83.9 14.5 87.8 13.9 89.9 13.7 C 88.0 13.7 89.5 13.3 90.4 13.0 C 91.1 13.0 90.4 13.2 91.6 13.2 C 92.6 13.1 93.1 12.9 93.4 13.0 C 94.1 12.9 93.8 12.7 93.9 12.6 C 95.2 12.5 94.3 12.9 96.2 12.7 C 94.7 12.5 96.4 12.2 99.1 12.0 C 98.9 12.0 98.1 12.0 97.9 11.9 C 98.3 11.7 99.9 11.9 100.3 11.9 C 101.3 11.8 100.6 11.7 99.7 11.8 C 100.3 11.7 100.8 11.6 101.5 11.4 C 98.5 11.7 93.9 12.2 88.7 12.5 C 89.7 12.6 88.5 12.7 87.0 12.9 C 86.7 12.7 87.4 12.6 88.1 12.6 C 86.2 12.5 86.4 13.1 83.6 13.3 C 82.1 13.4 85.3 12.9 83.6 13.0 C 82.5 13.2 81.9 13.5 81.3 13.3 C 79.6 13.6 79.1 14.0 76.4 14.4 C 78.0 14.3 78.7 14.7 80.3 14.4 C 80.3 14.3 79.6 14.4 79.2 14.5 C 79.2 14.5 79.2 14.5 79.2 14.5 Z M 19.3 30.1 C 18.5 30.6 18.1 31.0 17.9 31.0 C 16.5 32.0 18.2 31.1 18.5 31.0 C 19.1 30.6 19.3 30.3 19.3 30.1 C 19.3 30.1 19.3 30.1 19.3 30.1 Z M 150.8 81.3 C 153.2 81.4 152.7 81.1 154.6 81.1 C 153.1 81.0 152.7 80.8 150.2 80.8 C 150.1 81.0 150.1 81.2 150.8 81.3 C 150.8 81.3 150.8 81.3 150.8 81.3 Z M 24.9 27.5 C 26.2 26.6 23.3 28.6 23.2 28.4 C 21.6 29.3 24.7 27.8 23.4 28.7 C 24.7 27.9 25.6 27.7 27.5 26.8 C 27.3 26.6 25.8 27.3 24.4 28.0 C 24.1 27.9 24.9 27.6 24.9 27.5 C 24.9 27.5 24.9 27.5 24.9 27.5 Z M 126.5 79.9 C 124.9 80.0 128.0 80.4 129.0 80.6 C 129.1 80.3 128.6 80.3 126.5 79.9 C 126.5 79.9 126.5 79.9 126.5 79.9 Z M 167.2 80.9 C 168.1 80.6 164.4 80.9 165.3 80.6 C 164.2 80.6 164.1 80.7 164.0 80.8 C 163.4 80.7 161.7 80.8 162.2 80.6 C 161.8 80.4 165.0 80.6 164.0 80.3 C 165.0 80.3 165.1 80.4 165.9 80.4 C 164.1 80.4 164.9 80.6 167.2 80.7 C 167.2 80.5 166.1 80.5 167.2 80.4 C 167.3 80.5 168.5 80.6 168.4 81.0 C 170.4 80.9 169.2 80.5 171.5 80.5 C 171.3 80.4 169.9 80.4 169.0 80.3 C 169.2 80.1 171.5 80.5 170.9 80.1 C 171.4 80.3 172.7 80.4 172.8 80.7 C 171.0 80.8 169.9 81.0 168.4 81.1 C 169.8 81.3 171.7 80.7 174.0 80.9 C 173.8 80.7 175.2 80.7 174.7 80.5 C 176.5 80.5 175.7 80.8 175.3 80.8 C 175.8 81.0 179.3 80.8 179.1 80.6 C 179.3 80.8 183.6 80.6 183.4 80.3 C 184.7 80.4 186.6 80.0 187.1 80.3 C 187.9 80.1 189.3 80.1 190.9 80.0 C 191.3 79.7 188.6 80.0 188.4 79.8 C 187.9 79.6 191.3 79.7 190.8 79.5 C 190.8 79.5 190.8 79.4 190.8 79.4 C 189.6 79.5 188.3 79.7 187.1 79.8 C 186.2 79.8 187.4 79.7 187.1 79.6 C 186.3 79.7 182.3 80.2 182.2 79.8 C 179.5 80.0 177.6 79.9 176.5 80.2 C 174.9 80.2 177.4 80.0 176.5 79.8 C 171.8 80.3 166.1 80.0 162.2 80.4 C 161.3 80.4 161.6 80.2 161.5 80.1 C 156.1 80.3 160.7 80.6 156.5 80.5 C 156.5 80.3 158.5 80.3 158.4 80.1 C 156.9 80.1 156.5 80.2 154.6 80.1 C 154.6 80.3 154.6 80.4 154.6 80.5 C 153.0 80.4 153.6 80.2 152.7 80.0 C 150.7 80.1 151.2 80.3 150.2 79.9 C 148.3 80.0 146.5 80.1 144.6 79.9 C 143.3 80.1 145.7 80.5 147.7 80.5 C 147.6 80.6 147.0 80.6 147.0 80.7 C 144.7 80.4 144.4 80.0 140.8 79.8 C 143.5 80.2 139.4 79.9 139.0 79.7 C 137.5 79.7 138.6 80.0 139.6 80.0 C 139.4 80.1 138.5 80.0 138.3 79.9 C 138.1 80.3 141.5 80.6 145.2 80.5 C 143.5 80.9 147.7 80.5 145.8 81.0 C 148.7 81.0 146.2 80.6 149.5 80.7 C 149.2 80.6 148.6 80.5 148.3 80.4 C 150.8 80.4 150.1 80.7 152.7 80.7 C 153.2 80.5 151.4 80.5 151.4 80.4 C 154.3 80.6 155.2 80.7 157.1 81.0 C 157.5 80.8 157.0 80.6 160.3 80.7 C 160.3 80.8 160.3 80.8 160.3 80.9 C 158.7 80.8 158.4 81.3 162.2 81.3 C 162.4 81.1 161.2 81.1 160.3 81.1 C 160.7 81.0 161.9 80.9 163.4 80.9 C 164.1 80.9 165.0 81.0 164.0 81.0 C 164.6 81.2 165.2 80.8 167.2 80.9 C 167.2 80.9 167.2 80.9 167.2 80.9 Z M 7.9 46.6 C 8.0 46.9 8.1 47.2 8.3 47.7 C 8.6 47.9 8.2 46.9 8.4 46.9 C 8.3 46.1 8.1 46.8 7.9 46.6 C 7.9 46.6 7.9 46.6 7.9 46.6 Z M 11.3 36.8 C 11.1 36.7 11.0 37.3 10.3 38.1 C 10.3 38.4 10.9 37.5 11.1 37.6 C 11.8 36.7 10.6 37.6 11.3 36.8 C 11.3 36.8 11.3 36.8 11.3 36.8 Z M 8.8 40.8 C 8.4 41.1 8.7 41.2 9.0 40.4 C 9.1 40.6 9.1 40.8 9.0 41.3 C 9.4 40.9 9.2 40.4 9.7 39.6 C 9.4 39.8 9.1 40.2 8.8 40.8 C 8.8 40.8 8.8 40.8 8.8 40.8 Z M 8.3 42.2 C 8.3 42.8 8.0 43.1 8.1 44.0 C 8.2 43.8 8.6 41.8 8.6 41.5 C 8.5 41.1 7.9 43.3 8.3 42.2 C 8.3 42.2 8.3 42.2 8.3 42.2 Z M 102.4 77.9 C 103.0 77.9 102.9 77.8 103.0 77.7 C 104.8 78.3 107.4 78.4 105.3 78.6 C 107.2 78.5 109.0 79.0 110.7 79.2 C 112.1 79.3 111.4 79.0 112.5 79.1 C 114.3 79.3 111.6 79.2 111.9 79.3 C 112.2 79.5 112.8 79.1 114.9 79.4 C 114.3 79.0 116.7 79.6 116.1 79.1 C 117.3 79.4 117.7 79.2 119.2 79.3 C 119.0 79.2 117.5 79.1 117.4 78.9 C 116.6 78.6 116.5 79.1 118.0 79.1 C 117.1 79.3 115.0 78.8 114.3 78.9 C 113.6 78.6 116.3 79.0 115.6 78.7 C 115.0 78.7 114.5 78.7 114.4 78.8 C 113.5 78.6 112.9 78.5 112.6 78.4 C 113.1 78.4 113.1 78.5 113.1 78.5 C 114.3 78.6 112.0 78.0 114.4 78.2 C 114.0 78.1 113.0 78.0 113.2 77.9 C 112.5 77.7 113.1 78.5 110.7 78.1 C 109.2 78.2 114.5 78.6 113.1 79.0 C 109.8 78.7 111.7 78.5 109.0 78.2 C 109.0 78.3 109.0 78.4 108.3 78.4 C 108.4 78.5 109.4 78.5 110.1 78.6 C 110.0 78.7 109.0 78.6 108.3 78.5 C 108.4 78.6 108.9 78.7 108.9 78.7 C 106.7 78.5 106.9 78.0 109.0 78.0 C 108.9 77.8 106.2 77.6 105.4 77.6 C 106.1 77.9 105.3 77.8 105.9 78.1 C 106.5 78.1 106.4 78.0 106.6 78.0 C 107.6 78.1 106.6 78.1 106.6 78.2 C 105.4 78.1 105.4 77.9 104.2 77.9 C 104.5 77.9 104.8 77.9 104.8 77.7 C 104.2 77.7 103.6 77.6 103.0 77.6 C 103.1 77.7 102.3 77.7 102.4 77.9 C 102.4 77.9 102.4 77.9 102.4 77.9 Z M 133.9 80.6 C 136.0 80.7 134.9 80.4 134.0 80.4 C 134.4 80.3 135.1 80.3 135.8 80.3 C 135.2 80.2 134.7 80.2 132.8 80.1 C 134.5 79.9 132.7 79.4 129.6 79.3 C 128.7 79.7 131.3 79.9 130.3 80.1 C 132.5 80.0 133.7 80.2 133.9 80.6 C 133.9 80.6 133.9 80.6 133.9 80.6 Z M 18.5 31.1 C 17.6 31.6 16.7 32.2 15.9 32.8 C 16.1 32.9 19.0 31.3 18.5 31.1 C 18.5 31.1 18.5 31.1 18.5 31.1 Z M 103.8 11.5 C 104.3 11.5 104.4 11.5 104.5 11.5 C 106.2 11.3 103.6 11.4 104.4 11.1 C 103.8 11.2 103.2 11.3 102.6 11.3 C 102.5 11.4 105.1 11.3 103.2 11.6 C 103.4 11.6 103.8 11.6 103.8 11.5 C 103.8 11.5 103.8 11.5 103.8 11.5 Z M 8.2 45.8 C 8.3 46.5 8.5 46.0 8.8 47.6 C 8.8 47.0 8.7 46.7 8.6 45.8 C 8.4 45.8 8.3 45.8 8.2 45.8 C 8.2 45.8 8.2 45.8 8.2 45.8 Z M 93.6 77.4 C 95.0 77.8 95.5 77.2 98.3 77.7 C 96.9 77.2 95.2 77.4 93.6 77.4 C 93.6 77.4 93.6 77.4 93.6 77.4 Z M 195.8 79.4 C 194.9 79.3 196.0 79.2 194.5 79.2 C 193.7 79.3 193.3 79.5 192.1 79.6 C 193.8 79.7 196.9 79.3 198.2 79.6 C 199.7 79.5 199.5 79.2 200.0 79.0 C 199.3 79.1 198.9 79.1 198.8 79.0 C 197.9 79.4 196.8 78.9 195.8 79.4 C 195.8 79.4 195.8 79.4 195.8 79.4 Z M 125.9 79.8 C 124.8 79.6 126.7 79.6 127.2 79.5 C 128.0 79.5 127.7 79.7 127.8 79.8 C 128.9 79.8 129.2 79.7 129.0 79.5 C 127.0 79.4 124.5 79.2 126.0 79.0 C 124.0 78.8 125.1 79.2 124.1 79.2 C 123.0 79.0 124.1 79.0 124.1 78.7 C 123.7 78.8 122.2 79.0 122.3 78.6 C 119.3 78.8 120.6 79.3 122.8 79.8 C 124.8 79.6 122.5 79.4 125.9 79.8 C 125.9 79.8 125.9 79.8 125.9 79.8 Z M 54.6 70.6 C 54.7 70.8 55.6 70.9 55.6 71.0 C 56.6 71.0 57.6 71.0 58.6 70.9 C 58.5 70.7 57.1 70.6 57.6 70.9 C 57.2 70.6 56.3 70.4 55.8 70.1 C 54.8 69.8 54.3 70.3 54.3 69.8 C 53.3 69.8 54.2 70.0 51.2 69.2 C 55.9 70.6 49.5 68.9 49.1 69.1 C 51.8 69.8 53.9 70.3 53.8 70.0 C 54.8 70.3 55.9 70.6 56.1 70.9 C 56.0 71.0 55.2 70.8 54.6 70.6 C 54.6 70.6 54.6 70.6 54.6 70.6 Z M 60.7 71.2 C 60.3 71.2 59.9 71.1 59.2 71.0 C 59.6 71.1 59.7 71.3 59.6 71.4 C 60.9 71.6 61.2 71.6 61.6 71.9 C 62.8 72.1 61.4 71.5 63.2 71.9 C 63.0 71.8 62.1 71.7 62.2 71.6 C 62.0 71.7 61.2 71.6 60.7 71.2 C 60.7 71.2 60.7 71.2 60.7 71.2 Z M 76.8 74.5 C 78.3 74.7 76.1 74.3 76.9 74.2 C 76.5 74.2 73.8 73.7 74.2 73.5 C 73.5 73.1 70.7 73.3 71.0 72.9 C 70.4 72.8 70.6 73.0 70.4 73.1 C 72.3 73.3 72.3 73.5 70.9 73.3 C 71.1 73.5 72.3 73.6 73.1 73.8 C 73.2 73.6 72.5 73.5 72.6 73.4 C 74.2 73.8 75.4 74.1 76.8 74.5 C 76.8 74.5 76.8 74.5 76.8 74.5 Z M 171.2 9.7 C 169.7 9.6 168.8 9.7 168.1 9.7 C 168.5 9.9 169.2 9.7 169.9 9.7 C 170.1 9.9 169.5 9.9 168.7 9.9 C 169.4 10.1 172.0 9.9 171.2 9.7 C 171.2 9.7 171.2 9.7 171.2 9.7 Z M 158.6 9.6 C 157.2 9.6 156.3 9.6 156.1 9.7 C 156.7 9.9 156.5 9.7 157.4 9.7 C 158.0 9.7 158.3 9.8 158.6 9.9 C 159.3 9.9 159.1 9.8 159.3 9.7 C 159.8 9.7 159.9 9.8 159.9 9.8 C 161.6 9.6 157.9 9.8 158.6 9.6 C 158.6 9.6 158.6 9.6 158.6 9.6 Z M 67.8 72.9 C 67.4 72.7 67.0 72.5 65.8 72.3 C 66.0 72.5 65.0 72.3 64.2 72.1 C 65.3 72.5 66.0 72.6 67.8 72.9 C 67.8 72.9 67.8 72.9 67.8 72.9 Z M 83.2 14.5 C 81.4 14.5 81.7 14.9 79.3 15.0 C 79.3 15.1 79.3 15.2 79.3 15.3 C 80.7 14.9 81.4 14.9 83.2 14.5 C 83.2 14.5 83.2 14.5 83.2 14.5 Z M 308.0 49.4 C 307.9 49.2 307.4 50.2 307.3 50.2 C 307.5 50.6 306.8 50.7 305.2 52.5 C 305.2 52.5 305.2 52.3 305.4 52.1 C 304.1 53.4 306.0 51.9 306.3 51.8 C 307.2 50.7 307.5 50.6 308.0 49.4 C 308.0 49.4 308.0 49.4 308.0 49.4 Z M 177.2 79.4 C 177.0 79.5 177.4 79.5 177.8 79.5 C 178.2 79.5 178.6 79.5 179.0 79.5 C 178.9 79.1 176.8 79.1 178.4 78.7 C 177.8 78.7 177.7 78.7 177.7 78.8 C 174.7 79.6 172.3 78.5 168.4 79.0 C 167.8 79.0 167.9 79.1 167.8 79.1 C 168.3 79.1 168.3 79.2 168.4 79.2 C 168.9 78.9 172.5 79.2 170.9 79.3 C 171.0 79.4 171.5 79.4 171.5 79.3 C 171.9 79.3 172.3 79.3 172.8 79.3 C 172.5 79.2 171.7 79.2 171.5 79.1 C 173.5 79.1 175.9 79.2 174.7 79.5 C 175.9 79.4 176.3 79.3 177.2 79.2 C 177.9 79.2 177.9 79.4 177.2 79.4 C 177.2 79.4 177.2 79.4 177.2 79.4 Z M 193.2 78.7 C 195.1 78.7 194.4 78.4 196.3 78.4 C 195.1 78.2 193.6 78.6 192.0 78.5 C 192.2 78.6 193.1 78.6 193.2 78.7 C 193.2 78.7 193.2 78.7 193.2 78.7 Z M 157.1 79.3 C 157.5 79.0 155.8 79.0 154.0 78.9 C 153.6 79.2 155.2 79.3 157.1 79.3 C 157.1 79.3 157.1 79.3 157.1 79.3 Z M 165.3 79.3 C 167.1 79.1 162.9 79.2 164.0 78.9 C 163.1 79.0 162.2 79.0 162.1 78.9 C 161.5 78.9 161.5 79.1 160.3 79.0 C 160.3 79.2 162.3 79.1 162.2 79.3 C 163.6 79.1 163.8 79.1 165.3 79.3 C 165.3 79.3 165.3 79.3 165.3 79.3 Z M 166.5 79.2 C 167.7 79.1 166.2 78.8 164.7 78.8 C 165.2 78.9 165.6 79.1 166.5 79.2 C 166.5 79.2 166.5 79.2 166.5 79.2 Z M 23.8 59.4 C 24.5 59.8 24.0 59.3 25.0 59.8 C 25.0 59.6 21.7 58.1 24.5 59.3 C 23.6 58.6 22.9 58.7 21.8 58.0 C 22.1 58.3 22.4 58.5 21.7 58.2 C 21.3 58.2 24.2 59.4 23.8 59.4 C 23.8 59.4 23.8 59.4 23.8 59.4 Z M 27.2 61.0 C 27.9 61.3 27.6 61.1 27.3 61.0 C 27.4 60.9 28.4 61.4 29.2 61.7 C 29.2 61.8 28.0 60.8 28.1 60.6 C 24.9 59.5 27.2 60.7 27.2 61.0 C 27.2 61.0 27.2 61.0 27.2 61.0 Z M 30.4 62.2 C 32.6 63.2 35.9 64.3 37.7 64.6 C 36.0 63.7 31.6 62.3 30.4 62.2 C 30.4 62.2 30.4 62.2 30.4 62.2 Z M 14.5 53.1 C 16.1 55.0 21.1 58.0 17.1 54.9 C 17.1 55.1 14.6 53.2 13.7 52.2 C 13.6 52.2 12.5 51.3 12.6 51.1 C 11.8 50.5 14.8 53.7 14.5 53.1 C 14.5 53.1 14.5 53.1 14.5 53.1 Z M 41.0 65.2 C 39.6 64.9 41.2 65.8 39.2 65.0 C 38.0 64.7 39.5 65.2 39.1 65.3 C 41.6 66.0 47.2 67.3 47.6 67.7 C 49.0 67.9 49.5 67.9 52.3 68.6 C 52.4 68.5 42.7 66.3 40.9 65.3 C 41.1 65.3 44.3 66.2 41.0 65.2 C 41.0 65.2 41.0 65.2 41.0 65.2 Z M 83.4 15.9 C 83.5 15.7 81.2 16.1 81.6 15.8 C 80.4 16.3 79.2 16.3 77.9 16.7 C 77.5 16.7 77.6 16.3 75.7 16.5 C 75.6 16.8 76.6 16.6 75.7 16.9 C 74.0 17.2 74.4 16.8 72.4 17.2 C 72.8 17.6 68.3 18.0 68.8 18.3 C 69.8 18.1 69.7 17.9 71.5 17.7 C 72.0 17.6 71.8 17.8 72.5 17.7 C 72.0 18.0 71.1 17.8 70.4 18.1 C 70.6 18.3 71.9 18.0 72.1 18.2 C 72.8 18.0 71.8 18.1 72.0 17.9 C 74.1 17.5 71.9 18.5 74.2 18.1 C 73.7 17.9 73.7 17.9 74.2 17.6 C 75.1 17.6 77.8 17.0 76.3 17.5 C 76.5 17.6 78.2 17.1 77.9 17.0 C 78.8 16.8 79.0 16.9 79.0 17.0 C 81.3 16.6 81.7 16.3 81.1 16.1 C 81.6 15.8 82.0 16.2 83.4 15.9 C 83.4 15.9 83.4 15.9 83.4 15.9 Z M 10.2 43.9 C 10.1 43.2 10.1 44.7 10.1 45.3 C 10.1 44.5 10.4 44.8 10.6 44.0 C 10.4 44.2 10.3 44.2 10.4 43.6 C 10.3 43.5 10.1 44.7 10.2 43.9 C 10.2 43.9 10.2 43.9 10.2 43.9 Z M 55.9 69.4 C 56.4 69.7 59.0 70.1 60.3 70.4 C 60.1 70.0 56.8 69.8 56.4 69.3 C 55.7 69.2 56.8 69.6 55.9 69.4 C 55.9 69.4 55.9 69.4 55.9 69.4 Z M 63.1 18.9 C 62.5 19.0 62.8 19.0 63.1 19.0 C 63.0 19.1 61.9 19.3 61.1 19.4 C 62.2 19.4 60.9 19.7 61.2 19.9 C 60.6 20.0 60.3 20.1 60.2 20.2 C 60.1 19.7 57.1 21.1 60.3 20.5 C 59.7 20.4 59.9 20.3 61.2 20.0 C 62.6 19.9 63.7 19.5 64.3 19.6 C 65.2 19.4 65.5 19.2 66.8 19.0 C 67.1 19.1 68.3 19.0 67.4 19.5 C 69.7 19.1 68.1 18.8 69.9 18.4 C 71.8 18.3 69.1 18.9 69.5 19.0 C 70.0 18.9 69.9 19.0 70.1 19.1 C 70.7 18.9 70.7 18.7 70.0 18.8 C 70.2 18.7 72.0 18.2 71.6 18.6 C 72.6 18.3 69.8 18.1 68.4 18.6 C 67.5 18.8 67.4 18.4 68.3 18.2 C 67.9 18.1 66.3 18.9 66.7 18.4 C 66.0 18.5 65.3 18.6 64.6 18.7 C 64.7 18.8 65.1 18.7 65.2 18.8 C 64.5 18.9 63.8 19.1 63.1 19.2 C 63.7 19.0 63.7 18.9 63.1 18.9 C 63.1 18.9 63.1 18.9 63.1 18.9 Z M 45.9 66.9 C 48.1 67.5 48.7 67.5 50.5 67.9 C 49.8 67.5 44.9 66.4 45.9 66.9 C 45.9 66.9 45.9 66.9 45.9 66.9 Z M 93.1 15.4 C 92.9 15.4 91.9 15.5 91.9 15.4 C 93.7 15.1 91.6 15.2 93.0 14.6 C 90.7 15.1 90.0 15.8 93.1 15.6 C 95.3 15.3 90.8 15.7 93.1 15.4 C 93.1 15.4 93.1 15.4 93.1 15.4 Z M 86.2 16.1 C 84.9 16.4 88.3 16.1 89.1 16.1 C 89.1 16.1 89.1 16.2 89.1 16.3 C 91.0 15.7 88.4 15.9 90.1 15.2 C 87.9 15.4 86.9 15.4 85.1 15.8 C 85.2 15.8 85.6 15.7 85.6 15.7 C 87.0 15.5 86.1 16.0 84.5 16.1 C 85.0 16.1 86.4 16.0 87.3 15.9 C 87.1 15.8 86.7 15.8 86.8 15.7 C 88.0 15.5 87.6 15.8 88.4 15.7 C 88.4 15.8 86.3 16.2 86.2 16.1 C 86.2 16.1 86.2 16.1 86.2 16.1 Z M 206.2 13.1 C 205.0 13.0 207.4 13.5 207.3 13.9 C 208.6 14.0 208.9 14.0 209.7 14.0 C 209.3 13.8 207.9 13.7 207.3 13.5 C 207.6 13.2 209.2 13.7 209.7 13.5 C 210.5 13.2 206.7 13.4 206.2 13.1 C 206.2 13.1 206.2 13.1 206.2 13.1 Z M 31.0 28.0 C 30.3 28.3 30.7 28.2 31.0 28.0 C 30.9 28.2 29.8 28.6 29.7 28.5 C 28.7 29.0 30.3 28.4 29.2 28.9 C 29.0 29.2 31.0 28.2 31.0 28.1 C 32.5 27.5 31.5 28.3 31.9 28.2 C 33.2 27.7 32.6 27.7 34.6 27.1 C 33.4 27.3 32.3 27.6 31.0 28.0 C 31.0 28.0 31.0 28.0 31.0 28.0 Z M 97.0 14.5 C 97.2 14.4 95.7 15.0 94.2 15.0 C 92.1 15.2 95.4 15.1 93.6 15.3 C 95.1 15.2 97.0 14.8 99.4 14.5 C 99.9 14.3 96.1 14.8 98.2 14.5 C 98.1 14.4 97.6 14.5 97.6 14.5 C 97.1 14.6 97.1 14.6 97.0 14.5 C 97.0 14.5 97.0 14.5 97.0 14.5 Z M 94.8 15.3 C 94.9 15.4 95.4 15.3 95.4 15.3 C 96.1 15.2 96.1 15.4 95.4 15.5 C 96.4 15.7 96.3 15.2 98.3 15.1 C 97.4 15.0 97.0 14.9 98.8 14.9 C 100.3 14.5 95.4 15.1 94.8 15.3 C 94.8 15.3 94.8 15.3 94.8 15.3 Z M 186.7 12.1 C 186.9 12.2 188.2 12.2 189.2 12.3 C 187.9 12.4 183.0 12.1 182.4 11.9 C 181.8 11.9 181.3 12.0 181.1 11.9 C 181.1 11.9 179.7 12.0 180.5 12.1 C 180.3 12.2 179.3 12.1 179.3 12.2 C 177.4 12.1 179.8 12.1 179.3 11.9 C 177.0 12.0 177.5 11.9 174.9 11.8 C 175.3 12.0 178.2 12.0 178.0 12.3 C 180.0 12.1 182.3 12.4 183.5 12.7 C 181.6 12.2 188.9 12.3 192.2 12.6 C 192.1 12.7 193.3 12.8 194.6 13.0 C 195.6 13.3 195.3 12.7 193.4 12.7 C 193.5 12.6 196.0 12.8 197.1 12.9 C 195.8 12.6 196.6 12.6 195.9 12.5 C 193.5 12.3 195.7 12.5 195.2 12.7 C 194.6 12.6 194.1 12.6 193.4 12.6 C 196.6 12.4 188.7 12.3 191.6 12.4 C 189.1 12.3 189.0 12.0 186.7 12.1 C 186.7 12.1 186.7 12.1 186.7 12.1 Z M 128.2 12.2 C 127.8 12.2 125.8 12.5 125.7 12.3 C 123.2 12.6 125.5 12.7 122.7 12.9 C 122.8 12.9 123.9 12.8 123.9 12.9 C 125.0 12.8 126.1 12.7 125.8 12.4 C 127.0 12.4 127.4 12.3 128.2 12.2 C 127.9 12.4 127.4 12.4 126.4 12.5 C 126.2 12.7 126.6 12.8 128.2 12.7 C 128.9 12.5 128.4 12.3 128.2 12.2 C 128.2 12.2 128.2 12.2 128.2 12.2 Z M 122.1 12.8 C 121.8 12.8 121.4 12.7 121.5 12.6 C 120.6 12.4 121.1 12.9 120.2 13.0 C 119.5 13.0 119.7 12.9 119.6 12.8 C 118.6 12.9 117.7 13.0 117.2 12.9 C 115.6 13.2 119.1 13.0 119.6 13.1 C 120.8 13.0 120.4 12.8 122.1 12.8 C 122.1 12.8 122.1 12.8 122.1 12.8 Z M 104.0 13.9 C 103.7 13.7 103.1 14.1 102.3 14.1 C 102.9 14.3 104.6 14.0 103.5 14.4 C 105.2 14.4 105.3 14.3 107.1 14.1 C 108.2 14.2 107.1 13.9 105.3 14.2 C 105.5 14.1 106.3 14.0 106.4 13.9 C 107.6 14.2 110.6 13.2 108.8 13.7 C 108.3 13.7 107.9 13.7 107.6 13.6 C 107.2 13.8 103.2 14.1 104.0 13.9 C 104.0 13.9 104.0 13.9 104.0 13.9 Z M 47.4 23.3 C 49.2 22.8 50.1 22.6 51.1 22.3 C 52.0 22.1 53.5 21.8 54.4 21.6 C 54.5 21.7 54.4 21.8 54.0 21.9 C 54.4 21.8 55.0 21.7 55.9 21.4 C 55.8 21.4 55.4 21.5 55.4 21.5 C 53.8 21.7 55.1 21.4 55.3 21.2 C 53.4 21.4 49.9 22.7 48.2 22.8 C 46.9 23.2 48.5 22.8 47.4 23.3 C 47.4 23.3 47.4 23.3 47.4 23.3 Z M 306.7 47.4 C 306.7 47.6 306.6 48.0 306.7 48.0 C 306.9 47.6 306.9 47.3 307.0 46.9 C 306.7 47.6 306.5 47.4 306.0 48.3 C 306.2 48.1 306.5 48.3 306.7 47.4 C 306.7 47.4 306.7 47.4 306.7 47.4 Z M 110.0 13.5 C 110.1 13.6 110.1 13.7 109.4 13.8 C 109.2 14.0 111.1 13.7 111.2 13.9 C 111.8 13.8 111.6 13.7 112.4 13.6 C 112.1 13.5 110.5 13.7 111.2 13.4 C 111.7 13.3 111.7 13.4 111.8 13.4 C 113.0 13.2 111.1 13.3 110.0 13.5 C 110.0 13.5 110.0 13.5 110.0 13.5 Z M 212.1 13.8 C 211.3 13.8 212.1 13.9 212.7 14.0 C 211.0 14.1 213.7 14.5 213.8 14.7 C 213.1 14.5 210.7 14.4 210.3 14.3 C 209.6 14.3 210.4 14.6 208.5 14.5 C 208.7 14.7 210.8 14.7 210.3 14.4 C 210.8 14.8 212.8 14.6 212.6 14.9 C 215.3 15.2 215.9 15.0 216.2 14.8 C 213.6 14.7 214.9 14.4 212.7 14.3 C 212.7 14.2 213.4 14.3 213.9 14.3 C 213.7 14.1 212.7 14.0 212.1 13.8 C 212.1 13.8 212.1 13.8 212.1 13.8 Z M 148.0 11.7 C 146.6 11.7 146.7 11.9 146.8 12.1 C 147.3 12.0 148.2 12.0 149.3 12.0 C 149.0 11.9 147.3 11.9 148.0 11.7 C 148.0 11.7 148.0 11.7 148.0 11.7 Z M 202.5 13.4 C 202.4 13.3 201.9 13.3 201.9 13.3 C 200.4 13.2 200.0 13.1 199.5 12.9 C 198.7 12.9 199.0 13.1 198.9 13.2 C 200.3 13.1 200.0 13.4 201.9 13.5 C 201.8 13.4 202.0 13.4 202.5 13.4 C 202.5 13.4 202.5 13.4 202.5 13.4 Z M 161.1 11.7 C 160.4 11.8 160.8 11.8 161.1 11.8 C 160.3 12.1 157.7 11.9 156.8 12.0 C 156.6 12.2 159.8 12.1 156.1 12.2 C 156.8 12.4 160.1 12.3 161.7 12.3 C 161.4 12.5 159.1 12.5 159.3 12.8 C 161.2 12.6 163.3 12.5 163.6 12.2 C 160.8 12.1 161.8 11.9 161.1 11.7 C 161.1 11.7 161.1 11.7 161.1 11.7 Z M 164.2 11.9 C 164.0 11.8 163.5 11.9 162.4 11.9 C 163.9 12.2 164.9 12.1 168.0 12.2 C 168.0 12.1 168.0 12.1 168.0 12.0 C 168.6 12.0 169.3 12.1 169.9 12.1 C 167.2 11.8 166.5 11.9 163.6 12.0 C 163.5 11.9 163.9 11.9 164.2 11.9 C 164.2 11.9 164.2 11.9 164.2 11.9 Z M 83.5 16.6 C 84.2 16.6 84.9 16.7 86.3 16.6 C 86.1 16.4 85.3 16.3 83.5 16.6 C 83.5 16.6 83.5 16.6 83.5 16.6 Z M 204.9 13.7 C 206.6 13.7 203.3 13.6 204.3 13.9 C 205.6 14.1 207.0 14.3 207.2 14.5 C 209.7 14.4 204.6 14.0 204.9 13.7 C 204.9 13.7 204.9 13.7 204.9 13.7 Z M 194.0 13.6 C 193.3 13.5 193.3 13.1 194.0 13.4 C 195.7 13.5 192.5 13.1 195.2 13.3 C 194.1 13.1 191.5 12.9 190.3 13.0 C 190.4 13.2 192.7 13.2 192.8 13.4 C 192.9 13.5 192.5 13.5 192.2 13.5 C 192.4 13.6 192.9 13.5 194.0 13.6 C 194.0 13.6 194.0 13.6 194.0 13.6 Z M 184.8 12.7 C 185.8 12.9 187.0 13.1 189.1 13.2 C 187.7 12.9 187.0 12.7 184.8 12.7 C 184.8 12.7 184.8 12.7 184.8 12.7 Z M 297.5 34.2 C 296.4 33.5 297.2 34.3 297.3 34.5 C 298.4 35.1 298.4 34.9 299.4 35.7 C 299.3 35.3 298.0 34.8 297.5 34.2 C 297.5 34.2 297.5 34.2 297.5 34.2 Z M 300.9 36.7 C 300.9 36.9 302.0 37.7 302.0 37.9 C 302.9 38.1 303.1 39.4 303.4 39.1 C 303.5 39.4 303.7 39.6 304.0 39.9 C 303.7 39.0 301.9 37.4 300.9 36.7 C 300.9 36.7 300.9 36.7 300.9 36.7 Z M 174.2 12.9 C 172.6 12.8 174.7 13.3 173.0 13.2 C 172.9 13.3 176.1 13.4 174.2 13.4 C 176.7 13.7 174.0 12.9 174.2 12.9 C 174.2 12.9 174.2 12.9 174.2 12.9 Z M 143.7 13.1 C 143.8 12.9 141.5 13.1 140.6 13.1 C 140.6 13.2 141.3 13.2 141.8 13.2 C 141.6 13.2 141.3 13.3 140.6 13.4 C 141.1 13.5 142.8 13.2 143.7 13.1 C 143.7 13.1 143.7 13.1 143.7 13.1 Z M 177.5 8.8 C 178.5 9.0 179.8 9.3 180.6 9.0 C 181.7 9.2 179.8 9.2 181.2 9.4 C 182.9 9.3 182.1 9.5 184.9 9.5 C 184.4 9.8 186.4 9.9 186.8 10.1 C 185.6 10.1 184.2 9.7 183.6 10.0 C 184.6 10.0 184.1 10.2 183.6 10.0 C 181.8 9.8 185.9 9.8 183.7 9.6 C 183.0 9.9 179.7 9.2 177.5 9.1 C 178.3 9.0 175.8 8.8 177.5 8.8 C 177.5 8.8 177.5 8.8 177.5 8.8 Z M 188.6 9.7 C 190.1 9.7 190.9 10.3 190.5 10.3 C 190.5 10.1 188.8 10.1 188.6 10.2 C 189.0 10.2 189.4 10.2 189.2 10.3 C 186.5 10.1 187.5 10.0 186.8 9.8 C 188.3 9.7 188.7 9.9 189.3 9.8 C 188.9 9.8 188.5 9.7 188.6 9.7 C 188.6 9.7 188.6 9.7 188.6 9.7 Z M 220.2 16.0 C 219.9 15.8 219.6 16.0 219.0 16.0 C 218.9 15.6 215.9 15.8 215.5 15.6 C 216.2 15.5 217.8 15.6 218.5 15.6 C 217.7 15.5 217.5 15.4 216.7 15.4 C 216.9 15.2 218.6 15.4 219.1 15.3 C 219.2 15.4 220.0 15.3 220.2 15.5 C 218.0 15.4 221.5 16.1 220.2 16.0 C 220.2 16.0 220.2 16.0 220.2 16.0 Z M 159.9 13.0 C 159.7 13.3 162.3 13.8 159.9 14.1 C 159.4 13.9 159.1 13.7 159.3 13.4 C 157.7 13.6 157.1 13.3 156.1 13.6 C 153.3 12.9 158.3 13.6 159.9 13.0 C 159.9 13.0 159.9 13.0 159.9 13.0 Z M 149.9 13.3 C 150.4 13.1 149.0 13.1 149.3 12.9 C 150.5 13.1 154.4 12.8 153.0 13.0 C 151.8 13.1 151.8 13.3 149.9 13.3 C 149.9 13.3 149.9 13.3 149.9 13.3 Z M 87.0 74.3 C 85.2 74.3 84.3 73.7 85.4 73.7 C 84.9 73.9 87.7 74.1 87.0 74.3 C 87.0 74.3 87.0 74.3 87.0 74.3 Z M 15.7 58.5 C 16.9 59.5 17.9 59.9 17.9 60.2 C 16.5 59.4 16.7 59.3 15.6 58.6 C 15.5 58.6 14.8 58.3 14.7 58.1 C 15.3 58.5 15.3 58.3 15.7 58.5 C 15.7 58.5 15.7 58.5 15.7 58.5 Z M 112.1 9.3 C 111.9 9.2 111.2 9.2 111.5 9.0 C 113.3 9.0 115.4 8.7 116.9 8.4 C 116.9 8.5 116.9 8.6 116.9 8.7 C 114.0 8.8 113.3 9.1 112.1 9.3 C 112.1 9.3 112.1 9.3 112.1 9.3 Z M 108.4 9.1 C 108.1 9.3 109.1 9.5 107.9 9.6 C 107.9 9.4 105.6 9.3 106.6 9.2 C 107.0 9.3 107.6 9.3 108.4 9.1 C 108.4 9.1 108.4 9.1 108.4 9.1 Z M 212.4 10.6 C 213.8 10.7 211.7 10.3 211.8 10.2 C 212.9 10.4 214.3 10.5 214.8 10.7 C 213.7 10.5 212.9 10.9 212.4 10.6 C 212.4 10.6 212.4 10.6 212.4 10.6 Z M 189.9 9.7 C 186.7 9.5 188.1 9.2 184.9 9.0 C 186.2 8.9 189.1 9.0 189.9 8.9 C 189.8 9.0 190.6 9.1 190.5 9.2 C 189.4 9.2 189.2 9.1 188.0 9.0 C 188.4 9.3 188.5 9.2 188.0 9.4 C 188.9 9.5 189.4 9.4 189.9 9.4 C 189.6 9.6 190.8 9.7 189.9 9.7 C 189.9 9.7 189.9 9.7 189.9 9.7 Z M 211.7 11.2 C 213.0 11.2 214.0 11.7 212.9 11.5 C 212.8 11.4 211.9 11.5 211.7 11.4 C 213.5 11.4 210.3 11.1 211.2 11.0 C 212.2 11.1 212.6 11.0 212.4 10.8 C 213.0 10.9 214.1 11.0 214.1 11.1 C 213.7 11.1 213.0 11.0 213.0 11.1 C 213.3 11.1 213.7 11.1 213.5 11.2 C 212.5 11.1 212.0 11.1 211.7 11.2 C 211.7 11.2 211.7 11.2 211.7 11.2 Z M 203.4 10.5 C 205.0 10.7 205.2 10.9 205.7 11.1 C 203.5 10.9 203.2 10.5 201.5 10.3 C 203.4 10.4 205.2 10.3 205.8 10.5 C 205.0 10.5 203.5 10.4 203.4 10.5 C 203.4 10.5 203.4 10.5 203.4 10.5 Z M 243.3 74.2 C 242.1 74.3 241.0 74.3 239.5 74.4 C 239.1 74.7 241.8 74.8 240.7 74.8 C 239.2 75.1 240.1 74.6 239.0 74.7 C 240.2 74.9 233.8 75.8 233.4 75.5 C 234.4 75.4 234.7 75.2 234.5 75.1 C 237.1 74.8 238.1 74.4 240.0 74.1 C 241.4 74.2 245.5 73.6 247.5 73.0 C 249.0 73.2 251.4 72.3 253.3 72.3 C 253.8 72.0 251.7 72.3 253.3 72.0 C 254.3 72.0 253.5 72.3 254.9 72.1 C 255.0 72.0 254.7 71.9 255.3 71.7 C 255.3 71.9 256.1 71.7 256.4 71.8 C 253.7 72.3 256.7 72.1 254.5 72.5 C 253.6 72.6 255.4 72.0 252.8 72.4 C 252.0 72.7 251.1 72.9 251.4 73.1 C 250.6 73.3 250.2 73.4 249.8 73.5 C 250.7 73.0 246.2 74.2 248.2 73.5 C 248.4 73.5 249.8 73.3 250.8 73.0 C 249.8 72.9 248.7 73.2 247.1 73.6 C 246.4 73.5 247.4 73.3 246.5 73.4 C 245.3 73.8 247.1 73.7 246.1 73.9 C 246.5 73.9 247.1 73.8 247.1 73.9 C 244.9 74.0 244.0 74.4 242.9 74.5 C 243.6 74.3 241.5 74.5 243.3 74.2 C 243.3 74.2 243.3 74.2 243.3 74.2 Z M 261.9 70.5 C 262.4 70.4 262.8 70.3 263.4 70.2 C 263.5 70.4 261.6 70.8 262.9 70.7 C 260.8 71.2 263.0 70.4 261.9 70.5 C 261.9 70.5 261.9 70.5 261.9 70.5 Z M 251.7 71.6 C 250.8 71.5 251.4 72.0 250.6 72.1 C 251.9 71.8 253.0 71.5 253.2 71.8 C 251.8 72.0 251.1 72.1 249.6 72.5 C 251.0 71.9 247.9 72.5 247.4 72.3 C 248.6 72.0 249.5 71.7 251.1 71.5 C 250.8 71.6 253.1 71.3 251.7 71.6 C 251.7 71.6 251.7 71.6 251.7 71.6 Z M 255.7 70.5 C 256.0 70.6 258.2 70.1 257.8 70.4 C 256.4 70.7 255.9 70.8 256.3 71.0 C 255.3 71.2 255.1 71.1 254.2 71.3 C 253.6 71.1 255.2 70.8 255.7 70.6 C 255.4 70.7 255.1 70.7 255.7 70.5 C 255.7 70.5 255.7 70.5 255.7 70.5 Z M 301.2 52.9 C 301.7 52.9 300.1 53.9 299.8 54.1 C 300.4 53.9 300.2 54.2 299.3 54.9 C 299.5 54.4 298.0 55.5 296.8 55.8 C 296.7 56.1 298.1 55.4 296.5 56.4 C 295.3 57.0 294.2 57.7 291.9 58.8 C 291.3 58.8 292.3 58.3 292.8 57.9 C 291.4 58.7 291.7 58.3 290.5 58.8 C 290.8 58.9 289.8 59.4 289.4 59.4 C 291.5 58.4 286.3 60.3 288.6 59.3 C 288.8 59.3 289.3 59.1 289.8 58.8 C 289.3 59.4 292.1 58.0 292.8 57.9 C 293.6 56.9 296.4 55.7 298.9 54.3 C 299.1 54.3 298.4 54.9 299.0 54.5 C 299.0 54.4 299.8 53.9 300.1 53.6 C 300.1 53.7 300.4 53.6 300.9 53.3 C 300.9 53.2 300.9 53.1 301.2 52.9 C 301.2 52.9 301.2 52.9 301.2 52.9 Z M 144.6 77.4 C 144.7 76.9 140.7 77.1 139.6 77.2 C 139.8 76.7 146.9 77.0 144.6 77.4 C 144.6 77.4 144.6 77.4 144.6 77.4 Z M 169.0 77.1 C 167.9 77.1 168.7 77.4 167.7 77.4 C 167.7 77.1 165.3 77.7 165.2 77.4 C 166.4 77.2 167.1 77.2 169.0 77.1 C 169.0 77.1 169.0 77.1 169.0 77.1 Z M 191.3 76.5 C 189.5 76.6 192.3 76.6 191.9 76.7 C 190.4 76.8 188.7 76.8 188.8 76.6 C 190.2 76.6 191.1 76.3 191.3 76.5 C 191.3 76.5 191.3 76.5 191.3 76.5 Z M 157.8 77.0 C 156.2 76.9 158.7 76.5 159.0 76.7 C 157.3 76.8 160.1 76.9 161.5 76.9 C 161.4 77.2 160.8 77.1 161.5 77.4 C 159.3 77.5 161.1 77.1 159.6 77.1 C 158.5 77.3 159.6 77.2 159.6 77.4 C 159.0 77.4 158.4 77.4 157.8 77.4 C 157.8 77.3 157.8 77.2 157.8 77.0 C 158.5 77.0 159.2 77.0 159.0 76.9 C 158.4 76.9 158.2 76.9 157.8 77.0 C 157.8 77.0 157.8 77.0 157.8 77.0 Z M 268.8 65.6 C 267.4 66.0 268.6 65.8 269.7 65.5 C 269.9 65.3 270.7 64.7 272.3 64.5 C 269.0 65.6 273.4 64.6 271.5 65.2 C 270.7 65.2 268.7 66.0 267.0 66.4 C 266.2 66.3 267.9 65.6 268.8 65.6 C 268.8 65.6 268.8 65.6 268.8 65.6 Z M 274.9 64.1 C 274.7 64.1 274.1 64.2 273.2 64.5 C 274.2 64.0 272.7 64.4 274.0 64.0 C 273.8 64.1 278.2 62.9 275.6 63.7 C 273.4 64.2 276.3 63.7 277.3 63.4 C 276.3 63.7 274.3 64.6 274.0 64.4 C 274.6 64.3 275.1 64.1 274.9 64.1 C 274.9 64.1 274.9 64.1 274.9 64.1 Z M 305.1 47.6 C 305.0 47.4 304.8 47.8 304.6 47.9 C 305.3 46.8 305.5 45.9 305.6 45.5 C 305.5 45.9 305.7 46.0 305.9 45.7 C 305.7 46.2 305.8 46.4 305.6 46.5 C 305.5 46.0 305.4 46.9 305.1 47.6 C 305.1 47.6 305.1 47.6 305.1 47.6 Z M 305.1 47.6 " fill="#000000"></path><image xlink:href="../../CEFA4209-80C9-472B-8D2B-058B96531B72/assets/B3801F04380499D666F22482CDF7C3B4.png" width="87.00" height="38.00" transform="matrix(1.00, 0.00, -0.00, -1.00, 116.0, 59.0)"></image><g><clipPath id="clip-821"><path d="M 10.1 4.8 L 308.2 4.8 L 308.2 82.6 L 10.1 82.6 Z M 10.1 4.8 "></path></clipPath><g clip-path="url(#clip-821)"><text xml:space="preserve" font-family="Chalkduster" font-size="32.0" fill="#000000" transform="matrix(1.00, 0.00, -0.00, -1.00, 120.0, 30.0)">C</text><text xml:space="preserve" font-family="Chalkduster" font-size="32.0" fill="#000000" transform="matrix(1.00, 0.00, -0.00, -1.00, 146.0, 30.0)">A</text><text xml:space="preserve" font-family="Chalkduster" font-size="32.0" fill="#000000" transform="matrix(1.00, 0.00, -0.00, -1.00, 168.7, 30.0)">W</text></g></g></g></svg>