<?xml version="1.0" encoding="UTF-8" standalone="no"?><svg xmlns="http://www.w3.org/2000/svg" xmlns:xlink="http://www.w3.org/1999/xlink" clip-rule="evenodd" stroke-miterlimit="4.00" viewBox="0 0 567 23"><desc>SVG generated by Keynote</desc><defs></defs><g transform="matrix(1.00, 0.00, -0.00, -1.00, 0.0, 23.0)"><text xml:space="preserve" font-family="AmericanTypewriter-Bold" font-weight="bold" font-size="25.0" fill="#FEFFFF" transform="matrix(1.00, 0.00, -0.00, -1.00, 1.0, 3.0)">R</text><text xml:space="preserve" font-family="AmericanTypewriter-Bold" font-weight="bold" font-size="25.0" fill="#FEFFFF" transform="matrix(1.00, 0.00, -0.00, -1.00, 20.1, 3.0)">e</text><text xml:space="preserve" font-family="AmericanTypewriter-Bold" font-weight="bold" font-size="25.0" fill="#FEFFFF" transform="matrix(1.00, 0.00, -0.00, -1.00, 33.8, 3.0)">a</text><text xml:space="preserve" font-family="AmericanTypewriter-Bold" font-weight="bold" font-size="25.0" fill="#FEFFFF" transform="matrix(1.00, 0.00, -0.00, -1.00, 48.4, 3.0)">d</text><text xml:space="preserve" font-family="AmericanTypewriter-Bold" font-weight="bold" font-size="25.0" fill="#FEFFFF" transform="matrix(1.00, 0.00, -0.00, -1.00, 64.3, 3.0)"> </text><text xml:space="preserve" font-family="AmericanTypewriter-Bold" font-weight="bold" font-size="25.0" fill="#FEFFFF" transform="matrix(1.00, 0.00, -0.00, -1.00, 70.5, 3.0)">a</text><text xml:space="preserve" font-family="AmericanTypewriter-Bold" font-weight="bold" font-size="25.0" fill="#FEFFFF" transform="matrix(1.00, 0.00, -0.00, -1.00, 85.1, 3.0)">n</text><text xml:space="preserve" font-family="AmericanTypewriter-Bold" font-weight="bold" font-size="25.0" fill="#FEFFFF" transform="matrix(1.00, 0.00, -0.00, -1.00, 102.0, 3.0)">d</text><text xml:space="preserve" font-family="AmericanTypewriter-Bold" font-weight="bold" font-size="25.0" fill="#FEFFFF" transform="matrix(1.00, 0.00, -0.00, -1.00, 117.9, 3.0)"> </text><text xml:space="preserve" font-family="AmericanTypewriter-Bold" font-weight="bold" font-size="25.0" fill="#FEFFFF" transform="matrix(1.00, 0.00, -0.00, -1.00, 124.1, 3.0)">W</text><text xml:space="preserve" font-family="AmericanTypewriter-Bold" font-weight="bold" font-size="25.0" fill="#FEFFFF" transform="matrix(1.00, 0.00, -0.00, -1.00, 149.2, 3.0)">r</text><text xml:space="preserve" font-family="AmericanTypewriter-Bold" font-weight="bold" font-size="25.0" fill="#FEFFFF" transform="matrix(1.00, 0.00, -0.00, -1.00, 162.0, 3.0)">i</text><text xml:space="preserve" font-family="AmericanTypewriter-Bold" font-weight="bold" font-size="25.0" fill="#FEFFFF" transform="matrix(1.00, 0.00, -0.00, -1.00, 171.1, 3.0)">t</text><text xml:space="preserve" font-family="AmericanTypewriter-Bold" font-weight="bold" font-size="25.0" fill="#FEFFFF" transform="matrix(1.00, 0.00, -0.00, -1.00, 182.0, 3.0)">e</text><text xml:space="preserve" font-family="AmericanTypewriter-Bold" font-weight="bold" font-size="25.0" fill="#FEFFFF" transform="matrix(1.00, 0.00, -0.00, -1.00, 195.7, 3.0)"> </text><text xml:space="preserve" font-family="AmericanTypewriter-Bold" font-weight="bold" font-size="25.0" fill="#FEFFFF" transform="matrix(1.00, 0.00, -0.00, -1.00, 201.9, 3.0)">a</text><text xml:space="preserve" font-family="AmericanTypewriter-Bold" font-weight="bold" font-size="25.0" fill="#FEFFFF" transform="matrix(1.00, 0.00, -0.00, -1.00, 216.5, 3.0)"> </text><text xml:space="preserve" font-family="AmericanTypewriter-Bold" font-weight="bold" font-size="25.0" fill="#FEFFFF" transform="matrix(1.00, 0.00, -0.00, -1.00, 222.7, 3.0)">1</text><text xml:space="preserve" font-family="AmericanTypewriter-Bold" font-weight="bold" font-size="25.0" fill="#FEFFFF" transform="matrix(1.00, 0.00, -0.00, -1.00, 237.8, 3.0)">0</text><text xml:space="preserve" font-family="AmericanTypewriter-Bold" font-weight="bold" font-size="25.0" fill="#FEFFFF" transform="matrix(1.00, 0.00, -0.00, -1.00, 254.1, 3.0)">G</text><text xml:space="preserve" font-family="AmericanTypewriter-Bold" font-weight="bold" font-size="25.0" fill="#FEFFFF" transform="matrix(1.00, 0.00, -0.00, -1.00, 271.9, 3.0)">B</text><text xml:space="preserve" font-family="AmericanTypewriter-Bold" font-weight="bold" font-size="25.0" fill="#FEFFFF" transform="matrix(1.00, 0.00, -0.00, -1.00, 290.5, 3.0)"> </text><text xml:space="preserve" font-family="AmericanTypewriter-Bold" font-weight="bold" font-size="25.0" fill="#FEFFFF" transform="matrix(1.00, 0.00, -0.00, -1.00, 296.8, 3.0)">ï¬</text><text xml:space="preserve" font-family="AmericanTypewriter-Bold" font-weight="bold" font-size="25.0" fill="#FEFFFF" transform="matrix(1.00, 0.00, -0.00, -1.00, 313.6, 3.0)">l</text><text xml:space="preserve" font-family="AmericanTypewriter-Bold" font-weight="bold" font-size="25.0" fill="#FEFFFF" transform="matrix(1.00, 0.00, -0.00, -1.00, 322.7, 3.0)">e</text><text xml:space="preserve" font-family="AmericanTypewriter-Bold" font-weight="bold" font-size="25.0" fill="#FEFFFF" transform="matrix(1.00, 0.00, -0.00, -1.00, 336.4, 3.0)"> </text><text xml:space="preserve" font-family="AmericanTypewriter-Bold" font-weight="bold" font-size="25.0" fill="#FEFFFF" transform="matrix(1.00, 0.00, -0.00, -1.00, 342.6, 3.0)">i</text><text xml:space="preserve" font-family="AmericanTypewriter-Bold" font-weight="bold" font-size="25.0" fill="#FEFFFF" transform="matrix(1.00, 0.00, -0.00, -1.00, 351.7, 3.0)">n</text><text xml:space="preserve" font-family="AmericanTypewriter-Bold" font-weight="bold" font-size="25.0" fill="#FEFFFF" transform="matrix(1.00, 0.00, -0.00, -1.00, 368.6, 3.0)"> </text><text xml:space="preserve" font-family="AmericanTypewriter-Bold" font-weight="bold" font-size="25.0" fill="#FEFFFF" transform="matrix(1.00, 0.00, -0.00, -1.00, 374.8, 3.0)">c</text><text xml:space="preserve" font-family="AmericanTypewriter-Bold" font-weight="bold" font-size="25.0" fill="#FEFFFF" transform="matrix(1.00, 0.00, -0.00, -1.00, 388.0, 3.0)">h</text><text xml:space="preserve" font-family="AmericanTypewriter-Bold" font-weight="bold" font-size="25.0" fill="#FEFFFF" transform="matrix(1.00, 0.00, -0.00, -1.00, 404.4, 3.0)">u</text><text xml:space="preserve" font-family="AmericanTypewriter-Bold" font-weight="bold" font-size="25.0" fill="#FEFFFF" transform="matrix(1.00, 0.00, -0.00, -1.00, 420.3, 3.0)">n</text><text xml:space="preserve" font-family="AmericanTypewriter-Bold" font-weight="bold" font-size="25.0" fill="#FEFFFF" transform="matrix(1.00, 0.00, -0.00, -1.00, 437.2, 3.0)">k</text><text xml:space="preserve" font-family="AmericanTypewriter-Bold" font-weight="bold" font-size="25.0" fill="#FEFFFF" transform="matrix(1.00, 0.00, -0.00, -1.00, 454.4, 3.0)">s</text><text xml:space="preserve" font-family="AmericanTypewriter-Bold" font-weight="bold" font-size="25.0" fill="#FEFFFF" transform="matrix(1.00, 0.00, -0.00, -1.00, 467.2, 3.0)"> </text><text xml:space="preserve" font-family="AmericanTypewriter-Bold" font-weight="bold" font-size="25.0" fill="#FEFFFF" transform="matrix(1.00, 0.00, -0.00, -1.00, 473.4, 3.0)">o</text><text xml:space="preserve" font-family="AmericanTypewriter-Bold" font-weight="bold" font-size="25.0" fill="#FEFFFF" transform="matrix(1.00, 0.00, -0.00, -1.00, 487.5, 3.0)">f</text><text xml:space="preserve" font-family="AmericanTypewriter-Bold" font-weight="bold" font-size="25.0" fill="#FEFFFF" transform="matrix(1.00, 0.00, -0.00, -1.00, 497.6, 3.0)"> </text><text xml:space="preserve" font-family="AmericanTypewriter-Bold" font-weight="bold" font-size="25.0" fill="#FEFFFF" transform="matrix(1.00, 0.00, -0.00, -1.00, 503.8, 3.0)">8</text><text xml:space="preserve" font-family="AmericanTypewriter-Bold" font-weight="bold" font-size="25.0" fill="#FEFFFF" transform="matrix(1.00, 0.00, -0.00, -1.00, 520.2, 3.0)">M</text><text xml:space="preserve" font-family="AmericanTypewriter-Bold" font-weight="bold" font-size="25.0" fill="#FEFFFF" transform="matrix(1.00, 0.00, -0.00, -1.00, 547.0, 3.0)">B</text></g></svg>