<?xml version="1.0" encoding="UTF-8" standalone="no"?><svg xmlns="http://www.w3.org/2000/svg" xmlns:xlink="http://www.w3.org/1999/xlink" clip-rule="evenodd" stroke-miterlimit="4.00" viewBox="0 0 309 79"><desc>SVG generated by Keynote</desc><defs></defs><g transform="matrix(1.00, 0.00, -0.00, -1.00, 0.0, 79.0)"><g><clipPath id="clip-860"><path d="M 259.7 63.9 C 317.9 50.6 317.9 29.0 259.7 15.7 C 201.5 2.4 107.1 2.4 48.9 15.7 C -9.3 29.0 -9.3 50.6 48.9 63.9 C 107.1 77.3 201.5 77.3 259.7 63.9 Z M 259.7 63.9 "></path></clipPath><g clip-path="url(#clip-860)"><image xlink:href="../../CEFA4209-80C9-472B-8D2B-058B96531B72/assets/59DBD66EA15A3D40E065F836EF2595FD.jpeg" width="400.00" height="400.00" transform="matrix(1.00, 0.00, -0.00, -1.00, 5.2, 73.9)"></image></g></g><path d="M 75.2 7.0 C 74.7 7.1 74.2 7.2 73.5 7.3 C 73.8 7.3 74.1 7.4 74.1 7.5 C 74.7 7.3 75.6 7.2 76.9 7.0 C 76.8 6.9 76.2 7.0 75.7 7.1 C 75.2 7.2 75.3 7.1 75.2 7.0 C 75.2 7.0 75.2 7.0 75.2 7.0 Z M 75.0 72.1 C 73.9 71.9 75.1 72.3 75.5 72.4 C 75.6 72.3 75.6 72.3 76.0 72.4 C 76.1 72.6 75.1 72.5 74.4 72.5 C 71.3 71.9 73.6 71.9 75.0 72.1 C 75.0 72.1 75.0 72.1 75.0 72.1 Z M 236.6 71.5 C 239.0 71.1 236.4 71.2 236.0 71.2 C 237.1 71.0 236.2 70.7 237.6 70.5 C 237.9 70.6 238.4 70.6 238.7 70.6 C 238.1 70.8 237.2 70.9 237.1 71.0 C 237.9 70.9 239.1 70.6 239.3 70.7 C 237.4 71.1 239.0 71.0 239.3 71.1 C 237.7 71.3 237.2 71.6 236.6 71.5 C 236.6 71.5 236.6 71.5 236.6 71.5 Z M 264.5 14.1 C 265.7 14.4 266.7 14.7 266.4 14.8 C 265.2 14.4 264.3 14.2 263.6 14.0 C 263.4 14.0 263.8 14.2 262.6 14.0 C 261.4 13.5 262.1 13.3 262.8 13.4 C 262.8 13.6 267.0 14.5 264.5 14.1 C 264.5 14.1 264.5 14.1 264.5 14.1 Z M 200.3 5.1 C 198.0 4.8 200.2 5.5 197.9 5.2 C 198.0 5.0 197.6 4.7 199.2 4.8 C 199.3 4.9 200.2 5.0 200.3 5.1 C 200.3 5.1 200.3 5.1 200.3 5.1 Z M 169.2 75.1 C 169.2 75.2 170.9 75.1 170.4 75.4 C 169.6 75.4 168.8 75.4 167.9 75.4 C 167.8 75.2 168.1 75.1 169.2 75.1 C 169.2 75.1 169.2 75.1 169.2 75.1 Z M 252.0 66.4 C 254.4 66.2 256.7 65.4 256.0 65.7 C 257.0 65.8 254.6 66.8 254.6 66.5 C 254.3 66.3 250.2 66.8 252.0 66.4 C 252.0 66.4 252.0 66.4 252.0 66.4 Z M 88.5 69.6 C 91.2 70.1 90.7 69.3 92.5 69.9 C 91.9 69.8 91.6 69.9 91.4 69.9 C 91.8 70.0 92.5 70.0 92.5 70.1 C 91.2 70.0 89.6 69.9 88.5 69.6 C 88.5 69.6 88.5 69.6 88.5 69.6 Z M 115.1 3.6 C 115.6 3.6 115.8 3.5 115.8 3.4 C 117.7 3.3 117.6 3.1 118.8 3.2 C 118.9 3.5 117.3 3.5 115.8 3.6 C 115.7 3.6 115.2 3.7 115.1 3.6 C 115.1 3.6 115.1 3.6 115.1 3.6 Z M 170.1 3.5 C 170.1 3.3 168.9 3.2 170.8 3.2 C 172.8 3.5 171.0 3.7 168.8 3.8 C 168.8 3.9 168.8 4.0 168.8 4.1 C 169.7 4.1 170.2 4.2 170.7 4.2 C 171.1 3.9 172.5 4.6 175.7 4.4 C 174.2 4.6 175.8 4.9 173.8 4.7 C 174.4 4.9 173.0 4.9 173.2 5.1 C 174.1 5.0 176.2 5.1 175.7 4.8 C 176.8 4.8 177.6 4.9 178.2 4.9 C 179.0 5.2 176.2 4.9 177.0 5.2 C 177.6 5.2 177.7 5.3 178.2 5.3 C 178.3 5.2 178.1 5.1 178.8 5.1 C 180.8 5.3 178.4 5.4 181.2 5.5 C 181.4 5.4 180.6 5.3 180.7 5.2 C 181.9 5.1 181.9 5.3 183.1 5.2 C 183.4 5.4 182.2 5.4 183.1 5.5 C 183.9 5.1 185.7 5.8 187.5 5.6 C 186.3 5.0 187.8 5.7 189.3 5.3 C 189.7 5.4 188.5 5.7 189.9 5.8 C 189.5 5.1 195.0 5.6 190.6 4.9 C 192.9 5.0 193.7 4.6 191.8 4.4 C 195.9 4.8 194.6 4.4 196.1 4.4 C 197.7 4.5 195.3 4.5 196.1 4.7 C 194.5 4.6 194.9 4.8 193.7 4.6 C 193.7 4.7 193.4 4.7 193.0 4.8 C 194.7 4.7 196.6 5.2 195.4 5.4 C 194.6 5.3 195.4 5.1 194.3 5.0 C 194.7 5.4 193.1 4.9 193.0 5.1 C 193.8 5.5 191.4 5.6 193.6 5.8 C 193.6 5.6 193.6 5.5 193.6 5.4 C 194.2 5.4 194.8 5.5 195.4 5.5 C 195.9 5.8 195.5 5.9 196.0 6.0 C 197.0 6.1 197.6 6.1 197.9 6.0 C 196.6 5.8 195.2 5.5 197.3 5.6 C 196.5 6.0 200.1 5.9 198.5 6.1 C 200.7 6.4 201.8 6.1 202.1 6.4 C 203.2 6.5 202.5 6.2 203.9 6.3 C 206.1 6.7 205.7 6.4 208.6 6.8 C 209.0 6.5 208.9 6.9 209.8 7.0 C 209.9 6.9 209.9 6.8 209.9 6.6 C 210.9 6.9 213.3 7.3 215.7 7.3 C 216.3 7.4 215.9 7.6 217.5 7.7 C 219.2 7.5 221.2 8.1 223.2 8.0 C 223.4 8.2 224.8 8.4 225.5 8.4 C 225.8 8.5 224.8 8.7 226.0 8.8 C 226.9 8.7 225.4 8.5 227.2 8.6 C 227.0 8.8 228.9 8.6 228.9 8.9 C 228.3 8.9 227.7 8.9 227.2 8.9 C 227.9 9.0 227.7 9.1 228.3 9.2 C 228.2 8.9 229.6 9.3 230.0 9.4 C 229.9 9.3 230.1 9.2 230.6 9.2 C 231.5 9.3 232.3 9.4 232.8 9.4 C 234.0 9.7 232.1 9.5 233.3 9.7 C 234.0 9.2 235.1 10.1 237.7 10.1 C 238.3 10.3 239.3 10.6 240.9 10.9 C 241.1 10.7 239.4 10.6 239.3 10.4 C 241.7 10.8 238.9 10.2 240.5 10.4 C 243.8 11.1 245.9 11.5 249.3 12.3 C 249.3 12.1 252.0 12.5 251.9 12.6 C 251.2 12.4 253.3 13.1 254.3 13.4 C 254.7 13.0 256.4 13.0 256.6 12.9 C 256.9 13.1 256.8 13.1 256.9 13.5 C 258.7 14.0 259.3 13.8 261.5 14.7 C 261.3 14.5 263.0 14.8 264.4 15.1 C 264.0 15.2 263.1 15.1 262.4 15.1 C 264.2 15.5 264.5 15.7 266.1 16.1 C 267.8 15.8 270.1 17.3 271.4 17.0 C 273.8 17.7 273.4 17.8 275.4 18.5 C 275.4 18.3 275.7 18.3 276.3 18.4 C 274.9 18.0 273.8 17.9 273.1 17.4 C 276.3 18.3 267.2 15.0 272.6 16.3 C 272.7 16.4 272.2 16.5 273.3 16.8 C 276.3 17.6 274.6 16.8 273.4 16.5 C 275.4 17.0 277.4 17.7 275.9 17.0 C 280.4 18.3 277.5 17.6 278.9 18.2 C 286.5 20.5 294.3 23.9 299.3 28.3 C 299.7 28.2 302.1 30.7 302.6 31.6 C 303.8 32.7 304.7 34.1 304.7 34.7 C 305.1 34.8 305.2 36.4 305.5 36.5 C 305.3 35.9 305.3 35.4 305.5 36.0 C 306.2 38.2 306.0 41.4 305.8 42.7 C 305.3 43.3 304.9 44.7 304.5 45.6 C 304.3 45.7 304.7 45.0 304.3 45.5 C 304.3 45.7 303.3 47.6 302.8 47.9 C 303.2 47.5 303.4 46.7 302.8 47.4 C 302.9 47.5 302.1 48.4 302.5 48.3 C 301.4 49.3 300.9 50.0 299.8 50.8 C 300.6 50.1 301.0 49.6 301.0 49.3 C 300.4 50.0 300.0 50.5 299.2 50.9 C 299.6 51.0 298.3 51.8 297.0 52.9 C 296.6 53.1 296.2 53.2 295.0 53.9 C 294.5 54.4 297.0 52.9 295.7 53.9 C 295.6 53.7 294.2 54.4 294.7 54.4 C 293.0 55.3 292.1 56.0 290.4 56.6 C 292.4 55.7 290.8 56.1 290.3 56.3 C 289.8 56.5 289.1 56.8 289.2 56.9 C 289.2 57.0 290.2 56.5 290.4 56.5 C 288.9 57.1 288.7 57.7 288.0 57.7 C 288.7 57.4 288.8 57.2 288.0 57.5 C 288.0 58.0 283.2 59.6 284.8 58.8 C 284.8 58.9 286.6 58.2 286.7 58.0 C 286.2 58.1 283.6 59.3 284.0 58.8 C 285.6 58.2 285.6 58.4 287.3 57.6 C 287.4 57.3 288.4 56.8 289.0 56.5 C 286.3 57.7 285.7 58.2 285.2 58.1 C 284.0 58.6 284.9 58.6 282.7 59.4 C 279.5 60.5 282.0 59.3 281.2 59.5 C 278.3 60.7 279.3 60.7 280.6 60.4 C 278.3 61.3 277.6 61.7 274.5 62.5 C 274.6 62.4 275.0 62.1 276.1 61.7 C 276.2 61.8 278.7 61.1 278.4 61.0 C 278.1 60.8 276.1 61.3 272.7 62.3 C 273.6 62.4 273.7 62.1 270.2 63.1 C 270.9 63.3 268.5 63.5 268.5 63.8 C 268.7 63.8 269.9 63.5 271.1 63.1 C 271.1 63.3 270.7 63.5 269.5 63.9 C 268.7 64.0 268.2 64.3 265.9 64.8 C 265.7 64.6 267.3 64.2 267.6 63.9 C 266.4 64.3 266.1 64.5 264.9 64.8 C 263.8 64.8 263.8 64.5 263.8 64.2 C 265.2 63.7 267.4 63.2 265.6 63.5 C 270.9 62.1 265.4 63.9 267.4 63.4 C 269.5 62.5 268.5 63.3 271.7 62.3 C 272.7 62.0 273.0 61.8 273.4 61.6 C 273.1 61.7 271.2 62.0 273.3 61.3 C 273.8 61.3 275.0 61.1 276.6 60.6 C 276.5 60.5 273.2 61.4 276.5 60.4 C 278.1 59.9 276.8 60.7 278.9 60.0 C 278.8 59.9 279.4 59.7 279.5 59.6 C 276.6 60.6 280.1 59.2 278.0 59.8 C 280.6 58.8 278.5 59.9 280.2 59.2 C 280.2 59.1 283.0 58.4 282.9 58.1 C 282.0 58.6 279.9 59.3 280.1 58.9 C 282.0 58.3 289.6 54.9 286.8 56.5 C 287.8 55.9 292.5 53.2 292.2 53.6 C 290.9 54.3 291.0 54.4 290.8 54.6 C 293.4 53.0 294.7 52.5 296.7 50.7 C 294.3 52.3 295.9 50.7 294.2 51.5 C 293.6 52.0 292.5 52.5 292.4 52.7 C 292.8 52.8 293.9 52.0 294.3 51.6 C 294.4 51.8 294.5 52.0 294.6 52.2 C 291.6 53.8 289.6 54.9 287.8 55.7 C 289.4 54.9 284.7 56.7 286.5 55.8 C 287.3 55.6 289.2 54.8 290.6 54.2 C 290.6 54.1 290.5 54.0 290.5 53.9 C 291.1 53.6 291.9 53.2 291.9 53.1 C 290.2 54.1 289.0 54.4 287.6 55.2 C 287.6 55.2 287.6 55.1 287.6 55.1 C 287.2 55.2 286.9 55.4 287.0 55.3 C 287.6 54.9 288.6 54.5 288.7 54.4 C 287.2 55.0 286.8 55.0 285.0 55.7 C 285.3 55.2 282.8 55.9 285.3 54.7 C 285.9 54.8 287.3 54.3 287.3 54.4 C 288.0 54.2 289.4 53.4 290.0 53.0 C 289.3 53.2 287.9 53.8 287.6 53.6 C 288.8 53.1 289.6 52.5 290.3 52.4 C 288.2 53.6 291.6 52.0 292.5 51.8 C 292.2 51.8 291.7 52.0 291.4 52.0 C 293.0 51.1 293.7 50.9 293.6 50.5 C 295.3 49.4 295.0 49.8 296.1 49.1 C 295.2 49.3 296.6 48.4 295.8 48.7 C 297.4 47.4 296.5 48.6 297.0 48.1 C 297.5 47.7 297.5 47.6 297.9 47.2 C 298.6 46.7 299.7 45.6 300.0 45.6 C 300.4 45.1 300.6 45.1 300.9 44.6 C 300.9 44.4 300.9 44.2 301.0 44.0 C 301.1 43.9 301.5 43.6 301.4 43.5 C 300.4 44.7 300.6 44.2 299.2 45.5 C 299.2 45.6 299.1 45.9 299.4 45.6 C 298.6 46.6 298.2 46.8 297.2 47.7 C 296.9 47.6 296.5 47.5 295.6 48.5 C 295.7 48.1 295.4 48.2 295.8 47.9 C 296.4 47.6 297.1 47.1 297.8 46.6 C 297.8 46.5 297.6 46.5 297.9 46.2 C 298.3 46.0 298.7 45.6 299.0 45.2 C 299.0 45.2 299.0 45.4 298.9 45.6 C 300.1 44.4 299.5 44.6 300.2 43.8 C 300.0 43.8 299.6 44.4 299.8 43.9 C 300.3 43.0 300.5 42.9 300.7 42.5 C 300.7 42.4 300.6 42.4 300.7 42.2 C 301.1 41.7 300.5 43.7 301.3 42.8 C 301.1 42.6 301.6 41.7 301.7 41.6 C 301.8 41.9 301.3 42.4 301.5 42.6 C 302.3 40.7 302.1 42.7 302.5 40.7 C 302.4 40.6 302.3 40.6 302.2 40.6 C 302.1 41.4 301.9 41.4 301.6 41.3 C 301.5 41.9 301.1 42.1 301.0 42.7 C 300.7 42.3 301.2 42.1 301.4 41.5 C 301.2 41.4 301.0 42.0 300.8 42.0 C 301.5 40.7 301.2 40.4 301.4 39.0 C 301.1 39.4 301.2 38.3 301.0 38.4 C 301.3 39.5 300.5 39.2 300.4 39.3 C 300.5 40.0 300.9 39.7 301.1 40.1 C 300.8 40.3 300.7 40.2 300.4 40.1 C 300.5 39.5 300.4 39.6 300.2 39.2 C 300.4 38.8 300.8 38.3 301.0 38.8 C 300.9 38.7 300.6 37.9 300.7 37.8 C 301.0 38.6 300.8 37.6 301.1 38.1 C 301.0 37.4 300.2 36.3 299.7 35.3 C 299.6 35.4 299.4 35.1 299.3 35.2 C 300.1 36.0 299.8 36.5 300.1 37.2 C 300.0 36.9 299.9 37.2 299.9 37.3 C 299.7 36.6 299.2 36.2 298.9 35.5 C 298.9 35.5 298.8 35.6 298.8 35.6 C 298.1 34.5 298.1 34.7 297.2 34.0 C 296.9 33.6 297.7 33.7 298.0 33.7 C 297.5 33.4 295.8 31.8 296.6 32.9 C 295.6 32.0 296.1 32.0 294.9 31.1 C 294.7 31.3 295.8 32.1 295.2 32.1 C 294.1 31.3 294.9 31.5 293.8 31.0 C 293.9 30.8 294.0 30.6 292.8 29.9 C 293.6 30.5 292.7 29.9 292.3 29.8 C 292.8 30.2 293.2 30.5 293.4 30.7 C 291.5 29.4 291.0 29.1 288.9 28.1 C 289.8 28.3 288.7 27.6 290.1 28.2 C 288.8 27.7 287.2 26.6 286.4 26.4 C 287.2 26.9 288.6 27.6 289.0 27.9 C 284.9 25.9 282.1 25.1 277.3 23.1 C 278.1 23.4 279.3 23.8 279.4 23.8 C 278.9 23.6 278.0 23.3 278.0 23.2 C 279.7 23.8 281.3 24.4 282.1 24.6 C 283.5 25.3 281.3 24.5 282.7 25.1 C 283.0 25.1 285.5 26.3 284.7 25.6 C 282.3 24.8 279.9 23.7 278.9 22.9 C 276.3 22.5 278.7 23.3 275.7 22.8 C 275.8 22.7 275.2 22.4 274.3 22.1 C 275.1 22.7 271.5 21.4 271.1 21.3 C 272.6 21.5 277.7 23.0 275.2 21.9 C 276.2 22.8 269.1 19.9 270.4 20.7 C 266.8 19.8 268.2 19.8 266.1 19.6 C 266.0 19.4 266.3 19.4 265.3 19.1 C 264.2 18.8 263.9 18.8 263.4 18.8 C 268.8 20.3 267.1 20.2 270.3 21.1 C 269.7 21.0 269.2 20.8 269.4 20.9 C 269.4 21.0 269.3 21.0 268.5 20.8 C 268.4 20.4 265.8 20.1 265.1 19.7 C 266.2 20.0 267.2 20.2 266.9 20.0 C 264.7 19.5 263.8 19.2 262.6 18.8 C 261.5 18.4 259.7 17.9 258.1 17.5 C 259.0 17.8 257.7 17.6 256.6 17.4 C 255.0 17.0 255.7 16.7 253.7 16.4 C 253.8 17.0 251.7 15.9 249.2 15.8 C 249.5 15.5 246.3 14.8 245.6 15.0 C 245.5 14.8 244.4 14.7 243.5 14.5 C 243.4 14.3 244.3 14.4 243.6 14.3 C 242.9 14.2 243.5 14.6 242.5 14.4 C 241.4 14.2 241.7 13.9 239.9 13.7 C 239.9 13.9 240.8 14.0 239.9 14.0 C 238.4 13.6 237.0 13.4 238.3 13.9 C 236.0 13.6 237.2 13.3 235.1 13.0 C 235.7 13.2 235.6 13.3 234.5 13.2 C 233.7 12.8 233.7 12.7 233.4 12.6 C 232.8 12.7 233.0 12.8 231.2 12.4 C 231.2 12.6 231.2 12.7 231.2 12.8 C 230.4 12.6 229.2 12.5 229.0 12.4 C 230.5 12.6 230.1 12.4 230.7 12.4 C 229.2 12.1 226.3 11.5 228.5 12.1 C 226.3 11.9 227.4 11.7 225.7 11.6 C 226.7 12.0 225.8 11.6 224.0 11.4 C 224.1 11.8 222.8 11.3 221.7 11.2 C 221.9 11.4 221.6 11.5 220.6 11.4 C 220.6 11.3 220.0 11.2 218.9 11.1 C 218.8 11.2 221.2 11.6 218.8 11.3 C 217.7 11.1 217.8 10.8 216.0 10.6 C 215.6 10.3 217.6 10.6 217.2 10.3 C 215.7 10.4 215.3 10.2 213.1 9.9 C 213.9 10.4 208.7 10.1 211.3 10.5 C 210.5 10.5 209.5 10.7 208.9 10.4 C 209.7 10.4 208.3 10.1 208.4 10.0 C 207.3 10.0 204.9 9.6 204.8 9.8 C 207.1 9.9 207.1 10.2 207.7 10.4 C 204.5 10.2 201.6 9.9 201.8 9.6 C 201.8 9.7 201.3 9.7 201.2 9.8 C 202.4 9.8 203.1 10.3 201.8 10.2 C 202.1 10.0 201.1 9.8 200.0 9.7 C 200.0 9.9 195.6 9.2 196.4 9.7 C 198.2 9.6 199.5 10.0 198.2 10.1 C 197.1 9.8 194.7 9.5 195.2 9.3 C 194.6 9.4 194.0 9.4 193.4 9.5 C 192.8 9.6 194.2 9.7 194.0 9.9 C 193.1 9.8 191.7 9.8 191.5 9.7 C 194.0 9.8 190.3 9.4 192.8 9.4 C 191.3 9.3 190.9 9.2 189.7 9.1 C 189.7 9.2 189.2 9.2 189.1 9.2 C 190.2 9.1 191.3 9.3 190.9 9.6 C 188.7 9.5 189.1 9.2 187.3 9.1 C 186.7 9.3 184.2 9.5 183.0 9.2 C 185.4 9.3 182.8 9.1 184.2 9.0 C 186.4 9.3 187.0 9.1 187.9 8.9 C 186.9 8.7 185.1 8.5 184.8 8.8 C 186.0 8.9 186.0 8.8 186.7 8.8 C 186.6 8.9 186.3 9.0 185.4 9.0 C 184.4 8.8 182.1 8.9 183.6 8.6 C 182.1 8.7 180.3 8.4 178.7 8.5 C 180.5 8.6 181.8 8.7 182.4 9.0 C 180.9 9.0 179.4 8.7 179.3 8.8 C 179.5 9.0 181.9 9.1 182.4 9.3 C 180.4 9.4 177.5 8.6 179.9 9.3 C 178.8 9.2 177.3 9.1 176.8 9.0 C 178.2 9.0 176.7 8.6 176.2 8.6 C 175.0 8.5 174.1 8.5 173.7 8.6 C 175.5 8.6 176.8 9.0 175.6 8.9 C 175.3 8.8 174.9 8.9 174.4 9.0 C 174.2 8.8 172.2 8.9 171.9 8.7 C 172.0 8.9 172.9 8.9 173.1 9.0 C 171.9 9.1 170.2 9.4 169.4 9.0 C 170.1 9.0 171.2 9.1 171.2 9.0 C 168.0 8.5 167.0 8.2 163.2 8.0 C 163.7 8.0 163.9 7.9 163.8 7.9 C 161.3 7.8 159.8 7.7 160.1 7.5 C 158.5 7.5 157.8 7.7 157.0 7.8 C 158.5 7.9 159.1 7.7 160.1 7.9 C 159.5 7.9 161.3 8.4 161.9 8.5 C 164.6 8.3 164.8 8.8 167.5 8.6 C 166.7 8.9 169.5 8.7 168.7 9.0 C 166.2 8.6 163.8 8.8 160.1 8.6 C 160.5 8.4 161.0 8.2 159.5 8.1 C 157.1 8.0 158.2 8.3 156.3 8.3 C 155.5 8.1 156.7 8.0 155.7 7.9 C 155.0 8.0 153.2 8.0 152.6 7.8 C 155.1 7.8 152.1 7.6 153.8 7.5 C 152.9 7.5 152.5 7.4 151.9 7.4 C 154.4 7.7 149.4 7.7 151.3 7.9 C 147.8 8.1 151.1 7.3 148.2 7.4 C 149.6 7.6 147.8 7.7 145.7 7.7 C 145.1 7.4 143.0 7.4 141.3 7.4 C 142.2 7.5 142.9 7.5 141.3 7.7 C 142.2 7.8 143.6 7.7 144.4 7.6 C 144.4 7.7 144.7 7.8 145.1 7.8 C 143.0 7.9 143.9 8.0 143.2 8.1 C 142.6 8.0 141.1 8.1 140.7 7.9 C 140.7 8.0 140.2 8.0 140.1 8.1 C 142.7 8.1 139.7 8.4 141.3 8.5 C 142.5 8.4 141.8 8.2 143.2 8.2 C 144.6 8.5 142.1 8.5 141.3 8.8 C 142.6 9.0 144.0 8.6 144.4 8.9 C 142.9 9.2 140.3 9.1 138.3 9.0 C 138.4 9.4 134.8 9.0 134.5 9.4 C 134.2 9.4 133.9 9.3 133.3 9.2 C 132.7 9.5 132.0 9.2 131.4 9.2 C 131.4 9.4 131.6 9.5 132.1 9.5 C 129.5 9.5 128.9 9.5 125.9 9.8 C 125.4 9.6 124.9 9.5 124.7 9.3 C 125.4 9.3 126.0 9.2 126.5 9.1 C 122.4 9.2 125.1 9.8 122.2 9.5 C 122.3 9.7 124.3 9.9 122.8 10.0 C 120.3 9.8 116.7 10.3 116.7 9.6 C 114.5 9.5 113.0 10.1 111.9 9.8 C 111.2 9.9 111.0 10.0 110.7 10.1 C 111.4 10.2 112.3 10.2 113.1 10.3 C 114.4 10.1 115.1 10.3 113.7 10.0 C 115.7 9.9 116.3 10.0 117.4 10.1 C 114.6 10.4 112.0 10.3 112.0 10.7 C 111.0 10.6 110.3 10.5 109.5 10.4 C 109.2 10.6 106.2 10.9 105.9 10.7 C 108.0 10.6 110.1 10.1 108.3 10.1 C 103.1 10.7 100.3 10.5 95.9 11.2 C 95.7 11.0 96.1 10.8 95.3 10.9 C 95.3 11.0 95.1 11.2 94.7 11.3 C 93.3 11.4 92.5 11.4 90.7 11.6 C 90.8 11.4 90.5 11.2 89.4 11.3 C 88.9 11.6 87.1 12.3 86.1 12.3 C 87.2 12.2 85.7 12.0 84.9 12.1 C 85.6 12.4 79.9 12.5 81.6 12.6 C 79.3 12.9 78.3 12.9 78.2 12.8 C 77.4 13.0 76.8 13.1 76.0 13.3 C 75.5 13.0 71.7 13.8 71.2 13.8 C 72.5 13.7 72.7 13.3 71.6 13.4 C 70.9 13.7 67.5 14.5 66.9 14.5 C 67.1 14.4 67.3 14.1 69.0 13.8 C 66.2 14.2 66.2 14.6 65.4 14.9 C 65.4 14.6 64.2 15.1 63.8 15.2 C 62.9 15.2 63.8 15.1 63.7 14.9 C 62.8 15.0 62.4 15.0 61.1 15.2 C 61.5 15.4 60.1 15.5 59.6 15.6 C 59.5 15.8 58.8 16.0 57.7 16.3 C 59.1 15.6 51.3 17.1 53.2 17.0 C 51.7 17.6 51.6 17.1 49.8 17.5 C 49.6 17.6 49.2 17.8 48.8 17.9 C 48.4 18.0 48.9 17.9 49.4 17.9 C 49.0 18.0 48.2 18.2 47.9 18.2 C 47.6 18.3 47.4 18.3 47.2 18.3 C 46.8 18.3 46.3 18.4 44.6 18.8 C 46.2 18.8 41.2 19.6 42.1 19.8 C 40.5 19.8 38.0 21.1 35.4 21.5 C 35.4 21.6 34.7 21.8 34.6 21.9 C 34.3 22.1 37.7 21.1 35.5 21.9 C 32.8 22.5 34.2 22.0 33.8 22.0 C 26.9 24.3 20.1 27.1 15.8 29.6 C 16.4 29.3 16.4 29.4 15.5 30.0 C 14.1 30.3 10.5 33.5 10.2 34.1 C 9.7 34.1 8.8 35.8 8.5 36.0 C 8.7 35.7 8.9 35.0 8.5 35.6 C 8.5 36.1 8.0 36.5 8.0 37.2 C 7.5 37.3 7.4 39.1 7.1 38.2 C 7.0 38.5 6.9 38.7 6.9 38.8 C 7.2 38.9 7.0 39.2 7.3 38.7 C 6.8 40.1 7.1 40.4 7.3 41.6 C 7.5 41.8 7.3 40.9 7.6 41.5 C 7.5 41.5 7.5 41.5 7.4 41.6 C 7.5 41.8 7.6 41.8 7.6 42.0 C 7.4 42.0 7.3 41.6 7.0 41.7 C 7.3 42.2 7.2 42.7 7.5 42.9 C 7.1 42.0 7.8 42.4 7.8 43.0 C 7.5 42.6 9.1 44.9 9.9 45.6 C 10.1 46.2 9.2 44.8 9.1 45.0 C 10.4 46.5 10.3 46.4 10.7 46.4 C 11.5 47.3 11.8 47.7 13.2 48.6 C 13.9 49.2 12.6 48.4 13.4 49.0 C 14.0 49.3 14.3 49.3 15.1 49.9 C 17.1 51.7 24.3 54.3 28.2 56.5 C 26.6 55.7 28.8 56.4 31.1 57.2 C 31.2 57.4 30.9 57.4 31.7 57.7 C 31.7 57.5 32.5 57.7 34.1 58.2 C 34.2 58.3 33.9 58.4 34.8 58.7 C 35.6 58.6 37.6 59.5 38.9 59.7 C 39.4 60.1 35.9 59.0 35.6 59.1 C 39.6 60.5 40.5 60.4 44.0 61.4 C 42.2 61.0 45.3 62.0 45.8 62.2 C 45.1 61.7 48.0 62.3 46.0 61.6 C 47.3 62.0 49.3 62.4 49.5 62.5 C 49.1 62.5 47.8 62.2 47.7 62.2 C 49.5 62.6 50.4 63.1 50.9 63.0 C 50.3 62.8 49.9 62.6 50.0 62.5 C 50.2 62.5 50.5 62.4 51.0 62.5 C 49.5 62.8 53.6 63.4 53.8 63.3 C 54.1 63.7 54.4 63.8 54.2 63.9 C 55.9 64.3 55.8 64.0 56.8 64.1 C 56.4 64.3 56.1 64.5 57.6 64.9 C 57.4 64.5 59.3 65.0 58.8 64.5 C 63.0 65.2 63.9 65.7 66.5 66.1 C 66.6 66.0 65.8 65.9 66.5 66.0 C 67.8 66.3 68.8 66.5 69.6 66.8 C 70.4 66.7 69.4 66.5 70.2 66.6 C 72.2 67.1 71.6 67.3 73.4 67.8 C 75.6 67.9 74.8 67.9 76.1 67.9 C 75.5 67.8 74.8 67.5 75.6 67.6 C 76.9 68.0 77.4 68.4 77.7 68.5 C 76.8 68.4 76.0 68.2 75.6 68.1 C 75.2 68.2 73.9 68.0 75.0 68.3 C 73.6 68.1 72.1 67.8 70.1 67.5 C 70.7 67.9 68.3 67.3 69.0 67.7 C 71.2 68.0 71.7 68.2 73.8 68.5 C 73.4 68.1 75.6 68.6 76.0 68.7 C 76.0 68.6 77.5 68.8 77.2 68.6 C 78.9 68.7 78.8 68.9 80.5 69.1 C 80.6 69.2 80.3 69.3 81.0 69.4 C 81.6 69.2 82.1 69.6 82.7 69.7 C 82.3 69.4 84.8 69.8 85.0 69.7 C 84.3 69.6 83.4 69.5 83.3 69.4 C 86.0 69.7 83.9 69.2 83.3 69.0 C 83.4 69.1 82.4 69.3 82.2 69.1 C 84.5 69.2 79.0 68.2 81.1 68.6 C 82.8 68.9 82.8 68.7 84.5 69.0 C 86.6 69.6 84.0 69.6 86.1 70.2 C 87.4 70.1 88.3 70.3 88.4 70.1 C 88.7 70.2 89.0 70.3 89.5 70.4 C 90.1 70.3 87.9 70.0 89.6 70.1 C 90.5 70.3 89.4 70.5 91.3 70.6 C 92.1 70.5 89.1 70.1 90.7 70.2 C 92.5 70.8 90.4 70.1 92.5 70.3 C 92.6 70.3 93.0 70.4 93.6 70.5 C 93.7 70.6 93.4 70.7 94.2 70.8 C 94.6 70.5 95.0 71.1 96.5 71.1 C 97.4 70.9 94.9 70.8 95.4 70.6 C 97.1 71.1 98.2 70.9 98.9 71.0 C 97.4 71.0 101.1 71.3 101.2 71.6 C 100.8 71.3 101.6 71.5 103.7 71.4 C 103.8 71.9 106.1 71.7 106.6 72.1 C 106.9 72.0 107.5 72.0 107.8 71.9 C 107.1 71.8 106.4 71.7 106.7 71.6 C 107.2 71.7 107.8 71.7 108.5 71.8 C 109.5 72.0 106.8 72.4 110.8 72.6 C 110.4 72.2 112.1 72.3 113.2 72.2 C 113.1 72.0 111.6 72.1 111.5 72.0 C 112.8 71.9 114.3 72.2 115.1 72.4 C 117.5 72.4 120.2 72.7 123.7 72.8 C 124.4 73.0 120.8 72.8 123.1 73.1 C 124.0 73.1 123.5 72.9 124.9 73.0 C 123.6 74.0 134.1 73.5 134.8 74.0 C 135.2 73.8 138.2 74.0 137.9 73.7 C 135.9 73.9 134.5 73.5 133.5 73.3 C 131.7 73.4 135.2 73.6 133.5 73.6 C 133.4 73.5 130.8 73.5 131.1 73.3 C 133.7 73.4 129.7 73.0 131.7 72.8 C 134.2 73.0 139.1 72.8 137.9 73.1 C 137.9 73.0 136.8 73.0 136.7 73.1 C 139.5 73.3 141.1 73.1 142.3 73.0 C 143.6 73.2 148.6 72.9 147.3 73.0 C 147.7 73.3 144.3 72.9 144.8 73.2 C 150.0 73.3 150.1 73.1 153.5 73.3 C 152.4 73.0 157.1 72.9 156.7 73.0 C 156.7 73.2 157.7 73.4 159.8 73.1 C 159.5 73.4 160.6 73.5 161.7 73.5 C 162.2 73.3 160.8 73.3 161.0 73.1 C 162.1 73.1 163.2 73.1 164.2 73.1 C 164.2 73.2 164.1 73.3 164.8 73.3 C 166.0 73.2 170.1 72.8 169.8 73.0 C 168.0 73.3 172.6 73.2 169.8 73.5 C 170.6 73.4 170.6 73.5 171.7 73.5 C 171.7 73.4 171.7 73.3 171.7 73.2 C 174.0 73.1 172.8 73.5 174.8 73.5 C 175.0 73.4 175.8 73.3 176.0 73.2 C 175.3 73.2 175.2 73.3 174.2 73.3 C 175.3 72.9 172.1 73.2 172.3 72.9 C 174.5 72.8 174.5 73.1 175.4 73.1 C 178.1 72.9 176.8 73.0 179.7 73.0 C 179.7 72.9 178.9 72.9 179.1 72.8 C 182.6 72.7 182.3 73.2 184.7 72.9 C 184.1 73.0 182.0 73.3 183.5 73.2 C 185.1 73.0 185.6 72.8 187.7 72.6 C 187.8 72.7 187.7 72.8 188.4 72.8 C 189.3 72.7 189.3 72.5 190.1 72.3 C 190.3 72.4 191.5 72.3 192.0 72.2 C 192.8 72.4 191.7 72.5 192.7 72.5 C 194.4 72.4 195.4 71.8 196.8 71.7 C 196.8 72.1 198.4 71.9 199.9 71.7 C 200.2 72.0 203.3 71.7 205.3 71.6 C 204.8 71.4 206.9 71.3 206.4 71.1 C 205.4 71.2 204.9 71.2 204.7 71.1 C 207.0 70.9 207.7 71.3 209.4 70.8 C 210.3 70.8 211.4 70.9 212.9 70.8 C 213.1 70.7 210.2 70.8 211.8 70.6 C 211.9 70.7 212.4 70.6 212.9 70.5 C 212.7 70.8 214.0 70.7 214.7 70.8 C 216.1 70.5 218.9 70.5 217.6 70.3 C 219.7 70.1 218.4 70.6 220.0 70.5 C 219.1 70.2 221.9 69.9 220.5 69.9 C 222.7 69.5 222.5 70.0 221.7 70.2 C 223.7 70.0 224.1 69.8 225.1 69.8 C 224.1 69.7 227.1 69.2 225.6 69.5 C 225.2 69.8 227.5 69.4 227.9 69.4 C 227.2 69.3 228.2 69.2 226.8 69.3 C 228.2 69.0 230.4 68.7 231.8 68.8 C 233.6 68.3 235.3 68.1 234.5 68.4 C 236.2 68.1 235.6 68.2 237.3 68.0 C 237.3 68.0 236.8 68.0 236.7 68.0 C 239.0 67.6 238.6 67.8 241.6 67.4 C 241.3 67.7 243.2 67.4 243.8 67.5 C 242.5 67.7 241.5 67.7 240.5 67.8 C 240.3 68.0 241.3 67.9 240.6 68.1 C 240.5 68.0 240.0 68.1 239.5 68.1 C 241.5 68.0 237.0 68.9 238.4 68.4 C 238.4 68.5 238.5 68.5 239.0 68.4 C 238.6 68.2 238.6 68.3 238.9 68.0 C 237.9 68.3 237.1 68.1 236.7 68.4 C 236.8 68.5 237.8 68.3 237.9 68.3 C 235.4 68.9 237.1 68.2 235.1 68.5 C 234.8 68.9 235.8 68.8 236.3 68.8 C 234.5 69.1 232.9 69.3 232.4 69.2 C 230.8 69.6 232.5 69.4 231.4 69.7 C 230.8 69.7 230.8 69.5 229.6 69.6 C 228.4 69.9 230.4 69.7 229.1 69.9 C 227.8 70.0 230.0 69.5 227.9 69.7 C 228.5 70.0 226.1 69.9 226.3 70.1 C 227.5 69.9 227.5 70.2 226.9 70.1 C 224.1 70.1 222.2 71.2 219.4 70.9 C 219.4 71.0 219.0 71.1 218.9 71.2 C 221.0 71.1 224.0 70.8 224.6 71.1 C 226.3 70.8 226.0 70.6 226.3 70.5 C 228.3 70.5 228.1 70.6 227.0 71.1 C 223.8 71.6 222.3 71.5 220.1 71.7 C 219.0 72.0 220.3 71.8 220.7 71.9 C 213.9 72.4 219.2 72.5 216.7 72.7 C 216.7 72.6 216.2 72.5 215.5 72.6 C 215.6 72.7 214.5 72.8 214.4 72.9 C 214.8 72.8 215.0 72.9 214.9 73.0 C 213.2 73.2 213.9 72.9 213.8 72.8 C 215.1 72.6 215.9 72.5 216.1 72.4 C 214.4 72.7 213.1 72.6 212.0 72.9 C 210.4 72.7 212.8 72.1 211.9 72.0 C 212.2 71.8 210.9 72.7 209.6 72.9 C 207.5 73.1 207.4 73.3 205.5 73.5 C 204.9 73.3 207.4 73.2 207.2 73.0 C 206.7 73.1 206.5 73.0 206.0 73.1 C 204.6 73.2 204.7 73.4 203.6 73.6 C 203.0 73.4 202.7 73.6 201.9 73.7 C 200.5 73.7 202.6 73.5 201.2 73.5 C 199.7 73.6 198.7 74.0 198.2 74.0 C 198.1 73.9 198.3 73.8 197.6 73.8 C 195.9 74.1 195.5 74.1 197.6 74.1 C 195.8 74.2 194.9 74.4 195.2 74.6 C 198.1 74.4 198.8 74.3 200.1 74.6 C 200.6 74.3 201.5 74.4 202.5 74.4 C 201.8 74.0 203.8 74.3 204.3 74.0 C 203.6 74.0 202.9 74.0 202.5 74.0 C 205.5 73.8 205.4 73.8 207.8 73.2 C 207.8 73.3 208.1 73.4 208.4 73.4 C 207.7 73.6 205.5 73.7 205.5 73.9 C 207.2 74.1 207.7 73.6 209.7 73.7 C 210.5 73.4 208.1 73.5 209.7 73.4 C 210.4 73.5 211.4 73.5 212.6 73.5 C 213.9 73.3 214.5 73.2 215.5 73.0 C 215.6 73.1 215.8 73.1 216.7 73.0 C 216.7 72.9 215.7 72.9 216.7 72.8 C 219.8 72.8 221.9 72.8 224.8 72.3 C 223.8 72.3 221.3 72.3 222.5 72.2 C 223.9 72.2 225.7 71.7 227.1 71.7 C 227.5 71.8 225.4 71.8 226.0 72.2 C 227.3 72.0 228.1 71.9 228.8 71.9 C 228.8 71.8 230.3 71.6 229.9 71.4 C 228.8 71.6 228.5 71.9 228.2 71.8 C 229.1 71.0 232.3 71.5 234.4 71.2 C 235.7 70.9 233.3 71.1 234.9 70.8 C 235.8 70.6 236.5 71.1 235.0 71.4 C 233.9 71.4 233.5 71.8 233.3 71.5 C 232.9 71.6 232.2 71.7 232.2 71.8 C 233.0 71.7 232.8 71.9 233.3 71.9 C 232.2 72.0 232.1 72.5 231.1 72.3 C 231.8 72.2 232.0 72.1 232.2 72.0 C 229.3 72.5 228.3 72.4 226.6 72.5 C 227.5 72.6 226.5 72.6 226.6 72.8 C 227.9 72.6 230.4 72.4 228.9 72.7 C 227.9 72.5 227.1 73.4 226.1 73.2 C 226.9 73.1 226.7 73.0 227.2 72.9 C 226.0 73.0 226.0 72.8 224.9 72.9 C 221.2 73.7 218.3 73.4 212.1 74.5 C 210.0 74.7 214.1 74.2 213.9 74.0 C 213.3 74.1 213.1 74.0 212.7 74.1 C 212.7 74.4 211.6 74.2 210.9 74.5 C 211.0 74.2 208.1 74.7 206.7 74.6 C 206.7 74.7 206.9 74.8 206.2 74.9 C 201.8 74.9 193.7 75.9 190.3 75.8 C 190.5 76.0 189.0 76.1 188.6 76.3 C 186.4 76.3 187.4 76.1 184.2 76.5 C 182.7 76.6 184.5 76.3 184.8 76.2 C 180.1 76.5 176.0 76.5 173.0 76.8 C 171.5 77.0 173.0 76.6 169.9 76.7 C 169.8 77.0 164.9 76.6 164.2 77.0 C 162.3 77.1 158.9 76.7 160.4 77.0 C 157.9 77.0 159.6 76.7 158.5 76.7 C 156.8 76.7 159.1 77.3 157.3 77.3 C 157.5 77.0 156.0 77.2 154.8 76.9 C 156.2 76.9 157.1 76.9 157.3 76.8 C 156.1 76.9 156.2 76.7 154.2 76.8 C 152.7 76.9 148.5 77.1 147.3 76.7 C 147.2 76.8 147.6 76.9 147.9 77.0 C 146.6 77.0 145.2 76.7 145.4 77.0 C 142.5 77.0 141.3 76.7 139.7 76.9 C 138.5 77.0 140.2 76.7 136.6 76.6 C 136.5 76.8 130.2 76.6 128.5 76.3 C 128.4 76.7 128.0 76.3 127.3 76.3 C 127.1 76.4 127.3 76.5 126.6 76.5 C 126.5 76.4 125.9 76.4 125.4 76.4 C 125.8 76.1 123.1 76.4 122.9 76.2 C 123.4 76.2 123.5 76.0 122.9 75.9 C 122.7 76.2 120.2 75.6 120.4 75.9 C 121.0 76.0 122.7 76.0 122.2 76.2 C 119.8 76.2 120.8 75.9 119.2 75.8 C 119.3 75.9 120.3 76.1 119.2 76.1 C 117.5 75.9 119.0 76.0 118.0 75.7 C 117.1 75.8 115.5 75.8 114.9 75.8 C 115.0 75.8 114.5 75.6 114.3 75.6 C 111.1 75.3 104.0 75.1 101.0 74.5 C 100.8 74.5 100.1 74.5 100.4 74.7 C 98.6 74.4 98.7 74.5 96.9 74.2 C 96.8 74.3 96.8 74.4 96.8 74.5 C 94.4 74.5 96.6 74.2 95.1 74.1 C 94.8 74.6 94.2 73.8 92.7 73.7 C 92.6 73.8 91.9 73.7 92.1 73.9 C 89.9 73.7 90.0 73.3 88.1 73.2 C 88.5 73.3 88.8 74.1 88.5 74.3 C 88.2 74.2 87.6 74.0 86.8 73.9 C 87.8 73.8 87.4 72.8 84.6 72.8 C 86.1 72.9 86.7 73.0 86.3 73.2 C 84.2 73.0 83.5 72.7 81.8 72.5 C 81.5 72.7 82.7 72.9 82.3 73.1 C 81.8 73.1 81.6 73.1 81.7 73.2 C 79.8 72.9 79.8 72.7 77.7 72.6 C 77.8 72.5 78.2 72.5 78.9 72.7 C 78.8 72.5 78.8 72.3 80.0 72.4 C 80.2 72.6 79.4 72.8 81.2 72.9 C 81.2 72.8 81.2 72.6 81.2 72.5 C 79.9 72.3 77.0 71.7 76.7 71.8 C 77.3 72.0 78.3 72.2 77.8 72.4 C 75.6 72.0 75.1 71.6 73.4 71.3 C 70.4 70.9 65.2 70.0 65.8 70.5 C 64.0 70.1 64.7 70.2 63.1 69.9 C 63.5 70.2 61.4 69.7 61.5 69.9 C 63.4 70.2 62.8 70.1 64.7 70.4 C 64.6 70.5 64.3 70.6 63.5 70.5 C 63.5 70.3 62.7 70.2 61.5 70.0 C 61.7 70.1 62.7 70.5 61.4 70.3 C 61.3 70.2 61.0 70.1 60.4 70.0 C 60.4 69.9 60.5 69.8 60.5 69.6 C 61.2 69.7 62.1 69.8 62.6 69.8 C 62.1 69.7 62.0 69.6 61.6 69.5 C 61.2 69.6 59.1 69.0 58.9 69.2 C 59.8 69.3 60.3 69.5 59.4 69.4 C 59.3 69.4 57.9 69.0 57.4 69.0 C 59.1 69.5 58.4 69.4 59.3 69.8 C 57.3 69.5 57.6 69.2 55.3 68.9 C 55.3 68.7 55.3 68.5 55.9 68.5 C 54.5 67.7 51.0 67.5 50.0 67.2 C 50.7 67.4 51.6 67.2 50.5 67.0 C 50.5 67.1 49.6 66.8 49.5 66.9 C 49.0 67.3 49.9 67.7 50.7 68.2 C 49.8 67.9 49.6 68.0 48.8 67.8 C 48.5 67.6 49.5 67.4 48.4 67.2 C 48.1 67.5 44.6 66.3 43.8 66.4 C 45.3 66.7 46.3 67.1 44.7 66.8 C 45.0 66.7 42.0 66.0 42.0 65.8 C 44.4 66.3 45.1 66.3 46.7 66.7 C 44.7 66.2 48.2 66.8 44.9 66.0 C 43.4 65.8 42.6 65.9 39.3 65.0 C 38.1 64.6 39.3 64.6 37.7 64.2 C 38.0 64.5 34.6 63.6 36.7 64.0 C 35.6 63.7 35.0 63.4 34.3 63.2 C 35.9 63.9 28.3 61.8 29.4 62.4 C 29.5 62.1 29.2 61.6 28.9 61.4 C 27.4 61.2 25.8 60.5 22.5 59.1 C 22.5 59.5 22.0 58.9 20.6 58.4 C 20.3 58.4 21.5 59.0 20.5 58.6 C 19.1 57.8 19.0 57.8 18.8 57.6 C 17.8 57.1 17.0 56.7 16.6 56.4 C 16.4 56.4 16.7 56.7 17.0 56.9 C 13.3 54.7 11.6 54.0 9.3 52.1 C 10.2 53.0 10.6 52.8 9.8 52.2 C 9.3 51.9 8.9 51.6 8.6 51.5 C 9.0 52.1 8.8 51.8 7.8 50.9 C 6.8 50.1 7.8 51.5 7.1 50.8 C 6.5 50.0 7.0 50.4 6.7 49.9 C 6.3 49.6 6.0 49.3 5.7 48.9 C 6.2 49.6 5.4 49.0 4.9 48.5 C 5.5 48.7 5.2 48.4 4.3 47.2 C 4.3 47.0 4.8 47.6 4.5 47.1 C 4.3 46.8 3.3 46.0 3.1 45.0 C 3.3 45.2 3.4 45.4 3.4 45.3 C 2.8 44.4 2.8 43.4 2.6 42.5 C 2.7 43.4 2.4 43.0 2.3 43.5 C 2.2 42.4 1.8 41.3 2.0 40.6 C 2.0 42.0 2.5 40.6 2.5 39.7 C 2.2 39.5 2.3 41.0 2.0 40.6 C 1.8 40.1 2.2 39.0 2.0 38.5 C 1.8 38.6 2.0 39.2 1.8 39.3 C 1.9 38.5 1.7 39.6 1.7 38.9 C 2.0 38.5 1.7 38.0 1.8 37.6 C 2.0 37.1 2.6 36.2 2.6 35.7 C 2.5 35.6 2.3 36.3 2.2 36.4 C 2.7 34.1 3.4 33.7 4.5 31.8 C 4.8 31.6 5.1 31.4 5.6 30.9 C 5.4 30.8 5.6 30.5 6.0 30.1 C 6.8 29.4 7.6 28.8 8.7 28.0 C 8.6 28.3 8.2 28.8 9.7 27.7 C 9.7 27.5 9.0 28.0 9.6 27.5 C 9.6 27.6 10.0 27.3 10.0 27.2 C 10.0 27.1 9.9 27.1 9.9 27.1 C 9.5 27.4 9.1 27.7 8.7 28.0 C 8.6 27.9 8.5 27.9 8.1 28.1 C 9.7 26.6 9.9 27.1 11.1 26.0 C 11.5 26.2 12.0 26.0 11.1 26.9 C 12.1 26.1 12.9 25.5 13.1 25.1 C 11.7 26.0 12.0 25.5 11.5 25.7 C 12.4 25.1 12.4 25.0 12.8 24.6 C 14.0 24.1 11.9 25.7 14.1 24.5 C 12.3 25.2 15.4 23.4 16.7 22.9 C 16.4 22.9 15.9 23.1 16.5 22.7 C 19.8 20.8 20.0 21.8 22.0 20.4 C 21.9 20.6 23.0 20.2 23.5 20.1 C 21.6 20.9 21.1 21.2 20.4 21.6 C 20.5 21.6 21.1 21.4 21.6 21.2 C 21.6 21.0 22.1 20.8 22.9 20.5 C 23.5 20.2 23.1 19.9 24.6 19.1 C 24.8 19.1 24.6 19.3 25.5 19.0 C 26.1 18.6 24.9 19.6 28.4 18.3 C 27.8 18.4 27.4 18.4 27.6 18.2 C 29.3 17.5 28.9 17.7 31.3 16.8 C 32.4 16.9 29.8 17.8 29.2 18.3 C 30.8 17.7 32.1 17.0 33.9 16.6 C 32.5 16.9 33.8 16.3 35.4 15.7 C 36.9 15.3 35.4 16.1 37.2 15.6 C 38.6 15.1 39.3 14.7 38.0 15.0 C 41.2 14.2 40.3 14.1 43.3 13.4 C 43.4 13.6 42.6 13.8 41.5 14.0 C 41.7 14.0 41.4 14.2 42.4 14.0 C 43.3 13.6 44.8 13.2 46.5 12.8 C 48.1 12.3 48.9 12.1 49.5 11.9 C 51.7 11.8 54.2 10.8 56.5 10.5 C 55.6 10.9 59.5 9.9 60.7 10.0 C 61.4 9.8 63.5 8.9 62.7 9.2 C 63.0 9.6 64.4 9.2 65.5 9.1 C 65.5 9.0 65.4 8.9 65.4 8.9 C 67.8 8.4 68.4 8.6 69.2 8.6 C 72.1 8.0 75.5 7.9 79.2 7.1 C 80.1 7.3 81.0 7.1 83.2 7.0 C 83.1 6.8 84.9 6.6 86.6 6.4 C 86.2 6.2 87.7 6.1 87.7 5.9 C 86.2 6.1 86.7 5.7 85.9 5.7 C 88.0 5.7 88.9 5.1 90.6 5.2 C 88.6 5.5 88.0 5.9 87.8 6.3 C 90.1 6.0 91.4 5.9 91.9 6.1 C 92.0 5.9 91.7 5.8 91.2 5.8 C 92.0 5.7 92.8 5.6 93.5 5.5 C 93.8 5.6 92.7 5.8 93.6 5.8 C 94.1 5.6 94.7 5.5 95.3 5.4 C 96.0 5.5 94.4 5.6 94.2 5.8 C 97.4 5.6 95.9 5.2 97.7 5.0 C 98.1 5.1 98.0 5.4 99.5 5.3 C 100.1 5.1 100.2 4.8 101.8 4.7 C 102.9 4.6 101.8 5.1 103.0 5.0 C 103.2 4.9 103.7 4.9 104.3 4.9 C 104.2 4.7 104.7 4.6 105.4 4.5 C 105.6 4.7 106.8 4.5 107.2 4.4 C 107.4 4.5 109.3 4.7 109.7 4.5 C 109.7 4.4 108.6 4.5 108.5 4.4 C 109.8 4.3 110.8 4.2 111.5 4.1 C 112.0 4.6 114.2 4.0 117.0 4.2 C 118.7 3.9 116.6 3.8 118.8 3.5 C 120.2 3.6 118.5 3.7 118.9 4.0 C 119.2 4.0 121.3 4.0 121.3 3.8 C 121.3 3.7 120.2 3.8 120.1 3.7 C 121.7 3.4 121.7 3.7 122.6 3.8 C 122.5 3.6 123.5 3.5 123.8 3.3 C 128.2 3.0 128.2 3.4 130.0 3.5 C 130.0 3.4 131.1 3.4 131.2 3.3 C 130.0 3.5 128.3 3.3 130.0 3.2 C 129.7 3.3 132.3 3.1 132.5 3.0 C 132.2 2.9 130.6 3.0 131.2 2.8 C 133.6 2.6 132.6 3.1 134.4 2.8 C 134.6 3.0 133.5 3.0 133.1 3.1 C 133.8 3.1 134.9 3.0 135.0 3.1 C 134.1 3.2 134.1 3.4 133.7 3.6 C 134.9 3.3 137.1 3.5 135.6 3.2 C 138.1 3.2 140.5 3.0 138.8 2.8 C 140.8 2.7 139.6 3.0 141.3 2.8 C 141.0 3.1 140.6 3.2 141.9 3.4 C 142.2 3.3 143.3 3.2 143.1 3.0 C 146.1 3.0 147.0 3.2 148.2 3.4 C 147.1 3.1 148.6 3.3 150.1 3.1 C 151.0 3.2 150.1 3.5 152.6 3.4 C 149.9 3.1 155.6 3.3 154.5 2.9 C 157.6 3.1 157.5 3.1 160.8 3.2 C 160.5 3.4 159.7 3.5 158.3 3.5 C 159.2 3.3 155.5 3.3 155.8 3.4 C 155.8 3.5 155.8 3.5 155.8 3.6 C 158.1 3.5 159.7 3.6 160.8 3.8 C 161.3 3.6 162.4 3.5 162.0 3.2 C 164.3 3.6 166.7 3.2 167.7 3.5 C 166.9 3.5 166.2 3.5 166.4 3.6 C 167.3 3.5 168.4 3.5 168.3 3.3 C 166.5 3.2 166.1 3.2 165.2 3.3 C 166.0 3.1 163.4 3.0 165.2 2.9 C 165.1 3.3 168.9 2.8 167.7 3.1 C 165.7 3.2 170.0 3.3 170.1 3.5 C 170.1 3.5 170.1 3.5 170.1 3.5 Z M 225.4 72.8 C 227.1 72.5 225.0 72.5 223.7 72.7 C 224.1 72.7 224.3 72.8 224.3 73.0 C 224.8 72.9 225.3 72.7 225.4 72.8 C 225.4 72.8 225.4 72.8 225.4 72.8 Z M 206.4 71.3 C 205.9 71.6 208.8 71.2 210.0 71.1 C 209.7 71.1 209.3 71.0 210.0 70.9 C 208.7 70.8 208.3 71.3 206.4 71.3 C 206.4 71.3 206.4 71.3 206.4 71.3 Z M 137.9 74.1 C 138.4 74.0 139.6 74.0 139.7 74.1 C 140.5 74.1 140.3 74.0 140.4 73.9 C 141.9 73.9 140.0 74.3 142.3 74.2 C 143.1 73.7 138.4 73.5 137.9 74.1 C 137.9 74.1 137.9 74.1 137.9 74.1 Z M 146.3 6.9 C 147.2 7.1 145.1 7.3 145.7 7.5 C 149.2 7.3 146.5 7.0 151.3 7.1 C 151.0 7.0 150.6 6.9 150.7 6.8 C 148.4 7.0 148.3 7.1 148.8 6.7 C 147.8 6.7 147.5 7.2 146.3 6.9 C 146.3 6.9 146.3 6.9 146.3 6.9 Z M 191.0 9.0 C 190.6 8.9 190.3 8.8 190.3 8.7 C 188.9 8.7 189.2 8.8 187.3 8.6 C 187.5 9.0 189.4 9.1 191.0 9.0 C 191.0 9.0 191.0 9.0 191.0 9.0 Z M 298.3 34.8 C 298.4 35.0 298.6 35.1 298.7 35.3 C 298.7 35.1 299.4 35.3 298.6 34.5 C 298.5 34.5 298.6 34.7 298.7 34.8 C 298.5 34.7 298.2 34.3 298.1 34.5 C 298.3 34.7 298.3 34.8 298.3 34.8 C 298.3 34.8 298.3 34.8 298.3 34.8 Z M 286.2 55.2 C 288.5 53.9 282.5 55.9 286.2 55.2 C 286.2 55.2 286.2 55.2 286.2 55.2 C 286.2 55.2 286.2 55.2 286.2 55.2 Z M 292.0 55.5 C 292.1 55.5 292.6 55.3 292.5 55.2 C 294.3 54.3 292.7 55.4 293.7 54.9 C 294.9 54.0 292.9 55.0 294.4 53.9 C 294.0 53.9 293.1 54.9 292.0 55.5 C 292.0 55.5 292.0 55.5 292.0 55.5 Z M 19.6 21.6 C 18.0 22.4 17.7 22.9 17.5 23.2 C 18.6 22.7 19.5 22.3 19.9 22.3 C 22.0 21.2 18.5 22.8 18.1 22.9 C 18.2 22.6 19.7 21.8 19.6 21.6 C 19.6 21.6 19.6 21.6 19.6 21.6 Z M 14.6 24.2 C 14.1 24.7 13.3 25.2 13.3 25.4 C 14.1 24.9 14.3 24.9 14.4 25.0 C 15.1 24.4 14.1 24.9 14.6 24.2 C 14.6 24.2 14.6 24.2 14.6 24.2 Z M 24.9 19.8 C 24.0 20.1 24.4 20.1 24.3 20.3 C 25.6 19.8 25.8 19.8 27.1 19.3 C 27.1 19.3 27.1 19.2 27.1 19.1 C 25.9 19.5 25.9 19.6 25.0 20.0 C 24.9 19.9 24.9 19.8 24.9 19.8 C 24.9 19.8 24.9 19.8 24.9 19.8 Z M 10.6 27.1 C 8.4 28.7 7.9 29.8 7.1 31.1 C 8.2 29.9 9.2 28.4 10.3 27.7 C 11.6 26.7 9.8 27.9 9.8 27.8 C 9.8 27.7 10.3 27.4 10.6 27.1 C 10.6 27.1 10.6 27.1 10.6 27.1 Z M 3.1 43.6 C 3.0 44.1 3.7 44.7 4.2 45.8 C 4.2 45.5 4.1 45.3 4.2 45.3 C 3.5 43.7 3.5 44.8 3.1 43.6 C 3.1 43.6 3.1 43.6 3.1 43.6 Z M 10.1 51.9 C 11.1 52.7 9.6 51.4 10.3 51.7 C 9.1 50.8 8.0 49.8 7.9 50.0 C 9.1 50.9 9.4 51.1 10.1 51.9 C 10.1 51.9 10.1 51.9 10.1 51.9 Z M 19.0 57.1 C 20.8 57.8 18.4 56.5 19.2 56.6 C 18.6 56.3 18.7 56.5 18.6 56.6 C 18.1 56.3 17.7 56.0 16.9 55.7 C 17.4 56.1 19.3 57.0 19.0 57.1 C 19.0 57.1 19.0 57.1 19.0 57.1 Z M 67.2 9.6 C 66.2 9.8 66.5 10.0 64.6 10.3 C 67.6 9.8 66.0 10.8 70.0 10.0 C 69.3 10.1 69.7 9.9 70.0 10.0 C 71.5 9.6 68.5 10.1 69.9 9.6 C 68.8 9.8 69.5 9.9 68.4 10.1 C 67.2 10.1 66.5 10.1 67.2 9.6 C 67.2 9.6 67.2 9.6 67.2 9.6 Z M 70.0 10.3 C 71.1 10.2 71.1 9.7 71.6 9.9 C 72.2 9.8 72.0 9.7 72.1 9.6 C 71.7 9.7 71.7 9.7 71.6 9.6 C 70.7 9.9 69.7 10.1 70.0 10.3 C 70.0 10.3 70.0 10.3 70.0 10.3 Z M 60.0 12.0 C 61.7 11.6 62.3 11.6 63.1 11.3 C 63.8 11.5 64.2 10.9 65.2 11.1 C 67.0 10.7 65.7 10.8 65.2 10.8 C 66.9 10.4 65.6 10.9 67.3 10.6 C 67.6 10.2 65.4 10.7 65.6 10.3 C 64.3 10.6 64.4 10.7 63.6 10.9 C 62.9 11.0 63.1 10.9 63.0 10.8 C 61.5 11.1 61.6 10.9 60.4 11.2 C 60.1 11.5 60.7 11.4 62.0 11.1 C 60.6 11.5 60.0 11.8 58.4 12.0 C 59.5 11.5 54.4 12.4 54.9 12.8 C 56.3 12.5 55.8 12.4 56.4 12.2 C 58.2 12.1 59.3 11.8 60.0 12.0 C 60.0 12.0 60.0 12.0 60.0 12.0 Z M 25.9 20.2 C 25.3 20.4 24.7 20.6 23.8 20.9 C 23.7 20.8 24.9 20.3 23.7 20.6 C 22.3 21.2 22.0 21.4 21.2 21.8 C 21.7 21.7 24.7 20.7 23.2 21.4 C 23.7 21.4 24.7 21.0 26.0 20.5 C 24.4 20.8 28.1 19.7 29.6 19.2 C 29.3 18.9 32.3 18.4 33.3 17.8 C 32.4 17.9 29.3 19.2 28.0 19.6 C 28.6 19.3 24.4 20.4 25.9 20.2 C 25.9 20.2 25.9 20.2 25.9 20.2 Z M 74.4 9.5 C 74.7 9.4 75.9 9.1 74.9 9.2 C 75.4 9.1 76.4 9.1 76.0 8.8 C 76.5 8.7 77.1 8.6 77.6 8.5 C 77.4 8.7 75.9 8.8 76.5 9.0 C 77.7 8.7 77.2 8.9 78.8 8.7 C 78.0 9.0 78.9 8.9 78.3 9.3 C 78.7 9.1 80.1 9.0 79.9 8.8 C 82.1 8.5 79.4 9.2 82.2 8.8 C 82.2 9.0 80.2 9.3 79.5 9.2 C 79.1 9.5 83.0 8.9 85.1 8.7 C 83.2 8.7 84.6 8.3 85.6 8.0 C 86.2 8.0 85.6 8.2 86.8 8.2 C 87.7 8.1 88.2 7.9 88.5 8.0 C 89.3 7.9 88.9 7.7 89.0 7.6 C 90.4 7.5 89.4 7.9 91.4 7.7 C 89.9 7.5 91.6 7.2 94.3 7.0 C 94.1 7.0 93.2 7.0 93.1 6.9 C 93.5 6.7 95.1 6.9 95.5 6.9 C 96.4 6.8 95.8 6.7 94.9 6.8 C 95.4 6.7 96.0 6.6 96.6 6.4 C 93.7 6.7 89.1 7.2 83.8 7.5 C 84.8 7.6 83.7 7.7 82.1 7.9 C 81.9 7.7 82.5 7.6 83.3 7.6 C 81.4 7.5 81.6 8.1 78.8 8.3 C 77.2 8.4 80.4 7.9 78.7 8.0 C 77.7 8.2 77.0 8.5 76.5 8.3 C 74.7 8.6 74.3 9.0 71.6 9.4 C 73.1 9.3 73.9 9.7 75.5 9.4 C 75.5 9.3 74.8 9.4 74.4 9.5 C 74.4 9.5 74.4 9.5 74.4 9.5 Z M 14.5 25.1 C 13.6 25.6 13.3 26.0 13.0 26.0 C 11.7 27.0 13.4 26.1 13.7 26.0 C 14.3 25.6 14.5 25.3 14.5 25.1 C 14.5 25.1 14.5 25.1 14.5 25.1 Z M 146.0 76.3 C 148.4 76.4 147.9 76.1 149.8 76.1 C 148.2 76.0 147.9 75.8 145.4 75.8 C 145.2 76.0 145.2 76.2 146.0 76.3 C 146.0 76.3 146.0 76.3 146.0 76.3 Z M 20.0 22.5 C 21.4 21.6 18.4 23.6 18.3 23.4 C 16.8 24.3 19.9 22.8 18.5 23.7 C 19.8 22.9 20.8 22.7 22.6 21.8 C 22.5 21.6 21.0 22.3 19.5 23.0 C 19.3 22.9 20.0 22.6 20.0 22.5 C 20.0 22.5 20.0 22.5 20.0 22.5 Z M 121.7 74.9 C 120.1 75.0 123.2 75.4 124.1 75.6 C 124.2 75.3 123.7 75.3 121.7 74.9 C 121.7 74.9 121.7 74.9 121.7 74.9 Z M 162.3 75.9 C 163.2 75.6 159.5 75.9 160.4 75.6 C 159.3 75.6 159.2 75.7 159.1 75.8 C 158.6 75.7 156.8 75.8 157.3 75.6 C 157.0 75.4 160.1 75.6 159.1 75.3 C 160.2 75.3 160.2 75.4 161.0 75.4 C 159.2 75.4 160.1 75.6 162.3 75.7 C 162.3 75.5 161.3 75.5 162.3 75.4 C 162.4 75.5 163.6 75.6 163.6 76.0 C 165.5 75.9 164.3 75.5 166.7 75.5 C 166.5 75.4 165.0 75.4 164.2 75.3 C 164.4 75.1 166.6 75.5 166.1 75.1 C 166.5 75.3 167.9 75.4 168.0 75.7 C 166.2 75.8 165.0 76.0 163.6 76.1 C 164.9 76.3 166.9 75.7 169.2 75.9 C 168.9 75.7 170.3 75.7 169.8 75.5 C 171.7 75.5 170.8 75.8 170.5 75.8 C 171.0 76.0 174.5 75.8 174.2 75.6 C 174.5 75.8 178.7 75.6 178.5 75.3 C 179.8 75.4 181.7 75.0 182.3 75.3 C 183.0 75.1 184.5 75.1 186.0 75.0 C 186.4 74.7 183.7 75.0 183.5 74.8 C 183.1 74.6 186.4 74.7 186.0 74.5 C 186.0 74.5 186.0 74.4 186.0 74.4 C 184.7 74.5 183.5 74.7 182.3 74.8 C 181.4 74.8 182.5 74.7 182.3 74.6 C 181.4 74.7 177.4 75.2 177.3 74.8 C 174.6 75.0 172.8 74.9 171.7 75.2 C 170.1 75.2 172.6 75.0 171.7 74.8 C 167.0 75.3 161.2 75.0 157.3 75.4 C 156.5 75.4 156.8 75.2 156.6 75.1 C 151.3 75.3 155.8 75.6 151.6 75.5 C 151.6 75.3 153.6 75.3 153.5 75.1 C 152.0 75.1 151.7 75.2 149.7 75.1 C 149.7 75.3 149.7 75.4 149.7 75.5 C 148.1 75.4 148.7 75.2 147.9 75.0 C 145.9 75.1 146.4 75.3 145.4 74.9 C 143.5 75.0 141.7 75.1 139.7 74.9 C 138.4 75.1 140.9 75.5 142.9 75.5 C 142.7 75.6 142.2 75.6 142.2 75.7 C 139.9 75.4 139.5 75.0 136.0 74.8 C 138.7 75.2 134.6 74.9 134.1 74.7 C 132.7 74.7 133.7 75.0 134.7 75.0 C 134.5 75.1 133.6 75.0 133.5 74.9 C 133.3 75.3 136.7 75.6 140.3 75.5 C 138.6 75.9 142.9 75.5 141.0 76.0 C 143.9 76.0 141.4 75.6 144.7 75.7 C 144.4 75.6 143.8 75.5 143.5 75.4 C 146.0 75.4 145.3 75.7 147.9 75.7 C 148.3 75.5 146.6 75.5 146.6 75.4 C 149.5 75.6 150.4 75.7 152.3 76.0 C 152.7 75.8 152.2 75.6 155.4 75.7 C 155.4 75.8 155.4 75.8 155.4 75.9 C 153.9 75.8 153.5 76.3 157.3 76.3 C 157.6 76.1 156.4 76.1 155.4 76.1 C 155.8 76.0 157.1 75.9 158.5 75.9 C 159.3 75.9 160.1 76.0 159.2 76.0 C 159.8 76.2 160.3 75.8 162.3 75.9 C 162.3 75.9 162.3 75.9 162.3 75.9 Z M 3.1 41.6 C 3.2 41.9 3.3 42.2 3.4 42.7 C 3.7 42.9 3.4 41.9 3.6 41.9 C 3.4 41.1 3.2 41.8 3.1 41.6 C 3.1 41.6 3.1 41.6 3.1 41.6 Z M 6.5 31.8 C 6.3 31.7 6.1 32.3 5.5 33.1 C 5.5 33.4 6.1 32.5 6.2 32.6 C 7.0 31.7 5.7 32.6 6.5 31.8 C 6.5 31.8 6.5 31.8 6.5 31.8 Z M 3.9 35.8 C 3.6 36.1 3.9 36.2 4.2 35.4 C 4.3 35.6 4.3 35.8 4.2 36.3 C 4.6 35.9 4.3 35.4 4.9 34.6 C 4.6 34.8 4.3 35.2 3.9 35.8 C 3.9 35.8 3.9 35.8 3.9 35.8 Z M 3.4 37.2 C 3.5 37.8 3.2 38.1 3.2 39.0 C 3.4 38.8 3.7 36.8 3.7 36.5 C 3.7 36.1 3.1 38.3 3.4 37.2 C 3.4 37.2 3.4 37.2 3.4 37.2 Z M 97.6 72.9 C 98.1 72.9 98.0 72.8 98.2 72.7 C 100.0 73.3 102.5 73.4 100.5 73.6 C 102.4 73.5 104.2 74.0 105.8 74.2 C 107.2 74.3 106.5 74.0 107.7 74.1 C 109.4 74.3 106.7 74.2 107.0 74.3 C 107.4 74.5 107.9 74.1 110.1 74.4 C 109.5 74.0 111.9 74.6 111.3 74.1 C 112.4 74.4 112.8 74.2 114.4 74.3 C 114.2 74.2 112.7 74.1 112.5 73.9 C 111.8 73.6 111.7 74.1 113.1 74.1 C 112.3 74.3 110.2 73.8 109.5 73.9 C 108.8 73.6 111.5 74.0 110.7 73.7 C 110.2 73.7 109.6 73.7 109.5 73.8 C 108.6 73.6 108.1 73.5 107.7 73.4 C 108.2 73.4 108.3 73.5 108.3 73.5 C 109.4 73.6 107.2 73.0 109.6 73.2 C 109.1 73.1 108.1 73.0 108.3 72.9 C 107.6 72.7 108.3 73.5 105.9 73.1 C 104.3 73.2 109.6 73.6 108.3 74.0 C 104.9 73.7 106.8 73.5 104.1 73.2 C 104.1 73.3 104.2 73.4 103.5 73.4 C 103.6 73.5 104.6 73.5 105.3 73.6 C 105.1 73.7 104.2 73.6 103.5 73.5 C 103.6 73.6 104.1 73.7 104.1 73.7 C 101.8 73.5 102.1 73.0 104.1 73.0 C 104.1 72.8 101.3 72.6 100.5 72.6 C 101.3 72.9 100.5 72.8 101.1 73.1 C 101.7 73.1 101.6 73.0 101.7 73.0 C 102.8 73.1 101.8 73.1 101.7 73.2 C 100.5 73.1 100.6 72.9 99.4 72.9 C 99.7 72.9 99.9 72.9 100.0 72.7 C 99.4 72.7 98.7 72.6 98.2 72.6 C 98.2 72.7 97.5 72.7 97.6 72.9 C 97.6 72.9 97.6 72.9 97.6 72.9 Z M 129.1 75.6 C 131.2 75.7 130.1 75.4 129.1 75.4 C 129.5 75.3 130.3 75.3 131.0 75.3 C 130.4 75.2 129.8 75.2 127.9 75.1 C 129.6 74.9 127.9 74.4 124.8 74.3 C 123.9 74.7 126.5 74.9 125.4 75.1 C 127.7 75.0 128.9 75.2 129.1 75.6 C 129.1 75.6 129.1 75.6 129.1 75.6 Z M 13.7 26.1 C 12.8 26.6 11.9 27.2 11.1 27.8 C 11.3 27.9 14.1 26.3 13.7 26.1 C 13.7 26.1 13.7 26.1 13.7 26.1 Z M 99.0 6.5 C 99.5 6.5 99.5 6.5 99.6 6.5 C 101.3 6.3 98.8 6.4 99.6 6.1 C 98.9 6.2 98.4 6.3 97.8 6.3 C 97.7 6.4 100.2 6.3 98.4 6.6 C 98.5 6.6 99.0 6.6 99.0 6.5 C 99.0 6.5 99.0 6.5 99.0 6.5 Z M 3.3 40.8 C 3.5 41.5 3.6 41.0 4.0 42.6 C 4.0 42.0 3.8 41.7 3.7 40.8 C 3.6 40.8 3.4 40.8 3.3 40.8 C 3.3 40.8 3.3 40.8 3.3 40.8 Z M 88.8 72.4 C 90.2 72.8 90.6 72.2 93.4 72.7 C 92.0 72.2 90.4 72.4 88.8 72.4 C 88.8 72.4 88.8 72.4 88.8 72.4 Z M 190.9 74.4 C 190.0 74.3 191.2 74.2 189.7 74.2 C 188.8 74.3 188.5 74.5 187.2 74.6 C 189.0 74.7 192.1 74.3 193.3 74.6 C 194.8 74.5 194.7 74.2 195.1 74.0 C 194.4 74.1 194.1 74.1 193.9 74.0 C 193.1 74.4 192.0 73.9 190.9 74.4 C 190.9 74.4 190.9 74.4 190.9 74.4 Z M 121.1 74.8 C 120.0 74.6 121.9 74.6 122.3 74.5 C 123.2 74.5 122.9 74.7 123.0 74.8 C 124.0 74.8 124.4 74.7 124.2 74.5 C 122.1 74.4 119.6 74.2 121.1 74.0 C 119.2 73.8 120.2 74.2 119.3 74.2 C 118.2 74.0 119.2 74.0 119.3 73.7 C 118.8 73.8 117.3 74.0 117.4 73.6 C 114.5 73.8 115.8 74.3 118.0 74.8 C 120.0 74.6 117.7 74.4 121.1 74.8 C 121.1 74.8 121.1 74.8 121.1 74.8 Z M 49.7 65.6 C 49.9 65.8 50.7 65.9 50.7 66.0 C 51.8 66.0 52.8 66.0 53.8 65.9 C 53.6 65.7 52.2 65.6 52.8 65.9 C 52.4 65.6 51.5 65.4 50.9 65.1 C 49.9 64.8 49.5 65.3 49.4 64.8 C 48.5 64.8 49.3 65.0 46.3 64.2 C 51.0 65.6 44.6 63.9 44.3 64.1 C 47.0 64.8 49.0 65.3 48.9 65.0 C 49.9 65.3 51.0 65.6 51.2 65.9 C 51.1 66.0 50.3 65.8 49.7 65.6 C 49.7 65.6 49.7 65.6 49.7 65.6 Z M 55.8 66.2 C 55.4 66.2 55.0 66.1 54.3 66.0 C 54.7 66.1 54.8 66.3 54.8 66.4 C 56.0 66.6 56.4 66.6 56.8 66.9 C 57.9 67.1 56.5 66.5 58.3 66.9 C 58.2 66.8 57.3 66.7 57.3 66.6 C 57.1 66.7 56.4 66.6 55.8 66.2 C 55.8 66.2 55.8 66.2 55.8 66.2 Z M 72.0 69.5 C 73.4 69.7 71.2 69.3 72.0 69.2 C 71.6 69.2 69.0 68.7 69.4 68.5 C 68.6 68.1 65.8 68.3 66.2 67.9 C 65.5 67.8 65.7 68.0 65.6 68.1 C 67.5 68.3 67.4 68.5 66.1 68.3 C 66.3 68.5 67.4 68.6 68.2 68.8 C 68.3 68.6 67.6 68.5 67.7 68.4 C 69.3 68.8 70.5 69.1 72.0 69.5 C 72.0 69.5 72.0 69.5 72.0 69.5 Z M 166.3 4.7 C 164.9 4.6 163.9 4.7 163.2 4.7 C 163.6 4.9 164.4 4.7 165.1 4.7 C 165.3 4.9 164.6 4.9 163.8 4.9 C 164.5 5.1 167.2 4.9 166.3 4.7 C 166.3 4.7 166.3 4.7 166.3 4.7 Z M 153.8 4.6 C 152.4 4.6 151.5 4.6 151.3 4.7 C 151.8 4.9 151.7 4.7 152.6 4.7 C 153.1 4.7 153.5 4.8 153.8 4.9 C 154.4 4.9 154.3 4.8 154.5 4.7 C 155.0 4.7 155.0 4.8 155.1 4.8 C 156.8 4.6 153.1 4.8 153.8 4.6 C 153.8 4.6 153.8 4.6 153.8 4.6 Z M 62.9 67.9 C 62.5 67.7 62.2 67.5 60.9 67.3 C 61.1 67.5 60.1 67.3 59.3 67.1 C 60.5 67.5 61.1 67.6 62.9 67.9 C 62.9 67.9 62.9 67.9 62.9 67.9 Z M 78.3 9.5 C 76.6 9.5 76.8 9.9 74.4 10.0 C 74.4 10.1 74.5 10.2 74.5 10.3 C 75.9 9.9 76.5 9.9 78.3 9.5 C 78.3 9.5 78.3 9.5 78.3 9.5 Z M 303.2 44.4 C 303.1 44.2 302.6 45.2 302.4 45.2 C 302.6 45.6 301.9 45.7 300.4 47.5 C 300.3 47.5 300.4 47.3 300.6 47.1 C 299.3 48.4 301.1 46.9 301.4 46.8 C 302.3 45.7 302.6 45.6 303.2 44.4 C 303.2 44.4 303.2 44.4 303.2 44.4 Z M 172.3 74.4 C 172.2 74.5 172.6 74.5 172.9 74.5 C 173.3 74.5 173.8 74.5 174.1 74.5 C 174.0 74.1 171.9 74.1 173.5 73.7 C 173.0 73.7 172.9 73.7 172.9 73.8 C 169.9 74.6 167.5 73.5 163.5 74.0 C 162.9 74.0 163.0 74.1 162.9 74.1 C 163.4 74.1 163.5 74.2 163.5 74.2 C 164.0 73.9 167.6 74.2 166.0 74.3 C 166.2 74.4 166.6 74.4 166.6 74.3 C 167.1 74.3 167.5 74.3 167.9 74.3 C 167.7 74.2 166.8 74.2 166.6 74.1 C 168.7 74.1 171.1 74.2 169.8 74.5 C 171.0 74.4 171.5 74.3 172.3 74.2 C 173.1 74.2 173.1 74.4 172.3 74.4 C 172.3 74.4 172.3 74.4 172.3 74.4 Z M 188.4 73.7 C 190.3 73.7 189.6 73.4 191.5 73.4 C 190.3 73.2 188.8 73.6 187.2 73.5 C 187.4 73.6 188.2 73.6 188.4 73.7 C 188.4 73.7 188.4 73.7 188.4 73.7 Z M 152.3 74.3 C 152.7 74.0 151.0 74.0 149.1 73.9 C 148.8 74.2 150.4 74.3 152.3 74.3 C 152.3 74.3 152.3 74.3 152.3 74.3 Z M 160.4 74.3 C 162.3 74.1 158.1 74.2 159.1 73.9 C 158.3 74.0 157.4 74.0 157.3 73.9 C 156.6 73.9 156.6 74.1 155.4 74.0 C 155.5 74.2 157.5 74.1 157.3 74.3 C 158.7 74.1 159.0 74.1 160.4 74.3 C 160.4 74.3 160.4 74.3 160.4 74.3 Z M 161.6 74.2 C 162.9 74.1 161.3 73.8 159.8 73.8 C 160.4 73.9 160.7 74.1 161.6 74.2 C 161.6 74.2 161.6 74.2 161.6 74.2 Z M 18.9 54.4 C 19.7 54.8 19.2 54.3 20.1 54.8 C 20.2 54.6 16.9 53.1 19.6 54.3 C 18.7 53.6 18.0 53.7 16.9 53.0 C 17.2 53.3 17.5 53.5 16.9 53.2 C 16.4 53.2 19.4 54.4 18.9 54.4 C 18.9 54.4 18.9 54.4 18.9 54.4 Z M 22.4 56.0 C 23.1 56.3 22.8 56.1 22.4 56.0 C 22.6 55.9 23.6 56.4 24.3 56.7 C 24.3 56.8 23.1 55.8 23.3 55.6 C 20.1 54.5 22.4 55.7 22.4 56.0 C 22.4 56.0 22.4 56.0 22.4 56.0 Z M 25.6 57.2 C 27.7 58.2 31.1 59.3 32.8 59.6 C 31.1 58.7 26.7 57.3 25.6 57.2 C 25.6 57.2 25.6 57.2 25.6 57.2 Z M 9.6 48.1 C 11.3 50.0 16.2 53.0 12.3 49.9 C 12.3 50.1 9.7 48.2 8.9 47.2 C 8.8 47.2 7.6 46.3 7.7 46.1 C 7.0 45.5 9.9 48.7 9.6 48.1 C 9.6 48.1 9.6 48.1 9.6 48.1 Z M 36.1 60.2 C 34.7 59.9 36.3 60.8 34.4 60.0 C 33.2 59.7 34.6 60.2 34.3 60.3 C 36.8 61.0 42.3 62.3 42.8 62.7 C 44.2 62.9 44.7 62.9 47.4 63.6 C 47.6 63.5 37.8 61.3 36.1 60.3 C 36.3 60.3 39.4 61.2 36.1 60.2 C 36.1 60.2 36.1 60.2 36.1 60.2 Z M 78.5 10.9 C 78.6 10.7 76.3 11.1 76.8 10.8 C 75.6 11.3 74.4 11.3 73.0 11.7 C 72.6 11.7 72.7 11.3 70.8 11.5 C 70.8 11.8 71.7 11.6 70.9 11.9 C 69.1 12.2 69.5 11.8 67.6 12.2 C 68.0 12.6 63.5 13.0 64.0 13.3 C 65.0 13.1 64.9 12.9 66.6 12.7 C 67.2 12.6 66.9 12.8 67.7 12.7 C 67.2 13.0 66.3 12.8 65.6 13.1 C 65.8 13.3 67.0 13.0 67.2 13.2 C 68.0 13.0 67.0 13.1 67.2 12.9 C 69.2 12.5 67.1 13.5 69.4 13.1 C 68.9 12.9 68.9 12.9 69.3 12.6 C 70.2 12.6 73.0 12.0 71.5 12.5 C 71.7 12.6 73.3 12.1 73.1 12.0 C 74.0 11.8 74.1 11.9 74.2 12.0 C 76.5 11.6 76.8 11.3 76.3 11.1 C 76.7 10.8 77.1 11.2 78.5 10.9 C 78.5 10.9 78.5 10.9 78.5 10.9 Z M 5.3 38.9 C 5.2 38.2 5.3 39.7 5.3 40.3 C 5.3 39.5 5.6 39.8 5.7 39.0 C 5.6 39.2 5.5 39.2 5.6 38.6 C 5.5 38.5 5.3 39.7 5.3 38.9 C 5.3 38.9 5.3 38.9 5.3 38.9 Z M 51.1 64.4 C 51.6 64.7 54.1 65.1 55.5 65.4 C 55.3 65.0 51.9 64.8 51.6 64.3 C 50.8 64.2 52.0 64.6 51.1 64.4 C 51.1 64.4 51.1 64.4 51.1 64.4 Z M 58.2 13.9 C 57.7 14.0 58.0 14.0 58.2 14.0 C 58.1 14.1 57.0 14.3 56.2 14.4 C 57.4 14.4 56.0 14.7 56.3 14.9 C 55.7 15.0 55.5 15.1 55.4 15.2 C 55.2 14.7 52.3 16.1 55.4 15.5 C 54.8 15.4 55.1 15.3 56.3 15.0 C 57.8 14.9 58.9 14.5 59.4 14.6 C 60.4 14.4 60.7 14.2 62.0 14.0 C 62.3 14.1 63.5 14.0 62.6 14.5 C 64.8 14.1 63.2 13.8 65.1 13.4 C 66.9 13.3 64.2 13.9 64.7 14.0 C 65.1 13.9 65.0 14.0 65.2 14.1 C 65.9 13.9 65.8 13.7 65.2 13.8 C 65.4 13.7 67.2 13.2 66.7 13.6 C 67.8 13.3 64.9 13.1 63.5 13.6 C 62.7 13.8 62.6 13.4 63.4 13.2 C 63.1 13.1 61.5 13.9 61.8 13.4 C 61.1 13.5 60.5 13.6 59.8 13.7 C 59.9 13.8 60.3 13.7 60.3 13.8 C 59.7 13.9 59.0 14.1 58.3 14.2 C 58.9 14.0 58.8 13.9 58.2 13.9 C 58.2 13.9 58.2 13.9 58.2 13.9 Z M 41.0 61.9 C 43.3 62.5 43.8 62.5 45.7 62.9 C 45.0 62.5 40.1 61.4 41.0 61.9 C 41.0 61.9 41.0 61.9 41.0 61.9 Z M 88.2 10.4 C 88.0 10.4 87.0 10.5 87.0 10.4 C 88.8 10.1 86.8 10.2 88.1 9.6 C 85.9 10.1 85.2 10.8 88.2 10.6 C 90.5 10.3 85.9 10.7 88.2 10.4 C 88.2 10.4 88.2 10.4 88.2 10.4 Z M 81.4 11.1 C 80.0 11.4 83.5 11.1 84.3 11.1 C 84.3 11.1 84.3 11.2 84.3 11.3 C 86.2 10.7 83.6 10.9 85.3 10.2 C 83.0 10.4 82.1 10.4 80.2 10.8 C 80.3 10.8 80.8 10.7 80.8 10.7 C 82.2 10.5 81.2 11.0 79.7 11.1 C 80.1 11.1 81.5 11.0 82.5 10.9 C 82.2 10.8 81.9 10.8 81.9 10.7 C 83.1 10.5 82.7 10.8 83.6 10.7 C 83.6 10.8 81.4 11.2 81.4 11.1 C 81.4 11.1 81.4 11.1 81.4 11.1 Z M 201.3 8.1 C 200.1 8.0 202.6 8.5 202.5 8.9 C 203.7 9.0 204.0 9.0 204.8 9.0 C 204.4 8.8 203.1 8.7 202.5 8.5 C 202.7 8.2 204.3 8.7 204.9 8.5 C 205.7 8.2 201.8 8.4 201.3 8.1 C 201.3 8.1 201.3 8.1 201.3 8.1 Z M 26.1 23.0 C 25.4 23.3 25.8 23.2 26.2 23.0 C 26.1 23.2 24.9 23.6 24.9 23.5 C 23.9 24.0 25.5 23.4 24.3 23.9 C 24.1 24.2 26.1 23.2 26.2 23.1 C 27.7 22.5 26.6 23.3 27.0 23.2 C 28.4 22.7 27.8 22.7 29.8 22.1 C 28.5 22.3 27.5 22.6 26.1 23.0 C 26.1 23.0 26.1 23.0 26.1 23.0 Z M 92.2 9.5 C 92.4 9.4 90.8 10.0 89.3 10.0 C 87.3 10.2 90.6 10.1 88.8 10.3 C 90.3 10.2 92.1 9.8 94.5 9.5 C 95.1 9.3 91.2 9.8 93.4 9.5 C 93.2 9.4 92.7 9.5 92.7 9.5 C 92.3 9.6 92.2 9.6 92.2 9.5 C 92.2 9.5 92.2 9.5 92.2 9.5 Z M 89.9 10.3 C 90.0 10.4 90.5 10.3 90.5 10.3 C 91.3 10.2 91.3 10.4 90.6 10.5 C 91.5 10.7 91.4 10.2 93.4 10.1 C 92.6 10.0 92.1 9.9 94.0 9.9 C 95.4 9.5 90.6 10.1 89.9 10.3 C 89.9 10.3 89.9 10.3 89.9 10.3 Z M 181.8 7.1 C 182.0 7.2 183.3 7.2 184.3 7.3 C 183.1 7.4 178.1 7.1 177.5 6.9 C 177.0 6.9 176.4 7.0 176.2 6.9 C 176.3 6.9 174.9 7.0 175.6 7.1 C 175.5 7.2 174.4 7.1 174.4 7.2 C 172.5 7.1 175.0 7.1 174.4 6.9 C 172.2 7.0 172.7 6.9 170.1 6.8 C 170.5 7.0 173.4 7.0 173.1 7.3 C 175.2 7.1 177.4 7.4 178.7 7.7 C 176.8 7.2 184.0 7.3 187.4 7.6 C 187.2 7.7 188.4 7.8 189.8 8.0 C 190.7 8.3 190.5 7.7 188.6 7.7 C 188.7 7.6 191.2 7.8 192.2 7.9 C 191.0 7.6 191.7 7.6 191.1 7.5 C 188.7 7.3 190.8 7.5 190.4 7.7 C 189.8 7.6 189.2 7.6 188.6 7.6 C 191.8 7.4 183.9 7.3 186.8 7.4 C 184.2 7.3 184.2 7.0 181.8 7.1 C 181.8 7.1 181.8 7.1 181.8 7.1 Z M 123.4 7.2 C 122.9 7.2 121.0 7.5 120.9 7.3 C 118.4 7.6 120.6 7.7 117.8 7.9 C 118.0 7.9 119.1 7.8 119.1 7.9 C 120.1 7.8 121.2 7.7 120.9 7.4 C 122.2 7.4 122.5 7.3 123.4 7.2 C 123.1 7.4 122.6 7.4 121.5 7.5 C 121.3 7.7 121.8 7.8 123.4 7.7 C 124.1 7.5 123.6 7.3 123.4 7.2 C 123.4 7.2 123.4 7.2 123.4 7.2 Z M 117.2 7.8 C 116.9 7.8 116.6 7.7 116.6 7.6 C 115.7 7.4 116.3 7.9 115.4 8.0 C 114.7 8.0 114.9 7.9 114.8 7.8 C 113.7 7.9 112.9 8.0 112.4 7.9 C 110.7 8.2 114.3 8.0 114.8 8.1 C 116.0 8.0 115.6 7.8 117.2 7.8 C 117.2 7.8 117.2 7.8 117.2 7.8 Z M 99.2 8.9 C 98.9 8.7 98.3 9.1 97.5 9.1 C 98.1 9.3 99.8 9.0 98.6 9.4 C 100.4 9.4 100.5 9.3 102.2 9.1 C 103.3 9.2 102.3 8.9 100.4 9.2 C 100.6 9.1 101.5 9.0 101.6 8.9 C 102.8 9.2 105.7 8.2 103.9 8.7 C 103.4 8.7 103.1 8.7 102.8 8.6 C 102.4 8.8 98.3 9.1 99.2 8.9 C 99.2 8.9 99.2 8.9 99.2 8.9 Z M 42.6 18.3 C 44.4 17.8 45.3 17.6 46.2 17.3 C 47.2 17.1 48.6 16.8 49.6 16.6 C 49.6 16.7 49.5 16.8 49.1 16.9 C 49.6 16.8 50.2 16.7 51.0 16.4 C 50.9 16.4 50.5 16.5 50.5 16.5 C 49.0 16.7 50.3 16.4 50.4 16.2 C 48.5 16.4 45.1 17.7 43.4 17.8 C 42.1 18.2 43.7 17.8 42.6 18.3 C 42.6 18.3 42.6 18.3 42.6 18.3 Z M 301.9 42.4 C 301.9 42.6 301.7 43.0 301.9 43.0 C 302.0 42.6 302.1 42.3 302.1 41.9 C 301.8 42.6 301.6 42.4 301.1 43.3 C 301.4 43.1 301.6 43.3 301.9 42.4 C 301.9 42.4 301.9 42.4 301.9 42.4 Z M 105.1 8.5 C 105.2 8.6 105.3 8.7 104.6 8.8 C 104.4 9.0 106.3 8.7 106.3 8.9 C 107.0 8.8 106.7 8.7 107.6 8.6 C 107.3 8.5 105.7 8.7 106.3 8.4 C 106.8 8.3 106.9 8.4 107.0 8.4 C 108.2 8.2 106.3 8.3 105.1 8.5 C 105.1 8.5 105.1 8.5 105.1 8.5 Z M 207.2 8.8 C 206.4 8.8 207.2 8.9 207.9 9.0 C 206.1 9.1 208.9 9.5 209.0 9.7 C 208.2 9.5 205.9 9.4 205.5 9.3 C 204.8 9.3 205.6 9.6 203.6 9.5 C 203.9 9.7 206.0 9.7 205.4 9.4 C 205.9 9.8 208.0 9.6 207.8 9.9 C 210.4 10.2 211.1 10.0 211.3 9.8 C 208.7 9.7 210.1 9.4 207.8 9.3 C 207.9 9.2 208.5 9.3 209.0 9.3 C 208.8 9.1 207.9 9.0 207.2 8.8 C 207.2 8.8 207.2 8.8 207.2 8.8 Z M 143.2 6.7 C 141.8 6.7 141.9 6.9 141.9 7.1 C 142.5 7.0 143.3 7.0 144.4 7.0 C 144.2 6.9 142.5 6.9 143.2 6.7 C 143.2 6.7 143.2 6.7 143.2 6.7 Z M 197.7 8.4 C 197.5 8.3 197.1 8.3 197.1 8.3 C 195.5 8.2 195.2 8.1 194.7 7.9 C 193.8 7.9 194.1 8.1 194.1 8.2 C 195.5 8.1 195.2 8.4 197.1 8.5 C 197.0 8.4 197.2 8.4 197.7 8.4 C 197.7 8.4 197.7 8.4 197.7 8.4 Z M 156.3 6.7 C 155.6 6.8 155.9 6.8 156.3 6.8 C 155.4 7.1 152.9 6.9 151.9 7.0 C 151.8 7.2 155.0 7.1 151.3 7.2 C 152.0 7.4 155.3 7.3 156.9 7.3 C 156.5 7.5 154.3 7.5 154.4 7.8 C 156.4 7.6 158.5 7.5 158.8 7.2 C 156.0 7.1 157.0 6.9 156.3 6.7 C 156.3 6.7 156.3 6.7 156.3 6.7 Z M 159.4 6.9 C 159.2 6.8 158.6 6.9 157.6 6.9 C 159.1 7.2 160.0 7.1 163.2 7.2 C 163.2 7.1 163.2 7.1 163.2 7.0 C 163.8 7.0 164.5 7.1 165.1 7.1 C 162.3 6.8 161.7 6.9 158.8 7.0 C 158.7 6.9 159.0 6.9 159.4 6.9 C 159.4 6.9 159.4 6.9 159.4 6.9 Z M 78.6 11.6 C 79.4 11.6 80.0 11.7 81.4 11.6 C 81.3 11.4 80.4 11.3 78.6 11.6 C 78.6 11.6 78.6 11.6 78.6 11.6 Z M 200.1 8.7 C 201.7 8.7 198.5 8.6 199.5 8.9 C 200.7 9.1 202.1 9.3 202.4 9.5 C 204.8 9.4 199.7 9.0 200.1 8.7 C 200.1 8.7 200.1 8.7 200.1 8.7 Z M 189.2 8.6 C 188.4 8.5 188.5 8.1 189.2 8.4 C 190.9 8.5 187.7 8.1 190.4 8.3 C 189.2 8.1 186.7 7.9 185.5 8.0 C 185.5 8.2 187.9 8.2 187.9 8.4 C 188.0 8.5 187.7 8.5 187.3 8.5 C 187.5 8.6 188.1 8.5 189.2 8.6 C 189.2 8.6 189.2 8.6 189.2 8.6 Z M 180.0 7.7 C 181.0 7.9 182.2 8.1 184.3 8.2 C 182.9 7.9 182.1 7.7 180.0 7.7 C 180.0 7.7 180.0 7.7 180.0 7.7 Z M 292.6 29.2 C 291.5 28.5 292.4 29.3 292.5 29.5 C 293.5 30.1 293.5 29.9 294.6 30.7 C 294.4 30.3 293.2 29.8 292.6 29.2 C 292.6 29.2 292.6 29.2 292.6 29.2 Z M 296.0 31.7 C 296.0 31.9 297.2 32.7 297.1 32.9 C 298.1 33.1 298.3 34.4 298.5 34.1 C 298.7 34.4 298.8 34.6 299.1 34.9 C 298.9 34.0 297.1 32.4 296.0 31.7 C 296.0 31.7 296.0 31.7 296.0 31.7 Z M 169.4 7.9 C 167.7 7.8 169.8 8.3 168.1 8.2 C 168.0 8.3 171.3 8.4 169.3 8.4 C 171.9 8.7 169.2 7.9 169.4 7.9 C 169.4 7.9 169.4 7.9 169.4 7.9 Z M 138.8 8.1 C 139.0 7.9 136.7 8.1 135.8 8.1 C 135.8 8.2 136.5 8.2 137.0 8.2 C 136.7 8.2 136.4 8.3 135.8 8.4 C 136.3 8.5 137.9 8.2 138.8 8.1 C 138.8 8.1 138.8 8.1 138.8 8.1 Z M 172.6 3.8 C 173.7 4.0 175.0 4.3 175.7 4.0 C 176.8 4.2 175.0 4.2 176.3 4.4 C 178.1 4.3 177.2 4.5 180.1 4.5 C 179.5 4.8 181.6 4.9 181.9 5.1 C 180.8 5.1 179.3 4.7 178.8 5.0 C 179.8 5.0 179.2 5.2 178.8 5.0 C 176.9 4.8 181.1 4.8 178.8 4.6 C 178.1 4.9 174.8 4.2 172.6 4.1 C 173.5 4.0 171.0 3.8 172.6 3.8 C 172.6 3.8 172.6 3.8 172.6 3.8 Z M 183.8 4.7 C 185.3 4.7 186.0 5.3 185.6 5.3 C 185.6 5.1 183.9 5.1 183.7 5.2 C 184.2 5.2 184.5 5.2 184.4 5.3 C 181.6 5.1 182.6 5.0 181.9 4.8 C 183.5 4.7 183.9 4.9 184.4 4.8 C 184.1 4.8 183.7 4.7 183.8 4.7 C 183.8 4.7 183.8 4.7 183.8 4.7 Z M 215.3 11.0 C 215.1 10.8 214.7 11.0 214.1 11.0 C 214.1 10.6 211.1 10.8 210.7 10.6 C 211.4 10.5 212.9 10.6 213.6 10.6 C 212.8 10.5 212.7 10.4 211.8 10.4 C 212.0 10.2 213.7 10.4 214.2 10.3 C 214.4 10.4 215.2 10.3 215.4 10.5 C 213.1 10.4 216.6 11.1 215.3 11.0 C 215.3 11.0 215.3 11.0 215.3 11.0 Z M 155.1 8.0 C 154.8 8.3 157.5 8.8 155.1 9.1 C 154.5 8.9 154.2 8.7 154.4 8.4 C 152.9 8.6 152.2 8.3 151.3 8.6 C 148.4 7.9 153.5 8.6 155.1 8.0 C 155.1 8.0 155.1 8.0 155.1 8.0 Z M 145.0 8.3 C 145.6 8.1 144.2 8.1 144.4 7.9 C 145.6 8.1 149.5 7.8 148.2 8.0 C 146.9 8.1 146.9 8.3 145.0 8.3 C 145.0 8.3 145.0 8.3 145.0 8.3 Z M 82.2 69.3 C 80.3 69.3 79.5 68.7 80.5 68.7 C 80.1 68.9 82.8 69.1 82.2 69.3 C 82.2 69.3 82.2 69.3 82.2 69.3 Z M 10.9 53.5 C 12.1 54.5 13.0 54.9 13.1 55.2 C 11.7 54.4 11.9 54.3 10.8 53.6 C 10.7 53.6 10.0 53.3 9.9 53.1 C 10.5 53.5 10.5 53.3 10.9 53.5 C 10.9 53.5 10.9 53.5 10.9 53.5 Z M 107.2 4.3 C 107.1 4.2 106.3 4.2 106.6 4.0 C 108.5 4.0 110.5 3.7 112.1 3.4 C 112.1 3.5 112.1 3.6 112.1 3.7 C 109.2 3.8 108.4 4.1 107.2 4.3 C 107.2 4.3 107.2 4.3 107.2 4.3 Z M 103.6 4.1 C 103.3 4.3 104.3 4.5 103.0 4.6 C 103.1 4.4 100.8 4.3 101.8 4.2 C 102.2 4.3 102.7 4.3 103.6 4.1 C 103.6 4.1 103.6 4.1 103.6 4.1 Z M 207.5 5.6 C 209.0 5.7 206.9 5.3 207.0 5.2 C 208.0 5.4 209.5 5.5 209.9 5.7 C 208.9 5.5 208.1 5.9 207.5 5.6 C 207.5 5.6 207.5 5.6 207.5 5.6 Z M 185.0 4.7 C 181.8 4.5 183.2 4.2 180.1 4.0 C 181.4 3.9 184.2 4.0 185.1 3.9 C 184.9 4.0 185.7 4.1 185.7 4.2 C 184.5 4.2 184.3 4.1 183.2 4.0 C 183.6 4.3 183.6 4.2 183.2 4.4 C 184.0 4.5 184.6 4.4 185.0 4.4 C 184.8 4.6 185.9 4.7 185.0 4.7 C 185.0 4.7 185.0 4.7 185.0 4.7 Z M 206.9 6.2 C 208.1 6.2 209.1 6.7 208.1 6.5 C 207.9 6.4 207.1 6.5 206.9 6.4 C 208.6 6.4 205.5 6.1 206.3 6.0 C 207.4 6.1 207.7 6.0 207.5 5.8 C 208.2 5.9 209.2 6.0 209.3 6.1 C 208.8 6.1 208.1 6.0 208.1 6.1 C 208.5 6.1 208.8 6.1 208.7 6.2 C 207.7 6.1 207.2 6.1 206.9 6.2 C 206.9 6.2 206.9 6.2 206.9 6.2 Z M 198.5 5.5 C 200.2 5.7 200.3 5.9 200.9 6.1 C 198.7 5.9 198.3 5.5 196.7 5.3 C 198.5 5.4 200.4 5.3 200.9 5.5 C 200.1 5.5 198.6 5.4 198.5 5.5 C 198.5 5.5 198.5 5.5 198.5 5.5 Z M 238.5 69.2 C 237.2 69.3 236.1 69.3 234.7 69.4 C 234.2 69.7 237.0 69.8 235.8 69.8 C 234.3 70.1 235.3 69.6 234.1 69.7 C 235.3 69.9 228.9 70.8 228.6 70.5 C 229.6 70.4 229.9 70.2 229.7 70.1 C 232.3 69.8 233.3 69.4 235.2 69.1 C 236.6 69.2 240.6 68.6 242.7 68.0 C 244.2 68.2 246.6 67.3 248.5 67.3 C 249.0 67.0 246.9 67.3 248.4 67.0 C 249.5 67.0 248.7 67.3 250.1 67.1 C 250.1 67.0 249.8 66.9 250.5 66.7 C 250.4 66.9 251.3 66.7 251.6 66.8 C 248.8 67.3 251.8 67.1 249.6 67.5 C 248.7 67.6 250.5 67.0 248.0 67.4 C 247.1 67.7 246.3 67.9 246.5 68.1 C 245.8 68.3 245.4 68.4 244.9 68.5 C 245.9 68.0 241.3 69.2 243.4 68.5 C 243.5 68.5 245.0 68.3 246.0 68.0 C 245.0 67.9 243.9 68.2 242.3 68.6 C 241.6 68.5 242.5 68.3 241.7 68.4 C 240.4 68.8 242.2 68.7 241.2 68.9 C 241.7 68.9 242.3 68.8 242.3 68.9 C 240.0 69.0 239.2 69.4 238.0 69.5 C 238.8 69.3 236.7 69.5 238.5 69.2 C 238.5 69.2 238.5 69.2 238.5 69.2 Z M 257.0 65.5 C 257.5 65.4 258.0 65.3 258.5 65.2 C 258.7 65.4 256.8 65.8 258.1 65.7 C 255.9 66.2 258.1 65.4 257.0 65.5 C 257.0 65.5 257.0 65.5 257.0 65.5 Z M 246.8 66.6 C 246.0 66.5 246.5 67.0 245.8 67.1 C 247.1 66.8 248.2 66.5 248.4 66.8 C 246.9 67.0 246.3 67.1 244.8 67.5 C 246.2 66.9 243.1 67.5 242.6 67.3 C 243.7 67.0 244.6 66.7 246.2 66.5 C 246.0 66.6 248.3 66.3 246.8 66.6 C 246.8 66.6 246.8 66.6 246.8 66.6 Z M 250.8 65.5 C 251.2 65.6 253.3 65.1 252.9 65.4 C 251.6 65.7 251.1 65.8 251.4 66.0 C 250.5 66.2 250.3 66.1 249.4 66.3 C 248.8 66.1 250.4 65.8 250.8 65.6 C 250.6 65.7 250.2 65.7 250.8 65.5 C 250.8 65.5 250.8 65.5 250.8 65.5 Z M 296.3 47.9 C 296.8 47.9 295.3 48.9 295.0 49.1 C 295.5 48.9 295.4 49.2 294.4 49.9 C 294.6 49.4 293.2 50.5 292.0 50.8 C 291.8 51.1 293.3 50.4 291.7 51.4 C 290.4 52.0 289.3 52.7 287.1 53.8 C 286.5 53.8 287.4 53.3 288.0 52.9 C 286.5 53.7 286.8 53.3 285.6 53.8 C 285.9 53.9 285.0 54.4 284.5 54.4 C 286.6 53.4 281.5 55.3 283.8 54.3 C 283.9 54.3 284.4 54.1 284.9 53.8 C 284.5 54.4 287.3 53.0 287.9 52.9 C 288.8 51.9 291.5 50.7 294.0 49.3 C 294.3 49.3 293.6 49.9 294.2 49.5 C 294.2 49.4 294.9 48.9 295.2 48.6 C 295.3 48.7 295.6 48.6 296.1 48.3 C 296.1 48.2 296.1 48.1 296.3 47.9 C 296.3 47.9 296.3 47.9 296.3 47.9 Z M 139.8 72.4 C 139.9 71.9 135.9 72.1 134.8 72.2 C 135.0 71.7 142.0 72.0 139.8 72.4 C 139.8 72.4 139.8 72.4 139.8 72.4 Z M 164.1 72.1 C 163.1 72.1 163.8 72.4 162.9 72.4 C 162.8 72.1 160.5 72.7 160.4 72.4 C 161.6 72.2 162.3 72.2 164.1 72.1 C 164.1 72.1 164.1 72.1 164.1 72.1 Z M 186.5 71.5 C 184.7 71.6 187.4 71.6 187.1 71.7 C 185.5 71.8 183.9 71.8 184.0 71.6 C 185.4 71.6 186.3 71.3 186.5 71.5 C 186.5 71.5 186.5 71.5 186.5 71.5 Z M 152.9 72.0 C 151.4 71.9 153.9 71.5 154.1 71.7 C 152.5 71.8 155.2 71.9 156.6 71.9 C 156.6 72.2 156.0 72.1 156.6 72.4 C 154.4 72.5 156.3 72.1 154.7 72.1 C 153.7 72.3 154.8 72.2 154.7 72.4 C 154.1 72.4 153.5 72.4 152.9 72.4 C 152.9 72.3 152.9 72.2 152.9 72.0 C 153.6 72.0 154.4 72.0 154.1 71.9 C 153.5 71.9 153.4 71.9 152.9 72.0 C 152.9 72.0 152.9 72.0 152.9 72.0 Z M 263.9 60.6 C 262.5 61.0 263.8 60.8 264.8 60.5 C 265.1 60.3 265.8 59.7 267.4 59.5 C 264.1 60.6 268.5 59.6 266.7 60.2 C 265.9 60.2 263.9 61.0 262.1 61.4 C 261.4 61.3 263.1 60.6 263.9 60.6 C 263.9 60.6 263.9 60.6 263.9 60.6 Z M 270.0 59.1 C 269.9 59.1 269.3 59.2 268.3 59.5 C 269.3 59.0 267.8 59.4 269.1 59.0 C 269.0 59.1 273.3 57.9 270.8 58.7 C 268.5 59.2 271.5 58.7 272.5 58.4 C 271.4 58.7 269.5 59.6 269.2 59.4 C 269.7 59.3 270.2 59.1 270.0 59.1 C 270.0 59.1 270.0 59.1 270.0 59.1 Z M 300.2 42.6 C 300.1 42.4 299.9 42.8 299.8 42.9 C 300.5 41.8 300.6 40.9 300.7 40.5 C 300.7 40.9 300.9 41.0 301.0 40.7 C 300.8 41.2 300.9 41.4 300.8 41.5 C 300.7 41.0 300.6 41.9 300.2 42.6 C 300.2 42.6 300.2 42.6 300.2 42.6 Z M 300.2 42.6 " fill="#000000"></path></g></svg>