<?xml version="1.0" encoding="UTF-8" standalone="no"?><svg xmlns="http://www.w3.org/2000/svg" xmlns:xlink="http://www.w3.org/1999/xlink" clip-rule="evenodd" stroke-miterlimit="4.00" viewBox="0 0 877 397"><desc>SVG generated by Keynote</desc><defs></defs><g transform="matrix(1.00, 0.00, -0.00, -1.00, 0.0, 397.0)"><g><clipPath id="clip-829"><path d="M 1.1 396.4 L 874.9 396.4 L 874.9 1.6 L 1.1 1.6 Z M 1.1 396.4 "></path></clipPath><g clip-path="url(#clip-829)"><path d="M 1.6 395.9 L 154.5 395.9 L 154.5 317.2 L 1.6 317.2 Z M 1.6 395.9 " fill="#869ABB"></path><path d="M 154.5 395.9 L 514.5 395.9 L 514.5 317.2 L 154.5 317.2 Z M 154.5 395.9 " fill="#869ABB"></path><path d="M 514.5 395.9 L 874.4 395.9 L 874.4 317.2 L 514.5 317.2 Z M 514.5 395.9 " fill="#869ABB"></path><path d="M 1.6 317.2 L 154.5 317.2 L 154.5 238.4 L 1.6 238.4 Z M 1.6 317.2 " fill="#869ABB"></path><path d="M 1.6 238.4 L 154.5 238.4 L 154.5 159.6 L 1.6 159.6 Z M 1.6 238.4 " fill="#869ABB"></path><path d="M 154.5 238.4 L 514.5 238.4 L 514.5 159.6 L 154.5 159.6 Z M 154.5 238.4 " fill="#000000" fill-opacity="0.25"></path><path d="M 514.5 238.4 L 874.4 238.4 L 874.4 159.6 L 514.5 159.6 Z M 514.5 238.4 " fill="#000000" fill-opacity="0.25"></path><path d="M 1.6 159.6 L 154.5 159.6 L 154.5 80.8 L 1.6 80.8 Z M 1.6 159.6 " fill="#869ABB"></path><path d="M 1.6 80.8 L 154.5 80.8 L 154.5 2.1 L 1.6 2.1 Z M 1.6 80.8 " fill="#869ABB"></path><path d="M 154.5 80.8 L 514.5 80.8 L 514.5 2.1 L 154.5 2.1 Z M 154.5 80.8 " fill="#000000" fill-opacity="0.25"></path><path d="M 514.5 80.8 L 874.4 80.8 L 874.4 2.1 L 514.5 2.1 Z M 514.5 80.8 " fill="#000000" fill-opacity="0.25"></path></g></g><image xlink:href="../../5BF47851-6364-4600-99AF-A85938226DCD/assets/6D6C7DDDA31C5138E74FBE29585754B5.png" width="49.00" height="25.00" transform="matrix(1.00, 0.00, -0.00, -1.00, 310.0, 366.0)"></image><g><clipPath id="clip-830"><path d="M 1.1 396.4 L 874.9 396.4 L 874.9 1.6 L 1.1 1.6 Z M 1.1 396.4 "></path></clipPath><g clip-path="url(#clip-830)"><g><clipPath id="clip-831"><path d="M 155.0 317.7 L 514.0 317.7 L 514.0 395.4 L 155.0 395.4 Z M 155.0 317.7 "></path></clipPath><g clip-path="url(#clip-831)"><text xml:space="preserve" font-family="Chalkduster" font-size="16.0" fill="#FEFFFE" transform="matrix(1.00, 0.00, -0.00, -1.00, 315.0, 348.0)">C</text><text xml:space="preserve" font-family="Chalkduster" font-size="16.0" fill="#FEFFFE" transform="matrix(1.00, 0.00, -0.00, -1.00, 328.0, 348.0)">A</text><text xml:space="preserve" font-family="Chalkduster" font-size="16.0" fill="#FEFFFE" transform="matrix(1.00, 0.00, -0.00, -1.00, 339.3, 348.0)">W</text></g></g></g></g><image xlink:href="../../5BF47851-6364-4600-99AF-A85938226DCD/assets/AF43EC61B632467D85B3DA3A81D4E388.png" width="50.00" height="25.00" transform="matrix(1.00, 0.00, -0.00, -1.00, 669.0, 366.0)"></image><g><clipPath id="clip-832"><path d="M 1.1 396.4 L 874.9 396.4 L 874.9 1.6 L 1.1 1.6 Z M 1.1 396.4 "></path></clipPath><g clip-path="url(#clip-832)"><g><clipPath id="clip-833"><path d="M 515.0 317.7 L 873.9 317.7 L 873.9 395.4 L 515.0 395.4 Z M 515.0 317.7 "></path></clipPath><g clip-path="url(#clip-833)"><text xml:space="preserve" font-family="Chalkduster" font-size="16.0" fill="#FEFFFE" transform="matrix(1.00, 0.00, -0.00, -1.00, 674.0, 348.0)">W</text><text xml:space="preserve" font-family="Chalkduster" font-size="16.0" fill="#FEFFFE" transform="matrix(1.00, 0.00, -0.00, -1.00, 688.5, 348.0)">G</text><text xml:space="preserve" font-family="Chalkduster" font-size="16.0" fill="#FEFFFE" transform="matrix(1.00, 0.00, -0.00, -1.00, 706.3, 348.0)">S</text></g></g></g></g><image xlink:href="../../5BF47851-6364-4600-99AF-A85938226DCD/assets/2F1784772E4D8E3B36E68524F29EFE42.png" width="43.00" height="19.00" transform="matrix(1.00, 0.00, -0.00, -1.00, 112.0, 283.0)"></image><g><clipPath id="clip-834"><path d="M 1.1 396.4 L 874.9 396.4 L 874.9 1.6 L 1.1 1.6 Z M 1.1 396.4 "></path></clipPath><g clip-path="url(#clip-834)"><g><clipPath id="clip-835"><path d="M 2.1 238.9 L 154.0 238.9 L 154.0 316.7 L 2.1 316.7 Z M 2.1 238.9 "></path></clipPath><g clip-path="url(#clip-835)"><text xml:space="preserve" font-family="Chalkduster" font-size="16.0" fill="#FEFFFE" transform="matrix(1.00, 0.00, -0.00, -1.00, 117.1, 269.4)">m</text><text xml:space="preserve" font-family="Chalkduster" font-size="16.0" fill="#FEFFFE" transform="matrix(1.00, 0.00, -0.00, -1.00, 133.8, 269.4)">m</text></g></g></g></g><image xlink:href="../../5BF47851-6364-4600-99AF-A85938226DCD/assets/0050236E8C6EB2F8CE66BC495ACE7C97.png" width="77.00" height="23.00" transform="matrix(1.00, 0.00, -0.00, -1.00, 296.0, 290.0)"></image><g><clipPath id="clip-836"><path d="M 1.1 396.4 L 874.9 396.4 L 874.9 1.6 L 1.1 1.6 Z M 1.1 396.4 "></path></clipPath><g clip-path="url(#clip-836)"><g><clipPath id="clip-837"><path d="M 155.0 238.9 L 514.0 238.9 L 514.0 316.7 L 155.0 316.7 Z M 155.0 238.9 "></path></clipPath><g clip-path="url(#clip-837)"><text xml:space="preserve" font-family="AmericanTypewriter" font-size="16.0" fill="#FEFFFE" transform="matrix(1.00, 0.00, -0.00, -1.00, 301.0, 273.0)">2</text><text xml:space="preserve" font-family="AmericanTypewriter" font-size="16.0" fill="#FEFFFE" transform="matrix(1.00, 0.00, -0.00, -1.00, 311.2, 273.0)">3</text><text xml:space="preserve" font-family="AmericanTypewriter" font-size="16.0" fill="#FEFFFE" transform="matrix(1.00, 0.00, -0.00, -1.00, 321.4, 273.0)">m</text><text xml:space="preserve" font-family="AmericanTypewriter" font-size="16.0" fill="#FEFFFE" transform="matrix(1.00, 0.00, -0.00, -1.00, 336.2, 273.0)"> </text><text xml:space="preserve" font-family="AmericanTypewriter" font-size="16.0" fill="#FEFFFE" transform="matrix(1.00, 0.00, -0.00, -1.00, 340.2, 273.0)">5</text><text xml:space="preserve" font-family="AmericanTypewriter" font-size="16.0" fill="#FEFFFE" transform="matrix(1.00, 0.00, -0.00, -1.00, 350.4, 273.0)">8</text><text xml:space="preserve" font-family="AmericanTypewriter" font-size="16.0" fill="#FEFFFE" transform="matrix(1.00, 0.00, -0.00, -1.00, 360.6, 273.0)">s</text></g></g></g></g><image xlink:href="../../5BF47851-6364-4600-99AF-A85938226DCD/assets/329205771C8640CDCA5624B9240B15A8.png" width="67.00" height="23.00" transform="matrix(1.00, 0.00, -0.00, -1.00, 661.0, 290.0)"></image><g><clipPath id="clip-838"><path d="M 1.1 396.4 L 874.9 396.4 L 874.9 1.6 L 1.1 1.6 Z M 1.1 396.4 "></path></clipPath><g clip-path="url(#clip-838)"><g><clipPath id="clip-839"><path d="M 515.0 238.9 L 873.9 238.9 L 873.9 316.7 L 515.0 316.7 Z M 515.0 238.9 "></path></clipPath><g clip-path="url(#clip-839)"><text xml:space="preserve" font-family="AmericanTypewriter" font-size="16.0" fill="#FEFFFE" transform="matrix(1.00, 0.00, -0.00, -1.00, 666.0, 273.0)">8</text><text xml:space="preserve" font-family="AmericanTypewriter" font-size="16.0" fill="#FEFFFE" transform="matrix(1.00, 0.00, -0.00, -1.00, 676.2, 273.0)">m</text><text xml:space="preserve" font-family="AmericanTypewriter" font-size="16.0" fill="#FEFFFE" transform="matrix(1.00, 0.00, -0.00, -1.00, 691.0, 273.0)"> </text><text xml:space="preserve" font-family="AmericanTypewriter" font-size="16.0" fill="#FEFFFE" transform="matrix(1.00, 0.00, -0.00, -1.00, 695.0, 273.0)">4</text><text xml:space="preserve" font-family="AmericanTypewriter" font-size="16.0" fill="#FEFFFE" transform="matrix(1.00, 0.00, -0.00, -1.00, 705.2, 273.0)">0</text><text xml:space="preserve" font-family="AmericanTypewriter" font-size="16.0" fill="#FEFFFE" transform="matrix(1.00, 0.00, -0.00, -1.00, 715.4, 273.0)">s</text></g></g></g></g><image xlink:href="../../5BF47851-6364-4600-99AF-A85938226DCD/assets/E431A9788D4E2223C991907BC5566002.png" width="131.00" height="33.00" transform="matrix(1.00, 0.00, -0.00, -1.00, 23.0, 209.0)"></image><g><clipPath id="clip-840"><path d="M 1.1 396.4 L 874.9 396.4 L 874.9 1.6 L 1.1 1.6 Z M 1.1 396.4 "></path></clipPath><g clip-path="url(#clip-840)"><g><clipPath id="clip-841"><path d="M 2.1 160.1 L 154.0 160.1 L 154.0 237.9 L 2.1 237.9 Z M 2.1 160.1 "></path></clipPath><g clip-path="url(#clip-841)"><text xml:space="preserve" font-family="Chalkduster" font-size="16.0" fill="#FEFFFE" transform="matrix(1.00, 0.00, -0.00, -1.00, 27.5, 190.6)">m</text><text xml:space="preserve" font-family="Chalkduster" font-size="16.0" fill="#FEFFFE" transform="matrix(1.00, 0.00, -0.00, -1.00, 44.2, 190.6)">m</text><text xml:space="preserve" font-family="Chalkduster" font-size="16.0" fill="#FEFFFE" transform="matrix(1.00, 0.00, -0.00, -1.00, 60.4, 190.6)">2</text><text xml:space="preserve" font-family="Chalkduster" font-size="16.0" fill="#FEFFFE" transform="matrix(1.00, 0.00, -0.00, -1.00, 69.4, 190.6)">-</text><text xml:space="preserve" font-family="Chalkduster" font-size="16.0" fill="#FEFFFE" transform="matrix(1.00, 0.00, -0.00, -1.00, 79.1, 190.6)">e</text><text xml:space="preserve" font-family="Chalkduster" font-size="16.0" fill="#FEFFFE" transform="matrix(1.00, 0.00, -0.00, -1.00, 89.3, 190.6)">p</text><text xml:space="preserve" font-family="Chalkduster" font-size="16.0" fill="#FEFFFE" transform="matrix(1.00, 0.00, -0.00, -1.00, 99.3, 190.6)">o</text><text xml:space="preserve" font-family="Chalkduster" font-size="16.0" fill="#FEFFFE" transform="matrix(1.00, 0.00, -0.00, -1.00, 111.3, 190.6)">u</text><text xml:space="preserve" font-family="Chalkduster" font-size="16.0" fill="#FEFFFE" transform="matrix(1.00, 0.00, -0.00, -1.00, 122.2, 190.6)">t</text><text xml:space="preserve" font-family="Chalkduster" font-size="16.0" fill="#FEFFFE" transform="matrix(1.00, 0.00, -0.00, -1.00, 129.3, 190.6)">a</text><text xml:space="preserve" font-family="Chalkduster" font-size="16.0" fill="#FEFFFE" transform="matrix(1.00, 0.00, -0.00, -1.00, 140.3, 190.6)">1</text></g></g></g></g><image xlink:href="../../5BF47851-6364-4600-99AF-A85938226DCD/assets/340DD5C31246219AC75CBABBC8B1F9AD.png" width="77.00" height="23.00" transform="matrix(1.00, 0.00, -0.00, -1.00, 296.0, 211.0)"></image><g><clipPath id="clip-842"><path d="M 1.1 396.4 L 874.9 396.4 L 874.9 1.6 L 1.1 1.6 Z M 1.1 396.4 "></path></clipPath><g clip-path="url(#clip-842)"><g><clipPath id="clip-843"><path d="M 155.0 160.1 L 514.0 160.1 L 514.0 237.9 L 155.0 237.9 Z M 155.0 160.1 "></path></clipPath><g clip-path="url(#clip-843)"><text xml:space="preserve" font-family="AmericanTypewriter" font-size="16.0" fill="#FEFFFE" transform="matrix(1.00, 0.00, -0.00, -1.00, 301.0, 194.0)">2</text><text xml:space="preserve" font-family="AmericanTypewriter" font-size="16.0" fill="#FEFFFE" transform="matrix(1.00, 0.00, -0.00, -1.00, 311.2, 194.0)">3</text><text xml:space="preserve" font-family="AmericanTypewriter" font-size="16.0" fill="#FEFFFE" transform="matrix(1.00, 0.00, -0.00, -1.00, 321.4, 194.0)">m</text><text xml:space="preserve" font-family="AmericanTypewriter" font-size="16.0" fill="#FEFFFE" transform="matrix(1.00, 0.00, -0.00, -1.00, 336.2, 194.0)"> </text><text xml:space="preserve" font-family="AmericanTypewriter" font-size="16.0" fill="#FEFFFE" transform="matrix(1.00, 0.00, -0.00, -1.00, 340.2, 194.0)">2</text><text xml:space="preserve" font-family="AmericanTypewriter" font-size="16.0" fill="#FEFFFE" transform="matrix(1.00, 0.00, -0.00, -1.00, 350.4, 194.0)">7</text><text xml:space="preserve" font-family="AmericanTypewriter" font-size="16.0" fill="#FEFFFE" transform="matrix(1.00, 0.00, -0.00, -1.00, 360.6, 194.0)">s</text></g></g></g></g><image xlink:href="../../5BF47851-6364-4600-99AF-A85938226DCD/assets/715956A311CB86CDA5D09136897DB150.png" width="67.00" height="23.00" transform="matrix(1.00, 0.00, -0.00, -1.00, 661.0, 211.0)"></image><g><clipPath id="clip-844"><path d="M 1.1 396.4 L 874.9 396.4 L 874.9 1.6 L 1.1 1.6 Z M 1.1 396.4 "></path></clipPath><g clip-path="url(#clip-844)"><g><clipPath id="clip-845"><path d="M 515.0 160.1 L 873.9 160.1 L 873.9 237.9 L 515.0 237.9 Z M 515.0 160.1 "></path></clipPath><g clip-path="url(#clip-845)"><text xml:space="preserve" font-family="AmericanTypewriter" font-size="16.0" fill="#FEFFFE" transform="matrix(1.00, 0.00, -0.00, -1.00, 666.0, 194.0)">9</text><text xml:space="preserve" font-family="AmericanTypewriter" font-size="16.0" fill="#FEFFFE" transform="matrix(1.00, 0.00, -0.00, -1.00, 676.2, 194.0)">m</text><text xml:space="preserve" font-family="AmericanTypewriter" font-size="16.0" fill="#FEFFFE" transform="matrix(1.00, 0.00, -0.00, -1.00, 691.0, 194.0)"> </text><text xml:space="preserve" font-family="AmericanTypewriter" font-size="16.0" fill="#FEFFFE" transform="matrix(1.00, 0.00, -0.00, -1.00, 695.0, 194.0)">4</text><text xml:space="preserve" font-family="AmericanTypewriter" font-size="16.0" fill="#FEFFFE" transform="matrix(1.00, 0.00, -0.00, -1.00, 705.2, 194.0)">3</text><text xml:space="preserve" font-family="AmericanTypewriter" font-size="16.0" fill="#FEFFFE" transform="matrix(1.00, 0.00, -0.00, -1.00, 715.4, 194.0)">s</text></g></g></g></g><image xlink:href="../../5BF47851-6364-4600-99AF-A85938226DCD/assets/9BDC9229684BCE7563D22A5788705BE6.png" width="132.00" height="32.00" transform="matrix(1.00, 0.00, -0.00, -1.00, 23.0, 130.0)"></image><g><clipPath id="clip-846"><path d="M 1.1 396.4 L 874.9 396.4 L 874.9 1.6 L 1.1 1.6 Z M 1.1 396.4 "></path></clipPath><g clip-path="url(#clip-846)"><g><clipPath id="clip-847"><path d="M 2.1 81.3 L 154.0 81.3 L 154.0 159.1 L 2.1 159.1 Z M 2.1 81.3 "></path></clipPath><g clip-path="url(#clip-847)"><text xml:space="preserve" font-family="Chalkduster" font-size="16.0" fill="#FEFFFE" transform="matrix(1.00, 0.00, -0.00, -1.00, 27.5, 111.9)">m</text><text xml:space="preserve" font-family="Chalkduster" font-size="16.0" fill="#FEFFFE" transform="matrix(1.00, 0.00, -0.00, -1.00, 44.2, 111.9)">m</text><text xml:space="preserve" font-family="Chalkduster" font-size="16.0" fill="#FEFFFE" transform="matrix(1.00, 0.00, -0.00, -1.00, 60.4, 111.9)">1</text><text xml:space="preserve" font-family="Chalkduster" font-size="16.0" fill="#FEFFFE" transform="matrix(1.00, 0.00, -0.00, -1.00, 70.1, 111.9)">-</text><text xml:space="preserve" font-family="Chalkduster" font-size="16.0" fill="#FEFFFE" transform="matrix(1.00, 0.00, -0.00, -1.00, 79.8, 111.9)">e</text><text xml:space="preserve" font-family="Chalkduster" font-size="16.0" fill="#FEFFFE" transform="matrix(1.00, 0.00, -0.00, -1.00, 89.9, 111.9)">p</text><text xml:space="preserve" font-family="Chalkduster" font-size="16.0" fill="#FEFFFE" transform="matrix(1.00, 0.00, -0.00, -1.00, 100.0, 111.9)">o</text><text xml:space="preserve" font-family="Chalkduster" font-size="16.0" fill="#FEFFFE" transform="matrix(1.00, 0.00, -0.00, -1.00, 112.0, 111.9)">u</text><text xml:space="preserve" font-family="Chalkduster" font-size="16.0" fill="#FEFFFE" transform="matrix(1.00, 0.00, -0.00, -1.00, 122.8, 111.9)">t</text><text xml:space="preserve" font-family="Chalkduster" font-size="16.0" fill="#FEFFFE" transform="matrix(1.00, 0.00, -0.00, -1.00, 130.0, 111.9)">a</text><text xml:space="preserve" font-family="Chalkduster" font-size="16.0" fill="#FEFFFE" transform="matrix(1.00, 0.00, -0.00, -1.00, 141.0, 111.9)">2</text></g></g></g></g><image xlink:href="../../5BF47851-6364-4600-99AF-A85938226DCD/assets/5B27A5A8B4B2782F232E5D364CEF13A2.png" width="77.00" height="23.00" transform="matrix(1.00, 0.00, -0.00, -1.00, 296.0, 132.0)"></image><g><clipPath id="clip-848"><path d="M 1.1 396.4 L 874.9 396.4 L 874.9 1.6 L 1.1 1.6 Z M 1.1 396.4 "></path></clipPath><g clip-path="url(#clip-848)"><g><clipPath id="clip-849"><path d="M 155.0 81.3 L 514.0 81.3 L 514.0 159.1 L 155.0 159.1 Z M 155.0 81.3 "></path></clipPath><g clip-path="url(#clip-849)"><text xml:space="preserve" font-family="AmericanTypewriter" font-size="16.0" fill="#FEFFFE" transform="matrix(1.00, 0.00, -0.00, -1.00, 301.0, 115.0)">2</text><text xml:space="preserve" font-family="AmericanTypewriter" font-size="16.0" fill="#FEFFFE" transform="matrix(1.00, 0.00, -0.00, -1.00, 311.2, 115.0)">2</text><text xml:space="preserve" font-family="AmericanTypewriter" font-size="16.0" fill="#FEFFFE" transform="matrix(1.00, 0.00, -0.00, -1.00, 321.4, 115.0)">m</text><text xml:space="preserve" font-family="AmericanTypewriter" font-size="16.0" fill="#FEFFFE" transform="matrix(1.00, 0.00, -0.00, -1.00, 336.2, 115.0)"> </text><text xml:space="preserve" font-family="AmericanTypewriter" font-size="16.0" fill="#FEFFFE" transform="matrix(1.00, 0.00, -0.00, -1.00, 340.2, 115.0)">5</text><text xml:space="preserve" font-family="AmericanTypewriter" font-size="16.0" fill="#FEFFFE" transform="matrix(1.00, 0.00, -0.00, -1.00, 350.4, 115.0)">5</text><text xml:space="preserve" font-family="AmericanTypewriter" font-size="16.0" fill="#FEFFFE" transform="matrix(1.00, 0.00, -0.00, -1.00, 360.6, 115.0)">s</text></g></g></g></g><image xlink:href="../../5BF47851-6364-4600-99AF-A85938226DCD/assets/1026C4DBB3AD9453315AD2C6101AF2A0.png" width="67.00" height="23.00" transform="matrix(1.00, 0.00, -0.00, -1.00, 661.0, 132.0)"></image><g><clipPath id="clip-850"><path d="M 1.1 396.4 L 874.9 396.4 L 874.9 1.6 L 1.1 1.6 Z M 1.1 396.4 "></path></clipPath><g clip-path="url(#clip-850)"><g><clipPath id="clip-851"><path d="M 515.0 81.3 L 873.9 81.3 L 873.9 159.1 L 515.0 159.1 Z M 515.0 81.3 "></path></clipPath><g clip-path="url(#clip-851)"><text xml:space="preserve" font-family="AmericanTypewriter" font-size="16.0" fill="#FEFFFE" transform="matrix(1.00, 0.00, -0.00, -1.00, 666.0, 115.0)">9</text><text xml:space="preserve" font-family="AmericanTypewriter" font-size="16.0" fill="#FEFFFE" transform="matrix(1.00, 0.00, -0.00, -1.00, 676.2, 115.0)">m</text><text xml:space="preserve" font-family="AmericanTypewriter" font-size="16.0" fill="#FEFFFE" transform="matrix(1.00, 0.00, -0.00, -1.00, 691.0, 115.0)"> </text><text xml:space="preserve" font-family="AmericanTypewriter" font-size="16.0" fill="#FEFFFE" transform="matrix(1.00, 0.00, -0.00, -1.00, 695.0, 115.0)">4</text><text xml:space="preserve" font-family="AmericanTypewriter" font-size="16.0" fill="#FEFFFE" transform="matrix(1.00, 0.00, -0.00, -1.00, 705.2, 115.0)">2</text><text xml:space="preserve" font-family="AmericanTypewriter" font-size="16.0" fill="#FEFFFE" transform="matrix(1.00, 0.00, -0.00, -1.00, 715.4, 115.0)">s</text></g></g></g></g><image xlink:href="../../5BF47851-6364-4600-99AF-A85938226DCD/assets/B2D1B8EFC4B28821024C7045EFEB8E1D.png" width="71.00" height="32.00" transform="matrix(1.00, 0.00, -0.00, -1.00, 84.0, 51.0)"></image><g><clipPath id="clip-852"><path d="M 1.1 396.4 L 874.9 396.4 L 874.9 1.6 L 1.1 1.6 Z M 1.1 396.4 "></path></clipPath><g clip-path="url(#clip-852)"><g><clipPath id="clip-853"><path d="M 2.1 2.6 L 154.0 2.6 L 154.0 80.3 L 2.1 80.3 Z M 2.1 2.6 "></path></clipPath><g clip-path="url(#clip-853)"><text xml:space="preserve" font-family="Chalkduster" font-size="16.0" fill="#FEFFFE" transform="matrix(1.00, 0.00, -0.00, -1.00, 88.7, 33.1)">e</text><text xml:space="preserve" font-family="Chalkduster" font-size="16.0" fill="#FEFFFE" transform="matrix(1.00, 0.00, -0.00, -1.00, 98.9, 33.1)">p</text><text xml:space="preserve" font-family="Chalkduster" font-size="16.0" fill="#FEFFFE" transform="matrix(1.00, 0.00, -0.00, -1.00, 109.0, 33.1)">o</text><text xml:space="preserve" font-family="Chalkduster" font-size="16.0" fill="#FEFFFE" transform="matrix(1.00, 0.00, -0.00, -1.00, 121.0, 33.1)">u</text><text xml:space="preserve" font-family="Chalkduster" font-size="16.0" fill="#FEFFFE" transform="matrix(1.00, 0.00, -0.00, -1.00, 131.8, 33.1)">t</text><text xml:space="preserve" font-family="Chalkduster" font-size="16.0" fill="#FEFFFE" transform="matrix(1.00, 0.00, -0.00, -1.00, 139.0, 33.1)">a</text></g></g></g></g><image xlink:href="../../5BF47851-6364-4600-99AF-A85938226DCD/assets/A36F306E7F726452FDC9B3AA2BF2E8EF.png" width="75.00" height="23.00" transform="matrix(1.00, 0.00, -0.00, -1.00, 297.0, 53.0)"></image><g><clipPath id="clip-854"><path d="M 1.1 396.4 L 874.9 396.4 L 874.9 1.6 L 1.1 1.6 Z M 1.1 396.4 "></path></clipPath><g clip-path="url(#clip-854)"><g><clipPath id="clip-855"><path d="M 155.0 2.6 L 514.0 2.6 L 514.0 80.3 L 155.0 80.3 Z M 155.0 2.6 "></path></clipPath><g clip-path="url(#clip-855)"><text xml:space="preserve" font-family="AmericanTypewriter" font-size="16.0" fill="#FEFFFE" transform="matrix(1.00, 0.00, -0.00, -1.00, 301.0, 36.0)">1</text><text xml:space="preserve" font-family="AmericanTypewriter" font-size="16.0" fill="#FEFFFE" transform="matrix(1.00, 0.00, -0.00, -1.00, 310.1, 36.0)">5</text><text xml:space="preserve" font-family="AmericanTypewriter" font-size="16.0" fill="#FEFFFE" transform="matrix(1.00, 0.00, -0.00, -1.00, 320.3, 36.0)">m</text><text xml:space="preserve" font-family="AmericanTypewriter" font-size="16.0" fill="#FEFFFE" transform="matrix(1.00, 0.00, -0.00, -1.00, 335.2, 36.0)"> </text><text xml:space="preserve" font-family="AmericanTypewriter" font-size="16.0" fill="#FEFFFE" transform="matrix(1.00, 0.00, -0.00, -1.00, 339.2, 36.0)">3</text><text xml:space="preserve" font-family="AmericanTypewriter" font-size="16.0" fill="#FEFFFE" transform="matrix(1.00, 0.00, -0.00, -1.00, 349.4, 36.0)">2</text><text xml:space="preserve" font-family="AmericanTypewriter" font-size="16.0" fill="#FEFFFE" transform="matrix(1.00, 0.00, -0.00, -1.00, 359.5, 36.0)">s</text></g></g></g></g><image xlink:href="../../5BF47851-6364-4600-99AF-A85938226DCD/assets/498EF1F23CE1151C35FE96DED80F607F.png" width="73.00" height="23.00" transform="matrix(1.00, 0.00, -0.00, -1.00, 658.0, 53.0)"></image><g><clipPath id="clip-856"><path d="M 1.1 396.4 L 874.9 396.4 L 874.9 1.6 L 1.1 1.6 Z M 1.1 396.4 "></path></clipPath><g clip-path="url(#clip-856)"><g><clipPath id="clip-857"><path d="M 515.0 2.6 L 873.9 2.6 L 873.9 80.3 L 515.0 80.3 Z M 515.0 2.6 "></path></clipPath><g clip-path="url(#clip-857)"><text xml:space="preserve" font-family="AmericanTypewriter" font-size="16.0" fill="#FEFFFE" transform="matrix(1.00, 0.00, -0.00, -1.00, 662.0, 36.0)">1</text><text xml:space="preserve" font-family="AmericanTypewriter" font-size="16.0" fill="#FEFFFE" transform="matrix(1.00, 0.00, -0.00, -1.00, 670.9, 36.0)">0</text><text xml:space="preserve" font-family="AmericanTypewriter" font-size="16.0" fill="#FEFFFE" transform="matrix(1.00, 0.00, -0.00, -1.00, 681.1, 36.0)">m</text><text xml:space="preserve" font-family="AmericanTypewriter" font-size="16.0" fill="#FEFFFE" transform="matrix(1.00, 0.00, -0.00, -1.00, 695.9, 36.0)"> </text><text xml:space="preserve" font-family="AmericanTypewriter" font-size="16.0" fill="#FEFFFE" transform="matrix(1.00, 0.00, -0.00, -1.00, 699.9, 36.0)">1</text><text xml:space="preserve" font-family="AmericanTypewriter" font-size="16.0" fill="#FEFFFE" transform="matrix(1.00, 0.00, -0.00, -1.00, 708.5, 36.0)">4</text><text xml:space="preserve" font-family="AmericanTypewriter" font-size="16.0" fill="#FEFFFE" transform="matrix(1.00, 0.00, -0.00, -1.00, 718.7, 36.0)">s</text></g></g></g></g><g><clipPath id="clip-858"><path d="M 1.1 396.4 L 874.9 396.4 L 874.9 1.6 L 1.1 1.6 Z M 1.1 396.4 "></path></clipPath><g clip-path="url(#clip-858)"><path d="M 514.9 1.5 L 514.9 80.8 " fill="none" stroke="#FEFFFE" stroke-opacity="0.50" stroke-width="1.00" transform="matrix(1.00, 0.00, 0.00, -1.00, -0.4, 397.9)"></path><path d="M 514.9 80.8 L 514.9 396.4 " fill="none" stroke="#FEFFFE" stroke-opacity="0.50" stroke-width="1.00" transform="matrix(1.00, 0.00, 0.00, -1.00, -0.4, 397.9)"></path><path d="M 1.5 159.5 L 154.9 159.5 " fill="none" stroke="#FEFFFE" stroke-opacity="0.50" stroke-width="1.00" transform="matrix(1.00, 0.00, 0.00, -1.00, -0.4, 397.9)"></path><path d="M 154.9 159.5 L 875.3 159.5 " fill="none" stroke="#FEFFFE" stroke-opacity="0.50" stroke-width="1.00" transform="matrix(1.00, 0.00, 0.00, -1.00, -0.4, 397.9)"></path><path d="M 1.5 238.3 L 154.9 238.3 " fill="none" stroke="#FEFFFE" stroke-opacity="0.50" stroke-width="1.00" transform="matrix(1.00, 0.00, 0.00, -1.00, -0.4, 397.9)"></path><path d="M 154.9 238.3 L 875.3 238.3 " fill="none" stroke="#FEFFFE" stroke-opacity="0.50" stroke-width="1.00" transform="matrix(1.00, 0.00, 0.00, -1.00, -0.4, 397.9)"></path><path d="M 1.5 317.1 L 154.9 317.1 " fill="none" stroke="#FEFFFE" stroke-opacity="0.50" stroke-width="1.00" transform="matrix(1.00, 0.00, 0.00, -1.00, -0.4, 397.9)"></path><path d="M 154.9 317.1 L 875.3 317.1 " fill="none" stroke="#FEFFFE" stroke-opacity="0.50" stroke-width="1.00" transform="matrix(1.00, 0.00, 0.00, -1.00, -0.4, 397.9)"></path><path d="M 154.9 1.5 L 154.9 80.8 " fill="none" stroke="#FEFFFE" stroke-opacity="0.50" stroke-width="1.00" transform="matrix(1.00, 0.00, 0.00, -1.00, -0.4, 397.9)"></path><path d="M 154.9 80.8 L 154.9 396.4 " fill="none" stroke="#FEFFFE" stroke-opacity="0.50" stroke-width="1.00" transform="matrix(1.00, 0.00, 0.00, -1.00, -0.4, 397.9)"></path><path d="M 1.5 80.8 L 875.3 80.8 " fill="none" stroke="#FEFFFE" stroke-opacity="0.50" stroke-width="1.00" transform="matrix(1.00, 0.00, 0.00, -1.00, -0.4, 397.9)"></path><path d="M 2.0 1.5 L 2.0 80.8 " fill="none" stroke="#FEFFFE" stroke-opacity="0.50" stroke-width="1.00" transform="matrix(1.00, 0.00, 0.00, -1.00, -0.4, 397.9)"></path><path d="M 2.0 80.8 L 2.0 396.4 " fill="none" stroke="#FEFFFE" stroke-opacity="0.50" stroke-width="1.00" transform="matrix(1.00, 0.00, 0.00, -1.00, -0.4, 397.9)"></path><path d="M 874.8 1.5 L 874.8 80.8 " fill="none" stroke="#FEFFFE" stroke-opacity="0.50" stroke-width="1.00" transform="matrix(1.00, 0.00, 0.00, -1.00, -0.4, 397.9)"></path><path d="M 874.8 80.8 L 874.8 396.4 " fill="none" stroke="#FEFFFE" stroke-opacity="0.50" stroke-width="1.00" transform="matrix(1.00, 0.00, 0.00, -1.00, -0.4, 397.9)"></path><path d="M 1.5 2.0 L 875.3 2.0 " fill="none" stroke="#FEFFFE" stroke-opacity="0.50" stroke-width="1.00" transform="matrix(1.00, 0.00, 0.00, -1.00, -0.4, 397.9)"></path><path d="M 1.5 395.9 L 154.9 395.9 " fill="none" stroke="#FEFFFE" stroke-opacity="0.50" stroke-width="1.00" transform="matrix(1.00, 0.00, 0.00, -1.00, -0.4, 397.9)"></path><path d="M 154.9 395.9 L 875.3 395.9 " fill="none" stroke="#FEFFFE" stroke-opacity="0.50" stroke-width="1.00" transform="matrix(1.00, 0.00, 0.00, -1.00, -0.4, 397.9)"></path></g></g></g></svg>