<?xml version="1.0" encoding="UTF-8" standalone="no"?><svg xmlns="http://www.w3.org/2000/svg" xmlns:xlink="http://www.w3.org/1999/xlink" clip-rule="evenodd" stroke-miterlimit="4.00" viewBox="0 0 340 150"><desc>SVG generated by Keynote</desc><defs></defs><g transform="matrix(1.00, 0.00, -0.00, -1.00, 0.0, 150.0)"><image xlink:href="../../CEFA4209-80C9-472B-8D2B-058B96531B72/assets/18D96FF3CF2FC989777909170BCDD44B.png" width="337.00" height="146.00" transform="matrix(1.00, 0.00, -0.00, -1.00, 1.8, 148.3)" opacity="0.50"></image><g><clipPath id="clip-824"><path d="M 282.9 120.5 C 345.1 95.4 345.1 54.8 282.9 29.7 C 220.6 4.6 119.7 4.6 57.5 29.7 C -4.7 54.8 -4.7 95.4 57.5 120.5 C 119.7 145.6 220.6 145.6 282.9 120.5 Z M 282.9 120.5 "></path></clipPath><g clip-path="url(#clip-824)"><image xlink:href="../../CEFA4209-80C9-472B-8D2B-058B96531B72/assets/59DBD66EA15A3D40E065F836EF2595FD.jpeg" width="400.00" height="400.00" transform="matrix(1.00, 0.00, -0.00, -1.00, 10.8, 139.3)"></image></g></g><path d="M 87.4 16.2 C 86.9 16.4 86.4 16.6 85.5 16.8 C 85.9 16.7 86.2 16.7 86.2 16.8 C 86.9 16.6 87.9 16.3 89.4 16.0 C 89.4 15.9 88.6 16.1 88.1 16.2 C 87.5 16.4 87.6 16.2 87.4 16.2 C 87.4 16.2 87.4 16.2 87.4 16.2 Z M 72.3 129.2 C 71.0 128.8 72.3 129.5 72.8 129.6 C 72.9 129.6 72.9 129.6 73.4 129.7 C 73.5 130.0 72.4 129.7 71.5 129.5 C 68.2 128.3 70.8 128.7 72.3 129.2 C 72.3 129.2 72.3 129.2 72.3 129.2 Z M 256.6 132.3 C 259.4 131.6 256.3 132.1 255.9 132.2 C 257.2 131.8 256.0 131.7 257.7 131.2 C 258.0 131.2 258.6 131.1 259.0 131.2 C 258.3 131.4 257.2 131.6 257.1 131.8 C 258.1 131.5 259.4 131.1 259.6 131.2 C 257.5 131.8 259.3 131.5 259.7 131.6 C 257.8 132.0 257.3 132.4 256.6 132.3 C 256.6 132.3 256.6 132.3 256.6 132.3 Z M 306.7 38.7 C 307.6 39.3 308.3 39.8 308.0 39.8 C 307.1 39.2 306.5 38.7 306.0 38.4 C 305.8 38.4 306.0 38.6 305.2 38.2 C 304.4 37.4 305.0 37.4 305.5 37.6 C 305.5 37.8 308.6 39.7 306.7 38.7 C 306.7 38.7 306.7 38.7 306.7 38.7 Z M 231.1 13.4 C 228.5 12.9 230.9 13.8 228.3 13.2 C 228.4 13.0 228.1 12.7 229.8 13.0 C 229.9 13.1 230.9 13.3 231.1 13.4 C 231.1 13.4 231.1 13.4 231.1 13.4 Z M 178.6 140.5 C 178.6 140.7 180.6 140.6 180.1 140.8 C 179.1 140.8 178.2 140.8 177.2 140.9 C 177.0 140.7 177.3 140.6 178.6 140.5 C 178.6 140.5 178.6 140.5 178.6 140.5 Z M 274.2 124.6 C 276.9 124.0 279.5 122.6 278.8 123.1 C 279.9 123.0 277.2 124.4 277.2 124.1 C 276.8 124.0 272.1 125.4 274.2 124.6 C 274.2 124.6 274.2 124.6 274.2 124.6 Z M 87.6 129.1 C 90.6 130.1 90.1 129.2 92.0 130.0 C 91.3 129.9 91.0 129.9 90.8 129.9 C 91.2 130.0 92.0 130.2 92.0 130.2 C 90.5 130.0 88.8 129.6 87.6 129.1 C 87.6 129.1 87.6 129.1 87.6 129.1 Z M 133.7 9.2 C 134.3 9.2 134.6 9.1 134.5 9.0 C 136.7 8.9 136.6 8.7 138.0 8.7 C 138.1 9.0 136.2 9.1 134.5 9.2 C 134.4 9.2 133.9 9.3 133.7 9.2 C 133.7 9.2 133.7 9.2 133.7 9.2 Z M 197.0 9.3 C 196.9 9.1 195.6 9.0 197.7 9.1 C 200.0 9.5 197.9 9.6 195.5 9.6 C 195.5 9.7 195.5 9.8 195.5 9.9 C 196.4 9.9 197.1 10.0 197.6 10.1 C 198.0 9.8 199.6 10.5 203.3 10.6 C 201.5 10.6 203.4 11.1 201.1 10.8 C 201.7 11.0 200.1 10.9 200.4 11.1 C 201.4 11.1 203.8 11.3 203.2 10.9 C 204.5 11.0 205.4 11.2 206.1 11.3 C 206.9 11.6 203.8 11.1 204.7 11.5 C 205.3 11.5 205.5 11.6 206.0 11.7 C 206.2 11.6 205.9 11.4 206.7 11.5 C 209.0 11.8 206.3 11.7 209.5 12.1 C 209.7 12.0 208.8 11.8 208.9 11.7 C 210.3 11.7 210.2 11.9 211.7 11.9 C 211.9 12.1 210.6 12.0 211.6 12.2 C 212.6 11.9 214.5 12.7 216.5 12.6 C 215.2 12.0 216.9 12.8 218.7 12.5 C 219.1 12.7 217.7 12.9 219.3 13.1 C 218.8 12.4 225.0 13.4 220.1 12.2 C 222.7 12.6 223.7 12.2 221.6 11.8 C 226.1 12.6 224.7 12.1 226.4 12.3 C 228.2 12.6 225.5 12.3 226.4 12.6 C 224.5 12.3 225.0 12.5 223.7 12.2 C 223.6 12.3 223.3 12.3 222.9 12.3 C 224.8 12.4 226.9 13.1 225.6 13.2 C 224.6 13.0 225.5 12.9 224.3 12.7 C 224.7 13.1 222.9 12.4 222.8 12.7 C 223.7 13.1 220.9 13.0 223.5 13.4 C 223.5 13.3 223.5 13.1 223.5 13.0 C 224.2 13.1 224.9 13.2 225.5 13.3 C 226.1 13.6 225.6 13.7 226.2 13.9 C 227.3 14.1 227.9 14.1 228.3 14.0 C 226.9 13.8 225.3 13.3 227.6 13.6 C 226.7 13.9 230.8 14.2 228.9 14.2 C 231.4 14.8 232.7 14.6 232.9 15.0 C 234.3 15.2 233.5 14.8 235.0 15.1 C 237.5 15.7 237.1 15.3 240.3 16.2 C 240.8 15.8 240.6 16.3 241.7 16.5 C 241.7 16.4 241.7 16.2 241.7 16.1 C 242.8 16.6 245.4 17.2 248.2 17.6 C 248.9 17.8 248.3 17.9 250.1 18.2 C 252.1 18.4 254.2 19.3 256.5 19.5 C 256.6 19.7 258.2 20.1 259.0 20.2 C 259.3 20.4 258.2 20.4 259.5 20.8 C 260.5 20.8 258.9 20.3 260.9 20.7 C 260.6 20.9 262.7 21.1 262.7 21.3 C 262.1 21.2 261.4 21.1 260.8 21.0 C 261.6 21.3 261.3 21.4 262.0 21.6 C 262.0 21.2 263.4 21.9 263.8 22.1 C 263.8 21.9 264.0 21.9 264.5 22.0 C 265.6 22.3 266.4 22.5 267.0 22.6 C 268.3 23.1 266.2 22.6 267.5 23.0 C 268.3 22.6 269.5 23.7 272.3 24.2 C 272.9 24.6 274.0 25.1 275.7 25.8 C 276.0 25.6 274.1 25.1 274.1 24.9 C 276.6 25.9 273.7 24.6 275.3 25.2 C 277.1 25.9 278.6 26.4 280.0 27.0 C 281.5 27.6 282.7 28.2 285.7 29.5 C 285.6 29.3 290.2 31.1 290.1 31.2 C 288.9 30.7 292.4 32.5 294.1 33.4 C 294.7 33.3 297.5 34.3 297.8 34.2 C 298.3 34.7 298.1 34.6 298.3 35.1 C 301.0 36.7 302.6 37.2 304.0 38.6 C 304.0 38.3 305.2 39.0 306.3 39.6 C 305.9 39.6 305.2 39.3 304.6 39.1 C 306.0 39.9 306.1 40.1 307.2 40.9 C 308.7 41.1 310.1 43.1 311.3 43.1 C 313.0 44.4 312.5 44.4 314.0 45.6 C 314.0 45.4 314.2 45.4 314.7 45.7 C 313.7 45.0 312.9 44.6 312.5 43.9 C 314.8 45.6 308.5 40.1 312.5 42.7 C 312.5 42.9 312.1 42.8 312.9 43.4 C 315.0 45.0 313.9 43.8 313.1 43.2 C 314.6 44.2 315.9 45.4 315.0 44.3 C 318.2 46.8 316.1 45.3 317.0 46.3 C 322.4 50.8 327.7 57.0 330.2 64.1 C 330.6 64.3 331.5 68.1 331.6 69.4 C 332.2 71.4 332.4 73.5 332.1 74.2 C 332.4 74.5 331.9 76.6 332.2 76.8 C 332.2 76.0 332.3 75.4 332.4 76.3 C 332.1 79.2 331.0 83.6 330.6 85.3 C 329.9 86.2 329.2 88.1 328.7 89.4 C 328.5 89.6 328.9 88.5 328.5 89.3 C 328.5 89.6 327.1 92.3 326.6 92.9 C 327.1 92.1 327.4 91.1 326.6 92.2 C 326.7 92.3 325.8 93.6 326.2 93.4 C 325.0 95.0 324.4 96.1 323.2 97.3 C 324.1 96.2 324.5 95.5 324.5 95.2 C 323.9 96.2 323.4 97.0 322.5 97.6 C 323.0 97.6 321.5 99.0 320.2 100.6 C 319.7 101.0 319.3 101.2 318.0 102.4 C 317.5 103.1 320.2 100.7 318.7 102.1 C 318.7 102.0 317.2 103.2 317.7 103.1 C 315.9 104.6 315.0 105.6 313.2 106.6 C 315.3 105.1 313.6 106.0 313.0 106.4 C 312.6 106.7 311.9 107.3 311.9 107.3 C 312.0 107.4 313.0 106.6 313.2 106.6 C 311.7 107.6 311.5 108.2 310.8 108.4 C 311.5 108.0 311.5 107.8 310.7 108.3 C 310.8 108.8 306.0 111.6 307.5 110.4 C 307.6 110.5 309.3 109.3 309.5 109.1 C 308.9 109.3 306.3 111.2 306.7 110.6 C 308.3 109.6 308.3 109.8 310.0 108.5 C 310.1 108.3 311.1 107.5 311.6 106.9 C 309.0 108.9 308.4 109.6 307.9 109.6 C 306.6 110.5 307.6 110.2 305.4 111.5 C 302.2 113.4 304.7 111.6 303.8 112.0 C 301.0 113.9 302.0 113.6 303.4 113.1 C 301.1 114.4 300.5 115.0 297.5 116.5 C 297.5 116.3 297.9 116.0 298.9 115.4 C 299.0 115.4 301.5 114.2 301.2 114.2 C 300.8 114.0 298.8 115.0 295.6 116.6 C 296.5 116.5 296.5 116.3 293.2 117.9 C 293.9 118.0 291.5 118.6 291.5 118.9 C 291.7 118.9 293.0 118.3 294.1 117.7 C 294.1 117.9 293.7 118.2 292.6 118.8 C 291.8 119.0 291.3 119.4 289.2 120.3 C 288.9 120.2 290.4 119.5 290.7 119.2 C 289.5 119.7 289.3 119.9 288.1 120.5 C 287.0 120.7 287.0 120.4 286.9 120.0 C 288.3 119.4 290.4 118.5 288.6 119.1 C 293.6 116.8 288.5 119.5 290.4 118.7 C 292.4 117.4 291.5 118.4 294.6 116.8 C 295.5 116.3 295.8 116.1 296.1 115.8 C 295.9 115.9 294.0 116.6 296.0 115.5 C 296.5 115.4 297.7 115.0 299.2 114.2 C 299.2 114.1 295.9 115.7 299.1 114.0 C 300.6 113.2 299.4 114.2 301.5 113.0 C 301.4 112.9 302.0 112.6 302.1 112.5 C 299.2 114.2 302.6 112.0 300.5 113.0 C 303.0 111.4 301.1 113.0 302.8 112.0 C 302.7 111.8 305.5 110.5 305.4 110.2 C 304.5 110.9 302.4 112.1 302.6 111.7 C 304.5 110.7 312.1 105.2 309.3 107.6 C 310.3 106.7 315.1 102.5 314.8 103.0 C 313.4 104.1 313.6 104.2 313.4 104.5 C 316.0 102.1 317.5 101.1 319.6 98.3 C 317.0 101.0 318.7 98.7 316.9 100.2 C 316.1 100.9 315.0 101.8 314.9 102.0 C 315.4 101.9 316.6 100.7 316.9 100.2 C 317.1 100.4 317.2 100.5 317.4 100.7 C 314.1 103.5 312.1 105.2 310.3 106.4 C 311.8 105.3 307.1 108.3 308.9 107.0 C 309.7 106.6 311.6 105.2 313.1 104.1 C 313.0 104.0 313.0 104.0 312.9 103.9 C 313.6 103.4 314.5 102.7 314.5 102.5 C 312.6 104.2 311.3 104.8 310.0 106.1 C 310.0 106.0 309.9 106.0 309.9 105.9 C 309.6 106.2 309.2 106.4 309.3 106.3 C 310.0 105.8 311.0 105.1 311.0 104.9 C 309.5 106.0 309.0 106.0 307.2 107.3 C 307.5 106.7 304.9 108.1 307.5 106.2 C 308.0 106.1 309.5 105.2 309.5 105.4 C 310.3 104.9 311.7 103.7 312.3 103.1 C 311.5 103.5 310.0 104.6 309.8 104.4 C 310.9 103.5 311.8 102.7 312.6 102.4 C 310.4 104.3 313.9 101.5 314.9 101.0 C 314.6 101.1 314.1 101.5 313.7 101.6 C 315.4 100.2 316.2 99.6 316.1 99.3 C 317.8 97.4 317.6 98.0 318.8 96.7 C 317.8 97.4 319.4 95.8 318.4 96.4 C 320.3 94.3 319.2 96.0 319.9 95.3 C 320.4 94.6 320.4 94.5 320.9 93.8 C 321.8 93.0 323.1 91.0 323.6 90.9 C 324.1 90.1 324.3 90.0 324.7 89.1 C 324.8 88.9 324.9 88.5 325.0 88.1 C 325.2 88.0 325.6 87.4 325.6 87.2 C 324.1 89.4 324.5 88.7 322.6 91.0 C 322.6 91.3 322.4 91.6 322.8 91.1 C 321.8 92.9 321.2 93.2 320.1 94.7 C 319.8 94.7 319.3 94.8 318.2 96.3 C 318.3 95.8 318.0 96.1 318.4 95.5 C 319.1 94.9 320.0 94.0 320.8 93.1 C 320.8 92.9 320.6 93.0 321.0 92.5 C 321.4 92.1 322.0 91.4 322.3 90.7 C 322.4 90.8 322.3 91.1 322.2 91.4 C 323.8 89.2 323.0 89.8 324.1 88.2 C 323.8 88.4 323.2 89.4 323.6 88.5 C 324.4 86.9 324.6 86.6 325.1 85.9 C 325.1 85.7 324.9 85.8 325.1 85.3 C 325.8 84.3 324.5 88.0 325.6 86.1 C 325.5 85.9 326.3 84.1 326.6 83.8 C 326.5 84.5 325.8 85.5 325.9 85.7 C 327.5 82.2 326.6 85.8 327.7 82.2 C 327.6 82.1 327.5 82.1 327.4 82.1 C 327.0 83.5 326.8 83.5 326.6 83.3 C 326.1 84.6 325.7 84.9 325.4 86.0 C 325.1 85.4 325.8 85.0 326.3 83.7 C 326.0 83.7 325.6 84.8 325.3 84.9 C 326.7 82.1 326.5 81.5 327.3 78.8 C 326.9 79.4 327.4 77.3 327.2 77.4 C 327.1 79.8 326.4 78.7 326.3 79.0 C 326.1 80.6 326.6 80.0 326.5 80.9 C 326.2 81.3 326.1 81.0 325.9 80.7 C 326.3 79.4 326.2 79.6 326.2 78.6 C 326.5 77.7 327.1 77.0 327.1 78.3 C 327.0 78.0 327.1 76.2 327.3 76.1 C 327.2 77.8 327.4 75.9 327.4 76.9 C 327.7 75.6 327.4 73.2 327.3 71.6 C 327.2 71.8 327.1 71.2 327.0 71.2 C 327.5 72.8 326.9 73.2 327.0 74.7 C 326.9 74.1 326.8 74.5 326.7 74.8 C 326.8 73.2 326.5 72.4 326.6 71.3 C 326.5 71.3 326.4 71.3 326.3 71.3 C 326.2 69.5 326.2 69.7 325.6 68.3 C 325.5 67.8 326.2 68.4 326.5 68.5 C 326.2 67.9 325.3 65.3 325.6 66.9 C 325.1 65.4 325.5 65.6 324.8 64.1 C 324.6 64.2 325.2 65.6 324.7 65.2 C 324.1 63.8 324.7 64.5 324.0 63.4 C 324.1 63.3 324.3 63.2 323.6 62.0 C 323.9 62.9 323.5 61.9 323.1 61.6 C 323.4 62.2 323.6 62.7 323.7 63.0 C 322.7 60.8 322.3 60.4 321.0 58.7 C 321.7 59.2 321.1 58.1 322.0 59.3 C 321.1 58.2 320.3 56.7 319.7 56.2 C 320.2 56.9 321.0 58.0 321.2 58.5 C 318.6 55.1 316.7 53.5 313.6 50.2 C 314.2 50.7 314.9 51.5 315.1 51.5 C 314.7 51.1 314.1 50.6 314.2 50.5 C 315.3 51.6 316.3 52.6 317.0 53.1 C 317.8 54.1 316.3 52.7 317.2 53.7 C 317.5 53.8 319.0 55.7 318.6 54.8 C 317.0 53.3 315.5 51.5 315.0 50.6 C 313.0 49.3 314.7 50.8 312.5 49.5 C 312.6 49.4 312.2 49.0 311.6 48.5 C 312.0 49.2 309.6 47.1 309.3 46.9 C 310.4 47.5 314.0 50.2 312.4 48.5 C 312.8 49.7 308.3 45.1 309.0 46.2 C 306.5 44.5 307.6 44.8 306.0 44.1 C 306.0 44.0 306.2 44.0 305.5 43.5 C 304.8 43.0 304.5 42.9 304.1 42.8 C 307.9 45.3 306.5 44.9 308.7 46.6 C 308.4 46.3 308.0 46.0 308.1 46.2 C 308.1 46.2 308.0 46.2 307.5 45.8 C 307.5 45.4 305.6 44.6 305.1 44.0 C 305.9 44.5 306.6 45.0 306.4 44.7 C 303.4 42.7 304.2 42.8 299.5 39.9 C 300.8 40.8 298.9 39.8 297.2 38.9 C 294.8 37.5 295.9 37.7 292.8 36.1 C 292.8 36.9 289.5 34.5 285.2 33.0 C 285.5 33.0 284.3 32.3 282.8 31.7 C 281.3 31.1 280.6 30.8 280.2 30.8 C 280.2 30.7 278.9 30.2 278.0 29.9 C 277.9 29.7 278.9 30.0 278.1 29.7 C 277.3 29.5 278.0 30.0 276.9 29.6 C 275.8 29.1 276.1 28.9 274.2 28.3 C 274.1 28.5 275.1 28.8 274.1 28.6 C 272.5 27.9 271.1 27.4 272.3 28.1 C 269.9 27.4 271.3 27.3 269.0 26.6 C 269.6 26.9 269.5 27.0 268.3 26.6 C 267.5 26.2 267.5 26.1 267.2 25.9 C 266.5 25.9 266.7 26.0 264.8 25.3 C 264.8 25.4 264.7 25.5 264.7 25.6 C 263.9 25.3 262.5 25.0 262.3 24.8 C 264.0 25.4 263.6 25.0 264.2 25.1 C 262.6 24.6 259.5 23.5 261.8 24.4 C 259.5 23.9 260.7 23.9 258.8 23.4 C 259.9 24.0 258.9 23.5 257.0 23.0 C 257.0 23.4 255.7 22.7 254.4 22.4 C 254.6 22.7 254.3 22.7 253.2 22.4 C 253.2 22.3 252.5 22.1 251.3 21.8 C 251.3 21.9 253.9 22.7 251.2 22.1 C 250.0 21.7 250.1 21.4 248.1 20.9 C 247.7 20.6 249.9 21.2 249.5 20.8 C 247.8 20.7 247.4 20.4 245.0 19.8 C 245.9 20.5 240.1 19.4 242.9 20.2 C 242.1 20.0 240.9 20.1 240.3 19.7 C 241.2 19.9 239.6 19.3 239.7 19.3 C 238.5 19.1 235.9 18.5 235.8 18.6 C 238.3 19.0 238.3 19.3 239.0 19.6 C 235.3 19.0 232.1 18.3 232.4 18.1 C 232.4 18.2 231.9 18.1 231.7 18.2 C 233.0 18.3 233.8 18.9 232.3 18.7 C 232.7 18.5 231.6 18.2 230.4 17.9 C 230.3 18.2 225.5 17.1 226.3 17.5 C 228.3 17.6 229.8 18.3 228.3 18.2 C 227.1 17.8 224.4 17.2 225.0 17.1 C 224.3 17.1 223.6 17.1 223.0 17.0 C 222.3 17.2 223.9 17.4 223.6 17.5 C 222.6 17.4 221.1 17.2 220.9 17.1 C 223.6 17.4 219.5 16.7 222.3 17.0 C 220.6 16.7 220.2 16.5 218.9 16.3 C 218.9 16.4 218.3 16.4 218.2 16.4 C 219.4 16.4 220.6 16.7 220.2 16.9 C 217.7 16.6 218.2 16.4 216.1 16.1 C 215.5 16.2 212.6 16.2 211.2 15.9 C 214.0 16.2 211.0 15.8 212.7 15.8 C 215.1 16.3 215.8 16.1 216.8 16.0 C 215.8 15.7 213.7 15.4 213.4 15.7 C 214.7 15.8 214.7 15.7 215.5 15.7 C 215.4 15.9 215.0 16.0 214.0 15.9 C 212.9 15.6 210.3 15.5 212.0 15.3 C 210.3 15.3 208.3 14.9 206.5 14.9 C 208.5 15.1 210.0 15.3 210.6 15.6 C 208.9 15.5 207.2 15.1 207.1 15.2 C 207.3 15.5 210.0 15.7 210.5 15.9 C 208.4 15.9 205.1 14.9 207.8 15.7 C 206.6 15.5 204.9 15.4 204.3 15.2 C 205.8 15.3 204.2 14.9 203.6 14.8 C 202.3 14.7 201.3 14.6 200.8 14.7 C 202.8 14.7 204.3 15.2 202.9 15.1 C 202.6 14.9 202.1 15.1 201.5 15.1 C 201.4 14.9 199.1 14.8 198.7 14.7 C 198.9 14.8 199.9 14.9 200.1 15.0 C 198.8 15.0 196.8 15.2 195.9 14.8 C 196.7 14.9 197.9 15.0 198.0 14.9 C 194.4 14.3 193.2 13.9 188.9 13.5 C 189.4 13.5 189.7 13.5 189.6 13.4 C 186.8 13.2 185.0 13.1 185.4 12.9 C 183.6 12.9 182.7 13.0 181.8 13.1 C 183.6 13.3 184.2 13.1 185.3 13.3 C 184.6 13.3 186.7 13.8 187.5 14.0 C 190.5 13.9 190.7 14.3 193.8 14.4 C 192.9 14.6 196.1 14.6 195.1 14.8 C 192.3 14.2 189.5 14.3 185.3 14.0 C 185.9 13.8 186.4 13.7 184.6 13.5 C 181.9 13.3 183.2 13.7 181.0 13.6 C 180.1 13.3 181.5 13.3 180.3 13.2 C 179.6 13.3 177.5 13.2 176.8 13.0 C 179.7 13.1 176.3 12.8 178.2 12.7 C 177.2 12.7 176.7 12.6 176.0 12.6 C 178.9 12.9 173.2 12.9 175.3 13.1 C 171.4 13.2 175.1 12.5 171.8 12.5 C 173.4 12.7 171.3 12.8 168.9 12.8 C 168.3 12.5 165.9 12.5 163.9 12.4 C 165.0 12.6 165.7 12.6 163.9 12.7 C 164.9 12.8 166.6 12.8 167.5 12.7 C 167.5 12.8 167.8 12.9 168.3 12.9 C 165.9 13.0 166.9 13.1 166.1 13.2 C 165.4 13.1 163.7 13.1 163.3 13.0 C 163.3 13.1 162.6 13.1 162.6 13.2 C 165.5 13.1 162.1 13.5 164.0 13.5 C 165.3 13.5 164.4 13.3 166.1 13.3 C 167.7 13.6 164.8 13.6 164.0 13.9 C 165.3 14.0 167.0 13.7 167.5 14.0 C 165.7 14.3 162.8 14.1 160.4 14.1 C 160.6 14.4 156.5 14.1 156.2 14.5 C 155.8 14.5 155.4 14.4 154.8 14.4 C 154.1 14.6 153.3 14.3 152.6 14.4 C 152.6 14.5 152.8 14.6 153.3 14.7 C 150.4 14.6 149.7 14.7 146.3 15.0 C 145.7 14.9 145.1 14.8 144.8 14.6 C 145.7 14.5 146.4 14.4 147.0 14.3 C 142.3 14.6 145.3 15.1 142.0 14.9 C 142.2 15.0 144.5 15.1 142.7 15.3 C 139.8 15.2 135.7 15.9 135.7 15.2 C 133.1 15.2 131.4 15.8 130.2 15.6 C 129.4 15.7 129.1 15.8 128.8 16.0 C 129.6 16.0 130.6 16.0 131.6 16.1 C 133.1 15.8 133.8 15.9 132.3 15.7 C 134.6 15.5 135.2 15.6 136.5 15.6 C 133.3 16.1 130.4 16.1 130.3 16.5 C 129.2 16.5 128.3 16.4 127.4 16.3 C 127.1 16.5 123.6 17.1 123.3 16.8 C 125.7 16.6 128.2 16.0 126.0 16.1 C 120.1 17.0 116.8 17.0 111.7 18.1 C 111.6 18.0 112.0 17.7 111.0 17.9 C 111.1 18.0 110.9 18.1 110.4 18.3 C 108.8 18.5 107.9 18.6 105.8 19.0 C 105.8 18.7 105.5 18.6 104.3 18.8 C 103.7 19.1 101.7 20.0 100.5 20.2 C 101.7 19.9 100.0 19.9 99.1 20.1 C 100.0 20.3 93.3 21.1 95.3 21.0 C 92.6 21.6 91.5 21.7 91.4 21.6 C 90.5 21.9 89.8 22.1 88.9 22.4 C 88.3 22.2 83.9 23.5 83.3 23.5 C 84.8 23.3 85.0 22.8 83.8 23.2 C 83.0 23.6 79.1 24.8 78.4 25.0 C 78.6 24.8 78.8 24.5 80.7 23.9 C 77.5 24.7 77.6 25.1 76.6 25.7 C 76.7 25.3 75.3 26.0 74.8 26.2 C 73.8 26.3 74.9 26.1 74.8 25.9 C 73.6 26.2 73.2 26.2 71.8 26.6 C 72.3 26.8 70.6 27.2 70.0 27.3 C 69.9 27.5 69.1 27.9 67.8 28.4 C 69.4 27.4 60.6 30.5 62.7 30.0 C 61.1 30.9 60.9 30.4 58.8 31.3 C 58.4 31.6 57.2 32.0 58.3 31.7 C 57.5 32.1 56.6 32.4 56.3 32.5 C 55.9 32.6 55.4 32.7 53.8 33.5 C 55.4 33.1 50.6 34.8 51.5 34.9 C 49.9 35.1 47.6 36.8 45.0 37.7 C 45.1 37.8 44.4 38.2 44.3 38.3 C 44.0 38.6 47.3 36.9 45.2 38.1 C 42.6 39.3 43.9 38.5 43.5 38.5 C 36.8 42.3 30.0 46.9 25.3 51.0 C 26.0 50.6 26.0 50.7 25.1 51.6 C 23.4 52.5 19.2 57.7 18.8 58.6 C 18.2 58.9 16.8 61.7 16.4 62.1 C 16.8 61.6 17.1 60.4 16.5 61.5 C 16.4 62.4 15.7 63.2 15.4 64.3 C 14.9 64.7 14.0 68.0 14.0 66.4 C 13.8 67.0 13.7 67.4 13.5 67.7 C 13.8 67.8 13.5 68.5 14.0 67.4 C 12.9 70.2 13.1 71.0 12.7 73.2 C 12.8 73.6 13.1 71.9 13.0 73.2 C 13.0 73.2 12.9 73.2 12.9 73.2 C 12.8 73.7 12.9 73.9 12.8 74.1 C 12.7 74.0 12.8 73.2 12.5 73.2 C 12.5 74.3 12.2 75.0 12.4 75.4 C 12.4 73.9 12.9 74.9 12.7 75.9 C 12.5 75.0 13.0 79.4 13.5 80.8 C 13.4 81.5 13.1 79.3 13.0 79.5 C 13.5 82.1 13.5 81.9 13.8 82.1 C 14.2 83.5 14.2 84.1 15.1 85.7 C 15.4 86.7 14.6 85.2 15.1 86.3 C 15.4 86.8 15.7 87.0 16.2 87.9 C 17.0 90.6 22.0 95.7 24.2 98.9 C 23.2 97.7 24.8 99.0 26.3 100.5 C 26.4 100.6 26.1 100.5 26.7 101.1 C 26.7 100.8 27.3 101.3 28.4 102.2 C 28.4 102.3 28.1 102.3 28.7 102.8 C 29.4 102.9 30.7 104.3 31.7 104.8 C 31.9 105.4 29.5 103.4 29.2 103.4 C 32.0 105.8 32.7 105.9 35.2 107.6 C 33.8 106.8 36.0 108.4 36.3 108.7 C 35.9 108.1 38.0 109.3 36.6 108.3 C 37.6 108.9 39.1 109.8 39.3 110.0 C 38.7 109.7 37.9 109.1 37.8 109.2 C 39.1 109.9 40.6 111.1 41.4 111.3 C 40.5 110.7 40.0 110.4 40.0 110.2 C 40.4 110.3 40.9 110.5 41.6 110.9 C 39.3 110.3 45.5 113.3 46.0 113.4 C 46.4 114.0 46.8 114.2 46.5 114.2 C 49.2 115.6 49.0 115.2 50.7 115.9 C 50.1 116.0 49.4 115.9 52.1 117.2 C 51.6 116.7 54.9 118.2 54.1 117.4 C 61.3 120.4 61.0 120.6 63.8 121.5 C 63.9 121.5 63.0 121.1 63.8 121.4 C 65.1 122.0 66.3 122.5 67.1 122.9 C 67.9 123.0 66.9 122.6 67.8 122.8 C 69.8 123.7 69.2 123.8 71.1 124.6 C 73.5 125.2 72.6 125.1 74.1 125.3 C 73.5 125.0 72.7 124.7 73.6 124.9 C 75.0 125.6 75.5 126.0 75.8 126.2 C 74.8 125.9 74.0 125.6 73.4 125.4 C 73.0 125.4 71.6 125.0 72.8 125.5 C 71.3 125.0 69.6 124.4 67.5 123.7 C 68.1 124.2 65.6 123.1 66.2 123.6 C 68.6 124.4 69.1 124.7 71.5 125.4 C 71.0 125.0 73.4 125.9 73.9 126.1 C 73.9 125.9 75.5 126.5 75.2 126.2 C 77.0 126.7 76.9 126.8 78.8 127.3 C 78.9 127.4 78.6 127.5 79.3 127.7 C 80.0 127.6 80.5 128.1 81.1 128.3 C 80.8 127.9 83.5 128.8 83.7 128.6 C 83.0 128.4 81.9 128.2 81.8 128.1 C 84.8 128.9 82.5 128.0 81.9 127.7 C 82.0 127.8 80.9 127.8 80.7 127.6 C 83.3 128.1 77.3 126.2 79.5 126.9 C 81.4 127.5 81.3 127.3 83.3 127.9 C 85.4 128.9 82.6 128.4 84.9 129.4 C 86.3 129.5 87.3 129.8 87.5 129.6 C 87.8 129.8 88.1 129.9 88.7 130.1 C 89.3 130.1 86.9 129.4 88.7 129.8 C 89.7 130.1 88.5 130.2 90.6 130.6 C 91.5 130.6 88.2 129.8 90.0 130.1 C 91.9 131.0 89.6 129.9 91.9 130.4 C 92.1 130.5 92.5 130.6 93.2 130.8 C 93.3 130.9 93.0 131.0 93.8 131.2 C 94.3 130.9 94.6 131.6 96.4 131.9 C 97.4 131.8 94.6 131.3 95.2 131.2 C 97.1 131.9 98.3 131.8 99.1 132.0 C 97.4 131.9 101.5 132.7 101.6 132.9 C 101.2 132.6 102.1 132.9 104.4 133.0 C 104.4 133.5 107.1 133.7 107.6 134.1 C 108.0 134.0 108.6 134.1 109.0 134.0 C 108.2 133.9 107.4 133.7 107.7 133.6 C 108.4 133.7 109.0 133.8 109.7 134.0 C 110.8 134.3 107.8 134.4 112.3 135.0 C 111.9 134.6 113.8 134.9 115.1 135.0 C 115.0 134.7 113.3 134.7 113.1 134.5 C 114.6 134.6 116.2 135.0 117.1 135.3 C 119.8 135.5 122.9 136.1 126.8 136.4 C 127.7 136.7 123.5 136.2 126.1 136.7 C 127.2 136.8 126.6 136.5 128.1 136.7 C 126.7 137.6 138.6 137.9 139.4 138.4 C 139.9 138.3 143.2 138.6 142.9 138.3 C 140.6 138.4 139.1 137.9 138.0 137.7 C 135.8 137.6 139.9 138.1 137.9 138.0 C 137.7 137.8 134.9 137.7 135.1 137.5 C 138.2 137.8 133.6 137.1 135.9 137.1 C 138.7 137.4 144.3 137.5 142.9 137.7 C 143.0 137.6 141.7 137.5 141.6 137.6 C 144.7 138.0 146.6 137.9 147.9 137.8 C 149.4 138.1 155.1 138.0 153.6 138.1 C 154.1 138.3 150.2 137.9 150.8 138.1 C 156.7 138.5 156.8 138.3 160.7 138.6 C 159.5 138.2 164.8 138.2 164.3 138.3 C 164.3 138.6 165.5 138.8 167.9 138.5 C 167.5 138.8 168.8 138.8 170.0 138.9 C 170.6 138.7 169.0 138.7 169.3 138.5 C 170.5 138.5 171.7 138.5 172.9 138.5 C 173.0 138.6 172.8 138.7 173.6 138.7 C 174.9 138.6 179.7 138.3 179.3 138.4 C 177.3 138.8 182.6 138.6 179.3 138.9 C 180.2 138.9 180.3 139.0 181.5 138.9 C 181.5 138.8 181.5 138.7 181.5 138.6 C 184.1 138.5 182.8 138.9 185.1 138.9 C 185.3 138.8 186.2 138.7 186.5 138.6 C 185.6 138.6 185.5 138.7 184.3 138.7 C 185.7 138.3 182.0 138.6 182.2 138.3 C 184.7 138.2 184.7 138.5 185.7 138.5 C 188.9 138.2 187.4 138.4 190.7 138.3 C 190.7 138.2 189.8 138.2 190.0 138.1 C 194.1 138.0 193.7 138.5 196.4 138.1 C 195.8 138.2 193.3 138.5 195.1 138.4 C 196.9 138.2 197.4 137.9 199.9 137.7 C 200.1 137.8 199.9 137.9 200.7 137.9 C 201.7 137.7 201.8 137.5 202.7 137.3 C 202.9 137.4 204.3 137.2 204.8 137.1 C 205.8 137.3 204.5 137.4 205.6 137.4 C 207.7 137.2 208.7 136.5 210.4 136.4 C 210.4 136.8 212.3 136.5 214.0 136.2 C 214.3 136.5 217.8 136.0 220.2 135.8 C 219.6 135.6 222.0 135.4 221.5 135.2 C 220.3 135.3 219.7 135.4 219.5 135.3 C 222.1 134.9 223.0 135.3 224.9 134.6 C 225.9 134.6 227.2 134.6 229.0 134.4 C 229.2 134.2 225.8 134.6 227.6 134.3 C 227.8 134.4 228.4 134.2 229.0 134.1 C 228.7 134.4 230.2 134.2 231.1 134.2 C 232.6 133.8 235.9 133.5 234.4 133.5 C 236.8 133.0 235.3 133.7 237.2 133.4 C 236.1 133.2 239.4 132.6 237.7 132.7 C 240.2 132.2 240.1 132.6 239.1 132.9 C 241.4 132.6 241.9 132.2 243.1 132.1 C 241.9 132.1 245.4 131.3 243.6 131.8 C 243.1 132.2 245.8 131.4 246.3 131.5 C 245.4 131.5 246.6 131.2 245.0 131.4 C 246.7 131.0 249.1 130.4 250.8 130.3 C 252.8 129.6 254.8 129.1 253.9 129.6 C 255.9 129.0 255.1 129.2 257.1 128.8 C 257.1 128.7 256.5 128.8 256.4 128.8 C 259.1 128.1 258.6 128.4 262.0 127.4 C 261.7 127.8 263.9 127.2 264.6 127.2 C 263.2 127.6 262.0 127.8 260.9 128.1 C 260.7 128.3 261.8 128.0 260.9 128.3 C 260.8 128.3 260.2 128.4 259.7 128.5 C 262.0 128.1 256.9 129.7 258.5 129.0 C 258.5 129.0 258.6 129.1 259.1 128.9 C 258.6 128.8 258.6 128.9 259.0 128.5 C 257.9 128.9 256.9 128.8 256.5 129.2 C 256.6 129.3 257.7 129.0 257.8 129.0 C 255.0 129.9 256.9 128.9 254.6 129.6 C 254.2 130.0 255.4 129.7 256.0 129.7 C 253.9 130.3 252.1 130.7 251.5 130.7 C 249.6 131.2 251.7 130.8 250.3 131.3 C 249.6 131.3 249.7 131.1 248.3 131.4 C 246.9 131.9 249.2 131.4 247.8 131.8 C 246.1 132.0 248.8 131.2 246.3 131.7 C 247.0 131.9 244.2 132.1 244.4 132.3 C 245.8 131.9 245.9 132.3 245.1 132.2 C 241.9 132.6 239.8 133.9 236.5 133.9 C 236.6 134.0 236.0 134.1 235.9 134.2 C 238.4 133.9 241.9 133.2 242.6 133.5 C 244.5 133.0 244.2 132.8 244.5 132.7 C 246.8 132.5 246.6 132.6 245.3 133.2 C 241.6 134.1 239.9 134.2 237.4 134.6 C 236.1 135.0 237.5 134.6 238.1 134.7 C 230.2 135.9 236.3 135.5 233.5 135.9 C 233.5 135.8 232.9 135.8 232.1 135.9 C 232.1 136.0 230.9 136.2 230.7 136.3 C 231.3 136.2 231.6 136.2 231.4 136.4 C 229.5 136.8 230.2 136.4 230.1 136.3 C 231.6 136.0 232.6 135.8 232.7 135.6 C 230.8 136.1 229.2 136.1 228.0 136.6 C 226.1 136.5 228.9 135.7 227.9 135.6 C 228.2 135.4 226.7 136.4 225.2 136.8 C 222.8 137.1 222.7 137.4 220.4 137.7 C 219.8 137.5 222.7 137.3 222.5 137.1 C 221.8 137.2 221.7 137.1 221.1 137.2 C 219.5 137.4 219.6 137.6 218.3 137.9 C 217.6 137.7 217.3 137.9 216.3 138.1 C 214.7 138.2 217.2 137.8 215.5 138.0 C 213.8 138.1 212.6 138.6 212.1 138.6 C 212.0 138.5 212.2 138.4 211.4 138.4 C 209.4 138.8 209.0 138.9 211.4 138.8 C 209.2 139.0 208.3 139.1 208.7 139.4 C 211.9 139.1 212.8 138.9 214.3 139.1 C 214.9 138.7 215.9 138.8 217.1 138.7 C 216.3 138.4 218.5 138.6 219.2 138.2 C 218.3 138.3 217.5 138.4 217.0 138.3 C 220.5 137.9 220.4 138.0 223.2 137.2 C 223.2 137.3 223.6 137.3 223.9 137.4 C 223.0 137.6 220.5 137.9 220.5 138.1 C 222.5 138.1 223.1 137.6 225.4 137.6 C 226.3 137.2 223.5 137.5 225.3 137.2 C 226.2 137.3 227.4 137.2 228.8 137.1 C 230.2 136.8 230.9 136.6 232.1 136.3 C 232.3 136.4 232.4 136.5 233.5 136.2 C 233.4 136.2 232.3 136.3 233.5 136.0 C 237.1 135.7 239.5 135.5 242.9 134.6 C 241.7 134.8 238.8 135.1 240.2 134.8 C 241.8 134.7 243.8 134.0 245.5 133.8 C 246.0 133.8 243.5 134.2 244.2 134.4 C 245.7 134.1 246.7 133.9 247.5 133.8 C 247.4 133.7 249.2 133.3 248.7 133.2 C 247.5 133.5 247.1 133.8 246.8 133.8 C 247.7 132.9 251.6 133.0 254.0 132.4 C 255.5 131.9 252.7 132.4 254.5 131.9 C 255.6 131.5 256.4 131.9 254.6 132.5 C 253.4 132.6 253.0 133.1 252.7 132.9 C 252.2 133.0 251.4 133.2 251.5 133.2 C 252.3 133.1 252.2 133.2 252.8 133.2 C 251.5 133.4 251.4 133.9 250.2 133.9 C 251.0 133.7 251.2 133.6 251.5 133.5 C 248.1 134.4 246.9 134.4 244.9 134.7 C 246.1 134.6 244.9 134.8 245.0 135.0 C 246.5 134.6 249.4 134.1 247.7 134.6 C 246.4 134.6 245.6 135.5 244.4 135.5 C 245.3 135.3 245.2 135.1 245.7 135.0 C 244.3 135.2 244.3 135.0 243.0 135.3 C 238.7 136.5 235.3 136.5 228.3 138.2 C 225.8 138.5 230.5 137.7 230.3 137.5 C 229.5 137.6 229.4 137.6 228.9 137.7 C 228.8 138.0 227.6 137.9 226.8 138.2 C 226.9 138.0 223.6 138.7 222.0 138.7 C 221.9 138.8 222.1 138.9 221.3 139.0 C 216.2 139.4 206.9 140.8 203.0 140.8 C 203.2 141.0 201.4 141.2 201.0 141.3 C 198.5 141.5 199.6 141.2 196.0 141.7 C 194.1 141.9 196.3 141.5 196.6 141.4 C 191.2 141.9 186.4 141.8 183.0 142.2 C 181.2 142.4 183.0 142.1 179.4 142.1 C 179.3 142.5 173.7 142.0 172.9 142.4 C 170.8 142.5 166.8 142.0 168.6 142.4 C 165.6 142.4 167.6 142.0 166.4 142.0 C 164.3 142.0 167.0 142.6 165.0 142.6 C 165.2 142.4 163.4 142.5 162.1 142.2 C 163.7 142.3 164.8 142.2 165.0 142.1 C 163.6 142.2 163.6 142.0 161.4 142.0 C 159.7 142.1 154.8 142.2 153.5 141.8 C 153.4 141.9 153.8 142.0 154.2 142.0 C 152.7 142.0 151.1 141.7 151.3 142.0 C 148.1 141.9 146.7 141.5 144.8 141.6 C 143.4 141.6 145.3 141.4 141.2 141.1 C 141.2 141.4 133.9 140.8 132.0 140.4 C 131.9 140.7 131.6 140.3 130.7 140.2 C 130.5 140.3 130.7 140.5 129.9 140.4 C 129.8 140.3 129.1 140.3 128.5 140.2 C 129.0 139.9 125.9 140.1 125.7 139.8 C 126.3 139.8 126.4 139.6 125.8 139.5 C 125.5 139.8 122.6 139.0 123.0 139.3 C 123.6 139.4 125.5 139.6 125.0 139.8 C 122.2 139.5 123.4 139.3 121.5 139.1 C 121.7 139.2 122.7 139.4 121.5 139.3 C 119.6 139.0 121.4 139.3 120.2 138.9 C 119.2 138.8 117.3 138.8 116.6 138.7 C 116.8 138.7 116.3 138.5 116.0 138.4 C 112.4 137.8 104.5 136.8 101.1 135.8 C 100.9 135.8 100.1 135.7 100.4 135.9 C 98.4 135.4 98.5 135.5 96.5 135.0 C 96.4 135.1 96.4 135.2 96.4 135.3 C 93.7 134.9 96.2 134.9 94.5 134.6 C 94.2 135.1 93.5 134.2 91.9 133.8 C 91.7 133.9 90.9 133.8 91.1 134.0 C 88.7 133.4 88.9 133.1 86.7 132.7 C 87.2 132.9 87.4 133.7 87.1 133.9 C 86.8 133.7 86.1 133.4 85.2 133.2 C 86.4 133.2 86.0 132.2 82.9 131.7 C 84.6 132.0 85.2 132.3 84.8 132.4 C 82.5 131.8 81.7 131.4 79.8 130.9 C 79.4 131.1 80.8 131.5 80.2 131.6 C 79.7 131.5 79.5 131.5 79.6 131.6 C 77.5 131.0 77.5 130.8 75.2 130.3 C 75.3 130.1 75.8 130.3 76.5 130.6 C 76.5 130.3 76.5 130.2 77.8 130.5 C 78.0 130.7 77.1 130.8 79.0 131.2 C 79.1 131.1 79.1 130.9 79.1 130.8 C 77.7 130.4 74.6 129.3 74.2 129.3 C 74.9 129.6 75.9 130.0 75.3 130.1 C 73.0 129.3 72.4 128.8 70.6 128.1 C 67.3 127.1 61.7 125.1 62.3 125.7 C 60.4 124.9 61.1 125.1 59.4 124.5 C 59.8 124.9 57.5 123.8 57.6 124.1 C 59.7 124.8 59.0 124.6 61.1 125.3 C 61.0 125.4 60.6 125.4 59.8 125.2 C 59.7 125.0 58.9 124.7 57.6 124.2 C 57.8 124.3 58.9 125.0 57.5 124.5 C 57.4 124.4 57.1 124.2 56.4 124.0 C 56.5 123.8 56.5 123.7 56.6 123.6 C 57.3 123.8 58.3 124.1 58.9 124.2 C 58.3 124.0 58.3 123.9 57.8 123.7 C 57.6 123.7 57.3 123.6 56.2 123.2 C 55.2 122.8 54.2 122.3 54.0 122.4 C 55.5 123.0 56.5 123.5 54.8 122.9 C 54.6 122.7 52.2 121.6 51.3 121.4 C 54.3 122.8 53.1 122.3 54.7 123.3 C 51.0 121.8 51.6 121.7 47.7 120.0 C 47.7 119.8 47.8 119.6 48.8 120.0 C 46.5 118.4 40.9 116.0 39.3 115.0 C 40.4 115.7 41.9 116.2 40.1 115.2 C 40.1 115.3 38.8 114.5 38.5 114.5 C 37.7 114.5 39.1 115.6 40.3 116.6 C 38.9 115.8 38.6 115.7 37.3 114.9 C 37.0 114.6 38.5 115.0 36.9 114.0 C 36.3 114.2 33.9 112.3 33.2 112.2 C 34.3 112.8 35.0 113.4 33.8 112.7 C 34.1 112.7 31.9 111.4 31.9 111.2 C 33.7 112.3 34.3 112.4 35.4 113.1 C 34.0 112.2 36.6 113.6 34.2 112.1 C 33.1 111.5 32.4 111.4 30.0 109.7 C 29.2 109.1 30.1 109.4 29.0 108.6 C 29.1 109.0 26.6 107.3 28.3 108.2 C 27.4 107.6 27.0 107.2 26.6 106.8 C 27.6 107.9 22.1 103.7 22.7 104.5 C 23.0 104.3 22.9 103.8 22.7 103.5 C 21.5 102.9 20.5 101.7 18.3 99.3 C 18.1 99.6 17.9 98.9 17.0 97.9 C 16.7 97.8 17.4 98.8 16.8 98.1 C 15.9 96.8 15.9 96.7 15.8 96.4 C 15.1 95.5 14.6 94.8 14.3 94.4 C 14.2 94.4 14.4 94.7 14.5 95.0 C 12.3 91.5 11.1 89.8 9.9 86.8 C 10.3 88.1 10.8 88.2 10.3 87.2 C 10.0 86.6 9.8 86.0 9.5 85.7 C 9.6 86.5 9.6 86.2 9.1 84.6 C 8.5 83.3 8.9 85.3 8.5 84.2 C 8.3 83.0 8.6 83.7 8.5 83.1 C 8.4 82.5 8.2 82.0 8.1 81.4 C 8.2 82.5 7.9 81.4 7.6 80.4 C 8.0 81.1 7.9 80.6 7.6 78.7 C 7.7 78.5 7.9 79.5 7.8 78.7 C 7.8 78.3 7.3 76.8 7.5 75.5 C 7.6 75.9 7.6 76.1 7.7 76.0 C 7.5 74.6 7.9 73.5 8.1 72.3 C 7.7 73.5 7.6 72.8 7.4 73.3 C 7.7 72.1 7.7 70.5 8.1 69.5 C 7.7 71.4 8.6 69.7 8.8 68.6 C 8.6 68.2 8.3 70.2 8.1 69.5 C 8.1 68.9 8.7 67.6 8.7 66.9 C 8.5 66.9 8.5 67.7 8.3 67.9 C 8.6 66.9 8.1 68.2 8.3 67.3 C 8.7 66.9 8.5 66.2 8.7 65.7 C 9.0 65.0 9.8 63.7 9.9 63.1 C 9.8 63.1 9.5 64.0 9.4 64.1 C 10.3 61.1 11.1 60.4 12.4 57.8 C 12.7 57.5 13.0 57.1 13.6 56.3 C 13.4 56.3 13.7 55.8 14.1 55.2 C 14.9 54.2 15.9 53.2 17.1 51.9 C 17.0 52.3 16.5 53.0 18.1 51.2 C 18.2 51.0 17.5 51.8 18.0 51.1 C 18.1 51.1 18.5 50.7 18.5 50.5 C 18.5 50.5 18.4 50.5 18.4 50.4 C 17.9 51.0 17.5 51.4 17.1 51.9 C 17.0 51.8 16.8 51.8 16.4 52.2 C 18.2 49.9 18.4 50.4 19.6 48.9 C 20.1 48.9 20.6 48.5 19.7 49.9 C 20.8 48.6 21.6 47.7 21.8 47.2 C 20.3 48.7 20.6 48.0 20.1 48.3 C 21.0 47.4 21.0 47.3 21.4 46.8 C 22.7 45.9 20.5 48.2 22.8 46.2 C 20.9 47.5 24.1 44.7 25.4 43.8 C 25.1 43.9 24.7 44.2 25.3 43.6 C 28.6 40.7 28.9 41.6 30.9 39.7 C 30.8 40.0 31.9 39.2 32.4 39.0 C 30.5 40.4 30.0 40.7 29.3 41.3 C 29.5 41.3 30.0 41.0 30.6 40.6 C 30.5 40.5 31.0 40.1 31.9 39.6 C 32.4 39.1 32.0 39.0 33.5 37.8 C 33.6 37.8 33.5 38.0 34.3 37.5 C 35.0 36.9 33.8 38.2 37.3 36.1 C 36.6 36.3 36.2 36.4 36.4 36.1 C 38.1 35.0 37.7 35.3 40.1 33.9 C 41.2 33.8 38.7 35.3 38.2 35.8 C 39.7 34.9 40.9 33.9 42.7 33.2 C 41.3 33.8 42.5 32.9 44.1 32.0 C 45.5 31.4 44.1 32.4 45.9 31.6 C 47.2 30.8 47.9 30.3 46.5 30.8 C 49.7 29.4 48.8 29.5 51.6 28.3 C 51.7 28.4 51.0 28.8 49.9 29.2 C 50.1 29.2 49.8 29.4 50.8 29.0 C 51.7 28.5 53.1 27.8 54.7 27.1 C 56.2 26.5 57.1 26.0 57.8 25.7 C 60.4 25.1 63.2 23.5 65.9 22.8 C 64.9 23.4 69.4 21.7 70.8 21.5 C 71.6 21.2 74.0 19.9 73.1 20.4 C 73.4 20.7 75.0 20.0 76.3 19.8 C 76.2 19.7 76.2 19.6 76.2 19.5 C 79.0 18.7 79.6 18.8 80.6 18.7 C 84.0 17.6 87.9 17.0 92.1 15.8 C 93.3 15.8 94.2 15.6 96.8 15.2 C 96.7 15.0 98.8 14.5 100.7 14.2 C 100.2 14.0 102.0 13.8 102.0 13.6 C 100.2 13.9 100.8 13.5 99.9 13.6 C 102.3 13.4 103.4 12.7 105.3 12.6 C 103.0 13.1 102.3 13.6 102.1 14.0 C 104.8 13.4 106.3 13.3 106.8 13.4 C 107.0 13.2 106.7 13.1 106.1 13.1 C 107.0 12.9 107.9 12.8 108.8 12.6 C 109.1 12.7 107.8 13.0 108.8 12.9 C 109.5 12.7 110.2 12.5 110.8 12.3 C 111.7 12.4 109.8 12.7 109.5 12.8 C 113.2 12.3 111.5 12.1 113.5 11.7 C 114.1 11.8 114.0 12.1 115.7 11.9 C 116.3 11.6 116.5 11.4 118.4 11.1 C 119.6 11.0 118.4 11.5 119.8 11.3 C 120.0 11.2 120.6 11.2 121.2 11.1 C 121.1 11.0 121.7 10.9 122.5 10.7 C 122.8 10.8 124.1 10.6 124.6 10.5 C 124.8 10.6 127.0 10.6 127.5 10.4 C 127.5 10.3 126.2 10.5 126.1 10.4 C 127.7 10.2 128.8 10.1 129.6 9.9 C 130.1 10.4 132.7 9.7 135.9 9.7 C 137.9 9.3 135.5 9.3 138.0 9.0 C 139.6 9.0 137.7 9.2 138.1 9.4 C 138.5 9.4 140.9 9.4 140.9 9.2 C 140.9 9.1 139.7 9.2 139.5 9.2 C 141.4 8.8 141.3 9.1 142.4 9.1 C 142.2 8.9 143.5 8.8 143.7 8.6 C 148.9 8.1 148.9 8.6 151.0 8.7 C 151.0 8.6 152.2 8.6 152.4 8.5 C 150.9 8.6 148.9 8.5 150.9 8.4 C 150.6 8.5 153.6 8.2 153.8 8.2 C 153.5 8.0 151.6 8.2 152.3 7.9 C 155.1 7.7 154.0 8.2 156.0 7.9 C 156.2 8.1 155.0 8.1 154.5 8.2 C 155.4 8.2 156.6 8.1 156.7 8.2 C 155.6 8.3 155.7 8.5 155.2 8.7 C 156.6 8.4 159.2 8.5 157.4 8.3 C 160.3 8.2 163.0 8.0 161.0 7.8 C 163.4 7.7 162.0 8.1 163.9 7.9 C 163.7 8.2 163.1 8.3 164.6 8.5 C 164.9 8.3 166.2 8.3 166.1 8.1 C 169.5 8.0 170.5 8.3 171.9 8.5 C 170.6 8.2 172.3 8.5 174.0 8.2 C 175.1 8.4 174.1 8.7 176.9 8.6 C 173.9 8.2 180.4 8.6 179.1 8.2 C 182.6 8.4 182.6 8.4 186.3 8.6 C 185.9 8.8 185.0 8.9 183.4 8.8 C 184.5 8.7 180.3 8.5 180.5 8.7 C 180.5 8.7 180.5 8.8 180.5 8.8 C 183.3 8.9 185.1 9.0 186.3 9.2 C 186.8 9.0 188.1 9.0 187.7 8.7 C 190.3 9.1 193.0 8.8 194.2 9.2 C 193.3 9.1 192.4 9.1 192.7 9.3 C 193.8 9.3 195.0 9.3 194.9 9.1 C 192.8 8.9 192.4 8.8 191.3 8.9 C 192.2 8.8 189.2 8.5 191.3 8.5 C 191.3 8.9 195.6 8.6 194.2 8.8 C 191.9 8.8 196.8 9.2 197.0 9.3 C 197.0 9.3 197.0 9.3 197.0 9.3 Z M 243.6 135.1 C 245.6 134.6 243.1 134.9 241.6 135.2 C 242.1 135.2 242.3 135.3 242.3 135.4 C 242.9 135.2 243.5 135.1 243.6 135.1 C 243.6 135.1 243.6 135.1 243.6 135.1 Z M 221.5 135.3 C 220.9 135.7 224.2 135.1 225.6 134.9 C 225.2 134.9 224.8 134.9 225.6 134.8 C 224.1 134.8 223.7 135.3 221.5 135.3 C 221.5 135.3 221.5 135.3 221.5 135.3 Z M 142.9 138.7 C 143.4 138.7 144.8 138.7 145.0 138.8 C 145.8 138.9 145.6 138.7 145.7 138.6 C 147.4 138.7 145.3 139.0 147.9 139.0 C 148.9 138.6 143.5 138.2 142.9 138.7 C 142.9 138.7 142.9 138.7 142.9 138.7 Z M 169.6 12.0 C 170.7 12.2 168.3 12.4 168.9 12.6 C 172.9 12.4 169.9 12.1 175.4 12.2 C 175.0 12.2 174.6 12.1 174.7 12.0 C 172.1 12.1 171.9 12.3 172.5 11.8 C 171.3 11.8 171.0 12.3 169.6 12.0 C 169.6 12.0 169.6 12.0 169.6 12.0 Z M 220.3 16.3 C 219.9 16.2 219.6 16.1 219.6 16.0 C 218.0 15.9 218.3 16.0 216.2 15.7 C 216.4 16.0 218.5 16.3 220.3 16.3 C 220.3 16.3 220.3 16.3 220.3 16.3 Z M 326.2 70.0 C 326.3 70.3 326.4 70.6 326.4 70.9 C 326.5 70.6 327.0 71.4 326.6 69.9 C 326.5 69.8 326.6 70.1 326.6 70.4 C 326.5 70.1 326.3 69.4 326.2 69.6 C 326.3 69.9 326.3 70.0 326.2 70.0 C 326.2 70.0 326.2 70.0 326.2 70.0 Z M 308.5 106.4 C 310.7 104.5 304.6 108.1 308.5 106.4 C 308.5 106.4 308.5 106.4 308.5 106.4 C 308.5 106.4 308.5 106.4 308.5 106.4 Z M 314.9 105.0 C 315.0 105.1 315.4 104.6 315.4 104.6 C 317.2 103.1 315.6 104.7 316.6 103.9 C 317.9 102.6 315.7 104.2 317.3 102.6 C 316.9 102.8 315.9 104.1 314.9 105.0 C 314.9 105.0 314.9 105.0 314.9 105.0 Z M 28.5 41.6 C 26.8 42.9 26.6 43.5 26.4 43.9 C 27.5 43.0 28.5 42.4 28.9 42.2 C 31.0 40.5 27.4 43.1 27.0 43.3 C 27.1 43.0 28.6 41.8 28.5 41.6 C 28.5 41.6 28.5 41.6 28.5 41.6 Z M 23.4 45.8 C 22.8 46.4 22.0 47.3 22.1 47.5 C 22.9 46.7 23.1 46.6 23.2 46.7 C 24.0 45.8 22.8 46.6 23.4 45.8 C 23.4 45.8 23.4 45.8 23.4 45.8 Z M 33.8 38.4 C 33.0 38.9 33.4 38.9 33.3 39.0 C 34.6 38.2 34.8 38.2 36.1 37.4 C 36.1 37.3 36.1 37.3 36.0 37.2 C 34.9 37.8 34.9 38.0 34.0 38.5 C 33.9 38.5 33.9 38.4 33.8 38.4 C 33.8 38.4 33.8 38.4 33.8 38.4 Z M 19.2 50.3 C 16.8 52.8 16.2 54.2 15.3 56.1 C 16.6 54.2 17.6 52.2 18.9 51.0 C 20.3 49.4 18.3 51.4 18.3 51.3 C 18.3 51.2 18.8 50.7 19.2 50.3 C 19.2 50.3 19.2 50.3 19.2 50.3 Z M 8.0 73.9 C 7.8 74.4 8.2 75.5 8.2 77.1 C 8.3 76.8 8.3 76.5 8.4 76.5 C 8.4 74.3 8.0 75.6 8.0 73.9 C 8.0 73.9 8.0 73.9 8.0 73.9 Z M 10.7 87.0 C 11.3 88.4 10.5 86.3 11.0 86.9 C 10.3 85.4 9.8 83.8 9.6 83.9 C 10.3 85.5 10.4 85.8 10.7 87.0 C 10.7 87.0 10.7 87.0 10.7 87.0 Z M 16.1 96.1 C 17.4 97.5 15.9 95.3 16.6 95.8 C 16.1 95.2 16.1 95.4 16.0 95.4 C 15.7 95.0 15.5 94.6 15.0 93.9 C 15.2 94.5 16.5 96.1 16.1 96.1 C 16.1 96.1 16.1 96.1 16.1 96.1 Z M 78.3 20.0 C 77.2 20.4 77.6 20.5 75.3 21.1 C 78.8 20.1 77.0 21.4 81.6 20.0 C 80.9 20.1 81.3 19.9 81.6 19.9 C 83.3 19.3 79.9 20.2 81.5 19.5 C 80.2 19.9 81.0 20.0 79.8 20.3 C 78.4 20.5 77.5 20.6 78.3 20.0 C 78.3 20.0 78.3 20.0 78.3 20.0 Z M 81.7 20.2 C 83.0 20.0 82.9 19.5 83.5 19.6 C 84.1 19.4 84.0 19.4 84.1 19.3 C 83.6 19.4 83.5 19.4 83.5 19.3 C 82.4 19.7 81.3 20.1 81.7 20.2 C 81.7 20.2 81.7 20.2 81.7 20.2 Z M 70.1 23.6 C 72.1 22.9 72.7 22.9 73.7 22.4 C 74.5 22.5 75.0 21.8 76.1 21.8 C 78.1 21.1 76.6 21.5 76.1 21.5 C 78.0 20.8 76.6 21.6 78.6 20.9 C 78.8 20.6 76.3 21.4 76.6 21.0 C 75.1 21.4 75.1 21.6 74.2 22.0 C 73.5 22.2 73.7 22.0 73.5 21.9 C 71.8 22.5 71.9 22.3 70.5 22.8 C 70.2 23.1 70.8 23.0 72.4 22.4 C 70.8 23.0 70.2 23.4 68.3 23.9 C 69.5 23.2 63.6 25.2 64.2 25.4 C 65.8 24.9 65.3 24.8 65.9 24.6 C 68.0 24.1 69.3 23.6 70.1 23.6 C 70.1 23.6 70.1 23.6 70.1 23.6 Z M 35.0 38.6 C 34.4 38.9 33.8 39.2 32.9 39.8 C 32.7 39.7 33.9 38.9 32.7 39.5 C 31.3 40.4 31.1 40.7 30.2 41.4 C 30.8 41.1 33.8 39.4 32.3 40.5 C 32.9 40.3 33.8 39.7 35.1 38.9 C 33.5 39.5 37.2 37.6 38.7 36.7 C 38.3 36.5 41.3 35.3 42.3 34.5 C 41.3 34.8 38.4 36.7 37.1 37.5 C 37.7 37.1 33.4 39.1 35.0 38.6 C 35.0 38.6 35.0 38.6 35.0 38.6 Z M 86.7 18.8 C 87.0 18.6 88.4 18.2 87.3 18.5 C 87.9 18.2 89.1 18.1 88.5 17.8 C 89.2 17.7 89.8 17.5 90.4 17.4 C 90.2 17.6 88.4 17.9 89.2 18.0 C 90.5 17.6 90.0 17.8 91.8 17.4 C 90.9 17.9 91.9 17.6 91.3 18.1 C 91.7 17.9 93.3 17.5 93.1 17.4 C 95.6 16.9 92.5 17.8 95.8 17.1 C 95.8 17.3 93.4 17.8 92.6 17.9 C 92.2 18.2 96.7 17.1 99.1 16.7 C 96.9 16.9 98.6 16.3 99.6 15.9 C 100.4 15.8 99.7 16.1 101.0 16.0 C 102.2 15.8 102.7 15.5 103.1 15.6 C 104.0 15.4 103.5 15.3 103.6 15.1 C 105.2 14.9 104.1 15.4 106.4 15.0 C 104.6 14.9 106.6 14.5 109.7 14.1 C 109.5 14.0 108.5 14.2 108.3 14.1 C 108.8 13.8 110.6 13.9 111.1 13.9 C 112.2 13.6 111.4 13.6 110.4 13.8 C 111.0 13.6 111.7 13.4 112.4 13.3 C 109.0 13.8 103.7 14.7 97.6 15.6 C 98.8 15.6 97.4 15.9 95.6 16.2 C 95.3 16.1 96.1 15.9 96.9 15.7 C 94.7 15.9 95.0 16.5 91.7 17.0 C 90.0 17.3 93.7 16.4 91.7 16.7 C 90.5 17.0 89.7 17.4 89.1 17.3 C 87.0 17.9 86.5 18.3 83.4 19.1 C 85.2 18.8 86.2 19.1 88.0 18.5 C 88.0 18.5 87.2 18.7 86.7 18.8 C 86.7 18.8 86.7 18.8 86.7 18.8 Z M 23.3 46.8 C 22.4 47.6 22.1 48.1 21.8 48.2 C 20.4 49.7 22.2 48.2 22.5 48.0 C 23.2 47.3 23.3 47.0 23.3 46.8 C 23.3 46.8 23.3 46.8 23.3 46.8 Z M 152.0 141.3 C 154.7 141.5 154.2 141.2 156.4 141.2 C 154.6 141.1 154.2 140.9 151.3 140.8 C 151.2 141.0 151.2 141.2 152.0 141.3 C 152.0 141.3 152.0 141.3 152.0 141.3 Z M 29.0 42.4 C 30.4 41.1 27.5 44.0 27.4 43.8 C 25.8 45.2 29.0 42.7 27.6 44.1 C 28.9 42.9 29.9 42.4 31.8 41.0 C 31.6 40.9 30.0 41.9 28.6 43.0 C 28.3 43.1 29.1 42.5 29.0 42.4 C 29.0 42.4 29.0 42.4 29.0 42.4 Z M 124.4 138.4 C 122.6 138.4 126.1 139.0 127.2 139.3 C 127.3 139.0 126.7 138.9 124.4 138.4 C 124.4 138.4 124.4 138.4 124.4 138.4 Z M 170.7 141.3 C 171.8 141.0 167.5 141.3 168.6 141.0 C 167.3 141.0 167.2 141.0 167.1 141.1 C 166.5 141.1 164.4 141.1 165.0 140.9 C 164.6 140.7 168.2 141.0 167.1 140.7 C 168.3 140.6 168.4 140.7 169.3 140.8 C 167.2 140.7 168.2 141.0 170.7 141.1 C 170.7 140.9 169.6 140.9 170.7 140.8 C 170.9 140.9 172.2 141.0 172.2 141.4 C 174.4 141.4 173.1 141.0 175.7 141.0 C 175.5 140.8 173.8 140.8 172.9 140.7 C 173.1 140.5 175.7 140.9 175.0 140.6 C 175.6 140.8 177.1 140.8 177.2 141.1 C 175.2 141.2 173.8 141.4 172.2 141.5 C 173.7 141.7 175.9 141.1 178.6 141.3 C 178.3 141.1 179.9 141.1 179.4 140.9 C 181.5 140.9 180.5 141.2 180.1 141.3 C 180.7 141.4 184.7 141.2 184.4 141.0 C 184.7 141.2 189.6 140.9 189.4 140.6 C 190.9 140.7 193.1 140.2 193.7 140.5 C 194.5 140.4 196.2 140.3 198.0 140.2 C 198.5 139.9 195.4 140.2 195.2 140.0 C 194.6 139.9 198.5 139.9 198.0 139.7 C 198.0 139.6 198.0 139.6 198.0 139.5 C 196.5 139.7 195.1 139.9 193.7 140.1 C 192.6 140.1 194.0 139.9 193.7 139.8 C 192.7 140.0 188.1 140.6 188.0 140.1 C 184.9 140.4 182.7 140.4 181.5 140.6 C 179.7 140.6 182.5 140.4 181.5 140.3 C 176.1 140.8 169.5 140.4 165.0 140.7 C 164.0 140.7 164.4 140.5 164.2 140.4 C 158.1 140.5 163.3 140.9 158.5 140.7 C 158.5 140.4 160.8 140.5 160.7 140.3 C 159.0 140.3 158.6 140.4 156.3 140.3 C 156.3 140.4 156.3 140.5 156.3 140.6 C 154.5 140.5 155.2 140.3 154.2 140.1 C 151.9 140.1 152.5 140.3 151.4 139.9 C 149.2 139.9 147.1 139.9 144.9 139.6 C 143.4 139.7 146.2 140.3 148.5 140.4 C 148.3 140.5 147.7 140.4 147.7 140.5 C 145.1 140.2 144.7 139.7 140.7 139.3 C 143.7 139.8 139.1 139.3 138.5 139.1 C 136.9 139.0 138.1 139.4 139.2 139.5 C 139.0 139.6 138.0 139.4 137.8 139.3 C 137.6 139.6 141.5 140.1 145.6 140.2 C 143.7 140.5 148.5 140.4 146.3 140.8 C 149.6 140.9 146.8 140.4 150.6 140.7 C 150.2 140.5 149.5 140.4 149.2 140.3 C 152.0 140.4 151.2 140.7 154.2 140.8 C 154.7 140.6 152.7 140.5 152.8 140.4 C 156.0 140.7 157.1 140.9 159.2 141.2 C 159.7 141.0 159.1 140.8 162.8 141.0 C 162.8 141.1 162.8 141.1 162.8 141.2 C 161.1 141.1 160.6 141.6 165.0 141.6 C 165.3 141.4 163.9 141.4 162.8 141.4 C 163.3 141.3 164.7 141.2 166.4 141.2 C 167.2 141.3 168.2 141.4 167.1 141.4 C 167.8 141.6 168.4 141.2 170.7 141.3 C 170.7 141.3 170.7 141.3 170.7 141.3 Z M 8.8 71.3 C 8.8 71.7 8.8 72.1 8.7 72.9 C 8.9 73.3 9.0 71.8 9.1 71.9 C 9.3 70.7 8.9 71.6 8.8 71.3 C 8.8 71.3 8.8 71.3 8.8 71.3 Z M 14.6 57.1 C 14.4 57.1 14.1 58.0 13.4 59.1 C 13.3 59.5 14.1 58.1 14.2 58.2 C 15.1 56.9 13.7 58.4 14.6 57.1 C 14.6 57.1 14.6 57.1 14.6 57.1 Z M 11.3 63.1 C 10.8 63.5 11.2 63.7 11.6 62.6 C 11.7 62.7 11.7 63.0 11.5 63.7 C 12.0 63.1 11.8 62.4 12.5 61.2 C 12.2 61.6 11.8 62.2 11.3 63.1 C 11.3 63.1 11.3 63.1 11.3 63.1 Z M 10.5 65.1 C 10.4 65.9 10.0 66.4 9.8 67.7 C 10.0 67.4 10.9 64.6 11.0 64.1 C 11.0 63.6 9.8 66.6 10.5 65.1 C 10.5 65.1 10.5 65.1 10.5 65.1 Z M 97.4 133.7 C 98.0 133.8 97.9 133.7 98.1 133.7 C 100.0 134.5 102.9 134.9 100.6 134.8 C 102.8 135.0 104.7 135.7 106.5 136.1 C 108.1 136.4 107.4 136.0 108.6 136.2 C 110.6 136.6 107.6 136.2 107.9 136.3 C 108.3 136.6 108.9 136.3 111.3 136.8 C 110.7 136.3 113.4 137.2 112.7 136.6 C 114.0 137.0 114.4 136.9 116.2 137.2 C 116.0 137.0 114.3 136.7 114.1 136.5 C 113.3 136.1 113.2 136.6 114.8 136.8 C 113.8 136.9 111.5 136.2 110.7 136.2 C 109.9 135.8 112.9 136.5 112.1 136.1 C 111.5 136.1 110.9 136.0 110.8 136.1 C 109.8 135.9 109.1 135.7 108.7 135.5 C 109.3 135.6 109.4 135.6 109.4 135.7 C 110.6 135.9 108.2 135.1 110.8 135.5 C 110.4 135.4 109.3 135.2 109.5 135.1 C 108.7 134.8 109.4 135.7 106.7 135.0 C 104.9 134.9 110.9 136.0 109.3 136.2 C 105.6 135.5 107.7 135.5 104.7 134.9 C 104.7 135.0 104.8 135.1 104.0 135.0 C 104.1 135.1 105.2 135.3 106.0 135.4 C 105.8 135.5 104.7 135.3 103.9 135.2 C 104.1 135.2 104.7 135.4 104.6 135.4 C 102.1 134.9 102.5 134.4 104.8 134.7 C 104.7 134.5 101.6 134.0 100.8 133.9 C 101.6 134.2 100.7 134.0 101.3 134.4 C 102.0 134.5 101.9 134.4 102.1 134.4 C 103.2 134.7 102.1 134.6 102.0 134.6 C 100.7 134.3 100.8 134.1 99.4 134.0 C 99.7 134.0 100.1 134.0 100.1 133.9 C 99.4 133.8 98.7 133.7 98.1 133.5 C 98.1 133.7 97.3 133.5 97.4 133.7 C 97.4 133.7 97.4 133.7 97.4 133.7 Z M 132.8 139.6 C 135.1 139.9 133.9 139.6 132.8 139.5 C 133.3 139.4 134.1 139.5 135.0 139.5 C 134.3 139.4 133.7 139.4 131.5 139.1 C 133.4 139.0 131.5 138.3 128.0 138.0 C 126.9 138.3 129.8 138.7 128.7 138.9 C 131.2 139.0 132.6 139.3 132.8 139.6 C 132.8 139.6 132.8 139.6 132.8 139.6 Z M 22.6 48.0 C 21.6 48.9 20.6 49.9 19.7 50.8 C 20.0 50.9 23.1 48.1 22.6 48.0 C 22.6 48.0 22.6 48.0 22.6 48.0 Z M 115.1 13.2 C 115.7 13.1 115.8 13.1 115.9 13.1 C 117.9 12.8 114.9 13.1 115.8 12.7 C 115.1 12.9 114.4 13.0 113.7 13.1 C 113.6 13.2 116.6 12.9 114.4 13.3 C 114.6 13.3 115.1 13.2 115.1 13.2 C 115.1 13.2 115.1 13.2 115.1 13.2 Z M 9.3 70.3 C 9.2 71.3 9.6 70.7 9.3 72.9 C 9.5 72.1 9.5 71.6 9.7 70.4 C 9.5 70.3 9.4 70.3 9.3 70.3 C 9.3 70.3 9.3 70.3 9.3 70.3 Z M 87.6 131.9 C 89.1 132.6 89.7 132.1 92.8 133.0 C 91.2 132.3 89.4 132.3 87.6 131.9 C 87.6 131.9 87.6 131.9 87.6 131.9 Z M 203.7 139.3 C 202.6 139.3 203.9 139.2 202.2 139.2 C 201.2 139.4 200.8 139.5 199.4 139.7 C 201.4 139.8 205.0 139.2 206.4 139.5 C 208.2 139.3 208.0 139.0 208.5 138.8 C 207.7 138.9 207.3 138.9 207.1 138.9 C 206.2 139.3 204.9 138.8 203.7 139.3 C 203.7 139.3 203.7 139.3 203.7 139.3 Z M 123.8 138.2 C 122.5 137.9 124.7 138.1 125.2 138.0 C 126.1 138.1 125.8 138.3 125.9 138.4 C 127.1 138.5 127.5 138.4 127.3 138.2 C 125.0 137.9 122.1 137.6 123.9 137.4 C 121.6 137.1 122.8 137.6 121.7 137.5 C 120.5 137.2 121.7 137.3 121.8 137.0 C 121.2 137.0 119.5 137.1 119.7 136.8 C 116.4 136.6 117.8 137.2 120.2 138.0 C 122.5 138.0 119.9 137.6 123.8 138.2 C 123.8 138.2 123.8 138.2 123.8 138.2 Z M 39.2 113.3 C 39.3 113.5 40.7 114.2 40.6 114.3 C 42.3 115.0 43.9 115.5 45.5 116.1 C 45.3 115.8 43.1 114.9 43.9 115.5 C 43.3 115.0 41.9 114.1 41.1 113.5 C 39.6 112.6 38.8 112.8 38.8 112.3 C 37.4 111.6 38.1 112.1 36.0 110.7 C 39.3 113.1 34.7 110.1 34.4 110.2 C 36.3 111.4 38.2 112.5 38.0 112.1 C 39.5 113.1 41.2 114.1 41.5 114.5 C 41.3 114.5 40.0 113.8 39.2 113.3 C 39.2 113.3 39.2 113.3 39.2 113.3 Z M 48.9 117.5 C 48.2 117.3 47.5 117.0 46.4 116.5 C 47.0 116.8 47.2 117.0 47.1 117.1 C 49.2 118.1 49.7 118.2 50.4 118.8 C 52.4 119.7 50.0 118.2 53.1 119.7 C 52.9 119.5 51.3 118.9 51.4 118.8 C 51.1 118.8 49.8 118.3 48.9 117.5 C 48.9 117.5 48.9 117.5 48.9 117.5 Z M 69.3 126.1 C 70.8 126.6 68.5 125.7 69.4 125.8 C 69.0 125.7 66.1 124.6 66.5 124.6 C 65.8 124.0 62.7 123.5 63.1 123.3 C 62.4 123.0 62.6 123.2 62.5 123.3 C 64.5 124.0 64.4 124.1 63.0 123.6 C 63.2 123.8 64.4 124.2 65.2 124.5 C 65.4 124.4 64.6 124.1 64.8 124.0 C 66.5 124.8 67.7 125.4 69.3 126.1 C 69.3 126.1 69.3 126.1 69.3 126.1 Z M 192.6 10.4 C 190.9 10.2 189.9 10.2 189.0 10.3 C 189.5 10.4 190.3 10.3 191.2 10.4 C 191.4 10.5 190.6 10.5 189.7 10.4 C 190.5 10.7 193.5 10.7 192.6 10.4 C 192.6 10.4 192.6 10.4 192.6 10.4 Z M 178.3 9.8 C 176.6 9.8 175.6 9.8 175.4 9.9 C 176.0 10.1 175.8 9.8 176.9 9.9 C 177.5 9.9 177.9 10.0 178.3 10.1 C 179.0 10.1 178.8 10.0 179.0 10.0 C 179.6 10.0 179.7 10.0 179.7 10.1 C 181.7 9.9 177.4 10.1 178.3 9.8 C 178.3 9.8 178.3 9.8 178.3 9.8 Z M 59.6 122.5 C 59.1 122.2 58.8 121.9 57.5 121.4 C 57.7 121.6 56.2 121.0 54.8 120.4 C 56.8 121.5 57.6 121.7 59.6 122.5 C 59.6 122.5 59.6 122.5 59.6 122.5 Z M 91.3 18.3 C 89.3 18.5 89.6 18.8 86.8 19.3 C 86.8 19.4 86.8 19.5 86.9 19.6 C 88.5 19.0 89.3 18.9 91.3 18.3 C 91.3 18.3 91.3 18.3 91.3 18.3 Z M 327.4 88.1 C 327.3 87.9 326.6 89.4 326.4 89.5 C 326.6 89.9 325.7 90.4 323.9 93.2 C 323.7 93.2 323.8 93.0 324.1 92.6 C 322.5 94.8 324.7 92.1 325.1 91.9 C 326.2 90.1 326.5 89.9 327.4 88.1 C 327.4 88.1 327.4 88.1 327.4 88.1 Z M 182.2 139.9 C 182.1 139.9 182.5 139.9 182.9 139.9 C 183.4 139.9 183.9 139.9 184.3 139.9 C 184.2 139.5 181.8 139.5 183.6 139.1 C 183.0 139.1 182.9 139.1 182.9 139.2 C 179.4 140.0 176.7 138.9 172.1 139.4 C 171.4 139.4 171.6 139.5 171.4 139.5 C 172.0 139.5 172.1 139.6 172.1 139.6 C 172.7 139.3 176.8 139.6 175.0 139.8 C 175.2 139.9 175.7 139.8 175.7 139.8 C 176.2 139.7 176.7 139.7 177.2 139.7 C 176.9 139.6 175.9 139.6 175.7 139.5 C 178.0 139.6 180.8 139.6 179.4 139.9 C 180.8 139.9 181.2 139.7 182.2 139.6 C 183.1 139.6 183.1 139.8 182.2 139.9 C 182.2 139.9 182.2 139.9 182.2 139.9 Z M 200.7 138.8 C 202.9 138.7 202.1 138.5 204.3 138.3 C 202.9 138.2 201.2 138.7 199.3 138.6 C 199.6 138.7 200.5 138.7 200.7 138.8 C 200.7 138.8 200.7 138.8 200.7 138.8 Z M 159.3 139.5 C 159.7 139.2 157.8 139.1 155.7 139.0 C 155.2 139.3 157.1 139.4 159.3 139.5 C 159.3 139.5 159.3 139.5 159.3 139.5 Z M 168.6 139.6 C 170.7 139.5 165.9 139.5 167.1 139.3 C 166.1 139.3 165.1 139.3 165.0 139.2 C 164.2 139.2 164.2 139.4 162.9 139.3 C 162.9 139.5 165.2 139.4 165.0 139.6 C 166.6 139.5 166.9 139.5 168.6 139.6 C 168.6 139.6 168.6 139.6 168.6 139.6 Z M 170.0 139.6 C 171.4 139.6 169.6 139.2 167.9 139.1 C 168.5 139.3 168.9 139.5 170.0 139.6 C 170.0 139.6 170.0 139.6 170.0 139.6 Z M 17.3 93.7 C 17.8 94.4 17.6 93.7 18.2 94.5 C 18.3 94.4 16.2 91.7 18.0 93.9 C 17.6 92.9 16.9 92.7 16.2 91.6 C 16.4 92.0 16.5 92.3 16.1 91.7 C 15.7 91.5 17.7 93.9 17.3 93.7 C 17.3 93.7 17.3 93.7 17.3 93.7 Z M 19.6 96.5 C 20.0 97.0 19.9 96.7 19.6 96.4 C 19.8 96.5 20.4 97.3 20.9 97.8 C 20.9 97.9 20.3 96.6 20.5 96.5 C 18.3 94.3 19.7 96.2 19.6 96.5 C 19.6 96.5 19.6 96.5 19.6 96.5 Z M 21.8 98.7 C 23.1 100.3 25.4 102.4 26.7 103.1 C 25.7 101.8 22.7 99.2 21.8 98.7 C 21.8 98.7 21.8 98.7 21.8 98.7 Z M 12.1 83.1 C 12.7 86.1 15.7 91.5 13.6 86.4 C 13.5 86.6 12.1 83.3 11.8 81.7 C 11.7 81.6 11.1 79.9 11.2 79.8 C 10.8 78.5 12.1 83.9 12.1 83.1 C 12.1 83.1 12.1 83.1 12.1 83.1 Z M 29.2 104.5 C 28.2 103.9 29.2 105.2 27.8 103.9 C 27.0 103.3 28.0 104.2 27.7 104.1 C 29.4 105.5 33.5 108.0 33.7 108.5 C 34.7 109.1 35.1 109.1 37.1 110.4 C 37.2 110.3 30.2 106.0 29.1 104.6 C 29.3 104.6 31.5 106.3 29.2 104.5 C 29.2 104.5 29.2 104.5 29.2 104.5 Z M 91.6 19.7 C 91.8 19.4 89.1 20.2 89.6 19.8 C 88.2 20.4 86.8 20.6 85.3 21.2 C 84.8 21.2 84.9 20.8 82.7 21.4 C 82.7 21.6 83.8 21.3 82.8 21.7 C 80.8 22.2 81.3 21.8 79.0 22.5 C 79.5 22.8 74.3 24.0 74.9 24.2 C 76.1 23.9 75.9 23.7 77.9 23.2 C 78.6 23.0 78.3 23.2 79.1 23.0 C 78.6 23.4 77.5 23.4 76.7 23.8 C 77.0 23.9 78.4 23.5 78.7 23.6 C 79.5 23.3 78.4 23.5 78.6 23.3 C 80.9 22.6 78.5 23.9 81.2 23.1 C 80.6 23.0 80.6 23.0 81.0 22.6 C 82.1 22.5 85.3 21.5 83.6 22.2 C 83.8 22.3 85.7 21.6 85.4 21.5 C 86.4 21.2 86.6 21.3 86.7 21.3 C 89.3 20.6 89.7 20.3 89.0 20.2 C 89.5 19.8 90.0 20.1 91.6 19.7 C 91.6 19.7 91.6 19.7 91.6 19.7 Z M 11.9 67.8 C 12.1 66.6 11.6 69.0 11.3 70.2 C 11.6 68.8 11.9 69.3 12.3 67.9 C 12.1 68.4 12.0 68.3 12.3 67.3 C 12.2 67.1 11.6 69.1 11.9 67.8 C 11.9 67.8 11.9 67.8 11.9 67.8 Z M 41.4 112.9 C 42.1 113.5 46.1 115.4 48.4 116.5 C 48.1 116.0 42.7 113.8 42.2 113.1 C 41.0 112.5 42.8 113.6 41.4 112.9 C 41.4 112.9 41.4 112.9 41.4 112.9 Z M 68.2 25.9 C 67.6 26.1 68.0 26.0 68.3 25.9 C 68.1 26.1 66.9 26.5 66.0 26.8 C 67.3 26.5 65.8 27.1 66.1 27.3 C 65.5 27.5 65.1 27.6 65.0 27.7 C 64.8 27.3 61.5 29.3 65.2 28.0 C 64.4 28.0 64.7 28.0 66.2 27.3 C 67.8 27.0 69.1 26.3 69.7 26.4 C 70.8 26.0 71.2 25.7 72.6 25.3 C 73.0 25.4 74.4 25.1 73.4 25.7 C 76.0 24.9 74.1 24.9 76.2 24.2 C 78.3 23.7 75.2 24.8 75.8 24.8 C 76.3 24.7 76.2 24.8 76.4 24.8 C 77.1 24.6 77.1 24.3 76.3 24.6 C 76.5 24.4 78.6 23.6 78.1 24.1 C 79.3 23.6 76.0 23.9 74.4 24.7 C 73.4 25.0 73.3 24.5 74.3 24.3 C 73.8 24.2 72.0 25.3 72.4 24.7 C 71.6 24.9 70.9 25.2 70.1 25.4 C 70.2 25.5 70.6 25.3 70.7 25.4 C 69.9 25.6 69.1 25.9 68.3 26.2 C 69.0 25.8 69.0 25.8 68.2 25.9 C 68.2 25.9 68.2 25.9 68.2 25.9 Z M 32.6 107.3 C 34.1 108.4 34.6 108.6 35.9 109.3 C 35.5 108.9 32.0 106.6 32.6 107.3 C 32.6 107.3 32.6 107.3 32.6 107.3 Z M 102.9 18.1 C 102.6 18.0 101.5 18.3 101.5 18.2 C 103.5 17.7 101.2 18.0 102.7 17.3 C 100.1 18.0 99.3 18.7 102.9 18.2 C 105.4 17.7 100.2 18.6 102.9 18.1 C 102.9 18.1 102.9 18.1 102.9 18.1 Z M 94.9 19.5 C 93.4 20.0 97.4 19.2 98.3 19.1 C 98.3 19.2 98.3 19.3 98.3 19.4 C 100.5 18.5 97.5 19.0 99.4 18.2 C 96.8 18.6 95.7 18.7 93.6 19.3 C 93.7 19.4 94.2 19.2 94.2 19.2 C 95.8 18.8 94.8 19.4 93.0 19.7 C 93.5 19.7 95.1 19.3 96.2 19.1 C 95.9 19.1 95.5 19.2 95.6 19.0 C 96.9 18.7 96.5 19.0 97.5 18.8 C 97.5 18.9 95.0 19.6 94.9 19.5 C 94.9 19.5 94.9 19.5 94.9 19.5 Z M 232.0 16.5 C 230.6 16.3 233.4 17.1 233.2 17.4 C 234.6 17.7 234.9 17.7 235.9 17.8 C 235.4 17.6 233.9 17.3 233.3 17.0 C 233.6 16.8 235.3 17.5 235.9 17.4 C 236.9 17.2 232.5 16.9 232.0 16.5 C 232.0 16.5 232.0 16.5 232.0 16.5 Z M 35.7 41.3 C 35.0 41.7 35.4 41.5 35.7 41.3 C 35.6 41.5 34.5 42.2 34.5 42.1 C 33.5 42.8 35.1 41.9 33.9 42.7 C 33.8 43.0 35.7 41.5 35.8 41.4 C 37.2 40.4 36.2 41.4 36.7 41.3 C 38.0 40.5 37.4 40.6 39.3 39.5 C 38.1 40.1 37.0 40.5 35.7 41.3 C 35.7 41.3 35.7 41.3 35.7 41.3 Z M 107.4 16.8 C 107.6 16.6 105.9 17.4 104.1 17.5 C 101.8 17.9 105.5 17.5 103.5 17.9 C 105.2 17.6 107.3 17.0 110.1 16.5 C 110.7 16.3 106.3 17.1 108.7 16.6 C 108.6 16.5 108.0 16.7 108.0 16.7 C 107.5 16.8 107.4 16.8 107.4 16.8 C 107.4 16.8 107.4 16.8 107.4 16.8 Z M 104.8 17.8 C 104.9 17.9 105.5 17.7 105.5 17.7 C 106.4 17.5 106.4 17.7 105.6 17.9 C 106.7 18.0 106.5 17.5 108.9 17.2 C 107.8 17.2 107.4 17.1 109.5 17.0 C 111.1 16.5 105.5 17.5 104.8 17.8 C 104.8 17.8 104.8 17.8 104.8 17.8 Z M 210.1 13.7 C 210.3 13.8 211.8 13.9 212.9 14.1 C 211.5 14.1 205.9 13.4 205.2 13.2 C 204.6 13.2 204.0 13.2 203.8 13.1 C 203.8 13.2 202.2 13.1 203.0 13.3 C 202.9 13.3 201.7 13.2 201.7 13.3 C 199.5 13.1 202.3 13.2 201.7 13.0 C 199.1 13.0 199.7 12.9 196.7 12.6 C 197.2 12.9 200.5 13.1 200.2 13.4 C 202.6 13.3 205.1 13.7 206.5 14.1 C 204.3 13.5 212.5 14.1 216.3 14.6 C 216.1 14.8 217.5 14.9 219.0 15.2 C 220.1 15.6 219.8 15.0 217.7 14.9 C 217.8 14.7 220.6 15.2 221.8 15.3 C 220.4 15.0 221.2 15.0 220.5 14.8 C 217.8 14.5 220.2 14.9 219.7 15.0 C 219.1 14.9 218.4 14.8 217.6 14.7 C 221.3 14.8 212.4 14.0 215.6 14.4 C 212.8 14.1 212.8 13.8 210.1 13.7 C 210.1 13.7 210.1 13.7 210.1 13.7 Z M 143.3 12.5 C 142.8 12.5 140.6 12.9 140.5 12.7 C 137.6 13.1 140.2 13.1 137.0 13.4 C 137.2 13.4 138.4 13.3 138.4 13.4 C 139.6 13.2 140.9 13.1 140.5 12.8 C 141.9 12.8 142.4 12.7 143.3 12.6 C 143.0 12.7 142.4 12.8 141.2 12.9 C 141.0 13.1 141.5 13.2 143.3 13.0 C 144.2 12.8 143.6 12.6 143.3 12.5 C 143.3 12.5 143.3 12.5 143.3 12.5 Z M 136.3 13.4 C 135.9 13.3 135.5 13.3 135.6 13.2 C 134.5 13.0 135.2 13.5 134.1 13.6 C 133.3 13.7 133.6 13.5 133.4 13.4 C 132.2 13.6 131.3 13.8 130.7 13.7 C 128.8 14.1 132.9 13.7 133.5 13.8 C 134.8 13.6 134.3 13.5 136.3 13.4 C 136.3 13.4 136.3 13.4 136.3 13.4 Z M 115.5 15.5 C 115.1 15.4 114.4 15.8 113.5 15.9 C 114.2 16.0 116.1 15.6 114.9 16.1 C 116.9 15.9 117.0 15.9 119.0 15.5 C 120.3 15.6 119.0 15.3 116.9 15.7 C 117.2 15.6 118.1 15.4 118.2 15.3 C 119.6 15.6 123.0 14.4 121.0 15.0 C 120.3 15.0 119.9 15.0 119.6 15.0 C 119.1 15.2 114.5 15.8 115.5 15.5 C 115.5 15.5 115.5 15.5 115.5 15.5 Z M 51.7 33.2 C 53.4 32.5 54.3 32.1 55.2 31.7 C 56.0 31.3 57.3 30.8 58.4 30.4 C 58.5 30.5 58.4 30.6 57.9 30.8 C 58.5 30.7 59.1 30.3 60.1 29.9 C 60.0 29.9 59.5 30.1 59.5 30.1 C 57.7 30.7 59.2 30.1 59.4 29.8 C 57.2 30.4 54.1 32.2 52.4 32.6 C 51.2 33.2 52.7 32.6 51.7 33.2 C 51.7 33.2 51.7 33.2 51.7 33.2 Z M 326.4 85.4 C 326.4 85.7 326.0 86.4 326.2 86.4 C 326.5 85.7 326.7 85.1 326.9 84.5 C 326.3 85.7 326.1 85.4 325.3 87.1 C 325.7 86.6 325.9 86.8 326.4 85.4 C 326.4 85.4 326.4 85.4 326.4 85.4 Z M 122.3 14.7 C 122.4 14.8 122.5 14.9 121.7 15.0 C 121.5 15.2 123.7 14.8 123.7 15.0 C 124.5 14.9 124.2 14.8 125.1 14.7 C 124.8 14.6 123.0 14.9 123.7 14.5 C 124.3 14.4 124.4 14.5 124.4 14.5 C 125.8 14.2 123.7 14.4 122.3 14.7 C 122.3 14.7 122.3 14.7 122.3 14.7 Z M 238.6 17.9 C 237.7 17.8 238.5 18.1 239.2 18.2 C 237.3 18.1 240.3 18.8 240.4 19.1 C 239.6 18.7 237.0 18.4 236.5 18.2 C 235.7 18.1 236.6 18.5 234.5 18.1 C 234.7 18.4 237.0 18.6 236.5 18.4 C 237.0 18.8 239.3 18.8 239.1 19.1 C 242.0 19.7 242.7 19.7 243.0 19.5 C 240.2 19.0 241.7 18.9 239.2 18.5 C 239.2 18.4 240.0 18.6 240.5 18.6 C 240.3 18.4 239.3 18.2 238.6 17.9 C 238.6 17.9 238.6 17.9 238.6 17.9 Z M 166.1 11.7 C 164.5 11.8 164.6 12.0 164.6 12.2 C 165.3 12.1 166.2 12.1 167.5 12.1 C 167.2 11.9 165.3 12.0 166.1 11.7 C 166.1 11.7 166.1 11.7 166.1 11.7 Z M 227.9 16.4 C 227.7 16.3 227.2 16.2 227.2 16.3 C 225.5 16.0 225.1 15.9 224.5 15.6 C 223.6 15.5 223.9 15.8 223.8 15.9 C 225.4 15.9 225.1 16.2 227.2 16.4 C 227.1 16.3 227.3 16.3 227.9 16.4 C 227.9 16.4 227.9 16.4 227.9 16.4 Z M 181.1 12.0 C 180.2 12.0 180.6 12.1 181.1 12.1 C 180.1 12.4 177.2 12.1 176.1 12.2 C 175.9 12.4 179.5 12.4 175.4 12.4 C 176.1 12.6 179.9 12.5 181.7 12.6 C 181.3 12.8 178.8 12.7 178.9 13.0 C 181.1 12.9 183.5 12.9 183.9 12.5 C 180.7 12.4 181.8 12.2 181.1 12.0 C 181.1 12.0 181.1 12.0 181.1 12.0 Z M 184.6 12.3 C 184.3 12.2 183.7 12.3 182.5 12.2 C 184.3 12.6 185.3 12.5 188.9 12.7 C 188.9 12.7 188.9 12.6 188.9 12.6 C 189.6 12.6 190.4 12.6 191.1 12.7 C 188.0 12.2 187.2 12.4 183.9 12.4 C 183.8 12.3 184.2 12.3 184.6 12.3 C 184.6 12.3 184.6 12.3 184.6 12.3 Z M 91.8 20.4 C 92.7 20.3 93.5 20.3 95.0 20.0 C 94.9 19.8 93.9 19.9 91.8 20.4 C 91.8 20.4 91.8 20.4 91.8 20.4 Z M 230.5 17.0 C 232.4 17.1 228.8 16.7 229.8 17.1 C 231.2 17.4 232.8 17.8 233.1 18.1 C 235.8 18.2 230.1 17.2 230.5 17.0 C 230.5 17.0 230.5 17.0 230.5 17.0 Z M 218.3 15.8 C 217.5 15.6 217.5 15.3 218.3 15.6 C 220.2 15.8 216.6 15.2 219.6 15.6 C 218.4 15.3 215.5 14.9 214.1 14.9 C 214.2 15.1 216.8 15.3 216.9 15.5 C 217.0 15.6 216.6 15.5 216.2 15.5 C 216.4 15.7 217.1 15.6 218.3 15.8 C 218.3 15.8 218.3 15.8 218.3 15.8 Z M 207.9 14.2 C 209.1 14.4 210.4 14.7 212.8 14.9 C 211.2 14.6 210.4 14.3 207.9 14.2 C 207.9 14.2 207.9 14.2 207.9 14.2 Z M 323.8 61.3 C 323.1 60.2 323.5 61.3 323.5 61.4 C 324.1 62.5 324.2 62.3 324.8 63.6 C 324.8 63.1 323.9 62.1 323.8 61.3 C 323.8 61.3 323.8 61.3 323.8 61.3 Z M 325.6 65.3 C 325.5 65.5 326.2 67.1 326.0 67.2 C 326.8 68.0 326.4 69.6 326.8 69.4 C 326.8 69.8 326.8 70.1 327.0 70.8 C 327.1 69.5 326.2 66.7 325.6 65.3 C 325.6 65.3 325.6 65.3 325.6 65.3 Z M 195.9 13.7 C 194.1 13.5 196.4 14.1 194.5 13.9 C 194.4 14.0 198.1 14.3 195.9 14.2 C 198.7 14.6 195.7 13.8 195.9 13.7 C 195.9 13.7 195.9 13.7 195.9 13.7 Z M 161.1 13.2 C 161.2 13.0 158.6 13.2 157.6 13.2 C 157.6 13.3 158.4 13.2 159.0 13.2 C 158.7 13.3 158.3 13.4 157.6 13.4 C 158.1 13.6 160.1 13.2 161.1 13.2 C 161.1 13.2 161.1 13.2 161.1 13.2 Z M 199.8 9.8 C 201.0 10.1 202.5 10.4 203.3 10.1 C 204.5 10.5 202.5 10.4 204.0 10.6 C 206.0 10.7 205.0 10.8 208.2 11.0 C 207.6 11.2 209.9 11.5 210.3 11.7 C 209.0 11.6 207.4 11.2 206.7 11.3 C 207.8 11.4 207.2 11.6 206.7 11.4 C 204.6 11.1 209.4 11.4 206.8 10.9 C 206.0 11.2 202.3 10.3 199.8 10.1 C 200.7 10.0 197.9 9.7 199.8 9.8 C 199.8 9.8 199.8 9.8 199.8 9.8 Z M 212.4 11.4 C 214.1 11.6 214.9 12.2 214.5 12.2 C 214.5 12.0 212.6 11.8 212.4 11.9 C 212.8 12.0 213.2 12.0 213.1 12.1 C 210.0 11.7 211.1 11.6 210.3 11.4 C 212.1 11.5 212.5 11.7 213.1 11.6 C 212.7 11.6 212.3 11.5 212.4 11.4 C 212.4 11.4 212.4 11.4 212.4 11.4 Z M 247.4 21.2 C 247.1 21.0 246.7 21.1 246.1 21.0 C 246.0 20.7 242.6 20.4 242.2 20.1 C 243.0 20.2 244.7 20.5 245.5 20.6 C 244.6 20.4 244.5 20.2 243.6 20.2 C 243.8 20.0 245.7 20.4 246.2 20.3 C 246.4 20.5 247.3 20.5 247.5 20.7 C 245.0 20.3 248.8 21.6 247.4 21.2 C 247.4 21.2 247.4 21.2 247.4 21.2 Z M 179.6 13.3 C 179.4 13.5 182.4 14.2 179.6 14.4 C 179.0 14.2 178.7 14.0 178.9 13.7 C 177.1 13.8 176.4 13.5 175.3 13.8 C 172.1 13.0 177.8 13.9 179.6 13.3 C 179.6 13.3 179.6 13.3 179.6 13.3 Z M 168.2 13.4 C 168.8 13.2 167.2 13.2 167.5 13.0 C 168.9 13.2 173.3 12.9 171.8 13.1 C 170.3 13.2 170.3 13.4 168.2 13.4 C 168.2 13.4 168.2 13.4 168.2 13.4 Z M 80.6 127.8 C 78.6 127.4 77.7 126.7 78.9 126.9 C 78.3 127.0 81.4 127.7 80.6 127.8 C 80.6 127.8 80.6 127.8 80.6 127.8 Z M 10.7 88.9 C 11.3 90.5 11.9 91.3 11.8 91.6 C 10.9 90.2 11.2 90.3 10.5 89.0 C 10.4 88.9 9.9 88.2 10.0 88.0 C 10.3 88.7 10.4 88.5 10.7 88.9 C 10.7 88.9 10.7 88.9 10.7 88.9 Z M 124.6 10.4 C 124.4 10.3 123.6 10.3 123.9 10.1 C 126.0 10.0 128.4 9.5 130.2 9.2 C 130.2 9.3 130.2 9.4 130.2 9.5 C 126.8 9.8 126.0 10.1 124.6 10.4 C 124.6 10.4 124.6 10.4 124.6 10.4 Z M 120.4 10.4 C 120.0 10.6 121.2 10.7 119.7 10.9 C 119.8 10.7 117.1 10.8 118.3 10.6 C 118.7 10.7 119.4 10.6 120.4 10.4 C 120.4 10.4 120.4 10.4 120.4 10.4 Z M 239.2 14.8 C 240.8 15.1 238.5 14.4 238.6 14.3 C 239.7 14.6 241.4 14.9 241.9 15.2 C 240.7 14.9 239.8 15.1 239.2 14.8 C 239.2 14.8 239.2 14.8 239.2 14.8 Z M 213.8 11.5 C 210.2 11.1 211.8 10.9 208.3 10.4 C 209.7 10.4 213.0 10.8 213.9 10.7 C 213.8 10.9 214.7 11.0 214.6 11.1 C 213.3 11.0 213.1 10.9 211.8 10.7 C 212.2 11.0 212.3 10.9 211.7 11.1 C 212.7 11.2 213.3 11.3 213.9 11.3 C 213.6 11.4 214.9 11.6 213.8 11.5 C 213.8 11.5 213.8 11.5 213.8 11.5 Z M 238.4 15.3 C 239.8 15.5 240.9 16.0 239.7 15.8 C 239.6 15.6 238.6 15.6 238.4 15.5 C 240.3 15.8 236.8 15.0 237.8 15.0 C 239.0 15.2 239.4 15.2 239.1 15.0 C 239.9 15.2 241.1 15.4 241.1 15.5 C 240.6 15.4 239.8 15.2 239.8 15.3 C 240.2 15.4 240.6 15.5 240.4 15.5 C 239.3 15.3 238.7 15.3 238.4 15.3 C 238.4 15.3 238.4 15.3 238.4 15.3 Z M 229.0 13.7 C 230.9 14.0 231.0 14.2 231.7 14.5 C 229.2 14.0 228.8 13.6 227.0 13.2 C 229.0 13.6 231.1 13.6 231.8 13.9 C 230.8 13.8 229.2 13.5 229.0 13.7 C 229.0 13.7 229.0 13.7 229.0 13.7 Z M 258.6 129.8 C 257.1 130.1 255.9 130.2 254.2 130.5 C 253.7 130.9 256.9 130.6 255.5 130.8 C 253.8 131.2 254.9 130.6 253.5 130.9 C 255.0 130.9 247.6 132.7 247.2 132.4 C 248.3 132.2 248.7 132.0 248.4 131.9 C 251.4 131.2 252.5 130.8 254.7 130.1 C 256.4 130.0 261.0 128.9 263.4 127.9 C 265.1 127.9 267.9 126.5 270.1 126.1 C 270.6 125.8 268.2 126.5 270.0 125.8 C 271.2 125.7 270.3 126.1 271.9 125.7 C 272.0 125.6 271.6 125.5 272.4 125.2 C 272.3 125.4 273.3 125.1 273.7 125.0 C 270.5 126.1 274.0 125.3 271.5 126.2 C 270.4 126.4 272.4 125.5 269.5 126.4 C 268.5 126.8 267.6 127.2 267.9 127.4 C 267.0 127.6 266.6 127.8 266.1 128.0 C 267.1 127.4 261.9 129.3 264.2 128.3 C 264.4 128.2 266.1 127.8 267.2 127.3 C 266.1 127.4 264.8 127.9 262.9 128.6 C 262.1 128.6 263.2 128.2 262.3 128.4 C 260.8 129.0 262.9 128.6 261.8 129.1 C 262.3 129.0 263.0 128.7 263.0 128.8 C 260.4 129.3 259.4 129.8 258.1 130.2 C 258.9 129.8 256.5 130.4 258.6 129.8 C 258.6 129.8 258.6 129.8 258.6 129.8 Z M 279.9 122.6 C 280.5 122.4 281.0 122.2 281.6 122.0 C 281.8 122.1 279.6 123.0 281.2 122.6 C 278.7 123.6 281.2 122.3 279.9 122.6 C 279.9 122.6 279.9 122.6 279.9 122.6 Z M 268.1 125.8 C 267.1 125.8 267.8 126.2 266.9 126.5 C 268.4 126.0 269.7 125.5 270.0 125.7 C 268.3 126.2 267.5 126.4 265.8 127.0 C 267.4 126.2 263.8 127.3 263.2 127.2 C 264.5 126.7 265.6 126.3 267.4 125.8 C 267.1 126.0 269.7 125.2 268.1 125.8 C 268.1 125.8 268.1 125.8 268.1 125.8 Z M 272.7 123.9 C 273.1 124.0 275.5 123.0 275.1 123.5 C 273.6 123.9 273.0 124.2 273.4 124.3 C 272.3 124.7 272.1 124.6 271.1 125.0 C 270.3 124.9 272.2 124.4 272.7 124.0 C 272.4 124.1 272.0 124.2 272.7 123.9 C 272.7 123.9 272.7 123.9 272.7 123.9 Z M 319.1 95.4 C 319.6 95.2 317.9 96.9 317.5 97.2 C 318.2 96.8 318.0 97.1 316.9 98.3 C 317.1 97.7 315.5 99.4 314.2 100.1 C 314.1 100.5 315.6 99.3 314.0 100.9 C 312.6 101.9 311.5 103.1 309.2 104.8 C 308.5 105.0 309.5 104.2 310.0 103.6 C 308.5 104.9 308.9 104.3 307.6 105.2 C 307.9 105.1 307.0 105.9 306.5 106.1 C 308.6 104.5 303.4 107.8 305.7 106.2 C 305.9 106.2 306.4 105.8 306.9 105.4 C 306.5 106.0 309.3 103.9 310.0 103.6 C 310.7 102.3 313.7 100.3 316.4 97.8 C 316.7 97.7 315.9 98.6 316.6 98.0 C 316.6 97.8 317.5 97.0 317.8 96.5 C 317.8 96.7 318.2 96.4 318.7 95.8 C 318.7 95.8 318.8 95.7 319.1 95.4 C 319.1 95.4 319.1 95.4 319.1 95.4 Z M 145.1 137.1 C 145.2 136.7 140.7 136.6 139.4 136.6 C 139.7 136.2 147.6 136.8 145.1 137.1 C 145.1 137.1 145.1 137.1 145.1 137.1 Z M 172.8 137.5 C 171.6 137.6 172.5 137.8 171.4 137.8 C 171.4 137.5 168.7 138.0 168.6 137.8 C 169.9 137.6 170.7 137.6 172.8 137.5 C 172.8 137.5 172.8 137.5 172.8 137.5 Z M 198.5 136.6 C 196.4 136.8 199.6 136.7 199.2 136.8 C 197.4 136.9 195.5 137.0 195.6 136.8 C 197.2 136.8 198.2 136.4 198.5 136.6 C 198.5 136.6 198.5 136.6 198.5 136.6 Z M 160.0 137.2 C 158.3 137.0 161.2 136.8 161.4 137.0 C 159.6 137.0 162.7 137.2 164.3 137.2 C 164.2 137.5 163.5 137.4 164.3 137.7 C 161.8 137.8 163.9 137.4 162.1 137.4 C 160.9 137.5 162.2 137.5 162.1 137.7 C 161.4 137.7 160.7 137.7 160.0 137.7 C 160.0 137.5 160.0 137.4 160.0 137.3 C 160.9 137.3 161.7 137.3 161.4 137.1 C 160.7 137.1 160.6 137.2 160.0 137.2 C 160.0 137.2 160.0 137.2 160.0 137.2 Z M 286.5 116.5 C 285.2 117.1 286.4 116.7 287.4 116.3 C 287.6 116.1 288.2 115.3 289.8 114.8 C 286.7 116.5 290.9 114.7 289.2 115.6 C 288.3 115.8 286.5 116.9 284.8 117.5 C 284.1 117.7 285.6 116.6 286.5 116.5 C 286.5 116.5 286.5 116.5 286.5 116.5 Z M 292.3 114.0 C 292.1 114.0 291.6 114.2 290.7 114.7 C 291.6 114.0 290.2 114.6 291.4 114.0 C 291.3 114.2 295.4 112.2 293.0 113.4 C 290.8 114.4 293.7 113.3 294.7 112.8 C 293.6 113.3 291.8 114.5 291.5 114.4 C 292.1 114.2 292.5 114.0 292.3 114.0 C 292.3 114.0 292.3 114.0 292.3 114.0 Z M 324.5 86.1 C 324.4 85.9 324.1 86.7 323.9 86.9 C 325.0 84.7 325.7 82.8 326.0 81.7 C 325.7 82.7 325.9 82.8 326.2 82.2 C 325.8 83.3 325.8 83.6 325.5 83.9 C 325.7 82.9 325.2 84.8 324.5 86.1 C 324.5 86.1 324.5 86.1 324.5 86.1 Z M 324.5 86.1 " fill="#000000"></path><image xlink:href="../../CEFA4209-80C9-472B-8D2B-058B96531B72/assets/431BD2BFE54A6EFCB4B133EE2A4ED9FC.png" width="209.00" height="56.00" transform="matrix(1.00, 0.00, -0.00, -1.00, 68.0, 93.0)"></image><g><clipPath id="clip-825"><path d="M 10.8 10.9 L 329.6 10.9 L 329.6 139.3 L 10.8 139.3 Z M 10.8 10.9 "></path></clipPath><g clip-path="url(#clip-825)"><text xml:space="preserve" font-family="Chalkduster" font-size="32.0" fill="#000000" transform="matrix(1.00, 0.00, -0.00, -1.00, 71.0, 61.0)">L</text><text xml:space="preserve" font-family="Chalkduster" font-size="32.0" fill="#000000" transform="matrix(1.00, 0.00, -0.00, -1.00, 91.3, 61.0)">i</text><text xml:space="preserve" font-family="Chalkduster" font-size="32.0" fill="#000000" transform="matrix(1.00, 0.00, -0.00, -1.00, 103.9, 61.0)">n</text><text xml:space="preserve" font-family="Chalkduster" font-size="32.0" fill="#000000" transform="matrix(1.00, 0.00, -0.00, -1.00, 127.4, 61.0)">k</text><text xml:space="preserve" font-family="Chalkduster" font-size="32.0" fill="#000000" transform="matrix(1.00, 0.00, -0.00, -1.00, 152.3, 61.0)"> </text><text xml:space="preserve" font-family="Chalkduster" font-size="32.0" fill="#000000" transform="matrix(1.00, 0.00, -0.00, -1.00, 168.2, 61.0)">S</text><text xml:space="preserve" font-family="Chalkduster" font-size="32.0" fill="#000000" transform="matrix(1.00, 0.00, -0.00, -1.00, 184.1, 61.0)">p</text><text xml:space="preserve" font-family="Chalkduster" font-size="32.0" fill="#000000" transform="matrix(1.00, 0.00, -0.00, -1.00, 204.2, 61.0)">e</text><text xml:space="preserve" font-family="Chalkduster" font-size="32.0" fill="#000000" transform="matrix(1.00, 0.00, -0.00, -1.00, 224.1, 61.0)">e</text><text xml:space="preserve" font-family="Chalkduster" font-size="32.0" fill="#000000" transform="matrix(1.00, 0.00, -0.00, -1.00, 244.9, 61.0)">d</text></g></g></g></svg>