<?xml version="1.0" encoding="UTF-8" standalone="no"?><svg xmlns="http://www.w3.org/2000/svg" xmlns:xlink="http://www.w3.org/1999/xlink" clip-rule="evenodd" stroke-miterlimit="4.00" viewBox="0 0 363 32"><desc>SVG generated by Keynote</desc><defs></defs><g transform="matrix(1.00, 0.00, -0.00, -1.00, 0.0, 32.0)"><text xml:space="preserve" font-family="Chalkduster" font-size="30.0" fill="#FF2A3D" transform="matrix(1.00, 0.00, -0.00, -1.00, 0.0, 6.0)">1</text><text xml:space="preserve" font-family="Chalkduster" font-size="30.0" fill="#FF2A3D" transform="matrix(1.00, 0.00, -0.00, -1.00, 18.1, 6.0)">0</text><text xml:space="preserve" font-family="Chalkduster" font-size="30.0" fill="#FF2A3D" transform="matrix(1.00, 0.00, -0.00, -1.00, 37.9, 6.0)">.</text><text xml:space="preserve" font-family="Chalkduster" font-size="30.0" fill="#FF2A3D" transform="matrix(1.00, 0.00, -0.00, -1.00, 48.1, 6.0)">1</text><text xml:space="preserve" font-family="Chalkduster" font-size="30.0" fill="#FF2A3D" transform="matrix(1.00, 0.00, -0.00, -1.00, 66.3, 6.0)">0</text><text xml:space="preserve" font-family="Chalkduster" font-size="30.0" fill="#FF2A3D" transform="matrix(1.00, 0.00, -0.00, -1.00, 86.9, 6.0)">1</text><text xml:space="preserve" font-family="Chalkduster" font-size="30.0" fill="#FF2A3D" transform="matrix(1.00, 0.00, -0.00, -1.00, 103.8, 6.0)">.</text><text xml:space="preserve" font-family="Chalkduster" font-size="30.0" fill="#000000" transform="matrix(1.00, 0.00, -0.00, -1.00, 113.9, 6.0)">1</text><text xml:space="preserve" font-family="Chalkduster" font-size="30.0" fill="#FFDBA3" transform="matrix(1.00, 0.00, -0.00, -1.00, 132.1, 6.0)">0</text><text xml:space="preserve" font-family="Chalkduster" font-size="30.0" fill="#FFDBA3" transform="matrix(1.00, 0.00, -0.00, -1.00, 153.2, 6.0)">0</text><text xml:space="preserve" font-family="Chalkduster" font-size="30.0" fill="#FFDBA3" transform="matrix(1.00, 0.00, -0.00, -1.00, 174.3, 6.0)">0</text><text xml:space="preserve" font-family="Chalkduster" font-size="30.0" fill="#FFDBA3" transform="matrix(1.00, 0.00, -0.00, -1.00, 195.5, 6.0)">0</text><text xml:space="preserve" font-family="Chalkduster" font-size="30.0" fill="#FFDBA3" transform="matrix(1.00, 0.00, -0.00, -1.00, 216.6, 6.0)">0</text><text xml:space="preserve" font-family="Chalkduster" font-size="30.0" fill="#FFDBA3" transform="matrix(1.00, 0.00, -0.00, -1.00, 237.7, 6.0)">0</text><text xml:space="preserve" font-family="Chalkduster" font-size="30.0" fill="#FFDBA3" transform="matrix(1.00, 0.00, -0.00, -1.00, 258.8, 6.0)">0</text><text xml:space="preserve" font-family="Chalkduster" font-size="30.0" fill="#FF2A3D" transform="matrix(1.00, 0.00, -0.00, -1.00, 278.6, 6.0)">.</text><text xml:space="preserve" font-family="Chalkduster" font-size="30.0" fill="#FF2A3D" transform="matrix(1.00, 0.00, -0.00, -1.00, 288.7, 6.0)">0</text><text xml:space="preserve" font-family="Chalkduster" font-size="30.0" fill="#FF2A3D" transform="matrix(1.00, 0.00, -0.00, -1.00, 307.4, 6.0)">/</text><text xml:space="preserve" font-family="Chalkduster" font-size="30.0" fill="#FF2A3D" transform="matrix(1.00, 0.00, -0.00, -1.00, 325.0, 6.0)">1</text><text xml:space="preserve" font-family="Chalkduster" font-size="30.0" fill="#FF2A3D" transform="matrix(1.00, 0.00, -0.00, -1.00, 341.6, 6.0)">6</text></g></svg>