<?xml version="1.0" encoding="UTF-8" standalone="no"?><svg xmlns="http://www.w3.org/2000/svg" xmlns:xlink="http://www.w3.org/1999/xlink" clip-rule="evenodd" stroke-miterlimit="4.00" viewBox="0 0 890 60"><desc>SVG generated by Keynote</desc><defs></defs><g transform="matrix(1.00, 0.00, -0.00, -1.00, 0.0, 60.0)"><g><clipPath id="clip-305"><path d="M 1.0 58.6 L 140.9 58.6 L 140.9 1.3 L 1.0 1.3 Z M 1.0 58.6 "></path></clipPath><g clip-path="url(#clip-305)"><path d="M 1.5 114.3 L 138.9 114.3 L 138.9 58.1 L 1.5 58.1 Z M 1.5 114.3 " fill="#869ABB"></path><path d="M 138.9 114.3 L 263.8 114.3 L 263.8 58.1 L 138.9 58.1 Z M 138.9 114.3 " fill="#869ABB"></path><path d="M 1.5 58.1 L 138.9 58.1 L 138.9 1.8 L 1.5 1.8 Z M 1.5 58.1 " fill="#869ABB"></path><path d="M 1.5 1.8 L 138.9 1.8 L 138.9 -54.5 L 1.5 -54.5 Z M 1.5 1.8 " fill="#869ABB"></path><path d="M 138.9 1.8 L 263.8 1.8 L 263.8 -54.5 L 138.9 -54.5 Z M 138.9 1.8 " fill="#000000" fill-opacity="0.25"></path></g></g><image xlink:href="DA291ADA276B465DF9F68A801D0740E5.png" width="42.00" height="19.00" transform="matrix(1.00, 0.00, -0.00, -1.00, 95.0, 36.0)"></image><g><clipPath id="clip-306"><path d="M 1.0 58.6 L 140.9 58.6 L 140.9 1.3 L 1.0 1.3 Z M 1.0 58.6 "></path></clipPath><g clip-path="url(#clip-306)"><g><clipPath id="clip-307"><path d="M 2.0 2.3 L 136.9 2.3 L 136.9 57.6 L 2.0 57.6 Z M 2.0 2.3 "></path></clipPath><g clip-path="url(#clip-307)"><text xml:space="preserve" font-family="Chalkduster" font-size="16.0" fill="#FEFFFE" transform="matrix(1.00, 0.00, -0.00, -1.00, 100.0, 22.3)">m</text><text xml:space="preserve" font-family="Chalkduster" font-size="16.0" fill="#FEFFFE" transform="matrix(1.00, 0.00, -0.00, -1.00, 116.7, 22.3)">m</text></g></g></g></g><g><clipPath id="clip-308"><path d="M 1.0 58.6 L 140.9 58.6 L 140.9 1.3 L 1.0 1.3 Z M 1.0 58.6 "></path></clipPath><g clip-path="url(#clip-308)"><path d="M 264.4 2.0 L 264.4 58.3 " fill="none" stroke="#000000" stroke-width="1.00" stroke-miterlimit="0.00" transform="matrix(1.00, 0.00, 0.00, -1.00, -0.5, 116.3)"></path><path d="M 264.4 58.3 L 264.4 170.8 " fill="none" stroke="#000000" stroke-width="1.00" stroke-miterlimit="0.00" transform="matrix(1.00, 0.00, 0.00, -1.00, -0.5, 116.3)"></path><path d="M 1.5 114.5 L 139.4 114.5 " fill="none" stroke="#000000" stroke-width="1.00" stroke-miterlimit="0.00" transform="matrix(1.00, 0.00, 0.00, -1.00, -0.5, 116.3)"></path><path d="M 139.4 114.5 L 264.4 114.5 " fill="none" stroke="#000000" stroke-width="1.00" stroke-miterlimit="0.00" transform="matrix(1.00, 0.00, 0.00, -1.00, -0.5, 116.3)"></path><path d="M 2.0 170.8 L 139.4 170.8 " fill="none" stroke="#000000" stroke-width="1.00" stroke-miterlimit="0.00" transform="matrix(1.00, 0.00, 0.00, -1.00, -0.5, 116.3)"></path><path d="M 139.4 170.8 L 264.4 170.8 " fill="none" stroke="#000000" stroke-width="1.00" stroke-miterlimit="0.00" transform="matrix(1.00, 0.00, 0.00, -1.00, -0.5, 116.3)"></path><path d="M 139.4 2.0 L 139.4 170.8 " fill="none" stroke="#000000" stroke-width="4.00" stroke-miterlimit="0.00" transform="matrix(1.00, 0.00, 0.00, -1.00, -0.5, 116.3)"></path><path d="M 1.5 58.3 L 264.4 58.3 " fill="none" stroke="#000000" stroke-width="1.00" stroke-miterlimit="0.00" transform="matrix(1.00, 0.00, 0.00, -1.00, -0.5, 116.3)"></path><path d="M 2.0 2.0 L 2.0 58.3 " fill="none" stroke="#000000" stroke-width="1.00" stroke-miterlimit="0.00" transform="matrix(1.00, 0.00, 0.00, -1.00, -0.5, 116.3)"></path><path d="M 2.0 58.3 L 2.0 170.8 " fill="none" stroke="#000000" stroke-width="1.00" stroke-miterlimit="0.00" transform="matrix(1.00, 0.00, 0.00, -1.00, -0.5, 116.3)"></path><path d="M 2.0 2.0 L 264.4 2.0 " fill="none" stroke="#000000" stroke-width="1.00" stroke-miterlimit="0.00" transform="matrix(1.00, 0.00, 0.00, -1.00, -0.5, 116.3)"></path></g></g><g><clipPath id="clip-309"><path d="M 136.9 58.6 L 264.3 58.6 L 264.3 1.3 L 136.9 1.3 Z M 136.9 58.6 "></path></clipPath><g clip-path="url(#clip-309)"><path d="M 1.5 114.3 L 138.9 114.3 L 138.9 58.1 L 1.5 58.1 Z M 1.5 114.3 " fill="#869ABB"></path><path d="M 138.9 114.3 L 263.8 114.3 L 263.8 58.1 L 138.9 58.1 Z M 138.9 114.3 " fill="#869ABB"></path><path d="M 263.8 114.3 L 388.8 114.3 L 388.8 58.1 L 263.8 58.1 Z M 263.8 114.3 " fill="#869ABB"></path><path d="M 1.5 58.1 L 138.9 58.1 L 138.9 1.8 L 1.5 1.8 Z M 1.5 58.1 " fill="#869ABB"></path><path d="M 1.5 1.8 L 138.9 1.8 L 138.9 -54.5 L 1.5 -54.5 Z M 1.5 1.8 " fill="#869ABB"></path><path d="M 138.9 1.8 L 263.8 1.8 L 263.8 -54.5 L 138.9 -54.5 Z M 138.9 1.8 " fill="#000000" fill-opacity="0.25"></path><path d="M 263.8 1.8 L 388.8 1.8 L 388.8 -54.5 L 263.8 -54.5 Z M 263.8 1.8 " fill="#000000" fill-opacity="0.25"></path></g></g><image xlink:href="5CF07A188BC6F9A92C473C7CB6E206F3.png" width="18.00" height="23.00" transform="matrix(1.00, 0.00, -0.00, -1.00, 193.0, 39.0)"></image><g><clipPath id="clip-310"><path d="M 136.9 58.6 L 264.3 58.6 L 264.3 1.3 L 136.9 1.3 Z M 136.9 58.6 "></path></clipPath><g clip-path="url(#clip-310)"><g><clipPath id="clip-311"><path d="M 140.9 2.3 L 263.3 2.3 L 263.3 57.6 L 140.9 57.6 Z M 140.9 2.3 "></path></clipPath><g clip-path="url(#clip-311)"><text xml:space="preserve" font-family="Chalkduster" font-size="16.0" fill="#FEFFFE" transform="matrix(1.00, 0.00, -0.00, -1.00, 197.0, 22.0)">1</text></g></g></g></g><g><clipPath id="clip-312"><path d="M 136.9 58.6 L 264.3 58.6 L 264.3 1.3 L 136.9 1.3 Z M 136.9 58.6 "></path></clipPath><g clip-path="url(#clip-312)"><path d="M 264.4 2.0 L 264.4 58.3 " fill="none" stroke="#000000" stroke-width="1.00" stroke-miterlimit="0.00" transform="matrix(1.00, 0.00, 0.00, -1.00, -0.5, 116.3)"></path><path d="M 264.4 58.3 L 264.4 170.8 " fill="none" stroke="#000000" stroke-width="1.00" stroke-miterlimit="0.00" transform="matrix(1.00, 0.00, 0.00, -1.00, -0.5, 116.3)"></path><path d="M 389.3 2.0 L 389.3 58.3 " fill="none" stroke="#000000" stroke-width="1.00" stroke-miterlimit="0.00" transform="matrix(1.00, 0.00, 0.00, -1.00, -0.5, 116.3)"></path><path d="M 389.3 58.3 L 389.3 170.8 " fill="none" stroke="#000000" stroke-width="1.00" stroke-miterlimit="0.00" transform="matrix(1.00, 0.00, 0.00, -1.00, -0.5, 116.3)"></path><path d="M 2.0 114.5 L 139.4 114.5 " fill="none" stroke="#000000" stroke-width="1.00" stroke-miterlimit="0.00" transform="matrix(1.00, 0.00, 0.00, -1.00, -0.5, 116.3)"></path><path d="M 139.4 114.5 L 389.3 114.5 " fill="none" stroke="#000000" stroke-width="1.00" stroke-miterlimit="0.00" transform="matrix(1.00, 0.00, 0.00, -1.00, -0.5, 116.3)"></path><path d="M 2.0 170.8 L 139.4 170.8 " fill="none" stroke="#000000" stroke-width="1.00" stroke-miterlimit="0.00" transform="matrix(1.00, 0.00, 0.00, -1.00, -0.5, 116.3)"></path><path d="M 139.4 170.8 L 389.3 170.8 " fill="none" stroke="#000000" stroke-width="1.00" stroke-miterlimit="0.00" transform="matrix(1.00, 0.00, 0.00, -1.00, -0.5, 116.3)"></path><path d="M 139.4 2.0 L 139.4 170.8 " fill="none" stroke="#000000" stroke-width="4.00" stroke-miterlimit="0.00" transform="matrix(1.00, 0.00, 0.00, -1.00, -0.5, 116.3)"></path><path d="M 2.0 58.3 L 389.3 58.3 " fill="none" stroke="#000000" stroke-width="1.00" stroke-miterlimit="0.00" transform="matrix(1.00, 0.00, 0.00, -1.00, -0.5, 116.3)"></path><path d="M 2.0 2.0 L 2.0 58.3 " fill="none" stroke="#000000" stroke-width="1.00" stroke-miterlimit="0.00" transform="matrix(1.00, 0.00, 0.00, -1.00, -0.5, 116.3)"></path><path d="M 2.0 58.3 L 2.0 170.8 " fill="none" stroke="#000000" stroke-width="1.00" stroke-miterlimit="0.00" transform="matrix(1.00, 0.00, 0.00, -1.00, -0.5, 116.3)"></path><path d="M 2.0 2.0 L 389.3 2.0 " fill="none" stroke="#000000" stroke-width="1.00" stroke-miterlimit="0.00" transform="matrix(1.00, 0.00, 0.00, -1.00, -0.5, 116.3)"></path></g></g><g><clipPath id="clip-313"><path d="M 263.3 58.6 L 389.3 58.6 L 389.3 1.3 L 263.3 1.3 Z M 263.3 58.6 "></path></clipPath><g clip-path="url(#clip-313)"><path d="M 138.9 114.3 L 263.8 114.3 L 263.8 58.1 L 138.9 58.1 Z M 138.9 114.3 " fill="#869ABB"></path><path d="M 263.8 114.3 L 388.8 114.3 L 388.8 58.1 L 263.8 58.1 Z M 263.8 114.3 " fill="#869ABB"></path><path d="M 388.8 114.3 L 513.7 114.3 L 513.7 58.1 L 388.8 58.1 Z M 388.8 114.3 " fill="#869ABB"></path><path d="M 138.9 1.8 L 263.8 1.8 L 263.8 -54.5 L 138.9 -54.5 Z M 138.9 1.8 " fill="#000000" fill-opacity="0.25"></path><path d="M 263.8 1.8 L 388.8 1.8 L 388.8 -54.5 L 263.8 -54.5 Z M 263.8 1.8 " fill="#000000" fill-opacity="0.25"></path><path d="M 388.8 1.8 L 513.7 1.8 L 513.7 -54.5 L 388.8 -54.5 Z M 388.8 1.8 " fill="#000000" fill-opacity="0.25"></path></g></g><image xlink:href="0AC42A1088C98091ED1F4E6A1EB35E36.png" width="19.00" height="23.00" transform="matrix(1.00, 0.00, -0.00, -1.00, 317.0, 39.0)"></image><g><clipPath id="clip-314"><path d="M 263.3 58.6 L 389.3 58.6 L 389.3 1.3 L 263.3 1.3 Z M 263.3 58.6 "></path></clipPath><g clip-path="url(#clip-314)"><g><clipPath id="clip-315"><path d="M 264.3 2.3 L 388.3 2.3 L 388.3 57.6 L 264.3 57.6 Z M 264.3 2.3 "></path></clipPath><g clip-path="url(#clip-315)"><text xml:space="preserve" font-family="Chalkduster" font-size="16.0" fill="#FEFFFE" transform="matrix(1.00, 0.00, -0.00, -1.00, 322.0, 22.0)">2</text></g></g></g></g><g><clipPath id="clip-316"><path d="M 263.3 58.6 L 389.3 58.6 L 389.3 1.3 L 263.3 1.3 Z M 263.3 58.6 "></path></clipPath><g clip-path="url(#clip-316)"><path d="M 264.4 2.0 L 264.4 58.3 " fill="none" stroke="#000000" stroke-width="1.00" stroke-miterlimit="0.00" transform="matrix(1.00, 0.00, 0.00, -1.00, -0.5, 116.3)"></path><path d="M 264.4 58.3 L 264.4 170.8 " fill="none" stroke="#000000" stroke-width="1.00" stroke-miterlimit="0.00" transform="matrix(1.00, 0.00, 0.00, -1.00, -0.5, 116.3)"></path><path d="M 389.3 2.0 L 389.3 58.3 " fill="none" stroke="#000000" stroke-width="1.00" stroke-miterlimit="0.00" transform="matrix(1.00, 0.00, 0.00, -1.00, -0.5, 116.3)"></path><path d="M 389.3 58.3 L 389.3 170.8 " fill="none" stroke="#000000" stroke-width="1.00" stroke-miterlimit="0.00" transform="matrix(1.00, 0.00, 0.00, -1.00, -0.5, 116.3)"></path><path d="M 514.3 2.0 L 514.3 170.8 " fill="none" stroke="#000000" stroke-width="4.00" stroke-miterlimit="0.00" transform="matrix(1.00, 0.00, 0.00, -1.00, -0.5, 116.3)"></path><path d="M 139.4 114.5 L 514.3 114.5 " fill="none" stroke="#000000" stroke-width="1.00" stroke-miterlimit="0.00" transform="matrix(1.00, 0.00, 0.00, -1.00, -0.5, 116.3)"></path><path d="M 139.4 170.8 L 514.3 170.8 " fill="none" stroke="#000000" stroke-width="1.00" stroke-miterlimit="0.00" transform="matrix(1.00, 0.00, 0.00, -1.00, -0.5, 116.3)"></path><path d="M 139.4 2.0 L 139.4 170.8 " fill="none" stroke="#000000" stroke-width="4.00" stroke-miterlimit="0.00" transform="matrix(1.00, 0.00, 0.00, -1.00, -0.5, 116.3)"></path><path d="M 139.4 58.3 L 514.3 58.3 " fill="none" stroke="#000000" stroke-width="1.00" stroke-miterlimit="0.00" transform="matrix(1.00, 0.00, 0.00, -1.00, -0.5, 116.3)"></path><path d="M 139.4 2.0 L 514.3 2.0 " fill="none" stroke="#000000" stroke-width="1.00" stroke-miterlimit="0.00" transform="matrix(1.00, 0.00, 0.00, -1.00, -0.5, 116.3)"></path></g></g><g><clipPath id="clip-317"><path d="M 388.3 58.6 L 515.7 58.6 L 515.7 1.3 L 388.3 1.3 Z M 388.3 58.6 "></path></clipPath><g clip-path="url(#clip-317)"><path d="M 263.8 114.3 L 388.8 114.3 L 388.8 58.1 L 263.8 58.1 Z M 263.8 114.3 " fill="#869ABB"></path><path d="M 388.8 114.3 L 513.7 114.3 L 513.7 58.1 L 388.8 58.1 Z M 388.8 114.3 " fill="#869ABB"></path><path d="M 513.7 114.3 L 638.7 114.3 L 638.7 58.1 L 513.7 58.1 Z M 513.7 114.3 " fill="#869ABB"></path><path d="M 263.8 1.8 L 388.8 1.8 L 388.8 -54.5 L 263.8 -54.5 Z M 263.8 1.8 " fill="#000000" fill-opacity="0.25"></path><path d="M 388.8 1.8 L 513.7 1.8 L 513.7 -54.5 L 388.8 -54.5 Z M 388.8 1.8 " fill="#000000" fill-opacity="0.25"></path><path d="M 513.7 1.8 L 638.7 1.8 L 638.7 -54.5 L 513.7 -54.5 Z M 513.7 1.8 " fill="#000000" fill-opacity="0.25"></path></g></g><image xlink:href="1736D47D1B2025C47B146D19CEF54500.png" width="21.00" height="23.00" transform="matrix(1.00, 0.00, -0.00, -1.00, 440.0, 39.0)"></image><g><clipPath id="clip-318"><path d="M 388.3 58.6 L 515.7 58.6 L 515.7 1.3 L 388.3 1.3 Z M 388.3 58.6 "></path></clipPath><g clip-path="url(#clip-318)"><g><clipPath id="clip-319"><path d="M 389.3 2.3 L 511.7 2.3 L 511.7 57.6 L 389.3 57.6 Z M 389.3 2.3 "></path></clipPath><g clip-path="url(#clip-319)"><text xml:space="preserve" font-family="Chalkduster" font-size="16.0" fill="#FEFFFE" transform="matrix(1.00, 0.00, -0.00, -1.00, 445.0, 22.0)">3</text></g></g></g></g><g><clipPath id="clip-320"><path d="M 388.3 58.6 L 515.7 58.6 L 515.7 1.3 L 388.3 1.3 Z M 388.3 58.6 "></path></clipPath><g clip-path="url(#clip-320)"><path d="M 264.4 2.0 L 264.4 58.3 " fill="none" stroke="#000000" stroke-width="1.00" stroke-miterlimit="0.00" transform="matrix(1.00, 0.00, 0.00, -1.00, -0.5, 116.3)"></path><path d="M 264.4 58.3 L 264.4 170.8 " fill="none" stroke="#000000" stroke-width="1.00" stroke-miterlimit="0.00" transform="matrix(1.00, 0.00, 0.00, -1.00, -0.5, 116.3)"></path><path d="M 389.3 2.0 L 389.3 58.3 " fill="none" stroke="#000000" stroke-width="1.00" stroke-miterlimit="0.00" transform="matrix(1.00, 0.00, 0.00, -1.00, -0.5, 116.3)"></path><path d="M 389.3 58.3 L 389.3 170.8 " fill="none" stroke="#000000" stroke-width="1.00" stroke-miterlimit="0.00" transform="matrix(1.00, 0.00, 0.00, -1.00, -0.5, 116.3)"></path><path d="M 514.3 2.0 L 514.3 170.8 " fill="none" stroke="#000000" stroke-width="4.00" stroke-miterlimit="0.00" transform="matrix(1.00, 0.00, 0.00, -1.00, -0.5, 116.3)"></path><path d="M 639.2 2.0 L 639.2 58.3 " fill="none" stroke="#000000" stroke-width="1.00" stroke-miterlimit="0.00" transform="matrix(1.00, 0.00, 0.00, -1.00, -0.5, 116.3)"></path><path d="M 639.2 58.3 L 639.2 170.8 " fill="none" stroke="#000000" stroke-width="1.00" stroke-miterlimit="0.00" transform="matrix(1.00, 0.00, 0.00, -1.00, -0.5, 116.3)"></path><path d="M 264.4 114.5 L 639.2 114.5 " fill="none" stroke="#000000" stroke-width="1.00" stroke-miterlimit="0.00" transform="matrix(1.00, 0.00, 0.00, -1.00, -0.5, 116.3)"></path><path d="M 264.4 170.8 L 639.2 170.8 " fill="none" stroke="#000000" stroke-width="1.00" stroke-miterlimit="0.00" transform="matrix(1.00, 0.00, 0.00, -1.00, -0.5, 116.3)"></path><path d="M 264.4 58.3 L 639.2 58.3 " fill="none" stroke="#000000" stroke-width="1.00" stroke-miterlimit="0.00" transform="matrix(1.00, 0.00, 0.00, -1.00, -0.5, 116.3)"></path><path d="M 264.4 2.0 L 639.2 2.0 " fill="none" stroke="#000000" stroke-width="1.00" stroke-miterlimit="0.00" transform="matrix(1.00, 0.00, 0.00, -1.00, -0.5, 116.3)"></path></g></g><g><clipPath id="clip-321"><path d="M 511.7 58.6 L 639.2 58.6 L 639.2 1.3 L 511.7 1.3 Z M 511.7 58.6 "></path></clipPath><g clip-path="url(#clip-321)"><path d="M 388.8 114.3 L 513.7 114.3 L 513.7 58.1 L 388.8 58.1 Z M 388.8 114.3 " fill="#869ABB"></path><path d="M 513.7 114.3 L 638.7 114.3 L 638.7 58.1 L 513.7 58.1 Z M 513.7 114.3 " fill="#869ABB"></path><path d="M 638.7 114.3 L 763.6 114.3 L 763.6 58.1 L 638.7 58.1 Z M 638.7 114.3 " fill="#869ABB"></path><path d="M 388.8 1.8 L 513.7 1.8 L 513.7 -54.5 L 388.8 -54.5 Z M 388.8 1.8 " fill="#000000" fill-opacity="0.25"></path><path d="M 513.7 1.8 L 638.7 1.8 L 638.7 -54.5 L 513.7 -54.5 Z M 513.7 1.8 " fill="#000000" fill-opacity="0.25"></path><path d="M 638.7 1.8 L 763.6 1.8 L 763.6 -54.5 L 638.7 -54.5 Z M 638.7 1.8 " fill="#000000" fill-opacity="0.25"></path></g></g><g><clipPath id="clip-322"><path d="M 511.7 58.6 L 639.2 58.6 L 639.2 1.3 L 511.7 1.3 Z M 511.7 58.6 "></path></clipPath><g clip-path="url(#clip-322)"><path d="M 389.3 2.0 L 389.3 58.3 " fill="none" stroke="#000000" stroke-width="1.00" stroke-miterlimit="0.00" transform="matrix(1.00, 0.00, 0.00, -1.00, -0.5, 116.3)"></path><path d="M 389.3 58.3 L 389.3 170.8 " fill="none" stroke="#000000" stroke-width="1.00" stroke-miterlimit="0.00" transform="matrix(1.00, 0.00, 0.00, -1.00, -0.5, 116.3)"></path><path d="M 514.3 2.0 L 514.3 170.8 " fill="none" stroke="#000000" stroke-width="4.00" stroke-miterlimit="0.00" transform="matrix(1.00, 0.00, 0.00, -1.00, -0.5, 116.3)"></path><path d="M 639.2 2.0 L 639.2 58.3 " fill="none" stroke="#000000" stroke-width="1.00" stroke-miterlimit="0.00" transform="matrix(1.00, 0.00, 0.00, -1.00, -0.5, 116.3)"></path><path d="M 639.2 58.3 L 639.2 170.8 " fill="none" stroke="#000000" stroke-width="1.00" stroke-miterlimit="0.00" transform="matrix(1.00, 0.00, 0.00, -1.00, -0.5, 116.3)"></path><path d="M 764.1 2.0 L 764.1 58.3 " fill="none" stroke="#000000" stroke-width="1.00" stroke-miterlimit="0.00" transform="matrix(1.00, 0.00, 0.00, -1.00, -0.5, 116.3)"></path><path d="M 764.1 58.3 L 764.1 170.8 " fill="none" stroke="#000000" stroke-width="1.00" stroke-miterlimit="0.00" transform="matrix(1.00, 0.00, 0.00, -1.00, -0.5, 116.3)"></path><path d="M 389.3 114.5 L 764.1 114.5 " fill="none" stroke="#000000" stroke-width="1.00" stroke-miterlimit="0.00" transform="matrix(1.00, 0.00, 0.00, -1.00, -0.5, 116.3)"></path><path d="M 389.3 170.8 L 764.1 170.8 " fill="none" stroke="#000000" stroke-width="1.00" stroke-miterlimit="0.00" transform="matrix(1.00, 0.00, 0.00, -1.00, -0.5, 116.3)"></path><path d="M 389.3 58.3 L 764.1 58.3 " fill="none" stroke="#000000" stroke-width="1.00" stroke-miterlimit="0.00" transform="matrix(1.00, 0.00, 0.00, -1.00, -0.5, 116.3)"></path><path d="M 389.3 2.0 L 764.1 2.0 " fill="none" stroke="#000000" stroke-width="1.00" stroke-miterlimit="0.00" transform="matrix(1.00, 0.00, 0.00, -1.00, -0.5, 116.3)"></path></g></g><g><clipPath id="clip-323"><path d="M 638.2 58.6 L 764.1 58.6 L 764.1 1.3 L 638.2 1.3 Z M 638.2 58.6 "></path></clipPath><g clip-path="url(#clip-323)"><path d="M 513.7 114.3 L 638.7 114.3 L 638.7 58.1 L 513.7 58.1 Z M 513.7 114.3 " fill="#869ABB"></path><path d="M 638.7 114.3 L 763.6 114.3 L 763.6 58.1 L 638.7 58.1 Z M 638.7 114.3 " fill="#869ABB"></path><path d="M 763.6 114.3 L 888.5 114.3 L 888.5 58.1 L 763.6 58.1 Z M 763.6 114.3 " fill="#869ABB"></path><path d="M 513.7 1.8 L 638.7 1.8 L 638.7 -54.5 L 513.7 -54.5 Z M 513.7 1.8 " fill="#000000" fill-opacity="0.25"></path><path d="M 638.7 1.8 L 763.6 1.8 L 763.6 -54.5 L 638.7 -54.5 Z M 638.7 1.8 " fill="#000000" fill-opacity="0.25"></path><path d="M 763.6 1.8 L 888.5 1.8 L 888.5 -54.5 L 763.6 -54.5 Z M 763.6 1.8 " fill="#000000" fill-opacity="0.25"></path></g></g><g><clipPath id="clip-324"><path d="M 638.2 58.6 L 764.1 58.6 L 764.1 1.3 L 638.2 1.3 Z M 638.2 58.6 "></path></clipPath><g clip-path="url(#clip-324)"><path d="M 514.3 2.0 L 514.3 170.8 " fill="none" stroke="#000000" stroke-width="4.00" stroke-miterlimit="0.00" transform="matrix(1.00, 0.00, 0.00, -1.00, -0.5, 116.3)"></path><path d="M 639.2 2.0 L 639.2 58.3 " fill="none" stroke="#000000" stroke-width="1.00" stroke-miterlimit="0.00" transform="matrix(1.00, 0.00, 0.00, -1.00, -0.5, 116.3)"></path><path d="M 639.2 58.3 L 639.2 170.8 " fill="none" stroke="#000000" stroke-width="1.00" stroke-miterlimit="0.00" transform="matrix(1.00, 0.00, 0.00, -1.00, -0.5, 116.3)"></path><path d="M 764.1 2.0 L 764.1 58.3 " fill="none" stroke="#000000" stroke-width="1.00" stroke-miterlimit="0.00" transform="matrix(1.00, 0.00, 0.00, -1.00, -0.5, 116.3)"></path><path d="M 764.1 58.3 L 764.1 170.8 " fill="none" stroke="#000000" stroke-width="1.00" stroke-miterlimit="0.00" transform="matrix(1.00, 0.00, 0.00, -1.00, -0.5, 116.3)"></path><path d="M 514.3 114.5 L 889.1 114.5 " fill="none" stroke="#000000" stroke-width="1.00" stroke-miterlimit="0.00" transform="matrix(1.00, 0.00, 0.00, -1.00, -0.5, 116.3)"></path><path d="M 514.3 170.8 L 889.1 170.8 " fill="none" stroke="#000000" stroke-width="1.00" stroke-miterlimit="0.00" transform="matrix(1.00, 0.00, 0.00, -1.00, -0.5, 116.3)"></path><path d="M 514.3 58.3 L 889.1 58.3 " fill="none" stroke="#000000" stroke-width="1.00" stroke-miterlimit="0.00" transform="matrix(1.00, 0.00, 0.00, -1.00, -0.5, 116.3)"></path><path d="M 889.1 2.0 L 889.1 58.3 " fill="none" stroke="#000000" stroke-width="1.00" stroke-miterlimit="0.00" transform="matrix(1.00, 0.00, 0.00, -1.00, -0.5, 116.3)"></path><path d="M 889.1 58.3 L 889.1 170.8 " fill="none" stroke="#000000" stroke-width="1.00" stroke-miterlimit="0.00" transform="matrix(1.00, 0.00, 0.00, -1.00, -0.5, 116.3)"></path><path d="M 514.3 2.0 L 889.1 2.0 " fill="none" stroke="#000000" stroke-width="1.00" stroke-miterlimit="0.00" transform="matrix(1.00, 0.00, 0.00, -1.00, -0.5, 116.3)"></path></g></g><g><clipPath id="clip-325"><path d="M 763.1 58.6 L 889.0 58.6 L 889.0 1.3 L 763.1 1.3 Z M 763.1 58.6 "></path></clipPath><g clip-path="url(#clip-325)"><path d="M 638.7 114.3 L 763.6 114.3 L 763.6 58.1 L 638.7 58.1 Z M 638.7 114.3 " fill="#869ABB"></path><path d="M 763.6 114.3 L 888.5 114.3 L 888.5 58.1 L 763.6 58.1 Z M 763.6 114.3 " fill="#869ABB"></path><path d="M 638.7 1.8 L 763.6 1.8 L 763.6 -54.5 L 638.7 -54.5 Z M 638.7 1.8 " fill="#000000" fill-opacity="0.25"></path><path d="M 763.6 1.8 L 888.5 1.8 L 888.5 -54.5 L 763.6 -54.5 Z M 763.6 1.8 " fill="#000000" fill-opacity="0.25"></path></g></g><g><clipPath id="clip-326"><path d="M 763.1 58.6 L 889.0 58.6 L 889.0 1.3 L 763.1 1.3 Z M 763.1 58.6 "></path></clipPath><g clip-path="url(#clip-326)"><path d="M 639.2 2.0 L 639.2 58.3 " fill="none" stroke="#000000" stroke-width="1.00" stroke-miterlimit="0.00" transform="matrix(1.00, 0.00, 0.00, -1.00, -0.5, 116.3)"></path><path d="M 639.2 58.3 L 639.2 170.8 " fill="none" stroke="#000000" stroke-width="1.00" stroke-miterlimit="0.00" transform="matrix(1.00, 0.00, 0.00, -1.00, -0.5, 116.3)"></path><path d="M 764.1 2.0 L 764.1 58.3 " fill="none" stroke="#000000" stroke-width="1.00" stroke-miterlimit="0.00" transform="matrix(1.00, 0.00, 0.00, -1.00, -0.5, 116.3)"></path><path d="M 764.1 58.3 L 764.1 170.8 " fill="none" stroke="#000000" stroke-width="1.00" stroke-miterlimit="0.00" transform="matrix(1.00, 0.00, 0.00, -1.00, -0.5, 116.3)"></path><path d="M 639.2 114.5 L 889.6 114.5 " fill="none" stroke="#000000" stroke-width="1.00" stroke-miterlimit="0.00" transform="matrix(1.00, 0.00, 0.00, -1.00, -0.5, 116.3)"></path><path d="M 639.2 170.8 L 889.1 170.8 " fill="none" stroke="#000000" stroke-width="1.00" stroke-miterlimit="0.00" transform="matrix(1.00, 0.00, 0.00, -1.00, -0.5, 116.3)"></path><path d="M 639.2 58.3 L 889.6 58.3 " fill="none" stroke="#000000" stroke-width="1.00" stroke-miterlimit="0.00" transform="matrix(1.00, 0.00, 0.00, -1.00, -0.5, 116.3)"></path><path d="M 889.1 2.0 L 889.1 58.3 " fill="none" stroke="#000000" stroke-width="1.00" stroke-miterlimit="0.00" transform="matrix(1.00, 0.00, 0.00, -1.00, -0.5, 116.3)"></path><path d="M 889.1 58.3 L 889.1 170.8 " fill="none" stroke="#000000" stroke-width="1.00" stroke-miterlimit="0.00" transform="matrix(1.00, 0.00, 0.00, -1.00, -0.5, 116.3)"></path><path d="M 639.2 2.0 L 889.1 2.0 " fill="none" stroke="#000000" stroke-width="1.00" stroke-miterlimit="0.00" transform="matrix(1.00, 0.00, 0.00, -1.00, -0.5, 116.3)"></path></g></g></g></svg>