<?xml version="1.0" encoding="UTF-8" standalone="no"?><svg xmlns="http://www.w3.org/2000/svg" xmlns:xlink="http://www.w3.org/1999/xlink" clip-rule="evenodd" stroke-miterlimit="4.00" viewBox="0 0 890 397"><desc>SVG generated by Keynote</desc><defs></defs><g transform="matrix(1.00, 0.00, -0.00, -1.00, 0.0, 397.0)"><g><clipPath id="clip-251"><path d="M 1.0 395.8 L 889.0 395.8 L 889.0 1.0 L 1.0 1.0 Z M 1.0 395.8 "></path></clipPath><g clip-path="url(#clip-251)"><path d="M 264.4 1.5 L 264.4 58.3 " fill="none" stroke="#FEFFFE" stroke-opacity="0.50" stroke-width="1.00" transform="matrix(1.00, 0.00, 0.00, -1.00, -0.5, 397.3)"></path><path d="M 264.4 58.3 L 264.4 396.4 " fill="none" stroke="#FEFFFE" stroke-opacity="0.50" stroke-width="1.00" transform="matrix(1.00, 0.00, 0.00, -1.00, -0.5, 397.3)"></path><path d="M 389.3 1.5 L 389.3 58.3 " fill="none" stroke="#FEFFFE" stroke-opacity="0.50" stroke-width="1.00" transform="matrix(1.00, 0.00, 0.00, -1.00, -0.5, 397.3)"></path><path d="M 389.3 58.3 L 389.3 396.4 " fill="none" stroke="#FEFFFE" stroke-opacity="0.50" stroke-width="1.00" transform="matrix(1.00, 0.00, 0.00, -1.00, -0.5, 397.3)"></path><path d="M 514.3 1.5 L 514.3 396.4 " fill="none" stroke="#FEFFFE" stroke-opacity="0.50" stroke-width="4.00" transform="matrix(1.00, 0.00, 0.00, -1.00, -0.5, 397.3)"></path><path d="M 639.2 1.5 L 639.2 58.3 " fill="none" stroke="#FEFFFE" stroke-opacity="0.50" stroke-width="1.00" transform="matrix(1.00, 0.00, 0.00, -1.00, -0.5, 397.3)"></path><path d="M 639.2 58.3 L 639.2 396.4 " fill="none" stroke="#FEFFFE" stroke-opacity="0.50" stroke-width="1.00" transform="matrix(1.00, 0.00, 0.00, -1.00, -0.5, 397.3)"></path><path d="M 764.1 1.5 L 764.1 58.3 " fill="none" stroke="#FEFFFE" stroke-opacity="0.50" stroke-width="1.00" transform="matrix(1.00, 0.00, 0.00, -1.00, -0.5, 397.3)"></path><path d="M 764.1 58.3 L 764.1 396.4 " fill="none" stroke="#FEFFFE" stroke-opacity="0.50" stroke-width="1.00" transform="matrix(1.00, 0.00, 0.00, -1.00, -0.5, 397.3)"></path><path d="M 1.5 114.5 L 139.4 114.5 " fill="none" stroke="#FEFFFE" stroke-opacity="0.50" stroke-width="1.00" transform="matrix(1.00, 0.00, 0.00, -1.00, -0.5, 397.3)"></path><path d="M 139.4 114.5 L 889.6 114.5 " fill="none" stroke="#FEFFFE" stroke-opacity="0.50" stroke-width="1.00" transform="matrix(1.00, 0.00, 0.00, -1.00, -0.5, 397.3)"></path><path d="M 1.5 170.8 L 139.4 170.8 " fill="none" stroke="#FEFFFE" stroke-opacity="0.50" stroke-width="1.00" transform="matrix(1.00, 0.00, 0.00, -1.00, -0.5, 397.3)"></path><path d="M 139.4 170.8 L 889.6 170.8 " fill="none" stroke="#FEFFFE" stroke-opacity="0.50" stroke-width="1.00" transform="matrix(1.00, 0.00, 0.00, -1.00, -0.5, 397.3)"></path><path d="M 1.5 227.1 L 139.4 227.1 " fill="none" stroke="#FEFFFE" stroke-opacity="0.50" stroke-width="1.00" transform="matrix(1.00, 0.00, 0.00, -1.00, -0.5, 397.3)"></path><path d="M 139.4 227.1 L 889.6 227.1 " fill="none" stroke="#FEFFFE" stroke-opacity="0.50" stroke-width="1.00" transform="matrix(1.00, 0.00, 0.00, -1.00, -0.5, 397.3)"></path><path d="M 1.5 283.3 L 139.4 283.3 " fill="none" stroke="#FEFFFE" stroke-opacity="0.50" stroke-width="1.00" transform="matrix(1.00, 0.00, 0.00, -1.00, -0.5, 397.3)"></path><path d="M 139.4 283.3 L 889.6 283.3 " fill="none" stroke="#FEFFFE" stroke-opacity="0.50" stroke-width="1.00" transform="matrix(1.00, 0.00, 0.00, -1.00, -0.5, 397.3)"></path><path d="M 1.5 339.6 L 139.4 339.6 " fill="none" stroke="#FEFFFE" stroke-opacity="0.50" stroke-width="1.00" transform="matrix(1.00, 0.00, 0.00, -1.00, -0.5, 397.3)"></path><path d="M 139.4 339.6 L 889.6 339.6 " fill="none" stroke="#FEFFFE" stroke-opacity="0.50" stroke-width="1.00" transform="matrix(1.00, 0.00, 0.00, -1.00, -0.5, 397.3)"></path><path d="M 139.4 1.5 L 139.4 396.4 " fill="none" stroke="#FEFFFE" stroke-opacity="0.50" stroke-width="4.00" transform="matrix(1.00, 0.00, 0.00, -1.00, -0.5, 397.3)"></path><path d="M 1.5 58.3 L 889.6 58.3 " fill="none" stroke="#FEFFFE" stroke-opacity="0.50" stroke-width="1.00" transform="matrix(1.00, 0.00, 0.00, -1.00, -0.5, 397.3)"></path><path d="M 2.0 1.5 L 2.0 58.3 " fill="none" stroke="#FEFFFE" stroke-opacity="0.50" stroke-width="1.00" transform="matrix(1.00, 0.00, 0.00, -1.00, -0.5, 397.3)"></path><path d="M 2.0 58.3 L 2.0 396.4 " fill="none" stroke="#FEFFFE" stroke-opacity="0.50" stroke-width="1.00" transform="matrix(1.00, 0.00, 0.00, -1.00, -0.5, 397.3)"></path><path d="M 889.1 1.5 L 889.1 58.3 " fill="none" stroke="#FEFFFE" stroke-opacity="0.50" stroke-width="1.00" transform="matrix(1.00, 0.00, 0.00, -1.00, -0.5, 397.3)"></path><path d="M 889.1 58.3 L 889.1 396.4 " fill="none" stroke="#FEFFFE" stroke-opacity="0.50" stroke-width="1.00" transform="matrix(1.00, 0.00, 0.00, -1.00, -0.5, 397.3)"></path><path d="M 1.5 2.0 L 889.6 2.0 " fill="none" stroke="#FEFFFE" stroke-opacity="0.50" stroke-width="1.00" transform="matrix(1.00, 0.00, 0.00, -1.00, -0.5, 397.3)"></path><path d="M 1.5 395.9 L 139.4 395.9 " fill="none" stroke="#FEFFFE" stroke-opacity="0.50" stroke-width="1.00" transform="matrix(1.00, 0.00, 0.00, -1.00, -0.5, 397.3)"></path><path d="M 139.4 395.9 L 889.6 395.9 " fill="none" stroke="#FEFFFE" stroke-opacity="0.50" stroke-width="1.00" transform="matrix(1.00, 0.00, 0.00, -1.00, -0.5, 397.3)"></path></g></g></g></svg>