<?xml version="1.0" encoding="UTF-8" standalone="no"?><svg xmlns="http://www.w3.org/2000/svg" xmlns:xlink="http://www.w3.org/1999/xlink" clip-rule="evenodd" stroke-miterlimit="4.00" viewBox="0 0 319 121"><desc>SVG generated by Keynote</desc><defs></defs><g transform="matrix(1.00, 0.00, -0.00, -1.00, 0.0, 121.0)"><image xlink:href="../../1BE7A03E-C66D-4413-94C1-F85C6D2757AE/assets/C96CBBF2F715F6E2E3B6F8A701A0292F.png" width="316.00" height="118.00" transform="matrix(1.00, 0.00, -0.00, -1.00, 1.4, 120.0)" opacity="0.50"></image><g><clipPath id="clip-248"><path d="M 264.9 96.4 C 323.1 76.8 323.1 45.2 264.9 25.6 C 206.7 6.1 112.3 6.1 54.1 25.6 C -4.2 45.2 -4.2 76.8 54.1 96.4 C 112.3 115.9 206.7 115.9 264.9 96.4 Z M 264.9 96.4 "></path></clipPath><g clip-path="url(#clip-248)"><image xlink:href="../../1BE7A03E-C66D-4413-94C1-F85C6D2757AE/assets/59DBD66EA15A3D40E065F836EF2595FD.jpeg" width="400.00" height="400.00" transform="matrix(1.00, 0.00, -0.00, -1.00, 10.4, 111.0)"></image></g></g><path d="M 81.3 14.5 C 80.8 14.6 80.3 14.7 79.6 14.9 C 79.9 14.9 80.2 14.9 80.2 15.0 C 80.8 14.8 81.7 14.6 83.1 14.3 C 83.0 14.3 82.4 14.4 81.9 14.5 C 81.3 14.6 81.4 14.5 81.3 14.5 C 81.3 14.5 81.3 14.5 81.3 14.5 Z M 72.8 105.1 C 71.6 104.8 72.8 105.3 73.3 105.5 C 73.4 105.4 73.4 105.4 73.9 105.5 C 73.9 105.7 72.9 105.5 72.1 105.4 C 69.0 104.6 71.4 104.8 72.8 105.1 C 72.8 105.1 72.8 105.1 72.8 105.1 Z M 240.9 106.1 C 243.5 105.6 240.7 105.9 240.3 105.9 C 241.5 105.6 240.5 105.4 242.0 105.1 C 242.3 105.1 242.8 105.1 243.1 105.1 C 242.5 105.3 241.5 105.5 241.4 105.6 C 242.3 105.4 243.5 105.1 243.7 105.2 C 241.8 105.7 243.4 105.5 243.8 105.6 C 242.1 105.9 241.6 106.3 240.9 106.1 C 240.9 106.1 240.9 106.1 240.9 106.1 Z M 281.4 29.3 C 282.3 29.7 283.1 30.1 282.8 30.1 C 281.8 29.6 281.2 29.3 280.6 29.0 C 280.4 29.0 280.7 29.3 279.8 28.9 C 278.9 28.2 279.5 28.2 280.1 28.3 C 280.1 28.5 283.4 30.0 281.4 29.3 C 281.4 29.3 281.4 29.3 281.4 29.3 Z M 212.0 11.9 C 209.7 11.5 211.8 12.2 209.5 11.8 C 209.6 11.6 209.2 11.3 210.8 11.5 C 210.9 11.6 211.8 11.8 212.0 11.9 C 212.0 11.9 212.0 11.9 212.0 11.9 Z M 170.2 112.2 C 170.2 112.3 172.0 112.2 171.6 112.5 C 170.7 112.5 169.8 112.5 168.9 112.5 C 168.7 112.4 169.1 112.2 170.2 112.2 C 170.2 112.2 170.2 112.2 170.2 112.2 Z M 256.9 99.7 C 259.4 99.3 261.8 98.1 261.1 98.6 C 262.1 98.5 259.7 99.8 259.7 99.5 C 259.4 99.3 255.1 100.3 256.9 99.7 C 256.9 99.7 256.9 99.7 256.9 99.7 Z M 86.9 103.8 C 89.6 104.5 89.2 103.8 91.0 104.4 C 90.3 104.3 90.0 104.3 89.8 104.4 C 90.2 104.4 90.9 104.6 90.9 104.6 C 89.6 104.4 88.0 104.2 86.9 103.8 C 86.9 103.8 86.9 103.8 86.9 103.8 Z M 123.3 9.2 C 123.8 9.1 124.0 9.0 123.9 8.9 C 126.0 8.8 125.9 8.6 127.1 8.7 C 127.2 9.0 125.5 9.0 124.0 9.1 C 123.9 9.2 123.4 9.2 123.3 9.2 C 123.3 9.2 123.3 9.2 123.3 9.2 Z M 180.8 9.1 C 180.7 8.9 179.5 8.8 181.4 8.8 C 183.5 9.2 181.6 9.3 179.4 9.3 C 179.4 9.4 179.4 9.5 179.4 9.7 C 180.3 9.7 180.8 9.8 181.4 9.8 C 181.8 9.5 183.2 10.2 186.5 10.2 C 184.9 10.3 186.6 10.6 184.6 10.4 C 185.1 10.6 183.7 10.5 183.9 10.8 C 184.8 10.7 187.0 10.8 186.5 10.5 C 187.6 10.6 188.5 10.7 189.1 10.8 C 189.9 11.1 187.0 10.7 187.8 11.0 C 188.4 11.0 188.6 11.1 189.1 11.1 C 189.2 11.1 188.9 10.9 189.7 10.9 C 191.8 11.2 189.3 11.2 192.2 11.5 C 192.4 11.3 191.6 11.2 191.6 11.1 C 193.0 11.0 192.9 11.2 194.2 11.2 C 194.4 11.4 193.3 11.3 194.2 11.4 C 195.0 11.1 196.8 11.9 198.7 11.7 C 197.5 11.1 199.0 11.9 200.6 11.5 C 201.0 11.7 199.8 11.9 201.2 12.1 C 200.8 11.4 206.4 12.1 201.9 11.2 C 204.3 11.4 205.2 11.0 203.3 10.7 C 207.4 11.3 206.1 10.8 207.7 11.0 C 209.3 11.2 206.8 11.0 207.7 11.3 C 206.0 11.1 206.4 11.3 205.2 11.0 C 205.2 11.1 204.8 11.2 204.5 11.2 C 206.2 11.2 208.2 11.8 206.9 11.9 C 206.1 11.8 206.9 11.6 205.7 11.5 C 206.1 11.9 204.5 11.3 204.4 11.5 C 205.2 11.9 202.7 11.9 205.0 12.2 C 205.1 12.1 205.1 12.0 205.1 11.8 C 205.7 11.9 206.3 12.0 206.9 12.0 C 207.4 12.3 207.0 12.4 207.5 12.6 C 208.6 12.7 209.1 12.7 209.4 12.6 C 208.2 12.4 206.7 12.0 208.8 12.2 C 208.0 12.6 211.8 12.7 210.0 12.8 C 212.3 13.2 213.5 13.0 213.7 13.3 C 214.9 13.5 214.2 13.1 215.6 13.3 C 217.9 13.9 217.5 13.5 220.5 14.1 C 220.9 13.8 220.8 14.2 221.7 14.4 C 221.8 14.3 221.8 14.1 221.8 14.0 C 222.8 14.4 225.2 14.9 227.8 15.0 C 228.4 15.2 227.9 15.4 229.5 15.6 C 231.3 15.6 233.3 16.3 235.4 16.4 C 235.6 16.6 237.0 16.9 237.7 16.9 C 238.1 17.1 237.0 17.2 238.3 17.4 C 239.2 17.4 237.7 17.0 239.5 17.3 C 239.3 17.5 241.2 17.5 241.2 17.7 C 240.6 17.7 240.0 17.6 239.4 17.6 C 240.2 17.8 240.0 17.9 240.6 18.0 C 240.5 17.7 241.8 18.2 242.3 18.4 C 242.3 18.2 242.4 18.2 242.9 18.2 C 243.9 18.4 244.7 18.6 245.2 18.6 C 246.4 19.1 244.4 18.7 245.7 19.0 C 246.4 18.5 247.5 19.5 250.2 19.8 C 250.7 20.1 251.7 20.5 253.4 21.0 C 253.6 20.8 251.8 20.5 251.8 20.3 C 254.2 21.0 251.4 20.0 252.9 20.4 C 256.3 21.5 258.4 22.1 261.8 23.3 C 261.8 23.2 264.5 23.9 264.4 23.9 C 264.0 23.8 264.4 24.0 264.9 24.3 C 265.5 24.5 267.0 25.1 268.0 25.5 C 268.6 25.3 271.6 26.0 271.8 25.9 C 272.4 26.3 272.2 26.2 272.4 26.7 C 275.4 28.0 277.1 28.3 278.7 29.4 C 278.6 29.2 280.0 29.7 281.1 30.2 C 280.7 30.2 280.0 30.0 279.3 29.9 C 280.8 30.5 281.0 30.7 282.2 31.3 C 283.8 31.3 285.4 33.1 286.6 33.0 C 288.4 34.0 288.0 34.0 289.6 35.0 C 289.6 34.8 289.8 34.8 290.4 35.0 C 289.3 34.5 288.4 34.2 287.9 33.6 C 290.4 34.9 283.4 30.4 287.7 32.4 C 287.8 32.6 287.3 32.5 288.2 33.0 C 290.6 34.2 289.3 33.3 288.3 32.8 C 290.0 33.5 291.5 34.5 290.4 33.6 C 293.9 35.5 291.6 34.4 292.7 35.2 C 298.6 38.7 304.7 43.6 307.9 49.6 C 308.3 49.6 309.7 53.0 309.9 54.1 C 310.7 55.6 311.2 57.5 310.9 58.1 C 311.3 58.3 310.9 60.2 311.2 60.4 C 311.2 59.6 311.3 59.1 311.4 59.9 C 311.4 62.4 310.5 66.1 310.3 67.6 C 309.7 68.4 309.1 70.0 308.6 71.1 C 308.4 71.2 308.8 70.4 308.4 71.0 C 308.5 71.3 307.3 73.6 306.7 74.1 C 307.2 73.4 307.4 72.5 306.8 73.5 C 306.9 73.6 306.0 74.7 306.4 74.5 C 305.3 75.8 304.8 76.7 303.6 77.8 C 304.4 76.8 304.8 76.2 304.8 75.9 C 304.3 76.8 303.8 77.5 303.0 77.9 C 303.4 78.0 302.1 79.1 300.8 80.5 C 300.3 80.8 300.0 80.9 298.8 81.9 C 298.3 82.6 300.8 80.6 299.5 81.8 C 299.4 81.7 298.0 82.6 298.5 82.6 C 296.7 83.8 295.9 84.6 294.2 85.5 C 296.2 84.2 294.6 84.9 294.0 85.2 C 293.6 85.5 292.9 85.9 293.0 86.0 C 293.0 86.1 294.0 85.4 294.2 85.4 C 292.8 86.2 292.6 86.8 291.9 86.9 C 292.6 86.6 292.6 86.4 291.8 86.8 C 291.9 87.3 287.3 89.6 288.7 88.5 C 288.8 88.6 290.5 87.6 290.6 87.4 C 290.1 87.6 287.6 89.2 288.0 88.7 C 289.5 87.8 289.5 88.0 291.1 87.0 C 291.2 86.7 292.2 86.1 292.7 85.6 C 290.2 87.2 289.6 87.8 289.1 87.8 C 287.9 88.5 288.8 88.3 286.7 89.4 C 283.6 90.9 286.0 89.4 285.2 89.7 C 282.5 91.3 283.5 91.1 284.8 90.7 C 282.6 91.9 281.9 92.3 279.0 93.5 C 279.1 93.3 279.4 93.1 280.4 92.6 C 280.5 92.6 282.9 91.7 282.7 91.6 C 282.3 91.4 280.4 92.2 277.2 93.5 C 278.1 93.5 278.2 93.2 274.9 94.6 C 275.5 94.7 273.3 95.2 273.3 95.4 C 273.5 95.4 274.7 95.0 275.7 94.5 C 275.7 94.7 275.4 94.9 274.3 95.4 C 273.5 95.6 273.0 96.0 270.9 96.6 C 270.7 96.5 272.2 95.9 272.4 95.6 C 271.3 96.1 271.1 96.3 269.9 96.7 C 268.8 96.9 268.8 96.6 268.8 96.2 C 270.1 95.7 272.2 94.9 270.5 95.4 C 275.4 93.5 270.3 95.8 272.2 95.1 C 274.1 94.0 273.2 94.9 276.3 93.6 C 277.2 93.2 277.4 93.0 277.8 92.8 C 277.5 92.8 275.7 93.3 277.7 92.5 C 278.2 92.4 279.3 92.1 280.8 91.4 C 280.7 91.3 277.6 92.6 280.7 91.2 C 282.2 90.6 281.0 91.5 283.0 90.5 C 282.9 90.4 283.5 90.1 283.6 90.0 C 280.8 91.4 284.0 89.6 282.1 90.4 C 284.5 89.1 282.6 90.4 284.2 89.6 C 284.2 89.4 286.9 88.4 286.8 88.1 C 285.9 88.7 283.9 89.7 284.1 89.3 C 285.9 88.5 293.2 84.0 290.6 86.0 C 291.5 85.2 296.0 81.7 295.8 82.1 C 294.5 83.1 294.6 83.2 294.5 83.5 C 296.9 81.4 298.3 80.6 300.3 78.3 C 297.8 80.5 299.4 78.5 297.7 79.7 C 297.0 80.3 296.0 81.0 295.9 81.2 C 296.4 81.2 297.4 80.2 297.8 79.7 C 297.9 79.9 298.1 80.1 298.2 80.2 C 295.1 82.5 293.2 84.0 291.5 85.0 C 293.0 84.0 288.4 86.4 290.1 85.3 C 291.0 85.0 292.7 83.9 294.2 83.0 C 294.1 82.9 294.1 82.9 294.0 82.8 C 294.6 82.4 295.5 81.8 295.4 81.7 C 293.7 83.0 292.5 83.5 291.2 84.6 C 291.2 84.5 291.2 84.5 291.1 84.4 C 290.8 84.6 290.5 84.8 290.5 84.7 C 291.2 84.3 292.1 83.7 292.2 83.6 C 290.7 84.5 290.3 84.4 288.6 85.4 C 288.8 84.9 286.4 86.0 288.8 84.4 C 289.4 84.4 290.7 83.7 290.8 83.8 C 291.5 83.5 292.8 82.5 293.4 81.9 C 292.7 82.3 291.3 83.1 291.0 83.0 C 292.1 82.2 292.9 81.5 293.7 81.3 C 291.6 82.9 295.0 80.6 295.9 80.2 C 295.6 80.3 295.1 80.6 294.7 80.7 C 296.3 79.5 297.1 79.1 297.0 78.8 C 298.6 77.2 298.4 77.8 299.5 76.7 C 298.6 77.2 300.1 75.9 299.2 76.4 C 300.9 74.6 299.9 76.1 300.5 75.5 C 301.0 74.9 301.0 74.8 301.4 74.3 C 302.2 73.6 303.4 72.0 303.8 72.0 C 304.3 71.3 304.4 71.2 304.8 70.5 C 304.9 70.3 304.9 70.0 305.1 69.7 C 305.2 69.6 305.6 69.2 305.5 69.0 C 304.2 70.7 304.6 70.2 302.9 72.0 C 302.9 72.2 302.7 72.5 303.1 72.1 C 302.2 73.5 301.7 73.8 300.6 75.0 C 300.4 75.0 299.9 75.0 299.0 76.2 C 299.1 75.8 298.7 76.0 299.1 75.5 C 299.8 75.1 300.6 74.4 301.3 73.6 C 301.3 73.5 301.1 73.5 301.4 73.1 C 301.9 72.8 302.4 72.2 302.6 71.7 C 302.7 71.8 302.7 72.0 302.5 72.2 C 304.0 70.5 303.2 70.9 304.2 69.7 C 303.9 69.8 303.4 70.6 303.7 69.8 C 304.4 68.6 304.6 68.4 304.9 67.8 C 304.9 67.7 304.8 67.7 305.0 67.4 C 305.5 66.6 304.5 69.5 305.5 68.1 C 305.3 67.9 306.0 66.4 306.3 66.2 C 306.3 66.8 305.6 67.6 305.8 67.7 C 307.0 65.0 306.4 67.8 307.2 64.9 C 307.1 64.9 307.0 64.9 306.9 64.8 C 306.7 66.0 306.4 66.0 306.2 65.8 C 305.9 66.8 305.4 67.1 305.2 67.9 C 305.0 67.4 305.6 67.1 306.0 66.1 C 305.7 66.1 305.4 67.0 305.1 67.0 C 306.2 64.9 306.0 64.3 306.5 62.2 C 306.2 62.7 306.5 61.1 306.3 61.2 C 306.4 63.0 305.7 62.2 305.5 62.5 C 305.5 63.6 306.0 63.2 306.0 63.9 C 305.7 64.2 305.6 64.0 305.3 63.8 C 305.6 62.8 305.5 62.9 305.4 62.1 C 305.7 61.5 306.2 60.9 306.2 61.8 C 306.2 61.6 306.1 60.3 306.2 60.2 C 306.3 61.5 306.4 60.0 306.5 60.8 C 306.7 59.8 306.1 58.0 306.0 56.6 C 305.8 56.8 305.7 56.3 305.5 56.4 C 306.2 57.6 305.7 58.0 305.8 59.2 C 305.7 58.6 305.6 59.0 305.6 59.2 C 305.6 58.0 305.2 57.4 305.2 56.5 C 305.1 56.5 305.0 56.6 304.9 56.6 C 304.7 55.1 304.6 55.3 303.9 54.3 C 303.8 53.8 304.5 54.2 304.8 54.3 C 304.5 53.8 303.4 51.7 303.8 53.0 C 303.1 51.8 303.6 52.0 302.8 50.7 C 302.5 50.9 303.3 52.0 302.8 51.7 C 302.0 50.7 302.7 51.1 301.8 50.3 C 302.0 50.2 302.2 50.0 301.4 49.0 C 301.8 49.8 301.2 49.0 300.8 48.8 C 301.2 49.3 301.5 49.7 301.6 50.0 C 300.3 48.2 299.9 47.8 298.4 46.5 C 299.1 46.8 298.4 45.9 299.5 46.8 C 298.4 46.0 297.4 44.7 296.8 44.3 C 297.4 45.0 298.3 45.9 298.6 46.3 C 295.6 43.5 293.4 42.3 289.9 39.6 C 290.6 40.0 291.4 40.6 291.6 40.6 C 291.2 40.3 290.5 39.9 290.5 39.8 C 291.8 40.7 293.0 41.5 293.7 41.9 C 294.6 42.7 293.0 41.6 294.0 42.4 C 294.3 42.4 296.1 44.0 295.6 43.2 C 293.7 42.1 292.0 40.6 291.4 39.7 C 289.2 38.9 291.1 40.0 288.7 39.1 C 288.8 39.0 288.4 38.6 287.7 38.2 C 288.2 38.9 285.5 37.2 285.2 37.0 C 286.4 37.4 290.3 39.6 288.5 38.1 C 289.1 39.2 283.9 35.4 284.8 36.4 C 282.0 35.0 283.2 35.2 281.4 34.7 C 281.4 34.6 281.7 34.5 280.9 34.1 C 280.1 33.8 279.7 33.7 279.4 33.6 C 283.5 35.7 282.1 35.4 284.6 36.7 C 284.1 36.5 283.8 36.3 283.9 36.4 C 283.8 36.5 283.7 36.5 283.2 36.2 C 283.1 35.8 281.1 35.2 280.6 34.7 C 281.4 35.1 282.2 35.5 282.0 35.2 C 278.6 33.6 279.5 33.6 274.3 31.3 C 275.8 32.1 273.7 31.3 271.8 30.6 C 269.2 29.5 270.4 29.5 266.9 28.4 C 267.0 28.7 266.1 28.4 264.6 27.8 C 263.2 27.3 262.5 27.0 261.2 26.8 C 261.6 26.5 258.4 25.5 257.7 25.5 C 257.7 25.4 256.5 25.1 255.7 24.8 C 255.5 24.7 256.5 24.9 255.7 24.6 C 255.0 24.5 255.6 24.9 254.6 24.6 C 253.5 24.2 253.8 24.0 252.1 23.6 C 252.0 23.8 252.9 24.0 252.0 23.9 C 250.5 23.4 249.1 23.1 250.3 23.6 C 248.1 23.1 249.3 22.9 247.2 22.4 C 247.8 22.7 247.7 22.8 246.6 22.5 C 245.8 22.1 245.8 22.0 245.5 21.9 C 244.9 21.9 245.1 22.0 243.3 21.5 C 243.3 21.6 243.2 21.7 243.2 21.8 C 242.4 21.6 241.2 21.4 241.0 21.2 C 242.5 21.6 242.1 21.3 242.8 21.4 C 241.2 21.0 238.3 20.1 240.5 20.9 C 238.3 20.5 239.5 20.4 237.7 20.1 C 238.7 20.6 237.8 20.2 236.0 19.8 C 236.1 20.2 234.8 19.6 233.7 19.5 C 233.8 19.7 233.5 19.7 232.5 19.6 C 232.6 19.4 231.9 19.3 230.7 19.1 C 230.7 19.2 233.1 19.8 230.7 19.3 C 229.6 19.0 229.6 18.7 227.8 18.4 C 227.4 18.1 229.5 18.5 229.1 18.2 C 227.5 18.2 227.1 17.9 224.9 17.5 C 225.7 18.1 220.4 17.4 223.0 18.0 C 222.2 17.9 221.1 18.0 220.6 17.7 C 221.4 17.8 220.0 17.3 220.0 17.3 C 219.0 17.2 216.5 16.7 216.4 16.8 C 218.7 17.1 218.7 17.3 219.4 17.6 C 216.0 17.2 213.0 16.8 213.3 16.5 C 213.3 16.6 212.8 16.5 212.7 16.6 C 213.9 16.7 214.6 17.2 213.2 17.1 C 213.6 16.9 212.6 16.6 211.5 16.4 C 211.4 16.7 206.9 15.8 207.7 16.2 C 209.6 16.2 211.0 16.8 209.6 16.8 C 208.5 16.4 206.0 16.0 206.6 15.9 C 205.9 15.9 205.3 15.9 204.6 15.9 C 204.1 16.1 205.5 16.2 205.2 16.4 C 204.3 16.2 202.9 16.1 202.7 16.0 C 205.2 16.2 201.5 15.7 204.0 15.8 C 202.5 15.7 202.1 15.5 200.9 15.3 C 200.9 15.4 200.4 15.4 200.3 15.4 C 201.4 15.4 202.5 15.6 202.1 15.9 C 199.9 15.7 200.3 15.4 198.4 15.3 C 197.8 15.4 195.2 15.5 193.9 15.2 C 196.4 15.4 193.7 15.1 195.2 15.1 C 197.5 15.4 198.1 15.2 199.0 15.1 C 198.0 14.9 196.1 14.6 195.8 14.9 C 197.1 15.0 197.1 14.9 197.8 14.9 C 197.7 15.0 197.3 15.1 196.4 15.1 C 195.4 14.8 193.0 14.8 194.6 14.6 C 193.0 14.6 191.2 14.3 189.5 14.3 C 191.4 14.5 192.7 14.7 193.3 14.9 C 191.7 14.9 190.2 14.5 190.1 14.7 C 190.3 14.9 192.8 15.0 193.3 15.2 C 191.3 15.3 188.3 14.4 190.7 15.1 C 189.6 15.0 188.1 14.9 187.6 14.7 C 188.9 14.8 187.5 14.4 186.9 14.3 C 185.7 14.2 184.8 14.2 184.3 14.3 C 186.1 14.3 187.5 14.7 186.3 14.7 C 185.9 14.5 185.6 14.7 185.0 14.7 C 184.9 14.5 182.8 14.5 182.4 14.4 C 182.6 14.5 183.5 14.6 183.7 14.7 C 182.5 14.7 180.7 15.0 179.9 14.6 C 180.6 14.6 181.7 14.7 181.7 14.6 C 178.4 14.1 177.4 13.7 173.4 13.4 C 173.9 13.4 174.2 13.4 174.1 13.3 C 171.5 13.2 169.9 13.0 170.2 12.9 C 168.6 12.9 167.8 13.0 167.0 13.1 C 168.6 13.3 169.2 13.1 170.2 13.3 C 169.6 13.3 171.5 13.8 172.1 14.0 C 174.9 13.8 175.1 14.2 177.9 14.2 C 177.1 14.4 180.0 14.3 179.2 14.5 C 176.6 14.0 174.0 14.2 170.2 14.0 C 170.7 13.8 171.1 13.6 169.6 13.5 C 167.1 13.3 168.3 13.7 166.3 13.6 C 165.5 13.4 166.7 13.3 165.7 13.2 C 165.0 13.3 163.1 13.3 162.4 13.1 C 165.1 13.1 161.9 12.8 163.7 12.7 C 162.8 12.7 162.3 12.7 161.7 12.7 C 164.3 13.0 159.1 13.0 161.1 13.2 C 157.5 13.3 160.8 12.6 157.9 12.7 C 159.3 12.8 157.4 12.9 155.3 12.9 C 154.7 12.7 152.5 12.6 150.7 12.6 C 151.7 12.7 152.4 12.7 150.7 12.9 C 151.6 13.0 153.1 13.0 153.9 12.8 C 153.9 13.0 154.3 13.0 154.6 13.1 C 152.5 13.1 153.4 13.3 152.7 13.3 C 152.0 13.2 150.5 13.3 150.1 13.2 C 150.1 13.2 149.5 13.3 149.5 13.3 C 152.2 13.3 149.0 13.7 150.7 13.7 C 151.9 13.7 151.2 13.4 152.7 13.4 C 154.1 13.7 151.5 13.8 150.7 14.0 C 152.0 14.2 153.5 13.8 154.0 14.1 C 152.3 14.4 149.7 14.3 147.5 14.3 C 147.7 14.6 143.9 14.3 143.6 14.7 C 143.3 14.6 142.9 14.5 142.4 14.5 C 141.7 14.8 141.0 14.5 140.4 14.5 C 140.4 14.6 140.6 14.7 141.1 14.8 C 138.4 14.8 137.8 14.8 134.7 15.1 C 134.2 15.0 133.6 14.9 133.3 14.7 C 134.1 14.6 134.8 14.5 135.3 14.4 C 131.0 14.6 133.8 15.2 130.8 14.9 C 130.9 15.1 133.0 15.2 131.4 15.4 C 128.7 15.3 125.0 15.8 125.1 15.1 C 122.7 15.1 121.1 15.7 120.0 15.5 C 119.3 15.6 119.0 15.7 118.7 15.8 C 119.5 15.8 120.4 15.9 121.3 15.9 C 122.7 15.7 123.3 15.9 121.9 15.6 C 124.0 15.4 124.6 15.5 125.7 15.6 C 122.8 16.0 120.2 16.0 120.1 16.4 C 119.1 16.3 118.3 16.2 117.5 16.1 C 117.3 16.3 114.0 16.7 113.8 16.5 C 116.0 16.3 118.2 15.8 116.2 15.8 C 110.9 16.6 107.9 16.5 103.3 17.4 C 103.1 17.3 103.5 17.1 102.6 17.2 C 102.7 17.3 102.5 17.4 102.0 17.6 C 100.6 17.7 99.8 17.8 97.8 18.1 C 97.9 17.9 97.6 17.7 96.5 17.8 C 96.0 18.1 94.2 18.9 93.1 19.0 C 94.2 18.8 92.7 18.8 91.8 18.9 C 92.6 19.1 86.5 19.6 88.3 19.6 C 85.9 20.1 84.9 20.1 84.8 20.0 C 84.0 20.2 83.4 20.4 82.6 20.7 C 82.0 20.4 78.0 21.5 77.4 21.5 C 78.8 21.3 79.0 20.9 77.9 21.1 C 77.2 21.5 73.7 22.5 73.0 22.6 C 73.2 22.5 73.4 22.2 75.1 21.7 C 72.2 22.3 72.3 22.7 71.4 23.2 C 71.4 22.8 70.2 23.4 69.8 23.6 C 68.8 23.7 69.8 23.5 69.7 23.3 C 68.7 23.5 68.3 23.5 67.0 23.8 C 67.4 24.0 65.9 24.2 65.4 24.3 C 65.2 24.6 64.6 24.9 63.4 25.2 C 64.9 24.4 56.8 26.8 58.7 26.5 C 57.2 27.2 57.1 26.7 55.2 27.4 C 54.8 27.6 53.7 27.9 54.8 27.7 C 54.0 28.0 53.1 28.3 52.7 28.3 C 52.4 28.4 51.9 28.5 50.3 29.1 C 51.8 28.9 47.2 30.2 48.0 30.3 C 46.5 30.4 44.3 31.9 41.8 32.6 C 41.8 32.7 41.2 33.0 41.1 33.1 C 40.7 33.4 44.0 32.0 41.9 33.0 C 39.4 33.9 40.7 33.3 40.3 33.3 C 33.8 36.4 27.2 40.1 22.9 43.5 C 23.5 43.2 23.5 43.3 22.7 44.0 C 21.1 44.7 17.3 48.9 17.0 49.7 C 16.4 49.9 15.3 52.1 14.9 52.4 C 15.2 52.0 15.5 51.1 14.9 52.0 C 14.9 52.7 14.3 53.3 14.1 54.2 C 13.6 54.5 13.0 57.2 12.9 55.8 C 12.8 56.3 12.6 56.6 12.5 56.9 C 12.8 57.0 12.6 57.5 13.0 56.6 C 12.1 58.9 12.4 59.4 12.2 61.2 C 12.4 61.5 12.5 60.1 12.5 61.2 C 12.5 61.2 12.4 61.2 12.4 61.2 C 12.4 61.6 12.5 61.7 12.4 61.9 C 12.2 61.8 12.3 61.2 12.0 61.2 C 12.1 62.1 11.8 62.7 12.1 63.0 C 12.0 61.7 12.5 62.5 12.4 63.3 C 12.1 62.6 13.0 66.1 13.6 67.1 C 13.6 67.8 13.1 65.9 13.0 66.1 C 13.7 68.2 13.7 68.1 14.1 68.2 C 14.6 69.3 14.6 69.8 15.7 71.1 C 16.1 71.9 15.2 70.7 15.7 71.6 C 16.1 72.0 16.4 72.1 17.0 72.9 C 18.1 75.1 23.7 79.0 26.3 81.8 C 25.2 80.8 26.9 81.8 28.6 83.0 C 28.7 83.1 28.4 83.1 29.1 83.5 C 29.0 83.3 29.7 83.6 30.9 84.3 C 31.0 84.5 30.7 84.5 31.4 84.9 C 32.1 84.9 33.5 86.1 34.6 86.5 C 34.9 87.0 32.2 85.3 32.0 85.4 C 35.0 87.3 35.8 87.4 38.5 88.8 C 37.0 88.1 39.4 89.5 39.8 89.7 C 39.3 89.2 41.6 90.1 40.0 89.2 C 41.1 89.7 42.8 90.4 43.0 90.6 C 42.4 90.3 41.4 89.9 41.4 90.0 C 42.8 90.5 44.5 91.6 45.3 91.6 C 44.3 91.2 43.7 90.9 43.8 90.7 C 44.2 90.8 44.7 90.9 45.4 91.2 C 43.0 90.9 49.7 93.2 50.2 93.2 C 50.7 93.8 51.2 93.9 50.8 94.0 C 53.8 95.1 54.0 94.8 55.0 95.1 C 54.6 95.3 54.2 95.4 55.8 96.0 C 55.5 95.6 57.5 96.3 57.0 95.7 C 61.2 97.0 62.0 97.6 64.7 98.3 C 64.7 98.2 63.9 98.0 64.7 98.1 C 65.9 98.6 67.0 98.9 67.8 99.3 C 68.5 99.3 67.6 99.0 68.4 99.1 C 70.3 99.9 69.8 100.0 71.5 100.7 C 73.8 101.0 72.9 101.0 74.3 101.0 C 73.7 100.9 73.0 100.6 73.8 100.7 C 75.1 101.3 75.6 101.7 75.9 101.8 C 74.9 101.6 74.2 101.4 73.7 101.2 C 73.4 101.3 72.0 101.0 73.1 101.4 C 71.7 101.0 70.2 100.6 68.2 100.1 C 68.8 100.5 66.4 99.7 67.0 100.1 C 69.2 100.6 69.7 100.9 71.9 101.4 C 71.5 101.0 73.7 101.7 74.1 101.9 C 74.2 101.7 75.7 102.1 75.3 101.8 C 77.0 102.2 77.0 102.3 78.7 102.7 C 78.8 102.8 78.5 102.8 79.2 103.0 C 79.8 102.9 80.3 103.3 80.9 103.4 C 80.6 103.1 83.0 103.8 83.3 103.6 C 82.6 103.5 81.6 103.3 81.5 103.2 C 84.3 103.8 82.1 103.1 81.6 102.8 C 81.7 102.9 80.6 103.0 80.4 102.8 C 82.8 103.1 77.3 101.7 79.3 102.2 C 81.1 102.7 81.0 102.4 82.8 102.9 C 84.9 103.7 82.3 103.5 84.4 104.2 C 85.7 104.3 86.6 104.5 86.8 104.3 C 87.0 104.4 87.4 104.6 87.9 104.7 C 88.5 104.7 86.2 104.2 87.9 104.4 C 88.8 104.7 87.7 104.8 89.6 105.1 C 90.5 105.0 87.4 104.4 89.1 104.6 C 90.9 105.3 88.7 104.5 90.9 104.8 C 91.0 104.9 91.4 105.0 92.1 105.1 C 92.2 105.2 91.9 105.3 92.6 105.5 C 93.1 105.1 93.4 105.8 95.0 106.0 C 95.9 105.8 93.4 105.5 93.9 105.4 C 95.6 106.0 96.8 105.8 97.5 105.9 C 96.0 105.9 99.7 106.5 99.8 106.7 C 99.4 106.4 100.3 106.6 102.4 106.7 C 102.4 107.1 104.9 107.1 105.4 107.6 C 105.7 107.5 106.3 107.5 106.6 107.4 C 105.9 107.3 105.2 107.2 105.4 107.1 C 106.0 107.2 106.6 107.2 107.3 107.3 C 108.3 107.6 105.6 107.8 109.7 108.3 C 109.2 107.9 111.0 108.0 112.2 108.1 C 112.1 107.8 110.5 107.9 110.4 107.7 C 111.8 107.7 113.2 108.1 114.1 108.3 C 116.5 108.4 119.4 108.8 122.9 109.0 C 123.7 109.3 120.0 109.0 122.3 109.3 C 123.3 109.4 122.8 109.1 124.2 109.3 C 122.8 110.2 133.8 110.2 134.4 110.6 C 134.9 110.5 138.0 110.7 137.7 110.4 C 135.6 110.5 134.2 110.1 133.2 109.9 C 131.2 110.0 134.9 110.3 133.1 110.2 C 133.0 110.1 130.3 110.1 130.6 109.8 C 133.3 110.0 129.2 109.5 131.2 109.4 C 133.8 109.6 138.9 109.6 137.7 109.9 C 137.7 109.8 136.6 109.7 136.5 109.8 C 139.3 110.1 141.1 109.9 142.3 109.8 C 143.6 110.1 148.8 109.9 147.4 110.0 C 147.9 110.2 144.3 109.8 144.8 110.1 C 150.2 110.3 150.4 110.1 153.9 110.4 C 152.8 110.1 157.7 110.0 157.2 110.1 C 157.2 110.3 158.3 110.5 160.5 110.2 C 160.1 110.5 161.3 110.6 162.4 110.6 C 162.9 110.4 161.5 110.4 161.7 110.2 C 162.8 110.2 163.9 110.2 165.0 110.2 C 165.1 110.3 164.9 110.4 165.7 110.4 C 166.9 110.3 171.2 109.9 170.9 110.1 C 169.0 110.5 173.8 110.3 170.9 110.6 C 171.7 110.5 171.8 110.6 172.8 110.6 C 172.8 110.5 172.8 110.4 172.8 110.3 C 175.2 110.2 174.0 110.6 176.1 110.6 C 176.3 110.4 177.1 110.4 177.4 110.3 C 176.6 110.3 176.5 110.4 175.4 110.4 C 176.6 110.0 173.3 110.3 173.5 110.0 C 175.7 109.9 175.7 110.1 176.7 110.2 C 179.5 109.9 178.2 110.1 181.2 110.0 C 181.2 109.9 180.4 109.9 180.6 109.8 C 184.2 109.7 183.9 110.2 186.4 109.9 C 185.8 109.9 183.6 110.3 185.2 110.2 C 186.8 110.0 187.3 109.7 189.6 109.5 C 189.7 109.6 189.5 109.7 190.3 109.7 C 191.2 109.6 191.3 109.3 192.1 109.2 C 192.3 109.3 193.6 109.1 194.1 109.0 C 194.9 109.2 193.8 109.3 194.8 109.3 C 196.6 109.1 197.6 108.5 199.1 108.4 C 199.1 108.8 200.8 108.5 202.3 108.3 C 202.6 108.6 205.8 108.2 208.0 108.0 C 207.5 107.8 209.7 107.6 209.1 107.5 C 208.1 107.6 207.6 107.6 207.3 107.5 C 209.7 107.2 210.5 107.6 212.3 107.0 C 213.2 107.1 214.4 107.1 216.0 106.9 C 216.1 106.7 213.1 107.0 214.7 106.8 C 214.9 106.8 215.4 106.7 215.9 106.6 C 215.7 106.9 217.1 106.8 217.9 106.8 C 219.3 106.4 222.3 106.3 220.9 106.2 C 223.1 105.8 221.7 106.5 223.4 106.2 C 222.4 106.0 225.4 105.5 223.9 105.6 C 226.2 105.1 226.0 105.6 225.1 105.9 C 227.2 105.6 227.7 105.3 228.7 105.2 C 227.7 105.2 230.8 104.5 229.3 104.9 C 228.8 105.2 231.2 104.7 231.7 104.7 C 230.9 104.7 232.0 104.5 230.5 104.6 C 232.0 104.3 234.3 103.8 235.7 103.8 C 237.6 103.2 239.4 102.8 238.6 103.3 C 240.4 102.8 239.7 103.0 241.5 102.6 C 241.5 102.6 241.0 102.6 240.8 102.6 C 243.3 102.1 242.8 102.4 245.9 101.6 C 245.6 102.0 247.6 101.5 248.3 101.5 C 247.0 101.8 245.9 102.0 244.9 102.2 C 244.7 102.4 245.7 102.2 244.9 102.4 C 244.8 102.4 244.3 102.4 243.8 102.5 C 245.9 102.3 241.3 103.5 242.7 102.9 C 242.7 103.0 242.8 103.0 243.3 102.9 C 242.8 102.7 242.8 102.8 243.2 102.5 C 242.1 102.8 241.2 102.7 240.9 103.0 C 241.0 103.1 242.0 102.8 242.1 102.9 C 239.6 103.6 241.3 102.8 239.2 103.3 C 238.8 103.6 239.9 103.5 240.4 103.5 C 238.6 104.0 236.9 104.3 236.4 104.2 C 234.7 104.6 236.5 104.4 235.3 104.7 C 234.7 104.8 234.7 104.6 233.5 104.8 C 232.2 105.1 234.3 104.8 233.0 105.1 C 231.5 105.2 233.9 104.6 231.7 104.9 C 232.3 105.2 229.7 105.3 229.9 105.4 C 231.2 105.2 231.3 105.5 230.6 105.4 C 227.7 105.6 225.8 106.8 222.8 106.7 C 222.8 106.8 222.3 106.9 222.2 107.0 C 224.4 106.8 227.7 106.3 228.3 106.5 C 230.0 106.2 229.7 106.0 230.0 105.8 C 232.1 105.8 231.9 105.8 230.8 106.4 C 227.4 107.1 225.9 107.1 223.6 107.4 C 222.4 107.8 223.7 107.5 224.2 107.5 C 217.0 108.4 222.6 108.3 220.0 108.6 C 220.0 108.5 219.5 108.5 218.8 108.5 C 218.8 108.6 217.7 108.8 217.5 108.9 C 218.0 108.8 218.3 108.8 218.2 109.0 C 216.4 109.3 217.1 108.9 216.9 108.8 C 218.3 108.6 219.2 108.5 219.3 108.3 C 217.6 108.7 216.2 108.6 215.1 109.1 C 213.3 108.9 215.9 108.2 214.9 108.1 C 215.2 107.9 213.9 108.9 212.5 109.1 C 210.3 109.4 210.3 109.7 208.2 109.9 C 207.6 109.7 210.3 109.6 210.1 109.4 C 209.4 109.4 209.3 109.4 208.8 109.4 C 207.3 109.6 207.5 109.8 206.3 110.0 C 205.7 109.9 205.3 110.1 204.5 110.2 C 203.0 110.3 205.2 110.0 203.8 110.1 C 202.2 110.2 201.1 110.6 200.6 110.6 C 200.5 110.5 200.7 110.4 200.0 110.4 C 198.2 110.8 197.8 110.8 200.0 110.8 C 198.0 110.9 197.2 111.1 197.5 111.3 C 200.5 111.1 201.2 111.0 202.6 111.2 C 203.1 110.8 204.0 110.9 205.1 110.9 C 204.4 110.5 206.4 110.7 207.0 110.4 C 206.3 110.5 205.5 110.5 205.1 110.5 C 208.2 110.2 208.2 110.2 210.7 109.5 C 210.7 109.6 211.0 109.7 211.3 109.7 C 210.6 109.9 208.3 110.1 208.2 110.3 C 210.1 110.4 210.6 109.9 212.7 109.9 C 213.5 109.6 211.0 109.8 212.6 109.6 C 213.4 109.7 214.5 109.7 215.7 109.6 C 217.1 109.4 217.7 109.2 218.8 108.9 C 218.9 109.0 219.0 109.1 220.0 108.9 C 220.0 108.8 218.9 108.9 220.0 108.7 C 223.3 108.5 225.4 108.4 228.6 107.7 C 227.4 107.8 224.9 108.0 226.1 107.8 C 227.5 107.7 229.4 107.1 230.9 107.0 C 231.4 107.0 229.1 107.3 229.7 107.6 C 231.1 107.3 232.0 107.2 232.7 107.1 C 232.7 107.0 234.3 106.7 233.8 106.6 C 232.7 106.8 232.4 107.1 232.1 107.1 C 232.9 106.2 236.4 106.5 238.6 106.0 C 240.0 105.6 237.5 106.0 239.1 105.6 C 240.1 105.3 240.8 105.7 239.2 106.2 C 238.1 106.3 237.7 106.7 237.4 106.4 C 237.0 106.6 236.3 106.7 236.3 106.7 C 237.1 106.6 237.0 106.8 237.5 106.8 C 236.4 106.9 236.3 107.5 235.2 107.4 C 235.9 107.2 236.1 107.1 236.4 107.0 C 233.2 107.7 232.2 107.7 230.4 107.9 C 231.4 107.9 230.3 108.0 230.4 108.2 C 231.8 107.9 234.5 107.5 232.8 107.9 C 231.8 107.8 231.0 108.7 229.9 108.6 C 230.7 108.4 230.6 108.3 231.0 108.2 C 229.8 108.4 229.8 108.2 228.6 108.4 C 224.8 109.4 221.7 109.2 215.3 110.6 C 213.0 110.9 217.3 110.3 217.1 110.1 C 216.4 110.2 216.3 110.1 215.8 110.2 C 215.8 110.5 214.7 110.3 214.0 110.7 C 214.1 110.4 211.1 111.0 209.6 111.0 C 209.5 111.1 209.7 111.2 209.0 111.3 C 204.3 111.5 195.9 112.7 192.4 112.7 C 192.5 112.9 191.0 113.0 190.5 113.2 C 188.3 113.3 189.3 113.0 186.0 113.4 C 184.3 113.6 186.3 113.3 186.6 113.2 C 181.7 113.6 177.3 113.5 174.2 113.9 C 172.6 114.1 174.2 113.7 171.0 113.8 C 170.9 114.1 165.8 113.7 165.1 114.1 C 163.1 114.2 159.5 113.7 161.1 114.1 C 158.4 114.1 160.2 113.8 159.1 113.8 C 157.3 113.8 159.7 114.4 157.8 114.4 C 158.0 114.1 156.4 114.2 155.2 114.0 C 156.7 114.0 157.6 114.0 157.8 113.8 C 156.6 114.0 156.6 113.8 154.6 113.8 C 153.0 113.9 148.6 114.1 147.3 113.7 C 147.3 113.8 147.7 113.9 148.0 113.9 C 146.7 113.9 145.2 113.6 145.4 113.9 C 142.4 113.9 141.2 113.5 139.5 113.7 C 138.2 113.8 139.9 113.5 136.2 113.3 C 136.1 113.5 129.5 113.1 127.8 112.8 C 127.7 113.1 127.4 112.8 126.5 112.7 C 126.4 112.8 126.6 112.9 125.8 112.9 C 125.7 112.8 125.2 112.8 124.6 112.8 C 125.1 112.4 122.2 112.7 122.0 112.4 C 122.6 112.4 122.6 112.2 122.1 112.2 C 121.8 112.4 119.2 111.8 119.5 112.0 C 120.0 112.2 121.9 112.3 121.3 112.4 C 118.8 112.3 119.9 112.1 118.2 111.9 C 118.3 112.0 119.3 112.2 118.2 112.1 C 116.4 111.9 118.0 112.1 116.9 111.8 C 116.0 111.7 114.3 111.7 113.7 111.7 C 113.9 111.7 113.4 111.5 113.1 111.5 C 109.9 111.0 102.5 110.4 99.5 109.6 C 99.2 109.6 98.5 109.6 98.8 109.8 C 96.9 109.4 97.0 109.5 95.2 109.1 C 95.1 109.2 95.1 109.3 95.1 109.4 C 92.7 109.1 94.9 109.0 93.3 108.8 C 93.1 109.3 92.4 108.5 91.0 108.2 C 90.8 108.3 90.0 108.2 90.3 108.4 C 88.0 108.0 88.2 107.7 86.2 107.4 C 86.6 107.6 86.8 108.4 86.6 108.6 C 86.2 108.4 85.7 108.2 84.8 108.0 C 85.9 107.9 85.5 106.9 82.6 106.7 C 84.2 106.9 84.8 107.1 84.4 107.3 C 82.2 106.9 81.5 106.5 79.7 106.2 C 79.4 106.3 80.7 106.6 80.2 106.8 C 79.7 106.7 79.5 106.7 79.6 106.9 C 77.7 106.4 77.7 106.2 75.6 105.9 C 75.6 105.8 76.1 105.8 76.8 106.1 C 76.7 105.9 76.7 105.7 78.0 105.9 C 78.1 106.1 77.3 106.2 79.1 106.5 C 79.1 106.4 79.1 106.2 79.2 106.1 C 77.9 105.8 74.9 105.0 74.6 105.0 C 75.2 105.3 76.2 105.5 75.6 105.7 C 73.5 105.1 72.9 104.7 71.2 104.1 C 68.2 103.5 63.0 102.0 63.5 102.5 C 61.7 101.9 62.4 102.1 60.8 101.6 C 61.2 102.0 59.0 101.2 59.1 101.4 C 61.1 101.9 60.5 101.8 62.4 102.3 C 62.3 102.4 61.9 102.5 61.2 102.3 C 61.1 102.1 60.3 101.9 59.1 101.5 C 59.3 101.6 60.4 102.2 59.0 101.8 C 58.9 101.7 58.6 101.6 58.0 101.4 C 58.1 101.3 58.1 101.2 58.1 101.1 C 58.9 101.2 59.8 101.4 60.3 101.5 C 59.8 101.3 59.7 101.2 59.2 101.1 C 58.9 101.1 56.8 100.3 56.6 100.4 C 57.5 100.7 58.0 101.0 57.1 100.7 C 56.9 100.6 55.5 100.1 55.0 100.1 C 56.8 100.8 56.1 100.6 56.9 101.1 C 55.9 100.8 55.5 100.6 55.0 100.4 C 54.8 100.3 54.6 100.2 54.2 100.1 C 53.9 99.9 53.9 99.9 52.8 99.6 C 52.8 99.4 53.0 99.2 53.6 99.4 C 52.9 98.9 50.5 98.1 48.5 97.4 C 46.4 96.7 44.5 96.0 43.6 95.6 C 44.9 96.2 46.5 96.4 44.6 95.6 C 44.5 95.7 43.1 95.1 42.8 95.1 C 42.0 95.3 43.6 96.2 44.9 97.0 C 43.4 96.4 43.1 96.4 41.7 95.8 C 41.3 95.4 42.9 95.7 41.1 94.9 C 40.6 95.1 37.9 93.6 37.2 93.5 C 38.4 94.1 39.1 94.5 37.9 94.0 C 38.1 94.0 35.7 92.9 35.7 92.8 C 37.7 93.6 38.3 93.6 39.6 94.2 C 38.0 93.5 40.8 94.5 38.2 93.3 C 36.9 92.9 36.2 92.9 33.7 91.6 C 32.7 91.0 33.7 91.3 32.5 90.6 C 32.7 91.0 30.0 89.6 31.7 90.3 C 30.8 89.8 30.3 89.5 29.8 89.2 C 31.0 90.1 25.0 86.9 25.7 87.6 C 25.9 87.3 25.8 86.8 25.6 86.6 C 24.3 86.1 23.2 85.2 20.6 83.2 C 20.5 83.5 20.2 82.9 19.2 82.1 C 18.9 82.1 19.7 82.9 19.0 82.3 C 17.9 81.3 17.9 81.2 17.8 80.9 C 17.0 80.2 16.4 79.7 16.1 79.3 C 16.0 79.3 16.2 79.6 16.4 79.8 C 13.7 76.9 12.3 75.6 10.8 73.1 C 11.4 74.2 11.8 74.2 11.3 73.4 C 10.9 72.9 10.6 72.5 10.4 72.2 C 10.5 72.9 10.4 72.6 9.8 71.4 C 9.1 70.3 9.7 72.0 9.2 71.1 C 8.8 70.1 9.2 70.6 9.0 70.0 C 8.8 69.6 8.6 69.1 8.5 68.7 C 8.7 69.6 8.2 68.7 7.8 67.9 C 8.3 68.4 8.2 68.0 7.6 66.4 C 7.7 66.2 8.0 67.0 7.9 66.3 C 7.8 66.0 7.2 64.8 7.2 63.6 C 7.3 63.9 7.4 64.1 7.5 64.0 C 7.1 62.8 7.4 61.8 7.5 60.7 C 7.3 61.8 7.1 61.2 6.9 61.7 C 7.1 60.6 6.9 59.2 7.3 58.4 C 7.1 60.0 7.8 58.5 7.9 57.5 C 7.7 57.3 7.6 59.0 7.3 58.4 C 7.2 57.8 7.8 56.7 7.7 56.1 C 7.5 56.1 7.6 56.8 7.4 57.0 C 7.6 56.1 7.2 57.2 7.3 56.5 C 7.7 56.1 7.5 55.5 7.6 55.0 C 7.9 54.5 8.6 53.4 8.7 52.8 C 8.6 52.8 8.3 53.6 8.2 53.7 C 8.9 51.1 9.7 50.5 10.8 48.2 C 11.1 48.0 11.5 47.7 11.9 47.1 C 11.8 47.0 12.0 46.6 12.4 46.1 C 13.2 45.2 14.1 44.4 15.2 43.4 C 15.1 43.7 14.7 44.3 16.2 42.8 C 16.2 42.6 15.5 43.2 16.1 42.7 C 16.1 42.7 16.5 42.4 16.5 42.2 C 16.5 42.2 16.4 42.2 16.4 42.1 C 16.0 42.6 15.6 43.0 15.2 43.4 C 15.1 43.2 14.9 43.3 14.6 43.5 C 16.2 41.6 16.5 42.1 17.6 40.8 C 18.0 40.9 18.5 40.6 17.6 41.7 C 18.7 40.7 19.4 39.9 19.6 39.5 C 18.2 40.7 18.5 40.1 18.0 40.3 C 18.9 39.6 18.8 39.5 19.3 39.0 C 20.5 38.3 18.4 40.3 20.6 38.6 C 18.8 39.7 21.8 37.4 23.1 36.6 C 22.8 36.6 22.4 36.9 23.0 36.4 C 26.1 34.0 26.4 34.9 28.4 33.2 C 28.3 33.5 29.3 32.9 29.8 32.7 C 27.9 33.8 27.5 34.1 26.8 34.6 C 26.9 34.7 27.5 34.4 28.0 34.1 C 28.0 33.9 28.4 33.6 29.3 33.3 C 29.7 32.8 29.4 32.6 30.8 31.6 C 31.0 31.6 30.8 31.8 31.6 31.4 C 32.3 30.8 31.1 32.1 34.5 30.3 C 33.9 30.5 33.5 30.6 33.7 30.3 C 35.3 29.4 34.9 29.6 37.2 28.5 C 38.3 28.4 35.8 29.6 35.3 30.2 C 36.8 29.4 38.0 28.5 39.7 28.0 C 38.4 28.4 39.6 27.6 41.1 26.9 C 42.5 26.4 41.1 27.3 42.9 26.6 C 44.2 26.0 44.8 25.5 43.5 25.9 C 46.5 24.8 45.7 24.8 48.4 23.9 C 48.6 24.0 47.8 24.3 46.8 24.6 C 47.0 24.6 46.7 24.8 47.7 24.5 C 48.5 24.1 49.9 23.5 51.4 22.9 C 52.9 22.3 53.8 22.0 54.4 21.7 C 56.8 21.4 59.3 20.1 61.8 19.5 C 60.9 20.1 64.9 18.7 66.2 18.7 C 66.9 18.4 69.1 17.3 68.3 17.7 C 68.6 18.0 70.0 17.5 71.2 17.3 C 71.1 17.2 71.1 17.2 71.1 17.1 C 73.6 16.4 74.2 16.5 75.1 16.5 C 78.2 15.7 81.7 15.3 85.5 14.3 C 86.6 14.4 87.4 14.2 89.8 13.9 C 89.7 13.7 91.5 13.4 93.3 13.1 C 92.9 12.9 94.5 12.7 94.5 12.6 C 92.9 12.8 93.5 12.4 92.6 12.5 C 94.8 12.4 95.8 11.7 97.5 11.7 C 95.4 12.1 94.8 12.6 94.6 13.0 C 97.0 12.5 98.4 12.4 98.9 12.5 C 99.0 12.3 98.7 12.2 98.2 12.2 C 99.0 12.1 99.8 12.0 100.6 11.9 C 100.9 12.0 99.8 12.2 100.7 12.1 C 101.2 12.0 101.9 11.8 102.5 11.6 C 103.2 11.8 101.5 11.9 101.3 12.1 C 104.6 11.7 103.1 11.5 104.9 11.1 C 105.5 11.2 105.4 11.5 106.9 11.4 C 107.5 11.1 107.6 10.9 109.3 10.7 C 110.4 10.6 109.3 11.0 110.6 10.9 C 110.8 10.8 111.3 10.8 111.9 10.8 C 111.8 10.6 112.4 10.5 113.1 10.4 C 113.3 10.5 114.5 10.3 115.0 10.2 C 115.2 10.3 117.2 10.4 117.6 10.2 C 117.6 10.1 116.5 10.2 116.3 10.1 C 117.8 10.0 118.7 9.9 119.5 9.8 C 120.0 10.3 122.3 9.6 125.3 9.7 C 127.1 9.3 124.8 9.3 127.2 9.0 C 128.6 9.0 126.9 9.2 127.2 9.4 C 127.6 9.4 129.7 9.5 129.8 9.3 C 129.8 9.1 128.6 9.3 128.5 9.2 C 130.2 8.8 130.2 9.1 131.1 9.2 C 131.0 9.0 132.1 8.9 132.3 8.7 C 137.0 8.3 137.0 8.7 138.9 8.8 C 138.9 8.7 140.0 8.7 140.2 8.6 C 138.8 8.8 137.0 8.6 138.9 8.5 C 138.6 8.6 141.3 8.4 141.5 8.3 C 141.2 8.2 139.4 8.3 140.1 8.0 C 142.6 7.9 141.6 8.4 143.5 8.1 C 143.7 8.2 142.6 8.3 142.1 8.4 C 142.9 8.3 144.0 8.3 144.1 8.4 C 143.2 8.5 143.2 8.7 142.8 8.8 C 144.0 8.6 146.3 8.7 144.7 8.4 C 147.4 8.4 149.9 8.2 148.1 8.0 C 150.2 7.9 149.0 8.3 150.7 8.0 C 150.4 8.3 149.9 8.5 151.3 8.7 C 151.6 8.5 152.7 8.4 152.6 8.2 C 155.7 8.2 156.6 8.5 157.9 8.7 C 156.8 8.3 158.3 8.6 159.8 8.3 C 160.8 8.4 159.9 8.8 162.5 8.7 C 159.7 8.3 165.7 8.6 164.4 8.2 C 167.7 8.4 167.6 8.4 171.0 8.6 C 170.7 8.7 169.9 8.8 168.4 8.8 C 169.4 8.6 165.5 8.6 165.8 8.7 C 165.8 8.8 165.8 8.8 165.8 8.9 C 168.3 8.9 169.9 9.0 171.0 9.1 C 171.5 9.0 172.7 8.9 172.3 8.6 C 174.6 9.0 177.1 8.7 178.2 9.0 C 177.4 9.0 176.6 8.9 176.9 9.1 C 177.8 9.1 179.0 9.1 178.9 8.8 C 177.0 8.7 176.6 8.6 175.6 8.8 C 176.4 8.6 173.7 8.4 175.6 8.4 C 175.5 8.8 179.5 8.4 178.2 8.6 C 176.1 8.6 180.6 8.9 180.8 9.1 C 180.8 9.1 180.8 9.1 180.8 9.1 Z M 229.2 108.2 C 231.0 107.8 228.7 108.0 227.4 108.2 C 227.8 108.2 228.0 108.3 228.0 108.5 C 228.5 108.3 229.1 108.2 229.2 108.2 C 229.2 108.2 229.2 108.2 229.2 108.2 Z M 209.2 107.6 C 208.6 108.0 211.7 107.4 212.9 107.3 C 212.6 107.3 212.1 107.3 212.9 107.2 C 211.6 107.1 211.1 107.6 209.2 107.6 C 209.2 107.6 209.2 107.6 209.2 107.6 Z M 137.7 110.8 C 138.2 110.8 139.4 110.8 139.6 110.9 C 140.3 110.9 140.1 110.8 140.3 110.7 C 141.8 110.7 139.9 111.0 142.2 111.0 C 143.1 110.6 138.2 110.3 137.7 110.8 C 137.7 110.8 137.7 110.8 137.7 110.8 Z M 155.9 12.2 C 156.8 12.3 154.6 12.5 155.3 12.7 C 158.9 12.5 156.1 12.2 161.1 12.3 C 160.8 12.3 160.4 12.2 160.5 12.1 C 158.1 12.2 157.9 12.4 158.5 11.9 C 157.4 11.9 157.2 12.5 155.9 12.2 C 155.9 12.2 155.9 12.2 155.9 12.2 Z M 202.2 15.3 C 201.8 15.2 201.5 15.1 201.5 15.0 C 200.1 15.0 200.4 15.0 198.4 14.8 C 198.6 15.2 200.5 15.3 202.2 15.3 C 202.2 15.3 202.2 15.3 202.2 15.3 Z M 304.7 55.5 C 304.8 55.7 304.9 56.0 305.0 56.2 C 305.1 56.0 305.6 56.5 305.1 55.4 C 305.0 55.3 305.1 55.5 305.2 55.7 C 305.0 55.6 304.8 55.0 304.7 55.2 C 304.8 55.4 304.8 55.5 304.7 55.5 C 304.7 55.5 304.7 55.5 304.7 55.5 Z M 289.8 84.7 C 291.9 83.1 286.1 86.0 289.8 84.7 C 289.8 84.7 289.8 84.7 289.8 84.7 C 289.8 84.7 289.8 84.7 289.8 84.7 Z M 295.8 84.1 C 295.9 84.1 296.3 83.8 296.3 83.7 C 298.1 82.5 296.5 83.9 297.5 83.3 C 298.7 82.1 296.6 83.4 298.1 82.0 C 297.7 82.2 296.8 83.4 295.8 84.1 C 295.8 84.1 295.8 84.1 295.8 84.1 Z M 26.0 34.8 C 24.4 35.9 24.2 36.4 24.0 36.8 C 25.1 36.1 26.0 35.6 26.4 35.4 C 28.4 34.0 25.0 36.2 24.6 36.3 C 24.7 36.0 26.1 35.0 26.0 34.8 C 26.0 34.8 26.0 34.8 26.0 34.8 Z M 21.1 38.3 C 20.6 38.8 19.8 39.6 19.9 39.8 C 20.7 39.1 20.9 39.1 21.0 39.1 C 21.7 38.4 20.6 39.0 21.1 38.3 C 21.1 38.3 21.1 38.3 21.1 38.3 Z M 31.1 32.2 C 30.3 32.7 30.7 32.6 30.7 32.8 C 31.9 32.1 32.1 32.1 33.4 31.5 C 33.3 31.4 33.3 31.3 33.2 31.3 C 32.2 31.8 32.2 31.9 31.3 32.4 C 31.2 32.3 31.2 32.3 31.1 32.2 C 31.1 32.2 31.1 32.2 31.1 32.2 Z M 17.1 42.1 C 14.9 44.1 14.4 45.4 13.6 47.0 C 14.8 45.4 15.7 43.7 16.9 42.7 C 18.2 41.4 16.4 43.0 16.4 42.9 C 16.3 42.8 16.8 42.4 17.1 42.1 C 17.1 42.1 17.1 42.1 17.1 42.1 Z M 7.6 62.1 C 7.4 62.6 7.9 63.5 8.1 64.9 C 8.1 64.6 8.1 64.4 8.2 64.3 C 8.0 62.4 7.7 63.6 7.6 62.1 C 7.6 62.1 7.6 62.1 7.6 62.1 Z M 11.6 73.2 C 12.3 74.3 11.3 72.5 11.9 73.0 C 11.1 71.8 10.4 70.4 10.2 70.6 C 11.0 71.9 11.2 72.1 11.6 73.2 C 11.6 73.2 11.6 73.2 11.6 73.2 Z M 18.1 80.6 C 19.5 81.6 17.7 79.9 18.5 80.2 C 18.0 79.7 18.0 79.9 17.9 80.0 C 17.5 79.6 17.2 79.2 16.7 78.7 C 17.0 79.2 18.4 80.5 18.1 80.6 C 18.1 80.6 18.1 80.6 18.1 80.6 Z M 73.0 17.7 C 72.0 18.0 72.3 18.2 70.3 18.6 C 73.4 17.8 71.8 18.9 76.0 17.9 C 75.3 17.9 75.7 17.7 76.0 17.8 C 77.5 17.3 74.4 18.0 75.9 17.4 C 74.7 17.7 75.5 17.8 74.3 18.1 C 73.0 18.1 72.3 18.2 73.0 17.7 C 73.0 17.7 73.0 17.7 73.0 17.7 Z M 76.0 18.1 C 77.2 17.9 77.1 17.5 77.7 17.6 C 78.3 17.5 78.1 17.4 78.2 17.3 C 77.8 17.4 77.7 17.4 77.7 17.3 C 76.7 17.6 75.7 17.9 76.0 18.1 C 76.0 18.1 76.0 18.1 76.0 18.1 Z M 65.5 20.7 C 67.3 20.1 67.9 20.1 68.8 19.7 C 69.5 19.9 70.0 19.2 71.0 19.3 C 72.8 18.8 71.5 19.0 70.9 19.0 C 72.7 18.5 71.4 19.1 73.2 18.6 C 73.5 18.3 71.2 18.9 71.4 18.6 C 70.1 18.9 70.1 19.1 69.3 19.3 C 68.6 19.5 68.8 19.3 68.7 19.2 C 67.1 19.7 67.2 19.5 65.9 19.9 C 65.7 20.2 66.2 20.1 67.6 19.7 C 66.2 20.2 65.6 20.5 63.9 20.8 C 65.0 20.3 59.7 21.7 60.2 22.0 C 61.6 21.6 61.2 21.5 61.7 21.3 C 63.6 21.0 64.8 20.6 65.5 20.7 C 65.5 20.7 65.5 20.7 65.5 20.7 Z M 32.2 32.5 C 31.6 32.8 31.1 33.0 30.2 33.5 C 30.1 33.4 31.2 32.8 30.1 33.2 C 28.7 34.0 28.5 34.2 27.6 34.8 C 28.2 34.6 31.1 33.2 29.7 34.1 C 30.2 34.0 31.1 33.5 32.3 32.8 C 30.7 33.3 34.3 31.8 35.8 31.1 C 35.5 30.8 38.3 30.0 39.3 29.2 C 38.4 29.4 35.5 31.0 34.3 31.6 C 34.9 31.3 30.7 32.9 32.2 32.5 C 32.2 32.5 32.2 32.5 32.2 32.5 Z M 80.6 17.0 C 80.9 16.8 82.2 16.5 81.2 16.7 C 81.7 16.5 82.8 16.4 82.2 16.1 C 82.9 16.0 83.4 15.9 84.0 15.8 C 83.8 16.0 82.2 16.2 82.9 16.3 C 84.0 16.0 83.6 16.2 85.2 15.9 C 84.4 16.3 85.3 16.1 84.7 16.5 C 85.2 16.3 86.6 16.1 86.4 15.9 C 88.7 15.5 85.9 16.3 88.9 15.8 C 88.8 16.0 86.7 16.4 85.9 16.4 C 85.6 16.7 89.6 15.8 91.9 15.5 C 89.8 15.6 91.4 15.1 92.3 14.8 C 93.0 14.7 92.4 14.9 93.6 14.9 C 94.6 14.7 95.1 14.5 95.4 14.6 C 96.3 14.4 95.9 14.3 96.0 14.2 C 97.4 14.0 96.4 14.5 98.4 14.1 C 96.9 14.0 98.6 13.7 101.4 13.4 C 101.2 13.3 100.3 13.4 100.2 13.3 C 100.6 13.1 102.3 13.2 102.7 13.2 C 103.7 13.0 103.0 13.0 102.1 13.1 C 102.7 12.9 103.3 12.8 103.9 12.6 C 100.8 13.0 96.0 13.8 90.5 14.4 C 91.5 14.4 90.3 14.6 88.7 14.8 C 88.4 14.7 89.1 14.6 89.9 14.5 C 87.9 14.5 88.1 15.1 85.2 15.5 C 83.6 15.7 86.9 15.0 85.1 15.2 C 84.0 15.5 83.3 15.8 82.8 15.6 C 80.9 16.1 80.5 16.5 77.6 17.1 C 79.3 16.9 80.1 17.3 81.8 16.8 C 81.8 16.7 81.0 16.9 80.6 17.0 C 80.6 17.0 80.6 17.0 80.6 17.0 Z M 21.1 39.2 C 20.2 39.9 19.9 40.4 19.6 40.4 C 18.3 41.6 20.0 40.5 20.3 40.3 C 20.9 39.7 21.1 39.4 21.1 39.2 C 21.1 39.2 21.1 39.2 21.1 39.2 Z M 146.0 113.2 C 148.5 113.4 148.0 113.1 150.0 113.1 C 148.4 113.0 148.0 112.8 145.4 112.7 C 145.3 112.9 145.3 113.1 146.0 113.2 C 146.0 113.2 146.0 113.2 146.0 113.2 Z M 26.5 35.6 C 27.8 34.5 25.0 37.0 24.9 36.8 C 23.4 38.0 26.4 35.9 25.1 37.1 C 26.4 36.1 27.3 35.7 29.1 34.5 C 29.0 34.4 27.5 35.3 26.1 36.2 C 25.8 36.2 26.6 35.7 26.5 35.6 C 26.5 35.6 26.5 35.6 26.5 35.6 Z M 120.8 111.1 C 119.1 111.1 122.3 111.7 123.3 111.9 C 123.4 111.6 122.9 111.6 120.8 111.1 C 120.8 111.1 120.8 111.1 120.8 111.1 Z M 163.1 113.0 C 164.0 112.7 160.1 113.0 161.1 112.7 C 159.9 112.7 159.8 112.8 159.8 112.9 C 159.2 112.8 157.3 112.8 157.8 112.6 C 157.5 112.4 160.8 112.7 159.8 112.4 C 160.8 112.4 160.9 112.5 161.7 112.5 C 159.8 112.5 160.7 112.7 163.1 112.8 C 163.1 112.6 162.0 112.6 163.1 112.5 C 163.2 112.6 164.4 112.7 164.4 113.1 C 166.4 113.0 165.2 112.6 167.6 112.6 C 167.4 112.5 165.9 112.5 165.0 112.4 C 165.2 112.2 167.5 112.6 167.0 112.2 C 167.5 112.4 168.9 112.5 168.9 112.8 C 167.1 112.9 165.9 113.1 164.4 113.2 C 165.8 113.4 167.8 112.8 170.2 113.0 C 170.0 112.8 171.4 112.8 170.9 112.6 C 172.8 112.6 171.9 112.9 171.6 112.9 C 172.1 113.1 175.8 112.9 175.5 112.7 C 175.8 112.9 180.2 112.6 180.0 112.3 C 181.4 112.5 183.4 112.0 183.9 112.3 C 184.7 112.1 186.2 112.1 187.9 112.0 C 188.3 111.7 185.4 112.0 185.2 111.8 C 184.7 111.6 188.3 111.7 187.8 111.5 C 187.8 111.4 187.8 111.4 187.8 111.3 C 186.5 111.5 185.2 111.6 183.9 111.8 C 183.0 111.8 184.2 111.7 183.9 111.6 C 183.0 111.7 178.9 112.3 178.7 111.8 C 175.9 112.1 174.0 112.0 172.8 112.3 C 171.2 112.3 173.8 112.1 172.8 111.9 C 167.9 112.4 161.9 112.1 157.8 112.5 C 156.9 112.4 157.3 112.3 157.1 112.1 C 151.5 112.3 156.3 112.7 151.9 112.5 C 151.9 112.3 154.0 112.3 153.9 112.1 C 152.4 112.1 152.0 112.2 149.9 112.1 C 149.9 112.2 149.9 112.3 149.9 112.4 C 148.3 112.4 148.9 112.1 148.0 112.0 C 145.9 112.0 146.4 112.2 145.4 111.8 C 143.5 111.9 141.5 111.9 139.5 111.7 C 138.2 111.8 140.7 112.3 142.8 112.4 C 142.7 112.5 142.1 112.4 142.1 112.5 C 139.7 112.2 139.3 111.8 135.7 111.5 C 138.4 111.9 134.2 111.6 133.7 111.3 C 132.2 111.3 133.3 111.7 134.3 111.7 C 134.1 111.8 133.2 111.6 133.1 111.5 C 132.9 111.9 136.4 112.3 140.1 112.3 C 138.4 112.6 142.8 112.4 140.8 112.8 C 143.9 112.8 141.3 112.5 144.7 112.6 C 144.4 112.5 143.8 112.4 143.4 112.3 C 146.0 112.3 145.3 112.6 148.0 112.6 C 148.5 112.4 146.7 112.4 146.7 112.3 C 149.7 112.6 150.6 112.7 152.6 113.0 C 153.0 112.8 152.5 112.6 155.9 112.8 C 155.9 112.8 155.9 112.9 155.9 112.9 C 154.3 112.9 153.9 113.3 157.8 113.3 C 158.1 113.2 156.9 113.2 155.9 113.2 C 156.3 113.0 157.6 113.0 159.1 112.9 C 159.9 113.0 160.8 113.1 159.8 113.1 C 160.4 113.3 161.0 112.9 163.1 113.0 C 163.1 113.0 163.1 113.0 163.1 113.0 Z M 8.2 59.9 C 8.2 60.2 8.2 60.6 8.2 61.2 C 8.4 61.5 8.4 60.3 8.5 60.3 C 8.6 59.4 8.3 60.1 8.2 59.9 C 8.2 59.9 8.2 59.9 8.2 59.9 Z M 12.9 47.9 C 12.7 47.8 12.5 48.6 11.8 49.5 C 11.8 49.9 12.5 48.8 12.6 48.8 C 13.4 47.8 12.1 48.9 12.9 47.9 C 12.9 47.9 12.9 47.9 12.9 47.9 Z M 10.0 52.9 C 9.6 53.3 9.9 53.4 10.3 52.5 C 10.4 52.6 10.4 52.9 10.2 53.5 C 10.7 53.0 10.5 52.4 11.1 51.3 C 10.8 51.6 10.4 52.2 10.0 52.9 C 10.0 52.9 10.0 52.9 10.0 52.9 Z M 9.4 54.6 C 9.3 55.3 8.9 55.7 8.8 56.8 C 9.0 56.6 9.7 54.2 9.7 53.8 C 9.7 53.3 8.8 55.9 9.4 54.6 C 9.4 54.6 9.4 54.6 9.4 54.6 Z M 96.0 107.7 C 96.6 107.8 96.5 107.7 96.6 107.7 C 98.4 108.3 101.1 108.6 98.9 108.7 C 100.9 108.7 102.7 109.3 104.4 109.6 C 105.9 109.8 105.2 109.5 106.3 109.6 C 108.1 109.9 105.3 109.6 105.7 109.8 C 106.0 110.0 106.6 109.7 108.8 110.1 C 108.2 109.6 110.7 110.3 110.1 109.8 C 111.3 110.1 111.6 110.0 113.2 110.2 C 113.1 110.0 111.5 109.8 111.4 109.7 C 110.6 109.3 110.5 109.8 112.0 109.9 C 111.1 110.0 108.9 109.4 108.2 109.5 C 107.5 109.2 110.3 109.7 109.5 109.4 C 108.9 109.3 108.4 109.3 108.3 109.4 C 107.4 109.2 106.8 109.1 106.4 108.9 C 107.0 109.0 107.0 109.0 107.0 109.1 C 108.2 109.2 105.9 108.5 108.3 108.8 C 107.9 108.7 106.9 108.6 107.1 108.4 C 106.4 108.2 107.0 109.1 104.6 108.5 C 102.9 108.5 108.4 109.2 107.0 109.5 C 103.5 109.0 105.5 108.9 102.7 108.5 C 102.7 108.6 102.8 108.7 102.0 108.6 C 102.1 108.8 103.2 108.9 103.9 109.0 C 103.8 109.1 102.7 108.9 102.0 108.8 C 102.1 108.9 102.7 109.0 102.7 109.0 C 100.3 108.6 100.6 108.2 102.8 108.3 C 102.7 108.1 99.9 107.7 99.1 107.7 C 99.8 108.0 99.0 107.9 99.6 108.2 C 100.2 108.3 100.1 108.2 100.3 108.1 C 101.3 108.4 100.3 108.3 100.2 108.4 C 99.0 108.2 99.1 108.0 97.8 107.9 C 98.1 107.9 98.4 107.9 98.4 107.8 C 97.9 107.7 97.2 107.6 96.6 107.5 C 96.7 107.7 95.9 107.6 96.0 107.7 C 96.0 107.7 96.0 107.7 96.0 107.7 Z M 128.5 112.0 C 130.6 112.2 129.5 111.9 128.5 111.9 C 128.9 111.8 129.7 111.8 130.5 111.8 C 129.8 111.7 129.3 111.7 127.3 111.5 C 129.0 111.3 127.2 110.8 124.1 110.6 C 123.1 111.0 125.8 111.2 124.7 111.4 C 127.0 111.4 128.3 111.7 128.5 112.0 C 128.5 112.0 128.5 112.0 128.5 112.0 Z M 20.3 40.3 C 19.4 41.1 18.5 41.9 17.7 42.7 C 17.9 42.7 20.8 40.5 20.3 40.3 C 20.3 40.3 20.3 40.3 20.3 40.3 Z M 106.4 12.6 C 106.9 12.5 107.0 12.6 107.0 12.6 C 108.9 12.3 106.2 12.5 107.0 12.2 C 106.3 12.3 105.7 12.4 105.1 12.5 C 105.0 12.6 107.7 12.4 105.8 12.7 C 105.9 12.8 106.4 12.7 106.4 12.6 C 106.4 12.6 106.4 12.6 106.4 12.6 Z M 8.5 59.0 C 8.6 59.8 8.8 59.3 8.8 61.2 C 8.9 60.5 8.9 60.1 8.9 59.0 C 8.8 59.0 8.7 59.0 8.5 59.0 C 8.5 59.0 8.5 59.0 8.5 59.0 Z M 86.9 106.6 C 88.4 107.1 88.9 106.6 91.7 107.3 C 90.3 106.7 88.6 106.8 86.9 106.6 C 86.9 106.6 86.9 106.6 86.9 106.6 Z M 193.0 111.2 C 192.0 111.2 193.2 111.1 191.6 111.1 C 190.8 111.2 190.4 111.4 189.1 111.5 C 190.9 111.6 194.2 111.1 195.5 111.4 C 197.1 111.2 196.9 111.0 197.4 110.8 C 196.6 110.8 196.3 110.8 196.1 110.8 C 195.2 111.2 194.1 110.7 193.0 111.2 C 193.0 111.2 193.0 111.2 193.0 111.2 Z M 120.2 111.0 C 119.0 110.7 121.0 110.8 121.5 110.7 C 122.4 110.8 122.0 110.9 122.1 111.1 C 123.3 111.1 123.6 111.0 123.4 110.8 C 121.3 110.6 118.7 110.3 120.3 110.2 C 118.2 109.9 119.3 110.3 118.3 110.3 C 117.2 110.0 118.3 110.1 118.4 109.8 C 117.9 109.8 116.3 110.0 116.5 109.6 C 113.4 109.7 114.7 110.2 117.0 110.8 C 119.0 110.8 116.7 110.4 120.2 111.0 C 120.2 111.0 120.2 111.0 120.2 111.0 Z M 43.3 93.9 C 43.5 94.1 44.9 94.7 44.9 94.8 C 46.7 95.2 48.4 95.6 50.1 96.0 C 49.9 95.6 47.5 95.0 48.4 95.5 C 47.7 95.1 46.2 94.4 45.3 93.9 C 43.6 93.2 42.9 93.4 42.8 93.0 C 41.3 92.5 42.1 92.9 39.8 91.7 C 43.4 93.6 38.4 91.3 38.1 91.4 C 40.2 92.4 42.2 93.2 42.0 92.9 C 43.6 93.7 45.5 94.5 45.8 94.8 C 45.6 94.9 44.3 94.3 43.3 93.9 C 43.3 93.9 43.3 93.9 43.3 93.9 Z M 53.7 97.0 C 53.0 96.8 52.3 96.6 51.1 96.2 C 51.8 96.5 52.0 96.7 51.8 96.8 C 54.1 97.6 54.3 97.5 54.6 97.8 C 55.8 98.3 54.4 97.4 56.2 98.1 C 56.1 98.0 55.2 97.7 55.3 97.6 C 55.1 97.7 54.8 97.7 53.7 97.0 C 53.7 97.0 53.7 97.0 53.7 97.0 Z M 69.9 102.3 C 71.4 102.6 69.2 101.9 70.0 101.9 C 69.6 101.9 66.9 101.1 67.3 101.0 C 66.6 100.5 63.8 100.4 64.1 100.1 C 63.5 99.9 63.7 100.1 63.5 100.1 C 65.4 100.6 65.4 100.8 64.0 100.4 C 64.2 100.6 65.4 100.9 66.1 101.1 C 66.3 101.0 65.6 100.8 65.7 100.7 C 67.3 101.2 68.5 101.7 69.9 102.3 C 69.9 102.3 69.9 102.3 69.9 102.3 Z M 176.8 10.2 C 175.2 10.1 174.3 10.1 173.5 10.1 C 174.0 10.3 174.7 10.2 175.5 10.2 C 175.7 10.4 175.0 10.3 174.2 10.3 C 174.9 10.6 177.6 10.5 176.8 10.2 C 176.8 10.2 176.8 10.2 176.8 10.2 Z M 163.7 9.9 C 162.3 9.8 161.3 9.9 161.1 10.0 C 161.7 10.2 161.5 9.9 162.4 9.9 C 163.0 10.0 163.4 10.1 163.7 10.2 C 164.4 10.2 164.2 10.1 164.4 10.0 C 164.9 10.0 165.0 10.1 165.1 10.1 C 166.8 9.9 163.0 10.1 163.7 9.9 C 163.7 9.9 163.7 9.9 163.7 9.9 Z M 60.8 99.6 C 60.4 99.4 60.1 99.1 58.8 98.8 C 59.0 99.0 58.0 98.7 57.2 98.4 C 58.4 99.0 59.0 99.1 60.8 99.6 C 60.8 99.6 60.8 99.6 60.8 99.6 Z M 84.8 16.7 C 83.0 16.8 83.2 17.2 80.7 17.5 C 80.7 17.6 80.7 17.7 80.7 17.8 C 82.2 17.2 82.9 17.3 84.8 16.7 C 84.8 16.7 84.8 16.7 84.8 16.7 Z M 307.3 69.9 C 307.2 69.7 306.6 71.0 306.4 71.0 C 306.6 71.4 305.9 71.7 304.2 74.0 C 304.1 74.0 304.2 73.8 304.4 73.5 C 302.9 75.3 305.0 73.2 305.3 73.0 C 306.3 71.5 306.6 71.4 307.3 69.9 C 307.3 69.9 307.3 69.9 307.3 69.9 Z M 173.5 111.5 C 173.4 111.6 173.8 111.6 174.1 111.6 C 174.6 111.6 175.0 111.6 175.4 111.5 C 175.3 111.2 173.1 111.2 174.7 110.8 C 174.2 110.8 174.1 110.8 174.1 110.9 C 171.0 111.7 168.5 110.6 164.3 111.1 C 163.7 111.1 163.8 111.2 163.7 111.2 C 164.2 111.2 164.3 111.3 164.3 111.3 C 164.8 111.0 168.6 111.3 166.9 111.4 C 167.1 111.5 167.6 111.5 167.6 111.4 C 168.0 111.4 168.5 111.4 168.9 111.4 C 168.7 111.3 167.8 111.3 167.6 111.2 C 169.7 111.3 172.2 111.3 170.9 111.6 C 172.2 111.5 172.6 111.4 173.5 111.3 C 174.3 111.3 174.3 111.5 173.5 111.5 C 173.5 111.5 173.5 111.5 173.5 111.5 Z M 190.3 110.6 C 192.3 110.5 191.5 110.3 193.5 110.2 C 192.3 110.1 190.7 110.5 189.0 110.4 C 189.3 110.5 190.1 110.5 190.3 110.6 C 190.3 110.6 190.3 110.6 190.3 110.6 Z M 152.6 111.3 C 153.0 111.0 151.2 111.0 149.3 110.9 C 148.9 111.2 150.7 111.3 152.6 111.3 C 152.6 111.3 152.6 111.3 152.6 111.3 Z M 161.1 111.3 C 163.0 111.2 158.7 111.3 159.8 111.0 C 158.9 111.0 157.9 111.0 157.8 110.9 C 157.1 111.0 157.1 111.1 155.9 111.1 C 155.9 111.2 158.0 111.2 157.8 111.3 C 159.3 111.2 159.6 111.2 161.1 111.3 C 161.1 111.3 161.1 111.3 161.1 111.3 Z M 162.4 111.3 C 163.6 111.3 162.0 110.9 160.5 110.9 C 161.0 111.0 161.4 111.2 162.4 111.3 C 162.4 111.3 162.4 111.3 162.4 111.3 Z M 18.9 78.1 C 19.5 78.6 19.2 78.0 19.9 78.6 C 19.9 78.5 17.5 76.3 19.6 78.1 C 19.0 77.2 18.3 77.2 17.6 76.3 C 17.8 76.6 17.9 76.9 17.4 76.4 C 17.0 76.3 19.3 78.2 18.9 78.1 C 18.9 78.1 18.9 78.1 18.9 78.1 Z M 21.4 80.3 C 22.0 80.7 21.8 80.4 21.5 80.2 C 21.6 80.2 22.4 80.9 23.0 81.3 C 22.9 81.4 22.2 80.2 22.3 80.1 C 19.9 78.4 21.5 80.0 21.4 80.3 C 21.4 80.3 21.4 80.3 21.4 80.3 Z M 23.9 82.0 C 25.5 83.4 28.1 85.0 29.5 85.5 C 28.2 84.4 24.9 82.3 23.9 82.0 C 23.9 82.0 23.9 82.0 23.9 82.0 Z M 12.5 69.4 C 13.4 71.9 17.0 76.2 14.4 72.0 C 14.3 72.2 12.5 69.6 12.1 68.2 C 12.0 68.2 11.2 66.8 11.3 66.7 C 10.8 65.7 12.6 70.1 12.5 69.4 C 12.5 69.4 12.5 69.4 12.5 69.4 Z M 32.1 86.5 C 31.0 86.0 32.1 87.2 30.7 86.1 C 29.8 85.7 30.9 86.4 30.5 86.3 C 32.5 87.4 36.8 89.4 37.1 89.8 C 38.3 90.2 38.7 90.3 40.8 91.2 C 41.0 91.2 33.3 87.9 32.0 86.6 C 32.2 86.6 34.7 87.9 32.1 86.5 C 32.1 86.5 32.1 86.5 32.1 86.5 Z M 85.0 18.1 C 85.2 17.9 82.8 18.5 83.2 18.2 C 82.0 18.7 80.7 18.8 79.3 19.3 C 78.9 19.3 78.9 18.9 76.9 19.3 C 76.9 19.5 77.9 19.3 77.0 19.6 C 75.2 20.1 75.6 19.7 73.6 20.2 C 74.0 20.6 69.3 21.4 69.8 21.7 C 70.9 21.4 70.8 21.2 72.6 20.8 C 73.2 20.7 73.0 20.9 73.7 20.7 C 73.2 21.1 72.2 20.9 71.5 21.3 C 71.7 21.4 73.1 21.1 73.3 21.2 C 74.1 21.0 73.0 21.2 73.2 21.0 C 75.4 20.4 73.2 21.6 75.5 20.9 C 75.0 20.8 75.0 20.8 75.4 20.5 C 76.4 20.4 79.3 19.6 77.7 20.2 C 77.9 20.3 79.6 19.7 79.4 19.6 C 80.3 19.4 80.4 19.4 80.5 19.5 C 83.0 18.9 83.3 18.6 82.7 18.5 C 83.2 18.2 83.6 18.5 85.0 18.1 C 85.0 18.1 85.0 18.1 85.0 18.1 Z M 10.9 56.9 C 11.0 55.9 10.8 57.9 10.6 58.8 C 10.8 57.7 11.0 58.1 11.3 57.0 C 11.1 57.4 11.1 57.3 11.3 56.5 C 11.2 56.3 10.7 58.0 10.9 56.9 C 10.9 56.9 10.9 56.9 10.9 56.9 Z M 45.5 93.2 C 46.3 93.7 50.7 95.2 53.1 96.1 C 52.8 95.6 46.9 94.0 46.4 93.4 C 45.1 92.9 47.0 93.8 45.5 93.2 C 45.5 93.2 45.5 93.2 45.5 93.2 Z M 63.8 22.8 C 63.2 23.0 63.6 22.9 63.8 22.9 C 63.7 23.0 62.6 23.3 61.8 23.5 C 63.0 23.4 61.6 23.8 61.9 24.0 C 61.3 24.2 61.0 24.3 60.9 24.4 C 60.7 24.0 57.7 25.6 61.0 24.7 C 60.3 24.6 60.6 24.6 61.9 24.1 C 63.4 23.8 64.6 23.3 65.2 23.4 C 66.1 23.1 66.5 22.9 67.8 22.5 C 68.1 22.6 69.4 22.4 68.5 23.0 C 70.8 22.4 69.1 22.2 71.0 21.7 C 72.9 21.4 70.2 22.2 70.6 22.3 C 71.1 22.2 71.0 22.3 71.2 22.3 C 71.9 22.1 71.8 21.9 71.1 22.1 C 71.3 21.9 73.2 21.3 72.7 21.7 C 73.8 21.3 70.8 21.4 69.4 22.0 C 68.5 22.3 68.4 21.8 69.3 21.6 C 68.9 21.5 67.3 22.5 67.6 21.9 C 66.9 22.1 66.2 22.3 65.5 22.5 C 65.6 22.5 66.0 22.4 66.0 22.5 C 65.3 22.7 64.6 22.9 63.9 23.1 C 64.5 22.8 64.5 22.7 63.8 22.8 C 63.8 22.8 63.8 22.8 63.8 22.8 Z M 35.9 88.8 C 37.6 89.7 38.1 89.8 39.5 90.4 C 39.0 90.0 35.2 88.2 35.9 88.8 C 35.9 88.8 35.9 88.8 35.9 88.8 Z M 95.2 17.0 C 95.0 17.0 94.0 17.2 94.0 17.1 C 95.8 16.7 93.7 16.9 95.1 16.3 C 92.7 16.8 92.0 17.5 95.3 17.2 C 97.6 16.8 92.8 17.5 95.2 17.0 C 95.2 17.0 95.2 17.0 95.2 17.0 Z M 88.0 18.1 C 86.6 18.5 90.3 18.0 91.1 17.9 C 91.1 18.0 91.1 18.1 91.1 18.1 C 93.1 17.4 90.3 17.8 92.1 17.0 C 89.8 17.3 88.8 17.4 86.8 17.9 C 86.9 17.9 87.4 17.8 87.4 17.8 C 88.9 17.5 87.9 18.0 86.3 18.2 C 86.8 18.2 88.2 18.0 89.2 17.8 C 88.9 17.8 88.6 17.8 88.6 17.7 C 89.9 17.4 89.4 17.7 90.4 17.5 C 90.4 17.7 88.1 18.3 88.0 18.1 C 88.0 18.1 88.0 18.1 88.0 18.1 Z M 212.9 14.9 C 211.6 14.8 214.2 15.4 214.0 15.8 C 215.3 16.0 215.6 16.0 216.5 16.0 C 216.1 15.8 214.6 15.6 214.1 15.4 C 214.3 15.1 216.0 15.7 216.5 15.6 C 217.4 15.3 213.4 15.3 212.9 14.9 C 212.9 14.9 212.9 14.9 212.9 14.9 Z M 32.8 35.2 C 32.1 35.6 32.5 35.5 32.8 35.3 C 32.8 35.4 31.6 36.0 31.6 36.0 C 30.7 36.5 32.2 35.8 31.1 36.4 C 30.9 36.7 32.8 35.4 32.9 35.4 C 34.3 34.6 33.3 35.4 33.7 35.3 C 35.0 34.7 34.4 34.7 36.3 33.8 C 35.1 34.3 34.1 34.6 32.8 35.2 C 32.8 35.2 32.8 35.2 32.8 35.2 Z M 99.3 15.9 C 99.5 15.8 98.0 16.5 96.3 16.5 C 94.2 16.9 97.7 16.6 95.8 16.9 C 97.4 16.7 99.3 16.2 101.8 15.8 C 102.4 15.6 98.3 16.3 100.6 15.8 C 100.4 15.8 99.9 15.9 99.9 15.9 C 99.5 16.0 99.4 16.0 99.3 15.9 C 99.3 15.9 99.3 15.9 99.3 15.9 Z M 97.0 16.8 C 97.1 16.9 97.6 16.8 97.6 16.7 C 98.4 16.6 98.4 16.9 97.7 17.0 C 98.7 17.1 98.6 16.6 100.7 16.5 C 99.8 16.4 99.3 16.3 101.2 16.2 C 102.7 15.8 97.7 16.6 97.0 16.8 C 97.0 16.8 97.0 16.8 97.0 16.8 Z M 192.8 13.0 C 193.0 13.2 194.4 13.2 195.4 13.3 C 194.1 13.4 188.9 12.9 188.3 12.7 C 187.8 12.7 187.2 12.7 187.0 12.6 C 187.1 12.7 185.6 12.7 186.4 12.8 C 186.2 12.9 185.1 12.8 185.1 12.9 C 183.2 12.7 185.7 12.8 185.1 12.6 C 182.8 12.7 183.3 12.5 180.6 12.4 C 181.0 12.6 184.0 12.7 183.8 13.0 C 185.9 12.8 188.2 13.2 189.5 13.5 C 187.6 13.0 195.0 13.4 198.5 13.7 C 198.4 13.9 199.6 14.0 201.0 14.2 C 201.9 14.6 201.7 14.0 199.8 13.9 C 199.9 13.8 202.4 14.2 203.5 14.2 C 202.3 14.0 203.0 13.9 202.3 13.8 C 199.9 13.5 202.1 13.8 201.6 14.0 C 201.0 13.9 200.4 13.8 199.7 13.8 C 203.1 13.7 194.9 13.3 197.9 13.5 C 195.3 13.3 195.2 13.1 192.8 13.0 C 192.8 13.0 192.8 13.0 192.8 13.0 Z M 131.9 12.5 C 131.5 12.6 129.5 12.9 129.4 12.7 C 126.8 13.1 129.1 13.1 126.2 13.3 C 126.4 13.4 127.5 13.3 127.5 13.4 C 128.6 13.2 129.7 13.1 129.4 12.9 C 130.7 12.8 131.1 12.7 132.0 12.6 C 131.6 12.7 131.2 12.8 130.0 12.9 C 129.9 13.1 130.3 13.2 132.0 13.1 C 132.7 12.8 132.2 12.7 131.9 12.5 C 131.9 12.5 131.9 12.5 131.9 12.5 Z M 125.5 13.3 C 125.2 13.3 124.9 13.2 124.9 13.1 C 124.0 12.9 124.6 13.5 123.6 13.5 C 122.9 13.6 123.1 13.4 123.0 13.4 C 121.9 13.5 121.0 13.6 120.5 13.6 C 118.7 13.9 122.5 13.6 123.0 13.7 C 124.3 13.6 123.8 13.4 125.5 13.3 C 125.5 13.3 125.5 13.3 125.5 13.3 Z M 106.7 15.0 C 106.3 14.8 105.7 15.2 104.9 15.3 C 105.5 15.5 107.3 15.1 106.1 15.6 C 107.9 15.4 108.1 15.4 109.9 15.1 C 111.0 15.2 109.9 14.9 108.0 15.2 C 108.2 15.1 109.1 15.0 109.2 14.9 C 110.4 15.2 113.5 14.1 111.7 14.6 C 111.1 14.6 110.7 14.6 110.4 14.5 C 110.0 14.8 105.8 15.2 106.7 15.0 C 106.7 15.0 106.7 15.0 106.7 15.0 Z M 48.4 28.7 C 50.0 28.1 50.9 27.8 51.7 27.5 C 52.6 27.2 53.9 26.7 54.9 26.4 C 54.9 26.5 54.8 26.6 54.4 26.8 C 54.9 26.7 55.5 26.4 56.4 26.1 C 56.3 26.0 55.9 26.2 55.9 26.3 C 54.2 26.6 55.6 26.2 55.8 25.9 C 53.7 26.3 50.6 27.9 49.1 28.1 C 47.9 28.7 49.3 28.2 48.4 28.7 C 48.4 28.7 48.4 28.7 48.4 28.7 Z M 306.2 67.5 C 306.2 67.7 305.9 68.4 306.1 68.3 C 306.3 67.7 306.4 67.3 306.6 66.8 C 306.1 67.8 305.9 67.5 305.3 68.8 C 305.6 68.5 305.8 68.7 306.2 67.5 C 306.2 67.5 306.2 67.5 306.2 67.5 Z M 112.9 14.3 C 113.0 14.4 113.1 14.6 112.3 14.6 C 112.1 14.9 114.1 14.5 114.2 14.7 C 114.9 14.6 114.6 14.5 115.5 14.4 C 115.1 14.3 113.5 14.5 114.1 14.2 C 114.7 14.1 114.7 14.2 114.8 14.2 C 116.1 14.0 114.1 14.1 112.9 14.3 C 112.9 14.3 112.9 14.3 112.9 14.3 Z M 219.0 16.0 C 218.1 15.9 218.9 16.1 219.6 16.2 C 217.8 16.2 220.6 16.8 220.7 17.1 C 219.9 16.7 217.5 16.5 217.1 16.4 C 216.4 16.3 217.2 16.6 215.2 16.4 C 215.4 16.7 217.6 16.8 217.1 16.5 C 217.6 16.9 219.7 16.9 219.5 17.1 C 222.2 17.6 222.8 17.5 223.1 17.3 C 220.5 17.0 221.9 16.8 219.6 16.5 C 219.6 16.4 220.3 16.5 220.7 16.6 C 220.6 16.4 219.6 16.2 219.0 16.0 C 219.0 16.0 219.0 16.0 219.0 16.0 Z M 152.7 11.9 C 151.2 11.9 151.3 12.1 151.3 12.3 C 151.9 12.2 152.8 12.2 153.9 12.2 C 153.7 12.1 151.9 12.2 152.7 11.9 C 152.7 11.9 152.7 11.9 152.7 11.9 Z M 209.1 15.0 C 209.0 14.9 208.5 14.9 208.5 14.9 C 206.9 14.8 206.6 14.6 206.0 14.4 C 205.2 14.4 205.5 14.6 205.4 14.7 C 206.9 14.6 206.5 14.9 208.5 15.1 C 208.4 15.0 208.6 15.0 209.1 15.0 C 209.1 15.0 209.1 15.0 209.1 15.0 Z M 166.3 12.1 C 165.5 12.1 165.9 12.1 166.3 12.1 C 165.4 12.4 162.7 12.1 161.7 12.3 C 161.6 12.4 164.9 12.4 161.1 12.5 C 161.8 12.7 165.2 12.6 166.9 12.6 C 166.5 12.8 164.2 12.8 164.3 13.1 C 166.4 12.9 168.6 12.9 168.9 12.5 C 166.0 12.4 167.0 12.2 166.3 12.1 C 166.3 12.1 166.3 12.1 166.3 12.1 Z M 169.5 12.3 C 169.3 12.2 168.7 12.3 167.6 12.2 C 169.2 12.6 170.2 12.5 173.4 12.6 C 173.4 12.6 173.4 12.5 173.5 12.5 C 174.1 12.5 174.8 12.5 175.4 12.5 C 172.6 12.2 171.9 12.3 168.9 12.3 C 168.8 12.3 169.2 12.3 169.5 12.3 C 169.5 12.3 169.5 12.3 169.5 12.3 Z M 85.2 18.8 C 86.0 18.8 86.7 18.8 88.1 18.6 C 88.0 18.4 87.1 18.4 85.2 18.8 C 85.2 18.8 85.2 18.8 85.2 18.8 Z M 211.6 15.5 C 213.3 15.5 209.9 15.3 210.9 15.6 C 212.2 15.9 213.7 16.2 213.9 16.4 C 216.4 16.4 211.2 15.7 211.6 15.5 C 211.6 15.5 211.6 15.5 211.6 15.5 Z M 200.3 14.8 C 199.6 14.7 199.6 14.3 200.3 14.6 C 202.1 14.8 198.8 14.3 201.6 14.6 C 200.4 14.4 197.8 14.0 196.5 14.1 C 196.6 14.3 199.0 14.4 199.0 14.6 C 199.1 14.7 198.8 14.6 198.4 14.6 C 198.6 14.8 199.2 14.7 200.3 14.8 C 200.3 14.8 200.3 14.8 200.3 14.8 Z M 190.8 13.6 C 191.9 13.8 193.1 14.0 195.3 14.2 C 193.9 13.9 193.1 13.6 190.8 13.6 C 190.8 13.6 190.8 13.6 190.8 13.6 Z M 301.4 48.3 C 300.6 47.5 301.1 48.4 301.2 48.5 C 301.9 49.4 302.0 49.3 302.6 50.3 C 302.6 49.8 301.7 49.1 301.4 48.3 C 301.4 48.3 301.4 48.3 301.4 48.3 Z M 303.7 51.7 C 303.6 51.9 304.4 53.0 304.3 53.2 C 305.1 53.7 304.9 55.1 305.2 54.9 C 305.3 55.2 305.3 55.5 305.5 56.0 C 305.6 54.9 304.4 52.7 303.7 51.7 C 303.7 51.7 303.7 51.7 303.7 51.7 Z M 179.9 13.4 C 178.2 13.3 180.3 13.8 178.6 13.7 C 178.5 13.8 181.8 14.0 179.8 14.0 C 182.5 14.3 179.7 13.5 179.9 13.4 C 179.9 13.4 179.9 13.4 179.9 13.4 Z M 148.1 13.4 C 148.2 13.2 145.9 13.4 144.9 13.4 C 144.9 13.4 145.7 13.4 146.2 13.4 C 145.9 13.5 145.6 13.6 144.9 13.6 C 145.4 13.8 147.2 13.4 148.1 13.4 C 148.1 13.4 148.1 13.4 148.1 13.4 Z M 183.3 9.4 C 184.4 9.7 185.8 10.0 186.6 9.7 C 187.7 10.0 185.8 9.9 187.2 10.1 C 189.0 10.1 188.1 10.3 191.1 10.4 C 190.5 10.7 192.6 10.8 193.0 11.0 C 191.8 11.0 190.3 10.6 189.7 10.8 C 190.7 10.9 190.1 11.1 189.7 10.9 C 187.8 10.6 192.1 10.7 189.7 10.4 C 189.0 10.7 185.6 9.9 183.3 9.8 C 184.2 9.6 181.6 9.4 183.3 9.4 C 183.3 9.4 183.3 9.4 183.3 9.4 Z M 194.9 10.7 C 196.4 10.8 197.2 11.4 196.8 11.3 C 196.8 11.2 195.0 11.1 194.8 11.2 C 195.3 11.2 195.6 11.3 195.5 11.3 C 192.7 11.0 193.7 10.9 193.0 10.7 C 194.6 10.7 195.0 10.9 195.6 10.8 C 195.2 10.8 194.8 10.8 194.9 10.7 C 194.9 10.7 194.9 10.7 194.9 10.7 Z M 227.1 18.8 C 226.9 18.6 226.5 18.7 225.9 18.6 C 225.9 18.3 222.8 18.2 222.4 18.0 C 223.1 18.0 224.7 18.2 225.4 18.2 C 224.6 18.0 224.4 18.0 223.6 17.9 C 223.8 17.7 225.5 18.0 226.0 17.9 C 226.2 18.1 227.0 18.0 227.2 18.2 C 224.9 17.9 228.5 19.0 227.1 18.8 C 227.1 18.8 227.1 18.8 227.1 18.8 Z M 165.0 13.3 C 164.8 13.6 167.5 14.2 165.0 14.4 C 164.4 14.2 164.1 14.0 164.3 13.7 C 162.7 13.9 162.0 13.6 161.1 13.8 C 158.1 13.1 163.4 13.9 165.0 13.3 C 165.0 13.3 165.0 13.3 165.0 13.3 Z M 154.6 13.6 C 155.1 13.3 153.7 13.4 153.9 13.2 C 155.2 13.3 159.3 13.1 157.9 13.2 C 156.5 13.3 156.5 13.5 154.6 13.6 C 154.6 13.6 154.6 13.6 154.6 13.6 Z M 80.4 103.0 C 78.5 102.8 77.7 102.2 78.8 102.3 C 78.3 102.4 81.1 102.9 80.4 103.0 C 80.4 103.0 80.4 103.0 80.4 103.0 Z M 11.8 74.9 C 12.6 76.3 13.4 76.9 13.3 77.2 C 12.3 76.1 12.5 76.1 11.7 75.0 C 11.6 75.0 11.0 74.4 11.0 74.2 C 11.5 74.8 11.5 74.6 11.8 74.9 C 11.8 74.9 11.8 74.9 11.8 74.9 Z M 115.0 10.1 C 114.8 10.0 114.1 10.0 114.4 9.8 C 116.3 9.7 118.4 9.3 120.0 9.0 C 120.1 9.1 120.1 9.3 120.1 9.4 C 117.0 9.5 116.2 9.8 115.0 10.1 C 115.0 10.1 115.0 10.1 115.0 10.1 Z M 111.1 10.0 C 110.8 10.2 111.9 10.4 110.6 10.5 C 110.6 10.3 108.2 10.3 109.3 10.2 C 109.7 10.3 110.3 10.2 111.1 10.0 C 111.1 10.0 111.1 10.0 111.1 10.0 Z M 219.4 12.8 C 220.9 13.0 218.8 12.5 218.9 12.4 C 219.9 12.6 221.4 12.8 221.9 13.0 C 220.8 12.8 220.0 13.1 219.4 12.8 C 219.4 12.8 219.4 12.8 219.4 12.8 Z M 196.2 10.7 C 192.9 10.5 194.4 10.2 191.1 9.9 C 192.4 9.8 195.4 10.1 196.3 9.9 C 196.1 10.1 196.9 10.2 196.9 10.3 C 195.7 10.2 195.5 10.1 194.3 10.0 C 194.7 10.3 194.7 10.2 194.3 10.4 C 195.1 10.5 195.7 10.5 196.2 10.5 C 196.0 10.6 197.1 10.8 196.2 10.7 C 196.2 10.7 196.2 10.7 196.2 10.7 Z M 218.7 13.4 C 220.0 13.5 221.0 14.0 220.0 13.8 C 219.8 13.6 218.9 13.7 218.7 13.5 C 220.5 13.7 217.3 13.2 218.2 13.1 C 219.2 13.3 219.6 13.3 219.4 13.1 C 220.1 13.2 221.2 13.3 221.2 13.4 C 220.7 13.4 220.0 13.2 220.0 13.3 C 220.4 13.4 220.7 13.4 220.6 13.5 C 219.5 13.3 219.0 13.3 218.7 13.4 C 218.7 13.4 218.7 13.4 218.7 13.4 Z M 210.1 12.2 C 211.8 12.5 212.0 12.7 212.6 12.9 C 210.3 12.6 209.9 12.2 208.2 11.9 C 210.1 12.1 212.0 12.1 212.6 12.3 C 211.8 12.3 210.3 12.1 210.1 12.2 C 210.1 12.2 210.1 12.2 210.1 12.2 Z M 242.8 103.7 C 241.5 103.9 240.3 104.0 238.8 104.2 C 238.3 104.6 241.2 104.4 240.0 104.5 C 238.5 104.9 239.5 104.3 238.2 104.6 C 239.5 104.6 232.8 106.0 232.4 105.7 C 233.5 105.5 233.8 105.4 233.5 105.3 C 236.3 104.8 237.3 104.3 239.3 103.8 C 240.8 103.8 245.0 103.0 247.2 102.1 C 248.7 102.2 251.2 101.1 253.3 100.9 C 253.7 100.6 251.6 101.1 253.2 100.6 C 254.3 100.6 253.5 100.9 254.9 100.6 C 255.0 100.5 254.6 100.4 255.3 100.2 C 255.3 100.3 256.2 100.1 256.5 100.1 C 253.6 100.9 256.8 100.4 254.5 101.1 C 253.5 101.2 255.4 100.4 252.7 101.1 C 251.8 101.4 250.9 101.8 251.2 101.9 C 250.5 102.1 250.0 102.3 249.6 102.4 C 250.5 101.9 245.8 103.5 247.9 102.6 C 248.1 102.6 249.6 102.2 250.6 101.8 C 249.6 101.8 248.5 102.3 246.8 102.8 C 246.0 102.8 247.0 102.5 246.1 102.6 C 244.8 103.1 246.7 102.9 245.7 103.2 C 246.1 103.1 246.8 103.0 246.8 103.0 C 244.4 103.4 243.5 103.8 242.3 104.1 C 243.1 103.8 240.9 104.2 242.8 103.7 C 242.8 103.7 242.8 103.7 242.8 103.7 Z M 262.2 98.2 C 262.7 98.0 263.2 97.9 263.7 97.7 C 263.9 97.9 261.9 98.6 263.3 98.3 C 261.1 99.0 263.3 98.0 262.2 98.2 C 262.2 98.2 262.2 98.2 262.2 98.2 Z M 251.4 100.4 C 250.6 100.4 251.1 100.8 250.4 101.0 C 251.7 100.6 252.9 100.2 253.1 100.4 C 251.6 100.8 250.9 100.9 249.3 101.4 C 250.8 100.7 247.5 101.6 247.0 101.4 C 248.2 101.1 249.1 100.7 250.8 100.3 C 250.6 100.5 252.9 100.0 251.4 100.4 C 251.4 100.4 251.4 100.4 251.4 100.4 Z M 255.6 98.9 C 256.0 99.0 258.2 98.2 257.8 98.6 C 256.4 99.0 255.9 99.2 256.3 99.3 C 255.3 99.6 255.1 99.6 254.1 99.8 C 253.5 99.7 255.2 99.3 255.6 99.0 C 255.3 99.1 255.0 99.1 255.6 98.9 C 255.6 98.9 255.6 98.9 255.6 98.9 Z M 299.7 75.5 C 300.2 75.3 298.6 76.7 298.3 77.0 C 298.9 76.7 298.8 77.0 297.8 78.0 C 298.0 77.4 296.5 78.8 295.3 79.3 C 295.1 79.7 296.6 78.7 295.0 80.0 C 293.7 80.9 292.7 81.8 290.5 83.2 C 289.8 83.3 290.8 82.7 291.3 82.2 C 289.9 83.2 290.2 82.8 289.0 83.5 C 289.3 83.4 288.4 84.1 287.9 84.2 C 289.9 82.9 285.0 85.5 287.2 84.2 C 287.3 84.2 287.8 83.9 288.3 83.5 C 287.9 84.2 290.6 82.4 291.3 82.2 C 292.0 81.0 294.7 79.4 297.3 77.4 C 297.6 77.4 296.8 78.1 297.5 77.6 C 297.5 77.4 298.3 76.8 298.5 76.4 C 298.6 76.5 299.0 76.3 299.4 75.9 C 299.4 75.8 299.5 75.7 299.7 75.5 C 299.7 75.5 299.7 75.5 299.7 75.5 Z M 139.6 109.1 C 139.8 108.7 135.6 108.8 134.5 108.8 C 134.7 108.4 142.0 108.9 139.6 109.1 C 139.6 109.1 139.6 109.1 139.6 109.1 Z M 164.9 109.2 C 163.9 109.2 164.6 109.5 163.7 109.5 C 163.6 109.2 161.1 109.8 161.1 109.5 C 162.3 109.3 163.0 109.3 164.9 109.2 C 164.9 109.2 164.9 109.2 164.9 109.2 Z M 188.3 108.4 C 186.4 108.6 189.3 108.5 188.9 108.6 C 187.3 108.7 185.6 108.8 185.7 108.6 C 187.1 108.6 188.0 108.2 188.3 108.4 C 188.3 108.4 188.3 108.4 188.3 108.4 Z M 153.3 109.0 C 151.7 108.9 154.3 108.6 154.6 108.8 C 152.9 108.8 155.7 109.0 157.2 108.9 C 157.1 109.2 156.5 109.2 157.2 109.4 C 154.9 109.5 156.8 109.2 155.2 109.2 C 154.1 109.3 155.3 109.3 155.2 109.5 C 154.6 109.5 153.9 109.5 153.3 109.5 C 153.3 109.3 153.3 109.2 153.3 109.1 C 154.1 109.1 154.8 109.1 154.6 108.9 C 153.9 108.9 153.8 109.0 153.3 109.0 C 153.3 109.0 153.3 109.0 153.3 109.0 Z M 268.5 92.7 C 267.2 93.1 268.4 92.8 269.4 92.5 C 269.6 92.3 270.2 91.6 271.7 91.3 C 268.7 92.7 272.8 91.2 271.1 92.0 C 270.3 92.1 268.5 93.1 266.9 93.6 C 266.2 93.6 267.7 92.7 268.5 92.7 C 268.5 92.7 268.5 92.7 268.5 92.7 Z M 274.2 90.6 C 274.1 90.6 273.5 90.8 272.6 91.2 C 273.5 90.6 272.1 91.1 273.3 90.6 C 273.2 90.7 277.3 89.1 274.9 90.2 C 272.8 90.9 275.6 90.0 276.5 89.7 C 275.5 90.1 273.7 91.1 273.4 91.0 C 274.0 90.8 274.4 90.6 274.2 90.6 C 274.2 90.6 274.2 90.6 274.2 90.6 Z M 304.4 68.0 C 304.3 67.8 304.0 68.4 303.9 68.5 C 304.8 66.8 305.3 65.3 305.5 64.5 C 305.3 65.3 305.5 65.4 305.7 64.9 C 305.4 65.8 305.5 66.0 305.2 66.3 C 305.3 65.5 304.9 66.9 304.4 68.0 C 304.4 68.0 304.4 68.0 304.4 68.0 Z M 304.4 68.0 " fill="#000000"></path><image xlink:href="../../1BE7A03E-C66D-4413-94C1-F85C6D2757AE/assets/556909E534099076BC3C0EB9B4744AB3.png" width="98.00" height="51.00" transform="matrix(1.00, 0.00, -0.00, -1.00, 113.0, 82.0)"></image><g><clipPath id="clip-249"><path d="M 10.4 11.0 L 308.6 11.0 L 308.6 111.0 L 10.4 111.0 Z M 10.4 11.0 "></path></clipPath><g clip-path="url(#clip-249)"><text xml:space="preserve" font-family="Chalkduster" font-size="32.0" fill="#000000" transform="matrix(1.00, 0.00, -0.00, -1.00, 116.0, 47.0)">i</text><text xml:space="preserve" font-family="Chalkduster" font-size="32.0" fill="#000000" transform="matrix(1.00, 0.00, -0.00, -1.00, 128.6, 47.0)">P</text><text xml:space="preserve" font-family="Chalkduster" font-size="32.0" fill="#000000" transform="matrix(1.00, 0.00, -0.00, -1.00, 150.6, 47.0)">e</text><text xml:space="preserve" font-family="Chalkduster" font-size="32.0" fill="#000000" transform="matrix(1.00, 0.00, -0.00, -1.00, 170.1, 47.0)">r</text><text xml:space="preserve" font-family="Chalkduster" font-size="32.0" fill="#000000" transform="matrix(1.00, 0.00, -0.00, -1.00, 187.0, 47.0)">f</text></g></g></g></svg>