<?xml version="1.0" encoding="UTF-8" standalone="no"?><svg xmlns="http://www.w3.org/2000/svg" xmlns:xlink="http://www.w3.org/1999/xlink" clip-rule="evenodd" stroke-miterlimit="4.00" viewBox="0 0 117 19"><desc>SVG generated by Keynote</desc><defs></defs><g transform="matrix(1.00, 0.00, -0.00, -1.00, 0.0, 19.0)"><text xml:space="preserve" font-family="Chalkduster" font-size="16.0" fill="#FF2A3D" transform="matrix(1.00, 0.00, -0.00, -1.00, 1.0, 4.0)">1</text><text xml:space="preserve" font-family="Chalkduster" font-size="16.0" fill="#FF2A3D" transform="matrix(1.00, 0.00, -0.00, -1.00, 10.7, 4.0)">0</text><text xml:space="preserve" font-family="Chalkduster" font-size="16.0" fill="#FF2A3D" transform="matrix(1.00, 0.00, -0.00, -1.00, 21.2, 4.0)">.</text><text xml:space="preserve" font-family="Chalkduster" font-size="16.0" fill="#FF2A3D" transform="matrix(1.00, 0.00, -0.00, -1.00, 26.7, 4.0)">1</text><text xml:space="preserve" font-family="Chalkduster" font-size="16.0" fill="#FF2A3D" transform="matrix(1.00, 0.00, -0.00, -1.00, 36.3, 4.0)">0</text><text xml:space="preserve" font-family="Chalkduster" font-size="16.0" fill="#FF2A3D" transform="matrix(1.00, 0.00, -0.00, -1.00, 47.4, 4.0)">1</text><text xml:space="preserve" font-family="Chalkduster" font-size="16.0" fill="#FF2A3D" transform="matrix(1.00, 0.00, -0.00, -1.00, 56.4, 4.0)">.</text><text xml:space="preserve" font-family="Chalkduster" font-size="16.0" fill="#FF2A3D" transform="matrix(1.00, 0.00, -0.00, -1.00, 61.8, 4.0)">0</text><text xml:space="preserve" font-family="Chalkduster" font-size="16.0" fill="#FF2A3D" transform="matrix(1.00, 0.00, -0.00, -1.00, 72.4, 4.0)">.</text><text xml:space="preserve" font-family="Chalkduster" font-size="16.0" fill="#FF2A3D" transform="matrix(1.00, 0.00, -0.00, -1.00, 77.8, 4.0)">1</text><text xml:space="preserve" font-family="Chalkduster" font-size="16.0" fill="#FF2A3D" transform="matrix(1.00, 0.00, -0.00, -1.00, 86.8, 4.0)">/</text><text xml:space="preserve" font-family="Chalkduster" font-size="16.0" fill="#FF2A3D" transform="matrix(1.00, 0.00, -0.00, -1.00, 96.2, 4.0)">1</text><text xml:space="preserve" font-family="Chalkduster" font-size="16.0" fill="#FF2A3D" transform="matrix(1.00, 0.00, -0.00, -1.00, 105.1, 4.0)">6</text></g></svg>