<?xml version="1.0" encoding="UTF-8" standalone="no"?><svg xmlns="http://www.w3.org/2000/svg" xmlns:xlink="http://www.w3.org/1999/xlink" clip-rule="evenodd" stroke-miterlimit="4.00" viewBox="0 0 158 19"><desc>SVG generated by Keynote</desc><defs></defs><g transform="matrix(1.00, 0.00, -0.00, -1.00, 0.0, 19.0)"><text xml:space="preserve" font-family="Chalkduster" font-size="16.0" fill="#FF2A3D" transform="matrix(1.00, 0.00, -0.00, -1.00, 1.0, 4.0)">1</text><text xml:space="preserve" font-family="Chalkduster" font-size="16.0" fill="#FF2A3D" transform="matrix(1.00, 0.00, -0.00, -1.00, 10.7, 4.0)">0</text><text xml:space="preserve" font-family="Chalkduster" font-size="16.0" fill="#FF2A3D" transform="matrix(1.00, 0.00, -0.00, -1.00, 21.2, 4.0)">.</text><text xml:space="preserve" font-family="Chalkduster" font-size="16.0" fill="#FF2A3D" transform="matrix(1.00, 0.00, -0.00, -1.00, 26.7, 4.0)">1</text><text xml:space="preserve" font-family="Chalkduster" font-size="16.0" fill="#FF2A3D" transform="matrix(1.00, 0.00, -0.00, -1.00, 36.3, 4.0)">0</text><text xml:space="preserve" font-family="Chalkduster" font-size="16.0" fill="#FF2A3D" transform="matrix(1.00, 0.00, -0.00, -1.00, 47.4, 4.0)">1</text><text xml:space="preserve" font-family="Chalkduster" font-size="16.0" fill="#FF2A3D" transform="matrix(1.00, 0.00, -0.00, -1.00, 56.4, 4.0)">.</text><text xml:space="preserve" font-family="Chalkduster" font-size="16.0" fill="#FF2A3D" transform="matrix(1.00, 0.00, -0.00, -1.00, 61.8, 4.0)">1</text><text xml:space="preserve" font-family="Chalkduster" font-size="16.0" fill="#FF2A3D" transform="matrix(1.00, 0.00, -0.00, -1.00, 71.1, 4.0)">2</text><text xml:space="preserve" font-family="Chalkduster" font-size="16.0" fill="#FF2A3D" transform="matrix(1.00, 0.00, -0.00, -1.00, 80.2, 4.0)">8</text><text xml:space="preserve" font-family="Chalkduster" font-size="16.0" fill="#FF2A3D" transform="matrix(1.00, 0.00, -0.00, -1.00, 91.2, 4.0)">.</text><text xml:space="preserve" font-family="Chalkduster" font-size="16.0" fill="#FF2A3D" transform="matrix(1.00, 0.00, -0.00, -1.00, 96.6, 4.0)">1</text><text xml:space="preserve" font-family="Chalkduster" font-size="16.0" fill="#FF2A3D" transform="matrix(1.00, 0.00, -0.00, -1.00, 106.3, 4.0)">0</text><text xml:space="preserve" font-family="Chalkduster" font-size="16.0" fill="#FF2A3D" transform="matrix(1.00, 0.00, -0.00, -1.00, 117.5, 4.0)">0</text><text xml:space="preserve" font-family="Chalkduster" font-size="16.0" fill="#FF2A3D" transform="matrix(1.00, 0.00, -0.00, -1.00, 127.4, 4.0)">/</text><text xml:space="preserve" font-family="Chalkduster" font-size="16.0" fill="#FF2A3D" transform="matrix(1.00, 0.00, -0.00, -1.00, 136.8, 4.0)">1</text><text xml:space="preserve" font-family="Chalkduster" font-size="16.0" fill="#FF2A3D" transform="matrix(1.00, 0.00, -0.00, -1.00, 145.6, 4.0)">6</text></g></svg>