<?xml version="1.0" encoding="UTF-8" standalone="no"?><svg xmlns="http://www.w3.org/2000/svg" xmlns:xlink="http://www.w3.org/1999/xlink" clip-rule="evenodd" stroke-miterlimit="4.00" viewBox="0 0 55 131"><desc>SVG generated by Keynote</desc><defs></defs><g transform="matrix(1.00, 0.00, -0.00, -1.00, 0.0, 131.0)"><g><clipPath id="clip-21"><path d="M 0.6 0.6 L 0.6 115.2 L 10.6 115.2 L 10.6 0.6 Z M 0.6 0.6 "></path></clipPath><g clip-path="url(#clip-21)"><path d="M 0.0 0.0 L 101.8 0.0 L 102.8 0.0 " fill="none" stroke="#FEFFFE" stroke-width="2.00" stroke-linejoin="round" stroke-dasharray="2.0, 4.0" transform="matrix(0.00, 1.00, 1.00, 0.00, 5.6, 3.0)"></path><path d="M 1.6 108.8 C 1.6 111.0 3.4 112.8 5.6 112.8 C 7.8 112.8 9.6 111.0 9.6 108.8 C 9.6 106.6 7.8 104.8 5.6 104.8 C 3.4 104.8 1.6 106.6 1.6 108.8 Z M 1.6 108.8 " fill="#FEFFFE"></path></g></g><g><clipPath id="clip-22"><path d="M 7.8 81.4 L 57.8 81.4 L 57.8 133.7 L 7.8 133.7 Z M 7.8 81.4 "></path></clipPath><g clip-path="url(#clip-22)"><text xml:space="preserve" font-family="AmericanTypewriter" font-size="30.0" fill="#000000" transform="matrix(1.00, 0.00, -0.00, -1.00, 17.0, 98.0)">q</text><text xml:space="preserve" font-family="AmericanTypewriter" font-size="30.0" fill="#000000" transform="matrix(1.00, 0.00, -0.00, -1.00, 33.9, 98.0)">r</text></g></g></g></svg>