<?xml version="1.0" encoding="UTF-8" standalone="no"?><svg xmlns="http://www.w3.org/2000/svg" xmlns:xlink="http://www.w3.org/1999/xlink" clip-rule="evenodd" stroke-miterlimit="4.00" viewBox="0 0 319 133"><desc>SVG generated by Keynote</desc><defs></defs><g transform="matrix(1.00, 0.00, -0.00, -1.00, 0.0, 133.0)"><image xlink:href="../../CEFA4209-80C9-472B-8D2B-058B96531B72/assets/3D04D10A705CD79169D4D2591639252F.png" width="316.00" height="130.00" transform="matrix(1.00, 0.00, -0.00, -1.00, 1.4, 131.6)" opacity="0.50"></image><g><clipPath id="clip-1133"><path d="M 264.9 106.1 C 323.2 84.2 323.2 48.6 264.9 26.6 C 206.7 4.7 112.3 4.7 54.1 26.6 C -4.1 48.6 -4.1 84.2 54.1 106.1 C 112.3 128.1 206.7 128.1 264.9 106.1 Z M 264.9 106.1 "></path></clipPath><g clip-path="url(#clip-1133)"><image xlink:href="../../CEFA4209-80C9-472B-8D2B-058B96531B72/assets/59DBD66EA15A3D40E065F836EF2595FD.jpeg" width="400.00" height="400.00" transform="matrix(1.00, 0.00, -0.00, -1.00, 10.4, 122.6)"></image></g></g><path d="M 81.8 14.4 C 81.3 14.6 80.8 14.7 80.0 14.9 C 80.3 14.9 80.6 14.9 80.6 15.0 C 81.3 14.8 82.2 14.5 83.6 14.2 C 83.5 14.2 82.8 14.4 82.4 14.4 C 81.8 14.6 81.9 14.5 81.8 14.4 C 81.8 14.4 81.8 14.4 81.8 14.4 Z M 69.8 114.7 C 68.6 114.4 69.8 115.0 70.2 115.1 C 70.3 115.1 70.4 115.0 70.8 115.2 C 70.9 115.4 69.9 115.2 69.1 115.0 C 66.0 114.0 68.4 114.3 69.8 114.7 C 69.8 114.7 69.8 114.7 69.8 114.7 Z M 240.6 116.8 C 243.2 116.2 240.4 116.6 240.0 116.6 C 241.2 116.3 240.1 116.1 241.6 115.7 C 241.9 115.8 242.5 115.7 242.8 115.8 C 242.2 115.9 241.2 116.2 241.1 116.3 C 242.0 116.1 243.2 115.7 243.4 115.8 C 241.5 116.3 243.2 116.1 243.5 116.2 C 241.8 116.6 241.3 116.9 240.6 116.8 C 240.6 116.8 240.6 116.8 240.6 116.8 Z M 285.2 33.0 C 286.1 33.5 286.7 34.0 286.5 34.0 C 285.6 33.4 285.0 33.1 284.5 32.7 C 284.3 32.7 284.5 33.0 283.7 32.6 C 282.9 31.9 283.5 31.9 284.0 32.0 C 284.0 32.2 287.1 33.9 285.2 33.0 C 285.2 33.0 285.2 33.0 285.2 33.0 Z M 214.8 11.9 C 212.4 11.4 214.6 12.2 212.2 11.7 C 212.3 11.5 212.0 11.2 213.6 11.4 C 213.7 11.6 214.6 11.7 214.8 11.9 C 214.8 11.9 214.8 11.9 214.8 11.9 Z M 168.5 123.8 C 168.5 124.0 170.3 123.9 169.9 124.1 C 168.9 124.1 168.1 124.1 167.2 124.2 C 167.0 124.0 167.3 123.9 168.5 123.8 C 168.5 123.8 168.5 123.8 168.5 123.8 Z M 256.9 109.8 C 259.4 109.3 261.8 108.0 261.1 108.5 C 262.1 108.5 259.7 109.8 259.7 109.5 C 259.3 109.3 254.9 110.5 256.9 109.8 C 256.9 109.8 256.9 109.8 256.9 109.8 Z M 84.0 114.0 C 86.8 114.8 86.4 114.0 88.2 114.7 C 87.5 114.6 87.2 114.6 87.0 114.6 C 87.4 114.8 88.1 114.9 88.1 115.0 C 86.8 114.7 85.1 114.5 84.0 114.0 C 84.0 114.0 84.0 114.0 84.0 114.0 Z M 124.6 8.4 C 125.1 8.3 125.3 8.3 125.3 8.2 C 127.3 8.0 127.2 7.8 128.5 7.9 C 128.6 8.2 126.9 8.2 125.3 8.3 C 125.2 8.4 124.7 8.5 124.6 8.4 C 124.6 8.4 124.6 8.4 124.6 8.4 Z M 183.1 8.4 C 183.1 8.2 181.8 8.1 183.8 8.1 C 185.9 8.6 184.0 8.6 181.7 8.7 C 181.7 8.8 181.7 8.9 181.7 9.0 C 182.6 9.0 183.2 9.1 183.7 9.2 C 184.1 8.8 185.6 9.6 189.0 9.6 C 187.4 9.7 189.1 10.1 187.0 9.8 C 187.5 10.1 186.0 9.9 186.3 10.1 C 187.2 10.1 189.4 10.3 188.9 9.9 C 190.1 10.0 191.0 10.1 191.5 10.2 C 192.4 10.5 189.4 10.1 190.2 10.4 C 190.9 10.5 191.0 10.6 191.5 10.6 C 191.7 10.5 191.4 10.4 192.2 10.4 C 194.3 10.7 191.8 10.7 194.7 11.0 C 194.9 10.8 194.1 10.7 194.1 10.6 C 195.5 10.6 195.4 10.8 196.7 10.8 C 197.0 10.9 195.8 10.9 196.7 11.0 C 197.6 10.7 199.4 11.5 201.3 11.4 C 200.1 10.7 201.6 11.5 203.3 11.2 C 203.6 11.4 202.4 11.6 203.8 11.8 C 203.4 11.1 209.1 11.9 204.6 10.9 C 207.0 11.2 207.9 10.8 205.9 10.5 C 210.2 11.1 208.8 10.7 210.5 10.8 C 212.1 11.1 209.6 10.8 210.4 11.1 C 208.7 10.9 209.1 11.1 207.9 10.8 C 207.9 10.9 207.5 10.9 207.2 11.0 C 208.9 11.0 210.9 11.6 209.6 11.8 C 208.8 11.6 209.6 11.5 208.4 11.3 C 208.8 11.7 207.2 11.1 207.1 11.3 C 207.9 11.7 205.4 11.6 207.7 12.0 C 207.7 11.9 207.8 11.7 207.8 11.6 C 208.4 11.7 209.0 11.8 209.6 11.9 C 210.2 12.2 209.7 12.3 210.2 12.4 C 211.3 12.6 211.9 12.6 212.2 12.5 C 210.9 12.3 209.4 11.9 211.5 12.1 C 210.7 12.5 214.5 12.7 212.8 12.7 C 215.1 13.2 216.3 13.0 216.5 13.3 C 217.7 13.5 217.0 13.1 218.4 13.4 C 220.7 14.0 220.3 13.6 223.4 14.3 C 223.8 14.0 223.7 14.4 224.6 14.6 C 224.6 14.5 224.7 14.3 224.7 14.2 C 225.7 14.6 228.1 15.2 230.7 15.5 C 231.3 15.7 230.8 15.8 232.5 16.1 C 234.3 16.1 236.3 16.9 238.4 17.1 C 238.6 17.3 240.0 17.6 240.8 17.7 C 241.1 17.9 240.0 17.9 241.3 18.2 C 242.2 18.2 240.7 17.8 242.5 18.1 C 242.3 18.3 244.2 18.4 244.2 18.7 C 243.6 18.6 243.0 18.5 242.4 18.5 C 243.2 18.7 243.0 18.7 243.6 18.9 C 243.5 18.6 244.9 19.2 245.3 19.4 C 245.3 19.2 245.5 19.1 245.9 19.2 C 246.9 19.5 247.7 19.7 248.2 19.7 C 249.4 20.2 247.4 19.7 248.7 20.1 C 249.5 19.7 250.5 20.7 253.2 21.1 C 253.8 21.5 254.8 21.9 256.4 22.4 C 256.6 22.3 254.9 21.9 254.8 21.7 C 257.2 22.5 254.5 21.4 256.0 21.9 C 259.3 23.1 261.5 23.8 264.8 25.3 C 264.9 25.1 269.0 26.5 268.8 26.6 C 267.7 26.1 271.1 27.8 272.8 28.6 C 273.4 28.4 276.2 29.2 276.4 29.1 C 276.9 29.6 276.8 29.5 276.9 30.0 C 279.6 31.4 281.2 31.8 282.6 33.1 C 282.6 32.8 283.8 33.4 284.8 33.9 C 284.4 33.9 283.8 33.7 283.2 33.6 C 284.5 34.3 284.7 34.5 285.8 35.1 C 287.3 35.2 288.6 37.1 289.8 37.1 C 291.5 38.2 291.1 38.2 292.5 39.2 C 292.5 39.1 292.8 39.1 293.2 39.3 C 292.2 38.7 291.4 38.4 291.0 37.8 C 293.3 39.2 287.0 34.3 290.9 36.6 C 291.0 36.8 290.6 36.7 291.3 37.2 C 293.5 38.6 292.4 37.5 291.5 37.0 C 293.0 37.8 294.4 38.9 293.4 37.9 C 296.6 40.1 294.5 38.9 295.5 39.7 C 300.8 43.7 306.2 49.1 308.9 55.6 C 309.3 55.7 310.3 59.2 310.4 60.4 C 311.1 62.1 311.4 64.1 311.1 64.7 C 311.4 65.0 311.0 66.9 311.3 67.1 C 311.3 66.3 311.4 65.8 311.4 66.6 C 311.3 69.3 310.3 73.2 309.9 74.8 C 309.3 75.7 308.7 77.3 308.2 78.6 C 308.0 78.7 308.4 77.7 308.0 78.4 C 308.0 78.7 306.8 81.2 306.3 81.7 C 306.8 81.0 307.0 80.0 306.3 81.1 C 306.4 81.2 305.5 82.3 305.9 82.2 C 304.8 83.6 304.2 84.6 303.1 85.7 C 303.9 84.7 304.3 84.0 304.3 83.7 C 303.7 84.6 303.3 85.4 302.5 85.9 C 302.9 86.0 301.6 87.2 300.3 88.7 C 299.8 88.9 299.4 89.1 298.2 90.2 C 297.8 90.9 300.3 88.7 298.9 90.0 C 298.9 89.9 297.5 90.9 298.0 90.9 C 296.2 92.2 295.4 93.1 293.7 94.0 C 295.7 92.7 294.1 93.5 293.5 93.8 C 293.1 94.1 292.5 94.6 292.5 94.6 C 292.6 94.7 293.5 94.0 293.7 94.0 C 292.3 94.9 292.1 95.5 291.5 95.6 C 292.1 95.2 292.1 95.0 291.4 95.5 C 291.4 95.9 286.9 98.5 288.3 97.4 C 288.4 97.5 290.1 96.4 290.2 96.2 C 289.6 96.4 287.2 98.1 287.6 97.6 C 289.0 96.6 289.0 96.9 290.7 95.7 C 290.8 95.4 291.7 94.7 292.2 94.2 C 289.7 96.0 289.2 96.6 288.7 96.6 C 287.5 97.4 288.4 97.2 286.3 98.4 C 283.3 100.0 285.6 98.4 284.8 98.8 C 282.2 100.4 283.1 100.2 284.4 99.8 C 282.3 101.0 281.6 101.5 278.8 102.8 C 278.9 102.6 279.2 102.3 280.2 101.8 C 280.3 101.8 282.6 100.8 282.3 100.7 C 282.0 100.5 280.1 101.4 277.0 102.8 C 277.9 102.8 277.9 102.6 274.7 104.0 C 275.4 104.1 273.1 104.7 273.2 104.9 C 273.4 104.9 274.5 104.4 275.6 103.9 C 275.6 104.1 275.2 104.4 274.2 104.9 C 273.4 105.1 273.0 105.5 270.9 106.2 C 270.7 106.1 272.1 105.4 272.3 105.2 C 271.2 105.7 271.0 105.9 269.9 106.4 C 268.9 106.5 268.8 106.2 268.8 105.9 C 270.0 105.3 272.0 104.4 270.4 105.0 C 275.2 102.9 270.3 105.4 272.1 104.7 C 274.0 103.5 273.1 104.4 276.1 103.0 C 276.9 102.5 277.2 102.3 277.5 102.1 C 277.3 102.2 275.5 102.7 277.4 101.8 C 277.9 101.8 279.0 101.4 280.5 100.6 C 280.4 100.5 277.4 102.0 280.3 100.4 C 281.8 99.7 280.7 100.7 282.6 99.6 C 282.6 99.5 283.1 99.2 283.2 99.1 C 280.4 100.7 283.6 98.6 281.7 99.5 C 284.1 98.1 282.3 99.6 283.8 98.7 C 283.8 98.5 286.4 97.3 286.3 97.0 C 285.5 97.7 283.5 98.7 283.7 98.4 C 285.4 97.4 292.6 92.6 290.0 94.8 C 291.0 93.9 295.4 90.2 295.2 90.6 C 293.9 91.6 294.0 91.7 293.9 92.0 C 296.3 89.8 297.7 88.9 299.7 86.4 C 297.2 88.8 298.8 86.7 297.1 88.0 C 296.4 88.6 295.4 89.4 295.3 89.7 C 295.8 89.6 296.8 88.5 297.2 88.0 C 297.3 88.2 297.5 88.4 297.6 88.5 C 294.5 91.0 292.7 92.6 290.9 93.7 C 292.4 92.6 287.9 95.3 289.6 94.1 C 290.4 93.7 292.2 92.5 293.6 91.5 C 293.5 91.5 293.5 91.4 293.4 91.4 C 294.0 90.9 294.9 90.2 294.9 90.1 C 293.1 91.6 291.9 92.2 290.7 93.3 C 290.6 93.2 290.6 93.2 290.6 93.1 C 290.2 93.4 289.9 93.6 290.0 93.5 C 290.6 93.0 291.6 92.4 291.6 92.2 C 290.2 93.2 289.8 93.2 288.0 94.3 C 288.3 93.8 285.8 95.0 288.2 93.3 C 288.8 93.2 290.1 92.4 290.2 92.6 C 290.9 92.1 292.2 91.1 292.8 90.5 C 292.1 90.9 290.7 91.8 290.4 91.7 C 291.5 90.9 292.3 90.2 293.0 89.8 C 291.0 91.6 294.3 89.1 295.3 88.6 C 295.0 88.7 294.5 89.1 294.1 89.2 C 295.7 87.9 296.5 87.4 296.3 87.1 C 298.0 85.4 297.8 86.0 298.9 84.8 C 297.9 85.4 299.5 84.0 298.5 84.5 C 300.3 82.6 299.3 84.2 299.9 83.5 C 300.4 82.9 300.3 82.8 300.8 82.2 C 301.6 81.5 302.9 79.7 303.3 79.7 C 303.8 78.9 303.9 78.9 304.4 78.1 C 304.4 77.8 304.5 77.6 304.6 77.2 C 304.7 77.1 305.1 76.6 305.1 76.4 C 303.7 78.3 304.1 77.7 302.4 79.7 C 302.4 79.9 302.2 80.2 302.6 79.8 C 301.6 81.4 301.1 81.7 300.0 83.0 C 299.7 83.0 299.3 83.0 298.3 84.3 C 298.4 83.9 298.1 84.2 298.5 83.7 C 299.1 83.1 299.9 82.4 300.7 81.5 C 300.7 81.4 300.5 81.5 300.8 81.0 C 301.3 80.7 301.8 80.0 302.1 79.4 C 302.2 79.5 302.1 79.7 302.0 80.0 C 303.5 78.1 302.7 78.6 303.7 77.2 C 303.4 77.3 302.9 78.3 303.2 77.4 C 303.9 76.0 304.2 75.8 304.5 75.1 C 304.5 75.0 304.4 75.0 304.6 74.7 C 305.2 73.8 304.1 77.0 305.1 75.4 C 305.0 75.2 305.7 73.6 306.0 73.4 C 305.9 74.0 305.3 74.9 305.4 75.0 C 306.8 72.0 306.0 75.1 307.0 71.9 C 306.9 71.9 306.8 71.9 306.7 71.8 C 306.4 73.1 306.1 73.1 305.9 72.9 C 305.6 74.0 305.1 74.3 304.8 75.3 C 304.6 74.7 305.2 74.4 305.7 73.3 C 305.4 73.2 305.0 74.2 304.8 74.3 C 306.0 71.9 305.8 71.3 306.5 68.9 C 306.1 69.4 306.5 67.6 306.3 67.7 C 306.2 69.8 305.6 68.8 305.5 69.2 C 305.3 70.5 305.8 70.0 305.8 70.8 C 305.5 71.1 305.4 70.9 305.1 70.6 C 305.5 69.5 305.4 69.6 305.4 68.7 C 305.7 68.0 306.2 67.4 306.2 68.5 C 306.2 68.2 306.1 66.7 306.3 66.6 C 306.3 68.0 306.5 66.4 306.5 67.3 C 306.7 66.1 306.3 64.1 306.3 62.6 C 306.1 62.8 306.0 62.3 305.9 62.3 C 306.4 63.7 305.9 64.0 306.0 65.4 C 305.9 64.8 305.8 65.2 305.7 65.4 C 305.8 64.1 305.5 63.4 305.5 62.4 C 305.4 62.4 305.3 62.4 305.2 62.5 C 305.1 60.8 305.1 61.0 304.4 59.9 C 304.4 59.3 305.0 59.9 305.3 60.0 C 305.0 59.4 304.1 57.2 304.4 58.5 C 303.9 57.2 304.3 57.4 303.6 56.1 C 303.4 56.2 304.0 57.4 303.5 57.1 C 302.8 55.9 303.5 56.4 302.7 55.5 C 302.9 55.4 303.1 55.2 302.4 54.2 C 302.7 55.1 302.2 54.1 301.9 53.9 C 302.2 54.4 302.4 54.9 302.5 55.2 C 301.4 53.2 301.1 52.8 299.8 51.3 C 300.4 51.7 299.8 50.8 300.8 51.8 C 299.8 50.9 299.0 49.5 298.4 49.0 C 298.9 49.7 299.8 50.7 300.0 51.2 C 297.3 48.1 295.4 46.7 292.3 43.8 C 292.9 44.3 293.6 44.9 293.8 44.9 C 293.4 44.6 292.8 44.1 292.8 44.1 C 294.0 45.0 295.0 45.9 295.6 46.3 C 296.5 47.3 295.0 46.0 295.9 46.9 C 296.2 46.9 297.7 48.7 297.3 47.8 C 295.7 46.5 294.2 45.0 293.7 44.0 C 291.7 43.0 293.4 44.3 291.2 43.2 C 291.3 43.1 290.9 42.7 290.3 42.3 C 290.7 43.0 288.3 41.1 288.1 40.9 C 289.1 41.4 292.7 43.8 291.1 42.2 C 291.5 43.3 286.9 39.2 287.7 40.3 C 285.2 38.7 286.3 39.0 284.7 38.4 C 284.7 38.3 284.9 38.3 284.2 37.8 C 283.5 37.4 283.2 37.3 282.8 37.2 C 286.6 39.5 285.3 39.1 287.5 40.6 C 287.1 40.4 286.7 40.1 286.8 40.3 C 286.8 40.3 286.7 40.3 286.2 40.0 C 286.2 39.6 284.3 38.9 283.9 38.4 C 284.6 38.8 285.3 39.2 285.2 39.0 C 282.1 37.2 282.9 37.2 278.2 34.7 C 279.6 35.5 277.7 34.6 276.0 33.8 C 273.6 32.6 274.7 32.7 271.6 31.4 C 271.6 31.7 270.8 31.3 269.5 30.7 C 268.8 30.4 268.0 30.1 267.1 29.7 C 266.2 29.3 264.8 28.8 264.1 28.7 C 264.5 28.5 261.4 27.2 260.6 27.2 C 260.6 27.1 259.4 26.7 258.6 26.4 C 258.4 26.2 259.4 26.5 258.7 26.2 C 257.9 26.0 258.5 26.5 257.5 26.2 C 256.4 25.7 256.7 25.5 255.0 25.0 C 254.9 25.2 255.8 25.5 254.9 25.3 C 253.4 24.8 252.1 24.3 253.2 25.0 C 251.0 24.3 252.2 24.2 250.1 23.6 C 250.7 23.9 250.6 24.0 249.5 23.7 C 248.7 23.3 248.7 23.2 248.5 23.0 C 247.8 23.0 248.0 23.1 246.2 22.5 C 246.2 22.6 246.2 22.7 246.1 22.8 C 245.3 22.6 244.1 22.3 243.9 22.1 C 245.4 22.6 245.0 22.3 245.7 22.4 C 244.1 21.9 241.2 20.9 243.4 21.8 C 241.2 21.3 242.4 21.3 240.6 20.9 C 241.6 21.4 240.7 20.9 238.9 20.6 C 239.0 20.9 237.7 20.3 236.5 20.1 C 236.7 20.3 236.4 20.4 235.3 20.1 C 235.4 20.0 234.7 19.8 233.6 19.6 C 233.6 19.7 236.0 20.4 233.5 19.8 C 232.4 19.5 232.5 19.2 230.6 18.8 C 230.3 18.5 232.3 19.0 231.9 18.7 C 230.4 18.6 230.0 18.3 227.7 17.8 C 228.5 18.4 223.2 17.5 225.8 18.3 C 225.0 18.1 223.9 18.2 223.3 17.9 C 224.2 18.0 222.7 17.5 222.8 17.5 C 221.7 17.3 219.2 16.8 219.2 16.9 C 221.5 17.2 221.5 17.5 222.1 17.8 C 218.7 17.3 215.7 16.7 216.0 16.5 C 216.0 16.6 215.5 16.5 215.4 16.6 C 216.6 16.7 217.3 17.2 215.9 17.0 C 216.3 16.8 215.3 16.6 214.2 16.4 C 214.1 16.6 209.6 15.6 210.4 16.1 C 212.2 16.1 213.6 16.7 212.2 16.7 C 211.1 16.3 208.6 15.8 209.2 15.7 C 208.5 15.7 207.9 15.7 207.3 15.7 C 206.7 15.8 208.1 16.0 207.8 16.1 C 206.9 16.0 205.5 15.9 205.3 15.7 C 207.8 16.0 204.0 15.4 206.6 15.6 C 205.0 15.4 204.7 15.2 203.4 15.0 C 203.4 15.1 202.9 15.1 202.8 15.1 C 203.9 15.1 205.0 15.4 204.7 15.6 C 202.4 15.4 202.8 15.1 200.9 14.9 C 200.3 15.0 197.7 15.1 196.4 14.8 C 198.9 15.0 196.2 14.6 197.7 14.7 C 200.0 15.0 200.6 14.9 201.5 14.7 C 200.6 14.5 198.6 14.2 198.3 14.5 C 199.6 14.6 199.6 14.5 200.3 14.5 C 200.2 14.7 199.8 14.7 199.0 14.7 C 197.9 14.4 195.5 14.4 197.1 14.2 C 195.5 14.2 193.7 13.8 192.0 13.8 C 193.8 14.0 195.2 14.2 195.8 14.5 C 194.2 14.4 192.6 14.0 192.6 14.2 C 192.7 14.4 195.2 14.6 195.7 14.8 C 193.7 14.8 190.7 13.9 193.1 14.6 C 192.0 14.5 190.4 14.4 190.0 14.2 C 191.3 14.3 189.9 13.8 189.3 13.7 C 188.1 13.7 187.1 13.6 186.7 13.7 C 188.5 13.7 189.9 14.2 188.6 14.1 C 188.3 13.9 187.9 14.1 187.4 14.1 C 187.2 13.9 185.1 13.9 184.8 13.7 C 184.9 13.9 185.8 14.0 186.0 14.1 C 184.8 14.1 183.0 14.3 182.1 13.9 C 182.9 13.9 184.0 14.0 184.1 13.9 C 180.7 13.4 179.6 13.0 175.6 12.7 C 176.1 12.7 176.4 12.7 176.3 12.6 C 173.7 12.4 172.0 12.3 172.4 12.1 C 170.8 12.1 169.9 12.2 169.1 12.3 C 170.7 12.5 171.3 12.3 172.3 12.5 C 171.7 12.5 173.6 13.0 174.3 13.2 C 177.1 13.1 177.3 13.5 180.2 13.5 C 179.3 13.7 182.3 13.6 181.4 13.9 C 178.8 13.3 176.2 13.5 172.3 13.2 C 172.8 13.0 173.3 12.9 171.7 12.7 C 169.2 12.5 170.4 12.9 168.4 12.8 C 167.5 12.6 168.8 12.5 167.7 12.5 C 167.0 12.5 165.1 12.5 164.4 12.2 C 167.2 12.3 163.9 12.0 165.7 11.9 C 164.8 11.9 164.3 11.9 163.7 11.8 C 166.4 12.1 161.1 12.2 163.1 12.4 C 159.4 12.5 162.8 11.8 159.8 11.8 C 161.3 12.0 159.4 12.1 157.2 12.1 C 156.6 11.8 154.3 11.8 152.5 11.7 C 153.5 11.9 154.2 11.9 152.5 12.0 C 153.4 12.1 155.0 12.1 155.8 12.0 C 155.8 12.1 156.1 12.2 156.5 12.2 C 154.3 12.3 155.2 12.4 154.5 12.5 C 153.9 12.4 152.3 12.4 151.9 12.3 C 151.9 12.4 151.3 12.4 151.3 12.5 C 154.0 12.4 150.8 12.8 152.6 12.8 C 153.8 12.8 153.0 12.6 154.5 12.6 C 156.0 12.9 153.3 12.9 152.6 13.1 C 153.8 13.3 155.4 13.0 155.8 13.3 C 154.2 13.6 151.5 13.4 149.3 13.4 C 149.4 13.7 145.6 13.4 145.3 13.8 C 145.0 13.7 144.6 13.7 144.1 13.6 C 143.4 13.9 142.7 13.6 142.1 13.6 C 142.0 13.8 142.2 13.9 142.7 13.9 C 140.0 13.9 139.4 13.9 136.2 14.3 C 135.7 14.1 135.1 14.0 134.9 13.9 C 135.6 13.8 136.3 13.7 136.8 13.6 C 132.5 13.8 135.3 14.3 132.3 14.1 C 132.4 14.2 134.5 14.4 132.9 14.6 C 130.2 14.4 126.4 15.0 126.4 14.3 C 124.0 14.3 122.5 14.9 121.3 14.7 C 120.6 14.8 120.3 14.9 120.0 15.0 C 120.8 15.1 121.7 15.1 122.6 15.2 C 124.0 14.9 124.7 15.1 123.3 14.9 C 125.4 14.6 126.0 14.8 127.1 14.8 C 124.2 15.2 121.5 15.2 121.4 15.6 C 120.4 15.6 119.6 15.5 118.8 15.4 C 118.5 15.6 115.2 16.1 114.9 15.8 C 117.2 15.6 119.4 15.1 117.4 15.1 C 112.0 15.9 108.9 15.9 104.3 16.9 C 104.1 16.8 104.5 16.5 103.6 16.6 C 103.6 16.8 103.5 16.9 103.0 17.1 C 101.5 17.3 100.7 17.3 98.7 17.7 C 98.8 17.4 98.5 17.3 97.4 17.4 C 96.8 17.8 95.0 18.6 93.8 18.7 C 95.0 18.5 93.4 18.5 92.6 18.6 C 93.4 18.8 87.2 19.4 89.0 19.4 C 86.6 19.9 85.5 20.0 85.5 19.9 C 84.6 20.1 84.0 20.4 83.2 20.6 C 82.6 20.4 78.5 21.6 77.9 21.6 C 79.4 21.4 79.5 20.9 78.4 21.2 C 77.7 21.6 74.1 22.7 73.5 22.8 C 73.6 22.7 73.9 22.4 75.6 21.9 C 72.6 22.6 72.7 23.0 71.8 23.5 C 71.8 23.1 70.6 23.7 70.2 23.9 C 69.2 24.0 70.2 23.8 70.1 23.6 C 69.0 23.9 68.6 23.8 67.3 24.3 C 67.8 24.4 66.2 24.7 65.7 24.8 C 65.5 25.1 64.8 25.4 63.7 25.8 C 65.1 24.9 56.9 27.6 58.9 27.2 C 57.4 28.0 57.2 27.5 55.3 28.3 C 54.9 28.6 53.8 28.9 54.9 28.7 C 54.1 29.0 53.3 29.3 52.9 29.3 C 52.5 29.4 52.1 29.5 50.6 30.2 C 52.0 29.9 47.5 31.4 48.4 31.5 C 46.9 31.6 44.7 33.2 42.2 34.0 C 42.3 34.1 41.7 34.4 41.5 34.5 C 41.3 34.8 44.4 33.4 42.4 34.4 C 39.9 35.4 41.2 34.7 40.8 34.7 C 34.4 38.1 28.0 42.2 23.7 45.9 C 24.3 45.5 24.3 45.6 23.4 46.4 C 21.9 47.2 18.0 51.8 17.6 52.6 C 17.1 52.8 15.9 55.3 15.5 55.7 C 15.8 55.2 16.1 54.2 15.5 55.2 C 15.4 55.9 14.8 56.6 14.6 57.6 C 14.1 58.0 13.3 60.9 13.3 59.5 C 13.1 60.0 13.0 60.3 12.8 60.6 C 13.1 60.7 12.9 61.3 13.3 60.3 C 12.3 62.8 12.6 63.5 12.3 65.4 C 12.4 65.8 12.6 64.3 12.6 65.4 C 12.5 65.4 12.5 65.4 12.4 65.4 C 12.4 65.9 12.5 66.0 12.4 66.2 C 12.3 66.1 12.3 65.5 12.0 65.4 C 12.1 66.4 11.8 67.1 12.0 67.4 C 12.0 66.0 12.5 66.9 12.3 67.8 C 12.1 67.0 12.7 70.9 13.2 72.1 C 13.1 72.8 12.8 70.7 12.7 70.9 C 13.3 73.2 13.2 73.1 13.6 73.2 C 14.0 74.5 14.0 75.0 14.9 76.4 C 15.3 77.3 14.5 76.0 14.9 76.9 C 15.3 77.4 15.5 77.6 16.1 78.4 C 16.9 80.8 21.9 85.2 24.2 88.2 C 23.2 87.1 24.7 88.2 26.3 89.5 C 26.3 89.6 26.1 89.6 26.6 90.0 C 26.7 89.8 27.2 90.2 28.3 91.0 C 28.4 91.2 28.1 91.1 28.7 91.6 C 29.4 91.7 30.7 92.9 31.7 93.4 C 31.9 93.8 29.5 92.1 29.2 92.1 C 32.0 94.2 32.7 94.3 35.1 95.8 C 33.8 95.1 35.9 96.6 36.3 96.9 C 35.8 96.3 37.9 97.4 36.5 96.4 C 37.5 96.9 39.0 97.7 39.2 97.9 C 38.6 97.6 37.8 97.2 37.8 97.2 C 39.0 97.9 40.5 99.0 41.3 99.1 C 40.4 98.6 39.9 98.2 39.9 98.1 C 40.3 98.2 40.8 98.3 41.5 98.6 C 39.2 98.2 45.4 100.8 45.8 100.8 C 46.2 101.5 46.6 101.6 46.3 101.7 C 49.0 102.9 48.8 102.5 50.5 103.1 C 49.9 103.2 49.2 103.2 51.9 104.4 C 51.4 103.8 54.7 105.2 53.8 104.4 C 55.6 105.1 56.0 105.2 56.8 105.5 C 57.5 105.8 58.0 106.0 58.6 106.3 C 59.6 106.7 60.5 107.1 61.8 107.5 C 61.9 107.5 61.1 107.2 61.9 107.4 C 63.1 107.9 64.1 108.3 64.9 108.7 C 65.7 108.7 64.7 108.4 65.5 108.6 C 67.5 109.4 66.9 109.5 68.6 110.2 C 70.9 110.7 70.0 110.6 71.5 110.7 C 70.9 110.5 70.1 110.2 71.0 110.4 C 72.3 111.0 72.7 111.4 73.0 111.6 C 72.1 111.3 71.3 111.1 70.8 110.9 C 70.5 110.9 69.1 110.5 70.2 111.0 C 68.8 110.6 67.3 110.1 65.3 109.5 C 65.9 109.9 63.5 109.0 64.1 109.4 C 66.3 110.1 66.8 110.4 69.0 111.0 C 68.6 110.6 70.8 111.4 71.2 111.6 C 71.3 111.4 72.8 111.9 72.5 111.6 C 74.2 112.0 74.1 112.1 75.8 112.5 C 75.9 112.7 75.6 112.7 76.3 112.9 C 77.0 112.8 77.5 113.3 78.0 113.4 C 77.7 113.1 80.2 113.8 80.4 113.7 C 79.7 113.5 78.8 113.3 78.7 113.2 C 81.5 113.9 79.3 113.1 78.8 112.8 C 78.9 112.9 77.8 113.0 77.6 112.7 C 80.0 113.1 74.4 111.5 76.5 112.1 C 78.3 112.6 78.2 112.4 80.0 112.9 C 82.0 113.8 79.4 113.5 81.5 114.3 C 82.9 114.4 83.8 114.7 83.9 114.5 C 84.2 114.6 84.5 114.8 85.0 115.0 C 85.6 114.9 83.4 114.3 85.1 114.7 C 86.0 114.9 84.9 115.0 86.8 115.4 C 87.7 115.3 84.6 114.6 86.3 114.9 C 88.1 115.7 85.9 114.7 88.1 115.1 C 88.3 115.2 88.6 115.3 89.3 115.5 C 89.4 115.6 89.1 115.7 89.8 115.9 C 90.3 115.6 90.6 116.2 92.2 116.4 C 93.2 116.3 90.6 116.0 91.1 115.8 C 92.9 116.5 94.0 116.3 94.7 116.5 C 93.2 116.4 97.0 117.1 97.1 117.3 C 96.7 117.0 97.5 117.3 99.7 117.4 C 99.7 117.8 102.2 117.9 102.7 118.3 C 103.0 118.3 103.6 118.3 104.0 118.2 C 103.2 118.1 102.5 117.9 102.8 117.8 C 103.4 117.9 104.0 118.0 104.6 118.1 C 105.7 118.5 102.9 118.6 107.1 119.1 C 106.6 118.7 108.4 119.0 109.6 119.0 C 109.5 118.7 107.9 118.8 107.8 118.6 C 109.2 118.6 110.6 119.0 111.5 119.2 C 114.0 119.4 116.9 119.9 120.5 120.2 C 121.3 120.5 117.5 120.1 119.8 120.5 C 120.8 120.5 120.3 120.3 121.7 120.5 C 120.4 121.4 131.5 121.5 132.1 122.0 C 132.6 121.8 135.7 122.1 135.4 121.8 C 133.3 121.9 131.9 121.5 130.8 121.3 C 128.9 121.3 132.6 121.6 130.8 121.6 C 130.6 121.4 128.0 121.3 128.2 121.1 C 131.0 121.4 126.8 120.8 128.9 120.7 C 131.5 121.0 136.7 121.0 135.5 121.3 C 135.5 121.2 134.3 121.1 134.2 121.2 C 137.1 121.5 138.9 121.4 140.1 121.3 C 141.4 121.5 146.7 121.4 145.3 121.5 C 145.8 121.7 142.2 121.3 142.7 121.5 C 148.2 121.9 148.3 121.7 151.9 121.9 C 150.8 121.6 155.7 121.5 155.3 121.6 C 155.3 121.9 156.4 122.1 158.6 121.8 C 158.2 122.1 159.4 122.2 160.6 122.2 C 161.1 122.0 159.6 122.0 159.9 121.8 C 161.0 121.8 162.1 121.8 163.2 121.8 C 163.3 121.9 163.1 122.0 163.9 122.0 C 165.1 121.9 169.5 121.6 169.1 121.7 C 167.3 122.1 172.2 121.9 169.2 122.2 C 170.0 122.2 170.1 122.3 171.2 122.2 C 171.2 122.1 171.2 122.0 171.2 121.9 C 173.6 121.8 172.4 122.2 174.5 122.2 C 174.6 122.1 175.5 122.0 175.8 121.9 C 175.0 121.9 174.9 122.0 173.8 122.1 C 175.0 121.6 171.6 121.9 171.8 121.6 C 174.1 121.5 174.1 121.8 175.1 121.8 C 178.0 121.6 176.6 121.7 179.7 121.6 C 179.7 121.5 178.9 121.6 179.1 121.4 C 182.8 121.3 182.4 121.8 185.0 121.5 C 184.4 121.5 182.1 121.9 183.7 121.8 C 185.4 121.6 185.9 121.3 188.2 121.1 C 188.3 121.2 188.2 121.3 188.9 121.3 C 189.9 121.1 189.9 120.9 190.8 120.7 C 191.0 120.8 192.3 120.7 192.8 120.6 C 193.6 120.7 192.5 120.9 193.5 120.8 C 195.4 120.7 196.3 120.0 197.9 119.9 C 197.9 120.3 199.6 120.0 201.2 119.8 C 201.5 120.0 204.8 119.6 207.0 119.4 C 206.4 119.2 208.7 119.0 208.1 118.8 C 207.1 119.0 206.5 119.0 206.3 118.9 C 208.7 118.6 209.5 119.0 211.3 118.3 C 212.3 118.4 213.5 118.4 215.1 118.2 C 215.3 118.0 212.1 118.4 213.8 118.0 C 214.0 118.1 214.5 118.0 215.1 117.9 C 214.9 118.2 216.2 118.0 217.0 118.0 C 218.4 117.6 221.5 117.5 220.1 117.4 C 222.3 117.0 220.9 117.6 222.7 117.3 C 221.7 117.2 224.7 116.6 223.2 116.7 C 225.5 116.2 225.4 116.7 224.4 117.0 C 226.6 116.6 227.0 116.3 228.1 116.3 C 227.1 116.2 230.3 115.4 228.6 115.9 C 228.2 116.3 230.6 115.6 231.1 115.7 C 230.3 115.6 231.4 115.4 229.9 115.6 C 231.4 115.2 233.7 114.7 235.2 114.6 C 237.1 114.0 238.9 113.6 238.1 114.0 C 240.0 113.5 239.3 113.7 241.1 113.3 C 241.1 113.2 240.6 113.3 240.4 113.3 C 242.9 112.7 242.4 113.0 245.6 112.1 C 245.3 112.5 247.4 112.0 248.0 112.0 C 246.7 112.3 245.6 112.5 244.6 112.8 C 244.4 112.9 245.4 112.7 244.6 113.0 C 244.5 112.9 244.0 113.0 243.5 113.1 C 245.6 112.8 240.9 114.2 242.3 113.6 C 242.4 113.6 242.5 113.6 242.9 113.5 C 242.5 113.4 242.5 113.5 242.8 113.1 C 241.8 113.5 240.9 113.4 240.5 113.7 C 240.6 113.8 241.6 113.5 241.7 113.6 C 239.1 114.4 240.9 113.5 238.8 114.0 C 238.4 114.4 239.5 114.2 240.1 114.2 C 238.1 114.7 236.5 115.1 235.9 115.0 C 234.2 115.5 236.1 115.2 234.8 115.6 C 234.2 115.6 234.2 115.4 233.0 115.7 C 231.7 116.1 233.8 115.7 232.4 116.0 C 231.0 116.2 233.4 115.5 231.1 115.9 C 231.7 116.2 229.1 116.2 229.4 116.4 C 230.6 116.1 230.7 116.5 230.0 116.4 C 227.0 116.6 225.1 117.9 222.1 117.9 C 222.1 117.9 221.6 118.0 221.5 118.1 C 223.7 117.9 227.0 117.3 227.7 117.6 C 229.4 117.1 229.2 117.0 229.4 116.8 C 231.5 116.7 231.4 116.8 230.2 117.4 C 226.8 118.2 225.2 118.2 222.9 118.5 C 221.6 118.9 223.0 118.6 223.5 118.7 C 216.2 119.7 221.9 119.4 219.2 119.8 C 219.3 119.7 218.7 119.7 218.0 119.8 C 218.0 119.9 216.9 120.0 216.7 120.1 C 217.2 120.1 217.5 120.1 217.4 120.2 C 215.5 120.6 216.2 120.2 216.1 120.1 C 217.5 119.9 218.4 119.7 218.6 119.5 C 216.8 119.9 215.3 119.9 214.2 120.4 C 212.4 120.3 215.0 119.5 214.0 119.4 C 214.3 119.2 213.0 120.2 211.6 120.5 C 209.3 120.8 209.3 121.0 207.2 121.3 C 206.6 121.1 209.3 120.9 209.1 120.7 C 208.5 120.8 208.3 120.8 207.8 120.8 C 206.3 121.1 206.4 121.3 205.3 121.5 C 204.6 121.3 204.2 121.5 203.4 121.7 C 201.9 121.7 204.2 121.4 202.7 121.5 C 201.1 121.6 200.0 122.1 199.5 122.1 C 199.3 122.0 199.6 121.9 198.8 121.9 C 197.0 122.3 196.6 122.4 198.9 122.3 C 196.8 122.4 195.9 122.6 196.3 122.8 C 199.3 122.6 200.1 122.4 201.5 122.6 C 202.0 122.3 202.9 122.4 204.1 122.3 C 203.3 122.0 205.4 122.2 206.0 121.9 C 205.2 121.9 204.5 122.0 204.0 121.9 C 207.2 121.6 207.2 121.6 209.7 120.9 C 209.7 121.0 210.1 121.0 210.4 121.1 C 209.6 121.3 207.3 121.5 207.2 121.7 C 209.1 121.8 209.7 121.2 211.7 121.3 C 212.6 121.0 210.0 121.2 211.7 121.0 C 212.5 121.0 213.6 121.0 214.9 120.9 C 216.2 120.6 216.9 120.4 218.0 120.2 C 218.1 120.2 218.3 120.3 219.3 120.1 C 219.2 120.0 218.2 120.1 219.2 119.9 C 222.6 119.7 224.8 119.5 228.0 118.7 C 226.8 118.9 224.2 119.1 225.5 118.9 C 226.9 118.8 228.8 118.1 230.3 118.0 C 230.8 118.0 228.6 118.3 229.2 118.6 C 230.6 118.3 231.5 118.1 232.2 118.0 C 232.2 117.9 233.8 117.6 233.4 117.5 C 232.2 117.7 231.9 118.1 231.6 118.0 C 232.4 117.1 236.0 117.3 238.2 116.8 C 239.6 116.4 237.1 116.8 238.7 116.4 C 239.7 116.0 240.4 116.4 238.8 116.9 C 237.7 117.0 237.3 117.5 237.0 117.2 C 236.6 117.4 235.9 117.5 235.9 117.6 C 236.7 117.4 236.6 117.6 237.1 117.6 C 235.9 117.8 235.9 118.3 234.7 118.2 C 235.4 118.1 235.7 118.0 235.9 117.8 C 232.8 118.6 231.7 118.6 229.8 118.9 C 230.9 118.8 229.8 119.0 229.9 119.2 C 231.3 118.8 234.0 118.4 232.4 118.8 C 231.2 118.8 230.5 119.7 229.4 119.6 C 230.2 119.4 230.0 119.3 230.5 119.1 C 229.3 119.4 229.3 119.2 228.0 119.4 C 224.1 120.5 220.9 120.4 214.4 121.9 C 212.1 122.3 216.5 121.5 216.3 121.3 C 215.6 121.4 215.5 121.4 215.0 121.4 C 215.0 121.7 213.8 121.6 213.1 122.0 C 213.2 121.7 210.1 122.4 208.6 122.3 C 208.5 122.4 208.8 122.5 208.0 122.7 C 203.3 122.9 194.7 124.2 191.1 124.3 C 191.2 124.4 189.6 124.6 189.2 124.7 C 186.9 124.8 187.9 124.6 184.6 125.0 C 182.9 125.2 184.9 124.9 185.2 124.8 C 180.2 125.2 175.7 125.2 172.6 125.5 C 170.9 125.7 172.6 125.4 169.2 125.4 C 169.2 125.8 164.0 125.3 163.2 125.7 C 161.2 125.8 157.6 125.3 159.2 125.7 C 156.5 125.7 158.3 125.4 157.2 125.4 C 155.3 125.4 157.8 126.0 155.9 126.0 C 156.1 125.7 154.4 125.8 153.2 125.5 C 154.7 125.6 155.7 125.6 155.9 125.4 C 154.6 125.6 154.6 125.4 152.6 125.4 C 151.0 125.5 146.5 125.6 145.2 125.2 C 145.1 125.3 145.5 125.4 145.9 125.4 C 144.6 125.4 143.0 125.1 143.2 125.4 C 140.2 125.3 138.9 125.0 137.2 125.1 C 135.9 125.2 137.7 124.9 133.9 124.7 C 133.8 124.9 127.1 124.4 125.4 124.0 C 125.3 124.4 124.9 124.0 124.1 123.9 C 123.9 124.0 124.1 124.2 123.4 124.1 C 123.2 124.0 122.7 124.0 122.1 124.0 C 122.6 123.6 119.7 123.8 119.5 123.6 C 120.1 123.6 120.1 123.4 119.5 123.3 C 119.3 123.6 116.6 122.9 116.9 123.1 C 117.5 123.3 119.3 123.4 118.8 123.6 C 116.3 123.4 117.3 123.2 115.6 123.0 C 115.7 123.1 116.7 123.3 115.6 123.2 C 113.8 123.0 115.5 123.2 114.3 122.8 C 113.4 122.8 111.7 122.7 111.1 122.7 C 111.2 122.7 110.7 122.5 110.5 122.4 C 107.2 121.9 99.7 121.1 96.7 120.2 C 96.4 120.2 95.7 120.2 95.9 120.4 C 94.1 119.9 94.2 120.0 92.3 119.5 C 92.3 119.6 92.3 119.8 92.2 119.9 C 89.8 119.5 92.1 119.5 90.5 119.2 C 90.2 119.7 89.5 118.8 88.1 118.5 C 87.9 118.6 87.1 118.5 87.3 118.7 C 85.0 118.2 85.2 117.9 83.2 117.6 C 83.7 117.7 83.9 118.6 83.6 118.7 C 83.3 118.6 82.7 118.3 81.8 118.1 C 82.9 118.1 82.6 117.1 79.7 116.7 C 81.2 117.0 81.8 117.2 81.4 117.4 C 79.3 116.9 78.6 116.5 76.8 116.1 C 76.4 116.2 77.7 116.6 77.2 116.8 C 76.7 116.7 76.5 116.7 76.6 116.8 C 74.7 116.2 74.7 116.1 72.5 115.6 C 72.6 115.5 73.0 115.6 73.7 115.9 C 73.7 115.7 73.7 115.5 75.0 115.8 C 75.1 116.0 74.3 116.0 76.1 116.4 C 76.1 116.3 76.1 116.1 76.2 116.0 C 74.9 115.7 71.9 114.7 71.6 114.7 C 72.2 115.0 73.2 115.3 72.6 115.4 C 70.4 114.8 69.9 114.3 68.2 113.7 C 65.1 112.9 59.9 111.1 60.4 111.7 C 58.7 111.0 59.3 111.2 57.8 110.6 C 58.1 111.0 56.0 110.1 56.1 110.4 C 58.0 111.0 57.4 110.8 59.3 111.4 C 59.2 111.5 58.8 111.5 58.1 111.3 C 58.0 111.2 57.3 110.9 56.0 110.5 C 56.2 110.6 57.3 111.2 55.9 110.8 C 55.8 110.7 55.5 110.5 54.9 110.3 C 55.0 110.2 55.0 110.1 55.1 109.9 C 55.8 110.1 56.7 110.4 57.2 110.5 C 56.7 110.3 56.6 110.2 56.2 110.0 C 55.8 110.0 53.8 109.1 53.5 109.2 C 54.4 109.5 54.9 109.8 54.0 109.5 C 53.9 109.5 52.1 108.7 51.2 108.5 C 54.2 109.8 53.0 109.3 53.9 109.9 C 51.8 109.2 51.6 108.8 47.7 107.3 C 47.7 107.1 47.8 107.0 48.8 107.3 C 46.5 105.8 41.0 103.8 39.3 102.9 C 40.5 103.5 41.9 103.9 40.2 103.0 C 40.2 103.1 38.9 102.4 38.6 102.4 C 37.8 102.5 39.2 103.5 40.5 104.4 C 39.1 103.7 38.7 103.6 37.4 103.0 C 37.1 102.6 38.6 103.0 37.0 102.1 C 36.5 102.2 34.0 100.5 33.4 100.5 C 34.4 101.1 35.1 101.6 34.0 101.0 C 34.3 100.9 32.0 99.8 32.1 99.6 C 33.8 100.5 34.4 100.6 35.6 101.2 C 34.2 100.5 36.7 101.7 34.4 100.3 C 33.2 99.8 32.5 99.8 30.2 98.3 C 29.3 97.7 30.3 98.0 29.1 97.3 C 29.3 97.7 26.8 96.1 28.4 96.9 C 27.6 96.4 27.2 96.0 26.8 95.7 C 27.8 96.6 22.3 93.0 23.0 93.8 C 23.2 93.5 23.1 93.1 22.9 92.8 C 21.7 92.2 20.7 91.2 18.5 89.0 C 18.3 89.3 18.1 88.7 17.1 87.8 C 16.9 87.7 17.6 88.6 17.0 88.0 C 16.0 86.8 16.0 86.8 15.9 86.5 C 15.2 85.7 14.7 85.1 14.5 84.7 C 14.3 84.7 14.5 85.0 14.6 85.3 C 12.4 82.1 11.1 80.6 9.8 77.9 C 10.3 79.1 10.8 79.1 10.3 78.2 C 10.0 77.7 9.7 77.2 9.5 76.9 C 9.6 77.7 9.5 77.3 9.0 76.0 C 8.4 74.8 8.8 76.6 8.4 75.6 C 8.2 74.5 8.5 75.1 8.4 74.5 C 8.2 74.1 8.1 73.5 7.9 73.1 C 8.1 74.0 7.7 73.0 7.4 72.2 C 7.8 72.7 7.7 72.3 7.3 70.6 C 7.4 70.4 7.7 71.3 7.6 70.6 C 7.5 70.2 7.0 68.9 7.2 67.6 C 7.2 68.0 7.3 68.2 7.3 68.1 C 7.1 66.8 7.4 65.8 7.6 64.7 C 7.3 65.8 7.2 65.2 7.0 65.7 C 7.2 64.5 7.1 63.1 7.6 62.2 C 7.2 63.9 8.0 62.3 8.2 61.3 C 8.0 61.0 7.8 62.8 7.6 62.2 C 7.5 61.6 8.1 60.4 8.0 59.8 C 7.8 59.8 7.9 60.5 7.7 60.7 C 7.9 59.8 7.5 60.9 7.7 60.2 C 8.0 59.8 7.8 59.1 8.0 58.7 C 8.3 58.1 9.1 56.9 9.1 56.3 C 9.0 56.3 8.7 57.1 8.6 57.2 C 9.4 54.5 10.2 53.9 11.4 51.5 C 11.6 51.2 12.0 50.8 12.5 50.2 C 12.4 50.1 12.6 49.7 12.9 49.1 C 13.8 48.2 14.6 47.3 15.8 46.2 C 15.7 46.5 15.3 47.2 16.8 45.5 C 16.8 45.4 16.1 46.1 16.7 45.4 C 16.7 45.5 17.1 45.1 17.1 45.0 C 17.1 44.9 17.0 44.9 17.0 44.9 C 16.6 45.3 16.2 45.8 15.8 46.2 C 15.7 46.0 15.5 46.1 15.1 46.4 C 16.8 44.4 17.0 44.9 18.2 43.5 C 18.6 43.5 19.1 43.2 18.2 44.4 C 19.3 43.3 20.0 42.4 20.2 42.0 C 18.8 43.3 19.1 42.7 18.6 43.0 C 19.5 42.1 19.4 42.0 19.9 41.6 C 21.1 40.7 19.0 42.9 21.2 41.1 C 19.3 42.2 22.4 39.7 23.7 38.9 C 23.4 38.9 22.9 39.2 23.5 38.7 C 26.6 36.1 26.9 37.0 28.8 35.2 C 28.7 35.5 29.8 34.8 30.2 34.6 C 28.4 35.8 28.0 36.2 27.3 36.7 C 27.5 36.7 28.0 36.4 28.5 36.1 C 28.5 36.0 28.9 35.6 29.8 35.2 C 30.2 34.7 29.8 34.5 31.2 33.4 C 31.4 33.5 31.3 33.7 32.1 33.2 C 32.7 32.6 31.6 33.9 34.9 32.0 C 34.3 32.2 33.9 32.3 34.1 32.0 C 35.6 31.0 35.3 31.3 37.5 30.1 C 38.6 30.0 36.2 31.3 35.7 31.8 C 37.2 31.0 38.3 30.1 40.0 29.4 C 38.7 29.9 39.8 29.1 41.3 28.4 C 42.7 27.8 41.4 28.7 43.1 28.0 C 44.3 27.3 44.9 26.8 43.7 27.3 C 46.6 26.0 45.8 26.1 48.5 25.0 C 48.6 25.1 47.9 25.5 46.9 25.8 C 47.1 25.8 46.8 26.1 47.8 25.7 C 48.6 25.2 49.9 24.6 51.4 24.0 C 52.8 23.4 53.7 23.0 54.3 22.7 C 56.8 22.3 59.4 20.8 61.9 20.2 C 60.9 20.7 65.1 19.2 66.4 19.1 C 67.1 18.8 69.3 17.6 68.5 18.1 C 68.8 18.4 70.2 17.8 71.4 17.6 C 71.4 17.5 71.4 17.4 71.4 17.4 C 73.9 16.6 74.6 16.7 75.5 16.7 C 78.6 15.7 82.2 15.3 86.1 14.1 C 87.2 14.2 88.0 14.0 90.4 13.7 C 90.3 13.4 92.2 13.1 94.0 12.7 C 93.6 12.6 95.3 12.4 95.2 12.2 C 93.6 12.5 94.2 12.1 93.3 12.1 C 95.5 12.0 96.5 11.3 98.3 11.3 C 96.2 11.8 95.6 12.2 95.3 12.6 C 97.8 12.1 99.2 12.0 99.7 12.1 C 99.9 11.9 99.5 11.8 99.0 11.8 C 99.8 11.7 100.7 11.5 101.5 11.4 C 101.8 11.5 100.6 11.7 101.5 11.6 C 102.1 11.5 102.8 11.3 103.4 11.1 C 104.2 11.2 102.4 11.5 102.2 11.6 C 105.6 11.2 104.1 10.9 105.9 10.6 C 106.4 10.7 106.3 10.9 107.9 10.8 C 108.5 10.5 108.6 10.3 110.4 10.0 C 111.5 9.9 110.4 10.4 111.7 10.3 C 111.9 10.2 112.4 10.1 113.0 10.1 C 112.9 10.0 113.5 9.8 114.2 9.7 C 114.4 9.8 115.7 9.6 116.2 9.5 C 116.3 9.6 118.4 9.7 118.8 9.5 C 118.8 9.4 117.6 9.5 117.5 9.4 C 119.0 9.3 120.0 9.2 120.7 9.0 C 121.2 9.5 123.6 8.8 126.6 8.9 C 128.5 8.5 126.2 8.5 128.6 8.1 C 130.0 8.2 128.3 8.4 128.6 8.6 C 129.0 8.6 131.2 8.6 131.2 8.4 C 131.2 8.3 130.1 8.4 129.9 8.4 C 131.6 8.0 131.6 8.3 132.6 8.3 C 132.4 8.1 133.6 8.0 133.8 7.9 C 138.6 7.4 138.6 7.9 140.5 8.0 C 140.5 7.9 141.7 7.8 141.8 7.7 C 140.4 7.9 138.6 7.8 140.5 7.6 C 140.2 7.8 143.0 7.5 143.2 7.4 C 142.8 7.3 141.1 7.5 141.8 7.2 C 144.3 7.0 143.3 7.5 145.2 7.2 C 145.4 7.4 144.3 7.4 143.8 7.5 C 144.6 7.5 145.7 7.4 145.8 7.5 C 144.9 7.6 144.9 7.8 144.5 7.9 C 145.8 7.7 148.1 7.8 146.5 7.6 C 149.1 7.5 151.7 7.3 149.8 7.1 C 152.0 7.0 150.8 7.4 152.5 7.2 C 152.3 7.4 151.7 7.6 153.2 7.8 C 153.4 7.6 154.6 7.6 154.5 7.4 C 157.7 7.3 158.6 7.6 159.9 7.8 C 158.7 7.4 160.3 7.7 161.8 7.5 C 162.8 7.6 161.9 7.9 164.5 7.9 C 161.7 7.5 167.8 7.8 166.5 7.4 C 169.8 7.6 169.8 7.6 173.2 7.8 C 172.9 8.0 172.0 8.1 170.5 8.1 C 171.6 7.9 167.6 7.8 167.9 7.9 C 167.9 8.0 167.9 8.0 167.9 8.1 C 170.4 8.1 172.1 8.2 173.2 8.4 C 173.7 8.2 174.9 8.2 174.5 7.9 C 176.9 8.3 179.4 8.0 180.5 8.3 C 179.7 8.3 178.9 8.2 179.2 8.4 C 180.1 8.4 181.3 8.4 181.2 8.2 C 179.2 8.0 178.9 8.0 177.9 8.1 C 178.7 7.9 176.0 7.7 177.9 7.7 C 177.8 8.1 181.9 7.7 180.5 7.9 C 178.4 7.9 182.9 8.2 183.1 8.4 C 183.1 8.4 183.1 8.4 183.1 8.4 Z M 228.6 119.3 C 230.4 118.8 228.1 119.0 226.8 119.3 C 227.2 119.3 227.4 119.4 227.4 119.5 C 228.0 119.3 228.5 119.2 228.6 119.3 C 228.6 119.3 228.6 119.3 228.6 119.3 Z M 208.2 119.0 C 207.6 119.4 210.7 118.8 212.0 118.6 C 211.6 118.6 211.2 118.6 212.0 118.5 C 210.6 118.5 210.2 119.0 208.2 119.0 C 208.2 119.0 208.2 119.0 208.2 119.0 Z M 135.4 122.2 C 135.9 122.2 137.2 122.2 137.3 122.3 C 138.1 122.4 137.9 122.2 138.0 122.1 C 139.6 122.2 137.6 122.5 140.0 122.5 C 140.9 122.0 135.9 121.7 135.4 122.2 C 135.4 122.2 135.4 122.2 135.4 122.2 Z M 157.8 11.3 C 158.8 11.5 156.5 11.7 157.2 11.9 C 160.8 11.7 158.0 11.4 163.1 11.5 C 162.8 11.4 162.4 11.4 162.5 11.3 C 160.1 11.4 159.9 11.5 160.5 11.1 C 159.4 11.1 159.1 11.6 157.8 11.3 C 157.8 11.3 157.8 11.3 157.8 11.3 Z M 204.8 15.0 C 204.4 14.9 204.1 14.8 204.1 14.7 C 202.6 14.6 202.9 14.7 200.9 14.4 C 201.1 14.8 203.1 15.0 204.8 15.0 C 204.8 15.0 204.8 15.0 204.8 15.0 Z M 305.1 61.3 C 305.2 61.5 305.3 61.8 305.3 62.1 C 305.4 61.8 306.0 62.5 305.5 61.2 C 305.4 61.1 305.5 61.3 305.5 61.6 C 305.4 61.4 305.2 60.7 305.1 60.9 C 305.2 61.2 305.2 61.3 305.1 61.3 C 305.1 61.3 305.1 61.3 305.1 61.3 Z M 289.2 93.5 C 291.3 91.8 285.5 95.0 289.2 93.5 C 289.2 93.5 289.2 93.5 289.2 93.5 C 289.2 93.5 289.2 93.5 289.2 93.5 Z M 295.3 92.6 C 295.4 92.6 295.8 92.2 295.8 92.2 C 297.5 90.9 295.9 92.3 297.0 91.6 C 298.2 90.4 296.1 91.9 297.6 90.3 C 297.2 90.5 296.3 91.8 295.3 92.6 C 295.3 92.6 295.3 92.6 295.3 92.6 Z M 26.5 36.9 C 25.0 38.1 24.7 38.6 24.6 39.0 C 25.6 38.3 26.5 37.7 26.9 37.5 C 28.9 36.0 25.5 38.3 25.1 38.5 C 25.2 38.2 26.7 37.1 26.5 36.9 C 26.5 36.9 26.5 36.9 26.5 36.9 Z M 21.7 40.7 C 21.2 41.3 20.4 42.1 20.5 42.3 C 21.3 41.5 21.5 41.5 21.6 41.5 C 22.3 40.8 21.2 41.5 21.7 40.7 C 21.7 40.7 21.7 40.7 21.7 40.7 Z M 31.6 34.1 C 30.8 34.6 31.2 34.5 31.1 34.7 C 32.3 34.0 32.6 34.0 33.8 33.2 C 33.7 33.2 33.7 33.1 33.7 33.0 C 32.6 33.6 32.6 33.7 31.7 34.3 C 31.7 34.2 31.6 34.1 31.6 34.1 C 31.6 34.1 31.6 34.1 31.6 34.1 Z M 17.8 44.8 C 15.5 47.0 15.0 48.3 14.2 50.0 C 15.4 48.3 16.3 46.5 17.5 45.5 C 18.8 44.0 17.0 45.8 17.0 45.7 C 16.9 45.6 17.4 45.1 17.8 44.8 C 17.8 44.8 17.8 44.8 17.8 44.8 Z M 7.6 66.2 C 7.4 66.7 7.8 67.6 7.9 69.1 C 7.9 68.8 8.0 68.5 8.1 68.5 C 8.0 66.5 7.6 67.7 7.6 66.2 C 7.6 66.2 7.6 66.2 7.6 66.2 Z M 10.6 78.0 C 11.3 79.3 10.4 77.4 10.9 77.9 C 10.2 76.6 9.7 75.1 9.5 75.2 C 10.2 76.6 10.4 76.9 10.6 78.0 C 10.6 78.0 10.6 78.0 10.6 78.0 Z M 16.3 86.2 C 17.5 87.4 16.0 85.4 16.7 85.8 C 16.2 85.3 16.2 85.5 16.1 85.5 C 15.8 85.1 15.6 84.8 15.1 84.2 C 15.3 84.7 16.6 86.2 16.3 86.2 C 16.3 86.2 16.3 86.2 16.3 86.2 Z M 73.3 17.9 C 72.3 18.2 72.7 18.4 70.6 18.9 C 73.8 18.0 72.1 19.2 76.4 18.0 C 75.7 18.1 76.1 17.9 76.4 17.9 C 78.0 17.4 74.8 18.2 76.3 17.5 C 75.1 17.9 75.8 18.0 74.7 18.3 C 73.4 18.4 72.6 18.4 73.3 17.9 C 73.3 17.9 73.3 17.9 73.3 17.9 Z M 76.5 18.2 C 77.6 18.0 77.5 17.5 78.2 17.7 C 78.7 17.5 78.6 17.4 78.7 17.4 C 78.2 17.5 78.2 17.5 78.1 17.4 C 77.1 17.7 76.1 18.1 76.5 18.2 C 76.5 18.2 76.5 18.2 76.5 18.2 Z M 65.7 21.2 C 67.6 20.5 68.2 20.5 69.0 20.1 C 69.8 20.2 70.3 19.6 71.3 19.6 C 73.2 19.0 71.8 19.3 71.2 19.3 C 73.0 18.7 71.8 19.4 73.6 18.8 C 73.8 18.5 71.5 19.2 71.7 18.8 C 70.3 19.2 70.4 19.4 69.5 19.7 C 68.9 19.9 69.1 19.7 68.9 19.6 C 67.4 20.1 67.4 19.9 66.1 20.3 C 65.9 20.6 66.4 20.5 67.9 20.1 C 66.4 20.6 65.8 21.0 64.1 21.4 C 65.2 20.8 59.7 22.4 60.3 22.7 C 61.8 22.3 61.3 22.2 61.8 21.9 C 63.8 21.5 65.0 21.1 65.7 21.2 C 65.7 21.2 65.7 21.2 65.7 21.2 Z M 32.7 34.3 C 32.1 34.6 31.6 34.9 30.7 35.4 C 30.6 35.3 31.7 34.6 30.6 35.2 C 29.2 36.0 29.0 36.2 28.2 36.8 C 28.7 36.6 31.6 35.0 30.2 36.0 C 30.7 35.9 31.6 35.3 32.8 34.6 C 31.2 35.2 34.8 33.5 36.2 32.7 C 35.9 32.5 38.7 31.5 39.7 30.7 C 38.7 31.0 35.9 32.7 34.7 33.4 C 35.3 33.0 31.2 34.8 32.7 34.3 C 32.7 34.3 32.7 34.3 32.7 34.3 Z M 81.1 17.0 C 81.4 16.8 82.7 16.5 81.7 16.7 C 82.2 16.4 83.3 16.3 82.7 16.1 C 83.4 15.9 84.0 15.8 84.5 15.7 C 84.3 15.9 82.7 16.2 83.4 16.3 C 84.6 15.9 84.1 16.1 85.8 15.7 C 84.9 16.2 85.9 16.0 85.3 16.4 C 85.7 16.2 87.2 15.9 87.0 15.7 C 89.3 15.3 86.5 16.2 89.5 15.5 C 89.5 15.8 87.3 16.2 86.5 16.2 C 86.2 16.6 90.3 15.5 92.6 15.2 C 90.5 15.4 92.1 14.9 93.1 14.5 C 93.8 14.4 93.1 14.6 94.4 14.5 C 95.4 14.4 95.9 14.1 96.2 14.2 C 97.1 14.0 96.7 13.9 96.8 13.8 C 98.2 13.6 97.2 14.1 99.3 13.7 C 97.7 13.6 99.5 13.2 102.3 12.9 C 102.1 12.8 101.2 12.9 101.1 12.8 C 101.5 12.6 103.2 12.6 103.6 12.7 C 104.7 12.5 104.0 12.4 103.0 12.6 C 103.6 12.4 104.2 12.3 104.9 12.1 C 101.7 12.5 96.8 13.4 91.1 14.1 C 92.2 14.1 91.0 14.4 89.3 14.6 C 89.1 14.5 89.8 14.4 90.5 14.2 C 88.5 14.3 88.8 14.9 85.7 15.3 C 84.1 15.6 87.5 14.8 85.7 15.0 C 84.6 15.3 83.9 15.7 83.3 15.6 C 81.4 16.1 80.9 16.5 78.0 17.2 C 79.7 16.9 80.6 17.3 82.3 16.8 C 82.3 16.7 81.5 16.9 81.1 17.0 C 81.1 17.0 81.1 17.0 81.1 17.0 Z M 21.7 41.7 C 20.8 42.4 20.5 42.9 20.2 42.9 C 18.9 44.3 20.6 43.0 20.9 42.8 C 21.5 42.2 21.7 41.9 21.7 41.7 C 21.7 41.7 21.7 41.7 21.7 41.7 Z M 143.9 124.7 C 146.4 124.9 145.9 124.6 147.9 124.6 C 146.3 124.5 145.9 124.3 143.2 124.2 C 143.1 124.4 143.1 124.6 143.9 124.7 C 143.9 124.7 143.9 124.7 143.9 124.7 Z M 27.1 37.7 C 28.3 36.5 25.6 39.2 25.5 39.0 C 24.0 40.3 27.0 38.0 25.7 39.3 C 27.0 38.2 27.9 37.8 29.7 36.5 C 29.5 36.4 28.0 37.3 26.7 38.3 C 26.4 38.3 27.1 37.8 27.1 37.7 C 27.1 37.7 27.1 37.7 27.1 37.7 Z M 118.3 122.2 C 116.6 122.2 119.8 122.8 120.8 123.0 C 120.9 122.7 120.4 122.7 118.3 122.2 C 118.3 122.2 118.3 122.2 118.3 122.2 Z M 161.2 124.6 C 162.2 124.3 158.2 124.6 159.2 124.3 C 158.0 124.3 157.9 124.4 157.8 124.5 C 157.3 124.4 155.4 124.4 155.9 124.2 C 155.6 124.0 158.9 124.3 157.8 124.0 C 158.9 124.0 159.0 124.1 159.9 124.1 C 157.9 124.1 158.8 124.3 161.2 124.4 C 161.2 124.2 160.1 124.2 161.2 124.1 C 161.4 124.2 162.6 124.4 162.5 124.7 C 164.6 124.7 163.4 124.3 165.8 124.3 C 165.6 124.1 164.1 124.1 163.2 124.1 C 163.4 123.8 165.8 124.2 165.2 123.9 C 165.7 124.1 167.1 124.1 167.2 124.4 C 165.3 124.5 164.1 124.7 162.5 124.9 C 164.0 125.0 166.0 124.4 168.5 124.6 C 168.2 124.4 169.7 124.4 169.2 124.2 C 171.2 124.2 170.3 124.5 169.9 124.6 C 170.4 124.7 174.1 124.5 173.9 124.3 C 174.1 124.5 178.7 124.2 178.5 123.9 C 179.8 124.1 181.9 123.6 182.5 123.9 C 183.2 123.7 184.8 123.7 186.5 123.6 C 186.9 123.3 184.0 123.6 183.8 123.4 C 183.3 123.2 186.9 123.3 186.4 123.1 C 186.4 123.0 186.4 123.0 186.4 122.9 C 185.1 123.1 183.7 123.2 182.4 123.4 C 181.5 123.4 182.7 123.3 182.4 123.2 C 181.5 123.4 177.3 123.9 177.2 123.4 C 174.3 123.7 172.3 123.7 171.1 123.9 C 169.5 123.9 172.1 123.7 171.1 123.6 C 166.2 124.1 160.1 123.7 155.9 124.0 C 155.0 124.0 155.3 123.8 155.2 123.7 C 149.5 123.8 154.3 124.2 149.9 124.0 C 149.9 123.8 152.0 123.9 151.9 123.7 C 150.3 123.6 149.9 123.8 147.9 123.7 C 147.9 123.8 147.9 123.9 147.9 124.0 C 146.2 123.9 146.8 123.6 145.9 123.5 C 143.8 123.5 144.3 123.7 143.3 123.3 C 141.3 123.4 139.3 123.4 137.3 123.1 C 135.9 123.2 138.5 123.7 140.6 123.9 C 140.5 123.9 139.9 123.9 139.9 124.0 C 137.4 123.7 137.1 123.2 133.4 122.9 C 136.2 123.3 131.9 122.9 131.4 122.7 C 129.8 122.6 131.0 123.0 132.0 123.0 C 131.8 123.1 130.8 123.0 130.7 122.9 C 130.5 123.2 134.1 123.7 137.9 123.7 C 136.1 124.0 140.6 123.8 138.6 124.2 C 141.7 124.3 139.0 123.9 142.5 124.1 C 142.2 124.0 141.6 123.9 141.3 123.7 C 143.9 123.8 143.1 124.1 145.9 124.2 C 146.4 124.0 144.5 123.9 144.6 123.8 C 147.6 124.1 148.6 124.2 150.6 124.5 C 151.0 124.4 150.4 124.1 153.9 124.3 C 153.9 124.4 153.9 124.5 153.9 124.5 C 152.3 124.4 151.9 124.9 155.9 124.9 C 156.2 124.8 154.9 124.8 153.9 124.7 C 154.3 124.6 155.6 124.6 157.2 124.5 C 158.0 124.6 158.9 124.7 157.8 124.7 C 158.5 124.9 159.1 124.5 161.2 124.6 C 161.2 124.6 161.2 124.6 161.2 124.6 Z M 8.3 63.8 C 8.3 64.2 8.3 64.5 8.3 65.2 C 8.5 65.6 8.5 64.3 8.6 64.3 C 8.8 63.3 8.4 64.0 8.3 63.8 C 8.3 63.8 8.3 63.8 8.3 63.8 Z M 13.5 51.0 C 13.3 50.9 13.1 51.7 12.4 52.7 C 12.4 53.2 13.1 51.9 13.2 52.0 C 14.0 50.8 12.7 52.1 13.5 51.0 C 13.5 51.0 13.5 51.0 13.5 51.0 Z M 10.5 56.4 C 10.1 56.8 10.4 56.9 10.8 55.9 C 10.9 56.1 10.9 56.3 10.7 57.0 C 11.2 56.4 11.0 55.8 11.6 54.7 C 11.3 55.0 10.9 55.6 10.5 56.4 C 10.5 56.4 10.5 56.4 10.5 56.4 Z M 9.8 58.2 C 9.7 58.9 9.3 59.3 9.1 60.5 C 9.4 60.3 10.1 57.7 10.2 57.3 C 10.2 56.8 9.2 59.6 9.8 58.2 C 9.8 58.2 9.8 58.2 9.8 58.2 Z M 93.2 118.2 C 93.8 118.3 93.7 118.2 93.8 118.2 C 95.6 118.9 98.3 119.3 96.1 119.3 C 98.2 119.4 100.0 120.0 101.7 120.3 C 103.1 120.6 102.5 120.2 103.6 120.4 C 105.4 120.7 102.6 120.4 103.0 120.5 C 103.3 120.8 103.9 120.5 106.1 120.9 C 105.6 120.4 108.0 121.2 107.4 120.7 C 108.6 121.0 109.0 120.9 110.6 121.2 C 110.5 121.0 108.9 120.8 108.7 120.6 C 108.0 120.2 107.8 120.7 109.3 120.8 C 108.4 121.0 106.3 120.3 105.6 120.4 C 104.8 120.0 107.6 120.6 106.8 120.2 C 106.3 120.2 105.7 120.1 105.6 120.2 C 104.7 120.0 104.1 119.9 103.7 119.7 C 104.3 119.8 104.3 119.8 104.3 119.9 C 105.5 120.0 103.2 119.3 105.7 119.7 C 105.3 119.5 104.2 119.4 104.4 119.2 C 103.7 119.0 104.3 119.9 101.9 119.2 C 100.2 119.2 105.7 120.1 104.3 120.3 C 100.8 119.7 102.8 119.7 100.0 119.2 C 100.0 119.3 100.0 119.4 99.3 119.3 C 99.4 119.4 100.4 119.6 101.2 119.7 C 101.0 119.8 100.0 119.6 99.3 119.5 C 99.4 119.6 99.9 119.7 99.9 119.7 C 97.6 119.3 97.9 118.8 100.0 119.0 C 100.0 118.8 97.1 118.3 96.3 118.3 C 97.0 118.6 96.2 118.5 96.8 118.8 C 97.4 118.9 97.3 118.8 97.5 118.8 C 98.6 119.0 97.6 118.9 97.5 119.0 C 96.2 118.8 96.3 118.6 95.0 118.5 C 95.3 118.5 95.7 118.5 95.7 118.4 C 95.1 118.3 94.4 118.1 93.8 118.0 C 93.9 118.2 93.1 118.1 93.2 118.2 C 93.2 118.2 93.2 118.2 93.2 118.2 Z M 126.1 123.3 C 128.2 123.5 127.1 123.2 126.1 123.1 C 126.5 123.1 127.3 123.1 128.1 123.1 C 127.4 123.0 126.9 123.0 124.8 122.8 C 126.6 122.6 124.8 122.0 121.6 121.8 C 120.6 122.1 123.3 122.5 122.2 122.6 C 124.6 122.7 125.8 123.0 126.1 123.3 C 126.1 123.3 126.1 123.3 126.1 123.3 Z M 21.0 42.8 C 20.0 43.6 19.1 44.5 18.3 45.3 C 18.6 45.4 21.4 42.9 21.0 42.8 C 21.0 42.8 21.0 42.8 21.0 42.8 Z M 107.4 12.0 C 107.9 12.0 108.0 12.0 108.1 12.0 C 109.9 11.7 107.2 11.9 108.0 11.6 C 107.3 11.7 106.7 11.8 106.1 11.9 C 106.0 12.0 108.7 11.8 106.7 12.1 C 106.9 12.2 107.4 12.1 107.4 12.0 C 107.4 12.0 107.4 12.0 107.4 12.0 Z M 8.7 62.9 C 8.7 63.8 9.0 63.2 8.8 65.3 C 9.0 64.6 9.0 64.1 9.1 62.9 C 9.0 62.9 8.9 62.9 8.7 62.9 C 8.7 62.9 8.7 62.9 8.7 62.9 Z M 84.0 116.8 C 85.5 117.4 86.0 116.9 88.9 117.6 C 87.4 117.0 85.7 117.1 84.0 116.8 C 84.0 116.8 84.0 116.8 84.0 116.8 Z M 191.7 122.8 C 190.7 122.8 191.9 122.6 190.3 122.6 C 189.4 122.8 189.1 122.9 187.7 123.1 C 189.6 123.2 192.9 122.7 194.3 122.9 C 195.8 122.8 195.7 122.5 196.2 122.3 C 195.4 122.4 195.0 122.4 194.9 122.3 C 194.0 122.7 192.8 122.3 191.7 122.8 C 191.7 122.8 191.7 122.8 191.7 122.8 Z M 117.7 122.1 C 116.5 121.8 118.5 121.9 119.0 121.8 C 119.9 121.9 119.5 122.1 119.6 122.2 C 120.8 122.3 121.1 122.2 120.9 122.0 C 118.8 121.7 116.2 121.4 117.8 121.3 C 115.7 121.0 116.8 121.4 115.8 121.4 C 114.7 121.1 115.8 121.1 115.8 120.9 C 115.3 120.9 113.7 121.0 113.9 120.7 C 110.8 120.6 112.1 121.2 114.4 121.9 C 116.5 121.8 114.1 121.5 117.7 122.1 C 117.7 122.1 117.7 122.1 117.7 122.1 Z M 39.2 101.2 C 39.4 101.4 40.7 102.0 40.6 102.1 C 42.3 102.7 43.8 103.1 45.5 103.6 C 45.3 103.3 43.1 102.5 43.9 103.1 C 43.3 102.6 41.8 101.8 41.1 101.3 C 39.6 100.5 38.9 100.7 38.8 100.2 C 37.4 99.7 38.2 100.1 36.0 98.8 C 39.3 101.0 34.8 98.3 34.5 98.4 C 36.4 99.5 38.2 100.5 38.0 100.1 C 39.5 101.0 41.2 101.9 41.5 102.3 C 41.3 102.3 40.1 101.7 39.2 101.2 C 39.2 101.2 39.2 101.2 39.2 101.2 Z M 48.8 104.8 C 48.1 104.6 47.4 104.4 46.4 103.9 C 47.0 104.2 47.2 104.4 47.0 104.5 C 49.1 105.4 49.6 105.5 50.3 106.0 C 52.2 106.8 49.9 105.4 52.9 106.8 C 52.7 106.6 51.2 106.0 51.3 105.9 C 50.9 106.0 49.7 105.5 48.8 104.8 C 48.8 104.8 48.8 104.8 48.8 104.8 Z M 67.0 111.7 C 68.4 112.2 66.2 111.4 67.0 111.4 C 66.7 111.4 64.0 110.5 64.4 110.4 C 63.7 109.8 60.8 109.6 61.2 109.3 C 60.5 109.1 60.7 109.3 60.6 109.3 C 62.5 109.9 62.4 110.1 61.0 109.6 C 61.2 109.8 62.4 110.1 63.2 110.4 C 63.3 110.3 62.6 110.0 62.7 109.9 C 64.3 110.6 65.5 111.1 67.0 111.7 C 67.0 111.7 67.0 111.7 67.0 111.7 Z M 179.0 9.5 C 177.5 9.4 176.5 9.4 175.7 9.4 C 176.2 9.6 177.0 9.5 177.8 9.5 C 177.9 9.6 177.2 9.6 176.4 9.6 C 177.2 9.9 179.9 9.8 179.0 9.5 C 179.0 9.5 179.0 9.5 179.0 9.5 Z M 165.8 9.1 C 164.3 9.0 163.3 9.0 163.1 9.2 C 163.7 9.3 163.5 9.1 164.5 9.1 C 165.1 9.2 165.5 9.3 165.8 9.4 C 166.4 9.4 166.3 9.3 166.5 9.2 C 167.0 9.2 167.1 9.3 167.1 9.3 C 169.0 9.1 165.0 9.3 165.8 9.1 C 165.8 9.1 165.8 9.1 165.8 9.1 Z M 57.9 108.6 C 57.5 108.4 57.1 108.1 55.9 107.7 C 56.1 107.9 55.1 107.5 54.3 107.3 C 55.4 107.9 56.0 108.0 57.9 108.6 C 57.9 108.6 57.9 108.6 57.9 108.6 Z M 85.3 16.6 C 83.5 16.8 83.8 17.1 81.2 17.5 C 81.2 17.6 81.2 17.7 81.2 17.7 C 82.7 17.2 83.5 17.2 85.3 16.6 C 85.3 16.6 85.3 16.6 85.3 16.6 Z M 306.9 77.3 C 306.8 77.1 306.2 78.5 306.0 78.5 C 306.2 78.9 305.4 79.3 303.6 81.8 C 303.5 81.8 303.6 81.6 303.8 81.3 C 302.3 83.2 304.5 80.8 304.8 80.7 C 305.8 79.1 306.1 78.9 306.9 77.3 C 306.9 77.3 306.9 77.3 306.9 77.3 Z M 171.8 123.2 C 171.7 123.2 172.1 123.2 172.5 123.2 C 172.9 123.2 173.4 123.2 173.8 123.2 C 173.6 122.9 171.4 122.8 173.1 122.4 C 172.5 122.4 172.5 122.4 172.5 122.5 C 169.3 123.3 166.7 122.2 162.5 122.7 C 161.9 122.7 162.0 122.8 161.9 122.9 C 162.4 122.8 162.4 122.9 162.5 122.9 C 163.0 122.6 166.8 122.9 165.2 123.1 C 165.3 123.2 165.8 123.1 165.8 123.1 C 166.3 123.1 166.7 123.0 167.2 123.0 C 166.9 122.9 166.0 122.9 165.8 122.8 C 167.9 122.9 170.5 122.9 169.2 123.2 C 170.5 123.2 170.9 123.0 171.8 122.9 C 172.7 122.9 172.7 123.1 171.8 123.2 C 171.8 123.2 171.8 123.2 171.8 123.2 Z M 188.9 122.2 C 191.0 122.1 190.2 121.9 192.2 121.7 C 190.9 121.7 189.4 122.1 187.6 122.0 C 187.9 122.1 188.8 122.1 188.9 122.2 C 188.9 122.2 188.9 122.2 188.9 122.2 Z M 150.6 122.8 C 151.0 122.6 149.2 122.5 147.3 122.4 C 146.9 122.7 148.6 122.8 150.6 122.8 C 150.6 122.8 150.6 122.8 150.6 122.8 Z M 159.2 122.9 C 161.2 122.9 156.8 122.9 157.9 122.6 C 156.9 122.6 156.0 122.6 155.9 122.5 C 155.2 122.6 155.2 122.7 153.9 122.7 C 154.0 122.8 156.1 122.7 155.9 122.9 C 157.4 122.8 157.7 122.8 159.2 122.9 C 159.2 122.9 159.2 122.9 159.2 122.9 Z M 160.5 122.9 C 161.8 122.9 160.2 122.5 158.6 122.5 C 159.1 122.6 159.5 122.8 160.5 122.9 C 160.5 122.9 160.5 122.9 160.5 122.9 Z M 17.3 83.8 C 17.8 84.3 17.6 83.7 18.2 84.4 C 18.3 84.3 16.2 81.9 18.0 83.9 C 17.5 83.0 16.9 82.8 16.2 81.9 C 16.4 82.2 16.5 82.5 16.1 82.0 C 15.7 81.8 17.8 83.9 17.3 83.8 C 17.3 83.8 17.3 83.8 17.3 83.8 Z M 19.6 86.2 C 20.1 86.7 19.9 86.4 19.7 86.2 C 19.8 86.2 20.5 86.9 21.0 87.3 C 20.9 87.5 20.3 86.2 20.5 86.1 C 18.3 84.2 19.7 86.0 19.6 86.2 C 19.6 86.2 19.6 86.2 19.6 86.2 Z M 21.8 88.1 C 23.2 89.6 25.5 91.4 26.8 92.1 C 25.7 90.9 22.7 88.5 21.8 88.1 C 21.8 88.1 21.8 88.1 21.8 88.1 Z M 11.9 74.3 C 12.6 77.0 15.7 81.8 13.5 77.2 C 13.4 77.4 11.9 74.5 11.6 73.0 C 11.5 73.0 10.8 71.4 11.0 71.3 C 10.5 70.3 11.9 75.0 11.9 74.3 C 11.9 74.3 11.9 74.3 11.9 74.3 Z M 29.3 93.2 C 28.3 92.7 29.2 93.9 27.9 92.8 C 27.1 92.2 28.0 93.0 27.8 92.9 C 29.5 94.2 33.5 96.3 33.7 96.8 C 34.8 97.3 35.1 97.3 37.1 98.4 C 37.2 98.4 30.2 94.6 29.2 93.3 C 29.3 93.3 31.6 94.8 29.3 93.2 C 29.3 93.2 29.3 93.2 29.3 93.2 Z M 85.6 18.0 C 85.8 17.7 83.3 18.4 83.8 18.1 C 82.5 18.6 81.2 18.8 79.8 19.3 C 79.4 19.3 79.4 19.0 77.4 19.4 C 77.4 19.6 78.4 19.3 77.5 19.7 C 75.6 20.2 76.1 19.8 74.0 20.4 C 74.4 20.7 69.6 21.7 70.2 22.0 C 71.3 21.7 71.1 21.5 73.0 21.1 C 73.6 20.9 73.3 21.1 74.1 20.9 C 73.6 21.3 72.6 21.2 71.9 21.6 C 72.1 21.7 73.5 21.3 73.7 21.4 C 74.5 21.2 73.4 21.4 73.6 21.2 C 75.8 20.6 73.6 21.8 76.0 21.1 C 75.4 21.0 75.4 21.0 75.9 20.6 C 76.8 20.5 79.8 19.6 78.2 20.3 C 78.4 20.4 80.2 19.7 79.9 19.6 C 80.8 19.4 81.0 19.4 81.1 19.5 C 83.5 18.8 83.8 18.6 83.3 18.4 C 83.7 18.1 84.2 18.4 85.6 18.0 C 85.6 18.0 85.6 18.0 85.6 18.0 Z M 11.3 60.6 C 11.3 59.6 11.0 61.8 10.8 62.8 C 11.0 61.6 11.3 62.0 11.6 60.7 C 11.4 61.2 11.4 61.1 11.6 60.2 C 11.6 60.0 11.0 61.8 11.3 60.6 C 11.3 60.6 11.3 60.6 11.3 60.6 Z M 41.4 100.6 C 42.1 101.2 46.1 102.9 48.2 103.8 C 48.0 103.3 42.6 101.5 42.2 100.8 C 41.0 100.3 42.7 101.3 41.4 100.6 C 41.4 100.6 41.4 100.6 41.4 100.6 Z M 64.0 23.3 C 63.5 23.5 63.8 23.5 64.0 23.4 C 63.9 23.6 62.8 23.9 61.9 24.2 C 63.2 23.9 61.7 24.5 62.1 24.6 C 61.5 24.8 61.2 25.0 61.1 25.0 C 60.9 24.6 57.8 26.4 61.2 25.3 C 60.5 25.3 60.7 25.2 62.1 24.7 C 63.7 24.4 64.8 23.8 65.4 23.9 C 66.4 23.6 66.7 23.3 68.1 22.9 C 68.4 23.0 69.7 22.8 68.8 23.4 C 71.2 22.7 69.4 22.6 71.4 22.0 C 73.3 21.6 70.5 22.5 71.0 22.6 C 71.5 22.5 71.4 22.6 71.6 22.6 C 72.3 22.4 72.2 22.2 71.5 22.4 C 71.7 22.2 73.6 21.5 73.1 21.9 C 74.3 21.5 71.2 21.7 69.7 22.4 C 68.8 22.7 68.7 22.2 69.6 22.0 C 69.2 21.9 67.5 22.9 67.9 22.3 C 67.1 22.5 66.4 22.8 65.7 23.0 C 65.8 23.0 66.3 22.9 66.3 23.0 C 65.6 23.2 64.9 23.4 64.1 23.6 C 64.7 23.3 64.7 23.2 64.0 23.3 C 64.0 23.3 64.0 23.3 64.0 23.3 Z M 32.6 95.7 C 34.2 96.7 34.6 96.8 35.9 97.5 C 35.5 97.1 32.0 95.1 32.6 95.7 C 32.6 95.7 32.6 95.7 32.6 95.7 Z M 96.0 16.7 C 95.8 16.6 94.8 16.8 94.8 16.7 C 96.6 16.3 94.5 16.6 95.9 15.9 C 93.5 16.5 92.8 17.2 96.1 16.8 C 98.4 16.4 93.6 17.1 96.0 16.7 C 96.0 16.7 96.0 16.7 96.0 16.7 Z M 88.7 17.9 C 87.3 18.3 91.0 17.7 91.8 17.6 C 91.8 17.7 91.8 17.8 91.9 17.9 C 93.8 17.1 91.1 17.5 92.9 16.7 C 90.5 17.0 89.5 17.1 87.5 17.7 C 87.6 17.8 88.0 17.6 88.0 17.6 C 89.6 17.3 88.6 17.8 86.9 18.0 C 87.4 18.1 88.9 17.8 89.9 17.6 C 89.6 17.6 89.3 17.6 89.3 17.5 C 90.6 17.2 90.1 17.5 91.1 17.3 C 91.1 17.4 88.8 18.1 88.7 17.9 C 88.7 17.9 88.7 17.9 88.7 17.9 Z M 215.6 14.9 C 214.4 14.7 216.9 15.5 216.7 15.8 C 218.1 16.0 218.4 16.0 219.2 16.1 C 218.8 15.9 217.4 15.6 216.8 15.4 C 217.1 15.1 218.7 15.8 219.3 15.6 C 220.1 15.4 216.1 15.3 215.6 14.9 C 215.6 14.9 215.6 14.9 215.6 14.9 Z M 33.4 37.0 C 32.7 37.4 33.1 37.3 33.4 37.1 C 33.3 37.2 32.3 37.9 32.2 37.8 C 31.3 38.4 32.8 37.6 31.7 38.3 C 31.6 38.6 33.4 37.2 33.5 37.1 C 34.8 36.3 33.9 37.2 34.3 37.1 C 35.6 36.4 35.0 36.4 36.8 35.5 C 35.7 36.0 34.6 36.4 33.4 37.0 C 33.4 37.0 33.4 37.0 33.4 37.0 Z M 100.2 15.5 C 100.4 15.3 98.8 16.1 97.2 16.1 C 95.0 16.5 98.5 16.2 96.6 16.5 C 98.2 16.3 100.2 15.7 102.7 15.3 C 103.3 15.1 99.2 15.8 101.5 15.4 C 101.4 15.3 100.8 15.4 100.8 15.5 C 100.3 15.6 100.3 15.5 100.2 15.5 C 100.2 15.5 100.2 15.5 100.2 15.5 Z M 97.8 16.4 C 98.0 16.5 98.5 16.4 98.5 16.3 C 99.3 16.2 99.3 16.4 98.5 16.6 C 99.6 16.7 99.5 16.2 101.6 16.0 C 100.7 15.9 100.2 15.9 102.2 15.7 C 103.7 15.3 98.5 16.2 97.8 16.4 C 97.8 16.4 97.8 16.4 97.8 16.4 Z M 195.3 12.6 C 195.5 12.7 196.9 12.8 197.9 12.9 C 196.6 13.0 191.4 12.4 190.7 12.2 C 190.2 12.2 189.6 12.2 189.4 12.1 C 189.5 12.1 188.0 12.1 188.8 12.3 C 188.6 12.3 187.5 12.2 187.5 12.3 C 185.5 12.1 188.1 12.2 187.5 12.0 C 185.1 12.1 185.7 11.9 182.9 11.7 C 183.3 12.0 186.4 12.1 186.1 12.4 C 188.3 12.3 190.7 12.6 192.0 13.0 C 190.0 12.5 197.6 12.9 201.0 13.4 C 200.9 13.5 202.2 13.6 203.6 13.9 C 204.5 14.3 204.3 13.7 202.4 13.6 C 202.4 13.4 205.0 13.9 206.1 14.0 C 204.9 13.7 205.6 13.7 204.9 13.5 C 202.5 13.2 204.7 13.6 204.2 13.7 C 203.6 13.6 203.0 13.5 202.3 13.5 C 205.7 13.4 197.4 12.9 200.4 13.2 C 197.8 12.9 197.8 12.6 195.3 12.6 C 195.3 12.6 195.3 12.6 195.3 12.6 Z M 133.4 11.7 C 133.0 11.8 130.9 12.1 130.8 11.9 C 128.2 12.3 130.5 12.3 127.6 12.5 C 127.8 12.6 128.9 12.5 128.9 12.6 C 130.0 12.4 131.2 12.3 130.8 12.0 C 132.2 12.0 132.6 11.9 133.5 11.8 C 133.1 11.9 132.6 12.0 131.5 12.1 C 131.3 12.3 131.8 12.4 133.5 12.3 C 134.2 12.0 133.7 11.9 133.4 11.7 C 133.4 11.7 133.4 11.7 133.4 11.7 Z M 126.9 12.5 C 126.6 12.5 126.2 12.4 126.3 12.3 C 125.3 12.2 125.9 12.7 125.0 12.8 C 124.2 12.8 124.5 12.7 124.3 12.6 C 123.2 12.7 122.3 12.9 121.7 12.8 C 120.0 13.1 123.8 12.9 124.4 12.9 C 125.6 12.8 125.2 12.6 126.9 12.5 C 126.9 12.5 126.9 12.5 126.9 12.5 Z M 107.7 14.4 C 107.4 14.2 106.7 14.7 105.9 14.8 C 106.5 14.9 108.3 14.5 107.2 15.0 C 109.0 14.8 109.1 14.8 111.0 14.5 C 112.2 14.5 111.0 14.2 109.0 14.6 C 109.3 14.5 110.1 14.4 110.2 14.2 C 111.5 14.6 114.7 13.4 112.8 14.0 C 112.2 14.0 111.8 14.0 111.5 13.9 C 111.1 14.2 106.8 14.6 107.7 14.4 C 107.7 14.4 107.7 14.4 107.7 14.4 Z M 48.6 29.9 C 50.2 29.2 51.0 28.9 51.9 28.5 C 52.7 28.2 53.9 27.7 54.9 27.4 C 55.0 27.5 54.9 27.6 54.5 27.7 C 55.0 27.6 55.6 27.4 56.5 27.0 C 56.4 26.9 56.0 27.1 56.0 27.2 C 54.3 27.6 55.7 27.1 55.8 26.8 C 53.8 27.3 50.8 29.0 49.3 29.3 C 48.1 29.8 49.5 29.3 48.6 29.9 C 48.6 29.9 48.6 29.9 48.6 29.9 Z M 305.9 74.7 C 305.8 75.0 305.5 75.7 305.7 75.6 C 306.0 75.0 306.1 74.5 306.3 73.9 C 305.8 75.1 305.6 74.8 304.8 76.2 C 305.2 75.8 305.4 76.0 305.9 74.7 C 305.9 74.7 305.9 74.7 305.9 74.7 Z M 114.1 13.7 C 114.1 13.8 114.2 13.9 113.5 14.0 C 113.2 14.2 115.3 13.9 115.4 14.0 C 116.0 13.9 115.8 13.8 116.6 13.7 C 116.3 13.6 114.6 13.9 115.3 13.5 C 115.9 13.4 115.9 13.5 116.0 13.5 C 117.3 13.3 115.3 13.4 114.1 13.7 C 114.1 13.7 114.1 13.7 114.1 13.7 Z M 221.8 16.1 C 220.9 16.0 221.7 16.3 222.4 16.4 C 220.5 16.3 223.4 17.0 223.5 17.2 C 222.7 16.9 220.3 16.6 219.9 16.5 C 219.1 16.4 219.9 16.7 217.9 16.5 C 218.1 16.7 220.3 16.9 219.8 16.6 C 220.3 17.0 222.5 17.0 222.2 17.3 C 225.0 17.8 225.6 17.7 225.9 17.5 C 223.2 17.1 224.7 17.0 222.3 16.6 C 222.4 16.6 223.1 16.7 223.5 16.8 C 223.4 16.6 222.4 16.4 221.8 16.1 C 221.8 16.1 221.8 16.1 221.8 16.1 Z M 154.5 11.0 C 153.0 11.1 153.1 11.3 153.2 11.5 C 153.8 11.4 154.7 11.3 155.8 11.3 C 155.6 11.2 153.8 11.3 154.5 11.0 C 154.5 11.0 154.5 11.0 154.5 11.0 Z M 211.8 14.9 C 211.7 14.8 211.2 14.8 211.2 14.8 C 209.6 14.6 209.2 14.4 208.7 14.2 C 207.8 14.1 208.1 14.4 208.0 14.5 C 209.5 14.5 209.2 14.7 211.2 15.0 C 211.0 14.9 211.3 14.8 211.8 14.9 C 211.8 14.9 211.8 14.9 211.8 14.9 Z M 168.4 11.3 C 167.6 11.3 168.0 11.3 168.4 11.3 C 167.5 11.6 164.8 11.3 163.7 11.4 C 163.6 11.6 167.0 11.6 163.1 11.7 C 163.8 11.9 167.3 11.8 169.0 11.8 C 168.6 12.0 166.3 12.0 166.4 12.3 C 168.4 12.2 170.7 12.1 171.0 11.7 C 168.1 11.6 169.1 11.4 168.4 11.3 C 168.4 11.3 168.4 11.3 168.4 11.3 Z M 171.7 11.5 C 171.4 11.4 170.8 11.5 169.7 11.5 C 171.3 11.8 172.3 11.7 175.6 11.9 C 175.7 11.8 175.7 11.8 175.7 11.7 C 176.3 11.8 177.0 11.8 177.6 11.8 C 174.8 11.4 174.1 11.6 171.0 11.6 C 170.9 11.5 171.3 11.5 171.7 11.5 C 171.7 11.5 171.7 11.5 171.7 11.5 Z M 85.8 18.7 C 86.6 18.6 87.4 18.6 88.8 18.4 C 88.7 18.2 87.7 18.2 85.8 18.7 C 85.8 18.7 85.8 18.7 85.8 18.7 Z M 214.3 15.4 C 216.0 15.5 212.6 15.2 213.6 15.6 C 214.9 15.9 216.4 16.2 216.6 16.4 C 219.2 16.5 213.9 15.7 214.3 15.4 C 214.3 15.4 214.3 15.4 214.3 15.4 Z M 202.9 14.5 C 202.1 14.4 202.2 14.0 202.9 14.3 C 204.7 14.5 201.4 13.9 204.2 14.3 C 203.0 14.1 200.3 13.6 199.1 13.7 C 199.1 13.9 201.5 14.0 201.6 14.3 C 201.7 14.3 201.3 14.3 201.0 14.3 C 201.2 14.4 201.8 14.3 202.9 14.5 C 202.9 14.5 202.9 14.5 202.9 14.5 Z M 193.3 13.1 C 194.3 13.3 195.6 13.6 197.8 13.8 C 196.4 13.5 195.6 13.2 193.3 13.1 C 193.3 13.1 193.3 13.1 193.3 13.1 Z M 302.5 53.5 C 301.8 52.5 302.2 53.5 302.2 53.7 C 302.9 54.7 303.0 54.5 303.5 55.6 C 303.6 55.1 302.7 54.3 302.5 53.5 C 302.5 53.5 302.5 53.5 302.5 53.5 Z M 304.4 57.1 C 304.3 57.3 305.0 58.7 304.9 58.8 C 305.6 59.4 305.3 60.9 305.6 60.7 C 305.7 61.1 305.7 61.4 305.9 61.9 C 306.0 60.7 305.0 58.3 304.4 57.1 C 304.4 57.1 304.4 57.1 304.4 57.1 Z M 182.1 12.8 C 180.4 12.6 182.6 13.2 180.9 13.0 C 180.7 13.1 184.2 13.4 182.1 13.3 C 184.8 13.7 181.9 12.8 182.1 12.8 C 182.1 12.8 182.1 12.8 182.1 12.8 Z M 149.9 12.5 C 150.0 12.3 147.6 12.5 146.6 12.5 C 146.6 12.6 147.4 12.5 147.9 12.5 C 147.7 12.6 147.4 12.7 146.6 12.7 C 147.2 12.9 149.0 12.5 149.9 12.5 C 149.9 12.5 149.9 12.5 149.9 12.5 Z M 185.7 8.8 C 186.8 9.1 188.2 9.4 189.0 9.1 C 190.1 9.4 188.2 9.4 189.6 9.6 C 191.5 9.6 190.6 9.8 193.6 9.9 C 193.0 10.2 195.1 10.3 195.5 10.6 C 194.3 10.5 192.8 10.1 192.2 10.3 C 193.2 10.4 192.6 10.5 192.2 10.4 C 190.2 10.1 194.6 10.2 192.2 9.9 C 191.5 10.2 188.0 9.3 185.7 9.1 C 186.6 9.0 184.0 8.7 185.7 8.8 C 185.7 8.8 185.7 8.8 185.7 8.8 Z M 197.4 10.3 C 199.0 10.4 199.8 11.0 199.3 10.9 C 199.4 10.8 197.6 10.7 197.4 10.8 C 197.8 10.8 198.2 10.8 198.1 10.9 C 195.2 10.6 196.2 10.5 195.5 10.3 C 197.1 10.3 197.5 10.5 198.1 10.4 C 197.7 10.4 197.4 10.3 197.4 10.3 C 197.4 10.3 197.4 10.3 197.4 10.3 Z M 230.0 19.2 C 229.7 18.9 229.3 19.1 228.7 19.0 C 228.7 18.6 225.5 18.5 225.2 18.2 C 225.9 18.2 227.5 18.5 228.2 18.6 C 227.4 18.4 227.2 18.3 226.4 18.2 C 226.6 18.0 228.4 18.4 228.9 18.3 C 229.0 18.5 229.9 18.4 230.1 18.6 C 227.7 18.3 231.3 19.4 230.0 19.2 C 230.0 19.2 230.0 19.2 230.0 19.2 Z M 167.1 12.5 C 166.8 12.8 169.6 13.4 167.1 13.6 C 166.5 13.4 166.2 13.2 166.4 12.9 C 164.8 13.0 164.1 12.8 163.1 13.0 C 160.1 12.3 165.4 13.1 167.1 12.5 C 167.1 12.5 167.1 12.5 167.1 12.5 Z M 156.5 12.7 C 157.0 12.5 155.6 12.5 155.8 12.3 C 157.1 12.5 161.2 12.2 159.8 12.4 C 158.5 12.4 158.5 12.7 156.5 12.7 C 156.5 12.7 156.5 12.7 156.5 12.7 Z M 77.5 113.0 C 75.6 112.7 74.8 112.0 75.9 112.1 C 75.4 112.3 78.2 112.8 77.5 113.0 C 77.5 113.0 77.5 113.0 77.5 113.0 Z M 10.7 79.8 C 11.3 81.3 12.0 82.0 11.9 82.3 C 11.0 81.0 11.2 81.1 10.5 79.9 C 10.4 79.9 9.9 79.2 10.0 79.0 C 10.3 79.7 10.4 79.5 10.7 79.8 C 10.7 79.8 10.7 79.8 10.7 79.8 Z M 116.2 9.4 C 116.0 9.3 115.2 9.4 115.5 9.2 C 117.5 9.0 119.7 8.6 121.3 8.3 C 121.3 8.4 121.3 8.5 121.3 8.6 C 118.2 8.8 117.4 9.1 116.2 9.4 C 116.2 9.4 116.2 9.4 116.2 9.4 Z M 112.2 9.4 C 111.9 9.5 113.0 9.7 111.6 9.9 C 111.7 9.7 109.2 9.7 110.3 9.5 C 110.7 9.7 111.3 9.6 112.2 9.4 C 112.2 9.4 112.2 9.4 112.2 9.4 Z M 222.3 13.0 C 223.8 13.2 221.7 12.7 221.8 12.6 C 222.8 12.8 224.3 13.1 224.8 13.3 C 223.7 13.0 222.9 13.3 222.3 13.0 C 222.3 13.0 222.3 13.0 222.3 13.0 Z M 198.8 10.3 C 195.4 10.0 196.9 9.7 193.6 9.4 C 195.0 9.3 197.9 9.6 198.8 9.5 C 198.7 9.7 199.5 9.8 199.4 9.9 C 198.2 9.8 198.1 9.7 196.9 9.6 C 197.3 9.9 197.3 9.8 196.8 10.0 C 197.7 10.1 198.3 10.1 198.8 10.1 C 198.5 10.2 199.7 10.4 198.8 10.3 C 198.8 10.3 198.8 10.3 198.8 10.3 Z M 221.6 13.5 C 222.9 13.7 223.9 14.2 222.8 14.0 C 222.7 13.8 221.8 13.8 221.6 13.7 C 223.4 13.9 220.1 13.3 221.0 13.2 C 222.1 13.4 222.5 13.4 222.3 13.2 C 223.0 13.4 224.1 13.5 224.1 13.6 C 223.6 13.6 222.9 13.4 222.9 13.5 C 223.3 13.6 223.6 13.6 223.5 13.7 C 222.4 13.5 221.9 13.5 221.6 13.5 C 221.6 13.5 221.6 13.5 221.6 13.5 Z M 212.9 12.1 C 214.6 12.4 214.7 12.6 215.3 12.9 C 213.0 12.5 212.7 12.1 211.0 11.7 C 212.9 12.0 214.8 12.0 215.4 12.3 C 214.6 12.2 213.0 12.0 212.9 12.1 C 212.9 12.1 212.9 12.1 212.9 12.1 Z M 242.5 114.4 C 241.1 114.6 239.9 114.7 238.4 115.0 C 237.9 115.3 240.9 115.1 239.6 115.2 C 238.1 115.7 239.1 115.1 237.8 115.3 C 239.1 115.4 232.3 116.9 231.9 116.6 C 233.0 116.4 233.3 116.3 233.0 116.2 C 235.8 115.6 236.9 115.1 238.9 114.6 C 240.4 114.5 244.7 113.6 246.9 112.6 C 248.5 112.7 251.0 111.4 253.1 111.2 C 253.6 110.9 251.4 111.4 253.0 110.9 C 254.2 110.8 253.3 111.1 254.8 110.8 C 254.9 110.7 254.5 110.6 255.2 110.4 C 255.2 110.5 256.1 110.3 256.4 110.2 C 253.5 111.1 256.7 110.5 254.4 111.3 C 253.4 111.5 255.3 110.6 252.6 111.4 C 251.7 111.8 250.8 112.1 251.0 112.3 C 250.3 112.5 249.9 112.7 249.4 112.9 C 250.3 112.3 245.6 114.0 247.7 113.1 C 247.8 113.0 249.4 112.6 250.4 112.2 C 249.4 112.3 248.2 112.7 246.5 113.3 C 245.7 113.3 246.8 113.0 245.9 113.2 C 244.5 113.7 246.4 113.4 245.4 113.8 C 245.9 113.7 246.5 113.5 246.6 113.6 C 244.1 114.0 243.2 114.5 242.0 114.7 C 242.8 114.4 240.5 114.9 242.5 114.4 C 242.5 114.4 242.5 114.4 242.5 114.4 Z M 262.2 108.1 C 262.7 107.9 263.2 107.7 263.8 107.5 C 263.9 107.7 261.9 108.5 263.4 108.2 C 261.1 109.0 263.4 107.9 262.2 108.1 C 262.2 108.1 262.2 108.1 262.2 108.1 Z M 251.2 110.7 C 250.4 110.7 250.9 111.2 250.2 111.4 C 251.5 110.9 252.7 110.5 253.0 110.7 C 251.4 111.1 250.7 111.3 249.1 111.9 C 250.6 111.1 247.3 112.1 246.7 111.9 C 248.0 111.5 248.9 111.2 250.6 110.7 C 250.3 110.9 252.8 110.2 251.2 110.7 C 251.2 110.7 251.2 110.7 251.2 110.7 Z M 255.5 109.1 C 255.8 109.2 258.1 108.3 257.7 108.7 C 256.3 109.1 255.8 109.4 256.2 109.5 C 255.1 109.8 254.9 109.8 254.0 110.1 C 253.3 110.0 255.0 109.5 255.5 109.2 C 255.2 109.3 254.9 109.3 255.5 109.1 C 255.5 109.1 255.5 109.1 255.5 109.1 Z M 299.1 83.5 C 299.6 83.4 298.0 84.9 297.6 85.2 C 298.3 84.9 298.1 85.2 297.1 86.2 C 297.3 85.6 295.8 87.1 294.6 87.8 C 294.5 88.2 295.9 87.1 294.4 88.5 C 293.1 89.4 292.0 90.4 289.9 92.0 C 289.2 92.1 290.2 91.4 290.7 90.9 C 289.3 92.0 289.5 91.5 288.4 92.3 C 288.7 92.3 287.8 93.0 287.3 93.1 C 289.3 91.7 284.4 94.6 286.6 93.1 C 286.7 93.1 287.2 92.8 287.7 92.4 C 287.3 93.0 289.9 91.1 290.6 90.9 C 291.3 89.7 294.1 87.9 296.6 85.7 C 296.9 85.7 296.2 86.4 296.8 85.9 C 296.8 85.7 297.6 85.0 297.9 84.6 C 297.9 84.7 298.3 84.5 298.8 84.0 C 298.8 83.9 298.8 83.8 299.1 83.5 C 299.1 83.5 299.1 83.5 299.1 83.5 Z M 137.4 120.6 C 137.6 120.2 133.4 120.1 132.2 120.2 C 132.4 119.7 139.8 120.3 137.4 120.6 C 137.4 120.6 137.4 120.6 137.4 120.6 Z M 163.1 120.9 C 162.0 120.9 162.8 121.1 161.9 121.1 C 161.8 120.9 159.3 121.4 159.2 121.1 C 160.4 120.9 161.2 120.9 163.1 120.9 C 163.1 120.9 163.1 120.9 163.1 120.9 Z M 186.9 120.0 C 184.9 120.2 187.9 120.1 187.5 120.2 C 185.9 120.3 184.1 120.4 184.2 120.2 C 185.7 120.2 186.6 119.8 186.9 120.0 C 186.9 120.0 186.9 120.0 186.9 120.0 Z M 151.3 120.5 C 149.7 120.4 152.3 120.1 152.6 120.3 C 150.9 120.4 153.7 120.6 155.2 120.5 C 155.2 120.8 154.5 120.7 155.2 121.0 C 152.9 121.1 154.8 120.7 153.2 120.7 C 152.1 120.9 153.3 120.8 153.2 121.1 C 152.6 121.1 151.9 121.0 151.3 121.0 C 151.3 120.9 151.3 120.8 151.3 120.6 C 152.1 120.6 152.8 120.6 152.6 120.5 C 151.9 120.5 151.8 120.5 151.3 120.5 C 151.3 120.5 151.3 120.5 151.3 120.5 Z M 268.4 102.3 C 267.1 102.9 268.3 102.5 269.2 102.2 C 269.4 101.9 270.0 101.2 271.5 100.8 C 268.5 102.3 272.5 100.8 270.9 101.6 C 270.1 101.7 268.4 102.7 266.8 103.3 C 266.1 103.4 267.6 102.4 268.4 102.3 C 268.4 102.3 268.4 102.3 268.4 102.3 Z M 273.9 100.1 C 273.7 100.1 273.2 100.3 272.3 100.7 C 273.2 100.1 271.9 100.7 273.0 100.1 C 272.9 100.2 276.9 98.5 274.6 99.6 C 272.5 100.4 275.2 99.5 276.2 99.0 C 275.2 99.5 273.4 100.6 273.1 100.5 C 273.7 100.3 274.1 100.1 273.9 100.1 C 273.9 100.1 273.9 100.1 273.9 100.1 Z M 304.0 75.4 C 303.9 75.1 303.6 75.8 303.4 76.0 C 304.5 74.1 305.0 72.4 305.3 71.5 C 305.1 72.3 305.2 72.4 305.5 71.9 C 305.1 72.9 305.2 73.1 304.9 73.4 C 305.0 72.5 304.6 74.2 304.0 75.4 C 304.0 75.4 304.0 75.4 304.0 75.4 Z M 304.0 75.4 " fill="#000000"></path><image xlink:href="../../CEFA4209-80C9-472B-8D2B-058B96531B72/assets/431BD2BFE54A6EFCB4B133EE2A4ED9FC.png" width="209.00" height="56.00" transform="matrix(1.00, 0.00, -0.00, -1.00, 57.0, 84.0)"></image><g><clipPath id="clip-1134"><path d="M 10.4 10.2 L 308.6 10.2 L 308.6 122.6 L 10.4 122.6 Z M 10.4 10.2 "></path></clipPath><g clip-path="url(#clip-1134)"><text xml:space="preserve" font-family="Chalkduster" font-size="32.0" fill="#000000" transform="matrix(1.00, 0.00, -0.00, -1.00, 60.0, 52.0)">L</text><text xml:space="preserve" font-family="Chalkduster" font-size="32.0" fill="#000000" transform="matrix(1.00, 0.00, -0.00, -1.00, 80.3, 52.0)">i</text><text xml:space="preserve" font-family="Chalkduster" font-size="32.0" fill="#000000" transform="matrix(1.00, 0.00, -0.00, -1.00, 92.9, 52.0)">n</text><text xml:space="preserve" font-family="Chalkduster" font-size="32.0" fill="#000000" transform="matrix(1.00, 0.00, -0.00, -1.00, 116.4, 52.0)">k</text><text xml:space="preserve" font-family="Chalkduster" font-size="32.0" fill="#000000" transform="matrix(1.00, 0.00, -0.00, -1.00, 141.3, 52.0)"> </text><text xml:space="preserve" font-family="Chalkduster" font-size="32.0" fill="#000000" transform="matrix(1.00, 0.00, -0.00, -1.00, 157.2, 52.0)">S</text><text xml:space="preserve" font-family="Chalkduster" font-size="32.0" fill="#000000" transform="matrix(1.00, 0.00, -0.00, -1.00, 173.1, 52.0)">p</text><text xml:space="preserve" font-family="Chalkduster" font-size="32.0" fill="#000000" transform="matrix(1.00, 0.00, -0.00, -1.00, 193.2, 52.0)">e</text><text xml:space="preserve" font-family="Chalkduster" font-size="32.0" fill="#000000" transform="matrix(1.00, 0.00, -0.00, -1.00, 213.1, 52.0)">e</text><text xml:space="preserve" font-family="Chalkduster" font-size="32.0" fill="#000000" transform="matrix(1.00, 0.00, -0.00, -1.00, 233.9, 52.0)">d</text></g></g></g></svg>