<?xml version="1.0" encoding="UTF-8" standalone="no"?><svg xmlns="http://www.w3.org/2000/svg" xmlns:xlink="http://www.w3.org/1999/xlink" clip-rule="evenodd" stroke-miterlimit="4.00" viewBox="0 0 236 100"><desc>SVG generated by Keynote</desc><defs></defs><g transform="matrix(1.00, 0.00, -0.00, -1.00, 0.0, 100.0)"><g><clipPath id="clip-1131"><path d="M 0.1 0.3 L 236.0 0.3 L 236.0 99.9 L 0.1 99.9 Z M 0.1 0.3 "></path></clipPath><g clip-path="url(#clip-1131)"><image xlink:href="../../14F397CC-C286-42D9-A2F1-53C679F93897/assets/9C11A9BFE2462ACD0C8F53A82701A181.png" width="234.00" height="98.00" transform="matrix(1.00, 0.00, -0.00, -1.00, 1.1, 98.9)" opacity="0.50"></image><path d="M 39.1 91.0 L 197.0 91.0 C 205.6 91.0 210.0 91.0 214.7 89.5 C 219.8 87.7 223.8 83.7 225.7 78.6 C 227.1 73.9 227.1 69.5 227.1 60.7 L 227.1 39.3 C 227.1 30.7 227.1 26.3 225.7 21.6 C 223.8 16.5 219.8 12.5 214.7 10.6 C 210.0 9.1 205.6 9.1 196.8 9.1 L 39.1 9.1 C 30.4 9.1 26.0 9.1 21.4 10.6 C 16.3 12.5 12.2 16.5 10.4 21.6 C 8.9 26.3 8.9 30.7 8.9 39.5 L 8.9 60.8 C 8.9 69.5 8.9 73.9 10.4 78.6 C 12.2 83.7 16.3 87.7 21.4 89.5 C 26.0 91.0 30.4 91.0 39.2 91.0 Z M 39.1 91.0 " fill="#DDF3D0"></path><path d="M 39.7 89.1 C 38.8 89.1 37.6 89.2 37.5 90.6 C 37.3 91.9 38.3 93.0 39.7 93.0 C 41.0 93.0 40.6 92.2 43.8 92.2 C 45.0 92.2 45.1 89.8 43.9 89.8 C 41.0 89.8 41.4 89.1 39.7 89.1 C 39.7 89.1 39.7 89.1 39.7 89.1 Z M 38.1 93.0 C 38.5 93.0 38.9 92.9 39.2 92.9 L 39.2 89.1 C 38.2 89.3 37.7 89.9 37.7 91.0 C 37.7 92.1 38.2 92.7 39.2 92.9 L 39.2 89.1 C 38.9 89.1 38.5 89.1 38.1 89.1 C 36.0 89.1 36.0 89.8 33.2 89.8 C 31.7 89.7 31.9 92.2 33.2 92.2 C 36.1 92.2 35.7 93.0 38.1 93.0 C 38.1 93.0 38.1 93.0 38.1 93.0 Z M 44.0 89.8 C 42.8 89.8 42.8 92.2 44.1 92.2 C 45.6 92.2 48.7 91.8 49.5 91.9 C 50.4 91.9 52.6 92.4 53.4 92.4 C 54.1 92.4 57.6 91.7 59.1 91.9 C 60.6 92.1 61.0 92.0 62.0 92.0 C 63.0 92.0 64.7 91.8 65.7 91.7 C 66.6 91.7 67.5 92.3 68.8 92.2 C 70.1 92.0 70.8 92.2 71.7 92.2 C 73.1 92.2 73.0 89.8 71.7 89.8 C 70.4 89.8 69.5 89.6 68.4 89.7 C 67.4 89.7 66.4 90.0 65.4 89.7 C 64.4 89.5 62.4 89.8 61.1 89.9 C 59.9 90.1 58.5 90.0 57.6 89.9 C 55.6 89.7 50.9 90.2 50.3 90.0 C 49.6 89.7 47.5 89.9 46.7 89.9 C 45.9 89.9 45.5 89.8 44.0 89.8 C 44.0 89.8 44.0 89.8 44.0 89.8 Z M 99.4 92.2 C 100.7 92.2 100.9 89.8 99.4 89.8 C 97.9 89.8 95.1 90.0 94.3 90.0 C 93.5 89.9 90.0 89.8 89.3 89.8 C 88.6 89.8 86.0 90.1 84.5 89.9 C 83.0 89.7 81.6 90.1 80.5 90.0 C 79.3 89.9 78.6 90.0 77.6 90.1 C 76.6 90.1 75.1 89.6 74.3 89.8 C 73.5 90.0 73.0 89.8 71.9 89.8 C 70.7 89.8 70.7 92.2 71.8 92.2 C 72.9 92.2 73.8 92.2 74.9 92.1 C 76.0 92.1 77.3 92.1 78.5 92.1 C 79.5 92.1 81.1 92.4 82.4 92.2 C 83.6 92.0 85.4 92.0 86.1 92.0 C 87.0 91.9 88.9 92.0 89.7 91.9 C 90.8 91.7 92.6 91.9 93.3 92.1 C 94.0 92.4 94.4 92.1 95.9 92.1 C 96.8 92.1 98.1 92.2 99.4 92.2 C 99.4 92.2 99.4 92.2 99.4 92.2 Z M 99.8 92.2 C 101.3 92.2 103.7 91.9 104.3 91.9 C 104.9 91.9 106.9 92.1 107.9 92.1 C 108.8 92.0 109.1 91.8 110.7 91.8 C 112.7 91.7 114.0 91.9 114.1 92.0 C 114.4 92.0 115.3 92.3 116.7 92.2 C 118.5 92.1 119.0 92.3 119.8 92.2 C 121.1 92.0 121.3 92.2 122.3 92.2 C 123.4 92.1 124.0 92.2 124.8 92.1 C 125.8 91.9 126.4 92.3 127.3 92.2 C 128.6 92.2 128.5 89.8 127.2 89.8 C 126.5 89.8 125.8 90.1 125.0 90.1 C 124.2 90.1 123.5 90.0 122.7 89.9 C 121.9 89.8 120.3 90.0 119.0 89.9 C 117.7 89.8 115.6 89.7 114.1 89.8 C 112.6 89.8 111.7 90.4 108.6 90.0 C 107.7 89.9 105.7 90.0 104.9 90.0 C 103.5 90.0 100.8 89.8 99.7 89.8 C 98.3 89.8 98.3 92.2 99.8 92.2 C 99.8 92.2 99.8 92.2 99.8 92.2 Z M 155.1 92.2 C 156.4 92.2 156.6 89.8 155.1 89.8 C 153.6 89.8 150.8 90.0 149.9 90.0 C 149.1 89.9 145.7 89.8 145.0 89.8 C 144.2 89.8 141.7 90.1 140.2 89.9 C 138.7 89.7 137.2 90.1 136.2 90.0 C 134.9 89.9 134.2 90.0 133.3 90.1 C 132.3 90.1 130.8 89.6 130.0 89.8 C 129.1 90.0 128.7 89.8 127.5 89.8 C 126.3 89.8 126.4 92.2 127.4 92.2 C 128.5 92.2 129.5 92.2 130.5 92.1 C 131.6 92.1 132.9 92.1 134.1 92.1 C 135.2 92.1 136.8 92.3 138.0 92.2 C 139.2 92.0 141.0 92.0 141.8 91.9 C 142.7 91.9 144.6 92.0 145.4 91.9 C 146.5 91.7 148.3 91.9 148.9 92.1 C 149.6 92.3 150.1 92.1 151.5 92.1 C 152.4 92.1 153.8 92.2 155.1 92.2 C 155.1 92.2 155.1 92.2 155.1 92.2 Z M 155.5 92.2 C 157.0 92.2 159.4 91.9 160.0 91.9 C 160.6 91.9 162.6 92.1 163.5 92.1 C 164.5 92.0 164.8 91.8 166.4 91.8 C 168.4 91.7 169.7 91.9 169.7 92.0 C 170.0 92.0 171.0 92.3 172.3 92.2 C 174.1 92.1 174.6 92.3 175.4 92.2 C 176.8 91.9 176.9 92.2 178.0 92.2 C 179.0 92.1 179.7 92.2 180.5 92.1 C 181.4 91.9 182.1 92.3 182.9 92.2 C 184.2 92.2 184.1 89.8 182.9 89.8 C 182.1 89.8 181.4 90.1 180.6 90.1 C 179.8 90.1 179.2 90.0 178.4 89.9 C 177.6 89.8 176.0 89.9 174.7 89.9 C 173.4 89.8 171.2 89.7 169.7 89.8 C 168.3 89.8 167.3 90.4 164.3 90.0 C 163.3 89.9 161.4 90.0 160.6 90.0 C 159.2 90.0 156.5 89.8 155.3 89.8 C 153.9 89.8 154.0 92.2 155.5 92.2 C 155.5 92.2 155.5 92.2 155.5 92.2 Z M 211.7 91.5 C 212.7 91.3 212.4 88.9 211.2 89.1 C 210.1 89.4 207.7 89.8 207.0 89.8 C 206.2 89.8 202.6 89.8 201.8 89.8 C 200.9 89.8 197.3 90.1 195.8 89.9 C 194.3 89.7 192.9 90.1 191.8 90.0 C 190.6 89.9 189.9 90.0 188.9 90.1 C 187.9 90.1 186.4 89.6 185.6 89.8 C 184.8 90.0 184.3 89.8 183.2 89.8 C 182.0 89.8 182.0 92.2 183.1 92.2 C 184.2 92.2 185.1 92.2 186.2 92.1 C 187.3 92.1 188.6 92.1 189.8 92.1 C 190.8 92.1 192.4 92.3 193.7 92.2 C 194.9 92.0 196.6 92.0 197.6 91.9 C 198.9 91.9 201.3 92.0 202.3 91.8 C 203.5 91.6 205.5 91.8 206.1 92.0 C 206.8 92.2 207.3 91.9 208.6 91.8 C 209.4 91.8 210.6 91.7 211.7 91.5 C 211.7 91.5 211.7 91.5 211.7 91.5 Z M 211.4 89.1 C 210.5 89.3 210.8 91.7 212.0 91.5 C 213.2 91.3 215.8 90.0 216.6 89.6 C 217.4 89.3 219.7 88.5 220.3 88.0 C 220.9 87.5 223.0 84.5 224.1 83.4 C 225.1 82.2 225.3 81.7 225.7 80.8 C 226.2 79.8 226.6 78.2 226.7 77.4 C 226.9 76.6 227.7 76.0 227.7 74.9 C 227.7 73.8 228.0 73.3 228.1 72.5 C 228.2 71.2 225.8 71.1 225.6 72.2 C 225.5 73.3 225.3 74.0 225.2 74.8 C 225.1 75.7 225.2 76.4 224.8 77.1 C 224.3 77.8 224.0 79.5 223.5 80.6 C 223.1 81.7 222.3 82.7 221.6 83.3 C 220.3 84.6 217.0 87.5 216.4 87.6 C 215.7 87.7 214.0 88.6 213.5 88.8 C 212.9 88.9 212.6 88.9 211.4 89.1 C 211.4 89.1 211.4 89.1 211.4 89.1 Z M 228.1 72.1 C 228.2 70.8 228.0 68.3 228.0 67.6 C 228.0 67.0 228.2 64.6 228.2 63.4 C 228.1 62.1 227.9 61.4 227.9 59.8 C 227.8 57.8 228.0 56.5 228.1 56.4 C 228.2 56.1 228.4 55.2 228.3 53.8 C 228.2 52.0 228.5 51.5 228.4 50.7 C 228.1 49.3 228.3 49.2 228.3 48.2 C 228.2 47.1 228.3 46.5 228.2 45.6 C 228.1 44.7 228.4 44.1 228.4 43.2 C 228.4 41.9 225.9 42.0 225.9 43.3 C 225.9 44.0 226.2 44.7 226.2 45.5 C 226.2 46.3 226.1 47.0 226.0 47.8 C 225.9 48.6 226.1 50.2 226.0 51.5 C 226.0 52.8 225.8 54.9 225.9 56.4 C 225.9 57.9 226.5 58.1 226.1 62.3 C 226.0 63.7 226.1 66.1 226.1 66.9 C 226.0 68.5 225.8 71.1 225.7 72.1 C 225.6 73.3 228.0 73.5 228.1 72.1 C 228.1 72.1 228.1 72.1 228.1 72.1 Z M 223.7 15.6 C 222.8 14.5 220.9 16.0 221.8 17.1 C 222.6 18.2 224.1 20.4 224.4 21.2 C 224.6 21.9 225.1 24.5 225.2 25.0 C 225.3 25.6 226.0 27.6 225.9 29.0 C 225.7 30.3 226.2 31.8 226.1 32.9 C 226.0 34.4 226.1 35.2 226.2 36.5 C 226.2 37.7 225.7 39.7 225.9 40.5 C 226.2 41.4 225.9 41.8 225.9 43.0 C 225.9 44.1 228.4 44.1 228.4 43.0 C 228.4 42.0 228.3 41.0 228.3 39.9 C 228.2 38.9 228.2 36.8 228.2 35.4 C 228.2 34.0 228.4 32.2 228.2 31.0 C 228.0 29.7 227.8 28.0 227.8 27.4 C 227.6 26.6 227.5 25.0 227.2 24.3 C 226.9 23.5 226.7 21.9 226.8 21.3 C 226.8 20.7 226.3 20.2 225.6 18.8 C 225.2 18.0 224.5 16.7 223.7 15.6 C 223.7 15.6 223.7 15.6 223.7 15.6 Z M 223.4 15.3 C 222.4 14.1 220.2 12.7 219.7 12.3 C 219.2 11.9 217.5 10.7 216.6 10.3 C 215.7 9.9 215.2 9.9 213.9 9.6 C 212.3 9.3 211.3 8.9 211.2 8.8 C 211.0 8.7 210.2 8.3 209.0 8.3 C 207.4 8.2 206.9 8.0 206.1 8.0 C 204.7 8.3 204.6 8.0 203.4 8.0 C 202.2 8.1 201.5 7.9 200.4 8.1 C 199.2 8.2 198.3 7.9 197.1 7.9 C 196.2 7.9 196.1 8.5 196.1 9.1 C 196.1 9.8 196.3 10.4 197.2 10.4 C 198.3 10.4 199.2 10.1 200.2 10.1 C 201.2 10.1 202.1 10.2 202.9 10.3 C 203.8 10.4 205.5 10.3 206.7 10.4 C 207.9 10.5 209.7 10.9 210.8 11.0 C 212.0 11.1 212.5 10.4 215.1 11.9 C 215.9 12.3 217.5 13.1 218.1 13.5 C 219.2 14.3 220.9 16.1 221.6 17.0 C 222.4 17.9 224.4 16.5 223.4 15.3 C 223.4 15.3 223.4 15.3 223.4 15.3 Z M 169.2 7.9 C 167.9 7.9 167.7 10.4 169.2 10.4 C 170.7 10.4 173.5 10.1 174.4 10.2 C 175.2 10.2 178.6 10.4 179.3 10.4 C 180.1 10.4 182.6 10.0 184.1 10.2 C 185.6 10.4 187.1 10.0 188.1 10.1 C 189.4 10.3 190.1 10.1 191.0 10.1 C 192.0 10.0 193.5 10.5 194.3 10.3 C 195.2 10.1 195.6 10.4 196.8 10.4 C 197.9 10.4 198.5 7.9 196.9 7.9 C 195.3 7.9 194.8 8.0 193.7 8.0 C 192.7 8.1 191.3 8.1 190.2 8.1 C 189.1 8.1 187.5 7.8 186.3 8.0 C 185.1 8.1 183.3 8.2 182.5 8.2 C 181.6 8.2 179.7 8.2 178.9 8.3 C 177.8 8.5 176.0 8.2 175.3 8.0 C 174.7 7.8 174.2 8.1 172.8 8.0 C 171.9 8.0 170.5 7.9 169.2 7.9 C 169.2 7.9 169.2 7.9 169.2 7.9 Z M 168.8 7.9 C 167.3 7.9 164.9 8.2 164.3 8.2 C 163.7 8.2 161.7 8.1 160.8 8.1 C 159.8 8.2 159.5 8.4 157.9 8.4 C 155.9 8.5 154.6 8.2 154.5 8.2 C 154.3 8.1 153.3 7.9 152.0 7.9 C 150.2 8.0 149.7 7.8 148.9 7.9 C 147.5 8.2 147.4 7.9 146.3 8.0 C 145.3 8.0 144.6 7.9 143.8 8.1 C 142.9 8.2 142.2 7.9 141.4 7.9 C 140.1 7.9 140.2 10.4 141.4 10.4 C 142.2 10.4 142.9 10.1 143.7 10.1 C 144.4 10.1 145.1 10.2 145.9 10.3 C 146.7 10.4 148.3 10.2 149.6 10.3 C 150.9 10.3 153.1 10.5 154.5 10.4 C 156.0 10.4 157.0 9.8 160.0 10.2 C 161.0 10.3 162.9 10.2 163.7 10.2 C 165.1 10.2 167.8 10.4 169.0 10.4 C 170.3 10.4 170.3 7.9 168.8 7.9 C 168.8 7.9 168.8 7.9 168.8 7.9 Z M 113.6 7.9 C 112.3 7.9 112.0 10.4 113.6 10.4 C 115.1 10.4 117.9 10.1 118.7 10.2 C 119.5 10.2 123.0 10.4 123.7 10.4 C 124.4 10.4 127.0 10.0 128.5 10.2 C 130.0 10.4 131.4 10.0 132.4 10.1 C 133.7 10.3 134.4 10.1 135.4 10.1 C 136.4 10.0 137.9 10.5 138.7 10.3 C 139.5 10.1 140.0 10.4 141.1 10.4 C 142.3 10.4 142.3 7.9 141.2 7.9 C 140.1 7.9 139.2 8.0 138.1 8.0 C 137.0 8.1 135.7 8.1 134.5 8.1 C 133.5 8.1 131.9 7.8 130.6 8.0 C 129.4 8.1 127.6 8.2 126.9 8.2 C 126.0 8.2 124.1 8.2 123.2 8.3 C 122.2 8.5 120.4 8.2 119.7 8.0 C 119.0 7.8 118.6 8.1 117.1 8.0 C 116.2 8.0 114.9 7.9 113.6 7.9 C 113.6 7.9 113.6 7.9 113.6 7.9 Z M 113.4 10.4 C 114.5 10.4 114.6 7.9 113.2 7.9 C 111.8 7.9 108.6 8.4 107.8 8.3 C 107.0 8.3 104.7 7.8 104.0 7.8 C 103.3 7.8 99.8 8.5 98.3 8.3 C 96.8 8.1 96.4 8.2 95.3 8.2 C 94.3 8.2 92.7 8.4 91.7 8.4 C 90.7 8.5 89.8 7.8 88.5 8.0 C 87.3 8.2 86.6 7.9 85.7 7.9 C 84.3 7.9 84.3 10.4 85.7 10.4 C 86.9 10.4 87.8 10.5 88.9 10.5 C 90.0 10.4 90.9 10.2 91.9 10.4 C 93.0 10.7 95.0 10.4 96.2 10.2 C 97.4 10.1 98.8 10.2 99.8 10.3 C 101.7 10.5 106.4 10.0 107.1 10.2 C 107.7 10.4 109.9 10.2 110.7 10.2 C 111.4 10.2 111.8 10.4 113.4 10.4 C 113.4 10.4 113.4 10.4 113.4 10.4 Z M 85.3 7.9 C 83.9 7.9 81.4 8.2 80.8 8.2 C 80.2 8.2 78.2 8.1 77.3 8.1 C 76.4 8.2 76.0 8.4 74.4 8.4 C 72.5 8.5 71.2 8.2 71.1 8.2 C 70.8 8.1 69.8 7.9 68.5 7.9 C 66.7 8.0 66.2 7.8 65.4 7.9 C 64.0 8.2 63.9 7.9 62.8 8.0 C 61.8 8.0 61.2 7.9 60.3 8.1 C 59.4 8.2 58.7 7.9 57.9 7.9 C 56.6 7.9 56.7 10.4 58.0 10.4 C 58.7 10.4 59.4 10.1 60.2 10.1 C 61.0 10.1 61.7 10.2 62.5 10.3 C 63.2 10.4 64.9 10.2 66.2 10.3 C 67.4 10.3 69.6 10.5 71.1 10.4 C 72.6 10.4 73.5 9.8 76.5 10.2 C 77.5 10.3 79.5 10.2 80.3 10.2 C 81.6 10.2 84.3 10.4 85.5 10.4 C 86.9 10.4 86.8 7.9 85.3 7.9 C 85.3 7.9 85.3 7.9 85.3 7.9 Z M 28.6 8.1 C 27.4 8.2 27.4 10.6 28.8 10.5 C 30.1 10.5 33.1 10.2 34.0 10.2 C 35.0 10.2 39.5 10.4 40.2 10.4 C 40.9 10.4 43.5 10.0 45.0 10.2 C 46.5 10.4 47.9 10.0 49.0 10.1 C 50.2 10.3 50.9 10.1 51.9 10.1 C 52.9 10.0 54.4 10.5 55.2 10.3 C 56.0 10.1 56.5 10.4 57.7 10.4 C 58.8 10.4 58.8 7.9 57.7 7.9 C 56.6 7.9 55.7 8.0 54.6 8.0 C 53.5 8.1 52.2 8.1 51.0 8.1 C 50.0 8.1 48.4 7.8 47.2 8.0 C 45.9 8.1 44.1 8.2 43.4 8.2 C 42.5 8.2 40.6 8.2 39.8 8.3 C 38.7 8.5 36.1 8.2 35.2 8.0 C 34.4 7.8 33.8 8.1 32.2 8.1 C 31.2 8.1 29.8 8.0 28.6 8.1 C 28.6 8.1 28.6 8.1 28.6 8.1 Z M 28.2 8.1 C 26.8 8.2 24.8 8.9 24.3 9.0 C 23.8 9.1 22.2 9.2 21.4 9.5 C 20.7 9.8 20.2 10.1 18.8 11.0 C 17.0 12.0 15.8 12.6 15.7 12.7 C 15.5 12.8 14.5 13.2 13.6 14.3 C 12.3 15.7 11.9 16.1 11.5 16.8 C 10.9 18.2 10.6 18.2 10.2 19.2 C 9.7 20.2 9.3 20.9 9.2 21.7 C 9.2 22.4 8.7 22.9 8.6 23.6 C 8.3 24.7 10.8 25.0 11.0 24.1 C 11.1 23.5 11.0 22.9 11.2 22.4 C 11.3 21.8 11.6 21.2 12.0 20.5 C 12.5 19.9 13.1 18.5 13.8 17.6 C 14.6 16.6 16.1 15.3 17.1 14.4 C 18.2 13.5 18.6 12.4 21.4 11.7 C 22.3 11.5 23.6 11.1 24.2 10.9 C 25.3 10.7 27.5 10.6 28.5 10.6 C 29.8 10.5 29.6 8.0 28.2 8.1 C 28.2 8.1 28.2 8.1 28.2 8.1 Z M 11.0 24.2 C 11.1 23.4 8.8 22.7 8.5 23.9 C 8.3 25.0 8.4 27.8 8.3 28.6 C 8.2 29.4 7.6 31.6 7.6 32.4 C 7.6 32.8 7.7 34.0 7.9 35.4 C 8.0 36.9 8.2 38.9 8.1 39.6 C 7.9 41.1 8.0 41.5 8.0 42.6 C 8.0 43.6 8.1 45.2 8.2 46.2 C 8.2 47.2 7.6 48.1 7.8 49.3 C 7.9 50.6 7.7 51.3 7.7 52.2 C 7.7 53.6 10.1 53.5 10.1 52.2 C 10.1 50.9 10.3 50.1 10.2 49.0 C 10.2 47.9 9.9 47.0 10.2 45.9 C 10.4 44.9 10.2 42.9 10.0 41.7 C 9.8 40.5 9.9 38.9 10.0 37.6 C 10.2 34.9 9.9 30.0 10.1 29.4 C 10.4 28.8 10.3 26.9 10.4 26.3 C 10.5 25.7 10.7 25.4 11.0 24.2 C 11.0 24.2 11.0 24.2 11.0 24.2 Z M 7.7 52.5 C 7.7 54.0 8.0 56.5 8.0 57.1 C 8.0 57.7 7.8 59.6 7.9 60.6 C 7.9 61.5 8.1 62.4 8.2 64.4 C 8.3 66.9 8.0 68.2 8.0 68.3 C 7.9 68.6 7.7 69.6 7.9 70.9 C 8.1 72.6 7.9 73.1 8.1 73.8 C 8.5 74.9 8.3 75.0 8.5 75.9 C 8.7 76.8 8.8 77.3 9.1 77.9 C 9.4 78.6 9.4 79.4 9.7 80.2 C 10.3 81.5 12.4 80.3 12.0 79.2 C 11.7 78.6 11.2 78.1 11.1 77.5 C 10.9 76.9 10.8 76.4 10.8 75.8 C 10.8 75.1 10.4 73.9 10.4 72.8 C 10.3 71.7 10.3 69.8 10.2 68.2 C 10.1 66.7 9.5 65.9 9.9 61.6 C 10.0 60.2 9.9 58.4 9.9 57.6 C 9.9 56.2 10.1 53.6 10.1 52.4 C 10.1 51.0 7.7 51.1 7.7 52.5 C 7.7 52.5 7.7 52.5 7.7 52.5 Z M 12.1 79.4 C 11.6 78.4 9.3 79.3 9.9 80.6 C 10.6 82.0 12.8 84.4 13.4 85.1 C 13.9 85.8 15.4 87.7 16.0 88.2 C 16.6 88.6 20.4 89.9 21.5 90.5 C 22.6 91.0 23.0 91.0 23.9 91.1 C 24.7 91.3 26.1 91.4 26.9 91.4 C 27.8 91.5 28.6 92.2 29.8 92.1 C 31.1 91.9 31.9 92.2 32.9 92.2 C 34.5 92.2 34.4 89.8 32.9 89.8 C 31.5 89.7 30.6 89.6 29.6 89.6 C 28.6 89.6 27.8 89.7 26.9 89.4 C 26.1 89.0 24.6 89.1 23.6 89.0 C 22.6 89.0 21.7 88.6 20.9 88.1 C 19.2 87.2 15.5 84.9 15.2 84.3 C 14.9 83.7 13.5 82.3 13.2 81.7 C 12.8 81.1 12.7 80.7 12.1 79.4 C 12.1 79.4 12.1 79.4 12.1 79.4 Z M 39.2 93.0 C 39.2 93.0 39.2 92.8 39.2 91.5 C 39.2 90.1 39.2 89.1 39.2 89.1 C 39.2 89.1 39.2 89.8 39.2 89.8 C 39.1 89.8 39.1 92.3 39.2 92.3 C 39.2 92.3 39.2 93.0 39.2 93.0 C 39.2 93.0 39.2 93.0 39.2 93.0 Z M 39.1 89.1 C 39.1 89.1 39.1 89.7 39.1 91.0 C 39.1 92.4 39.1 93.0 39.1 93.0 C 39.1 93.0 39.1 92.2 39.1 92.3 C 39.2 92.3 39.2 89.8 39.1 89.8 C 39.1 89.8 39.1 89.1 39.1 89.1 C 39.1 89.1 39.1 89.1 39.1 89.1 Z M 39.1 89.1 " fill="#FF7777"></path></g></g><g><clipPath id="clip-1132"><path d="M 44.5 23.9 L 191.5 23.9 L 191.5 76.2 L 44.5 76.2 Z M 44.5 23.9 "></path></clipPath><g clip-path="url(#clip-1132)"><text xml:space="preserve" font-family="AmericanTypewriter" font-size="30.0" fill="#000000" transform="matrix(1.00, 0.00, -0.00, -1.00, 54.0, 40.0)">E</text><text xml:space="preserve" font-family="AmericanTypewriter" font-size="30.0" fill="#000000" transform="matrix(1.00, 0.00, -0.00, -1.00, 74.2, 40.0)">p</text><text xml:space="preserve" font-family="AmericanTypewriter" font-size="30.0" fill="#000000" transform="matrix(1.00, 0.00, -0.00, -1.00, 92.2, 40.0)">o</text><text xml:space="preserve" font-family="AmericanTypewriter" font-size="30.0" fill="#000000" transform="matrix(1.00, 0.00, -0.00, -1.00, 108.6, 40.0)">u</text><text xml:space="preserve" font-family="AmericanTypewriter" font-size="30.0" fill="#000000" transform="matrix(1.00, 0.00, -0.00, -1.00, 127.1, 40.0)">t</text><text xml:space="preserve" font-family="AmericanTypewriter" font-size="30.0" fill="#000000" transform="matrix(1.00, 0.00, -0.00, -1.00, 139.1, 40.0)">a</text><text xml:space="preserve" font-family="AmericanTypewriter" font-size="30.0" fill="#000000" transform="matrix(1.00, 0.00, -0.00, -1.00, 156.1, 40.0)"> </text><text xml:space="preserve" font-family="AmericanTypewriter" font-size="30.0" fill="#000000" transform="matrix(1.00, 0.00, -0.00, -1.00, 163.6, 40.0)">1</text></g></g></g></svg>