<?xml version="1.0" encoding="UTF-8" standalone="no"?><svg xmlns="http://www.w3.org/2000/svg" xmlns:xlink="http://www.w3.org/1999/xlink" clip-rule="evenodd" stroke-miterlimit="4.00" viewBox="0 0 340 149"><desc>SVG generated by Keynote</desc><defs></defs><g transform="matrix(1.00, 0.00, -0.00, -1.00, 0.0, 149.0)"><image xlink:href="../../CEFA4209-80C9-472B-8D2B-058B96531B72/assets/18D96FF3CF2FC989777909170BCDD44B.png" width="337.00" height="146.00" transform="matrix(1.00, 0.00, -0.00, -1.00, 1.7, 147.8)" opacity="0.50"></image><g><clipPath id="clip-1155"><path d="M 282.7 120.0 C 345.0 94.9 345.0 54.3 282.7 29.2 C 220.5 4.1 119.6 4.1 57.4 29.2 C -4.9 54.3 -4.9 94.9 57.4 120.0 C 119.6 145.1 220.5 145.1 282.7 120.0 Z M 282.7 120.0 "></path></clipPath><g clip-path="url(#clip-1155)"><image xlink:href="../../CEFA4209-80C9-472B-8D2B-058B96531B72/assets/59DBD66EA15A3D40E065F836EF2595FD.jpeg" width="400.00" height="400.00" transform="matrix(1.00, 0.00, -0.00, -1.00, 10.7, 138.8)"></image></g></g><path d="M 87.3 15.7 C 86.8 15.9 86.2 16.1 85.4 16.3 C 85.8 16.2 86.1 16.2 86.0 16.3 C 86.8 16.1 87.8 15.8 89.3 15.5 C 89.2 15.4 88.5 15.6 87.9 15.7 C 87.3 15.9 87.4 15.7 87.3 15.7 C 87.3 15.7 87.3 15.7 87.3 15.7 Z M 72.1 128.7 C 70.9 128.3 72.2 129.0 72.6 129.1 C 72.7 129.1 72.8 129.1 73.3 129.2 C 73.3 129.5 72.2 129.2 71.4 129.0 C 68.0 127.8 70.6 128.2 72.1 128.7 C 72.1 128.7 72.1 128.7 72.1 128.7 Z M 256.4 131.8 C 259.2 131.1 256.2 131.6 255.7 131.7 C 257.0 131.3 255.9 131.2 257.5 130.7 C 257.9 130.7 258.5 130.6 258.8 130.7 C 258.1 130.9 257.1 131.1 257.0 131.3 C 257.9 131.0 259.3 130.6 259.5 130.7 C 257.4 131.3 259.2 131.0 259.6 131.1 C 257.7 131.5 257.1 131.9 256.4 131.8 C 256.4 131.8 256.4 131.8 256.4 131.8 Z M 306.6 38.2 C 307.4 38.8 308.1 39.3 307.8 39.3 C 306.9 38.7 306.4 38.2 305.9 37.9 C 305.7 37.9 305.9 38.1 305.1 37.7 C 304.2 36.9 304.8 36.9 305.4 37.1 C 305.4 37.3 308.5 39.2 306.6 38.2 C 306.6 38.2 306.6 38.2 306.6 38.2 Z M 231.0 12.9 C 228.4 12.4 230.8 13.3 228.2 12.7 C 228.3 12.5 227.9 12.2 229.7 12.5 C 229.8 12.6 230.8 12.8 231.0 12.9 C 231.0 12.9 231.0 12.9 231.0 12.9 Z M 178.5 140.0 C 178.5 140.2 180.4 140.1 179.9 140.3 C 178.9 140.3 178.0 140.3 177.1 140.4 C 176.8 140.2 177.2 140.1 178.5 140.0 C 178.5 140.0 178.5 140.0 178.5 140.0 Z M 274.0 124.1 C 276.8 123.5 279.4 122.1 278.6 122.6 C 279.7 122.5 277.0 123.9 277.1 123.6 C 276.7 123.5 271.9 124.9 274.0 124.1 C 274.0 124.1 274.0 124.1 274.0 124.1 Z M 87.5 128.6 C 90.4 129.6 90.0 128.7 91.9 129.5 C 91.2 129.4 90.9 129.4 90.6 129.4 C 91.1 129.5 91.9 129.7 91.8 129.7 C 90.4 129.5 88.6 129.1 87.5 128.6 C 87.5 128.6 87.5 128.6 87.5 128.6 Z M 133.6 8.7 C 134.1 8.7 134.4 8.6 134.3 8.5 C 136.6 8.4 136.5 8.2 137.9 8.2 C 138.0 8.5 136.1 8.6 134.4 8.7 C 134.3 8.7 133.7 8.8 133.6 8.7 C 133.6 8.7 133.6 8.7 133.6 8.7 Z M 196.8 8.8 C 196.8 8.6 195.4 8.5 197.5 8.6 C 199.9 9.0 197.8 9.1 195.3 9.1 C 195.3 9.2 195.3 9.3 195.3 9.4 C 196.3 9.4 196.9 9.5 197.5 9.6 C 197.9 9.3 199.4 10.0 203.1 10.1 C 201.4 10.1 203.2 10.6 201.0 10.3 C 201.6 10.5 200.0 10.4 200.2 10.6 C 201.2 10.6 203.6 10.8 203.1 10.4 C 204.3 10.5 205.3 10.7 205.9 10.8 C 206.8 11.1 203.6 10.6 204.5 11.0 C 205.2 11.0 205.3 11.1 205.9 11.2 C 206.0 11.1 205.8 10.9 206.6 11.0 C 208.8 11.3 206.2 11.2 209.4 11.6 C 209.6 11.5 208.6 11.3 208.7 11.2 C 210.2 11.2 210.1 11.4 211.5 11.4 C 211.8 11.6 210.5 11.5 211.5 11.7 C 212.4 11.4 214.4 12.2 216.4 12.1 C 215.1 11.5 216.7 12.3 218.5 12.0 C 218.9 12.2 217.6 12.4 219.1 12.6 C 218.7 11.9 224.9 12.9 219.9 11.7 C 222.6 12.1 223.5 11.7 221.4 11.3 C 226.0 12.1 224.6 11.6 226.3 11.8 C 228.0 12.1 225.3 11.8 226.2 12.1 C 224.4 11.8 224.8 12.0 223.5 11.7 C 223.5 11.8 223.1 11.8 222.7 11.8 C 224.6 11.9 226.8 12.6 225.4 12.7 C 224.5 12.5 225.4 12.4 224.1 12.2 C 224.5 12.6 222.8 11.9 222.7 12.2 C 223.5 12.6 220.8 12.5 223.3 12.9 C 223.4 12.8 223.4 12.6 223.4 12.5 C 224.1 12.6 224.7 12.7 225.4 12.8 C 226.0 13.1 225.5 13.2 226.1 13.4 C 227.2 13.6 227.8 13.6 228.1 13.5 C 226.8 13.3 225.1 12.8 227.5 13.1 C 226.5 13.4 230.7 13.7 228.8 13.7 C 231.3 14.3 232.6 14.1 232.8 14.5 C 234.1 14.7 233.3 14.3 234.9 14.6 C 237.3 15.2 236.9 14.8 240.2 15.7 C 240.6 15.3 240.5 15.8 241.5 16.0 C 241.5 15.9 241.6 15.7 241.6 15.6 C 242.7 16.1 245.3 16.7 248.1 17.1 C 248.7 17.3 248.2 17.4 250.0 17.7 C 251.9 17.9 254.1 18.8 256.4 19.0 C 256.5 19.2 258.0 19.6 258.8 19.7 C 259.2 19.9 258.0 19.9 259.4 20.3 C 260.4 20.3 258.8 19.8 260.7 20.2 C 260.5 20.4 262.6 20.6 262.6 20.8 C 261.9 20.7 261.3 20.6 260.6 20.6 C 261.5 20.8 261.2 20.9 261.8 21.1 C 261.8 20.7 263.2 21.4 263.7 21.6 C 263.7 21.4 263.9 21.4 264.4 21.5 C 265.4 21.8 266.3 22.0 266.8 22.1 C 268.1 22.6 266.0 22.1 267.3 22.5 C 268.2 22.1 269.3 23.2 272.2 23.7 C 272.8 24.1 273.9 24.6 275.6 25.3 C 275.8 25.1 273.9 24.6 273.9 24.4 C 276.5 25.4 273.5 24.1 275.2 24.7 C 277.0 25.4 278.4 25.9 279.9 26.5 C 281.3 27.1 282.6 27.7 285.5 29.0 C 285.5 28.8 290.1 30.6 290.0 30.7 C 288.8 30.2 292.2 32.0 294.0 32.9 C 294.6 32.8 297.4 33.8 297.6 33.7 C 298.2 34.2 298.0 34.1 298.1 34.6 C 300.9 36.2 302.5 36.7 303.9 38.1 C 303.8 37.8 305.1 38.5 306.1 39.1 C 305.7 39.1 305.1 38.8 304.5 38.6 C 305.8 39.4 305.9 39.6 307.1 40.4 C 308.6 40.6 309.9 42.6 311.1 42.6 C 312.8 43.9 312.4 43.9 313.8 45.1 C 313.9 44.9 314.1 44.9 314.6 45.2 C 313.6 44.5 312.7 44.1 312.3 43.4 C 314.6 45.1 308.4 39.6 312.3 42.2 C 312.4 42.4 311.9 42.3 312.7 42.9 C 314.9 44.5 313.8 43.3 312.9 42.7 C 314.4 43.7 315.8 44.9 314.8 43.8 C 318.0 46.3 315.9 44.9 316.9 45.8 C 322.2 50.3 327.6 56.5 330.1 63.6 C 330.5 63.8 331.4 67.6 331.4 68.9 C 332.1 70.9 332.3 73.0 332.0 73.7 C 332.3 74.0 331.8 76.1 332.0 76.3 C 332.1 75.5 332.2 74.9 332.2 75.8 C 332.0 78.7 330.8 83.1 330.4 84.8 C 329.7 85.7 329.0 87.6 328.5 88.9 C 328.3 89.1 328.8 88.0 328.3 88.8 C 328.3 89.1 327.0 91.8 326.4 92.4 C 327.0 91.6 327.2 90.6 326.5 91.7 C 326.6 91.8 325.7 93.1 326.1 92.9 C 324.8 94.5 324.2 95.6 323.0 96.8 C 323.9 95.7 324.3 95.0 324.3 94.7 C 323.7 95.7 323.2 96.5 322.4 97.1 C 322.8 97.1 321.4 98.5 320.0 100.1 C 319.5 100.5 319.1 100.7 317.8 101.9 C 317.3 102.6 320.0 100.2 318.6 101.6 C 318.5 101.5 317.0 102.7 317.6 102.6 C 315.7 104.1 314.8 105.1 313.1 106.1 C 315.2 104.6 313.4 105.5 312.9 105.9 C 312.4 106.2 311.7 106.8 311.8 106.8 C 311.8 106.9 312.9 106.1 313.0 106.1 C 311.5 107.1 311.4 107.7 310.7 107.9 C 311.3 107.5 311.4 107.3 310.6 107.8 C 310.6 108.3 305.9 111.1 307.4 109.9 C 307.4 110.0 309.2 108.8 309.3 108.6 C 308.8 108.8 306.1 110.7 306.6 110.1 C 308.1 109.1 308.1 109.3 309.8 108.0 C 309.9 107.8 310.9 107.0 311.5 106.4 C 308.8 108.4 308.3 109.1 307.7 109.1 C 306.5 110.0 307.4 109.7 305.2 111.0 C 302.0 112.9 304.5 111.1 303.6 111.5 C 300.9 113.4 301.9 113.1 303.3 112.6 C 301.0 113.9 300.3 114.5 297.3 116.0 C 297.4 115.8 297.7 115.5 298.7 114.9 C 298.9 114.9 301.4 113.7 301.1 113.7 C 300.7 113.5 298.7 114.5 295.4 116.1 C 296.3 116.0 296.4 115.8 293.0 117.4 C 293.7 117.5 291.4 118.1 291.4 118.4 C 291.6 118.4 292.8 117.8 293.9 117.2 C 293.9 117.4 293.6 117.7 292.5 118.3 C 291.7 118.5 291.2 118.9 289.0 119.8 C 288.8 119.7 290.3 119.0 290.5 118.7 C 289.4 119.2 289.2 119.4 288.0 120.0 C 286.9 120.2 286.8 119.9 286.8 119.5 C 288.1 118.9 290.2 118.0 288.5 118.6 C 293.5 116.3 288.4 119.0 290.3 118.2 C 292.2 116.9 291.3 117.9 294.4 116.3 C 295.4 115.8 295.6 115.6 296.0 115.3 C 295.7 115.4 293.9 116.1 295.8 115.0 C 296.4 114.9 297.5 114.5 299.1 113.7 C 299.0 113.6 295.8 115.2 299.0 113.5 C 300.5 112.7 299.3 113.7 301.3 112.5 C 301.3 112.4 301.8 112.1 302.0 112.0 C 299.0 113.7 302.4 111.5 300.4 112.5 C 302.9 110.9 301.0 112.5 302.6 111.5 C 302.6 111.3 305.4 110.0 305.3 109.7 C 304.4 110.4 302.3 111.6 302.4 111.2 C 304.3 110.2 311.9 104.7 309.2 107.1 C 310.2 106.2 314.9 102.0 314.7 102.5 C 313.3 103.6 313.4 103.7 313.3 104.0 C 315.9 101.6 317.3 100.6 319.4 97.8 C 316.8 100.5 318.5 98.2 316.7 99.7 C 316.0 100.4 314.9 101.3 314.8 101.5 C 315.3 101.4 316.4 100.2 316.8 99.7 C 316.9 99.9 317.1 100.0 317.2 100.2 C 313.9 103.0 312.0 104.7 310.1 105.9 C 311.7 104.8 306.9 107.8 308.7 106.5 C 309.6 106.1 311.5 104.7 313.0 103.6 C 312.9 103.5 312.8 103.5 312.8 103.4 C 313.4 102.9 314.3 102.2 314.3 102.0 C 312.5 103.7 311.2 104.3 309.9 105.6 C 309.8 105.5 309.8 105.5 309.8 105.4 C 309.4 105.7 309.1 105.9 309.1 105.8 C 309.8 105.3 310.8 104.6 310.9 104.4 C 309.3 105.5 308.9 105.5 307.1 106.8 C 307.3 106.2 304.8 107.6 307.3 105.7 C 307.9 105.6 309.3 104.7 309.3 104.9 C 310.1 104.4 311.5 103.2 312.1 102.6 C 311.4 103.0 309.9 104.1 309.6 103.9 C 310.8 103.0 311.6 102.2 312.4 101.9 C 310.2 103.8 313.8 101.0 314.8 100.5 C 314.5 100.6 313.9 101.0 313.5 101.1 C 315.2 99.7 316.1 99.1 315.9 98.8 C 317.7 96.9 317.5 97.5 318.6 96.3 C 317.6 96.9 319.3 95.3 318.3 95.9 C 320.2 93.8 319.1 95.5 319.7 94.8 C 320.3 94.1 320.3 94.0 320.7 93.3 C 321.6 92.5 323.0 90.5 323.4 90.4 C 323.9 89.6 324.1 89.5 324.6 88.6 C 324.6 88.4 324.7 88.0 324.9 87.6 C 325.0 87.5 325.4 86.9 325.4 86.7 C 323.9 88.9 324.3 88.2 322.5 90.5 C 322.5 90.8 322.2 91.1 322.7 90.6 C 321.6 92.4 321.1 92.7 319.9 94.2 C 319.6 94.2 319.1 94.3 318.1 95.8 C 318.2 95.3 317.8 95.6 318.2 95.0 C 319.0 94.4 319.8 93.5 320.7 92.6 C 320.7 92.4 320.4 92.5 320.8 92.0 C 321.3 91.6 321.9 90.9 322.2 90.2 C 322.3 90.3 322.2 90.6 322.1 90.9 C 323.7 88.7 322.8 89.3 323.9 87.7 C 323.7 87.9 323.0 88.9 323.4 88.0 C 324.2 86.4 324.5 86.1 324.9 85.4 C 324.9 85.2 324.8 85.3 325.0 84.8 C 325.6 83.8 324.3 87.5 325.5 85.6 C 325.3 85.4 326.2 83.6 326.4 83.3 C 326.4 84.0 325.7 85.0 325.8 85.2 C 327.3 81.7 326.4 85.3 327.6 81.7 C 327.5 81.6 327.4 81.6 327.3 81.6 C 326.9 83.0 326.6 83.0 326.4 82.8 C 326.0 84.1 325.5 84.4 325.2 85.5 C 325.0 84.9 325.7 84.5 326.1 83.2 C 325.9 83.2 325.4 84.3 325.2 84.4 C 326.5 81.6 326.4 81.0 327.2 78.3 C 326.8 78.9 327.3 76.8 327.1 76.9 C 326.9 79.3 326.3 78.2 326.1 78.5 C 325.9 80.1 326.5 79.5 326.4 80.4 C 326.1 80.8 326.0 80.5 325.7 80.2 C 326.1 78.9 326.0 79.1 326.1 78.1 C 326.4 77.2 326.9 76.5 326.9 77.8 C 326.9 77.5 326.9 75.7 327.1 75.6 C 327.0 77.3 327.3 75.4 327.3 76.4 C 327.6 75.1 327.2 72.8 327.2 71.1 C 327.1 71.3 326.9 70.7 326.8 70.7 C 327.3 72.3 326.8 72.7 326.8 74.2 C 326.8 73.6 326.6 74.0 326.6 74.3 C 326.7 72.7 326.4 71.9 326.4 70.8 C 326.3 70.8 326.3 70.8 326.2 70.8 C 326.1 69.0 326.0 69.2 325.4 67.8 C 325.4 67.3 326.0 67.9 326.3 68.0 C 326.0 67.4 325.2 64.8 325.5 66.4 C 324.9 64.9 325.4 65.1 324.7 63.6 C 324.4 63.7 325.1 65.1 324.5 64.7 C 323.9 63.3 324.6 64.0 323.8 62.9 C 324.0 62.8 324.2 62.7 323.5 61.5 C 323.8 62.4 323.3 61.4 323.0 61.1 C 323.3 61.7 323.5 62.2 323.6 62.5 C 322.5 60.3 322.2 59.9 320.9 58.2 C 321.6 58.7 320.9 57.6 321.9 58.8 C 321.0 57.7 320.2 56.2 319.5 55.7 C 320.0 56.4 320.9 57.5 321.1 58.0 C 318.5 54.6 316.5 53.0 313.4 49.7 C 314.0 50.2 314.8 51.0 314.9 51.0 C 314.6 50.6 314.0 50.1 314.0 50.0 C 315.2 51.1 316.2 52.1 316.8 52.6 C 317.6 53.6 316.1 52.2 317.0 53.2 C 317.3 53.3 318.9 55.2 318.5 54.3 C 316.8 52.8 315.4 51.0 314.8 50.1 C 312.9 48.8 314.5 50.3 312.3 49.0 C 312.4 48.9 312.0 48.5 311.5 48.0 C 311.8 48.7 309.5 46.6 309.2 46.4 C 310.3 47.0 313.8 49.7 312.3 48.0 C 312.7 49.2 308.1 44.6 308.8 45.7 C 306.4 44.0 307.4 44.3 305.8 43.6 C 305.8 43.5 306.1 43.5 305.4 43.0 C 304.6 42.5 304.3 42.4 304.0 42.3 C 307.7 44.9 306.4 44.4 308.6 46.1 C 308.2 45.8 307.9 45.5 307.9 45.7 C 307.9 45.7 307.8 45.7 307.3 45.3 C 307.3 44.9 305.4 44.1 305.0 43.5 C 305.7 44.0 306.4 44.5 306.3 44.2 C 303.2 42.2 304.1 42.3 299.3 39.4 C 300.7 40.3 298.8 39.3 297.0 38.4 C 294.6 37.0 295.8 37.2 292.6 35.6 C 292.6 36.4 289.3 34.0 285.0 32.5 C 285.3 32.5 284.1 31.8 282.6 31.2 C 281.2 30.6 280.5 30.3 280.1 30.3 C 280.0 30.2 278.8 29.7 277.9 29.4 C 277.7 29.2 278.8 29.5 278.0 29.2 C 277.2 29.0 277.8 29.5 276.8 29.1 C 275.6 28.6 275.9 28.4 274.1 27.8 C 274.0 28.0 275.0 28.3 274.0 28.1 C 272.4 27.4 270.9 26.9 272.2 27.6 C 269.8 26.9 271.1 26.8 268.8 26.1 C 269.5 26.4 269.4 26.5 268.2 26.1 C 267.4 25.7 267.3 25.6 267.1 25.4 C 266.3 25.4 266.6 25.5 264.7 24.8 C 264.6 24.9 264.6 25.0 264.6 25.1 C 263.7 24.8 262.4 24.5 262.2 24.3 C 263.8 24.9 263.4 24.5 264.1 24.6 C 262.5 24.1 259.3 23.0 261.7 23.9 C 259.3 23.4 260.6 23.4 258.7 22.9 C 259.8 23.5 258.7 23.0 256.8 22.5 C 256.9 22.9 255.5 22.2 254.3 21.9 C 254.4 22.2 254.1 22.2 253.0 21.9 C 253.1 21.8 252.4 21.6 251.1 21.3 C 251.1 21.4 253.7 22.2 251.1 21.6 C 249.9 21.2 250.0 20.9 248.0 20.4 C 247.6 20.1 249.8 20.7 249.4 20.3 C 247.7 20.2 247.2 19.9 244.9 19.3 C 245.7 20.0 239.9 18.9 242.7 19.7 C 241.9 19.5 240.7 19.6 240.1 19.2 C 241.0 19.4 239.5 18.8 239.6 18.8 C 238.4 18.6 235.7 18.0 235.6 18.1 C 238.2 18.5 238.1 18.8 238.8 19.1 C 235.2 18.5 231.9 17.8 232.3 17.6 C 232.2 17.7 231.7 17.6 231.6 17.7 C 232.9 17.8 233.7 18.4 232.2 18.2 C 232.5 18.0 231.4 17.7 230.3 17.5 C 230.2 17.7 225.3 16.6 226.2 17.0 C 228.2 17.1 229.7 17.8 228.2 17.7 C 227.0 17.3 224.3 16.7 224.9 16.6 C 224.2 16.6 223.5 16.6 222.8 16.5 C 222.2 16.7 223.7 16.9 223.4 17.0 C 222.4 16.9 220.9 16.7 220.7 16.6 C 223.4 16.9 219.3 16.2 222.2 16.5 C 220.4 16.2 220.0 16.0 218.7 15.8 C 218.7 15.9 218.2 15.9 218.0 15.9 C 219.3 15.9 220.4 16.2 220.1 16.4 C 217.6 16.1 218.0 15.9 216.0 15.6 C 215.3 15.7 212.5 15.7 211.1 15.4 C 213.8 15.7 210.9 15.3 212.5 15.3 C 215.0 15.8 215.7 15.6 216.7 15.5 C 215.6 15.2 213.5 14.9 213.2 15.2 C 214.6 15.3 214.6 15.2 215.3 15.2 C 215.2 15.4 214.8 15.5 213.9 15.4 C 212.8 15.1 210.2 15.0 211.9 14.8 C 210.1 14.8 208.2 14.4 206.3 14.4 C 208.4 14.6 209.8 14.8 210.4 15.1 C 208.7 15.0 207.1 14.6 207.0 14.7 C 207.2 15.0 209.9 15.2 210.4 15.4 C 208.2 15.4 205.0 14.4 207.6 15.2 C 206.4 15.0 204.7 14.9 204.2 14.7 C 205.7 14.8 204.1 14.4 203.5 14.3 C 202.2 14.2 201.1 14.1 200.6 14.2 C 202.6 14.2 204.1 14.7 202.7 14.6 C 202.4 14.4 202.0 14.6 201.4 14.6 C 201.3 14.4 199.0 14.3 198.6 14.2 C 198.7 14.3 199.7 14.4 199.9 14.5 C 198.6 14.5 196.7 14.7 195.8 14.3 C 196.6 14.4 197.7 14.5 197.8 14.4 C 194.2 13.8 193.1 13.4 188.7 13.0 C 189.3 13.0 189.5 13.0 189.4 12.9 C 186.6 12.7 184.9 12.6 185.2 12.4 C 183.5 12.4 182.6 12.5 181.7 12.6 C 183.5 12.8 184.1 12.6 185.2 12.8 C 184.5 12.8 186.6 13.3 187.3 13.5 C 190.4 13.4 190.5 13.8 193.6 13.9 C 192.7 14.1 195.9 14.1 195.0 14.3 C 192.1 13.7 189.4 13.8 185.2 13.5 C 185.7 13.3 186.2 13.2 184.5 13.0 C 181.8 12.8 183.1 13.2 180.9 13.1 C 180.0 12.8 181.3 12.8 180.2 12.7 C 179.4 12.8 177.3 12.7 176.7 12.5 C 179.6 12.6 176.1 12.3 178.1 12.2 C 177.1 12.2 176.5 12.1 175.9 12.1 C 178.7 12.4 173.0 12.4 175.2 12.6 C 171.2 12.7 174.9 12.0 171.7 12.0 C 173.3 12.2 171.2 12.3 168.8 12.3 C 168.2 12.0 165.7 12.0 163.8 11.9 C 164.8 12.1 165.6 12.1 163.8 12.2 C 164.8 12.3 166.4 12.3 167.3 12.2 C 167.3 12.3 167.7 12.4 168.1 12.4 C 165.7 12.5 166.7 12.6 166.0 12.7 C 165.3 12.6 163.5 12.6 163.1 12.5 C 163.1 12.6 162.5 12.6 162.4 12.7 C 165.4 12.6 161.9 13.0 163.8 13.0 C 165.1 13.0 164.3 12.8 166.0 12.8 C 167.6 13.1 164.6 13.1 163.8 13.4 C 165.2 13.5 166.9 13.2 167.4 13.5 C 165.5 13.8 162.6 13.6 160.3 13.6 C 160.4 13.9 156.3 13.6 156.0 14.0 C 155.7 14.0 155.2 13.9 154.6 13.9 C 153.9 14.1 153.2 13.8 152.5 13.9 C 152.4 14.0 152.6 14.1 153.2 14.2 C 150.3 14.1 149.6 14.2 146.2 14.5 C 145.6 14.4 145.0 14.3 144.7 14.1 C 145.5 14.0 146.3 13.9 146.8 13.8 C 142.1 14.1 145.2 14.6 141.9 14.4 C 142.0 14.5 144.3 14.6 142.6 14.8 C 139.6 14.7 135.5 15.4 135.6 14.7 C 133.0 14.7 131.3 15.3 130.0 15.1 C 129.2 15.2 128.9 15.3 128.6 15.5 C 129.4 15.5 130.5 15.5 131.4 15.6 C 133.0 15.3 133.7 15.4 132.1 15.2 C 134.4 15.0 135.1 15.1 136.3 15.1 C 133.1 15.6 130.2 15.6 130.1 16.0 C 129.0 16.0 128.2 15.9 127.3 15.8 C 127.0 16.0 123.4 16.6 123.1 16.3 C 125.6 16.1 128.0 15.5 125.8 15.6 C 120.0 16.5 116.6 16.5 111.6 17.6 C 111.4 17.5 111.8 17.2 110.9 17.4 C 110.9 17.5 110.7 17.6 110.2 17.8 C 108.7 18.0 107.7 18.1 105.6 18.5 C 105.7 18.2 105.3 18.1 104.2 18.3 C 103.6 18.6 101.6 19.5 100.3 19.7 C 101.6 19.4 99.9 19.4 99.0 19.6 C 99.8 19.8 93.2 20.6 95.1 20.5 C 92.5 21.1 91.3 21.2 91.3 21.1 C 90.3 21.4 89.7 21.6 88.8 21.9 C 88.1 21.7 83.8 23.0 83.1 23.0 C 84.7 22.8 84.9 22.3 83.7 22.7 C 82.9 23.1 79.0 24.3 78.3 24.5 C 78.5 24.3 78.7 24.0 80.6 23.4 C 77.4 24.2 77.5 24.6 76.5 25.2 C 76.5 24.8 75.1 25.5 74.7 25.7 C 73.7 25.8 74.7 25.6 74.6 25.4 C 73.5 25.7 73.0 25.7 71.6 26.1 C 72.1 26.3 70.5 26.7 69.9 26.8 C 69.7 27.0 69.0 27.4 67.7 27.9 C 69.3 26.9 60.4 30.0 62.6 29.5 C 60.9 30.4 60.7 29.9 58.6 30.8 C 58.3 31.1 57.0 31.5 58.2 31.2 C 57.4 31.6 56.5 31.9 56.1 32.0 C 55.7 32.1 55.3 32.2 53.7 33.0 C 55.2 32.6 50.4 34.3 51.3 34.4 C 49.8 34.6 47.5 36.3 44.9 37.2 C 44.9 37.3 44.3 37.7 44.2 37.8 C 43.8 38.1 47.2 36.4 45.1 37.6 C 42.4 38.8 43.8 38.0 43.4 38.0 C 36.6 41.8 29.8 46.4 25.2 50.5 C 25.8 50.1 25.8 50.2 24.9 51.1 C 23.3 52.0 19.1 57.2 18.7 58.1 C 18.1 58.4 16.7 61.2 16.3 61.6 C 16.6 61.1 17.0 59.9 16.3 61.0 C 16.2 61.9 15.5 62.7 15.3 63.8 C 14.7 64.2 13.8 67.5 13.9 65.9 C 13.7 66.5 13.5 66.9 13.4 67.2 C 13.6 67.3 13.4 68.0 13.9 66.9 C 12.8 69.7 12.9 70.5 12.6 72.7 C 12.7 73.1 12.9 71.4 12.9 72.7 C 12.8 72.7 12.8 72.7 12.7 72.7 C 12.7 73.2 12.8 73.4 12.7 73.6 C 12.5 73.5 12.6 72.7 12.3 72.7 C 12.3 73.8 12.0 74.5 12.3 74.9 C 12.3 73.4 12.7 74.4 12.5 75.4 C 12.3 74.5 12.9 78.9 13.3 80.3 C 13.2 81.0 13.0 78.8 12.8 79.0 C 13.3 81.6 13.3 81.4 13.7 81.6 C 14.0 83.0 14.0 83.6 14.9 85.2 C 15.3 86.2 14.5 84.7 14.9 85.8 C 15.3 86.3 15.5 86.5 16.0 87.4 C 16.9 90.1 21.8 95.2 24.1 98.4 C 23.1 97.2 24.6 98.5 26.2 100.0 C 26.2 100.1 25.9 100.0 26.5 100.6 C 26.5 100.4 27.1 100.8 28.2 101.7 C 28.3 101.8 28.0 101.8 28.6 102.3 C 29.3 102.4 30.5 103.8 31.5 104.3 C 31.8 104.9 29.4 102.9 29.1 102.9 C 31.8 105.3 32.6 105.4 35.0 107.1 C 33.7 106.3 35.8 107.9 36.2 108.2 C 35.7 107.6 37.8 108.8 36.5 107.8 C 37.4 108.4 39.0 109.3 39.1 109.5 C 38.6 109.2 37.7 108.6 37.7 108.7 C 39.0 109.4 40.5 110.6 41.2 110.8 C 40.3 110.2 39.8 109.9 39.9 109.7 C 40.3 109.8 40.7 110.0 41.5 110.4 C 39.1 109.8 45.4 112.8 45.8 112.9 C 46.2 113.5 46.6 113.7 46.3 113.7 C 49.1 115.2 48.8 114.7 50.5 115.4 C 49.9 115.5 49.2 115.4 51.9 116.7 C 51.5 116.2 54.8 117.7 53.9 116.9 C 61.1 119.9 60.8 120.1 63.6 121.0 C 63.7 121.0 62.9 120.6 63.7 120.9 C 65.0 121.5 66.1 122.0 67.0 122.4 C 67.8 122.5 66.8 122.1 67.6 122.3 C 69.7 123.2 69.1 123.3 70.9 124.1 C 73.3 124.7 72.4 124.6 74.0 124.8 C 73.3 124.5 72.6 124.2 73.4 124.4 C 74.8 125.1 75.3 125.5 75.7 125.7 C 74.6 125.4 73.8 125.1 73.3 124.9 C 72.9 124.9 71.5 124.5 72.6 125.0 C 71.1 124.5 69.5 123.9 67.3 123.2 C 68.0 123.7 65.5 122.6 66.1 123.1 C 68.5 123.9 69.0 124.2 71.3 124.9 C 70.9 124.5 73.3 125.4 73.7 125.6 C 73.8 125.4 75.4 126.0 75.0 125.7 C 76.9 126.2 76.8 126.3 78.6 126.8 C 78.7 126.9 78.4 127.0 79.1 127.2 C 79.9 127.1 80.4 127.6 81.0 127.8 C 80.6 127.4 83.3 128.3 83.6 128.1 C 82.8 127.9 81.8 127.7 81.7 127.6 C 84.7 128.4 82.4 127.5 81.8 127.2 C 81.9 127.3 80.7 127.3 80.5 127.1 C 83.1 127.6 77.1 125.7 79.4 126.4 C 81.3 127.0 81.2 126.8 83.1 127.4 C 85.3 128.4 82.5 127.9 84.7 128.9 C 86.2 129.0 87.2 129.3 87.3 129.1 C 87.6 129.3 88.0 129.4 88.5 129.6 C 89.2 129.6 86.7 128.9 88.6 129.3 C 89.6 129.6 88.4 129.7 90.4 130.1 C 91.4 130.1 88.0 129.3 89.9 129.6 C 91.8 130.5 89.5 129.4 91.8 129.9 C 92.0 130.0 92.3 130.1 93.1 130.3 C 93.2 130.4 92.8 130.5 93.7 130.7 C 94.2 130.4 94.5 131.1 96.2 131.4 C 97.2 131.3 94.5 130.8 95.0 130.7 C 96.9 131.4 98.2 131.3 98.9 131.5 C 97.3 131.4 101.4 132.2 101.5 132.4 C 101.1 132.1 101.9 132.4 104.3 132.5 C 104.3 133.0 107.0 133.2 107.5 133.6 C 107.8 133.5 108.5 133.6 108.8 133.5 C 108.1 133.4 107.3 133.2 107.6 133.1 C 108.2 133.2 108.9 133.4 109.6 133.5 C 110.7 133.8 107.7 133.9 112.2 134.5 C 111.7 134.1 113.6 134.4 114.9 134.5 C 114.8 134.2 113.1 134.2 113.0 134.0 C 114.5 134.1 116.1 134.5 117.0 134.8 C 119.7 135.0 122.8 135.6 126.7 135.9 C 127.5 136.2 123.4 135.7 125.9 136.2 C 127.0 136.3 126.5 136.0 128.0 136.2 C 126.5 137.1 138.5 137.4 139.2 137.9 C 139.7 137.8 143.1 138.1 142.8 137.8 C 140.5 137.9 138.9 137.4 137.8 137.2 C 135.7 137.1 139.7 137.6 137.8 137.5 C 137.6 137.3 134.7 137.2 135.0 137.0 C 138.0 137.3 133.4 136.6 135.7 136.6 C 138.5 136.9 144.1 137.0 142.8 137.2 C 142.8 137.2 141.6 137.0 141.4 137.1 C 144.6 137.5 146.5 137.4 147.8 137.3 C 149.2 137.6 154.9 137.5 153.5 137.6 C 153.9 137.8 150.1 137.4 150.6 137.6 C 156.5 138.0 156.7 137.8 160.6 138.1 C 159.3 137.7 164.7 137.7 164.2 137.8 C 164.2 138.1 165.4 138.3 167.7 138.0 C 167.4 138.3 168.6 138.3 169.9 138.4 C 170.5 138.2 168.9 138.2 169.1 138.0 C 170.3 138.0 171.6 138.0 172.8 138.0 C 172.8 138.1 172.6 138.2 173.5 138.2 C 174.8 138.1 179.6 137.8 179.2 137.9 C 177.2 138.3 182.5 138.1 179.2 138.4 C 180.1 138.4 180.2 138.5 181.3 138.4 C 181.3 138.3 181.3 138.2 181.3 138.1 C 184.0 138.0 182.7 138.4 184.9 138.4 C 185.1 138.3 186.1 138.2 186.4 138.1 C 185.5 138.1 185.4 138.2 184.2 138.2 C 185.5 137.8 181.8 138.1 182.0 137.8 C 184.5 137.7 184.5 138.0 185.6 138.0 C 188.7 137.7 187.3 137.9 190.6 137.8 C 190.6 137.7 189.7 137.7 189.9 137.6 C 193.9 137.5 193.5 138.0 196.3 137.6 C 195.6 137.7 193.2 138.0 194.9 138.0 C 196.8 137.7 197.3 137.4 199.8 137.2 C 199.9 137.3 199.7 137.4 200.5 137.4 C 201.6 137.2 201.6 137.0 202.6 136.8 C 202.8 136.9 204.2 136.7 204.7 136.6 C 205.6 136.8 204.4 136.9 205.5 136.9 C 207.5 136.7 208.6 136.0 210.3 135.9 C 210.2 136.3 212.1 136.0 213.8 135.7 C 214.1 136.0 217.7 135.5 220.0 135.3 C 219.5 135.1 221.9 134.9 221.3 134.7 C 220.2 134.8 219.6 134.9 219.3 134.8 C 222.0 134.4 222.8 134.8 224.8 134.1 C 225.8 134.1 227.1 134.1 228.9 133.9 C 229.0 133.7 225.7 134.1 227.5 133.8 C 227.6 133.9 228.2 133.7 228.8 133.6 C 228.6 133.9 230.1 133.7 230.9 133.7 C 232.5 133.3 235.8 133.0 234.2 133.0 C 236.7 132.5 235.2 133.2 237.0 132.9 C 236.0 132.7 239.2 132.1 237.6 132.2 C 240.1 131.7 240.0 132.1 238.9 132.4 C 241.3 132.1 241.7 131.7 242.9 131.6 C 241.8 131.6 245.2 130.8 243.5 131.3 C 243.0 131.7 245.6 130.9 246.1 131.0 C 245.3 131.0 246.5 130.7 244.8 130.9 C 246.5 130.5 249.0 129.9 250.6 129.8 C 252.7 129.1 254.6 128.6 253.8 129.1 C 255.7 128.5 255.0 128.7 257.0 128.3 C 256.9 128.2 256.4 128.3 256.2 128.3 C 258.9 127.6 258.4 127.9 261.9 126.9 C 261.6 127.3 263.7 126.7 264.5 126.7 C 263.0 127.1 261.9 127.3 260.7 127.6 C 260.5 127.8 261.7 127.5 260.8 127.8 C 260.6 127.8 260.1 127.9 259.5 128.0 C 261.8 127.6 256.7 129.2 258.3 128.5 C 258.3 128.5 258.5 128.6 258.9 128.4 C 258.5 128.3 258.5 128.4 258.8 128.0 C 257.7 128.4 256.7 128.3 256.3 128.7 C 256.4 128.8 257.5 128.5 257.7 128.5 C 254.9 129.4 256.7 128.4 254.5 129.1 C 254.1 129.5 255.3 129.2 255.8 129.2 C 253.8 129.8 252.0 130.2 251.4 130.2 C 249.5 130.7 251.5 130.3 250.2 130.8 C 249.5 130.8 249.5 130.6 248.2 130.9 C 246.8 131.4 249.0 130.9 247.6 131.3 C 246.0 131.5 248.6 130.7 246.2 131.2 C 246.8 131.4 244.0 131.6 244.3 131.8 C 245.7 131.4 245.7 131.8 245.0 131.7 C 241.7 132.1 239.7 133.4 236.4 133.4 C 236.4 133.5 235.9 133.6 235.8 133.7 C 238.2 133.4 241.7 132.7 242.5 133.0 C 244.4 132.5 244.1 132.3 244.4 132.2 C 246.6 132.0 246.5 132.1 245.2 132.7 C 241.5 133.6 239.8 133.7 237.2 134.1 C 235.9 134.5 237.4 134.1 237.9 134.2 C 230.0 135.4 236.1 135.0 233.3 135.4 C 233.4 135.3 232.8 135.3 232.0 135.4 C 232.0 135.5 230.8 135.7 230.6 135.8 C 231.1 135.7 231.4 135.7 231.3 135.9 C 229.3 136.3 230.1 135.9 229.9 135.8 C 231.4 135.5 232.4 135.3 232.6 135.1 C 230.6 135.6 229.1 135.6 227.9 136.1 C 225.9 136.0 228.7 135.2 227.7 135.1 C 228.0 134.9 226.5 135.9 225.1 136.3 C 222.6 136.6 222.6 136.9 220.3 137.2 C 219.7 137.0 222.6 136.8 222.3 136.6 C 221.7 136.7 221.5 136.6 220.9 136.7 C 219.3 136.9 219.5 137.1 218.2 137.4 C 217.5 137.2 217.1 137.4 216.2 137.6 C 214.6 137.7 217.0 137.3 215.4 137.5 C 213.7 137.6 212.5 138.1 212.0 138.1 C 211.8 138.0 212.1 137.9 211.2 137.9 C 209.3 138.3 208.8 138.4 211.3 138.3 C 209.1 138.5 208.1 138.6 208.5 138.9 C 211.8 138.6 212.6 138.4 214.1 138.6 C 214.7 138.2 215.7 138.3 216.9 138.2 C 216.1 137.9 218.4 138.1 219.0 137.7 C 218.2 137.8 217.4 137.9 216.9 137.8 C 220.3 137.5 220.3 137.5 223.0 136.7 C 223.1 136.8 223.4 136.8 223.7 136.9 C 222.9 137.1 220.4 137.4 220.4 137.6 C 222.3 137.6 223.0 137.1 225.2 137.1 C 226.1 136.7 223.4 137.0 225.2 136.7 C 226.1 136.8 227.2 136.7 228.6 136.6 C 230.1 136.3 230.8 136.1 232.0 135.8 C 232.1 135.9 232.3 136.0 233.4 135.7 C 233.3 135.7 232.2 135.8 233.3 135.5 C 236.9 135.2 239.3 135.0 242.8 134.1 C 241.5 134.3 238.7 134.6 240.1 134.3 C 241.6 134.2 243.7 133.5 245.3 133.3 C 245.9 133.3 243.4 133.7 244.1 133.9 C 245.6 133.6 246.6 133.4 247.3 133.3 C 247.3 133.2 249.1 132.8 248.6 132.7 C 247.3 133.0 247.0 133.3 246.7 133.3 C 247.6 132.4 251.5 132.5 253.8 131.9 C 255.3 131.4 252.6 131.9 254.4 131.4 C 255.5 131.0 256.2 131.4 254.5 132.0 C 253.3 132.1 252.9 132.6 252.5 132.4 C 252.1 132.5 251.3 132.7 251.3 132.7 C 252.2 132.6 252.0 132.7 252.6 132.7 C 251.4 132.9 251.3 133.4 250.1 133.4 C 250.8 133.2 251.1 133.1 251.4 133.0 C 247.9 133.9 246.8 133.9 244.8 134.2 C 245.9 134.1 244.7 134.3 244.9 134.5 C 246.4 134.1 249.3 133.6 247.5 134.1 C 246.3 134.1 245.5 135.0 244.3 135.0 C 245.2 134.8 245.0 134.6 245.5 134.5 C 244.2 134.7 244.2 134.5 242.8 134.8 C 238.6 136.0 235.2 136.0 228.1 137.7 C 225.6 138.0 230.4 137.2 230.1 137.0 C 229.4 137.1 229.2 137.1 228.7 137.2 C 228.7 137.5 227.4 137.4 226.7 137.7 C 226.8 137.5 223.5 138.2 221.8 138.2 C 221.8 138.3 222.0 138.4 221.2 138.5 C 216.1 138.9 206.8 140.3 202.9 140.3 C 203.0 140.5 201.3 140.7 200.8 140.8 C 198.3 141.0 199.4 140.7 195.8 141.2 C 194.0 141.4 196.1 141.0 196.5 140.9 C 191.1 141.4 186.3 141.3 182.8 141.7 C 181.1 141.9 182.8 141.6 179.3 141.6 C 179.2 142.0 173.6 141.5 172.8 141.9 C 170.6 142.0 166.7 141.5 168.4 141.9 C 165.5 141.9 167.4 141.5 166.2 141.5 C 164.2 141.5 166.9 142.1 164.8 142.1 C 165.0 141.9 163.3 142.0 161.9 141.7 C 163.6 141.8 164.6 141.7 164.8 141.6 C 163.4 141.7 163.5 141.5 161.2 141.5 C 159.6 141.6 154.7 141.7 153.3 141.3 C 153.2 141.4 153.7 141.5 154.0 141.5 C 152.6 141.5 150.9 141.2 151.1 141.5 C 147.9 141.4 146.5 141.0 144.7 141.1 C 143.3 141.1 145.2 140.9 141.1 140.6 C 141.0 140.9 133.8 140.3 131.9 139.9 C 131.8 140.2 131.4 139.8 130.5 139.7 C 130.4 139.8 130.6 140.0 129.7 139.9 C 129.6 139.8 129.0 139.8 128.4 139.7 C 128.9 139.4 125.8 139.6 125.6 139.3 C 126.2 139.3 126.2 139.1 125.6 139.0 C 125.4 139.3 122.5 138.5 122.8 138.8 C 123.4 138.9 125.4 139.1 124.8 139.3 C 122.1 139.0 123.2 138.8 121.4 138.6 C 121.5 138.7 122.6 138.9 121.4 138.8 C 119.5 138.5 121.2 138.8 120.0 138.4 C 119.0 138.3 117.2 138.3 116.5 138.2 C 116.7 138.2 116.1 138.0 115.8 137.9 C 112.3 137.3 104.3 136.3 101.0 135.3 C 100.7 135.3 100.0 135.2 100.2 135.4 C 98.2 134.9 98.3 135.0 96.3 134.5 C 96.3 134.6 96.3 134.7 96.2 134.8 C 93.6 134.4 96.1 134.4 94.3 134.1 C 94.0 134.6 93.3 133.7 91.7 133.3 C 91.5 133.4 90.8 133.3 91.0 133.5 C 88.5 132.9 88.7 132.6 86.6 132.2 C 87.1 132.4 87.3 133.2 87.0 133.4 C 86.6 133.2 86.0 132.9 85.1 132.7 C 86.3 132.7 85.8 131.7 82.8 131.2 C 84.4 131.5 85.0 131.8 84.6 131.9 C 82.3 131.3 81.6 130.9 79.6 130.4 C 79.3 130.6 80.6 131.0 80.1 131.1 C 79.6 131.0 79.3 131.0 79.4 131.1 C 77.4 130.5 77.4 130.3 75.1 129.8 C 75.1 129.6 75.6 129.8 76.4 130.1 C 76.3 129.8 76.4 129.7 77.7 130.0 C 77.8 130.2 77.0 130.3 78.9 130.7 C 78.9 130.6 79.0 130.4 79.0 130.3 C 77.6 129.9 74.4 128.8 74.1 128.8 C 74.7 129.1 75.8 129.5 75.2 129.6 C 72.9 128.8 72.3 128.3 70.5 127.6 C 67.2 126.6 61.6 124.6 62.1 125.2 C 60.3 124.4 60.9 124.6 59.3 124.0 C 59.7 124.4 57.4 123.3 57.5 123.6 C 59.5 124.3 58.9 124.1 60.9 124.8 C 60.8 124.9 60.4 124.9 59.6 124.7 C 59.6 124.5 58.8 124.2 57.4 123.7 C 57.6 123.8 58.8 124.5 57.3 124.0 C 57.2 123.9 56.9 123.7 56.3 123.5 C 56.3 123.3 56.4 123.2 56.4 123.1 C 57.2 123.3 58.2 123.6 58.7 123.7 C 58.2 123.5 58.1 123.4 57.6 123.2 C 57.4 123.2 57.1 123.1 56.1 122.7 C 55.0 122.3 54.0 121.8 53.9 121.9 C 55.4 122.5 56.3 123.0 54.7 122.4 C 54.4 122.2 52.0 121.1 51.1 120.9 C 54.1 122.3 52.9 121.8 54.5 122.8 C 50.9 121.3 51.5 121.2 47.6 119.5 C 47.6 119.3 47.6 119.1 48.7 119.5 C 46.4 117.9 40.8 115.5 39.1 114.5 C 40.3 115.2 41.7 115.7 40.0 114.7 C 39.9 114.8 38.6 114.0 38.4 114.0 C 37.6 114.0 39.0 115.1 40.2 116.1 C 38.8 115.3 38.4 115.2 37.2 114.4 C 36.8 114.1 38.3 114.5 36.7 113.5 C 36.2 113.7 33.7 111.8 33.1 111.7 C 34.1 112.3 34.8 112.9 33.6 112.2 C 33.9 112.2 31.7 110.9 31.7 110.7 C 33.5 111.8 34.1 111.9 35.3 112.6 C 33.9 111.7 36.5 113.1 34.1 111.6 C 32.9 111.0 32.2 110.9 29.9 109.2 C 29.0 108.6 30.0 108.9 28.8 108.1 C 29.0 108.5 26.5 106.8 28.1 107.7 C 27.3 107.1 26.8 106.7 26.4 106.3 C 27.4 107.4 21.9 103.2 22.6 104.0 C 22.8 103.8 22.7 103.3 22.6 103.0 C 21.4 102.4 20.4 101.2 18.1 98.8 C 18.0 99.1 17.8 98.4 16.8 97.4 C 16.6 97.3 17.3 98.3 16.6 97.6 C 15.7 96.3 15.7 96.2 15.6 95.9 C 14.9 95.0 14.5 94.3 14.2 93.9 C 14.1 93.9 14.2 94.2 14.3 94.5 C 12.1 91.0 10.9 89.3 9.7 86.3 C 10.1 87.6 10.6 87.7 10.2 86.7 C 9.9 86.1 9.6 85.5 9.4 85.2 C 9.4 86.0 9.4 85.7 8.9 84.1 C 8.4 82.8 8.7 84.8 8.4 83.7 C 8.2 82.5 8.5 83.2 8.4 82.6 C 8.2 82.0 8.1 81.5 8.0 80.9 C 8.1 82.0 7.7 80.9 7.5 79.9 C 7.9 80.6 7.8 80.1 7.4 78.2 C 7.6 78.0 7.7 79.0 7.7 78.2 C 7.7 77.8 7.2 76.3 7.4 75.0 C 7.4 75.4 7.5 75.6 7.5 75.5 C 7.3 74.1 7.7 73.0 7.9 71.8 C 7.6 73.0 7.5 72.3 7.3 72.8 C 7.6 71.6 7.5 70.0 8.0 69.0 C 7.6 70.9 8.4 69.2 8.7 68.1 C 8.5 67.7 8.2 69.7 8.0 69.0 C 7.9 68.4 8.6 67.1 8.5 66.4 C 8.4 66.4 8.4 67.2 8.2 67.4 C 8.4 66.4 8.0 67.7 8.2 66.8 C 8.6 66.4 8.4 65.7 8.6 65.2 C 8.8 64.5 9.7 63.2 9.8 62.6 C 9.7 62.6 9.3 63.5 9.2 63.6 C 10.2 60.6 11.0 59.9 12.2 57.3 C 12.5 57.0 12.9 56.6 13.4 55.8 C 13.3 55.8 13.5 55.3 13.9 54.7 C 14.8 53.7 15.7 52.7 16.9 51.4 C 16.9 51.8 16.4 52.5 18.0 50.7 C 18.0 50.5 17.3 51.3 17.9 50.6 C 17.9 50.6 18.3 50.2 18.4 50.0 C 18.3 50.0 18.3 50.0 18.2 49.9 C 17.8 50.5 17.3 50.9 16.9 51.4 C 16.9 51.3 16.6 51.3 16.3 51.7 C 18.0 49.4 18.3 49.9 19.5 48.4 C 20.0 48.4 20.5 48.0 19.5 49.4 C 20.7 48.1 21.5 47.2 21.7 46.7 C 20.1 48.2 20.4 47.5 19.9 47.8 C 20.9 46.9 20.8 46.8 21.3 46.3 C 22.5 45.4 20.3 47.7 22.7 45.7 C 20.7 47.0 24.0 44.2 25.3 43.3 C 25.0 43.4 24.5 43.7 25.1 43.1 C 28.5 40.2 28.7 41.1 30.8 39.2 C 30.7 39.5 31.7 38.7 32.2 38.5 C 30.3 39.9 29.9 40.2 29.1 40.8 C 29.3 40.8 29.9 40.5 30.5 40.1 C 30.4 40.0 30.9 39.6 31.7 39.1 C 32.2 38.6 31.8 38.5 33.3 37.3 C 33.5 37.3 33.4 37.5 34.2 37.0 C 34.8 36.4 33.7 37.7 37.2 35.6 C 36.5 35.8 36.1 35.9 36.3 35.6 C 37.9 34.5 37.6 34.8 39.9 33.5 C 41.0 33.3 38.5 34.8 38.0 35.3 C 39.6 34.4 40.8 33.4 42.5 32.7 C 41.2 33.3 42.4 32.4 43.9 31.5 C 45.3 30.9 44.0 31.9 45.8 31.1 C 47.1 30.3 47.7 29.8 46.4 30.3 C 49.5 28.9 48.7 29.0 51.4 27.8 C 51.6 27.9 50.8 28.3 49.8 28.7 C 50.0 28.7 49.7 28.9 50.7 28.5 C 51.6 28.0 53.0 27.3 54.5 26.6 C 56.0 26.0 57.0 25.5 57.6 25.2 C 60.3 24.6 63.1 23.0 65.8 22.3 C 64.8 22.9 69.3 21.2 70.6 21.0 C 71.4 20.7 73.8 19.4 72.9 19.9 C 73.3 20.2 74.8 19.5 76.1 19.3 C 76.1 19.2 76.1 19.1 76.1 19.0 C 78.8 18.2 79.5 18.3 80.5 18.2 C 83.8 17.1 87.7 16.5 92.0 15.3 C 93.1 15.3 94.1 15.1 96.7 14.7 C 96.5 14.5 98.6 14.0 100.6 13.7 C 100.1 13.5 101.9 13.3 101.9 13.1 C 100.1 13.4 100.7 13.0 99.8 13.1 C 102.2 12.9 103.2 12.2 105.1 12.1 C 102.9 12.6 102.2 13.1 101.9 13.5 C 104.7 12.9 106.1 12.8 106.7 12.9 C 106.9 12.7 106.5 12.6 105.9 12.6 C 106.8 12.4 107.8 12.3 108.6 12.1 C 108.9 12.2 107.7 12.5 108.7 12.4 C 109.3 12.2 110.0 12.0 110.7 11.8 C 111.5 11.9 109.6 12.2 109.4 12.3 C 113.1 11.9 111.4 11.6 113.4 11.2 C 113.9 11.3 113.8 11.6 115.5 11.4 C 116.2 11.1 116.3 10.9 118.2 10.6 C 119.5 10.5 118.2 11.0 119.6 10.8 C 119.8 10.7 120.4 10.7 121.1 10.6 C 121.0 10.5 121.6 10.4 122.4 10.2 C 122.6 10.3 124.0 10.1 124.5 10.0 C 124.6 10.1 126.9 10.1 127.3 9.9 C 127.3 9.8 126.1 10.0 125.9 9.9 C 127.5 9.7 128.6 9.6 129.4 9.4 C 130.0 9.9 132.5 9.2 135.8 9.2 C 137.8 8.8 135.3 8.8 137.9 8.5 C 139.4 8.5 137.6 8.7 137.9 8.9 C 138.3 8.9 140.7 8.9 140.8 8.7 C 140.8 8.6 139.5 8.7 139.4 8.7 C 141.2 8.3 141.2 8.6 142.2 8.6 C 142.1 8.4 143.3 8.3 143.6 8.1 C 148.7 7.6 148.7 8.1 150.8 8.2 C 150.8 8.1 152.1 8.1 152.2 8.0 C 150.7 8.1 148.8 8.0 150.8 7.9 C 150.5 8.0 153.5 7.7 153.7 7.7 C 153.3 7.5 151.4 7.7 152.2 7.4 C 154.9 7.2 153.8 7.7 155.8 7.4 C 156.1 7.6 154.9 7.6 154.4 7.7 C 155.2 7.7 156.4 7.6 156.6 7.7 C 155.5 7.8 155.5 8.0 155.1 8.2 C 156.5 7.9 159.0 8.0 157.3 7.8 C 160.1 7.8 162.9 7.5 160.9 7.4 C 163.2 7.2 161.9 7.6 163.8 7.4 C 163.5 7.7 163.0 7.8 164.5 8.0 C 164.8 7.8 166.0 7.8 165.9 7.6 C 169.4 7.5 170.3 7.8 171.7 8.0 C 170.5 7.7 172.2 8.0 173.9 7.7 C 174.9 7.9 173.9 8.2 176.7 8.1 C 173.7 7.7 180.2 8.1 178.9 7.7 C 182.5 7.9 182.4 7.9 186.1 8.1 C 185.8 8.3 184.9 8.4 183.3 8.3 C 184.4 8.2 180.1 8.0 180.4 8.2 C 180.4 8.2 180.4 8.3 180.4 8.3 C 183.1 8.4 184.9 8.5 186.1 8.7 C 186.7 8.5 187.9 8.5 187.5 8.2 C 190.1 8.6 192.9 8.3 194.0 8.7 C 193.1 8.6 192.3 8.6 192.6 8.8 C 193.6 8.8 194.9 8.8 194.7 8.6 C 192.6 8.4 192.2 8.3 191.2 8.4 C 192.1 8.3 189.1 8.0 191.2 8.0 C 191.1 8.4 195.5 8.1 194.1 8.3 C 191.7 8.3 196.6 8.7 196.8 8.8 C 196.8 8.8 196.8 8.8 196.8 8.8 Z M 243.5 134.6 C 245.4 134.1 243.0 134.4 241.5 134.7 C 241.9 134.7 242.2 134.8 242.2 134.9 C 242.8 134.7 243.3 134.6 243.5 134.6 C 243.5 134.6 243.5 134.6 243.5 134.6 Z M 221.4 134.8 C 220.7 135.2 224.1 134.6 225.5 134.4 C 225.1 134.4 224.6 134.4 225.5 134.3 C 224.0 134.3 223.5 134.8 221.4 134.8 C 221.4 134.8 221.4 134.8 221.4 134.8 Z M 142.7 138.2 C 143.3 138.2 144.7 138.2 144.8 138.3 C 145.6 138.4 145.4 138.2 145.6 138.1 C 147.2 138.2 145.1 138.5 147.7 138.5 C 148.7 138.1 143.3 137.7 142.7 138.2 C 142.7 138.2 142.7 138.2 142.7 138.2 Z M 169.5 11.5 C 170.5 11.7 168.1 11.9 168.8 12.1 C 172.8 11.9 169.7 11.6 175.2 11.7 C 174.9 11.7 174.4 11.6 174.5 11.5 C 171.9 11.6 171.7 11.8 172.4 11.3 C 171.2 11.3 170.9 11.8 169.5 11.5 C 169.5 11.5 169.5 11.5 169.5 11.5 Z M 220.1 15.8 C 219.7 15.7 219.4 15.6 219.4 15.5 C 217.8 15.4 218.2 15.5 216.0 15.2 C 216.2 15.6 218.3 15.8 220.1 15.8 C 220.1 15.8 220.1 15.8 220.1 15.8 Z M 326.1 69.5 C 326.2 69.8 326.2 70.1 326.3 70.4 C 326.4 70.1 326.9 70.9 326.5 69.4 C 326.4 69.3 326.4 69.6 326.5 69.9 C 326.4 69.6 326.2 68.9 326.1 69.1 C 326.2 69.4 326.1 69.5 326.1 69.5 C 326.1 69.5 326.1 69.5 326.1 69.5 Z M 308.3 105.9 C 310.5 104.0 304.4 107.6 308.3 105.9 C 308.3 105.9 308.3 105.9 308.3 105.9 C 308.3 105.9 308.3 105.9 308.3 105.9 Z M 314.7 104.5 C 314.8 104.6 315.3 104.1 315.2 104.1 C 317.1 102.6 315.4 104.2 316.5 103.4 C 317.8 102.1 315.5 103.7 317.2 102.1 C 316.7 102.3 315.8 103.6 314.7 104.5 C 314.7 104.5 314.7 104.5 314.7 104.5 Z M 28.3 41.1 C 26.7 42.4 26.4 43.0 26.3 43.4 C 27.4 42.5 28.3 41.9 28.8 41.7 C 30.8 40.0 27.2 42.6 26.9 42.8 C 27.0 42.5 28.5 41.3 28.3 41.1 C 28.3 41.1 28.3 41.1 28.3 41.1 Z M 23.2 45.3 C 22.7 45.9 21.8 46.8 21.9 47.0 C 22.8 46.2 23.0 46.1 23.1 46.2 C 23.8 45.4 22.7 46.1 23.2 45.3 C 23.2 45.3 23.2 45.3 23.2 45.3 Z M 33.7 37.9 C 32.8 38.4 33.3 38.4 33.2 38.5 C 34.4 37.7 34.7 37.7 36.0 36.9 C 36.0 36.8 35.9 36.8 35.9 36.7 C 34.8 37.3 34.7 37.5 33.8 38.0 C 33.8 38.0 33.7 37.9 33.7 37.9 C 33.7 37.9 33.7 37.9 33.7 37.9 Z M 19.0 49.8 C 16.6 52.3 16.1 53.7 15.2 55.6 C 16.4 53.7 17.5 51.7 18.8 50.5 C 20.2 48.9 18.2 50.9 18.2 50.8 C 18.2 50.7 18.7 50.2 19.0 49.8 C 19.0 49.8 19.0 49.8 19.0 49.8 Z M 7.9 73.4 C 7.7 73.9 8.0 75.0 8.1 76.6 C 8.1 76.3 8.2 76.0 8.3 76.0 C 8.3 73.8 7.8 75.1 7.9 73.4 C 7.9 73.4 7.9 73.4 7.9 73.4 Z M 10.5 86.5 C 11.1 87.9 10.4 85.8 10.8 86.4 C 10.2 84.9 9.7 83.3 9.5 83.4 C 10.1 85.0 10.3 85.3 10.5 86.5 C 10.5 86.5 10.5 86.5 10.5 86.5 Z M 16.0 95.6 C 17.2 97.0 15.7 94.8 16.4 95.3 C 16.0 94.7 16.0 94.9 15.9 94.9 C 15.6 94.5 15.3 94.1 14.8 93.4 C 15.1 94.0 16.4 95.6 16.0 95.6 C 16.0 95.6 16.0 95.6 16.0 95.6 Z M 78.1 19.5 C 77.1 19.9 77.4 20.0 75.2 20.6 C 78.6 19.6 76.9 20.9 81.5 19.5 C 80.7 19.6 81.2 19.4 81.4 19.4 C 83.2 18.8 79.8 19.7 81.3 19.0 C 80.1 19.4 80.9 19.5 79.6 19.8 C 78.2 20.0 77.4 20.1 78.1 19.5 C 78.1 19.5 78.1 19.5 78.1 19.5 Z M 81.5 19.7 C 82.8 19.5 82.7 19.0 83.4 19.1 C 84.0 18.9 83.8 18.9 84.0 18.8 C 83.5 18.9 83.4 18.9 83.3 18.8 C 82.2 19.2 81.2 19.6 81.5 19.7 C 81.5 19.7 81.5 19.7 81.5 19.7 Z M 70.0 23.1 C 71.9 22.4 72.6 22.4 73.5 21.9 C 74.3 22.0 74.8 21.3 76.0 21.3 C 78.0 20.6 76.5 21.0 75.9 21.0 C 77.8 20.3 76.4 21.1 78.4 20.4 C 78.7 20.1 76.2 20.9 76.4 20.5 C 74.9 20.9 75.0 21.1 74.0 21.5 C 73.3 21.7 73.5 21.5 73.4 21.4 C 71.7 22.0 71.8 21.8 70.4 22.3 C 70.1 22.6 70.7 22.5 72.3 21.9 C 70.7 22.5 70.0 22.9 68.1 23.4 C 69.4 22.7 63.5 24.7 64.1 24.9 C 65.7 24.4 65.1 24.3 65.7 24.1 C 67.9 23.6 69.1 23.1 70.0 23.1 C 70.0 23.1 70.0 23.1 70.0 23.1 Z M 34.8 38.1 C 34.2 38.4 33.7 38.7 32.8 39.3 C 32.6 39.2 33.8 38.4 32.6 39.0 C 31.2 39.9 30.9 40.2 30.1 40.9 C 30.6 40.6 33.7 38.9 32.2 40.0 C 32.7 39.8 33.7 39.2 34.9 38.4 C 33.3 39.0 37.0 37.1 38.5 36.2 C 38.2 36.0 41.2 34.8 42.2 34.0 C 41.2 34.3 38.2 36.2 37.0 37.0 C 37.6 36.6 33.2 38.6 34.8 38.1 C 34.8 38.1 34.8 38.1 34.8 38.1 Z M 86.5 18.3 C 86.9 18.1 88.3 17.7 87.2 18.0 C 87.7 17.7 88.9 17.6 88.3 17.4 C 89.0 17.2 89.7 17.0 90.3 16.9 C 90.1 17.1 88.3 17.4 89.0 17.5 C 90.3 17.1 89.8 17.3 91.6 16.9 C 90.7 17.4 91.7 17.1 91.1 17.6 C 91.6 17.4 93.2 17.0 93.0 16.9 C 95.5 16.4 92.4 17.3 95.7 16.6 C 95.6 16.8 93.3 17.3 92.4 17.4 C 92.1 17.7 96.5 16.6 99.0 16.2 C 96.7 16.4 98.4 15.8 99.5 15.4 C 100.3 15.3 99.5 15.6 100.9 15.5 C 102.0 15.3 102.6 15.0 102.9 15.1 C 103.8 14.9 103.4 14.8 103.5 14.6 C 105.1 14.4 104.0 14.9 106.2 14.5 C 104.5 14.4 106.4 14.0 109.5 13.6 C 109.3 13.5 108.3 13.7 108.2 13.6 C 108.6 13.3 110.4 13.4 110.9 13.4 C 112.0 13.1 111.3 13.1 110.2 13.3 C 110.9 13.1 111.5 12.9 112.3 12.8 C 108.9 13.3 103.5 14.2 97.4 15.1 C 98.6 15.1 97.3 15.4 95.5 15.7 C 95.2 15.6 95.9 15.4 96.8 15.2 C 94.6 15.4 94.8 16.0 91.6 16.5 C 89.8 16.8 93.5 15.9 91.5 16.2 C 90.3 16.5 89.6 16.9 88.9 16.8 C 86.9 17.4 86.4 17.8 83.3 18.6 C 85.1 18.3 86.0 18.6 87.8 18.0 C 87.8 18.0 87.0 18.2 86.5 18.3 C 86.5 18.3 86.5 18.3 86.5 18.3 Z M 23.2 46.3 C 22.3 47.1 21.9 47.6 21.7 47.7 C 20.2 49.2 22.0 47.7 22.4 47.5 C 23.0 46.8 23.2 46.5 23.2 46.3 C 23.2 46.3 23.2 46.3 23.2 46.3 Z M 151.9 140.8 C 154.6 141.0 154.0 140.7 156.2 140.7 C 154.5 140.6 154.1 140.4 151.2 140.3 C 151.0 140.5 151.0 140.7 151.9 140.8 C 151.9 140.8 151.9 140.8 151.9 140.8 Z M 28.9 41.9 C 30.2 40.6 27.3 43.5 27.2 43.3 C 25.7 44.7 28.8 42.2 27.5 43.6 C 28.8 42.4 29.8 41.9 31.6 40.5 C 31.5 40.4 29.9 41.4 28.5 42.5 C 28.2 42.6 29.0 42.0 28.9 41.9 C 28.9 41.9 28.9 41.9 28.9 41.9 Z M 124.3 137.9 C 122.4 137.9 125.9 138.5 127.0 138.8 C 127.1 138.5 126.6 138.4 124.3 137.9 C 124.3 137.9 124.3 137.9 124.3 137.9 Z M 170.6 140.8 C 171.7 140.5 167.4 140.8 168.4 140.5 C 167.2 140.5 167.0 140.5 167.0 140.6 C 166.3 140.6 164.3 140.6 164.8 140.4 C 164.5 140.2 168.1 140.5 167.0 140.2 C 168.1 140.1 168.2 140.2 169.1 140.3 C 167.0 140.2 168.0 140.5 170.6 140.6 C 170.6 140.4 169.4 140.4 170.6 140.3 C 170.7 140.4 172.1 140.5 172.0 140.9 C 174.3 140.9 172.9 140.5 175.6 140.5 C 175.4 140.3 173.7 140.3 172.7 140.2 C 173.0 140.0 175.5 140.4 174.9 140.1 C 175.4 140.3 177.0 140.3 177.1 140.6 C 175.0 140.7 173.7 140.9 172.0 141.0 C 173.6 141.2 175.8 140.6 178.5 140.8 C 178.2 140.6 179.8 140.6 179.2 140.4 C 181.3 140.4 180.4 140.7 179.9 140.8 C 180.5 140.9 184.6 140.7 184.3 140.5 C 184.6 140.7 189.5 140.4 189.2 140.1 C 190.7 140.2 192.9 139.7 193.6 140.0 C 194.4 139.9 196.1 139.8 197.9 139.7 C 198.3 139.4 195.2 139.7 195.0 139.5 C 194.4 139.4 198.3 139.4 197.8 139.2 C 197.8 139.1 197.8 139.1 197.8 139.0 C 196.4 139.2 194.9 139.4 193.5 139.6 C 192.5 139.6 193.8 139.4 193.5 139.3 C 192.6 139.5 188.0 140.1 187.8 139.6 C 184.8 139.9 182.6 139.9 181.3 140.1 C 179.5 140.1 182.4 139.9 181.3 139.8 C 175.9 140.3 169.3 139.9 164.9 140.2 C 163.9 140.2 164.2 140.0 164.1 139.9 C 157.9 140.0 163.2 140.4 158.3 140.2 C 158.3 139.9 160.6 140.0 160.5 139.8 C 158.8 139.8 158.4 139.9 156.2 139.8 C 156.2 139.9 156.2 140.0 156.2 140.1 C 154.3 140.0 155.1 139.8 154.1 139.6 C 151.8 139.6 152.3 139.8 151.2 139.4 C 149.1 139.4 147.0 139.4 144.8 139.1 C 143.3 139.2 146.0 139.8 148.3 139.9 C 148.2 140.0 147.6 139.9 147.6 140.0 C 144.9 139.7 144.5 139.2 140.5 138.8 C 143.6 139.3 138.9 138.8 138.4 138.6 C 136.7 138.5 138.0 138.9 139.1 139.0 C 138.8 139.1 137.8 138.9 137.7 138.8 C 137.5 139.1 141.3 139.6 145.4 139.7 C 143.5 140.0 148.3 139.9 146.2 140.3 C 149.5 140.4 146.7 139.9 150.4 140.2 C 150.1 140.0 149.4 139.9 149.0 139.8 C 151.9 139.9 151.0 140.2 154.1 140.3 C 154.6 140.1 152.6 140.0 152.6 139.9 C 155.9 140.2 156.9 140.4 159.1 140.7 C 159.5 140.5 159.0 140.3 162.7 140.5 C 162.7 140.6 162.7 140.6 162.7 140.7 C 160.9 140.6 160.5 141.1 164.8 141.1 C 165.1 140.9 163.8 140.9 162.7 140.9 C 163.2 140.8 164.6 140.7 166.2 140.7 C 167.1 140.8 168.1 140.9 166.9 140.9 C 167.7 141.1 168.3 140.7 170.6 140.8 C 170.6 140.8 170.6 140.8 170.6 140.8 Z M 8.7 70.8 C 8.7 71.2 8.6 71.6 8.6 72.4 C 8.8 72.8 8.8 71.3 9.0 71.4 C 9.1 70.3 8.7 71.1 8.7 70.8 C 8.7 70.8 8.7 70.8 8.7 70.8 Z M 14.5 56.6 C 14.2 56.6 14.0 57.5 13.2 58.6 C 13.2 59.0 14.0 57.6 14.1 57.7 C 15.0 56.4 13.5 57.9 14.5 56.6 C 14.5 56.6 14.5 56.6 14.5 56.6 Z M 11.2 62.6 C 10.7 63.0 11.0 63.2 11.5 62.1 C 11.6 62.2 11.5 62.5 11.3 63.2 C 11.9 62.6 11.7 61.9 12.4 60.7 C 12.0 61.1 11.6 61.7 11.2 62.6 C 11.2 62.6 11.2 62.6 11.2 62.6 Z M 10.3 64.6 C 10.2 65.4 9.8 65.9 9.6 67.2 C 9.9 66.9 10.7 64.1 10.8 63.6 C 10.8 63.1 9.7 66.1 10.3 64.6 C 10.3 64.6 10.3 64.6 10.3 64.6 Z M 97.2 133.2 C 97.9 133.3 97.8 133.2 97.9 133.2 C 99.9 134.0 102.8 134.4 100.4 134.3 C 102.6 134.5 104.6 135.2 106.4 135.6 C 108.0 135.9 107.2 135.5 108.5 135.7 C 110.4 136.1 107.4 135.7 107.8 135.8 C 108.1 136.1 108.8 135.8 111.2 136.3 C 110.6 135.8 113.2 136.7 112.6 136.1 C 113.9 136.5 114.3 136.4 116.0 136.7 C 115.8 136.5 114.2 136.2 114.0 136.0 C 113.2 135.6 113.0 136.1 114.6 136.3 C 113.7 136.4 111.3 135.7 110.6 135.7 C 109.8 135.3 112.8 136.0 112.0 135.6 C 111.4 135.6 110.7 135.5 110.6 135.6 C 109.6 135.4 109.0 135.2 108.6 135.0 C 109.2 135.1 109.3 135.1 109.2 135.2 C 110.5 135.4 108.1 134.6 110.7 135.0 C 110.2 134.9 109.1 134.7 109.3 134.6 C 108.6 134.3 109.2 135.2 106.6 134.5 C 104.8 134.4 110.8 135.5 109.2 135.7 C 105.4 135.0 107.6 135.0 104.6 134.4 C 104.6 134.5 104.6 134.6 103.8 134.5 C 103.9 134.6 105.1 134.8 105.8 134.9 C 105.7 135.0 104.6 134.8 103.8 134.7 C 103.9 134.7 104.5 134.9 104.5 134.9 C 102.0 134.4 102.3 133.9 104.6 134.2 C 104.6 134.0 101.5 133.5 100.6 133.4 C 101.4 133.7 100.5 133.5 101.2 133.9 C 101.8 134.0 101.7 133.9 101.9 133.9 C 103.1 134.2 102.0 134.1 101.9 134.1 C 100.5 133.8 100.6 133.6 99.2 133.5 C 99.6 133.5 99.9 133.5 99.9 133.4 C 99.3 133.3 98.6 133.2 97.9 133.0 C 98.0 133.2 97.1 133.0 97.2 133.2 C 97.2 133.2 97.2 133.2 97.2 133.2 Z M 132.7 139.1 C 135.0 139.4 133.8 139.1 132.7 139.0 C 133.2 138.9 134.0 139.0 134.8 139.0 C 134.1 138.9 133.5 138.9 131.3 138.6 C 133.3 138.5 131.3 137.8 127.8 137.5 C 126.8 137.8 129.7 138.2 128.5 138.4 C 131.1 138.5 132.4 138.8 132.7 139.1 C 132.7 139.1 132.7 139.1 132.7 139.1 Z M 22.4 47.5 C 21.4 48.4 20.5 49.4 19.6 50.3 C 19.9 50.4 22.9 47.6 22.4 47.5 C 22.4 47.5 22.4 47.5 22.4 47.5 Z M 115.0 12.7 C 115.6 12.6 115.6 12.6 115.7 12.6 C 117.7 12.3 114.7 12.6 115.7 12.2 C 114.9 12.4 114.3 12.5 113.6 12.6 C 113.5 12.7 116.4 12.4 114.3 12.8 C 114.4 12.8 115.0 12.7 115.0 12.7 C 115.0 12.7 115.0 12.7 115.0 12.7 Z M 9.1 69.8 C 9.1 70.8 9.4 70.2 9.1 72.4 C 9.4 71.6 9.4 71.1 9.5 69.9 C 9.4 69.8 9.3 69.8 9.1 69.8 C 9.1 69.8 9.1 69.8 9.1 69.8 Z M 87.4 131.4 C 89.0 132.1 89.5 131.6 92.6 132.5 C 91.1 131.8 89.3 131.8 87.4 131.4 C 87.4 131.4 87.4 131.4 87.4 131.4 Z M 203.5 138.8 C 202.5 138.8 203.8 138.7 202.0 138.7 C 201.1 138.9 200.7 139.1 199.2 139.2 C 201.3 139.3 204.8 138.7 206.3 139.0 C 208.0 138.8 207.9 138.5 208.4 138.3 C 207.6 138.4 207.1 138.4 207.0 138.4 C 206.0 138.8 204.7 138.3 203.5 138.8 C 203.5 138.8 203.5 138.8 203.5 138.8 Z M 123.6 137.7 C 122.4 137.4 124.5 137.6 125.0 137.5 C 126.0 137.6 125.6 137.8 125.7 137.9 C 127.0 138.0 127.3 138.0 127.1 137.7 C 124.8 137.4 122.0 137.1 123.7 136.9 C 121.5 136.6 122.7 137.1 121.6 137.0 C 120.4 136.7 121.5 136.8 121.6 136.5 C 121.1 136.5 119.4 136.6 119.6 136.3 C 116.2 136.1 117.6 136.7 120.1 137.5 C 122.3 137.5 119.8 137.1 123.6 137.7 C 123.6 137.7 123.6 137.7 123.6 137.7 Z M 39.0 112.8 C 39.2 113.0 40.5 113.7 40.5 113.8 C 42.2 114.5 43.7 115.0 45.4 115.6 C 45.2 115.3 42.9 114.4 43.8 115.0 C 43.2 114.5 41.7 113.6 40.9 113.0 C 39.4 112.1 38.7 112.3 38.7 111.8 C 37.2 111.1 38.0 111.6 35.8 110.2 C 39.2 112.6 34.6 109.6 34.2 109.7 C 36.2 110.9 38.0 112.0 37.9 111.6 C 39.3 112.6 41.0 113.6 41.3 114.0 C 41.1 114.0 39.9 113.3 39.0 112.8 C 39.0 112.8 39.0 112.8 39.0 112.8 Z M 48.7 117.0 C 48.0 116.8 47.4 116.5 46.3 116.0 C 46.9 116.3 47.1 116.5 46.9 116.6 C 49.0 117.6 49.6 117.7 50.2 118.3 C 52.2 119.2 49.8 117.7 52.9 119.2 C 52.7 119.0 51.2 118.4 51.2 118.3 C 50.9 118.3 49.6 117.8 48.7 117.0 C 48.7 117.0 48.7 117.0 48.7 117.0 Z M 69.1 125.6 C 70.7 126.1 68.4 125.2 69.2 125.3 C 68.8 125.2 65.9 124.1 66.4 124.1 C 65.7 123.5 62.5 123.0 63.0 122.8 C 62.3 122.5 62.5 122.7 62.3 122.8 C 64.3 123.5 64.3 123.6 62.8 123.1 C 63.0 123.3 64.2 123.7 65.1 124.0 C 65.2 123.9 64.5 123.6 64.6 123.5 C 66.3 124.3 67.6 124.9 69.1 125.6 C 69.1 125.6 69.1 125.6 69.1 125.6 Z M 192.4 9.9 C 190.8 9.7 189.7 9.7 188.9 9.8 C 189.3 9.9 190.2 9.8 191.0 9.9 C 191.2 10.0 190.5 10.0 189.6 9.9 C 190.4 10.2 193.4 10.2 192.4 9.9 C 192.4 9.9 192.4 9.9 192.4 9.9 Z M 178.1 9.3 C 176.5 9.3 175.4 9.3 175.2 9.4 C 175.9 9.6 175.7 9.3 176.7 9.4 C 177.3 9.4 177.8 9.5 178.1 9.6 C 178.8 9.6 178.7 9.5 178.9 9.5 C 179.4 9.5 179.5 9.5 179.6 9.6 C 181.5 9.4 177.3 9.6 178.1 9.3 C 178.1 9.3 178.1 9.3 178.1 9.3 Z M 59.4 122.0 C 59.0 121.7 58.7 121.4 57.3 120.9 C 57.5 121.1 56.1 120.5 54.7 119.9 C 56.7 121.0 57.5 121.2 59.4 122.0 C 59.4 122.0 59.4 122.0 59.4 122.0 Z M 91.1 17.8 C 89.1 18.0 89.4 18.3 86.7 18.8 C 86.7 18.9 86.7 19.0 86.7 19.1 C 88.3 18.5 89.1 18.4 91.1 17.8 C 91.1 17.8 91.1 17.8 91.1 17.8 Z M 327.2 87.6 C 327.1 87.4 326.4 88.9 326.3 89.0 C 326.4 89.4 325.6 89.9 323.7 92.7 C 323.6 92.7 323.7 92.5 323.9 92.1 C 322.3 94.3 324.6 91.6 325.0 91.4 C 326.1 89.6 326.4 89.4 327.2 87.6 C 327.2 87.6 327.2 87.6 327.2 87.6 Z M 182.1 139.4 C 181.9 139.4 182.4 139.4 182.8 139.4 C 183.3 139.4 183.8 139.4 184.2 139.4 C 184.0 139.0 181.6 139.0 183.4 138.6 C 182.8 138.6 182.8 138.6 182.8 138.7 C 179.3 139.5 176.5 138.4 172.0 138.9 C 171.3 138.9 171.4 139.0 171.3 139.0 C 171.9 139.0 171.9 139.1 172.0 139.1 C 172.6 138.8 176.7 139.1 174.9 139.3 C 175.0 139.4 175.6 139.3 175.6 139.3 C 176.1 139.2 176.5 139.2 177.0 139.2 C 176.8 139.1 175.8 139.1 175.6 139.0 C 177.9 139.1 180.7 139.1 179.2 139.4 C 180.6 139.4 181.1 139.2 182.1 139.1 C 183.0 139.1 183.0 139.3 182.1 139.4 C 182.1 139.4 182.1 139.4 182.1 139.4 Z M 200.5 138.3 C 202.8 138.2 201.9 138.0 204.1 137.8 C 202.7 137.7 201.0 138.2 199.2 138.1 C 199.4 138.2 200.4 138.2 200.5 138.3 C 200.5 138.3 200.5 138.3 200.5 138.3 Z M 159.1 139.0 C 159.6 138.7 157.6 138.6 155.5 138.5 C 155.1 138.8 157.0 138.9 159.1 139.0 C 159.1 139.0 159.1 139.0 159.1 139.0 Z M 168.4 139.1 C 170.5 139.0 165.8 139.0 167.0 138.8 C 166.0 138.8 164.9 138.8 164.9 138.7 C 164.1 138.7 164.1 138.9 162.7 138.8 C 162.8 139.0 165.1 138.9 164.9 139.1 C 166.5 139.0 166.8 139.0 168.4 139.1 C 168.4 139.1 168.4 139.1 168.4 139.1 Z M 169.8 139.1 C 171.2 139.1 169.5 138.7 167.7 138.6 C 168.4 138.8 168.8 139.0 169.8 139.1 C 169.8 139.1 169.8 139.1 169.8 139.1 Z M 17.2 93.2 C 17.7 93.9 17.5 93.2 18.1 94.0 C 18.2 93.9 16.0 91.2 17.8 93.4 C 17.4 92.4 16.7 92.2 16.1 91.1 C 16.2 91.5 16.4 91.8 16.0 91.2 C 15.6 91.0 17.6 93.4 17.2 93.2 C 17.2 93.2 17.2 93.2 17.2 93.2 Z M 19.4 96.0 C 19.9 96.5 19.7 96.2 19.5 95.9 C 19.6 96.0 20.3 96.8 20.8 97.3 C 20.7 97.4 20.2 96.1 20.3 96.0 C 18.2 93.8 19.5 95.7 19.4 96.0 C 19.4 96.0 19.4 96.0 19.4 96.0 Z M 21.6 98.2 C 22.9 99.8 25.3 101.9 26.6 102.6 C 25.6 101.3 22.5 98.7 21.6 98.2 C 21.6 98.2 21.6 98.2 21.6 98.2 Z M 11.9 82.6 C 12.5 85.6 15.5 91.0 13.5 85.9 C 13.4 86.1 11.9 82.8 11.6 81.2 C 11.5 81.1 10.9 79.4 11.1 79.3 C 10.6 78.0 11.9 83.4 11.9 82.6 C 11.9 82.6 11.9 82.6 11.9 82.6 Z M 29.1 104.0 C 28.1 103.4 29.0 104.7 27.7 103.4 C 26.9 102.8 27.9 103.7 27.6 103.6 C 29.3 105.0 33.3 107.5 33.5 108.0 C 34.6 108.6 35.0 108.6 37.0 109.9 C 37.1 109.8 30.0 105.5 29.0 104.1 C 29.2 104.1 31.4 105.8 29.1 104.0 C 29.1 104.0 29.1 104.0 29.1 104.0 Z M 91.5 19.2 C 91.6 18.9 89.0 19.7 89.5 19.3 C 88.1 19.9 86.7 20.1 85.2 20.7 C 84.7 20.7 84.7 20.3 82.5 20.9 C 82.5 21.1 83.6 20.8 82.6 21.2 C 80.6 21.7 81.1 21.3 78.9 22.0 C 79.3 22.3 74.2 23.5 74.7 23.8 C 75.9 23.4 75.8 23.2 77.8 22.7 C 78.4 22.5 78.2 22.7 79.0 22.5 C 78.5 22.9 77.4 22.9 76.6 23.3 C 76.8 23.4 78.3 23.0 78.5 23.1 C 79.4 22.8 78.2 23.0 78.4 22.8 C 80.8 22.1 78.4 23.4 81.0 22.6 C 80.4 22.5 80.4 22.5 80.9 22.1 C 81.9 22.0 85.1 21.0 83.4 21.7 C 83.6 21.8 85.5 21.1 85.2 21.0 C 86.3 20.7 86.4 20.8 86.5 20.8 C 89.2 20.1 89.5 19.8 88.9 19.7 C 89.4 19.3 89.9 19.6 91.5 19.2 C 91.5 19.2 91.5 19.2 91.5 19.2 Z M 11.8 67.3 C 11.9 66.1 11.5 68.5 11.2 69.7 C 11.5 68.3 11.7 68.8 12.1 67.4 C 11.9 67.9 11.9 67.8 12.1 66.8 C 12.1 66.6 11.4 68.6 11.8 67.3 C 11.8 67.3 11.8 67.3 11.8 67.3 Z M 41.3 112.4 C 42.0 113.0 46.0 114.9 48.2 116.0 C 48.0 115.5 42.5 113.3 42.1 112.6 C 40.9 112.0 42.6 113.1 41.3 112.4 C 41.3 112.4 41.3 112.4 41.3 112.4 Z M 68.1 25.4 C 67.5 25.6 67.8 25.5 68.1 25.4 C 68.0 25.6 66.7 26.0 65.8 26.3 C 67.2 26.0 65.6 26.6 66.0 26.8 C 65.3 27.0 65.0 27.1 64.9 27.2 C 64.7 26.8 61.4 28.8 65.0 27.5 C 64.3 27.5 64.5 27.5 66.0 26.8 C 67.7 26.5 68.9 25.8 69.6 25.9 C 70.7 25.5 71.0 25.2 72.5 24.8 C 72.9 24.9 74.2 24.6 73.2 25.2 C 75.8 24.4 73.9 24.4 76.1 23.7 C 78.2 23.2 75.1 24.3 75.6 24.3 C 76.1 24.2 76.1 24.3 76.2 24.3 C 77.0 24.1 76.9 23.8 76.2 24.1 C 76.4 23.9 78.5 23.1 77.9 23.6 C 79.2 23.1 75.8 23.4 74.2 24.2 C 73.2 24.5 73.1 24.0 74.1 23.8 C 73.7 23.7 71.9 24.8 72.3 24.2 C 71.5 24.4 70.7 24.7 69.9 24.9 C 70.0 25.0 70.5 24.8 70.5 24.9 C 69.8 25.1 69.0 25.4 68.2 25.7 C 68.8 25.3 68.8 25.3 68.1 25.4 C 68.1 25.4 68.1 25.4 68.1 25.4 Z M 32.4 106.8 C 34.0 107.9 34.5 108.1 35.8 108.8 C 35.4 108.4 31.8 106.1 32.4 106.8 C 32.4 106.8 32.4 106.8 32.4 106.8 Z M 102.7 17.6 C 102.5 17.5 101.3 17.8 101.3 17.7 C 103.4 17.2 101.0 17.5 102.6 16.8 C 100.0 17.5 99.2 18.2 102.7 17.7 C 105.3 17.2 100.1 18.1 102.7 17.6 C 102.7 17.6 102.7 17.6 102.7 17.6 Z M 94.8 19.0 C 93.2 19.5 97.2 18.7 98.1 18.6 C 98.2 18.7 98.2 18.8 98.2 18.9 C 100.3 18.0 97.3 18.5 99.3 17.7 C 96.7 18.1 95.6 18.2 93.4 18.8 C 93.6 18.9 94.1 18.7 94.1 18.7 C 95.7 18.3 94.6 18.9 92.8 19.2 C 93.4 19.2 94.9 18.8 96.1 18.6 C 95.8 18.6 95.4 18.7 95.4 18.5 C 96.8 18.2 96.3 18.5 97.3 18.3 C 97.4 18.4 94.9 19.1 94.8 19.0 C 94.8 19.0 94.8 19.0 94.8 19.0 Z M 231.9 16.0 C 230.5 15.8 233.2 16.6 233.0 16.9 C 234.5 17.2 234.8 17.2 235.7 17.3 C 235.3 17.1 233.7 16.8 233.1 16.5 C 233.4 16.3 235.2 17.0 235.8 16.9 C 236.7 16.7 232.4 16.4 231.9 16.0 C 231.9 16.0 231.9 16.0 231.9 16.0 Z M 35.5 40.8 C 34.8 41.2 35.3 41.0 35.6 40.8 C 35.5 41.0 34.4 41.7 34.3 41.6 C 33.3 42.3 34.9 41.4 33.8 42.2 C 33.6 42.5 35.6 41.0 35.6 40.9 C 37.1 39.9 36.1 40.9 36.5 40.8 C 37.8 40.0 37.2 40.1 39.2 39.0 C 38.0 39.6 36.9 40.0 35.5 40.8 C 35.5 40.8 35.5 40.8 35.5 40.8 Z M 107.2 16.3 C 107.5 16.1 105.7 16.9 103.9 17.0 C 101.6 17.4 105.4 17.0 103.3 17.4 C 105.1 17.1 107.2 16.5 109.9 16.0 C 110.6 15.8 106.1 16.6 108.6 16.1 C 108.5 16.0 107.9 16.2 107.9 16.2 C 107.4 16.3 107.3 16.3 107.2 16.3 C 107.2 16.3 107.2 16.3 107.2 16.3 Z M 104.7 17.3 C 104.8 17.4 105.4 17.2 105.4 17.2 C 106.2 17.0 106.2 17.2 105.4 17.4 C 106.6 17.5 106.4 17.0 108.7 16.7 C 107.7 16.7 107.2 16.6 109.3 16.5 C 111.0 16.0 105.4 17.0 104.7 17.3 C 104.7 17.3 104.7 17.3 104.7 17.3 Z M 210.0 13.2 C 210.1 13.3 211.6 13.4 212.7 13.6 C 211.3 13.6 205.7 12.9 205.0 12.7 C 204.4 12.7 203.8 12.7 203.6 12.6 C 203.7 12.7 202.1 12.6 202.9 12.8 C 202.8 12.8 201.5 12.7 201.5 12.8 C 199.4 12.6 202.1 12.7 201.5 12.5 C 199.0 12.5 199.6 12.4 196.6 12.1 C 197.1 12.4 200.4 12.6 200.1 12.9 C 202.4 12.8 204.9 13.2 206.3 13.6 C 204.2 13.0 212.4 13.6 216.1 14.1 C 216.0 14.3 217.3 14.4 218.9 14.7 C 219.9 15.1 219.6 14.5 217.5 14.4 C 217.6 14.2 220.4 14.7 221.6 14.8 C 220.3 14.5 221.1 14.5 220.3 14.3 C 217.7 14.0 220.1 14.4 219.6 14.5 C 218.9 14.4 218.2 14.3 217.5 14.2 C 221.2 14.3 212.3 13.5 215.5 13.9 C 212.7 13.6 212.6 13.3 210.0 13.2 C 210.0 13.2 210.0 13.2 210.0 13.2 Z M 143.2 12.0 C 142.7 12.0 140.4 12.4 140.3 12.2 C 137.5 12.6 140.0 12.6 136.8 12.9 C 137.0 12.9 138.2 12.8 138.3 12.9 C 139.5 12.7 140.7 12.6 140.4 12.3 C 141.8 12.3 142.2 12.2 143.2 12.1 C 142.8 12.2 142.3 12.3 141.0 12.4 C 140.9 12.6 141.3 12.7 143.2 12.5 C 144.0 12.3 143.4 12.1 143.2 12.0 C 143.2 12.0 143.2 12.0 143.2 12.0 Z M 136.1 12.9 C 135.8 12.8 135.3 12.8 135.4 12.7 C 134.4 12.5 135.0 13.0 134.0 13.1 C 133.2 13.2 133.4 13.0 133.3 13.0 C 132.1 13.1 131.1 13.3 130.5 13.2 C 128.6 13.6 132.7 13.2 133.3 13.3 C 134.7 13.1 134.2 13.0 136.1 12.9 C 136.1 12.9 136.1 12.9 136.1 12.9 Z M 115.3 15.0 C 115.0 14.9 114.3 15.3 113.3 15.4 C 114.0 15.5 116.0 15.1 114.7 15.6 C 116.7 15.4 116.9 15.4 118.8 15.0 C 120.1 15.1 118.9 14.8 116.8 15.2 C 117.0 15.1 117.9 14.9 118.1 14.8 C 119.5 15.1 122.8 13.9 120.8 14.5 C 120.2 14.5 119.8 14.5 119.4 14.5 C 119.0 14.7 114.3 15.3 115.3 15.0 C 115.3 15.0 115.3 15.0 115.3 15.0 Z M 51.6 32.7 C 53.3 32.0 54.1 31.6 55.0 31.2 C 55.9 30.8 57.2 30.3 58.3 29.9 C 58.4 30.0 58.2 30.1 57.8 30.3 C 58.3 30.2 59.0 29.8 59.9 29.4 C 59.8 29.4 59.4 29.6 59.4 29.6 C 57.6 30.2 59.1 29.6 59.2 29.3 C 57.0 29.9 53.9 31.7 52.3 32.1 C 51.1 32.7 52.6 32.1 51.6 32.7 C 51.6 32.7 51.6 32.7 51.6 32.7 Z M 326.3 84.9 C 326.2 85.2 325.9 85.9 326.1 85.9 C 326.4 85.2 326.5 84.6 326.7 84.0 C 326.2 85.2 326.0 84.9 325.2 86.6 C 325.5 86.1 325.7 86.3 326.3 84.9 C 326.3 84.9 326.3 84.9 326.3 84.9 Z M 122.2 14.2 C 122.3 14.3 122.4 14.4 121.6 14.5 C 121.3 14.7 123.5 14.3 123.6 14.5 C 124.3 14.4 124.1 14.3 125.0 14.2 C 124.6 14.1 122.8 14.4 123.5 14.0 C 124.1 13.9 124.2 14.0 124.3 14.0 C 125.7 13.7 123.5 13.9 122.2 14.2 C 122.2 14.2 122.2 14.2 122.2 14.2 Z M 238.4 17.4 C 237.5 17.3 238.4 17.6 239.1 17.7 C 237.1 17.6 240.2 18.3 240.3 18.6 C 239.5 18.2 236.8 17.9 236.4 17.7 C 235.6 17.6 236.5 18.0 234.3 17.6 C 234.5 17.9 236.9 18.1 236.3 17.9 C 236.9 18.3 239.2 18.3 238.9 18.6 C 241.9 19.2 242.6 19.2 242.9 19.0 C 240.0 18.5 241.6 18.4 239.1 18.0 C 239.1 17.9 239.8 18.1 240.3 18.1 C 240.2 17.9 239.1 17.7 238.4 17.4 C 238.4 17.4 238.4 17.4 238.4 17.4 Z M 165.9 11.2 C 164.3 11.3 164.4 11.5 164.5 11.7 C 165.1 11.6 166.1 11.6 167.3 11.6 C 167.1 11.4 165.1 11.5 165.9 11.2 C 165.9 11.2 165.9 11.2 165.9 11.2 Z M 227.7 15.9 C 227.6 15.8 227.1 15.7 227.0 15.8 C 225.3 15.5 225.0 15.4 224.4 15.1 C 223.4 15.0 223.7 15.3 223.7 15.4 C 225.3 15.4 224.9 15.7 227.0 15.9 C 226.9 15.8 227.2 15.8 227.7 15.9 C 227.7 15.9 227.7 15.9 227.7 15.9 Z M 180.9 11.5 C 180.1 11.5 180.5 11.6 180.9 11.6 C 179.9 11.9 177.0 11.6 175.9 11.7 C 175.8 11.9 179.4 11.9 175.2 11.9 C 176.0 12.1 179.7 12.0 181.6 12.1 C 181.2 12.3 178.6 12.2 178.7 12.5 C 181.0 12.4 183.4 12.4 183.8 12.0 C 180.6 11.9 181.7 11.7 180.9 11.5 C 180.9 11.5 180.9 11.5 180.9 11.5 Z M 184.5 11.8 C 184.2 11.7 183.6 11.8 182.4 11.7 C 184.1 12.1 185.2 12.0 188.8 12.2 C 188.8 12.2 188.8 12.1 188.8 12.1 C 189.5 12.1 190.2 12.1 190.9 12.2 C 187.8 11.7 187.0 11.9 183.8 11.9 C 183.6 11.8 184.0 11.8 184.5 11.8 C 184.5 11.8 184.5 11.8 184.5 11.8 Z M 91.6 19.9 C 92.5 19.8 93.3 19.8 94.9 19.5 C 94.7 19.3 93.7 19.4 91.6 19.9 C 91.6 19.9 91.6 19.9 91.6 19.9 Z M 230.4 16.5 C 232.2 16.6 228.6 16.2 229.7 16.6 C 231.1 16.9 232.6 17.3 232.9 17.6 C 235.6 17.7 230.0 16.7 230.4 16.5 C 230.4 16.5 230.4 16.5 230.4 16.5 Z M 218.1 15.3 C 217.3 15.1 217.4 14.8 218.1 15.1 C 220.1 15.3 216.5 14.7 219.5 15.1 C 218.2 14.8 215.4 14.4 214.0 14.4 C 214.0 14.6 216.7 14.8 216.7 15.0 C 216.8 15.1 216.4 15.0 216.0 15.0 C 216.3 15.2 216.9 15.1 218.1 15.3 C 218.1 15.3 218.1 15.3 218.1 15.3 Z M 207.8 13.7 C 208.9 13.9 210.3 14.2 212.6 14.4 C 211.1 14.1 210.2 13.8 207.8 13.7 C 207.8 13.7 207.8 13.7 207.8 13.7 Z M 323.6 60.8 C 323.0 59.7 323.3 60.8 323.3 60.9 C 323.9 62.0 324.1 61.8 324.6 63.1 C 324.7 62.6 323.8 61.6 323.6 60.8 C 323.6 60.8 323.6 60.8 323.6 60.8 Z M 325.5 64.8 C 325.4 65.0 326.0 66.6 325.9 66.7 C 326.7 67.5 326.3 69.1 326.6 68.9 C 326.7 69.3 326.7 69.6 326.8 70.3 C 327.0 69.0 326.0 66.2 325.5 64.8 C 325.5 64.8 325.5 64.8 325.5 64.8 Z M 195.8 13.2 C 193.9 13.0 196.3 13.6 194.4 13.4 C 194.2 13.5 197.9 13.8 195.7 13.7 C 198.6 14.1 195.5 13.3 195.8 13.2 C 195.8 13.2 195.8 13.2 195.8 13.2 Z M 161.0 12.7 C 161.1 12.5 158.5 12.7 157.4 12.7 C 157.4 12.8 158.2 12.7 158.8 12.7 C 158.5 12.8 158.2 12.9 157.4 12.9 C 158.0 13.1 159.9 12.7 161.0 12.7 C 161.0 12.7 161.0 12.7 161.0 12.7 Z M 199.6 9.3 C 200.8 9.6 202.3 9.9 203.2 9.6 C 204.4 10.0 202.3 9.9 203.8 10.1 C 205.8 10.2 204.8 10.3 208.1 10.5 C 207.4 10.8 209.8 11.0 210.2 11.2 C 208.9 11.1 207.2 10.7 206.6 10.8 C 207.7 10.9 207.1 11.1 206.6 10.9 C 204.5 10.6 209.2 10.9 206.6 10.4 C 205.8 10.7 202.1 9.8 199.6 9.6 C 200.6 9.5 197.8 9.2 199.6 9.3 C 199.6 9.3 199.6 9.3 199.6 9.3 Z M 212.3 10.9 C 214.0 11.1 214.8 11.7 214.3 11.7 C 214.3 11.5 212.4 11.3 212.2 11.4 C 212.7 11.5 213.1 11.5 212.9 11.6 C 209.8 11.2 210.9 11.1 210.2 10.9 C 211.9 11.0 212.4 11.2 213.0 11.1 C 212.6 11.1 212.2 11.0 212.3 10.9 C 212.3 10.9 212.3 10.9 212.3 10.9 Z M 247.2 20.7 C 247.0 20.5 246.5 20.6 245.9 20.5 C 245.9 20.2 242.5 19.9 242.1 19.6 C 242.9 19.7 244.6 20.0 245.4 20.1 C 244.5 19.9 244.3 19.7 243.4 19.7 C 243.6 19.5 245.5 19.9 246.1 19.8 C 246.2 20.0 247.1 20.0 247.4 20.2 C 244.8 19.8 248.7 21.1 247.2 20.7 C 247.2 20.7 247.2 20.7 247.2 20.7 Z M 179.5 12.8 C 179.2 13.0 182.2 13.7 179.5 13.9 C 178.9 13.7 178.5 13.5 178.7 13.2 C 177.0 13.3 176.2 13.0 175.2 13.3 C 171.9 12.5 177.7 13.4 179.5 12.8 C 179.5 12.8 179.5 12.8 179.5 12.8 Z M 168.0 12.9 C 168.7 12.7 167.1 12.7 167.3 12.5 C 168.7 12.7 173.2 12.4 171.7 12.6 C 170.2 12.7 170.2 12.9 168.0 12.9 C 168.0 12.9 168.0 12.9 168.0 12.9 Z M 80.5 127.3 C 78.4 126.9 77.6 126.2 78.7 126.4 C 78.2 126.5 81.2 127.2 80.5 127.3 C 80.5 127.3 80.5 127.3 80.5 127.3 Z M 10.5 88.4 C 11.1 90.0 11.8 90.8 11.7 91.1 C 10.8 89.7 11.0 89.8 10.4 88.5 C 10.2 88.4 9.8 87.7 9.8 87.5 C 10.2 88.2 10.2 88.0 10.5 88.4 C 10.5 88.4 10.5 88.4 10.5 88.4 Z M 124.5 9.9 C 124.3 9.8 123.4 9.8 123.8 9.6 C 125.9 9.5 128.3 9.0 130.0 8.7 C 130.0 8.8 130.1 8.9 130.1 9.0 C 126.7 9.3 125.8 9.6 124.5 9.9 C 124.5 9.9 124.5 9.9 124.5 9.9 Z M 120.2 9.9 C 119.9 10.1 121.1 10.2 119.6 10.4 C 119.6 10.2 117.0 10.3 118.2 10.1 C 118.6 10.2 119.3 10.1 120.2 9.9 C 120.2 9.9 120.2 9.9 120.2 9.9 Z M 239.0 14.3 C 240.7 14.6 238.4 13.9 238.4 13.9 C 239.6 14.1 241.2 14.4 241.7 14.7 C 240.6 14.4 239.6 14.6 239.0 14.3 C 239.0 14.3 239.0 14.3 239.0 14.3 Z M 213.7 11.0 C 210.1 10.6 211.7 10.4 208.1 9.9 C 209.6 9.9 212.8 10.3 213.8 10.2 C 213.6 10.4 214.5 10.5 214.4 10.6 C 213.1 10.5 212.9 10.4 211.6 10.2 C 212.1 10.5 212.1 10.4 211.6 10.6 C 212.6 10.7 213.2 10.8 213.7 10.8 C 213.4 10.9 214.7 11.1 213.7 11.0 C 213.7 11.0 213.7 11.0 213.7 11.0 Z M 238.3 14.8 C 239.6 15.0 240.7 15.5 239.6 15.3 C 239.4 15.1 238.5 15.1 238.2 15.0 C 240.2 15.3 236.7 14.5 237.6 14.5 C 238.8 14.7 239.2 14.7 239.0 14.5 C 239.8 14.7 240.9 14.9 241.0 15.0 C 240.5 14.9 239.7 14.7 239.7 14.8 C 240.1 14.9 240.4 15.0 240.3 15.0 C 239.1 14.8 238.6 14.8 238.3 14.8 C 238.3 14.8 238.3 14.8 238.3 14.8 Z M 228.9 13.2 C 230.7 13.5 230.9 13.7 231.5 14.0 C 229.0 13.5 228.7 13.1 226.8 12.7 C 228.9 13.1 231.0 13.1 231.6 13.4 C 230.7 13.3 229.0 13.0 228.9 13.2 C 228.9 13.2 228.9 13.2 228.9 13.2 Z M 258.5 129.3 C 257.0 129.6 255.7 129.7 254.0 130.0 C 253.5 130.4 256.7 130.1 255.4 130.3 C 253.7 130.7 254.8 130.1 253.4 130.4 C 254.8 130.4 247.4 132.2 247.0 131.9 C 248.2 131.7 248.5 131.5 248.2 131.4 C 251.2 130.7 252.4 130.3 254.6 129.6 C 256.2 129.5 260.9 128.4 263.2 127.4 C 265.0 127.4 267.7 126.0 270.0 125.6 C 270.5 125.3 268.1 126.0 269.9 125.3 C 271.1 125.2 270.2 125.6 271.8 125.2 C 271.9 125.1 271.5 125.0 272.3 124.7 C 272.2 124.9 273.2 124.6 273.5 124.5 C 270.3 125.6 273.8 124.8 271.3 125.7 C 270.2 125.9 272.3 125.0 269.4 125.9 C 268.4 126.3 267.4 126.7 267.7 126.9 C 266.9 127.1 266.4 127.3 265.9 127.5 C 267.0 126.9 261.8 128.8 264.1 127.8 C 264.3 127.7 265.9 127.3 267.1 126.8 C 265.9 126.9 264.7 127.4 262.8 128.1 C 262.0 128.1 263.1 127.7 262.1 127.9 C 260.7 128.5 262.8 128.1 261.6 128.6 C 262.1 128.5 262.8 128.2 262.9 128.3 C 260.2 128.8 259.3 129.3 257.9 129.7 C 258.8 129.3 256.3 129.9 258.5 129.3 C 258.5 129.3 258.5 129.3 258.5 129.3 Z M 279.8 122.1 C 280.3 121.9 280.9 121.7 281.5 121.5 C 281.7 121.6 279.5 122.5 281.0 122.1 C 278.6 123.1 281.0 121.8 279.8 122.1 C 279.8 122.1 279.8 122.1 279.8 122.1 Z M 267.9 125.3 C 267.0 125.3 267.6 125.7 266.8 126.0 C 268.2 125.5 269.5 125.0 269.8 125.2 C 268.1 125.7 267.4 125.9 265.6 126.5 C 267.2 125.7 263.6 126.8 263.0 126.7 C 264.4 126.2 265.4 125.8 267.2 125.3 C 267.0 125.5 269.6 124.7 267.9 125.3 C 267.9 125.3 267.9 125.3 267.9 125.3 Z M 272.5 123.4 C 272.9 123.5 275.4 122.5 274.9 123.0 C 273.4 123.4 272.9 123.7 273.3 123.8 C 272.1 124.2 271.9 124.1 270.9 124.5 C 270.2 124.4 272.0 123.9 272.5 123.5 C 272.2 123.6 271.8 123.7 272.5 123.4 C 272.5 123.4 272.5 123.4 272.5 123.4 Z M 318.9 94.9 C 319.5 94.7 317.7 96.4 317.3 96.7 C 318.0 96.3 317.8 96.6 316.8 97.8 C 317.0 97.2 315.4 98.9 314.1 99.6 C 314.0 100.0 315.5 98.8 313.8 100.4 C 312.4 101.4 311.3 102.6 309.0 104.3 C 308.4 104.5 309.3 103.7 309.9 103.1 C 308.4 104.4 308.7 103.8 307.5 104.7 C 307.8 104.6 306.8 105.4 306.4 105.6 C 308.5 104.0 303.3 107.3 305.5 105.7 C 305.7 105.7 306.2 105.3 306.7 104.9 C 306.3 105.5 309.1 103.4 309.8 103.1 C 310.6 101.8 313.5 99.8 316.3 97.3 C 316.5 97.2 315.8 98.1 316.4 97.5 C 316.4 97.3 317.3 96.5 317.6 96.0 C 317.7 96.2 318.1 95.9 318.6 95.3 C 318.6 95.3 318.6 95.2 318.9 94.9 C 318.9 94.9 318.9 94.9 318.9 94.9 Z M 144.9 136.6 C 145.1 136.2 140.5 136.1 139.3 136.1 C 139.5 135.7 147.5 136.3 144.9 136.6 C 144.9 136.6 144.9 136.6 144.9 136.6 Z M 172.7 137.0 C 171.5 137.1 172.3 137.3 171.3 137.3 C 171.2 137.0 168.5 137.5 168.4 137.3 C 169.8 137.1 170.6 137.1 172.7 137.0 C 172.7 137.0 172.7 137.0 172.7 137.0 Z M 198.3 136.1 C 196.3 136.3 199.4 136.2 199.0 136.3 C 197.2 136.4 195.4 136.5 195.5 136.3 C 197.1 136.3 198.1 135.9 198.3 136.1 C 198.3 136.1 198.3 136.1 198.3 136.1 Z M 159.9 136.7 C 158.2 136.5 161.0 136.3 161.3 136.5 C 159.4 136.5 162.5 136.7 164.1 136.7 C 164.1 137.0 163.4 136.9 164.1 137.2 C 161.6 137.3 163.7 136.9 162.0 136.9 C 160.8 137.0 162.0 137.0 162.0 137.2 C 161.3 137.2 160.6 137.2 159.9 137.2 C 159.9 137.0 159.9 136.9 159.9 136.8 C 160.7 136.8 161.6 136.8 161.3 136.6 C 160.6 136.6 160.4 136.7 159.9 136.7 C 159.9 136.7 159.9 136.7 159.9 136.7 Z M 286.3 116.0 C 285.0 116.6 286.2 116.2 287.2 115.8 C 287.4 115.6 288.1 114.8 289.6 114.3 C 286.5 116.0 290.7 114.2 289.0 115.1 C 288.2 115.3 286.3 116.4 284.7 117.0 C 283.9 117.2 285.5 116.1 286.3 116.0 C 286.3 116.0 286.3 116.0 286.3 116.0 Z M 292.2 113.5 C 292.0 113.5 291.4 113.7 290.5 114.2 C 291.4 113.5 290.0 114.1 291.2 113.5 C 291.1 113.7 295.3 111.7 292.9 112.9 C 290.7 113.9 293.6 112.8 294.5 112.3 C 293.5 112.8 291.7 114.0 291.4 114.0 C 291.9 113.7 292.4 113.5 292.2 113.5 C 292.2 113.5 292.2 113.5 292.2 113.5 Z M 324.4 85.6 C 324.3 85.4 323.9 86.2 323.7 86.4 C 324.9 84.2 325.5 82.3 325.9 81.2 C 325.6 82.2 325.8 82.3 326.0 81.7 C 325.6 82.8 325.6 83.1 325.4 83.4 C 325.5 82.4 325.0 84.3 324.4 85.6 C 324.4 85.6 324.4 85.6 324.4 85.6 Z M 324.4 85.6 " fill="#000000"></path><image xlink:href="../../CEFA4209-80C9-472B-8D2B-058B96531B72/assets/431BD2BFE54A6EFCB4B133EE2A4ED9FC.png" width="209.00" height="56.00" transform="matrix(1.00, 0.00, -0.00, -1.00, 68.0, 92.0)"></image><g><clipPath id="clip-1156"><path d="M 10.7 10.4 L 329.4 10.4 L 329.4 138.8 L 10.7 138.8 Z M 10.7 10.4 "></path></clipPath><g clip-path="url(#clip-1156)"><text xml:space="preserve" font-family="Chalkduster" font-size="32.0" fill="#000000" transform="matrix(1.00, 0.00, -0.00, -1.00, 71.0, 60.0)">L</text><text xml:space="preserve" font-family="Chalkduster" font-size="32.0" fill="#000000" transform="matrix(1.00, 0.00, -0.00, -1.00, 91.3, 60.0)">i</text><text xml:space="preserve" font-family="Chalkduster" font-size="32.0" fill="#000000" transform="matrix(1.00, 0.00, -0.00, -1.00, 103.9, 60.0)">n</text><text xml:space="preserve" font-family="Chalkduster" font-size="32.0" fill="#000000" transform="matrix(1.00, 0.00, -0.00, -1.00, 127.4, 60.0)">k</text><text xml:space="preserve" font-family="Chalkduster" font-size="32.0" fill="#000000" transform="matrix(1.00, 0.00, -0.00, -1.00, 152.3, 60.0)"> </text><text xml:space="preserve" font-family="Chalkduster" font-size="32.0" fill="#000000" transform="matrix(1.00, 0.00, -0.00, -1.00, 168.2, 60.0)">S</text><text xml:space="preserve" font-family="Chalkduster" font-size="32.0" fill="#000000" transform="matrix(1.00, 0.00, -0.00, -1.00, 184.1, 60.0)">p</text><text xml:space="preserve" font-family="Chalkduster" font-size="32.0" fill="#000000" transform="matrix(1.00, 0.00, -0.00, -1.00, 204.2, 60.0)">e</text><text xml:space="preserve" font-family="Chalkduster" font-size="32.0" fill="#000000" transform="matrix(1.00, 0.00, -0.00, -1.00, 224.1, 60.0)">e</text><text xml:space="preserve" font-family="Chalkduster" font-size="32.0" fill="#000000" transform="matrix(1.00, 0.00, -0.00, -1.00, 244.9, 60.0)">d</text></g></g></g></svg>