<?xml version="1.0" encoding="UTF-8" standalone="no"?><svg xmlns="http://www.w3.org/2000/svg" xmlns:xlink="http://www.w3.org/1999/xlink" clip-rule="evenodd" stroke-miterlimit="4.00" viewBox="0 0 319 134"><desc>SVG generated by Keynote</desc><defs></defs><g transform="matrix(1.00, 0.00, -0.00, -1.00, 0.0, 134.0)"><image xlink:href="../../CEFA4209-80C9-472B-8D2B-058B96531B72/assets/3D04D10A705CD79169D4D2591639252F.png" width="316.00" height="130.00" transform="matrix(1.00, 0.00, -0.00, -1.00, 1.8, 132.2)" opacity="0.50"></image><g><clipPath id="clip-1143"><path d="M 265.3 106.8 C 323.5 84.8 323.5 49.2 265.3 27.2 C 207.1 5.3 112.7 5.3 54.4 27.2 C -3.8 49.2 -3.8 84.8 54.4 106.8 C 112.7 128.7 207.1 128.7 265.3 106.8 Z M 265.3 106.8 "></path></clipPath><g clip-path="url(#clip-1143)"><image xlink:href="../../CEFA4209-80C9-472B-8D2B-058B96531B72/assets/59DBD66EA15A3D40E065F836EF2595FD.jpeg" width="400.00" height="400.00" transform="matrix(1.00, 0.00, -0.00, -1.00, 10.8, 123.2)"></image></g></g><path d="M 82.1 15.0 C 81.7 15.2 81.1 15.3 80.3 15.5 C 80.7 15.5 81.0 15.5 81.0 15.6 C 81.6 15.4 82.6 15.2 84.0 14.9 C 83.9 14.8 83.2 15.0 82.7 15.1 C 82.1 15.2 82.2 15.1 82.1 15.0 C 82.1 15.0 82.1 15.0 82.1 15.0 Z M 70.1 115.3 C 68.9 115.0 70.1 115.6 70.6 115.7 C 70.7 115.7 70.7 115.7 71.2 115.8 C 71.2 116.0 70.2 115.8 69.4 115.6 C 66.3 114.7 68.7 114.9 70.1 115.3 C 70.1 115.3 70.1 115.3 70.1 115.3 Z M 241.0 117.4 C 243.5 116.8 240.7 117.2 240.3 117.3 C 241.5 116.9 240.4 116.8 242.0 116.4 C 242.3 116.4 242.9 116.3 243.2 116.4 C 242.5 116.6 241.5 116.8 241.4 116.9 C 242.4 116.7 243.6 116.3 243.8 116.4 C 241.8 117.0 243.5 116.7 243.9 116.8 C 242.1 117.2 241.6 117.6 241.0 117.4 C 241.0 117.4 241.0 117.4 241.0 117.4 Z M 285.6 33.7 C 286.4 34.2 287.1 34.6 286.8 34.6 C 285.9 34.1 285.4 33.7 284.9 33.4 C 284.7 33.4 284.9 33.6 284.1 33.2 C 283.2 32.5 283.9 32.5 284.4 32.6 C 284.4 32.9 287.4 34.5 285.6 33.7 C 285.6 33.7 285.6 33.7 285.6 33.7 Z M 215.1 12.5 C 212.8 12.0 215.0 12.8 212.6 12.3 C 212.7 12.1 212.3 11.8 213.9 12.1 C 214.1 12.2 215.0 12.3 215.1 12.5 C 215.1 12.5 215.1 12.5 215.1 12.5 Z M 168.8 124.4 C 168.8 124.6 170.6 124.5 170.2 124.7 C 169.3 124.7 168.5 124.8 167.5 124.8 C 167.3 124.6 167.7 124.5 168.8 124.4 C 168.8 124.4 168.8 124.4 168.8 124.4 Z M 257.2 110.5 C 259.8 109.9 262.2 108.7 261.5 109.1 C 262.5 109.1 260.0 110.4 260.0 110.1 C 259.7 109.9 255.3 111.1 257.2 110.5 C 257.2 110.5 257.2 110.5 257.2 110.5 Z M 84.4 114.6 C 87.2 115.4 86.7 114.6 88.5 115.4 C 87.9 115.2 87.6 115.2 87.3 115.3 C 87.8 115.4 88.5 115.5 88.5 115.6 C 87.1 115.3 85.5 115.1 84.4 114.6 C 84.4 114.6 84.4 114.6 84.4 114.6 Z M 124.9 9.0 C 125.4 8.9 125.7 8.9 125.6 8.8 C 127.7 8.7 127.6 8.5 128.9 8.5 C 129.0 8.8 127.2 8.9 125.6 8.9 C 125.6 9.0 125.1 9.1 124.9 9.0 C 124.9 9.0 124.9 9.0 124.9 9.0 Z M 183.5 9.0 C 183.4 8.8 182.2 8.7 184.1 8.8 C 186.3 9.2 184.3 9.3 182.1 9.3 C 182.1 9.4 182.1 9.5 182.1 9.6 C 183.0 9.7 183.5 9.7 184.1 9.8 C 184.5 9.5 185.9 10.2 189.3 10.2 C 187.7 10.3 189.4 10.7 187.3 10.4 C 187.9 10.7 186.4 10.6 186.6 10.8 C 187.5 10.7 189.8 10.9 189.3 10.6 C 190.4 10.6 191.3 10.7 191.9 10.8 C 192.7 11.2 189.8 10.7 190.6 11.1 C 191.2 11.1 191.4 11.2 191.9 11.2 C 192.0 11.2 191.8 11.0 192.5 11.1 C 194.6 11.3 192.1 11.3 195.1 11.6 C 195.3 11.5 194.4 11.4 194.5 11.2 C 195.8 11.2 195.8 11.4 197.1 11.4 C 197.3 11.6 196.1 11.5 197.1 11.6 C 197.9 11.3 199.8 12.1 201.6 12.0 C 200.4 11.4 201.9 12.1 203.6 11.8 C 204.0 12.0 202.7 12.2 204.2 12.4 C 203.7 11.7 209.5 12.6 204.9 11.5 C 207.4 11.8 208.2 11.4 206.3 11.1 C 210.5 11.8 209.2 11.3 210.8 11.5 C 212.4 11.7 209.9 11.5 210.8 11.8 C 209.0 11.5 209.4 11.7 208.2 11.4 C 208.2 11.5 207.9 11.6 207.5 11.6 C 209.3 11.6 211.3 12.3 210.0 12.4 C 209.1 12.2 210.0 12.1 208.8 11.9 C 209.2 12.3 207.6 11.7 207.5 11.9 C 208.2 12.3 205.7 12.3 208.1 12.6 C 208.1 12.5 208.1 12.4 208.1 12.2 C 208.7 12.3 209.4 12.4 210.0 12.5 C 210.5 12.8 210.0 12.9 210.6 13.0 C 211.6 13.2 212.2 13.2 212.5 13.1 C 211.2 12.9 209.7 12.5 211.9 12.7 C 211.0 13.1 214.9 13.3 213.1 13.3 C 215.4 13.8 216.7 13.6 216.9 14.0 C 218.1 14.1 217.3 13.8 218.8 14.0 C 221.1 14.6 220.7 14.2 223.7 14.9 C 224.1 14.6 224.0 15.1 225.0 15.2 C 225.0 15.1 225.0 15.0 225.0 14.8 C 226.1 15.2 228.5 15.8 231.1 16.1 C 231.7 16.3 231.2 16.4 232.8 16.7 C 234.6 16.7 236.6 17.6 238.8 17.7 C 238.9 17.9 240.3 18.3 241.1 18.3 C 241.4 18.5 240.3 18.6 241.6 18.9 C 242.5 18.9 241.0 18.4 242.9 18.8 C 242.6 19.0 244.6 19.0 244.6 19.3 C 244.0 19.2 243.4 19.1 242.8 19.1 C 243.6 19.3 243.3 19.4 243.9 19.5 C 243.9 19.2 245.2 19.8 245.6 20.0 C 245.6 19.8 245.8 19.8 246.3 19.8 C 247.3 20.1 248.0 20.3 248.6 20.4 C 249.8 20.8 247.8 20.3 249.0 20.7 C 249.8 20.3 250.9 21.3 253.6 21.7 C 254.1 22.1 255.1 22.5 256.8 23.1 C 257.0 22.9 255.2 22.5 255.2 22.3 C 257.6 23.1 254.8 22.0 256.4 22.5 C 259.7 23.7 261.9 24.4 265.2 25.9 C 265.2 25.7 269.3 27.1 269.2 27.2 C 268.0 26.8 271.4 28.4 273.1 29.2 C 273.8 29.0 276.5 29.9 276.7 29.8 C 277.3 30.2 277.1 30.2 277.2 30.6 C 280.0 32.1 281.5 32.4 282.9 33.7 C 282.9 33.4 284.1 34.0 285.1 34.5 C 284.8 34.5 284.1 34.3 283.5 34.2 C 284.9 34.9 285.0 35.1 286.1 35.8 C 287.6 35.8 289.0 37.7 290.1 37.7 C 291.8 38.8 291.4 38.8 292.9 39.8 C 292.9 39.7 293.1 39.7 293.6 40.0 C 292.6 39.3 291.7 39.0 291.3 38.4 C 293.6 39.9 287.4 34.9 291.3 37.2 C 291.3 37.4 290.9 37.3 291.7 37.8 C 293.9 39.2 292.7 38.1 291.9 37.6 C 293.4 38.5 294.7 39.6 293.8 38.5 C 297.0 40.7 294.9 39.5 295.8 40.4 C 301.2 44.3 306.6 49.7 309.2 56.2 C 309.6 56.3 310.7 59.8 310.8 61.0 C 311.5 62.7 311.8 64.7 311.5 65.3 C 311.8 65.6 311.3 67.5 311.6 67.7 C 311.6 66.9 311.7 66.4 311.8 67.2 C 311.6 69.9 310.6 73.9 310.3 75.5 C 309.7 76.3 309.0 78.0 308.6 79.2 C 308.4 79.3 308.8 78.4 308.4 79.1 C 308.4 79.4 307.1 81.8 306.6 82.3 C 307.1 81.6 307.3 80.6 306.6 81.7 C 306.8 81.8 305.9 83.0 306.3 82.8 C 305.1 84.2 304.6 85.2 303.4 86.3 C 304.3 85.3 304.7 84.6 304.7 84.3 C 304.1 85.3 303.6 86.0 302.8 86.5 C 303.3 86.6 301.9 87.8 300.6 89.3 C 300.1 89.6 299.8 89.8 298.6 90.8 C 298.1 91.5 300.6 89.3 299.3 90.6 C 299.2 90.5 297.8 91.6 298.3 91.5 C 296.6 92.8 295.7 93.7 294.1 94.7 C 296.1 93.3 294.4 94.1 293.9 94.4 C 293.5 94.7 292.8 95.2 292.9 95.2 C 292.9 95.3 293.9 94.6 294.0 94.6 C 292.6 95.5 292.5 96.1 291.8 96.3 C 292.4 95.8 292.5 95.6 291.7 96.1 C 291.8 96.6 287.2 99.1 288.7 98.0 C 288.7 98.1 290.4 97.0 290.5 96.8 C 290.0 97.0 287.5 98.7 287.9 98.2 C 289.4 97.3 289.4 97.5 291.0 96.3 C 291.1 96.1 292.0 95.4 292.6 94.8 C 290.1 96.6 289.5 97.2 289.0 97.2 C 287.8 98.0 288.7 97.8 286.6 99.0 C 283.6 100.7 286.0 99.0 285.1 99.4 C 282.5 101.0 283.5 100.9 284.8 100.4 C 282.6 101.6 282.0 102.1 279.1 103.5 C 279.2 103.2 279.5 103.0 280.5 102.4 C 280.6 102.4 283.0 101.4 282.7 101.4 C 282.3 101.2 280.4 102.0 277.3 103.4 C 278.2 103.4 278.3 103.2 275.1 104.7 C 275.7 104.7 273.5 105.3 273.5 105.5 C 273.7 105.5 274.9 105.0 275.9 104.5 C 275.9 104.7 275.6 105.0 274.5 105.5 C 273.8 105.7 273.3 106.1 271.2 106.8 C 271.0 106.7 272.4 106.1 272.7 105.8 C 271.6 106.3 271.4 106.5 270.3 107.0 C 269.2 107.2 269.2 106.8 269.1 106.5 C 270.4 105.9 272.4 105.1 270.7 105.6 C 275.5 103.5 270.6 106.0 272.5 105.3 C 274.3 104.1 273.4 105.0 276.4 103.6 C 277.3 103.2 277.6 103.0 277.9 102.7 C 277.6 102.8 275.9 103.4 277.7 102.4 C 278.3 102.4 279.3 102.0 280.8 101.3 C 280.7 101.2 277.7 102.6 280.7 101.1 C 282.2 100.3 281.0 101.3 283.0 100.2 C 282.9 100.2 283.4 99.9 283.5 99.7 C 280.8 101.3 284.0 99.3 282.1 100.2 C 284.4 98.8 282.6 100.2 284.2 99.3 C 284.1 99.1 286.8 97.9 286.7 97.6 C 285.8 98.3 283.9 99.4 284.0 99.0 C 285.8 98.1 293.0 93.2 290.4 95.4 C 291.3 94.6 295.8 90.8 295.6 91.2 C 294.2 92.2 294.4 92.3 294.3 92.6 C 296.7 90.4 298.0 89.5 300.0 87.0 C 297.6 89.5 299.1 87.3 297.5 88.6 C 296.8 89.2 295.7 90.1 295.6 90.3 C 296.1 90.2 297.2 89.2 297.5 88.7 C 297.7 88.8 297.8 89.0 297.9 89.1 C 294.8 91.6 293.0 93.2 291.3 94.3 C 292.7 93.2 288.2 95.9 289.9 94.7 C 290.8 94.4 292.5 93.2 293.9 92.2 C 293.9 92.1 293.8 92.0 293.8 92.0 C 294.4 91.5 295.2 90.9 295.2 90.8 C 293.5 92.2 292.3 92.8 291.0 93.9 C 291.0 93.9 290.9 93.8 290.9 93.8 C 290.6 94.0 290.3 94.2 290.3 94.1 C 291.0 93.6 291.9 93.0 291.9 92.8 C 290.5 93.8 290.1 93.8 288.4 94.9 C 288.6 94.4 286.2 95.6 288.6 93.9 C 289.1 93.9 290.5 93.0 290.5 93.2 C 291.3 92.8 292.6 91.7 293.1 91.2 C 292.4 91.5 291.0 92.4 290.8 92.3 C 291.9 91.5 292.6 90.8 293.4 90.5 C 291.3 92.2 294.7 89.7 295.6 89.3 C 295.3 89.4 294.8 89.7 294.4 89.8 C 296.0 88.5 296.8 88.0 296.7 87.7 C 298.3 86.1 298.1 86.6 299.2 85.5 C 298.3 86.0 299.8 84.6 298.9 85.1 C 300.6 83.2 299.6 84.8 300.2 84.2 C 300.7 83.6 300.7 83.4 301.1 82.8 C 302.0 82.1 303.2 80.4 303.6 80.3 C 304.1 79.5 304.3 79.5 304.7 78.7 C 304.7 78.5 304.8 78.2 304.9 77.8 C 305.1 77.7 305.5 77.2 305.5 77.0 C 304.1 78.9 304.4 78.3 302.7 80.3 C 302.7 80.5 302.5 80.9 302.9 80.5 C 301.9 82.0 301.5 82.3 300.4 83.6 C 300.1 83.6 299.6 83.7 298.7 85.0 C 298.8 84.5 298.4 84.8 298.8 84.3 C 299.5 83.8 300.3 83.0 301.1 82.2 C 301.1 82.0 300.8 82.1 301.2 81.6 C 301.6 81.3 302.1 80.7 302.4 80.1 C 302.5 80.1 302.4 80.4 302.3 80.6 C 303.8 78.7 303.0 79.2 304.0 77.8 C 303.8 78.0 303.2 78.9 303.5 78.0 C 304.3 76.7 304.5 76.4 304.9 75.8 C 304.9 75.6 304.8 75.7 304.9 75.3 C 305.5 74.4 304.4 77.6 305.5 76.0 C 305.3 75.8 306.1 74.2 306.3 74.0 C 306.3 74.6 305.6 75.5 305.7 75.6 C 307.1 72.6 306.4 75.7 307.3 72.5 C 307.2 72.5 307.1 72.5 307.0 72.5 C 306.7 73.7 306.5 73.7 306.3 73.6 C 305.9 74.6 305.4 74.9 305.2 75.9 C 304.9 75.4 305.6 75.0 306.0 73.9 C 305.8 73.8 305.4 74.8 305.1 74.9 C 306.3 72.5 306.1 71.9 306.8 69.5 C 306.5 70.1 306.9 68.2 306.7 68.3 C 306.6 70.4 305.9 69.5 305.8 69.8 C 305.6 71.1 306.2 70.6 306.1 71.4 C 305.8 71.7 305.7 71.5 305.4 71.2 C 305.8 70.1 305.7 70.3 305.7 69.4 C 306.0 68.6 306.5 68.0 306.5 69.1 C 306.5 68.9 306.5 67.3 306.7 67.2 C 306.6 68.7 306.8 67.0 306.9 67.9 C 307.1 66.8 306.7 64.7 306.6 63.3 C 306.5 63.4 306.4 62.9 306.2 62.9 C 306.8 64.3 306.3 64.7 306.3 66.0 C 306.3 65.4 306.1 65.8 306.1 66.0 C 306.1 64.7 305.8 64.0 305.8 63.0 C 305.8 63.0 305.7 63.1 305.6 63.1 C 305.4 61.4 305.4 61.7 304.8 60.5 C 304.7 60.0 305.4 60.5 305.7 60.6 C 305.4 60.0 304.5 57.8 304.8 59.2 C 304.2 57.8 304.7 58.0 304.0 56.7 C 303.7 56.8 304.4 58.0 303.9 57.7 C 303.2 56.5 303.9 57.1 303.1 56.2 C 303.2 56.0 303.4 55.9 302.7 54.8 C 303.1 55.7 302.6 54.7 302.3 54.5 C 302.6 55.0 302.8 55.5 302.9 55.8 C 301.8 53.8 301.4 53.5 300.1 51.9 C 300.8 52.3 300.2 51.4 301.1 52.4 C 300.2 51.5 299.4 50.1 298.7 49.7 C 299.2 50.3 300.1 51.3 300.3 51.8 C 297.7 48.7 295.7 47.4 292.6 44.5 C 293.2 44.9 294.0 45.6 294.1 45.6 C 293.8 45.2 293.1 44.8 293.2 44.7 C 294.4 45.7 295.4 46.6 296.0 47.0 C 296.8 47.9 295.3 46.6 296.2 47.5 C 296.5 47.6 298.1 49.3 297.7 48.5 C 296.0 47.1 294.6 45.6 294.0 44.7 C 292.1 43.6 293.7 44.9 291.5 43.8 C 291.6 43.7 291.2 43.4 290.7 42.9 C 291.1 43.6 288.7 41.7 288.4 41.5 C 289.5 42.0 293.0 44.4 291.4 42.9 C 291.9 44.0 287.3 39.8 288.0 40.9 C 285.6 39.3 286.6 39.6 285.0 39.0 C 285.0 38.9 285.3 38.9 284.6 38.4 C 283.8 38.0 283.5 37.9 283.2 37.8 C 286.9 40.1 285.6 39.8 287.8 41.2 C 287.4 41.0 287.1 40.8 287.2 40.9 C 287.1 40.9 287.0 40.9 286.5 40.6 C 286.5 40.2 284.7 39.5 284.2 39.0 C 285.0 39.4 285.7 39.8 285.5 39.6 C 282.5 37.8 283.3 37.8 278.6 35.3 C 279.9 36.1 278.0 35.2 276.3 34.4 C 273.9 33.2 275.1 33.3 271.9 32.0 C 272.0 32.3 271.1 32.0 269.8 31.4 C 269.1 31.0 268.3 30.7 267.4 30.3 C 266.5 30.0 265.1 29.4 264.5 29.3 C 264.8 29.1 261.7 27.8 261.0 27.9 C 260.9 27.7 259.7 27.3 258.9 27.1 C 258.8 26.9 259.8 27.1 259.0 26.8 C 258.3 26.6 258.9 27.1 257.9 26.8 C 256.8 26.4 257.1 26.2 255.4 25.6 C 255.2 25.8 256.2 26.1 255.3 25.9 C 253.8 25.4 252.4 25.0 253.6 25.6 C 251.3 24.9 252.6 24.8 250.4 24.2 C 251.0 24.5 251.0 24.6 249.8 24.3 C 249.1 23.9 249.1 23.8 248.8 23.6 C 248.1 23.6 248.3 23.7 246.6 23.1 C 246.5 23.2 246.5 23.3 246.5 23.4 C 245.7 23.2 244.4 22.9 244.3 22.8 C 245.8 23.2 245.4 22.9 246.0 23.0 C 244.5 22.5 241.6 21.5 243.8 22.4 C 241.6 21.9 242.7 21.9 241.0 21.5 C 242.0 22.0 241.0 21.6 239.2 21.2 C 239.3 21.5 238.0 20.9 236.9 20.7 C 237.0 20.9 236.7 21.0 235.7 20.8 C 235.8 20.6 235.1 20.4 233.9 20.2 C 233.9 20.3 236.4 21.0 233.9 20.4 C 232.8 20.1 232.8 19.8 231.0 19.4 C 230.6 19.1 232.7 19.6 232.3 19.3 C 230.7 19.2 230.3 18.9 228.1 18.4 C 228.9 19.1 223.5 18.2 226.1 18.9 C 225.4 18.7 224.2 18.9 223.7 18.5 C 224.5 18.6 223.1 18.1 223.2 18.1 C 222.1 17.9 219.6 17.4 219.5 17.5 C 221.9 17.9 221.8 18.1 222.5 18.4 C 219.1 17.9 216.1 17.4 216.4 17.1 C 216.4 17.2 215.9 17.1 215.7 17.2 C 217.0 17.3 217.7 17.9 216.3 17.7 C 216.6 17.5 215.6 17.2 214.5 17.0 C 214.4 17.2 209.9 16.2 210.7 16.7 C 212.6 16.7 214.0 17.3 212.6 17.3 C 211.4 16.9 209.0 16.4 209.5 16.3 C 208.8 16.3 208.2 16.3 207.6 16.3 C 207.0 16.4 208.4 16.6 208.2 16.8 C 207.2 16.6 205.8 16.5 205.7 16.4 C 208.2 16.6 204.4 16.1 207.0 16.2 C 205.4 16.0 205.0 15.8 203.8 15.7 C 203.8 15.7 203.3 15.7 203.2 15.7 C 204.3 15.7 205.4 16.0 205.0 16.2 C 202.8 16.0 203.2 15.7 201.2 15.5 C 200.7 15.6 198.0 15.7 196.7 15.4 C 199.3 15.6 196.5 15.2 198.0 15.3 C 200.3 15.7 201.0 15.5 201.9 15.4 C 200.9 15.1 199.0 14.8 198.7 15.1 C 199.9 15.2 200.0 15.1 200.6 15.1 C 200.6 15.3 200.2 15.4 199.3 15.3 C 198.3 15.0 195.9 15.0 197.5 14.8 C 195.8 14.8 194.0 14.4 192.3 14.4 C 194.2 14.6 195.6 14.8 196.1 15.1 C 194.5 15.0 193.0 14.6 192.9 14.8 C 193.1 15.0 195.6 15.2 196.1 15.4 C 194.0 15.5 191.0 14.5 193.5 15.2 C 192.4 15.1 190.8 15.0 190.3 14.8 C 191.7 14.9 190.2 14.5 189.6 14.4 C 188.4 14.3 187.5 14.3 187.0 14.3 C 188.9 14.4 190.2 14.8 189.0 14.7 C 188.7 14.6 188.3 14.7 187.7 14.7 C 187.6 14.5 185.5 14.5 185.1 14.4 C 185.2 14.5 186.2 14.6 186.4 14.7 C 185.2 14.7 183.4 14.9 182.5 14.5 C 183.3 14.6 184.3 14.6 184.4 14.6 C 181.1 14.0 180.0 13.6 176.0 13.3 C 176.5 13.3 176.7 13.3 176.6 13.2 C 174.0 13.1 172.4 12.9 172.7 12.7 C 171.1 12.7 170.3 12.8 169.4 12.9 C 171.1 13.1 171.7 12.9 172.7 13.1 C 172.1 13.1 174.0 13.6 174.7 13.8 C 177.5 13.7 177.7 14.1 180.5 14.1 C 179.7 14.3 182.6 14.3 181.8 14.5 C 179.1 14.0 176.6 14.1 172.7 13.8 C 173.2 13.7 173.6 13.5 172.0 13.3 C 169.6 13.1 170.8 13.5 168.7 13.4 C 167.9 13.2 169.1 13.2 168.1 13.1 C 167.4 13.2 165.4 13.1 164.8 12.9 C 167.5 12.9 164.3 12.6 166.1 12.6 C 165.2 12.5 164.7 12.5 164.1 12.5 C 166.7 12.8 161.5 12.8 163.4 13.0 C 159.8 13.1 163.2 12.4 160.2 12.4 C 161.6 12.6 159.7 12.7 157.5 12.7 C 156.9 12.4 154.7 12.4 152.9 12.3 C 153.9 12.5 154.6 12.5 152.9 12.7 C 153.8 12.7 155.3 12.7 156.2 12.6 C 156.2 12.7 156.5 12.8 156.9 12.8 C 154.7 12.9 155.6 13.0 154.9 13.1 C 154.2 13.0 152.6 13.0 152.2 12.9 C 152.3 13.0 151.7 13.0 151.6 13.1 C 154.4 13.0 151.2 13.4 152.9 13.5 C 154.1 13.4 153.3 13.2 154.9 13.2 C 156.4 13.5 153.7 13.5 152.9 13.8 C 154.2 13.9 155.7 13.6 156.2 13.9 C 154.5 14.2 151.8 14.0 149.6 14.0 C 149.8 14.3 146.0 14.0 145.7 14.5 C 145.4 14.4 145.0 14.3 144.4 14.3 C 143.8 14.5 143.1 14.2 142.4 14.3 C 142.4 14.4 142.6 14.5 143.1 14.6 C 140.4 14.5 139.7 14.6 136.6 14.9 C 136.1 14.8 135.5 14.7 135.2 14.5 C 136.0 14.4 136.7 14.3 137.2 14.2 C 132.8 14.4 135.7 14.9 132.6 14.7 C 132.8 14.9 134.9 15.0 133.3 15.2 C 130.5 15.1 126.7 15.7 126.8 15.0 C 124.4 14.9 122.8 15.6 121.6 15.4 C 120.9 15.4 120.7 15.5 120.4 15.7 C 121.1 15.7 122.1 15.7 123.0 15.8 C 124.4 15.5 125.0 15.7 123.6 15.5 C 125.7 15.3 126.3 15.4 127.5 15.4 C 124.5 15.8 121.8 15.9 121.7 16.2 C 120.7 16.2 120.0 16.1 119.1 16.0 C 118.8 16.2 115.6 16.7 115.3 16.5 C 117.5 16.3 119.8 15.7 117.8 15.8 C 112.3 16.6 109.3 16.5 104.6 17.5 C 104.5 17.4 104.8 17.2 104.0 17.3 C 104.0 17.4 103.8 17.5 103.3 17.7 C 101.9 17.9 101.0 17.9 99.1 18.3 C 99.2 18.1 98.8 17.9 97.7 18.0 C 97.2 18.4 95.3 19.2 94.2 19.3 C 95.4 19.1 93.8 19.1 93.0 19.2 C 93.7 19.4 87.6 20.0 89.4 20.0 C 86.9 20.5 85.9 20.6 85.8 20.5 C 85.0 20.8 84.3 21.0 83.5 21.2 C 82.9 21.0 78.9 22.2 78.3 22.2 C 79.7 22.0 79.9 21.5 78.8 21.8 C 78.1 22.2 74.5 23.3 73.8 23.5 C 74.0 23.3 74.2 23.0 75.9 22.5 C 73.0 23.2 73.1 23.6 72.2 24.1 C 72.2 23.7 70.9 24.4 70.5 24.5 C 69.5 24.6 70.5 24.4 70.4 24.2 C 69.4 24.5 69.0 24.5 67.7 24.9 C 68.1 25.0 66.6 25.3 66.0 25.4 C 65.9 25.7 65.2 26.0 64.0 26.4 C 65.5 25.5 57.3 28.2 59.3 27.8 C 57.7 28.6 57.6 28.1 55.6 28.9 C 55.3 29.2 54.1 29.5 55.2 29.3 C 54.5 29.6 53.6 29.9 53.3 30.0 C 52.9 30.0 52.4 30.1 50.9 30.8 C 52.4 30.6 47.9 32.0 48.7 32.1 C 47.2 32.3 45.1 33.9 42.6 34.6 C 42.6 34.7 42.0 35.0 41.9 35.2 C 41.6 35.4 44.8 34.0 42.8 35.0 C 40.2 36.0 41.5 35.3 41.1 35.4 C 34.8 38.7 28.3 42.8 24.0 46.5 C 24.6 46.1 24.6 46.2 23.8 47.1 C 22.2 47.8 18.4 52.4 18.0 53.2 C 17.4 53.5 16.2 55.9 15.8 56.3 C 16.1 55.8 16.4 54.8 15.8 55.8 C 15.7 56.6 15.1 57.3 14.9 58.3 C 14.4 58.6 13.7 61.5 13.6 60.1 C 13.5 60.6 13.3 60.9 13.2 61.2 C 13.5 61.3 13.2 61.9 13.7 61.0 C 12.7 63.5 12.9 64.1 12.6 66.1 C 12.7 66.4 12.9 64.9 12.9 66.1 C 12.9 66.1 12.8 66.1 12.8 66.1 C 12.7 66.5 12.9 66.6 12.7 66.8 C 12.6 66.7 12.7 66.1 12.4 66.0 C 12.4 67.0 12.1 67.7 12.4 68.0 C 12.3 66.7 12.8 67.6 12.6 68.4 C 12.4 67.7 13.1 71.5 13.6 72.7 C 13.5 73.4 13.2 71.4 13.0 71.6 C 13.6 73.9 13.6 73.7 14.0 73.9 C 14.3 75.1 14.4 75.7 15.3 77.1 C 15.6 78.0 14.8 76.6 15.3 77.6 C 15.6 78.1 15.9 78.2 16.4 79.0 C 17.3 81.4 22.3 85.8 24.5 88.8 C 23.5 87.7 25.1 88.8 26.7 90.1 C 26.7 90.3 26.4 90.2 27.0 90.7 C 27.0 90.5 27.6 90.8 28.7 91.6 C 28.7 91.8 28.4 91.7 29.1 92.2 C 29.7 92.3 31.0 93.5 32.0 94.0 C 32.2 94.5 29.8 92.7 29.6 92.7 C 32.3 94.8 33.0 94.9 35.5 96.5 C 34.1 95.7 36.3 97.2 36.6 97.5 C 36.2 96.9 38.3 98.0 36.9 97.0 C 37.8 97.6 39.4 98.3 39.5 98.5 C 39.0 98.3 38.1 97.8 38.1 97.9 C 39.4 98.5 40.9 99.6 41.6 99.7 C 40.7 99.2 40.2 98.9 40.3 98.7 C 40.7 98.8 41.1 99.0 41.8 99.2 C 39.5 98.8 45.7 101.5 46.1 101.5 C 46.6 102.1 47.0 102.3 46.7 102.3 C 49.4 103.5 49.1 103.1 50.8 103.7 C 50.3 103.8 49.6 103.8 52.2 105.0 C 51.8 104.5 55.0 105.8 54.2 105.1 C 56.0 105.7 56.4 105.9 57.1 106.1 C 57.8 106.4 58.4 106.7 58.9 106.9 C 60.0 107.3 60.8 107.7 62.1 108.1 C 62.2 108.1 61.4 107.8 62.2 108.0 C 63.4 108.5 64.5 108.9 65.3 109.3 C 66.0 109.3 65.1 109.0 65.9 109.2 C 67.8 110.0 67.3 110.1 69.0 110.9 C 71.2 111.3 70.4 111.2 71.8 111.3 C 71.2 111.1 70.5 110.8 71.3 111.0 C 72.6 111.6 73.1 112.0 73.4 112.2 C 72.4 111.9 71.7 111.7 71.2 111.5 C 70.8 111.6 69.5 111.2 70.6 111.6 C 69.2 111.2 67.6 110.7 65.6 110.1 C 66.2 110.6 63.8 109.6 64.5 110.1 C 66.7 110.7 67.2 111.0 69.3 111.6 C 68.9 111.2 71.2 112.0 71.6 112.2 C 71.6 112.0 73.1 112.5 72.8 112.2 C 74.5 112.6 74.4 112.8 76.1 113.1 C 76.2 113.3 76.0 113.3 76.6 113.5 C 77.3 113.4 77.8 113.9 78.4 114.0 C 78.0 113.7 80.5 114.4 80.7 114.3 C 80.1 114.1 79.1 113.9 79.0 113.8 C 81.8 114.5 79.6 113.7 79.1 113.4 C 79.2 113.5 78.1 113.6 77.9 113.4 C 80.3 113.7 74.8 112.1 76.8 112.8 C 78.6 113.3 78.5 113.0 80.3 113.5 C 82.4 114.5 79.8 114.1 81.9 115.0 C 83.2 115.1 84.1 115.3 84.3 115.1 C 84.5 115.3 84.9 115.4 85.4 115.6 C 86.0 115.6 83.7 115.0 85.4 115.3 C 86.4 115.5 85.2 115.6 87.2 116.0 C 88.0 115.9 84.9 115.2 86.7 115.5 C 88.4 116.3 86.3 115.3 88.4 115.7 C 88.6 115.8 88.9 115.9 89.6 116.1 C 89.7 116.2 89.4 116.3 90.2 116.5 C 90.7 116.2 91.0 116.8 92.6 117.1 C 93.5 116.9 90.9 116.6 91.5 116.4 C 93.2 117.1 94.4 116.9 95.1 117.1 C 93.5 117.1 97.4 117.7 97.4 117.9 C 97.1 117.6 97.9 117.9 100.0 118.0 C 100.1 118.4 102.5 118.5 103.0 118.9 C 103.4 118.9 104.0 118.9 104.3 118.8 C 103.6 118.7 102.8 118.6 103.1 118.5 C 103.7 118.6 104.3 118.7 105.0 118.8 C 106.0 119.1 103.2 119.2 107.4 119.8 C 107.0 119.4 108.7 119.6 109.9 119.6 C 109.8 119.3 108.3 119.4 108.1 119.2 C 109.5 119.2 111.0 119.6 111.8 119.9 C 114.3 120.1 117.2 120.6 120.8 120.8 C 121.6 121.1 117.8 120.7 120.2 121.1 C 121.2 121.2 120.7 120.9 122.1 121.1 C 120.7 122.0 131.8 122.1 132.5 122.6 C 132.9 122.4 136.1 122.8 135.8 122.4 C 133.6 122.5 132.2 122.1 131.2 121.9 C 129.2 121.9 133.0 122.3 131.2 122.2 C 131.0 122.0 128.3 122.0 128.6 121.8 C 131.4 122.0 127.1 121.4 129.3 121.3 C 131.8 121.6 137.0 121.6 135.8 121.9 C 135.8 121.8 134.7 121.7 134.5 121.8 C 137.5 122.1 139.2 122.0 140.4 121.9 C 141.8 122.1 147.1 122.0 145.7 122.1 C 146.1 122.3 142.5 121.9 143.1 122.2 C 148.5 122.5 148.7 122.3 152.3 122.5 C 151.1 122.2 156.1 122.2 155.6 122.3 C 155.6 122.5 156.7 122.7 158.9 122.4 C 158.6 122.7 159.8 122.8 160.9 122.8 C 161.4 122.6 159.9 122.6 160.2 122.5 C 161.3 122.4 162.5 122.4 163.6 122.4 C 163.6 122.5 163.4 122.7 164.2 122.7 C 165.4 122.5 169.9 122.2 169.5 122.3 C 167.6 122.7 172.5 122.5 169.5 122.8 C 170.3 122.8 170.4 122.9 171.5 122.8 C 171.5 122.7 171.5 122.6 171.5 122.5 C 173.9 122.4 172.7 122.9 174.8 122.8 C 175.0 122.7 175.9 122.6 176.1 122.5 C 175.3 122.6 175.2 122.7 174.1 122.7 C 175.4 122.2 172.0 122.5 172.1 122.3 C 174.5 122.1 174.5 122.4 175.4 122.5 C 178.3 122.2 177.0 122.3 180.1 122.3 C 180.1 122.2 179.2 122.2 179.4 122.0 C 183.1 121.9 182.8 122.5 185.3 122.1 C 184.7 122.2 182.4 122.5 184.1 122.4 C 185.8 122.2 186.3 121.9 188.6 121.7 C 188.7 121.8 188.5 122.0 189.3 121.9 C 190.2 121.7 190.3 121.5 191.1 121.4 C 191.3 121.5 192.6 121.3 193.1 121.2 C 194.0 121.3 192.8 121.5 193.8 121.5 C 195.7 121.3 196.7 120.6 198.3 120.6 C 198.2 120.9 200.0 120.6 201.5 120.4 C 201.8 120.7 205.1 120.2 207.3 120.0 C 206.8 119.8 209.0 119.6 208.5 119.5 C 207.4 119.6 206.9 119.6 206.6 119.5 C 209.1 119.2 209.9 119.6 211.7 119.0 C 212.6 119.0 213.8 119.0 215.5 118.8 C 215.6 118.6 212.5 119.0 214.2 118.7 C 214.3 118.7 214.9 118.6 215.4 118.5 C 215.2 118.8 216.6 118.7 217.4 118.7 C 218.8 118.2 221.9 118.1 220.4 118.0 C 222.7 117.6 221.3 118.3 223.0 118.0 C 222.0 117.8 225.0 117.2 223.5 117.3 C 225.8 116.8 225.7 117.3 224.8 117.6 C 226.9 117.2 227.4 116.9 228.4 116.9 C 227.4 116.8 230.6 116.1 229.0 116.5 C 228.5 116.9 230.9 116.3 231.4 116.3 C 230.6 116.3 231.7 116.0 230.2 116.2 C 231.8 115.8 234.1 115.3 235.6 115.2 C 237.5 114.6 239.3 114.2 238.5 114.6 C 240.3 114.2 239.6 114.3 241.4 113.9 C 241.4 113.9 240.9 114.0 240.8 113.9 C 243.2 113.3 242.8 113.6 246.0 112.8 C 245.7 113.2 247.7 112.6 248.4 112.6 C 247.0 113.0 246.0 113.2 244.9 113.4 C 244.7 113.6 245.8 113.4 245.0 113.6 C 244.8 113.6 244.3 113.7 243.8 113.7 C 245.9 113.4 241.2 114.8 242.7 114.2 C 242.7 114.2 242.8 114.3 243.3 114.1 C 242.8 114.0 242.8 114.1 243.2 113.7 C 242.1 114.1 241.2 114.0 240.9 114.3 C 240.9 114.4 242.0 114.1 242.1 114.2 C 239.5 115.0 241.2 114.1 239.2 114.7 C 238.8 115.0 239.9 114.8 240.4 114.8 C 238.5 115.3 236.8 115.7 236.3 115.7 C 234.5 116.1 236.4 115.8 235.2 116.2 C 234.5 116.3 234.5 116.1 233.3 116.3 C 232.0 116.7 234.1 116.3 232.8 116.7 C 231.3 116.8 233.7 116.1 231.5 116.5 C 232.1 116.8 229.5 116.9 229.7 117.0 C 231.0 116.7 231.1 117.1 230.4 117.0 C 227.4 117.3 225.5 118.5 222.4 118.5 C 222.4 118.6 222.0 118.7 221.8 118.7 C 224.1 118.5 227.4 117.9 228.0 118.2 C 229.8 117.8 229.5 117.6 229.8 117.4 C 231.9 117.3 231.7 117.4 230.6 118.0 C 227.1 118.8 225.6 118.8 223.2 119.2 C 222.0 119.6 223.3 119.2 223.9 119.3 C 216.5 120.3 222.2 120.1 219.6 120.4 C 219.6 120.3 219.1 120.3 218.3 120.4 C 218.3 120.5 217.2 120.6 217.1 120.7 C 217.6 120.7 217.8 120.7 217.7 120.8 C 215.9 121.2 216.6 120.8 216.4 120.7 C 217.8 120.5 218.7 120.3 218.9 120.1 C 217.1 120.5 215.7 120.5 214.5 121.0 C 212.8 120.9 215.3 120.1 214.4 120.0 C 214.7 119.8 213.3 120.8 212.0 121.1 C 209.7 121.4 209.7 121.7 207.5 121.9 C 207.0 121.7 209.6 121.5 209.4 121.4 C 208.8 121.4 208.7 121.4 208.1 121.5 C 206.6 121.7 206.8 121.9 205.6 122.1 C 204.9 121.9 204.6 122.1 203.7 122.3 C 202.3 122.4 204.5 122.0 203.0 122.1 C 201.4 122.3 200.3 122.7 199.8 122.7 C 199.7 122.7 199.9 122.5 199.2 122.6 C 197.4 122.9 196.9 123.0 199.2 122.9 C 197.2 123.1 196.3 123.2 196.6 123.5 C 199.7 123.2 200.4 123.1 201.9 123.2 C 202.4 122.9 203.3 123.0 204.4 123.0 C 203.7 122.6 205.7 122.8 206.3 122.5 C 205.6 122.5 204.8 122.6 204.4 122.6 C 207.6 122.2 207.5 122.3 210.1 121.5 C 210.1 121.6 210.4 121.7 210.7 121.7 C 209.9 121.9 207.6 122.1 207.6 122.3 C 209.4 122.4 210.0 121.9 212.1 121.9 C 212.9 121.6 210.4 121.8 212.0 121.6 C 212.9 121.6 213.9 121.6 215.2 121.5 C 216.6 121.3 217.2 121.0 218.3 120.8 C 218.5 120.9 218.6 120.9 219.6 120.7 C 219.6 120.7 218.5 120.7 219.6 120.5 C 222.9 120.3 225.1 120.1 228.3 119.4 C 227.2 119.5 224.6 119.7 225.8 119.5 C 227.3 119.4 229.2 118.7 230.7 118.6 C 231.2 118.6 228.9 118.9 229.5 119.2 C 230.9 118.9 231.8 118.8 232.5 118.7 C 232.5 118.5 234.2 118.2 233.7 118.1 C 232.5 118.3 232.2 118.7 231.9 118.6 C 232.8 117.8 236.4 117.9 238.5 117.4 C 240.0 117.0 237.4 117.5 239.0 117.0 C 240.0 116.6 240.8 117.1 239.2 117.5 C 238.1 117.7 237.7 118.1 237.4 117.9 C 236.9 118.0 236.2 118.1 236.2 118.2 C 237.0 118.0 236.9 118.2 237.4 118.2 C 236.3 118.4 236.2 118.9 235.1 118.9 C 235.8 118.7 236.0 118.6 236.3 118.4 C 233.1 119.2 232.0 119.2 230.2 119.5 C 231.2 119.4 230.1 119.6 230.2 119.8 C 231.7 119.4 234.3 119.0 232.7 119.5 C 231.6 119.4 230.8 120.3 229.7 120.2 C 230.5 120.0 230.4 119.9 230.9 119.8 C 229.6 120.0 229.6 119.8 228.4 120.0 C 224.5 121.1 221.3 121.1 214.8 122.6 C 212.5 122.9 216.8 122.1 216.6 122.0 C 216.0 122.1 215.8 122.0 215.3 122.1 C 215.3 122.4 214.2 122.2 213.4 122.6 C 213.5 122.3 210.5 123.0 208.9 123.0 C 208.9 123.1 209.1 123.2 208.3 123.3 C 203.6 123.6 195.0 124.9 191.4 124.9 C 191.6 125.1 190.0 125.2 189.5 125.3 C 187.2 125.5 188.2 125.2 184.9 125.7 C 183.2 125.8 185.2 125.5 185.5 125.4 C 180.5 125.8 176.1 125.8 172.9 126.2 C 171.3 126.3 172.9 126.0 169.6 126.0 C 169.5 126.4 164.3 125.9 163.6 126.4 C 161.6 126.4 157.9 126.0 159.6 126.3 C 156.8 126.3 158.6 126.0 157.5 126.0 C 155.6 126.0 158.1 126.6 156.2 126.6 C 156.4 126.3 154.8 126.4 153.6 126.2 C 155.1 126.2 156.0 126.2 156.2 126.0 C 154.9 126.2 155.0 126.0 152.9 126.0 C 151.3 126.1 146.8 126.2 145.6 125.8 C 145.5 125.9 145.9 126.0 146.2 126.1 C 144.9 126.1 143.4 125.7 143.5 126.0 C 140.6 125.9 139.3 125.6 137.6 125.8 C 136.3 125.8 138.0 125.5 134.2 125.3 C 134.2 125.5 127.5 125.0 125.7 124.7 C 125.6 125.0 125.3 124.6 124.4 124.5 C 124.3 124.6 124.5 124.8 123.7 124.7 C 123.6 124.6 123.0 124.6 122.4 124.6 C 122.9 124.2 120.0 124.5 119.8 124.2 C 120.4 124.2 120.4 124.0 119.9 123.9 C 119.7 124.2 117.0 123.5 117.3 123.7 C 117.8 123.9 119.7 124.0 119.1 124.2 C 116.6 124.0 117.7 123.8 116.0 123.6 C 116.1 123.7 117.1 123.9 115.9 123.8 C 114.2 123.6 115.8 123.8 114.7 123.4 C 113.7 123.4 112.0 123.4 111.4 123.3 C 111.6 123.3 111.1 123.1 110.8 123.0 C 107.5 122.5 100.1 121.7 97.0 120.8 C 96.7 120.9 96.1 120.8 96.3 121.0 C 94.4 120.5 94.5 120.6 92.6 120.2 C 92.6 120.3 92.6 120.4 92.6 120.5 C 90.1 120.1 92.4 120.1 90.8 119.8 C 90.5 120.3 89.9 119.5 88.4 119.2 C 88.2 119.2 87.5 119.1 87.7 119.3 C 85.4 118.9 85.6 118.5 83.6 118.2 C 84.0 118.4 84.2 119.2 83.9 119.4 C 83.6 119.2 83.1 119.0 82.2 118.7 C 83.3 118.7 82.9 117.7 80.0 117.3 C 81.6 117.6 82.2 117.8 81.8 118.0 C 79.6 117.5 78.9 117.2 77.1 116.7 C 76.8 116.9 78.1 117.2 77.5 117.4 C 77.1 117.3 76.8 117.3 76.9 117.4 C 75.0 116.9 75.0 116.7 72.9 116.3 C 72.9 116.1 73.4 116.2 74.1 116.5 C 74.0 116.3 74.1 116.1 75.3 116.4 C 75.4 116.6 74.6 116.7 76.4 117.0 C 76.5 116.9 76.5 116.8 76.5 116.6 C 75.2 116.3 72.2 115.3 71.9 115.4 C 72.5 115.6 73.5 115.9 73.0 116.0 C 70.8 115.4 70.3 114.9 68.6 114.3 C 65.5 113.5 60.3 111.8 60.8 112.3 C 59.0 111.6 59.6 111.8 58.1 111.3 C 58.5 111.7 56.3 110.7 56.4 111.0 C 58.3 111.6 57.7 111.5 59.6 112.0 C 59.5 112.2 59.2 112.2 58.4 112.0 C 58.4 111.8 57.6 111.5 56.4 111.1 C 56.6 111.2 57.6 111.8 56.3 111.4 C 56.2 111.3 55.9 111.1 55.3 110.9 C 55.3 110.8 55.4 110.7 55.4 110.6 C 56.1 110.7 57.0 111.0 57.6 111.1 C 57.1 110.9 57.0 110.8 56.5 110.6 C 56.2 110.6 54.1 109.7 53.9 109.8 C 54.8 110.1 55.3 110.5 54.3 110.2 C 54.2 110.1 52.4 109.3 51.6 109.1 C 54.6 110.4 53.3 109.9 54.2 110.5 C 52.1 109.8 51.9 109.5 48.1 108.0 C 48.1 107.7 48.1 107.6 49.1 107.9 C 46.9 106.4 41.3 104.4 39.7 103.5 C 40.8 104.2 42.3 104.5 40.6 103.6 C 40.5 103.7 39.2 103.0 39.0 103.0 C 38.2 103.1 39.6 104.1 40.8 105.0 C 39.4 104.3 39.1 104.2 37.8 103.6 C 37.4 103.2 38.9 103.6 37.3 102.7 C 36.8 102.9 34.4 101.2 33.7 101.1 C 34.8 101.7 35.5 102.2 34.3 101.6 C 34.6 101.6 32.4 100.4 32.4 100.2 C 34.2 101.2 34.8 101.2 35.9 101.9 C 34.5 101.1 37.1 102.3 34.7 100.9 C 33.6 100.5 32.9 100.4 30.5 98.9 C 29.7 98.3 30.6 98.6 29.5 97.9 C 29.7 98.3 27.2 96.7 28.8 97.5 C 28.0 97.0 27.5 96.6 27.1 96.3 C 28.1 97.3 22.6 93.6 23.3 94.4 C 23.5 94.1 23.4 93.7 23.2 93.4 C 22.1 92.9 21.1 91.8 18.8 89.6 C 18.7 90.0 18.4 89.3 17.5 88.4 C 17.2 88.4 18.0 89.2 17.3 88.6 C 16.4 87.5 16.4 87.4 16.3 87.1 C 15.6 86.3 15.1 85.7 14.8 85.3 C 14.7 85.3 14.8 85.6 15.0 85.9 C 12.7 82.7 11.5 81.2 10.2 78.5 C 10.6 79.7 11.1 79.7 10.6 78.8 C 10.3 78.3 10.0 77.8 9.8 77.5 C 9.9 78.3 9.9 77.9 9.3 76.6 C 8.8 75.4 9.2 77.2 8.8 76.3 C 8.5 75.2 8.9 75.7 8.7 75.1 C 8.6 74.7 8.4 74.2 8.3 73.7 C 8.4 74.6 8.0 73.6 7.7 72.8 C 8.2 73.4 8.1 73.0 7.7 71.2 C 7.8 71.0 8.0 71.9 7.9 71.2 C 7.9 70.8 7.3 69.5 7.5 68.3 C 7.5 68.7 7.6 68.8 7.7 68.7 C 7.4 67.5 7.8 66.4 7.9 65.3 C 7.6 66.4 7.5 65.8 7.3 66.3 C 7.6 65.1 7.5 63.7 7.9 62.8 C 7.6 64.5 8.4 63.0 8.6 61.9 C 8.4 61.6 8.1 63.4 7.9 62.8 C 7.8 62.2 8.4 61.0 8.4 60.4 C 8.2 60.4 8.2 61.1 8.0 61.3 C 8.2 60.4 7.8 61.6 8.0 60.8 C 8.4 60.4 8.2 59.8 8.4 59.3 C 8.6 58.7 9.4 57.5 9.5 56.9 C 9.4 56.9 9.1 57.8 8.9 57.8 C 9.8 55.1 10.5 54.5 11.7 52.1 C 12.0 51.9 12.3 51.5 12.8 50.8 C 12.7 50.8 12.9 50.3 13.3 49.8 C 14.1 48.9 15.0 48.0 16.1 46.8 C 16.1 47.2 15.6 47.8 17.1 46.2 C 17.1 46.0 16.5 46.7 17.0 46.1 C 17.0 46.1 17.4 45.7 17.5 45.6 C 17.4 45.6 17.4 45.5 17.3 45.5 C 16.9 45.9 16.5 46.4 16.1 46.8 C 16.0 46.7 15.8 46.7 15.5 47.0 C 17.1 45.0 17.4 45.5 18.5 44.1 C 19.0 44.2 19.5 43.8 18.6 45.0 C 19.6 43.9 20.4 43.1 20.6 42.6 C 19.1 43.9 19.4 43.3 18.9 43.6 C 19.8 42.7 19.8 42.7 20.2 42.2 C 21.4 41.4 19.3 43.5 21.5 41.7 C 19.7 42.9 22.7 40.3 24.0 39.5 C 23.7 39.6 23.3 39.9 23.9 39.3 C 27.0 36.7 27.3 37.6 29.2 35.8 C 29.1 36.1 30.1 35.4 30.6 35.2 C 28.8 36.5 28.4 36.8 27.6 37.4 C 27.8 37.3 28.3 37.0 28.9 36.7 C 28.8 36.6 29.3 36.3 30.1 35.8 C 30.6 35.4 30.2 35.2 31.6 34.1 C 31.8 34.1 31.6 34.3 32.4 33.9 C 33.0 33.3 31.9 34.5 35.3 32.6 C 34.6 32.9 34.2 32.9 34.4 32.6 C 35.9 31.6 35.6 31.9 37.9 30.7 C 38.9 30.6 36.5 31.9 36.1 32.4 C 37.5 31.6 38.7 30.7 40.3 30.1 C 39.0 30.6 40.2 29.8 41.6 29.0 C 43.0 28.4 41.7 29.4 43.4 28.6 C 44.7 28.0 45.3 27.4 44.0 27.9 C 47.0 26.7 46.2 26.7 48.8 25.7 C 48.9 25.8 48.2 26.1 47.2 26.4 C 47.4 26.4 47.1 26.7 48.1 26.3 C 48.9 25.8 50.3 25.2 51.7 24.6 C 53.2 24.0 54.1 23.6 54.7 23.3 C 57.1 22.9 59.7 21.4 62.2 20.8 C 61.3 21.4 65.4 19.8 66.7 19.7 C 67.4 19.4 69.7 18.3 68.8 18.7 C 69.1 19.0 70.6 18.4 71.8 18.2 C 71.8 18.1 71.7 18.1 71.7 18.0 C 74.3 17.2 74.9 17.3 75.8 17.3 C 78.9 16.3 82.5 15.9 86.5 14.8 C 87.5 14.8 88.4 14.6 90.8 14.3 C 90.7 14.1 92.6 13.7 94.4 13.4 C 93.9 13.2 95.6 13.0 95.6 12.8 C 94.0 13.1 94.5 12.7 93.7 12.8 C 95.9 12.6 96.9 11.9 98.6 11.9 C 96.5 12.4 95.9 12.8 95.7 13.2 C 98.2 12.7 99.5 12.6 100.1 12.7 C 100.2 12.5 99.9 12.4 99.3 12.4 C 100.2 12.3 101.0 12.1 101.8 12.0 C 102.1 12.1 100.9 12.4 101.9 12.3 C 102.5 12.1 103.1 11.9 103.7 11.7 C 104.5 11.9 102.8 12.1 102.6 12.2 C 105.9 11.8 104.4 11.6 106.2 11.2 C 106.8 11.3 106.7 11.6 108.2 11.4 C 108.8 11.2 109.0 10.9 110.7 10.7 C 111.9 10.6 110.7 11.0 112.0 10.9 C 112.2 10.8 112.8 10.8 113.3 10.7 C 113.3 10.6 113.8 10.5 114.6 10.3 C 114.8 10.4 116.0 10.2 116.5 10.1 C 116.7 10.2 118.7 10.3 119.1 10.1 C 119.1 10.0 118.0 10.1 117.9 10.1 C 119.3 9.9 120.3 9.8 121.1 9.6 C 121.6 10.1 123.9 9.5 127.0 9.5 C 128.8 9.2 126.5 9.1 128.9 8.8 C 130.3 8.8 128.6 9.0 128.9 9.2 C 129.3 9.2 131.5 9.3 131.6 9.1 C 131.6 8.9 130.4 9.1 130.3 9.0 C 132.0 8.6 132.0 8.9 132.9 9.0 C 132.8 8.8 133.9 8.6 134.2 8.5 C 138.9 8.0 138.9 8.5 140.9 8.6 C 140.9 8.5 142.0 8.5 142.2 8.4 C 140.8 8.5 139.0 8.4 140.8 8.3 C 140.5 8.4 143.3 8.1 143.5 8.1 C 143.2 7.9 141.4 8.1 142.1 7.8 C 144.7 7.6 143.6 8.1 145.5 7.8 C 145.7 8.0 144.6 8.0 144.2 8.1 C 144.9 8.1 146.0 8.0 146.2 8.1 C 145.2 8.2 145.2 8.4 144.8 8.6 C 146.1 8.3 148.5 8.4 146.8 8.2 C 149.5 8.2 152.0 8.0 150.2 7.8 C 152.3 7.7 151.1 8.0 152.9 7.8 C 152.6 8.1 152.1 8.2 153.5 8.4 C 153.8 8.3 155.0 8.2 154.8 8.0 C 158.0 8.0 158.9 8.2 160.2 8.4 C 159.1 8.1 160.6 8.4 162.2 8.1 C 163.2 8.2 162.2 8.5 164.8 8.5 C 162.1 8.1 168.1 8.4 166.9 8.0 C 170.2 8.3 170.1 8.3 173.6 8.4 C 173.2 8.6 172.4 8.7 170.9 8.7 C 171.9 8.5 168.0 8.4 168.2 8.5 C 168.2 8.6 168.2 8.6 168.2 8.7 C 170.8 8.7 172.4 8.8 173.5 9.0 C 174.1 8.8 175.2 8.8 174.9 8.5 C 177.2 8.9 179.8 8.6 180.9 8.9 C 180.0 8.9 179.3 8.9 179.5 9.0 C 180.5 9.0 181.6 9.0 181.5 8.8 C 179.6 8.6 179.2 8.6 178.2 8.7 C 179.1 8.6 176.3 8.3 178.2 8.3 C 178.2 8.7 182.2 8.3 180.9 8.5 C 178.8 8.6 183.3 8.9 183.5 9.0 C 183.5 9.0 183.5 9.0 183.5 9.0 Z M 229.0 119.9 C 230.8 119.4 228.5 119.6 227.1 119.9 C 227.6 119.9 227.8 120.0 227.8 120.1 C 228.3 120.0 228.8 119.8 229.0 119.9 C 229.0 119.9 229.0 119.9 229.0 119.9 Z M 208.5 119.6 C 207.9 120.0 211.0 119.4 212.3 119.3 C 212.0 119.2 211.5 119.2 212.3 119.1 C 210.9 119.1 210.5 119.6 208.5 119.6 C 208.5 119.6 208.5 119.6 208.5 119.6 Z M 135.7 122.8 C 136.3 122.8 137.6 122.8 137.7 122.9 C 138.4 123.0 138.3 122.8 138.4 122.8 C 139.9 122.8 138.0 123.1 140.4 123.1 C 141.3 122.7 136.3 122.3 135.7 122.8 C 135.7 122.8 135.7 122.8 135.7 122.8 Z M 158.2 11.9 C 159.1 12.1 156.9 12.3 157.5 12.5 C 161.2 12.3 158.4 12.0 163.5 12.1 C 163.1 12.1 162.7 12.0 162.8 11.9 C 160.4 12.0 160.2 12.2 160.8 11.7 C 159.7 11.7 159.5 12.2 158.2 11.9 C 158.2 11.9 158.2 11.9 158.2 11.9 Z M 205.1 15.6 C 204.7 15.5 204.4 15.4 204.5 15.3 C 203.0 15.3 203.3 15.3 201.3 15.0 C 201.5 15.4 203.4 15.6 205.1 15.6 C 205.1 15.6 205.1 15.6 205.1 15.6 Z M 305.5 61.9 C 305.5 62.2 305.6 62.4 305.7 62.7 C 305.8 62.5 306.3 63.1 305.9 61.8 C 305.8 61.7 305.8 62.0 305.9 62.2 C 305.7 62.0 305.6 61.4 305.4 61.5 C 305.6 61.8 305.5 61.9 305.5 61.9 C 305.5 61.9 305.5 61.9 305.5 61.9 Z M 289.6 94.1 C 291.6 92.4 285.9 95.6 289.6 94.1 C 289.6 94.1 289.6 94.1 289.6 94.1 C 289.6 94.1 289.6 94.1 289.6 94.1 Z M 295.6 93.2 C 295.7 93.2 296.1 92.8 296.1 92.8 C 297.9 91.5 296.3 92.9 297.3 92.2 C 298.5 91.0 296.4 92.5 297.9 91.0 C 297.5 91.1 296.6 92.4 295.6 93.2 C 295.6 93.2 295.6 93.2 295.6 93.2 Z M 26.9 37.6 C 25.3 38.7 25.1 39.2 25.0 39.7 C 26.0 38.9 26.9 38.3 27.3 38.2 C 29.2 36.6 25.9 39.0 25.5 39.1 C 25.6 38.8 27.0 37.8 26.9 37.6 C 26.9 37.6 26.9 37.6 26.9 37.6 Z M 22.1 41.3 C 21.5 41.9 20.7 42.7 20.8 42.9 C 21.6 42.1 21.8 42.1 21.9 42.2 C 22.6 41.4 21.5 42.1 22.1 41.3 C 22.1 41.3 22.1 41.3 22.1 41.3 Z M 31.9 34.7 C 31.1 35.2 31.5 35.1 31.5 35.3 C 32.7 34.6 32.9 34.6 34.1 33.9 C 34.1 33.8 34.1 33.7 34.0 33.6 C 33.0 34.2 32.9 34.3 32.1 34.9 C 32.0 34.8 32.0 34.7 31.9 34.7 C 31.9 34.7 31.9 34.7 31.9 34.7 Z M 18.1 45.4 C 15.8 47.6 15.3 49.0 14.5 50.7 C 15.7 49.0 16.6 47.1 17.9 46.1 C 19.2 44.6 17.3 46.4 17.3 46.3 C 17.3 46.2 17.8 45.7 18.1 45.4 C 18.1 45.4 18.1 45.4 18.1 45.4 Z M 7.9 66.8 C 7.8 67.3 8.2 68.2 8.3 69.7 C 8.3 69.4 8.3 69.2 8.4 69.2 C 8.3 67.1 7.9 68.3 7.9 66.8 C 7.9 66.8 7.9 66.8 7.9 66.8 Z M 11.0 78.7 C 11.6 79.9 10.8 78.0 11.3 78.5 C 10.6 77.2 10.1 75.7 9.8 75.9 C 10.5 77.3 10.7 77.6 11.0 78.7 C 11.0 78.7 11.0 78.7 11.0 78.7 Z M 16.6 86.8 C 17.8 88.0 16.3 86.0 17.0 86.4 C 16.6 85.9 16.6 86.1 16.5 86.2 C 16.2 85.7 15.9 85.4 15.4 84.8 C 15.6 85.3 17.0 86.8 16.6 86.8 C 16.6 86.8 16.6 86.8 16.6 86.8 Z M 73.7 18.5 C 72.7 18.9 73.0 19.0 70.9 19.5 C 74.1 18.7 72.5 19.8 76.7 18.6 C 76.0 18.7 76.5 18.5 76.7 18.6 C 78.3 18.0 75.2 18.8 76.6 18.2 C 75.4 18.5 76.2 18.6 75.0 18.9 C 73.7 19.0 73.0 19.1 73.7 18.5 C 73.7 18.5 73.7 18.5 73.7 18.5 Z M 76.8 18.9 C 78.0 18.6 77.9 18.2 78.5 18.3 C 79.1 18.1 78.9 18.1 79.0 18.0 C 78.6 18.1 78.5 18.1 78.5 18.0 C 77.4 18.4 76.5 18.7 76.8 18.9 C 76.8 18.9 76.8 18.9 76.8 18.9 Z M 66.1 21.8 C 67.9 21.1 68.5 21.2 69.4 20.7 C 70.1 20.8 70.6 20.2 71.7 20.2 C 73.5 19.6 72.1 19.9 71.6 19.9 C 73.4 19.3 72.1 20.0 73.9 19.4 C 74.2 19.1 71.9 19.8 72.1 19.4 C 70.7 19.8 70.7 20.0 69.9 20.3 C 69.2 20.5 69.4 20.3 69.3 20.2 C 67.7 20.7 67.8 20.5 66.5 21.0 C 66.2 21.3 66.8 21.2 68.2 20.7 C 66.7 21.2 66.1 21.6 64.4 22.0 C 65.5 21.4 60.1 23.1 60.6 23.3 C 62.1 22.9 61.6 22.8 62.2 22.6 C 64.1 22.2 65.3 21.7 66.1 21.8 C 66.1 21.8 66.1 21.8 66.1 21.8 Z M 33.1 35.0 C 32.5 35.2 31.9 35.5 31.1 36.0 C 30.9 35.9 32.0 35.3 30.9 35.8 C 29.6 36.6 29.3 36.9 28.5 37.4 C 29.1 37.2 31.9 35.7 30.5 36.7 C 31.0 36.5 31.9 36.0 33.2 35.3 C 31.6 35.8 35.1 34.1 36.5 33.3 C 36.2 33.1 39.0 32.1 40.0 31.4 C 39.0 31.6 36.2 33.3 35.1 34.0 C 35.6 33.6 31.5 35.4 33.1 35.0 C 33.1 35.0 33.1 35.0 33.1 35.0 Z M 81.4 17.6 C 81.7 17.4 83.1 17.1 82.0 17.3 C 82.5 17.1 83.6 17.0 83.1 16.7 C 83.7 16.6 84.3 16.4 84.9 16.3 C 84.7 16.5 83.0 16.8 83.7 16.9 C 84.9 16.5 84.5 16.7 86.1 16.4 C 85.3 16.8 86.2 16.6 85.7 17.0 C 86.1 16.8 87.6 16.5 87.4 16.3 C 89.7 15.9 86.8 16.8 89.9 16.2 C 89.8 16.4 87.7 16.8 86.9 16.9 C 86.5 17.2 90.7 16.2 92.9 15.8 C 90.9 16.0 92.4 15.5 93.4 15.1 C 94.1 15.0 93.4 15.3 94.7 15.2 C 95.7 15.0 96.2 14.7 96.6 14.8 C 97.4 14.7 97.0 14.5 97.1 14.4 C 98.6 14.2 97.5 14.7 99.6 14.3 C 98.0 14.2 99.8 13.8 102.7 13.5 C 102.5 13.4 101.6 13.5 101.4 13.4 C 101.8 13.2 103.5 13.3 104.0 13.3 C 105.0 13.1 104.3 13.1 103.3 13.2 C 103.9 13.1 104.5 12.9 105.2 12.7 C 102.1 13.1 97.1 14.0 91.5 14.7 C 92.6 14.7 91.3 15.0 89.7 15.2 C 89.4 15.1 90.1 15.0 90.9 14.8 C 88.9 14.9 89.1 15.5 86.1 16.0 C 84.4 16.2 87.9 15.4 86.0 15.7 C 84.9 16.0 84.2 16.3 83.6 16.2 C 81.8 16.7 81.3 17.1 78.4 17.8 C 80.1 17.5 80.9 17.9 82.6 17.4 C 82.6 17.3 81.9 17.5 81.4 17.6 C 81.4 17.6 81.4 17.6 81.4 17.6 Z M 22.0 42.3 C 21.2 43.0 20.9 43.5 20.6 43.6 C 19.2 44.9 20.9 43.6 21.3 43.4 C 21.9 42.8 22.0 42.5 22.0 42.3 C 22.0 42.3 22.0 42.3 22.0 42.3 Z M 144.2 125.3 C 146.7 125.5 146.2 125.2 148.2 125.2 C 146.6 125.1 146.2 124.9 143.6 124.8 C 143.4 125.0 143.4 125.2 144.2 125.3 C 144.2 125.3 144.2 125.3 144.2 125.3 Z M 27.4 38.4 C 28.7 37.2 26.0 39.8 25.8 39.6 C 24.4 40.9 27.3 38.7 26.1 39.9 C 27.3 38.8 28.2 38.4 30.0 37.1 C 29.8 37.0 28.4 38.0 27.0 38.9 C 26.8 39.0 27.5 38.4 27.4 38.4 C 27.4 38.4 27.4 38.4 27.4 38.4 Z M 118.6 122.8 C 116.9 122.8 120.2 123.5 121.2 123.7 C 121.3 123.3 120.8 123.3 118.6 122.8 C 118.6 122.8 118.6 122.8 118.6 122.8 Z M 161.6 125.2 C 162.5 124.9 158.6 125.2 159.6 124.9 C 158.4 124.9 158.3 125.0 158.2 125.1 C 157.6 125.0 155.7 125.0 156.2 124.8 C 155.9 124.6 159.2 124.9 158.2 124.6 C 159.3 124.6 159.4 124.7 160.2 124.7 C 158.3 124.7 159.2 124.9 161.6 125.0 C 161.6 124.8 160.5 124.9 161.6 124.7 C 161.7 124.8 162.9 125.0 162.9 125.3 C 165.0 125.3 163.7 124.9 166.2 124.9 C 166.0 124.7 164.4 124.7 163.5 124.7 C 163.8 124.4 166.1 124.9 165.5 124.5 C 166.0 124.7 167.5 124.8 167.5 125.0 C 165.7 125.1 164.4 125.3 162.9 125.5 C 164.3 125.6 166.4 125.0 168.9 125.2 C 168.6 125.0 170.1 125.0 169.6 124.8 C 171.5 124.8 170.6 125.2 170.2 125.2 C 170.7 125.3 174.5 125.1 174.2 124.9 C 174.5 125.1 179.0 124.9 178.8 124.6 C 180.2 124.7 182.2 124.2 182.8 124.5 C 183.6 124.4 185.1 124.3 186.8 124.2 C 187.2 123.9 184.4 124.2 184.1 124.0 C 183.6 123.8 187.2 123.9 186.8 123.7 C 186.8 123.6 186.8 123.6 186.8 123.5 C 185.4 123.7 184.1 123.9 182.8 124.0 C 181.8 124.0 183.0 123.9 182.8 123.8 C 181.9 124.0 177.6 124.5 177.5 124.1 C 174.7 124.3 172.7 124.3 171.5 124.5 C 169.8 124.5 172.5 124.4 171.5 124.2 C 166.5 124.7 160.4 124.3 156.2 124.7 C 155.3 124.6 155.7 124.5 155.5 124.3 C 149.8 124.4 154.7 124.9 150.2 124.7 C 150.2 124.4 152.4 124.5 152.2 124.3 C 150.7 124.3 150.3 124.4 148.2 124.3 C 148.2 124.4 148.2 124.5 148.2 124.6 C 146.5 124.5 147.2 124.3 146.3 124.1 C 144.1 124.1 144.6 124.3 143.6 124.0 C 141.6 124.0 139.7 124.0 137.6 123.7 C 136.3 123.8 138.8 124.4 140.9 124.5 C 140.8 124.5 140.2 124.5 140.2 124.6 C 137.8 124.3 137.4 123.8 133.7 123.5 C 136.5 124.0 132.2 123.5 131.7 123.3 C 130.2 123.2 131.3 123.6 132.3 123.7 C 132.1 123.8 131.2 123.6 131.1 123.5 C 130.9 123.8 134.4 124.3 138.2 124.3 C 136.5 124.7 141.0 124.5 138.9 124.9 C 142.0 124.9 139.4 124.5 142.9 124.7 C 142.6 124.6 141.9 124.5 141.6 124.3 C 144.3 124.4 143.5 124.7 146.2 124.8 C 146.7 124.6 144.9 124.6 144.9 124.4 C 147.9 124.8 148.9 124.9 150.9 125.1 C 151.3 125.0 150.8 124.8 154.2 125.0 C 154.2 125.0 154.2 125.1 154.2 125.1 C 152.6 125.1 152.2 125.5 156.2 125.6 C 156.5 125.4 155.3 125.4 154.2 125.4 C 154.7 125.2 156.0 125.2 157.5 125.2 C 158.3 125.2 159.2 125.3 158.2 125.3 C 158.8 125.6 159.4 125.1 161.6 125.2 C 161.6 125.2 161.6 125.2 161.6 125.2 Z M 8.6 64.4 C 8.6 64.8 8.6 65.2 8.6 65.9 C 8.8 66.2 8.8 64.9 9.0 64.9 C 9.1 63.9 8.7 64.7 8.6 64.4 C 8.6 64.4 8.6 64.4 8.6 64.4 Z M 13.9 51.6 C 13.6 51.5 13.4 52.4 12.7 53.4 C 12.7 53.8 13.4 52.5 13.6 52.6 C 14.4 51.4 13.0 52.7 13.9 51.6 C 13.9 51.6 13.9 51.6 13.9 51.6 Z M 10.8 57.0 C 10.4 57.4 10.7 57.5 11.1 56.5 C 11.2 56.7 11.2 56.9 11.0 57.6 C 11.5 57.0 11.3 56.4 12.0 55.3 C 11.6 55.6 11.2 56.2 10.8 57.0 C 10.8 57.0 10.8 57.0 10.8 57.0 Z M 10.1 58.8 C 10.0 59.6 9.6 59.9 9.5 61.2 C 9.7 60.9 10.4 58.3 10.5 57.9 C 10.5 57.4 9.5 60.2 10.1 58.8 C 10.1 58.8 10.1 58.8 10.1 58.8 Z M 93.5 118.9 C 94.1 119.0 94.0 118.9 94.1 118.8 C 96.0 119.5 98.6 119.9 96.5 119.9 C 98.5 120.0 100.3 120.6 102.0 121.0 C 103.5 121.2 102.8 120.9 104.0 121.0 C 105.8 121.3 103.0 121.0 103.3 121.2 C 103.7 121.4 104.3 121.1 106.5 121.6 C 105.9 121.0 108.4 121.9 107.7 121.3 C 109.0 121.7 109.4 121.6 111.0 121.8 C 110.8 121.6 109.3 121.4 109.1 121.2 C 108.3 120.8 108.2 121.3 109.7 121.4 C 108.8 121.6 106.6 120.9 105.9 121.0 C 105.2 120.6 108.0 121.2 107.2 120.9 C 106.6 120.8 106.1 120.8 105.9 120.8 C 105.0 120.7 104.4 120.5 104.1 120.3 C 104.6 120.4 104.7 120.4 104.7 120.5 C 105.8 120.7 103.6 119.9 106.0 120.3 C 105.6 120.1 104.6 120.0 104.8 119.9 C 104.1 119.6 104.7 120.5 102.2 119.9 C 100.5 119.9 106.1 120.7 104.6 121.0 C 101.1 120.4 103.1 120.3 100.3 119.8 C 100.3 119.9 100.4 120.0 99.6 119.9 C 99.7 120.1 100.8 120.2 101.5 120.3 C 101.4 120.4 100.3 120.2 99.6 120.1 C 99.7 120.2 100.3 120.3 100.3 120.4 C 97.9 119.9 98.2 119.4 100.4 119.7 C 100.3 119.4 97.4 119.0 96.6 118.9 C 97.4 119.3 96.6 119.1 97.2 119.4 C 97.8 119.5 97.7 119.4 97.9 119.4 C 98.9 119.6 97.9 119.5 97.8 119.6 C 96.6 119.4 96.7 119.2 95.4 119.1 C 95.7 119.1 96.0 119.1 96.0 119.0 C 95.4 118.9 94.8 118.8 94.2 118.7 C 94.2 118.8 93.4 118.7 93.5 118.9 C 93.5 118.9 93.5 118.9 93.5 118.9 Z M 126.4 123.9 C 128.6 124.2 127.4 123.8 126.4 123.8 C 126.9 123.7 127.6 123.7 128.4 123.8 C 127.8 123.6 127.2 123.6 125.2 123.4 C 127.0 123.2 125.2 122.7 121.9 122.4 C 121.0 122.7 123.7 123.1 122.6 123.2 C 124.9 123.3 126.2 123.6 126.4 123.9 C 126.4 123.9 126.4 123.9 126.4 123.9 Z M 21.3 43.4 C 20.4 44.3 19.5 45.1 18.7 45.9 C 18.9 46.0 21.8 43.5 21.3 43.4 C 21.3 43.4 21.3 43.4 21.3 43.4 Z M 107.7 12.7 C 108.3 12.6 108.3 12.6 108.4 12.7 C 110.2 12.3 107.5 12.6 108.3 12.3 C 107.7 12.4 107.1 12.4 106.4 12.5 C 106.3 12.6 109.1 12.4 107.1 12.7 C 107.2 12.8 107.7 12.7 107.7 12.7 C 107.7 12.7 107.7 12.7 107.7 12.7 Z M 9.1 63.5 C 9.0 64.4 9.4 63.9 9.2 65.9 C 9.4 65.2 9.3 64.7 9.5 63.6 C 9.3 63.5 9.2 63.5 9.1 63.5 C 9.1 63.5 9.1 63.5 9.1 63.5 Z M 84.4 117.4 C 85.8 118.0 86.3 117.5 89.2 118.3 C 87.8 117.7 86.1 117.7 84.4 117.4 C 84.4 117.4 84.4 117.4 84.4 117.4 Z M 192.0 123.4 C 191.1 123.4 192.3 123.2 190.7 123.3 C 189.8 123.4 189.4 123.6 188.1 123.7 C 189.9 123.8 193.2 123.3 194.6 123.6 C 196.2 123.4 196.0 123.1 196.5 122.9 C 195.8 123.0 195.4 123.0 195.2 122.9 C 194.3 123.4 193.1 122.9 192.0 123.4 C 192.0 123.4 192.0 123.4 192.0 123.4 Z M 118.0 122.7 C 116.8 122.4 118.9 122.6 119.3 122.4 C 120.2 122.6 119.9 122.7 120.0 122.8 C 121.1 122.9 121.5 122.8 121.3 122.6 C 119.1 122.4 116.5 122.0 118.1 121.9 C 116.1 121.6 117.1 122.1 116.1 122.0 C 115.0 121.7 116.1 121.8 116.2 121.5 C 115.7 121.5 114.1 121.6 114.3 121.3 C 111.2 121.3 112.5 121.8 114.7 122.5 C 116.8 122.5 114.5 122.1 118.0 122.7 C 118.0 122.7 118.0 122.7 118.0 122.7 Z M 39.6 101.9 C 39.7 102.1 41.0 102.7 41.0 102.8 C 42.7 103.3 44.2 103.8 45.8 104.2 C 45.6 103.9 43.4 103.1 44.2 103.7 C 43.6 103.2 42.2 102.4 41.4 101.9 C 39.9 101.1 39.2 101.3 39.2 100.9 C 37.7 100.3 38.5 100.7 36.4 99.5 C 39.7 101.6 35.1 98.9 34.8 99.1 C 36.7 100.2 38.5 101.1 38.4 100.7 C 39.8 101.6 41.5 102.5 41.8 102.9 C 41.6 102.9 40.4 102.3 39.6 101.9 C 39.6 101.9 39.6 101.9 39.6 101.9 Z M 49.1 105.5 C 48.4 105.2 47.8 105.0 46.7 104.5 C 47.3 104.9 47.5 105.1 47.4 105.1 C 49.4 106.0 50.0 106.1 50.6 106.6 C 52.6 107.4 50.2 106.1 53.3 107.4 C 53.1 107.2 51.6 106.6 51.6 106.5 C 51.3 106.6 50.0 106.2 49.1 105.5 C 49.1 105.5 49.1 105.5 49.1 105.5 Z M 67.3 112.4 C 68.8 112.8 66.6 112.0 67.4 112.1 C 67.0 112.0 64.3 111.1 64.7 111.0 C 64.0 110.4 61.1 110.2 61.5 109.9 C 60.9 109.7 61.1 109.9 60.9 109.9 C 62.8 110.5 62.8 110.7 61.4 110.3 C 61.6 110.4 62.7 110.8 63.5 111.0 C 63.7 110.9 62.9 110.7 63.1 110.6 C 64.7 111.2 65.8 111.8 67.3 112.4 C 67.3 112.4 67.3 112.4 67.3 112.4 Z M 179.4 10.1 C 177.8 10.0 176.9 10.0 176.1 10.0 C 176.5 10.2 177.3 10.1 178.1 10.1 C 178.3 10.3 177.6 10.2 176.7 10.2 C 177.5 10.5 180.3 10.4 179.4 10.1 C 179.4 10.1 179.4 10.1 179.4 10.1 Z M 166.1 9.7 C 164.6 9.6 163.7 9.7 163.5 9.8 C 164.1 10.0 163.9 9.7 164.8 9.7 C 165.4 9.8 165.8 9.9 166.1 10.0 C 166.8 10.0 166.6 9.9 166.8 9.8 C 167.4 9.8 167.4 9.9 167.5 9.9 C 169.3 9.7 165.3 9.9 166.1 9.7 C 166.1 9.7 166.1 9.7 166.1 9.7 Z M 58.2 109.3 C 57.8 109.0 57.5 108.7 56.2 108.3 C 56.4 108.6 55.4 108.2 54.6 107.9 C 55.7 108.5 56.4 108.6 58.2 109.3 C 58.2 109.3 58.2 109.3 58.2 109.3 Z M 85.7 17.2 C 83.8 17.4 84.1 17.7 81.5 18.1 C 81.6 18.2 81.6 18.3 81.6 18.4 C 83.1 17.8 83.8 17.8 85.7 17.2 C 85.7 17.2 85.7 17.2 85.7 17.2 Z M 307.2 77.9 C 307.2 77.7 306.5 79.1 306.3 79.1 C 306.5 79.5 305.7 79.9 304.0 82.4 C 303.9 82.4 304.0 82.2 304.2 81.9 C 302.7 83.9 304.8 81.5 305.2 81.3 C 306.2 79.7 306.5 79.5 307.2 77.9 C 307.2 77.9 307.2 77.9 307.2 77.9 Z M 172.2 123.8 C 172.1 123.9 172.4 123.8 172.8 123.8 C 173.3 123.8 173.7 123.8 174.1 123.8 C 174.0 123.5 171.8 123.4 173.5 123.0 C 172.9 123.0 172.8 123.1 172.8 123.1 C 169.6 123.9 167.1 122.8 162.9 123.3 C 162.2 123.3 162.3 123.4 162.2 123.5 C 162.7 123.5 162.8 123.5 162.9 123.6 C 163.4 123.2 167.2 123.5 165.5 123.7 C 165.6 123.8 166.2 123.7 166.2 123.7 C 166.6 123.7 167.1 123.7 167.5 123.7 C 167.3 123.6 166.4 123.5 166.2 123.4 C 168.3 123.5 170.9 123.5 169.5 123.9 C 170.8 123.8 171.3 123.6 172.2 123.5 C 173.0 123.5 173.0 123.8 172.2 123.8 C 172.2 123.8 172.2 123.8 172.2 123.8 Z M 189.3 122.8 C 191.3 122.7 190.5 122.5 192.6 122.4 C 191.3 122.3 189.7 122.7 188.0 122.7 C 188.2 122.7 189.1 122.7 189.3 122.8 C 189.3 122.8 189.3 122.8 189.3 122.8 Z M 150.9 123.5 C 151.3 123.2 149.5 123.1 147.6 123.1 C 147.2 123.3 148.9 123.4 150.9 123.5 C 150.9 123.5 150.9 123.5 150.9 123.5 Z M 159.6 123.6 C 161.5 123.5 157.1 123.5 158.2 123.2 C 157.3 123.3 156.3 123.3 156.3 123.2 C 155.5 123.2 155.5 123.3 154.3 123.3 C 154.3 123.4 156.4 123.4 156.3 123.6 C 157.7 123.4 158.0 123.4 159.6 123.6 C 159.6 123.6 159.6 123.6 159.6 123.6 Z M 160.9 123.6 C 162.1 123.5 160.5 123.1 158.9 123.1 C 159.5 123.3 159.9 123.4 160.9 123.6 C 160.9 123.6 160.9 123.6 160.9 123.6 Z M 17.7 84.4 C 18.2 84.9 18.0 84.4 18.6 85.0 C 18.7 85.0 16.5 82.5 18.3 84.5 C 17.9 83.6 17.2 83.4 16.6 82.5 C 16.7 82.8 16.9 83.1 16.4 82.6 C 16.1 82.4 18.1 84.5 17.7 84.4 C 17.7 84.4 17.7 84.4 17.7 84.4 Z M 19.9 86.8 C 20.4 87.3 20.2 87.0 20.0 86.8 C 20.1 86.8 20.8 87.5 21.3 88.0 C 21.3 88.1 20.7 86.8 20.8 86.7 C 18.7 84.8 20.1 86.6 19.9 86.8 C 19.9 86.8 19.9 86.8 19.9 86.8 Z M 22.2 88.7 C 23.5 90.2 25.9 92.0 27.1 92.7 C 26.1 91.5 23.1 89.1 22.2 88.7 C 22.2 88.7 22.2 88.7 22.2 88.7 Z M 12.2 75.0 C 12.9 77.6 16.0 82.4 13.9 77.8 C 13.8 78.0 12.3 75.1 11.9 73.6 C 11.8 73.6 11.2 72.0 11.3 72.0 C 10.9 70.9 12.3 75.6 12.2 75.0 C 12.2 75.0 12.2 75.0 12.2 75.0 Z M 29.6 93.8 C 28.6 93.3 29.5 94.5 28.2 93.4 C 27.4 92.8 28.4 93.6 28.1 93.6 C 29.8 94.8 33.8 97.0 34.1 97.4 C 35.1 97.9 35.5 98.0 37.5 99.1 C 37.6 99.0 30.6 95.3 29.5 94.0 C 29.7 94.0 31.9 95.4 29.6 93.8 C 29.6 93.8 29.6 93.8 29.6 93.8 Z M 86.0 18.6 C 86.1 18.4 83.7 19.1 84.1 18.7 C 82.9 19.3 81.6 19.4 80.2 19.9 C 79.7 20.0 79.8 19.6 77.7 20.0 C 77.7 20.3 78.7 19.9 77.8 20.3 C 76.0 20.8 76.4 20.4 74.3 21.1 C 74.8 21.4 70.0 22.3 70.5 22.6 C 71.6 22.3 71.5 22.1 73.3 21.7 C 73.9 21.5 73.7 21.7 74.5 21.5 C 74.0 21.9 72.9 21.8 72.2 22.2 C 72.4 22.3 73.8 22.0 74.0 22.1 C 74.8 21.8 73.8 22.0 74.0 21.8 C 76.1 21.2 73.9 22.4 76.3 21.7 C 75.8 21.6 75.8 21.6 76.2 21.2 C 77.2 21.1 80.1 20.2 78.6 20.9 C 78.8 21.0 80.5 20.3 80.2 20.2 C 81.2 20.0 81.3 20.0 81.4 20.1 C 83.9 19.4 84.2 19.2 83.6 19.0 C 84.1 18.7 84.5 19.0 86.0 18.6 C 86.0 18.6 86.0 18.6 86.0 18.6 Z M 11.6 61.3 C 11.7 60.2 11.4 62.4 11.1 63.4 C 11.4 62.2 11.6 62.6 12.0 61.4 C 11.8 61.8 11.7 61.7 12.0 60.9 C 11.9 60.6 11.3 62.5 11.6 61.3 C 11.6 61.3 11.6 61.3 11.6 61.3 Z M 41.7 101.2 C 42.4 101.8 46.4 103.5 48.6 104.5 C 48.3 103.9 43.0 102.1 42.5 101.5 C 41.3 100.9 43.1 101.9 41.7 101.2 C 41.7 101.2 41.7 101.2 41.7 101.2 Z M 64.4 24.0 C 63.8 24.2 64.1 24.1 64.4 24.0 C 64.3 24.2 63.1 24.5 62.3 24.8 C 63.5 24.6 62.1 25.1 62.4 25.3 C 61.8 25.4 61.5 25.6 61.4 25.7 C 61.2 25.3 58.2 27.0 61.5 26.0 C 60.8 25.9 61.1 25.9 62.5 25.3 C 64.0 25.0 65.2 24.4 65.8 24.5 C 66.7 24.2 67.1 23.9 68.4 23.6 C 68.8 23.7 70.0 23.4 69.1 24.0 C 71.5 23.3 69.8 23.2 71.8 22.6 C 73.7 22.2 70.9 23.1 71.3 23.2 C 71.8 23.1 71.7 23.2 71.9 23.2 C 72.6 23.0 72.6 22.8 71.9 23.0 C 72.1 22.8 74.0 22.1 73.5 22.5 C 74.6 22.1 71.5 22.3 70.1 23.0 C 69.1 23.3 69.0 22.8 69.9 22.6 C 69.6 22.5 67.9 23.6 68.2 22.9 C 67.5 23.2 66.8 23.4 66.1 23.6 C 66.2 23.6 66.6 23.5 66.6 23.6 C 65.9 23.8 65.2 24.0 64.5 24.3 C 65.1 23.9 65.0 23.9 64.4 24.0 C 64.4 24.0 64.4 24.0 64.4 24.0 Z M 32.9 96.4 C 34.5 97.3 35.0 97.4 36.3 98.1 C 35.8 97.7 32.3 95.7 32.9 96.4 C 32.9 96.4 32.9 96.4 32.9 96.4 Z M 96.4 17.3 C 96.2 17.2 95.1 17.5 95.1 17.4 C 97.0 16.9 94.8 17.2 96.2 16.5 C 93.8 17.2 93.1 17.9 96.4 17.5 C 98.8 17.0 94.0 17.8 96.4 17.3 C 96.4 17.3 96.4 17.3 96.4 17.3 Z M 89.1 18.5 C 87.6 19.0 91.3 18.3 92.2 18.2 C 92.2 18.3 92.2 18.4 92.2 18.5 C 94.2 17.7 91.4 18.1 93.2 17.3 C 90.8 17.6 89.8 17.8 87.8 18.3 C 87.9 18.4 88.4 18.2 88.4 18.2 C 89.9 17.9 88.9 18.4 87.3 18.7 C 87.8 18.7 89.2 18.4 90.3 18.2 C 90.0 18.2 89.6 18.2 89.6 18.1 C 90.9 17.8 90.5 18.1 91.4 17.9 C 91.4 18.0 89.2 18.7 89.1 18.5 C 89.1 18.5 89.1 18.5 89.1 18.5 Z M 216.0 15.5 C 214.7 15.4 217.3 16.1 217.1 16.4 C 218.4 16.7 218.7 16.6 219.6 16.7 C 219.2 16.5 217.7 16.3 217.2 16.0 C 217.4 15.7 219.1 16.4 219.7 16.3 C 220.5 16.0 216.5 15.9 216.0 15.5 C 216.0 15.5 216.0 15.5 216.0 15.5 Z M 33.7 37.6 C 33.1 38.0 33.5 37.9 33.8 37.7 C 33.7 37.9 32.6 38.5 32.6 38.4 C 31.6 39.0 33.2 38.2 32.1 38.9 C 31.9 39.2 33.8 37.9 33.8 37.8 C 35.2 36.9 34.3 37.8 34.7 37.7 C 35.9 37.0 35.3 37.0 37.2 36.1 C 36.0 36.6 35.0 37.0 33.7 37.6 C 33.7 37.6 33.7 37.6 33.7 37.6 Z M 100.6 16.1 C 100.8 16.0 99.2 16.7 97.5 16.8 C 95.4 17.2 98.9 16.8 97.0 17.1 C 98.6 16.9 100.5 16.4 103.1 15.9 C 103.7 15.7 99.6 16.4 101.8 16.0 C 101.7 15.9 101.2 16.0 101.2 16.1 C 100.7 16.2 100.6 16.1 100.6 16.1 C 100.6 16.1 100.6 16.1 100.6 16.1 Z M 98.2 17.1 C 98.3 17.1 98.9 17.0 98.8 17.0 C 99.6 16.8 99.7 17.1 98.9 17.2 C 100.0 17.3 99.8 16.8 101.9 16.6 C 101.0 16.6 100.6 16.5 102.5 16.4 C 104.1 15.9 98.9 16.8 98.2 17.1 C 98.2 17.1 98.2 17.1 98.2 17.1 Z M 195.6 13.2 C 195.8 13.3 197.2 13.4 198.2 13.5 C 196.9 13.6 191.7 13.0 191.1 12.8 C 190.5 12.8 189.9 12.8 189.8 12.7 C 189.8 12.8 188.4 12.8 189.1 12.9 C 189.0 13.0 187.8 12.8 187.8 12.9 C 185.9 12.7 188.4 12.8 187.9 12.6 C 185.5 12.7 186.0 12.5 183.3 12.3 C 183.7 12.6 186.8 12.7 186.5 13.0 C 188.7 12.9 191.0 13.3 192.3 13.6 C 190.3 13.1 197.9 13.6 201.4 14.0 C 201.3 14.2 202.5 14.2 203.9 14.5 C 204.9 14.9 204.6 14.3 202.7 14.2 C 202.8 14.1 205.4 14.5 206.5 14.6 C 205.2 14.3 206.0 14.3 205.3 14.1 C 202.8 13.8 205.0 14.2 204.6 14.3 C 204.0 14.2 203.3 14.2 202.7 14.1 C 206.1 14.1 197.8 13.5 200.8 13.8 C 198.2 13.5 198.1 13.3 195.6 13.2 C 195.6 13.2 195.6 13.2 195.6 13.2 Z M 133.8 12.3 C 133.3 12.4 131.3 12.7 131.2 12.5 C 128.5 12.9 130.9 12.9 127.9 13.2 C 128.1 13.2 129.2 13.1 129.3 13.2 C 130.4 13.1 131.5 12.9 131.2 12.7 C 132.5 12.6 132.9 12.5 133.8 12.4 C 133.5 12.5 133.0 12.6 131.8 12.7 C 131.7 12.9 132.1 13.0 133.8 12.9 C 134.6 12.6 134.1 12.5 133.8 12.3 C 133.8 12.3 133.8 12.3 133.8 12.3 Z M 127.3 13.1 C 127.0 13.1 126.6 13.1 126.6 13.0 C 125.7 12.8 126.3 13.3 125.3 13.4 C 124.6 13.4 124.8 13.3 124.7 13.2 C 123.5 13.4 122.7 13.5 122.1 13.5 C 120.3 13.8 124.1 13.5 124.7 13.5 C 126.0 13.4 125.5 13.2 127.3 13.1 C 127.3 13.1 127.3 13.1 127.3 13.1 Z M 108.0 15.0 C 107.7 14.9 107.1 15.3 106.2 15.4 C 106.9 15.5 108.7 15.1 107.5 15.6 C 109.3 15.4 109.5 15.4 111.3 15.1 C 112.5 15.2 111.3 14.9 109.4 15.3 C 109.6 15.1 110.5 15.0 110.6 14.9 C 111.9 15.2 115.0 14.0 113.1 14.6 C 112.6 14.6 112.2 14.6 111.9 14.5 C 111.5 14.8 107.1 15.3 108.0 15.0 C 108.0 15.0 108.0 15.0 108.0 15.0 Z M 48.9 30.5 C 50.5 29.8 51.4 29.5 52.2 29.1 C 53.0 28.8 54.3 28.4 55.3 28.0 C 55.4 28.1 55.2 28.2 54.9 28.3 C 55.3 28.3 56.0 28.0 56.8 27.6 C 56.7 27.5 56.3 27.7 56.3 27.8 C 54.6 28.2 56.0 27.7 56.2 27.4 C 54.1 28.0 51.2 29.6 49.6 29.9 C 48.4 30.5 49.9 29.9 48.9 30.5 C 48.9 30.5 48.9 30.5 48.9 30.5 Z M 306.2 75.4 C 306.2 75.6 305.9 76.3 306.1 76.3 C 306.3 75.6 306.4 75.2 306.6 74.6 C 306.1 75.7 305.9 75.4 305.2 76.9 C 305.5 76.4 305.7 76.7 306.2 75.4 C 306.2 75.4 306.2 75.4 306.2 75.4 Z M 114.4 14.3 C 114.5 14.4 114.6 14.5 113.8 14.6 C 113.6 14.8 115.6 14.5 115.7 14.6 C 116.4 14.5 116.1 14.4 117.0 14.3 C 116.7 14.2 115.0 14.5 115.7 14.1 C 116.2 14.1 116.3 14.1 116.3 14.1 C 117.6 13.9 115.6 14.1 114.4 14.3 C 114.4 14.3 114.4 14.3 114.4 14.3 Z M 222.1 16.8 C 221.3 16.6 222.1 16.9 222.7 17.0 C 220.9 17.0 223.7 17.6 223.8 17.9 C 223.1 17.5 220.6 17.2 220.2 17.1 C 219.5 17.0 220.3 17.4 218.3 17.1 C 218.5 17.3 220.7 17.5 220.2 17.2 C 220.7 17.6 222.8 17.6 222.6 17.9 C 225.3 18.4 226.0 18.4 226.3 18.2 C 223.6 17.8 225.0 17.6 222.7 17.3 C 222.7 17.2 223.4 17.3 223.9 17.4 C 223.7 17.2 222.7 17.0 222.1 16.8 C 222.1 16.8 222.1 16.8 222.1 16.8 Z M 154.9 11.7 C 153.4 11.7 153.5 11.9 153.5 12.1 C 154.1 12.0 155.0 12.0 156.2 12.0 C 155.9 11.8 154.1 11.9 154.9 11.7 C 154.9 11.7 154.9 11.7 154.9 11.7 Z M 212.1 15.5 C 212.0 15.4 211.5 15.4 211.5 15.4 C 209.9 15.2 209.6 15.0 209.0 14.8 C 208.2 14.8 208.5 15.0 208.4 15.1 C 209.9 15.1 209.5 15.4 211.5 15.6 C 211.4 15.5 211.6 15.5 212.1 15.5 C 212.1 15.5 212.1 15.5 212.1 15.5 Z M 168.7 11.9 C 168.0 11.9 168.4 12.0 168.7 12.0 C 167.8 12.2 165.1 11.9 164.1 12.0 C 164.0 12.2 167.3 12.2 163.4 12.3 C 164.2 12.5 167.6 12.4 169.4 12.5 C 169.0 12.7 166.6 12.6 166.7 12.9 C 168.8 12.8 171.0 12.7 171.4 12.4 C 168.4 12.2 169.4 12.1 168.7 11.9 C 168.7 11.9 168.7 11.9 168.7 11.9 Z M 172.0 12.1 C 171.8 12.0 171.2 12.1 170.1 12.1 C 171.7 12.4 172.7 12.3 176.0 12.5 C 176.0 12.5 176.0 12.4 176.0 12.4 C 176.6 12.4 177.3 12.4 178.0 12.4 C 175.1 12.0 174.4 12.2 171.4 12.2 C 171.2 12.1 171.6 12.1 172.0 12.1 C 172.0 12.1 172.0 12.1 172.0 12.1 Z M 86.1 19.3 C 87.0 19.3 87.7 19.3 89.2 19.0 C 89.0 18.8 88.1 18.9 86.1 19.3 C 86.1 19.3 86.1 19.3 86.1 19.3 Z M 214.6 16.0 C 216.3 16.1 213.0 15.8 214.0 16.2 C 215.3 16.5 216.7 16.8 217.0 17.0 C 219.5 17.1 214.3 16.3 214.6 16.0 C 214.6 16.0 214.6 16.0 214.6 16.0 Z M 203.2 15.1 C 202.5 15.0 202.5 14.6 203.2 14.9 C 205.0 15.1 201.7 14.5 204.5 14.9 C 203.3 14.7 200.7 14.3 199.4 14.3 C 199.4 14.5 201.9 14.7 201.9 14.9 C 202.0 15.0 201.7 14.9 201.3 14.9 C 201.5 15.0 202.1 14.9 203.2 15.1 C 203.2 15.1 203.2 15.1 203.2 15.1 Z M 193.6 13.7 C 194.7 14.0 195.9 14.2 198.1 14.4 C 196.7 14.1 195.9 13.8 193.6 13.7 C 193.6 13.7 193.6 13.7 193.6 13.7 Z M 302.9 54.1 C 302.2 53.2 302.5 54.2 302.6 54.3 C 303.2 55.3 303.3 55.1 303.9 56.3 C 303.9 55.8 303.0 54.9 302.9 54.1 C 302.9 54.1 302.9 54.1 302.9 54.1 Z M 304.8 57.8 C 304.7 57.9 305.4 59.3 305.2 59.4 C 306.0 60.0 305.6 61.5 306.0 61.4 C 306.0 61.7 306.1 62.0 306.2 62.6 C 306.4 61.4 305.4 58.9 304.8 57.8 C 304.8 57.8 304.8 57.8 304.8 57.8 Z M 182.5 13.4 C 180.8 13.2 183.0 13.8 181.2 13.6 C 181.1 13.7 184.5 14.0 182.5 14.0 C 185.1 14.3 182.3 13.5 182.5 13.4 C 182.5 13.4 182.5 13.4 182.5 13.4 Z M 150.3 13.1 C 150.4 12.9 147.9 13.1 147.0 13.1 C 147.0 13.2 147.8 13.2 148.3 13.2 C 148.0 13.2 147.7 13.3 147.0 13.4 C 147.5 13.5 149.3 13.1 150.3 13.1 C 150.3 13.1 150.3 13.1 150.3 13.1 Z M 186.1 9.5 C 187.2 9.8 188.6 10.0 189.3 9.8 C 190.5 10.1 188.6 10.0 190.0 10.2 C 191.8 10.2 190.9 10.4 193.9 10.5 C 193.3 10.8 195.5 11.0 195.8 11.2 C 194.6 11.1 193.1 10.7 192.5 10.9 C 193.5 11.0 193.0 11.2 192.5 11.0 C 190.6 10.7 195.0 10.9 192.6 10.5 C 191.8 10.8 188.4 9.9 186.1 9.8 C 187.0 9.6 184.3 9.4 186.1 9.5 C 186.1 9.5 186.1 9.5 186.1 9.5 Z M 197.8 10.9 C 199.4 11.0 200.1 11.6 199.7 11.6 C 199.7 11.5 197.9 11.3 197.7 11.4 C 198.2 11.4 198.6 11.5 198.4 11.5 C 195.5 11.2 196.5 11.1 195.9 10.9 C 197.5 10.9 197.9 11.1 198.5 11.0 C 198.1 11.0 197.7 11.0 197.8 10.9 C 197.8 10.9 197.8 10.9 197.8 10.9 Z M 230.3 19.8 C 230.0 19.6 229.7 19.7 229.1 19.6 C 229.0 19.2 225.9 19.1 225.5 18.8 C 226.2 18.9 227.8 19.2 228.6 19.2 C 227.7 19.0 227.6 18.9 226.7 18.8 C 227.0 18.6 228.7 19.0 229.2 18.9 C 229.4 19.1 230.2 19.1 230.4 19.2 C 228.1 18.9 231.6 20.0 230.3 19.8 C 230.3 19.8 230.3 19.8 230.3 19.8 Z M 167.4 13.1 C 167.2 13.4 170.0 14.0 167.4 14.3 C 166.8 14.0 166.5 13.8 166.7 13.5 C 165.1 13.7 164.4 13.4 163.4 13.6 C 160.4 12.9 165.7 13.7 167.4 13.1 C 167.4 13.1 167.4 13.1 167.4 13.1 Z M 156.8 13.3 C 157.4 13.1 155.9 13.1 156.2 12.9 C 157.5 13.1 161.6 12.8 160.2 13.0 C 158.8 13.1 158.8 13.3 156.8 13.3 C 156.8 13.3 156.8 13.3 156.8 13.3 Z M 77.9 113.6 C 76.0 113.3 75.2 112.6 76.2 112.8 C 75.7 112.9 78.6 113.5 77.9 113.6 C 77.9 113.6 77.9 113.6 77.9 113.6 Z M 11.0 80.5 C 11.7 81.9 12.3 82.6 12.3 82.9 C 11.3 81.6 11.6 81.7 10.9 80.5 C 10.8 80.5 10.3 79.8 10.3 79.6 C 10.7 80.3 10.7 80.1 11.0 80.5 C 11.0 80.5 11.0 80.5 11.0 80.5 Z M 116.5 10.0 C 116.3 9.9 115.5 10.0 115.8 9.8 C 117.8 9.7 120.0 9.2 121.6 8.9 C 121.7 9.0 121.7 9.1 121.7 9.2 C 118.5 9.5 117.8 9.7 116.5 10.0 C 116.5 10.0 116.5 10.0 116.5 10.0 Z M 112.6 10.0 C 112.3 10.2 113.4 10.3 112.0 10.5 C 112.0 10.3 109.5 10.4 110.7 10.2 C 111.1 10.3 111.7 10.2 112.6 10.0 C 112.6 10.0 112.6 10.0 112.6 10.0 Z M 222.6 13.6 C 224.2 13.8 222.0 13.3 222.1 13.2 C 223.2 13.4 224.7 13.7 225.1 13.9 C 224.1 13.7 223.2 13.9 222.6 13.6 C 222.6 13.6 222.6 13.6 222.6 13.6 Z M 199.1 11.0 C 195.8 10.6 197.3 10.4 194.0 10.0 C 195.3 9.9 198.3 10.3 199.2 10.2 C 199.1 10.3 199.9 10.4 199.8 10.5 C 198.6 10.4 198.4 10.3 197.2 10.2 C 197.6 10.5 197.6 10.4 197.2 10.6 C 198.1 10.7 198.6 10.7 199.1 10.7 C 198.9 10.8 200.1 11.0 199.1 11.0 C 199.1 11.0 199.1 11.0 199.1 11.0 Z M 221.9 14.1 C 223.2 14.3 224.2 14.8 223.2 14.6 C 223.0 14.4 222.1 14.4 221.9 14.3 C 223.7 14.5 220.5 13.9 221.4 13.9 C 222.4 14.1 222.8 14.0 222.6 13.8 C 223.3 14.0 224.4 14.1 224.5 14.2 C 224.0 14.2 223.3 14.0 223.2 14.1 C 223.6 14.2 224.0 14.3 223.8 14.3 C 222.7 14.1 222.3 14.1 221.9 14.1 C 221.9 14.1 221.9 14.1 221.9 14.1 Z M 213.2 12.8 C 214.9 13.0 215.1 13.3 215.7 13.5 C 213.4 13.1 213.0 12.7 211.3 12.3 C 213.2 12.7 215.2 12.6 215.8 12.9 C 214.9 12.8 213.4 12.6 213.2 12.8 C 213.2 12.8 213.2 12.8 213.2 12.8 Z M 242.8 115.0 C 241.4 115.2 240.3 115.3 238.7 115.6 C 238.3 116.0 241.2 115.7 240.0 115.9 C 238.4 116.3 239.4 115.7 238.1 116.0 C 239.5 116.0 232.6 117.5 232.2 117.3 C 233.3 117.1 233.6 116.9 233.4 116.8 C 236.2 116.2 237.2 115.8 239.2 115.2 C 240.8 115.2 245.1 114.2 247.2 113.3 C 248.8 113.3 251.4 112.0 253.5 111.8 C 253.9 111.5 251.7 112.0 253.4 111.5 C 254.5 111.4 253.7 111.8 255.2 111.4 C 255.2 111.3 254.9 111.2 255.6 111.0 C 255.5 111.2 256.4 110.9 256.8 110.9 C 253.8 111.8 257.0 111.1 254.7 111.9 C 253.7 112.1 255.6 111.2 252.9 112.0 C 252.0 112.4 251.1 112.7 251.4 112.9 C 250.6 113.1 250.2 113.3 249.7 113.5 C 250.7 112.9 245.9 114.6 248.0 113.7 C 248.2 113.7 249.7 113.2 250.8 112.8 C 249.7 112.9 248.6 113.4 246.8 113.9 C 246.1 113.9 247.1 113.6 246.2 113.8 C 244.9 114.3 246.8 114.0 245.8 114.4 C 246.2 114.3 246.9 114.1 246.9 114.2 C 244.5 114.6 243.6 115.1 242.3 115.4 C 243.1 115.0 240.9 115.5 242.8 115.0 C 242.8 115.0 242.8 115.0 242.8 115.0 Z M 262.5 108.7 C 263.0 108.5 263.6 108.4 264.1 108.2 C 264.3 108.4 262.3 109.1 263.7 108.8 C 261.4 109.6 263.7 108.5 262.5 108.7 C 262.5 108.7 262.5 108.7 262.5 108.7 Z M 251.6 111.4 C 250.7 111.4 251.3 111.8 250.5 112.0 C 251.9 111.6 253.1 111.1 253.3 111.3 C 251.7 111.7 251.0 111.9 249.4 112.5 C 250.9 111.7 247.6 112.7 247.1 112.6 C 248.3 112.2 249.2 111.8 250.9 111.3 C 250.7 111.5 253.1 110.9 251.6 111.4 C 251.6 111.4 251.6 111.4 251.6 111.4 Z M 255.8 109.7 C 256.2 109.8 258.5 108.9 258.1 109.3 C 256.6 109.8 256.1 110.0 256.5 110.1 C 255.5 110.4 255.3 110.4 254.3 110.7 C 253.7 110.6 255.4 110.1 255.9 109.8 C 255.5 109.9 255.2 109.9 255.8 109.7 C 255.8 109.7 255.8 109.7 255.8 109.7 Z M 299.4 84.2 C 300.0 84.0 298.3 85.5 298.0 85.8 C 298.6 85.5 298.5 85.8 297.5 86.8 C 297.7 86.2 296.2 87.8 294.9 88.4 C 294.8 88.8 296.2 87.7 294.7 89.1 C 293.4 90.1 292.4 91.1 290.2 92.6 C 289.6 92.7 290.5 92.0 291.0 91.5 C 289.6 92.6 289.9 92.2 288.7 92.9 C 289.0 92.9 288.1 93.6 287.7 93.7 C 289.7 92.3 284.8 95.2 286.9 93.7 C 287.1 93.8 287.5 93.4 288.0 93.0 C 287.7 93.7 290.3 91.7 291.0 91.5 C 291.7 90.3 294.4 88.5 297.0 86.3 C 297.2 86.3 296.5 87.0 297.1 86.5 C 297.1 86.3 297.9 85.6 298.2 85.2 C 298.3 85.3 298.6 85.1 299.1 84.6 C 299.1 84.5 299.2 84.5 299.4 84.2 C 299.4 84.2 299.4 84.2 299.4 84.2 Z M 137.8 121.2 C 137.9 120.8 133.7 120.8 132.6 120.8 C 132.8 120.4 140.2 120.9 137.8 121.2 C 137.8 121.2 137.8 121.2 137.8 121.2 Z M 163.5 121.5 C 162.4 121.5 163.2 121.7 162.2 121.7 C 162.1 121.5 159.6 122.0 159.6 121.7 C 160.8 121.5 161.6 121.5 163.5 121.5 C 163.5 121.5 163.5 121.5 163.5 121.5 Z M 187.2 120.6 C 185.3 120.8 188.2 120.7 187.8 120.8 C 186.2 120.9 184.5 121.0 184.6 120.8 C 186.1 120.8 187.0 120.4 187.2 120.6 C 187.2 120.6 187.2 120.6 187.2 120.6 Z M 151.6 121.2 C 150.0 121.0 152.7 120.8 152.9 120.9 C 151.2 121.0 154.1 121.2 155.6 121.1 C 155.5 121.4 154.9 121.4 155.6 121.6 C 153.2 121.7 155.2 121.4 153.6 121.4 C 152.5 121.5 153.6 121.5 153.6 121.7 C 152.9 121.7 152.3 121.7 151.6 121.6 C 151.6 121.5 151.6 121.4 151.6 121.2 C 152.4 121.3 153.2 121.3 152.9 121.1 C 152.3 121.1 152.2 121.2 151.6 121.2 C 151.6 121.2 151.6 121.2 151.6 121.2 Z M 268.7 102.9 C 267.4 103.5 268.6 103.1 269.6 102.8 C 269.7 102.6 270.4 101.8 271.8 101.5 C 268.9 103.0 272.9 101.4 271.3 102.2 C 270.5 102.3 268.7 103.4 267.1 103.9 C 266.4 104.0 267.9 103.0 268.7 102.9 C 268.7 102.9 268.7 102.9 268.7 102.9 Z M 274.3 100.7 C 274.1 100.7 273.6 100.9 272.7 101.3 C 273.6 100.7 272.2 101.3 273.4 100.7 C 273.3 100.9 277.2 99.1 274.9 100.2 C 272.8 101.0 275.6 100.1 276.5 99.7 C 275.5 100.1 273.8 101.2 273.5 101.2 C 274.0 100.9 274.4 100.7 274.3 100.7 C 274.3 100.7 274.3 100.7 274.3 100.7 Z M 304.4 76.0 C 304.3 75.8 303.9 76.4 303.8 76.6 C 304.8 74.7 305.3 73.0 305.6 72.1 C 305.4 73.0 305.6 73.0 305.8 72.5 C 305.5 73.5 305.5 73.8 305.3 74.0 C 305.4 73.2 304.9 74.8 304.4 76.0 C 304.4 76.0 304.4 76.0 304.4 76.0 Z M 304.4 76.0 " fill="#000000"></path><image xlink:href="../../CEFA4209-80C9-472B-8D2B-058B96531B72/assets/53DE529C9B23CC4742AB8E7F7EB62785.png" width="153.00" height="39.00" transform="matrix(1.00, 0.00, -0.00, -1.00, 84.0, 82.0)"></image><g><clipPath id="clip-1144"><path d="M 10.8 10.8 L 308.9 10.8 L 308.9 123.2 L 10.8 123.2 Z M 10.8 10.8 "></path></clipPath><g clip-path="url(#clip-1144)"><text xml:space="preserve" font-family="Chalkduster" font-size="32.0" fill="#000000" transform="matrix(1.00, 0.00, -0.00, -1.00, 87.0, 52.0)">N</text><text xml:space="preserve" font-family="Chalkduster" font-size="32.0" fill="#000000" transform="matrix(1.00, 0.00, -0.00, -1.00, 109.8, 52.0)">F</text><text xml:space="preserve" font-family="Chalkduster" font-size="32.0" fill="#000000" transform="matrix(1.00, 0.00, -0.00, -1.00, 133.6, 52.0)">S</text><text xml:space="preserve" font-family="Chalkduster" font-size="32.0" fill="#000000" transform="matrix(1.00, 0.00, -0.00, -1.00, 149.5, 52.0)"> </text><text xml:space="preserve" font-family="Chalkduster" font-size="32.0" fill="#000000" transform="matrix(1.00, 0.00, -0.00, -1.00, 165.4, 52.0)">t</text><text xml:space="preserve" font-family="Chalkduster" font-size="32.0" fill="#000000" transform="matrix(1.00, 0.00, -0.00, -1.00, 179.7, 52.0)">e</text><text xml:space="preserve" font-family="Chalkduster" font-size="32.0" fill="#000000" transform="matrix(1.00, 0.00, -0.00, -1.00, 200.3, 52.0)">s</text><text xml:space="preserve" font-family="Chalkduster" font-size="32.0" fill="#000000" transform="matrix(1.00, 0.00, -0.00, -1.00, 217.4, 52.0)">t</text></g></g></g></svg>