<?xml version="1.0" encoding="UTF-8" standalone="no"?><svg xmlns="http://www.w3.org/2000/svg" xmlns:xlink="http://www.w3.org/1999/xlink" clip-rule="evenodd" stroke-miterlimit="4.00" viewBox="0 0 293 149"><desc>SVG generated by Keynote</desc><defs></defs><g transform="matrix(1.00, 0.00, -0.00, -1.00, 0.0, 149.0)"><image xlink:href="../../CEFA4209-80C9-472B-8D2B-058B96531B72/assets/65C452F8AD7E2489406FE8FA16CEA794.png" width="291.00" height="146.00" transform="matrix(1.00, 0.00, -0.00, -1.00, 1.4, 147.6)" opacity="0.50"></image><g><clipPath id="clip-1153"><path d="M 243.0 119.8 C 296.3 94.7 296.3 54.1 243.0 29.0 C 189.8 3.9 103.5 3.9 50.3 29.0 C -2.9 54.1 -2.9 94.7 50.3 119.8 C 103.5 144.9 189.8 144.9 243.0 119.8 Z M 243.0 119.8 "></path></clipPath><g clip-path="url(#clip-1153)"><image xlink:href="../../CEFA4209-80C9-472B-8D2B-058B96531B72/assets/59DBD66EA15A3D40E065F836EF2595FD.jpeg" width="400.00" height="400.00" transform="matrix(1.00, 0.00, -0.00, -1.00, 10.4, 138.6)"></image></g></g><path d="M 76.4 15.3 C 76.0 15.5 75.5 15.7 74.7 15.9 C 75.1 15.9 75.4 15.8 75.3 16.0 C 76.0 15.7 76.9 15.4 78.2 15.1 C 78.1 15.0 77.5 15.2 77.0 15.3 C 76.5 15.5 76.6 15.4 76.4 15.3 C 76.4 15.3 76.4 15.3 76.4 15.3 Z M 58.1 126.7 C 57.0 126.3 58.1 127.0 58.5 127.2 C 58.6 127.1 58.6 127.1 59.0 127.3 C 59.1 127.5 58.1 127.2 57.4 127.0 C 54.5 125.7 56.8 126.2 58.1 126.7 C 58.1 126.7 58.1 126.7 58.1 126.7 Z M 220.1 131.8 C 222.5 131.1 219.8 131.6 219.4 131.6 C 220.6 131.2 219.5 131.2 221.0 130.7 C 221.3 130.7 221.9 130.6 222.2 130.7 C 221.5 130.9 220.6 131.1 220.5 131.2 C 221.4 131.0 222.6 130.6 222.7 130.6 C 220.9 131.3 222.5 131.0 222.9 131.0 C 221.2 131.5 220.7 131.9 220.1 131.8 C 220.1 131.8 220.1 131.8 220.1 131.8 Z M 268.0 41.6 C 268.7 42.1 269.2 42.6 268.9 42.6 C 268.3 42.0 267.9 41.6 267.5 41.2 C 267.3 41.2 267.4 41.5 266.8 41.0 C 266.3 40.2 266.8 40.3 267.2 40.5 C 267.2 40.7 269.5 42.6 268.0 41.6 C 268.0 41.6 268.0 41.6 268.0 41.6 Z M 203.1 13.6 C 200.8 13.0 202.9 13.9 200.6 13.3 C 200.7 13.2 200.4 12.8 202.0 13.1 C 202.0 13.3 202.9 13.5 203.1 13.6 C 203.1 13.6 203.1 13.6 203.1 13.6 Z M 151.1 139.9 C 151.1 140.0 152.8 139.9 152.4 140.2 C 151.5 140.2 150.7 140.2 149.9 140.2 C 149.7 140.0 150.0 139.9 151.1 139.9 C 151.1 139.9 151.1 139.9 151.1 139.9 Z M 235.4 124.0 C 237.9 123.3 240.1 121.9 239.5 122.4 C 240.5 122.3 238.2 123.8 238.2 123.5 C 237.8 123.3 233.6 124.8 235.4 124.0 C 235.4 124.0 235.4 124.0 235.4 124.0 Z M 71.7 127.1 C 74.2 128.1 73.9 127.3 75.5 128.1 C 75.0 128.0 74.7 128.0 74.4 128.0 C 74.9 128.1 75.5 128.3 75.5 128.4 C 74.2 128.0 72.7 127.7 71.7 127.1 C 71.7 127.1 71.7 127.1 71.7 127.1 Z M 117.5 8.3 C 117.9 8.3 118.2 8.2 118.1 8.1 C 120.1 8.0 120.0 7.8 121.2 7.8 C 121.3 8.1 119.7 8.2 118.1 8.3 C 118.1 8.3 117.6 8.4 117.5 8.3 C 117.5 8.3 117.5 8.3 117.5 8.3 Z M 173.2 9.0 C 173.1 8.8 172.0 8.6 173.8 8.7 C 175.9 9.2 174.0 9.2 171.9 9.2 C 171.9 9.3 171.9 9.4 171.9 9.5 C 172.7 9.6 173.2 9.7 173.7 9.7 C 174.1 9.4 175.5 10.2 178.7 10.3 C 177.2 10.3 178.8 10.8 176.8 10.4 C 177.3 10.7 175.9 10.6 176.1 10.8 C 177.0 10.7 179.1 11.0 178.7 10.7 C 179.7 10.8 180.6 10.9 181.1 11.0 C 181.9 11.4 179.1 10.8 179.9 11.2 C 180.5 11.3 180.6 11.3 181.1 11.4 C 181.2 11.3 181.0 11.2 181.7 11.3 C 183.7 11.6 181.3 11.5 184.1 11.9 C 184.3 11.8 183.5 11.6 183.6 11.5 C 184.8 11.5 184.8 11.7 186.0 11.7 C 186.2 11.9 185.1 11.8 186.0 12.0 C 186.8 11.7 188.5 12.6 190.3 12.5 C 189.2 11.8 190.6 12.7 192.2 12.4 C 192.5 12.6 191.3 12.8 192.7 13.0 C 192.3 12.3 197.7 13.4 193.4 12.2 C 195.7 12.6 196.6 12.2 194.8 11.8 C 198.7 12.7 197.5 12.1 199.0 12.4 C 200.5 12.7 198.2 12.4 199.0 12.7 C 197.3 12.4 197.7 12.6 196.6 12.2 C 196.5 12.3 196.2 12.4 195.9 12.4 C 197.5 12.5 199.4 13.2 198.2 13.3 C 197.4 13.1 198.2 13.0 197.1 12.7 C 197.4 13.2 195.9 12.5 195.8 12.7 C 196.5 13.1 194.1 13.0 196.3 13.4 C 196.4 13.3 196.4 13.2 196.4 13.0 C 197.0 13.1 197.6 13.2 198.2 13.4 C 198.6 13.7 198.2 13.8 198.7 14.0 C 199.7 14.1 200.2 14.2 200.5 14.1 C 199.3 13.9 197.9 13.4 200.0 13.7 C 199.1 14.0 202.8 14.4 201.1 14.3 C 203.3 14.9 204.4 14.8 204.6 15.2 C 205.7 15.4 205.0 15.0 206.4 15.3 C 208.5 16.0 208.2 15.6 211.0 16.5 C 211.4 16.2 211.3 16.7 212.2 16.9 C 212.2 16.8 212.2 16.6 212.3 16.5 C 213.2 17.0 215.5 17.7 217.9 18.1 C 218.5 18.3 218.0 18.4 219.5 18.8 C 221.2 19.0 223.0 19.9 225.1 20.2 C 225.2 20.5 226.5 20.9 227.2 21.0 C 227.5 21.2 226.4 21.2 227.6 21.6 C 228.5 21.7 227.1 21.1 228.8 21.6 C 228.6 21.8 230.4 22.0 230.4 22.2 C 229.8 22.1 229.2 22.0 228.7 21.9 C 229.4 22.1 229.2 22.2 229.7 22.4 C 229.7 22.1 230.9 22.8 231.3 23.0 C 231.3 22.9 231.5 22.8 231.9 22.9 C 232.9 23.3 233.6 23.5 234.1 23.6 C 235.2 24.2 233.3 23.6 234.5 24.0 C 235.2 23.7 236.2 24.8 238.7 25.4 C 239.1 25.8 240.1 26.3 241.5 27.0 C 241.8 26.9 240.1 26.3 240.1 26.2 C 242.3 27.2 239.8 25.8 241.2 26.5 C 244.3 28.0 247.7 29.6 252.0 32.3 C 252.1 32.1 255.5 33.9 255.4 34.0 C 254.5 33.5 257.0 35.3 258.3 36.2 C 258.9 36.1 261.1 37.1 261.3 37.0 C 261.6 37.5 261.5 37.4 261.5 37.9 C 263.5 39.5 264.8 40.0 265.7 41.3 C 265.8 41.1 266.7 41.8 267.5 42.3 C 267.1 42.3 266.6 42.1 266.1 41.8 C 267.1 42.7 267.2 42.9 268.0 43.6 C 269.3 43.8 270.1 45.7 271.1 45.8 C 272.4 47.1 272.0 47.0 273.0 48.2 C 273.1 48.1 273.3 48.1 273.6 48.4 C 272.9 47.7 272.2 47.3 272.0 46.6 C 273.7 48.3 269.3 42.9 272.3 45.5 C 272.3 45.7 271.9 45.6 272.5 46.2 C 274.1 47.7 273.4 46.6 272.7 46.0 C 273.8 47.0 274.8 48.2 274.2 47.1 C 276.6 49.6 275.0 48.1 275.6 49.1 C 279.6 53.5 283.3 59.5 284.7 66.3 C 285.1 66.5 285.5 70.2 285.4 71.4 C 285.8 73.3 285.8 75.3 285.5 75.9 C 285.8 76.2 285.1 78.2 285.4 78.4 C 285.5 77.6 285.6 77.0 285.6 77.9 C 285.2 80.7 284.0 84.7 283.6 86.4 C 282.9 87.2 282.3 89.0 281.8 90.3 C 281.6 90.4 282.0 89.4 281.6 90.1 C 281.6 90.4 280.5 93.0 279.9 93.5 C 280.4 92.8 280.6 91.8 279.9 92.9 C 280.1 93.0 279.2 94.2 279.6 94.0 C 278.5 95.5 278.0 96.5 277.0 97.7 C 277.7 96.7 278.1 96.0 278.1 95.7 C 277.5 96.7 277.1 97.4 276.4 98.0 C 276.8 98.0 275.5 99.3 274.4 100.9 C 273.9 101.2 273.6 101.4 272.5 102.6 C 272.1 103.3 274.4 100.9 273.2 102.3 C 273.1 102.2 271.8 103.3 272.3 103.2 C 270.7 104.6 270.0 105.6 268.5 106.6 C 270.3 105.2 268.7 106.0 268.3 106.4 C 267.9 106.7 267.3 107.2 267.4 107.3 C 267.4 107.3 268.3 106.6 268.4 106.5 C 267.2 107.5 267.1 108.1 266.5 108.3 C 267.0 107.9 267.0 107.7 266.4 108.2 C 266.5 108.6 262.4 111.4 263.7 110.2 C 263.7 110.3 265.2 109.2 265.3 108.9 C 264.8 109.2 262.6 111.0 263.0 110.4 C 264.3 109.4 264.3 109.7 265.7 108.4 C 265.8 108.2 266.6 107.4 267.0 106.9 C 264.8 108.8 264.4 109.4 263.9 109.4 C 262.9 110.3 263.7 110.0 261.8 111.3 C 259.2 113.1 261.2 111.3 260.5 111.7 C 258.2 113.5 259.1 113.3 260.2 112.8 C 258.3 114.0 257.8 114.6 255.3 116.0 C 255.4 115.8 255.6 115.5 256.5 114.9 C 256.6 114.9 258.7 113.8 258.4 113.8 C 258.0 113.6 256.4 114.5 253.6 116.1 C 254.5 116.0 254.5 115.8 251.7 117.4 C 252.3 117.4 250.3 118.0 250.4 118.3 C 250.5 118.3 251.6 117.7 252.5 117.2 C 252.5 117.4 252.2 117.7 251.3 118.2 C 250.6 118.4 250.2 118.8 248.5 119.6 C 248.2 119.5 249.5 118.8 249.7 118.6 C 248.7 119.1 248.5 119.3 247.6 119.8 C 246.6 120.1 246.5 119.7 246.5 119.4 C 247.6 118.8 249.3 117.9 247.8 118.4 C 252.0 116.3 247.8 118.9 249.4 118.1 C 250.9 116.9 250.2 117.8 252.8 116.3 C 253.6 115.8 253.8 115.6 254.1 115.3 C 253.9 115.4 252.3 116.1 253.9 115.1 C 254.4 115.0 255.3 114.6 256.6 113.8 C 256.5 113.7 253.9 115.2 256.5 113.6 C 257.8 112.8 256.8 113.8 258.5 112.7 C 258.5 112.6 258.9 112.3 259.0 112.2 C 256.6 113.8 259.4 111.7 257.6 112.7 C 259.7 111.2 258.2 112.7 259.5 111.7 C 259.5 111.5 261.8 110.2 261.7 110.0 C 261.0 110.7 259.3 111.8 259.3 111.4 C 260.9 110.4 267.2 105.2 265.0 107.5 C 265.8 106.7 269.7 102.7 269.6 103.1 C 268.4 104.2 268.5 104.3 268.4 104.6 C 270.6 102.3 271.8 101.3 273.6 98.7 C 271.3 101.3 272.8 99.1 271.2 100.4 C 270.6 101.1 269.6 102.0 269.5 102.2 C 270.0 102.1 271.0 101.0 271.3 100.5 C 271.4 100.6 271.6 100.8 271.7 100.9 C 268.9 103.6 267.3 105.2 265.7 106.4 C 267.0 105.3 263.0 108.2 264.5 106.9 C 265.3 106.5 266.8 105.2 268.1 104.2 C 268.0 104.1 268.0 104.1 267.9 104.0 C 268.4 103.5 269.2 102.8 269.2 102.7 C 267.6 104.3 266.5 104.9 265.4 106.1 C 265.4 106.0 265.4 106.0 265.3 105.9 C 265.0 106.2 264.7 106.4 264.8 106.3 C 265.4 105.8 266.2 105.1 266.2 105.0 C 264.9 106.0 264.5 106.0 263.0 107.2 C 263.2 106.7 261.0 108.0 263.1 106.2 C 263.6 106.1 264.8 105.2 264.9 105.4 C 265.6 104.9 266.7 103.8 267.2 103.2 C 266.5 103.6 265.3 104.6 265.0 104.5 C 266.0 103.6 266.7 102.9 267.4 102.5 C 265.6 104.4 268.6 101.7 269.4 101.2 C 269.2 101.3 268.7 101.7 268.3 101.8 C 269.8 100.5 270.5 99.9 270.3 99.6 C 271.8 97.9 271.7 98.4 272.7 97.2 C 271.8 97.8 273.2 96.3 272.3 96.9 C 273.9 94.9 273.0 96.5 273.6 95.8 C 274.1 95.2 274.0 95.0 274.4 94.4 C 275.2 93.6 276.5 91.8 276.9 91.7 C 277.3 90.8 277.5 90.8 277.9 89.9 C 278.0 89.7 278.0 89.4 278.2 89.0 C 278.3 88.9 278.7 88.3 278.7 88.1 C 277.3 90.2 277.6 89.6 276.0 91.7 C 276.0 92.0 275.8 92.3 276.2 91.9 C 275.2 93.5 274.8 93.9 273.7 95.2 C 273.4 95.3 273.0 95.4 272.1 96.7 C 272.2 96.3 271.8 96.6 272.2 96.0 C 272.8 95.5 273.6 94.6 274.4 93.7 C 274.3 93.6 274.1 93.7 274.4 93.2 C 274.9 92.8 275.4 92.1 275.7 91.5 C 275.7 91.5 275.7 91.8 275.6 92.1 C 277.0 90.0 276.2 90.6 277.3 89.0 C 277.0 89.2 276.4 90.2 276.7 89.3 C 277.5 87.8 277.7 87.6 278.1 86.8 C 278.1 86.7 278.0 86.7 278.2 86.3 C 278.8 85.3 277.6 88.8 278.7 87.1 C 278.6 86.9 279.4 85.1 279.6 84.9 C 279.6 85.5 278.9 86.5 279.0 86.7 C 280.5 83.3 279.6 86.7 280.7 83.3 C 280.6 83.3 280.5 83.2 280.4 83.2 C 280.1 84.6 279.8 84.6 279.6 84.4 C 279.2 85.6 278.7 85.9 278.4 87.0 C 278.2 86.4 278.9 86.0 279.3 84.8 C 279.1 84.7 278.6 85.8 278.4 85.9 C 279.7 83.2 279.5 82.6 280.4 80.0 C 280.0 80.6 280.6 78.5 280.4 78.7 C 280.1 80.9 279.6 79.9 279.4 80.2 C 279.1 81.7 279.7 81.1 279.6 82.0 C 279.3 82.4 279.2 82.1 278.9 81.9 C 279.4 80.6 279.3 80.8 279.3 79.7 C 279.7 78.9 280.3 78.2 280.2 79.5 C 280.2 79.2 280.3 77.5 280.5 77.4 C 280.3 79.0 280.7 77.2 280.6 78.2 C 281.0 76.9 280.8 74.6 280.9 73.1 C 280.8 73.2 280.7 72.6 280.6 72.7 C 280.9 74.2 280.4 74.5 280.3 76.0 C 280.3 75.4 280.1 75.7 280.0 76.0 C 280.3 74.6 280.0 73.8 280.2 72.7 C 280.1 72.7 280.0 72.7 280.0 72.7 C 280.0 70.9 280.0 71.1 279.5 69.8 C 279.6 69.2 280.1 69.9 280.4 70.1 C 280.2 69.4 279.7 67.0 279.8 68.4 C 279.5 67.0 279.9 67.3 279.4 65.8 C 279.2 65.9 279.6 67.2 279.1 66.8 C 278.7 65.5 279.3 66.1 278.7 65.1 C 278.9 65.0 279.1 64.9 278.6 63.7 C 278.8 64.6 278.5 63.6 278.2 63.4 C 278.4 63.9 278.5 64.4 278.6 64.7 C 277.9 62.6 277.7 62.2 276.7 60.5 C 277.3 61.0 276.9 60.0 277.6 61.1 C 276.9 60.1 276.5 58.6 276.0 58.1 C 276.3 58.8 276.9 59.9 277.0 60.4 C 275.2 57.1 273.7 55.5 271.6 52.4 C 272.0 52.9 272.6 53.6 272.7 53.6 C 272.5 53.3 272.0 52.8 272.1 52.7 C 272.9 53.8 273.6 54.7 274.1 55.2 C 274.6 56.2 273.5 54.8 274.2 55.8 C 274.4 55.8 275.4 57.7 275.3 56.9 C 274.1 55.4 273.1 53.7 272.8 52.8 C 271.3 51.6 272.5 53.0 270.8 51.7 C 270.9 51.6 270.6 51.2 270.2 50.7 C 270.4 51.4 268.8 49.4 268.6 49.2 C 269.4 49.8 272.0 52.4 271.0 50.8 C 271.1 51.9 268.0 47.5 268.4 48.6 C 266.6 46.8 267.5 47.2 266.2 46.5 C 266.2 46.4 266.5 46.4 265.9 45.9 C 265.4 45.5 265.2 45.4 264.9 45.2 C 267.6 47.7 266.5 47.2 268.1 48.9 C 267.8 48.6 267.6 48.3 267.6 48.5 C 267.6 48.5 267.5 48.5 267.2 48.1 C 267.2 47.8 265.8 46.9 265.5 46.4 C 266.1 46.9 266.6 47.3 266.5 47.1 C 264.3 45.1 265.0 45.2 261.5 42.4 C 262.5 43.3 261.1 42.3 259.8 41.4 C 258.0 40.1 259.0 40.2 256.6 38.7 C 256.5 39.4 254.2 37.1 251.0 35.6 C 251.5 35.5 247.4 33.1 246.4 32.9 C 246.3 32.8 244.7 32.0 243.6 31.4 C 243.3 31.2 244.7 31.8 243.7 31.2 C 242.7 30.8 243.0 31.2 242.1 30.8 C 241.1 30.3 241.4 30.1 239.9 29.5 C 239.7 29.6 240.6 30.0 239.7 29.7 C 238.4 29.0 237.2 28.5 238.2 29.2 C 236.2 28.4 237.3 28.4 235.4 27.6 C 235.9 28.0 235.9 28.0 234.8 27.6 C 234.2 27.2 234.1 27.1 233.9 26.9 C 233.3 26.8 233.5 26.9 231.8 26.2 C 231.8 26.3 231.8 26.4 231.7 26.5 C 231.0 26.2 229.9 25.8 229.7 25.7 C 231.1 26.2 230.8 25.9 231.3 26.0 C 230.0 25.5 227.3 24.2 229.3 25.3 C 227.3 24.6 228.3 24.7 226.7 24.2 C 227.6 24.8 226.8 24.2 225.1 23.7 C 225.2 24.1 224.0 23.4 223.0 23.1 C 223.1 23.3 222.8 23.3 221.8 23.1 C 221.9 22.9 221.3 22.7 220.2 22.4 C 220.2 22.5 222.4 23.3 220.2 22.6 C 219.1 22.2 219.2 21.9 217.5 21.4 C 217.2 21.1 219.1 21.7 218.7 21.4 C 217.3 21.2 216.9 20.9 214.9 20.3 C 215.6 20.9 210.6 19.7 213.0 20.6 C 212.3 20.4 211.2 20.4 210.7 20.1 C 211.5 20.2 210.2 19.7 210.2 19.6 C 209.2 19.4 206.9 18.7 206.8 18.9 C 209.0 19.3 209.0 19.6 209.6 19.9 C 206.4 19.2 203.6 18.5 203.9 18.3 C 203.9 18.4 203.4 18.3 203.3 18.3 C 204.4 18.5 205.1 19.1 203.8 18.8 C 204.1 18.7 203.2 18.4 202.2 18.1 C 202.1 18.3 197.9 17.1 198.6 17.6 C 200.4 17.7 201.6 18.4 200.3 18.3 C 199.3 17.8 197.0 17.2 197.5 17.1 C 196.9 17.1 196.3 17.1 195.7 17.0 C 195.1 17.2 196.4 17.4 196.2 17.5 C 195.3 17.4 194.0 17.2 193.8 17.0 C 196.2 17.4 192.7 16.7 195.1 16.9 C 193.6 16.7 193.3 16.5 192.1 16.3 C 192.1 16.3 191.7 16.3 191.5 16.3 C 192.6 16.4 193.6 16.7 193.3 16.9 C 191.1 16.5 191.5 16.3 189.7 16.0 C 189.2 16.1 186.7 16.1 185.5 15.7 C 187.9 16.1 185.3 15.6 186.7 15.7 C 188.9 16.1 189.5 16.0 190.3 15.9 C 189.4 15.6 187.6 15.2 187.3 15.5 C 188.5 15.7 188.5 15.6 189.2 15.6 C 189.1 15.8 188.7 15.8 187.9 15.8 C 186.9 15.4 184.7 15.3 186.2 15.2 C 184.6 15.1 183.0 14.6 181.3 14.6 C 183.1 14.9 184.4 15.1 184.9 15.4 C 183.4 15.3 182.0 14.8 181.9 15.0 C 182.1 15.2 184.4 15.5 184.9 15.7 C 183.0 15.7 180.1 14.6 182.4 15.5 C 181.4 15.3 179.9 15.1 179.4 14.9 C 180.8 15.1 179.4 14.6 178.8 14.5 C 177.7 14.3 176.8 14.3 176.4 14.4 C 178.1 14.4 179.4 14.9 178.2 14.8 C 177.9 14.6 177.5 14.8 177.0 14.7 C 176.9 14.6 174.9 14.5 174.6 14.3 C 174.7 14.5 175.6 14.6 175.7 14.7 C 174.6 14.7 172.9 14.8 172.1 14.4 C 172.8 14.5 173.8 14.6 173.9 14.5 C 170.8 13.8 169.8 13.5 166.0 13.1 C 166.4 13.1 166.7 13.0 166.6 12.9 C 164.2 12.7 162.6 12.5 162.9 12.4 C 161.4 12.3 160.6 12.4 159.8 12.5 C 161.4 12.7 161.9 12.6 162.9 12.8 C 162.3 12.8 164.1 13.3 164.7 13.5 C 167.4 13.5 167.5 13.9 170.3 13.9 C 169.4 14.1 172.2 14.2 171.4 14.4 C 168.9 13.8 166.5 13.9 162.8 13.5 C 163.3 13.3 163.8 13.2 162.3 13.0 C 159.9 12.7 161.0 13.1 159.1 13.0 C 158.3 12.8 159.5 12.8 158.5 12.6 C 157.8 12.7 156.0 12.6 155.4 12.4 C 158.0 12.5 154.9 12.2 156.6 12.1 C 155.8 12.1 155.3 12.0 154.7 12.0 C 157.2 12.3 152.2 12.2 154.1 12.5 C 150.6 12.5 153.9 11.9 151.0 11.9 C 152.4 12.1 150.6 12.1 148.5 12.1 C 148.0 11.8 145.8 11.8 144.1 11.7 C 145.0 11.9 145.7 11.9 144.1 12.0 C 145.0 12.1 146.4 12.1 147.2 12.0 C 147.2 12.1 147.5 12.2 147.9 12.2 C 145.8 12.3 146.7 12.4 146.0 12.5 C 145.4 12.4 143.9 12.4 143.5 12.3 C 143.5 12.3 143.0 12.4 142.9 12.4 C 145.5 12.4 142.5 12.8 144.1 12.8 C 145.3 12.8 144.5 12.5 146.0 12.6 C 147.4 12.9 144.9 12.9 144.1 13.1 C 145.3 13.3 146.8 13.0 147.2 13.3 C 145.6 13.6 143.1 13.4 141.0 13.3 C 141.2 13.7 137.6 13.3 137.3 13.8 C 137.0 13.7 136.6 13.6 136.1 13.6 C 135.5 13.8 134.8 13.5 134.2 13.6 C 134.1 13.7 134.3 13.8 134.8 13.9 C 132.2 13.8 131.6 13.9 128.6 14.2 C 128.1 14.1 127.6 13.9 127.3 13.8 C 128.1 13.7 128.7 13.6 129.2 13.5 C 125.1 13.7 127.8 14.2 124.9 14.0 C 125.0 14.2 127.0 14.3 125.5 14.5 C 122.9 14.4 119.3 15.0 119.3 14.3 C 117.0 14.3 115.5 14.9 114.4 14.7 C 113.7 14.8 113.5 14.9 113.2 15.0 C 113.9 15.1 114.8 15.1 115.7 15.1 C 117.0 14.9 117.7 15.0 116.3 14.8 C 118.3 14.6 118.9 14.7 120.0 14.7 C 117.2 15.1 114.6 15.2 114.5 15.6 C 113.6 15.6 112.8 15.5 112.0 15.4 C 111.8 15.6 108.7 16.1 108.4 15.9 C 110.5 15.7 112.7 15.1 110.8 15.2 C 105.6 16.0 102.7 16.0 98.2 17.1 C 98.1 17.0 98.4 16.8 97.6 16.9 C 97.6 17.0 97.5 17.2 97.0 17.3 C 95.6 17.6 94.8 17.6 92.9 18.0 C 93.0 17.8 92.7 17.7 91.7 17.8 C 91.1 18.2 89.4 19.0 88.3 19.2 C 89.4 18.9 87.9 19.0 87.1 19.1 C 87.9 19.3 82.0 20.1 83.7 20.0 C 81.4 20.6 80.4 20.8 80.3 20.7 C 79.5 20.9 78.9 21.2 78.1 21.4 C 77.5 21.2 73.7 22.6 73.1 22.6 C 74.5 22.3 74.7 21.9 73.6 22.2 C 72.9 22.6 69.5 23.9 68.9 24.1 C 69.1 23.9 69.2 23.6 70.9 23.0 C 68.0 23.9 68.2 24.2 67.3 24.8 C 67.3 24.4 66.1 25.1 65.8 25.3 C 64.8 25.5 65.8 25.2 65.6 25.0 C 64.7 25.3 64.3 25.3 63.0 25.8 C 63.5 25.9 62.0 26.3 61.5 26.5 C 61.4 26.7 60.7 27.1 59.6 27.6 C 60.9 26.6 53.2 29.8 55.1 29.3 C 53.7 30.1 53.4 29.7 51.6 30.6 C 51.3 30.9 50.2 31.3 51.2 31.0 C 50.5 31.4 49.9 31.6 49.5 31.7 C 49.2 31.8 48.8 31.9 47.5 32.6 C 48.8 32.3 44.9 33.9 45.7 34.0 C 44.3 34.2 42.6 35.8 40.4 36.7 C 40.4 36.8 39.9 37.1 39.8 37.2 C 39.5 37.5 42.3 35.9 40.6 37.0 C 38.4 38.1 39.5 37.4 39.1 37.5 C 33.6 41.0 27.9 45.3 24.0 49.3 C 24.5 48.9 24.5 49.0 23.8 49.9 C 22.3 50.7 18.7 55.7 18.4 56.5 C 17.8 56.8 16.6 59.4 16.2 59.8 C 16.5 59.3 16.8 58.3 16.2 59.3 C 16.1 60.1 15.5 60.9 15.3 62.0 C 14.7 62.4 13.9 65.6 13.9 64.0 C 13.7 64.6 13.6 64.9 13.4 65.2 C 13.7 65.4 13.4 66.0 13.9 64.9 C 12.8 67.7 13.0 68.4 12.5 70.5 C 12.5 70.9 12.9 69.3 12.8 70.6 C 12.7 70.6 12.7 70.6 12.6 70.6 C 12.5 71.0 12.6 71.2 12.5 71.4 C 12.4 71.3 12.5 70.6 12.2 70.5 C 12.2 71.6 11.8 72.3 12.0 72.7 C 12.1 71.2 12.5 72.2 12.2 73.1 C 12.1 72.3 12.3 76.5 12.6 77.9 C 12.4 78.6 12.4 76.4 12.2 76.6 C 12.4 79.1 12.4 78.9 12.8 79.2 C 12.9 80.5 12.9 81.1 13.5 82.6 C 13.6 83.6 13.1 82.1 13.4 83.1 C 13.6 83.7 13.8 83.9 14.2 84.8 C 14.5 87.3 18.2 92.3 19.6 95.3 C 18.9 94.2 20.0 95.4 21.2 96.8 C 21.2 97.0 20.9 96.9 21.3 97.4 C 21.4 97.2 21.8 97.6 22.6 98.5 C 22.6 98.6 22.4 98.6 22.8 99.1 C 23.4 99.2 24.2 100.5 25.0 101.1 C 25.1 101.5 23.4 99.6 23.1 99.6 C 25.0 101.9 25.7 102.1 27.4 103.7 C 26.4 102.9 27.9 104.5 28.2 104.8 C 27.9 104.2 29.5 105.4 28.5 104.4 C 29.2 105.0 30.4 105.9 30.5 106.1 C 30.0 105.8 29.4 105.2 29.4 105.3 C 30.3 106.0 31.4 107.2 32.0 107.3 C 31.3 106.8 31.0 106.4 31.0 106.3 C 31.4 106.4 31.7 106.6 32.3 106.9 C 30.4 106.3 35.0 109.4 35.4 109.4 C 35.6 110.0 35.9 110.2 35.7 110.2 C 37.7 111.6 37.6 111.2 38.9 111.9 C 38.3 111.9 37.8 111.9 39.7 113.2 C 39.5 112.7 41.9 114.2 41.4 113.4 C 44.0 114.9 45.8 115.9 47.2 116.7 C 48.6 117.5 50.2 118.4 51.4 118.9 C 51.5 118.9 50.7 118.5 51.4 118.8 C 52.5 119.4 53.5 119.9 54.2 120.4 C 54.9 120.5 54.0 120.0 54.8 120.3 C 56.5 121.3 56.0 121.4 57.5 122.2 C 59.6 122.9 58.8 122.7 60.2 122.9 C 59.6 122.7 59.0 122.3 59.7 122.6 C 60.9 123.3 61.3 123.7 61.6 123.9 C 60.7 123.6 60.0 123.3 59.5 123.0 C 59.2 123.1 57.9 122.6 58.9 123.1 C 57.7 122.5 56.2 121.9 54.4 121.2 C 54.9 121.7 52.8 120.5 53.3 121.0 C 55.4 121.9 55.8 122.2 57.8 123.0 C 57.4 122.6 59.5 123.5 59.8 123.7 C 59.9 123.6 61.3 124.2 61.0 123.9 C 62.6 124.4 62.5 124.6 64.1 125.1 C 64.1 125.2 63.9 125.2 64.5 125.5 C 65.1 125.4 65.5 126.0 66.1 126.1 C 65.8 125.7 68.1 126.7 68.3 126.5 C 67.7 126.3 66.8 126.0 66.7 125.9 C 69.3 126.8 67.3 125.9 66.8 125.5 C 66.9 125.7 65.9 125.7 65.7 125.4 C 68.0 126.0 62.9 123.9 64.8 124.7 C 66.4 125.4 66.3 125.1 68.0 125.8 C 69.8 126.8 67.4 126.3 69.3 127.3 C 70.6 127.5 71.4 127.8 71.6 127.6 C 71.8 127.8 72.1 128.0 72.6 128.2 C 73.1 128.2 71.0 127.4 72.7 127.9 C 73.5 128.2 72.4 128.2 74.2 128.7 C 75.0 128.7 72.2 127.8 73.8 128.2 C 75.4 129.1 73.4 128.0 75.4 128.5 C 75.6 128.6 75.9 128.7 76.6 128.9 C 76.6 129.1 76.3 129.2 77.0 129.4 C 77.5 129.1 77.7 129.8 79.2 130.1 C 80.1 130.0 77.7 129.5 78.2 129.4 C 79.9 130.1 80.9 130.1 81.6 130.3 C 80.2 130.1 83.7 131.0 83.8 131.2 C 83.4 130.9 84.2 131.2 86.2 131.4 C 86.2 131.9 88.5 132.1 89.0 132.5 C 89.3 132.5 89.9 132.5 90.2 132.5 C 89.5 132.3 88.8 132.2 89.1 132.1 C 89.7 132.2 90.2 132.3 90.8 132.4 C 91.8 132.8 89.1 132.8 93.1 133.6 C 92.7 133.1 94.3 133.4 95.5 133.5 C 95.4 133.2 93.9 133.2 93.8 133.0 C 95.1 133.1 96.5 133.6 97.3 133.9 C 99.6 134.2 102.3 134.8 105.7 135.2 C 106.4 135.5 102.8 135.0 105.1 135.4 C 106.0 135.6 105.6 135.3 106.9 135.5 C 105.5 136.4 116.0 136.9 116.6 137.4 C 117.1 137.2 120.0 137.6 119.8 137.3 C 117.7 137.3 116.4 136.9 115.4 136.6 C 113.6 136.5 117.1 137.0 115.4 136.9 C 115.3 136.7 112.7 136.6 113.0 136.4 C 115.6 136.7 111.6 136.0 113.6 136.0 C 116.1 136.3 121.0 136.5 119.8 136.7 C 119.8 136.6 118.7 136.5 118.6 136.6 C 121.4 137.0 123.0 136.9 124.2 136.9 C 125.4 137.2 130.5 137.1 129.2 137.2 C 129.6 137.5 126.2 137.0 126.7 137.2 C 131.8 137.7 132.0 137.4 135.4 137.8 C 134.3 137.4 139.0 137.5 138.6 137.6 C 138.6 137.8 139.6 138.0 141.7 137.8 C 141.4 138.0 142.5 138.1 143.6 138.2 C 144.1 138.0 142.7 138.0 142.9 137.8 C 144.0 137.8 145.1 137.8 146.1 137.8 C 146.2 137.9 146.0 138.1 146.7 138.1 C 147.9 137.9 152.1 137.6 151.7 137.8 C 150.0 138.1 154.6 138.0 151.7 138.3 C 152.5 138.3 152.6 138.4 153.7 138.3 C 153.6 138.2 153.6 138.1 153.6 138.0 C 156.0 137.9 154.8 138.3 156.8 138.3 C 157.0 138.2 157.8 138.1 158.1 138.0 C 157.3 138.0 157.2 138.1 156.2 138.2 C 157.3 137.7 154.1 138.0 154.2 137.7 C 156.5 137.6 156.5 137.9 157.4 137.9 C 160.1 137.7 158.8 137.8 161.8 137.8 C 161.8 137.6 161.0 137.7 161.2 137.5 C 164.7 137.4 164.4 138.0 166.8 137.6 C 166.2 137.7 164.1 138.0 165.6 137.9 C 167.2 137.7 167.7 137.4 169.9 137.2 C 170.0 137.3 169.8 137.4 170.6 137.4 C 171.5 137.2 171.5 137.0 172.3 136.8 C 172.5 136.9 173.7 136.8 174.2 136.7 C 175.0 136.8 173.9 136.9 174.9 136.9 C 176.7 136.7 177.6 136.1 179.1 136.0 C 179.1 136.3 180.8 136.0 182.2 135.8 C 182.5 136.0 185.7 135.6 187.7 135.3 C 187.2 135.2 189.4 134.9 188.9 134.8 C 187.9 134.9 187.3 134.9 187.1 134.9 C 189.4 134.5 190.2 134.9 191.9 134.2 C 192.8 134.2 193.9 134.2 195.5 134.0 C 195.7 133.8 192.7 134.2 194.3 133.9 C 194.4 133.9 195.0 133.8 195.5 133.7 C 195.3 134.0 196.6 133.8 197.4 133.8 C 198.7 133.3 201.6 133.1 200.3 133.1 C 202.4 132.6 201.1 133.3 202.7 133.0 C 201.8 132.8 204.7 132.2 203.2 132.3 C 205.4 131.7 205.3 132.2 204.4 132.5 C 206.5 132.1 206.9 131.8 207.9 131.7 C 206.9 131.7 210.0 130.8 208.4 131.3 C 208.0 131.7 210.3 131.0 210.8 131.0 C 210.0 131.0 211.1 130.8 209.6 131.0 C 211.1 130.5 213.3 129.9 214.7 129.8 C 216.5 129.2 218.3 128.6 217.5 129.1 C 219.2 128.6 218.6 128.8 220.3 128.3 C 220.3 128.2 219.8 128.3 219.7 128.3 C 222.0 127.6 221.6 127.9 224.7 126.9 C 224.4 127.3 226.3 126.7 227.0 126.7 C 225.7 127.1 224.7 127.3 223.7 127.6 C 223.5 127.8 224.5 127.5 223.7 127.8 C 223.6 127.8 223.1 127.9 222.6 128.0 C 224.7 127.6 220.2 129.2 221.5 128.5 C 221.6 128.5 221.7 128.6 222.1 128.4 C 221.7 128.3 221.7 128.4 222.0 128.0 C 221.0 128.4 220.1 128.4 219.8 128.7 C 219.9 128.8 220.8 128.5 221.0 128.5 C 218.5 129.4 220.1 128.4 218.2 129.1 C 217.8 129.5 218.8 129.3 219.4 129.2 C 217.5 129.8 216.0 130.2 215.4 130.2 C 213.7 130.8 215.6 130.4 214.4 130.8 C 213.8 130.9 213.8 130.7 212.6 131.0 C 211.4 131.4 213.4 131.0 212.1 131.3 C 210.7 131.5 213.0 130.8 210.8 131.2 C 211.4 131.5 208.9 131.7 209.1 131.8 C 210.4 131.5 210.5 131.8 209.8 131.8 C 206.9 132.1 205.1 133.5 202.2 133.5 C 202.2 133.6 201.8 133.7 201.7 133.8 C 203.8 133.5 206.9 132.8 207.6 133.0 C 209.3 132.6 209.0 132.4 209.2 132.2 C 211.3 132.0 211.1 132.1 210.0 132.8 C 206.7 133.6 205.3 133.8 203.0 134.1 C 201.8 134.6 203.1 134.2 203.6 134.2 C 196.6 135.5 202.1 135.1 199.5 135.5 C 199.6 135.3 199.0 135.4 198.3 135.5 C 198.4 135.6 197.3 135.8 197.1 135.9 C 197.6 135.8 197.9 135.8 197.8 135.9 C 196.0 136.3 196.7 135.9 196.5 135.8 C 197.9 135.6 198.7 135.4 198.9 135.2 C 197.2 135.7 195.8 135.7 194.7 136.2 C 193.0 136.1 195.5 135.3 194.5 135.2 C 194.8 135.0 193.5 136.0 192.3 136.3 C 190.1 136.7 190.1 136.9 188.0 137.2 C 187.5 137.1 190.0 136.8 189.8 136.6 C 189.2 136.7 189.1 136.7 188.6 136.8 C 187.1 137.0 187.3 137.2 186.2 137.4 C 185.5 137.3 185.2 137.5 184.4 137.7 C 183.0 137.7 185.1 137.4 183.7 137.5 C 182.2 137.7 181.1 138.1 180.7 138.1 C 180.5 138.1 180.7 137.9 180.0 138.0 C 178.3 138.4 177.9 138.4 180.1 138.3 C 178.1 138.5 177.3 138.7 177.6 138.9 C 180.5 138.6 181.2 138.5 182.6 138.6 C 183.1 138.3 184.0 138.4 185.1 138.3 C 184.4 138.0 186.3 138.1 186.9 137.8 C 186.2 137.9 185.5 137.9 185.0 137.9 C 188.1 137.5 188.0 137.6 190.5 136.8 C 190.5 136.9 190.8 136.9 191.1 136.9 C 190.3 137.2 188.1 137.4 188.1 137.6 C 189.9 137.7 190.4 137.1 192.4 137.1 C 193.2 136.8 190.7 137.1 192.3 136.8 C 193.1 136.8 194.2 136.8 195.4 136.7 C 196.7 136.4 197.3 136.2 198.4 135.9 C 198.5 136.0 198.6 136.0 199.6 135.8 C 199.5 135.7 198.5 135.8 199.6 135.6 C 202.8 135.3 204.9 135.0 207.9 134.2 C 206.8 134.4 204.3 134.7 205.5 134.4 C 206.9 134.3 208.7 133.5 210.2 133.4 C 210.7 133.4 208.5 133.7 209.1 134.0 C 210.4 133.6 211.3 133.5 212.0 133.4 C 211.9 133.2 213.5 132.9 213.1 132.7 C 211.9 133.0 211.7 133.4 211.4 133.3 C 212.2 132.4 215.6 132.5 217.7 131.9 C 219.1 131.4 216.6 132.0 218.2 131.4 C 219.1 131.0 219.8 131.4 218.3 132.0 C 217.3 132.2 216.9 132.6 216.6 132.4 C 216.2 132.5 215.5 132.7 215.5 132.8 C 216.3 132.6 216.2 132.8 216.7 132.7 C 215.6 133.0 215.5 133.5 214.4 133.5 C 215.1 133.3 215.3 133.1 215.6 133.0 C 212.5 133.9 211.5 133.9 209.7 134.2 C 210.7 134.2 209.7 134.4 209.8 134.6 C 211.2 134.2 213.7 133.7 212.2 134.1 C 211.1 134.1 210.4 135.1 209.3 135.0 C 210.1 134.8 210.0 134.7 210.4 134.5 C 209.2 134.8 209.2 134.6 208.0 134.8 C 204.3 136.1 201.2 136.1 195.0 137.7 C 192.8 138.1 197.0 137.3 196.8 137.1 C 196.1 137.2 196.0 137.2 195.5 137.2 C 195.5 137.5 194.4 137.4 193.7 137.8 C 193.8 137.5 190.9 138.2 189.4 138.2 C 189.4 138.3 189.6 138.5 188.8 138.6 C 184.3 138.9 176.1 140.3 172.7 140.4 C 172.8 140.5 171.3 140.7 170.8 140.8 C 168.6 141.0 169.6 140.7 166.4 141.2 C 164.8 141.3 166.7 141.0 167.0 140.9 C 162.2 141.3 158.0 141.3 155.0 141.6 C 153.4 141.8 155.0 141.5 151.8 141.5 C 151.7 141.8 146.8 141.3 146.1 141.8 C 144.2 141.8 140.7 141.3 142.2 141.6 C 139.6 141.6 141.4 141.3 140.3 141.3 C 138.5 141.3 140.9 141.9 139.1 141.9 C 139.3 141.6 137.7 141.7 136.5 141.4 C 138.0 141.5 138.9 141.5 139.1 141.3 C 137.8 141.5 137.9 141.3 135.9 141.2 C 134.4 141.3 130.2 141.3 128.9 140.9 C 128.9 141.0 129.2 141.1 129.5 141.2 C 128.3 141.1 126.9 140.8 127.0 141.1 C 124.2 140.9 123.0 140.5 121.4 140.7 C 120.1 140.6 121.8 140.5 118.2 140.1 C 118.1 140.3 111.8 139.6 110.1 139.2 C 110.0 139.5 109.7 139.2 108.9 139.0 C 108.8 139.1 109.0 139.3 108.2 139.2 C 108.1 139.1 107.6 139.0 107.0 139.0 C 107.5 138.7 104.7 138.8 104.6 138.5 C 105.1 138.6 105.2 138.4 104.6 138.3 C 104.4 138.5 101.9 137.7 102.2 138.0 C 102.7 138.1 104.4 138.3 103.9 138.5 C 101.5 138.2 102.5 138.0 100.9 137.8 C 101.0 137.9 102.0 138.1 100.9 138.0 C 99.2 137.7 100.8 137.9 99.7 137.6 C 98.8 137.5 97.2 137.4 96.6 137.3 C 96.8 137.3 96.3 137.0 96.1 137.0 C 93.0 136.3 86.0 135.1 83.1 134.1 C 82.9 134.1 82.3 134.0 82.4 134.2 C 80.7 133.6 80.8 133.7 79.1 133.2 C 79.0 133.3 79.0 133.4 79.0 133.5 C 76.6 133.0 78.8 133.1 77.3 132.7 C 77.0 133.2 76.5 132.3 75.1 131.9 C 74.9 132.0 74.2 131.8 74.4 132.0 C 72.3 131.4 72.5 131.1 70.6 130.7 C 71.0 130.8 71.1 131.6 70.8 131.8 C 70.6 131.6 70.0 131.4 69.2 131.1 C 70.3 131.1 70.0 130.1 67.3 129.5 C 68.8 129.9 69.3 130.2 68.9 130.3 C 66.9 129.7 66.3 129.3 64.6 128.7 C 64.3 128.8 65.5 129.3 64.9 129.4 C 64.5 129.2 64.3 129.2 64.4 129.3 C 62.6 128.7 62.6 128.5 60.6 127.9 C 60.7 127.8 61.1 127.9 61.7 128.2 C 61.7 128.0 61.8 127.8 62.9 128.2 C 63.0 128.4 62.3 128.4 63.9 128.9 C 64.0 128.8 64.0 128.7 64.0 128.6 C 62.8 128.1 60.1 126.9 59.8 126.9 C 60.4 127.2 61.3 127.6 60.7 127.7 C 58.7 126.9 58.3 126.4 56.7 125.6 C 53.9 124.5 49.1 122.3 49.5 122.9 C 47.9 122.0 48.2 122.2 46.1 121.1 C 46.6 121.6 43.6 119.9 43.7 120.2 C 46.4 121.5 45.5 121.2 48.2 122.4 C 48.1 122.5 47.6 122.4 46.5 121.9 C 46.5 121.7 45.4 121.2 43.7 120.3 C 44.0 120.5 45.4 121.5 43.6 120.6 C 43.4 120.5 43.0 120.2 42.2 119.8 C 42.3 119.7 42.3 119.5 42.4 119.4 C 43.4 119.9 44.6 120.4 45.4 120.7 C 44.7 120.3 44.5 120.2 43.9 119.9 C 43.4 119.8 40.7 118.1 40.4 118.1 C 41.5 118.7 42.2 119.3 41.0 118.6 C 40.8 118.5 39.0 117.4 38.3 117.1 C 40.5 118.6 39.6 118.1 40.8 119.0 C 38.0 117.5 38.5 117.5 35.6 115.7 C 35.6 115.5 35.7 115.4 36.5 115.7 C 34.9 114.2 30.6 111.8 29.4 110.8 C 30.2 111.5 31.4 111.9 30.1 110.9 C 30.0 111.0 29.1 110.3 28.9 110.2 C 28.2 110.3 29.1 111.3 30.0 112.3 C 28.9 111.5 28.7 111.4 27.7 110.6 C 27.5 110.2 28.7 110.7 27.5 109.8 C 27.0 109.9 25.3 108.0 24.7 107.9 C 25.5 108.5 26.0 109.1 25.1 108.4 C 25.4 108.4 23.7 107.1 23.8 106.9 C 25.1 108.0 25.6 108.1 26.5 108.8 C 25.4 107.9 27.4 109.3 25.6 107.8 C 24.7 107.3 24.2 107.1 22.4 105.5 C 21.8 104.8 22.6 105.2 21.7 104.4 C 21.8 104.8 20.0 103.0 21.2 104.0 C 20.6 103.3 20.3 103.0 20.0 102.6 C 20.6 103.6 16.5 99.5 17.0 100.3 C 17.2 100.1 17.3 99.7 17.2 99.4 C 16.3 98.7 15.6 97.6 14.0 95.2 C 13.8 95.5 13.7 94.9 13.0 93.9 C 12.8 93.7 13.3 94.7 12.8 94.0 C 12.2 92.7 12.2 92.7 12.2 92.4 C 11.7 91.6 11.4 90.9 11.2 90.4 C 11.1 90.4 11.2 90.7 11.2 91.0 C 9.8 87.6 8.9 86.0 8.2 83.1 C 8.4 84.3 8.9 84.5 8.6 83.5 C 8.4 82.9 8.2 82.4 8.0 82.1 C 8.0 82.8 8.0 82.5 7.7 81.0 C 7.4 79.8 7.4 81.6 7.2 80.6 C 7.2 79.5 7.4 80.1 7.4 79.5 C 7.3 79.0 7.2 78.5 7.2 78.0 C 7.1 78.9 6.9 77.9 6.8 77.0 C 7.1 77.6 7.1 77.2 6.9 75.4 C 7.1 75.2 7.2 76.2 7.2 75.4 C 7.2 75.0 6.8 73.6 7.1 72.4 C 7.1 72.8 7.2 73.0 7.3 72.9 C 7.1 71.5 7.6 70.5 7.9 69.4 C 7.5 70.5 7.4 69.9 7.2 70.3 C 7.5 69.2 7.5 67.7 8.0 66.8 C 7.6 68.5 8.5 67.0 8.7 65.9 C 8.6 65.6 8.2 67.4 8.0 66.8 C 8.0 66.2 8.7 64.9 8.6 64.3 C 8.4 64.3 8.4 65.1 8.2 65.2 C 8.5 64.3 8.0 65.5 8.2 64.7 C 8.6 64.3 8.5 63.6 8.6 63.2 C 8.9 62.5 9.7 61.4 9.8 60.8 C 9.7 60.7 9.4 61.6 9.2 61.7 C 10.2 58.9 10.9 58.2 12.0 55.7 C 12.3 55.5 12.6 55.1 13.1 54.4 C 12.9 54.3 13.2 53.9 13.5 53.3 C 14.3 52.3 15.1 51.4 16.1 50.2 C 16.1 50.5 15.7 51.2 17.1 49.5 C 17.1 49.3 16.5 50.0 17.0 49.4 C 17.0 49.4 17.4 49.0 17.4 48.9 C 17.4 48.8 17.3 48.8 17.3 48.8 C 16.9 49.3 16.5 49.7 16.1 50.2 C 16.1 50.0 15.9 50.1 15.5 50.4 C 17.0 48.3 17.3 48.8 18.3 47.3 C 18.8 47.3 19.2 47.0 18.5 48.2 C 19.4 47.0 20.1 46.2 20.2 45.7 C 18.9 47.1 19.2 46.5 18.7 46.8 C 19.5 45.9 19.4 45.8 19.8 45.3 C 20.9 44.4 19.1 46.7 21.1 44.7 C 19.4 46.0 22.1 43.3 23.3 42.4 C 23.0 42.5 22.6 42.8 23.1 42.2 C 25.9 39.5 26.2 40.4 27.9 38.6 C 27.8 38.8 28.7 38.1 29.1 37.9 C 27.6 39.2 27.2 39.5 26.6 40.1 C 26.7 40.1 27.2 39.7 27.7 39.4 C 27.6 39.3 28.0 38.9 28.8 38.5 C 29.1 38.0 28.7 37.8 30.0 36.7 C 30.1 36.7 30.0 36.9 30.7 36.4 C 31.2 35.8 30.4 37.1 33.3 35.0 C 32.7 35.3 32.3 35.4 32.5 35.1 C 33.8 34.1 33.6 34.4 35.5 33.0 C 36.5 32.9 34.4 34.3 34.0 34.9 C 35.3 33.9 36.2 33.0 37.7 32.3 C 36.6 32.9 37.5 32.0 38.8 31.2 C 40.0 30.6 38.9 31.6 40.4 30.8 C 41.5 30.1 42.0 29.5 40.9 30.0 C 43.5 28.7 42.7 28.8 45.0 27.7 C 45.1 27.7 44.5 28.1 43.6 28.5 C 43.8 28.5 43.6 28.7 44.4 28.3 C 45.8 27.3 49.1 25.8 50.2 25.1 C 52.6 24.5 55.0 22.8 57.4 22.1 C 56.5 22.7 60.5 20.9 61.7 20.7 C 62.4 20.4 64.5 19.1 63.7 19.6 C 64.1 19.9 65.4 19.2 66.6 19.0 C 66.6 18.9 66.5 18.8 66.5 18.7 C 68.9 17.9 69.6 17.9 70.4 17.9 C 73.4 16.8 76.9 16.1 80.6 14.9 C 81.7 14.9 82.5 14.6 84.8 14.3 C 84.7 14.0 86.5 13.6 88.2 13.2 C 87.8 13.1 89.4 12.8 89.4 12.7 C 87.8 13.0 88.3 12.6 87.5 12.7 C 89.6 12.4 90.6 11.7 92.3 11.7 C 90.2 12.2 89.7 12.6 89.5 13.1 C 91.9 12.5 93.2 12.3 93.7 12.4 C 93.8 12.2 93.5 12.2 93.0 12.2 C 93.8 12.0 94.6 11.9 95.4 11.7 C 95.6 11.8 94.5 12.1 95.4 11.9 C 96.0 11.8 96.6 11.6 97.2 11.4 C 97.9 11.5 96.3 11.7 96.1 11.9 C 99.3 11.4 97.8 11.2 99.6 10.8 C 100.1 10.9 100.0 11.2 101.5 11.0 C 102.1 10.7 102.2 10.4 103.9 10.2 C 105.0 10.1 103.9 10.6 105.1 10.4 C 105.3 10.3 105.8 10.2 106.4 10.2 C 106.3 10.1 106.8 9.9 107.5 9.8 C 107.7 9.9 108.9 9.7 109.4 9.5 C 109.6 9.7 111.5 9.7 111.9 9.5 C 111.9 9.4 110.8 9.5 110.7 9.5 C 112.1 9.3 113.0 9.2 113.8 9.0 C 114.3 9.5 116.5 8.8 119.4 8.8 C 121.2 8.5 119.0 8.4 121.3 8.1 C 122.6 8.1 121.0 8.3 121.3 8.6 C 121.7 8.6 123.8 8.6 123.8 8.4 C 123.8 8.2 122.7 8.4 122.6 8.3 C 124.2 7.9 124.2 8.2 125.1 8.3 C 125.0 8.1 126.1 7.9 126.3 7.8 C 130.8 7.3 130.8 7.8 132.7 7.9 C 132.7 7.8 133.8 7.7 133.9 7.7 C 132.6 7.8 130.9 7.7 132.7 7.6 C 132.4 7.7 135.0 7.4 135.2 7.4 C 134.9 7.2 133.2 7.4 133.9 7.1 C 136.3 6.9 135.3 7.4 137.1 7.1 C 137.3 7.3 136.3 7.3 135.8 7.4 C 136.6 7.4 137.6 7.3 137.7 7.4 C 136.8 7.5 136.8 7.7 136.5 7.9 C 137.7 7.6 139.9 7.8 138.4 7.5 C 140.9 7.5 143.3 7.3 141.6 7.1 C 143.6 7.0 142.5 7.4 144.1 7.1 C 143.9 7.4 143.4 7.6 144.8 7.8 C 145.0 7.6 146.1 7.6 146.0 7.4 C 149.0 7.4 149.9 7.7 151.1 7.9 C 150.0 7.5 151.5 7.8 153.0 7.6 C 153.9 7.7 153.1 8.0 155.5 8.0 C 152.9 7.6 158.6 8.0 157.5 7.6 C 160.6 7.9 160.6 7.9 163.8 8.1 C 163.5 8.3 162.7 8.3 161.3 8.3 C 162.3 8.1 158.5 8.0 158.7 8.1 C 158.7 8.2 158.7 8.2 158.7 8.3 C 161.1 8.3 162.7 8.5 163.8 8.7 C 164.3 8.5 165.4 8.5 165.0 8.2 C 167.3 8.7 169.7 8.4 170.7 8.8 C 169.9 8.7 169.2 8.7 169.4 8.8 C 170.4 8.8 171.5 8.9 171.4 8.7 C 169.5 8.4 169.2 8.4 168.2 8.5 C 169.0 8.4 166.4 8.0 168.3 8.1 C 168.2 8.5 172.0 8.2 170.8 8.4 C 168.7 8.4 173.0 8.8 173.2 9.0 C 173.2 9.0 173.2 9.0 173.2 9.0 Z M 208.6 134.7 C 210.3 134.2 208.1 134.4 206.8 134.8 C 207.2 134.7 207.4 134.8 207.4 135.0 C 207.9 134.8 208.4 134.6 208.6 134.7 C 208.6 134.7 208.6 134.7 208.6 134.7 Z M 188.9 134.9 C 188.3 135.3 191.3 134.6 192.6 134.5 C 192.2 134.5 191.8 134.5 192.5 134.3 C 191.2 134.3 190.8 134.8 188.9 134.9 C 188.9 134.9 188.9 134.9 188.9 134.9 Z M 119.7 137.7 C 120.2 137.7 121.4 137.7 121.5 137.9 C 122.3 137.9 122.1 137.8 122.2 137.7 C 123.7 137.8 121.8 138.0 124.1 138.1 C 125.0 137.7 120.3 137.2 119.7 137.7 C 119.7 137.7 119.7 137.7 119.7 137.7 Z M 149.1 11.4 C 150.0 11.5 147.9 11.7 148.5 11.9 C 152.0 11.8 149.3 11.4 154.1 11.6 C 153.8 11.5 153.5 11.5 153.5 11.4 C 151.3 11.4 151.1 11.6 151.6 11.2 C 150.6 11.1 150.3 11.7 149.1 11.4 C 149.1 11.4 149.1 11.4 149.1 11.4 Z M 193.4 16.3 C 193.0 16.2 192.8 16.1 192.8 16.0 C 191.4 15.8 191.7 15.9 189.8 15.6 C 190.0 15.9 191.8 16.2 193.4 16.3 C 193.4 16.3 193.4 16.3 193.4 16.3 Z M 280.0 71.4 C 280.1 71.7 280.1 72.0 280.1 72.3 C 280.2 72.1 280.7 72.8 280.4 71.4 C 280.3 71.3 280.4 71.6 280.4 71.8 C 280.3 71.6 280.2 70.9 280.0 71.0 C 280.1 71.4 280.1 71.4 280.0 71.4 C 280.0 71.4 280.0 71.4 280.0 71.4 Z M 264.1 106.4 C 265.9 104.6 260.7 108.0 264.1 106.4 C 264.1 106.4 264.1 106.4 264.1 106.4 C 264.1 106.4 264.1 106.4 264.1 106.4 Z M 269.8 105.1 C 269.9 105.1 270.3 104.7 270.3 104.6 C 271.9 103.3 270.5 104.7 271.4 104.0 C 272.4 102.7 270.5 104.3 271.9 102.7 C 271.5 102.9 270.7 104.2 269.8 105.1 C 269.8 105.1 269.8 105.1 269.8 105.1 Z M 25.8 40.4 C 24.5 41.6 24.3 42.1 24.2 42.5 C 25.1 41.7 25.9 41.1 26.3 40.9 C 28.0 39.3 25.0 41.8 24.7 42.0 C 24.7 41.7 26.0 40.6 25.8 40.4 C 25.8 40.4 25.8 40.4 25.8 40.4 Z M 21.6 44.4 C 21.1 45.0 20.4 45.8 20.5 46.0 C 21.2 45.2 21.4 45.2 21.5 45.2 C 22.1 44.4 21.1 45.2 21.6 44.4 C 21.6 44.4 21.6 44.4 21.6 44.4 Z M 30.4 37.2 C 29.7 37.8 30.1 37.7 30.0 37.9 C 31.0 37.1 31.3 37.1 32.4 36.3 C 32.3 36.3 32.3 36.2 32.2 36.1 C 31.3 36.8 31.3 36.9 30.5 37.4 C 30.5 37.4 30.4 37.3 30.4 37.2 C 30.4 37.2 30.4 37.2 30.4 37.2 Z M 18.0 48.6 C 15.9 51.0 15.5 52.4 14.8 54.1 C 15.9 52.3 16.7 50.5 17.8 49.3 C 19.0 47.8 17.3 49.7 17.3 49.6 C 17.3 49.5 17.7 49.0 18.0 48.6 C 18.0 48.6 18.0 48.6 18.0 48.6 Z M 7.7 70.9 C 7.5 71.4 7.8 72.4 7.7 73.9 C 7.8 73.7 7.9 73.4 8.0 73.4 C 8.1 71.3 7.6 72.5 7.7 70.9 C 7.7 70.9 7.7 70.9 7.7 70.9 Z M 8.9 83.4 C 9.3 84.7 8.9 82.7 9.2 83.3 C 8.9 81.9 8.6 80.3 8.3 80.4 C 8.8 81.9 8.9 82.3 8.9 83.4 C 8.9 83.4 8.9 83.4 8.9 83.4 Z M 12.6 92.2 C 13.5 93.5 12.5 91.4 13.1 91.9 C 12.8 91.3 12.7 91.5 12.6 91.5 C 12.4 91.1 12.3 90.7 11.9 90.1 C 12.0 90.6 12.9 92.2 12.6 92.2 C 12.6 92.2 12.6 92.2 12.6 92.2 Z M 68.4 19.2 C 67.5 19.5 67.8 19.7 65.8 20.3 C 68.9 19.3 67.4 20.5 71.4 19.1 C 70.8 19.2 71.1 19.0 71.4 19.1 C 72.9 18.4 69.9 19.4 71.3 18.7 C 70.2 19.1 70.9 19.1 69.8 19.5 C 68.5 19.6 67.8 19.7 68.4 19.2 C 68.4 19.2 68.4 19.2 68.4 19.2 Z M 71.5 19.4 C 72.6 19.1 72.5 18.6 73.1 18.7 C 73.7 18.5 73.5 18.5 73.6 18.4 C 73.2 18.5 73.1 18.5 73.1 18.5 C 72.1 18.8 71.2 19.2 71.5 19.4 C 71.5 19.4 71.5 19.4 71.5 19.4 Z M 61.3 22.9 C 63.0 22.1 63.6 22.1 64.4 21.5 C 65.2 21.7 65.6 21.0 66.6 21.0 C 68.4 20.3 67.0 20.6 66.5 20.6 C 68.2 20.0 67.0 20.7 68.7 20.1 C 69.0 19.7 66.8 20.5 66.9 20.2 C 65.6 20.6 65.7 20.8 64.9 21.1 C 64.2 21.3 64.4 21.1 64.3 21.1 C 62.8 21.7 62.8 21.5 61.6 22.0 C 61.4 22.3 61.9 22.2 63.3 21.6 C 61.9 22.2 61.3 22.6 59.6 23.1 C 60.7 22.5 55.5 24.5 56.1 24.7 C 57.5 24.1 57.0 24.1 57.5 23.8 C 59.4 23.3 60.5 22.8 61.3 22.9 C 61.3 22.9 61.3 22.9 61.3 22.9 Z M 31.5 37.5 C 30.9 37.8 30.5 38.1 29.7 38.6 C 29.5 38.5 30.5 37.8 29.5 38.4 C 28.3 39.2 28.1 39.5 27.4 40.1 C 27.9 39.9 30.5 38.2 29.3 39.3 C 29.7 39.1 30.5 38.5 31.6 37.8 C 30.2 38.4 33.3 36.5 34.6 35.7 C 34.2 35.5 36.8 34.4 37.6 33.6 C 36.7 33.9 34.3 35.7 33.3 36.4 C 33.7 36.0 30.1 38.0 31.5 37.5 C 31.5 37.5 31.5 37.5 31.5 37.5 Z M 75.9 17.9 C 76.2 17.7 77.5 17.3 76.5 17.6 C 76.9 17.3 78.0 17.2 77.5 17.0 C 78.1 16.8 78.6 16.6 79.2 16.5 C 79.0 16.7 77.4 17.0 78.1 17.1 C 79.2 16.7 78.8 16.9 80.4 16.5 C 79.6 16.9 80.5 16.7 80.0 17.2 C 80.4 17.0 81.8 16.6 81.6 16.4 C 83.8 15.9 81.1 16.9 84.0 16.2 C 84.0 16.4 81.9 16.9 81.2 17.0 C 80.8 17.3 84.8 16.2 86.9 15.7 C 85.0 16.0 86.4 15.4 87.4 15.0 C 88.1 14.9 87.4 15.2 88.6 15.0 C 89.6 14.8 90.1 14.6 90.4 14.6 C 91.2 14.4 90.8 14.3 90.9 14.2 C 92.3 13.9 91.3 14.5 93.3 14.0 C 91.8 14.0 93.5 13.6 96.2 13.2 C 96.0 13.1 95.2 13.2 95.0 13.1 C 95.4 12.9 97.0 12.9 97.5 12.9 C 98.4 12.7 97.8 12.7 96.8 12.9 C 97.4 12.7 98.0 12.5 98.6 12.3 C 95.6 12.8 90.9 13.8 85.5 14.7 C 86.6 14.6 85.4 14.9 83.8 15.2 C 83.5 15.2 84.2 15.0 84.9 14.8 C 83.0 15.0 83.2 15.5 80.3 16.1 C 78.8 16.4 82.0 15.5 80.3 15.8 C 79.2 16.1 78.5 16.5 78.0 16.4 C 76.2 17.0 75.8 17.4 73.0 18.2 C 74.6 17.9 75.5 18.2 77.1 17.6 C 77.1 17.6 76.3 17.8 75.9 17.9 C 75.9 17.9 75.9 17.9 75.9 17.9 Z M 21.6 45.3 C 20.8 46.1 20.6 46.6 20.3 46.6 C 19.1 48.1 20.7 46.7 21.0 46.4 C 21.5 45.8 21.6 45.5 21.6 45.3 C 21.6 45.3 21.6 45.3 21.6 45.3 Z M 127.7 140.4 C 130.1 140.6 129.6 140.3 131.5 140.4 C 130.0 140.2 129.6 140.0 127.1 139.9 C 127.0 140.1 126.9 140.3 127.7 140.4 C 127.7 140.4 127.7 140.4 127.7 140.4 Z M 26.5 41.1 C 27.5 39.9 25.2 42.6 25.1 42.4 C 23.8 43.8 26.4 41.4 25.3 42.7 C 26.4 41.6 27.3 41.1 28.8 39.7 C 28.6 39.6 27.3 40.7 26.1 41.7 C 25.9 41.7 26.5 41.2 26.5 41.1 C 26.5 41.1 26.5 41.1 26.5 41.1 Z M 103.5 137.1 C 101.9 137.1 104.9 137.8 105.9 138.0 C 106.0 137.7 105.5 137.7 103.5 137.1 C 103.5 137.1 103.5 137.1 103.5 137.1 Z M 144.2 140.6 C 145.1 140.3 141.3 140.6 142.3 140.3 C 141.2 140.2 141.0 140.3 141.0 140.4 C 140.4 140.3 138.6 140.3 139.1 140.1 C 138.8 139.9 142.0 140.2 141.0 139.9 C 142.0 139.9 142.1 140.0 142.9 140.0 C 141.0 140.0 141.9 140.3 144.2 140.4 C 144.2 140.2 143.1 140.2 144.2 140.1 C 144.3 140.2 145.5 140.4 145.4 140.7 C 147.4 140.7 146.2 140.3 148.6 140.3 C 148.4 140.1 146.9 140.1 146.0 140.1 C 146.3 139.8 148.5 140.3 147.9 139.9 C 148.4 140.1 149.8 140.2 149.9 140.4 C 148.1 140.6 146.9 140.7 145.4 140.9 C 146.8 141.0 148.8 140.5 151.1 140.7 C 150.9 140.5 152.3 140.5 151.8 140.3 C 153.6 140.3 152.8 140.6 152.4 140.6 C 152.9 140.8 156.5 140.6 156.2 140.4 C 156.5 140.6 160.8 140.3 160.6 140.0 C 161.9 140.2 163.9 139.7 164.4 140.0 C 165.2 139.9 166.6 139.8 168.2 139.7 C 168.6 139.4 165.9 139.7 165.7 139.5 C 165.2 139.3 168.6 139.4 168.2 139.2 C 168.2 139.1 168.2 139.1 168.2 139.0 C 166.9 139.2 165.6 139.4 164.4 139.5 C 163.5 139.5 164.6 139.4 164.4 139.3 C 163.5 139.5 159.5 140.0 159.3 139.5 C 156.6 139.8 154.7 139.8 153.6 140.0 C 152.0 140.0 154.5 139.8 153.6 139.7 C 148.9 140.1 143.1 139.7 139.1 140.0 C 138.3 139.9 138.6 139.8 138.5 139.6 C 133.0 139.6 137.6 140.1 133.4 139.8 C 133.4 139.6 135.4 139.8 135.3 139.5 C 133.8 139.5 133.5 139.6 131.5 139.4 C 131.5 139.5 131.5 139.6 131.5 139.7 C 129.9 139.7 130.5 139.4 129.7 139.2 C 127.6 139.2 128.1 139.4 127.2 139.0 C 125.3 139.0 123.4 138.9 121.5 138.6 C 120.2 138.7 122.6 139.3 124.6 139.5 C 124.5 139.5 123.9 139.5 123.9 139.6 C 121.6 139.2 121.3 138.7 117.8 138.3 C 120.4 138.8 116.4 138.3 115.9 138.0 C 114.5 137.9 115.5 138.3 116.5 138.4 C 116.3 138.5 115.4 138.3 115.3 138.2 C 115.1 138.5 118.4 139.1 122.0 139.3 C 120.4 139.5 124.6 139.4 122.7 139.8 C 125.6 140.0 123.1 139.5 126.4 139.8 C 126.1 139.6 125.5 139.5 125.2 139.4 C 127.7 139.5 127.0 139.8 129.6 139.9 C 130.1 139.7 128.3 139.6 128.4 139.5 C 131.2 139.9 132.1 140.0 134.0 140.4 C 134.4 140.2 133.9 140.0 137.2 140.2 C 137.2 140.3 137.2 140.3 137.2 140.4 C 135.7 140.3 135.3 140.8 139.1 140.8 C 139.4 140.7 138.2 140.7 137.2 140.6 C 137.6 140.5 138.9 140.5 140.3 140.5 C 141.1 140.5 141.9 140.6 141.0 140.7 C 141.6 140.9 142.1 140.5 144.2 140.6 C 144.2 140.6 144.2 140.6 144.2 140.6 Z M 8.6 68.5 C 8.6 68.9 8.6 69.3 8.5 70.0 C 8.7 70.4 8.8 69.0 9.0 69.0 C 9.1 68.0 8.7 68.8 8.6 68.5 C 8.6 68.5 8.6 68.5 8.6 68.5 Z M 14.1 55.1 C 13.9 55.1 13.7 55.9 13.0 57.0 C 13.0 57.4 13.7 56.1 13.9 56.2 C 14.7 54.9 13.3 56.3 14.1 55.1 C 14.1 55.1 14.1 55.1 14.1 55.1 Z M 11.2 60.8 C 10.7 61.2 11.0 61.3 11.5 60.3 C 11.6 60.4 11.6 60.7 11.3 61.4 C 11.9 60.8 11.7 60.2 12.3 59.0 C 12.0 59.4 11.6 60.0 11.2 60.8 C 11.2 60.8 11.2 60.8 11.2 60.8 Z M 10.4 62.7 C 10.3 63.5 9.9 63.9 9.7 65.1 C 9.9 64.9 10.7 62.2 10.8 61.7 C 10.8 61.2 9.8 64.1 10.4 62.7 C 10.4 62.7 10.4 62.7 10.4 62.7 Z M 80.0 131.9 C 80.5 132.1 80.4 131.9 80.6 131.9 C 82.3 132.7 84.8 133.3 82.7 133.1 C 84.6 133.4 86.3 134.1 87.9 134.5 C 89.3 134.8 88.6 134.4 89.7 134.7 C 91.4 135.1 88.8 134.6 89.1 134.8 C 89.4 135.0 90.0 134.7 92.1 135.3 C 91.6 134.8 93.8 135.7 93.3 135.2 C 94.4 135.5 94.8 135.5 96.3 135.7 C 96.2 135.5 94.7 135.3 94.6 135.1 C 93.9 134.7 93.7 135.1 95.1 135.3 C 94.3 135.4 92.2 134.7 91.6 134.7 C 90.9 134.3 93.5 135.0 92.8 134.6 C 92.3 134.6 91.7 134.5 91.6 134.6 C 90.7 134.3 90.2 134.1 89.9 134.0 C 90.4 134.1 90.4 134.1 90.4 134.2 C 91.5 134.4 89.4 133.5 91.7 134.0 C 91.3 133.9 90.4 133.6 90.6 133.5 C 89.9 133.2 90.4 134.2 88.1 133.4 C 86.5 133.3 91.7 134.4 90.3 134.6 C 87.1 133.9 89.0 133.9 86.4 133.3 C 86.4 133.4 86.4 133.5 85.7 133.3 C 85.8 133.5 86.8 133.7 87.4 133.8 C 87.3 133.9 86.3 133.6 85.7 133.5 C 85.8 133.6 86.3 133.7 86.3 133.8 C 84.1 133.2 84.4 132.8 86.4 133.1 C 86.4 132.9 83.7 132.3 82.9 132.2 C 83.6 132.6 82.8 132.3 83.4 132.7 C 84.0 132.8 83.9 132.7 84.1 132.7 C 85.1 133.0 84.1 132.9 84.0 132.9 C 82.8 132.6 82.9 132.4 81.7 132.3 C 82.0 132.3 82.3 132.3 82.3 132.2 C 81.8 132.1 81.2 131.9 80.6 131.8 C 80.6 131.9 79.9 131.7 80.0 131.9 C 80.0 131.9 80.0 131.9 80.0 131.9 Z M 110.8 138.5 C 112.9 138.8 111.8 138.4 110.9 138.3 C 111.3 138.3 112.0 138.3 112.7 138.4 C 112.2 138.2 111.6 138.2 109.7 137.9 C 111.4 137.8 109.7 137.2 106.7 136.8 C 105.7 137.1 108.3 137.5 107.2 137.7 C 109.5 137.8 110.6 138.1 110.8 138.5 C 110.8 138.5 110.8 138.5 110.8 138.5 Z M 21.0 46.5 C 20.2 47.4 19.4 48.3 18.6 49.1 C 18.9 49.2 21.5 46.5 21.0 46.5 C 21.0 46.5 21.0 46.5 21.0 46.5 Z M 101.0 12.2 C 101.6 12.1 101.6 12.2 101.7 12.2 C 103.5 11.8 100.8 12.1 101.6 11.8 C 101.0 11.9 100.4 12.0 99.8 12.1 C 99.7 12.2 102.3 11.9 100.4 12.3 C 100.6 12.4 101.0 12.3 101.0 12.2 C 101.0 12.2 101.0 12.2 101.0 12.2 Z M 9.2 67.6 C 9.1 68.5 9.4 68.0 9.0 70.1 C 9.3 69.3 9.3 68.9 9.5 67.6 C 9.4 67.6 9.3 67.6 9.2 67.6 C 9.2 67.6 9.2 67.6 9.2 67.6 Z M 71.4 129.9 C 72.8 130.6 73.3 130.2 75.9 131.1 C 74.7 130.4 73.0 130.3 71.4 129.9 C 71.4 129.9 71.4 129.9 71.4 129.9 Z M 173.2 138.9 C 172.3 138.9 173.4 138.7 171.9 138.7 C 171.1 138.9 170.7 139.1 169.4 139.2 C 171.2 139.3 174.4 138.7 175.7 139.0 C 177.2 138.8 177.0 138.6 177.5 138.3 C 176.8 138.4 176.4 138.4 176.3 138.4 C 175.4 138.8 174.3 138.4 173.2 138.9 C 173.2 138.9 173.2 138.9 173.2 138.9 Z M 102.9 137.0 C 101.8 136.6 103.8 136.8 104.2 136.7 C 105.0 136.9 104.7 137.0 104.8 137.2 C 105.9 137.3 106.2 137.2 106.0 137.0 C 104.0 136.7 101.5 136.2 103.1 136.2 C 101.1 135.8 102.1 136.3 101.2 136.2 C 100.2 135.8 101.2 135.9 101.3 135.7 C 100.8 135.7 99.3 135.7 99.4 135.4 C 96.5 135.2 97.7 135.8 99.8 136.6 C 101.8 136.7 99.6 136.2 102.9 137.0 C 102.9 137.0 102.9 137.0 102.9 137.0 Z M 29.7 109.2 C 29.8 109.4 30.7 110.1 30.7 110.2 C 32.0 110.9 33.2 111.4 34.5 112.0 C 34.4 111.6 32.7 110.7 33.3 111.3 C 32.9 110.8 31.8 110.0 31.2 109.4 C 30.1 108.5 29.5 108.7 29.6 108.2 C 28.5 107.5 29.0 108.0 27.5 106.6 C 29.8 108.9 26.5 106.0 26.2 106.1 C 27.6 107.3 29.0 108.4 28.9 108.0 C 30.0 109.0 31.2 110.0 31.4 110.4 C 31.2 110.4 30.3 109.7 29.7 109.2 C 29.7 109.2 29.7 109.2 29.7 109.2 Z M 37.0 113.4 C 36.5 113.2 36.0 112.9 35.2 112.3 C 35.6 112.7 35.7 112.9 35.6 113.0 C 37.1 114.0 37.6 114.1 38.0 114.6 C 39.5 115.6 37.8 114.1 40.1 115.6 C 40.0 115.4 38.8 114.7 38.9 114.7 C 38.6 114.7 37.6 114.2 37.0 113.4 C 37.0 113.4 37.0 113.4 37.0 113.4 Z M 55.7 123.6 C 57.1 124.1 55.1 123.1 55.9 123.3 C 55.5 123.2 53.1 122.0 53.5 122.0 C 52.9 121.4 50.1 120.8 50.5 120.6 C 50.0 120.3 50.1 120.5 50.0 120.6 C 51.7 121.3 51.6 121.5 50.4 120.9 C 50.5 121.1 51.6 121.6 52.3 121.9 C 52.5 121.8 51.8 121.5 52.0 121.4 C 53.4 122.2 54.4 122.8 55.7 123.6 C 55.7 123.6 55.7 123.6 55.7 123.6 Z M 169.3 9.9 C 167.8 9.8 166.9 9.8 166.2 9.8 C 166.6 9.9 167.3 9.9 168.1 9.9 C 168.2 10.1 167.6 10.0 166.8 10.0 C 167.5 10.2 170.1 10.2 169.3 9.9 C 169.3 9.9 169.3 9.9 169.3 9.9 Z M 156.7 9.2 C 155.3 9.1 154.4 9.2 154.2 9.3 C 154.7 9.5 154.6 9.2 155.5 9.3 C 156.0 9.3 156.4 9.4 156.7 9.5 C 157.3 9.6 157.2 9.5 157.4 9.4 C 157.9 9.4 157.9 9.4 158.0 9.5 C 159.7 9.3 156.0 9.5 156.7 9.2 C 156.7 9.2 156.7 9.2 156.7 9.2 Z M 46.2 119.0 C 45.7 118.6 45.2 118.2 43.5 117.3 C 43.8 117.6 42.4 116.9 41.4 116.3 C 42.9 117.4 43.7 117.7 46.2 119.0 C 46.2 119.0 46.2 119.0 46.2 119.0 Z M 80.0 17.4 C 78.2 17.6 78.5 17.9 76.1 18.4 C 76.1 18.5 76.1 18.6 76.1 18.7 C 77.5 18.1 78.2 18.0 80.0 17.4 C 80.0 17.4 80.0 17.4 80.0 17.4 Z M 280.5 89.0 C 280.4 88.8 279.8 90.2 279.6 90.3 C 279.8 90.7 278.9 91.1 277.3 93.8 C 277.2 93.8 277.3 93.6 277.5 93.2 C 276.0 95.3 278.1 92.8 278.4 92.6 C 279.4 90.9 279.7 90.7 280.5 89.0 C 280.5 89.0 280.5 89.0 280.5 89.0 Z M 154.3 139.2 C 154.2 139.3 154.5 139.3 154.9 139.3 C 155.3 139.3 155.8 139.3 156.1 139.3 C 156.0 139.0 153.9 138.9 155.5 138.5 C 154.9 138.5 154.9 138.5 154.9 138.6 C 151.8 139.4 149.4 138.3 145.4 138.7 C 144.8 138.7 144.9 138.8 144.8 138.9 C 145.3 138.9 145.4 138.9 145.4 138.9 C 145.9 138.6 149.5 139.0 147.9 139.1 C 148.1 139.2 148.6 139.1 148.6 139.1 C 149.0 139.1 149.4 139.1 149.9 139.1 C 149.6 139.0 148.7 139.0 148.6 138.9 C 150.6 138.9 153.1 139.0 151.8 139.3 C 153.0 139.3 153.4 139.1 154.3 139.0 C 155.1 139.0 155.1 139.2 154.3 139.2 C 154.3 139.2 154.3 139.2 154.3 139.2 Z M 170.6 138.3 C 172.5 138.2 171.8 138.0 173.7 137.8 C 172.5 137.8 171.0 138.2 169.3 138.1 C 169.6 138.2 170.4 138.2 170.6 138.3 C 170.6 138.3 170.6 138.3 170.6 138.3 Z M 134.1 138.7 C 134.5 138.4 132.8 138.3 130.9 138.2 C 130.6 138.5 132.2 138.6 134.1 138.7 C 134.1 138.7 134.1 138.7 134.1 138.7 Z M 142.3 138.9 C 144.1 138.8 140.0 138.8 141.0 138.6 C 140.1 138.6 139.2 138.5 139.2 138.5 C 138.5 138.5 138.5 138.6 137.3 138.6 C 137.3 138.7 139.3 138.7 139.2 138.8 C 140.6 138.7 140.8 138.7 142.3 138.9 C 142.3 138.9 142.3 138.9 142.3 138.9 Z M 143.5 138.9 C 144.7 138.9 143.2 138.4 141.7 138.4 C 142.2 138.6 142.6 138.8 143.5 138.9 C 143.5 138.9 143.5 138.9 143.5 138.9 Z M 14.2 90.1 C 14.5 90.7 14.5 90.1 14.9 90.9 C 15.0 90.8 13.5 88.2 14.8 90.4 C 14.6 89.4 14.0 89.2 13.6 88.1 C 13.6 88.5 13.7 88.7 13.4 88.2 C 13.1 88.0 14.6 90.3 14.2 90.1 C 14.2 90.1 14.2 90.1 14.2 90.1 Z M 15.7 92.8 C 16.1 93.3 16.0 93.0 15.8 92.7 C 16.0 92.8 16.4 93.5 16.8 94.1 C 16.7 94.2 16.4 92.9 16.6 92.8 C 15.0 90.7 15.9 92.6 15.7 92.8 C 15.7 92.8 15.7 92.8 15.7 92.8 Z M 17.4 94.9 C 18.2 96.5 19.9 98.5 20.9 99.3 C 20.3 98.0 18.1 95.4 17.4 94.9 C 17.4 94.9 17.4 94.9 17.4 94.9 Z M 10.9 80.0 C 11.1 82.7 13.1 88.0 11.9 83.1 C 11.8 83.3 10.9 80.1 10.8 78.5 C 10.7 78.5 10.3 76.8 10.4 76.7 C 10.1 75.5 10.8 80.6 10.9 80.0 C 10.9 80.0 10.9 80.0 10.9 80.0 Z M 22.9 100.6 C 22.1 100.0 22.7 101.2 21.8 100.0 C 21.2 99.4 21.8 100.3 21.6 100.2 C 22.8 101.5 25.9 104.0 25.9 104.5 C 26.7 105.1 27.1 105.1 28.5 106.4 C 28.6 106.3 23.4 102.1 22.8 100.8 C 22.9 100.8 24.5 102.4 22.9 100.6 C 22.9 100.6 22.9 100.6 22.9 100.6 Z M 80.4 18.7 C 80.5 18.5 78.2 19.3 78.6 18.9 C 77.4 19.5 76.2 19.7 74.8 20.3 C 74.4 20.3 74.4 19.9 72.5 20.5 C 72.5 20.7 73.4 20.4 72.6 20.8 C 70.8 21.4 71.2 20.9 69.2 21.7 C 69.7 22.0 65.1 23.2 65.7 23.4 C 66.7 23.0 66.6 22.8 68.3 22.3 C 68.9 22.2 68.7 22.4 69.4 22.1 C 68.9 22.5 67.9 22.5 67.3 22.9 C 67.5 23.0 68.8 22.6 69.0 22.7 C 69.8 22.4 68.8 22.7 68.9 22.5 C 71.0 21.7 68.9 23.0 71.2 22.2 C 70.7 22.1 70.7 22.1 71.1 21.8 C 72.0 21.6 74.8 20.6 73.3 21.3 C 73.5 21.4 75.2 20.7 74.9 20.6 C 75.8 20.3 76.0 20.4 76.0 20.4 C 78.4 19.7 78.7 19.4 78.1 19.3 C 78.5 18.9 79.0 19.2 80.4 18.7 C 80.4 18.7 80.4 18.7 80.4 18.7 Z M 11.8 65.3 C 12.0 64.1 11.5 66.5 11.2 67.5 C 11.5 66.2 11.8 66.7 12.2 65.4 C 12.0 65.8 11.9 65.7 12.2 64.8 C 12.2 64.6 11.5 66.6 11.8 65.3 C 11.8 65.3 11.8 65.3 11.8 65.3 Z M 31.7 108.8 C 32.2 109.4 35.2 111.3 36.8 112.4 C 36.7 111.9 32.5 109.8 32.3 109.1 C 31.4 108.5 32.7 109.5 31.7 108.8 C 31.7 108.8 31.7 108.8 31.7 108.8 Z M 59.8 25.1 C 59.2 25.3 59.5 25.2 59.8 25.1 C 59.7 25.3 58.6 25.7 57.8 26.0 C 59.0 25.7 57.6 26.3 58.0 26.5 C 57.4 26.7 57.1 26.9 57.0 27.0 C 56.8 26.6 53.9 28.5 57.1 27.2 C 56.5 27.3 56.7 27.2 58.0 26.6 C 59.5 26.1 60.6 25.5 61.1 25.6 C 62.1 25.2 62.4 24.9 63.7 24.5 C 64.0 24.5 65.2 24.2 64.4 24.9 C 66.7 24.0 64.9 24.0 66.8 23.3 C 68.7 22.8 66.0 23.9 66.5 24.0 C 66.9 23.8 66.9 23.9 67.0 23.9 C 67.7 23.7 67.6 23.5 67.0 23.7 C 67.1 23.6 69.0 22.7 68.5 23.2 C 69.6 22.7 66.6 23.0 65.2 23.8 C 64.4 24.1 64.2 23.7 65.1 23.4 C 64.7 23.3 63.2 24.5 63.4 23.9 C 62.7 24.1 62.1 24.4 61.4 24.6 C 61.5 24.6 61.9 24.5 61.9 24.6 C 61.3 24.8 60.6 25.1 59.9 25.4 C 60.4 25.0 60.4 25.0 59.8 25.1 C 59.8 25.1 59.8 25.1 59.8 25.1 Z M 25.2 103.4 C 26.4 104.5 26.7 104.6 27.7 105.4 C 27.4 104.9 24.8 102.7 25.2 103.4 C 25.2 103.4 25.2 103.4 25.2 103.4 Z M 90.3 17.1 C 90.1 17.1 89.1 17.3 89.1 17.2 C 90.9 16.7 88.8 17.1 90.2 16.3 C 87.9 17.0 87.2 17.8 90.4 17.3 C 92.6 16.7 88.0 17.6 90.3 17.1 C 90.3 17.1 90.3 17.1 90.3 17.1 Z M 83.3 18.6 C 82.0 19.0 85.5 18.3 86.3 18.2 C 86.3 18.3 86.3 18.3 86.4 18.4 C 88.2 17.6 85.6 18.1 87.3 17.2 C 85.0 17.6 84.0 17.8 82.1 18.4 C 82.2 18.4 82.7 18.3 82.7 18.2 C 84.1 17.9 83.2 18.5 81.6 18.8 C 82.1 18.8 83.5 18.4 84.5 18.2 C 84.2 18.2 83.8 18.2 83.9 18.1 C 85.1 17.8 84.7 18.1 85.6 17.9 C 85.6 18.0 83.4 18.7 83.3 18.6 C 83.3 18.6 83.3 18.6 83.3 18.6 Z M 203.7 16.7 C 202.5 16.5 204.8 17.3 204.6 17.6 C 205.9 17.9 206.2 17.9 207.0 18.1 C 206.6 17.8 205.3 17.5 204.7 17.2 C 205.0 17.0 206.5 17.7 207.1 17.6 C 207.9 17.4 204.1 17.1 203.7 16.7 C 203.7 16.7 203.7 16.7 203.7 16.7 Z M 32.4 40.0 C 31.8 40.5 32.2 40.3 32.5 40.1 C 32.4 40.3 31.5 40.9 31.4 40.9 C 30.6 41.5 31.9 40.6 31.0 41.4 C 30.9 41.7 32.5 40.2 32.5 40.2 C 33.7 39.3 32.9 40.2 33.3 40.1 C 34.4 39.3 33.9 39.4 35.5 38.4 C 34.5 38.9 33.5 39.3 32.4 40.0 C 32.4 40.0 32.4 40.0 32.4 40.0 Z M 94.3 15.8 C 94.5 15.7 93.0 16.4 91.4 16.6 C 89.3 17.0 92.7 16.6 90.9 16.9 C 92.4 16.6 94.3 16.1 96.7 15.6 C 97.2 15.3 93.3 16.2 95.5 15.7 C 95.4 15.6 94.9 15.7 94.9 15.8 C 94.4 15.9 94.3 15.8 94.3 15.8 C 94.3 15.8 94.3 15.8 94.3 15.8 Z M 92.0 16.8 C 92.2 16.9 92.7 16.7 92.7 16.7 C 93.4 16.6 93.5 16.8 92.7 16.9 C 93.7 17.0 93.6 16.5 95.6 16.3 C 94.7 16.2 94.3 16.2 96.2 16.0 C 97.6 15.5 92.7 16.5 92.0 16.8 C 92.0 16.8 92.0 16.8 92.0 16.8 Z M 184.6 13.5 C 184.7 13.6 186.0 13.8 187.0 13.9 C 185.8 13.9 180.9 13.2 180.3 12.9 C 179.7 12.9 179.2 12.9 179.0 12.8 C 179.1 12.9 177.7 12.8 178.4 13.0 C 178.3 13.0 177.2 12.9 177.2 13.0 C 175.3 12.7 177.7 12.9 177.2 12.7 C 175.0 12.7 175.5 12.5 172.9 12.2 C 173.3 12.5 176.2 12.7 175.9 13.0 C 178.0 13.0 180.2 13.4 181.4 13.8 C 179.5 13.2 186.7 13.9 190.0 14.5 C 189.8 14.7 191.0 14.8 192.3 15.2 C 193.2 15.5 193.0 15.0 191.2 14.8 C 191.3 14.6 193.7 15.2 194.7 15.3 C 193.5 15.0 194.3 15.0 193.6 14.8 C 191.3 14.4 193.4 14.8 193.0 14.9 C 192.4 14.8 191.8 14.7 191.1 14.6 C 194.4 14.8 186.6 13.9 189.4 14.3 C 186.9 13.9 186.9 13.6 184.6 13.5 C 184.6 13.5 184.6 13.5 184.6 13.5 Z M 126.0 11.6 C 125.5 11.7 123.6 12.0 123.5 11.8 C 120.9 12.2 123.2 12.2 120.4 12.5 C 120.6 12.6 121.6 12.4 121.6 12.5 C 122.7 12.4 123.8 12.2 123.5 12.0 C 124.8 11.9 125.1 11.8 126.0 11.7 C 125.7 11.8 125.2 11.9 124.1 12.0 C 123.9 12.2 124.4 12.3 126.0 12.2 C 126.7 11.9 126.2 11.8 126.0 11.6 C 126.0 11.6 126.0 11.6 126.0 11.6 Z M 119.8 12.5 C 119.5 12.4 119.1 12.4 119.1 12.3 C 118.2 12.1 118.8 12.6 117.9 12.7 C 117.2 12.8 117.4 12.6 117.3 12.5 C 116.2 12.7 115.4 12.8 114.8 12.8 C 113.2 13.1 116.8 12.8 117.3 12.9 C 118.5 12.7 118.1 12.6 119.8 12.5 C 119.8 12.5 119.8 12.5 119.8 12.5 Z M 101.4 14.6 C 101.1 14.4 100.5 14.9 99.7 15.0 C 100.3 15.1 102.0 14.7 100.9 15.2 C 102.7 14.9 102.8 14.9 104.5 14.6 C 105.7 14.6 104.6 14.4 102.7 14.8 C 102.9 14.6 103.8 14.5 103.9 14.4 C 105.1 14.7 108.1 13.5 106.3 14.1 C 105.7 14.1 105.4 14.1 105.1 14.0 C 104.7 14.3 100.6 14.8 101.4 14.6 C 101.4 14.6 101.4 14.6 101.4 14.6 Z M 45.7 32.4 C 48.4 30.9 49.3 30.5 51.2 29.7 C 51.3 29.8 51.2 29.9 50.8 30.1 C 51.3 29.9 51.8 29.6 52.7 29.2 C 52.6 29.1 52.2 29.4 52.2 29.4 C 50.6 30.0 51.9 29.3 52.0 29.0 C 50.1 29.7 47.6 31.4 46.2 31.8 C 45.2 32.4 46.5 31.8 45.7 32.4 C 45.7 32.4 45.7 32.4 45.7 32.4 Z M 279.5 86.4 C 279.5 86.6 279.1 87.4 279.3 87.3 C 279.6 86.6 279.7 86.1 279.9 85.5 C 279.4 86.7 279.2 86.4 278.4 88.0 C 278.8 87.5 278.9 87.7 279.5 86.4 C 279.5 86.4 279.5 86.4 279.5 86.4 Z M 107.5 13.7 C 107.6 13.8 107.6 13.9 106.9 14.1 C 106.7 14.3 108.7 13.9 108.7 14.1 C 109.4 13.9 109.1 13.8 110.0 13.7 C 109.7 13.6 108.1 13.9 108.7 13.6 C 109.2 13.5 109.3 13.5 109.3 13.6 C 110.6 13.3 108.7 13.5 107.5 13.7 C 107.5 13.7 107.5 13.7 107.5 13.7 Z M 209.3 18.2 C 208.5 18.1 209.3 18.4 209.9 18.5 C 208.2 18.4 210.8 19.2 210.9 19.4 C 210.2 19.1 207.9 18.6 207.5 18.5 C 206.8 18.4 207.6 18.7 205.7 18.4 C 205.9 18.6 207.9 18.9 207.5 18.6 C 207.9 19.0 209.9 19.2 209.7 19.4 C 212.2 20.1 212.9 20.1 213.1 19.9 C 210.7 19.3 212.0 19.2 209.8 18.8 C 209.9 18.7 210.5 18.9 211.0 19.0 C 210.9 18.8 209.9 18.5 209.3 18.2 C 209.3 18.2 209.3 18.2 209.3 18.2 Z M 146.0 11.0 C 144.6 11.1 144.7 11.3 144.7 11.4 C 145.3 11.4 146.1 11.4 147.2 11.4 C 147.0 11.2 145.3 11.3 146.0 11.0 C 146.0 11.0 146.0 11.0 146.0 11.0 Z M 200.0 16.5 C 199.9 16.4 199.4 16.3 199.4 16.4 C 197.9 16.1 197.6 15.9 197.1 15.7 C 196.3 15.6 196.6 15.8 196.5 15.9 C 197.9 16.0 197.6 16.2 199.4 16.5 C 199.3 16.4 199.6 16.4 200.0 16.5 C 200.0 16.5 200.0 16.5 200.0 16.5 Z M 159.2 11.5 C 158.4 11.5 158.8 11.5 159.2 11.5 C 158.3 11.8 155.7 11.5 154.7 11.6 C 154.6 11.7 157.8 11.8 154.1 11.8 C 154.8 12.0 158.1 11.9 159.7 12.1 C 159.4 12.3 157.1 12.1 157.2 12.4 C 159.2 12.4 161.3 12.3 161.6 12.0 C 158.8 11.8 159.8 11.7 159.2 11.5 C 159.2 11.5 159.2 11.5 159.2 11.5 Z M 162.3 11.8 C 162.0 11.6 161.5 11.8 160.4 11.7 C 161.9 12.1 162.9 12.0 166.0 12.2 C 166.0 12.2 166.0 12.1 166.0 12.1 C 166.6 12.1 167.3 12.2 167.9 12.2 C 165.2 11.8 164.5 11.9 161.6 11.8 C 161.5 11.8 161.9 11.8 162.3 11.8 C 162.3 11.8 162.3 11.8 162.3 11.8 Z M 80.6 19.4 C 81.4 19.4 82.1 19.3 83.4 19.0 C 83.3 18.8 82.4 18.9 80.6 19.4 C 80.6 19.4 80.6 19.4 80.6 19.4 Z M 202.3 17.1 C 203.9 17.3 200.8 16.8 201.7 17.2 C 202.9 17.6 204.3 18.0 204.5 18.3 C 206.9 18.5 202.0 17.4 202.3 17.1 C 202.3 17.1 202.3 17.1 202.3 17.1 Z M 191.6 15.7 C 190.9 15.5 191.0 15.2 191.7 15.5 C 193.3 15.8 190.2 15.1 192.8 15.6 C 191.8 15.3 189.3 14.7 188.1 14.7 C 188.1 14.9 190.4 15.2 190.4 15.4 C 190.5 15.5 190.2 15.4 189.8 15.4 C 190.0 15.5 190.6 15.5 191.6 15.7 C 191.6 15.7 191.6 15.7 191.6 15.7 Z M 182.6 14.0 C 183.6 14.2 184.8 14.5 186.9 14.8 C 185.5 14.4 184.8 14.1 182.6 14.0 C 182.6 14.0 182.6 14.0 182.6 14.0 Z M 278.9 63.1 C 278.5 62.0 278.6 63.1 278.6 63.2 C 279.0 64.3 279.1 64.1 279.5 65.4 C 279.6 64.9 278.9 63.9 278.9 63.1 C 278.9 63.1 278.9 63.1 278.9 63.1 Z M 280.0 67.0 C 279.9 67.2 280.3 68.7 280.2 68.8 C 280.8 69.6 280.2 71.0 280.6 70.9 C 280.6 71.3 280.6 71.6 280.7 72.2 C 281.0 71.0 280.4 68.3 280.0 67.0 C 280.0 67.0 280.0 67.0 280.0 67.0 Z M 172.1 13.3 C 170.5 13.1 172.6 13.7 170.9 13.5 C 170.8 13.6 174.0 13.9 172.1 13.8 C 174.6 14.3 171.9 13.4 172.1 13.3 C 172.1 13.3 172.1 13.3 172.1 13.3 Z M 141.6 12.4 C 141.7 12.3 139.4 12.5 138.5 12.4 C 138.5 12.5 139.2 12.5 139.7 12.5 C 139.5 12.6 139.2 12.6 138.5 12.7 C 139.0 12.8 140.7 12.5 141.6 12.4 C 141.6 12.4 141.6 12.4 141.6 12.4 Z M 175.7 9.4 C 176.7 9.8 178.0 10.1 178.8 9.9 C 179.8 10.2 178.0 10.0 179.3 10.3 C 181.1 10.4 180.2 10.5 183.0 10.8 C 182.5 11.0 184.5 11.3 184.8 11.5 C 183.7 11.4 182.3 10.9 181.7 11.1 C 182.7 11.2 182.1 11.4 181.7 11.2 C 179.9 10.8 184.0 11.2 181.8 10.7 C 181.1 11.0 177.8 10.0 175.6 9.8 C 176.5 9.7 174.0 9.3 175.7 9.4 C 175.7 9.4 175.7 9.4 175.7 9.4 Z M 186.7 11.3 C 188.2 11.5 188.9 12.1 188.5 12.0 C 188.5 11.9 186.8 11.7 186.6 11.8 C 187.0 11.8 187.4 11.9 187.3 11.9 C 184.5 11.5 185.5 11.4 184.9 11.2 C 186.4 11.3 186.8 11.5 187.3 11.5 C 187.0 11.4 186.6 11.3 186.7 11.3 C 186.7 11.3 186.7 11.3 186.7 11.3 Z M 216.8 21.7 C 216.6 21.5 216.2 21.6 215.7 21.5 C 215.7 21.1 212.7 20.8 212.4 20.5 C 213.1 20.6 214.6 20.9 215.2 21.0 C 214.5 20.8 214.3 20.7 213.5 20.6 C 213.8 20.4 215.4 20.8 215.9 20.8 C 216.0 21.0 216.8 21.0 217.0 21.2 C 214.8 20.7 218.1 22.1 216.8 21.7 C 216.8 21.7 216.8 21.7 216.8 21.7 Z M 157.9 12.7 C 157.6 12.9 160.3 13.6 157.8 13.8 C 157.3 13.6 157.0 13.4 157.2 13.1 C 155.7 13.2 155.0 12.9 154.1 13.1 C 151.3 12.3 156.3 13.3 157.9 12.7 C 157.9 12.7 157.9 12.7 157.9 12.7 Z M 147.8 12.7 C 148.4 12.5 147.0 12.5 147.2 12.3 C 148.4 12.5 152.3 12.3 151.0 12.4 C 149.7 12.5 149.7 12.7 147.8 12.7 C 147.8 12.7 147.8 12.7 147.8 12.7 Z M 65.7 125.6 C 63.9 125.2 63.2 124.5 64.2 124.7 C 63.7 124.8 66.3 125.6 65.7 125.6 C 65.7 125.6 65.7 125.6 65.7 125.6 Z M 8.6 85.1 C 9.0 86.6 9.4 87.4 9.3 87.7 C 8.7 86.3 8.9 86.4 8.5 85.2 C 8.4 85.1 8.0 84.4 8.1 84.2 C 8.3 84.9 8.4 84.7 8.6 85.1 C 8.6 85.1 8.6 85.1 8.6 85.1 Z M 109.4 9.4 C 109.2 9.4 108.5 9.4 108.8 9.2 C 110.6 9.1 112.7 8.6 114.3 8.3 C 114.3 8.4 114.3 8.5 114.3 8.6 C 111.3 8.8 110.6 9.1 109.4 9.4 C 109.4 9.4 109.4 9.4 109.4 9.4 Z M 105.6 9.5 C 105.3 9.6 106.4 9.8 105.1 10.0 C 105.1 9.8 102.7 9.9 103.8 9.7 C 104.2 9.8 104.8 9.7 105.6 9.5 C 105.6 9.5 105.6 9.5 105.6 9.5 Z M 210.1 15.1 C 211.5 15.5 209.5 14.8 209.6 14.7 C 210.6 15.0 212.0 15.3 212.4 15.5 C 211.4 15.3 210.6 15.5 210.1 15.1 C 210.1 15.1 210.1 15.1 210.1 15.1 Z M 188.0 11.4 C 184.8 10.9 186.2 10.7 183.1 10.2 C 184.4 10.2 187.2 10.7 188.1 10.6 C 187.9 10.7 188.7 10.9 188.6 11.0 C 187.5 10.8 187.3 10.7 186.2 10.6 C 186.6 10.9 186.6 10.8 186.1 11.0 C 187.0 11.1 187.5 11.1 188.0 11.1 C 187.7 11.2 188.9 11.5 188.0 11.4 C 188.0 11.4 188.0 11.4 188.0 11.4 Z M 209.4 15.6 C 210.6 15.8 211.5 16.4 210.5 16.1 C 210.4 15.9 209.5 15.9 209.3 15.8 C 211.1 16.1 208.0 15.3 208.9 15.3 C 209.9 15.6 210.2 15.6 210.0 15.4 C 210.7 15.5 211.7 15.8 211.8 15.9 C 211.3 15.8 210.6 15.6 210.6 15.7 C 211.0 15.8 211.3 15.8 211.2 15.9 C 210.2 15.6 209.7 15.6 209.4 15.6 C 209.4 15.6 209.4 15.6 209.4 15.6 Z M 201.2 13.8 C 202.8 14.1 203.0 14.4 203.5 14.7 C 201.3 14.1 201.0 13.7 199.5 13.3 C 201.2 13.7 203.1 13.8 203.6 14.1 C 202.8 14.0 201.4 13.7 201.2 13.8 C 201.2 13.8 201.2 13.8 201.2 13.8 Z M 221.7 129.3 C 220.4 129.6 219.3 129.7 217.8 130.0 C 217.4 130.4 220.2 130.1 219.0 130.3 C 217.5 130.7 218.5 130.1 217.2 130.4 C 218.5 130.4 212.0 132.2 211.6 132.0 C 212.6 131.7 212.9 131.5 212.7 131.4 C 215.3 130.8 216.3 130.3 218.3 129.7 C 219.8 129.6 223.9 128.4 225.9 127.3 C 227.5 127.3 229.8 125.9 231.9 125.6 C 232.3 125.2 230.2 125.9 231.7 125.3 C 232.9 125.1 232.1 125.5 233.5 125.1 C 233.5 125.0 233.2 124.9 233.9 124.6 C 233.8 124.8 234.7 124.5 235.0 124.4 C 232.2 125.5 235.3 124.7 233.1 125.6 C 232.1 125.9 233.9 124.9 231.4 125.8 C 230.5 126.2 229.6 126.6 229.9 126.8 C 229.2 127.1 228.8 127.2 228.3 127.4 C 229.2 126.8 224.7 128.8 226.7 127.8 C 226.9 127.7 228.3 127.2 229.3 126.8 C 228.3 126.8 227.2 127.4 225.6 128.1 C 224.8 128.1 225.8 127.7 224.9 127.9 C 223.7 128.5 225.5 128.1 224.6 128.6 C 225.0 128.4 225.6 128.2 225.6 128.3 C 223.3 128.8 222.5 129.3 221.3 129.7 C 222.0 129.3 219.9 129.9 221.7 129.3 C 221.7 129.3 221.7 129.3 221.7 129.3 Z M 240.5 121.9 C 241.0 121.7 241.5 121.5 242.0 121.3 C 242.2 121.5 240.3 122.4 241.7 122.0 C 239.5 122.9 241.6 121.6 240.5 121.9 C 240.5 121.9 240.5 121.9 240.5 121.9 Z M 230.0 125.2 C 229.1 125.3 229.7 125.7 229.0 125.9 C 230.3 125.4 231.4 124.9 231.7 125.1 C 230.2 125.6 229.5 125.8 228.0 126.5 C 229.4 125.6 226.2 126.8 225.7 126.7 C 226.9 126.2 227.8 125.8 229.4 125.2 C 229.1 125.4 231.5 124.7 230.0 125.2 C 230.0 125.2 230.0 125.2 230.0 125.2 Z M 234.0 123.4 C 234.4 123.4 236.5 122.4 236.2 122.8 C 234.8 123.3 234.3 123.6 234.7 123.7 C 233.7 124.1 233.5 124.1 232.6 124.4 C 232.0 124.4 233.6 123.8 234.0 123.4 C 233.7 123.6 233.4 123.6 234.0 123.4 C 234.0 123.4 234.0 123.4 234.0 123.4 Z M 272.8 95.9 C 273.3 95.7 271.8 97.3 271.5 97.6 C 272.1 97.3 272.0 97.6 271.1 98.7 C 271.2 98.1 269.9 99.7 268.7 100.4 C 268.6 100.8 269.9 99.6 268.5 101.1 C 267.4 102.1 266.4 103.2 264.5 104.8 C 263.9 105.0 264.7 104.3 265.2 103.8 C 263.9 104.9 264.2 104.4 263.1 105.2 C 263.4 105.2 262.6 105.9 262.2 106.1 C 264.0 104.6 259.6 107.7 261.5 106.1 C 261.6 106.1 262.1 105.8 262.5 105.4 C 262.2 106.0 264.5 104.0 265.1 103.7 C 265.7 102.5 268.1 100.5 270.5 98.2 C 270.8 98.1 270.1 99.0 270.7 98.4 C 270.7 98.2 271.4 97.4 271.7 97.0 C 271.8 97.1 272.1 96.8 272.6 96.3 C 272.6 96.3 272.6 96.2 272.8 95.9 C 272.8 95.9 272.8 95.9 272.8 95.9 Z M 121.7 136.1 C 121.9 135.7 117.9 135.5 116.8 135.5 C 117.0 135.1 124.0 135.9 121.7 136.1 C 121.7 136.1 121.7 136.1 121.7 136.1 Z M 146.0 136.9 C 145.0 136.9 145.7 137.1 144.8 137.1 C 144.8 136.9 142.4 137.3 142.3 137.1 C 143.5 136.9 144.2 136.9 146.0 136.9 C 146.0 136.9 146.0 136.9 146.0 136.9 Z M 168.6 136.1 C 166.8 136.3 169.5 136.2 169.2 136.3 C 167.6 136.4 166.0 136.5 166.1 136.3 C 167.5 136.3 168.4 135.9 168.6 136.1 C 168.6 136.1 168.6 136.1 168.6 136.1 Z M 134.8 136.4 C 133.3 136.2 135.8 136.0 136.1 136.2 C 134.4 136.2 137.1 136.5 138.5 136.4 C 138.5 136.7 137.9 136.6 138.5 136.9 C 136.3 137.0 138.2 136.6 136.6 136.6 C 135.6 136.7 136.7 136.7 136.6 136.9 C 136.0 136.9 135.4 136.9 134.8 136.9 C 134.8 136.7 134.8 136.6 134.8 136.5 C 135.6 136.5 136.3 136.5 136.0 136.4 C 135.4 136.3 135.3 136.4 134.8 136.4 C 134.8 136.4 134.8 136.4 134.8 136.4 Z M 245.7 115.9 C 244.6 116.5 245.6 116.1 246.4 115.7 C 246.6 115.5 247.0 114.8 248.3 114.4 C 245.8 116.0 249.3 114.3 247.9 115.1 C 247.2 115.3 245.7 116.3 244.4 117.0 C 243.7 117.1 245.0 116.1 245.7 115.9 C 245.7 115.9 245.7 115.9 245.7 115.9 Z M 250.5 113.5 C 250.3 113.6 249.9 113.8 249.1 114.2 C 249.9 113.6 248.7 114.2 249.7 113.6 C 249.6 113.7 253.0 111.8 251.0 113.0 C 249.2 113.9 251.6 112.9 252.4 112.4 C 251.6 112.9 250.1 114.1 249.8 114.0 C 250.3 113.8 250.7 113.5 250.5 113.5 C 250.5 113.5 250.5 113.5 250.5 113.5 Z M 277.6 87.1 C 277.5 86.8 277.2 87.6 277.0 87.8 C 278.1 85.7 278.7 83.8 279.1 82.8 C 278.8 83.8 279.0 83.8 279.2 83.3 C 278.8 84.3 278.8 84.6 278.6 85.0 C 278.7 84.0 278.2 85.8 277.6 87.1 C 277.6 87.1 277.6 87.1 277.6 87.1 Z M 277.6 87.1 " fill="#000000"></path><image xlink:href="../../CEFA4209-80C9-472B-8D2B-058B96531B72/assets/53DE529C9B23CC4742AB8E7F7EB62785.png" width="153.00" height="39.00" transform="matrix(1.00, 0.00, -0.00, -1.00, 71.0, 90.0)"></image><g><clipPath id="clip-1154"><path d="M 10.4 10.2 L 282.9 10.2 L 282.9 138.6 L 10.4 138.6 Z M 10.4 10.2 "></path></clipPath><g clip-path="url(#clip-1154)"><text xml:space="preserve" font-family="Chalkduster" font-size="32.0" fill="#000000" transform="matrix(1.00, 0.00, -0.00, -1.00, 74.0, 60.0)">N</text><text xml:space="preserve" font-family="Chalkduster" font-size="32.0" fill="#000000" transform="matrix(1.00, 0.00, -0.00, -1.00, 96.8, 60.0)">F</text><text xml:space="preserve" font-family="Chalkduster" font-size="32.0" fill="#000000" transform="matrix(1.00, 0.00, -0.00, -1.00, 120.6, 60.0)">S</text><text xml:space="preserve" font-family="Chalkduster" font-size="32.0" fill="#000000" transform="matrix(1.00, 0.00, -0.00, -1.00, 136.5, 60.0)"> </text><text xml:space="preserve" font-family="Chalkduster" font-size="32.0" fill="#000000" transform="matrix(1.00, 0.00, -0.00, -1.00, 152.4, 60.0)">t</text><text xml:space="preserve" font-family="Chalkduster" font-size="32.0" fill="#000000" transform="matrix(1.00, 0.00, -0.00, -1.00, 166.7, 60.0)">e</text><text xml:space="preserve" font-family="Chalkduster" font-size="32.0" fill="#000000" transform="matrix(1.00, 0.00, -0.00, -1.00, 187.3, 60.0)">s</text><text xml:space="preserve" font-family="Chalkduster" font-size="32.0" fill="#000000" transform="matrix(1.00, 0.00, -0.00, -1.00, 204.4, 60.0)">t</text></g></g></g></svg>