<?xml version="1.0" encoding="UTF-8" standalone="no"?><svg xmlns="http://www.w3.org/2000/svg" xmlns:xlink="http://www.w3.org/1999/xlink" clip-rule="evenodd" stroke-miterlimit="4.00" viewBox="0 0 309 123"><desc>SVG generated by Keynote</desc><defs></defs><g transform="matrix(1.00, 0.00, -0.00, -1.00, 0.0, 123.0)"><g><clipPath id="clip-295"><path d="M 260.0 101.1 C 318.3 79.1 318.3 43.5 260.0 21.6 C 201.8 -0.4 107.4 -0.4 49.2 21.6 C -9.0 43.5 -9.0 79.1 49.2 101.1 C 107.4 123.0 201.8 123.0 260.0 101.1 Z M 260.0 101.1 "></path></clipPath><g clip-path="url(#clip-295)"><image xlink:href="../../CEFA4209-80C9-472B-8D2B-058B96531B72/assets/59DBD66EA15A3D40E065F836EF2595FD.jpeg" width="400.00" height="400.00" transform="matrix(1.00, 0.00, -0.00, -1.00, 5.5, 117.6)"></image></g></g><path d="M 76.9 9.4 C 76.4 9.5 75.9 9.7 75.1 9.9 C 75.4 9.8 75.8 9.8 75.7 10.0 C 76.4 9.7 77.3 9.5 78.7 9.2 C 78.6 9.1 77.9 9.3 77.5 9.4 C 76.9 9.5 77.0 9.4 76.9 9.4 C 76.9 9.4 76.9 9.4 76.9 9.4 Z M 64.9 109.7 C 63.7 109.3 64.9 109.9 65.3 110.1 C 65.4 110.0 65.5 110.0 65.9 110.1 C 66.0 110.4 65.0 110.1 64.2 110.0 C 61.1 109.0 63.5 109.3 64.9 109.7 C 64.9 109.7 64.9 109.7 64.9 109.7 Z M 235.7 111.8 C 238.3 111.2 235.5 111.6 235.1 111.6 C 236.3 111.2 235.2 111.1 236.7 110.7 C 237.0 110.7 237.6 110.7 237.9 110.7 C 237.3 110.9 236.3 111.1 236.2 111.2 C 237.1 111.0 238.3 110.7 238.5 110.7 C 236.6 111.3 238.3 111.1 238.6 111.1 C 236.9 111.5 236.4 111.9 235.7 111.8 C 235.7 111.8 235.7 111.8 235.7 111.8 Z M 280.3 28.0 C 281.2 28.5 281.9 28.9 281.6 28.9 C 280.7 28.4 280.1 28.0 279.6 27.7 C 279.4 27.7 279.6 28.0 278.8 27.5 C 278.0 26.8 278.6 26.8 279.1 27.0 C 279.1 27.2 282.2 28.8 280.3 28.0 C 280.3 28.0 280.3 28.0 280.3 28.0 Z M 209.9 6.8 C 207.5 6.3 209.7 7.1 207.3 6.7 C 207.4 6.5 207.1 6.2 208.7 6.4 C 208.8 6.5 209.7 6.7 209.9 6.8 C 209.9 6.8 209.9 6.8 209.9 6.8 Z M 163.6 118.8 C 163.6 118.9 165.4 118.8 165.0 119.1 C 164.1 119.1 163.2 119.1 162.3 119.1 C 162.1 118.9 162.4 118.8 163.6 118.8 C 163.6 118.8 163.6 118.8 163.6 118.8 Z M 252.0 104.8 C 254.5 104.3 256.9 103.0 256.2 103.5 C 257.3 103.4 254.8 104.7 254.8 104.4 C 254.5 104.3 250.0 105.4 252.0 104.8 C 252.0 104.8 252.0 104.8 252.0 104.8 Z M 79.1 109.0 C 81.9 109.8 81.5 109.0 83.3 109.7 C 82.6 109.6 82.3 109.6 82.1 109.6 C 82.5 109.7 83.2 109.8 83.2 109.9 C 81.9 109.7 80.2 109.4 79.1 109.0 C 79.1 109.0 79.1 109.0 79.1 109.0 Z M 119.7 3.3 C 120.2 3.3 120.5 3.2 120.4 3.1 C 122.4 3.0 122.3 2.8 123.6 2.8 C 123.7 3.2 122.0 3.2 120.4 3.3 C 120.3 3.3 119.8 3.4 119.7 3.3 C 119.7 3.3 119.7 3.3 119.7 3.3 Z M 178.2 3.4 C 178.2 3.2 176.9 3.0 178.9 3.1 C 181.1 3.5 179.1 3.6 176.8 3.6 C 176.8 3.7 176.8 3.8 176.8 3.9 C 177.7 4.0 178.3 4.1 178.8 4.1 C 179.2 3.8 180.7 4.5 184.1 4.6 C 182.5 4.6 184.2 5.0 182.1 4.7 C 182.6 5.0 181.2 4.9 181.4 5.1 C 182.3 5.0 184.5 5.2 184.0 4.9 C 185.2 5.0 186.1 5.1 186.7 5.2 C 187.5 5.5 184.5 5.1 185.4 5.4 C 186.0 5.4 186.1 5.5 186.6 5.6 C 186.8 5.5 186.5 5.3 187.3 5.4 C 189.4 5.7 186.9 5.6 189.9 5.9 C 190.1 5.8 189.2 5.7 189.2 5.6 C 190.6 5.5 190.5 5.7 191.9 5.7 C 192.1 5.9 190.9 5.8 191.8 6.0 C 192.7 5.7 194.5 6.5 196.4 6.3 C 195.2 5.7 196.7 6.5 198.4 6.2 C 198.7 6.4 197.5 6.5 198.9 6.7 C 198.5 6.0 204.2 6.9 199.7 5.8 C 202.1 6.1 203.0 5.8 201.1 5.4 C 205.3 6.1 204.0 5.6 205.6 5.8 C 207.2 6.0 204.7 5.8 205.5 6.1 C 203.8 5.9 204.2 6.1 203.0 5.8 C 203.0 5.9 202.6 5.9 202.3 5.9 C 204.0 6.0 206.0 6.6 204.7 6.7 C 203.9 6.6 204.7 6.4 203.5 6.2 C 203.9 6.7 202.3 6.0 202.2 6.2 C 203.0 6.7 200.5 6.6 202.8 7.0 C 202.8 6.8 202.9 6.7 202.9 6.6 C 203.5 6.6 204.1 6.7 204.7 6.8 C 205.3 7.1 204.8 7.2 205.4 7.4 C 206.4 7.5 207.0 7.5 207.3 7.5 C 206.0 7.2 204.5 6.8 206.7 7.1 C 205.8 7.4 209.7 7.6 207.9 7.6 C 210.2 8.1 211.4 7.9 211.6 8.3 C 212.8 8.5 212.1 8.1 213.5 8.3 C 215.8 8.9 215.5 8.5 218.5 9.3 C 218.9 8.9 218.8 9.4 219.7 9.6 C 219.7 9.4 219.8 9.3 219.8 9.2 C 220.8 9.6 223.2 10.1 225.8 10.4 C 226.4 10.6 225.9 10.7 227.6 11.0 C 229.4 11.1 231.4 11.9 233.5 12.0 C 233.7 12.2 235.1 12.6 235.9 12.7 C 236.2 12.9 235.1 12.9 236.4 13.2 C 237.3 13.2 235.8 12.7 237.6 13.1 C 237.4 13.3 239.3 13.3 239.3 13.6 C 238.7 13.5 238.1 13.5 237.5 13.4 C 238.3 13.6 238.1 13.7 238.7 13.9 C 238.6 13.5 240.0 14.1 240.4 14.3 C 240.4 14.2 240.6 14.1 241.0 14.2 C 242.0 14.4 242.8 14.6 243.3 14.7 C 244.5 15.2 242.5 14.7 243.8 15.1 C 244.6 14.6 245.6 15.7 248.3 16.1 C 248.9 16.4 249.9 16.8 251.5 17.4 C 251.7 17.3 250.0 16.8 250.0 16.6 C 252.3 17.4 249.6 16.4 251.1 16.8 C 254.4 18.0 256.6 18.8 259.9 20.2 C 260.0 20.0 264.1 21.5 263.9 21.5 C 262.8 21.1 266.2 22.8 267.9 23.5 C 268.5 23.4 271.3 24.2 271.5 24.1 C 272.0 24.5 271.9 24.5 272.0 24.9 C 274.8 26.4 276.3 26.8 277.7 28.0 C 277.7 27.8 278.9 28.4 279.9 28.9 C 279.6 28.9 278.9 28.7 278.3 28.5 C 279.6 29.2 279.8 29.4 280.9 30.1 C 282.4 30.2 283.7 32.0 284.9 32.0 C 286.6 33.1 286.2 33.1 287.6 34.2 C 287.6 34.0 287.9 34.0 288.3 34.3 C 287.3 33.7 286.5 33.3 286.1 32.7 C 288.4 34.2 282.1 29.2 286.1 31.5 C 286.1 31.7 285.7 31.6 286.4 32.2 C 288.6 33.5 287.5 32.5 286.6 31.9 C 288.1 32.8 289.5 33.9 288.5 32.9 C 291.7 35.1 289.6 33.8 290.6 34.7 C 296.0 38.6 301.4 44.1 304.0 50.5 C 304.4 50.6 305.4 54.2 305.5 55.3 C 306.2 57.1 306.5 59.0 306.2 59.6 C 306.5 59.9 306.1 61.9 306.4 62.1 C 306.4 61.3 306.5 60.7 306.5 61.6 C 306.4 64.3 305.4 68.2 305.0 69.8 C 304.4 70.6 303.8 72.3 303.3 73.5 C 303.1 73.6 303.5 72.7 303.1 73.4 C 303.1 73.7 301.9 76.2 301.4 76.6 C 301.9 76.0 302.1 75.0 301.4 76.0 C 301.5 76.1 300.7 77.3 301.0 77.1 C 299.9 78.5 299.3 79.5 298.2 80.6 C 299.0 79.6 299.4 78.9 299.4 78.7 C 298.8 79.6 298.4 80.3 297.6 80.8 C 298.0 80.9 296.7 82.1 295.4 83.6 C 294.9 83.9 294.5 84.1 293.3 85.2 C 292.9 85.8 295.4 83.7 294.0 85.0 C 294.0 84.9 292.6 85.9 293.1 85.8 C 291.3 87.1 290.5 88.1 288.8 89.0 C 290.8 87.6 289.2 88.4 288.7 88.7 C 288.2 89.1 287.6 89.5 287.6 89.6 C 287.7 89.7 288.6 88.9 288.8 88.9 C 287.4 89.8 287.2 90.4 286.6 90.6 C 287.2 90.2 287.2 90.0 286.5 90.5 C 286.5 90.9 282.0 93.5 283.4 92.3 C 283.5 92.4 285.2 91.4 285.3 91.2 C 284.7 91.4 282.3 93.1 282.7 92.5 C 284.2 91.6 284.1 91.8 285.8 90.6 C 285.9 90.4 286.8 89.7 287.3 89.2 C 284.8 91.0 284.3 91.6 283.8 91.6 C 282.6 92.3 283.5 92.1 281.4 93.3 C 278.4 95.0 280.7 93.3 279.9 93.7 C 277.3 95.4 278.2 95.2 279.5 94.7 C 277.4 95.9 276.8 96.4 273.9 97.8 C 274.0 97.6 274.3 97.3 275.3 96.7 C 275.4 96.8 277.7 95.7 277.5 95.7 C 277.1 95.5 275.2 96.3 272.1 97.8 C 273.0 97.7 273.0 97.5 269.8 99.0 C 270.5 99.1 268.3 99.6 268.3 99.9 C 268.5 99.9 269.6 99.4 270.7 98.9 C 270.7 99.0 270.3 99.3 269.3 99.8 C 268.5 100.0 268.1 100.4 266.0 101.2 C 265.8 101.0 267.2 100.4 267.4 100.1 C 266.3 100.6 266.2 100.8 265.0 101.3 C 264.0 101.5 263.9 101.2 263.9 100.8 C 265.2 100.2 267.1 99.4 265.5 99.9 C 270.3 97.9 265.4 100.3 267.2 99.6 C 269.1 98.5 268.2 99.3 271.2 97.9 C 272.1 97.5 272.3 97.3 272.6 97.1 C 272.4 97.1 270.6 97.7 272.5 96.8 C 273.0 96.7 274.1 96.3 275.6 95.6 C 275.5 95.5 272.5 96.9 275.5 95.4 C 276.9 94.7 275.8 95.6 277.7 94.6 C 277.7 94.5 278.2 94.2 278.3 94.1 C 275.5 95.6 278.8 93.6 276.8 94.5 C 279.2 93.1 277.4 94.5 278.9 93.6 C 278.9 93.5 281.5 92.3 281.4 92.0 C 280.6 92.6 278.6 93.7 278.8 93.3 C 280.5 92.4 287.7 87.5 285.2 89.7 C 286.1 88.9 290.5 85.1 290.3 85.5 C 289.0 86.6 289.1 86.7 289.0 86.9 C 291.4 84.7 292.8 83.9 294.8 81.4 C 292.3 83.8 293.9 81.7 292.2 82.9 C 291.5 83.6 290.5 84.4 290.4 84.6 C 290.9 84.6 291.9 83.5 292.3 83.0 C 292.4 83.2 292.6 83.3 292.7 83.5 C 289.6 85.9 287.8 87.5 286.0 88.6 C 287.5 87.6 283.0 90.3 284.7 89.0 C 285.5 88.7 287.3 87.5 288.7 86.5 C 288.6 86.4 288.6 86.4 288.5 86.3 C 289.1 85.8 290.0 85.2 290.0 85.1 C 288.2 86.6 287.0 87.1 285.8 88.2 C 285.7 88.2 285.7 88.1 285.7 88.1 C 285.3 88.3 285.0 88.5 285.1 88.4 C 285.7 87.9 286.7 87.3 286.7 87.2 C 285.3 88.2 284.9 88.1 283.1 89.2 C 283.4 88.7 280.9 89.9 283.4 88.2 C 283.9 88.2 285.2 87.4 285.3 87.5 C 286.0 87.1 287.3 86.1 287.9 85.5 C 287.2 85.8 285.8 86.8 285.5 86.6 C 286.6 85.8 287.4 85.1 288.2 84.8 C 286.1 86.6 289.4 84.0 290.4 83.6 C 290.1 83.7 289.6 84.0 289.2 84.2 C 290.8 82.9 291.6 82.4 291.4 82.0 C 293.1 80.4 292.9 80.9 294.0 79.8 C 293.0 80.3 294.6 79.0 293.6 79.5 C 295.4 77.6 294.4 79.1 295.0 78.5 C 295.5 77.9 295.5 77.7 295.9 77.2 C 296.7 76.4 298.0 74.7 298.4 74.6 C 298.9 73.9 299.0 73.8 299.5 73.0 C 299.5 72.8 299.6 72.5 299.7 72.1 C 299.8 72.1 300.2 71.5 300.2 71.3 C 298.8 73.3 299.2 72.7 297.5 74.7 C 297.5 74.9 297.3 75.2 297.7 74.8 C 296.7 76.3 296.2 76.7 295.1 77.9 C 294.8 78.0 294.4 78.0 293.4 79.3 C 293.5 78.9 293.2 79.1 293.6 78.6 C 294.2 78.1 295.0 77.3 295.8 76.5 C 295.8 76.4 295.6 76.4 295.9 76.0 C 296.4 75.6 296.9 75.0 297.2 74.4 C 297.3 74.5 297.2 74.7 297.1 75.0 C 298.6 73.0 297.8 73.6 298.8 72.1 C 298.5 72.3 298.0 73.2 298.3 72.4 C 299.0 71.0 299.3 70.8 299.7 70.1 C 299.6 70.0 299.5 70.0 299.7 69.6 C 300.3 68.7 299.2 72.0 300.2 70.4 C 300.1 70.1 300.8 68.5 301.1 68.3 C 301.1 68.9 300.4 69.8 300.5 70.0 C 301.9 66.9 301.1 70.1 302.1 66.9 C 302.0 66.8 301.9 66.8 301.8 66.8 C 301.5 68.1 301.2 68.0 301.0 67.9 C 300.7 69.0 300.2 69.3 299.9 70.2 C 299.7 69.7 300.3 69.3 300.8 68.2 C 300.5 68.2 300.1 69.2 299.9 69.2 C 301.1 66.8 300.9 66.2 301.6 63.9 C 301.2 64.4 301.6 62.5 301.4 62.7 C 301.3 64.7 300.7 63.8 300.6 64.1 C 300.4 65.4 300.9 64.9 300.9 65.7 C 300.6 66.1 300.5 65.8 300.2 65.6 C 300.6 64.4 300.5 64.6 300.5 63.7 C 300.8 63.0 301.3 62.3 301.3 63.4 C 301.3 63.2 301.2 61.6 301.4 61.5 C 301.4 63.0 301.6 61.4 301.6 62.3 C 301.9 61.1 301.4 59.0 301.4 57.6 C 301.2 57.7 301.1 57.2 301.0 57.3 C 301.5 58.7 301.0 59.0 301.1 60.4 C 301.0 59.8 300.9 60.1 300.8 60.4 C 300.9 59.1 300.6 58.4 300.6 57.4 C 300.5 57.4 300.4 57.4 300.4 57.4 C 300.2 55.8 300.2 56.0 299.5 54.8 C 299.5 54.3 300.1 54.8 300.4 54.9 C 300.1 54.3 299.2 52.1 299.5 53.5 C 299.0 52.2 299.4 52.4 298.7 51.0 C 298.5 51.1 299.1 52.4 298.6 52.1 C 298.0 50.9 298.6 51.4 297.8 50.5 C 298.0 50.3 298.2 50.2 297.5 49.1 C 297.8 50.0 297.3 49.1 297.0 48.9 C 297.3 49.4 297.5 49.8 297.6 50.1 C 296.5 48.2 296.2 47.8 294.9 46.3 C 295.6 46.7 294.9 45.7 295.9 46.7 C 294.9 45.9 294.1 44.4 293.5 44.0 C 294.0 44.7 294.9 45.7 295.1 46.1 C 292.4 43.1 290.5 41.7 287.4 38.8 C 288.0 39.2 288.7 39.9 288.9 39.9 C 288.5 39.6 287.9 39.1 288.0 39.0 C 289.1 40.0 290.1 40.9 290.7 41.3 C 291.6 42.2 290.1 41.0 291.0 41.9 C 291.3 41.9 292.8 43.6 292.4 42.8 C 290.8 41.5 289.3 39.9 288.8 39.0 C 286.8 38.0 288.5 39.2 286.3 38.2 C 286.4 38.1 286.0 37.7 285.4 37.2 C 285.8 37.9 283.4 36.0 283.2 35.9 C 284.2 36.4 287.8 38.7 286.2 37.2 C 286.6 38.3 282.1 34.2 282.8 35.2 C 280.3 33.7 281.4 34.0 279.8 33.3 C 279.8 33.2 280.0 33.2 279.3 32.8 C 278.6 32.4 278.3 32.3 277.9 32.2 C 281.7 34.5 280.4 34.1 282.6 35.6 C 282.2 35.3 281.8 35.1 281.9 35.2 C 281.9 35.3 281.8 35.3 281.3 34.9 C 281.3 34.6 279.4 33.8 279.0 33.3 C 279.7 33.7 280.4 34.2 280.3 33.9 C 277.2 32.1 278.1 32.2 273.3 29.6 C 274.7 30.5 272.8 29.6 271.1 28.8 C 268.7 27.6 269.8 27.7 266.7 26.3 C 266.7 26.7 265.9 26.3 264.6 25.7 C 263.9 25.4 263.1 25.0 262.2 24.7 C 261.3 24.3 259.9 23.8 259.2 23.6 C 259.6 23.4 256.5 22.2 255.7 22.2 C 255.7 22.0 254.5 21.7 253.7 21.4 C 253.5 21.2 254.5 21.5 253.8 21.2 C 253.0 21.0 253.6 21.4 252.6 21.1 C 251.5 20.7 251.8 20.5 250.1 20.0 C 250.0 20.2 250.9 20.4 250.0 20.3 C 248.5 19.7 247.2 19.3 248.4 19.9 C 246.1 19.3 247.3 19.2 245.2 18.6 C 245.8 18.9 245.7 18.9 244.6 18.6 C 243.8 18.2 243.8 18.1 243.6 17.9 C 242.9 18.0 243.1 18.0 241.3 17.5 C 241.3 17.6 241.3 17.7 241.2 17.8 C 240.4 17.5 239.2 17.3 239.0 17.1 C 240.5 17.6 240.1 17.2 240.8 17.3 C 239.3 16.9 236.3 15.9 238.5 16.7 C 236.3 16.3 237.5 16.2 235.7 15.9 C 236.7 16.4 235.8 15.9 234.0 15.5 C 234.1 15.9 232.8 15.3 231.6 15.0 C 231.8 15.3 231.5 15.3 230.4 15.1 C 230.5 15.0 229.9 14.8 228.7 14.5 C 228.7 14.7 231.1 15.3 228.7 14.8 C 227.5 14.4 227.6 14.2 225.7 13.8 C 225.4 13.4 227.4 14.0 227.0 13.6 C 225.5 13.5 225.1 13.3 222.8 12.8 C 223.6 13.4 218.3 12.5 220.9 13.2 C 220.1 13.1 219.0 13.2 218.4 12.8 C 219.3 12.9 217.8 12.5 217.9 12.4 C 216.8 12.3 214.4 11.7 214.3 11.9 C 216.6 12.2 216.6 12.4 217.2 12.7 C 213.8 12.2 210.8 11.7 211.1 11.4 C 211.1 11.5 210.6 11.5 210.5 11.5 C 211.7 11.7 212.4 12.2 211.0 12.0 C 211.4 11.8 210.4 11.6 209.3 11.3 C 209.2 11.6 204.7 10.6 205.5 11.0 C 207.3 11.1 208.7 11.7 207.3 11.6 C 206.2 11.2 203.7 10.8 204.3 10.6 C 203.6 10.6 203.0 10.6 202.4 10.6 C 201.8 10.8 203.2 10.9 202.9 11.1 C 202.0 11.0 200.6 10.8 200.4 10.7 C 202.9 11.0 199.1 10.4 201.7 10.5 C 200.1 10.3 199.8 10.2 198.6 10.0 C 198.5 10.1 198.0 10.0 197.9 10.1 C 199.0 10.1 200.1 10.3 199.8 10.5 C 197.5 10.3 197.9 10.1 196.0 9.9 C 195.4 10.0 192.8 10.0 191.5 9.7 C 194.0 10.0 191.3 9.6 192.8 9.6 C 195.1 10.0 195.7 9.8 196.6 9.7 C 195.7 9.4 193.7 9.1 193.5 9.4 C 194.7 9.6 194.7 9.5 195.4 9.5 C 195.3 9.6 194.9 9.7 194.1 9.7 C 193.0 9.4 190.6 9.3 192.2 9.1 C 190.6 9.1 188.8 8.7 187.1 8.8 C 188.9 8.9 190.3 9.2 190.9 9.4 C 189.3 9.4 187.7 9.0 187.7 9.1 C 187.8 9.4 190.3 9.5 190.8 9.7 C 188.8 9.8 185.8 8.8 188.3 9.6 C 187.1 9.4 185.6 9.3 185.1 9.2 C 186.4 9.2 185.0 8.8 184.4 8.7 C 183.2 8.6 182.2 8.6 181.8 8.7 C 183.6 8.7 185.0 9.1 183.7 9.1 C 183.4 8.9 183.0 9.0 182.5 9.0 C 182.3 8.9 180.2 8.8 179.9 8.7 C 180.0 8.8 180.9 8.9 181.1 9.0 C 179.9 9.0 178.1 9.3 177.2 8.9 C 178.0 8.9 179.1 9.0 179.2 8.9 C 175.8 8.3 174.7 8.0 170.7 7.7 C 171.2 7.7 171.5 7.6 171.4 7.5 C 168.8 7.4 167.1 7.2 167.5 7.1 C 165.9 7.0 165.0 7.2 164.2 7.3 C 165.9 7.5 166.4 7.2 167.5 7.5 C 166.8 7.5 168.7 8.0 169.4 8.2 C 172.2 8.0 172.4 8.4 175.3 8.4 C 174.5 8.6 177.4 8.6 176.5 8.8 C 173.9 8.3 171.3 8.5 167.4 8.2 C 168.0 8.0 168.4 7.8 166.8 7.7 C 164.3 7.5 165.5 7.8 163.5 7.7 C 162.6 7.5 163.9 7.5 162.8 7.4 C 162.1 7.5 160.2 7.4 159.6 7.2 C 162.3 7.3 159.0 7.0 160.8 6.9 C 159.9 6.9 159.4 6.8 158.9 6.8 C 161.5 7.1 156.2 7.1 158.2 7.3 C 154.5 7.4 157.9 6.7 154.9 6.8 C 156.4 6.9 154.5 7.0 152.3 7.0 C 151.7 6.8 149.4 6.7 147.6 6.7 C 148.6 6.8 149.3 6.8 147.6 7.0 C 148.5 7.1 150.1 7.1 150.9 6.9 C 150.9 7.0 151.3 7.1 151.6 7.2 C 149.5 7.2 150.4 7.4 149.6 7.4 C 149.0 7.3 147.4 7.4 147.0 7.2 C 147.0 7.3 146.4 7.3 146.4 7.4 C 149.1 7.4 145.9 7.8 147.7 7.8 C 148.9 7.8 148.1 7.5 149.6 7.5 C 151.1 7.8 148.4 7.8 147.7 8.1 C 149.0 8.3 150.5 7.9 150.9 8.2 C 149.3 8.5 146.6 8.4 144.4 8.3 C 144.5 8.7 140.7 8.4 140.4 8.8 C 140.1 8.7 139.7 8.6 139.2 8.6 C 138.5 8.9 137.8 8.6 137.2 8.6 C 137.1 8.7 137.3 8.8 137.8 8.9 C 135.1 8.9 134.5 8.9 131.3 9.2 C 130.8 9.1 130.2 9.0 130.0 8.8 C 130.7 8.7 131.4 8.6 131.9 8.5 C 127.6 8.8 130.4 9.3 127.4 9.1 C 127.5 9.2 129.6 9.3 128.0 9.5 C 125.3 9.4 121.5 10.0 121.6 9.3 C 119.1 9.3 117.6 9.9 116.4 9.7 C 115.7 9.8 115.4 9.9 115.1 10.0 C 115.9 10.1 116.8 10.1 117.7 10.1 C 119.1 9.9 119.8 10.0 118.4 9.8 C 120.5 9.6 121.1 9.7 122.2 9.7 C 119.3 10.1 116.6 10.2 116.5 10.6 C 115.5 10.5 114.7 10.4 113.9 10.4 C 113.6 10.6 110.3 11.0 110.1 10.8 C 112.3 10.6 114.6 10.1 112.5 10.1 C 107.1 10.9 104.0 10.8 99.4 11.8 C 99.2 11.7 99.6 11.5 98.7 11.6 C 98.7 11.7 98.6 11.9 98.1 12.0 C 96.7 12.2 95.8 12.3 93.8 12.6 C 93.9 12.4 93.6 12.3 92.5 12.4 C 92.0 12.7 90.1 13.5 89.0 13.7 C 90.1 13.4 88.5 13.4 87.7 13.6 C 88.5 13.8 82.3 14.4 84.1 14.4 C 81.7 14.9 80.6 15.0 80.6 14.9 C 79.7 15.1 79.1 15.3 78.3 15.5 C 77.7 15.3 73.6 16.6 73.0 16.5 C 74.5 16.3 74.7 15.9 73.5 16.2 C 72.8 16.5 69.2 17.7 68.6 17.8 C 68.8 17.6 69.0 17.3 70.7 16.8 C 67.7 17.5 67.8 17.9 66.9 18.4 C 66.9 18.0 65.7 18.7 65.3 18.9 C 64.3 19.0 65.3 18.8 65.2 18.6 C 64.1 18.8 63.7 18.8 62.4 19.2 C 62.9 19.4 61.3 19.7 60.8 19.8 C 60.6 20.0 59.9 20.3 58.8 20.8 C 60.2 19.8 52.0 22.6 54.0 22.2 C 52.5 22.9 52.3 22.5 50.4 23.2 C 50.0 23.5 48.9 23.9 50.0 23.7 C 49.2 24.0 48.4 24.2 48.0 24.3 C 47.7 24.4 47.2 24.5 45.7 25.2 C 47.1 24.9 42.6 26.4 43.5 26.4 C 42.0 26.6 39.8 28.2 37.3 29.0 C 37.4 29.0 36.8 29.4 36.7 29.5 C 36.4 29.8 39.5 28.3 37.5 29.3 C 35.0 30.4 36.3 29.7 35.9 29.7 C 29.5 33.1 23.1 37.1 18.8 40.8 C 19.4 40.5 19.4 40.6 18.5 41.4 C 17.0 42.1 13.1 46.8 12.8 47.6 C 12.2 47.8 11.0 50.3 10.6 50.6 C 10.9 50.2 11.2 49.1 10.6 50.1 C 10.5 50.9 9.9 51.6 9.7 52.6 C 9.2 52.9 8.4 55.9 8.4 54.4 C 8.2 55.0 8.1 55.3 7.9 55.6 C 8.2 55.7 8.0 56.2 8.5 55.3 C 7.5 57.8 7.7 58.4 7.4 60.4 C 7.5 60.7 7.7 59.2 7.7 60.4 C 7.6 60.4 7.6 60.4 7.5 60.4 C 7.5 60.8 7.6 61.0 7.5 61.2 C 7.4 61.1 7.4 60.4 7.1 60.4 C 7.2 61.3 6.9 62.0 7.1 62.4 C 7.1 61.0 7.6 61.9 7.4 62.7 C 7.2 62.0 7.8 65.8 8.3 67.0 C 8.2 67.7 7.9 65.7 7.8 65.9 C 8.4 68.2 8.4 68.0 8.7 68.2 C 9.1 69.5 9.1 70.0 10.0 71.4 C 10.4 72.3 9.6 71.0 10.0 71.9 C 10.4 72.4 10.6 72.6 11.2 73.4 C 12.1 75.8 17.0 80.2 19.3 83.1 C 18.3 82.0 19.8 83.2 21.4 84.4 C 21.4 84.6 21.2 84.5 21.7 85.0 C 21.8 84.8 22.3 85.1 23.5 86.0 C 23.5 86.1 23.2 86.1 23.8 86.5 C 24.5 86.6 25.8 87.9 26.8 88.3 C 27.0 88.8 24.6 87.0 24.3 87.1 C 27.1 89.2 27.8 89.3 30.2 90.8 C 28.9 90.1 31.0 91.6 31.4 91.8 C 30.9 91.3 33.0 92.3 31.6 91.3 C 32.6 91.9 34.1 92.7 34.3 92.9 C 33.7 92.6 32.9 92.1 32.9 92.2 C 34.1 92.8 35.6 93.9 36.4 94.0 C 35.5 93.5 35.0 93.2 35.0 93.1 C 35.4 93.2 35.9 93.3 36.6 93.6 C 34.3 93.1 40.5 95.8 40.9 95.8 C 41.3 96.4 41.7 96.6 41.4 96.6 C 44.1 97.9 43.9 97.5 45.6 98.1 C 45.0 98.1 44.3 98.1 47.0 99.3 C 46.5 98.8 49.8 100.1 48.9 99.4 C 50.7 100.0 51.2 100.2 51.9 100.5 C 52.6 100.8 53.2 101.0 53.7 101.2 C 54.7 101.7 55.6 102.1 56.9 102.5 C 57.0 102.4 56.2 102.1 57.0 102.3 C 58.2 102.8 59.2 103.3 60.0 103.6 C 60.8 103.7 59.8 103.3 60.6 103.5 C 62.6 104.4 62.0 104.5 63.7 105.2 C 66.0 105.6 65.1 105.5 66.6 105.7 C 66.0 105.5 65.2 105.2 66.1 105.4 C 67.4 106.0 67.8 106.4 68.2 106.5 C 67.2 106.3 66.4 106.0 65.9 105.8 C 65.6 105.9 64.2 105.5 65.3 106.0 C 63.9 105.5 62.4 105.0 60.4 104.4 C 61.0 104.9 58.6 103.9 59.2 104.4 C 61.4 105.0 61.9 105.4 64.1 106.0 C 63.7 105.5 65.9 106.3 66.3 106.5 C 66.4 106.4 67.9 106.8 67.6 106.5 C 69.3 106.9 69.2 107.1 70.9 107.5 C 71.0 107.6 70.7 107.7 71.4 107.9 C 72.1 107.8 72.6 108.2 73.1 108.4 C 72.8 108.0 75.3 108.8 75.5 108.6 C 74.8 108.4 73.9 108.2 73.8 108.1 C 76.6 108.8 74.4 108.0 73.9 107.7 C 74.0 107.9 72.9 107.9 72.7 107.7 C 75.1 108.1 69.5 106.5 71.6 107.1 C 73.4 107.6 73.3 107.4 75.1 107.9 C 77.1 108.8 74.5 108.4 76.6 109.3 C 78.0 109.4 78.9 109.6 79.0 109.4 C 79.3 109.6 79.6 109.8 80.1 109.9 C 80.7 109.9 78.5 109.3 80.2 109.6 C 81.1 109.9 80.0 110.0 81.9 110.3 C 82.8 110.3 79.7 109.6 81.4 109.9 C 83.2 110.6 81.0 109.7 83.2 110.1 C 83.4 110.2 83.7 110.3 84.4 110.4 C 84.5 110.5 84.2 110.7 84.9 110.8 C 85.4 110.5 85.7 111.2 87.3 111.4 C 88.3 111.3 85.7 110.9 86.2 110.8 C 88.0 111.4 89.1 111.3 89.8 111.4 C 88.3 111.4 92.1 112.0 92.2 112.3 C 91.8 111.9 92.6 112.2 94.8 112.3 C 94.8 112.8 97.3 112.9 97.8 113.3 C 98.1 113.2 98.7 113.2 99.1 113.1 C 98.3 113.0 97.6 112.9 97.9 112.8 C 98.5 112.9 99.1 113.0 99.8 113.1 C 100.8 113.4 98.0 113.6 102.2 114.1 C 101.7 113.7 103.5 113.9 104.7 114.0 C 104.6 113.7 103.0 113.7 102.9 113.5 C 104.3 113.6 105.8 114.0 106.6 114.2 C 109.1 114.4 112.0 114.9 115.6 115.2 C 116.4 115.4 112.6 115.0 114.9 115.4 C 115.9 115.5 115.5 115.3 116.8 115.4 C 115.5 116.4 126.6 116.5 127.2 117.0 C 127.7 116.8 130.8 117.1 130.5 116.8 C 128.4 116.9 127.0 116.4 126.0 116.2 C 124.0 116.2 127.7 116.6 125.9 116.5 C 125.7 116.4 123.1 116.3 123.3 116.1 C 126.1 116.3 121.9 115.8 124.0 115.7 C 126.6 115.9 131.8 116.0 130.6 116.2 C 130.6 116.1 129.4 116.0 129.3 116.1 C 132.2 116.4 134.0 116.3 135.2 116.2 C 136.5 116.5 141.8 116.3 140.5 116.4 C 140.9 116.7 137.3 116.3 137.8 116.5 C 143.3 116.8 143.4 116.6 147.0 116.9 C 145.9 116.6 150.8 116.5 150.4 116.6 C 150.4 116.8 151.5 117.0 153.7 116.8 C 153.3 117.0 154.5 117.1 155.7 117.2 C 156.2 117.0 154.7 117.0 155.0 116.8 C 156.1 116.8 157.2 116.8 158.3 116.8 C 158.4 116.9 158.2 117.0 159.0 117.0 C 160.2 116.8 164.6 116.5 164.3 116.7 C 162.4 117.0 167.3 116.9 164.3 117.1 C 165.1 117.1 165.2 117.2 166.3 117.2 C 166.3 117.1 166.3 117.0 166.3 116.9 C 168.7 116.8 167.5 117.2 169.6 117.1 C 169.7 117.0 170.6 117.0 170.9 116.8 C 170.1 116.9 170.0 117.0 168.9 117.0 C 170.1 116.6 166.7 116.9 166.9 116.6 C 169.2 116.5 169.2 116.7 170.2 116.8 C 173.1 116.5 171.7 116.7 174.8 116.6 C 174.8 116.5 174.0 116.5 174.2 116.4 C 177.9 116.3 177.5 116.8 180.1 116.4 C 179.5 116.5 177.2 116.8 178.8 116.8 C 180.5 116.5 181.0 116.3 183.3 116.1 C 183.4 116.1 183.3 116.3 184.0 116.2 C 185.0 116.1 185.0 115.9 185.9 115.7 C 186.1 115.8 187.4 115.6 187.9 115.5 C 188.7 115.7 187.6 115.8 188.6 115.8 C 190.5 115.6 191.4 115.0 193.0 114.9 C 193.0 115.2 194.7 114.9 196.3 114.7 C 196.6 115.0 199.9 114.6 202.1 114.4 C 201.5 114.2 203.8 114.0 203.2 113.8 C 202.2 113.9 201.6 113.9 201.4 113.9 C 203.8 113.5 204.7 113.9 206.4 113.3 C 207.4 113.3 208.6 113.3 210.2 113.1 C 210.4 113.0 207.3 113.3 209.0 113.0 C 209.1 113.1 209.6 113.0 210.2 112.8 C 210.0 113.1 211.3 113.0 212.1 113.0 C 213.5 112.6 216.6 112.4 215.2 112.3 C 217.5 111.9 216.0 112.6 217.8 112.3 C 216.8 112.1 219.8 111.6 218.3 111.7 C 220.6 111.2 220.5 111.6 219.5 111.9 C 221.7 111.6 222.1 111.3 223.2 111.2 C 222.2 111.2 225.4 110.4 223.7 110.9 C 223.3 111.2 225.7 110.6 226.2 110.6 C 225.4 110.6 226.5 110.4 225.0 110.5 C 226.5 110.2 228.8 109.6 230.3 109.6 C 232.2 109.0 234.0 108.5 233.3 109.0 C 235.1 108.5 234.4 108.7 236.2 108.3 C 236.2 108.2 235.7 108.3 235.5 108.3 C 238.0 107.7 237.6 107.9 240.7 107.1 C 240.4 107.5 242.5 106.9 243.1 106.9 C 241.8 107.3 240.7 107.5 239.7 107.7 C 239.5 107.9 240.6 107.7 239.7 107.9 C 239.6 107.9 239.1 108.0 238.6 108.1 C 240.7 107.8 236.0 109.2 237.4 108.5 C 237.5 108.6 237.6 108.6 238.0 108.5 C 237.6 108.3 237.6 108.4 237.9 108.1 C 236.9 108.4 236.0 108.3 235.6 108.7 C 235.7 108.7 236.7 108.5 236.8 108.5 C 234.2 109.3 236.0 108.4 233.9 109.0 C 233.5 109.4 234.6 109.2 235.2 109.2 C 233.2 109.7 231.6 110.0 231.0 110.0 C 229.3 110.5 231.2 110.2 229.9 110.6 C 229.3 110.6 229.3 110.4 228.1 110.6 C 226.8 111.0 228.9 110.7 227.5 111.0 C 226.1 111.1 228.5 110.5 226.2 110.9 C 226.8 111.1 224.2 111.2 224.5 111.4 C 225.7 111.1 225.8 111.4 225.1 111.3 C 222.1 111.6 220.2 112.9 217.2 112.8 C 217.2 112.9 216.7 113.0 216.6 113.1 C 218.9 112.9 222.1 112.3 222.8 112.5 C 224.5 112.1 224.3 111.9 224.5 111.8 C 226.7 111.7 226.5 111.7 225.3 112.4 C 221.9 113.1 220.3 113.2 218.0 113.5 C 216.7 113.9 218.1 113.6 218.6 113.6 C 211.3 114.7 217.0 114.4 214.3 114.8 C 214.4 114.6 213.8 114.6 213.1 114.7 C 213.1 114.8 212.0 115.0 211.8 115.1 C 212.3 115.0 212.6 115.0 212.5 115.1 C 210.6 115.5 211.3 115.1 211.2 115.0 C 212.6 114.8 213.5 114.6 213.7 114.5 C 211.9 114.9 210.4 114.9 209.3 115.3 C 207.5 115.2 210.1 114.5 209.2 114.4 C 209.4 114.1 208.1 115.1 206.7 115.4 C 204.4 115.7 204.4 116.0 202.3 116.3 C 201.7 116.1 204.4 115.9 204.2 115.7 C 203.6 115.8 203.4 115.7 202.9 115.8 C 201.4 116.0 201.5 116.2 200.4 116.4 C 199.7 116.3 199.3 116.4 198.5 116.6 C 197.0 116.7 199.3 116.4 197.8 116.5 C 196.2 116.6 195.1 117.1 194.6 117.1 C 194.4 117.0 194.7 116.8 193.9 116.9 C 192.1 117.3 191.7 117.3 194.0 117.2 C 191.9 117.4 191.1 117.6 191.4 117.8 C 194.4 117.5 195.2 117.4 196.6 117.6 C 197.2 117.2 198.1 117.4 199.2 117.3 C 198.5 116.9 200.5 117.1 201.1 116.8 C 200.3 116.9 199.6 116.9 199.1 116.9 C 202.3 116.5 202.3 116.6 204.8 115.9 C 204.9 116.0 205.2 116.0 205.5 116.0 C 204.7 116.2 202.4 116.4 202.4 116.7 C 204.2 116.7 204.8 116.2 206.8 116.2 C 207.7 115.9 205.1 116.2 206.8 115.9 C 207.6 116.0 208.7 115.9 210.0 115.8 C 211.3 115.6 212.0 115.4 213.1 115.1 C 213.2 115.2 213.4 115.3 214.4 115.1 C 214.3 115.0 213.3 115.1 214.3 114.8 C 217.7 114.6 219.9 114.4 223.1 113.7 C 221.9 113.8 219.3 114.1 220.6 113.8 C 222.0 113.7 223.9 113.0 225.5 113.0 C 225.9 113.0 223.7 113.2 224.3 113.5 C 225.7 113.2 226.6 113.1 227.3 113.0 C 227.3 112.8 228.9 112.6 228.5 112.4 C 227.3 112.7 227.0 113.0 226.7 113.0 C 227.5 112.1 231.1 112.3 233.3 111.8 C 234.7 111.3 232.2 111.8 233.8 111.3 C 234.8 111.0 235.5 111.4 233.9 111.9 C 232.8 112.0 232.4 112.4 232.1 112.2 C 231.7 112.3 231.0 112.5 231.0 112.5 C 231.8 112.4 231.7 112.6 232.2 112.5 C 231.0 112.7 231.0 113.2 229.8 113.2 C 230.5 113.0 230.8 112.9 231.0 112.8 C 227.9 113.6 226.8 113.6 224.9 113.8 C 226.0 113.8 224.9 113.9 225.0 114.1 C 226.4 113.8 229.1 113.4 227.5 113.8 C 226.3 113.7 225.6 114.7 224.5 114.6 C 225.3 114.4 225.2 114.2 225.6 114.1 C 224.4 114.3 224.4 114.1 223.1 114.3 C 219.2 115.5 216.0 115.4 209.5 116.9 C 207.2 117.2 211.6 116.5 211.4 116.3 C 210.7 116.4 210.6 116.3 210.1 116.4 C 210.1 116.7 208.9 116.6 208.2 116.9 C 208.3 116.7 205.2 117.3 203.7 117.3 C 203.7 117.4 203.9 117.5 203.1 117.6 C 198.4 117.9 189.8 119.2 186.2 119.2 C 186.3 119.4 184.7 119.5 184.3 119.7 C 182.0 119.8 183.0 119.6 179.7 120.0 C 178.0 120.2 180.0 119.8 180.3 119.7 C 175.3 120.2 170.8 120.1 167.7 120.5 C 166.0 120.6 167.7 120.3 164.3 120.4 C 164.3 120.7 159.1 120.3 158.4 120.7 C 156.3 120.8 152.7 120.3 154.3 120.6 C 151.6 120.7 153.4 120.3 152.3 120.3 C 150.4 120.3 152.9 120.9 151.0 120.9 C 151.2 120.7 149.6 120.8 148.3 120.5 C 149.8 120.5 150.8 120.5 151.0 120.4 C 149.7 120.5 149.8 120.3 147.7 120.3 C 146.1 120.5 141.6 120.5 140.3 120.1 C 140.3 120.2 140.6 120.3 141.0 120.4 C 139.7 120.4 138.1 120.0 138.3 120.4 C 135.3 120.3 134.0 119.9 132.3 120.1 C 131.0 120.1 132.8 119.9 129.0 119.6 C 128.9 119.9 122.2 119.4 120.5 119.0 C 120.4 119.3 120.0 119.0 119.2 118.9 C 119.1 119.0 119.2 119.1 118.5 119.1 C 118.3 118.9 117.8 118.9 117.2 118.9 C 117.7 118.6 114.8 118.8 114.6 118.5 C 115.2 118.5 115.2 118.4 114.6 118.3 C 114.4 118.5 111.7 117.8 112.0 118.1 C 112.6 118.2 114.4 118.4 113.9 118.5 C 111.4 118.4 112.4 118.1 110.7 117.9 C 110.8 118.0 111.8 118.2 110.7 118.2 C 108.9 117.9 110.6 118.1 109.5 117.8 C 108.5 117.7 106.8 117.7 106.2 117.6 C 106.4 117.6 105.8 117.4 105.6 117.4 C 102.3 116.8 94.8 116.0 91.8 115.1 C 91.5 115.2 90.8 115.1 91.0 115.3 C 89.2 114.8 89.3 115.0 87.4 114.5 C 87.4 114.6 87.4 114.7 87.3 114.8 C 84.9 114.5 87.2 114.4 85.6 114.1 C 85.3 114.7 84.6 113.8 83.2 113.5 C 83.0 113.6 82.2 113.5 82.5 113.7 C 80.2 113.2 80.4 112.9 78.3 112.6 C 78.8 112.7 79.0 113.5 78.7 113.7 C 78.4 113.5 77.8 113.3 77.0 113.1 C 78.1 113.1 77.7 112.0 74.8 111.7 C 76.3 112.0 76.9 112.2 76.5 112.3 C 74.4 111.8 73.7 111.5 71.9 111.0 C 71.5 111.2 72.8 111.6 72.3 111.7 C 71.8 111.6 71.6 111.6 71.7 111.7 C 69.8 111.2 69.8 111.0 67.6 110.6 C 67.7 110.5 68.1 110.6 68.8 110.8 C 68.8 110.6 68.8 110.4 70.1 110.7 C 70.2 110.9 69.4 111.0 71.2 111.4 C 71.2 111.2 71.2 111.1 71.3 111.0 C 70.0 110.6 67.0 109.7 66.7 109.7 C 67.3 109.9 68.3 110.3 67.7 110.4 C 65.5 109.7 65.0 109.3 63.3 108.7 C 60.2 107.8 55.0 106.1 55.5 106.7 C 53.8 106.0 54.4 106.2 52.9 105.6 C 53.2 106.0 51.1 105.1 51.2 105.3 C 53.1 105.9 52.5 105.8 54.4 106.4 C 54.3 106.5 53.9 106.5 53.2 106.3 C 53.1 106.1 52.4 105.8 51.1 105.4 C 51.3 105.5 52.4 106.2 51.0 105.7 C 50.9 105.6 50.6 105.5 50.0 105.3 C 50.1 105.1 50.1 105.0 50.2 104.9 C 50.9 105.1 51.8 105.3 52.3 105.4 C 51.8 105.2 51.8 105.1 51.3 105.0 C 50.9 105.0 48.9 104.1 48.6 104.2 C 49.5 104.5 50.0 104.8 49.1 104.5 C 49.0 104.4 47.2 103.7 46.3 103.4 C 49.3 104.7 48.1 104.3 49.0 104.9 C 46.9 104.2 46.7 103.8 42.8 102.3 C 42.8 102.1 42.9 101.9 43.9 102.2 C 41.6 100.8 36.1 98.8 34.4 97.9 C 35.6 98.5 37.1 98.8 35.3 98.0 C 35.3 98.0 34.0 97.4 33.7 97.3 C 33.0 97.5 34.3 98.4 35.6 99.3 C 34.2 98.6 33.8 98.6 32.5 97.9 C 32.2 97.5 33.7 97.9 32.1 97.0 C 31.6 97.2 29.2 95.5 28.5 95.4 C 29.6 96.0 30.2 96.5 29.1 96.0 C 29.4 95.9 27.1 94.7 27.2 94.6 C 28.9 95.5 29.5 95.6 30.7 96.2 C 29.3 95.4 31.8 96.6 29.5 95.3 C 28.3 94.8 27.6 94.7 25.3 93.3 C 24.5 92.7 25.4 93.0 24.2 92.2 C 24.4 92.6 22.0 91.1 23.5 91.9 C 22.7 91.3 22.3 91.0 21.9 90.6 C 22.9 91.6 17.4 88.0 18.1 88.7 C 18.3 88.5 18.2 88.0 18.0 87.8 C 16.9 87.2 15.8 86.2 13.6 84.0 C 13.4 84.3 13.2 83.7 12.2 82.8 C 12.0 82.7 12.7 83.6 12.1 82.9 C 11.1 81.8 11.1 81.7 11.0 81.4 C 10.3 80.7 9.8 80.1 9.6 79.6 C 9.4 79.6 9.6 79.9 9.7 80.2 C 7.5 77.0 6.2 75.6 4.9 72.8 C 5.4 74.0 5.9 74.1 5.4 73.2 C 5.1 72.6 4.8 72.2 4.6 71.9 C 4.7 72.6 4.6 72.3 4.1 70.9 C 3.5 69.7 3.9 71.5 3.5 70.6 C 3.3 69.5 3.6 70.1 3.5 69.5 C 3.3 69.0 3.2 68.5 3.0 68.0 C 3.2 69.0 2.8 68.0 2.5 67.1 C 2.9 67.7 2.8 67.3 2.4 65.6 C 2.5 65.4 2.8 66.3 2.7 65.5 C 2.6 65.1 2.1 63.8 2.3 62.6 C 2.3 63.0 2.4 63.2 2.4 63.1 C 2.2 61.8 2.5 60.8 2.7 59.6 C 2.4 60.8 2.3 60.1 2.1 60.6 C 2.3 59.5 2.2 58.0 2.7 57.2 C 2.3 58.8 3.1 57.3 3.3 56.3 C 3.1 56.0 2.9 57.7 2.7 57.2 C 2.6 56.6 3.2 55.3 3.1 54.7 C 3.0 54.8 3.0 55.5 2.8 55.6 C 3.0 54.7 2.6 55.9 2.8 55.1 C 3.1 54.7 3.0 54.1 3.1 53.6 C 3.4 53.0 4.2 51.9 4.2 51.3 C 4.1 51.2 3.8 52.1 3.7 52.2 C 4.5 49.5 5.3 48.8 6.5 46.4 C 6.8 46.2 7.1 45.8 7.6 45.1 C 7.5 45.1 7.7 44.7 8.1 44.1 C 8.9 43.2 9.7 42.3 10.9 41.1 C 10.8 41.5 10.4 42.1 11.9 40.5 C 11.9 40.4 11.2 41.0 11.8 40.4 C 11.8 40.4 12.2 40.1 12.2 39.9 C 12.2 39.9 12.1 39.8 12.1 39.8 C 11.7 40.3 11.3 40.7 10.9 41.1 C 10.8 41.0 10.6 41.1 10.2 41.4 C 11.9 39.3 12.2 39.8 13.3 38.4 C 13.7 38.5 14.2 38.1 13.3 39.4 C 14.4 38.2 15.1 37.4 15.3 36.9 C 13.9 38.3 14.2 37.6 13.7 37.9 C 14.6 37.1 14.5 37.0 15.0 36.5 C 16.2 35.7 14.1 37.8 16.3 36.0 C 14.4 37.2 17.5 34.7 18.8 33.8 C 18.5 33.9 18.0 34.2 18.6 33.6 C 21.7 31.0 22.0 32.0 23.9 30.2 C 23.8 30.4 24.9 29.8 25.3 29.6 C 23.5 30.8 23.1 31.1 22.4 31.7 C 22.6 31.7 23.1 31.4 23.7 31.0 C 23.6 30.9 24.0 30.6 24.9 30.2 C 25.3 29.7 24.9 29.5 26.3 28.4 C 26.5 28.4 26.4 28.6 27.2 28.2 C 27.8 27.6 26.7 28.9 30.0 26.9 C 29.4 27.2 29.0 27.3 29.2 27.0 C 30.7 26.0 30.4 26.3 32.6 25.0 C 33.7 24.9 31.3 26.2 30.8 26.8 C 32.3 25.9 33.4 25.0 35.1 24.4 C 33.8 24.9 34.9 24.1 36.4 23.3 C 37.8 22.7 36.5 23.7 38.2 22.9 C 39.4 22.3 40.0 21.8 38.8 22.2 C 41.7 21.0 40.9 21.0 43.6 20.0 C 43.7 20.1 43.0 20.4 42.0 20.7 C 42.2 20.8 41.9 21.0 42.9 20.6 C 43.7 20.2 45.0 19.6 46.5 18.9 C 47.9 18.3 48.8 17.9 49.4 17.6 C 51.9 17.2 54.5 15.8 57.0 15.1 C 56.0 15.7 60.2 14.2 61.5 14.1 C 62.2 13.8 64.4 12.6 63.6 13.0 C 63.9 13.3 65.4 12.8 66.5 12.5 C 66.5 12.5 66.5 12.4 66.5 12.3 C 69.0 11.6 69.7 11.7 70.6 11.7 C 73.7 10.7 77.3 10.2 81.2 9.1 C 82.3 9.2 83.1 8.9 85.5 8.6 C 85.4 8.4 87.3 8.0 89.1 7.7 C 88.7 7.6 90.4 7.3 90.4 7.2 C 88.7 7.4 89.3 7.0 88.4 7.1 C 90.6 6.9 91.6 6.3 93.4 6.2 C 91.3 6.7 90.7 7.1 90.4 7.6 C 92.9 7.0 94.3 6.9 94.8 7.0 C 95.0 6.8 94.7 6.8 94.1 6.8 C 94.9 6.6 95.8 6.5 96.6 6.4 C 96.9 6.5 95.7 6.7 96.6 6.6 C 97.2 6.4 97.9 6.2 98.5 6.1 C 99.3 6.2 97.5 6.4 97.3 6.6 C 100.7 6.2 99.2 5.9 101.0 5.5 C 101.5 5.6 101.4 5.9 103.0 5.7 C 103.6 5.5 103.7 5.2 105.5 5.0 C 106.6 4.9 105.5 5.4 106.8 5.2 C 107.0 5.1 107.5 5.1 108.1 5.1 C 108.0 4.9 108.6 4.8 109.3 4.7 C 109.5 4.8 110.8 4.6 111.3 4.5 C 111.4 4.6 113.5 4.6 113.9 4.4 C 113.9 4.3 112.7 4.5 112.6 4.4 C 114.1 4.3 115.1 4.1 115.8 4.0 C 116.3 4.5 118.7 3.8 121.7 3.8 C 123.6 3.5 121.3 3.4 123.7 3.1 C 125.1 3.2 123.4 3.4 123.7 3.6 C 124.1 3.6 126.3 3.6 126.3 3.4 C 126.3 3.3 125.2 3.4 125.0 3.3 C 126.8 3.0 126.7 3.3 127.7 3.3 C 127.5 3.1 128.7 3.0 128.9 2.8 C 133.7 2.3 133.7 2.8 135.6 2.9 C 135.6 2.8 136.8 2.8 136.9 2.7 C 135.6 2.8 133.7 2.7 135.6 2.6 C 135.3 2.7 138.1 2.5 138.3 2.4 C 137.9 2.3 136.2 2.4 136.9 2.1 C 139.4 1.9 138.4 2.5 140.3 2.2 C 140.5 2.3 139.4 2.4 138.9 2.4 C 139.7 2.4 140.8 2.4 140.9 2.5 C 140.0 2.6 140.0 2.7 139.6 2.9 C 140.9 2.6 143.2 2.8 141.6 2.5 C 144.2 2.5 146.8 2.3 145.0 2.1 C 147.1 2.0 145.9 2.4 147.6 2.1 C 147.4 2.4 146.9 2.6 148.3 2.7 C 148.5 2.6 149.7 2.5 149.6 2.3 C 152.8 2.3 153.7 2.6 155.0 2.8 C 153.8 2.4 155.4 2.7 156.9 2.5 C 157.9 2.6 157.0 2.9 159.6 2.8 C 156.8 2.4 162.9 2.8 161.6 2.4 C 164.9 2.6 164.9 2.6 168.3 2.8 C 168.0 2.9 167.1 3.0 165.7 3.0 C 166.7 2.8 162.7 2.7 163.0 2.9 C 163.0 2.9 163.0 3.0 163.0 3.0 C 165.5 3.0 167.2 3.2 168.3 3.3 C 168.8 3.2 170.0 3.1 169.6 2.8 C 172.0 3.2 174.5 2.9 175.6 3.3 C 174.8 3.2 174.0 3.2 174.3 3.3 C 175.2 3.3 176.4 3.3 176.3 3.1 C 174.4 3.0 174.0 2.9 173.0 3.0 C 173.8 2.9 171.1 2.6 173.0 2.6 C 172.9 3.0 177.0 2.7 175.7 2.9 C 173.5 2.9 178.0 3.2 178.2 3.4 C 178.2 3.4 178.2 3.4 178.2 3.4 Z M 223.7 114.2 C 225.5 113.7 223.2 113.9 221.9 114.2 C 222.3 114.2 222.5 114.3 222.5 114.4 C 223.1 114.3 223.6 114.1 223.7 114.2 C 223.7 114.2 223.7 114.2 223.7 114.2 Z M 203.3 114.0 C 202.7 114.3 205.8 113.7 207.1 113.6 C 206.7 113.6 206.3 113.6 207.1 113.4 C 205.7 113.4 205.3 113.9 203.3 114.0 C 203.3 114.0 203.3 114.0 203.3 114.0 Z M 130.5 117.2 C 131.0 117.1 132.3 117.2 132.4 117.3 C 133.2 117.3 133.0 117.2 133.1 117.1 C 134.7 117.1 132.7 117.4 135.1 117.4 C 136.1 117.0 131.1 116.6 130.5 117.2 C 130.5 117.2 130.5 117.2 130.5 117.2 Z M 152.9 6.3 C 153.9 6.4 151.6 6.6 152.3 6.8 C 156.0 6.7 153.1 6.3 158.2 6.5 C 157.9 6.4 157.5 6.3 157.6 6.2 C 155.2 6.3 155.0 6.5 155.6 6.0 C 154.5 6.0 154.2 6.6 152.9 6.3 C 152.9 6.3 152.9 6.3 152.9 6.3 Z M 199.9 10.0 C 199.5 9.9 199.2 9.8 199.2 9.7 C 197.7 9.6 198.0 9.7 196.0 9.4 C 196.3 9.8 198.2 9.9 199.9 10.0 C 199.9 10.0 199.9 10.0 199.9 10.0 Z M 300.2 56.2 C 300.3 56.5 300.4 56.8 300.4 57.0 C 300.5 56.8 301.1 57.4 300.6 56.1 C 300.5 56.1 300.6 56.3 300.6 56.5 C 300.5 56.3 300.3 55.7 300.2 55.9 C 300.3 56.2 300.3 56.2 300.2 56.2 C 300.2 56.2 300.2 56.2 300.2 56.2 Z M 284.3 88.5 C 286.4 86.7 280.6 89.9 284.3 88.5 C 284.3 88.5 284.3 88.5 284.3 88.5 C 284.3 88.5 284.3 88.5 284.3 88.5 Z M 290.4 87.5 C 290.5 87.6 290.9 87.2 290.9 87.1 C 292.6 85.8 291.1 87.2 292.1 86.6 C 293.3 85.3 291.2 86.8 292.7 85.3 C 292.3 85.5 291.4 86.7 290.4 87.5 C 290.4 87.5 290.4 87.5 290.4 87.5 Z M 21.6 31.9 C 20.1 33.1 19.8 33.6 19.7 34.0 C 20.7 33.2 21.6 32.6 22.0 32.5 C 24.0 31.0 20.6 33.3 20.3 33.5 C 20.3 33.2 21.8 32.1 21.6 31.9 C 21.6 31.9 21.6 31.9 21.6 31.9 Z M 16.8 35.7 C 16.3 36.2 15.5 37.0 15.6 37.2 C 16.4 36.5 16.6 36.5 16.7 36.5 C 17.4 35.7 16.3 36.4 16.8 35.7 C 16.8 35.7 16.8 35.7 16.8 35.7 Z M 26.7 29.0 C 25.9 29.5 26.3 29.5 26.2 29.7 C 27.4 28.9 27.7 28.9 28.9 28.2 C 28.9 28.1 28.8 28.1 28.8 28.0 C 27.7 28.6 27.7 28.7 26.8 29.2 C 26.8 29.1 26.7 29.1 26.7 29.0 C 26.7 29.0 26.7 29.0 26.7 29.0 Z M 12.9 39.7 C 10.6 42.0 10.1 43.3 9.3 45.0 C 10.5 43.3 11.4 41.5 12.6 40.4 C 14.0 38.9 12.1 40.8 12.1 40.7 C 12.0 40.6 12.5 40.1 12.9 39.7 C 12.9 39.7 12.9 39.7 12.9 39.7 Z M 2.7 61.1 C 2.5 61.6 2.9 62.6 3.0 64.0 C 3.0 63.7 3.1 63.5 3.2 63.5 C 3.1 61.4 2.7 62.7 2.7 61.1 C 2.7 61.1 2.7 61.1 2.7 61.1 Z M 5.7 73.0 C 6.4 74.2 5.6 72.3 6.0 72.9 C 5.4 71.5 4.8 70.1 4.6 70.2 C 5.3 71.6 5.5 71.9 5.7 73.0 C 5.7 73.0 5.7 73.0 5.7 73.0 Z M 11.4 81.1 C 12.6 82.3 11.1 80.4 11.8 80.8 C 11.3 80.3 11.3 80.5 11.2 80.5 C 10.9 80.1 10.7 79.7 10.2 79.1 C 10.4 79.6 11.7 81.1 11.4 81.1 C 11.4 81.1 11.4 81.1 11.4 81.1 Z M 68.4 12.9 C 67.4 13.2 67.8 13.3 65.7 13.9 C 68.9 13.0 67.2 14.2 71.5 13.0 C 70.8 13.0 71.2 12.8 71.5 12.9 C 73.1 12.3 69.9 13.1 71.4 12.5 C 70.2 12.8 70.9 12.9 69.8 13.2 C 68.5 13.3 67.7 13.4 68.4 12.9 C 68.4 12.9 68.4 12.9 68.4 12.9 Z M 71.6 13.2 C 72.8 13.0 72.6 12.5 73.3 12.6 C 73.8 12.5 73.7 12.4 73.8 12.3 C 73.3 12.4 73.3 12.4 73.2 12.4 C 72.2 12.7 71.2 13.0 71.6 13.2 C 71.6 13.2 71.6 13.2 71.6 13.2 Z M 60.9 16.2 C 62.7 15.5 63.3 15.5 64.2 15.0 C 64.9 15.2 65.4 14.5 66.4 14.5 C 68.3 14.0 66.9 14.2 66.4 14.2 C 68.1 13.6 66.9 14.4 68.7 13.8 C 68.9 13.4 66.6 14.1 66.8 13.8 C 65.4 14.1 65.5 14.3 64.6 14.6 C 64.0 14.8 64.2 14.6 64.0 14.6 C 62.5 15.1 62.5 14.9 61.2 15.3 C 61.0 15.6 61.5 15.5 63.0 15.0 C 61.5 15.6 60.9 15.9 59.2 16.4 C 60.3 15.7 54.9 17.4 55.4 17.6 C 56.9 17.2 56.4 17.1 56.9 16.9 C 58.9 16.5 60.1 16.1 60.9 16.2 C 60.9 16.2 60.9 16.2 60.9 16.2 Z M 27.8 29.3 C 27.2 29.6 26.7 29.8 25.8 30.4 C 25.7 30.2 26.8 29.6 25.7 30.1 C 24.3 30.9 24.1 31.2 23.3 31.8 C 23.8 31.5 26.7 30.0 25.3 31.0 C 25.8 30.8 26.7 30.3 27.9 29.6 C 26.3 30.1 29.9 28.4 31.3 27.7 C 31.0 27.4 33.8 26.4 34.8 25.7 C 33.8 25.9 31.0 27.6 29.8 28.3 C 30.4 27.9 26.3 29.7 27.8 29.3 C 27.8 29.3 27.8 29.3 27.8 29.3 Z M 76.2 11.9 C 76.5 11.8 77.8 11.4 76.8 11.6 C 77.3 11.4 78.4 11.3 77.8 11.0 C 78.5 10.9 79.1 10.8 79.6 10.6 C 79.4 10.8 77.8 11.1 78.5 11.2 C 79.7 10.8 79.2 11.1 80.9 10.7 C 80.1 11.1 81.0 10.9 80.4 11.4 C 80.9 11.2 82.3 10.8 82.2 10.7 C 84.4 10.3 81.6 11.1 84.6 10.5 C 84.6 10.7 82.4 11.1 81.7 11.2 C 81.3 11.5 85.4 10.5 87.7 10.2 C 85.6 10.3 87.2 9.8 88.2 9.4 C 88.9 9.4 88.2 9.6 89.5 9.5 C 90.5 9.3 91.0 9.1 91.3 9.2 C 92.2 9.0 91.8 8.9 91.9 8.7 C 93.3 8.5 92.3 9.0 94.4 8.6 C 92.8 8.6 94.6 8.2 97.4 7.8 C 97.3 7.7 96.3 7.9 96.2 7.8 C 96.6 7.5 98.3 7.6 98.7 7.6 C 99.8 7.4 99.1 7.4 98.1 7.6 C 98.7 7.4 99.3 7.2 100.0 7.0 C 96.8 7.5 91.9 8.3 86.2 9.0 C 87.3 9.0 86.1 9.3 84.4 9.6 C 84.2 9.5 84.9 9.3 85.6 9.2 C 83.6 9.2 83.9 9.8 80.9 10.3 C 79.2 10.6 82.6 9.7 80.8 10.0 C 79.7 10.3 79.0 10.7 78.4 10.5 C 76.5 11.0 76.1 11.5 73.2 12.1 C 74.8 11.9 75.7 12.2 77.4 11.7 C 77.4 11.6 76.6 11.8 76.2 11.9 C 76.2 11.9 76.2 11.9 76.2 11.9 Z M 16.8 36.6 C 15.9 37.3 15.6 37.8 15.3 37.9 C 14.0 39.2 15.7 37.9 16.0 37.7 C 16.6 37.1 16.8 36.8 16.8 36.6 C 16.8 36.6 16.8 36.6 16.8 36.6 Z M 139.0 119.7 C 141.5 119.8 141.0 119.5 143.0 119.6 C 141.4 119.5 141.0 119.2 138.3 119.2 C 138.2 119.4 138.2 119.6 139.0 119.7 C 139.0 119.7 139.0 119.7 139.0 119.7 Z M 22.2 32.7 C 23.4 31.5 20.7 34.1 20.6 33.9 C 19.1 35.2 22.1 33.0 20.8 34.3 C 22.1 33.2 23.0 32.8 24.8 31.4 C 24.6 31.3 23.1 32.3 21.8 33.3 C 21.5 33.3 22.2 32.8 22.2 32.7 C 22.2 32.7 22.2 32.7 22.2 32.7 Z M 113.4 117.2 C 111.7 117.2 114.9 117.8 115.9 118.0 C 116.0 117.7 115.5 117.7 113.4 117.2 C 113.4 117.2 113.4 117.2 113.4 117.2 Z M 156.3 119.6 C 157.3 119.3 153.3 119.6 154.3 119.3 C 153.1 119.2 153.0 119.3 152.9 119.4 C 152.4 119.3 150.5 119.4 151.0 119.2 C 150.7 119.0 154.0 119.2 153.0 118.9 C 154.1 118.9 154.1 119.0 155.0 119.0 C 153.0 119.0 153.9 119.3 156.3 119.3 C 156.3 119.1 155.2 119.2 156.3 119.0 C 156.5 119.1 157.7 119.3 157.6 119.7 C 159.7 119.6 158.5 119.2 160.9 119.2 C 160.7 119.1 159.2 119.1 158.3 119.0 C 158.5 118.7 160.9 119.2 160.3 118.8 C 160.8 119.0 162.2 119.1 162.3 119.3 C 160.4 119.5 159.2 119.7 157.6 119.8 C 159.1 120.0 161.1 119.4 163.6 119.6 C 163.3 119.4 164.8 119.4 164.3 119.1 C 166.3 119.2 165.4 119.5 165.0 119.5 C 165.5 119.7 169.3 119.4 169.0 119.2 C 169.3 119.4 173.8 119.2 173.6 118.9 C 174.9 119.0 177.0 118.5 177.6 118.8 C 178.3 118.7 179.9 118.6 181.6 118.5 C 182.0 118.2 179.1 118.5 178.9 118.4 C 178.4 118.2 182.0 118.2 181.5 118.0 C 181.5 118.0 181.5 117.9 181.5 117.9 C 180.2 118.0 178.8 118.2 177.6 118.4 C 176.6 118.4 177.8 118.2 177.5 118.1 C 176.6 118.3 172.4 118.8 172.3 118.4 C 169.4 118.6 167.4 118.6 166.3 118.8 C 164.6 118.9 167.2 118.7 166.2 118.5 C 161.3 119.0 155.2 118.7 151.0 119.0 C 150.1 119.0 150.4 118.8 150.3 118.7 C 144.6 118.8 149.4 119.2 145.0 119.0 C 145.0 118.8 147.1 118.9 147.0 118.6 C 145.4 118.6 145.0 118.7 143.0 118.6 C 143.0 118.7 143.0 118.8 143.0 118.9 C 141.3 118.9 141.9 118.6 141.0 118.5 C 138.9 118.5 139.4 118.6 138.4 118.3 C 136.4 118.3 134.4 118.3 132.4 118.1 C 131.0 118.2 133.6 118.7 135.7 118.8 C 135.6 118.9 135.0 118.9 135.0 118.9 C 132.5 118.6 132.2 118.1 128.5 117.8 C 131.3 118.3 127.0 117.9 126.5 117.6 C 125.0 117.5 126.1 117.9 127.1 118.0 C 126.9 118.1 126.0 117.9 125.8 117.8 C 125.6 118.2 129.2 118.6 133.0 118.7 C 131.2 119.0 135.7 118.8 133.7 119.2 C 136.8 119.3 134.1 118.9 137.6 119.1 C 137.3 118.9 136.7 118.8 136.4 118.7 C 139.0 118.8 138.2 119.1 141.0 119.1 C 141.5 118.9 139.7 118.9 139.7 118.7 C 142.7 119.1 143.7 119.2 145.7 119.5 C 146.1 119.3 145.5 119.1 149.0 119.3 C 149.0 119.4 149.0 119.4 149.0 119.5 C 147.4 119.4 147.0 119.9 151.0 119.9 C 151.3 119.7 150.0 119.7 149.0 119.7 C 149.4 119.6 150.7 119.5 152.3 119.5 C 153.1 119.5 154.0 119.6 152.9 119.7 C 153.6 119.9 154.2 119.5 156.3 119.6 C 156.3 119.6 156.3 119.6 156.3 119.6 Z M 3.4 58.8 C 3.4 59.1 3.4 59.5 3.4 60.2 C 3.6 60.5 3.6 59.2 3.8 59.3 C 3.9 58.3 3.5 59.0 3.4 58.8 C 3.4 58.8 3.4 58.8 3.4 58.8 Z M 8.6 45.9 C 8.4 45.9 8.2 46.7 7.5 47.7 C 7.5 48.1 8.2 46.9 8.3 46.9 C 9.1 45.8 7.8 47.0 8.6 45.9 C 8.6 45.9 8.6 45.9 8.6 45.9 Z M 5.6 51.3 C 5.2 51.7 5.5 51.9 5.9 50.9 C 6.0 51.0 6.0 51.3 5.8 51.9 C 6.3 51.4 6.1 50.7 6.7 49.6 C 6.4 50.0 6.0 50.5 5.6 51.3 C 5.6 51.3 5.6 51.3 5.6 51.3 Z M 4.9 53.2 C 4.8 53.9 4.4 54.3 4.2 55.5 C 4.5 55.3 5.2 52.7 5.3 52.2 C 5.3 51.8 4.3 54.5 4.9 53.2 C 4.9 53.2 4.9 53.2 4.9 53.2 Z M 88.3 113.2 C 88.9 113.3 88.8 113.2 88.9 113.1 C 90.7 113.9 93.4 114.2 91.2 114.2 C 93.3 114.3 95.1 115.0 96.8 115.3 C 98.3 115.6 97.6 115.2 98.7 115.4 C 100.6 115.7 97.7 115.3 98.1 115.5 C 98.4 115.7 99.0 115.4 101.2 115.9 C 100.7 115.4 103.1 116.2 102.5 115.7 C 103.7 116.0 104.1 115.9 105.7 116.1 C 105.6 115.9 104.0 115.7 103.9 115.5 C 103.1 115.2 103.0 115.6 104.4 115.8 C 103.5 115.9 101.4 115.2 100.7 115.3 C 99.9 115.0 102.7 115.6 101.9 115.2 C 101.4 115.1 100.8 115.1 100.7 115.2 C 99.8 115.0 99.2 114.8 98.8 114.6 C 99.4 114.7 99.4 114.8 99.4 114.8 C 100.6 115.0 98.3 114.3 100.8 114.6 C 100.4 114.5 99.3 114.3 99.5 114.2 C 98.8 113.9 99.4 114.9 97.0 114.2 C 95.3 114.2 100.8 115.0 99.4 115.3 C 95.9 114.7 97.9 114.7 95.1 114.1 C 95.1 114.3 95.1 114.4 94.4 114.3 C 94.5 114.4 95.5 114.5 96.3 114.7 C 96.1 114.7 95.1 114.5 94.4 114.4 C 94.5 114.5 95.0 114.6 95.0 114.7 C 92.7 114.2 93.0 113.8 95.1 114.0 C 95.1 113.8 92.2 113.3 91.4 113.3 C 92.2 113.6 91.3 113.4 91.9 113.8 C 92.5 113.9 92.4 113.8 92.6 113.7 C 93.7 114.0 92.7 113.9 92.6 114.0 C 91.3 113.7 91.4 113.5 90.1 113.5 C 90.4 113.4 90.8 113.4 90.8 113.3 C 90.2 113.2 89.5 113.1 88.9 113.0 C 89.0 113.1 88.2 113.0 88.3 113.2 C 88.3 113.2 88.3 113.2 88.3 113.2 Z M 121.2 118.2 C 123.3 118.5 122.2 118.2 121.2 118.1 C 121.6 118.1 122.4 118.1 123.2 118.1 C 122.5 118.0 122.0 118.0 119.9 117.7 C 121.7 117.6 119.9 117.0 116.7 116.7 C 115.7 117.1 118.4 117.4 117.3 117.6 C 119.7 117.6 120.9 117.9 121.2 118.2 C 121.2 118.2 121.2 118.2 121.2 118.2 Z M 16.1 37.8 C 15.2 38.6 14.2 39.5 13.4 40.3 C 13.7 40.4 16.6 37.9 16.1 37.8 C 16.1 37.8 16.1 37.8 16.1 37.8 Z M 102.5 7.0 C 103.0 6.9 103.1 6.9 103.2 7.0 C 105.0 6.7 102.3 6.9 103.1 6.6 C 102.4 6.7 101.8 6.8 101.2 6.9 C 101.1 7.0 103.8 6.7 101.9 7.1 C 102.0 7.2 102.5 7.0 102.5 7.0 C 102.5 7.0 102.5 7.0 102.5 7.0 Z M 3.8 57.8 C 3.8 58.7 4.1 58.2 3.9 60.2 C 4.1 59.5 4.1 59.1 4.2 57.9 C 4.1 57.9 4.0 57.9 3.8 57.8 C 3.8 57.8 3.8 57.8 3.8 57.8 Z M 79.1 111.7 C 80.6 112.3 81.1 111.9 84.0 112.6 C 82.6 112.0 80.8 112.0 79.1 111.7 C 79.1 111.7 79.1 111.7 79.1 111.7 Z M 186.8 117.7 C 185.8 117.7 187.0 117.6 185.4 117.6 C 184.5 117.7 184.2 117.9 182.8 118.0 C 184.7 118.1 188.0 117.6 189.4 117.9 C 190.9 117.7 190.8 117.5 191.3 117.2 C 190.5 117.3 190.1 117.3 190.0 117.3 C 189.1 117.7 187.9 117.2 186.8 117.7 C 186.8 117.7 186.8 117.7 186.8 117.7 Z M 112.8 117.0 C 111.6 116.8 113.6 116.9 114.1 116.8 C 115.0 116.9 114.6 117.0 114.7 117.2 C 115.9 117.3 116.2 117.2 116.0 117.0 C 113.9 116.7 111.3 116.4 112.9 116.2 C 110.8 115.9 111.9 116.4 110.9 116.3 C 109.8 116.0 110.9 116.1 110.9 115.9 C 110.4 115.9 108.8 115.9 109.0 115.6 C 105.9 115.6 107.2 116.2 109.5 116.8 C 111.6 116.8 109.2 116.4 112.8 117.0 C 112.8 117.0 112.8 117.0 112.8 117.0 Z M 34.3 96.2 C 34.5 96.4 35.8 97.0 35.7 97.1 C 37.4 97.7 39.0 98.1 40.6 98.6 C 40.4 98.2 38.2 97.5 39.0 98.0 C 38.4 97.6 37.0 96.8 36.2 96.2 C 34.7 95.5 34.0 95.7 33.9 95.2 C 32.5 94.6 33.3 95.1 31.1 93.8 C 34.4 95.9 29.9 93.3 29.6 93.4 C 31.5 94.5 33.3 95.4 33.1 95.1 C 34.6 95.9 36.3 96.8 36.6 97.2 C 36.4 97.2 35.2 96.6 34.3 96.2 C 34.3 96.2 34.3 96.2 34.3 96.2 Z M 43.9 99.8 C 43.2 99.6 42.6 99.3 41.5 98.9 C 42.1 99.2 42.3 99.4 42.1 99.5 C 44.2 100.3 44.7 100.4 45.4 100.9 C 47.3 101.7 45.0 100.4 48.1 101.7 C 47.8 101.5 46.3 101.0 46.4 100.9 C 46.0 100.9 44.8 100.5 43.9 99.8 C 43.9 99.8 43.9 99.8 43.9 99.8 Z M 62.1 106.7 C 63.5 107.1 61.3 106.3 62.1 106.4 C 61.8 106.3 59.1 105.4 59.5 105.3 C 58.8 104.8 55.9 104.5 56.3 104.2 C 55.7 104.0 55.8 104.2 55.7 104.3 C 57.6 104.8 57.5 105.0 56.1 104.6 C 56.3 104.8 57.5 105.1 58.3 105.4 C 58.4 105.3 57.7 105.0 57.8 104.9 C 59.4 105.5 60.6 106.1 62.1 106.7 C 62.1 106.7 62.1 106.7 62.1 106.7 Z M 174.1 4.4 C 172.6 4.3 171.6 4.3 170.9 4.4 C 171.3 4.5 172.1 4.4 172.9 4.5 C 173.0 4.6 172.3 4.6 171.5 4.6 C 172.3 4.8 175.0 4.7 174.1 4.4 C 174.1 4.4 174.1 4.4 174.1 4.4 Z M 160.9 4.0 C 159.4 4.0 158.4 4.0 158.2 4.1 C 158.8 4.3 158.6 4.1 159.6 4.1 C 160.2 4.1 160.6 4.2 160.9 4.3 C 161.5 4.3 161.4 4.2 161.6 4.2 C 162.1 4.2 162.2 4.2 162.2 4.3 C 164.1 4.1 160.1 4.3 160.9 4.0 C 160.9 4.0 160.9 4.0 160.9 4.0 Z M 53.0 103.6 C 52.6 103.3 52.2 103.1 51.0 102.6 C 51.2 102.9 50.2 102.5 49.4 102.2 C 50.5 102.8 51.1 103.0 53.0 103.6 C 53.0 103.6 53.0 103.6 53.0 103.6 Z M 80.4 11.5 C 78.6 11.7 78.9 12.1 76.3 12.5 C 76.3 12.5 76.3 12.6 76.4 12.7 C 77.9 12.1 78.6 12.1 80.4 11.5 C 80.4 11.5 80.4 11.5 80.4 11.5 Z M 302.0 72.2 C 301.9 72.0 301.3 73.4 301.1 73.4 C 301.3 73.9 300.5 74.2 298.7 76.8 C 298.6 76.8 298.7 76.6 298.9 76.2 C 297.4 78.2 299.6 75.8 299.9 75.7 C 300.9 74.0 301.2 73.9 302.0 72.2 C 302.0 72.2 302.0 72.2 302.0 72.2 Z M 166.9 118.1 C 166.8 118.2 167.2 118.2 167.6 118.2 C 168.0 118.2 168.5 118.1 168.9 118.1 C 168.7 117.8 166.5 117.7 168.2 117.4 C 167.6 117.4 167.6 117.4 167.6 117.5 C 164.4 118.3 161.8 117.2 157.6 117.7 C 157.0 117.7 157.1 117.8 157.0 117.8 C 157.5 117.8 157.6 117.8 157.6 117.9 C 158.1 117.6 162.0 117.9 160.3 118.0 C 160.4 118.1 160.9 118.1 160.9 118.0 C 161.4 118.0 161.8 118.0 162.3 118.0 C 162.0 117.9 161.1 117.9 160.9 117.8 C 163.1 117.8 165.6 117.9 164.3 118.2 C 165.6 118.1 166.0 118.0 166.9 117.9 C 167.8 117.9 167.8 118.1 166.9 118.1 C 166.9 118.1 166.9 118.1 166.9 118.1 Z M 184.0 117.1 C 186.1 117.0 185.3 116.8 187.3 116.7 C 186.0 116.6 184.5 117.0 182.7 117.0 C 183.0 117.1 183.9 117.0 184.0 117.1 C 184.0 117.1 184.0 117.1 184.0 117.1 Z M 145.7 117.8 C 146.1 117.5 144.3 117.5 142.4 117.4 C 142.0 117.7 143.7 117.8 145.7 117.8 C 145.7 117.8 145.7 117.8 145.7 117.8 Z M 154.3 117.9 C 156.3 117.8 151.9 117.8 153.0 117.6 C 152.1 117.6 151.1 117.6 151.0 117.5 C 150.3 117.5 150.3 117.7 149.0 117.6 C 149.1 117.8 151.2 117.7 151.0 117.9 C 152.5 117.7 152.8 117.7 154.3 117.9 C 154.3 117.9 154.3 117.9 154.3 117.9 Z M 155.6 117.9 C 156.9 117.8 155.3 117.4 153.7 117.4 C 154.2 117.6 154.6 117.8 155.6 117.9 C 155.6 117.9 155.6 117.9 155.6 117.9 Z M 12.4 78.7 C 12.9 79.3 12.7 78.7 13.3 79.4 C 13.4 79.3 11.3 76.8 13.1 78.9 C 12.7 77.9 12.0 77.8 11.3 76.8 C 11.5 77.1 11.6 77.4 11.2 76.9 C 10.8 76.8 12.9 78.9 12.4 78.7 C 12.4 78.7 12.4 78.7 12.4 78.7 Z M 14.7 81.2 C 15.2 81.6 15.0 81.4 14.8 81.1 C 14.9 81.1 15.6 81.8 16.1 82.3 C 16.0 82.4 15.4 81.2 15.6 81.1 C 13.4 79.1 14.8 80.9 14.7 81.2 C 14.7 81.2 14.7 81.2 14.7 81.2 Z M 16.9 83.1 C 18.3 84.6 20.6 86.4 21.9 87.0 C 20.9 85.8 17.8 83.5 16.9 83.1 C 16.9 83.1 16.9 83.1 16.9 83.1 Z M 7.0 69.3 C 7.7 71.9 10.8 76.7 8.6 72.1 C 8.5 72.4 7.0 69.4 6.7 68.0 C 6.6 67.9 5.9 66.4 6.1 66.3 C 5.6 65.2 7.0 70.0 7.0 69.3 C 7.0 69.3 7.0 69.3 7.0 69.3 Z M 24.4 88.2 C 23.4 87.6 24.3 88.8 23.0 87.7 C 22.2 87.2 23.2 87.9 22.9 87.9 C 24.6 89.1 28.6 91.3 28.8 91.8 C 29.9 92.3 30.2 92.3 32.2 93.4 C 32.3 93.3 25.3 89.6 24.3 88.3 C 24.4 88.3 26.7 89.8 24.4 88.2 C 24.4 88.2 24.4 88.2 24.4 88.2 Z M 80.8 12.9 C 80.9 12.7 78.4 13.4 78.9 13.0 C 77.6 13.6 76.3 13.7 74.9 14.3 C 74.5 14.3 74.5 13.9 72.5 14.4 C 72.5 14.6 73.5 14.3 72.6 14.7 C 70.7 15.2 71.2 14.8 69.1 15.4 C 69.5 15.7 64.7 16.7 65.3 16.9 C 66.4 16.6 66.3 16.4 68.1 16.0 C 68.7 15.9 68.4 16.1 69.2 15.9 C 68.7 16.2 67.7 16.2 67.0 16.6 C 67.2 16.7 68.6 16.3 68.8 16.4 C 69.6 16.1 68.5 16.4 68.7 16.2 C 70.9 15.5 68.7 16.7 71.1 16.0 C 70.5 15.9 70.5 15.9 71.0 15.6 C 71.9 15.4 74.9 14.6 73.3 15.2 C 73.5 15.4 75.3 14.7 75.0 14.6 C 76.0 14.3 76.1 14.4 76.2 14.5 C 78.6 13.8 78.9 13.5 78.4 13.4 C 78.8 13.0 79.3 13.4 80.8 12.9 C 80.8 12.9 80.8 12.9 80.8 12.9 Z M 6.4 55.6 C 6.5 54.5 6.1 56.7 5.9 57.7 C 6.1 56.5 6.4 57.0 6.7 55.7 C 6.5 56.1 6.5 56.0 6.7 55.2 C 6.7 55.0 6.1 56.8 6.4 55.6 C 6.4 55.6 6.4 55.6 6.4 55.6 Z M 36.5 95.6 C 37.2 96.1 41.2 97.8 43.3 98.8 C 43.1 98.3 37.7 96.5 37.3 95.8 C 36.1 95.3 37.8 96.2 36.5 95.6 C 36.5 95.6 36.5 95.6 36.5 95.6 Z M 59.1 18.3 C 58.6 18.5 58.9 18.4 59.2 18.4 C 59.0 18.5 57.9 18.8 57.0 19.1 C 58.3 18.9 56.9 19.4 57.2 19.6 C 56.6 19.8 56.3 19.9 56.2 20.0 C 56.0 19.6 52.9 21.4 56.3 20.3 C 55.6 20.3 55.8 20.2 57.2 19.7 C 58.8 19.3 59.9 18.8 60.5 18.9 C 61.5 18.5 61.8 18.3 63.2 17.9 C 63.6 18.0 64.8 17.7 63.9 18.3 C 66.3 17.6 64.5 17.6 66.5 16.9 C 68.5 16.6 65.6 17.5 66.1 17.5 C 66.6 17.4 66.5 17.5 66.7 17.6 C 67.4 17.3 67.3 17.1 66.6 17.3 C 66.8 17.2 68.7 16.5 68.3 16.9 C 69.4 16.4 66.3 16.6 64.8 17.3 C 63.9 17.6 63.8 17.2 64.7 16.9 C 64.3 16.8 62.7 17.9 63.0 17.3 C 62.2 17.5 61.6 17.7 60.8 17.9 C 60.9 18.0 61.4 17.8 61.4 17.9 C 60.7 18.1 60.0 18.4 59.2 18.6 C 59.8 18.3 59.8 18.2 59.1 18.3 C 59.1 18.3 59.1 18.3 59.1 18.3 Z M 27.7 90.7 C 29.3 91.7 29.7 91.8 31.0 92.5 C 30.6 92.0 27.1 90.1 27.7 90.7 C 27.7 90.7 27.7 90.7 27.7 90.7 Z M 91.1 11.6 C 91.0 11.6 89.9 11.8 89.9 11.7 C 91.8 11.3 89.6 11.5 91.0 10.8 C 88.6 11.5 87.9 12.2 91.2 11.8 C 93.5 11.3 88.7 12.1 91.1 11.6 C 91.1 11.6 91.1 11.6 91.1 11.6 Z M 83.8 12.9 C 82.4 13.3 86.1 12.6 86.9 12.6 C 86.9 12.7 87.0 12.7 87.0 12.8 C 89.0 12.1 86.2 12.5 88.0 11.6 C 85.6 12.0 84.6 12.1 82.6 12.6 C 82.7 12.7 83.2 12.6 83.1 12.5 C 84.7 12.2 83.7 12.8 82.0 13.0 C 82.5 13.0 84.0 12.7 85.0 12.5 C 84.7 12.5 84.4 12.5 84.4 12.4 C 85.7 12.1 85.2 12.4 86.2 12.2 C 86.2 12.3 83.9 13.0 83.8 12.9 C 83.8 12.9 83.8 12.9 83.8 12.9 Z M 210.8 9.8 C 209.5 9.7 212.0 10.4 211.9 10.7 C 213.2 11.0 213.5 11.0 214.3 11.1 C 213.9 10.8 212.5 10.6 211.9 10.4 C 212.2 10.1 213.8 10.7 214.4 10.6 C 215.3 10.4 211.3 10.2 210.8 9.8 C 210.8 9.8 210.8 9.8 210.8 9.8 Z M 28.5 32.0 C 27.8 32.4 28.2 32.2 28.5 32.0 C 28.5 32.2 27.4 32.8 27.3 32.8 C 26.4 33.4 27.9 32.5 26.8 33.3 C 26.7 33.5 28.5 32.2 28.6 32.1 C 29.9 31.2 29.0 32.2 29.4 32.0 C 30.7 31.3 30.1 31.4 31.9 30.4 C 30.8 30.9 29.8 31.3 28.5 32.0 C 28.5 32.0 28.5 32.0 28.5 32.0 Z M 95.3 10.4 C 95.5 10.3 93.9 11.0 92.3 11.1 C 90.1 11.5 93.6 11.1 91.7 11.4 C 93.3 11.2 95.3 10.7 97.8 10.3 C 98.4 10.0 94.3 10.8 96.6 10.3 C 96.5 10.2 95.9 10.4 95.9 10.4 C 95.5 10.5 95.4 10.5 95.3 10.4 C 95.3 10.4 95.3 10.4 95.3 10.4 Z M 92.9 11.4 C 93.1 11.5 93.6 11.3 93.6 11.3 C 94.4 11.2 94.4 11.4 93.6 11.5 C 94.7 11.6 94.6 11.1 96.7 10.9 C 95.8 10.9 95.3 10.8 97.3 10.7 C 98.8 10.2 93.6 11.1 92.9 11.4 C 92.9 11.4 92.9 11.4 92.9 11.4 Z M 190.4 7.5 C 190.6 7.6 192.0 7.7 193.0 7.8 C 191.7 7.9 186.5 7.3 185.9 7.1 C 185.3 7.1 184.7 7.1 184.5 7.0 C 184.6 7.1 183.1 7.1 183.9 7.2 C 183.7 7.3 182.6 7.2 182.6 7.3 C 180.6 7.1 183.2 7.2 182.6 7.0 C 180.2 7.0 180.8 6.9 178.0 6.7 C 178.5 6.9 181.5 7.0 181.2 7.3 C 183.4 7.2 185.8 7.6 187.1 7.9 C 185.1 7.4 192.7 7.9 196.2 8.3 C 196.0 8.5 197.3 8.6 198.7 8.9 C 199.6 9.2 199.4 8.7 197.5 8.6 C 197.5 8.4 200.1 8.8 201.3 8.9 C 200.0 8.6 200.7 8.6 200.1 8.5 C 197.6 8.2 199.8 8.5 199.3 8.6 C 198.7 8.6 198.1 8.5 197.4 8.4 C 200.8 8.4 192.5 7.8 195.5 8.1 C 192.9 7.9 192.9 7.6 190.4 7.5 C 190.4 7.5 190.4 7.5 190.4 7.5 Z M 128.6 6.7 C 128.1 6.7 126.0 7.0 125.9 6.8 C 123.3 7.2 125.6 7.3 122.7 7.5 C 122.9 7.6 124.0 7.4 124.0 7.6 C 125.2 7.4 126.3 7.2 126.0 7.0 C 127.3 6.9 127.7 6.8 128.6 6.7 C 128.2 6.9 127.7 7.0 126.6 7.0 C 126.4 7.3 126.9 7.4 128.6 7.2 C 129.3 7.0 128.8 6.8 128.6 6.7 C 128.6 6.7 128.6 6.7 128.6 6.7 Z M 122.0 7.5 C 121.7 7.4 121.3 7.4 121.4 7.3 C 120.4 7.1 121.0 7.6 120.1 7.7 C 119.3 7.8 119.6 7.6 119.4 7.5 C 118.3 7.7 117.4 7.8 116.8 7.8 C 115.1 8.1 118.9 7.8 119.5 7.9 C 120.7 7.7 120.3 7.6 122.0 7.5 C 122.0 7.5 122.0 7.5 122.0 7.5 Z M 102.8 9.4 C 102.5 9.2 101.8 9.6 101.0 9.7 C 101.6 9.9 103.4 9.5 102.3 9.9 C 104.1 9.8 104.2 9.7 106.1 9.4 C 107.3 9.5 106.1 9.2 104.1 9.6 C 104.4 9.5 105.2 9.3 105.3 9.2 C 106.6 9.5 109.8 8.4 107.9 8.9 C 107.3 9.0 106.9 8.9 106.6 8.9 C 106.2 9.1 101.9 9.6 102.8 9.4 C 102.8 9.4 102.8 9.4 102.8 9.4 Z M 43.7 24.9 C 45.3 24.2 46.1 23.8 47.0 23.5 C 47.8 23.1 49.0 22.7 50.0 22.3 C 50.1 22.4 50.0 22.5 49.6 22.7 C 50.1 22.6 50.7 22.3 51.6 21.9 C 51.5 21.9 51.1 22.1 51.1 22.1 C 49.4 22.6 50.8 22.0 51.0 21.7 C 48.9 22.3 45.9 23.9 44.4 24.2 C 43.2 24.8 44.6 24.2 43.7 24.9 C 43.7 24.9 43.7 24.9 43.7 24.9 Z M 301.0 69.7 C 300.9 70.0 300.6 70.6 300.8 70.6 C 301.1 70.0 301.2 69.5 301.4 68.9 C 300.9 70.0 300.7 69.7 299.9 71.2 C 300.3 70.8 300.5 71.0 301.0 69.7 C 301.0 69.7 301.0 69.7 301.0 69.7 Z M 109.2 8.6 C 109.2 8.7 109.3 8.8 108.6 8.9 C 108.4 9.2 110.4 8.8 110.5 9.0 C 111.1 8.9 110.9 8.8 111.8 8.6 C 111.4 8.6 109.8 8.8 110.4 8.5 C 111.0 8.4 111.0 8.4 111.1 8.5 C 112.4 8.2 110.4 8.4 109.2 8.6 C 109.2 8.6 109.2 8.6 109.2 8.6 Z M 216.9 11.1 C 216.0 11.0 216.8 11.2 217.5 11.4 C 215.7 11.3 218.5 11.9 218.6 12.2 C 217.8 11.9 215.4 11.6 215.0 11.4 C 214.2 11.3 215.0 11.7 213.0 11.4 C 213.3 11.7 215.4 11.8 214.9 11.6 C 215.4 12.0 217.6 12.0 217.3 12.2 C 220.1 12.8 220.7 12.7 221.0 12.5 C 218.3 12.1 219.8 11.9 217.4 11.6 C 217.5 11.5 218.2 11.7 218.6 11.7 C 218.5 11.5 217.5 11.3 216.9 11.1 C 216.9 11.1 216.9 11.1 216.9 11.1 Z M 149.6 6.0 C 148.1 6.0 148.2 6.2 148.3 6.4 C 148.9 6.3 149.8 6.3 150.9 6.3 C 150.7 6.2 148.9 6.3 149.6 6.0 C 149.6 6.0 149.6 6.0 149.6 6.0 Z M 206.9 9.8 C 206.8 9.7 206.3 9.7 206.3 9.8 C 204.7 9.6 204.3 9.4 203.8 9.2 C 202.9 9.1 203.2 9.3 203.1 9.4 C 204.6 9.4 204.3 9.7 206.3 9.9 C 206.1 9.8 206.4 9.8 206.9 9.8 C 206.9 9.8 206.9 9.8 206.9 9.8 Z M 163.5 6.2 C 162.7 6.2 163.1 6.3 163.5 6.3 C 162.6 6.6 159.9 6.3 158.9 6.4 C 158.7 6.6 162.1 6.6 158.2 6.6 C 158.9 6.8 162.4 6.7 164.1 6.8 C 163.7 7.0 161.4 6.9 161.5 7.2 C 163.5 7.1 165.8 7.0 166.1 6.7 C 163.2 6.6 164.2 6.4 163.5 6.2 C 163.5 6.2 163.5 6.2 163.5 6.2 Z M 166.8 6.5 C 166.5 6.3 165.9 6.5 164.8 6.4 C 166.5 6.7 167.4 6.7 170.8 6.9 C 170.8 6.8 170.8 6.7 170.8 6.7 C 171.4 6.7 172.1 6.7 172.7 6.8 C 169.9 6.4 169.2 6.5 166.1 6.5 C 166.0 6.5 166.4 6.5 166.8 6.5 C 166.8 6.5 166.8 6.5 166.8 6.5 Z M 80.9 13.6 C 81.7 13.6 82.5 13.6 83.9 13.3 C 83.8 13.1 82.9 13.2 80.9 13.6 C 80.9 13.6 80.9 13.6 80.9 13.6 Z M 209.4 10.4 C 211.1 10.5 207.7 10.1 208.7 10.5 C 210.0 10.8 211.5 11.1 211.8 11.4 C 214.3 11.5 209.0 10.6 209.4 10.4 C 209.4 10.4 209.4 10.4 209.4 10.4 Z M 198.0 9.4 C 197.2 9.3 197.3 9.0 198.0 9.3 C 199.8 9.5 196.5 8.9 199.3 9.3 C 198.1 9.0 195.4 8.6 194.2 8.6 C 194.2 8.8 196.7 9.0 196.7 9.2 C 196.8 9.3 196.4 9.3 196.1 9.2 C 196.3 9.4 196.9 9.3 198.0 9.4 C 198.0 9.4 198.0 9.4 198.0 9.4 Z M 188.4 8.1 C 189.4 8.3 190.7 8.5 192.9 8.7 C 191.5 8.4 190.7 8.1 188.4 8.1 C 188.4 8.1 188.4 8.1 188.4 8.1 Z M 297.6 48.5 C 297.0 47.5 297.3 48.5 297.3 48.6 C 298.0 49.6 298.1 49.4 298.6 50.6 C 298.7 50.1 297.8 49.2 297.6 48.5 C 297.6 48.5 297.6 48.5 297.6 48.5 Z M 299.5 52.1 C 299.4 52.3 300.1 53.6 300.0 53.7 C 300.7 54.4 300.4 55.8 300.7 55.7 C 300.8 56.0 300.8 56.3 301.0 56.9 C 301.1 55.7 300.1 53.3 299.5 52.1 C 299.5 52.1 299.5 52.1 299.5 52.1 Z M 177.3 7.7 C 175.5 7.6 177.7 8.1 176.0 8.0 C 175.8 8.1 179.3 8.3 177.2 8.3 C 179.9 8.6 177.1 7.8 177.3 7.7 C 177.3 7.7 177.3 7.7 177.3 7.7 Z M 145.0 7.4 C 145.1 7.3 142.7 7.5 141.7 7.5 C 141.7 7.5 142.5 7.5 143.0 7.5 C 142.8 7.6 142.5 7.7 141.8 7.7 C 142.3 7.9 144.1 7.5 145.0 7.4 C 145.0 7.4 145.0 7.4 145.0 7.4 Z M 180.8 3.8 C 181.9 4.1 183.3 4.4 184.1 4.1 C 185.2 4.4 183.3 4.3 184.7 4.5 C 186.6 4.6 185.7 4.7 188.7 4.9 C 188.1 5.1 190.2 5.3 190.6 5.5 C 189.4 5.5 187.9 5.0 187.3 5.2 C 188.3 5.3 187.7 5.5 187.3 5.3 C 185.3 5.0 189.7 5.2 187.3 4.8 C 186.6 5.1 183.1 4.2 180.8 4.1 C 181.7 4.0 179.1 3.7 180.8 3.8 C 180.8 3.8 180.8 3.8 180.8 3.8 Z M 192.5 5.2 C 194.1 5.4 194.9 6.0 194.4 5.9 C 194.5 5.8 192.7 5.6 192.5 5.7 C 192.9 5.8 193.3 5.8 193.2 5.9 C 190.3 5.5 191.3 5.4 190.6 5.2 C 192.2 5.3 192.6 5.4 193.2 5.4 C 192.8 5.3 192.5 5.3 192.5 5.2 C 192.5 5.2 192.5 5.2 192.5 5.2 Z M 225.1 14.1 C 224.8 13.9 224.4 14.0 223.8 13.9 C 223.8 13.6 220.7 13.4 220.3 13.2 C 221.0 13.2 222.6 13.5 223.3 13.5 C 222.5 13.3 222.3 13.2 221.5 13.2 C 221.7 13.0 223.5 13.3 224.0 13.2 C 224.1 13.4 225.0 13.4 225.2 13.6 C 222.8 13.2 226.4 14.4 225.1 14.1 C 225.1 14.1 225.1 14.1 225.1 14.1 Z M 162.2 7.5 C 161.9 7.7 164.7 8.3 162.2 8.6 C 161.6 8.4 161.3 8.2 161.5 7.9 C 159.9 8.0 159.2 7.7 158.2 8.0 C 155.2 7.2 160.5 8.1 162.2 7.5 C 162.2 7.5 162.2 7.5 162.2 7.5 Z M 151.6 7.7 C 152.2 7.4 150.7 7.5 150.9 7.3 C 152.2 7.4 156.3 7.2 154.9 7.3 C 153.6 7.4 153.6 7.6 151.6 7.7 C 151.6 7.7 151.6 7.7 151.6 7.7 Z M 72.6 107.9 C 70.7 107.6 69.9 107.0 71.0 107.1 C 70.5 107.2 73.3 107.8 72.6 107.9 C 72.6 107.9 72.6 107.9 72.6 107.9 Z M 5.8 74.8 C 6.4 76.2 7.1 76.9 7.0 77.2 C 6.1 76.0 6.3 76.0 5.6 74.9 C 5.5 74.8 5.0 74.2 5.1 74.0 C 5.4 74.6 5.5 74.4 5.8 74.8 C 5.8 74.8 5.8 74.8 5.8 74.8 Z M 111.3 4.4 C 111.1 4.3 110.3 4.3 110.6 4.1 C 112.6 4.0 114.8 3.6 116.4 3.2 C 116.4 3.4 116.4 3.5 116.4 3.6 C 113.3 3.8 112.5 4.1 111.3 4.4 C 111.3 4.4 111.3 4.4 111.3 4.4 Z M 107.3 4.3 C 107.0 4.5 108.1 4.7 106.7 4.8 C 106.8 4.6 104.3 4.7 105.4 4.5 C 105.8 4.6 106.4 4.5 107.3 4.3 C 107.3 4.3 107.3 4.3 107.3 4.3 Z M 217.4 7.9 C 218.9 8.2 216.8 7.6 216.9 7.5 C 217.9 7.7 219.4 8.0 219.9 8.2 C 218.8 8.0 218.0 8.3 217.4 7.9 C 217.4 7.9 217.4 7.9 217.4 7.9 Z M 193.9 5.3 C 190.5 5.0 192.0 4.7 188.7 4.3 C 190.1 4.3 193.0 4.6 194.0 4.5 C 193.8 4.6 194.6 4.7 194.6 4.9 C 193.4 4.8 193.2 4.6 192.0 4.5 C 192.4 4.8 192.4 4.7 191.9 4.9 C 192.8 5.0 193.4 5.0 193.9 5.0 C 193.6 5.2 194.8 5.3 193.9 5.3 C 193.9 5.3 193.9 5.3 193.9 5.3 Z M 216.7 8.5 C 218.0 8.6 219.0 9.1 217.9 8.9 C 217.8 8.7 216.9 8.8 216.7 8.6 C 218.5 8.9 215.2 8.3 216.1 8.2 C 217.2 8.4 217.6 8.4 217.4 8.2 C 218.1 8.3 219.2 8.5 219.2 8.6 C 218.7 8.5 218.0 8.4 218.0 8.4 C 218.4 8.5 218.7 8.6 218.6 8.6 C 217.5 8.4 217.0 8.4 216.7 8.5 C 216.7 8.5 216.7 8.5 216.7 8.5 Z M 208.0 7.1 C 209.7 7.4 209.8 7.6 210.4 7.9 C 208.1 7.4 207.8 7.1 206.1 6.7 C 208.0 7.0 209.9 7.0 210.5 7.2 C 209.7 7.2 208.1 6.9 208.0 7.1 C 208.0 7.1 208.0 7.1 208.0 7.1 Z M 237.6 109.3 C 236.2 109.5 235.0 109.7 233.5 109.9 C 233.0 110.3 236.0 110.1 234.7 110.2 C 233.2 110.6 234.2 110.0 232.9 110.3 C 234.2 110.3 227.4 111.9 227.0 111.6 C 228.1 111.4 228.4 111.2 228.1 111.1 C 230.9 110.5 232.0 110.1 234.0 109.5 C 235.5 109.5 239.8 108.5 242.0 107.6 C 243.6 107.6 246.1 106.4 248.2 106.1 C 248.7 105.8 246.5 106.4 248.1 105.8 C 249.3 105.8 248.4 106.1 249.9 105.8 C 250.0 105.6 249.6 105.6 250.3 105.3 C 250.3 105.5 251.2 105.2 251.5 105.2 C 248.6 106.1 251.8 105.5 249.5 106.3 C 248.5 106.4 250.4 105.6 247.7 106.4 C 246.8 106.7 245.9 107.1 246.1 107.3 C 245.4 107.5 245.0 107.6 244.5 107.8 C 245.4 107.2 240.7 109.0 242.8 108.0 C 242.9 108.0 244.5 107.6 245.5 107.2 C 244.5 107.2 243.3 107.7 241.6 108.3 C 240.8 108.3 241.9 108.0 241.0 108.1 C 239.6 108.7 241.6 108.3 240.5 108.7 C 241.0 108.6 241.6 108.4 241.7 108.5 C 239.2 108.9 238.3 109.4 237.1 109.7 C 237.9 109.3 235.6 109.9 237.6 109.3 C 237.6 109.3 237.6 109.3 237.6 109.3 Z M 257.3 103.1 C 257.8 102.9 258.3 102.7 258.9 102.5 C 259.0 102.7 257.0 103.5 258.5 103.2 C 256.2 103.9 258.5 102.8 257.3 103.1 C 257.3 103.1 257.3 103.1 257.3 103.1 Z M 246.3 105.7 C 245.5 105.7 246.0 106.1 245.3 106.3 C 246.6 105.9 247.8 105.5 248.1 105.7 C 246.5 106.1 245.8 106.3 244.2 106.8 C 245.7 106.0 242.4 107.0 241.8 106.9 C 243.1 106.5 244.0 106.1 245.7 105.6 C 245.4 105.8 247.9 105.2 246.3 105.7 C 246.3 105.7 246.3 105.7 246.3 105.7 Z M 250.6 104.1 C 250.9 104.1 253.2 103.2 252.8 103.7 C 251.4 104.1 250.9 104.3 251.3 104.4 C 250.2 104.8 250.0 104.7 249.1 105.0 C 248.4 104.9 250.1 104.4 250.6 104.1 C 250.3 104.2 250.0 104.3 250.6 104.1 C 250.6 104.1 250.6 104.1 250.6 104.1 Z M 294.2 78.5 C 294.7 78.3 293.1 79.9 292.7 80.1 C 293.4 79.8 293.2 80.1 292.2 81.2 C 292.4 80.6 290.9 82.1 289.7 82.7 C 289.6 83.1 291.0 82.0 289.5 83.4 C 288.2 84.4 287.1 85.4 285.0 86.9 C 284.3 87.1 285.3 86.4 285.8 85.9 C 284.4 87.0 284.7 86.5 283.5 87.3 C 283.8 87.2 282.9 87.9 282.4 88.1 C 284.4 86.7 279.5 89.5 281.7 88.1 C 281.8 88.1 282.3 87.7 282.8 87.4 C 282.4 88.0 285.1 86.1 285.7 85.8 C 286.4 84.6 289.2 82.8 291.7 80.7 C 292.0 80.6 291.3 81.4 291.9 80.8 C 291.9 80.7 292.7 79.9 293.0 79.5 C 293.1 79.7 293.4 79.4 293.9 78.9 C 293.9 78.9 293.9 78.8 294.2 78.5 C 294.2 78.5 294.2 78.5 294.2 78.5 Z M 132.5 115.5 C 132.7 115.1 128.5 115.1 127.3 115.1 C 127.5 114.7 134.9 115.3 132.5 115.5 C 132.5 115.5 132.5 115.5 132.5 115.5 Z M 158.2 115.8 C 157.2 115.8 157.9 116.0 157.0 116.1 C 156.9 115.8 154.4 116.3 154.3 116.1 C 155.5 115.8 156.3 115.9 158.2 115.8 C 158.2 115.8 158.2 115.8 158.2 115.8 Z M 182.0 115.0 C 180.1 115.1 183.0 115.0 182.6 115.1 C 181.0 115.3 179.2 115.4 179.3 115.1 C 180.8 115.1 181.8 114.8 182.0 115.0 C 182.0 115.0 182.0 115.0 182.0 115.0 Z M 146.4 115.5 C 144.8 115.4 147.4 115.1 147.7 115.3 C 146.0 115.3 148.8 115.5 150.3 115.5 C 150.3 115.8 149.6 115.7 150.3 116.0 C 148.0 116.1 149.9 115.7 148.3 115.7 C 147.2 115.8 148.4 115.8 148.3 116.0 C 147.7 116.0 147.0 116.0 146.4 116.0 C 146.4 115.8 146.4 115.7 146.4 115.6 C 147.2 115.6 147.9 115.6 147.7 115.4 C 147.0 115.4 146.9 115.5 146.4 115.5 C 146.4 115.5 146.4 115.5 146.4 115.5 Z M 263.5 97.3 C 262.2 97.8 263.4 97.5 264.3 97.1 C 264.5 96.9 265.1 96.2 266.6 95.8 C 263.6 97.3 267.7 95.7 266.0 96.6 C 265.2 96.6 263.5 97.7 261.9 98.3 C 261.2 98.3 262.7 97.4 263.5 97.3 C 263.5 97.3 263.5 97.3 263.5 97.3 Z M 269.0 95.0 C 268.9 95.1 268.3 95.3 267.4 95.7 C 268.3 95.1 267.0 95.6 268.1 95.0 C 268.0 95.2 272.0 93.4 269.7 94.6 C 267.6 95.4 270.3 94.4 271.3 94.0 C 270.3 94.5 268.5 95.6 268.2 95.5 C 268.8 95.3 269.2 95.0 269.0 95.0 C 269.0 95.0 269.0 95.0 269.0 95.0 Z M 299.1 70.3 C 299.0 70.1 298.7 70.8 298.5 71.0 C 299.6 69.0 300.1 67.4 300.4 66.4 C 300.2 67.3 300.3 67.4 300.6 66.9 C 300.2 67.8 300.3 68.1 300.0 68.4 C 300.1 67.5 299.7 69.1 299.1 70.3 C 299.1 70.3 299.1 70.3 299.1 70.3 Z M 299.1 70.3 " fill="#000000"></path><image xlink:href="../../CEFA4209-80C9-472B-8D2B-058B96531B72/assets/53DE529C9B23CC4742AB8E7F7EB62785.png" width="153.00" height="39.00" transform="matrix(1.00, 0.00, -0.00, -1.00, 79.0, 77.0)"></image><g><clipPath id="clip-296"><path d="M 5.5 5.1 L 303.7 5.1 L 303.7 117.6 L 5.5 117.6 Z M 5.5 5.1 "></path></clipPath><g clip-path="url(#clip-296)"><text xml:space="preserve" font-family="Chalkduster" font-size="32.0" fill="#000000" transform="matrix(1.00, 0.00, -0.00, -1.00, 82.0, 47.0)">N</text><text xml:space="preserve" font-family="Chalkduster" font-size="32.0" fill="#000000" transform="matrix(1.00, 0.00, -0.00, -1.00, 104.8, 47.0)">F</text><text xml:space="preserve" font-family="Chalkduster" font-size="32.0" fill="#000000" transform="matrix(1.00, 0.00, -0.00, -1.00, 128.6, 47.0)">S</text><text xml:space="preserve" font-family="Chalkduster" font-size="32.0" fill="#000000" transform="matrix(1.00, 0.00, -0.00, -1.00, 144.5, 47.0)"> </text><text xml:space="preserve" font-family="Chalkduster" font-size="32.0" fill="#000000" transform="matrix(1.00, 0.00, -0.00, -1.00, 160.4, 47.0)">t</text><text xml:space="preserve" font-family="Chalkduster" font-size="32.0" fill="#000000" transform="matrix(1.00, 0.00, -0.00, -1.00, 174.7, 47.0)">e</text><text xml:space="preserve" font-family="Chalkduster" font-size="32.0" fill="#000000" transform="matrix(1.00, 0.00, -0.00, -1.00, 195.3, 47.0)">s</text><text xml:space="preserve" font-family="Chalkduster" font-size="32.0" fill="#000000" transform="matrix(1.00, 0.00, -0.00, -1.00, 212.4, 47.0)">t</text></g></g></g></svg>