<?xml version="1.0" encoding="UTF-8" standalone="no"?><svg xmlns="http://www.w3.org/2000/svg" xmlns:xlink="http://www.w3.org/1999/xlink" clip-rule="evenodd" stroke-miterlimit="4.00" viewBox="0 0 891 398"><desc>SVG generated by Keynote</desc><defs></defs><g transform="matrix(1.00, 0.00, -0.00, -1.00, 0.0, 398.0)"><g><clipPath id="clip-911"><path d="M 1.0 396.8 L 889.0 396.8 L 889.0 2.0 L 1.0 2.0 Z M 1.0 396.8 "></path></clipPath><g clip-path="url(#clip-911)"><path d="M 1.5 396.3 L 138.9 396.3 L 138.9 340.1 L 1.5 340.1 Z M 1.5 396.3 " fill="#869ABB"></path><path d="M 138.9 396.3 L 263.8 396.3 L 263.8 340.1 L 138.9 340.1 Z M 138.9 396.3 " fill="#869ABB"></path><path d="M 263.8 396.3 L 388.8 396.3 L 388.8 340.1 L 263.8 340.1 Z M 263.8 396.3 " fill="#869ABB"></path><path d="M 388.8 396.3 L 513.7 396.3 L 513.7 340.1 L 388.8 340.1 Z M 388.8 396.3 " fill="#869ABB"></path><path d="M 513.7 396.3 L 638.7 396.3 L 638.7 340.1 L 513.7 340.1 Z M 513.7 396.3 " fill="#869ABB"></path><path d="M 638.7 396.3 L 763.6 396.3 L 763.6 340.1 L 638.7 340.1 Z M 638.7 396.3 " fill="#869ABB"></path><path d="M 763.6 396.3 L 888.5 396.3 L 888.5 340.1 L 763.6 340.1 Z M 763.6 396.3 " fill="#869ABB"></path><path d="M 1.5 340.1 L 138.9 340.1 L 138.9 283.8 L 1.5 283.8 Z M 1.5 340.1 " fill="#869ABB"></path><path d="M 1.5 283.8 L 138.9 283.8 L 138.9 227.5 L 1.5 227.5 Z M 1.5 283.8 " fill="#869ABB"></path><path d="M 138.9 283.8 L 263.8 283.8 L 263.8 227.5 L 138.9 227.5 Z M 138.9 283.8 " fill="#000000" fill-opacity="0.25"></path><path d="M 263.8 283.8 L 388.8 283.8 L 388.8 227.5 L 263.8 227.5 Z M 263.8 283.8 " fill="#000000" fill-opacity="0.25"></path><path d="M 388.8 283.8 L 513.7 283.8 L 513.7 227.5 L 388.8 227.5 Z M 388.8 283.8 " fill="#000000" fill-opacity="0.25"></path><path d="M 513.7 283.8 L 638.7 283.8 L 638.7 227.5 L 513.7 227.5 Z M 513.7 283.8 " fill="#000000" fill-opacity="0.25"></path><path d="M 638.7 283.8 L 763.6 283.8 L 763.6 227.5 L 638.7 227.5 Z M 638.7 283.8 " fill="#000000" fill-opacity="0.25"></path><path d="M 763.6 283.8 L 888.5 283.8 L 888.5 227.5 L 763.6 227.5 Z M 763.6 283.8 " fill="#000000" fill-opacity="0.25"></path><path d="M 1.5 227.5 L 138.9 227.5 L 138.9 171.3 L 1.5 171.3 Z M 1.5 227.5 " fill="#869ABB"></path><path d="M 1.5 171.3 L 138.9 171.3 L 138.9 115.0 L 1.5 115.0 Z M 1.5 171.3 " fill="#869ABB"></path><path d="M 138.9 171.3 L 263.8 171.3 L 263.8 115.0 L 138.9 115.0 Z M 138.9 171.3 " fill="#000000" fill-opacity="0.25"></path><path d="M 263.8 171.3 L 388.8 171.3 L 388.8 115.0 L 263.8 115.0 Z M 263.8 171.3 " fill="#000000" fill-opacity="0.25"></path><path d="M 388.8 171.3 L 513.7 171.3 L 513.7 115.0 L 388.8 115.0 Z M 388.8 171.3 " fill="#000000" fill-opacity="0.25"></path><path d="M 513.7 171.3 L 638.7 171.3 L 638.7 115.0 L 513.7 115.0 Z M 513.7 171.3 " fill="#000000" fill-opacity="0.25"></path><path d="M 638.7 171.3 L 763.6 171.3 L 763.6 115.0 L 638.7 115.0 Z M 638.7 171.3 " fill="#000000" fill-opacity="0.25"></path><path d="M 763.6 171.3 L 888.5 171.3 L 888.5 115.0 L 763.6 115.0 Z M 763.6 171.3 " fill="#000000" fill-opacity="0.25"></path><path d="M 1.5 115.0 L 138.9 115.0 L 138.9 58.7 L 1.5 58.7 Z M 1.5 115.0 " fill="#869ABB"></path><path d="M 1.5 58.7 L 138.9 58.7 L 138.9 2.5 L 1.5 2.5 Z M 1.5 58.7 " fill="#869ABB"></path><path d="M 138.9 58.7 L 263.8 58.7 L 263.8 2.5 L 138.9 2.5 Z M 138.9 58.7 " fill="#000000" fill-opacity="0.25"></path><path d="M 263.8 58.7 L 388.8 58.7 L 388.8 2.5 L 263.8 2.5 Z M 263.8 58.7 " fill="#000000" fill-opacity="0.25"></path><path d="M 388.8 58.7 L 513.7 58.7 L 513.7 2.5 L 388.8 2.5 Z M 388.8 58.7 " fill="#000000" fill-opacity="0.25"></path><path d="M 513.7 58.7 L 638.7 58.7 L 638.7 2.5 L 513.7 2.5 Z M 513.7 58.7 " fill="#000000" fill-opacity="0.25"></path><path d="M 638.7 58.7 L 763.6 58.7 L 763.6 2.5 L 638.7 2.5 Z M 638.7 58.7 " fill="#000000" fill-opacity="0.25"></path><path d="M 763.6 58.7 L 888.5 58.7 L 888.5 2.5 L 763.6 2.5 Z M 763.6 58.7 " fill="#000000" fill-opacity="0.25"></path></g></g><image xlink:href="../../D55510CF-6CC6-4C3C-BC8C-B86DBACA13BB/assets/769658594DB1201C8F3AB3A752E35090.png" width="106.00" height="32.00" transform="matrix(1.00, 0.00, -0.00, -1.00, 149.0, 379.0)"></image><g><clipPath id="clip-912"><path d="M 1.0 396.8 L 889.0 396.8 L 889.0 2.0 L 1.0 2.0 Z M 1.0 396.8 "></path></clipPath><g clip-path="url(#clip-912)"><g><clipPath id="clip-913"><path d="M 140.9 340.6 L 263.3 340.6 L 263.3 395.8 L 140.9 395.8 Z M 140.9 340.6 "></path></clipPath><g clip-path="url(#clip-913)"><text xml:space="preserve" font-family="Chalkduster" font-size="16.0" fill="#FEFFFE" transform="matrix(1.00, 0.00, -0.00, -1.00, 154.0, 361.0)">C</text><text xml:space="preserve" font-family="Chalkduster" font-size="16.0" fill="#FEFFFE" transform="matrix(1.00, 0.00, -0.00, -1.00, 167.0, 361.0)">o</text><text xml:space="preserve" font-family="Chalkduster" font-size="16.0" fill="#FEFFFE" transform="matrix(1.00, 0.00, -0.00, -1.00, 179.0, 361.0)">m</text><text xml:space="preserve" font-family="Chalkduster" font-size="16.0" fill="#FEFFFE" transform="matrix(1.00, 0.00, -0.00, -1.00, 195.2, 361.0)">p</text><text xml:space="preserve" font-family="Chalkduster" font-size="16.0" fill="#FEFFFE" transform="matrix(1.00, 0.00, -0.00, -1.00, 205.0, 361.0)">u</text><text xml:space="preserve" font-family="Chalkduster" font-size="16.0" fill="#FEFFFE" transform="matrix(1.00, 0.00, -0.00, -1.00, 215.9, 361.0)">t</text><text xml:space="preserve" font-family="Chalkduster" font-size="16.0" fill="#FEFFFE" transform="matrix(1.00, 0.00, -0.00, -1.00, 223.0, 361.0)">e</text><text xml:space="preserve" font-family="Chalkduster" font-size="16.0" fill="#FEFFFE" transform="matrix(1.00, 0.00, -0.00, -1.00, 232.9, 361.0)"> </text><text xml:space="preserve" font-family="Chalkduster" font-size="16.0" fill="#FEFFFE" transform="matrix(1.00, 0.00, -0.00, -1.00, 240.9, 361.0)">1</text></g></g></g></g><image xlink:href="../../D55510CF-6CC6-4C3C-BC8C-B86DBACA13BB/assets/530467D521B7D6F399558FA266B94881.png" width="106.00" height="32.00" transform="matrix(1.00, 0.00, -0.00, -1.00, 273.0, 379.0)"></image><g><clipPath id="clip-914"><path d="M 1.0 396.8 L 889.0 396.8 L 889.0 2.0 L 1.0 2.0 Z M 1.0 396.8 "></path></clipPath><g clip-path="url(#clip-914)"><g><clipPath id="clip-915"><path d="M 264.3 340.6 L 388.3 340.6 L 388.3 395.8 L 264.3 395.8 Z M 264.3 340.6 "></path></clipPath><g clip-path="url(#clip-915)"><text xml:space="preserve" font-family="Chalkduster" font-size="16.0" fill="#FEFFFE" transform="matrix(1.00, 0.00, -0.00, -1.00, 278.0, 361.0)">C</text><text xml:space="preserve" font-family="Chalkduster" font-size="16.0" fill="#FEFFFE" transform="matrix(1.00, 0.00, -0.00, -1.00, 291.0, 361.0)">o</text><text xml:space="preserve" font-family="Chalkduster" font-size="16.0" fill="#FEFFFE" transform="matrix(1.00, 0.00, -0.00, -1.00, 303.0, 361.0)">m</text><text xml:space="preserve" font-family="Chalkduster" font-size="16.0" fill="#FEFFFE" transform="matrix(1.00, 0.00, -0.00, -1.00, 319.2, 361.0)">p</text><text xml:space="preserve" font-family="Chalkduster" font-size="16.0" fill="#FEFFFE" transform="matrix(1.00, 0.00, -0.00, -1.00, 329.0, 361.0)">u</text><text xml:space="preserve" font-family="Chalkduster" font-size="16.0" fill="#FEFFFE" transform="matrix(1.00, 0.00, -0.00, -1.00, 339.9, 361.0)">t</text><text xml:space="preserve" font-family="Chalkduster" font-size="16.0" fill="#FEFFFE" transform="matrix(1.00, 0.00, -0.00, -1.00, 347.0, 361.0)">e</text><text xml:space="preserve" font-family="Chalkduster" font-size="16.0" fill="#FEFFFE" transform="matrix(1.00, 0.00, -0.00, -1.00, 356.9, 361.0)"> </text><text xml:space="preserve" font-family="Chalkduster" font-size="16.0" fill="#FEFFFE" transform="matrix(1.00, 0.00, -0.00, -1.00, 364.9, 361.0)">2</text></g></g></g></g><image xlink:href="../../D55510CF-6CC6-4C3C-BC8C-B86DBACA13BB/assets/4428FEEA42197C511D1202861DED1AFD.png" width="108.00" height="32.00" transform="matrix(1.00, 0.00, -0.00, -1.00, 397.0, 379.0)"></image><g><clipPath id="clip-916"><path d="M 1.0 396.8 L 889.0 396.8 L 889.0 2.0 L 1.0 2.0 Z M 1.0 396.8 "></path></clipPath><g clip-path="url(#clip-916)"><g><clipPath id="clip-917"><path d="M 389.3 340.6 L 511.7 340.6 L 511.7 395.8 L 389.3 395.8 Z M 389.3 340.6 "></path></clipPath><g clip-path="url(#clip-917)"><text xml:space="preserve" font-family="Chalkduster" font-size="16.0" fill="#FEFFFE" transform="matrix(1.00, 0.00, -0.00, -1.00, 402.0, 361.0)">C</text><text xml:space="preserve" font-family="Chalkduster" font-size="16.0" fill="#FEFFFE" transform="matrix(1.00, 0.00, -0.00, -1.00, 415.0, 361.0)">o</text><text xml:space="preserve" font-family="Chalkduster" font-size="16.0" fill="#FEFFFE" transform="matrix(1.00, 0.00, -0.00, -1.00, 427.0, 361.0)">m</text><text xml:space="preserve" font-family="Chalkduster" font-size="16.0" fill="#FEFFFE" transform="matrix(1.00, 0.00, -0.00, -1.00, 443.2, 361.0)">p</text><text xml:space="preserve" font-family="Chalkduster" font-size="16.0" fill="#FEFFFE" transform="matrix(1.00, 0.00, -0.00, -1.00, 453.0, 361.0)">u</text><text xml:space="preserve" font-family="Chalkduster" font-size="16.0" fill="#FEFFFE" transform="matrix(1.00, 0.00, -0.00, -1.00, 463.9, 361.0)">t</text><text xml:space="preserve" font-family="Chalkduster" font-size="16.0" fill="#FEFFFE" transform="matrix(1.00, 0.00, -0.00, -1.00, 471.0, 361.0)">e</text><text xml:space="preserve" font-family="Chalkduster" font-size="16.0" fill="#FEFFFE" transform="matrix(1.00, 0.00, -0.00, -1.00, 480.9, 361.0)"> </text><text xml:space="preserve" font-family="Chalkduster" font-size="16.0" fill="#FEFFFE" transform="matrix(1.00, 0.00, -0.00, -1.00, 488.9, 361.0)">3</text></g></g></g></g><image xlink:href="../../D55510CF-6CC6-4C3C-BC8C-B86DBACA13BB/assets/2B8F4EDCD1DF0638CE3749ED49873FB2.png" width="90.00" height="32.00" transform="matrix(1.00, 0.00, -0.00, -1.00, 532.0, 379.0)"></image><g><clipPath id="clip-918"><path d="M 1.0 396.8 L 889.0 396.8 L 889.0 2.0 L 1.0 2.0 Z M 1.0 396.8 "></path></clipPath><g clip-path="url(#clip-918)"><g><clipPath id="clip-919"><path d="M 515.7 340.6 L 638.2 340.6 L 638.2 395.8 L 515.7 395.8 Z M 515.7 340.6 "></path></clipPath><g clip-path="url(#clip-919)"><text xml:space="preserve" font-family="Chalkduster" font-size="16.0" fill="#FEFFFE" transform="matrix(1.00, 0.00, -0.00, -1.00, 537.0, 361.0)">E</text><text xml:space="preserve" font-family="Chalkduster" font-size="16.0" fill="#FEFFFE" transform="matrix(1.00, 0.00, -0.00, -1.00, 548.8, 361.0)">p</text><text xml:space="preserve" font-family="Chalkduster" font-size="16.0" fill="#FEFFFE" transform="matrix(1.00, 0.00, -0.00, -1.00, 558.9, 361.0)">o</text><text xml:space="preserve" font-family="Chalkduster" font-size="16.0" fill="#FEFFFE" transform="matrix(1.00, 0.00, -0.00, -1.00, 570.9, 361.0)">u</text><text xml:space="preserve" font-family="Chalkduster" font-size="16.0" fill="#FEFFFE" transform="matrix(1.00, 0.00, -0.00, -1.00, 581.7, 361.0)">t</text><text xml:space="preserve" font-family="Chalkduster" font-size="16.0" fill="#FEFFFE" transform="matrix(1.00, 0.00, -0.00, -1.00, 588.9, 361.0)">a</text><text xml:space="preserve" font-family="Chalkduster" font-size="16.0" fill="#FEFFFE" transform="matrix(1.00, 0.00, -0.00, -1.00, 599.9, 361.0)"> </text><text xml:space="preserve" font-family="Chalkduster" font-size="16.0" fill="#FEFFFE" transform="matrix(1.00, 0.00, -0.00, -1.00, 607.9, 361.0)">1</text></g></g></g></g><image xlink:href="../../D55510CF-6CC6-4C3C-BC8C-B86DBACA13BB/assets/9383B51057CC135F09A649658AB8DE55.png" width="90.00" height="32.00" transform="matrix(1.00, 0.00, -0.00, -1.00, 656.0, 379.0)"></image><g><clipPath id="clip-920"><path d="M 1.0 396.8 L 889.0 396.8 L 889.0 2.0 L 1.0 2.0 Z M 1.0 396.8 "></path></clipPath><g clip-path="url(#clip-920)"><g><clipPath id="clip-921"><path d="M 639.2 340.6 L 763.1 340.6 L 763.1 395.8 L 639.2 395.8 Z M 639.2 340.6 "></path></clipPath><g clip-path="url(#clip-921)"><text xml:space="preserve" font-family="Chalkduster" font-size="16.0" fill="#FEFFFE" transform="matrix(1.00, 0.00, -0.00, -1.00, 661.0, 361.0)">E</text><text xml:space="preserve" font-family="Chalkduster" font-size="16.0" fill="#FEFFFE" transform="matrix(1.00, 0.00, -0.00, -1.00, 672.8, 361.0)">p</text><text xml:space="preserve" font-family="Chalkduster" font-size="16.0" fill="#FEFFFE" transform="matrix(1.00, 0.00, -0.00, -1.00, 682.9, 361.0)">o</text><text xml:space="preserve" font-family="Chalkduster" font-size="16.0" fill="#FEFFFE" transform="matrix(1.00, 0.00, -0.00, -1.00, 694.9, 361.0)">u</text><text xml:space="preserve" font-family="Chalkduster" font-size="16.0" fill="#FEFFFE" transform="matrix(1.00, 0.00, -0.00, -1.00, 705.7, 361.0)">t</text><text xml:space="preserve" font-family="Chalkduster" font-size="16.0" fill="#FEFFFE" transform="matrix(1.00, 0.00, -0.00, -1.00, 712.9, 361.0)">a</text><text xml:space="preserve" font-family="Chalkduster" font-size="16.0" fill="#FEFFFE" transform="matrix(1.00, 0.00, -0.00, -1.00, 723.9, 361.0)"> </text><text xml:space="preserve" font-family="Chalkduster" font-size="16.0" fill="#FEFFFE" transform="matrix(1.00, 0.00, -0.00, -1.00, 731.9, 361.0)">2</text></g></g></g></g><image xlink:href="../../D55510CF-6CC6-4C3C-BC8C-B86DBACA13BB/assets/01EAD8C765E9B848C34AF342E4683A9D.png" width="92.00" height="32.00" transform="matrix(1.00, 0.00, -0.00, -1.00, 780.0, 379.0)"></image><g><clipPath id="clip-922"><path d="M 1.0 396.8 L 889.0 396.8 L 889.0 2.0 L 1.0 2.0 Z M 1.0 396.8 "></path></clipPath><g clip-path="url(#clip-922)"><g><clipPath id="clip-923"><path d="M 764.1 340.6 L 888.0 340.6 L 888.0 395.8 L 764.1 395.8 Z M 764.1 340.6 "></path></clipPath><g clip-path="url(#clip-923)"><text xml:space="preserve" font-family="Chalkduster" font-size="16.0" fill="#FEFFFE" transform="matrix(1.00, 0.00, -0.00, -1.00, 785.0, 361.0)">E</text><text xml:space="preserve" font-family="Chalkduster" font-size="16.0" fill="#FEFFFE" transform="matrix(1.00, 0.00, -0.00, -1.00, 796.8, 361.0)">p</text><text xml:space="preserve" font-family="Chalkduster" font-size="16.0" fill="#FEFFFE" transform="matrix(1.00, 0.00, -0.00, -1.00, 806.9, 361.0)">o</text><text xml:space="preserve" font-family="Chalkduster" font-size="16.0" fill="#FEFFFE" transform="matrix(1.00, 0.00, -0.00, -1.00, 818.9, 361.0)">u</text><text xml:space="preserve" font-family="Chalkduster" font-size="16.0" fill="#FEFFFE" transform="matrix(1.00, 0.00, -0.00, -1.00, 829.7, 361.0)">t</text><text xml:space="preserve" font-family="Chalkduster" font-size="16.0" fill="#FEFFFE" transform="matrix(1.00, 0.00, -0.00, -1.00, 836.9, 361.0)">a</text><text xml:space="preserve" font-family="Chalkduster" font-size="16.0" fill="#FEFFFE" transform="matrix(1.00, 0.00, -0.00, -1.00, 847.9, 361.0)"> </text><text xml:space="preserve" font-family="Chalkduster" font-size="16.0" fill="#FEFFFE" transform="matrix(1.00, 0.00, -0.00, -1.00, 855.9, 361.0)">3</text></g></g></g></g><image xlink:href="../../D55510CF-6CC6-4C3C-BC8C-B86DBACA13BB/assets/DA291ADA276B465DF9F68A801D0740E5.png" width="42.00" height="19.00" transform="matrix(1.00, 0.00, -0.00, -1.00, 95.0, 318.0)"></image><g><clipPath id="clip-924"><path d="M 1.0 396.8 L 889.0 396.8 L 889.0 2.0 L 1.0 2.0 Z M 1.0 396.8 "></path></clipPath><g clip-path="url(#clip-924)"><g><clipPath id="clip-925"><path d="M 2.0 284.3 L 136.9 284.3 L 136.9 339.6 L 2.0 339.6 Z M 2.0 284.3 "></path></clipPath><g clip-path="url(#clip-925)"><text xml:space="preserve" font-family="Chalkduster" font-size="16.0" fill="#FEFFFE" transform="matrix(1.00, 0.00, -0.00, -1.00, 100.0, 304.3)">m</text><text xml:space="preserve" font-family="Chalkduster" font-size="16.0" fill="#FEFFFE" transform="matrix(1.00, 0.00, -0.00, -1.00, 116.7, 304.3)">m</text></g></g></g></g><image xlink:href="../../D55510CF-6CC6-4C3C-BC8C-B86DBACA13BB/assets/5CF07A188BC6F9A92C473C7CB6E206F3.png" width="18.00" height="23.00" transform="matrix(1.00, 0.00, -0.00, -1.00, 193.0, 321.0)"></image><g><clipPath id="clip-926"><path d="M 1.0 396.8 L 889.0 396.8 L 889.0 2.0 L 1.0 2.0 Z M 1.0 396.8 "></path></clipPath><g clip-path="url(#clip-926)"><g><clipPath id="clip-927"><path d="M 140.9 284.3 L 263.3 284.3 L 263.3 339.6 L 140.9 339.6 Z M 140.9 284.3 "></path></clipPath><g clip-path="url(#clip-927)"><text xml:space="preserve" font-family="Chalkduster" font-size="16.0" fill="#FEFFFE" transform="matrix(1.00, 0.00, -0.00, -1.00, 197.0, 304.0)">1</text></g></g></g></g><image xlink:href="../../D55510CF-6CC6-4C3C-BC8C-B86DBACA13BB/assets/0AC42A1088C98091ED1F4E6A1EB35E36.png" width="19.00" height="23.00" transform="matrix(1.00, 0.00, -0.00, -1.00, 317.0, 321.0)"></image><g><clipPath id="clip-928"><path d="M 1.0 396.8 L 889.0 396.8 L 889.0 2.0 L 1.0 2.0 Z M 1.0 396.8 "></path></clipPath><g clip-path="url(#clip-928)"><g><clipPath id="clip-929"><path d="M 264.3 284.3 L 388.3 284.3 L 388.3 339.6 L 264.3 339.6 Z M 264.3 284.3 "></path></clipPath><g clip-path="url(#clip-929)"><text xml:space="preserve" font-family="Chalkduster" font-size="16.0" fill="#FEFFFE" transform="matrix(1.00, 0.00, -0.00, -1.00, 322.0, 304.0)">2</text></g></g></g></g><image xlink:href="../../D55510CF-6CC6-4C3C-BC8C-B86DBACA13BB/assets/1736D47D1B2025C47B146D19CEF54500.png" width="21.00" height="23.00" transform="matrix(1.00, 0.00, -0.00, -1.00, 440.0, 321.0)"></image><g><clipPath id="clip-930"><path d="M 1.0 396.8 L 889.0 396.8 L 889.0 2.0 L 1.0 2.0 Z M 1.0 396.8 "></path></clipPath><g clip-path="url(#clip-930)"><g><clipPath id="clip-931"><path d="M 389.3 284.3 L 511.7 284.3 L 511.7 339.6 L 389.3 339.6 Z M 389.3 284.3 "></path></clipPath><g clip-path="url(#clip-931)"><text xml:space="preserve" font-family="Chalkduster" font-size="16.0" fill="#FEFFFE" transform="matrix(1.00, 0.00, -0.00, -1.00, 445.0, 304.0)">3</text></g></g></g></g><image xlink:href="../../D55510CF-6CC6-4C3C-BC8C-B86DBACA13BB/assets/3C80A8BCCCB95E9B8D9647BBF8186780.png" width="131.00" height="32.00" transform="matrix(1.00, 0.00, -0.00, -1.00, 6.0, 266.0)"></image><g><clipPath id="clip-932"><path d="M 1.0 396.8 L 889.0 396.8 L 889.0 2.0 L 1.0 2.0 Z M 1.0 396.8 "></path></clipPath><g clip-path="url(#clip-932)"><g><clipPath id="clip-933"><path d="M 2.0 228.0 L 136.9 228.0 L 136.9 283.3 L 2.0 283.3 Z M 2.0 228.0 "></path></clipPath><g clip-path="url(#clip-933)"><text xml:space="preserve" font-family="Chalkduster" font-size="16.0" fill="#FEFFFE" transform="matrix(1.00, 0.00, -0.00, -1.00, 10.4, 248.0)">m</text><text xml:space="preserve" font-family="Chalkduster" font-size="16.0" fill="#FEFFFE" transform="matrix(1.00, 0.00, -0.00, -1.00, 27.1, 248.0)">m</text><text xml:space="preserve" font-family="Chalkduster" font-size="16.0" fill="#FEFFFE" transform="matrix(1.00, 0.00, -0.00, -1.00, 43.3, 248.0)">2</text><text xml:space="preserve" font-family="Chalkduster" font-size="16.0" fill="#FEFFFE" transform="matrix(1.00, 0.00, -0.00, -1.00, 52.3, 248.0)">-</text><text xml:space="preserve" font-family="Chalkduster" font-size="16.0" fill="#FEFFFE" transform="matrix(1.00, 0.00, -0.00, -1.00, 62.0, 248.0)">e</text><text xml:space="preserve" font-family="Chalkduster" font-size="16.0" fill="#FEFFFE" transform="matrix(1.00, 0.00, -0.00, -1.00, 72.1, 248.0)">p</text><text xml:space="preserve" font-family="Chalkduster" font-size="16.0" fill="#FEFFFE" transform="matrix(1.00, 0.00, -0.00, -1.00, 82.2, 248.0)">o</text><text xml:space="preserve" font-family="Chalkduster" font-size="16.0" fill="#FEFFFE" transform="matrix(1.00, 0.00, -0.00, -1.00, 94.2, 248.0)">u</text><text xml:space="preserve" font-family="Chalkduster" font-size="16.0" fill="#FEFFFE" transform="matrix(1.00, 0.00, -0.00, -1.00, 105.0, 248.0)">t</text><text xml:space="preserve" font-family="Chalkduster" font-size="16.0" fill="#FEFFFE" transform="matrix(1.00, 0.00, -0.00, -1.00, 112.2, 248.0)">a</text><text xml:space="preserve" font-family="Chalkduster" font-size="16.0" fill="#FEFFFE" transform="matrix(1.00, 0.00, -0.00, -1.00, 123.2, 248.0)">1</text></g></g></g></g><image xlink:href="../../D55510CF-6CC6-4C3C-BC8C-B86DBACA13BB/assets/5CF07A188BC6F9A92C473C7CB6E206F3.png" width="18.00" height="23.00" transform="matrix(1.00, 0.00, -0.00, -1.00, 193.0, 265.0)"></image><g><clipPath id="clip-934"><path d="M 1.0 396.8 L 889.0 396.8 L 889.0 2.0 L 1.0 2.0 Z M 1.0 396.8 "></path></clipPath><g clip-path="url(#clip-934)"><g><clipPath id="clip-935"><path d="M 140.9 228.0 L 263.3 228.0 L 263.3 283.3 L 140.9 283.3 Z M 140.9 228.0 "></path></clipPath><g clip-path="url(#clip-935)"><text xml:space="preserve" font-family="Chalkduster" font-size="16.0" fill="#FEFFFE" transform="matrix(1.00, 0.00, -0.00, -1.00, 197.0, 248.0)">1</text></g></g></g></g><image xlink:href="../../D55510CF-6CC6-4C3C-BC8C-B86DBACA13BB/assets/0AC42A1088C98091ED1F4E6A1EB35E36.png" width="19.00" height="23.00" transform="matrix(1.00, 0.00, -0.00, -1.00, 317.0, 265.0)"></image><g><clipPath id="clip-936"><path d="M 1.0 396.8 L 889.0 396.8 L 889.0 2.0 L 1.0 2.0 Z M 1.0 396.8 "></path></clipPath><g clip-path="url(#clip-936)"><g><clipPath id="clip-937"><path d="M 264.3 228.0 L 388.3 228.0 L 388.3 283.3 L 264.3 283.3 Z M 264.3 228.0 "></path></clipPath><g clip-path="url(#clip-937)"><text xml:space="preserve" font-family="Chalkduster" font-size="16.0" fill="#FEFFFE" transform="matrix(1.00, 0.00, -0.00, -1.00, 322.0, 248.0)">2</text></g></g></g></g><image xlink:href="../../D55510CF-6CC6-4C3C-BC8C-B86DBACA13BB/assets/1736D47D1B2025C47B146D19CEF54500.png" width="21.00" height="23.00" transform="matrix(1.00, 0.00, -0.00, -1.00, 566.0, 265.0)"></image><g><clipPath id="clip-938"><path d="M 1.0 396.8 L 889.0 396.8 L 889.0 2.0 L 1.0 2.0 Z M 1.0 396.8 "></path></clipPath><g clip-path="url(#clip-938)"><g><clipPath id="clip-939"><path d="M 515.7 228.0 L 638.2 228.0 L 638.2 283.3 L 515.7 283.3 Z M 515.7 228.0 "></path></clipPath><g clip-path="url(#clip-939)"><text xml:space="preserve" font-family="Chalkduster" font-size="16.0" fill="#FEFFFE" transform="matrix(1.00, 0.00, -0.00, -1.00, 571.0, 248.0)">3</text></g></g></g></g><image xlink:href="../../D55510CF-6CC6-4C3C-BC8C-B86DBACA13BB/assets/7FE83E549578ECC1E2F7174516A4E17C.png" width="131.00" height="33.00" transform="matrix(1.00, 0.00, -0.00, -1.00, 6.0, 210.0)"></image><g><clipPath id="clip-940"><path d="M 1.0 396.8 L 889.0 396.8 L 889.0 2.0 L 1.0 2.0 Z M 1.0 396.8 "></path></clipPath><g clip-path="url(#clip-940)"><g><clipPath id="clip-941"><path d="M 2.0 171.8 L 136.9 171.8 L 136.9 227.0 L 2.0 227.0 Z M 2.0 171.8 "></path></clipPath><g clip-path="url(#clip-941)"><text xml:space="preserve" font-family="Chalkduster" font-size="16.0" fill="#FEFFFE" transform="matrix(1.00, 0.00, -0.00, -1.00, 10.4, 191.8)">m</text><text xml:space="preserve" font-family="Chalkduster" font-size="16.0" fill="#FEFFFE" transform="matrix(1.00, 0.00, -0.00, -1.00, 27.1, 191.8)">m</text><text xml:space="preserve" font-family="Chalkduster" font-size="16.0" fill="#FEFFFE" transform="matrix(1.00, 0.00, -0.00, -1.00, 43.3, 191.8)">1</text><text xml:space="preserve" font-family="Chalkduster" font-size="16.0" fill="#FEFFFE" transform="matrix(1.00, 0.00, -0.00, -1.00, 53.0, 191.8)">-</text><text xml:space="preserve" font-family="Chalkduster" font-size="16.0" fill="#FEFFFE" transform="matrix(1.00, 0.00, -0.00, -1.00, 62.6, 191.8)">e</text><text xml:space="preserve" font-family="Chalkduster" font-size="16.0" fill="#FEFFFE" transform="matrix(1.00, 0.00, -0.00, -1.00, 72.8, 191.8)">p</text><text xml:space="preserve" font-family="Chalkduster" font-size="16.0" fill="#FEFFFE" transform="matrix(1.00, 0.00, -0.00, -1.00, 82.9, 191.8)">o</text><text xml:space="preserve" font-family="Chalkduster" font-size="16.0" fill="#FEFFFE" transform="matrix(1.00, 0.00, -0.00, -1.00, 94.9, 191.8)">u</text><text xml:space="preserve" font-family="Chalkduster" font-size="16.0" fill="#FEFFFE" transform="matrix(1.00, 0.00, -0.00, -1.00, 105.7, 191.8)">t</text><text xml:space="preserve" font-family="Chalkduster" font-size="16.0" fill="#FEFFFE" transform="matrix(1.00, 0.00, -0.00, -1.00, 112.9, 191.8)">a</text><text xml:space="preserve" font-family="Chalkduster" font-size="16.0" fill="#FEFFFE" transform="matrix(1.00, 0.00, -0.00, -1.00, 123.9, 191.8)">2</text></g></g></g></g><image xlink:href="../../D55510CF-6CC6-4C3C-BC8C-B86DBACA13BB/assets/5CF07A188BC6F9A92C473C7CB6E206F3.png" width="18.00" height="23.00" transform="matrix(1.00, 0.00, -0.00, -1.00, 442.0, 209.0)"></image><g><clipPath id="clip-942"><path d="M 1.0 396.8 L 889.0 396.8 L 889.0 2.0 L 1.0 2.0 Z M 1.0 396.8 "></path></clipPath><g clip-path="url(#clip-942)"><g><clipPath id="clip-943"><path d="M 389.3 171.8 L 511.7 171.8 L 511.7 227.0 L 389.3 227.0 Z M 389.3 171.8 "></path></clipPath><g clip-path="url(#clip-943)"><text xml:space="preserve" font-family="Chalkduster" font-size="16.0" fill="#FEFFFE" transform="matrix(1.00, 0.00, -0.00, -1.00, 446.0, 192.0)">1</text></g></g></g></g><image xlink:href="../../D55510CF-6CC6-4C3C-BC8C-B86DBACA13BB/assets/0AC42A1088C98091ED1F4E6A1EB35E36.png" width="19.00" height="23.00" transform="matrix(1.00, 0.00, -0.00, -1.00, 692.0, 209.0)"></image><g><clipPath id="clip-944"><path d="M 1.0 396.8 L 889.0 396.8 L 889.0 2.0 L 1.0 2.0 Z M 1.0 396.8 "></path></clipPath><g clip-path="url(#clip-944)"><g><clipPath id="clip-945"><path d="M 639.2 171.8 L 763.1 171.8 L 763.1 227.0 L 639.2 227.0 Z M 639.2 171.8 "></path></clipPath><g clip-path="url(#clip-945)"><text xml:space="preserve" font-family="Chalkduster" font-size="16.0" fill="#FEFFFE" transform="matrix(1.00, 0.00, -0.00, -1.00, 697.0, 192.0)">2</text></g></g></g></g><image xlink:href="../../D55510CF-6CC6-4C3C-BC8C-B86DBACA13BB/assets/1736D47D1B2025C47B146D19CEF54500.png" width="21.00" height="23.00" transform="matrix(1.00, 0.00, -0.00, -1.00, 816.0, 209.0)"></image><g><clipPath id="clip-946"><path d="M 1.0 396.8 L 889.0 396.8 L 889.0 2.0 L 1.0 2.0 Z M 1.0 396.8 "></path></clipPath><g clip-path="url(#clip-946)"><g><clipPath id="clip-947"><path d="M 764.1 171.8 L 888.0 171.8 L 888.0 227.0 L 764.1 227.0 Z M 764.1 171.8 "></path></clipPath><g clip-path="url(#clip-947)"><text xml:space="preserve" font-family="Chalkduster" font-size="16.0" fill="#FEFFFE" transform="matrix(1.00, 0.00, -0.00, -1.00, 821.0, 192.0)">3</text></g></g></g></g><image xlink:href="../../D55510CF-6CC6-4C3C-BC8C-B86DBACA13BB/assets/45203BF612E8DAD1572F4771E555BEBF.png" width="70.00" height="33.00" transform="matrix(1.00, 0.00, -0.00, -1.00, 67.0, 154.0)"></image><g><clipPath id="clip-948"><path d="M 1.0 396.8 L 889.0 396.8 L 889.0 2.0 L 1.0 2.0 Z M 1.0 396.8 "></path></clipPath><g clip-path="url(#clip-948)"><g><clipPath id="clip-949"><path d="M 2.0 115.5 L 136.9 115.5 L 136.9 170.8 L 2.0 170.8 Z M 2.0 115.5 "></path></clipPath><g clip-path="url(#clip-949)"><text xml:space="preserve" font-family="Chalkduster" font-size="16.0" fill="#FEFFFE" transform="matrix(1.00, 0.00, -0.00, -1.00, 71.6, 135.5)">e</text><text xml:space="preserve" font-family="Chalkduster" font-size="16.0" fill="#FEFFFE" transform="matrix(1.00, 0.00, -0.00, -1.00, 81.8, 135.5)">p</text><text xml:space="preserve" font-family="Chalkduster" font-size="16.0" fill="#FEFFFE" transform="matrix(1.00, 0.00, -0.00, -1.00, 91.9, 135.5)">o</text><text xml:space="preserve" font-family="Chalkduster" font-size="16.0" fill="#FEFFFE" transform="matrix(1.00, 0.00, -0.00, -1.00, 103.9, 135.5)">u</text><text xml:space="preserve" font-family="Chalkduster" font-size="16.0" fill="#FEFFFE" transform="matrix(1.00, 0.00, -0.00, -1.00, 114.7, 135.5)">t</text><text xml:space="preserve" font-family="Chalkduster" font-size="16.0" fill="#FEFFFE" transform="matrix(1.00, 0.00, -0.00, -1.00, 121.9, 135.5)">a</text></g></g></g></g><image xlink:href="../../D55510CF-6CC6-4C3C-BC8C-B86DBACA13BB/assets/5CF07A188BC6F9A92C473C7CB6E206F3.png" width="18.00" height="23.00" transform="matrix(1.00, 0.00, -0.00, -1.00, 568.0, 153.0)"></image><g><clipPath id="clip-950"><path d="M 1.0 396.8 L 889.0 396.8 L 889.0 2.0 L 1.0 2.0 Z M 1.0 396.8 "></path></clipPath><g clip-path="url(#clip-950)"><g><clipPath id="clip-951"><path d="M 515.7 115.5 L 638.2 115.5 L 638.2 170.8 L 515.7 170.8 Z M 515.7 115.5 "></path></clipPath><g clip-path="url(#clip-951)"><text xml:space="preserve" font-family="Chalkduster" font-size="16.0" fill="#FEFFFE" transform="matrix(1.00, 0.00, -0.00, -1.00, 572.0, 136.0)">1</text></g></g></g></g><image xlink:href="../../D55510CF-6CC6-4C3C-BC8C-B86DBACA13BB/assets/0AC42A1088C98091ED1F4E6A1EB35E36.png" width="19.00" height="23.00" transform="matrix(1.00, 0.00, -0.00, -1.00, 692.0, 153.0)"></image><g><clipPath id="clip-952"><path d="M 1.0 396.8 L 889.0 396.8 L 889.0 2.0 L 1.0 2.0 Z M 1.0 396.8 "></path></clipPath><g clip-path="url(#clip-952)"><g><clipPath id="clip-953"><path d="M 639.2 115.5 L 763.1 115.5 L 763.1 170.8 L 639.2 170.8 Z M 639.2 115.5 "></path></clipPath><g clip-path="url(#clip-953)"><text xml:space="preserve" font-family="Chalkduster" font-size="16.0" fill="#FEFFFE" transform="matrix(1.00, 0.00, -0.00, -1.00, 697.0, 136.0)">2</text></g></g></g></g><image xlink:href="../../D55510CF-6CC6-4C3C-BC8C-B86DBACA13BB/assets/1736D47D1B2025C47B146D19CEF54500.png" width="21.00" height="23.00" transform="matrix(1.00, 0.00, -0.00, -1.00, 816.0, 153.0)"></image><g><clipPath id="clip-954"><path d="M 1.0 396.8 L 889.0 396.8 L 889.0 2.0 L 1.0 2.0 Z M 1.0 396.8 "></path></clipPath><g clip-path="url(#clip-954)"><g><clipPath id="clip-955"><path d="M 764.1 115.5 L 888.0 115.5 L 888.0 170.8 L 764.1 170.8 Z M 764.1 115.5 "></path></clipPath><g clip-path="url(#clip-955)"><text xml:space="preserve" font-family="Chalkduster" font-size="16.0" fill="#FEFFFE" transform="matrix(1.00, 0.00, -0.00, -1.00, 821.0, 136.0)">3</text></g></g></g></g><image xlink:href="../../D55510CF-6CC6-4C3C-BC8C-B86DBACA13BB/assets/971476931730C85B3742979DE8C50625.png" width="132.00" height="33.00" transform="matrix(1.00, 0.00, -0.00, -1.00, 5.0, 98.0)"></image><g><clipPath id="clip-956"><path d="M 1.0 396.8 L 889.0 396.8 L 889.0 2.0 L 1.0 2.0 Z M 1.0 396.8 "></path></clipPath><g clip-path="url(#clip-956)"><g><clipPath id="clip-957"><path d="M 2.0 59.2 L 136.9 59.2 L 136.9 114.5 L 2.0 114.5 Z M 2.0 59.2 "></path></clipPath><g clip-path="url(#clip-957)"><text xml:space="preserve" font-family="Chalkduster" font-size="16.0" fill="#FEFFFE" transform="matrix(1.00, 0.00, -0.00, -1.00, 10.4, 79.2)">e</text><text xml:space="preserve" font-family="Chalkduster" font-size="16.0" fill="#FEFFFE" transform="matrix(1.00, 0.00, -0.00, -1.00, 20.6, 79.2)">p</text><text xml:space="preserve" font-family="Chalkduster" font-size="16.0" fill="#FEFFFE" transform="matrix(1.00, 0.00, -0.00, -1.00, 30.7, 79.2)">o</text><text xml:space="preserve" font-family="Chalkduster" font-size="16.0" fill="#FEFFFE" transform="matrix(1.00, 0.00, -0.00, -1.00, 42.7, 79.2)">u</text><text xml:space="preserve" font-family="Chalkduster" font-size="16.0" fill="#FEFFFE" transform="matrix(1.00, 0.00, -0.00, -1.00, 53.5, 79.2)">t</text><text xml:space="preserve" font-family="Chalkduster" font-size="16.0" fill="#FEFFFE" transform="matrix(1.00, 0.00, -0.00, -1.00, 60.6, 79.2)">a</text><text xml:space="preserve" font-family="Chalkduster" font-size="16.0" fill="#FEFFFE" transform="matrix(1.00, 0.00, -0.00, -1.00, 71.7, 79.2)">1</text><text xml:space="preserve" font-family="Chalkduster" font-size="16.0" fill="#FEFFFE" transform="matrix(1.00, 0.00, -0.00, -1.00, 81.3, 79.2)">-</text><text xml:space="preserve" font-family="Chalkduster" font-size="16.0" fill="#FEFFFE" transform="matrix(1.00, 0.00, -0.00, -1.00, 91.0, 79.2)">m</text><text xml:space="preserve" font-family="Chalkduster" font-size="16.0" fill="#FEFFFE" transform="matrix(1.00, 0.00, -0.00, -1.00, 107.7, 79.2)">m</text><text xml:space="preserve" font-family="Chalkduster" font-size="16.0" fill="#FEFFFE" transform="matrix(1.00, 0.00, -0.00, -1.00, 123.9, 79.2)">2</text></g></g></g></g><image xlink:href="../../D55510CF-6CC6-4C3C-BC8C-B86DBACA13BB/assets/0AC42A1088C98091ED1F4E6A1EB35E36.png" width="19.00" height="23.00" transform="matrix(1.00, 0.00, -0.00, -1.00, 193.0, 96.0)"></image><g><clipPath id="clip-958"><path d="M 1.0 396.8 L 889.0 396.8 L 889.0 2.0 L 1.0 2.0 Z M 1.0 396.8 "></path></clipPath><g clip-path="url(#clip-958)"><g><clipPath id="clip-959"><path d="M 140.9 59.2 L 263.3 59.2 L 263.3 114.5 L 140.9 114.5 Z M 140.9 59.2 "></path></clipPath><g clip-path="url(#clip-959)"><text xml:space="preserve" font-family="Chalkduster" font-size="16.0" fill="#FEFFFE" transform="matrix(1.00, 0.00, -0.00, -1.00, 198.0, 79.0)">2</text></g></g></g></g><image xlink:href="../../D55510CF-6CC6-4C3C-BC8C-B86DBACA13BB/assets/1736D47D1B2025C47B146D19CEF54500.png" width="21.00" height="23.00" transform="matrix(1.00, 0.00, -0.00, -1.00, 316.0, 96.0)"></image><g><clipPath id="clip-960"><path d="M 1.0 396.8 L 889.0 396.8 L 889.0 2.0 L 1.0 2.0 Z M 1.0 396.8 "></path></clipPath><g clip-path="url(#clip-960)"><g><clipPath id="clip-961"><path d="M 264.3 59.2 L 388.3 59.2 L 388.3 114.5 L 264.3 114.5 Z M 264.3 59.2 "></path></clipPath><g clip-path="url(#clip-961)"><text xml:space="preserve" font-family="Chalkduster" font-size="16.0" fill="#FEFFFE" transform="matrix(1.00, 0.00, -0.00, -1.00, 321.0, 79.0)">3</text></g></g></g></g><image xlink:href="../../D55510CF-6CC6-4C3C-BC8C-B86DBACA13BB/assets/5CF07A188BC6F9A92C473C7CB6E206F3.png" width="18.00" height="23.00" transform="matrix(1.00, 0.00, -0.00, -1.00, 568.0, 96.0)"></image><g><clipPath id="clip-962"><path d="M 1.0 396.8 L 889.0 396.8 L 889.0 2.0 L 1.0 2.0 Z M 1.0 396.8 "></path></clipPath><g clip-path="url(#clip-962)"><g><clipPath id="clip-963"><path d="M 515.7 59.2 L 638.2 59.2 L 638.2 114.5 L 515.7 114.5 Z M 515.7 59.2 "></path></clipPath><g clip-path="url(#clip-963)"><text xml:space="preserve" font-family="Chalkduster" font-size="16.0" fill="#FEFFFE" transform="matrix(1.00, 0.00, -0.00, -1.00, 572.0, 79.0)">1</text></g></g></g></g><image xlink:href="../../D55510CF-6CC6-4C3C-BC8C-B86DBACA13BB/assets/A189D1D88C171D3520911B01DF2693D8.png" width="132.00" height="32.00" transform="matrix(1.00, 0.00, -0.00, -1.00, 5.0, 41.0)"></image><g><clipPath id="clip-964"><path d="M 1.0 396.8 L 889.0 396.8 L 889.0 2.0 L 1.0 2.0 Z M 1.0 396.8 "></path></clipPath><g clip-path="url(#clip-964)"><g><clipPath id="clip-965"><path d="M 2.0 3.0 L 136.9 3.0 L 136.9 58.2 L 2.0 58.2 Z M 2.0 3.0 "></path></clipPath><g clip-path="url(#clip-965)"><text xml:space="preserve" font-family="Chalkduster" font-size="16.0" fill="#FEFFFE" transform="matrix(1.00, 0.00, -0.00, -1.00, 10.4, 23.0)">e</text><text xml:space="preserve" font-family="Chalkduster" font-size="16.0" fill="#FEFFFE" transform="matrix(1.00, 0.00, -0.00, -1.00, 20.6, 23.0)">p</text><text xml:space="preserve" font-family="Chalkduster" font-size="16.0" fill="#FEFFFE" transform="matrix(1.00, 0.00, -0.00, -1.00, 30.7, 23.0)">o</text><text xml:space="preserve" font-family="Chalkduster" font-size="16.0" fill="#FEFFFE" transform="matrix(1.00, 0.00, -0.00, -1.00, 42.7, 23.0)">u</text><text xml:space="preserve" font-family="Chalkduster" font-size="16.0" fill="#FEFFFE" transform="matrix(1.00, 0.00, -0.00, -1.00, 53.5, 23.0)">t</text><text xml:space="preserve" font-family="Chalkduster" font-size="16.0" fill="#FEFFFE" transform="matrix(1.00, 0.00, -0.00, -1.00, 60.6, 23.0)">a</text><text xml:space="preserve" font-family="Chalkduster" font-size="16.0" fill="#FEFFFE" transform="matrix(1.00, 0.00, -0.00, -1.00, 71.7, 23.0)">2</text><text xml:space="preserve" font-family="Chalkduster" font-size="16.0" fill="#FEFFFE" transform="matrix(1.00, 0.00, -0.00, -1.00, 80.7, 23.0)">-</text><text xml:space="preserve" font-family="Chalkduster" font-size="16.0" fill="#FEFFFE" transform="matrix(1.00, 0.00, -0.00, -1.00, 90.4, 23.0)">m</text><text xml:space="preserve" font-family="Chalkduster" font-size="16.0" fill="#FEFFFE" transform="matrix(1.00, 0.00, -0.00, -1.00, 107.1, 23.0)">m</text><text xml:space="preserve" font-family="Chalkduster" font-size="16.0" fill="#FEFFFE" transform="matrix(1.00, 0.00, -0.00, -1.00, 123.3, 23.0)">1</text></g></g></g></g><image xlink:href="../../D55510CF-6CC6-4C3C-BC8C-B86DBACA13BB/assets/1736D47D1B2025C47B146D19CEF54500.png" width="21.00" height="23.00" transform="matrix(1.00, 0.00, -0.00, -1.00, 440.0, 40.0)"></image><g><clipPath id="clip-966"><path d="M 1.0 396.8 L 889.0 396.8 L 889.0 2.0 L 1.0 2.0 Z M 1.0 396.8 "></path></clipPath><g clip-path="url(#clip-966)"><g><clipPath id="clip-967"><path d="M 389.3 3.0 L 511.7 3.0 L 511.7 58.2 L 389.3 58.2 Z M 389.3 3.0 "></path></clipPath><g clip-path="url(#clip-967)"><text xml:space="preserve" font-family="Chalkduster" font-size="16.0" fill="#FEFFFE" transform="matrix(1.00, 0.00, -0.00, -1.00, 445.0, 23.0)">3</text></g></g></g></g><image xlink:href="../../D55510CF-6CC6-4C3C-BC8C-B86DBACA13BB/assets/5CF07A188BC6F9A92C473C7CB6E206F3.png" width="18.00" height="23.00" transform="matrix(1.00, 0.00, -0.00, -1.00, 692.0, 40.0)"></image><g><clipPath id="clip-968"><path d="M 1.0 396.8 L 889.0 396.8 L 889.0 2.0 L 1.0 2.0 Z M 1.0 396.8 "></path></clipPath><g clip-path="url(#clip-968)"><g><clipPath id="clip-969"><path d="M 639.2 3.0 L 763.1 3.0 L 763.1 58.2 L 639.2 58.2 Z M 639.2 3.0 "></path></clipPath><g clip-path="url(#clip-969)"><text xml:space="preserve" font-family="Chalkduster" font-size="16.0" fill="#FEFFFE" transform="matrix(1.00, 0.00, -0.00, -1.00, 696.0, 23.0)">1</text></g></g></g></g><image xlink:href="../../D55510CF-6CC6-4C3C-BC8C-B86DBACA13BB/assets/0AC42A1088C98091ED1F4E6A1EB35E36.png" width="19.00" height="23.00" transform="matrix(1.00, 0.00, -0.00, -1.00, 817.0, 40.0)"></image><g><clipPath id="clip-970"><path d="M 1.0 396.8 L 889.0 396.8 L 889.0 2.0 L 1.0 2.0 Z M 1.0 396.8 "></path></clipPath><g clip-path="url(#clip-970)"><g><clipPath id="clip-971"><path d="M 764.1 3.0 L 888.0 3.0 L 888.0 58.2 L 764.1 58.2 Z M 764.1 3.0 "></path></clipPath><g clip-path="url(#clip-971)"><text xml:space="preserve" font-family="Chalkduster" font-size="16.0" fill="#FEFFFE" transform="matrix(1.00, 0.00, -0.00, -1.00, 822.0, 23.0)">2</text></g></g></g></g><g><clipPath id="clip-972"><path d="M 1.0 396.8 L 889.0 396.8 L 889.0 2.0 L 1.0 2.0 Z M 1.0 396.8 "></path></clipPath><g clip-path="url(#clip-972)"><path d="M 264.4 1.5 L 264.4 58.3 " fill="none" stroke="#FEFFFE" stroke-opacity="0.50" stroke-width="1.00" transform="matrix(1.00, 0.00, 0.00, -1.00, -0.5, 398.3)"></path><path d="M 264.4 58.3 L 264.4 396.4 " fill="none" stroke="#FEFFFE" stroke-opacity="0.50" stroke-width="1.00" transform="matrix(1.00, 0.00, 0.00, -1.00, -0.5, 398.3)"></path><path d="M 389.3 1.5 L 389.3 58.3 " fill="none" stroke="#FEFFFE" stroke-opacity="0.50" stroke-width="1.00" transform="matrix(1.00, 0.00, 0.00, -1.00, -0.5, 398.3)"></path><path d="M 389.3 58.3 L 389.3 396.4 " fill="none" stroke="#FEFFFE" stroke-opacity="0.50" stroke-width="1.00" transform="matrix(1.00, 0.00, 0.00, -1.00, -0.5, 398.3)"></path><path d="M 514.3 1.5 L 514.3 396.4 " fill="none" stroke="#FEFFFE" stroke-opacity="0.50" stroke-width="4.00" transform="matrix(1.00, 0.00, 0.00, -1.00, -0.5, 398.3)"></path><path d="M 639.2 1.5 L 639.2 58.3 " fill="none" stroke="#FEFFFE" stroke-opacity="0.50" stroke-width="1.00" transform="matrix(1.00, 0.00, 0.00, -1.00, -0.5, 398.3)"></path><path d="M 639.2 58.3 L 639.2 396.4 " fill="none" stroke="#FEFFFE" stroke-opacity="0.50" stroke-width="1.00" transform="matrix(1.00, 0.00, 0.00, -1.00, -0.5, 398.3)"></path><path d="M 764.1 1.5 L 764.1 58.3 " fill="none" stroke="#FEFFFE" stroke-opacity="0.50" stroke-width="1.00" transform="matrix(1.00, 0.00, 0.00, -1.00, -0.5, 398.3)"></path><path d="M 764.1 58.3 L 764.1 396.4 " fill="none" stroke="#FEFFFE" stroke-opacity="0.50" stroke-width="1.00" transform="matrix(1.00, 0.00, 0.00, -1.00, -0.5, 398.3)"></path><path d="M 1.5 114.5 L 139.4 114.5 " fill="none" stroke="#FEFFFE" stroke-opacity="0.50" stroke-width="1.00" transform="matrix(1.00, 0.00, 0.00, -1.00, -0.5, 398.3)"></path><path d="M 139.4 114.5 L 889.6 114.5 " fill="none" stroke="#FEFFFE" stroke-opacity="0.50" stroke-width="1.00" transform="matrix(1.00, 0.00, 0.00, -1.00, -0.5, 398.3)"></path><path d="M 1.5 170.8 L 139.4 170.8 " fill="none" stroke="#FEFFFE" stroke-opacity="0.50" stroke-width="1.00" transform="matrix(1.00, 0.00, 0.00, -1.00, -0.5, 398.3)"></path><path d="M 139.4 170.8 L 889.6 170.8 " fill="none" stroke="#FEFFFE" stroke-opacity="0.50" stroke-width="1.00" transform="matrix(1.00, 0.00, 0.00, -1.00, -0.5, 398.3)"></path><path d="M 1.5 227.1 L 139.4 227.1 " fill="none" stroke="#FEFFFE" stroke-opacity="0.50" stroke-width="1.00" transform="matrix(1.00, 0.00, 0.00, -1.00, -0.5, 398.3)"></path><path d="M 139.4 227.1 L 889.6 227.1 " fill="none" stroke="#FEFFFE" stroke-opacity="0.50" stroke-width="1.00" transform="matrix(1.00, 0.00, 0.00, -1.00, -0.5, 398.3)"></path><path d="M 1.5 283.3 L 139.4 283.3 " fill="none" stroke="#FEFFFE" stroke-opacity="0.50" stroke-width="1.00" transform="matrix(1.00, 0.00, 0.00, -1.00, -0.5, 398.3)"></path><path d="M 139.4 283.3 L 889.6 283.3 " fill="none" stroke="#FEFFFE" stroke-opacity="0.50" stroke-width="1.00" transform="matrix(1.00, 0.00, 0.00, -1.00, -0.5, 398.3)"></path><path d="M 1.5 339.6 L 139.4 339.6 " fill="none" stroke="#FEFFFE" stroke-opacity="0.50" stroke-width="1.00" transform="matrix(1.00, 0.00, 0.00, -1.00, -0.5, 398.3)"></path><path d="M 139.4 339.6 L 889.6 339.6 " fill="none" stroke="#FEFFFE" stroke-opacity="0.50" stroke-width="1.00" transform="matrix(1.00, 0.00, 0.00, -1.00, -0.5, 398.3)"></path><path d="M 139.4 1.5 L 139.4 396.4 " fill="none" stroke="#FEFFFE" stroke-opacity="0.50" stroke-width="4.00" transform="matrix(1.00, 0.00, 0.00, -1.00, -0.5, 398.3)"></path><path d="M 1.5 58.3 L 889.6 58.3 " fill="none" stroke="#FEFFFE" stroke-opacity="0.50" stroke-width="1.00" transform="matrix(1.00, 0.00, 0.00, -1.00, -0.5, 398.3)"></path><path d="M 2.0 1.5 L 2.0 58.3 " fill="none" stroke="#FEFFFE" stroke-opacity="0.50" stroke-width="1.00" transform="matrix(1.00, 0.00, 0.00, -1.00, -0.5, 398.3)"></path><path d="M 2.0 58.3 L 2.0 396.4 " fill="none" stroke="#FEFFFE" stroke-opacity="0.50" stroke-width="1.00" transform="matrix(1.00, 0.00, 0.00, -1.00, -0.5, 398.3)"></path><path d="M 889.1 1.5 L 889.1 58.3 " fill="none" stroke="#FEFFFE" stroke-opacity="0.50" stroke-width="1.00" transform="matrix(1.00, 0.00, 0.00, -1.00, -0.5, 398.3)"></path><path d="M 889.1 58.3 L 889.1 396.4 " fill="none" stroke="#FEFFFE" stroke-opacity="0.50" stroke-width="1.00" transform="matrix(1.00, 0.00, 0.00, -1.00, -0.5, 398.3)"></path><path d="M 1.5 2.0 L 889.6 2.0 " fill="none" stroke="#FEFFFE" stroke-opacity="0.50" stroke-width="1.00" transform="matrix(1.00, 0.00, 0.00, -1.00, -0.5, 398.3)"></path><path d="M 1.5 395.9 L 139.4 395.9 " fill="none" stroke="#FEFFFE" stroke-opacity="0.50" stroke-width="1.00" transform="matrix(1.00, 0.00, 0.00, -1.00, -0.5, 398.3)"></path><path d="M 139.4 395.9 L 889.6 395.9 " fill="none" stroke="#FEFFFE" stroke-opacity="0.50" stroke-width="1.00" transform="matrix(1.00, 0.00, 0.00, -1.00, -0.5, 398.3)"></path></g></g></g></svg>