<?xml version="1.0" encoding="UTF-8" standalone="no"?><svg xmlns="http://www.w3.org/2000/svg" xmlns:xlink="http://www.w3.org/1999/xlink" clip-rule="evenodd" stroke-miterlimit="4.00" viewBox="0 0 875 397"><desc>SVG generated by Keynote</desc><defs></defs><g transform="matrix(1.00, 0.00, -0.00, -1.00, 0.0, 397.0)"><g><clipPath id="clip-1036"><path d="M 1.1 395.4 L 874.9 395.4 L 874.9 0.6 L 1.1 0.6 Z M 1.1 395.4 "></path></clipPath><g clip-path="url(#clip-1036)"><path d="M 1.6 394.9 L 154.5 394.9 L 154.5 338.7 L 1.6 338.7 Z M 1.6 394.9 " fill="#869ABB"></path><path d="M 154.5 394.9 L 514.5 394.9 L 514.5 338.7 L 154.5 338.7 Z M 154.5 394.9 " fill="#869ABB"></path><path d="M 514.5 394.9 L 874.4 394.9 L 874.4 338.7 L 514.5 338.7 Z M 514.5 394.9 " fill="#869ABB"></path><path d="M 1.6 338.7 L 154.5 338.7 L 154.5 282.4 L 1.6 282.4 Z M 1.6 338.7 " fill="#869ABB"></path><path d="M 1.6 282.4 L 154.5 282.4 L 154.5 226.1 L 1.6 226.1 Z M 1.6 282.4 " fill="#869ABB"></path><path d="M 154.5 282.4 L 514.5 282.4 L 514.5 226.1 L 154.5 226.1 Z M 154.5 282.4 " fill="#000000" fill-opacity="0.25"></path><path d="M 514.5 282.4 L 874.4 282.4 L 874.4 226.1 L 514.5 226.1 Z M 514.5 282.4 " fill="#000000" fill-opacity="0.25"></path><path d="M 1.6 226.1 L 154.5 226.1 L 154.5 169.9 L 1.6 169.9 Z M 1.6 226.1 " fill="#869ABB"></path><path d="M 1.6 169.9 L 154.5 169.9 L 154.5 113.6 L 1.6 113.6 Z M 1.6 169.9 " fill="#869ABB"></path><path d="M 154.5 169.9 L 514.5 169.9 L 514.5 113.6 L 154.5 113.6 Z M 154.5 169.9 " fill="#000000" fill-opacity="0.25"></path><path d="M 514.5 169.9 L 874.4 169.9 L 874.4 113.6 L 514.5 113.6 Z M 514.5 169.9 " fill="#000000" fill-opacity="0.25"></path><path d="M 1.6 113.6 L 154.5 113.6 L 154.5 57.3 L 1.6 57.3 Z M 1.6 113.6 " fill="#869ABB"></path><path d="M 1.6 57.3 L 154.5 57.3 L 154.5 1.1 L 1.6 1.1 Z M 1.6 57.3 " fill="#869ABB"></path><path d="M 154.5 57.3 L 514.5 57.3 L 514.5 1.1 L 154.5 1.1 Z M 154.5 57.3 " fill="#000000" fill-opacity="0.25"></path><path d="M 514.5 57.3 L 874.4 57.3 L 874.4 1.1 L 514.5 1.1 Z M 514.5 57.3 " fill="#000000" fill-opacity="0.25"></path></g></g><image xlink:href="../../5BF47851-6364-4600-99AF-A85938226DCD/assets/6D6C7DDDA31C5138E74FBE29585754B5.png" width="49.00" height="25.00" transform="matrix(1.00, 0.00, -0.00, -1.00, 310.0, 377.0)"></image><g><clipPath id="clip-1037"><path d="M 1.1 395.4 L 874.9 395.4 L 874.9 0.6 L 1.1 0.6 Z M 1.1 395.4 "></path></clipPath><g clip-path="url(#clip-1037)"><g><clipPath id="clip-1038"><path d="M 155.0 339.2 L 514.0 339.2 L 514.0 394.4 L 155.0 394.4 Z M 155.0 339.2 "></path></clipPath><g clip-path="url(#clip-1038)"><text xml:space="preserve" font-family="Chalkduster" font-size="16.0" fill="#FEFFFE" transform="matrix(1.00, 0.00, -0.00, -1.00, 315.0, 359.0)">C</text><text xml:space="preserve" font-family="Chalkduster" font-size="16.0" fill="#FEFFFE" transform="matrix(1.00, 0.00, -0.00, -1.00, 328.0, 359.0)">A</text><text xml:space="preserve" font-family="Chalkduster" font-size="16.0" fill="#FEFFFE" transform="matrix(1.00, 0.00, -0.00, -1.00, 339.3, 359.0)">W</text></g></g></g></g><image xlink:href="../../5BF47851-6364-4600-99AF-A85938226DCD/assets/AF43EC61B632467D85B3DA3A81D4E388.png" width="50.00" height="25.00" transform="matrix(1.00, 0.00, -0.00, -1.00, 669.0, 377.0)"></image><g><clipPath id="clip-1039"><path d="M 1.1 395.4 L 874.9 395.4 L 874.9 0.6 L 1.1 0.6 Z M 1.1 395.4 "></path></clipPath><g clip-path="url(#clip-1039)"><g><clipPath id="clip-1040"><path d="M 515.0 339.2 L 873.9 339.2 L 873.9 394.4 L 515.0 394.4 Z M 515.0 339.2 "></path></clipPath><g clip-path="url(#clip-1040)"><text xml:space="preserve" font-family="Chalkduster" font-size="16.0" fill="#FEFFFE" transform="matrix(1.00, 0.00, -0.00, -1.00, 674.0, 359.0)">W</text><text xml:space="preserve" font-family="Chalkduster" font-size="16.0" fill="#FEFFFE" transform="matrix(1.00, 0.00, -0.00, -1.00, 688.5, 359.0)">G</text><text xml:space="preserve" font-family="Chalkduster" font-size="16.0" fill="#FEFFFE" transform="matrix(1.00, 0.00, -0.00, -1.00, 706.3, 359.0)">S</text></g></g></g></g><image xlink:href="../../5BF47851-6364-4600-99AF-A85938226DCD/assets/90906C651ED57DA2891DA0839C641433.png" width="43.00" height="20.00" transform="matrix(1.00, 0.00, -0.00, -1.00, 112.0, 317.0)"></image><g><clipPath id="clip-1041"><path d="M 1.1 395.4 L 874.9 395.4 L 874.9 0.6 L 1.1 0.6 Z M 1.1 395.4 "></path></clipPath><g clip-path="url(#clip-1041)"><g><clipPath id="clip-1042"><path d="M 2.1 282.9 L 154.0 282.9 L 154.0 338.2 L 2.1 338.2 Z M 2.1 282.9 "></path></clipPath><g clip-path="url(#clip-1042)"><text xml:space="preserve" font-family="Chalkduster" font-size="16.0" fill="#FEFFFE" transform="matrix(1.00, 0.00, -0.00, -1.00, 117.1, 302.9)">m</text><text xml:space="preserve" font-family="Chalkduster" font-size="16.0" fill="#FEFFFE" transform="matrix(1.00, 0.00, -0.00, -1.00, 133.8, 302.9)">m</text></g></g></g></g><image xlink:href="../../5BF47851-6364-4600-99AF-A85938226DCD/assets/0050236E8C6EB2F8CE66BC495ACE7C97.png" width="77.00" height="23.00" transform="matrix(1.00, 0.00, -0.00, -1.00, 296.0, 322.0)"></image><g><clipPath id="clip-1043"><path d="M 1.1 395.4 L 874.9 395.4 L 874.9 0.6 L 1.1 0.6 Z M 1.1 395.4 "></path></clipPath><g clip-path="url(#clip-1043)"><g><clipPath id="clip-1044"><path d="M 155.0 282.9 L 514.0 282.9 L 514.0 338.2 L 155.0 338.2 Z M 155.0 282.9 "></path></clipPath><g clip-path="url(#clip-1044)"><text xml:space="preserve" font-family="AmericanTypewriter" font-size="16.0" fill="#FEFFFE" transform="matrix(1.00, 0.00, -0.00, -1.00, 301.0, 305.0)">2</text><text xml:space="preserve" font-family="AmericanTypewriter" font-size="16.0" fill="#FEFFFE" transform="matrix(1.00, 0.00, -0.00, -1.00, 311.2, 305.0)">3</text><text xml:space="preserve" font-family="AmericanTypewriter" font-size="16.0" fill="#FEFFFE" transform="matrix(1.00, 0.00, -0.00, -1.00, 321.4, 305.0)">m</text><text xml:space="preserve" font-family="AmericanTypewriter" font-size="16.0" fill="#FEFFFE" transform="matrix(1.00, 0.00, -0.00, -1.00, 336.2, 305.0)"> </text><text xml:space="preserve" font-family="AmericanTypewriter" font-size="16.0" fill="#FEFFFE" transform="matrix(1.00, 0.00, -0.00, -1.00, 340.2, 305.0)">5</text><text xml:space="preserve" font-family="AmericanTypewriter" font-size="16.0" fill="#FEFFFE" transform="matrix(1.00, 0.00, -0.00, -1.00, 350.4, 305.0)">8</text><text xml:space="preserve" font-family="AmericanTypewriter" font-size="16.0" fill="#FEFFFE" transform="matrix(1.00, 0.00, -0.00, -1.00, 360.6, 305.0)">s</text></g></g></g></g><image xlink:href="../../5BF47851-6364-4600-99AF-A85938226DCD/assets/329205771C8640CDCA5624B9240B15A8.png" width="67.00" height="23.00" transform="matrix(1.00, 0.00, -0.00, -1.00, 661.0, 322.0)"></image><g><clipPath id="clip-1045"><path d="M 1.1 395.4 L 874.9 395.4 L 874.9 0.6 L 1.1 0.6 Z M 1.1 395.4 "></path></clipPath><g clip-path="url(#clip-1045)"><g><clipPath id="clip-1046"><path d="M 515.0 282.9 L 873.9 282.9 L 873.9 338.2 L 515.0 338.2 Z M 515.0 282.9 "></path></clipPath><g clip-path="url(#clip-1046)"><text xml:space="preserve" font-family="AmericanTypewriter" font-size="16.0" fill="#FEFFFE" transform="matrix(1.00, 0.00, -0.00, -1.00, 666.0, 305.0)">8</text><text xml:space="preserve" font-family="AmericanTypewriter" font-size="16.0" fill="#FEFFFE" transform="matrix(1.00, 0.00, -0.00, -1.00, 676.2, 305.0)">m</text><text xml:space="preserve" font-family="AmericanTypewriter" font-size="16.0" fill="#FEFFFE" transform="matrix(1.00, 0.00, -0.00, -1.00, 691.0, 305.0)"> </text><text xml:space="preserve" font-family="AmericanTypewriter" font-size="16.0" fill="#FEFFFE" transform="matrix(1.00, 0.00, -0.00, -1.00, 695.0, 305.0)">4</text><text xml:space="preserve" font-family="AmericanTypewriter" font-size="16.0" fill="#FEFFFE" transform="matrix(1.00, 0.00, -0.00, -1.00, 705.2, 305.0)">0</text><text xml:space="preserve" font-family="AmericanTypewriter" font-size="16.0" fill="#FEFFFE" transform="matrix(1.00, 0.00, -0.00, -1.00, 715.4, 305.0)">s</text></g></g></g></g><image xlink:href="../../5BF47851-6364-4600-99AF-A85938226DCD/assets/792A134D9DC6D906D1B7306A5B2AEF99.png" width="131.00" height="33.00" transform="matrix(1.00, 0.00, -0.00, -1.00, 23.0, 265.0)"></image><g><clipPath id="clip-1047"><path d="M 1.1 395.4 L 874.9 395.4 L 874.9 0.6 L 1.1 0.6 Z M 1.1 395.4 "></path></clipPath><g clip-path="url(#clip-1047)"><g><clipPath id="clip-1048"><path d="M 2.1 226.6 L 154.0 226.6 L 154.0 281.9 L 2.1 281.9 Z M 2.1 226.6 "></path></clipPath><g clip-path="url(#clip-1048)"><text xml:space="preserve" font-family="Chalkduster" font-size="16.0" fill="#FEFFFE" transform="matrix(1.00, 0.00, -0.00, -1.00, 27.5, 246.6)">m</text><text xml:space="preserve" font-family="Chalkduster" font-size="16.0" fill="#FEFFFE" transform="matrix(1.00, 0.00, -0.00, -1.00, 44.2, 246.6)">m</text><text xml:space="preserve" font-family="Chalkduster" font-size="16.0" fill="#FEFFFE" transform="matrix(1.00, 0.00, -0.00, -1.00, 60.4, 246.6)">2</text><text xml:space="preserve" font-family="Chalkduster" font-size="16.0" fill="#FEFFFE" transform="matrix(1.00, 0.00, -0.00, -1.00, 69.4, 246.6)">-</text><text xml:space="preserve" font-family="Chalkduster" font-size="16.0" fill="#FEFFFE" transform="matrix(1.00, 0.00, -0.00, -1.00, 79.1, 246.6)">e</text><text xml:space="preserve" font-family="Chalkduster" font-size="16.0" fill="#FEFFFE" transform="matrix(1.00, 0.00, -0.00, -1.00, 89.3, 246.6)">p</text><text xml:space="preserve" font-family="Chalkduster" font-size="16.0" fill="#FEFFFE" transform="matrix(1.00, 0.00, -0.00, -1.00, 99.3, 246.6)">o</text><text xml:space="preserve" font-family="Chalkduster" font-size="16.0" fill="#FEFFFE" transform="matrix(1.00, 0.00, -0.00, -1.00, 111.3, 246.6)">u</text><text xml:space="preserve" font-family="Chalkduster" font-size="16.0" fill="#FEFFFE" transform="matrix(1.00, 0.00, -0.00, -1.00, 122.2, 246.6)">t</text><text xml:space="preserve" font-family="Chalkduster" font-size="16.0" fill="#FEFFFE" transform="matrix(1.00, 0.00, -0.00, -1.00, 129.3, 246.6)">a</text><text xml:space="preserve" font-family="Chalkduster" font-size="16.0" fill="#FEFFFE" transform="matrix(1.00, 0.00, -0.00, -1.00, 140.3, 246.6)">1</text></g></g></g></g><image xlink:href="../../5BF47851-6364-4600-99AF-A85938226DCD/assets/340DD5C31246219AC75CBABBC8B1F9AD.png" width="77.00" height="23.00" transform="matrix(1.00, 0.00, -0.00, -1.00, 296.0, 266.0)"></image><g><clipPath id="clip-1049"><path d="M 1.1 395.4 L 874.9 395.4 L 874.9 0.6 L 1.1 0.6 Z M 1.1 395.4 "></path></clipPath><g clip-path="url(#clip-1049)"><g><clipPath id="clip-1050"><path d="M 155.0 226.6 L 514.0 226.6 L 514.0 281.9 L 155.0 281.9 Z M 155.0 226.6 "></path></clipPath><g clip-path="url(#clip-1050)"><text xml:space="preserve" font-family="AmericanTypewriter" font-size="16.0" fill="#FEFFFE" transform="matrix(1.00, 0.00, -0.00, -1.00, 301.0, 249.0)">2</text><text xml:space="preserve" font-family="AmericanTypewriter" font-size="16.0" fill="#FEFFFE" transform="matrix(1.00, 0.00, -0.00, -1.00, 311.2, 249.0)">3</text><text xml:space="preserve" font-family="AmericanTypewriter" font-size="16.0" fill="#FEFFFE" transform="matrix(1.00, 0.00, -0.00, -1.00, 321.4, 249.0)">m</text><text xml:space="preserve" font-family="AmericanTypewriter" font-size="16.0" fill="#FEFFFE" transform="matrix(1.00, 0.00, -0.00, -1.00, 336.2, 249.0)"> </text><text xml:space="preserve" font-family="AmericanTypewriter" font-size="16.0" fill="#FEFFFE" transform="matrix(1.00, 0.00, -0.00, -1.00, 340.2, 249.0)">2</text><text xml:space="preserve" font-family="AmericanTypewriter" font-size="16.0" fill="#FEFFFE" transform="matrix(1.00, 0.00, -0.00, -1.00, 350.4, 249.0)">7</text><text xml:space="preserve" font-family="AmericanTypewriter" font-size="16.0" fill="#FEFFFE" transform="matrix(1.00, 0.00, -0.00, -1.00, 360.6, 249.0)">s</text></g></g></g></g><image xlink:href="../../5BF47851-6364-4600-99AF-A85938226DCD/assets/715956A311CB86CDA5D09136897DB150.png" width="67.00" height="23.00" transform="matrix(1.00, 0.00, -0.00, -1.00, 661.0, 266.0)"></image><g><clipPath id="clip-1051"><path d="M 1.1 395.4 L 874.9 395.4 L 874.9 0.6 L 1.1 0.6 Z M 1.1 395.4 "></path></clipPath><g clip-path="url(#clip-1051)"><g><clipPath id="clip-1052"><path d="M 515.0 226.6 L 873.9 226.6 L 873.9 281.9 L 515.0 281.9 Z M 515.0 226.6 "></path></clipPath><g clip-path="url(#clip-1052)"><text xml:space="preserve" font-family="AmericanTypewriter" font-size="16.0" fill="#FEFFFE" transform="matrix(1.00, 0.00, -0.00, -1.00, 666.0, 249.0)">9</text><text xml:space="preserve" font-family="AmericanTypewriter" font-size="16.0" fill="#FEFFFE" transform="matrix(1.00, 0.00, -0.00, -1.00, 676.2, 249.0)">m</text><text xml:space="preserve" font-family="AmericanTypewriter" font-size="16.0" fill="#FEFFFE" transform="matrix(1.00, 0.00, -0.00, -1.00, 691.0, 249.0)"> </text><text xml:space="preserve" font-family="AmericanTypewriter" font-size="16.0" fill="#FEFFFE" transform="matrix(1.00, 0.00, -0.00, -1.00, 695.0, 249.0)">4</text><text xml:space="preserve" font-family="AmericanTypewriter" font-size="16.0" fill="#FEFFFE" transform="matrix(1.00, 0.00, -0.00, -1.00, 705.2, 249.0)">3</text><text xml:space="preserve" font-family="AmericanTypewriter" font-size="16.0" fill="#FEFFFE" transform="matrix(1.00, 0.00, -0.00, -1.00, 715.4, 249.0)">s</text></g></g></g></g><image xlink:href="../../5BF47851-6364-4600-99AF-A85938226DCD/assets/CD5C2E31156D562A9F026F497D29C062.png" width="132.00" height="33.00" transform="matrix(1.00, 0.00, -0.00, -1.00, 23.0, 209.0)"></image><g><clipPath id="clip-1053"><path d="M 1.1 395.4 L 874.9 395.4 L 874.9 0.6 L 1.1 0.6 Z M 1.1 395.4 "></path></clipPath><g clip-path="url(#clip-1053)"><g><clipPath id="clip-1054"><path d="M 2.1 170.4 L 154.0 170.4 L 154.0 225.6 L 2.1 225.6 Z M 2.1 170.4 "></path></clipPath><g clip-path="url(#clip-1054)"><text xml:space="preserve" font-family="Chalkduster" font-size="16.0" fill="#FEFFFE" transform="matrix(1.00, 0.00, -0.00, -1.00, 27.5, 190.4)">m</text><text xml:space="preserve" font-family="Chalkduster" font-size="16.0" fill="#FEFFFE" transform="matrix(1.00, 0.00, -0.00, -1.00, 44.2, 190.4)">m</text><text xml:space="preserve" font-family="Chalkduster" font-size="16.0" fill="#FEFFFE" transform="matrix(1.00, 0.00, -0.00, -1.00, 60.4, 190.4)">1</text><text xml:space="preserve" font-family="Chalkduster" font-size="16.0" fill="#FEFFFE" transform="matrix(1.00, 0.00, -0.00, -1.00, 70.1, 190.4)">-</text><text xml:space="preserve" font-family="Chalkduster" font-size="16.0" fill="#FEFFFE" transform="matrix(1.00, 0.00, -0.00, -1.00, 79.8, 190.4)">e</text><text xml:space="preserve" font-family="Chalkduster" font-size="16.0" fill="#FEFFFE" transform="matrix(1.00, 0.00, -0.00, -1.00, 89.9, 190.4)">p</text><text xml:space="preserve" font-family="Chalkduster" font-size="16.0" fill="#FEFFFE" transform="matrix(1.00, 0.00, -0.00, -1.00, 100.0, 190.4)">o</text><text xml:space="preserve" font-family="Chalkduster" font-size="16.0" fill="#FEFFFE" transform="matrix(1.00, 0.00, -0.00, -1.00, 112.0, 190.4)">u</text><text xml:space="preserve" font-family="Chalkduster" font-size="16.0" fill="#FEFFFE" transform="matrix(1.00, 0.00, -0.00, -1.00, 122.8, 190.4)">t</text><text xml:space="preserve" font-family="Chalkduster" font-size="16.0" fill="#FEFFFE" transform="matrix(1.00, 0.00, -0.00, -1.00, 130.0, 190.4)">a</text><text xml:space="preserve" font-family="Chalkduster" font-size="16.0" fill="#FEFFFE" transform="matrix(1.00, 0.00, -0.00, -1.00, 141.0, 190.4)">2</text></g></g></g></g><image xlink:href="../../5BF47851-6364-4600-99AF-A85938226DCD/assets/5B27A5A8B4B2782F232E5D364CEF13A2.png" width="77.00" height="23.00" transform="matrix(1.00, 0.00, -0.00, -1.00, 296.0, 210.0)"></image><g><clipPath id="clip-1055"><path d="M 1.1 395.4 L 874.9 395.4 L 874.9 0.6 L 1.1 0.6 Z M 1.1 395.4 "></path></clipPath><g clip-path="url(#clip-1055)"><g><clipPath id="clip-1056"><path d="M 155.0 170.4 L 514.0 170.4 L 514.0 225.6 L 155.0 225.6 Z M 155.0 170.4 "></path></clipPath><g clip-path="url(#clip-1056)"><text xml:space="preserve" font-family="AmericanTypewriter" font-size="16.0" fill="#FEFFFE" transform="matrix(1.00, 0.00, -0.00, -1.00, 301.0, 193.0)">2</text><text xml:space="preserve" font-family="AmericanTypewriter" font-size="16.0" fill="#FEFFFE" transform="matrix(1.00, 0.00, -0.00, -1.00, 311.2, 193.0)">2</text><text xml:space="preserve" font-family="AmericanTypewriter" font-size="16.0" fill="#FEFFFE" transform="matrix(1.00, 0.00, -0.00, -1.00, 321.4, 193.0)">m</text><text xml:space="preserve" font-family="AmericanTypewriter" font-size="16.0" fill="#FEFFFE" transform="matrix(1.00, 0.00, -0.00, -1.00, 336.2, 193.0)"> </text><text xml:space="preserve" font-family="AmericanTypewriter" font-size="16.0" fill="#FEFFFE" transform="matrix(1.00, 0.00, -0.00, -1.00, 340.2, 193.0)">5</text><text xml:space="preserve" font-family="AmericanTypewriter" font-size="16.0" fill="#FEFFFE" transform="matrix(1.00, 0.00, -0.00, -1.00, 350.4, 193.0)">5</text><text xml:space="preserve" font-family="AmericanTypewriter" font-size="16.0" fill="#FEFFFE" transform="matrix(1.00, 0.00, -0.00, -1.00, 360.6, 193.0)">s</text></g></g></g></g><image xlink:href="../../5BF47851-6364-4600-99AF-A85938226DCD/assets/1026C4DBB3AD9453315AD2C6101AF2A0.png" width="67.00" height="23.00" transform="matrix(1.00, 0.00, -0.00, -1.00, 661.0, 210.0)"></image><g><clipPath id="clip-1057"><path d="M 1.1 395.4 L 874.9 395.4 L 874.9 0.6 L 1.1 0.6 Z M 1.1 395.4 "></path></clipPath><g clip-path="url(#clip-1057)"><g><clipPath id="clip-1058"><path d="M 515.0 170.4 L 873.9 170.4 L 873.9 225.6 L 515.0 225.6 Z M 515.0 170.4 "></path></clipPath><g clip-path="url(#clip-1058)"><text xml:space="preserve" font-family="AmericanTypewriter" font-size="16.0" fill="#FEFFFE" transform="matrix(1.00, 0.00, -0.00, -1.00, 666.0, 193.0)">9</text><text xml:space="preserve" font-family="AmericanTypewriter" font-size="16.0" fill="#FEFFFE" transform="matrix(1.00, 0.00, -0.00, -1.00, 676.2, 193.0)">m</text><text xml:space="preserve" font-family="AmericanTypewriter" font-size="16.0" fill="#FEFFFE" transform="matrix(1.00, 0.00, -0.00, -1.00, 691.0, 193.0)"> </text><text xml:space="preserve" font-family="AmericanTypewriter" font-size="16.0" fill="#FEFFFE" transform="matrix(1.00, 0.00, -0.00, -1.00, 695.0, 193.0)">4</text><text xml:space="preserve" font-family="AmericanTypewriter" font-size="16.0" fill="#FEFFFE" transform="matrix(1.00, 0.00, -0.00, -1.00, 705.2, 193.0)">2</text><text xml:space="preserve" font-family="AmericanTypewriter" font-size="16.0" fill="#FEFFFE" transform="matrix(1.00, 0.00, -0.00, -1.00, 715.4, 193.0)">s</text></g></g></g></g><image xlink:href="../../5BF47851-6364-4600-99AF-A85938226DCD/assets/4D24C51E73C6FD4B6F9C69E5DB06BB63.png" width="71.00" height="32.00" transform="matrix(1.00, 0.00, -0.00, -1.00, 84.0, 152.0)"></image><g><clipPath id="clip-1059"><path d="M 1.1 395.4 L 874.9 395.4 L 874.9 0.6 L 1.1 0.6 Z M 1.1 395.4 "></path></clipPath><g clip-path="url(#clip-1059)"><g><clipPath id="clip-1060"><path d="M 2.1 114.1 L 154.0 114.1 L 154.0 169.4 L 2.1 169.4 Z M 2.1 114.1 "></path></clipPath><g clip-path="url(#clip-1060)"><text xml:space="preserve" font-family="Chalkduster" font-size="16.0" fill="#FEFFFE" transform="matrix(1.00, 0.00, -0.00, -1.00, 88.7, 134.1)">e</text><text xml:space="preserve" font-family="Chalkduster" font-size="16.0" fill="#FEFFFE" transform="matrix(1.00, 0.00, -0.00, -1.00, 98.9, 134.1)">p</text><text xml:space="preserve" font-family="Chalkduster" font-size="16.0" fill="#FEFFFE" transform="matrix(1.00, 0.00, -0.00, -1.00, 109.0, 134.1)">o</text><text xml:space="preserve" font-family="Chalkduster" font-size="16.0" fill="#FEFFFE" transform="matrix(1.00, 0.00, -0.00, -1.00, 121.0, 134.1)">u</text><text xml:space="preserve" font-family="Chalkduster" font-size="16.0" fill="#FEFFFE" transform="matrix(1.00, 0.00, -0.00, -1.00, 131.8, 134.1)">t</text><text xml:space="preserve" font-family="Chalkduster" font-size="16.0" fill="#FEFFFE" transform="matrix(1.00, 0.00, -0.00, -1.00, 139.0, 134.1)">a</text></g></g></g></g><image xlink:href="../../5BF47851-6364-4600-99AF-A85938226DCD/assets/A36F306E7F726452FDC9B3AA2BF2E8EF.png" width="75.00" height="23.00" transform="matrix(1.00, 0.00, -0.00, -1.00, 297.0, 153.0)"></image><g><clipPath id="clip-1061"><path d="M 1.1 395.4 L 874.9 395.4 L 874.9 0.6 L 1.1 0.6 Z M 1.1 395.4 "></path></clipPath><g clip-path="url(#clip-1061)"><g><clipPath id="clip-1062"><path d="M 155.0 114.1 L 514.0 114.1 L 514.0 169.4 L 155.0 169.4 Z M 155.0 114.1 "></path></clipPath><g clip-path="url(#clip-1062)"><text xml:space="preserve" font-family="AmericanTypewriter" font-size="16.0" fill="#FEFFFE" transform="matrix(1.00, 0.00, -0.00, -1.00, 301.0, 136.0)">1</text><text xml:space="preserve" font-family="AmericanTypewriter" font-size="16.0" fill="#FEFFFE" transform="matrix(1.00, 0.00, -0.00, -1.00, 310.1, 136.0)">5</text><text xml:space="preserve" font-family="AmericanTypewriter" font-size="16.0" fill="#FEFFFE" transform="matrix(1.00, 0.00, -0.00, -1.00, 320.3, 136.0)">m</text><text xml:space="preserve" font-family="AmericanTypewriter" font-size="16.0" fill="#FEFFFE" transform="matrix(1.00, 0.00, -0.00, -1.00, 335.2, 136.0)"> </text><text xml:space="preserve" font-family="AmericanTypewriter" font-size="16.0" fill="#FEFFFE" transform="matrix(1.00, 0.00, -0.00, -1.00, 339.2, 136.0)">3</text><text xml:space="preserve" font-family="AmericanTypewriter" font-size="16.0" fill="#FEFFFE" transform="matrix(1.00, 0.00, -0.00, -1.00, 349.4, 136.0)">2</text><text xml:space="preserve" font-family="AmericanTypewriter" font-size="16.0" fill="#FEFFFE" transform="matrix(1.00, 0.00, -0.00, -1.00, 359.5, 136.0)">s</text></g></g></g></g><image xlink:href="../../5BF47851-6364-4600-99AF-A85938226DCD/assets/498EF1F23CE1151C35FE96DED80F607F.png" width="73.00" height="23.00" transform="matrix(1.00, 0.00, -0.00, -1.00, 658.0, 153.0)"></image><g><clipPath id="clip-1063"><path d="M 1.1 395.4 L 874.9 395.4 L 874.9 0.6 L 1.1 0.6 Z M 1.1 395.4 "></path></clipPath><g clip-path="url(#clip-1063)"><g><clipPath id="clip-1064"><path d="M 515.0 114.1 L 873.9 114.1 L 873.9 169.4 L 515.0 169.4 Z M 515.0 114.1 "></path></clipPath><g clip-path="url(#clip-1064)"><text xml:space="preserve" font-family="AmericanTypewriter" font-size="16.0" fill="#FEFFFE" transform="matrix(1.00, 0.00, -0.00, -1.00, 662.0, 136.0)">1</text><text xml:space="preserve" font-family="AmericanTypewriter" font-size="16.0" fill="#FEFFFE" transform="matrix(1.00, 0.00, -0.00, -1.00, 670.9, 136.0)">0</text><text xml:space="preserve" font-family="AmericanTypewriter" font-size="16.0" fill="#FEFFFE" transform="matrix(1.00, 0.00, -0.00, -1.00, 681.1, 136.0)">m</text><text xml:space="preserve" font-family="AmericanTypewriter" font-size="16.0" fill="#FEFFFE" transform="matrix(1.00, 0.00, -0.00, -1.00, 695.9, 136.0)"> </text><text xml:space="preserve" font-family="AmericanTypewriter" font-size="16.0" fill="#FEFFFE" transform="matrix(1.00, 0.00, -0.00, -1.00, 699.9, 136.0)">1</text><text xml:space="preserve" font-family="AmericanTypewriter" font-size="16.0" fill="#FEFFFE" transform="matrix(1.00, 0.00, -0.00, -1.00, 708.5, 136.0)">4</text><text xml:space="preserve" font-family="AmericanTypewriter" font-size="16.0" fill="#FEFFFE" transform="matrix(1.00, 0.00, -0.00, -1.00, 718.7, 136.0)">s</text></g></g></g></g><image xlink:href="../../5BF47851-6364-4600-99AF-A85938226DCD/assets/4444F9C81EB9BA98FB814C69D3079346.png" width="133.00" height="32.00" transform="matrix(1.00, 0.00, -0.00, -1.00, 22.0, 96.0)"></image><g><clipPath id="clip-1065"><path d="M 1.1 395.4 L 874.9 395.4 L 874.9 0.6 L 1.1 0.6 Z M 1.1 395.4 "></path></clipPath><g clip-path="url(#clip-1065)"><g><clipPath id="clip-1066"><path d="M 2.1 57.8 L 154.0 57.8 L 154.0 113.1 L 2.1 113.1 Z M 2.1 57.8 "></path></clipPath><g clip-path="url(#clip-1066)"><text xml:space="preserve" font-family="Chalkduster" font-size="16.0" fill="#FEFFFE" transform="matrix(1.00, 0.00, -0.00, -1.00, 27.5, 77.8)">e</text><text xml:space="preserve" font-family="Chalkduster" font-size="16.0" fill="#FEFFFE" transform="matrix(1.00, 0.00, -0.00, -1.00, 37.7, 77.8)">p</text><text xml:space="preserve" font-family="Chalkduster" font-size="16.0" fill="#FEFFFE" transform="matrix(1.00, 0.00, -0.00, -1.00, 47.8, 77.8)">o</text><text xml:space="preserve" font-family="Chalkduster" font-size="16.0" fill="#FEFFFE" transform="matrix(1.00, 0.00, -0.00, -1.00, 59.8, 77.8)">u</text><text xml:space="preserve" font-family="Chalkduster" font-size="16.0" fill="#FEFFFE" transform="matrix(1.00, 0.00, -0.00, -1.00, 70.6, 77.8)">t</text><text xml:space="preserve" font-family="Chalkduster" font-size="16.0" fill="#FEFFFE" transform="matrix(1.00, 0.00, -0.00, -1.00, 77.8, 77.8)">a</text><text xml:space="preserve" font-family="Chalkduster" font-size="16.0" fill="#FEFFFE" transform="matrix(1.00, 0.00, -0.00, -1.00, 88.8, 77.8)">1</text><text xml:space="preserve" font-family="Chalkduster" font-size="16.0" fill="#FEFFFE" transform="matrix(1.00, 0.00, -0.00, -1.00, 98.5, 77.8)">-</text><text xml:space="preserve" font-family="Chalkduster" font-size="16.0" fill="#FEFFFE" transform="matrix(1.00, 0.00, -0.00, -1.00, 108.1, 77.8)">m</text><text xml:space="preserve" font-family="Chalkduster" font-size="16.0" fill="#FEFFFE" transform="matrix(1.00, 0.00, -0.00, -1.00, 124.8, 77.8)">m</text><text xml:space="preserve" font-family="Chalkduster" font-size="16.0" fill="#FEFFFE" transform="matrix(1.00, 0.00, -0.00, -1.00, 141.0, 77.8)">2</text></g></g></g></g><image xlink:href="../../5BF47851-6364-4600-99AF-A85938226DCD/assets/877346C558C62CD41409C9ABCD9529B1.png" width="74.00" height="23.00" transform="matrix(1.00, 0.00, -0.00, -1.00, 298.0, 97.0)"></image><g><clipPath id="clip-1067"><path d="M 1.1 395.4 L 874.9 395.4 L 874.9 0.6 L 1.1 0.6 Z M 1.1 395.4 "></path></clipPath><g clip-path="url(#clip-1067)"><g><clipPath id="clip-1068"><path d="M 155.0 57.8 L 514.0 57.8 L 514.0 113.1 L 155.0 113.1 Z M 155.0 57.8 "></path></clipPath><g clip-path="url(#clip-1068)"><text xml:space="preserve" font-family="AmericanTypewriter" font-size="16.0" fill="#FEFFFE" transform="matrix(1.00, 0.00, -0.00, -1.00, 302.0, 80.0)">1</text><text xml:space="preserve" font-family="AmericanTypewriter" font-size="16.0" fill="#FEFFFE" transform="matrix(1.00, 0.00, -0.00, -1.00, 310.1, 80.0)">7</text><text xml:space="preserve" font-family="AmericanTypewriter" font-size="16.0" fill="#FEFFFE" transform="matrix(1.00, 0.00, -0.00, -1.00, 320.3, 80.0)">m</text><text xml:space="preserve" font-family="AmericanTypewriter" font-size="16.0" fill="#FEFFFE" transform="matrix(1.00, 0.00, -0.00, -1.00, 335.1, 80.0)"> </text><text xml:space="preserve" font-family="AmericanTypewriter" font-size="16.0" fill="#FEFFFE" transform="matrix(1.00, 0.00, -0.00, -1.00, 339.1, 80.0)">2</text><text xml:space="preserve" font-family="AmericanTypewriter" font-size="16.0" fill="#FEFFFE" transform="matrix(1.00, 0.00, -0.00, -1.00, 349.3, 80.0)">8</text><text xml:space="preserve" font-family="AmericanTypewriter" font-size="16.0" fill="#FEFFFE" transform="matrix(1.00, 0.00, -0.00, -1.00, 359.5, 80.0)">s</text></g></g></g></g><image xlink:href="../../5BF47851-6364-4600-99AF-A85938226DCD/assets/E6DEE1D490B9C63EABD306E059DA1487.png" width="74.00" height="22.00" transform="matrix(1.00, 0.00, -0.00, -1.00, 658.0, 96.0)"></image><g><clipPath id="clip-1069"><path d="M 1.1 395.4 L 874.9 395.4 L 874.9 0.6 L 1.1 0.6 Z M 1.1 395.4 "></path></clipPath><g clip-path="url(#clip-1069)"><g><clipPath id="clip-1070"><path d="M 515.0 57.8 L 873.9 57.8 L 873.9 113.1 L 515.0 113.1 Z M 515.0 57.8 "></path></clipPath><g clip-path="url(#clip-1070)"><text xml:space="preserve" font-family="AmericanTypewriter" font-size="16.0" fill="#FEFFFE" transform="matrix(1.00, 0.00, -0.00, -1.00, 662.0, 80.0)">1</text><text xml:space="preserve" font-family="AmericanTypewriter" font-size="16.0" fill="#FEFFFE" transform="matrix(1.00, 0.00, -0.00, -1.00, 670.9, 80.0)">1</text><text xml:space="preserve" font-family="AmericanTypewriter" font-size="16.0" fill="#FEFFFE" transform="matrix(1.00, 0.00, -0.00, -1.00, 681.1, 80.0)">m</text><text xml:space="preserve" font-family="AmericanTypewriter" font-size="16.0" fill="#FEFFFE" transform="matrix(1.00, 0.00, -0.00, -1.00, 696.0, 80.0)"> </text><text xml:space="preserve" font-family="AmericanTypewriter" font-size="16.0" fill="#FEFFFE" transform="matrix(1.00, 0.00, -0.00, -1.00, 700.0, 80.0)">1</text><text xml:space="preserve" font-family="AmericanTypewriter" font-size="16.0" fill="#FEFFFE" transform="matrix(1.00, 0.00, -0.00, -1.00, 708.9, 80.0)">1</text><text xml:space="preserve" font-family="AmericanTypewriter" font-size="16.0" fill="#FEFFFE" transform="matrix(1.00, 0.00, -0.00, -1.00, 719.1, 80.0)">s</text></g></g></g></g><image xlink:href="../../5BF47851-6364-4600-99AF-A85938226DCD/assets/03CA67CCA8F9F9313518AC61640E2A6F.png" width="132.00" height="33.00" transform="matrix(1.00, 0.00, -0.00, -1.00, 22.0, 40.0)"></image><g><clipPath id="clip-1071"><path d="M 1.1 395.4 L 874.9 395.4 L 874.9 0.6 L 1.1 0.6 Z M 1.1 395.4 "></path></clipPath><g clip-path="url(#clip-1071)"><g><clipPath id="clip-1072"><path d="M 2.1 1.6 L 154.0 1.6 L 154.0 56.8 L 2.1 56.8 Z M 2.1 1.6 "></path></clipPath><g clip-path="url(#clip-1072)"><text xml:space="preserve" font-family="Chalkduster" font-size="16.0" fill="#FEFFFE" transform="matrix(1.00, 0.00, -0.00, -1.00, 27.5, 21.6)">e</text><text xml:space="preserve" font-family="Chalkduster" font-size="16.0" fill="#FEFFFE" transform="matrix(1.00, 0.00, -0.00, -1.00, 37.7, 21.6)">p</text><text xml:space="preserve" font-family="Chalkduster" font-size="16.0" fill="#FEFFFE" transform="matrix(1.00, 0.00, -0.00, -1.00, 47.8, 21.6)">o</text><text xml:space="preserve" font-family="Chalkduster" font-size="16.0" fill="#FEFFFE" transform="matrix(1.00, 0.00, -0.00, -1.00, 59.8, 21.6)">u</text><text xml:space="preserve" font-family="Chalkduster" font-size="16.0" fill="#FEFFFE" transform="matrix(1.00, 0.00, -0.00, -1.00, 70.6, 21.6)">t</text><text xml:space="preserve" font-family="Chalkduster" font-size="16.0" fill="#FEFFFE" transform="matrix(1.00, 0.00, -0.00, -1.00, 77.8, 21.6)">a</text><text xml:space="preserve" font-family="Chalkduster" font-size="16.0" fill="#FEFFFE" transform="matrix(1.00, 0.00, -0.00, -1.00, 88.8, 21.6)">2</text><text xml:space="preserve" font-family="Chalkduster" font-size="16.0" fill="#FEFFFE" transform="matrix(1.00, 0.00, -0.00, -1.00, 97.8, 21.6)">-</text><text xml:space="preserve" font-family="Chalkduster" font-size="16.0" fill="#FEFFFE" transform="matrix(1.00, 0.00, -0.00, -1.00, 107.5, 21.6)">m</text><text xml:space="preserve" font-family="Chalkduster" font-size="16.0" fill="#FEFFFE" transform="matrix(1.00, 0.00, -0.00, -1.00, 124.2, 21.6)">m</text><text xml:space="preserve" font-family="Chalkduster" font-size="16.0" fill="#FEFFFE" transform="matrix(1.00, 0.00, -0.00, -1.00, 140.4, 21.6)">1</text></g></g></g></g><image xlink:href="../../5BF47851-6364-4600-99AF-A85938226DCD/assets/831FCFC48BB90C70A6000906B738EEE9.png" width="75.00" height="23.00" transform="matrix(1.00, 0.00, -0.00, -1.00, 297.0, 41.0)"></image><g><clipPath id="clip-1073"><path d="M 1.1 395.4 L 874.9 395.4 L 874.9 0.6 L 1.1 0.6 Z M 1.1 395.4 "></path></clipPath><g clip-path="url(#clip-1073)"><g><clipPath id="clip-1074"><path d="M 155.0 1.6 L 514.0 1.6 L 514.0 56.8 L 155.0 56.8 Z M 155.0 1.6 "></path></clipPath><g clip-path="url(#clip-1074)"><text xml:space="preserve" font-family="AmericanTypewriter" font-size="16.0" fill="#FEFFFE" transform="matrix(1.00, 0.00, -0.00, -1.00, 301.0, 24.0)">1</text><text xml:space="preserve" font-family="AmericanTypewriter" font-size="16.0" fill="#FEFFFE" transform="matrix(1.00, 0.00, -0.00, -1.00, 310.1, 24.0)">5</text><text xml:space="preserve" font-family="AmericanTypewriter" font-size="16.0" fill="#FEFFFE" transform="matrix(1.00, 0.00, -0.00, -1.00, 320.3, 24.0)">m</text><text xml:space="preserve" font-family="AmericanTypewriter" font-size="16.0" fill="#FEFFFE" transform="matrix(1.00, 0.00, -0.00, -1.00, 335.2, 24.0)"> </text><text xml:space="preserve" font-family="AmericanTypewriter" font-size="16.0" fill="#FEFFFE" transform="matrix(1.00, 0.00, -0.00, -1.00, 339.2, 24.0)">2</text><text xml:space="preserve" font-family="AmericanTypewriter" font-size="16.0" fill="#FEFFFE" transform="matrix(1.00, 0.00, -0.00, -1.00, 349.4, 24.0)">7</text><text xml:space="preserve" font-family="AmericanTypewriter" font-size="16.0" fill="#FEFFFE" transform="matrix(1.00, 0.00, -0.00, -1.00, 359.5, 24.0)">s</text></g></g></g></g><image xlink:href="../../5BF47851-6364-4600-99AF-A85938226DCD/assets/D56C5763F4F6D7B560C6768B89A6899A.png" width="74.00" height="22.00" transform="matrix(1.00, 0.00, -0.00, -1.00, 658.0, 40.0)"></image><g><clipPath id="clip-1075"><path d="M 1.1 395.4 L 874.9 395.4 L 874.9 0.6 L 1.1 0.6 Z M 1.1 395.4 "></path></clipPath><g clip-path="url(#clip-1075)"><g><clipPath id="clip-1076"><path d="M 515.0 1.6 L 873.9 1.6 L 873.9 56.8 L 515.0 56.8 Z M 515.0 1.6 "></path></clipPath><g clip-path="url(#clip-1076)"><text xml:space="preserve" font-family="AmericanTypewriter" font-size="16.0" fill="#FEFFFE" transform="matrix(1.00, 0.00, -0.00, -1.00, 662.0, 24.0)">1</text><text xml:space="preserve" font-family="AmericanTypewriter" font-size="16.0" fill="#FEFFFE" transform="matrix(1.00, 0.00, -0.00, -1.00, 670.9, 24.0)">1</text><text xml:space="preserve" font-family="AmericanTypewriter" font-size="16.0" fill="#FEFFFE" transform="matrix(1.00, 0.00, -0.00, -1.00, 681.1, 24.0)">m</text><text xml:space="preserve" font-family="AmericanTypewriter" font-size="16.0" fill="#FEFFFE" transform="matrix(1.00, 0.00, -0.00, -1.00, 696.0, 24.0)"> </text><text xml:space="preserve" font-family="AmericanTypewriter" font-size="16.0" fill="#FEFFFE" transform="matrix(1.00, 0.00, -0.00, -1.00, 700.0, 24.0)">1</text><text xml:space="preserve" font-family="AmericanTypewriter" font-size="16.0" fill="#FEFFFE" transform="matrix(1.00, 0.00, -0.00, -1.00, 709.1, 24.0)">3</text><text xml:space="preserve" font-family="AmericanTypewriter" font-size="16.0" fill="#FEFFFE" transform="matrix(1.00, 0.00, -0.00, -1.00, 719.3, 24.0)">s</text></g></g></g></g><g><clipPath id="clip-1077"><path d="M 1.1 395.4 L 874.9 395.4 L 874.9 0.6 L 1.1 0.6 Z M 1.1 395.4 "></path></clipPath><g clip-path="url(#clip-1077)"><path d="M 514.9 1.5 L 514.9 58.3 " fill="none" stroke="#FEFFFE" stroke-opacity="0.50" stroke-width="1.00" transform="matrix(1.00, 0.00, 0.00, -1.00, -0.4, 396.9)"></path><path d="M 514.9 58.3 L 514.9 396.4 " fill="none" stroke="#FEFFFE" stroke-opacity="0.50" stroke-width="1.00" transform="matrix(1.00, 0.00, 0.00, -1.00, -0.4, 396.9)"></path><path d="M 1.5 114.5 L 154.9 114.5 " fill="none" stroke="#FEFFFE" stroke-opacity="0.50" stroke-width="1.00" transform="matrix(1.00, 0.00, 0.00, -1.00, -0.4, 396.9)"></path><path d="M 154.9 114.5 L 875.3 114.5 " fill="none" stroke="#FEFFFE" stroke-opacity="0.50" stroke-width="1.00" transform="matrix(1.00, 0.00, 0.00, -1.00, -0.4, 396.9)"></path><path d="M 1.5 170.8 L 154.9 170.8 " fill="none" stroke="#FEFFFE" stroke-opacity="0.50" stroke-width="1.00" transform="matrix(1.00, 0.00, 0.00, -1.00, -0.4, 396.9)"></path><path d="M 154.9 170.8 L 875.3 170.8 " fill="none" stroke="#FEFFFE" stroke-opacity="0.50" stroke-width="1.00" transform="matrix(1.00, 0.00, 0.00, -1.00, -0.4, 396.9)"></path><path d="M 1.5 227.1 L 154.9 227.1 " fill="none" stroke="#FEFFFE" stroke-opacity="0.50" stroke-width="1.00" transform="matrix(1.00, 0.00, 0.00, -1.00, -0.4, 396.9)"></path><path d="M 154.9 227.1 L 875.3 227.1 " fill="none" stroke="#FEFFFE" stroke-opacity="0.50" stroke-width="1.00" transform="matrix(1.00, 0.00, 0.00, -1.00, -0.4, 396.9)"></path><path d="M 1.5 283.3 L 154.9 283.3 " fill="none" stroke="#FEFFFE" stroke-opacity="0.50" stroke-width="1.00" transform="matrix(1.00, 0.00, 0.00, -1.00, -0.4, 396.9)"></path><path d="M 154.9 283.3 L 875.3 283.3 " fill="none" stroke="#FEFFFE" stroke-opacity="0.50" stroke-width="1.00" transform="matrix(1.00, 0.00, 0.00, -1.00, -0.4, 396.9)"></path><path d="M 1.5 339.6 L 154.9 339.6 " fill="none" stroke="#FEFFFE" stroke-opacity="0.50" stroke-width="1.00" transform="matrix(1.00, 0.00, 0.00, -1.00, -0.4, 396.9)"></path><path d="M 154.9 339.6 L 875.3 339.6 " fill="none" stroke="#FEFFFE" stroke-opacity="0.50" stroke-width="1.00" transform="matrix(1.00, 0.00, 0.00, -1.00, -0.4, 396.9)"></path><path d="M 154.9 1.5 L 154.9 58.3 " fill="none" stroke="#FEFFFE" stroke-opacity="0.50" stroke-width="1.00" transform="matrix(1.00, 0.00, 0.00, -1.00, -0.4, 396.9)"></path><path d="M 154.9 58.3 L 154.9 396.4 " fill="none" stroke="#FEFFFE" stroke-opacity="0.50" stroke-width="1.00" transform="matrix(1.00, 0.00, 0.00, -1.00, -0.4, 396.9)"></path><path d="M 1.5 58.3 L 875.3 58.3 " fill="none" stroke="#FEFFFE" stroke-opacity="0.50" stroke-width="1.00" transform="matrix(1.00, 0.00, 0.00, -1.00, -0.4, 396.9)"></path><path d="M 2.0 1.5 L 2.0 58.3 " fill="none" stroke="#FEFFFE" stroke-opacity="0.50" stroke-width="1.00" transform="matrix(1.00, 0.00, 0.00, -1.00, -0.4, 396.9)"></path><path d="M 2.0 58.3 L 2.0 396.4 " fill="none" stroke="#FEFFFE" stroke-opacity="0.50" stroke-width="1.00" transform="matrix(1.00, 0.00, 0.00, -1.00, -0.4, 396.9)"></path><path d="M 874.8 1.5 L 874.8 58.3 " fill="none" stroke="#FEFFFE" stroke-opacity="0.50" stroke-width="1.00" transform="matrix(1.00, 0.00, 0.00, -1.00, -0.4, 396.9)"></path><path d="M 874.8 58.3 L 874.8 396.4 " fill="none" stroke="#FEFFFE" stroke-opacity="0.50" stroke-width="1.00" transform="matrix(1.00, 0.00, 0.00, -1.00, -0.4, 396.9)"></path><path d="M 1.5 2.0 L 875.3 2.0 " fill="none" stroke="#FEFFFE" stroke-opacity="0.50" stroke-width="1.00" transform="matrix(1.00, 0.00, 0.00, -1.00, -0.4, 396.9)"></path><path d="M 1.5 395.9 L 154.9 395.9 " fill="none" stroke="#FEFFFE" stroke-opacity="0.50" stroke-width="1.00" transform="matrix(1.00, 0.00, 0.00, -1.00, -0.4, 396.9)"></path><path d="M 154.9 395.9 L 875.3 395.9 " fill="none" stroke="#FEFFFE" stroke-opacity="0.50" stroke-width="1.00" transform="matrix(1.00, 0.00, 0.00, -1.00, -0.4, 396.9)"></path></g></g></g></svg>