<?xml version="1.0" encoding="UTF-8" standalone="no"?><svg xmlns="http://www.w3.org/2000/svg" xmlns:xlink="http://www.w3.org/1999/xlink" clip-rule="evenodd" stroke-miterlimit="4.00" viewBox="0 0 1024 768"><desc>SVG generated by Keynote</desc><defs></defs><g transform="matrix(1.00, 0.00, -0.00, -1.00, 0.0, 768.0)"><g><clipPath id="clip-204"><path d="M 0.0 768.0 L 1024.0 768.0 L 1024.0 0.0 L 0.0 0.0 Z M 0.0 768.0 "></path></clipPath><g clip-path="url(#clip-204)"><image xlink:href="../../956FEF66-F126-4898-9939-EAE9E9BE3BA5/assets/DE78B55DDE70D88C6FF874E8D33A46A3.jpeg" width="1024.00" height="768.00" transform="matrix(1.00, 0.00, -0.00, -1.00, 0.0, 768.0)"></image></g></g><image xlink:href="D058C368512C02D6995567E3FB935783.png" width="388.00" height="100.00" transform="matrix(1.00, 0.00, -0.00, -1.00, 549.4, 741.2)" opacity="0.50"></image><path d="M 558.4 732.2 L 928.4 732.2 L 928.4 650.4 L 558.4 650.4 Z M 558.4 732.2 " fill="#010101"></path><path d="M 932.3 693.6 C 932.3 692.9 932.2 692.1 932.2 690.9 C 932.2 691.4 932.1 691.8 932.0 691.8 C 932.1 692.8 932.1 694.2 932.1 696.3 C 932.2 696.2 932.1 695.2 932.2 694.5 C 932.2 693.6 932.3 693.8 932.3 693.6 C 932.3 693.6 932.3 693.6 932.3 693.6 Z M 736.3 647.1 C 738.0 647.1 736.1 646.9 735.5 646.9 C 735.4 646.9 735.3 647.0 734.7 646.9 C 734.5 646.7 736.0 646.7 737.1 646.6 C 741.8 646.7 738.4 647.1 736.3 647.1 C 736.3 647.1 736.3 647.1 736.3 647.1 Z M 555.3 692.6 C 555.3 696.4 555.5 692.5 555.6 691.9 C 555.7 693.7 556.0 692.5 556.1 694.7 C 556.0 695.1 555.9 695.9 555.8 696.3 C 555.8 695.3 555.8 693.9 555.7 693.6 C 555.7 695.0 555.7 696.8 555.6 697.0 C 555.5 694.1 555.4 696.4 555.2 696.9 C 555.2 694.3 555.0 693.3 555.3 692.6 C 555.3 692.6 555.3 692.6 555.3 692.6 Z M 705.2 734.8 C 704.1 734.8 703.2 734.8 703.4 734.7 C 704.6 734.7 705.3 734.7 706.0 734.8 C 706.1 734.7 705.7 734.5 706.7 734.5 C 707.9 734.7 707.5 735.0 706.9 735.2 C 706.8 735.0 703.1 735.1 705.2 734.8 C 705.2 734.8 705.2 734.8 705.2 734.8 Z M 799.1 734.4 C 802.3 734.6 799.0 734.1 802.3 734.2 C 802.3 734.4 803.0 734.7 800.9 734.7 C 800.6 734.6 799.4 734.6 799.1 734.4 C 799.1 734.4 799.1 734.4 799.1 734.4 Z M 607.3 649.1 C 607.2 648.9 604.9 649.0 605.3 648.8 C 606.5 648.8 607.5 648.8 608.7 648.8 C 609.1 649.0 608.7 649.1 607.3 649.1 C 607.3 649.1 607.3 649.1 607.3 649.1 Z M 557.6 718.8 C 557.3 722.6 557.7 726.7 557.5 725.5 C 557.2 726.9 556.8 722.7 557.0 722.9 C 557.3 722.5 557.6 715.8 557.6 718.8 C 557.6 718.8 557.6 718.8 557.6 718.8 Z M 717.5 651.3 C 713.6 651.1 714.5 651.7 711.8 651.4 C 712.7 651.4 713.1 651.3 713.4 651.3 C 712.8 651.2 711.8 651.3 711.8 651.2 C 713.6 651.1 715.9 651.1 717.5 651.3 C 717.5 651.3 717.5 651.3 717.5 651.3 Z M 914.1 735.5 C 913.5 735.5 913.2 735.6 913.4 735.6 C 910.7 735.6 911.0 735.8 909.2 735.6 C 908.9 735.3 911.2 735.4 913.2 735.5 C 913.3 735.4 913.9 735.4 914.1 735.5 C 914.1 735.5 914.1 735.5 914.1 735.5 Z M 840.0 734.6 C 840.2 734.8 841.8 734.9 839.4 734.9 C 836.4 734.7 838.7 734.4 841.4 734.3 C 841.4 734.2 841.3 734.1 841.2 734.0 C 840.1 734.0 839.3 733.9 838.6 733.9 C 838.4 734.3 836.0 733.6 831.9 733.8 C 833.8 733.6 831.4 733.4 834.2 733.5 C 833.3 733.3 835.2 733.3 834.7 733.1 C 833.7 733.2 830.8 733.2 831.7 733.5 C 830.2 733.5 829.1 733.5 828.3 733.4 C 827.1 733.2 830.9 733.4 829.7 733.1 C 828.9 733.1 828.7 733.0 828.0 733.0 C 827.9 733.1 828.3 733.2 827.4 733.3 C 824.6 733.2 827.6 733.0 823.8 732.9 C 823.7 733.1 824.8 733.1 824.9 733.3 C 823.3 733.4 823.2 733.2 821.6 733.3 C 821.2 733.2 822.7 733.1 821.4 733.1 C 820.6 733.5 817.8 732.9 815.7 733.2 C 817.6 733.7 815.2 733.1 813.4 733.6 C 812.9 733.4 814.2 733.1 812.3 733.1 C 813.4 733.7 805.8 733.5 812.1 734.0 C 809.0 734.0 808.3 734.5 810.8 734.6 C 805.2 734.5 807.2 734.8 805.1 734.8 C 803.0 734.8 806.2 734.7 804.9 734.5 C 807.2 734.5 806.5 734.4 808.2 734.5 C 808.2 734.4 808.5 734.4 809.0 734.3 C 806.8 734.5 803.9 734.1 805.3 733.8 C 806.5 733.9 805.6 734.1 807.2 734.1 C 806.4 733.8 808.8 734.2 808.8 734.0 C 807.5 733.6 810.6 733.4 807.4 733.3 C 807.5 733.5 807.6 733.6 807.7 733.7 C 806.9 733.7 806.1 733.7 805.3 733.7 C 804.4 733.5 804.9 733.3 804.1 733.2 C 802.7 733.2 802.0 733.3 801.7 733.4 C 803.4 733.5 805.6 733.7 802.8 733.7 C 803.5 733.2 798.7 733.6 800.8 733.3 C 797.6 733.2 796.3 733.6 795.8 733.2 C 794.2 733.3 795.4 733.5 793.5 733.5 C 790.2 733.3 791.0 733.6 786.8 733.4 C 786.5 733.8 786.3 733.3 785.0 733.3 C 785.1 733.5 785.2 733.6 785.3 733.7 C 783.7 733.5 780.3 733.4 777.0 733.6 C 776.0 733.6 776.5 733.4 774.3 733.4 C 772.1 733.7 768.9 733.4 766.2 733.7 C 765.9 733.5 763.9 733.5 762.9 733.6 C 762.3 733.5 763.6 733.2 761.8 733.2 C 760.7 733.5 762.9 733.5 760.4 733.6 C 760.5 733.4 758.0 733.9 757.8 733.6 C 758.6 733.5 759.4 733.4 760.2 733.3 C 759.0 733.3 759.3 733.2 758.4 733.2 C 758.7 733.5 756.6 733.2 755.9 733.2 C 756.0 733.3 755.9 733.4 755.2 733.5 C 753.8 733.5 752.7 733.5 752.0 733.6 C 750.0 733.5 752.9 733.4 751.0 733.3 C 750.5 734.0 748.2 733.3 744.6 733.6 C 743.6 733.5 741.9 733.4 739.4 733.3 C 739.2 733.5 741.9 733.4 742.0 733.6 C 738.3 733.5 742.7 733.7 740.4 733.7 C 735.1 733.6 731.7 733.6 726.1 733.4 C 726.3 733.6 722.1 733.7 722.1 733.6 C 723.2 733.6 719.6 733.3 717.9 733.3 C 717.5 733.7 714.9 734.1 714.9 734.3 C 714.1 734.1 714.3 734.1 713.8 733.7 C 710.7 733.6 709.2 734.0 707.1 733.6 C 707.4 733.8 705.9 733.8 704.7 733.9 C 705.0 733.7 705.6 733.6 706.2 733.4 C 704.6 733.4 704.3 733.3 702.9 733.3 C 701.7 734.0 698.9 733.2 698.0 733.8 C 695.7 733.8 696.0 733.6 693.8 733.6 C 694.0 733.7 693.8 733.8 693.1 733.9 C 694.6 733.8 695.5 733.6 696.5 733.9 C 693.2 734.0 702.8 734.6 697.6 734.8 C 697.4 734.7 697.8 734.5 696.7 734.5 C 693.7 734.6 695.6 734.9 696.8 734.8 C 694.8 735.0 692.7 734.9 694.4 735.2 C 689.8 735.2 692.7 735.0 691.0 734.9 C 682.8 735.1 672.4 735.2 661.0 734.9 C 660.7 735.3 654.6 735.0 652.6 734.8 C 649.5 735.0 646.2 735.1 645.1 734.8 C 644.6 735.1 641.2 734.6 640.9 734.8 C 642.3 734.8 643.2 735.0 641.8 735.0 C 637.2 734.9 630.3 734.8 627.6 735.0 C 625.9 734.7 622.9 734.8 620.9 734.9 C 620.6 734.8 622.2 734.7 620.9 734.7 C 620.5 734.8 616.2 735.0 615.2 734.8 C 616.5 734.9 617.9 734.5 615.9 734.5 C 615.9 734.7 613.7 734.6 614.3 734.8 C 611.5 734.7 609.9 734.9 607.6 734.8 C 609.4 734.7 610.6 734.6 610.9 734.4 C 609.3 734.6 608.1 734.7 606.7 734.4 C 607.1 734.8 604.5 734.6 601.8 734.8 C 601.1 734.6 600.5 734.5 598.4 734.5 C 597.3 734.7 601.7 734.8 599.3 734.8 C 599.3 734.7 597.0 734.6 597.6 734.8 C 594.7 734.7 593.2 734.9 590.9 734.7 C 593.9 734.8 591.6 734.4 590.9 734.4 C 590.2 734.4 589.3 734.4 589.3 734.4 C 589.3 734.5 590.7 734.5 590.9 734.6 C 588.9 734.5 588.3 734.9 587.6 734.7 C 588.5 734.7 588.6 734.5 587.6 734.5 C 587.4 734.9 581.4 734.6 583.4 734.4 C 583.4 734.5 585.7 734.5 586.0 734.4 C 585.3 734.3 581.9 734.5 582.6 734.2 C 584.6 734.2 584.4 734.3 586.7 734.3 C 587.0 734.1 588.4 734.1 589.2 734.0 C 585.5 734.0 584.7 734.3 584.2 734.0 C 582.6 734.0 583.6 734.3 580.9 734.2 C 577.1 734.1 580.2 733.9 579.3 733.8 C 575.9 733.9 576.9 734.3 578.4 734.5 C 575.7 734.5 574.9 734.7 571.8 734.6 C 571.9 734.5 572.3 734.3 573.4 734.3 C 573.5 734.3 576.2 734.5 576.0 734.4 C 575.7 734.0 573.5 733.9 570.1 733.8 C 570.9 734.2 571.0 733.9 567.6 734.0 C 568.2 734.3 566.0 733.9 565.9 734.1 C 566.1 734.2 567.3 734.2 568.4 734.2 C 568.3 734.4 567.9 734.5 566.8 734.5 C 566.1 734.4 565.5 734.5 563.5 734.4 C 563.3 734.2 564.8 734.2 565.1 734.0 C 563.9 734.1 563.7 734.2 562.6 734.2 C 561.6 734.0 561.7 733.7 561.8 733.3 C 563.0 733.2 565.1 733.3 563.4 733.1 C 568.3 733.1 563.2 733.4 565.1 733.5 C 567.1 733.2 566.0 733.6 569.2 733.6 C 570.2 733.5 570.5 733.5 570.9 733.4 C 570.7 733.4 568.8 733.1 570.9 733.1 C 571.4 733.2 572.5 733.4 574.2 733.4 C 574.2 733.3 570.7 733.2 574.2 733.2 C 575.9 733.2 574.4 733.5 576.7 733.5 C 576.7 733.4 577.4 733.4 577.5 733.3 C 574.1 733.4 578.2 733.1 575.9 733.0 C 578.8 732.9 576.4 733.3 578.3 733.2 C 578.4 733.1 581.6 733.4 581.6 733.1 C 580.4 733.2 578.0 733.2 578.3 732.9 C 580.5 733.0 590.6 732.8 586.7 733.2 C 588.1 733.0 595.4 732.7 594.9 732.8 C 592.7 732.8 592.8 733.0 592.5 733.2 C 596.6 732.9 598.7 733.1 603.2 732.8 C 598.3 732.7 601.9 732.3 599.0 732.1 C 597.7 732.1 595.9 732.1 595.6 732.2 C 596.2 732.4 598.2 732.3 599.0 732.2 C 599.0 732.4 599.1 732.6 599.1 732.8 C 593.6 732.6 590.8 732.9 588.3 732.8 C 590.4 732.7 584.1 732.4 586.6 732.4 C 587.7 732.5 590.3 732.5 592.4 732.6 C 592.4 732.5 592.4 732.4 592.4 732.4 C 593.4 732.4 594.8 732.4 594.8 732.3 C 591.8 732.3 590.2 732.1 588.2 732.3 C 588.2 732.2 588.2 732.2 588.2 732.1 C 587.7 732.1 587.2 732.1 587.4 732.0 C 588.4 732.0 589.7 732.1 589.9 732.0 C 587.7 731.9 587.3 731.7 584.9 731.6 C 585.4 731.4 582.2 731.0 585.7 730.9 C 586.3 731.2 588.2 731.3 588.1 731.4 C 589.2 731.5 591.3 731.4 592.3 731.3 C 591.3 731.2 589.2 731.1 589.0 730.8 C 590.7 730.8 592.0 730.7 593.1 730.9 C 589.6 731.1 595.0 731.1 596.4 731.4 C 596.0 731.3 595.2 731.2 594.7 731.1 C 597.4 731.1 598.8 731.3 598.9 730.9 C 602.2 730.8 601.5 731.1 603.8 731.1 C 602.2 730.8 605.3 730.9 603.7 730.6 C 607.6 730.5 604.9 730.9 606.3 730.9 C 607.5 730.9 607.6 730.8 608.7 730.8 C 610.5 730.9 614.1 730.9 614.6 731.2 C 616.1 731.2 616.4 731.3 617.9 731.3 C 618.3 731.2 618.8 731.1 619.5 731.1 C 619.7 731.2 620.9 731.3 621.2 731.2 C 616.9 730.8 618.1 730.8 613.6 730.5 C 613.3 730.6 612.7 730.7 613.6 730.8 C 610.6 730.8 609.7 730.7 607.0 730.7 C 606.7 730.5 606.1 730.1 603.7 730.4 C 604.2 730.1 603.6 730.0 604.5 730.0 C 605.8 730.1 607.6 730.2 609.5 730.3 C 609.6 730.2 609.3 730.1 610.2 730.0 C 611.2 730.2 612.5 730.2 613.6 730.1 C 613.6 730.2 613.3 730.3 612.8 730.4 C 616.9 730.4 615.4 730.1 618.6 730.3 C 618.0 730.1 616.0 730.1 617.7 730.0 C 620.5 729.9 621.2 730.1 622.6 730.1 C 622.8 730.1 622.7 730.0 623.5 730.0 C 625.5 730.1 619.1 730.5 622.7 730.8 C 622.9 730.5 626.4 730.6 626.9 730.8 C 625.8 731.0 623.8 730.7 623.6 730.8 C 629.9 730.9 623.9 731.2 630.3 731.3 C 630.3 731.2 630.3 731.1 630.2 731.0 C 627.7 731.0 627.6 730.8 627.7 730.6 C 625.4 730.6 624.5 730.3 622.7 730.4 C 623.3 730.0 624.5 730.4 626.8 730.4 C 626.7 730.2 624.6 730.2 624.3 730.0 C 629.6 730.2 630.7 729.8 635.8 730.2 C 634.5 729.9 638.6 730.2 638.2 730.0 C 633.8 730.0 635.5 729.3 634.8 729.2 C 631.9 729.3 633.3 729.7 631.6 729.9 C 630.8 729.6 631.2 729.5 631.5 729.2 C 634.1 729.3 633.7 729.2 635.6 729.1 C 637.4 729.3 638.9 729.7 636.6 729.9 C 637.1 729.8 640.4 729.7 640.7 729.9 C 637.5 729.9 641.0 730.0 639.1 730.1 C 641.7 730.3 646.0 730.0 649.0 730.2 C 648.8 730.1 649.9 730.0 649.8 729.9 C 646.8 730.1 646.1 729.6 643.1 729.6 C 644.4 729.5 643.6 729.4 643.1 729.3 C 646.0 729.5 647.5 729.2 649.7 729.5 C 649.6 729.4 649.6 729.3 649.6 729.2 C 653.2 729.4 652.7 729.4 655.3 729.2 C 656.4 729.3 655.1 729.7 654.7 730.0 C 656.0 729.9 660.7 729.9 657.9 729.7 C 660.8 729.6 660.1 730.0 662.9 730.0 C 662.9 729.7 660.3 729.7 661.2 729.4 C 663.8 729.4 662.4 729.7 664.5 729.5 C 664.6 729.7 664.8 729.9 667.0 729.9 C 665.3 729.7 667.2 729.8 667.8 729.6 C 666.8 729.6 665.9 729.6 665.3 729.5 C 669.4 729.5 670.2 729.5 673.4 729.5 C 672.3 729.8 674.2 729.8 672.0 730.0 C 674.0 729.8 676.7 730.1 677.8 730.0 C 676.4 729.9 674.4 729.9 673.5 729.7 C 680.1 729.7 683.4 729.4 689.1 729.7 C 688.2 729.7 686.8 729.7 686.7 729.8 C 687.3 729.8 688.4 729.8 688.4 729.9 C 686.4 729.9 684.5 729.9 683.5 730.0 C 681.7 729.8 684.4 729.8 682.6 729.7 C 682.3 729.9 678.8 729.7 680.2 730.0 C 683.2 729.8 686.3 730.1 687.8 730.4 C 690.5 730.0 687.8 730.0 690.8 729.6 C 690.7 729.7 691.5 729.8 692.5 729.8 C 691.4 729.5 695.3 729.6 695.7 729.6 C 694.3 729.8 688.9 730.0 691.8 730.3 C 690.3 729.7 698.2 730.4 696.6 730.0 C 700.1 729.9 699.0 730.3 700.8 730.0 C 700.9 730.1 700.7 730.2 701.7 730.2 C 702.6 730.2 702.9 730.1 703.3 730.0 C 698.3 729.9 699.7 729.6 696.5 729.6 C 697.0 729.6 697.5 729.5 697.3 729.5 C 697.3 729.4 697.3 729.4 698.1 729.4 C 698.4 729.7 700.6 729.3 701.4 729.6 C 700.5 729.6 699.5 729.6 699.9 729.7 C 703.9 729.7 703.3 730.0 709.0 730.1 C 707.3 730.0 709.5 729.9 711.4 729.9 C 714.1 729.9 713.3 730.3 716.6 730.3 C 716.0 729.7 720.0 730.3 723.8 730.0 C 723.5 730.3 728.7 730.4 729.6 730.1 C 729.9 730.2 731.7 730.2 733.0 730.2 C 733.4 730.3 731.9 730.4 733.1 730.4 C 734.2 730.4 733.0 730.1 734.5 730.1 C 736.3 730.2 736.1 730.5 738.8 730.4 C 738.8 730.2 737.3 730.3 738.6 730.1 C 741.0 730.2 743.1 730.2 741.0 730.0 C 744.5 729.9 743.0 730.4 746.2 730.4 C 745.2 730.2 745.2 730.2 746.9 730.1 C 748.2 730.3 748.3 730.4 748.8 730.5 C 749.6 730.3 749.3 730.3 752.0 730.4 C 751.9 730.3 751.9 730.1 751.8 730.0 C 753.0 730.1 754.8 730.0 755.1 730.1 C 752.9 730.1 753.6 730.3 752.8 730.4 C 755.1 730.4 759.5 730.6 756.1 730.4 C 759.1 730.2 757.8 730.6 760.3 730.5 C 758.6 730.3 760.2 730.5 762.7 730.4 C 762.3 730.1 764.4 730.4 766.0 730.4 C 765.6 730.2 765.9 730.1 767.4 730.0 C 767.4 730.2 768.4 730.2 770.0 730.2 C 769.9 730.1 766.4 730.0 769.8 730.0 C 771.5 730.1 771.6 730.3 774.2 730.4 C 774.9 730.6 772.0 730.5 772.8 730.8 C 774.7 730.5 775.5 730.7 778.6 730.8 C 777.1 730.3 784.3 730.2 780.6 730.0 C 781.6 730.0 782.9 729.6 783.8 729.9 C 782.7 729.9 784.9 730.1 784.8 730.2 C 786.2 730.2 789.7 730.3 789.6 730.1 C 786.6 730.2 786.4 730.0 785.4 729.8 C 789.8 729.7 793.9 729.8 793.8 730.0 C 793.7 730.0 794.3 729.9 794.5 729.9 C 792.9 729.9 791.6 729.5 793.4 729.5 C 793.2 729.7 794.6 729.8 796.1 729.9 C 796.0 729.6 802.2 730.0 800.9 729.6 C 798.6 729.8 796.4 729.5 798.2 729.3 C 799.9 729.5 803.2 729.7 802.6 729.9 C 803.5 729.8 804.2 729.7 805.0 729.6 C 805.5 729.4 803.7 729.4 803.9 729.2 C 805.1 729.3 806.9 729.2 807.2 729.3 C 804.0 729.3 809.0 729.5 805.8 729.6 C 807.8 729.6 808.4 729.8 810.0 729.8 C 810.0 729.7 810.6 729.7 810.7 729.6 C 809.4 729.8 807.9 729.7 808.1 729.4 C 811.0 729.4 810.7 729.6 813.2 729.6 C 813.8 729.5 817.0 729.1 818.8 729.3 C 815.5 729.3 819.1 729.4 817.3 729.6 C 814.2 729.4 813.6 729.7 812.6 729.9 C 814.0 730.0 816.5 730.1 816.6 729.8 C 815.0 729.8 815.1 729.9 814.2 730.0 C 814.2 729.8 814.6 729.7 815.7 729.6 C 817.2 729.8 820.1 729.6 818.3 730.0 C 820.3 729.8 822.8 730.1 824.9 729.9 C 822.4 729.9 820.6 729.8 819.7 729.6 C 821.7 729.5 823.9 729.7 823.8 729.6 C 823.4 729.3 820.3 729.4 819.5 729.2 C 821.9 729.0 826.3 729.7 822.7 729.2 C 824.2 729.2 826.2 729.2 826.9 729.3 C 825.2 729.3 827.3 729.7 828.1 729.7 C 829.6 729.7 830.8 729.7 831.3 729.6 C 829.0 729.7 827.0 729.3 828.6 729.3 C 829.1 729.5 829.5 729.3 830.2 729.2 C 830.4 729.4 833.0 729.3 833.6 729.4 C 833.3 729.3 832.1 729.3 831.8 729.2 C 833.2 729.1 835.2 728.7 836.6 729.1 C 835.6 729.1 834.3 729.1 834.3 729.2 C 838.8 729.5 840.4 729.8 845.5 730.0 C 844.9 730.0 844.6 730.0 844.8 730.1 C 848.1 730.1 850.3 730.3 850.0 730.4 C 852.0 730.4 852.9 730.3 853.8 730.1 C 851.6 730.0 851.1 730.2 849.7 730.0 C 850.4 730.0 847.7 729.6 846.7 729.4 C 843.4 729.6 842.8 729.2 839.3 729.4 C 840.2 729.1 836.6 729.3 837.5 729.1 C 841.1 729.5 844.1 729.2 849.1 729.3 C 848.6 729.5 848.2 729.7 850.3 729.8 C 853.5 729.9 851.7 729.6 854.3 729.6 C 855.5 729.8 854.0 729.9 855.4 730.0 C 856.2 729.9 858.6 729.9 859.6 730.1 C 856.2 730.1 860.4 730.3 858.3 730.4 C 859.4 730.4 860.1 730.5 860.8 730.5 C 857.3 730.2 863.8 730.2 861.2 730.0 C 865.6 729.8 862.0 730.6 865.7 730.5 C 863.7 730.4 866.0 730.2 868.8 730.3 C 869.7 730.5 872.6 730.6 874.9 730.7 C 873.6 730.5 872.7 730.5 874.7 730.4 C 873.4 730.3 871.5 730.3 870.6 730.4 C 870.5 730.3 870.0 730.2 869.5 730.1 C 872.2 730.1 870.9 730.0 871.8 729.9 C 872.7 730.0 874.7 730.0 875.3 730.1 C 875.2 730.0 875.9 730.0 875.9 730.0 C 872.4 729.9 876.2 729.6 874.0 729.6 C 872.5 729.6 873.6 729.8 871.7 729.8 C 869.6 729.5 872.9 729.5 873.7 729.2 C 871.9 729.0 870.3 729.4 869.5 729.1 C 871.3 728.8 874.8 729.0 877.6 729.1 C 877.2 728.7 882.3 729.2 882.3 728.8 C 882.8 728.9 883.4 728.9 884.1 729.0 C 884.7 728.7 885.9 729.1 886.7 729.1 C 886.6 728.9 886.3 728.8 885.6 728.8 C 889.1 728.9 889.9 728.9 893.7 728.8 C 894.5 728.9 895.4 729.1 895.9 729.2 C 894.9 729.3 894.1 729.3 893.5 729.4 C 899.0 729.4 894.9 728.8 899.1 729.2 C 898.8 729.0 895.9 728.7 897.8 728.7 C 901.5 729.0 906.2 728.7 906.7 729.4 C 909.9 729.6 911.6 729.2 913.3 729.5 C 914.2 729.5 914.5 729.4 914.8 729.3 C 913.7 729.2 912.4 729.0 911.2 728.9 C 909.4 729.0 908.4 728.8 910.5 729.2 C 907.8 729.2 906.9 729.0 905.4 728.9 C 909.0 728.7 912.6 729.0 912.4 728.6 C 913.9 728.7 915.0 728.9 916.2 729.1 C 916.4 728.9 920.6 728.8 921.2 729.1 C 918.2 729.0 915.5 729.3 918.3 729.5 C 921.1 729.4 923.5 729.4 925.8 729.5 C 925.8 726.5 925.9 723.9 925.8 720.3 C 925.9 720.3 926.0 720.9 926.1 719.8 C 925.9 719.7 925.8 719.4 925.8 718.7 C 925.8 717.0 925.9 716.0 925.8 713.4 C 926.1 713.7 926.2 713.4 926.3 712.1 C 926.1 711.2 925.6 708.5 925.7 707.1 C 925.7 708.6 926.0 706.8 926.0 705.7 C 925.7 706.5 926.3 698.8 925.9 701.0 C 925.9 697.8 926.0 696.5 926.2 696.4 C 926.1 695.3 926.0 694.4 926.0 693.3 C 926.3 692.6 926.1 687.1 926.2 686.3 C 926.1 688.2 926.5 688.5 926.5 687.0 C 926.3 686.0 926.1 681.0 926.2 680.0 C 926.3 680.3 926.5 680.6 926.6 683.1 C 926.6 678.9 926.2 679.0 926.0 677.7 C 926.3 677.8 926.0 676.0 926.0 675.4 C 926.2 674.0 926.1 675.4 926.3 675.3 C 926.3 673.8 926.5 673.2 926.5 671.3 C 926.2 671.9 926.3 669.7 926.4 668.9 C 926.2 668.7 926.1 667.7 926.1 666.0 C 926.5 668.1 926.5 655.7 926.2 658.9 C 926.0 656.6 926.5 656.2 926.5 653.1 C 926.4 653.0 926.4 652.7 926.4 652.5 C 926.4 651.9 926.4 651.3 926.2 652.6 C 926.2 652.6 926.2 652.6 926.2 652.6 C 923.6 652.7 925.5 652.3 922.3 652.5 C 923.3 652.8 919.2 652.4 919.5 652.8 C 918.6 652.3 915.5 652.9 913.2 652.5 C 913.2 652.6 912.4 652.6 912.2 652.7 C 911.7 652.8 915.2 652.9 912.9 652.9 C 910.2 652.8 911.8 652.7 911.6 652.5 C 904.0 652.7 895.0 652.5 887.1 652.5 C 887.9 652.6 887.8 652.7 886.1 652.7 C 884.1 652.2 874.6 652.5 873.1 652.6 C 872.4 652.3 867.4 652.6 866.6 652.5 C 867.6 652.5 869.6 652.2 867.6 652.2 C 866.1 652.5 864.6 652.3 862.5 652.5 C 861.8 652.2 855.7 652.6 858.7 652.1 C 857.6 652.1 856.9 652.0 856.3 652.0 C 856.1 652.3 854.9 652.2 856.9 652.4 C 851.7 652.2 850.2 652.4 846.3 652.2 C 845.5 652.4 848.6 652.5 846.1 652.5 C 846.1 652.5 846.2 652.4 846.2 652.4 C 845.3 652.4 844.9 652.5 844.6 652.4 C 844.8 652.2 846.2 652.3 846.4 652.0 C 844.4 652.1 843.2 651.7 842.3 652.0 C 845.1 652.0 842.9 652.5 841.4 652.2 C 843.0 652.1 834.9 652.2 832.3 652.4 C 831.2 652.1 835.1 652.3 834.9 652.1 C 830.1 652.2 830.5 652.1 829.8 652.4 C 827.3 652.3 826.4 652.1 823.3 652.3 C 821.6 652.2 824.4 652.1 822.6 652.1 C 821.5 652.1 820.9 652.3 819.2 652.3 C 815.1 651.8 804.4 652.6 799.7 651.8 C 801.7 652.0 799.0 652.2 796.4 652.1 C 796.2 652.0 796.6 651.9 795.6 651.9 C 795.7 652.1 794.8 652.2 793.1 652.1 C 793.0 652.0 793.3 651.9 792.4 651.9 C 791.6 652.2 789.5 651.9 788.2 652.1 C 787.7 651.8 791.2 651.9 791.5 651.7 C 787.3 651.6 786.5 651.9 783.3 651.7 C 785.0 651.7 782.2 651.5 781.7 651.4 C 782.4 651.7 779.8 651.8 781.6 652.0 C 780.4 652.0 778.6 652.0 778.4 651.9 C 779.0 651.9 780.0 651.9 780.0 651.8 C 778.5 651.9 776.6 651.6 775.9 651.8 C 776.9 651.9 777.5 651.9 777.5 652.1 C 777.1 652.2 776.6 652.2 775.8 652.3 C 778.2 651.7 771.4 652.0 771.0 652.1 C 770.4 651.8 770.0 651.8 770.2 651.6 C 767.4 651.6 767.7 651.8 766.0 651.9 C 766.5 651.6 767.1 651.4 764.5 651.3 C 765.0 651.6 761.8 651.5 762.7 651.9 C 755.9 652.0 754.5 651.6 750.4 651.7 C 750.3 651.8 751.6 651.8 750.4 651.8 C 748.5 651.7 746.8 651.6 745.5 651.5 C 744.5 651.7 745.9 651.8 744.7 651.8 C 741.7 651.6 742.4 651.3 739.8 651.1 C 736.5 651.3 737.7 651.2 735.7 651.4 C 736.6 651.4 737.7 651.6 736.5 651.6 C 734.5 651.4 733.7 651.1 733.2 651.0 C 734.6 651.0 735.7 651.0 736.5 651.1 C 736.9 650.9 739.0 650.9 737.3 650.8 C 739.4 650.8 741.7 650.9 744.7 650.9 C 743.7 650.6 747.4 650.8 746.4 650.5 C 743.0 650.6 742.2 650.4 738.9 650.5 C 739.7 650.7 736.3 650.6 735.6 650.5 C 735.6 650.7 733.4 650.6 734.0 650.9 C 731.5 650.9 731.5 650.7 729.0 650.8 C 728.9 650.7 729.2 650.6 728.2 650.5 C 727.4 650.8 726.5 650.5 725.7 650.5 C 726.3 650.7 722.7 650.6 722.4 650.8 C 723.4 650.8 724.8 650.8 725.0 650.9 C 720.9 650.8 724.2 651.1 725.0 651.3 C 724.8 651.2 726.2 650.8 726.6 651.0 C 723.2 651.2 731.3 651.4 728.3 651.3 C 725.7 651.3 725.9 651.5 723.3 651.4 C 720.2 651.0 723.8 650.7 720.7 650.4 C 718.9 650.6 717.6 650.5 717.5 650.8 C 717.0 650.7 716.5 650.6 715.8 650.5 C 715.0 650.7 718.3 650.8 715.9 650.9 C 714.6 650.8 716.0 650.5 713.3 650.5 C 712.2 650.7 716.6 650.8 714.2 650.9 C 711.5 650.5 714.7 651.0 711.8 651.0 C 711.5 651.0 711.0 650.9 710.1 650.9 C 709.9 650.8 710.3 650.6 709.2 650.6 C 708.7 651.0 708.1 650.4 705.9 650.5 C 704.7 650.8 708.2 650.7 707.6 650.9 C 705.0 650.6 703.7 651.0 702.7 650.9 C 704.6 650.7 699.5 650.8 699.3 650.5 C 699.9 650.8 698.8 650.7 696.0 650.9 C 695.7 650.5 692.6 650.8 691.8 650.5 C 691.4 650.6 690.6 650.7 690.2 650.8 C 691.2 650.8 692.2 650.8 691.9 650.9 C 691.1 650.9 690.3 650.9 689.4 650.9 C 688.0 650.7 691.4 650.2 685.9 650.3 C 686.7 650.6 684.3 650.7 682.8 650.8 C 683.1 651.1 685.0 650.8 685.3 650.9 C 683.5 651.1 681.5 650.9 680.3 650.8 C 677.2 650.9 673.3 650.7 668.8 650.9 C 667.6 650.7 672.6 650.7 669.5 650.5 C 668.2 650.5 668.9 650.7 667.1 650.7 C 668.3 649.6 654.6 650.5 653.5 650.1 C 653.0 650.3 649.0 650.1 649.6 650.5 C 652.1 650.2 654.1 650.5 655.5 650.7 C 657.9 650.6 653.1 650.5 655.3 650.4 C 655.7 650.5 659.0 650.4 658.8 650.6 C 655.2 650.6 660.7 650.9 658.2 651.1 C 654.9 651.0 648.5 651.3 649.9 651.0 C 649.9 651.1 651.4 651.1 651.5 651.0 C 647.7 650.9 645.6 651.1 644.2 651.3 C 642.4 651.1 636.0 651.4 637.6 651.3 C 636.9 651.0 641.6 651.3 640.8 651.1 C 633.9 651.0 633.9 651.2 629.3 651.0 C 630.9 651.3 624.8 651.4 625.3 651.3 C 625.1 651.1 623.7 650.9 621.1 651.2 C 621.3 650.9 619.8 650.8 618.3 650.8 C 617.9 651.0 619.7 651.0 619.5 651.2 C 618.1 651.2 616.7 651.2 615.3 651.2 C 615.2 651.1 615.3 651.0 614.3 650.9 C 612.9 651.1 607.5 651.3 607.9 651.2 C 610.0 650.9 603.9 650.9 607.6 650.7 C 606.5 650.7 606.4 650.6 605.0 650.6 C 605.1 650.7 605.2 650.8 605.3 650.9 C 602.2 651.0 603.4 650.6 600.8 650.5 C 600.7 650.7 599.6 650.7 599.3 650.8 C 600.4 650.8 600.4 650.7 601.8 650.7 C 600.6 651.1 604.7 650.9 604.6 651.2 C 601.8 651.2 601.6 651.0 600.3 650.9 C 596.8 651.0 598.4 650.9 594.5 650.9 C 594.6 651.0 595.6 651.0 595.5 651.1 C 590.8 651.0 590.8 650.5 587.8 650.7 C 588.5 650.7 591.2 650.5 589.2 650.5 C 587.1 650.6 586.7 650.8 583.8 650.9 C 583.5 650.8 583.7 650.6 582.7 650.6 C 581.6 650.7 581.7 650.9 580.6 651.0 C 580.3 650.9 578.7 651.0 578.1 651.0 C 576.9 650.8 578.3 650.8 577.0 650.7 C 574.6 650.7 573.8 651.3 571.7 651.2 C 571.5 650.9 569.3 651.0 567.4 651.0 C 566.7 650.7 562.5 650.8 559.6 650.7 C 560.1 650.8 559.5 650.9 558.9 650.9 C 559.0 651.5 559.0 652.0 559.1 651.8 C 559.1 651.5 559.1 651.3 559.1 651.1 C 560.1 651.1 560.7 651.2 561.0 651.3 C 560.4 651.3 559.8 651.3 559.2 651.2 C 559.1 653.1 558.9 653.8 559.2 656.0 C 559.0 657.1 558.9 658.4 558.8 660.5 C 558.9 660.9 559.1 656.9 559.1 659.2 C 559.0 659.3 559.1 660.1 559.1 660.8 C 558.9 660.3 558.8 662.0 558.6 662.9 C 558.8 665.0 558.5 668.7 558.8 667.1 C 558.9 670.2 558.4 667.9 558.4 670.2 C 558.8 669.3 558.8 673.3 559.0 671.4 C 559.0 674.6 558.6 674.1 558.5 672.7 C 558.4 675.5 558.6 676.3 558.5 677.7 C 558.7 676.5 558.9 681.0 558.7 678.6 C 558.5 677.7 558.6 681.2 558.5 681.8 C 558.7 680.9 558.7 682.4 558.8 680.4 C 558.9 682.6 558.9 685.8 558.6 687.7 C 558.8 690.5 558.8 693.1 558.6 691.7 C 558.6 694.3 558.6 693.4 558.6 695.9 C 558.6 696.0 558.7 695.2 558.7 695.1 C 558.7 698.7 558.6 697.9 558.6 702.5 C 558.3 701.9 558.3 704.9 558.1 705.7 C 558.1 703.7 558.2 702.2 558.2 700.7 C 558.1 700.3 558.0 701.9 558.0 700.6 C 558.1 700.5 558.1 699.8 558.2 699.1 C 557.9 702.0 557.7 695.0 558.0 697.3 C 558.0 697.3 557.9 697.4 557.9 698.1 C 558.2 697.6 558.1 697.6 558.3 698.2 C 558.2 696.7 558.6 695.6 558.3 694.9 C 558.2 695.0 558.2 696.4 558.2 696.6 C 558.0 692.7 558.5 695.6 558.4 692.5 C 558.1 691.8 558.1 693.3 557.9 693.9 C 557.9 691.2 557.9 688.8 558.1 688.2 C 558.0 685.6 557.9 688.2 557.8 686.4 C 557.9 685.5 558.1 685.7 558.1 684.0 C 558.0 682.1 557.9 685.0 557.8 683.1 C 558.0 681.2 558.2 684.7 558.2 681.6 C 557.9 682.1 558.3 678.9 558.1 679.0 C 558.1 680.8 557.8 680.6 558.0 679.9 C 558.3 676.0 557.4 672.6 558.0 669.0 C 557.9 668.9 557.9 668.3 557.8 668.1 C 557.7 670.9 557.7 675.4 557.3 676.0 C 557.4 678.5 557.6 678.3 557.7 678.8 C 557.4 681.4 557.3 681.2 557.0 679.2 C 556.9 674.3 557.1 672.4 557.2 669.3 C 557.0 667.4 557.1 669.4 557.0 669.9 C 557.2 660.2 556.5 667.2 556.6 663.7 C 556.7 663.9 556.8 663.2 556.8 662.2 C 556.7 662.1 556.7 660.7 556.6 660.4 C 556.6 661.0 556.6 661.3 556.5 661.1 C 556.4 658.5 556.7 659.7 556.8 659.7 C 556.8 661.5 556.8 662.8 557.0 663.2 C 556.8 660.6 557.1 658.9 556.8 657.1 C 557.1 655.1 557.5 659.0 557.8 658.0 C 557.9 658.6 557.1 655.9 557.0 654.0 C 557.1 651.3 556.9 650.8 556.8 648.8 C 557.1 648.8 557.4 648.8 557.7 648.8 C 558.2 648.9 557.6 648.9 557.0 648.9 C 557.0 649.8 557.0 650.7 557.1 650.7 C 557.1 649.9 557.2 649.8 557.2 649.2 C 557.2 649.2 557.3 649.2 557.3 649.2 C 559.2 649.1 558.9 648.9 560.3 648.9 C 561.4 649.1 561.7 649.0 562.8 648.9 C 564.8 649.0 561.9 649.0 563.9 649.1 C 566.0 649.2 567.1 648.8 567.8 648.9 C 568.1 648.9 567.9 649.1 568.9 649.1 C 571.1 648.9 571.6 648.9 568.6 648.8 C 571.2 648.8 572.2 648.7 571.6 648.4 C 567.7 648.4 566.7 648.5 564.6 648.1 C 564.1 648.4 562.8 648.2 561.3 648.1 C 562.6 648.6 559.6 648.1 559.0 648.4 C 560.0 648.4 561.0 648.5 561.7 648.5 C 558.8 648.5 557.9 648.5 556.6 648.6 C 556.7 649.3 556.8 650.1 556.9 651.3 C 556.8 651.2 556.7 651.5 556.6 651.9 C 556.6 651.1 556.6 649.6 556.5 648.5 C 557.0 648.5 557.4 648.4 557.3 648.4 C 556.9 648.3 556.6 648.3 556.3 648.3 C 556.2 649.9 556.5 651.2 556.2 653.2 C 556.4 654.6 556.5 651.3 556.6 653.5 C 556.4 654.4 556.3 655.7 556.2 657.4 C 556.2 659.2 556.3 660.3 556.4 661.8 C 556.3 661.9 556.2 662.0 556.2 663.4 C 556.3 663.4 556.4 662.1 556.5 663.6 C 556.2 667.8 555.9 670.7 556.1 675.2 C 556.2 673.7 556.4 670.3 556.4 672.1 C 556.2 673.9 556.6 676.9 556.3 678.8 C 556.2 679.4 556.4 676.4 556.0 676.8 C 556.0 678.9 556.0 680.1 555.9 681.0 C 556.1 681.1 556.0 683.4 556.2 683.0 C 556.3 681.3 556.0 680.7 556.1 680.3 C 556.8 682.1 555.9 686.4 555.8 689.6 C 555.9 691.7 556.1 688.1 556.2 690.5 C 556.3 692.1 555.7 692.7 555.6 690.3 C 555.7 688.7 555.4 687.9 555.7 687.7 C 555.7 687.0 555.7 686.1 555.6 686.0 C 555.6 687.2 555.4 686.8 555.4 687.6 C 555.4 685.9 554.9 685.4 555.2 684.0 C 555.2 685.1 555.3 685.4 555.4 685.9 C 555.3 681.2 555.5 679.9 555.6 677.4 C 555.4 678.7 555.5 677.3 555.3 677.2 C 555.3 679.3 555.2 682.9 555.1 680.5 C 555.4 679.2 554.7 677.5 555.0 676.2 C 555.0 677.4 555.1 677.3 555.2 678.0 C 555.2 676.3 555.4 676.5 555.4 674.7 C 555.1 668.8 555.7 665.1 555.2 655.7 C 555.2 652.6 555.3 658.6 555.5 658.6 C 555.5 657.6 555.6 657.5 555.6 656.9 C 555.3 656.5 555.6 655.3 555.4 654.1 C 555.6 654.5 555.4 650.1 555.6 648.3 C 555.5 648.1 555.4 648.2 555.4 647.3 C 555.4 647.3 555.4 647.3 555.5 647.3 C 562.0 647.7 572.7 647.2 577.5 647.5 C 577.2 647.3 579.2 647.3 579.7 647.2 C 582.7 647.2 581.5 647.4 585.6 647.2 C 587.7 647.1 585.3 647.3 585.0 647.4 C 591.3 647.3 597.1 647.5 600.9 647.3 C 602.8 647.2 601.0 647.4 605.2 647.5 C 605.0 647.1 612.0 647.7 612.6 647.3 C 615.1 647.2 620.0 647.7 617.7 647.3 C 621.2 647.3 619.1 647.6 620.5 647.6 C 622.8 647.6 619.3 647.0 621.7 647.0 C 621.6 647.3 623.6 647.2 625.3 647.4 C 623.4 647.4 622.2 647.4 622.1 647.6 C 623.6 647.4 623.7 647.6 626.2 647.6 C 628.1 647.4 633.7 647.2 635.5 647.6 C 635.5 647.5 635.0 647.4 634.5 647.3 C 636.2 647.3 638.3 647.6 637.9 647.3 C 641.6 647.2 643.4 647.5 645.4 647.3 C 647.0 647.2 645.0 647.5 649.8 647.5 C 649.8 647.3 658.3 647.3 660.7 647.5 C 660.6 647.2 661.3 647.5 662.3 647.5 C 662.5 647.4 662.2 647.3 663.1 647.3 C 663.3 647.3 664.1 647.3 664.8 647.3 C 664.4 647.6 667.8 647.1 668.2 647.4 C 667.5 647.4 667.6 647.6 668.3 647.7 C 668.4 647.4 672.1 647.8 671.6 647.6 C 670.9 647.5 668.5 647.6 669.1 647.3 C 672.3 647.2 671.1 647.6 673.3 647.6 C 673.1 647.5 671.8 647.4 673.3 647.3 C 675.6 647.4 673.4 647.4 675.0 647.6 C 676.2 647.5 678.3 647.3 679.2 647.3 C 678.9 647.3 679.7 647.5 680.0 647.5 C 684.4 647.6 694.2 647.3 698.5 647.7 C 698.8 647.5 699.7 647.5 699.3 647.3 C 701.9 647.5 701.7 647.4 704.4 647.5 C 704.4 647.4 704.3 647.3 704.3 647.2 C 707.6 647.1 704.7 647.5 706.9 647.5 C 707.1 646.9 708.3 647.7 710.3 647.7 C 710.5 647.6 711.5 647.5 711.1 647.3 C 714.3 647.3 714.2 647.7 717.0 647.6 C 716.3 647.5 715.7 646.8 716.0 646.5 C 716.5 646.7 717.4 646.7 718.6 646.8 C 717.2 647.0 718.1 647.9 722.1 647.7 C 719.9 647.7 719.1 647.6 719.5 647.4 C 722.6 647.4 723.6 647.6 726.3 647.6 C 726.6 647.3 724.8 647.3 725.4 647.0 C 726.0 647.0 726.4 647.0 726.2 646.9 C 729.0 646.9 729.1 647.1 732.1 646.9 C 732.1 647.1 731.5 647.1 730.4 647.0 C 730.6 647.2 730.6 647.4 728.8 647.4 C 728.5 647.3 729.6 647.0 727.0 647.1 C 727.0 647.2 727.1 647.4 727.1 647.5 C 729.0 647.5 733.4 647.7 733.8 647.6 C 732.9 647.5 731.4 647.4 732.1 647.2 C 735.3 647.2 736.3 647.5 738.9 647.7 C 743.5 647.6 751.6 647.6 750.6 647.3 C 753.4 647.4 752.4 647.4 754.9 647.4 C 754.1 647.2 757.7 647.3 757.4 647.1 C 754.4 647.2 755.3 647.1 752.3 647.2 C 752.4 647.0 752.9 646.9 754.1 646.9 C 754.2 647.0 755.5 647.0 757.4 647.0 C 757.1 647.0 755.3 646.7 757.5 646.7 C 757.6 646.8 758.1 646.8 759.1 646.8 C 759.1 646.9 759.1 647.0 759.1 647.2 C 757.9 647.3 756.5 647.3 755.7 647.4 C 756.5 647.4 756.7 647.5 757.4 647.5 C 757.9 647.4 761.3 647.5 761.6 647.3 C 760.2 647.4 759.3 647.2 760.8 647.2 C 761.0 647.2 763.3 647.3 764.1 647.2 C 761.2 647.1 762.4 647.0 760.8 646.8 C 764.2 646.7 763.7 647.0 767.5 646.9 C 767.6 647.1 767.6 647.3 766.6 647.4 C 769.0 647.9 774.8 647.4 776.6 647.5 C 775.3 647.5 773.8 647.8 775.8 647.8 C 775.8 647.7 777.3 647.7 777.5 647.7 C 778.3 647.2 776.6 647.0 775.1 646.7 C 776.7 646.7 777.1 646.6 778.5 646.6 C 779.0 646.8 777.4 647.1 779.2 647.2 C 779.7 646.8 782.8 647.1 783.5 646.9 C 782.2 646.9 781.3 646.8 782.7 646.7 C 782.4 646.9 785.2 646.8 785.2 646.9 C 783.0 647.1 782.4 647.3 781.0 647.3 C 782.7 647.3 779.6 647.5 782.5 647.5 C 783.9 647.3 784.6 647.1 787.7 647.1 C 788.9 647.1 787.7 647.4 789.3 647.4 C 788.9 647.2 792.3 647.1 790.2 647.3 C 791.4 647.3 792.0 647.4 792.6 647.4 C 791.1 647.2 799.1 646.9 797.9 646.7 C 797.8 647.0 798.2 647.3 798.6 647.4 C 800.2 647.1 801.9 647.4 806.2 647.3 C 806.1 647.0 806.9 647.3 808.7 647.3 C 809.1 647.1 807.5 647.1 808.8 647.0 C 810.8 647.1 810.9 647.1 811.2 647.3 C 812.7 647.3 813.9 647.3 814.6 647.3 C 814.7 647.2 814.2 647.2 813.8 647.1 C 819.4 647.4 822.5 647.1 827.3 647.1 C 825.3 647.0 824.7 647.4 826.4 647.3 C 827.4 647.3 828.3 647.3 828.9 647.2 C 827.9 646.9 828.3 647.1 830.7 647.1 C 832.9 647.0 830.0 646.7 831.7 646.7 C 833.4 646.8 832.3 646.9 833.3 647.0 C 834.1 647.0 835.0 647.0 835.8 647.0 C 834.3 646.9 836.1 646.8 837.6 646.7 C 836.4 647.0 837.0 647.0 840.0 646.9 C 840.3 647.1 838.7 647.1 839.9 647.2 C 840.5 647.2 843.0 646.9 845.0 647.1 C 844.3 647.1 843.9 647.2 844.1 647.3 C 846.4 647.1 847.9 647.4 849.8 647.5 C 848.0 647.3 849.1 647.1 848.4 646.9 C 850.3 647.2 852.8 646.9 854.2 647.2 C 851.4 647.1 853.8 647.7 855.6 647.7 C 856.2 647.4 853.1 647.5 854.2 647.2 C 855.3 647.0 857.3 647.3 858.4 647.1 C 858.4 647.0 857.1 647.2 856.8 647.0 C 858.4 647.0 856.4 646.9 857.7 646.9 C 858.4 647.1 859.5 646.8 860.3 646.8 C 861.4 646.9 863.4 647.2 864.4 647.0 C 864.5 646.9 863.0 647.0 862.8 646.9 C 867.6 646.7 868.7 647.1 873.0 646.8 C 873.4 646.9 874.2 647.0 875.4 647.0 C 875.4 646.9 876.2 646.8 877.2 646.8 C 878.9 646.9 880.6 647.0 882.9 647.1 C 882.3 647.3 881.2 647.4 884.3 647.4 C 884.5 647.3 883.2 647.3 884.4 647.3 C 884.4 647.3 885.1 647.4 885.3 647.3 C 885.4 647.2 885.4 647.2 885.4 647.1 C 884.5 647.1 883.7 647.1 882.9 647.1 C 883.1 647.0 882.9 646.9 882.3 646.8 C 886.1 646.7 885.5 647.2 888.0 646.9 C 888.1 647.3 888.9 647.4 886.7 647.7 C 888.8 647.6 890.4 647.5 891.1 647.3 C 888.6 647.3 889.6 647.0 889.0 646.9 C 890.6 646.9 890.7 646.8 891.6 646.7 C 893.3 646.9 889.3 647.1 892.9 647.2 C 890.4 646.9 895.4 646.9 897.2 647.0 C 897.0 646.9 896.4 646.9 897.4 646.8 C 902.6 646.6 901.5 647.5 904.8 647.0 C 904.4 647.2 905.8 647.2 906.3 647.3 C 903.8 647.3 903.1 647.4 902.0 647.4 C 902.1 647.5 902.8 647.6 903.5 647.6 C 903.6 647.4 904.3 647.4 905.3 647.5 C 906.2 647.4 906.2 647.0 908.4 646.8 C 908.5 646.9 908.1 647.0 909.1 647.0 C 910.2 646.8 908.0 647.4 912.2 647.4 C 911.5 647.3 911.2 647.1 911.7 647.0 C 913.8 646.9 913.2 647.0 916.0 646.9 C 916.6 647.3 913.7 647.3 912.8 647.6 C 914.6 647.5 916.3 647.3 918.0 647.4 C 916.7 647.3 918.3 647.1 920.0 647.0 C 921.4 647.1 919.6 647.4 921.3 647.4 C 922.8 647.4 923.7 647.2 922.5 647.0 C 925.6 647.1 925.1 646.8 927.7 646.9 C 927.6 647.0 926.9 647.0 926.0 647.0 C 926.1 647.1 925.6 647.2 926.6 647.2 C 927.9 647.1 930.0 647.0 931.9 646.9 C 932.0 647.9 932.0 648.8 932.1 649.4 C 931.6 653.8 932.2 658.0 932.0 662.1 C 931.7 660.6 931.9 667.4 931.7 669.5 C 931.7 670.7 932.3 674.2 932.1 672.9 C 931.7 673.4 931.8 675.7 931.7 677.5 C 931.8 677.5 931.9 677.5 932.0 677.5 C 932.0 681.5 931.8 682.4 931.6 683.8 C 931.8 688.6 931.4 693.9 931.7 699.8 C 931.4 701.3 931.4 702.6 931.3 706.0 C 931.5 706.0 931.5 708.7 931.5 711.3 C 931.7 710.8 931.7 713.2 931.8 713.3 C 931.8 711.0 932.1 712.0 932.2 710.8 C 932.0 713.8 932.5 715.7 932.2 718.0 C 932.1 714.9 931.8 713.7 931.4 713.1 C 931.5 716.8 931.4 718.6 931.2 719.2 C 931.4 719.6 931.5 719.2 931.6 718.5 C 931.6 719.7 931.6 720.9 931.6 722.1 C 931.4 722.3 931.4 720.6 931.3 721.9 C 931.4 722.8 931.5 723.8 931.6 724.8 C 931.3 725.6 931.4 723.2 931.3 722.8 C 931.2 727.4 931.7 725.8 931.7 728.5 C 931.6 729.0 931.3 728.6 931.3 730.7 C 931.4 731.7 931.6 732.2 931.7 734.6 C 931.6 735.2 931.6 735.3 931.5 735.3 C 931.3 735.2 931.5 735.0 930.3 735.0 C 930.2 735.1 929.4 735.0 928.6 735.0 C 928.8 735.1 928.2 735.2 927.2 735.2 C 926.9 735.1 925.3 735.2 924.7 735.2 C 924.4 735.1 921.5 734.8 921.1 735.0 C 921.2 735.1 922.7 735.1 922.9 735.1 C 921.0 735.1 919.8 735.2 918.9 735.2 C 917.7 734.7 915.1 735.1 911.0 734.8 C 908.8 735.0 911.9 735.2 909.0 735.4 C 907.1 735.2 909.2 735.2 908.6 734.9 C 908.0 734.9 905.1 734.7 905.2 734.9 C 905.3 735.0 906.7 735.0 907.0 735.1 C 905.0 735.3 904.8 735.0 903.5 734.9 C 903.9 735.1 902.4 735.2 902.3 735.3 C 896.4 735.5 896.1 735.0 893.4 734.8 C 893.5 734.9 892.0 734.9 892.0 735.0 C 893.6 734.9 896.1 735.1 893.7 735.1 C 894.0 735.0 890.6 735.2 890.5 735.2 C 891.0 735.4 893.1 735.3 892.5 735.5 C 889.4 735.6 890.2 735.2 888.1 735.4 C 887.7 735.2 889.1 735.2 889.6 735.1 C 888.6 735.1 887.2 735.2 887.0 735.1 C 888.1 735.0 888.0 734.8 888.3 734.7 C 886.9 734.9 883.8 734.7 886.1 735.0 C 882.7 734.9 879.7 735.1 882.2 735.3 C 879.5 735.4 880.8 735.0 878.8 735.2 C 878.8 735.0 879.4 734.8 877.4 734.6 C 877.2 734.7 875.8 734.8 876.1 735.0 C 872.1 735.0 870.8 734.7 869.0 734.5 C 870.7 734.9 868.5 734.6 866.8 734.8 C 865.5 734.7 866.4 734.4 863.2 734.5 C 867.0 734.8 859.2 734.6 861.1 735.0 C 856.8 734.8 856.9 734.8 852.5 734.7 C 852.8 734.6 853.7 734.5 855.6 734.4 C 854.5 734.7 859.4 734.6 859.0 734.5 C 858.9 734.5 858.9 734.4 858.8 734.3 C 855.7 734.4 853.6 734.3 852.1 734.2 C 851.6 734.4 850.2 734.5 850.9 734.7 C 847.6 734.4 844.8 734.9 843.2 734.6 C 844.3 734.6 845.2 734.6 844.8 734.4 C 843.6 734.5 842.2 734.5 842.5 734.7 C 845.0 734.8 845.5 734.8 846.6 734.7 C 845.7 734.9 849.3 735.0 846.9 735.1 C 846.7 734.7 842.1 735.3 843.5 735.0 C 846.1 734.8 840.3 734.8 840.0 734.6 C 840.0 734.6 840.0 734.6 840.0 734.6 Z M 555.4 675.6 C 555.6 678.2 555.8 675.2 555.8 673.3 C 555.7 673.8 555.6 674.0 555.4 673.9 C 555.5 674.7 555.5 675.5 555.4 675.6 C 555.4 675.6 555.4 675.6 555.4 675.6 Z M 559.0 651.6 C 558.7 650.5 558.9 654.8 558.8 656.4 C 558.9 656.0 558.9 655.5 559.0 656.6 C 559.2 655.0 558.7 654.0 559.0 651.6 C 559.0 651.6 559.0 651.6 559.0 651.6 Z M 649.4 650.1 C 648.8 650.1 647.2 650.2 647.0 650.1 C 646.0 650.1 646.3 650.2 646.2 650.3 C 644.3 650.3 646.5 649.9 643.6 650.1 C 642.7 650.5 649.0 650.6 649.4 650.1 C 649.4 650.1 649.4 650.1 649.4 650.1 Z M 868.6 731.0 C 867.3 730.9 869.9 730.7 868.9 730.4 C 864.5 730.6 868.3 730.9 861.9 730.8 C 862.3 730.9 862.9 731.0 862.9 731.1 C 865.8 731.0 865.9 730.8 865.5 731.2 C 866.9 731.2 866.8 730.7 868.6 731.0 C 868.6 731.0 868.6 731.0 868.6 731.0 Z M 808.5 730.0 C 809.0 730.0 809.4 730.1 809.5 730.2 C 811.4 730.1 810.9 730.0 813.6 730.1 C 813.0 729.8 810.5 729.8 808.5 730.0 C 808.5 730.0 808.5 730.0 808.5 730.0 Z M 652.1 729.4 C 651.6 729.4 651.0 729.4 650.4 729.4 C 650.9 729.6 649.4 729.9 652.2 729.8 C 652.4 729.7 651.9 729.7 651.4 729.7 C 651.9 729.6 653.2 729.6 652.9 729.5 C 652.2 729.5 652.1 729.5 652.1 729.4 C 652.1 729.4 652.1 729.4 652.1 729.4 Z M 586.5 731.6 C 589.7 731.4 581.8 730.8 586.5 731.6 C 586.5 731.6 586.5 731.6 586.5 731.6 C 586.5 731.6 586.5 731.6 586.5 731.6 Z M 593.5 734.4 C 593.6 734.5 594.3 734.5 594.3 734.4 C 597.1 734.5 594.4 734.6 596.0 734.8 C 598.1 734.6 594.8 734.3 597.6 734.2 C 597.0 734.1 595.1 734.4 593.5 734.4 C 593.5 734.4 593.5 734.4 593.5 734.4 Z M 901.3 647.2 C 899.0 647.3 898.1 647.5 897.5 647.7 C 899.0 647.7 900.3 647.8 900.7 647.9 C 903.8 647.8 898.9 647.7 898.5 647.7 C 899.0 647.4 901.1 647.4 901.3 647.2 C 901.3 647.2 901.3 647.2 901.3 647.2 Z M 893.7 647.3 C 892.6 647.4 891.1 647.5 890.8 647.7 C 892.3 647.6 892.4 647.7 892.4 647.8 C 893.8 647.7 892.3 647.5 893.7 647.3 C 893.7 647.3 893.7 647.3 893.7 647.3 Z M 907.8 647.5 C 906.7 647.5 906.9 647.7 906.7 647.8 C 908.2 647.8 908.4 647.9 909.9 647.9 C 910.0 647.8 910.1 647.7 910.2 647.7 C 908.9 647.6 908.7 647.7 907.6 647.7 C 907.6 647.7 907.7 647.6 907.8 647.5 C 907.8 647.5 907.8 647.5 907.8 647.5 Z M 885.9 647.6 C 881.5 647.5 879.2 648.0 876.1 648.3 C 879.4 648.3 882.6 647.8 884.8 647.9 C 887.6 647.8 884.0 647.7 884.1 647.7 C 884.3 647.6 885.2 647.6 885.9 647.6 C 885.9 647.6 885.9 647.6 885.9 647.6 Z M 847.2 647.6 C 846.4 647.4 844.6 647.8 842.1 647.7 C 842.5 647.8 842.9 647.9 842.9 648.0 C 846.4 648.1 844.5 647.6 847.2 647.6 C 847.2 647.6 847.2 647.6 847.2 647.6 Z M 826.2 647.7 C 824.0 647.8 827.3 647.9 826.1 648.1 C 828.5 648.1 831.1 648.1 831.2 647.8 C 828.5 648.0 827.9 648.0 826.2 647.7 C 826.2 647.7 826.2 647.7 826.2 647.7 Z M 811.1 647.7 C 808.6 647.9 812.0 648.0 810.9 648.3 C 811.8 648.3 811.6 648.1 811.8 648.1 C 812.5 648.1 813.1 648.1 814.3 648.1 C 813.5 648.0 810.6 648.0 811.1 647.7 C 811.1 647.7 811.1 647.7 811.1 647.7 Z M 931.0 680.4 C 930.9 678.8 930.6 679.3 930.7 676.1 C 930.7 681.0 930.0 678.5 930.1 684.9 C 930.2 683.8 930.3 684.5 930.2 684.8 C 930.3 687.3 930.3 682.5 930.6 684.8 C 930.5 683.0 930.3 684.1 930.2 682.3 C 930.5 680.4 930.6 679.3 931.0 680.4 C 931.0 680.4 931.0 680.4 931.0 680.4 Z M 929.8 684.9 C 929.8 686.6 930.3 686.6 930.0 687.5 C 930.0 688.3 930.1 688.1 930.2 688.3 C 930.2 687.6 930.2 687.5 930.2 687.4 C 930.2 685.9 930.1 684.4 929.8 684.9 C 929.8 684.9 929.8 684.9 929.8 684.9 Z M 929.8 668.6 C 930.0 671.5 929.8 672.4 930.0 673.7 C 929.6 674.9 930.2 675.6 929.8 677.2 C 929.9 680.0 930.0 677.9 930.2 677.1 C 930.3 679.9 929.9 677.9 930.0 680.6 C 930.3 681.0 930.2 677.5 930.5 677.8 C 930.5 675.7 930.3 675.8 930.2 674.5 C 930.3 673.5 930.4 673.7 930.5 673.5 C 930.4 671.1 930.6 671.2 930.6 669.2 C 930.4 668.8 930.3 669.7 930.3 671.9 C 930.2 669.6 930.0 668.7 930.2 665.9 C 930.4 667.7 930.5 659.0 930.1 659.9 C 930.0 662.3 930.2 661.5 930.3 662.4 C 930.1 665.5 930.1 667.4 929.8 668.6 C 929.8 668.6 929.8 668.6 929.8 668.6 Z M 908.0 648.3 C 907.3 648.3 906.6 648.2 905.5 648.2 C 905.6 648.0 907.0 648.1 905.8 647.9 C 904.0 647.9 903.5 648.0 902.4 648.0 C 902.9 648.1 906.4 648.4 904.4 648.5 C 904.9 648.6 906.1 648.6 907.6 648.6 C 906.1 648.3 910.1 648.6 911.8 648.6 C 912.0 648.2 914.7 648.7 916.1 648.5 C 915.4 648.2 911.7 648.5 910.3 648.5 C 911.0 648.4 906.6 647.9 908.0 648.3 C 908.0 648.3 908.0 648.3 908.0 648.3 Z M 930.0 691.7 C 930.1 692.2 930.1 694.2 930.2 692.7 C 930.3 693.4 930.1 695.0 930.5 694.4 C 930.5 695.3 930.5 696.1 930.5 697.0 C 930.4 696.6 930.4 694.3 930.2 695.2 C 930.3 697.0 930.2 696.3 930.2 698.6 C 929.9 697.3 929.9 698.7 929.6 697.7 C 929.7 698.4 929.7 700.5 929.9 700.3 C 929.9 703.6 929.6 699.4 929.6 703.7 C 929.4 703.5 929.4 700.5 929.5 699.4 C 929.3 698.8 929.4 704.7 929.4 707.8 C 929.6 705.1 929.8 707.4 930.0 708.9 C 929.9 709.9 929.8 708.8 929.7 710.5 C 929.7 711.9 929.8 712.7 929.7 713.1 C 929.7 714.3 929.9 713.9 930.0 714.1 C 930.0 716.1 929.6 714.4 929.7 717.3 C 930.0 715.4 930.1 717.9 930.0 721.8 C 930.1 721.6 930.1 720.4 930.2 720.3 C 930.4 721.0 930.1 723.0 930.0 723.6 C 930.1 725.0 930.2 724.2 930.2 722.8 C 930.2 723.7 930.3 724.6 930.4 725.6 C 930.4 721.3 930.4 714.5 930.7 706.6 C 930.5 708.1 930.5 706.3 930.6 704.0 C 930.7 703.7 930.7 704.7 930.7 705.8 C 931.0 703.1 930.4 703.1 930.6 698.8 C 930.6 696.4 930.7 701.5 930.9 698.8 C 930.8 697.2 930.6 696.1 930.9 695.3 C 930.8 692.5 930.5 691.7 930.5 687.4 C 930.4 689.9 929.8 691.0 929.9 693.5 C 930.0 693.5 930.0 692.4 930.0 691.7 C 930.0 691.7 930.0 691.7 930.0 691.7 Z M 892.3 648.0 C 890.8 648.0 890.0 648.1 889.8 648.0 C 887.2 648.1 889.9 648.2 890.3 648.3 C 891.5 648.2 892.0 648.1 892.3 648.0 C 892.3 648.0 892.3 648.0 892.3 648.0 Z M 637.5 648.0 C 634.2 647.9 635.1 648.2 632.5 648.2 C 634.6 648.3 635.2 648.5 638.5 648.5 C 638.6 648.3 638.5 648.1 637.5 648.0 C 637.5 648.0 637.5 648.0 637.5 648.0 Z M 900.5 648.1 C 902.8 647.9 897.8 648.4 898.0 648.2 C 895.5 648.4 900.1 648.4 897.7 648.6 C 899.8 648.5 900.9 648.7 903.5 648.5 C 903.6 648.4 901.5 648.4 899.5 648.4 C 899.4 648.2 900.4 648.2 900.5 648.1 C 900.5 648.1 900.5 648.1 900.5 648.1 Z M 670.4 648.6 C 672.5 648.4 668.2 648.2 666.8 648.1 C 666.9 648.4 667.5 648.3 670.4 648.6 C 670.4 648.6 670.4 648.6 670.4 648.6 Z M 615.9 648.4 C 614.9 648.7 619.7 648.4 618.6 648.7 C 620.1 648.7 620.2 648.6 620.2 648.5 C 621.0 648.6 623.4 648.6 622.8 648.8 C 623.4 649.0 619.1 648.7 620.6 649.0 C 619.2 649.0 619.1 648.9 618.0 648.9 C 620.4 649.0 619.1 648.7 616.1 648.6 C 616.2 648.8 617.6 648.8 616.3 648.9 C 616.0 648.8 614.4 648.6 614.2 648.3 C 611.6 648.3 613.5 648.7 610.3 648.7 C 610.7 648.9 612.6 648.9 613.8 648.9 C 613.7 649.2 610.4 648.7 611.4 649.1 C 610.6 648.9 608.8 648.8 608.5 648.5 C 610.8 648.4 612.2 648.3 614.1 648.1 C 612.2 648.0 610.0 648.6 606.7 648.3 C 607.2 648.5 605.3 648.5 606.1 648.7 C 603.6 648.6 604.5 648.3 605.0 648.3 C 604.2 648.1 599.6 648.3 600.1 648.5 C 599.6 648.3 593.9 648.3 594.4 648.6 C 592.5 648.4 590.2 648.8 589.2 648.5 C 588.3 648.6 586.4 648.6 584.2 648.5 C 583.9 648.8 587.4 648.7 587.8 648.9 C 588.7 649.1 583.9 648.8 584.6 649.0 C 584.7 649.1 584.7 649.1 584.8 649.2 C 586.4 649.1 588.1 649.0 589.6 648.9 C 590.9 649.0 589.4 649.0 589.8 649.2 C 590.8 649.0 595.9 648.7 596.5 649.2 C 599.9 649.1 602.5 649.1 603.8 648.9 C 606.0 649.0 602.7 649.1 604.1 649.3 C 610.1 648.9 618.0 649.3 623.0 648.9 C 624.1 649.0 623.8 649.1 624.1 649.3 C 631.1 649.1 624.8 648.8 630.5 648.9 C 630.6 649.1 627.9 649.0 628.2 649.3 C 630.1 649.3 630.5 649.1 633.2 649.2 C 633.1 649.1 633.1 649.0 633.0 648.9 C 635.1 648.9 634.5 649.2 635.7 649.3 C 638.3 649.2 637.6 649.0 639.0 649.3 C 641.5 649.2 643.9 649.1 646.5 649.3 C 648.2 649.1 644.7 648.7 642.0 648.7 C 642.1 648.6 642.9 648.6 642.8 648.5 C 646.0 648.7 646.8 649.2 651.5 649.3 C 647.8 649.0 653.3 649.1 654.0 649.3 C 656.0 649.3 654.4 649.0 653.1 649.0 C 653.3 648.9 654.5 649.0 654.7 649.1 C 654.8 648.7 650.2 648.6 645.4 648.7 C 647.4 648.3 642.0 648.7 644.3 648.2 C 640.4 648.3 643.9 648.6 639.5 648.5 C 640.0 648.7 640.8 648.7 641.3 648.9 C 638.0 648.9 638.8 648.6 635.3 648.6 C 634.8 648.8 637.1 648.8 637.2 648.9 C 633.2 648.7 632.0 648.6 629.3 648.4 C 628.9 648.5 629.7 648.8 625.3 648.6 C 625.2 648.6 625.2 648.5 625.2 648.5 C 627.2 648.5 627.4 648.0 622.4 648.1 C 622.2 648.2 623.7 648.2 625.0 648.2 C 624.5 648.4 622.9 648.4 621.0 648.5 C 620.0 648.4 618.8 648.3 620.1 648.3 C 619.1 648.1 618.7 648.5 615.9 648.4 C 615.9 648.4 615.9 648.4 615.9 648.4 Z M 851.1 648.1 C 850.4 648.2 849.7 648.2 848.5 648.2 C 847.8 648.4 850.1 648.4 850.1 648.5 C 851.8 648.6 850.6 648.3 851.1 648.1 C 851.1 648.1 851.1 648.1 851.1 648.1 Z M 874.4 648.3 C 874.4 648.1 873.0 648.4 871.1 648.3 C 870.4 648.5 872.7 648.5 872.6 648.6 C 874.8 648.7 872.3 648.2 874.4 648.3 C 874.4 648.3 874.4 648.3 874.4 648.3 Z M 864.4 648.3 C 863.6 648.1 863.4 648.4 865.2 648.4 C 865.0 648.5 864.5 648.6 863.3 648.7 C 864.4 649.0 865.5 648.5 867.5 648.6 C 866.9 648.5 865.8 648.4 864.4 648.3 C 864.4 648.3 864.4 648.3 864.4 648.3 Z M 861.0 648.3 C 859.7 648.5 859.0 648.2 856.8 648.4 C 857.2 648.5 861.9 648.5 862.7 648.4 C 863.6 648.2 858.6 648.2 861.0 648.3 C 861.0 648.3 861.0 648.3 861.0 648.3 Z M 703.9 648.9 C 703.0 648.9 703.2 649.0 703.1 649.1 C 700.4 648.7 696.8 648.8 699.6 648.5 C 697.0 648.7 694.4 648.4 692.1 648.3 C 690.1 648.3 691.1 648.5 689.6 648.5 C 687.1 648.5 690.9 648.4 690.3 648.3 C 689.8 648.1 689.2 648.5 686.2 648.4 C 687.2 648.8 683.7 648.3 684.7 648.8 C 683.0 648.6 682.6 648.8 680.5 648.8 C 680.8 648.9 682.8 648.9 683.1 649.1 C 684.2 649.3 684.2 648.9 682.2 648.9 C 683.3 648.7 686.3 649.0 687.2 648.9 C 688.3 649.1 684.5 648.9 685.6 649.2 C 686.4 649.1 687.1 649.1 687.2 649.0 C 688.4 649.1 689.3 649.1 689.8 649.3 C 689.1 649.3 689.0 649.2 689.0 649.2 C 687.4 649.2 690.6 649.6 687.4 649.6 C 688.0 649.7 689.4 649.7 689.2 649.8 C 690.2 650.0 689.0 649.1 692.4 649.4 C 694.5 649.2 687.1 649.2 688.8 648.7 C 693.5 648.8 691.0 649.1 694.7 649.2 C 694.7 649.1 694.6 648.9 695.6 648.9 C 695.4 648.8 694.0 648.9 693.0 648.9 C 693.2 648.8 694.6 648.8 695.5 648.8 C 695.3 648.7 694.6 648.7 694.6 648.6 C 697.8 648.7 697.6 649.2 694.8 649.3 C 694.9 649.6 698.8 649.5 699.8 649.4 C 698.7 649.2 699.9 649.3 698.9 649.0 C 698.1 649.0 698.3 649.1 698.1 649.2 C 696.6 649.1 697.9 649.0 698.0 648.9 C 699.7 649.0 699.7 649.2 701.4 649.0 C 701.0 649.1 700.6 649.1 700.6 649.3 C 701.4 649.3 702.3 649.3 703.1 649.3 C 703.0 649.1 704.1 649.1 703.9 648.9 C 703.9 648.9 703.9 648.9 703.9 648.9 Z M 660.2 648.3 C 657.4 648.2 659.0 648.5 660.3 648.5 C 659.8 648.5 658.8 648.6 657.9 648.6 C 658.7 648.7 659.4 648.6 662.0 648.7 C 659.9 649.0 662.5 649.5 666.6 649.4 C 667.6 649.0 664.1 648.9 665.3 648.6 C 662.4 648.8 660.7 648.6 660.2 648.3 C 660.2 648.3 660.2 648.3 660.2 648.3 Z M 890.3 648.4 C 888.6 648.4 886.9 648.4 885.3 648.4 C 885.3 648.6 890.4 648.8 890.3 648.4 C 890.3 648.4 890.3 648.4 890.3 648.4 Z M 930.1 728.7 C 930.1 729.5 930.0 729.5 930.0 729.6 C 930.1 732.2 930.2 728.6 930.4 729.9 C 930.4 729.0 930.4 728.2 930.4 727.3 C 930.3 727.1 930.2 730.7 930.1 727.9 C 930.0 728.0 930.0 728.7 930.1 728.7 C 930.1 728.7 930.1 728.7 930.1 728.7 Z M 852.6 648.5 C 851.0 648.6 851.8 648.9 848.2 648.8 C 849.4 649.0 850.3 648.9 852.4 648.9 C 852.5 648.7 852.5 648.6 852.6 648.5 C 852.6 648.5 852.6 648.5 852.6 648.5 Z M 716.3 648.5 C 714.2 648.3 713.7 648.9 709.7 648.7 C 711.8 649.0 714.0 648.6 716.3 648.5 C 716.3 648.5 716.3 648.5 716.3 648.5 Z M 577.9 648.9 C 579.2 649.0 577.7 649.1 579.8 649.2 C 580.9 649.1 581.3 649.0 582.9 648.9 C 580.4 648.7 576.4 648.9 574.3 648.5 C 572.3 648.6 572.7 648.8 572.2 649.0 C 573.2 649.0 573.7 649.0 573.9 649.1 C 574.8 648.8 576.8 649.3 577.9 648.9 C 577.9 648.9 577.9 648.9 577.9 648.9 Z M 671.2 648.7 C 672.8 648.8 670.3 648.9 669.8 649.1 C 668.6 649.1 669.0 648.9 668.7 648.8 C 667.3 648.8 666.9 648.9 667.3 649.1 C 670.0 649.2 673.5 649.2 671.5 649.5 C 674.3 649.6 672.7 649.2 673.9 649.2 C 675.5 649.3 674.1 649.4 674.1 649.7 C 674.8 649.6 676.7 649.3 676.6 649.7 C 680.5 649.3 678.6 648.9 675.4 648.5 C 672.8 648.8 676.0 648.9 671.2 648.7 C 671.2 648.7 671.2 648.7 671.2 648.7 Z M 777.3 648.9 C 777.1 648.9 775.6 648.9 775.6 648.8 C 773.8 649.0 772.2 649.3 770.5 649.5 C 770.8 649.7 773.1 649.5 772.2 649.3 C 772.9 649.5 774.5 649.6 775.4 649.7 C 777.1 649.8 777.8 649.3 778.0 649.7 C 779.6 649.5 778.6 649.5 781.3 649.6 C 777.1 649.3 782.8 649.4 783.1 649.2 C 780.7 649.2 778.5 649.2 778.8 649.4 C 777.1 649.3 775.1 649.2 774.8 649.0 C 774.9 648.9 776.3 648.9 777.3 648.9 C 777.3 648.9 777.3 648.9 777.3 648.9 Z M 767.2 649.7 C 767.8 649.6 768.5 649.6 769.6 649.6 C 769.0 649.5 768.8 649.4 768.9 649.3 C 766.8 649.3 766.3 649.4 765.6 649.2 C 763.6 649.1 766.0 649.5 763.0 649.4 C 763.2 649.5 764.7 649.5 764.7 649.6 C 765.0 649.4 766.2 649.4 767.2 649.7 C 767.2 649.7 767.2 649.7 767.2 649.7 Z M 741.4 649.2 C 739.2 649.2 742.6 649.3 741.4 649.5 C 742.0 649.5 746.1 649.5 745.6 649.7 C 746.8 650.1 751.0 649.4 750.6 649.8 C 751.6 649.8 751.2 649.7 751.4 649.6 C 748.5 649.6 748.5 649.5 750.6 649.4 C 750.3 649.3 748.5 649.4 747.3 649.3 C 747.1 649.5 748.2 649.5 748.1 649.7 C 745.6 649.5 743.7 649.3 741.4 649.2 C 741.4 649.2 741.4 649.2 741.4 649.2 Z M 844.0 733.3 C 846.0 733.4 847.2 733.3 848.1 733.2 C 847.4 733.1 846.5 733.2 845.6 733.2 C 845.2 733.1 846.1 733.1 847.2 733.1 C 846.0 732.9 842.7 733.1 844.0 733.3 C 844.0 733.3 844.0 733.3 844.0 733.3 Z M 860.6 733.3 C 862.5 733.4 863.7 733.3 863.8 733.2 C 862.9 733.0 863.4 733.3 862.2 733.2 C 861.4 733.2 860.8 733.1 860.4 733.0 C 859.5 733.0 859.8 733.1 859.6 733.2 C 859.0 733.2 858.8 733.1 858.7 733.1 C 856.6 733.3 861.4 733.1 860.6 733.3 C 860.6 733.3 860.6 733.3 860.6 733.3 Z M 755.6 649.3 C 756.3 649.5 756.8 649.6 758.9 649.6 C 758.5 649.4 760.1 649.4 761.4 649.4 C 759.5 649.2 758.5 649.3 755.6 649.3 C 755.6 649.3 755.6 649.3 755.6 649.3 Z M 929.4 697.7 C 929.7 695.1 929.2 695.3 929.4 691.7 C 929.4 691.7 929.3 691.7 929.2 691.7 C 929.4 694.0 929.3 694.9 929.4 697.7 C 929.4 697.7 929.4 697.7 929.4 697.7 Z M 621.5 733.2 C 621.7 733.0 619.2 733.1 619.0 732.9 C 618.6 733.3 617.2 732.7 612.3 732.8 C 612.2 732.7 612.6 732.6 613.2 732.6 C 609.2 732.5 614.4 732.9 614.9 733.1 C 617.9 733.0 618.5 733.2 621.5 733.2 C 621.5 733.2 621.5 733.2 621.5 733.2 Z M 603.5 649.7 C 603.6 649.6 603.1 649.6 602.6 649.6 C 602.1 649.6 601.5 649.6 601.0 649.6 C 601.4 649.9 604.3 650.0 602.4 650.4 C 603.2 650.4 603.2 650.3 603.2 650.3 C 606.7 649.6 610.7 650.8 615.6 650.3 C 616.4 650.3 616.2 650.2 616.3 650.1 C 615.7 650.2 615.5 650.1 615.4 650.1 C 615.0 650.4 610.0 650.0 612.0 649.9 C 611.8 649.8 611.2 649.9 611.2 649.9 C 610.6 649.9 610.1 649.9 609.5 649.9 C 609.9 650.0 611.0 650.0 611.4 650.1 C 608.6 650.0 605.3 650.0 606.8 649.7 C 605.2 649.7 604.7 649.8 603.7 649.9 C 602.6 649.9 602.4 649.7 603.5 649.7 C 603.5 649.7 603.5 649.7 603.5 649.7 Z M 582.0 649.7 C 579.4 649.7 580.6 650.0 577.9 649.9 C 579.7 650.1 581.5 649.8 583.8 650.0 C 583.4 649.9 582.3 649.9 582.0 649.7 C 582.0 649.7 582.0 649.7 582.0 649.7 Z M 630.3 650.1 C 630.0 650.3 632.3 650.4 634.7 650.4 C 635.0 650.1 632.8 650.1 630.3 650.1 C 630.3 650.1 630.3 650.1 630.3 650.1 Z M 619.6 650.1 C 617.2 650.2 622.7 650.1 621.5 650.4 C 622.6 650.4 623.8 650.4 623.9 650.5 C 624.8 650.4 624.7 650.3 626.3 650.3 C 626.2 650.1 623.6 650.2 623.7 650.1 C 621.9 650.2 621.6 650.2 619.6 650.1 C 619.6 650.1 619.6 650.1 619.6 650.1 Z M 617.9 650.1 C 616.4 650.1 618.7 650.5 620.7 650.5 C 619.8 650.4 619.2 650.2 617.9 650.1 C 617.9 650.1 617.9 650.1 617.9 650.1 Z M 811.8 650.1 C 810.7 650.2 811.5 650.4 810.1 650.4 C 810.1 650.5 815.0 650.5 810.9 650.5 C 812.3 650.8 813.2 650.4 815.1 650.5 C 814.5 650.4 814.1 650.3 815.1 650.3 C 815.8 650.1 811.2 650.4 811.8 650.1 C 811.8 650.1 811.8 650.1 811.8 650.1 Z M 806.9 650.1 C 805.9 650.2 806.4 650.2 806.9 650.2 C 806.7 650.3 805.3 650.3 804.3 650.3 C 804.3 650.2 806.0 650.7 805.8 650.9 C 810.1 650.7 807.0 650.4 806.9 650.1 C 806.9 650.1 806.9 650.1 806.9 650.1 Z M 802.7 650.3 C 800.0 650.1 796.2 650.1 794.4 650.4 C 796.2 650.7 801.3 650.6 802.7 650.3 C 802.7 650.3 802.7 650.3 802.7 650.3 Z M 830.0 650.4 C 825.2 650.1 815.2 650.5 824.0 650.7 C 823.8 650.5 829.6 650.4 832.4 650.5 C 832.5 650.4 835.8 650.2 835.8 650.4 C 838.1 650.2 828.9 650.2 830.0 650.4 C 830.0 650.4 830.0 650.4 830.0 650.4 Z M 790.9 650.9 C 792.3 650.7 790.7 650.3 792.7 650.5 C 794.0 650.4 792.4 650.4 792.8 650.2 C 790.2 650.2 784.9 650.5 784.5 650.2 C 783.2 650.3 782.7 650.5 780.3 650.5 C 780.2 650.6 789.2 650.2 791.0 650.7 C 790.8 650.8 787.6 650.8 790.9 650.9 C 790.9 650.9 790.9 650.9 790.9 650.9 Z M 928.0 697.5 C 928.2 697.7 928.1 694.3 928.3 695.0 C 928.0 693.1 928.2 691.4 928.0 689.3 C 928.1 688.7 928.4 688.9 928.5 686.0 C 928.3 685.9 928.3 687.4 928.2 686.0 C 928.1 683.4 928.4 684.1 928.3 681.0 C 927.9 681.6 928.2 674.6 927.8 675.4 C 927.9 677.0 928.1 676.8 928.0 679.5 C 928.0 680.4 927.8 680.0 927.8 681.1 C 927.6 680.4 928.0 679.0 927.8 677.9 C 927.6 678.2 927.6 680.2 927.4 680.5 C 927.5 681.6 927.5 680.1 927.7 680.4 C 927.7 683.5 927.1 680.3 927.2 683.7 C 927.4 683.0 927.4 683.0 927.7 683.6 C 927.6 685.0 927.7 689.2 927.4 686.9 C 927.3 687.2 927.5 689.7 927.7 689.3 C 927.7 690.7 927.6 690.8 927.5 690.9 C 927.6 694.4 927.8 694.9 928.1 694.2 C 928.3 694.9 927.9 695.4 928.0 697.5 C 928.0 697.5 928.0 697.5 928.0 697.5 Z M 856.4 650.5 C 858.4 650.3 854.2 650.5 852.3 650.5 C 854.6 650.5 853.7 650.8 856.1 650.9 C 855.3 650.8 855.5 650.7 857.1 650.7 C 857.6 650.6 854.0 650.5 856.4 650.5 C 856.4 650.5 856.4 650.5 856.4 650.5 Z M 775.3 650.5 C 774.5 650.3 770.2 650.4 767.9 650.4 C 768.3 650.8 773.8 650.2 774.5 650.6 C 775.8 650.6 773.8 650.5 775.3 650.5 C 775.3 650.5 775.3 650.5 775.3 650.5 Z M 928.3 666.1 C 928.3 665.3 928.2 665.8 928.2 666.2 C 928.1 666.0 928.2 664.2 928.2 663.0 C 928.0 664.9 927.9 662.7 927.7 663.3 C 927.7 662.3 927.7 661.9 927.6 661.8 C 928.1 661.4 927.3 656.9 927.3 662.0 C 927.5 660.9 927.5 661.3 927.6 663.3 C 927.4 665.8 927.6 667.4 927.4 668.4 C 927.4 669.9 927.5 670.3 927.5 672.3 C 927.3 672.9 927.2 674.7 926.9 673.4 C 926.9 676.9 927.5 674.3 927.5 677.2 C 927.4 680.0 927.2 675.9 927.0 676.6 C 927.0 677.3 926.9 677.2 926.9 677.4 C 926.9 678.4 927.1 678.4 927.1 677.3 C 927.2 677.6 927.4 680.4 927.1 679.7 C 927.2 681.3 927.9 676.9 927.6 674.7 C 927.6 673.4 928.0 673.2 928.0 674.6 C 928.2 674.0 927.7 671.5 928.2 672.0 C 928.2 670.9 928.2 669.8 928.2 668.7 C 928.1 668.9 928.1 669.6 928.0 669.6 C 928.0 668.6 928.0 667.5 928.0 666.3 C 928.1 667.2 928.2 667.2 928.3 666.1 C 928.3 666.1 928.3 666.1 928.3 666.1 Z M 786.1 650.5 C 784.0 650.5 783.5 650.7 781.9 650.7 C 782.5 650.9 787.0 650.8 786.1 650.5 C 786.1 650.5 786.1 650.5 786.1 650.5 Z M 927.3 711.1 C 927.4 710.9 927.3 709.4 927.4 709.5 C 927.5 712.1 927.6 709.3 928.1 711.5 C 927.9 708.1 927.3 706.8 927.1 711.0 C 927.2 714.1 927.2 707.8 927.3 711.1 C 927.3 711.1 927.3 711.1 927.3 711.1 Z M 927.4 701.4 C 927.3 699.4 927.2 704.3 927.1 705.4 C 927.0 705.3 927.0 705.3 926.9 705.3 C 927.2 708.1 927.4 704.5 927.8 707.2 C 928.0 704.1 928.0 702.7 927.9 699.9 C 927.8 700.1 927.9 700.7 927.9 700.7 C 927.9 702.8 927.6 701.3 927.7 699.1 C 927.6 699.7 927.6 701.7 927.5 703.1 C 927.6 702.7 927.6 702.2 927.8 702.3 C 927.8 704.1 927.6 703.4 927.6 704.7 C 927.5 704.6 927.3 701.4 927.4 701.4 C 927.4 701.4 927.4 701.4 927.4 701.4 Z M 795.6 731.6 C 797.2 731.5 793.6 731.2 793.5 730.8 C 791.7 730.8 791.3 730.9 790.2 730.9 C 790.9 731.1 792.8 731.1 793.7 731.2 C 793.6 731.6 791.1 731.2 790.5 731.4 C 789.7 731.8 794.6 731.3 795.6 731.6 C 795.6 731.6 795.6 731.6 795.6 731.6 Z M 904.8 650.9 C 903.9 651.0 904.3 651.0 904.7 651.0 C 904.4 651.1 903.0 651.1 903.1 651.0 C 901.8 651.0 903.7 651.2 902.1 651.2 C 901.7 651.3 904.5 651.2 904.6 651.1 C 906.5 651.1 904.8 651.4 905.1 651.5 C 906.7 651.5 906.4 651.3 908.6 651.3 C 907.3 651.2 906.3 651.1 904.8 650.9 C 904.8 650.9 904.8 650.9 904.8 650.9 Z M 927.8 716.9 C 927.9 717.3 927.4 714.8 927.6 712.8 C 927.6 710.0 927.3 714.4 927.4 711.9 C 927.3 714.0 927.5 716.7 927.5 720.0 C 927.7 720.9 927.6 715.5 927.7 718.5 C 927.8 718.4 927.7 717.7 927.7 717.7 C 927.7 717.0 927.7 717.0 927.8 716.9 C 927.8 716.9 927.8 716.9 927.8 716.9 Z M 927.2 713.4 C 927.1 713.5 927.2 714.2 927.2 714.2 C 927.2 715.2 927.0 715.1 927.0 714.1 C 926.7 715.2 927.2 715.5 927.0 718.1 C 927.2 717.1 927.4 716.6 927.2 719.0 C 927.4 721.2 927.4 714.4 927.2 713.4 C 927.2 713.4 927.2 713.4 927.2 713.4 Z M 821.9 731.4 C 821.5 731.3 819.8 731.3 818.5 731.3 C 820.0 731.1 826.7 731.2 827.7 731.4 C 828.3 731.4 829.0 731.3 829.3 731.4 C 829.2 731.3 831.0 731.2 830.0 731.2 C 830.1 731.1 831.5 731.1 831.5 731.0 C 834.0 731.1 830.9 731.2 831.7 731.3 C 834.5 731.1 834.0 731.3 837.5 731.3 C 836.8 731.1 832.9 731.2 833.0 730.8 C 830.5 731.1 827.4 730.9 825.5 730.7 C 828.4 731.1 818.8 731.2 814.3 731.2 C 814.3 731.0 812.8 731.1 810.8 730.9 C 809.4 730.7 810.1 731.2 812.5 731.1 C 812.6 731.3 809.1 731.1 807.7 731.2 C 809.5 731.3 808.6 731.4 809.5 731.5 C 812.7 731.5 809.8 731.4 810.2 731.2 C 811.0 731.2 811.8 731.2 812.7 731.2 C 808.6 731.6 819.0 731.3 815.2 731.3 C 818.6 731.3 818.8 731.6 821.9 731.4 C 821.9 731.4 821.9 731.4 821.9 731.4 Z M 899.5 731.5 C 900.1 731.5 902.6 731.3 902.8 731.5 C 906.0 731.3 902.9 731.1 906.6 731.1 C 906.3 731.0 904.9 731.0 904.8 730.9 C 903.4 731.0 902.1 731.1 902.7 731.3 C 901.0 731.3 900.6 731.4 899.5 731.4 C 899.8 731.3 900.4 731.2 901.8 731.2 C 901.9 731.0 901.2 730.9 899.0 730.9 C 898.2 731.1 899.1 731.3 899.5 731.5 C 899.5 731.5 899.5 731.5 899.5 731.5 Z M 907.5 731.2 C 908.0 731.2 908.5 731.3 908.6 731.4 C 910.0 731.7 908.7 731.1 909.9 731.1 C 910.9 731.1 910.7 731.2 911.0 731.3 C 912.4 731.3 913.5 731.2 914.3 731.3 C 916.4 731.2 911.5 731.1 910.7 731.0 C 909.1 731.0 909.8 731.2 907.5 731.2 C 907.5 731.2 907.5 731.2 907.5 731.2 Z M 927.7 726.6 C 927.9 726.4 927.6 725.2 927.6 724.2 C 927.4 724.8 927.5 727.3 927.2 725.4 C 927.1 727.7 927.1 727.8 927.2 730.3 C 927.0 731.6 927.4 730.5 927.3 727.9 C 927.4 728.3 927.4 729.4 927.5 729.7 C 927.4 730.0 927.4 730.5 927.4 731.1 C 925.6 731.1 924.1 731.4 925.7 731.2 C 926.5 731.2 927.1 731.3 927.6 731.4 C 927.6 731.4 927.6 731.4 927.7 731.4 C 927.5 730.2 927.6 725.4 927.7 726.6 C 927.7 726.6 927.7 726.6 927.7 726.6 Z M 921.7 651.4 C 924.7 651.4 925.0 651.4 927.5 651.4 C 927.5 651.6 927.4 651.9 927.4 652.2 C 927.3 652.4 927.3 652.2 927.3 651.6 C 927.2 652.4 927.2 653.4 927.3 654.7 C 927.4 654.6 927.3 653.9 927.3 653.9 C 927.5 651.2 927.5 653.4 927.7 653.6 C 927.7 652.7 927.7 651.9 927.7 651.1 C 925.6 651.2 923.6 651.3 922.8 651.1 C 921.5 651.2 922.9 651.2 921.7 651.4 C 921.7 651.4 921.7 651.4 921.7 651.4 Z M 624.5 731.2 C 624.0 731.2 622.7 731.2 622.9 731.4 C 624.1 731.4 625.0 731.3 626.2 731.2 C 623.8 731.2 624.1 730.8 621.1 730.8 C 622.1 731.0 621.9 731.2 624.5 731.2 C 624.5 731.2 624.5 731.2 624.5 731.2 Z M 924.2 731.3 C 924.0 731.2 923.8 731.1 924.7 731.1 C 924.9 730.9 922.3 731.0 922.1 730.8 C 921.2 730.9 921.7 731.0 920.6 731.0 C 921.1 731.1 923.2 731.1 922.6 731.3 C 921.9 731.3 921.7 731.3 921.6 731.2 C 920.0 731.4 922.7 731.4 924.2 731.3 C 924.2 731.3 924.2 731.3 924.2 731.3 Z M 787.2 731.3 C 788.3 731.3 787.1 731.2 786.2 731.2 C 788.5 730.9 784.5 730.8 784.2 730.5 C 785.4 730.7 788.6 730.6 789.2 730.7 C 790.1 730.6 788.9 730.4 791.5 730.4 C 791.0 730.2 788.3 730.4 789.1 730.5 C 788.2 730.2 785.6 730.6 785.7 730.3 C 781.9 730.2 781.2 730.4 781.0 730.7 C 784.6 730.6 783.0 731.0 786.1 730.9 C 786.1 731.0 785.1 731.0 784.5 731.0 C 784.8 731.2 786.2 731.2 787.2 731.3 C 787.2 731.3 787.2 731.3 787.2 731.3 Z M 873.0 731.3 C 874.8 731.3 874.6 731.1 874.3 730.9 C 873.7 731.0 872.6 731.0 871.1 731.0 C 871.5 731.1 873.7 731.1 873.0 731.3 C 873.0 731.3 873.0 731.3 873.0 731.3 Z M 800.2 731.0 C 800.4 731.1 801.0 731.1 801.0 731.0 C 803.1 731.0 803.6 731.1 804.4 731.2 C 805.5 731.2 805.0 731.0 805.0 730.9 C 803.2 731.1 803.4 730.8 800.9 730.8 C 801.1 730.9 800.8 731.0 800.2 731.0 C 800.2 731.0 800.2 731.0 800.2 731.0 Z M 855.6 731.2 C 856.5 731.2 856.0 731.1 855.5 731.1 C 856.4 730.8 860.0 731.1 861.2 730.9 C 861.1 730.7 857.0 730.8 861.8 730.7 C 860.7 730.5 856.5 730.7 854.3 730.6 C 854.6 730.4 857.6 730.4 857.2 730.1 C 854.8 730.3 852.1 730.4 851.9 730.8 C 855.7 730.8 854.5 731.0 855.6 731.2 C 855.6 731.2 855.6 731.2 855.6 731.2 Z M 851.3 731.0 C 851.7 731.1 852.3 731.0 853.7 731.0 C 851.5 730.7 850.4 730.8 846.2 730.8 C 846.2 730.8 846.2 730.9 846.3 730.9 C 845.5 730.9 844.6 730.9 843.8 730.9 C 847.6 731.2 848.4 731.0 852.1 730.9 C 852.3 731.0 851.8 731.0 851.3 731.0 C 851.3 731.0 851.3 731.0 851.3 731.0 Z M 927.3 697.3 C 927.1 698.4 927.0 699.3 927.0 701.3 C 927.2 701.2 927.3 700.0 927.3 697.3 C 927.3 697.3 927.3 697.3 927.3 697.3 Z M 796.8 730.8 C 794.6 731.0 799.0 730.9 797.4 730.6 C 795.6 730.5 793.6 730.4 793.1 730.2 C 790.0 730.5 797.0 730.5 796.8 730.8 C 796.8 730.8 796.8 730.8 796.8 730.8 Z M 811.2 730.3 C 812.2 730.3 812.4 730.7 811.3 730.4 C 809.0 730.4 813.4 730.7 809.8 730.6 C 811.4 730.7 814.9 730.8 816.4 730.7 C 816.2 730.5 813.1 730.6 812.9 730.4 C 812.7 730.3 813.2 730.3 813.7 730.3 C 813.3 730.2 812.6 730.3 811.2 730.3 C 811.2 730.3 811.2 730.3 811.2 730.3 Z M 823.8 730.7 C 822.4 730.6 820.7 730.4 817.9 730.4 C 819.8 730.6 821.0 730.8 823.8 730.7 C 823.8 730.7 823.8 730.7 823.8 730.7 Z M 668.0 730.4 C 670.0 730.4 668.2 730.1 667.9 730.0 C 665.9 730.0 666.1 730.2 663.8 730.1 C 664.6 730.4 666.7 730.1 668.0 730.4 C 668.0 730.4 668.0 730.4 668.0 730.4 Z M 660.6 730.2 C 660.3 730.0 657.4 730.1 657.2 730.0 C 655.7 730.4 652.9 729.7 653.1 730.0 C 652.4 730.0 651.8 730.0 650.6 730.0 C 653.0 730.4 658.1 730.2 660.6 730.2 C 660.6 730.2 660.6 730.2 660.6 730.2 Z M 837.5 730.2 C 839.7 730.3 836.6 729.8 838.9 729.9 C 839.0 729.8 834.6 729.7 837.1 729.6 C 833.6 729.5 837.7 730.1 837.5 730.2 C 837.5 730.2 837.5 730.2 837.5 730.2 Z M 877.6 730.0 C 877.6 730.1 880.5 730.0 881.8 730.0 C 881.7 730.0 880.7 730.0 880.1 730.0 C 880.3 729.9 880.7 729.8 881.6 729.8 C 880.7 729.6 878.8 729.9 877.6 730.0 C 877.6 730.0 877.6 730.0 877.6 730.0 Z M 836.5 734.4 C 834.9 734.1 833.0 733.9 832.3 734.3 C 830.7 734.1 833.0 734.0 831.2 733.9 C 828.9 734.0 829.8 733.8 826.1 733.9 C 826.6 733.6 823.9 733.6 823.3 733.4 C 824.8 733.4 826.9 733.6 827.5 733.4 C 826.2 733.4 826.8 733.2 827.4 733.3 C 830.0 733.5 824.6 733.6 827.8 733.8 C 828.4 733.5 833.3 734.1 836.2 734.1 C 835.2 734.2 838.6 734.3 836.5 734.4 C 836.5 734.4 836.5 734.4 836.5 734.4 Z M 821.2 733.9 C 819.2 733.9 817.8 733.4 818.3 733.4 C 818.4 733.5 820.7 733.5 820.9 733.4 C 820.3 733.4 819.8 733.4 819.9 733.3 C 823.7 733.4 822.5 733.6 823.5 733.7 C 821.6 733.8 820.9 733.7 820.2 733.8 C 820.7 733.8 821.2 733.8 821.2 733.9 C 821.2 733.9 821.2 733.9 821.2 733.9 Z M 774.7 729.9 C 775.2 730.0 775.6 729.9 776.4 729.8 C 776.8 730.2 780.6 729.7 781.3 729.9 C 780.4 730.0 778.3 730.0 777.4 730.1 C 778.5 730.2 778.8 730.2 779.9 730.1 C 779.8 730.3 777.4 730.4 776.8 730.5 C 776.5 730.4 775.5 730.6 775.1 730.4 C 778.2 730.3 772.9 729.9 774.7 729.9 C 774.7 729.9 774.7 729.9 774.7 729.9 Z M 856.1 729.9 C 856.2 729.6 852.3 729.1 855.2 728.8 C 856.1 729.0 856.7 729.2 856.7 729.5 C 858.6 729.3 859.6 729.6 860.6 729.3 C 865.0 730.0 857.7 729.3 856.1 729.9 C 856.1 729.9 856.1 729.9 856.1 729.9 Z M 869.2 729.6 C 868.6 729.9 870.5 729.9 870.3 730.0 C 868.5 729.9 863.6 730.1 865.3 730.0 C 866.9 729.9 866.7 729.7 869.2 729.6 C 869.2 729.6 869.2 729.6 869.2 729.6 Z M 726.6 650.8 C 729.2 650.6 730.6 651.0 729.1 651.2 C 729.7 650.9 725.7 651.1 726.6 650.8 C 726.6 650.8 726.6 650.8 726.6 650.8 Z M 824.0 646.9 C 821.6 646.8 820.2 646.9 819.9 646.7 C 822.3 646.6 822.0 646.8 824.1 646.8 C 824.3 646.7 825.6 646.6 825.8 646.7 C 824.6 646.7 824.8 646.9 824.0 646.9 C 824.0 646.9 824.0 646.9 824.0 646.9 Z M 924.8 735.3 C 925.2 735.4 926.2 735.5 925.9 735.6 C 923.3 735.5 920.6 735.7 918.7 735.9 C 918.6 735.8 918.5 735.7 918.4 735.6 C 922.4 735.7 923.3 735.5 924.8 735.3 C 924.8 735.3 924.8 735.3 924.8 735.3 Z M 930.3 735.8 C 930.6 735.7 928.9 735.4 930.8 735.4 C 930.8 735.5 931.3 735.6 931.9 735.6 C 932.0 734.9 932.1 734.2 932.2 735.1 C 932.1 735.3 932.1 735.5 932.0 735.8 C 931.5 735.7 931.0 735.8 930.3 735.8 C 930.3 735.8 930.3 735.8 930.3 735.8 Z M 789.2 734.5 C 787.2 734.5 790.2 734.7 790.2 734.8 C 788.7 734.8 786.7 734.8 785.9 734.7 C 787.4 734.7 788.2 734.3 789.2 734.5 C 789.2 734.5 789.2 734.5 789.2 734.5 Z M 819.5 734.0 C 823.8 733.9 822.3 734.4 826.5 734.4 C 824.9 734.6 821.1 734.6 820.1 734.8 C 820.2 734.6 819.1 734.6 819.1 734.4 C 820.6 734.4 820.9 734.5 822.5 734.5 C 821.7 734.3 821.8 734.4 822.2 734.1 C 821.0 734.1 820.3 734.2 819.7 734.2 C 819.9 734.1 818.4 734.0 819.5 734.0 C 819.5 734.0 819.5 734.0 819.5 734.0 Z M 789.6 733.9 C 787.9 734.0 786.3 733.6 787.7 733.6 C 788.1 733.8 789.1 733.6 789.5 733.7 C 787.1 733.8 791.5 733.8 790.5 734.0 C 789.0 734.0 788.6 734.1 789.0 734.3 C 788.0 734.3 786.6 734.3 786.5 734.2 C 787.1 734.2 788.1 734.2 788.0 734.1 C 787.5 734.1 787.0 734.1 787.2 734.0 C 788.6 734.1 789.2 734.0 789.6 733.9 C 789.6 733.9 789.6 733.9 789.6 733.9 Z M 801.2 733.9 C 798.9 733.9 798.5 733.7 797.6 733.5 C 800.7 733.6 801.4 733.9 803.8 734.0 C 801.2 734.0 798.9 734.3 798.0 734.1 C 799.1 734.0 801.1 734.1 801.2 733.9 C 801.2 733.9 801.2 733.9 801.2 733.9 Z M 557.2 696.9 C 557.3 695.0 557.5 693.4 557.6 691.3 C 557.3 690.4 556.9 694.3 557.0 692.6 C 557.0 690.3 557.3 692.0 557.4 690.2 C 557.0 691.9 557.0 682.1 557.4 681.9 C 557.4 683.4 557.4 683.9 557.6 683.7 C 557.6 687.6 557.8 689.2 557.8 692.2 C 557.5 694.2 557.4 700.3 557.8 703.8 C 557.3 705.8 557.8 710.0 557.4 712.9 C 557.6 713.8 557.7 710.4 557.8 713.0 C 557.5 714.5 557.4 713.2 557.3 715.4 C 557.4 715.6 557.6 715.1 557.6 716.3 C 557.4 716.1 557.4 717.5 557.4 718.0 C 557.4 713.4 557.0 718.1 557.0 714.5 C 557.1 713.1 557.4 716.2 557.4 712.1 C 557.3 710.6 557.2 709.2 557.0 709.4 C 557.0 708.3 556.9 707.6 556.9 706.9 C 557.2 708.5 556.8 701.1 557.1 704.5 C 557.1 704.7 557.1 707.0 557.2 708.7 C 557.5 707.3 557.3 705.4 557.2 702.8 C 557.4 701.8 557.5 703.4 557.5 702.1 C 557.4 700.0 557.2 702.7 557.0 701.1 C 557.0 701.7 557.0 702.7 557.0 702.7 C 557.2 699.3 556.9 697.8 557.0 696.0 C 557.1 697.3 557.2 694.0 557.2 696.9 C 557.2 696.9 557.2 696.9 557.2 696.9 Z M 557.5 727.2 C 557.5 728.0 557.5 728.8 557.5 729.7 C 557.3 729.9 557.2 726.6 557.0 728.8 C 557.1 725.1 557.3 729.0 557.5 727.2 C 557.5 727.2 557.5 727.2 557.5 727.2 Z M 558.4 710.7 C 558.7 709.6 558.1 710.1 558.1 708.9 C 558.1 711.0 558.2 712.8 557.9 713.0 C 558.0 710.7 558.0 709.6 557.9 707.2 C 558.3 709.6 558.2 704.7 558.5 704.0 C 558.5 705.9 558.7 707.4 558.6 709.9 C 558.5 709.5 558.4 713.1 558.4 710.7 C 558.4 710.7 558.4 710.7 558.4 710.7 Z M 558.7 717.4 C 558.6 717.8 558.7 721.5 558.4 720.6 C 558.4 718.5 558.4 717.6 558.2 718.1 C 558.1 716.5 558.3 716.2 558.2 714.8 C 558.5 714.0 558.5 716.5 558.6 717.4 C 558.6 716.9 558.7 716.4 558.7 717.4 C 558.7 717.4 558.7 717.4 558.7 717.4 Z M 605.4 730.4 C 606.2 730.6 602.8 730.5 602.1 730.4 C 603.1 730.7 602.6 730.7 600.6 730.8 C 601.3 730.5 598.3 730.6 596.4 730.3 C 595.9 730.5 598.4 730.6 595.6 730.7 C 593.4 730.6 591.5 730.7 588.2 730.8 C 587.4 730.5 588.9 730.5 589.7 730.4 C 587.5 730.4 588.1 730.2 586.4 730.2 C 586.8 730.3 585.4 730.4 584.8 730.3 C 587.7 730.2 581.0 730.0 584.0 729.9 C 584.2 730.0 584.9 729.9 585.6 729.9 C 584.8 730.2 588.8 730.1 589.7 730.3 C 591.3 729.7 595.6 729.9 600.5 730.1 C 600.8 730.3 599.3 730.3 600.5 730.4 C 600.6 730.3 602.3 730.3 603.0 730.2 C 602.9 730.3 603.6 730.4 604.6 730.4 C 604.7 730.4 604.8 730.4 605.4 730.4 C 605.4 730.4 605.4 730.4 605.4 730.4 Z M 647.9 651.8 C 647.9 652.2 653.1 652.0 654.5 651.9 C 654.4 652.3 645.1 652.2 647.9 651.8 C 647.9 651.8 647.9 651.8 647.9 651.8 Z M 616.1 652.1 C 617.4 652.1 616.3 651.9 617.5 651.9 C 617.7 652.1 620.5 651.6 620.8 651.9 C 619.4 652.1 618.4 652.1 616.1 652.1 C 616.1 652.1 616.1 652.1 616.1 652.1 Z M 586.4 652.1 C 588.8 652.0 585.0 651.9 585.4 651.8 C 587.5 651.8 589.7 651.8 589.7 652.1 C 587.8 651.9 586.8 652.3 586.4 652.1 C 586.4 652.1 586.4 652.1 586.4 652.1 Z M 630.9 652.4 C 633.0 652.5 629.9 652.8 629.5 652.6 C 631.6 652.5 627.9 652.4 626.1 652.5 C 626.0 652.2 626.8 652.2 625.8 652.0 C 628.6 651.9 626.4 652.2 628.4 652.2 C 629.7 652.1 628.3 652.1 628.2 651.9 C 629.0 651.9 629.8 651.9 630.6 651.9 C 630.7 652.0 630.8 652.2 630.9 652.3 C 629.9 652.3 629.0 652.3 629.4 652.5 C 630.2 652.5 630.3 652.4 630.9 652.4 C 630.9 652.4 630.9 652.4 630.9 652.4 Z M 562.6 729.9 C 561.3 729.9 562.4 730.0 563.4 730.0 C 563.6 729.9 564.4 729.5 565.9 729.7 C 562.7 729.9 566.9 730.1 565.1 730.2 C 564.4 730.0 562.4 730.3 560.9 730.2 C 560.3 730.0 561.9 729.7 562.6 729.9 C 562.6 729.9 562.6 729.9 562.6 729.9 Z M 568.4 730.0 C 568.2 730.0 567.7 730.0 566.7 730.0 C 567.7 729.8 566.3 729.7 567.6 729.6 C 567.4 729.8 571.7 729.8 569.2 729.9 C 566.9 729.7 569.8 730.0 570.9 730.0 C 569.7 730.0 567.7 730.3 567.5 730.1 C 568.1 730.1 568.5 730.1 568.4 730.0 C 568.4 730.0 568.4 730.0 568.4 730.0 Z M 621.7 729.7 C 622.0 729.6 620.6 729.6 620.1 729.5 C 624.3 729.5 627.9 729.5 630.0 729.6 C 628.0 729.6 628.1 729.8 629.2 729.9 C 627.1 729.8 626.7 729.9 625.9 729.8 C 627.7 729.6 624.3 729.7 621.7 729.7 C 621.7 729.7 621.7 729.7 621.7 729.7 Z M 621.7 729.7 " fill="#FFE181"></path><g><clipPath id="clip-205"><path d="M 562.4 654.4 L 924.4 654.4 L 924.4 728.2 L 562.4 728.2 Z M 562.4 654.4 "></path></clipPath><g clip-path="url(#clip-205)"><path d="M 600.6 701.2 L 886.3 701.2 L 886.3 679.2 L 600.6 679.2 Z M 600.6 701.2 " fill="#000000"></path><text xml:space="preserve" font-family="Monaco" font-size="17.0" fill="#34BC25" transform="matrix(1.00, 0.00, -0.00, -1.00, 601.0, 685.0)">[</text><text xml:space="preserve" font-family="Monaco" font-size="17.0" fill="#34BC25" transform="matrix(1.00, 0.00, -0.00, -1.00, 611.2, 685.0)">c</text><text xml:space="preserve" font-family="Monaco" font-size="17.0" fill="#34BC25" transform="matrix(1.00, 0.00, -0.00, -1.00, 621.4, 685.0)">o</text><text xml:space="preserve" font-family="Monaco" font-size="17.0" fill="#34BC25" transform="matrix(1.00, 0.00, -0.00, -1.00, 631.6, 685.0)">m</text><text xml:space="preserve" font-family="Monaco" font-size="17.0" fill="#34BC25" transform="matrix(1.00, 0.00, -0.00, -1.00, 641.8, 685.0)">p</text><text xml:space="preserve" font-family="Monaco" font-size="17.0" fill="#34BC25" transform="matrix(1.00, 0.00, -0.00, -1.00, 652.0, 685.0)">u</text><text xml:space="preserve" font-family="Monaco" font-size="17.0" fill="#34BC25" transform="matrix(1.00, 0.00, -0.00, -1.00, 662.2, 685.0)">t</text><text xml:space="preserve" font-family="Monaco" font-size="17.0" fill="#34BC25" transform="matrix(1.00, 0.00, -0.00, -1.00, 672.4, 685.0)">e</text><text xml:space="preserve" font-family="Monaco" font-size="17.0" fill="#34BC25" transform="matrix(1.00, 0.00, -0.00, -1.00, 682.6, 685.0)"> </text><text xml:space="preserve" font-family="Monaco" font-size="17.0" fill="#34BC25" transform="matrix(1.00, 0.00, -0.00, -1.00, 692.8, 685.0)">n</text><text xml:space="preserve" font-family="Monaco" font-size="17.0" fill="#34BC25" transform="matrix(1.00, 0.00, -0.00, -1.00, 703.0, 685.0)">o</text><text xml:space="preserve" font-family="Monaco" font-size="17.0" fill="#34BC25" transform="matrix(1.00, 0.00, -0.00, -1.00, 713.2, 685.0)">d</text><text xml:space="preserve" font-family="Monaco" font-size="17.0" fill="#34BC25" transform="matrix(1.00, 0.00, -0.00, -1.00, 723.4, 685.0)">e</text><text xml:space="preserve" font-family="Monaco" font-size="17.0" fill="#34BC25" transform="matrix(1.00, 0.00, -0.00, -1.00, 733.6, 685.0)">]</text><text xml:space="preserve" font-family="Monaco" font-size="17.0" fill="#34BC25" transform="matrix(1.00, 0.00, -0.00, -1.00, 743.8, 685.0)"> </text><text xml:space="preserve" font-family="Monaco" font-size="17.0" fill="#FEFFFE" transform="matrix(1.00, 0.00, -0.00, -1.00, 754.0, 685.0)">#</text><text xml:space="preserve" font-family="Monaco" font-size="17.0" fill="#FEFFFE" transform="matrix(1.00, 0.00, -0.00, -1.00, 764.2, 685.0)"> </text><text xml:space="preserve" font-family="Monaco" font-size="17.0" fill="#FEFFFE" transform="matrix(1.00, 0.00, -0.00, -1.00, 774.4, 685.0)">i</text><text xml:space="preserve" font-family="Monaco" font-size="17.0" fill="#FEFFFE" transform="matrix(1.00, 0.00, -0.00, -1.00, 784.6, 685.0)">p</text><text xml:space="preserve" font-family="Monaco" font-size="17.0" fill="#FEFFFE" transform="matrix(1.00, 0.00, -0.00, -1.00, 794.8, 685.0)">t</text><text xml:space="preserve" font-family="Monaco" font-size="17.0" fill="#FEFFFE" transform="matrix(1.00, 0.00, -0.00, -1.00, 805.0, 685.0)">a</text><text xml:space="preserve" font-family="Monaco" font-size="17.0" fill="#FEFFFE" transform="matrix(1.00, 0.00, -0.00, -1.00, 815.2, 685.0)">b</text><text xml:space="preserve" font-family="Monaco" font-size="17.0" fill="#FEFFFE" transform="matrix(1.00, 0.00, -0.00, -1.00, 825.4, 685.0)">l</text><text xml:space="preserve" font-family="Monaco" font-size="17.0" fill="#FEFFFE" transform="matrix(1.00, 0.00, -0.00, -1.00, 835.6, 685.0)">e</text><text xml:space="preserve" font-family="Monaco" font-size="17.0" fill="#FEFFFE" transform="matrix(1.00, 0.00, -0.00, -1.00, 845.9, 685.0)">s</text><text xml:space="preserve" font-family="Monaco" font-size="17.0" fill="#FEFFFE" transform="matrix(1.00, 0.00, -0.00, -1.00, 856.1, 685.0)"> </text><text xml:space="preserve" font-family="Monaco" font-size="17.0" fill="#FEFFFE" transform="matrix(1.00, 0.00, -0.00, -1.00, 866.3, 685.0)">-</text><text xml:space="preserve" font-family="Monaco" font-size="17.0" fill="#FEFFFE" transform="matrix(1.00, 0.00, -0.00, -1.00, 876.5, 685.0)">S</text></g></g></g></svg>