<?xml version="1.0" encoding="UTF-8" standalone="no"?><svg xmlns="http://www.w3.org/2000/svg" xmlns:xlink="http://www.w3.org/1999/xlink" clip-rule="evenodd" stroke-miterlimit="4.00" viewBox="0 0 319 121"><desc>SVG generated by Keynote</desc><defs></defs><g transform="matrix(1.00, 0.00, -0.00, -1.00, 0.0, 121.0)"><image xlink:href="../../1BE7A03E-C66D-4413-94C1-F85C6D2757AE/assets/C96CBBF2F715F6E2E3B6F8A701A0292F.png" width="316.00" height="118.00" transform="matrix(1.00, 0.00, -0.00, -1.00, 1.6, 119.7)" opacity="0.50"></image><g><clipPath id="clip-1435"><path d="M 265.1 96.0 C 323.4 76.5 323.4 44.9 265.1 25.3 C 206.9 5.8 112.5 5.8 54.3 25.3 C -3.9 44.9 -3.9 76.5 54.3 96.0 C 112.5 115.6 206.9 115.6 265.1 96.0 Z M 265.1 96.0 "></path></clipPath><g clip-path="url(#clip-1435)"><image xlink:href="../../1BE7A03E-C66D-4413-94C1-F85C6D2757AE/assets/59DBD66EA15A3D40E065F836EF2595FD.jpeg" width="400.00" height="400.00" transform="matrix(1.00, 0.00, -0.00, -1.00, 10.6, 110.7)"></image></g></g><path d="M 81.5 14.1 C 81.1 14.3 80.6 14.4 79.8 14.6 C 80.2 14.6 80.4 14.6 80.4 14.7 C 81.1 14.5 82.0 14.3 83.4 14.0 C 83.3 14.0 82.6 14.1 82.1 14.2 C 81.6 14.3 81.7 14.2 81.5 14.1 C 81.5 14.1 81.5 14.1 81.5 14.1 Z M 73.0 104.8 C 71.9 104.5 73.1 105.0 73.5 105.1 C 73.6 105.1 73.7 105.1 74.1 105.2 C 74.2 105.4 73.2 105.2 72.4 105.1 C 69.3 104.3 71.7 104.4 73.0 104.8 C 73.0 104.8 73.0 104.8 73.0 104.8 Z M 241.2 105.8 C 243.7 105.3 241.0 105.6 240.6 105.6 C 241.7 105.3 240.7 105.1 242.2 104.8 C 242.5 104.8 243.1 104.8 243.4 104.8 C 242.7 105.0 241.8 105.2 241.7 105.3 C 242.6 105.1 243.8 104.8 244.0 104.8 C 242.0 105.4 243.7 105.2 244.1 105.2 C 242.3 105.6 241.8 105.9 241.2 105.8 C 241.2 105.8 241.2 105.8 241.2 105.8 Z M 281.6 28.9 C 282.6 29.4 283.3 29.8 283.1 29.8 C 282.1 29.3 281.4 29.0 280.9 28.7 C 280.7 28.7 280.9 29.0 280.1 28.6 C 279.1 27.9 279.7 27.9 280.3 28.0 C 280.3 28.2 283.7 29.6 281.6 28.9 C 281.6 28.9 281.6 28.9 281.6 28.9 Z M 212.3 11.6 C 209.9 11.2 212.1 11.9 209.7 11.5 C 209.8 11.3 209.5 11.0 211.1 11.2 C 211.2 11.3 212.1 11.5 212.3 11.6 C 212.3 11.6 212.3 11.6 212.3 11.6 Z M 170.5 111.9 C 170.5 112.0 172.2 111.9 171.8 112.2 C 170.9 112.2 170.1 112.2 169.2 112.2 C 169.0 112.0 169.3 111.9 170.5 111.9 C 170.5 111.9 170.5 111.9 170.5 111.9 Z M 257.2 99.4 C 259.7 99.0 262.1 97.8 261.4 98.3 C 262.4 98.2 259.9 99.4 260.0 99.2 C 259.6 99.0 255.3 100.0 257.2 99.4 C 257.2 99.4 257.2 99.4 257.2 99.4 Z M 87.1 103.5 C 89.9 104.2 89.4 103.4 91.2 104.1 C 90.6 104.0 90.3 104.0 90.0 104.0 C 90.5 104.1 91.2 104.2 91.2 104.3 C 89.8 104.1 88.2 103.9 87.1 103.5 C 87.1 103.5 87.1 103.5 87.1 103.5 Z M 123.5 8.8 C 124.0 8.8 124.3 8.7 124.2 8.6 C 126.2 8.5 126.1 8.3 127.4 8.4 C 127.5 8.7 125.8 8.7 124.2 8.8 C 124.1 8.8 123.6 8.9 123.5 8.8 C 123.5 8.8 123.5 8.8 123.5 8.8 Z M 181.0 8.8 C 180.9 8.6 179.7 8.4 181.7 8.5 C 183.8 8.9 181.9 9.0 179.7 9.0 C 179.6 9.1 179.6 9.2 179.6 9.3 C 180.5 9.4 181.1 9.4 181.6 9.5 C 182.0 9.2 183.4 9.9 186.8 9.9 C 185.2 9.9 186.9 10.3 184.8 10.1 C 185.4 10.3 183.9 10.2 184.1 10.4 C 185.0 10.4 187.2 10.5 186.8 10.2 C 187.9 10.3 188.8 10.3 189.3 10.4 C 190.1 10.8 187.3 10.4 188.1 10.7 C 188.7 10.7 188.8 10.8 189.3 10.8 C 189.4 10.7 189.2 10.6 189.9 10.6 C 192.0 10.9 189.6 10.9 192.5 11.1 C 192.7 11.0 191.8 10.9 191.9 10.8 C 193.2 10.7 193.1 10.9 194.5 10.9 C 194.7 11.1 193.5 11.0 194.4 11.1 C 195.3 10.8 197.1 11.6 198.9 11.4 C 197.7 10.8 199.2 11.6 200.9 11.2 C 201.2 11.4 200.0 11.6 201.4 11.8 C 201.0 11.1 206.7 11.8 202.2 10.9 C 204.6 11.1 205.4 10.7 203.5 10.4 C 207.7 11.0 206.4 10.5 208.0 10.7 C 209.6 10.9 207.1 10.7 207.9 11.0 C 206.2 10.8 206.6 11.0 205.4 10.7 C 205.4 10.8 205.1 10.9 204.7 10.9 C 206.5 10.9 208.4 11.5 207.2 11.6 C 206.3 11.5 207.2 11.3 206.0 11.2 C 206.4 11.6 204.8 11.0 204.7 11.2 C 205.4 11.6 203.0 11.6 205.3 11.9 C 205.3 11.8 205.3 11.6 205.3 11.5 C 205.9 11.6 206.6 11.6 207.2 11.7 C 207.7 12.0 207.2 12.1 207.8 12.3 C 208.8 12.4 209.4 12.4 209.7 12.3 C 208.4 12.1 206.9 11.7 209.1 11.9 C 208.2 12.3 212.0 12.4 210.3 12.5 C 212.6 12.9 213.8 12.7 214.0 13.0 C 215.2 13.2 214.4 12.8 215.9 13.0 C 218.1 13.6 217.8 13.2 220.8 13.8 C 221.2 13.5 221.0 13.9 222.0 14.1 C 222.0 13.9 222.0 13.8 222.1 13.7 C 223.1 14.1 225.5 14.5 228.0 14.7 C 228.7 14.9 228.2 15.1 229.8 15.3 C 231.6 15.3 233.6 16.0 235.7 16.1 C 235.8 16.3 237.2 16.6 238.0 16.6 C 238.3 16.8 237.2 16.9 238.5 17.1 C 239.4 17.1 237.9 16.7 239.7 17.0 C 239.5 17.2 241.5 17.1 241.4 17.4 C 240.9 17.4 240.2 17.3 239.7 17.3 C 240.5 17.5 240.2 17.5 240.8 17.7 C 240.8 17.3 242.1 17.9 242.5 18.1 C 242.5 17.9 242.7 17.9 243.1 17.9 C 244.1 18.1 244.9 18.3 245.4 18.3 C 246.6 18.7 244.7 18.4 245.9 18.7 C 246.6 18.2 247.7 19.2 250.4 19.5 C 250.9 19.8 252.0 20.2 253.6 20.6 C 253.8 20.5 252.0 20.1 252.0 20.0 C 254.4 20.7 251.7 19.7 253.2 20.1 C 256.5 21.2 258.7 21.8 262.0 23.0 C 262.0 22.8 264.7 23.5 264.6 23.6 C 264.3 23.5 264.6 23.7 265.2 24.0 C 265.7 24.2 267.3 24.8 268.2 25.2 C 268.8 25.0 271.8 25.7 272.0 25.5 C 272.6 26.0 272.5 25.9 272.7 26.4 C 275.7 27.7 277.3 28.0 278.9 29.1 C 278.9 28.9 280.2 29.4 281.3 29.8 C 280.9 29.9 280.2 29.7 279.6 29.6 C 281.1 30.2 281.2 30.4 282.5 31.0 C 284.0 31.0 285.6 32.8 286.8 32.7 C 288.7 33.7 288.2 33.7 289.8 34.6 C 289.9 34.5 290.1 34.5 290.6 34.7 C 289.5 34.1 288.6 33.9 288.1 33.3 C 290.6 34.6 283.7 30.1 287.9 32.1 C 288.0 32.3 287.6 32.2 288.4 32.7 C 290.8 33.9 289.5 32.9 288.6 32.5 C 290.2 33.2 291.7 34.2 290.7 33.3 C 294.2 35.2 291.9 34.1 292.9 34.9 C 298.9 38.4 304.9 43.3 308.2 49.3 C 308.6 49.3 310.0 52.6 310.1 53.7 C 311.0 55.3 311.4 57.2 311.2 57.8 C 311.5 58.0 311.2 59.9 311.5 60.0 C 311.4 59.3 311.5 58.8 311.6 59.5 C 311.6 62.1 310.8 65.8 310.5 67.3 C 309.9 68.1 309.3 69.7 308.9 70.8 C 308.7 70.9 309.1 70.1 308.7 70.7 C 308.7 71.0 307.5 73.3 307.0 73.7 C 307.5 73.1 307.7 72.2 307.0 73.2 C 307.1 73.2 306.3 74.4 306.7 74.2 C 305.6 75.5 305.0 76.4 303.9 77.4 C 304.7 76.5 305.1 75.9 305.1 75.6 C 304.5 76.5 304.0 77.1 303.3 77.6 C 303.7 77.7 302.3 78.8 301.0 80.2 C 300.6 80.5 300.2 80.6 299.0 81.6 C 298.5 82.3 301.0 80.3 299.7 81.5 C 299.6 81.4 298.2 82.3 298.7 82.2 C 297.0 83.5 296.1 84.3 294.5 85.2 C 296.5 83.9 294.8 84.6 294.3 84.9 C 293.9 85.2 293.2 85.6 293.2 85.7 C 293.3 85.8 294.3 85.1 294.4 85.1 C 293.0 85.9 292.8 86.5 292.2 86.6 C 292.8 86.2 292.8 86.1 292.1 86.5 C 292.1 86.9 287.5 89.3 289.0 88.2 C 289.1 88.3 290.8 87.3 290.9 87.1 C 290.3 87.3 287.8 88.9 288.3 88.4 C 289.7 87.5 289.7 87.7 291.4 86.6 C 291.5 86.4 292.4 85.8 293.0 85.3 C 290.4 86.9 289.9 87.5 289.4 87.5 C 288.2 88.2 289.1 88.0 286.9 89.1 C 283.9 90.6 286.3 89.1 285.4 89.4 C 282.7 91.0 283.7 90.8 285.0 90.4 C 282.8 91.5 282.2 92.0 279.3 93.2 C 279.3 93.0 279.7 92.8 280.7 92.3 C 280.8 92.3 283.2 91.3 282.9 91.3 C 282.5 91.1 280.6 91.8 277.4 93.1 C 278.3 93.1 278.4 92.9 275.1 94.3 C 275.8 94.4 273.5 94.8 273.5 95.1 C 273.7 95.1 274.9 94.6 276.0 94.2 C 276.0 94.4 275.6 94.6 274.5 95.1 C 273.8 95.3 273.3 95.6 271.2 96.3 C 270.9 96.2 272.4 95.6 272.7 95.3 C 271.5 95.8 271.3 96.0 270.2 96.4 C 269.1 96.6 269.1 96.2 269.0 95.9 C 270.4 95.4 272.4 94.6 270.7 95.0 C 275.6 93.2 270.6 95.5 272.5 94.8 C 274.4 93.7 273.5 94.6 276.5 93.3 C 277.4 92.9 277.7 92.7 278.0 92.5 C 277.8 92.5 276.0 93.0 277.9 92.2 C 278.4 92.1 279.5 91.8 281.0 91.1 C 281.0 91.0 277.9 92.3 280.9 90.9 C 282.4 90.2 281.2 91.2 283.2 90.2 C 283.2 90.1 283.7 89.8 283.8 89.7 C 281.0 91.1 284.3 89.3 282.3 90.1 C 284.7 88.8 282.9 90.1 284.5 89.3 C 284.4 89.1 287.1 88.1 287.0 87.8 C 286.1 88.4 284.2 89.4 284.3 89.0 C 286.1 88.1 293.4 83.6 290.8 85.7 C 291.8 84.9 296.3 81.4 296.0 81.8 C 294.7 82.8 294.8 82.9 294.7 83.1 C 297.2 81.1 298.5 80.3 300.5 78.0 C 298.1 80.2 299.7 78.2 298.0 79.4 C 297.3 79.9 296.2 80.7 296.1 80.9 C 296.6 80.9 297.7 79.9 298.0 79.4 C 298.2 79.6 298.3 79.8 298.4 79.9 C 295.3 82.2 293.5 83.6 291.7 84.7 C 293.2 83.7 288.7 86.1 290.4 85.0 C 291.2 84.7 293.0 83.6 294.4 82.7 C 294.4 82.6 294.3 82.6 294.3 82.5 C 294.9 82.1 295.7 81.5 295.7 81.4 C 294.0 82.7 292.7 83.2 291.5 84.2 C 291.4 84.2 291.4 84.2 291.4 84.1 C 291.0 84.3 290.7 84.5 290.8 84.4 C 291.4 84.0 292.4 83.4 292.4 83.2 C 291.0 84.1 290.6 84.1 288.8 85.1 C 289.1 84.6 286.6 85.7 289.1 84.1 C 289.6 84.1 291.0 83.4 291.0 83.5 C 291.8 83.1 293.1 82.2 293.7 81.6 C 292.9 81.9 291.5 82.8 291.3 82.7 C 292.4 81.9 293.2 81.2 293.9 81.0 C 291.9 82.6 295.2 80.3 296.1 79.9 C 295.8 80.0 295.3 80.3 295.0 80.4 C 296.6 79.2 297.3 78.8 297.2 78.4 C 298.9 76.9 298.7 77.4 299.7 76.4 C 298.8 76.8 300.3 75.6 299.4 76.1 C 301.1 74.3 300.1 75.8 300.7 75.2 C 301.2 74.6 301.2 74.5 301.6 74.0 C 302.4 73.3 303.7 71.7 304.1 71.7 C 304.5 71.0 304.7 70.9 305.1 70.2 C 305.1 70.0 305.2 69.7 305.3 69.4 C 305.4 69.3 305.8 68.9 305.8 68.7 C 304.5 70.4 304.8 69.9 303.2 71.6 C 303.2 71.9 303.0 72.2 303.4 71.8 C 302.4 73.2 302.0 73.5 300.9 74.7 C 300.6 74.7 300.2 74.7 299.2 75.9 C 299.3 75.5 299.0 75.7 299.4 75.2 C 300.0 74.8 300.8 74.0 301.6 73.3 C 301.6 73.2 301.3 73.2 301.7 72.8 C 302.1 72.5 302.6 71.9 302.9 71.4 C 303.0 71.4 302.9 71.7 302.8 71.9 C 304.2 70.2 303.5 70.6 304.4 69.3 C 304.1 69.5 303.6 70.3 303.9 69.5 C 304.6 68.3 304.8 68.1 305.2 67.5 C 305.2 67.4 305.1 67.4 305.2 67.1 C 305.7 66.3 304.8 69.2 305.8 67.8 C 305.6 67.6 306.3 66.1 306.5 65.9 C 306.5 66.5 305.9 67.3 306.0 67.4 C 307.2 64.6 306.7 67.5 307.5 64.6 C 307.4 64.6 307.3 64.6 307.2 64.5 C 306.9 65.7 306.7 65.7 306.5 65.5 C 306.1 66.5 305.7 66.8 305.5 67.6 C 305.2 67.1 305.8 66.8 306.2 65.8 C 306.0 65.8 305.6 66.7 305.4 66.7 C 306.5 64.6 306.2 64.0 306.8 61.9 C 306.5 62.4 306.8 60.7 306.6 60.9 C 306.6 62.7 305.9 61.9 305.8 62.2 C 305.7 63.3 306.2 62.9 306.2 63.6 C 305.9 63.9 305.8 63.7 305.5 63.5 C 305.8 62.5 305.7 62.6 305.7 61.8 C 305.9 61.2 306.4 60.6 306.5 61.5 C 306.5 61.3 306.3 60.0 306.5 59.8 C 306.6 61.2 306.6 59.7 306.8 60.5 C 306.9 59.5 306.4 57.6 306.2 56.3 C 306.1 56.5 305.9 56.0 305.8 56.1 C 306.4 57.3 305.9 57.6 306.1 58.9 C 306.0 58.3 305.9 58.7 305.8 58.9 C 305.8 57.7 305.4 57.1 305.4 56.2 C 305.3 56.2 305.3 56.2 305.2 56.3 C 304.9 54.8 304.9 55.0 304.2 54.0 C 304.1 53.5 304.8 53.9 305.1 53.9 C 304.7 53.4 303.6 51.4 304.1 52.7 C 303.4 51.5 303.9 51.6 303.0 50.4 C 302.8 50.5 303.6 51.7 303.0 51.4 C 302.2 50.3 303.0 50.8 302.1 50.0 C 302.2 49.8 302.4 49.7 301.6 48.7 C 302.0 49.5 301.4 48.7 301.1 48.5 C 301.4 49.0 301.7 49.4 301.8 49.7 C 300.5 47.9 300.2 47.5 298.7 46.2 C 299.4 46.5 298.7 45.6 299.7 46.5 C 298.7 45.7 297.7 44.4 297.0 44.0 C 297.6 44.6 298.6 45.5 298.8 46.0 C 295.9 43.2 293.7 42.0 290.2 39.3 C 290.8 39.7 291.7 40.3 291.8 40.3 C 291.4 40.0 290.7 39.6 290.8 39.5 C 292.1 40.4 293.2 41.2 293.9 41.6 C 294.9 42.4 293.2 41.3 294.2 42.1 C 294.5 42.1 296.3 43.7 295.8 42.9 C 294.0 41.8 292.3 40.3 291.6 39.4 C 289.5 38.5 291.3 39.7 288.9 38.8 C 289.1 38.7 288.6 38.3 287.9 37.9 C 288.5 38.6 285.8 36.8 285.5 36.7 C 286.6 37.1 290.6 39.3 288.8 37.8 C 289.3 38.9 284.1 35.0 285.0 36.1 C 282.3 34.7 283.4 34.9 281.7 34.4 C 281.7 34.3 281.9 34.2 281.1 33.8 C 280.3 33.5 280.0 33.4 279.6 33.3 C 283.8 35.4 282.4 35.1 284.8 36.4 C 284.4 36.2 284.0 36.0 284.1 36.1 C 284.1 36.2 284.0 36.2 283.4 35.9 C 283.4 35.5 281.3 34.9 280.8 34.4 C 281.7 34.8 282.4 35.2 282.2 34.9 C 278.9 33.3 279.7 33.3 274.5 31.0 C 276.1 31.8 273.9 31.0 272.1 30.3 C 269.4 29.2 270.6 29.2 267.2 28.0 C 267.3 28.4 266.4 28.1 264.9 27.5 C 263.4 27.0 262.7 26.7 261.5 26.5 C 261.8 26.2 258.7 25.1 258.0 25.2 C 257.9 25.1 256.7 24.8 255.9 24.5 C 255.8 24.3 256.7 24.6 256.0 24.3 C 255.3 24.1 255.9 24.6 254.9 24.3 C 253.8 23.9 254.1 23.7 252.3 23.3 C 252.2 23.5 253.2 23.7 252.2 23.6 C 250.8 23.1 249.4 22.8 250.6 23.3 C 248.3 22.8 249.6 22.6 247.4 22.1 C 248.0 22.4 248.0 22.4 246.8 22.2 C 246.1 21.8 246.0 21.7 245.8 21.6 C 245.1 21.6 245.3 21.7 243.5 21.2 C 243.5 21.3 243.5 21.4 243.5 21.5 C 242.7 21.3 241.5 21.1 241.3 20.9 C 242.8 21.3 242.4 21.0 243.0 21.1 C 241.5 20.7 238.6 19.8 240.8 20.6 C 238.6 20.2 239.7 20.1 238.0 19.8 C 239.0 20.3 238.0 19.8 236.2 19.5 C 236.3 19.9 235.0 19.3 233.9 19.1 C 234.0 19.4 233.7 19.4 232.7 19.2 C 232.8 19.1 232.1 18.9 231.0 18.8 C 231.0 18.9 233.4 19.5 231.0 19.0 C 229.8 18.7 229.9 18.4 228.0 18.1 C 227.7 17.8 229.7 18.2 229.3 17.9 C 227.8 17.9 227.4 17.6 225.2 17.2 C 226.0 17.8 220.6 17.1 223.2 17.7 C 222.5 17.5 221.4 17.7 220.8 17.4 C 221.7 17.5 220.2 17.0 220.3 17.0 C 219.2 16.9 216.8 16.4 216.7 16.5 C 219.0 16.8 219.0 17.0 219.6 17.3 C 216.3 16.9 213.3 16.4 213.6 16.2 C 213.6 16.3 213.1 16.2 212.9 16.3 C 214.1 16.4 214.9 16.9 213.5 16.8 C 213.8 16.5 212.8 16.3 211.7 16.1 C 211.7 16.4 207.2 15.5 208.0 15.9 C 209.8 15.9 211.2 16.5 209.8 16.5 C 208.7 16.1 206.2 15.7 206.8 15.5 C 206.1 15.5 205.5 15.6 204.9 15.6 C 204.3 15.7 205.7 15.9 205.5 16.0 C 204.5 15.9 203.1 15.8 203.0 15.7 C 205.5 15.9 201.7 15.4 204.3 15.5 C 202.7 15.4 202.3 15.2 201.1 15.0 C 201.1 15.1 200.6 15.1 200.5 15.1 C 201.6 15.1 202.7 15.3 202.4 15.6 C 200.1 15.4 200.5 15.1 198.6 15.0 C 198.0 15.1 195.4 15.2 194.1 14.9 C 196.7 15.1 194.0 14.8 195.5 14.8 C 197.7 15.1 198.4 14.9 199.2 14.8 C 198.3 14.5 196.4 14.3 196.1 14.6 C 197.3 14.7 197.3 14.6 198.0 14.6 C 197.9 14.7 197.6 14.8 196.7 14.8 C 195.7 14.5 193.3 14.5 194.9 14.3 C 193.2 14.3 191.5 13.9 189.8 14.0 C 191.6 14.2 193.0 14.4 193.5 14.6 C 192.0 14.6 190.4 14.2 190.4 14.4 C 190.5 14.6 193.0 14.7 193.5 14.9 C 191.5 15.0 188.5 14.1 191.0 14.8 C 189.9 14.7 188.3 14.6 187.8 14.4 C 189.2 14.5 187.7 14.1 187.1 14.0 C 186.0 13.9 185.0 13.9 184.6 14.0 C 186.4 14.0 187.7 14.4 186.5 14.4 C 186.2 14.2 185.8 14.3 185.2 14.4 C 185.1 14.2 183.1 14.2 182.7 14.1 C 182.8 14.2 183.8 14.2 183.9 14.4 C 182.7 14.4 181.0 14.6 180.1 14.3 C 180.9 14.3 181.9 14.4 182.0 14.3 C 178.7 13.7 177.6 13.4 173.7 13.1 C 174.2 13.1 174.4 13.1 174.3 13.0 C 171.8 12.9 170.1 12.7 170.5 12.5 C 168.9 12.6 168.1 12.7 167.2 12.8 C 168.9 13.0 169.4 12.8 170.5 12.9 C 169.8 13.0 171.7 13.5 172.4 13.6 C 175.2 13.5 175.3 13.9 178.2 13.8 C 177.4 14.1 180.2 14.0 179.4 14.2 C 176.8 13.7 174.3 13.9 170.4 13.7 C 170.9 13.5 171.4 13.3 169.8 13.2 C 167.4 13.0 168.5 13.4 166.5 13.3 C 165.7 13.1 166.9 13.0 165.9 12.9 C 165.2 13.0 163.3 13.0 162.7 12.7 C 165.3 12.8 162.2 12.5 163.9 12.4 C 163.1 12.4 162.5 12.4 162.0 12.3 C 164.6 12.6 159.4 12.7 161.3 12.9 C 157.7 13.0 161.1 12.3 158.1 12.3 C 159.6 12.5 157.7 12.6 155.5 12.6 C 154.9 12.3 152.7 12.3 151.0 12.3 C 151.9 12.4 152.6 12.4 151.0 12.6 C 151.8 12.7 153.4 12.6 154.2 12.5 C 154.2 12.6 154.5 12.7 154.9 12.8 C 152.7 12.8 153.6 12.9 152.9 13.0 C 152.3 12.9 150.7 13.0 150.3 12.8 C 150.3 12.9 149.8 12.9 149.7 13.0 C 152.4 13.0 149.3 13.4 151.0 13.4 C 152.2 13.3 151.4 13.1 152.9 13.1 C 154.4 13.4 151.7 13.4 151.0 13.7 C 152.2 13.9 153.8 13.5 154.2 13.8 C 152.6 14.1 149.9 14.0 147.8 13.9 C 147.9 14.3 144.2 14.0 143.9 14.4 C 143.6 14.3 143.2 14.2 142.6 14.2 C 142.0 14.5 141.3 14.2 140.7 14.2 C 140.6 14.3 140.8 14.4 141.3 14.5 C 138.7 14.5 138.0 14.5 134.9 14.8 C 134.4 14.7 133.8 14.6 133.6 14.4 C 134.3 14.3 135.0 14.2 135.5 14.1 C 131.3 14.3 134.0 14.8 131.0 14.6 C 131.2 14.8 133.2 14.9 131.7 15.1 C 129.0 14.9 125.2 15.5 125.3 14.8 C 122.9 14.8 121.4 15.4 120.3 15.2 C 119.5 15.2 119.3 15.3 119.0 15.5 C 119.7 15.5 120.7 15.6 121.5 15.6 C 122.9 15.4 123.6 15.5 122.2 15.3 C 124.3 15.1 124.8 15.2 126.0 15.2 C 123.1 15.6 120.4 15.7 120.3 16.0 C 119.3 16.0 118.6 15.9 117.8 15.8 C 117.5 16.0 114.3 16.4 114.0 16.2 C 116.2 16.0 118.4 15.5 116.5 15.5 C 111.1 16.3 108.1 16.2 103.5 17.1 C 103.4 17.0 103.7 16.8 102.9 16.8 C 102.9 17.0 102.7 17.1 102.3 17.3 C 100.9 17.4 100.0 17.4 98.1 17.8 C 98.2 17.5 97.9 17.4 96.8 17.5 C 96.2 17.8 94.4 18.6 93.3 18.7 C 94.5 18.5 92.9 18.5 92.1 18.6 C 92.8 18.8 86.8 19.3 88.6 19.3 C 86.2 19.8 85.1 19.8 85.1 19.7 C 84.2 19.9 83.6 20.1 82.8 20.3 C 82.2 20.1 78.3 21.2 77.7 21.2 C 79.1 21.0 79.3 20.6 78.2 20.8 C 77.5 21.2 73.9 22.2 73.3 22.3 C 73.5 22.2 73.7 21.9 75.4 21.4 C 72.5 22.0 72.6 22.4 71.7 22.9 C 71.7 22.5 70.4 23.1 70.0 23.3 C 69.1 23.3 70.1 23.2 69.9 23.0 C 68.9 23.2 68.5 23.1 67.2 23.5 C 67.7 23.7 66.2 23.9 65.7 24.0 C 65.5 24.2 64.8 24.5 63.6 24.9 C 65.1 24.1 57.0 26.4 59.0 26.1 C 57.5 26.8 57.3 26.4 55.4 27.0 C 55.1 27.3 53.9 27.6 55.0 27.4 C 54.2 27.7 53.3 27.9 53.0 28.0 C 52.6 28.1 52.2 28.2 50.6 28.8 C 52.1 28.6 47.4 29.9 48.3 30.0 C 46.8 30.1 44.5 31.6 42.0 32.3 C 42.0 32.4 41.4 32.7 41.3 32.8 C 41.0 33.1 44.2 31.7 42.2 32.7 C 39.6 33.6 40.9 32.9 40.5 33.0 C 34.0 36.1 27.5 39.8 23.2 43.2 C 23.8 42.9 23.7 43.0 22.9 43.7 C 21.4 44.4 17.6 48.6 17.2 49.4 C 16.7 49.5 15.5 51.8 15.2 52.1 C 15.4 51.7 15.7 50.8 15.2 51.6 C 15.1 52.4 14.5 53.0 14.3 53.9 C 13.9 54.2 13.2 56.8 13.2 55.5 C 13.0 56.0 12.9 56.3 12.8 56.5 C 13.0 56.7 12.9 57.2 13.3 56.3 C 12.4 58.5 12.6 59.1 12.5 60.9 C 12.6 61.2 12.7 59.8 12.8 60.9 C 12.7 60.9 12.7 60.9 12.6 60.9 C 12.6 61.2 12.7 61.4 12.6 61.5 C 12.5 61.5 12.5 60.9 12.2 60.9 C 12.3 61.7 12.1 62.4 12.3 62.6 C 12.2 61.4 12.8 62.2 12.6 63.0 C 12.4 62.3 13.3 65.8 13.9 66.8 C 13.8 67.5 13.4 65.6 13.2 65.8 C 14.0 67.9 14.0 67.8 14.3 67.9 C 14.8 69.0 14.9 69.5 15.9 70.8 C 16.4 71.6 15.4 70.4 16.0 71.3 C 16.4 71.7 16.6 71.8 17.3 72.6 C 18.4 74.8 23.9 78.7 26.6 81.5 C 25.4 80.5 27.1 81.5 28.9 82.7 C 29.0 82.8 28.7 82.8 29.3 83.2 C 29.3 83.0 29.9 83.3 31.2 84.0 C 31.2 84.2 30.9 84.2 31.6 84.6 C 32.3 84.6 33.8 85.8 34.9 86.2 C 35.2 86.6 32.5 85.0 32.2 85.1 C 35.3 87.0 36.0 87.1 38.7 88.4 C 37.3 87.8 39.7 89.1 40.1 89.4 C 39.5 88.9 41.8 89.8 40.3 88.9 C 41.3 89.4 43.0 90.1 43.2 90.3 C 42.6 90.0 41.7 89.6 41.6 89.7 C 43.0 90.2 44.7 91.2 45.5 91.3 C 44.5 90.9 44.0 90.6 44.0 90.4 C 44.4 90.5 44.9 90.6 45.7 90.9 C 43.2 90.5 50.0 92.9 50.5 92.9 C 51.0 93.5 51.4 93.6 51.1 93.7 C 54.1 94.8 54.2 94.5 55.3 94.8 C 54.9 95.0 54.5 95.1 56.0 95.7 C 55.8 95.3 57.7 96.0 57.2 95.4 C 61.4 96.7 62.3 97.3 64.9 98.0 C 65.0 97.9 64.2 97.6 65.0 97.8 C 66.2 98.2 67.2 98.6 68.0 99.0 C 68.8 99.0 67.8 98.7 68.6 98.8 C 70.6 99.6 70.0 99.7 71.8 100.4 C 74.0 100.7 73.2 100.6 74.6 100.7 C 74.0 100.5 73.3 100.3 74.1 100.4 C 75.4 101.0 75.9 101.4 76.2 101.5 C 75.2 101.3 74.4 101.1 74.0 100.9 C 73.6 101.0 72.3 100.6 73.4 101.1 C 72.0 100.7 70.4 100.2 68.4 99.8 C 69.0 100.2 66.7 99.4 67.3 99.8 C 69.5 100.3 70.0 100.6 72.1 101.1 C 71.7 100.7 74.0 101.4 74.4 101.6 C 74.4 101.4 75.9 101.8 75.6 101.5 C 77.3 101.8 77.2 102.0 78.9 102.3 C 79.0 102.5 78.8 102.5 79.4 102.7 C 80.1 102.6 80.6 103.0 81.1 103.1 C 80.8 102.8 83.3 103.4 83.5 103.3 C 82.8 103.1 81.9 103.0 81.8 102.9 C 84.6 103.5 82.4 102.8 81.9 102.5 C 82.0 102.6 80.9 102.7 80.7 102.5 C 83.1 102.8 77.5 101.4 79.6 101.9 C 81.4 102.3 81.3 102.1 83.1 102.6 C 85.1 103.4 82.5 103.1 84.6 103.9 C 86.0 104.0 86.9 104.2 87.0 104.0 C 87.3 104.1 87.6 104.3 88.1 104.4 C 88.7 104.4 86.4 103.8 88.2 104.1 C 89.1 104.3 88.0 104.5 89.9 104.8 C 90.7 104.7 87.6 104.1 89.4 104.3 C 91.1 105.0 89.0 104.1 91.1 104.5 C 91.3 104.6 91.6 104.7 92.3 104.8 C 92.4 104.9 92.1 105.0 92.9 105.2 C 93.3 104.8 93.6 105.5 95.2 105.7 C 96.2 105.5 93.6 105.2 94.1 105.1 C 95.9 105.7 97.0 105.5 97.7 105.6 C 96.2 105.6 100.0 106.2 100.1 106.4 C 99.7 106.1 100.5 106.3 102.6 106.4 C 102.7 106.8 105.1 106.8 105.6 107.2 C 105.9 107.2 106.5 107.2 106.9 107.1 C 106.1 107.0 105.4 106.9 105.7 106.8 C 106.3 106.8 106.9 106.9 107.5 107.0 C 108.5 107.3 105.8 107.5 109.9 107.9 C 109.5 107.6 111.3 107.7 112.4 107.7 C 112.3 107.5 110.8 107.6 110.6 107.4 C 112.0 107.4 113.5 107.7 114.3 108.0 C 116.8 108.1 119.7 108.5 123.2 108.7 C 124.0 109.0 120.2 108.7 122.5 109.0 C 123.5 109.1 123.1 108.8 124.4 109.0 C 123.1 109.9 134.0 109.9 134.7 110.3 C 135.1 110.1 138.2 110.4 137.9 110.1 C 135.8 110.2 134.4 109.8 133.4 109.6 C 131.5 109.6 135.2 110.0 133.4 109.9 C 133.2 109.8 130.6 109.7 130.8 109.5 C 133.6 109.7 129.4 109.2 131.5 109.1 C 134.1 109.3 139.2 109.3 138.0 109.5 C 138.0 109.5 136.8 109.4 136.7 109.5 C 139.6 109.7 141.3 109.6 142.5 109.5 C 143.8 109.7 149.0 109.6 147.7 109.7 C 148.1 109.9 144.6 109.5 145.1 109.8 C 150.5 110.0 150.6 109.8 154.2 110.0 C 153.0 109.7 157.9 109.6 157.5 109.8 C 157.5 110.0 158.5 110.2 160.7 109.9 C 160.4 110.2 161.5 110.2 162.7 110.3 C 163.2 110.1 161.7 110.1 162.0 109.9 C 163.0 109.9 164.2 109.9 165.3 109.9 C 165.3 110.0 165.1 110.1 165.9 110.1 C 167.1 109.9 171.5 109.6 171.1 109.8 C 169.3 110.1 174.1 110.0 171.1 110.3 C 171.9 110.2 172.0 110.3 173.1 110.3 C 173.1 110.2 173.1 110.1 173.1 110.0 C 175.5 109.9 174.3 110.3 176.3 110.2 C 176.5 110.1 177.4 110.1 177.6 110.0 C 176.8 110.0 176.8 110.1 175.7 110.1 C 176.9 109.7 173.5 110.0 173.7 109.7 C 176.0 109.6 176.0 109.8 176.9 109.9 C 179.8 109.6 178.5 109.8 181.5 109.7 C 181.5 109.6 180.7 109.6 180.8 109.5 C 184.5 109.4 184.1 109.9 186.6 109.6 C 186.1 109.6 183.8 110.0 185.4 109.9 C 187.1 109.7 187.6 109.4 189.8 109.2 C 190.0 109.3 189.8 109.4 190.5 109.4 C 191.5 109.2 191.5 109.0 192.4 108.9 C 192.6 109.0 193.8 108.8 194.3 108.7 C 195.1 108.9 194.0 109.0 195.0 109.0 C 196.9 108.8 197.8 108.2 199.4 108.1 C 199.3 108.4 201.0 108.2 202.6 108.0 C 202.9 108.3 206.1 107.9 208.2 107.7 C 207.7 107.5 209.9 107.3 209.4 107.1 C 208.4 107.3 207.8 107.3 207.6 107.2 C 210.0 106.9 210.8 107.3 212.5 106.7 C 213.4 106.7 214.6 106.7 216.2 106.6 C 216.4 106.4 213.3 106.7 215.0 106.4 C 215.1 106.5 215.7 106.4 216.2 106.3 C 216.0 106.6 217.3 106.5 218.1 106.5 C 219.5 106.1 222.5 106.0 221.1 105.9 C 223.3 105.5 221.9 106.2 223.6 105.9 C 222.7 105.7 225.6 105.2 224.1 105.3 C 226.4 104.8 226.3 105.3 225.4 105.5 C 227.5 105.3 227.9 105.0 229.0 104.9 C 227.9 104.9 231.1 104.2 229.5 104.6 C 229.0 104.9 231.4 104.4 231.9 104.4 C 231.1 104.4 232.2 104.2 230.7 104.3 C 232.2 103.9 234.5 103.5 236.0 103.5 C 237.8 102.9 239.6 102.5 238.8 102.9 C 240.6 102.5 239.9 102.7 241.7 102.3 C 241.7 102.2 241.2 102.3 241.1 102.3 C 243.5 101.8 243.1 102.0 246.2 101.3 C 245.9 101.7 247.9 101.2 248.5 101.2 C 247.2 101.5 246.2 101.7 245.1 101.9 C 244.9 102.1 246.0 101.9 245.2 102.1 C 245.1 102.0 244.6 102.1 244.1 102.2 C 246.1 102.0 241.5 103.2 242.9 102.6 C 243.0 102.7 243.1 102.7 243.5 102.6 C 243.1 102.4 243.1 102.5 243.4 102.2 C 242.4 102.5 241.5 102.4 241.2 102.7 C 241.2 102.8 242.2 102.5 242.4 102.6 C 239.8 103.3 241.5 102.5 239.5 103.0 C 239.1 103.3 240.2 103.2 240.7 103.2 C 238.8 103.6 237.2 104.0 236.6 103.9 C 234.9 104.3 236.8 104.1 235.6 104.4 C 234.9 104.4 234.9 104.2 233.7 104.5 C 232.5 104.8 234.5 104.5 233.2 104.8 C 231.8 104.9 234.1 104.3 231.9 104.6 C 232.5 104.9 230.0 104.9 230.2 105.1 C 231.5 104.8 231.5 105.2 230.8 105.1 C 227.9 105.3 226.0 106.5 223.0 106.4 C 223.1 106.5 222.6 106.6 222.5 106.7 C 224.7 106.5 227.9 106.0 228.5 106.2 C 230.3 105.8 230.0 105.7 230.3 105.5 C 232.3 105.4 232.2 105.5 231.0 106.1 C 227.6 106.8 226.1 106.8 223.8 107.1 C 222.6 107.5 224.0 107.2 224.4 107.2 C 217.3 108.1 222.8 108.0 220.2 108.3 C 220.3 108.1 219.7 108.2 219.0 108.2 C 219.0 108.3 218.0 108.5 217.8 108.6 C 218.3 108.5 218.5 108.5 218.4 108.6 C 216.6 109.0 217.3 108.6 217.2 108.5 C 218.5 108.3 219.4 108.2 219.6 108.0 C 217.8 108.4 216.4 108.3 215.3 108.7 C 213.6 108.6 216.1 107.9 215.2 107.8 C 215.5 107.6 214.1 108.6 212.8 108.8 C 210.6 109.1 210.5 109.4 208.4 109.6 C 207.9 109.4 210.5 109.2 210.3 109.1 C 209.7 109.1 209.6 109.1 209.0 109.1 C 207.6 109.3 207.7 109.5 206.5 109.7 C 205.9 109.6 205.6 109.7 204.7 109.9 C 203.3 110.0 205.5 109.7 204.0 109.8 C 202.5 109.9 201.4 110.3 200.9 110.3 C 200.7 110.2 201.0 110.1 200.2 110.1 C 198.5 110.5 198.0 110.5 200.3 110.5 C 198.3 110.6 197.4 110.8 197.7 111.0 C 200.7 110.8 201.5 110.7 202.9 110.8 C 203.4 110.5 204.3 110.6 205.4 110.6 C 204.7 110.2 206.7 110.4 207.3 110.1 C 206.5 110.2 205.8 110.2 205.3 110.2 C 208.5 109.9 208.4 109.9 210.9 109.2 C 211.0 109.3 211.3 109.4 211.6 109.4 C 210.8 109.6 208.5 109.8 208.5 110.0 C 210.3 110.1 210.9 109.6 212.9 109.6 C 213.7 109.3 211.2 109.5 212.9 109.3 C 213.7 109.4 214.7 109.4 216.0 109.3 C 217.3 109.1 218.0 108.9 219.0 108.6 C 219.2 108.7 219.3 108.8 220.3 108.6 C 220.2 108.5 219.2 108.6 220.3 108.4 C 223.5 108.2 225.7 108.1 228.8 107.4 C 227.7 107.5 225.1 107.7 226.4 107.5 C 227.8 107.4 229.7 106.8 231.1 106.7 C 231.6 106.7 229.4 107.0 230.0 107.3 C 231.4 107.0 232.2 106.9 232.9 106.8 C 232.9 106.7 234.5 106.4 234.1 106.3 C 232.9 106.5 232.7 106.8 232.3 106.8 C 233.2 105.9 236.7 106.2 238.8 105.7 C 240.2 105.3 237.7 105.7 239.3 105.3 C 240.3 105.0 241.0 105.4 239.4 105.8 C 238.4 106.0 238.0 106.4 237.7 106.1 C 237.2 106.2 236.5 106.4 236.6 106.4 C 237.4 106.3 237.2 106.5 237.7 106.4 C 236.6 106.6 236.5 107.1 235.4 107.1 C 236.1 106.9 236.3 106.8 236.6 106.7 C 233.5 107.4 232.5 107.3 230.6 107.6 C 231.7 107.5 230.6 107.7 230.7 107.9 C 232.1 107.6 234.7 107.2 233.1 107.6 C 232.0 107.5 231.3 108.4 230.2 108.3 C 231.0 108.1 230.8 108.0 231.3 107.9 C 230.1 108.0 230.1 107.8 228.9 108.0 C 225.0 109.1 221.9 108.9 215.5 110.3 C 213.3 110.6 217.6 109.9 217.3 109.8 C 216.7 109.9 216.6 109.8 216.1 109.9 C 216.0 110.1 214.9 110.0 214.2 110.3 C 214.3 110.1 211.3 110.7 209.8 110.6 C 209.8 110.7 210.0 110.9 209.2 111.0 C 204.6 111.2 196.2 112.4 192.6 112.4 C 192.8 112.6 191.2 112.7 190.8 112.8 C 188.5 112.9 189.5 112.7 186.2 113.1 C 184.6 113.3 186.5 112.9 186.8 112.9 C 181.9 113.3 177.6 113.2 174.5 113.6 C 172.9 113.7 174.5 113.4 171.2 113.5 C 171.1 113.8 166.0 113.4 165.3 113.8 C 163.3 113.9 159.7 113.4 161.3 113.8 C 158.7 113.8 160.5 113.5 159.4 113.4 C 157.5 113.5 159.9 114.1 158.1 114.1 C 158.3 113.8 156.7 113.9 155.5 113.7 C 156.9 113.7 157.9 113.7 158.1 113.5 C 156.8 113.7 156.9 113.5 154.8 113.5 C 153.3 113.6 148.9 113.8 147.6 113.4 C 147.5 113.5 147.9 113.5 148.2 113.6 C 146.9 113.6 145.4 113.3 145.6 113.6 C 142.7 113.5 141.4 113.2 139.7 113.4 C 138.5 113.4 140.2 113.2 136.5 113.0 C 136.4 113.2 129.8 112.8 128.1 112.5 C 128.0 112.8 127.6 112.5 126.8 112.4 C 126.7 112.5 126.8 112.6 126.1 112.6 C 126.0 112.5 125.4 112.5 124.8 112.5 C 125.3 112.1 122.4 112.4 122.3 112.1 C 122.8 112.1 122.9 111.9 122.3 111.9 C 122.1 112.1 119.4 111.5 119.7 111.7 C 120.3 111.8 122.1 111.9 121.6 112.1 C 119.1 112.0 120.1 111.8 118.4 111.6 C 118.5 111.7 119.5 111.9 118.4 111.8 C 116.7 111.6 118.3 111.8 117.2 111.5 C 116.3 111.4 114.6 111.4 114.0 111.4 C 114.1 111.4 113.6 111.2 113.4 111.1 C 110.1 110.7 102.8 110.0 99.7 109.3 C 99.5 109.3 98.8 109.3 99.0 109.5 C 97.2 109.1 97.3 109.2 95.4 108.8 C 95.4 108.9 95.4 109.0 95.4 109.1 C 92.9 108.8 95.2 108.7 93.6 108.5 C 93.3 109.0 92.7 108.1 91.2 107.9 C 91.0 108.0 90.3 107.9 90.5 108.1 C 88.2 107.7 88.4 107.3 86.4 107.1 C 86.9 107.2 87.1 108.1 86.8 108.3 C 86.5 108.1 85.9 107.9 85.1 107.7 C 86.1 107.6 85.7 106.6 82.9 106.4 C 84.4 106.6 85.0 106.8 84.6 106.9 C 82.5 106.5 81.8 106.2 80.0 105.8 C 79.7 106.0 80.9 106.3 80.4 106.5 C 80.0 106.4 79.7 106.4 79.8 106.5 C 77.9 106.1 77.9 105.9 75.8 105.6 C 75.9 105.4 76.3 105.5 77.0 105.8 C 76.9 105.6 77.0 105.4 78.2 105.6 C 78.4 105.8 77.6 105.9 79.3 106.2 C 79.4 106.1 79.4 105.9 79.4 105.8 C 78.1 105.5 75.2 104.7 74.9 104.7 C 75.4 104.9 76.4 105.2 75.9 105.4 C 73.7 104.8 73.2 104.4 71.5 103.8 C 68.4 103.2 63.2 101.7 63.7 102.2 C 62.0 101.6 62.6 101.8 61.1 101.3 C 61.5 101.7 59.3 100.9 59.4 101.1 C 61.3 101.6 60.7 101.5 62.6 102.0 C 62.5 102.1 62.2 102.1 61.4 102.0 C 61.4 101.8 60.6 101.6 59.4 101.2 C 59.6 101.3 60.6 101.9 59.3 101.5 C 59.2 101.4 58.9 101.3 58.3 101.1 C 58.3 101.0 58.3 100.9 58.4 100.7 C 59.1 100.9 60.0 101.1 60.6 101.1 C 60.0 101.0 60.0 100.9 59.5 100.7 C 59.1 100.8 57.1 100.0 56.9 100.1 C 57.7 100.3 58.2 100.7 57.3 100.4 C 57.2 100.3 55.8 99.8 55.3 99.8 C 57.0 100.5 56.3 100.2 57.2 100.8 C 56.1 100.5 55.7 100.3 55.3 100.1 C 55.0 100.0 54.8 99.9 54.5 99.7 C 54.1 99.6 54.1 99.6 53.1 99.3 C 53.1 99.1 53.2 98.9 53.8 99.0 C 53.2 98.6 50.8 97.7 48.7 97.0 C 46.7 96.4 44.8 95.7 43.9 95.3 C 45.1 95.9 46.7 96.1 44.8 95.3 C 44.8 95.4 43.4 94.8 43.1 94.8 C 42.3 95.0 43.8 95.9 45.2 96.7 C 43.7 96.1 43.3 96.0 41.9 95.5 C 41.5 95.1 43.1 95.4 41.4 94.6 C 40.8 94.8 38.1 93.2 37.4 93.2 C 38.6 93.7 39.4 94.2 38.1 93.7 C 38.4 93.6 36.0 92.6 36.0 92.5 C 37.9 93.3 38.5 93.3 39.8 93.9 C 38.2 93.1 41.0 94.2 38.4 93.0 C 37.2 92.6 36.5 92.6 33.9 91.2 C 33.0 90.7 34.0 90.9 32.7 90.3 C 32.9 90.7 30.2 89.3 32.0 90.0 C 31.0 89.5 30.6 89.2 30.1 88.8 C 31.2 89.7 25.2 86.6 26.0 87.2 C 26.2 87.0 26.0 86.5 25.8 86.3 C 24.6 85.8 23.4 84.8 20.9 82.9 C 20.8 83.2 20.5 82.6 19.4 81.8 C 19.1 81.8 20.0 82.6 19.3 82.0 C 18.2 80.9 18.2 80.9 18.0 80.6 C 17.2 79.9 16.7 79.4 16.4 79.0 C 16.3 79.0 16.4 79.3 16.6 79.5 C 14.0 76.6 12.6 75.3 11.0 72.8 C 11.6 73.9 12.1 73.9 11.5 73.1 C 11.2 72.6 10.8 72.2 10.6 71.9 C 10.7 72.6 10.7 72.3 10.0 71.0 C 9.3 70.0 9.9 71.7 9.4 70.8 C 9.1 69.8 9.5 70.3 9.3 69.7 C 9.1 69.3 8.9 68.8 8.7 68.4 C 8.9 69.2 8.4 68.4 8.1 67.6 C 8.6 68.1 8.4 67.7 7.9 66.1 C 8.0 65.9 8.3 66.7 8.1 66.0 C 8.1 65.7 7.4 64.4 7.5 63.3 C 7.6 63.6 7.6 63.8 7.7 63.7 C 7.4 62.5 7.6 61.5 7.7 60.4 C 7.5 61.5 7.3 60.9 7.2 61.4 C 7.4 60.3 7.2 58.9 7.6 58.1 C 7.3 59.7 8.0 58.2 8.2 57.2 C 8.0 57.0 7.8 58.6 7.6 58.1 C 7.5 57.5 8.0 56.4 7.9 55.8 C 7.8 55.8 7.8 56.5 7.7 56.7 C 7.8 55.8 7.5 56.9 7.6 56.2 C 8.0 55.8 7.7 55.2 7.9 54.7 C 8.1 54.2 8.9 53.1 8.9 52.5 C 8.8 52.5 8.5 53.3 8.4 53.4 C 9.2 50.8 9.9 50.2 11.1 47.9 C 11.4 47.7 11.7 47.4 12.2 46.8 C 12.0 46.7 12.3 46.3 12.6 45.8 C 13.4 44.9 14.3 44.1 15.4 43.0 C 15.4 43.4 14.9 44.0 16.4 42.5 C 16.5 42.3 15.8 42.9 16.3 42.4 C 16.4 42.4 16.8 42.1 16.8 41.9 C 16.7 41.9 16.7 41.8 16.7 41.8 C 16.2 42.2 15.8 42.6 15.4 43.0 C 15.4 42.9 15.2 42.9 14.8 43.2 C 16.4 41.3 16.7 41.8 17.8 40.5 C 18.3 40.6 18.8 40.3 17.9 41.4 C 18.9 40.4 19.7 39.6 19.9 39.2 C 18.5 40.4 18.8 39.8 18.3 40.0 C 19.2 39.3 19.1 39.2 19.5 38.7 C 20.7 38.0 18.6 40.0 20.8 38.3 C 19.0 39.4 22.1 37.0 23.4 36.3 C 23.1 36.3 22.6 36.6 23.2 36.1 C 26.4 33.7 26.6 34.6 28.6 32.9 C 28.5 33.2 29.5 32.6 30.0 32.4 C 28.2 33.5 27.8 33.8 27.0 34.3 C 27.2 34.3 27.7 34.0 28.3 33.8 C 28.2 33.6 28.7 33.3 29.5 32.9 C 30.0 32.5 29.6 32.3 31.1 31.3 C 31.2 31.3 31.1 31.5 31.9 31.1 C 32.5 30.5 31.4 31.7 34.8 30.0 C 34.1 30.2 33.7 30.3 33.9 30.0 C 35.5 29.0 35.2 29.3 37.5 28.2 C 38.5 28.1 36.1 29.3 35.6 29.8 C 37.1 29.0 38.3 28.2 40.0 27.6 C 38.6 28.1 39.8 27.3 41.3 26.6 C 42.7 26.1 41.4 27.0 43.1 26.3 C 44.4 25.7 45.0 25.2 43.7 25.6 C 46.8 24.5 46.0 24.5 48.7 23.6 C 48.8 23.7 48.1 24.0 47.0 24.3 C 47.2 24.3 46.9 24.5 47.9 24.2 C 48.8 23.7 50.2 23.2 51.7 22.6 C 53.2 22.0 54.0 21.7 54.6 21.4 C 57.0 21.1 59.6 19.8 62.0 19.2 C 61.1 19.8 65.2 18.4 66.4 18.4 C 67.2 18.1 69.3 17.0 68.5 17.4 C 68.8 17.7 70.2 17.2 71.4 17.0 C 71.4 16.9 71.4 16.8 71.4 16.8 C 73.9 16.1 74.5 16.2 75.4 16.2 C 78.4 15.4 81.9 15.0 85.8 14.0 C 86.8 14.1 87.7 13.8 90.0 13.6 C 89.9 13.4 91.8 13.1 93.6 12.8 C 93.1 12.6 94.8 12.4 94.8 12.2 C 93.2 12.5 93.7 12.1 92.9 12.2 C 95.0 12.0 96.0 11.4 97.7 11.4 C 95.7 11.8 95.1 12.2 94.8 12.6 C 97.3 12.2 98.6 12.1 99.1 12.2 C 99.3 12.0 99.0 11.9 98.4 11.9 C 99.3 11.8 100.1 11.7 100.9 11.6 C 101.1 11.7 100.0 11.9 100.9 11.8 C 101.5 11.6 102.1 11.5 102.7 11.3 C 103.5 11.5 101.8 11.6 101.6 11.8 C 104.9 11.4 103.4 11.1 105.2 10.8 C 105.7 10.9 105.6 11.2 107.1 11.1 C 107.7 10.8 107.9 10.6 109.6 10.4 C 110.7 10.3 109.6 10.7 110.9 10.6 C 111.0 10.5 111.6 10.5 112.1 10.5 C 112.1 10.3 112.6 10.2 113.4 10.1 C 113.5 10.2 114.8 10.0 115.3 9.9 C 115.4 10.0 117.4 10.1 117.8 9.9 C 117.8 9.8 116.7 9.9 116.6 9.8 C 118.0 9.7 119.0 9.6 119.7 9.4 C 120.2 10.0 122.5 9.3 125.5 9.4 C 127.3 9.0 125.1 9.0 127.4 8.6 C 128.8 8.7 127.1 8.9 127.4 9.1 C 127.8 9.1 130.0 9.1 130.0 8.9 C 130.0 8.8 128.9 8.9 128.8 8.9 C 130.4 8.5 130.4 8.8 131.4 8.9 C 131.2 8.7 132.3 8.5 132.6 8.4 C 137.3 7.9 137.2 8.4 139.1 8.5 C 139.1 8.4 140.3 8.4 140.4 8.3 C 139.1 8.4 137.3 8.3 139.1 8.2 C 138.8 8.3 141.5 8.1 141.7 8.0 C 141.4 7.9 139.7 8.0 140.4 7.7 C 142.9 7.5 141.9 8.1 143.7 7.8 C 143.9 7.9 142.8 8.0 142.4 8.0 C 143.1 8.0 144.2 8.0 144.4 8.1 C 143.4 8.2 143.4 8.3 143.0 8.5 C 144.3 8.2 146.6 8.4 145.0 8.1 C 147.6 8.1 150.1 7.9 148.3 7.7 C 150.4 7.6 149.2 8.0 150.9 7.7 C 150.7 8.0 150.2 8.2 151.6 8.3 C 151.8 8.2 153.0 8.1 152.8 7.9 C 156.0 7.9 156.9 8.1 158.2 8.4 C 157.0 8.0 158.5 8.3 160.1 8.0 C 161.0 8.1 160.1 8.4 162.7 8.4 C 160.0 8.0 165.9 8.3 164.7 7.9 C 167.9 8.1 167.9 8.1 171.3 8.3 C 170.9 8.4 170.1 8.5 168.6 8.5 C 169.7 8.3 165.8 8.3 166.0 8.4 C 166.0 8.5 166.0 8.5 166.0 8.6 C 168.5 8.6 170.2 8.7 171.3 8.8 C 171.8 8.7 172.9 8.6 172.5 8.3 C 174.9 8.7 177.4 8.3 178.5 8.7 C 177.6 8.6 176.9 8.6 177.1 8.8 C 178.1 8.7 179.2 8.7 179.1 8.5 C 177.2 8.4 176.8 8.3 175.9 8.5 C 176.7 8.3 174.0 8.1 175.9 8.1 C 175.8 8.5 179.8 8.1 178.5 8.3 C 176.4 8.3 180.8 8.6 181.0 8.8 C 181.0 8.8 181.0 8.8 181.0 8.8 Z M 229.4 107.9 C 231.2 107.5 229.0 107.7 227.6 107.9 C 228.1 107.9 228.3 108.0 228.3 108.1 C 228.8 108.0 229.3 107.9 229.4 107.9 C 229.4 107.9 229.4 107.9 229.4 107.9 Z M 209.4 107.3 C 208.8 107.7 211.9 107.1 213.2 107.0 C 212.8 107.0 212.4 107.0 213.2 106.8 C 211.8 106.8 211.4 107.3 209.4 107.3 C 209.4 107.3 209.4 107.3 209.4 107.3 Z M 137.9 110.5 C 138.4 110.5 139.7 110.5 139.8 110.6 C 140.6 110.6 140.4 110.5 140.5 110.4 C 142.0 110.4 140.1 110.7 142.5 110.7 C 143.4 110.3 138.4 110.0 137.9 110.5 C 137.9 110.5 137.9 110.5 137.9 110.5 Z M 156.1 11.9 C 157.1 12.0 154.9 12.2 155.5 12.4 C 159.1 12.2 156.3 11.9 161.3 12.0 C 161.0 12.0 160.6 11.9 160.7 11.8 C 158.4 11.9 158.2 12.1 158.7 11.6 C 157.7 11.6 157.4 12.1 156.1 11.9 C 156.1 11.9 156.1 11.9 156.1 11.9 Z M 202.4 15.0 C 202.1 14.9 201.8 14.8 201.8 14.7 C 200.3 14.7 200.6 14.7 198.6 14.5 C 198.9 14.8 200.8 15.0 202.4 15.0 C 202.4 15.0 202.4 15.0 202.4 15.0 Z M 305.0 55.2 C 305.1 55.4 305.1 55.7 305.2 55.9 C 305.3 55.7 305.9 56.2 305.3 55.1 C 305.3 55.0 305.3 55.2 305.4 55.4 C 305.2 55.2 305.0 54.7 304.9 54.8 C 305.1 55.1 305.0 55.2 305.0 55.2 C 305.0 55.2 305.0 55.2 305.0 55.2 Z M 290.0 84.4 C 292.1 82.8 286.3 85.7 290.0 84.4 C 290.0 84.4 290.0 84.4 290.0 84.4 C 290.0 84.4 290.0 84.4 290.0 84.4 Z M 296.0 83.8 C 296.1 83.8 296.6 83.5 296.5 83.4 C 298.3 82.2 296.7 83.5 297.7 82.9 C 298.9 81.8 296.8 83.1 298.4 81.7 C 298.0 81.9 297.1 83.1 296.0 83.8 C 296.0 83.8 296.0 83.8 296.0 83.8 Z M 26.3 34.5 C 24.7 35.6 24.4 36.1 24.3 36.5 C 25.3 35.8 26.2 35.2 26.6 35.1 C 28.6 33.7 25.2 35.8 24.8 36.0 C 24.9 35.7 26.4 34.7 26.3 34.5 C 26.3 34.5 26.3 34.5 26.3 34.5 Z M 21.4 38.0 C 20.9 38.5 20.1 39.3 20.1 39.5 C 21.0 38.8 21.1 38.8 21.2 38.8 C 21.9 38.1 20.8 38.7 21.4 38.0 C 21.4 38.0 21.4 38.0 21.4 38.0 Z M 31.4 31.9 C 30.6 32.4 31.0 32.3 30.9 32.5 C 32.1 31.8 32.3 31.8 33.6 31.2 C 33.6 31.1 33.5 31.0 33.5 30.9 C 32.4 31.5 32.4 31.6 31.5 32.1 C 31.5 32.0 31.4 32.0 31.4 31.9 C 31.4 31.9 31.4 31.9 31.4 31.9 Z M 17.4 41.8 C 15.1 43.8 14.6 45.1 13.8 46.7 C 15.0 45.1 15.9 43.4 17.2 42.4 C 18.5 41.0 16.6 42.7 16.6 42.6 C 16.6 42.5 17.1 42.1 17.4 41.8 C 17.4 41.8 17.4 41.8 17.4 41.8 Z M 7.8 61.8 C 7.7 62.3 8.1 63.2 8.3 64.6 C 8.4 64.3 8.4 64.1 8.5 64.0 C 8.2 62.1 7.9 63.3 7.8 61.8 C 7.8 61.8 7.8 61.8 7.8 61.8 Z M 11.9 72.9 C 12.6 74.0 11.6 72.2 12.1 72.7 C 11.3 71.5 10.6 70.1 10.4 70.3 C 11.3 71.6 11.5 71.8 11.9 72.9 C 11.9 72.9 11.9 72.9 11.9 72.9 Z M 18.3 80.3 C 19.7 81.3 18.0 79.5 18.7 79.8 C 18.2 79.4 18.2 79.6 18.1 79.6 C 17.8 79.3 17.5 78.9 16.9 78.4 C 17.2 78.9 18.7 80.2 18.3 80.3 C 18.3 80.3 18.3 80.3 18.3 80.3 Z M 73.2 17.4 C 72.3 17.7 72.6 17.8 70.5 18.3 C 73.7 17.5 72.1 18.6 76.2 17.6 C 75.6 17.6 76.0 17.4 76.2 17.5 C 77.8 17.0 74.7 17.7 76.1 17.1 C 75.0 17.4 75.7 17.5 74.6 17.8 C 73.3 17.8 72.6 17.9 73.2 17.4 C 73.2 17.4 73.2 17.4 73.2 17.4 Z M 76.3 17.8 C 77.5 17.6 77.4 17.1 78.0 17.3 C 78.5 17.1 78.4 17.1 78.5 17.0 C 78.1 17.1 78.0 17.1 77.9 17.0 C 76.9 17.3 76.0 17.6 76.3 17.8 C 76.3 17.8 76.3 17.8 76.3 17.8 Z M 65.8 20.4 C 67.6 19.8 68.2 19.8 69.0 19.4 C 69.8 19.6 70.2 18.9 71.3 19.0 C 73.1 18.5 71.7 18.7 71.2 18.7 C 73.0 18.1 71.7 18.8 73.5 18.3 C 73.7 17.9 71.5 18.6 71.7 18.2 C 70.3 18.6 70.4 18.7 69.5 19.0 C 68.9 19.2 69.0 19.0 68.9 18.9 C 67.4 19.4 67.4 19.2 66.2 19.6 C 65.9 19.8 66.5 19.8 67.9 19.4 C 66.4 19.8 65.8 20.2 64.1 20.5 C 65.3 20.0 59.9 21.4 60.4 21.7 C 61.9 21.3 61.4 21.2 62.0 21.0 C 63.9 20.7 65.0 20.3 65.8 20.4 C 65.8 20.4 65.8 20.4 65.8 20.4 Z M 32.5 32.2 C 31.9 32.5 31.3 32.7 30.5 33.2 C 30.3 33.1 31.5 32.5 30.3 32.9 C 28.9 33.7 28.7 33.9 27.9 34.4 C 28.4 34.3 31.3 32.9 29.9 33.8 C 30.4 33.7 31.3 33.2 32.6 32.5 C 31.0 33.0 34.6 31.4 36.0 30.8 C 35.7 30.5 38.6 29.6 39.6 28.9 C 38.6 29.1 35.7 30.7 34.5 31.3 C 35.1 31.0 30.9 32.6 32.5 32.2 C 32.5 32.2 32.5 32.2 32.5 32.2 Z M 80.8 16.7 C 81.1 16.5 82.4 16.2 81.4 16.4 C 81.9 16.2 83.0 16.1 82.5 15.8 C 83.1 15.7 83.7 15.6 84.2 15.5 C 84.0 15.6 82.4 15.9 83.1 16.0 C 84.3 15.7 83.8 15.9 85.4 15.6 C 84.6 16.0 85.5 15.8 85.0 16.2 C 85.4 16.0 86.8 15.8 86.7 15.6 C 88.9 15.2 86.1 16.0 89.1 15.5 C 89.1 15.7 87.0 16.0 86.2 16.1 C 85.8 16.4 89.9 15.5 92.1 15.2 C 90.1 15.3 91.6 14.8 92.6 14.5 C 93.3 14.4 92.6 14.6 93.9 14.6 C 94.9 14.4 95.4 14.2 95.7 14.3 C 96.5 14.1 96.1 14.0 96.2 13.9 C 97.6 13.7 96.6 14.2 98.7 13.8 C 97.1 13.7 98.9 13.3 101.7 13.0 C 101.5 13.0 100.6 13.1 100.5 13.0 C 100.9 12.7 102.5 12.8 102.9 12.9 C 104.0 12.7 103.3 12.6 102.3 12.8 C 102.9 12.6 103.5 12.5 104.2 12.3 C 101.1 12.7 96.2 13.4 90.7 14.0 C 91.8 14.1 90.6 14.3 88.9 14.5 C 88.7 14.4 89.4 14.3 90.1 14.1 C 88.2 14.2 88.4 14.8 85.4 15.2 C 83.8 15.4 87.2 14.7 85.4 14.9 C 84.3 15.1 83.6 15.5 83.0 15.3 C 81.2 15.8 80.7 16.2 77.9 16.8 C 79.5 16.6 80.4 17.0 82.0 16.5 C 82.0 16.4 81.3 16.6 80.8 16.7 C 80.8 16.7 80.8 16.7 80.8 16.7 Z M 21.3 38.9 C 20.5 39.6 20.1 40.1 19.9 40.1 C 18.5 41.3 20.2 40.2 20.5 40.0 C 21.2 39.4 21.3 39.1 21.3 38.9 C 21.3 38.9 21.3 38.9 21.3 38.9 Z M 146.3 112.9 C 148.8 113.1 148.2 112.7 150.2 112.8 C 148.6 112.7 148.3 112.4 145.6 112.4 C 145.5 112.6 145.5 112.8 146.3 112.9 C 146.3 112.9 146.3 112.9 146.3 112.9 Z M 26.8 35.3 C 28.0 34.2 25.3 36.7 25.1 36.5 C 23.7 37.7 26.7 35.6 25.4 36.8 C 26.6 35.8 27.6 35.4 29.4 34.2 C 29.2 34.1 27.7 35.0 26.3 35.9 C 26.1 35.9 26.8 35.4 26.8 35.3 C 26.8 35.3 26.8 35.3 26.8 35.3 Z M 121.1 110.8 C 119.4 110.8 122.6 111.4 123.6 111.6 C 123.7 111.2 123.2 111.2 121.1 110.8 C 121.1 110.8 121.1 110.8 121.1 110.8 Z M 163.3 112.7 C 164.3 112.4 160.4 112.7 161.3 112.4 C 160.2 112.4 160.1 112.5 160.0 112.6 C 159.4 112.5 157.6 112.5 158.1 112.3 C 157.8 112.1 161.0 112.4 160.0 112.1 C 161.1 112.1 161.2 112.1 162.0 112.2 C 160.1 112.1 161.0 112.4 163.3 112.5 C 163.3 112.2 162.2 112.3 163.3 112.1 C 163.4 112.2 164.7 112.4 164.6 112.8 C 166.6 112.7 165.4 112.3 167.9 112.3 C 167.7 112.2 166.1 112.2 165.2 112.1 C 165.5 111.9 167.8 112.3 167.2 111.9 C 167.7 112.1 169.1 112.2 169.2 112.5 C 167.3 112.6 166.1 112.8 164.6 112.9 C 166.0 113.1 168.0 112.5 170.5 112.7 C 170.2 112.5 171.7 112.5 171.2 112.2 C 173.1 112.3 172.2 112.6 171.8 112.6 C 172.3 112.8 176.0 112.5 175.8 112.3 C 176.0 112.5 180.5 112.3 180.3 112.0 C 181.6 112.1 183.6 111.6 184.2 112.0 C 184.9 111.8 186.5 111.7 188.1 111.6 C 188.5 111.4 185.7 111.7 185.5 111.5 C 185.0 111.3 188.5 111.4 188.1 111.2 C 188.1 111.1 188.1 111.1 188.1 111.0 C 186.7 111.2 185.4 111.3 184.2 111.5 C 183.2 111.5 184.4 111.4 184.2 111.2 C 183.3 111.4 179.1 112.0 179.0 111.5 C 176.2 111.7 174.2 111.7 173.1 112.0 C 171.4 112.0 174.0 111.8 173.1 111.6 C 168.2 112.1 162.2 111.8 158.1 112.1 C 157.2 112.1 157.5 111.9 157.4 111.8 C 151.8 112.0 156.6 112.3 152.2 112.2 C 152.2 112.0 154.3 112.0 154.1 111.8 C 152.6 111.8 152.2 111.9 150.2 111.8 C 150.2 111.9 150.2 112.0 150.2 112.1 C 148.5 112.1 149.2 111.8 148.3 111.7 C 146.2 111.7 146.7 111.9 145.7 111.5 C 143.7 111.6 141.8 111.6 139.8 111.4 C 138.4 111.5 140.9 112.0 143.0 112.1 C 142.9 112.1 142.3 112.1 142.3 112.2 C 139.9 111.9 139.6 111.4 135.9 111.2 C 138.7 111.6 134.5 111.2 134.0 111.0 C 132.4 110.9 133.6 111.3 134.6 111.4 C 134.4 111.5 133.4 111.3 133.3 111.2 C 133.1 111.6 136.6 112.0 140.4 112.0 C 138.6 112.3 143.0 112.1 141.1 112.5 C 144.1 112.5 141.5 112.1 144.9 112.3 C 144.6 112.2 144.0 112.1 143.7 111.9 C 146.3 112.0 145.5 112.3 148.3 112.3 C 148.7 112.1 146.9 112.1 146.9 112.0 C 149.9 112.3 150.9 112.4 152.8 112.7 C 153.2 112.5 152.7 112.3 156.1 112.5 C 156.1 112.5 156.1 112.6 156.1 112.6 C 154.5 112.6 154.1 113.0 158.1 113.0 C 158.3 112.9 157.1 112.9 156.1 112.9 C 156.6 112.7 157.8 112.7 159.4 112.6 C 160.1 112.7 161.0 112.8 160.0 112.8 C 160.6 113.0 161.2 112.6 163.3 112.7 C 163.3 112.7 163.3 112.7 163.3 112.7 Z M 8.4 59.6 C 8.4 59.9 8.4 60.3 8.4 60.9 C 8.7 61.2 8.6 60.0 8.8 60.0 C 8.8 59.1 8.5 59.8 8.4 59.6 C 8.4 59.6 8.4 59.6 8.4 59.6 Z M 13.2 47.5 C 13.0 47.5 12.8 48.3 12.1 49.2 C 12.1 49.6 12.8 48.4 12.9 48.5 C 13.7 47.4 12.4 48.6 13.2 47.5 C 13.2 47.5 13.2 47.5 13.2 47.5 Z M 10.3 52.6 C 9.9 53.0 10.2 53.1 10.5 52.2 C 10.6 52.3 10.6 52.6 10.5 53.2 C 11.0 52.6 10.7 52.1 11.4 51.0 C 11.1 51.3 10.7 51.9 10.3 52.6 C 10.3 52.6 10.3 52.6 10.3 52.6 Z M 9.6 54.3 C 9.5 55.0 9.2 55.4 9.1 56.5 C 9.3 56.3 9.9 53.9 10.0 53.5 C 10.0 53.0 9.1 55.6 9.6 54.3 C 9.6 54.3 9.6 54.3 9.6 54.3 Z M 96.2 107.4 C 96.8 107.5 96.7 107.4 96.8 107.4 C 98.7 108.0 101.3 108.3 99.2 108.4 C 101.2 108.4 103.0 109.0 104.7 109.3 C 106.1 109.5 105.4 109.2 106.6 109.3 C 108.4 109.6 105.6 109.3 105.9 109.5 C 106.3 109.7 106.9 109.3 109.0 109.8 C 108.5 109.3 110.9 110.0 110.3 109.5 C 111.5 109.8 111.9 109.7 113.5 109.9 C 113.3 109.7 111.8 109.5 111.6 109.3 C 110.9 109.0 110.7 109.5 112.2 109.6 C 111.3 109.7 109.2 109.1 108.5 109.2 C 107.7 108.9 110.5 109.4 109.7 109.0 C 109.2 109.0 108.6 109.0 108.5 109.1 C 107.6 108.9 107.0 108.7 106.7 108.6 C 107.2 108.6 107.3 108.7 107.3 108.7 C 108.4 108.9 106.2 108.2 108.6 108.5 C 108.2 108.4 107.1 108.2 107.3 108.1 C 106.6 107.9 107.2 108.8 104.8 108.2 C 103.2 108.2 108.7 108.9 107.2 109.2 C 103.8 108.7 105.7 108.6 103.0 108.2 C 103.0 108.3 103.0 108.4 102.3 108.3 C 102.4 108.4 103.4 108.6 104.1 108.7 C 104.0 108.7 103.0 108.6 102.3 108.5 C 102.4 108.6 102.9 108.7 102.9 108.7 C 100.6 108.3 100.9 107.9 103.0 108.0 C 103.0 107.8 100.1 107.4 99.3 107.4 C 100.1 107.7 99.2 107.6 99.9 107.9 C 100.4 108.0 100.3 107.9 100.5 107.8 C 101.6 108.0 100.6 108.0 100.5 108.1 C 99.2 107.8 99.3 107.7 98.1 107.6 C 98.4 107.6 98.7 107.6 98.7 107.5 C 98.1 107.4 97.5 107.3 96.9 107.2 C 96.9 107.4 96.1 107.3 96.2 107.4 C 96.2 107.4 96.2 107.4 96.2 107.4 Z M 128.7 111.7 C 130.9 111.9 129.8 111.6 128.7 111.6 C 129.2 111.5 129.9 111.5 130.7 111.5 C 130.1 111.4 129.5 111.4 127.5 111.2 C 129.3 111.0 127.5 110.5 124.3 110.3 C 123.3 110.6 126.0 110.9 124.9 111.1 C 127.3 111.1 128.5 111.4 128.7 111.7 C 128.7 111.7 128.7 111.7 128.7 111.7 Z M 20.6 40.0 C 19.7 40.8 18.8 41.6 17.9 42.3 C 18.2 42.4 21.1 40.1 20.6 40.0 C 20.6 40.0 20.6 40.0 20.6 40.0 Z M 106.6 12.3 C 107.2 12.2 107.2 12.3 107.3 12.3 C 109.1 12.0 106.4 12.2 107.2 11.9 C 106.6 12.0 106.0 12.1 105.4 12.1 C 105.3 12.3 107.9 12.1 106.0 12.4 C 106.1 12.5 106.6 12.3 106.6 12.3 C 106.6 12.3 106.6 12.3 106.6 12.3 Z M 8.8 58.7 C 8.8 59.5 9.1 59.0 9.0 60.9 C 9.2 60.2 9.1 59.8 9.2 58.7 C 9.1 58.7 8.9 58.7 8.8 58.7 C 8.8 58.7 8.8 58.7 8.8 58.7 Z M 87.2 106.3 C 88.6 106.8 89.1 106.3 92.0 107.0 C 90.6 106.4 88.9 106.5 87.2 106.3 C 87.2 106.3 87.2 106.3 87.2 106.3 Z M 193.2 110.9 C 192.3 110.9 193.5 110.7 191.9 110.8 C 191.0 110.9 190.6 111.1 189.3 111.2 C 191.2 111.3 194.4 110.8 195.7 111.1 C 197.3 110.9 197.2 110.7 197.6 110.4 C 196.9 110.5 196.5 110.5 196.4 110.5 C 195.5 110.9 194.3 110.4 193.2 110.9 C 193.2 110.9 193.2 110.9 193.2 110.9 Z M 120.5 110.6 C 119.3 110.4 121.3 110.5 121.7 110.4 C 122.6 110.5 122.3 110.6 122.4 110.7 C 123.5 110.8 123.8 110.7 123.7 110.5 C 121.6 110.3 119.0 110.0 120.5 109.9 C 118.5 109.6 119.6 110.0 118.6 110.0 C 117.5 109.7 118.5 109.8 118.6 109.5 C 118.1 109.5 116.6 109.6 116.7 109.3 C 113.7 109.3 115.0 109.9 117.2 110.5 C 119.3 110.4 116.9 110.1 120.5 110.6 C 120.5 110.6 120.5 110.6 120.5 110.6 Z M 43.6 93.6 C 43.8 93.8 45.2 94.3 45.2 94.4 C 47.0 94.9 48.6 95.3 50.4 95.6 C 50.1 95.3 47.7 94.7 48.7 95.2 C 48.0 94.8 46.4 94.1 45.5 93.6 C 43.9 92.9 43.2 93.1 43.1 92.7 C 41.5 92.1 42.4 92.5 40.0 91.4 C 43.7 93.3 38.7 90.9 38.3 91.1 C 40.5 92.1 42.4 92.9 42.2 92.6 C 43.9 93.3 45.7 94.2 46.0 94.5 C 45.8 94.6 44.5 94.0 43.6 93.6 C 43.6 93.6 43.6 93.6 43.6 93.6 Z M 54.0 96.7 C 53.2 96.5 52.5 96.3 51.3 95.9 C 52.0 96.2 52.2 96.4 52.1 96.5 C 54.3 97.3 54.5 97.2 54.9 97.5 C 56.1 98.0 54.7 97.1 56.5 97.8 C 56.4 97.7 55.5 97.4 55.5 97.3 C 55.3 97.4 55.0 97.4 54.0 96.7 C 54.0 96.7 54.0 96.7 54.0 96.7 Z M 70.2 101.9 C 71.6 102.3 69.5 101.6 70.2 101.6 C 69.9 101.6 67.2 100.8 67.6 100.7 C 66.9 100.2 64.0 100.1 64.4 99.7 C 63.7 99.6 63.9 99.8 63.8 99.8 C 65.7 100.3 65.6 100.5 64.3 100.1 C 64.4 100.3 65.6 100.6 66.4 100.8 C 66.5 100.7 65.8 100.5 65.9 100.3 C 67.5 100.9 68.7 101.4 70.2 101.9 C 70.2 101.9 70.2 101.9 70.2 101.9 Z M 177.0 9.9 C 175.5 9.8 174.5 9.8 173.8 9.8 C 174.2 10.0 175.0 9.9 175.7 9.9 C 175.9 10.0 175.2 10.0 174.4 10.0 C 175.2 10.3 177.9 10.1 177.0 9.9 C 177.0 9.9 177.0 9.9 177.0 9.9 Z M 164.0 9.6 C 162.5 9.5 161.5 9.6 161.4 9.7 C 161.9 9.8 161.7 9.6 162.7 9.6 C 163.3 9.7 163.6 9.8 164.0 9.9 C 164.6 9.9 164.5 9.8 164.7 9.7 C 165.2 9.7 165.2 9.8 165.3 9.8 C 167.1 9.6 163.2 9.8 164.0 9.6 C 164.0 9.6 164.0 9.6 164.0 9.6 Z M 61.1 99.3 C 60.7 99.1 60.3 98.8 59.1 98.4 C 59.3 98.7 58.3 98.4 57.5 98.1 C 58.6 98.7 59.3 98.8 61.1 99.3 C 61.1 99.3 61.1 99.3 61.1 99.3 Z M 85.0 16.4 C 83.2 16.5 83.4 16.9 80.9 17.2 C 81.0 17.3 81.0 17.4 81.0 17.4 C 82.5 16.9 83.2 16.9 85.0 16.4 C 85.0 16.4 85.0 16.4 85.0 16.4 Z M 307.6 69.6 C 307.5 69.4 306.9 70.7 306.7 70.7 C 306.9 71.1 306.1 71.4 304.4 73.7 C 304.3 73.7 304.4 73.5 304.6 73.2 C 303.2 75.0 305.2 72.8 305.6 72.7 C 306.5 71.2 306.9 71.1 307.6 69.6 C 307.6 69.6 307.6 69.6 307.6 69.6 Z M 173.7 111.2 C 173.6 111.3 174.0 111.3 174.4 111.3 C 174.8 111.3 175.3 111.2 175.7 111.2 C 175.5 110.9 173.4 110.8 175.0 110.5 C 174.4 110.5 174.4 110.5 174.4 110.6 C 171.2 111.4 168.7 110.3 164.6 110.8 C 163.9 110.8 164.1 110.9 163.9 110.9 C 164.5 110.9 164.5 111.0 164.6 111.0 C 165.1 110.7 168.8 111.0 167.2 111.1 C 167.3 111.2 167.8 111.2 167.8 111.1 C 168.3 111.1 168.7 111.1 169.2 111.1 C 168.9 111.0 168.0 111.0 167.8 110.9 C 169.9 110.9 172.5 111.0 171.1 111.3 C 172.4 111.2 172.9 111.1 173.7 111.0 C 174.6 111.0 174.6 111.2 173.7 111.2 C 173.7 111.2 173.7 111.2 173.7 111.2 Z M 190.5 110.3 C 192.5 110.2 191.8 110.0 193.8 109.9 C 192.5 109.8 191.0 110.2 189.3 110.1 C 189.5 110.2 190.4 110.2 190.5 110.3 C 190.5 110.3 190.5 110.3 190.5 110.3 Z M 152.9 111.0 C 153.3 110.7 151.5 110.6 149.6 110.6 C 149.2 110.9 150.9 110.9 152.9 111.0 C 152.9 111.0 152.9 111.0 152.9 111.0 Z M 161.3 111.0 C 163.2 110.9 158.9 111.0 160.0 110.7 C 159.1 110.7 158.2 110.7 158.1 110.6 C 157.4 110.7 157.4 110.8 156.1 110.8 C 156.2 110.9 158.3 110.8 158.1 111.0 C 159.6 110.9 159.8 110.9 161.3 111.0 C 161.3 111.0 161.3 111.0 161.3 111.0 Z M 162.6 111.0 C 163.9 110.9 162.3 110.5 160.7 110.6 C 161.3 110.7 161.7 110.9 162.6 111.0 C 162.6 111.0 162.6 111.0 162.6 111.0 Z M 19.1 77.7 C 19.7 78.2 19.4 77.7 20.1 78.3 C 20.2 78.2 17.8 76.0 19.8 77.8 C 19.3 76.9 18.6 76.9 17.8 76.0 C 18.0 76.3 18.2 76.5 17.7 76.1 C 17.3 76.0 19.6 77.8 19.1 77.7 C 19.1 77.7 19.1 77.7 19.1 77.7 Z M 21.7 80.0 C 22.2 80.4 22.0 80.1 21.7 79.9 C 21.9 79.9 22.6 80.5 23.2 81.0 C 23.2 81.1 22.4 79.9 22.6 79.8 C 20.1 78.1 21.8 79.7 21.7 80.0 C 21.7 80.0 21.7 80.0 21.7 80.0 Z M 24.2 81.7 C 25.7 83.1 28.3 84.7 29.7 85.2 C 28.5 84.1 25.1 82.0 24.2 81.7 C 24.2 81.7 24.2 81.7 24.2 81.7 Z M 12.7 69.1 C 13.6 71.6 17.2 75.9 14.6 71.7 C 14.6 71.9 12.8 69.3 12.3 67.9 C 12.2 67.9 11.4 66.5 11.6 66.4 C 11.0 65.4 12.8 69.8 12.7 69.1 C 12.7 69.1 12.7 69.1 12.7 69.1 Z M 32.4 86.2 C 31.3 85.7 32.4 86.8 30.9 85.8 C 30.0 85.3 31.1 86.1 30.8 86.0 C 32.7 87.1 37.1 89.0 37.4 89.5 C 38.5 89.9 38.9 89.9 41.1 90.9 C 41.2 90.8 33.5 87.5 32.3 86.3 C 32.5 86.3 34.9 87.6 32.4 86.2 C 32.4 86.2 32.4 86.2 32.4 86.2 Z M 85.3 17.8 C 85.4 17.6 83.0 18.2 83.5 17.8 C 82.2 18.4 81.0 18.5 79.6 19.0 C 79.1 19.0 79.2 18.6 77.2 19.0 C 77.2 19.2 78.2 18.9 77.3 19.3 C 75.5 19.8 75.9 19.4 73.8 19.9 C 74.3 20.2 69.6 21.1 70.1 21.3 C 71.2 21.0 71.0 20.9 72.8 20.5 C 73.4 20.4 73.2 20.6 74.0 20.4 C 73.5 20.8 72.5 20.6 71.8 21.0 C 72.0 21.1 73.3 20.8 73.5 20.9 C 74.3 20.7 73.3 20.9 73.5 20.7 C 75.6 20.1 73.4 21.3 75.8 20.6 C 75.2 20.5 75.2 20.5 75.7 20.2 C 76.6 20.1 79.5 19.3 78.0 19.9 C 78.2 20.0 79.9 19.4 79.6 19.3 C 80.6 19.1 80.7 19.1 80.8 19.2 C 83.2 18.6 83.5 18.3 83.0 18.2 C 83.4 17.9 83.8 18.2 85.3 17.8 C 85.3 17.8 85.3 17.8 85.3 17.8 Z M 11.2 56.6 C 11.2 55.6 11.0 57.6 10.8 58.5 C 11.0 57.4 11.3 57.8 11.6 56.7 C 11.4 57.1 11.3 57.0 11.5 56.2 C 11.5 56.0 11.0 57.7 11.2 56.6 C 11.2 56.6 11.2 56.6 11.2 56.6 Z M 45.8 92.9 C 46.6 93.4 50.9 94.9 53.3 95.7 C 53.0 95.2 47.2 93.7 46.6 93.0 C 45.3 92.6 47.3 93.5 45.8 92.9 C 45.8 92.9 45.8 92.9 45.8 92.9 Z M 64.1 22.5 C 63.5 22.6 63.8 22.6 64.1 22.5 C 64.0 22.7 62.8 23.0 62.0 23.2 C 63.2 23.0 61.8 23.5 62.1 23.7 C 61.5 23.9 61.2 24.0 61.1 24.1 C 61.0 23.6 57.9 25.3 61.2 24.4 C 60.6 24.3 60.8 24.2 62.2 23.8 C 63.7 23.5 64.8 23.0 65.4 23.1 C 66.4 22.8 66.7 22.6 68.0 22.2 C 68.4 22.3 69.6 22.1 68.7 22.7 C 71.1 22.1 69.3 21.9 71.3 21.4 C 73.2 21.1 70.4 21.9 70.9 22.0 C 71.4 21.9 71.3 22.0 71.4 22.0 C 72.1 21.8 72.1 21.6 71.4 21.8 C 71.6 21.6 73.5 21.0 73.0 21.4 C 74.1 21.0 71.1 21.1 69.6 21.7 C 68.7 22.0 68.6 21.5 69.5 21.3 C 69.2 21.2 67.5 22.2 67.9 21.6 C 67.1 21.8 66.4 22.0 65.7 22.2 C 65.8 22.2 66.2 22.1 66.3 22.2 C 65.6 22.4 64.9 22.6 64.1 22.8 C 64.7 22.5 64.7 22.4 64.1 22.5 C 64.1 22.5 64.1 22.5 64.1 22.5 Z M 36.1 88.5 C 37.8 89.4 38.3 89.5 39.8 90.1 C 39.3 89.6 35.4 87.9 36.1 88.5 C 36.1 88.5 36.1 88.5 36.1 88.5 Z M 95.5 16.7 C 95.3 16.7 94.2 16.9 94.2 16.8 C 96.1 16.4 94.0 16.6 95.3 15.9 C 93.0 16.5 92.3 17.2 95.5 16.9 C 97.8 16.5 93.1 17.2 95.5 16.7 C 95.5 16.7 95.5 16.7 95.5 16.7 Z M 88.3 17.8 C 86.9 18.2 90.5 17.6 91.3 17.6 C 91.3 17.7 91.4 17.8 91.4 17.8 C 93.3 17.1 90.6 17.5 92.4 16.7 C 90.0 17.0 89.0 17.1 87.1 17.6 C 87.2 17.6 87.6 17.5 87.6 17.4 C 89.1 17.2 88.1 17.7 86.5 17.9 C 87.0 17.9 88.4 17.7 89.5 17.5 C 89.2 17.5 88.8 17.5 88.9 17.4 C 90.1 17.1 89.7 17.4 90.6 17.2 C 90.6 17.3 88.4 17.9 88.3 17.8 C 88.3 17.8 88.3 17.8 88.3 17.8 Z M 213.2 14.6 C 211.9 14.5 214.4 15.1 214.3 15.5 C 215.6 15.7 215.9 15.6 216.7 15.7 C 216.3 15.5 214.9 15.3 214.3 15.1 C 214.6 14.8 216.2 15.4 216.8 15.3 C 217.6 15.0 213.7 15.0 213.2 14.6 C 213.2 14.6 213.2 14.6 213.2 14.6 Z M 33.0 34.9 C 32.4 35.3 32.8 35.1 33.1 35.0 C 33.0 35.1 31.9 35.7 31.9 35.6 C 30.9 36.2 32.5 35.5 31.3 36.1 C 31.2 36.4 33.1 35.1 33.1 35.0 C 34.5 34.3 33.6 35.1 34.0 35.0 C 35.2 34.4 34.7 34.4 36.5 33.5 C 35.4 34.0 34.3 34.3 33.0 34.9 C 33.0 34.9 33.0 34.9 33.0 34.9 Z M 99.6 15.6 C 99.8 15.5 98.2 16.2 96.6 16.2 C 94.5 16.6 97.9 16.3 96.0 16.6 C 97.6 16.4 99.5 15.9 102.0 15.5 C 102.6 15.3 98.6 15.9 100.8 15.5 C 100.7 15.4 100.2 15.6 100.2 15.6 C 99.7 15.7 99.6 15.7 99.6 15.6 C 99.6 15.6 99.6 15.6 99.6 15.6 Z M 97.2 16.5 C 97.4 16.6 97.9 16.5 97.9 16.4 C 98.7 16.3 98.7 16.6 97.9 16.7 C 99.0 16.8 98.8 16.3 100.9 16.1 C 100.0 16.1 99.6 16.0 101.5 15.9 C 103.0 15.5 97.9 16.3 97.2 16.5 C 97.2 16.5 97.2 16.5 97.2 16.5 Z M 193.1 12.7 C 193.2 12.8 194.6 12.9 195.6 13.0 C 194.3 13.1 189.2 12.6 188.6 12.4 C 188.0 12.4 187.4 12.4 187.3 12.3 C 187.3 12.4 185.9 12.4 186.6 12.5 C 186.5 12.6 185.4 12.5 185.4 12.6 C 183.4 12.4 185.9 12.5 185.4 12.3 C 183.0 12.4 183.6 12.2 180.8 12.0 C 181.3 12.3 184.3 12.4 184.0 12.7 C 186.2 12.5 188.5 12.9 189.8 13.2 C 187.8 12.7 195.3 13.1 198.7 13.4 C 198.6 13.6 199.8 13.6 201.2 13.9 C 202.2 14.2 201.9 13.7 200.0 13.6 C 200.1 13.5 202.7 13.9 203.8 13.9 C 202.5 13.7 203.2 13.6 202.6 13.5 C 200.1 13.2 202.3 13.5 201.9 13.7 C 201.3 13.6 200.7 13.5 200.0 13.5 C 203.3 13.4 195.2 13.0 198.1 13.2 C 195.5 13.0 195.5 12.7 193.1 12.7 C 193.1 12.7 193.1 12.7 193.1 12.7 Z M 132.2 12.2 C 131.8 12.3 129.7 12.6 129.6 12.4 C 127.0 12.8 129.3 12.8 126.4 13.0 C 126.6 13.1 127.7 13.0 127.7 13.1 C 128.9 12.9 130.0 12.8 129.6 12.6 C 131.0 12.5 131.3 12.4 132.2 12.3 C 131.9 12.4 131.4 12.5 130.3 12.6 C 130.1 12.8 130.5 12.9 132.2 12.8 C 133.0 12.5 132.5 12.4 132.2 12.2 C 132.2 12.2 132.2 12.2 132.2 12.2 Z M 125.8 13.0 C 125.5 13.0 125.1 12.9 125.2 12.8 C 124.2 12.6 124.8 13.2 123.9 13.2 C 123.1 13.3 123.4 13.1 123.2 13.0 C 122.1 13.2 121.3 13.3 120.7 13.3 C 119.0 13.6 122.7 13.3 123.3 13.4 C 124.5 13.3 124.1 13.1 125.8 13.0 C 125.8 13.0 125.8 13.0 125.8 13.0 Z M 106.9 14.7 C 106.6 14.5 106.0 14.9 105.1 15.0 C 105.8 15.1 107.5 14.8 106.4 15.2 C 108.2 15.1 108.3 15.1 110.1 14.8 C 111.3 14.9 110.1 14.6 108.2 14.9 C 108.5 14.8 109.3 14.7 109.4 14.5 C 110.7 14.9 113.7 13.8 111.9 14.3 C 111.4 14.3 111.0 14.3 110.7 14.2 C 110.3 14.5 106.0 14.9 106.9 14.7 C 106.9 14.7 106.9 14.7 106.9 14.7 Z M 48.6 28.4 C 50.2 27.8 51.1 27.5 52.0 27.2 C 52.8 26.9 54.1 26.4 55.1 26.1 C 55.2 26.2 55.1 26.3 54.7 26.4 C 55.1 26.4 55.8 26.1 56.6 25.8 C 56.5 25.7 56.1 25.9 56.1 26.0 C 54.5 26.3 55.8 25.9 56.0 25.6 C 54.0 26.0 50.9 27.6 49.3 27.8 C 48.1 28.3 49.6 27.8 48.6 28.4 C 48.6 28.4 48.6 28.4 48.6 28.4 Z M 306.5 67.2 C 306.5 67.4 306.2 68.0 306.4 68.0 C 306.6 67.4 306.7 67.0 306.8 66.4 C 306.4 67.5 306.2 67.2 305.5 68.5 C 305.8 68.1 306.0 68.3 306.5 67.2 C 306.5 67.2 306.5 67.2 306.5 67.2 Z M 113.2 14.0 C 113.2 14.1 113.3 14.2 112.6 14.3 C 112.4 14.5 114.4 14.2 114.4 14.4 C 115.1 14.3 114.8 14.2 115.7 14.1 C 115.4 14.0 113.7 14.2 114.4 13.9 C 114.9 13.8 115.0 13.9 115.1 13.9 C 116.3 13.7 114.4 13.8 113.2 14.0 C 113.2 14.0 113.2 14.0 113.2 14.0 Z M 219.2 15.7 C 218.4 15.6 219.2 15.8 219.8 15.9 C 218.0 15.9 220.8 16.5 220.9 16.7 C 220.2 16.4 217.7 16.2 217.3 16.1 C 216.6 16.0 217.4 16.3 215.5 16.1 C 215.7 16.4 217.8 16.5 217.3 16.2 C 217.8 16.6 219.9 16.5 219.7 16.8 C 222.4 17.3 223.1 17.2 223.3 17.0 C 220.7 16.7 222.1 16.4 219.8 16.2 C 219.8 16.1 220.5 16.2 221.0 16.3 C 220.8 16.1 219.8 15.9 219.2 15.7 C 219.2 15.7 219.2 15.7 219.2 15.7 Z M 152.9 11.6 C 151.4 11.6 151.5 11.8 151.6 12.0 C 152.1 11.9 153.0 11.9 154.2 11.9 C 153.9 11.8 152.1 11.8 152.9 11.6 C 152.9 11.6 152.9 11.6 152.9 11.6 Z M 209.4 14.7 C 209.2 14.6 208.8 14.6 208.7 14.6 C 207.2 14.5 206.8 14.3 206.3 14.1 C 205.4 14.0 205.7 14.2 205.6 14.4 C 207.1 14.3 206.8 14.6 208.7 14.8 C 208.6 14.7 208.9 14.7 209.4 14.7 C 209.4 14.7 209.4 14.7 209.4 14.7 Z M 166.5 11.7 C 165.8 11.7 166.2 11.8 166.5 11.8 C 165.7 12.1 163.0 11.8 162.0 11.9 C 161.9 12.1 165.1 12.1 161.3 12.2 C 162.0 12.4 165.5 12.2 167.2 12.3 C 166.8 12.5 164.4 12.5 164.6 12.8 C 166.6 12.6 168.8 12.5 169.1 12.2 C 166.2 12.1 167.2 11.9 166.5 11.7 C 166.5 11.7 166.5 11.7 166.5 11.7 Z M 169.8 12.0 C 169.5 11.8 169.0 12.0 167.9 11.9 C 169.5 12.2 170.4 12.1 173.7 12.3 C 173.7 12.3 173.7 12.2 173.7 12.2 C 174.3 12.2 175.0 12.2 175.7 12.2 C 172.8 11.8 172.1 12.0 169.1 12.0 C 169.0 12.0 169.4 12.0 169.8 12.0 C 169.8 12.0 169.8 12.0 169.8 12.0 Z M 85.4 18.5 C 86.2 18.5 86.9 18.5 88.4 18.3 C 88.2 18.1 87.3 18.1 85.4 18.5 C 85.4 18.5 85.4 18.5 85.4 18.5 Z M 211.8 15.2 C 213.5 15.2 210.2 15.0 211.2 15.3 C 212.5 15.6 213.9 15.9 214.2 16.1 C 216.7 16.1 211.5 15.4 211.8 15.2 C 211.8 15.2 211.8 15.2 211.8 15.2 Z M 200.6 14.5 C 199.8 14.4 199.9 14.0 200.6 14.3 C 202.4 14.5 199.1 14.0 201.8 14.3 C 200.7 14.1 198.0 13.7 196.8 13.7 C 196.8 13.9 199.2 14.1 199.3 14.3 C 199.4 14.4 199.0 14.3 198.7 14.3 C 198.9 14.4 199.5 14.3 200.6 14.5 C 200.6 14.5 200.6 14.5 200.6 14.5 Z M 191.1 13.3 C 192.1 13.5 193.4 13.7 195.5 13.9 C 194.1 13.6 193.3 13.3 191.1 13.3 C 191.1 13.3 191.1 13.3 191.1 13.3 Z M 301.6 48.0 C 300.9 47.2 301.3 48.1 301.4 48.2 C 302.1 49.1 302.2 48.9 302.9 50.0 C 302.9 49.5 301.9 48.8 301.6 48.0 C 301.6 48.0 301.6 48.0 301.6 48.0 Z M 303.9 51.3 C 303.8 51.5 304.6 52.7 304.5 52.9 C 305.3 53.4 305.1 54.8 305.4 54.6 C 305.5 54.9 305.6 55.2 305.8 55.7 C 305.8 54.6 304.6 52.4 303.9 51.3 C 303.9 51.3 303.9 51.3 303.9 51.3 Z M 180.1 13.1 C 178.4 13.0 180.6 13.5 178.8 13.4 C 178.7 13.5 182.1 13.7 180.1 13.7 C 182.7 14.0 179.9 13.2 180.1 13.1 C 180.1 13.1 180.1 13.1 180.1 13.1 Z M 148.4 13.0 C 148.5 12.9 146.1 13.1 145.2 13.1 C 145.2 13.1 145.9 13.1 146.4 13.1 C 146.2 13.2 145.9 13.3 145.2 13.3 C 145.7 13.5 147.4 13.1 148.4 13.0 C 148.4 13.0 148.4 13.0 148.4 13.0 Z M 183.6 9.1 C 184.7 9.4 186.0 9.7 186.8 9.4 C 187.9 9.7 186.0 9.6 187.4 9.8 C 189.2 9.8 188.3 10.0 191.3 10.1 C 190.7 10.4 192.9 10.5 193.2 10.7 C 192.0 10.7 190.5 10.3 190.0 10.5 C 191.0 10.5 190.4 10.7 190.0 10.6 C 188.0 10.3 192.4 10.4 190.0 10.1 C 189.3 10.4 185.8 9.6 183.6 9.4 C 184.5 9.3 181.9 9.1 183.6 9.1 C 183.6 9.1 183.6 9.1 183.6 9.1 Z M 195.1 10.4 C 196.7 10.5 197.4 11.1 197.0 11.0 C 197.0 10.9 195.3 10.8 195.1 10.9 C 195.5 10.9 195.9 10.9 195.8 11.0 C 192.9 10.7 193.9 10.6 193.2 10.4 C 194.8 10.4 195.2 10.6 195.8 10.5 C 195.4 10.5 195.1 10.5 195.1 10.4 C 195.1 10.4 195.1 10.4 195.1 10.4 Z M 227.4 18.4 C 227.1 18.2 226.8 18.4 226.2 18.3 C 226.1 17.9 223.0 17.9 222.6 17.7 C 223.4 17.7 224.9 17.9 225.6 17.9 C 224.8 17.7 224.7 17.6 223.8 17.6 C 224.1 17.4 225.8 17.7 226.3 17.6 C 226.4 17.8 227.3 17.7 227.5 17.9 C 225.2 17.6 228.7 18.7 227.4 18.4 C 227.4 18.4 227.4 18.4 227.4 18.4 Z M 165.3 13.0 C 165.0 13.3 167.8 13.9 165.3 14.1 C 164.7 13.9 164.4 13.7 164.6 13.4 C 163.0 13.5 162.3 13.3 161.3 13.5 C 158.4 12.8 163.6 13.6 165.3 13.0 C 165.3 13.0 165.3 13.0 165.3 13.0 Z M 154.8 13.2 C 155.4 13.0 153.9 13.0 154.2 12.9 C 155.5 13.0 159.5 12.7 158.1 12.9 C 156.8 13.0 156.8 13.2 154.8 13.2 C 154.8 13.2 154.8 13.2 154.8 13.2 Z M 80.6 102.7 C 78.8 102.5 77.9 101.9 79.0 102.0 C 78.5 102.1 81.3 102.5 80.6 102.7 C 80.6 102.7 80.6 102.7 80.6 102.7 Z M 12.1 74.6 C 12.9 76.0 13.6 76.6 13.6 76.9 C 12.5 75.7 12.7 75.8 12.0 74.7 C 11.8 74.7 11.3 74.1 11.3 73.9 C 11.7 74.5 11.8 74.3 12.1 74.6 C 12.1 74.6 12.1 74.6 12.1 74.6 Z M 115.3 9.8 C 115.1 9.7 114.3 9.7 114.6 9.5 C 116.5 9.4 118.7 9.0 120.3 8.7 C 120.3 8.8 120.3 8.9 120.3 9.0 C 117.3 9.2 116.5 9.5 115.3 9.8 C 115.3 9.8 115.3 9.8 115.3 9.8 Z M 111.4 9.7 C 111.1 9.9 112.2 10.0 110.8 10.2 C 110.9 10.0 108.4 10.0 109.5 9.8 C 109.9 10.0 110.5 9.9 111.4 9.7 C 111.4 9.7 111.4 9.7 111.4 9.7 Z M 219.7 12.5 C 221.2 12.7 219.0 12.2 219.1 12.1 C 220.2 12.3 221.7 12.5 222.1 12.7 C 221.1 12.5 220.2 12.8 219.7 12.5 C 219.7 12.5 219.7 12.5 219.7 12.5 Z M 196.4 10.4 C 193.1 10.2 194.6 9.9 191.3 9.5 C 192.7 9.5 195.6 9.8 196.5 9.6 C 196.4 9.8 197.2 9.9 197.1 10.0 C 195.9 9.9 195.7 9.8 194.5 9.7 C 195.0 10.0 195.0 9.9 194.5 10.1 C 195.4 10.2 196.0 10.2 196.5 10.2 C 196.2 10.3 197.4 10.5 196.4 10.4 C 196.4 10.4 196.4 10.4 196.4 10.4 Z M 219.0 13.1 C 220.2 13.2 221.3 13.7 220.2 13.5 C 220.0 13.3 219.2 13.4 219.0 13.2 C 220.8 13.4 217.5 12.9 218.4 12.8 C 219.5 13.0 219.9 12.9 219.6 12.8 C 220.4 12.9 221.4 13.0 221.5 13.1 C 221.0 13.0 220.3 12.9 220.3 13.0 C 220.6 13.1 221.0 13.1 220.9 13.2 C 219.8 13.0 219.3 13.0 219.0 13.1 C 219.0 13.1 219.0 13.1 219.0 13.1 Z M 210.4 11.9 C 212.1 12.1 212.2 12.4 212.8 12.6 C 210.5 12.3 210.2 11.9 208.5 11.5 C 210.4 11.8 212.3 11.7 212.9 12.0 C 212.0 12.0 210.5 11.8 210.4 11.9 C 210.4 11.9 210.4 11.9 210.4 11.9 Z M 243.1 103.4 C 241.7 103.6 240.6 103.7 239.0 103.9 C 238.6 104.2 241.5 104.1 240.3 104.2 C 238.7 104.6 239.7 104.0 238.5 104.3 C 239.8 104.3 233.0 105.7 232.7 105.4 C 233.7 105.2 234.0 105.1 233.8 104.9 C 236.5 104.4 237.5 104.0 239.5 103.5 C 241.1 103.5 245.3 102.7 247.4 101.8 C 249.0 101.9 251.5 100.8 253.5 100.6 C 254.0 100.3 251.8 100.8 253.4 100.3 C 254.5 100.3 253.7 100.6 255.2 100.3 C 255.2 100.2 254.9 100.1 255.6 99.8 C 255.5 100.0 256.4 99.8 256.7 99.8 C 253.9 100.6 257.0 100.1 254.7 100.7 C 253.8 100.9 255.6 100.1 253.0 100.8 C 252.1 101.1 251.2 101.4 251.5 101.6 C 250.7 101.8 250.3 102.0 249.8 102.1 C 250.8 101.6 246.1 103.1 248.2 102.3 C 248.3 102.3 249.8 101.9 250.9 101.5 C 249.8 101.5 248.7 102.0 247.0 102.5 C 246.2 102.5 247.3 102.2 246.4 102.3 C 245.1 102.8 247.0 102.5 245.9 102.9 C 246.4 102.8 247.0 102.7 247.1 102.7 C 244.7 103.1 243.8 103.5 242.6 103.8 C 243.4 103.4 241.1 103.9 243.1 103.4 C 243.1 103.4 243.1 103.4 243.1 103.4 Z M 262.4 97.9 C 262.9 97.7 263.4 97.6 264.0 97.4 C 264.1 97.6 262.2 98.3 263.6 98.0 C 261.3 98.7 263.6 97.7 262.4 97.9 C 262.4 97.9 262.4 97.9 262.4 97.9 Z M 251.7 100.1 C 250.8 100.0 251.4 100.5 250.6 100.7 C 252.0 100.3 253.1 99.9 253.4 100.1 C 251.8 100.5 251.1 100.6 249.6 101.1 C 251.0 100.4 247.8 101.3 247.2 101.1 C 248.5 100.8 249.4 100.4 251.0 100.0 C 250.8 100.2 253.2 99.6 251.7 100.1 C 251.7 100.1 251.7 100.1 251.7 100.1 Z M 255.9 98.6 C 256.2 98.7 258.5 97.9 258.0 98.3 C 256.7 98.7 256.2 98.9 256.5 99.0 C 255.5 99.3 255.3 99.2 254.4 99.5 C 253.7 99.4 255.4 99.0 255.9 98.7 C 255.6 98.8 255.2 98.8 255.9 98.6 C 255.9 98.6 255.9 98.6 255.9 98.6 Z M 300.0 75.1 C 300.5 75.0 298.9 76.4 298.5 76.6 C 299.2 76.4 299.0 76.6 298.0 77.6 C 298.2 77.0 296.7 78.5 295.5 79.0 C 295.4 79.4 296.8 78.4 295.3 79.7 C 294.0 80.6 292.9 81.5 290.7 82.9 C 290.1 83.0 291.0 82.4 291.6 81.9 C 290.1 82.9 290.4 82.5 289.3 83.2 C 289.6 83.1 288.6 83.8 288.2 83.9 C 290.2 82.6 285.3 85.2 287.4 83.9 C 287.6 83.9 288.1 83.6 288.5 83.2 C 288.2 83.8 290.8 82.1 291.5 81.8 C 292.2 80.7 295.0 79.1 297.5 77.1 C 297.8 77.1 297.1 77.8 297.7 77.3 C 297.7 77.1 298.5 76.4 298.8 76.1 C 298.9 76.2 299.2 76.0 299.7 75.5 C 299.7 75.5 299.7 75.4 300.0 75.1 C 300.0 75.1 300.0 75.1 300.0 75.1 Z M 139.9 108.8 C 140.0 108.4 135.9 108.4 134.7 108.5 C 135.0 108.1 142.2 108.5 139.9 108.8 C 139.9 108.8 139.9 108.8 139.9 108.8 Z M 165.2 108.9 C 164.1 108.9 164.9 109.1 163.9 109.2 C 163.9 108.9 161.4 109.4 161.3 109.2 C 162.5 109.0 163.3 109.0 165.2 108.9 C 165.2 108.9 165.2 108.9 165.2 108.9 Z M 188.5 108.1 C 186.6 108.3 189.5 108.2 189.1 108.3 C 187.5 108.4 185.8 108.5 185.9 108.3 C 187.4 108.3 188.3 107.9 188.5 108.1 C 188.5 108.1 188.5 108.1 188.5 108.1 Z M 153.5 108.7 C 152.0 108.6 154.6 108.3 154.8 108.4 C 153.1 108.5 155.9 108.7 157.4 108.6 C 157.3 108.9 156.7 108.9 157.4 109.1 C 155.1 109.2 157.0 108.8 155.4 108.9 C 154.4 109.0 155.5 109.0 155.4 109.2 C 154.8 109.2 154.2 109.2 153.5 109.2 C 153.5 109.0 153.5 108.9 153.5 108.8 C 154.3 108.8 155.1 108.8 154.8 108.6 C 154.2 108.6 154.0 108.7 153.5 108.7 C 153.5 108.7 153.5 108.7 153.5 108.7 Z M 268.8 92.3 C 267.5 92.8 268.7 92.5 269.6 92.2 C 269.8 92.0 270.5 91.3 272.0 91.0 C 268.9 92.4 273.1 90.9 271.4 91.7 C 270.6 91.8 268.8 92.8 267.2 93.3 C 266.4 93.3 268.0 92.4 268.8 92.3 C 268.8 92.3 268.8 92.3 268.8 92.3 Z M 274.5 90.3 C 274.3 90.3 273.8 90.5 272.9 90.9 C 273.8 90.3 272.4 90.8 273.6 90.2 C 273.5 90.4 277.5 88.8 275.2 89.8 C 273.0 90.6 275.8 89.7 276.8 89.3 C 275.8 89.8 274.0 90.8 273.7 90.7 C 274.2 90.5 274.7 90.3 274.5 90.3 C 274.5 90.3 274.5 90.3 274.5 90.3 Z M 304.7 67.7 C 304.6 67.5 304.3 68.1 304.1 68.2 C 305.1 66.5 305.5 65.0 305.8 64.2 C 305.6 65.0 305.8 65.0 306.0 64.6 C 305.7 65.4 305.7 65.7 305.5 65.9 C 305.6 65.1 305.2 66.6 304.7 67.7 C 304.7 67.7 304.7 67.7 304.7 67.7 Z M 304.7 67.7 " fill="#000000"></path><image xlink:href="../../1BE7A03E-C66D-4413-94C1-F85C6D2757AE/assets/556909E534099076BC3C0EB9B4744AB3.png" width="98.00" height="51.00" transform="matrix(1.00, 0.00, -0.00, -1.00, 113.0, 82.0)"></image><g><clipPath id="clip-1436"><path d="M 10.6 10.7 L 308.8 10.7 L 308.8 110.7 L 10.6 110.7 Z M 10.6 10.7 "></path></clipPath><g clip-path="url(#clip-1436)"><text xml:space="preserve" font-family="Chalkduster" font-size="32.0" fill="#000000" transform="matrix(1.00, 0.00, -0.00, -1.00, 116.0, 47.0)">i</text><text xml:space="preserve" font-family="Chalkduster" font-size="32.0" fill="#000000" transform="matrix(1.00, 0.00, -0.00, -1.00, 128.6, 47.0)">P</text><text xml:space="preserve" font-family="Chalkduster" font-size="32.0" fill="#000000" transform="matrix(1.00, 0.00, -0.00, -1.00, 150.6, 47.0)">e</text><text xml:space="preserve" font-family="Chalkduster" font-size="32.0" fill="#000000" transform="matrix(1.00, 0.00, -0.00, -1.00, 170.1, 47.0)">r</text><text xml:space="preserve" font-family="Chalkduster" font-size="32.0" fill="#000000" transform="matrix(1.00, 0.00, -0.00, -1.00, 187.0, 47.0)">f</text></g></g></g></svg>