<?xml version="1.0" encoding="UTF-8" standalone="no"?><svg xmlns="http://www.w3.org/2000/svg" xmlns:xlink="http://www.w3.org/1999/xlink" clip-rule="evenodd" stroke-miterlimit="4.00" viewBox="0 0 71 218"><desc>SVG generated by Keynote</desc><defs></defs><g transform="matrix(1.00, 0.00, -0.00, -1.00, 0.0, 218.0)"><path d="M 7.0 1.1 L 8.0 1.1 C 21.0 0.4 34.0 0.0 47.0 0.0 C 51.2 -0.0 55.6 0.1 58.7 2.5 C 61.7 4.8 62.1 8.3 62.4 11.7 C 68.0 78.2 66.4 144.9 57.7 211.2 " fill="none" stroke="#FEFFFE" stroke-width="2.00" stroke-linejoin="round" stroke-dasharray="2.0, 4.0" transform="matrix(1.00, 0.00, 0.00, -1.00, 3.0, 213.8)"></path><path d="M 7.2 208.5 C 5.0 208.3 3.1 210.0 3.0 212.2 C 2.9 214.4 4.5 216.3 6.7 216.5 C 9.0 216.6 10.8 214.9 11.0 212.7 C 11.1 210.5 9.4 208.6 7.2 208.5 Z M 7.2 208.5 " fill="#FEFFFE"></path></g></svg>