<?xml version="1.0" encoding="UTF-8" standalone="no"?><svg xmlns="http://www.w3.org/2000/svg" xmlns:xlink="http://www.w3.org/1999/xlink" clip-rule="evenodd" stroke-miterlimit="4.00" viewBox="0 0 245 12"><desc>SVG generated by Keynote</desc><defs></defs><g transform="matrix(1.00, 0.00, -0.00, -1.00, 0.0, 12.0)"><path d="M 23.8 3.5 C 23.3 3.8 22.1 3.4 21.7 3.7 M 23.8 3.5 C 22.6 1.7 20.4 1.6 17.5 1.2 C 14.3 1.2 17.6 2.9 17.2 3.7 C 13.0 4.4 13.0 3.1 13.6 1.1 C 12.1 2.4 7.3 0.1 8.3 2.5 C 15.0 2.5 3.6 3.1 9.2 4.6 C 9.8 4.9 8.2 5.6 7.6 5.6 C 9.4 6.6 6.2 7.8 9.2 8.6 C 9.6 10.1 9.1 9.4 11.0 10.7 C 11.8 10.8 11.5 10.3 11.4 9.9 C 11.7 8.1 13.7 10.9 15.2 9.8 C 16.6 12.2 18.1 9.4 16.9 8.4 C 18.3 8.7 19.9 11.1 21.4 9.4 C 22.2 10.6 26.0 9.8 23.7 8.3 C 22.1 7.4 23.9 6.7 24.2 6.1 C 23.6 5.6 21.2 6.3 20.9 5.9 C 21.6 5.5 24.6 4.6 21.4 4.7 C 22.4 3.9 20.9 3.4 23.8 3.5 C 23.8 3.5 23.8 3.5 23.8 3.5 Z M 12.5 2.2 C 12.5 1.5 13.5 2.2 12.5 2.2 C 12.5 2.2 12.5 2.2 12.5 2.2 Z M 20.2 10.6 C 20.2 10.0 21.2 10.7 20.2 10.6 C 20.2 10.6 20.2 10.6 20.2 10.6 Z M 11.9 10.0 C 11.9 9.3 13.0 10.0 11.9 10.0 C 11.9 10.0 11.9 10.0 11.9 10.0 Z M 15.4 2.6 C 17.2 3.1 13.9 3.5 13.7 2.9 C 14.0 2.9 15.0 2.0 15.4 2.6 C 15.4 2.6 15.4 2.6 15.4 2.6 Z M 15.7 6.2 C 15.8 6.0 16.5 5.9 16.5 6.6 C 16.0 6.7 15.5 6.5 15.7 6.2 C 15.7 6.2 15.7 6.2 15.7 6.2 Z M 6.8 3.6 C 7.0 3.4 7.7 3.3 7.6 4.0 C 7.2 4.1 6.7 3.9 6.8 3.6 C 6.8 3.6 6.8 3.6 6.8 3.6 Z M 17.4 4.2 C 17.9 4.4 18.1 4.9 17.5 5.0 C 17.3 4.7 16.0 4.6 17.4 4.2 C 17.4 4.2 17.4 4.2 17.4 4.2 Z M 20.2 2.1 C 21.7 2.5 18.7 3.4 18.7 3.1 C 18.3 2.7 19.4 1.6 20.2 2.1 C 20.2 2.1 20.2 2.1 20.2 2.1 Z M 18.3 5.1 C 19.5 5.4 17.8 5.6 18.3 5.1 C 18.3 5.1 18.3 5.1 18.3 5.1 Z M 8.1 8.3 C 9.3 8.6 7.5 8.8 8.1 8.3 C 8.1 8.3 8.1 8.3 8.1 8.3 Z M 14.6 10.3 C 15.8 10.6 14.0 10.8 14.6 10.3 C 14.6 10.3 14.6 10.3 14.6 10.3 Z M 12.1 3.8 C 10.0 3.8 11.8 2.2 12.1 3.8 C 12.1 3.8 12.1 3.8 12.1 3.8 Z M 23.7 2.0 C 21.5 1.9 23.4 0.4 23.7 2.0 C 23.7 2.0 23.7 2.0 23.7 2.0 Z M 235.1 2.6 C 237.1 2.2 229.4 0.1 232.3 2.6 C 233.2 4.7 228.0 4.5 229.3 2.6 C 227.8 2.4 227.8 2.2 226.9 3.2 C 226.7 1.7 223.0 0.9 221.8 1.7 C 221.0 3.0 224.2 1.9 222.1 3.3 C 217.6 3.7 222.4 4.7 220.7 6.4 C 220.5 6.4 220.4 5.6 220.0 6.0 C 219.9 7.6 222.5 8.7 221.3 9.9 C 222.0 9.6 225.2 11.4 223.9 10.0 C 223.4 8.5 227.4 11.8 227.1 9.3 C 228.2 10.5 229.4 8.9 230.4 10.3 C 231.2 10.6 231.2 9.3 231.1 9.0 C 231.0 7.8 232.1 11.5 233.3 9.5 C 233.5 10.1 237.1 9.9 234.4 9.0 C 235.2 9.1 239.3 9.7 237.1 7.5 C 234.2 6.5 240.2 5.2 236.7 5.1 C 234.1 4.9 233.6 5.3 235.5 4.2 C 236.1 4.3 239.2 4.1 236.6 3.1 C 236.0 3.4 234.8 3.2 235.1 2.6 C 235.1 2.6 235.1 2.6 235.1 2.6 Z M 235.7 5.8 C 234.2 5.9 235.6 5.0 235.7 5.8 C 235.7 5.8 235.7 5.8 235.7 5.8 Z M 230.2 10.8 C 228.7 10.9 230.1 9.9 230.2 10.8 C 230.2 10.8 230.2 10.8 230.2 10.8 Z M 230.4 2.0 C 229.6 2.7 229.4 0.4 230.4 2.0 C 230.4 2.0 230.4 2.0 230.4 2.0 Z M 232.7 9.0 C 232.6 9.0 233.0 8.7 233.3 8.5 C 233.2 8.7 232.8 8.9 232.7 9.0 C 232.7 9.0 232.7 9.0 232.7 9.0 Z M 227.8 2.0 C 225.6 3.1 227.4 0.2 227.8 2.0 C 227.8 2.0 227.8 2.0 227.8 2.0 Z M 223.2 4.2 C 223.0 6.5 220.9 3.7 223.2 4.2 C 223.2 4.2 223.2 4.2 223.2 4.2 Z M 226.4 9.2 C 226.8 8.7 226.8 9.5 226.4 9.2 C 226.4 9.2 226.4 9.2 226.4 9.2 Z M 236.3 9.5 C 236.7 9.0 236.7 9.8 236.3 9.5 C 236.3 9.5 236.3 9.5 236.3 9.5 Z M 223.6 9.0 C 223.8 8.1 224.4 9.4 223.6 9.0 C 223.6 9.0 223.6 9.0 223.6 9.0 Z M 230.0 2.9 C 232.0 1.1 232.5 5.6 230.0 2.9 C 230.0 2.9 230.0 2.9 230.0 2.9 Z M 233.7 2.7 C 235.1 2.4 233.4 3.9 232.8 3.6 C 232.9 3.4 233.5 2.8 233.7 2.7 C 233.7 2.7 233.7 2.7 233.7 2.7 Z M 227.8 3.1 C 229.2 2.2 229.1 3.6 227.8 3.1 C 227.8 3.1 227.8 3.1 227.8 3.1 Z M 231.4 2.1 C 232.1 2.3 230.8 2.4 231.4 2.1 C 231.4 2.1 231.4 2.1 231.4 2.1 Z M 225.0 1.2 C 225.7 1.4 224.4 1.5 225.0 1.2 C 225.0 1.2 225.0 1.2 225.0 1.2 Z M 235.4 1.8 C 236.1 2.0 234.8 2.0 235.4 1.8 C 235.4 1.8 235.4 1.8 235.4 1.8 Z M 225.5 2.4 C 225.3 3.2 227.3 5.0 223.7 3.5 C 223.1 2.9 224.6 1.8 225.5 2.4 C 225.5 2.4 225.5 2.4 225.5 2.4 Z M 30.0 3.6 C 21.1 1.0 23.2 5.5 22.8 6.3 C 21.6 7.5 22.8 8.3 24.6 9.2 C 26.5 12.0 27.4 6.2 28.7 9.1 C 31.2 12.9 31.5 5.8 32.5 9.8 C 32.1 10.8 35.6 10.0 35.3 9.7 C 37.1 11.6 39.6 8.2 39.6 7.9 C 40.8 8.4 40.9 11.9 44.5 9.3 C 47.3 8.3 48.5 11.9 47.8 9.4 C 49.8 12.2 49.2 8.6 51.2 9.5 C 52.7 11.0 51.3 7.2 53.8 10.1 C 55.0 7.8 52.7 11.7 59.6 10.0 C 56.3 9.8 62.8 8.2 61.5 9.7 C 59.1 11.4 64.8 9.1 67.9 10.1 C 68.8 9.2 72.5 7.2 71.9 9.4 C 75.1 12.1 75.2 7.8 76.6 10.0 C 77.7 10.9 78.1 9.0 78.8 9.1 C 80.0 10.7 81.0 9.6 85.0 10.1 C 93.9 10.9 86.4 5.9 89.8 5.4 C 90.3 4.6 85.4 -0.7 87.3 3.3 C 86.7 2.2 79.5 6.3 83.1 1.9 C 80.3 3.7 83.7 0.1 78.1 2.2 C 85.7 5.3 69.5 3.5 76.8 2.0 C 75.6 1.0 72.6 1.2 74.7 2.0 C 75.6 4.8 69.5 0.7 72.6 4.1 C 67.9 3.2 69.1 6.3 67.8 4.1 C 66.7 0.4 68.1 5.1 65.7 4.0 C 60.2 3.9 64.4 -0.3 61.1 2.5 C 55.7 0.7 59.9 4.1 58.1 4.6 C 57.5 7.1 52.6 2.6 56.7 2.3 C 54.5 3.7 56.3 1.1 53.8 2.7 C 55.6 5.1 50.6 0.2 51.4 2.1 C 49.2 2.7 50.3 4.1 49.6 4.1 C 46.4 4.2 47.4 1.8 46.7 3.6 C 45.9 4.5 44.4 1.5 44.0 2.2 C 47.4 2.4 41.2 4.7 40.8 3.5 C 42.9 3.3 39.8 0.3 38.5 2.2 C 40.1 7.4 35.5 0.9 34.0 2.7 C 35.5 5.6 26.6 3.0 30.0 1.7 C 29.8 2.0 30.1 3.6 30.0 3.6 M 43.0 2.6 C 45.8 2.9 40.0 3.2 43.0 2.6 M 42.9 1.9 C 44.1 2.8 40.3 1.2 43.0 1.6 C 43.1 1.6 42.7 1.8 42.9 1.9 M 54.3 1.8 C 54.0 2.6 52.8 1.3 54.3 1.8 M 56.6 3.6 C 58.4 4.3 54.1 3.7 56.6 3.6 M 81.9 3.0 C 79.4 7.3 79.2 0.6 81.9 3.0 M 65.1 2.1 C 62.0 2.7 66.2 0.3 65.1 2.1 M 64.2 3.2 C 62.8 3.9 63.9 2.2 64.2 3.2 M 77.1 3.0 C 77.3 3.1 77.3 3.1 77.1 3.0 C 77.1 3.0 77.1 3.0 77.1 3.0 Z M 84.6 3.1 C 84.7 3.0 84.7 3.0 84.6 3.1 C 84.6 3.1 84.6 3.1 84.6 3.1 Z M 69.8 3.4 C 67.5 2.4 73.6 3.0 69.8 3.4 C 69.8 3.4 69.8 3.4 69.8 3.4 Z M 81.0 9.6 C 80.9 9.7 80.9 9.7 81.0 9.6 C 81.0 9.6 81.0 9.6 81.0 9.6 Z M 40.8 4.6 C 40.7 4.6 40.7 4.6 40.8 4.6 C 40.8 4.6 40.8 4.6 40.8 4.6 Z M 32.2 3.0 C 32.4 3.6 30.7 2.5 32.2 3.0 C 32.2 3.0 32.2 3.0 32.2 3.0 Z M 25.3 7.9 C 25.2 7.9 25.2 7.9 25.3 7.9 C 25.3 7.9 25.3 7.9 25.3 7.9 Z M 37.9 6.9 C 37.8 6.9 37.8 6.9 37.9 6.9 C 37.9 6.9 37.9 6.9 37.9 6.9 Z M 39.2 3.7 C 37.8 1.3 42.4 4.3 39.2 3.7 C 39.2 3.7 39.2 3.7 39.2 3.7 Z M 66.9 9.4 C 67.0 8.3 68.9 9.7 66.9 9.4 C 66.9 9.4 66.9 9.4 66.9 9.4 Z M 56.9 4.5 C 57.2 4.0 58.1 4.8 56.9 4.5 C 56.9 4.5 56.9 4.5 56.9 4.5 Z M 52.2 1.3 C 52.5 0.8 53.4 1.6 52.2 1.3 C 52.2 1.3 52.2 1.3 52.2 1.3 Z M 32.4 2.3 C 32.6 2.2 32.6 2.2 32.4 2.3 C 32.4 2.3 32.4 2.3 32.4 2.3 Z M 35.4 4.1 C 33.3 1.9 38.7 5.3 35.4 4.1 C 35.4 4.1 35.4 4.1 35.4 4.1 Z M 31.8 4.7 C 33.0 5.6 29.1 4.4 31.8 4.7 M 33.9 8.1 C 36.5 7.2 31.6 12.1 33.9 8.1 C 33.9 8.1 33.9 8.1 33.9 8.1 Z M 47.1 9.0 C 47.3 9.1 47.3 9.1 47.1 9.0 C 47.1 9.0 47.1 9.0 47.1 9.0 Z M 45.7 2.6 C 48.0 2.6 44.2 3.1 45.7 2.6 C 45.7 2.6 45.7 2.6 45.7 2.6 Z M 25.8 2.1 C 28.1 2.2 24.4 2.6 25.8 2.1 C 25.8 2.1 25.8 2.1 25.8 2.1 Z M 54.8 6.9 C 58.5 6.5 52.5 8.0 54.8 6.9 C 54.8 6.9 54.8 6.9 54.8 6.9 Z M 68.5 4.3 C 68.6 4.4 68.6 4.4 68.5 4.3 C 68.5 4.3 68.5 4.3 68.5 4.3 Z M 71.1 3.4 C 71.1 3.4 71.1 3.4 71.1 3.4 C 71.1 3.4 71.1 3.4 71.1 3.4 Z M 81.7 5.7 C 81.9 5.7 81.9 5.7 81.7 5.7 C 81.7 5.7 81.7 5.7 81.7 5.7 Z M 73.4 2.3 C 73.5 2.4 73.5 2.4 73.4 2.3 C 73.4 2.3 73.4 2.3 73.4 2.3 Z M 80.8 2.9 C 80.9 3.0 80.9 3.0 80.8 2.9 C 80.8 2.9 80.8 2.9 80.8 2.9 Z M 79.7 1.0 C 79.9 1.1 79.9 1.1 79.7 1.0 C 79.7 1.0 79.7 1.0 79.7 1.0 Z M 63.3 10.6 C 63.5 10.7 63.5 10.7 63.3 10.6 C 63.3 10.6 63.3 10.6 63.3 10.6 Z M 36.4 1.6 C 36.6 1.8 36.6 1.8 36.4 1.6 C 36.4 1.6 36.4 1.6 36.4 1.6 Z M 80.2 3.8 C 80.2 3.8 80.2 3.8 80.2 3.8 C 80.2 3.8 80.2 3.8 80.2 3.8 Z M 62.1 5.5 C 62.2 7.4 60.6 3.0 62.6 5.4 C 62.5 5.5 62.0 5.2 62.1 5.5 M 64.6 8.6 C 64.5 8.7 64.5 8.7 64.6 8.6 C 64.6 8.6 64.6 8.6 64.6 8.6 Z M 56.4 9.8 C 56.3 9.9 56.3 9.9 56.4 9.8 C 56.4 9.8 56.4 9.8 56.4 9.8 Z M 72.1 2.0 C 71.8 0.9 74.1 2.8 71.8 2.0 M 81.8 9.0 C 81.5 7.9 83.8 9.8 81.5 9.0 M 23.2 2.8 C 22.9 3.6 21.7 2.3 23.2 2.8 M 54.6 10.8 C 54.3 11.6 53.0 10.3 54.6 10.8 M 58.4 8.4 C 58.1 7.3 60.4 9.2 58.1 8.4 M 76.2 8.9 C 76.3 8.9 76.3 8.9 76.2 8.9 C 76.2 8.9 76.2 8.9 76.2 8.9 Z M 49.2 2.8 C 49.3 2.8 49.3 2.8 49.2 2.8 C 49.2 2.8 49.2 2.8 49.2 2.8 Z M 59.2 5.0 C 57.8 3.6 60.9 5.9 59.2 5.0 M 46.3 5.3 C 44.3 3.5 49.4 5.9 46.3 5.3 M 86.0 9.4 C 83.8 7.2 87.6 10.6 86.0 9.4 M 75.1 4.0 C 72.9 1.8 76.7 5.2 75.1 4.0 M 51.2 3.7 C 51.1 2.6 53.4 4.4 51.2 3.7 M 28.4 2.6 C 26.3 2.4 31.2 1.7 28.4 2.6 M 70.8 9.0 C 70.9 9.0 70.9 9.0 70.8 9.0 C 70.8 9.0 70.8 9.0 70.8 9.0 Z M 35.3 10.8 C 35.4 10.9 35.4 10.9 35.3 10.8 C 35.3 10.8 35.3 10.8 35.3 10.8 Z M 88.9 2.3 C 89.0 2.4 89.0 2.4 88.9 2.3 C 88.9 2.3 88.9 2.3 88.9 2.3 Z M 73.7 5.0 C 73.8 5.1 73.8 5.1 73.7 5.0 C 73.7 5.0 73.7 5.0 73.7 5.0 Z M 84.6 2.0 C 84.7 2.2 84.7 2.2 84.6 2.0 C 84.6 2.0 84.6 2.0 84.6 2.0 Z M 66.8 6.7 C 66.9 6.7 66.9 6.7 66.8 6.7 C 66.8 6.7 66.8 6.7 66.8 6.7 Z M 65.4 1.2 C 65.5 1.2 65.5 1.2 65.4 1.2 C 65.4 1.2 65.4 1.2 65.4 1.2 Z M 57.9 3.5 C 57.9 3.6 57.9 3.6 57.9 3.5 C 57.9 3.5 57.9 3.5 57.9 3.5 Z M 68.9 1.6 C 73.4 1.3 66.6 3.4 68.9 1.6 C 68.9 1.6 68.9 1.6 68.9 1.6 Z M 61.1 7.1 C 61.1 7.1 61.1 7.1 61.1 7.1 C 61.1 7.1 61.1 7.1 61.1 7.1 Z M 60.4 3.2 C 63.3 1.6 61.9 5.9 60.4 3.2 M 47.9 1.9 C 48.7 1.1 48.3 3.2 47.9 1.9 M 42.9 9.1 C 42.8 9.2 42.8 9.2 42.9 9.1 C 42.9 9.1 42.9 9.1 42.9 9.1 Z M 44.2 8.6 C 44.3 8.6 44.3 8.6 44.2 8.6 C 44.2 8.6 44.2 8.6 44.2 8.6 Z M 44.8 1.6 C 44.9 1.6 44.9 1.6 44.8 1.6 C 44.8 1.6 44.8 1.6 44.8 1.6 Z M 44.4 10.6 C 44.5 10.7 44.5 10.7 44.4 10.6 C 44.4 10.6 44.4 10.6 44.4 10.6 Z M 63.7 1.3 C 63.8 1.3 63.8 1.3 63.7 1.3 C 63.7 1.3 63.7 1.3 63.7 1.3 Z M 86.8 1.2 C 86.9 1.3 86.9 1.3 86.8 1.2 C 86.8 1.2 86.8 1.2 86.8 1.2 Z M 29.1 8.4 C 29.2 8.4 29.2 8.4 29.1 8.4 C 29.1 8.4 29.1 8.4 29.1 8.4 Z M 66.1 3.5 C 66.2 3.6 66.2 3.6 66.1 3.5 C 66.1 3.5 66.1 3.5 66.1 3.5 Z M 39.6 8.8 C 39.7 8.9 39.7 8.9 39.6 8.8 C 39.6 8.8 39.6 8.8 39.6 8.8 Z M 64.6 3.0 C 64.7 3.0 64.7 3.0 64.6 3.0 C 64.6 3.0 64.6 3.0 64.6 3.0 Z M 70.1 9.4 C 70.1 9.4 70.1 9.4 70.1 9.4 C 70.1 9.4 70.1 9.4 70.1 9.4 Z M 75.0 10.7 C 75.1 10.7 75.1 10.7 75.0 10.7 C 75.0 10.7 75.0 10.7 75.0 10.7 Z M 69.7 5.6 C 69.8 5.6 69.8 5.6 69.7 5.6 C 69.7 5.6 69.7 5.6 69.7 5.6 Z M 38.0 6.4 C 28.9 4.5 45.2 5.6 38.0 6.4 M 71.2 6.0 C 64.9 5.6 76.3 3.9 71.2 6.0 C 71.9 5.5 71.3 6.0 71.2 6.0 M 91.1 1.4 C 88.5 3.4 88.5 5.4 89.6 7.5 C 90.9 8.5 90.9 4.5 90.9 7.9 C 88.0 8.5 92.2 13.0 92.2 8.6 C 96.1 8.0 92.8 11.4 95.2 9.7 C 99.3 9.2 97.2 10.6 100.4 10.3 C 102.3 7.9 102.3 11.5 103.1 9.2 C 101.5 11.7 106.6 8.5 106.7 9.6 C 103.7 11.1 117.9 9.6 110.2 8.9 C 113.3 7.8 112.7 9.8 113.8 10.1 C 115.2 8.7 119.0 11.3 120.9 9.8 C 120.5 9.5 119.5 9.4 119.3 8.9 C 118.7 8.0 121.4 9.1 121.2 9.1 C 122.4 8.5 127.5 7.0 122.1 9.6 C 121.8 10.8 126.5 9.1 126.3 10.1 C 131.0 10.2 127.5 7.8 129.6 9.6 C 132.9 9.6 135.3 9.6 135.3 9.3 C 137.4 9.6 137.8 11.0 139.6 9.6 C 143.7 12.3 142.5 4.6 144.0 9.7 C 145.2 8.5 146.4 11.9 146.2 8.7 C 144.8 10.1 153.2 11.2 149.5 8.8 C 150.5 8.1 155.8 12.1 155.0 8.9 C 156.9 6.5 156.6 4.2 152.5 1.9 C 152.9 3.8 148.1 0.0 151.2 3.2 C 154.7 4.2 144.7 4.3 146.8 3.1 C 147.4 -0.6 142.0 5.5 139.9 2.8 C 141.6 4.3 133.4 5.0 135.8 2.2 C 134.3 2.0 134.0 3.3 132.3 1.7 C 137.2 2.0 130.4 4.6 130.7 2.9 C 131.5 1.9 124.3 1.0 125.0 2.6 C 127.6 6.5 123.1 1.8 121.9 3.3 C 117.9 4.2 122.5 0.0 119.5 2.9 C 118.7 2.4 113.4 2.4 116.8 1.6 C 118.0 2.0 113.6 5.8 113.0 2.5 C 118.7 0.7 106.4 1.5 108.4 2.5 C 117.2 4.3 99.0 4.6 105.9 2.8 C 102.0 1.0 107.1 2.1 102.2 2.8 C 102.9 3.9 99.1 4.9 100.0 2.8 C 99.2 -0.4 98.7 7.0 95.7 2.7 C 95.3 0.8 89.8 4.1 91.9 2.0 C 92.1 1.8 91.3 1.4 91.1 1.4 M 92.9 1.8 C 92.2 2.5 91.8 0.9 92.9 1.8 M 92.1 2.5 C 92.1 2.4 92.1 2.4 92.1 2.5 C 92.1 2.5 92.1 2.5 92.1 2.5 Z M 101.5 3.0 C 101.5 2.9 101.5 2.9 101.5 3.0 C 101.5 3.0 101.5 3.0 101.5 3.0 Z M 108.9 10.9 C 108.9 10.8 108.9 10.8 108.9 10.9 C 108.9 10.9 108.9 10.9 108.9 10.9 Z M 107.8 3.1 C 107.7 3.1 107.7 3.1 107.8 3.1 C 107.8 3.1 107.8 3.1 107.8 3.1 Z M 98.2 3.5 C 98.1 3.4 98.1 3.4 98.2 3.5 C 98.2 3.5 98.2 3.5 98.2 3.5 Z M 107.2 2.0 C 107.7 3.2 105.0 1.1 107.3 1.8 C 107.4 1.9 107.0 1.9 107.2 2.0 M 115.4 1.5 C 115.4 1.6 115.4 1.6 115.4 1.5 M 133.4 10.8 C 133.4 10.9 133.4 10.9 133.4 10.8 M 134.8 1.4 C 135.0 1.6 135.0 1.6 134.8 1.4 M 123.5 2.7 C 126.0 2.6 124.1 3.3 123.5 2.7 M 141.4 2.1 C 138.3 1.3 144.8 1.4 141.4 2.1 M 144.5 1.4 C 144.7 1.5 144.7 1.5 144.5 1.4 M 130.3 1.8 C 130.2 1.9 130.2 1.9 130.3 1.8 C 130.3 1.8 130.3 1.8 130.3 1.8 Z M 122.4 2.2 C 119.2 1.6 125.7 1.1 122.4 2.2 M 102.6 1.8 C 104.4 1.2 102.6 3.3 102.6 1.8 M 98.9 2.5 C 98.9 2.5 98.9 2.5 98.9 2.5 C 98.9 2.5 98.9 2.5 98.9 2.5 Z M 136.4 2.0 C 136.3 2.0 136.3 2.0 136.4 2.0 C 136.4 2.0 136.4 2.0 136.4 2.0 Z M 140.0 1.8 C 139.9 1.8 139.9 1.8 140.0 1.8 C 140.0 1.8 140.0 1.8 140.0 1.8 Z M 146.0 10.5 C 145.9 10.5 145.9 10.5 146.0 10.5 C 146.0 10.5 146.0 10.5 146.0 10.5 Z M 101.7 6.1 C 99.3 5.5 104.2 3.2 103.7 5.4 C 103.9 6.3 102.0 5.9 101.7 6.1 M 120.1 4.9 C 120.7 7.8 117.7 0.8 120.1 4.9 M 144.9 3.3 C 147.3 6.8 141.8 0.8 144.9 3.3 M 149.8 2.7 C 151.3 3.4 140.7 3.1 148.1 2.2 C 148.8 1.6 149.3 2.3 149.8 2.7 M 115.5 2.9 C 116.2 4.6 111.6 2.2 115.5 2.9 M 130.5 7.8 C 131.7 6.8 134.8 5.9 133.4 7.7 C 133.4 10.0 129.0 8.7 130.5 7.8 M 93.6 3.5 C 95.6 0.8 93.5 5.7 93.6 3.5 M 103.1 3.7 C 103.1 3.6 103.1 3.6 103.1 3.7 C 103.1 3.7 103.1 3.7 103.1 3.7 Z M 106.8 3.3 C 107.0 3.5 107.0 3.5 106.8 3.3 M 95.1 1.1 C 95.3 1.4 95.3 1.4 95.1 1.1 M 130.4 5.1 C 130.6 5.3 130.6 5.3 130.4 5.1 M 122.8 3.4 C 126.4 6.0 120.8 3.9 122.8 3.4 M 113.8 8.4 C 114.9 9.6 111.5 8.5 113.8 8.4 M 128.8 2.4 C 131.4 4.9 125.2 4.7 128.8 2.4 M 120.9 3.1 C 121.1 3.1 121.1 3.1 120.9 3.1 C 120.9 3.1 120.9 3.1 120.9 3.1 Z M 131.4 8.1 C 131.4 8.2 131.4 8.2 131.4 8.1 C 131.4 8.1 131.4 8.1 131.4 8.1 Z M 132.6 8.0 C 132.4 8.1 132.4 8.1 132.6 8.0 C 132.6 8.0 132.6 8.0 132.6 8.0 Z M 132.0 2.1 C 131.8 2.2 131.8 2.2 132.0 2.1 C 132.0 2.1 132.0 2.1 132.0 2.1 Z M 98.7 9.3 C 101.3 9.4 96.7 9.6 98.7 9.3 C 98.7 9.3 98.7 9.3 98.7 9.3 Z M 110.2 2.0 C 114.5 4.0 107.2 3.8 110.2 2.0 C 110.2 2.0 110.2 2.0 110.2 2.0 Z M 115.0 5.2 C 115.0 5.4 115.0 5.4 115.0 5.2 C 115.0 5.2 115.0 5.2 115.0 5.2 Z M 127.1 0.9 C 127.1 1.0 127.1 1.0 127.1 0.9 C 127.1 0.9 127.1 0.9 127.1 0.9 Z M 100.0 9.6 C 100.0 9.7 100.0 9.7 100.0 9.6 C 100.0 9.6 100.0 9.6 100.0 9.6 Z M 139.3 3.5 C 139.3 3.6 139.3 3.6 139.3 3.5 C 139.3 3.5 139.3 3.5 139.3 3.5 Z M 124.4 8.5 C 125.4 7.6 124.6 9.3 124.4 8.5 C 124.4 8.5 124.4 8.5 124.4 8.5 Z M 128.3 8.5 C 128.4 8.5 128.4 8.5 128.3 8.5 C 128.3 8.5 128.3 8.5 128.3 8.5 Z M 145.4 1.2 C 145.5 1.2 145.5 1.2 145.4 1.2 C 145.4 1.2 145.4 1.2 145.4 1.2 Z M 138.2 10.8 C 138.3 10.8 138.3 10.8 138.2 10.8 C 138.2 10.8 138.2 10.8 138.2 10.8 Z M 141.4 8.0 C 141.4 8.0 141.4 8.0 141.4 8.0 C 141.4 8.0 141.4 8.0 141.4 8.0 Z M 131.3 2.7 C 135.1 2.3 130.4 3.8 131.3 2.7 C 131.3 2.7 131.3 2.7 131.3 2.7 Z M 151.0 7.2 C 151.1 7.3 151.1 7.3 151.0 7.2 C 151.0 7.2 151.0 7.2 151.0 7.2 Z M 153.0 3.8 C 153.1 4.0 153.1 4.0 153.0 3.8 C 153.0 3.8 153.0 3.8 153.0 3.8 Z M 153.9 2.0 C 154.1 2.2 154.1 2.2 153.9 2.0 C 153.9 2.0 153.9 2.0 153.9 2.0 Z M 106.8 6.9 C 106.7 6.8 106.7 6.8 106.8 6.9 C 106.8 6.9 106.8 6.9 106.8 6.9 Z M 105.2 1.4 C 105.2 1.4 105.2 1.4 105.2 1.4 C 105.2 1.4 105.2 1.4 105.2 1.4 Z M 110.5 1.1 C 110.5 1.1 110.5 1.1 110.5 1.1 C 110.5 1.1 110.5 1.1 110.5 1.1 Z M 105.8 10.2 C 105.8 10.1 105.8 10.1 105.8 10.2 C 105.8 10.2 105.8 10.2 105.8 10.2 Z M 125.5 5.5 C 125.4 5.4 125.4 5.4 125.5 5.5 C 125.5 5.5 125.5 5.5 125.5 5.5 Z M 127.3 7.7 C 127.2 7.6 127.2 7.6 127.3 7.7 C 127.3 7.7 127.3 7.7 127.3 7.7 Z M 122.8 10.7 C 122.8 10.6 122.8 10.6 122.8 10.7 C 122.8 10.7 122.8 10.7 122.8 10.7 Z M 128.8 9.7 C 128.7 9.6 128.7 9.6 128.8 9.7 C 128.8 9.7 128.8 9.7 128.8 9.7 Z M 92.7 9.2 C 92.6 9.2 92.6 9.2 92.7 9.2 C 92.7 9.2 92.7 9.2 92.7 9.2 Z M 92.2 5.0 C 92.2 5.1 92.2 5.1 92.2 5.0 C 92.2 5.0 92.2 5.0 92.2 5.0 Z M 126.1 2.5 C 127.0 1.6 127.9 3.7 126.1 2.5 M 118.6 3.0 C 118.6 3.1 118.6 3.1 118.6 3.0 C 118.6 3.0 118.6 3.0 118.6 3.0 Z M 138.7 2.6 C 139.6 4.3 135.2 1.8 138.7 2.6 C 138.7 2.6 138.7 2.6 138.7 2.6 Z M 134.7 9.7 C 134.8 9.7 134.8 9.7 134.7 9.7 C 134.7 9.7 134.7 9.7 134.7 9.7 Z M 136.7 8.9 C 136.8 9.1 136.8 9.1 136.7 8.9 C 136.7 8.9 136.7 8.9 136.7 8.9 Z M 147.5 4.4 C 147.7 4.6 147.7 4.6 147.5 4.4 M 117.6 1.5 C 118.8 2.3 118.5 2.1 117.6 1.5 M 141.2 2.7 C 141.1 2.8 141.1 2.8 141.2 2.7 C 141.2 2.7 141.2 2.7 141.2 2.7 Z M 149.9 3.5 C 149.8 3.5 149.8 3.5 149.9 3.5 C 149.9 3.5 149.9 3.5 149.9 3.5 Z M 112.3 2.7 C 112.5 4.7 111.5 4.2 112.3 2.7 M 97.4 3.3 C 97.4 3.4 97.4 3.4 97.4 3.3 C 97.4 3.3 97.4 3.3 97.4 3.3 Z M 161.8 2.0 C 157.7 -0.2 157.7 3.0 157.7 3.0 C 158.2 -1.2 154.1 4.7 154.9 5.6 C 154.8 6.1 157.9 13.5 160.8 9.1 C 161.5 8.5 162.0 9.8 162.5 9.9 C 167.5 9.7 159.1 7.6 165.2 7.6 C 166.3 8.2 165.0 11.7 168.6 9.3 C 168.7 9.6 172.8 10.9 171.3 9.3 C 173.2 11.0 174.4 9.0 176.2 8.6 C 177.9 9.6 174.9 11.2 180.7 9.2 C 183.2 12.1 184.1 7.0 186.4 10.3 C 187.8 10.4 190.1 5.0 186.7 8.1 C 187.2 7.7 185.0 5.2 189.6 6.1 C 189.0 6.8 186.4 12.2 193.7 9.6 C 194.9 9.7 197.6 8.3 198.3 8.9 C 194.6 9.5 203.4 11.3 202.5 9.7 C 208.3 10.8 204.9 8.4 209.1 10.1 C 212.6 10.2 208.0 7.7 212.3 9.1 C 215.5 8.9 213.3 10.2 213.0 10.1 C 215.8 10.4 216.8 9.4 217.8 9.5 C 218.4 9.7 219.6 10.9 220.3 9.5 C 223.2 7.1 220.5 4.6 221.9 2.2 C 219.7 1.0 220.9 4.1 219.4 2.2 C 218.4 3.8 219.3 2.1 213.4 2.4 C 213.6 2.8 215.0 3.9 213.6 4.0 C 211.3 3.8 212.9 -0.3 209.1 2.6 C 213.6 3.5 202.9 3.9 207.0 4.8 C 201.9 5.3 205.5 4.5 201.8 3.5 C 202.0 6.3 201.5 0.5 200.1 2.7 C 199.7 1.6 193.9 2.1 198.1 3.8 C 192.0 4.5 195.8 2.9 193.7 1.5 C 190.8 1.3 193.4 6.0 191.7 2.6 C 188.0 1.0 191.5 4.3 188.9 1.6 C 190.1 4.0 186.2 1.6 187.2 4.2 C 180.9 4.4 188.0 1.4 183.6 3.2 C 184.9 3.3 184.4 -0.2 181.7 2.1 C 182.9 6.2 178.2 -1.6 180.1 3.9 C 171.4 5.4 178.7 1.6 173.9 1.6 C 172.6 1.6 175.2 3.4 174.1 3.4 C 167.9 2.7 173.0 1.3 169.8 3.9 C 163.7 4.6 168.0 1.6 165.0 1.4 C 164.8 2.7 162.3 4.9 161.8 2.0 M 167.2 3.3 C 168.5 2.5 168.0 4.2 167.2 3.3 M 155.0 2.1 C 156.2 1.2 155.7 2.9 155.0 2.1 M 172.3 2.6 C 174.0 1.7 172.8 4.0 172.3 2.6 M 205.2 3.9 C 202.9 3.9 206.3 3.2 205.2 3.9 M 159.8 1.9 C 161.6 0.9 160.3 3.4 159.8 1.9 M 157.6 4.0 C 157.7 4.1 157.7 4.1 157.6 4.0 M 208.5 1.7 C 208.6 1.7 208.6 1.7 208.5 1.7 M 199.6 1.6 C 201.5 1.7 198.6 2.2 199.6 1.6 M 199.3 10.6 C 201.2 10.6 198.2 11.1 199.3 10.6 M 213.3 1.6 C 215.2 0.9 213.8 2.6 213.3 1.6 M 218.2 3.5 C 219.9 2.7 219.3 4.4 218.2 3.5 M 166.1 6.5 C 166.1 6.6 166.1 6.6 166.1 6.5 C 166.1 6.5 166.1 6.5 166.1 6.5 Z M 182.3 8.7 C 180.4 7.8 184.7 9.8 182.3 8.7 M 179.3 2.8 C 180.6 4.7 176.8 2.7 179.3 2.8 C 179.3 2.8 179.3 2.8 179.3 2.8 Z M 176.5 3.6 C 176.4 3.7 176.4 3.7 176.5 3.6 C 176.5 3.6 176.5 3.6 176.5 3.6 Z M 185.6 3.8 C 185.5 3.8 185.5 3.8 185.6 3.8 C 185.6 3.8 185.6 3.8 185.6 3.8 Z M 183.7 3.9 C 183.0 4.3 182.7 3.5 183.7 3.9 C 183.7 3.9 183.7 3.9 183.7 3.9 Z M 197.0 9.7 C 196.2 10.1 196.0 9.3 197.0 9.7 C 197.0 9.7 197.0 9.7 197.0 9.7 Z M 180.9 4.5 C 180.6 6.4 179.6 3.3 180.9 4.5 C 180.9 4.5 180.9 4.5 180.9 4.5 Z M 190.7 8.9 C 191.5 8.4 192.4 10.6 190.7 8.9 M 210.3 2.0 C 211.1 1.5 212.0 3.7 210.3 2.0 M 191.0 1.5 C 191.8 1.0 192.7 3.2 191.0 1.5 M 168.3 2.5 C 168.5 2.8 168.5 2.8 168.3 2.5 M 179.0 10.4 C 180.3 9.8 179.7 11.2 179.0 10.4 M 160.8 9.8 C 162.1 9.1 161.4 10.7 160.8 9.8 M 207.6 10.4 C 207.5 9.9 209.5 10.6 207.6 10.4 M 193.3 4.4 C 195.0 4.6 196.7 5.6 193.1 5.5 C 192.9 5.1 194.0 4.8 193.3 4.4 C 193.3 4.4 193.3 4.4 193.3 4.4 Z M 199.3 8.5 C 199.6 8.7 199.6 8.7 199.3 8.5 M 196.3 2.7 C 196.5 2.9 196.5 2.9 196.3 2.7 M 206.2 2.9 C 206.4 3.1 206.4 3.1 206.2 2.9 M 207.4 2.4 C 207.4 2.4 207.4 2.4 207.4 2.4 C 207.4 2.4 207.4 2.4 207.4 2.4 Z M 218.3 1.6 C 218.2 1.7 218.2 1.7 218.3 1.6 C 218.3 1.6 218.3 1.6 218.3 1.6 Z M 203.0 3.1 C 203.0 3.2 203.0 3.2 203.0 3.1 C 203.0 3.1 203.0 3.1 203.0 3.1 Z M 212.0 10.1 C 212.0 10.1 212.0 10.1 212.0 10.1 C 212.0 10.1 212.0 10.1 212.0 10.1 Z M 210.8 9.0 C 210.8 9.0 210.8 9.0 210.8 9.0 C 210.8 9.0 210.8 9.0 210.8 9.0 Z M 162.7 2.0 C 164.1 0.8 163.5 5.2 162.7 2.0 M 215.6 9.0 C 217.1 10.2 213.1 9.2 215.6 9.0 C 215.6 9.0 215.6 9.0 215.6 9.0 Z M 201.8 4.6 C 202.0 4.9 202.0 4.9 201.8 4.6 M 208.0 2.5 C 208.2 2.8 208.2 2.8 208.0 2.5 M 179.2 1.2 C 179.4 1.4 179.4 1.4 179.2 1.2 M 215.6 2.9 C 220.3 3.3 213.6 5.5 215.6 2.9 M 177.1 2.9 C 177.0 2.7 177.0 2.7 177.1 2.9 M 187.5 6.3 C 190.6 6.2 186.4 7.3 187.5 6.3 M 195.4 4.0 C 195.3 4.1 195.3 4.1 195.4 4.0 C 195.4 4.0 195.4 4.0 195.4 4.0 Z M 190.8 4.0 C 188.5 4.2 190.2 3.5 190.8 4.0 C 190.8 4.0 190.8 4.0 190.8 4.0 Z M 164.8 3.7 C 167.7 4.0 161.8 4.3 164.8 3.7 C 164.8 3.7 164.8 3.7 164.8 3.7 Z M 213.5 7.1 C 213.4 7.2 213.4 7.2 213.5 7.1 C 213.5 7.1 213.5 7.1 213.5 7.1 Z M 202.4 1.8 C 201.1 2.3 201.8 1.3 202.4 1.8 C 202.4 1.8 202.4 1.8 202.4 1.8 Z M 219.9 1.6 C 218.5 2.1 219.2 1.1 219.9 1.6 C 219.9 1.6 219.9 1.6 219.9 1.6 Z M 161.3 3.4 C 172.0 6.4 147.0 2.6 161.3 3.4 C 161.3 3.4 161.3 3.4 161.3 3.4 Z M 192.6 2.8 C 192.6 2.9 192.6 2.9 192.6 2.8 C 192.6 2.8 192.6 2.8 192.6 2.8 Z M 172.9 1.5 C 172.8 1.6 172.8 1.6 172.9 1.5 C 172.9 1.5 172.9 1.5 172.9 1.5 Z M 169.5 3.2 C 169.5 3.3 169.5 3.3 169.5 3.2 C 169.5 3.2 169.5 3.2 169.5 3.2 Z M 170.5 10.3 C 170.4 10.4 170.4 10.4 170.5 10.3 C 170.5 10.3 170.5 10.3 170.5 10.3 Z M 171.6 7.0 C 171.5 7.2 171.5 7.2 171.6 7.0 C 171.6 7.0 171.6 7.0 171.6 7.0 Z M 164.7 8.2 C 164.6 8.4 164.6 8.4 164.7 8.2 C 164.7 8.2 164.7 8.2 164.7 8.2 Z M 164.9 9.2 C 164.8 9.3 164.8 9.3 164.9 9.2 C 164.9 9.2 164.9 9.2 164.9 9.2 Z M 208.0 4.5 C 207.9 4.7 207.9 4.7 208.0 4.5 C 208.0 4.5 208.0 4.5 208.0 4.5 Z M 204.3 7.5 C 206.8 6.4 203.6 9.0 204.3 7.5 C 204.3 7.5 204.3 7.5 204.3 7.5 Z M 182.2 6.1 C 184.5 5.7 180.8 7.0 182.2 6.1 C 182.2 6.1 182.2 6.1 182.2 6.1 Z M 184.7 9.9 C 184.8 9.9 184.8 9.9 184.7 9.9 C 184.7 9.9 184.7 9.9 184.7 9.9 Z M 169.5 1.4 C 169.5 1.6 169.5 1.6 169.5 1.4 C 169.5 1.4 169.5 1.4 169.5 1.4 Z M 165.3 2.7 C 165.2 4.2 164.0 1.9 165.3 2.7 M 186.5 1.8 C 186.5 2.0 186.5 2.0 186.5 1.8 C 186.5 1.8 186.5 1.8 186.5 1.8 Z M 199.9 4.1 C 199.9 4.3 199.9 4.3 199.9 4.1 C 199.9 4.1 199.9 4.1 199.9 4.1 Z M 213.2 3.2 C 213.2 3.4 213.2 3.4 213.2 3.2 C 213.2 3.2 213.2 3.2 213.2 3.2 Z M 194.9 2.0 C 194.8 2.2 194.8 2.2 194.9 2.0 C 194.9 2.0 194.9 2.0 194.9 2.0 Z M 188.5 3.4 C 188.4 3.6 188.4 3.6 188.5 3.4 C 188.5 3.4 188.5 3.4 188.5 3.4 Z M 216.2 5.3 C 216.0 5.4 216.0 5.4 216.2 5.3 C 216.2 5.3 216.2 5.3 216.2 5.3 Z M 196.3 1.8 C 196.3 1.8 196.3 1.8 196.3 1.8 C 196.3 1.8 196.3 1.8 196.3 1.8 Z M 200.2 6.5 C 200.1 6.7 200.1 6.7 200.2 6.5 C 200.2 6.5 200.2 6.5 200.2 6.5 Z M 165.9 0.5 C 165.9 0.6 165.9 0.6 165.9 0.5 C 165.9 0.5 165.9 0.5 165.9 0.5 Z M 216.3 3.3 C 216.2 3.4 216.2 3.4 216.3 3.3 C 216.3 3.3 216.3 3.3 216.3 3.3 Z M 217.1 2.0 C 217.0 2.0 217.0 2.0 217.1 2.0 C 217.1 2.0 217.1 2.0 217.1 2.0 Z M 207.7 9.1 C 203.0 8.2 211.9 8.8 208.5 7.1 C 215.2 6.7 208.7 9.1 207.7 9.1 C 207.7 9.1 207.7 9.1 207.7 9.1 Z M 207.7 9.1 " fill="#FEFFFE"></path></g></svg>