<?xml version="1.0" encoding="UTF-8" standalone="no"?><svg xmlns="http://www.w3.org/2000/svg" xmlns:xlink="http://www.w3.org/1999/xlink" clip-rule="evenodd" stroke-miterlimit="4.00" viewBox="0 0 198 13"><desc>SVG generated by Keynote</desc><defs></defs><g transform="matrix(1.00, 0.00, -0.00, -1.00, 0.0, 13.0)"><path d="M 23.4 4.2 C 23.0 4.5 21.8 4.1 21.4 4.3 M 23.4 4.2 C 22.2 2.3 20.1 2.2 17.1 1.9 C 13.9 1.8 17.2 3.6 16.9 4.3 C 12.7 5.1 12.7 3.7 13.3 1.8 C 11.7 3.1 6.9 0.7 7.9 3.2 C 14.6 3.2 3.2 3.8 8.8 5.2 C 9.5 5.6 7.8 6.3 7.2 6.3 C 9.1 7.3 5.9 8.5 8.9 9.2 C 9.3 10.8 8.7 10.1 10.6 11.3 C 11.5 11.5 11.1 10.9 11.0 10.6 C 11.3 8.8 13.3 11.6 14.9 10.5 C 16.3 12.9 17.8 10.0 16.5 9.0 C 17.9 9.3 19.6 11.8 21.0 10.1 C 21.8 11.3 25.6 10.5 23.4 9.0 C 21.7 8.0 23.6 7.3 23.8 6.8 C 23.2 6.2 20.9 7.0 20.6 6.5 C 21.3 6.2 24.3 5.3 21.1 5.4 C 22.1 4.6 20.5 4.1 23.4 4.2 C 23.4 4.2 23.4 4.2 23.4 4.2 Z M 12.1 2.8 C 12.1 2.2 13.2 2.8 12.1 2.8 C 12.1 2.8 12.1 2.8 12.1 2.8 Z M 19.8 11.3 C 19.8 10.7 20.9 11.3 19.8 11.3 C 19.8 11.3 19.8 11.3 19.8 11.3 Z M 11.6 10.6 C 11.5 10.0 12.7 10.6 11.6 10.6 C 11.6 10.6 11.6 10.6 11.6 10.6 Z M 15.1 3.2 C 16.9 3.8 13.6 4.1 13.3 3.5 C 13.7 3.6 14.6 2.7 15.1 3.2 C 15.1 3.2 15.1 3.2 15.1 3.2 Z M 15.3 6.9 C 15.5 6.7 16.2 6.6 16.1 7.2 C 15.6 7.4 15.2 7.1 15.3 6.9 C 15.3 6.9 15.3 6.9 15.3 6.9 Z M 6.5 4.3 C 6.6 4.1 7.4 4.0 7.3 4.6 C 6.8 4.8 6.4 4.5 6.5 4.3 C 6.5 4.3 6.5 4.3 6.5 4.3 Z M 17.1 4.9 C 17.5 5.0 17.7 5.6 17.2 5.7 C 16.9 5.4 15.7 5.3 17.1 4.9 C 17.1 4.9 17.1 4.9 17.1 4.9 Z M 19.9 2.8 C 21.4 3.1 18.4 4.1 18.4 3.8 C 17.9 3.3 19.1 2.3 19.9 2.8 C 19.9 2.8 19.9 2.8 19.9 2.8 Z M 18.0 5.8 C 19.2 6.1 17.4 6.2 18.0 5.8 C 18.0 5.8 18.0 5.8 18.0 5.8 Z M 7.7 9.0 C 8.9 9.3 7.2 9.5 7.7 9.0 C 7.7 9.0 7.7 9.0 7.7 9.0 Z M 14.2 11.0 C 15.4 11.3 13.7 11.4 14.2 11.0 C 14.2 11.0 14.2 11.0 14.2 11.0 Z M 11.8 4.5 C 9.6 4.4 11.5 2.9 11.8 4.5 C 11.8 4.5 11.8 4.5 11.8 4.5 Z M 23.3 2.6 C 21.2 2.6 23.0 1.0 23.3 2.6 C 23.3 2.6 23.3 2.6 23.3 2.6 Z M 188.3 3.2 C 190.2 2.9 182.5 0.8 185.4 3.3 C 186.3 5.3 181.1 5.2 182.4 3.2 C 180.9 3.0 180.9 2.9 180.0 3.9 C 179.8 2.4 176.1 1.6 174.9 2.4 C 174.1 3.7 177.3 2.5 175.2 3.9 C 170.7 4.3 175.5 5.3 173.8 7.1 C 173.6 7.1 173.5 6.2 173.1 6.7 C 173.0 8.3 175.6 9.4 174.4 10.5 C 175.1 10.3 178.3 12.0 177.0 10.7 C 176.5 9.2 180.6 12.5 180.3 10.0 C 181.3 11.1 182.5 9.6 183.5 11.0 C 184.3 11.2 184.3 9.9 184.2 9.6 C 184.1 8.5 185.2 12.2 186.5 10.2 C 186.6 10.8 190.2 10.5 187.5 9.6 C 188.3 9.8 192.5 10.4 190.2 8.2 C 187.3 7.1 193.3 5.9 189.8 5.8 C 187.2 5.5 186.7 6.0 188.6 4.8 C 189.2 4.9 192.3 4.7 189.7 3.7 C 189.1 4.0 187.9 3.8 188.3 3.2 C 188.3 3.2 188.3 3.2 188.3 3.2 Z M 188.8 6.5 C 187.3 6.5 188.7 5.6 188.8 6.5 C 188.8 6.5 188.8 6.5 188.8 6.5 Z M 183.3 11.4 C 181.8 11.6 183.2 10.6 183.3 11.4 C 183.3 11.4 183.3 11.4 183.3 11.4 Z M 183.5 2.7 C 182.7 3.3 182.5 1.0 183.5 2.7 C 183.5 2.7 183.5 2.7 183.5 2.7 Z M 185.8 9.6 C 185.7 9.6 186.1 9.3 186.4 9.2 C 186.3 9.3 186.0 9.6 185.8 9.6 C 185.8 9.6 185.8 9.6 185.8 9.6 Z M 180.9 2.7 C 178.7 3.8 180.5 0.9 180.9 2.7 C 180.9 2.7 180.9 2.7 180.9 2.7 Z M 176.3 4.8 C 176.1 7.1 174.0 4.4 176.3 4.8 C 176.3 4.8 176.3 4.8 176.3 4.8 Z M 179.5 9.8 C 179.9 9.4 179.9 10.1 179.5 9.8 C 179.5 9.8 179.5 9.8 179.5 9.8 Z M 189.4 10.2 C 189.8 9.7 189.8 10.5 189.4 10.2 C 189.4 10.2 189.4 10.2 189.4 10.2 Z M 176.7 9.6 C 176.9 8.8 177.5 10.1 176.7 9.6 C 176.7 9.6 176.7 9.6 176.7 9.6 Z M 183.1 3.6 C 185.1 1.7 185.6 6.2 183.1 3.6 C 183.1 3.6 183.1 3.6 183.1 3.6 Z M 186.8 3.4 C 188.2 3.0 186.5 4.5 185.9 4.2 C 186.0 4.1 186.6 3.5 186.8 3.4 C 186.8 3.4 186.8 3.4 186.8 3.4 Z M 180.9 3.8 C 182.3 2.9 182.2 4.3 180.9 3.8 C 180.9 3.8 180.9 3.8 180.9 3.8 Z M 184.5 2.8 C 185.2 3.0 183.9 3.0 184.5 2.8 C 184.5 2.8 184.5 2.8 184.5 2.8 Z M 178.1 1.9 C 178.8 2.1 177.5 2.1 178.1 1.9 C 178.1 1.9 178.1 1.9 178.1 1.9 Z M 188.5 2.5 C 189.2 2.7 187.9 2.7 188.5 2.5 C 188.5 2.5 188.5 2.5 188.5 2.5 Z M 178.7 3.1 C 178.4 3.9 180.4 5.7 176.8 4.2 C 176.2 3.6 177.7 2.4 178.7 3.1 C 178.7 3.1 178.7 3.1 178.7 3.1 Z M 28.0 4.2 C 21.2 1.7 22.8 6.2 22.5 7.0 C 21.6 8.2 22.5 9.0 23.8 9.8 C 25.3 12.7 26.0 6.9 27.1 9.7 C 28.9 13.5 29.2 6.4 29.9 10.4 C 29.7 11.5 32.3 10.6 32.1 10.4 C 33.4 12.3 35.3 8.9 35.4 8.5 C 36.3 9.0 36.3 12.6 39.1 9.9 C 41.2 9.0 42.2 12.5 41.6 10.1 C 43.2 12.8 42.7 9.3 44.3 10.2 C 45.4 11.7 44.3 7.9 46.3 10.8 C 47.1 8.5 45.4 12.3 50.7 10.6 C 48.1 10.5 53.1 8.8 52.1 10.4 C 50.3 12.0 54.6 9.7 57.0 10.7 C 57.7 9.9 60.6 7.8 60.1 10.1 C 62.6 12.7 62.6 8.5 63.7 10.6 C 64.5 11.6 64.8 9.6 65.4 9.8 C 66.3 11.4 67.1 10.3 70.1 10.8 C 76.9 11.6 71.2 6.6 73.8 6.0 C 74.2 5.3 70.4 -0.1 71.9 3.9 C 71.4 2.8 65.9 7.0 68.6 2.6 C 66.5 4.3 69.1 0.8 64.8 2.9 C 70.7 6.0 58.3 4.1 63.8 2.6 C 62.9 1.7 60.6 1.9 62.3 2.6 C 62.9 5.5 58.3 1.3 60.6 4.8 C 57.0 3.8 57.9 6.9 57.0 4.7 C 56.1 1.1 57.1 5.7 55.3 4.6 C 51.1 4.6 54.4 0.4 51.8 3.2 C 47.7 1.3 50.9 4.8 49.5 5.3 C 49.1 7.8 45.3 3.3 48.4 2.9 C 46.8 4.3 48.1 1.7 46.3 3.3 C 47.6 5.7 43.8 0.8 44.4 2.7 C 42.7 3.3 43.6 4.7 43.0 4.8 C 40.5 4.8 41.3 2.5 40.8 4.2 C 40.2 5.2 39.0 2.1 38.7 2.9 C 41.3 3.0 36.6 5.4 36.3 4.1 C 37.9 3.9 35.5 1.0 34.5 2.9 C 35.8 8.0 32.2 1.5 31.1 3.4 C 32.2 6.2 25.4 3.7 28.0 2.4 C 27.8 2.6 28.1 4.3 28.0 4.2 M 38.0 3.3 C 40.1 3.5 35.7 3.9 38.0 3.3 M 37.9 2.5 C 38.8 3.5 35.9 1.8 38.0 2.2 C 38.0 2.2 37.7 2.5 37.9 2.5 M 46.6 2.4 C 46.4 3.2 45.5 2.0 46.6 2.4 M 48.3 4.2 C 49.7 5.0 46.4 4.4 48.3 4.2 M 67.8 3.6 C 65.8 7.9 65.7 1.2 67.8 3.6 M 54.9 2.8 C 52.5 3.4 55.7 1.0 54.9 2.8 M 54.2 3.9 C 53.1 4.5 54.0 2.9 54.2 3.9 M 64.1 3.7 C 64.2 3.7 64.2 3.7 64.1 3.7 C 64.1 3.7 64.1 3.7 64.1 3.7 Z M 69.8 3.8 C 69.9 3.7 69.9 3.7 69.8 3.8 C 69.8 3.8 69.8 3.8 69.8 3.8 Z M 58.5 4.1 C 56.7 3.1 61.4 3.7 58.5 4.1 C 58.5 4.1 58.5 4.1 58.5 4.1 Z M 67.1 10.3 C 67.0 10.3 67.0 10.3 67.1 10.3 C 67.1 10.3 67.1 10.3 67.1 10.3 Z M 36.3 5.2 C 36.2 5.3 36.2 5.3 36.3 5.2 C 36.3 5.2 36.3 5.2 36.3 5.2 Z M 29.7 3.6 C 29.8 4.2 28.5 3.2 29.7 3.6 C 29.7 3.6 29.7 3.6 29.7 3.6 Z M 24.4 8.5 C 24.4 8.6 24.4 8.6 24.4 8.5 C 24.4 8.5 24.4 8.5 24.4 8.5 Z M 34.1 7.5 C 34.0 7.6 34.0 7.6 34.1 7.5 C 34.1 7.5 34.1 7.5 34.1 7.5 Z M 35.0 4.3 C 34.0 2.0 37.5 5.0 35.0 4.3 C 35.0 4.3 35.0 4.3 35.0 4.3 Z M 56.3 10.0 C 56.3 9.0 57.8 10.4 56.3 10.0 C 56.3 10.0 56.3 10.0 56.3 10.0 Z M 48.6 5.2 C 48.9 4.6 49.6 5.4 48.6 5.2 C 48.6 5.2 48.6 5.2 48.6 5.2 Z M 45.0 2.0 C 45.3 1.4 45.9 2.2 45.0 2.0 C 45.0 2.0 45.0 2.0 45.0 2.0 Z M 29.8 3.0 C 30.0 2.8 30.0 2.8 29.8 3.0 C 29.8 3.0 29.8 3.0 29.8 3.0 Z M 32.2 4.8 C 30.6 2.6 34.7 6.0 32.2 4.8 C 32.2 4.8 32.2 4.8 32.2 4.8 Z M 29.4 5.4 C 30.3 6.3 27.3 5.0 29.4 5.4 M 31.0 8.8 C 33.0 7.9 29.2 12.8 31.0 8.8 C 31.0 8.8 31.0 8.8 31.0 8.8 Z M 41.1 9.7 C 41.2 9.8 41.2 9.8 41.1 9.7 C 41.1 9.7 41.1 9.7 41.1 9.7 Z M 40.0 3.2 C 41.8 3.3 38.9 3.7 40.0 3.2 C 40.0 3.2 40.0 3.2 40.0 3.2 Z M 24.8 2.7 C 26.6 2.8 23.7 3.3 24.8 2.7 C 24.8 2.7 24.8 2.7 24.8 2.7 Z M 47.0 7.5 C 49.8 7.2 45.2 8.7 47.0 7.5 C 47.0 7.5 47.0 7.5 47.0 7.5 Z M 57.5 5.0 C 57.6 5.0 57.6 5.0 57.5 5.0 C 57.5 5.0 57.5 5.0 57.5 5.0 Z M 59.4 4.0 C 59.5 4.1 59.5 4.1 59.4 4.0 C 59.4 4.0 59.4 4.0 59.4 4.0 Z M 67.6 6.3 C 67.7 6.4 67.7 6.4 67.6 6.3 C 67.6 6.3 67.6 6.3 67.6 6.3 Z M 61.2 3.0 C 61.3 3.0 61.3 3.0 61.2 3.0 C 61.2 3.0 61.2 3.0 61.2 3.0 Z M 66.9 3.6 C 67.0 3.6 67.0 3.6 66.9 3.6 C 66.9 3.6 66.9 3.6 66.9 3.6 Z M 66.1 1.7 C 66.2 1.7 66.2 1.7 66.1 1.7 C 66.1 1.7 66.1 1.7 66.1 1.7 Z M 53.5 11.3 C 53.6 11.4 53.6 11.4 53.5 11.3 C 53.5 11.3 53.5 11.3 53.5 11.3 Z M 32.9 2.3 C 33.1 2.4 33.1 2.4 32.9 2.3 C 32.9 2.3 32.9 2.3 32.9 2.3 Z M 66.4 4.4 C 66.5 4.5 66.5 4.5 66.4 4.4 C 66.4 4.4 66.4 4.4 66.4 4.4 Z M 52.6 6.2 C 52.7 8.1 51.4 3.7 53.0 6.1 C 52.9 6.2 52.5 5.9 52.6 6.2 M 54.5 9.3 C 54.4 9.4 54.4 9.4 54.5 9.3 C 54.5 9.3 54.5 9.3 54.5 9.3 Z M 48.2 10.5 C 48.1 10.5 48.1 10.5 48.2 10.5 C 48.2 10.5 48.2 10.5 48.2 10.5 Z M 60.2 2.6 C 60.0 1.6 61.8 3.4 60.0 2.7 M 67.6 9.6 C 67.4 8.6 69.2 10.4 67.4 9.7 M 22.8 3.4 C 22.6 4.3 21.7 3.0 22.8 3.4 M 46.8 11.4 C 46.6 12.3 45.7 11.0 46.8 11.4 M 49.7 9.1 C 49.5 8.0 51.3 9.9 49.5 9.1 M 63.4 9.5 C 63.5 9.6 63.5 9.6 63.4 9.5 C 63.4 9.5 63.4 9.5 63.4 9.5 Z M 42.7 3.4 C 42.8 3.5 42.8 3.5 42.7 3.4 C 42.7 3.4 42.7 3.4 42.7 3.4 Z M 50.3 5.7 C 49.3 4.2 51.7 6.6 50.3 5.7 M 40.5 5.9 C 39.0 4.2 42.9 6.5 40.5 5.9 M 70.9 10.1 C 69.2 7.9 72.1 11.2 70.9 10.1 M 62.5 4.6 C 60.8 2.5 63.8 5.8 62.5 4.6 M 44.2 4.3 C 44.1 3.2 45.9 5.0 44.2 4.3 M 26.8 3.3 C 25.2 3.1 28.9 2.4 26.8 3.3 M 59.2 9.6 C 59.3 9.7 59.3 9.7 59.2 9.6 C 59.2 9.6 59.2 9.6 59.2 9.6 Z M 32.1 11.5 C 32.2 11.6 32.2 11.6 32.1 11.5 C 32.1 11.5 32.1 11.5 32.1 11.5 Z M 73.1 3.0 C 73.2 3.0 73.2 3.0 73.1 3.0 C 73.1 3.0 73.1 3.0 73.1 3.0 Z M 61.5 5.6 C 61.5 5.8 61.5 5.8 61.5 5.6 C 61.5 5.6 61.5 5.6 61.5 5.6 Z M 69.8 2.7 C 69.9 2.8 69.9 2.8 69.8 2.7 C 69.8 2.7 69.8 2.7 69.8 2.7 Z M 56.2 7.3 C 56.2 7.4 56.2 7.4 56.2 7.3 C 56.2 7.3 56.2 7.3 56.2 7.3 Z M 55.1 1.8 C 55.2 1.9 55.2 1.9 55.1 1.8 C 55.1 1.8 55.1 1.8 55.1 1.8 Z M 49.4 4.2 C 49.4 4.2 49.4 4.2 49.4 4.2 C 49.4 4.2 49.4 4.2 49.4 4.2 Z M 57.8 2.3 C 61.2 1.9 56.0 4.1 57.8 2.3 C 57.8 2.3 57.8 2.3 57.8 2.3 Z M 51.8 7.7 C 51.8 7.8 51.8 7.8 51.8 7.7 C 51.8 7.7 51.8 7.7 51.8 7.7 Z M 51.3 3.9 C 53.5 2.3 52.5 6.5 51.3 3.9 M 41.7 2.6 C 42.4 1.7 42.0 3.9 41.7 2.6 M 37.9 9.8 C 37.8 9.9 37.8 9.9 37.9 9.8 C 37.9 9.8 37.9 9.8 37.9 9.8 Z M 38.9 9.2 C 39.0 9.3 39.0 9.3 38.9 9.2 C 38.9 9.2 38.9 9.2 38.9 9.2 Z M 39.3 2.2 C 39.4 2.3 39.4 2.3 39.3 2.2 C 39.3 2.2 39.3 2.2 39.3 2.2 Z M 39.0 11.3 C 39.1 11.3 39.1 11.3 39.0 11.3 C 39.0 11.3 39.0 11.3 39.0 11.3 Z M 53.8 2.0 C 53.9 2.0 53.9 2.0 53.8 2.0 C 53.8 2.0 53.8 2.0 53.8 2.0 Z M 71.5 1.9 C 71.6 1.9 71.6 1.9 71.5 1.9 C 71.5 1.9 71.5 1.9 71.5 1.9 Z M 27.3 9.0 C 27.4 9.1 27.4 9.1 27.3 9.0 C 27.3 9.0 27.3 9.0 27.3 9.0 Z M 55.7 4.1 C 55.7 4.2 55.7 4.2 55.7 4.1 C 55.7 4.1 55.7 4.1 55.7 4.1 Z M 35.4 9.5 C 35.4 9.5 35.4 9.5 35.4 9.5 C 35.4 9.5 35.4 9.5 35.4 9.5 Z M 54.5 3.7 C 54.6 3.7 54.6 3.7 54.5 3.7 C 54.5 3.7 54.5 3.7 54.5 3.7 Z M 58.7 10.1 C 58.7 10.1 58.7 10.1 58.7 10.1 C 58.7 10.1 58.7 10.1 58.7 10.1 Z M 62.5 11.3 C 62.5 11.3 62.5 11.3 62.5 11.3 C 62.5 11.3 62.5 11.3 62.5 11.3 Z M 58.4 6.2 C 58.5 6.3 58.5 6.3 58.4 6.2 C 58.4 6.2 58.4 6.2 58.4 6.2 Z M 34.1 7.1 C 27.1 5.2 39.6 6.2 34.1 7.1 M 59.6 6.7 C 54.7 6.3 63.5 4.5 59.6 6.7 C 60.1 6.1 59.7 6.6 59.6 6.7 M 74.8 2.1 C 72.8 4.1 72.8 6.0 73.7 8.1 C 74.6 9.2 74.6 5.1 74.7 8.5 C 72.4 9.2 75.7 13.7 75.6 9.3 C 78.6 8.6 76.1 12.1 77.9 10.3 C 81.1 9.9 79.4 11.2 81.9 10.9 C 83.4 8.5 83.4 12.1 84.0 9.8 C 82.8 12.3 86.6 9.1 86.7 10.3 C 84.5 11.8 95.3 10.3 89.4 9.6 C 91.8 8.4 91.3 10.5 92.2 10.8 C 93.2 9.3 96.1 11.9 97.6 10.5 C 97.3 10.2 96.6 10.1 96.3 9.6 C 95.9 8.6 98.0 9.8 97.8 9.7 C 98.8 9.2 102.6 7.7 98.5 10.3 C 98.3 11.5 101.9 9.7 101.7 10.8 C 105.3 10.9 102.6 8.4 104.2 10.2 C 106.8 10.3 108.6 10.3 108.6 10.0 C 110.2 10.2 110.5 11.6 111.9 10.3 C 115.0 12.9 114.1 5.2 115.3 10.4 C 116.2 9.2 117.1 12.5 116.9 9.3 C 115.9 10.8 122.3 11.8 119.5 9.5 C 120.2 8.7 124.3 12.8 123.7 9.5 C 125.2 7.2 124.9 4.8 121.8 2.6 C 122.1 4.4 118.4 0.7 120.8 3.8 C 123.5 4.9 115.8 4.9 117.4 3.8 C 117.8 0.0 113.7 6.2 112.1 3.5 C 113.4 5.0 107.2 5.7 109.0 2.9 C 107.8 2.7 107.6 4.0 106.3 2.4 C 110.0 2.6 104.9 5.3 105.1 3.6 C 105.7 2.5 100.2 1.7 100.7 3.3 C 102.7 7.2 99.3 2.5 98.3 4.0 C 95.3 4.8 98.8 0.7 96.5 3.5 C 95.9 3.0 91.8 3.0 94.4 2.2 C 95.4 2.6 92.0 6.5 91.5 3.2 C 95.9 1.3 86.5 2.2 88.0 3.2 C 94.7 5.0 80.9 5.2 86.1 3.4 C 83.1 1.6 87.0 2.7 83.3 3.5 C 83.8 4.5 80.9 5.5 81.6 3.5 C 81.0 0.3 80.6 7.7 78.3 3.3 C 78.0 1.5 73.8 4.7 75.4 2.6 C 75.5 2.4 74.9 2.1 74.8 2.1 M 76.1 2.4 C 75.6 3.1 75.3 1.6 76.1 2.4 M 75.6 3.1 C 75.5 3.1 75.5 3.1 75.6 3.1 C 75.6 3.1 75.6 3.1 75.6 3.1 Z M 82.8 3.6 C 82.7 3.5 82.7 3.5 82.8 3.6 C 82.8 3.6 82.8 3.6 82.8 3.6 Z M 88.4 11.5 C 88.4 11.4 88.4 11.4 88.4 11.5 C 88.4 11.5 88.4 11.5 88.4 11.5 Z M 87.6 3.8 C 87.5 3.8 87.5 3.8 87.6 3.8 C 87.6 3.8 87.6 3.8 87.6 3.8 Z M 80.2 4.1 C 80.1 4.1 80.1 4.1 80.2 4.1 C 80.2 4.1 80.2 4.1 80.2 4.1 Z M 87.1 2.6 C 87.5 3.8 85.4 1.8 87.2 2.5 C 87.3 2.5 86.9 2.5 87.1 2.6 M 93.4 2.2 C 93.4 2.3 93.4 2.3 93.4 2.2 M 107.1 11.4 C 107.2 11.6 107.2 11.6 107.1 11.4 M 108.3 2.1 C 108.4 2.2 108.4 2.2 108.3 2.1 M 99.6 3.4 C 101.5 3.2 100.0 4.0 99.6 3.4 M 113.3 2.7 C 110.9 2.0 115.9 2.1 113.3 2.7 M 115.6 2.0 C 115.8 2.2 115.8 2.2 115.6 2.0 M 104.8 2.5 C 104.7 2.6 104.7 2.6 104.8 2.5 C 104.8 2.5 104.8 2.5 104.8 2.5 Z M 98.8 2.9 C 96.3 2.2 101.3 1.8 98.8 2.9 M 83.6 2.5 C 85.0 1.9 83.6 4.0 83.6 2.5 M 80.8 3.1 C 80.8 3.2 80.8 3.2 80.8 3.1 C 80.8 3.1 80.8 3.1 80.8 3.1 Z M 109.4 2.7 C 109.3 2.7 109.3 2.7 109.4 2.7 C 109.4 2.7 109.4 2.7 109.4 2.7 Z M 112.2 2.5 C 112.1 2.5 112.1 2.5 112.2 2.5 C 112.2 2.5 112.2 2.5 112.2 2.5 Z M 116.8 11.1 C 116.7 11.2 116.7 11.2 116.8 11.1 C 116.8 11.1 116.8 11.1 116.8 11.1 Z M 82.9 6.8 C 81.0 6.1 84.8 3.9 84.4 6.0 C 84.6 6.9 83.1 6.5 82.9 6.8 M 96.9 5.5 C 97.4 8.5 95.1 1.5 96.9 5.5 M 116.0 4.0 C 117.8 7.5 113.6 1.5 116.0 4.0 M 119.7 3.4 C 120.9 4.1 112.7 3.8 118.4 2.9 C 119.0 2.3 119.4 3.0 119.7 3.4 M 93.4 3.6 C 94.0 5.2 90.5 2.9 93.4 3.6 M 104.9 8.5 C 105.8 7.5 108.2 6.5 107.2 8.3 C 107.1 10.6 103.8 9.4 104.9 8.5 M 76.7 4.1 C 78.2 1.5 76.6 6.3 76.7 4.1 M 84.0 4.3 C 84.0 4.2 84.0 4.2 84.0 4.3 C 84.0 4.3 84.0 4.3 84.0 4.3 Z M 86.8 3.9 C 87.0 4.1 87.0 4.1 86.8 3.9 M 77.9 1.8 C 78.0 2.0 78.0 2.0 77.9 1.8 M 104.9 5.8 C 105.0 6.0 105.0 6.0 104.9 5.8 M 99.0 4.0 C 101.8 6.6 97.5 4.6 99.0 4.0 M 92.2 9.0 C 93.0 10.3 90.4 9.1 92.2 9.0 M 103.6 3.1 C 105.6 5.5 100.9 5.4 103.6 3.1 M 97.6 3.8 C 97.8 3.8 97.8 3.8 97.6 3.8 C 97.6 3.8 97.6 3.8 97.6 3.8 Z M 105.7 8.8 C 105.6 8.8 105.6 8.8 105.7 8.8 C 105.7 8.8 105.7 8.8 105.7 8.8 Z M 106.5 8.7 C 106.4 8.7 106.4 8.7 106.5 8.7 C 106.5 8.7 106.5 8.7 106.5 8.7 Z M 106.1 2.8 C 106.0 2.8 106.0 2.8 106.1 2.8 C 106.1 2.8 106.1 2.8 106.1 2.8 Z M 80.6 9.9 C 82.6 10.1 79.0 10.3 80.6 9.9 C 80.6 9.9 80.6 9.9 80.6 9.9 Z M 89.4 2.7 C 92.7 4.6 87.1 4.5 89.4 2.7 C 89.4 2.7 89.4 2.7 89.4 2.7 Z M 93.1 5.9 C 93.1 6.0 93.1 6.0 93.1 5.9 C 93.1 5.9 93.1 5.9 93.1 5.9 Z M 102.3 1.5 C 102.3 1.7 102.3 1.7 102.3 1.5 C 102.3 1.5 102.3 1.5 102.3 1.5 Z M 81.6 10.2 C 81.6 10.4 81.6 10.4 81.6 10.2 C 81.6 10.2 81.6 10.2 81.6 10.2 Z M 111.7 4.1 C 111.7 4.3 111.7 4.3 111.7 4.1 C 111.7 4.1 111.7 4.1 111.7 4.1 Z M 100.3 9.2 C 101.0 8.2 100.4 9.9 100.3 9.2 C 100.3 9.2 100.3 9.2 100.3 9.2 Z M 103.3 9.2 C 103.3 9.2 103.3 9.2 103.3 9.2 C 103.3 9.2 103.3 9.2 103.3 9.2 Z M 116.4 1.9 C 116.4 1.8 116.4 1.8 116.4 1.9 C 116.4 1.9 116.4 1.9 116.4 1.9 Z M 110.8 11.5 C 110.9 11.5 110.9 11.5 110.8 11.5 C 110.8 11.5 110.8 11.5 110.8 11.5 Z M 113.3 8.6 C 113.3 8.7 113.3 8.7 113.3 8.6 C 113.3 8.6 113.3 8.6 113.3 8.6 Z M 105.5 3.4 C 108.5 2.9 104.8 4.5 105.5 3.4 C 105.5 3.4 105.5 3.4 105.5 3.4 Z M 120.6 7.8 C 120.7 8.0 120.7 8.0 120.6 7.8 C 120.6 7.8 120.6 7.8 120.6 7.8 Z M 122.1 4.5 C 122.2 4.6 122.2 4.6 122.1 4.5 C 122.1 4.5 122.1 4.5 122.1 4.5 Z M 122.9 2.7 C 123.0 2.8 123.0 2.8 122.9 2.7 C 122.9 2.7 122.9 2.7 122.9 2.7 Z M 86.8 7.5 C 86.7 7.4 86.7 7.4 86.8 7.5 C 86.8 7.5 86.8 7.5 86.8 7.5 Z M 85.6 2.1 C 85.6 2.0 85.6 2.0 85.6 2.1 C 85.6 2.1 85.6 2.1 85.6 2.1 Z M 89.6 1.8 C 89.6 1.8 89.6 1.8 89.6 1.8 C 89.6 1.8 89.6 1.8 89.6 1.8 Z M 86.1 10.8 C 86.0 10.8 86.0 10.8 86.1 10.8 C 86.1 10.8 86.1 10.8 86.1 10.8 Z M 101.1 6.2 C 101.0 6.1 101.0 6.1 101.1 6.2 C 101.1 6.2 101.1 6.2 101.1 6.2 Z M 102.5 8.4 C 102.4 8.3 102.4 8.3 102.5 8.4 C 102.5 8.4 102.5 8.4 102.5 8.4 Z M 99.0 11.3 C 99.0 11.3 99.0 11.3 99.0 11.3 C 99.0 11.3 99.0 11.3 99.0 11.3 Z M 103.6 10.3 C 103.6 10.3 103.6 10.3 103.6 10.3 C 103.6 10.3 103.6 10.3 103.6 10.3 Z M 76.0 9.8 C 76.0 9.9 76.0 9.9 76.0 9.8 C 76.0 9.8 76.0 9.8 76.0 9.8 Z M 75.7 5.6 C 75.6 5.8 75.6 5.8 75.7 5.6 C 75.7 5.6 75.7 5.6 75.7 5.6 Z M 101.6 3.1 C 102.2 2.3 102.9 4.3 101.6 3.1 M 95.8 3.7 C 95.8 3.8 95.8 3.8 95.8 3.7 C 95.8 3.7 95.8 3.7 95.8 3.7 Z M 111.2 3.3 C 111.9 5.0 108.5 2.5 111.2 3.3 C 111.2 3.3 111.2 3.3 111.2 3.3 Z M 108.2 10.3 C 108.2 10.3 108.2 10.3 108.2 10.3 C 108.2 10.3 108.2 10.3 108.2 10.3 Z M 109.7 9.6 C 109.8 9.8 109.8 9.8 109.7 9.6 C 109.7 9.6 109.7 9.6 109.7 9.6 Z M 118.0 5.1 C 118.1 5.2 118.1 5.2 118.0 5.1 M 95.1 2.2 C 96.0 2.9 95.8 2.8 95.1 2.2 M 113.1 3.4 C 113.1 3.4 113.1 3.4 113.1 3.4 C 113.1 3.4 113.1 3.4 113.1 3.4 Z M 119.8 4.1 C 119.7 4.2 119.7 4.2 119.8 4.1 C 119.8 4.1 119.8 4.1 119.8 4.1 Z M 91.0 3.3 C 91.2 5.3 90.4 4.9 91.0 3.3 M 79.6 4.0 C 79.6 4.1 79.6 4.1 79.6 4.0 C 79.6 4.0 79.6 4.0 79.6 4.0 Z M 128.9 2.7 C 125.8 0.5 125.8 3.6 125.8 3.7 C 126.1 -0.5 123.0 5.4 123.6 6.2 C 123.5 6.8 125.9 14.2 128.1 9.7 C 128.7 9.1 129.0 10.5 129.5 10.6 C 133.3 10.4 126.8 8.3 131.5 8.3 C 132.3 8.9 131.4 12.4 134.1 9.9 C 134.2 10.3 137.3 11.6 136.1 10.0 C 137.6 11.6 138.6 9.6 139.9 9.3 C 141.2 10.2 138.9 11.8 143.4 9.9 C 145.3 12.8 146.0 7.7 147.7 10.9 C 148.8 11.0 150.5 5.7 147.9 8.7 C 148.3 8.4 146.7 5.9 150.2 6.8 C 149.7 7.4 147.8 12.8 153.3 10.3 C 154.2 10.4 156.3 9.0 156.8 9.6 C 154.0 10.2 160.7 11.9 160.0 10.3 C 164.5 11.4 161.9 9.0 165.1 10.8 C 167.8 10.9 164.3 8.4 167.5 9.8 C 170.0 9.5 168.3 10.9 168.1 10.8 C 170.2 11.1 171.0 10.1 171.7 10.1 C 172.2 10.4 173.2 11.5 173.7 10.2 C 175.9 7.7 173.9 5.3 174.9 2.9 C 173.2 1.7 174.1 4.7 173.0 2.9 C 172.2 4.4 172.9 2.8 168.4 3.1 C 168.5 3.5 169.6 4.5 168.5 4.7 C 166.8 4.5 168.0 0.3 165.1 3.3 C 168.5 4.2 160.3 4.6 163.5 5.5 C 159.6 6.0 162.4 5.1 159.5 4.1 C 159.7 6.9 159.3 1.2 158.2 3.4 C 157.9 2.2 153.4 2.8 156.7 4.4 C 152.0 5.2 154.9 3.6 153.3 2.1 C 151.1 2.0 153.1 6.7 151.8 3.2 C 149.0 1.7 151.7 4.9 149.6 2.3 C 150.5 4.6 147.6 2.2 148.3 4.8 C 143.5 5.0 148.9 2.1 145.6 3.9 C 146.6 4.0 146.2 0.5 144.1 2.7 C 145.0 6.8 141.4 -0.9 142.9 4.6 C 136.2 6.1 141.8 2.3 138.1 2.3 C 137.2 2.3 139.1 4.1 138.3 4.1 C 133.6 3.3 137.5 1.9 135.0 4.6 C 130.3 5.3 133.7 2.3 131.4 2.1 C 131.2 3.4 129.3 5.5 128.9 2.7 M 133.1 4.0 C 134.0 3.2 133.7 4.9 133.1 4.0 M 123.7 2.7 C 124.6 1.9 124.2 3.6 123.7 2.7 M 136.9 3.2 C 138.2 2.3 137.3 4.6 136.9 3.2 M 162.1 4.5 C 160.4 4.5 162.9 3.8 162.1 4.5 M 127.4 2.6 C 128.8 1.5 127.8 4.0 127.4 2.6 M 125.7 4.7 C 125.8 4.7 125.8 4.7 125.7 4.7 M 164.6 2.3 C 164.7 2.4 164.7 2.4 164.6 2.3 M 157.9 2.3 C 159.3 2.3 157.1 2.8 157.9 2.3 M 157.6 11.2 C 159.1 11.3 156.8 11.8 157.6 11.2 M 168.3 2.2 C 169.7 1.5 168.7 3.2 168.3 2.2 M 172.1 4.2 C 173.4 3.4 172.9 5.1 172.1 4.2 M 132.2 7.1 C 132.2 7.2 132.2 7.2 132.2 7.1 C 132.2 7.1 132.2 7.1 132.2 7.1 Z M 144.6 9.3 C 143.1 8.5 146.4 10.5 144.6 9.3 M 142.3 3.5 C 143.3 5.3 140.4 3.4 142.3 3.5 C 142.3 3.5 142.3 3.5 142.3 3.5 Z M 140.1 4.3 C 140.1 4.4 140.1 4.4 140.1 4.3 C 140.1 4.3 140.1 4.3 140.1 4.3 Z M 147.1 4.4 C 147.1 4.4 147.1 4.4 147.1 4.4 C 147.1 4.4 147.1 4.4 147.1 4.4 Z M 145.7 4.6 C 145.1 5.0 144.9 4.2 145.7 4.6 C 145.7 4.6 145.7 4.6 145.7 4.6 Z M 155.9 10.3 C 155.3 10.7 155.1 10.0 155.9 10.3 C 155.9 10.3 155.9 10.3 155.9 10.3 Z M 143.5 5.2 C 143.3 7.0 142.5 4.0 143.5 5.2 C 143.5 5.2 143.5 5.2 143.5 5.2 Z M 151.0 9.5 C 151.6 9.1 152.3 11.2 151.0 9.5 M 166.0 2.7 C 166.6 2.2 167.3 4.4 166.0 2.7 M 151.2 2.1 C 151.9 1.6 152.5 3.9 151.2 2.1 M 133.8 3.2 C 134.0 3.4 134.0 3.4 133.8 3.2 M 142.1 11.1 C 143.0 10.4 142.6 11.9 142.1 11.1 M 128.1 10.5 C 129.1 9.8 128.6 11.3 128.1 10.5 M 163.9 11.1 C 163.9 10.6 165.4 11.3 163.9 11.1 M 153.0 5.0 C 154.3 5.3 155.6 6.3 152.9 6.1 C 152.7 5.7 153.5 5.5 153.0 5.0 C 153.0 5.0 153.0 5.0 153.0 5.0 Z M 157.6 9.2 C 157.8 9.4 157.8 9.4 157.6 9.2 M 155.3 3.4 C 155.5 3.5 155.5 3.5 155.3 3.4 M 162.8 3.5 C 163.0 3.8 163.0 3.8 162.8 3.5 M 163.8 3.0 C 163.8 3.1 163.8 3.1 163.8 3.0 C 163.8 3.0 163.8 3.0 163.8 3.0 Z M 172.1 2.3 C 172.1 2.4 172.1 2.4 172.1 2.3 C 172.1 2.3 172.1 2.3 172.1 2.3 Z M 160.4 3.8 C 160.4 3.9 160.4 3.9 160.4 3.8 C 160.4 3.8 160.4 3.8 160.4 3.8 Z M 167.3 10.7 C 167.3 10.8 167.3 10.8 167.3 10.7 C 167.3 10.7 167.3 10.7 167.3 10.7 Z M 166.4 9.6 C 166.4 9.7 166.4 9.7 166.4 9.6 C 166.4 9.6 166.4 9.6 166.4 9.6 Z M 129.5 2.7 C 130.7 1.4 130.2 5.9 129.5 2.7 M 170.1 9.6 C 171.2 10.9 168.2 9.9 170.1 9.6 C 170.1 9.6 170.1 9.6 170.1 9.6 Z M 159.5 5.3 C 159.6 5.5 159.6 5.5 159.5 5.3 M 164.3 3.2 C 164.4 3.4 164.4 3.4 164.3 3.2 M 142.2 1.8 C 142.4 2.1 142.4 2.1 142.2 1.8 M 170.1 3.5 C 173.6 4.0 168.5 6.1 170.1 3.5 M 140.6 3.6 C 140.5 3.4 140.5 3.4 140.6 3.6 M 148.6 6.9 C 150.9 6.8 147.7 8.0 148.6 6.9 M 154.6 4.6 C 154.5 4.7 154.5 4.7 154.6 4.6 C 154.6 4.6 154.6 4.6 154.6 4.6 Z M 151.1 4.7 C 149.4 4.9 150.6 4.1 151.1 4.7 C 151.1 4.7 151.1 4.7 151.1 4.7 Z M 131.2 4.4 C 133.4 4.6 128.9 5.0 131.2 4.4 C 131.2 4.4 131.2 4.4 131.2 4.4 Z M 168.5 7.8 C 168.4 7.9 168.4 7.9 168.5 7.8 C 168.5 7.8 168.5 7.8 168.5 7.8 Z M 160.0 2.5 C 159.0 3.0 159.5 2.0 160.0 2.5 C 160.0 2.5 160.0 2.5 160.0 2.5 Z M 173.3 2.3 C 172.3 2.8 172.9 1.8 173.3 2.3 C 173.3 2.3 173.3 2.3 173.3 2.3 Z M 128.5 4.1 C 136.7 7.1 117.6 3.3 128.5 4.1 C 128.5 4.1 128.5 4.1 128.5 4.1 Z M 152.5 3.4 C 152.4 3.5 152.4 3.5 152.5 3.4 C 152.5 3.4 152.5 3.4 152.5 3.4 Z M 137.4 2.2 C 137.3 2.3 137.3 2.3 137.4 2.2 C 137.4 2.2 137.4 2.2 137.4 2.2 Z M 134.8 3.8 C 134.8 3.9 134.8 3.9 134.8 3.8 C 134.8 3.8 134.8 3.8 134.8 3.8 Z M 135.5 10.9 C 135.5 11.0 135.5 11.0 135.5 10.9 C 135.5 10.9 135.5 10.9 135.5 10.9 Z M 136.4 7.7 C 136.3 7.9 136.3 7.9 136.4 7.7 C 136.4 7.7 136.4 7.7 136.4 7.7 Z M 131.1 8.9 C 131.1 9.0 131.1 9.0 131.1 8.9 C 131.1 8.9 131.1 8.9 131.1 8.9 Z M 131.2 9.8 C 131.2 9.9 131.2 9.9 131.2 9.8 C 131.2 9.8 131.2 9.8 131.2 9.8 Z M 164.3 5.2 C 164.2 5.4 164.2 5.4 164.3 5.2 C 164.3 5.2 164.3 5.2 164.3 5.2 Z M 161.5 8.2 C 163.4 7.1 160.9 9.7 161.5 8.2 C 161.5 8.2 161.5 8.2 161.5 8.2 Z M 144.5 6.7 C 146.3 6.3 143.4 7.6 144.5 6.7 C 144.5 6.7 144.5 6.7 144.5 6.7 Z M 146.4 10.6 C 146.5 10.6 146.5 10.6 146.4 10.6 C 146.4 10.6 146.4 10.6 146.4 10.6 Z M 134.8 2.1 C 134.8 2.3 134.8 2.3 134.8 2.1 C 134.8 2.1 134.8 2.1 134.8 2.1 Z M 131.6 3.3 C 131.5 4.8 130.6 2.6 131.6 3.3 M 147.8 2.5 C 147.8 2.6 147.8 2.6 147.8 2.5 C 147.8 2.5 147.8 2.5 147.8 2.5 Z M 158.1 4.8 C 158.0 4.9 158.0 4.9 158.1 4.8 C 158.1 4.8 158.1 4.8 158.1 4.8 Z M 168.2 3.8 C 168.2 4.0 168.2 4.0 168.2 3.8 C 168.2 3.8 168.2 3.8 168.2 3.8 Z M 154.2 2.6 C 154.1 2.8 154.1 2.8 154.2 2.6 C 154.2 2.6 154.2 2.6 154.2 2.6 Z M 149.3 4.0 C 149.3 4.2 149.3 4.2 149.3 4.0 C 149.3 4.0 149.3 4.0 149.3 4.0 Z M 170.5 5.9 C 170.4 6.0 170.4 6.0 170.5 5.9 C 170.5 5.9 170.5 5.9 170.5 5.9 Z M 155.3 2.4 C 155.3 2.5 155.3 2.5 155.3 2.4 C 155.3 2.4 155.3 2.4 155.3 2.4 Z M 158.3 7.2 C 158.2 7.3 158.2 7.3 158.3 7.2 C 158.3 7.2 158.3 7.2 158.3 7.2 Z M 132.1 1.2 C 132.0 1.3 132.0 1.3 132.1 1.2 C 132.1 1.2 132.1 1.2 132.1 1.2 Z M 170.6 3.9 C 170.5 4.0 170.5 4.0 170.6 3.9 C 170.6 3.9 170.6 3.9 170.6 3.9 Z M 171.2 2.6 C 171.2 2.7 171.2 2.7 171.2 2.6 C 171.2 2.6 171.2 2.6 171.2 2.6 Z M 164.0 9.7 C 160.4 8.9 167.2 9.4 164.6 7.8 C 169.8 7.4 164.8 9.8 164.0 9.7 C 164.0 9.7 164.0 9.7 164.0 9.7 Z M 164.0 9.7 " fill="#FEFFFE"></path></g></svg>