<?xml version="1.0" encoding="UTF-8" standalone="no"?><svg xmlns="http://www.w3.org/2000/svg" xmlns:xlink="http://www.w3.org/1999/xlink" clip-rule="evenodd" stroke-miterlimit="4.00" viewBox="0 0 164 75"><desc>SVG generated by Keynote</desc><defs></defs><g transform="matrix(1.00, 0.00, -0.00, -1.00, 0.0, 75.0)"><path d="M 7.0 4.8 L 8.0 4.7 C 24.2 4.0 40.4 3.1 56.6 2.1 C 64.6 1.6 72.6 1.0 80.5 0.5 C 88.4 -0.0 96.3 -0.4 104.2 0.8 C 137.6 5.9 161.2 36.3 157.9 70.0 " fill="none" stroke="#FEFFFE" stroke-width="2.00" transform="matrix(-1.00, 0.00, 0.00, -1.00, 161.0, 72.9)"></path><path d="M 156.9 64.0 C 159.1 63.9 160.9 65.6 161.0 67.8 C 161.1 70.0 159.4 71.9 157.2 72.0 C 155.0 72.1 153.1 70.4 153.0 68.2 C 152.9 65.9 154.7 64.1 156.9 64.0 Z M 156.9 64.0 " fill="#FEFFFE"></path></g></svg>