<?xml version="1.0" encoding="UTF-8" standalone="no"?><svg xmlns="http://www.w3.org/2000/svg" xmlns:xlink="http://www.w3.org/1999/xlink" clip-rule="evenodd" stroke-miterlimit="4.00" viewBox="0 0 644 158"><desc>SVG generated by Keynote</desc><defs></defs><g transform="matrix(1.00, 0.00, -0.00, -1.00, 0.0, 158.0)"><image xlink:href="254216E325A111E978E1F79E13CCE06E.png" width="640.00" height="155.00" transform="matrix(1.00, 0.00, -0.00, -1.00, 2.0, 156.3)" opacity="0.50"></image><path d="M 11.0 147.3 L 633.4 147.3 L 633.4 10.2 L 11.0 10.2 Z M 11.0 147.3 " fill="#010101"></path><path d="M 637.3 82.7 C 637.2 81.6 637.2 80.3 637.2 78.3 C 637.1 79.1 637.1 79.9 637.0 79.7 C 637.0 81.4 637.1 83.7 637.0 87.1 C 637.1 87.0 637.1 85.3 637.1 84.1 C 637.1 82.7 637.2 83.0 637.3 82.7 C 637.3 82.7 637.3 82.7 637.3 82.7 Z M 310.5 6.9 C 313.4 6.9 310.2 6.7 309.1 6.7 C 309.0 6.7 308.8 6.8 307.7 6.7 C 307.5 6.5 309.9 6.5 311.9 6.4 C 319.7 6.5 313.9 6.9 310.5 6.9 C 310.5 6.9 310.5 6.9 310.5 6.9 Z M 7.8 81.8 C 7.8 88.1 8.1 81.5 8.1 80.6 C 8.2 83.5 8.6 81.3 8.6 85.1 C 8.5 85.7 8.4 87.1 8.3 87.7 C 8.3 86.0 8.3 83.7 8.2 83.4 C 8.2 85.6 8.3 88.7 8.2 89.0 C 8.1 84.2 7.9 88.1 7.8 88.9 C 7.8 84.6 7.6 83.1 7.8 81.8 C 7.8 81.8 7.8 81.8 7.8 81.8 Z M 257.0 150.0 C 255.2 150.0 253.7 150.0 254.1 149.8 C 256.0 149.8 257.2 149.9 258.3 149.9 C 258.5 149.8 257.9 149.7 259.6 149.7 C 261.6 149.9 260.7 150.2 259.8 150.3 C 259.6 150.1 253.4 150.2 257.0 150.0 C 257.0 150.0 257.0 150.0 257.0 150.0 Z M 414.6 149.6 C 420.0 149.7 414.6 149.2 420.0 149.3 C 420.0 149.6 421.0 149.8 417.5 149.8 C 417.1 149.7 415.1 149.7 414.6 149.6 C 414.6 149.6 414.6 149.6 414.6 149.6 Z M 94.1 8.9 C 94.0 8.8 90.3 8.8 91.1 8.6 C 93.0 8.6 94.7 8.6 96.6 8.6 C 97.2 8.8 96.6 8.9 94.1 8.9 C 94.1 8.9 94.1 8.9 94.1 8.9 Z M 10.2 124.9 C 9.9 131.3 10.3 138.2 10.0 136.1 C 9.8 138.5 9.3 131.5 9.6 131.8 C 9.9 131.2 10.1 119.9 10.2 124.9 C 10.2 124.9 10.2 124.9 10.2 124.9 Z M 278.7 11.1 C 272.1 10.9 273.5 11.6 269.2 11.2 C 270.6 11.2 271.3 11.1 271.8 11.1 C 270.7 11.1 269.1 11.1 269.1 11.0 C 272.2 11.0 276.0 10.9 278.7 11.1 C 278.7 11.1 278.7 11.1 278.7 11.1 Z M 606.8 150.6 C 605.8 150.6 605.3 150.7 605.5 150.8 C 601.1 150.7 601.4 150.9 598.5 150.8 C 598.1 150.5 601.9 150.6 605.3 150.6 C 605.4 150.6 606.5 150.5 606.8 150.6 C 606.8 150.6 606.8 150.6 606.8 150.6 Z M 483.0 149.7 C 483.3 149.9 486.0 150.0 481.9 150.1 C 477.1 149.8 481.0 149.6 485.7 149.4 C 485.6 149.3 485.5 149.2 485.4 149.1 C 483.5 149.1 482.3 149.1 481.1 149.0 C 480.6 149.4 477.0 148.7 469.9 148.9 C 473.2 148.8 469.3 148.5 473.9 148.6 C 472.5 148.4 475.7 148.4 475.0 148.2 C 473.2 148.3 468.4 148.3 469.7 148.6 C 467.3 148.6 465.3 148.6 464.1 148.5 C 462.1 148.3 468.5 148.5 466.5 148.2 C 465.2 148.2 464.9 148.2 463.8 148.1 C 463.6 148.2 464.2 148.4 462.6 148.4 C 458.0 148.3 463.2 148.1 456.8 148.1 C 456.5 148.2 458.4 148.2 458.4 148.4 C 455.6 148.5 455.6 148.3 452.9 148.5 C 452.2 148.3 454.8 148.3 452.7 148.2 C 451.2 148.6 446.7 148.0 443.0 148.3 C 446.0 148.8 442.2 148.2 439.0 148.7 C 438.1 148.6 440.5 148.2 437.3 148.2 C 438.9 148.8 426.2 148.7 436.6 149.2 C 431.3 149.2 429.9 149.7 434.2 149.7 C 424.8 149.6 428.0 149.9 424.5 150.0 C 421.0 150.0 426.3 149.8 424.3 149.7 C 428.1 149.7 427.1 149.5 429.9 149.7 C 429.8 149.6 430.5 149.5 431.2 149.4 C 427.5 149.6 422.8 149.2 425.3 148.9 C 427.3 149.0 425.7 149.2 428.3 149.3 C 427.1 148.9 431.0 149.3 431.0 149.1 C 429.0 148.8 434.3 148.5 429.1 148.5 C 429.2 148.6 429.3 148.7 429.3 148.9 C 428.0 148.9 426.6 148.9 425.3 148.9 C 423.9 148.6 424.7 148.5 423.5 148.4 C 421.1 148.4 420.0 148.4 419.3 148.5 C 422.2 148.6 425.8 148.8 421.1 148.9 C 422.5 148.4 414.3 148.7 417.9 148.5 C 412.7 148.3 410.3 148.7 409.6 148.4 C 406.9 148.4 408.8 148.6 405.5 148.6 C 400.2 148.4 401.4 148.7 394.3 148.5 C 393.8 148.9 393.6 148.5 391.4 148.5 C 391.5 148.6 391.6 148.7 391.7 148.9 C 389.1 148.6 383.5 148.5 377.8 148.8 C 376.2 148.7 377.2 148.5 373.4 148.5 C 369.5 148.9 364.4 148.5 359.7 148.9 C 359.2 148.7 355.8 148.7 354.1 148.8 C 353.2 148.7 355.5 148.4 352.4 148.4 C 350.5 148.6 354.2 148.7 349.9 148.8 C 350.2 148.5 345.9 149.0 345.6 148.7 C 347.0 148.6 348.4 148.5 349.7 148.5 C 347.8 148.5 348.3 148.3 346.8 148.3 C 347.2 148.6 343.7 148.3 342.6 148.3 C 342.8 148.4 342.4 148.5 341.4 148.6 C 338.9 148.6 337.0 148.6 335.9 148.7 C 332.7 148.6 337.5 148.5 334.4 148.5 C 333.2 149.1 329.7 148.4 323.4 148.8 C 321.8 148.6 319.0 148.5 314.8 148.5 C 314.5 148.6 318.9 148.5 319.1 148.7 C 313.0 148.6 320.3 148.9 316.4 148.9 C 307.6 148.7 301.9 148.7 292.6 148.5 C 292.8 148.7 285.6 148.9 285.7 148.8 C 287.6 148.7 281.7 148.5 278.7 148.5 C 278.0 148.9 273.6 149.2 273.4 149.4 C 272.2 149.2 272.5 149.2 271.8 148.9 C 266.5 148.7 264.0 149.1 260.6 148.7 C 260.9 148.9 258.5 148.9 256.5 149.0 C 256.9 148.8 258.1 148.7 259.1 148.5 C 256.4 148.6 256.0 148.4 253.5 148.5 C 251.3 149.1 246.9 148.3 245.3 148.9 C 241.3 148.9 241.9 148.7 238.3 148.7 C 238.4 148.8 238.1 148.9 237.0 149.0 C 239.4 148.9 241.1 148.7 242.6 149.0 C 237.2 149.1 253.1 149.7 244.3 150.0 C 244.0 149.9 244.7 149.7 242.8 149.7 C 237.8 149.8 240.9 150.0 242.9 150.0 C 239.6 150.1 236.0 150.0 238.8 150.3 C 231.1 150.4 235.9 150.2 233.2 150.1 C 219.3 150.3 201.9 150.3 182.9 150.1 C 182.3 150.4 172.1 150.1 168.8 149.9 C 163.6 150.1 158.0 150.2 156.3 149.9 C 155.4 150.2 149.7 149.7 149.2 150.0 C 151.5 150.0 153.1 150.1 150.8 150.1 C 143.0 150.0 131.4 149.9 126.9 150.1 C 124.1 149.8 119.1 149.9 115.7 150.1 C 115.2 149.9 117.9 149.9 115.7 149.8 C 115.0 150.0 107.9 150.2 106.1 150.0 C 108.2 150.0 110.6 149.7 107.4 149.7 C 107.4 149.8 103.6 149.8 104.6 150.0 C 99.9 149.8 97.2 150.0 93.4 149.9 C 96.5 149.9 98.4 149.8 98.9 149.6 C 96.2 149.7 94.2 149.8 92.0 149.6 C 92.6 149.9 88.2 149.7 83.7 149.9 C 82.5 149.8 81.5 149.6 78.0 149.7 C 76.2 149.9 83.6 149.9 79.5 150.0 C 79.5 149.9 75.7 149.7 76.6 150.0 C 71.9 149.8 69.3 150.0 65.5 149.8 C 70.4 149.9 66.7 149.5 65.4 149.5 C 64.3 149.5 62.7 149.5 62.7 149.6 C 62.7 149.7 65.2 149.6 65.4 149.7 C 62.0 149.6 61.1 150.1 59.9 149.8 C 61.4 149.8 61.6 149.7 59.9 149.7 C 59.5 150.0 49.5 149.8 52.9 149.6 C 52.9 149.7 56.7 149.7 57.1 149.6 C 56.0 149.4 50.3 149.6 51.5 149.3 C 54.8 149.3 54.5 149.5 58.5 149.4 C 58.9 149.3 61.2 149.2 62.7 149.1 C 56.4 149.1 55.1 149.4 54.2 149.1 C 51.5 149.1 53.2 149.4 48.7 149.3 C 42.3 149.3 47.6 149.0 45.9 148.9 C 40.2 149.1 42.0 149.4 44.5 149.7 C 40.0 149.6 38.6 149.8 33.3 149.7 C 33.6 149.6 34.3 149.5 36.2 149.4 C 36.3 149.5 40.8 149.7 40.4 149.5 C 40.0 149.1 36.3 149.0 30.6 148.9 C 31.9 149.3 32.1 149.1 26.4 149.1 C 27.3 149.4 23.6 149.0 23.5 149.3 C 23.8 149.4 25.8 149.3 27.7 149.3 C 27.6 149.5 26.9 149.6 25.0 149.7 C 23.8 149.5 22.8 149.7 19.4 149.6 C 19.1 149.4 21.6 149.3 22.1 149.2 C 20.2 149.2 19.8 149.3 17.9 149.3 C 16.3 149.1 16.4 148.8 16.6 148.5 C 18.7 148.4 22.1 148.4 19.4 148.2 C 27.6 148.2 19.0 148.6 22.1 148.6 C 25.5 148.3 23.6 148.7 29.1 148.7 C 30.7 148.7 31.2 148.6 31.9 148.5 C 31.5 148.5 28.4 148.2 31.9 148.2 C 32.7 148.4 34.6 148.5 37.5 148.5 C 37.5 148.4 31.6 148.3 37.5 148.3 C 40.3 148.3 37.8 148.6 41.7 148.6 C 41.7 148.5 42.8 148.5 43.0 148.5 C 37.3 148.5 44.1 148.3 40.3 148.1 C 45.2 148.0 41.1 148.4 44.4 148.4 C 44.5 148.2 49.8 148.5 50.0 148.2 C 47.9 148.3 43.9 148.3 44.4 148.0 C 48.1 148.1 65.0 147.9 58.4 148.3 C 60.8 148.1 73.1 147.8 72.2 148.0 C 68.5 147.9 68.7 148.1 68.2 148.3 C 75.1 148.0 78.6 148.2 86.2 147.9 C 77.9 147.8 84.1 147.4 79.2 147.3 C 77.0 147.3 74.0 147.2 73.5 147.3 C 74.5 147.6 77.9 147.5 79.2 147.3 C 79.2 147.5 79.3 147.8 79.3 148.0 C 70.2 147.7 65.3 148.0 61.1 147.9 C 64.7 147.9 54.1 147.6 58.3 147.5 C 60.1 147.7 64.5 147.7 68.1 147.7 C 68.1 147.7 68.1 147.6 68.1 147.5 C 69.7 147.5 72.0 147.5 72.2 147.4 C 67.1 147.5 64.4 147.2 61.0 147.4 C 61.0 147.4 61.0 147.3 61.0 147.3 C 60.2 147.2 59.4 147.2 59.7 147.2 C 61.3 147.2 63.6 147.2 63.9 147.1 C 60.2 147.0 59.5 146.8 55.4 146.8 C 56.4 146.5 50.9 146.2 56.9 146.1 C 57.8 146.3 61.1 146.4 61.0 146.5 C 62.7 146.6 66.3 146.6 68.0 146.5 C 66.2 146.3 62.7 146.2 62.4 146.0 C 65.2 145.9 67.5 145.8 69.3 146.1 C 63.4 146.2 72.6 146.3 74.9 146.5 C 74.2 146.4 72.9 146.3 72.0 146.2 C 76.6 146.2 78.8 146.4 79.1 146.1 C 84.6 145.9 83.4 146.2 87.3 146.2 C 84.7 145.9 89.9 146.1 87.3 145.7 C 93.8 145.7 89.2 146.0 91.5 146.1 C 93.5 146.0 93.8 145.9 95.7 145.9 C 98.7 146.1 104.7 146.1 105.5 146.4 C 108.1 146.4 108.5 146.5 111.1 146.5 C 111.7 146.4 112.5 146.3 113.7 146.2 C 114.2 146.3 116.1 146.4 116.6 146.3 C 109.4 145.9 111.4 145.9 103.9 145.7 C 103.4 145.8 102.3 145.8 103.9 145.9 C 98.8 146.0 97.3 145.8 92.8 145.8 C 92.3 145.6 91.3 145.3 87.3 145.5 C 88.2 145.2 87.1 145.2 88.7 145.1 C 90.9 145.2 93.9 145.3 97.0 145.4 C 97.2 145.3 96.7 145.2 98.3 145.2 C 99.8 145.3 102.1 145.4 104.0 145.3 C 104.0 145.4 103.3 145.4 102.5 145.5 C 109.4 145.6 107.0 145.2 112.3 145.4 C 111.4 145.3 108.0 145.3 110.9 145.1 C 115.6 145.0 116.7 145.2 119.1 145.3 C 119.5 145.2 119.2 145.1 120.6 145.1 C 124.0 145.3 113.2 145.6 119.2 145.9 C 119.6 145.6 125.4 145.7 126.3 145.9 C 124.4 146.1 121.0 145.8 120.7 146.0 C 131.3 146.0 121.1 146.4 131.9 146.5 C 131.9 146.4 131.9 146.2 131.9 146.1 C 127.5 146.2 127.4 146.0 127.6 145.7 C 123.8 145.7 122.3 145.4 119.2 145.6 C 120.3 145.1 122.3 145.6 126.2 145.6 C 126.0 145.3 122.5 145.3 121.9 145.1 C 130.9 145.3 132.7 145.0 141.3 145.3 C 139.2 145.1 146.0 145.3 145.5 145.1 C 138.0 145.1 141.0 144.5 139.8 144.4 C 134.9 144.4 137.2 144.9 134.4 145.0 C 133.0 144.8 133.6 144.6 134.2 144.3 C 138.5 144.4 137.9 144.3 141.2 144.2 C 144.1 144.4 146.6 144.9 142.7 145.0 C 143.5 145.0 149.2 144.8 149.6 145.0 C 144.2 145.0 150.2 145.1 147.0 145.3 C 151.2 145.4 158.6 145.1 163.6 145.3 C 163.2 145.2 165.1 145.2 164.9 145.0 C 159.8 145.3 158.7 144.7 153.7 144.7 C 155.9 144.7 154.6 144.5 153.7 144.5 C 158.6 144.6 161.2 144.4 164.8 144.6 C 164.8 144.5 164.8 144.5 164.7 144.4 C 170.7 144.6 169.9 144.5 174.4 144.3 C 176.2 144.4 173.9 144.9 173.3 145.1 C 175.4 145.0 183.4 145.0 178.7 144.8 C 183.5 144.8 182.4 145.1 187.1 145.1 C 187.1 144.8 182.7 144.9 184.2 144.5 C 188.7 144.5 186.2 144.8 189.8 144.6 C 190.0 144.8 190.2 145.0 193.9 145.0 C 191.2 144.8 194.3 144.9 195.4 144.8 C 193.6 144.7 192.1 144.7 191.1 144.6 C 198.0 144.7 199.4 144.7 204.9 144.6 C 203.0 144.9 206.1 145.0 202.3 145.1 C 205.8 144.9 210.2 145.2 212.1 145.1 C 209.9 145.0 206.4 145.0 205.0 144.9 C 216.0 144.8 221.7 144.5 231.3 144.9 C 229.7 144.9 227.4 144.8 227.2 144.9 C 228.2 145.0 230.0 144.9 230.0 145.0 C 226.6 145.0 223.4 145.0 221.7 145.1 C 218.7 145.0 223.4 144.9 220.2 144.9 C 219.8 145.0 213.9 144.9 216.2 145.2 C 221.4 144.9 226.4 145.2 228.9 145.6 C 233.6 145.1 229.0 145.2 234.1 144.7 C 234.0 144.8 235.3 144.9 236.9 144.9 C 235.1 144.6 241.7 144.8 242.4 144.8 C 240.0 144.9 230.9 145.1 235.7 145.4 C 233.3 144.8 246.5 145.6 243.8 145.1 C 249.8 145.0 247.7 145.4 250.9 145.1 C 251.0 145.2 250.7 145.3 252.3 145.3 C 253.9 145.3 254.4 145.2 255.1 145.2 C 246.8 145.0 249.1 144.7 243.7 144.7 C 244.6 144.7 245.4 144.7 245.1 144.6 C 245.1 144.6 245.2 144.5 246.5 144.5 C 247.0 144.8 250.8 144.5 252.1 144.7 C 250.4 144.7 248.8 144.7 249.4 144.9 C 256.3 144.8 255.2 145.1 264.7 145.3 C 261.8 145.1 265.6 145.0 268.8 145.0 C 273.4 145.0 271.8 145.4 277.4 145.4 C 276.5 144.8 283.2 145.5 289.7 145.1 C 289.1 145.4 297.8 145.5 299.5 145.3 C 299.8 145.4 302.9 145.3 305.0 145.3 C 305.6 145.5 303.1 145.5 305.2 145.6 C 307.0 145.5 305.1 145.3 307.7 145.3 C 310.7 145.3 310.3 145.6 314.8 145.6 C 314.8 145.4 312.4 145.4 314.6 145.3 C 318.6 145.4 322.1 145.3 318.7 145.1 C 324.5 145.1 321.9 145.5 327.3 145.5 C 325.6 145.4 325.7 145.3 328.5 145.3 C 330.7 145.4 330.8 145.5 331.6 145.6 C 333.1 145.4 332.5 145.4 337.0 145.5 C 337.0 145.4 336.9 145.3 336.9 145.2 C 338.9 145.2 341.8 145.1 342.4 145.2 C 338.6 145.2 339.8 145.4 338.4 145.5 C 342.2 145.5 349.6 145.8 343.9 145.5 C 349.1 145.4 346.7 145.7 350.9 145.6 C 348.2 145.4 350.8 145.6 355.1 145.6 C 354.5 145.2 357.9 145.5 360.6 145.5 C 360.1 145.3 360.7 145.2 363.1 145.2 C 363.0 145.3 364.7 145.4 367.4 145.3 C 367.3 145.2 361.4 145.1 367.2 145.1 C 370.0 145.2 370.2 145.5 374.5 145.5 C 375.6 145.7 370.7 145.6 371.9 145.9 C 375.3 145.7 376.5 145.8 381.6 145.9 C 379.3 145.4 391.5 145.3 385.3 145.1 C 387.1 145.1 389.3 144.8 390.8 145.0 C 389.0 145.1 392.5 145.3 392.4 145.3 C 394.8 145.3 400.5 145.4 400.6 145.3 C 395.3 145.3 395.2 145.1 393.5 144.9 C 401.1 144.8 407.9 144.9 407.6 145.2 C 407.5 145.1 408.6 145.1 408.8 145.0 C 406.1 145.1 404.1 144.6 407.2 144.6 C 406.7 144.9 409.0 144.9 411.5 145.0 C 411.5 144.8 421.8 145.1 419.7 144.8 C 415.8 145.0 412.3 144.6 415.3 144.5 C 418.0 144.7 423.7 144.8 422.6 145.0 C 424.0 144.9 425.3 144.9 426.6 144.8 C 427.7 144.5 424.6 144.6 425.0 144.4 C 427.0 144.4 430.1 144.3 430.6 144.5 C 425.1 144.5 433.5 144.6 428.0 144.8 C 431.5 144.8 432.4 144.9 435.1 144.9 C 435.0 144.8 436.1 144.8 436.3 144.8 C 434.0 144.9 431.5 144.8 432.0 144.5 C 436.9 144.5 436.3 144.8 440.5 144.8 C 441.6 144.6 447.1 144.3 450.0 144.5 C 444.5 144.4 450.5 144.6 447.4 144.7 C 442.2 144.5 441.1 144.8 439.3 145.0 C 441.6 145.1 445.9 145.2 446.2 144.9 C 443.5 144.9 443.5 145.0 442.1 145.1 C 442.1 144.9 442.9 144.8 444.7 144.8 C 447.1 144.9 452.1 144.8 449.0 145.1 C 452.4 144.9 456.5 145.2 460.0 145.0 C 455.9 145.0 452.9 144.9 451.5 144.7 C 454.8 144.6 458.4 144.9 458.4 144.7 C 457.9 144.5 452.5 144.6 451.3 144.4 C 455.5 144.1 462.6 144.8 456.8 144.3 C 459.3 144.3 462.6 144.3 463.8 144.5 C 460.8 144.5 464.3 144.8 465.6 144.9 C 468.1 144.8 470.1 144.8 471.0 144.7 C 467.1 144.8 463.9 144.5 466.6 144.5 C 467.4 144.6 468.1 144.4 469.3 144.4 C 469.6 144.5 474.0 144.4 474.9 144.5 C 474.6 144.4 472.5 144.4 472.0 144.3 C 474.6 144.2 478.1 143.9 480.2 144.2 C 478.6 144.2 476.3 144.2 476.2 144.3 C 483.7 144.6 486.2 144.9 494.8 145.1 C 493.7 145.1 493.2 145.2 493.6 145.3 C 499.0 145.3 502.6 145.4 502.1 145.6 C 505.4 145.5 507.1 145.4 508.7 145.3 C 505.1 145.1 504.1 145.3 501.8 145.2 C 503.1 145.1 498.7 144.7 497.1 144.5 C 491.3 144.8 490.6 144.4 484.6 144.5 C 486.2 144.3 480.1 144.5 481.7 144.2 C 487.7 144.6 492.8 144.3 501.2 144.5 C 500.3 144.7 499.5 144.8 502.9 144.9 C 508.3 145.1 505.5 144.7 509.8 144.8 C 511.7 145.0 509.2 145.0 511.4 145.1 C 512.8 145.0 516.9 145.0 518.5 145.3 C 512.7 145.2 519.7 145.5 516.0 145.6 C 517.9 145.6 519.0 145.6 520.3 145.7 C 514.5 145.4 525.5 145.3 521.2 145.1 C 528.8 145.0 522.2 145.7 528.5 145.7 C 525.3 145.5 529.2 145.4 533.9 145.4 C 535.3 145.7 540.1 145.7 543.9 145.8 C 541.8 145.6 540.3 145.6 543.7 145.5 C 541.7 145.4 538.4 145.4 536.8 145.5 C 536.7 145.4 535.9 145.3 535.1 145.3 C 539.6 145.2 537.6 145.1 539.1 145.0 C 540.5 145.1 543.9 145.1 544.8 145.3 C 544.7 145.2 545.9 145.2 546.0 145.1 C 540.2 145.1 546.7 144.8 543.0 144.7 C 540.4 144.7 542.3 145.0 539.0 144.9 C 535.6 144.6 541.3 144.6 542.7 144.4 C 539.8 144.2 536.9 144.5 535.7 144.2 C 539.0 143.9 544.8 144.1 549.5 144.2 C 548.9 143.9 557.2 144.3 557.5 143.9 C 558.3 144.0 559.2 144.1 560.4 144.1 C 561.6 143.9 563.4 144.2 564.7 144.2 C 564.7 144.1 564.2 144.0 563.1 143.9 C 568.8 144.0 570.2 144.0 576.8 143.9 C 578.0 144.0 579.4 144.2 580.1 144.4 C 578.5 144.4 577.1 144.5 576.1 144.5 C 585.3 144.6 578.7 143.9 585.6 144.3 C 585.2 144.2 580.5 143.9 583.8 143.8 C 589.8 144.1 597.8 143.8 598.2 144.5 C 603.5 144.8 606.6 144.3 609.4 144.6 C 611.0 144.6 611.4 144.5 612.0 144.4 C 610.3 144.3 608.1 144.2 606.1 144.0 C 603.1 144.2 601.6 143.9 604.9 144.3 C 600.3 144.3 598.9 144.2 596.4 144.0 C 602.6 143.9 608.6 144.1 608.5 143.7 C 610.8 143.9 612.6 144.0 614.5 144.2 C 615.0 144.0 622.1 144.0 622.9 144.2 C 617.9 144.1 613.2 144.4 617.7 144.6 C 622.7 144.5 626.8 144.6 630.7 144.6 C 630.8 139.6 630.9 135.1 630.7 129.1 C 630.8 129.0 631.0 129.9 631.0 128.1 C 630.9 128.0 630.8 127.5 630.7 126.4 C 630.7 123.3 630.8 121.5 630.8 117.2 C 631.0 117.6 631.2 117.0 631.3 114.7 C 631.0 113.3 630.6 108.7 630.6 106.3 C 630.6 108.9 631.0 105.7 631.0 103.8 C 630.6 105.3 631.2 91.8 630.9 95.7 C 630.9 90.2 631.0 87.9 631.1 87.8 C 631.1 85.8 631.0 84.3 631.0 82.4 C 631.3 81.2 631.0 71.6 631.2 70.3 C 631.1 73.6 631.5 74.2 631.4 71.6 C 631.3 69.8 631.1 61.2 631.1 59.6 C 631.2 60.1 631.4 60.7 631.5 64.9 C 631.6 57.7 631.2 57.9 631.0 55.6 C 631.3 55.7 631.0 52.5 631.0 51.5 C 631.1 49.2 631.1 51.6 631.3 51.4 C 631.3 48.9 631.5 47.9 631.4 44.6 C 631.2 45.7 631.3 41.9 631.4 40.6 C 631.2 40.1 631.1 38.4 631.0 35.4 C 631.5 39.2 631.5 17.9 631.2 23.2 C 631.0 19.2 631.5 18.7 631.4 13.5 C 631.4 13.2 631.4 12.7 631.4 12.3 C 631.3 11.2 631.3 10.3 631.2 12.4 C 631.2 12.4 631.2 12.4 631.2 12.4 C 626.8 12.5 629.7 12.2 624.4 12.3 C 626.4 12.6 619.2 12.2 620.0 12.6 C 618.2 12.1 613.3 12.7 609.2 12.4 C 609.1 12.4 607.9 12.4 607.6 12.5 C 606.8 12.6 612.8 12.7 608.8 12.8 C 604.3 12.6 606.9 12.5 606.4 12.4 C 593.6 12.5 578.3 12.4 564.9 12.3 C 566.5 12.4 566.3 12.5 563.4 12.5 C 559.9 12.0 543.9 12.3 541.4 12.4 C 540.1 12.1 531.8 12.4 530.4 12.3 C 532.0 12.3 535.3 12.0 532.0 12.0 C 529.6 12.3 526.9 12.1 523.5 12.4 C 522.1 12.0 512.1 12.4 516.8 11.9 C 514.9 11.9 513.9 11.8 512.8 11.8 C 512.5 12.1 510.5 12.0 513.9 12.2 C 505.0 12.0 502.7 12.2 496.0 12.0 C 494.7 12.2 500.0 12.3 495.8 12.3 C 495.8 12.3 495.8 12.2 495.9 12.2 C 494.4 12.2 493.8 12.3 493.2 12.2 C 493.5 12.1 495.8 12.1 496.1 11.8 C 492.7 11.9 490.6 11.6 489.2 11.8 C 493.9 11.8 490.4 12.3 487.7 12.0 C 490.4 11.9 476.8 12.0 472.4 12.2 C 470.4 11.9 477.2 12.1 476.7 12.0 C 468.6 12.0 469.3 11.9 468.2 12.2 C 464.0 12.1 462.4 12.0 457.2 12.1 C 454.3 12.0 459.1 11.9 456.0 11.9 C 454.1 12.0 453.2 12.1 450.3 12.1 C 443.1 11.6 425.4 12.4 417.3 11.6 C 420.6 11.8 416.1 12.0 411.7 12.0 C 411.5 11.9 412.0 11.7 410.4 11.7 C 410.6 11.9 409.1 12.0 406.2 12.0 C 405.9 11.9 406.5 11.7 404.9 11.7 C 403.6 12.0 400.0 11.7 397.8 11.9 C 397.0 11.6 403.0 11.7 403.4 11.6 C 396.3 11.4 395.0 11.7 389.7 11.6 C 392.5 11.5 387.7 11.3 386.9 11.2 C 388.1 11.5 383.7 11.6 386.8 11.8 C 384.8 11.8 381.7 11.8 381.3 11.7 C 382.4 11.7 384.1 11.7 384.1 11.6 C 381.5 11.7 378.4 11.4 377.1 11.6 C 378.8 11.7 379.9 11.7 379.9 11.9 C 379.2 12.0 378.4 12.1 377.0 12.1 C 381.0 11.5 369.5 11.8 368.8 12.0 C 367.8 11.6 367.1 11.6 367.5 11.4 C 362.7 11.4 363.3 11.6 360.5 11.7 C 361.3 11.4 362.3 11.2 357.9 11.1 C 358.8 11.4 353.4 11.3 354.9 11.7 C 343.5 11.8 341.1 11.4 334.2 11.5 C 334.0 11.6 336.2 11.6 334.2 11.6 C 330.9 11.6 328.1 11.5 325.9 11.3 C 324.2 11.5 326.6 11.6 324.6 11.6 C 319.4 11.4 320.7 11.1 316.2 10.9 C 310.7 11.1 312.7 11.0 309.3 11.2 C 310.8 11.2 312.7 11.4 310.7 11.4 C 307.3 11.2 305.9 10.9 305.1 10.8 C 307.5 10.8 309.4 10.9 310.6 10.9 C 311.5 10.7 314.8 10.8 312.0 10.6 C 315.5 10.7 319.4 10.7 324.6 10.7 C 322.8 10.4 329.1 10.6 327.3 10.4 C 321.6 10.4 320.2 10.2 314.8 10.3 C 316.1 10.6 310.4 10.4 309.3 10.4 C 309.3 10.5 305.5 10.5 306.4 10.7 C 302.2 10.7 302.4 10.5 298.2 10.6 C 297.9 10.5 298.4 10.4 296.8 10.4 C 295.3 10.6 293.9 10.3 292.6 10.3 C 293.6 10.5 287.4 10.4 287.1 10.6 C 288.7 10.6 291.0 10.6 291.3 10.7 C 284.5 10.6 289.9 10.9 291.3 11.1 C 291.0 11.0 293.4 10.6 294.0 10.8 C 288.3 11.0 302.0 11.2 296.9 11.2 C 292.5 11.1 292.8 11.3 288.5 11.2 C 283.3 10.8 289.4 10.6 284.2 10.2 C 281.1 10.4 278.9 10.4 278.7 10.6 C 278.0 10.5 277.1 10.4 275.9 10.3 C 274.6 10.5 280.0 10.6 276.0 10.7 C 273.8 10.6 276.2 10.3 271.7 10.3 C 269.9 10.5 277.2 10.6 273.1 10.7 C 268.7 10.3 274.1 10.8 269.1 10.8 C 268.7 10.8 267.9 10.7 266.2 10.7 C 265.9 10.6 266.6 10.5 264.8 10.4 C 263.9 10.8 262.9 10.3 259.2 10.3 C 257.3 10.6 263.1 10.5 262.0 10.7 C 257.8 10.5 255.4 10.8 253.8 10.7 C 257.1 10.5 248.5 10.6 248.1 10.3 C 249.1 10.6 247.2 10.5 242.5 10.7 C 242.1 10.3 236.8 10.6 235.5 10.3 C 234.8 10.4 233.5 10.5 232.9 10.6 C 234.5 10.6 236.1 10.6 235.6 10.7 C 234.3 10.7 232.9 10.7 231.4 10.7 C 229.1 10.6 234.9 10.0 225.7 10.1 C 226.9 10.4 222.9 10.5 220.4 10.6 C 220.8 10.9 224.1 10.6 224.5 10.7 C 221.5 10.9 218.2 10.7 216.2 10.6 C 210.8 10.7 204.4 10.6 196.7 10.7 C 194.9 10.5 203.2 10.5 198.0 10.3 C 195.8 10.4 197.0 10.6 194.0 10.5 C 196.2 9.5 173.0 10.3 171.3 9.9 C 170.4 10.1 163.7 10.0 164.6 10.3 C 168.9 10.0 172.2 10.4 174.5 10.5 C 178.6 10.4 170.5 10.3 174.3 10.2 C 174.8 10.4 180.4 10.2 180.0 10.4 C 174.0 10.4 183.2 10.7 178.8 10.9 C 173.3 10.9 162.4 11.1 164.9 10.8 C 164.9 10.9 167.3 10.9 167.6 10.8 C 161.3 10.7 157.7 10.9 155.2 11.1 C 152.3 10.9 141.4 11.2 144.2 11.1 C 143.1 10.9 150.8 11.1 149.6 10.9 C 138.0 10.8 137.9 11.0 130.2 10.8 C 132.8 11.1 122.5 11.3 123.4 11.2 C 123.2 10.9 120.8 10.7 116.4 11.0 C 116.9 10.7 114.4 10.7 111.9 10.6 C 111.0 10.8 114.1 10.8 113.7 11.0 C 111.4 11.0 108.9 11.0 106.6 11.0 C 106.4 10.9 106.7 10.8 105.1 10.7 C 102.6 10.9 93.5 11.1 94.2 11.0 C 97.9 10.7 87.6 10.7 93.8 10.5 C 92.1 10.5 91.9 10.4 89.6 10.4 C 89.6 10.5 89.7 10.6 89.8 10.7 C 84.7 10.8 86.9 10.4 82.6 10.4 C 82.3 10.5 80.4 10.5 79.9 10.6 C 81.7 10.6 81.8 10.5 84.1 10.5 C 81.8 10.9 88.8 10.7 88.6 11.0 C 83.8 11.0 83.6 10.8 81.5 10.7 C 75.5 10.8 78.3 10.7 71.7 10.7 C 71.8 10.8 73.6 10.8 73.3 10.9 C 65.4 10.8 65.8 10.3 60.5 10.5 C 61.7 10.5 66.4 10.3 63.0 10.3 C 59.4 10.4 58.6 10.6 53.7 10.7 C 53.4 10.6 53.7 10.4 52.0 10.4 C 50.1 10.5 50.1 10.7 48.3 10.8 C 47.8 10.7 45.1 10.8 44.1 10.8 C 42.2 10.6 44.6 10.6 42.3 10.5 C 38.3 10.5 36.6 11.1 33.2 11.0 C 33.0 10.7 29.3 10.8 26.0 10.8 C 25.1 10.5 18.0 10.6 13.2 10.5 C 14.0 10.7 12.5 10.7 11.5 10.7 C 11.5 11.5 11.6 12.0 11.7 11.7 C 11.7 11.4 11.7 11.2 11.7 10.9 C 13.5 10.9 14.5 11.0 15.1 11.1 C 13.8 11.1 12.8 11.1 11.8 11.0 C 11.7 13.9 11.4 15.4 11.8 18.8 C 11.6 20.6 11.4 23.1 11.4 26.7 C 11.5 27.2 11.6 20.4 11.7 24.2 C 11.6 24.4 11.6 25.7 11.7 26.9 C 11.4 26.2 11.3 29.1 11.2 30.7 C 11.4 34.1 11.0 40.6 11.4 37.7 C 11.4 42.9 11.0 39.2 11.0 43.1 C 11.3 41.4 11.3 48.1 11.5 44.9 C 11.6 50.2 11.2 49.5 11.0 47.3 C 11.0 52.1 11.2 53.3 11.0 55.7 C 11.3 53.5 11.4 61.1 11.3 57.2 C 11.0 55.8 11.2 61.6 11.0 62.6 C 11.2 60.9 11.2 63.5 11.4 60.1 C 11.4 63.8 11.5 69.2 11.2 72.4 C 11.3 77.1 11.4 81.4 11.1 79.3 C 11.2 83.6 11.2 82.0 11.1 86.3 C 11.2 86.4 11.2 85.2 11.3 84.9 C 11.3 90.9 11.1 89.6 11.1 97.4 C 10.8 96.4 10.8 101.4 10.6 102.8 C 10.7 99.6 10.7 97.0 10.8 94.5 C 10.7 93.9 10.6 96.4 10.6 94.4 C 10.6 94.1 10.7 92.9 10.7 91.7 C 10.5 96.7 10.3 85.0 10.6 88.8 C 10.5 88.8 10.5 89.0 10.5 90.1 C 10.7 89.3 10.6 89.2 10.9 90.3 C 10.8 87.7 11.1 85.8 10.9 84.7 C 10.8 84.8 10.8 87.3 10.7 87.5 C 10.6 81.1 11.0 85.8 11.0 80.7 C 10.7 79.5 10.6 82.0 10.5 83.2 C 10.4 78.5 10.5 74.6 10.6 73.5 C 10.5 69.2 10.4 73.6 10.3 70.6 C 10.4 69.1 10.6 69.4 10.6 66.5 C 10.5 63.3 10.4 68.2 10.4 65.0 C 10.5 61.7 10.7 67.5 10.8 62.4 C 10.4 63.4 10.8 57.8 10.6 58.1 C 10.7 61.1 10.3 60.9 10.5 59.5 C 10.9 53.0 10.0 47.6 10.5 41.3 C 10.5 41.3 10.5 40.2 10.4 39.8 C 10.2 44.7 10.2 52.2 9.8 53.3 C 9.9 57.5 10.1 57.1 10.2 57.8 C 9.9 62.4 9.9 62.0 9.5 58.9 C 9.4 50.8 9.6 47.5 9.7 42.2 C 9.6 39.2 9.7 42.4 9.5 43.4 C 9.8 27.0 9.0 39.1 9.1 33.2 C 9.2 33.4 9.3 32.3 9.3 30.6 C 9.2 30.6 9.3 28.1 9.2 27.6 C 9.2 28.7 9.1 29.2 9.0 28.9 C 8.9 24.7 9.2 26.5 9.3 26.4 C 9.3 29.5 9.4 31.6 9.5 32.2 C 9.4 27.9 9.6 25.0 9.3 22.1 C 9.7 18.6 10.0 24.8 10.3 23.0 C 10.5 23.9 9.7 19.9 9.6 16.7 C 9.6 12.5 9.4 11.5 9.4 8.6 C 9.9 8.6 10.5 8.6 11.3 8.6 C 12.1 8.7 10.8 8.7 9.5 8.8 C 9.5 10.0 9.6 11.3 9.7 11.2 C 9.7 10.1 9.7 9.7 9.7 9.0 C 9.9 9.0 10.1 9.0 10.3 9.0 C 13.6 9.0 13.1 8.7 15.6 8.7 C 17.2 8.9 17.9 8.8 19.7 8.7 C 22.9 8.8 18.1 8.9 21.4 8.9 C 24.9 9.0 27.0 8.6 28.1 8.7 C 28.5 8.8 28.1 8.9 29.7 8.9 C 33.5 8.7 34.5 8.7 29.4 8.6 C 33.8 8.6 35.6 8.5 34.7 8.3 C 28.1 8.2 26.5 8.3 23.2 7.9 C 22.3 8.2 20.1 8.0 17.6 7.9 C 19.5 8.4 14.8 8.0 13.6 8.2 C 15.3 8.2 17.0 8.3 18.0 8.3 C 12.9 8.3 11.6 8.3 9.2 8.4 C 9.2 9.4 9.3 10.7 9.4 12.3 C 9.3 12.2 9.2 12.8 9.2 13.5 C 9.1 12.3 9.1 10.0 9.1 8.3 C 10.1 8.3 10.9 8.3 10.9 8.2 C 10.1 8.1 9.4 8.1 8.8 8.1 C 8.8 10.7 9.0 12.5 8.8 16.0 C 9.0 18.1 9.1 12.5 9.1 16.3 C 8.9 17.9 8.8 20.1 8.7 22.9 C 8.8 26.0 8.9 27.6 8.9 30.2 C 8.8 30.4 8.8 30.6 8.8 32.9 C 8.9 32.9 9.0 30.6 9.0 33.1 C 8.7 40.3 8.5 45.1 8.6 52.7 C 8.7 50.1 9.0 44.4 8.9 47.2 C 8.8 50.4 9.1 55.2 8.9 58.5 C 8.8 59.5 9.0 54.4 8.5 55.4 C 8.6 58.7 8.5 60.7 8.5 62.4 C 8.6 62.5 8.6 66.3 8.8 65.5 C 8.8 62.7 8.5 61.7 8.6 61.1 C 9.3 63.8 8.4 71.3 8.4 76.5 C 8.5 80.1 8.6 74.1 8.7 78.1 C 8.8 80.6 8.2 81.7 8.1 77.8 C 8.3 75.2 8.0 74.0 8.2 73.6 C 8.2 72.4 8.2 70.8 8.1 70.8 C 8.1 72.7 8.0 72.2 7.9 73.4 C 7.9 70.6 7.5 70.0 7.7 67.6 C 7.8 69.3 7.8 69.9 7.9 70.6 C 7.8 62.9 8.0 60.7 8.1 56.5 C 8.0 58.7 8.0 56.3 7.8 56.3 C 7.9 59.7 7.7 65.8 7.7 61.9 C 8.0 59.6 7.2 57.0 7.5 54.7 C 7.5 56.6 7.7 56.5 7.7 57.6 C 7.8 54.7 8.0 55.0 8.0 52.1 C 7.6 42.5 8.3 36.0 7.7 20.7 C 7.8 15.6 7.9 25.5 8.1 25.3 C 8.1 23.8 8.1 23.5 8.1 22.4 C 7.9 22.0 8.2 19.8 7.9 17.9 C 8.2 18.4 7.9 11.3 8.1 8.2 C 8.1 8.0 8.0 8.2 7.9 7.2 C 8.1 7.2 8.3 7.1 8.5 7.1 C 19.1 7.5 37.3 7.0 45.2 7.3 C 44.7 7.1 48.2 7.1 49.0 7.0 C 54.0 7.0 52.0 7.2 58.9 7.0 C 62.4 6.9 58.4 7.2 57.7 7.2 C 68.3 7.1 77.8 7.3 84.3 7.1 C 87.7 7.0 84.4 7.2 91.5 7.3 C 91.3 6.9 102.7 7.5 103.9 7.1 C 108.1 7.0 116.1 7.5 112.4 7.1 C 118.2 7.1 114.6 7.5 116.9 7.5 C 120.8 7.4 115.3 6.9 119.2 6.8 C 119.0 7.1 122.3 7.0 125.1 7.2 C 121.9 7.2 119.9 7.2 119.6 7.4 C 122.2 7.2 122.2 7.4 126.6 7.4 C 129.8 7.2 139.1 7.0 142.0 7.4 C 142.1 7.3 141.2 7.2 140.5 7.1 C 143.2 7.1 146.7 7.4 146.1 7.1 C 152.4 7.1 155.3 7.3 158.7 7.1 C 161.4 7.0 157.9 7.3 165.9 7.3 C 166.0 7.1 180.2 7.1 184.2 7.3 C 184.1 7.0 185.1 7.3 186.9 7.3 C 187.1 7.2 186.7 7.1 188.3 7.1 C 188.6 7.2 189.8 7.1 191.0 7.1 C 190.2 7.5 196.2 7.0 196.7 7.2 C 195.5 7.2 195.6 7.4 196.8 7.5 C 197.1 7.2 203.2 7.6 202.4 7.4 C 201.1 7.3 197.2 7.4 198.2 7.1 C 203.6 7.0 201.6 7.4 205.3 7.4 C 205.0 7.3 202.7 7.2 205.2 7.1 C 209.0 7.2 205.5 7.2 208.0 7.4 C 210.0 7.3 213.7 7.2 215.0 7.1 C 214.6 7.1 215.9 7.3 216.5 7.3 C 223.8 7.4 240.1 7.1 247.3 7.5 C 247.8 7.4 249.3 7.3 248.7 7.2 C 253.0 7.3 252.7 7.2 257.1 7.3 C 257.1 7.2 257.1 7.1 257.1 7.0 C 262.6 6.9 257.7 7.3 261.4 7.3 C 261.7 6.8 263.6 7.5 267.0 7.5 C 267.4 7.4 269.0 7.3 268.5 7.2 C 273.8 7.2 273.6 7.5 278.2 7.4 C 277.1 7.4 276.2 6.6 276.7 6.4 C 277.5 6.5 278.9 6.5 281.0 6.6 C 278.5 6.8 280.0 7.8 286.7 7.5 C 283.0 7.5 281.6 7.4 282.4 7.2 C 287.5 7.2 289.3 7.4 293.7 7.4 C 294.3 7.1 291.2 7.1 292.3 6.8 C 293.4 6.8 293.9 6.8 293.6 6.7 C 298.3 6.7 298.4 6.9 303.5 6.7 C 303.5 6.9 302.4 6.9 300.6 6.8 C 300.9 7.0 300.9 7.2 297.9 7.2 C 297.5 7.1 299.3 6.8 295.0 6.9 C 295.0 7.0 295.0 7.2 295.0 7.3 C 298.2 7.3 305.6 7.5 306.3 7.4 C 304.8 7.3 302.3 7.2 303.5 7.0 C 308.9 7.1 310.4 7.3 314.8 7.5 C 322.4 7.4 336.0 7.4 334.3 7.1 C 339.0 7.2 337.4 7.2 341.5 7.2 C 340.2 7.0 346.1 7.1 345.7 6.9 C 340.6 7.0 342.2 6.9 337.2 7.0 C 337.4 6.8 338.2 6.7 340.1 6.7 C 340.4 6.8 342.4 6.9 345.7 6.8 C 345.2 6.8 342.2 6.5 345.8 6.5 C 346.0 6.6 346.8 6.6 348.5 6.6 C 348.5 6.7 348.5 6.9 348.5 7.0 C 346.5 7.1 344.2 7.1 342.8 7.2 C 344.2 7.2 344.5 7.3 345.7 7.3 C 346.5 7.2 352.3 7.3 352.7 7.1 C 350.4 7.2 348.9 7.0 351.3 7.0 C 351.7 7.0 355.6 7.1 357.0 7.0 C 352.0 6.9 354.0 6.8 351.4 6.6 C 357.0 6.5 356.1 6.8 362.6 6.7 C 362.7 6.9 362.7 7.1 361.0 7.2 C 365.1 7.7 374.7 7.3 377.9 7.3 C 375.7 7.3 373.2 7.6 376.4 7.6 C 376.5 7.5 378.9 7.6 379.3 7.5 C 380.5 7.0 377.7 6.8 375.3 6.5 C 377.9 6.5 378.4 6.4 380.9 6.4 C 381.7 6.6 379.0 7.0 382.2 7.0 C 382.9 6.6 388.1 6.9 389.2 6.7 C 387.0 6.7 385.5 6.6 387.9 6.5 C 387.4 6.7 392.0 6.6 392.1 6.7 C 388.4 6.9 387.4 7.1 385.0 7.1 C 387.9 7.1 382.8 7.3 387.7 7.3 C 389.9 7.1 391.1 6.9 396.3 6.9 C 398.2 7.0 396.4 7.2 399.0 7.2 C 398.3 7.0 404.0 6.9 400.5 7.2 C 402.4 7.2 403.5 7.2 404.6 7.2 C 401.9 7.0 415.3 6.7 413.3 6.5 C 413.2 6.9 413.8 7.1 414.4 7.2 C 417.1 6.9 420.1 7.2 427.2 7.2 C 427.0 6.8 428.3 7.1 431.3 7.1 C 431.9 6.9 429.4 6.9 431.4 6.8 C 434.8 6.9 434.9 7.0 435.6 7.1 C 438.1 7.1 440.0 7.1 441.2 7.2 C 441.4 7.0 440.6 7.0 439.9 6.9 C 449.2 7.2 454.3 6.9 462.4 6.9 C 459.0 6.8 458.1 7.2 460.9 7.2 C 462.6 7.1 464.1 7.1 465.1 7.0 C 463.3 6.8 464.0 6.9 468.0 6.9 C 471.6 6.8 466.8 6.5 469.6 6.5 C 472.5 6.6 470.7 6.8 472.3 6.8 C 473.7 6.8 475.2 6.8 476.5 6.8 C 474.0 6.7 476.9 6.6 479.4 6.5 C 477.5 6.8 478.6 6.9 483.6 6.8 C 484.0 6.9 481.4 7.0 483.4 7.0 C 484.5 7.0 488.5 6.7 491.8 6.9 C 490.7 6.9 490.2 7.0 490.4 7.1 C 494.2 6.9 496.9 7.2 500.1 7.3 C 496.9 7.1 498.8 6.9 497.5 6.8 C 500.7 7.0 504.8 6.7 507.3 7.0 C 502.5 6.9 506.9 7.5 509.9 7.5 C 510.7 7.2 505.6 7.3 507.3 7.0 C 509.0 6.8 512.5 7.2 514.3 6.9 C 514.1 6.8 512.1 7.0 511.6 6.8 C 514.2 6.8 510.9 6.7 513.1 6.7 C 514.3 6.9 516.0 6.6 517.4 6.6 C 519.1 6.7 522.6 7.0 524.2 6.8 C 524.3 6.7 521.8 6.8 521.6 6.7 C 529.4 6.5 531.5 6.9 538.5 6.6 C 539.3 6.7 540.6 6.8 542.6 6.8 C 542.6 6.7 543.9 6.6 545.5 6.6 C 548.5 6.7 551.4 6.8 555.2 6.9 C 554.3 7.1 552.5 7.2 557.7 7.2 C 558.0 7.1 555.8 7.1 557.8 7.1 C 557.8 7.1 559.0 7.2 559.3 7.1 C 559.3 7.0 559.4 7.0 559.4 6.9 C 557.9 6.9 556.5 6.9 555.2 6.9 C 555.4 6.8 555.1 6.7 554.0 6.6 C 560.3 6.5 559.5 7.0 563.6 6.8 C 564.0 7.1 565.3 7.2 561.7 7.5 C 565.3 7.4 567.9 7.3 569.0 7.1 C 564.7 7.1 566.3 6.8 565.2 6.7 C 567.9 6.7 568.0 6.6 569.5 6.5 C 572.5 6.7 565.8 7.0 572.0 7.0 C 567.5 6.7 576.0 6.7 579.1 6.8 C 578.6 6.7 577.5 6.7 579.3 6.6 C 587.8 6.4 586.4 7.3 591.7 6.8 C 591.1 7.0 593.5 7.0 594.4 7.1 C 590.2 7.2 589.1 7.2 587.2 7.2 C 587.4 7.3 588.6 7.4 589.8 7.4 C 590.0 7.3 591.1 7.2 592.8 7.3 C 594.1 7.2 594.0 6.8 597.5 6.6 C 597.7 6.7 597.2 6.8 598.8 6.8 C 600.5 6.6 597.2 7.3 604.1 7.2 C 603.0 7.1 602.4 6.9 603.1 6.8 C 606.5 6.7 605.7 6.8 610.2 6.7 C 611.5 7.1 606.8 7.2 605.3 7.4 C 608.4 7.3 611.1 7.1 613.9 7.2 C 611.7 7.1 614.2 6.9 617.0 6.8 C 619.5 6.9 616.6 7.2 619.5 7.2 C 621.9 7.2 623.4 7.0 621.3 6.8 C 626.4 6.9 625.5 6.6 629.8 6.7 C 629.8 6.8 628.6 6.9 627.0 6.8 C 627.2 6.9 626.5 7.0 628.1 7.0 C 630.2 6.9 633.7 6.8 636.9 6.7 C 636.9 8.3 637.0 9.8 637.0 10.9 C 636.6 17.7 637.1 24.8 637.0 31.5 C 636.7 29.0 636.9 40.1 636.6 43.4 C 636.7 45.3 637.2 51.2 637.0 49.0 C 636.7 49.7 636.8 53.5 636.7 56.5 C 636.8 56.5 636.9 56.5 637.0 56.5 C 637.0 63.0 636.8 64.5 636.5 66.7 C 636.7 74.6 636.4 83.2 636.6 92.9 C 636.3 95.3 636.4 97.4 636.2 103.0 C 636.5 102.9 636.5 107.5 636.5 111.7 C 636.7 110.8 636.6 114.8 636.8 114.9 C 636.8 111.0 637.1 112.6 637.2 110.6 C 636.9 115.6 637.4 118.5 637.2 122.4 C 637.1 117.3 636.8 115.5 636.4 114.7 C 636.5 120.6 636.4 123.7 636.2 124.7 C 636.3 125.2 636.5 124.6 636.5 123.4 C 636.5 125.4 636.5 127.4 636.5 129.2 C 636.4 129.7 636.3 126.9 636.3 129.0 C 636.4 130.5 636.5 132.1 636.5 133.6 C 636.3 135.1 636.4 131.2 636.2 130.5 C 636.1 138.2 636.6 135.2 636.7 139.5 C 636.5 140.5 636.3 140.0 636.2 143.5 C 636.4 145.1 636.6 145.7 636.6 149.7 C 636.6 150.1 636.6 150.3 636.6 150.5 C 635.5 150.4 636.7 150.1 634.3 150.1 C 634.0 150.2 632.7 150.2 631.4 150.1 C 631.7 150.3 630.5 150.3 628.9 150.4 C 628.4 150.2 625.7 150.3 624.7 150.4 C 624.3 150.2 619.7 149.9 618.9 150.1 C 619.0 150.2 621.4 150.2 621.8 150.3 C 618.6 150.3 616.5 150.3 614.9 150.4 C 613.4 149.8 608.7 150.2 602.0 150.0 C 598.2 150.1 603.2 150.4 598.3 150.5 C 595.1 150.4 598.8 150.3 597.8 150.0 C 597.0 150.0 592.2 149.8 592.3 150.0 C 592.3 150.1 594.8 150.1 595.1 150.2 C 591.6 150.4 591.5 150.1 589.4 150.0 C 589.8 150.2 587.4 150.3 587.0 150.4 C 577.1 150.6 576.8 150.2 572.6 150.0 C 572.7 150.1 570.2 150.0 570.0 150.1 C 572.8 150.0 576.8 150.2 572.8 150.3 C 573.4 150.2 567.7 150.3 567.3 150.4 C 568.1 150.5 571.8 150.4 570.5 150.7 C 565.2 150.8 567.0 150.3 563.2 150.5 C 562.7 150.4 565.0 150.4 565.9 150.3 C 564.2 150.3 562.0 150.3 561.6 150.2 C 563.6 150.1 563.4 149.9 564.1 149.8 C 561.6 150.0 556.5 149.8 560.2 150.1 C 554.5 150.0 549.3 150.2 553.4 150.4 C 548.9 150.5 551.2 150.2 547.7 150.4 C 548.0 150.1 549.0 149.9 545.8 149.7 C 545.4 149.9 543.0 149.9 543.4 150.1 C 536.7 150.1 534.6 149.9 531.7 149.6 C 534.5 150.0 530.9 149.7 527.9 150.0 C 525.8 149.9 527.4 149.5 522.0 149.6 C 528.2 150.0 515.3 149.7 518.2 150.1 C 511.1 149.9 511.3 149.9 504.0 149.9 C 504.5 149.7 506.2 149.6 509.3 149.6 C 507.3 149.8 515.6 149.8 515.0 149.6 C 514.9 149.6 514.9 149.5 514.8 149.5 C 509.6 149.5 506.0 149.5 503.5 149.3 C 502.6 149.5 500.2 149.6 501.3 149.9 C 496.0 149.6 491.0 150.0 488.5 149.7 C 490.2 149.7 491.9 149.7 491.2 149.6 C 489.2 149.6 486.8 149.7 487.2 149.9 C 491.4 149.9 492.2 150.0 494.1 149.8 C 492.5 150.0 498.5 150.1 494.4 150.2 C 494.3 149.8 486.3 150.4 488.8 150.1 C 493.2 150.0 483.6 149.9 483.0 149.7 C 483.0 149.7 483.0 149.7 483.0 149.7 Z M 8.0 53.5 C 8.1 57.9 8.3 52.8 8.3 49.5 C 8.2 50.5 8.1 50.8 8.0 50.7 C 8.0 52.0 8.1 53.3 8.0 53.5 C 8.0 53.5 8.0 53.5 8.0 53.5 Z M 11.5 11.5 C 11.2 9.9 11.4 17.0 11.3 19.8 C 11.4 19.0 11.5 18.1 11.5 19.9 C 11.7 17.1 11.3 15.6 11.5 11.5 C 11.5 11.5 11.5 11.5 11.5 11.5 Z M 164.4 9.9 C 163.3 9.9 160.6 10.0 160.3 9.9 C 158.7 9.9 159.2 10.0 158.9 10.1 C 155.7 10.1 159.6 9.7 154.6 9.9 C 152.9 10.3 163.6 10.4 164.4 9.9 C 164.4 9.9 164.4 9.9 164.4 9.9 Z M 533.1 146.1 C 531.0 146.0 535.5 145.8 534.0 145.6 C 526.4 145.8 532.6 146.1 521.9 146.0 C 522.6 146.0 523.5 146.1 523.4 146.2 C 528.4 146.1 528.6 145.9 527.8 146.4 C 530.1 146.4 530.2 145.9 533.1 146.1 C 533.1 146.1 533.1 146.1 533.1 146.1 Z M 432.4 145.1 C 433.2 145.2 433.9 145.2 434.0 145.3 C 437.2 145.2 436.5 145.2 440.9 145.3 C 440.1 144.9 435.9 144.9 432.4 145.1 C 432.4 145.1 432.4 145.1 432.4 145.1 Z M 169.0 144.5 C 168.0 144.5 167.1 144.5 166.1 144.5 C 166.8 144.7 164.4 145.0 169.1 144.9 C 169.3 144.9 168.5 144.9 167.7 144.9 C 168.5 144.8 170.8 144.8 170.3 144.6 C 169.1 144.6 169.0 144.6 169.0 144.5 C 169.0 144.5 169.0 144.5 169.0 144.5 Z M 58.3 146.8 C 63.7 146.5 50.4 146.0 58.3 146.8 C 58.3 146.8 58.3 146.8 58.3 146.8 C 58.3 146.8 58.3 146.8 58.3 146.8 Z M 69.8 149.6 C 69.9 149.7 71.2 149.6 71.1 149.6 C 75.8 149.7 71.3 149.8 73.9 149.9 C 77.6 149.7 72.0 149.5 76.7 149.3 C 75.7 149.2 72.5 149.6 69.8 149.6 C 69.8 149.6 69.8 149.6 69.8 149.6 Z M 585.9 7.0 C 582.0 7.1 580.8 7.3 579.9 7.5 C 582.5 7.6 584.6 7.6 585.3 7.7 C 590.4 7.6 582.2 7.5 581.4 7.5 C 582.2 7.3 585.7 7.2 585.9 7.0 C 585.9 7.0 585.9 7.0 585.9 7.0 Z M 573.3 7.1 C 571.5 7.2 569.0 7.3 568.7 7.5 C 571.2 7.4 571.4 7.5 571.5 7.6 C 573.8 7.5 571.1 7.3 573.3 7.1 C 573.3 7.1 573.3 7.1 573.3 7.1 Z M 596.9 7.3 C 595.1 7.3 595.6 7.5 595.3 7.6 C 597.9 7.6 598.2 7.7 600.8 7.7 C 600.9 7.6 600.9 7.5 601.0 7.5 C 598.8 7.4 598.6 7.5 596.7 7.5 C 596.8 7.5 596.8 7.4 596.9 7.3 C 596.9 7.3 596.9 7.3 596.9 7.3 Z M 560.4 7.4 C 553.1 7.4 549.5 7.8 544.4 8.1 C 549.8 8.1 555.0 7.6 558.7 7.7 C 563.4 7.6 557.3 7.5 557.5 7.5 C 557.7 7.4 559.3 7.4 560.4 7.4 C 560.4 7.4 560.4 7.4 560.4 7.4 Z M 495.8 7.4 C 494.4 7.2 491.5 7.6 487.3 7.5 C 488.0 7.6 488.7 7.7 488.6 7.8 C 494.6 7.9 491.3 7.4 495.8 7.4 C 495.8 7.4 495.8 7.4 495.8 7.4 Z M 460.7 7.5 C 457.0 7.6 462.6 7.7 460.6 7.9 C 464.7 7.9 469.0 7.9 469.0 7.6 C 464.6 7.8 463.6 7.8 460.7 7.5 C 460.7 7.5 460.7 7.5 460.7 7.5 Z M 435.4 7.5 C 431.3 7.7 437.1 7.9 435.2 8.1 C 436.9 8.1 436.5 8.0 436.7 7.9 C 437.9 7.9 439.0 8.0 440.9 8.0 C 439.6 7.8 434.8 7.8 435.4 7.5 C 435.4 7.5 435.4 7.5 435.4 7.5 Z M 635.9 61.0 C 635.9 58.5 635.6 59.3 635.7 53.9 C 635.7 62.0 634.9 57.8 635.1 68.3 C 635.1 66.6 635.3 67.7 635.1 68.3 C 635.3 72.3 635.3 64.5 635.5 68.2 C 635.5 65.3 635.2 67.0 635.2 64.1 C 635.5 61.0 635.6 59.1 635.9 61.0 C 635.9 61.0 635.9 61.0 635.9 61.0 Z M 634.8 68.3 C 634.7 71.2 635.2 71.2 635.0 72.6 C 635.0 74.0 635.1 73.7 635.1 74.0 C 635.1 72.9 635.2 72.7 635.2 72.6 C 635.1 70.1 635.1 67.6 634.8 68.3 C 634.8 68.3 634.8 68.3 634.8 68.3 Z M 634.8 41.3 C 634.9 46.1 634.8 47.6 635.0 49.9 C 634.6 51.7 635.1 53.0 634.8 55.6 C 634.9 60.3 635.0 56.8 635.1 55.5 C 635.2 60.1 634.9 56.7 635.0 61.2 C 635.3 62.0 635.2 56.2 635.4 56.8 C 635.5 53.3 635.3 53.4 635.2 51.2 C 635.2 49.5 635.4 50.0 635.4 49.7 C 635.4 45.6 635.6 45.8 635.5 42.5 C 635.3 41.8 635.2 43.2 635.3 46.9 C 635.2 43.1 635.0 41.5 635.1 37.0 C 635.4 40.1 635.5 25.6 635.0 27.1 C 635.0 31.0 635.2 29.7 635.3 31.2 C 635.1 36.4 635.1 39.4 634.8 41.3 C 634.8 41.3 634.8 41.3 634.8 41.3 Z M 597.7 8.1 C 596.5 8.1 595.5 8.0 593.5 8.0 C 593.6 7.8 596.0 7.9 593.8 7.7 C 590.8 7.7 590.1 7.8 588.1 7.8 C 589.1 7.9 595.2 8.2 591.8 8.3 C 592.7 8.4 594.7 8.4 597.3 8.4 C 594.6 8.1 601.5 8.4 604.4 8.4 C 604.4 8.1 609.2 8.5 611.5 8.3 C 610.0 8.1 604.1 8.3 601.7 8.3 C 602.9 8.2 595.2 7.7 597.7 8.1 C 597.7 8.1 597.7 8.1 597.7 8.1 Z M 635.0 79.7 C 635.0 80.5 635.1 83.7 635.1 81.2 C 635.2 82.5 635.1 85.1 635.4 84.0 C 635.4 85.6 635.4 87.0 635.4 88.3 C 635.3 87.8 635.4 83.9 635.1 85.4 C 635.3 88.3 635.1 87.2 635.1 91.1 C 634.9 89.0 634.9 91.2 634.6 89.6 C 634.7 90.7 634.7 94.2 634.9 94.0 C 634.8 99.3 634.6 92.4 634.6 99.5 C 634.4 99.3 634.4 94.3 634.5 92.5 C 634.3 91.5 634.4 101.3 634.3 106.5 C 634.5 101.9 634.8 105.7 635.0 108.1 C 634.9 109.7 634.8 108.0 634.6 110.9 C 634.6 113.2 634.8 114.5 634.6 115.2 C 634.7 117.1 634.9 116.4 635.0 116.7 C 634.9 120.0 634.6 117.3 634.6 122.2 C 635.0 118.8 635.1 123.0 635.0 129.5 C 635.1 129.1 635.1 127.1 635.2 126.9 C 635.4 128.0 635.1 131.5 635.0 132.4 C 635.0 134.8 635.2 133.4 635.1 131.1 C 635.2 132.6 635.3 134.0 635.4 135.6 C 635.4 128.5 635.3 117.2 635.7 104.2 C 635.5 106.7 635.4 103.7 635.5 99.8 C 635.7 99.3 635.7 101.0 635.7 102.8 C 636.0 98.3 635.3 98.4 635.5 91.3 C 635.6 87.4 635.7 95.7 635.8 91.4 C 635.8 88.7 635.6 86.8 635.8 85.6 C 635.7 81.0 635.4 79.7 635.4 72.6 C 635.3 76.6 634.8 78.4 634.9 82.6 C 635.0 82.6 635.0 80.8 635.0 79.7 C 635.0 79.7 635.0 79.7 635.0 79.7 Z M 571.3 7.8 C 568.9 7.8 567.5 7.9 567.1 7.8 C 562.8 7.9 567.4 8.1 568.2 8.1 C 570.2 8.1 570.9 7.9 571.3 7.8 C 571.3 7.8 571.3 7.8 571.3 7.8 Z M 145.1 7.8 C 139.8 7.7 141.0 8.0 136.8 8.0 C 140.3 8.1 141.2 8.3 146.8 8.3 C 146.9 8.1 146.8 7.9 145.1 7.8 C 145.1 7.8 145.1 7.8 145.1 7.8 Z M 585.1 8.0 C 588.8 7.7 580.8 8.3 581.0 8.0 C 576.9 8.2 584.5 8.2 580.6 8.4 C 584.2 8.3 586.0 8.5 590.4 8.3 C 590.4 8.2 587.0 8.2 583.6 8.2 C 583.3 8.1 585.1 8.0 585.1 8.0 C 585.1 8.0 585.1 8.0 585.1 8.0 Z M 200.1 8.4 C 203.7 8.2 196.5 8.0 194.2 7.9 C 194.2 8.2 195.3 8.2 200.1 8.4 C 200.1 8.4 200.1 8.4 200.1 8.4 Z M 108.9 8.2 C 107.1 8.5 115.2 8.2 113.4 8.5 C 115.8 8.5 116.0 8.4 116.1 8.3 C 117.4 8.4 121.3 8.4 120.4 8.6 C 121.2 8.8 114.1 8.5 116.4 8.8 C 114.1 8.9 113.9 8.8 112.2 8.8 C 116.3 8.8 114.2 8.5 109.1 8.4 C 109.2 8.6 111.5 8.6 109.3 8.8 C 108.9 8.6 106.2 8.5 106.1 8.1 C 101.8 8.1 104.7 8.5 99.5 8.5 C 100.0 8.7 103.2 8.7 105.2 8.8 C 104.8 9.0 99.6 8.5 101.1 8.9 C 99.9 8.7 96.8 8.6 96.5 8.4 C 100.4 8.3 102.8 8.1 106.0 8.0 C 102.9 7.8 98.9 8.4 93.6 8.1 C 94.3 8.3 91.1 8.3 92.4 8.5 C 88.2 8.5 89.9 8.1 90.7 8.1 C 89.5 8.0 81.7 8.1 82.4 8.3 C 81.7 8.1 72.1 8.1 72.8 8.4 C 69.8 8.2 65.7 8.6 64.2 8.3 C 62.6 8.4 59.4 8.4 55.8 8.4 C 55.1 8.6 61.1 8.5 61.7 8.7 C 62.9 8.9 55.1 8.6 56.2 8.8 C 56.3 8.9 56.3 8.9 56.4 9.0 C 59.2 8.9 61.9 8.8 64.6 8.8 C 66.7 8.8 64.1 8.9 64.8 9.0 C 66.6 8.8 75.3 8.5 76.0 9.0 C 81.9 8.9 86.1 8.9 88.5 8.8 C 92.0 8.8 86.5 8.9 88.7 9.1 C 98.9 8.7 112.0 9.1 120.5 8.8 C 122.4 8.8 121.8 9.0 122.2 9.1 C 134.1 8.9 123.6 8.6 133.1 8.7 C 133.2 8.9 128.7 8.8 129.1 9.1 C 132.4 9.1 133.1 8.9 137.5 9.0 C 137.4 8.9 137.4 8.8 137.3 8.7 C 140.9 8.7 139.7 9.0 141.6 9.1 C 146.1 9.0 144.9 8.8 147.3 9.2 C 151.4 9.0 155.5 9.0 159.9 9.1 C 162.7 8.9 157.0 8.5 152.5 8.5 C 152.7 8.4 154.0 8.4 153.9 8.4 C 159.2 8.6 160.3 9.0 168.2 9.1 C 162.1 8.8 171.3 9.0 172.4 9.2 C 175.7 9.1 173.1 8.8 170.9 8.8 C 171.3 8.7 173.4 8.8 173.7 8.9 C 173.9 8.5 166.2 8.4 158.2 8.5 C 161.7 8.1 152.5 8.5 156.5 8.0 C 150.0 8.1 155.7 8.4 148.3 8.4 C 149.1 8.5 150.5 8.6 151.2 8.7 C 145.7 8.7 147.1 8.4 141.3 8.4 C 140.4 8.6 144.2 8.6 144.3 8.8 C 137.8 8.5 135.7 8.4 131.3 8.2 C 130.6 8.3 131.8 8.6 124.5 8.4 C 124.5 8.4 124.4 8.3 124.4 8.3 C 127.8 8.3 128.4 7.9 119.9 7.9 C 119.5 8.0 122.0 8.0 124.2 8.0 C 123.4 8.2 120.7 8.2 117.4 8.3 C 115.8 8.2 113.8 8.1 116.0 8.1 C 114.4 7.9 113.5 8.3 108.9 8.2 C 108.9 8.2 108.9 8.2 108.9 8.2 Z M 502.5 8.0 C 501.4 8.0 500.3 8.0 498.2 8.0 C 497.1 8.2 501.0 8.2 500.9 8.3 C 503.9 8.4 501.7 8.1 502.5 8.0 C 502.5 8.0 502.5 8.0 502.5 8.0 Z M 541.6 8.1 C 541.5 7.9 539.2 8.2 536.0 8.1 C 534.9 8.3 538.7 8.3 538.6 8.4 C 542.4 8.5 537.9 8.0 541.6 8.1 C 541.6 8.1 541.6 8.1 541.6 8.1 Z M 524.8 8.1 C 523.4 7.9 523.2 8.2 526.2 8.2 C 525.9 8.3 525.1 8.5 523.2 8.5 C 525.0 8.8 526.7 8.3 530.2 8.4 C 529.0 8.3 527.2 8.2 524.8 8.1 C 524.8 8.1 524.8 8.1 524.8 8.1 Z M 519.2 8.1 C 517.0 8.3 515.8 8.1 512.2 8.2 C 512.9 8.4 520.7 8.3 522.0 8.2 C 523.4 8.0 515.0 8.0 519.2 8.1 C 519.2 8.1 519.2 8.1 519.2 8.1 Z M 256.1 8.8 C 254.7 8.8 255.0 8.8 254.7 8.9 C 250.3 8.5 244.3 8.6 249.0 8.3 C 244.5 8.5 240.2 8.2 236.4 8.1 C 233.1 8.1 234.8 8.3 232.2 8.4 C 228.1 8.3 234.4 8.2 233.5 8.1 C 232.7 7.9 231.5 8.3 226.6 8.2 C 228.1 8.6 222.3 8.2 224.0 8.6 C 221.2 8.4 220.4 8.6 216.9 8.6 C 217.4 8.8 220.8 8.7 221.2 8.9 C 223.1 9.2 223.1 8.7 219.8 8.8 C 221.6 8.5 226.7 8.9 228.1 8.7 C 229.9 8.9 223.6 8.7 225.5 9.0 C 226.7 9.0 227.9 8.9 228.1 8.8 C 230.2 8.9 231.6 9.0 232.4 9.1 C 231.2 9.1 231.1 9.0 231.1 9.0 C 228.5 9.0 233.8 9.4 228.3 9.4 C 229.3 9.5 231.6 9.5 231.2 9.6 C 232.9 9.8 231.0 9.0 236.7 9.2 C 240.3 9.0 227.9 9.0 230.9 8.5 C 238.7 8.6 234.4 8.9 240.7 9.0 C 240.7 8.9 240.5 8.8 242.2 8.8 C 241.9 8.7 239.6 8.7 237.9 8.7 C 238.2 8.6 240.5 8.6 242.1 8.6 C 241.8 8.5 240.6 8.5 240.6 8.4 C 245.9 8.5 245.5 9.0 240.8 9.1 C 241.0 9.4 247.5 9.3 249.2 9.2 C 247.4 9.0 249.3 9.1 247.8 8.8 C 246.4 8.8 246.7 8.9 246.3 9.0 C 243.8 8.9 246.1 8.8 246.2 8.8 C 249.1 8.8 249.0 9.0 251.9 8.8 C 251.2 8.9 250.5 9.0 250.5 9.1 C 251.9 9.1 253.4 9.1 254.8 9.1 C 254.6 8.9 256.4 8.9 256.1 8.8 C 256.1 8.8 256.1 8.8 256.1 8.8 Z M 183.1 8.1 C 178.5 8.1 181.0 8.3 183.2 8.3 C 182.3 8.3 180.7 8.4 179.1 8.4 C 180.5 8.5 181.7 8.5 186.0 8.5 C 182.4 8.8 186.5 9.3 193.4 9.2 C 195.3 8.8 189.4 8.7 191.6 8.4 C 186.6 8.6 183.8 8.4 183.1 8.1 C 183.1 8.1 183.1 8.1 183.1 8.1 Z M 568.1 8.2 C 565.4 8.2 562.6 8.2 559.8 8.2 C 559.9 8.4 568.5 8.6 568.1 8.2 C 568.1 8.2 568.1 8.2 568.1 8.2 Z M 635.1 140.9 C 635.1 142.2 635.0 142.3 635.0 142.4 C 635.0 146.6 635.2 140.6 635.4 142.7 C 635.4 141.2 635.4 139.8 635.4 138.4 C 635.3 138.0 635.1 144.1 635.1 139.5 C 635.0 139.7 635.0 140.9 635.1 140.9 C 635.1 140.9 635.1 140.9 635.1 140.9 Z M 505.2 8.3 C 502.5 8.4 504.0 8.7 497.9 8.6 C 500.0 8.8 501.4 8.7 504.9 8.7 C 505.0 8.5 505.1 8.4 505.2 8.3 C 505.2 8.3 505.2 8.3 505.2 8.3 Z M 277.0 8.3 C 273.4 8.1 272.5 8.7 265.8 8.5 C 269.3 8.8 273.0 8.4 277.0 8.3 C 277.0 8.3 277.0 8.3 277.0 8.3 Z M 45.0 8.8 C 47.1 8.8 44.5 8.9 48.0 9.0 C 49.9 8.9 50.6 8.8 53.4 8.8 C 49.2 8.5 42.4 8.8 39.2 8.3 C 35.8 8.4 36.3 8.7 35.4 8.8 C 37.0 8.8 37.8 8.8 38.2 8.9 C 39.9 8.6 42.9 9.1 45.0 8.8 C 45.0 8.8 45.0 8.8 45.0 8.8 Z M 201.5 8.5 C 204.1 8.6 199.8 8.7 198.9 8.9 C 197.0 8.9 197.6 8.7 197.3 8.6 C 194.8 8.6 194.2 8.7 194.7 8.9 C 199.3 9.0 205.0 9.0 201.8 9.3 C 206.3 9.4 203.7 9.0 205.9 9.0 C 208.4 9.2 206.1 9.2 206.0 9.5 C 207.1 9.4 210.4 9.1 210.3 9.5 C 216.8 9.1 213.7 8.7 208.5 8.3 C 204.1 8.6 209.3 8.7 201.5 8.5 C 201.5 8.5 201.5 8.5 201.5 8.5 Z M 379.1 8.8 C 378.7 8.7 376.3 8.7 376.3 8.6 C 373.2 8.8 370.6 9.1 367.9 9.3 C 368.4 9.5 372.2 9.3 370.6 9.1 C 371.8 9.3 374.5 9.4 376.1 9.5 C 379.0 9.6 380.0 9.1 380.3 9.5 C 383.1 9.3 381.5 9.3 385.9 9.4 C 378.9 9.1 388.4 9.3 388.9 9.0 C 384.8 9.0 381.2 9.0 381.7 9.2 C 378.8 9.1 375.5 9.1 374.9 8.8 C 375.2 8.7 377.5 8.8 379.1 8.8 C 379.1 8.8 379.1 8.8 379.1 8.8 Z M 362.3 9.5 C 363.3 9.4 364.4 9.4 366.3 9.4 C 365.3 9.3 364.9 9.2 365.0 9.1 C 361.5 9.1 360.7 9.2 359.5 9.0 C 356.2 9.0 360.2 9.4 355.2 9.2 C 355.6 9.3 358.1 9.3 358.0 9.4 C 358.5 9.2 360.5 9.2 362.3 9.5 C 362.3 9.5 362.3 9.5 362.3 9.5 Z M 319.0 9.0 C 315.3 9.0 320.9 9.1 319.0 9.3 C 320.0 9.3 326.9 9.3 326.0 9.6 C 328.0 9.9 335.1 9.2 334.4 9.6 C 336.0 9.6 335.5 9.5 335.7 9.4 C 330.9 9.5 330.9 9.3 334.4 9.2 C 333.9 9.1 330.9 9.2 328.8 9.1 C 328.5 9.3 330.4 9.3 330.2 9.5 C 326.0 9.3 322.8 9.1 319.0 9.0 C 319.0 9.0 319.0 9.0 319.0 9.0 Z M 490.5 148.5 C 493.8 148.5 495.8 148.4 497.4 148.4 C 496.3 148.2 494.8 148.4 493.2 148.4 C 492.6 148.2 494.1 148.2 495.9 148.2 C 494.1 148.0 488.4 148.2 490.5 148.5 C 490.5 148.5 490.5 148.5 490.5 148.5 Z M 518.4 148.5 C 521.5 148.5 523.5 148.4 523.8 148.3 C 522.4 148.1 523.1 148.4 521.0 148.4 C 519.7 148.3 518.8 148.2 518.1 148.1 C 516.7 148.1 517.1 148.2 516.7 148.3 C 515.7 148.3 515.5 148.3 515.3 148.2 C 511.7 148.4 519.8 148.2 518.4 148.5 C 518.4 148.5 518.4 148.5 518.4 148.5 Z M 342.7 9.1 C 343.9 9.3 344.9 9.4 348.3 9.4 C 347.6 9.2 350.3 9.2 352.5 9.2 C 349.2 9.0 347.6 9.1 342.7 9.1 C 342.7 9.1 342.7 9.1 342.7 9.1 Z M 634.4 89.6 C 634.6 85.3 634.2 85.7 634.4 79.7 C 634.3 79.7 634.2 79.7 634.2 79.7 C 634.4 83.4 634.2 85.0 634.4 89.6 C 634.4 89.6 634.4 89.6 634.4 89.6 Z M 116.9 148.3 C 117.3 148.1 113.0 148.2 112.7 148.1 C 111.9 148.4 109.7 147.8 101.5 147.9 C 101.4 147.8 101.9 147.8 103.0 147.7 C 96.3 147.7 104.9 148.0 105.8 148.2 C 110.9 148.2 111.8 148.4 116.9 148.3 C 116.9 148.3 116.9 148.3 116.9 148.3 Z M 87.5 9.5 C 87.7 9.4 86.9 9.4 86.1 9.4 C 85.1 9.4 84.2 9.4 83.3 9.4 C 83.9 9.7 88.6 9.9 85.3 10.2 C 86.6 10.2 86.7 10.2 86.6 10.1 C 92.9 9.4 99.0 10.6 107.5 10.1 C 108.9 10.1 108.5 10.0 108.8 10.0 C 107.7 10.0 107.5 9.9 107.3 9.9 C 106.5 10.2 98.2 9.8 101.7 9.7 C 101.3 9.6 100.3 9.7 100.3 9.7 C 99.4 9.7 98.4 9.7 97.5 9.7 C 98.1 9.8 100.0 9.8 100.5 10.0 C 95.9 9.9 90.4 9.8 93.1 9.5 C 90.4 9.5 89.5 9.6 87.7 9.7 C 85.9 9.7 85.7 9.5 87.5 9.5 C 87.5 9.5 87.5 9.5 87.5 9.5 Z M 51.4 9.6 C 47.0 9.5 48.9 9.8 44.5 9.7 C 47.4 9.9 50.5 9.6 54.3 9.8 C 53.7 9.7 51.8 9.7 51.4 9.6 C 51.4 9.6 51.4 9.6 51.4 9.6 Z M 132.3 9.9 C 131.7 10.2 135.5 10.2 139.6 10.2 C 140.2 9.9 136.5 9.9 132.3 9.9 C 132.3 9.9 132.3 9.9 132.3 9.9 Z M 114.3 9.9 C 110.3 10.0 119.5 9.9 117.3 10.2 C 119.2 10.2 121.3 10.2 121.4 10.3 C 122.9 10.2 122.8 10.1 125.6 10.1 C 125.3 10.0 120.9 10.1 121.2 9.9 C 118.2 10.0 117.6 10.0 114.3 9.9 C 114.3 9.9 114.3 9.9 114.3 9.9 Z M 111.6 9.9 C 108.9 9.9 112.6 10.4 115.9 10.4 C 114.6 10.2 113.7 10.0 111.6 9.9 C 111.6 9.9 111.6 9.9 111.6 9.9 Z M 437.3 9.9 C 435.4 10.0 436.8 10.2 434.5 10.2 C 434.4 10.3 442.7 10.3 435.8 10.4 C 438.2 10.6 439.7 10.2 442.8 10.3 C 441.9 10.2 441.1 10.1 442.9 10.1 C 443.9 9.9 436.2 10.2 437.3 9.9 C 437.3 9.9 437.3 9.9 437.3 9.9 Z M 429.0 9.9 C 427.3 10.0 428.1 10.0 429.0 10.0 C 428.7 10.1 426.4 10.1 424.7 10.1 C 424.6 10.0 427.6 10.5 427.4 10.7 C 434.5 10.5 429.2 10.2 429.0 9.9 C 429.0 9.9 429.0 9.9 429.0 9.9 Z M 422.0 10.1 C 417.5 9.9 411.1 9.9 408.0 10.2 C 411.2 10.5 419.7 10.4 422.0 10.1 C 422.0 10.1 422.0 10.1 422.0 10.1 Z M 467.8 10.2 C 459.7 9.9 443.1 10.3 457.9 10.5 C 457.5 10.3 467.3 10.2 472.0 10.4 C 472.1 10.2 477.5 10.0 477.6 10.2 C 481.4 10.0 466.0 10.0 467.8 10.2 C 467.8 10.2 467.8 10.2 467.8 10.2 Z M 402.3 10.7 C 404.7 10.6 401.8 10.1 405.3 10.3 C 407.3 10.2 404.8 10.2 405.3 10.0 C 401.0 10.0 392.1 10.3 391.4 10.0 C 389.2 10.1 388.5 10.3 384.4 10.3 C 384.2 10.4 399.2 10.0 402.4 10.5 C 402.1 10.6 396.6 10.7 402.3 10.7 C 402.3 10.7 402.3 10.7 402.3 10.7 Z M 633.0 89.4 C 633.2 89.8 633.0 84.0 633.3 85.2 C 633.0 82.1 633.2 79.1 633.0 75.6 C 633.0 74.5 633.4 74.9 633.4 70.0 C 633.2 69.9 633.3 72.4 633.1 70.1 C 633.1 65.6 633.4 66.8 633.3 61.7 C 632.9 62.6 633.2 50.9 632.8 52.1 C 632.8 54.8 633.0 54.6 633.0 59.0 C 632.9 60.5 632.8 59.9 632.8 61.8 C 632.6 60.5 632.9 58.1 632.7 56.3 C 632.6 56.7 632.6 60.1 632.4 60.5 C 632.4 62.5 632.5 60.0 632.6 60.5 C 632.7 65.8 632.1 60.2 632.2 66.1 C 632.4 64.8 632.4 64.8 632.6 66.0 C 632.5 68.3 632.7 75.4 632.4 71.5 C 632.2 71.9 632.5 76.2 632.6 75.6 C 632.7 77.9 632.6 78.2 632.5 78.3 C 632.6 84.2 632.8 85.0 633.0 83.8 C 633.3 85.1 632.9 85.8 633.0 89.4 C 633.0 89.4 633.0 89.4 633.0 89.4 Z M 512.3 10.3 C 515.6 10.1 508.6 10.3 505.4 10.3 C 509.3 10.3 507.8 10.6 512.0 10.7 C 510.6 10.6 510.9 10.5 513.6 10.5 C 514.4 10.4 508.3 10.3 512.3 10.3 C 512.3 10.3 512.3 10.3 512.3 10.3 Z M 376.0 10.3 C 374.5 10.1 367.3 10.2 363.5 10.2 C 364.1 10.6 373.4 10.0 374.6 10.4 C 376.8 10.4 373.4 10.3 376.0 10.3 C 376.0 10.3 376.0 10.3 376.0 10.3 Z M 633.3 36.6 C 633.3 35.1 633.2 36.0 633.2 36.7 C 633.1 36.3 633.1 33.3 633.1 31.2 C 633.0 34.4 632.9 30.7 632.6 31.5 C 632.7 29.9 632.6 29.1 632.6 28.9 C 633.0 28.4 632.3 20.4 632.2 29.1 C 632.5 27.3 632.5 28.0 632.6 31.6 C 632.4 35.6 632.6 38.5 632.3 40.0 C 632.4 42.5 632.5 43.4 632.5 46.7 C 632.3 47.6 632.2 50.7 631.8 48.4 C 631.8 54.3 632.4 50.1 632.5 55.0 C 632.3 59.8 632.2 52.7 632.0 53.9 C 632.0 55.1 631.9 54.8 631.8 55.3 C 631.9 57.0 632.1 56.9 632.1 55.2 C 632.2 55.7 632.4 60.4 632.1 59.2 C 632.2 61.9 632.8 54.6 632.6 50.9 C 632.5 48.6 633.0 48.4 633.0 50.7 C 633.2 49.8 632.6 45.5 633.1 46.4 C 633.1 44.5 633.1 42.8 633.1 40.9 C 633.1 41.2 633.0 42.3 633.0 42.3 C 633.0 40.6 633.0 38.7 633.0 36.8 C 633.1 38.4 633.2 38.3 633.3 36.6 C 633.3 36.6 633.3 36.6 633.3 36.6 Z M 394.1 10.4 C 390.6 10.3 389.8 10.5 387.1 10.5 C 388.1 10.7 395.7 10.6 394.1 10.4 C 394.1 10.4 394.1 10.4 394.1 10.4 Z M 632.2 112.6 C 632.3 112.2 632.3 109.8 632.4 109.9 C 632.5 114.2 632.6 109.4 633.0 113.0 C 632.8 107.4 632.3 105.3 632.1 112.5 C 632.1 117.8 632.2 107.1 632.2 112.6 C 632.2 112.6 632.2 112.6 632.2 112.6 Z M 632.4 96.1 C 632.3 92.7 632.2 101.1 632.1 102.9 C 632.0 102.9 631.9 102.9 631.8 102.8 C 632.2 107.6 632.3 101.4 632.8 105.9 C 632.9 100.5 633.0 98.3 632.9 93.5 C 632.8 93.8 632.8 94.9 632.9 94.9 C 632.9 98.4 632.5 95.8 632.6 92.1 C 632.5 93.2 632.5 96.5 632.5 98.9 C 632.5 98.3 632.6 97.5 632.7 97.6 C 632.8 100.6 632.6 99.5 632.6 101.6 C 632.5 101.6 632.3 96.2 632.4 96.1 C 632.4 96.1 632.4 96.1 632.4 96.1 Z M 409.9 146.7 C 412.7 146.7 406.7 146.3 406.7 146.0 C 403.7 145.9 403.1 146.0 401.2 146.1 C 402.3 146.2 405.5 146.2 407.0 146.4 C 406.6 146.7 402.6 146.3 401.5 146.5 C 400.0 146.9 408.5 146.4 409.9 146.7 C 409.9 146.7 409.9 146.7 409.9 146.7 Z M 593.9 10.7 C 592.4 10.8 593.1 10.8 593.8 10.8 C 593.5 10.9 591.0 10.9 591.1 10.8 C 588.9 10.9 592.2 11.0 589.6 11.0 C 588.9 11.2 593.6 11.0 593.8 10.9 C 596.9 10.9 594.2 11.2 594.9 11.3 C 597.6 11.3 596.8 11.1 600.6 11.2 C 598.4 11.0 596.5 10.9 593.9 10.7 C 593.9 10.7 593.9 10.7 593.9 10.7 Z M 632.7 122.4 C 632.8 123.0 632.3 118.9 632.6 115.4 C 632.6 110.6 632.3 118.2 632.3 114.0 C 632.3 117.5 632.5 122.0 632.5 127.7 C 632.6 129.1 632.5 120.0 632.6 125.1 C 632.7 124.9 632.7 123.7 632.6 123.6 C 632.6 122.6 632.7 122.5 632.7 122.4 C 632.7 122.4 632.7 122.4 632.7 122.4 Z M 632.2 116.5 C 632.1 116.7 632.1 118.0 632.2 118.0 C 632.2 119.7 631.9 119.6 631.9 117.9 C 631.6 119.9 632.2 120.1 632.0 124.7 C 632.2 122.8 632.3 122.0 632.2 126.1 C 632.4 129.8 632.3 118.2 632.2 116.5 C 632.2 116.5 632.2 116.5 632.2 116.5 Z M 454.2 146.5 C 453.7 146.4 450.8 146.5 448.6 146.5 C 451.2 146.3 462.5 146.4 464.0 146.5 C 465.1 146.5 466.3 146.4 466.8 146.5 C 466.6 146.5 469.6 146.3 468.0 146.3 C 468.2 146.2 470.7 146.2 470.6 146.1 C 474.8 146.2 469.5 146.3 470.8 146.5 C 475.7 146.2 474.7 146.4 480.6 146.5 C 479.4 146.2 473.0 146.3 473.3 146.0 C 468.9 146.2 463.8 146.1 460.7 145.8 C 465.3 146.2 449.2 146.4 441.6 146.3 C 441.7 146.1 439.1 146.2 435.9 146.1 C 433.5 145.8 434.6 146.3 438.7 146.2 C 438.7 146.4 432.9 146.2 430.5 146.3 C 433.4 146.4 431.9 146.5 433.4 146.6 C 438.8 146.6 433.9 146.5 434.7 146.4 C 436.1 146.4 437.4 146.4 438.9 146.4 C 431.9 146.8 449.5 146.4 443.0 146.5 C 448.7 146.4 449.0 146.7 454.2 146.5 C 454.2 146.5 454.2 146.5 454.2 146.5 Z M 584.9 146.6 C 585.8 146.6 590.1 146.4 590.4 146.6 C 595.9 146.4 590.7 146.2 597.1 146.2 C 596.6 146.1 594.2 146.2 594.1 146.1 C 591.7 146.1 589.4 146.2 590.3 146.5 C 587.4 146.4 586.7 146.5 584.8 146.5 C 585.4 146.4 586.4 146.4 588.8 146.4 C 589.1 146.2 588.0 146.0 584.4 146.1 C 582.9 146.3 584.2 146.4 584.9 146.6 C 584.9 146.6 584.9 146.6 584.9 146.6 Z M 598.5 146.3 C 599.3 146.4 600.1 146.4 600.1 146.5 C 602.4 146.8 600.6 146.2 602.6 146.2 C 604.3 146.2 603.9 146.4 604.2 146.5 C 606.6 146.4 608.5 146.4 609.8 146.5 C 613.4 146.3 605.2 146.2 603.9 146.1 C 601.2 146.1 602.4 146.4 598.5 146.3 C 598.5 146.3 598.5 146.3 598.5 146.3 Z M 632.6 138.8 C 632.9 138.3 632.5 136.5 632.6 134.7 C 632.3 135.9 632.5 140.0 632.2 137.0 C 632.1 141.0 632.1 141.2 632.2 145.3 C 632.1 145.6 632.1 145.8 632.1 146.0 C 631.7 146.0 631.8 146.0 632.2 146.0 C 632.2 145.4 632.3 143.7 632.2 141.2 C 632.4 141.9 632.4 143.8 632.5 144.1 C 632.4 144.6 632.3 145.4 632.3 146.2 C 629.3 146.2 626.1 146.6 629.1 146.3 C 630.4 146.4 631.3 146.4 632.1 146.5 C 632.2 146.5 632.3 146.5 632.6 146.5 C 632.5 144.1 632.6 136.9 632.6 138.8 C 632.6 138.8 632.6 138.8 632.6 138.8 Z M 622.7 11.2 C 627.8 11.2 628.2 11.2 632.4 11.2 C 632.4 11.6 632.4 12.1 632.4 12.6 C 632.3 12.8 632.3 12.4 632.2 11.4 C 632.2 12.7 632.2 14.4 632.2 16.7 C 632.3 16.5 632.3 15.3 632.2 15.4 C 632.4 10.8 632.4 14.6 632.6 15.0 C 632.7 13.6 632.7 12.2 632.7 10.9 C 629.1 11.0 625.9 11.1 624.3 10.9 C 622.2 11.0 624.6 11.0 622.7 11.2 C 622.7 11.2 622.7 11.2 622.7 11.2 Z M 122.2 146.3 C 121.4 146.4 119.1 146.4 119.5 146.5 C 121.5 146.5 123.0 146.4 125.0 146.4 C 121.1 146.3 121.6 146.0 116.5 146.0 C 118.2 146.1 117.8 146.3 122.2 146.3 C 122.2 146.3 122.2 146.3 122.2 146.3 Z M 626.4 146.5 C 626.2 146.3 625.9 146.2 627.6 146.2 C 627.9 146.0 623.5 146.1 623.3 146.0 C 621.8 146.0 622.5 146.1 620.6 146.1 C 621.4 146.3 625.0 146.2 623.7 146.5 C 622.5 146.5 622.3 146.4 622.2 146.4 C 619.4 146.5 623.8 146.5 626.4 146.5 C 626.4 146.5 626.4 146.5 626.4 146.5 Z M 395.9 146.5 C 397.8 146.4 395.8 146.3 394.3 146.3 C 398.2 146.0 391.7 145.9 391.2 145.7 C 393.1 145.9 398.6 145.7 399.6 145.8 C 401.2 145.8 399.1 145.6 403.6 145.5 C 402.9 145.3 398.2 145.5 399.5 145.7 C 398.1 145.4 393.6 145.7 393.8 145.4 C 387.5 145.4 386.2 145.6 385.8 145.8 C 391.8 145.7 388.9 146.1 394.2 146.1 C 394.2 146.1 392.6 146.1 391.5 146.1 C 392.0 146.3 394.4 146.4 395.9 146.5 C 395.9 146.5 395.9 146.5 395.9 146.5 Z M 540.3 146.5 C 543.4 146.4 543.1 146.3 542.8 146.1 C 541.6 146.1 539.8 146.1 537.3 146.1 C 538.0 146.3 541.7 146.2 540.3 146.5 C 540.3 146.5 540.3 146.5 540.3 146.5 Z M 417.9 146.1 C 418.2 146.2 419.3 146.2 419.3 146.1 C 422.8 146.1 423.7 146.3 425.0 146.4 C 426.9 146.4 426.1 146.2 426.1 146.1 C 423.0 146.3 423.5 145.9 419.2 146.0 C 419.5 146.1 419.0 146.1 417.9 146.1 C 417.9 146.1 417.9 146.1 417.9 146.1 Z M 511.0 146.3 C 512.7 146.3 511.8 146.2 511.0 146.2 C 512.7 145.9 518.5 146.2 520.6 146.1 C 520.7 145.9 513.7 145.9 521.8 145.8 C 520.1 145.6 512.9 145.8 509.2 145.7 C 509.9 145.5 514.9 145.5 514.4 145.3 C 510.2 145.4 505.6 145.5 505.2 145.9 C 511.4 145.9 509.4 146.1 511.0 146.3 C 511.0 146.3 511.0 146.3 511.0 146.3 Z M 504.0 146.1 C 504.7 146.3 505.7 146.1 508.1 146.1 C 504.5 145.8 502.5 146.0 495.4 145.9 C 495.5 145.9 495.5 146.0 495.6 146.1 C 494.2 146.1 492.7 146.1 491.4 146.1 C 497.7 146.3 499.0 146.1 505.3 146.1 C 505.6 146.1 504.8 146.1 504.0 146.1 C 504.0 146.1 504.0 146.1 504.0 146.1 Z M 632.2 89.2 C 632.1 91.1 632.0 92.7 631.9 96.0 C 632.2 95.8 632.3 93.8 632.2 89.2 C 632.2 89.2 632.2 89.2 632.2 89.2 Z M 412.3 146.0 C 408.6 146.1 415.9 146.0 413.5 145.7 C 410.4 145.6 407.1 145.6 406.3 145.3 C 401.0 145.7 412.7 145.7 412.3 146.0 C 412.3 146.0 412.3 146.0 412.3 146.0 Z M 436.8 145.4 C 438.4 145.4 438.7 145.8 436.9 145.6 C 433.0 145.6 440.4 145.8 434.3 145.7 C 436.9 145.8 442.8 146.0 445.4 145.8 C 445.2 145.6 440.0 145.7 439.7 145.5 C 439.4 145.4 440.2 145.4 441.0 145.4 C 440.3 145.3 439.2 145.4 436.8 145.4 C 436.8 145.4 436.8 145.4 436.8 145.4 Z M 457.9 145.8 C 455.5 145.7 452.7 145.6 448.0 145.6 C 451.2 145.7 453.1 146.0 457.9 145.8 C 457.9 145.8 457.9 145.8 457.9 145.8 Z M 195.6 145.5 C 199.0 145.5 195.9 145.2 195.5 145.2 C 192.1 145.1 192.4 145.3 188.5 145.3 C 189.8 145.5 193.3 145.2 195.6 145.5 C 195.6 145.5 195.6 145.5 195.6 145.5 Z M 183.1 145.3 C 182.6 145.2 177.8 145.3 177.5 145.1 C 174.8 145.6 170.2 144.8 170.5 145.2 C 169.4 145.1 168.3 145.1 166.3 145.1 C 170.3 145.5 178.9 145.4 183.1 145.3 C 183.1 145.3 183.1 145.3 183.1 145.3 Z M 481.2 145.3 C 484.9 145.4 479.8 145.0 483.7 145.0 C 483.9 144.9 476.5 144.9 480.8 144.8 C 475.0 144.6 481.6 145.3 481.2 145.3 C 481.2 145.3 481.2 145.3 481.2 145.3 Z M 548.9 145.1 C 548.7 145.3 553.8 145.1 555.8 145.2 C 555.8 145.1 554.2 145.1 553.1 145.1 C 553.5 145.0 554.1 145.0 555.6 144.9 C 554.4 144.8 550.9 145.1 548.9 145.1 C 548.9 145.1 548.9 145.1 548.9 145.1 Z M 477.3 149.5 C 474.8 149.3 471.7 149.1 470.3 149.4 C 467.7 149.2 471.7 149.1 468.6 149.0 C 464.8 149.1 466.5 148.9 460.2 149.0 C 461.2 148.7 456.6 148.7 455.6 148.5 C 458.2 148.5 461.7 148.8 462.7 148.5 C 460.5 148.5 461.6 148.3 462.6 148.5 C 467.0 148.6 457.7 148.8 463.0 148.9 C 464.2 148.6 472.2 149.2 477.0 149.2 C 475.3 149.4 480.9 149.5 477.3 149.5 C 477.3 149.5 477.3 149.5 477.3 149.5 Z M 451.9 149.0 C 448.5 149.0 446.4 148.5 447.3 148.5 C 447.4 148.6 451.2 148.6 451.6 148.5 C 450.6 148.5 449.8 148.5 450.0 148.5 C 456.3 148.5 454.3 148.7 455.9 148.9 C 452.5 149.0 451.5 148.8 450.3 148.9 C 451.2 148.9 452.0 149.0 451.9 149.0 C 451.9 149.0 451.9 149.0 451.9 149.0 Z M 375.6 145.0 C 376.3 145.2 377.0 145.0 378.4 144.9 C 378.8 145.3 385.6 144.8 386.6 145.0 C 385.1 145.1 381.4 145.1 379.9 145.3 C 381.8 145.3 382.3 145.4 384.1 145.3 C 383.8 145.5 379.8 145.5 378.8 145.7 C 378.3 145.5 376.5 145.7 375.9 145.6 C 381.2 145.4 372.5 145.0 375.6 145.0 C 375.6 145.0 375.6 145.0 375.6 145.0 Z M 512.7 145.0 C 513.1 144.8 506.7 144.2 511.8 143.9 C 513.2 144.1 514.0 144.3 513.9 144.6 C 517.1 144.5 518.8 144.7 520.6 144.5 C 527.6 145.2 515.7 144.4 512.7 145.0 C 512.7 145.0 512.7 145.0 512.7 145.0 Z M 534.8 144.8 C 533.8 145.0 536.9 145.0 536.5 145.2 C 533.7 145.0 525.2 145.2 528.1 145.1 C 530.8 145.0 530.6 144.8 534.8 144.8 C 534.8 144.8 534.8 144.8 534.8 144.8 Z M 294.0 10.6 C 298.4 10.4 300.8 10.9 298.2 11.0 C 299.3 10.7 292.5 10.9 294.0 10.6 C 294.0 10.6 294.0 10.6 294.0 10.6 Z M 456.8 6.7 C 452.8 6.6 450.4 6.7 449.9 6.5 C 453.9 6.4 453.4 6.6 456.9 6.6 C 457.2 6.5 459.3 6.4 459.7 6.5 C 457.7 6.5 458.1 6.7 456.8 6.7 C 456.8 6.7 456.8 6.7 456.8 6.7 Z M 624.8 150.5 C 625.3 150.6 627.0 150.6 626.5 150.8 C 622.2 150.7 617.6 150.9 614.2 151.0 C 614.1 150.9 614.0 150.8 613.9 150.7 C 620.6 150.8 622.2 150.6 624.8 150.5 C 624.8 150.5 624.8 150.5 624.8 150.5 Z M 633.7 150.9 C 634.3 150.8 631.7 150.5 634.7 150.5 C 634.7 150.6 635.9 150.7 636.9 150.8 C 637.0 149.7 637.1 148.8 637.1 150.2 C 637.1 150.4 637.1 150.6 637.0 150.9 C 636.2 150.9 635.1 150.9 633.7 150.9 C 633.7 150.9 633.7 150.9 633.7 150.9 Z M 397.9 149.7 C 394.5 149.7 399.5 149.9 399.5 150.0 C 397.0 149.9 393.6 149.9 392.4 149.8 C 394.9 149.8 396.4 149.4 397.9 149.7 C 397.9 149.7 397.9 149.7 397.9 149.7 Z M 449.1 149.1 C 456.3 149.1 453.5 149.5 460.6 149.6 C 457.9 149.7 451.4 149.7 449.7 149.9 C 449.8 149.7 448.0 149.7 448.1 149.6 C 450.6 149.6 451.1 149.7 453.7 149.7 C 452.6 149.4 452.7 149.5 453.4 149.3 C 451.5 149.3 450.3 149.3 449.3 149.3 C 449.7 149.2 447.1 149.1 449.1 149.1 C 449.1 149.1 449.1 149.1 449.1 149.1 Z M 398.9 149.0 C 396.0 149.1 393.4 148.8 395.9 148.8 C 396.4 148.9 398.1 148.7 398.8 148.9 C 394.7 148.9 402.1 149.0 400.3 149.2 C 397.9 149.2 397.1 149.3 397.7 149.4 C 396.1 149.4 393.7 149.4 393.5 149.3 C 394.6 149.3 396.2 149.3 396.1 149.3 C 395.3 149.3 394.5 149.2 394.7 149.2 C 397.2 149.2 398.2 149.1 398.9 149.0 C 398.9 149.0 398.9 149.0 398.9 149.0 Z M 418.3 149.0 C 414.5 149.0 413.9 148.8 412.5 148.6 C 417.7 148.7 418.7 149.0 422.6 149.2 C 418.4 149.1 414.4 149.4 412.9 149.3 C 414.7 149.2 418.1 149.2 418.3 149.0 C 418.3 149.0 418.3 149.0 418.3 149.0 Z M 9.7 88.3 C 9.9 85.1 10.0 82.4 10.2 78.8 C 9.9 77.4 9.4 84.1 9.6 81.3 C 9.6 77.4 9.9 80.2 9.9 77.2 C 9.6 80.0 9.6 63.7 9.9 63.2 C 9.9 65.7 10.0 66.6 10.2 66.1 C 10.1 72.7 10.3 75.3 10.4 80.3 C 10.1 83.7 10.0 94.0 10.3 99.7 C 9.8 103.3 10.4 110.1 10.0 115.1 C 10.1 116.5 10.3 110.9 10.3 115.1 C 10.0 117.8 10.0 115.6 9.8 119.3 C 9.9 119.6 10.1 118.8 10.2 120.7 C 10.0 120.4 10.0 122.7 9.9 123.5 C 9.9 115.9 9.6 123.9 9.5 117.8 C 9.6 115.4 9.9 120.5 9.9 113.7 C 9.8 111.2 9.8 108.9 9.5 109.3 C 9.5 107.4 9.5 106.3 9.4 105.1 C 9.7 107.8 9.3 95.4 9.7 101.0 C 9.7 101.4 9.7 105.3 9.7 108.0 C 10.0 105.6 9.9 102.6 9.7 98.2 C 9.9 96.5 10.0 99.1 10.1 96.9 C 9.9 93.4 9.7 98.0 9.6 95.4 C 9.6 96.5 9.6 98.1 9.5 98.1 C 9.8 92.3 9.5 89.9 9.5 86.9 C 9.7 89.0 9.7 83.5 9.7 88.3 C 9.7 88.3 9.7 88.3 9.7 88.3 Z M 10.1 139.0 C 10.1 140.3 10.1 141.7 10.1 143.2 C 9.8 143.5 9.8 138.0 9.6 141.7 C 9.6 135.5 9.9 142.0 10.1 139.0 C 10.1 139.0 10.1 139.0 10.1 139.0 Z M 11.0 111.2 C 11.2 109.3 10.6 110.2 10.6 108.3 C 10.7 111.7 10.8 114.8 10.5 115.2 C 10.6 111.3 10.6 109.5 10.5 105.4 C 10.8 109.4 10.7 101.1 11.0 100.0 C 11.1 103.1 11.2 105.6 11.2 109.8 C 11.1 109.1 11.0 115.2 11.0 111.2 C 11.0 111.2 11.0 111.2 11.0 111.2 Z M 11.3 122.4 C 11.1 123.2 11.2 129.3 11.0 127.9 C 11.0 124.3 10.9 122.9 10.7 123.7 C 10.7 120.9 10.8 120.6 10.8 118.1 C 11.1 116.7 11.0 121.0 11.2 122.4 C 11.2 121.6 11.3 120.8 11.3 122.4 C 11.3 122.4 11.3 122.4 11.3 122.4 Z M 90.1 145.5 C 91.3 145.8 85.6 145.6 84.6 145.6 C 86.2 145.8 85.4 145.9 81.9 146.0 C 83.2 145.6 78.1 145.8 74.9 145.4 C 74.2 145.7 78.2 145.7 73.5 145.8 C 69.8 145.7 66.6 145.9 61.1 145.9 C 59.8 145.6 62.2 145.6 63.7 145.5 C 59.9 145.6 61.0 145.3 58.2 145.3 C 58.7 145.5 56.4 145.6 55.5 145.4 C 60.3 145.3 49.0 145.1 54.1 145.0 C 54.4 145.1 55.6 145.1 56.8 145.0 C 55.5 145.4 62.2 145.2 63.7 145.4 C 66.4 144.9 73.5 145.1 81.8 145.3 C 82.4 145.4 79.8 145.5 81.8 145.5 C 82.1 145.4 84.8 145.4 86.0 145.3 C 85.9 145.5 87.0 145.5 88.8 145.6 C 88.9 145.5 89.0 145.5 90.1 145.5 C 90.1 145.5 90.1 145.5 90.1 145.5 Z M 161.2 11.6 C 161.2 12.1 169.9 11.8 172.3 11.7 C 172.1 12.2 156.4 12.0 161.2 11.6 C 161.2 11.6 161.2 11.6 161.2 11.6 Z M 107.4 12.0 C 109.7 12.0 107.9 11.7 110.0 11.7 C 110.3 12.0 115.2 11.5 115.5 11.7 C 113.1 11.9 111.4 11.9 107.4 12.0 C 107.4 12.0 107.4 12.0 107.4 12.0 Z M 57.5 11.9 C 61.5 11.8 55.2 11.7 55.9 11.6 C 59.4 11.6 63.1 11.6 63.0 11.9 C 59.8 11.8 58.0 12.1 57.5 11.9 C 57.5 11.9 57.5 11.9 57.5 11.9 Z M 132.4 12.2 C 135.8 12.3 130.5 12.6 129.8 12.4 C 133.4 12.4 127.3 12.2 124.2 12.3 C 124.2 12.0 125.6 12.0 123.9 11.8 C 128.7 11.7 124.9 12.1 128.2 12.0 C 130.4 11.9 128.1 11.9 128.0 11.7 C 129.4 11.7 130.7 11.7 132.1 11.7 C 132.2 11.8 132.3 12.0 132.3 12.1 C 130.7 12.1 129.1 12.1 129.7 12.3 C 131.1 12.3 131.3 12.2 132.4 12.2 C 132.4 12.2 132.4 12.2 132.4 12.2 Z M 18.0 145.0 C 15.8 145.0 17.7 145.1 19.4 145.2 C 19.8 145.1 21.1 144.6 23.5 144.9 C 18.1 145.1 25.2 145.2 22.2 145.3 C 21.0 145.1 17.7 145.4 15.2 145.3 C 14.1 145.2 16.8 144.8 18.0 145.0 C 18.0 145.0 18.0 145.0 18.0 145.0 Z M 27.7 145.2 C 27.5 145.1 26.5 145.1 24.9 145.1 C 26.7 144.9 24.2 144.8 26.4 144.8 C 26.1 144.9 33.4 144.9 29.1 145.0 C 25.3 144.9 30.2 145.2 31.9 145.2 C 30.0 145.2 26.7 145.4 26.3 145.3 C 27.2 145.3 28.0 145.2 27.7 145.2 C 27.7 145.2 27.7 145.2 27.7 145.2 Z M 117.7 144.9 C 118.2 144.7 115.8 144.7 115.0 144.6 C 122.0 144.6 128.1 144.7 131.6 144.7 C 128.4 144.7 128.4 144.9 130.3 145.0 C 126.8 144.9 126.0 145.1 124.7 144.9 C 127.7 144.7 122.0 144.9 117.7 144.9 C 117.7 144.9 117.7 144.9 117.7 144.9 Z M 117.7 144.9 " fill="#FFE181"></path><g><clipPath id="clip-102"><path d="M 15.0 14.2 L 629.4 14.2 L 629.4 143.3 L 15.0 143.3 Z M 15.0 14.2 "></path></clipPath><g clip-path="url(#clip-102)"><path d="M 25.0 122.3 L 351.4 122.3 L 351.4 100.3 L 25.0 100.3 Z M 25.0 122.3 " fill="#000000" fill-opacity="0.00"></path><path d="M 25.0 100.3 L 65.8 100.3 L 65.8 78.3 L 25.0 78.3 Z M 25.0 100.3 " fill="#000000" fill-opacity="0.00"></path><path d="M 25.0 78.3 L 524.9 78.3 L 524.9 56.3 L 25.0 56.3 Z M 25.0 78.3 " fill="#000000" fill-opacity="0.00"></path><path d="M 25.0 56.3 L 55.6 56.3 L 55.6 34.3 L 25.0 34.3 Z M 25.0 56.3 " fill="#000000" fill-opacity="0.00"></path><text xml:space="preserve" font-family="Monaco" font-size="17.0" fill="#34BC25" transform="matrix(1.00, 0.00, -0.00, -1.00, 25.0, 106.0)">[</text><text xml:space="preserve" font-family="Monaco" font-size="17.0" fill="#34BC25" transform="matrix(1.00, 0.00, -0.00, -1.00, 35.2, 106.0)">v</text><text xml:space="preserve" font-family="Monaco" font-size="17.0" fill="#34BC25" transform="matrix(1.00, 0.00, -0.00, -1.00, 45.4, 106.0)">-</text><text xml:space="preserve" font-family="Monaco" font-size="17.0" fill="#34BC25" transform="matrix(1.00, 0.00, -0.00, -1.00, 55.6, 106.0)">r</text><text xml:space="preserve" font-family="Monaco" font-size="17.0" fill="#34BC25" transform="matrix(1.00, 0.00, -0.00, -1.00, 65.8, 106.0)">o</text><text xml:space="preserve" font-family="Monaco" font-size="17.0" fill="#34BC25" transform="matrix(1.00, 0.00, -0.00, -1.00, 76.0, 106.0)">u</text><text xml:space="preserve" font-family="Monaco" font-size="17.0" fill="#34BC25" transform="matrix(1.00, 0.00, -0.00, -1.00, 86.2, 106.0)">t</text><text xml:space="preserve" font-family="Monaco" font-size="17.0" fill="#34BC25" transform="matrix(1.00, 0.00, -0.00, -1.00, 96.4, 106.0)">e</text><text xml:space="preserve" font-family="Monaco" font-size="17.0" fill="#34BC25" transform="matrix(1.00, 0.00, -0.00, -1.00, 106.6, 106.0)">r</text><text xml:space="preserve" font-family="Monaco" font-size="17.0" fill="#34BC25" transform="matrix(1.00, 0.00, -0.00, -1.00, 116.8, 106.0)">]</text><text xml:space="preserve" font-family="Monaco" font-size="17.0" fill="#522FE0" transform="matrix(1.00, 0.00, -0.00, -1.00, 127.0, 106.0)"> </text><text xml:space="preserve" font-family="Monaco" font-size="17.0" fill="#F4F4F4" transform="matrix(1.00, 0.00, -0.00, -1.00, 137.2, 106.0)">#</text><text xml:space="preserve" font-family="Monaco" font-size="17.0" fill="#F4F4F4" transform="matrix(1.00, 0.00, -0.00, -1.00, 147.4, 106.0)"> </text><text xml:space="preserve" font-family="Monaco" font-size="17.0" fill="#F4F4F4" transform="matrix(1.00, 0.00, -0.00, -1.00, 157.6, 106.0)">i</text><text xml:space="preserve" font-family="Monaco" font-size="17.0" fill="#F4F4F4" transform="matrix(1.00, 0.00, -0.00, -1.00, 167.8, 106.0)">p</text><text xml:space="preserve" font-family="Monaco" font-size="17.0" fill="#F4F4F4" transform="matrix(1.00, 0.00, -0.00, -1.00, 178.0, 106.0)">t</text><text xml:space="preserve" font-family="Monaco" font-size="17.0" fill="#F4F4F4" transform="matrix(1.00, 0.00, -0.00, -1.00, 188.2, 106.0)">a</text><text xml:space="preserve" font-family="Monaco" font-size="17.0" fill="#F4F4F4" transform="matrix(1.00, 0.00, -0.00, -1.00, 198.4, 106.0)">b</text><text xml:space="preserve" font-family="Monaco" font-size="17.0" fill="#F4F4F4" transform="matrix(1.00, 0.00, -0.00, -1.00, 208.6, 106.0)">l</text><text xml:space="preserve" font-family="Monaco" font-size="17.0" fill="#F4F4F4" transform="matrix(1.00, 0.00, -0.00, -1.00, 218.8, 106.0)">e</text><text xml:space="preserve" font-family="Monaco" font-size="17.0" fill="#F4F4F4" transform="matrix(1.00, 0.00, -0.00, -1.00, 229.0, 106.0)">s</text><text xml:space="preserve" font-family="Monaco" font-size="17.0" fill="#F4F4F4" transform="matrix(1.00, 0.00, -0.00, -1.00, 239.3, 106.0)"> </text><text xml:space="preserve" font-family="Monaco" font-size="17.0" fill="#F4F4F4" transform="matrix(1.00, 0.00, -0.00, -1.00, 249.5, 106.0)">-</text><text xml:space="preserve" font-family="Monaco" font-size="17.0" fill="#F4F4F4" transform="matrix(1.00, 0.00, -0.00, -1.00, 259.7, 106.0)">S</text><text xml:space="preserve" font-family="Monaco" font-size="17.0" fill="#F4F4F4" transform="matrix(1.00, 0.00, -0.00, -1.00, 269.9, 106.0)"> </text><text xml:space="preserve" font-family="Monaco" font-size="17.0" fill="#F4F4F4" transform="matrix(1.00, 0.00, -0.00, -1.00, 280.1, 106.0)">-</text><text xml:space="preserve" font-family="Monaco" font-size="17.0" fill="#F4F4F4" transform="matrix(1.00, 0.00, -0.00, -1.00, 290.3, 106.0)">t</text><text xml:space="preserve" font-family="Monaco" font-size="17.0" fill="#F4F4F4" transform="matrix(1.00, 0.00, -0.00, -1.00, 300.5, 106.0)"> </text><text xml:space="preserve" font-family="Monaco" font-size="17.0" fill="#F4F4F4" transform="matrix(1.00, 0.00, -0.00, -1.00, 310.7, 106.0)">n</text><text xml:space="preserve" font-family="Monaco" font-size="17.0" fill="#F4F4F4" transform="matrix(1.00, 0.00, -0.00, -1.00, 320.9, 106.0)">a</text><text xml:space="preserve" font-family="Monaco" font-size="17.0" fill="#F4F4F4" transform="matrix(1.00, 0.00, -0.00, -1.00, 331.1, 106.0)">t</text><text xml:space="preserve" font-family="Monaco" font-size="17.0" fill="#F4F4F4" transform="matrix(1.00, 0.00, -0.00, -1.00, 25.0, 84.0)">.</text><text xml:space="preserve" font-family="Monaco" font-size="17.0" fill="#F4F4F4" transform="matrix(1.00, 0.00, -0.00, -1.00, 35.2, 84.0)">.</text><text xml:space="preserve" font-family="Monaco" font-size="17.0" fill="#F4F4F4" transform="matrix(1.00, 0.00, -0.00, -1.00, 45.4, 84.0)">.</text><text xml:space="preserve" font-family="Monaco" font-size="17.0" fill="#F4F4F4" transform="matrix(1.00, 0.00, -0.00, -1.00, 25.0, 62.0)">-</text><text xml:space="preserve" font-family="Monaco" font-size="17.0" fill="#F4F4F4" transform="matrix(1.00, 0.00, -0.00, -1.00, 35.2, 62.0)">A</text><text xml:space="preserve" font-family="Monaco" font-size="17.0" fill="#F4F4F4" transform="matrix(1.00, 0.00, -0.00, -1.00, 45.4, 62.0)"> </text><text xml:space="preserve" font-family="Monaco" font-size="17.0" fill="#F4F4F4" transform="matrix(1.00, 0.00, -0.00, -1.00, 55.6, 62.0)">P</text><text xml:space="preserve" font-family="Monaco" font-size="17.0" fill="#F4F4F4" transform="matrix(1.00, 0.00, -0.00, -1.00, 65.8, 62.0)">O</text><text xml:space="preserve" font-family="Monaco" font-size="17.0" fill="#F4F4F4" transform="matrix(1.00, 0.00, -0.00, -1.00, 76.0, 62.0)">S</text><text xml:space="preserve" font-family="Monaco" font-size="17.0" fill="#F4F4F4" transform="matrix(1.00, 0.00, -0.00, -1.00, 86.2, 62.0)">T</text><text xml:space="preserve" font-family="Monaco" font-size="17.0" fill="#F4F4F4" transform="matrix(1.00, 0.00, -0.00, -1.00, 96.4, 62.0)">R</text><text xml:space="preserve" font-family="Monaco" font-size="17.0" fill="#F4F4F4" transform="matrix(1.00, 0.00, -0.00, -1.00, 106.6, 62.0)">O</text><text xml:space="preserve" font-family="Monaco" font-size="17.0" fill="#F4F4F4" transform="matrix(1.00, 0.00, -0.00, -1.00, 116.8, 62.0)">U</text><text xml:space="preserve" font-family="Monaco" font-size="17.0" fill="#F4F4F4" transform="matrix(1.00, 0.00, -0.00, -1.00, 127.0, 62.0)">T</text><text xml:space="preserve" font-family="Monaco" font-size="17.0" fill="#F4F4F4" transform="matrix(1.00, 0.00, -0.00, -1.00, 137.2, 62.0)">I</text><text xml:space="preserve" font-family="Monaco" font-size="17.0" fill="#F4F4F4" transform="matrix(1.00, 0.00, -0.00, -1.00, 147.4, 62.0)">N</text><text xml:space="preserve" font-family="Monaco" font-size="17.0" fill="#F4F4F4" transform="matrix(1.00, 0.00, -0.00, -1.00, 157.6, 62.0)">G</text><text xml:space="preserve" font-family="Monaco" font-size="17.0" fill="#F4F4F4" transform="matrix(1.00, 0.00, -0.00, -1.00, 167.8, 62.0)"> </text><text xml:space="preserve" font-family="Monaco" font-size="17.0" fill="#F4F4F4" transform="matrix(1.00, 0.00, -0.00, -1.00, 178.1, 62.0)">-</text><text xml:space="preserve" font-family="Monaco" font-size="17.0" fill="#F4F4F4" transform="matrix(1.00, 0.00, -0.00, -1.00, 188.3, 62.0)">o</text><text xml:space="preserve" font-family="Monaco" font-size="17.0" fill="#F4F4F4" transform="matrix(1.00, 0.00, -0.00, -1.00, 198.5, 62.0)"> </text><text xml:space="preserve" font-family="Monaco" font-size="17.0" fill="#F4F4F4" transform="matrix(1.00, 0.00, -0.00, -1.00, 208.7, 62.0)">g</text><text xml:space="preserve" font-family="Monaco" font-size="17.0" fill="#F4F4F4" transform="matrix(1.00, 0.00, -0.00, -1.00, 218.9, 62.0)">w</text><text xml:space="preserve" font-family="Monaco" font-size="17.0" fill="#F4F4F4" transform="matrix(1.00, 0.00, -0.00, -1.00, 229.1, 62.0)"> </text><text xml:space="preserve" font-family="Monaco" font-size="17.0" fill="#F4F4F4" transform="matrix(1.00, 0.00, -0.00, -1.00, 239.3, 62.0)">-</text><text xml:space="preserve" font-family="Monaco" font-size="17.0" fill="#F4F4F4" transform="matrix(1.00, 0.00, -0.00, -1.00, 249.5, 62.0)">j</text><text xml:space="preserve" font-family="Monaco" font-size="17.0" fill="#F4F4F4" transform="matrix(1.00, 0.00, -0.00, -1.00, 259.7, 62.0)"> </text><text xml:space="preserve" font-family="Monaco" font-size="17.0" fill="#F4F4F4" transform="matrix(1.00, 0.00, -0.00, -1.00, 269.9, 62.0)">S</text><text xml:space="preserve" font-family="Monaco" font-size="17.0" fill="#F4F4F4" transform="matrix(1.00, 0.00, -0.00, -1.00, 280.1, 62.0)">N</text><text xml:space="preserve" font-family="Monaco" font-size="17.0" fill="#F4F4F4" transform="matrix(1.00, 0.00, -0.00, -1.00, 290.3, 62.0)">A</text><text xml:space="preserve" font-family="Monaco" font-size="17.0" fill="#F4F4F4" transform="matrix(1.00, 0.00, -0.00, -1.00, 300.5, 62.0)">T</text><text xml:space="preserve" font-family="Monaco" font-size="17.0" fill="#F4F4F4" transform="matrix(1.00, 0.00, -0.00, -1.00, 310.7, 62.0)"> </text><text xml:space="preserve" font-family="Monaco" font-size="17.0" fill="#F4F4F4" transform="matrix(1.00, 0.00, -0.00, -1.00, 320.9, 62.0)">-</text><text xml:space="preserve" font-family="Monaco" font-size="17.0" fill="#F4F4F4" transform="matrix(1.00, 0.00, -0.00, -1.00, 331.1, 62.0)">-</text><text xml:space="preserve" font-family="Monaco" font-size="17.0" fill="#F4F4F4" transform="matrix(1.00, 0.00, -0.00, -1.00, 341.3, 62.0)">t</text><text xml:space="preserve" font-family="Monaco" font-size="17.0" fill="#F4F4F4" transform="matrix(1.00, 0.00, -0.00, -1.00, 351.5, 62.0)">o</text><text xml:space="preserve" font-family="Monaco" font-size="17.0" fill="#F4F4F4" transform="matrix(1.00, 0.00, -0.00, -1.00, 361.7, 62.0)">-</text><text xml:space="preserve" font-family="Monaco" font-size="17.0" fill="#F4F4F4" transform="matrix(1.00, 0.00, -0.00, -1.00, 371.9, 62.0)">s</text><text xml:space="preserve" font-family="Monaco" font-size="17.0" fill="#F4F4F4" transform="matrix(1.00, 0.00, -0.00, -1.00, 382.1, 62.0)">o</text><text xml:space="preserve" font-family="Monaco" font-size="17.0" fill="#F4F4F4" transform="matrix(1.00, 0.00, -0.00, -1.00, 392.3, 62.0)">u</text><text xml:space="preserve" font-family="Monaco" font-size="17.0" fill="#F4F4F4" transform="matrix(1.00, 0.00, -0.00, -1.00, 402.5, 62.0)">r</text><text xml:space="preserve" font-family="Monaco" font-size="17.0" fill="#F4F4F4" transform="matrix(1.00, 0.00, -0.00, -1.00, 412.7, 62.0)">c</text><text xml:space="preserve" font-family="Monaco" font-size="17.0" fill="#F4F4F4" transform="matrix(1.00, 0.00, -0.00, -1.00, 422.9, 62.0)">e</text><text xml:space="preserve" font-family="Monaco" font-size="17.0" fill="#F4F4F4" transform="matrix(1.00, 0.00, -0.00, -1.00, 433.1, 62.0)"> </text><text xml:space="preserve" font-family="Monaco" font-size="17.0" fill="#F4F4F4" transform="matrix(1.00, 0.00, -0.00, -1.00, 443.3, 62.0)">1</text><text xml:space="preserve" font-family="Monaco" font-size="17.0" fill="#F4F4F4" transform="matrix(1.00, 0.00, -0.00, -1.00, 453.5, 62.0)">0</text><text xml:space="preserve" font-family="Monaco" font-size="17.0" fill="#F4F4F4" transform="matrix(1.00, 0.00, -0.00, -1.00, 463.7, 62.0)">.</text><text xml:space="preserve" font-family="Monaco" font-size="17.0" fill="#F4F4F4" transform="matrix(1.00, 0.00, -0.00, -1.00, 473.9, 62.0)">5</text><text xml:space="preserve" font-family="Monaco" font-size="17.0" fill="#F4F4F4" transform="matrix(1.00, 0.00, -0.00, -1.00, 484.2, 62.0)">.</text><text xml:space="preserve" font-family="Monaco" font-size="17.0" fill="#F4F4F4" transform="matrix(1.00, 0.00, -0.00, -1.00, 494.4, 62.0)">0</text><text xml:space="preserve" font-family="Monaco" font-size="17.0" fill="#F4F4F4" transform="matrix(1.00, 0.00, -0.00, -1.00, 504.6, 62.0)">.</text><text xml:space="preserve" font-family="Monaco" font-size="17.0" fill="#F4F4F4" transform="matrix(1.00, 0.00, -0.00, -1.00, 514.8, 62.0)">2</text><text xml:space="preserve" font-family="Monaco" font-size="17.0" fill="#F4F4F4" transform="matrix(1.00, 0.00, -0.00, -1.00, 25.0, 40.0)">.</text><text xml:space="preserve" font-family="Monaco" font-size="17.0" fill="#F4F4F4" transform="matrix(1.00, 0.00, -0.00, -1.00, 35.2, 40.0)">.</text><text xml:space="preserve" font-family="Monaco" font-size="17.0" fill="#F4F4F4" transform="matrix(1.00, 0.00, -0.00, -1.00, 45.4, 40.0)">.</text></g></g></g></svg>