<?xml version="1.0" encoding="UTF-8" standalone="no"?><svg xmlns="http://www.w3.org/2000/svg" xmlns:xlink="http://www.w3.org/1999/xlink" clip-rule="evenodd" stroke-miterlimit="4.00" viewBox="0 0 165 79"><desc>SVG generated by Keynote</desc><defs></defs><g transform="matrix(1.00, 0.00, -0.00, -1.00, 0.0, 79.0)"><path d="M 7.0 4.8 L 8.0 4.7 C 24.2 4.0 40.4 3.1 56.6 2.1 C 64.6 1.6 72.6 1.0 80.5 0.5 C 88.4 -0.0 96.3 -0.4 104.2 0.8 C 137.6 5.9 161.2 36.3 157.9 70.0 " fill="none" stroke="#FEFFFE" stroke-width="2.00" transform="matrix(-1.00, 0.03, -0.03, -1.00, 163.1, 71.9)"></path><path d="M 158.6 63.2 C 160.8 63.0 162.8 64.7 162.9 66.9 C 163.1 69.1 161.4 71.0 159.2 71.2 C 157.0 71.3 155.1 69.7 154.9 67.4 C 154.8 65.2 156.4 63.3 158.6 63.2 Z M 158.6 63.2 " fill="#FEFFFE"></path></g></svg>