<?xml version="1.0" encoding="UTF-8" standalone="no"?><svg xmlns="http://www.w3.org/2000/svg" xmlns:xlink="http://www.w3.org/1999/xlink" clip-rule="evenodd" stroke-miterlimit="4.00" viewBox="0 0 124 83"><desc>SVG generated by Keynote</desc><defs></defs><g transform="matrix(1.00, 0.00, -0.00, -1.00, 0.0, 83.0)"><path d="M 32.3 78.5 L 90.3 78.5 C 98.3 78.5 102.4 78.5 106.7 77.1 C 111.4 75.4 115.2 71.6 116.9 66.9 C 118.3 62.5 118.3 58.5 118.3 50.3 L 118.3 32.2 C 118.3 24.2 118.3 20.1 116.9 15.8 C 115.2 11.0 111.4 7.3 106.7 5.6 C 102.4 4.2 98.3 4.2 90.1 4.2 L 32.3 4.2 C 24.3 4.2 20.2 4.2 15.8 5.6 C 11.1 7.3 7.4 11.0 5.6 15.8 C 4.3 20.1 4.3 24.2 4.3 32.4 L 4.3 50.4 C 4.3 58.5 4.3 62.5 5.6 66.9 C 7.4 71.6 11.1 75.4 15.8 77.1 C 20.2 78.5 24.3 78.5 32.4 78.5 Z M 32.3 78.5 " fill="#DDF3D0"></path><path d="M 33.0 76.5 C 32.0 76.5 30.8 76.7 30.7 78.0 C 30.5 79.4 31.5 80.4 32.9 80.4 C 34.2 80.4 33.8 79.7 37.0 79.7 C 38.2 79.7 38.3 77.2 37.1 77.2 C 34.2 77.2 34.6 76.5 33.0 76.5 C 33.0 76.5 33.0 76.5 33.0 76.5 Z M 31.3 80.4 C 31.7 80.4 32.1 80.4 32.4 80.3 L 32.4 76.6 C 31.4 76.8 30.9 77.4 30.9 78.4 C 30.9 79.5 31.4 80.1 32.4 80.3 L 32.4 76.6 C 32.1 76.5 31.7 76.5 31.3 76.5 C 29.2 76.5 29.2 77.3 26.5 77.2 C 25.0 77.1 25.2 79.6 26.4 79.6 C 29.3 79.7 29.0 80.4 31.3 80.4 C 31.3 80.4 31.3 80.4 31.3 80.4 Z M 37.2 77.2 C 36.0 77.2 36.0 79.7 37.3 79.7 C 38.8 79.7 41.9 79.2 42.8 79.3 C 43.6 79.3 45.9 79.8 46.6 79.8 C 47.3 79.8 50.8 79.1 52.3 79.3 C 53.8 79.5 54.3 79.4 55.3 79.4 C 56.3 79.4 58.0 79.2 59.0 79.2 C 59.9 79.1 60.8 79.8 62.1 79.6 C 63.4 79.4 64.1 79.7 65.0 79.7 C 66.4 79.7 66.3 77.2 65.0 77.2 C 63.7 77.2 62.8 77.1 61.7 77.1 C 60.7 77.2 59.7 77.4 58.7 77.2 C 57.7 76.9 55.7 77.2 54.4 77.4 C 53.2 77.5 51.8 77.4 50.8 77.3 C 48.9 77.1 44.2 77.6 43.5 77.4 C 42.8 77.2 40.7 77.4 39.9 77.4 C 39.2 77.4 38.7 77.2 37.2 77.2 C 37.2 77.2 37.2 77.2 37.2 77.2 Z M 93.8 79.7 C 95.4 79.7 95.6 77.2 93.7 77.2 C 91.9 77.2 88.5 77.5 87.7 77.4 C 86.9 77.4 83.4 77.2 82.7 77.2 C 82.0 77.2 79.4 77.6 77.9 77.4 C 76.4 77.2 74.9 77.6 73.9 77.4 C 72.6 77.3 71.9 77.4 70.9 77.5 C 70.0 77.5 68.5 77.1 67.6 77.3 C 66.8 77.5 66.3 77.2 65.2 77.2 C 64.0 77.2 64.0 79.7 65.1 79.7 C 66.2 79.7 67.1 79.6 68.2 79.6 C 69.3 79.5 70.6 79.5 71.8 79.5 C 72.9 79.5 74.5 79.8 75.7 79.6 C 77.0 79.5 78.8 79.4 79.5 79.4 C 80.4 79.4 82.3 79.4 83.1 79.3 C 84.2 79.1 86.0 79.4 86.7 79.6 C 87.4 79.8 87.8 79.5 89.3 79.5 C 90.2 79.6 92.1 79.7 93.8 79.7 C 93.8 79.7 93.8 79.7 93.8 79.7 Z M 94.3 79.7 C 96.1 79.7 98.6 79.2 99.2 79.2 C 99.8 79.2 101.6 79.2 102.4 79.1 C 103.3 78.9 103.5 78.7 104.8 78.4 C 106.4 77.9 107.6 77.7 107.7 77.7 C 108.1 77.6 109.1 77.5 110.3 76.7 C 111.9 75.6 112.4 75.4 113.0 74.7 C 113.9 73.5 114.2 73.6 114.8 72.7 C 115.5 71.9 116.0 71.3 116.3 70.5 C 116.7 69.6 117.3 69.1 117.7 68.3 C 118.2 67.0 115.9 66.3 115.4 67.3 C 115.1 68.0 115.0 68.7 114.7 69.3 C 114.3 70.0 113.9 70.5 113.3 71.0 C 112.8 71.5 111.9 72.7 110.9 73.4 C 109.9 74.1 108.2 75.1 106.9 75.6 C 105.6 76.2 105.3 76.9 102.8 76.9 C 102.0 76.9 100.4 77.2 99.6 77.3 C 98.3 77.3 95.5 77.2 94.1 77.2 C 92.4 77.2 92.4 79.7 94.3 79.7 C 94.3 79.7 94.3 79.7 94.3 79.7 Z M 119.5 40.1 C 119.5 38.8 117.1 38.6 117.1 40.1 C 117.1 41.6 117.3 44.4 117.2 45.2 C 117.2 46.1 117.0 49.5 117.0 50.2 C 117.0 51.0 117.4 54.7 117.1 56.3 C 116.9 58.0 117.3 59.4 117.1 60.3 C 116.9 61.4 116.9 62.0 116.9 62.8 C 116.8 63.6 116.1 64.6 116.1 65.2 C 116.2 65.9 115.9 66.1 115.5 67.1 C 115.1 68.1 117.3 69.2 117.7 68.1 C 118.2 67.0 118.3 66.2 118.5 65.3 C 118.6 64.4 118.8 63.3 118.9 62.3 C 119.0 61.4 119.5 59.9 119.3 58.7 C 119.2 57.4 119.2 55.4 119.2 54.5 C 119.2 53.4 119.2 50.6 119.1 49.8 C 118.9 48.7 119.2 46.9 119.4 46.2 C 119.6 45.6 119.3 45.1 119.4 43.6 C 119.4 42.8 119.5 41.4 119.5 40.1 C 119.5 40.1 119.5 40.1 119.5 40.1 Z M 119.5 39.7 C 119.5 38.2 119.2 35.7 119.2 35.1 C 119.2 34.5 119.4 32.7 119.3 31.3 C 119.2 30.0 119.1 29.5 119.0 27.6 C 118.9 25.3 119.1 24.0 119.1 23.9 C 119.2 23.6 119.4 22.7 119.2 21.5 C 119.0 19.8 119.1 19.4 118.9 18.7 C 118.4 17.6 118.6 17.5 118.3 16.6 C 118.1 15.8 118.0 15.1 117.5 14.3 C 116.9 13.5 116.9 12.7 116.4 12.0 C 115.7 10.8 113.7 12.3 114.3 13.3 C 114.7 13.9 115.2 14.3 115.5 15.0 C 115.9 15.7 116.0 16.3 116.1 16.9 C 116.1 17.5 116.6 18.7 116.7 19.7 C 116.8 20.8 116.8 22.6 116.9 24.0 C 117.0 25.5 117.6 26.2 117.3 30.3 C 117.1 31.6 117.2 33.8 117.2 34.6 C 117.2 36.0 117.1 38.7 117.1 39.8 C 117.1 41.2 119.5 41.2 119.5 39.7 C 119.5 39.7 119.5 39.7 119.5 39.7 Z M 90.4 3.0 C 89.5 3.0 89.3 3.6 89.3 4.2 C 89.3 4.8 89.3 5.4 90.4 5.4 C 92.6 5.4 96.0 5.2 96.9 5.3 C 97.7 5.4 100.9 5.7 101.5 5.8 C 102.1 5.8 104.2 5.8 105.2 6.3 C 106.3 6.8 107.7 6.9 108.5 7.5 C 109.5 8.2 110.1 8.4 110.8 8.9 C 111.6 9.5 112.2 10.8 112.9 11.2 C 113.5 11.7 113.6 12.2 114.2 13.1 C 114.8 14.0 116.9 12.8 116.3 11.8 C 115.7 10.8 115.0 10.1 114.2 9.3 C 113.4 8.5 112.3 7.6 111.3 6.8 C 110.4 6.2 109.0 5.1 107.7 4.7 C 106.4 4.4 105.0 4.1 104.5 4.0 C 103.7 3.9 102.1 3.6 101.3 3.7 C 100.4 3.7 98.6 3.4 98.0 3.2 C 97.3 2.9 96.8 3.2 95.1 3.1 C 94.1 3.1 92.3 3.0 90.4 3.0 C 90.4 3.0 90.4 3.0 90.4 3.0 Z M 90.2 5.4 C 91.9 5.4 91.4 3.0 90.0 3.0 C 88.5 3.0 85.4 3.4 84.6 3.4 C 83.7 3.3 81.4 2.9 80.7 2.9 C 80.0 2.9 76.5 3.6 75.0 3.4 C 73.5 3.2 73.1 3.3 72.0 3.3 C 71.0 3.3 69.4 3.4 68.4 3.5 C 67.4 3.5 66.5 2.9 65.2 3.1 C 63.9 3.2 63.2 3.0 62.4 3.0 C 60.9 3.0 61.0 5.4 62.3 5.4 C 63.6 5.4 64.5 5.6 65.6 5.5 C 66.7 5.5 67.6 5.2 68.6 5.5 C 69.7 5.7 71.7 5.5 72.9 5.3 C 74.1 5.2 75.5 5.2 76.5 5.3 C 78.5 5.5 83.2 5.1 83.8 5.3 C 84.5 5.5 86.6 5.3 87.4 5.3 C 88.2 5.3 87.9 5.4 90.2 5.4 C 90.2 5.4 90.2 5.4 90.2 5.4 Z M 62.0 3.0 C 60.5 3.0 58.1 3.3 57.5 3.3 C 56.9 3.3 54.9 3.1 53.9 3.2 C 53.0 3.2 52.7 3.4 51.1 3.5 C 49.1 3.5 47.8 3.3 47.7 3.3 C 47.4 3.2 46.4 2.9 45.1 3.0 C 43.3 3.1 42.8 2.9 42.0 3.0 C 40.6 3.3 40.5 3.0 39.4 3.1 C 38.4 3.1 37.7 3.0 36.9 3.1 C 36.0 3.3 35.3 3.0 34.5 3.0 C 33.1 3.0 33.3 5.4 34.5 5.4 C 35.3 5.4 36.0 5.2 36.7 5.2 C 37.5 5.2 38.2 5.2 39.0 5.3 C 39.8 5.4 41.5 5.3 42.7 5.3 C 44.0 5.4 46.2 5.5 47.7 5.5 C 49.2 5.4 50.1 4.9 53.2 5.2 C 54.1 5.4 56.1 5.2 56.9 5.2 C 58.3 5.2 61.0 5.4 62.2 5.4 C 63.5 5.4 63.5 3.0 62.0 3.0 C 62.0 3.0 62.0 3.0 62.0 3.0 Z M 7.5 10.0 C 6.7 11.1 8.5 12.7 9.4 11.6 C 10.3 10.5 12.2 8.6 12.8 8.3 C 13.5 7.9 16.4 6.7 17.0 6.6 C 17.5 6.4 19.4 5.6 20.6 5.7 C 21.9 5.7 23.1 5.2 24.2 5.3 C 25.4 5.4 26.2 5.2 27.3 5.2 C 28.4 5.1 30.4 5.6 31.5 5.4 C 32.7 5.2 33.1 5.4 34.2 5.4 C 35.4 5.4 35.4 3.0 34.3 3.0 C 33.2 3.0 32.2 3.0 30.7 3.1 C 29.2 3.1 27.6 3.2 26.3 3.2 C 25.1 3.2 23.5 3.0 22.3 3.2 C 21.1 3.5 19.6 3.7 19.0 3.9 C 18.3 4.0 16.7 4.3 16.0 4.7 C 15.2 5.1 13.3 5.7 12.5 5.9 C 11.8 6.1 11.5 6.5 10.3 7.5 C 9.6 8.0 8.4 9.0 7.5 10.0 C 7.5 10.0 7.5 10.0 7.5 10.0 Z M 7.3 10.4 C 6.3 11.6 5.4 14.1 5.1 14.7 C 4.9 15.2 4.2 16.9 4.1 17.7 C 4.0 18.5 4.1 18.7 4.0 20.1 C 3.8 21.8 3.5 23.1 3.5 23.1 C 3.4 23.4 3.1 24.3 3.1 25.8 C 3.2 27.8 3.0 28.5 3.0 29.5 C 3.3 31.3 3.1 31.8 3.1 32.9 C 3.2 33.9 3.1 34.6 3.2 35.4 C 3.3 36.3 3.0 37.0 3.0 37.8 C 3.0 39.1 5.5 39.0 5.5 37.8 C 5.5 37.0 5.2 36.3 5.2 35.5 C 5.2 34.7 5.3 34.0 5.4 33.2 C 5.5 32.5 5.3 30.2 5.4 28.6 C 5.5 27.0 5.6 24.7 5.7 23.3 C 5.7 21.9 5.1 20.9 6.0 18.7 C 6.2 18.0 6.4 16.6 6.7 15.9 C 7.2 14.7 8.6 12.6 9.3 11.8 C 10.1 10.8 8.3 9.1 7.3 10.4 C 7.3 10.4 7.3 10.4 7.3 10.4 Z M 4.2 66.2 C 4.5 67.3 6.8 66.7 6.5 65.6 C 6.2 64.4 5.6 62.3 5.6 61.6 C 5.6 60.9 5.6 57.6 5.6 56.9 C 5.5 56.1 5.2 53.1 5.4 50.9 C 5.6 48.8 5.2 47.8 5.3 46.8 C 5.4 45.5 5.3 44.8 5.2 43.8 C 5.2 42.9 5.7 41.3 5.5 40.5 C 5.3 39.7 5.5 39.2 5.5 38.1 C 5.5 36.9 3.1 36.9 3.1 38.0 C 3.1 39.1 3.1 40.0 3.1 41.1 C 3.2 42.2 3.2 43.5 3.2 44.7 C 3.2 45.8 2.9 47.4 3.1 48.6 C 3.2 49.8 3.3 52.1 3.3 53.1 C 3.4 54.3 3.3 56.5 3.5 57.4 C 3.7 58.5 3.5 60.3 3.4 60.9 C 3.2 61.6 3.5 62.0 3.7 63.2 C 3.8 64.0 3.9 65.1 4.2 66.2 C 4.2 66.2 4.2 66.2 4.2 66.2 Z M 4.3 66.5 C 4.6 67.7 6.2 70.1 6.5 70.6 C 6.8 71.2 8.0 73.0 8.7 73.6 C 9.4 74.3 9.8 74.4 11.1 75.4 C 12.8 76.5 14.0 77.3 14.1 77.4 C 14.3 77.6 15.3 78.3 16.4 78.5 C 17.9 78.8 18.3 79.1 18.9 79.1 C 20.1 79.0 20.2 79.3 21.2 79.3 C 22.1 79.4 22.7 79.5 23.5 79.4 C 24.4 79.3 25.1 79.6 26.1 79.6 C 27.5 79.7 27.4 77.2 26.1 77.2 C 25.2 77.2 24.5 77.4 23.8 77.4 C 23.0 77.3 22.4 77.2 21.7 77.1 C 21.0 76.9 19.7 76.9 18.8 76.7 C 17.8 76.4 16.3 75.9 15.0 75.4 C 13.7 74.8 12.5 74.9 10.7 72.7 C 10.1 72.0 8.8 70.7 8.4 70.1 C 7.7 69.0 6.8 66.6 6.6 65.7 C 6.3 64.7 3.9 65.3 4.3 66.5 C 4.3 66.5 4.3 66.5 4.3 66.5 Z M 32.4 80.4 C 32.4 80.4 32.4 80.2 32.4 78.9 C 32.4 77.6 32.4 76.5 32.4 76.5 C 32.4 76.5 32.4 77.2 32.4 77.2 C 32.3 77.2 32.3 79.7 32.4 79.7 C 32.4 79.7 32.4 80.4 32.4 80.4 C 32.4 80.4 32.4 80.4 32.4 80.4 Z M 32.3 76.5 C 32.3 76.5 32.3 77.1 32.3 78.4 C 32.3 79.8 32.3 80.4 32.3 80.4 C 32.3 80.4 32.3 79.7 32.4 79.7 C 32.4 79.7 32.4 77.2 32.4 77.2 C 32.3 77.2 32.3 76.5 32.3 76.5 C 32.3 76.5 32.3 76.5 32.3 76.5 Z M 32.3 76.5 " fill="#FF7777"></path><g><clipPath id="clip-81"><path d="M 4.3 4.2 L 118.3 4.2 L 118.3 78.5 L 4.3 78.5 Z M 4.3 4.2 "></path></clipPath><g clip-path="url(#clip-81)"><text xml:space="preserve" font-family="AmericanTypewriter" font-size="20.0" fill="#000000" transform="matrix(1.00, 0.00, -0.00, -1.00, 45.0, 34.0)">V</text><text xml:space="preserve" font-family="AmericanTypewriter" font-size="20.0" fill="#000000" transform="matrix(1.00, 0.00, -0.00, -1.00, 59.6, 34.0)">M</text></g></g></g></svg>