<?xml version="1.0" encoding="UTF-8" standalone="no"?><svg xmlns="http://www.w3.org/2000/svg" xmlns:xlink="http://www.w3.org/1999/xlink" clip-rule="evenodd" stroke-miterlimit="4.00" viewBox="0 0 123 83"><desc>SVG generated by Keynote</desc><defs></defs><g transform="matrix(1.00, 0.00, -0.00, -1.00, 0.0, 83.0)"><path d="M 32.2 78.3 L 90.1 78.3 C 98.2 78.3 102.3 78.3 106.6 76.9 C 111.3 75.2 115.1 71.4 116.8 66.7 C 118.2 62.4 118.2 58.3 118.2 50.1 L 118.2 32.1 C 118.2 24.0 118.2 19.9 116.8 15.6 C 115.1 10.9 111.3 7.1 106.6 5.4 C 102.3 4.0 98.2 4.0 90.0 4.0 L 32.2 4.0 C 24.2 4.0 20.1 4.0 15.7 5.4 C 11.0 7.1 7.3 10.9 5.5 15.6 C 4.2 19.9 4.2 24.0 4.2 32.2 L 4.2 50.2 C 4.2 58.3 4.2 62.4 5.5 66.7 C 7.3 71.4 11.0 75.2 15.7 76.9 C 20.1 78.3 24.2 78.3 32.3 78.3 Z M 32.2 78.3 " fill="#DDF3D0"></path><path d="M 32.8 76.3 C 31.9 76.3 30.7 76.5 30.6 77.8 C 30.4 79.2 31.4 80.2 32.8 80.2 C 34.1 80.2 33.7 79.5 36.9 79.5 C 38.1 79.5 38.2 77.0 37.0 77.0 C 34.1 77.0 34.5 76.3 32.8 76.3 C 32.8 76.3 32.8 76.3 32.8 76.3 Z M 31.1 80.2 C 31.6 80.2 32.0 80.2 32.3 80.2 L 32.3 76.4 C 31.3 76.6 30.8 77.2 30.8 78.3 C 30.7 79.3 31.3 80.0 32.3 80.2 L 32.3 76.4 C 32.0 76.3 31.6 76.3 31.1 76.3 C 29.1 76.3 29.1 77.1 26.4 77.0 C 24.9 77.0 25.1 79.4 26.3 79.5 C 29.2 79.5 28.8 80.2 31.1 80.2 C 31.1 80.2 31.1 80.2 31.1 80.2 Z M 37.1 77.0 C 35.9 77.0 35.9 79.5 37.2 79.5 C 38.7 79.5 41.8 79.1 42.7 79.1 C 43.5 79.2 45.8 79.6 46.5 79.6 C 47.2 79.6 50.7 78.9 52.2 79.1 C 53.7 79.3 54.2 79.2 55.2 79.2 C 56.2 79.2 57.9 79.1 58.8 79.0 C 59.8 78.9 60.7 79.6 62.0 79.4 C 63.3 79.2 64.0 79.5 64.9 79.5 C 66.3 79.5 66.2 77.1 64.9 77.1 C 63.6 77.1 62.7 76.9 61.6 76.9 C 60.6 77.0 59.6 77.3 58.6 77.0 C 57.6 76.7 55.6 77.0 54.3 77.2 C 53.1 77.3 51.7 77.3 50.7 77.2 C 48.8 77.0 44.1 77.4 43.4 77.2 C 42.7 77.0 40.6 77.2 39.8 77.2 C 39.0 77.2 38.6 77.0 37.1 77.0 C 37.1 77.0 37.1 77.0 37.1 77.0 Z M 93.7 79.5 C 95.3 79.5 95.5 77.0 93.6 77.0 C 91.7 77.1 88.4 77.3 87.6 77.2 C 86.8 77.2 83.3 77.0 82.6 77.0 C 81.9 77.0 79.3 77.4 77.8 77.2 C 76.3 77.0 74.8 77.4 73.8 77.3 C 72.5 77.1 71.8 77.3 70.8 77.3 C 69.9 77.4 68.4 76.9 67.5 77.1 C 66.7 77.3 66.2 77.1 65.1 77.1 C 63.9 77.1 63.9 79.5 65.0 79.5 C 66.1 79.5 67.0 79.5 68.1 79.4 C 69.2 79.3 70.5 79.3 71.7 79.3 C 72.8 79.3 74.4 79.6 75.6 79.4 C 76.8 79.3 78.6 79.2 79.4 79.2 C 80.3 79.2 82.2 79.2 83.0 79.1 C 84.1 78.9 85.9 79.2 86.6 79.4 C 87.3 79.6 87.7 79.3 89.2 79.4 C 90.1 79.4 92.0 79.5 93.7 79.5 C 93.7 79.5 93.7 79.5 93.7 79.5 Z M 94.1 79.5 C 96.0 79.5 98.5 79.1 99.1 79.0 C 99.7 79.0 101.5 79.0 102.3 78.9 C 103.1 78.7 103.4 78.5 104.7 78.2 C 106.3 77.8 107.5 77.5 107.6 77.5 C 108.0 77.5 109.0 77.3 110.2 76.5 C 111.8 75.4 112.3 75.2 112.9 74.5 C 113.8 73.4 114.1 73.4 114.7 72.6 C 115.4 71.7 115.9 71.2 116.2 70.3 C 116.6 69.4 117.2 68.9 117.6 68.1 C 118.1 66.8 115.7 66.1 115.3 67.2 C 115.0 67.8 114.9 68.5 114.6 69.1 C 114.2 69.8 113.8 70.3 113.2 70.8 C 112.7 71.3 111.8 72.5 110.8 73.2 C 109.8 74.0 108.1 74.9 106.8 75.5 C 105.5 76.0 105.2 76.8 102.7 76.8 C 101.9 76.8 100.2 77.0 99.5 77.1 C 98.2 77.2 95.4 77.0 94.0 77.0 C 92.3 77.1 92.3 79.5 94.1 79.5 C 94.1 79.5 94.1 79.5 94.1 79.5 Z M 119.4 39.9 C 119.4 38.6 116.9 38.4 116.9 39.9 C 116.9 41.4 117.2 44.2 117.1 45.1 C 117.1 45.9 116.9 49.3 116.9 50.1 C 116.9 50.8 117.3 54.5 117.0 56.2 C 116.8 57.8 117.1 59.2 117.0 60.1 C 116.8 61.2 116.8 61.8 116.8 62.6 C 116.7 63.4 116.0 64.4 116.0 65.1 C 116.1 65.7 115.8 65.9 115.4 66.9 C 115.0 67.9 117.2 69.0 117.6 67.9 C 118.1 66.8 118.2 66.0 118.4 65.2 C 118.5 64.3 118.7 63.2 118.8 62.1 C 118.9 61.2 119.3 59.8 119.2 58.5 C 119.1 57.3 119.1 55.2 119.1 54.3 C 119.1 53.2 119.1 50.4 119.0 49.6 C 118.8 48.6 119.1 46.7 119.3 46.1 C 119.5 45.4 119.2 44.9 119.3 43.4 C 119.3 42.6 119.4 41.2 119.4 39.9 C 119.4 39.9 119.4 39.9 119.4 39.9 Z M 119.4 39.5 C 119.4 38.0 119.1 35.6 119.1 35.0 C 119.1 34.4 119.2 32.5 119.2 31.1 C 119.1 29.8 119.0 29.4 118.9 27.5 C 118.8 25.1 119.0 23.9 119.0 23.8 C 119.1 23.5 119.3 22.5 119.1 21.3 C 118.9 19.7 119.0 19.2 118.8 18.5 C 118.3 17.4 118.5 17.3 118.2 16.5 C 118.0 15.6 117.9 14.9 117.4 14.2 C 116.8 13.3 116.8 12.6 116.3 11.8 C 115.5 10.6 113.6 12.1 114.2 13.1 C 114.6 13.7 115.1 14.2 115.4 14.9 C 115.8 15.5 115.9 16.1 116.0 16.7 C 116.0 17.4 116.5 18.5 116.6 19.6 C 116.7 20.6 116.7 22.4 116.8 23.8 C 116.9 25.3 117.5 26.0 117.1 30.1 C 117.0 31.4 117.1 33.6 117.1 34.4 C 117.1 35.8 117.0 38.5 117.0 39.6 C 117.0 41.0 119.4 41.0 119.4 39.5 C 119.4 39.5 119.4 39.5 119.4 39.5 Z M 90.3 2.8 C 89.4 2.8 89.2 3.4 89.2 4.0 C 89.2 4.6 89.2 5.3 90.3 5.3 C 92.5 5.3 95.9 5.1 96.7 5.1 C 97.6 5.2 100.8 5.5 101.4 5.6 C 102.0 5.7 104.1 5.6 105.1 6.1 C 106.2 6.6 107.6 6.7 108.4 7.3 C 109.4 8.0 110.0 8.2 110.7 8.8 C 111.5 9.3 112.1 10.6 112.8 11.1 C 113.4 11.5 113.5 12.0 114.1 12.9 C 114.7 13.8 116.8 12.6 116.2 11.6 C 115.6 10.7 114.9 9.9 114.1 9.1 C 113.3 8.3 112.2 7.4 111.2 6.7 C 110.3 6.0 108.9 4.9 107.6 4.6 C 106.3 4.2 104.9 4.0 104.3 3.9 C 103.6 3.7 102.0 3.4 101.2 3.5 C 100.3 3.6 98.5 3.2 97.8 3.0 C 97.2 2.8 96.7 3.0 95.0 3.0 C 93.9 2.9 92.2 2.8 90.3 2.8 C 90.3 2.8 90.3 2.8 90.3 2.8 Z M 90.1 5.3 C 91.8 5.3 91.2 2.8 89.9 2.8 C 88.4 2.8 85.3 3.3 84.4 3.2 C 83.6 3.1 81.3 2.7 80.6 2.7 C 79.9 2.7 76.4 3.4 74.9 3.2 C 73.4 3.0 73.0 3.1 71.9 3.1 C 70.9 3.1 69.2 3.3 68.3 3.3 C 67.3 3.4 66.4 2.7 65.1 2.9 C 63.8 3.1 63.1 2.8 62.2 2.8 C 60.8 2.8 60.9 5.3 62.2 5.3 C 63.5 5.3 64.4 5.4 65.5 5.4 C 66.6 5.3 67.5 5.1 68.5 5.3 C 69.6 5.6 71.6 5.3 72.8 5.1 C 74.0 5.0 75.4 5.0 76.4 5.2 C 78.3 5.4 83.0 4.9 83.7 5.1 C 84.4 5.3 86.5 5.1 87.3 5.1 C 88.1 5.1 87.8 5.3 90.1 5.3 C 90.1 5.3 90.1 5.3 90.1 5.3 Z M 61.9 2.8 C 60.4 2.8 58.0 3.1 57.4 3.1 C 56.8 3.1 54.8 3.0 53.8 3.0 C 52.9 3.1 52.6 3.3 51.0 3.3 C 49.0 3.4 47.7 3.1 47.6 3.1 C 47.3 3.0 46.3 2.8 45.0 2.8 C 43.2 2.9 42.7 2.7 41.9 2.8 C 40.5 3.1 40.4 2.8 39.3 2.9 C 38.3 2.9 37.6 2.8 36.8 3.0 C 35.9 3.1 35.2 2.8 34.4 2.8 C 33.0 2.8 33.2 5.3 34.4 5.3 C 35.2 5.3 35.8 5.0 36.6 5.0 C 37.4 5.0 38.1 5.1 38.9 5.2 C 39.7 5.3 41.3 5.1 42.6 5.2 C 43.9 5.2 46.1 5.4 47.6 5.3 C 49.1 5.3 50.0 4.7 53.0 5.1 C 54.0 5.2 56.0 5.1 56.8 5.1 C 58.2 5.1 60.9 5.3 62.0 5.3 C 63.4 5.3 63.4 2.8 61.9 2.8 C 61.9 2.8 61.9 2.8 61.9 2.8 Z M 7.4 9.8 C 6.6 10.9 8.4 12.5 9.3 11.4 C 10.2 10.3 12.1 8.5 12.7 8.1 C 13.4 7.7 16.3 6.5 16.9 6.4 C 17.4 6.2 19.3 5.4 20.5 5.5 C 21.8 5.5 23.0 5.1 24.1 5.1 C 25.3 5.2 26.1 5.1 27.2 5.0 C 28.3 4.9 30.3 5.4 31.4 5.2 C 32.6 5.0 33.0 5.3 34.1 5.3 C 35.3 5.3 35.3 2.8 34.2 2.8 C 33.1 2.8 32.1 2.9 30.6 2.9 C 29.1 3.0 27.5 3.0 26.2 3.0 C 25.0 3.1 23.3 2.8 22.2 3.1 C 21.0 3.3 19.5 3.6 18.9 3.7 C 18.2 3.8 16.6 4.1 15.9 4.5 C 15.1 4.9 13.2 5.5 12.4 5.7 C 11.7 5.9 11.4 6.4 10.2 7.3 C 9.5 7.9 8.3 8.8 7.4 9.8 C 7.4 9.8 7.4 9.8 7.4 9.8 Z M 7.2 10.2 C 6.2 11.4 5.3 13.9 5.0 14.5 C 4.8 15.1 4.1 16.7 4.0 17.5 C 3.9 18.3 4.0 18.6 3.8 19.9 C 3.7 21.6 3.4 22.9 3.4 23.0 C 3.3 23.2 3.0 24.1 3.0 25.6 C 3.1 27.6 2.8 28.3 2.9 29.4 C 3.2 31.1 3.0 31.6 3.0 32.7 C 3.1 33.7 3.0 34.4 3.1 35.2 C 3.2 36.1 2.9 36.8 2.9 37.6 C 2.9 39.0 5.4 38.8 5.4 37.6 C 5.4 36.8 5.1 36.1 5.1 35.4 C 5.1 34.6 5.2 33.9 5.3 33.1 C 5.4 32.3 5.2 30.0 5.3 28.4 C 5.4 26.8 5.5 24.5 5.6 23.1 C 5.6 21.7 5.0 20.8 5.8 18.5 C 6.1 17.8 6.3 16.4 6.6 15.7 C 7.1 14.5 8.5 12.4 9.2 11.6 C 10.0 10.6 8.1 8.9 7.2 10.2 C 7.2 10.2 7.2 10.2 7.2 10.2 Z M 4.1 66.0 C 4.3 67.1 6.7 66.5 6.4 65.4 C 6.1 64.2 5.5 62.1 5.5 61.4 C 5.5 60.7 5.5 57.5 5.5 56.7 C 5.4 55.9 5.1 52.9 5.3 50.8 C 5.5 48.6 5.1 47.6 5.2 46.6 C 5.3 45.3 5.2 44.6 5.1 43.7 C 5.1 42.7 5.6 41.2 5.4 40.3 C 5.1 39.5 5.4 39.0 5.4 37.9 C 5.4 36.7 3.0 36.7 3.0 37.8 C 3.0 38.9 3.0 39.9 3.0 40.9 C 3.1 42.0 3.1 43.3 3.1 44.5 C 3.1 45.6 2.8 47.2 3.0 48.4 C 3.1 49.7 3.2 52.0 3.2 52.9 C 3.3 54.1 3.2 56.3 3.4 57.2 C 3.6 58.3 3.4 60.1 3.3 60.7 C 3.1 61.4 3.4 61.8 3.6 63.0 C 3.7 63.8 3.8 64.9 4.1 66.0 C 4.1 66.0 4.1 66.0 4.1 66.0 Z M 4.2 66.3 C 4.5 67.6 6.1 69.9 6.4 70.5 C 6.7 71.0 7.9 72.8 8.6 73.5 C 9.3 74.1 9.7 74.3 11.0 75.2 C 12.7 76.4 13.9 77.1 14.0 77.2 C 14.2 77.4 15.2 78.1 16.3 78.3 C 17.8 78.6 18.2 78.9 18.8 78.9 C 20.0 78.8 20.1 79.1 21.1 79.1 C 22.0 79.2 22.6 79.3 23.4 79.2 C 24.3 79.1 25.0 79.5 26.0 79.5 C 27.4 79.5 27.3 77.0 26.0 77.0 C 25.1 77.0 24.4 77.2 23.7 77.2 C 22.9 77.2 22.3 77.1 21.6 76.9 C 20.9 76.7 19.6 76.7 18.6 76.5 C 17.7 76.2 16.2 75.7 14.9 75.2 C 13.6 74.6 12.4 74.8 10.6 72.5 C 10.0 71.8 8.7 70.5 8.3 69.9 C 7.6 68.8 6.7 66.4 6.5 65.6 C 6.2 64.5 3.8 65.1 4.2 66.3 C 4.2 66.3 4.2 66.3 4.2 66.3 Z M 32.3 80.2 C 32.3 80.2 32.3 80.1 32.3 78.7 C 32.3 77.4 32.3 76.3 32.3 76.3 C 32.3 76.3 32.3 77.1 32.3 77.1 C 32.2 77.1 32.2 79.5 32.3 79.5 C 32.3 79.5 32.3 80.2 32.3 80.2 C 32.3 80.2 32.3 80.2 32.3 80.2 Z M 32.2 76.3 C 32.2 76.3 32.2 77.0 32.2 78.3 C 32.2 79.6 32.2 80.2 32.2 80.2 C 32.2 80.2 32.2 79.5 32.2 79.5 C 32.3 79.5 32.3 77.1 32.2 77.1 C 32.2 77.1 32.2 76.3 32.2 76.3 C 32.2 76.3 32.2 76.3 32.2 76.3 Z M 32.2 76.3 " fill="#FF7777"></path><g><clipPath id="clip-82"><path d="M 4.2 4.0 L 118.2 4.0 L 118.2 78.3 L 4.2 78.3 Z M 4.2 4.0 "></path></clipPath><g clip-path="url(#clip-82)"><text xml:space="preserve" font-family="AmericanTypewriter" font-size="20.0" fill="#000000" transform="matrix(1.00, 0.00, -0.00, -1.00, 44.0, 34.0)">V</text><text xml:space="preserve" font-family="AmericanTypewriter" font-size="20.0" fill="#000000" transform="matrix(1.00, 0.00, -0.00, -1.00, 58.6, 34.0)">M</text></g></g></g></svg>