<?xml version="1.0" encoding="UTF-8" standalone="no"?><svg xmlns="http://www.w3.org/2000/svg" xmlns:xlink="http://www.w3.org/1999/xlink" clip-rule="evenodd" stroke-miterlimit="4.00" viewBox="0 0 124 84"><desc>SVG generated by Keynote</desc><defs></defs><g transform="matrix(1.00, 0.00, -0.00, -1.00, 0.0, 84.0)"><path d="M 32.6 79.9 L 90.6 79.9 C 98.6 79.9 102.7 79.9 107.0 78.5 C 111.7 76.8 115.5 73.0 117.2 68.3 C 118.6 63.9 118.6 59.9 118.6 51.7 L 118.6 33.6 C 118.6 25.6 118.6 21.5 117.2 17.2 C 115.5 12.4 111.7 8.7 107.0 7.0 C 102.7 5.6 98.6 5.6 90.4 5.6 L 32.6 5.6 C 24.6 5.6 20.5 5.6 16.1 7.0 C 11.4 8.7 7.7 12.4 5.9 17.2 C 4.6 21.5 4.6 25.6 4.6 33.8 L 4.6 51.8 C 4.6 59.9 4.6 63.9 5.9 68.3 C 7.7 73.0 11.4 76.8 16.1 78.5 C 20.5 79.9 24.6 79.9 32.7 79.9 Z M 32.6 79.9 " fill="#DDF3D0"></path><path d="M 33.3 77.9 C 32.4 77.9 31.1 78.1 31.0 79.4 C 30.8 80.8 31.8 81.8 33.2 81.8 C 34.5 81.8 34.1 81.1 37.3 81.1 C 38.5 81.1 38.6 78.6 37.4 78.6 C 34.5 78.6 34.9 77.9 33.3 77.9 C 33.3 77.9 33.3 77.9 33.3 77.9 Z M 31.6 81.8 C 32.0 81.8 32.4 81.8 32.7 81.7 L 32.7 78.0 C 31.7 78.2 31.2 78.8 31.2 79.8 C 31.2 80.9 31.7 81.5 32.7 81.7 L 32.7 78.0 C 32.4 77.9 32.0 77.9 31.6 77.9 C 29.5 77.9 29.5 78.7 26.8 78.6 C 25.3 78.5 25.5 81.0 26.7 81.0 C 29.6 81.1 29.3 81.8 31.6 81.8 C 31.6 81.8 31.6 81.8 31.6 81.8 Z M 37.5 78.6 C 36.3 78.6 36.3 81.1 37.6 81.1 C 39.1 81.1 42.2 80.6 43.1 80.7 C 43.9 80.7 46.2 81.2 46.9 81.2 C 47.6 81.2 51.1 80.5 52.6 80.7 C 54.1 80.9 54.6 80.8 55.6 80.8 C 56.6 80.8 58.3 80.6 59.3 80.6 C 60.2 80.5 61.1 81.2 62.4 81.0 C 63.7 80.8 64.4 81.1 65.3 81.1 C 66.7 81.1 66.6 78.6 65.3 78.6 C 64.0 78.6 63.1 78.5 62.0 78.5 C 61.0 78.6 60.0 78.8 59.0 78.6 C 58.0 78.3 56.0 78.6 54.7 78.8 C 53.5 78.9 52.1 78.8 51.1 78.7 C 49.2 78.5 44.5 79.0 43.8 78.8 C 43.1 78.6 41.0 78.8 40.2 78.8 C 39.5 78.8 39.0 78.6 37.5 78.6 C 37.5 78.6 37.5 78.6 37.5 78.6 Z M 94.1 81.1 C 95.7 81.1 95.9 78.6 94.0 78.6 C 92.2 78.6 88.8 78.9 88.0 78.8 C 87.2 78.8 83.7 78.6 83.0 78.6 C 82.3 78.6 79.7 79.0 78.2 78.8 C 76.7 78.6 75.2 79.0 74.2 78.9 C 72.9 78.7 72.2 78.9 71.3 78.9 C 70.3 79.0 68.8 78.5 67.9 78.7 C 67.1 78.9 66.6 78.6 65.5 78.6 C 64.3 78.6 64.3 81.1 65.4 81.1 C 66.5 81.1 67.4 81.0 68.5 81.0 C 69.6 80.9 70.9 80.9 72.1 80.9 C 73.2 80.9 74.8 81.2 76.0 81.0 C 77.3 80.9 79.1 80.8 79.8 80.8 C 80.7 80.8 82.6 80.8 83.4 80.7 C 84.5 80.5 86.3 80.8 87.0 81.0 C 87.7 81.2 88.1 80.9 89.6 80.9 C 90.5 81.0 92.4 81.1 94.1 81.1 C 94.1 81.1 94.1 81.1 94.1 81.1 Z M 94.6 81.1 C 96.4 81.1 98.9 80.7 99.5 80.6 C 100.1 80.6 101.9 80.6 102.7 80.5 C 103.6 80.3 103.8 80.1 105.1 79.8 C 106.7 79.3 107.9 79.1 108.1 79.1 C 108.4 79.0 109.4 78.9 110.6 78.1 C 112.2 77.0 112.7 76.8 113.3 76.1 C 114.2 74.9 114.5 75.0 115.1 74.1 C 115.8 73.3 116.3 72.7 116.6 71.9 C 117.0 71.0 117.6 70.5 118.0 69.7 C 118.5 68.4 116.2 67.7 115.7 68.8 C 115.4 69.4 115.4 70.1 115.0 70.7 C 114.6 71.4 114.2 71.9 113.6 72.4 C 113.1 72.9 112.2 74.1 111.2 74.8 C 110.2 75.5 108.5 76.5 107.2 77.0 C 105.9 77.6 105.6 78.3 103.1 78.3 C 102.3 78.3 100.7 78.6 99.9 78.7 C 98.6 78.7 95.8 78.6 94.4 78.6 C 92.7 78.6 92.7 81.1 94.6 81.1 C 94.6 81.1 94.6 81.1 94.6 81.1 Z M 119.8 41.5 C 119.8 40.2 117.4 40.0 117.4 41.5 C 117.4 43.0 117.6 45.8 117.5 46.6 C 117.5 47.5 117.3 50.9 117.3 51.6 C 117.3 52.4 117.7 56.1 117.5 57.7 C 117.2 59.4 117.6 60.8 117.4 61.7 C 117.2 62.8 117.2 63.4 117.2 64.2 C 117.1 65.0 116.4 66.0 116.4 66.6 C 116.5 67.3 116.2 67.5 115.8 68.5 C 115.4 69.5 117.6 70.6 118.0 69.5 C 118.5 68.4 118.6 67.6 118.8 66.7 C 119.0 65.8 119.1 64.7 119.2 63.7 C 119.3 62.8 119.8 61.3 119.7 60.1 C 119.6 58.8 119.5 56.8 119.5 55.9 C 119.5 54.8 119.5 52.0 119.4 51.2 C 119.2 50.1 119.5 48.3 119.7 47.6 C 119.9 47.0 119.6 46.5 119.7 45.0 C 119.7 44.2 119.8 42.8 119.8 41.5 C 119.8 41.5 119.8 41.5 119.8 41.5 Z M 119.8 41.1 C 119.8 39.6 119.5 37.1 119.5 36.5 C 119.5 35.9 119.7 34.1 119.6 32.7 C 119.6 31.4 119.4 30.9 119.3 29.0 C 119.2 26.7 119.4 25.4 119.4 25.3 C 119.5 25.1 119.7 24.1 119.5 22.9 C 119.3 21.2 119.4 20.8 119.2 20.1 C 118.7 19.0 118.9 18.9 118.6 18.0 C 118.4 17.2 118.3 16.5 117.8 15.7 C 117.3 14.9 117.2 14.1 116.7 13.4 C 116.0 12.2 114.0 13.7 114.6 14.7 C 115.0 15.3 115.5 15.8 115.9 16.4 C 116.2 17.1 116.3 17.7 116.4 18.3 C 116.4 18.9 116.9 20.1 117.0 21.1 C 117.1 22.2 117.1 24.0 117.2 25.4 C 117.3 26.9 117.9 27.6 117.6 31.7 C 117.4 33.0 117.5 35.2 117.5 36.0 C 117.5 37.4 117.4 40.1 117.4 41.2 C 117.4 42.6 119.8 42.6 119.8 41.1 C 119.8 41.1 119.8 41.1 119.8 41.1 Z M 90.7 4.4 C 89.8 4.4 89.6 5.0 89.6 5.6 C 89.6 6.2 89.6 6.8 90.7 6.8 C 93.0 6.8 96.3 6.6 97.2 6.7 C 98.0 6.8 101.2 7.1 101.8 7.2 C 102.4 7.2 104.5 7.2 105.5 7.7 C 106.6 8.2 108.0 8.3 108.8 8.9 C 109.8 9.6 110.4 9.8 111.1 10.4 C 111.9 10.9 112.5 12.2 113.2 12.6 C 113.8 13.1 113.9 13.6 114.5 14.5 C 115.1 15.4 117.2 14.2 116.6 13.2 C 116.0 12.2 115.3 11.5 114.5 10.7 C 113.7 9.9 112.6 9.0 111.6 8.3 C 110.7 7.6 109.3 6.5 108.0 6.1 C 106.7 5.8 105.4 5.5 104.8 5.4 C 104.0 5.3 102.4 5.0 101.6 5.1 C 100.7 5.2 98.9 4.8 98.3 4.6 C 97.6 4.3 97.1 4.6 95.4 4.5 C 94.4 4.5 92.6 4.4 90.7 4.4 C 90.7 4.4 90.7 4.4 90.7 4.4 Z M 90.5 6.9 C 92.2 6.9 91.7 4.4 90.3 4.4 C 88.8 4.4 85.7 4.8 84.9 4.8 C 84.0 4.7 81.7 4.3 81.0 4.3 C 80.3 4.3 76.8 5.0 75.3 4.8 C 73.8 4.6 73.4 4.7 72.3 4.7 C 71.3 4.7 69.7 4.8 68.7 4.9 C 67.7 4.9 66.8 4.3 65.5 4.5 C 64.2 4.6 63.5 4.4 62.7 4.4 C 61.2 4.4 61.3 6.8 62.6 6.8 C 63.9 6.8 64.8 7.0 65.9 6.9 C 67.0 6.9 67.9 6.6 68.9 6.9 C 70.0 7.1 72.0 6.9 73.2 6.7 C 74.4 6.6 75.8 6.6 76.8 6.7 C 78.8 6.9 83.5 6.5 84.1 6.7 C 84.8 6.9 87.0 6.7 87.7 6.7 C 88.5 6.7 88.2 6.9 90.5 6.9 C 90.5 6.9 90.5 6.9 90.5 6.9 Z M 62.3 4.4 C 60.8 4.4 58.4 4.7 57.8 4.7 C 57.2 4.7 55.2 4.5 54.2 4.6 C 53.3 4.6 53.0 4.8 51.4 4.9 C 49.4 4.9 48.1 4.7 48.0 4.7 C 47.7 4.6 46.7 4.3 45.4 4.4 C 43.6 4.5 43.1 4.3 42.3 4.4 C 40.9 4.7 40.8 4.4 39.7 4.5 C 38.7 4.5 38.0 4.4 37.2 4.5 C 36.3 4.7 35.6 4.4 34.8 4.4 C 33.4 4.4 33.6 6.8 34.8 6.8 C 35.6 6.8 36.3 6.6 37.0 6.6 C 37.8 6.6 38.5 6.6 39.3 6.7 C 40.1 6.8 41.8 6.7 43.0 6.7 C 44.3 6.8 46.5 6.9 48.0 6.9 C 49.5 6.8 50.4 6.3 53.5 6.6 C 54.4 6.8 56.4 6.7 57.2 6.7 C 58.6 6.7 61.3 6.8 62.5 6.8 C 63.8 6.8 63.8 4.4 62.3 4.4 C 62.3 4.4 62.3 4.4 62.3 4.4 Z M 7.8 11.4 C 7.0 12.5 8.8 14.1 9.7 13.0 C 10.6 11.9 12.5 10.0 13.2 9.7 C 13.8 9.3 16.7 8.1 17.3 8.0 C 17.8 7.8 19.7 7.0 20.9 7.1 C 22.2 7.1 23.5 6.6 24.5 6.7 C 25.7 6.8 26.5 6.7 27.6 6.6 C 28.7 6.5 30.7 7.0 31.8 6.8 C 33.0 6.6 33.4 6.8 34.5 6.8 C 35.7 6.8 35.7 4.4 34.6 4.4 C 33.5 4.4 32.5 4.4 31.0 4.5 C 29.5 4.5 27.9 4.6 26.6 4.6 C 25.4 4.6 23.8 4.4 22.6 4.6 C 21.5 4.9 19.9 5.1 19.3 5.3 C 18.6 5.4 17.0 5.7 16.3 6.1 C 15.5 6.5 13.6 7.1 12.9 7.3 C 12.1 7.5 11.8 8.0 10.6 8.9 C 9.9 9.4 8.7 10.4 7.8 11.4 C 7.8 11.4 7.8 11.4 7.8 11.4 Z M 7.6 11.8 C 6.6 13.0 5.7 15.5 5.4 16.1 C 5.2 16.6 4.5 18.3 4.4 19.1 C 4.3 19.9 4.4 20.1 4.3 21.5 C 4.1 23.2 3.8 24.5 3.8 24.5 C 3.7 24.8 3.4 25.7 3.4 27.2 C 3.5 29.2 3.3 29.9 3.4 30.9 C 3.6 32.7 3.4 33.2 3.4 34.3 C 3.5 35.3 3.4 36.0 3.5 36.8 C 3.7 37.7 3.3 38.4 3.4 39.2 C 3.4 40.5 5.8 40.4 5.8 39.2 C 5.8 38.4 5.5 37.7 5.5 36.9 C 5.5 36.1 5.6 35.4 5.7 34.7 C 5.8 33.9 5.6 31.6 5.7 30.0 C 5.8 28.4 6.0 26.1 6.0 24.7 C 6.0 23.3 5.4 22.4 6.3 20.1 C 6.5 19.4 6.7 18.0 7.0 17.3 C 7.5 16.1 8.9 14.0 9.6 13.2 C 10.4 12.2 8.6 10.5 7.6 11.8 C 7.6 11.8 7.6 11.8 7.6 11.8 Z M 4.5 67.6 C 4.8 68.7 7.1 68.1 6.8 67.0 C 6.5 65.8 6.0 63.7 5.9 63.0 C 5.9 62.3 5.9 59.0 5.9 58.3 C 5.8 57.5 5.5 54.5 5.7 52.3 C 5.9 50.2 5.5 49.2 5.6 48.2 C 5.7 46.9 5.6 46.2 5.5 45.2 C 5.5 44.3 6.0 42.8 5.8 41.9 C 5.6 41.1 5.8 40.6 5.8 39.5 C 5.8 38.3 3.4 38.3 3.4 39.4 C 3.4 40.5 3.4 41.4 3.5 42.5 C 3.5 43.6 3.5 44.9 3.5 46.1 C 3.5 47.2 3.2 48.8 3.4 50.0 C 3.6 51.2 3.6 53.6 3.6 54.5 C 3.7 55.7 3.6 57.9 3.8 58.8 C 4.0 59.9 3.8 61.7 3.7 62.3 C 3.5 63.0 3.8 63.4 4.0 64.6 C 4.1 65.4 4.2 66.5 4.5 67.6 C 4.5 67.6 4.5 67.6 4.5 67.6 Z M 4.6 67.9 C 4.9 69.2 6.5 71.5 6.8 72.0 C 7.1 72.6 8.3 74.4 9.0 75.0 C 9.7 75.7 10.1 75.8 11.4 76.8 C 13.1 77.9 14.3 78.7 14.4 78.8 C 14.6 79.0 15.6 79.7 16.7 79.9 C 18.2 80.2 18.6 80.5 19.3 80.5 C 20.5 80.4 20.5 80.7 21.5 80.7 C 22.4 80.8 23.0 80.9 23.8 80.8 C 24.8 80.7 25.4 81.0 26.4 81.0 C 27.8 81.1 27.7 78.6 26.4 78.6 C 25.5 78.6 24.8 78.8 24.1 78.8 C 23.3 78.7 22.7 78.6 22.0 78.5 C 21.4 78.3 20.0 78.3 19.1 78.1 C 18.1 77.8 16.6 77.3 15.3 76.8 C 14.0 76.2 12.8 76.3 11.0 74.1 C 10.4 73.4 9.2 72.1 8.7 71.5 C 8.0 70.4 7.1 68.0 6.9 67.1 C 6.6 66.1 4.2 66.7 4.6 67.9 C 4.6 67.9 4.6 67.9 4.6 67.9 Z M 32.7 81.8 C 32.7 81.8 32.7 81.6 32.7 80.3 C 32.7 79.0 32.7 77.9 32.7 77.9 C 32.7 77.9 32.7 78.6 32.7 78.6 C 32.6 78.6 32.6 81.1 32.7 81.1 C 32.7 81.1 32.7 81.8 32.7 81.8 C 32.7 81.8 32.7 81.8 32.7 81.8 Z M 32.6 77.9 C 32.6 77.9 32.6 78.5 32.6 79.8 C 32.6 81.2 32.6 81.8 32.6 81.8 C 32.6 81.8 32.6 81.1 32.7 81.1 C 32.7 81.1 32.7 78.7 32.7 78.7 C 32.6 78.7 32.6 77.9 32.6 77.9 C 32.6 77.9 32.6 77.9 32.6 77.9 Z M 32.6 77.9 " fill="#FF7777"></path><g><clipPath id="clip-89"><path d="M 4.6 5.6 L 118.6 5.6 L 118.6 79.9 L 4.6 79.9 Z M 4.6 5.6 "></path></clipPath><g clip-path="url(#clip-89)"><text xml:space="preserve" font-family="AmericanTypewriter" font-size="20.0" fill="#000000" transform="matrix(1.00, 0.00, -0.00, -1.00, 45.0, 36.0)">V</text><text xml:space="preserve" font-family="AmericanTypewriter" font-size="20.0" fill="#000000" transform="matrix(1.00, 0.00, -0.00, -1.00, 59.6, 36.0)">M</text></g></g></g></svg>