<?xml version="1.0" encoding="UTF-8" standalone="no"?><svg xmlns="http://www.w3.org/2000/svg" xmlns:xlink="http://www.w3.org/1999/xlink" clip-rule="evenodd" stroke-miterlimit="4.00" viewBox="0 0 238 174"><desc>SVG generated by Keynote</desc><defs></defs><g transform="matrix(1.00, 0.00, -0.00, -1.00, 0.0, 174.0)"><g><clipPath id="clip-63"><path d="M 0.9 35.6 L 237.5 35.6 L 237.5 173.8 L 0.9 173.8 Z M 0.9 35.6 "></path></clipPath><g clip-path="url(#clip-63)"><path d="M 0.0 0.0 C 5.4 42.4 5.8 85.3 1.1 127.8 C 0.9 129.7 0.7 131.6 0.5 133.6 C 2.7 133.4 4.9 133.2 7.2 133.0 C 82.3 127.0 158.0 127.5 233.0 134.5 " fill="none" stroke="#FEFFFE" stroke-width="3.00" transform="matrix(1.00, 0.00, 0.00, -1.00, 3.4, 172.6)"></path></g></g><g><clipPath id="clip-64"><path d="M 12.9 53.3 L 237.8 48.9 L 236.8 -3.4 L 11.9 1.0 Z M 12.9 53.3 "></path></clipPath><g clip-path="url(#clip-64)"><text xml:space="preserve" font-family="AmericanTypewriter" font-size="30.0" fill="#FEFFFF" transform="matrix(1.00, -0.02, -0.02, -1.00, 21.4, 16.9)">C</text><text xml:space="preserve" font-family="AmericanTypewriter" font-size="30.0" fill="#FEFFFF" transform="matrix(1.00, -0.02, -0.02, -1.00, 40.5, 16.6)">o</text><text xml:space="preserve" font-family="AmericanTypewriter" font-size="30.0" fill="#FEFFFF" transform="matrix(1.00, -0.02, -0.02, -1.00, 56.9, 16.3)">m</text><text xml:space="preserve" font-family="AmericanTypewriter" font-size="30.0" fill="#FEFFFF" transform="matrix(1.00, -0.02, -0.02, -1.00, 83.9, 15.7)">p</text><text xml:space="preserve" font-family="AmericanTypewriter" font-size="30.0" fill="#FEFFFF" transform="matrix(1.00, -0.02, -0.02, -1.00, 101.9, 15.4)">u</text><text xml:space="preserve" font-family="AmericanTypewriter" font-size="30.0" fill="#FEFFFF" transform="matrix(1.00, -0.02, -0.02, -1.00, 120.5, 15.0)">t</text><text xml:space="preserve" font-family="AmericanTypewriter" font-size="30.0" fill="#FEFFFF" transform="matrix(1.00, -0.02, -0.02, -1.00, 132.5, 14.8)">e</text><text xml:space="preserve" font-family="AmericanTypewriter" font-size="30.0" fill="#FEFFFF" transform="matrix(1.00, -0.02, -0.02, -1.00, 148.3, 14.5)"> </text><text xml:space="preserve" font-family="AmericanTypewriter" font-size="30.0" fill="#FEFFFF" transform="matrix(1.00, -0.02, -0.02, -1.00, 155.8, 14.3)">N</text><text xml:space="preserve" font-family="AmericanTypewriter" font-size="30.0" fill="#FEFFFF" transform="matrix(1.00, -0.02, -0.02, -1.00, 177.8, 13.9)">o</text><text xml:space="preserve" font-family="AmericanTypewriter" font-size="30.0" fill="#FEFFFF" transform="matrix(1.00, -0.02, -0.02, -1.00, 194.1, 13.6)">d</text><text xml:space="preserve" font-family="AmericanTypewriter" font-size="30.0" fill="#FEFFFF" transform="matrix(1.00, -0.02, -0.02, -1.00, 212.1, 13.3)">e</text></g></g><g><clipPath id="clip-65"><path d="M 39.1 78.8 L 170.8 78.8 L 170.8 170.7 L 39.1 170.7 Z M 39.1 78.8 "></path></clipPath><g clip-path="url(#clip-65)"><image xlink:href="../../956FEF66-F126-4898-9939-EAE9E9BE3BA5/assets/6BE460064B40692868CC0984B1AA00D9.png" width="130.00" height="90.00" transform="matrix(1.00, 0.00, -0.00, -1.00, 40.1, 169.7)" opacity="0.50"></image><path d="M 76.0 161.8 L 134.0 161.8 C 142.0 161.8 146.1 161.8 150.4 160.5 C 155.1 158.7 158.9 155.0 160.6 150.3 C 162.0 145.9 162.0 141.8 162.0 133.7 L 162.0 115.6 C 162.0 107.6 162.0 103.5 160.6 99.2 C 158.9 94.4 155.1 90.7 150.4 89.0 C 146.1 87.6 142.0 87.6 133.8 87.6 L 76.0 87.6 C 68.0 87.6 63.9 87.6 59.5 89.0 C 54.8 90.7 51.1 94.4 49.3 99.2 C 48.0 103.5 48.0 107.6 48.0 115.7 L 48.0 133.8 C 48.0 141.8 48.0 145.9 49.3 150.3 C 51.1 155.0 54.8 158.7 59.5 160.5 C 63.9 161.8 68.0 161.8 76.1 161.8 Z M 76.0 161.8 " fill="#DDF3D0"></path><path d="M 76.7 159.9 C 75.7 159.9 74.5 160.1 74.4 161.4 C 74.2 162.7 75.2 163.8 76.6 163.8 C 77.9 163.8 77.5 163.0 80.7 163.0 C 81.9 163.0 82.0 160.6 80.8 160.6 C 77.9 160.6 78.3 159.9 76.7 159.9 C 76.7 159.9 76.7 159.9 76.7 159.9 Z M 75.0 163.8 C 75.4 163.8 75.8 163.8 76.1 163.7 L 76.1 160.0 C 75.1 160.1 74.6 160.8 74.6 161.8 C 74.6 162.9 75.1 163.5 76.1 163.7 L 76.1 160.0 C 75.8 159.9 75.4 159.9 75.0 159.9 C 72.9 159.9 72.9 160.6 70.2 160.6 C 68.7 160.5 68.9 163.0 70.1 163.0 C 73.0 163.1 72.7 163.8 75.0 163.8 C 75.0 163.8 75.0 163.8 75.0 163.8 Z M 80.9 160.6 C 79.7 160.6 79.7 163.1 81.0 163.1 C 82.5 163.1 85.6 162.6 86.5 162.7 C 87.3 162.7 89.6 163.2 90.3 163.2 C 91.0 163.2 94.5 162.5 96.0 162.7 C 97.5 162.9 98.0 162.8 99.0 162.8 C 100.0 162.8 101.7 162.6 102.7 162.6 C 103.6 162.5 104.5 163.2 105.8 163.0 C 107.1 162.8 107.8 163.1 108.7 163.1 C 110.1 163.1 110.0 160.6 108.7 160.6 C 107.4 160.6 106.5 160.4 105.4 160.5 C 104.4 160.5 103.4 160.8 102.4 160.5 C 101.4 160.3 99.4 160.6 98.1 160.7 C 96.9 160.9 95.5 160.8 94.5 160.7 C 92.6 160.5 87.9 161.0 87.2 160.8 C 86.5 160.6 84.4 160.8 83.6 160.8 C 82.9 160.8 82.4 160.6 80.9 160.6 C 80.9 160.6 80.9 160.6 80.9 160.6 Z M 137.5 163.0 C 139.1 163.0 139.3 160.6 137.4 160.6 C 135.6 160.6 132.2 160.8 131.4 160.8 C 130.6 160.7 127.1 160.6 126.4 160.6 C 125.7 160.6 123.1 160.9 121.6 160.7 C 120.1 160.5 118.6 160.9 117.6 160.8 C 116.3 160.7 115.6 160.8 114.7 160.9 C 113.7 160.9 112.2 160.4 111.3 160.6 C 110.5 160.8 110.0 160.6 108.9 160.6 C 107.7 160.6 107.7 163.0 108.8 163.0 C 109.9 163.0 110.8 163.0 111.9 162.9 C 113.0 162.9 114.3 162.9 115.5 162.9 C 116.6 162.9 118.2 163.2 119.4 163.0 C 120.7 162.8 122.5 162.8 123.2 162.8 C 124.1 162.7 126.0 162.8 126.8 162.7 C 127.9 162.5 129.7 162.7 130.4 162.9 C 131.1 163.2 131.5 162.9 133.0 162.9 C 133.9 162.9 135.8 163.1 137.5 163.0 C 137.5 163.0 137.5 163.0 137.5 163.0 Z M 138.0 163.0 C 139.8 163.0 142.3 162.6 142.9 162.6 C 143.5 162.6 145.3 162.6 146.1 162.4 C 147.0 162.3 147.2 162.1 148.5 161.7 C 150.1 161.3 151.3 161.1 151.4 161.1 C 151.8 161.0 152.8 160.8 154.0 160.0 C 155.6 159.0 156.1 158.7 156.7 158.1 C 157.6 156.9 157.9 157.0 158.5 156.1 C 159.2 155.2 159.7 154.7 160.0 153.9 C 160.4 153.0 161.0 152.5 161.4 151.7 C 161.9 150.3 159.6 149.7 159.1 150.7 C 158.8 151.4 158.7 152.1 158.4 152.7 C 158.0 153.3 157.6 153.9 157.0 154.4 C 156.5 154.9 155.6 156.1 154.6 156.8 C 153.6 157.5 151.9 158.4 150.6 159.0 C 149.3 159.6 149.0 160.3 146.5 160.3 C 145.7 160.3 144.1 160.6 143.3 160.6 C 142.0 160.7 139.2 160.6 137.8 160.6 C 136.1 160.6 136.1 163.1 138.0 163.0 C 138.0 163.0 138.0 163.0 138.0 163.0 Z M 163.2 123.5 C 163.2 122.2 160.8 121.9 160.8 123.5 C 160.8 125.0 161.0 127.8 160.9 128.6 C 160.9 129.4 160.7 132.9 160.7 133.6 C 160.7 134.3 161.1 138.1 160.8 139.7 C 160.6 141.4 161.0 142.8 160.8 143.7 C 160.6 144.8 160.6 145.4 160.6 146.1 C 160.5 146.9 159.8 148.0 159.8 148.6 C 159.9 149.3 159.6 149.5 159.2 150.5 C 158.8 151.5 161.0 152.6 161.4 151.5 C 161.9 150.4 162.0 149.6 162.2 148.7 C 162.3 147.8 162.5 146.7 162.6 145.7 C 162.7 144.8 163.2 143.3 163.1 142.1 C 163.0 140.8 162.9 138.8 162.9 137.9 C 162.9 136.8 162.9 134.0 162.8 133.2 C 162.6 132.1 162.9 130.3 163.1 129.6 C 163.3 128.9 163.0 128.5 163.1 127.0 C 163.1 126.1 163.2 124.8 163.2 123.5 C 163.2 123.5 163.2 123.5 163.2 123.5 Z M 163.2 123.1 C 163.2 121.6 162.9 119.1 162.9 118.5 C 162.9 117.9 163.1 116.0 163.0 114.7 C 163.0 113.4 162.8 112.9 162.7 111.0 C 162.6 108.6 162.8 107.4 162.8 107.3 C 162.9 107.0 163.1 106.0 162.9 104.8 C 162.7 103.2 162.8 102.8 162.6 102.1 C 162.1 101.0 162.3 100.8 162.0 100.0 C 161.8 99.2 161.7 98.5 161.2 97.7 C 160.7 96.9 160.6 96.1 160.1 95.4 C 159.4 94.1 157.4 95.7 158.0 96.7 C 158.4 97.3 158.9 97.7 159.3 98.4 C 159.6 99.1 159.7 99.7 159.8 100.3 C 159.8 100.9 160.3 102.1 160.4 103.1 C 160.5 104.1 160.5 106.0 160.6 107.4 C 160.7 108.9 161.3 109.6 161.0 113.6 C 160.8 115.0 160.9 117.1 160.9 117.9 C 160.9 119.3 160.8 122.0 160.8 123.2 C 160.8 124.6 163.2 124.5 163.2 123.1 C 163.2 123.1 163.2 123.1 163.2 123.1 Z M 134.1 86.4 C 133.2 86.4 133.0 87.0 133.0 87.6 C 133.0 88.2 133.0 88.8 134.1 88.8 C 136.3 88.8 139.7 88.6 140.6 88.7 C 141.4 88.8 144.6 89.1 145.2 89.2 C 145.8 89.2 147.9 89.2 148.9 89.7 C 150.0 90.2 151.4 90.3 152.2 90.9 C 153.2 91.5 153.8 91.8 154.5 92.3 C 155.3 92.9 155.9 94.2 156.6 94.6 C 157.2 95.1 157.3 95.5 157.9 96.5 C 158.5 97.4 160.6 96.2 160.0 95.2 C 159.4 94.2 158.7 93.4 157.9 92.6 C 157.1 91.8 156.0 90.9 155.0 90.2 C 154.1 89.6 152.7 88.5 151.4 88.1 C 150.1 87.7 148.8 87.5 148.2 87.4 C 147.4 87.3 145.8 87.0 145.0 87.0 C 144.1 87.1 142.3 86.8 141.7 86.5 C 141.0 86.3 140.5 86.6 138.8 86.5 C 137.8 86.5 136.0 86.4 134.1 86.4 C 134.1 86.4 134.1 86.4 134.1 86.4 Z M 133.9 88.8 C 135.6 88.8 135.1 86.4 133.7 86.4 C 132.2 86.4 129.1 86.8 128.3 86.8 C 127.4 86.7 125.1 86.2 124.4 86.2 C 123.7 86.2 120.2 87.0 118.7 86.8 C 117.2 86.5 116.8 86.7 115.7 86.7 C 114.7 86.7 113.1 86.8 112.1 86.9 C 111.1 86.9 110.2 86.3 108.9 86.4 C 107.6 86.6 106.9 86.4 106.1 86.4 C 104.6 86.4 104.7 88.8 106.0 88.8 C 107.3 88.8 108.2 89.0 109.3 88.9 C 110.4 88.9 111.3 88.6 112.3 88.9 C 113.4 89.1 115.4 88.8 116.6 88.7 C 117.8 88.5 119.2 88.6 120.2 88.7 C 122.2 88.9 126.9 88.5 127.5 88.7 C 128.2 88.9 130.3 88.7 131.1 88.7 C 131.9 88.7 131.6 88.8 133.9 88.8 C 133.9 88.8 133.9 88.8 133.9 88.8 Z M 105.7 86.4 C 104.2 86.4 101.8 86.7 101.2 86.7 C 100.6 86.7 98.6 86.5 97.6 86.6 C 96.7 86.6 96.4 86.8 94.8 86.9 C 92.8 86.9 91.5 86.7 91.4 86.6 C 91.1 86.6 90.1 86.3 88.8 86.4 C 87.0 86.5 86.5 86.3 85.7 86.4 C 84.3 86.7 84.2 86.4 83.1 86.4 C 82.1 86.5 81.4 86.4 80.6 86.5 C 79.7 86.7 79.0 86.3 78.2 86.4 C 76.8 86.4 77.0 88.8 78.2 88.8 C 79.0 88.8 79.7 88.6 80.4 88.6 C 81.2 88.6 81.9 88.6 82.7 88.7 C 83.5 88.8 85.2 88.7 86.4 88.7 C 87.7 88.8 89.9 88.9 91.4 88.9 C 92.9 88.8 93.8 88.2 96.9 88.6 C 97.8 88.7 99.8 88.6 100.6 88.6 C 102.0 88.6 104.7 88.8 105.9 88.8 C 107.2 88.8 107.2 86.4 105.7 86.4 C 105.7 86.4 105.7 86.4 105.7 86.4 Z M 51.2 93.4 C 50.4 94.5 52.2 96.0 53.1 94.9 C 54.0 93.9 55.9 92.0 56.6 91.6 C 57.2 91.3 60.1 90.1 60.7 89.9 C 61.2 89.8 63.1 89.0 64.3 89.1 C 65.6 89.1 66.9 88.6 67.9 88.7 C 69.1 88.8 69.9 88.6 71.0 88.6 C 72.1 88.5 74.1 89.0 75.2 88.8 C 76.4 88.6 76.8 88.8 77.9 88.8 C 79.1 88.8 79.1 86.4 78.0 86.4 C 76.9 86.4 75.9 86.4 74.4 86.5 C 72.9 86.5 71.3 86.6 70.0 86.6 C 68.8 86.6 67.2 86.4 66.0 86.6 C 64.9 86.8 63.3 87.1 62.7 87.2 C 62.0 87.4 60.4 87.7 59.7 88.0 C 58.9 88.4 57.0 89.1 56.3 89.3 C 55.5 89.5 55.2 89.9 54.0 90.9 C 53.3 91.4 52.1 92.3 51.2 93.4 C 51.2 93.4 51.2 93.4 51.2 93.4 Z M 51.0 93.7 C 50.0 95.0 49.1 97.4 48.8 98.0 C 48.6 98.6 47.9 100.3 47.8 101.0 C 47.7 101.8 47.8 102.1 47.7 103.5 C 47.5 105.2 47.2 106.4 47.2 106.5 C 47.1 106.8 46.8 107.7 46.8 109.2 C 46.9 111.1 46.7 111.9 46.8 112.9 C 47.0 114.7 46.8 115.2 46.8 116.2 C 46.9 117.3 46.8 117.9 46.9 118.8 C 47.0 119.7 46.7 120.3 46.7 121.2 C 46.7 122.5 49.2 122.4 49.2 121.1 C 49.2 120.4 48.9 119.7 48.9 118.9 C 48.9 118.1 49.0 117.4 49.1 116.6 C 49.2 115.8 49.0 113.5 49.1 111.9 C 49.2 110.3 49.3 108.0 49.4 106.6 C 49.4 105.3 48.8 104.3 49.7 102.1 C 49.9 101.3 50.1 100.0 50.4 99.3 C 50.9 98.0 52.3 96.0 53.0 95.1 C 53.8 94.1 52.0 92.5 51.0 93.7 C 51.0 93.7 51.0 93.7 51.0 93.7 Z M 47.9 149.6 C 48.2 150.6 50.5 150.1 50.2 148.9 C 49.9 147.8 49.4 145.7 49.3 145.0 C 49.3 144.3 49.3 141.0 49.3 140.2 C 49.2 139.5 48.9 136.4 49.1 134.3 C 49.3 132.2 48.9 131.2 49.0 130.2 C 49.1 128.9 49.0 128.2 48.9 127.2 C 48.9 126.2 49.4 124.7 49.2 123.9 C 49.0 123.1 49.2 122.6 49.2 121.4 C 49.2 120.3 46.8 120.3 46.8 121.4 C 46.8 122.5 46.8 123.4 46.9 124.5 C 46.9 125.6 46.9 126.9 46.9 128.1 C 46.9 129.1 46.6 130.7 46.8 132.0 C 47.0 133.2 47.0 135.5 47.0 136.5 C 47.1 137.6 47.0 139.9 47.2 140.8 C 47.4 141.9 47.2 143.7 47.1 144.3 C 46.9 144.9 47.2 145.3 47.4 146.6 C 47.5 147.3 47.6 148.5 47.9 149.6 C 47.9 149.6 47.9 149.6 47.9 149.6 Z M 48.0 149.9 C 48.3 151.1 49.9 153.5 50.2 154.0 C 50.5 154.5 51.7 156.3 52.4 157.0 C 53.1 157.7 53.5 157.8 54.8 158.7 C 56.5 159.9 57.7 160.7 57.8 160.7 C 58.0 160.9 59.0 161.6 60.1 161.9 C 61.6 162.2 62.0 162.4 62.6 162.5 C 63.8 162.4 63.9 162.6 64.9 162.7 C 65.8 162.7 66.4 162.9 67.2 162.8 C 68.2 162.7 68.8 163.0 69.8 163.0 C 71.2 163.0 71.1 160.6 69.8 160.6 C 68.9 160.5 68.2 160.8 67.5 160.7 C 66.7 160.7 66.1 160.6 65.4 160.5 C 64.7 160.3 63.4 160.3 62.5 160.0 C 61.5 159.8 60.0 159.3 58.7 158.7 C 57.4 158.2 56.2 158.3 54.4 156.1 C 53.8 155.4 52.5 154.0 52.1 153.4 C 51.4 152.4 50.5 150.0 50.3 149.1 C 50.0 148.1 47.6 148.7 48.0 149.9 C 48.0 149.9 48.0 149.9 48.0 149.9 Z M 76.1 163.8 C 76.1 163.8 76.1 163.6 76.1 162.3 C 76.1 160.9 76.1 159.9 76.1 159.9 C 76.1 159.9 76.1 160.6 76.1 160.6 C 76.0 160.6 76.0 163.1 76.1 163.1 C 76.1 163.1 76.1 163.8 76.1 163.8 C 76.1 163.8 76.1 163.8 76.1 163.8 Z M 76.0 159.9 C 76.0 159.9 76.0 160.5 76.0 161.8 C 76.0 163.2 76.0 163.8 76.0 163.8 C 76.0 163.8 76.0 163.1 76.1 163.1 C 76.1 163.1 76.1 160.6 76.1 160.6 C 76.0 160.6 76.0 159.9 76.0 159.9 C 76.0 159.9 76.0 159.9 76.0 159.9 Z M 76.0 159.9 " fill="#FF7777"></path></g></g><g><clipPath id="clip-66"><path d="M 48.0 87.6 L 162.0 87.6 L 162.0 161.8 L 48.0 161.8 Z M 48.0 87.6 "></path></clipPath><g clip-path="url(#clip-66)"><text xml:space="preserve" font-family="AmericanTypewriter" font-size="20.0" fill="#000000" transform="matrix(1.00, 0.00, -0.00, -1.00, 88.0, 118.0)">V</text><text xml:space="preserve" font-family="AmericanTypewriter" font-size="20.0" fill="#000000" transform="matrix(1.00, 0.00, -0.00, -1.00, 102.6, 118.0)">M</text></g></g><g><clipPath id="clip-67"><path d="M 49.0 68.6 L 180.7 68.6 L 180.7 160.5 L 49.0 160.5 Z M 49.0 68.6 "></path></clipPath><g clip-path="url(#clip-67)"><image xlink:href="../../956FEF66-F126-4898-9939-EAE9E9BE3BA5/assets/6BE460064B40692868CC0984B1AA00D9.png" width="130.00" height="90.00" transform="matrix(1.00, 0.00, -0.00, -1.00, 50.0, 159.5)" opacity="0.50"></image><path d="M 85.9 151.7 L 143.8 151.7 C 151.9 151.7 156.0 151.7 160.3 150.3 C 165.0 148.6 168.8 144.8 170.5 140.1 C 171.9 135.7 171.9 131.7 171.9 123.5 L 171.9 105.4 C 171.9 97.4 171.9 93.3 170.5 89.0 C 168.8 84.2 165.0 80.5 160.3 78.8 C 156.0 77.4 151.9 77.4 143.7 77.4 L 85.9 77.4 C 77.9 77.4 73.8 77.4 69.4 78.8 C 64.7 80.5 61.0 84.2 59.2 89.0 C 57.9 93.3 57.9 97.4 57.9 105.6 L 57.9 123.6 C 57.9 131.7 57.9 135.7 59.2 140.1 C 61.0 144.8 64.7 148.6 69.4 150.3 C 73.8 151.7 77.9 151.7 86.0 151.7 Z M 85.9 151.7 " fill="#DDF3D0"></path><path d="M 86.5 149.7 C 85.6 149.7 84.4 149.9 84.3 151.2 C 84.1 152.6 85.1 153.6 86.5 153.6 C 87.8 153.6 87.4 152.9 90.6 152.9 C 91.8 152.9 91.9 150.4 90.7 150.4 C 87.8 150.4 88.2 149.7 86.5 149.7 C 86.5 149.7 86.5 149.7 86.5 149.7 Z M 84.8 153.6 C 85.3 153.6 85.7 153.6 86.0 153.5 L 86.0 149.8 C 85.0 150.0 84.5 150.6 84.5 151.6 C 84.4 152.7 85.0 153.3 86.0 153.5 L 86.0 149.8 C 85.7 149.7 85.3 149.7 84.9 149.7 C 82.8 149.7 82.8 150.4 80.1 150.4 C 78.6 150.3 78.8 152.8 80.0 152.8 C 82.9 152.9 82.6 153.6 84.8 153.6 C 84.8 153.6 84.8 153.6 84.8 153.6 Z M 90.8 150.4 C 89.6 150.4 89.6 152.9 90.9 152.9 C 92.4 152.9 95.5 152.4 96.4 152.5 C 97.2 152.5 99.5 153.0 100.2 153.0 C 100.9 153.0 104.4 152.3 105.9 152.5 C 107.4 152.7 107.9 152.6 108.9 152.6 C 109.9 152.6 111.6 152.4 112.5 152.4 C 113.5 152.3 114.4 153.0 115.7 152.8 C 117.0 152.6 117.7 152.9 118.6 152.9 C 120.0 152.9 119.9 150.4 118.6 150.4 C 117.3 150.4 116.4 150.3 115.3 150.3 C 114.3 150.4 113.3 150.6 112.3 150.4 C 111.3 150.1 109.3 150.4 108.0 150.5 C 106.8 150.7 105.4 150.6 104.4 150.5 C 102.5 150.3 97.8 150.8 97.1 150.6 C 96.4 150.4 94.3 150.6 93.5 150.6 C 92.7 150.6 92.3 150.4 90.8 150.4 C 90.8 150.4 90.8 150.4 90.8 150.4 Z M 147.4 152.9 C 149.0 152.9 149.2 150.4 147.3 150.4 C 145.4 150.4 142.1 150.7 141.3 150.6 C 140.5 150.5 137.0 150.4 136.3 150.4 C 135.6 150.4 133.0 150.8 131.5 150.6 C 130.0 150.4 128.5 150.8 127.5 150.6 C 126.2 150.5 125.5 150.6 124.5 150.7 C 123.6 150.7 122.1 150.3 121.2 150.5 C 120.4 150.7 119.9 150.4 118.8 150.4 C 117.6 150.4 117.6 152.9 118.7 152.9 C 119.8 152.9 120.7 152.8 121.8 152.8 C 122.9 152.7 124.2 152.7 125.4 152.7 C 126.5 152.7 128.1 153.0 129.3 152.8 C 130.6 152.7 132.4 152.6 133.1 152.6 C 134.0 152.5 135.9 152.6 136.7 152.5 C 137.8 152.3 139.6 152.6 140.3 152.8 C 141.0 153.0 141.4 152.7 142.9 152.7 C 143.8 152.8 145.7 152.9 147.4 152.9 C 147.4 152.9 147.4 152.9 147.4 152.9 Z M 147.9 152.9 C 149.7 152.9 152.2 152.4 152.8 152.4 C 153.4 152.4 155.2 152.4 156.0 152.3 C 156.8 152.1 157.1 151.9 158.4 151.6 C 160.0 151.1 161.2 150.9 161.3 150.9 C 161.7 150.8 162.7 150.7 163.9 149.9 C 165.5 148.8 166.0 148.6 166.6 147.9 C 167.5 146.7 167.8 146.8 168.4 145.9 C 169.1 145.0 169.6 144.5 169.9 143.7 C 170.3 142.8 170.9 142.3 171.3 141.5 C 171.8 140.2 169.4 139.5 169.0 140.5 C 168.7 141.2 168.6 141.9 168.3 142.5 C 167.9 143.2 167.5 143.7 166.9 144.2 C 166.4 144.7 165.5 145.9 164.5 146.6 C 163.5 147.3 161.8 148.3 160.5 148.8 C 159.2 149.4 158.9 150.1 156.4 150.1 C 155.6 150.1 154.0 150.4 153.2 150.5 C 151.9 150.5 149.1 150.4 147.7 150.4 C 146.0 150.4 146.0 152.9 147.9 152.9 C 147.9 152.9 147.9 152.9 147.9 152.9 Z M 173.1 113.3 C 173.1 112.0 170.6 111.8 170.6 113.3 C 170.6 114.8 170.9 117.6 170.8 118.4 C 170.8 119.3 170.6 122.7 170.6 123.4 C 170.6 124.1 171.0 127.9 170.7 129.5 C 170.5 131.2 170.9 132.6 170.7 133.5 C 170.5 134.6 170.5 135.2 170.5 136.0 C 170.4 136.7 169.7 137.8 169.7 138.4 C 169.8 139.1 169.5 139.3 169.1 140.3 C 168.7 141.3 170.9 142.4 171.3 141.3 C 171.8 140.2 171.9 139.4 172.1 138.5 C 172.2 137.6 172.4 136.5 172.5 135.5 C 172.6 134.6 173.0 133.1 172.9 131.9 C 172.8 130.6 172.8 128.6 172.8 127.7 C 172.8 126.6 172.8 123.8 172.7 123.0 C 172.5 121.9 172.8 120.1 173.0 119.4 C 173.2 118.8 172.9 118.3 173.0 116.8 C 173.0 116.0 173.1 114.6 173.1 113.3 C 173.1 113.3 173.1 113.3 173.1 113.3 Z M 173.1 112.9 C 173.1 111.4 172.8 108.9 172.8 108.3 C 172.8 107.7 173.0 105.9 172.9 104.5 C 172.8 103.2 172.7 102.7 172.6 100.8 C 172.5 98.5 172.7 97.2 172.7 97.1 C 172.8 96.8 173.0 95.9 172.8 94.6 C 172.6 93.0 172.7 92.6 172.5 91.9 C 172.0 90.8 172.2 90.7 171.9 89.8 C 171.7 89.0 171.6 88.3 171.1 87.5 C 170.5 86.7 170.5 85.9 170.0 85.2 C 169.3 84.0 167.3 85.5 167.9 86.5 C 168.3 87.1 168.8 87.5 169.1 88.2 C 169.5 88.9 169.6 89.5 169.7 90.1 C 169.7 90.7 170.2 91.9 170.3 92.9 C 170.4 94.0 170.4 95.8 170.5 97.2 C 170.6 98.7 171.2 99.4 170.9 103.5 C 170.7 104.8 170.8 107.0 170.8 107.8 C 170.8 109.2 170.7 111.9 170.7 113.0 C 170.7 114.4 173.1 114.4 173.1 112.9 C 173.1 112.9 173.1 112.9 173.1 112.9 Z M 144.0 76.2 C 143.1 76.2 142.9 76.8 142.9 77.4 C 142.9 78.0 142.9 78.6 144.0 78.6 C 146.2 78.6 149.6 78.4 150.4 78.5 C 151.3 78.6 154.5 78.9 155.1 79.0 C 155.7 79.0 157.8 79.0 158.8 79.5 C 159.9 80.0 161.3 80.1 162.1 80.7 C 163.1 81.4 163.7 81.6 164.4 82.1 C 165.2 82.7 165.8 84.0 166.5 84.4 C 167.1 84.9 167.2 85.4 167.8 86.3 C 168.4 87.2 170.5 86.0 169.9 85.0 C 169.3 84.0 168.6 83.3 167.8 82.5 C 167.0 81.7 165.9 80.8 164.9 80.0 C 164.0 79.4 162.6 78.3 161.3 77.9 C 160.0 77.6 158.6 77.3 158.1 77.2 C 157.3 77.1 155.7 76.8 154.9 76.9 C 154.0 76.9 152.2 76.6 151.6 76.4 C 150.9 76.1 150.4 76.4 148.7 76.3 C 147.7 76.3 145.9 76.2 144.0 76.2 C 144.0 76.2 144.0 76.2 144.0 76.2 Z M 143.8 78.6 C 145.5 78.6 145.0 76.2 143.6 76.2 C 142.1 76.2 139.0 76.6 138.2 76.6 C 137.3 76.5 135.0 76.1 134.3 76.1 C 133.6 76.1 130.1 76.8 128.6 76.6 C 127.1 76.4 126.7 76.5 125.6 76.5 C 124.6 76.5 123.0 76.6 122.0 76.7 C 121.0 76.7 120.1 76.1 118.8 76.3 C 117.5 76.4 116.8 76.2 116.0 76.2 C 114.5 76.2 114.6 78.6 115.9 78.6 C 117.2 78.6 118.1 78.8 119.2 78.7 C 120.3 78.7 121.2 78.4 122.2 78.7 C 123.3 78.9 125.3 78.7 126.5 78.5 C 127.7 78.4 129.1 78.4 130.1 78.5 C 132.1 78.7 136.8 78.3 137.4 78.5 C 138.1 78.7 140.2 78.5 141.0 78.5 C 141.8 78.5 141.5 78.6 143.8 78.6 C 143.8 78.6 143.8 78.6 143.8 78.6 Z M 115.6 76.2 C 114.1 76.2 111.7 76.5 111.1 76.5 C 110.5 76.5 108.5 76.3 107.5 76.4 C 106.6 76.4 106.3 76.6 104.7 76.7 C 102.7 76.7 101.4 76.5 101.3 76.5 C 101.0 76.4 100.0 76.1 98.7 76.2 C 96.9 76.3 96.4 76.1 95.6 76.2 C 94.2 76.5 94.1 76.2 93.0 76.3 C 92.0 76.3 91.3 76.2 90.5 76.3 C 89.6 76.5 88.9 76.2 88.1 76.2 C 86.7 76.2 86.9 78.6 88.1 78.6 C 88.9 78.6 89.5 78.4 90.3 78.4 C 91.1 78.4 91.8 78.4 92.6 78.5 C 93.4 78.6 95.0 78.5 96.3 78.5 C 97.6 78.6 99.8 78.7 101.3 78.7 C 102.8 78.6 103.7 78.0 106.8 78.4 C 107.7 78.6 109.7 78.4 110.5 78.4 C 111.9 78.4 114.6 78.6 115.8 78.6 C 117.1 78.6 117.1 76.2 115.6 76.2 C 115.6 76.2 115.6 76.2 115.6 76.2 Z M 61.1 83.2 C 60.3 84.3 62.1 85.9 63.0 84.8 C 63.9 83.7 65.8 81.8 66.4 81.5 C 67.1 81.1 70.0 79.9 70.6 79.8 C 71.1 79.6 73.0 78.8 74.2 78.9 C 75.5 78.9 76.7 78.4 77.8 78.5 C 79.0 78.6 79.8 78.4 80.9 78.4 C 82.0 78.3 84.0 78.8 85.1 78.6 C 86.3 78.4 86.7 78.6 87.8 78.6 C 89.0 78.6 89.0 76.2 87.9 76.2 C 86.8 76.2 85.8 76.2 84.3 76.3 C 82.8 76.3 81.2 76.4 79.9 76.4 C 78.7 76.4 77.1 76.2 75.9 76.4 C 74.7 76.7 73.2 76.9 72.6 77.1 C 71.9 77.2 70.3 77.5 69.6 77.9 C 68.8 78.3 66.9 78.9 66.1 79.1 C 65.4 79.3 65.1 79.7 63.9 80.7 C 63.2 81.2 62.0 82.2 61.1 83.2 C 61.1 83.2 61.1 83.2 61.1 83.2 Z M 60.9 83.6 C 59.9 84.8 59.0 87.3 58.7 87.9 C 58.5 88.4 57.8 90.1 57.7 90.9 C 57.6 91.7 57.7 91.9 57.5 93.3 C 57.4 95.0 57.1 96.3 57.1 96.3 C 57.0 96.6 56.7 97.5 56.7 99.0 C 56.8 101.0 56.5 101.7 56.6 102.7 C 56.9 104.5 56.7 105.0 56.7 106.0 C 56.8 107.1 56.7 107.8 56.8 108.6 C 56.9 109.5 56.6 110.2 56.6 111.0 C 56.6 112.3 59.1 112.2 59.1 111.0 C 59.1 110.2 58.8 109.5 58.8 108.7 C 58.8 107.9 58.9 107.2 59.0 106.4 C 59.1 105.6 58.9 103.4 59.0 101.8 C 59.1 100.2 59.2 97.9 59.3 96.5 C 59.3 95.1 58.7 94.1 59.6 91.9 C 59.8 91.2 60.0 89.8 60.3 89.1 C 60.8 87.9 62.2 85.8 62.9 85.0 C 63.7 84.0 61.9 82.3 60.9 83.6 C 60.9 83.6 60.9 83.6 60.9 83.6 Z M 57.8 139.4 C 58.1 140.4 60.4 139.9 60.1 138.8 C 59.8 137.6 59.2 135.5 59.2 134.8 C 59.2 134.1 59.2 130.8 59.2 130.1 C 59.1 129.3 58.8 126.3 59.0 124.1 C 59.2 122.0 58.8 121.0 58.9 120.0 C 59.0 118.7 58.9 118.0 58.8 117.0 C 58.8 116.1 59.3 114.5 59.1 113.7 C 58.9 112.9 59.1 112.4 59.1 111.3 C 59.1 110.1 56.7 110.1 56.7 111.2 C 56.7 112.3 56.7 113.2 56.7 114.3 C 56.8 115.4 56.8 116.7 56.8 117.9 C 56.8 119.0 56.5 120.6 56.7 121.8 C 56.8 123.0 56.9 125.3 56.9 126.3 C 57.0 127.5 56.9 129.7 57.1 130.6 C 57.3 131.7 57.1 133.5 57.0 134.1 C 56.8 134.8 57.1 135.2 57.3 136.4 C 57.4 137.2 57.5 138.3 57.8 139.4 C 57.8 139.4 57.8 139.4 57.8 139.4 Z M 57.9 139.7 C 58.2 140.9 59.8 143.3 60.1 143.8 C 60.4 144.4 61.6 146.2 62.3 146.8 C 63.0 147.5 63.4 147.6 64.7 148.6 C 66.4 149.7 67.6 150.5 67.7 150.6 C 67.9 150.8 68.9 151.4 70.0 151.7 C 71.5 152.0 71.9 152.3 72.5 152.3 C 73.7 152.2 73.8 152.5 74.8 152.5 C 75.7 152.6 76.3 152.7 77.1 152.6 C 78.0 152.5 78.7 152.8 79.7 152.8 C 81.1 152.9 81.0 150.4 79.7 150.4 C 78.8 150.4 78.1 150.6 77.4 150.6 C 76.6 150.5 76.0 150.4 75.3 150.3 C 74.6 150.1 73.3 150.1 72.3 149.9 C 71.4 149.6 69.9 149.1 68.6 148.6 C 67.3 148.0 66.1 148.1 64.3 145.9 C 63.7 145.2 62.4 143.9 62.0 143.3 C 61.3 142.2 60.4 139.8 60.2 138.9 C 59.9 137.9 57.5 138.5 57.9 139.7 C 57.9 139.7 57.9 139.7 57.9 139.7 Z M 86.0 153.6 C 86.0 153.6 86.0 153.4 86.0 152.1 C 86.0 150.8 86.0 149.7 86.0 149.7 C 86.0 149.7 86.0 150.4 86.0 150.4 C 85.9 150.4 85.9 152.9 86.0 152.9 C 86.0 152.9 86.0 153.6 86.0 153.6 C 86.0 153.6 86.0 153.6 86.0 153.6 Z M 85.9 149.7 C 85.9 149.7 85.9 150.3 85.9 151.6 C 85.9 153.0 85.9 153.6 85.9 153.6 C 85.9 153.6 85.9 152.9 86.0 152.9 C 86.0 152.9 86.0 150.4 86.0 150.4 C 85.9 150.4 85.9 149.7 85.9 149.7 C 85.9 149.7 85.9 149.7 85.9 149.7 Z M 85.9 149.7 " fill="#FF7777"></path></g></g><g><clipPath id="clip-68"><path d="M 57.9 77.4 L 171.9 77.4 L 171.9 151.7 L 57.9 151.7 Z M 57.9 77.4 "></path></clipPath><g clip-path="url(#clip-68)"><text xml:space="preserve" font-family="AmericanTypewriter" font-size="20.0" fill="#000000" transform="matrix(1.00, 0.00, -0.00, -1.00, 98.0, 108.0)">V</text><text xml:space="preserve" font-family="AmericanTypewriter" font-size="20.0" fill="#000000" transform="matrix(1.00, 0.00, -0.00, -1.00, 112.6, 108.0)">M</text></g></g><g><clipPath id="clip-69"><path d="M 59.0 58.6 L 190.7 58.6 L 190.7 150.5 L 59.0 150.5 Z M 59.0 58.6 "></path></clipPath><g clip-path="url(#clip-69)"><image xlink:href="../../956FEF66-F126-4898-9939-EAE9E9BE3BA5/assets/6BE460064B40692868CC0984B1AA00D9.png" width="130.00" height="90.00" transform="matrix(1.00, 0.00, -0.00, -1.00, 60.0, 149.5)" opacity="0.50"></image><path d="M 95.9 141.7 L 153.8 141.7 C 161.9 141.7 166.0 141.7 170.3 140.3 C 175.0 138.6 178.8 134.8 180.5 130.1 C 181.9 125.7 181.9 121.7 181.9 113.5 L 181.9 95.4 C 181.9 87.4 181.9 83.3 180.5 79.0 C 178.8 74.2 175.0 70.5 170.3 68.8 C 166.0 67.4 161.9 67.4 153.7 67.4 L 95.9 67.4 C 87.9 67.4 83.8 67.4 79.4 68.8 C 74.7 70.5 71.0 74.2 69.2 79.0 C 67.9 83.3 67.9 87.4 67.9 95.6 L 67.9 113.6 C 67.9 121.7 67.9 125.7 69.2 130.1 C 71.0 134.8 74.7 138.6 79.4 140.3 C 83.8 141.7 87.9 141.7 96.0 141.7 Z M 95.9 141.7 " fill="#DDF3D0"></path><path d="M 96.5 139.7 C 95.6 139.7 94.4 139.9 94.3 141.2 C 94.1 142.6 95.1 143.6 96.5 143.6 C 97.8 143.6 97.4 142.9 100.6 142.9 C 101.8 142.9 101.9 140.4 100.7 140.4 C 97.8 140.4 98.2 139.7 96.5 139.7 C 96.5 139.7 96.5 139.7 96.5 139.7 Z M 94.8 143.6 C 95.3 143.6 95.7 143.6 96.0 143.5 L 96.0 139.8 C 95.0 140.0 94.5 140.6 94.5 141.6 C 94.4 142.7 95.0 143.3 96.0 143.5 L 96.0 139.8 C 95.7 139.7 95.3 139.7 94.9 139.7 C 92.8 139.7 92.8 140.4 90.1 140.4 C 88.6 140.3 88.8 142.8 90.0 142.8 C 92.9 142.9 92.6 143.6 94.8 143.6 C 94.8 143.6 94.8 143.6 94.8 143.6 Z M 100.8 140.4 C 99.6 140.4 99.6 142.9 100.9 142.9 C 102.4 142.9 105.5 142.4 106.4 142.5 C 107.2 142.5 109.5 143.0 110.2 143.0 C 110.9 143.0 114.4 142.3 115.9 142.5 C 117.4 142.7 117.9 142.6 118.9 142.6 C 119.9 142.6 121.6 142.4 122.5 142.4 C 123.5 142.3 124.4 143.0 125.7 142.8 C 127.0 142.6 127.7 142.9 128.6 142.9 C 130.0 142.9 129.9 140.4 128.6 140.4 C 127.3 140.4 126.4 140.3 125.3 140.3 C 124.3 140.4 123.3 140.6 122.3 140.4 C 121.3 140.1 119.3 140.4 118.0 140.5 C 116.8 140.7 115.4 140.6 114.4 140.5 C 112.5 140.3 107.8 140.8 107.1 140.6 C 106.4 140.4 104.3 140.6 103.5 140.6 C 102.7 140.6 102.3 140.4 100.8 140.4 C 100.8 140.4 100.8 140.4 100.8 140.4 Z M 157.4 142.9 C 159.0 142.9 159.2 140.4 157.3 140.4 C 155.4 140.4 152.1 140.7 151.3 140.6 C 150.5 140.5 147.0 140.4 146.3 140.4 C 145.6 140.4 143.0 140.8 141.5 140.6 C 140.0 140.4 138.5 140.8 137.5 140.6 C 136.2 140.5 135.5 140.6 134.5 140.7 C 133.6 140.7 132.1 140.3 131.2 140.5 C 130.4 140.7 129.9 140.4 128.8 140.4 C 127.6 140.4 127.6 142.9 128.7 142.9 C 129.8 142.9 130.7 142.8 131.8 142.8 C 132.9 142.7 134.2 142.7 135.4 142.7 C 136.5 142.7 138.1 143.0 139.3 142.8 C 140.6 142.7 142.4 142.6 143.1 142.6 C 144.0 142.5 145.9 142.6 146.7 142.5 C 147.8 142.3 149.6 142.6 150.3 142.8 C 151.0 143.0 151.4 142.7 152.9 142.7 C 153.8 142.8 155.7 142.9 157.4 142.9 C 157.4 142.9 157.4 142.9 157.4 142.9 Z M 157.9 142.9 C 159.7 142.9 162.2 142.4 162.8 142.4 C 163.4 142.4 165.2 142.4 166.0 142.3 C 166.8 142.1 167.1 141.9 168.4 141.6 C 170.0 141.1 171.2 140.9 171.3 140.9 C 171.7 140.8 172.7 140.7 173.9 139.9 C 175.5 138.8 176.0 138.6 176.6 137.9 C 177.5 136.7 177.8 136.8 178.4 135.9 C 179.1 135.0 179.6 134.5 179.9 133.7 C 180.3 132.8 180.9 132.3 181.3 131.5 C 181.8 130.2 179.4 129.5 179.0 130.5 C 178.7 131.2 178.6 131.9 178.3 132.5 C 177.9 133.2 177.5 133.7 176.9 134.2 C 176.4 134.7 175.5 135.9 174.5 136.6 C 173.5 137.3 171.8 138.3 170.5 138.8 C 169.2 139.4 168.9 140.1 166.4 140.1 C 165.6 140.1 164.0 140.4 163.2 140.5 C 161.9 140.5 159.1 140.4 157.7 140.4 C 156.0 140.4 156.0 142.9 157.9 142.9 C 157.9 142.9 157.9 142.9 157.9 142.9 Z M 183.1 103.3 C 183.1 102.0 180.6 101.8 180.6 103.3 C 180.6 104.8 180.9 107.6 180.8 108.4 C 180.8 109.3 180.6 112.7 180.6 113.4 C 180.6 114.1 181.0 117.9 180.7 119.5 C 180.5 121.2 180.9 122.6 180.7 123.5 C 180.5 124.6 180.5 125.2 180.5 126.0 C 180.4 126.7 179.7 127.8 179.7 128.4 C 179.8 129.1 179.5 129.3 179.1 130.3 C 178.7 131.3 180.9 132.4 181.3 131.3 C 181.8 130.2 181.9 129.4 182.1 128.5 C 182.2 127.6 182.4 126.5 182.5 125.5 C 182.6 124.6 183.0 123.1 182.9 121.9 C 182.8 120.6 182.8 118.6 182.8 117.7 C 182.8 116.6 182.8 113.8 182.7 113.0 C 182.5 111.9 182.8 110.1 183.0 109.4 C 183.2 108.8 182.9 108.3 183.0 106.8 C 183.0 106.0 183.1 104.6 183.1 103.3 C 183.1 103.3 183.1 103.3 183.1 103.3 Z M 183.1 102.9 C 183.1 101.4 182.8 98.9 182.8 98.3 C 182.8 97.7 183.0 95.9 182.9 94.5 C 182.8 93.2 182.7 92.7 182.6 90.8 C 182.5 88.5 182.7 87.2 182.7 87.1 C 182.8 86.8 183.0 85.9 182.8 84.6 C 182.6 83.0 182.7 82.6 182.5 81.9 C 182.0 80.8 182.2 80.7 181.9 79.8 C 181.7 79.0 181.6 78.3 181.1 77.5 C 180.5 76.7 180.5 75.9 180.0 75.2 C 179.3 74.0 177.3 75.5 177.9 76.5 C 178.3 77.1 178.8 77.5 179.1 78.2 C 179.5 78.9 179.6 79.5 179.7 80.1 C 179.7 80.7 180.2 81.9 180.3 82.9 C 180.4 84.0 180.4 85.8 180.5 87.2 C 180.6 88.7 181.2 89.4 180.9 93.5 C 180.7 94.8 180.8 97.0 180.8 97.8 C 180.8 99.2 180.7 101.9 180.7 103.0 C 180.7 104.4 183.1 104.4 183.1 102.9 C 183.1 102.9 183.1 102.9 183.1 102.9 Z M 154.0 66.2 C 153.1 66.2 152.9 66.8 152.9 67.4 C 152.9 68.0 152.9 68.6 154.0 68.6 C 156.2 68.6 159.6 68.4 160.4 68.5 C 161.3 68.6 164.5 68.9 165.1 69.0 C 165.7 69.0 167.8 69.0 168.8 69.5 C 169.9 70.0 171.3 70.1 172.1 70.7 C 173.1 71.4 173.7 71.6 174.4 72.1 C 175.2 72.7 175.8 74.0 176.5 74.4 C 177.1 74.9 177.2 75.4 177.8 76.3 C 178.4 77.2 180.5 76.0 179.9 75.0 C 179.3 74.0 178.6 73.3 177.8 72.5 C 177.0 71.7 175.9 70.8 174.9 70.0 C 174.0 69.4 172.6 68.3 171.3 67.9 C 170.0 67.6 168.6 67.3 168.1 67.2 C 167.3 67.1 165.7 66.8 164.9 66.9 C 164.0 66.9 162.2 66.6 161.6 66.4 C 160.9 66.1 160.4 66.4 158.7 66.3 C 157.7 66.3 155.9 66.2 154.0 66.2 C 154.0 66.2 154.0 66.2 154.0 66.2 Z M 153.8 68.6 C 155.5 68.6 155.0 66.2 153.6 66.2 C 152.1 66.2 149.0 66.6 148.2 66.6 C 147.3 66.5 145.0 66.1 144.3 66.1 C 143.6 66.1 140.1 66.8 138.6 66.6 C 137.1 66.4 136.7 66.5 135.6 66.5 C 134.6 66.5 133.0 66.6 132.0 66.7 C 131.0 66.7 130.1 66.1 128.8 66.3 C 127.5 66.4 126.8 66.2 126.0 66.2 C 124.5 66.2 124.6 68.6 125.9 68.6 C 127.2 68.6 128.1 68.8 129.2 68.7 C 130.3 68.7 131.2 68.4 132.2 68.7 C 133.3 68.9 135.3 68.7 136.5 68.5 C 137.7 68.4 139.1 68.4 140.1 68.5 C 142.1 68.7 146.8 68.3 147.4 68.5 C 148.1 68.7 150.2 68.5 151.0 68.5 C 151.8 68.5 151.5 68.6 153.8 68.6 C 153.8 68.6 153.8 68.6 153.8 68.6 Z M 125.6 66.2 C 124.1 66.2 121.7 66.5 121.1 66.5 C 120.5 66.5 118.5 66.3 117.5 66.4 C 116.6 66.4 116.3 66.6 114.7 66.7 C 112.7 66.7 111.4 66.5 111.3 66.5 C 111.0 66.4 110.0 66.1 108.7 66.2 C 106.9 66.3 106.4 66.1 105.6 66.2 C 104.2 66.5 104.1 66.2 103.0 66.3 C 102.0 66.3 101.3 66.2 100.5 66.3 C 99.6 66.5 98.9 66.2 98.1 66.2 C 96.7 66.2 96.9 68.6 98.1 68.6 C 98.9 68.6 99.5 68.4 100.3 68.4 C 101.1 68.4 101.8 68.4 102.6 68.5 C 103.4 68.6 105.0 68.5 106.3 68.5 C 107.6 68.6 109.8 68.7 111.3 68.7 C 112.8 68.6 113.7 68.0 116.8 68.4 C 117.7 68.6 119.7 68.4 120.5 68.4 C 121.9 68.4 124.6 68.6 125.8 68.6 C 127.1 68.6 127.1 66.2 125.6 66.2 C 125.6 66.2 125.6 66.2 125.6 66.2 Z M 71.1 73.2 C 70.3 74.3 72.1 75.9 73.0 74.8 C 73.9 73.7 75.8 71.8 76.4 71.5 C 77.1 71.1 80.0 69.9 80.6 69.8 C 81.1 69.6 83.0 68.8 84.2 68.9 C 85.5 68.9 86.7 68.4 87.8 68.5 C 89.0 68.6 89.8 68.4 90.9 68.4 C 92.0 68.3 94.0 68.8 95.1 68.6 C 96.3 68.4 96.7 68.6 97.8 68.6 C 99.0 68.6 99.0 66.2 97.9 66.2 C 96.8 66.2 95.8 66.2 94.3 66.3 C 92.8 66.3 91.2 66.4 89.9 66.4 C 88.7 66.4 87.1 66.2 85.9 66.4 C 84.7 66.7 83.2 66.9 82.6 67.1 C 81.9 67.2 80.3 67.5 79.6 67.9 C 78.8 68.3 76.9 68.9 76.1 69.1 C 75.4 69.3 75.1 69.7 73.9 70.7 C 73.2 71.2 72.0 72.2 71.1 73.2 C 71.1 73.2 71.1 73.2 71.1 73.2 Z M 70.9 73.6 C 69.9 74.8 69.0 77.3 68.7 77.9 C 68.5 78.4 67.8 80.1 67.7 80.9 C 67.6 81.7 67.7 81.9 67.5 83.3 C 67.4 85.0 67.1 86.3 67.1 86.3 C 67.0 86.6 66.7 87.5 66.7 89.0 C 66.8 91.0 66.5 91.7 66.6 92.7 C 66.9 94.5 66.7 95.0 66.7 96.0 C 66.8 97.1 66.7 97.8 66.8 98.6 C 66.9 99.5 66.6 100.2 66.6 101.0 C 66.6 102.3 69.1 102.2 69.1 101.0 C 69.1 100.2 68.8 99.5 68.8 98.7 C 68.8 97.9 68.9 97.2 69.0 96.4 C 69.1 95.6 68.9 93.4 69.0 91.8 C 69.1 90.2 69.2 87.9 69.3 86.5 C 69.3 85.1 68.7 84.1 69.5 81.9 C 69.8 81.2 70.0 79.8 70.3 79.1 C 70.8 77.9 72.2 75.8 72.9 75.0 C 73.7 74.0 71.9 72.3 70.9 73.6 C 70.9 73.6 70.9 73.6 70.9 73.6 Z M 67.8 129.4 C 68.1 130.4 70.4 129.9 70.1 128.8 C 69.8 127.6 69.2 125.5 69.2 124.8 C 69.2 124.1 69.2 120.8 69.2 120.1 C 69.1 119.3 68.8 116.3 69.0 114.1 C 69.2 112.0 68.8 111.0 68.9 110.0 C 69.0 108.7 68.9 108.0 68.8 107.0 C 68.8 106.1 69.3 104.5 69.1 103.7 C 68.9 102.9 69.1 102.4 69.1 101.3 C 69.1 100.1 66.7 100.1 66.7 101.2 C 66.7 102.3 66.7 103.2 66.7 104.3 C 66.8 105.4 66.8 106.7 66.8 107.9 C 66.8 109.0 66.5 110.6 66.7 111.8 C 66.8 113.0 66.9 115.3 66.9 116.3 C 67.0 117.5 66.9 119.7 67.1 120.6 C 67.3 121.7 67.1 123.5 67.0 124.1 C 66.8 124.8 67.1 125.2 67.3 126.4 C 67.4 127.2 67.5 128.3 67.8 129.4 C 67.8 129.4 67.8 129.4 67.8 129.4 Z M 67.9 129.7 C 68.2 130.9 69.8 133.3 70.1 133.8 C 70.4 134.4 71.6 136.2 72.3 136.8 C 73.0 137.5 73.4 137.6 74.7 138.6 C 76.4 139.7 77.6 140.5 77.7 140.6 C 77.9 140.8 78.9 141.4 80.0 141.7 C 81.5 142.0 81.9 142.3 82.5 142.3 C 83.7 142.2 83.8 142.5 84.8 142.5 C 85.7 142.6 86.3 142.7 87.1 142.6 C 88.0 142.5 88.7 142.8 89.7 142.8 C 91.1 142.9 91.0 140.4 89.7 140.4 C 88.8 140.4 88.1 140.6 87.4 140.6 C 86.6 140.5 86.0 140.4 85.3 140.3 C 84.6 140.1 83.3 140.1 82.3 139.9 C 81.4 139.6 79.9 139.1 78.6 138.6 C 77.3 138.0 76.1 138.1 74.3 135.9 C 73.7 135.2 72.4 133.9 72.0 133.3 C 71.3 132.2 70.4 129.8 70.2 128.9 C 69.9 127.9 67.5 128.5 67.9 129.7 C 67.9 129.7 67.9 129.7 67.9 129.7 Z M 96.0 143.6 C 96.0 143.6 96.0 143.4 96.0 142.1 C 96.0 140.8 96.0 139.7 96.0 139.7 C 96.0 139.7 96.0 140.4 96.0 140.4 C 95.9 140.4 95.9 142.9 96.0 142.9 C 96.0 142.9 96.0 143.6 96.0 143.6 C 96.0 143.6 96.0 143.6 96.0 143.6 Z M 95.9 139.7 C 95.9 139.7 95.9 140.3 95.9 141.6 C 95.9 143.0 95.9 143.6 95.9 143.6 C 95.9 143.6 95.9 142.9 96.0 142.9 C 96.0 142.9 96.0 140.4 96.0 140.4 C 95.9 140.4 95.9 139.7 95.9 139.7 C 95.9 139.7 95.9 139.7 95.9 139.7 Z M 95.9 139.7 " fill="#FF7777"></path></g></g><g><clipPath id="clip-70"><path d="M 67.9 67.4 L 181.9 67.4 L 181.9 141.7 L 67.9 141.7 Z M 67.9 67.4 "></path></clipPath><g clip-path="url(#clip-70)"><text xml:space="preserve" font-family="AmericanTypewriter" font-size="20.0" fill="#000000" transform="matrix(1.00, 0.00, -0.00, -1.00, 108.0, 98.0)">V</text><text xml:space="preserve" font-family="AmericanTypewriter" font-size="20.0" fill="#000000" transform="matrix(1.00, 0.00, -0.00, -1.00, 122.6, 98.0)">M</text></g></g></g></svg>