<?xml version="1.0" encoding="UTF-8" standalone="no"?><svg xmlns="http://www.w3.org/2000/svg" xmlns:xlink="http://www.w3.org/1999/xlink" clip-rule="evenodd" stroke-miterlimit="4.00" viewBox="0 0 237 175"><desc>SVG generated by Keynote</desc><defs></defs><g transform="matrix(1.00, 0.00, -0.00, -1.00, 0.0, 175.0)"><g><clipPath id="clip-79"><path d="M 0.2 36.0 L 236.8 36.0 L 236.8 174.2 L 0.2 174.2 Z M 0.2 36.0 "></path></clipPath><g clip-path="url(#clip-79)"><path d="M 0.0 0.0 C 5.4 42.4 5.8 85.3 1.1 127.8 C 0.9 129.7 0.7 131.6 0.5 133.6 C 2.7 133.4 4.9 133.2 7.2 133.0 C 82.3 127.0 158.0 127.5 233.0 134.5 " fill="none" stroke="#FEFFFE" stroke-width="3.00" transform="matrix(1.00, 0.00, 0.00, -1.00, 2.7, 173.0)"></path></g></g><g><clipPath id="clip-80"><path d="M 12.2 53.7 L 237.1 49.4 L 236.1 -2.9 L 11.2 1.4 Z M 12.2 53.7 "></path></clipPath><g clip-path="url(#clip-80)"><text xml:space="preserve" font-family="AmericanTypewriter" font-size="30.0" fill="#FEFFFF" transform="matrix(1.00, -0.02, -0.02, -1.00, 20.7, 17.4)">C</text><text xml:space="preserve" font-family="AmericanTypewriter" font-size="30.0" fill="#FEFFFF" transform="matrix(1.00, -0.02, -0.02, -1.00, 39.8, 17.0)">o</text><text xml:space="preserve" font-family="AmericanTypewriter" font-size="30.0" fill="#FEFFFF" transform="matrix(1.00, -0.02, -0.02, -1.00, 56.2, 16.7)">m</text><text xml:space="preserve" font-family="AmericanTypewriter" font-size="30.0" fill="#FEFFFF" transform="matrix(1.00, -0.02, -0.02, -1.00, 83.2, 16.2)">p</text><text xml:space="preserve" font-family="AmericanTypewriter" font-size="30.0" fill="#FEFFFF" transform="matrix(1.00, -0.02, -0.02, -1.00, 101.2, 15.8)">u</text><text xml:space="preserve" font-family="AmericanTypewriter" font-size="30.0" fill="#FEFFFF" transform="matrix(1.00, -0.02, -0.02, -1.00, 119.8, 15.5)">t</text><text xml:space="preserve" font-family="AmericanTypewriter" font-size="30.0" fill="#FEFFFF" transform="matrix(1.00, -0.02, -0.02, -1.00, 131.8, 15.3)">e</text><text xml:space="preserve" font-family="AmericanTypewriter" font-size="30.0" fill="#FEFFFF" transform="matrix(1.00, -0.02, -0.02, -1.00, 147.6, 14.9)"> </text><text xml:space="preserve" font-family="AmericanTypewriter" font-size="30.0" fill="#FEFFFF" transform="matrix(1.00, -0.02, -0.02, -1.00, 155.1, 14.8)">N</text><text xml:space="preserve" font-family="AmericanTypewriter" font-size="30.0" fill="#FEFFFF" transform="matrix(1.00, -0.02, -0.02, -1.00, 177.1, 14.4)">o</text><text xml:space="preserve" font-family="AmericanTypewriter" font-size="30.0" fill="#FEFFFF" transform="matrix(1.00, -0.02, -0.02, -1.00, 193.4, 14.1)">d</text><text xml:space="preserve" font-family="AmericanTypewriter" font-size="30.0" fill="#FEFFFF" transform="matrix(1.00, -0.02, -0.02, -1.00, 211.4, 13.7)">e</text></g></g><g><clipPath id="clip-81"><path d="M 38.4 79.2 L 170.1 79.2 L 170.1 171.1 L 38.4 171.1 Z M 38.4 79.2 "></path></clipPath><g clip-path="url(#clip-81)"><image xlink:href="../../956FEF66-F126-4898-9939-EAE9E9BE3BA5/assets/6BE460064B40692868CC0984B1AA00D9.png" width="130.00" height="90.00" transform="matrix(1.00, 0.00, -0.00, -1.00, 39.4, 170.1)" opacity="0.50"></image><path d="M 75.3 162.3 L 133.3 162.3 C 141.3 162.3 145.4 162.3 149.7 160.9 C 154.4 159.2 158.2 155.5 159.9 150.7 C 161.3 146.4 161.3 142.3 161.3 134.1 L 161.3 116.1 C 161.3 108.0 161.3 104.0 159.9 99.6 C 158.2 94.9 154.4 91.1 149.7 89.4 C 145.4 88.0 141.3 88.0 133.1 88.0 L 75.3 88.0 C 67.3 88.0 63.2 88.0 58.8 89.4 C 54.1 91.1 50.4 94.9 48.6 99.6 C 47.3 104.0 47.3 108.0 47.3 116.2 L 47.3 134.3 C 47.3 142.3 47.3 146.4 48.6 150.7 C 50.4 155.5 54.1 159.2 58.8 160.9 C 63.2 162.3 67.3 162.3 75.4 162.3 Z M 75.3 162.3 " fill="#DDF3D0"></path><path d="M 76.0 160.4 C 75.0 160.4 73.8 160.5 73.7 161.8 C 73.5 163.2 74.5 164.2 75.9 164.2 C 77.2 164.2 76.8 163.5 80.0 163.5 C 81.2 163.5 81.3 161.1 80.1 161.1 C 77.2 161.1 77.6 160.4 76.0 160.4 C 76.0 160.4 76.0 160.4 76.0 160.4 Z M 74.3 164.2 C 74.7 164.2 75.1 164.2 75.4 164.2 L 75.4 160.4 C 74.4 160.6 73.9 161.2 73.9 162.3 C 73.9 163.3 74.4 164.0 75.4 164.2 L 75.4 160.4 C 75.1 160.4 74.7 160.3 74.3 160.3 C 72.2 160.3 72.2 161.1 69.5 161.0 C 68.0 161.0 68.2 163.4 69.4 163.5 C 72.3 163.5 72.0 164.2 74.3 164.2 C 74.3 164.2 74.3 164.2 74.3 164.2 Z M 80.2 161.0 C 79.0 161.0 79.0 163.5 80.3 163.5 C 81.8 163.5 84.9 163.1 85.8 163.1 C 86.6 163.2 88.9 163.6 89.6 163.6 C 90.3 163.6 93.8 162.9 95.3 163.1 C 96.8 163.3 97.3 163.2 98.3 163.2 C 99.3 163.2 101.0 163.1 102.0 163.0 C 102.9 163.0 103.8 163.6 105.1 163.4 C 106.4 163.3 107.1 163.5 108.0 163.5 C 109.4 163.5 109.3 161.1 108.0 161.1 C 106.7 161.1 105.8 160.9 104.7 161.0 C 103.7 161.0 102.7 161.3 101.7 161.0 C 100.7 160.8 98.7 161.0 97.4 161.2 C 96.2 161.3 94.8 161.3 93.8 161.2 C 91.9 161.0 87.2 161.4 86.5 161.2 C 85.8 161.0 83.7 161.2 82.9 161.2 C 82.2 161.2 81.7 161.0 80.2 161.0 C 80.2 161.0 80.2 161.0 80.2 161.0 Z M 136.8 163.5 C 138.4 163.5 138.6 161.0 136.7 161.1 C 134.9 161.1 131.5 161.3 130.7 161.2 C 129.9 161.2 126.4 161.0 125.7 161.0 C 125.0 161.0 122.4 161.4 120.9 161.2 C 119.4 161.0 117.9 161.4 116.9 161.3 C 115.6 161.1 114.9 161.3 113.9 161.3 C 113.0 161.4 111.5 160.9 110.6 161.1 C 109.8 161.3 109.3 161.1 108.2 161.1 C 107.0 161.1 107.0 163.5 108.1 163.5 C 109.2 163.5 110.1 163.5 111.2 163.4 C 112.3 163.4 113.6 163.3 114.8 163.3 C 115.9 163.3 117.5 163.6 118.7 163.5 C 120.0 163.3 121.8 163.2 122.5 163.2 C 123.4 163.2 125.3 163.3 126.1 163.1 C 127.2 162.9 129.0 163.2 129.7 163.4 C 130.4 163.6 130.8 163.3 132.3 163.4 C 133.2 163.4 135.1 163.5 136.8 163.5 C 136.8 163.5 136.8 163.5 136.8 163.5 Z M 137.3 163.5 C 139.1 163.5 141.6 163.1 142.2 163.0 C 142.8 163.0 144.6 163.1 145.4 162.9 C 146.3 162.7 146.5 162.5 147.8 162.2 C 149.4 161.8 150.6 161.5 150.7 161.5 C 151.1 161.5 152.1 161.3 153.3 160.5 C 154.9 159.4 155.4 159.2 156.0 158.6 C 156.9 157.4 157.2 157.4 157.8 156.6 C 158.5 155.7 159.0 155.2 159.3 154.3 C 159.7 153.4 160.3 153.0 160.7 152.1 C 161.2 150.8 158.9 150.1 158.4 151.2 C 158.1 151.8 158.0 152.5 157.7 153.2 C 157.3 153.8 156.9 154.3 156.3 154.8 C 155.8 155.3 154.9 156.5 153.9 157.3 C 152.9 158.0 151.2 158.9 149.9 159.5 C 148.6 160.1 148.3 160.8 145.8 160.8 C 145.0 160.8 143.4 161.0 142.6 161.1 C 141.3 161.2 138.5 161.1 137.1 161.1 C 135.4 161.1 135.4 163.5 137.3 163.5 C 137.3 163.5 137.3 163.5 137.3 163.5 Z M 162.5 123.9 C 162.5 122.6 160.1 122.4 160.1 123.9 C 160.1 125.4 160.3 128.2 160.2 129.1 C 160.2 129.9 160.0 133.3 160.0 134.1 C 160.0 134.8 160.4 138.5 160.1 140.2 C 159.9 141.8 160.3 143.2 160.1 144.1 C 159.9 145.3 159.9 145.8 159.9 146.6 C 159.8 147.4 159.1 148.4 159.1 149.1 C 159.2 149.7 158.9 149.9 158.5 150.9 C 158.1 151.9 160.3 153.0 160.7 151.9 C 161.2 150.8 161.3 150.1 161.5 149.2 C 161.6 148.3 161.8 147.2 161.9 146.1 C 162.0 145.2 162.5 143.8 162.3 142.5 C 162.2 141.3 162.2 139.2 162.2 138.4 C 162.2 137.2 162.2 134.5 162.1 133.6 C 161.9 132.6 162.2 130.7 162.4 130.1 C 162.6 129.4 162.3 128.9 162.4 127.5 C 162.4 126.6 162.5 125.2 162.5 123.9 C 162.5 123.9 162.5 123.9 162.5 123.9 Z M 162.5 123.5 C 162.5 122.0 162.2 119.6 162.2 119.0 C 162.2 118.4 162.4 116.5 162.3 115.2 C 162.2 113.8 162.1 113.4 162.0 111.5 C 161.9 109.1 162.1 107.9 162.1 107.8 C 162.2 107.5 162.4 106.5 162.2 105.3 C 162.0 103.7 162.1 103.2 161.9 102.6 C 161.4 101.5 161.6 101.3 161.3 100.5 C 161.1 99.6 161.0 98.9 160.5 98.2 C 159.9 97.3 159.9 96.6 159.4 95.8 C 158.7 94.6 156.7 96.2 157.3 97.1 C 157.7 97.7 158.2 98.2 158.5 98.9 C 158.9 99.6 159.0 100.1 159.1 100.8 C 159.1 101.4 159.6 102.5 159.7 103.6 C 159.8 104.6 159.8 106.4 159.9 107.9 C 160.0 109.3 160.6 110.0 160.3 114.1 C 160.1 115.4 160.2 117.6 160.2 118.4 C 160.2 119.8 160.1 122.5 160.1 123.7 C 160.1 125.0 162.5 125.0 162.5 123.5 C 162.5 123.5 162.5 123.5 162.5 123.5 Z M 133.4 86.8 C 132.5 86.8 132.3 87.4 132.3 88.0 C 132.3 88.7 132.3 89.3 133.4 89.3 C 135.6 89.3 139.0 89.1 139.9 89.1 C 140.7 89.2 143.9 89.5 144.5 89.6 C 145.1 89.7 147.2 89.6 148.2 90.1 C 149.3 90.6 150.7 90.8 151.5 91.3 C 152.5 92.0 153.1 92.3 153.8 92.8 C 154.6 93.3 155.2 94.6 155.9 95.1 C 156.5 95.5 156.6 96.0 157.2 96.9 C 157.8 97.8 159.9 96.6 159.3 95.7 C 158.7 94.7 158.0 93.9 157.2 93.1 C 156.4 92.3 155.3 91.4 154.3 90.7 C 153.4 90.0 152.0 88.9 150.7 88.6 C 149.4 88.2 148.0 88.0 147.5 87.9 C 146.7 87.8 145.1 87.4 144.3 87.5 C 143.4 87.6 141.6 87.2 141.0 87.0 C 140.3 86.8 139.8 87.0 138.1 87.0 C 137.1 86.9 135.3 86.8 133.4 86.8 C 133.4 86.8 133.4 86.8 133.4 86.8 Z M 133.2 89.3 C 134.9 89.3 134.4 86.8 133.0 86.8 C 131.5 86.8 128.4 87.3 127.6 87.2 C 126.7 87.2 124.4 86.7 123.7 86.7 C 123.0 86.7 119.5 87.4 118.0 87.2 C 116.5 87.0 116.1 87.1 115.0 87.1 C 114.0 87.1 112.4 87.3 111.4 87.3 C 110.4 87.4 109.5 86.7 108.2 86.9 C 106.9 87.1 106.2 86.8 105.4 86.8 C 103.9 86.8 104.0 89.3 105.3 89.3 C 106.6 89.3 107.5 89.4 108.6 89.4 C 109.7 89.3 110.6 89.1 111.6 89.3 C 112.7 89.6 114.7 89.3 115.9 89.1 C 117.1 89.0 118.5 89.1 119.5 89.2 C 121.5 89.4 126.2 88.9 126.8 89.1 C 127.5 89.3 129.6 89.1 130.4 89.1 C 131.2 89.1 130.9 89.3 133.2 89.3 C 133.2 89.3 133.2 89.3 133.2 89.3 Z M 105.0 86.8 C 103.5 86.8 101.1 87.2 100.5 87.2 C 99.9 87.2 97.9 87.0 96.9 87.0 C 96.0 87.1 95.7 87.3 94.1 87.3 C 92.1 87.4 90.8 87.1 90.7 87.1 C 90.4 87.0 89.4 86.8 88.1 86.9 C 86.3 87.0 85.8 86.7 85.0 86.8 C 83.6 87.1 83.5 86.8 82.4 86.9 C 81.4 86.9 80.7 86.8 79.9 87.0 C 79.0 87.1 78.3 86.8 77.5 86.8 C 76.1 86.8 76.3 89.3 77.5 89.3 C 78.3 89.3 79.0 89.0 79.7 89.0 C 80.5 89.0 81.2 89.1 82.0 89.2 C 82.8 89.3 84.5 89.1 85.7 89.2 C 87.0 89.2 89.2 89.4 90.7 89.3 C 92.2 89.3 93.1 88.7 96.2 89.1 C 97.1 89.2 99.1 89.1 99.9 89.1 C 101.3 89.1 104.0 89.3 105.2 89.3 C 106.5 89.3 106.5 86.8 105.0 86.8 C 105.0 86.8 105.0 86.8 105.0 86.8 Z M 50.5 93.9 C 49.7 94.9 51.5 96.5 52.4 95.4 C 53.3 94.3 55.2 92.5 55.8 92.1 C 56.5 91.7 59.4 90.5 60.0 90.4 C 60.5 90.2 62.4 89.5 63.6 89.5 C 64.9 89.6 66.1 89.1 67.2 89.1 C 68.4 89.2 69.2 89.1 70.3 89.0 C 71.4 89.0 73.4 89.4 74.5 89.2 C 75.7 89.0 76.1 89.3 77.2 89.3 C 78.4 89.3 78.4 86.8 77.3 86.8 C 76.2 86.8 75.2 86.9 73.7 86.9 C 72.2 87.0 70.6 87.0 69.3 87.0 C 68.1 87.1 66.5 86.8 65.3 87.1 C 64.1 87.3 62.6 87.6 62.0 87.7 C 61.3 87.9 59.7 88.2 59.0 88.5 C 58.2 88.9 56.3 89.5 55.5 89.7 C 54.8 89.9 54.5 90.4 53.3 91.3 C 52.6 91.9 51.4 92.8 50.5 93.9 C 50.5 93.9 50.5 93.9 50.5 93.9 Z M 50.3 94.2 C 49.3 95.4 48.4 97.9 48.1 98.5 C 47.9 99.1 47.2 100.7 47.1 101.5 C 47.0 102.3 47.1 102.6 47.0 103.9 C 46.8 105.6 46.5 106.9 46.5 107.0 C 46.4 107.2 46.1 108.2 46.1 109.6 C 46.2 111.6 46.0 112.3 46.0 113.4 C 46.3 115.1 46.1 115.6 46.1 116.7 C 46.2 117.7 46.1 118.4 46.2 119.2 C 46.3 120.1 46.0 120.8 46.0 121.6 C 46.0 123.0 48.5 122.9 48.5 121.6 C 48.5 120.8 48.2 120.2 48.2 119.4 C 48.2 118.6 48.3 117.9 48.4 117.1 C 48.5 116.3 48.3 114.0 48.4 112.4 C 48.5 110.8 48.6 108.5 48.7 107.1 C 48.7 105.7 48.1 104.8 49.0 102.5 C 49.2 101.8 49.4 100.5 49.7 99.7 C 50.2 98.5 51.6 96.4 52.3 95.6 C 53.1 94.6 51.3 92.9 50.3 94.2 C 50.3 94.2 50.3 94.2 50.3 94.2 Z M 47.2 150.0 C 47.5 151.1 49.8 150.5 49.5 149.4 C 49.2 148.3 48.6 146.1 48.6 145.4 C 48.6 144.7 48.6 141.5 48.6 140.7 C 48.5 139.9 48.2 136.9 48.4 134.8 C 48.6 132.6 48.2 131.6 48.3 130.6 C 48.4 129.3 48.3 128.7 48.2 127.7 C 48.2 126.7 48.7 125.2 48.5 124.4 C 48.3 123.5 48.5 123.1 48.5 121.9 C 48.5 120.7 46.1 120.7 46.1 121.8 C 46.1 122.9 46.1 123.9 46.1 124.9 C 46.2 126.0 46.2 127.4 46.2 128.5 C 46.2 129.6 45.9 131.2 46.1 132.4 C 46.2 133.7 46.3 136.0 46.3 136.9 C 46.4 138.1 46.3 140.3 46.5 141.2 C 46.7 142.3 46.5 144.1 46.4 144.8 C 46.2 145.4 46.5 145.8 46.7 147.0 C 46.8 147.8 46.9 149.0 47.2 150.0 C 47.2 150.0 47.2 150.0 47.2 150.0 Z M 47.3 150.4 C 47.6 151.6 49.2 153.9 49.5 154.5 C 49.8 155.0 51.0 156.8 51.7 157.5 C 52.4 158.1 52.8 158.3 54.1 159.2 C 55.8 160.4 57.0 161.1 57.1 161.2 C 57.3 161.4 58.3 162.1 59.4 162.3 C 60.9 162.6 61.3 162.9 61.9 162.9 C 63.1 162.8 63.2 163.1 64.2 163.1 C 65.1 163.2 65.7 163.3 66.5 163.2 C 67.4 163.1 68.1 163.5 69.1 163.5 C 70.5 163.5 70.4 161.0 69.1 161.0 C 68.2 161.0 67.5 161.2 66.8 161.2 C 66.0 161.2 65.4 161.1 64.7 160.9 C 64.0 160.7 62.7 160.7 61.8 160.5 C 60.8 160.3 59.3 159.7 58.0 159.2 C 56.7 158.6 55.5 158.8 53.7 156.5 C 53.1 155.8 51.8 154.5 51.4 153.9 C 50.7 152.8 49.8 150.4 49.6 149.6 C 49.3 148.5 46.9 149.1 47.3 150.4 C 47.3 150.4 47.3 150.4 47.3 150.4 Z M 75.4 164.2 C 75.4 164.2 75.4 164.1 75.4 162.7 C 75.4 161.4 75.4 160.3 75.4 160.3 C 75.4 160.3 75.4 161.1 75.4 161.1 C 75.3 161.1 75.3 163.5 75.4 163.5 C 75.4 163.5 75.4 164.2 75.4 164.2 C 75.4 164.2 75.4 164.2 75.4 164.2 Z M 75.3 160.3 C 75.3 160.3 75.3 161.0 75.3 162.3 C 75.3 163.6 75.3 164.2 75.3 164.2 C 75.3 164.2 75.3 163.5 75.4 163.5 C 75.4 163.5 75.4 161.1 75.4 161.1 C 75.3 161.1 75.3 160.3 75.3 160.3 C 75.3 160.3 75.3 160.3 75.3 160.3 Z M 75.3 160.3 " fill="#FF7777"></path></g></g><g><clipPath id="clip-82"><path d="M 47.3 88.0 L 161.3 88.0 L 161.3 162.3 L 47.3 162.3 Z M 47.3 88.0 "></path></clipPath><g clip-path="url(#clip-82)"><text xml:space="preserve" font-family="AmericanTypewriter" font-size="20.0" fill="#000000" transform="matrix(1.00, 0.00, -0.00, -1.00, 88.0, 118.0)">V</text><text xml:space="preserve" font-family="AmericanTypewriter" font-size="20.0" fill="#000000" transform="matrix(1.00, 0.00, -0.00, -1.00, 102.6, 118.0)">M</text></g></g><g><clipPath id="clip-83"><path d="M 48.3 69.0 L 180.0 69.0 L 180.0 160.9 L 48.3 160.9 Z M 48.3 69.0 "></path></clipPath><g clip-path="url(#clip-83)"><image xlink:href="../../956FEF66-F126-4898-9939-EAE9E9BE3BA5/assets/6BE460064B40692868CC0984B1AA00D9.png" width="130.00" height="90.00" transform="matrix(1.00, 0.00, -0.00, -1.00, 49.3, 159.9)" opacity="0.50"></image><path d="M 85.2 152.1 L 143.1 152.1 C 151.2 152.1 155.3 152.1 159.6 150.7 C 164.3 149.0 168.1 145.3 169.8 140.5 C 171.2 136.2 171.2 132.1 171.2 124.0 L 171.2 105.9 C 171.2 97.9 171.2 93.8 169.8 89.4 C 168.1 84.7 164.3 81.0 159.6 79.2 C 155.3 77.9 151.2 77.9 143.0 77.9 L 85.2 77.9 C 77.2 77.9 73.1 77.9 68.7 79.2 C 64.0 81.0 60.3 84.7 58.5 89.4 C 57.2 93.8 57.2 97.9 57.2 106.0 L 57.2 124.1 C 57.2 132.1 57.2 136.2 58.5 140.5 C 60.3 145.3 64.0 149.0 68.7 150.7 C 73.1 152.1 77.2 152.1 85.3 152.1 Z M 85.2 152.1 " fill="#DDF3D0"></path><path d="M 85.8 150.2 C 84.9 150.2 83.7 150.3 83.6 151.7 C 83.4 153.0 84.4 154.1 85.8 154.1 C 87.1 154.1 86.7 153.3 89.9 153.3 C 91.1 153.3 91.2 150.9 90.0 150.9 C 87.1 150.9 87.5 150.2 85.8 150.2 C 85.8 150.2 85.8 150.2 85.8 150.2 Z M 84.1 154.1 C 84.6 154.1 85.0 154.0 85.3 154.0 L 85.3 150.2 C 84.3 150.4 83.8 151.0 83.8 152.1 C 83.7 153.2 84.3 153.8 85.3 154.0 L 85.3 150.2 C 85.0 150.2 84.6 150.2 84.1 150.2 C 82.1 150.2 82.1 150.9 79.4 150.8 C 77.9 150.8 78.1 153.3 79.3 153.3 C 82.2 153.3 81.8 154.1 84.1 154.1 C 84.1 154.1 84.1 154.1 84.1 154.1 Z M 90.1 150.9 C 88.9 150.9 88.9 153.3 90.2 153.3 C 91.7 153.3 94.8 152.9 95.7 152.9 C 96.5 153.0 98.8 153.5 99.5 153.5 C 100.2 153.5 103.7 152.7 105.2 152.9 C 106.7 153.1 107.2 153.0 108.2 153.0 C 109.2 153.0 110.9 152.9 111.8 152.8 C 112.8 152.8 113.7 153.4 115.0 153.3 C 116.3 153.1 117.0 153.3 117.9 153.3 C 119.3 153.3 119.2 150.9 117.9 150.9 C 116.6 150.9 115.7 150.7 114.6 150.8 C 113.6 150.8 112.6 151.1 111.6 150.8 C 110.6 150.6 108.6 150.8 107.3 151.0 C 106.1 151.2 104.7 151.1 103.7 151.0 C 101.8 150.8 97.1 151.2 96.4 151.0 C 95.7 150.8 93.6 151.0 92.8 151.0 C 92.0 151.0 91.6 150.9 90.1 150.9 C 90.1 150.9 90.1 150.9 90.1 150.9 Z M 146.7 153.3 C 148.3 153.3 148.5 150.9 146.6 150.9 C 144.7 150.9 141.4 151.1 140.6 151.1 C 139.8 151.0 136.3 150.9 135.6 150.9 C 134.9 150.9 132.3 151.2 130.8 151.0 C 129.3 150.8 127.8 151.2 126.8 151.1 C 125.5 151.0 124.8 151.1 123.8 151.2 C 122.9 151.2 121.4 150.7 120.5 150.9 C 119.7 151.1 119.2 150.9 118.1 150.9 C 116.9 150.9 116.9 153.3 118.0 153.3 C 119.1 153.3 120.0 153.3 121.1 153.2 C 122.2 153.2 123.5 153.1 124.7 153.1 C 125.8 153.1 127.4 153.4 128.6 153.3 C 129.8 153.1 131.6 153.1 132.4 153.0 C 133.3 153.0 135.2 153.1 136.0 152.9 C 137.1 152.8 138.9 153.0 139.6 153.2 C 140.3 153.4 140.7 153.1 142.2 153.2 C 143.1 153.2 145.0 153.3 146.7 153.3 C 146.7 153.3 146.7 153.3 146.7 153.3 Z M 147.1 153.3 C 149.0 153.3 151.5 152.9 152.1 152.9 C 152.7 152.8 154.5 152.9 155.3 152.7 C 156.1 152.6 156.4 152.3 157.7 152.0 C 159.3 151.6 160.5 151.3 160.6 151.3 C 161.0 151.3 162.0 151.1 163.2 150.3 C 164.8 149.2 165.3 149.0 165.9 148.4 C 166.8 147.2 167.1 147.3 167.7 146.4 C 168.4 145.5 168.9 145.0 169.2 144.2 C 169.6 143.3 170.2 142.8 170.6 141.9 C 171.1 140.6 168.7 139.9 168.3 141.0 C 168.0 141.7 167.9 142.3 167.6 143.0 C 167.2 143.6 166.8 144.1 166.2 144.6 C 165.7 145.2 164.8 146.4 163.8 147.1 C 162.8 147.8 161.1 148.7 159.8 149.3 C 158.5 149.9 158.2 150.6 155.7 150.6 C 154.9 150.6 153.2 150.9 152.5 150.9 C 151.2 151.0 148.4 150.9 147.0 150.9 C 145.3 150.9 145.3 153.3 147.1 153.3 C 147.1 153.3 147.1 153.3 147.1 153.3 Z M 172.4 113.7 C 172.4 112.4 169.9 112.2 169.9 113.7 C 169.9 115.3 170.2 118.1 170.1 118.9 C 170.1 119.7 169.9 123.2 169.9 123.9 C 169.9 124.6 170.3 128.3 170.0 130.0 C 169.8 131.6 170.1 133.0 170.0 133.9 C 169.8 135.1 169.8 135.6 169.8 136.4 C 169.7 137.2 169.0 138.2 169.0 138.9 C 169.1 139.6 168.8 139.7 168.4 140.8 C 168.0 141.8 170.2 142.8 170.6 141.8 C 171.1 140.7 171.2 139.9 171.4 139.0 C 171.5 138.1 171.7 137.0 171.8 136.0 C 171.9 135.0 172.3 133.6 172.2 132.3 C 172.1 131.1 172.1 129.1 172.1 128.2 C 172.1 127.1 172.1 124.3 172.0 123.4 C 171.8 122.4 172.1 120.6 172.3 119.9 C 172.5 119.2 172.2 118.7 172.3 117.3 C 172.3 116.4 172.4 115.0 172.4 113.7 C 172.4 113.7 172.4 113.7 172.4 113.7 Z M 172.4 113.3 C 172.4 111.8 172.1 109.4 172.1 108.8 C 172.1 108.2 172.2 106.3 172.2 105.0 C 172.1 103.7 172.0 103.2 171.9 101.3 C 171.8 98.9 172.0 97.7 172.0 97.6 C 172.1 97.3 172.3 96.3 172.1 95.1 C 171.9 93.5 172.0 93.0 171.8 92.4 C 171.3 91.3 171.5 91.1 171.2 90.3 C 171.0 89.4 170.9 88.8 170.4 88.0 C 169.8 87.2 169.8 86.4 169.3 85.6 C 168.5 84.4 166.6 86.0 167.2 87.0 C 167.6 87.6 168.1 88.0 168.4 88.7 C 168.8 89.4 168.9 90.0 169.0 90.6 C 169.0 91.2 169.5 92.4 169.6 93.4 C 169.7 94.4 169.7 96.2 169.8 97.7 C 169.9 99.1 170.5 99.8 170.1 103.9 C 170.0 105.2 170.1 107.4 170.1 108.2 C 170.1 109.6 170.0 112.3 170.0 113.5 C 170.0 114.9 172.4 114.8 172.4 113.3 C 172.4 113.3 172.4 113.3 172.4 113.3 Z M 143.3 76.6 C 142.4 76.6 142.2 77.3 142.2 77.9 C 142.2 78.5 142.2 79.1 143.3 79.1 C 145.5 79.1 148.9 78.9 149.7 79.0 C 150.6 79.0 153.8 79.4 154.4 79.4 C 155.0 79.5 157.1 79.5 158.1 80.0 C 159.2 80.4 160.6 80.6 161.4 81.1 C 162.4 81.8 163.0 82.1 163.7 82.6 C 164.5 83.1 165.1 84.5 165.8 84.9 C 166.4 85.3 166.5 85.8 167.1 86.7 C 167.7 87.6 169.8 86.5 169.2 85.5 C 168.6 84.5 167.9 83.7 167.1 82.9 C 166.3 82.1 165.2 81.2 164.2 80.5 C 163.3 79.9 161.9 78.7 160.6 78.4 C 159.3 78.0 157.9 77.8 157.3 77.7 C 156.6 77.6 155.0 77.3 154.2 77.3 C 153.3 77.4 151.5 77.1 150.8 76.8 C 150.2 76.6 149.7 76.9 148.0 76.8 C 146.9 76.8 145.2 76.6 143.3 76.6 C 143.3 76.6 143.3 76.6 143.3 76.6 Z M 143.1 79.1 C 144.8 79.1 144.2 76.6 142.9 76.6 C 141.4 76.6 138.3 77.1 137.4 77.0 C 136.6 77.0 134.3 76.5 133.6 76.5 C 132.9 76.5 129.4 77.2 127.9 77.0 C 126.4 76.8 126.0 76.9 124.9 76.9 C 123.9 76.9 122.2 77.1 121.3 77.1 C 120.3 77.2 119.4 76.5 118.1 76.7 C 116.8 76.9 116.1 76.6 115.2 76.6 C 113.8 76.6 113.9 79.1 115.2 79.1 C 116.5 79.1 117.4 79.2 118.5 79.2 C 119.6 79.1 120.5 78.9 121.5 79.1 C 122.6 79.4 124.6 79.1 125.8 79.0 C 127.0 78.8 128.4 78.9 129.4 79.0 C 131.3 79.2 136.0 78.7 136.7 78.9 C 137.4 79.1 139.5 78.9 140.3 78.9 C 141.1 78.9 140.8 79.1 143.1 79.1 C 143.1 79.1 143.1 79.1 143.1 79.1 Z M 114.9 76.6 C 113.4 76.6 111.0 77.0 110.4 77.0 C 109.8 77.0 107.8 76.8 106.8 76.8 C 105.9 76.9 105.6 77.1 104.0 77.1 C 102.0 77.2 100.7 77.0 100.6 76.9 C 100.3 76.8 99.3 76.6 98.0 76.7 C 96.2 76.8 95.7 76.5 94.9 76.6 C 93.5 76.9 93.4 76.7 92.3 76.7 C 91.3 76.8 90.6 76.7 89.8 76.8 C 88.9 76.9 88.2 76.6 87.4 76.6 C 86.0 76.6 86.2 79.1 87.4 79.1 C 88.2 79.1 88.8 78.8 89.6 78.8 C 90.4 78.8 91.1 78.9 91.9 79.0 C 92.7 79.1 94.3 78.9 95.6 79.0 C 96.9 79.0 99.1 79.2 100.6 79.1 C 102.1 79.1 103.0 78.5 106.0 78.9 C 107.0 79.0 109.0 78.9 109.8 78.9 C 111.2 78.9 113.9 79.1 115.0 79.1 C 116.4 79.1 116.4 76.6 114.9 76.6 C 114.9 76.6 114.9 76.6 114.9 76.6 Z M 60.4 83.7 C 59.6 84.7 61.4 86.3 62.3 85.2 C 63.2 84.1 65.1 82.3 65.7 81.9 C 66.4 81.5 69.3 80.4 69.9 80.2 C 70.4 80.1 72.3 79.3 73.5 79.3 C 74.8 79.4 76.0 78.9 77.1 79.0 C 78.3 79.0 79.1 78.9 80.2 78.8 C 81.3 78.8 83.3 79.3 84.4 79.1 C 85.6 78.9 86.0 79.1 87.1 79.1 C 88.3 79.1 88.3 76.7 87.2 76.7 C 86.1 76.7 85.1 76.7 83.6 76.7 C 82.1 76.8 80.5 76.8 79.2 76.9 C 78.0 76.9 76.3 76.6 75.2 76.9 C 74.0 77.1 72.5 77.4 71.9 77.5 C 71.2 77.7 69.6 78.0 68.9 78.3 C 68.1 78.7 66.2 79.4 65.4 79.5 C 64.7 79.7 64.4 80.2 63.2 81.1 C 62.5 81.7 61.3 82.6 60.4 83.7 C 60.4 83.7 60.4 83.7 60.4 83.7 Z M 60.2 84.0 C 59.2 85.3 58.3 87.7 58.0 88.3 C 57.8 88.9 57.1 90.5 57.0 91.3 C 56.9 92.1 57.0 92.4 56.8 93.8 C 56.7 95.5 56.4 96.7 56.4 96.8 C 56.3 97.1 56.0 98.0 56.0 99.5 C 56.1 101.4 55.8 102.1 55.9 103.2 C 56.2 105.0 56.0 105.5 56.0 106.5 C 56.1 107.6 56.0 108.2 56.1 109.0 C 56.2 110.0 55.9 110.6 55.9 111.5 C 55.9 112.8 58.4 112.7 58.4 111.4 C 58.4 110.7 58.1 110.0 58.1 109.2 C 58.1 108.4 58.2 107.7 58.3 106.9 C 58.4 106.1 58.2 103.8 58.3 102.2 C 58.4 100.6 58.5 98.3 58.6 96.9 C 58.6 95.5 58.0 94.6 58.8 92.4 C 59.1 91.6 59.3 90.3 59.6 89.6 C 60.1 88.3 61.5 86.2 62.2 85.4 C 63.0 84.4 61.1 82.8 60.2 84.0 C 60.2 84.0 60.2 84.0 60.2 84.0 Z M 57.1 139.8 C 57.3 140.9 59.7 140.3 59.4 139.2 C 59.1 138.1 58.5 135.9 58.5 135.2 C 58.5 134.5 58.5 131.3 58.5 130.5 C 58.4 129.8 58.1 126.7 58.3 124.6 C 58.5 122.5 58.1 121.5 58.2 120.4 C 58.3 119.2 58.2 118.5 58.1 117.5 C 58.1 116.5 58.6 115.0 58.4 114.2 C 58.1 113.3 58.4 112.9 58.4 111.7 C 58.4 110.6 56.0 110.6 56.0 111.7 C 56.0 112.8 56.0 113.7 56.0 114.8 C 56.1 115.9 56.1 117.2 56.1 118.4 C 56.1 119.4 55.8 121.0 56.0 122.3 C 56.1 123.5 56.2 125.8 56.2 126.7 C 56.3 127.9 56.2 130.2 56.4 131.0 C 56.6 132.2 56.4 133.9 56.3 134.6 C 56.1 135.2 56.4 135.6 56.6 136.9 C 56.7 137.6 56.8 138.8 57.1 139.8 C 57.1 139.8 57.1 139.8 57.1 139.8 Z M 57.2 140.2 C 57.5 141.4 59.1 143.8 59.4 144.3 C 59.7 144.8 60.9 146.6 61.6 147.3 C 62.3 148.0 62.7 148.1 64.0 149.0 C 65.7 150.2 66.9 150.9 67.0 151.0 C 67.2 151.2 68.2 151.9 69.3 152.1 C 70.8 152.4 71.2 152.7 71.8 152.7 C 73.0 152.6 73.1 152.9 74.1 153.0 C 75.0 153.0 75.6 153.2 76.4 153.1 C 77.3 153.0 78.0 153.3 79.0 153.3 C 80.4 153.3 80.3 150.9 79.0 150.8 C 78.1 150.8 77.4 151.1 76.7 151.0 C 75.9 151.0 75.3 150.9 74.6 150.7 C 73.9 150.6 72.6 150.6 71.6 150.3 C 70.7 150.1 69.2 149.6 67.9 149.0 C 66.6 148.5 65.4 148.6 63.6 146.4 C 63.0 145.7 61.7 144.3 61.3 143.7 C 60.6 142.6 59.7 140.3 59.5 139.4 C 59.2 138.4 56.8 139.0 57.2 140.2 C 57.2 140.2 57.2 140.2 57.2 140.2 Z M 85.3 154.0 C 85.3 154.0 85.3 153.9 85.3 152.6 C 85.3 151.2 85.3 150.2 85.3 150.2 C 85.3 150.2 85.3 150.9 85.3 150.9 C 85.2 150.9 85.2 153.3 85.3 153.3 C 85.3 153.3 85.3 154.0 85.3 154.0 C 85.3 154.0 85.3 154.0 85.3 154.0 Z M 85.2 150.2 C 85.2 150.2 85.2 150.8 85.2 152.1 C 85.2 153.4 85.2 154.1 85.2 154.1 C 85.2 154.1 85.2 153.3 85.2 153.4 C 85.3 153.4 85.3 150.9 85.2 150.9 C 85.2 150.9 85.2 150.2 85.2 150.2 C 85.2 150.2 85.2 150.2 85.2 150.2 Z M 85.2 150.2 " fill="#FF7777"></path></g></g><g><clipPath id="clip-84"><path d="M 57.2 77.9 L 171.2 77.9 L 171.2 152.1 L 57.2 152.1 Z M 57.2 77.9 "></path></clipPath><g clip-path="url(#clip-84)"><text xml:space="preserve" font-family="AmericanTypewriter" font-size="20.0" fill="#000000" transform="matrix(1.00, 0.00, -0.00, -1.00, 97.0, 108.0)">V</text><text xml:space="preserve" font-family="AmericanTypewriter" font-size="20.0" fill="#000000" transform="matrix(1.00, 0.00, -0.00, -1.00, 111.6, 108.0)">M</text></g></g><g><clipPath id="clip-85"><path d="M 58.3 59.0 L 190.0 59.0 L 190.0 150.9 L 58.3 150.9 Z M 58.3 59.0 "></path></clipPath><g clip-path="url(#clip-85)"><image xlink:href="../../956FEF66-F126-4898-9939-EAE9E9BE3BA5/assets/6BE460064B40692868CC0984B1AA00D9.png" width="130.00" height="90.00" transform="matrix(1.00, 0.00, -0.00, -1.00, 59.3, 149.9)" opacity="0.50"></image><path d="M 95.2 142.1 L 153.1 142.1 C 161.2 142.1 165.3 142.1 169.6 140.7 C 174.3 139.0 178.1 135.3 179.8 130.5 C 181.2 126.2 181.2 122.1 181.2 114.0 L 181.2 95.9 C 181.2 87.9 181.2 83.8 179.8 79.4 C 178.1 74.7 174.3 71.0 169.6 69.2 C 165.3 67.9 161.2 67.9 153.0 67.9 L 95.2 67.9 C 87.2 67.9 83.1 67.9 78.7 69.2 C 74.0 71.0 70.3 74.7 68.5 79.4 C 67.2 83.8 67.2 87.9 67.2 96.0 L 67.2 114.1 C 67.2 122.1 67.2 126.2 68.5 130.5 C 70.3 135.3 74.0 139.0 78.7 140.7 C 83.1 142.1 87.2 142.1 95.3 142.1 Z M 95.2 142.1 " fill="#DDF3D0"></path><path d="M 95.8 140.2 C 94.9 140.2 93.7 140.3 93.6 141.7 C 93.4 143.0 94.4 144.1 95.8 144.1 C 97.1 144.1 96.7 143.3 99.9 143.3 C 101.1 143.3 101.2 140.9 100.0 140.9 C 97.1 140.9 97.5 140.2 95.8 140.2 C 95.8 140.2 95.8 140.2 95.8 140.2 Z M 94.1 144.1 C 94.6 144.1 95.0 144.0 95.3 144.0 L 95.3 140.2 C 94.3 140.4 93.8 141.0 93.8 142.1 C 93.7 143.2 94.3 143.8 95.3 144.0 L 95.3 140.2 C 95.0 140.2 94.6 140.2 94.1 140.2 C 92.1 140.2 92.1 140.9 89.4 140.8 C 87.9 140.8 88.1 143.3 89.3 143.3 C 92.2 143.3 91.8 144.1 94.1 144.1 C 94.1 144.1 94.1 144.1 94.1 144.1 Z M 100.1 140.9 C 98.9 140.9 98.9 143.3 100.2 143.3 C 101.7 143.3 104.8 142.9 105.7 142.9 C 106.5 143.0 108.8 143.5 109.5 143.5 C 110.2 143.5 113.7 142.7 115.2 142.9 C 116.7 143.1 117.2 143.0 118.2 143.0 C 119.2 143.0 120.9 142.9 121.8 142.8 C 122.8 142.8 123.7 143.4 125.0 143.3 C 126.3 143.1 127.0 143.3 127.9 143.3 C 129.3 143.3 129.2 140.9 127.9 140.9 C 126.6 140.9 125.7 140.7 124.6 140.8 C 123.6 140.8 122.6 141.1 121.6 140.8 C 120.6 140.6 118.6 140.8 117.3 141.0 C 116.1 141.2 114.7 141.1 113.7 141.0 C 111.8 140.8 107.1 141.2 106.4 141.0 C 105.7 140.8 103.6 141.0 102.8 141.0 C 102.0 141.0 101.6 140.9 100.1 140.9 C 100.1 140.9 100.1 140.9 100.1 140.9 Z M 156.7 143.3 C 158.3 143.3 158.5 140.9 156.6 140.9 C 154.7 140.9 151.4 141.1 150.6 141.1 C 149.8 141.0 146.3 140.9 145.6 140.9 C 144.9 140.9 142.3 141.2 140.8 141.0 C 139.3 140.8 137.8 141.2 136.8 141.1 C 135.5 141.0 134.8 141.1 133.8 141.2 C 132.9 141.2 131.4 140.7 130.5 140.9 C 129.7 141.1 129.2 140.9 128.1 140.9 C 126.9 140.9 126.9 143.3 128.0 143.3 C 129.1 143.3 130.0 143.3 131.1 143.2 C 132.2 143.2 133.5 143.1 134.7 143.1 C 135.8 143.1 137.4 143.4 138.6 143.3 C 139.8 143.1 141.6 143.1 142.4 143.0 C 143.3 143.0 145.2 143.1 146.0 142.9 C 147.1 142.8 148.9 143.0 149.6 143.2 C 150.3 143.4 150.7 143.1 152.2 143.2 C 153.1 143.2 155.0 143.3 156.7 143.3 C 156.7 143.3 156.7 143.3 156.7 143.3 Z M 157.1 143.3 C 159.0 143.3 161.5 142.9 162.1 142.9 C 162.7 142.8 164.5 142.9 165.3 142.7 C 166.1 142.6 166.4 142.3 167.7 142.0 C 169.3 141.6 170.5 141.3 170.6 141.3 C 171.0 141.3 172.0 141.1 173.2 140.3 C 174.8 139.2 175.3 139.0 175.9 138.4 C 176.8 137.2 177.1 137.3 177.7 136.4 C 178.4 135.5 178.9 135.0 179.2 134.2 C 179.6 133.3 180.2 132.8 180.6 131.9 C 181.1 130.6 178.7 129.9 178.3 131.0 C 178.0 131.7 177.9 132.3 177.6 133.0 C 177.2 133.6 176.8 134.1 176.2 134.6 C 175.7 135.2 174.8 136.4 173.8 137.1 C 172.8 137.8 171.1 138.7 169.8 139.3 C 168.5 139.9 168.2 140.6 165.7 140.6 C 164.9 140.6 163.2 140.9 162.5 140.9 C 161.2 141.0 158.4 140.9 157.0 140.9 C 155.3 140.9 155.3 143.3 157.1 143.3 C 157.1 143.3 157.1 143.3 157.1 143.3 Z M 182.4 103.7 C 182.4 102.4 179.9 102.2 179.9 103.7 C 179.9 105.3 180.2 108.1 180.1 108.9 C 180.1 109.7 179.9 113.2 179.9 113.9 C 179.9 114.6 180.3 118.3 180.0 120.0 C 179.8 121.6 180.1 123.0 180.0 123.9 C 179.8 125.1 179.8 125.6 179.8 126.4 C 179.7 127.2 179.0 128.2 179.0 128.9 C 179.1 129.6 178.8 129.7 178.4 130.8 C 178.0 131.8 180.2 132.8 180.6 131.8 C 181.1 130.7 181.2 129.9 181.4 129.0 C 181.5 128.1 181.7 127.0 181.8 126.0 C 181.9 125.0 182.3 123.6 182.2 122.3 C 182.1 121.1 182.1 119.1 182.1 118.2 C 182.1 117.1 182.1 114.3 182.0 113.4 C 181.8 112.4 182.1 110.6 182.3 109.9 C 182.5 109.2 182.2 108.7 182.3 107.3 C 182.3 106.4 182.4 105.0 182.4 103.7 C 182.4 103.7 182.4 103.7 182.4 103.7 Z M 182.4 103.3 C 182.4 101.8 182.1 99.4 182.1 98.8 C 182.1 98.2 182.2 96.3 182.2 95.0 C 182.1 93.7 182.0 93.2 181.9 91.3 C 181.8 88.9 182.0 87.7 182.0 87.6 C 182.1 87.3 182.3 86.3 182.1 85.1 C 181.9 83.5 182.0 83.0 181.8 82.4 C 181.3 81.3 181.5 81.1 181.2 80.3 C 181.0 79.4 180.9 78.8 180.4 78.0 C 179.8 77.2 179.8 76.4 179.3 75.6 C 178.5 74.4 176.6 76.0 177.2 77.0 C 177.6 77.6 178.1 78.0 178.4 78.7 C 178.8 79.4 178.9 80.0 179.0 80.6 C 179.0 81.2 179.5 82.4 179.6 83.4 C 179.7 84.4 179.7 86.2 179.8 87.7 C 179.9 89.1 180.5 89.8 180.1 93.9 C 180.0 95.2 180.1 97.4 180.1 98.2 C 180.1 99.6 180.0 102.3 180.0 103.5 C 180.0 104.9 182.4 104.8 182.4 103.3 C 182.4 103.3 182.4 103.3 182.4 103.3 Z M 153.3 66.6 C 152.4 66.6 152.2 67.3 152.2 67.9 C 152.2 68.5 152.2 69.1 153.3 69.1 C 155.5 69.1 158.9 68.9 159.7 69.0 C 160.6 69.0 163.8 69.4 164.4 69.4 C 165.0 69.5 167.1 69.5 168.1 70.0 C 169.2 70.4 170.6 70.6 171.4 71.1 C 172.4 71.8 173.0 72.1 173.7 72.6 C 174.5 73.1 175.1 74.5 175.8 74.9 C 176.4 75.3 176.5 75.8 177.1 76.7 C 177.7 77.6 179.8 76.5 179.2 75.5 C 178.6 74.5 177.9 73.7 177.1 72.9 C 176.3 72.1 175.2 71.2 174.2 70.5 C 173.3 69.9 171.9 68.7 170.6 68.4 C 169.3 68.0 167.9 67.8 167.3 67.7 C 166.6 67.6 165.0 67.3 164.2 67.3 C 163.3 67.4 161.5 67.1 160.8 66.8 C 160.2 66.6 159.7 66.9 158.0 66.8 C 156.9 66.8 155.2 66.6 153.3 66.6 C 153.3 66.6 153.3 66.6 153.3 66.6 Z M 153.1 69.1 C 154.8 69.1 154.2 66.6 152.9 66.6 C 151.4 66.6 148.3 67.1 147.4 67.0 C 146.6 67.0 144.3 66.5 143.6 66.5 C 142.9 66.5 139.4 67.2 137.9 67.0 C 136.4 66.8 136.0 66.9 134.9 66.9 C 133.9 66.9 132.2 67.1 131.3 67.1 C 130.3 67.2 129.4 66.5 128.1 66.7 C 126.8 66.9 126.1 66.6 125.2 66.6 C 123.8 66.6 123.9 69.1 125.2 69.1 C 126.5 69.1 127.4 69.2 128.5 69.2 C 129.6 69.1 130.5 68.9 131.5 69.1 C 132.6 69.4 134.6 69.1 135.8 69.0 C 137.0 68.8 138.4 68.9 139.4 69.0 C 141.3 69.2 146.0 68.7 146.7 68.9 C 147.4 69.1 149.5 68.9 150.3 68.9 C 151.1 68.9 150.8 69.1 153.1 69.1 C 153.1 69.1 153.1 69.1 153.1 69.1 Z M 124.9 66.6 C 123.4 66.6 121.0 67.0 120.4 67.0 C 119.8 67.0 117.8 66.8 116.8 66.8 C 115.9 66.9 115.6 67.1 114.0 67.1 C 112.0 67.2 110.7 67.0 110.6 66.9 C 110.3 66.8 109.3 66.6 108.0 66.7 C 106.2 66.8 105.7 66.5 104.9 66.6 C 103.5 66.9 103.4 66.7 102.3 66.7 C 101.3 66.8 100.6 66.7 99.8 66.8 C 98.9 66.9 98.2 66.6 97.4 66.6 C 96.0 66.6 96.2 69.1 97.4 69.1 C 98.2 69.1 98.8 68.8 99.6 68.8 C 100.4 68.8 101.1 68.9 101.9 69.0 C 102.7 69.1 104.3 68.9 105.6 69.0 C 106.9 69.0 109.1 69.2 110.6 69.1 C 112.1 69.1 113.0 68.5 116.0 68.9 C 117.0 69.0 119.0 68.9 119.8 68.9 C 121.2 68.9 123.9 69.1 125.0 69.1 C 126.4 69.1 126.4 66.6 124.9 66.6 C 124.9 66.6 124.9 66.6 124.9 66.6 Z M 70.4 73.7 C 69.6 74.7 71.4 76.3 72.3 75.2 C 73.2 74.1 75.1 72.3 75.7 71.9 C 76.4 71.5 79.3 70.4 79.9 70.2 C 80.4 70.1 82.3 69.3 83.5 69.3 C 84.8 69.4 86.0 68.9 87.1 69.0 C 88.3 69.0 89.1 68.9 90.2 68.8 C 91.3 68.8 93.3 69.3 94.4 69.1 C 95.6 68.9 96.0 69.1 97.1 69.1 C 98.3 69.1 98.3 66.7 97.2 66.7 C 96.1 66.7 95.1 66.7 93.6 66.7 C 92.1 66.8 90.5 66.8 89.2 66.9 C 88.0 66.9 86.3 66.6 85.2 66.9 C 84.0 67.1 82.5 67.4 81.9 67.5 C 81.2 67.7 79.6 68.0 78.9 68.3 C 78.1 68.7 76.2 69.4 75.4 69.5 C 74.7 69.7 74.4 70.2 73.2 71.1 C 72.5 71.7 71.3 72.6 70.4 73.7 C 70.4 73.7 70.4 73.7 70.4 73.7 Z M 70.2 74.0 C 69.2 75.3 68.3 77.7 68.0 78.3 C 67.8 78.9 67.1 80.5 67.0 81.3 C 66.9 82.1 67.0 82.4 66.8 83.8 C 66.7 85.5 66.4 86.7 66.4 86.8 C 66.3 87.1 66.0 88.0 66.0 89.5 C 66.1 91.4 65.8 92.1 65.9 93.2 C 66.2 95.0 66.0 95.5 66.0 96.5 C 66.1 97.6 66.0 98.2 66.1 99.0 C 66.2 100.0 65.9 100.6 65.9 101.5 C 65.9 102.8 68.4 102.7 68.4 101.4 C 68.4 100.7 68.1 100.0 68.1 99.2 C 68.1 98.4 68.2 97.7 68.3 96.9 C 68.4 96.1 68.2 93.8 68.3 92.2 C 68.4 90.6 68.5 88.3 68.6 86.9 C 68.6 85.5 68.0 84.6 68.8 82.4 C 69.1 81.6 69.3 80.3 69.6 79.6 C 70.1 78.3 71.5 76.2 72.2 75.4 C 73.0 74.4 71.1 72.8 70.2 74.0 C 70.2 74.0 70.2 74.0 70.2 74.0 Z M 67.1 129.8 C 67.3 130.9 69.7 130.3 69.4 129.2 C 69.1 128.1 68.5 125.9 68.5 125.2 C 68.5 124.5 68.5 121.3 68.5 120.5 C 68.4 119.8 68.1 116.7 68.3 114.6 C 68.5 112.5 68.1 111.5 68.2 110.4 C 68.3 109.2 68.2 108.5 68.1 107.5 C 68.1 106.5 68.6 105.0 68.4 104.2 C 68.1 103.3 68.4 102.9 68.4 101.7 C 68.4 100.6 66.0 100.6 66.0 101.7 C 66.0 102.8 66.0 103.7 66.0 104.8 C 66.1 105.9 66.1 107.2 66.1 108.4 C 66.1 109.4 65.8 111.0 66.0 112.3 C 66.1 113.5 66.2 115.8 66.2 116.7 C 66.3 117.9 66.2 120.2 66.4 121.0 C 66.6 122.2 66.4 123.9 66.3 124.6 C 66.1 125.2 66.4 125.6 66.6 126.9 C 66.7 127.6 66.8 128.8 67.1 129.8 C 67.1 129.8 67.1 129.8 67.1 129.8 Z M 67.2 130.2 C 67.5 131.4 69.1 133.8 69.4 134.3 C 69.7 134.8 70.9 136.6 71.6 137.3 C 72.3 138.0 72.7 138.1 74.0 139.0 C 75.7 140.2 76.9 140.9 77.0 141.0 C 77.2 141.2 78.2 141.9 79.3 142.1 C 80.8 142.4 81.2 142.7 81.8 142.7 C 83.0 142.6 83.1 142.9 84.1 143.0 C 85.0 143.0 85.6 143.2 86.4 143.1 C 87.3 143.0 88.0 143.3 89.0 143.3 C 90.4 143.3 90.3 140.9 89.0 140.8 C 88.1 140.8 87.4 141.1 86.7 141.0 C 85.9 141.0 85.3 140.9 84.6 140.7 C 83.9 140.6 82.6 140.6 81.6 140.3 C 80.7 140.1 79.2 139.6 77.9 139.0 C 76.6 138.5 75.4 138.6 73.6 136.4 C 73.0 135.7 71.7 134.3 71.3 133.7 C 70.6 132.6 69.7 130.3 69.5 129.4 C 69.2 128.4 66.8 129.0 67.2 130.2 C 67.2 130.2 67.2 130.2 67.2 130.2 Z M 95.3 144.0 C 95.3 144.0 95.3 143.9 95.3 142.6 C 95.3 141.2 95.3 140.2 95.3 140.2 C 95.3 140.2 95.3 140.9 95.3 140.9 C 95.2 140.9 95.2 143.3 95.3 143.3 C 95.3 143.3 95.3 144.0 95.3 144.0 C 95.3 144.0 95.3 144.0 95.3 144.0 Z M 95.2 140.2 C 95.2 140.2 95.2 140.8 95.2 142.1 C 95.2 143.4 95.2 144.1 95.2 144.1 C 95.2 144.1 95.2 143.3 95.2 143.4 C 95.3 143.4 95.3 140.9 95.2 140.9 C 95.2 140.9 95.2 140.2 95.2 140.2 C 95.2 140.2 95.2 140.2 95.2 140.2 Z M 95.2 140.2 " fill="#FF7777"></path></g></g><g><clipPath id="clip-86"><path d="M 67.2 67.9 L 181.2 67.9 L 181.2 142.1 L 67.2 142.1 Z M 67.2 67.9 "></path></clipPath><g clip-path="url(#clip-86)"><text xml:space="preserve" font-family="AmericanTypewriter" font-size="20.0" fill="#000000" transform="matrix(1.00, 0.00, -0.00, -1.00, 107.0, 98.0)">V</text><text xml:space="preserve" font-family="AmericanTypewriter" font-size="20.0" fill="#000000" transform="matrix(1.00, 0.00, -0.00, -1.00, 121.6, 98.0)">M</text></g></g></g></svg>