<?xml version="1.0" encoding="UTF-8" standalone="no"?><svg xmlns="http://www.w3.org/2000/svg" xmlns:xlink="http://www.w3.org/1999/xlink" clip-rule="evenodd" stroke-miterlimit="4.00" viewBox="0 0 238 175"><desc>SVG generated by Keynote</desc><defs></defs><g transform="matrix(1.00, 0.00, -0.00, -1.00, 0.0, 175.0)"><g><clipPath id="clip-55"><path d="M 0.6 36.0 L 237.2 36.0 L 237.2 174.2 L 0.6 174.2 Z M 0.6 36.0 "></path></clipPath><g clip-path="url(#clip-55)"><path d="M 0.0 0.0 C 5.4 42.4 5.8 85.3 1.1 127.8 C 0.9 129.7 0.7 131.6 0.5 133.6 C 2.7 133.4 4.9 133.2 7.2 133.0 C 82.3 127.0 158.0 127.5 233.0 134.5 " fill="none" stroke="#FEFFFE" stroke-width="3.00" transform="matrix(1.00, 0.00, 0.00, -1.00, 3.1, 173.0)"></path></g></g><g><clipPath id="clip-56"><path d="M 12.6 53.7 L 237.5 49.4 L 236.5 -2.9 L 11.6 1.4 Z M 12.6 53.7 "></path></clipPath><g clip-path="url(#clip-56)"><text xml:space="preserve" font-family="AmericanTypewriter" font-size="30.0" fill="#FEFFFF" transform="matrix(1.00, -0.02, -0.02, -1.00, 21.1, 17.4)">C</text><text xml:space="preserve" font-family="AmericanTypewriter" font-size="30.0" fill="#FEFFFF" transform="matrix(1.00, -0.02, -0.02, -1.00, 40.2, 17.0)">o</text><text xml:space="preserve" font-family="AmericanTypewriter" font-size="30.0" fill="#FEFFFF" transform="matrix(1.00, -0.02, -0.02, -1.00, 56.6, 16.7)">m</text><text xml:space="preserve" font-family="AmericanTypewriter" font-size="30.0" fill="#FEFFFF" transform="matrix(1.00, -0.02, -0.02, -1.00, 83.6, 16.2)">p</text><text xml:space="preserve" font-family="AmericanTypewriter" font-size="30.0" fill="#FEFFFF" transform="matrix(1.00, -0.02, -0.02, -1.00, 101.6, 15.9)">u</text><text xml:space="preserve" font-family="AmericanTypewriter" font-size="30.0" fill="#FEFFFF" transform="matrix(1.00, -0.02, -0.02, -1.00, 120.2, 15.5)">t</text><text xml:space="preserve" font-family="AmericanTypewriter" font-size="30.0" fill="#FEFFFF" transform="matrix(1.00, -0.02, -0.02, -1.00, 132.2, 15.3)">e</text><text xml:space="preserve" font-family="AmericanTypewriter" font-size="30.0" fill="#FEFFFF" transform="matrix(1.00, -0.02, -0.02, -1.00, 148.0, 15.0)"> </text><text xml:space="preserve" font-family="AmericanTypewriter" font-size="30.0" fill="#FEFFFF" transform="matrix(1.00, -0.02, -0.02, -1.00, 155.5, 14.8)">N</text><text xml:space="preserve" font-family="AmericanTypewriter" font-size="30.0" fill="#FEFFFF" transform="matrix(1.00, -0.02, -0.02, -1.00, 177.5, 14.4)">o</text><text xml:space="preserve" font-family="AmericanTypewriter" font-size="30.0" fill="#FEFFFF" transform="matrix(1.00, -0.02, -0.02, -1.00, 193.8, 14.1)">d</text><text xml:space="preserve" font-family="AmericanTypewriter" font-size="30.0" fill="#FEFFFF" transform="matrix(1.00, -0.02, -0.02, -1.00, 211.8, 13.7)">e</text></g></g><g><clipPath id="clip-57"><path d="M 38.8 79.2 L 170.5 79.2 L 170.5 171.1 L 38.8 171.1 Z M 38.8 79.2 "></path></clipPath><g clip-path="url(#clip-57)"><image xlink:href="../../956FEF66-F126-4898-9939-EAE9E9BE3BA5/assets/6BE460064B40692868CC0984B1AA00D9.png" width="130.00" height="90.00" transform="matrix(1.00, 0.00, -0.00, -1.00, 39.8, 170.1)" opacity="0.50"></image><path d="M 75.7 162.3 L 133.7 162.3 C 141.7 162.3 145.8 162.3 150.1 160.9 C 154.8 159.2 158.6 155.5 160.3 150.7 C 161.7 146.4 161.7 142.3 161.7 134.1 L 161.7 116.1 C 161.7 108.0 161.7 104.0 160.3 99.6 C 158.6 94.9 154.8 91.2 150.1 89.4 C 145.8 88.1 141.7 88.1 133.5 88.1 L 75.7 88.1 C 67.7 88.1 63.6 88.1 59.2 89.4 C 54.5 91.2 50.8 94.9 49.0 99.6 C 47.7 104.0 47.7 108.0 47.7 116.2 L 47.7 134.3 C 47.7 142.3 47.7 146.4 49.0 150.7 C 50.8 155.5 54.5 159.2 59.2 160.9 C 63.6 162.3 67.7 162.3 75.8 162.3 Z M 75.7 162.3 " fill="#DDF3D0"></path><path d="M 76.4 160.4 C 75.5 160.4 74.2 160.5 74.1 161.9 C 73.9 163.2 74.9 164.2 76.3 164.2 C 77.6 164.2 77.2 163.5 80.4 163.5 C 81.6 163.5 81.7 161.1 80.5 161.1 C 77.6 161.1 78.0 160.4 76.4 160.4 C 76.4 160.4 76.4 160.4 76.4 160.4 Z M 74.7 164.2 C 75.1 164.2 75.5 164.2 75.8 164.2 L 75.8 160.4 C 74.8 160.6 74.3 161.2 74.3 162.3 C 74.3 163.4 74.8 164.0 75.8 164.2 L 75.8 160.4 C 75.5 160.4 75.1 160.3 74.7 160.3 C 72.6 160.3 72.6 161.1 69.9 161.0 C 68.4 161.0 68.6 163.5 69.8 163.5 C 72.7 163.5 72.4 164.2 74.7 164.2 C 74.7 164.2 74.7 164.2 74.7 164.2 Z M 80.6 161.1 C 79.4 161.1 79.4 163.5 80.7 163.5 C 82.2 163.5 85.3 163.1 86.2 163.1 C 87.0 163.2 89.3 163.6 90.0 163.6 C 90.7 163.6 94.2 162.9 95.7 163.1 C 97.2 163.3 97.7 163.2 98.7 163.2 C 99.7 163.2 101.4 163.1 102.4 163.0 C 103.3 163.0 104.2 163.6 105.5 163.4 C 106.8 163.3 107.5 163.5 108.4 163.5 C 109.8 163.5 109.7 161.1 108.4 161.1 C 107.1 161.1 106.2 160.9 105.1 161.0 C 104.1 161.0 103.1 161.3 102.1 161.0 C 101.1 160.8 99.1 161.0 97.8 161.2 C 96.6 161.4 95.2 161.3 94.2 161.2 C 92.3 161.0 87.6 161.4 86.9 161.2 C 86.2 161.0 84.1 161.2 83.3 161.2 C 82.6 161.2 82.1 161.1 80.6 161.1 C 80.6 161.1 80.6 161.1 80.6 161.1 Z M 137.2 163.5 C 138.8 163.5 139.0 161.1 137.1 161.1 C 135.3 161.1 131.9 161.3 131.1 161.2 C 130.3 161.2 126.8 161.0 126.1 161.0 C 125.4 161.0 122.8 161.4 121.3 161.2 C 119.8 161.0 118.3 161.4 117.3 161.3 C 116.0 161.2 115.3 161.3 114.4 161.3 C 113.4 161.4 111.9 160.9 111.0 161.1 C 110.2 161.3 109.7 161.1 108.6 161.1 C 107.4 161.1 107.4 163.5 108.5 163.5 C 109.6 163.5 110.5 163.5 111.6 163.4 C 112.7 163.4 114.0 163.3 115.2 163.3 C 116.3 163.3 117.9 163.6 119.1 163.5 C 120.4 163.3 122.2 163.2 122.9 163.2 C 123.8 163.2 125.7 163.3 126.5 163.1 C 127.6 163.0 129.4 163.2 130.1 163.4 C 130.8 163.6 131.2 163.3 132.7 163.4 C 133.6 163.4 135.5 163.5 137.2 163.5 C 137.2 163.5 137.2 163.5 137.2 163.5 Z M 137.7 163.5 C 139.5 163.5 142.0 163.1 142.6 163.1 C 143.2 163.0 145.0 163.1 145.8 162.9 C 146.7 162.7 146.9 162.5 148.2 162.2 C 149.8 161.8 151.0 161.5 151.2 161.5 C 151.5 161.5 152.5 161.3 153.7 160.5 C 155.3 159.4 155.8 159.2 156.4 158.6 C 157.3 157.4 157.6 157.5 158.2 156.6 C 158.9 155.7 159.4 155.2 159.7 154.4 C 160.1 153.5 160.7 153.0 161.1 152.1 C 161.6 150.8 159.3 150.1 158.8 151.2 C 158.5 151.8 158.5 152.5 158.1 153.2 C 157.7 153.8 157.3 154.3 156.7 154.8 C 156.2 155.3 155.3 156.6 154.3 157.3 C 153.3 158.0 151.6 158.9 150.3 159.5 C 149.0 160.1 148.7 160.8 146.2 160.8 C 145.4 160.8 143.8 161.1 143.0 161.1 C 141.7 161.2 138.9 161.1 137.5 161.1 C 135.8 161.1 135.8 163.5 137.7 163.5 C 137.7 163.5 137.7 163.5 137.7 163.5 Z M 162.9 123.9 C 162.9 122.6 160.5 122.4 160.5 123.9 C 160.5 125.4 160.7 128.3 160.6 129.1 C 160.6 129.9 160.4 133.4 160.4 134.1 C 160.4 134.8 160.8 138.5 160.6 140.2 C 160.3 141.8 160.7 143.2 160.5 144.1 C 160.3 145.3 160.3 145.8 160.3 146.6 C 160.2 147.4 159.5 148.4 159.5 149.1 C 159.6 149.7 159.3 149.9 158.9 150.9 C 158.5 151.9 160.7 153.0 161.1 151.9 C 161.6 150.8 161.7 150.1 161.9 149.2 C 162.1 148.3 162.2 147.2 162.3 146.2 C 162.4 145.2 162.9 143.8 162.8 142.5 C 162.7 141.3 162.6 139.2 162.6 138.4 C 162.6 137.3 162.6 134.5 162.5 133.6 C 162.3 132.6 162.6 130.7 162.8 130.1 C 163.0 129.4 162.7 128.9 162.8 127.5 C 162.8 126.6 162.9 125.2 162.9 123.9 C 162.9 123.9 162.9 123.9 162.9 123.9 Z M 162.9 123.5 C 162.9 122.0 162.6 119.6 162.6 119.0 C 162.6 118.4 162.8 116.5 162.7 115.2 C 162.7 113.8 162.5 113.4 162.4 111.5 C 162.3 109.1 162.5 107.9 162.5 107.8 C 162.6 107.5 162.8 106.5 162.6 105.3 C 162.4 103.7 162.5 103.2 162.3 102.6 C 161.8 101.5 162.0 101.3 161.7 100.5 C 161.5 99.6 161.4 99.0 160.9 98.2 C 160.4 97.3 160.3 96.6 159.8 95.8 C 159.1 94.6 157.1 96.2 157.7 97.2 C 158.1 97.8 158.6 98.2 159.0 98.9 C 159.3 99.6 159.4 100.1 159.5 100.8 C 159.5 101.4 160.0 102.6 160.1 103.6 C 160.2 104.6 160.2 106.4 160.3 107.9 C 160.4 109.3 161.0 110.0 160.7 114.1 C 160.5 115.4 160.6 117.6 160.6 118.4 C 160.6 119.8 160.5 122.5 160.5 123.7 C 160.5 125.1 162.9 125.0 162.9 123.5 C 162.9 123.5 162.9 123.5 162.9 123.5 Z M 133.8 86.8 C 132.9 86.8 132.7 87.4 132.7 88.1 C 132.7 88.7 132.7 89.3 133.8 89.3 C 136.1 89.3 139.4 89.1 140.3 89.1 C 141.1 89.2 144.3 89.6 144.9 89.6 C 145.5 89.7 147.6 89.7 148.6 90.1 C 149.7 90.6 151.1 90.8 151.9 91.3 C 152.9 92.0 153.5 92.3 154.2 92.8 C 155.0 93.3 155.6 94.6 156.3 95.1 C 156.9 95.5 157.0 96.0 157.6 96.9 C 158.2 97.8 160.3 96.6 159.7 95.7 C 159.1 94.7 158.4 93.9 157.6 93.1 C 156.8 92.3 155.7 91.4 154.7 90.7 C 153.8 90.0 152.4 88.9 151.1 88.6 C 149.8 88.2 148.5 88.0 147.9 87.9 C 147.1 87.8 145.5 87.5 144.7 87.5 C 143.8 87.6 142.0 87.2 141.4 87.0 C 140.7 86.8 140.2 87.0 138.5 87.0 C 137.5 86.9 135.7 86.8 133.8 86.8 C 133.8 86.8 133.8 86.8 133.8 86.8 Z M 133.6 89.3 C 135.3 89.3 134.8 86.8 133.4 86.8 C 131.9 86.8 128.8 87.3 128.0 87.2 C 127.1 87.2 124.8 86.7 124.1 86.7 C 123.4 86.7 119.9 87.4 118.4 87.2 C 116.9 87.0 116.5 87.1 115.4 87.1 C 114.4 87.1 112.8 87.3 111.8 87.3 C 110.8 87.4 109.9 86.7 108.6 86.9 C 107.3 87.1 106.6 86.8 105.8 86.8 C 104.3 86.8 104.4 89.3 105.7 89.3 C 107.0 89.3 107.9 89.4 109.0 89.4 C 110.1 89.3 111.0 89.1 112.0 89.3 C 113.1 89.6 115.1 89.3 116.3 89.2 C 117.5 89.0 118.9 89.1 119.9 89.2 C 121.9 89.4 126.6 88.9 127.2 89.1 C 127.9 89.3 130.1 89.1 130.8 89.1 C 131.6 89.1 131.3 89.3 133.6 89.3 C 133.6 89.3 133.6 89.3 133.6 89.3 Z M 105.4 86.8 C 103.9 86.8 101.5 87.2 100.9 87.2 C 100.3 87.2 98.3 87.0 97.3 87.0 C 96.4 87.1 96.1 87.3 94.5 87.3 C 92.5 87.4 91.2 87.1 91.1 87.1 C 90.8 87.0 89.8 86.8 88.5 86.9 C 86.7 87.0 86.2 86.7 85.4 86.8 C 84.0 87.1 83.9 86.9 82.8 86.9 C 81.8 87.0 81.1 86.8 80.3 87.0 C 79.4 87.1 78.7 86.8 77.9 86.8 C 76.5 86.8 76.7 89.3 77.9 89.3 C 78.7 89.3 79.4 89.0 80.1 89.0 C 80.9 89.0 81.6 89.1 82.4 89.2 C 83.2 89.3 84.9 89.1 86.1 89.2 C 87.4 89.2 89.6 89.4 91.1 89.3 C 92.6 89.3 93.5 88.7 96.6 89.1 C 97.5 89.2 99.5 89.1 100.3 89.1 C 101.7 89.1 104.4 89.3 105.6 89.3 C 106.9 89.3 106.9 86.8 105.4 86.8 C 105.4 86.8 105.4 86.8 105.4 86.8 Z M 50.9 93.9 C 50.1 94.9 51.9 96.5 52.8 95.4 C 53.7 94.3 55.6 92.5 56.3 92.1 C 56.9 91.7 59.8 90.5 60.4 90.4 C 60.9 90.2 62.8 89.5 64.0 89.5 C 65.3 89.6 66.6 89.1 67.6 89.2 C 68.8 89.2 69.6 89.1 70.7 89.0 C 71.8 89.0 73.8 89.4 74.9 89.2 C 76.1 89.0 76.5 89.3 77.6 89.3 C 78.8 89.3 78.8 86.8 77.7 86.8 C 76.6 86.8 75.6 86.9 74.1 86.9 C 72.6 87.0 71.0 87.0 69.7 87.1 C 68.5 87.1 66.9 86.8 65.7 87.1 C 64.6 87.3 63.0 87.6 62.4 87.7 C 61.7 87.9 60.1 88.2 59.4 88.5 C 58.6 88.9 56.7 89.6 56.0 89.7 C 55.2 89.9 54.9 90.4 53.7 91.3 C 53.0 91.9 51.8 92.8 50.9 93.9 C 50.9 93.9 50.9 93.9 50.9 93.9 Z M 50.7 94.2 C 49.7 95.5 48.8 97.9 48.5 98.5 C 48.3 99.1 47.6 100.7 47.5 101.5 C 47.4 102.3 47.5 102.6 47.4 103.9 C 47.2 105.6 46.9 106.9 46.9 107.0 C 46.8 107.3 46.5 108.2 46.5 109.6 C 46.6 111.6 46.4 112.3 46.5 113.4 C 46.7 115.2 46.5 115.7 46.5 116.7 C 46.6 117.7 46.5 118.4 46.6 119.2 C 46.8 120.1 46.4 120.8 46.5 121.7 C 46.5 123.0 48.9 122.9 48.9 121.6 C 48.9 120.9 48.6 120.2 48.6 119.4 C 48.6 118.6 48.7 117.9 48.8 117.1 C 48.9 116.3 48.7 114.0 48.8 112.4 C 48.9 110.8 49.1 108.5 49.1 107.1 C 49.1 105.7 48.5 104.8 49.4 102.5 C 49.6 101.8 49.8 100.5 50.1 99.8 C 50.6 98.5 52.0 96.4 52.7 95.6 C 53.5 94.6 51.7 92.9 50.7 94.2 C 50.7 94.2 50.7 94.2 50.7 94.2 Z M 47.6 150.0 C 47.9 151.1 50.2 150.5 49.9 149.4 C 49.6 148.3 49.1 146.1 49.0 145.4 C 49.0 144.7 49.0 141.5 49.0 140.7 C 48.9 139.9 48.6 136.9 48.8 134.8 C 49.0 132.6 48.6 131.7 48.7 130.6 C 48.8 129.3 48.7 128.7 48.6 127.7 C 48.6 126.7 49.1 125.2 48.9 124.4 C 48.7 123.5 48.9 123.1 48.9 121.9 C 48.9 120.7 46.5 120.7 46.5 121.8 C 46.5 122.9 46.5 123.9 46.6 125.0 C 46.6 126.0 46.6 127.4 46.6 128.5 C 46.6 129.6 46.3 131.2 46.5 132.4 C 46.7 133.7 46.7 136.0 46.7 136.9 C 46.8 138.1 46.7 140.4 46.9 141.2 C 47.1 142.4 46.9 144.1 46.8 144.8 C 46.6 145.4 46.9 145.8 47.1 147.1 C 47.2 147.8 47.3 149.0 47.6 150.0 C 47.6 150.0 47.6 150.0 47.6 150.0 Z M 47.7 150.4 C 48.0 151.6 49.6 154.0 49.9 154.5 C 50.2 155.0 51.4 156.8 52.1 157.5 C 52.8 158.2 53.2 158.3 54.5 159.2 C 56.2 160.4 57.4 161.1 57.5 161.2 C 57.7 161.4 58.7 162.1 59.8 162.3 C 61.3 162.6 61.7 162.9 62.4 162.9 C 63.6 162.8 63.6 163.1 64.6 163.2 C 65.5 163.2 66.1 163.3 66.9 163.3 C 67.9 163.1 68.5 163.5 69.5 163.5 C 70.9 163.5 70.8 161.1 69.5 161.0 C 68.6 161.0 67.9 161.3 67.2 161.2 C 66.4 161.2 65.8 161.1 65.1 160.9 C 64.5 160.8 63.1 160.8 62.2 160.5 C 61.2 160.3 59.7 159.7 58.4 159.2 C 57.1 158.7 55.9 158.8 54.1 156.6 C 53.5 155.8 52.2 154.5 51.8 153.9 C 51.1 152.8 50.2 150.5 50.0 149.6 C 49.7 148.6 47.3 149.1 47.7 150.4 C 47.7 150.4 47.7 150.4 47.7 150.4 Z M 75.8 164.2 C 75.8 164.2 75.8 164.1 75.8 162.7 C 75.8 161.4 75.8 160.4 75.8 160.4 C 75.8 160.4 75.8 161.1 75.8 161.1 C 75.7 161.1 75.7 163.5 75.8 163.5 C 75.8 163.5 75.8 164.2 75.8 164.2 C 75.8 164.2 75.8 164.2 75.8 164.2 Z M 75.7 160.4 C 75.7 160.4 75.7 161.0 75.7 162.3 C 75.7 163.6 75.7 164.3 75.7 164.3 C 75.7 164.3 75.7 163.5 75.8 163.5 C 75.8 163.6 75.8 161.1 75.8 161.1 C 75.7 161.1 75.7 160.4 75.7 160.4 C 75.7 160.4 75.7 160.4 75.7 160.4 Z M 75.7 160.4 " fill="#FF7777"></path></g></g><g><clipPath id="clip-58"><path d="M 47.7 88.1 L 161.7 88.1 L 161.7 162.3 L 47.7 162.3 Z M 47.7 88.1 "></path></clipPath><g clip-path="url(#clip-58)"><text xml:space="preserve" font-family="AmericanTypewriter" font-size="20.0" fill="#000000" transform="matrix(1.00, 0.00, -0.00, -1.00, 88.0, 118.0)">V</text><text xml:space="preserve" font-family="AmericanTypewriter" font-size="20.0" fill="#000000" transform="matrix(1.00, 0.00, -0.00, -1.00, 102.6, 118.0)">M</text></g></g><g><clipPath id="clip-59"><path d="M 48.7 69.0 L 180.4 69.0 L 180.4 160.9 L 48.7 160.9 Z M 48.7 69.0 "></path></clipPath><g clip-path="url(#clip-59)"><image xlink:href="../../956FEF66-F126-4898-9939-EAE9E9BE3BA5/assets/6BE460064B40692868CC0984B1AA00D9.png" width="130.00" height="90.00" transform="matrix(1.00, 0.00, -0.00, -1.00, 49.7, 159.9)" opacity="0.50"></image><path d="M 85.6 152.1 L 143.5 152.1 C 151.6 152.1 155.7 152.1 160.0 150.7 C 164.7 149.0 168.5 145.3 170.2 140.5 C 171.6 136.2 171.6 132.1 171.6 124.0 L 171.6 105.9 C 171.6 97.9 171.6 93.8 170.2 89.5 C 168.5 84.7 164.7 81.0 160.0 79.2 C 155.7 77.9 151.6 77.9 143.4 77.9 L 85.6 77.9 C 77.6 77.9 73.5 77.9 69.1 79.2 C 64.4 81.0 60.7 84.7 58.9 89.5 C 57.6 93.8 57.6 97.9 57.6 106.0 L 57.6 124.1 C 57.6 132.1 57.6 136.2 58.9 140.5 C 60.7 145.3 64.4 149.0 69.1 150.7 C 73.5 152.1 77.6 152.1 85.7 152.1 Z M 85.6 152.1 " fill="#DDF3D0"></path><path d="M 86.3 150.2 C 85.3 150.2 84.1 150.3 84.0 151.7 C 83.8 153.0 84.8 154.1 86.2 154.1 C 87.5 154.1 87.1 153.3 90.3 153.3 C 91.5 153.3 91.6 150.9 90.4 150.9 C 87.5 150.9 87.9 150.2 86.3 150.2 C 86.3 150.2 86.3 150.2 86.3 150.2 Z M 84.6 154.1 C 85.0 154.1 85.4 154.0 85.7 154.0 L 85.7 150.2 C 84.7 150.4 84.2 151.0 84.2 152.1 C 84.2 153.2 84.7 153.8 85.7 154.0 L 85.7 150.2 C 85.4 150.2 85.0 150.2 84.6 150.2 C 82.5 150.2 82.5 150.9 79.8 150.8 C 78.3 150.8 78.5 153.3 79.7 153.3 C 82.6 153.3 82.3 154.1 84.6 154.1 C 84.6 154.1 84.6 154.1 84.6 154.1 Z M 90.5 150.9 C 89.3 150.9 89.3 153.3 90.6 153.3 C 92.1 153.3 95.2 152.9 96.1 152.9 C 96.9 153.0 99.2 153.5 99.9 153.5 C 100.6 153.5 104.1 152.7 105.6 152.9 C 107.1 153.2 107.6 153.0 108.6 153.0 C 109.6 153.0 111.3 152.9 112.3 152.8 C 113.2 152.8 114.1 153.4 115.4 153.3 C 116.7 153.1 117.4 153.3 118.3 153.3 C 119.7 153.3 119.6 150.9 118.3 150.9 C 117.0 150.9 116.1 150.7 115.0 150.8 C 114.0 150.8 113.0 151.1 112.0 150.8 C 111.0 150.6 109.0 150.9 107.7 151.0 C 106.5 151.2 105.1 151.1 104.1 151.0 C 102.2 150.8 97.5 151.3 96.8 151.0 C 96.1 150.8 94.0 151.0 93.2 151.0 C 92.5 151.0 92.0 150.9 90.5 150.9 C 90.5 150.9 90.5 150.9 90.5 150.9 Z M 147.1 153.3 C 148.7 153.3 148.9 150.9 147.0 150.9 C 145.1 150.9 141.8 151.1 141.0 151.1 C 140.2 151.0 136.7 150.9 136.0 150.9 C 135.3 150.9 132.7 151.2 131.2 151.0 C 129.7 150.8 128.2 151.2 127.2 151.1 C 125.9 151.0 125.2 151.1 124.2 151.2 C 123.3 151.2 121.8 150.7 120.9 150.9 C 120.1 151.1 119.6 150.9 118.5 150.9 C 117.3 150.9 117.3 153.3 118.4 153.3 C 119.5 153.3 120.4 153.3 121.5 153.2 C 122.6 153.2 123.9 153.1 125.1 153.1 C 126.2 153.1 127.8 153.4 129.0 153.3 C 130.3 153.1 132.1 153.1 132.8 153.0 C 133.7 153.0 135.6 153.1 136.4 152.9 C 137.5 152.8 139.3 153.0 140.0 153.2 C 140.7 153.4 141.1 153.2 142.6 153.2 C 143.5 153.2 145.4 153.3 147.1 153.3 C 147.1 153.3 147.1 153.3 147.1 153.3 Z M 147.6 153.3 C 149.4 153.3 151.9 152.9 152.5 152.9 C 153.1 152.8 154.9 152.9 155.7 152.7 C 156.6 152.6 156.8 152.4 158.1 152.0 C 159.7 151.6 160.9 151.4 161.0 151.3 C 161.4 151.3 162.4 151.1 163.6 150.3 C 165.2 149.3 165.7 149.0 166.3 148.4 C 167.2 147.2 167.5 147.3 168.1 146.4 C 168.8 145.5 169.3 145.0 169.6 144.2 C 170.0 143.3 170.6 142.8 171.0 141.9 C 171.5 140.6 169.2 139.9 168.7 141.0 C 168.4 141.7 168.3 142.4 168.0 143.0 C 167.6 143.6 167.2 144.1 166.6 144.7 C 166.1 145.2 165.2 146.4 164.2 147.1 C 163.2 147.8 161.5 148.7 160.2 149.3 C 158.9 149.9 158.6 150.6 156.1 150.6 C 155.3 150.6 153.7 150.9 152.9 150.9 C 151.6 151.0 148.8 150.9 147.4 150.9 C 145.7 150.9 145.7 153.3 147.6 153.3 C 147.6 153.3 147.6 153.3 147.6 153.3 Z M 172.8 113.7 C 172.8 112.5 170.4 112.2 170.4 113.7 C 170.4 115.3 170.6 118.1 170.5 118.9 C 170.5 119.7 170.3 123.2 170.3 123.9 C 170.3 124.6 170.7 128.3 170.4 130.0 C 170.2 131.6 170.6 133.0 170.4 134.0 C 170.2 135.1 170.2 135.6 170.2 136.4 C 170.1 137.2 169.4 138.2 169.4 138.9 C 169.5 139.6 169.2 139.8 168.8 140.8 C 168.4 141.8 170.6 142.8 171.0 141.8 C 171.5 140.7 171.6 139.9 171.8 139.0 C 171.9 138.1 172.1 137.0 172.2 136.0 C 172.3 135.1 172.8 133.6 172.6 132.4 C 172.5 131.1 172.5 129.1 172.5 128.2 C 172.5 127.1 172.5 124.3 172.4 123.5 C 172.2 122.4 172.5 120.6 172.7 119.9 C 172.9 119.2 172.6 118.8 172.7 117.3 C 172.7 116.4 172.8 115.0 172.8 113.7 C 172.8 113.7 172.8 113.7 172.8 113.7 Z M 172.8 113.3 C 172.8 111.8 172.5 109.4 172.5 108.8 C 172.5 108.2 172.7 106.3 172.6 105.0 C 172.5 103.7 172.4 103.2 172.3 101.3 C 172.2 98.9 172.4 97.7 172.4 97.6 C 172.5 97.3 172.7 96.3 172.5 95.1 C 172.3 93.5 172.4 93.0 172.2 92.4 C 171.7 91.3 171.9 91.1 171.6 90.3 C 171.4 89.4 171.3 88.8 170.8 88.0 C 170.2 87.2 170.2 86.4 169.7 85.6 C 169.0 84.4 167.0 86.0 167.6 87.0 C 168.0 87.6 168.5 88.0 168.8 88.7 C 169.2 89.4 169.3 90.0 169.4 90.6 C 169.4 91.2 169.9 92.4 170.0 93.4 C 170.1 94.4 170.1 96.2 170.2 97.7 C 170.3 99.1 170.9 99.9 170.6 103.9 C 170.4 105.2 170.5 107.4 170.5 108.2 C 170.5 109.6 170.4 112.3 170.4 113.5 C 170.4 114.9 172.8 114.8 172.8 113.3 C 172.8 113.3 172.8 113.3 172.8 113.3 Z M 143.7 76.7 C 142.8 76.7 142.6 77.3 142.6 77.9 C 142.6 78.5 142.6 79.1 143.7 79.1 C 145.9 79.1 149.3 78.9 150.2 79.0 C 151.0 79.0 154.2 79.4 154.8 79.4 C 155.4 79.5 157.5 79.5 158.5 80.0 C 159.6 80.5 161.0 80.6 161.8 81.1 C 162.8 81.8 163.4 82.1 164.1 82.6 C 164.9 83.1 165.5 84.5 166.2 84.9 C 166.8 85.4 166.9 85.8 167.5 86.7 C 168.1 87.6 170.2 86.5 169.6 85.5 C 169.0 84.5 168.3 83.7 167.5 82.9 C 166.7 82.1 165.6 81.2 164.6 80.5 C 163.7 79.9 162.3 78.8 161.0 78.4 C 159.7 78.0 158.3 77.8 157.8 77.7 C 157.0 77.6 155.4 77.3 154.6 77.3 C 153.7 77.4 151.9 77.1 151.3 76.8 C 150.6 76.6 150.1 76.9 148.4 76.8 C 147.4 76.8 145.6 76.7 143.7 76.7 C 143.7 76.7 143.7 76.7 143.7 76.7 Z M 143.5 79.1 C 145.2 79.1 144.7 76.7 143.3 76.7 C 141.8 76.7 138.7 77.1 137.9 77.0 C 137.0 77.0 134.7 76.5 134.0 76.5 C 133.3 76.5 129.8 77.2 128.3 77.0 C 126.8 76.8 126.4 76.9 125.3 76.9 C 124.3 76.9 122.7 77.1 121.7 77.1 C 120.7 77.2 119.8 76.6 118.5 76.7 C 117.2 76.9 116.5 76.7 115.7 76.7 C 114.2 76.7 114.3 79.1 115.6 79.1 C 116.9 79.1 117.8 79.3 118.9 79.2 C 120.0 79.2 120.9 78.9 121.9 79.2 C 123.0 79.4 125.0 79.1 126.2 79.0 C 127.4 78.8 128.8 78.9 129.8 79.0 C 131.8 79.2 136.5 78.7 137.1 78.9 C 137.8 79.1 139.9 79.0 140.7 79.0 C 141.5 79.0 141.2 79.1 143.5 79.1 C 143.5 79.1 143.5 79.1 143.5 79.1 Z M 115.3 76.7 C 113.8 76.7 111.4 77.0 110.8 77.0 C 110.2 77.0 108.2 76.8 107.2 76.8 C 106.3 76.9 106.0 77.1 104.4 77.1 C 102.4 77.2 101.1 77.0 101.0 76.9 C 100.7 76.9 99.7 76.6 98.4 76.7 C 96.6 76.8 96.1 76.6 95.3 76.7 C 93.9 76.9 93.8 76.7 92.7 76.7 C 91.7 76.8 91.0 76.7 90.2 76.8 C 89.3 77.0 88.6 76.6 87.8 76.7 C 86.4 76.7 86.6 79.1 87.8 79.1 C 88.6 79.1 89.2 78.8 90.0 78.8 C 90.8 78.8 91.5 78.9 92.3 79.0 C 93.1 79.1 94.8 78.9 96.0 79.0 C 97.3 79.1 99.5 79.2 101.0 79.1 C 102.5 79.1 103.4 78.5 106.5 78.9 C 107.4 79.0 109.4 78.9 110.2 78.9 C 111.6 78.9 114.3 79.1 115.5 79.1 C 116.8 79.1 116.8 76.7 115.3 76.7 C 115.3 76.7 115.3 76.7 115.3 76.7 Z M 60.8 83.7 C 60.0 84.7 61.8 86.3 62.7 85.2 C 63.6 84.2 65.5 82.3 66.1 81.9 C 66.8 81.5 69.7 80.4 70.3 80.2 C 70.8 80.1 72.7 79.3 73.9 79.3 C 75.2 79.4 76.4 78.9 77.5 79.0 C 78.7 79.1 79.5 78.9 80.6 78.8 C 81.7 78.8 83.7 79.3 84.8 79.1 C 86.0 78.9 86.4 79.1 87.5 79.1 C 88.7 79.1 88.7 76.7 87.6 76.7 C 86.5 76.7 85.5 76.7 84.0 76.8 C 82.5 76.8 80.9 76.9 79.6 76.9 C 78.4 76.9 76.8 76.7 75.6 76.9 C 74.4 77.1 72.9 77.4 72.3 77.5 C 71.6 77.7 70.0 78.0 69.3 78.3 C 68.5 78.7 66.6 79.4 65.8 79.6 C 65.1 79.7 64.8 80.2 63.6 81.1 C 62.9 81.7 61.7 82.6 60.8 83.7 C 60.8 83.7 60.8 83.7 60.8 83.7 Z M 60.6 84.0 C 59.6 85.3 58.7 87.7 58.4 88.3 C 58.2 88.9 57.5 90.6 57.4 91.3 C 57.3 92.1 57.4 92.4 57.3 93.8 C 57.1 95.5 56.8 96.7 56.8 96.8 C 56.7 97.1 56.4 98.0 56.4 99.5 C 56.5 101.4 56.3 102.2 56.3 103.2 C 56.6 105.0 56.4 105.5 56.4 106.5 C 56.5 107.6 56.4 108.2 56.5 109.1 C 56.6 110.0 56.3 110.6 56.3 111.5 C 56.3 112.8 58.8 112.7 58.8 111.4 C 58.8 110.7 58.5 110.0 58.5 109.2 C 58.5 108.4 58.6 107.7 58.7 106.9 C 58.8 106.1 58.6 103.8 58.7 102.2 C 58.8 100.6 58.9 98.3 59.0 96.9 C 59.0 95.5 58.4 94.6 59.3 92.4 C 59.5 91.6 59.7 90.3 60.0 89.6 C 60.5 88.3 61.9 86.3 62.6 85.4 C 63.4 84.4 61.6 82.8 60.6 84.0 C 60.6 84.0 60.6 84.0 60.6 84.0 Z M 57.5 139.9 C 57.8 140.9 60.1 140.3 59.8 139.2 C 59.5 138.1 58.9 135.9 58.9 135.2 C 58.9 134.5 58.9 131.3 58.9 130.5 C 58.8 129.8 58.5 126.7 58.7 124.6 C 58.9 122.5 58.5 121.5 58.6 120.5 C 58.7 119.2 58.6 118.5 58.5 117.5 C 58.5 116.5 59.0 115.0 58.8 114.2 C 58.6 113.4 58.8 112.9 58.8 111.7 C 58.8 110.6 56.4 110.6 56.4 111.7 C 56.4 112.8 56.4 113.7 56.4 114.8 C 56.5 115.9 56.5 117.2 56.5 118.4 C 56.5 119.4 56.2 121.0 56.4 122.3 C 56.5 123.5 56.6 125.8 56.6 126.8 C 56.7 127.9 56.6 130.2 56.8 131.1 C 57.0 132.2 56.8 134.0 56.7 134.6 C 56.5 135.2 56.8 135.6 57.0 136.9 C 57.1 137.6 57.2 138.8 57.5 139.9 C 57.5 139.9 57.5 139.9 57.5 139.9 Z M 57.6 140.2 C 57.9 141.4 59.5 143.8 59.8 144.3 C 60.1 144.8 61.3 146.6 62.0 147.3 C 62.7 148.0 63.1 148.1 64.4 149.0 C 66.1 150.2 67.3 151.0 67.4 151.0 C 67.6 151.2 68.6 151.9 69.7 152.1 C 71.2 152.5 71.6 152.7 72.2 152.7 C 73.4 152.7 73.5 152.9 74.5 153.0 C 75.4 153.0 76.0 153.2 76.8 153.1 C 77.7 153.0 78.4 153.3 79.4 153.3 C 80.8 153.3 80.7 150.9 79.4 150.8 C 78.5 150.8 77.8 151.1 77.1 151.0 C 76.3 151.0 75.7 150.9 75.0 150.7 C 74.3 150.6 73.0 150.6 72.1 150.3 C 71.1 150.1 69.6 149.6 68.3 149.0 C 67.0 148.5 65.8 148.6 64.0 146.4 C 63.4 145.7 62.1 144.3 61.7 143.7 C 61.0 142.6 60.1 140.3 59.9 139.4 C 59.6 138.4 57.2 139.0 57.6 140.2 C 57.6 140.2 57.6 140.2 57.6 140.2 Z M 85.7 154.0 C 85.7 154.0 85.7 153.9 85.7 152.6 C 85.7 151.2 85.7 150.2 85.7 150.2 C 85.7 150.2 85.7 150.9 85.7 150.9 C 85.6 150.9 85.6 153.4 85.7 153.4 C 85.7 153.4 85.7 154.0 85.7 154.0 C 85.7 154.0 85.7 154.0 85.7 154.0 Z M 85.6 150.2 C 85.6 150.2 85.6 150.8 85.6 152.1 C 85.6 153.5 85.6 154.1 85.6 154.1 C 85.6 154.1 85.6 153.3 85.7 153.4 C 85.7 153.4 85.7 150.9 85.7 150.9 C 85.6 150.9 85.6 150.2 85.6 150.2 C 85.6 150.2 85.6 150.2 85.6 150.2 Z M 85.6 150.2 " fill="#FF7777"></path></g></g><g><clipPath id="clip-60"><path d="M 57.6 77.9 L 171.6 77.9 L 171.6 152.1 L 57.6 152.1 Z M 57.6 77.9 "></path></clipPath><g clip-path="url(#clip-60)"><text xml:space="preserve" font-family="AmericanTypewriter" font-size="20.0" fill="#000000" transform="matrix(1.00, 0.00, -0.00, -1.00, 98.0, 108.0)">V</text><text xml:space="preserve" font-family="AmericanTypewriter" font-size="20.0" fill="#000000" transform="matrix(1.00, 0.00, -0.00, -1.00, 112.6, 108.0)">M</text></g></g><g><clipPath id="clip-61"><path d="M 58.7 59.0 L 190.4 59.0 L 190.4 150.9 L 58.7 150.9 Z M 58.7 59.0 "></path></clipPath><g clip-path="url(#clip-61)"><image xlink:href="../../956FEF66-F126-4898-9939-EAE9E9BE3BA5/assets/6BE460064B40692868CC0984B1AA00D9.png" width="130.00" height="90.00" transform="matrix(1.00, 0.00, -0.00, -1.00, 59.7, 149.9)" opacity="0.50"></image><path d="M 95.6 142.1 L 153.5 142.1 C 161.6 142.1 165.7 142.1 170.0 140.7 C 174.7 139.0 178.5 135.3 180.2 130.5 C 181.6 126.2 181.6 122.1 181.6 114.0 L 181.6 95.9 C 181.6 87.9 181.6 83.8 180.2 79.5 C 178.5 74.7 174.7 71.0 170.0 69.2 C 165.7 67.9 161.6 67.9 153.4 67.9 L 95.6 67.9 C 87.6 67.9 83.5 67.9 79.1 69.2 C 74.4 71.0 70.7 74.7 68.9 79.5 C 67.6 83.8 67.6 87.9 67.6 96.0 L 67.6 114.1 C 67.6 122.1 67.6 126.2 68.9 130.5 C 70.7 135.3 74.4 139.0 79.1 140.7 C 83.5 142.1 87.6 142.1 95.7 142.1 Z M 95.6 142.1 " fill="#DDF3D0"></path><path d="M 96.3 140.2 C 95.3 140.2 94.1 140.3 94.0 141.7 C 93.8 143.0 94.8 144.1 96.2 144.1 C 97.5 144.1 97.1 143.3 100.3 143.3 C 101.5 143.3 101.6 140.9 100.4 140.9 C 97.5 140.9 97.9 140.2 96.3 140.2 C 96.3 140.2 96.3 140.2 96.3 140.2 Z M 94.6 144.1 C 95.0 144.1 95.4 144.0 95.7 144.0 L 95.7 140.2 C 94.7 140.4 94.2 141.0 94.2 142.1 C 94.2 143.2 94.7 143.8 95.7 144.0 L 95.7 140.2 C 95.4 140.2 95.0 140.2 94.6 140.2 C 92.5 140.2 92.5 140.9 89.8 140.8 C 88.3 140.8 88.5 143.3 89.7 143.3 C 92.6 143.3 92.3 144.1 94.6 144.1 C 94.6 144.1 94.6 144.1 94.6 144.1 Z M 100.5 140.9 C 99.3 140.9 99.3 143.3 100.6 143.3 C 102.1 143.3 105.2 142.9 106.1 142.9 C 106.9 143.0 109.2 143.5 109.9 143.5 C 110.6 143.5 114.1 142.7 115.6 142.9 C 117.1 143.2 117.6 143.0 118.6 143.0 C 119.6 143.0 121.3 142.9 122.3 142.8 C 123.2 142.8 124.1 143.4 125.4 143.3 C 126.7 143.1 127.4 143.3 128.3 143.3 C 129.7 143.3 129.6 140.9 128.3 140.9 C 127.0 140.9 126.1 140.7 125.0 140.8 C 124.0 140.8 123.0 141.1 122.0 140.8 C 121.0 140.6 119.0 140.9 117.7 141.0 C 116.5 141.2 115.1 141.1 114.1 141.0 C 112.2 140.8 107.5 141.3 106.8 141.0 C 106.1 140.8 104.0 141.0 103.2 141.0 C 102.5 141.0 102.0 140.9 100.5 140.9 C 100.5 140.9 100.5 140.9 100.5 140.9 Z M 157.1 143.3 C 158.7 143.3 158.9 140.9 157.0 140.9 C 155.1 140.9 151.8 141.1 151.0 141.1 C 150.2 141.0 146.7 140.9 146.0 140.9 C 145.3 140.9 142.7 141.2 141.2 141.0 C 139.7 140.8 138.2 141.2 137.2 141.1 C 135.9 141.0 135.2 141.1 134.2 141.2 C 133.3 141.2 131.8 140.7 130.9 140.9 C 130.1 141.1 129.6 140.9 128.5 140.9 C 127.3 140.9 127.3 143.3 128.4 143.3 C 129.5 143.3 130.4 143.3 131.5 143.2 C 132.6 143.2 133.9 143.1 135.1 143.1 C 136.2 143.1 137.8 143.4 139.0 143.3 C 140.3 143.1 142.1 143.1 142.8 143.0 C 143.7 143.0 145.6 143.1 146.4 142.9 C 147.5 142.8 149.3 143.0 150.0 143.2 C 150.7 143.4 151.1 143.2 152.6 143.2 C 153.5 143.2 155.4 143.3 157.1 143.3 C 157.1 143.3 157.1 143.3 157.1 143.3 Z M 157.6 143.3 C 159.4 143.3 161.9 142.9 162.5 142.9 C 163.1 142.8 164.9 142.9 165.7 142.7 C 166.6 142.6 166.8 142.4 168.1 142.0 C 169.7 141.6 170.9 141.4 171.0 141.3 C 171.4 141.3 172.4 141.1 173.6 140.3 C 175.2 139.3 175.7 139.0 176.3 138.4 C 177.2 137.2 177.5 137.3 178.1 136.4 C 178.8 135.5 179.3 135.0 179.6 134.2 C 180.0 133.3 180.6 132.8 181.0 131.9 C 181.5 130.6 179.2 129.9 178.7 131.0 C 178.4 131.7 178.3 132.4 178.0 133.0 C 177.6 133.6 177.2 134.1 176.6 134.7 C 176.1 135.2 175.2 136.4 174.2 137.1 C 173.2 137.8 171.5 138.7 170.2 139.3 C 168.9 139.9 168.6 140.6 166.1 140.6 C 165.3 140.6 163.7 140.9 162.9 140.9 C 161.6 141.0 158.8 140.9 157.4 140.9 C 155.7 140.9 155.7 143.3 157.6 143.3 C 157.6 143.3 157.6 143.3 157.6 143.3 Z M 182.8 103.7 C 182.8 102.5 180.4 102.2 180.4 103.7 C 180.4 105.3 180.6 108.1 180.5 108.9 C 180.5 109.7 180.3 113.2 180.3 113.9 C 180.3 114.6 180.7 118.3 180.4 120.0 C 180.2 121.6 180.6 123.0 180.4 124.0 C 180.2 125.1 180.2 125.6 180.2 126.4 C 180.1 127.2 179.4 128.2 179.4 128.9 C 179.5 129.6 179.2 129.8 178.8 130.8 C 178.4 131.8 180.6 132.8 181.0 131.8 C 181.5 130.7 181.6 129.9 181.8 129.0 C 181.9 128.1 182.1 127.0 182.2 126.0 C 182.3 125.1 182.8 123.6 182.6 122.4 C 182.5 121.1 182.5 119.1 182.5 118.2 C 182.5 117.1 182.5 114.3 182.4 113.5 C 182.2 112.4 182.5 110.6 182.7 109.9 C 182.9 109.2 182.6 108.8 182.7 107.3 C 182.7 106.4 182.8 105.0 182.8 103.7 C 182.8 103.7 182.8 103.7 182.8 103.7 Z M 182.8 103.3 C 182.8 101.8 182.5 99.4 182.5 98.8 C 182.5 98.2 182.7 96.3 182.6 95.0 C 182.5 93.7 182.4 93.2 182.3 91.3 C 182.2 88.9 182.4 87.7 182.4 87.6 C 182.5 87.3 182.7 86.3 182.5 85.1 C 182.3 83.5 182.4 83.0 182.2 82.4 C 181.7 81.3 181.9 81.1 181.6 80.3 C 181.4 79.4 181.3 78.8 180.8 78.0 C 180.2 77.2 180.2 76.4 179.7 75.6 C 179.0 74.4 177.0 76.0 177.6 77.0 C 178.0 77.6 178.5 78.0 178.8 78.7 C 179.2 79.4 179.3 80.0 179.4 80.6 C 179.4 81.2 179.9 82.4 180.0 83.4 C 180.1 84.4 180.1 86.2 180.2 87.7 C 180.3 89.1 180.9 89.9 180.6 93.9 C 180.4 95.2 180.5 97.4 180.5 98.2 C 180.5 99.6 180.4 102.3 180.4 103.5 C 180.4 104.9 182.8 104.8 182.8 103.3 C 182.8 103.3 182.8 103.3 182.8 103.3 Z M 153.7 66.7 C 152.8 66.7 152.6 67.3 152.6 67.9 C 152.6 68.5 152.6 69.1 153.7 69.1 C 155.9 69.1 159.3 68.9 160.2 69.0 C 161.0 69.0 164.2 69.4 164.8 69.4 C 165.4 69.5 167.5 69.5 168.5 70.0 C 169.6 70.5 171.0 70.6 171.8 71.1 C 172.8 71.8 173.4 72.1 174.1 72.6 C 174.9 73.1 175.5 74.5 176.2 74.9 C 176.8 75.4 176.9 75.8 177.5 76.7 C 178.1 77.6 180.2 76.5 179.6 75.5 C 179.0 74.5 178.3 73.7 177.5 72.9 C 176.7 72.1 175.6 71.2 174.6 70.5 C 173.7 69.9 172.3 68.8 171.0 68.4 C 169.7 68.0 168.3 67.8 167.8 67.7 C 167.0 67.6 165.4 67.3 164.6 67.3 C 163.7 67.4 161.9 67.1 161.3 66.8 C 160.6 66.6 160.1 66.9 158.4 66.8 C 157.4 66.8 155.6 66.7 153.7 66.7 C 153.7 66.7 153.7 66.7 153.7 66.7 Z M 153.5 69.1 C 155.2 69.1 154.7 66.7 153.3 66.7 C 151.8 66.7 148.7 67.1 147.9 67.0 C 147.0 67.0 144.7 66.5 144.0 66.5 C 143.3 66.5 139.8 67.2 138.3 67.0 C 136.8 66.8 136.4 66.9 135.3 66.9 C 134.3 66.9 132.7 67.1 131.7 67.1 C 130.7 67.2 129.8 66.6 128.5 66.7 C 127.2 66.9 126.5 66.7 125.7 66.7 C 124.2 66.7 124.3 69.1 125.6 69.1 C 126.9 69.1 127.8 69.3 128.9 69.2 C 130.0 69.2 130.9 68.9 131.9 69.2 C 133.0 69.4 135.0 69.1 136.2 69.0 C 137.4 68.8 138.8 68.9 139.8 69.0 C 141.8 69.2 146.5 68.7 147.1 68.9 C 147.8 69.1 149.9 69.0 150.7 69.0 C 151.5 69.0 151.2 69.1 153.5 69.1 C 153.5 69.1 153.5 69.1 153.5 69.1 Z M 125.3 66.7 C 123.8 66.7 121.4 67.0 120.8 67.0 C 120.2 67.0 118.2 66.8 117.2 66.8 C 116.3 66.9 116.0 67.1 114.4 67.1 C 112.4 67.2 111.1 67.0 111.0 66.9 C 110.7 66.9 109.7 66.6 108.4 66.7 C 106.6 66.8 106.1 66.6 105.3 66.7 C 103.9 66.9 103.8 66.7 102.7 66.7 C 101.7 66.8 101.0 66.7 100.2 66.8 C 99.3 67.0 98.6 66.6 97.8 66.7 C 96.4 66.7 96.6 69.1 97.8 69.1 C 98.6 69.1 99.2 68.8 100.0 68.8 C 100.8 68.8 101.5 68.9 102.3 69.0 C 103.1 69.1 104.8 68.9 106.0 69.0 C 107.3 69.1 109.5 69.2 111.0 69.1 C 112.5 69.1 113.4 68.5 116.5 68.9 C 117.4 69.0 119.4 68.9 120.2 68.9 C 121.6 68.9 124.3 69.1 125.5 69.1 C 126.8 69.1 126.8 66.7 125.3 66.7 C 125.3 66.7 125.3 66.7 125.3 66.7 Z M 70.8 73.7 C 70.0 74.7 71.8 76.3 72.7 75.2 C 73.6 74.2 75.5 72.3 76.1 71.9 C 76.8 71.5 79.7 70.4 80.3 70.2 C 80.8 70.1 82.7 69.3 83.9 69.3 C 85.2 69.4 86.4 68.9 87.5 69.0 C 88.7 69.1 89.5 68.9 90.6 68.8 C 91.7 68.8 93.7 69.3 94.8 69.1 C 96.0 68.9 96.4 69.1 97.5 69.1 C 98.7 69.1 98.7 66.7 97.6 66.7 C 96.5 66.7 95.5 66.7 94.0 66.8 C 92.5 66.8 90.9 66.9 89.6 66.9 C 88.4 66.9 86.8 66.7 85.6 66.9 C 84.4 67.1 82.9 67.4 82.3 67.5 C 81.6 67.7 80.0 68.0 79.3 68.3 C 78.5 68.7 76.6 69.4 75.8 69.6 C 75.1 69.7 74.8 70.2 73.6 71.1 C 72.9 71.7 71.7 72.6 70.8 73.7 C 70.8 73.7 70.8 73.7 70.8 73.7 Z M 70.6 74.0 C 69.6 75.3 68.7 77.7 68.4 78.3 C 68.2 78.9 67.5 80.6 67.4 81.3 C 67.3 82.1 67.4 82.4 67.3 83.8 C 67.1 85.5 66.8 86.7 66.8 86.8 C 66.7 87.1 66.4 88.0 66.4 89.5 C 66.5 91.4 66.3 92.2 66.3 93.2 C 66.6 95.0 66.4 95.5 66.4 96.5 C 66.5 97.6 66.4 98.2 66.5 99.1 C 66.6 100.0 66.3 100.6 66.3 101.5 C 66.3 102.8 68.8 102.7 68.8 101.4 C 68.8 100.7 68.5 100.0 68.5 99.2 C 68.5 98.4 68.6 97.7 68.7 96.9 C 68.8 96.1 68.6 93.8 68.7 92.2 C 68.8 90.6 68.9 88.3 69.0 86.9 C 69.0 85.5 68.4 84.6 69.3 82.4 C 69.5 81.6 69.7 80.3 70.0 79.6 C 70.5 78.3 71.9 76.3 72.6 75.4 C 73.4 74.4 71.6 72.8 70.6 74.0 C 70.6 74.0 70.6 74.0 70.6 74.0 Z M 67.5 129.9 C 67.8 130.9 70.1 130.3 69.8 129.2 C 69.5 128.1 68.9 125.9 68.9 125.2 C 68.9 124.5 68.9 121.3 68.9 120.5 C 68.8 119.8 68.5 116.7 68.7 114.6 C 68.9 112.5 68.5 111.5 68.6 110.5 C 68.7 109.2 68.6 108.5 68.5 107.5 C 68.5 106.5 69.0 105.0 68.8 104.2 C 68.6 103.4 68.8 102.9 68.8 101.7 C 68.8 100.6 66.4 100.6 66.4 101.7 C 66.4 102.8 66.4 103.7 66.4 104.8 C 66.5 105.9 66.5 107.2 66.5 108.4 C 66.5 109.4 66.2 111.0 66.4 112.3 C 66.5 113.5 66.6 115.8 66.6 116.8 C 66.7 117.9 66.6 120.2 66.8 121.1 C 67.0 122.2 66.8 124.0 66.7 124.6 C 66.5 125.2 66.8 125.6 67.0 126.9 C 67.1 127.6 67.2 128.8 67.5 129.9 C 67.5 129.9 67.5 129.9 67.5 129.9 Z M 67.6 130.2 C 67.9 131.4 69.5 133.8 69.8 134.3 C 70.1 134.8 71.3 136.6 72.0 137.3 C 72.7 138.0 73.1 138.1 74.4 139.0 C 76.1 140.2 77.3 141.0 77.4 141.0 C 77.6 141.2 78.6 141.9 79.7 142.1 C 81.2 142.5 81.6 142.7 82.2 142.7 C 83.4 142.7 83.5 142.9 84.5 143.0 C 85.4 143.0 86.0 143.2 86.8 143.1 C 87.7 143.0 88.4 143.3 89.4 143.3 C 90.8 143.3 90.7 140.9 89.4 140.8 C 88.5 140.8 87.8 141.1 87.1 141.0 C 86.3 141.0 85.7 140.9 85.0 140.7 C 84.3 140.6 83.0 140.6 82.1 140.3 C 81.1 140.1 79.6 139.6 78.3 139.0 C 77.0 138.5 75.8 138.6 74.0 136.4 C 73.4 135.7 72.1 134.3 71.7 133.7 C 71.0 132.6 70.1 130.3 69.9 129.4 C 69.6 128.4 67.2 129.0 67.6 130.2 C 67.6 130.2 67.6 130.2 67.6 130.2 Z M 95.7 144.0 C 95.7 144.0 95.7 143.9 95.7 142.6 C 95.7 141.2 95.7 140.2 95.7 140.2 C 95.7 140.2 95.7 140.9 95.7 140.9 C 95.6 140.9 95.6 143.4 95.7 143.4 C 95.7 143.4 95.7 144.0 95.7 144.0 C 95.7 144.0 95.7 144.0 95.7 144.0 Z M 95.6 140.2 C 95.6 140.2 95.6 140.8 95.6 142.1 C 95.6 143.5 95.6 144.1 95.6 144.1 C 95.6 144.1 95.6 143.3 95.7 143.4 C 95.7 143.4 95.7 140.9 95.7 140.9 C 95.6 140.9 95.6 140.2 95.6 140.2 C 95.6 140.2 95.6 140.2 95.6 140.2 Z M 95.6 140.2 " fill="#FF7777"></path></g></g><g><clipPath id="clip-62"><path d="M 67.6 67.9 L 181.6 67.9 L 181.6 142.1 L 67.6 142.1 Z M 67.6 67.9 "></path></clipPath><g clip-path="url(#clip-62)"><text xml:space="preserve" font-family="AmericanTypewriter" font-size="20.0" fill="#000000" transform="matrix(1.00, 0.00, -0.00, -1.00, 108.0, 98.0)">V</text><text xml:space="preserve" font-family="AmericanTypewriter" font-size="20.0" fill="#000000" transform="matrix(1.00, 0.00, -0.00, -1.00, 122.6, 98.0)">M</text></g></g></g></svg>