<?xml version="1.0" encoding="UTF-8" standalone="no"?><svg xmlns="http://www.w3.org/2000/svg" xmlns:xlink="http://www.w3.org/1999/xlink" clip-rule="evenodd" stroke-miterlimit="4.00" viewBox="0 0 124 82"><desc>SVG generated by Keynote</desc><defs></defs><g transform="matrix(1.00, 0.00, -0.00, -1.00, 0.0, 82.0)"><path d="M 32.6 78.1 L 90.6 78.1 C 98.6 78.1 102.7 78.1 107.0 76.7 C 111.7 75.0 115.5 71.3 117.2 66.5 C 118.6 62.2 118.6 58.1 118.6 50.0 L 118.6 31.9 C 118.6 23.9 118.6 19.8 117.2 15.4 C 115.5 10.7 111.7 7.0 107.0 5.2 C 102.7 3.9 98.6 3.9 90.4 3.9 L 32.6 3.9 C 24.6 3.9 20.5 3.9 16.1 5.2 C 11.4 7.0 7.7 10.7 5.9 15.4 C 4.6 19.8 4.6 23.9 4.6 32.0 L 4.6 50.1 C 4.6 58.1 4.6 62.2 5.9 66.5 C 7.7 71.3 11.4 75.0 16.1 76.7 C 20.5 78.1 24.6 78.1 32.7 78.1 Z M 32.6 78.1 " fill="#DDF3D0"></path><path d="M 33.3 76.2 C 32.4 76.2 31.1 76.3 31.0 77.7 C 30.8 79.0 31.8 80.1 33.2 80.1 C 34.5 80.1 34.1 79.3 37.3 79.3 C 38.5 79.3 38.6 76.9 37.4 76.9 C 34.5 76.9 34.9 76.2 33.3 76.2 C 33.3 76.2 33.3 76.2 33.3 76.2 Z M 31.6 80.1 C 32.0 80.1 32.4 80.0 32.7 80.0 L 32.7 76.2 C 31.7 76.4 31.2 77.0 31.2 78.1 C 31.2 79.2 31.7 79.8 32.7 80.0 L 32.7 76.2 C 32.4 76.2 32.0 76.2 31.6 76.2 C 29.5 76.2 29.5 76.9 26.8 76.8 C 25.3 76.8 25.5 79.3 26.7 79.3 C 29.6 79.3 29.3 80.1 31.6 80.1 C 31.6 80.1 31.6 80.1 31.6 80.1 Z M 37.5 76.9 C 36.3 76.9 36.3 79.3 37.6 79.3 C 39.1 79.3 42.2 78.9 43.1 78.9 C 43.9 79.0 46.2 79.5 46.9 79.5 C 47.6 79.5 51.1 78.7 52.6 78.9 C 54.1 79.1 54.6 79.0 55.6 79.0 C 56.6 79.0 58.3 78.9 59.3 78.8 C 60.2 78.8 61.1 79.4 62.4 79.3 C 63.7 79.1 64.4 79.3 65.3 79.3 C 66.7 79.3 66.6 76.9 65.3 76.9 C 64.0 76.9 63.1 76.7 62.0 76.8 C 61.0 76.8 60.0 77.1 59.0 76.8 C 58.0 76.6 56.0 76.9 54.7 77.0 C 53.5 77.2 52.1 77.1 51.1 77.0 C 49.2 76.8 44.5 77.2 43.8 77.0 C 43.1 76.8 41.0 77.0 40.2 77.0 C 39.5 77.0 39.0 76.9 37.5 76.9 C 37.5 76.9 37.5 76.9 37.5 76.9 Z M 94.1 79.3 C 95.7 79.3 95.9 76.9 94.0 76.9 C 92.2 76.9 88.8 77.1 88.0 77.1 C 87.2 77.0 83.7 76.9 83.0 76.9 C 82.3 76.9 79.7 77.2 78.2 77.0 C 76.7 76.8 75.2 77.2 74.2 77.1 C 72.9 77.0 72.2 77.1 71.3 77.2 C 70.3 77.2 68.8 76.7 67.9 76.9 C 67.1 77.1 66.6 76.9 65.5 76.9 C 64.3 76.9 64.3 79.3 65.4 79.3 C 66.5 79.3 67.4 79.3 68.5 79.2 C 69.6 79.2 70.9 79.1 72.1 79.1 C 73.2 79.1 74.8 79.4 76.0 79.3 C 77.3 79.1 79.1 79.1 79.8 79.0 C 80.7 79.0 82.6 79.1 83.4 78.9 C 84.5 78.8 86.3 79.0 87.0 79.2 C 87.7 79.4 88.1 79.1 89.6 79.2 C 90.5 79.2 92.4 79.3 94.1 79.3 C 94.1 79.3 94.1 79.3 94.1 79.3 Z M 94.6 79.3 C 96.4 79.3 98.9 78.9 99.5 78.9 C 100.1 78.8 101.9 78.9 102.7 78.7 C 103.6 78.6 103.8 78.3 105.1 78.0 C 106.7 77.6 107.9 77.3 108.1 77.3 C 108.4 77.3 109.4 77.1 110.6 76.3 C 112.2 75.2 112.7 75.0 113.3 74.4 C 114.2 73.2 114.5 73.3 115.1 72.4 C 115.8 71.5 116.3 71.0 116.6 70.2 C 117.0 69.3 117.6 68.8 118.0 67.9 C 118.5 66.6 116.2 65.9 115.7 67.0 C 115.4 67.7 115.4 68.3 115.0 69.0 C 114.6 69.6 114.2 70.1 113.6 70.6 C 113.1 71.2 112.2 72.4 111.2 73.1 C 110.2 73.8 108.5 74.7 107.2 75.3 C 105.9 75.9 105.6 76.6 103.1 76.6 C 102.3 76.6 100.7 76.9 99.9 76.9 C 98.6 77.0 95.8 76.9 94.4 76.9 C 92.7 76.9 92.7 79.3 94.6 79.3 C 94.6 79.3 94.6 79.3 94.6 79.3 Z M 119.8 39.7 C 119.8 38.4 117.4 38.2 117.4 39.7 C 117.4 41.3 117.6 44.1 117.5 44.9 C 117.5 45.7 117.3 49.2 117.3 49.9 C 117.3 50.6 117.7 54.3 117.5 56.0 C 117.2 57.6 117.6 59.0 117.4 59.9 C 117.2 61.1 117.2 61.6 117.2 62.4 C 117.1 63.2 116.4 64.2 116.4 64.9 C 116.5 65.6 116.2 65.8 115.8 66.8 C 115.4 67.8 117.6 68.8 118.0 67.8 C 118.5 66.7 118.6 65.9 118.8 65.0 C 119.0 64.1 119.1 63.0 119.2 62.0 C 119.3 61.0 119.8 59.6 119.7 58.3 C 119.6 57.1 119.5 55.1 119.5 54.2 C 119.5 53.1 119.5 50.3 119.4 49.4 C 119.2 48.4 119.5 46.6 119.7 45.9 C 119.9 45.2 119.6 44.7 119.7 43.3 C 119.7 42.4 119.8 41.0 119.8 39.7 C 119.8 39.7 119.8 39.7 119.8 39.7 Z M 119.8 39.3 C 119.8 37.8 119.5 35.4 119.5 34.8 C 119.5 34.2 119.7 32.3 119.6 31.0 C 119.6 29.7 119.4 29.2 119.3 27.3 C 119.2 24.9 119.4 23.7 119.4 23.6 C 119.5 23.3 119.7 22.3 119.5 21.1 C 119.3 19.5 119.4 19.0 119.2 18.4 C 118.7 17.3 118.9 17.1 118.6 16.3 C 118.4 15.4 118.3 14.8 117.8 14.0 C 117.3 13.2 117.2 12.4 116.7 11.6 C 116.0 10.4 114.0 12.0 114.6 13.0 C 115.0 13.6 115.5 14.0 115.9 14.7 C 116.2 15.4 116.3 16.0 116.4 16.6 C 116.4 17.2 116.9 18.4 117.0 19.4 C 117.1 20.4 117.1 22.2 117.2 23.7 C 117.3 25.1 117.9 25.8 117.6 29.9 C 117.4 31.2 117.5 33.4 117.5 34.2 C 117.5 35.6 117.4 38.3 117.4 39.5 C 117.4 40.9 119.8 40.8 119.8 39.3 C 119.8 39.3 119.8 39.3 119.8 39.3 Z M 90.7 2.6 C 89.8 2.6 89.6 3.3 89.6 3.9 C 89.6 4.5 89.6 5.1 90.7 5.1 C 93.0 5.1 96.3 4.9 97.2 5.0 C 98.0 5.0 101.2 5.4 101.8 5.4 C 102.4 5.5 104.5 5.5 105.5 6.0 C 106.6 6.4 108.0 6.6 108.8 7.1 C 109.8 7.8 110.4 8.1 111.1 8.6 C 111.9 9.1 112.5 10.5 113.2 10.9 C 113.8 11.3 113.9 11.8 114.5 12.7 C 115.1 13.6 117.2 12.5 116.6 11.5 C 116.0 10.5 115.3 9.7 114.5 8.9 C 113.7 8.1 112.6 7.2 111.6 6.5 C 110.7 5.9 109.3 4.7 108.0 4.4 C 106.7 4.0 105.4 3.8 104.8 3.7 C 104.0 3.6 102.4 3.3 101.6 3.3 C 100.7 3.4 98.9 3.1 98.3 2.8 C 97.6 2.6 97.1 2.9 95.4 2.8 C 94.4 2.8 92.6 2.6 90.7 2.6 C 90.7 2.6 90.7 2.6 90.7 2.6 Z M 90.5 5.1 C 92.2 5.1 91.7 2.6 90.3 2.6 C 88.8 2.6 85.7 3.1 84.9 3.0 C 84.0 3.0 81.7 2.5 81.0 2.5 C 80.3 2.5 76.8 3.2 75.3 3.0 C 73.8 2.8 73.4 2.9 72.3 2.9 C 71.3 2.9 69.7 3.1 68.7 3.1 C 67.7 3.2 66.8 2.5 65.5 2.7 C 64.2 2.9 63.5 2.6 62.7 2.6 C 61.2 2.6 61.3 5.1 62.6 5.1 C 63.9 5.1 64.8 5.2 65.9 5.2 C 67.0 5.1 67.9 4.9 68.9 5.1 C 70.0 5.4 72.0 5.1 73.2 5.0 C 74.4 4.8 75.8 4.9 76.8 5.0 C 78.8 5.2 83.5 4.7 84.1 4.9 C 84.8 5.1 87.0 4.9 87.7 4.9 C 88.5 4.9 88.2 5.1 90.5 5.1 C 90.5 5.1 90.5 5.1 90.5 5.1 Z M 62.3 2.6 C 60.8 2.6 58.4 3.0 57.8 3.0 C 57.2 3.0 55.2 2.8 54.2 2.8 C 53.3 2.9 53.0 3.1 51.4 3.1 C 49.4 3.2 48.1 3.0 48.0 2.9 C 47.7 2.8 46.7 2.6 45.4 2.7 C 43.6 2.8 43.1 2.5 42.3 2.6 C 40.9 2.9 40.8 2.7 39.7 2.7 C 38.7 2.8 38.0 2.7 37.2 2.8 C 36.3 2.9 35.6 2.6 34.8 2.6 C 33.4 2.6 33.6 5.1 34.8 5.1 C 35.6 5.1 36.3 4.8 37.0 4.8 C 37.8 4.8 38.5 4.9 39.3 5.0 C 40.1 5.1 41.8 4.9 43.0 5.0 C 44.3 5.0 46.5 5.2 48.0 5.1 C 49.5 5.1 50.4 4.5 53.5 4.9 C 54.4 5.0 56.4 4.9 57.2 4.9 C 58.6 4.9 61.3 5.1 62.5 5.1 C 63.8 5.1 63.8 2.6 62.3 2.6 C 62.3 2.6 62.3 2.6 62.3 2.6 Z M 7.8 9.7 C 7.0 10.7 8.8 12.3 9.7 11.2 C 10.6 10.1 12.5 8.3 13.2 7.9 C 13.8 7.5 16.7 6.4 17.3 6.2 C 17.8 6.1 19.7 5.3 20.9 5.3 C 22.2 5.4 23.5 4.9 24.5 5.0 C 25.7 5.1 26.5 4.9 27.6 4.8 C 28.7 4.8 30.7 5.3 31.8 5.1 C 33.0 4.9 33.4 5.1 34.5 5.1 C 35.7 5.1 35.7 2.7 34.6 2.7 C 33.5 2.7 32.5 2.7 31.0 2.7 C 29.5 2.8 27.9 2.8 26.6 2.9 C 25.4 2.9 23.8 2.6 22.6 2.9 C 21.5 3.1 19.9 3.4 19.3 3.5 C 18.6 3.7 17.0 4.0 16.3 4.3 C 15.5 4.7 13.6 5.4 12.9 5.6 C 12.1 5.7 11.8 6.2 10.6 7.1 C 9.9 7.7 8.7 8.6 7.8 9.7 C 7.8 9.7 7.8 9.7 7.8 9.7 Z M 7.6 10.0 C 6.6 11.3 5.7 13.7 5.4 14.3 C 5.2 14.9 4.5 16.5 4.4 17.3 C 4.3 18.1 4.4 18.4 4.3 19.8 C 4.1 21.5 3.8 22.7 3.8 22.8 C 3.7 23.1 3.4 24.0 3.4 25.5 C 3.5 27.4 3.3 28.1 3.4 29.2 C 3.6 31.0 3.4 31.5 3.4 32.5 C 3.5 33.6 3.4 34.2 3.5 35.0 C 3.7 36.0 3.3 36.6 3.4 37.5 C 3.4 38.8 5.8 38.7 5.8 37.4 C 5.8 36.7 5.5 36.0 5.5 35.2 C 5.5 34.4 5.6 33.7 5.7 32.9 C 5.8 32.1 5.6 29.8 5.7 28.2 C 5.8 26.6 6.0 24.3 6.0 22.9 C 6.0 21.5 5.4 20.6 6.3 18.4 C 6.5 17.6 6.7 16.3 7.0 15.6 C 7.5 14.3 8.9 12.2 9.6 11.4 C 10.4 10.4 8.6 8.8 7.6 10.0 C 7.6 10.0 7.6 10.0 7.6 10.0 Z M 4.5 65.8 C 4.8 66.9 7.1 66.3 6.8 65.2 C 6.5 64.1 6.0 61.9 5.9 61.2 C 5.9 60.5 5.9 57.3 5.9 56.5 C 5.8 55.8 5.5 52.7 5.7 50.6 C 5.9 48.5 5.5 47.5 5.6 46.4 C 5.7 45.2 5.6 44.5 5.5 43.5 C 5.5 42.5 6.0 41.0 5.8 40.2 C 5.6 39.3 5.8 38.9 5.8 37.7 C 5.8 36.6 3.4 36.6 3.4 37.7 C 3.4 38.8 3.4 39.7 3.5 40.8 C 3.5 41.9 3.5 43.2 3.5 44.4 C 3.5 45.4 3.2 47.0 3.4 48.3 C 3.6 49.5 3.6 51.8 3.6 52.7 C 3.7 53.9 3.6 56.2 3.8 57.0 C 4.0 58.2 3.8 59.9 3.7 60.6 C 3.5 61.2 3.8 61.6 4.0 62.9 C 4.1 63.6 4.2 64.8 4.5 65.8 C 4.5 65.8 4.5 65.8 4.5 65.8 Z M 4.6 66.2 C 4.9 67.4 6.5 69.8 6.8 70.3 C 7.1 70.8 8.3 72.6 9.0 73.3 C 9.7 74.0 10.1 74.1 11.4 75.0 C 13.1 76.2 14.3 76.9 14.4 77.0 C 14.6 77.2 15.6 77.9 16.7 78.1 C 18.2 78.4 18.6 78.7 19.3 78.7 C 20.5 78.6 20.5 78.9 21.5 79.0 C 22.4 79.0 23.0 79.2 23.8 79.1 C 24.8 79.0 25.4 79.3 26.4 79.3 C 27.8 79.3 27.7 76.9 26.4 76.8 C 25.5 76.8 24.8 77.1 24.1 77.0 C 23.3 77.0 22.7 76.9 22.0 76.7 C 21.4 76.6 20.0 76.6 19.1 76.3 C 18.1 76.1 16.6 75.6 15.3 75.0 C 14.0 74.5 12.8 74.6 11.0 72.4 C 10.4 71.7 9.2 70.3 8.7 69.7 C 8.0 68.6 7.1 66.3 6.9 65.4 C 6.6 64.4 4.2 65.0 4.6 66.2 C 4.6 66.2 4.6 66.2 4.6 66.2 Z M 32.7 80.0 C 32.7 80.0 32.7 79.9 32.7 78.6 C 32.7 77.2 32.7 76.2 32.7 76.2 C 32.7 76.2 32.7 76.9 32.7 76.9 C 32.6 76.9 32.6 79.3 32.7 79.3 C 32.7 79.3 32.7 80.0 32.7 80.0 C 32.7 80.0 32.7 80.0 32.7 80.0 Z M 32.6 76.2 C 32.6 76.2 32.6 76.8 32.6 78.1 C 32.6 79.4 32.6 80.1 32.6 80.1 C 32.6 80.1 32.6 79.3 32.7 79.4 C 32.7 79.4 32.7 76.9 32.7 76.9 C 32.6 76.9 32.6 76.2 32.6 76.2 C 32.6 76.2 32.6 76.2 32.6 76.2 Z M 32.6 76.2 " fill="#FF7777"></path><g><clipPath id="clip-88"><path d="M 4.6 3.9 L 118.6 3.9 L 118.6 78.1 L 4.6 78.1 Z M 4.6 3.9 "></path></clipPath><g clip-path="url(#clip-88)"><text xml:space="preserve" font-family="AmericanTypewriter" font-size="20.0" fill="#000000" transform="matrix(1.00, 0.00, -0.00, -1.00, 45.0, 34.0)">V</text><text xml:space="preserve" font-family="AmericanTypewriter" font-size="20.0" fill="#000000" transform="matrix(1.00, 0.00, -0.00, -1.00, 59.6, 34.0)">M</text></g></g></g></svg>