<?xml version="1.0" encoding="UTF-8" standalone="no"?><svg xmlns="http://www.w3.org/2000/svg" xmlns:xlink="http://www.w3.org/1999/xlink" clip-rule="evenodd" stroke-miterlimit="4.00" viewBox="0 0 124 84"><desc>SVG generated by Keynote</desc><defs></defs><g transform="matrix(1.00, 0.00, -0.00, -1.00, 0.0, 84.0)"><path d="M 32.3 79.3 L 90.3 79.3 C 98.3 79.3 102.4 79.3 106.7 77.9 C 111.4 76.2 115.2 72.5 116.9 67.7 C 118.3 63.4 118.3 59.3 118.3 51.1 L 118.3 33.1 C 118.3 25.0 118.3 21.0 116.9 16.6 C 115.2 11.9 111.4 8.1 106.7 6.4 C 102.4 5.0 98.3 5.0 90.1 5.0 L 32.3 5.0 C 24.3 5.0 20.2 5.0 15.8 6.4 C 11.1 8.1 7.4 11.9 5.6 16.6 C 4.3 21.0 4.3 25.0 4.3 33.2 L 4.3 51.3 C 4.3 59.3 4.3 63.4 5.6 67.7 C 7.4 72.5 11.1 76.2 15.8 77.9 C 20.2 79.3 24.3 79.3 32.4 79.3 Z M 32.3 79.3 " fill="#DDF3D0"></path><path d="M 33.0 77.4 C 32.0 77.4 30.8 77.5 30.7 78.8 C 30.5 80.2 31.5 81.2 32.9 81.2 C 34.2 81.2 33.8 80.5 37.0 80.5 C 38.2 80.5 38.3 78.1 37.1 78.1 C 34.2 78.1 34.6 77.4 33.0 77.4 C 33.0 77.4 33.0 77.4 33.0 77.4 Z M 31.3 81.2 C 31.7 81.2 32.1 81.2 32.4 81.2 L 32.4 77.4 C 31.4 77.6 30.9 78.2 30.9 79.3 C 30.9 80.3 31.4 81.0 32.4 81.2 L 32.4 77.4 C 32.1 77.4 31.7 77.3 31.3 77.3 C 29.2 77.3 29.2 78.1 26.5 78.0 C 25.0 78.0 25.2 80.4 26.4 80.5 C 29.3 80.5 29.0 81.2 31.3 81.2 C 31.3 81.2 31.3 81.2 31.3 81.2 Z M 37.2 78.0 C 36.0 78.0 36.0 80.5 37.3 80.5 C 38.8 80.5 41.9 80.1 42.8 80.1 C 43.6 80.2 45.9 80.6 46.6 80.6 C 47.3 80.6 50.8 79.9 52.3 80.1 C 53.8 80.3 54.3 80.2 55.3 80.2 C 56.3 80.2 58.0 80.1 59.0 80.0 C 59.9 80.0 60.8 80.6 62.1 80.4 C 63.4 80.3 64.1 80.5 65.0 80.5 C 66.4 80.5 66.3 78.1 65.0 78.1 C 63.7 78.1 62.8 77.9 61.7 78.0 C 60.7 78.0 59.7 78.3 58.7 78.0 C 57.7 77.8 55.7 78.0 54.4 78.2 C 53.2 78.3 51.8 78.3 50.8 78.2 C 48.9 78.0 44.2 78.4 43.5 78.2 C 42.8 78.0 40.7 78.2 39.9 78.2 C 39.2 78.2 38.7 78.0 37.2 78.0 C 37.2 78.0 37.2 78.0 37.2 78.0 Z M 93.8 80.5 C 95.4 80.5 95.6 78.0 93.7 78.1 C 91.9 78.1 88.5 78.3 87.7 78.2 C 86.9 78.2 83.4 78.0 82.7 78.0 C 82.0 78.0 79.4 78.4 77.9 78.2 C 76.4 78.0 74.9 78.4 73.9 78.3 C 72.6 78.1 71.9 78.3 70.9 78.3 C 70.0 78.4 68.5 77.9 67.6 78.1 C 66.8 78.3 66.3 78.1 65.2 78.1 C 64.0 78.1 64.0 80.5 65.1 80.5 C 66.2 80.5 67.1 80.5 68.2 80.4 C 69.3 80.4 70.6 80.3 71.8 80.3 C 72.9 80.3 74.5 80.6 75.7 80.5 C 77.0 80.3 78.8 80.2 79.5 80.2 C 80.4 80.2 82.3 80.3 83.1 80.1 C 84.2 79.9 86.0 80.2 86.7 80.4 C 87.4 80.6 87.8 80.3 89.3 80.4 C 90.2 80.4 92.1 80.5 93.8 80.5 C 93.8 80.5 93.8 80.5 93.8 80.5 Z M 94.3 80.5 C 96.1 80.5 98.6 80.1 99.2 80.0 C 99.8 80.0 101.6 80.1 102.4 79.9 C 103.3 79.7 103.5 79.5 104.8 79.2 C 106.4 78.8 107.6 78.5 107.7 78.5 C 108.1 78.5 109.1 78.3 110.3 77.5 C 111.9 76.4 112.4 76.2 113.0 75.6 C 113.9 74.4 114.2 74.4 114.8 73.6 C 115.5 72.7 116.0 72.2 116.3 71.3 C 116.7 70.4 117.3 70.0 117.7 69.1 C 118.2 67.8 115.9 67.1 115.4 68.2 C 115.1 68.8 115.0 69.5 114.7 70.2 C 114.3 70.8 113.9 71.3 113.3 71.8 C 112.8 72.3 111.9 73.5 110.9 74.3 C 109.9 75.0 108.2 75.9 106.9 76.5 C 105.6 77.1 105.3 77.8 102.8 77.8 C 102.0 77.8 100.4 78.0 99.6 78.1 C 98.3 78.2 95.5 78.1 94.1 78.1 C 92.4 78.1 92.4 80.5 94.3 80.5 C 94.3 80.5 94.3 80.5 94.3 80.5 Z M 119.5 40.9 C 119.5 39.6 117.1 39.4 117.1 40.9 C 117.1 42.4 117.3 45.2 117.2 46.1 C 117.2 46.9 117.0 50.3 117.0 51.1 C 117.0 51.8 117.4 55.5 117.1 57.2 C 116.9 58.8 117.3 60.2 117.1 61.1 C 116.9 62.3 116.9 62.8 116.9 63.6 C 116.8 64.4 116.1 65.4 116.1 66.1 C 116.2 66.7 115.9 66.9 115.5 67.9 C 115.1 68.9 117.3 70.0 117.7 68.9 C 118.2 67.8 118.3 67.1 118.5 66.2 C 118.6 65.3 118.8 64.2 118.9 63.1 C 119.0 62.2 119.5 60.8 119.3 59.5 C 119.2 58.3 119.2 56.2 119.2 55.4 C 119.2 54.2 119.2 51.5 119.1 50.6 C 118.9 49.6 119.2 47.7 119.4 47.1 C 119.6 46.4 119.3 45.9 119.4 44.5 C 119.4 43.6 119.5 42.2 119.5 40.9 C 119.5 40.9 119.5 40.9 119.5 40.9 Z M 119.5 40.5 C 119.5 39.0 119.2 36.6 119.2 36.0 C 119.2 35.4 119.4 33.5 119.3 32.2 C 119.2 30.8 119.1 30.4 119.0 28.5 C 118.9 26.1 119.1 24.9 119.1 24.8 C 119.2 24.5 119.4 23.5 119.2 22.3 C 119.0 20.7 119.1 20.2 118.9 19.6 C 118.4 18.5 118.6 18.3 118.3 17.5 C 118.1 16.6 118.0 15.9 117.5 15.2 C 116.9 14.3 116.9 13.6 116.4 12.8 C 115.7 11.6 113.7 13.2 114.3 14.1 C 114.7 14.7 115.2 15.2 115.5 15.9 C 115.9 16.6 116.0 17.1 116.1 17.8 C 116.1 18.4 116.6 19.5 116.7 20.6 C 116.8 21.6 116.8 23.4 116.9 24.9 C 117.0 26.3 117.6 27.0 117.3 31.1 C 117.1 32.4 117.2 34.6 117.2 35.4 C 117.2 36.8 117.1 39.5 117.1 40.7 C 117.1 42.0 119.5 42.0 119.5 40.5 C 119.5 40.5 119.5 40.5 119.5 40.5 Z M 90.4 3.8 C 89.5 3.8 89.3 4.4 89.3 5.0 C 89.3 5.7 89.3 6.3 90.4 6.3 C 92.6 6.3 96.0 6.1 96.9 6.1 C 97.7 6.2 100.9 6.5 101.5 6.6 C 102.1 6.7 104.2 6.6 105.2 7.1 C 106.3 7.6 107.7 7.8 108.5 8.3 C 109.5 9.0 110.1 9.3 110.8 9.8 C 111.6 10.3 112.2 11.6 112.9 12.1 C 113.5 12.5 113.6 13.0 114.2 13.9 C 114.8 14.8 116.9 13.6 116.3 12.7 C 115.7 11.7 115.0 10.9 114.2 10.1 C 113.4 9.3 112.3 8.4 111.3 7.7 C 110.4 7.0 109.0 5.9 107.7 5.6 C 106.4 5.2 105.0 5.0 104.5 4.9 C 103.7 4.8 102.1 4.4 101.3 4.5 C 100.4 4.6 98.6 4.2 98.0 4.0 C 97.3 3.8 96.8 4.0 95.1 4.0 C 94.1 3.9 92.3 3.8 90.4 3.8 C 90.4 3.8 90.4 3.8 90.4 3.8 Z M 90.2 6.3 C 91.9 6.3 91.4 3.8 90.0 3.8 C 88.5 3.8 85.4 4.3 84.6 4.2 C 83.7 4.2 81.4 3.7 80.7 3.7 C 80.0 3.7 76.5 4.4 75.0 4.2 C 73.5 4.0 73.1 4.1 72.0 4.1 C 71.0 4.1 69.4 4.3 68.4 4.3 C 67.4 4.4 66.5 3.7 65.2 3.9 C 63.9 4.1 63.2 3.8 62.4 3.8 C 60.9 3.8 61.0 6.3 62.3 6.3 C 63.6 6.3 64.5 6.4 65.6 6.4 C 66.7 6.3 67.6 6.1 68.6 6.3 C 69.7 6.6 71.7 6.3 72.9 6.1 C 74.1 6.0 75.5 6.1 76.5 6.2 C 78.5 6.4 83.2 5.9 83.8 6.1 C 84.5 6.3 86.6 6.1 87.4 6.1 C 88.2 6.1 87.9 6.3 90.2 6.3 C 90.2 6.3 90.2 6.3 90.2 6.3 Z M 62.0 3.8 C 60.5 3.8 58.1 4.2 57.5 4.2 C 56.9 4.2 54.9 4.0 53.9 4.0 C 53.0 4.1 52.7 4.3 51.1 4.3 C 49.1 4.4 47.8 4.1 47.7 4.1 C 47.4 4.0 46.4 3.8 45.1 3.9 C 43.3 4.0 42.8 3.7 42.0 3.8 C 40.6 4.1 40.5 3.8 39.4 3.9 C 38.4 3.9 37.7 3.8 36.9 4.0 C 36.0 4.1 35.3 3.8 34.5 3.8 C 33.1 3.8 33.3 6.3 34.5 6.3 C 35.3 6.3 36.0 6.0 36.7 6.0 C 37.5 6.0 38.2 6.1 39.0 6.2 C 39.8 6.3 41.5 6.1 42.7 6.2 C 44.0 6.2 46.2 6.4 47.7 6.3 C 49.2 6.3 50.1 5.7 53.2 6.1 C 54.1 6.2 56.1 6.1 56.9 6.1 C 58.3 6.1 61.0 6.3 62.2 6.3 C 63.5 6.3 63.5 3.8 62.0 3.8 C 62.0 3.8 62.0 3.8 62.0 3.8 Z M 7.5 10.9 C 6.7 11.9 8.5 13.5 9.4 12.4 C 10.3 11.3 12.2 9.5 12.8 9.1 C 13.5 8.7 16.4 7.5 17.0 7.4 C 17.5 7.2 19.4 6.5 20.6 6.5 C 21.9 6.6 23.1 6.1 24.2 6.1 C 25.4 6.2 26.2 6.1 27.3 6.0 C 28.4 6.0 30.4 6.4 31.5 6.2 C 32.7 6.0 33.1 6.3 34.2 6.3 C 35.4 6.3 35.4 3.8 34.3 3.8 C 33.2 3.8 32.2 3.9 30.7 3.9 C 29.2 4.0 27.6 4.0 26.3 4.0 C 25.1 4.1 23.5 3.8 22.3 4.1 C 21.1 4.3 19.6 4.6 19.0 4.7 C 18.3 4.9 16.7 5.2 16.0 5.5 C 15.2 5.9 13.3 6.5 12.5 6.7 C 11.8 6.9 11.5 7.4 10.3 8.3 C 9.6 8.9 8.4 9.8 7.5 10.9 C 7.5 10.9 7.5 10.9 7.5 10.9 Z M 7.3 11.2 C 6.3 12.4 5.4 14.9 5.1 15.5 C 4.9 16.1 4.2 17.7 4.1 18.5 C 4.0 19.3 4.1 19.6 4.0 20.9 C 3.8 22.6 3.5 23.9 3.5 24.0 C 3.4 24.2 3.1 25.2 3.1 26.6 C 3.2 28.6 3.0 29.3 3.0 30.4 C 3.3 32.1 3.1 32.6 3.1 33.7 C 3.2 34.7 3.1 35.4 3.2 36.2 C 3.3 37.1 3.0 37.8 3.0 38.6 C 3.0 40.0 5.5 39.9 5.5 38.6 C 5.5 37.8 5.2 37.2 5.2 36.4 C 5.2 35.6 5.3 34.9 5.4 34.1 C 5.5 33.3 5.3 31.0 5.4 29.4 C 5.5 27.8 5.6 25.5 5.7 24.1 C 5.7 22.7 5.1 21.8 6.0 19.5 C 6.2 18.8 6.4 17.5 6.7 16.7 C 7.2 15.5 8.6 13.4 9.3 12.6 C 10.1 11.6 8.3 9.9 7.3 11.2 C 7.3 11.2 7.3 11.2 7.3 11.2 Z M 4.2 67.0 C 4.5 68.1 6.8 67.5 6.5 66.4 C 6.2 65.3 5.6 63.1 5.6 62.4 C 5.6 61.7 5.6 58.5 5.6 57.7 C 5.5 56.9 5.2 53.9 5.4 51.8 C 5.6 49.6 5.2 48.6 5.3 47.6 C 5.4 46.3 5.3 45.7 5.2 44.7 C 5.2 43.7 5.7 42.2 5.5 41.4 C 5.3 40.5 5.5 40.1 5.5 38.9 C 5.5 37.7 3.1 37.7 3.1 38.8 C 3.1 39.9 3.1 40.9 3.1 41.9 C 3.2 43.0 3.2 44.4 3.2 45.5 C 3.2 46.6 2.9 48.2 3.1 49.4 C 3.2 50.7 3.3 53.0 3.3 53.9 C 3.4 55.1 3.3 57.3 3.5 58.2 C 3.7 59.3 3.5 61.1 3.4 61.8 C 3.2 62.4 3.5 62.8 3.7 64.0 C 3.8 64.8 3.9 66.0 4.2 67.0 C 4.2 67.0 4.2 67.0 4.2 67.0 Z M 4.3 67.4 C 4.6 68.6 6.2 70.9 6.5 71.5 C 6.8 72.0 8.0 73.8 8.7 74.5 C 9.4 75.1 9.8 75.3 11.1 76.2 C 12.8 77.4 14.0 78.1 14.1 78.2 C 14.3 78.4 15.3 79.1 16.4 79.3 C 17.9 79.6 18.3 79.9 18.9 79.9 C 20.1 79.8 20.2 80.1 21.2 80.1 C 22.1 80.2 22.7 80.3 23.5 80.2 C 24.4 80.1 25.1 80.5 26.1 80.5 C 27.5 80.5 27.4 78.0 26.1 78.0 C 25.2 78.0 24.5 78.2 23.8 78.2 C 23.0 78.2 22.4 78.1 21.7 77.9 C 21.0 77.7 19.7 77.7 18.8 77.5 C 17.8 77.3 16.3 76.7 15.0 76.2 C 13.7 75.6 12.5 75.8 10.7 73.5 C 10.1 72.8 8.8 71.5 8.4 70.9 C 7.7 69.8 6.8 67.4 6.6 66.6 C 6.3 65.5 3.9 66.1 4.3 67.4 C 4.3 67.4 4.3 67.4 4.3 67.4 Z M 32.4 81.2 C 32.4 81.2 32.4 81.1 32.4 79.7 C 32.4 78.4 32.4 77.3 32.4 77.3 C 32.4 77.3 32.4 78.1 32.4 78.1 C 32.3 78.1 32.3 80.5 32.4 80.5 C 32.4 80.5 32.4 81.2 32.4 81.2 C 32.4 81.2 32.4 81.2 32.4 81.2 Z M 32.3 77.3 C 32.3 77.3 32.3 78.0 32.3 79.3 C 32.3 80.6 32.3 81.2 32.3 81.2 C 32.3 81.2 32.3 80.5 32.4 80.5 C 32.4 80.5 32.4 78.1 32.4 78.1 C 32.3 78.1 32.3 77.3 32.3 77.3 C 32.3 77.3 32.3 77.3 32.3 77.3 Z M 32.3 77.3 " fill="#FF7777"></path><g><clipPath id="clip-83"><path d="M 4.3 5.0 L 118.3 5.0 L 118.3 79.3 L 4.3 79.3 Z M 4.3 5.0 "></path></clipPath><g clip-path="url(#clip-83)"><text xml:space="preserve" font-family="AmericanTypewriter" font-size="20.0" fill="#000000" transform="matrix(1.00, 0.00, -0.00, -1.00, 45.0, 35.0)">V</text><text xml:space="preserve" font-family="AmericanTypewriter" font-size="20.0" fill="#000000" transform="matrix(1.00, 0.00, -0.00, -1.00, 59.6, 35.0)">M</text></g></g></g></svg>