<?xml version="1.0" encoding="UTF-8" standalone="no"?><svg xmlns="http://www.w3.org/2000/svg" xmlns:xlink="http://www.w3.org/1999/xlink" clip-rule="evenodd" stroke-miterlimit="4.00" viewBox="0 0 209 34"><desc>SVG generated by Keynote</desc><defs></defs><g transform="matrix(1.00, 0.00, -0.00, -1.00, 0.0, 34.0)"><text xml:space="preserve" font-family="AmericanTypewriter" font-size="30.0" fill="#FEFFFE" transform="matrix(1.00, -0.02, -0.02, -1.00, 0.7, 10.6)">C</text><text xml:space="preserve" font-family="AmericanTypewriter" font-size="30.0" fill="#FEFFFE" transform="matrix(1.00, -0.02, -0.02, -1.00, 19.8, 10.2)">o</text><text xml:space="preserve" font-family="AmericanTypewriter" font-size="30.0" fill="#FEFFFE" transform="matrix(1.00, -0.02, -0.02, -1.00, 36.2, 9.9)">m</text><text xml:space="preserve" font-family="AmericanTypewriter" font-size="30.0" fill="#FEFFFE" transform="matrix(1.00, -0.02, -0.02, -1.00, 63.2, 9.4)">p</text><text xml:space="preserve" font-family="AmericanTypewriter" font-size="30.0" fill="#FEFFFE" transform="matrix(1.00, -0.02, -0.02, -1.00, 81.2, 9.0)">u</text><text xml:space="preserve" font-family="AmericanTypewriter" font-size="30.0" fill="#FEFFFE" transform="matrix(1.00, -0.02, -0.02, -1.00, 99.8, 8.6)">t</text><text xml:space="preserve" font-family="AmericanTypewriter" font-size="30.0" fill="#FEFFFE" transform="matrix(1.00, -0.02, -0.02, -1.00, 111.8, 8.4)">e</text><text xml:space="preserve" font-family="AmericanTypewriter" font-size="30.0" fill="#FEFFFE" transform="matrix(1.00, -0.02, -0.02, -1.00, 127.6, 8.1)"> </text><text xml:space="preserve" font-family="AmericanTypewriter" font-size="30.0" fill="#FEFFFE" transform="matrix(1.00, -0.02, -0.02, -1.00, 135.1, 8.0)">N</text><text xml:space="preserve" font-family="AmericanTypewriter" font-size="30.0" fill="#FEFFFE" transform="matrix(1.00, -0.02, -0.02, -1.00, 157.1, 7.5)">o</text><text xml:space="preserve" font-family="AmericanTypewriter" font-size="30.0" fill="#FEFFFE" transform="matrix(1.00, -0.02, -0.02, -1.00, 173.4, 7.2)">d</text><text xml:space="preserve" font-family="AmericanTypewriter" font-size="30.0" fill="#FEFFFE" transform="matrix(1.00, -0.02, -0.02, -1.00, 191.4, 6.9)">e</text></g></svg>