<?xml version="1.0" encoding="UTF-8" standalone="no"?><svg xmlns="http://www.w3.org/2000/svg" xmlns:xlink="http://www.w3.org/1999/xlink" clip-rule="evenodd" stroke-miterlimit="4.00" viewBox="0 0 123 84"><desc>SVG generated by Keynote</desc><defs></defs><g transform="matrix(1.00, 0.00, -0.00, -1.00, 0.0, 84.0)"><path d="M 32.6 79.4 L 90.6 79.4 C 98.6 79.4 102.7 79.4 107.0 78.0 C 111.8 76.3 115.5 72.6 117.2 67.8 C 118.6 63.5 118.6 59.4 118.6 51.2 L 118.6 33.2 C 118.6 25.1 118.6 21.1 117.2 16.7 C 115.5 12.0 111.8 8.2 107.0 6.5 C 102.7 5.1 98.6 5.1 90.4 5.1 L 32.6 5.1 C 24.6 5.1 20.5 5.1 16.2 6.5 C 11.4 8.2 7.7 12.0 6.0 16.7 C 4.6 21.1 4.6 25.1 4.6 33.3 L 4.6 51.4 C 4.6 59.4 4.6 63.5 6.0 67.8 C 7.7 72.6 11.4 76.3 16.2 78.0 C 20.5 79.4 24.6 79.4 32.7 79.4 Z M 32.6 79.4 " fill="#DDF3D0"></path><path d="M 33.3 77.5 C 32.4 77.5 31.2 77.6 31.0 78.9 C 30.8 80.3 31.8 81.3 33.2 81.3 C 34.6 81.3 34.2 80.6 37.4 80.6 C 38.5 80.6 38.6 78.2 37.4 78.2 C 34.6 78.2 35.0 77.5 33.3 77.5 C 33.3 77.5 33.3 77.5 33.3 77.5 Z M 31.6 81.3 C 32.0 81.3 32.4 81.3 32.7 81.3 L 32.7 77.5 C 31.7 77.7 31.2 78.3 31.2 79.4 C 31.2 80.4 31.8 81.1 32.7 81.3 L 32.7 77.5 C 32.4 77.5 32.0 77.4 31.6 77.4 C 29.5 77.4 29.5 78.2 26.8 78.1 C 25.3 78.1 25.5 80.5 26.7 80.6 C 29.7 80.6 29.3 81.3 31.6 81.3 C 31.6 81.3 31.6 81.3 31.6 81.3 Z M 37.5 78.1 C 36.3 78.1 36.3 80.6 37.7 80.6 C 39.1 80.6 42.3 80.2 43.1 80.2 C 43.9 80.3 46.2 80.7 46.9 80.7 C 47.7 80.7 51.2 80.0 52.7 80.2 C 54.2 80.4 54.6 80.3 55.6 80.3 C 56.6 80.3 58.3 80.2 59.3 80.1 C 60.3 80.1 61.1 80.7 62.4 80.5 C 63.7 80.4 64.4 80.6 65.3 80.6 C 66.7 80.6 66.6 78.2 65.3 78.2 C 64.0 78.2 63.2 78.0 62.1 78.1 C 61.0 78.1 60.0 78.4 59.0 78.1 C 58.0 77.9 56.0 78.1 54.7 78.3 C 53.5 78.4 52.1 78.4 51.2 78.3 C 49.2 78.1 44.5 78.5 43.8 78.3 C 43.1 78.1 41.0 78.3 40.2 78.3 C 39.5 78.3 39.1 78.1 37.5 78.1 C 37.5 78.1 37.5 78.1 37.5 78.1 Z M 94.1 80.6 C 95.7 80.6 96.0 78.1 94.1 78.2 C 92.2 78.2 88.8 78.4 88.0 78.3 C 87.2 78.3 83.7 78.1 83.0 78.1 C 82.3 78.1 79.7 78.5 78.2 78.3 C 76.7 78.1 75.2 78.5 74.2 78.4 C 72.9 78.2 72.3 78.4 71.3 78.4 C 70.3 78.5 68.8 78.0 67.9 78.2 C 67.1 78.4 66.7 78.2 65.5 78.2 C 64.3 78.2 64.3 80.6 65.4 80.6 C 66.5 80.6 67.5 80.6 68.5 80.5 C 69.6 80.5 71.0 80.4 72.1 80.4 C 73.2 80.4 74.8 80.7 76.0 80.6 C 77.3 80.4 79.1 80.3 79.8 80.3 C 80.7 80.3 82.6 80.4 83.5 80.2 C 84.5 80.0 86.3 80.3 87.0 80.5 C 87.7 80.7 88.2 80.4 89.6 80.5 C 90.5 80.5 92.5 80.6 94.1 80.6 C 94.1 80.6 94.1 80.6 94.1 80.6 Z M 94.6 80.6 C 96.4 80.6 98.9 80.2 99.5 80.1 C 100.1 80.1 101.9 80.2 102.8 80.0 C 103.6 79.8 103.8 79.6 105.1 79.3 C 106.7 78.9 108.0 78.6 108.1 78.6 C 108.4 78.6 109.5 78.4 110.6 77.6 C 112.2 76.5 112.8 76.3 113.3 75.6 C 114.2 74.5 114.5 74.5 115.2 73.7 C 115.8 72.8 116.3 72.3 116.7 71.4 C 117.0 70.5 117.6 70.1 118.0 69.2 C 118.5 67.9 116.2 67.2 115.7 68.3 C 115.4 68.9 115.4 69.6 115.0 70.3 C 114.6 70.9 114.2 71.4 113.6 71.9 C 113.1 72.4 112.2 73.6 111.2 74.4 C 110.3 75.1 108.5 76.0 107.2 76.6 C 106.0 77.2 105.6 77.9 103.1 77.9 C 102.3 77.9 100.7 78.1 99.9 78.2 C 98.7 78.3 95.8 78.2 94.4 78.2 C 92.7 78.2 92.7 80.6 94.6 80.6 C 94.6 80.6 94.6 80.6 94.6 80.6 Z M 119.8 41.0 C 119.8 39.7 117.4 39.5 117.4 41.0 C 117.4 42.5 117.6 45.3 117.5 46.2 C 117.5 47.0 117.3 50.4 117.3 51.2 C 117.3 51.9 117.7 55.6 117.5 57.3 C 117.2 58.9 117.6 60.3 117.4 61.2 C 117.2 62.4 117.2 62.9 117.2 63.7 C 117.1 64.5 116.4 65.5 116.4 66.2 C 116.5 66.8 116.2 67.0 115.8 68.0 C 115.4 69.0 117.6 70.1 118.0 69.0 C 118.5 67.9 118.7 67.2 118.8 66.3 C 119.0 65.4 119.1 64.3 119.2 63.2 C 119.4 62.3 119.8 60.9 119.7 59.6 C 119.6 58.4 119.5 56.3 119.5 55.4 C 119.5 54.3 119.6 51.6 119.4 50.7 C 119.3 49.7 119.5 47.8 119.7 47.2 C 119.9 46.5 119.6 46.0 119.7 44.6 C 119.7 43.7 119.8 42.3 119.8 41.0 C 119.8 41.0 119.8 41.0 119.8 41.0 Z M 119.8 40.6 C 119.8 39.1 119.5 36.7 119.5 36.1 C 119.5 35.5 119.7 33.6 119.6 32.3 C 119.6 30.9 119.4 30.5 119.3 28.6 C 119.2 26.2 119.4 25.0 119.4 24.9 C 119.5 24.6 119.7 23.6 119.5 22.4 C 119.3 20.8 119.4 20.3 119.2 19.7 C 118.7 18.6 118.9 18.4 118.7 17.6 C 118.4 16.7 118.3 16.0 117.8 15.3 C 117.3 14.4 117.2 13.7 116.7 12.9 C 116.0 11.7 114.1 13.3 114.7 14.2 C 115.0 14.8 115.6 15.3 115.9 16.0 C 116.2 16.7 116.3 17.2 116.4 17.8 C 116.4 18.5 116.9 19.6 117.0 20.7 C 117.1 21.7 117.1 23.5 117.2 25.0 C 117.3 26.4 117.9 27.1 117.6 31.2 C 117.5 32.5 117.6 34.7 117.6 35.5 C 117.6 36.9 117.4 39.6 117.4 40.8 C 117.4 42.1 119.8 42.1 119.8 40.6 C 119.8 40.6 119.8 40.6 119.8 40.6 Z M 90.8 3.9 C 89.8 3.9 89.6 4.5 89.6 5.1 C 89.6 5.8 89.7 6.4 90.8 6.4 C 93.0 6.4 96.3 6.2 97.2 6.2 C 98.1 6.3 101.2 6.6 101.8 6.7 C 102.4 6.8 104.5 6.7 105.5 7.2 C 106.6 7.7 108.0 7.9 108.8 8.4 C 109.8 9.1 110.4 9.4 111.1 9.9 C 111.9 10.4 112.5 11.7 113.2 12.2 C 113.8 12.6 113.9 13.1 114.5 14.0 C 115.1 14.9 117.2 13.7 116.6 12.8 C 116.0 11.8 115.3 11.0 114.5 10.2 C 113.7 9.4 112.6 8.5 111.6 7.8 C 110.7 7.1 109.4 6.0 108.1 5.7 C 106.8 5.3 105.4 5.1 104.8 5.0 C 104.0 4.8 102.4 4.5 101.7 4.6 C 100.7 4.7 99.0 4.3 98.3 4.1 C 97.6 3.9 97.1 4.1 95.4 4.1 C 94.4 4.0 92.6 3.9 90.8 3.9 C 90.8 3.9 90.8 3.9 90.8 3.9 Z M 90.5 6.4 C 92.2 6.4 91.7 3.9 90.3 3.9 C 88.9 3.9 85.7 4.4 84.9 4.3 C 84.0 4.3 81.8 3.8 81.0 3.8 C 80.3 3.8 76.8 4.5 75.3 4.3 C 73.8 4.1 73.4 4.2 72.3 4.2 C 71.3 4.2 69.7 4.4 68.7 4.4 C 67.7 4.5 66.8 3.8 65.5 4.0 C 64.3 4.2 63.6 3.9 62.7 3.9 C 61.2 3.9 61.3 6.4 62.7 6.4 C 63.9 6.4 64.8 6.5 65.9 6.5 C 67.0 6.4 67.9 6.2 69.0 6.4 C 70.0 6.7 72.0 6.4 73.2 6.2 C 74.5 6.1 75.8 6.2 76.8 6.3 C 78.8 6.5 83.5 6.0 84.1 6.2 C 84.8 6.4 87.0 6.2 87.7 6.2 C 88.5 6.2 88.2 6.4 90.5 6.4 C 90.5 6.4 90.5 6.4 90.5 6.4 Z M 62.3 3.9 C 60.8 3.9 58.4 4.2 57.8 4.2 C 57.2 4.2 55.2 4.1 54.2 4.1 C 53.3 4.2 53.0 4.4 51.4 4.4 C 49.4 4.5 48.1 4.2 48.0 4.2 C 47.7 4.1 46.8 3.9 45.4 4.0 C 43.6 4.1 43.1 3.8 42.3 3.9 C 40.9 4.2 40.8 3.9 39.7 4.0 C 38.7 4.0 38.0 3.9 37.2 4.1 C 36.3 4.2 35.6 3.9 34.8 3.9 C 33.5 3.9 33.6 6.4 34.8 6.4 C 35.6 6.4 36.3 6.1 37.1 6.1 C 37.9 6.1 38.6 6.2 39.4 6.3 C 40.1 6.4 41.8 6.2 43.1 6.3 C 44.4 6.3 46.5 6.5 48.0 6.4 C 49.5 6.4 50.4 5.8 53.5 6.2 C 54.5 6.3 56.4 6.2 57.2 6.2 C 58.6 6.2 61.3 6.4 62.5 6.4 C 63.9 6.4 63.8 3.9 62.3 3.9 C 62.3 3.9 62.3 3.9 62.3 3.9 Z M 7.9 11.0 C 7.0 12.0 8.9 13.6 9.8 12.5 C 10.6 11.4 12.5 9.6 13.2 9.2 C 13.8 8.8 16.7 7.6 17.3 7.5 C 17.8 7.3 19.7 6.6 20.9 6.6 C 22.2 6.7 23.5 6.2 24.5 6.2 C 25.7 6.3 26.5 6.2 27.6 6.1 C 28.7 6.1 30.7 6.5 31.9 6.3 C 33.0 6.1 33.4 6.4 34.5 6.4 C 35.7 6.4 35.7 3.9 34.6 3.9 C 33.5 3.9 32.5 4.0 31.0 4.0 C 29.5 4.1 27.9 4.1 26.6 4.1 C 25.4 4.2 23.8 3.9 22.6 4.2 C 21.5 4.4 19.9 4.7 19.3 4.8 C 18.6 5.0 17.0 5.3 16.4 5.6 C 15.6 6.0 13.6 6.6 12.9 6.8 C 12.1 7.0 11.9 7.5 10.6 8.4 C 9.9 9.0 8.7 9.9 7.9 11.0 C 7.9 11.0 7.9 11.0 7.9 11.0 Z M 7.6 11.3 C 6.6 12.5 5.7 15.0 5.4 15.6 C 5.2 16.2 4.5 17.8 4.4 18.6 C 4.3 19.4 4.4 19.7 4.3 21.0 C 4.1 22.7 3.8 24.0 3.8 24.1 C 3.7 24.3 3.4 25.3 3.4 26.7 C 3.5 28.7 3.3 29.4 3.4 30.5 C 3.7 32.2 3.4 32.7 3.4 33.8 C 3.5 34.8 3.4 35.5 3.5 36.3 C 3.7 37.2 3.3 37.9 3.4 38.7 C 3.4 40.1 5.8 39.9 5.8 38.7 C 5.8 37.9 5.6 37.3 5.6 36.5 C 5.6 35.7 5.6 35.0 5.7 34.2 C 5.8 33.4 5.7 31.1 5.7 29.5 C 5.8 27.9 6.0 25.6 6.0 24.2 C 6.0 22.8 5.4 21.9 6.3 19.6 C 6.5 18.9 6.8 17.6 7.0 16.8 C 7.5 15.6 8.9 13.5 9.6 12.7 C 10.4 11.7 8.6 10.0 7.6 11.3 C 7.6 11.3 7.6 11.3 7.6 11.3 Z M 4.5 67.1 C 4.8 68.2 7.2 67.6 6.8 66.5 C 6.5 65.4 6.0 63.2 5.9 62.5 C 5.9 61.8 5.9 58.6 5.9 57.8 C 5.9 57.0 5.5 54.0 5.7 51.9 C 5.9 49.7 5.5 48.7 5.6 47.7 C 5.7 46.4 5.6 45.8 5.5 44.8 C 5.5 43.8 6.0 42.3 5.8 41.5 C 5.6 40.6 5.8 40.2 5.8 39.0 C 5.8 37.8 3.4 37.8 3.4 38.9 C 3.4 40.0 3.4 41.0 3.5 42.0 C 3.5 43.1 3.6 44.5 3.6 45.6 C 3.6 46.7 3.3 48.3 3.4 49.5 C 3.6 50.8 3.6 53.1 3.7 54.0 C 3.7 55.2 3.6 57.4 3.8 58.3 C 4.0 59.4 3.9 61.2 3.7 61.9 C 3.5 62.5 3.9 62.9 4.0 64.1 C 4.1 64.9 4.2 66.1 4.5 67.1 C 4.5 67.1 4.5 67.1 4.5 67.1 Z M 4.6 67.5 C 4.9 68.7 6.5 71.0 6.8 71.6 C 7.2 72.1 8.3 73.9 9.0 74.6 C 9.7 75.2 10.1 75.4 11.4 76.3 C 13.1 77.5 14.3 78.2 14.4 78.3 C 14.6 78.5 15.6 79.2 16.7 79.4 C 18.2 79.7 18.6 80.0 19.3 80.0 C 20.5 79.9 20.5 80.2 21.5 80.2 C 22.4 80.3 23.0 80.4 23.9 80.3 C 24.8 80.2 25.4 80.6 26.4 80.6 C 27.9 80.6 27.7 78.1 26.4 78.1 C 25.6 78.1 24.9 78.3 24.1 78.3 C 23.3 78.3 22.7 78.2 22.0 78.0 C 21.4 77.8 20.0 77.8 19.1 77.6 C 18.1 77.3 16.6 76.8 15.3 76.3 C 14.0 75.7 12.8 75.9 11.0 73.6 C 10.4 72.9 9.2 71.6 8.7 71.0 C 8.0 69.9 7.1 67.5 6.9 66.7 C 6.6 65.6 4.2 66.2 4.6 67.5 C 4.6 67.5 4.6 67.5 4.6 67.5 Z M 32.7 81.3 C 32.7 81.3 32.8 81.2 32.8 79.8 C 32.8 78.5 32.7 77.4 32.7 77.4 C 32.7 77.4 32.7 78.2 32.7 78.2 C 32.7 78.2 32.7 80.6 32.7 80.6 C 32.7 80.6 32.7 81.3 32.7 81.3 C 32.7 81.3 32.7 81.3 32.7 81.3 Z M 32.6 77.4 C 32.6 77.4 32.6 78.1 32.6 79.4 C 32.6 80.7 32.6 81.3 32.6 81.3 C 32.6 81.3 32.6 80.6 32.7 80.6 C 32.7 80.6 32.7 78.2 32.7 78.2 C 32.6 78.2 32.6 77.4 32.6 77.4 C 32.6 77.4 32.6 77.4 32.6 77.4 Z M 32.6 77.4 " fill="#FF7777"></path><g><clipPath id="clip-90"><path d="M 4.6 5.1 L 118.6 5.1 L 118.6 79.4 L 4.6 79.4 Z M 4.6 5.1 "></path></clipPath><g clip-path="url(#clip-90)"><text xml:space="preserve" font-family="AmericanTypewriter" font-size="20.0" fill="#000000" transform="matrix(1.00, 0.00, -0.00, -1.00, 45.0, 35.0)">V</text><text xml:space="preserve" font-family="AmericanTypewriter" font-size="20.0" fill="#000000" transform="matrix(1.00, 0.00, -0.00, -1.00, 59.6, 35.0)">M</text></g></g></g></svg>