<?xml version="1.0" encoding="UTF-8" standalone="no"?><svg xmlns="http://www.w3.org/2000/svg" xmlns:xlink="http://www.w3.org/1999/xlink" clip-rule="evenodd" stroke-miterlimit="4.00" viewBox="0 0 209 34"><desc>SVG generated by Keynote</desc><defs></defs><g transform="matrix(1.00, 0.00, -0.00, -1.00, 0.0, 34.0)"><text xml:space="preserve" font-family="AmericanTypewriter" font-size="30.0" fill="#FEFFFE" transform="matrix(1.00, -0.02, -0.02, -1.00, 0.7, 11.4)">C</text><text xml:space="preserve" font-family="AmericanTypewriter" font-size="30.0" fill="#FEFFFE" transform="matrix(1.00, -0.02, -0.02, -1.00, 19.8, 11.0)">o</text><text xml:space="preserve" font-family="AmericanTypewriter" font-size="30.0" fill="#FEFFFE" transform="matrix(1.00, -0.02, -0.02, -1.00, 36.2, 10.7)">m</text><text xml:space="preserve" font-family="AmericanTypewriter" font-size="30.0" fill="#FEFFFE" transform="matrix(1.00, -0.02, -0.02, -1.00, 63.2, 10.2)">p</text><text xml:space="preserve" font-family="AmericanTypewriter" font-size="30.0" fill="#FEFFFE" transform="matrix(1.00, -0.02, -0.02, -1.00, 81.2, 9.8)">u</text><text xml:space="preserve" font-family="AmericanTypewriter" font-size="30.0" fill="#FEFFFE" transform="matrix(1.00, -0.02, -0.02, -1.00, 99.8, 9.5)">t</text><text xml:space="preserve" font-family="AmericanTypewriter" font-size="30.0" fill="#FEFFFE" transform="matrix(1.00, -0.02, -0.02, -1.00, 111.8, 9.3)">e</text><text xml:space="preserve" font-family="AmericanTypewriter" font-size="30.0" fill="#FEFFFE" transform="matrix(1.00, -0.02, -0.02, -1.00, 127.6, 8.9)"> </text><text xml:space="preserve" font-family="AmericanTypewriter" font-size="30.0" fill="#FEFFFE" transform="matrix(1.00, -0.02, -0.02, -1.00, 135.1, 8.8)">N</text><text xml:space="preserve" font-family="AmericanTypewriter" font-size="30.0" fill="#FEFFFE" transform="matrix(1.00, -0.02, -0.02, -1.00, 157.1, 8.4)">o</text><text xml:space="preserve" font-family="AmericanTypewriter" font-size="30.0" fill="#FEFFFE" transform="matrix(1.00, -0.02, -0.02, -1.00, 173.4, 8.1)">d</text><text xml:space="preserve" font-family="AmericanTypewriter" font-size="30.0" fill="#FEFFFE" transform="matrix(1.00, -0.02, -0.02, -1.00, 191.4, 7.7)">e</text></g></svg>