<?xml version="1.0" encoding="UTF-8" standalone="no"?><svg xmlns="http://www.w3.org/2000/svg" xmlns:xlink="http://www.w3.org/1999/xlink" clip-rule="evenodd" stroke-miterlimit="4.00" viewBox="0 0 119 63"><desc>SVG generated by Keynote</desc><defs></defs><g transform="matrix(1.00, 0.00, -0.00, -1.00, 0.0, 63.0)"><path d="M 5.4 57.8 L 113.3 57.8 L 113.3 5.5 L 5.4 5.5 Z M 5.4 57.8 " fill="#010101"></path><path d="M 117.2 19.1 C 117.1 18.9 117.1 18.6 117.1 18.1 C 117.0 18.3 117.0 18.5 116.9 18.6 C 116.9 18.9 117.0 19.4 116.9 20.2 C 117.0 20.2 117.0 19.8 117.0 19.5 C 117.0 19.2 117.1 19.2 117.2 19.1 C 117.2 19.1 117.2 19.1 117.2 19.1 Z M 44.3 2.2 C 45.0 2.2 44.2 1.9 44.0 1.9 C 43.9 2.0 43.9 2.0 43.7 2.0 C 43.6 1.8 44.1 1.7 44.5 1.7 C 46.3 1.8 45.1 2.2 44.3 2.2 C 44.3 2.2 44.3 2.2 44.3 2.2 Z M 2.2 43.5 C 2.2 44.8 2.5 43.5 2.6 43.3 C 2.6 43.9 3.0 43.5 3.0 44.3 C 2.9 44.4 2.8 44.7 2.7 44.8 C 2.7 44.5 2.7 44.0 2.6 43.9 C 2.6 44.4 2.7 45.0 2.6 45.1 C 2.5 44.0 2.3 44.9 2.2 45.0 C 2.2 44.1 2.0 43.7 2.2 43.5 C 2.2 43.5 2.2 43.5 2.2 43.5 Z M 58.3 60.5 C 58.0 60.5 57.6 60.5 57.7 60.3 C 58.1 60.3 58.3 60.4 58.6 60.4 C 58.6 60.3 58.4 60.2 58.8 60.2 C 59.3 60.4 59.2 60.7 59.1 60.8 C 59.0 60.6 57.7 60.7 58.3 60.5 C 58.3 60.5 58.3 60.5 58.3 60.5 Z M 92.0 60.1 C 93.3 60.2 91.8 59.7 93.0 59.8 C 93.2 60.1 93.5 60.3 92.8 60.3 C 92.6 60.2 92.2 60.2 92.0 60.1 C 92.0 60.1 92.0 60.1 92.0 60.1 Z M 4.1 10.0 C 3.9 9.8 4.0 10.7 3.8 10.3 C 3.8 9.9 3.8 9.5 3.8 9.1 C 3.9 9.2 4.1 9.4 4.1 10.0 C 4.1 10.0 4.1 10.0 4.1 10.0 Z M 4.6 53.0 C 4.3 54.4 4.7 55.9 4.4 55.4 C 4.2 55.9 3.7 54.4 4.0 54.5 C 4.3 54.4 4.5 52.0 4.6 53.0 C 4.6 53.0 4.6 53.0 4.6 53.0 Z M 38.8 6.3 C 37.3 6.1 37.9 6.8 36.8 6.5 C 37.1 6.5 37.2 6.4 37.3 6.3 C 37.1 6.3 36.8 6.3 36.7 6.2 C 37.4 6.2 38.1 6.1 38.8 6.3 C 38.8 6.3 38.8 6.3 38.8 6.3 Z M 116.6 41.8 C 116.6 42.1 116.7 42.2 116.8 42.2 C 116.7 43.2 116.9 43.3 116.8 43.9 C 116.4 43.8 116.6 42.9 116.6 42.2 C 116.6 42.1 116.5 41.8 116.6 41.8 C 116.6 41.8 116.6 41.8 116.6 41.8 Z M 106.8 60.2 C 107.0 60.4 107.7 60.5 106.8 60.6 C 105.6 60.3 106.3 60.1 107.2 59.9 C 107.1 59.8 107.0 59.7 106.9 59.6 C 106.5 59.6 106.2 59.6 105.9 59.5 C 106.0 59.9 104.8 59.2 103.4 59.4 C 104.0 59.3 103.0 59.0 104.0 59.1 C 103.6 58.9 104.3 58.9 104.0 58.7 C 103.7 58.8 102.6 58.8 103.1 59.1 C 102.6 59.1 102.2 59.1 101.9 59.0 C 101.3 58.8 102.8 59.0 102.2 58.7 C 101.9 58.7 101.8 58.7 101.5 58.6 C 101.6 58.7 101.8 58.9 101.5 58.9 C 100.4 58.8 101.4 58.6 100.0 58.6 C 100.0 58.7 100.5 58.7 100.6 58.9 C 100.1 59.0 99.9 58.8 99.4 59.0 C 99.2 58.8 99.7 58.8 99.2 58.7 C 99.2 59.1 97.8 58.5 97.2 58.8 C 98.2 59.3 97.0 58.7 96.7 59.2 C 96.4 59.1 96.6 58.7 96.0 58.7 C 96.7 59.3 93.9 59.2 96.5 59.7 C 95.3 59.7 95.4 60.2 96.3 60.2 C 94.2 60.1 95.1 60.4 94.4 60.5 C 93.6 60.5 94.7 60.3 94.2 60.2 C 95.0 60.2 94.7 60.0 95.4 60.2 C 95.3 60.1 95.4 60.0 95.5 59.9 C 94.8 60.1 93.6 59.7 93.9 59.4 C 94.3 59.5 94.2 59.7 94.7 59.8 C 94.3 59.4 95.4 59.8 95.2 59.6 C 94.6 59.3 95.5 59.0 94.4 59.0 C 94.5 59.1 94.6 59.2 94.7 59.4 C 94.4 59.4 94.1 59.4 93.8 59.4 C 93.4 59.1 93.4 59.0 93.1 58.9 C 92.6 58.9 92.4 58.9 92.4 59.0 C 93.0 59.1 93.9 59.3 92.9 59.4 C 92.9 58.9 91.4 59.2 92.0 59.0 C 90.8 58.8 90.5 59.2 90.2 58.9 C 89.6 58.9 90.2 59.1 89.5 59.1 C 88.2 58.9 88.7 59.2 87.0 59.0 C 87.2 59.4 86.8 59.0 86.4 59.0 C 86.5 59.1 86.6 59.2 86.7 59.4 C 86.0 59.1 84.7 59.0 83.6 59.3 C 83.3 59.2 83.3 59.0 82.6 59.0 C 81.9 59.4 80.6 59.0 79.8 59.4 C 79.6 59.2 78.9 59.2 78.6 59.3 C 78.3 59.2 78.7 58.9 78.0 58.9 C 77.7 59.1 78.6 59.2 77.7 59.3 C 77.6 59.0 77.0 59.5 76.7 59.2 C 77.0 59.1 77.3 59.0 77.5 59.0 C 77.1 59.0 77.1 58.8 76.8 58.8 C 77.1 59.1 76.1 58.8 75.9 58.8 C 76.0 58.9 76.0 59.0 75.8 59.1 C 75.3 59.1 74.9 59.1 74.7 59.2 C 73.9 59.1 74.9 59.0 74.2 59.0 C 74.3 59.6 73.2 58.9 72.0 59.3 C 71.6 59.1 71.0 59.0 70.1 59.0 C 70.1 59.1 71.0 59.0 71.1 59.2 C 69.8 59.1 71.4 59.4 70.6 59.4 C 68.6 59.2 67.4 59.2 65.4 59.0 C 65.5 59.2 64.0 59.4 64.0 59.3 C 64.4 59.2 63.0 59.0 62.4 59.0 C 62.4 59.4 61.6 59.7 61.6 59.9 C 61.3 59.7 61.4 59.7 61.1 59.4 C 59.9 59.2 59.5 59.6 58.6 59.2 C 58.8 59.4 58.3 59.4 57.9 59.5 C 57.9 59.3 58.1 59.2 58.2 59.0 C 57.7 59.1 57.5 58.9 57.0 59.0 C 56.8 59.6 55.5 58.8 55.4 59.4 C 54.6 59.4 54.6 59.2 53.8 59.2 C 53.9 59.3 53.9 59.4 53.7 59.5 C 54.2 59.4 54.5 59.2 54.9 59.5 C 53.8 59.6 57.4 60.2 55.6 60.5 C 55.5 60.4 55.6 60.2 55.2 60.2 C 54.1 60.3 54.9 60.5 55.3 60.5 C 54.6 60.6 53.8 60.5 54.6 60.8 C 52.9 60.9 53.9 60.7 53.3 60.6 C 50.3 60.8 46.6 60.8 42.4 60.6 C 42.4 60.9 40.1 60.6 39.4 60.4 C 38.3 60.6 37.1 60.7 36.7 60.4 C 36.5 60.7 35.2 60.2 35.2 60.5 C 35.6 60.5 36.0 60.6 35.5 60.6 C 33.8 60.5 31.3 60.4 30.4 60.6 C 29.7 60.3 28.7 60.4 28.0 60.6 C 27.8 60.4 28.4 60.4 27.9 60.3 C 27.8 60.5 26.3 60.7 25.9 60.5 C 26.3 60.5 26.8 60.2 26.1 60.2 C 26.1 60.3 25.3 60.3 25.5 60.5 C 24.5 60.3 24.0 60.5 23.1 60.4 C 23.8 60.4 24.2 60.3 24.3 60.1 C 23.7 60.2 23.3 60.3 22.8 60.1 C 22.9 60.4 22.0 60.2 21.0 60.4 C 20.8 60.3 20.5 60.1 19.8 60.2 C 19.4 60.4 21.0 60.4 20.1 60.5 C 20.1 60.4 19.3 60.2 19.5 60.5 C 18.5 60.3 17.9 60.5 17.1 60.3 C 18.2 60.4 17.3 60.0 17.1 60.0 C 16.8 60.0 16.5 60.0 16.5 60.1 C 16.5 60.2 17.0 60.1 17.1 60.2 C 16.4 60.1 16.2 60.6 15.9 60.3 C 16.2 60.3 16.3 60.2 15.9 60.2 C 15.8 60.5 13.7 60.3 14.4 60.1 C 14.4 60.2 15.2 60.2 15.3 60.1 C 15.0 59.9 13.8 60.1 14.1 59.8 C 14.8 59.8 14.7 60.0 15.6 59.9 C 15.6 59.8 16.1 59.7 16.4 59.6 C 15.1 59.6 14.8 59.9 14.6 59.6 C 14.1 59.6 14.4 59.9 13.5 59.8 C 12.1 59.8 13.2 59.5 12.9 59.4 C 11.6 59.6 12.0 59.9 12.6 60.2 C 11.6 60.1 11.3 60.3 10.2 60.2 C 10.2 60.1 10.4 60.0 10.8 59.9 C 10.8 60.0 11.8 60.2 11.7 60.0 C 11.6 59.6 10.8 59.5 9.6 59.4 C 9.9 59.8 9.9 59.6 8.7 59.6 C 8.9 59.9 8.1 59.5 8.1 59.8 C 8.1 59.9 8.6 59.8 9.0 59.8 C 9.0 60.0 8.8 60.1 8.4 60.2 C 8.1 60.0 7.9 60.2 7.2 60.1 C 7.1 59.9 7.7 59.8 7.8 59.7 C 7.4 59.7 7.3 59.8 6.9 59.8 C 6.5 59.6 6.5 59.3 6.6 59.0 C 7.0 58.9 7.8 58.9 7.2 58.7 C 8.9 58.7 7.1 59.1 7.8 59.1 C 8.5 58.8 8.1 59.2 9.2 59.2 C 9.6 59.2 9.7 59.1 9.8 59.0 C 9.8 59.0 9.1 58.7 9.8 58.7 C 10.0 58.9 10.4 59.0 11.0 59.0 C 11.0 58.9 9.8 58.8 11.0 58.8 C 11.6 58.8 11.1 59.1 11.9 59.1 C 11.9 59.0 12.2 59.0 12.2 59.0 C 11.0 59.0 12.4 58.8 11.6 58.6 C 12.6 58.5 11.8 58.9 12.5 58.9 C 12.5 58.7 13.7 59.0 13.7 58.7 C 13.2 58.8 12.4 58.8 12.5 58.5 C 13.3 58.6 16.8 58.4 15.5 58.8 C 16.0 58.6 18.6 58.3 18.4 58.5 C 17.6 58.4 17.6 58.6 17.5 58.8 C 19.0 58.5 19.8 58.7 21.3 58.4 C 19.6 58.3 20.8 57.9 19.8 57.8 C 19.3 57.8 18.7 57.7 18.6 57.8 C 18.8 58.1 19.5 58.0 19.8 57.8 C 19.8 58.0 19.8 58.3 19.9 58.5 C 17.9 58.2 16.9 58.5 16.0 58.4 C 16.8 58.4 14.5 58.1 15.4 58.0 C 15.8 58.2 16.7 58.2 17.5 58.2 C 17.5 58.2 17.5 58.1 17.5 58.0 C 17.8 58.0 18.3 58.0 18.3 57.9 C 17.3 58.0 16.7 57.7 16.0 57.9 C 16.0 57.9 15.9 57.8 15.9 57.8 C 15.8 57.7 15.6 57.7 15.6 57.7 C 16.0 57.7 16.5 57.7 16.5 57.6 C 15.8 57.5 15.6 57.3 14.7 57.3 C 14.9 57.0 13.7 56.7 15.0 56.6 C 15.2 56.8 15.9 56.9 15.9 57.0 C 16.3 57.1 17.0 57.1 17.3 57.0 C 17.0 56.8 16.2 56.7 16.1 56.5 C 16.7 56.4 17.2 56.3 17.6 56.6 C 16.3 56.7 18.3 56.8 18.8 57.0 C 18.6 56.9 18.3 56.8 18.2 56.7 C 19.1 56.7 19.6 56.9 19.6 56.6 C 20.8 56.4 20.5 56.7 21.4 56.7 C 20.8 56.4 21.9 56.6 21.3 56.2 C 22.6 56.2 21.7 56.5 22.2 56.6 C 22.6 56.5 22.7 56.4 23.1 56.4 C 23.7 56.6 25.0 56.6 25.2 56.9 C 25.7 56.9 25.8 57.0 26.4 57.0 C 26.5 56.9 26.6 56.8 26.9 56.7 C 27.0 56.8 27.4 56.9 27.5 56.8 C 25.9 56.4 26.3 56.4 24.7 56.2 C 24.7 56.3 24.4 56.3 24.8 56.4 C 23.7 56.5 23.4 56.3 22.5 56.3 C 22.3 56.1 22.1 55.8 21.3 56.0 C 21.4 55.7 21.2 55.7 21.5 55.6 C 22.0 55.7 22.6 55.8 23.3 55.9 C 23.3 55.8 23.2 55.7 23.5 55.7 C 23.8 55.8 24.3 55.9 24.7 55.8 C 24.7 55.9 24.6 55.9 24.4 56.0 C 25.9 56.1 25.3 55.7 26.4 55.9 C 26.2 55.8 25.5 55.8 26.1 55.6 C 27.1 55.5 27.3 55.7 27.8 55.8 C 27.9 55.7 27.8 55.6 28.1 55.6 C 28.9 55.8 26.7 56.1 28.0 56.4 C 28.0 56.1 29.2 56.2 29.5 56.4 C 29.1 56.6 28.3 56.3 28.3 56.5 C 30.5 56.5 28.4 56.9 30.7 57.0 C 30.7 56.9 30.7 56.7 30.7 56.6 C 29.8 56.7 29.7 56.5 29.7 56.2 C 28.9 56.2 28.5 55.9 27.9 56.1 C 28.1 55.6 28.6 56.1 29.4 56.1 C 29.3 55.8 28.6 55.8 28.4 55.6 C 30.3 55.8 30.6 55.5 32.5 55.8 C 32.0 55.6 33.4 55.8 33.3 55.6 C 31.7 55.6 32.2 55.0 31.9 54.9 C 31.0 54.9 31.5 55.4 31.0 55.5 C 30.6 55.3 30.7 55.1 30.8 54.8 C 31.7 54.9 31.5 54.8 32.2 54.7 C 32.8 54.9 33.5 55.4 32.7 55.5 C 32.9 55.5 34.0 55.3 34.1 55.5 C 33.0 55.5 34.3 55.6 33.6 55.8 C 34.5 55.9 36.0 55.6 37.1 55.8 C 37.0 55.7 37.4 55.7 37.3 55.5 C 36.3 55.8 35.9 55.2 34.9 55.2 C 35.3 55.2 35.1 55.0 34.8 55.0 C 35.9 55.1 36.4 54.9 37.2 55.1 C 37.1 55.0 37.1 55.0 37.1 54.9 C 38.4 55.1 38.2 55.0 39.1 54.8 C 39.5 54.9 39.1 55.4 39.1 55.6 C 39.5 55.5 41.1 55.5 40.1 55.3 C 41.1 55.3 40.9 55.6 41.9 55.6 C 41.9 55.3 40.9 55.4 41.2 55.0 C 42.1 55.0 41.7 55.3 42.3 55.1 C 42.4 55.3 42.5 55.5 43.3 55.5 C 42.7 55.3 43.4 55.4 43.5 55.3 C 43.2 55.2 42.8 55.2 42.6 55.1 C 44.1 55.2 44.3 55.2 45.5 55.1 C 45.1 55.4 45.8 55.5 45.1 55.6 C 45.7 55.4 46.8 55.7 47.1 55.6 C 46.6 55.5 45.9 55.5 45.5 55.4 C 47.8 55.3 48.9 55.0 51.0 55.4 C 50.7 55.4 50.2 55.3 50.2 55.4 C 50.4 55.5 50.8 55.4 50.8 55.5 C 50.1 55.5 49.4 55.5 49.1 55.6 C 48.4 55.5 49.4 55.4 48.7 55.4 C 48.7 55.5 47.4 55.4 48.0 55.7 C 49.0 55.4 50.1 55.7 50.7 56.1 C 51.6 55.6 50.6 55.7 51.5 55.2 C 51.6 55.3 51.8 55.4 52.2 55.4 C 51.7 55.1 53.1 55.3 53.3 55.3 C 52.8 55.4 51.0 55.6 52.1 55.9 C 51.4 55.3 54.4 56.1 53.7 55.6 C 54.9 55.5 54.6 55.9 55.1 55.6 C 55.2 55.7 55.2 55.8 55.5 55.8 C 55.9 55.8 55.9 55.7 56.0 55.7 C 54.3 55.5 54.6 55.2 53.5 55.2 C 53.7 55.2 53.9 55.2 53.8 55.1 C 53.7 55.1 53.8 55.0 54.0 55.0 C 54.2 55.3 54.9 55.0 55.2 55.2 C 54.9 55.2 54.6 55.2 54.7 55.4 C 56.1 55.3 56.0 55.6 58.1 55.8 C 57.4 55.6 58.2 55.5 58.8 55.5 C 59.8 55.5 59.6 55.9 60.8 55.9 C 60.3 55.3 62.0 56.0 63.2 55.6 C 63.2 55.9 65.1 56.0 65.3 55.8 C 65.4 55.9 66.0 55.8 66.5 55.8 C 66.7 56.0 66.2 56.0 66.6 56.1 C 67.0 56.0 66.5 55.8 67.0 55.8 C 67.7 55.8 67.7 56.1 68.6 56.1 C 68.5 55.9 68.1 55.9 68.4 55.8 C 69.3 55.9 70.0 55.8 69.2 55.6 C 70.4 55.6 70.1 56.0 71.2 56.0 C 70.8 55.9 70.8 55.8 71.3 55.8 C 71.9 55.9 72.0 56.0 72.2 56.1 C 72.4 55.9 72.2 55.9 73.2 56.0 C 73.1 55.9 73.1 55.8 73.0 55.7 C 73.4 55.7 74.0 55.6 74.2 55.7 C 73.4 55.7 73.8 55.9 73.5 56.0 C 74.3 56.0 76.0 56.3 74.7 56.0 C 75.7 55.9 75.4 56.2 76.2 56.1 C 75.5 55.9 76.1 56.1 77.0 56.1 C 76.7 55.7 77.6 56.0 78.1 56.0 C 77.9 55.8 78.0 55.7 78.5 55.7 C 78.5 55.8 78.9 55.9 79.4 55.8 C 79.4 55.7 78.1 55.6 79.3 55.6 C 79.9 55.7 80.1 56.0 81.0 56.0 C 81.4 56.2 80.3 56.1 80.7 56.4 C 81.3 56.2 81.6 56.3 82.7 56.4 C 82.0 55.9 84.4 55.8 83.0 55.6 C 83.4 55.6 83.7 55.3 84.1 55.5 C 83.8 55.6 84.6 55.8 84.6 55.8 C 85.1 55.8 86.4 55.9 86.3 55.8 C 85.2 55.8 85.1 55.6 84.6 55.4 C 86.1 55.3 87.6 55.4 87.7 55.7 C 87.6 55.6 87.8 55.6 87.8 55.5 C 87.3 55.6 86.6 55.1 87.3 55.1 C 87.3 55.4 87.8 55.4 88.4 55.5 C 88.2 55.3 90.6 55.6 89.9 55.3 C 89.3 55.5 88.3 55.1 88.8 55.0 C 89.5 55.2 90.8 55.3 90.7 55.5 C 90.9 55.4 91.2 55.4 91.4 55.3 C 91.4 55.0 90.8 55.1 90.8 54.9 C 91.2 54.9 91.8 54.8 92.0 55.0 C 90.9 55.0 92.7 55.1 91.7 55.3 C 92.4 55.3 92.6 55.4 93.2 55.4 C 93.2 55.3 93.4 55.3 93.4 55.3 C 93.0 55.4 92.4 55.3 92.3 55.0 C 93.3 55.0 93.4 55.3 94.2 55.3 C 94.4 55.1 95.2 54.8 96.0 55.0 C 94.8 54.9 96.2 55.1 95.6 55.2 C 94.4 55.0 94.4 55.3 94.2 55.5 C 94.7 55.6 95.7 55.7 95.5 55.4 C 94.9 55.4 95.1 55.5 94.8 55.6 C 94.7 55.4 94.8 55.3 95.1 55.3 C 95.7 55.4 96.6 55.3 96.2 55.6 C 96.8 55.4 97.9 55.7 98.5 55.5 C 97.6 55.5 96.9 55.4 96.5 55.2 C 97.1 55.1 98.0 55.4 97.9 55.2 C 97.6 55.0 96.6 55.1 96.2 54.9 C 96.9 54.6 98.8 55.3 97.3 54.8 C 97.8 54.8 98.5 54.8 98.8 55.0 C 98.2 55.0 99.2 55.3 99.5 55.4 C 100.0 55.3 100.4 55.3 100.5 55.2 C 99.8 55.3 98.9 55.0 99.4 55.0 C 99.7 55.1 99.7 54.9 99.9 54.9 C 100.1 55.0 100.9 54.9 101.2 55.0 C 101.0 54.9 100.6 54.9 100.4 54.8 C 100.9 54.7 101.3 54.4 102.0 54.7 C 101.7 54.7 101.2 54.7 101.3 54.8 C 103.1 55.1 103.8 55.4 105.7 55.6 C 105.5 55.6 105.5 55.7 105.6 55.8 C 106.7 55.8 107.6 55.9 107.6 56.1 C 108.3 56.0 108.5 55.9 108.7 55.8 C 107.9 55.6 107.9 55.8 107.2 55.7 C 107.5 55.6 106.2 55.2 105.8 55.0 C 104.8 55.3 104.3 54.9 103.2 55.0 C 103.3 54.8 102.2 55.0 102.3 54.7 C 103.9 55.1 104.7 54.8 106.5 55.0 C 106.5 55.2 106.5 55.3 107.3 55.4 C 108.5 55.6 107.6 55.2 108.6 55.3 C 109.2 55.5 108.7 55.5 109.2 55.6 C 109.4 55.5 110.3 55.5 110.8 55.8 C 109.6 55.7 111.2 56.0 110.5 56.1 C 110.9 56.1 111.2 56.1 111.5 56.2 C 110.7 56.0 111.0 55.9 111.3 55.8 C 111.2 55.5 111.2 55.2 111.1 55.5 C 111.0 53.9 111.7 56.0 111.6 54.7 C 111.5 55.1 111.4 54.2 111.4 53.4 C 111.7 53.4 111.7 52.4 111.8 51.8 C 111.6 52.0 111.6 52.3 111.5 51.5 C 111.4 51.8 111.4 52.4 111.5 52.9 C 111.4 52.8 111.3 52.9 111.2 53.0 C 111.2 52.0 111.1 52.3 111.0 51.9 C 111.1 51.8 111.1 51.1 111.2 51.1 C 111.2 51.0 111.1 50.7 111.1 50.7 C 111.1 51.8 110.7 50.2 110.7 50.9 C 110.7 51.4 110.9 51.3 110.9 51.9 C 110.6 52.2 110.6 51.1 110.4 50.6 C 110.2 50.9 110.5 51.8 110.2 51.8 C 109.9 50.9 110.1 50.0 110.2 49.2 C 109.9 49.0 110.3 47.8 109.9 47.4 C 110.0 47.3 110.1 47.2 110.1 47.1 C 109.9 46.6 110.2 46.6 110.2 46.3 C 110.1 46.2 110.0 46.2 109.9 46.4 C 110.0 45.4 110.0 45.2 109.9 43.8 C 110.0 43.7 110.2 43.6 110.4 43.6 C 110.4 43.9 110.4 44.2 110.5 44.4 C 110.5 42.7 109.9 43.5 110.3 42.5 C 110.2 42.5 109.9 43.2 109.8 42.5 C 110.1 41.6 109.8 39.9 110.5 40.2 C 110.7 39.3 110.3 38.5 110.6 38.2 C 110.6 37.9 110.5 37.7 110.4 37.6 C 110.3 37.9 110.2 38.2 110.0 38.5 C 110.2 39.1 109.9 39.3 110.3 38.9 C 110.3 39.7 110.1 39.9 110.0 40.3 C 109.9 39.1 110.1 38.1 109.7 37.9 C 109.9 37.6 110.0 37.3 110.2 37.0 C 110.0 36.9 109.9 35.5 110.2 35.5 C 110.1 36.3 110.4 37.4 110.6 36.6 C 110.4 34.3 110.9 33.1 110.6 31.1 C 110.7 31.0 110.9 31.2 110.9 30.8 C 110.8 30.8 110.7 30.7 110.6 30.5 C 110.6 29.9 110.7 29.5 110.7 28.7 C 110.9 28.7 111.1 28.6 111.2 28.1 C 110.9 27.9 110.4 27.1 110.5 26.6 C 110.5 27.1 110.8 26.4 110.8 26.0 C 110.5 26.4 111.1 23.5 110.8 24.4 C 110.8 23.3 110.9 22.8 111.0 22.7 C 111.0 22.4 110.9 22.1 110.8 21.7 C 111.2 21.4 110.9 19.6 111.1 19.2 C 111.0 19.9 111.3 19.9 111.3 19.4 C 111.1 19.1 110.9 17.5 111.0 17.1 C 111.1 17.2 111.3 17.2 111.4 18.0 C 111.4 16.5 111.1 16.8 110.8 16.4 C 111.2 16.3 110.9 15.8 110.8 15.6 C 111.0 15.1 110.9 15.6 111.2 15.4 C 111.2 14.9 111.3 14.6 111.3 13.9 C 111.1 14.3 111.2 13.5 111.2 13.2 C 111.1 13.2 111.0 12.9 110.9 12.4 C 111.3 12.8 111.4 8.6 111.1 9.8 C 110.9 9.2 111.4 8.7 111.3 7.7 C 111.3 7.7 111.3 7.6 111.2 7.5 C 111.0 7.6 110.8 7.6 111.1 7.7 C 111.1 7.7 111.1 7.7 111.1 7.7 C 111.1 7.7 111.1 7.7 111.1 7.7 C 110.1 7.7 111.0 7.4 109.8 7.5 C 110.0 7.8 108.8 7.4 108.7 7.8 C 108.6 7.4 107.2 8.0 106.7 7.6 C 106.6 7.7 106.3 7.7 106.2 7.8 C 106.0 7.9 107.1 8.0 106.3 8.0 C 105.5 7.8 106.1 7.7 106.1 7.6 C 103.4 7.7 100.4 7.6 97.7 7.5 C 97.9 7.6 97.8 7.7 97.2 7.8 C 96.8 7.3 93.4 7.5 92.8 7.7 C 92.7 7.4 90.8 7.7 90.6 7.5 C 90.9 7.5 91.7 7.3 91.0 7.3 C 90.4 7.6 90.0 7.4 89.2 7.6 C 89.0 7.3 86.8 7.6 88.0 7.1 C 87.6 7.1 87.4 7.1 87.2 7.0 C 87.0 7.3 86.6 7.3 87.3 7.4 C 85.5 7.2 85.0 7.5 83.7 7.3 C 83.3 7.4 84.4 7.5 83.5 7.6 C 83.5 7.5 83.6 7.5 83.6 7.4 C 83.3 7.4 83.1 7.6 83.0 7.4 C 83.2 7.3 83.6 7.3 83.8 7.0 C 83.0 7.1 82.7 6.8 82.4 7.0 C 83.3 7.1 82.4 7.5 82.0 7.3 C 82.6 7.1 79.7 7.3 78.8 7.4 C 78.5 7.1 79.8 7.4 79.7 7.2 C 78.1 7.3 78.2 7.1 77.9 7.4 C 77.1 7.4 76.8 7.2 75.7 7.4 C 75.1 7.2 76.1 7.2 75.5 7.1 C 75.1 7.2 74.9 7.3 74.3 7.4 C 72.9 6.8 69.2 7.7 67.6 6.9 C 68.2 7.1 67.3 7.2 66.4 7.2 C 66.3 7.1 66.5 7.0 66.1 7.0 C 66.2 7.1 65.9 7.2 65.3 7.2 C 65.2 7.1 65.3 7.0 65.0 7.0 C 64.7 7.3 64.0 7.0 63.5 7.1 C 63.4 6.8 64.6 7.0 64.7 6.8 C 63.2 6.6 63.0 6.9 61.9 6.8 C 62.5 6.8 61.5 6.6 61.3 6.5 C 61.5 6.8 60.6 6.9 61.3 7.0 C 60.9 7.0 60.2 7.1 60.1 7.0 C 60.4 6.9 60.7 7.0 60.7 6.9 C 60.2 6.9 59.5 6.6 59.3 6.9 C 59.6 6.9 59.9 7.0 59.9 7.1 C 59.7 7.2 59.5 7.3 59.3 7.4 C 60.1 6.7 57.7 7.0 57.6 7.2 C 57.3 6.8 57.2 6.8 57.3 6.6 C 56.3 6.6 56.4 6.9 55.8 7.0 C 56.0 6.7 56.2 6.5 55.2 6.3 C 55.5 6.6 54.3 6.6 54.7 7.0 C 52.4 7.1 51.8 6.7 50.4 6.7 C 50.4 6.8 50.8 6.8 50.4 6.9 C 49.7 6.8 49.1 6.7 48.6 6.6 C 48.3 6.8 48.8 6.8 48.4 6.9 C 47.3 6.6 47.5 6.4 46.5 6.2 C 45.4 6.4 45.8 6.2 45.2 6.5 C 45.5 6.5 45.9 6.6 45.5 6.6 C 44.7 6.4 44.4 6.1 44.2 6.1 C 44.7 6.1 45.1 6.1 45.4 6.2 C 45.5 6.0 46.2 6.0 45.6 5.8 C 46.3 5.9 47.2 5.9 48.2 5.9 C 47.8 5.7 49.2 5.9 48.7 5.6 C 47.5 5.7 47.2 5.5 46.1 5.5 C 46.4 5.8 45.2 5.7 44.9 5.6 C 45.0 5.8 44.2 5.7 44.4 5.9 C 43.6 6.0 43.5 5.8 42.7 5.8 C 42.6 5.7 42.7 5.6 42.3 5.6 C 42.1 5.9 41.7 5.5 41.4 5.5 C 41.7 5.8 40.4 5.6 40.3 5.8 C 40.7 5.8 41.2 5.8 41.3 5.9 C 39.8 5.9 41.0 6.1 41.4 6.3 C 41.3 6.2 41.7 5.9 41.9 6.1 C 40.8 6.3 43.7 6.5 42.6 6.4 C 41.6 6.3 41.8 6.5 40.8 6.5 C 39.6 6.0 40.8 5.8 39.6 5.4 C 39.0 5.6 38.5 5.6 38.6 5.8 C 38.4 5.7 38.2 5.6 37.9 5.6 C 37.7 5.7 38.9 5.9 38.0 5.9 C 37.6 5.9 37.9 5.5 37.0 5.6 C 36.7 5.8 38.3 5.8 37.4 5.9 C 36.4 5.5 37.7 6.0 36.7 6.1 C 36.6 6.0 36.4 6.0 36.0 6.0 C 35.9 5.9 36.0 5.7 35.6 5.7 C 35.6 6.1 35.1 5.5 34.4 5.6 C 34.1 5.9 35.3 5.7 35.2 6.0 C 34.1 5.7 33.8 6.0 33.4 6.0 C 34.0 5.8 32.2 5.8 32.1 5.6 C 32.4 5.9 31.9 5.7 31.1 6.0 C 30.8 5.5 29.8 5.9 29.4 5.5 C 29.3 5.6 29.0 5.7 29.0 5.8 C 29.3 5.8 29.7 5.9 29.6 6.0 C 29.3 6.0 29.1 6.0 28.8 6.0 C 28.2 5.8 29.1 5.3 27.2 5.4 C 27.6 5.7 26.8 5.7 26.4 5.8 C 26.6 6.1 27.1 5.8 27.3 6.0 C 26.8 6.2 26.0 6.0 25.5 5.8 C 24.4 6.0 23.0 5.8 21.4 5.9 C 20.9 5.7 22.7 5.7 21.5 5.6 C 21.0 5.6 21.4 5.8 20.8 5.8 C 20.6 4.7 16.2 5.5 15.5 5.1 C 15.5 5.3 14.0 5.2 14.4 5.5 C 15.2 5.3 16.1 5.6 16.7 5.8 C 17.4 5.6 15.7 5.5 16.4 5.4 C 16.6 5.6 17.7 5.5 17.8 5.7 C 16.5 5.7 18.6 5.9 17.9 6.2 C 16.7 6.1 14.6 6.4 14.9 6.1 C 14.9 6.2 15.5 6.2 15.4 6.1 C 14.0 6.0 13.4 6.2 13.1 6.3 C 12.3 6.1 10.3 6.5 10.7 6.3 C 10.3 6.1 12.2 6.4 11.8 6.2 C 9.3 6.1 9.4 6.3 7.6 6.1 C 8.4 6.4 6.4 6.5 6.5 6.4 C 6.4 6.3 6.3 6.2 6.1 6.2 C 6.0 6.3 6.0 6.7 6.2 7.5 C 5.9 7.1 5.8 7.6 5.8 8.0 C 6.0 8.4 6.0 7.8 6.2 8.1 C 6.2 8.5 6.2 9.1 6.2 9.5 C 6.1 9.5 5.9 9.3 5.9 9.6 C 6.1 10.3 6.3 12.4 6.2 12.1 C 5.8 11.0 5.9 13.2 5.7 11.7 C 5.7 12.1 5.6 12.0 5.6 12.5 C 5.7 12.6 5.8 12.7 5.9 12.8 C 5.9 13.9 5.5 13.0 5.5 13.9 C 5.6 14.1 5.7 14.5 5.8 14.7 C 5.8 14.3 5.7 14.2 5.7 13.8 C 6.1 14.6 5.9 13.0 6.2 13.3 C 6.2 14.3 6.0 14.1 5.8 14.5 C 6.0 15.9 5.9 15.2 5.8 16.5 C 5.9 16.6 6.0 16.2 6.1 16.4 C 6.0 18.0 5.5 17.4 5.7 18.7 C 5.7 18.4 5.5 17.3 5.4 18.0 C 5.6 18.8 5.8 19.2 5.8 20.3 C 5.7 20.3 5.6 20.1 5.6 20.4 C 5.7 20.9 5.9 21.1 6.0 21.5 C 5.9 21.5 5.9 22.2 6.0 22.4 C 5.8 22.7 5.7 22.1 5.7 22.5 C 5.7 23.4 6.2 24.2 6.2 24.8 C 5.8 24.6 5.9 25.5 6.0 26.2 C 5.7 26.1 5.7 27.7 5.7 28.6 C 5.9 28.5 5.8 29.5 6.1 29.4 C 6.1 28.9 6.1 28.7 6.2 28.7 C 6.3 29.8 5.8 29.9 6.2 30.9 C 6.0 31.3 5.8 31.7 5.8 32.5 C 5.9 32.6 6.0 31.2 6.1 32.1 C 6.0 32.1 6.0 32.3 6.1 32.6 C 5.8 32.4 5.7 33.0 5.6 33.3 C 5.8 34.0 5.5 35.3 5.8 34.8 C 5.8 35.9 5.4 35.0 5.4 35.8 C 5.7 35.5 5.7 37.0 5.9 36.3 C 6.0 37.5 5.6 37.2 5.4 36.7 C 5.4 37.7 5.6 38.0 5.4 38.5 C 5.7 38.1 5.8 39.7 5.7 38.9 C 5.4 38.5 5.6 39.8 5.4 39.9 C 5.6 39.6 5.6 40.2 5.8 39.5 C 5.8 40.3 5.9 41.4 5.6 42.0 C 5.8 43.1 5.8 44.0 5.5 43.5 C 5.6 44.4 5.6 44.1 5.5 45.0 C 5.6 45.0 5.6 44.7 5.7 44.7 C 5.7 45.9 5.5 45.6 5.5 47.3 C 5.2 47.0 5.2 48.1 5.0 48.4 C 5.1 47.7 5.1 47.2 5.2 46.6 C 5.1 46.5 5.0 47.0 5.0 46.6 C 5.0 46.5 5.1 46.3 5.1 46.0 C 4.9 47.1 4.7 44.6 5.0 45.4 C 4.9 45.4 4.9 45.4 4.9 45.7 C 5.1 45.5 5.0 45.5 5.3 45.8 C 5.2 45.2 5.5 44.8 5.3 44.6 C 5.2 44.6 5.2 45.1 5.1 45.2 C 5.0 43.8 5.4 44.8 5.4 43.7 C 5.1 43.4 5.0 44.0 4.9 44.2 C 4.9 43.2 4.9 42.4 5.0 42.2 C 4.9 41.2 4.8 42.2 4.7 41.5 C 4.8 41.2 5.0 41.3 5.0 40.7 C 4.9 40.0 4.8 41.0 4.8 40.3 C 5.0 39.7 5.1 40.9 5.2 39.9 C 4.8 40.0 5.2 38.9 5.0 38.9 C 5.1 39.6 4.7 39.4 5.0 39.2 C 5.3 37.9 4.4 36.5 5.0 35.3 C 4.9 35.3 4.9 35.1 4.8 35.0 C 4.6 36.0 4.6 37.6 4.2 37.7 C 4.3 38.6 4.5 38.6 4.6 38.8 C 4.3 39.7 4.3 39.6 3.9 38.8 C 3.9 37.1 4.1 36.4 4.2 35.3 C 4.0 34.6 4.1 35.3 3.9 35.5 C 4.2 32.1 3.4 34.5 3.5 33.2 C 3.6 33.3 3.7 33.1 3.8 32.7 C 3.6 32.7 3.7 32.2 3.6 32.0 C 3.6 32.3 3.5 32.4 3.4 32.2 C 3.3 31.3 3.6 31.8 3.8 31.8 C 3.7 32.5 3.8 32.9 3.9 33.1 C 3.8 32.2 4.0 31.6 3.8 30.9 C 4.1 30.2 4.4 31.7 4.7 31.4 C 4.9 31.6 4.1 30.5 4.0 29.8 C 4.0 28.7 3.7 28.6 3.7 27.6 C 4.0 27.4 3.9 28.6 4.1 28.6 C 4.1 28.4 4.1 28.3 4.1 28.1 C 4.1 27.4 3.9 27.3 3.8 26.7 C 4.1 26.5 3.9 26.3 3.8 25.8 C 3.9 25.2 4.0 26.3 4.1 25.6 C 4.1 24.9 3.8 24.2 3.8 24.0 C 3.9 24.0 4.1 24.2 4.1 23.8 C 3.9 22.9 3.9 22.7 3.7 23.6 C 3.8 22.7 3.7 22.2 3.4 22.2 C 3.4 23.6 3.4 24.0 3.1 24.5 C 3.4 24.9 3.2 25.2 3.1 25.7 C 3.5 25.6 3.1 26.3 3.3 26.7 C 3.4 26.4 3.4 26.1 3.5 25.9 C 3.5 27.4 3.4 27.4 3.8 28.8 C 3.7 28.8 3.7 28.9 3.6 29.0 C 3.5 28.5 3.6 27.5 3.3 27.3 C 3.1 28.0 3.5 28.6 3.2 29.4 C 3.4 29.9 3.5 28.7 3.5 29.6 C 3.3 29.9 3.2 30.3 3.1 30.9 C 3.2 31.6 3.3 31.9 3.4 32.5 C 3.3 32.5 3.2 32.5 3.2 33.1 C 3.3 33.1 3.4 32.6 3.4 33.2 C 3.1 34.6 2.9 35.6 3.0 37.3 C 3.1 36.8 3.4 35.6 3.4 36.2 C 3.2 36.8 3.5 37.9 3.3 38.6 C 3.2 38.8 3.4 37.7 3.0 37.9 C 3.0 38.6 2.9 39.0 2.9 39.4 C 3.0 39.4 3.0 40.2 3.2 40.1 C 3.2 39.5 2.9 39.2 3.0 39.1 C 3.7 39.9 2.8 41.3 2.8 42.4 C 2.9 43.2 3.0 41.9 3.1 42.8 C 3.2 43.4 2.6 43.5 2.6 42.7 C 2.7 42.1 2.4 41.8 2.6 41.8 C 2.6 41.5 2.6 41.1 2.6 41.1 C 2.5 41.5 2.4 41.4 2.3 41.7 C 2.4 41.1 1.9 40.8 2.2 40.4 C 2.2 40.7 2.2 40.9 2.3 41.1 C 2.2 39.4 2.4 38.9 2.6 38.0 C 2.4 38.5 2.5 38.0 2.2 37.9 C 2.3 38.7 2.1 40.0 2.1 39.1 C 2.4 38.7 1.6 37.9 1.9 37.5 C 1.9 37.9 2.1 37.9 2.2 38.2 C 2.2 37.5 2.4 37.6 2.4 37.0 C 2.0 34.8 2.7 33.6 2.2 30.1 C 2.2 29.0 2.3 31.2 2.5 31.2 C 2.5 30.9 2.5 30.8 2.5 30.6 C 2.3 30.4 2.6 30.0 2.3 29.5 C 2.6 29.7 2.3 28.1 2.5 27.5 C 2.5 27.4 2.3 27.4 2.3 27.1 C 2.6 25.0 2.2 20.6 2.5 19.1 C 2.3 19.0 2.3 18.2 2.2 17.9 C 2.2 16.9 2.4 17.5 2.2 15.8 C 2.1 14.9 2.3 16.0 2.4 16.2 C 2.3 13.8 2.5 11.9 2.2 10.2 C 2.1 9.4 2.4 10.4 2.5 8.9 C 2.1 8.5 2.6 6.6 2.2 5.9 C 2.2 4.9 2.7 3.6 2.3 4.1 C 2.3 2.8 2.6 3.9 2.6 3.4 C 2.6 2.5 2.0 3.1 2.0 2.2 C 2.1 2.3 2.1 2.3 2.2 2.2 C 2.5 2.3 2.9 2.3 3.5 2.5 C 3.0 2.5 2.6 2.5 2.5 2.5 C 2.5 2.6 2.5 2.7 2.5 2.8 C 2.5 2.7 2.5 2.6 2.5 2.6 C 2.9 2.5 3.1 2.7 4.0 2.6 C 4.5 2.5 6.4 2.3 7.4 2.6 C 7.3 2.5 7.1 2.5 6.8 2.4 C 7.4 2.3 8.4 2.6 8.0 2.3 C 9.4 2.3 10.2 2.6 10.8 2.3 C 11.3 2.2 10.8 2.6 12.6 2.6 C 12.4 2.3 15.6 2.3 16.6 2.6 C 16.4 2.2 16.8 2.5 17.2 2.6 C 17.2 2.5 17.0 2.3 17.3 2.3 C 17.5 2.4 17.7 2.4 17.9 2.3 C 18.0 2.7 19.0 2.2 19.3 2.5 C 19.0 2.5 19.2 2.7 19.5 2.7 C 19.4 2.4 21.0 2.9 20.7 2.6 C 20.3 2.5 19.5 2.6 19.6 2.4 C 20.7 2.3 20.5 2.6 21.3 2.6 C 21.2 2.5 20.6 2.4 21.1 2.4 C 22.0 2.4 21.2 2.4 21.9 2.6 C 22.3 2.6 23.0 2.4 23.3 2.4 C 23.2 2.4 23.6 2.5 23.7 2.6 C 25.4 2.7 28.8 2.4 30.6 2.7 C 30.6 2.6 30.9 2.6 30.7 2.4 C 31.8 2.5 31.7 2.5 32.7 2.6 C 32.6 2.4 32.6 2.3 32.5 2.2 C 33.7 2.1 32.8 2.6 33.6 2.6 C 33.4 2.0 34.2 2.7 34.9 2.7 C 34.9 2.6 35.3 2.6 35.1 2.4 C 36.3 2.4 36.4 2.8 37.3 2.6 C 37.1 2.6 36.6 1.8 36.6 1.6 C 36.9 1.7 37.2 1.8 37.7 1.8 C 37.2 2.1 37.9 3.0 39.2 2.7 C 38.4 2.8 38.1 2.7 38.2 2.5 C 39.3 2.5 39.8 2.6 40.7 2.6 C 40.8 2.4 40.1 2.4 40.3 2.1 C 40.5 2.1 40.6 2.0 40.5 1.9 C 41.6 2.0 41.6 2.1 42.7 2.0 C 42.8 2.1 42.5 2.2 42.1 2.1 C 42.2 2.3 42.3 2.5 41.6 2.5 C 41.5 2.3 41.8 2.1 40.9 2.2 C 40.9 2.3 41.0 2.4 41.0 2.6 C 41.7 2.6 43.4 2.7 43.5 2.6 C 43.2 2.5 42.6 2.5 42.8 2.2 C 44.0 2.3 44.4 2.6 45.4 2.7 C 47.1 2.6 50.1 2.7 49.6 2.3 C 50.7 2.4 50.3 2.4 51.2 2.5 C 50.9 2.2 52.2 2.4 52.1 2.2 C 51.0 2.2 51.3 2.2 50.3 2.2 C 50.3 2.1 50.4 2.0 50.8 1.9 C 50.9 2.1 51.4 2.1 52.1 2.1 C 52.0 2.0 51.3 1.8 52.1 1.8 C 52.1 1.8 52.3 1.8 52.7 1.8 C 52.7 2.0 52.7 2.1 52.7 2.2 C 52.3 2.3 51.8 2.4 51.5 2.5 C 51.8 2.5 51.9 2.5 52.2 2.6 C 52.3 2.4 53.6 2.6 53.7 2.4 C 53.2 2.4 52.8 2.3 53.4 2.2 C 53.5 2.3 54.3 2.4 54.6 2.2 C 53.5 2.1 53.9 2.1 53.3 1.8 C 54.6 1.8 54.4 2.1 55.9 2.0 C 55.9 2.2 55.9 2.4 55.6 2.5 C 56.5 2.9 58.6 2.5 59.3 2.6 C 58.8 2.5 58.2 2.8 59.0 2.9 C 59.0 2.8 59.5 2.8 59.6 2.7 C 59.8 2.3 59.2 2.0 58.7 1.8 C 59.2 1.8 59.4 1.7 59.9 1.7 C 60.1 1.8 59.5 2.2 60.2 2.2 C 60.4 1.8 61.5 2.2 61.8 1.9 C 61.3 1.9 60.9 1.8 61.5 1.8 C 61.4 1.9 62.4 1.8 62.4 2.0 C 61.6 2.1 61.4 2.3 60.8 2.3 C 61.5 2.3 60.4 2.5 61.4 2.6 C 61.9 2.4 62.2 2.2 63.3 2.2 C 63.8 2.2 63.3 2.5 63.9 2.5 C 63.8 2.2 65.0 2.2 64.3 2.4 C 64.7 2.4 64.9 2.4 65.2 2.5 C 64.6 2.3 67.6 1.9 67.1 1.8 C 67.1 2.1 67.2 2.4 67.3 2.5 C 67.9 2.2 68.6 2.4 70.2 2.4 C 70.2 2.1 70.4 2.4 71.1 2.3 C 71.2 2.2 70.7 2.1 71.1 2.1 C 71.9 2.2 71.9 2.2 72.0 2.3 C 72.6 2.3 73.0 2.3 73.2 2.4 C 73.3 2.3 73.1 2.2 73.0 2.2 C 75.0 2.4 76.2 2.1 78.0 2.2 C 77.3 2.0 77.0 2.4 77.6 2.4 C 78.0 2.4 78.3 2.3 78.6 2.2 C 78.2 2.0 78.3 2.1 79.2 2.2 C 80.0 2.1 79.0 1.8 79.7 1.8 C 80.3 1.9 79.9 2.0 80.2 2.1 C 80.5 2.1 80.8 2.1 81.1 2.1 C 80.6 1.9 81.3 1.8 81.9 1.8 C 81.4 2.0 81.6 2.1 82.7 2.0 C 82.8 2.1 82.2 2.2 82.6 2.2 C 82.8 2.3 83.8 1.9 84.5 2.2 C 84.3 2.2 84.1 2.2 84.1 2.3 C 85.0 2.1 85.5 2.5 86.2 2.6 C 85.6 2.4 86.0 2.2 85.8 2.0 C 86.4 2.2 87.5 1.9 87.9 2.2 C 86.9 2.2 87.6 2.7 88.3 2.7 C 88.6 2.5 87.4 2.5 87.9 2.2 C 88.4 2.0 89.0 2.4 89.5 2.2 C 89.5 2.0 89.0 2.2 88.9 2.1 C 89.5 2.1 88.8 2.0 89.3 1.9 C 89.5 2.2 90.0 1.8 90.3 1.8 C 90.7 1.9 91.3 2.3 91.7 2.1 C 91.8 2.0 91.2 2.0 91.2 1.9 C 93.0 1.8 93.3 2.1 95.0 1.8 C 95.1 2.0 95.4 2.0 95.8 2.1 C 95.8 1.9 96.2 1.9 96.6 1.8 C 97.1 2.0 97.7 2.1 98.5 2.2 C 98.2 2.4 97.8 2.5 98.9 2.5 C 99.0 2.4 98.6 2.4 99.0 2.3 C 99.0 2.4 99.2 2.4 99.4 2.3 C 99.4 2.3 99.4 2.2 99.5 2.2 C 99.1 2.2 98.8 2.2 98.5 2.2 C 98.7 2.0 98.6 1.9 98.4 1.8 C 99.9 1.7 99.5 2.2 100.5 2.0 C 100.4 2.4 100.6 2.5 99.7 2.7 C 100.5 2.7 101.1 2.5 101.5 2.3 C 100.5 2.4 101.1 2.1 100.9 1.9 C 101.5 1.9 101.6 1.8 101.9 1.8 C 102.5 1.9 100.9 2.2 102.2 2.2 C 101.4 1.9 103.2 2.0 103.9 2.1 C 103.8 2.0 103.6 2.0 104.1 1.8 C 106.0 1.7 105.2 2.5 106.7 2.1 C 106.4 2.2 107.0 2.2 107.1 2.3 C 106.1 2.4 105.9 2.4 105.4 2.5 C 105.4 2.6 105.7 2.6 105.9 2.6 C 106.0 2.5 106.3 2.5 106.6 2.6 C 107.0 2.4 107.2 2.1 108.1 1.8 C 108.1 1.9 107.9 2.1 108.2 2.1 C 108.8 1.9 107.6 2.5 109.2 2.4 C 109.0 2.3 109.0 2.2 109.3 2.0 C 110.1 1.9 109.8 2.0 110.9 1.9 C 110.9 2.3 109.8 2.4 109.3 2.7 C 110.0 2.6 110.8 2.3 111.3 2.5 C 110.9 2.4 111.6 2.2 112.3 2.1 C 112.8 2.1 111.9 2.5 112.6 2.5 C 113.1 2.4 113.6 2.2 113.2 2.1 C 114.3 2.2 114.3 1.9 115.2 1.9 C 115.1 2.1 114.8 2.1 114.6 2.0 C 114.5 2.1 114.3 2.2 114.6 2.3 C 115.2 2.1 116.0 2.1 116.8 2.0 C 116.8 2.3 116.9 2.6 116.9 2.8 C 116.4 4.7 117.0 5.9 116.8 7.6 C 116.6 7.2 116.8 9.6 116.5 10.5 C 116.6 10.9 117.1 11.9 116.9 11.5 C 116.6 11.9 116.7 12.7 116.6 13.4 C 116.7 13.4 116.7 13.3 116.8 13.3 C 116.9 14.7 116.6 15.2 116.4 15.8 C 116.6 17.5 116.2 19.6 116.5 21.7 C 116.2 22.3 116.3 22.8 116.1 24.1 C 116.4 24.0 116.4 25.0 116.4 26.0 C 116.6 25.7 116.5 26.6 116.7 26.6 C 116.7 25.7 117.0 26.0 117.1 25.5 C 116.8 26.7 117.3 27.3 117.1 28.2 C 116.9 27.1 116.6 26.8 116.3 26.7 C 116.3 28.0 116.2 28.7 116.0 29.0 C 116.2 29.1 116.3 28.9 116.4 28.6 C 116.4 29.1 116.4 29.5 116.4 29.9 C 116.3 30.1 116.2 29.5 116.2 29.9 C 116.3 30.2 116.4 30.6 116.4 30.9 C 116.2 31.3 116.2 30.4 116.1 30.3 C 116.0 32.0 116.5 31.3 116.6 32.2 C 116.4 32.5 116.2 32.4 116.1 33.2 C 116.3 33.5 116.5 33.6 116.5 34.5 C 116.5 35.1 116.1 34.5 116.1 35.1 C 116.2 35.2 116.2 35.5 116.1 35.8 C 116.2 35.8 116.3 36.1 116.4 36.5 C 116.2 36.6 116.3 37.2 116.4 37.5 C 116.2 37.5 115.9 38.5 116.1 38.7 C 116.2 38.7 116.2 38.2 116.3 38.1 C 116.2 38.8 116.3 39.4 116.4 39.8 C 115.8 39.8 116.2 41.2 115.9 42.6 C 116.1 43.5 116.4 42.5 116.5 43.8 C 116.3 44.4 116.3 43.5 116.0 43.6 C 116.0 43.7 115.8 44.7 116.0 44.9 C 116.1 44.9 116.1 44.3 116.2 44.3 C 116.4 45.3 116.1 45.1 116.0 45.5 C 116.2 45.6 116.3 46.2 116.4 46.4 C 116.6 48.8 116.1 48.5 115.9 49.4 C 116.1 49.4 116.0 50.0 116.1 50.1 C 116.0 49.4 116.2 48.6 116.3 49.6 C 116.1 49.3 116.3 50.8 116.3 50.9 C 116.5 50.8 116.4 49.9 116.7 50.5 C 116.7 51.8 116.3 50.9 116.5 52.0 C 116.4 52.0 116.3 51.5 116.3 51.2 C 116.3 51.6 116.3 52.1 116.2 52.1 C 116.1 51.6 115.9 51.5 115.8 51.2 C 116.0 51.9 115.8 52.9 116.1 52.4 C 116.0 53.6 116.2 55.0 116.4 54.3 C 116.5 55.4 116.1 54.5 116.4 55.5 C 116.1 55.2 115.9 54.8 115.7 55.3 C 115.9 55.6 115.9 56.2 116.1 56.3 C 116.1 57.8 115.8 58.0 115.6 58.5 C 116.0 58.2 115.7 58.7 115.9 59.7 C 115.9 60.0 115.6 59.6 115.6 60.1 C 115.5 60.1 115.3 60.1 115.1 60.1 C 116.7 60.5 113.8 60.2 114.7 60.6 C 113.0 60.4 113.1 60.4 111.4 60.4 C 111.4 60.2 111.7 60.1 112.3 60.1 C 112.1 60.3 113.9 60.3 113.6 60.1 C 113.6 60.1 113.5 60.0 113.5 60.0 C 112.4 60.0 111.5 60.0 110.9 59.8 C 110.8 60.0 110.4 60.1 110.9 60.4 C 109.5 60.1 108.7 60.5 108.0 60.2 C 108.4 60.2 108.7 60.2 108.4 60.1 C 108.1 60.1 107.6 60.2 107.8 60.4 C 108.8 60.4 109.0 60.5 109.3 60.3 C 109.1 60.5 110.5 60.6 109.6 60.7 C 109.3 60.3 108.0 60.9 108.4 60.6 C 109.2 60.5 107.1 60.4 106.8 60.2 C 106.8 60.2 106.8 60.2 106.8 60.2 Z M 2.4 37.3 C 2.5 38.3 2.8 37.2 2.7 36.5 C 2.6 36.7 2.5 36.8 2.4 36.7 C 2.4 37.0 2.5 37.3 2.4 37.3 C 2.4 37.3 2.4 37.3 2.4 37.3 Z M 5.9 29.3 C 5.6 28.9 5.8 30.4 5.8 31.0 C 5.8 30.9 5.9 30.7 5.9 31.1 C 6.1 30.6 5.7 30.1 5.9 29.3 C 5.9 29.3 5.9 29.3 5.9 29.3 Z M 14.1 5.1 C 13.9 5.2 13.4 5.2 13.2 5.1 C 12.9 5.1 13.1 5.3 13.1 5.4 C 12.4 5.4 13.0 5.0 12.0 5.1 C 12.0 5.6 14.3 5.7 14.1 5.1 C 14.1 5.1 14.1 5.1 14.1 5.1 Z M 112.1 54.3 C 112.0 54.6 111.8 53.4 111.6 53.5 C 111.7 55.2 112.0 54.3 112.0 56.4 C 112.0 56.3 112.1 56.2 112.2 56.3 C 112.1 55.2 111.9 55.0 112.4 55.6 C 112.4 55.2 111.8 54.6 112.1 54.3 C 112.1 54.3 112.1 54.3 112.1 54.3 Z M 92.8 55.6 C 93.0 55.7 93.2 55.7 93.3 55.8 C 93.9 55.7 93.7 55.7 94.7 55.8 C 94.2 55.4 93.4 55.4 92.8 55.6 C 92.8 55.6 92.8 55.6 92.8 55.6 Z M 38.0 55.0 C 37.8 55.0 37.6 55.0 37.4 55.0 C 37.6 55.2 37.2 55.5 38.1 55.4 C 38.2 55.4 38.0 55.4 37.8 55.4 C 38.0 55.3 38.4 55.3 38.3 55.1 C 38.1 55.1 38.0 55.1 38.0 55.0 C 38.0 55.0 38.0 55.0 38.0 55.0 Z M 15.3 57.3 C 16.4 57.0 13.6 56.5 15.3 57.3 C 15.3 57.3 15.3 57.3 15.3 57.3 C 15.3 57.3 15.3 57.3 15.3 57.3 Z M 18.0 60.1 C 18.1 60.2 18.3 60.1 18.3 60.1 C 19.3 60.2 18.4 60.3 18.9 60.4 C 19.7 60.2 18.5 60.0 19.5 59.8 C 19.2 59.7 18.6 60.1 18.0 60.1 C 18.0 60.1 18.0 60.1 18.0 60.1 Z M 105.3 2.2 C 104.4 2.3 104.0 2.5 103.6 2.8 C 104.2 2.8 104.6 2.8 104.7 3.0 C 105.9 2.8 104.1 2.8 104.0 2.7 C 104.3 2.5 105.1 2.5 105.3 2.2 C 105.3 2.2 105.3 2.2 105.3 2.2 Z M 102.5 2.3 C 102.0 2.4 101.4 2.5 101.2 2.7 C 101.8 2.7 101.8 2.8 101.7 2.9 C 102.3 2.7 101.8 2.6 102.5 2.3 C 102.5 2.3 102.5 2.3 102.5 2.3 Z M 107.5 2.6 C 107.1 2.6 107.1 2.8 106.9 2.9 C 107.5 2.9 107.5 3.0 108.1 3.0 C 108.2 2.9 108.3 2.8 108.3 2.7 C 107.9 2.7 107.7 2.8 107.3 2.8 C 107.4 2.7 107.5 2.6 107.5 2.6 C 107.5 2.6 107.5 2.6 107.5 2.6 Z M 99.4 2.6 C 97.8 2.6 96.8 3.0 95.6 3.4 C 96.8 3.3 98.1 2.8 98.9 3.0 C 100.0 2.9 98.7 2.8 98.8 2.7 C 98.8 2.6 99.2 2.6 99.4 2.6 C 99.4 2.6 99.4 2.6 99.4 2.6 Z M 85.2 2.6 C 85.0 2.5 84.2 2.9 83.3 2.8 C 83.4 2.9 83.6 2.9 83.5 3.0 C 84.8 3.1 84.2 2.6 85.2 2.6 C 85.2 2.6 85.2 2.6 85.2 2.6 Z M 77.5 2.8 C 76.6 2.8 77.8 2.9 77.4 3.1 C 78.3 3.1 79.2 3.1 79.3 2.9 C 78.3 3.0 78.0 3.0 77.5 2.8 C 77.5 2.8 77.5 2.8 77.5 2.8 Z M 71.9 2.8 C 71.0 2.9 72.2 3.1 71.8 3.4 C 72.1 3.3 72.1 3.2 72.1 3.1 C 72.4 3.2 72.6 3.2 73.0 3.2 C 72.8 3.0 71.7 3.1 71.9 2.8 C 71.9 2.8 71.9 2.8 71.9 2.8 Z M 115.8 14.8 C 115.7 14.3 115.5 14.6 115.6 13.4 C 115.5 15.2 114.8 14.7 114.9 16.9 C 115.0 16.5 115.1 16.7 115.0 16.9 C 115.2 17.7 115.1 16.0 115.4 16.7 C 115.4 16.0 115.1 16.5 115.1 15.9 C 115.3 15.1 115.5 14.6 115.8 14.8 C 115.8 14.8 115.8 14.8 115.8 14.8 Z M 114.7 17.0 C 114.6 17.7 115.1 17.5 114.8 17.9 C 114.8 18.2 114.9 18.1 115.0 18.1 C 115.0 17.9 115.0 17.8 115.1 17.8 C 115.0 17.3 114.9 16.7 114.7 17.0 C 114.7 17.0 114.7 17.0 114.7 17.0 Z M 114.7 11.2 C 114.8 12.1 114.6 12.6 114.8 12.9 C 114.5 13.5 115.0 13.5 114.7 14.3 C 114.8 15.2 114.9 14.4 115.0 14.1 C 115.1 15.0 114.8 14.5 114.8 15.4 C 115.1 15.4 115.0 14.2 115.3 14.2 C 115.3 13.4 115.1 13.5 115.1 13.1 C 115.1 12.7 115.2 12.7 115.3 12.6 C 115.3 11.7 115.4 11.7 115.4 11.0 C 115.2 10.9 115.1 11.3 115.2 12.1 C 115.1 11.3 114.9 11.1 115.0 10.0 C 115.3 10.5 115.3 7.3 114.9 7.9 C 114.9 8.8 115.1 8.3 115.2 8.6 C 114.9 9.9 115.0 10.5 114.7 11.2 C 114.7 11.2 114.7 11.2 114.7 11.2 Z M 107.2 3.4 C 106.9 3.3 106.7 3.3 106.3 3.3 C 106.5 3.1 107.0 3.1 106.6 3.0 C 106.0 2.9 105.7 3.0 105.3 3.0 C 105.4 3.2 106.6 3.4 105.8 3.5 C 105.9 3.6 106.3 3.7 106.9 3.7 C 106.5 3.3 107.8 3.7 108.4 3.7 C 108.7 3.3 109.4 3.8 110.1 3.5 C 109.9 3.3 108.5 3.5 107.9 3.5 C 108.2 3.5 106.9 3.0 107.2 3.4 C 107.2 3.4 107.2 3.4 107.2 3.4 Z M 114.8 19.4 C 114.9 19.6 115.0 20.3 115.0 19.7 C 115.1 19.9 115.0 20.6 115.3 20.2 C 115.3 20.5 115.3 20.8 115.3 21.1 C 115.2 21.1 115.3 20.2 115.0 20.6 C 115.1 21.2 115.0 21.0 115.0 21.9 C 114.8 21.5 114.8 22.0 114.4 21.8 C 114.6 22.0 114.6 22.7 114.8 22.6 C 114.7 23.8 114.4 22.4 114.4 23.9 C 114.2 23.9 114.3 22.8 114.4 22.4 C 114.1 22.3 114.3 24.3 114.2 25.5 C 114.4 24.4 114.6 25.2 114.8 25.6 C 114.8 26.0 114.7 25.7 114.5 26.3 C 114.5 26.9 114.7 27.1 114.5 27.3 C 114.6 27.7 114.7 27.5 114.8 27.5 C 114.8 28.3 114.5 27.8 114.5 28.8 C 114.9 28.0 114.9 28.9 114.8 30.3 C 115.0 30.2 115.0 29.8 115.1 29.7 C 115.3 29.9 114.9 30.7 114.8 31.0 C 114.9 31.5 115.0 31.1 115.0 30.6 C 115.1 30.9 115.2 31.3 115.2 31.6 C 115.3 30.0 115.2 27.5 115.6 24.6 C 115.4 25.2 115.3 24.5 115.4 23.6 C 115.5 23.5 115.6 23.8 115.6 24.2 C 115.9 23.1 115.2 23.4 115.4 21.8 C 115.5 20.9 115.6 22.7 115.7 21.6 C 115.7 21.1 115.5 20.7 115.7 20.4 C 115.6 19.4 115.3 19.2 115.3 17.6 C 115.2 18.6 114.6 19.3 114.8 20.1 C 114.8 20.1 114.8 19.7 114.8 19.4 C 114.8 19.4 114.8 19.4 114.8 19.4 Z M 101.6 3.0 C 101.1 3.0 100.7 3.2 100.7 3.0 C 99.7 3.1 100.6 3.3 100.7 3.4 C 101.2 3.3 101.4 3.2 101.6 3.0 C 101.6 3.0 101.6 3.0 101.6 3.0 Z M 8.4 3.0 C 7.1 3.0 7.7 3.3 6.7 3.3 C 7.6 3.4 7.9 3.6 9.1 3.5 C 9.0 3.3 8.8 3.1 8.4 3.0 C 8.4 3.0 8.4 3.0 8.4 3.0 Z M 104.5 3.2 C 105.5 2.9 103.4 3.5 103.6 3.3 C 102.6 3.4 104.3 3.4 103.3 3.7 C 104.1 3.5 104.4 3.7 105.4 3.6 C 105.5 3.4 104.8 3.4 104.0 3.4 C 104.1 3.3 104.5 3.3 104.5 3.2 C 104.5 3.2 104.5 3.2 104.5 3.2 Z M 20.8 3.7 C 21.4 3.5 19.7 3.2 19.2 3.1 C 19.4 3.4 19.6 3.4 20.8 3.7 C 20.8 3.7 20.8 3.7 20.8 3.7 Z M 3.4 6.0 C 3.7 6.7 3.4 4.6 3.7 5.4 C 3.7 4.9 3.6 4.7 3.5 4.6 C 3.6 4.4 3.5 3.5 3.8 4.0 C 3.9 4.0 3.7 5.3 4.0 5.1 C 4.0 5.6 3.9 5.5 3.9 5.9 C 3.9 5.0 3.7 5.2 3.6 6.2 C 3.8 6.4 3.8 5.9 3.9 6.5 C 3.8 6.5 3.6 6.9 3.3 6.5 C 3.3 7.5 3.7 7.3 3.7 8.4 C 3.8 8.5 3.8 7.7 3.9 7.4 C 4.2 7.8 3.7 8.4 4.1 8.5 C 3.9 8.5 3.8 9.1 3.5 8.9 C 3.4 7.9 3.3 7.2 3.1 6.4 C 3.0 6.9 3.5 8.4 3.3 9.3 C 3.5 9.3 3.5 10.0 3.7 9.9 C 3.6 10.8 3.3 10.1 3.3 9.9 C 3.1 10.0 3.2 11.8 3.4 11.9 C 3.2 11.8 3.3 13.9 3.6 14.1 C 3.4 14.6 3.8 15.8 3.4 15.8 C 3.5 16.2 3.5 16.9 3.5 17.7 C 3.8 18.1 3.7 16.7 3.8 16.7 C 4.1 16.7 3.8 18.1 4.0 18.1 C 4.1 18.1 4.1 18.1 4.2 18.2 C 4.1 17.5 4.0 16.8 3.9 16.2 C 4.0 15.8 4.0 16.4 4.2 16.4 C 4.0 15.8 3.7 13.6 4.2 14.0 C 4.0 12.6 4.1 11.7 3.9 11.0 C 3.9 10.3 4.1 11.6 4.2 11.3 C 3.9 8.8 4.3 6.4 3.9 4.1 C 3.9 4.1 3.9 4.0 3.9 4.0 C 4.2 4.1 4.3 4.2 4.4 4.3 C 6.9 4.2 4.3 3.8 6.5 3.9 C 6.7 4.1 5.7 4.1 5.9 4.3 C 6.6 4.3 6.7 4.2 7.7 4.2 C 7.6 4.1 7.5 4.0 7.4 3.9 C 8.1 3.9 8.1 4.2 8.6 4.3 C 9.5 4.2 9.1 4.1 9.9 4.4 C 10.7 4.3 11.5 4.2 12.5 4.3 C 13.0 4.1 11.5 3.8 10.5 3.8 C 10.5 3.7 10.8 3.7 10.7 3.6 C 12.0 3.8 12.6 4.3 14.3 4.3 C 12.8 4.0 14.9 4.2 15.3 4.4 C 16.0 4.4 15.2 4.0 14.7 4.1 C 14.7 4.0 15.3 4.1 15.4 4.2 C 15.2 3.8 13.4 3.6 11.8 3.8 C 12.2 3.3 10.6 3.8 11.0 3.3 C 9.7 3.4 11.1 3.7 9.5 3.6 C 9.8 3.7 10.1 3.8 10.4 3.9 C 9.2 4.0 9.2 3.6 8.0 3.7 C 8.0 3.9 8.8 3.8 8.9 4.0 C 7.3 3.8 6.8 3.7 5.7 3.4 C 5.6 3.6 6.1 3.8 4.4 3.7 C 4.3 3.6 4.3 3.6 4.2 3.5 C 5.0 3.6 4.8 3.1 3.0 3.1 C 3.0 3.2 3.0 3.2 3.0 3.2 C 3.1 3.3 3.1 3.3 3.2 3.2 C 3.4 3.3 3.7 3.3 4.0 3.3 C 4.0 3.4 3.7 3.4 3.4 3.5 C 3.4 3.7 3.4 4.0 3.4 4.2 C 3.4 4.6 3.3 4.9 3.3 4.4 C 3.1 4.5 3.5 5.1 3.4 6.0 C 3.4 6.0 3.4 6.0 3.4 6.0 Z M 86.5 3.2 C 86.2 3.2 86.0 3.3 85.5 3.3 C 85.2 3.5 86.1 3.4 86.0 3.6 C 86.6 3.6 86.3 3.3 86.5 3.2 C 86.5 3.2 86.5 3.2 86.5 3.2 Z M 94.9 3.4 C 95.0 3.1 94.4 3.5 93.7 3.4 C 93.4 3.6 94.3 3.5 94.2 3.7 C 94.9 3.7 94.2 3.3 94.9 3.4 C 94.9 3.4 94.9 3.4 94.9 3.4 Z M 91.3 3.4 C 91.1 3.1 90.9 3.5 91.6 3.4 C 91.4 3.6 91.2 3.7 90.8 3.8 C 91.1 4.0 91.6 3.6 92.3 3.7 C 92.1 3.5 91.8 3.4 91.3 3.4 C 91.3 3.4 91.3 3.4 91.3 3.4 Z M 90.1 3.4 C 89.5 3.5 89.4 3.3 88.5 3.4 C 88.6 3.6 90.3 3.5 90.7 3.4 C 91.0 3.2 89.2 3.2 90.1 3.4 C 90.1 3.4 90.1 3.4 90.1 3.4 Z M 33.0 4.0 C 32.8 4.0 32.9 4.1 32.8 4.2 C 31.7 3.8 30.5 3.9 31.3 3.5 C 30.4 3.7 29.4 3.4 28.5 3.4 C 27.8 3.3 28.3 3.6 27.7 3.6 C 26.8 3.6 28.1 3.5 27.9 3.4 C 27.6 3.2 27.6 3.6 26.4 3.4 C 26.9 3.9 25.5 3.4 26.0 3.8 C 25.4 3.7 25.3 3.8 24.5 3.8 C 24.7 4.0 25.4 4.0 25.6 4.2 C 26.1 4.4 25.9 3.9 25.2 4.0 C 25.5 3.7 26.8 4.1 27.0 3.9 C 27.5 4.2 26.0 4.0 26.6 4.2 C 26.8 4.2 27.1 4.2 27.1 4.1 C 27.5 4.1 27.9 4.2 28.1 4.3 C 27.9 4.3 27.8 4.3 27.8 4.2 C 27.2 4.2 28.6 4.6 27.4 4.6 C 27.6 4.7 28.1 4.7 28.1 4.9 C 28.6 5.0 27.8 4.2 29.1 4.5 C 29.8 4.2 27.1 4.2 27.5 3.8 C 29.2 3.8 28.5 4.2 29.9 4.2 C 29.8 4.1 29.7 4.0 30.0 4.0 C 29.9 3.9 29.5 3.9 29.1 3.9 C 29.1 3.8 29.6 3.8 30.0 3.8 C 29.9 3.8 29.6 3.8 29.6 3.7 C 30.8 3.8 30.9 4.3 29.9 4.4 C 30.1 4.6 31.5 4.6 31.8 4.5 C 31.3 4.3 31.7 4.3 31.3 4.1 C 31.0 4.1 31.1 4.2 31.1 4.2 C 30.5 4.2 30.9 4.1 30.9 4.0 C 31.6 4.0 31.6 4.2 32.2 4.1 C 32.1 4.1 31.9 4.2 32.0 4.3 C 32.3 4.3 32.6 4.3 32.9 4.3 C 32.8 4.2 33.2 4.1 33.0 4.0 C 33.0 4.0 33.0 4.0 33.0 4.0 Z M 16.9 3.4 C 15.8 3.3 16.5 3.5 17.0 3.5 C 16.9 3.6 16.5 3.6 16.2 3.7 C 16.6 3.8 16.8 3.7 17.8 3.8 C 17.2 4.1 18.4 4.5 19.8 4.5 C 19.9 4.0 18.6 3.9 18.9 3.7 C 18.0 3.8 17.2 3.7 16.9 3.4 C 16.9 3.4 16.9 3.4 16.9 3.4 Z M 100.7 3.4 C 100.1 3.4 99.5 3.4 98.9 3.4 C 98.8 3.7 100.6 3.8 100.7 3.4 C 100.7 3.4 100.7 3.4 100.7 3.4 Z M 114.9 32.8 C 114.9 33.1 114.9 33.1 114.8 33.1 C 114.9 34.1 115.0 32.7 115.2 33.2 C 115.2 32.8 115.2 32.5 115.2 32.2 C 115.1 32.1 115.0 33.5 114.9 32.5 C 114.8 32.6 114.9 32.8 114.9 32.8 C 114.9 32.8 114.9 32.8 114.9 32.8 Z M 87.0 3.5 C 86.4 3.6 86.5 3.9 85.3 3.8 C 85.7 4.0 86.0 4.0 86.8 3.9 C 86.8 3.8 86.9 3.6 87.0 3.5 C 87.0 3.5 87.0 3.5 87.0 3.5 Z M 37.4 3.6 C 36.5 3.3 36.6 3.9 35.1 3.8 C 35.9 4.1 36.6 3.7 37.4 3.6 C 37.4 3.6 37.4 3.6 37.4 3.6 Z M 3.9 20.4 C 4.0 20.0 4.0 20.6 4.2 20.0 C 4.1 19.5 3.9 19.2 3.9 18.6 C 3.7 19.3 3.9 21.0 3.5 21.3 C 3.6 22.1 3.8 22.2 4.0 22.6 C 4.0 22.2 4.0 22.0 4.1 22.0 C 3.7 21.3 4.3 21.2 3.9 20.4 C 3.9 20.4 3.9 20.4 3.9 20.4 Z M 21.1 3.8 C 21.8 3.9 20.9 4.0 20.8 4.2 C 20.4 4.1 20.4 3.9 20.3 3.8 C 19.7 3.9 19.7 4.0 19.9 4.2 C 20.9 4.2 22.2 4.2 21.7 4.6 C 22.7 4.6 21.9 4.3 22.4 4.2 C 23.0 4.4 22.5 4.5 22.7 4.7 C 22.9 4.7 23.4 4.4 23.6 4.7 C 24.8 4.4 23.9 4.0 22.6 3.6 C 21.8 3.9 22.9 3.9 21.1 3.8 C 21.1 3.8 21.1 3.8 21.1 3.8 Z M 59.6 4.0 C 59.5 3.9 59.0 3.9 59.0 3.8 C 58.3 4.1 57.8 4.3 57.2 4.6 C 57.3 4.8 58.1 4.6 57.8 4.4 C 58.0 4.6 58.6 4.7 59.0 4.8 C 59.6 4.8 59.8 4.3 59.9 4.7 C 60.5 4.6 60.1 4.6 61.1 4.6 C 59.6 4.4 61.6 4.5 61.7 4.2 C 60.8 4.2 60.1 4.2 60.2 4.5 C 59.5 4.4 58.8 4.3 58.7 4.1 C 58.7 4.0 59.2 4.0 59.6 4.0 C 59.6 4.0 59.6 4.0 59.6 4.0 Z M 56.0 4.7 C 56.2 4.7 56.5 4.6 56.9 4.6 C 56.6 4.6 56.6 4.5 56.6 4.3 C 55.8 4.3 55.7 4.5 55.4 4.2 C 54.7 4.2 55.6 4.6 54.5 4.5 C 54.6 4.6 55.1 4.5 55.1 4.6 C 55.2 4.5 55.6 4.4 56.0 4.7 C 56.0 4.7 56.0 4.7 56.0 4.7 Z M 46.7 4.2 C 45.9 4.3 47.1 4.4 46.8 4.6 C 47.0 4.5 48.4 4.6 48.3 4.8 C 48.8 5.1 50.2 4.5 50.1 4.9 C 50.4 4.9 50.3 4.7 50.3 4.6 C 49.3 4.7 49.3 4.5 50.0 4.5 C 49.9 4.4 49.3 4.4 48.8 4.4 C 48.8 4.5 49.2 4.6 49.2 4.7 C 48.2 4.6 47.5 4.4 46.7 4.2 C 46.7 4.2 46.7 4.2 46.7 4.2 Z M 107.4 59.0 C 108.2 59.0 108.6 58.9 108.9 58.9 C 108.5 58.7 108.3 58.9 108.0 58.9 C 107.7 58.7 108.0 58.7 108.4 58.7 C 107.9 58.5 106.8 58.7 107.4 59.0 C 107.4 59.0 107.4 59.0 107.4 59.0 Z M 113.4 59.0 C 113.9 59.0 114.3 59.0 114.4 58.9 C 114.3 58.8 114.3 58.7 114.3 58.7 C 114.3 58.7 114.2 58.7 114.2 58.7 C 114.1 58.7 114.2 58.9 113.9 58.9 C 113.6 58.8 113.3 58.7 113.1 58.6 C 112.8 58.6 112.9 58.7 112.9 58.8 C 112.7 58.8 112.6 58.8 112.5 58.7 C 112.0 58.9 113.5 58.7 113.4 59.0 C 113.4 59.0 113.4 59.0 113.4 59.0 Z M 51.8 4.4 C 52.1 4.5 52.3 4.6 53.0 4.6 C 52.9 4.5 53.4 4.5 53.9 4.5 C 53.2 4.3 52.8 4.4 51.8 4.4 C 51.8 4.4 51.8 4.4 51.8 4.4 Z M 114.3 21.8 C 114.5 20.8 114.1 21.1 114.3 19.7 C 114.2 19.7 114.1 19.8 114.0 19.8 C 114.2 20.5 114.1 20.9 114.3 21.8 C 114.3 21.8 114.3 21.8 114.3 21.8 Z M 27.9 58.8 C 28.0 58.6 27.1 58.7 27.0 58.6 C 26.9 58.9 26.3 58.3 24.6 58.4 C 24.5 58.3 24.6 58.3 24.9 58.2 C 23.4 58.2 25.3 58.5 25.5 58.7 C 26.6 58.7 26.8 58.9 27.9 58.8 C 27.9 58.8 27.9 58.8 27.9 58.8 Z M 4.6 12.0 C 4.6 11.9 4.6 12.0 4.6 12.2 C 4.6 12.4 4.6 12.6 4.6 12.8 C 4.9 13.0 5.0 12.1 5.4 13.2 C 5.4 12.9 5.3 12.9 5.3 12.8 C 4.6 10.8 5.7 10.7 5.3 8.4 C 5.3 8.1 5.2 8.1 5.1 8.0 C 5.1 8.2 5.1 8.2 5.0 8.2 C 5.4 8.7 5.0 10.1 4.9 9.2 C 4.8 9.2 4.8 9.5 4.9 9.5 C 4.9 9.7 4.9 9.9 4.9 10.1 C 5.0 10.1 5.0 9.7 5.1 9.7 C 5.0 10.6 4.9 11.7 4.6 10.8 C 4.7 11.4 4.8 11.7 4.9 12.2 C 4.9 12.5 4.6 12.3 4.6 12.0 C 4.6 12.0 4.6 12.0 4.6 12.0 Z M 4.7 19.8 C 4.7 20.6 4.9 20.5 4.9 21.4 C 5.1 20.9 4.8 20.0 5.0 19.3 C 4.9 19.4 4.8 19.8 4.7 19.8 C 4.7 19.8 4.7 19.8 4.7 19.8 Z M 7.3 5.1 C 7.4 5.4 8.2 5.4 9.1 5.4 C 9.0 5.1 8.2 5.1 7.3 5.1 C 7.3 5.1 7.3 5.1 7.3 5.1 Z M 5.0 6.7 C 5.1 7.7 5.1 5.7 5.4 6.4 C 5.3 6.0 5.3 5.6 5.4 5.6 C 5.4 5.6 5.4 5.5 5.4 5.5 C 5.6 5.4 5.5 5.3 6.0 5.4 C 5.9 5.2 5.4 5.3 5.1 5.2 C 5.1 5.3 5.1 5.3 5.0 5.2 C 5.2 6.0 5.2 6.2 5.0 6.7 C 5.0 6.7 5.0 6.7 5.0 6.7 Z M 5.0 7.3 C 5.1 7.9 5.5 7.6 5.5 6.9 C 5.3 7.0 5.2 7.0 5.0 7.3 C 5.0 7.3 5.0 7.3 5.0 7.3 Z M 72.0 5.2 C 71.5 5.2 71.8 5.4 71.3 5.4 C 71.3 5.6 73.0 5.5 71.6 5.6 C 72.0 5.9 72.4 5.5 73.1 5.5 C 72.9 5.4 72.7 5.4 73.1 5.4 C 73.4 5.1 71.7 5.4 72.0 5.2 C 72.0 5.2 72.0 5.2 72.0 5.2 Z M 70.2 5.2 C 69.8 5.2 70.0 5.3 70.2 5.3 C 70.1 5.4 69.6 5.3 69.3 5.4 C 69.3 5.2 69.8 5.7 69.8 5.9 C 71.3 5.7 70.2 5.5 70.2 5.2 C 70.2 5.2 70.2 5.2 70.2 5.2 Z M 68.7 5.4 C 67.8 5.1 66.4 5.2 65.7 5.4 C 66.4 5.8 68.2 5.7 68.7 5.4 C 68.7 5.4 68.7 5.4 68.7 5.4 Z M 78.4 5.4 C 76.7 5.1 73.1 5.5 76.2 5.8 C 76.1 5.6 78.2 5.5 79.2 5.6 C 79.3 5.5 80.5 5.3 80.4 5.4 C 81.3 5.2 78.0 5.2 78.4 5.4 C 78.4 5.4 78.4 5.4 78.4 5.4 Z M 64.5 5.9 C 65.0 5.8 64.4 5.4 65.2 5.5 C 65.6 5.5 65.1 5.4 65.2 5.3 C 64.3 5.3 62.4 5.5 62.2 5.3 C 61.8 5.4 61.6 5.5 60.8 5.5 C 60.7 5.6 63.9 5.3 64.5 5.8 C 64.5 5.9 63.3 5.9 64.5 5.9 C 64.5 5.9 64.5 5.9 64.5 5.9 Z M 112.8 22.3 C 113.1 22.4 112.9 21.2 113.2 21.3 C 112.9 20.8 113.1 20.1 112.8 19.5 C 112.9 19.2 113.3 19.1 113.3 18.1 C 113.1 18.2 113.2 18.6 113.0 18.2 C 113.0 17.3 113.3 17.4 113.2 16.4 C 112.8 16.8 113.1 14.2 112.7 14.7 C 112.7 15.2 112.9 15.0 112.8 16.0 C 112.8 16.3 112.7 16.3 112.7 16.7 C 112.5 16.5 112.8 15.8 112.6 15.6 C 112.4 15.8 112.4 16.4 112.3 16.6 C 112.3 17.0 112.4 16.5 112.5 16.5 C 112.6 17.6 112.0 16.7 112.0 17.9 C 112.3 17.5 112.3 17.5 112.5 17.6 C 112.4 18.2 112.6 19.5 112.3 18.9 C 112.1 19.1 112.4 19.8 112.5 19.6 C 112.6 20.1 112.5 20.2 112.4 20.3 C 112.5 21.4 112.7 21.5 112.9 21.2 C 113.2 21.3 112.7 21.6 112.8 22.3 C 112.8 22.3 112.8 22.3 112.8 22.3 Z M 87.7 5.5 C 88.5 5.3 86.9 5.6 86.3 5.5 C 87.1 5.6 86.6 5.9 87.5 5.9 C 87.2 5.8 87.3 5.8 87.9 5.8 C 88.1 5.6 86.9 5.6 87.7 5.5 C 87.7 5.5 87.7 5.5 87.7 5.5 Z M 59.0 5.5 C 58.7 5.3 57.2 5.5 56.3 5.4 C 56.5 5.8 58.4 5.3 58.7 5.7 C 59.2 5.6 58.4 5.5 59.0 5.5 C 59.0 5.5 59.0 5.5 59.0 5.5 Z M 113.2 11.1 C 113.2 10.8 113.1 11.0 113.1 11.2 C 113.0 11.2 113.0 10.5 113.0 10.1 C 112.8 10.9 112.8 10.1 112.5 10.5 C 112.5 10.1 112.5 10.0 112.4 10.0 C 112.9 9.6 112.2 8.4 112.1 10.3 C 112.4 9.7 112.4 9.9 112.4 10.5 C 112.3 11.5 112.5 12.0 112.2 12.5 C 112.2 12.9 112.4 13.0 112.4 13.7 C 112.2 14.0 112.1 14.7 111.7 14.5 C 111.7 15.7 112.3 14.5 112.4 15.4 C 112.2 16.5 112.1 15.1 111.9 15.5 C 111.9 15.7 111.8 15.7 111.7 15.9 C 111.7 16.2 112.0 16.1 112.0 15.7 C 112.1 15.8 112.2 16.6 112.0 16.5 C 112.1 17.0 112.7 15.2 112.4 14.5 C 112.4 14.1 112.9 13.8 112.8 14.3 C 113.1 14.0 112.5 13.4 113.0 13.3 C 113.0 12.9 113.0 12.5 113.0 12.1 C 112.9 12.2 112.9 12.5 112.8 12.5 C 112.8 12.2 112.8 11.8 112.8 11.4 C 113.0 11.6 113.0 11.6 113.2 11.1 C 113.2 11.1 113.2 11.1 113.2 11.1 Z M 62.8 5.6 C 62.1 5.6 61.9 5.7 61.3 5.8 C 61.5 5.9 63.1 5.8 62.8 5.6 C 62.8 5.6 62.8 5.6 62.8 5.6 Z M 112.1 27.4 C 112.2 27.3 112.2 26.8 112.3 26.8 C 112.4 27.6 112.5 26.6 112.9 27.2 C 112.7 26.1 112.1 25.9 112.0 27.4 C 112.0 28.5 112.1 26.3 112.1 27.4 C 112.1 27.4 112.1 27.4 112.1 27.4 Z M 112.3 23.9 C 112.2 23.3 112.1 25.1 112.0 25.5 C 111.9 25.5 111.8 25.5 111.7 25.5 C 112.1 26.4 112.2 25.1 112.7 25.8 C 112.8 24.7 112.9 24.2 112.8 23.2 C 112.7 23.3 112.7 23.5 112.8 23.5 C 112.7 24.3 112.4 23.9 112.5 23.0 C 112.4 23.3 112.4 24.0 112.4 24.5 C 112.4 24.3 112.5 24.2 112.6 24.2 C 112.7 24.8 112.4 24.6 112.4 25.0 C 112.3 25.1 112.1 24.0 112.3 23.9 C 112.3 23.9 112.3 23.9 112.3 23.9 Z M 89.2 57.2 C 89.7 57.2 88.3 56.8 88.0 56.5 C 87.4 56.4 87.3 56.5 86.9 56.6 C 87.3 56.7 87.9 56.7 88.3 56.9 C 88.5 57.2 87.4 56.8 87.3 57.0 C 87.2 57.4 88.7 56.9 89.2 57.2 C 89.2 57.2 89.2 57.2 89.2 57.2 Z M 104.6 6.0 C 104.3 6.0 104.4 6.1 104.5 6.1 C 104.4 6.2 103.9 6.2 104.0 6.1 C 103.5 6.1 104.1 6.2 103.6 6.2 C 103.3 6.4 104.4 6.2 104.5 6.2 C 105.1 6.1 104.4 6.4 104.4 6.6 C 105.0 6.6 105.0 6.3 105.7 6.4 C 105.4 6.3 105.1 6.1 104.6 6.0 C 104.6 6.0 104.6 6.0 104.6 6.0 Z M 112.6 29.3 C 112.7 29.4 112.2 28.7 112.4 27.9 C 112.4 26.9 112.2 28.5 112.2 27.6 C 112.2 28.4 112.3 29.3 112.4 30.4 C 112.5 30.7 112.4 28.8 112.5 29.9 C 112.6 29.8 112.6 29.6 112.5 29.6 C 112.5 29.3 112.6 29.3 112.6 29.3 C 112.6 29.3 112.6 29.3 112.6 29.3 Z M 112.0 28.2 C 112.0 28.3 112.0 28.5 112.0 28.5 C 112.0 28.9 111.8 28.9 111.8 28.5 C 111.5 29.0 112.0 29.0 111.9 29.9 C 112.1 29.5 112.2 29.3 112.0 30.2 C 112.3 30.9 112.2 28.5 112.0 28.2 C 112.0 28.2 112.0 28.2 112.0 28.2 Z M 98.4 57.0 C 98.2 56.9 97.6 57.0 97.1 57.0 C 97.5 56.8 100.0 56.9 100.4 57.0 C 100.6 57.0 100.8 56.9 101.0 57.0 C 100.9 57.0 101.4 56.8 101.1 56.8 C 101.0 56.7 101.6 56.7 101.5 56.6 C 102.4 56.7 101.4 56.8 101.8 57.0 C 102.6 56.7 102.6 56.9 103.8 57.0 C 103.4 56.7 102.1 56.8 101.9 56.5 C 101.2 56.7 100.0 56.6 99.2 56.3 C 100.4 56.7 97.2 56.9 95.5 56.8 C 95.5 56.6 94.9 56.7 94.2 56.6 C 93.5 56.3 94.1 56.8 94.9 56.7 C 95.0 56.9 93.7 56.7 93.2 56.8 C 93.9 56.9 93.7 57.0 94.0 57.1 C 95.2 57.1 94.1 57.0 94.2 56.9 C 94.4 56.9 94.7 56.9 95.0 56.9 C 93.8 57.3 97.3 56.9 96.0 57.0 C 97.1 56.9 97.4 57.2 98.4 57.0 C 98.4 57.0 98.4 57.0 98.4 57.0 Z M 112.6 44.2 C 112.6 44.0 112.4 43.0 112.6 43.0 C 112.4 41.8 112.2 42.7 112.2 41.4 C 112.1 41.5 112.2 42.0 112.0 41.9 C 112.1 42.4 112.2 43.0 112.4 42.9 C 112.4 43.5 112.5 43.7 112.5 44.1 C 112.4 43.9 112.4 43.7 112.4 43.2 C 112.2 43.0 112.0 43.1 112.0 43.9 C 112.3 44.3 112.4 44.2 112.6 44.2 C 112.6 44.2 112.6 44.2 112.6 44.2 Z M 112.3 41.2 C 112.4 41.1 112.4 40.9 112.5 41.0 C 112.8 40.7 112.2 40.7 112.2 40.3 C 112.2 40.0 112.4 40.1 112.4 40.1 C 112.4 39.6 112.4 39.2 112.4 39.0 C 112.3 38.2 112.2 39.8 112.1 40.0 C 112.1 40.5 112.3 40.4 112.3 41.2 C 112.3 41.2 112.3 41.2 112.3 41.2 Z M 112.5 32.7 C 112.8 32.6 112.4 32.3 112.4 31.9 C 112.2 32.1 112.4 33.0 112.0 32.4 C 112.0 33.2 112.0 33.3 112.0 34.1 C 111.8 34.6 112.3 34.1 112.1 33.3 C 112.2 33.4 112.3 33.8 112.4 33.8 C 111.9 34.3 112.6 35.9 112.3 35.0 C 112.3 34.7 112.4 34.6 112.5 34.4 C 112.3 34.2 112.4 32.3 112.5 32.7 C 112.5 32.7 112.5 32.7 112.5 32.7 Z M 110.3 6.5 C 111.4 6.4 111.5 6.4 112.3 6.5 C 112.3 6.5 112.3 6.6 112.3 6.7 C 112.2 6.9 112.1 6.8 112.1 6.6 C 112.0 7.0 112.1 7.3 112.1 7.7 C 112.2 7.6 112.2 7.4 112.1 7.5 C 112.3 6.4 112.3 7.1 112.5 7.1 C 112.6 6.7 112.6 6.4 112.6 6.2 C 111.8 6.2 111.0 6.4 110.9 6.2 C 110.4 6.2 110.8 6.3 110.3 6.5 C 110.3 6.5 110.3 6.5 110.3 6.5 Z M 28.7 56.8 C 28.5 56.9 28.0 56.9 28.1 57.0 C 28.6 57.0 28.9 56.9 29.3 56.9 C 28.4 56.8 28.5 56.5 27.4 56.5 C 27.8 56.6 27.8 56.8 28.7 56.8 C 28.7 56.8 28.7 56.8 28.7 56.8 Z M 112.4 35.6 C 112.3 35.6 112.2 35.6 112.2 35.2 C 112.0 35.1 112.1 36.0 112.0 36.0 C 112.0 36.3 112.1 36.2 112.1 36.6 C 112.3 36.5 112.2 35.8 112.4 36.1 C 112.5 36.4 112.4 36.4 112.4 36.4 C 112.5 37.0 112.5 36.1 112.4 35.6 C 112.4 35.6 112.4 35.6 112.4 35.6 Z M 86.1 57.0 C 86.4 56.9 86.0 56.8 85.6 56.8 C 86.3 56.5 84.8 56.4 84.6 56.2 C 85.1 56.4 86.2 56.2 86.4 56.3 C 86.7 56.3 86.2 56.1 87.1 56.0 C 86.8 55.8 85.9 56.0 86.3 56.2 C 85.8 55.9 85.1 56.2 85.0 55.9 C 83.6 55.9 83.5 56.1 83.6 56.3 C 84.7 56.2 84.4 56.6 85.5 56.6 C 85.5 56.6 85.2 56.6 85.0 56.6 C 85.2 56.8 85.7 56.9 86.1 57.0 C 86.1 57.0 86.1 57.0 86.1 57.0 Z M 112.4 53.2 C 112.4 52.5 112.2 52.4 112.0 52.2 C 112.1 52.5 112.1 53.0 112.1 53.4 C 112.3 53.4 112.2 52.6 112.4 53.2 C 112.4 53.2 112.4 53.2 112.4 53.2 Z M 90.5 56.6 C 90.6 56.7 90.8 56.7 90.8 56.6 C 91.5 56.6 91.8 56.8 92.1 56.9 C 92.5 56.9 92.2 56.7 92.1 56.6 C 91.6 56.8 91.5 56.4 90.6 56.5 C 90.8 56.6 90.7 56.6 90.5 56.6 C 90.5 56.6 90.5 56.6 90.5 56.6 Z M 110.1 56.8 C 110.4 56.8 110.2 56.7 110.0 56.7 C 110.1 56.4 111.5 56.7 111.9 56.6 C 111.7 56.4 110.4 56.4 111.8 56.3 C 111.8 56.3 111.8 56.2 111.8 56.2 C 111.8 56.2 111.8 56.2 111.8 56.3 C 111.2 56.2 110.0 56.3 109.2 56.2 C 109.2 56.0 110.3 56.0 109.9 55.8 C 109.2 55.9 108.3 56.0 108.5 56.4 C 109.9 56.4 109.6 56.6 110.1 56.8 C 110.1 56.8 110.1 56.8 110.1 56.8 Z M 108.5 56.6 C 108.7 56.8 108.8 56.6 109.3 56.6 C 108.3 56.3 108.0 56.5 106.5 56.4 C 106.5 56.4 106.6 56.5 106.6 56.6 C 106.4 56.6 106.1 56.6 105.8 56.6 C 107.3 56.8 107.4 56.6 108.7 56.6 C 108.8 56.6 108.6 56.6 108.5 56.6 C 108.5 56.6 108.5 56.6 108.5 56.6 Z M 112.1 22.6 C 112.0 23.0 111.9 23.4 111.8 24.1 C 112.0 24.0 112.1 23.5 112.1 22.6 C 112.1 22.6 112.1 22.6 112.1 22.6 Z M 89.2 56.5 C 88.5 56.6 90.0 56.5 89.3 56.2 C 88.6 56.1 87.8 56.1 87.5 55.8 C 86.6 56.2 89.1 56.2 89.2 56.5 C 89.2 56.5 89.2 56.5 89.2 56.5 Z M 93.9 55.9 C 94.3 55.9 94.6 56.3 94.1 56.1 C 93.2 56.1 94.9 56.3 93.6 56.2 C 94.2 56.3 95.6 56.5 96.0 56.3 C 95.8 56.1 94.8 56.2 94.6 56.0 C 94.5 55.9 94.6 55.9 94.8 55.9 C 94.6 55.8 94.5 55.9 93.9 55.9 C 93.9 55.9 93.9 55.9 93.9 55.9 Z M 98.6 56.3 C 98.0 56.2 97.3 56.1 96.4 56.1 C 97.1 56.2 97.7 56.5 98.6 56.3 C 98.6 56.3 98.6 56.3 98.6 56.3 Z M 43.8 56.0 C 44.5 56.0 43.8 55.7 43.7 55.7 C 43.0 55.6 43.1 55.8 42.2 55.8 C 42.6 56.0 43.2 55.7 43.8 56.0 C 43.8 56.0 43.8 56.0 43.8 56.0 Z M 41.2 55.8 C 41.0 55.7 40.0 55.8 39.9 55.6 C 39.5 56.1 38.3 55.3 38.5 55.7 C 38.3 55.6 38.0 55.6 37.6 55.6 C 38.5 56.0 40.3 55.9 41.2 55.8 C 41.2 55.8 41.2 55.8 41.2 55.8 Z M 103.1 55.8 C 103.9 55.9 102.5 55.5 103.4 55.5 C 103.3 55.4 101.8 55.4 102.6 55.3 C 101.2 55.1 103.1 55.8 103.1 55.8 C 103.1 55.8 103.1 55.8 103.1 55.8 Z M 111.1 50.1 C 111.3 50.3 111.1 49.2 111.2 48.8 C 111.1 48.8 111.1 49.1 111.1 49.3 C 111.0 49.1 110.9 49.0 110.9 48.7 C 110.7 48.7 111.1 49.7 111.1 50.1 C 111.1 50.1 111.1 50.1 111.1 50.1 Z M 105.4 60.0 C 104.7 59.8 103.9 59.6 103.9 59.9 C 103.2 59.7 104.0 59.6 103.2 59.5 C 102.5 59.6 102.7 59.4 101.4 59.5 C 101.4 59.2 100.4 59.2 100.1 59.0 C 100.6 59.0 101.5 59.3 101.6 59.0 C 101.1 59.0 101.2 58.8 101.5 59.0 C 102.5 59.1 100.7 59.3 101.9 59.4 C 102.0 59.1 104.1 59.7 105.1 59.7 C 104.9 59.9 106.2 60.0 105.4 60.0 C 105.4 60.0 105.4 60.0 105.4 60.0 Z M 99.6 59.5 C 98.9 59.5 98.1 59.0 98.3 59.0 C 98.4 59.1 99.2 59.1 99.2 59.0 C 99.0 59.0 98.8 59.0 98.8 59.0 C 100.2 59.0 99.9 59.2 100.4 59.4 C 99.7 59.5 99.4 59.3 99.2 59.4 C 99.4 59.4 99.6 59.5 99.6 59.5 C 99.6 59.5 99.6 59.5 99.6 59.5 Z M 81.0 55.5 C 81.2 55.7 81.2 55.5 81.5 55.4 C 81.8 55.8 82.9 55.3 83.3 55.5 C 83.0 55.6 82.2 55.6 82.0 55.8 C 82.4 55.8 82.5 55.9 82.9 55.8 C 82.9 56.0 82.1 56.0 82.0 56.2 C 81.8 56.0 81.6 56.2 81.4 56.1 C 82.4 55.9 80.3 55.5 81.0 55.5 C 81.0 55.5 81.0 55.5 81.0 55.5 Z M 109.4 55.5 C 109.2 55.3 107.5 54.7 108.3 54.4 C 108.7 54.6 109.1 54.8 109.3 55.1 C 109.8 55.0 110.3 55.2 110.5 55.0 C 110.5 55.0 110.5 54.9 110.4 54.9 C 110.8 54.6 110.8 54.8 110.8 55.3 C 110.2 55.2 109.4 55.2 109.4 55.5 C 109.4 55.5 109.4 55.5 109.4 55.5 Z M 110.8 52.5 C 111.0 52.9 111.0 52.3 111.2 52.6 C 111.0 53.0 111.2 54.9 111.1 54.2 C 111.0 53.5 110.8 53.3 110.8 52.5 C 110.8 52.5 110.8 52.5 110.8 52.5 Z M 41.8 5.8 C 42.7 5.7 43.3 6.1 42.8 6.2 C 42.9 6.0 41.6 6.1 41.8 5.8 C 41.8 5.8 41.8 5.8 41.8 5.8 Z M 76.8 2.0 C 75.9 1.8 75.4 2.0 75.3 1.8 C 76.2 1.7 76.1 1.9 76.8 1.8 C 76.9 1.7 77.4 1.6 77.5 1.8 C 77.0 1.8 77.1 1.9 76.8 2.0 C 76.8 2.0 76.8 2.0 76.8 2.0 Z M 116.4 37.5 C 116.6 37.4 116.6 37.0 116.8 37.2 C 116.7 38.2 116.9 39.4 117.0 40.3 C 116.9 40.2 116.8 40.2 116.7 40.2 C 116.8 38.6 116.6 38.2 116.4 37.5 C 116.4 37.5 116.4 37.5 116.4 37.5 Z M 116.9 35.6 C 116.8 35.4 116.5 35.9 116.5 35.2 C 116.7 35.2 117.0 34.0 117.0 34.6 C 116.8 34.8 116.8 35.1 116.9 35.6 C 116.9 35.6 116.9 35.6 116.9 35.6 Z M 88.5 60.2 C 87.8 60.2 89.0 60.4 89.0 60.5 C 88.5 60.4 87.7 60.4 87.4 60.3 C 88.0 60.3 88.0 59.9 88.5 60.2 C 88.5 60.2 88.5 60.2 88.5 60.2 Z M 99.1 59.6 C 100.6 59.6 100.3 60.0 101.9 60.1 C 101.4 60.2 100.0 60.2 99.8 60.4 C 99.7 60.2 99.3 60.2 99.2 60.1 C 99.7 60.1 99.9 60.2 100.5 60.2 C 100.1 59.9 100.1 60.0 100.1 59.8 C 99.7 59.8 99.5 59.8 99.3 59.8 C 99.3 59.7 98.7 59.6 99.1 59.6 C 99.1 59.6 99.1 59.6 99.1 59.6 Z M 88.3 59.5 C 87.7 59.6 87.0 59.3 87.5 59.3 C 87.7 59.4 88.0 59.2 88.2 59.4 C 87.4 59.4 89.0 59.5 88.7 59.7 C 88.2 59.7 88.1 59.8 88.3 59.9 C 87.9 59.9 87.4 59.9 87.3 59.8 C 87.6 59.8 87.9 59.8 87.9 59.8 C 87.7 59.8 87.5 59.7 87.5 59.7 C 88.0 59.7 88.2 59.6 88.3 59.5 C 88.3 59.5 88.3 59.5 88.3 59.5 Z M 92.5 59.5 C 91.6 59.5 91.4 59.3 90.9 59.1 C 92.1 59.2 92.5 59.5 93.5 59.7 C 92.5 59.6 91.9 59.9 91.4 59.8 C 91.8 59.7 92.5 59.7 92.5 59.5 C 92.5 59.5 92.5 59.5 92.5 59.5 Z M 4.2 45.2 C 4.3 44.5 4.4 44.0 4.6 43.2 C 4.3 42.9 3.8 44.2 4.0 43.6 C 4.0 42.8 4.3 43.5 4.3 42.8 C 4.0 43.4 4.0 39.9 4.3 39.8 C 4.3 40.4 4.4 40.6 4.6 40.5 C 4.5 41.9 4.7 42.5 4.8 43.6 C 4.5 44.2 4.4 46.4 4.7 47.7 C 4.3 48.4 4.8 49.9 4.4 50.9 C 4.5 51.2 4.7 50.1 4.7 51.0 C 4.4 51.5 4.4 51.0 4.2 51.8 C 4.4 51.9 4.5 51.7 4.6 52.1 C 4.4 52.1 4.4 52.6 4.3 52.7 C 4.3 51.1 4.0 52.8 3.9 51.5 C 4.0 51.0 4.3 52.1 4.3 50.6 C 4.2 50.1 4.2 49.6 3.9 49.7 C 3.9 49.2 3.9 49.0 3.8 48.7 C 4.1 49.3 3.8 46.7 4.1 47.9 C 4.1 48.0 4.1 48.8 4.2 49.4 C 4.4 48.9 4.3 48.2 4.2 47.3 C 4.4 47.0 4.4 47.5 4.5 47.1 C 4.3 46.3 4.1 47.3 4.0 46.7 C 4.0 46.9 4.0 47.3 3.9 47.2 C 4.2 46.0 3.9 45.5 3.9 44.8 C 4.1 45.3 4.1 44.1 4.2 45.2 C 4.2 45.2 4.2 45.2 4.2 45.2 Z M 4.5 56.0 C 4.5 56.3 4.5 56.6 4.5 56.9 C 4.2 57.0 4.2 55.8 4.0 56.6 C 4.0 55.3 4.3 56.7 4.5 56.0 C 4.5 56.0 4.5 56.0 4.5 56.0 Z M 5.4 50.2 C 5.6 49.8 5.0 49.9 5.0 49.5 C 5.1 50.3 5.2 50.9 4.9 51.0 C 5.0 50.2 5.0 49.8 4.9 48.9 C 5.2 49.8 5.2 48.0 5.4 47.8 C 5.5 48.5 5.6 49.0 5.6 49.9 C 5.5 49.8 5.4 51.0 5.4 50.2 C 5.4 50.2 5.4 50.2 5.4 50.2 Z M 5.7 52.6 C 5.5 52.7 5.7 54.0 5.4 53.7 C 5.4 52.9 5.3 52.6 5.1 52.8 C 5.1 52.2 5.2 52.1 5.2 51.6 C 5.5 51.4 5.5 52.3 5.6 52.6 C 5.6 52.4 5.7 52.2 5.7 52.6 C 5.7 52.6 5.7 52.6 5.7 52.6 Z M 21.8 56.0 C 22.1 56.3 20.9 56.1 20.7 56.1 C 21.1 56.3 20.9 56.4 20.2 56.5 C 20.4 56.1 19.4 56.3 18.7 55.9 C 18.5 56.2 19.4 56.2 18.4 56.3 C 17.7 56.2 17.0 56.4 15.8 56.4 C 15.6 56.1 16.1 56.1 16.4 56.0 C 15.6 56.1 15.8 55.8 15.2 55.8 C 15.3 56.0 14.8 56.1 14.6 55.9 C 15.6 55.8 13.3 55.6 14.3 55.5 C 14.4 55.6 14.6 55.6 14.9 55.5 C 14.6 55.9 16.0 55.7 16.4 55.9 C 16.9 55.4 18.4 55.6 20.1 55.8 C 20.2 55.9 19.7 56.0 20.1 56.0 C 20.2 55.9 20.7 55.9 21.0 55.8 C 21.0 56.0 21.2 56.0 21.6 56.1 C 21.6 56.0 21.6 56.0 21.8 56.0 C 21.8 56.0 21.8 56.0 21.8 56.0 Z M 14.7 6.9 C 15.0 7.3 16.6 7.1 17.1 7.0 C 17.3 7.4 14.0 7.3 14.7 6.9 C 14.7 6.9 14.7 6.9 14.7 6.9 Z M 7.1 10.4 C 7.1 9.9 6.9 10.1 6.9 9.6 C 7.1 9.8 6.6 8.3 6.9 8.5 C 7.1 9.2 7.1 9.5 7.1 10.4 C 7.1 10.4 7.1 10.4 7.1 10.4 Z M 7.0 20.6 C 7.0 19.7 6.9 20.9 6.8 20.7 C 6.8 20.0 6.8 19.2 7.0 19.4 C 6.9 20.0 7.2 20.7 7.0 20.6 C 7.0 20.6 7.0 20.6 7.0 20.6 Z M 9.2 7.4 C 10.0 7.5 9.2 7.9 8.9 7.7 C 9.6 7.6 8.2 7.5 7.6 7.5 C 7.4 7.2 7.7 7.3 7.1 7.0 C 8.0 6.9 7.6 7.3 8.2 7.3 C 8.6 7.1 8.1 7.2 7.9 7.0 C 8.2 7.0 8.5 7.0 8.8 7.0 C 8.9 7.1 9.0 7.2 9.2 7.4 C 8.8 7.4 8.5 7.4 8.8 7.5 C 9.0 7.5 9.0 7.5 9.2 7.4 C 9.2 7.4 9.2 7.4 9.2 7.4 Z M 6.8 55.5 C 6.4 55.5 6.8 55.6 7.1 55.7 C 7.2 55.6 7.5 55.1 8.0 55.4 C 6.9 55.6 8.3 55.7 7.7 55.8 C 7.5 55.6 6.8 55.9 6.3 55.8 C 6.0 55.7 6.6 55.3 6.8 55.5 C 6.8 55.5 6.8 55.5 6.8 55.5 Z M 8.9 55.7 C 8.8 55.6 8.6 55.6 8.3 55.6 C 8.6 55.4 8.1 55.3 8.6 55.3 C 8.5 55.4 10.0 55.4 9.1 55.5 C 8.4 55.4 9.4 55.7 9.7 55.7 C 9.3 55.7 8.7 55.9 8.6 55.8 C 8.8 55.8 8.9 55.7 8.9 55.7 C 8.9 55.7 8.9 55.7 8.9 55.7 Z M 27.5 55.4 C 27.6 55.2 27.1 55.2 26.9 55.1 C 28.3 55.1 29.6 55.2 30.3 55.2 C 29.7 55.2 29.7 55.4 30.1 55.5 C 29.4 55.4 29.2 55.6 29.0 55.4 C 29.5 55.2 28.4 55.4 27.5 55.4 C 27.5 55.4 27.5 55.4 27.5 55.4 Z M 27.5 55.4 " fill="#FFE181"></path><g><clipPath id="clip-86"><path d="M 9.4 9.5 L 109.3 9.5 L 109.3 53.8 L 9.4 53.8 Z M 9.4 9.5 "></path></clipPath><g clip-path="url(#clip-86)"><path d="M 23.6 41.8 L 95.0 41.8 L 95.0 19.8 L 23.6 19.8 Z M 23.6 41.8 " fill="#000000" fill-opacity="0.00"></path><text xml:space="preserve" font-family="Monaco" font-size="17.0" fill="#34BC25" transform="matrix(1.00, 0.00, -0.00, -1.00, 24.0, 25.0)">F</text><text xml:space="preserve" font-family="Monaco" font-size="17.0" fill="#34BC25" transform="matrix(1.00, 0.00, -0.00, -1.00, 34.2, 25.0)">i</text><text xml:space="preserve" font-family="Monaco" font-size="17.0" fill="#34BC25" transform="matrix(1.00, 0.00, -0.00, -1.00, 44.4, 25.0)">n</text><text xml:space="preserve" font-family="Monaco" font-size="17.0" fill="#34BC25" transform="matrix(1.00, 0.00, -0.00, -1.00, 54.6, 25.0)">l</text><text xml:space="preserve" font-family="Monaco" font-size="17.0" fill="#34BC25" transform="matrix(1.00, 0.00, -0.00, -1.00, 64.8, 25.0)">a</text><text xml:space="preserve" font-family="Monaco" font-size="17.0" fill="#34BC25" transform="matrix(1.00, 0.00, -0.00, -1.00, 75.0, 25.0)">n</text><text xml:space="preserve" font-family="Monaco" font-size="17.0" fill="#34BC25" transform="matrix(1.00, 0.00, -0.00, -1.00, 85.2, 25.0)">d</text></g></g></g></svg>