<?xml version="1.0" encoding="UTF-8" standalone="no"?><svg xmlns="http://www.w3.org/2000/svg" xmlns:xlink="http://www.w3.org/1999/xlink" clip-rule="evenodd" stroke-miterlimit="4.00" viewBox="0 0 129 73"><desc>SVG generated by Keynote</desc><defs></defs><g transform="matrix(1.00, 0.00, -0.00, -1.00, 0.0, 73.0)"><image xlink:href="../../956FEF66-F126-4898-9939-EAE9E9BE3BA5/assets/625FF3B509A744FAC1886A92B3D50C16.png" width="126.00" height="70.00" transform="matrix(1.00, 0.00, -0.00, -1.00, 1.4, 71.8)" opacity="0.50"></image><path d="M 10.4 62.8 L 118.3 62.8 L 118.3 10.5 L 10.4 10.5 Z M 10.4 62.8 " fill="#010101"></path><path d="M 122.2 24.1 C 122.1 23.9 122.1 23.6 122.1 23.1 C 122.0 23.3 122.0 23.5 121.9 23.6 C 121.9 23.9 122.0 24.4 121.9 25.2 C 122.0 25.2 122.0 24.8 122.0 24.5 C 122.0 24.2 122.1 24.2 122.2 24.1 C 122.2 24.1 122.2 24.1 122.2 24.1 Z M 49.3 7.2 C 50.0 7.2 49.2 6.9 49.0 6.9 C 48.9 7.0 48.9 7.0 48.7 7.0 C 48.6 6.8 49.1 6.7 49.5 6.7 C 51.3 6.8 50.1 7.2 49.3 7.2 C 49.3 7.2 49.3 7.2 49.3 7.2 Z M 7.2 48.5 C 7.2 49.8 7.5 48.5 7.6 48.3 C 7.6 48.9 8.0 48.5 8.0 49.3 C 7.9 49.4 7.8 49.7 7.7 49.8 C 7.7 49.5 7.7 49.0 7.6 48.9 C 7.6 49.4 7.7 50.0 7.6 50.1 C 7.5 49.0 7.3 49.9 7.2 50.0 C 7.2 49.1 7.0 48.7 7.2 48.5 C 7.2 48.5 7.2 48.5 7.2 48.5 Z M 63.3 65.5 C 63.0 65.5 62.6 65.5 62.7 65.3 C 63.1 65.3 63.3 65.4 63.6 65.4 C 63.6 65.3 63.4 65.2 63.8 65.2 C 64.3 65.4 64.2 65.7 64.1 65.8 C 64.0 65.6 62.7 65.7 63.3 65.5 C 63.3 65.5 63.3 65.5 63.3 65.5 Z M 97.0 65.1 C 98.3 65.2 96.8 64.7 98.0 64.8 C 98.2 65.1 98.5 65.3 97.8 65.3 C 97.6 65.2 97.2 65.2 97.0 65.1 C 97.0 65.1 97.0 65.1 97.0 65.1 Z M 9.1 15.0 C 8.9 14.8 9.0 15.7 8.8 15.3 C 8.8 14.9 8.8 14.5 8.8 14.1 C 8.9 14.2 9.1 14.4 9.1 15.0 C 9.1 15.0 9.1 15.0 9.1 15.0 Z M 9.6 58.0 C 9.3 59.4 9.7 60.9 9.4 60.4 C 9.2 60.9 8.7 59.4 9.0 59.5 C 9.3 59.4 9.5 57.0 9.6 58.0 C 9.6 58.0 9.6 58.0 9.6 58.0 Z M 43.8 11.3 C 42.3 11.1 42.9 11.8 41.8 11.5 C 42.1 11.5 42.2 11.4 42.3 11.3 C 42.1 11.3 41.8 11.3 41.7 11.2 C 42.4 11.2 43.1 11.1 43.8 11.3 C 43.8 11.3 43.8 11.3 43.8 11.3 Z M 121.6 46.8 C 121.6 47.1 121.7 47.2 121.8 47.2 C 121.7 48.2 121.9 48.3 121.8 48.9 C 121.4 48.8 121.6 47.9 121.6 47.2 C 121.6 47.1 121.5 46.8 121.6 46.8 C 121.6 46.8 121.6 46.8 121.6 46.8 Z M 111.8 65.2 C 112.0 65.4 112.7 65.5 111.8 65.6 C 110.6 65.3 111.3 65.1 112.2 64.9 C 112.1 64.8 112.0 64.7 111.9 64.6 C 111.5 64.6 111.2 64.6 110.9 64.5 C 111.0 64.9 109.8 64.2 108.4 64.4 C 109.0 64.3 108.0 64.0 109.0 64.1 C 108.6 63.9 109.3 63.9 109.0 63.7 C 108.7 63.8 107.6 63.8 108.1 64.1 C 107.6 64.1 107.2 64.1 106.9 64.0 C 106.3 63.8 107.8 64.0 107.2 63.7 C 106.9 63.7 106.8 63.7 106.5 63.6 C 106.6 63.7 106.8 63.9 106.5 63.9 C 105.4 63.8 106.4 63.6 105.0 63.6 C 105.0 63.7 105.5 63.7 105.6 63.9 C 105.1 64.0 104.9 63.8 104.4 64.0 C 104.2 63.8 104.7 63.8 104.2 63.7 C 104.2 64.1 102.8 63.5 102.2 63.8 C 103.2 64.3 102.0 63.7 101.7 64.2 C 101.4 64.1 101.6 63.7 101.0 63.7 C 101.7 64.3 98.9 64.2 101.5 64.7 C 100.3 64.7 100.4 65.2 101.3 65.2 C 99.2 65.1 100.1 65.4 99.4 65.5 C 98.6 65.5 99.7 65.3 99.2 65.2 C 100.0 65.2 99.7 65.0 100.4 65.2 C 100.3 65.1 100.4 65.0 100.5 64.9 C 99.8 65.1 98.6 64.7 98.9 64.4 C 99.3 64.5 99.2 64.7 99.7 64.8 C 99.3 64.4 100.4 64.8 100.2 64.6 C 99.6 64.3 100.5 64.0 99.4 64.0 C 99.5 64.1 99.6 64.2 99.7 64.4 C 99.4 64.4 99.1 64.4 98.8 64.4 C 98.4 64.1 98.4 64.0 98.1 63.9 C 97.6 63.9 97.4 63.9 97.4 64.0 C 98.0 64.1 98.9 64.3 97.9 64.4 C 97.9 63.9 96.4 64.2 97.0 64.0 C 95.8 63.8 95.5 64.2 95.2 63.9 C 94.6 63.9 95.2 64.1 94.5 64.1 C 93.2 63.9 93.7 64.2 92.0 64.0 C 92.2 64.4 91.8 64.0 91.4 64.0 C 91.5 64.1 91.6 64.2 91.7 64.4 C 91.0 64.1 89.7 64.0 88.6 64.3 C 88.3 64.2 88.3 64.0 87.6 64.0 C 86.9 64.4 85.6 64.0 84.8 64.4 C 84.6 64.2 83.9 64.2 83.6 64.3 C 83.3 64.2 83.7 63.9 83.0 63.9 C 82.7 64.1 83.6 64.2 82.7 64.3 C 82.6 64.0 82.0 64.5 81.7 64.2 C 82.0 64.1 82.3 64.0 82.5 64.0 C 82.1 64.0 82.1 63.8 81.8 63.8 C 82.1 64.1 81.1 63.8 80.9 63.8 C 81.0 63.9 81.0 64.0 80.8 64.1 C 80.3 64.1 79.9 64.1 79.7 64.2 C 78.9 64.1 79.9 64.0 79.2 64.0 C 79.3 64.6 78.2 63.9 77.0 64.3 C 76.6 64.1 76.0 64.0 75.1 64.0 C 75.1 64.1 76.0 64.0 76.1 64.2 C 74.8 64.1 76.4 64.4 75.6 64.4 C 73.6 64.2 72.4 64.2 70.4 64.0 C 70.5 64.2 69.0 64.4 69.0 64.3 C 69.4 64.2 68.0 64.0 67.4 64.0 C 67.4 64.4 66.6 64.7 66.6 64.9 C 66.3 64.7 66.4 64.7 66.1 64.4 C 64.9 64.2 64.5 64.6 63.6 64.2 C 63.8 64.4 63.3 64.4 62.9 64.5 C 62.9 64.3 63.1 64.2 63.2 64.0 C 62.7 64.1 62.5 63.9 62.0 64.0 C 61.8 64.6 60.5 63.8 60.4 64.4 C 59.6 64.4 59.6 64.2 58.8 64.2 C 58.9 64.3 58.9 64.4 58.7 64.5 C 59.2 64.4 59.5 64.2 59.9 64.5 C 58.8 64.6 62.4 65.2 60.6 65.5 C 60.5 65.4 60.6 65.2 60.2 65.2 C 59.1 65.3 59.9 65.5 60.3 65.5 C 59.6 65.6 58.8 65.5 59.6 65.8 C 57.9 65.9 58.9 65.7 58.3 65.6 C 55.3 65.8 51.6 65.8 47.4 65.6 C 47.4 65.9 45.1 65.6 44.4 65.4 C 43.3 65.6 42.1 65.7 41.7 65.4 C 41.5 65.7 40.2 65.2 40.2 65.5 C 40.6 65.5 41.0 65.6 40.5 65.6 C 38.8 65.5 36.3 65.4 35.4 65.6 C 34.7 65.3 33.7 65.4 33.0 65.6 C 32.8 65.4 33.4 65.4 32.9 65.3 C 32.8 65.5 31.3 65.7 30.9 65.5 C 31.3 65.5 31.8 65.2 31.1 65.2 C 31.1 65.3 30.3 65.3 30.5 65.5 C 29.5 65.3 29.0 65.5 28.1 65.4 C 28.8 65.4 29.2 65.3 29.3 65.1 C 28.7 65.2 28.3 65.3 27.8 65.1 C 27.9 65.4 27.0 65.2 26.0 65.4 C 25.8 65.3 25.5 65.1 24.8 65.2 C 24.4 65.4 26.0 65.4 25.1 65.5 C 25.1 65.4 24.3 65.2 24.5 65.5 C 23.5 65.3 22.9 65.5 22.1 65.3 C 23.2 65.4 22.3 65.0 22.1 65.0 C 21.8 65.0 21.5 65.0 21.5 65.1 C 21.5 65.2 22.0 65.1 22.1 65.2 C 21.4 65.1 21.2 65.6 20.9 65.3 C 21.2 65.3 21.3 65.2 20.9 65.2 C 20.8 65.5 18.7 65.3 19.4 65.1 C 19.4 65.2 20.2 65.2 20.3 65.1 C 20.0 64.9 18.8 65.1 19.1 64.8 C 19.8 64.8 19.7 65.0 20.6 64.9 C 20.6 64.8 21.1 64.7 21.4 64.6 C 20.1 64.6 19.8 64.9 19.6 64.6 C 19.1 64.6 19.4 64.9 18.5 64.8 C 17.1 64.8 18.2 64.5 17.9 64.4 C 16.6 64.6 17.0 64.9 17.6 65.2 C 16.6 65.1 16.3 65.3 15.2 65.2 C 15.2 65.1 15.4 65.0 15.8 64.9 C 15.8 65.0 16.8 65.2 16.7 65.0 C 16.6 64.6 15.8 64.5 14.6 64.4 C 14.9 64.8 14.9 64.6 13.7 64.6 C 13.9 64.9 13.1 64.5 13.1 64.8 C 13.1 64.9 13.6 64.8 14.0 64.8 C 14.0 65.0 13.8 65.1 13.4 65.2 C 13.1 65.0 12.9 65.2 12.2 65.1 C 12.1 64.9 12.7 64.8 12.8 64.7 C 12.4 64.7 12.3 64.8 11.9 64.8 C 11.5 64.6 11.5 64.3 11.6 64.0 C 12.0 63.9 12.8 63.9 12.2 63.7 C 13.9 63.7 12.1 64.1 12.8 64.1 C 13.5 63.8 13.1 64.2 14.2 64.2 C 14.6 64.2 14.7 64.1 14.8 64.0 C 14.8 64.0 14.1 63.7 14.8 63.7 C 15.0 63.9 15.4 64.0 16.0 64.0 C 16.0 63.9 14.8 63.8 16.0 63.8 C 16.6 63.8 16.1 64.1 16.9 64.1 C 16.9 64.0 17.2 64.0 17.2 64.0 C 16.0 64.0 17.4 63.8 16.6 63.6 C 17.6 63.5 16.8 63.9 17.5 63.9 C 17.5 63.7 18.7 64.0 18.7 63.7 C 18.2 63.8 17.4 63.8 17.5 63.5 C 18.3 63.6 21.8 63.4 20.5 63.8 C 21.0 63.6 23.6 63.3 23.4 63.5 C 22.6 63.4 22.6 63.6 22.5 63.8 C 24.0 63.5 24.8 63.7 26.3 63.4 C 24.6 63.3 25.8 62.9 24.8 62.8 C 24.3 62.8 23.7 62.7 23.6 62.8 C 23.8 63.1 24.5 63.0 24.8 62.8 C 24.8 63.0 24.8 63.3 24.9 63.5 C 22.9 63.2 21.9 63.5 21.0 63.4 C 21.8 63.4 19.5 63.1 20.4 63.0 C 20.8 63.2 21.7 63.2 22.5 63.2 C 22.5 63.2 22.5 63.1 22.5 63.0 C 22.8 63.0 23.3 63.0 23.3 62.9 C 22.3 63.0 21.7 62.7 21.0 62.9 C 21.0 62.9 20.9 62.8 20.9 62.8 C 20.8 62.7 20.6 62.7 20.6 62.7 C 21.0 62.7 21.5 62.7 21.5 62.6 C 20.8 62.5 20.6 62.3 19.7 62.3 C 19.9 62.0 18.7 61.7 20.0 61.6 C 20.2 61.8 20.9 61.9 20.9 62.0 C 21.3 62.1 22.0 62.1 22.3 62.0 C 22.0 61.8 21.2 61.7 21.1 61.5 C 21.7 61.4 22.2 61.3 22.6 61.6 C 21.3 61.7 23.3 61.8 23.8 62.0 C 23.6 61.9 23.3 61.8 23.2 61.7 C 24.1 61.7 24.6 61.9 24.6 61.6 C 25.8 61.4 25.5 61.7 26.4 61.7 C 25.8 61.4 26.9 61.6 26.3 61.2 C 27.6 61.2 26.7 61.5 27.2 61.6 C 27.6 61.5 27.7 61.4 28.1 61.4 C 28.7 61.6 30.0 61.6 30.2 61.9 C 30.7 61.9 30.8 62.0 31.4 62.0 C 31.5 61.9 31.6 61.8 31.9 61.7 C 32.0 61.8 32.4 61.9 32.5 61.8 C 30.9 61.4 31.3 61.4 29.7 61.2 C 29.7 61.3 29.4 61.3 29.8 61.4 C 28.7 61.5 28.4 61.3 27.5 61.3 C 27.3 61.1 27.1 60.8 26.3 61.0 C 26.4 60.7 26.2 60.7 26.5 60.6 C 27.0 60.7 27.6 60.8 28.3 60.9 C 28.3 60.8 28.2 60.7 28.5 60.7 C 28.8 60.8 29.3 60.9 29.7 60.8 C 29.7 60.9 29.6 60.9 29.4 61.0 C 30.9 61.1 30.3 60.7 31.4 60.9 C 31.2 60.8 30.5 60.8 31.1 60.6 C 32.1 60.5 32.3 60.7 32.8 60.8 C 32.9 60.7 32.8 60.6 33.1 60.6 C 33.9 60.8 31.7 61.1 33.0 61.4 C 33.0 61.1 34.2 61.2 34.5 61.4 C 34.1 61.6 33.3 61.3 33.3 61.5 C 35.5 61.5 33.4 61.9 35.7 62.0 C 35.7 61.9 35.7 61.7 35.7 61.6 C 34.8 61.7 34.7 61.5 34.7 61.2 C 33.9 61.2 33.5 60.9 32.9 61.1 C 33.1 60.6 33.6 61.1 34.4 61.1 C 34.3 60.8 33.6 60.8 33.4 60.6 C 35.3 60.8 35.6 60.5 37.5 60.8 C 37.0 60.6 38.4 60.8 38.3 60.6 C 36.7 60.6 37.2 60.0 36.9 59.9 C 36.0 59.9 36.5 60.4 36.0 60.5 C 35.6 60.3 35.7 60.1 35.8 59.8 C 36.7 59.9 36.5 59.8 37.2 59.7 C 37.8 59.9 38.5 60.4 37.7 60.5 C 37.9 60.5 39.0 60.3 39.1 60.5 C 38.0 60.5 39.3 60.6 38.6 60.8 C 39.5 60.9 41.0 60.6 42.1 60.8 C 42.0 60.7 42.4 60.7 42.3 60.5 C 41.3 60.8 40.9 60.2 39.9 60.2 C 40.3 60.2 40.1 60.0 39.8 60.0 C 40.9 60.1 41.4 59.9 42.2 60.1 C 42.1 60.0 42.1 60.0 42.1 59.9 C 43.4 60.1 43.2 60.0 44.1 59.8 C 44.5 59.9 44.1 60.4 44.1 60.6 C 44.5 60.5 46.1 60.5 45.1 60.3 C 46.1 60.3 45.9 60.6 46.9 60.6 C 46.9 60.3 45.9 60.4 46.2 60.0 C 47.1 60.0 46.7 60.3 47.3 60.1 C 47.4 60.3 47.5 60.5 48.3 60.5 C 47.7 60.3 48.4 60.4 48.5 60.3 C 48.2 60.2 47.8 60.2 47.6 60.1 C 49.1 60.2 49.3 60.2 50.5 60.1 C 50.1 60.4 50.8 60.5 50.1 60.6 C 50.7 60.4 51.8 60.7 52.1 60.6 C 51.6 60.5 50.9 60.5 50.5 60.4 C 52.8 60.3 53.9 60.0 56.0 60.4 C 55.7 60.4 55.2 60.3 55.2 60.4 C 55.4 60.5 55.8 60.4 55.8 60.5 C 55.1 60.5 54.4 60.5 54.1 60.6 C 53.4 60.5 54.4 60.4 53.7 60.4 C 53.7 60.5 52.4 60.4 53.0 60.7 C 54.0 60.4 55.1 60.7 55.7 61.1 C 56.6 60.6 55.6 60.7 56.5 60.2 C 56.6 60.3 56.8 60.4 57.2 60.4 C 56.7 60.1 58.1 60.3 58.3 60.3 C 57.8 60.4 56.0 60.6 57.1 60.9 C 56.4 60.3 59.4 61.1 58.7 60.6 C 59.9 60.5 59.6 60.9 60.1 60.6 C 60.2 60.7 60.2 60.8 60.5 60.8 C 60.9 60.8 60.9 60.7 61.0 60.7 C 59.3 60.5 59.6 60.2 58.5 60.2 C 58.7 60.2 58.9 60.2 58.8 60.1 C 58.7 60.1 58.8 60.0 59.0 60.0 C 59.2 60.3 59.9 60.0 60.2 60.2 C 59.9 60.2 59.6 60.2 59.7 60.4 C 61.1 60.3 61.0 60.6 63.1 60.8 C 62.4 60.6 63.2 60.5 63.8 60.5 C 64.8 60.5 64.6 60.9 65.8 60.9 C 65.3 60.3 67.0 61.0 68.2 60.6 C 68.2 60.9 70.1 61.0 70.3 60.8 C 70.4 60.9 71.0 60.8 71.5 60.8 C 71.7 61.0 71.2 61.0 71.6 61.1 C 72.0 61.0 71.5 60.8 72.0 60.8 C 72.7 60.8 72.7 61.1 73.6 61.1 C 73.5 60.9 73.1 60.9 73.4 60.8 C 74.3 60.9 75.0 60.8 74.2 60.6 C 75.4 60.6 75.1 61.0 76.2 61.0 C 75.8 60.9 75.8 60.8 76.3 60.8 C 76.9 60.9 77.0 61.0 77.2 61.1 C 77.4 60.9 77.2 60.9 78.2 61.0 C 78.1 60.9 78.1 60.8 78.0 60.7 C 78.4 60.7 79.0 60.6 79.2 60.7 C 78.4 60.7 78.8 60.9 78.5 61.0 C 79.3 61.0 81.0 61.3 79.7 61.0 C 80.7 60.9 80.4 61.2 81.2 61.1 C 80.5 60.9 81.1 61.1 82.0 61.1 C 81.7 60.7 82.6 61.0 83.1 61.0 C 82.9 60.8 83.0 60.7 83.5 60.7 C 83.5 60.8 83.9 60.9 84.4 60.8 C 84.4 60.7 83.1 60.6 84.3 60.6 C 84.9 60.7 85.1 61.0 86.0 61.0 C 86.4 61.2 85.3 61.1 85.7 61.4 C 86.3 61.2 86.6 61.3 87.7 61.4 C 87.0 60.9 89.4 60.8 88.0 60.6 C 88.4 60.6 88.7 60.3 89.1 60.5 C 88.8 60.6 89.6 60.8 89.6 60.8 C 90.1 60.8 91.4 60.9 91.3 60.8 C 90.2 60.8 90.1 60.6 89.6 60.4 C 91.1 60.3 92.6 60.4 92.7 60.7 C 92.6 60.6 92.8 60.6 92.8 60.5 C 92.3 60.6 91.6 60.1 92.3 60.1 C 92.3 60.4 92.8 60.4 93.4 60.5 C 93.2 60.3 95.6 60.6 94.9 60.3 C 94.3 60.5 93.3 60.1 93.8 60.0 C 94.5 60.2 95.8 60.3 95.7 60.5 C 95.9 60.4 96.2 60.4 96.4 60.3 C 96.4 60.0 95.8 60.1 95.8 59.9 C 96.2 59.9 96.8 59.8 97.0 60.0 C 95.9 60.0 97.7 60.1 96.7 60.3 C 97.4 60.3 97.6 60.4 98.2 60.4 C 98.2 60.3 98.4 60.3 98.4 60.3 C 98.0 60.4 97.4 60.3 97.3 60.0 C 98.3 60.0 98.4 60.3 99.2 60.3 C 99.4 60.1 100.2 59.8 101.0 60.0 C 99.8 59.9 101.2 60.1 100.6 60.2 C 99.4 60.0 99.4 60.3 99.2 60.5 C 99.7 60.6 100.7 60.7 100.5 60.4 C 99.9 60.4 100.1 60.5 99.8 60.6 C 99.7 60.4 99.8 60.3 100.1 60.3 C 100.7 60.4 101.6 60.3 101.2 60.6 C 101.8 60.4 102.9 60.7 103.5 60.5 C 102.6 60.5 101.9 60.4 101.5 60.2 C 102.1 60.1 103.0 60.4 102.9 60.2 C 102.6 60.0 101.6 60.1 101.2 59.9 C 101.9 59.6 103.8 60.3 102.3 59.8 C 102.8 59.8 103.5 59.8 103.8 60.0 C 103.2 60.0 104.2 60.3 104.5 60.4 C 105.0 60.3 105.4 60.3 105.5 60.2 C 104.8 60.3 103.9 60.0 104.4 60.0 C 104.7 60.1 104.7 59.9 104.9 59.9 C 105.1 60.0 105.9 59.9 106.2 60.0 C 106.0 59.9 105.6 59.9 105.4 59.8 C 105.9 59.7 106.3 59.4 107.0 59.7 C 106.7 59.7 106.2 59.7 106.3 59.8 C 108.1 60.1 108.8 60.4 110.7 60.6 C 110.5 60.6 110.5 60.7 110.6 60.8 C 111.7 60.8 112.6 60.9 112.6 61.1 C 113.3 61.0 113.5 60.9 113.7 60.8 C 112.9 60.6 112.9 60.8 112.2 60.7 C 112.5 60.6 111.2 60.2 110.8 60.0 C 109.8 60.3 109.3 59.9 108.2 60.0 C 108.3 59.8 107.2 60.0 107.3 59.7 C 108.9 60.1 109.7 59.8 111.5 60.0 C 111.5 60.2 111.5 60.3 112.3 60.4 C 113.5 60.6 112.6 60.2 113.6 60.3 C 114.2 60.5 113.7 60.5 114.2 60.6 C 114.4 60.5 115.3 60.5 115.8 60.8 C 114.6 60.7 116.2 61.0 115.5 61.1 C 115.9 61.1 116.2 61.1 116.5 61.2 C 115.7 61.0 116.0 60.9 116.3 60.8 C 116.2 60.5 116.2 60.2 116.1 60.5 C 116.0 58.9 116.7 61.0 116.6 59.7 C 116.5 60.1 116.4 59.2 116.4 58.4 C 116.7 58.4 116.7 57.4 116.8 56.8 C 116.6 57.0 116.6 57.3 116.5 56.5 C 116.4 56.8 116.4 57.4 116.5 57.9 C 116.4 57.8 116.3 57.9 116.2 58.0 C 116.2 57.0 116.1 57.3 116.0 56.9 C 116.1 56.8 116.1 56.1 116.2 56.1 C 116.2 56.0 116.1 55.7 116.1 55.7 C 116.1 56.8 115.7 55.2 115.7 55.9 C 115.7 56.4 115.9 56.3 115.9 56.9 C 115.6 57.2 115.6 56.1 115.4 55.6 C 115.2 55.9 115.5 56.8 115.2 56.8 C 114.9 55.9 115.1 55.0 115.2 54.2 C 114.9 54.0 115.3 52.8 114.9 52.4 C 115.0 52.3 115.1 52.2 115.1 52.1 C 114.9 51.6 115.2 51.6 115.2 51.3 C 115.1 51.2 115.0 51.2 114.9 51.4 C 115.0 50.4 115.0 50.2 114.9 48.8 C 115.0 48.7 115.2 48.6 115.4 48.6 C 115.4 48.9 115.4 49.2 115.5 49.4 C 115.5 47.7 114.9 48.5 115.3 47.5 C 115.2 47.5 114.9 48.2 114.8 47.5 C 115.1 46.6 114.8 44.9 115.5 45.2 C 115.7 44.3 115.3 43.5 115.6 43.2 C 115.6 42.9 115.5 42.7 115.4 42.6 C 115.3 42.9 115.2 43.2 115.0 43.5 C 115.2 44.1 114.9 44.3 115.3 43.9 C 115.3 44.7 115.1 44.9 115.0 45.3 C 114.9 44.1 115.1 43.1 114.7 42.9 C 114.9 42.6 115.0 42.3 115.2 42.0 C 115.0 41.9 114.9 40.5 115.2 40.5 C 115.1 41.3 115.4 42.4 115.6 41.6 C 115.4 39.3 115.9 38.1 115.6 36.1 C 115.7 36.0 115.9 36.2 115.9 35.8 C 115.8 35.8 115.7 35.7 115.6 35.5 C 115.6 34.9 115.7 34.5 115.7 33.7 C 115.9 33.7 116.1 33.6 116.2 33.1 C 115.9 32.9 115.4 32.1 115.5 31.6 C 115.5 32.1 115.8 31.4 115.8 31.0 C 115.5 31.4 116.1 28.5 115.8 29.4 C 115.8 28.3 115.9 27.8 116.0 27.7 C 116.0 27.4 115.9 27.1 115.8 26.7 C 116.2 26.4 115.9 24.6 116.1 24.2 C 116.0 24.9 116.3 24.9 116.3 24.4 C 116.1 24.1 115.9 22.5 116.0 22.1 C 116.1 22.2 116.3 22.2 116.4 23.0 C 116.4 21.5 116.1 21.8 115.8 21.4 C 116.2 21.3 115.9 20.8 115.8 20.6 C 116.0 20.1 115.9 20.6 116.2 20.4 C 116.2 19.9 116.3 19.6 116.3 18.9 C 116.1 19.3 116.2 18.5 116.2 18.2 C 116.1 18.2 116.0 17.9 115.9 17.4 C 116.3 17.8 116.4 13.6 116.1 14.8 C 115.9 14.2 116.4 13.7 116.3 12.7 C 116.3 12.7 116.3 12.6 116.2 12.5 C 116.0 12.6 115.8 12.6 116.1 12.7 C 116.1 12.7 116.1 12.7 116.1 12.7 C 116.1 12.7 116.1 12.7 116.1 12.7 C 115.1 12.7 116.0 12.4 114.8 12.5 C 115.0 12.8 113.8 12.4 113.7 12.8 C 113.6 12.4 112.2 13.0 111.7 12.6 C 111.6 12.7 111.3 12.7 111.2 12.8 C 111.0 12.9 112.1 13.0 111.3 13.0 C 110.5 12.8 111.1 12.7 111.1 12.6 C 108.4 12.7 105.4 12.6 102.7 12.5 C 102.9 12.6 102.8 12.7 102.2 12.8 C 101.8 12.3 98.4 12.5 97.8 12.7 C 97.7 12.4 95.8 12.7 95.6 12.5 C 95.9 12.5 96.7 12.3 96.0 12.3 C 95.4 12.6 95.0 12.4 94.2 12.6 C 94.0 12.3 91.8 12.6 93.0 12.1 C 92.6 12.1 92.4 12.1 92.2 12.0 C 92.0 12.3 91.6 12.3 92.3 12.4 C 90.5 12.2 90.0 12.5 88.7 12.3 C 88.3 12.4 89.4 12.5 88.5 12.6 C 88.5 12.5 88.6 12.5 88.6 12.4 C 88.3 12.4 88.1 12.6 88.0 12.4 C 88.2 12.3 88.6 12.3 88.8 12.0 C 88.0 12.1 87.7 11.8 87.4 12.0 C 88.3 12.1 87.4 12.5 87.0 12.3 C 87.6 12.1 84.7 12.3 83.8 12.4 C 83.5 12.1 84.8 12.4 84.7 12.2 C 83.1 12.3 83.2 12.1 82.9 12.4 C 82.1 12.4 81.8 12.2 80.7 12.4 C 80.1 12.2 81.1 12.2 80.5 12.1 C 80.1 12.2 79.9 12.3 79.3 12.4 C 77.9 11.8 74.2 12.7 72.6 11.9 C 73.2 12.1 72.3 12.2 71.4 12.2 C 71.3 12.1 71.5 12.0 71.1 12.0 C 71.2 12.1 70.9 12.2 70.3 12.2 C 70.2 12.1 70.3 12.0 70.0 12.0 C 69.7 12.3 69.0 12.0 68.5 12.1 C 68.4 11.8 69.6 12.0 69.7 11.8 C 68.2 11.6 68.0 11.9 66.9 11.8 C 67.5 11.8 66.5 11.6 66.3 11.5 C 66.5 11.8 65.6 11.9 66.3 12.0 C 65.9 12.0 65.2 12.1 65.1 12.0 C 65.4 11.9 65.7 12.0 65.7 11.9 C 65.2 11.9 64.5 11.6 64.3 11.9 C 64.6 11.9 64.9 12.0 64.9 12.1 C 64.7 12.2 64.5 12.3 64.3 12.4 C 65.1 11.7 62.7 12.0 62.6 12.2 C 62.3 11.8 62.2 11.8 62.3 11.6 C 61.3 11.6 61.4 11.9 60.8 12.0 C 61.0 11.7 61.2 11.5 60.2 11.3 C 60.5 11.6 59.3 11.6 59.7 12.0 C 57.4 12.1 56.8 11.7 55.4 11.7 C 55.4 11.8 55.8 11.8 55.4 11.9 C 54.7 11.8 54.1 11.7 53.6 11.6 C 53.3 11.8 53.8 11.8 53.4 11.9 C 52.3 11.6 52.5 11.4 51.5 11.2 C 50.4 11.4 50.8 11.2 50.2 11.5 C 50.5 11.5 50.9 11.6 50.5 11.6 C 49.7 11.4 49.4 11.1 49.2 11.1 C 49.7 11.1 50.1 11.1 50.4 11.2 C 50.5 11.0 51.2 11.0 50.6 10.8 C 51.3 10.9 52.2 10.9 53.2 10.9 C 52.8 10.7 54.2 10.9 53.7 10.6 C 52.5 10.7 52.2 10.5 51.1 10.5 C 51.4 10.8 50.2 10.7 49.9 10.6 C 50.0 10.8 49.2 10.7 49.4 10.9 C 48.6 11.0 48.5 10.8 47.7 10.8 C 47.6 10.7 47.7 10.6 47.3 10.6 C 47.1 10.9 46.7 10.5 46.4 10.5 C 46.7 10.8 45.4 10.6 45.3 10.8 C 45.7 10.8 46.2 10.8 46.3 10.9 C 44.8 10.9 46.0 11.1 46.4 11.3 C 46.3 11.2 46.7 10.9 46.9 11.1 C 45.8 11.3 48.7 11.5 47.6 11.4 C 46.6 11.3 46.8 11.5 45.8 11.5 C 44.6 11.0 45.8 10.8 44.6 10.4 C 44.0 10.6 43.5 10.6 43.6 10.8 C 43.4 10.7 43.2 10.6 42.9 10.6 C 42.7 10.7 43.9 10.9 43.0 10.9 C 42.6 10.9 42.9 10.5 42.0 10.6 C 41.7 10.8 43.3 10.8 42.4 10.9 C 41.4 10.5 42.7 11.0 41.7 11.1 C 41.6 11.0 41.4 11.0 41.0 11.0 C 40.9 10.9 41.0 10.7 40.6 10.7 C 40.6 11.1 40.1 10.5 39.4 10.6 C 39.1 10.9 40.3 10.7 40.2 11.0 C 39.1 10.7 38.8 11.0 38.4 11.0 C 39.0 10.8 37.2 10.8 37.1 10.6 C 37.4 10.9 36.9 10.7 36.1 11.0 C 35.8 10.5 34.8 10.9 34.4 10.5 C 34.3 10.6 34.0 10.7 34.0 10.8 C 34.3 10.8 34.7 10.9 34.6 11.0 C 34.3 11.0 34.1 11.0 33.8 11.0 C 33.2 10.8 34.1 10.3 32.2 10.4 C 32.6 10.7 31.8 10.7 31.4 10.8 C 31.6 11.1 32.1 10.8 32.3 11.0 C 31.8 11.2 31.0 11.0 30.5 10.8 C 29.4 11.0 28.0 10.8 26.4 10.9 C 25.9 10.7 27.7 10.7 26.5 10.6 C 26.0 10.6 26.4 10.8 25.8 10.8 C 25.6 9.7 21.2 10.5 20.5 10.1 C 20.5 10.3 19.0 10.2 19.4 10.5 C 20.2 10.3 21.1 10.6 21.7 10.8 C 22.4 10.6 20.7 10.5 21.4 10.4 C 21.6 10.6 22.7 10.5 22.8 10.7 C 21.5 10.7 23.6 10.9 22.9 11.2 C 21.7 11.1 19.6 11.4 19.9 11.1 C 19.9 11.2 20.5 11.2 20.4 11.1 C 19.0 11.0 18.4 11.2 18.1 11.3 C 17.3 11.1 15.3 11.5 15.7 11.3 C 15.3 11.1 17.2 11.4 16.8 11.2 C 14.3 11.1 14.4 11.3 12.6 11.1 C 13.4 11.4 11.4 11.5 11.5 11.4 C 11.4 11.3 11.3 11.2 11.1 11.2 C 11.0 11.3 11.0 11.7 11.2 12.5 C 10.9 12.1 10.8 12.6 10.8 13.0 C 11.0 13.4 11.0 12.8 11.2 13.1 C 11.2 13.5 11.2 14.1 11.2 14.5 C 11.1 14.5 10.9 14.3 10.9 14.6 C 11.1 15.3 11.3 17.4 11.2 17.1 C 10.8 16.0 10.9 18.2 10.7 16.7 C 10.7 17.1 10.6 17.0 10.6 17.5 C 10.7 17.6 10.8 17.7 10.9 17.8 C 10.9 18.9 10.5 18.0 10.5 18.9 C 10.6 19.1 10.7 19.5 10.8 19.7 C 10.8 19.3 10.7 19.2 10.7 18.8 C 11.1 19.6 10.9 18.0 11.2 18.3 C 11.2 19.3 11.0 19.1 10.8 19.5 C 11.0 20.9 10.9 20.2 10.8 21.5 C 10.9 21.6 11.0 21.2 11.1 21.4 C 11.0 23.0 10.5 22.4 10.7 23.7 C 10.7 23.4 10.5 22.3 10.4 23.0 C 10.6 23.8 10.8 24.2 10.8 25.3 C 10.7 25.3 10.6 25.1 10.6 25.4 C 10.7 25.9 10.9 26.1 11.0 26.5 C 10.9 26.5 10.9 27.2 11.0 27.4 C 10.8 27.7 10.7 27.1 10.7 27.5 C 10.7 28.4 11.2 29.2 11.2 29.8 C 10.8 29.6 10.9 30.5 11.0 31.2 C 10.7 31.1 10.7 32.7 10.7 33.6 C 10.9 33.5 10.8 34.5 11.1 34.4 C 11.1 33.9 11.1 33.7 11.2 33.7 C 11.3 34.8 10.8 34.9 11.2 35.9 C 11.0 36.3 10.8 36.7 10.8 37.5 C 10.9 37.6 11.0 36.2 11.1 37.1 C 11.0 37.1 11.0 37.3 11.1 37.6 C 10.8 37.4 10.7 38.0 10.6 38.3 C 10.8 39.0 10.5 40.3 10.8 39.8 C 10.8 40.9 10.4 40.0 10.4 40.8 C 10.7 40.5 10.7 42.0 10.9 41.3 C 11.0 42.5 10.6 42.2 10.4 41.7 C 10.4 42.7 10.6 43.0 10.4 43.5 C 10.7 43.1 10.8 44.7 10.7 43.9 C 10.4 43.5 10.6 44.8 10.4 44.9 C 10.6 44.6 10.6 45.2 10.8 44.5 C 10.8 45.3 10.9 46.4 10.6 47.0 C 10.8 48.1 10.8 49.0 10.5 48.5 C 10.6 49.4 10.6 49.1 10.5 50.0 C 10.6 50.0 10.6 49.7 10.7 49.7 C 10.7 50.9 10.5 50.6 10.5 52.3 C 10.2 52.0 10.2 53.1 10.0 53.4 C 10.1 52.7 10.1 52.2 10.2 51.6 C 10.1 51.5 10.0 52.0 10.0 51.6 C 10.0 51.5 10.1 51.3 10.1 51.0 C 9.9 52.1 9.7 49.6 10.0 50.4 C 9.9 50.4 9.9 50.4 9.9 50.7 C 10.1 50.5 10.0 50.5 10.3 50.8 C 10.2 50.2 10.5 49.8 10.3 49.6 C 10.2 49.6 10.2 50.1 10.1 50.2 C 10.0 48.8 10.4 49.8 10.4 48.7 C 10.1 48.4 10.0 49.0 9.9 49.2 C 9.9 48.2 9.9 47.4 10.0 47.2 C 9.9 46.2 9.8 47.2 9.7 46.5 C 9.8 46.2 10.0 46.3 10.0 45.7 C 9.9 45.0 9.8 46.0 9.8 45.3 C 10.0 44.7 10.1 45.9 10.2 44.9 C 9.8 45.0 10.2 43.9 10.0 43.9 C 10.1 44.6 9.7 44.4 10.0 44.2 C 10.3 42.9 9.4 41.5 10.0 40.3 C 9.9 40.3 9.9 40.1 9.8 40.0 C 9.6 41.0 9.6 42.6 9.2 42.7 C 9.3 43.6 9.5 43.6 9.6 43.8 C 9.3 44.7 9.3 44.6 8.9 43.8 C 8.9 42.1 9.1 41.4 9.2 40.3 C 9.0 39.6 9.1 40.3 8.9 40.5 C 9.2 37.1 8.4 39.5 8.5 38.2 C 8.6 38.3 8.7 38.1 8.8 37.7 C 8.6 37.7 8.7 37.2 8.6 37.0 C 8.6 37.3 8.5 37.4 8.4 37.2 C 8.3 36.3 8.6 36.8 8.8 36.8 C 8.7 37.5 8.8 37.9 8.9 38.1 C 8.8 37.2 9.0 36.6 8.8 35.9 C 9.1 35.2 9.4 36.7 9.7 36.4 C 9.9 36.6 9.1 35.5 9.0 34.8 C 9.0 33.7 8.7 33.6 8.7 32.6 C 9.0 32.4 8.9 33.6 9.1 33.6 C 9.1 33.4 9.1 33.3 9.1 33.1 C 9.1 32.4 8.9 32.3 8.8 31.7 C 9.1 31.5 8.9 31.3 8.8 30.8 C 8.9 30.2 9.0 31.3 9.1 30.6 C 9.1 29.9 8.8 29.2 8.8 29.0 C 8.9 29.0 9.1 29.2 9.1 28.8 C 8.9 27.9 8.9 27.7 8.7 28.6 C 8.8 27.7 8.7 27.2 8.4 27.2 C 8.4 28.6 8.4 29.0 8.1 29.5 C 8.4 29.9 8.2 30.2 8.1 30.7 C 8.5 30.6 8.1 31.3 8.3 31.7 C 8.4 31.4 8.4 31.1 8.5 30.9 C 8.5 32.4 8.4 32.4 8.8 33.8 C 8.7 33.8 8.7 33.9 8.6 34.0 C 8.5 33.5 8.6 32.5 8.3 32.3 C 8.1 33.0 8.5 33.6 8.2 34.4 C 8.4 34.9 8.5 33.7 8.5 34.6 C 8.3 34.9 8.2 35.3 8.1 35.9 C 8.2 36.6 8.3 36.9 8.4 37.5 C 8.3 37.5 8.2 37.5 8.2 38.1 C 8.3 38.1 8.4 37.6 8.4 38.2 C 8.1 39.6 7.9 40.6 8.0 42.3 C 8.1 41.8 8.4 40.6 8.4 41.2 C 8.2 41.8 8.5 42.9 8.3 43.6 C 8.2 43.8 8.4 42.7 8.0 42.9 C 8.0 43.6 7.9 44.0 7.9 44.4 C 8.0 44.4 8.0 45.2 8.2 45.1 C 8.2 44.5 7.9 44.2 8.0 44.1 C 8.7 44.9 7.8 46.3 7.8 47.4 C 7.9 48.2 8.0 46.9 8.1 47.8 C 8.2 48.4 7.6 48.5 7.6 47.7 C 7.7 47.1 7.4 46.8 7.6 46.8 C 7.6 46.5 7.6 46.1 7.6 46.1 C 7.5 46.5 7.4 46.4 7.3 46.7 C 7.4 46.1 6.9 45.8 7.2 45.4 C 7.2 45.7 7.2 45.9 7.3 46.1 C 7.2 44.4 7.4 43.9 7.6 43.0 C 7.4 43.5 7.5 43.0 7.2 42.9 C 7.3 43.7 7.1 45.0 7.1 44.1 C 7.4 43.7 6.6 42.9 6.9 42.5 C 6.9 42.9 7.1 42.9 7.2 43.2 C 7.2 42.5 7.4 42.6 7.4 42.0 C 7.0 39.8 7.7 38.6 7.2 35.1 C 7.2 34.0 7.3 36.2 7.5 36.2 C 7.5 35.9 7.5 35.8 7.5 35.6 C 7.3 35.4 7.6 35.0 7.3 34.5 C 7.6 34.7 7.3 33.1 7.5 32.5 C 7.5 32.4 7.3 32.4 7.3 32.1 C 7.6 30.0 7.2 25.6 7.5 24.1 C 7.3 24.0 7.3 23.2 7.2 22.9 C 7.2 21.9 7.4 22.5 7.2 20.8 C 7.1 19.9 7.3 21.0 7.4 21.2 C 7.3 18.8 7.5 16.9 7.2 15.2 C 7.1 14.4 7.4 15.4 7.5 13.9 C 7.1 13.5 7.6 11.6 7.2 10.9 C 7.2 9.9 7.7 8.6 7.3 9.1 C 7.3 7.8 7.6 8.9 7.6 8.4 C 7.6 7.5 7.0 8.1 7.0 7.2 C 7.1 7.3 7.1 7.3 7.2 7.2 C 7.5 7.3 7.9 7.3 8.5 7.5 C 8.0 7.5 7.6 7.5 7.5 7.5 C 7.5 7.6 7.5 7.7 7.5 7.8 C 7.5 7.7 7.5 7.6 7.5 7.6 C 7.9 7.5 8.1 7.7 9.0 7.6 C 9.5 7.5 11.4 7.3 12.4 7.6 C 12.3 7.5 12.1 7.5 11.8 7.4 C 12.4 7.3 13.4 7.6 13.0 7.3 C 14.4 7.3 15.2 7.6 15.8 7.3 C 16.3 7.2 15.8 7.6 17.6 7.6 C 17.4 7.3 20.6 7.3 21.6 7.6 C 21.4 7.2 21.8 7.5 22.2 7.6 C 22.2 7.5 22.0 7.3 22.3 7.3 C 22.5 7.4 22.7 7.4 22.9 7.3 C 23.0 7.7 24.0 7.2 24.3 7.5 C 24.0 7.5 24.2 7.7 24.5 7.7 C 24.4 7.4 26.0 7.9 25.7 7.6 C 25.3 7.5 24.5 7.6 24.6 7.4 C 25.7 7.3 25.5 7.6 26.3 7.6 C 26.2 7.5 25.6 7.4 26.1 7.4 C 27.0 7.4 26.2 7.4 26.9 7.6 C 27.3 7.6 28.0 7.4 28.3 7.4 C 28.2 7.4 28.6 7.5 28.7 7.6 C 30.4 7.7 33.8 7.4 35.6 7.7 C 35.6 7.6 35.9 7.6 35.7 7.4 C 36.8 7.5 36.7 7.5 37.7 7.6 C 37.6 7.4 37.6 7.3 37.5 7.2 C 38.7 7.1 37.8 7.6 38.6 7.6 C 38.4 7.0 39.2 7.7 39.9 7.7 C 39.9 7.6 40.3 7.6 40.1 7.4 C 41.3 7.4 41.4 7.8 42.3 7.6 C 42.1 7.6 41.6 6.8 41.6 6.6 C 41.9 6.7 42.2 6.8 42.7 6.8 C 42.2 7.1 42.9 8.0 44.2 7.7 C 43.4 7.8 43.1 7.7 43.2 7.5 C 44.3 7.5 44.8 7.6 45.7 7.6 C 45.8 7.4 45.1 7.4 45.3 7.1 C 45.5 7.1 45.6 7.0 45.5 6.9 C 46.6 7.0 46.6 7.1 47.7 7.0 C 47.8 7.1 47.5 7.2 47.1 7.1 C 47.2 7.3 47.3 7.5 46.6 7.5 C 46.5 7.3 46.8 7.1 45.9 7.2 C 45.9 7.3 46.0 7.4 46.0 7.6 C 46.7 7.6 48.4 7.7 48.5 7.6 C 48.2 7.5 47.6 7.5 47.8 7.2 C 49.0 7.3 49.4 7.6 50.4 7.7 C 52.1 7.6 55.1 7.7 54.6 7.3 C 55.7 7.4 55.3 7.4 56.2 7.5 C 55.9 7.2 57.2 7.4 57.1 7.2 C 56.0 7.2 56.3 7.2 55.3 7.2 C 55.3 7.1 55.4 7.0 55.8 6.9 C 55.9 7.1 56.4 7.1 57.1 7.1 C 57.0 7.0 56.3 6.8 57.1 6.8 C 57.1 6.8 57.3 6.8 57.7 6.8 C 57.7 7.0 57.7 7.1 57.7 7.2 C 57.3 7.3 56.8 7.4 56.5 7.5 C 56.8 7.5 56.9 7.5 57.2 7.6 C 57.3 7.4 58.6 7.6 58.7 7.4 C 58.2 7.4 57.8 7.3 58.4 7.2 C 58.5 7.3 59.3 7.4 59.6 7.2 C 58.5 7.1 58.9 7.1 58.3 6.8 C 59.6 6.8 59.4 7.1 60.9 7.0 C 60.9 7.2 60.9 7.4 60.6 7.5 C 61.5 7.9 63.6 7.5 64.3 7.6 C 63.8 7.5 63.2 7.8 64.0 7.9 C 64.0 7.8 64.5 7.8 64.6 7.7 C 64.8 7.3 64.2 7.0 63.7 6.8 C 64.2 6.8 64.4 6.7 64.9 6.7 C 65.1 6.8 64.5 7.2 65.2 7.2 C 65.4 6.8 66.5 7.2 66.8 6.9 C 66.3 6.9 65.9 6.8 66.5 6.8 C 66.4 6.9 67.4 6.8 67.4 7.0 C 66.6 7.1 66.4 7.3 65.8 7.3 C 66.5 7.3 65.4 7.5 66.4 7.6 C 66.9 7.4 67.2 7.2 68.3 7.2 C 68.8 7.2 68.3 7.5 68.9 7.5 C 68.8 7.2 70.0 7.2 69.3 7.4 C 69.7 7.4 69.9 7.4 70.2 7.5 C 69.6 7.3 72.6 6.9 72.1 6.8 C 72.1 7.1 72.2 7.4 72.3 7.5 C 72.9 7.2 73.6 7.4 75.2 7.4 C 75.2 7.1 75.4 7.4 76.1 7.3 C 76.2 7.2 75.7 7.1 76.1 7.1 C 76.9 7.2 76.9 7.2 77.0 7.3 C 77.6 7.3 78.0 7.3 78.2 7.4 C 78.3 7.3 78.1 7.2 78.0 7.2 C 80.0 7.4 81.2 7.1 83.0 7.2 C 82.3 7.0 82.0 7.4 82.6 7.4 C 83.0 7.4 83.3 7.3 83.6 7.2 C 83.2 7.0 83.3 7.1 84.2 7.2 C 85.0 7.1 84.0 6.8 84.7 6.8 C 85.3 6.9 84.9 7.0 85.2 7.1 C 85.5 7.1 85.8 7.1 86.1 7.1 C 85.6 6.9 86.3 6.8 86.9 6.8 C 86.4 7.0 86.6 7.1 87.7 7.0 C 87.8 7.1 87.2 7.2 87.6 7.2 C 87.8 7.3 88.8 6.9 89.5 7.2 C 89.3 7.2 89.1 7.2 89.1 7.3 C 90.0 7.1 90.5 7.5 91.2 7.6 C 90.6 7.4 91.0 7.2 90.8 7.0 C 91.4 7.2 92.5 6.9 92.9 7.2 C 91.9 7.2 92.6 7.7 93.3 7.7 C 93.6 7.5 92.4 7.5 92.9 7.2 C 93.4 7.0 94.0 7.4 94.5 7.2 C 94.5 7.0 94.0 7.2 93.9 7.1 C 94.5 7.1 93.8 7.0 94.3 6.9 C 94.5 7.2 95.0 6.8 95.3 6.8 C 95.7 6.9 96.3 7.3 96.7 7.1 C 96.8 7.0 96.2 7.0 96.2 6.9 C 98.0 6.8 98.3 7.1 100.0 6.8 C 100.1 7.0 100.4 7.0 100.8 7.1 C 100.8 6.9 101.2 6.9 101.5 6.8 C 102.1 7.0 102.7 7.1 103.5 7.2 C 103.2 7.4 102.8 7.5 103.9 7.5 C 104.0 7.4 103.6 7.4 104.0 7.3 C 104.0 7.4 104.2 7.4 104.4 7.3 C 104.4 7.3 104.4 7.2 104.5 7.2 C 104.1 7.2 103.8 7.2 103.5 7.2 C 103.7 7.0 103.6 6.9 103.4 6.8 C 104.9 6.7 104.5 7.2 105.5 7.0 C 105.4 7.4 105.6 7.5 104.7 7.7 C 105.5 7.7 106.1 7.5 106.5 7.3 C 105.5 7.4 106.1 7.1 105.9 6.9 C 106.5 6.9 106.6 6.8 106.9 6.8 C 107.5 6.9 105.9 7.2 107.2 7.2 C 106.4 6.9 108.2 7.0 108.9 7.1 C 108.8 7.0 108.6 7.0 109.1 6.8 C 111.0 6.7 110.2 7.5 111.7 7.1 C 111.4 7.2 112.0 7.2 112.1 7.3 C 111.1 7.4 110.9 7.4 110.4 7.5 C 110.4 7.6 110.7 7.6 110.9 7.6 C 111.0 7.5 111.3 7.5 111.6 7.6 C 112.0 7.4 112.2 7.1 113.1 6.8 C 113.1 6.9 112.9 7.1 113.2 7.1 C 113.8 6.9 112.6 7.5 114.2 7.4 C 114.0 7.3 114.0 7.2 114.3 7.0 C 115.1 6.9 114.8 7.0 115.9 6.9 C 115.9 7.3 114.8 7.4 114.3 7.7 C 115.0 7.6 115.8 7.3 116.3 7.5 C 115.9 7.4 116.6 7.2 117.3 7.1 C 117.8 7.1 116.9 7.5 117.6 7.5 C 118.1 7.4 118.6 7.2 118.2 7.1 C 119.3 7.2 119.3 6.9 120.2 6.9 C 120.1 7.1 119.8 7.1 119.6 7.0 C 119.5 7.1 119.3 7.2 119.6 7.3 C 120.2 7.1 121.0 7.1 121.8 7.0 C 121.8 7.3 121.9 7.6 121.9 7.8 C 121.4 9.7 122.0 10.9 121.8 12.6 C 121.6 12.2 121.8 14.6 121.5 15.5 C 121.6 15.9 122.1 16.9 121.9 16.5 C 121.6 16.9 121.7 17.7 121.6 18.4 C 121.7 18.4 121.7 18.3 121.8 18.3 C 121.9 19.7 121.6 20.2 121.4 20.8 C 121.6 22.5 121.2 24.6 121.5 26.7 C 121.2 27.3 121.3 27.8 121.1 29.1 C 121.4 29.0 121.4 30.0 121.4 31.0 C 121.6 30.7 121.5 31.6 121.7 31.6 C 121.7 30.7 122.0 31.0 122.1 30.5 C 121.8 31.7 122.3 32.3 122.1 33.2 C 121.9 32.1 121.6 31.8 121.3 31.7 C 121.3 33.0 121.2 33.7 121.0 34.0 C 121.2 34.1 121.3 33.9 121.4 33.6 C 121.4 34.1 121.4 34.5 121.4 34.9 C 121.3 35.1 121.2 34.5 121.2 34.9 C 121.3 35.2 121.4 35.6 121.4 35.9 C 121.2 36.3 121.2 35.4 121.1 35.3 C 121.0 37.0 121.5 36.3 121.6 37.2 C 121.4 37.5 121.2 37.4 121.1 38.2 C 121.3 38.5 121.5 38.6 121.5 39.5 C 121.5 40.1 121.1 39.5 121.1 40.1 C 121.2 40.2 121.2 40.5 121.1 40.8 C 121.2 40.8 121.3 41.1 121.4 41.5 C 121.2 41.6 121.3 42.2 121.4 42.5 C 121.2 42.5 120.9 43.5 121.1 43.7 C 121.2 43.7 121.2 43.2 121.3 43.1 C 121.2 43.8 121.3 44.4 121.4 44.8 C 120.8 44.8 121.2 46.2 120.9 47.6 C 121.1 48.5 121.4 47.5 121.5 48.8 C 121.3 49.4 121.3 48.5 121.0 48.6 C 121.0 48.7 120.8 49.7 121.0 49.9 C 121.1 49.9 121.1 49.3 121.2 49.3 C 121.4 50.3 121.1 50.1 121.0 50.5 C 121.2 50.6 121.3 51.2 121.4 51.4 C 121.6 53.8 121.1 53.5 120.9 54.4 C 121.1 54.4 121.0 55.0 121.1 55.1 C 121.0 54.4 121.2 53.6 121.3 54.6 C 121.1 54.3 121.3 55.8 121.3 55.9 C 121.5 55.8 121.4 54.9 121.7 55.5 C 121.7 56.8 121.3 55.9 121.5 57.0 C 121.4 57.0 121.3 56.5 121.3 56.2 C 121.3 56.6 121.3 57.1 121.2 57.1 C 121.1 56.6 120.9 56.5 120.8 56.2 C 121.0 56.9 120.8 57.9 121.1 57.4 C 121.0 58.6 121.2 60.0 121.4 59.3 C 121.5 60.4 121.1 59.5 121.4 60.5 C 121.1 60.2 120.9 59.8 120.7 60.3 C 120.9 60.6 120.9 61.2 121.1 61.3 C 121.1 62.8 120.8 63.0 120.6 63.5 C 121.0 63.2 120.7 63.7 120.9 64.7 C 120.9 65.0 120.6 64.6 120.6 65.1 C 120.5 65.1 120.3 65.1 120.1 65.1 C 121.7 65.5 118.8 65.2 119.7 65.6 C 118.0 65.4 118.1 65.4 116.4 65.4 C 116.4 65.2 116.7 65.1 117.3 65.1 C 117.1 65.3 118.9 65.3 118.6 65.1 C 118.6 65.1 118.5 65.0 118.5 65.0 C 117.4 65.0 116.5 65.0 115.9 64.8 C 115.8 65.0 115.4 65.1 115.9 65.4 C 114.5 65.1 113.7 65.5 113.0 65.2 C 113.4 65.2 113.7 65.2 113.4 65.1 C 113.1 65.1 112.6 65.2 112.8 65.4 C 113.8 65.4 114.0 65.5 114.3 65.3 C 114.1 65.5 115.5 65.6 114.6 65.7 C 114.3 65.3 113.0 65.9 113.4 65.6 C 114.2 65.5 112.1 65.4 111.8 65.2 C 111.8 65.2 111.8 65.2 111.8 65.2 Z M 7.4 42.3 C 7.5 43.3 7.8 42.2 7.7 41.5 C 7.6 41.7 7.5 41.8 7.4 41.7 C 7.4 42.0 7.5 42.3 7.4 42.3 C 7.4 42.3 7.4 42.3 7.4 42.3 Z M 10.9 34.3 C 10.6 33.9 10.8 35.4 10.8 36.0 C 10.8 35.9 10.9 35.7 10.9 36.1 C 11.1 35.6 10.7 35.1 10.9 34.3 C 10.9 34.3 10.9 34.3 10.9 34.3 Z M 19.1 10.1 C 18.9 10.2 18.4 10.2 18.2 10.1 C 17.9 10.1 18.1 10.3 18.1 10.4 C 17.4 10.4 18.0 10.0 17.0 10.1 C 17.0 10.6 19.3 10.7 19.1 10.1 C 19.1 10.1 19.1 10.1 19.1 10.1 Z M 117.1 59.3 C 117.0 59.6 116.8 58.4 116.6 58.5 C 116.7 60.2 117.0 59.3 117.0 61.4 C 117.0 61.3 117.1 61.2 117.2 61.3 C 117.1 60.2 116.9 60.0 117.4 60.6 C 117.4 60.2 116.8 59.6 117.1 59.3 C 117.1 59.3 117.1 59.3 117.1 59.3 Z M 97.8 60.6 C 98.0 60.7 98.2 60.7 98.3 60.8 C 98.9 60.7 98.7 60.7 99.7 60.8 C 99.2 60.4 98.4 60.4 97.8 60.6 C 97.8 60.6 97.8 60.6 97.8 60.6 Z M 43.0 60.0 C 42.8 60.0 42.6 60.0 42.4 60.0 C 42.6 60.2 42.2 60.5 43.1 60.4 C 43.2 60.4 43.0 60.4 42.8 60.4 C 43.0 60.3 43.4 60.3 43.3 60.1 C 43.1 60.1 43.0 60.1 43.0 60.0 C 43.0 60.0 43.0 60.0 43.0 60.0 Z M 20.3 62.3 C 21.4 62.0 18.6 61.5 20.3 62.3 C 20.3 62.3 20.3 62.3 20.3 62.3 C 20.3 62.3 20.3 62.3 20.3 62.3 Z M 23.0 65.1 C 23.1 65.2 23.3 65.1 23.3 65.1 C 24.3 65.2 23.4 65.3 23.9 65.4 C 24.7 65.2 23.5 65.0 24.5 64.8 C 24.2 64.7 23.6 65.1 23.0 65.1 C 23.0 65.1 23.0 65.1 23.0 65.1 Z M 110.3 7.2 C 109.4 7.3 109.0 7.5 108.6 7.8 C 109.2 7.8 109.6 7.8 109.7 8.0 C 110.9 7.8 109.1 7.8 109.0 7.7 C 109.3 7.5 110.1 7.5 110.3 7.2 C 110.3 7.2 110.3 7.2 110.3 7.2 Z M 107.5 7.3 C 107.0 7.4 106.4 7.5 106.2 7.7 C 106.8 7.7 106.8 7.8 106.7 7.9 C 107.3 7.7 106.8 7.6 107.5 7.3 C 107.5 7.3 107.5 7.3 107.5 7.3 Z M 112.5 7.6 C 112.1 7.6 112.1 7.8 111.9 7.9 C 112.5 7.9 112.5 8.0 113.1 8.0 C 113.2 7.9 113.3 7.8 113.3 7.7 C 112.9 7.7 112.7 7.8 112.3 7.8 C 112.4 7.7 112.5 7.6 112.5 7.6 C 112.5 7.6 112.5 7.6 112.5 7.6 Z M 104.4 7.6 C 102.8 7.6 101.8 8.0 100.6 8.4 C 101.8 8.3 103.1 7.8 103.9 8.0 C 105.0 7.9 103.7 7.8 103.8 7.7 C 103.8 7.6 104.2 7.6 104.4 7.6 C 104.4 7.6 104.4 7.6 104.4 7.6 Z M 90.2 7.6 C 90.0 7.5 89.2 7.9 88.3 7.8 C 88.4 7.9 88.6 7.9 88.5 8.0 C 89.8 8.1 89.2 7.6 90.2 7.6 C 90.2 7.6 90.2 7.6 90.2 7.6 Z M 82.5 7.8 C 81.6 7.8 82.8 7.9 82.4 8.1 C 83.3 8.1 84.2 8.1 84.3 7.9 C 83.3 8.0 83.0 8.0 82.5 7.8 C 82.5 7.8 82.5 7.8 82.5 7.8 Z M 76.9 7.8 C 76.0 7.9 77.2 8.1 76.8 8.4 C 77.1 8.3 77.1 8.2 77.1 8.1 C 77.4 8.2 77.6 8.2 78.0 8.2 C 77.8 8.0 76.7 8.1 76.9 7.8 C 76.9 7.8 76.9 7.8 76.9 7.8 Z M 120.8 19.8 C 120.7 19.3 120.5 19.6 120.6 18.4 C 120.5 20.2 119.8 19.7 119.9 21.9 C 120.0 21.5 120.1 21.7 120.0 21.9 C 120.2 22.7 120.1 21.0 120.4 21.7 C 120.4 21.0 120.1 21.5 120.1 20.9 C 120.3 20.1 120.5 19.6 120.8 19.8 C 120.8 19.8 120.8 19.8 120.8 19.8 Z M 119.7 22.0 C 119.6 22.7 120.1 22.5 119.8 22.9 C 119.8 23.2 119.9 23.1 120.0 23.1 C 120.0 22.9 120.0 22.8 120.1 22.8 C 120.0 22.3 119.9 21.7 119.7 22.0 C 119.7 22.0 119.7 22.0 119.7 22.0 Z M 119.7 16.2 C 119.8 17.1 119.6 17.6 119.8 17.9 C 119.5 18.5 120.0 18.5 119.7 19.3 C 119.8 20.2 119.9 19.4 120.0 19.1 C 120.1 20.0 119.8 19.5 119.8 20.4 C 120.1 20.4 120.0 19.2 120.3 19.2 C 120.3 18.4 120.1 18.5 120.1 18.1 C 120.1 17.7 120.2 17.7 120.3 17.6 C 120.3 16.7 120.4 16.7 120.4 16.0 C 120.2 15.9 120.1 16.3 120.2 17.1 C 120.1 16.3 119.9 16.1 120.0 15.0 C 120.3 15.5 120.3 12.3 119.9 12.9 C 119.9 13.8 120.1 13.3 120.2 13.6 C 119.9 14.9 120.0 15.5 119.7 16.2 C 119.7 16.2 119.7 16.2 119.7 16.2 Z M 112.2 8.4 C 111.9 8.3 111.7 8.3 111.3 8.3 C 111.5 8.1 112.0 8.1 111.6 8.0 C 111.0 7.9 110.7 8.0 110.3 8.0 C 110.4 8.2 111.6 8.4 110.8 8.5 C 110.9 8.6 111.3 8.7 111.9 8.7 C 111.5 8.3 112.8 8.7 113.4 8.7 C 113.7 8.3 114.4 8.8 115.1 8.5 C 114.9 8.3 113.5 8.5 112.9 8.5 C 113.2 8.5 111.9 8.0 112.2 8.4 C 112.2 8.4 112.2 8.4 112.2 8.4 Z M 119.8 24.4 C 119.9 24.6 120.0 25.3 120.0 24.7 C 120.1 24.9 120.0 25.6 120.3 25.2 C 120.3 25.5 120.3 25.8 120.3 26.1 C 120.2 26.1 120.3 25.2 120.0 25.6 C 120.1 26.2 120.0 26.0 120.0 26.9 C 119.8 26.5 119.8 27.0 119.4 26.8 C 119.6 27.0 119.6 27.7 119.8 27.6 C 119.7 28.8 119.4 27.4 119.4 28.9 C 119.2 28.9 119.3 27.8 119.4 27.4 C 119.1 27.3 119.3 29.3 119.2 30.5 C 119.4 29.4 119.6 30.2 119.8 30.6 C 119.8 31.0 119.7 30.7 119.5 31.3 C 119.5 31.9 119.7 32.1 119.5 32.3 C 119.6 32.7 119.7 32.5 119.8 32.5 C 119.8 33.3 119.5 32.8 119.5 33.8 C 119.9 33.0 119.9 33.9 119.8 35.3 C 120.0 35.2 120.0 34.8 120.1 34.7 C 120.3 34.9 119.9 35.7 119.8 36.0 C 119.9 36.5 120.0 36.1 120.0 35.6 C 120.1 35.9 120.2 36.3 120.2 36.6 C 120.3 35.0 120.2 32.5 120.6 29.6 C 120.4 30.2 120.3 29.5 120.4 28.6 C 120.5 28.5 120.6 28.8 120.6 29.2 C 120.9 28.1 120.2 28.4 120.4 26.8 C 120.5 25.9 120.6 27.7 120.7 26.6 C 120.7 26.1 120.5 25.7 120.7 25.4 C 120.6 24.4 120.3 24.2 120.3 22.6 C 120.2 23.6 119.6 24.3 119.8 25.1 C 119.8 25.1 119.8 24.7 119.8 24.4 C 119.8 24.4 119.8 24.4 119.8 24.4 Z M 106.6 8.0 C 106.1 8.0 105.7 8.2 105.7 8.0 C 104.7 8.1 105.6 8.3 105.7 8.4 C 106.2 8.3 106.4 8.2 106.6 8.0 C 106.6 8.0 106.6 8.0 106.6 8.0 Z M 13.4 8.0 C 12.1 8.0 12.7 8.3 11.7 8.3 C 12.6 8.4 12.9 8.6 14.1 8.5 C 14.0 8.3 13.8 8.1 13.4 8.0 C 13.4 8.0 13.4 8.0 13.4 8.0 Z M 109.5 8.2 C 110.5 7.9 108.4 8.5 108.6 8.3 C 107.6 8.4 109.3 8.4 108.3 8.7 C 109.1 8.5 109.4 8.7 110.4 8.6 C 110.5 8.4 109.8 8.4 109.0 8.4 C 109.1 8.3 109.5 8.3 109.5 8.2 C 109.5 8.2 109.5 8.2 109.5 8.2 Z M 25.8 8.7 C 26.4 8.5 24.7 8.2 24.2 8.1 C 24.4 8.4 24.6 8.4 25.8 8.7 C 25.8 8.7 25.8 8.7 25.8 8.7 Z M 8.4 11.0 C 8.7 11.7 8.4 9.6 8.7 10.4 C 8.7 9.9 8.6 9.7 8.5 9.6 C 8.6 9.4 8.5 8.5 8.8 9.0 C 8.9 9.0 8.7 10.3 9.0 10.1 C 9.0 10.6 8.9 10.5 8.9 10.9 C 8.9 10.0 8.7 10.2 8.6 11.2 C 8.8 11.4 8.8 10.9 8.9 11.5 C 8.8 11.5 8.6 11.9 8.3 11.5 C 8.3 12.5 8.7 12.3 8.7 13.4 C 8.8 13.5 8.8 12.7 8.9 12.4 C 9.2 12.8 8.7 13.4 9.1 13.5 C 8.9 13.5 8.8 14.1 8.5 13.9 C 8.4 12.9 8.3 12.2 8.1 11.4 C 8.0 11.9 8.5 13.4 8.3 14.3 C 8.5 14.3 8.5 15.0 8.7 14.9 C 8.6 15.8 8.3 15.1 8.3 14.9 C 8.1 15.0 8.2 16.8 8.4 16.9 C 8.2 16.8 8.3 18.9 8.6 19.1 C 8.4 19.6 8.8 20.8 8.4 20.8 C 8.5 21.2 8.5 21.9 8.5 22.7 C 8.8 23.1 8.7 21.7 8.8 21.7 C 9.1 21.7 8.8 23.1 9.0 23.1 C 9.1 23.1 9.1 23.1 9.2 23.2 C 9.1 22.5 9.0 21.8 8.9 21.2 C 9.0 20.8 9.0 21.4 9.2 21.4 C 9.0 20.8 8.7 18.6 9.2 19.0 C 9.0 17.6 9.1 16.7 8.9 16.0 C 8.9 15.3 9.1 16.6 9.2 16.3 C 8.9 13.8 9.3 11.4 8.9 9.1 C 8.9 9.1 8.9 9.0 8.9 9.0 C 9.2 9.1 9.3 9.2 9.4 9.3 C 11.9 9.2 9.3 8.8 11.5 8.9 C 11.7 9.1 10.7 9.1 10.9 9.3 C 11.6 9.3 11.7 9.2 12.7 9.2 C 12.6 9.1 12.5 9.0 12.4 8.9 C 13.1 8.9 13.1 9.2 13.6 9.3 C 14.5 9.2 14.1 9.1 14.9 9.4 C 15.7 9.3 16.5 9.2 17.5 9.3 C 18.0 9.1 16.5 8.8 15.5 8.8 C 15.5 8.7 15.8 8.7 15.7 8.6 C 17.0 8.8 17.6 9.3 19.3 9.3 C 17.8 9.0 19.9 9.2 20.3 9.4 C 21.0 9.4 20.2 9.0 19.7 9.1 C 19.7 9.0 20.3 9.1 20.4 9.2 C 20.2 8.8 18.4 8.6 16.8 8.8 C 17.2 8.3 15.6 8.8 16.0 8.3 C 14.7 8.4 16.1 8.7 14.5 8.6 C 14.8 8.7 15.1 8.8 15.4 8.9 C 14.2 9.0 14.2 8.6 13.0 8.7 C 13.0 8.9 13.8 8.8 13.9 9.0 C 12.3 8.8 11.8 8.7 10.7 8.4 C 10.6 8.6 11.1 8.8 9.4 8.7 C 9.3 8.6 9.3 8.6 9.2 8.5 C 10.0 8.6 9.8 8.1 8.0 8.1 C 8.0 8.2 8.0 8.2 8.0 8.2 C 8.1 8.3 8.1 8.3 8.2 8.2 C 8.4 8.3 8.7 8.3 9.0 8.3 C 9.0 8.4 8.7 8.4 8.4 8.5 C 8.4 8.7 8.4 9.0 8.4 9.2 C 8.4 9.6 8.3 9.9 8.3 9.4 C 8.1 9.5 8.5 10.1 8.4 11.0 C 8.4 11.0 8.4 11.0 8.4 11.0 Z M 91.5 8.2 C 91.2 8.2 91.0 8.3 90.5 8.3 C 90.2 8.5 91.1 8.4 91.0 8.6 C 91.6 8.6 91.3 8.3 91.5 8.2 C 91.5 8.2 91.5 8.2 91.5 8.2 Z M 99.9 8.4 C 100.0 8.1 99.4 8.5 98.7 8.4 C 98.4 8.6 99.3 8.5 99.2 8.7 C 99.9 8.7 99.2 8.3 99.9 8.4 C 99.9 8.4 99.9 8.4 99.9 8.4 Z M 96.3 8.4 C 96.1 8.1 95.9 8.5 96.6 8.4 C 96.4 8.6 96.2 8.7 95.8 8.8 C 96.1 9.0 96.6 8.6 97.3 8.7 C 97.1 8.5 96.8 8.4 96.3 8.4 C 96.3 8.4 96.3 8.4 96.3 8.4 Z M 95.1 8.4 C 94.5 8.5 94.4 8.3 93.5 8.4 C 93.6 8.6 95.3 8.5 95.7 8.4 C 96.0 8.2 94.2 8.2 95.1 8.4 C 95.1 8.4 95.1 8.4 95.1 8.4 Z M 38.0 9.0 C 37.8 9.0 37.9 9.1 37.8 9.2 C 36.7 8.8 35.5 8.9 36.3 8.5 C 35.4 8.7 34.4 8.4 33.5 8.4 C 32.8 8.3 33.3 8.6 32.7 8.6 C 31.8 8.6 33.1 8.5 32.9 8.4 C 32.6 8.2 32.6 8.6 31.4 8.4 C 31.9 8.9 30.5 8.4 31.0 8.8 C 30.4 8.7 30.3 8.8 29.5 8.8 C 29.7 9.0 30.4 9.0 30.6 9.2 C 31.1 9.4 30.9 8.9 30.2 9.0 C 30.5 8.7 31.8 9.1 32.0 8.9 C 32.5 9.2 31.0 9.0 31.6 9.2 C 31.8 9.2 32.1 9.2 32.1 9.1 C 32.5 9.1 32.9 9.2 33.1 9.3 C 32.9 9.3 32.8 9.3 32.8 9.2 C 32.2 9.2 33.6 9.6 32.4 9.6 C 32.6 9.7 33.1 9.7 33.1 9.9 C 33.6 10.0 32.8 9.2 34.1 9.5 C 34.8 9.2 32.1 9.2 32.5 8.8 C 34.2 8.8 33.5 9.2 34.9 9.2 C 34.8 9.1 34.7 9.0 35.0 9.0 C 34.9 8.9 34.5 8.9 34.1 8.9 C 34.1 8.8 34.6 8.8 35.0 8.8 C 34.9 8.8 34.6 8.8 34.6 8.7 C 35.8 8.8 35.9 9.3 34.9 9.4 C 35.1 9.6 36.5 9.6 36.8 9.5 C 36.3 9.3 36.7 9.3 36.3 9.1 C 36.0 9.1 36.1 9.2 36.1 9.2 C 35.5 9.2 35.9 9.1 35.9 9.0 C 36.6 9.0 36.6 9.2 37.2 9.1 C 37.1 9.1 36.9 9.2 37.0 9.3 C 37.3 9.3 37.6 9.3 37.9 9.3 C 37.8 9.2 38.2 9.1 38.0 9.0 C 38.0 9.0 38.0 9.0 38.0 9.0 Z M 21.9 8.4 C 20.8 8.3 21.5 8.5 22.0 8.5 C 21.9 8.6 21.5 8.6 21.2 8.7 C 21.6 8.8 21.8 8.7 22.8 8.8 C 22.2 9.1 23.4 9.5 24.8 9.5 C 24.9 9.0 23.6 8.9 23.9 8.7 C 23.0 8.8 22.2 8.7 21.9 8.4 C 21.9 8.4 21.9 8.4 21.9 8.4 Z M 105.7 8.4 C 105.1 8.4 104.5 8.4 103.9 8.4 C 103.8 8.7 105.6 8.8 105.7 8.4 C 105.7 8.4 105.7 8.4 105.7 8.4 Z M 119.9 37.8 C 119.9 38.1 119.9 38.1 119.8 38.1 C 119.9 39.1 120.0 37.7 120.2 38.2 C 120.2 37.8 120.2 37.5 120.2 37.2 C 120.1 37.1 120.0 38.5 119.9 37.5 C 119.8 37.6 119.9 37.8 119.9 37.8 C 119.9 37.8 119.9 37.8 119.9 37.8 Z M 92.0 8.5 C 91.4 8.6 91.5 8.9 90.3 8.8 C 90.7 9.0 91.0 9.0 91.8 8.9 C 91.8 8.8 91.9 8.6 92.0 8.5 C 92.0 8.5 92.0 8.5 92.0 8.5 Z M 42.4 8.6 C 41.5 8.3 41.6 8.9 40.1 8.8 C 40.9 9.1 41.6 8.7 42.4 8.6 C 42.4 8.6 42.4 8.6 42.4 8.6 Z M 8.9 25.4 C 9.0 25.0 9.0 25.6 9.2 25.0 C 9.1 24.5 8.9 24.2 8.9 23.6 C 8.7 24.3 8.9 26.0 8.5 26.3 C 8.6 27.1 8.8 27.2 9.0 27.6 C 9.0 27.2 9.0 27.0 9.1 27.0 C 8.7 26.3 9.3 26.2 8.9 25.4 C 8.9 25.4 8.9 25.4 8.9 25.4 Z M 26.1 8.8 C 26.8 8.9 25.9 9.0 25.8 9.2 C 25.4 9.1 25.4 8.9 25.3 8.8 C 24.7 8.9 24.7 9.0 24.9 9.2 C 25.9 9.2 27.2 9.2 26.7 9.6 C 27.7 9.6 26.9 9.3 27.4 9.2 C 28.0 9.4 27.5 9.5 27.7 9.7 C 27.9 9.7 28.4 9.4 28.6 9.7 C 29.8 9.4 28.9 9.0 27.6 8.6 C 26.8 8.9 27.9 8.9 26.1 8.8 C 26.1 8.8 26.1 8.8 26.1 8.8 Z M 64.6 9.0 C 64.5 8.9 64.0 8.9 64.0 8.8 C 63.3 9.1 62.8 9.3 62.2 9.6 C 62.3 9.8 63.1 9.6 62.8 9.4 C 63.0 9.6 63.6 9.7 64.0 9.8 C 64.6 9.8 64.8 9.3 64.9 9.7 C 65.5 9.6 65.1 9.6 66.1 9.6 C 64.6 9.4 66.6 9.5 66.7 9.2 C 65.8 9.2 65.1 9.2 65.2 9.5 C 64.5 9.4 63.8 9.3 63.7 9.1 C 63.7 9.0 64.2 9.0 64.6 9.0 C 64.6 9.0 64.6 9.0 64.6 9.0 Z M 61.0 9.7 C 61.2 9.7 61.5 9.6 61.9 9.6 C 61.6 9.6 61.6 9.5 61.6 9.3 C 60.8 9.3 60.7 9.5 60.4 9.2 C 59.7 9.2 60.6 9.6 59.5 9.5 C 59.6 9.6 60.1 9.5 60.1 9.6 C 60.2 9.5 60.6 9.4 61.0 9.7 C 61.0 9.7 61.0 9.7 61.0 9.7 Z M 51.7 9.2 C 50.9 9.3 52.1 9.4 51.8 9.6 C 52.0 9.5 53.4 9.6 53.3 9.8 C 53.8 10.1 55.2 9.5 55.1 9.9 C 55.4 9.9 55.3 9.7 55.3 9.6 C 54.3 9.7 54.3 9.5 55.0 9.5 C 54.9 9.4 54.3 9.4 53.8 9.4 C 53.8 9.5 54.2 9.6 54.2 9.7 C 53.2 9.6 52.5 9.4 51.7 9.2 C 51.7 9.2 51.7 9.2 51.7 9.2 Z M 112.4 64.0 C 113.2 64.0 113.6 63.9 113.9 63.9 C 113.5 63.7 113.3 63.9 113.0 63.9 C 112.7 63.7 113.0 63.7 113.4 63.7 C 112.9 63.5 111.8 63.7 112.4 64.0 C 112.4 64.0 112.4 64.0 112.4 64.0 Z M 118.4 64.0 C 118.9 64.0 119.3 64.0 119.4 63.9 C 119.3 63.8 119.3 63.7 119.3 63.7 C 119.3 63.7 119.2 63.7 119.2 63.7 C 119.1 63.7 119.2 63.9 118.9 63.9 C 118.6 63.8 118.3 63.7 118.1 63.6 C 117.8 63.6 117.9 63.7 117.9 63.8 C 117.7 63.8 117.6 63.8 117.5 63.7 C 117.0 63.9 118.5 63.7 118.4 64.0 C 118.4 64.0 118.4 64.0 118.4 64.0 Z M 56.8 9.4 C 57.1 9.5 57.3 9.6 58.0 9.6 C 57.9 9.5 58.4 9.5 58.9 9.5 C 58.2 9.3 57.8 9.4 56.8 9.4 C 56.8 9.4 56.8 9.4 56.8 9.4 Z M 119.3 26.8 C 119.5 25.8 119.1 26.1 119.3 24.7 C 119.2 24.7 119.1 24.8 119.0 24.8 C 119.2 25.5 119.1 25.9 119.3 26.8 C 119.3 26.8 119.3 26.8 119.3 26.8 Z M 32.9 63.8 C 33.0 63.6 32.1 63.7 32.0 63.6 C 31.9 63.9 31.3 63.3 29.6 63.4 C 29.5 63.3 29.6 63.3 29.9 63.2 C 28.4 63.2 30.3 63.5 30.5 63.7 C 31.6 63.7 31.8 63.9 32.9 63.8 C 32.9 63.8 32.9 63.8 32.9 63.8 Z M 9.6 17.0 C 9.6 16.9 9.6 17.0 9.6 17.2 C 9.6 17.4 9.6 17.6 9.6 17.8 C 9.9 18.0 10.0 17.1 10.4 18.2 C 10.4 17.9 10.3 17.9 10.3 17.8 C 9.6 15.8 10.7 15.7 10.3 13.4 C 10.3 13.1 10.2 13.1 10.1 13.0 C 10.1 13.2 10.1 13.2 10.0 13.2 C 10.4 13.7 10.0 15.1 9.9 14.2 C 9.8 14.2 9.8 14.5 9.9 14.5 C 9.9 14.7 9.9 14.9 9.9 15.1 C 10.0 15.1 10.0 14.7 10.1 14.7 C 10.0 15.6 9.9 16.7 9.6 15.8 C 9.7 16.4 9.8 16.7 9.9 17.2 C 9.9 17.5 9.6 17.3 9.6 17.0 C 9.6 17.0 9.6 17.0 9.6 17.0 Z M 9.7 24.8 C 9.7 25.6 9.9 25.5 9.9 26.4 C 10.1 25.9 9.8 25.0 10.0 24.3 C 9.9 24.4 9.8 24.8 9.7 24.8 C 9.7 24.8 9.7 24.8 9.7 24.8 Z M 12.3 10.1 C 12.4 10.4 13.2 10.4 14.1 10.4 C 14.0 10.1 13.2 10.1 12.3 10.1 C 12.3 10.1 12.3 10.1 12.3 10.1 Z M 10.0 11.7 C 10.1 12.7 10.1 10.7 10.4 11.4 C 10.3 11.0 10.3 10.6 10.4 10.6 C 10.4 10.6 10.4 10.5 10.4 10.5 C 10.6 10.4 10.5 10.3 11.0 10.4 C 10.9 10.2 10.4 10.3 10.1 10.2 C 10.1 10.3 10.1 10.3 10.0 10.2 C 10.2 11.0 10.2 11.2 10.0 11.7 C 10.0 11.7 10.0 11.7 10.0 11.7 Z M 10.0 12.3 C 10.1 12.9 10.5 12.6 10.5 11.9 C 10.3 12.0 10.2 12.0 10.0 12.3 C 10.0 12.3 10.0 12.3 10.0 12.3 Z M 77.0 10.2 C 76.5 10.2 76.8 10.4 76.3 10.4 C 76.3 10.6 78.0 10.5 76.6 10.6 C 77.0 10.9 77.4 10.5 78.1 10.5 C 77.9 10.4 77.7 10.4 78.1 10.4 C 78.4 10.1 76.7 10.4 77.0 10.2 C 77.0 10.2 77.0 10.2 77.0 10.2 Z M 75.2 10.2 C 74.8 10.2 75.0 10.3 75.2 10.3 C 75.1 10.4 74.6 10.3 74.3 10.4 C 74.3 10.2 74.8 10.7 74.8 10.9 C 76.3 10.7 75.2 10.5 75.2 10.2 C 75.2 10.2 75.2 10.2 75.2 10.2 Z M 73.7 10.4 C 72.8 10.1 71.4 10.2 70.7 10.4 C 71.4 10.8 73.2 10.7 73.7 10.4 C 73.7 10.4 73.7 10.4 73.7 10.4 Z M 83.4 10.4 C 81.7 10.1 78.1 10.5 81.2 10.8 C 81.1 10.6 83.2 10.5 84.2 10.6 C 84.3 10.5 85.5 10.3 85.4 10.4 C 86.3 10.2 83.0 10.2 83.4 10.4 C 83.4 10.4 83.4 10.4 83.4 10.4 Z M 69.5 10.9 C 70.0 10.8 69.4 10.4 70.2 10.5 C 70.6 10.5 70.1 10.4 70.2 10.3 C 69.3 10.3 67.4 10.5 67.2 10.3 C 66.8 10.4 66.6 10.5 65.8 10.5 C 65.7 10.6 68.9 10.3 69.5 10.8 C 69.5 10.9 68.3 10.9 69.5 10.9 C 69.5 10.9 69.5 10.9 69.5 10.9 Z M 117.8 27.3 C 118.1 27.4 117.9 26.2 118.2 26.3 C 117.9 25.8 118.1 25.1 117.8 24.5 C 117.9 24.2 118.3 24.1 118.3 23.1 C 118.1 23.2 118.2 23.6 118.0 23.2 C 118.0 22.3 118.3 22.4 118.2 21.4 C 117.8 21.8 118.1 19.2 117.7 19.7 C 117.7 20.2 117.9 20.0 117.8 21.0 C 117.8 21.3 117.7 21.3 117.7 21.7 C 117.5 21.5 117.8 20.8 117.6 20.6 C 117.4 20.8 117.4 21.4 117.3 21.6 C 117.3 22.0 117.4 21.5 117.5 21.5 C 117.6 22.6 117.0 21.7 117.0 22.9 C 117.3 22.5 117.3 22.5 117.5 22.6 C 117.4 23.2 117.6 24.5 117.3 23.9 C 117.1 24.1 117.4 24.8 117.5 24.6 C 117.6 25.1 117.5 25.2 117.4 25.3 C 117.5 26.4 117.7 26.5 117.9 26.2 C 118.2 26.3 117.7 26.6 117.8 27.3 C 117.8 27.3 117.8 27.3 117.8 27.3 Z M 92.7 10.5 C 93.5 10.3 91.9 10.6 91.3 10.5 C 92.1 10.6 91.6 10.9 92.5 10.9 C 92.2 10.8 92.3 10.8 92.9 10.8 C 93.1 10.6 91.9 10.6 92.7 10.5 C 92.7 10.5 92.7 10.5 92.7 10.5 Z M 64.0 10.5 C 63.7 10.3 62.2 10.5 61.3 10.4 C 61.5 10.8 63.4 10.3 63.7 10.7 C 64.2 10.6 63.4 10.5 64.0 10.5 C 64.0 10.5 64.0 10.5 64.0 10.5 Z M 118.2 16.1 C 118.2 15.8 118.1 16.0 118.1 16.2 C 118.0 16.2 118.0 15.5 118.0 15.1 C 117.8 15.9 117.8 15.1 117.5 15.5 C 117.5 15.1 117.5 15.0 117.4 15.0 C 117.9 14.6 117.2 13.4 117.1 15.3 C 117.4 14.7 117.4 14.9 117.4 15.5 C 117.3 16.5 117.5 17.0 117.2 17.5 C 117.2 17.9 117.4 18.0 117.4 18.7 C 117.2 19.0 117.1 19.7 116.7 19.5 C 116.7 20.7 117.3 19.5 117.4 20.4 C 117.2 21.5 117.1 20.1 116.9 20.5 C 116.9 20.7 116.8 20.7 116.7 20.9 C 116.7 21.2 117.0 21.1 117.0 20.7 C 117.1 20.8 117.2 21.6 117.0 21.5 C 117.1 22.0 117.7 20.2 117.4 19.5 C 117.4 19.1 117.9 18.8 117.8 19.3 C 118.1 19.0 117.5 18.4 118.0 18.3 C 118.0 17.9 118.0 17.5 118.0 17.1 C 117.9 17.2 117.9 17.5 117.8 17.5 C 117.8 17.2 117.8 16.8 117.8 16.4 C 118.0 16.6 118.0 16.6 118.2 16.1 C 118.2 16.1 118.2 16.1 118.2 16.1 Z M 67.8 10.6 C 67.1 10.6 66.9 10.7 66.3 10.8 C 66.5 10.9 68.1 10.8 67.8 10.6 C 67.8 10.6 67.8 10.6 67.8 10.6 Z M 117.1 32.4 C 117.2 32.3 117.2 31.8 117.3 31.8 C 117.4 32.6 117.5 31.6 117.9 32.2 C 117.7 31.1 117.1 30.9 117.0 32.4 C 117.0 33.5 117.1 31.3 117.1 32.4 C 117.1 32.4 117.1 32.4 117.1 32.4 Z M 117.3 28.9 C 117.2 28.3 117.1 30.1 117.0 30.5 C 116.9 30.5 116.8 30.5 116.7 30.5 C 117.1 31.4 117.2 30.1 117.7 30.8 C 117.8 29.7 117.9 29.2 117.8 28.2 C 117.7 28.3 117.7 28.5 117.8 28.5 C 117.7 29.3 117.4 28.9 117.5 28.0 C 117.4 28.3 117.4 29.0 117.4 29.5 C 117.4 29.3 117.5 29.2 117.6 29.2 C 117.6 29.8 117.4 29.6 117.4 30.0 C 117.3 30.1 117.1 29.0 117.3 28.9 C 117.3 28.9 117.3 28.9 117.3 28.9 Z M 94.2 62.2 C 94.7 62.2 93.3 61.8 93.0 61.5 C 92.4 61.4 92.3 61.5 91.9 61.6 C 92.3 61.7 92.9 61.7 93.3 61.9 C 93.5 62.2 92.4 61.8 92.3 62.0 C 92.2 62.4 93.7 61.9 94.2 62.2 C 94.2 62.2 94.2 62.2 94.2 62.2 Z M 109.6 11.0 C 109.3 11.0 109.4 11.1 109.5 11.1 C 109.4 11.2 108.9 11.2 109.0 11.1 C 108.5 11.1 109.1 11.2 108.6 11.2 C 108.3 11.4 109.4 11.2 109.5 11.2 C 110.1 11.1 109.4 11.4 109.4 11.6 C 110.0 11.6 110.0 11.3 110.7 11.4 C 110.4 11.3 110.1 11.1 109.6 11.0 C 109.6 11.0 109.6 11.0 109.6 11.0 Z M 117.6 34.3 C 117.7 34.4 117.2 33.7 117.4 32.9 C 117.4 31.9 117.2 33.5 117.2 32.6 C 117.2 33.4 117.3 34.3 117.4 35.4 C 117.5 35.7 117.4 33.8 117.5 34.9 C 117.6 34.8 117.6 34.6 117.5 34.6 C 117.5 34.3 117.6 34.3 117.6 34.3 C 117.6 34.3 117.6 34.3 117.6 34.3 Z M 117.0 33.2 C 117.0 33.3 117.0 33.5 117.0 33.5 C 117.0 33.9 116.8 33.9 116.8 33.5 C 116.5 34.0 117.0 34.0 116.9 34.9 C 117.1 34.5 117.2 34.3 117.0 35.2 C 117.3 35.9 117.2 33.5 117.0 33.2 C 117.0 33.2 117.0 33.2 117.0 33.2 Z M 103.4 62.0 C 103.2 61.9 102.6 62.0 102.1 62.0 C 102.5 61.8 105.0 61.9 105.4 62.0 C 105.6 62.0 105.8 61.9 106.0 62.0 C 105.9 62.0 106.4 61.8 106.1 61.8 C 106.0 61.7 106.6 61.7 106.5 61.6 C 107.4 61.7 106.4 61.8 106.8 62.0 C 107.6 61.7 107.6 61.9 108.8 62.0 C 108.4 61.7 107.1 61.8 106.9 61.5 C 106.2 61.7 105.0 61.6 104.2 61.3 C 105.4 61.7 102.2 61.9 100.5 61.8 C 100.5 61.6 99.9 61.7 99.2 61.6 C 98.5 61.3 99.1 61.8 99.9 61.7 C 100.0 61.9 98.7 61.7 98.2 61.8 C 98.9 61.9 98.7 62.0 99.0 62.1 C 100.2 62.1 99.1 62.0 99.2 61.9 C 99.4 61.9 99.7 61.9 100.0 61.9 C 98.8 62.3 102.3 61.9 101.0 62.0 C 102.1 61.9 102.4 62.2 103.4 62.0 C 103.4 62.0 103.4 62.0 103.4 62.0 Z M 117.6 49.2 C 117.6 49.0 117.4 48.0 117.6 48.0 C 117.4 46.8 117.2 47.7 117.2 46.4 C 117.1 46.5 117.2 47.0 117.0 46.9 C 117.1 47.4 117.2 48.0 117.4 47.9 C 117.4 48.5 117.5 48.7 117.5 49.1 C 117.4 48.9 117.4 48.7 117.4 48.2 C 117.2 48.0 117.0 48.1 117.0 48.9 C 117.3 49.3 117.4 49.2 117.6 49.2 C 117.6 49.2 117.6 49.2 117.6 49.2 Z M 117.3 46.2 C 117.4 46.1 117.4 45.9 117.5 46.0 C 117.8 45.7 117.2 45.7 117.2 45.3 C 117.2 45.0 117.4 45.1 117.4 45.1 C 117.4 44.6 117.4 44.2 117.4 44.0 C 117.3 43.2 117.2 44.8 117.1 45.0 C 117.1 45.5 117.3 45.4 117.3 46.2 C 117.3 46.2 117.3 46.2 117.3 46.2 Z M 117.5 37.7 C 117.8 37.6 117.4 37.3 117.4 36.9 C 117.2 37.1 117.4 38.0 117.0 37.4 C 117.0 38.2 117.0 38.3 117.0 39.1 C 116.8 39.6 117.3 39.1 117.1 38.3 C 117.2 38.4 117.3 38.8 117.4 38.8 C 116.9 39.3 117.6 40.9 117.3 40.0 C 117.3 39.7 117.4 39.6 117.5 39.4 C 117.3 39.2 117.4 37.3 117.5 37.7 C 117.5 37.7 117.5 37.7 117.5 37.7 Z M 115.3 11.5 C 116.4 11.4 116.5 11.4 117.3 11.5 C 117.3 11.5 117.3 11.6 117.3 11.7 C 117.2 11.9 117.1 11.8 117.1 11.6 C 117.0 12.0 117.1 12.3 117.1 12.7 C 117.2 12.6 117.2 12.4 117.1 12.5 C 117.3 11.4 117.3 12.1 117.5 12.1 C 117.6 11.7 117.6 11.4 117.6 11.2 C 116.8 11.2 116.0 11.4 115.9 11.2 C 115.4 11.2 115.8 11.3 115.3 11.5 C 115.3 11.5 115.3 11.5 115.3 11.5 Z M 33.7 61.8 C 33.5 61.9 33.0 61.9 33.1 62.0 C 33.6 62.0 33.9 61.9 34.3 61.9 C 33.4 61.8 33.5 61.5 32.4 61.5 C 32.8 61.6 32.8 61.8 33.7 61.8 C 33.7 61.8 33.7 61.8 33.7 61.8 Z M 117.4 40.6 C 117.3 40.6 117.2 40.6 117.2 40.2 C 117.0 40.1 117.1 41.0 117.0 41.0 C 117.0 41.3 117.1 41.2 117.1 41.6 C 117.3 41.5 117.2 40.8 117.4 41.1 C 117.5 41.4 117.4 41.4 117.4 41.4 C 117.5 42.0 117.5 41.1 117.4 40.6 C 117.4 40.6 117.4 40.6 117.4 40.6 Z M 91.1 62.0 C 91.4 61.9 91.0 61.8 90.6 61.8 C 91.3 61.5 89.8 61.4 89.6 61.2 C 90.1 61.4 91.2 61.2 91.4 61.3 C 91.7 61.3 91.2 61.1 92.1 61.0 C 91.8 60.8 90.9 61.0 91.3 61.2 C 90.8 60.9 90.1 61.2 90.0 60.9 C 88.6 60.9 88.5 61.1 88.6 61.3 C 89.7 61.2 89.4 61.6 90.5 61.6 C 90.5 61.6 90.2 61.6 90.0 61.6 C 90.2 61.8 90.7 61.9 91.1 62.0 C 91.1 62.0 91.1 62.0 91.1 62.0 Z M 117.4 58.2 C 117.4 57.5 117.2 57.4 117.0 57.2 C 117.1 57.5 117.1 58.0 117.1 58.4 C 117.3 58.4 117.2 57.6 117.4 58.2 C 117.4 58.2 117.4 58.2 117.4 58.2 Z M 95.5 61.6 C 95.6 61.7 95.8 61.7 95.8 61.6 C 96.5 61.6 96.8 61.8 97.1 61.9 C 97.5 61.9 97.2 61.7 97.1 61.6 C 96.6 61.8 96.5 61.4 95.6 61.5 C 95.8 61.6 95.7 61.6 95.5 61.6 C 95.5 61.6 95.5 61.6 95.5 61.6 Z M 115.1 61.8 C 115.4 61.8 115.2 61.7 115.0 61.7 C 115.1 61.4 116.5 61.7 116.9 61.6 C 116.7 61.4 115.4 61.4 116.8 61.3 C 116.8 61.3 116.8 61.2 116.8 61.2 C 116.8 61.2 116.8 61.2 116.8 61.3 C 116.2 61.2 115.0 61.3 114.2 61.2 C 114.2 61.0 115.3 61.0 114.9 60.8 C 114.2 60.9 113.3 61.0 113.5 61.4 C 114.9 61.4 114.6 61.6 115.1 61.8 C 115.1 61.8 115.1 61.8 115.1 61.8 Z M 113.5 61.6 C 113.7 61.8 113.8 61.6 114.3 61.6 C 113.3 61.3 113.0 61.5 111.5 61.4 C 111.5 61.4 111.6 61.5 111.6 61.6 C 111.4 61.6 111.1 61.6 110.8 61.6 C 112.3 61.8 112.4 61.6 113.7 61.6 C 113.8 61.6 113.6 61.6 113.5 61.6 C 113.5 61.6 113.5 61.6 113.5 61.6 Z M 117.1 27.6 C 117.0 28.0 116.8 28.4 116.8 29.1 C 117.0 29.0 117.1 28.5 117.1 27.6 C 117.1 27.6 117.1 27.6 117.1 27.6 Z M 94.2 61.5 C 93.5 61.6 95.0 61.5 94.3 61.2 C 93.6 61.1 92.8 61.1 92.5 60.8 C 91.6 61.2 94.1 61.2 94.2 61.5 C 94.2 61.5 94.2 61.5 94.2 61.5 Z M 98.9 60.9 C 99.3 60.9 99.6 61.3 99.1 61.1 C 98.2 61.1 99.9 61.3 98.6 61.2 C 99.2 61.3 100.6 61.5 101.0 61.3 C 100.8 61.1 99.8 61.2 99.6 61.0 C 99.5 60.9 99.6 60.9 99.8 60.9 C 99.6 60.8 99.5 60.9 98.9 60.9 C 98.9 60.9 98.9 60.9 98.9 60.9 Z M 103.6 61.3 C 103.0 61.2 102.3 61.1 101.4 61.1 C 102.1 61.2 102.7 61.5 103.6 61.3 C 103.6 61.3 103.6 61.3 103.6 61.3 Z M 48.8 61.0 C 49.5 61.0 48.8 60.7 48.7 60.7 C 48.0 60.6 48.1 60.8 47.2 60.8 C 47.6 61.0 48.2 60.7 48.8 61.0 C 48.8 61.0 48.8 61.0 48.8 61.0 Z M 46.2 60.8 C 46.0 60.7 45.0 60.8 44.9 60.6 C 44.5 61.1 43.3 60.3 43.5 60.7 C 43.3 60.6 43.0 60.6 42.6 60.6 C 43.5 61.0 45.3 60.9 46.2 60.8 C 46.2 60.8 46.2 60.8 46.2 60.8 Z M 108.1 60.8 C 108.9 60.9 107.5 60.5 108.4 60.5 C 108.3 60.4 106.8 60.4 107.6 60.3 C 106.2 60.1 108.1 60.8 108.1 60.8 C 108.1 60.8 108.1 60.8 108.1 60.8 Z M 116.1 55.1 C 116.3 55.3 116.1 54.2 116.2 53.8 C 116.1 53.8 116.1 54.1 116.1 54.3 C 116.0 54.1 115.9 54.0 115.9 53.7 C 115.7 53.7 116.1 54.7 116.1 55.1 C 116.1 55.1 116.1 55.1 116.1 55.1 Z M 110.4 65.0 C 109.7 64.8 108.9 64.6 108.9 64.9 C 108.2 64.7 109.0 64.6 108.2 64.5 C 107.5 64.6 107.7 64.4 106.4 64.5 C 106.4 64.2 105.4 64.2 105.1 64.0 C 105.6 64.0 106.5 64.3 106.6 64.0 C 106.1 64.0 106.2 63.8 106.5 64.0 C 107.5 64.1 105.7 64.3 106.9 64.4 C 107.0 64.1 109.1 64.7 110.1 64.7 C 109.9 64.9 111.2 65.0 110.4 65.0 C 110.4 65.0 110.4 65.0 110.4 65.0 Z M 104.6 64.5 C 103.9 64.5 103.1 64.0 103.3 64.0 C 103.4 64.1 104.2 64.1 104.2 64.0 C 104.0 64.0 103.8 64.0 103.8 64.0 C 105.2 64.0 104.9 64.2 105.4 64.4 C 104.7 64.5 104.4 64.3 104.2 64.4 C 104.4 64.4 104.6 64.5 104.6 64.5 C 104.6 64.5 104.6 64.5 104.6 64.5 Z M 86.0 60.5 C 86.2 60.7 86.2 60.5 86.5 60.4 C 86.8 60.8 87.9 60.3 88.3 60.5 C 88.0 60.6 87.2 60.6 87.0 60.8 C 87.4 60.8 87.5 60.9 87.9 60.8 C 87.9 61.0 87.1 61.0 87.0 61.2 C 86.8 61.0 86.6 61.2 86.4 61.1 C 87.4 60.9 85.3 60.5 86.0 60.5 C 86.0 60.5 86.0 60.5 86.0 60.5 Z M 114.4 60.5 C 114.2 60.3 112.5 59.7 113.3 59.4 C 113.7 59.6 114.1 59.8 114.3 60.1 C 114.8 60.0 115.3 60.2 115.5 60.0 C 115.5 60.0 115.5 59.9 115.4 59.9 C 115.8 59.6 115.8 59.8 115.8 60.3 C 115.2 60.2 114.4 60.2 114.4 60.5 C 114.4 60.5 114.4 60.5 114.4 60.5 Z M 115.8 57.5 C 116.0 57.9 116.0 57.3 116.2 57.6 C 116.0 58.0 116.2 59.9 116.1 59.2 C 116.0 58.5 115.8 58.3 115.8 57.5 C 115.8 57.5 115.8 57.5 115.8 57.5 Z M 46.8 10.8 C 47.7 10.7 48.3 11.1 47.8 11.2 C 47.9 11.0 46.6 11.1 46.8 10.8 C 46.8 10.8 46.8 10.8 46.8 10.8 Z M 81.8 7.0 C 80.9 6.8 80.4 7.0 80.3 6.8 C 81.2 6.7 81.1 6.9 81.8 6.8 C 81.9 6.7 82.4 6.6 82.5 6.8 C 82.0 6.8 82.1 6.9 81.8 7.0 C 81.8 7.0 81.8 7.0 81.8 7.0 Z M 121.4 42.5 C 121.6 42.4 121.6 42.0 121.8 42.2 C 121.7 43.2 121.9 44.4 122.0 45.3 C 121.9 45.2 121.8 45.2 121.7 45.2 C 121.8 43.6 121.6 43.2 121.4 42.5 C 121.4 42.5 121.4 42.5 121.4 42.5 Z M 121.9 40.6 C 121.8 40.4 121.5 40.9 121.5 40.2 C 121.7 40.2 122.0 39.0 122.0 39.6 C 121.8 39.8 121.8 40.1 121.9 40.6 C 121.9 40.6 121.9 40.6 121.9 40.6 Z M 93.5 65.2 C 92.8 65.2 94.0 65.4 94.0 65.5 C 93.5 65.4 92.7 65.4 92.4 65.3 C 93.0 65.3 93.0 64.9 93.5 65.2 C 93.5 65.2 93.5 65.2 93.5 65.2 Z M 104.1 64.6 C 105.6 64.6 105.3 65.0 106.9 65.1 C 106.4 65.2 105.0 65.2 104.8 65.4 C 104.7 65.2 104.3 65.2 104.2 65.1 C 104.7 65.1 104.9 65.2 105.5 65.2 C 105.1 64.9 105.1 65.0 105.1 64.8 C 104.7 64.8 104.5 64.8 104.3 64.8 C 104.3 64.7 103.7 64.6 104.1 64.6 C 104.1 64.6 104.1 64.6 104.1 64.6 Z M 93.3 64.5 C 92.7 64.6 92.0 64.3 92.5 64.3 C 92.7 64.4 93.0 64.2 93.2 64.4 C 92.4 64.4 94.0 64.5 93.7 64.7 C 93.2 64.7 93.1 64.8 93.3 64.9 C 92.9 64.9 92.4 64.9 92.3 64.8 C 92.6 64.8 92.9 64.8 92.9 64.8 C 92.7 64.8 92.5 64.7 92.5 64.7 C 93.0 64.7 93.2 64.6 93.3 64.5 C 93.3 64.5 93.3 64.5 93.3 64.5 Z M 97.5 64.5 C 96.6 64.5 96.4 64.3 95.9 64.1 C 97.1 64.2 97.5 64.5 98.5 64.7 C 97.5 64.6 96.9 64.9 96.4 64.8 C 96.8 64.7 97.5 64.7 97.5 64.5 C 97.5 64.5 97.5 64.5 97.5 64.5 Z M 9.2 50.2 C 9.3 49.5 9.4 49.0 9.6 48.2 C 9.3 47.9 8.8 49.2 9.0 48.6 C 9.0 47.8 9.3 48.5 9.3 47.8 C 9.0 48.4 9.0 44.9 9.3 44.8 C 9.3 45.4 9.4 45.6 9.6 45.5 C 9.5 46.9 9.7 47.5 9.8 48.6 C 9.5 49.2 9.4 51.4 9.7 52.7 C 9.3 53.4 9.8 54.9 9.4 55.9 C 9.5 56.2 9.7 55.1 9.7 56.0 C 9.4 56.5 9.4 56.0 9.2 56.8 C 9.4 56.9 9.5 56.7 9.6 57.1 C 9.4 57.1 9.4 57.6 9.3 57.7 C 9.3 56.1 9.0 57.8 8.9 56.5 C 9.0 56.0 9.3 57.1 9.3 55.6 C 9.2 55.1 9.2 54.6 8.9 54.7 C 8.9 54.2 8.9 54.0 8.8 53.7 C 9.1 54.3 8.8 51.7 9.1 52.9 C 9.1 53.0 9.1 53.8 9.2 54.4 C 9.4 53.9 9.3 53.2 9.2 52.3 C 9.4 52.0 9.4 52.5 9.5 52.1 C 9.3 51.3 9.1 52.3 9.0 51.7 C 9.0 51.9 9.0 52.3 8.9 52.2 C 9.2 51.0 8.9 50.5 8.9 49.8 C 9.1 50.3 9.1 49.1 9.2 50.2 C 9.2 50.2 9.2 50.2 9.2 50.2 Z M 9.5 61.0 C 9.5 61.3 9.5 61.6 9.5 61.9 C 9.2 62.0 9.2 60.8 9.0 61.6 C 9.0 60.3 9.3 61.7 9.5 61.0 C 9.5 61.0 9.5 61.0 9.5 61.0 Z M 10.4 55.2 C 10.6 54.8 10.0 54.9 10.0 54.5 C 10.1 55.3 10.2 55.9 9.9 56.0 C 10.0 55.2 10.0 54.8 9.9 53.9 C 10.2 54.8 10.2 53.0 10.4 52.8 C 10.5 53.5 10.6 54.0 10.6 54.9 C 10.5 54.8 10.4 56.0 10.4 55.2 C 10.4 55.2 10.4 55.2 10.4 55.2 Z M 10.7 57.6 C 10.5 57.7 10.7 59.0 10.4 58.7 C 10.4 57.9 10.3 57.6 10.1 57.8 C 10.1 57.2 10.2 57.1 10.2 56.6 C 10.5 56.4 10.5 57.3 10.6 57.6 C 10.6 57.4 10.7 57.2 10.7 57.6 C 10.7 57.6 10.7 57.6 10.7 57.6 Z M 26.8 61.0 C 27.1 61.3 25.9 61.1 25.7 61.1 C 26.1 61.3 25.9 61.4 25.2 61.5 C 25.4 61.1 24.4 61.3 23.7 60.9 C 23.5 61.2 24.4 61.2 23.4 61.3 C 22.7 61.2 22.0 61.4 20.8 61.4 C 20.6 61.1 21.1 61.1 21.4 61.0 C 20.6 61.1 20.8 60.8 20.2 60.8 C 20.3 61.0 19.8 61.1 19.6 60.9 C 20.6 60.8 18.3 60.6 19.3 60.5 C 19.4 60.6 19.6 60.6 19.9 60.5 C 19.6 60.9 21.0 60.7 21.4 60.9 C 21.9 60.4 23.4 60.6 25.1 60.8 C 25.2 60.9 24.7 61.0 25.1 61.0 C 25.2 60.9 25.7 60.9 26.0 60.8 C 26.0 61.0 26.2 61.0 26.6 61.1 C 26.6 61.0 26.6 61.0 26.8 61.0 C 26.8 61.0 26.8 61.0 26.8 61.0 Z M 19.7 11.9 C 20.0 12.3 21.6 12.1 22.1 12.0 C 22.3 12.4 19.0 12.3 19.7 11.9 C 19.7 11.9 19.7 11.9 19.7 11.9 Z M 12.1 15.4 C 12.1 14.9 11.9 15.1 11.9 14.6 C 12.1 14.8 11.6 13.3 11.9 13.5 C 12.1 14.2 12.1 14.5 12.1 15.4 C 12.1 15.4 12.1 15.4 12.1 15.4 Z M 12.0 25.6 C 12.0 24.7 11.9 25.9 11.8 25.7 C 11.8 25.0 11.8 24.2 12.0 24.4 C 11.9 25.0 12.2 25.7 12.0 25.6 C 12.0 25.6 12.0 25.6 12.0 25.6 Z M 14.2 12.4 C 15.0 12.5 14.2 12.9 13.9 12.7 C 14.6 12.6 13.2 12.5 12.6 12.5 C 12.4 12.2 12.7 12.3 12.1 12.0 C 13.0 11.9 12.6 12.3 13.2 12.3 C 13.6 12.1 13.1 12.2 12.9 12.0 C 13.2 12.0 13.5 12.0 13.8 12.0 C 13.9 12.1 14.0 12.2 14.2 12.4 C 13.8 12.4 13.5 12.4 13.8 12.5 C 14.0 12.5 14.0 12.5 14.2 12.4 C 14.2 12.4 14.2 12.4 14.2 12.4 Z M 11.8 60.5 C 11.4 60.5 11.8 60.6 12.1 60.7 C 12.2 60.6 12.5 60.1 13.0 60.4 C 11.9 60.6 13.3 60.7 12.7 60.8 C 12.5 60.6 11.8 60.9 11.3 60.8 C 11.0 60.7 11.6 60.3 11.8 60.5 C 11.8 60.5 11.8 60.5 11.8 60.5 Z M 13.9 60.7 C 13.8 60.6 13.6 60.6 13.3 60.6 C 13.6 60.4 13.1 60.3 13.6 60.3 C 13.5 60.4 15.0 60.4 14.1 60.5 C 13.4 60.4 14.4 60.7 14.7 60.7 C 14.3 60.7 13.7 60.9 13.6 60.8 C 13.8 60.8 13.9 60.7 13.9 60.7 C 13.9 60.7 13.9 60.7 13.9 60.7 Z M 32.5 60.4 C 32.6 60.2 32.1 60.2 31.9 60.1 C 33.3 60.1 34.6 60.2 35.3 60.2 C 34.7 60.2 34.7 60.4 35.1 60.5 C 34.4 60.4 34.2 60.6 34.0 60.4 C 34.5 60.2 33.4 60.4 32.5 60.4 C 32.5 60.4 32.5 60.4 32.5 60.4 Z M 32.5 60.4 " fill="#FFE181"></path><g><clipPath id="clip-91"><path d="M 14.4 14.5 L 114.3 14.5 L 114.3 58.8 L 14.4 58.8 Z M 14.4 14.5 "></path></clipPath><g clip-path="url(#clip-91)"><path d="M 28.6 46.8 L 100.0 46.8 L 100.0 24.8 L 28.6 24.8 Z M 28.6 46.8 " fill="#000000" fill-opacity="0.00"></path><text xml:space="preserve" font-family="Monaco" font-size="17.0" fill="#34BC25" transform="matrix(1.00, 0.00, -0.00, -1.00, 29.0, 30.0)">F</text><text xml:space="preserve" font-family="Monaco" font-size="17.0" fill="#34BC25" transform="matrix(1.00, 0.00, -0.00, -1.00, 39.2, 30.0)">i</text><text xml:space="preserve" font-family="Monaco" font-size="17.0" fill="#34BC25" transform="matrix(1.00, 0.00, -0.00, -1.00, 49.4, 30.0)">n</text><text xml:space="preserve" font-family="Monaco" font-size="17.0" fill="#34BC25" transform="matrix(1.00, 0.00, -0.00, -1.00, 59.6, 30.0)">l</text><text xml:space="preserve" font-family="Monaco" font-size="17.0" fill="#34BC25" transform="matrix(1.00, 0.00, -0.00, -1.00, 69.8, 30.0)">a</text><text xml:space="preserve" font-family="Monaco" font-size="17.0" fill="#34BC25" transform="matrix(1.00, 0.00, -0.00, -1.00, 80.0, 30.0)">n</text><text xml:space="preserve" font-family="Monaco" font-size="17.0" fill="#34BC25" transform="matrix(1.00, 0.00, -0.00, -1.00, 90.2, 30.0)">d</text></g></g></g></svg>