<?xml version="1.0" encoding="UTF-8" standalone="no"?><svg xmlns="http://www.w3.org/2000/svg" xmlns:xlink="http://www.w3.org/1999/xlink" clip-rule="evenodd" stroke-miterlimit="4.00" viewBox="0 0 129 73"><desc>SVG generated by Keynote</desc><defs></defs><g transform="matrix(1.00, 0.00, -0.00, -1.00, 0.0, 73.0)"><image xlink:href="../../956FEF66-F126-4898-9939-EAE9E9BE3BA5/assets/7CF0B550267FAF50BD424171A589F612.png" width="126.00" height="70.00" transform="matrix(1.00, 0.00, -0.00, -1.00, 1.7, 71.8)" opacity="0.50"></image><path d="M 10.7 62.8 L 118.6 62.8 L 118.6 10.5 L 10.7 10.5 Z M 10.7 62.8 " fill="#010101"></path><path d="M 122.5 24.1 C 122.4 23.9 122.4 23.6 122.4 23.1 C 122.3 23.3 122.3 23.5 122.1 23.6 C 122.2 23.9 122.3 24.4 122.2 25.2 C 122.3 25.2 122.3 24.8 122.3 24.5 C 122.3 24.2 122.4 24.2 122.5 24.1 C 122.5 24.1 122.5 24.1 122.5 24.1 Z M 49.6 7.2 C 50.3 7.2 49.5 6.9 49.3 6.9 C 49.2 7.0 49.2 7.0 49.0 7.0 C 48.9 6.8 49.4 6.7 49.8 6.7 C 51.6 6.8 50.4 7.2 49.6 7.2 C 49.6 7.2 49.6 7.2 49.6 7.2 Z M 7.5 48.5 C 7.5 49.8 7.8 48.5 7.9 48.3 C 7.9 48.9 8.3 48.5 8.3 49.3 C 8.2 49.4 8.1 49.7 8.0 49.8 C 8.0 49.5 8.0 49.0 7.9 48.9 C 7.9 49.4 8.0 50.0 7.9 50.1 C 7.8 49.0 7.6 49.9 7.5 50.0 C 7.5 49.1 7.3 48.7 7.5 48.5 C 7.5 48.5 7.5 48.5 7.5 48.5 Z M 63.6 65.5 C 63.3 65.5 62.9 65.5 63.0 65.3 C 63.4 65.3 63.6 65.4 63.9 65.4 C 63.9 65.3 63.7 65.2 64.1 65.2 C 64.6 65.4 64.5 65.7 64.4 65.8 C 64.3 65.6 63.0 65.7 63.6 65.5 C 63.6 65.5 63.6 65.5 63.6 65.5 Z M 97.3 65.1 C 98.6 65.2 97.1 64.7 98.3 64.8 C 98.5 65.1 98.8 65.3 98.1 65.3 C 97.9 65.2 97.5 65.2 97.3 65.1 C 97.3 65.1 97.3 65.1 97.3 65.1 Z M 9.4 15.0 C 9.2 14.8 9.3 15.7 9.1 15.3 C 9.1 14.9 9.1 14.5 9.1 14.1 C 9.2 14.2 9.4 14.4 9.4 15.0 C 9.4 15.0 9.4 15.0 9.4 15.0 Z M 9.9 58.0 C 9.6 59.4 10.0 60.9 9.7 60.4 C 9.5 60.9 9.0 59.4 9.3 59.5 C 9.6 59.4 9.8 57.0 9.9 58.0 C 9.9 58.0 9.9 58.0 9.9 58.0 Z M 44.1 11.3 C 42.6 11.1 43.2 11.8 42.1 11.5 C 42.4 11.5 42.5 11.4 42.6 11.3 C 42.4 11.3 42.1 11.3 42.0 11.2 C 42.7 11.2 43.4 11.1 44.1 11.3 C 44.1 11.3 44.1 11.3 44.1 11.3 Z M 121.9 46.8 C 121.9 47.1 122.0 47.2 122.1 47.2 C 122.0 48.2 122.2 48.3 122.1 48.9 C 121.7 48.8 121.9 47.9 121.9 47.2 C 121.9 47.1 121.8 46.8 121.9 46.8 C 121.9 46.8 121.9 46.8 121.9 46.8 Z M 112.1 65.2 C 112.3 65.4 113.0 65.5 112.1 65.6 C 110.9 65.3 111.6 65.1 112.4 64.9 C 112.4 64.8 112.3 64.7 112.2 64.6 C 111.8 64.6 111.5 64.6 111.2 64.5 C 111.3 64.9 110.1 64.2 108.7 64.4 C 109.3 64.3 108.3 64.0 109.3 64.1 C 108.9 63.9 109.6 63.9 109.3 63.7 C 109.0 63.8 107.9 63.8 108.4 64.1 C 107.9 64.1 107.5 64.1 107.2 64.0 C 106.6 63.8 108.1 64.0 107.5 63.7 C 107.2 63.7 107.1 63.7 106.8 63.6 C 106.9 63.7 107.1 63.9 106.8 63.9 C 105.7 63.8 106.7 63.6 105.3 63.6 C 105.3 63.7 105.8 63.7 105.9 63.9 C 105.4 64.0 105.2 63.8 104.7 64.0 C 104.5 63.8 105.0 63.8 104.5 63.7 C 104.5 64.1 103.1 63.5 102.5 63.8 C 103.5 64.3 102.3 63.7 102.0 64.2 C 101.7 64.1 101.9 63.7 101.3 63.7 C 102.0 64.3 99.2 64.2 101.8 64.7 C 100.6 64.7 100.7 65.2 101.6 65.2 C 99.5 65.1 100.4 65.4 99.7 65.5 C 98.9 65.5 100.0 65.3 99.5 65.2 C 100.3 65.2 100.0 65.0 100.7 65.2 C 100.6 65.1 100.7 65.0 100.8 64.9 C 100.1 65.1 98.9 64.7 99.2 64.4 C 99.6 64.5 99.5 64.7 100.0 64.8 C 99.5 64.4 100.7 64.8 100.5 64.6 C 99.9 64.3 100.8 64.0 99.7 64.0 C 99.8 64.1 99.9 64.2 100.0 64.4 C 99.7 64.4 99.4 64.4 99.1 64.4 C 98.7 64.1 98.7 64.0 98.4 63.9 C 97.9 63.9 97.7 63.9 97.7 64.0 C 98.3 64.1 99.2 64.3 98.2 64.4 C 98.2 63.9 96.7 64.2 97.3 64.0 C 96.1 63.8 95.8 64.2 95.5 63.9 C 94.9 63.9 95.5 64.1 94.8 64.1 C 93.5 63.9 94.0 64.2 92.3 64.0 C 92.5 64.4 92.1 64.0 91.7 64.0 C 91.8 64.1 91.9 64.2 92.0 64.4 C 91.3 64.1 90.0 64.0 88.9 64.3 C 88.6 64.2 88.6 64.0 87.9 64.0 C 87.2 64.4 85.9 64.0 85.1 64.4 C 84.9 64.2 84.2 64.2 83.9 64.3 C 83.6 64.2 84.0 63.9 83.3 63.9 C 83.0 64.1 83.9 64.2 83.0 64.3 C 82.9 64.0 82.3 64.5 82.0 64.2 C 82.3 64.1 82.6 64.0 82.8 64.0 C 82.4 64.0 82.4 63.8 82.1 63.8 C 82.4 64.1 81.4 63.8 81.2 63.8 C 81.3 63.9 81.3 64.0 81.1 64.1 C 80.6 64.1 80.2 64.1 80.0 64.2 C 79.2 64.1 80.2 64.0 79.5 64.0 C 79.6 64.6 78.5 63.9 77.3 64.3 C 76.9 64.1 76.3 64.0 75.4 64.0 C 75.4 64.1 76.3 64.0 76.4 64.2 C 75.1 64.1 76.7 64.4 75.9 64.4 C 73.9 64.2 72.7 64.2 70.7 64.0 C 70.8 64.2 69.3 64.4 69.3 64.3 C 69.7 64.2 68.3 64.0 67.7 64.0 C 67.7 64.4 66.9 64.7 66.9 64.9 C 66.6 64.7 66.7 64.7 66.4 64.4 C 65.2 64.2 64.8 64.6 63.9 64.2 C 64.1 64.4 63.6 64.4 63.2 64.5 C 63.2 64.3 63.4 64.2 63.5 64.0 C 63.0 64.1 62.8 63.9 62.3 64.0 C 62.1 64.6 60.8 63.8 60.7 64.4 C 59.9 64.4 59.9 64.2 59.1 64.2 C 59.2 64.3 59.2 64.4 59.0 64.5 C 59.5 64.4 59.8 64.2 60.2 64.5 C 59.1 64.6 62.7 65.2 60.9 65.5 C 60.8 65.4 60.9 65.2 60.5 65.2 C 59.4 65.3 60.2 65.5 60.6 65.5 C 59.9 65.6 59.1 65.5 59.9 65.8 C 58.2 65.9 59.2 65.7 58.5 65.6 C 55.6 65.8 51.9 65.8 47.7 65.6 C 47.7 65.9 45.4 65.6 44.6 65.4 C 43.6 65.6 42.4 65.7 42.0 65.4 C 41.8 65.7 40.5 65.2 40.4 65.5 C 40.9 65.5 41.3 65.6 40.8 65.6 C 39.1 65.5 36.6 65.4 35.7 65.6 C 35.0 65.3 34.0 65.4 33.3 65.6 C 33.1 65.4 33.7 65.4 33.2 65.3 C 33.1 65.5 31.6 65.7 31.2 65.5 C 31.6 65.5 32.1 65.2 31.4 65.2 C 31.4 65.3 30.6 65.3 30.8 65.5 C 29.8 65.3 29.3 65.5 28.4 65.4 C 29.1 65.4 29.5 65.3 29.6 65.1 C 29.0 65.2 28.6 65.3 28.1 65.1 C 28.2 65.4 27.3 65.2 26.3 65.4 C 26.1 65.3 25.8 65.1 25.1 65.2 C 24.7 65.4 26.3 65.4 25.4 65.5 C 25.4 65.4 24.6 65.2 24.8 65.5 C 23.8 65.3 23.2 65.5 22.4 65.3 C 23.5 65.4 22.6 65.0 22.4 65.0 C 22.1 65.0 21.8 65.0 21.8 65.1 C 21.8 65.2 22.3 65.1 22.4 65.2 C 21.6 65.1 21.5 65.6 21.2 65.3 C 21.5 65.3 21.6 65.2 21.2 65.2 C 21.1 65.5 19.0 65.3 19.7 65.1 C 19.7 65.2 20.5 65.2 20.6 65.1 C 20.3 64.9 19.1 65.1 19.4 64.8 C 20.1 64.8 20.0 65.0 20.9 64.9 C 20.9 64.8 21.4 64.7 21.7 64.6 C 20.4 64.6 20.1 64.9 19.9 64.6 C 19.4 64.6 19.7 64.9 18.8 64.8 C 17.4 64.8 18.5 64.5 18.2 64.4 C 16.9 64.6 17.3 64.9 17.9 65.2 C 16.9 65.1 16.6 65.3 15.5 65.2 C 15.5 65.1 15.7 65.0 16.1 64.9 C 16.1 65.0 17.1 65.2 17.0 65.0 C 16.9 64.6 16.1 64.5 14.9 64.4 C 15.2 64.8 15.2 64.6 14.0 64.6 C 14.2 64.9 13.4 64.5 13.4 64.8 C 13.4 64.9 13.9 64.8 14.3 64.8 C 14.2 65.0 14.1 65.1 13.7 65.2 C 13.4 65.0 13.2 65.2 12.5 65.1 C 12.4 64.9 13.0 64.8 13.1 64.7 C 12.7 64.7 12.6 64.8 12.2 64.8 C 11.8 64.6 11.8 64.3 11.9 64.0 C 12.3 63.9 13.1 63.9 12.5 63.7 C 14.2 63.7 12.4 64.1 13.1 64.1 C 13.8 63.8 13.4 64.2 14.5 64.2 C 14.9 64.2 15.0 64.1 15.1 64.0 C 15.1 64.0 14.4 63.7 15.1 63.7 C 15.3 63.9 15.7 64.0 16.3 64.0 C 16.3 63.9 15.1 63.8 16.3 63.8 C 16.9 63.8 16.4 64.1 17.2 64.1 C 17.2 64.0 17.5 64.0 17.5 64.0 C 16.3 64.0 17.7 63.8 16.9 63.6 C 17.9 63.5 17.1 63.9 17.8 63.9 C 17.8 63.7 19.0 64.0 19.0 63.7 C 18.5 63.8 17.7 63.8 17.8 63.5 C 18.6 63.6 22.1 63.4 20.8 63.8 C 21.3 63.6 23.9 63.3 23.7 63.5 C 22.9 63.4 22.9 63.6 22.8 63.8 C 24.3 63.5 25.1 63.7 26.6 63.4 C 24.9 63.3 26.1 62.9 25.1 62.8 C 24.6 62.8 24.0 62.7 23.9 62.8 C 24.1 63.1 24.8 63.0 25.1 62.8 C 25.1 63.0 25.1 63.3 25.2 63.5 C 23.2 63.2 22.2 63.5 21.3 63.4 C 22.1 63.4 19.8 63.1 20.7 63.0 C 21.1 63.2 22.0 63.2 22.8 63.2 C 22.8 63.2 22.8 63.1 22.8 63.0 C 23.1 63.0 23.6 63.0 23.6 62.9 C 22.6 63.0 22.0 62.7 21.3 62.9 C 21.3 62.9 21.2 62.8 21.2 62.8 C 21.1 62.7 20.9 62.7 20.9 62.7 C 21.3 62.7 21.8 62.7 21.8 62.6 C 21.0 62.5 20.9 62.3 20.0 62.3 C 20.2 62.0 19.0 61.7 20.3 61.6 C 20.5 61.8 21.2 61.9 21.2 62.0 C 21.5 62.1 22.3 62.1 22.6 62.0 C 22.3 61.8 21.5 61.7 21.4 61.5 C 22.0 61.4 22.5 61.3 22.9 61.6 C 21.6 61.7 23.6 61.8 24.1 62.0 C 23.9 61.9 23.6 61.8 23.5 61.7 C 24.4 61.7 24.9 61.9 24.9 61.6 C 26.1 61.4 25.8 61.7 26.7 61.7 C 26.1 61.4 27.2 61.6 26.6 61.2 C 27.9 61.2 27.0 61.5 27.5 61.6 C 27.9 61.5 28.0 61.4 28.4 61.4 C 29.0 61.6 30.3 61.6 30.5 61.9 C 31.0 61.9 31.1 62.0 31.7 62.0 C 31.8 61.9 31.9 61.8 32.2 61.7 C 32.3 61.8 32.7 61.9 32.8 61.8 C 31.2 61.4 31.6 61.4 30.0 61.2 C 30.0 61.3 29.7 61.3 30.1 61.4 C 29.0 61.5 28.7 61.3 27.8 61.3 C 27.6 61.1 27.4 60.8 26.6 61.0 C 26.7 60.7 26.5 60.7 26.8 60.6 C 27.3 60.7 27.9 60.8 28.6 60.9 C 28.6 60.8 28.5 60.7 28.8 60.7 C 29.1 60.8 29.6 60.9 30.0 60.8 C 30.0 60.9 29.9 60.9 29.7 61.0 C 31.2 61.1 30.6 60.7 31.7 60.9 C 31.5 60.8 30.8 60.8 31.4 60.6 C 32.4 60.5 32.6 60.7 33.1 60.8 C 33.2 60.7 33.1 60.6 33.4 60.6 C 34.2 60.8 32.0 61.1 33.3 61.4 C 33.3 61.1 34.5 61.2 34.7 61.4 C 34.4 61.6 33.6 61.3 33.6 61.5 C 35.8 61.5 33.7 61.9 36.0 62.0 C 36.0 61.9 36.0 61.7 36.0 61.6 C 35.1 61.7 35.0 61.5 35.0 61.2 C 34.2 61.2 33.8 60.9 33.2 61.1 C 33.4 60.6 33.9 61.1 34.7 61.1 C 34.6 60.8 33.9 60.8 33.7 60.6 C 35.6 60.8 35.9 60.5 37.8 60.8 C 37.3 60.6 38.7 60.8 38.6 60.6 C 37.0 60.6 37.5 60.0 37.2 59.9 C 36.3 59.9 36.8 60.4 36.3 60.5 C 35.9 60.3 36.0 60.1 36.1 59.8 C 37.0 59.9 36.8 59.8 37.5 59.7 C 38.1 59.9 38.8 60.4 38.0 60.5 C 38.2 60.5 39.3 60.3 39.4 60.5 C 38.3 60.5 39.6 60.6 38.9 60.8 C 39.8 60.9 41.3 60.6 42.4 60.8 C 42.3 60.7 42.7 60.7 42.6 60.5 C 41.6 60.8 41.2 60.2 40.2 60.2 C 40.6 60.2 40.3 60.0 40.1 60.0 C 41.2 60.1 41.7 59.9 42.5 60.1 C 42.4 60.0 42.4 60.0 42.4 59.9 C 43.7 60.1 43.5 60.0 44.4 59.8 C 44.8 59.9 44.4 60.4 44.4 60.6 C 44.8 60.5 46.4 60.5 45.4 60.3 C 46.4 60.3 46.2 60.6 47.2 60.6 C 47.2 60.3 46.2 60.4 46.5 60.0 C 47.4 60.0 46.9 60.3 47.6 60.1 C 47.7 60.3 47.8 60.5 48.6 60.5 C 48.0 60.3 48.7 60.4 48.8 60.3 C 48.5 60.2 48.1 60.2 47.9 60.1 C 49.4 60.2 49.6 60.2 50.8 60.1 C 50.4 60.4 51.1 60.5 50.4 60.6 C 51.0 60.4 52.1 60.7 52.4 60.6 C 51.9 60.5 51.2 60.5 50.8 60.4 C 53.1 60.3 54.2 60.0 56.3 60.4 C 56.0 60.4 55.5 60.3 55.5 60.4 C 55.7 60.5 56.1 60.4 56.1 60.5 C 55.4 60.5 54.7 60.5 54.4 60.6 C 53.7 60.5 54.7 60.4 54.0 60.4 C 54.0 60.5 52.7 60.4 53.3 60.7 C 54.3 60.4 55.4 60.7 56.0 61.1 C 56.9 60.6 55.9 60.7 56.8 60.2 C 56.8 60.3 57.1 60.4 57.5 60.4 C 57.0 60.1 58.4 60.3 58.6 60.3 C 58.1 60.4 56.3 60.6 57.4 60.9 C 56.7 60.3 59.7 61.1 59.0 60.6 C 60.2 60.5 59.9 60.9 60.4 60.6 C 60.5 60.7 60.5 60.8 60.8 60.8 C 61.2 60.8 61.2 60.7 61.3 60.7 C 59.6 60.5 59.9 60.2 58.8 60.2 C 59.0 60.2 59.2 60.2 59.1 60.1 C 59.0 60.1 59.0 60.0 59.3 60.0 C 59.5 60.3 60.2 60.0 60.5 60.2 C 60.2 60.2 59.9 60.2 60.0 60.4 C 61.4 60.3 61.3 60.6 63.4 60.8 C 62.7 60.6 63.5 60.5 64.1 60.5 C 65.1 60.5 64.9 60.9 66.1 60.9 C 65.6 60.3 67.3 61.0 68.5 60.6 C 68.5 60.9 70.4 61.0 70.6 60.8 C 70.7 60.9 71.3 60.8 71.8 60.8 C 72.0 61.0 71.5 61.0 71.9 61.1 C 72.3 61.0 71.8 60.8 72.3 60.8 C 73.0 60.8 73.0 61.1 73.9 61.1 C 73.8 60.9 73.4 60.9 73.7 60.8 C 74.6 60.9 75.3 60.8 74.5 60.6 C 75.7 60.6 75.4 61.0 76.5 61.0 C 76.1 60.9 76.1 60.8 76.6 60.8 C 77.2 60.9 77.3 61.0 77.5 61.1 C 77.7 60.9 77.5 60.9 78.5 61.0 C 78.4 60.9 78.4 60.8 78.3 60.7 C 78.7 60.7 79.3 60.6 79.5 60.7 C 78.7 60.7 79.1 60.9 78.8 61.0 C 79.6 61.0 81.3 61.3 80.0 61.0 C 81.0 60.9 80.7 61.2 81.5 61.1 C 80.8 60.9 81.4 61.1 82.3 61.1 C 82.0 60.7 82.9 61.0 83.4 61.0 C 83.2 60.8 83.3 60.7 83.8 60.7 C 83.8 60.8 84.2 60.9 84.7 60.8 C 84.7 60.7 83.4 60.6 84.6 60.6 C 85.2 60.7 85.4 61.0 86.3 61.0 C 86.7 61.2 85.6 61.1 86.0 61.4 C 86.6 61.2 86.9 61.3 88.0 61.4 C 87.3 60.9 89.7 60.8 88.3 60.6 C 88.7 60.6 88.9 60.3 89.4 60.5 C 89.1 60.6 89.9 60.8 89.9 60.8 C 90.4 60.8 91.7 60.9 91.6 60.8 C 90.5 60.8 90.4 60.6 89.9 60.4 C 91.4 60.3 92.9 60.4 93.0 60.7 C 92.9 60.6 93.1 60.6 93.1 60.5 C 92.6 60.6 91.9 60.1 92.5 60.1 C 92.6 60.4 93.1 60.4 93.7 60.5 C 93.5 60.3 95.9 60.6 95.2 60.3 C 94.6 60.5 93.6 60.1 94.1 60.0 C 94.8 60.2 96.1 60.3 96.0 60.5 C 96.2 60.4 96.5 60.4 96.7 60.3 C 96.7 60.0 96.1 60.1 96.1 59.9 C 96.5 59.9 97.1 59.8 97.3 60.0 C 96.1 60.0 98.0 60.1 96.9 60.3 C 97.7 60.3 97.9 60.4 98.5 60.4 C 98.5 60.3 98.7 60.3 98.7 60.3 C 98.3 60.4 97.7 60.3 97.6 60.0 C 98.6 60.0 98.7 60.3 99.5 60.3 C 99.6 60.1 100.5 59.8 101.3 60.0 C 100.1 59.9 101.5 60.1 100.9 60.2 C 99.7 60.0 99.7 60.3 99.5 60.5 C 100.0 60.6 101.0 60.7 100.8 60.4 C 100.2 60.4 100.4 60.5 100.1 60.6 C 100.0 60.4 100.1 60.3 100.4 60.3 C 101.0 60.4 101.9 60.3 101.5 60.6 C 102.1 60.4 103.2 60.7 103.8 60.5 C 102.9 60.5 102.2 60.4 101.8 60.2 C 102.4 60.1 103.3 60.4 103.2 60.2 C 102.9 60.0 101.9 60.1 101.5 59.9 C 102.2 59.6 104.1 60.3 102.6 59.8 C 103.1 59.8 103.8 59.8 104.1 60.0 C 103.5 60.0 104.5 60.3 104.8 60.4 C 105.3 60.3 105.7 60.3 105.8 60.2 C 105.1 60.3 104.2 60.0 104.7 60.0 C 105.0 60.1 105.0 59.9 105.2 59.9 C 105.4 60.0 106.2 59.9 106.5 60.0 C 106.3 59.9 105.9 59.9 105.7 59.8 C 106.2 59.7 106.6 59.4 107.3 59.7 C 107.0 59.7 106.5 59.7 106.6 59.8 C 108.4 60.1 109.1 60.4 111.0 60.6 C 110.8 60.6 110.8 60.7 110.9 60.8 C 112.0 60.8 112.9 60.9 112.9 61.1 C 113.6 61.0 113.8 60.9 114.0 60.8 C 113.2 60.6 113.2 60.8 112.5 60.7 C 112.8 60.6 111.5 60.2 111.1 60.0 C 110.1 60.3 109.6 59.9 108.5 60.0 C 108.6 59.8 107.5 60.0 107.6 59.7 C 109.2 60.1 110.0 59.8 111.8 60.0 C 111.8 60.2 111.8 60.3 112.6 60.4 C 113.8 60.6 112.9 60.2 113.9 60.3 C 114.4 60.5 114.0 60.5 114.5 60.6 C 114.7 60.5 115.6 60.5 116.1 60.8 C 114.9 60.7 116.5 61.0 115.8 61.1 C 116.2 61.1 116.5 61.1 116.8 61.2 C 116.0 61.0 116.3 60.9 116.6 60.8 C 116.5 60.5 116.5 60.2 116.4 60.5 C 116.3 58.9 117.0 61.0 116.9 59.7 C 116.8 60.1 116.7 59.2 116.7 58.4 C 117.0 58.4 117.0 57.4 117.1 56.8 C 116.9 57.0 116.9 57.3 116.8 56.5 C 116.7 56.8 116.7 57.4 116.8 57.9 C 116.7 57.8 116.6 57.9 116.5 58.0 C 116.5 57.0 116.4 57.3 116.3 56.9 C 116.4 56.8 116.4 56.1 116.5 56.1 C 116.5 56.0 116.4 55.7 116.4 55.7 C 116.4 56.8 116.0 55.2 116.0 55.9 C 116.0 56.4 116.2 56.3 116.2 56.9 C 115.9 57.2 115.9 56.1 115.7 55.6 C 115.5 55.9 115.8 56.8 115.5 56.8 C 115.2 55.9 115.4 55.0 115.5 54.2 C 115.2 54.0 115.6 52.8 115.2 52.4 C 115.3 52.3 115.4 52.2 115.4 52.1 C 115.2 51.6 115.5 51.6 115.5 51.3 C 115.4 51.2 115.2 51.2 115.2 51.4 C 115.3 50.4 115.3 50.2 115.2 48.8 C 115.3 48.7 115.5 48.6 115.7 48.6 C 115.7 48.9 115.7 49.2 115.8 49.4 C 115.8 47.7 115.2 48.5 115.6 47.5 C 115.4 47.5 115.2 48.2 115.1 47.5 C 115.4 46.6 115.1 44.9 115.8 45.2 C 116.0 44.3 115.6 43.5 115.9 43.2 C 115.9 42.9 115.8 42.7 115.7 42.6 C 115.6 42.9 115.5 43.2 115.3 43.5 C 115.5 44.1 115.2 44.3 115.6 43.9 C 115.6 44.7 115.4 44.9 115.3 45.3 C 115.2 44.1 115.4 43.1 115.0 42.9 C 115.2 42.6 115.3 42.3 115.5 42.0 C 115.3 41.9 115.2 40.5 115.5 40.5 C 115.4 41.3 115.7 42.4 115.9 41.6 C 115.7 39.3 116.2 38.1 115.9 36.1 C 116.0 36.0 116.2 36.2 116.2 35.8 C 116.1 35.8 116.0 35.7 115.9 35.5 C 115.9 34.9 116.0 34.5 116.0 33.7 C 116.2 33.7 116.4 33.6 116.5 33.1 C 116.2 32.9 115.7 32.1 115.8 31.6 C 115.8 32.1 116.1 31.4 116.1 31.0 C 115.8 31.4 116.4 28.5 116.1 29.4 C 116.1 28.3 116.2 27.8 116.3 27.7 C 116.3 27.4 116.2 27.1 116.1 26.7 C 116.5 26.4 116.2 24.6 116.4 24.2 C 116.3 24.9 116.6 24.9 116.6 24.4 C 116.4 24.1 116.2 22.5 116.3 22.1 C 116.4 22.2 116.6 22.2 116.7 23.0 C 116.7 21.5 116.4 21.8 116.1 21.4 C 116.5 21.3 116.2 20.8 116.1 20.6 C 116.3 20.1 116.2 20.6 116.5 20.4 C 116.5 19.9 116.6 19.6 116.6 18.9 C 116.4 19.3 116.5 18.5 116.5 18.2 C 116.4 18.2 116.3 17.9 116.2 17.4 C 116.6 17.8 116.7 13.6 116.4 14.8 C 116.2 14.2 116.7 13.7 116.6 12.7 C 116.6 12.7 116.6 12.6 116.5 12.5 C 116.5 12.3 116.5 12.1 116.4 12.7 C 116.4 12.7 116.4 12.7 116.4 12.7 C 115.4 12.7 116.3 12.4 115.1 12.5 C 115.3 12.8 114.1 12.4 114.0 12.8 C 113.9 12.4 112.5 13.0 112.0 12.6 C 111.9 12.7 111.6 12.7 111.5 12.8 C 111.3 12.9 112.4 13.0 111.6 13.0 C 110.8 12.8 111.4 12.7 111.4 12.6 C 108.7 12.7 105.7 12.6 103.0 12.5 C 103.2 12.6 103.1 12.7 102.5 12.8 C 102.1 12.3 98.7 12.5 98.1 12.7 C 98.0 12.4 96.1 12.7 95.9 12.5 C 96.2 12.5 97.0 12.3 96.3 12.3 C 95.7 12.6 95.3 12.4 94.5 12.6 C 94.3 12.3 92.1 12.6 93.3 12.1 C 92.9 12.1 92.7 12.1 92.5 12.0 C 92.3 12.3 91.9 12.3 92.6 12.4 C 90.8 12.2 90.3 12.5 89.0 12.3 C 88.6 12.4 89.7 12.5 88.8 12.6 C 88.8 12.5 88.9 12.5 88.9 12.4 C 88.6 12.4 88.4 12.6 88.3 12.4 C 88.5 12.3 88.9 12.3 89.1 12.0 C 88.3 12.1 88.0 11.8 87.7 12.0 C 88.6 12.1 87.7 12.5 87.3 12.3 C 87.9 12.1 85.0 12.3 84.1 12.4 C 83.8 12.1 85.1 12.4 85.0 12.2 C 83.4 12.3 83.5 12.1 83.2 12.4 C 82.4 12.4 82.1 12.2 81.0 12.4 C 80.4 12.2 81.4 12.2 80.8 12.1 C 80.4 12.2 80.2 12.3 79.6 12.4 C 78.2 11.8 74.5 12.7 72.9 11.9 C 73.5 12.1 72.6 12.2 71.7 12.2 C 71.6 12.1 71.8 12.0 71.4 12.0 C 71.5 12.1 71.2 12.2 70.6 12.2 C 70.5 12.1 70.6 12.0 70.3 12.0 C 70.0 12.3 69.3 12.0 68.8 12.1 C 68.7 11.8 69.9 12.0 70.0 11.8 C 68.5 11.6 68.3 11.9 67.2 11.8 C 67.8 11.8 66.8 11.6 66.6 11.5 C 66.8 11.8 65.9 11.9 66.6 12.0 C 66.2 12.0 65.5 12.1 65.4 12.0 C 65.7 11.9 66.0 12.0 66.0 11.9 C 65.5 11.9 64.8 11.6 64.6 11.9 C 64.9 11.9 65.2 12.0 65.2 12.1 C 65.0 12.2 64.8 12.3 64.6 12.4 C 65.4 11.7 63.0 12.0 62.9 12.2 C 62.6 11.8 62.5 11.8 62.6 11.6 C 61.6 11.6 61.7 11.9 61.1 12.0 C 61.3 11.7 61.5 11.5 60.5 11.3 C 60.8 11.6 59.6 11.6 60.0 12.0 C 57.7 12.1 57.1 11.7 55.7 11.7 C 55.7 11.8 56.1 11.8 55.7 11.9 C 55.0 11.8 54.4 11.7 53.9 11.6 C 53.6 11.8 54.1 11.8 53.7 11.9 C 52.6 11.6 52.8 11.4 51.8 11.2 C 50.7 11.4 51.1 11.2 50.5 11.5 C 50.8 11.5 51.2 11.6 50.8 11.6 C 50.0 11.4 49.7 11.1 49.5 11.1 C 50.0 11.1 50.4 11.1 50.7 11.2 C 50.8 11.0 51.5 11.0 50.9 10.8 C 51.6 10.9 52.5 10.9 53.5 10.9 C 53.1 10.7 54.5 10.9 54.0 10.6 C 52.8 10.7 52.5 10.5 51.4 10.5 C 51.7 10.8 50.5 10.7 50.2 10.6 C 50.3 10.8 49.5 10.7 49.7 10.9 C 48.9 11.0 48.8 10.8 48.0 10.8 C 47.9 10.7 48.0 10.6 47.6 10.6 C 47.4 10.9 47.0 10.5 46.7 10.5 C 47.0 10.8 45.7 10.6 45.6 10.8 C 46.0 10.8 46.5 10.8 46.5 10.9 C 45.1 10.9 46.3 11.1 46.7 11.3 C 46.6 11.2 47.0 10.9 47.2 11.1 C 46.0 11.3 49.0 11.5 47.9 11.4 C 46.9 11.3 47.1 11.5 46.1 11.5 C 44.9 11.0 46.1 10.8 44.9 10.4 C 44.3 10.6 43.8 10.6 43.9 10.8 C 43.7 10.7 43.5 10.6 43.2 10.6 C 43.0 10.7 44.2 10.9 43.3 10.9 C 42.9 10.9 43.2 10.5 42.3 10.6 C 42.0 10.8 43.6 10.8 42.7 10.9 C 41.7 10.5 43.0 11.0 42.0 11.1 C 41.8 11.0 41.7 11.0 41.3 11.0 C 41.2 10.9 41.3 10.7 40.9 10.7 C 40.9 11.1 40.4 10.5 39.7 10.6 C 39.4 10.9 40.6 10.7 40.5 11.0 C 39.4 10.7 39.1 11.0 38.7 11.0 C 39.3 10.8 37.5 10.8 37.4 10.6 C 37.7 10.9 37.2 10.7 36.4 11.0 C 36.1 10.5 35.1 10.9 34.7 10.5 C 34.6 10.6 34.3 10.7 34.3 10.8 C 34.6 10.8 35.0 10.9 34.9 11.0 C 34.6 11.0 34.4 11.0 34.0 11.0 C 33.5 10.8 34.4 10.3 32.5 10.4 C 32.9 10.7 32.1 10.7 31.7 10.8 C 31.9 11.1 32.4 10.8 32.6 11.0 C 32.1 11.2 31.2 11.0 30.8 10.8 C 29.7 11.0 28.3 10.8 26.7 10.9 C 26.2 10.7 28.0 10.7 26.8 10.6 C 26.3 10.6 26.7 10.8 26.1 10.8 C 25.9 9.7 21.5 10.5 20.8 10.1 C 20.8 10.3 19.3 10.2 19.7 10.5 C 20.5 10.3 21.4 10.6 22.0 10.8 C 22.7 10.6 21.0 10.5 21.7 10.4 C 21.9 10.6 23.0 10.5 23.1 10.7 C 21.8 10.7 23.9 10.9 23.2 11.2 C 22.0 11.1 19.9 11.4 20.2 11.1 C 20.2 11.2 20.8 11.2 20.7 11.1 C 19.3 11.0 18.7 11.2 18.4 11.3 C 17.6 11.1 15.6 11.5 16.0 11.3 C 15.6 11.1 17.5 11.4 17.1 11.2 C 14.6 11.1 14.7 11.3 12.9 11.1 C 13.7 11.4 11.7 11.5 11.8 11.4 C 11.7 11.3 11.6 11.2 11.4 11.2 C 11.3 11.3 11.3 11.7 11.5 12.5 C 11.2 12.1 11.1 12.6 11.1 13.0 C 11.3 13.4 11.3 12.8 11.5 13.1 C 11.5 13.5 11.5 14.1 11.5 14.5 C 11.4 14.5 11.2 14.3 11.2 14.6 C 11.4 15.3 11.6 17.4 11.5 17.1 C 11.1 16.0 11.2 18.2 11.0 16.7 C 11.0 17.1 10.9 17.0 10.9 17.5 C 11.0 17.6 11.1 17.7 11.2 17.8 C 11.2 18.9 10.8 18.0 10.8 18.9 C 10.9 19.1 10.9 19.5 11.1 19.7 C 11.1 19.3 11.0 19.2 11.0 18.8 C 11.4 19.6 11.2 18.0 11.5 18.3 C 11.5 19.3 11.3 19.1 11.1 19.5 C 11.3 20.9 11.2 20.2 11.1 21.5 C 11.2 21.6 11.2 21.2 11.4 21.4 C 11.3 23.0 10.8 22.4 11.0 23.7 C 11.0 23.4 10.8 22.3 10.7 23.0 C 10.9 23.8 11.1 24.2 11.1 25.3 C 11.0 25.3 10.9 25.1 10.9 25.4 C 11.0 25.9 11.2 26.1 11.3 26.5 C 11.2 26.5 11.2 27.2 11.3 27.4 C 11.1 27.7 11.0 27.1 11.0 27.5 C 11.0 28.4 11.5 29.2 11.5 29.8 C 11.1 29.6 11.2 30.5 11.3 31.2 C 11.0 31.1 11.0 32.7 11.0 33.6 C 11.2 33.5 11.1 34.5 11.4 34.4 C 11.4 33.9 11.4 33.7 11.5 33.7 C 11.6 34.8 11.1 34.9 11.5 35.9 C 11.3 36.3 11.1 36.7 11.1 37.5 C 11.2 37.6 11.3 36.2 11.4 37.1 C 11.3 37.1 11.3 37.3 11.4 37.6 C 11.1 37.4 11.0 38.0 10.9 38.3 C 11.1 39.0 10.7 40.3 11.1 39.8 C 11.1 40.9 10.7 40.0 10.7 40.8 C 11.0 40.5 11.0 42.0 11.2 41.3 C 11.3 42.5 10.9 42.2 10.7 41.7 C 10.7 42.7 10.9 43.0 10.7 43.5 C 11.0 43.1 11.1 44.7 11.0 43.9 C 10.7 43.5 10.9 44.8 10.7 44.9 C 10.9 44.6 10.9 45.2 11.1 44.5 C 11.1 45.3 11.2 46.4 10.9 47.0 C 11.1 48.1 11.1 49.0 10.8 48.5 C 10.9 49.4 10.9 49.1 10.8 50.0 C 10.9 50.0 10.9 49.7 11.0 49.7 C 11.0 50.9 10.8 50.6 10.8 52.3 C 10.5 52.0 10.5 53.1 10.3 53.4 C 10.4 52.7 10.4 52.2 10.5 51.6 C 10.4 51.5 10.3 52.0 10.3 51.6 C 10.3 51.5 10.4 51.3 10.4 51.0 C 10.2 52.1 10.0 49.6 10.3 50.4 C 10.2 50.4 10.2 50.4 10.2 50.7 C 10.4 50.5 10.3 50.5 10.6 50.8 C 10.5 50.2 10.8 49.8 10.6 49.6 C 10.5 49.6 10.5 50.1 10.4 50.2 C 10.3 48.8 10.7 49.8 10.7 48.7 C 10.4 48.4 10.3 49.0 10.2 49.2 C 10.1 48.2 10.2 47.4 10.3 47.2 C 10.2 46.2 10.1 47.2 10.0 46.5 C 10.1 46.2 10.3 46.3 10.3 45.7 C 10.2 45.0 10.1 46.0 10.1 45.3 C 10.3 44.7 10.4 45.9 10.5 44.9 C 10.1 45.0 10.5 43.9 10.3 43.9 C 10.4 44.6 10.0 44.4 10.3 44.2 C 10.6 42.9 9.7 41.5 10.3 40.3 C 10.2 40.3 10.2 40.1 10.1 40.0 C 9.9 41.0 9.9 42.6 9.5 42.7 C 9.6 43.6 9.8 43.6 9.9 43.8 C 9.6 44.7 9.6 44.6 9.2 43.8 C 9.2 42.1 9.4 41.4 9.5 40.3 C 9.3 39.6 9.4 40.3 9.2 40.5 C 9.5 37.1 8.7 39.5 8.8 38.2 C 8.9 38.3 9.0 38.1 9.1 37.7 C 8.9 37.7 9.0 37.2 8.9 37.0 C 8.9 37.3 8.8 37.4 8.7 37.2 C 8.6 36.3 8.9 36.8 9.1 36.8 C 9.0 37.5 9.1 37.9 9.2 38.1 C 9.1 37.2 9.3 36.6 9.1 35.9 C 9.4 35.2 9.7 36.7 10.0 36.4 C 10.2 36.6 9.4 35.5 9.3 34.8 C 9.3 33.7 9.0 33.6 9.0 32.6 C 9.3 32.4 9.2 33.6 9.4 33.6 C 9.4 33.4 9.4 33.3 9.4 33.1 C 9.4 32.4 9.2 32.3 9.1 31.7 C 9.4 31.5 9.2 31.3 9.1 30.8 C 9.2 30.2 9.3 31.3 9.4 30.6 C 9.4 29.9 9.1 29.2 9.1 29.0 C 9.2 29.0 9.4 29.2 9.4 28.8 C 9.2 27.9 9.2 27.7 9.0 28.6 C 9.1 27.7 9.0 27.2 8.7 27.2 C 8.7 28.6 8.7 29.0 8.4 29.5 C 8.7 29.9 8.5 30.2 8.4 30.7 C 8.8 30.6 8.4 31.3 8.6 31.7 C 8.7 31.4 8.7 31.1 8.8 30.9 C 8.8 32.4 8.7 32.4 9.1 33.8 C 9.0 33.8 9.0 33.9 8.9 34.0 C 8.8 33.5 8.9 32.5 8.6 32.3 C 8.4 33.0 8.8 33.6 8.5 34.4 C 8.7 34.9 8.8 33.7 8.8 34.6 C 8.6 34.9 8.5 35.3 8.4 35.9 C 8.5 36.6 8.6 36.9 8.7 37.5 C 8.6 37.5 8.5 37.5 8.5 38.1 C 8.6 38.1 8.7 37.6 8.7 38.2 C 8.4 39.6 8.2 40.6 8.3 42.3 C 8.4 41.8 8.7 40.6 8.7 41.2 C 8.5 41.8 8.8 42.9 8.6 43.6 C 8.5 43.8 8.7 42.7 8.3 42.9 C 8.3 43.6 8.2 44.0 8.2 44.4 C 8.3 44.4 8.3 45.2 8.5 45.1 C 8.5 44.5 8.2 44.2 8.3 44.1 C 9.0 44.9 8.1 46.3 8.1 47.4 C 8.2 48.2 8.3 46.9 8.4 47.8 C 8.5 48.4 7.9 48.5 7.9 47.7 C 8.0 47.1 7.7 46.8 7.9 46.8 C 7.9 46.5 7.9 46.1 7.9 46.1 C 7.8 46.5 7.7 46.4 7.6 46.7 C 7.7 46.1 7.2 45.8 7.5 45.4 C 7.5 45.7 7.5 45.9 7.6 46.1 C 7.5 44.4 7.7 43.9 7.9 43.0 C 7.7 43.5 7.7 43.0 7.5 42.9 C 7.6 43.7 7.4 45.0 7.4 44.1 C 7.7 43.7 6.9 42.9 7.2 42.5 C 7.2 42.9 7.4 42.9 7.5 43.2 C 7.5 42.5 7.7 42.6 7.7 42.0 C 7.3 39.8 8.0 38.6 7.5 35.1 C 7.5 34.0 7.6 36.2 7.8 36.2 C 7.8 35.9 7.8 35.8 7.8 35.6 C 7.6 35.4 7.9 35.0 7.6 34.5 C 7.9 34.7 7.6 33.1 7.8 32.5 C 7.8 32.4 7.6 32.4 7.6 32.1 C 7.9 30.0 7.5 25.6 7.8 24.1 C 7.6 24.0 7.6 23.2 7.5 22.9 C 7.5 21.9 7.7 22.5 7.5 20.8 C 7.4 19.9 7.6 21.0 7.7 21.2 C 7.6 18.8 7.8 16.9 7.5 15.2 C 7.4 14.4 7.7 15.4 7.8 13.9 C 7.4 13.5 7.9 11.6 7.5 10.9 C 7.5 9.9 8.0 8.6 7.6 9.1 C 7.6 7.8 7.9 8.9 7.9 8.4 C 7.9 7.5 7.3 8.1 7.3 7.2 C 7.4 7.3 7.4 7.3 7.5 7.2 C 7.8 7.3 8.2 7.3 8.8 7.5 C 8.3 7.5 7.9 7.5 7.8 7.5 C 7.8 7.6 7.8 7.7 7.8 7.8 C 7.8 7.7 7.8 7.6 7.8 7.6 C 8.2 7.5 8.4 7.7 9.3 7.6 C 9.8 7.5 11.7 7.3 12.7 7.6 C 12.6 7.5 12.4 7.5 12.1 7.4 C 12.7 7.3 13.7 7.6 13.3 7.3 C 14.7 7.3 15.5 7.6 16.1 7.3 C 16.6 7.2 16.1 7.6 17.9 7.6 C 17.7 7.3 20.9 7.3 21.9 7.6 C 21.7 7.2 22.1 7.5 22.5 7.6 C 22.5 7.5 22.3 7.3 22.6 7.3 C 22.8 7.4 23.0 7.4 23.2 7.3 C 23.3 7.7 24.3 7.2 24.6 7.5 C 24.3 7.5 24.5 7.7 24.8 7.7 C 24.7 7.4 26.3 7.9 26.0 7.6 C 25.6 7.5 24.8 7.6 24.9 7.4 C 26.0 7.3 25.8 7.6 26.6 7.6 C 26.5 7.5 25.9 7.4 26.4 7.4 C 27.3 7.4 26.5 7.4 27.2 7.6 C 27.6 7.6 28.3 7.4 28.6 7.4 C 28.5 7.4 28.9 7.5 29.0 7.6 C 30.7 7.7 34.1 7.4 35.9 7.7 C 35.9 7.6 36.2 7.6 36.0 7.4 C 37.0 7.5 36.9 7.5 38.0 7.6 C 37.9 7.4 37.9 7.3 37.8 7.2 C 39.0 7.1 38.1 7.6 38.9 7.6 C 38.7 7.0 39.5 7.7 40.2 7.7 C 40.2 7.6 40.6 7.6 40.4 7.4 C 41.6 7.4 41.7 7.8 42.6 7.6 C 42.4 7.6 41.9 6.8 41.9 6.6 C 42.2 6.7 42.5 6.8 43.0 6.8 C 42.5 7.1 43.2 8.0 44.5 7.7 C 43.7 7.8 43.4 7.7 43.5 7.5 C 44.6 7.5 45.1 7.6 46.0 7.6 C 46.1 7.4 45.4 7.4 45.6 7.1 C 45.8 7.1 45.9 7.0 45.8 6.9 C 46.9 7.0 46.9 7.1 48.0 7.0 C 48.1 7.1 47.8 7.2 47.4 7.1 C 47.5 7.3 47.6 7.5 46.9 7.5 C 46.8 7.3 47.1 7.1 46.2 7.2 C 46.2 7.3 46.3 7.4 46.3 7.6 C 47.0 7.6 48.7 7.7 48.8 7.6 C 48.5 7.5 47.9 7.5 48.1 7.2 C 49.3 7.3 49.7 7.6 50.7 7.7 C 52.4 7.6 55.4 7.7 54.9 7.3 C 56.0 7.4 55.6 7.4 56.5 7.5 C 56.2 7.2 57.5 7.4 57.4 7.2 C 56.3 7.2 56.6 7.2 55.6 7.2 C 55.6 7.1 55.7 7.0 56.1 6.9 C 56.2 7.1 56.7 7.1 57.4 7.1 C 57.3 7.0 56.6 6.8 57.4 6.8 C 57.4 6.8 57.6 6.8 58.0 6.8 C 58.0 7.0 58.0 7.1 58.0 7.2 C 57.6 7.3 57.1 7.4 56.8 7.5 C 57.1 7.5 57.2 7.5 57.5 7.6 C 57.6 7.4 58.9 7.6 59.0 7.4 C 58.5 7.4 58.1 7.3 58.7 7.2 C 58.8 7.3 59.6 7.4 59.9 7.2 C 58.8 7.1 59.2 7.1 58.6 6.8 C 59.9 6.8 59.7 7.1 61.2 7.0 C 61.2 7.2 61.2 7.4 60.8 7.5 C 61.8 7.9 63.9 7.5 64.6 7.6 C 64.1 7.5 63.5 7.8 64.3 7.9 C 64.3 7.8 64.8 7.8 64.9 7.7 C 65.1 7.3 64.5 7.0 63.9 6.8 C 64.5 6.8 64.7 6.7 65.2 6.7 C 65.4 6.8 64.8 7.2 65.5 7.2 C 65.7 6.8 66.8 7.2 67.1 6.9 C 66.6 6.9 66.2 6.8 66.8 6.8 C 66.7 6.9 67.7 6.8 67.7 7.0 C 66.9 7.1 66.7 7.3 66.1 7.3 C 66.8 7.3 65.6 7.5 66.7 7.6 C 67.2 7.4 67.5 7.2 68.6 7.2 C 69.1 7.2 68.6 7.5 69.2 7.5 C 69.1 7.2 70.3 7.2 69.6 7.4 C 70.0 7.4 70.2 7.4 70.5 7.5 C 69.9 7.3 72.9 6.9 72.4 6.8 C 72.4 7.1 72.5 7.4 72.6 7.5 C 73.2 7.2 73.9 7.4 75.5 7.4 C 75.4 7.1 75.7 7.4 76.4 7.3 C 76.5 7.2 76.0 7.1 76.4 7.1 C 77.2 7.2 77.2 7.2 77.3 7.3 C 77.9 7.3 78.3 7.3 78.5 7.4 C 78.6 7.3 78.4 7.2 78.3 7.2 C 80.3 7.4 81.5 7.1 83.3 7.2 C 82.5 7.0 82.3 7.4 82.9 7.4 C 83.3 7.4 83.6 7.3 83.9 7.2 C 83.5 7.0 83.6 7.1 84.5 7.2 C 85.3 7.1 84.3 6.8 85.0 6.8 C 85.6 6.9 85.1 7.0 85.5 7.1 C 85.8 7.1 86.1 7.1 86.4 7.1 C 85.9 6.9 86.6 6.8 87.2 6.8 C 86.7 7.0 86.9 7.1 88.0 7.0 C 88.1 7.1 87.5 7.2 87.9 7.2 C 88.1 7.3 89.1 6.9 89.8 7.2 C 89.5 7.2 89.4 7.2 89.4 7.3 C 90.3 7.1 90.8 7.5 91.5 7.6 C 90.9 7.4 91.3 7.2 91.1 7.0 C 91.7 7.2 92.8 6.9 93.2 7.2 C 92.2 7.2 92.9 7.7 93.6 7.7 C 93.9 7.5 92.7 7.5 93.2 7.2 C 93.7 7.0 94.3 7.4 94.8 7.2 C 94.8 7.0 94.3 7.2 94.2 7.1 C 94.8 7.1 94.1 7.0 94.6 6.9 C 94.8 7.2 95.3 6.8 95.6 6.8 C 95.9 6.9 96.6 7.3 97.0 7.1 C 97.1 7.0 96.5 7.0 96.5 6.9 C 98.3 6.8 98.6 7.1 100.3 6.8 C 100.4 7.0 100.7 7.0 101.1 7.1 C 101.1 6.9 101.5 6.9 101.8 6.8 C 102.4 7.0 103.0 7.1 103.8 7.2 C 103.5 7.4 103.1 7.5 104.2 7.5 C 104.3 7.4 103.9 7.4 104.3 7.3 C 104.3 7.4 104.5 7.4 104.7 7.3 C 104.7 7.3 104.7 7.2 104.8 7.2 C 104.4 7.2 104.1 7.2 103.8 7.2 C 104.0 7.0 103.9 6.9 103.7 6.8 C 105.2 6.7 104.8 7.2 105.8 7.0 C 105.7 7.4 105.9 7.5 105.0 7.7 C 105.8 7.7 106.4 7.5 106.8 7.3 C 105.8 7.4 106.4 7.1 106.2 6.9 C 106.8 6.9 106.9 6.8 107.2 6.8 C 107.8 6.9 106.2 7.2 107.5 7.2 C 106.7 6.9 108.5 7.0 109.2 7.1 C 109.1 7.0 108.9 7.0 109.4 6.8 C 111.3 6.7 110.5 7.5 112.0 7.1 C 111.7 7.2 112.3 7.2 112.4 7.3 C 111.4 7.4 111.2 7.4 110.7 7.5 C 110.7 7.6 111.0 7.6 111.2 7.6 C 111.3 7.5 111.6 7.5 111.9 7.6 C 112.3 7.4 112.5 7.1 113.4 6.8 C 113.4 6.9 113.2 7.1 113.5 7.1 C 114.1 6.9 112.9 7.5 114.5 7.4 C 114.3 7.3 114.3 7.2 114.6 7.0 C 115.4 6.9 115.1 7.0 116.2 6.9 C 116.2 7.3 115.1 7.4 114.6 7.7 C 115.3 7.6 116.1 7.3 116.6 7.5 C 116.2 7.4 116.9 7.2 117.6 7.1 C 118.1 7.1 117.2 7.5 117.9 7.5 C 118.4 7.4 118.9 7.2 118.5 7.1 C 119.6 7.2 119.6 6.9 120.5 6.9 C 120.4 7.1 120.1 7.1 119.9 7.0 C 119.8 7.1 119.6 7.2 119.9 7.3 C 120.5 7.1 121.3 7.1 122.1 7.0 C 122.1 7.3 122.1 7.6 122.2 7.8 C 121.7 9.7 122.3 10.9 122.1 12.6 C 121.9 12.2 122.1 14.6 121.8 15.5 C 121.9 15.9 122.4 16.9 122.2 16.5 C 121.8 16.9 122.0 17.7 121.9 18.4 C 122.0 18.4 122.0 18.3 122.1 18.3 C 122.2 19.7 121.9 20.2 121.7 20.8 C 121.9 22.5 121.5 24.6 121.8 26.7 C 121.5 27.3 121.6 27.8 121.4 29.1 C 121.7 29.0 121.6 30.0 121.6 31.0 C 121.9 30.7 121.8 31.6 122.0 31.6 C 122.0 30.7 122.3 31.0 122.4 30.5 C 122.1 31.7 122.6 32.3 122.4 33.2 C 122.2 32.1 121.9 31.8 121.6 31.7 C 121.6 33.0 121.5 33.7 121.3 34.0 C 121.5 34.1 121.6 33.9 121.7 33.6 C 121.7 34.1 121.7 34.5 121.7 34.9 C 121.6 35.1 121.5 34.5 121.5 34.9 C 121.6 35.2 121.6 35.6 121.7 35.9 C 121.5 36.3 121.5 35.4 121.4 35.3 C 121.3 37.0 121.8 36.3 121.9 37.2 C 121.7 37.5 121.5 37.4 121.4 38.2 C 121.6 38.5 121.8 38.6 121.8 39.5 C 121.8 40.1 121.4 39.5 121.4 40.1 C 121.5 40.2 121.5 40.5 121.4 40.8 C 121.5 40.8 121.6 41.1 121.6 41.5 C 121.5 41.6 121.6 42.2 121.6 42.5 C 121.5 42.5 121.2 43.5 121.4 43.7 C 121.5 43.7 121.5 43.2 121.6 43.1 C 121.5 43.8 121.6 44.4 121.6 44.8 C 121.1 44.8 121.5 46.2 121.2 47.6 C 121.4 48.5 121.7 47.5 121.8 48.8 C 121.6 49.4 121.6 48.5 121.3 48.6 C 121.3 48.7 121.1 49.7 121.3 49.9 C 121.4 49.9 121.4 49.3 121.5 49.3 C 121.7 50.3 121.4 50.1 121.3 50.5 C 121.5 50.6 121.6 51.2 121.7 51.4 C 121.9 53.8 121.4 53.5 121.2 54.4 C 121.3 54.4 121.3 55.0 121.4 55.1 C 121.3 54.4 121.5 53.6 121.6 54.6 C 121.4 54.3 121.6 55.8 121.6 55.9 C 121.8 55.8 121.7 54.9 122.0 55.5 C 122.0 56.8 121.6 55.9 121.8 57.0 C 121.6 57.0 121.6 56.5 121.6 56.2 C 121.6 56.6 121.6 57.1 121.5 57.1 C 121.4 56.6 121.2 56.5 121.1 56.2 C 121.3 56.9 121.1 57.9 121.4 57.4 C 121.3 58.6 121.5 60.0 121.7 59.3 C 121.8 60.4 121.4 59.5 121.6 60.5 C 121.4 60.2 121.2 59.8 121.0 60.3 C 121.2 60.6 121.2 61.2 121.4 61.3 C 121.4 62.8 121.1 63.0 120.9 63.5 C 121.3 63.2 121.0 63.7 121.2 64.7 C 121.2 65.0 120.9 64.6 120.9 65.1 C 120.8 65.1 120.6 65.1 120.4 65.1 C 122.0 65.5 119.1 65.2 120.0 65.6 C 118.3 65.4 118.4 65.4 116.7 65.4 C 116.7 65.2 117.0 65.1 117.6 65.1 C 117.4 65.3 119.2 65.3 118.9 65.1 C 118.9 65.1 118.8 65.0 118.8 65.0 C 117.7 65.0 116.8 65.0 116.2 64.8 C 116.1 65.0 115.7 65.1 116.2 65.4 C 114.8 65.1 114.0 65.5 113.3 65.2 C 113.7 65.2 114.0 65.2 113.7 65.1 C 113.4 65.1 112.9 65.2 113.1 65.4 C 114.1 65.4 114.3 65.5 114.6 65.3 C 114.4 65.5 115.8 65.6 114.9 65.7 C 114.6 65.3 113.3 65.9 113.7 65.6 C 114.5 65.5 112.4 65.4 112.1 65.2 C 112.1 65.2 112.1 65.2 112.1 65.2 Z M 7.7 42.3 C 7.8 43.3 8.0 42.2 8.0 41.5 C 7.9 41.7 7.8 41.8 7.7 41.7 C 7.7 42.0 7.8 42.3 7.7 42.3 C 7.7 42.3 7.7 42.3 7.7 42.3 Z M 11.2 34.3 C 10.9 33.9 11.1 35.4 11.1 36.0 C 11.1 35.9 11.2 35.7 11.2 36.1 C 11.4 35.6 11.0 35.1 11.2 34.3 C 11.2 34.3 11.2 34.3 11.2 34.3 Z M 19.4 10.1 C 19.2 10.2 18.7 10.2 18.5 10.1 C 18.2 10.1 18.4 10.3 18.4 10.4 C 17.7 10.4 18.3 10.0 17.3 10.1 C 17.3 10.6 19.6 10.7 19.4 10.1 C 19.4 10.1 19.4 10.1 19.4 10.1 Z M 117.4 59.3 C 117.3 59.6 117.1 58.4 116.9 58.5 C 117.0 60.2 117.3 59.3 117.3 61.4 C 117.3 61.3 117.4 61.2 117.5 61.3 C 117.4 60.2 117.2 60.0 117.7 60.6 C 117.7 60.2 117.1 59.6 117.4 59.3 C 117.4 59.3 117.4 59.3 117.4 59.3 Z M 98.1 60.6 C 98.3 60.7 98.5 60.7 98.6 60.8 C 99.2 60.7 99.0 60.7 100.0 60.8 C 99.5 60.4 98.7 60.4 98.1 60.6 C 98.1 60.6 98.1 60.6 98.1 60.6 Z M 43.3 60.0 C 43.1 60.0 42.9 60.0 42.7 60.0 C 42.9 60.2 42.5 60.5 43.4 60.4 C 43.5 60.4 43.3 60.4 43.1 60.4 C 43.3 60.3 43.7 60.3 43.6 60.1 C 43.4 60.1 43.3 60.1 43.3 60.0 C 43.3 60.0 43.3 60.0 43.3 60.0 Z M 20.6 62.3 C 21.7 62.0 18.9 61.5 20.6 62.3 C 20.6 62.3 20.6 62.3 20.6 62.3 C 20.6 62.3 20.6 62.3 20.6 62.3 Z M 23.3 65.1 C 23.3 65.2 23.6 65.1 23.6 65.1 C 24.6 65.2 23.7 65.3 24.2 65.4 C 25.0 65.2 23.8 65.0 24.8 64.8 C 24.5 64.7 23.9 65.1 23.3 65.1 C 23.3 65.1 23.3 65.1 23.3 65.1 Z M 110.6 7.2 C 109.7 7.3 109.3 7.5 108.9 7.8 C 109.5 7.8 109.9 7.8 110.0 8.0 C 111.2 7.8 109.4 7.8 109.3 7.7 C 109.6 7.5 110.4 7.5 110.6 7.2 C 110.6 7.2 110.6 7.2 110.6 7.2 Z M 107.8 7.3 C 107.3 7.4 106.7 7.5 106.5 7.7 C 107.1 7.7 107.1 7.8 107.0 7.9 C 107.6 7.7 107.1 7.6 107.8 7.3 C 107.8 7.3 107.8 7.3 107.8 7.3 Z M 112.8 7.6 C 112.4 7.6 112.4 7.8 112.2 7.9 C 112.8 7.9 112.8 8.0 113.4 8.0 C 113.5 7.9 113.5 7.8 113.6 7.7 C 113.2 7.7 113.0 7.8 112.6 7.8 C 112.7 7.7 112.8 7.6 112.8 7.6 C 112.8 7.6 112.8 7.6 112.8 7.6 Z M 104.7 7.6 C 103.1 7.6 102.1 8.0 100.9 8.4 C 102.1 8.3 103.4 7.8 104.2 8.0 C 105.3 7.9 104.0 7.8 104.1 7.7 C 104.1 7.6 104.5 7.6 104.7 7.6 C 104.7 7.6 104.7 7.6 104.7 7.6 Z M 90.5 7.6 C 90.3 7.5 89.5 7.9 88.6 7.8 C 88.7 7.9 88.9 7.9 88.8 8.0 C 90.1 8.1 89.5 7.6 90.5 7.6 C 90.5 7.6 90.5 7.6 90.5 7.6 Z M 82.8 7.8 C 81.9 7.8 83.1 7.9 82.7 8.1 C 83.6 8.1 84.5 8.1 84.6 7.9 C 83.6 8.0 83.3 8.0 82.8 7.8 C 82.8 7.8 82.8 7.8 82.8 7.8 Z M 77.2 7.8 C 76.3 7.9 77.5 8.1 77.1 8.4 C 77.4 8.3 77.4 8.2 77.4 8.1 C 77.7 8.2 77.9 8.2 78.3 8.2 C 78.1 8.0 77.0 8.1 77.2 7.8 C 77.2 7.8 77.2 7.8 77.2 7.8 Z M 121.1 19.8 C 121.0 19.3 120.8 19.6 120.9 18.4 C 120.8 20.2 120.1 19.7 120.2 21.9 C 120.3 21.5 120.4 21.7 120.3 21.9 C 120.5 22.7 120.4 21.0 120.7 21.7 C 120.7 21.0 120.4 21.5 120.4 20.9 C 120.6 20.1 120.8 19.6 121.1 19.8 C 121.1 19.8 121.1 19.8 121.1 19.8 Z M 120.0 22.0 C 119.9 22.7 120.4 22.5 120.1 22.9 C 120.1 23.2 120.2 23.1 120.3 23.1 C 120.3 22.9 120.3 22.8 120.4 22.8 C 120.3 22.3 120.2 21.7 120.0 22.0 C 120.0 22.0 120.0 22.0 120.0 22.0 Z M 120.0 16.2 C 120.1 17.1 119.9 17.6 120.1 17.9 C 119.8 18.5 120.3 18.5 120.0 19.3 C 120.1 20.2 120.2 19.4 120.3 19.1 C 120.4 20.0 120.0 19.5 120.1 20.4 C 120.4 20.4 120.3 19.2 120.6 19.2 C 120.6 18.4 120.4 18.5 120.4 18.1 C 120.4 17.7 120.5 17.7 120.6 17.6 C 120.6 16.7 120.7 16.7 120.7 16.0 C 120.5 15.9 120.4 16.3 120.5 17.1 C 120.4 16.3 120.2 16.1 120.3 15.0 C 120.6 15.5 120.6 12.3 120.2 12.9 C 120.2 13.8 120.4 13.3 120.5 13.6 C 120.2 14.9 120.3 15.5 120.0 16.2 C 120.0 16.2 120.0 16.2 120.0 16.2 Z M 112.5 8.4 C 112.2 8.3 112.0 8.3 111.6 8.3 C 111.8 8.1 112.3 8.1 111.9 8.0 C 111.2 7.9 111.0 8.0 110.6 8.0 C 110.7 8.2 111.9 8.4 111.1 8.5 C 111.2 8.6 111.6 8.7 112.2 8.7 C 111.8 8.3 113.1 8.7 113.7 8.7 C 114.0 8.3 114.7 8.8 115.4 8.5 C 115.2 8.3 113.8 8.5 113.2 8.5 C 113.5 8.5 112.2 8.0 112.5 8.4 C 112.5 8.4 112.5 8.4 112.5 8.4 Z M 120.1 24.4 C 120.2 24.6 120.3 25.3 120.3 24.7 C 120.4 24.9 120.3 25.6 120.6 25.2 C 120.6 25.5 120.6 25.8 120.6 26.1 C 120.5 26.1 120.6 25.2 120.3 25.6 C 120.4 26.2 120.3 26.0 120.3 26.9 C 120.1 26.5 120.1 27.0 119.7 26.8 C 119.9 27.0 119.9 27.7 120.1 27.6 C 120.0 28.8 119.7 27.4 119.7 28.9 C 119.5 28.9 119.6 27.8 119.7 27.4 C 119.4 27.3 119.6 29.3 119.5 30.5 C 119.7 29.4 119.9 30.2 120.1 30.6 C 120.1 31.0 120.0 30.7 119.8 31.3 C 119.8 31.9 120.0 32.1 119.8 32.3 C 119.9 32.7 120.0 32.5 120.1 32.5 C 120.1 33.3 119.8 32.8 119.8 33.8 C 120.2 33.0 120.2 33.9 120.1 35.3 C 120.2 35.2 120.3 34.8 120.4 34.7 C 120.6 34.9 120.2 35.7 120.1 36.0 C 120.2 36.5 120.3 36.1 120.3 35.6 C 120.4 35.9 120.5 36.3 120.5 36.6 C 120.6 35.0 120.5 32.5 120.9 29.6 C 120.7 30.2 120.6 29.5 120.7 28.6 C 120.8 28.5 120.9 28.8 120.9 29.2 C 121.2 28.1 120.5 28.4 120.7 26.8 C 120.8 25.9 120.9 27.7 121.0 26.6 C 121.0 26.1 120.8 25.7 121.0 25.4 C 120.9 24.4 120.6 24.2 120.6 22.6 C 120.5 23.6 119.9 24.3 120.1 25.1 C 120.1 25.1 120.1 24.7 120.1 24.4 C 120.1 24.4 120.1 24.4 120.1 24.4 Z M 106.9 8.0 C 106.4 8.0 106.0 8.2 106.0 8.0 C 105.0 8.1 105.9 8.3 106.0 8.4 C 106.5 8.3 106.7 8.2 106.9 8.0 C 106.9 8.0 106.9 8.0 106.9 8.0 Z M 13.7 8.0 C 12.4 8.0 13.0 8.3 12.0 8.3 C 12.8 8.4 13.2 8.6 14.4 8.5 C 14.3 8.3 14.1 8.1 13.7 8.0 C 13.7 8.0 13.7 8.0 13.7 8.0 Z M 109.8 8.2 C 110.8 7.9 108.7 8.5 108.9 8.3 C 107.9 8.4 109.6 8.4 108.6 8.7 C 109.4 8.5 109.7 8.7 110.7 8.6 C 110.8 8.4 110.1 8.4 109.3 8.4 C 109.4 8.3 109.8 8.3 109.8 8.2 C 109.8 8.2 109.8 8.2 109.8 8.2 Z M 26.1 8.7 C 26.7 8.5 25.0 8.2 24.5 8.1 C 24.7 8.4 24.9 8.4 26.1 8.7 C 26.1 8.7 26.1 8.7 26.1 8.7 Z M 8.7 11.0 C 9.0 11.7 8.7 9.6 9.0 10.4 C 9.0 9.9 8.9 9.7 8.8 9.6 C 8.9 9.4 8.8 8.5 9.1 9.0 C 9.2 9.0 9.0 10.3 9.3 10.1 C 9.3 10.6 9.2 10.5 9.2 10.9 C 9.2 10.0 9.0 10.2 8.9 11.2 C 9.1 11.4 9.1 10.9 9.2 11.5 C 9.1 11.5 8.9 11.9 8.6 11.5 C 8.6 12.5 9.0 12.3 9.0 13.4 C 9.1 13.5 9.1 12.7 9.2 12.4 C 9.5 12.8 9.0 13.4 9.4 13.5 C 9.2 13.5 9.1 14.1 8.8 13.9 C 8.7 12.9 8.5 12.2 8.4 11.4 C 8.3 11.9 8.8 13.4 8.6 14.3 C 8.8 14.3 8.8 15.0 9.0 14.9 C 8.9 15.8 8.6 15.1 8.6 14.9 C 8.4 15.0 8.5 16.8 8.7 16.9 C 8.5 16.8 8.6 18.9 8.9 19.1 C 8.7 19.6 9.1 20.8 8.7 20.8 C 8.8 21.2 8.8 21.9 8.8 22.7 C 9.1 23.1 9.0 21.7 9.1 21.7 C 9.4 21.7 9.1 23.1 9.3 23.1 C 9.3 23.1 9.4 23.1 9.5 23.2 C 9.4 22.5 9.3 21.8 9.2 21.2 C 9.3 20.8 9.3 21.4 9.5 21.4 C 9.3 20.8 9.0 18.6 9.5 19.0 C 9.3 17.6 9.4 16.7 9.2 16.0 C 9.2 15.3 9.4 16.6 9.5 16.3 C 9.2 13.8 9.6 11.4 9.2 9.1 C 9.2 9.1 9.2 9.0 9.2 9.0 C 9.5 9.1 9.6 9.2 9.7 9.3 C 12.2 9.2 9.6 8.8 11.8 8.9 C 12.0 9.1 11.0 9.1 11.2 9.3 C 11.9 9.3 12.0 9.2 13.0 9.2 C 12.9 9.1 12.8 9.0 12.7 8.9 C 13.4 8.9 13.4 9.2 13.9 9.3 C 14.8 9.2 14.4 9.1 15.2 9.4 C 16.0 9.3 16.8 9.2 17.8 9.3 C 18.3 9.1 16.8 8.8 15.8 8.8 C 15.8 8.7 16.1 8.7 16.0 8.6 C 17.3 8.8 17.9 9.3 19.6 9.3 C 18.1 9.0 20.2 9.2 20.6 9.4 C 21.3 9.4 20.5 9.0 20.0 9.1 C 20.0 9.0 20.6 9.1 20.7 9.2 C 20.5 8.8 18.7 8.6 17.1 8.8 C 17.5 8.3 15.9 8.8 16.3 8.3 C 15.0 8.4 16.4 8.7 14.8 8.6 C 15.0 8.7 15.4 8.8 15.7 8.9 C 14.5 9.0 14.5 8.6 13.3 8.7 C 13.3 8.9 14.1 8.8 14.2 9.0 C 12.6 8.8 12.1 8.7 11.0 8.4 C 10.9 8.6 11.4 8.8 9.7 8.7 C 9.6 8.6 9.6 8.6 9.5 8.5 C 10.3 8.6 10.1 8.1 8.3 8.1 C 8.3 8.2 8.3 8.2 8.3 8.2 C 8.4 8.3 8.4 8.3 8.5 8.2 C 8.7 8.3 9.0 8.3 9.3 8.3 C 9.3 8.4 9.0 8.4 8.7 8.5 C 8.7 8.7 8.7 9.0 8.7 9.2 C 8.7 9.6 8.6 9.9 8.6 9.4 C 8.4 9.5 8.8 10.1 8.7 11.0 C 8.7 11.0 8.7 11.0 8.7 11.0 Z M 91.8 8.2 C 91.5 8.2 91.3 8.3 90.8 8.3 C 90.5 8.5 91.4 8.4 91.3 8.6 C 91.9 8.6 91.6 8.3 91.8 8.2 C 91.8 8.2 91.8 8.2 91.8 8.2 Z M 100.2 8.4 C 100.3 8.1 99.7 8.5 99.0 8.4 C 98.7 8.6 99.6 8.5 99.5 8.7 C 100.2 8.7 99.5 8.3 100.2 8.4 C 100.2 8.4 100.2 8.4 100.2 8.4 Z M 96.6 8.4 C 96.4 8.1 96.2 8.5 96.9 8.4 C 96.7 8.6 96.5 8.7 96.1 8.8 C 96.4 9.0 96.9 8.6 97.6 8.7 C 97.4 8.5 97.1 8.4 96.6 8.4 C 96.6 8.4 96.6 8.4 96.6 8.4 Z M 95.4 8.4 C 94.8 8.5 94.7 8.3 93.8 8.4 C 93.9 8.6 95.6 8.5 96.0 8.4 C 96.3 8.2 94.5 8.2 95.4 8.4 C 95.4 8.4 95.4 8.4 95.4 8.4 Z M 38.3 9.0 C 38.0 9.0 38.2 9.1 38.1 9.2 C 37.0 8.8 35.7 8.9 36.6 8.5 C 35.7 8.7 34.7 8.4 33.8 8.4 C 33.1 8.3 33.6 8.6 33.0 8.6 C 32.1 8.6 33.4 8.5 33.2 8.4 C 32.9 8.2 32.9 8.6 31.7 8.4 C 32.2 8.9 30.8 8.4 31.3 8.8 C 30.7 8.7 30.6 8.8 29.8 8.8 C 30.0 9.0 30.7 9.0 30.9 9.2 C 31.4 9.4 31.2 8.9 30.5 9.0 C 30.8 8.7 32.1 9.1 32.3 8.9 C 32.8 9.2 31.3 9.0 31.9 9.2 C 32.1 9.2 32.4 9.2 32.4 9.1 C 32.8 9.1 33.2 9.2 33.4 9.3 C 33.2 9.3 33.1 9.3 33.1 9.2 C 32.5 9.2 33.9 9.6 32.7 9.6 C 32.9 9.7 33.4 9.7 33.4 9.9 C 33.9 10.0 33.1 9.2 34.4 9.5 C 35.1 9.2 32.4 9.2 32.8 8.8 C 34.5 8.8 33.8 9.2 35.1 9.2 C 35.1 9.1 35.0 9.0 35.3 9.0 C 35.2 8.9 34.7 8.9 34.4 8.9 C 34.4 8.8 34.9 8.8 35.3 8.8 C 35.2 8.8 34.9 8.8 34.9 8.7 C 36.1 8.8 36.2 9.3 35.2 9.4 C 35.4 9.6 36.8 9.6 37.1 9.5 C 36.6 9.3 37.0 9.3 36.6 9.1 C 36.3 9.1 36.4 9.2 36.3 9.2 C 35.8 9.2 36.2 9.1 36.2 9.0 C 36.9 9.0 36.9 9.2 37.5 9.1 C 37.4 9.1 37.2 9.2 37.3 9.3 C 37.6 9.3 37.9 9.3 38.2 9.3 C 38.1 9.2 38.5 9.1 38.3 9.0 C 38.3 9.0 38.3 9.0 38.3 9.0 Z M 22.2 8.4 C 21.1 8.3 21.8 8.5 22.3 8.5 C 22.2 8.6 21.8 8.6 21.5 8.7 C 21.9 8.8 22.1 8.7 23.1 8.8 C 22.5 9.1 23.7 9.5 25.1 9.5 C 25.2 9.0 23.9 8.9 24.2 8.7 C 23.3 8.8 22.5 8.7 22.2 8.4 C 22.2 8.4 22.2 8.4 22.2 8.4 Z M 106.0 8.4 C 105.4 8.4 104.8 8.4 104.2 8.4 C 104.1 8.7 105.8 8.8 106.0 8.4 C 106.0 8.4 106.0 8.4 106.0 8.4 Z M 120.2 37.8 C 120.2 38.1 120.2 38.1 120.1 38.1 C 120.2 39.1 120.3 37.7 120.5 38.2 C 120.5 37.8 120.5 37.5 120.5 37.2 C 120.4 37.1 120.3 38.5 120.2 37.5 C 120.1 37.6 120.2 37.8 120.2 37.8 C 120.2 37.8 120.2 37.8 120.2 37.8 Z M 92.3 8.5 C 91.6 8.6 91.8 8.9 90.6 8.8 C 91.0 9.0 91.3 9.0 92.1 8.9 C 92.1 8.8 92.2 8.6 92.3 8.5 C 92.3 8.5 92.3 8.5 92.3 8.5 Z M 42.7 8.6 C 41.8 8.3 41.9 8.9 40.4 8.8 C 41.2 9.1 41.9 8.7 42.7 8.6 C 42.7 8.6 42.7 8.6 42.7 8.6 Z M 9.2 25.4 C 9.3 25.0 9.3 25.6 9.5 25.0 C 9.4 24.5 9.2 24.2 9.2 23.6 C 9.0 24.3 9.2 26.0 8.8 26.3 C 8.9 27.1 9.1 27.2 9.3 27.6 C 9.3 27.2 9.3 27.0 9.4 27.0 C 9.0 26.3 9.6 26.2 9.2 25.4 C 9.2 25.4 9.2 25.4 9.2 25.4 Z M 26.4 8.8 C 27.1 8.9 26.2 9.0 26.1 9.2 C 25.7 9.1 25.7 8.9 25.6 8.8 C 25.0 8.9 25.0 9.0 25.2 9.2 C 26.2 9.2 27.5 9.2 27.0 9.6 C 28.0 9.6 27.2 9.3 27.7 9.2 C 28.3 9.4 27.8 9.5 28.0 9.7 C 28.2 9.7 28.7 9.4 28.9 9.7 C 30.1 9.4 29.2 9.0 27.8 8.6 C 27.0 8.9 28.2 8.9 26.4 8.8 C 26.4 8.8 26.4 8.8 26.4 8.8 Z M 64.9 9.0 C 64.8 8.9 64.3 8.9 64.3 8.8 C 63.6 9.1 63.1 9.3 62.5 9.6 C 62.6 9.8 63.4 9.6 63.1 9.4 C 63.3 9.6 63.9 9.7 64.3 9.8 C 64.9 9.8 65.1 9.3 65.2 9.7 C 65.8 9.6 65.4 9.6 66.4 9.6 C 64.9 9.4 66.9 9.5 67.0 9.2 C 66.1 9.2 65.4 9.2 65.5 9.5 C 64.8 9.4 64.1 9.3 64.0 9.1 C 64.0 9.0 64.5 9.0 64.9 9.0 C 64.9 9.0 64.9 9.0 64.9 9.0 Z M 61.3 9.7 C 61.5 9.7 61.8 9.6 62.2 9.6 C 61.9 9.6 61.9 9.5 61.9 9.3 C 61.1 9.3 61.0 9.5 60.7 9.2 C 60.0 9.2 60.9 9.6 59.8 9.5 C 59.9 9.6 60.4 9.5 60.4 9.6 C 60.5 9.5 60.9 9.4 61.3 9.7 C 61.3 9.7 61.3 9.7 61.3 9.7 Z M 52.0 9.2 C 51.2 9.3 52.4 9.4 52.1 9.6 C 52.2 9.5 53.7 9.6 53.6 9.8 C 54.1 10.1 55.5 9.5 55.4 9.9 C 55.7 9.9 55.6 9.7 55.6 9.6 C 54.6 9.7 54.6 9.5 55.3 9.5 C 55.2 9.4 54.6 9.4 54.1 9.4 C 54.1 9.5 54.5 9.6 54.5 9.7 C 53.5 9.6 52.8 9.4 52.0 9.2 C 52.0 9.2 52.0 9.2 52.0 9.2 Z M 112.7 64.0 C 113.5 64.0 113.9 63.9 114.1 63.9 C 113.8 63.7 113.6 63.9 113.3 63.9 C 113.0 63.7 113.3 63.7 113.7 63.7 C 113.2 63.5 112.1 63.7 112.7 64.0 C 112.7 64.0 112.7 64.0 112.7 64.0 Z M 118.7 64.0 C 119.2 64.0 119.6 64.0 119.7 63.9 C 119.6 63.8 119.6 63.7 119.6 63.7 C 119.6 63.7 119.5 63.7 119.5 63.7 C 119.4 63.7 119.5 63.9 119.2 63.9 C 118.9 63.8 118.6 63.7 118.4 63.6 C 118.1 63.6 118.2 63.7 118.2 63.8 C 118.0 63.8 117.9 63.8 117.8 63.7 C 117.2 63.9 118.8 63.7 118.7 64.0 C 118.7 64.0 118.7 64.0 118.7 64.0 Z M 57.1 9.4 C 57.4 9.5 57.6 9.6 58.3 9.6 C 58.2 9.5 58.7 9.5 59.2 9.5 C 58.5 9.3 58.1 9.4 57.1 9.4 C 57.1 9.4 57.1 9.4 57.1 9.4 Z M 119.6 26.8 C 119.8 25.8 119.4 26.1 119.6 24.7 C 119.5 24.7 119.4 24.8 119.3 24.8 C 119.5 25.5 119.4 25.9 119.6 26.8 C 119.6 26.8 119.6 26.8 119.6 26.8 Z M 33.2 63.8 C 33.3 63.6 32.4 63.7 32.3 63.6 C 32.2 63.9 31.6 63.3 29.9 63.4 C 29.8 63.3 29.9 63.3 30.2 63.2 C 28.7 63.2 30.6 63.5 30.8 63.7 C 31.9 63.7 32.1 63.9 33.2 63.8 C 33.2 63.8 33.2 63.8 33.2 63.8 Z M 9.9 17.0 C 9.9 16.9 9.9 17.0 9.9 17.2 C 9.9 17.4 9.9 17.6 9.9 17.8 C 10.2 18.0 10.3 17.1 10.7 18.2 C 10.7 17.9 10.6 17.9 10.6 17.8 C 9.9 15.8 11.0 15.7 10.6 13.4 C 10.6 13.1 10.5 13.1 10.4 13.0 C 10.4 13.2 10.4 13.2 10.3 13.2 C 10.7 13.7 10.3 15.1 10.2 14.2 C 10.1 14.2 10.1 14.5 10.2 14.5 C 10.2 14.7 10.2 14.9 10.2 15.1 C 10.3 15.1 10.3 14.7 10.4 14.7 C 10.3 15.6 10.2 16.7 9.9 15.8 C 10.0 16.4 10.1 16.7 10.2 17.2 C 10.2 17.5 9.9 17.3 9.9 17.0 C 9.9 17.0 9.9 17.0 9.9 17.0 Z M 10.0 24.8 C 10.0 25.6 10.2 25.5 10.2 26.4 C 10.4 25.9 10.1 25.0 10.3 24.3 C 10.1 24.4 10.1 24.8 10.0 24.8 C 10.0 24.8 10.0 24.8 10.0 24.8 Z M 12.6 10.1 C 12.7 10.4 13.5 10.4 14.4 10.4 C 14.3 10.1 13.5 10.1 12.6 10.1 C 12.6 10.1 12.6 10.1 12.6 10.1 Z M 10.3 11.7 C 10.4 12.7 10.4 10.7 10.7 11.4 C 10.6 11.0 10.6 10.6 10.7 10.6 C 10.7 10.6 10.7 10.5 10.7 10.5 C 10.9 10.4 10.8 10.3 11.3 10.4 C 11.2 10.2 10.7 10.3 10.4 10.2 C 10.4 10.3 10.4 10.3 10.3 10.2 C 10.5 11.0 10.5 11.2 10.3 11.7 C 10.3 11.7 10.3 11.7 10.3 11.7 Z M 10.3 12.3 C 10.4 12.9 10.8 12.6 10.8 11.9 C 10.6 12.0 10.5 12.0 10.3 12.3 C 10.3 12.3 10.3 12.3 10.3 12.3 Z M 77.2 10.2 C 76.8 10.2 77.1 10.4 76.6 10.4 C 76.6 10.6 78.3 10.5 76.9 10.6 C 77.3 10.9 77.7 10.5 78.4 10.5 C 78.2 10.4 78.0 10.4 78.4 10.4 C 78.7 10.1 77.0 10.4 77.2 10.2 C 77.2 10.2 77.2 10.2 77.2 10.2 Z M 75.5 10.2 C 75.1 10.2 75.3 10.3 75.5 10.3 C 75.4 10.4 74.9 10.3 74.6 10.4 C 74.6 10.2 75.1 10.7 75.1 10.9 C 76.6 10.7 75.5 10.5 75.5 10.2 C 75.5 10.2 75.5 10.2 75.5 10.2 Z M 74.0 10.4 C 73.1 10.1 71.7 10.2 71.0 10.4 C 71.7 10.8 73.5 10.7 74.0 10.4 C 74.0 10.4 74.0 10.4 74.0 10.4 Z M 83.7 10.4 C 82.0 10.1 78.4 10.5 81.5 10.8 C 81.4 10.6 83.5 10.5 84.5 10.6 C 84.6 10.5 85.8 10.3 85.7 10.4 C 86.6 10.2 83.3 10.2 83.7 10.4 C 83.7 10.4 83.7 10.4 83.7 10.4 Z M 69.8 10.9 C 70.3 10.8 69.7 10.4 70.5 10.5 C 70.9 10.5 70.4 10.4 70.5 10.3 C 69.6 10.3 67.7 10.5 67.5 10.3 C 67.1 10.4 66.9 10.5 66.1 10.5 C 66.0 10.6 69.2 10.3 69.8 10.8 C 69.8 10.9 68.6 10.9 69.8 10.9 C 69.8 10.9 69.8 10.9 69.8 10.9 Z M 118.1 27.3 C 118.4 27.4 118.2 26.2 118.5 26.3 C 118.2 25.8 118.4 25.1 118.1 24.5 C 118.2 24.2 118.6 24.1 118.6 23.1 C 118.4 23.2 118.5 23.6 118.3 23.2 C 118.3 22.3 118.6 22.4 118.5 21.4 C 118.1 21.8 118.4 19.2 118.0 19.7 C 118.0 20.2 118.2 20.0 118.1 21.0 C 118.1 21.3 118.0 21.3 118.0 21.7 C 117.8 21.5 118.1 20.8 117.9 20.6 C 117.7 20.8 117.7 21.4 117.6 21.6 C 117.6 22.0 117.7 21.5 117.8 21.5 C 117.9 22.6 117.3 21.7 117.3 22.9 C 117.6 22.5 117.6 22.5 117.8 22.6 C 117.7 23.2 117.9 24.5 117.6 23.9 C 117.4 24.1 117.7 24.8 117.8 24.6 C 117.9 25.1 117.8 25.2 117.7 25.3 C 117.8 26.4 118.0 26.5 118.2 26.2 C 118.5 26.3 118.0 26.6 118.1 27.3 C 118.1 27.3 118.1 27.3 118.1 27.3 Z M 93.0 10.5 C 93.8 10.3 92.2 10.6 91.6 10.5 C 92.4 10.6 91.9 10.9 92.8 10.9 C 92.5 10.8 92.6 10.8 93.2 10.8 C 93.4 10.6 92.2 10.6 93.0 10.5 C 93.0 10.5 93.0 10.5 93.0 10.5 Z M 64.3 10.5 C 64.0 10.3 62.4 10.5 61.6 10.4 C 61.8 10.8 63.7 10.3 64.0 10.7 C 64.5 10.6 63.7 10.5 64.3 10.5 C 64.3 10.5 64.3 10.5 64.3 10.5 Z M 118.5 16.1 C 118.4 15.8 118.4 16.0 118.4 16.2 C 118.3 16.2 118.3 15.5 118.3 15.1 C 118.1 15.9 118.1 15.1 117.8 15.5 C 117.8 15.1 117.8 15.0 117.7 15.0 C 118.2 14.6 117.5 13.4 117.4 15.3 C 117.7 14.7 117.7 14.9 117.7 15.5 C 117.6 16.5 117.8 17.0 117.5 17.5 C 117.5 17.9 117.7 18.0 117.7 18.7 C 117.5 19.0 117.4 19.7 117.0 19.5 C 117.0 20.7 117.6 19.5 117.7 20.4 C 117.5 21.5 117.4 20.1 117.2 20.5 C 117.2 20.7 117.1 20.7 117.0 20.9 C 117.0 21.2 117.3 21.1 117.3 20.7 C 117.3 20.8 117.5 21.6 117.3 21.5 C 117.4 22.0 118.0 20.2 117.7 19.5 C 117.7 19.1 118.2 18.8 118.1 19.3 C 118.4 19.0 117.8 18.4 118.3 18.3 C 118.3 17.9 118.3 17.5 118.3 17.1 C 118.2 17.2 118.2 17.5 118.1 17.5 C 118.1 17.2 118.1 16.8 118.1 16.4 C 118.3 16.6 118.3 16.6 118.5 16.1 C 118.5 16.1 118.5 16.1 118.5 16.1 Z M 68.1 10.6 C 67.4 10.6 67.2 10.7 66.6 10.8 C 66.8 10.9 68.4 10.8 68.1 10.6 C 68.1 10.6 68.1 10.6 68.1 10.6 Z M 117.4 32.4 C 117.5 32.3 117.5 31.8 117.6 31.8 C 117.7 32.6 117.8 31.6 118.2 32.2 C 118.0 31.1 117.4 30.9 117.3 32.4 C 117.3 33.5 117.4 31.3 117.4 32.4 C 117.4 32.4 117.4 32.4 117.4 32.4 Z M 117.6 28.9 C 117.5 28.3 117.4 30.1 117.3 30.5 C 117.2 30.5 117.1 30.5 117.0 30.5 C 117.4 31.4 117.5 30.1 118.0 30.8 C 118.1 29.7 118.2 29.2 118.1 28.2 C 118.0 28.3 118.0 28.5 118.1 28.5 C 118.0 29.3 117.7 28.9 117.8 28.0 C 117.7 28.3 117.7 29.0 117.7 29.5 C 117.7 29.3 117.8 29.2 117.9 29.2 C 117.9 29.8 117.7 29.6 117.7 30.0 C 117.6 30.1 117.4 29.0 117.6 28.9 C 117.6 28.9 117.6 28.9 117.6 28.9 Z M 94.5 62.2 C 95.0 62.2 93.6 61.8 93.3 61.5 C 92.7 61.4 92.6 61.5 92.2 61.6 C 92.6 61.7 93.2 61.7 93.6 61.9 C 93.8 62.2 92.7 61.8 92.6 62.0 C 92.5 62.4 94.0 61.9 94.5 62.2 C 94.5 62.2 94.5 62.2 94.5 62.2 Z M 109.9 11.0 C 109.6 11.0 109.7 11.1 109.8 11.1 C 109.7 11.2 109.2 11.2 109.3 11.1 C 108.8 11.1 109.4 11.2 108.9 11.2 C 108.6 11.4 109.7 11.2 109.8 11.2 C 110.4 11.1 109.7 11.4 109.7 11.6 C 110.3 11.6 110.3 11.3 111.0 11.4 C 110.7 11.3 110.4 11.1 109.9 11.0 C 109.9 11.0 109.9 11.0 109.9 11.0 Z M 117.9 34.3 C 118.0 34.4 117.5 33.7 117.7 32.9 C 117.7 31.9 117.5 33.5 117.5 32.6 C 117.5 33.4 117.6 34.3 117.7 35.4 C 117.8 35.7 117.7 33.8 117.8 34.9 C 117.9 34.8 117.9 34.6 117.8 34.6 C 117.8 34.3 117.9 34.3 117.9 34.3 C 117.9 34.3 117.9 34.3 117.9 34.3 Z M 117.3 33.2 C 117.3 33.3 117.3 33.5 117.3 33.5 C 117.3 33.9 117.1 33.9 117.1 33.5 C 116.8 34.0 117.3 34.0 117.2 34.9 C 117.4 34.5 117.5 34.3 117.3 35.2 C 117.6 35.9 117.5 33.5 117.3 33.2 C 117.3 33.2 117.3 33.2 117.3 33.2 Z M 103.6 62.0 C 103.5 61.9 102.9 62.0 102.4 62.0 C 102.8 61.8 105.3 61.9 105.7 62.0 C 105.9 62.0 106.1 61.9 106.3 62.0 C 106.2 62.0 106.7 61.8 106.4 61.8 C 106.3 61.7 106.9 61.7 106.8 61.6 C 107.7 61.7 106.7 61.8 107.1 62.0 C 107.9 61.7 107.9 61.9 109.1 62.0 C 108.7 61.7 107.4 61.8 107.2 61.5 C 106.5 61.7 105.3 61.6 104.5 61.3 C 105.7 61.7 102.5 61.9 100.8 61.8 C 100.8 61.6 100.2 61.7 99.5 61.6 C 98.8 61.3 99.4 61.8 100.2 61.7 C 100.3 61.9 99.0 61.7 98.5 61.8 C 99.2 61.9 99.0 62.0 99.3 62.1 C 100.5 62.1 99.4 62.0 99.4 61.9 C 99.7 61.9 100.0 61.9 100.3 61.9 C 99.1 62.3 102.6 61.9 101.2 62.0 C 102.4 61.9 102.7 62.2 103.6 62.0 C 103.6 62.0 103.6 62.0 103.6 62.0 Z M 117.9 49.2 C 117.9 49.0 117.7 48.0 117.9 48.0 C 117.7 46.8 117.5 47.7 117.5 46.4 C 117.4 46.5 117.5 47.0 117.3 46.9 C 117.4 47.4 117.5 48.0 117.7 47.9 C 117.7 48.5 117.8 48.7 117.8 49.1 C 117.7 48.9 117.7 48.7 117.7 48.2 C 117.5 48.0 117.3 48.1 117.3 48.9 C 117.6 49.3 117.7 49.2 117.9 49.2 C 117.9 49.2 117.9 49.2 117.9 49.2 Z M 117.6 46.2 C 117.6 46.1 117.7 45.9 117.8 46.0 C 118.1 45.7 117.5 45.7 117.5 45.3 C 117.5 45.0 117.6 45.1 117.7 45.1 C 117.7 44.6 117.7 44.2 117.7 44.0 C 117.6 43.2 117.5 44.8 117.4 45.0 C 117.4 45.5 117.6 45.4 117.6 46.2 C 117.6 46.2 117.6 46.2 117.6 46.2 Z M 117.8 37.7 C 118.1 37.6 117.7 37.3 117.7 36.9 C 117.5 37.1 117.6 38.0 117.3 37.4 C 117.3 38.2 117.3 38.3 117.3 39.1 C 117.1 39.6 117.6 39.1 117.4 38.3 C 117.5 38.4 117.6 38.8 117.7 38.8 C 117.2 39.3 117.9 40.9 117.6 40.0 C 117.6 39.7 117.7 39.6 117.8 39.4 C 117.6 39.2 117.7 37.3 117.8 37.7 C 117.8 37.7 117.8 37.7 117.8 37.7 Z M 115.6 11.5 C 116.7 11.4 116.8 11.4 117.6 11.5 C 117.6 11.5 117.6 11.6 117.6 11.7 C 117.5 11.9 117.4 11.8 117.4 11.6 C 117.3 12.0 117.4 12.3 117.4 12.7 C 117.5 12.6 117.5 12.4 117.4 12.5 C 117.6 11.4 117.6 12.1 117.8 12.1 C 117.9 11.7 117.9 11.4 117.9 11.2 C 117.1 11.2 116.3 11.4 116.1 11.2 C 115.7 11.2 116.1 11.3 115.6 11.5 C 115.6 11.5 115.6 11.5 115.6 11.5 Z M 34.0 61.8 C 33.8 61.9 33.3 61.9 33.4 62.0 C 33.9 62.0 34.2 61.9 34.6 61.9 C 33.7 61.8 33.8 61.5 32.7 61.5 C 33.1 61.6 33.1 61.8 34.0 61.8 C 34.0 61.8 34.0 61.8 34.0 61.8 Z M 117.7 40.6 C 117.6 40.6 117.5 40.6 117.5 40.2 C 117.3 40.1 117.4 41.0 117.3 41.0 C 117.3 41.3 117.4 41.2 117.4 41.6 C 117.6 41.5 117.5 40.8 117.7 41.1 C 117.8 41.4 117.7 41.4 117.7 41.4 C 117.8 42.0 117.8 41.1 117.7 40.6 C 117.7 40.6 117.7 40.6 117.7 40.6 Z M 91.4 62.0 C 91.7 61.9 91.3 61.8 90.9 61.8 C 91.6 61.5 90.1 61.4 89.9 61.2 C 90.4 61.4 91.5 61.2 91.7 61.3 C 92.0 61.3 91.5 61.1 92.4 61.0 C 92.1 60.8 91.2 61.0 91.6 61.2 C 91.1 60.9 90.4 61.2 90.3 60.9 C 88.9 60.9 88.8 61.1 88.9 61.3 C 90.0 61.2 89.7 61.6 90.8 61.6 C 90.8 61.6 90.5 61.6 90.3 61.6 C 90.5 61.8 91.0 61.9 91.4 62.0 C 91.4 62.0 91.4 62.0 91.4 62.0 Z M 117.7 58.2 C 117.7 57.5 117.5 57.4 117.3 57.2 C 117.4 57.5 117.4 58.0 117.4 58.4 C 117.6 58.4 117.5 57.6 117.7 58.2 C 117.7 58.2 117.7 58.2 117.7 58.2 Z M 95.8 61.6 C 95.9 61.7 96.1 61.7 96.1 61.6 C 96.8 61.6 97.1 61.8 97.4 61.9 C 97.8 61.9 97.5 61.7 97.4 61.6 C 96.9 61.8 96.8 61.4 95.9 61.5 C 96.1 61.6 96.0 61.6 95.8 61.6 C 95.8 61.6 95.8 61.6 95.8 61.6 Z M 115.4 61.8 C 115.7 61.8 115.5 61.7 115.3 61.7 C 115.4 61.4 116.8 61.7 117.2 61.6 C 117.0 61.4 115.7 61.4 117.1 61.3 C 117.1 61.3 117.1 61.2 117.1 61.2 C 117.1 61.2 117.1 61.2 117.1 61.3 C 116.5 61.2 115.3 61.3 114.5 61.2 C 114.5 61.0 115.6 61.0 115.2 60.8 C 114.5 60.9 113.6 61.0 113.8 61.4 C 115.1 61.4 114.9 61.6 115.4 61.8 C 115.4 61.8 115.4 61.8 115.4 61.8 Z M 113.8 61.6 C 114.0 61.8 114.1 61.6 114.6 61.6 C 113.6 61.3 113.3 61.5 111.8 61.4 C 111.8 61.4 111.9 61.5 111.9 61.6 C 111.7 61.6 111.4 61.6 111.1 61.6 C 112.6 61.8 112.7 61.6 114.0 61.6 C 114.1 61.6 113.9 61.6 113.8 61.6 C 113.8 61.6 113.8 61.6 113.8 61.6 Z M 117.4 27.6 C 117.3 28.0 117.1 28.4 117.1 29.1 C 117.3 29.0 117.4 28.5 117.4 27.6 C 117.4 27.6 117.4 27.6 117.4 27.6 Z M 94.5 61.5 C 93.8 61.6 95.3 61.5 94.6 61.2 C 93.9 61.1 93.1 61.1 92.8 60.8 C 91.9 61.2 94.4 61.2 94.5 61.5 C 94.5 61.5 94.5 61.5 94.5 61.5 Z M 99.2 60.9 C 99.6 60.9 99.9 61.3 99.4 61.1 C 98.5 61.1 100.2 61.3 98.9 61.2 C 99.5 61.3 100.9 61.5 101.3 61.3 C 101.1 61.1 100.1 61.2 99.9 61.0 C 99.8 60.9 99.9 60.9 100.1 60.9 C 99.9 60.8 99.8 60.9 99.2 60.9 C 99.2 60.9 99.2 60.9 99.2 60.9 Z M 103.9 61.3 C 103.3 61.2 102.6 61.1 101.7 61.1 C 102.4 61.2 103.0 61.5 103.9 61.3 C 103.9 61.3 103.9 61.3 103.9 61.3 Z M 49.1 61.0 C 49.8 61.0 49.1 60.7 49.0 60.7 C 48.3 60.6 48.4 60.8 47.5 60.8 C 47.9 61.0 48.5 60.7 49.1 61.0 C 49.1 61.0 49.1 61.0 49.1 61.0 Z M 46.4 60.8 C 46.3 60.7 45.3 60.8 45.2 60.6 C 44.8 61.1 43.6 60.3 43.8 60.7 C 43.5 60.6 43.3 60.6 42.9 60.6 C 43.8 61.0 45.6 60.9 46.4 60.8 C 46.4 60.8 46.4 60.8 46.4 60.8 Z M 108.4 60.8 C 109.2 60.9 107.8 60.5 108.7 60.5 C 108.6 60.4 107.1 60.4 107.9 60.3 C 106.5 60.1 108.4 60.8 108.4 60.8 C 108.4 60.8 108.4 60.8 108.4 60.8 Z M 116.4 55.1 C 116.6 55.3 116.4 54.2 116.5 53.8 C 116.4 53.8 116.4 54.1 116.4 54.3 C 116.3 54.1 116.2 54.0 116.2 53.7 C 116.0 53.7 116.4 54.7 116.4 55.1 C 116.4 55.1 116.4 55.1 116.4 55.1 Z M 110.7 65.0 C 110.0 64.8 109.2 64.6 109.2 64.9 C 108.4 64.7 109.3 64.6 108.5 64.5 C 107.8 64.6 108.0 64.4 106.7 64.5 C 106.7 64.2 105.7 64.2 105.4 64.0 C 105.9 64.0 106.8 64.3 106.9 64.0 C 106.4 64.0 106.5 63.8 106.8 64.0 C 107.8 64.1 106.0 64.3 107.2 64.4 C 107.3 64.1 109.4 64.7 110.4 64.7 C 110.2 64.9 111.5 65.0 110.7 65.0 C 110.7 65.0 110.7 65.0 110.7 65.0 Z M 104.9 64.5 C 104.2 64.5 103.4 64.0 103.6 64.0 C 103.7 64.1 104.5 64.1 104.5 64.0 C 104.3 64.0 104.1 64.0 104.1 64.0 C 105.5 64.0 105.2 64.2 105.7 64.4 C 105.0 64.5 104.7 64.3 104.5 64.4 C 104.7 64.4 104.9 64.5 104.9 64.5 C 104.9 64.5 104.9 64.5 104.9 64.5 Z M 86.3 60.5 C 86.5 60.7 86.5 60.5 86.8 60.4 C 87.1 60.8 88.2 60.3 88.5 60.5 C 88.3 60.6 87.5 60.6 87.3 60.8 C 87.7 60.8 87.8 60.9 88.2 60.8 C 88.2 61.0 87.4 61.0 87.3 61.2 C 87.1 61.0 86.9 61.2 86.7 61.1 C 87.7 60.9 85.6 60.5 86.3 60.5 C 86.3 60.5 86.3 60.5 86.3 60.5 Z M 114.7 60.5 C 114.5 60.3 112.8 59.7 113.6 59.4 C 114.0 59.6 114.4 59.8 114.6 60.1 C 115.1 60.0 115.6 60.2 115.8 60.0 C 115.8 60.0 115.8 59.9 115.7 59.9 C 116.1 59.6 116.1 59.8 116.1 60.3 C 115.5 60.2 114.7 60.2 114.7 60.5 C 114.7 60.5 114.7 60.5 114.7 60.5 Z M 116.1 57.5 C 116.3 57.9 116.3 57.3 116.5 57.6 C 116.3 58.0 116.5 59.9 116.4 59.2 C 116.3 58.5 116.1 58.3 116.1 57.5 C 116.1 57.5 116.1 57.5 116.1 57.5 Z M 47.1 10.8 C 48.0 10.7 48.6 11.1 48.1 11.2 C 48.2 11.0 46.9 11.1 47.1 10.8 C 47.1 10.8 47.1 10.8 47.1 10.8 Z M 82.1 7.0 C 81.2 6.8 80.6 7.0 80.6 6.8 C 81.5 6.7 81.4 6.9 82.1 6.8 C 82.2 6.7 82.7 6.6 82.8 6.8 C 82.3 6.8 82.4 6.9 82.1 7.0 C 82.1 7.0 82.1 7.0 82.1 7.0 Z M 121.7 42.5 C 121.9 42.4 121.9 42.0 122.1 42.2 C 122.0 43.2 122.1 44.4 122.3 45.3 C 122.2 45.2 122.1 45.2 122.0 45.2 C 122.1 43.6 121.9 43.2 121.7 42.5 C 121.7 42.5 121.7 42.5 121.7 42.5 Z M 122.2 40.6 C 122.1 40.4 121.8 40.9 121.8 40.2 C 122.0 40.2 122.3 39.0 122.3 39.6 C 122.1 39.8 122.1 40.1 122.2 40.6 C 122.2 40.6 122.2 40.6 122.2 40.6 Z M 93.8 65.2 C 93.1 65.2 94.3 65.4 94.3 65.5 C 93.8 65.4 93.0 65.4 92.7 65.3 C 93.2 65.3 93.3 64.9 93.8 65.2 C 93.8 65.2 93.8 65.2 93.8 65.2 Z M 104.4 64.6 C 105.9 64.6 105.6 65.0 107.2 65.1 C 106.7 65.2 105.3 65.2 105.1 65.4 C 105.0 65.2 104.6 65.2 104.5 65.1 C 105.0 65.1 105.2 65.2 105.8 65.2 C 105.4 64.9 105.4 65.0 105.4 64.8 C 105.0 64.8 104.8 64.8 104.6 64.8 C 104.6 64.7 104.0 64.6 104.4 64.6 C 104.4 64.6 104.4 64.6 104.4 64.6 Z M 93.6 64.5 C 93.0 64.6 92.3 64.3 92.8 64.3 C 93.0 64.4 93.3 64.2 93.5 64.4 C 92.7 64.4 94.3 64.5 94.0 64.7 C 93.5 64.7 93.4 64.8 93.6 64.9 C 93.2 64.9 92.7 64.9 92.6 64.8 C 92.9 64.8 93.2 64.8 93.2 64.8 C 93.0 64.8 92.8 64.7 92.8 64.7 C 93.3 64.7 93.5 64.6 93.6 64.5 C 93.6 64.5 93.6 64.5 93.6 64.5 Z M 97.8 64.5 C 96.9 64.5 96.7 64.3 96.2 64.1 C 97.4 64.2 97.8 64.5 98.8 64.7 C 97.8 64.6 97.2 64.9 96.7 64.8 C 97.1 64.7 97.8 64.7 97.8 64.5 C 97.8 64.5 97.8 64.5 97.8 64.5 Z M 9.5 50.2 C 9.6 49.5 9.7 49.0 9.9 48.2 C 9.6 47.9 9.1 49.2 9.3 48.6 C 9.3 47.8 9.6 48.5 9.6 47.8 C 9.3 48.4 9.3 44.9 9.6 44.8 C 9.6 45.4 9.7 45.6 9.9 45.5 C 9.8 46.9 10.0 47.5 10.1 48.6 C 9.8 49.2 9.7 51.4 10.0 52.7 C 9.6 53.4 10.1 54.9 9.7 55.9 C 9.8 56.2 10.0 55.1 10.0 56.0 C 9.7 56.5 9.7 56.0 9.5 56.8 C 9.7 56.9 9.8 56.7 9.9 57.1 C 9.7 57.1 9.7 57.6 9.6 57.7 C 9.6 56.1 9.3 57.8 9.2 56.5 C 9.3 56.0 9.6 57.1 9.6 55.6 C 9.5 55.1 9.5 54.6 9.2 54.7 C 9.2 54.2 9.2 54.0 9.1 53.7 C 9.4 54.3 9.1 51.7 9.4 52.9 C 9.4 53.0 9.4 53.8 9.5 54.4 C 9.7 53.9 9.6 53.2 9.5 52.3 C 9.7 52.0 9.7 52.5 9.8 52.1 C 9.6 51.3 9.4 52.3 9.3 51.7 C 9.3 51.9 9.3 52.3 9.2 52.2 C 9.5 51.0 9.2 50.5 9.2 49.8 C 9.4 50.3 9.4 49.1 9.5 50.2 C 9.5 50.2 9.5 50.2 9.5 50.2 Z M 9.8 61.0 C 9.8 61.3 9.8 61.6 9.8 61.9 C 9.5 62.0 9.5 60.8 9.3 61.6 C 9.3 60.3 9.6 61.7 9.8 61.0 C 9.8 61.0 9.8 61.0 9.8 61.0 Z M 10.7 55.2 C 10.9 54.8 10.3 54.9 10.3 54.5 C 10.4 55.3 10.5 55.9 10.2 56.0 C 10.3 55.2 10.3 54.8 10.2 53.9 C 10.5 54.8 10.5 53.0 10.7 52.8 C 10.8 53.5 10.9 54.0 10.9 54.9 C 10.8 54.8 10.7 56.0 10.7 55.2 C 10.7 55.2 10.7 55.2 10.7 55.2 Z M 11.0 57.6 C 10.8 57.7 10.9 59.0 10.7 58.7 C 10.7 57.9 10.6 57.6 10.4 57.8 C 10.4 57.2 10.5 57.1 10.5 56.6 C 10.8 56.4 10.8 57.3 10.9 57.6 C 10.9 57.4 11.0 57.2 11.0 57.6 C 11.0 57.6 11.0 57.6 11.0 57.6 Z M 27.1 61.0 C 27.4 61.3 26.2 61.1 26.0 61.1 C 26.4 61.3 26.2 61.4 25.5 61.5 C 25.7 61.1 24.7 61.3 24.0 60.9 C 23.8 61.2 24.7 61.2 23.7 61.3 C 23.0 61.2 22.3 61.4 21.1 61.4 C 20.9 61.1 21.4 61.1 21.7 61.0 C 20.9 61.1 21.1 60.8 20.5 60.8 C 20.6 61.0 20.1 61.1 19.9 60.9 C 20.9 60.8 18.6 60.6 19.6 60.5 C 19.7 60.6 19.9 60.6 20.2 60.5 C 19.9 60.9 21.3 60.7 21.7 60.9 C 22.2 60.4 23.7 60.6 25.4 60.8 C 25.5 60.9 25.0 61.0 25.4 61.0 C 25.5 60.9 26.0 60.9 26.3 60.8 C 26.3 61.0 26.5 61.0 26.9 61.1 C 26.9 61.0 26.9 61.0 27.1 61.0 C 27.1 61.0 27.1 61.0 27.1 61.0 Z M 20.0 11.9 C 20.3 12.3 21.9 12.1 22.4 12.0 C 22.6 12.4 19.3 12.3 20.0 11.9 C 20.0 11.9 20.0 11.9 20.0 11.9 Z M 12.4 15.4 C 12.4 14.9 12.2 15.1 12.2 14.6 C 12.4 14.8 11.9 13.3 12.2 13.5 C 12.4 14.2 12.4 14.5 12.4 15.4 C 12.4 15.4 12.4 15.4 12.4 15.4 Z M 12.3 25.6 C 12.3 24.7 12.2 25.9 12.1 25.7 C 12.1 25.0 12.1 24.2 12.3 24.4 C 12.2 25.0 12.5 25.7 12.3 25.6 C 12.3 25.6 12.3 25.6 12.3 25.6 Z M 14.5 12.4 C 15.3 12.5 14.5 12.9 14.2 12.7 C 14.9 12.6 13.5 12.5 12.9 12.5 C 12.7 12.2 13.0 12.3 12.4 12.0 C 13.3 11.9 12.9 12.3 13.5 12.3 C 13.9 12.1 13.4 12.2 13.2 12.0 C 13.5 12.0 13.8 12.0 14.1 12.0 C 14.2 12.1 14.3 12.2 14.5 12.4 C 14.1 12.4 13.8 12.4 14.1 12.5 C 14.3 12.5 14.3 12.5 14.5 12.4 C 14.5 12.4 14.5 12.4 14.5 12.4 Z M 12.1 60.5 C 11.7 60.5 12.1 60.6 12.4 60.7 C 12.5 60.6 12.8 60.1 13.3 60.4 C 12.2 60.6 13.6 60.7 13.0 60.8 C 12.8 60.6 12.1 60.9 11.6 60.8 C 11.3 60.7 11.9 60.3 12.1 60.5 C 12.1 60.5 12.1 60.5 12.1 60.5 Z M 14.2 60.7 C 14.1 60.6 13.9 60.6 13.6 60.6 C 13.9 60.4 13.4 60.3 13.9 60.3 C 13.8 60.4 15.3 60.4 14.4 60.5 C 13.7 60.4 14.7 60.7 15.0 60.7 C 14.6 60.7 13.9 60.9 13.9 60.8 C 14.1 60.8 14.2 60.7 14.2 60.7 C 14.2 60.7 14.2 60.7 14.2 60.7 Z M 32.8 60.4 C 32.9 60.2 32.4 60.2 32.2 60.1 C 33.6 60.1 34.9 60.2 35.6 60.2 C 35.0 60.2 35.0 60.4 35.4 60.5 C 34.7 60.4 34.5 60.6 34.3 60.4 C 34.8 60.2 33.7 60.4 32.8 60.4 C 32.8 60.4 32.8 60.4 32.8 60.4 Z M 32.8 60.4 " fill="#FFE181"></path><g><clipPath id="clip-78"><path d="M 14.7 14.5 L 114.6 14.5 L 114.6 58.8 L 14.7 58.8 Z M 14.7 14.5 "></path></clipPath><g clip-path="url(#clip-78)"><path d="M 34.0 46.8 L 95.2 46.8 L 95.2 24.8 L 34.0 24.8 Z M 34.0 46.8 " fill="#000000" fill-opacity="0.00"></path><text xml:space="preserve" font-family="Monaco" font-size="17.0" fill="#34BC25" transform="matrix(1.00, 0.00, -0.00, -1.00, 34.0, 30.0)">S</text><text xml:space="preserve" font-family="Monaco" font-size="17.0" fill="#34BC25" transform="matrix(1.00, 0.00, -0.00, -1.00, 44.2, 30.0)">w</text><text xml:space="preserve" font-family="Monaco" font-size="17.0" fill="#34BC25" transform="matrix(1.00, 0.00, -0.00, -1.00, 54.4, 30.0)">e</text><text xml:space="preserve" font-family="Monaco" font-size="17.0" fill="#34BC25" transform="matrix(1.00, 0.00, -0.00, -1.00, 64.6, 30.0)">d</text><text xml:space="preserve" font-family="Monaco" font-size="17.0" fill="#34BC25" transform="matrix(1.00, 0.00, -0.00, -1.00, 74.8, 30.0)">e</text><text xml:space="preserve" font-family="Monaco" font-size="17.0" fill="#34BC25" transform="matrix(1.00, 0.00, -0.00, -1.00, 85.0, 30.0)">n</text></g></g></g></svg>