<?xml version="1.0" encoding="UTF-8" standalone="no"?><svg xmlns="http://www.w3.org/2000/svg" xmlns:xlink="http://www.w3.org/1999/xlink" clip-rule="evenodd" stroke-miterlimit="4.00" viewBox="0 0 310 124"><desc>SVG generated by Keynote</desc><defs></defs><g transform="matrix(1.00, 0.00, -0.00, -1.00, 0.0, 124.0)"><g><clipPath id="clip-864"><path d="M 260.4 101.9 C 318.6 79.9 318.6 44.3 260.4 22.4 C 202.2 0.4 107.8 0.4 49.6 22.4 C -8.6 44.3 -8.6 79.9 49.6 101.9 C 107.8 123.8 202.2 123.8 260.4 101.9 Z M 260.4 101.9 "></path></clipPath><g clip-path="url(#clip-864)"><image xlink:href="../../CEFA4209-80C9-472B-8D2B-058B96531B72/assets/59DBD66EA15A3D40E065F836EF2595FD.jpeg" width="400.00" height="400.00" transform="matrix(1.00, 0.00, -0.00, -1.00, 5.9, 118.3)"></image></g></g><path d="M 77.2 10.2 C 76.8 10.3 76.3 10.5 75.5 10.7 C 75.8 10.6 76.1 10.6 76.1 10.8 C 76.8 10.5 77.7 10.3 79.1 10.0 C 79.0 9.9 78.3 10.1 77.9 10.2 C 77.3 10.3 77.4 10.2 77.2 10.2 C 77.2 10.2 77.2 10.2 77.2 10.2 Z M 65.2 110.5 C 64.1 110.1 65.3 110.7 65.7 110.9 C 65.8 110.8 65.9 110.8 66.3 110.9 C 66.4 111.1 65.3 110.9 64.6 110.8 C 61.4 109.8 63.9 110.1 65.2 110.5 C 65.2 110.5 65.2 110.5 65.2 110.5 Z M 236.1 112.6 C 238.7 112.0 235.9 112.4 235.5 112.4 C 236.6 112.0 235.6 111.9 237.1 111.5 C 237.4 111.5 238.0 111.5 238.3 111.5 C 237.6 111.7 236.7 111.9 236.6 112.0 C 237.5 111.8 238.7 111.5 238.9 111.5 C 237.0 112.1 238.6 111.8 239.0 111.9 C 237.3 112.3 236.7 112.7 236.1 112.6 C 236.1 112.6 236.1 112.6 236.1 112.6 Z M 280.7 28.8 C 281.5 29.3 282.2 29.7 282.0 29.7 C 281.1 29.2 280.5 28.8 280.0 28.5 C 279.8 28.5 280.0 28.7 279.2 28.3 C 278.4 27.6 279.0 27.6 279.5 27.8 C 279.5 28.0 282.6 29.6 280.7 28.8 C 280.7 28.8 280.7 28.8 280.7 28.8 Z M 210.3 7.6 C 207.9 7.1 210.1 7.9 207.7 7.5 C 207.8 7.3 207.5 7.0 209.1 7.2 C 209.2 7.3 210.1 7.5 210.3 7.6 C 210.3 7.6 210.3 7.6 210.3 7.6 Z M 164.0 119.6 C 164.0 119.7 165.8 119.6 165.3 119.8 C 164.4 119.9 163.6 119.9 162.7 119.9 C 162.5 119.7 162.8 119.6 164.0 119.6 C 164.0 119.6 164.0 119.6 164.0 119.6 Z M 252.4 105.6 C 254.9 105.0 257.3 103.8 256.6 104.3 C 257.6 104.2 255.2 105.5 255.2 105.2 C 254.8 105.1 250.4 106.2 252.4 105.6 C 252.4 105.6 252.4 105.6 252.4 105.6 Z M 79.5 109.8 C 82.3 110.6 81.9 109.8 83.7 110.5 C 83.0 110.4 82.7 110.4 82.5 110.4 C 82.9 110.5 83.6 110.6 83.6 110.7 C 82.3 110.5 80.6 110.2 79.5 109.8 C 79.5 109.8 79.5 109.8 79.5 109.8 Z M 120.1 4.1 C 120.6 4.1 120.8 4.0 120.8 3.9 C 122.8 3.8 122.7 3.6 124.0 3.6 C 124.1 4.0 122.4 4.0 120.8 4.1 C 120.7 4.1 120.2 4.2 120.1 4.1 C 120.1 4.1 120.1 4.1 120.1 4.1 Z M 178.6 4.2 C 178.5 4.0 177.3 3.8 179.3 3.9 C 181.4 4.3 179.5 4.4 177.2 4.4 C 177.2 4.5 177.2 4.6 177.2 4.7 C 178.1 4.8 178.7 4.9 179.2 4.9 C 179.6 4.6 181.0 5.3 184.4 5.4 C 182.8 5.4 184.5 5.8 182.4 5.5 C 183.0 5.8 181.5 5.7 181.8 5.9 C 182.7 5.8 184.9 6.0 184.4 5.7 C 185.6 5.8 186.5 5.9 187.0 6.0 C 187.8 6.3 184.9 5.9 185.7 6.2 C 186.4 6.2 186.5 6.3 187.0 6.4 C 187.1 6.3 186.9 6.1 187.7 6.2 C 189.7 6.5 187.3 6.4 190.2 6.7 C 190.4 6.6 189.6 6.5 189.6 6.3 C 191.0 6.3 190.9 6.5 192.2 6.5 C 192.5 6.7 191.3 6.6 192.2 6.8 C 193.1 6.5 194.9 7.2 196.8 7.1 C 195.6 6.5 197.1 7.3 198.7 7.0 C 199.1 7.1 197.9 7.3 199.3 7.5 C 198.9 6.8 204.6 7.7 200.1 6.6 C 202.5 6.9 203.4 6.5 201.4 6.2 C 205.7 6.9 204.3 6.4 206.0 6.6 C 207.6 6.8 205.1 6.6 205.9 6.9 C 204.2 6.6 204.6 6.8 203.4 6.6 C 203.3 6.7 203.0 6.7 202.6 6.7 C 204.4 6.8 206.4 7.4 205.1 7.5 C 204.3 7.3 205.1 7.2 203.9 7.0 C 204.3 7.4 202.7 6.8 202.6 7.0 C 203.4 7.4 200.9 7.4 203.2 7.7 C 203.2 7.6 203.2 7.5 203.3 7.4 C 203.9 7.4 204.5 7.5 205.1 7.6 C 205.6 7.9 205.2 8.0 205.7 8.2 C 206.8 8.3 207.3 8.3 207.7 8.3 C 206.4 8.0 204.9 7.6 207.0 7.9 C 206.2 8.2 210.0 8.4 208.3 8.4 C 210.6 8.9 211.8 8.7 212.0 9.1 C 213.2 9.3 212.5 8.9 213.9 9.1 C 216.2 9.7 215.8 9.3 218.9 10.0 C 219.3 9.7 219.1 10.2 220.1 10.4 C 220.1 10.2 220.1 10.1 220.2 10.0 C 221.2 10.4 223.6 10.9 226.2 11.2 C 226.8 11.4 226.3 11.5 228.0 11.8 C 229.8 11.9 231.8 12.7 233.9 12.8 C 234.1 13.0 235.5 13.4 236.2 13.5 C 236.6 13.6 235.5 13.7 236.8 14.0 C 237.7 14.0 236.2 13.5 238.0 13.9 C 237.8 14.1 239.7 14.1 239.7 14.4 C 239.1 14.3 238.5 14.3 237.9 14.2 C 238.7 14.4 238.4 14.5 239.0 14.7 C 239.0 14.3 240.3 14.9 240.8 15.1 C 240.8 15.0 241.0 14.9 241.4 14.9 C 242.4 15.2 243.2 15.4 243.7 15.5 C 244.9 15.9 242.9 15.5 244.2 15.9 C 244.9 15.4 246.0 16.4 248.7 16.9 C 249.2 17.2 250.3 17.6 251.9 18.2 C 252.1 18.1 250.3 17.6 250.3 17.4 C 252.7 18.2 250.0 17.1 251.5 17.6 C 254.8 18.8 257.0 19.6 260.3 21.0 C 260.3 20.8 264.4 22.3 264.3 22.3 C 263.2 21.9 266.6 23.6 268.3 24.3 C 268.9 24.2 271.7 25.0 271.9 24.9 C 272.4 25.3 272.2 25.3 272.4 25.7 C 275.1 27.2 276.7 27.6 278.1 28.8 C 278.1 28.6 279.3 29.2 280.3 29.7 C 279.9 29.7 279.3 29.5 278.7 29.3 C 280.0 30.0 280.1 30.2 281.3 30.9 C 282.8 31.0 284.1 32.8 285.3 32.8 C 287.0 33.9 286.5 33.9 288.0 35.0 C 288.0 34.8 288.2 34.8 288.7 35.1 C 287.7 34.4 286.9 34.1 286.5 33.5 C 288.8 35.0 282.5 30.0 286.4 32.3 C 286.5 32.5 286.0 32.4 286.8 33.0 C 289.0 34.3 287.9 33.3 287.0 32.7 C 288.5 33.6 289.9 34.7 288.9 33.7 C 292.1 35.9 290.0 34.6 291.0 35.5 C 296.3 39.4 301.7 44.9 304.4 51.3 C 304.8 51.4 305.8 55.0 305.9 56.1 C 306.6 57.9 306.9 59.8 306.6 60.4 C 306.9 60.7 306.5 62.7 306.7 62.9 C 306.7 62.1 306.9 61.5 306.9 62.3 C 306.7 65.0 305.8 69.0 305.4 70.6 C 304.8 71.4 304.2 73.1 303.7 74.3 C 303.5 74.4 303.9 73.5 303.5 74.2 C 303.5 74.5 302.3 76.9 301.8 77.4 C 302.3 76.7 302.5 75.8 301.8 76.8 C 301.9 76.9 301.0 78.1 301.4 77.9 C 300.3 79.3 299.7 80.3 298.6 81.4 C 299.4 80.4 299.8 79.7 299.8 79.5 C 299.2 80.4 298.7 81.1 298.0 81.6 C 298.4 81.7 297.0 82.9 295.7 84.4 C 295.3 84.7 294.9 84.9 293.7 86.0 C 293.2 86.6 295.7 84.5 294.4 85.7 C 294.3 85.6 293.0 86.7 293.5 86.6 C 291.7 87.9 290.9 88.9 289.2 89.8 C 291.2 88.4 289.5 89.2 289.0 89.5 C 288.6 89.8 287.9 90.3 288.0 90.4 C 288.1 90.5 289.0 89.7 289.2 89.7 C 287.8 90.6 287.6 91.2 287.0 91.4 C 287.6 91.0 287.6 90.8 286.9 91.2 C 286.9 91.7 282.4 94.2 283.8 93.1 C 283.9 93.2 285.5 92.2 285.7 92.0 C 285.1 92.2 282.7 93.9 283.1 93.3 C 284.5 92.4 284.5 92.6 286.2 91.4 C 286.2 91.2 287.2 90.5 287.7 90.0 C 285.2 91.8 284.7 92.4 284.2 92.3 C 283.0 93.1 283.9 92.9 281.8 94.1 C 278.8 95.8 281.1 94.1 280.3 94.5 C 277.6 96.2 278.6 96.0 279.9 95.5 C 277.7 96.7 277.1 97.2 274.3 98.6 C 274.4 98.4 274.7 98.1 275.6 97.5 C 275.7 97.6 278.1 96.5 277.8 96.5 C 277.5 96.3 275.6 97.1 272.5 98.6 C 273.4 98.5 273.4 98.3 270.2 99.8 C 270.9 99.9 268.6 100.4 268.6 100.6 C 268.8 100.7 270.0 100.1 271.1 99.7 C 271.1 99.8 270.7 100.1 269.7 100.6 C 268.9 100.8 268.4 101.2 266.4 102.0 C 266.1 101.8 267.6 101.2 267.8 100.9 C 266.7 101.4 266.5 101.6 265.4 102.1 C 264.3 102.3 264.3 102.0 264.3 101.6 C 265.5 101.0 267.5 100.2 265.9 100.7 C 270.7 98.7 265.8 101.1 267.6 100.4 C 269.4 99.2 268.6 100.1 271.5 98.7 C 272.4 98.3 272.7 98.1 273.0 97.8 C 272.8 97.9 271.0 98.5 272.9 97.6 C 273.4 97.5 274.5 97.1 275.9 96.4 C 275.9 96.3 272.8 97.7 275.8 96.2 C 277.3 95.5 276.2 96.4 278.1 95.3 C 278.1 95.3 278.6 95.0 278.7 94.8 C 275.9 96.4 279.1 94.4 277.2 95.3 C 279.6 93.9 277.7 95.3 279.3 94.4 C 279.3 94.2 281.9 93.1 281.8 92.8 C 281.0 93.4 279.0 94.5 279.1 94.1 C 280.9 93.2 288.1 88.3 285.5 90.5 C 286.5 89.7 290.9 85.9 290.7 86.3 C 289.4 87.3 289.5 87.5 289.4 87.7 C 291.8 85.5 293.2 84.6 295.2 82.2 C 292.7 84.6 294.3 82.5 292.6 83.7 C 291.9 84.4 290.9 85.2 290.8 85.4 C 291.2 85.3 292.3 84.3 292.7 83.8 C 292.8 83.9 292.9 84.1 293.1 84.3 C 290.0 86.7 288.2 88.3 286.4 89.4 C 287.9 88.4 283.4 91.1 285.1 89.8 C 285.9 89.5 287.7 88.3 289.1 87.3 C 289.0 87.2 289.0 87.2 288.9 87.1 C 289.5 86.6 290.4 86.0 290.3 85.9 C 288.6 87.4 287.4 87.9 286.1 89.0 C 286.1 89.0 286.1 88.9 286.1 88.9 C 285.7 89.1 285.4 89.3 285.5 89.2 C 286.1 88.7 287.0 88.1 287.1 88.0 C 285.6 88.9 285.2 88.9 283.5 90.0 C 283.7 89.5 281.3 90.7 283.7 89.0 C 284.3 89.0 285.6 88.2 285.6 88.3 C 286.4 87.9 287.7 86.9 288.3 86.3 C 287.5 86.6 286.2 87.6 285.9 87.4 C 287.0 86.6 287.8 85.9 288.5 85.6 C 286.5 87.3 289.8 84.8 290.8 84.4 C 290.5 84.5 289.9 84.8 289.6 84.9 C 291.2 83.6 291.9 83.2 291.8 82.8 C 293.5 81.2 293.3 81.7 294.3 80.6 C 293.4 81.1 294.9 79.8 294.0 80.3 C 295.7 78.4 294.7 79.9 295.4 79.3 C 295.9 78.7 295.8 78.5 296.3 78.0 C 297.1 77.2 298.4 75.5 298.8 75.4 C 299.3 74.7 299.4 74.6 299.9 73.8 C 299.9 73.6 299.9 73.3 300.1 72.9 C 300.2 72.8 300.6 72.3 300.6 72.1 C 299.2 74.1 299.6 73.5 297.9 75.4 C 297.9 75.7 297.7 76.0 298.1 75.6 C 297.1 77.1 296.6 77.4 295.5 78.7 C 295.2 78.8 294.8 78.8 293.8 80.1 C 293.9 79.7 293.6 79.9 293.9 79.4 C 294.6 78.9 295.4 78.1 296.2 77.3 C 296.2 77.1 296.0 77.2 296.3 76.7 C 296.8 76.4 297.3 75.8 297.6 75.2 C 297.7 75.2 297.6 75.5 297.5 75.7 C 298.9 73.8 298.2 74.3 299.2 72.9 C 298.9 73.1 298.4 74.0 298.7 73.1 C 299.4 71.8 299.7 71.5 300.0 70.9 C 300.0 70.8 299.9 70.8 300.1 70.4 C 300.6 69.5 299.5 72.8 300.6 71.2 C 300.4 70.9 301.2 69.3 301.4 69.1 C 301.4 69.7 300.8 70.6 300.9 70.8 C 302.2 67.7 301.5 70.8 302.5 67.7 C 302.4 67.6 302.3 67.6 302.2 67.6 C 301.9 68.9 301.6 68.8 301.4 68.7 C 301.0 69.8 300.6 70.1 300.3 71.0 C 300.1 70.5 300.7 70.1 301.1 69.0 C 300.9 69.0 300.5 70.0 300.2 70.0 C 301.5 67.6 301.3 67.0 301.9 64.7 C 301.6 65.2 302.0 63.3 301.8 63.5 C 301.7 65.5 301.1 64.6 300.9 64.9 C 300.8 66.2 301.3 65.7 301.3 66.5 C 300.9 66.8 300.9 66.6 300.6 66.4 C 300.9 65.2 300.8 65.4 300.8 64.5 C 301.1 63.7 301.7 63.1 301.7 64.2 C 301.7 64.0 301.6 62.4 301.8 62.3 C 301.8 63.8 301.9 62.1 302.0 63.1 C 302.2 61.9 301.8 59.8 301.8 58.4 C 301.6 58.5 301.5 58.0 301.4 58.1 C 301.9 59.4 301.4 59.8 301.5 61.2 C 301.4 60.6 301.3 60.9 301.2 61.2 C 301.3 59.9 300.9 59.2 301.0 58.2 C 300.9 58.2 300.8 58.2 300.7 58.2 C 300.6 56.6 300.5 56.8 299.9 55.6 C 299.9 55.1 300.5 55.6 300.8 55.7 C 300.5 55.1 299.6 52.9 299.9 54.3 C 299.4 53.0 299.8 53.2 299.1 51.8 C 298.9 51.9 299.5 53.1 299.0 52.8 C 298.3 51.6 299.0 52.2 298.2 51.3 C 298.4 51.1 298.6 51.0 297.9 49.9 C 298.2 50.8 297.7 49.9 297.4 49.7 C 297.7 50.2 297.9 50.6 298.0 50.9 C 296.9 49.0 296.6 48.6 295.3 47.1 C 295.9 47.5 295.3 46.5 296.2 47.5 C 295.3 46.6 294.5 45.2 293.9 44.8 C 294.4 45.5 295.2 46.4 295.4 46.9 C 292.8 43.9 290.9 42.5 287.8 39.6 C 288.3 40.0 289.1 40.7 289.2 40.7 C 288.9 40.4 288.3 39.9 288.3 39.8 C 289.5 40.8 290.5 41.7 291.1 42.1 C 292.0 43.0 290.5 41.8 291.4 42.7 C 291.6 42.7 293.2 44.4 292.8 43.6 C 291.2 42.3 289.7 40.7 289.1 39.8 C 287.2 38.8 288.8 40.0 286.7 38.9 C 286.8 38.9 286.4 38.5 285.8 38.0 C 286.2 38.7 283.8 36.8 283.5 36.6 C 284.6 37.2 288.2 39.5 286.6 38.0 C 287.0 39.1 282.4 35.0 283.2 36.0 C 280.7 34.5 281.8 34.7 280.2 34.1 C 280.2 34.0 280.4 34.0 279.7 33.6 C 279.0 33.2 278.7 33.1 278.3 33.0 C 282.1 35.2 280.8 34.9 282.9 36.3 C 282.6 36.1 282.2 35.9 282.3 36.0 C 282.3 36.1 282.2 36.1 281.7 35.7 C 281.7 35.3 279.8 34.6 279.4 34.1 C 280.1 34.5 280.8 35.0 280.6 34.7 C 277.6 32.9 278.4 33.0 273.7 30.4 C 275.1 31.3 273.2 30.3 271.5 29.5 C 269.1 28.4 270.2 28.4 267.1 27.1 C 267.1 27.5 266.3 27.1 264.9 26.5 C 264.3 26.2 263.5 25.8 262.6 25.4 C 261.7 25.1 260.2 24.6 259.6 24.4 C 260.0 24.2 256.8 23.0 256.1 23.0 C 256.0 22.8 254.9 22.5 254.1 22.2 C 253.9 22.0 254.9 22.3 254.1 22.0 C 253.4 21.8 254.0 22.2 253.0 21.9 C 251.9 21.5 252.2 21.3 250.5 20.8 C 250.4 21.0 251.3 21.2 250.4 21.1 C 248.9 20.5 247.6 20.1 248.7 20.7 C 246.5 20.1 247.7 20.0 245.6 19.4 C 246.2 19.6 246.1 19.7 245.0 19.4 C 244.2 19.0 244.2 18.9 244.0 18.7 C 243.3 18.7 243.5 18.8 241.7 18.3 C 241.7 18.4 241.6 18.5 241.6 18.6 C 240.8 18.3 239.6 18.1 239.4 17.9 C 240.9 18.3 240.5 18.0 241.2 18.1 C 239.6 17.7 236.7 16.6 238.9 17.5 C 236.7 17.1 237.9 17.0 236.1 16.6 C 237.1 17.2 236.2 16.7 234.4 16.3 C 234.5 16.7 233.2 16.1 232.0 15.8 C 232.2 16.0 231.8 16.1 230.8 15.9 C 230.9 15.8 230.2 15.6 229.1 15.3 C 229.1 15.5 231.5 16.1 229.0 15.6 C 227.9 15.2 228.0 14.9 226.1 14.5 C 225.8 14.2 227.8 14.7 227.4 14.4 C 225.9 14.3 225.4 14.0 223.2 13.6 C 224.0 14.2 218.7 13.3 221.3 14.0 C 220.5 13.8 219.4 14.0 218.8 13.6 C 219.7 13.7 218.2 13.3 218.3 13.2 C 217.2 13.1 214.7 12.5 214.6 12.7 C 217.0 13.0 216.9 13.2 217.6 13.5 C 214.2 13.0 211.2 12.5 211.5 12.2 C 211.5 12.3 211.0 12.3 210.9 12.3 C 212.1 12.5 212.8 13.0 211.4 12.8 C 211.8 12.6 210.7 12.4 209.7 12.1 C 209.6 12.3 205.1 11.4 205.9 11.8 C 207.7 11.9 209.1 12.5 207.7 12.4 C 206.6 12.0 204.1 11.5 204.7 11.4 C 204.0 11.4 203.4 11.4 202.7 11.4 C 202.2 11.6 203.6 11.7 203.3 11.9 C 202.4 11.7 201.0 11.6 200.8 11.5 C 203.3 11.8 199.5 11.2 202.1 11.3 C 200.5 11.1 200.2 11.0 198.9 10.8 C 198.9 10.9 198.4 10.8 198.3 10.9 C 199.4 10.8 200.5 11.1 200.2 11.3 C 197.9 11.1 198.3 10.9 196.4 10.6 C 195.8 10.8 193.1 10.8 191.8 10.5 C 194.4 10.8 191.7 10.4 193.2 10.4 C 195.5 10.8 196.1 10.6 197.0 10.5 C 196.0 10.2 194.1 9.9 193.8 10.2 C 195.1 10.4 195.1 10.2 195.8 10.3 C 195.7 10.4 195.3 10.5 194.4 10.4 C 193.4 10.2 191.0 10.1 192.6 9.9 C 191.0 9.9 189.2 9.5 187.4 9.5 C 189.3 9.7 190.7 10.0 191.2 10.2 C 189.7 10.2 188.1 9.7 188.0 9.9 C 188.2 10.1 190.7 10.3 191.2 10.5 C 189.2 10.6 186.2 9.6 188.6 10.4 C 187.5 10.2 185.9 10.1 185.4 9.9 C 186.8 10.0 185.3 9.6 184.8 9.5 C 183.6 9.4 182.6 9.4 182.2 9.5 C 184.0 9.5 185.4 9.9 184.1 9.8 C 183.8 9.7 183.4 9.8 182.8 9.8 C 182.7 9.7 180.6 9.6 180.3 9.5 C 180.4 9.6 181.3 9.7 181.5 9.8 C 180.3 9.8 178.5 10.0 177.6 9.7 C 178.4 9.7 179.5 9.8 179.5 9.7 C 176.2 9.1 175.1 8.8 171.1 8.4 C 171.6 8.4 171.9 8.4 171.7 8.3 C 169.2 8.2 167.5 8.0 167.8 7.8 C 166.2 7.8 165.4 8.0 164.6 8.1 C 166.2 8.2 166.8 8.0 167.8 8.2 C 167.2 8.3 169.1 8.8 169.8 9.0 C 172.6 8.8 172.8 9.2 175.7 9.2 C 174.8 9.4 177.8 9.4 176.9 9.6 C 174.3 9.1 171.7 9.2 167.8 9.0 C 168.3 8.8 168.8 8.6 167.2 8.5 C 164.7 8.3 165.9 8.6 163.8 8.5 C 163.0 8.3 164.2 8.3 163.2 8.2 C 162.5 8.3 160.6 8.2 159.9 8.0 C 162.6 8.1 159.4 7.8 161.2 7.7 C 160.3 7.7 159.8 7.6 159.2 7.6 C 161.9 7.9 156.6 7.9 158.6 8.1 C 154.9 8.2 158.3 7.5 155.3 7.6 C 156.8 7.7 154.9 7.8 152.7 7.8 C 152.1 7.5 149.8 7.5 148.0 7.5 C 149.0 7.6 149.7 7.6 148.0 7.8 C 148.9 7.9 150.5 7.8 151.3 7.7 C 151.3 7.8 151.6 7.9 152.0 8.0 C 149.8 8.0 150.7 8.1 150.0 8.2 C 149.4 8.1 147.8 8.2 147.4 8.0 C 147.4 8.1 146.8 8.1 146.7 8.2 C 149.5 8.2 146.3 8.5 148.0 8.6 C 149.3 8.5 148.5 8.3 150.0 8.3 C 151.5 8.6 148.8 8.6 148.0 8.9 C 149.3 9.1 150.9 8.7 151.3 9.0 C 149.7 9.3 147.0 9.2 144.8 9.1 C 144.9 9.5 141.1 9.2 140.8 9.6 C 140.5 9.5 140.1 9.4 139.5 9.4 C 138.9 9.7 138.2 9.3 137.6 9.4 C 137.5 9.5 137.7 9.6 138.2 9.7 C 135.5 9.7 134.9 9.7 131.7 10.0 C 131.2 9.9 130.6 9.8 130.4 9.6 C 131.1 9.5 131.8 9.4 132.3 9.3 C 128.0 9.6 130.8 10.1 127.8 9.9 C 127.9 10.0 130.0 10.1 128.4 10.3 C 125.7 10.2 121.9 10.8 121.9 10.1 C 119.5 10.1 117.9 10.7 116.8 10.5 C 116.0 10.6 115.8 10.7 115.5 10.8 C 116.3 10.8 117.2 10.9 118.1 10.9 C 119.5 10.7 120.2 10.8 118.8 10.6 C 120.9 10.4 121.5 10.5 122.6 10.5 C 119.7 10.9 117.0 11.0 116.9 11.4 C 115.9 11.3 115.1 11.2 114.3 11.1 C 114.0 11.4 110.7 11.8 110.4 11.6 C 112.7 11.4 114.9 10.8 112.9 10.9 C 107.5 11.7 104.4 11.6 99.8 12.6 C 99.6 12.5 99.9 12.3 99.1 12.4 C 99.1 12.5 99.0 12.7 98.5 12.8 C 97.0 13.0 96.2 13.0 94.2 13.4 C 94.3 13.2 94.0 13.1 92.9 13.2 C 92.3 13.5 90.5 14.3 89.3 14.5 C 90.5 14.2 88.9 14.2 88.1 14.4 C 88.9 14.6 82.7 15.2 84.5 15.2 C 82.1 15.7 81.0 15.8 80.9 15.7 C 80.1 15.9 79.5 16.1 78.6 16.3 C 78.1 16.1 74.0 17.3 73.4 17.3 C 74.8 17.1 75.0 16.7 73.9 17.0 C 73.2 17.3 69.6 18.5 68.9 18.6 C 69.1 18.4 69.3 18.1 71.1 17.6 C 68.1 18.3 68.2 18.7 67.3 19.2 C 67.3 18.8 66.1 19.5 65.6 19.7 C 64.7 19.8 65.7 19.6 65.6 19.4 C 64.5 19.6 64.1 19.6 62.8 20.0 C 63.2 20.1 61.7 20.5 61.2 20.6 C 61.0 20.8 60.3 21.1 59.1 21.5 C 60.6 20.6 52.4 23.4 54.4 23.0 C 52.9 23.7 52.7 23.3 50.8 24.0 C 50.4 24.3 49.3 24.7 50.4 24.4 C 49.6 24.8 48.8 25.0 48.4 25.1 C 48.0 25.2 47.6 25.3 46.1 26.0 C 47.5 25.7 43.0 27.2 43.8 27.2 C 42.4 27.4 40.2 29.0 37.7 29.8 C 37.8 29.8 37.1 30.2 37.0 30.3 C 36.7 30.6 39.9 29.1 37.9 30.1 C 35.4 31.2 36.7 30.4 36.3 30.5 C 29.9 33.8 23.5 37.9 19.2 41.6 C 19.7 41.3 19.7 41.4 18.9 42.2 C 17.4 42.9 13.5 47.6 13.1 48.4 C 12.6 48.6 11.3 51.1 11.0 51.4 C 11.2 51.0 11.6 49.9 11.0 50.9 C 10.9 51.7 10.3 52.4 10.0 53.4 C 9.5 53.7 8.8 56.7 8.8 55.2 C 8.6 55.7 8.5 56.0 8.3 56.3 C 8.6 56.5 8.4 57.0 8.8 56.1 C 7.8 58.6 8.1 59.2 7.7 61.2 C 7.9 61.5 8.1 60.0 8.1 61.2 C 8.0 61.2 8.0 61.2 7.9 61.2 C 7.9 61.6 8.0 61.8 7.9 61.9 C 7.8 61.9 7.8 61.2 7.5 61.2 C 7.6 62.1 7.3 62.8 7.5 63.1 C 7.5 61.8 8.0 62.7 7.8 63.5 C 7.6 62.8 8.2 66.6 8.7 67.8 C 8.6 68.5 8.3 66.5 8.2 66.7 C 8.8 69.0 8.7 68.8 9.1 69.0 C 9.5 70.2 9.5 70.8 10.4 72.2 C 10.8 73.1 10.0 71.8 10.4 72.7 C 10.8 73.2 11.0 73.3 11.5 74.1 C 12.4 76.5 17.4 81.0 19.7 83.9 C 18.7 82.8 20.2 84.0 21.8 85.2 C 21.8 85.4 21.5 85.3 22.1 85.8 C 22.1 85.6 22.7 85.9 23.8 86.8 C 23.9 86.9 23.6 86.9 24.2 87.3 C 24.9 87.4 26.2 88.6 27.1 89.1 C 27.4 89.6 25.0 87.8 24.7 87.9 C 27.4 90.0 28.2 90.1 30.6 91.6 C 29.3 90.9 31.4 92.3 31.8 92.6 C 31.3 92.0 33.4 93.1 32.0 92.1 C 33.0 92.7 34.5 93.4 34.7 93.6 C 34.1 93.4 33.3 92.9 33.2 93.0 C 34.5 93.6 36.0 94.7 36.8 94.8 C 35.9 94.3 35.4 94.0 35.4 93.9 C 35.8 93.9 36.2 94.1 37.0 94.4 C 34.7 93.9 40.8 96.6 41.3 96.6 C 41.7 97.2 42.1 97.4 41.8 97.4 C 44.5 98.7 44.3 98.2 46.0 98.9 C 45.4 98.9 44.7 98.9 47.4 100.1 C 46.9 99.6 50.2 100.9 49.3 100.2 C 51.1 100.8 51.5 101.0 52.2 101.3 C 53.0 101.6 53.5 101.8 54.1 102.0 C 55.1 102.5 56.0 102.9 57.3 103.3 C 57.4 103.2 56.6 102.9 57.3 103.1 C 58.5 103.6 59.6 104.0 60.4 104.4 C 61.1 104.5 60.2 104.1 61.0 104.3 C 63.0 105.1 62.4 105.3 64.1 106.0 C 66.4 106.4 65.5 106.3 66.9 106.5 C 66.4 106.3 65.6 105.9 66.5 106.1 C 67.7 106.7 68.2 107.2 68.5 107.3 C 67.5 107.0 66.8 106.8 66.3 106.6 C 66.0 106.7 64.6 106.3 65.7 106.8 C 64.3 106.3 62.8 105.8 60.7 105.2 C 61.4 105.7 59.0 104.7 59.6 105.2 C 61.8 105.8 62.3 106.2 64.5 106.7 C 64.1 106.3 66.3 107.1 66.7 107.3 C 66.8 107.1 68.3 107.6 67.9 107.3 C 69.7 107.7 69.6 107.9 71.3 108.3 C 71.4 108.4 71.1 108.5 71.8 108.6 C 72.5 108.5 72.9 109.0 73.5 109.2 C 73.2 108.8 75.7 109.6 75.9 109.4 C 75.2 109.2 74.2 109.0 74.2 108.9 C 77.0 109.6 74.8 108.8 74.3 108.5 C 74.3 108.7 73.3 108.7 73.1 108.5 C 75.5 108.9 69.9 107.2 72.0 107.9 C 73.7 108.4 73.7 108.2 75.5 108.7 C 77.5 109.6 74.9 109.2 77.0 110.1 C 78.3 110.2 79.3 110.4 79.4 110.2 C 79.7 110.4 80.0 110.5 80.5 110.7 C 81.1 110.7 78.9 110.1 80.6 110.4 C 81.5 110.7 80.4 110.8 82.3 111.1 C 83.2 111.1 80.1 110.4 81.8 110.7 C 83.6 111.4 81.4 110.5 83.6 110.9 C 83.7 111.0 84.1 111.1 84.8 111.2 C 84.9 111.3 84.5 111.5 85.3 111.6 C 85.8 111.3 86.1 112.0 87.7 112.2 C 88.6 112.0 86.1 111.7 86.6 111.6 C 88.4 112.2 89.5 112.1 90.2 112.2 C 88.7 112.2 92.5 112.8 92.6 113.1 C 92.2 112.7 93.0 113.0 95.2 113.1 C 95.2 113.6 97.7 113.6 98.2 114.1 C 98.5 114.0 99.1 114.0 99.4 113.9 C 98.7 113.8 98.0 113.7 98.2 113.6 C 98.9 113.7 99.5 113.8 100.1 113.9 C 101.1 114.2 98.4 114.3 102.5 114.9 C 102.1 114.5 103.9 114.7 105.1 114.7 C 105.0 114.4 103.4 114.5 103.3 114.3 C 104.7 114.3 106.1 114.8 107.0 115.0 C 109.5 115.2 112.4 115.7 116.0 115.9 C 116.8 116.2 112.9 115.8 115.3 116.2 C 116.3 116.3 115.8 116.0 117.2 116.2 C 115.9 117.2 127.0 117.3 127.6 117.7 C 128.1 117.6 131.2 117.9 130.9 117.6 C 128.8 117.7 127.3 117.2 126.3 117.0 C 124.3 117.0 128.1 117.4 126.3 117.3 C 126.1 117.2 123.4 117.1 123.7 116.9 C 126.5 117.1 122.3 116.5 124.4 116.5 C 127.0 116.7 132.2 116.8 130.9 117.0 C 131.0 116.9 129.8 116.8 129.7 116.9 C 132.6 117.2 134.3 117.1 135.6 117.0 C 136.9 117.3 142.2 117.1 140.8 117.2 C 141.3 117.5 137.7 117.1 138.2 117.3 C 143.7 117.6 143.8 117.4 147.4 117.7 C 146.2 117.3 151.2 117.3 150.8 117.4 C 150.8 117.6 151.9 117.8 154.1 117.6 C 153.7 117.8 154.9 117.9 156.1 118.0 C 156.6 117.7 155.1 117.8 155.3 117.6 C 156.4 117.6 157.6 117.6 158.7 117.6 C 158.8 117.7 158.6 117.8 159.3 117.8 C 160.6 117.6 165.0 117.3 164.6 117.5 C 162.8 117.8 167.7 117.7 164.6 117.9 C 165.5 117.9 165.6 118.0 166.6 118.0 C 166.6 117.9 166.6 117.7 166.6 117.6 C 169.1 117.5 167.9 118.0 169.9 117.9 C 170.1 117.8 171.0 117.8 171.3 117.6 C 170.4 117.7 170.4 117.8 169.3 117.8 C 170.5 117.4 167.1 117.7 167.3 117.4 C 169.6 117.3 169.6 117.5 170.6 117.6 C 173.5 117.3 172.1 117.5 175.2 117.4 C 175.2 117.3 174.4 117.3 174.5 117.2 C 178.3 117.1 177.9 117.6 180.5 117.2 C 179.9 117.3 177.6 117.6 179.2 117.6 C 180.9 117.3 181.4 117.0 183.7 116.8 C 183.8 116.9 183.6 117.1 184.4 117.0 C 185.4 116.9 185.4 116.7 186.3 116.5 C 186.5 116.6 187.7 116.4 188.3 116.3 C 189.1 116.5 188.0 116.6 189.0 116.6 C 190.9 116.4 191.8 115.8 193.4 115.7 C 193.4 116.0 195.1 115.7 196.7 115.5 C 197.0 115.8 200.3 115.3 202.4 115.1 C 201.9 115.0 204.2 114.8 203.6 114.6 C 202.6 114.7 202.0 114.7 201.8 114.7 C 204.2 114.3 205.0 114.7 206.8 114.1 C 207.8 114.1 208.9 114.1 210.6 113.9 C 210.8 113.8 207.6 114.1 209.3 113.8 C 209.5 113.9 210.0 113.7 210.5 113.6 C 210.3 113.9 211.7 113.8 212.5 113.8 C 213.9 113.4 217.0 113.2 215.6 113.1 C 217.8 112.7 216.4 113.4 218.1 113.1 C 217.2 112.9 220.2 112.4 218.6 112.4 C 221.0 112.0 220.8 112.4 219.9 112.7 C 222.1 112.4 222.5 112.1 223.6 112.0 C 222.5 112.0 225.7 111.2 224.1 111.7 C 223.6 112.0 226.1 111.4 226.6 111.4 C 225.8 111.4 226.9 111.2 225.3 111.3 C 226.9 110.9 229.2 110.4 230.7 110.4 C 232.6 109.8 234.4 109.3 233.6 109.8 C 235.4 109.3 234.8 109.5 236.6 109.1 C 236.6 109.0 236.0 109.1 235.9 109.1 C 238.4 108.4 237.9 108.7 241.1 107.9 C 240.8 108.3 242.9 107.7 243.5 107.7 C 242.2 108.1 241.1 108.3 240.1 108.5 C 239.9 108.7 240.9 108.5 240.1 108.7 C 240.0 108.7 239.5 108.8 239.0 108.9 C 241.1 108.6 236.4 110.0 237.8 109.3 C 237.8 109.4 238.0 109.4 238.4 109.3 C 238.0 109.1 238.0 109.2 238.3 108.9 C 237.3 109.2 236.3 109.1 236.0 109.4 C 236.1 109.5 237.1 109.3 237.2 109.3 C 234.6 110.1 236.4 109.2 234.3 109.8 C 233.9 110.2 235.0 110.0 235.5 110.0 C 233.6 110.5 232.0 110.8 231.4 110.8 C 229.6 111.3 231.6 110.9 230.3 111.3 C 229.7 111.4 229.7 111.2 228.5 111.4 C 227.1 111.8 229.3 111.5 227.9 111.8 C 226.4 111.9 228.8 111.2 226.6 111.6 C 227.2 111.9 224.6 112.0 224.8 112.2 C 226.1 111.9 226.2 112.2 225.5 112.1 C 222.5 112.4 220.6 113.7 217.6 113.6 C 217.6 113.7 217.1 113.8 217.0 113.9 C 219.2 113.7 222.5 113.1 223.2 113.3 C 224.9 112.9 224.6 112.7 224.9 112.6 C 227.0 112.4 226.9 112.5 225.7 113.1 C 222.2 113.9 220.7 114.0 218.4 114.3 C 217.1 114.7 218.5 114.4 219.0 114.4 C 211.7 115.4 217.3 115.2 214.7 115.6 C 214.8 115.4 214.2 115.4 213.5 115.5 C 213.5 115.6 212.4 115.8 212.2 115.9 C 212.7 115.8 212.9 115.8 212.8 115.9 C 211.0 116.3 211.7 115.9 211.6 115.8 C 213.0 115.6 213.9 115.4 214.0 115.3 C 212.2 115.7 210.8 115.7 209.7 116.1 C 207.9 116.0 210.5 115.3 209.5 115.1 C 209.8 114.9 208.5 115.9 207.1 116.2 C 204.8 116.5 204.8 116.8 202.7 117.1 C 202.1 116.9 204.8 116.7 204.6 116.5 C 203.9 116.6 203.8 116.5 203.3 116.6 C 201.8 116.8 201.9 117.0 200.7 117.2 C 200.1 117.0 199.7 117.2 198.9 117.4 C 197.4 117.5 199.7 117.1 198.1 117.3 C 196.6 117.4 195.5 117.8 195.0 117.9 C 194.8 117.8 195.1 117.6 194.3 117.7 C 192.5 118.0 192.1 118.1 194.3 118.0 C 192.3 118.2 191.4 118.4 191.8 118.6 C 194.8 118.3 195.6 118.2 197.0 118.4 C 197.5 118.0 198.4 118.1 199.6 118.1 C 198.8 117.7 200.9 117.9 201.5 117.6 C 200.7 117.7 200.0 117.7 199.5 117.7 C 202.7 117.3 202.7 117.4 205.2 116.6 C 205.2 116.8 205.6 116.8 205.9 116.8 C 205.1 117.0 202.8 117.2 202.7 117.5 C 204.6 117.5 205.1 117.0 207.2 117.0 C 208.1 116.7 205.5 117.0 207.2 116.7 C 208.0 116.7 209.1 116.7 210.4 116.6 C 211.7 116.4 212.4 116.2 213.5 115.9 C 213.6 116.0 213.7 116.1 214.8 115.9 C 214.7 115.8 213.6 115.9 214.7 115.6 C 218.1 115.4 220.3 115.2 223.5 114.5 C 222.3 114.6 219.7 114.8 221.0 114.6 C 222.4 114.5 224.3 113.8 225.8 113.8 C 226.3 113.8 224.0 114.0 224.7 114.3 C 226.1 114.0 227.0 113.9 227.7 113.8 C 227.6 113.6 229.3 113.3 228.8 113.2 C 227.7 113.4 227.4 113.8 227.1 113.8 C 227.9 112.9 231.5 113.0 233.7 112.6 C 235.1 112.1 232.5 112.6 234.2 112.1 C 235.2 111.8 235.9 112.2 234.3 112.7 C 233.2 112.8 232.8 113.2 232.5 113.0 C 232.0 113.1 231.3 113.3 231.4 113.3 C 232.2 113.2 232.0 113.4 232.6 113.3 C 231.4 113.5 231.3 114.0 230.2 114.0 C 230.9 113.8 231.1 113.7 231.4 113.6 C 228.2 114.4 227.2 114.3 225.3 114.6 C 226.4 114.6 225.3 114.7 225.4 114.9 C 226.8 114.6 229.5 114.2 227.8 114.6 C 226.7 114.5 226.0 115.4 224.9 115.4 C 225.7 115.2 225.5 115.0 226.0 114.9 C 224.7 115.1 224.8 114.9 223.5 115.1 C 219.6 116.3 216.4 116.2 209.9 117.7 C 207.6 118.0 212.0 117.3 211.8 117.1 C 211.1 117.2 211.0 117.1 210.5 117.2 C 210.4 117.5 209.3 117.4 208.6 117.7 C 208.7 117.4 205.6 118.1 204.1 118.1 C 204.0 118.2 204.2 118.3 203.5 118.4 C 198.8 118.7 190.2 120.0 186.6 120.0 C 186.7 120.2 185.1 120.3 184.7 120.5 C 182.4 120.6 183.4 120.3 180.0 120.8 C 178.4 120.9 180.3 120.6 180.7 120.5 C 175.6 121.0 171.2 120.9 168.0 121.3 C 166.4 121.4 168.0 121.1 164.7 121.1 C 164.7 121.5 159.4 121.1 158.7 121.5 C 156.7 121.6 153.1 121.1 154.7 121.4 C 152.0 121.4 153.8 121.1 152.7 121.1 C 150.8 121.1 153.3 121.7 151.4 121.7 C 151.6 121.5 149.9 121.5 148.7 121.3 C 150.2 121.3 151.2 121.3 151.4 121.2 C 150.1 121.3 150.1 121.1 148.1 121.1 C 146.5 121.2 142.0 121.3 140.7 120.9 C 140.6 121.0 141.0 121.1 141.3 121.2 C 140.0 121.2 138.5 120.8 138.7 121.2 C 135.7 121.1 134.4 120.7 132.7 120.9 C 131.4 120.9 133.2 120.7 129.4 120.4 C 129.3 120.7 122.6 120.1 120.8 119.8 C 120.8 120.1 120.4 119.8 119.6 119.7 C 119.4 119.8 119.6 119.9 118.8 119.8 C 118.7 119.7 118.2 119.7 117.6 119.7 C 118.1 119.4 115.2 119.6 115.0 119.3 C 115.6 119.3 115.6 119.1 115.0 119.1 C 114.8 119.3 112.1 118.6 112.4 118.9 C 113.0 119.0 114.8 119.1 114.3 119.3 C 111.7 119.1 112.8 118.9 111.1 118.7 C 111.2 118.8 112.2 119.0 111.1 119.0 C 109.3 118.7 110.9 118.9 109.8 118.6 C 108.9 118.5 107.2 118.5 106.5 118.4 C 106.7 118.4 106.2 118.2 105.9 118.2 C 102.7 117.6 95.2 116.8 92.1 115.9 C 91.9 116.0 91.2 115.9 91.4 116.1 C 89.6 115.6 89.7 115.7 87.8 115.3 C 87.8 115.4 87.7 115.5 87.7 115.6 C 85.3 115.3 87.6 115.2 85.9 114.9 C 85.7 115.4 85.0 114.6 83.5 114.3 C 83.3 114.4 82.6 114.3 82.8 114.5 C 80.5 114.0 80.7 113.6 78.7 113.3 C 79.2 113.5 79.4 114.3 79.1 114.5 C 78.8 114.3 78.2 114.1 77.3 113.9 C 78.4 113.8 78.0 112.8 75.2 112.4 C 76.7 112.8 77.3 113.0 76.9 113.1 C 74.8 112.6 74.1 112.3 72.2 111.8 C 71.9 112.0 73.2 112.3 72.7 112.5 C 72.2 112.4 72.0 112.4 72.1 112.5 C 70.1 112.0 70.1 111.8 68.0 111.4 C 68.1 111.2 68.5 111.3 69.2 111.6 C 69.2 111.4 69.2 111.2 70.5 111.5 C 70.6 111.7 69.8 111.8 71.6 112.1 C 71.6 112.0 71.6 111.9 71.7 111.8 C 70.4 111.4 67.4 110.4 67.1 110.5 C 67.7 110.7 68.7 111.1 68.1 111.2 C 65.9 110.5 65.4 110.1 63.7 109.4 C 60.6 108.6 55.4 106.9 55.9 107.5 C 54.2 106.8 54.8 107.0 53.2 106.4 C 53.6 106.8 51.5 105.9 51.5 106.1 C 53.5 106.7 52.9 106.6 54.8 107.2 C 54.7 107.3 54.3 107.3 53.6 107.1 C 53.5 106.9 52.8 106.6 51.5 106.2 C 51.7 106.3 52.7 107.0 51.4 106.5 C 51.3 106.4 51.0 106.3 50.4 106.1 C 50.5 105.9 50.5 105.8 50.5 105.7 C 51.3 105.9 52.2 106.1 52.7 106.2 C 52.2 106.0 52.1 105.9 51.7 105.7 C 51.3 105.8 49.2 104.9 49.0 105.0 C 49.9 105.3 50.4 105.6 49.5 105.3 C 49.3 105.2 47.6 104.5 46.7 104.2 C 49.7 105.5 48.5 105.1 49.3 105.7 C 47.2 105.0 47.1 104.6 43.2 103.1 C 43.2 102.9 43.3 102.7 44.3 103.0 C 42.0 101.6 36.5 99.5 34.8 98.7 C 36.0 99.3 37.4 99.6 35.7 98.7 C 35.6 98.8 34.4 98.2 34.1 98.1 C 33.3 98.3 34.7 99.2 35.9 100.1 C 34.5 99.4 34.2 99.4 32.9 98.7 C 32.6 98.3 34.1 98.7 32.5 97.8 C 32.0 98.0 29.5 96.3 28.9 96.2 C 29.9 96.8 30.6 97.3 29.5 96.7 C 29.7 96.7 27.5 95.5 27.5 95.4 C 29.3 96.3 29.9 96.4 31.1 97.0 C 29.7 96.2 32.2 97.4 29.8 96.0 C 28.7 95.6 28.0 95.5 25.7 94.0 C 24.8 93.5 25.8 93.7 24.6 93.0 C 24.8 93.4 22.3 91.9 23.9 92.6 C 23.1 92.1 22.7 91.8 22.2 91.4 C 23.2 92.4 17.8 88.8 18.4 89.5 C 18.7 89.2 18.6 88.8 18.4 88.5 C 17.2 88.0 16.2 86.9 13.9 84.8 C 13.8 85.1 13.6 84.5 12.6 83.6 C 12.4 83.5 13.1 84.3 12.5 83.7 C 11.5 82.6 11.5 82.5 11.4 82.2 C 10.7 81.5 10.2 80.8 9.9 80.4 C 9.8 80.4 10.0 80.7 10.1 81.0 C 7.8 77.8 6.6 76.4 5.3 73.6 C 5.8 74.8 6.3 74.9 5.8 74.0 C 5.5 73.4 5.2 72.9 5.0 72.7 C 5.0 73.4 5.0 73.1 4.5 71.7 C 3.9 70.5 4.3 72.3 3.9 71.4 C 3.7 70.3 4.0 70.9 3.9 70.3 C 3.7 69.8 3.6 69.3 3.4 68.8 C 3.5 69.7 3.2 68.8 2.9 67.9 C 3.3 68.5 3.2 68.1 2.8 66.4 C 2.9 66.1 3.1 67.0 3.0 66.3 C 3.0 65.9 2.5 64.6 2.6 63.4 C 2.7 63.8 2.7 64.0 2.8 63.9 C 2.6 62.6 2.9 61.6 3.1 60.4 C 2.8 61.6 2.6 60.9 2.5 61.4 C 2.7 60.2 2.6 58.8 3.0 58.0 C 2.7 59.6 3.5 58.1 3.7 57.0 C 3.5 56.8 3.2 58.5 3.0 58.0 C 2.9 57.3 3.6 56.1 3.5 55.5 C 3.3 55.6 3.4 56.3 3.2 56.4 C 3.4 55.5 3.0 56.7 3.1 55.9 C 3.5 55.5 3.3 54.9 3.5 54.4 C 3.8 53.8 4.6 52.7 4.6 52.1 C 4.5 52.0 4.2 52.9 4.1 53.0 C 4.9 50.2 5.7 49.6 6.9 47.2 C 7.1 47.0 7.5 46.6 8.0 45.9 C 7.8 45.9 8.1 45.5 8.4 44.9 C 9.3 44.0 10.1 43.1 11.3 41.9 C 11.2 42.3 10.8 42.9 12.3 41.3 C 12.3 41.1 11.6 41.8 12.2 41.2 C 12.2 41.2 12.6 40.9 12.6 40.7 C 12.6 40.7 12.5 40.6 12.5 40.6 C 12.0 41.1 11.6 41.5 11.3 41.9 C 11.2 41.8 11.0 41.9 10.6 42.2 C 12.3 40.1 12.5 40.6 13.6 39.2 C 14.1 39.3 14.6 38.9 13.7 40.1 C 14.8 39.0 15.5 38.2 15.7 37.7 C 14.3 39.0 14.6 38.4 14.1 38.7 C 15.0 37.9 14.9 37.8 15.3 37.3 C 16.5 36.5 14.5 38.6 16.7 36.8 C 14.8 38.0 17.9 35.5 19.1 34.6 C 18.9 34.7 18.4 35.0 19.0 34.4 C 22.1 31.8 22.4 32.7 24.3 31.0 C 24.2 31.2 25.3 30.6 25.7 30.4 C 23.9 31.6 23.5 31.9 22.8 32.5 C 22.9 32.5 23.5 32.1 24.0 31.8 C 24.0 31.7 24.4 31.4 25.2 31.0 C 25.7 30.5 25.3 30.3 26.7 29.2 C 26.9 29.2 26.8 29.4 27.5 29.0 C 28.1 28.4 27.1 29.7 30.4 27.7 C 29.8 28.0 29.4 28.1 29.5 27.8 C 31.1 26.8 30.8 27.0 33.0 25.8 C 34.0 25.7 31.7 27.0 31.2 27.6 C 32.7 26.7 33.8 25.8 35.5 25.2 C 34.2 25.7 35.3 24.9 36.8 24.1 C 38.2 23.5 36.9 24.5 38.5 23.7 C 39.8 23.1 40.4 22.6 39.1 23.0 C 42.1 21.8 41.3 21.8 43.9 20.8 C 44.1 20.9 43.4 21.2 42.4 21.5 C 42.5 21.6 42.3 21.8 43.3 21.4 C 44.1 21.0 45.4 20.3 46.9 19.7 C 48.3 19.1 49.2 18.7 49.8 18.4 C 52.3 18.0 54.8 16.5 57.3 15.9 C 56.4 16.5 60.6 15.0 61.8 14.9 C 62.6 14.6 64.8 13.4 64.0 13.8 C 64.3 14.1 65.7 13.6 66.9 13.3 C 66.9 13.3 66.9 13.2 66.9 13.1 C 69.4 12.4 70.1 12.5 70.9 12.4 C 74.1 11.5 77.7 11.0 81.6 9.9 C 82.6 10.0 83.5 9.7 85.9 9.4 C 85.8 9.2 87.7 8.8 89.5 8.5 C 89.1 8.3 90.8 8.1 90.7 7.9 C 89.1 8.2 89.7 7.8 88.8 7.9 C 91.0 7.7 92.0 7.1 93.8 7.0 C 91.6 7.5 91.0 7.9 90.8 8.3 C 93.3 7.8 94.7 7.7 95.2 7.8 C 95.4 7.6 95.0 7.6 94.5 7.6 C 95.3 7.4 96.2 7.3 97.0 7.1 C 97.2 7.2 96.1 7.5 97.0 7.4 C 97.6 7.2 98.3 7.0 98.9 6.9 C 99.7 7.0 97.9 7.2 97.7 7.4 C 101.1 6.9 99.5 6.7 101.4 6.3 C 101.9 6.4 101.8 6.7 103.4 6.5 C 104.0 6.3 104.1 6.0 105.9 5.8 C 107.0 5.7 105.9 6.2 107.2 6.0 C 107.3 5.9 107.9 5.9 108.5 5.9 C 108.4 5.7 109.0 5.6 109.7 5.5 C 109.9 5.6 111.2 5.4 111.7 5.2 C 111.8 5.4 113.8 5.4 114.3 5.2 C 114.3 5.1 113.1 5.3 113.0 5.2 C 114.4 5.0 115.5 4.9 116.2 4.8 C 116.7 5.3 119.1 4.6 122.1 4.6 C 123.9 4.3 121.7 4.2 124.0 3.9 C 125.5 4.0 123.7 4.1 124.1 4.4 C 124.5 4.4 126.7 4.4 126.7 4.2 C 126.7 4.1 125.6 4.2 125.4 4.1 C 127.1 3.8 127.1 4.1 128.1 4.1 C 127.9 3.9 129.1 3.8 129.3 3.6 C 134.1 3.1 134.1 3.6 136.0 3.7 C 136.0 3.6 137.2 3.6 137.3 3.5 C 135.9 3.6 134.1 3.5 136.0 3.4 C 135.7 3.5 138.5 3.3 138.6 3.2 C 138.3 3.1 136.6 3.2 137.3 2.9 C 139.8 2.7 138.8 3.2 140.6 2.9 C 140.9 3.1 139.7 3.1 139.3 3.2 C 140.1 3.2 141.2 3.2 141.3 3.2 C 140.3 3.3 140.3 3.5 140.0 3.7 C 141.3 3.4 143.6 3.6 142.0 3.3 C 144.6 3.3 147.2 3.1 145.3 2.9 C 147.5 2.8 146.3 3.1 148.0 2.9 C 147.8 3.2 147.2 3.3 148.7 3.5 C 148.9 3.4 150.1 3.3 150.0 3.1 C 153.2 3.1 154.1 3.4 155.4 3.6 C 154.2 3.2 155.8 3.5 157.3 3.3 C 158.3 3.4 157.4 3.7 160.0 3.6 C 157.2 3.2 163.2 3.6 162.0 3.1 C 165.3 3.4 165.3 3.4 168.7 3.6 C 168.4 3.7 167.5 3.8 166.0 3.8 C 167.1 3.6 163.1 3.5 163.4 3.7 C 163.4 3.7 163.4 3.8 163.4 3.8 C 165.9 3.8 167.6 4.0 168.7 4.1 C 169.2 4.0 170.4 3.9 170.0 3.6 C 172.4 4.0 174.9 3.7 176.0 4.0 C 175.2 4.0 174.4 4.0 174.6 4.1 C 175.6 4.1 176.8 4.1 176.7 3.9 C 174.7 3.7 174.3 3.7 173.4 3.8 C 174.2 3.7 171.4 3.4 173.4 3.4 C 173.3 3.8 177.3 3.4 176.0 3.6 C 173.9 3.7 178.4 4.0 178.6 4.2 C 178.6 4.2 178.6 4.2 178.6 4.2 Z M 224.1 115.0 C 225.9 114.5 223.6 114.7 222.3 115.0 C 222.7 115.0 222.9 115.1 222.9 115.2 C 223.4 115.1 224.0 114.9 224.1 115.0 C 224.1 115.0 224.1 115.0 224.1 115.0 Z M 203.6 114.7 C 203.1 115.1 206.2 114.5 207.5 114.4 C 207.1 114.4 206.7 114.4 207.5 114.2 C 206.1 114.2 205.7 114.7 203.6 114.7 C 203.6 114.7 203.6 114.7 203.6 114.7 Z M 130.9 118.0 C 131.4 117.9 132.7 117.9 132.8 118.1 C 133.6 118.1 133.4 118.0 133.5 117.9 C 135.1 117.9 133.1 118.2 135.5 118.2 C 136.4 117.8 131.4 117.4 130.9 118.0 C 130.9 118.0 130.9 118.0 130.9 118.0 Z M 153.3 7.1 C 154.3 7.2 152.0 7.4 152.7 7.6 C 156.3 7.4 153.5 7.1 158.6 7.2 C 158.3 7.2 157.9 7.1 157.9 7.0 C 155.6 7.1 155.4 7.3 155.9 6.8 C 154.9 6.8 154.6 7.3 153.3 7.1 C 153.3 7.1 153.3 7.1 153.3 7.1 Z M 200.3 10.8 C 199.9 10.7 199.6 10.6 199.6 10.4 C 198.1 10.4 198.4 10.5 196.4 10.2 C 196.6 10.6 198.6 10.7 200.3 10.8 C 200.3 10.8 200.3 10.8 200.3 10.8 Z M 300.6 57.0 C 300.7 57.3 300.8 57.5 300.8 57.8 C 300.9 57.6 301.4 58.2 301.0 56.9 C 300.9 56.9 301.0 57.1 301.0 57.3 C 300.9 57.1 300.7 56.5 300.6 56.6 C 300.7 57.0 300.7 57.0 300.6 57.0 C 300.6 57.0 300.6 57.0 300.6 57.0 Z M 284.7 89.2 C 286.8 87.5 281.0 90.7 284.7 89.2 C 284.7 89.2 284.7 89.2 284.7 89.2 C 284.7 89.2 284.7 89.2 284.7 89.2 Z M 290.8 88.3 C 290.9 88.3 291.3 88.0 291.3 87.9 C 293.0 86.6 291.4 88.0 292.4 87.4 C 293.6 86.1 291.5 87.6 293.1 86.1 C 292.7 86.3 291.8 87.5 290.8 88.3 C 290.8 88.3 290.8 88.3 290.8 88.3 Z M 22.0 32.7 C 20.5 33.9 20.2 34.4 20.1 34.8 C 21.1 34.0 22.0 33.4 22.4 33.3 C 24.4 31.8 21.0 34.1 20.6 34.3 C 20.7 33.9 22.1 32.9 22.0 32.7 C 22.0 32.7 22.0 32.7 22.0 32.7 Z M 17.2 36.5 C 16.7 37.0 15.9 37.8 16.0 38.0 C 16.8 37.3 17.0 37.3 17.1 37.3 C 17.7 36.5 16.7 37.2 17.2 36.5 C 17.2 36.5 17.2 36.5 17.2 36.5 Z M 27.1 29.8 C 26.3 30.3 26.7 30.3 26.6 30.5 C 27.8 29.7 28.0 29.7 29.3 29.0 C 29.2 28.9 29.2 28.8 29.2 28.8 C 28.1 29.3 28.1 29.5 27.2 30.0 C 27.2 29.9 27.1 29.9 27.1 29.8 C 27.1 29.8 27.1 29.8 27.1 29.8 Z M 13.2 40.5 C 11.0 42.8 10.5 44.1 9.7 45.8 C 10.8 44.1 11.8 42.3 13.0 41.2 C 14.3 39.7 12.5 41.5 12.4 41.4 C 12.4 41.4 12.9 40.9 13.2 40.5 C 13.2 40.5 13.2 40.5 13.2 40.5 Z M 3.1 61.9 C 2.9 62.4 3.3 63.4 3.4 64.8 C 3.4 64.5 3.5 64.3 3.6 64.3 C 3.5 62.2 3.1 63.5 3.1 61.9 C 3.1 61.9 3.1 61.9 3.1 61.9 Z M 6.1 73.8 C 6.7 75.0 5.9 73.1 6.4 73.7 C 5.7 72.3 5.2 70.9 5.0 71.0 C 5.7 72.4 5.8 72.7 6.1 73.8 C 6.1 73.8 6.1 73.8 6.1 73.8 Z M 11.7 81.9 C 13.0 83.1 11.5 81.2 12.2 81.5 C 11.7 81.0 11.7 81.3 11.6 81.3 C 11.3 80.9 11.0 80.5 10.6 79.9 C 10.8 80.4 12.1 81.9 11.7 81.9 C 11.7 81.9 11.7 81.9 11.7 81.9 Z M 68.8 13.6 C 67.8 14.0 68.2 14.1 66.0 14.6 C 69.2 13.8 67.6 14.9 71.9 13.8 C 71.2 13.8 71.6 13.6 71.9 13.7 C 73.5 13.1 70.3 13.9 71.8 13.3 C 70.6 13.6 71.3 13.7 70.2 14.0 C 68.9 14.1 68.1 14.2 68.8 13.6 C 68.8 13.6 68.8 13.6 68.8 13.6 Z M 71.9 14.0 C 73.1 13.8 73.0 13.3 73.6 13.4 C 74.2 13.3 74.1 13.2 74.2 13.1 C 73.7 13.2 73.7 13.2 73.6 13.2 C 72.6 13.5 71.6 13.8 71.9 14.0 C 71.9 14.0 71.9 14.0 71.9 14.0 Z M 61.2 17.0 C 63.1 16.3 63.7 16.3 64.5 15.8 C 65.3 16.0 65.7 15.3 66.8 15.3 C 68.7 14.7 67.3 15.0 66.7 15.0 C 68.5 14.4 67.2 15.1 69.0 14.6 C 69.3 14.2 67.0 14.9 67.2 14.6 C 65.8 14.9 65.9 15.1 65.0 15.4 C 64.4 15.6 64.5 15.4 64.4 15.3 C 62.8 15.9 62.9 15.7 61.6 16.1 C 61.4 16.4 61.9 16.3 63.4 15.8 C 61.9 16.4 61.3 16.7 59.5 17.1 C 60.7 16.5 55.2 18.2 55.8 18.4 C 57.3 18.0 56.8 17.9 57.3 17.7 C 59.3 17.3 60.4 16.9 61.2 17.0 C 61.2 17.0 61.2 17.0 61.2 17.0 Z M 28.2 30.1 C 27.6 30.4 27.1 30.6 26.2 31.2 C 26.0 31.0 27.2 30.4 26.1 30.9 C 24.7 31.7 24.5 32.0 23.7 32.5 C 24.2 32.3 27.1 30.8 25.7 31.8 C 26.2 31.6 27.1 31.1 28.3 30.4 C 26.7 30.9 30.3 29.2 31.7 28.5 C 31.4 28.2 34.2 27.2 35.1 26.5 C 34.2 26.7 31.4 28.4 30.2 29.1 C 30.8 28.7 26.7 30.5 28.2 30.1 C 28.2 30.1 28.2 30.1 28.2 30.1 Z M 76.6 12.7 C 76.9 12.6 78.2 12.2 77.1 12.4 C 77.6 12.2 78.8 12.1 78.2 11.8 C 78.9 11.7 79.4 11.6 80.0 11.4 C 79.8 11.6 78.2 11.9 78.9 12.0 C 80.1 11.6 79.6 11.9 81.3 11.5 C 80.4 11.9 81.4 11.7 80.8 12.2 C 81.2 11.9 82.7 11.6 82.5 11.5 C 84.8 11.0 81.9 11.9 85.0 11.3 C 85.0 11.5 82.8 11.9 82.0 12.0 C 81.7 12.3 85.8 11.3 88.1 10.9 C 86.0 11.1 87.6 10.6 88.5 10.2 C 89.3 10.1 88.6 10.4 89.9 10.3 C 90.9 10.1 91.4 9.9 91.7 9.9 C 92.5 9.8 92.2 9.7 92.3 9.5 C 93.7 9.3 92.7 9.8 94.8 9.4 C 93.2 9.3 94.9 9.0 97.8 8.6 C 97.6 8.5 96.7 8.7 96.6 8.6 C 97.0 8.3 98.7 8.4 99.1 8.4 C 100.1 8.2 99.5 8.2 98.5 8.3 C 99.1 8.2 99.7 8.0 100.3 7.8 C 97.2 8.3 92.3 9.1 86.6 9.8 C 87.7 9.8 86.5 10.1 84.8 10.4 C 84.6 10.3 85.3 10.1 86.0 9.9 C 84.0 10.0 84.2 10.6 81.2 11.1 C 79.6 11.4 83.0 10.5 81.2 10.8 C 80.1 11.1 79.4 11.4 78.8 11.3 C 76.9 11.8 76.4 12.2 73.5 12.9 C 75.2 12.7 76.1 13.0 77.8 12.5 C 77.8 12.4 77.0 12.6 76.6 12.7 C 76.6 12.7 76.6 12.7 76.6 12.7 Z M 17.2 37.4 C 16.3 38.1 16.0 38.6 15.7 38.7 C 14.4 40.0 16.1 38.7 16.4 38.5 C 17.0 37.9 17.2 37.6 17.2 37.4 C 17.2 37.4 17.2 37.4 17.2 37.4 Z M 139.4 120.5 C 141.9 120.6 141.4 120.3 143.4 120.4 C 141.8 120.2 141.4 120.0 138.7 120.0 C 138.6 120.2 138.6 120.3 139.4 120.5 C 139.4 120.5 139.4 120.5 139.4 120.5 Z M 22.6 33.5 C 23.8 32.3 21.1 34.9 21.0 34.7 C 19.5 36.0 22.5 33.8 21.2 35.0 C 22.4 33.9 23.4 33.5 25.1 32.2 C 25.0 32.1 23.5 33.1 22.1 34.1 C 21.9 34.1 22.6 33.6 22.6 33.5 C 22.6 33.5 22.6 33.5 22.6 33.5 Z M 113.8 118.0 C 112.1 118.0 115.3 118.6 116.3 118.8 C 116.4 118.5 115.9 118.5 113.8 118.0 C 113.8 118.0 113.8 118.0 113.8 118.0 Z M 156.7 120.4 C 157.7 120.1 153.7 120.4 154.7 120.1 C 153.5 120.0 153.4 120.1 153.3 120.2 C 152.7 120.1 150.9 120.2 151.4 120.0 C 151.1 119.8 154.4 120.0 153.3 119.7 C 154.4 119.7 154.5 119.8 155.3 119.8 C 153.4 119.8 154.3 120.1 156.7 120.1 C 156.7 119.9 155.6 120.0 156.7 119.8 C 156.8 119.9 158.1 120.1 158.0 120.4 C 160.1 120.4 158.9 120.0 161.3 120.0 C 161.1 119.8 159.6 119.9 158.7 119.8 C 158.9 119.5 161.3 120.0 160.7 119.6 C 161.2 119.8 162.6 119.9 162.7 120.1 C 160.8 120.3 159.6 120.5 158.0 120.6 C 159.4 120.7 161.5 120.2 164.0 120.3 C 163.7 120.2 165.2 120.1 164.7 119.9 C 166.6 119.9 165.7 120.3 165.4 120.3 C 165.9 120.5 169.6 120.2 169.4 120.0 C 169.6 120.2 174.2 120.0 174.0 119.7 C 175.3 119.8 177.4 119.3 178.0 119.6 C 178.7 119.5 180.3 119.4 181.9 119.3 C 182.4 119.0 179.5 119.3 179.3 119.1 C 178.8 119.0 182.4 119.0 181.9 118.8 C 181.9 118.8 181.9 118.7 181.9 118.7 C 180.6 118.8 179.2 119.0 177.9 119.1 C 177.0 119.2 178.2 119.0 177.9 118.9 C 177.0 119.1 172.8 119.6 172.6 119.2 C 169.8 119.4 167.8 119.4 166.6 119.6 C 164.9 119.7 167.6 119.5 166.6 119.3 C 161.6 119.8 155.5 119.4 151.4 119.8 C 150.5 119.8 150.8 119.6 150.7 119.5 C 145.0 119.6 149.8 120.0 145.3 119.8 C 145.4 119.6 147.5 119.6 147.4 119.4 C 145.8 119.4 145.4 119.5 143.3 119.4 C 143.3 119.5 143.3 119.6 143.3 119.7 C 141.7 119.7 142.3 119.4 141.4 119.3 C 139.3 119.3 139.8 119.4 138.8 119.1 C 136.8 119.1 134.8 119.1 132.8 118.9 C 131.4 119.0 134.0 119.5 136.1 119.6 C 136.0 119.7 135.4 119.6 135.4 119.7 C 132.9 119.4 132.6 118.9 128.9 118.6 C 131.7 119.1 127.4 118.6 126.9 118.4 C 125.3 118.3 126.5 118.7 127.5 118.8 C 127.3 118.9 126.3 118.7 126.2 118.6 C 126.0 119.0 129.6 119.4 133.4 119.5 C 131.6 119.8 136.1 119.6 134.1 120.0 C 137.2 120.1 134.5 119.6 138.0 119.8 C 137.7 119.7 137.1 119.6 136.7 119.5 C 139.4 119.5 138.6 119.9 141.4 119.9 C 141.8 119.7 140.0 119.7 140.0 119.5 C 143.1 119.9 144.0 120.0 146.1 120.3 C 146.4 120.1 145.9 119.9 149.4 120.1 C 149.4 120.1 149.4 120.2 149.4 120.3 C 147.7 120.2 147.3 120.7 151.4 120.7 C 151.6 120.5 150.4 120.5 149.4 120.5 C 149.8 120.3 151.1 120.3 152.7 120.3 C 153.5 120.3 154.4 120.4 153.3 120.5 C 154.0 120.7 154.6 120.2 156.7 120.4 C 156.7 120.4 156.7 120.4 156.7 120.4 Z M 3.8 59.5 C 3.8 59.9 3.8 60.3 3.7 61.0 C 4.0 61.3 4.0 60.0 4.1 60.0 C 4.2 59.0 3.9 59.8 3.8 59.5 C 3.8 59.5 3.8 59.5 3.8 59.5 Z M 9.0 46.7 C 8.8 46.7 8.6 47.5 7.9 48.5 C 7.9 48.9 8.6 47.7 8.7 47.7 C 9.5 46.6 8.1 47.8 9.0 46.7 C 9.0 46.7 9.0 46.7 9.0 46.7 Z M 6.0 52.1 C 5.5 52.5 5.8 52.6 6.3 51.7 C 6.3 51.8 6.4 52.1 6.1 52.7 C 6.7 52.1 6.4 51.5 7.1 50.4 C 6.8 50.8 6.4 51.3 6.0 52.1 C 6.0 52.1 6.0 52.1 6.0 52.1 Z M 5.2 54.0 C 5.2 54.7 4.8 55.1 4.6 56.3 C 4.8 56.1 5.6 53.5 5.7 53.0 C 5.7 52.6 4.6 55.3 5.2 54.0 C 5.2 54.0 5.2 54.0 5.2 54.0 Z M 88.7 114.0 C 89.2 114.1 89.1 114.0 89.3 113.9 C 91.1 114.6 93.8 115.0 91.6 115.0 C 93.6 115.1 95.5 115.8 97.2 116.1 C 98.6 116.4 97.9 116.0 99.1 116.1 C 100.9 116.5 98.1 116.1 98.5 116.3 C 98.8 116.5 99.4 116.2 101.6 116.7 C 101.0 116.2 103.5 117.0 102.9 116.5 C 104.1 116.8 104.5 116.7 106.1 116.9 C 105.9 116.7 104.4 116.5 104.2 116.3 C 103.5 116.0 103.3 116.4 104.8 116.6 C 103.9 116.7 101.8 116.0 101.1 116.1 C 100.3 115.7 103.1 116.3 102.3 116.0 C 101.8 115.9 101.2 115.9 101.1 116.0 C 100.2 115.8 99.6 115.6 99.2 115.4 C 99.8 115.5 99.8 115.6 99.8 115.6 C 101.0 115.8 98.7 115.0 101.2 115.4 C 100.7 115.3 99.7 115.1 99.9 115.0 C 99.2 114.7 99.8 115.7 97.3 115.0 C 95.7 115.0 101.2 115.8 99.7 116.1 C 96.3 115.5 98.3 115.4 95.5 114.9 C 95.5 115.0 95.5 115.2 94.8 115.1 C 94.9 115.2 95.9 115.3 96.6 115.4 C 96.5 115.5 95.5 115.3 94.8 115.2 C 94.9 115.3 95.4 115.4 95.4 115.5 C 93.0 115.0 93.4 114.6 95.5 114.8 C 95.5 114.5 92.6 114.1 91.8 114.1 C 92.5 114.4 91.7 114.2 92.3 114.6 C 92.9 114.7 92.8 114.6 93.0 114.5 C 94.1 114.8 93.0 114.7 93.0 114.8 C 91.7 114.5 91.8 114.3 90.5 114.2 C 90.8 114.2 91.1 114.2 91.2 114.1 C 90.6 114.0 89.9 113.9 89.3 113.8 C 89.3 113.9 88.6 113.8 88.7 114.0 C 88.7 114.0 88.7 114.0 88.7 114.0 Z M 121.6 119.0 C 123.7 119.3 122.6 119.0 121.6 118.9 C 122.0 118.8 122.8 118.9 123.6 118.9 C 122.9 118.7 122.3 118.8 120.3 118.5 C 122.1 118.4 120.3 117.8 117.1 117.5 C 116.1 117.9 118.8 118.2 117.7 118.4 C 120.1 118.4 121.3 118.7 121.6 119.0 C 121.6 119.0 121.6 119.0 121.6 119.0 Z M 16.5 38.6 C 15.5 39.4 14.6 40.2 13.8 41.1 C 14.1 41.1 16.9 38.7 16.5 38.6 C 16.5 38.6 16.5 38.6 16.5 38.6 Z M 102.9 7.8 C 103.4 7.7 103.5 7.7 103.5 7.8 C 105.4 7.4 102.6 7.7 103.5 7.4 C 102.8 7.5 102.2 7.6 101.6 7.6 C 101.5 7.8 104.2 7.5 102.2 7.9 C 102.4 7.9 102.9 7.8 102.9 7.8 C 102.9 7.8 102.9 7.8 102.9 7.8 Z M 4.2 58.6 C 4.2 59.5 4.5 59.0 4.3 61.0 C 4.5 60.3 4.5 59.9 4.6 58.7 C 4.5 58.7 4.4 58.6 4.2 58.6 C 4.2 58.6 4.2 58.6 4.2 58.6 Z M 79.5 112.5 C 81.0 113.1 81.5 112.7 84.3 113.4 C 82.9 112.8 81.2 112.8 79.5 112.5 C 79.5 112.5 79.5 112.5 79.5 112.5 Z M 187.2 118.5 C 186.2 118.5 187.4 118.4 185.8 118.4 C 184.9 118.5 184.5 118.7 183.2 118.8 C 185.1 118.9 188.4 118.4 189.7 118.7 C 191.3 118.5 191.2 118.2 191.7 118.0 C 190.9 118.1 190.5 118.1 190.4 118.1 C 189.5 118.5 188.3 118.0 187.2 118.5 C 187.2 118.5 187.2 118.5 187.2 118.5 Z M 113.2 117.8 C 112.0 117.5 114.0 117.7 114.5 117.6 C 115.3 117.7 115.0 117.8 115.1 118.0 C 116.3 118.0 116.6 118.0 116.4 117.8 C 114.3 117.5 111.7 117.2 113.3 117.0 C 111.2 116.7 112.3 117.2 111.3 117.1 C 110.2 116.8 111.2 116.9 111.3 116.6 C 110.8 116.6 109.2 116.7 109.4 116.4 C 106.3 116.4 107.6 116.9 109.9 117.6 C 112.0 117.6 109.6 117.2 113.2 117.8 C 113.2 117.8 113.2 117.8 113.2 117.8 Z M 34.7 97.0 C 34.9 97.2 36.2 97.8 36.1 97.9 C 37.8 98.5 39.3 98.9 41.0 99.3 C 40.7 99.0 38.5 98.2 39.4 98.8 C 38.8 98.3 37.3 97.6 36.5 97.0 C 35.1 96.2 34.3 96.4 34.3 96.0 C 32.9 95.4 33.7 95.8 31.5 94.6 C 34.8 96.7 30.3 94.1 29.9 94.2 C 31.9 95.3 33.7 96.2 33.5 95.8 C 35.0 96.7 36.7 97.6 36.9 98.0 C 36.8 98.0 35.5 97.4 34.7 97.0 C 34.7 97.0 34.7 97.0 34.7 97.0 Z M 44.2 100.6 C 43.6 100.3 42.9 100.1 41.8 99.6 C 42.4 100.0 42.6 100.2 42.5 100.3 C 44.6 101.1 45.1 101.2 45.8 101.7 C 47.7 102.5 45.4 101.2 48.4 102.5 C 48.2 102.3 46.7 101.8 46.7 101.7 C 46.4 101.7 45.2 101.3 44.2 100.6 C 44.2 100.6 44.2 100.6 44.2 100.6 Z M 62.4 107.5 C 63.9 107.9 61.7 107.1 62.5 107.2 C 62.1 107.1 59.5 106.2 59.9 106.1 C 59.2 105.6 56.3 105.3 56.7 105.0 C 56.0 104.8 56.2 105.0 56.1 105.1 C 58.0 105.6 57.9 105.8 56.5 105.4 C 56.7 105.6 57.9 105.9 58.7 106.2 C 58.8 106.1 58.1 105.8 58.2 105.7 C 59.8 106.3 61.0 106.9 62.4 107.5 C 62.4 107.5 62.4 107.5 62.4 107.5 Z M 174.5 5.2 C 173.0 5.1 172.0 5.1 171.2 5.2 C 171.7 5.3 172.5 5.2 173.2 5.2 C 173.4 5.4 172.7 5.4 171.9 5.3 C 172.6 5.6 175.4 5.5 174.5 5.2 C 174.5 5.2 174.5 5.2 174.5 5.2 Z M 161.3 4.8 C 159.8 4.8 158.8 4.8 158.6 4.9 C 159.2 5.1 159.0 4.8 160.0 4.9 C 160.6 4.9 160.9 5.0 161.3 5.1 C 161.9 5.1 161.8 5.0 162.0 5.0 C 162.5 5.0 162.6 5.0 162.6 5.1 C 164.4 4.9 160.5 5.1 161.3 4.8 C 161.3 4.8 161.3 4.8 161.3 4.8 Z M 53.4 104.4 C 52.9 104.1 52.6 103.9 51.4 103.4 C 51.6 103.7 50.6 103.3 49.8 103.0 C 50.9 103.6 51.5 103.8 53.4 104.4 C 53.4 104.4 53.4 104.4 53.4 104.4 Z M 80.8 12.3 C 79.0 12.5 79.2 12.9 76.7 13.3 C 76.7 13.3 76.7 13.4 76.7 13.5 C 78.2 12.9 79.0 12.9 80.8 12.3 C 80.8 12.3 80.8 12.3 80.8 12.3 Z M 302.4 73.0 C 302.3 72.8 301.7 74.2 301.5 74.2 C 301.7 74.7 300.9 75.0 299.1 77.6 C 299.0 77.5 299.1 77.3 299.3 77.0 C 297.8 79.0 299.9 76.6 300.3 76.4 C 301.3 74.8 301.6 74.7 302.4 73.0 C 302.4 73.0 302.4 73.0 302.4 73.0 Z M 167.3 118.9 C 167.2 119.0 167.6 119.0 168.0 119.0 C 168.4 118.9 168.9 118.9 169.3 118.9 C 169.1 118.6 166.9 118.5 168.6 118.1 C 168.0 118.1 167.9 118.2 167.9 118.2 C 164.7 119.1 162.2 117.9 158.0 118.4 C 157.3 118.5 157.5 118.5 157.4 118.6 C 157.9 118.6 157.9 118.6 158.0 118.7 C 158.5 118.3 162.3 118.7 160.7 118.8 C 160.8 118.9 161.3 118.8 161.3 118.8 C 161.8 118.8 162.2 118.8 162.7 118.8 C 162.4 118.7 161.5 118.7 161.3 118.6 C 163.4 118.6 166.0 118.6 164.7 119.0 C 166.0 118.9 166.4 118.8 167.3 118.7 C 168.2 118.7 168.2 118.9 167.3 118.9 C 167.3 118.9 167.3 118.9 167.3 118.9 Z M 184.4 117.9 C 186.5 117.8 185.7 117.6 187.7 117.5 C 186.4 117.4 184.9 117.8 183.1 117.8 C 183.4 117.9 184.3 117.8 184.4 117.9 C 184.4 117.9 184.4 117.9 184.4 117.9 Z M 146.1 118.6 C 146.5 118.3 144.7 118.2 142.7 118.2 C 142.3 118.5 144.1 118.5 146.1 118.6 C 146.1 118.6 146.1 118.6 146.1 118.6 Z M 154.7 118.7 C 156.6 118.6 152.2 118.6 153.3 118.4 C 152.4 118.4 151.5 118.4 151.4 118.3 C 150.7 118.3 150.7 118.5 149.4 118.4 C 149.5 118.6 151.6 118.5 151.4 118.7 C 152.9 118.5 153.1 118.5 154.7 118.7 C 154.7 118.7 154.7 118.7 154.7 118.7 Z M 156.0 118.7 C 157.3 118.6 155.7 118.2 154.0 118.2 C 154.6 118.4 155.0 118.6 156.0 118.7 C 156.0 118.7 156.0 118.7 156.0 118.7 Z M 12.8 79.5 C 13.3 80.1 13.1 79.5 13.7 80.2 C 13.8 80.1 11.7 77.6 13.5 79.6 C 13.0 78.7 12.4 78.6 11.7 77.6 C 11.9 77.9 12.0 78.2 11.6 77.7 C 11.2 77.5 13.2 79.7 12.8 79.5 C 12.8 79.5 12.8 79.5 12.8 79.5 Z M 15.1 82.0 C 15.6 82.4 15.4 82.1 15.1 81.9 C 15.3 81.9 15.9 82.6 16.5 83.1 C 16.4 83.2 15.8 82.0 16.0 81.9 C 13.8 79.9 15.2 81.7 15.1 82.0 C 15.1 82.0 15.1 82.0 15.1 82.0 Z M 17.3 83.9 C 18.6 85.4 21.0 87.2 22.3 87.8 C 21.2 86.6 18.2 84.3 17.3 83.9 C 17.3 83.9 17.3 83.9 17.3 83.9 Z M 7.4 70.1 C 8.0 72.7 11.2 77.5 9.0 72.9 C 8.9 73.2 7.4 70.2 7.1 68.7 C 7.0 68.7 6.3 67.2 6.5 67.1 C 6.0 66.0 7.4 70.7 7.4 70.1 C 7.4 70.1 7.4 70.1 7.4 70.1 Z M 24.7 89.0 C 23.7 88.4 24.7 89.6 23.4 88.5 C 22.6 88.0 23.5 88.7 23.2 88.7 C 25.0 89.9 29.0 92.1 29.2 92.5 C 30.2 93.0 30.6 93.1 32.6 94.2 C 32.7 94.1 25.7 90.4 24.7 89.1 C 24.8 89.1 27.0 90.5 24.7 89.0 C 24.7 89.0 24.7 89.0 24.7 89.0 Z M 81.1 13.7 C 81.3 13.5 78.8 14.2 79.3 13.8 C 78.0 14.4 76.7 14.5 75.3 15.1 C 74.8 15.1 74.9 14.7 72.9 15.2 C 72.9 15.4 73.9 15.1 73.0 15.5 C 71.1 16.0 71.6 15.6 69.5 16.2 C 69.9 16.5 65.1 17.5 65.7 17.7 C 66.7 17.4 66.6 17.2 68.5 16.8 C 69.1 16.7 68.8 16.9 69.6 16.7 C 69.1 17.0 68.1 16.9 67.4 17.3 C 67.6 17.5 68.9 17.1 69.2 17.2 C 70.0 16.9 68.9 17.2 69.1 17.0 C 71.3 16.3 69.1 17.5 71.5 16.8 C 70.9 16.7 70.9 16.7 71.4 16.4 C 72.3 16.2 75.3 15.3 73.7 16.0 C 73.9 16.1 75.6 15.5 75.4 15.4 C 76.3 15.1 76.5 15.2 76.5 15.3 C 79.0 14.6 79.3 14.3 78.8 14.2 C 79.2 13.8 79.7 14.2 81.1 13.7 C 81.1 13.7 81.1 13.7 81.1 13.7 Z M 6.7 56.4 C 6.8 55.3 6.5 57.5 6.3 58.5 C 6.5 57.3 6.8 57.7 7.1 56.5 C 6.9 56.9 6.9 56.8 7.1 56.0 C 7.0 55.7 6.5 57.6 6.7 56.4 C 6.7 56.4 6.7 56.4 6.7 56.4 Z M 36.9 96.4 C 37.6 96.9 41.5 98.6 43.7 99.6 C 43.5 99.1 38.1 97.2 37.6 96.6 C 36.5 96.0 38.2 97.0 36.9 96.4 C 36.9 96.4 36.9 96.4 36.9 96.4 Z M 59.5 19.1 C 58.9 19.3 59.3 19.2 59.5 19.2 C 59.4 19.3 58.2 19.6 57.4 19.9 C 58.7 19.7 57.2 20.2 57.6 20.4 C 56.9 20.6 56.6 20.7 56.6 20.8 C 56.4 20.4 53.3 22.1 56.7 21.1 C 56.0 21.1 56.2 21.0 57.6 20.4 C 59.2 20.1 60.3 19.6 60.9 19.6 C 61.9 19.3 62.2 19.1 63.6 18.7 C 63.9 18.8 65.2 18.5 64.3 19.1 C 66.7 18.4 64.9 18.3 66.9 17.7 C 68.8 17.3 66.0 18.3 66.5 18.3 C 67.0 18.2 66.9 18.3 67.1 18.3 C 67.8 18.1 67.7 17.9 67.0 18.1 C 67.2 18.0 69.1 17.2 68.6 17.7 C 69.8 17.2 66.7 17.4 65.2 18.1 C 64.3 18.4 64.2 18.0 65.1 17.7 C 64.7 17.6 63.0 18.7 63.4 18.1 C 62.6 18.3 61.9 18.5 61.2 18.7 C 61.3 18.7 61.7 18.6 61.8 18.7 C 61.1 18.9 60.3 19.2 59.6 19.4 C 60.2 19.1 60.2 19.0 59.5 19.1 C 59.5 19.1 59.5 19.1 59.5 19.1 Z M 28.1 91.5 C 29.6 92.5 30.1 92.6 31.4 93.2 C 31.0 92.8 27.5 90.8 28.1 91.5 C 28.1 91.5 28.1 91.5 28.1 91.5 Z M 91.5 12.4 C 91.3 12.4 90.3 12.6 90.3 12.5 C 92.1 12.1 90.0 12.3 91.4 11.6 C 89.0 12.3 88.3 13.0 91.6 12.6 C 93.9 12.1 89.1 12.9 91.5 12.4 C 91.5 12.4 91.5 12.4 91.5 12.4 Z M 84.2 13.7 C 82.8 14.1 86.5 13.4 87.3 13.4 C 87.3 13.4 87.3 13.5 87.3 13.6 C 89.3 12.8 86.5 13.3 88.3 12.4 C 86.0 12.8 85.0 12.9 82.9 13.4 C 83.1 13.5 83.5 13.4 83.5 13.3 C 85.0 13.0 84.1 13.6 82.4 13.8 C 82.9 13.8 84.4 13.5 85.4 13.3 C 85.1 13.3 84.7 13.3 84.8 13.2 C 86.1 12.9 85.6 13.2 86.6 13.0 C 86.6 13.1 84.3 13.8 84.2 13.7 C 84.2 13.7 84.2 13.7 84.2 13.7 Z M 211.1 10.6 C 209.9 10.5 212.4 11.2 212.2 11.5 C 213.6 11.8 213.9 11.7 214.7 11.9 C 214.3 11.6 212.9 11.4 212.3 11.1 C 212.6 10.9 214.2 11.5 214.8 11.4 C 215.6 11.2 211.6 11.0 211.1 10.6 C 211.1 10.6 211.1 10.6 211.1 10.6 Z M 28.9 32.7 C 28.2 33.2 28.6 33.0 28.9 32.8 C 28.8 33.0 27.7 33.6 27.7 33.5 C 26.8 34.2 28.3 33.3 27.2 34.1 C 27.1 34.3 28.9 33.0 28.9 32.9 C 30.3 32.0 29.4 32.9 29.8 32.8 C 31.0 32.1 30.5 32.2 32.3 31.2 C 31.2 31.7 30.1 32.1 28.9 32.7 C 28.9 32.7 28.9 32.7 28.9 32.7 Z M 95.7 11.2 C 95.9 11.1 94.3 11.8 92.7 11.9 C 90.5 12.3 94.0 11.9 92.1 12.2 C 93.7 12.0 95.7 11.5 98.2 11.1 C 98.8 10.8 94.7 11.6 97.0 11.1 C 96.8 11.0 96.3 11.2 96.3 11.2 C 95.8 11.3 95.8 11.3 95.7 11.2 C 95.7 11.2 95.7 11.2 95.7 11.2 Z M 93.3 12.2 C 93.5 12.3 94.0 12.1 94.0 12.1 C 94.8 12.0 94.8 12.2 94.0 12.3 C 95.1 12.4 94.9 11.9 97.1 11.7 C 96.1 11.7 95.7 11.6 97.7 11.5 C 99.2 11.0 94.0 11.9 93.3 12.2 C 93.3 12.2 93.3 12.2 93.3 12.2 Z M 190.8 8.3 C 191.0 8.4 192.4 8.5 193.4 8.6 C 192.1 8.7 186.9 8.1 186.2 7.9 C 185.7 7.9 185.1 7.9 184.9 7.8 C 185.0 7.9 183.5 7.9 184.3 8.0 C 184.1 8.1 183.0 8.0 183.0 8.1 C 181.0 7.9 183.6 7.9 183.0 7.7 C 180.6 7.8 181.1 7.6 178.4 7.4 C 178.8 7.7 181.9 7.8 181.6 8.1 C 183.8 8.0 186.1 8.4 187.4 8.7 C 185.5 8.2 193.0 8.7 196.5 9.1 C 196.4 9.3 197.6 9.4 199.1 9.7 C 200.0 10.0 199.8 9.4 197.8 9.4 C 197.9 9.2 200.5 9.6 201.6 9.7 C 200.4 9.4 201.1 9.4 200.4 9.3 C 198.0 9.0 200.2 9.3 199.7 9.4 C 199.1 9.3 198.5 9.3 197.8 9.2 C 201.2 9.2 192.9 8.6 195.9 8.9 C 193.3 8.7 193.3 8.4 190.8 8.3 C 190.8 8.3 190.8 8.3 190.8 8.3 Z M 128.9 7.5 C 128.5 7.5 126.4 7.8 126.3 7.6 C 123.7 8.0 126.0 8.0 123.1 8.3 C 123.3 8.4 124.4 8.2 124.4 8.3 C 125.5 8.2 126.7 8.0 126.3 7.8 C 127.7 7.7 128.0 7.6 128.9 7.5 C 128.6 7.7 128.1 7.8 127.0 7.8 C 126.8 8.0 127.3 8.2 129.0 8.0 C 129.7 7.8 129.2 7.6 128.9 7.5 C 128.9 7.5 128.9 7.5 128.9 7.5 Z M 122.4 8.3 C 122.1 8.2 121.7 8.2 121.8 8.1 C 120.8 7.9 121.4 8.4 120.5 8.5 C 119.7 8.6 119.9 8.4 119.8 8.3 C 118.7 8.5 117.8 8.6 117.2 8.6 C 115.5 8.9 119.3 8.6 119.8 8.7 C 121.1 8.5 120.6 8.4 122.4 8.3 C 122.4 8.3 122.4 8.3 122.4 8.3 Z M 103.2 10.2 C 102.8 10.0 102.2 10.4 101.4 10.5 C 102.0 10.6 103.8 10.3 102.6 10.7 C 104.5 10.5 104.6 10.5 106.4 10.2 C 107.6 10.3 106.5 10.0 104.5 10.4 C 104.8 10.2 105.6 10.1 105.7 10.0 C 107.0 10.3 110.1 9.1 108.3 9.7 C 107.7 9.7 107.3 9.7 107.0 9.7 C 106.6 9.9 102.3 10.4 103.2 10.2 C 103.2 10.2 103.2 10.2 103.2 10.2 Z M 44.1 25.6 C 45.7 24.9 46.5 24.6 47.4 24.3 C 48.2 23.9 49.4 23.5 50.4 23.1 C 50.5 23.2 50.4 23.3 50.0 23.5 C 50.5 23.4 51.1 23.1 52.0 22.7 C 51.9 22.7 51.5 22.9 51.5 22.9 C 49.8 23.3 51.2 22.8 51.3 22.5 C 49.3 23.1 46.3 24.7 44.8 25.0 C 43.6 25.6 45.0 25.0 44.1 25.6 C 44.1 25.6 44.1 25.6 44.1 25.6 Z M 301.3 70.5 C 301.3 70.8 301.0 71.4 301.2 71.4 C 301.5 70.8 301.6 70.3 301.8 69.7 C 301.2 70.8 301.0 70.5 300.3 72.0 C 300.7 71.6 300.9 71.8 301.3 70.5 C 301.3 70.5 301.3 70.5 301.3 70.5 Z M 109.5 9.4 C 109.6 9.5 109.7 9.6 109.0 9.7 C 108.7 9.9 110.8 9.6 110.8 9.8 C 111.5 9.7 111.3 9.5 112.1 9.4 C 111.8 9.4 110.1 9.6 110.8 9.3 C 111.3 9.2 111.4 9.2 111.5 9.3 C 112.8 9.0 110.8 9.2 109.5 9.4 C 109.5 9.4 109.5 9.4 109.5 9.4 Z M 217.2 11.9 C 216.4 11.8 217.2 12.0 217.9 12.1 C 216.0 12.1 218.9 12.7 218.9 13.0 C 218.2 12.6 215.7 12.3 215.3 12.2 C 214.6 12.1 215.4 12.5 213.4 12.2 C 213.6 12.4 215.8 12.6 215.3 12.4 C 215.8 12.7 217.9 12.8 217.7 13.0 C 220.4 13.6 221.1 13.5 221.4 13.3 C 218.7 12.9 220.2 12.7 217.8 12.4 C 217.8 12.3 218.6 12.5 219.0 12.5 C 218.9 12.3 217.9 12.1 217.2 11.9 C 217.2 11.9 217.2 11.9 217.2 11.9 Z M 150.0 6.8 C 148.5 6.8 148.6 7.0 148.7 7.2 C 149.2 7.1 150.1 7.1 151.3 7.1 C 151.0 7.0 149.2 7.0 150.0 6.8 C 150.0 6.8 150.0 6.8 150.0 6.8 Z M 207.3 10.6 C 207.2 10.5 206.7 10.5 206.7 10.5 C 205.1 10.3 204.7 10.2 204.2 10.0 C 203.3 9.9 203.6 10.1 203.5 10.2 C 205.0 10.2 204.7 10.5 206.6 10.7 C 206.5 10.6 206.8 10.6 207.3 10.6 C 207.3 10.6 207.3 10.6 207.3 10.6 Z M 163.9 7.0 C 163.1 7.0 163.5 7.1 163.9 7.1 C 163.0 7.3 160.3 7.1 159.2 7.2 C 159.1 7.4 162.5 7.4 158.6 7.4 C 159.3 7.6 162.8 7.5 164.5 7.6 C 164.1 7.8 161.7 7.7 161.9 8.0 C 163.9 7.9 166.2 7.8 166.5 7.5 C 163.6 7.4 164.6 7.2 163.9 7.0 C 163.9 7.0 163.9 7.0 163.9 7.0 Z M 167.2 7.3 C 166.9 7.1 166.3 7.3 165.2 7.2 C 166.8 7.5 167.8 7.4 171.1 7.6 C 171.1 7.6 171.1 7.5 171.1 7.5 C 171.8 7.5 172.5 7.5 173.1 7.6 C 170.3 7.2 169.5 7.3 166.5 7.3 C 166.4 7.2 166.8 7.2 167.2 7.3 C 167.2 7.3 167.2 7.3 167.2 7.3 Z M 81.3 14.4 C 82.1 14.4 82.8 14.4 84.3 14.1 C 84.1 13.9 83.2 14.0 81.3 14.4 C 81.3 14.4 81.3 14.4 81.3 14.4 Z M 209.7 11.2 C 211.5 11.3 208.1 10.9 209.1 11.3 C 210.4 11.6 211.9 11.9 212.1 12.2 C 214.7 12.2 209.4 11.4 209.7 11.2 C 209.7 11.2 209.7 11.2 209.7 11.2 Z M 198.4 10.2 C 197.6 10.1 197.7 9.8 198.4 10.1 C 200.2 10.3 196.9 9.7 199.6 10.0 C 198.5 9.8 195.8 9.4 194.5 9.4 C 194.6 9.6 197.0 9.8 197.1 10.0 C 197.2 10.1 196.8 10.0 196.4 10.0 C 196.7 10.2 197.3 10.1 198.4 10.2 C 198.4 10.2 198.4 10.2 198.4 10.2 Z M 188.8 8.8 C 189.8 9.1 191.1 9.3 193.3 9.5 C 191.8 9.2 191.1 8.9 188.8 8.8 C 188.8 8.8 188.8 8.8 188.8 8.8 Z M 298.0 49.2 C 297.3 48.3 297.7 49.3 297.7 49.4 C 298.3 50.4 298.5 50.2 299.0 51.4 C 299.1 50.9 298.2 50.0 298.0 49.2 C 298.0 49.2 298.0 49.2 298.0 49.2 Z M 299.9 52.9 C 299.8 53.1 300.5 54.4 300.4 54.5 C 301.1 55.2 300.8 56.6 301.1 56.5 C 301.2 56.8 301.2 57.1 301.4 57.7 C 301.5 56.5 300.5 54.1 299.9 52.9 C 299.9 52.9 299.9 52.9 299.9 52.9 Z M 177.6 8.5 C 175.9 8.4 178.1 8.9 176.3 8.8 C 176.2 8.9 179.6 9.1 177.6 9.1 C 180.3 9.4 177.4 8.6 177.6 8.5 C 177.6 8.5 177.6 8.5 177.6 8.5 Z M 145.4 8.2 C 145.5 8.0 143.1 8.3 142.1 8.2 C 142.1 8.3 142.9 8.3 143.4 8.3 C 143.2 8.4 142.8 8.4 142.1 8.5 C 142.7 8.6 144.4 8.3 145.4 8.2 C 145.4 8.2 145.4 8.2 145.4 8.2 Z M 181.2 4.6 C 182.3 4.9 183.7 5.2 184.5 4.9 C 185.6 5.2 183.7 5.1 185.1 5.3 C 187.0 5.4 186.0 5.5 189.0 5.7 C 188.4 5.9 190.6 6.1 191.0 6.3 C 189.8 6.2 188.3 5.8 187.7 6.0 C 188.7 6.1 188.1 6.3 187.7 6.1 C 185.7 5.8 190.1 6.0 187.7 5.6 C 187.0 5.9 183.5 5.0 181.2 4.9 C 182.1 4.8 179.5 4.5 181.2 4.6 C 181.2 4.6 181.2 4.6 181.2 4.6 Z M 192.9 6.0 C 194.5 6.2 195.3 6.8 194.8 6.7 C 194.8 6.6 193.1 6.4 192.9 6.5 C 193.3 6.5 193.7 6.6 193.6 6.6 C 190.7 6.3 191.7 6.2 191.0 6.0 C 192.6 6.0 193.0 6.2 193.6 6.2 C 193.2 6.1 192.8 6.1 192.9 6.0 C 192.9 6.0 192.9 6.0 192.9 6.0 Z M 225.4 14.9 C 225.2 14.7 224.8 14.8 224.2 14.7 C 224.2 14.4 221.0 14.2 220.7 14.0 C 221.4 14.0 223.0 14.3 223.7 14.3 C 222.9 14.1 222.7 14.0 221.9 13.9 C 222.1 13.8 223.9 14.1 224.4 14.0 C 224.5 14.2 225.4 14.2 225.6 14.3 C 223.2 14.0 226.8 15.2 225.4 14.9 C 225.4 14.9 225.4 14.9 225.4 14.9 Z M 162.6 8.3 C 162.3 8.5 165.1 9.1 162.5 9.4 C 162.0 9.2 161.7 8.9 161.9 8.6 C 160.2 8.8 159.5 8.5 158.6 8.8 C 155.6 8.0 160.9 8.9 162.6 8.3 C 162.6 8.3 162.6 8.3 162.6 8.3 Z M 152.0 8.4 C 152.5 8.2 151.1 8.2 151.3 8.1 C 152.6 8.2 156.7 8.0 155.3 8.1 C 154.0 8.2 154.0 8.4 152.0 8.4 C 152.0 8.4 152.0 8.4 152.0 8.4 Z M 73.0 108.7 C 71.1 108.4 70.3 107.7 71.4 107.9 C 70.9 108.0 73.7 108.6 73.0 108.7 C 73.0 108.7 73.0 108.7 73.0 108.7 Z M 6.2 75.6 C 6.8 77.0 7.5 77.7 7.4 78.0 C 6.5 76.8 6.7 76.8 6.0 75.7 C 5.9 75.6 5.4 75.0 5.5 74.8 C 5.8 75.4 5.9 75.2 6.2 75.6 C 6.2 75.6 6.2 75.6 6.2 75.6 Z M 111.6 5.1 C 111.4 5.1 110.7 5.1 111.0 4.9 C 112.9 4.8 115.1 4.4 116.8 4.0 C 116.8 4.1 116.8 4.3 116.8 4.4 C 113.7 4.6 112.9 4.9 111.6 5.1 C 111.6 5.1 111.6 5.1 111.6 5.1 Z M 107.7 5.1 C 107.4 5.3 108.5 5.4 107.1 5.6 C 107.2 5.4 104.7 5.5 105.8 5.3 C 106.2 5.4 106.8 5.3 107.7 5.1 C 107.7 5.1 107.7 5.1 107.7 5.1 Z M 217.8 8.7 C 219.3 9.0 217.2 8.4 217.2 8.3 C 218.3 8.5 219.8 8.8 220.3 9.0 C 219.2 8.8 218.4 9.0 217.8 8.7 C 217.8 8.7 217.8 8.7 217.8 8.7 Z M 194.3 6.1 C 190.9 5.8 192.4 5.5 189.1 5.1 C 190.4 5.1 193.4 5.4 194.3 5.3 C 194.2 5.4 195.0 5.5 194.9 5.7 C 193.7 5.6 193.6 5.4 192.3 5.3 C 192.8 5.6 192.8 5.5 192.3 5.7 C 193.2 5.8 193.8 5.8 194.3 5.8 C 194.0 5.9 195.2 6.1 194.3 6.1 C 194.3 6.1 194.3 6.1 194.3 6.1 Z M 217.1 9.3 C 218.4 9.4 219.4 9.9 218.3 9.7 C 218.1 9.5 217.3 9.6 217.0 9.4 C 218.9 9.7 215.6 9.0 216.5 9.0 C 217.6 9.2 218.0 9.2 217.7 9.0 C 218.5 9.1 219.6 9.3 219.6 9.4 C 219.1 9.3 218.4 9.2 218.4 9.2 C 218.7 9.3 219.1 9.4 219.0 9.4 C 217.9 9.2 217.4 9.2 217.1 9.3 C 217.1 9.3 217.1 9.3 217.1 9.3 Z M 208.4 7.9 C 210.1 8.1 210.2 8.4 210.8 8.6 C 208.5 8.2 208.2 7.8 206.5 7.5 C 208.4 7.8 210.3 7.8 210.9 8.0 C 210.0 8.0 208.5 7.7 208.4 7.9 C 208.4 7.9 208.4 7.9 208.4 7.9 Z M 238.0 110.1 C 236.6 110.3 235.4 110.4 233.9 110.7 C 233.4 111.1 236.4 110.9 235.1 111.0 C 233.5 111.4 234.5 110.8 233.3 111.1 C 234.6 111.1 227.7 112.7 227.4 112.4 C 228.4 112.2 228.8 112.0 228.5 111.9 C 231.3 111.3 232.3 110.9 234.4 110.3 C 235.9 110.3 240.2 109.3 242.4 108.4 C 244.0 108.4 246.5 107.2 248.6 106.9 C 249.1 106.6 246.9 107.2 248.5 106.6 C 249.6 106.6 248.8 106.9 250.3 106.6 C 250.4 106.4 250.0 106.4 250.7 106.1 C 250.7 106.3 251.6 106.0 251.9 106.0 C 249.0 106.9 252.2 106.3 249.9 107.0 C 248.9 107.2 250.8 106.3 248.1 107.2 C 247.1 107.5 246.2 107.9 246.5 108.0 C 245.8 108.3 245.3 108.4 244.9 108.6 C 245.8 108.0 241.0 109.7 243.2 108.8 C 243.3 108.8 244.9 108.4 245.9 108.0 C 244.9 108.0 243.7 108.5 242.0 109.1 C 241.2 109.1 242.2 108.7 241.3 108.9 C 240.0 109.4 241.9 109.1 240.9 109.5 C 241.4 109.4 242.0 109.2 242.0 109.3 C 239.6 109.7 238.7 110.2 237.5 110.5 C 238.3 110.1 236.0 110.6 238.0 110.1 C 238.0 110.1 238.0 110.1 238.0 110.1 Z M 257.7 103.9 C 258.2 103.7 258.7 103.5 259.2 103.3 C 259.4 103.5 257.4 104.2 258.9 103.9 C 256.6 104.7 258.9 103.6 257.7 103.9 C 257.7 103.9 257.7 103.9 257.7 103.9 Z M 246.7 106.5 C 245.8 106.5 246.4 106.9 245.7 107.1 C 247.0 106.7 248.2 106.2 248.5 106.5 C 246.9 106.9 246.2 107.1 244.6 107.6 C 246.1 106.8 242.8 107.8 242.2 107.7 C 243.4 107.3 244.4 106.9 246.1 106.4 C 245.8 106.6 248.3 106.0 246.7 106.5 C 246.7 106.5 246.7 106.5 246.7 106.5 Z M 251.0 104.8 C 251.3 104.9 253.6 104.0 253.2 104.5 C 251.8 104.9 251.3 105.1 251.7 105.2 C 250.6 105.6 250.4 105.5 249.5 105.8 C 248.8 105.7 250.5 105.2 251.0 104.9 C 250.7 105.0 250.3 105.1 251.0 104.8 C 251.0 104.8 251.0 104.8 251.0 104.8 Z M 294.6 79.3 C 295.1 79.1 293.5 80.7 293.1 80.9 C 293.8 80.6 293.6 80.9 292.6 82.0 C 292.8 81.3 291.3 82.9 290.1 83.5 C 290.0 83.9 291.4 82.8 289.8 84.2 C 288.6 85.2 287.5 86.2 285.3 87.7 C 284.7 87.9 285.6 87.2 286.2 86.7 C 284.7 87.8 285.0 87.3 283.9 88.0 C 284.2 88.0 283.3 88.7 282.8 88.8 C 284.8 87.5 279.9 90.3 282.0 88.9 C 282.2 88.9 282.7 88.5 283.2 88.1 C 282.8 88.8 285.4 86.9 286.1 86.6 C 286.8 85.4 289.5 83.6 292.1 81.4 C 292.4 81.4 291.7 82.2 292.3 81.6 C 292.3 81.5 293.1 80.7 293.4 80.3 C 293.4 80.5 293.8 80.2 294.3 79.7 C 294.3 79.7 294.3 79.6 294.6 79.3 C 294.6 79.3 294.6 79.3 294.6 79.3 Z M 132.9 116.3 C 133.1 115.9 128.8 115.9 127.7 115.9 C 127.9 115.5 135.3 116.1 132.9 116.3 C 132.9 116.3 132.9 116.3 132.9 116.3 Z M 158.6 116.6 C 157.5 116.6 158.3 116.8 157.3 116.8 C 157.3 116.6 154.8 117.1 154.7 116.9 C 155.9 116.6 156.7 116.7 158.6 116.6 C 158.6 116.6 158.6 116.6 158.6 116.6 Z M 182.3 115.7 C 180.4 115.9 183.4 115.8 183.0 115.9 C 181.3 116.0 179.6 116.1 179.7 115.9 C 181.2 115.9 182.1 115.5 182.3 115.7 C 182.3 115.7 182.3 115.7 182.3 115.7 Z M 146.8 116.3 C 145.2 116.2 147.8 115.9 148.1 116.1 C 146.3 116.1 149.2 116.3 150.7 116.3 C 150.6 116.6 150.0 116.5 150.7 116.8 C 148.4 116.8 150.3 116.5 148.7 116.5 C 147.6 116.6 148.8 116.6 148.7 116.8 C 148.1 116.8 147.4 116.8 146.8 116.8 C 146.8 116.6 146.8 116.5 146.8 116.4 C 147.6 116.4 148.3 116.4 148.1 116.2 C 147.4 116.2 147.3 116.3 146.8 116.3 C 146.8 116.3 146.8 116.3 146.8 116.3 Z M 263.8 98.1 C 262.6 98.6 263.7 98.3 264.7 97.9 C 264.9 97.7 265.5 96.9 267.0 96.6 C 264.0 98.1 268.0 96.5 266.4 97.4 C 265.6 97.4 263.8 98.5 262.3 99.0 C 261.6 99.1 263.0 98.2 263.8 98.1 C 263.8 98.1 263.8 98.1 263.8 98.1 Z M 269.4 95.8 C 269.2 95.8 268.7 96.1 267.8 96.5 C 268.7 95.9 267.3 96.4 268.5 95.8 C 268.4 96.0 272.4 94.2 270.1 95.4 C 268.0 96.2 270.7 95.2 271.6 94.8 C 270.6 95.3 268.9 96.4 268.6 96.3 C 269.1 96.0 269.6 95.8 269.4 95.8 C 269.4 95.8 269.4 95.8 269.4 95.8 Z M 299.5 71.1 C 299.4 70.9 299.1 71.6 298.9 71.7 C 299.9 69.8 300.5 68.1 300.8 67.2 C 300.6 68.1 300.7 68.2 301.0 67.7 C 300.6 68.6 300.6 68.9 300.4 69.2 C 300.5 68.3 300.1 69.9 299.5 71.1 C 299.5 71.1 299.5 71.1 299.5 71.1 Z M 299.5 71.1 " fill="#000000"></path><image xlink:href="../../CEFA4209-80C9-472B-8D2B-058B96531B72/assets/53DE529C9B23CC4742AB8E7F7EB62785.png" width="153.00" height="39.00" transform="matrix(1.00, 0.00, -0.00, -1.00, 79.0, 77.0)"></image><g><clipPath id="clip-865"><path d="M 5.9 5.9 L 304.1 5.9 L 304.1 118.3 L 5.9 118.3 Z M 5.9 5.9 "></path></clipPath><g clip-path="url(#clip-865)"><text xml:space="preserve" font-family="Chalkduster" font-size="32.0" fill="#000000" transform="matrix(1.00, 0.00, -0.00, -1.00, 82.0, 47.0)">N</text><text xml:space="preserve" font-family="Chalkduster" font-size="32.0" fill="#000000" transform="matrix(1.00, 0.00, -0.00, -1.00, 104.8, 47.0)">F</text><text xml:space="preserve" font-family="Chalkduster" font-size="32.0" fill="#000000" transform="matrix(1.00, 0.00, -0.00, -1.00, 128.6, 47.0)">S</text><text xml:space="preserve" font-family="Chalkduster" font-size="32.0" fill="#000000" transform="matrix(1.00, 0.00, -0.00, -1.00, 144.5, 47.0)"> </text><text xml:space="preserve" font-family="Chalkduster" font-size="32.0" fill="#000000" transform="matrix(1.00, 0.00, -0.00, -1.00, 160.4, 47.0)">t</text><text xml:space="preserve" font-family="Chalkduster" font-size="32.0" fill="#000000" transform="matrix(1.00, 0.00, -0.00, -1.00, 174.7, 47.0)">e</text><text xml:space="preserve" font-family="Chalkduster" font-size="32.0" fill="#000000" transform="matrix(1.00, 0.00, -0.00, -1.00, 195.3, 47.0)">s</text><text xml:space="preserve" font-family="Chalkduster" font-size="32.0" fill="#000000" transform="matrix(1.00, 0.00, -0.00, -1.00, 212.4, 47.0)">t</text></g></g></g></svg>