<?xml version="1.0" encoding="UTF-8" standalone="no"?><svg xmlns="http://www.w3.org/2000/svg" xmlns:xlink="http://www.w3.org/1999/xlink" clip-rule="evenodd" stroke-miterlimit="4.00" viewBox="0 0 157 193"><desc>SVG generated by Keynote</desc><defs></defs><g transform="matrix(1.00, 0.00, -0.00, -1.00, 0.0, 193.0)"><g><g><clipPath id="clip-1298"><path d="M 77.0 1.0 L 138.0 1.0 L 138.0 46.0 L 77.0 46.0 Z M 77.0 1.0 "></path></clipPath><g clip-path="url(#clip-1298)"><text xml:space="preserve" font-family="Chalkduster" font-size="30.0" fill="#FEFFFE" transform="matrix(1.00, 0.00, -0.00, -1.00, 78.0, 10.0)">2</text><text xml:space="preserve" font-family="Chalkduster" font-size="30.0" fill="#FEFFFE" transform="matrix(1.00, 0.00, -0.00, -1.00, 94.9, 10.0)">8</text><text xml:space="preserve" font-family="Chalkduster" font-size="30.0" fill="#FEFFFE" transform="matrix(1.00, 0.00, -0.00, -1.00, 119.0, 10.0)">7</text></g></g></g><g><g><clipPath id="clip-1299"><path d="M 91.0 74.0 L 156.0 74.0 L 156.0 119.0 L 91.0 119.0 Z M 91.0 74.0 "></path></clipPath><g clip-path="url(#clip-1299)"><text xml:space="preserve" font-family="Chalkduster" font-size="30.0" fill="#FEFFFE" transform="matrix(1.00, 0.00, -0.00, -1.00, 92.0, 83.0)">3</text><text xml:space="preserve" font-family="Chalkduster" font-size="30.0" fill="#FEFFFE" transform="matrix(1.00, 0.00, -0.00, -1.00, 112.6, 83.0)">0</text><text xml:space="preserve" font-family="Chalkduster" font-size="30.0" fill="#FEFFFE" transform="matrix(1.00, 0.00, -0.00, -1.00, 133.8, 83.0)">0</text></g></g></g><g><g><clipPath id="clip-1300"><path d="M 1.0 147.0 L 56.0 147.0 L 56.0 192.0 L 1.0 192.0 Z M 1.0 147.0 "></path></clipPath><g clip-path="url(#clip-1300)"><text xml:space="preserve" font-family="Chalkduster" font-size="30.0" fill="#FEFFFE" transform="matrix(1.00, 0.00, -0.00, -1.00, 2.0, 156.0)">2</text><text xml:space="preserve" font-family="Chalkduster" font-size="30.0" fill="#FEFFFE" transform="matrix(1.00, 0.00, -0.00, -1.00, 18.9, 156.0)">1</text><text xml:space="preserve" font-family="Chalkduster" font-size="30.0" fill="#FEFFFE" transform="matrix(1.00, 0.00, -0.00, -1.00, 37.0, 156.0)">7</text></g></g></g></g></svg>