<?xml version="1.0" encoding="UTF-8" standalone="no"?><svg xmlns="http://www.w3.org/2000/svg" xmlns:xlink="http://www.w3.org/1999/xlink" clip-rule="evenodd" stroke-miterlimit="4.00" viewBox="0 0 241 165"><desc>SVG generated by Keynote</desc><defs></defs><g transform="matrix(1.00, 0.00, -0.00, -1.00, 0.0, 165.0)"><g><clipPath id="clip-1238"><path d="M 2.0 164.0 L 182.0 164.0 L 182.0 148.0 L 2.0 148.0 Z M 2.0 164.0 "></path></clipPath><g clip-path="url(#clip-1238)"><g><clipPath id="clip-1239"><path d="M 1.7 -238.6 L 652.1 -238.6 L 652.1 201.9 L 1.7 201.9 Z M 1.7 -238.6 "></path></clipPath><g clip-path="url(#clip-1239)"><image xlink:href="../../BC2DD8B9-9C8E-42E8-94E5-5E98029C9F49/assets/EB1D23D851EEB35D21A1FEFF7AD28E55.jpeg" width="400.00" height="400.00" transform="matrix(1.00, 0.00, -0.00, -1.00, 2.0, 164.0)"></image></g></g></g></g><g><clipPath id="clip-1240"><path d="M 2.0 90.0 L 239.0 90.0 L 239.0 75.0 L 2.0 75.0 Z M 2.0 90.0 "></path></clipPath><g clip-path="url(#clip-1240)"><g><clipPath id="clip-1241"><path d="M 1.7 -238.6 L 652.1 -238.6 L 652.1 201.9 L 1.7 201.9 Z M 1.7 -238.6 "></path></clipPath><g clip-path="url(#clip-1241)"><image xlink:href="../../BC2DD8B9-9C8E-42E8-94E5-5E98029C9F49/assets/EB1D23D851EEB35D21A1FEFF7AD28E55.jpeg" width="400.00" height="400.00" transform="matrix(1.00, 0.00, -0.00, -1.00, 2.0, 90.0)"></image></g></g></g></g><g><clipPath id="clip-1242"><path d="M 2.0 17.0 L 227.0 17.0 L 227.0 2.0 L 2.0 2.0 Z M 2.0 17.0 "></path></clipPath><g clip-path="url(#clip-1242)"><g><clipPath id="clip-1243"><path d="M 1.7 -238.6 L 652.1 -238.6 L 652.1 201.9 L 1.7 201.9 Z M 1.7 -238.6 "></path></clipPath><g clip-path="url(#clip-1243)"><image xlink:href="../../BC2DD8B9-9C8E-42E8-94E5-5E98029C9F49/assets/EB1D23D851EEB35D21A1FEFF7AD28E55.jpeg" width="400.00" height="400.00" transform="matrix(1.00, 0.00, -0.00, -1.00, 2.0, 17.0)"></image></g></g></g></g></g></svg>