<?xml version="1.0" encoding="UTF-8" standalone="no"?><svg xmlns="http://www.w3.org/2000/svg" xmlns:xlink="http://www.w3.org/1999/xlink" clip-rule="evenodd" stroke-miterlimit="4.00" viewBox="0 0 309 111"><desc>SVG generated by Keynote</desc><defs></defs><g transform="matrix(1.00, 0.00, -0.00, -1.00, 0.0, 111.0)"><g><clipPath id="clip-1306"><path d="M 260.0 90.9 C 318.2 71.4 318.2 39.7 260.0 20.2 C 201.8 0.7 107.4 0.7 49.1 20.2 C -9.1 39.7 -9.1 71.4 49.1 90.9 C 107.4 110.4 201.8 110.4 260.0 90.9 Z M 260.0 90.9 "></path></clipPath><g clip-path="url(#clip-1306)"><image xlink:href="../../1BE7A03E-C66D-4413-94C1-F85C6D2757AE/assets/59DBD66EA15A3D40E065F836EF2595FD.jpeg" width="400.00" height="400.00" transform="matrix(1.00, 0.00, -0.00, -1.00, 5.5, 105.6)"></image></g></g><path d="M 76.4 9.0 C 75.9 9.2 75.4 9.3 74.6 9.5 C 75.0 9.5 75.3 9.5 75.3 9.6 C 75.9 9.4 76.8 9.2 78.2 8.9 C 78.1 8.8 77.4 9.0 77.0 9.1 C 76.4 9.2 76.5 9.1 76.4 9.0 C 76.4 9.0 76.4 9.0 76.4 9.0 Z M 67.9 99.7 C 66.7 99.4 67.9 99.9 68.4 100.0 C 68.4 100.0 68.5 100.0 68.9 100.1 C 69.0 100.3 68.0 100.1 67.2 100.0 C 64.1 99.1 66.5 99.3 67.9 99.7 C 67.9 99.7 67.9 99.7 67.9 99.7 Z M 236.0 100.7 C 238.6 100.2 235.8 100.5 235.4 100.5 C 236.6 100.2 235.5 100.0 237.0 99.6 C 237.3 99.7 237.9 99.7 238.2 99.7 C 237.6 99.9 236.6 100.0 236.5 100.2 C 237.4 100.0 238.6 99.7 238.8 99.7 C 236.9 100.2 238.5 100.0 238.9 100.1 C 237.2 100.5 236.7 100.8 236.0 100.7 C 236.0 100.7 236.0 100.7 236.0 100.7 Z M 276.5 23.8 C 277.4 24.3 278.2 24.6 277.9 24.7 C 276.9 24.2 276.3 23.9 275.7 23.6 C 275.5 23.6 275.8 23.8 274.9 23.5 C 273.9 22.8 274.6 22.8 275.2 22.9 C 275.1 23.1 278.5 24.5 276.5 23.8 C 276.5 23.8 276.5 23.8 276.5 23.8 Z M 207.1 6.5 C 204.7 6.1 206.9 6.8 204.6 6.4 C 204.7 6.2 204.3 5.9 205.9 6.1 C 206.0 6.2 206.9 6.3 207.1 6.5 C 207.1 6.5 207.1 6.5 207.1 6.5 Z M 165.3 106.7 C 165.3 106.9 167.1 106.8 166.6 107.0 C 165.8 107.1 164.9 107.1 164.0 107.1 C 163.8 106.9 164.2 106.8 165.3 106.7 C 165.3 106.7 165.3 106.7 165.3 106.7 Z M 252.0 94.3 C 254.5 93.8 256.9 92.7 256.2 93.1 C 257.2 93.1 254.8 94.3 254.8 94.0 C 254.5 93.8 250.1 94.8 252.0 94.3 C 252.0 94.3 252.0 94.3 252.0 94.3 Z M 81.9 98.4 C 84.7 99.1 84.3 98.3 86.0 99.0 C 85.4 98.9 85.1 98.9 84.9 98.9 C 85.3 99.0 86.0 99.1 86.0 99.2 C 84.7 99.0 83.0 98.8 81.9 98.4 C 81.9 98.4 81.9 98.4 81.9 98.4 Z M 118.4 3.7 C 118.9 3.7 119.1 3.6 119.0 3.5 C 121.0 3.4 121.0 3.2 122.2 3.3 C 122.3 3.6 120.6 3.6 119.0 3.7 C 119.0 3.7 118.5 3.8 118.4 3.7 C 118.4 3.7 118.4 3.7 118.4 3.7 Z M 175.8 3.6 C 175.8 3.4 174.6 3.3 176.5 3.3 C 178.6 3.7 176.7 3.9 174.5 3.9 C 174.5 4.0 174.5 4.1 174.5 4.2 C 175.4 4.3 175.9 4.3 176.4 4.4 C 176.8 4.0 178.3 4.8 181.6 4.8 C 180.0 4.8 181.7 5.2 179.6 5.0 C 180.2 5.2 178.7 5.1 179.0 5.3 C 179.9 5.2 182.1 5.4 181.6 5.1 C 182.7 5.1 183.6 5.2 184.2 5.3 C 185.0 5.6 182.1 5.2 182.9 5.6 C 183.5 5.6 183.6 5.7 184.1 5.7 C 184.3 5.6 184.0 5.5 184.8 5.5 C 186.8 5.8 184.4 5.8 187.3 6.0 C 187.5 5.9 186.7 5.8 186.7 5.7 C 188.1 5.6 188.0 5.8 189.3 5.8 C 189.5 5.9 188.3 5.9 189.3 6.0 C 190.1 5.7 191.9 6.5 193.8 6.3 C 192.6 5.7 194.1 6.4 195.7 6.1 C 196.1 6.3 194.9 6.5 196.3 6.6 C 195.9 6.0 201.5 6.7 197.0 5.7 C 199.4 6.0 200.3 5.6 198.3 5.3 C 202.5 5.9 201.2 5.4 202.8 5.6 C 204.4 5.8 201.9 5.6 202.8 5.9 C 201.1 5.7 201.5 5.9 200.3 5.6 C 200.2 5.7 199.9 5.7 199.5 5.8 C 201.3 5.8 203.3 6.4 202.0 6.5 C 201.2 6.4 202.0 6.2 200.8 6.1 C 201.2 6.5 199.6 5.9 199.5 6.1 C 200.3 6.5 197.8 6.5 200.1 6.8 C 200.1 6.7 200.2 6.5 200.2 6.4 C 200.8 6.5 201.4 6.5 202.0 6.6 C 202.5 6.9 202.1 7.0 202.6 7.1 C 203.7 7.3 204.2 7.3 204.5 7.2 C 203.3 7.0 201.8 6.6 203.9 6.8 C 203.1 7.2 206.9 7.3 205.1 7.4 C 207.4 7.8 208.6 7.6 208.8 7.9 C 210.0 8.0 209.3 7.7 210.7 7.9 C 213.0 8.4 212.6 8.0 215.6 8.7 C 216.0 8.4 215.9 8.8 216.8 9.0 C 216.9 8.8 216.9 8.7 216.9 8.6 C 217.9 8.9 220.3 9.4 222.9 9.6 C 223.5 9.8 223.0 9.9 224.6 10.2 C 226.4 10.1 228.4 10.9 230.5 10.9 C 230.7 11.2 232.1 11.4 232.8 11.5 C 233.1 11.7 232.1 11.8 233.4 12.0 C 234.3 12.0 232.8 11.6 234.6 11.9 C 234.4 12.1 236.3 12.0 236.3 12.3 C 235.7 12.3 235.1 12.2 234.5 12.2 C 235.3 12.3 235.0 12.4 235.6 12.6 C 235.6 12.2 236.9 12.8 237.4 13.0 C 237.3 12.8 237.5 12.7 238.0 12.8 C 239.0 13.0 239.7 13.2 240.3 13.2 C 241.5 13.6 239.5 13.2 240.7 13.6 C 241.5 13.1 242.6 14.1 245.2 14.4 C 245.8 14.7 246.8 15.1 248.4 15.5 C 248.6 15.4 246.9 15.0 246.9 14.9 C 249.2 15.5 246.5 14.6 248.0 15.0 C 251.4 16.0 253.5 16.7 256.9 17.9 C 256.9 17.7 259.6 18.4 259.5 18.5 C 259.1 18.4 259.5 18.6 260.0 18.8 C 260.6 19.1 262.1 19.7 263.0 20.0 C 263.7 19.9 266.7 20.5 266.9 20.4 C 267.5 20.9 267.3 20.8 267.5 21.3 C 270.5 22.6 272.2 22.9 273.8 24.0 C 273.7 23.8 275.0 24.3 276.1 24.7 C 275.8 24.8 275.1 24.6 274.4 24.5 C 275.9 25.1 276.1 25.3 277.3 25.9 C 278.8 25.9 280.4 27.6 281.7 27.6 C 283.5 28.5 283.1 28.6 284.7 29.5 C 284.7 29.4 284.9 29.4 285.4 29.6 C 284.3 29.0 283.4 28.8 283.0 28.2 C 285.5 29.5 278.5 25.0 282.8 27.0 C 282.9 27.2 282.4 27.1 283.3 27.6 C 285.6 28.8 284.4 27.8 283.4 27.3 C 285.1 28.1 286.6 29.1 285.5 28.1 C 289.0 30.1 286.7 29.0 287.8 29.8 C 293.7 33.3 299.7 38.2 303.0 44.2 C 303.4 44.2 304.8 47.5 305.0 48.6 C 305.8 50.2 306.3 52.1 306.0 52.6 C 306.3 52.9 306.0 54.8 306.3 54.9 C 306.3 54.2 306.3 53.7 306.4 54.4 C 306.4 57.0 305.6 60.7 305.3 62.2 C 304.7 63.0 304.2 64.6 303.7 65.7 C 303.5 65.8 303.9 64.9 303.5 65.6 C 303.5 65.9 302.4 68.2 301.8 68.6 C 302.3 68.0 302.5 67.1 301.9 68.0 C 302.0 68.1 301.1 69.2 301.5 69.1 C 300.4 70.4 299.8 71.3 298.7 72.3 C 299.5 71.4 299.9 70.8 299.9 70.5 C 299.3 71.4 298.9 72.0 298.1 72.5 C 298.5 72.6 297.2 73.7 295.9 75.1 C 295.4 75.3 295.0 75.5 293.8 76.5 C 293.4 77.1 295.9 75.1 294.6 76.3 C 294.5 76.2 293.1 77.2 293.6 77.1 C 291.8 78.3 291.0 79.2 289.3 80.0 C 291.3 78.8 289.6 79.5 289.1 79.8 C 288.7 80.1 288.0 80.5 288.1 80.6 C 288.1 80.6 289.1 80.0 289.3 80.0 C 287.8 80.8 287.7 81.4 287.0 81.5 C 287.6 81.1 287.7 80.9 286.9 81.4 C 287.0 81.8 282.4 84.1 283.8 83.1 C 283.9 83.2 285.6 82.2 285.7 82.0 C 285.2 82.2 282.7 83.8 283.1 83.2 C 284.6 82.4 284.6 82.6 286.2 81.5 C 286.3 81.3 287.3 80.6 287.8 80.2 C 285.3 81.8 284.7 82.4 284.2 82.3 C 283.0 83.1 283.9 82.9 281.8 84.0 C 278.7 85.5 281.1 84.0 280.3 84.3 C 277.6 85.8 278.5 85.7 279.9 85.3 C 277.6 86.4 277.0 86.9 274.1 88.1 C 274.2 87.9 274.5 87.6 275.5 87.1 C 275.6 87.2 278.0 86.2 277.7 86.2 C 277.4 86.0 275.5 86.7 272.3 88.0 C 273.2 88.0 273.2 87.8 270.0 89.2 C 270.6 89.3 268.3 89.7 268.3 90.0 C 268.5 90.0 269.7 89.5 270.8 89.1 C 270.8 89.2 270.5 89.5 269.4 90.0 C 268.6 90.2 268.1 90.5 266.0 91.2 C 265.8 91.1 267.2 90.5 267.5 90.2 C 266.4 90.7 266.2 90.9 265.0 91.3 C 263.9 91.5 263.9 91.1 263.9 90.8 C 265.2 90.2 267.2 89.5 265.5 89.9 C 270.5 88.1 265.4 90.3 267.3 89.7 C 269.2 88.6 268.3 89.5 271.4 88.2 C 272.3 87.8 272.5 87.6 272.9 87.3 C 272.6 87.4 270.8 87.9 272.7 87.0 C 273.3 87.0 274.3 86.7 275.9 86.0 C 275.8 85.9 272.7 87.2 275.8 85.8 C 277.3 85.1 276.1 86.0 278.0 85.1 C 278.0 85.0 278.6 84.7 278.7 84.6 C 275.8 86.0 279.1 84.1 277.2 84.9 C 279.6 83.6 277.7 85.0 279.3 84.2 C 279.3 84.0 281.9 82.9 281.9 82.6 C 281.0 83.3 279.0 84.2 279.1 83.9 C 281.0 83.0 288.3 78.5 285.6 80.6 C 286.6 79.8 291.1 76.3 290.9 76.7 C 289.5 77.6 289.7 77.8 289.6 78.0 C 292.0 76.0 293.4 75.2 295.3 72.9 C 292.9 75.1 294.5 73.1 292.8 74.2 C 292.1 74.8 291.1 75.6 291.0 75.8 C 291.4 75.8 292.5 74.8 292.9 74.3 C 293.0 74.5 293.1 74.6 293.3 74.8 C 290.2 77.1 288.3 78.5 286.6 79.5 C 288.0 78.6 283.5 81.0 285.2 79.9 C 286.1 79.6 287.8 78.5 289.2 77.6 C 289.2 77.5 289.1 77.4 289.1 77.4 C 289.7 76.9 290.5 76.3 290.5 76.2 C 288.8 77.6 287.6 78.1 286.3 79.1 C 286.3 79.1 286.2 79.0 286.2 79.0 C 285.9 79.2 285.5 79.4 285.6 79.3 C 286.3 78.8 287.2 78.3 287.3 78.1 C 285.8 79.0 285.4 79.0 283.6 80.0 C 283.9 79.5 281.5 80.6 283.9 79.0 C 284.4 79.0 285.8 78.2 285.8 78.4 C 286.6 78.0 287.9 77.1 288.5 76.5 C 287.8 76.8 286.4 77.7 286.1 77.5 C 287.2 76.8 288.0 76.1 288.8 75.8 C 286.7 77.5 290.0 75.2 291.0 74.8 C 290.7 74.9 290.2 75.2 289.8 75.3 C 291.4 74.1 292.2 73.7 292.0 73.3 C 293.7 71.8 293.5 72.3 294.6 71.3 C 293.6 71.7 295.2 70.5 294.2 70.9 C 296.0 69.2 295.0 70.7 295.6 70.1 C 296.1 69.5 296.0 69.4 296.5 68.8 C 297.3 68.2 298.5 66.6 298.9 66.6 C 299.4 65.9 299.5 65.8 299.9 65.1 C 300.0 64.9 300.0 64.6 300.1 64.3 C 300.3 64.2 300.6 63.7 300.6 63.5 C 299.3 65.3 299.6 64.7 298.0 66.5 C 298.0 66.7 297.8 67.0 298.2 66.7 C 297.3 68.1 296.8 68.4 295.7 69.5 C 295.5 69.5 295.0 69.5 294.1 70.8 C 294.2 70.3 293.8 70.6 294.2 70.1 C 294.9 69.6 295.7 68.9 296.4 68.2 C 296.4 68.0 296.2 68.1 296.5 67.7 C 296.9 67.4 297.5 66.8 297.7 66.3 C 297.8 66.3 297.7 66.5 297.6 66.8 C 299.0 65.0 298.3 65.5 299.3 64.2 C 299.0 64.3 298.5 65.2 298.8 64.4 C 299.4 63.2 299.7 63.0 300.0 62.4 C 300.0 62.3 299.9 62.3 300.1 61.9 C 300.6 61.2 299.6 64.1 300.6 62.6 C 300.4 62.4 301.1 61.0 301.3 60.8 C 301.4 61.4 300.7 62.2 300.9 62.3 C 302.1 59.5 301.5 62.4 302.3 59.5 C 302.2 59.5 302.1 59.4 302.0 59.4 C 301.8 60.6 301.5 60.5 301.3 60.4 C 301.0 61.4 300.5 61.6 300.3 62.5 C 300.0 62.0 300.7 61.7 301.0 60.7 C 300.8 60.7 300.4 61.5 300.2 61.6 C 301.3 59.4 301.1 58.9 301.6 56.8 C 301.3 57.3 301.6 55.6 301.4 55.8 C 301.5 57.6 300.8 56.8 300.6 57.0 C 300.6 58.2 301.1 57.7 301.1 58.5 C 300.7 58.8 300.7 58.6 300.4 58.3 C 300.6 57.3 300.6 57.5 300.5 56.7 C 300.8 56.0 301.2 55.4 301.3 56.4 C 301.3 56.2 301.2 54.8 301.3 54.7 C 301.4 56.1 301.5 54.6 301.6 55.4 C 301.7 54.3 301.2 52.5 301.0 51.2 C 300.9 51.3 300.8 50.9 300.6 51.0 C 301.3 52.2 300.8 52.5 300.9 53.7 C 300.8 53.2 300.7 53.5 300.7 53.8 C 300.7 52.6 300.3 52.0 300.2 51.1 C 300.2 51.1 300.1 51.1 300.0 51.1 C 299.8 49.7 299.7 49.9 299.0 48.8 C 298.9 48.3 299.6 48.8 299.9 48.8 C 299.5 48.3 298.5 46.3 298.9 47.6 C 298.2 46.4 298.7 46.5 297.9 45.3 C 297.6 45.4 298.4 46.5 297.9 46.3 C 297.1 45.2 297.8 45.7 296.9 44.9 C 297.1 44.7 297.2 44.6 296.4 43.6 C 296.9 44.4 296.3 43.6 295.9 43.4 C 296.3 43.8 296.5 44.3 296.7 44.5 C 295.4 42.8 295.0 42.4 293.5 41.0 C 294.2 41.4 293.5 40.5 294.5 41.4 C 293.5 40.6 292.5 39.3 291.9 38.9 C 292.4 39.5 293.4 40.4 293.7 40.9 C 290.7 38.1 288.5 36.9 285.0 34.2 C 285.7 34.6 286.5 35.2 286.7 35.2 C 286.3 34.9 285.6 34.5 285.6 34.4 C 286.9 35.3 288.1 36.1 288.7 36.5 C 289.7 37.3 288.0 36.2 289.1 37.0 C 289.3 37.0 291.1 38.6 290.6 37.8 C 288.8 36.6 287.1 35.2 286.4 34.3 C 284.3 33.4 286.2 34.6 283.8 33.6 C 283.9 33.6 283.5 33.2 282.8 32.8 C 283.3 33.5 280.6 31.7 280.3 31.6 C 281.5 32.0 285.4 34.1 283.6 32.7 C 284.2 33.8 279.0 29.9 279.8 30.9 C 277.1 29.5 278.2 29.8 276.5 29.3 C 276.5 29.1 276.8 29.1 276.0 28.7 C 275.1 28.3 274.8 28.3 274.5 28.2 C 278.6 30.3 277.2 30.0 279.7 31.3 C 279.2 31.1 278.8 30.9 278.9 31.0 C 278.9 31.1 278.8 31.1 278.3 30.8 C 278.2 30.4 276.2 29.8 275.7 29.3 C 276.5 29.7 277.3 30.0 277.1 29.8 C 273.7 28.2 274.6 28.2 269.4 25.9 C 270.9 26.7 268.8 25.9 266.9 25.1 C 264.3 24.1 265.5 24.1 262.0 22.9 C 262.1 23.3 261.2 22.9 259.7 22.4 C 258.3 21.8 257.6 21.5 256.3 21.3 C 256.7 21.1 253.5 20.0 252.8 20.1 C 252.7 20.0 251.6 19.7 250.8 19.4 C 250.6 19.2 251.6 19.4 250.8 19.2 C 250.1 19.0 250.7 19.5 249.7 19.2 C 248.6 18.8 248.9 18.6 247.2 18.2 C 247.1 18.4 248.0 18.6 247.1 18.5 C 245.6 18.0 244.2 17.6 245.4 18.2 C 243.2 17.7 244.4 17.5 242.3 17.0 C 242.9 17.3 242.8 17.3 241.7 17.1 C 240.9 16.7 240.9 16.6 240.6 16.4 C 239.9 16.5 240.2 16.6 238.4 16.1 C 238.4 16.2 238.3 16.3 238.3 16.4 C 237.5 16.2 236.3 16.0 236.1 15.8 C 237.6 16.2 237.2 15.9 237.8 15.9 C 236.3 15.6 233.4 14.7 235.6 15.4 C 233.4 15.1 234.6 15.0 232.8 14.7 C 233.8 15.2 232.9 14.7 231.1 14.4 C 231.2 14.8 229.9 14.2 228.8 14.0 C 228.9 14.2 228.6 14.3 227.6 14.1 C 227.6 14.0 227.0 13.8 225.8 13.6 C 225.8 13.8 228.2 14.3 225.8 13.9 C 224.7 13.6 224.7 13.3 222.9 12.9 C 222.5 12.6 224.6 13.1 224.2 12.8 C 222.6 12.7 222.2 12.5 220.0 12.1 C 220.8 12.6 215.5 11.9 218.1 12.6 C 217.3 12.4 216.2 12.6 215.7 12.3 C 216.5 12.3 215.1 11.9 215.1 11.9 C 214.1 11.7 211.6 11.3 211.5 11.4 C 213.8 11.7 213.8 11.9 214.5 12.2 C 211.1 11.8 208.1 11.3 208.4 11.1 C 208.4 11.2 207.9 11.1 207.8 11.2 C 209.0 11.3 209.7 11.8 208.3 11.6 C 208.7 11.4 207.7 11.2 206.6 11.0 C 206.5 11.2 202.0 10.4 202.8 10.8 C 204.7 10.8 206.1 11.4 204.7 11.3 C 203.5 11.0 201.1 10.6 201.6 10.4 C 201.0 10.4 200.3 10.4 199.7 10.5 C 199.2 10.6 200.6 10.8 200.3 10.9 C 199.4 10.8 198.0 10.7 197.8 10.6 C 200.3 10.8 196.5 10.3 199.1 10.4 C 197.5 10.2 197.2 10.1 196.0 9.9 C 196.0 10.0 195.5 10.0 195.3 10.0 C 196.5 10.0 197.5 10.2 197.2 10.4 C 194.9 10.3 195.3 10.0 193.4 9.8 C 192.9 10.0 190.3 10.1 189.0 9.8 C 191.5 10.0 188.8 9.6 190.3 9.6 C 192.6 10.0 193.2 9.8 194.1 9.7 C 193.1 9.4 191.2 9.2 190.9 9.5 C 192.2 9.6 192.2 9.4 192.9 9.5 C 192.8 9.6 192.4 9.7 191.5 9.7 C 190.5 9.4 188.1 9.4 189.7 9.2 C 188.1 9.2 186.3 8.8 184.6 8.9 C 186.5 9.0 187.8 9.2 188.4 9.5 C 186.8 9.5 185.3 9.1 185.2 9.2 C 185.4 9.5 187.9 9.6 188.4 9.8 C 186.4 9.9 183.4 9.0 185.8 9.7 C 184.7 9.6 183.1 9.5 182.6 9.3 C 184.0 9.4 182.5 9.0 182.0 8.9 C 180.8 8.8 179.9 8.8 179.4 8.9 C 181.2 8.9 182.6 9.3 181.3 9.2 C 181.0 9.1 180.7 9.2 180.1 9.2 C 180.0 9.1 177.9 9.1 177.5 8.9 C 177.7 9.1 178.6 9.1 178.8 9.2 C 177.6 9.3 175.8 9.5 174.9 9.1 C 175.7 9.2 176.8 9.2 176.8 9.1 C 173.5 8.6 172.5 8.3 168.5 8.0 C 169.0 8.0 169.3 8.0 169.1 7.9 C 166.6 7.8 165.0 7.6 165.3 7.4 C 163.7 7.4 162.9 7.6 162.1 7.7 C 163.7 7.8 164.3 7.6 165.3 7.8 C 164.7 7.9 166.5 8.3 167.2 8.5 C 170.0 8.4 170.2 8.8 173.0 8.7 C 172.2 8.9 175.1 8.9 174.3 9.1 C 171.6 8.6 169.1 8.8 165.3 8.5 C 165.8 8.4 166.2 8.2 164.7 8.0 C 162.2 7.9 163.4 8.2 161.4 8.1 C 160.5 7.9 161.7 7.9 160.7 7.8 C 160.0 7.9 158.1 7.9 157.5 7.6 C 160.2 7.7 157.0 7.4 158.8 7.3 C 157.9 7.3 157.4 7.3 156.8 7.2 C 159.4 7.5 154.2 7.6 156.2 7.8 C 152.6 7.9 155.9 7.2 153.0 7.2 C 154.4 7.4 152.5 7.5 150.4 7.5 C 149.8 7.2 147.6 7.2 145.8 7.1 C 146.7 7.3 147.4 7.3 145.8 7.5 C 146.7 7.5 148.2 7.5 149.0 7.4 C 149.0 7.5 149.3 7.6 149.7 7.6 C 147.6 7.7 148.5 7.8 147.8 7.9 C 147.1 7.8 145.6 7.8 145.2 7.7 C 145.2 7.8 144.6 7.8 144.5 7.9 C 147.3 7.9 144.1 8.2 145.8 8.3 C 147.0 8.2 146.2 8.0 147.8 8.0 C 149.2 8.3 146.6 8.3 145.8 8.6 C 147.1 8.8 148.6 8.4 149.0 8.7 C 147.4 9.0 144.8 8.9 142.6 8.8 C 142.7 9.2 139.0 8.9 138.7 9.3 C 138.4 9.2 138.0 9.1 137.5 9.1 C 136.8 9.4 136.1 9.0 135.5 9.1 C 135.4 9.2 135.6 9.3 136.1 9.4 C 133.5 9.3 132.9 9.4 129.8 9.7 C 129.3 9.6 128.7 9.4 128.4 9.3 C 129.2 9.2 129.9 9.1 130.3 9.0 C 126.1 9.2 128.9 9.7 125.9 9.5 C 126.0 9.6 128.1 9.8 126.5 10.0 C 123.8 9.8 120.1 10.4 120.2 9.7 C 117.8 9.7 116.2 10.3 115.1 10.0 C 114.4 10.1 114.1 10.2 113.8 10.3 C 114.6 10.4 115.5 10.4 116.4 10.5 C 117.8 10.3 118.4 10.4 117.0 10.2 C 119.1 10.0 119.7 10.1 120.8 10.1 C 117.9 10.5 115.3 10.5 115.2 10.9 C 114.2 10.9 113.4 10.8 112.6 10.7 C 112.3 10.9 109.1 11.3 108.9 11.1 C 111.0 10.9 113.3 10.4 111.3 10.4 C 106.0 11.1 103.0 11.1 98.4 12.0 C 98.2 11.9 98.6 11.6 97.7 11.7 C 97.7 11.9 97.6 12.0 97.1 12.1 C 95.7 12.3 94.9 12.3 92.9 12.7 C 93.0 12.4 92.7 12.3 91.6 12.4 C 91.1 12.7 89.2 13.5 88.1 13.6 C 89.3 13.4 87.7 13.3 86.9 13.5 C 87.7 13.7 81.6 14.2 83.4 14.2 C 81.0 14.6 80.0 14.7 79.9 14.6 C 79.1 14.8 78.5 15.0 77.6 15.2 C 77.1 15.0 73.1 16.1 72.5 16.1 C 73.9 15.9 74.1 15.4 73.0 15.7 C 72.3 16.1 68.8 17.1 68.1 17.2 C 68.3 17.0 68.5 16.7 70.2 16.3 C 67.3 16.9 67.4 17.3 66.5 17.7 C 66.5 17.4 65.3 18.0 64.9 18.2 C 63.9 18.2 64.9 18.0 64.8 17.8 C 63.8 18.1 63.4 18.0 62.1 18.4 C 62.5 18.5 61.0 18.8 60.5 18.9 C 60.3 19.1 59.6 19.4 58.5 19.8 C 59.9 18.9 51.9 21.3 53.8 21.0 C 52.3 21.7 52.2 21.2 50.3 21.9 C 49.9 22.2 48.8 22.5 49.8 22.3 C 49.1 22.6 48.2 22.8 47.8 22.9 C 47.5 23.0 47.0 23.0 45.4 23.7 C 46.9 23.5 42.3 24.8 43.1 24.9 C 41.6 25.0 39.4 26.5 36.9 27.2 C 36.9 27.3 36.3 27.6 36.1 27.7 C 35.8 27.9 39.1 26.6 37.0 27.6 C 34.4 28.5 35.8 27.8 35.4 27.9 C 28.8 31.0 22.3 34.7 18.0 38.1 C 18.6 37.8 18.6 37.9 17.7 38.6 C 16.2 39.2 12.4 43.5 12.1 44.2 C 11.5 44.4 10.4 46.7 10.0 47.0 C 10.3 46.6 10.5 45.7 10.0 46.5 C 9.9 47.2 9.3 47.9 9.2 48.8 C 8.7 49.1 8.1 51.7 8.0 50.4 C 7.8 50.9 7.7 51.2 7.6 51.4 C 7.9 51.5 7.7 52.0 8.1 51.2 C 7.2 53.4 7.5 54.0 7.3 55.8 C 7.4 56.1 7.5 54.7 7.6 55.7 C 7.6 55.7 7.5 55.7 7.4 55.7 C 7.4 56.1 7.6 56.3 7.5 56.4 C 7.3 56.4 7.3 55.8 7.0 55.8 C 7.2 56.6 6.9 57.2 7.2 57.5 C 7.1 56.3 7.6 57.1 7.5 57.8 C 7.2 57.2 8.1 60.6 8.7 61.7 C 8.7 62.3 8.2 60.5 8.1 60.7 C 8.8 62.8 8.8 62.6 9.2 62.8 C 9.6 63.9 9.7 64.4 10.8 65.6 C 11.2 66.5 10.3 65.3 10.8 66.1 C 11.2 66.6 11.5 66.7 12.1 67.4 C 13.2 69.7 18.8 73.6 21.4 76.4 C 20.3 75.4 22.0 76.4 23.7 77.5 C 23.8 77.7 23.5 77.7 24.1 78.1 C 24.1 77.9 24.8 78.2 26.0 78.9 C 26.1 79.1 25.8 79.0 26.5 79.5 C 27.1 79.5 28.6 80.7 29.7 81.0 C 30.0 81.5 27.3 79.9 27.0 80.0 C 30.1 81.9 30.9 81.9 33.6 83.3 C 32.1 82.7 34.5 84.0 34.9 84.3 C 34.4 83.7 36.7 84.7 35.1 83.8 C 36.2 84.3 37.9 85.0 38.0 85.1 C 37.4 84.9 36.5 84.5 36.5 84.6 C 37.9 85.1 39.6 86.1 40.3 86.2 C 39.4 85.8 38.8 85.4 38.9 85.3 C 39.3 85.4 39.7 85.5 40.5 85.7 C 38.1 85.4 44.8 87.8 45.3 87.7 C 45.8 88.3 46.2 88.5 45.9 88.6 C 48.9 89.7 49.0 89.4 50.1 89.7 C 49.7 89.8 49.3 89.9 50.9 90.6 C 50.6 90.2 52.6 90.9 52.1 90.3 C 56.3 91.6 57.1 92.2 59.8 92.9 C 59.8 92.8 59.0 92.5 59.8 92.7 C 61.0 93.1 62.1 93.5 62.9 93.9 C 63.6 93.9 62.7 93.6 63.5 93.7 C 65.4 94.5 64.9 94.6 66.6 95.2 C 68.8 95.6 68.0 95.5 69.4 95.6 C 68.8 95.4 68.1 95.1 68.9 95.3 C 70.2 95.8 70.7 96.2 71.0 96.4 C 70.0 96.1 69.3 95.9 68.8 95.8 C 68.4 95.8 67.1 95.5 68.2 95.9 C 66.8 95.5 65.3 95.1 63.2 94.6 C 63.9 95.1 61.5 94.2 62.1 94.7 C 64.3 95.2 64.8 95.5 67.0 96.0 C 66.6 95.6 68.8 96.3 69.2 96.4 C 69.3 96.3 70.8 96.7 70.4 96.4 C 72.1 96.7 72.0 96.9 73.8 97.2 C 73.9 97.3 73.6 97.4 74.3 97.6 C 74.9 97.4 75.4 97.9 76.0 98.0 C 75.6 97.7 78.1 98.3 78.3 98.2 C 77.7 98.0 76.7 97.9 76.6 97.7 C 79.4 98.3 77.2 97.6 76.7 97.3 C 76.8 97.5 75.7 97.6 75.5 97.4 C 77.9 97.6 72.4 96.3 74.4 96.8 C 76.2 97.2 76.1 97.0 77.9 97.4 C 79.9 98.3 77.4 98.0 79.5 98.8 C 80.8 98.9 81.7 99.1 81.9 98.9 C 82.1 99.0 82.4 99.2 83.0 99.3 C 83.6 99.3 81.3 98.7 83.0 99.0 C 83.9 99.2 82.8 99.4 84.7 99.6 C 85.6 99.6 82.5 99.0 84.2 99.2 C 86.0 99.9 83.8 99.0 86.0 99.4 C 86.1 99.5 86.5 99.5 87.2 99.6 C 87.3 99.8 86.9 99.9 87.7 100.1 C 88.2 99.7 88.5 100.4 90.1 100.5 C 91.0 100.4 88.5 100.1 89.0 99.9 C 90.7 100.5 91.8 100.4 92.5 100.5 C 91.0 100.5 94.8 101.0 94.9 101.3 C 94.5 100.9 95.3 101.2 97.5 101.2 C 97.5 101.7 100.0 101.7 100.5 102.1 C 100.8 102.0 101.4 102.0 101.7 102.0 C 101.0 101.9 100.3 101.8 100.5 101.6 C 101.1 101.7 101.7 101.8 102.4 101.9 C 103.4 102.2 100.6 102.4 104.8 102.8 C 104.3 102.4 106.1 102.6 107.3 102.6 C 107.2 102.3 105.6 102.4 105.5 102.3 C 106.9 102.2 108.3 102.6 109.2 102.8 C 111.6 103.0 114.5 103.4 118.0 103.6 C 118.8 103.9 115.0 103.5 117.4 103.9 C 118.4 103.9 117.9 103.7 119.3 103.9 C 117.9 104.8 128.9 104.7 129.5 105.2 C 130.0 105.0 133.1 105.3 132.8 105.0 C 130.7 105.1 129.2 104.7 128.3 104.5 C 126.3 104.5 130.0 104.8 128.2 104.8 C 128.1 104.6 125.4 104.6 125.7 104.4 C 128.4 104.6 124.3 104.1 126.3 104.0 C 128.9 104.2 134.0 104.2 132.8 104.4 C 132.8 104.3 131.7 104.3 131.5 104.4 C 134.4 104.6 136.1 104.5 137.3 104.4 C 138.7 104.6 143.9 104.4 142.5 104.6 C 143.0 104.8 139.4 104.4 139.9 104.6 C 145.3 104.9 145.4 104.7 149.0 104.9 C 147.9 104.6 152.7 104.5 152.3 104.6 C 152.3 104.9 153.4 105.1 155.5 104.8 C 155.2 105.0 156.4 105.1 157.5 105.2 C 158.0 105.0 156.6 105.0 156.8 104.8 C 157.9 104.8 159.0 104.8 160.1 104.8 C 160.2 104.9 160.0 105.0 160.7 105.0 C 162.0 104.8 166.3 104.5 165.9 104.7 C 164.1 105.0 168.9 104.8 166.0 105.1 C 166.8 105.1 166.8 105.2 167.9 105.2 C 167.9 105.1 167.9 104.9 167.9 104.8 C 170.3 104.7 169.1 105.2 171.2 105.1 C 171.3 105.0 172.2 105.0 172.5 104.8 C 171.7 104.9 171.6 105.0 170.5 105.0 C 171.7 104.6 168.4 104.8 168.5 104.6 C 170.8 104.5 170.8 104.7 171.8 104.8 C 174.6 104.5 173.3 104.7 176.3 104.6 C 176.3 104.5 175.5 104.5 175.7 104.4 C 179.3 104.3 179.0 104.8 181.5 104.5 C 180.9 104.5 178.7 104.8 180.2 104.8 C 181.9 104.6 182.4 104.3 184.7 104.1 C 184.8 104.2 184.6 104.3 185.4 104.3 C 186.3 104.1 186.3 103.9 187.2 103.7 C 187.4 103.9 188.6 103.7 189.1 103.6 C 190.0 103.7 188.9 103.9 189.8 103.9 C 191.7 103.7 192.7 103.1 194.2 103.0 C 194.2 103.3 195.9 103.1 197.4 102.9 C 197.7 103.1 200.9 102.7 203.1 102.6 C 202.6 102.4 204.7 102.2 204.2 102.0 C 203.2 102.2 202.7 102.2 202.4 102.1 C 204.8 101.8 205.6 102.2 207.4 101.6 C 208.3 101.6 209.4 101.6 211.1 101.5 C 211.2 101.3 208.2 101.6 209.8 101.3 C 210.0 101.4 210.5 101.3 211.0 101.2 C 210.8 101.5 212.1 101.3 212.9 101.4 C 214.3 101.0 217.3 100.9 215.9 100.8 C 218.2 100.4 216.8 101.0 218.5 100.8 C 217.5 100.6 220.5 100.1 219.0 100.1 C 221.2 99.7 221.1 100.1 220.2 100.4 C 222.3 100.1 222.7 99.8 223.8 99.8 C 222.8 99.7 225.9 99.0 224.3 99.5 C 223.9 99.8 226.3 99.2 226.7 99.3 C 226.0 99.2 227.1 99.0 225.5 99.2 C 227.1 98.8 229.3 98.4 230.8 98.3 C 232.7 97.8 234.5 97.4 233.7 97.8 C 235.4 97.4 234.8 97.5 236.6 97.2 C 236.5 97.1 236.0 97.2 235.9 97.2 C 238.3 96.6 237.9 96.9 241.0 96.2 C 240.7 96.6 242.7 96.1 243.4 96.1 C 242.1 96.4 241.0 96.6 240.0 96.8 C 239.8 96.9 240.8 96.8 240.0 97.0 C 239.9 96.9 239.4 97.0 238.9 97.1 C 241.0 96.8 236.4 98.1 237.8 97.5 C 237.8 97.6 237.9 97.6 238.3 97.5 C 237.9 97.3 237.9 97.4 238.3 97.1 C 237.2 97.4 236.3 97.3 236.0 97.6 C 236.1 97.7 237.1 97.4 237.2 97.5 C 234.6 98.2 236.4 97.3 234.3 97.9 C 233.9 98.2 235.0 98.1 235.5 98.1 C 233.7 98.5 232.0 98.8 231.5 98.8 C 229.7 99.2 231.6 98.9 230.4 99.3 C 229.8 99.3 229.8 99.1 228.6 99.3 C 227.3 99.7 229.4 99.4 228.1 99.7 C 226.6 99.8 229.0 99.2 226.8 99.5 C 227.4 99.8 224.8 99.8 225.0 100.0 C 226.3 99.7 226.4 100.1 225.7 100.0 C 222.7 100.2 220.9 101.4 217.9 101.3 C 217.9 101.4 217.4 101.4 217.3 101.5 C 219.5 101.4 222.7 100.8 223.4 101.1 C 225.1 100.7 224.8 100.5 225.1 100.4 C 227.2 100.3 227.0 100.4 225.9 101.0 C 222.5 101.7 221.0 101.7 218.7 102.0 C 217.5 102.4 218.8 102.0 219.3 102.1 C 212.1 103.0 217.7 102.9 215.1 103.2 C 215.1 103.0 214.6 103.0 213.9 103.1 C 213.9 103.2 212.8 103.3 212.6 103.4 C 213.1 103.4 213.4 103.4 213.2 103.5 C 211.5 103.9 212.1 103.5 212.0 103.4 C 213.4 103.2 214.3 103.0 214.4 102.9 C 212.7 103.2 211.3 103.2 210.1 103.6 C 208.4 103.5 211.0 102.8 210.0 102.7 C 210.3 102.4 209.0 103.4 207.6 103.7 C 205.4 104.0 205.4 104.2 203.3 104.5 C 202.7 104.3 205.3 104.1 205.1 103.9 C 204.5 104.0 204.4 104.0 203.9 104.0 C 202.4 104.2 202.5 104.4 201.4 104.6 C 200.7 104.4 200.4 104.6 199.5 104.8 C 198.1 104.8 200.3 104.5 198.8 104.6 C 197.3 104.7 196.2 105.2 195.7 105.2 C 195.6 105.1 195.8 105.0 195.1 105.0 C 193.3 105.4 192.9 105.4 195.1 105.3 C 193.1 105.5 192.3 105.7 192.6 105.9 C 195.6 105.7 196.3 105.5 197.7 105.7 C 198.2 105.4 199.1 105.5 200.2 105.5 C 199.5 105.1 201.5 105.3 202.1 105.0 C 201.4 105.1 200.6 105.1 200.2 105.1 C 203.3 104.8 203.3 104.8 205.8 104.1 C 205.8 104.2 206.1 104.2 206.4 104.3 C 205.6 104.5 203.4 104.7 203.3 104.9 C 205.1 105.0 205.7 104.4 207.7 104.5 C 208.6 104.2 206.1 104.4 207.7 104.2 C 208.5 104.3 209.6 104.3 210.8 104.2 C 212.1 104.0 212.8 103.7 213.9 103.5 C 214.0 103.6 214.1 103.7 215.1 103.5 C 215.1 103.4 214.0 103.5 215.1 103.3 C 218.4 103.1 220.5 103.0 223.6 102.3 C 222.5 102.4 220.0 102.6 221.2 102.4 C 222.6 102.3 224.5 101.7 226.0 101.6 C 226.5 101.6 224.2 101.8 224.8 102.2 C 226.2 101.9 227.1 101.8 227.8 101.7 C 227.8 101.5 229.4 101.3 228.9 101.1 C 227.8 101.3 227.5 101.7 227.2 101.6 C 228.0 100.8 231.5 101.0 233.7 100.6 C 235.1 100.2 232.6 100.6 234.2 100.2 C 235.2 99.9 235.8 100.3 234.3 100.7 C 233.2 100.8 232.8 101.2 232.5 101.0 C 232.1 101.1 231.4 101.2 231.4 101.3 C 232.2 101.2 232.1 101.4 232.6 101.3 C 231.4 101.5 231.4 102.0 230.3 101.9 C 231.0 101.8 231.2 101.7 231.4 101.6 C 228.3 102.3 227.3 102.2 225.5 102.4 C 226.5 102.4 225.4 102.6 225.5 102.8 C 226.9 102.4 229.5 102.1 227.9 102.5 C 226.8 102.4 226.1 103.3 225.0 103.2 C 225.8 103.0 225.7 102.9 226.1 102.7 C 224.9 102.9 224.9 102.7 223.7 102.9 C 219.8 104.0 216.8 103.8 210.4 105.2 C 208.1 105.5 212.4 104.8 212.2 104.6 C 211.5 104.7 211.4 104.7 210.9 104.7 C 210.9 105.0 209.8 104.9 209.1 105.2 C 209.2 105.0 206.1 105.6 204.6 105.5 C 204.6 105.6 204.8 105.7 204.1 105.8 C 199.4 106.0 191.0 107.3 187.5 107.3 C 187.6 107.5 186.0 107.6 185.6 107.7 C 183.3 107.8 184.3 107.6 181.1 108.0 C 179.4 108.2 181.4 107.8 181.7 107.7 C 176.8 108.2 172.4 108.1 169.3 108.5 C 167.7 108.6 169.3 108.3 166.0 108.3 C 166.0 108.7 160.9 108.3 160.2 108.7 C 158.2 108.8 154.6 108.3 156.2 108.6 C 153.5 108.7 155.3 108.3 154.2 108.3 C 152.3 108.4 154.8 108.9 152.9 109.0 C 153.1 108.7 151.5 108.8 150.3 108.5 C 151.8 108.6 152.7 108.5 152.9 108.4 C 151.6 108.5 151.7 108.4 149.7 108.4 C 148.1 108.5 143.7 108.6 142.4 108.2 C 142.4 108.4 142.7 108.4 143.1 108.5 C 141.8 108.5 140.3 108.2 140.4 108.5 C 137.5 108.4 136.2 108.1 134.6 108.3 C 133.3 108.3 135.0 108.1 131.3 107.9 C 131.2 108.1 124.6 107.7 122.9 107.4 C 122.8 107.7 122.4 107.3 121.6 107.3 C 121.5 107.4 121.7 107.5 120.9 107.5 C 120.8 107.3 120.2 107.3 119.7 107.4 C 120.1 107.0 117.3 107.3 117.1 107.0 C 117.7 107.0 117.7 106.8 117.1 106.7 C 116.9 107.0 114.3 106.3 114.6 106.6 C 115.1 106.7 116.9 106.8 116.4 107.0 C 113.9 106.9 114.9 106.6 113.3 106.5 C 113.4 106.6 114.4 106.8 113.2 106.7 C 111.5 106.5 113.1 106.7 112.0 106.3 C 111.1 106.3 109.4 106.3 108.8 106.3 C 109.0 106.3 108.4 106.1 108.2 106.0 C 104.9 105.6 97.6 104.9 94.6 104.1 C 94.3 104.2 93.6 104.2 93.8 104.4 C 92.0 103.9 92.1 104.0 90.2 103.6 C 90.2 103.7 90.2 103.9 90.2 104.0 C 87.7 103.7 90.0 103.6 88.4 103.3 C 88.1 103.9 87.5 103.0 86.0 102.8 C 85.8 102.9 85.1 102.8 85.3 103.0 C 83.1 102.6 83.2 102.2 81.3 102.0 C 81.7 102.1 81.9 102.9 81.7 103.1 C 81.3 103.0 80.8 102.8 79.9 102.6 C 81.0 102.5 80.6 101.5 77.7 101.2 C 79.3 101.5 79.8 101.7 79.5 101.8 C 77.3 101.4 76.6 101.1 74.8 100.7 C 74.5 100.9 75.8 101.2 75.3 101.4 C 74.8 101.3 74.6 101.3 74.7 101.4 C 72.8 101.0 72.8 100.8 70.7 100.5 C 70.7 100.3 71.1 100.4 71.8 100.7 C 71.8 100.4 71.8 100.2 73.1 100.5 C 73.2 100.7 72.4 100.8 74.2 101.1 C 74.2 100.9 74.2 100.8 74.2 100.7 C 73.0 100.4 70.0 99.5 69.7 99.6 C 70.3 99.8 71.3 100.1 70.7 100.2 C 68.6 99.7 68.0 99.3 66.3 98.7 C 63.3 98.0 58.0 96.6 58.6 97.1 C 56.8 96.5 57.4 96.7 55.9 96.2 C 56.3 96.6 54.1 95.8 54.2 96.0 C 56.1 96.5 55.6 96.4 57.5 96.9 C 57.4 97.0 57.0 97.0 56.3 96.9 C 56.2 96.7 55.4 96.4 54.2 96.1 C 54.4 96.2 55.4 96.8 54.1 96.4 C 54.0 96.3 53.7 96.2 53.1 96.0 C 53.1 95.9 53.2 95.7 53.2 95.6 C 54.0 95.8 54.8 96.0 55.4 96.0 C 54.9 95.9 54.8 95.8 54.3 95.6 C 54.0 95.7 51.9 94.9 51.7 95.0 C 52.6 95.2 53.1 95.5 52.2 95.3 C 52.0 95.2 50.6 94.7 50.1 94.6 C 51.9 95.3 51.1 95.1 52.0 95.7 C 51.0 95.4 50.6 95.2 50.1 95.0 C 49.9 94.9 49.6 94.8 49.3 94.6 C 49.0 94.5 49.0 94.5 47.9 94.2 C 47.9 94.0 48.1 93.8 48.7 93.9 C 48.0 93.4 45.6 92.6 43.6 91.9 C 41.5 91.2 39.6 90.6 38.7 90.2 C 40.0 90.7 41.5 91.0 39.6 90.2 C 39.6 90.3 38.2 89.7 37.9 89.7 C 37.1 89.9 38.7 90.8 40.0 91.6 C 38.5 91.0 38.1 90.9 36.8 90.3 C 36.4 90.0 37.9 90.3 36.2 89.5 C 35.7 89.7 33.0 88.1 32.3 88.1 C 33.4 88.6 34.2 89.1 32.9 88.6 C 33.2 88.5 30.8 87.5 30.8 87.3 C 32.8 88.1 33.4 88.2 34.6 88.7 C 33.1 88.0 35.9 89.1 33.3 87.9 C 32.0 87.5 31.3 87.4 28.7 86.1 C 27.8 85.6 28.8 85.8 27.5 85.2 C 27.8 85.5 25.1 84.2 26.8 84.8 C 25.9 84.4 25.4 84.1 24.9 83.7 C 26.1 84.6 20.1 81.4 20.8 82.1 C 21.0 81.8 20.9 81.4 20.6 81.2 C 19.4 80.7 18.3 79.7 15.7 77.8 C 15.6 78.1 15.3 77.5 14.3 76.7 C 14.0 76.6 14.8 77.4 14.1 76.9 C 13.0 75.8 13.0 75.8 12.9 75.5 C 12.1 74.8 11.5 74.2 11.2 73.8 C 11.1 73.9 11.3 74.2 11.4 74.4 C 8.8 71.5 7.4 70.2 5.9 67.7 C 6.4 68.8 6.9 68.8 6.4 68.0 C 6.0 67.5 5.7 67.0 5.4 66.8 C 5.6 67.5 5.5 67.2 4.9 65.9 C 4.2 64.8 4.7 66.5 4.3 65.7 C 3.9 64.6 4.3 65.2 4.1 64.6 C 3.9 64.2 3.7 63.7 3.5 63.2 C 3.7 64.1 3.3 63.2 2.9 62.4 C 3.4 62.9 3.3 62.6 2.7 61.0 C 2.8 60.7 3.1 61.6 3.0 60.9 C 2.9 60.5 2.2 59.3 2.3 58.1 C 2.4 58.5 2.5 58.7 2.6 58.6 C 2.2 57.4 2.5 56.4 2.6 55.3 C 2.4 56.4 2.2 55.8 2.0 56.3 C 2.2 55.2 2.0 53.8 2.4 53.0 C 2.1 54.6 2.9 53.1 3.0 52.1 C 2.8 51.8 2.6 53.5 2.4 53.0 C 2.3 52.4 2.9 51.3 2.8 50.7 C 2.6 50.7 2.7 51.4 2.5 51.5 C 2.6 50.7 2.3 51.8 2.4 51.1 C 2.8 50.7 2.6 50.1 2.7 49.6 C 3.0 49.0 3.7 48.0 3.8 47.4 C 3.7 47.4 3.4 48.2 3.3 48.2 C 4.0 45.7 4.8 45.1 5.9 42.8 C 6.2 42.6 6.5 42.2 7.0 41.6 C 6.9 41.6 7.1 41.2 7.5 40.7 C 8.3 39.8 9.1 39.0 10.3 37.9 C 10.2 38.3 9.8 38.8 11.3 37.3 C 11.3 37.2 10.6 37.8 11.2 37.2 C 11.2 37.3 11.6 36.9 11.6 36.8 C 11.6 36.8 11.5 36.7 11.5 36.7 C 11.0 37.1 10.7 37.5 10.3 37.9 C 10.2 37.8 10.0 37.8 9.7 38.1 C 11.3 36.2 11.5 36.7 12.7 35.4 C 13.1 35.5 13.6 35.2 12.7 36.3 C 13.8 35.3 14.5 34.5 14.7 34.0 C 13.3 35.3 13.6 34.7 13.1 34.9 C 14.0 34.1 13.9 34.0 14.4 33.6 C 15.6 32.9 13.5 34.9 15.7 33.2 C 13.8 34.2 16.9 31.9 18.2 31.1 C 17.9 31.2 17.5 31.5 18.1 30.9 C 21.2 28.6 21.5 29.5 23.4 27.8 C 23.3 28.0 24.4 27.4 24.9 27.3 C 23.0 28.4 22.6 28.7 21.9 29.2 C 22.0 29.2 22.6 28.9 23.1 28.6 C 23.0 28.5 23.5 28.2 24.4 27.8 C 24.8 27.4 24.4 27.2 25.9 26.1 C 26.1 26.2 25.9 26.4 26.7 26.0 C 27.3 25.4 26.2 26.6 29.6 24.8 C 29.0 25.1 28.6 25.1 28.8 24.8 C 30.3 23.9 30.0 24.2 32.3 23.0 C 33.3 23.0 30.9 24.2 30.4 24.7 C 31.9 23.9 33.1 23.1 34.8 22.5 C 33.5 23.0 34.7 22.2 36.2 21.5 C 37.6 21.0 36.2 21.9 37.9 21.2 C 39.2 20.6 39.9 20.1 38.6 20.5 C 41.6 19.4 40.8 19.4 43.5 18.4 C 43.6 18.5 42.9 18.8 41.9 19.1 C 42.1 19.2 41.8 19.4 42.8 19.0 C 43.6 18.6 45.0 18.1 46.5 17.5 C 48.0 16.9 48.9 16.6 49.5 16.3 C 51.9 16.0 54.4 14.6 56.9 14.1 C 55.9 14.6 60.0 13.3 61.3 13.2 C 62.0 13.0 64.2 11.9 63.4 12.3 C 63.7 12.6 65.1 12.1 66.3 11.9 C 66.2 11.8 66.2 11.7 66.2 11.6 C 68.7 11.0 69.3 11.1 70.2 11.1 C 73.3 10.2 76.8 9.9 80.6 8.9 C 81.7 9.0 82.5 8.7 84.9 8.5 C 84.8 8.3 86.6 7.9 88.4 7.6 C 88.0 7.5 89.6 7.3 89.6 7.1 C 88.0 7.4 88.5 7.0 87.7 7.0 C 89.9 6.9 90.9 6.3 92.6 6.3 C 90.5 6.7 89.9 7.1 89.7 7.5 C 92.1 7.1 93.5 7.0 94.0 7.1 C 94.1 6.9 93.8 6.8 93.3 6.8 C 94.1 6.7 94.9 6.6 95.7 6.4 C 96.0 6.6 94.8 6.8 95.7 6.7 C 96.3 6.5 97.0 6.3 97.6 6.2 C 98.3 6.3 96.6 6.5 96.4 6.7 C 99.7 6.3 98.2 6.0 100.0 5.7 C 100.5 5.8 100.4 6.1 102.0 5.9 C 102.6 5.7 102.7 5.5 104.4 5.2 C 105.5 5.1 104.4 5.6 105.7 5.5 C 105.9 5.4 106.4 5.3 107.0 5.3 C 106.9 5.2 107.5 5.1 108.2 5.0 C 108.4 5.1 109.6 4.9 110.1 4.8 C 110.2 4.9 112.2 5.0 112.7 4.7 C 112.7 4.6 111.5 4.8 111.4 4.7 C 112.8 4.6 113.8 4.5 114.6 4.3 C 115.1 4.8 117.4 4.2 120.3 4.2 C 122.2 3.9 119.9 3.8 122.3 3.5 C 123.6 3.6 122.0 3.8 122.3 4.0 C 122.7 4.0 124.8 4.0 124.9 3.8 C 124.9 3.7 123.7 3.8 123.6 3.7 C 125.3 3.4 125.2 3.7 126.2 3.7 C 126.1 3.5 127.2 3.4 127.4 3.3 C 132.1 2.8 132.1 3.3 134.0 3.4 C 134.0 3.3 135.1 3.3 135.2 3.2 C 133.9 3.3 132.1 3.2 134.0 3.1 C 133.7 3.2 136.4 3.0 136.6 2.9 C 136.2 2.8 134.5 2.9 135.2 2.6 C 137.7 2.4 136.7 2.9 138.5 2.6 C 138.7 2.8 137.7 2.8 137.2 2.9 C 138.0 2.9 139.1 2.8 139.2 2.9 C 138.2 3.0 138.2 3.2 137.9 3.4 C 139.1 3.1 141.4 3.3 139.8 3.0 C 142.4 3.0 144.9 2.8 143.1 2.6 C 145.2 2.5 144.0 2.8 145.8 2.6 C 145.5 2.9 145.0 3.0 146.4 3.2 C 146.7 3.1 147.8 3.0 147.7 2.8 C 150.8 2.8 151.7 3.0 153.0 3.2 C 151.8 2.9 153.4 3.2 154.9 2.9 C 155.9 3.0 155.0 3.3 157.5 3.2 C 154.8 2.9 160.7 3.2 159.5 2.8 C 162.8 3.0 162.7 3.0 166.1 3.1 C 165.8 3.3 165.0 3.4 163.5 3.4 C 164.5 3.2 160.6 3.1 160.9 3.3 C 160.9 3.3 160.9 3.4 160.9 3.4 C 163.4 3.4 165.0 3.5 166.1 3.7 C 166.6 3.5 167.8 3.5 167.4 3.2 C 169.7 3.6 172.2 3.2 173.3 3.5 C 172.5 3.5 171.7 3.5 172.0 3.7 C 172.9 3.6 174.1 3.6 173.9 3.4 C 172.0 3.3 171.7 3.2 170.7 3.4 C 171.5 3.2 168.8 3.0 170.7 3.0 C 170.6 3.3 174.6 2.9 173.3 3.2 C 171.2 3.2 175.7 3.5 175.8 3.6 C 175.8 3.6 175.8 3.6 175.8 3.6 Z M 224.3 102.8 C 226.1 102.4 223.8 102.5 222.5 102.8 C 222.9 102.8 223.1 102.9 223.1 103.0 C 223.6 102.9 224.1 102.7 224.3 102.8 C 224.3 102.8 224.3 102.8 224.3 102.8 Z M 204.3 102.2 C 203.7 102.5 206.7 102.0 208.0 101.9 C 207.6 101.9 207.2 101.8 208.0 101.7 C 206.6 101.7 206.2 102.2 204.3 102.2 C 204.3 102.2 204.3 102.2 204.3 102.2 Z M 132.7 105.4 C 133.3 105.4 134.5 105.3 134.6 105.5 C 135.4 105.5 135.2 105.4 135.4 105.3 C 136.9 105.3 135.0 105.6 137.3 105.6 C 138.2 105.2 133.3 104.8 132.7 105.4 C 132.7 105.4 132.7 105.4 132.7 105.4 Z M 151.0 6.7 C 151.9 6.9 149.7 7.1 150.4 7.3 C 154.0 7.1 151.2 6.8 156.2 6.9 C 155.9 6.8 155.5 6.8 155.6 6.7 C 153.2 6.8 153.0 6.9 153.6 6.5 C 152.5 6.5 152.3 7.0 151.0 6.7 C 151.0 6.7 151.0 6.7 151.0 6.7 Z M 197.3 9.9 C 196.9 9.8 196.6 9.7 196.6 9.6 C 195.1 9.5 195.4 9.6 193.5 9.3 C 193.7 9.7 195.6 9.9 197.3 9.9 C 197.3 9.9 197.3 9.9 197.3 9.9 Z M 299.8 50.1 C 299.9 50.3 300.0 50.5 300.1 50.8 C 300.2 50.6 300.7 51.1 300.2 49.9 C 300.1 49.9 300.2 50.1 300.2 50.3 C 300.1 50.1 299.9 49.6 299.8 49.7 C 299.9 50.0 299.9 50.1 299.8 50.1 C 299.8 50.1 299.8 50.1 299.8 50.1 Z M 284.9 79.3 C 287.0 77.7 281.2 80.6 284.9 79.3 C 284.9 79.3 284.9 79.3 284.9 79.3 C 284.9 79.3 284.9 79.3 284.9 79.3 Z M 290.9 78.7 C 291.0 78.7 291.4 78.3 291.4 78.3 C 293.1 77.1 291.5 78.4 292.6 77.8 C 293.8 76.7 291.7 78.0 293.2 76.6 C 292.8 76.7 291.9 77.9 290.9 78.7 C 290.9 78.7 290.9 78.7 290.9 78.7 Z M 21.1 29.4 C 19.5 30.5 19.3 31.0 19.1 31.4 C 20.1 30.7 21.1 30.1 21.5 30.0 C 23.4 28.6 20.0 30.7 19.7 30.9 C 19.8 30.6 21.2 29.6 21.1 29.4 C 21.1 29.4 21.1 29.4 21.1 29.4 Z M 16.2 32.9 C 15.7 33.4 14.9 34.2 15.0 34.3 C 15.8 33.6 16.0 33.6 16.1 33.7 C 16.8 33.0 15.7 33.6 16.2 32.9 C 16.2 32.9 16.2 32.9 16.2 32.9 Z M 26.2 26.8 C 25.4 27.2 25.8 27.2 25.8 27.4 C 26.9 26.7 27.2 26.7 28.4 26.0 C 28.4 26.0 28.4 25.9 28.3 25.8 C 27.3 26.4 27.2 26.5 26.3 27.0 C 26.3 26.9 26.3 26.8 26.2 26.8 C 26.2 26.8 26.2 26.8 26.2 26.8 Z M 12.2 36.6 C 10.0 38.7 9.5 40.0 8.7 41.6 C 9.8 40.0 10.8 38.3 12.0 37.3 C 13.3 35.9 11.5 37.6 11.4 37.5 C 11.4 37.4 11.9 37.0 12.2 36.6 C 12.2 36.6 12.2 36.6 12.2 36.6 Z M 2.7 56.7 C 2.5 57.2 3.0 58.1 3.2 59.4 C 3.2 59.2 3.2 58.9 3.3 58.9 C 3.1 57.0 2.8 58.2 2.7 56.7 C 2.7 56.7 2.7 56.7 2.7 56.7 Z M 6.7 67.8 C 7.4 68.9 6.4 67.1 7.0 67.6 C 6.2 66.4 5.5 65.0 5.3 65.2 C 6.1 66.4 6.3 66.7 6.7 67.8 C 6.7 67.8 6.7 67.8 6.7 67.8 Z M 13.2 75.1 C 14.6 76.2 12.8 74.4 13.6 74.7 C 13.0 74.3 13.1 74.5 13.0 74.5 C 12.6 74.1 12.3 73.8 11.8 73.3 C 12.1 73.8 13.5 75.1 13.2 75.1 C 13.2 75.1 13.2 75.1 13.2 75.1 Z M 68.1 12.2 C 67.1 12.5 67.4 12.7 65.4 13.2 C 68.5 12.4 66.9 13.5 71.1 12.5 C 70.4 12.5 70.8 12.3 71.1 12.4 C 72.6 11.8 69.5 12.6 71.0 12.0 C 69.8 12.3 70.5 12.4 69.4 12.7 C 68.1 12.7 67.4 12.8 68.1 12.2 C 68.1 12.2 68.1 12.2 68.1 12.2 Z M 71.1 12.7 C 72.3 12.5 72.2 12.0 72.8 12.1 C 73.4 12.0 73.2 12.0 73.3 11.9 C 72.9 12.0 72.8 12.0 72.8 11.9 C 71.8 12.2 70.8 12.5 71.1 12.7 C 71.1 12.7 71.1 12.7 71.1 12.7 Z M 60.6 15.3 C 62.4 14.7 63.0 14.7 63.9 14.3 C 64.6 14.5 65.1 13.8 66.1 13.9 C 67.9 13.3 66.6 13.6 66.0 13.6 C 67.8 13.0 66.5 13.7 68.3 13.2 C 68.6 12.8 66.3 13.5 66.5 13.1 C 65.1 13.4 65.2 13.6 64.3 13.9 C 63.7 14.1 63.9 13.9 63.8 13.8 C 62.2 14.3 62.3 14.1 61.0 14.4 C 60.8 14.7 61.3 14.7 62.7 14.2 C 61.3 14.7 60.7 15.1 59.0 15.4 C 60.1 14.8 54.8 16.3 55.3 16.6 C 56.7 16.2 56.3 16.1 56.8 15.9 C 58.7 15.5 59.9 15.2 60.6 15.3 C 60.6 15.3 60.6 15.3 60.6 15.3 Z M 27.3 27.1 C 26.7 27.4 26.2 27.6 25.3 28.1 C 25.2 27.9 26.3 27.4 25.2 27.8 C 23.8 28.6 23.5 28.8 22.7 29.3 C 23.3 29.1 26.2 27.8 24.8 28.7 C 25.2 28.5 26.2 28.0 27.4 27.4 C 25.8 27.9 29.4 26.3 30.9 25.6 C 30.6 25.4 33.4 24.5 34.4 23.8 C 33.4 24.0 30.6 25.6 29.4 26.2 C 29.9 25.9 25.8 27.5 27.3 27.1 C 27.3 27.1 27.3 27.1 27.3 27.1 Z M 75.7 11.5 C 76.0 11.4 77.3 11.1 76.2 11.3 C 76.7 11.1 77.8 11.0 77.3 10.7 C 77.9 10.6 78.5 10.5 79.1 10.4 C 78.9 10.5 77.3 10.8 77.9 10.9 C 79.1 10.5 78.7 10.8 80.3 10.5 C 79.5 10.8 80.4 10.7 79.8 11.1 C 80.2 10.9 81.7 10.6 81.5 10.5 C 83.8 10.1 80.9 10.9 83.9 10.3 C 83.9 10.6 81.8 10.9 81.0 11.0 C 80.7 11.3 84.7 10.4 86.9 10.1 C 84.9 10.2 86.5 9.7 87.4 9.3 C 88.1 9.3 87.4 9.5 88.7 9.4 C 89.7 9.3 90.2 9.1 90.5 9.1 C 91.3 9.0 91.0 8.9 91.1 8.7 C 92.5 8.5 91.5 9.1 93.5 8.7 C 91.9 8.6 93.7 8.2 96.5 7.9 C 96.3 7.8 95.4 8.0 95.3 7.9 C 95.7 7.6 97.4 7.7 97.8 7.8 C 98.8 7.6 98.1 7.5 97.2 7.7 C 97.8 7.5 98.3 7.4 99.0 7.2 C 95.9 7.6 91.1 8.3 85.5 8.9 C 86.6 8.9 85.4 9.2 83.8 9.4 C 83.5 9.3 84.2 9.2 85.0 9.0 C 83.0 9.1 83.2 9.7 80.3 10.1 C 78.6 10.3 82.0 9.5 80.2 9.7 C 79.1 10.0 78.4 10.4 77.9 10.2 C 76.0 10.7 75.6 11.1 72.7 11.7 C 74.4 11.5 75.2 11.8 76.9 11.4 C 76.8 11.3 76.1 11.5 75.7 11.5 C 75.7 11.5 75.7 11.5 75.7 11.5 Z M 16.2 33.8 C 15.3 34.5 15.0 34.9 14.7 35.0 C 13.4 36.2 15.1 35.0 15.4 34.8 C 16.0 34.3 16.2 34.0 16.2 33.8 C 16.2 33.8 16.2 33.8 16.2 33.8 Z M 141.1 107.8 C 143.6 107.9 143.1 107.6 145.1 107.7 C 143.5 107.5 143.1 107.3 140.5 107.3 C 140.3 107.5 140.3 107.7 141.1 107.8 C 141.1 107.8 141.1 107.8 141.1 107.8 Z M 21.6 30.2 C 22.9 29.1 20.1 31.5 20.0 31.4 C 18.5 32.5 21.5 30.5 20.2 31.7 C 21.5 30.7 22.4 30.3 24.2 29.1 C 24.1 29.0 22.6 29.9 21.2 30.8 C 20.9 30.8 21.7 30.3 21.6 30.2 C 21.6 30.2 21.6 30.2 21.6 30.2 Z M 115.9 105.7 C 114.2 105.7 117.4 106.2 118.4 106.4 C 118.5 106.1 118.0 106.1 115.9 105.7 C 115.9 105.7 115.9 105.7 115.9 105.7 Z M 158.2 107.6 C 159.1 107.3 155.2 107.6 156.2 107.3 C 155.0 107.2 154.9 107.3 154.8 107.4 C 154.3 107.4 152.4 107.4 152.9 107.2 C 152.6 107.0 155.9 107.2 154.8 107.0 C 155.9 106.9 156.0 107.0 156.8 107.0 C 154.9 107.0 155.8 107.3 158.2 107.3 C 158.2 107.1 157.1 107.2 158.2 107.0 C 158.3 107.1 159.5 107.3 159.4 107.6 C 161.5 107.6 160.3 107.2 162.7 107.2 C 162.5 107.0 161.0 107.1 160.1 107.0 C 160.3 106.7 162.6 107.2 162.0 106.8 C 162.6 107.0 164.0 107.1 164.0 107.3 C 162.2 107.5 161.0 107.7 159.4 107.8 C 160.9 107.9 162.9 107.4 165.3 107.5 C 165.1 107.4 166.5 107.3 166.0 107.1 C 167.9 107.1 167.0 107.5 166.7 107.5 C 167.2 107.7 170.9 107.4 170.6 107.2 C 170.9 107.4 175.3 107.2 175.1 106.9 C 176.4 107.0 178.4 106.5 179.0 106.8 C 179.8 106.7 181.3 106.6 182.9 106.5 C 183.4 106.2 180.5 106.5 180.3 106.4 C 179.8 106.2 183.4 106.2 182.9 106.0 C 182.9 106.0 182.9 105.9 182.9 105.9 C 181.6 106.1 180.3 106.2 179.0 106.4 C 178.1 106.4 179.3 106.2 179.0 106.1 C 178.1 106.3 174.0 106.8 173.8 106.4 C 171.0 106.6 169.1 106.6 167.9 106.8 C 166.3 106.9 168.9 106.7 167.9 106.5 C 163.0 107.0 157.0 106.7 152.9 107.0 C 152.0 107.0 152.4 106.8 152.2 106.7 C 146.6 106.8 151.4 107.2 147.0 107.0 C 147.0 106.8 149.1 106.9 149.0 106.7 C 147.4 106.7 147.1 106.8 145.0 106.7 C 145.0 106.8 145.0 106.9 145.0 107.0 C 143.4 107.0 144.0 106.7 143.1 106.6 C 141.0 106.6 141.5 106.8 140.5 106.4 C 138.5 106.5 136.6 106.5 134.6 106.3 C 133.3 106.4 135.8 106.9 137.9 107.0 C 137.8 107.0 137.2 107.0 137.2 107.1 C 134.8 106.8 134.4 106.3 130.8 106.1 C 133.5 106.5 129.3 106.1 128.8 105.9 C 127.3 105.8 128.4 106.2 129.4 106.2 C 129.2 106.3 128.3 106.2 128.2 106.1 C 127.9 106.4 131.5 106.8 135.2 106.9 C 133.5 107.2 137.9 106.9 135.9 107.4 C 138.9 107.4 136.4 107.0 139.8 107.2 C 139.5 107.1 138.8 107.0 138.5 106.8 C 141.1 106.9 140.4 107.2 143.1 107.2 C 143.6 107.0 141.8 107.0 141.8 106.9 C 144.8 107.2 145.7 107.3 147.7 107.5 C 148.1 107.4 147.6 107.2 150.9 107.3 C 150.9 107.4 150.9 107.5 150.9 107.5 C 149.3 107.4 149.0 107.9 152.9 107.9 C 153.2 107.7 152.0 107.8 150.9 107.7 C 151.4 107.6 152.7 107.5 154.2 107.5 C 155.0 107.5 155.9 107.7 154.8 107.7 C 155.5 107.9 156.1 107.5 158.2 107.6 C 158.2 107.6 158.2 107.6 158.2 107.6 Z M 3.2 54.5 C 3.3 54.8 3.3 55.1 3.3 55.8 C 3.5 56.1 3.5 54.9 3.6 54.9 C 3.7 54.0 3.3 54.7 3.2 54.5 C 3.2 54.5 3.2 54.5 3.2 54.5 Z M 8.0 42.4 C 7.8 42.4 7.6 43.2 6.9 44.1 C 6.9 44.5 7.6 43.3 7.7 43.4 C 8.5 42.3 7.2 43.5 8.0 42.4 C 8.0 42.4 8.0 42.4 8.0 42.4 Z M 5.1 47.5 C 4.7 47.8 5.0 48.0 5.4 47.0 C 5.5 47.2 5.5 47.4 5.3 48.0 C 5.8 47.5 5.6 46.9 6.2 45.9 C 5.9 46.2 5.5 46.7 5.1 47.5 C 5.1 47.5 5.1 47.5 5.1 47.5 Z M 4.4 49.2 C 4.4 49.9 4.0 50.2 3.9 51.4 C 4.1 51.2 4.8 48.7 4.8 48.3 C 4.8 47.9 3.9 50.5 4.4 49.2 C 4.4 49.2 4.4 49.2 4.4 49.2 Z M 91.1 102.3 C 91.7 102.4 91.5 102.3 91.7 102.2 C 93.5 102.9 96.1 103.2 94.0 103.2 C 96.0 103.3 97.8 103.9 99.5 104.2 C 101.0 104.4 100.3 104.0 101.4 104.2 C 103.2 104.5 100.4 104.2 100.8 104.3 C 101.1 104.6 101.7 104.2 103.9 104.6 C 103.3 104.1 105.8 104.9 105.2 104.4 C 106.4 104.7 106.7 104.6 108.3 104.8 C 108.2 104.6 106.6 104.4 106.5 104.2 C 105.7 103.9 105.6 104.4 107.1 104.5 C 106.2 104.6 104.0 104.0 103.3 104.1 C 102.6 103.7 105.3 104.3 104.6 103.9 C 104.0 103.9 103.5 103.9 103.4 103.9 C 102.4 103.8 101.9 103.6 101.5 103.5 C 102.0 103.5 102.1 103.6 102.1 103.6 C 103.2 103.8 101.0 103.1 103.4 103.4 C 103.0 103.3 102.0 103.1 102.2 103.0 C 101.5 102.7 102.1 103.7 99.7 103.1 C 98.0 103.1 103.5 103.8 102.0 104.1 C 98.6 103.6 100.6 103.5 97.8 103.1 C 97.8 103.2 97.8 103.3 97.1 103.2 C 97.2 103.3 98.3 103.4 99.0 103.5 C 98.8 103.6 97.8 103.5 97.1 103.4 C 97.2 103.4 97.8 103.5 97.7 103.6 C 95.4 103.2 95.7 102.7 97.8 102.9 C 97.8 102.7 94.9 102.3 94.2 102.3 C 94.9 102.6 94.1 102.4 94.7 102.8 C 95.3 102.9 95.2 102.8 95.4 102.7 C 96.4 102.9 95.4 102.9 95.3 103.0 C 94.1 102.7 94.2 102.5 92.9 102.5 C 93.2 102.5 93.5 102.5 93.5 102.4 C 92.9 102.3 92.3 102.2 91.7 102.1 C 91.7 102.2 91.0 102.1 91.1 102.3 C 91.1 102.3 91.1 102.3 91.1 102.3 Z M 123.6 106.6 C 125.7 106.8 124.6 106.5 123.6 106.4 C 124.0 106.4 124.8 106.4 125.5 106.4 C 124.9 106.3 124.4 106.3 122.3 106.1 C 124.1 105.9 122.3 105.4 119.2 105.1 C 118.2 105.5 120.9 105.8 119.8 106.0 C 122.1 106.0 123.3 106.3 123.6 106.6 C 123.6 106.6 123.6 106.6 123.6 106.6 Z M 15.4 34.9 C 14.5 35.7 13.6 36.5 12.8 37.2 C 13.0 37.3 15.9 35.0 15.4 34.9 C 15.4 34.9 15.4 34.9 15.4 34.9 Z M 101.5 7.2 C 102.0 7.1 102.1 7.1 102.1 7.2 C 103.9 6.9 101.3 7.1 102.1 6.8 C 101.4 6.9 100.8 6.9 100.2 7.0 C 100.1 7.1 102.8 6.9 100.9 7.3 C 101.0 7.3 101.5 7.2 101.5 7.2 C 101.5 7.2 101.5 7.2 101.5 7.2 Z M 3.6 53.6 C 3.6 54.4 3.9 53.9 3.8 55.8 C 4.0 55.1 4.0 54.7 4.0 53.6 C 3.9 53.6 3.8 53.6 3.6 53.6 C 3.6 53.6 3.6 53.6 3.6 53.6 Z M 82.0 101.2 C 83.5 101.7 84.0 101.2 86.8 101.9 C 85.4 101.3 83.7 101.4 82.0 101.2 C 82.0 101.2 82.0 101.2 82.0 101.2 Z M 188.1 105.8 C 187.1 105.8 188.3 105.6 186.7 105.6 C 185.9 105.8 185.5 105.9 184.2 106.0 C 186.0 106.2 189.2 105.7 190.6 106.0 C 192.1 105.8 192.0 105.5 192.5 105.3 C 191.7 105.4 191.4 105.4 191.2 105.4 C 190.3 105.8 189.2 105.3 188.1 105.8 C 188.1 105.8 188.1 105.8 188.1 105.8 Z M 115.3 105.5 C 114.1 105.3 116.1 105.4 116.6 105.2 C 117.4 105.3 117.1 105.5 117.2 105.6 C 118.4 105.7 118.7 105.6 118.5 105.4 C 116.4 105.2 113.8 104.9 115.4 104.7 C 113.3 104.5 114.4 104.9 113.4 104.9 C 112.3 104.6 113.4 104.6 113.5 104.4 C 113.0 104.4 111.4 104.5 111.6 104.2 C 108.5 104.2 109.8 104.8 112.1 105.4 C 114.1 105.3 111.8 105.0 115.3 105.5 C 115.3 105.5 115.3 105.5 115.3 105.5 Z M 38.4 88.5 C 38.6 88.7 40.0 89.2 40.0 89.3 C 41.8 89.8 43.5 90.2 45.2 90.5 C 45.0 90.2 42.6 89.6 43.5 90.1 C 42.8 89.6 41.2 88.9 40.4 88.4 C 38.7 87.7 38.0 88.0 37.9 87.5 C 36.3 87.0 37.2 87.4 34.9 86.3 C 38.5 88.2 33.5 85.8 33.2 86.0 C 35.3 87.0 37.3 87.8 37.1 87.4 C 38.7 88.2 40.6 89.0 40.9 89.4 C 40.7 89.4 39.3 88.9 38.4 88.5 C 38.4 88.5 38.4 88.5 38.4 88.5 Z M 48.8 91.6 C 48.1 91.4 47.4 91.2 46.2 90.8 C 46.8 91.1 47.1 91.3 46.9 91.4 C 49.2 92.1 49.4 92.0 49.7 92.4 C 50.9 92.8 49.5 92.0 51.3 92.7 C 51.2 92.5 50.3 92.3 50.3 92.2 C 50.1 92.3 49.8 92.3 48.8 91.6 C 48.8 91.6 48.8 91.6 48.8 91.6 Z M 65.0 96.8 C 66.5 97.2 64.3 96.5 65.1 96.5 C 64.7 96.5 62.0 95.7 62.4 95.6 C 61.7 95.1 58.8 94.9 59.2 94.6 C 58.6 94.5 58.8 94.6 58.6 94.7 C 60.5 95.2 60.5 95.4 59.1 95.0 C 59.3 95.2 60.4 95.4 61.2 95.7 C 61.4 95.6 60.6 95.3 60.8 95.2 C 62.4 95.8 63.5 96.3 65.0 96.8 C 65.0 96.8 65.0 96.8 65.0 96.8 Z M 171.9 4.7 C 170.3 4.7 169.4 4.7 168.6 4.7 C 169.1 4.9 169.8 4.8 170.6 4.8 C 170.8 4.9 170.1 4.9 169.2 4.9 C 170.0 5.1 172.7 5.0 171.9 4.7 C 171.9 4.7 171.9 4.7 171.9 4.7 Z M 158.8 4.4 C 157.3 4.4 156.4 4.4 156.2 4.6 C 156.8 4.7 156.6 4.5 157.5 4.5 C 158.1 4.6 158.5 4.7 158.8 4.8 C 159.4 4.8 159.3 4.7 159.5 4.6 C 160.0 4.6 160.1 4.6 160.1 4.7 C 161.9 4.5 158.0 4.7 158.8 4.4 C 158.8 4.4 158.8 4.4 158.8 4.4 Z M 55.9 94.2 C 55.5 93.9 55.2 93.7 53.9 93.3 C 54.1 93.6 53.1 93.2 52.3 93.0 C 53.5 93.6 54.1 93.7 55.9 94.2 C 55.9 94.2 55.9 94.2 55.9 94.2 Z M 79.8 11.3 C 78.0 11.4 78.3 11.8 75.8 12.1 C 75.8 12.2 75.8 12.2 75.8 12.3 C 77.3 11.8 78.0 11.8 79.8 11.3 C 79.8 11.3 79.8 11.3 79.8 11.3 Z M 302.4 64.4 C 302.3 64.2 301.7 65.5 301.5 65.5 C 301.7 66.0 300.9 66.3 299.3 68.6 C 299.2 68.6 299.2 68.4 299.4 68.1 C 298.0 69.9 300.1 67.7 300.4 67.6 C 301.4 66.1 301.7 66.0 302.4 64.4 C 302.4 64.4 302.4 64.4 302.4 64.4 Z M 168.6 106.1 C 168.5 106.2 168.8 106.2 169.2 106.2 C 169.7 106.1 170.1 106.1 170.5 106.1 C 170.4 105.8 168.2 105.7 169.8 105.3 C 169.3 105.3 169.2 105.4 169.2 105.4 C 166.1 106.2 163.6 105.1 159.4 105.6 C 158.8 105.7 158.9 105.8 158.8 105.8 C 159.3 105.8 159.4 105.8 159.4 105.9 C 159.9 105.5 163.7 105.9 162.0 106.0 C 162.2 106.1 162.7 106.0 162.7 106.0 C 163.1 106.0 163.6 106.0 164.0 106.0 C 163.8 105.9 162.9 105.9 162.7 105.8 C 164.8 105.8 167.3 105.8 166.0 106.2 C 167.3 106.1 167.7 106.0 168.6 105.9 C 169.4 105.9 169.4 106.1 168.6 106.1 C 168.6 106.1 168.6 106.1 168.6 106.1 Z M 185.4 105.2 C 187.4 105.1 186.6 104.9 188.6 104.8 C 187.3 104.7 185.8 105.1 184.1 105.0 C 184.4 105.1 185.2 105.1 185.4 105.2 C 185.4 105.2 185.4 105.2 185.4 105.2 Z M 147.7 105.9 C 148.1 105.6 146.3 105.5 144.4 105.5 C 144.0 105.8 145.7 105.8 147.7 105.9 C 147.7 105.9 147.7 105.9 147.7 105.9 Z M 156.2 105.9 C 158.1 105.8 153.8 105.8 154.8 105.6 C 154.0 105.6 153.0 105.6 152.9 105.5 C 152.2 105.6 152.2 105.7 151.0 105.7 C 151.0 105.8 153.1 105.7 152.9 105.9 C 154.4 105.8 154.6 105.8 156.2 105.9 C 156.2 105.9 156.2 105.9 156.2 105.9 Z M 157.5 105.9 C 158.7 105.8 157.1 105.4 155.5 105.4 C 156.1 105.6 156.5 105.8 157.5 105.9 C 157.5 105.9 157.5 105.9 157.5 105.9 Z M 14.0 72.6 C 14.5 73.1 14.3 72.6 14.9 73.2 C 15.0 73.1 12.6 70.9 14.6 72.7 C 14.1 71.8 13.4 71.7 12.6 70.8 C 12.8 71.2 13.0 71.4 12.5 71.0 C 12.1 70.8 14.4 72.7 14.0 72.6 C 14.0 72.6 14.0 72.6 14.0 72.6 Z M 16.5 74.8 C 17.1 75.3 16.9 75.0 16.6 74.8 C 16.7 74.8 17.5 75.4 18.0 75.8 C 18.0 76.0 17.3 74.8 17.4 74.6 C 15.0 72.9 16.6 74.6 16.5 74.8 C 16.5 74.8 16.5 74.8 16.5 74.8 Z M 19.0 76.6 C 20.5 77.9 23.1 79.5 24.5 80.1 C 23.3 79.0 20.0 76.9 19.0 76.6 C 19.0 76.6 19.0 76.6 19.0 76.6 Z M 7.6 64.0 C 8.5 66.5 12.0 70.8 9.4 66.5 C 9.4 66.8 7.6 64.1 7.2 62.8 C 7.0 62.8 6.3 61.3 6.4 61.3 C 5.9 60.3 7.6 64.6 7.6 64.0 C 7.6 64.0 7.6 64.0 7.6 64.0 Z M 27.2 81.1 C 26.1 80.6 27.2 81.7 25.8 80.7 C 24.8 80.2 25.9 80.9 25.6 80.9 C 27.5 82.0 31.9 83.9 32.2 84.4 C 33.4 84.8 33.8 84.8 35.9 85.8 C 36.1 85.7 28.4 82.4 27.1 81.2 C 27.3 81.2 29.8 82.5 27.2 81.1 C 27.2 81.1 27.2 81.1 27.2 81.1 Z M 80.1 12.7 C 80.3 12.5 77.8 13.1 78.3 12.7 C 77.1 13.3 75.8 13.3 74.4 13.9 C 73.9 13.9 74.0 13.5 72.0 13.9 C 72.0 14.1 73.0 13.8 72.1 14.2 C 70.3 14.6 70.7 14.2 68.7 14.8 C 69.1 15.1 64.4 15.9 64.9 16.2 C 66.0 15.9 65.9 15.8 67.7 15.4 C 68.3 15.3 68.0 15.5 68.8 15.3 C 68.3 15.6 67.3 15.5 66.6 15.9 C 66.8 16.0 68.1 15.7 68.3 15.8 C 69.1 15.6 68.1 15.8 68.3 15.6 C 70.4 15.0 68.2 16.1 70.6 15.5 C 70.1 15.4 70.1 15.4 70.5 15.0 C 71.5 14.9 74.3 14.1 72.8 14.8 C 73.0 14.9 74.7 14.3 74.5 14.2 C 75.4 13.9 75.5 14.0 75.6 14.1 C 78.0 13.5 78.3 13.2 77.8 13.1 C 78.3 12.7 78.7 13.1 80.1 12.7 C 80.1 12.7 80.1 12.7 80.1 12.7 Z M 6.0 51.5 C 6.1 50.5 5.8 52.5 5.7 53.4 C 5.8 52.3 6.1 52.7 6.4 51.5 C 6.2 51.9 6.2 51.8 6.4 51.1 C 6.3 50.9 5.8 52.6 6.0 51.5 C 6.0 51.5 6.0 51.5 6.0 51.5 Z M 40.6 87.8 C 41.4 88.3 45.8 89.8 48.2 90.6 C 47.8 90.1 42.0 88.6 41.5 87.9 C 40.2 87.5 42.1 88.3 40.6 87.8 C 40.6 87.8 40.6 87.8 40.6 87.8 Z M 58.9 17.3 C 58.3 17.5 58.7 17.5 58.9 17.4 C 58.8 17.6 57.6 17.9 56.8 18.1 C 58.1 17.9 56.6 18.4 57.0 18.6 C 56.4 18.7 56.1 18.8 56.0 18.9 C 55.8 18.5 52.8 20.2 56.1 19.2 C 55.4 19.2 55.7 19.1 57.0 18.6 C 58.5 18.4 59.6 17.8 60.2 18.0 C 61.2 17.7 61.5 17.4 62.9 17.1 C 63.2 17.2 64.5 17.0 63.5 17.6 C 65.9 17.0 64.2 16.8 66.1 16.3 C 68.0 15.9 65.2 16.8 65.7 16.9 C 66.2 16.7 66.1 16.9 66.3 16.9 C 67.0 16.7 66.9 16.5 66.2 16.6 C 66.4 16.5 68.3 15.9 67.8 16.3 C 68.9 15.9 65.9 15.9 64.5 16.6 C 63.6 16.9 63.5 16.4 64.4 16.2 C 64.0 16.1 62.3 17.1 62.7 16.5 C 62.0 16.7 61.3 16.9 60.5 17.1 C 60.7 17.1 61.1 17.0 61.1 17.1 C 60.4 17.3 59.7 17.5 59.0 17.7 C 59.6 17.4 59.5 17.3 58.9 17.3 C 58.9 17.3 58.9 17.3 58.9 17.3 Z M 31.0 83.4 C 32.7 84.3 33.2 84.3 34.6 84.9 C 34.1 84.5 30.3 82.8 31.0 83.4 C 31.0 83.4 31.0 83.4 31.0 83.4 Z M 90.3 11.6 C 90.1 11.6 89.1 11.8 89.1 11.7 C 90.9 11.3 88.8 11.5 90.2 10.8 C 87.8 11.4 87.1 12.1 90.3 11.8 C 92.7 11.4 87.9 12.0 90.3 11.6 C 90.3 11.6 90.3 11.6 90.3 11.6 Z M 83.1 12.7 C 81.7 13.1 85.3 12.5 86.2 12.5 C 86.2 12.6 86.2 12.6 86.2 12.7 C 88.2 12.0 85.4 12.3 87.2 11.6 C 84.9 11.8 83.9 11.9 81.9 12.4 C 82.0 12.5 82.5 12.4 82.5 12.3 C 84.0 12.1 83.0 12.6 81.4 12.8 C 81.8 12.8 83.3 12.5 84.3 12.4 C 84.0 12.4 83.7 12.4 83.7 12.3 C 84.9 12.0 84.5 12.3 85.4 12.1 C 85.5 12.2 83.2 12.8 83.1 12.7 C 83.1 12.7 83.1 12.7 83.1 12.7 Z M 208.0 9.5 C 206.7 9.4 209.3 10.0 209.1 10.4 C 210.4 10.6 210.7 10.5 211.6 10.6 C 211.2 10.4 209.7 10.2 209.2 10.0 C 209.4 9.7 211.1 10.3 211.6 10.1 C 212.4 9.9 208.5 9.9 208.0 9.5 C 208.0 9.5 208.0 9.5 208.0 9.5 Z M 27.9 29.8 C 27.2 30.2 27.6 30.0 27.9 29.9 C 27.8 30.0 26.7 30.6 26.7 30.5 C 25.7 31.1 27.3 30.3 26.2 31.0 C 26.0 31.3 27.9 30.0 28.0 29.9 C 29.4 29.1 28.4 30.0 28.8 29.9 C 30.1 29.2 29.5 29.3 31.4 28.4 C 30.2 28.8 29.2 29.2 27.9 29.8 C 27.9 29.8 27.9 29.8 27.9 29.8 Z M 94.4 10.5 C 94.6 10.4 93.0 11.1 91.4 11.1 C 89.3 11.5 92.8 11.2 90.9 11.4 C 92.5 11.2 94.4 10.8 96.9 10.4 C 97.4 10.2 93.4 10.8 95.7 10.4 C 95.5 10.3 95.0 10.4 95.0 10.5 C 94.5 10.6 94.5 10.5 94.4 10.5 C 94.4 10.5 94.4 10.5 94.4 10.5 Z M 92.1 11.4 C 92.2 11.5 92.7 11.4 92.7 11.3 C 93.5 11.2 93.5 11.4 92.8 11.6 C 93.8 11.7 93.7 11.2 95.8 11.0 C 94.8 11.0 94.4 10.9 96.3 10.8 C 97.8 10.3 92.8 11.1 92.1 11.4 C 92.1 11.4 92.1 11.4 92.1 11.4 Z M 187.9 7.6 C 188.1 7.7 189.4 7.8 190.4 7.9 C 189.2 8.0 184.0 7.5 183.4 7.3 C 182.8 7.3 182.3 7.3 182.1 7.2 C 182.2 7.3 180.7 7.3 181.5 7.4 C 181.3 7.5 180.2 7.4 180.2 7.5 C 178.3 7.3 180.8 7.3 180.2 7.2 C 177.9 7.3 178.4 7.1 175.7 6.9 C 176.1 7.2 179.1 7.3 178.9 7.6 C 181.0 7.4 183.3 7.7 184.6 8.1 C 182.6 7.6 190.1 7.9 193.6 8.3 C 193.4 8.5 194.7 8.5 196.1 8.8 C 197.0 9.1 196.8 8.6 194.9 8.5 C 194.9 8.3 197.5 8.7 198.6 8.8 C 197.3 8.5 198.1 8.5 197.4 8.4 C 195.0 8.1 197.2 8.4 196.7 8.5 C 196.1 8.5 195.5 8.4 194.8 8.4 C 198.2 8.3 190.0 7.9 193.0 8.1 C 190.4 7.9 190.3 7.6 187.9 7.6 C 187.9 7.6 187.9 7.6 187.9 7.6 Z M 127.0 7.1 C 126.6 7.2 124.5 7.5 124.5 7.3 C 121.9 7.6 124.2 7.7 121.3 7.9 C 121.5 8.0 122.6 7.9 122.6 8.0 C 123.7 7.8 124.8 7.7 124.5 7.4 C 125.8 7.4 126.2 7.3 127.0 7.2 C 126.7 7.3 126.2 7.4 125.1 7.5 C 124.9 7.7 125.4 7.8 127.1 7.7 C 127.8 7.4 127.3 7.3 127.0 7.1 C 127.0 7.1 127.0 7.1 127.0 7.1 Z M 120.6 7.9 C 120.3 7.8 119.9 7.8 120.0 7.7 C 119.0 7.5 119.6 8.0 118.7 8.1 C 118.0 8.2 118.2 8.0 118.1 7.9 C 117.0 8.1 116.1 8.2 115.5 8.1 C 113.8 8.4 117.5 8.2 118.1 8.2 C 119.3 8.1 118.9 8.0 120.6 7.9 C 120.6 7.9 120.6 7.9 120.6 7.9 Z M 101.8 9.6 C 101.4 9.4 100.8 9.8 100.0 9.9 C 100.6 10.0 102.4 9.7 101.2 10.1 C 103.0 10.0 103.1 9.9 105.0 9.7 C 106.1 9.7 105.0 9.4 103.1 9.8 C 103.3 9.7 104.1 9.5 104.3 9.4 C 105.5 9.8 108.6 8.6 106.7 9.2 C 106.2 9.2 105.8 9.2 105.5 9.1 C 105.1 9.4 100.9 9.8 101.8 9.6 C 101.8 9.6 101.8 9.6 101.8 9.6 Z M 43.4 23.3 C 45.1 22.7 45.9 22.3 46.8 22.0 C 47.7 21.7 48.9 21.3 49.9 21.0 C 50.0 21.1 49.9 21.2 49.5 21.3 C 50.0 21.3 50.6 21.0 51.5 20.7 C 51.4 20.6 51.0 20.8 51.0 20.8 C 49.3 21.2 50.7 20.7 50.8 20.5 C 48.8 20.9 45.7 22.5 44.1 22.7 C 42.9 23.2 44.4 22.7 43.4 23.3 C 43.4 23.3 43.4 23.3 43.4 23.3 Z M 301.3 62.1 C 301.3 62.3 301.0 62.9 301.2 62.9 C 301.4 62.3 301.5 61.9 301.7 61.3 C 301.2 62.4 301.0 62.1 300.3 63.4 C 300.7 63.0 300.9 63.2 301.3 62.1 C 301.3 62.1 301.3 62.1 301.3 62.1 Z M 108.0 8.9 C 108.1 9.0 108.1 9.1 107.4 9.2 C 107.2 9.4 109.2 9.1 109.3 9.3 C 109.9 9.2 109.7 9.1 110.5 9.0 C 110.2 8.9 108.6 9.1 109.2 8.8 C 109.8 8.7 109.8 8.7 109.9 8.8 C 111.2 8.5 109.2 8.7 108.0 8.9 C 108.0 8.9 108.0 8.9 108.0 8.9 Z M 214.0 10.6 C 213.2 10.5 214.0 10.7 214.7 10.8 C 212.9 10.8 215.7 11.4 215.8 11.6 C 215.0 11.3 212.6 11.1 212.2 10.9 C 211.5 10.9 212.3 11.2 210.3 11.0 C 210.5 11.2 212.7 11.3 212.2 11.1 C 212.7 11.5 214.8 11.4 214.5 11.7 C 217.2 12.1 217.9 12.1 218.2 11.8 C 215.5 11.5 217.0 11.3 214.6 11.1 C 214.7 11.0 215.4 11.1 215.8 11.1 C 215.7 11.0 214.7 10.8 214.0 10.6 C 214.0 10.6 214.0 10.6 214.0 10.6 Z M 147.7 6.5 C 146.3 6.5 146.4 6.7 146.4 6.9 C 147.0 6.8 147.9 6.8 149.0 6.8 C 148.8 6.6 147.0 6.7 147.7 6.5 C 147.7 6.5 147.7 6.5 147.7 6.5 Z M 204.2 9.6 C 204.1 9.5 203.6 9.5 203.6 9.5 C 202.0 9.3 201.7 9.2 201.1 9.0 C 200.3 8.9 200.6 9.1 200.5 9.2 C 202.0 9.2 201.6 9.5 203.6 9.7 C 203.5 9.6 203.7 9.5 204.2 9.6 C 204.2 9.6 204.2 9.6 204.2 9.6 Z M 161.4 6.6 C 160.6 6.6 161.0 6.7 161.4 6.7 C 160.5 7.0 157.8 6.7 156.8 6.8 C 156.7 7.0 160.0 7.0 156.2 7.1 C 156.9 7.2 160.3 7.1 162.0 7.2 C 161.6 7.4 159.3 7.4 159.4 7.6 C 161.4 7.5 163.7 7.4 164.0 7.1 C 161.1 7.0 162.1 6.8 161.4 6.6 C 161.4 6.6 161.4 6.6 161.4 6.6 Z M 164.6 6.8 C 164.4 6.7 163.8 6.9 162.7 6.8 C 164.3 7.1 165.2 7.0 168.5 7.2 C 168.5 7.1 168.5 7.1 168.5 7.0 C 169.2 7.1 169.9 7.1 170.5 7.1 C 167.7 6.7 167.0 6.9 164.0 6.9 C 163.9 6.8 164.2 6.8 164.6 6.8 C 164.6 6.8 164.6 6.8 164.6 6.8 Z M 80.3 13.4 C 81.1 13.4 81.8 13.4 83.2 13.2 C 83.1 13.0 82.2 13.0 80.3 13.4 C 80.3 13.4 80.3 13.4 80.3 13.4 Z M 206.6 10.0 C 208.3 10.1 205.0 9.8 206.0 10.2 C 207.3 10.5 208.7 10.7 209.0 11.0 C 211.5 11.0 206.3 10.3 206.6 10.0 C 206.6 10.0 206.6 10.0 206.6 10.0 Z M 195.4 9.4 C 194.7 9.3 194.7 8.9 195.4 9.2 C 197.2 9.4 193.9 8.8 196.7 9.2 C 195.5 8.9 192.9 8.6 191.6 8.6 C 191.7 8.8 194.1 9.0 194.1 9.2 C 194.2 9.2 193.9 9.2 193.5 9.2 C 193.7 9.3 194.3 9.2 195.4 9.4 C 195.4 9.4 195.4 9.4 195.4 9.4 Z M 185.9 8.2 C 187.0 8.4 188.2 8.6 190.4 8.8 C 189.0 8.5 188.2 8.2 185.9 8.2 C 185.9 8.2 185.9 8.2 185.9 8.2 Z M 296.5 42.9 C 295.7 42.0 296.2 43.0 296.2 43.1 C 297.0 44.0 297.1 43.8 297.7 44.9 C 297.7 44.4 296.8 43.6 296.5 42.9 C 296.5 42.9 296.5 42.9 296.5 42.9 Z M 298.7 46.2 C 298.7 46.4 299.5 47.6 299.4 47.8 C 300.2 48.3 299.9 49.7 300.3 49.5 C 300.3 49.8 300.4 50.1 300.6 50.6 C 300.7 49.5 299.4 47.3 298.7 46.2 C 298.7 46.2 298.7 46.2 298.7 46.2 Z M 174.9 8.0 C 173.2 7.9 175.4 8.4 173.7 8.3 C 173.5 8.4 176.9 8.6 174.9 8.6 C 177.5 8.9 174.7 8.1 174.9 8.0 C 174.9 8.0 174.9 8.0 174.9 8.0 Z M 143.2 7.9 C 143.3 7.7 140.9 7.9 140.0 7.9 C 140.0 8.0 140.8 8.0 141.3 8.0 C 141.0 8.1 140.7 8.1 140.0 8.2 C 140.5 8.3 142.3 8.0 143.2 7.9 C 143.2 7.9 143.2 7.9 143.2 7.9 Z M 178.4 4.0 C 179.5 4.3 180.9 4.6 181.6 4.3 C 182.8 4.5 180.9 4.5 182.2 4.7 C 184.1 4.7 183.2 4.9 186.1 5.0 C 185.6 5.2 187.7 5.4 188.1 5.6 C 186.9 5.6 185.4 5.2 184.8 5.4 C 185.8 5.4 185.2 5.6 184.8 5.4 C 182.9 5.2 187.2 5.3 184.8 5.0 C 184.1 5.3 180.7 4.4 178.4 4.3 C 179.3 4.2 176.7 3.9 178.4 4.0 C 178.4 4.0 178.4 4.0 178.4 4.0 Z M 190.0 5.3 C 191.5 5.4 192.3 6.0 191.9 5.9 C 191.9 5.8 190.1 5.7 189.9 5.7 C 190.4 5.8 190.7 5.8 190.6 5.9 C 187.7 5.6 188.8 5.5 188.1 5.3 C 189.6 5.3 190.1 5.5 190.6 5.4 C 190.3 5.4 189.9 5.3 190.0 5.3 C 190.0 5.3 190.0 5.3 190.0 5.3 Z M 222.2 13.3 C 222.0 13.1 221.6 13.2 221.0 13.2 C 220.9 12.8 217.9 12.8 217.5 12.5 C 218.2 12.5 219.8 12.8 220.5 12.8 C 219.7 12.6 219.5 12.5 218.7 12.5 C 218.9 12.3 220.6 12.6 221.1 12.5 C 221.3 12.7 222.1 12.6 222.3 12.8 C 220.0 12.5 223.6 13.5 222.2 13.3 C 222.2 13.3 222.2 13.3 222.2 13.3 Z M 160.1 7.9 C 159.8 8.1 162.6 8.7 160.1 9.0 C 159.5 8.8 159.2 8.6 159.4 8.3 C 157.8 8.4 157.1 8.2 156.2 8.4 C 153.2 7.7 158.5 8.5 160.1 7.9 C 160.1 7.9 160.1 7.9 160.1 7.9 Z M 149.7 8.1 C 150.2 7.9 148.8 7.9 149.0 7.7 C 150.3 7.9 154.3 7.6 153.0 7.8 C 151.6 7.9 151.6 8.1 149.7 8.1 C 149.7 8.1 149.7 8.1 149.7 8.1 Z M 75.5 97.6 C 73.6 97.4 72.8 96.7 73.8 96.8 C 73.4 97.0 76.2 97.4 75.5 97.6 C 75.5 97.6 75.5 97.6 75.5 97.6 Z M 6.9 69.5 C 7.7 70.8 8.4 71.5 8.4 71.8 C 7.3 70.6 7.6 70.6 6.8 69.6 C 6.7 69.6 6.1 69.0 6.1 68.8 C 6.6 69.4 6.6 69.2 6.9 69.5 C 6.9 69.5 6.9 69.5 6.9 69.5 Z M 110.1 4.7 C 109.9 4.6 109.2 4.6 109.4 4.4 C 111.4 4.3 113.5 3.9 115.1 3.6 C 115.1 3.7 115.2 3.8 115.2 3.9 C 112.1 4.1 111.3 4.4 110.1 4.7 C 110.1 4.7 110.1 4.7 110.1 4.7 Z M 106.2 4.6 C 105.9 4.8 107.0 4.9 105.7 5.1 C 105.7 4.9 103.3 4.9 104.4 4.7 C 104.8 4.9 105.4 4.8 106.2 4.6 C 106.2 4.6 106.2 4.6 106.2 4.6 Z M 214.5 7.4 C 216.0 7.6 213.9 7.1 214.0 7.0 C 215.0 7.2 216.5 7.4 217.0 7.6 C 215.9 7.4 215.1 7.7 214.5 7.4 C 214.5 7.4 214.5 7.4 214.5 7.4 Z M 191.3 5.3 C 188.0 5.1 189.4 4.7 186.2 4.4 C 187.5 4.4 190.5 4.6 191.3 4.5 C 191.2 4.6 192.0 4.7 191.9 4.9 C 190.8 4.8 190.6 4.7 189.4 4.6 C 189.8 4.9 189.8 4.8 189.4 5.0 C 190.2 5.1 190.8 5.1 191.3 5.1 C 191.0 5.2 192.2 5.3 191.3 5.3 C 191.3 5.3 191.3 5.3 191.3 5.3 Z M 213.8 7.9 C 215.1 8.0 216.1 8.5 215.0 8.4 C 214.9 8.2 214.0 8.3 213.8 8.1 C 215.6 8.3 212.4 7.8 213.2 7.7 C 214.3 7.9 214.7 7.8 214.5 7.6 C 215.2 7.7 216.3 7.9 216.3 8.0 C 215.8 7.9 215.1 7.8 215.1 7.9 C 215.5 7.9 215.8 8.0 215.7 8.1 C 214.6 7.9 214.1 7.9 213.8 7.9 C 213.8 7.9 213.8 7.9 213.8 7.9 Z M 205.2 6.8 C 206.9 7.0 207.1 7.3 207.6 7.5 C 205.3 7.1 205.0 6.8 203.3 6.4 C 205.2 6.7 207.1 6.6 207.7 6.9 C 206.9 6.8 205.3 6.7 205.2 6.8 C 205.2 6.8 205.2 6.8 205.2 6.8 Z M 237.9 98.3 C 236.5 98.5 235.4 98.6 233.9 98.8 C 233.4 99.1 236.3 99.0 235.1 99.1 C 233.6 99.4 234.5 98.9 233.3 99.1 C 234.6 99.2 227.9 100.6 227.5 100.3 C 228.6 100.1 228.9 99.9 228.6 99.8 C 231.4 99.3 232.4 98.9 234.4 98.4 C 235.9 98.4 240.1 97.5 242.2 96.7 C 243.8 96.8 246.3 95.6 248.3 95.5 C 248.8 95.2 246.6 95.6 248.3 95.2 C 249.4 95.1 248.6 95.4 250.0 95.2 C 250.1 95.0 249.7 95.0 250.4 94.7 C 250.4 94.9 251.3 94.7 251.6 94.6 C 248.7 95.4 251.8 94.9 249.6 95.6 C 248.6 95.8 250.5 95.0 247.8 95.7 C 246.9 96.0 246.0 96.3 246.3 96.5 C 245.6 96.7 245.1 96.8 244.7 97.0 C 245.6 96.5 240.9 98.0 243.0 97.2 C 243.2 97.1 244.7 96.8 245.7 96.4 C 244.7 96.4 243.5 96.9 241.8 97.4 C 241.1 97.4 242.1 97.1 241.2 97.2 C 239.9 97.7 241.8 97.4 240.8 97.8 C 241.2 97.7 241.9 97.5 241.9 97.6 C 239.5 97.9 238.6 98.4 237.4 98.7 C 238.2 98.3 236.0 98.8 237.9 98.3 C 237.9 98.3 237.9 98.3 237.9 98.3 Z M 257.3 92.8 C 257.8 92.6 258.3 92.5 258.8 92.3 C 259.0 92.5 257.0 93.1 258.4 92.9 C 256.2 93.6 258.4 92.6 257.3 92.8 C 257.3 92.8 257.3 92.8 257.3 92.8 Z M 246.5 95.0 C 245.7 94.9 246.2 95.4 245.5 95.6 C 246.8 95.2 248.0 94.8 248.2 95.0 C 246.7 95.3 246.0 95.5 244.4 96.0 C 245.9 95.3 242.6 96.2 242.1 96.0 C 243.3 95.6 244.2 95.3 245.9 94.9 C 245.6 95.1 248.0 94.5 246.5 95.0 C 246.5 95.0 246.5 95.0 246.5 95.0 Z M 250.7 93.5 C 251.0 93.6 253.3 92.8 252.9 93.2 C 251.5 93.5 251.0 93.8 251.4 93.9 C 250.3 94.2 250.2 94.1 249.2 94.4 C 248.6 94.3 250.2 93.8 250.7 93.6 C 250.4 93.7 250.1 93.7 250.7 93.5 C 250.7 93.5 250.7 93.5 250.7 93.5 Z M 294.8 70.0 C 295.3 69.9 293.7 71.3 293.4 71.5 C 294.0 71.3 293.8 71.5 292.9 72.5 C 293.0 71.9 291.6 73.3 290.3 73.9 C 290.2 74.3 291.6 73.3 290.1 74.6 C 288.8 75.4 287.7 76.4 285.5 77.8 C 284.9 77.9 285.9 77.2 286.4 76.8 C 285.0 77.8 285.3 77.3 284.1 78.0 C 284.4 78.0 283.5 78.7 283.0 78.8 C 285.0 77.5 280.1 80.1 282.2 78.8 C 282.4 78.8 282.9 78.4 283.4 78.1 C 283.0 78.7 285.7 76.9 286.3 76.7 C 287.1 75.6 289.8 73.9 292.4 72.0 C 292.6 71.9 291.9 72.7 292.5 72.2 C 292.6 72.0 293.3 71.3 293.6 71.0 C 293.7 71.1 294.0 70.9 294.5 70.4 C 294.5 70.4 294.5 70.3 294.8 70.0 C 294.8 70.0 294.8 70.0 294.8 70.0 Z M 134.7 103.7 C 134.9 103.3 130.7 103.3 129.6 103.4 C 129.8 102.9 137.1 103.4 134.7 103.7 C 134.7 103.7 134.7 103.7 134.7 103.7 Z M 160.0 103.8 C 159.0 103.8 159.7 104.0 158.8 104.1 C 158.7 103.8 156.2 104.3 156.2 104.1 C 157.4 103.8 158.1 103.9 160.0 103.8 C 160.0 103.8 160.0 103.8 160.0 103.8 Z M 183.3 103.0 C 181.5 103.1 184.3 103.0 184.0 103.2 C 182.4 103.3 180.7 103.4 180.8 103.1 C 182.2 103.2 183.1 102.8 183.3 103.0 C 183.3 103.0 183.3 103.0 183.3 103.0 Z M 148.4 103.6 C 146.8 103.4 149.4 103.2 149.6 103.3 C 147.9 103.4 150.8 103.6 152.2 103.5 C 152.2 103.8 151.5 103.7 152.2 104.0 C 150.0 104.1 151.9 103.7 150.3 103.7 C 149.2 103.9 150.3 103.8 150.3 104.1 C 149.6 104.1 149.0 104.0 148.4 104.0 C 148.4 103.9 148.4 103.8 148.4 103.6 C 149.1 103.6 149.9 103.6 149.6 103.5 C 149.0 103.5 148.9 103.5 148.4 103.6 C 148.4 103.6 148.4 103.6 148.4 103.6 Z M 263.6 87.2 C 262.3 87.7 263.5 87.4 264.5 87.1 C 264.7 86.9 265.3 86.1 266.8 85.8 C 263.8 87.2 267.9 85.8 266.2 86.6 C 265.4 86.6 263.6 87.6 262.0 88.2 C 261.3 88.2 262.8 87.3 263.6 87.2 C 263.6 87.2 263.6 87.2 263.6 87.2 Z M 269.3 85.2 C 269.1 85.2 268.6 85.4 267.7 85.8 C 268.6 85.2 267.2 85.7 268.4 85.1 C 268.3 85.3 272.4 83.7 270.0 84.7 C 267.9 85.5 270.7 84.6 271.6 84.2 C 270.6 84.6 268.8 85.7 268.5 85.6 C 269.1 85.4 269.5 85.2 269.3 85.2 C 269.3 85.2 269.3 85.2 269.3 85.2 Z M 299.5 62.5 C 299.4 62.3 299.1 62.9 298.9 63.1 C 299.9 61.4 300.4 59.9 300.6 59.1 C 300.4 59.9 300.6 59.9 300.8 59.5 C 300.5 60.3 300.5 60.6 300.3 60.8 C 300.4 60.0 300.0 61.5 299.5 62.5 C 299.5 62.5 299.5 62.5 299.5 62.5 Z M 299.5 62.5 " fill="#000000"></path><image xlink:href="../../1BE7A03E-C66D-4413-94C1-F85C6D2757AE/assets/B8C5E90422A339E8CC6D71927AC6083F.png" width="70.00" height="38.00" transform="matrix(1.00, 0.00, -0.00, -1.00, 120.0, 70.0)"></image><g><clipPath id="clip-1307"><path d="M 5.5 5.6 L 303.6 5.6 L 303.6 105.6 L 5.5 105.6 Z M 5.5 5.6 "></path></clipPath><g clip-path="url(#clip-1307)"><text xml:space="preserve" font-family="Chalkduster" font-size="32.0" fill="#000000" transform="matrix(1.00, 0.00, -0.00, -1.00, 124.0, 41.0)">S</text><text xml:space="preserve" font-family="Chalkduster" font-size="32.0" fill="#000000" transform="matrix(1.00, 0.00, -0.00, -1.00, 139.9, 41.0)">O</text><text xml:space="preserve" font-family="Chalkduster" font-size="32.0" fill="#000000" transform="matrix(1.00, 0.00, -0.00, -1.00, 163.5, 41.0)">B</text></g></g></g></svg>